v -0.003497 -0.058870 0.075326
v -0.006535 -0.055782 0.072686
v -0.003497 -0.060984 0.075168
v -0.001905 -0.059892 0.075266
v -0.000805 -0.058842 0.075319
v 0.014299 -0.045814 0.075306
v 0.022733 -0.022452 0.075312
v 0.019519 0.003016 0.075220
v 0.017718 0.005869 0.075194
v 0.015403 0.006408 0.074905
v 0.013408 0.006408 0.073953
v -0.010085 -0.056445 0.067894
v -0.010085 -0.059692 0.068222
v 0.011898 0.006408 0.072148
v -0.003489 -0.062925 0.074190
v -0.002442 -0.061923 0.074590
v -0.001584 -0.060555 0.075017
v -0.000037 -0.059505 0.075089
v 0.005552 -0.054794 0.075280
v 0.012297 -0.048211 0.075293
v 0.013453 -0.047085 0.075273
v 0.015600 -0.044813 0.075207
v 0.017073 -0.042029 0.075253
v 0.019694 -0.036233 0.075280
v 0.020678 -0.033077 0.075299
v 0.022755 -0.025547 0.075306
v 0.023799 -0.019717 0.075280
v 0.023124 -0.014232 0.075280
v 0.021066 0.000184 0.075207
v 0.021066 0.001731 0.075129
v 0.020033 0.004819 0.075030
v 0.023124 -0.010115 0.075253
v 0.019519 0.006125 0.074945
v 0.022557 0.006325 0.069883
v 0.021454 0.006408 0.068623
v -0.010085 -0.056169 0.051298
v 0.011350 0.006408 0.070041
v 0.011275 0.006408 0.068426
v -0.010085 -0.059215 0.042213
v -0.003146 -0.064127 0.072155
v -0.002043 -0.062821 0.073691
v -0.000574 -0.062068 0.073730
v 0.000314 -0.060991 0.074236
v 0.001507 -0.059533 0.074741
v 0.002536 -0.058497 0.074905
v 0.005209 -0.056231 0.075017
v 0.006902 -0.054877 0.075037
v 0.011402 -0.049372 0.075253
v 0.013259 -0.048605 0.075063
v 0.016939 -0.044087 0.074984
v 0.017968 -0.042029 0.075076
v 0.018803 -0.039528 0.075194
v 0.021066 -0.035315 0.075122
v 0.022095 -0.032738 0.075122
v 0.021953 -0.030880 0.075260
v 0.022658 -0.026908 0.075293
v 0.023818 -0.024007 0.075214
v 0.025178 -0.017831 0.074984
v 0.025178 -0.013721 0.074997
v 0.024153 -0.012692 0.075207
v 0.022095 -0.001363 0.075142
v 0.023124 -0.006516 0.075201
v 0.022095 0.000702 0.074951
v 0.021245 0.003783 0.074761
v 0.021417 0.005904 0.074065
v 0.022539 0.005793 0.072654
v 0.022897 0.005828 0.071288
v 0.023870 0.003707 0.070481
v 0.018396 -0.004140 0.008424
v 0.020033 0.006408 0.068347
v -0.010085 -0.056052 0.042213
v 0.014978 0.006408 0.068262
v 0.014586 -0.004368 0.008259
v -0.007337 -0.054048 0.008476
v -0.002878 -0.064161 0.070507
v -0.007020 -0.057544 0.008778
v -0.001122 -0.063201 0.072174
v 0.000724 -0.062220 0.072332
v 0.002096 -0.060804 0.073474
v 0.003699 -0.058891 0.074328
v 0.004594 -0.057475 0.074741
v 0.010235 -0.052888 0.074695
v 0.011271 -0.051285 0.074925
v 0.006730 -0.056791 0.074295
v 0.007998 -0.055817 0.074262
v 0.015395 -0.046920 0.074807
v 0.017968 -0.043051 0.074846
v 0.019000 -0.040993 0.074938
v 0.020030 -0.038423 0.075050
v 0.021059 -0.036883 0.074938
v 0.023124 -0.030680 0.075017
v 0.023124 -0.029139 0.075129
v 0.022095 -0.034285 0.074938
v 0.024153 -0.025547 0.075063
v 0.025182 -0.019945 0.074951
v 0.026741 -0.017831 0.074019
v 0.025589 -0.021430 0.074695
v 0.026879 -0.016284 0.073934
v 0.026730 -0.014743 0.074019
v 0.026495 -0.012692 0.074144
v 0.025178 -0.012174 0.074951
v 0.024153 -0.009093 0.075115
v 0.023124 -0.004458 0.075122
v 0.023124 -0.002911 0.075010
v 0.022263 0.002747 0.074485
v 0.023523 -0.001412 0.074649
v 0.022501 0.004446 0.073658
v 0.023288 0.000951 0.074282
v 0.023695 0.002388 0.073310
v 0.023445 0.004122 0.072299
v 0.024671 0.001738 0.070612
v 0.025212 0.000184 0.070658
v 0.019071 -0.006565 0.008575
v 0.019519 -0.008913 0.008325
v 0.016562 -0.016906 0.008259
v -0.000018 -0.053876 0.008476
v -0.005178 -0.056715 0.008680
v -0.001185 -0.063367 0.070487
v 0.003013 -0.061053 0.071984
v 0.004210 -0.059982 0.072870
v 0.005287 -0.059112 0.073054
v 0.006082 -0.057951 0.073743
v 0.011764 -0.052556 0.074203
v 0.012968 -0.050954 0.074374
v 0.009486 -0.054718 0.074150
v 0.007927 -0.057060 0.073205
v 0.017151 -0.046008 0.074282
v 0.018355 -0.044219 0.074315
v 0.015235 -0.048246 0.074413
v 0.019101 -0.042416 0.074518
v 0.020164 -0.040357 0.074564
v 0.023493 -0.033823 0.074301
v 0.021260 -0.038313 0.074505
v 0.024504 -0.029008 0.074584
v 0.024153 -0.027094 0.074951
v 0.023124 -0.032227 0.074813
v 0.025495 -0.024780 0.074505
v 0.026688 -0.019910 0.073973
v 0.025719 -0.023102 0.074518
v 0.027054 -0.021941 0.073244
v 0.027710 -0.016284 0.072595
v 0.027237 -0.012174 0.073146
v 0.026707 -0.010371 0.073632
v 0.025492 -0.007580 0.074406
v 0.025533 -0.009735 0.074603
v 0.024153 -0.007028 0.075024
v 0.024451 -0.004969 0.074676
v 0.024574 -0.002316 0.074118
v 0.024791 -0.000251 0.073028
v 0.024891 0.000702 0.071925
v 0.025659 -0.001336 0.071190
v 0.026297 -0.003684 0.071039
v 0.026726 -0.005487 0.070697
v 0.027524 -0.009604 0.070658
v 0.019798 -0.010115 0.008883
v 0.019970 -0.011656 0.008575
v 0.020186 -0.013825 0.008575
v 0.020302 -0.016698 0.008522
v 0.019563 -0.024794 0.008476
v 0.018501 -0.029181 0.008476
v 0.013348 -0.040509 0.008476
v 0.004135 -0.050822 0.008476
v 0.001503 -0.052826 0.008476
v -0.001618 -0.054870 0.008680
v 0.003061 -0.061080 0.070579
v -0.003090 -0.055692 0.008831
v 0.001238 -0.062096 0.070336
v 0.004639 -0.060072 0.071170
v 0.007711 -0.057751 0.072017
v 0.010794 -0.054912 0.072877
v 0.012964 -0.052729 0.072962
v 0.015071 -0.049482 0.073776
v 0.009493 -0.055969 0.073008
v 0.017129 -0.047148 0.073560
v 0.019709 -0.043424 0.073527
v 0.021245 -0.040868 0.073376
v 0.022602 -0.036599 0.074059
v 0.023799 -0.035176 0.073441
v 0.024727 -0.031198 0.073934
v 0.025719 -0.028048 0.073757
v 0.025738 -0.026376 0.074091
v 0.026674 -0.024117 0.073455
v 0.027792 -0.019413 0.072148
v 0.027177 -0.023489 0.072713
v 0.027822 -0.017831 0.072148
v 0.027915 -0.016284 0.071689
v 0.027755 -0.013721 0.072142
v 0.027427 -0.009604 0.071689
v 0.026823 -0.008492 0.073008
v 0.025768 -0.006005 0.073868
v 0.026040 -0.004783 0.073054
v 0.025667 -0.002462 0.072634
v 0.026711 -0.006496 0.072424
v 0.027188 -0.007801 0.071039
v 0.027777 -0.011980 0.070973
v 0.027930 -0.013721 0.070474
v 0.020279 -0.015365 0.008575
v 0.028005 -0.017831 0.070658
v 0.027971 -0.019365 0.070658
v 0.020268 -0.018860 0.008680
v 0.020104 -0.020815 0.008680
v 0.026864 -0.027046 0.070494
v 0.019075 -0.027094 0.008680
v 0.019862 -0.022777 0.008680
v 0.027833 -0.020732 0.070520
v 0.027546 -0.022971 0.070658
v 0.025835 -0.031080 0.070500
v 0.018061 -0.030700 0.008883
v 0.017382 -0.032476 0.008640
v 0.015168 -0.037408 0.008778
v 0.014344 -0.038907 0.008778
v 0.020369 -0.043666 0.071177
v 0.019131 -0.045573 0.070921
v 0.012144 -0.042319 0.008883
v 0.011230 -0.043514 0.008561
v 0.006898 -0.048391 0.008575
v 0.005455 -0.049731 0.008680
v 0.012330 -0.053896 0.070369
v 0.007450 -0.058000 0.070297
v 0.002737 -0.051955 0.008778
v 0.006029 -0.059105 0.071104
v 0.010421 -0.055596 0.071078
v 0.012066 -0.053889 0.072293
v 0.014176 -0.051575 0.072719
v 0.016570 -0.048571 0.072910
v 0.018579 -0.045607 0.073166
v 0.019504 -0.044606 0.072732
v 0.020630 -0.042285 0.073192
v 0.022815 -0.038382 0.072870
v 0.024791 -0.033353 0.072923
v 0.023613 -0.036475 0.072890
v 0.026006 -0.029077 0.072923
v 0.027747 -0.020905 0.071912
v 0.026681 -0.027454 0.071918
v 0.027580 -0.022452 0.071689
v 0.026308 -0.029395 0.071170
v 0.027214 -0.025036 0.070914
v 0.025417 -0.032531 0.071170
v 0.024261 -0.035833 0.070658
v 0.016704 -0.034154 0.008778
v 0.015954 -0.035847 0.008883
v 0.022680 -0.039349 0.071249
v 0.021551 -0.041594 0.071209
v 0.018206 -0.046878 0.071689
v 0.017360 -0.048011 0.071209
v 0.010138 -0.044985 0.008778
v 0.009172 -0.046104 0.008680
v 0.008151 -0.047189 0.008680
v 0.013378 -0.052784 0.070973
v 0.014929 -0.051085 0.070921
v 0.015414 -0.050297 0.072201
v 0.024258 -0.035833 0.071689
v 0.025794 -0.030880 0.072135
v 0.024850 -0.034237 0.071249
v 0.023695 -0.037173 0.071091
f 1 2 3
f 1 3 4
f 1 4 5
f 1 5 6
f 1 6 7
f 1 7 8
f 1 8 9
f 1 9 10
f 1 10 11
f 1 11 2
f 2 12 13
f 2 13 3
f 2 11 14
f 2 14 12
f 3 15 16
f 3 16 17
f 3 17 4
f 3 13 15
f 4 18 19
f 4 19 5
f 4 17 18
f 5 19 20
f 5 20 6
f 6 20 21
f 6 21 22
f 6 22 23
f 6 23 24
f 6 24 25
f 6 25 26
f 6 26 7
f 7 26 27
f 7 27 28
f 7 28 8
f 8 29 30
f 8 30 31
f 8 31 9
f 8 28 32
f 8 32 29
f 9 31 33
f 9 33 10
f 10 33 34
f 10 34 35
f 10 35 70
f 10 70 72
f 10 72 38
f 10 38 37
f 10 37 14
f 10 14 11
f 12 36 71
f 12 71 39
f 12 39 13
f 12 14 37
f 12 37 38
f 12 38 36
f 13 39 40
f 13 40 15
f 15 40 41
f 15 41 42
f 15 42 16
f 16 42 43
f 16 43 44
f 16 44 17
f 17 44 18
f 18 44 45
f 18 45 46
f 18 46 19
f 19 46 47
f 19 47 48
f 19 48 20
f 20 48 49
f 20 49 21
f 21 49 22
f 22 49 50
f 22 50 51
f 22 51 23
f 23 51 52
f 23 52 24
f 24 52 53
f 24 53 54
f 24 54 55
f 24 55 25
f 25 55 56
f 25 56 26
f 26 56 57
f 26 57 27
f 27 58 59
f 27 59 60
f 27 60 32
f 27 32 28
f 27 57 58
f 29 61 30
f 29 32 62
f 29 62 61
f 30 61 63
f 30 63 31
f 31 63 64
f 31 64 33
f 32 60 62
f 33 64 65
f 33 65 34
f 34 65 66
f 34 66 67
f 34 67 68
f 34 68 69
f 34 69 35
f 35 69 70
f 36 38 71
f 38 72 69
f 38 69 73
f 38 73 74
f 38 74 71
f 39 75 40
f 39 71 74
f 39 74 76
f 39 76 75
f 40 75 77
f 40 77 41
f 41 78 42
f 41 77 78
f 42 79 43
f 42 78 79
f 43 79 80
f 43 80 44
f 44 80 81
f 44 81 45
f 45 81 46
f 46 81 47
f 47 82 83
f 47 83 48
f 47 81 84
f 47 84 85
f 47 85 82
f 48 83 49
f 49 86 50
f 49 83 86
f 50 87 88
f 50 88 51
f 50 86 87
f 51 88 89
f 51 89 52
f 52 89 53
f 53 89 90
f 53 90 54
f 54 91 92
f 54 92 55
f 54 90 93
f 54 93 91
f 55 92 57
f 55 57 56
f 57 92 94
f 57 94 95
f 57 95 58
f 58 96 59
f 58 95 97
f 58 97 96
f 59 96 98
f 59 98 99
f 59 99 100
f 59 100 101
f 59 101 102
f 59 102 60
f 60 102 62
f 61 62 103
f 61 103 104
f 61 104 63
f 62 102 103
f 63 105 64
f 63 104 106
f 63 106 105
f 64 105 65
f 65 107 66
f 65 105 108
f 65 108 107
f 66 107 109
f 66 109 110
f 66 110 67
f 67 110 111
f 67 111 68
f 68 111 69
f 69 72 70
f 69 111 112
f 69 112 113
f 69 113 114
f 69 114 73
f 73 114 115
f 73 115 74
f 74 115 116
f 74 116 117
f 74 117 76
f 75 76 117
f 75 117 118
f 75 118 77
f 77 118 119
f 77 119 78
f 78 119 120
f 78 120 79
f 79 120 121
f 79 121 122
f 79 122 80
f 80 122 84
f 80 84 81
f 82 123 124
f 82 124 83
f 82 85 125
f 82 125 123
f 83 124 86
f 84 122 85
f 85 122 126
f 85 126 125
f 86 127 128
f 86 128 87
f 86 124 129
f 86 129 127
f 87 128 130
f 87 130 88
f 88 130 131
f 88 131 90
f 88 90 89
f 90 132 93
f 90 131 133
f 90 133 132
f 91 134 135
f 91 135 92
f 91 93 136
f 91 136 134
f 92 135 94
f 93 132 136
f 94 135 137
f 94 137 97
f 94 97 95
f 96 97 138
f 96 138 98
f 97 137 139
f 97 139 138
f 98 138 140
f 98 140 141
f 98 141 142
f 98 142 99
f 99 142 100
f 100 142 143
f 100 143 144
f 100 144 145
f 100 145 101
f 101 145 146
f 101 146 102
f 102 146 103
f 103 146 104
f 104 146 147
f 104 147 106
f 105 106 108
f 106 147 148
f 106 148 108
f 107 108 109
f 108 148 109
f 109 148 149
f 109 149 150
f 109 150 110
f 110 150 111
f 111 150 112
f 112 150 151
f 112 151 152
f 112 152 113
f 113 152 153
f 113 153 114
f 114 153 154
f 114 154 155
f 114 155 156
f 114 156 157
f 114 157 158
f 114 158 159
f 114 159 115
f 115 159 160
f 115 160 161
f 115 161 162
f 115 162 163
f 115 163 116
f 116 164 117
f 116 163 165
f 116 165 164
f 117 164 166
f 117 166 118
f 118 167 119
f 118 166 167
f 119 167 165
f 119 165 168
f 119 168 169
f 119 169 120
f 120 169 121
f 121 169 126
f 121 126 122
f 123 125 170
f 123 170 171
f 123 171 172
f 123 172 124
f 124 172 129
f 125 126 173
f 125 173 170
f 126 169 173
f 127 129 172
f 127 172 174
f 127 174 128
f 128 175 130
f 128 174 175
f 130 175 131
f 131 175 176
f 131 176 133
f 132 133 177
f 132 177 178
f 132 178 179
f 132 179 134
f 132 134 136
f 133 176 177
f 134 179 180
f 134 180 181
f 134 181 137
f 134 137 135
f 137 181 139
f 138 139 181
f 138 181 182
f 138 182 140
f 140 183 141
f 140 182 184
f 140 184 183
f 141 183 185
f 141 185 186
f 141 186 187
f 141 187 142
f 142 188 189
f 142 189 143
f 142 187 188
f 143 189 190
f 143 190 144
f 144 190 148
f 144 148 147
f 144 147 145
f 145 147 146
f 148 190 191
f 148 191 149
f 149 191 192
f 149 192 150
f 150 192 151
f 151 192 152
f 152 192 193
f 152 193 194
f 152 194 153
f 153 194 154
f 154 194 188
f 154 188 195
f 154 195 196
f 154 196 156
f 154 156 155
f 156 196 157
f 157 196 197
f 157 197 158
f 158 197 196
f 158 196 198
f 158 198 199
f 158 199 200
f 158 200 201
f 158 201 159
f 159 202 203
f 159 203 160
f 159 201 204
f 159 204 205
f 159 205 206
f 159 206 202
f 160 203 207
f 160 207 208
f 160 208 209
f 160 209 161
f 161 210 211
f 161 211 212
f 161 212 213
f 161 213 214
f 161 214 215
f 161 215 162
f 161 209 210
f 162 215 216
f 162 216 217
f 162 217 218
f 162 218 219
f 162 219 220
f 162 220 163
f 163 220 219
f 163 219 221
f 163 221 165
f 164 165 167
f 164 167 166
f 165 221 168
f 168 221 169
f 169 222 170
f 169 170 173
f 169 221 219
f 169 219 222
f 170 222 223
f 170 223 171
f 171 223 224
f 171 224 172
f 172 225 174
f 172 224 225
f 174 225 226
f 174 226 175
f 175 226 227
f 175 227 228
f 175 228 176
f 176 228 229
f 176 229 178
f 176 178 177
f 178 230 179
f 178 229 231
f 178 231 230
f 179 232 180
f 179 230 232
f 180 182 181
f 180 232 182
f 182 232 184
f 183 184 233
f 183 233 199
f 183 199 198
f 183 198 186
f 183 186 185
f 184 232 234
f 184 234 235
f 184 235 233
f 186 196 187
f 186 198 196
f 187 196 195
f 187 195 188
f 188 194 193
f 188 193 189
f 189 193 191
f 189 191 190
f 191 193 192
f 199 233 205
f 199 205 201
f 199 201 200
f 201 205 204
f 202 234 236
f 202 236 207
f 202 207 203
f 202 206 237
f 202 237 234
f 205 233 235
f 205 235 206
f 206 235 237
f 207 238 239
f 207 239 208
f 207 236 238
f 208 239 209
f 209 239 240
f 209 240 210
f 210 240 241
f 210 241 242
f 210 242 243
f 210 243 211
f 211 243 212
f 212 227 244
f 212 244 213
f 212 243 227
f 213 215 214
f 213 244 245
f 213 245 215
f 215 245 246
f 215 246 247
f 215 247 216
f 216 247 248
f 216 248 218
f 216 218 217
f 218 249 223
f 218 223 222
f 218 222 219
f 218 248 247
f 218 247 250
f 218 250 249
f 223 249 224
f 224 249 250
f 224 250 251
f 224 251 225
f 225 251 244
f 225 244 227
f 225 227 226
f 227 243 228
f 228 243 229
f 229 243 242
f 229 242 252
f 229 252 231
f 230 231 252
f 230 252 253
f 230 253 232
f 232 253 234
f 234 237 235
f 234 253 236
f 236 253 238
f 238 253 254
f 238 254 239
f 239 255 241
f 239 241 240
f 239 254 252
f 239 252 255
f 241 255 242
f 242 255 252
f 244 251 245
f 245 251 250
f 245 250 246
f 246 250 247
f 252 254 253
