v -0.068206 -0.016956 0.042221
v -0.067877 -0.016893 0.011968
v -0.067861 -0.016893 0.011147
v -0.067819 -0.016893 0.009910
v -0.064345 -0.016893 0.008881
v -0.065265 -0.016956 0.042221
v -0.068694 -0.016956 0.068234
v -0.072690 -0.000163 0.070657
v -0.067757 -0.016583 0.008985
v -0.067715 -0.015241 0.008881
v -0.039769 0.020531 0.008881
v -0.039710 0.021869 0.066534
v -0.039710 0.021894 0.067563
v -0.065423 -0.016956 0.059324
v -0.065401 -0.016956 0.058113
v -0.065243 -0.016956 0.046963
v -0.065239 -0.016956 0.045940
v -0.072590 0.000019 0.071686
v -0.065620 -0.016956 0.067902
v -0.066608 -0.000163 0.075301
v -0.067680 -0.000072 0.075412
v -0.068603 0.000019 0.075392
v -0.069578 -0.000163 0.075210
v -0.071263 -0.000076 0.074343
v -0.072025 -0.000159 0.073536
v -0.072387 0.000023 0.072722
v -0.072167 0.001328 0.070657
v -0.072225 0.000967 0.069908
v -0.065446 -0.002885 0.008881
v -0.065898 -0.004314 0.008881
v -0.066350 -0.005979 0.008881
v -0.066605 -0.006994 0.008881
v -0.066937 -0.008468 0.008881
v -0.067360 -0.011119 0.008881
v -0.067512 -0.012147 0.008881
v -0.067609 -0.013178 0.008881
v -0.067667 -0.014214 0.008881
v -0.039769 0.024139 0.008881
v -0.039710 0.024068 0.042221
v -0.039710 0.021500 0.042228
v -0.039710 0.021525 0.043882
v -0.039710 0.021927 0.068260
v -0.072070 0.001063 0.072552
v -0.072054 0.001527 0.071686
v -0.042674 0.021007 0.071777
v -0.043371 0.021007 0.072546
v -0.044501 0.021007 0.073412
v -0.045638 0.021007 0.073998
v -0.065617 -0.000163 0.075001
v -0.047733 0.021007 0.074754
v -0.048762 0.021007 0.075008
v -0.049876 0.021007 0.075197
v -0.050741 0.021007 0.075307
v -0.051849 0.021007 0.075373
v -0.067499 0.001233 0.075418
v -0.067499 0.002264 0.075399
v -0.066850 0.005615 0.075268
v -0.068074 0.003395 0.075242
v -0.069088 0.001282 0.075229
v -0.070669 0.000064 0.074669
v -0.070269 0.002264 0.074409
v -0.071044 0.000967 0.074200
v -0.070469 0.001233 0.074526
v -0.071425 0.001233 0.073627
v -0.071163 0.002525 0.073308
v -0.072070 0.000557 0.073067
v -0.071806 0.002264 0.070657
v -0.071783 0.002264 0.071686
v -0.064855 -0.001199 0.008894
v -0.064284 0.000201 0.008881
v -0.040685 0.023770 0.008881
v -0.039775 0.024217 0.009916
v -0.039769 0.024279 0.010945
v -0.039710 0.024818 0.042228
v -0.039710 0.025361 0.068260
v -0.071544 0.002264 0.072715
v -0.071202 0.003196 0.072618
v -0.046474 0.021007 0.074357
v -0.053001 0.021007 0.075340
v -0.054121 0.019760 0.075366
v -0.058234 0.015643 0.075405
v -0.063380 0.009467 0.075399
v -0.064787 0.008340 0.075347
v -0.065901 0.007214 0.075281
v -0.066644 0.006377 0.075203
v -0.067499 0.006377 0.074878
v -0.068532 0.004318 0.074865
v -0.069559 0.002264 0.074825
v -0.068290 0.006377 0.074454
v -0.069920 0.003399 0.074291
v -0.070786 0.002264 0.073894
v -0.070130 0.004965 0.073308
v -0.071383 0.003291 0.070657
v -0.071073 0.003991 0.070371
v -0.071367 0.003291 0.071686
v -0.063864 0.001166 0.008881
v -0.041434 0.023455 0.008881
v -0.058999 0.021007 0.069889
v -0.039769 0.024304 0.011968
v -0.059009 0.021007 0.071953
v -0.058728 0.021007 0.072780
v -0.058079 0.021007 0.073621
v -0.057472 0.021007 0.074063
v -0.056817 0.021007 0.074415
v -0.054825 0.021007 0.075106
v -0.071002 0.004099 0.071816
v -0.069972 0.005652 0.072930
v -0.054037 0.020775 0.075294
v -0.054686 0.020320 0.075294
v -0.055077 0.019698 0.075320
v -0.058237 0.016683 0.075347
v -0.059274 0.015643 0.075347
v -0.059264 0.014612 0.075399
v -0.062357 0.011522 0.075366
v -0.064181 0.009467 0.075340
v -0.064164 0.010644 0.075190
v -0.065440 0.009467 0.075001
v -0.066385 0.007330 0.075099
v -0.066473 0.008436 0.074819
v -0.067783 0.007466 0.074409
v -0.068807 0.006377 0.073998
v -0.069552 0.005333 0.073744
v -0.069191 0.006688 0.073399
v -0.070463 0.005350 0.070657
v -0.070121 0.005950 0.069999
v -0.063348 0.002264 0.008881
v -0.042803 0.022809 0.008881
v -0.059864 0.020357 0.070338
v -0.059216 0.020949 0.070703
v -0.043801 0.022316 0.008881
v -0.045799 0.021256 0.008881
v -0.047223 0.020398 0.008881
v -0.047830 0.020005 0.008881
v -0.048966 0.019234 0.008881
v -0.050205 0.018356 0.008881
v -0.051038 0.017727 0.008881
v -0.051891 0.017039 0.008881
v -0.059819 0.020320 0.071960
v -0.059448 0.020357 0.072780
v -0.058938 0.020456 0.073419
v -0.058502 0.020059 0.074109
v -0.057811 0.020357 0.074304
v -0.058189 0.019731 0.074461
v -0.056091 0.020904 0.074767
v -0.057204 0.019760 0.074838
v -0.058234 0.018733 0.074884
v -0.057182 0.018700 0.075177
v -0.056455 0.019023 0.075262
v -0.070043 0.006050 0.071966
v -0.070020 0.006261 0.070657
v -0.069075 0.007512 0.072780
v -0.068871 0.008146 0.072442
v -0.057898 0.017370 0.075314
v -0.058938 0.016351 0.075320
v -0.059926 0.015291 0.075314
v -0.063551 0.011522 0.075197
v -0.064410 0.011522 0.074878
v -0.065520 0.010569 0.074630
v -0.066479 0.009413 0.074506
v -0.067134 0.008738 0.074363
v -0.068526 0.007400 0.073744
v -0.068129 0.008722 0.073373
v -0.069475 0.007330 0.070657
v -0.069081 0.007988 0.070038
v -0.062844 0.003258 0.008881
v -0.053253 0.015834 0.008881
v -0.053808 0.015320 0.008881
v -0.055332 0.013763 0.008881
v -0.060846 0.019296 0.070051
v -0.060397 0.019831 0.070657
v -0.060746 0.019180 0.072422
v -0.060103 0.019773 0.072631
v -0.060642 0.019483 0.071595
v -0.059977 0.019446 0.073425
v -0.059248 0.019752 0.073770
v -0.059561 0.019027 0.074116
v -0.058873 0.019371 0.074330
v -0.059235 0.018700 0.074480
v -0.059290 0.017652 0.074910
v -0.058250 0.017681 0.075197
v -0.057505 0.018058 0.075262
v -0.069397 0.007408 0.071686
v -0.068022 0.009475 0.072715
v -0.068138 0.009683 0.071686
v -0.068803 0.008506 0.071686
v -0.058586 0.017039 0.075262
v -0.059622 0.015979 0.075262
v -0.063086 0.012267 0.075171
v -0.062353 0.014612 0.074747
v -0.063625 0.013899 0.074389
v -0.065023 0.012180 0.074330
v -0.065227 0.011522 0.074461
v -0.066143 0.010279 0.074389
v -0.066831 0.009728 0.074116
v -0.067157 0.010287 0.073432
v -0.068958 0.008278 0.070657
v -0.068148 0.009703 0.070657
v -0.061621 0.005462 0.008881
v -0.055829 0.013245 0.008881
v -0.061843 0.018228 0.070214
v -0.060865 0.019313 0.070657
v -0.062628 0.016911 0.072715
v -0.061960 0.017329 0.073367
v -0.060968 0.018402 0.073412
v -0.062754 0.017056 0.071686
v -0.063199 0.016542 0.071686
v -0.061824 0.018211 0.070976
v -0.060274 0.018717 0.073764
v -0.062983 0.014877 0.074324
v -0.060513 0.017602 0.074357
v -0.059887 0.018335 0.074324
v -0.060287 0.016674 0.074884
v -0.059274 0.016683 0.075197
v -0.067089 0.010983 0.072754
v -0.067632 0.010494 0.071686
v -0.067674 0.010494 0.070657
v -0.060278 0.015643 0.075184
v -0.061320 0.015643 0.074825
v -0.062273 0.015544 0.074396
v -0.063603 0.014612 0.073985
v -0.065404 0.012512 0.073718
v -0.066256 0.011522 0.073536
v -0.066531 0.010697 0.073809
v -0.065833 0.011240 0.074142
v -0.066037 0.012151 0.073321
v -0.060707 0.006978 0.008907
v -0.059751 0.008394 0.008881
v -0.056336 0.012677 0.008881
v -0.062321 0.017652 0.070644
v -0.056798 0.012160 0.008881
v -0.057747 0.011045 0.008881
v -0.065026 0.014226 0.069908
v -0.063738 0.015966 0.070657
v -0.063009 0.016848 0.070657
v -0.063587 0.015796 0.072715
v -0.063005 0.016318 0.073015
v -0.063968 0.015212 0.072982
v -0.064116 0.014612 0.073471
v -0.063929 0.015685 0.071686
v -0.061269 0.016596 0.074441
v -0.066169 0.012350 0.072715
v -0.066076 0.012826 0.071751
v -0.066973 0.011501 0.071686
v -0.066999 0.011551 0.070657
v -0.067115 0.011203 0.069876
v -0.065101 0.013319 0.073425
v -0.064865 0.014148 0.072800
v -0.066101 0.012860 0.070384
v -0.058867 0.009616 0.008881
v -0.065217 0.014090 0.070638
v -0.064671 0.014802 0.070657
v -0.064658 0.014777 0.071686
v -0.065323 0.013891 0.071647
v -0.065963 0.013075 0.071041
v -0.065659 0.013481 0.070579
f 1 2 3
f 1 3 4
f 1 4 5
f 1 5 6
f 1 6 17
f 1 17 16
f 1 16 15
f 1 15 14
f 1 14 19
f 1 19 7
f 1 7 2
f 2 7 8
f 2 8 3
f 3 8 4
f 4 9 5
f 4 8 9
f 5 10 37
f 5 37 36
f 5 36 35
f 5 35 34
f 5 34 33
f 5 33 32
f 5 32 31
f 5 31 30
f 5 30 29
f 5 29 70
f 5 70 96
f 5 96 126
f 5 126 165
f 5 165 198
f 5 198 227
f 5 227 249
f 5 249 231
f 5 231 230
f 5 230 228
f 5 228 199
f 5 199 168
f 5 168 167
f 5 167 166
f 5 166 137
f 5 137 136
f 5 136 135
f 5 135 134
f 5 134 133
f 5 133 132
f 5 132 131
f 5 131 130
f 5 130 127
f 5 127 97
f 5 97 71
f 5 71 38
f 5 38 11
f 5 11 12
f 5 12 13
f 5 13 14
f 5 14 15
f 5 15 16
f 5 16 17
f 5 17 6
f 5 9 10
f 7 18 8
f 7 19 20
f 7 20 21
f 7 21 22
f 7 22 23
f 7 23 24
f 7 24 25
f 7 25 26
f 7 26 18
f 8 18 27
f 8 27 28
f 8 28 29
f 8 29 30
f 8 30 31
f 8 31 32
f 8 32 33
f 8 33 34
f 8 34 35
f 8 35 36
f 8 36 37
f 8 37 10
f 8 10 9
f 11 38 39
f 11 39 40
f 11 40 41
f 11 41 12
f 12 41 40
f 12 40 39
f 12 39 74
f 12 74 75
f 12 75 42
f 12 42 13
f 13 42 19
f 13 19 14
f 18 43 44
f 18 44 27
f 18 26 43
f 19 42 45
f 19 45 46
f 19 46 47
f 19 47 48
f 19 48 49
f 19 49 20
f 20 49 50
f 20 50 51
f 20 51 52
f 20 52 53
f 20 53 21
f 21 53 54
f 21 54 55
f 21 55 22
f 22 55 56
f 22 56 57
f 22 57 58
f 22 58 59
f 22 59 23
f 23 59 60
f 23 60 24
f 24 61 62
f 24 62 25
f 24 60 63
f 24 63 61
f 25 62 64
f 25 64 65
f 25 65 66
f 25 66 26
f 26 66 43
f 27 67 28
f 27 44 68
f 27 68 67
f 28 67 69
f 28 69 29
f 29 69 70
f 38 71 72
f 38 72 73
f 38 73 74
f 38 74 39
f 42 75 45
f 43 76 77
f 43 77 68
f 43 68 44
f 43 66 76
f 45 75 46
f 46 75 47
f 47 75 48
f 48 75 78
f 48 78 49
f 49 78 50
f 50 78 75
f 50 75 51
f 51 75 52
f 52 75 53
f 53 75 54
f 54 79 80
f 54 80 81
f 54 81 55
f 54 75 79
f 55 81 82
f 55 82 56
f 56 82 83
f 56 83 57
f 57 83 84
f 57 84 85
f 57 85 58
f 58 85 86
f 58 86 87
f 58 87 59
f 59 87 88
f 59 88 60
f 60 88 63
f 61 89 90
f 61 90 62
f 61 63 88
f 61 88 89
f 62 90 91
f 62 91 64
f 64 91 65
f 65 91 92
f 65 92 77
f 65 77 76
f 65 76 66
f 67 93 94
f 67 94 69
f 67 68 95
f 67 95 93
f 68 77 95
f 69 94 70
f 70 94 96
f 71 97 98
f 71 98 72
f 72 98 73
f 73 99 74
f 73 98 99
f 74 99 75
f 75 99 98
f 75 98 100
f 75 100 101
f 75 101 102
f 75 102 103
f 75 103 104
f 75 104 105
f 75 105 79
f 77 106 95
f 77 92 107
f 77 107 106
f 79 105 108
f 79 108 109
f 79 109 110
f 79 110 80
f 80 110 111
f 80 111 81
f 81 111 112
f 81 112 113
f 81 113 82
f 82 113 114
f 82 114 115
f 82 115 83
f 83 115 84
f 84 115 116
f 84 116 85
f 85 116 117
f 85 117 118
f 85 118 86
f 86 118 117
f 86 117 119
f 86 119 120
f 86 120 89
f 86 89 87
f 87 89 88
f 89 120 121
f 89 121 90
f 90 121 122
f 90 122 92
f 90 92 91
f 92 122 121
f 92 121 123
f 92 123 107
f 93 124 94
f 93 95 124
f 94 124 125
f 94 125 96
f 95 106 124
f 96 125 126
f 97 127 98
f 98 128 129
f 98 129 100
f 98 127 130
f 98 130 131
f 98 131 132
f 98 132 133
f 98 133 134
f 98 134 135
f 98 135 136
f 98 136 137
f 98 137 128
f 100 129 138
f 100 138 101
f 101 139 140
f 101 140 102
f 101 138 139
f 102 140 141
f 102 141 103
f 103 141 142
f 103 142 104
f 104 142 143
f 104 143 144
f 104 144 105
f 105 144 145
f 105 145 146
f 105 146 147
f 105 147 148
f 105 148 109
f 105 109 108
f 106 107 149
f 106 149 150
f 106 150 124
f 107 123 151
f 107 151 152
f 107 152 149
f 109 153 110
f 109 148 153
f 110 153 111
f 111 153 154
f 111 154 112
f 112 114 113
f 112 154 155
f 112 155 114
f 114 155 115
f 115 155 156
f 115 156 116
f 116 156 157
f 116 157 117
f 117 157 119
f 119 158 159
f 119 159 160
f 119 160 120
f 119 157 158
f 120 160 161
f 120 161 121
f 121 161 123
f 123 162 151
f 123 161 162
f 124 150 125
f 125 150 163
f 125 163 164
f 125 164 165
f 125 165 126
f 128 137 166
f 128 166 167
f 128 167 168
f 128 168 169
f 128 169 170
f 128 170 138
f 128 138 129
f 138 171 172
f 138 172 139
f 138 170 173
f 138 173 171
f 139 174 140
f 139 172 174
f 140 174 175
f 140 175 141
f 141 175 176
f 141 176 177
f 141 177 142
f 142 177 143
f 143 177 178
f 143 178 146
f 143 146 145
f 143 145 144
f 146 179 180
f 146 180 147
f 146 178 179
f 147 180 148
f 148 181 153
f 148 180 181
f 149 152 182
f 149 182 150
f 150 182 163
f 151 162 183
f 151 183 152
f 152 183 184
f 152 184 185
f 152 185 182
f 153 181 154
f 154 181 186
f 154 186 187
f 154 187 155
f 155 187 188
f 155 188 156
f 156 188 157
f 157 189 190
f 157 190 191
f 157 191 192
f 157 192 158
f 157 188 189
f 158 192 159
f 159 192 193
f 159 193 160
f 160 193 194
f 160 194 161
f 161 194 162
f 162 194 195
f 162 195 183
f 163 196 164
f 163 182 185
f 163 185 196
f 164 196 197
f 164 197 198
f 164 198 165
f 168 199 169
f 169 200 170
f 169 199 200
f 170 200 201
f 170 201 173
f 171 202 203
f 171 203 204
f 171 204 172
f 171 173 205
f 171 205 206
f 171 206 202
f 172 204 174
f 173 201 207
f 173 207 205
f 174 204 208
f 174 208 176
f 174 176 175
f 176 209 210
f 176 210 211
f 176 211 177
f 176 208 209
f 177 211 178
f 178 211 210
f 178 210 212
f 178 212 179
f 179 213 180
f 179 212 213
f 180 213 186
f 180 186 181
f 183 195 214
f 183 214 184
f 184 214 215
f 184 215 216
f 184 216 197
f 184 197 196
f 184 196 185
f 186 213 187
f 187 213 217
f 187 217 188
f 188 217 218
f 188 218 189
f 189 218 219
f 189 219 209
f 189 209 190
f 190 209 191
f 191 209 220
f 191 220 221
f 191 221 222
f 191 222 223
f 191 223 224
f 191 224 194
f 191 194 193
f 191 193 192
f 194 224 223
f 194 223 195
f 195 222 225
f 195 225 214
f 195 223 222
f 197 216 198
f 198 226 227
f 198 216 226
f 199 228 200
f 200 229 207
f 200 207 201
f 200 228 230
f 200 230 231
f 200 231 232
f 200 232 233
f 200 233 234
f 200 234 229
f 202 206 235
f 202 235 236
f 202 236 203
f 203 236 237
f 203 237 238
f 203 238 220
f 203 220 209
f 203 209 204
f 204 209 208
f 205 207 206
f 206 239 235
f 206 207 234
f 206 234 239
f 207 229 234
f 209 219 240
f 209 240 210
f 210 240 212
f 212 218 217
f 212 217 213
f 212 240 218
f 214 225 241
f 214 241 242
f 214 242 243
f 214 243 215
f 215 243 244
f 215 244 216
f 216 244 245
f 216 245 226
f 218 240 219
f 220 238 221
f 221 238 246
f 221 246 225
f 221 225 222
f 225 237 247
f 225 247 241
f 225 246 238
f 225 238 237
f 226 245 248
f 226 248 227
f 227 248 249
f 231 249 232
f 232 248 250
f 232 250 251
f 232 251 233
f 232 249 248
f 233 251 252
f 233 252 239
f 233 239 234
f 235 239 252
f 235 252 247
f 235 247 237
f 235 237 236
f 241 247 242
f 242 253 254
f 242 254 243
f 242 247 253
f 243 254 244
f 244 254 248
f 244 248 245
f 247 252 253
f 248 254 255
f 248 255 250
f 250 255 254
f 250 254 252
f 250 252 251
f 252 254 253
