v -0.056997 -0.046589 0.042225
v -0.056849 -0.046101 0.011963
v -0.056829 -0.046101 0.011241
v -0.056818 -0.046101 0.010929
v -0.056788 -0.046101 0.010254
v -0.056742 -0.046101 0.009278
v -0.056732 -0.046101 0.009099
v -0.052982 -0.046589 0.042225
v -0.057625 -0.046589 0.067568
v -0.056971 -0.045959 0.011963
v -0.056957 -0.045941 0.010929
v -0.056856 -0.046101 0.012240
v -0.056933 -0.045915 0.009902
v -0.056916 -0.045892 0.009099
v -0.052521 -0.046101 0.009099
v -0.053010 -0.046589 0.045943
v -0.055584 -0.046589 0.068076
v -0.057641 -0.046584 0.068076
v -0.057652 -0.046572 0.068076
v -0.057487 -0.045346 0.011963
v -0.057471 -0.045328 0.010929
v -0.057919 -0.044831 0.011963
v -0.057430 -0.045267 0.009099
v -0.057900 -0.044814 0.010929
v -0.064496 -0.016901 0.009099
v -0.053352 -0.046589 0.065507
v -0.053082 -0.046589 0.050065
v -0.053416 -0.046589 0.068076
v -0.057872 -0.046308 0.068076
v -0.058065 -0.046034 0.066541
v -0.058580 -0.045409 0.066541
v -0.058434 -0.044192 0.011963
v -0.057964 -0.044607 0.009099
v -0.058417 -0.044171 0.010929
v -0.058385 -0.044142 0.009902
v -0.067771 -0.016901 0.009099
v -0.065270 -0.016901 0.042225
v -0.065615 -0.016957 0.067568
v -0.065430 -0.016957 0.059330
v -0.065422 -0.016957 0.058978
v -0.053371 -0.046589 0.066541
v -0.053397 -0.046589 0.067568
v -0.065629 -0.016957 0.068076
v -0.058591 -0.045427 0.068076
v -0.059009 -0.044912 0.068076
v -0.059257 -0.044599 0.068076
v -0.059520 -0.044261 0.068076
v -0.058831 -0.043674 0.011963
v -0.058819 -0.043657 0.010929
v -0.058773 -0.043596 0.009134
v -0.058743 -0.043631 0.009099
v -0.058796 -0.043625 0.009902
v -0.067769 -0.017082 0.009099
v -0.067822 -0.017314 0.009902
v -0.067825 -0.016901 0.009902
v -0.068211 -0.016901 0.042225
v -0.068694 -0.016957 0.068076
v -0.059914 -0.043747 0.068076
v -0.060452 -0.043009 0.068076
v -0.060671 -0.042707 0.068076
v -0.060801 -0.042526 0.068076
v -0.059700 -0.042422 0.010929
v -0.059249 -0.043055 0.010929
v -0.059683 -0.042396 0.009902
v -0.059210 -0.043055 0.009902
v -0.058800 -0.043555 0.009099
v -0.067766 -0.017314 0.009099
v -0.067779 -0.018346 0.009902
v -0.067822 -0.018346 0.010929
v -0.067853 -0.017314 0.010929
v -0.067858 -0.016901 0.010929
v -0.067839 -0.016901 0.010317
v -0.067880 -0.016901 0.011963
v -0.068686 -0.018346 0.068076
v -0.060916 -0.042355 0.068076
v -0.060932 -0.040663 0.011963
v -0.060584 -0.041178 0.011963
v -0.060057 -0.041907 0.010929
v -0.060571 -0.041155 0.010929
v -0.060918 -0.040643 0.010929
v -0.060031 -0.041881 0.009902
v -0.060520 -0.041079 0.009099
v -0.059927 -0.041954 0.009099
v -0.059653 -0.042352 0.009099
v -0.059226 -0.042957 0.009099
v -0.059104 -0.043128 0.009099
v -0.067722 -0.018346 0.009099
v -0.067730 -0.019375 0.009902
v -0.067779 -0.019375 0.010929
v -0.067872 -0.017314 0.011963
v -0.068645 -0.019375 0.068076
v -0.068665 -0.018872 0.068076
v -0.067869 -0.016901 0.011345
v -0.061113 -0.042056 0.068076
v -0.061394 -0.041625 0.068076
v -0.061659 -0.041213 0.068076
v -0.062610 -0.039681 0.068076
v -0.061358 -0.039969 0.011963
v -0.061325 -0.039969 0.010929
v -0.061272 -0.039969 0.009902
v -0.060888 -0.040600 0.009902
v -0.060547 -0.041114 0.009902
v -0.060864 -0.040562 0.009099
v -0.067671 -0.019375 0.009099
v -0.067660 -0.020404 0.009902
v -0.067711 -0.020404 0.010929
v -0.068566 -0.020404 0.068076
v -0.062811 -0.039353 0.068076
v -0.061765 -0.039321 0.012996
v -0.061752 -0.039297 0.011963
v -0.061736 -0.039268 0.010929
v -0.061713 -0.039231 0.009902
v -0.061228 -0.039969 0.009099
v -0.067598 -0.020404 0.009099
v -0.067576 -0.021432 0.009902
v -0.067627 -0.021432 0.010929
v -0.068479 -0.021432 0.068076
v -0.062965 -0.039088 0.068076
v -0.062056 -0.038806 0.012996
v -0.062048 -0.038783 0.011963
v -0.063107 -0.038841 0.068076
v -0.062031 -0.038754 0.010929
v -0.062010 -0.038716 0.009902
v -0.061988 -0.038678 0.009099
v -0.061689 -0.039193 0.009099
v -0.067510 -0.021432 0.009099
v -0.067424 -0.022232 0.009099
v -0.067397 -0.022464 0.009099
v -0.067456 -0.022464 0.009902
v -0.067505 -0.022464 0.010929
v -0.068382 -0.022461 0.068076
v -0.062533 -0.037908 0.011963
v -0.062506 -0.037908 0.010929
v -0.063625 -0.037865 0.068076
v -0.062844 -0.037339 0.011963
v -0.062457 -0.037908 0.009902
v -0.062088 -0.038495 0.009099
v -0.067280 -0.023263 0.009099
v -0.067293 -0.023493 0.009902
v -0.067339 -0.023493 0.010929
v -0.067195 -0.024522 0.011963
v -0.067359 -0.023493 0.011963
v -0.068034 -0.024879 0.068076
v -0.068091 -0.024516 0.068076
v -0.068249 -0.023493 0.068076
v -0.062832 -0.037312 0.010929
v -0.063881 -0.037353 0.068076
v -0.064114 -0.036885 0.068076
v -0.063096 -0.036821 0.011963
v -0.062803 -0.037257 0.009902
v -0.062406 -0.037908 0.009099
v -0.067244 -0.023493 0.009099
v -0.067119 -0.024522 0.009902
v -0.067171 -0.024522 0.010929
v -0.067054 -0.025338 0.011963
v -0.068015 -0.024993 0.068076
v -0.063568 -0.035851 0.011963
v -0.063541 -0.035851 0.010929
v -0.063494 -0.035851 0.009902
v -0.063057 -0.036743 0.009902
v -0.064372 -0.036348 0.068076
v -0.063859 -0.035246 0.011963
v -0.063036 -0.036693 0.009099
v -0.062776 -0.037208 0.009099
v -0.067033 -0.024714 0.009099
v -0.067011 -0.025141 0.009902
v -0.067040 -0.025280 0.010929
v -0.066949 -0.025853 0.011963
v -0.067917 -0.025510 0.068076
v -0.067990 -0.025129 0.068076
v -0.066937 -0.025792 0.010929
v -0.063847 -0.035217 0.010929
v -0.063821 -0.035162 0.009902
v -0.063446 -0.035851 0.009099
v -0.064608 -0.035851 0.068076
v -0.064101 -0.034732 0.011963
v -0.064090 -0.034703 0.010929
v -0.066894 -0.025481 0.009099
v -0.066994 -0.025042 0.009376
v -0.066916 -0.025652 0.009902
v -0.066780 -0.026579 0.011963
v -0.066797 -0.026579 0.012996
v -0.067458 -0.027608 0.068076
v -0.067693 -0.026579 0.068076
v -0.067811 -0.026024 0.068076
v -0.066758 -0.026579 0.010929
v -0.066725 -0.026579 0.009902
v -0.064059 -0.034647 0.009902
v -0.063797 -0.035098 0.009099
v -0.063520 -0.035694 0.009099
v -0.064888 -0.035226 0.068076
v -0.064505 -0.033790 0.011963
v -0.064478 -0.033790 0.010929
v -0.064424 -0.033790 0.009902
v -0.066718 -0.026373 0.009099
v -0.066528 -0.027608 0.011963
v -0.066547 -0.027608 0.012996
v -0.066254 -0.028640 0.010929
v -0.067204 -0.028640 0.068076
v -0.066481 -0.027608 0.009902
v -0.066676 -0.026579 0.009099
v -0.066493 -0.027379 0.009099
v -0.066440 -0.027608 0.009099
v -0.064367 -0.033790 0.009099
v -0.064025 -0.034583 0.009099
v -0.066025 -0.032398 0.068076
v -0.064537 -0.033709 0.011963
v -0.064511 -0.033709 0.010929
v -0.064458 -0.033709 0.009902
v -0.066273 -0.028640 0.011963
v -0.066045 -0.029425 0.010929
v -0.066218 -0.028640 0.009902
v -0.067120 -0.028957 0.068076
v -0.066167 -0.028640 0.009099
v -0.064401 -0.033709 0.009099
v -0.066147 -0.032061 0.068076
v -0.065306 -0.031729 0.012996
v -0.064820 -0.032970 0.011963
v -0.064807 -0.032927 0.010929
v -0.064785 -0.032869 0.009902
v -0.064760 -0.032819 0.009099
v -0.065884 -0.029939 0.010929
v -0.065897 -0.029971 0.011963
v -0.066878 -0.029803 0.068076
v -0.066957 -0.029538 0.068076
v -0.067032 -0.029285 0.068076
v -0.066022 -0.029343 0.009902
v -0.065992 -0.029247 0.009099
v -0.066266 -0.031729 0.068076
v -0.065651 -0.030698 0.011963
v -0.065281 -0.031729 0.011963
v -0.065012 -0.032456 0.011963
v -0.065618 -0.030698 0.010929
v -0.065202 -0.031729 0.009902
v -0.065007 -0.032165 0.009099
v -0.064912 -0.032421 0.009099
v -0.065856 -0.029858 0.009902
v -0.065567 -0.030698 0.009902
v -0.066430 -0.031230 0.068076
v -0.066603 -0.030698 0.068076
v -0.065955 -0.029364 0.009099
v -0.065243 -0.031497 0.009099
v -0.065578 -0.030512 0.009099
f 1 2 3
f 1 3 4
f 1 4 5
f 1 5 6
f 1 6 7
f 1 7 15
f 1 15 8
f 1 8 16
f 1 16 27
f 1 27 26
f 1 26 41
f 1 41 42
f 1 42 28
f 1 28 17
f 1 17 9
f 1 9 2
f 2 10 11
f 2 11 3
f 2 9 12
f 2 12 10
f 3 11 4
f 4 11 5
f 5 11 13
f 5 13 14
f 5 14 6
f 6 14 7
f 7 14 23
f 7 23 33
f 7 33 51
f 7 51 66
f 7 66 86
f 7 86 85
f 7 85 84
f 7 84 83
f 7 83 82
f 7 82 103
f 7 103 113
f 7 113 125
f 7 125 124
f 7 124 137
f 7 137 151
f 7 151 164
f 7 164 163
f 7 163 174
f 7 174 190
f 7 190 189
f 7 189 205
f 7 205 204
f 7 204 215
f 7 215 221
f 7 221 236
f 7 236 235
f 7 235 242
f 7 242 243
f 7 243 241
f 7 241 228
f 7 228 214
f 7 214 203
f 7 203 202
f 7 202 201
f 7 201 195
f 7 195 178
f 7 178 165
f 7 165 152
f 7 152 138
f 7 138 128
f 7 128 127
f 7 127 126
f 7 126 114
f 7 114 104
f 7 104 87
f 7 87 67
f 7 67 53
f 7 53 36
f 7 36 25
f 7 25 15
f 8 15 16
f 9 17 18
f 9 18 19
f 9 19 12
f 10 12 19
f 10 19 20
f 10 20 11
f 11 21 13
f 11 20 22
f 11 22 21
f 13 21 14
f 14 21 24
f 14 24 23
f 15 25 26
f 15 26 27
f 15 27 16
f 17 28 43
f 17 43 57
f 17 57 74
f 17 74 92
f 17 92 91
f 17 91 107
f 17 107 117
f 17 117 131
f 17 131 145
f 17 145 144
f 17 144 143
f 17 143 156
f 17 156 170
f 17 170 169
f 17 169 185
f 17 185 184
f 17 184 183
f 17 183 199
f 17 199 213
f 17 213 226
f 17 226 225
f 17 225 224
f 17 224 240
f 17 240 239
f 17 239 229
f 17 229 216
f 17 216 206
f 17 206 191
f 17 191 175
f 17 175 161
f 17 161 148
f 17 148 147
f 17 147 134
f 17 134 121
f 17 121 118
f 17 118 108
f 17 108 97
f 17 97 96
f 17 96 95
f 17 95 94
f 17 94 75
f 17 75 61
f 17 61 60
f 17 60 59
f 17 59 58
f 17 58 47
f 17 47 46
f 17 46 45
f 17 45 44
f 17 44 29
f 17 29 19
f 17 19 18
f 19 29 22
f 19 22 20
f 21 22 24
f 22 29 30
f 22 30 31
f 22 31 32
f 22 32 24
f 23 24 33
f 24 32 34
f 24 34 35
f 24 35 33
f 25 36 55
f 25 55 72
f 25 72 71
f 25 71 93
f 25 93 73
f 25 73 56
f 25 56 37
f 25 37 38
f 25 38 39
f 25 39 40
f 25 40 41
f 25 41 26
f 28 42 43
f 29 44 31
f 29 31 30
f 31 44 45
f 31 45 32
f 32 45 46
f 32 46 47
f 32 47 48
f 32 48 49
f 32 49 34
f 33 35 50
f 33 50 51
f 34 49 52
f 34 52 35
f 35 52 50
f 36 53 54
f 36 54 55
f 37 56 57
f 37 57 43
f 37 43 38
f 38 43 42
f 38 42 41
f 38 41 39
f 39 41 40
f 47 58 48
f 48 58 59
f 48 59 60
f 48 60 61
f 48 61 62
f 48 62 63
f 48 63 49
f 49 63 64
f 49 64 65
f 49 65 52
f 50 52 65
f 50 65 64
f 50 64 66
f 50 66 51
f 53 67 54
f 54 68 69
f 54 69 70
f 54 70 71
f 54 71 72
f 54 72 55
f 54 67 68
f 56 73 57
f 57 73 74
f 61 75 76
f 61 76 77
f 61 77 62
f 62 77 78
f 62 78 64
f 62 64 63
f 64 78 79
f 64 79 80
f 64 80 81
f 64 81 82
f 64 82 83
f 64 83 84
f 64 84 85
f 64 85 86
f 64 86 66
f 67 87 68
f 68 87 88
f 68 88 89
f 68 89 69
f 69 90 70
f 69 89 91
f 69 91 92
f 69 92 74
f 69 74 90
f 70 90 93
f 70 93 71
f 73 93 90
f 73 90 74
f 75 94 76
f 76 94 95
f 76 95 96
f 76 96 97
f 76 97 98
f 76 98 80
f 76 80 77
f 77 80 79
f 77 79 78
f 80 98 99
f 80 99 100
f 80 100 101
f 80 101 102
f 80 102 81
f 81 102 82
f 82 102 103
f 87 104 88
f 88 104 105
f 88 105 106
f 88 106 89
f 89 106 91
f 91 106 107
f 97 108 98
f 98 108 109
f 98 109 110
f 98 110 111
f 98 111 99
f 99 111 112
f 99 112 100
f 100 112 113
f 100 113 101
f 101 113 103
f 101 103 102
f 104 114 105
f 105 114 115
f 105 115 116
f 105 116 106
f 106 116 107
f 107 116 117
f 108 118 109
f 109 119 120
f 109 120 110
f 109 118 121
f 109 121 119
f 110 120 111
f 111 120 122
f 111 122 123
f 111 123 112
f 112 123 124
f 112 124 125
f 112 125 113
f 114 126 115
f 115 126 127
f 115 127 128
f 115 128 129
f 115 129 116
f 116 129 130
f 116 130 131
f 116 131 117
f 119 132 120
f 119 121 132
f 120 132 133
f 120 133 122
f 121 134 135
f 121 135 132
f 122 133 123
f 123 136 124
f 123 133 136
f 124 136 137
f 128 138 129
f 129 138 139
f 129 139 130
f 130 139 140
f 130 140 141
f 130 141 142
f 130 142 143
f 130 143 144
f 130 144 145
f 130 145 131
f 132 135 133
f 133 135 146
f 133 146 136
f 134 147 135
f 135 147 148
f 135 148 149
f 135 149 146
f 136 146 150
f 136 150 151
f 136 151 137
f 138 152 139
f 139 152 153
f 139 153 154
f 139 154 140
f 140 154 141
f 141 154 155
f 141 155 156
f 141 156 143
f 141 143 142
f 146 149 157
f 146 157 158
f 146 158 159
f 146 159 160
f 146 160 150
f 148 161 162
f 148 162 157
f 148 157 149
f 150 160 163
f 150 163 164
f 150 164 151
f 152 165 153
f 153 166 167
f 153 167 154
f 153 165 166
f 154 167 155
f 155 168 169
f 155 169 170
f 155 170 156
f 155 167 171
f 155 171 168
f 157 162 172
f 157 172 158
f 158 172 159
f 159 173 174
f 159 174 163
f 159 163 160
f 159 172 173
f 161 175 162
f 162 175 176
f 162 176 177
f 162 177 172
f 165 178 179
f 165 179 166
f 166 180 167
f 166 179 178
f 166 178 180
f 167 180 171
f 168 181 182
f 168 182 183
f 168 183 184
f 168 184 185
f 168 185 169
f 168 171 186
f 168 186 181
f 171 180 187
f 171 187 186
f 172 177 173
f 173 177 188
f 173 188 189
f 173 189 190
f 173 190 174
f 175 191 176
f 176 191 192
f 176 192 177
f 177 192 193
f 177 193 194
f 177 194 188
f 178 195 180
f 180 195 187
f 181 196 197
f 181 197 182
f 181 186 198
f 181 198 196
f 182 197 183
f 183 197 199
f 186 187 200
f 186 200 198
f 187 195 201
f 187 201 202
f 187 202 203
f 187 203 200
f 188 194 204
f 188 204 205
f 188 205 189
f 191 206 192
f 192 206 207
f 192 207 208
f 192 208 193
f 193 208 209
f 193 209 194
f 194 209 215
f 194 215 204
f 196 198 210
f 196 210 197
f 197 210 199
f 198 211 210
f 198 200 212
f 198 212 211
f 199 210 213
f 200 203 212
f 203 214 212
f 206 216 217
f 206 217 218
f 206 218 207
f 207 218 208
f 208 218 219
f 208 219 220
f 208 220 209
f 209 220 221
f 209 221 215
f 210 211 213
f 211 222 223
f 211 223 224
f 211 224 225
f 211 225 226
f 211 226 213
f 211 212 227
f 211 227 222
f 212 214 227
f 214 228 227
f 216 229 217
f 217 230 231
f 217 231 232
f 217 232 218
f 217 229 230
f 218 232 219
f 219 232 231
f 219 231 233
f 219 233 234
f 219 234 220
f 220 234 235
f 220 235 236
f 220 236 221
f 222 233 230
f 222 230 223
f 222 227 237
f 222 237 238
f 222 238 233
f 223 230 229
f 223 229 239
f 223 239 240
f 223 240 224
f 227 228 241
f 227 241 237
f 230 233 231
f 233 238 234
f 234 238 235
f 235 238 242
f 237 241 243
f 237 243 242
f 237 242 238
