v -0.067669 -0.019104 0.008981
v -0.067351 -0.022191 0.008408
v -0.067068 -0.024229 0.008678
v -0.065574 -0.030507 0.009099
v -0.064483 -0.016911 0.009099
v -0.063187 0.002542 0.008871
v -0.066432 -0.006496 0.008612
v -0.067428 -0.012680 0.008254
v -0.067617 -0.016730 0.008269
v -0.067549 -0.018330 0.007834
v -0.067343 -0.019878 0.007410
v -0.067085 -0.022466 0.007162
v -0.066527 -0.026817 0.008408
v -0.066046 -0.028443 0.008017
v -0.065050 -0.031582 0.008033
v -0.064123 -0.034299 0.009040
v -0.039129 -0.058103 0.008952
v -0.034999 -0.059402 0.008981
v -0.023811 -0.057948 0.009099
v -0.027846 0.026965 0.008870
v -0.061341 0.005853 0.008604
v -0.061847 0.004571 0.007364
v -0.062989 0.002387 0.007460
v -0.064106 0.000263 0.008186
v -0.064750 -0.001208 0.008316
v -0.057829 0.010884 0.008681
v -0.065282 -0.002730 0.008282
v -0.065883 -0.004794 0.008007
v -0.066810 -0.008449 0.008126
v -0.067240 -0.011020 0.008229
v -0.063616 -0.013385 -0.000060
v -0.067523 -0.014744 0.008137
v -0.067214 -0.018330 0.006949
v -0.063170 -0.022965 -0.000196
v -0.062801 -0.025295 -0.000107
v -0.063925 -0.018656 0.000070
v -0.061143 -0.030687 -0.000183
v -0.063968 -0.033955 0.007430
v -0.063153 -0.036243 0.008388
v -0.062294 -0.038006 0.008707
v -0.059375 -0.042692 0.008902
v -0.053588 -0.049211 0.008629
v -0.044967 -0.055360 0.008663
v -0.041679 -0.056976 0.008662
v -0.038184 -0.058241 0.007689
v -0.036544 -0.058903 0.008424
v -0.034458 -0.059298 0.007500
v -0.032835 -0.059883 0.008686
v -0.025786 -0.060881 0.008981
v 0.004103 -0.050811 0.008362
v 0.014603 -0.038195 0.008140
v 0.019420 -0.008681 0.008027
v 0.004592 0.016654 0.007851
v -0.008047 0.024170 0.007993
v -0.016341 0.026483 0.008201
v -0.019878 0.026793 0.007536
v -0.021690 0.026879 0.007482
v -0.025897 0.026974 0.008118
v -0.027589 0.026716 0.007314
v -0.029753 0.026664 0.008197
v -0.031599 0.026372 0.008013
v -0.039463 0.024179 0.008338
v -0.041172 0.023491 0.008347
v -0.047491 0.020120 0.008333
v 0.015685 0.002473 0.007963
v 0.013419 0.006532 0.007940
v -0.059280 0.008897 0.008230
v -0.060912 0.006033 0.007154
v -0.057649 0.004528 -0.000007
v -0.059443 0.000770 -0.000236
v -0.060697 -0.001982 -0.000205
v -0.048874 0.019182 0.008283
v -0.053485 0.015476 0.008265
v -0.056129 0.012767 0.008249
v -0.061830 -0.005163 -0.000198
v -0.062878 -0.008707 -0.000056
v -0.062801 -0.011656 -0.000497
v -0.063007 -0.016498 -0.000465
v -0.062345 -0.023481 -0.000555
v -0.063299 -0.020909 -0.000281
v -0.061616 -0.027643 -0.000430
v -0.059924 -0.032829 -0.000346
v -0.058404 -0.036165 -0.000324
v -0.059873 -0.041652 0.007535
v -0.060817 -0.040465 0.008419
v -0.057718 -0.044774 0.008324
v -0.056206 -0.046468 0.008273
v -0.054360 -0.048196 0.007453
v -0.051750 -0.050742 0.008361
v -0.049355 -0.052530 0.008420
v -0.043559 -0.055927 0.007551
v -0.047002 -0.053975 0.007773
v -0.041052 -0.052995 -0.000046
v -0.034544 -0.055265 -0.000222
v -0.032826 -0.056005 0.000018
v -0.027597 -0.060442 0.007416
v -0.029916 -0.060348 0.008262
v -0.025786 -0.060545 0.007346
v -0.023510 -0.060674 0.007737
v -0.020428 -0.060511 0.007533
v -0.018599 -0.060356 0.007575
v -0.016255 -0.060098 0.007832
v -0.013447 -0.059539 0.008148
v -0.006261 -0.057054 0.007920
v -0.003977 -0.055979 0.007924
v 0.000076 -0.053700 0.008002
v 0.002205 -0.052135 0.007805
v 0.005828 -0.049237 0.007933
v 0.007125 -0.048016 0.008006
v 0.008696 -0.046425 0.008048
v 0.010242 -0.044584 0.007919
v 0.011753 -0.042417 0.007609
v 0.013358 -0.040001 0.007592
v 0.015368 -0.036535 0.007684
v 0.016381 -0.034428 0.007733
v 0.017531 -0.031573 0.007839
v 0.018424 -0.029045 0.007967
v 0.019395 -0.025046 0.007972
v 0.020047 -0.017616 0.007654
v 0.019678 -0.010659 0.007743
v 0.018802 -0.006711 0.007395
v 0.018433 -0.004527 0.007928
v 0.019669 -0.023068 0.007877
v 0.008834 0.012586 0.007776
v 0.006644 0.014771 0.007632
v 0.003296 0.017385 0.007047
v 0.001973 0.018597 0.007561
v -0.002097 0.021341 0.007772
v -0.004140 0.022407 0.007779
v -0.006579 0.023430 0.007437
v -0.009515 0.024617 0.007528
v -0.011790 0.025400 0.007770
v -0.013954 0.025959 0.008046
v -0.018118 0.026673 0.007670
v -0.020308 0.023362 0.000134
v -0.023734 0.026905 0.007455
v -0.022712 0.023430 0.000004
v -0.027099 0.023405 0.000063
v -0.034028 0.025658 0.007523
v -0.037403 0.024824 0.007994
v -0.037969 0.020223 -0.000375
v -0.043362 0.022424 0.008266
v -0.043070 0.018331 -0.000008
v -0.046564 0.020386 0.007158
v -0.045156 0.021444 0.008153
v 0.017471 -0.001827 0.007867
v 0.016544 0.000512 0.007760
v 0.013487 -0.001509 -0.000083
v 0.011452 0.002576 -0.000096
v 0.013444 0.006042 0.007139
v 0.014457 0.004786 0.007866
v 0.011770 0.008768 0.007523
v 0.010319 0.010686 0.007491
v -0.053734 0.009293 -0.000300
v -0.057795 0.002920 -0.000460
v -0.055734 0.006059 -0.000480
v -0.060285 -0.003934 -0.000662
v -0.050625 0.017755 0.007739
v -0.049887 0.013257 -0.000251
v -0.051501 0.011623 -0.000341
v -0.062260 -0.007021 -0.000272
v -0.058233 -0.034815 -0.000669
v -0.056756 -0.038737 -0.000346
v -0.055605 -0.041222 -0.000025
v -0.047938 -0.048790 0.000009
v -0.052351 -0.044903 -0.000093
v -0.049526 -0.047319 -0.000219
v -0.043353 -0.051473 -0.000228
v -0.039240 -0.053528 -0.000239
v -0.037274 -0.053881 -0.000456
v -0.034544 -0.054379 -0.000653
v -0.032483 -0.055411 -0.000441
v -0.030937 -0.055798 -0.000380
v -0.025983 -0.056813 -0.000183
v -0.020651 -0.056736 -0.000216
v -0.018273 -0.056581 -0.000097
v -0.015328 -0.056082 -0.000084
v -0.011601 -0.058980 0.007827
v -0.009309 -0.058249 0.007871
v -0.011129 -0.054852 -0.000137
v -0.006149 -0.052728 -0.000170
v -0.004252 -0.051868 -0.000137
v -0.000860 -0.054001 0.007139
v -0.002062 -0.054938 0.007778
v -0.000912 -0.049667 -0.000209
v 0.003416 -0.045797 -0.000441
v 0.005725 -0.043552 -0.000364
v 0.007288 -0.041970 -0.000271
v 0.009057 -0.039837 -0.000169
v 0.010267 -0.038453 0.000092
v 0.011324 -0.036277 -0.000136
v 0.013161 -0.032760 0.000024
v 0.014415 -0.029922 0.000057
v 0.018879 -0.027161 0.007763
v 0.015402 -0.025897 -0.000040
v 0.019635 -0.021425 0.007105
v 0.019918 -0.019852 0.007563
v 0.016321 -0.019749 -0.000082
v 0.019953 -0.014744 0.007444
v 0.019841 -0.012680 0.007531
v 0.016278 -0.013565 -0.000160
v 0.015694 -0.009592 -0.000214
v 0.015479 -0.007700 -0.000005
v 0.007237 0.009026 0.000016
v 0.004025 0.011993 -0.000411
v 0.001235 0.014805 -0.000029
v -0.000560 0.020326 0.007515
v -0.006407 0.019406 -0.000087
v -0.009833 0.020644 -0.000318
v -0.015422 0.022433 -0.000039
v -0.018050 0.022338 -0.000599
v -0.024953 0.023104 -0.000316
v -0.029907 0.022674 -0.000261
v -0.032234 0.022269 -0.000148
v -0.042512 0.017393 -0.000783
v -0.041052 0.018898 -0.000353
v -0.034587 0.021083 -0.000499
v -0.044546 0.017144 -0.000266
v -0.045302 0.017153 0.000225
v 0.011907 0.000667 -0.000521
v 0.010207 0.003264 -0.000899
v 0.014732 -0.005989 -0.000277
v 0.014028 -0.003934 -0.000336
v 0.009040 0.005466 -0.000667
v 0.008301 0.007667 0.000001
v -0.048007 0.014650 -0.000363
v -0.046899 -0.048205 -0.000637
v -0.050565 -0.045866 -0.000475
v -0.053699 -0.042830 -0.000401
v -0.045499 -0.049813 -0.000399
v 0.001149 -0.047336 -0.000649
v -0.004690 -0.051292 -0.000604
v -0.015508 -0.055411 -0.000538
v -0.022832 -0.056590 -0.000420
v -0.012932 -0.055291 -0.000248
v -0.008674 -0.053528 -0.000399
v -0.002492 -0.050578 -0.000279
v 0.008696 -0.038934 -0.000633
v 0.010079 -0.038143 -0.000207
v 0.010757 -0.035847 -0.000553
v 0.011993 -0.034144 -0.000385
v 0.013848 -0.029664 -0.000444
v 0.015737 -0.022965 -0.000285
v 0.014269 -0.028116 -0.000442
v 0.016037 -0.016799 -0.000488
v 0.014578 -0.008165 -0.000781
v 0.005614 0.010333 -0.000467
v 0.007039 0.008269 -0.000795
v 0.002523 0.012810 -0.000834
v -0.001891 0.016697 -0.000259
v -0.004037 0.017884 -0.000379
v -0.008244 0.019948 -0.000356
v -0.012864 0.021014 -0.000762
v -0.046453 0.015820 -0.000340
v 0.012818 -0.030687 -0.000683
v 0.009727 -0.036870 -0.000656
f 1 2 3
f 1 3 4
f 1 4 5
f 1 5 6
f 1 6 7
f 1 7 8
f 1 8 9
f 1 9 10
f 1 10 2
f 2 10 11
f 2 11 12
f 2 12 3
f 3 12 13
f 3 13 4
f 4 13 14
f 4 14 15
f 4 15 16
f 4 16 17
f 4 17 18
f 4 18 19
f 4 19 5
f 5 20 6
f 5 19 20
f 6 21 22
f 6 22 23
f 6 23 24
f 6 24 25
f 6 25 7
f 6 20 26
f 6 26 21
f 7 25 27
f 7 27 28
f 7 28 29
f 7 29 30
f 7 30 8
f 8 30 31
f 8 31 32
f 8 32 9
f 9 32 10
f 10 32 33
f 10 33 11
f 11 33 12
f 12 34 35
f 12 35 14
f 12 14 13
f 12 33 36
f 12 36 34
f 14 37 15
f 14 35 37
f 15 38 16
f 15 37 38
f 16 39 40
f 16 40 41
f 16 41 17
f 16 38 39
f 17 42 43
f 17 43 44
f 17 44 45
f 17 45 46
f 17 46 18
f 17 41 42
f 18 46 47
f 18 47 48
f 18 48 49
f 18 49 19
f 19 49 50
f 19 50 51
f 19 51 52
f 19 52 20
f 20 53 54
f 20 54 55
f 20 55 56
f 20 56 57
f 20 57 58
f 20 58 59
f 20 59 60
f 20 60 61
f 20 61 62
f 20 62 63
f 20 63 64
f 20 64 26
f 20 52 65
f 20 65 66
f 20 66 53
f 21 67 68
f 21 68 22
f 21 26 67
f 22 68 69
f 22 69 70
f 22 70 23
f 23 70 71
f 23 71 25
f 23 25 24
f 25 71 27
f 26 64 72
f 26 72 73
f 26 73 74
f 26 74 67
f 27 71 28
f 28 75 76
f 28 76 29
f 28 71 75
f 29 76 31
f 29 31 30
f 31 76 77
f 31 77 78
f 31 78 36
f 31 36 33
f 31 33 32
f 34 79 35
f 34 36 80
f 34 80 79
f 35 79 81
f 35 81 37
f 36 78 80
f 37 82 83
f 37 83 38
f 37 81 82
f 38 83 84
f 38 84 39
f 39 84 40
f 40 84 85
f 40 85 41
f 41 85 84
f 41 84 86
f 41 86 87
f 41 87 42
f 42 87 88
f 42 88 89
f 42 89 90
f 42 90 43
f 43 91 44
f 43 90 92
f 43 92 91
f 44 91 45
f 45 47 46
f 45 91 93
f 45 93 94
f 45 94 95
f 45 95 47
f 47 96 97
f 47 97 48
f 47 95 96
f 48 97 49
f 49 97 96
f 49 96 98
f 49 98 99
f 49 99 100
f 49 100 101
f 49 101 102
f 49 102 103
f 49 103 50
f 50 103 104
f 50 104 105
f 50 105 106
f 50 106 107
f 50 107 108
f 50 108 109
f 50 109 110
f 50 110 51
f 51 110 111
f 51 111 112
f 51 112 113
f 51 113 114
f 51 114 115
f 51 115 116
f 51 116 117
f 51 117 118
f 51 118 52
f 52 119 120
f 52 120 121
f 52 121 122
f 52 122 65
f 52 118 123
f 52 123 119
f 53 124 125
f 53 125 126
f 53 126 127
f 53 127 128
f 53 128 54
f 53 66 124
f 54 128 129
f 54 129 130
f 54 130 131
f 54 131 132
f 54 132 133
f 54 133 55
f 55 133 134
f 55 134 56
f 56 134 135
f 56 135 57
f 57 136 58
f 57 135 137
f 57 137 136
f 58 136 59
f 59 61 60
f 59 136 138
f 59 138 61
f 61 139 140
f 61 140 62
f 61 138 139
f 62 140 141
f 62 141 63
f 63 142 64
f 63 141 143
f 63 143 144
f 63 144 142
f 64 144 72
f 64 142 145
f 64 145 144
f 65 122 146
f 65 146 147
f 65 147 148
f 65 148 149
f 65 149 150
f 65 150 151
f 65 151 66
f 66 151 150
f 66 150 152
f 66 152 153
f 66 153 124
f 67 154 68
f 67 74 154
f 68 154 69
f 69 155 70
f 69 154 156
f 69 156 155
f 70 155 157
f 70 157 71
f 71 157 75
f 72 144 158
f 72 158 73
f 73 159 160
f 73 160 74
f 73 158 159
f 74 160 154
f 75 157 161
f 75 161 76
f 76 161 77
f 77 161 157
f 77 157 79
f 77 79 78
f 78 79 80
f 79 162 81
f 79 157 162
f 81 162 82
f 82 162 83
f 83 162 163
f 83 163 164
f 83 164 84
f 84 164 88
f 84 88 86
f 86 88 87
f 88 165 89
f 88 164 166
f 88 166 167
f 88 167 165
f 89 165 92
f 89 92 90
f 91 92 93
f 92 165 168
f 92 168 93
f 93 169 94
f 93 168 169
f 94 169 170
f 94 170 171
f 94 171 172
f 94 172 95
f 95 172 173
f 95 173 174
f 95 174 96
f 96 174 98
f 98 100 99
f 98 174 175
f 98 175 100
f 100 175 176
f 100 176 101
f 101 176 102
f 102 176 177
f 102 177 178
f 102 178 103
f 103 178 179
f 103 179 104
f 104 179 180
f 104 180 181
f 104 181 182
f 104 182 105
f 105 182 183
f 105 183 184
f 105 184 106
f 106 184 183
f 106 183 107
f 107 183 185
f 107 185 108
f 108 185 186
f 108 186 109
f 109 186 187
f 109 187 110
f 110 187 188
f 110 188 111
f 111 188 189
f 111 189 112
f 112 189 190
f 112 190 113
f 113 190 114
f 114 190 191
f 114 191 192
f 114 192 115
f 115 192 193
f 115 193 116
f 116 193 117
f 117 193 194
f 117 194 118
f 118 194 195
f 118 195 196
f 118 196 123
f 119 197 198
f 119 198 199
f 119 199 200
f 119 200 120
f 119 123 197
f 120 200 201
f 120 201 202
f 120 202 203
f 120 203 121
f 121 203 122
f 122 203 148
f 122 148 146
f 123 196 197
f 124 153 204
f 124 204 125
f 125 204 205
f 125 205 206
f 125 206 126
f 126 206 127
f 127 206 207
f 127 207 128
f 128 207 208
f 128 208 129
f 129 208 130
f 130 208 209
f 130 209 131
f 131 209 210
f 131 210 132
f 132 210 134
f 132 134 133
f 134 210 135
f 135 210 211
f 135 211 137
f 136 137 138
f 137 211 212
f 137 212 138
f 138 212 213
f 138 213 214
f 138 214 139
f 139 214 140
f 140 214 141
f 141 215 216
f 141 216 143
f 141 214 217
f 141 217 215
f 142 144 145
f 143 216 218
f 143 218 219
f 143 219 144
f 144 219 158
f 146 148 147
f 148 220 221
f 148 221 149
f 148 203 222
f 148 222 223
f 148 223 220
f 149 221 224
f 149 224 225
f 149 225 150
f 150 225 152
f 152 225 153
f 153 225 204
f 154 160 156
f 155 156 157
f 156 160 215
f 156 215 157
f 157 215 162
f 158 219 159
f 159 226 160
f 159 219 226
f 160 226 215
f 162 171 227
f 162 227 228
f 162 228 229
f 162 229 163
f 162 215 221
f 162 221 171
f 163 229 164
f 164 229 166
f 165 167 230
f 165 230 168
f 166 229 228
f 166 228 167
f 167 227 230
f 167 228 227
f 168 230 170
f 168 170 169
f 170 230 227
f 170 227 171
f 171 231 232
f 171 232 233
f 171 233 234
f 171 234 172
f 171 221 231
f 172 234 173
f 173 234 174
f 174 234 175
f 175 234 233
f 175 233 176
f 176 233 177
f 177 233 235
f 177 235 180
f 177 180 178
f 178 180 179
f 180 235 236
f 180 236 181
f 181 236 232
f 181 232 182
f 182 232 237
f 182 237 185
f 182 185 183
f 185 237 231
f 185 231 186
f 186 238 187
f 186 231 238
f 187 238 188
f 188 238 189
f 189 238 239
f 189 239 190
f 190 239 191
f 191 239 240
f 191 240 241
f 191 241 192
f 192 242 193
f 192 241 242
f 193 242 195
f 193 195 194
f 195 243 196
f 195 242 244
f 195 244 243
f 196 198 197
f 196 243 198
f 198 243 245
f 198 245 201
f 198 201 199
f 199 201 200
f 201 245 246
f 201 246 202
f 202 246 222
f 202 222 203
f 204 247 205
f 204 225 248
f 204 248 247
f 205 249 206
f 205 247 249
f 206 249 250
f 206 250 207
f 207 250 251
f 207 251 208
f 208 252 209
f 208 251 252
f 209 252 253
f 209 253 210
f 210 253 211
f 211 217 212
f 211 253 215
f 211 215 217
f 212 217 213
f 213 217 214
f 215 253 249
f 215 249 221
f 215 226 254
f 215 254 218
f 215 218 216
f 218 254 219
f 219 254 226
f 220 223 221
f 221 249 248
f 221 248 224
f 221 223 246
f 221 246 255
f 221 255 231
f 222 246 223
f 224 248 225
f 231 237 232
f 231 255 256
f 231 256 238
f 232 236 233
f 233 236 235
f 238 256 240
f 238 240 239
f 240 256 255
f 240 255 241
f 241 255 242
f 242 255 244
f 243 244 245
f 244 255 245
f 245 255 246
f 247 248 249
f 249 253 251
f 249 251 250
f 251 253 252
