v -0.003506 -0.057910 0.075202
v -0.044839 -0.058019 0.075333
v -0.003548 -0.059465 0.075346
v -0.003517 -0.062535 0.074520
v -0.003517 -0.064259 0.072220
v -0.003506 -0.060772 0.068826
v -0.003506 -0.056038 0.074455
v -0.044839 -0.056047 0.074678
v -0.044839 -0.059642 0.075385
v -0.043812 -0.059534 0.075412
v -0.057635 -0.046595 0.068065
v -0.007189 -0.062141 0.075300
v -0.004004 -0.061016 0.075235
v -0.005716 -0.060566 0.075359
v -0.005721 -0.062626 0.074953
v -0.004688 -0.062965 0.074566
v -0.005721 -0.063512 0.074501
v -0.003723 -0.063364 0.073931
v -0.005753 -0.065187 0.072135
v -0.004688 -0.064873 0.071689
v -0.003554 -0.064452 0.070785
v -0.003517 -0.063998 0.069311
v -0.004560 -0.064024 0.073596
v -0.006802 -0.065273 0.073125
v -0.003517 -0.062626 0.068269
v -0.003506 -0.056991 0.068236
v -0.003506 -0.055795 0.068236
v -0.053402 -0.046595 0.068065
v -0.044834 -0.061596 0.074953
v -0.044410 -0.060715 0.075300
v -0.041750 -0.061430 0.075340
v -0.036595 -0.062952 0.075346
v -0.035562 -0.062626 0.075379
v -0.014993 -0.063656 0.075366
v -0.057407 -0.046108 0.042220
v -0.057190 -0.046108 0.030594
v -0.056846 -0.046108 0.012245
v -0.044744 -0.064274 0.070661
v -0.044723 -0.064250 0.071689
v -0.044834 -0.063430 0.073596
v -0.044691 -0.062757 0.074330
v -0.013960 -0.063656 0.075353
v -0.012646 -0.063958 0.075307
v -0.006812 -0.062538 0.075136
v -0.007782 -0.063656 0.074841
v -0.006828 -0.064006 0.074455
v -0.005864 -0.064292 0.073898
v -0.006749 -0.065663 0.071689
v -0.007782 -0.065781 0.072718
v -0.005122 -0.065094 0.070661
v -0.007803 -0.057835 0.008569
v -0.007353 -0.056010 0.008464
v -0.007782 -0.065393 0.073472
v -0.008889 -0.066204 0.072600
v -0.007581 -0.054093 0.008471
v -0.053460 -0.046108 0.042095
v -0.043255 -0.063003 0.074573
v -0.040723 -0.063656 0.074756
v -0.041750 -0.062285 0.075163
v -0.039689 -0.062797 0.075228
v -0.031450 -0.063995 0.075353
v -0.034497 -0.064217 0.075248
v -0.018082 -0.063656 0.075366
v -0.018082 -0.064523 0.075346
v -0.016021 -0.064405 0.075333
v -0.056809 -0.046108 0.011099
v -0.043812 -0.064664 0.070661
v -0.043812 -0.064633 0.071689
v -0.056671 -0.046185 0.009506
v -0.055829 -0.047071 0.009113
v -0.054801 -0.048110 0.009113
v -0.053566 -0.049342 0.009113
v -0.052771 -0.050048 0.009113
v -0.051950 -0.050706 0.009113
v -0.050641 -0.051719 0.009113
v -0.049036 -0.052897 0.009113
v -0.047775 -0.053768 0.009113
v -0.046906 -0.054322 0.009113
v -0.045899 -0.054911 0.009113
v -0.044839 -0.055507 0.009113
v -0.043870 -0.056018 0.009113
v -0.042635 -0.056617 0.009113
v -0.041671 -0.057055 0.009113
v -0.040712 -0.057478 0.009113
v -0.039620 -0.057937 0.009113
v -0.044394 -0.064091 0.072810
v -0.043457 -0.064237 0.073328
v -0.043865 -0.063679 0.073780
v -0.042397 -0.064000 0.074088
v -0.041019 -0.064257 0.074330
v -0.017049 -0.064737 0.075300
v -0.016021 -0.065318 0.075077
v -0.011899 -0.064682 0.074986
v -0.009843 -0.064682 0.074651
v -0.009112 -0.065344 0.074022
v -0.009843 -0.066673 0.071689
v -0.008211 -0.066177 0.071283
v -0.006749 -0.065690 0.070661
v -0.009838 -0.058588 0.008674
v -0.011025 -0.058973 0.008674
v -0.015454 -0.060061 0.008464
v -0.023826 -0.057356 0.008464
v -0.011899 -0.066514 0.073564
v -0.010638 -0.066532 0.072987
v -0.012106 -0.067103 0.072286
v -0.010871 -0.066948 0.071689
v -0.052512 -0.046108 0.009113
v -0.053397 -0.046108 0.040791
v -0.039689 -0.064077 0.074717
v -0.036595 -0.063794 0.075215
v -0.026300 -0.065092 0.075287
v -0.025278 -0.065105 0.075294
v -0.035562 -0.064314 0.075130
v -0.033506 -0.064709 0.075136
v -0.029394 -0.065712 0.075025
v -0.027921 -0.065506 0.075176
v -0.021171 -0.065174 0.075294
v -0.042116 -0.065327 0.070510
v -0.042275 -0.065207 0.071742
v -0.041390 -0.065254 0.072987
v -0.023725 -0.060885 0.008464
v -0.038661 -0.058296 0.009113
v -0.040723 -0.064828 0.073878
v -0.038762 -0.065065 0.074311
v -0.020143 -0.065422 0.075202
v -0.019110 -0.065712 0.075084
v -0.018082 -0.065712 0.075038
v -0.017049 -0.065712 0.074986
v -0.014993 -0.066049 0.074612
v -0.013420 -0.065876 0.074501
v -0.011899 -0.065517 0.074501
v -0.010871 -0.065034 0.074619
v -0.013012 -0.066547 0.073806
v -0.010871 -0.066973 0.070661
v -0.009843 -0.066673 0.070661
v -0.013033 -0.059527 0.008674
v -0.014198 -0.059793 0.008569
v -0.017044 -0.060373 0.008674
v -0.018072 -0.060542 0.008674
v -0.019099 -0.060686 0.008674
v -0.020138 -0.060812 0.008674
v -0.012529 -0.067360 0.070562
v -0.013960 -0.067673 0.070661
v -0.014993 -0.067863 0.070661
v -0.014061 -0.067077 0.073374
v -0.014993 -0.067586 0.072718
v -0.013176 -0.067314 0.072410
v -0.014993 -0.067841 0.071689
v -0.037623 -0.065014 0.074566
v -0.036595 -0.065074 0.074684
v -0.024244 -0.065513 0.075228
v -0.031450 -0.065712 0.074874
v -0.030422 -0.066556 0.074501
v -0.025278 -0.067012 0.074461
v -0.040723 -0.065836 0.070661
v -0.040723 -0.065774 0.071689
v -0.037612 -0.066312 0.073151
v -0.039218 -0.066250 0.071807
v -0.038476 -0.066332 0.072482
v -0.025288 -0.060925 0.009113
v -0.026316 -0.060854 0.009113
v -0.029294 -0.060564 0.009113
v -0.030327 -0.060418 0.009113
v -0.031466 -0.060207 0.009113
v -0.032452 -0.060019 0.009113
v -0.033517 -0.059784 0.009113
v -0.034947 -0.059428 0.009113
v -0.036489 -0.059009 0.009113
v -0.037634 -0.058650 0.009113
v -0.021267 -0.060885 0.008674
v -0.022395 -0.060907 0.008674
v -0.025278 -0.068738 0.070661
v -0.036595 -0.066188 0.073727
v -0.035366 -0.065911 0.074284
v -0.021171 -0.065712 0.075123
v -0.020143 -0.066700 0.074606
v -0.018082 -0.066605 0.074547
v -0.017049 -0.066543 0.074501
v -0.016021 -0.066465 0.074455
v -0.014993 -0.066902 0.073839
v -0.016021 -0.068023 0.070661
v -0.017764 -0.068262 0.070464
v -0.018946 -0.068386 0.070333
v -0.020143 -0.068536 0.070661
v -0.016021 -0.068036 0.071689
v -0.016021 -0.067196 0.073695
v -0.017049 -0.067949 0.072718
v -0.016021 -0.067783 0.072718
v -0.032478 -0.066390 0.074376
v -0.033506 -0.065712 0.074678
v -0.023227 -0.067012 0.074461
v -0.031450 -0.066474 0.074448
v -0.029394 -0.066886 0.074357
v -0.026284 -0.067338 0.074134
v -0.024244 -0.067763 0.073747
v -0.023227 -0.067772 0.073747
v -0.039075 -0.066339 0.070497
v -0.033522 -0.067318 0.073144
v -0.036595 -0.066769 0.072718
v -0.034698 -0.067252 0.072725
v -0.037623 -0.066733 0.071689
v -0.036595 -0.067004 0.071689
v -0.026300 -0.068687 0.070661
v -0.027333 -0.068579 0.070661
v -0.028748 -0.068392 0.070510
v -0.032478 -0.067870 0.070661
v -0.033506 -0.067706 0.070661
v -0.034968 -0.067393 0.070497
v -0.036595 -0.067026 0.070661
v -0.037623 -0.066760 0.070661
v -0.021171 -0.068594 0.070661
v -0.022199 -0.068638 0.070661
v -0.023227 -0.068683 0.071689
v -0.024244 -0.068698 0.071689
v -0.025278 -0.068685 0.071689
v -0.031450 -0.066990 0.073990
v -0.021659 -0.066919 0.074494
v -0.019110 -0.066915 0.074383
v -0.018082 -0.067349 0.073878
v -0.017049 -0.067280 0.073793
v -0.017695 -0.068266 0.071565
v -0.020143 -0.068485 0.071689
v -0.021171 -0.068565 0.071689
v -0.022199 -0.068636 0.071689
v -0.019110 -0.067628 0.073668
v -0.020143 -0.068268 0.072666
v -0.018612 -0.068180 0.072502
v -0.021728 -0.067679 0.073793
v -0.020143 -0.067440 0.073970
v -0.030422 -0.067283 0.073826
v -0.029394 -0.067571 0.073642
v -0.028367 -0.067285 0.074042
v -0.027333 -0.067325 0.074075
v -0.025278 -0.067739 0.073747
v -0.025278 -0.068235 0.073098
v -0.023677 -0.068355 0.072902
v -0.022199 -0.068339 0.072869
v -0.032478 -0.067622 0.072718
v -0.031450 -0.067774 0.072718
v -0.030422 -0.067918 0.072718
v -0.029394 -0.068056 0.072718
v -0.035578 -0.067258 0.071689
v -0.034534 -0.067486 0.071689
v -0.033506 -0.067675 0.071689
v -0.032478 -0.067848 0.071689
v -0.026300 -0.068621 0.071689
v -0.027333 -0.068534 0.071689
v -0.029182 -0.068339 0.071506
v -0.031450 -0.068007 0.071689
v -0.026300 -0.068308 0.072777
v -0.027333 -0.068275 0.072692
v -0.021171 -0.068304 0.072777
v -0.030422 -0.068151 0.071689
v -0.028483 -0.068293 0.072240
f 1 2 3
f 1 3 4
f 1 4 5
f 1 5 6
f 1 6 26
f 1 26 27
f 1 27 7
f 1 7 8
f 1 8 2
f 2 9 10
f 2 10 3
f 2 8 11
f 2 11 9
f 3 12 13
f 3 13 4
f 3 10 14
f 3 14 12
f 4 13 15
f 4 15 16
f 4 16 17
f 4 17 18
f 4 18 5
f 5 19 20
f 5 20 21
f 5 21 22
f 5 22 6
f 5 18 23
f 5 23 24
f 5 24 19
f 6 22 25
f 6 25 26
f 7 27 28
f 7 28 8
f 8 28 11
f 9 29 30
f 9 30 31
f 9 31 10
f 9 11 29
f 10 31 32
f 10 32 33
f 10 33 34
f 10 34 14
f 11 28 35
f 11 35 36
f 11 36 37
f 11 37 38
f 11 38 39
f 11 39 40
f 11 40 41
f 11 41 29
f 12 14 42
f 12 42 43
f 12 43 44
f 12 44 13
f 13 44 15
f 14 34 42
f 15 45 17
f 15 17 16
f 15 44 45
f 17 45 46
f 17 46 47
f 17 47 18
f 18 47 23
f 19 48 20
f 19 24 49
f 19 49 48
f 20 48 50
f 20 50 21
f 21 50 51
f 21 51 22
f 22 51 52
f 22 52 25
f 23 47 53
f 23 53 24
f 24 53 54
f 24 54 49
f 25 52 26
f 26 52 27
f 27 52 55
f 27 55 56
f 27 56 28
f 28 56 35
f 29 41 57
f 29 57 58
f 29 58 59
f 29 59 30
f 30 59 60
f 30 60 31
f 31 60 32
f 32 61 33
f 32 60 62
f 32 62 61
f 33 61 63
f 33 63 34
f 34 63 64
f 34 64 65
f 34 65 42
f 35 56 108
f 35 108 107
f 35 107 66
f 35 66 37
f 35 37 36
f 37 66 38
f 38 67 68
f 38 68 39
f 38 66 69
f 38 69 70
f 38 70 71
f 38 71 72
f 38 72 73
f 38 73 74
f 38 74 75
f 38 75 76
f 38 76 77
f 38 77 78
f 38 78 79
f 38 79 80
f 38 80 81
f 38 81 82
f 38 82 83
f 38 83 84
f 38 84 85
f 38 85 67
f 39 68 86
f 39 86 40
f 40 86 87
f 40 87 88
f 40 88 41
f 41 88 89
f 41 89 90
f 41 90 57
f 42 65 43
f 43 65 91
f 43 91 92
f 43 92 93
f 43 93 44
f 44 93 45
f 45 93 94
f 45 94 46
f 46 95 47
f 46 94 95
f 47 95 53
f 48 49 54
f 48 54 96
f 48 96 97
f 48 97 98
f 48 98 50
f 50 98 51
f 51 99 100
f 51 100 101
f 51 101 52
f 51 98 99
f 52 101 121
f 52 121 102
f 52 102 55
f 53 103 104
f 53 104 54
f 53 95 103
f 54 105 106
f 54 106 96
f 54 104 105
f 55 102 107
f 55 107 108
f 55 108 56
f 57 90 58
f 58 90 109
f 58 109 60
f 58 60 59
f 60 109 110
f 60 110 62
f 61 64 63
f 61 62 111
f 61 111 112
f 61 112 64
f 62 110 113
f 62 113 114
f 62 114 115
f 62 115 116
f 62 116 111
f 64 112 117
f 64 117 91
f 64 91 65
f 66 107 69
f 67 85 118
f 67 118 68
f 68 118 119
f 68 119 120
f 68 120 86
f 69 107 70
f 70 107 102
f 70 102 121
f 70 121 71
f 71 121 72
f 72 121 73
f 73 121 74
f 74 121 75
f 75 121 76
f 76 121 77
f 77 121 78
f 78 121 79
f 79 121 80
f 80 121 81
f 81 121 82
f 82 121 83
f 83 121 84
f 84 121 85
f 85 122 118
f 85 121 122
f 86 120 87
f 87 120 123
f 87 123 89
f 87 89 88
f 89 123 90
f 90 123 124
f 90 124 109
f 91 117 125
f 91 125 126
f 91 126 92
f 92 126 127
f 92 127 128
f 92 128 93
f 93 128 129
f 93 129 130
f 93 130 131
f 93 131 132
f 93 132 94
f 94 132 131
f 94 131 95
f 95 133 103
f 95 131 133
f 96 106 134
f 96 134 135
f 96 135 97
f 97 135 98
f 98 135 100
f 98 100 99
f 100 136 137
f 100 137 101
f 100 135 134
f 100 134 136
f 101 138 139
f 101 139 140
f 101 140 141
f 101 141 121
f 101 137 142
f 101 142 143
f 101 143 144
f 101 144 138
f 103 145 104
f 103 133 145
f 104 145 146
f 104 146 147
f 104 147 105
f 105 147 106
f 106 147 148
f 106 148 143
f 106 143 142
f 106 142 134
f 109 149 150
f 109 150 113
f 109 113 110
f 109 124 149
f 111 116 151
f 111 151 112
f 112 151 117
f 113 150 152
f 113 152 114
f 114 152 115
f 115 152 153
f 115 153 154
f 115 154 116
f 116 154 151
f 117 151 125
f 118 122 155
f 118 155 119
f 119 155 156
f 119 156 120
f 120 157 123
f 120 156 158
f 120 158 159
f 120 159 157
f 121 160 161
f 121 161 162
f 121 162 163
f 121 163 164
f 121 164 165
f 121 165 166
f 121 166 167
f 121 167 168
f 121 168 169
f 121 169 122
f 121 141 170
f 121 170 171
f 121 171 172
f 121 172 160
f 122 169 155
f 123 157 173
f 123 173 124
f 124 173 174
f 124 174 149
f 125 151 175
f 125 175 126
f 126 175 176
f 126 176 127
f 127 176 128
f 128 176 177
f 128 177 178
f 128 178 129
f 129 178 179
f 129 179 130
f 130 179 133
f 130 133 131
f 133 179 180
f 133 180 145
f 134 142 136
f 136 142 137
f 138 144 139
f 139 144 181
f 139 181 182
f 139 182 140
f 140 182 141
f 141 182 183
f 141 183 184
f 141 184 170
f 143 148 185
f 143 185 144
f 144 185 181
f 145 180 186
f 145 186 187
f 145 187 188
f 145 188 146
f 146 188 148
f 146 148 147
f 148 188 185
f 149 174 150
f 150 174 189
f 150 189 190
f 150 190 152
f 151 154 191
f 151 191 175
f 152 190 192
f 152 192 153
f 153 192 193
f 153 193 154
f 154 193 194
f 154 194 195
f 154 195 196
f 154 196 191
f 155 158 156
f 155 169 197
f 155 197 158
f 157 198 173
f 157 159 199
f 157 199 200
f 157 200 198
f 158 197 201
f 158 201 159
f 159 201 202
f 159 202 199
f 160 172 203
f 160 203 161
f 161 203 162
f 162 203 204
f 162 204 205
f 162 205 163
f 163 205 206
f 163 206 207
f 163 207 164
f 164 207 165
f 165 207 208
f 165 208 166
f 166 208 209
f 166 209 167
f 167 209 210
f 167 210 168
f 168 210 197
f 168 197 169
f 170 184 211
f 170 211 212
f 170 212 172
f 170 172 171
f 172 212 213
f 172 213 214
f 172 214 215
f 172 215 203
f 173 198 216
f 173 216 174
f 174 216 189
f 175 191 176
f 176 191 217
f 176 217 218
f 176 218 177
f 177 218 178
f 178 218 219
f 178 219 179
f 179 219 220
f 179 220 180
f 180 220 186
f 181 185 182
f 182 185 221
f 182 221 184
f 182 184 183
f 184 221 222
f 184 222 223
f 184 223 224
f 184 224 211
f 185 188 187
f 185 187 221
f 186 220 187
f 187 220 225
f 187 225 226
f 187 226 227
f 187 227 221
f 189 216 192
f 189 192 190
f 191 196 228
f 191 228 229
f 191 229 217
f 192 216 193
f 193 216 230
f 193 230 231
f 193 231 232
f 193 232 233
f 193 233 194
f 194 233 234
f 194 234 195
f 195 234 235
f 195 235 196
f 196 235 236
f 196 236 237
f 196 237 228
f 197 210 201
f 198 231 230
f 198 230 216
f 198 200 238
f 198 238 239
f 198 239 240
f 198 240 241
f 198 241 231
f 199 202 200
f 200 202 242
f 200 242 243
f 200 243 244
f 200 244 245
f 200 245 238
f 201 210 202
f 202 210 209
f 202 209 242
f 203 215 246
f 203 246 247
f 203 247 204
f 204 247 248
f 204 248 205
f 205 248 206
f 206 248 249
f 206 249 245
f 206 245 207
f 207 245 244
f 207 244 243
f 207 243 208
f 208 243 242
f 208 242 209
f 211 224 213
f 211 213 212
f 213 224 237
f 213 237 236
f 213 236 214
f 214 236 215
f 215 236 250
f 215 250 251
f 215 251 246
f 217 229 218
f 218 229 219
f 219 229 225
f 219 225 220
f 221 227 222
f 222 227 226
f 222 226 223
f 223 226 224
f 224 226 252
f 224 252 237
f 225 237 252
f 225 252 226
f 225 229 228
f 225 228 237
f 231 241 251
f 231 251 235
f 231 235 234
f 231 234 233
f 231 233 232
f 235 250 236
f 235 251 250
f 238 245 249
f 238 249 239
f 239 249 253
f 239 253 240
f 240 253 254
f 240 254 241
f 241 254 251
f 246 251 247
f 247 251 254
f 247 254 248
f 248 254 253
f 248 253 249
