v 0.022613 0.006581 0.070657
v 0.021031 0.009477 0.070657
v 0.022063 0.007415 0.071692
v 0.022527 0.006524 0.071692
v 0.018760 -0.001784 0.068271
v 0.018998 -0.003815 0.042217
v 0.018949 -0.003815 0.038632
v 0.018534 -0.003815 0.013482
v 0.018498 -0.003815 0.011968
v 0.018461 -0.003815 0.010940
v 0.018406 -0.003815 0.009911
v 0.018137 -0.003351 0.008581
v 0.017533 -0.001608 0.008587
v 0.016703 0.000515 0.008581
v 0.016129 0.001888 0.008888
v 0.015421 0.003187 0.008430
v 0.014889 0.004323 0.008888
v 0.021703 0.008172 0.070290
v 0.021392 0.008636 0.071692
v 0.020549 0.010270 0.070323
v 0.019652 0.011752 0.070657
v 0.021611 0.007765 0.072557
v 0.021972 0.006561 0.073035
v 0.015421 -0.001784 0.068271
v 0.021037 0.006415 0.074195
v 0.020030 0.006415 0.074765
v 0.018998 0.006415 0.075087
v 0.017960 0.006415 0.075191
v 0.015781 -0.003815 0.042217
v 0.014529 -0.003815 0.008273
v 0.013271 0.006913 0.008299
v 0.014315 0.005266 0.008581
v 0.020482 0.010040 0.072046
v 0.018852 0.012909 0.070473
v 0.018754 0.012851 0.071823
v 0.019529 0.011532 0.072157
v 0.019676 0.010508 0.073193
v 0.020439 0.008585 0.073651
v 0.020708 0.007426 0.074018
v -0.039693 0.021915 0.067911
v 0.016935 0.006415 0.075178
v 0.015909 0.006415 0.075041
v 0.014883 0.006415 0.074779
v 0.019236 0.009352 0.074300
v 0.017960 0.009477 0.074864
v 0.018998 0.007415 0.074942
v 0.017960 0.008446 0.075034
v 0.016935 0.009477 0.075093
v 0.017960 0.007415 0.075139
v 0.015909 0.009477 0.075185
v 0.016935 0.007415 0.075204
v 0.015903 0.010508 0.075139
v 0.014859 -0.003815 0.019190
v -0.039760 0.020528 0.008882
v -0.025840 0.023492 0.008259
v 0.004522 0.012417 0.008259
v 0.008143 0.013465 0.008259
v 0.011568 0.009341 0.008273
v 0.012282 0.008419 0.008581
v 0.016257 0.016442 0.070388
v 0.016410 0.016143 0.071640
v 0.017466 0.014126 0.072760
v 0.018534 0.012427 0.073042
v 0.017631 0.013326 0.073416
v -0.039088 0.025584 0.068265
v -0.039760 0.024800 0.042210
v -0.039760 0.021481 0.042210
v -0.003439 0.024912 0.075093
v -0.003030 0.025940 0.075159
v 0.018363 0.010630 0.074333
v 0.015903 0.012566 0.074838
v 0.016935 0.010508 0.074969
v 0.016935 0.011535 0.074726
v 0.015903 0.011535 0.075034
v 0.009730 0.016676 0.075191
v 0.010762 0.016676 0.075152
v -0.001589 0.024912 0.075165
v 0.014877 0.012566 0.075067
v -0.039546 0.024387 0.012080
v -0.039223 0.024394 0.009459
v -0.037684 0.024902 0.008882
v -0.025559 0.027059 0.008259
v 0.005194 0.016238 0.008259
v 0.006629 0.015011 0.008574
v 0.013534 0.019450 0.070257
v 0.014340 0.018710 0.070657
v 0.008973 0.012586 0.008266
v 0.010237 0.011135 0.008273
v 0.015335 0.017652 0.070657
v 0.015457 0.017266 0.071856
v 0.015591 0.016398 0.073022
v 0.016110 0.015560 0.073173
v 0.014492 0.017069 0.073645
v 0.016385 0.014468 0.073769
v 0.016910 0.013004 0.074215
v -0.003030 0.026967 0.075106
v -0.003030 0.028001 0.074870
v -0.003231 0.029521 0.074031
v -0.037629 0.026096 0.068265
v -0.038661 0.024753 0.014026
v -0.000563 0.024912 0.075152
v -0.001589 0.025940 0.075132
v 0.015939 0.013594 0.074530
v 0.014877 0.013590 0.074910
v 0.012814 0.016676 0.074779
v 0.011788 0.016676 0.075021
v 0.008698 0.017707 0.075185
v 0.009724 0.018734 0.075028
v 0.008698 0.018734 0.075132
v 0.006641 0.019765 0.075165
v -0.039101 0.024526 0.010940
v -0.037629 0.024990 0.009904
v -0.036109 0.025435 0.009465
v -0.034546 0.025821 0.008882
v -0.011785 0.025485 0.008259
v -0.033472 0.026082 0.008882
v -0.030425 0.026662 0.008882
v -0.029393 0.026808 0.008882
v -0.028361 0.026930 0.008882
v -0.027336 0.027018 0.008882
v -0.024240 0.027160 0.008574
v -0.022750 0.027171 0.008574
v -0.021151 0.027110 0.008574
v -0.019661 0.027018 0.008574
v -0.018171 0.026859 0.008574
v 0.004077 0.017191 0.008259
v 0.010469 0.022312 0.070316
v 0.011421 0.021447 0.070270
v 0.012612 0.020328 0.070264
v 0.011653 0.021179 0.071849
v 0.013235 0.019670 0.071692
v 0.014431 0.018287 0.072151
v 0.013332 0.019253 0.072741
v 0.012581 0.019514 0.073448
v 0.013204 0.018629 0.073606
v 0.013100 0.017771 0.074235
v 0.015268 0.014957 0.074313
v -0.000563 0.025940 0.075067
v -0.001589 0.026967 0.074975
v -0.000563 0.026967 0.074785
v -0.002621 0.028788 0.074431
v -0.001491 0.028724 0.074051
v -0.000563 0.028808 0.073553
v -0.001626 0.029649 0.073147
v -0.002993 0.030433 0.072708
v -0.033081 0.027320 0.068265
v -0.034973 0.026869 0.068265
v -0.036494 0.026459 0.068265
v -0.036555 0.025414 0.011968
v -0.037629 0.025065 0.011968
v -0.038661 0.024709 0.011968
v 0.004583 0.021823 0.075126
v 0.002526 0.023881 0.075067
v 0.013986 0.016194 0.074477
v 0.011788 0.017707 0.074811
v 0.010762 0.018331 0.074896
v 0.008698 0.019765 0.075014
v 0.007673 0.019765 0.075119
v -0.037629 0.025034 0.010940
v -0.036518 0.025401 0.010940
v -0.035572 0.025675 0.010940
v -0.034540 0.025886 0.009904
v -0.033508 0.026143 0.009904
v -0.008305 0.024316 0.008259
v -0.016688 0.026604 0.008574
v -0.013489 0.025933 0.008574
v -0.003085 0.030826 0.070467
v -0.031976 0.026452 0.009472
v -0.030425 0.026740 0.009904
v -0.029393 0.026893 0.009904
v -0.028361 0.027005 0.009904
v -0.027336 0.027089 0.009904
v -0.026188 0.027116 0.009282
v -0.024240 0.027252 0.009904
v 0.002227 0.018602 0.008259
v 0.007819 0.024509 0.070657
v 0.008967 0.023600 0.070526
v 0.009095 0.023444 0.071535
v 0.010072 0.022369 0.072511
v 0.012429 0.020402 0.072046
v 0.011873 0.020348 0.073258
v 0.010115 0.021447 0.073645
v 0.010787 0.020057 0.074248
v 0.011745 0.019080 0.074300
v 0.003558 0.023881 0.074962
v 0.000474 0.025940 0.074929
v 0.001500 0.025940 0.074720
v 0.000572 0.027347 0.074307
v 0.001799 0.027628 0.073402
v 0.000401 0.028619 0.073127
v -0.000563 0.029544 0.072144
v -0.001589 0.030124 0.071692
v -0.003030 0.030762 0.071627
v -0.029393 0.027964 0.068265
v -0.030425 0.027812 0.068265
v -0.031597 0.027608 0.067918
v -0.032513 0.026465 0.011968
v -0.033508 0.026259 0.013004
v -0.034540 0.026008 0.013004
v -0.035572 0.025706 0.011968
v 0.004583 0.022854 0.075008
v 0.009724 0.019765 0.074792
v 0.007673 0.020792 0.074975
v -0.034540 0.025977 0.011968
v -0.034540 0.025940 0.010940
v -0.033508 0.026201 0.010940
v -0.032440 0.026448 0.010940
v -0.006119 0.023427 0.008259
v -0.014978 0.026299 0.008882
v -0.001589 0.030175 0.070657
v -0.027336 0.027130 0.010940
v -0.028361 0.027052 0.010940
v -0.028361 0.027076 0.011968
v -0.029393 0.027005 0.014026
v -0.031457 0.026632 0.010940
v -0.030425 0.026794 0.010940
v -0.029393 0.026943 0.010940
v 0.001415 0.019189 0.008259
v 0.006598 0.025397 0.070657
v 0.007752 0.024461 0.071692
v 0.007331 0.024533 0.072465
v 0.007087 0.024349 0.073147
v 0.008784 0.023000 0.073160
v 0.007410 0.023091 0.074130
v 0.008033 0.022247 0.074333
v 0.009254 0.020942 0.074490
v 0.005621 0.022854 0.074838
v 0.002526 0.024912 0.074864
v 0.003625 0.024997 0.074562
v 0.002904 0.025777 0.074412
v 0.001799 0.026591 0.074333
v 0.003075 0.026472 0.073796
v 0.004272 0.026448 0.072937
v 0.002788 0.027327 0.073003
v 0.001366 0.028585 0.072046
v 0.002526 0.028018 0.071692
v -0.000447 0.029602 0.070657
v -0.030425 0.026869 0.014026
v -0.031457 0.026689 0.013004
v -0.033508 0.026235 0.011968
v -0.031457 0.026665 0.011968
v -0.004685 0.022766 0.008259
v -0.003769 0.022318 0.008259
v -0.030425 0.026825 0.011968
v -0.030425 0.026849 0.013004
v -0.002017 0.021382 0.008259
v -0.000136 0.020280 0.008397
v 0.003503 0.027449 0.070657
v 0.005218 0.026337 0.071233
v 0.003320 0.027493 0.072007
v 0.006006 0.025499 0.072413
v 0.006073 0.024577 0.073697
v 0.004608 0.025472 0.073809
v 0.005170 0.024061 0.074516
v 0.002526 0.028025 0.070657
v 0.001573 0.028554 0.070657
f 1 2 3
f 1 3 4
f 1 4 5
f 1 5 6
f 1 6 7
f 1 7 8
f 1 8 9
f 1 9 10
f 1 10 11
f 1 11 12
f 1 12 13
f 1 13 14
f 1 14 15
f 1 15 16
f 1 16 17
f 1 17 18
f 1 18 2
f 2 19 3
f 2 18 20
f 2 20 21
f 2 21 19
f 3 19 22
f 3 22 4
f 4 22 23
f 4 23 5
f 5 24 29
f 5 29 6
f 5 23 25
f 5 25 26
f 5 26 27
f 5 27 28
f 5 28 24
f 6 29 53
f 6 53 30
f 6 30 11
f 6 11 10
f 6 10 9
f 6 9 8
f 6 8 7
f 11 30 12
f 12 30 16
f 12 16 13
f 13 16 14
f 14 16 15
f 16 30 31
f 16 31 32
f 16 32 17
f 17 32 20
f 17 20 18
f 19 21 33
f 19 33 22
f 20 32 31
f 20 31 21
f 21 31 34
f 21 34 35
f 21 35 36
f 21 36 33
f 22 33 37
f 22 37 23
f 23 37 38
f 23 38 39
f 23 39 25
f 24 40 29
f 24 28 41
f 24 41 42
f 24 42 43
f 24 43 40
f 25 39 44
f 25 44 26
f 26 45 46
f 26 46 27
f 26 44 45
f 27 47 48
f 27 48 49
f 27 49 28
f 27 46 47
f 28 50 51
f 28 51 41
f 28 49 52
f 28 52 50
f 29 40 54
f 29 54 53
f 30 55 56
f 30 56 57
f 30 57 58
f 30 58 31
f 30 53 54
f 30 54 55
f 31 58 59
f 31 59 34
f 33 36 37
f 34 59 58
f 34 58 60
f 34 60 61
f 34 61 35
f 35 61 62
f 35 62 63
f 35 63 36
f 36 63 37
f 37 64 38
f 37 63 64
f 38 44 39
f 38 64 44
f 40 65 66
f 40 66 67
f 40 67 54
f 40 43 42
f 40 42 68
f 40 68 65
f 41 51 69
f 41 69 68
f 41 68 42
f 44 64 70
f 44 70 45
f 45 71 72
f 45 72 46
f 45 70 73
f 45 73 71
f 46 72 47
f 47 74 48
f 47 72 74
f 48 74 52
f 48 52 49
f 50 75 51
f 50 52 76
f 50 76 75
f 51 75 77
f 51 77 69
f 52 74 78
f 52 78 76
f 54 66 79
f 54 79 80
f 54 80 81
f 54 81 82
f 54 82 55
f 54 67 66
f 55 82 115
f 55 115 164
f 55 164 208
f 55 208 242
f 55 242 243
f 55 243 246
f 55 246 218
f 55 218 175
f 55 175 126
f 55 126 83
f 55 83 57
f 55 57 56
f 57 83 84
f 57 84 85
f 57 85 86
f 57 86 87
f 57 87 88
f 57 88 58
f 58 88 60
f 60 89 61
f 60 88 89
f 61 90 62
f 61 89 90
f 62 90 91
f 62 91 64
f 62 64 63
f 64 91 92
f 64 92 93
f 64 93 94
f 64 94 95
f 64 95 70
f 65 68 69
f 65 69 96
f 65 96 97
f 65 97 98
f 65 98 99
f 65 99 100
f 65 100 79
f 65 79 66
f 69 77 101
f 69 101 102
f 69 102 96
f 70 103 73
f 70 95 103
f 71 104 72
f 71 73 103
f 71 103 105
f 71 105 104
f 72 104 74
f 74 106 78
f 74 104 106
f 75 107 77
f 75 76 107
f 76 78 106
f 76 106 108
f 76 108 109
f 76 109 110
f 76 110 107
f 77 107 101
f 79 100 111
f 79 111 80
f 80 111 112
f 80 112 81
f 81 112 113
f 81 113 114
f 81 114 82
f 82 114 116
f 82 116 117
f 82 117 118
f 82 118 119
f 82 119 120
f 82 120 121
f 82 121 122
f 82 122 123
f 82 123 124
f 82 124 125
f 82 125 115
f 83 126 127
f 83 127 84
f 84 127 128
f 84 128 129
f 84 129 85
f 85 129 86
f 86 89 87
f 86 129 128
f 86 128 130
f 86 130 131
f 86 131 89
f 87 89 88
f 89 131 90
f 90 131 132
f 90 132 133
f 90 133 91
f 91 134 135
f 91 135 93
f 91 93 92
f 91 133 134
f 93 136 137
f 93 137 94
f 93 135 136
f 94 137 95
f 95 137 103
f 96 102 138
f 96 138 139
f 96 139 97
f 97 139 140
f 97 140 141
f 97 141 98
f 98 141 142
f 98 142 143
f 98 143 144
f 98 144 145
f 98 145 146
f 98 146 147
f 98 147 148
f 98 148 99
f 99 148 149
f 99 149 150
f 99 150 100
f 100 150 151
f 100 151 111
f 101 107 110
f 101 110 102
f 102 110 152
f 102 152 153
f 102 153 138
f 103 137 154
f 103 154 105
f 104 105 106
f 105 154 155
f 105 155 106
f 106 155 156
f 106 156 108
f 108 156 157
f 108 157 158
f 108 158 109
f 109 158 110
f 110 158 152
f 111 159 112
f 111 151 159
f 112 159 160
f 112 160 113
f 113 160 161
f 113 161 114
f 114 161 162
f 114 162 163
f 114 163 116
f 115 125 165
f 115 165 166
f 115 166 167
f 115 167 164
f 116 163 168
f 116 168 117
f 117 168 169
f 117 169 170
f 117 170 118
f 118 170 119
f 119 170 171
f 119 171 120
f 120 171 172
f 120 172 173
f 120 173 121
f 121 173 174
f 121 174 122
f 122 174 167
f 122 167 123
f 123 167 124
f 124 167 125
f 125 167 165
f 126 175 176
f 126 176 177
f 126 177 127
f 127 177 178
f 127 178 130
f 127 130 128
f 130 178 179
f 130 179 180
f 130 180 131
f 131 180 132
f 132 180 133
f 133 180 179
f 133 179 181
f 133 181 134
f 134 181 182
f 134 182 183
f 134 183 184
f 134 184 135
f 135 184 136
f 136 184 154
f 136 154 137
f 138 153 185
f 138 185 186
f 138 186 139
f 139 186 140
f 140 186 187
f 140 187 188
f 140 188 141
f 141 188 142
f 142 188 143
f 143 189 190
f 143 190 144
f 143 188 189
f 144 190 191
f 144 191 145
f 145 191 192
f 145 192 193
f 145 193 194
f 145 194 195
f 145 195 146
f 146 195 196
f 146 196 197
f 146 197 198
f 146 198 147
f 147 198 199
f 147 199 148
f 148 199 200
f 148 200 149
f 149 200 160
f 149 160 150
f 150 160 159
f 150 159 151
f 152 158 153
f 153 158 201
f 153 201 185
f 154 184 155
f 155 202 156
f 155 184 202
f 156 202 157
f 157 203 201
f 157 201 158
f 157 202 203
f 160 200 161
f 161 200 204
f 161 204 205
f 161 205 162
f 162 205 206
f 162 206 163
f 163 206 207
f 163 207 168
f 164 167 208
f 165 167 209
f 165 209 166
f 166 209 167
f 167 210 208
f 167 174 172
f 167 172 211
f 167 211 212
f 167 212 213
f 167 213 214
f 167 214 194
f 167 194 193
f 167 193 210
f 168 207 215
f 168 215 169
f 169 215 216
f 169 216 170
f 170 216 217
f 170 217 171
f 171 217 212
f 171 212 172
f 172 174 173
f 172 212 211
f 175 218 219
f 175 219 176
f 176 219 220
f 176 220 178
f 176 178 177
f 178 220 179
f 179 220 221
f 179 221 222
f 179 222 223
f 179 223 181
f 181 223 182
f 182 223 224
f 182 224 183
f 183 224 225
f 183 225 226
f 183 226 184
f 184 226 202
f 185 227 228
f 185 228 186
f 185 201 203
f 185 203 227
f 186 228 187
f 187 229 230
f 187 230 231
f 187 231 188
f 187 228 229
f 188 231 232
f 188 232 189
f 189 232 233
f 189 233 234
f 189 234 190
f 190 234 235
f 190 235 191
f 191 235 192
f 192 235 236
f 192 236 237
f 192 237 210
f 192 210 193
f 194 214 238
f 194 238 195
f 195 238 239
f 195 239 196
f 196 239 197
f 197 240 198
f 197 239 241
f 197 241 207
f 197 207 206
f 197 206 240
f 198 240 199
f 199 240 204
f 199 204 200
f 202 226 227
f 202 227 203
f 204 240 206
f 204 206 205
f 207 241 215
f 208 210 242
f 210 237 243
f 210 243 242
f 212 217 213
f 213 217 214
f 214 217 238
f 215 241 216
f 216 241 244
f 216 244 217
f 217 244 245
f 217 245 238
f 218 246 247
f 218 247 219
f 219 248 249
f 219 249 220
f 219 247 248
f 220 249 250
f 220 250 251
f 220 251 221
f 221 251 222
f 222 252 224
f 222 224 223
f 222 251 233
f 222 233 252
f 224 252 253
f 224 253 230
f 224 230 254
f 224 254 225
f 225 254 226
f 226 254 227
f 227 254 229
f 227 229 228
f 229 254 230
f 230 253 231
f 231 253 232
f 232 253 233
f 233 251 250
f 233 250 234
f 233 253 252
f 234 250 235
f 235 250 236
f 236 249 248
f 236 248 255
f 236 255 256
f 236 256 237
f 236 250 249
f 237 256 243
f 238 245 239
f 239 245 244
f 239 244 241
f 243 256 246
f 246 256 255
f 246 255 248
f 246 248 247
