v -0.024777 0.035182 0.070668
v -0.023689 0.034846 0.069365
v -0.027861 0.034707 0.069582
v -0.026316 0.035092 0.070668
v -0.025805 0.035031 0.071698
v -0.023428 0.035151 0.071183
v -0.021687 0.035109 0.070668
v -0.020658 0.034833 0.069554
v -0.022318 0.034805 0.069325
v -0.023656 0.033991 0.068615
v -0.026077 0.034574 0.069148
v -0.029618 0.034688 0.070296
v -0.028378 0.034892 0.070668
v -0.027344 0.034104 0.068761
v -0.032725 0.033938 0.069373
v -0.031446 0.034284 0.069637
v -0.027344 0.034956 0.071183
v -0.025805 0.034729 0.072822
v -0.023623 0.034738 0.072899
v -0.029771 0.034672 0.071547
v -0.028487 0.034691 0.072234
v -0.027344 0.034763 0.072399
v -0.021431 0.034746 0.072734
v -0.020142 0.034808 0.072201
v -0.018667 0.034717 0.072106
v -0.020142 0.034997 0.070668
v -0.018597 0.034611 0.069373
v -0.020142 0.034154 0.068749
v -0.028378 0.033153 0.068334
v -0.020658 0.033153 0.068283
v -0.033503 0.034123 0.070668
v -0.031958 0.034371 0.071183
v -0.029918 0.033554 0.068623
v -0.031702 0.033505 0.068738
v -0.036946 0.032944 0.069362
v -0.034661 0.033687 0.069849
v -0.024777 0.034173 0.073752
v -0.027344 0.034573 0.072914
v -0.022715 0.034157 0.073752
v -0.033503 0.034073 0.071698
v -0.031446 0.034158 0.072723
v -0.029918 0.034364 0.072723
v -0.018597 0.033777 0.073909
v -0.016535 0.033645 0.073774
v -0.016535 0.034250 0.072723
v -0.016023 0.034445 0.071698
v -0.017465 0.034717 0.071011
v -0.016023 0.034351 0.069637
v -0.014995 0.033999 0.069298
v -0.016535 0.033559 0.068613
v -0.018597 0.033625 0.068539
v -0.051020 0.024918 0.068318
v -0.043812 0.029037 0.068372
v -0.041233 0.030066 0.068379
v -0.036598 0.032123 0.068528
v -0.015409 0.027594 0.068233
v -0.016861 0.027826 0.068233
v -0.018074 0.028002 0.068233
v -0.019527 0.028163 0.068233
v -0.020974 0.028255 0.068233
v -0.022193 0.028303 0.068233
v -0.023455 0.028336 0.068233
v -0.014995 0.033153 0.068494
v -0.012417 0.032123 0.068331
v -0.005720 0.030066 0.068340
v -0.007613 0.025448 0.068234
v -0.009327 0.026042 0.068234
v -0.010888 0.026513 0.068234
v -0.013641 0.027236 0.068233
v -0.038845 0.032687 0.070087
v -0.037153 0.033267 0.071182
v -0.040700 0.031709 0.069205
v -0.026790 0.033932 0.073925
v -0.025288 0.033428 0.074468
v -0.028378 0.033799 0.073938
v -0.031446 0.033814 0.073433
v -0.020648 0.033730 0.074091
v -0.034759 0.033688 0.072273
v -0.033405 0.033725 0.072998
v -0.018085 0.033008 0.074511
v -0.015382 0.032634 0.074486
v -0.013831 0.032495 0.074394
v -0.012417 0.032854 0.073760
v -0.014914 0.033574 0.073445
v -0.013744 0.033722 0.072865
v -0.012177 0.033540 0.072292
v -0.014478 0.034229 0.071183
v -0.012928 0.033985 0.070666
v -0.011242 0.033459 0.069935
v -0.013211 0.033688 0.069326
v -0.041968 0.024426 0.068272
v -0.043159 0.023862 0.068272
v -0.047859 0.021211 0.068271
v -0.055138 0.021830 0.068340
v -0.054110 0.022860 0.068361
v -0.053082 0.023889 0.068397
v -0.049992 0.025949 0.068368
v -0.043094 0.030225 0.068744
v -0.047245 0.028345 0.068796
v -0.041750 0.030940 0.068826
v -0.039177 0.031498 0.068651
v -0.023754 0.025213 0.068233
v -0.011122 0.032520 0.068645
v -0.008293 0.031096 0.068354
v -0.006122 0.024838 0.068234
v -0.007776 0.031900 0.068841
v -0.004158 0.030409 0.068806
v -0.003500 0.028599 0.068415
v -0.004017 0.023889 0.068234
v -0.013325 0.023923 0.068233
v -0.041636 0.031766 0.070268
v -0.040716 0.032159 0.071182
v -0.039291 0.032443 0.072455
v -0.045542 0.029427 0.069009
v -0.046717 0.029450 0.069813
v -0.044318 0.030615 0.070127
v -0.024777 0.032123 0.075076
v -0.023629 0.033157 0.074601
v -0.022198 0.033153 0.074603
v -0.028378 0.033074 0.074545
v -0.026833 0.032123 0.075053
v -0.029918 0.033703 0.073835
v -0.029918 0.032975 0.074491
v -0.035565 0.032900 0.073579
v -0.032475 0.033301 0.073847
v -0.036886 0.032736 0.073320
v -0.017052 0.032532 0.074679
v -0.018085 0.032123 0.074931
v -0.011252 0.031659 0.074548
v -0.008919 0.031632 0.074060
v -0.007776 0.031798 0.073497
v -0.010632 0.032913 0.072995
v -0.008614 0.032693 0.072132
v -0.010355 0.033249 0.071697
v -0.009838 0.033215 0.070666
v -0.008402 0.032789 0.070505
v -0.009212 0.032759 0.069422
v -0.056683 0.021219 0.068477
v -0.003440 0.020073 0.068243
v -0.053457 0.024764 0.068891
v -0.052211 0.025278 0.068712
v -0.049274 0.027135 0.068738
v -0.051330 0.026381 0.069134
v -0.009359 0.032147 0.068703
v -0.006193 0.031427 0.069062
v -0.003555 0.031013 0.071155
v -0.005350 0.031739 0.070518
v -0.003440 0.025433 0.075130
v -0.042778 0.031369 0.071182
v -0.045874 0.030026 0.070667
v -0.041658 0.031686 0.072164
v -0.042778 0.031112 0.072723
v -0.040216 0.031547 0.073611
v -0.053223 0.025465 0.069566
v -0.048583 0.028515 0.070217
v -0.047527 0.029185 0.070667
v -0.027344 0.031097 0.075227
v -0.025805 0.031097 0.075235
v -0.020658 0.031096 0.075189
v -0.018597 0.031096 0.075162
v -0.021181 0.032123 0.075020
v -0.030940 0.032123 0.074862
v -0.032986 0.031097 0.075105
v -0.030940 0.031097 0.075170
v -0.031958 0.032656 0.074505
v -0.038600 0.031931 0.073800
v -0.035565 0.031943 0.074504
v -0.034058 0.032291 0.074498
v -0.014995 0.031096 0.075083
v -0.010355 0.030066 0.075061
v -0.008293 0.030066 0.074871
v -0.006748 0.030066 0.074651
v -0.005791 0.030625 0.074016
v -0.006688 0.031627 0.073249
v -0.005421 0.031587 0.072255
v -0.006748 0.032181 0.071697
v -0.006748 0.032246 0.070666
v -0.059017 0.021095 0.070380
v -0.058261 0.021378 0.069423
v -0.057184 0.022088 0.069170
v -0.003440 0.020162 0.070152
v -0.052989 0.021015 0.075349
v -0.054649 0.024424 0.069584
v -0.055720 0.023254 0.069177
v -0.003925 0.030624 0.073071
v -0.003604 0.029612 0.074120
v -0.003440 0.023889 0.074890
v -0.003549 0.027512 0.075037
v -0.005203 0.026978 0.075186
v -0.051194 0.021424 0.075370
v -0.044263 0.030630 0.072173
v -0.046439 0.029620 0.072104
v -0.045749 0.029609 0.073090
v -0.042936 0.030492 0.073676
v -0.041549 0.030454 0.074241
v -0.055062 0.024349 0.070667
v -0.052048 0.026456 0.071181
v -0.050617 0.027378 0.071181
v -0.048218 0.028607 0.072278
v -0.034020 0.030068 0.075241
v -0.031474 0.029692 0.075292
v -0.014995 0.030066 0.075194
v -0.011900 0.030066 0.075137
v -0.035053 0.031097 0.074980
v -0.037626 0.030066 0.075099
v -0.039275 0.028914 0.075256
v -0.037626 0.029191 0.075272
v -0.039688 0.030862 0.074462
v -0.037773 0.031383 0.074503
v -0.036636 0.031456 0.074624
v -0.004686 0.028005 0.075071
v -0.005203 0.029036 0.074823
v -0.057129 0.021103 0.074203
v -0.058179 0.021304 0.073127
v -0.058751 0.021290 0.071684
v -0.057380 0.022491 0.071181
v -0.003440 0.020436 0.071682
v -0.050438 0.023044 0.075328
v -0.054404 0.021239 0.075138
v -0.003440 0.021419 0.073283
v -0.003440 0.022784 0.074432
v -0.007265 0.028519 0.075126
v -0.040553 0.028141 0.075310
v -0.049878 0.027431 0.072996
v -0.048964 0.027678 0.073464
v -0.046880 0.028536 0.073788
v -0.044835 0.029546 0.073767
v -0.043551 0.029528 0.074303
v -0.056226 0.023417 0.071181
v -0.053751 0.025258 0.071384
v -0.054910 0.024287 0.072179
v -0.052739 0.025533 0.073088
v -0.051129 0.026609 0.073069
v -0.039177 0.030066 0.074956
v -0.041233 0.029037 0.075071
v -0.042397 0.027826 0.075252
v -0.045455 0.028218 0.074607
v -0.043812 0.028008 0.075067
v -0.056079 0.021298 0.074589
v -0.055497 0.022237 0.074352
v -0.054246 0.023260 0.074344
v -0.053517 0.024574 0.073691
v -0.055726 0.023432 0.072985
v -0.057178 0.022321 0.072879
v -0.047538 0.025820 0.075157
v -0.049992 0.024516 0.075123
v -0.053082 0.022860 0.074959
v -0.051374 0.025316 0.074339
v -0.048964 0.026693 0.074424
v -0.047897 0.027307 0.074401
v -0.048964 0.025949 0.074818
v -0.045825 0.027027 0.075061
v -0.052625 0.024066 0.074561
v -0.049937 0.025953 0.074506
f 1 2 3
f 1 3 4
f 1 4 5
f 1 5 6
f 1 6 7
f 1 7 8
f 1 8 2
f 2 9 10
f 2 10 11
f 2 11 3
f 2 8 9
f 3 12 13
f 3 13 4
f 3 11 14
f 3 14 15
f 3 15 16
f 3 16 12
f 4 13 17
f 4 17 5
f 5 18 19
f 5 19 6
f 5 17 20
f 5 20 21
f 5 21 22
f 5 22 18
f 6 19 23
f 6 23 24
f 6 24 7
f 7 24 25
f 7 25 26
f 7 26 8
f 8 26 27
f 8 27 9
f 9 27 28
f 9 28 10
f 10 29 14
f 10 14 11
f 10 28 30
f 10 30 29
f 12 16 31
f 12 31 13
f 13 31 32
f 13 32 20
f 13 20 17
f 14 29 33
f 14 33 34
f 14 34 15
f 15 34 35
f 15 35 36
f 15 36 16
f 16 36 31
f 18 37 19
f 18 22 38
f 18 38 37
f 19 39 23
f 19 37 39
f 20 32 40
f 20 40 41
f 20 41 21
f 21 41 42
f 21 42 22
f 22 42 38
f 23 43 44
f 23 44 45
f 23 45 25
f 23 25 24
f 23 39 43
f 25 45 46
f 25 46 47
f 25 47 26
f 26 47 48
f 26 48 27
f 27 48 49
f 27 49 50
f 27 50 28
f 28 50 51
f 28 51 30
f 29 30 52
f 29 52 53
f 29 53 54
f 29 54 55
f 29 55 34
f 29 34 33
f 30 56 57
f 30 57 58
f 30 58 59
f 30 59 60
f 30 60 61
f 30 61 62
f 30 62 52
f 30 51 63
f 30 63 64
f 30 64 65
f 30 65 66
f 30 66 67
f 30 67 68
f 30 68 69
f 30 69 56
f 31 40 32
f 31 36 70
f 31 70 71
f 31 71 40
f 34 55 35
f 35 55 72
f 35 72 70
f 35 70 36
f 37 38 73
f 37 73 74
f 37 74 39
f 38 75 73
f 38 42 76
f 38 76 75
f 39 74 77
f 39 77 43
f 40 71 78
f 40 78 41
f 41 76 42
f 41 78 79
f 41 79 76
f 43 80 44
f 43 77 80
f 44 81 82
f 44 82 83
f 44 83 84
f 44 84 85
f 44 85 45
f 44 80 81
f 45 85 46
f 46 85 86
f 46 86 87
f 46 87 47
f 47 87 88
f 47 88 48
f 48 88 89
f 48 89 90
f 48 90 49
f 49 90 63
f 49 63 50
f 50 63 51
f 52 91 92
f 52 92 93
f 52 93 94
f 52 94 95
f 52 95 96
f 52 96 97
f 52 97 53
f 52 62 91
f 53 98 54
f 53 97 99
f 53 99 98
f 54 98 100
f 54 100 101
f 54 101 55
f 55 101 100
f 55 100 72
f 56 69 110
f 56 110 102
f 56 102 62
f 56 62 61
f 56 61 60
f 56 60 59
f 56 59 58
f 56 58 57
f 62 102 93
f 62 93 92
f 62 92 91
f 63 90 103
f 63 103 64
f 64 103 104
f 64 104 65
f 65 105 66
f 65 104 106
f 65 106 107
f 65 107 108
f 65 108 109
f 65 109 105
f 66 105 69
f 66 69 67
f 67 69 68
f 69 105 109
f 69 109 110
f 70 72 111
f 70 111 112
f 70 112 71
f 71 112 113
f 71 113 78
f 72 100 114
f 72 114 115
f 72 115 116
f 72 116 111
f 73 75 74
f 74 117 118
f 74 118 119
f 74 119 77
f 74 75 120
f 74 120 121
f 74 121 117
f 75 76 122
f 75 122 123
f 75 123 120
f 76 79 124
f 76 124 125
f 76 125 122
f 77 119 80
f 78 126 79
f 78 113 126
f 79 126 124
f 80 127 81
f 80 119 128
f 80 128 127
f 81 127 129
f 81 129 82
f 82 129 130
f 82 130 83
f 83 85 84
f 83 130 131
f 83 131 132
f 83 132 85
f 85 132 86
f 86 88 87
f 86 132 133
f 86 133 134
f 86 134 88
f 88 134 135
f 88 135 89
f 89 135 136
f 89 136 137
f 89 137 90
f 90 137 106
f 90 106 103
f 93 138 94
f 93 102 139
f 93 139 138
f 94 138 95
f 95 138 96
f 96 138 140
f 96 140 141
f 96 141 97
f 97 141 142
f 97 142 99
f 98 99 114
f 98 114 100
f 99 115 114
f 99 142 143
f 99 143 115
f 102 110 139
f 103 144 104
f 103 106 144
f 104 144 106
f 106 145 107
f 106 137 145
f 107 146 108
f 107 145 147
f 107 147 146
f 108 148 139
f 108 139 109
f 108 146 148
f 109 139 110
f 111 149 112
f 111 116 150
f 111 150 149
f 112 149 151
f 112 151 113
f 113 151 152
f 113 152 153
f 113 153 126
f 115 143 154
f 115 154 155
f 115 155 156
f 115 156 150
f 115 150 116
f 117 121 157
f 117 157 158
f 117 158 159
f 117 159 160
f 117 160 161
f 117 161 119
f 117 119 118
f 119 161 128
f 120 123 162
f 120 162 121
f 121 162 163
f 121 163 164
f 121 164 157
f 122 125 165
f 122 165 123
f 123 165 162
f 124 126 166
f 124 166 167
f 124 167 168
f 124 168 125
f 125 168 165
f 126 153 166
f 127 128 129
f 128 161 169
f 128 169 129
f 129 170 171
f 129 171 172
f 129 172 130
f 129 169 170
f 130 172 173
f 130 173 131
f 131 173 174
f 131 174 132
f 132 174 133
f 133 135 134
f 133 174 175
f 133 175 176
f 133 176 135
f 135 176 136
f 136 176 177
f 136 177 147
f 136 147 137
f 137 147 145
f 138 178 179
f 138 179 180
f 138 180 140
f 138 139 178
f 139 148 187
f 139 187 221
f 139 221 220
f 139 220 217
f 139 217 181
f 139 181 182
f 139 182 178
f 140 183 154
f 140 154 143
f 140 143 142
f 140 142 141
f 140 180 184
f 140 184 183
f 146 147 176
f 146 176 175
f 146 175 185
f 146 185 186
f 146 186 148
f 147 177 176
f 148 186 188
f 148 188 189
f 148 189 190
f 148 190 182
f 148 182 187
f 149 191 151
f 149 150 191
f 150 192 191
f 150 156 192
f 151 191 152
f 152 191 193
f 152 193 194
f 152 194 153
f 153 194 195
f 153 195 166
f 154 183 196
f 154 196 197
f 154 197 198
f 154 198 155
f 155 198 156
f 156 199 192
f 156 198 199
f 157 164 200
f 157 200 201
f 157 201 158
f 158 202 159
f 158 201 202
f 159 202 160
f 160 202 203
f 160 203 169
f 160 169 161
f 162 165 168
f 162 168 204
f 162 204 163
f 163 204 205
f 163 205 206
f 163 206 207
f 163 207 164
f 164 207 200
f 166 195 208
f 166 208 209
f 166 209 167
f 167 210 204
f 167 204 168
f 167 209 210
f 169 203 170
f 170 203 211
f 170 211 171
f 171 211 212
f 171 212 172
f 172 212 186
f 172 186 173
f 173 186 185
f 173 185 174
f 174 185 175
f 178 182 213
f 178 213 214
f 178 214 215
f 178 215 216
f 178 216 196
f 178 196 183
f 178 183 179
f 179 183 180
f 180 183 184
f 181 217 182
f 182 190 218
f 182 218 219
f 182 219 213
f 182 217 220
f 182 220 221
f 182 221 187
f 186 212 188
f 188 212 211
f 188 211 189
f 189 211 222
f 189 222 203
f 189 203 202
f 189 202 201
f 189 201 190
f 190 201 223
f 190 223 218
f 191 192 193
f 192 199 193
f 193 199 224
f 193 224 225
f 193 225 226
f 193 226 227
f 193 227 194
f 194 228 195
f 194 227 228
f 195 228 208
f 196 216 229
f 196 229 230
f 196 230 197
f 197 230 231
f 197 231 232
f 197 232 233
f 197 233 198
f 198 233 224
f 198 224 199
f 200 207 201
f 201 207 223
f 203 222 211
f 204 210 234
f 204 234 205
f 205 234 235
f 205 235 206
f 206 223 207
f 206 235 236
f 206 236 223
f 208 234 209
f 208 228 237
f 208 237 238
f 208 238 235
f 208 235 234
f 209 234 210
f 213 219 239
f 213 239 240
f 213 240 241
f 213 241 242
f 213 242 214
f 214 242 243
f 214 243 244
f 214 244 215
f 215 244 231
f 215 231 216
f 216 231 229
f 218 245 246
f 218 246 219
f 218 223 236
f 218 236 245
f 219 246 247
f 219 247 239
f 224 233 225
f 225 233 242
f 225 242 248
f 225 248 249
f 225 249 226
f 226 250 228
f 226 228 227
f 226 249 250
f 228 250 237
f 229 231 230
f 231 244 243
f 231 243 232
f 232 243 242
f 232 242 233
f 235 238 236
f 236 238 245
f 237 250 251
f 237 251 252
f 237 252 238
f 238 252 245
f 239 247 241
f 239 241 240
f 241 247 253
f 241 253 248
f 241 248 242
f 245 252 251
f 245 251 246
f 246 251 247
f 247 251 253
f 248 254 249
f 248 253 254
f 249 254 251
f 249 251 250
f 251 254 253
