v -0.075455 -0.018859 0.070668
v -0.075308 -0.020404 0.070162
v -0.075206 -0.021918 0.070878
v -0.075224 -0.020861 0.072110
v -0.075338 -0.019378 0.072027
v -0.075425 -0.015319 0.071285
v -0.075380 -0.013718 0.070668
v -0.075248 -0.015269 0.069532
v -0.075023 -0.019115 0.069246
v -0.074796 -0.024007 0.069639
v -0.075047 -0.023488 0.070668
v -0.075011 -0.023488 0.071698
v -0.074400 -0.024201 0.073322
v -0.075242 -0.016757 0.072763
v -0.075209 -0.014750 0.072685
v -0.075092 -0.012573 0.072582
v -0.075026 -0.009596 0.071182
v -0.075101 -0.011391 0.070020
v -0.074553 -0.009339 0.069300
v -0.074927 -0.013718 0.069191
v -0.074969 -0.017020 0.069119
v -0.074478 -0.022975 0.068826
v -0.074223 -0.025289 0.069037
v -0.073732 -0.029674 0.069638
v -0.074223 -0.027822 0.070055
v -0.074550 -0.026590 0.071182
v -0.074811 -0.025039 0.071182
v -0.074226 -0.027816 0.072082
v -0.074112 -0.026377 0.073240
v -0.073438 -0.024526 0.074501
v -0.073959 -0.021943 0.074265
v -0.074640 -0.018346 0.073751
v -0.073357 -0.027453 0.074068
v -0.074550 -0.013205 0.073703
v -0.074484 -0.009496 0.073142
v -0.074265 -0.006487 0.072309
v -0.074631 -0.007538 0.071182
v -0.074010 -0.005330 0.069935
v -0.074304 -0.007894 0.069277
v -0.074559 -0.012179 0.068800
v -0.074133 -0.020917 0.068512
v -0.073684 -0.022975 0.068342
v -0.073591 -0.027610 0.068726
v -0.073009 -0.031000 0.069003
v -0.073042 -0.032332 0.069889
v -0.073753 -0.030187 0.071182
v -0.073036 -0.032332 0.072137
v -0.073324 -0.029680 0.073375
v -0.072989 -0.026071 0.074617
v -0.072338 -0.023894 0.075195
v -0.072719 -0.022462 0.075097
v -0.073855 -0.019860 0.074519
v -0.074259 -0.016501 0.074189
v -0.072227 -0.031031 0.074348
v -0.074256 -0.014962 0.074130
v -0.073929 -0.011660 0.074237
v -0.073477 -0.010115 0.074498
v -0.073033 -0.005542 0.074130
v -0.073627 -0.004329 0.072860
v -0.073156 -0.001902 0.072138
v -0.073666 -0.003416 0.071182
v -0.073219 -0.001958 0.070320
v -0.073312 -0.003297 0.069402
v -0.073573 -0.006506 0.068774
v -0.074070 -0.010628 0.068627
v -0.073684 -0.012179 0.068338
v -0.073929 -0.016119 0.068393
v -0.073684 -0.019378 0.068262
v -0.072656 -0.027610 0.068236
v -0.073036 -0.029161 0.068591
v -0.071838 -0.033195 0.068504
v -0.071955 -0.034559 0.069124
v -0.071256 -0.036323 0.069058
v -0.071316 -0.037279 0.070491
v -0.072069 -0.035447 0.071182
v -0.072668 -0.033783 0.071182
v -0.071706 -0.035841 0.072723
v -0.072155 -0.034327 0.072973
v -0.071622 -0.030699 0.074809
v -0.071913 -0.029267 0.074832
v -0.069881 -0.031325 0.075350
v -0.070594 -0.025039 0.075442
v -0.071622 -0.019378 0.075399
v -0.072260 -0.015450 0.075283
v -0.073297 -0.018090 0.074893
v -0.071143 -0.036191 0.073560
v -0.071658 -0.032870 0.074295
v -0.070819 -0.035078 0.074407
v -0.072656 -0.009596 0.074933
v -0.072656 -0.008051 0.074798
v -0.072656 -0.011147 0.075050
v -0.072015 -0.004191 0.074678
v -0.071895 -0.002484 0.074401
v -0.072320 -0.000507 0.073181
v -0.072785 -0.000507 0.071182
v -0.072482 -0.001270 0.069093
v -0.072842 -0.004961 0.068564
v -0.073684 -0.009083 0.068534
v -0.072656 -0.007538 0.068318
v -0.070088 -0.035359 0.068090
v -0.068688 -0.016964 0.068078
v -0.069770 -0.038274 0.068565
v -0.070025 -0.039613 0.069463
v -0.070321 -0.039462 0.071129
v -0.071050 -0.037630 0.072235
v -0.070196 -0.039043 0.073057
v -0.068913 -0.035228 0.075301
v -0.067505 -0.035841 0.075445
v -0.070594 -0.021423 0.075441
v -0.070594 -0.012179 0.075426
v -0.071994 -0.011147 0.075277
v -0.069749 -0.037598 0.074391
v -0.068200 -0.037092 0.075301
v -0.071697 -0.007563 0.075198
v -0.070879 -0.005205 0.075271
v -0.069584 -0.000170 0.075216
v -0.070978 -0.000507 0.074612
v -0.071122 -0.000338 0.068461
v -0.071622 -0.002384 0.068339
v -0.068667 -0.018615 0.068078
v -0.068580 -0.020160 0.068078
v -0.068425 -0.021949 0.068078
v -0.068146 -0.024126 0.068078
v -0.067774 -0.026177 0.068078
v -0.067454 -0.027610 0.068078
v -0.066986 -0.029423 0.068078
v -0.066408 -0.031281 0.068078
v -0.057097 -0.047200 0.068073
v -0.055368 -0.049020 0.068073
v -0.061014 -0.049958 0.068171
v -0.065017 -0.045855 0.068437
v -0.067034 -0.042884 0.068489
v -0.068715 -0.040369 0.068580
v -0.065521 -0.000170 0.068244
v -0.065629 -0.016964 0.068078
v -0.053420 -0.046587 0.068073
v -0.066633 -0.044404 0.068756
v -0.067891 -0.043722 0.070064
v -0.069318 -0.041358 0.070807
v -0.068143 -0.043440 0.071934
v -0.068976 -0.041627 0.072844
v -0.067427 -0.043428 0.073706
v -0.068535 -0.001871 0.075431
v -0.066666 -0.038418 0.075423
v -0.065446 -0.039963 0.075439
v -0.048536 -0.057639 0.075405
v -0.069935 -0.003935 0.075366
v -0.067511 -0.041902 0.074443
v -0.068625 -0.039531 0.074524
v -0.066794 -0.040069 0.075310
v -0.068143 -0.000345 0.075413
v -0.066117 -0.000170 0.075159
v -0.049989 -0.053542 0.068073
v -0.048029 -0.054874 0.068073
v -0.054127 -0.056438 0.068244
v -0.055767 -0.055412 0.068269
v -0.057214 -0.054380 0.068282
v -0.059270 -0.052316 0.068266
v -0.060292 -0.051297 0.068272
v -0.062371 -0.049764 0.068529
v -0.063663 -0.048444 0.068689
v -0.062096 -0.000170 0.068488
v -0.044841 -0.053254 0.068073
v -0.065587 -0.047012 0.069709
v -0.064942 -0.048225 0.070667
v -0.067061 -0.045229 0.071182
v -0.066177 -0.046455 0.071903
v -0.066522 -0.045286 0.073271
v -0.064709 -0.046324 0.074443
v -0.065620 -0.044666 0.074590
v -0.045509 -0.058946 0.075389
v -0.064433 -0.042552 0.075385
v -0.053097 -0.054380 0.075399
v -0.052066 -0.055412 0.075396
v -0.053016 -0.055375 0.075340
v -0.046621 -0.060285 0.075132
v -0.044850 -0.061085 0.075125
v -0.065056 -0.043090 0.075268
v -0.064064 -0.000170 0.074025
v -0.044841 -0.056757 0.075030
v -0.046603 -0.055744 0.068073
v -0.044841 -0.056713 0.068073
v -0.045887 -0.061586 0.068297
v -0.050001 -0.059528 0.068311
v -0.053097 -0.057464 0.068284
v -0.055557 -0.056826 0.068783
v -0.058706 -0.054449 0.068989
v -0.061388 -0.051703 0.068949
v -0.062227 -0.000170 0.070127
v -0.044841 -0.053617 0.071723
v -0.044841 -0.053336 0.070152
v -0.061874 -0.051860 0.070350
v -0.063459 -0.050027 0.071440
v -0.064984 -0.048019 0.072099
v -0.064903 -0.047663 0.073190
v -0.063333 -0.046105 0.075143
v -0.063594 -0.048082 0.074272
v -0.061706 -0.050396 0.074324
v -0.061832 -0.048982 0.074842
v -0.062473 -0.046662 0.075240
v -0.054589 -0.055087 0.075138
v -0.052464 -0.056745 0.075125
v -0.048775 -0.059146 0.075099
v -0.050325 -0.058984 0.074774
v -0.046681 -0.061942 0.074204
v -0.044844 -0.063068 0.073952
v -0.063986 -0.044754 0.075239
v -0.062779 -0.000170 0.072304
v -0.044841 -0.055375 0.074257
v -0.044889 -0.064069 0.070051
v -0.045626 -0.063062 0.068937
v -0.047274 -0.061786 0.068614
v -0.048973 -0.060960 0.068654
v -0.052365 -0.058927 0.068690
v -0.050370 -0.060598 0.068961
v -0.051682 -0.060128 0.069373
v -0.054574 -0.057852 0.069124
v -0.057235 -0.055881 0.069199
v -0.058865 -0.054999 0.070321
v -0.060507 -0.052791 0.069207
v -0.044841 -0.054349 0.073146
v -0.062129 -0.051572 0.071844
v -0.060286 -0.053598 0.070490
v -0.060660 -0.053192 0.071862
v -0.061889 -0.051353 0.073235
v -0.063339 -0.049501 0.073318
v -0.059500 -0.053705 0.073419
v -0.059704 -0.052372 0.074427
v -0.060199 -0.050946 0.074769
v -0.057544 -0.054130 0.074521
v -0.054673 -0.056576 0.074511
v -0.053136 -0.057526 0.074593
v -0.050708 -0.059985 0.073961
v -0.046123 -0.063099 0.073186
v -0.049234 -0.060841 0.073921
v -0.045140 -0.063919 0.072211
v -0.046348 -0.063475 0.070474
v -0.048578 -0.062042 0.069488
v -0.050825 -0.060985 0.070252
v -0.053426 -0.059296 0.070432
v -0.056231 -0.056988 0.069637
v -0.059659 -0.054261 0.071698
v -0.057634 -0.056100 0.070595
v -0.058383 -0.055168 0.072595
v -0.057160 -0.056050 0.073111
v -0.054268 -0.057983 0.073477
v -0.052072 -0.058990 0.074046
v -0.051985 -0.059985 0.072861
v -0.048128 -0.062074 0.073151
v -0.050846 -0.060979 0.071848
v -0.048365 -0.062430 0.071182
v -0.052222 -0.060147 0.071182
v -0.055086 -0.058096 0.071182
v -0.055842 -0.057001 0.073185
v -0.053432 -0.059115 0.072431
f 1 2 3
f 1 3 4
f 1 4 5
f 1 5 6
f 1 6 7
f 1 7 8
f 1 8 2
f 2 8 9
f 2 9 10
f 2 10 11
f 2 11 3
f 3 11 12
f 3 12 4
f 4 12 13
f 4 13 14
f 4 14 5
f 5 14 6
f 6 14 15
f 6 15 16
f 6 16 7
f 7 16 17
f 7 17 18
f 7 18 8
f 8 18 19
f 8 19 20
f 8 20 21
f 8 21 9
f 9 22 10
f 9 21 22
f 10 22 23
f 10 23 24
f 10 24 25
f 10 25 11
f 11 25 26
f 11 26 27
f 11 27 12
f 12 27 26
f 12 26 28
f 12 28 29
f 12 29 13
f 13 30 31
f 13 31 32
f 13 32 14
f 13 29 33
f 13 33 30
f 14 34 15
f 14 32 34
f 15 34 16
f 16 34 35
f 16 35 36
f 16 36 17
f 17 36 37
f 17 37 38
f 17 38 18
f 18 38 39
f 18 39 19
f 19 39 40
f 19 40 20
f 20 40 21
f 21 40 41
f 21 41 22
f 22 42 43
f 22 43 23
f 22 41 42
f 23 43 24
f 24 44 45
f 24 45 46
f 24 46 25
f 24 43 44
f 25 46 26
f 26 46 28
f 28 46 47
f 28 47 48
f 28 48 29
f 29 48 33
f 30 33 49
f 30 49 50
f 30 50 51
f 30 51 52
f 30 52 31
f 31 52 32
f 32 52 53
f 32 53 34
f 33 48 54
f 33 54 49
f 34 53 55
f 34 55 56
f 34 56 35
f 35 56 57
f 35 57 58
f 35 58 59
f 35 59 36
f 36 59 60
f 36 60 61
f 36 61 37
f 37 61 38
f 38 61 62
f 38 62 63
f 38 63 39
f 39 63 64
f 39 64 40
f 40 65 66
f 40 66 67
f 40 67 41
f 40 64 65
f 41 68 42
f 41 67 68
f 42 68 69
f 42 69 43
f 43 69 70
f 43 70 44
f 44 70 71
f 44 71 72
f 44 72 45
f 45 72 73
f 45 73 74
f 45 74 75
f 45 75 76
f 45 76 46
f 46 76 47
f 47 76 77
f 47 77 78
f 47 78 48
f 48 78 54
f 49 54 79
f 49 79 80
f 49 80 50
f 50 80 79
f 50 79 81
f 50 81 82
f 50 82 83
f 50 83 84
f 50 84 51
f 51 85 52
f 51 84 85
f 52 85 53
f 53 57 56
f 53 56 55
f 53 85 57
f 54 78 86
f 54 86 87
f 54 87 88
f 54 88 79
f 57 89 90
f 57 90 58
f 57 85 91
f 57 91 89
f 58 92 93
f 58 93 94
f 58 94 59
f 58 90 92
f 59 94 60
f 60 94 95
f 60 95 61
f 61 95 62
f 62 95 96
f 62 96 63
f 63 96 64
f 64 96 97
f 64 97 98
f 64 98 65
f 65 98 66
f 66 98 99
f 66 99 68
f 66 68 67
f 68 100 69
f 68 99 101
f 68 101 100
f 69 100 71
f 69 71 70
f 71 100 102
f 71 102 73
f 71 73 72
f 73 102 103
f 73 103 74
f 74 103 104
f 74 104 105
f 74 105 75
f 75 77 76
f 75 105 77
f 77 105 106
f 77 106 86
f 77 86 78
f 79 88 107
f 79 107 81
f 81 107 108
f 81 108 82
f 82 109 83
f 82 108 109
f 83 109 110
f 83 110 111
f 83 111 84
f 84 111 91
f 84 91 85
f 86 106 112
f 86 112 88
f 86 88 87
f 88 112 113
f 88 113 107
f 89 91 114
f 89 114 90
f 90 114 92
f 91 111 114
f 92 114 115
f 92 115 116
f 92 116 117
f 92 117 93
f 93 117 94
f 94 117 116
f 94 116 95
f 95 116 118
f 95 118 96
f 96 118 119
f 96 119 97
f 97 119 98
f 98 119 99
f 99 119 101
f 100 101 120
f 100 120 121
f 100 121 122
f 100 122 123
f 100 123 124
f 100 124 125
f 100 125 126
f 100 126 127
f 100 127 128
f 100 128 129
f 100 129 130
f 100 130 131
f 100 131 132
f 100 132 133
f 100 133 102
f 101 119 134
f 101 134 135
f 101 135 136
f 101 136 128
f 101 128 120
f 102 133 103
f 103 133 137
f 103 137 138
f 103 138 139
f 103 139 104
f 104 139 140
f 104 140 141
f 104 141 105
f 105 141 106
f 106 141 142
f 106 142 112
f 107 113 108
f 108 143 109
f 108 113 144
f 108 144 145
f 108 145 146
f 108 146 143
f 109 143 110
f 110 143 147
f 110 147 111
f 111 147 115
f 111 115 114
f 112 142 148
f 112 148 149
f 112 149 113
f 113 149 150
f 113 150 144
f 115 147 116
f 116 151 152
f 116 152 179
f 116 179 208
f 116 208 189
f 116 189 162
f 116 162 134
f 116 134 118
f 116 147 151
f 118 134 119
f 120 128 121
f 121 128 122
f 122 128 123
f 123 128 124
f 124 128 125
f 125 128 126
f 126 128 127
f 128 136 163
f 128 163 182
f 128 182 181
f 128 181 154
f 128 154 153
f 128 153 129
f 129 153 130
f 130 153 154
f 130 154 155
f 130 155 156
f 130 156 157
f 130 157 158
f 130 158 159
f 130 159 160
f 130 160 131
f 131 137 132
f 131 160 161
f 131 161 137
f 132 137 133
f 134 162 163
f 134 163 135
f 135 163 136
f 137 161 164
f 137 164 138
f 138 164 165
f 138 165 166
f 138 166 139
f 139 166 140
f 140 166 167
f 140 167 168
f 140 168 141
f 141 168 142
f 142 168 169
f 142 169 170
f 142 170 148
f 143 151 147
f 143 146 171
f 143 171 151
f 144 150 172
f 144 172 145
f 145 172 173
f 145 173 146
f 146 173 174
f 146 174 175
f 146 175 176
f 146 176 177
f 146 177 171
f 148 170 150
f 148 150 149
f 150 170 178
f 150 178 172
f 151 171 152
f 152 171 180
f 152 180 179
f 154 181 155
f 155 181 182
f 155 182 183
f 155 183 184
f 155 184 185
f 155 185 156
f 156 185 157
f 157 185 186
f 157 186 187
f 157 187 158
f 158 188 159
f 158 187 188
f 159 188 160
f 160 188 161
f 161 188 164
f 162 189 190
f 162 190 191
f 162 191 163
f 163 191 190
f 163 190 221
f 163 221 209
f 163 209 180
f 163 180 182
f 164 188 192
f 164 192 165
f 165 193 194
f 165 194 167
f 165 167 166
f 165 192 193
f 167 194 195
f 167 195 168
f 168 195 169
f 169 196 170
f 169 195 197
f 169 197 198
f 169 198 199
f 169 199 196
f 170 196 178
f 171 177 180
f 172 178 200
f 172 200 175
f 172 175 173
f 173 175 174
f 175 200 201
f 175 201 202
f 175 202 203
f 175 203 176
f 176 203 204
f 176 204 205
f 176 205 177
f 177 205 206
f 177 206 180
f 178 196 207
f 178 207 200
f 179 180 208
f 180 206 182
f 180 209 208
f 182 206 210
f 182 210 211
f 182 211 183
f 183 211 212
f 183 212 184
f 184 212 213
f 184 213 214
f 184 214 185
f 185 214 186
f 186 214 215
f 186 215 216
f 186 216 217
f 186 217 218
f 186 218 187
f 187 218 219
f 187 219 220
f 187 220 188
f 188 220 192
f 189 208 221
f 189 221 190
f 192 222 193
f 192 220 223
f 192 223 224
f 192 224 222
f 193 222 194
f 194 222 225
f 194 225 195
f 195 225 226
f 195 226 197
f 196 199 200
f 196 200 207
f 197 226 198
f 198 225 227
f 198 227 228
f 198 228 199
f 198 226 225
f 199 228 229
f 199 229 200
f 200 229 201
f 201 230 231
f 201 231 202
f 201 229 230
f 202 231 232
f 202 232 204
f 202 204 203
f 204 233 205
f 204 232 233
f 205 234 206
f 205 233 235
f 205 235 234
f 206 234 236
f 206 236 210
f 208 209 221
f 210 236 237
f 210 237 238
f 210 238 211
f 211 238 215
f 211 215 213
f 211 213 212
f 213 215 214
f 215 238 216
f 216 238 239
f 216 239 240
f 216 240 241
f 216 241 217
f 217 241 218
f 218 241 219
f 219 242 223
f 219 223 220
f 219 241 243
f 219 243 242
f 222 224 225
f 223 242 224
f 224 242 244
f 224 244 227
f 224 227 225
f 227 244 245
f 227 245 230
f 227 230 228
f 228 230 229
f 230 245 231
f 231 245 246
f 231 246 247
f 231 247 232
f 232 247 233
f 233 248 249
f 233 249 235
f 233 247 246
f 233 246 248
f 234 235 249
f 234 249 236
f 236 249 250
f 236 250 251
f 236 251 237
f 237 251 239
f 237 239 238
f 239 251 250
f 239 250 252
f 239 252 240
f 240 252 253
f 240 253 243
f 240 243 241
f 242 243 244
f 243 253 244
f 244 253 245
f 245 254 246
f 245 253 255
f 245 255 254
f 246 254 248
f 248 255 250
f 248 250 249
f 248 254 255
f 250 255 252
f 252 255 253
