v -0.001682 0.000175 0.042944
v -0.004888 0.000175 0.043708
v -0.002973 -0.001883 0.043526
v -0.004542 -0.007736 0.043921
v -0.001682 -0.007736 0.040380
v -0.001682 0.000175 0.004839
v -0.040628 -0.000584 0.043326
v -0.006533 -0.001577 0.043913
v -0.044479 0.000175 0.033158
v -0.042948 -0.000088 0.038676
v -0.006284 -0.004442 0.043921
v -0.038553 -0.005586 0.043800
v -0.037933 -0.007409 0.043370
v -0.040607 -0.007601 0.037529
v -0.029163 -0.007694 0.004622
v -0.003728 -0.007575 0.004874
v -0.002167 -0.007315 0.005921
v -0.002973 -0.006002 0.004974
v -0.003972 -0.005014 0.004083
v -0.005529 -0.004657 0.003079
v -0.006284 -0.003449 0.002518
v -0.006735 -0.002043 0.002214
v -0.007946 -0.001885 0.001610
v -0.008515 -0.000351 0.001389
v -0.010958 0.000051 0.000459
v -0.033444 0.000175 0.004765
v -0.041391 -0.000547 0.041966
v -0.041265 -0.001755 0.041566
v -0.040350 -0.002598 0.042761
v -0.039202 -0.004486 0.043504
v -0.044327 0.000154 0.022772
v -0.044774 -0.000072 0.026579
v -0.044644 -0.000072 0.031754
v -0.044201 -0.001037 0.032971
v -0.044184 -0.000055 0.034340
v -0.043302 -0.000474 0.037321
v -0.042619 -0.001322 0.038668
v -0.042189 -0.000477 0.040297
v -0.043779 -0.000234 0.035839
v -0.038996 -0.006414 0.042405
v -0.038873 -0.007462 0.041675
v -0.039658 -0.007138 0.040428
v -0.040489 -0.006606 0.039076
v -0.041244 -0.005931 0.037890
v -0.041489 -0.006310 0.036660
v -0.041164 -0.007465 0.036000
v -0.041737 -0.007510 0.033475
v -0.042260 -0.007468 0.028951
v -0.041075 -0.007460 0.020339
v -0.035798 -0.007603 0.010484
v -0.029555 -0.006095 0.004113
v -0.027990 -0.007211 0.003766
v -0.026113 -0.007464 0.003022
v -0.024953 -0.007602 0.002636
v -0.034807 -0.007582 0.009358
v -0.031357 -0.007486 0.006025
v -0.030450 -0.007220 0.005204
v -0.012396 -0.007471 0.001328
v -0.005200 -0.007522 0.003970
v -0.004377 -0.006289 0.004083
v -0.005579 -0.006354 0.003405
v -0.007613 -0.004725 0.002058
v -0.008671 -0.003706 0.001458
v -0.009422 -0.001887 0.000998
v -0.009599 -0.000617 0.000924
v -0.011088 -0.001259 0.000428
v -0.012396 -0.000072 0.000055
v -0.026885 -0.000011 0.001345
v -0.028433 0.000051 0.001962
v -0.031715 -0.000508 0.003718
v -0.033305 -0.001369 0.005008
v -0.034440 -0.000072 0.005578
v -0.036595 -0.000033 0.007516
v -0.043176 0.000051 0.019140
v -0.039949 -0.003833 0.042692
v -0.041670 -0.002352 0.040276
v -0.040835 -0.003991 0.040854
v -0.043602 -0.000013 0.020413
v -0.043889 -0.000515 0.021716
v -0.043842 -0.001507 0.022546
v -0.044302 -0.001284 0.024680
v -0.044492 -0.000066 0.024015
v -0.044669 -0.000072 0.025323
v -0.044720 -0.000446 0.029177
v -0.044437 -0.001400 0.026557
v -0.044703 -0.000508 0.027835
v -0.044665 -0.000508 0.030494
v -0.043965 -0.002196 0.032232
v -0.043631 -0.002053 0.034262
v -0.043205 -0.001908 0.036243
v -0.042741 -0.002196 0.037555
v -0.041965 -0.003797 0.038225
v -0.039991 -0.005583 0.041253
v -0.040548 -0.005491 0.040145
v -0.041202 -0.004898 0.039185
v -0.042113 -0.004750 0.036678
v -0.042037 -0.005773 0.035513
v -0.041552 -0.007336 0.034744
v -0.042505 -0.005678 0.033575
v -0.041961 -0.007449 0.032254
v -0.042227 -0.007324 0.030364
v -0.043020 -0.005505 0.030120
v -0.042678 -0.006580 0.028161
v -0.042336 -0.007296 0.027222
v -0.042151 -0.007408 0.025510
v -0.041623 -0.007297 0.022138
v -0.041708 -0.005906 0.020222
v -0.041126 -0.006265 0.018796
v -0.040080 -0.007455 0.017462
v -0.035781 -0.006164 0.009515
v -0.038363 -0.007481 0.014055
v -0.037135 -0.007447 0.012074
v -0.036739 -0.006758 0.011048
v -0.031150 -0.005730 0.004978
v -0.030964 -0.004245 0.004257
v -0.029446 -0.004245 0.003379
v -0.028602 -0.005628 0.003414
v -0.027345 -0.005971 0.002944
v -0.025540 -0.006387 0.002384
v -0.023903 -0.007121 0.002093
v -0.021996 -0.007234 0.001588
v -0.020714 -0.007488 0.001406
v -0.034701 -0.006463 0.008519
v -0.033499 -0.007340 0.007876
v -0.032997 -0.005606 0.006373
v -0.010823 -0.007443 0.001684
v -0.018584 -0.007420 0.001071
v -0.016627 -0.007371 0.000924
v -0.013644 -0.007286 0.001063
v -0.011822 -0.005919 0.000967
v -0.006676 -0.007395 0.003179
v -0.007305 -0.006276 0.002544
v -0.008709 -0.005497 0.001771
v -0.010186 -0.003521 0.000889
v -0.011459 -0.002504 0.000420
v -0.012708 -0.001494 0.000046
v -0.014066 -0.000290 -0.000258
v -0.015901 -0.000290 -0.000436
v -0.019137 -0.000505 -0.000402
v -0.021090 -0.000539 -0.000189
v -0.023772 -0.000448 0.000376
v -0.025114 -0.000304 0.000759
v -0.026122 -0.001599 0.001323
v -0.028408 -0.001426 0.002210
v -0.029969 -0.000642 0.002775
v -0.031150 -0.002125 0.003731
v -0.032732 -0.002909 0.005039
v -0.034381 -0.001698 0.005960
v -0.035435 -0.000446 0.006525
v -0.035490 -0.001819 0.007025
v -0.037013 -0.001568 0.008559
v -0.037785 -0.000100 0.008928
v -0.040607 -0.000282 0.013291
v -0.041746 -0.000225 0.015581
v -0.042311 -0.000590 0.017193
v -0.042564 -0.002296 0.019074
v -0.043235 -0.001322 0.020269
v -0.043096 -0.003050 0.021425
v -0.043619 -0.002946 0.023524
v -0.043589 -0.003782 0.025101
v -0.044365 -0.001822 0.028473
v -0.043952 -0.003102 0.026909
v -0.044235 -0.001990 0.030429
v -0.043762 -0.003134 0.031481
v -0.043188 -0.004021 0.033223
v -0.042792 -0.003806 0.035400
v -0.042581 -0.003256 0.036938
v -0.043281 -0.004463 0.031633
v -0.042551 -0.006297 0.031607
v -0.043572 -0.004029 0.030355
v -0.043399 -0.004713 0.028630
v -0.043020 -0.005698 0.027222
v -0.043007 -0.005429 0.025579
v -0.042564 -0.005930 0.023767
v -0.041999 -0.007031 0.023298
v -0.042665 -0.004698 0.021977
v -0.041885 -0.004581 0.019109
v -0.042400 -0.004133 0.020282
v -0.041349 -0.005201 0.018201
v -0.040472 -0.006072 0.016858
v -0.039557 -0.007062 0.015902
v -0.036431 -0.004506 0.009310
v -0.035292 -0.004900 0.008237
v -0.036857 -0.005567 0.010427
v -0.039476 -0.006041 0.014807
v -0.038675 -0.005686 0.013099
v -0.038110 -0.006826 0.013069
v -0.037785 -0.006104 0.012004
v -0.032597 -0.004592 0.005565
v -0.029606 -0.002619 0.003014
v -0.028168 -0.003230 0.002492
v -0.026556 -0.004869 0.002266
v -0.024439 -0.005442 0.001688
v -0.023194 -0.005521 0.001319
v -0.022005 -0.005548 0.001002
v -0.020630 -0.005800 0.000806
v -0.019052 -0.006280 0.000737
v -0.034229 -0.005443 0.007429
v -0.034039 -0.004281 0.006677
v -0.010654 -0.005541 0.001154
v -0.009743 -0.006344 0.001641
v -0.008785 -0.007136 0.002214
v -0.017407 -0.005776 0.000454
v -0.014910 -0.006840 0.000793
v -0.016158 -0.005794 0.000437
v -0.013223 -0.005270 0.000541
v -0.011772 -0.004323 0.000602
v -0.012873 -0.003130 0.000185
v -0.014712 -0.001809 -0.000237
v -0.016142 -0.001870 -0.000337
v -0.017390 -0.000508 -0.000471
v -0.017403 -0.001870 -0.000354
v -0.018820 -0.001875 -0.000293
v -0.022490 -0.000662 0.000094
v -0.020697 -0.001887 -0.000084
v -0.023654 -0.002198 0.000611
v -0.024772 -0.002793 0.001084
v -0.026096 -0.003621 0.001749
v -0.034233 -0.003050 0.006325
v -0.035925 -0.003131 0.008024
v -0.036794 -0.003290 0.009093
v -0.037709 -0.002581 0.009880
v -0.038122 -0.001301 0.009836
v -0.039080 -0.000252 0.010753
v -0.039966 -0.000315 0.012178
v -0.039970 -0.001845 0.012943
v -0.040603 -0.001976 0.014151
v -0.041164 -0.000498 0.014464
v -0.041316 -0.001719 0.015429
v -0.041484 -0.002529 0.016345
v -0.041780 -0.003576 0.017875
v -0.043117 -0.004406 0.023442
v -0.043425 -0.004571 0.026592
v -0.043948 -0.003136 0.029021
v -0.041252 -0.003980 0.016837
v -0.040620 -0.004263 0.015633
v -0.037717 -0.003784 0.010501
v -0.037743 -0.004878 0.011148
v -0.039983 -0.004428 0.014499
v -0.039190 -0.004077 0.012856
v -0.024295 -0.004086 0.001245
v -0.022418 -0.004308 0.000750
v -0.021170 -0.004382 0.000502
v -0.019938 -0.004465 0.000328
v -0.018664 -0.004541 0.000207
v -0.017188 -0.003668 -0.000054
v -0.016175 -0.004323 0.000076
v -0.015028 -0.004839 0.000241
v -0.014277 -0.003136 -0.000028
v -0.015534 -0.003136 -0.000132
v -0.019128 -0.003136 -0.000067
v -0.022389 -0.002694 0.000380
v -0.020537 -0.003271 0.000137
v -0.038785 -0.002923 0.011566
v -0.039000 -0.001568 0.011218
v -0.040210 -0.003160 0.014103
f 1 2 3
f 1 3 4
f 1 4 5
f 1 5 6
f 1 6 26
f 1 26 9
f 1 9 2
f 2 7 8
f 2 8 4
f 2 4 3
f 2 9 10
f 2 10 7
f 4 8 11
f 4 11 12
f 4 12 13
f 4 13 14
f 4 14 15
f 4 15 5
f 5 15 16
f 5 16 17
f 5 17 6
f 6 17 18
f 6 18 19
f 6 19 20
f 6 20 21
f 6 21 22
f 6 22 23
f 6 23 24
f 6 24 25
f 6 25 26
f 7 12 8
f 7 10 27
f 7 27 28
f 7 28 29
f 7 29 30
f 7 30 12
f 8 12 11
f 9 31 32
f 9 32 33
f 9 33 34
f 9 34 35
f 9 35 10
f 9 26 31
f 10 36 37
f 10 37 38
f 10 38 27
f 10 35 39
f 10 39 36
f 12 30 40
f 12 40 13
f 13 40 41
f 13 41 14
f 14 41 42
f 14 42 43
f 14 43 44
f 14 44 45
f 14 45 46
f 14 46 47
f 14 47 48
f 14 48 49
f 14 49 50
f 14 50 15
f 15 51 52
f 15 52 53
f 15 53 54
f 15 54 16
f 15 50 55
f 15 55 56
f 15 56 57
f 15 57 51
f 16 54 58
f 16 58 59
f 16 59 60
f 16 60 18
f 16 18 17
f 18 60 19
f 19 60 20
f 20 60 61
f 20 61 62
f 20 62 21
f 21 62 63
f 21 63 23
f 21 23 22
f 23 63 64
f 23 64 65
f 23 65 24
f 24 65 25
f 25 66 67
f 25 67 68
f 25 68 69
f 25 69 26
f 25 65 66
f 26 69 70
f 26 70 71
f 26 71 72
f 26 72 73
f 26 73 74
f 26 74 31
f 27 38 28
f 28 75 29
f 28 38 76
f 28 76 77
f 28 77 75
f 29 75 30
f 30 75 40
f 31 74 78
f 31 78 79
f 31 79 80
f 31 80 81
f 31 81 82
f 31 82 83
f 31 83 32
f 32 84 33
f 32 83 85
f 32 85 86
f 32 86 84
f 33 84 87
f 33 87 88
f 33 88 34
f 34 89 35
f 34 88 89
f 35 89 90
f 35 90 39
f 36 91 37
f 36 39 90
f 36 90 91
f 37 91 92
f 37 92 76
f 37 76 38
f 40 75 93
f 40 93 41
f 41 93 42
f 42 93 94
f 42 94 43
f 43 94 95
f 43 95 44
f 44 95 92
f 44 92 96
f 44 96 45
f 45 96 97
f 45 97 46
f 46 97 98
f 46 98 47
f 47 98 99
f 47 99 100
f 47 100 48
f 48 100 101
f 48 101 102
f 48 102 103
f 48 103 104
f 48 104 105
f 48 105 49
f 49 105 106
f 49 106 107
f 49 107 108
f 49 108 109
f 49 109 50
f 50 110 55
f 50 109 111
f 50 111 112
f 50 112 113
f 50 113 110
f 51 57 114
f 51 114 115
f 51 115 116
f 51 116 117
f 51 117 52
f 52 117 118
f 52 118 53
f 53 118 119
f 53 119 54
f 54 119 120
f 54 120 121
f 54 121 122
f 54 122 58
f 55 110 123
f 55 123 124
f 55 124 56
f 56 124 125
f 56 125 114
f 56 114 57
f 58 126 59
f 58 122 127
f 58 127 128
f 58 128 129
f 58 129 130
f 58 130 126
f 59 131 61
f 59 61 60
f 59 126 131
f 61 131 132
f 61 132 62
f 62 132 133
f 62 133 63
f 63 133 134
f 63 134 64
f 64 134 66
f 64 66 65
f 66 135 136
f 66 136 67
f 66 134 135
f 67 136 137
f 67 137 138
f 67 138 68
f 68 138 139
f 68 139 140
f 68 140 141
f 68 141 142
f 68 142 143
f 68 143 144
f 68 144 69
f 69 144 145
f 69 145 70
f 70 146 71
f 70 145 146
f 71 147 148
f 71 148 72
f 71 146 147
f 72 148 149
f 72 149 73
f 73 149 150
f 73 150 151
f 73 151 152
f 73 152 74
f 74 153 154
f 74 154 155
f 74 155 156
f 74 156 157
f 74 157 78
f 74 152 153
f 75 77 93
f 76 92 95
f 76 95 77
f 77 95 94
f 77 94 93
f 78 157 79
f 79 158 80
f 79 157 158
f 80 158 159
f 80 159 81
f 81 159 160
f 81 160 85
f 81 85 83
f 81 83 82
f 84 161 87
f 84 86 161
f 85 162 161
f 85 161 86
f 85 160 162
f 87 163 88
f 87 161 163
f 88 163 164
f 88 164 165
f 88 165 89
f 89 165 166
f 89 166 90
f 90 167 91
f 90 166 167
f 91 167 92
f 92 167 96
f 96 167 166
f 96 166 97
f 97 166 99
f 97 99 98
f 99 165 168
f 99 168 169
f 99 169 100
f 99 166 165
f 100 169 101
f 101 169 102
f 102 169 168
f 102 168 170
f 102 170 171
f 102 171 103
f 103 172 104
f 103 171 172
f 104 172 173
f 104 173 105
f 105 173 174
f 105 174 175
f 105 175 106
f 106 175 174
f 106 174 176
f 106 176 107
f 107 177 108
f 107 176 178
f 107 178 177
f 108 179 180
f 108 180 109
f 108 177 179
f 109 180 181
f 109 181 111
f 110 182 183
f 110 183 123
f 110 113 184
f 110 184 182
f 111 181 185
f 111 185 186
f 111 186 187
f 111 187 112
f 112 187 188
f 112 188 113
f 113 188 184
f 114 125 189
f 114 189 115
f 115 146 116
f 115 189 147
f 115 147 146
f 116 146 190
f 116 190 191
f 116 191 118
f 116 118 117
f 118 191 192
f 118 192 119
f 119 192 193
f 119 193 120
f 120 193 194
f 120 194 121
f 121 194 195
f 121 195 122
f 122 195 196
f 122 196 197
f 122 197 127
f 123 183 198
f 123 198 124
f 124 198 125
f 125 198 199
f 125 199 189
f 126 130 200
f 126 200 201
f 126 201 202
f 126 202 131
f 127 197 203
f 127 203 128
f 128 204 129
f 128 203 205
f 128 205 204
f 129 204 206
f 129 206 130
f 130 207 200
f 130 206 207
f 131 202 132
f 132 202 133
f 133 201 200
f 133 200 134
f 133 202 201
f 134 200 207
f 134 207 135
f 135 208 136
f 135 207 208
f 136 209 137
f 136 208 209
f 137 209 138
f 138 209 210
f 138 210 211
f 138 211 139
f 139 211 212
f 139 212 213
f 139 213 140
f 140 214 141
f 140 213 215
f 140 215 214
f 141 214 216
f 141 216 142
f 142 216 217
f 142 217 143
f 143 218 191
f 143 191 144
f 143 217 218
f 144 191 190
f 144 190 145
f 145 190 146
f 147 189 219
f 147 219 148
f 148 219 150
f 148 150 149
f 150 219 220
f 150 220 151
f 151 220 221
f 151 221 222
f 151 222 223
f 151 223 152
f 152 224 153
f 152 223 224
f 153 224 225
f 153 225 226
f 153 226 227
f 153 227 228
f 153 228 154
f 154 228 229
f 154 229 155
f 155 229 230
f 155 230 231
f 155 231 156
f 156 231 177
f 156 177 178
f 156 178 158
f 156 158 157
f 158 176 232
f 158 232 159
f 158 178 176
f 159 232 160
f 160 232 174
f 160 174 173
f 160 173 233
f 160 233 162
f 161 234 163
f 161 162 234
f 162 233 171
f 162 171 234
f 163 234 170
f 163 170 164
f 164 170 168
f 164 168 165
f 170 234 171
f 171 233 172
f 172 233 173
f 174 232 176
f 177 231 179
f 179 231 235
f 179 235 180
f 180 235 236
f 180 236 185
f 180 185 181
f 182 184 237
f 182 237 221
f 182 221 220
f 182 220 183
f 183 220 199
f 183 199 198
f 184 188 238
f 184 238 237
f 185 236 239
f 185 239 186
f 186 240 238
f 186 238 188
f 186 188 187
f 186 239 240
f 189 199 219
f 191 218 192
f 192 218 241
f 192 241 193
f 193 241 194
f 194 241 242
f 194 242 195
f 195 242 243
f 195 243 196
f 196 243 244
f 196 244 197
f 197 244 245
f 197 245 203
f 199 220 219
f 203 245 246
f 203 246 247
f 203 247 205
f 204 205 248
f 204 248 206
f 205 247 248
f 206 248 249
f 206 249 208
f 206 208 207
f 208 249 209
f 209 249 250
f 209 250 210
f 210 212 211
f 210 250 212
f 212 250 246
f 212 246 251
f 212 251 213
f 213 251 215
f 214 252 216
f 214 215 252
f 215 251 253
f 215 253 252
f 216 242 241
f 216 241 217
f 216 252 242
f 217 241 218
f 221 237 222
f 222 237 254
f 222 254 223
f 223 254 255
f 223 255 224
f 224 255 225
f 225 255 226
f 226 255 254
f 226 254 240
f 226 240 256
f 226 256 227
f 227 229 228
f 227 256 229
f 229 236 230
f 229 256 236
f 230 235 231
f 230 236 235
f 236 256 239
f 237 238 254
f 238 240 254
f 239 256 240
f 242 252 243
f 243 252 253
f 243 253 244
f 244 253 251
f 244 251 245
f 245 251 246
f 246 250 247
f 247 250 248
f 248 250 249
