v -0.006187 -0.004786 0.043923
v -0.006243 -0.004784 0.049465
v -0.004539 -0.007736 0.043923
v -0.038675 -0.005118 0.043943
v -0.038511 -0.004784 0.044418
v -0.006280 -0.004784 0.050090
v -0.006384 -0.004784 0.050743
v -0.006584 -0.004784 0.051375
v -0.006394 -0.007736 0.048838
v -0.037008 -0.007736 0.044566
v -0.037412 -0.007714 0.043975
v -0.037669 -0.007051 0.044106
v -0.038107 -0.006064 0.044173
v -0.038014 -0.005518 0.044687
v -0.038047 -0.004863 0.045047
v -0.037482 -0.004839 0.045856
v -0.037175 -0.004784 0.046298
v -0.006798 -0.004784 0.051851
v -0.006825 -0.007736 0.049843
v -0.035257 -0.007736 0.046905
v -0.036700 -0.007710 0.045036
v -0.036964 -0.007170 0.045068
v -0.037452 -0.006597 0.044778
v -0.037462 -0.005831 0.045290
v -0.037295 -0.005328 0.045823
v -0.036881 -0.005249 0.046419
v -0.036667 -0.004784 0.046950
v -0.007359 -0.004784 0.052740
v -0.007356 -0.007736 0.050765
v -0.033807 -0.007714 0.048507
v -0.034398 -0.007710 0.047893
v -0.034869 -0.007666 0.047402
v -0.035558 -0.007101 0.046953
v -0.035631 -0.007640 0.046525
v -0.036166 -0.007601 0.045874
v -0.032053 -0.007736 0.050083
v -0.036881 -0.006758 0.045483
v -0.036767 -0.006039 0.046095
v -0.036136 -0.006040 0.046896
v -0.036266 -0.005416 0.047091
v -0.036169 -0.004862 0.047515
v -0.035020 -0.004784 0.048863
v -0.007764 -0.004784 0.053156
v -0.008011 -0.005637 0.052905
v -0.007914 -0.007697 0.051532
v -0.008365 -0.007736 0.051963
v -0.033175 -0.007710 0.049122
v -0.033439 -0.007122 0.049213
v -0.033887 -0.007206 0.048729
v -0.034371 -0.007122 0.048279
v -0.034970 -0.007114 0.047626
v -0.035661 -0.006160 0.047392
v -0.035979 -0.006627 0.046736
v -0.036002 -0.007236 0.046329
v -0.036263 -0.007047 0.046117
v -0.031471 -0.007736 0.050544
v -0.032039 -0.007285 0.050337
v -0.032226 -0.006659 0.050517
v -0.032781 -0.007114 0.049809
v -0.032577 -0.007662 0.049684
v -0.036346 -0.006536 0.046329
v -0.035618 -0.004979 0.048107
v -0.034986 -0.005426 0.048578
v -0.034355 -0.005491 0.049199
v -0.034482 -0.004784 0.049420
v -0.008285 -0.004784 0.053596
v -0.008646 -0.006568 0.052899
v -0.008783 -0.007691 0.052359
v -0.009538 -0.007671 0.052935
v -0.010681 -0.007690 0.053577
v -0.012632 -0.007736 0.054364
v -0.033409 -0.006645 0.049500
v -0.033997 -0.005899 0.049340
v -0.034041 -0.006660 0.048883
v -0.034405 -0.006451 0.048627
v -0.034836 -0.006532 0.048118
v -0.035314 -0.005863 0.047968
v -0.029851 -0.007702 0.051732
v -0.030980 -0.007583 0.051005
v -0.031451 -0.007018 0.050946
v -0.027709 -0.007736 0.052985
v -0.032550 -0.006160 0.050504
v -0.032053 -0.006038 0.050974
v -0.032951 -0.006512 0.049979
v -0.034498 -0.005899 0.048836
v -0.034201 -0.006071 0.049045
v -0.033894 -0.005307 0.049737
v -0.034071 -0.004790 0.049816
v -0.033613 -0.004784 0.050241
v -0.009023 -0.004849 0.054127
v -0.008833 -0.005954 0.053383
v -0.009775 -0.004784 0.054615
v -0.009261 -0.006269 0.053534
v -0.009140 -0.007060 0.053000
v -0.009862 -0.006926 0.053550
v -0.010146 -0.007540 0.053376
v -0.010454 -0.006334 0.054197
v -0.010825 -0.006750 0.054155
v -0.011707 -0.007684 0.054051
v -0.011997 -0.006147 0.054943
v -0.012789 -0.007089 0.054742
v -0.013317 -0.007568 0.054666
v -0.014560 -0.007736 0.054891
v -0.033459 -0.005876 0.049856
v -0.028975 -0.007663 0.052311
v -0.029516 -0.007138 0.052240
v -0.030312 -0.007236 0.051664
v -0.030840 -0.007169 0.051324
v -0.031244 -0.006023 0.051598
v -0.025827 -0.007736 0.053842
v -0.026482 -0.007703 0.053589
v -0.027054 -0.007309 0.053515
v -0.027672 -0.007145 0.053291
v -0.028257 -0.007420 0.052851
v -0.032253 -0.005427 0.051110
v -0.032758 -0.005352 0.050726
v -0.032978 -0.005773 0.050333
v -0.033412 -0.005407 0.050129
v -0.033215 -0.004979 0.050505
v -0.032724 -0.004866 0.050980
v -0.032113 -0.004784 0.051506
v -0.009725 -0.005488 0.054226
v -0.011068 -0.004791 0.055234
v -0.010290 -0.005125 0.054724
v -0.012709 -0.004784 0.055780
v -0.010865 -0.005610 0.054757
v -0.011416 -0.006319 0.054639
v -0.011513 -0.007171 0.054242
v -0.011884 -0.004928 0.055484
v -0.012081 -0.005436 0.055314
v -0.012682 -0.005523 0.055454
v -0.013397 -0.007197 0.054871
v -0.013872 -0.007401 0.054897
v -0.014587 -0.007206 0.055141
v -0.015122 -0.007736 0.054986
v -0.028841 -0.006613 0.052899
v -0.029914 -0.006565 0.052263
v -0.029306 -0.005969 0.052915
v -0.030799 -0.006661 0.051607
v -0.031571 -0.005248 0.051713
v -0.030308 -0.005874 0.052324
v -0.030779 -0.005300 0.052259
v -0.025898 -0.006930 0.054187
v -0.026482 -0.007206 0.053822
v -0.024668 -0.007736 0.054269
v -0.025236 -0.007505 0.054177
v -0.027298 -0.006659 0.053695
v -0.028207 -0.006008 0.053521
v -0.031461 -0.004784 0.051995
v -0.013341 -0.004784 0.055928
v -0.013337 -0.005328 0.055703
v -0.013337 -0.005824 0.055491
v -0.013337 -0.006358 0.055248
v -0.013925 -0.006284 0.055423
v -0.014587 -0.006590 0.055415
v -0.015245 -0.006767 0.055435
v -0.015800 -0.007736 0.055081
v -0.028684 -0.005345 0.053542
v -0.029720 -0.005070 0.053049
v -0.030419 -0.004784 0.052718
v -0.030943 -0.004807 0.052355
v -0.024982 -0.006451 0.054721
v -0.025279 -0.006017 0.054792
v -0.025817 -0.005602 0.054759
v -0.026499 -0.006443 0.054152
v -0.023926 -0.007736 0.054503
v -0.024518 -0.007010 0.054642
v -0.027037 -0.005898 0.054143
v -0.027441 -0.005354 0.054175
v -0.027913 -0.004812 0.054161
v -0.013999 -0.004801 0.056055
v -0.013959 -0.005328 0.055836
v -0.015212 -0.004784 0.056220
v -0.014587 -0.005954 0.055686
v -0.015212 -0.005954 0.055767
v -0.015840 -0.006580 0.055585
v -0.015840 -0.007103 0.055367
v -0.016415 -0.007736 0.055153
v -0.028380 -0.004784 0.053927
v -0.029072 -0.004791 0.053543
v -0.024601 -0.005954 0.055042
v -0.025229 -0.005328 0.055068
v -0.025894 -0.004784 0.055029
v -0.026476 -0.005082 0.054702
v -0.023940 -0.007123 0.054772
v -0.022092 -0.007736 0.054964
v -0.022626 -0.007722 0.054859
v -0.023328 -0.007492 0.054783
v -0.024026 -0.006635 0.054948
v -0.027127 -0.004784 0.054536
v -0.014530 -0.005039 0.056047
v -0.015883 -0.004784 0.056280
v -0.015840 -0.005377 0.056056
v -0.015212 -0.005298 0.056027
v -0.015840 -0.005954 0.055834
v -0.016468 -0.006580 0.055646
v -0.016468 -0.007182 0.055401
v -0.017033 -0.007736 0.055213
v -0.024588 -0.005017 0.055389
v -0.023920 -0.005596 0.055381
v -0.025116 -0.004784 0.055296
v -0.023348 -0.006580 0.055160
v -0.021480 -0.007736 0.055065
v -0.022098 -0.007206 0.055192
v -0.022720 -0.007206 0.055060
v -0.023348 -0.005946 0.055408
v -0.016502 -0.004784 0.056327
v -0.016548 -0.005456 0.056085
v -0.016468 -0.005954 0.055890
v -0.017093 -0.006580 0.055691
v -0.017093 -0.007243 0.055425
v -0.017701 -0.007353 0.055408
v -0.018326 -0.007365 0.055417
v -0.019596 -0.007502 0.055338
v -0.020224 -0.007736 0.055203
v -0.024016 -0.004784 0.055635
v -0.023348 -0.005328 0.055631
v -0.022723 -0.006395 0.055384
v -0.021500 -0.006901 0.055415
v -0.020852 -0.007736 0.055146
v -0.022098 -0.006619 0.055426
v -0.022720 -0.005328 0.055779
v -0.017130 -0.004784 0.056361
v -0.017083 -0.005590 0.056070
v -0.017721 -0.005852 0.055998
v -0.017721 -0.006580 0.055718
v -0.018343 -0.006580 0.055728
v -0.018971 -0.007363 0.055415
v -0.019596 -0.006580 0.055708
v -0.020224 -0.007223 0.055418
v -0.020852 -0.007156 0.055390
v -0.023348 -0.004784 0.055813
v -0.022098 -0.005954 0.055678
v -0.020852 -0.006580 0.055620
v -0.021477 -0.005954 0.055781
v -0.022697 -0.004784 0.055964
v -0.022052 -0.005008 0.056017
v -0.017761 -0.004784 0.056380
v -0.017721 -0.005328 0.056190
v -0.018343 -0.005863 0.056003
v -0.018971 -0.006580 0.055724
v -0.018971 -0.005855 0.056001
v -0.019596 -0.005824 0.055991
v -0.020224 -0.006580 0.055673
v -0.020852 -0.005954 0.055853
v -0.020852 -0.005373 0.056053
v -0.021497 -0.005025 0.056094
v -0.020852 -0.004784 0.056247
v -0.018386 -0.004784 0.056384
v -0.018343 -0.005328 0.056199
v -0.018971 -0.005328 0.056190
v -0.020157 -0.005626 0.056028
v -0.019596 -0.005328 0.056164
v -0.020217 -0.004784 0.056303
v -0.018971 -0.004784 0.056373
v -0.019632 -0.004784 0.056344
f 1 2 3
f 1 3 4
f 1 4 5
f 1 5 2
f 2 6 3
f 2 5 17
f 2 17 27
f 2 27 42
f 2 42 65
f 2 65 89
f 2 89 121
f 2 121 149
f 2 149 160
f 2 160 179
f 2 179 190
f 2 190 183
f 2 183 201
f 2 201 216
f 2 216 232
f 2 232 236
f 2 236 248
f 2 248 254
f 2 254 256
f 2 256 255
f 2 255 249
f 2 249 238
f 2 238 223
f 2 223 207
f 2 207 192
f 2 192 173
f 2 173 150
f 2 150 125
f 2 125 92
f 2 92 66
f 2 66 43
f 2 43 28
f 2 28 18
f 2 18 8
f 2 8 7
f 2 7 6
f 3 6 7
f 3 7 8
f 3 8 9
f 3 9 19
f 3 19 29
f 3 29 46
f 3 46 71
f 3 71 103
f 3 103 135
f 3 135 157
f 3 157 178
f 3 178 198
f 3 198 215
f 3 215 220
f 3 220 203
f 3 203 186
f 3 186 166
f 3 166 145
f 3 145 110
f 3 110 81
f 3 81 56
f 3 56 36
f 3 36 20
f 3 20 10
f 3 10 11
f 3 11 4
f 4 11 12
f 4 12 13
f 4 13 14
f 4 14 5
f 5 14 15
f 5 15 16
f 5 16 17
f 8 18 19
f 8 19 9
f 10 20 21
f 10 21 22
f 10 22 12
f 10 12 11
f 12 22 23
f 12 23 13
f 13 23 14
f 14 24 15
f 14 23 24
f 15 24 16
f 16 24 25
f 16 25 17
f 17 25 26
f 17 26 27
f 18 28 29
f 18 29 19
f 20 30 31
f 20 31 32
f 20 32 33
f 20 33 34
f 20 34 35
f 20 35 21
f 20 36 30
f 21 35 22
f 22 35 37
f 22 37 23
f 23 37 24
f 24 37 38
f 24 38 25
f 25 38 26
f 26 38 39
f 26 39 40
f 26 40 27
f 27 40 41
f 27 41 42
f 28 43 44
f 28 44 45
f 28 45 29
f 29 45 46
f 30 47 48
f 30 48 49
f 30 49 50
f 30 50 31
f 30 36 47
f 31 50 51
f 31 51 32
f 32 51 33
f 33 52 53
f 33 53 54
f 33 54 34
f 33 51 52
f 34 54 35
f 35 54 55
f 35 55 37
f 36 56 57
f 36 57 58
f 36 58 59
f 36 59 60
f 36 60 47
f 37 55 38
f 38 55 61
f 38 61 39
f 39 61 53
f 39 53 52
f 39 52 62
f 39 62 40
f 40 62 41
f 41 62 42
f 42 62 63
f 42 63 64
f 42 64 65
f 43 66 44
f 44 66 67
f 44 67 68
f 44 68 46
f 44 46 45
f 46 68 69
f 46 69 70
f 46 70 71
f 47 60 59
f 47 59 48
f 48 72 73
f 48 73 74
f 48 74 49
f 48 59 72
f 49 74 50
f 50 75 76
f 50 76 51
f 50 74 75
f 51 76 77
f 51 77 52
f 52 77 62
f 53 61 54
f 54 61 55
f 56 78 79
f 56 79 80
f 56 80 57
f 56 81 78
f 57 80 58
f 58 82 59
f 58 80 83
f 58 83 82
f 59 84 72
f 59 82 84
f 62 77 63
f 63 76 85
f 63 85 64
f 63 77 76
f 64 85 86
f 64 86 73
f 64 73 87
f 64 87 65
f 65 87 88
f 65 88 89
f 66 90 91
f 66 91 67
f 66 92 90
f 67 91 93
f 67 93 94
f 67 94 68
f 68 94 69
f 69 94 93
f 69 93 95
f 69 95 96
f 69 96 70
f 70 96 97
f 70 97 98
f 70 98 99
f 70 99 71
f 71 99 100
f 71 100 101
f 71 101 102
f 71 102 103
f 72 84 104
f 72 104 73
f 73 86 74
f 73 104 87
f 74 86 85
f 74 85 75
f 75 85 76
f 78 105 106
f 78 106 107
f 78 107 79
f 78 81 105
f 79 108 80
f 79 107 108
f 80 108 109
f 80 109 83
f 81 110 111
f 81 111 112
f 81 112 113
f 81 113 114
f 81 114 105
f 82 83 115
f 82 115 116
f 82 116 117
f 82 117 84
f 83 109 115
f 84 117 104
f 87 104 118
f 87 118 89
f 87 89 88
f 89 118 119
f 89 119 120
f 89 120 121
f 90 92 122
f 90 122 93
f 90 93 91
f 92 123 124
f 92 124 97
f 92 97 122
f 92 125 123
f 93 122 95
f 95 97 96
f 95 122 97
f 97 124 126
f 97 126 98
f 98 126 127
f 98 127 128
f 98 128 99
f 99 128 100
f 100 129 130
f 100 130 101
f 100 128 127
f 100 127 129
f 101 130 131
f 101 131 132
f 101 132 102
f 102 132 133
f 102 133 103
f 103 133 134
f 103 134 135
f 104 117 118
f 105 114 136
f 105 136 106
f 106 137 107
f 106 136 138
f 106 138 137
f 107 137 139
f 107 139 108
f 108 139 109
f 109 140 115
f 109 139 141
f 109 141 142
f 109 142 140
f 110 143 144
f 110 144 111
f 110 145 146
f 110 146 143
f 111 144 112
f 112 147 113
f 112 144 147
f 113 147 148
f 113 148 114
f 114 148 136
f 115 121 120
f 115 120 116
f 115 140 121
f 116 120 119
f 116 119 118
f 116 118 117
f 121 140 149
f 123 125 129
f 123 129 127
f 123 127 126
f 123 126 124
f 125 150 151
f 125 151 152
f 125 152 131
f 125 131 129
f 129 131 130
f 131 152 153
f 131 153 132
f 132 153 133
f 133 153 154
f 133 154 134
f 134 155 135
f 134 154 155
f 135 155 156
f 135 156 157
f 136 148 158
f 136 158 138
f 137 141 139
f 137 138 141
f 138 158 159
f 138 159 141
f 140 142 149
f 141 159 160
f 141 160 142
f 142 160 161
f 142 161 149
f 143 146 162
f 143 162 163
f 143 163 164
f 143 164 165
f 143 165 144
f 144 165 147
f 145 166 167
f 145 167 146
f 146 167 162
f 147 165 168
f 147 168 169
f 147 169 148
f 148 169 170
f 148 170 158
f 149 161 160
f 150 171 172
f 150 172 151
f 150 173 171
f 151 172 154
f 151 154 152
f 152 154 153
f 154 172 155
f 155 172 174
f 155 174 156
f 156 175 176
f 156 176 177
f 156 177 157
f 156 174 175
f 157 177 178
f 158 170 179
f 158 179 180
f 158 180 159
f 159 180 160
f 160 180 179
f 162 181 163
f 162 167 181
f 163 181 182
f 163 182 164
f 164 183 184
f 164 184 165
f 164 182 183
f 165 184 168
f 166 185 167
f 166 186 187
f 166 187 188
f 166 188 185
f 167 185 189
f 167 189 181
f 168 190 169
f 168 184 190
f 169 190 170
f 170 190 179
f 171 173 191
f 171 191 172
f 172 191 174
f 173 192 193
f 173 193 194
f 173 194 191
f 174 191 175
f 175 191 194
f 175 194 195
f 175 195 176
f 176 195 196
f 176 196 197
f 176 197 177
f 177 197 178
f 178 197 198
f 181 199 182
f 181 189 200
f 181 200 199
f 182 199 201
f 182 201 183
f 183 190 184
f 185 188 202
f 185 202 189
f 186 203 204
f 186 204 187
f 187 204 205
f 187 205 188
f 188 205 202
f 189 202 206
f 189 206 200
f 192 207 208
f 192 208 193
f 193 208 209
f 193 209 195
f 193 195 194
f 195 209 196
f 196 209 210
f 196 210 211
f 196 211 197
f 197 211 198
f 198 211 212
f 198 212 213
f 198 213 214
f 198 214 215
f 199 200 216
f 199 216 201
f 200 206 217
f 200 217 216
f 202 205 218
f 202 218 206
f 203 219 204
f 203 220 219
f 204 219 221
f 204 221 218
f 204 218 205
f 206 218 222
f 206 222 217
f 207 223 224
f 207 224 208
f 208 224 209
f 209 224 210
f 210 224 225
f 210 225 226
f 210 226 212
f 210 212 211
f 212 226 213
f 213 226 227
f 213 227 228
f 213 228 214
f 214 229 230
f 214 230 215
f 214 228 229
f 215 230 231
f 215 231 220
f 216 217 232
f 217 222 232
f 218 221 233
f 218 233 222
f 219 220 231
f 219 231 234
f 219 234 235
f 219 235 221
f 221 235 233
f 222 236 232
f 222 233 237
f 222 237 236
f 223 238 239
f 223 239 224
f 224 239 225
f 225 239 240
f 225 240 227
f 225 227 226
f 227 241 228
f 227 240 241
f 228 241 229
f 229 241 242
f 229 242 243
f 229 243 244
f 229 244 230
f 230 244 234
f 230 234 231
f 233 235 237
f 234 245 235
f 234 244 245
f 235 245 246
f 235 246 247
f 235 247 237
f 236 237 248
f 237 247 248
f 238 249 250
f 238 250 239
f 239 250 240
f 240 250 242
f 240 242 241
f 242 250 251
f 242 251 243
f 243 252 244
f 243 251 253
f 243 253 252
f 244 252 245
f 245 252 246
f 246 248 247
f 246 252 254
f 246 254 248
f 249 255 251
f 249 251 250
f 251 255 253
f 252 253 256
f 252 256 254
f 253 255 256
