v -0.001686 0.000182 0.042939
v -0.002498 0.016189 0.055242
v -0.002416 0.008965 0.055664
v -0.002979 0.000664 0.052123
v -0.021446 0.000628 0.057493
v -0.013752 0.000196 -0.000172
v -0.009531 0.000182 0.001020
v -0.001686 0.000954 0.004220
v -0.001699 0.003877 0.002559
v -0.001909 0.034070 0.019549
v -0.003116 0.021574 0.053211
v -0.005538 0.017799 0.055855
v -0.006280 0.013799 0.057036
v -0.002485 0.035640 0.031308
v -0.002708 0.034672 0.036498
v -0.003133 0.031321 0.044085
v -0.003910 0.005012 0.055502
v -0.006641 0.009153 0.057446
v -0.007174 0.001175 0.055849
v -0.011352 0.001883 0.057574
v -0.014623 0.002579 0.058141
v -0.018398 0.002267 0.058089
v -0.021678 0.006930 0.058095
v -0.023645 0.003290 0.057389
v -0.029132 0.001045 0.055004
v -0.040661 0.001212 0.043848
v -0.044457 0.000947 0.023125
v -0.018733 0.000769 -0.000456
v -0.013318 0.011500 -0.000473
v -0.008032 0.011666 -0.000080
v -0.002991 0.007812 0.001199
v -0.037123 0.000726 0.007964
v -0.034435 0.001005 0.005389
v -0.002626 0.013008 0.001298
v -0.002845 0.022487 0.004533
v -0.002562 0.030081 0.011575
v -0.003206 0.032536 0.015041
v -0.005512 0.034139 0.017090
v -0.004168 0.035495 0.022194
v -0.002227 0.035452 0.024775
v -0.003365 0.025958 0.050282
v -0.007521 0.024406 0.052858
v -0.006744 0.021628 0.054408
v -0.009381 0.018176 0.056526
v -0.011296 0.015637 0.057632
v -0.010755 0.011210 0.058297
v -0.006100 0.035789 0.035775
v -0.003382 0.036068 0.028177
v -0.008097 0.036909 0.030723
v -0.007848 0.034824 0.039918
v -0.003854 0.033704 0.040127
v -0.007908 0.032812 0.043946
v -0.004241 0.029483 0.047100
v -0.010257 0.005817 0.058048
v -0.012850 0.008221 0.058644
v -0.018329 0.006542 0.058511
v -0.018046 0.010212 0.058534
v -0.024139 0.012308 0.057036
v -0.026685 0.007757 0.056573
v -0.029613 0.005661 0.055190
v -0.032718 0.001328 0.052771
v -0.035758 0.001516 0.050196
v -0.038278 0.002017 0.047470
v -0.039626 0.006695 0.046104
v -0.042164 0.004914 0.041857
v -0.043384 0.002180 0.038478
v -0.045019 0.001328 0.030961
v -0.045092 0.001339 0.027766
v -0.045157 0.003902 0.024873
v -0.044264 0.004294 0.020718
v -0.043147 0.002009 0.018189
v -0.039609 0.001774 0.010979
v -0.023267 0.004715 0.000117
v -0.024400 0.001146 0.000447
v -0.018441 0.014419 0.000268
v -0.014653 0.015358 0.000030
v -0.011274 0.015402 0.000083
v -0.006186 0.015583 0.000788
v -0.038278 0.007906 0.008439
v -0.036870 0.010999 0.007160
v -0.030635 0.006122 0.002739
v -0.031322 0.001930 0.003248
v -0.003253 0.018390 0.002420
v -0.002931 0.026208 0.007246
v -0.006877 0.022963 0.003757
v -0.005168 0.028250 0.008271
v -0.007981 0.030172 0.009538
v -0.006220 0.031615 0.012067
v -0.010179 0.032884 0.013045
v -0.011781 0.034679 0.016598
v -0.008569 0.035941 0.020828
v -0.007238 0.036685 0.025446
v -0.006813 0.026991 0.050653
v -0.011369 0.025726 0.052609
v -0.012043 0.022593 0.054808
v -0.013297 0.019663 0.056411
v -0.016281 0.016678 0.057481
v -0.017032 0.013581 0.058216
v -0.014825 0.011014 0.058633
v -0.011098 0.036500 0.035642
v -0.010639 0.037073 0.025915
v -0.011347 0.037225 0.029595
v -0.012202 0.034483 0.041915
v -0.014091 0.035680 0.038784
v -0.011171 0.031365 0.046845
v -0.008990 0.029178 0.049009
v -0.020901 0.017015 0.056735
v -0.024435 0.018538 0.055097
v -0.028535 0.014034 0.054808
v -0.030730 0.009400 0.054356
v -0.034336 0.005846 0.051874
v -0.037192 0.004635 0.049079
v -0.036745 0.008316 0.049501
v -0.038188 0.011329 0.047325
v -0.040807 0.010550 0.043738
v -0.043353 0.008298 0.038906
v -0.044689 0.005904 0.034988
v -0.044539 0.001977 0.034346
v -0.045363 0.007260 0.031256
v -0.045552 0.004824 0.028883
v -0.045157 0.007126 0.024051
v -0.045496 0.007732 0.027442
v -0.044354 0.010430 0.020649
v -0.042825 0.008497 0.015984
v -0.041559 0.002238 0.014353
v -0.040902 0.007155 0.012125
v -0.028097 0.003942 0.001541
v -0.027247 0.008047 0.001431
v -0.024405 0.015917 0.001928
v -0.021257 0.017726 0.001541
v -0.016015 0.018926 0.001199
v -0.009836 0.019166 0.001350
v -0.039781 0.012889 0.010817
v -0.037230 0.017273 0.009289
v -0.033984 0.016091 0.006043
v -0.032636 0.011514 0.004278
v -0.009278 0.027434 0.006477
v -0.013417 0.022647 0.002727
v -0.011248 0.024768 0.004208
v -0.012305 0.030679 0.009422
v -0.016732 0.033425 0.014393
v -0.015778 0.031811 0.011413
v -0.016105 0.035118 0.018056
v -0.013606 0.036554 0.022437
v -0.013649 0.028699 0.050138
v -0.015937 0.024783 0.053442
v -0.018127 0.020442 0.055838
v -0.013305 0.036968 0.032216
v -0.016534 0.036246 0.035659
v -0.016178 0.036895 0.028258
v -0.018861 0.033697 0.042644
v -0.014787 0.033512 0.043715
v -0.019145 0.034929 0.039496
v -0.014628 0.030879 0.047771
v -0.022911 0.022749 0.053500
v -0.027561 0.019394 0.053402
v -0.030983 0.016776 0.052452
v -0.032048 0.013277 0.052782
v -0.034598 0.010481 0.051289
v -0.039300 0.013875 0.044895
v -0.036792 0.014738 0.047846
v -0.041572 0.013153 0.041284
v -0.043336 0.012203 0.037459
v -0.044680 0.011115 0.032812
v -0.045123 0.011427 0.027674
v -0.044332 0.014636 0.023501
v -0.043568 0.013879 0.018733
v -0.042314 0.012015 0.015064
v -0.028518 0.013302 0.002814
v -0.030446 0.016000 0.004214
v -0.029523 0.019724 0.005100
v -0.023447 0.020119 0.003040
v -0.020356 0.021773 0.003080
v -0.016788 0.023053 0.003202
v -0.041344 0.015877 0.014382
v -0.039111 0.019655 0.013004
v -0.035848 0.022194 0.010869
v -0.032941 0.020867 0.007368
v -0.015401 0.026302 0.005175
v -0.015074 0.028812 0.007374
v -0.024959 0.030795 0.013386
v -0.021090 0.033918 0.017466
v -0.019050 0.029200 0.008664
v -0.017990 0.036155 0.022709
v -0.018222 0.027332 0.051122
v -0.022292 0.026491 0.050965
v -0.020416 0.036097 0.030179
v -0.022232 0.035336 0.034166
v -0.021056 0.035727 0.024479
v -0.022614 0.032746 0.042586
v -0.022382 0.030828 0.046029
v -0.017977 0.031804 0.046070
v -0.022451 0.034444 0.038171
v -0.020691 0.029414 0.048541
v -0.025581 0.024134 0.051550
v -0.030206 0.021012 0.050907
v -0.034220 0.017411 0.049362
v -0.037209 0.018063 0.045514
v -0.039631 0.017425 0.042181
v -0.042113 0.016199 0.037691
v -0.043547 0.016138 0.032193
v -0.044405 0.014441 0.029578
v -0.043414 0.017980 0.024931
v -0.042920 0.018063 0.020053
v -0.026333 0.022031 0.005030
v -0.023817 0.024293 0.005603
v -0.018776 0.026476 0.005852
v -0.040970 0.020533 0.017443
v -0.038901 0.023427 0.017078
v -0.031314 0.024087 0.008705
v -0.034053 0.025972 0.013282
v -0.027754 0.030922 0.015840
v -0.027191 0.028514 0.011176
v -0.030506 0.027492 0.011853
v -0.023799 0.034248 0.021569
v -0.023370 0.026930 0.007652
v -0.026058 0.026527 0.049293
v -0.023971 0.035046 0.029873
v -0.027234 0.033700 0.031632
v -0.025985 0.033831 0.035283
v -0.028359 0.033124 0.027784
v -0.026191 0.031397 0.042303
v -0.027402 0.032442 0.038362
v -0.024972 0.029022 0.046972
v -0.029699 0.024402 0.048732
v -0.033637 0.021556 0.047395
v -0.038158 0.020268 0.042291
v -0.040112 0.019797 0.038912
v -0.040361 0.021269 0.035792
v -0.041666 0.020562 0.032239
v -0.041911 0.021226 0.026516
v -0.041464 0.021802 0.022194
v -0.026311 0.025570 0.007530
v -0.038338 0.025679 0.020903
v -0.035788 0.026988 0.017761
v -0.031992 0.028844 0.015886
v -0.029278 0.031271 0.018918
v -0.029334 0.032032 0.022981
v -0.029502 0.027637 0.045260
v -0.030296 0.032170 0.031516
v -0.030511 0.031339 0.036192
v -0.032804 0.030621 0.029554
v -0.034233 0.029200 0.022680
v -0.030674 0.029780 0.040063
v -0.032250 0.024768 0.045971
v -0.035208 0.023902 0.043003
v -0.038089 0.022970 0.039137
v -0.039588 0.023691 0.032772
v -0.039927 0.024003 0.028600
v -0.038888 0.025501 0.024306
v -0.036724 0.027601 0.026007
v -0.032134 0.027256 0.042823
v -0.034306 0.028863 0.035069
v -0.034117 0.027394 0.039484
v -0.036797 0.027140 0.032210
v -0.036921 0.025465 0.037106
f 1 2 3
f 1 3 4
f 1 4 5
f 1 5 6
f 1 6 7
f 1 7 8
f 1 8 9
f 1 9 10
f 1 10 2
f 2 11 12
f 2 12 13
f 2 13 3
f 2 10 14
f 2 14 15
f 2 15 16
f 2 16 11
f 3 17 4
f 3 13 18
f 3 18 17
f 4 17 19
f 4 19 5
f 5 19 20
f 5 20 21
f 5 21 22
f 5 22 23
f 5 23 24
f 5 24 25
f 5 25 26
f 5 26 27
f 5 27 6
f 6 28 29
f 6 29 30
f 6 30 31
f 6 31 7
f 6 27 32
f 6 32 33
f 6 33 28
f 7 31 9
f 7 9 8
f 9 31 34
f 9 34 35
f 9 35 36
f 9 36 10
f 10 36 37
f 10 37 38
f 10 38 39
f 10 39 40
f 10 40 14
f 11 41 42
f 11 42 43
f 11 43 12
f 11 16 41
f 12 44 45
f 12 45 13
f 12 43 44
f 13 45 46
f 13 46 18
f 14 47 15
f 14 40 48
f 14 48 49
f 14 49 47
f 15 47 50
f 15 50 51
f 15 51 16
f 16 51 52
f 16 52 53
f 16 53 41
f 17 18 54
f 17 54 20
f 17 20 19
f 18 46 55
f 18 55 54
f 20 54 21
f 21 55 56
f 21 56 22
f 21 54 55
f 22 56 23
f 23 56 57
f 23 57 58
f 23 58 59
f 23 59 24
f 24 59 25
f 25 59 60
f 25 60 61
f 25 61 26
f 26 61 62
f 26 62 63
f 26 63 64
f 26 64 65
f 26 65 66
f 26 66 67
f 26 67 27
f 27 67 68
f 27 68 69
f 27 69 70
f 27 70 71
f 27 71 72
f 27 72 32
f 28 73 29
f 28 33 74
f 28 74 73
f 29 73 75
f 29 75 76
f 29 76 77
f 29 77 30
f 30 77 78
f 30 78 34
f 30 34 31
f 32 72 79
f 32 79 33
f 33 79 80
f 33 80 81
f 33 81 82
f 33 82 74
f 34 78 83
f 34 83 35
f 35 84 36
f 35 83 85
f 35 85 84
f 36 84 86
f 36 86 87
f 36 87 88
f 36 88 37
f 37 88 38
f 38 88 89
f 38 89 90
f 38 90 91
f 38 91 39
f 39 91 92
f 39 92 40
f 40 92 48
f 41 93 42
f 41 53 93
f 42 94 95
f 42 95 43
f 42 93 94
f 43 95 44
f 44 95 96
f 44 96 45
f 45 97 98
f 45 98 99
f 45 99 46
f 45 96 97
f 46 99 55
f 47 49 100
f 47 100 50
f 48 92 49
f 49 92 101
f 49 101 102
f 49 102 100
f 50 103 52
f 50 52 51
f 50 100 104
f 50 104 103
f 52 105 106
f 52 106 53
f 52 103 105
f 53 106 93
f 55 99 56
f 56 99 57
f 57 99 98
f 57 98 58
f 58 98 107
f 58 107 108
f 58 108 109
f 58 109 59
f 59 109 110
f 59 110 60
f 60 110 111
f 60 111 61
f 61 111 62
f 62 111 112
f 62 112 63
f 63 112 64
f 64 112 113
f 64 113 114
f 64 114 115
f 64 115 65
f 65 115 116
f 65 116 66
f 66 116 117
f 66 117 118
f 66 118 67
f 67 119 120
f 67 120 68
f 67 118 119
f 68 120 69
f 69 121 70
f 69 120 122
f 69 122 121
f 70 123 124
f 70 124 71
f 70 121 123
f 71 124 125
f 71 125 72
f 72 125 126
f 72 126 79
f 73 74 127
f 73 127 128
f 73 128 75
f 74 82 127
f 75 128 129
f 75 129 130
f 75 130 76
f 76 130 131
f 76 131 77
f 77 131 132
f 77 132 78
f 78 132 83
f 79 126 133
f 79 133 80
f 80 133 134
f 80 134 135
f 80 135 136
f 80 136 81
f 81 136 128
f 81 128 127
f 81 127 82
f 83 132 85
f 84 85 137
f 84 137 86
f 85 132 138
f 85 138 139
f 85 139 137
f 86 137 87
f 87 137 140
f 87 140 89
f 87 89 88
f 89 141 90
f 89 140 142
f 89 142 141
f 90 141 143
f 90 143 144
f 90 144 91
f 91 144 101
f 91 101 92
f 93 106 94
f 94 106 145
f 94 145 146
f 94 146 95
f 95 147 96
f 95 146 147
f 96 147 97
f 97 147 107
f 97 107 98
f 100 148 149
f 100 149 104
f 100 102 148
f 101 144 150
f 101 150 102
f 102 150 148
f 103 104 151
f 103 151 152
f 103 152 105
f 104 149 153
f 104 153 151
f 105 152 154
f 105 154 145
f 105 145 106
f 107 147 108
f 108 147 155
f 108 155 156
f 108 156 109
f 109 156 157
f 109 157 158
f 109 158 110
f 110 158 159
f 110 159 111
f 111 159 113
f 111 113 112
f 113 159 114
f 114 160 115
f 114 159 161
f 114 161 160
f 115 162 116
f 115 160 162
f 116 162 163
f 116 163 117
f 117 163 164
f 117 164 119
f 117 119 118
f 119 164 165
f 119 165 122
f 119 122 120
f 121 122 166
f 121 166 123
f 122 165 166
f 123 166 167
f 123 167 124
f 124 167 168
f 124 168 126
f 124 126 125
f 126 168 133
f 128 136 169
f 128 169 129
f 129 169 170
f 129 170 171
f 129 171 172
f 129 172 130
f 130 172 173
f 130 173 131
f 131 173 174
f 131 174 138
f 131 138 132
f 133 168 175
f 133 175 176
f 133 176 134
f 134 176 177
f 134 177 178
f 134 178 135
f 135 178 171
f 135 171 170
f 135 170 136
f 136 170 169
f 137 179 180
f 137 180 140
f 137 139 179
f 138 174 179
f 138 179 139
f 140 180 142
f 141 142 181
f 141 181 182
f 141 182 143
f 142 180 183
f 142 183 181
f 143 182 184
f 143 184 144
f 144 184 150
f 145 154 185
f 145 185 146
f 146 185 186
f 146 186 155
f 146 155 147
f 148 150 149
f 149 150 187
f 149 187 188
f 149 188 153
f 150 184 189
f 150 189 187
f 151 190 191
f 151 191 192
f 151 192 152
f 151 153 190
f 152 192 154
f 153 188 193
f 153 193 190
f 154 194 185
f 154 192 194
f 155 186 195
f 155 195 156
f 156 195 196
f 156 196 157
f 157 196 197
f 157 197 158
f 158 197 161
f 158 161 159
f 160 161 198
f 160 198 199
f 160 199 162
f 161 197 198
f 162 199 200
f 162 200 163
f 163 200 201
f 163 201 164
f 164 201 202
f 164 202 165
f 165 202 166
f 166 202 203
f 166 203 204
f 166 204 167
f 167 204 175
f 167 175 168
f 171 178 205
f 171 205 172
f 172 205 173
f 173 205 206
f 173 206 207
f 173 207 174
f 174 207 179
f 175 204 208
f 175 208 176
f 176 208 209
f 176 209 177
f 177 210 178
f 177 209 211
f 177 211 210
f 178 210 205
f 179 207 180
f 180 207 183
f 181 212 182
f 181 183 213
f 181 213 214
f 181 214 212
f 182 215 184
f 182 212 215
f 183 207 216
f 183 216 213
f 184 215 189
f 185 194 186
f 186 194 217
f 186 217 195
f 187 189 218
f 187 218 188
f 188 219 220
f 188 220 193
f 188 218 219
f 189 221 218
f 189 215 221
f 190 222 191
f 190 193 223
f 190 223 222
f 191 224 194
f 191 194 192
f 191 222 224
f 193 220 223
f 194 224 217
f 195 217 225
f 195 225 196
f 196 225 226
f 196 226 197
f 197 226 198
f 198 226 227
f 198 227 199
f 199 227 228
f 199 228 200
f 200 228 229
f 200 229 230
f 200 230 201
f 201 230 231
f 201 231 203
f 201 203 202
f 203 231 232
f 203 232 204
f 204 232 208
f 205 210 233
f 205 233 206
f 206 233 216
f 206 216 207
f 208 232 209
f 209 232 234
f 209 234 235
f 209 235 211
f 210 211 214
f 210 214 233
f 211 235 236
f 211 236 214
f 212 214 236
f 212 236 237
f 212 237 215
f 213 216 233
f 213 233 214
f 215 237 238
f 215 238 221
f 217 224 239
f 217 239 225
f 218 221 219
f 219 240 220
f 219 221 240
f 220 240 241
f 220 241 223
f 221 242 240
f 221 238 243
f 221 243 242
f 222 223 244
f 222 244 239
f 222 239 224
f 223 241 244
f 225 239 245
f 225 245 226
f 226 245 246
f 226 246 227
f 227 246 247
f 227 247 228
f 228 247 229
f 229 247 248
f 229 248 230
f 230 248 249
f 230 249 231
f 231 249 250
f 231 250 232
f 232 250 234
f 234 250 251
f 234 251 243
f 234 243 235
f 235 243 236
f 236 243 237
f 237 243 238
f 239 244 252
f 239 252 245
f 240 253 241
f 240 242 253
f 241 254 244
f 241 253 254
f 242 243 251
f 242 251 255
f 242 255 253
f 244 254 252
f 245 252 246
f 246 252 254
f 246 254 247
f 247 254 256
f 247 256 248
f 248 255 249
f 248 256 255
f 249 255 250
f 250 255 251
f 253 255 256
f 253 256 254
