v -0.001678 -0.003297 0.005831
v -0.001406 0.035089 0.024093
v -0.001353 0.031161 0.013798
v -0.001333 0.006191 0.001996
v -0.000630 0.004030 0.002898
v 0.001906 0.003610 0.004226
v 0.004084 0.002808 0.005805
v 0.005609 0.001188 0.007681
v 0.006500 -0.002222 0.011271
v 0.008084 -0.002835 0.013475
v 0.009854 -0.002816 0.015694
v 0.012779 -0.002937 0.033539
v 0.005492 -0.003297 0.040089
v -0.001678 -0.003297 0.037937
v -0.001678 0.001714 0.051989
v -0.001472 0.035100 0.033018
v -0.001316 0.035365 0.026703
v 0.000788 0.034540 0.027318
v 0.001937 0.033575 0.023978
v -0.000509 0.034109 0.021431
v -0.001096 0.033303 0.018247
v 0.000562 0.029692 0.013063
v -0.000742 0.028379 0.010411
v -0.000791 0.026354 0.008290
v -0.001046 0.024004 0.006263
v -0.000795 0.032217 0.016173
v 0.002517 0.030718 0.016632
v -0.000821 0.018305 0.003200
v -0.000239 0.011190 0.002033
v -0.000536 0.008390 0.001960
v 0.001291 0.006906 0.002976
v 0.003938 0.007481 0.004330
v 0.006434 0.006687 0.006164
v 0.007043 0.003496 0.007618
v 0.007770 0.000878 0.009786
v 0.008396 -0.000999 0.011875
v 0.009869 -0.001245 0.013870
v 0.012019 -0.000629 0.016554
v 0.011720 -0.002445 0.018372
v 0.013791 -0.002525 0.024974
v 0.014041 -0.002260 0.030012
v 0.014400 -0.000640 0.033065
v 0.013315 -0.000155 0.036374
v 0.011608 -0.002256 0.036806
v 0.009234 -0.002566 0.039161
v -0.001678 -0.002532 0.040834
v 0.007330 0.001271 0.044752
v 0.006404 0.003879 0.047654
v 0.001109 0.004552 0.052208
v -0.001526 0.004367 0.053969
v -0.001410 0.019213 0.053755
v -0.001436 0.034063 0.037061
v 0.000712 0.033946 0.034467
v 0.001138 0.034249 0.031544
v -0.000960 0.035267 0.030054
v 0.004552 0.032307 0.025990
v 0.004124 0.032656 0.030825
v 0.003999 0.031585 0.021259
v 0.001658 0.032629 0.020076
v 0.004649 0.027838 0.014329
v 0.002952 0.026510 0.010948
v 0.002253 0.024451 0.008379
v 0.001717 0.022627 0.006649
v 0.000118 0.021314 0.005013
v 0.004783 0.029636 0.017684
v 0.000275 0.015047 0.002710
v 0.003375 0.017889 0.005227
v 0.002639 0.011890 0.003372
v 0.002602 0.009552 0.003335
v 0.004561 0.010505 0.004482
v 0.007361 0.009945 0.006597
v 0.008732 0.006630 0.008144
v 0.009223 0.003860 0.009515
v 0.010804 0.003141 0.011713
v 0.010537 0.000915 0.012839
v 0.012216 0.002554 0.014126
v 0.013119 0.001672 0.016424
v 0.013596 -0.000186 0.019409
v 0.013056 -0.002192 0.021201
v 0.014601 0.000435 0.021681
v 0.015098 0.000170 0.024536
v 0.015410 0.000246 0.027506
v 0.015328 0.000628 0.031023
v 0.015763 0.003198 0.033237
v 0.014327 0.002910 0.037228
v 0.012963 0.001952 0.038974
v 0.011165 -0.000576 0.039208
v 0.008789 0.000318 0.042563
v 0.008206 0.003576 0.045835
v 0.007163 0.006024 0.048300
v 0.004601 0.005854 0.050290
v 0.000097 0.008231 0.054214
v -0.001017 0.011663 0.055177
v 0.003940 0.008356 0.051723
v -0.001045 0.015262 0.054802
v 0.001706 0.018032 0.052525
v 0.000230 0.021624 0.051655
v -0.001069 0.025673 0.049436
v -0.001140 0.032811 0.039979
v 0.001126 0.033072 0.036879
v -0.001131 0.031592 0.042313
v 0.003285 0.032890 0.033133
v 0.003768 0.032084 0.035472
v 0.006698 0.031040 0.029006
v 0.008213 0.029564 0.026021
v 0.005934 0.030215 0.021248
v 0.007475 0.029863 0.033409
v 0.005431 0.025560 0.012261
v 0.006581 0.027736 0.016783
v 0.007612 0.025787 0.015345
v 0.004574 0.023948 0.009749
v 0.004285 0.020984 0.007358
v 0.007221 0.028334 0.019091
v 0.003509 0.015054 0.004398
v 0.006533 0.018956 0.008129
v 0.006920 0.015470 0.007066
v 0.005170 0.013067 0.005086
v 0.007769 0.013003 0.007207
v 0.009707 0.010581 0.008905
v 0.010365 0.007266 0.009744
v 0.012166 0.005726 0.012516
v 0.013848 0.004287 0.016080
v 0.014586 0.002808 0.018815
v 0.016134 0.003917 0.023447
v 0.016306 0.003205 0.026146
v 0.016200 0.002675 0.029392
v 0.016674 0.005797 0.031268
v 0.015796 0.005869 0.035295
v 0.014768 0.006252 0.038275
v 0.013310 0.004798 0.040302
v 0.011874 0.004749 0.042433
v 0.011162 0.002342 0.041766
v 0.009968 0.003322 0.043892
v 0.010099 0.005517 0.045106
v 0.008892 0.007421 0.047258
v 0.007543 0.008526 0.048847
v 0.001875 0.011429 0.053505
v 0.002001 0.015478 0.053078
v 0.006496 0.010683 0.050113
v 0.004555 0.011576 0.051707
v 0.005207 0.016579 0.050608
v 0.004390 0.019490 0.050129
v 0.002154 0.023032 0.049576
v -0.000542 0.029325 0.045210
v 0.002045 0.025624 0.047534
v 0.001234 0.027528 0.046190
v 0.001653 0.031978 0.038942
v 0.004445 0.030858 0.037707
v 0.002027 0.030332 0.041693
v 0.007258 0.028860 0.037155
v 0.009790 0.028095 0.031398
v 0.009351 0.028701 0.028485
v 0.010631 0.026888 0.025687
v 0.010341 0.026650 0.023223
v 0.007671 0.029268 0.023046
v 0.009880 0.026377 0.036816
v 0.007210 0.022430 0.011172
v 0.009192 0.023558 0.014897
v 0.009153 0.026703 0.019711
v 0.009643 0.025155 0.017914
v 0.009192 0.018797 0.010812
v 0.009272 0.016451 0.009734
v 0.009335 0.014138 0.009035
v 0.011521 0.012590 0.011401
v 0.011536 0.009771 0.011031
v 0.012974 0.009514 0.013198
v 0.013859 0.007656 0.014980
v 0.014935 0.006180 0.017768
v 0.015618 0.004832 0.020456
v 0.016404 0.007254 0.022488
v 0.016949 0.007629 0.026292
v 0.016822 0.005521 0.028464
v 0.017030 0.008912 0.029866
v 0.016776 0.008534 0.032195
v 0.015950 0.009741 0.036009
v 0.015252 0.010104 0.038208
v 0.014360 0.009453 0.040287
v 0.012873 0.007341 0.042376
v 0.010976 0.007735 0.045064
v 0.010435 0.010880 0.046268
v 0.004005 0.014010 0.051994
v 0.008633 0.013412 0.048149
v 0.006404 0.014199 0.050134
v 0.007780 0.016772 0.048310
v 0.006961 0.018960 0.048159
v 0.005473 0.021586 0.048003
v 0.003670 0.023876 0.047862
v 0.002760 0.028042 0.044335
v 0.003854 0.026188 0.045512
v 0.005519 0.028814 0.040188
v 0.004583 0.028095 0.042454
v 0.008217 0.026154 0.040401
v 0.012188 0.025128 0.031799
v 0.011382 0.026434 0.029105
v 0.011378 0.025102 0.035477
v 0.013020 0.023463 0.024734
v 0.011777 0.024648 0.022582
v 0.013033 0.023925 0.027339
v 0.010932 0.024731 0.020081
v 0.011723 0.023482 0.037598
v 0.009935 0.020924 0.013365
v 0.011101 0.021488 0.015757
v 0.011935 0.022498 0.018914
v 0.010978 0.017802 0.012599
v 0.011606 0.015289 0.012297
v 0.013646 0.012628 0.014756
v 0.014529 0.010297 0.016179
v 0.015509 0.008772 0.018680
v 0.016218 0.010823 0.021462
v 0.017077 0.010097 0.027631
v 0.016740 0.012042 0.025448
v 0.016837 0.012613 0.029084
v 0.016609 0.012712 0.031752
v 0.016477 0.010437 0.033748
v 0.015350 0.013098 0.037395
v 0.014294 0.013124 0.040349
v 0.013413 0.011898 0.042204
v 0.012665 0.009843 0.043345
v 0.011832 0.012640 0.044538
v 0.010769 0.014820 0.045476
v 0.009135 0.017609 0.046502
v 0.008591 0.020409 0.045591
v 0.007822 0.022536 0.044950
v 0.005389 0.024072 0.046153
v 0.006533 0.025405 0.043658
v 0.008760 0.023459 0.042928
v 0.010616 0.023088 0.040328
v 0.013033 0.023187 0.033998
v 0.013317 0.023391 0.030710
v 0.014520 0.021208 0.027870
v 0.014639 0.020337 0.024942
v 0.013176 0.022396 0.022421
v 0.013110 0.021749 0.036457
v 0.012869 0.020224 0.038895
v 0.011874 0.019051 0.014907
v 0.013547 0.018430 0.017872
v 0.013930 0.020167 0.021186
v 0.013301 0.016110 0.015486
v 0.014496 0.014971 0.017466
v 0.015102 0.012292 0.017934
v 0.016174 0.013964 0.022889
v 0.015693 0.013779 0.020540
v 0.016069 0.016012 0.025573
v 0.016345 0.015300 0.028787
v 0.016031 0.015338 0.032601
v 0.015957 0.013567 0.034769
v 0.014542 0.015433 0.038703
v 0.015313 0.016927 0.034764
v 0.013233 0.017404 0.040485
v 0.012702 0.015213 0.042574
v 0.011024 0.018135 0.043741
v 0.010528 0.020591 0.042871
v 0.015019 0.019467 0.031768
v 0.014241 0.019327 0.036097
v 0.015598 0.016254 0.022405
v 0.014841 0.017200 0.020305
f 1 2 3
f 1 3 4
f 1 4 5
f 1 5 6
f 1 6 7
f 1 7 8
f 1 8 9
f 1 9 10
f 1 10 11
f 1 11 12
f 1 12 13
f 1 13 14
f 1 14 46
f 1 46 15
f 1 15 16
f 1 16 2
f 2 17 18
f 2 18 19
f 2 19 20
f 2 20 21
f 2 21 3
f 2 16 17
f 3 22 23
f 3 23 24
f 3 24 25
f 3 25 4
f 3 21 26
f 3 26 27
f 3 27 22
f 4 28 29
f 4 29 30
f 4 30 31
f 4 31 5
f 4 25 28
f 5 31 6
f 6 31 32
f 6 32 7
f 7 33 34
f 7 34 8
f 7 32 33
f 8 34 35
f 8 35 36
f 8 36 9
f 9 36 10
f 10 36 37
f 10 37 11
f 11 38 39
f 11 39 40
f 11 40 12
f 11 37 38
f 12 41 42
f 12 42 43
f 12 43 44
f 12 44 45
f 12 45 13
f 12 40 41
f 13 45 15
f 13 15 46
f 13 46 14
f 15 45 47
f 15 47 48
f 15 48 49
f 15 49 50
f 15 50 51
f 15 51 52
f 15 52 16
f 16 52 53
f 16 53 54
f 16 54 55
f 16 55 17
f 17 55 18
f 18 56 19
f 18 55 54
f 18 54 57
f 18 57 56
f 19 58 59
f 19 59 20
f 19 56 58
f 20 59 21
f 21 59 27
f 21 27 26
f 22 27 60
f 22 60 61
f 22 61 23
f 23 61 24
f 24 62 25
f 24 61 62
f 25 62 63
f 25 63 64
f 25 64 28
f 27 59 58
f 27 58 65
f 27 65 60
f 28 66 29
f 28 64 67
f 28 67 66
f 29 66 68
f 29 68 69
f 29 69 30
f 30 69 31
f 31 69 32
f 32 69 70
f 32 70 33
f 33 71 72
f 33 72 34
f 33 70 71
f 34 72 73
f 34 73 35
f 35 73 74
f 35 74 75
f 35 75 36
f 36 75 37
f 37 75 38
f 38 75 76
f 38 76 77
f 38 77 78
f 38 78 39
f 39 78 79
f 39 79 40
f 40 79 80
f 40 80 81
f 40 81 82
f 40 82 41
f 41 83 42
f 41 82 83
f 42 84 85
f 42 85 43
f 42 83 84
f 43 85 86
f 43 86 87
f 43 87 44
f 44 87 45
f 45 87 88
f 45 88 47
f 47 88 89
f 47 89 48
f 48 90 91
f 48 91 49
f 48 89 90
f 49 91 50
f 50 92 93
f 50 93 51
f 50 91 94
f 50 94 92
f 51 93 95
f 51 95 96
f 51 96 97
f 51 97 98
f 51 98 52
f 52 99 100
f 52 100 53
f 52 98 101
f 52 101 99
f 53 102 54
f 53 100 103
f 53 103 102
f 54 102 57
f 56 57 104
f 56 104 105
f 56 105 106
f 56 106 58
f 57 102 107
f 57 107 104
f 58 106 65
f 60 108 61
f 60 65 109
f 60 109 110
f 60 110 108
f 61 108 111
f 61 111 62
f 62 112 63
f 62 111 112
f 63 112 64
f 64 112 67
f 65 113 109
f 65 106 113
f 66 67 114
f 66 114 68
f 67 112 115
f 67 115 116
f 67 116 114
f 68 114 117
f 68 117 70
f 68 70 69
f 70 117 71
f 71 118 119
f 71 119 72
f 71 117 118
f 72 119 120
f 72 120 73
f 73 120 74
f 74 120 121
f 74 121 76
f 74 76 75
f 76 121 122
f 76 122 77
f 77 122 123
f 77 123 78
f 78 123 80
f 78 80 79
f 80 124 81
f 80 123 124
f 81 124 125
f 81 125 82
f 82 125 126
f 82 126 83
f 83 126 84
f 84 126 127
f 84 127 128
f 84 128 85
f 85 128 129
f 85 129 130
f 85 130 86
f 86 130 131
f 86 131 132
f 86 132 87
f 87 132 88
f 88 132 133
f 88 133 89
f 89 133 134
f 89 134 90
f 90 134 135
f 90 135 136
f 90 136 94
f 90 94 91
f 92 94 137
f 92 137 93
f 93 137 138
f 93 138 95
f 94 136 139
f 94 139 140
f 94 140 137
f 95 138 96
f 96 138 141
f 96 141 142
f 96 142 97
f 97 142 143
f 97 143 98
f 98 144 101
f 98 143 145
f 98 145 146
f 98 146 144
f 99 147 100
f 99 101 147
f 100 147 148
f 100 148 103
f 101 144 149
f 101 149 147
f 102 103 107
f 103 148 150
f 103 150 107
f 104 107 151
f 104 151 152
f 104 152 105
f 105 153 154
f 105 154 155
f 105 155 106
f 105 152 153
f 106 155 113
f 107 150 156
f 107 156 151
f 108 157 111
f 108 110 158
f 108 158 157
f 109 113 159
f 109 159 160
f 109 160 110
f 110 160 158
f 111 157 112
f 112 157 115
f 113 155 159
f 114 116 117
f 115 157 161
f 115 161 162
f 115 162 116
f 116 118 117
f 116 162 163
f 116 163 118
f 118 163 119
f 119 163 164
f 119 164 165
f 119 165 120
f 120 165 121
f 121 166 167
f 121 167 122
f 121 165 166
f 122 168 123
f 122 167 168
f 123 169 124
f 123 168 169
f 124 169 170
f 124 170 171
f 124 171 125
f 125 171 172
f 125 172 126
f 126 172 127
f 127 172 173
f 127 173 174
f 127 174 128
f 128 175 176
f 128 176 129
f 128 174 175
f 129 176 177
f 129 177 178
f 129 178 130
f 130 178 131
f 131 178 179
f 131 179 134
f 131 134 133
f 131 133 132
f 134 179 135
f 135 179 180
f 135 180 136
f 136 180 139
f 137 140 181
f 137 181 138
f 138 181 141
f 139 180 182
f 139 182 183
f 139 183 140
f 140 183 181
f 141 181 183
f 141 183 184
f 141 184 185
f 141 185 142
f 142 185 186
f 142 186 143
f 143 186 187
f 143 187 145
f 144 146 188
f 144 188 149
f 145 187 189
f 145 189 146
f 146 189 188
f 147 149 148
f 148 149 190
f 148 190 150
f 149 188 191
f 149 191 190
f 150 190 192
f 150 192 156
f 151 193 194
f 151 194 152
f 151 156 195
f 151 195 193
f 152 194 153
f 153 196 197
f 153 197 154
f 153 194 198
f 153 198 196
f 154 197 199
f 154 199 159
f 154 159 155
f 156 200 195
f 156 192 200
f 157 158 201
f 157 201 161
f 158 160 202
f 158 202 201
f 159 199 160
f 160 199 203
f 160 203 202
f 161 201 204
f 161 204 162
f 162 204 205
f 162 205 163
f 163 205 164
f 164 205 206
f 164 206 166
f 164 166 165
f 166 206 207
f 166 207 167
f 167 207 208
f 167 208 168
f 168 208 169
f 169 208 170
f 170 209 171
f 170 208 209
f 171 210 173
f 171 173 172
f 171 209 211
f 171 211 210
f 173 210 212
f 173 212 213
f 173 213 174
f 174 213 214
f 174 214 175
f 175 215 176
f 175 214 215
f 176 216 177
f 176 215 216
f 177 216 217
f 177 217 218
f 177 218 178
f 178 218 179
f 179 218 180
f 180 218 219
f 180 219 182
f 182 184 183
f 182 219 220
f 182 220 184
f 184 220 221
f 184 221 185
f 185 221 222
f 185 222 186
f 186 222 223
f 186 223 224
f 186 224 187
f 187 224 189
f 188 189 191
f 189 224 225
f 189 225 191
f 190 191 192
f 191 225 192
f 192 225 226
f 192 226 227
f 192 227 200
f 193 228 229
f 193 229 198
f 193 198 194
f 193 195 228
f 195 200 228
f 196 198 230
f 196 230 231
f 196 231 232
f 196 232 197
f 197 232 199
f 198 229 230
f 199 232 203
f 200 233 228
f 200 227 234
f 200 234 233
f 201 202 235
f 201 235 204
f 202 203 236
f 202 236 235
f 203 232 237
f 203 237 236
f 204 235 238
f 204 238 205
f 205 238 206
f 206 238 239
f 206 239 240
f 206 240 207
f 207 240 208
f 208 240 209
f 209 241 211
f 209 240 242
f 209 242 241
f 210 211 212
f 211 243 212
f 211 241 243
f 212 244 213
f 212 243 244
f 213 245 246
f 213 246 214
f 213 244 245
f 214 246 215
f 215 247 216
f 215 246 248
f 215 248 247
f 216 247 249
f 216 249 250
f 216 250 217
f 217 250 219
f 217 219 218
f 219 250 220
f 220 250 251
f 220 251 221
f 221 251 222
f 222 251 252
f 222 252 223
f 223 252 226
f 223 226 225
f 223 225 224
f 226 252 227
f 227 252 234
f 228 253 229
f 228 233 254
f 228 254 253
f 229 253 230
f 230 243 231
f 230 253 244
f 230 244 243
f 231 243 255
f 231 255 256
f 231 256 237
f 231 237 232
f 233 234 254
f 234 252 249
f 234 249 254
f 235 236 238
f 236 239 238
f 236 237 256
f 236 256 239
f 239 256 242
f 239 242 240
f 241 242 255
f 241 255 243
f 242 256 255
f 244 253 245
f 245 253 248
f 245 248 246
f 247 248 254
f 247 254 249
f 248 253 254
f 249 252 251
f 249 251 250
