v -0.002734 -0.011138 0.043275
v -0.002734 -0.013726 0.042917
v -0.002734 -0.008764 0.042202
v -0.007106 -0.007740 0.050329
v -0.006495 -0.013996 0.046749
v -0.004299 -0.016260 0.043296
v -0.003551 -0.018786 0.040552
v -0.003402 -0.020805 0.037992
v -0.003028 -0.023387 0.029518
v -0.002753 -0.022655 0.023993
v -0.003184 -0.013920 0.008717
v -0.003475 -0.009947 0.006026
v -0.006770 -0.009007 0.003797
v -0.028283 -0.008126 0.052442
v -0.013574 -0.008095 0.054435
v -0.010016 -0.008668 0.052621
v -0.009508 -0.008725 0.002583
v -0.014655 -0.008215 0.001321
v -0.018076 -0.008078 0.001268
v -0.041739 -0.007909 0.032162
v -0.037760 -0.007889 0.043264
v -0.007965 -0.017153 0.045677
v -0.009874 -0.011956 0.050671
v -0.008798 -0.014476 0.048295
v -0.007010 -0.019365 0.042949
v -0.006174 -0.022094 0.038806
v -0.003730 -0.022213 0.035878
v -0.003643 -0.023254 0.032709
v -0.005789 -0.024482 0.029912
v -0.004147 -0.023773 0.026527
v -0.005475 -0.023786 0.023646
v -0.003364 -0.022326 0.021691
v -0.003818 -0.021523 0.018715
v -0.003734 -0.019145 0.014179
v -0.003532 -0.016874 0.011314
v -0.005609 -0.015578 0.008507
v -0.006350 -0.013335 0.006378
v -0.006403 -0.011284 0.005027
v -0.030532 -0.008533 0.050776
v -0.028642 -0.010301 0.050981
v -0.025362 -0.011188 0.052101
v -0.024258 -0.008764 0.053851
v -0.016881 -0.008220 0.054971
v -0.032808 -0.008339 0.049020
v -0.015201 -0.011677 0.052868
v -0.012414 -0.010959 0.052532
v -0.012078 -0.008769 0.001920
v -0.008916 -0.011934 0.004391
v -0.011203 -0.011398 0.003424
v -0.014231 -0.011769 0.003124
v -0.016816 -0.010333 0.002241
v -0.020902 -0.010792 0.003019
v -0.020929 -0.008504 0.001883
v -0.024193 -0.008207 0.002646
v -0.037111 -0.008254 0.012723
v -0.041525 -0.008927 0.028262
v -0.040640 -0.010116 0.031810
v -0.040403 -0.009340 0.035237
v -0.039540 -0.009160 0.038160
v -0.038841 -0.008243 0.040920
v -0.041720 -0.008115 0.024734
v -0.036489 -0.010237 0.043127
v -0.035595 -0.008639 0.045798
v -0.011218 -0.015359 0.049099
v -0.010619 -0.017810 0.046718
v -0.012562 -0.013909 0.050744
v -0.010772 -0.020119 0.044347
v -0.008206 -0.021591 0.041077
v -0.007717 -0.023519 0.037203
v -0.006613 -0.023951 0.034822
v -0.006812 -0.024576 0.032477
v -0.009126 -0.025463 0.029344
v -0.008324 -0.025055 0.025880
v -0.008721 -0.024793 0.023541
v -0.008381 -0.023855 0.020340
v -0.005506 -0.022819 0.020066
v -0.007087 -0.022373 0.017391
v -0.004086 -0.020533 0.016287
v -0.006102 -0.018665 0.011713
v -0.006617 -0.020693 0.014436
v -0.008599 -0.016751 0.008139
v -0.009443 -0.015132 0.006378
v -0.030314 -0.011101 0.049278
v -0.027687 -0.012402 0.050098
v -0.020383 -0.012551 0.052574
v -0.025538 -0.013255 0.050602
v -0.023395 -0.014648 0.050324
v -0.020131 -0.008991 0.054603
v -0.018439 -0.010625 0.053872
v -0.032808 -0.010665 0.047396
v -0.017496 -0.014693 0.051165
v -0.014575 -0.015909 0.049798
v -0.012005 -0.014398 0.005211
v -0.015713 -0.014423 0.004827
v -0.018397 -0.013047 0.003986
v -0.020849 -0.012901 0.004323
v -0.024507 -0.010258 0.003765
v -0.029303 -0.008469 0.005116
v -0.026985 -0.008702 0.004012
v -0.038379 -0.008287 0.014878
v -0.040598 -0.008202 0.019935
v -0.033155 -0.008940 0.008602
v -0.034900 -0.009043 0.010510
v -0.035832 -0.010541 0.013096
v -0.040628 -0.010294 0.025239
v -0.039631 -0.012149 0.027116
v -0.039085 -0.011872 0.034438
v -0.038604 -0.013520 0.030044
v -0.037100 -0.013243 0.037829
v -0.037440 -0.011467 0.039842
v -0.040811 -0.009146 0.022621
v -0.035340 -0.012523 0.042407
v -0.034496 -0.011035 0.045199
v -0.012822 -0.017814 0.047617
v -0.014151 -0.019657 0.046061
v -0.011684 -0.022682 0.041198
v -0.010665 -0.024169 0.037655
v -0.009794 -0.024768 0.035295
v -0.009596 -0.025264 0.032877
v -0.012391 -0.025648 0.033145
v -0.012284 -0.025885 0.028761
v -0.012234 -0.025270 0.023520
v -0.011898 -0.024692 0.020986
v -0.010730 -0.023542 0.017890
v -0.009901 -0.021706 0.014289
v -0.009137 -0.019124 0.010604
v -0.012780 -0.017775 0.007986
v -0.030253 -0.013132 0.047711
v -0.026725 -0.015329 0.048137
v -0.020173 -0.015788 0.050192
v -0.023613 -0.016765 0.048326
v -0.031712 -0.014154 0.045330
v -0.016935 -0.017387 0.048915
v -0.014586 -0.016467 0.006520
v -0.017259 -0.016554 0.006735
v -0.019294 -0.014993 0.005631
v -0.022105 -0.014892 0.006325
v -0.024178 -0.012955 0.005453
v -0.028378 -0.011096 0.006199
v -0.031200 -0.009373 0.007082
v -0.037776 -0.011124 0.016986
v -0.039513 -0.008646 0.017575
v -0.039051 -0.011037 0.020051
v -0.030276 -0.012203 0.008470
v -0.032659 -0.012884 0.011440
v -0.035500 -0.012482 0.014731
v -0.039089 -0.012413 0.023499
v -0.038035 -0.014188 0.024866
v -0.037302 -0.015338 0.027673
v -0.036917 -0.015374 0.032125
v -0.036745 -0.014689 0.035768
v -0.034522 -0.015964 0.038528
v -0.035359 -0.014032 0.040357
v -0.033381 -0.014737 0.042570
v -0.016908 -0.019575 0.046586
v -0.015923 -0.021754 0.043580
v -0.012860 -0.023890 0.039301
v -0.012753 -0.024923 0.036583
v -0.015117 -0.025492 0.034743
v -0.015060 -0.025895 0.031663
v -0.016614 -0.025853 0.029334
v -0.013998 -0.025677 0.025617
v -0.015949 -0.024845 0.021286
v -0.013391 -0.024045 0.018426
v -0.011955 -0.022675 0.015351
v -0.013238 -0.021299 0.012518
v -0.012708 -0.019767 0.010315
v -0.016511 -0.018173 0.008307
v -0.029406 -0.016131 0.045367
v -0.026465 -0.018230 0.045135
v -0.019963 -0.018194 0.047974
v -0.022800 -0.018866 0.046355
v -0.031139 -0.016852 0.042549
v -0.019474 -0.017080 0.007666
v -0.021948 -0.017323 0.008754
v -0.024045 -0.016127 0.008349
v -0.026591 -0.013312 0.006883
v -0.035065 -0.014871 0.017517
v -0.036901 -0.013794 0.019409
v -0.037409 -0.014403 0.022411
v -0.028482 -0.014224 0.008985
v -0.030208 -0.015841 0.012402
v -0.033449 -0.014622 0.014542
v -0.036382 -0.016239 0.024792
v -0.035408 -0.017394 0.029828
v -0.034477 -0.017940 0.032798
v -0.034118 -0.017417 0.035963
v -0.032220 -0.017593 0.039705
v -0.019619 -0.020354 0.045435
v -0.018916 -0.022637 0.041887
v -0.015896 -0.023579 0.040347
v -0.015526 -0.024624 0.037839
v -0.019340 -0.025259 0.033949
v -0.019401 -0.024585 0.036882
v -0.019126 -0.025488 0.027641
v -0.016484 -0.025614 0.025644
v -0.018955 -0.025186 0.024487
v -0.020436 -0.024369 0.021706
v -0.019107 -0.023867 0.018926
v -0.015869 -0.023437 0.016723
v -0.014941 -0.022291 0.014132
v -0.016224 -0.020181 0.010767
v -0.019634 -0.018832 0.009732
v -0.028562 -0.018964 0.042328
v -0.026538 -0.020437 0.041708
v -0.024564 -0.020414 0.043290
v -0.021219 -0.021287 0.043622
v -0.029345 -0.019660 0.040010
v -0.020967 -0.020057 0.011903
v -0.023491 -0.018399 0.010841
v -0.026366 -0.015150 0.008528
v -0.033079 -0.016435 0.016960
v -0.033965 -0.017259 0.020382
v -0.034713 -0.017435 0.022674
v -0.026893 -0.017112 0.011335
v -0.026534 -0.018765 0.013495
v -0.030047 -0.017469 0.014773
v -0.034717 -0.017967 0.025475
v -0.032976 -0.019611 0.027715
v -0.031655 -0.020615 0.030779
v -0.031785 -0.019643 0.035327
v -0.030486 -0.019847 0.037682
v -0.022070 -0.022284 0.041445
v -0.021456 -0.023441 0.039201
v -0.018347 -0.023976 0.039138
v -0.021883 -0.024571 0.034990
v -0.022517 -0.024790 0.031952
v -0.023987 -0.024303 0.026790
v -0.023067 -0.024253 0.024377
v -0.023036 -0.024738 0.029339
v -0.022597 -0.023434 0.020313
v -0.022979 -0.022374 0.017675
v -0.020134 -0.022330 0.015619
v -0.017710 -0.022133 0.014153
v -0.018668 -0.020631 0.011866
v -0.027852 -0.021592 0.037561
v -0.024583 -0.022188 0.039821
v -0.023193 -0.020272 0.013548
v -0.031105 -0.018571 0.018290
v -0.029944 -0.020249 0.020492
v -0.031911 -0.019792 0.023289
v -0.025885 -0.020594 0.016234
v -0.028592 -0.019115 0.016071
v -0.030891 -0.020985 0.026080
v -0.029272 -0.022147 0.031137
v -0.029669 -0.021482 0.033918
v -0.023911 -0.023492 0.036846
v -0.026355 -0.023386 0.033245
v -0.026569 -0.022801 0.035747
v -0.026087 -0.023688 0.030464
v -0.026603 -0.022966 0.024182
v -0.028107 -0.022726 0.027825
v -0.025675 -0.022653 0.021370
v -0.026110 -0.021550 0.018610
v -0.028676 -0.020199 0.018453
v -0.028650 -0.021539 0.022285
f 1 2 3
f 1 3 4
f 1 4 2
f 2 4 5
f 2 5 6
f 2 6 7
f 2 7 8
f 2 8 9
f 2 9 10
f 2 10 3
f 3 10 11
f 3 11 12
f 3 12 13
f 3 13 4
f 4 14 15
f 4 15 16
f 4 16 5
f 4 13 17
f 4 17 18
f 4 18 19
f 4 19 20
f 4 20 21
f 4 21 14
f 5 22 6
f 5 16 23
f 5 23 24
f 5 24 22
f 6 22 7
f 7 22 25
f 7 25 8
f 8 25 26
f 8 26 27
f 8 27 9
f 9 27 28
f 9 28 29
f 9 29 30
f 9 30 10
f 10 30 31
f 10 31 32
f 10 32 33
f 10 33 34
f 10 34 35
f 10 35 11
f 11 35 36
f 11 36 37
f 11 37 38
f 11 38 12
f 12 38 13
f 13 38 17
f 14 39 40
f 14 40 41
f 14 41 42
f 14 42 43
f 14 43 15
f 14 21 44
f 14 44 39
f 15 43 45
f 15 45 46
f 15 46 16
f 16 46 23
f 17 47 18
f 17 38 48
f 17 48 49
f 17 49 47
f 18 47 50
f 18 50 51
f 18 51 19
f 19 51 52
f 19 52 53
f 19 53 54
f 19 54 55
f 19 55 20
f 20 56 57
f 20 57 58
f 20 58 59
f 20 59 60
f 20 60 21
f 20 55 61
f 20 61 56
f 21 62 63
f 21 63 44
f 21 60 62
f 22 24 64
f 22 64 65
f 22 65 25
f 23 46 66
f 23 66 64
f 23 64 24
f 25 65 67
f 25 67 68
f 25 68 26
f 26 68 69
f 26 69 27
f 27 69 70
f 27 70 28
f 28 70 71
f 28 71 29
f 29 72 73
f 29 73 30
f 29 71 72
f 30 73 31
f 31 73 74
f 31 74 75
f 31 75 76
f 31 76 32
f 32 76 33
f 33 76 77
f 33 77 78
f 33 78 34
f 34 79 35
f 34 78 80
f 34 80 79
f 35 79 36
f 36 81 82
f 36 82 37
f 36 79 81
f 37 82 48
f 37 48 38
f 39 44 83
f 39 83 40
f 40 83 84
f 40 84 41
f 41 85 42
f 41 84 86
f 41 86 87
f 41 87 85
f 42 85 88
f 42 88 43
f 43 88 89
f 43 89 45
f 44 63 90
f 44 90 83
f 45 89 91
f 45 91 92
f 45 92 66
f 45 66 46
f 47 49 50
f 48 82 49
f 49 82 93
f 49 93 50
f 50 93 94
f 50 94 51
f 51 94 95
f 51 95 52
f 52 54 53
f 52 95 96
f 52 96 97
f 52 97 54
f 54 98 55
f 54 97 99
f 54 99 98
f 55 100 101
f 55 101 61
f 55 98 102
f 55 102 103
f 55 103 104
f 55 104 100
f 56 61 105
f 56 105 106
f 56 106 57
f 57 107 58
f 57 106 108
f 57 108 107
f 58 109 59
f 58 107 109
f 59 110 60
f 59 109 110
f 60 110 62
f 61 101 111
f 61 111 105
f 62 110 112
f 62 112 113
f 62 113 63
f 63 113 90
f 64 92 114
f 64 114 65
f 64 66 92
f 65 114 67
f 67 114 115
f 67 115 116
f 67 116 68
f 68 116 69
f 69 117 118
f 69 118 70
f 69 116 117
f 70 118 71
f 71 118 119
f 71 119 72
f 72 119 120
f 72 120 121
f 72 121 73
f 73 122 74
f 73 121 122
f 74 122 123
f 74 123 75
f 75 124 77
f 75 77 76
f 75 123 124
f 77 125 80
f 77 80 78
f 77 124 125
f 79 80 126
f 79 126 81
f 80 125 126
f 81 126 127
f 81 127 82
f 82 127 93
f 83 90 128
f 83 128 84
f 84 128 129
f 84 129 86
f 85 89 88
f 85 87 130
f 85 130 91
f 85 91 89
f 86 129 131
f 86 131 87
f 87 131 130
f 90 113 132
f 90 132 128
f 91 130 133
f 91 133 92
f 92 133 114
f 93 127 134
f 93 134 94
f 94 134 135
f 94 135 136
f 94 136 95
f 95 136 96
f 96 136 137
f 96 137 138
f 96 138 97
f 97 138 139
f 97 139 99
f 98 99 139
f 98 139 140
f 98 140 102
f 100 141 142
f 100 142 101
f 100 104 141
f 101 142 143
f 101 143 111
f 102 144 145
f 102 145 103
f 102 140 144
f 103 145 104
f 104 145 146
f 104 146 141
f 105 111 147
f 105 147 106
f 106 147 148
f 106 148 149
f 106 149 108
f 107 108 150
f 107 150 151
f 107 151 109
f 108 149 150
f 109 151 152
f 109 152 153
f 109 153 110
f 110 153 112
f 111 143 147
f 112 154 113
f 112 153 154
f 113 154 132
f 114 133 115
f 115 155 156
f 115 156 116
f 115 133 155
f 116 156 157
f 116 157 117
f 117 157 158
f 117 158 118
f 118 158 120
f 118 120 119
f 120 158 159
f 120 159 160
f 120 160 121
f 121 160 161
f 121 161 162
f 121 162 122
f 122 163 123
f 122 162 163
f 123 163 164
f 123 164 124
f 124 164 165
f 124 165 125
f 125 165 166
f 125 166 167
f 125 167 126
f 126 167 127
f 127 167 168
f 127 168 134
f 128 132 169
f 128 169 129
f 129 169 170
f 129 170 131
f 130 131 171
f 130 171 133
f 131 170 172
f 131 172 171
f 132 154 173
f 132 173 169
f 133 171 155
f 134 168 135
f 135 168 174
f 135 174 136
f 136 174 137
f 137 174 175
f 137 175 176
f 137 176 138
f 138 176 177
f 138 177 139
f 139 177 144
f 139 144 140
f 141 146 178
f 141 178 179
f 141 179 143
f 141 143 142
f 143 179 180
f 143 180 147
f 144 181 145
f 144 177 181
f 145 182 183
f 145 183 146
f 145 181 182
f 146 183 178
f 147 180 148
f 148 184 149
f 148 180 184
f 149 185 150
f 149 184 185
f 150 186 151
f 150 185 186
f 151 187 152
f 151 186 187
f 152 188 154
f 152 154 153
f 152 187 188
f 154 188 173
f 155 189 156
f 155 171 189
f 156 189 190
f 156 190 191
f 156 191 157
f 157 191 192
f 157 192 158
f 158 192 159
f 159 193 160
f 159 192 194
f 159 194 193
f 160 193 161
f 161 193 195
f 161 195 196
f 161 196 162
f 162 196 163
f 163 196 197
f 163 197 198
f 163 198 199
f 163 199 200
f 163 200 164
f 164 200 165
f 165 200 201
f 165 201 166
f 166 201 202
f 166 202 167
f 167 202 168
f 168 202 203
f 168 203 174
f 169 173 204
f 169 204 170
f 170 204 205
f 170 205 206
f 170 206 172
f 171 172 189
f 172 206 207
f 172 207 189
f 173 188 208
f 173 208 204
f 174 203 175
f 175 203 209
f 175 209 210
f 175 210 176
f 176 210 211
f 176 211 177
f 177 211 181
f 178 183 212
f 178 212 213
f 178 213 179
f 179 213 214
f 179 214 180
f 180 214 184
f 181 211 215
f 181 215 182
f 182 215 216
f 182 216 217
f 182 217 183
f 183 217 212
f 184 214 218
f 184 218 185
f 185 218 219
f 185 219 220
f 185 220 186
f 186 220 221
f 186 221 187
f 187 221 222
f 187 222 188
f 188 222 208
f 189 207 190
f 190 207 223
f 190 223 224
f 190 224 225
f 190 225 191
f 191 225 192
f 192 225 194
f 193 194 226
f 193 226 227
f 193 227 195
f 194 225 224
f 194 224 226
f 195 228 229
f 195 229 197
f 195 197 196
f 195 227 230
f 195 230 228
f 197 229 198
f 198 229 231
f 198 231 199
f 199 231 232
f 199 232 233
f 199 233 234
f 199 234 200
f 200 234 201
f 201 234 202
f 202 234 235
f 202 235 203
f 203 235 209
f 204 208 205
f 205 208 236
f 205 236 237
f 205 237 206
f 206 237 223
f 206 223 207
f 208 222 236
f 209 238 210
f 209 235 233
f 209 233 238
f 210 238 216
f 210 216 215
f 210 215 211
f 212 217 239
f 212 239 213
f 213 239 240
f 213 240 241
f 213 241 214
f 214 241 218
f 216 238 242
f 216 242 243
f 216 243 217
f 217 243 239
f 218 241 244
f 218 244 219
f 219 244 220
f 220 245 246
f 220 246 221
f 220 244 245
f 221 246 222
f 222 246 236
f 223 237 224
f 224 237 247
f 224 247 226
f 226 248 227
f 226 247 249
f 226 249 248
f 227 248 250
f 227 250 230
f 228 251 229
f 228 230 250
f 228 250 252
f 228 252 251
f 229 251 253
f 229 253 231
f 231 254 232
f 231 253 254
f 232 254 242
f 232 242 238
f 232 238 233
f 233 235 234
f 236 249 237
f 236 246 249
f 237 249 247
f 239 255 240
f 239 243 255
f 240 256 241
f 240 255 256
f 241 256 244
f 242 254 255
f 242 255 243
f 244 256 251
f 244 251 252
f 244 252 245
f 245 252 250
f 245 250 248
f 245 248 246
f 246 248 249
f 251 256 253
f 253 256 254
f 254 256 255
