v -0.011430 0.061394 0.004110
v -0.011419 0.061392 0.004110
v -0.011430 0.061392 0.004274
v -0.011430 0.067612 0.007339
v -0.010299 0.067651 0.007306
v -0.009176 0.067645 0.007307
v -0.008056 0.067592 0.007350
v -0.004693 0.067326 0.007439
v -0.004820 0.061392 0.004626
v -0.011430 0.061392 0.014039
v -0.011430 0.068173 0.007792
v -0.011430 0.068803 0.008353
v -0.004457 0.068670 0.008513
v -0.003570 0.068644 0.008544
v -0.004774 0.068225 0.008098
v -0.003570 0.068083 0.008062
v -0.007463 0.067561 0.007376
v -0.001673 0.061392 0.004906
v -0.002450 0.061392 0.004819
v 0.007222 0.066540 0.008447
v -0.011430 0.067241 0.011771
v 0.022186 0.061392 0.017749
v 0.022211 0.062514 0.017824
v 0.022197 0.063701 0.017643
v 0.022211 0.065877 0.017091
v 0.021091 0.066870 0.016569
v -0.011430 0.069109 0.009059
v -0.004774 0.068941 0.008956
v -0.003570 0.068981 0.009105
v 0.004859 0.068683 0.009616
v 0.007635 0.061392 0.006279
v 0.010348 0.067543 0.009634
v 0.014365 0.066998 0.010098
v -0.011430 0.068111 0.011361
v 0.022211 0.066936 0.016697
v 0.022211 0.061392 0.017751
v 0.023147 0.062514 0.017695
v 0.023048 0.063635 0.017617
v 0.022868 0.064308 0.017499
v 0.022560 0.064308 0.017499
v 0.023334 0.065877 0.016970
v -0.011430 0.069122 0.010180
v -0.010299 0.069215 0.010180
v -0.009176 0.069250 0.010180
v -0.004693 0.069240 0.010180
v -0.003570 0.069235 0.010180
v 0.004276 0.068891 0.010180
v 0.004276 0.068706 0.009586
v 0.015439 0.068875 0.012323
v 0.015778 0.068663 0.011884
v 0.014365 0.067708 0.010566
v 0.011002 0.061392 0.007065
v 0.015177 0.067629 0.010670
v 0.015926 0.067504 0.010778
v 0.015524 0.067077 0.010445
v 0.016605 0.066758 0.010583
v -0.011430 0.068119 0.011356
v 0.022211 0.067496 0.016258
v 0.021091 0.067431 0.016271
v 0.023334 0.066702 0.016587
v 0.022991 0.061392 0.017604
v 0.023709 0.062514 0.017271
v 0.023610 0.063635 0.017308
v 0.024048 0.065877 0.016547
v 0.023931 0.066488 0.016407
v -0.011430 0.068816 0.010888
v -0.011419 0.068817 0.010889
v -0.010299 0.068896 0.010962
v 0.013242 0.068736 0.014159
v 0.013242 0.068908 0.013542
v 0.014365 0.068935 0.013542
v 0.015485 0.068950 0.013542
v 0.016605 0.068868 0.012600
v 0.016605 0.068544 0.012040
v 0.016605 0.067983 0.011456
v 0.017339 0.066545 0.010691
v 0.014206 0.061392 0.008036
v 0.017728 0.067765 0.011659
v 0.021713 0.067591 0.012953
v 0.021066 0.066911 0.012239
v 0.016605 0.067318 0.010896
v 0.022211 0.067825 0.015697
v 0.021091 0.067866 0.015711
v 0.022977 0.067709 0.015493
v 0.012613 0.068711 0.014134
v 0.023603 0.061392 0.016931
v 0.023995 0.061682 0.016550
v 0.024111 0.062514 0.016710
v 0.024193 0.063635 0.016747
v 0.024178 0.064756 0.016691
v 0.024514 0.064756 0.015784
v 0.024281 0.065877 0.015784
v 0.024012 0.066615 0.015784
v 0.016605 0.068703 0.014126
v 0.017216 0.068686 0.014112
v 0.016605 0.068892 0.013542
v 0.017477 0.068765 0.012824
v 0.017717 0.066951 0.011061
v 0.021423 0.066186 0.011910
v 0.014365 0.061392 0.008095
v 0.022137 0.067808 0.013546
v 0.022953 0.067688 0.013922
v 0.022458 0.067338 0.013174
v 0.022137 0.066978 0.012706
v 0.022211 0.068112 0.014663
v 0.021091 0.068275 0.014663
v 0.023620 0.067250 0.014663
v 0.023062 0.067769 0.014663
v 0.023656 0.061392 0.016863
v 0.023938 0.061392 0.016252
v 0.024051 0.061392 0.015784
v 0.024097 0.061498 0.015784
v 0.024440 0.062514 0.015784
v 0.024588 0.063635 0.015784
v 0.024479 0.064756 0.014663
v 0.024249 0.065877 0.014663
v 0.024659 0.063635 0.014663
v 0.024041 0.066690 0.014663
v 0.021091 0.068107 0.013542
v 0.022896 0.066590 0.012875
v 0.022122 0.065838 0.012163
v 0.021691 0.065438 0.011841
v 0.015453 0.061392 0.008679
v 0.021691 0.065244 0.011841
v 0.023974 0.066587 0.013979
v 0.023299 0.066962 0.013577
v 0.023740 0.061392 0.014661
v 0.024062 0.061618 0.014885
v 0.024306 0.062421 0.014572
v 0.024140 0.062732 0.013905
v 0.024263 0.063635 0.013733
v 0.024140 0.064756 0.013768
v 0.023592 0.065877 0.013336
v 0.023030 0.065877 0.012764
v 0.023115 0.064756 0.012764
v 0.023818 0.061984 0.014138
v 0.023009 0.061392 0.014054
v 0.023641 0.061392 0.014516
v 0.023677 0.064756 0.013208
f 1 2 3
f 1 3 10
f 1 10 21
f 1 21 34
f 1 34 57
f 1 57 66
f 1 66 42
f 1 42 27
f 1 27 12
f 1 12 11
f 1 11 4
f 1 4 5
f 1 5 6
f 1 6 7
f 1 7 8
f 1 8 9
f 1 9 2
f 2 9 19
f 2 19 18
f 2 18 31
f 2 31 52
f 2 52 77
f 2 77 100
f 2 100 123
f 2 123 137
f 2 137 138
f 2 138 127
f 2 127 111
f 2 111 110
f 2 110 109
f 2 109 86
f 2 86 61
f 2 61 36
f 2 36 22
f 2 22 10
f 2 10 3
f 4 11 5
f 5 11 12
f 5 12 6
f 6 12 13
f 6 13 14
f 6 14 15
f 6 15 16
f 6 16 7
f 7 17 8
f 7 16 17
f 8 18 19
f 8 19 9
f 8 17 16
f 8 16 20
f 8 20 18
f 10 22 23
f 10 23 24
f 10 24 25
f 10 25 26
f 10 26 21
f 12 27 28
f 12 28 13
f 13 28 29
f 13 29 14
f 14 16 15
f 14 29 30
f 14 30 16
f 16 30 20
f 18 20 31
f 20 32 33
f 20 33 31
f 20 30 32
f 21 26 35
f 21 35 34
f 22 36 23
f 23 36 37
f 23 37 38
f 23 38 24
f 24 38 39
f 24 39 40
f 24 40 25
f 25 40 39
f 25 39 41
f 25 41 35
f 25 35 26
f 27 42 43
f 27 43 44
f 27 44 45
f 27 45 46
f 27 46 29
f 27 29 28
f 29 46 47
f 29 47 48
f 29 48 30
f 30 48 47
f 30 47 49
f 30 49 50
f 30 50 51
f 30 51 32
f 31 33 52
f 32 51 53
f 32 53 33
f 33 53 54
f 33 54 55
f 33 55 56
f 33 56 52
f 34 35 57
f 35 58 59
f 35 59 57
f 35 41 60
f 35 60 58
f 36 61 37
f 37 61 62
f 37 62 63
f 37 63 38
f 38 63 41
f 38 41 39
f 41 63 64
f 41 64 65
f 41 65 60
f 42 66 67
f 42 67 68
f 42 68 43
f 43 68 69
f 43 69 44
f 44 69 70
f 44 70 71
f 44 71 72
f 44 72 45
f 45 72 46
f 46 72 73
f 46 73 49
f 46 49 47
f 49 73 50
f 50 73 74
f 50 74 75
f 50 75 53
f 50 53 51
f 52 56 76
f 52 76 77
f 53 75 54
f 54 75 78
f 54 78 79
f 54 79 80
f 54 80 81
f 54 81 76
f 54 76 56
f 54 56 55
f 57 67 66
f 57 59 67
f 58 82 83
f 58 83 69
f 58 69 59
f 58 60 84
f 58 84 82
f 59 69 85
f 59 85 67
f 60 65 84
f 61 86 62
f 62 86 87
f 62 87 88
f 62 88 89
f 62 89 63
f 63 89 90
f 63 90 64
f 64 90 91
f 64 91 92
f 64 92 65
f 65 92 93
f 65 93 84
f 67 85 68
f 68 85 69
f 69 72 71
f 69 71 70
f 69 83 94
f 69 94 72
f 72 94 95
f 72 95 96
f 72 96 73
f 73 96 97
f 73 97 74
f 74 97 79
f 74 79 75
f 75 79 78
f 76 81 98
f 76 98 99
f 76 99 77
f 77 99 100
f 79 101 102
f 79 102 103
f 79 103 104
f 79 104 80
f 79 97 101
f 80 104 99
f 80 99 98
f 80 98 81
f 82 105 106
f 82 106 95
f 82 95 83
f 82 84 105
f 83 95 94
f 84 93 107
f 84 107 108
f 84 108 105
f 86 109 87
f 87 109 110
f 87 110 111
f 87 111 112
f 87 112 113
f 87 113 88
f 88 113 114
f 88 114 89
f 89 114 90
f 90 114 91
f 91 115 116
f 91 116 92
f 91 114 117
f 91 117 115
f 92 116 118
f 92 118 93
f 93 118 107
f 95 106 96
f 96 106 97
f 97 106 105
f 97 105 119
f 97 119 101
f 99 104 120
f 99 120 121
f 99 121 122
f 99 122 100
f 100 122 124
f 100 124 123
f 101 119 102
f 102 120 103
f 102 119 105
f 102 105 108
f 102 108 107
f 102 107 125
f 102 125 126
f 102 126 120
f 103 120 104
f 107 118 125
f 111 127 128
f 111 128 112
f 112 128 113
f 113 129 117
f 113 117 114
f 113 128 129
f 115 117 125
f 115 125 116
f 116 125 118
f 117 129 130
f 117 130 131
f 117 131 132
f 117 132 125
f 120 126 125
f 120 125 133
f 120 133 134
f 120 134 121
f 121 134 122
f 122 134 135
f 122 135 124
f 123 124 135
f 123 135 131
f 123 131 130
f 123 130 136
f 123 136 137
f 125 132 133
f 127 138 128
f 128 130 129
f 128 138 136
f 128 136 130
f 131 135 139
f 131 139 132
f 132 139 133
f 133 139 134
f 134 139 135
f 136 138 137
