v 0.021572 0.030860 0.007389
v 0.021370 0.030644 0.015296
v 0.021744 0.030644 0.009622
v 0.021661 0.027129 0.007319
v 0.021153 0.030428 0.005697
v 0.020249 0.030860 0.004066
v 0.020160 0.030860 0.017373
v 0.021041 0.024385 0.015783
v 0.021303 0.023261 0.014662
v 0.021676 0.028353 0.013162
v 0.021669 0.026625 0.010771
v 0.021183 0.024385 0.005697
v 0.020272 -0.040621 0.007380
v 0.020541 -0.006487 0.003986
v 0.020541 0.017153 0.003986
v 0.019405 0.029448 0.002889
v 0.018419 0.030860 0.002734
v 0.018628 0.030428 0.018428
v 0.020018 0.028310 0.017557
v 0.015976 0.030860 0.018945
v 0.020533 0.009180 0.015233
v 0.021026 0.015979 0.014662
v 0.019316 -0.030530 0.013376
v 0.019136 -0.033612 0.013283
v 0.019039 -0.035536 0.012938
v 0.019345 -0.039187 0.010629
v 0.019540 -0.041089 0.009129
v 0.019413 -0.042011 0.006672
v 0.019585 -0.040621 0.005433
v 0.019435 -0.026748 0.002842
v 0.018950 -0.013718 0.001782
v 0.018531 -0.011471 0.001442
v 0.018509 -0.005882 0.001533
v 0.018449 -0.000508 0.001611
v 0.017336 -0.015958 0.000562
v 0.017254 -0.010808 0.000630
v 0.016043 0.030644 0.002123
v 0.012405 0.030666 0.001766
v 0.001162 0.030860 0.001201
v 0.016268 0.028872 0.018904
v 0.017231 0.023556 0.018615
v 0.017724 0.013177 0.017913
v 0.018307 0.010238 0.017477
v 0.017978 -0.029968 0.015184
v 0.012614 0.030860 0.019164
v 0.015483 0.026070 0.018923
v 0.017620 -0.033893 0.015142
v 0.017358 -0.035809 0.014918
v 0.018658 -0.037430 0.012786
v 0.018337 -0.042112 0.009747
v 0.017724 -0.042681 0.007380
v 0.017724 -0.042306 0.005619
v 0.019413 -0.034484 0.003997
v 0.016888 -0.041255 0.003957
v 0.017089 -0.039598 0.002853
v 0.017986 -0.036702 0.002334
v 0.018322 -0.029060 0.001723
v 0.018501 -0.023802 0.001520
v 0.018598 -0.019322 0.001474
v 0.017007 -0.021562 0.000368
v 0.015483 -0.018198 0.000044
v 0.015483 -0.013718 0.000215
v 0.014945 -0.000789 0.000638
v 0.015102 0.025091 0.001719
v 0.013795 -0.015958 -0.000047
v -0.006048 0.026128 0.000626
v -0.012981 0.030860 0.000630
v 0.016245 0.018010 0.018630
v 0.015745 -0.033447 0.016138
v 0.000654 0.030860 0.019044
v 0.007631 0.029988 0.019158
v 0.011553 0.025508 0.019074
v 0.014923 0.021021 0.018830
v 0.015483 -0.035579 0.015910
v 0.016088 -0.037336 0.015104
v 0.017044 -0.038157 0.013951
v 0.015789 -0.040160 0.013074
v 0.013100 -0.040023 0.014066
v 0.016604 -0.042522 0.009688
v 0.013234 -0.042710 0.007939
v 0.009873 -0.042702 0.007939
v -0.014303 -0.042306 0.007397
v 0.004852 -0.041204 0.002874
v 0.014781 -0.041046 0.003392
v -0.007504 -0.041824 0.005137
v 0.014714 -0.039209 0.001802
v 0.015916 -0.034001 0.000647
v 0.015999 -0.032215 0.000478
v 0.016903 -0.026395 0.000497
v 0.014355 -0.028290 -0.000070
v 0.014355 -0.023802 -0.000081
v 0.013795 -0.020438 -0.000104
v 0.009873 -0.020438 -0.000216
v -0.016268 0.030860 0.000607
v 0.015177 0.015799 0.018646
v 0.011553 -0.033051 0.016976
v 0.011553 -0.035298 0.016773
v 0.013197 -0.036530 0.016274
v -0.052120 0.030860 0.013973
v -0.046763 0.030644 0.017934
v -0.041123 0.030644 0.018338
v -0.030021 0.029484 0.018598
v -0.032158 0.027187 0.018589
v -0.028841 0.015914 0.018608
v -0.026652 0.013703 0.018596
v -0.008692 0.002503 0.018598
v -0.020377 -0.032770 0.017866
v -0.008065 -0.030530 0.017851
v 0.000908 -0.033684 0.017604
v 0.003956 -0.033418 0.017494
v 0.014101 -0.038863 0.014931
v 0.011553 -0.038755 0.015597
v 0.010433 -0.040189 0.014491
v 0.008192 -0.040758 0.014123
v 0.009873 -0.042357 0.010862
v 0.007631 -0.042702 0.009062
v 0.002028 -0.042638 0.008501
v -0.048407 -0.041161 0.011276
v -0.050043 -0.041096 0.010976
v -0.027668 -0.041183 0.005137
v -0.004703 -0.040455 0.002614
v -0.005599 -0.038719 0.001611
v 0.010993 -0.039497 0.001799
v 0.010993 -0.040477 0.002565
v -0.012555 -0.041492 0.004692
v -0.024867 -0.041240 0.005050
v -0.037574 -0.040189 0.004128
v -0.042079 -0.039036 0.002768
v -0.038321 -0.039115 0.002664
v 0.010478 -0.036746 0.000624
v 0.013996 -0.036638 0.000920
v 0.012674 -0.033893 0.000308
v 0.012114 -0.031091 0.000046
v 0.009873 -0.028290 -0.000191
v 0.012674 -0.026049 -0.000189
v -0.043924 -0.022686 -0.000013
v -0.043924 -0.018198 0.000010
v -0.043924 -0.012595 0.000061
v -0.030223 0.030860 0.000526
v 0.009312 -0.036911 0.016627
v 0.009873 -0.038381 0.015977
v -0.051851 0.030860 0.005073
v -0.052478 0.030644 0.010677
v -0.052591 0.028872 0.011301
v -0.052344 0.027244 0.014120
v -0.050917 0.030644 0.016246
v -0.049117 0.030637 0.017378
v -0.046726 0.022145 0.018130
v -0.046166 0.027748 0.018107
v -0.045045 0.029434 0.018198
v -0.048407 0.024385 0.017748
v -0.045045 0.019905 0.018266
v -0.040563 0.019905 0.018384
v -0.041123 0.009813 0.018302
v -0.031598 -0.029406 0.017853
v -0.027108 -0.027166 0.017955
v -0.027108 -0.032770 0.017796
v -0.028004 -0.035615 0.017490
v -0.018546 -0.035687 0.017525
v -0.001334 -0.036133 0.017234
v 0.007071 -0.039288 0.015590
v 0.005106 -0.040750 0.014243
v 0.004262 -0.041737 0.012420
v 0.005950 -0.042357 0.010762
v 0.002312 -0.042313 0.010771
v -0.011987 -0.041183 0.012981
v -0.028228 -0.040023 0.014046
v -0.048108 -0.040239 0.012744
v -0.050895 -0.039922 0.012573
v -0.052508 -0.039958 0.011597
v -0.051776 -0.040650 0.009620
v -0.046554 -0.040131 0.005016
v -0.040563 -0.040023 0.004085
v -0.041123 -0.037862 0.001931
v -0.040563 -0.036133 0.001099
v -0.045889 -0.038575 0.002833
v 0.003141 -0.035449 0.000429
v 0.005383 -0.032770 0.000114
v 0.002028 -0.032770 0.000114
v 0.004262 -0.030530 -0.000036
v -0.043924 -0.028290 0.000156
v -0.047286 -0.027728 0.000319
v -0.047847 -0.022686 0.000258
v -0.047286 -0.012595 0.000205
v -0.042258 0.022714 0.000649
v -0.037896 0.027504 0.000587
v -0.032718 0.029988 0.000530
v -0.036125 0.030738 0.000638
v -0.040309 0.030860 0.000812
v 0.002028 -0.036695 0.016950
v 0.007168 -0.038229 0.016214
v -0.051642 0.028872 0.004176
v -0.052396 0.026416 0.006120
v -0.052411 0.029650 0.007406
v -0.050544 0.030860 0.002954
v -0.054578 -0.038482 0.009028
v -0.051328 0.024385 0.015986
v -0.053741 -0.036695 0.011951
v -0.052381 0.021835 0.014182
v -0.050461 0.027748 0.016734
v -0.051156 0.019905 0.016284
v -0.049998 0.022145 0.017092
v -0.044507 -0.032237 0.017473
v -0.048407 0.019905 0.017767
v -0.048295 0.004210 0.017600
v -0.042804 0.012053 0.018276
v -0.038321 -0.035017 0.017202
v -0.045605 -0.035017 0.016866
v -0.044485 -0.036616 0.016292
v -0.040279 -0.037790 0.015889
v -0.027317 -0.038539 0.015829
v -0.020377 -0.038798 0.015776
v 0.003702 -0.038777 0.016070
v -0.006944 -0.039274 0.015578
v -0.043924 -0.039209 0.014328
v -0.047682 -0.039065 0.014195
v -0.048990 -0.037372 0.015227
v -0.051425 -0.036991 0.014281
v -0.053136 -0.039872 0.008687
v -0.050073 -0.039533 0.005314
v -0.044485 -0.036796 0.001605
v -0.046905 -0.033418 0.000600
v -0.043364 -0.032979 0.000458
v -0.049266 -0.037704 0.002950
v -0.047286 -0.037257 0.002201
v -0.045045 -0.030530 0.000308
v -0.048870 -0.030328 0.000753
v -0.049386 -0.025293 0.000645
v -0.049244 -0.020438 0.000562
v -0.049236 -0.014835 0.000547
v -0.049102 -0.009627 0.000602
v -0.047660 0.030860 0.001469
v -0.043924 0.030860 0.000983
v -0.041683 0.027748 0.000744
v -0.051179 0.021021 0.002944
v -0.052344 -0.014244 0.002878
v -0.052366 0.003727 0.003982
v -0.049072 0.028461 0.001721
v -0.052381 -0.019848 0.002823
v -0.052381 -0.030061 0.002831
v -0.052359 -0.034556 0.003973
v -0.051709 -0.037732 0.004623
v -0.052449 -0.039101 0.006355
v -0.052337 -0.029968 0.014708
v -0.052202 -0.034693 0.014478
v -0.052979 -0.032770 0.013541
v -0.051746 -0.032496 0.015265
v -0.049012 0.009086 0.017492
v -0.049057 -0.034333 0.016557
v -0.042804 -0.038100 0.015544
v -0.048751 -0.035780 0.001649
v -0.050021 -0.032971 0.001488
v -0.051261 -0.035183 0.002855
v -0.051320 -0.027555 0.001643
v -0.051022 -0.017075 0.001343
v -0.051365 -0.011730 0.001611
f 1 2 3
f 1 3 4
f 1 4 5
f 1 5 6
f 1 6 17
f 1 17 39
f 1 39 67
f 1 67 94
f 1 94 139
f 1 139 189
f 1 189 233
f 1 233 232
f 1 232 195
f 1 195 142
f 1 142 99
f 1 99 70
f 1 70 45
f 1 45 20
f 1 20 7
f 1 7 2
f 2 8 9
f 2 9 10
f 2 10 3
f 2 7 8
f 3 10 11
f 3 11 4
f 4 12 5
f 4 11 13
f 4 13 14
f 4 14 12
f 5 15 6
f 5 12 15
f 6 15 16
f 6 16 17
f 7 18 19
f 7 19 8
f 7 20 18
f 8 21 22
f 8 22 9
f 8 19 21
f 9 22 13
f 9 13 10
f 10 13 11
f 12 14 15
f 13 22 23
f 13 23 24
f 13 24 25
f 13 25 26
f 13 26 27
f 13 27 28
f 13 28 29
f 13 29 30
f 13 30 14
f 14 30 31
f 14 31 15
f 15 31 16
f 16 31 32
f 16 32 33
f 16 33 34
f 16 34 35
f 16 35 36
f 16 36 37
f 16 37 17
f 17 37 38
f 17 38 39
f 18 20 40
f 18 40 41
f 18 41 42
f 18 42 43
f 18 43 19
f 19 43 44
f 19 44 21
f 20 45 46
f 20 46 40
f 21 44 23
f 21 23 22
f 23 44 24
f 24 44 47
f 24 47 25
f 25 47 48
f 25 48 49
f 25 49 26
f 26 49 27
f 27 49 50
f 27 50 28
f 28 50 51
f 28 51 52
f 28 52 29
f 29 53 30
f 29 52 54
f 29 54 55
f 29 55 56
f 29 56 53
f 30 53 56
f 30 56 57
f 30 57 58
f 30 58 59
f 30 59 31
f 31 59 32
f 32 35 33
f 32 59 35
f 33 35 34
f 35 60 36
f 35 59 60
f 36 60 61
f 36 61 62
f 36 62 63
f 36 63 64
f 36 64 37
f 37 64 38
f 38 64 63
f 38 63 65
f 38 65 66
f 38 66 39
f 39 66 67
f 40 46 68
f 40 68 41
f 41 68 69
f 41 69 42
f 42 69 43
f 43 69 47
f 43 47 44
f 45 70 71
f 45 71 72
f 45 72 73
f 45 73 46
f 46 73 68
f 47 69 74
f 47 74 48
f 48 74 75
f 48 75 76
f 48 76 49
f 49 76 50
f 50 76 77
f 50 77 78
f 50 78 79
f 50 79 51
f 51 79 80
f 51 80 81
f 51 81 82
f 51 82 52
f 52 83 84
f 52 84 54
f 52 82 85
f 52 85 83
f 54 84 86
f 54 86 55
f 55 86 87
f 55 87 56
f 56 87 88
f 56 88 57
f 57 88 89
f 57 89 58
f 58 89 60
f 58 60 59
f 60 89 90
f 60 90 61
f 61 90 91
f 61 91 92
f 61 92 65
f 61 65 63
f 61 63 62
f 65 92 93
f 65 93 66
f 66 93 67
f 67 93 94
f 68 73 95
f 68 95 96
f 68 96 69
f 69 96 97
f 69 97 98
f 69 98 74
f 70 99 100
f 70 100 101
f 70 101 102
f 70 102 71
f 71 102 103
f 71 103 104
f 71 104 105
f 71 105 106
f 71 106 72
f 72 106 107
f 72 107 108
f 72 108 109
f 72 109 73
f 73 109 110
f 73 110 95
f 74 98 75
f 75 77 76
f 75 98 111
f 75 111 77
f 77 111 78
f 78 111 112
f 78 112 113
f 78 113 79
f 79 113 114
f 79 114 115
f 79 115 116
f 79 116 80
f 80 116 81
f 81 116 117
f 81 117 82
f 82 117 118
f 82 118 119
f 82 119 120
f 82 120 85
f 83 121 122
f 83 122 123
f 83 123 124
f 83 124 84
f 83 85 125
f 83 125 126
f 83 126 120
f 83 120 127
f 83 127 128
f 83 128 129
f 83 129 121
f 84 124 86
f 85 120 126
f 85 126 125
f 86 124 123
f 86 123 130
f 86 130 131
f 86 131 87
f 87 131 132
f 87 132 88
f 88 132 90
f 88 90 89
f 90 132 133
f 90 133 134
f 90 134 135
f 90 135 91
f 91 135 92
f 92 135 93
f 93 135 134
f 93 134 136
f 93 136 137
f 93 137 138
f 93 138 139
f 93 139 94
f 95 110 96
f 96 110 97
f 97 110 140
f 97 140 98
f 98 140 141
f 98 141 112
f 98 112 111
f 99 142 143
f 99 143 144
f 99 144 145
f 99 145 146
f 99 146 147
f 99 147 100
f 100 148 149
f 100 149 150
f 100 150 101
f 100 147 151
f 100 151 148
f 101 150 152
f 101 152 103
f 101 103 102
f 103 152 153
f 103 153 104
f 104 153 154
f 104 154 155
f 104 155 156
f 104 156 105
f 105 156 106
f 106 156 107
f 107 156 155
f 107 155 157
f 107 157 158
f 107 158 159
f 107 159 109
f 107 109 108
f 109 160 140
f 109 140 110
f 109 159 160
f 112 141 161
f 112 161 113
f 113 161 114
f 114 161 162
f 114 162 163
f 114 163 115
f 115 163 164
f 115 164 116
f 116 164 165
f 116 165 118
f 116 118 117
f 118 165 163
f 118 163 166
f 118 166 167
f 118 167 168
f 118 168 169
f 118 169 119
f 119 169 170
f 119 170 171
f 119 171 172
f 119 172 120
f 120 172 173
f 120 173 127
f 121 129 174
f 121 174 122
f 122 130 123
f 122 174 175
f 122 175 130
f 127 173 128
f 128 174 129
f 128 173 172
f 128 172 176
f 128 176 174
f 130 132 131
f 130 175 177
f 130 177 178
f 130 178 132
f 132 178 133
f 133 178 134
f 134 178 179
f 134 179 180
f 134 180 181
f 134 181 136
f 136 181 182
f 136 182 183
f 136 183 184
f 136 184 137
f 137 184 138
f 138 185 186
f 138 186 187
f 138 187 139
f 138 184 185
f 139 187 188
f 139 188 189
f 140 160 190
f 140 190 191
f 140 191 141
f 141 191 161
f 142 192 193
f 142 193 194
f 142 194 143
f 142 195 192
f 143 194 144
f 144 194 196
f 144 196 145
f 145 197 146
f 145 196 198
f 145 198 199
f 145 199 197
f 146 200 147
f 146 197 201
f 146 201 200
f 147 200 202
f 147 202 151
f 148 203 152
f 148 152 150
f 148 150 149
f 148 151 204
f 148 204 205
f 148 205 203
f 151 202 204
f 152 203 206
f 152 206 153
f 153 206 154
f 154 206 203
f 154 203 155
f 155 203 157
f 157 203 158
f 158 207 208
f 158 208 209
f 158 209 210
f 158 210 211
f 158 211 212
f 158 212 213
f 158 213 159
f 158 203 207
f 159 213 160
f 160 213 190
f 161 191 213
f 161 213 162
f 162 213 214
f 162 214 212
f 162 212 167
f 162 167 166
f 162 166 163
f 163 165 164
f 167 212 211
f 167 211 215
f 167 215 168
f 168 215 216
f 168 216 169
f 169 216 217
f 169 217 218
f 169 218 170
f 170 198 196
f 170 196 219
f 170 219 171
f 170 218 198
f 171 219 220
f 171 220 172
f 172 220 176
f 174 176 221
f 174 221 175
f 175 221 222
f 175 222 223
f 175 223 177
f 176 220 224
f 176 224 225
f 176 225 221
f 177 179 178
f 177 223 179
f 179 223 226
f 179 226 181
f 179 181 180
f 181 226 182
f 182 227 228
f 182 228 183
f 182 226 222
f 182 222 227
f 183 228 229
f 183 229 230
f 183 230 184
f 184 230 231
f 184 231 232
f 184 232 233
f 184 233 185
f 185 233 234
f 185 234 186
f 186 188 187
f 186 234 188
f 188 234 189
f 189 234 233
f 190 213 191
f 192 235 236
f 192 236 237
f 192 237 193
f 192 195 235
f 193 237 196
f 193 196 194
f 195 232 238
f 195 238 235
f 196 237 236
f 196 236 239
f 196 239 240
f 196 240 241
f 196 241 242
f 196 242 243
f 196 243 219
f 197 199 244
f 197 244 201
f 198 218 245
f 198 245 246
f 198 246 199
f 199 246 244
f 200 201 202
f 201 244 247
f 201 247 202
f 202 248 204
f 202 247 248
f 203 205 249
f 203 249 208
f 203 208 207
f 204 248 205
f 205 248 249
f 208 249 217
f 208 217 209
f 209 250 210
f 209 217 250
f 210 250 211
f 211 250 215
f 212 214 213
f 215 250 216
f 216 250 217
f 217 249 218
f 218 249 245
f 219 243 220
f 220 243 224
f 221 225 251
f 221 251 222
f 222 226 223
f 222 251 252
f 222 252 227
f 224 251 225
f 224 243 242
f 224 242 253
f 224 253 251
f 227 252 254
f 227 254 228
f 228 255 229
f 228 254 255
f 229 255 230
f 230 255 256
f 230 256 231
f 231 238 232
f 231 256 238
f 235 256 236
f 235 238 256
f 236 256 239
f 239 256 240
f 240 256 254
f 240 254 252
f 240 252 253
f 240 253 241
f 241 253 242
f 244 245 247
f 244 246 245
f 245 249 247
f 247 249 248
f 251 253 252
f 254 256 255
