v 0.023814 0.061388 0.016450
v 0.023338 0.061388 0.014316
v 0.022600 0.061388 0.017672
v 0.020571 0.032657 0.017507
v 0.021209 0.030873 0.015887
v 0.021578 0.031265 0.014445
v 0.021747 0.030873 0.010184
v 0.021731 0.030873 0.009060
v 0.021670 0.030873 0.007914
v 0.021685 0.031880 0.007262
v 0.021662 0.039564 0.006218
v 0.020909 0.046815 0.005313
v 0.020848 0.047935 0.005349
v 0.020563 0.053056 0.006217
v 0.019318 0.055625 0.006362
v 0.018473 0.056569 0.006128
v 0.016905 0.058723 0.006146
v 0.015030 0.060892 0.007295
v 0.015452 0.061388 0.008680
v 0.012493 0.057555 0.018637
v 0.016598 0.057355 0.018852
v 0.017727 0.057355 0.018840
v 0.018842 0.056904 0.018890
v 0.018842 0.055784 0.019028
v 0.018842 0.054663 0.019124
v 0.020440 0.052055 0.018727
v -0.037977 0.061388 0.013888
v -0.036770 0.059760 0.015258
v -0.034565 0.057546 0.016396
v 0.018519 0.030873 0.018495
v 0.019764 0.030873 0.017779
v 0.020548 0.030873 0.016966
v 0.021478 0.030873 0.006867
v 0.021132 0.030873 0.005697
v 0.021324 0.034488 0.005697
v 0.020671 0.032098 0.004287
v 0.020532 0.037302 0.004012
v 0.020609 0.042337 0.004388
v 0.019702 0.045701 0.003780
v 0.018296 0.053002 0.004005
v 0.016728 0.056202 0.004722
v 0.015483 0.056904 0.004517
v 0.014046 0.058744 0.004983
v 0.011625 0.060866 0.006218
v 0.010995 0.061388 0.007066
v 0.014276 0.061388 0.008068
v 0.012117 0.055784 0.019026
v 0.015483 0.055784 0.019147
v 0.017727 0.055784 0.019124
v 0.017727 0.054663 0.019245
v 0.016598 0.052420 0.019525
v 0.017727 0.052420 0.019368
v 0.018842 0.053540 0.019158
v 0.018842 0.051299 0.019224
v 0.018842 0.050179 0.019237
v -0.042719 0.061388 0.013351
v -0.041382 0.061111 0.013802
v -0.043933 0.060295 0.014092
v -0.045509 0.057908 0.015174
v -0.041689 0.058024 0.015538
v -0.044548 0.055264 0.016365
v -0.040559 0.055589 0.016503
v 0.017727 0.033368 0.018838
v 0.016598 0.032247 0.018990
v 0.015975 0.030873 0.018946
v 0.020579 0.030873 0.004494
v 0.019918 0.030873 0.003644
v 0.019118 0.035612 0.003068
v 0.018411 0.043089 0.002788
v 0.018796 0.047935 0.003596
v 0.017727 0.051299 0.003511
v 0.016275 0.050992 0.002807
v 0.017205 0.054152 0.003991
v 0.017389 0.048264 0.002955
v 0.015483 0.055811 0.004070
v 0.014107 0.056489 0.003920
v 0.010503 0.058640 0.003972
v 0.007629 0.060609 0.005278
v 0.004939 0.060872 0.005090
v 0.007629 0.061257 0.006061
v -0.002455 0.061329 0.004753
v -0.014867 0.061388 0.003732
v 0.012117 0.054663 0.019174
v 0.014353 0.054663 0.019270
v 0.015483 0.054663 0.019314
v -0.038323 0.052420 0.017136
v 0.016598 0.047935 0.019490
v 0.017727 0.050179 0.019408
v -0.043172 0.047544 0.017511
v 0.012117 0.050179 0.019508
v 0.015483 0.050179 0.019586
v 0.016598 0.033368 0.019070
v -0.046085 0.061287 0.012837
v -0.043764 0.061290 0.013288
v -0.049820 0.061388 0.010710
v -0.047315 0.061108 0.012711
v -0.044994 0.059563 0.014351
v -0.046170 0.059034 0.014433
v -0.047292 0.058837 0.014286
v -0.048375 0.058493 0.014192
v -0.047638 0.055930 0.015465
v -0.045048 0.050179 0.017065
v -0.043933 0.050179 0.017161
v -0.046362 0.052820 0.016528
v 0.013239 0.031127 0.019147
v 0.013239 0.030873 0.019130
v 0.018419 0.030873 0.002734
v 0.017727 0.032247 0.002406
v 0.016598 0.040096 0.002335
v 0.016598 0.045701 0.002502
v 0.015483 0.045701 0.002358
v 0.014353 0.047935 0.002374
v 0.014353 0.049056 0.002454
v 0.008758 0.051299 0.002075
v 0.003770 0.053089 0.001743
v 0.009873 0.053540 0.002431
v 0.010995 0.053540 0.002575
v 0.014061 0.053313 0.002961
v 0.013239 0.055784 0.003506
v 0.008843 0.055891 0.002928
v -0.001740 0.056423 0.001727
v -0.000218 0.058714 0.002802
v -0.005198 0.060863 0.004001
v -0.001425 0.060964 0.004490
v -0.036486 0.061287 0.001892
v -0.039752 0.061311 0.001739
v -0.053525 0.061388 0.001969
v 0.016598 0.046815 0.019464
v -0.046170 0.047935 0.017225
v -0.045401 0.045276 0.017503
v -0.045048 0.040096 0.017858
v -0.041689 0.042337 0.017885
v -0.040559 0.040096 0.018063
v -0.040559 0.030873 0.018334
v -0.028870 0.031692 0.018598
v 0.005384 0.037852 0.019262
v 0.009873 0.037852 0.019316
v 0.012055 0.030999 0.019205
v 0.015483 0.035612 0.019199
v 0.015483 0.034488 0.019162
v -0.048821 0.061146 0.011953
v -0.053786 0.061388 0.005495
v -0.050266 0.059500 0.012058
v -0.049413 0.060160 0.012342
v -0.048406 0.060495 0.012728
v -0.049228 0.057334 0.014293
v -0.048483 0.054705 0.015513
v -0.048406 0.052420 0.016127
v -0.047776 0.050179 0.016649
v 0.000650 0.030873 0.019043
v 0.016598 0.030873 0.002228
v 0.016598 0.032247 0.002193
v 0.015483 0.040096 0.002140
v 0.010488 0.042955 0.001762
v 0.005684 0.050827 0.001750
v -0.000218 0.053540 0.001499
v 0.013239 0.054663 0.003193
v -0.028232 0.054663 0.000240
v -0.026526 0.057475 0.000649
v -0.036079 0.060268 0.001213
v -0.010309 0.059808 0.002794
v -0.039445 0.060268 0.001062
v -0.045048 0.058413 0.000409
v -0.046170 0.058024 0.000415
v -0.048983 0.057487 0.000647
v -0.049006 0.052886 0.000440
v -0.048729 0.047616 0.000580
v -0.049136 0.032573 0.001645
v -0.049966 0.030936 0.002401
v -0.051157 0.030873 0.003517
v -0.054700 0.061388 0.003109
v -0.048406 0.044577 0.017067
v -0.047292 0.044577 0.017307
v -0.046500 0.042689 0.017562
v -0.046170 0.037852 0.017902
v -0.045048 0.034488 0.018057
v -0.041689 0.030873 0.018293
v -0.054416 0.061388 0.004482
v -0.051196 0.057233 0.011803
v -0.050204 0.055990 0.013992
v -0.048875 0.053540 0.015671
v -0.050312 0.054663 0.014318
v -0.050128 0.047442 0.016375
v 0.015483 0.030873 0.002073
v 0.015483 0.035612 0.002088
v 0.010572 0.038509 0.001735
v 0.005384 0.040096 0.001447
v -0.001340 0.045701 0.001177
v -0.002455 0.051299 0.001246
v -0.015897 0.051977 0.000617
v -0.030476 0.052420 0.000091
v -0.031590 0.054663 0.000137
v -0.033834 0.056904 0.000250
v -0.032720 0.056904 0.000300
v -0.033834 0.057944 0.000400
v -0.037201 0.058024 0.000313
v -0.041689 0.058437 0.000381
v -0.040559 0.056904 0.000127
v -0.041689 0.056904 0.000139
v -0.043933 0.055784 0.000076
v -0.047292 0.055784 0.000200
v -0.045048 0.052420 0.000012
v -0.047292 0.047935 0.000375
v -0.048406 0.033368 0.001418
v -0.043510 0.034927 0.000595
v -0.045048 0.032247 0.000945
v -0.047661 0.030903 0.001466
v -0.051672 0.030873 0.004576
v -0.043933 0.030873 0.000983
v -0.052034 0.030873 0.005570
v -0.052310 0.030873 0.007015
v -0.052472 0.030873 0.010052
v -0.052456 0.030873 0.011300
v -0.052310 0.030936 0.013299
v -0.048006 0.039827 0.017530
v -0.046170 0.032247 0.018073
v -0.046293 0.030873 0.017994
v -0.051918 0.030873 0.014664
v -0.052034 0.042337 0.013541
v -0.051288 0.049907 0.014218
v -0.051234 0.052420 0.013597
v -0.050835 0.054663 0.013541
v -0.050220 0.052438 0.015041
v -0.051327 0.044577 0.014936
v -0.051304 0.040096 0.015368
v -0.051188 0.034488 0.015797
v -0.050458 0.032247 0.016709
v -0.049013 0.034999 0.017491
v 0.012117 0.030873 0.001806
v 0.001157 0.030873 0.001202
v -0.010847 0.038420 0.000649
v -0.011946 0.046304 0.000641
v -0.033834 0.052420 -0.000013
v -0.036079 0.054663 0.000045
v -0.036079 0.055784 0.000104
v -0.037201 0.056904 0.000183
v -0.039445 0.055784 0.000037
v -0.039445 0.054663 0.000008
v -0.041689 0.052420 0.000001
v -0.036079 0.050179 -0.000001
v -0.030476 0.032247 0.000394
v -0.041389 0.032639 0.000617
v -0.040306 0.030873 0.000812
v -0.047292 0.032247 0.017873
v -0.047445 0.030873 0.017827
v -0.051265 0.030873 0.015818
v -0.051788 0.035612 0.014664
v -0.051565 0.042337 0.014650
v -0.050550 0.030873 0.016611
v -0.049528 0.032247 0.017225
v -0.049075 0.030873 0.017365
v -0.012984 0.030873 0.000632
v -0.010847 0.033906 0.000651
v -0.016250 0.030873 0.000609
v -0.030222 0.030873 0.000526
v -0.035556 0.030873 0.000638
f 1 2 19
f 1 19 46
f 1 46 45
f 1 45 82
f 1 82 127
f 1 127 171
f 1 171 178
f 1 178 142
f 1 142 95
f 1 95 56
f 1 56 27
f 1 27 3
f 1 3 4
f 1 4 5
f 1 5 6
f 1 6 7
f 1 7 8
f 1 8 9
f 1 9 10
f 1 10 11
f 1 11 2
f 2 11 12
f 2 12 13
f 2 13 14
f 2 14 15
f 2 15 16
f 2 16 17
f 2 17 18
f 2 18 19
f 3 20 21
f 3 21 22
f 3 22 23
f 3 23 24
f 3 24 25
f 3 25 26
f 3 26 4
f 3 27 28
f 3 28 29
f 3 29 20
f 4 26 30
f 4 30 31
f 4 31 32
f 4 32 5
f 5 7 6
f 5 32 31
f 5 31 30
f 5 30 65
f 5 65 106
f 5 106 150
f 5 150 134
f 5 134 177
f 5 177 217
f 5 217 245
f 5 245 251
f 5 251 249
f 5 249 246
f 5 246 218
f 5 218 213
f 5 213 212
f 5 212 211
f 5 211 210
f 5 210 208
f 5 208 170
f 5 170 209
f 5 209 243
f 5 243 256
f 5 256 255
f 5 255 254
f 5 254 252
f 5 252 230
f 5 230 229
f 5 229 184
f 5 184 151
f 5 151 107
f 5 107 67
f 5 67 66
f 5 66 34
f 5 34 33
f 5 33 9
f 5 9 8
f 5 8 7
f 9 33 10
f 10 33 34
f 10 34 35
f 10 35 11
f 11 35 36
f 11 36 37
f 11 37 38
f 11 38 12
f 12 38 13
f 13 38 39
f 13 39 40
f 13 40 14
f 14 40 15
f 15 40 16
f 16 40 17
f 17 40 41
f 17 41 42
f 17 42 43
f 17 43 18
f 18 43 44
f 18 44 45
f 18 45 46
f 18 46 19
f 20 47 21
f 20 29 47
f 21 47 48
f 21 48 22
f 22 48 49
f 22 49 23
f 23 49 24
f 24 49 50
f 24 50 25
f 25 50 51
f 25 51 52
f 25 52 53
f 25 53 26
f 26 53 54
f 26 54 55
f 26 55 30
f 27 56 57
f 27 57 28
f 28 57 58
f 28 58 59
f 28 59 60
f 28 60 29
f 29 60 61
f 29 61 62
f 29 62 47
f 30 55 63
f 30 63 64
f 30 64 65
f 34 36 35
f 34 66 36
f 36 66 67
f 36 67 37
f 37 67 68
f 37 68 69
f 37 69 39
f 37 39 38
f 39 69 70
f 39 70 40
f 40 71 72
f 40 72 73
f 40 73 41
f 40 70 74
f 40 74 71
f 41 73 42
f 42 75 76
f 42 76 43
f 42 73 75
f 43 76 77
f 43 77 44
f 44 77 78
f 44 78 79
f 44 79 80
f 44 80 45
f 45 80 81
f 45 81 82
f 47 83 84
f 47 84 85
f 47 85 48
f 47 62 61
f 47 61 86
f 47 86 83
f 48 85 49
f 49 51 50
f 49 85 51
f 51 87 88
f 51 88 52
f 51 85 84
f 51 84 89
f 51 89 90
f 51 90 91
f 51 91 87
f 52 88 54
f 52 54 53
f 54 88 55
f 55 88 92
f 55 92 63
f 56 93 94
f 56 94 57
f 56 95 93
f 57 94 58
f 58 94 93
f 58 93 96
f 58 96 97
f 58 97 59
f 59 61 60
f 59 97 98
f 59 98 99
f 59 99 100
f 59 100 101
f 59 101 61
f 61 102 103
f 61 103 86
f 61 101 104
f 61 104 102
f 63 92 64
f 64 92 65
f 65 92 105
f 65 105 106
f 67 107 68
f 68 107 108
f 68 108 69
f 69 108 109
f 69 109 110
f 69 110 72
f 69 72 74
f 69 74 70
f 71 74 72
f 72 110 111
f 72 111 112
f 72 112 113
f 72 113 114
f 72 114 115
f 72 115 116
f 72 116 117
f 72 117 118
f 72 118 76
f 72 76 73
f 73 76 75
f 76 118 119
f 76 119 77
f 77 120 121
f 77 121 122
f 77 122 79
f 77 79 78
f 77 119 120
f 79 122 123
f 79 123 124
f 79 124 81
f 79 81 80
f 81 124 123
f 81 123 82
f 82 123 125
f 82 125 126
f 82 126 127
f 83 86 103
f 83 103 89
f 83 89 84
f 87 128 88
f 87 91 128
f 88 128 92
f 89 103 129
f 89 129 130
f 89 130 131
f 89 131 132
f 89 132 90
f 90 132 133
f 90 133 134
f 90 134 91
f 91 134 135
f 91 135 136
f 91 136 137
f 91 137 138
f 91 138 128
f 92 128 139
f 92 139 140
f 92 140 138
f 92 138 105
f 93 95 141
f 93 141 96
f 95 142 143
f 95 143 144
f 95 144 141
f 96 141 145
f 96 145 100
f 96 100 99
f 96 99 98
f 96 98 97
f 100 145 144
f 100 144 146
f 100 146 101
f 101 146 147
f 101 147 148
f 101 148 104
f 102 104 129
f 102 129 103
f 104 148 149
f 104 149 129
f 105 138 106
f 106 138 150
f 107 151 108
f 108 151 152
f 108 152 109
f 109 152 153
f 109 153 110
f 110 153 111
f 111 153 154
f 111 154 112
f 112 154 155
f 112 155 114
f 112 114 113
f 114 155 115
f 115 155 156
f 115 156 121
f 115 121 116
f 116 121 120
f 116 120 117
f 117 120 157
f 117 157 118
f 118 157 119
f 119 157 120
f 121 156 158
f 121 158 159
f 121 159 160
f 121 160 122
f 122 160 161
f 122 161 123
f 123 161 125
f 125 160 126
f 125 161 160
f 126 160 162
f 126 162 127
f 127 162 163
f 127 163 164
f 127 164 165
f 127 165 166
f 127 166 167
f 127 167 168
f 127 168 169
f 127 169 170
f 127 170 171
f 128 138 139
f 129 149 172
f 129 172 173
f 129 173 174
f 129 174 130
f 130 174 175
f 130 175 131
f 131 175 133
f 131 133 132
f 133 175 176
f 133 176 177
f 133 177 134
f 134 150 135
f 135 150 136
f 136 150 138
f 136 138 137
f 138 140 139
f 141 144 145
f 142 178 179
f 142 179 143
f 143 180 146
f 143 146 144
f 143 179 180
f 146 181 147
f 146 180 182
f 146 182 181
f 147 181 148
f 148 181 183
f 148 183 149
f 149 183 172
f 151 184 152
f 152 184 185
f 152 185 153
f 153 185 154
f 154 186 187
f 154 187 188
f 154 188 189
f 154 189 155
f 154 185 186
f 155 189 156
f 156 189 190
f 156 190 158
f 158 191 233
f 158 233 192
f 158 192 193
f 158 193 194
f 158 194 159
f 158 190 191
f 159 194 193
f 159 193 195
f 159 195 160
f 160 195 162
f 162 195 196
f 162 196 197
f 162 197 163
f 163 197 198
f 163 198 199
f 163 199 200
f 163 200 201
f 163 201 164
f 164 201 165
f 165 201 166
f 166 201 202
f 166 202 203
f 166 203 167
f 167 204 168
f 167 203 205
f 167 205 206
f 167 206 204
f 168 204 207
f 168 207 169
f 169 207 170
f 170 208 171
f 170 207 209
f 171 208 210
f 171 210 211
f 171 211 212
f 171 212 213
f 171 213 214
f 171 214 178
f 172 215 173
f 172 183 215
f 173 215 174
f 174 215 175
f 175 215 216
f 175 216 176
f 176 216 177
f 177 216 217
f 178 214 218
f 178 218 219
f 178 219 220
f 178 220 221
f 178 221 222
f 178 222 179
f 179 222 180
f 180 222 182
f 181 182 223
f 181 223 183
f 182 222 221
f 182 221 220
f 182 220 223
f 183 223 220
f 183 220 224
f 183 224 225
f 183 225 226
f 183 226 227
f 183 227 228
f 183 228 215
f 184 229 185
f 185 229 186
f 186 229 187
f 187 229 230
f 187 230 231
f 187 231 232
f 187 232 188
f 188 232 189
f 189 232 190
f 190 232 191
f 191 232 233
f 192 233 234
f 192 234 235
f 192 235 193
f 193 235 237
f 193 237 236
f 193 236 196
f 193 196 195
f 196 236 198
f 196 198 197
f 198 236 237
f 198 237 200
f 198 200 199
f 200 237 238
f 200 238 202
f 200 202 201
f 202 238 239
f 202 239 240
f 202 240 241
f 202 241 242
f 202 242 205
f 202 205 203
f 204 206 207
f 205 242 206
f 206 242 209
f 206 209 207
f 209 242 243
f 213 218 214
f 215 228 216
f 216 228 244
f 216 244 245
f 216 245 217
f 218 246 225
f 218 225 247
f 218 247 219
f 219 247 248
f 219 248 224
f 219 224 220
f 224 248 225
f 225 248 247
f 225 246 226
f 226 246 227
f 227 246 249
f 227 249 250
f 227 250 228
f 228 250 251
f 228 251 245
f 228 245 244
f 230 252 253
f 230 253 231
f 231 253 233
f 231 233 232
f 233 240 239
f 233 239 238
f 233 238 237
f 233 237 234
f 233 253 252
f 233 252 240
f 234 237 235
f 240 252 241
f 241 254 255
f 241 255 256
f 241 256 242
f 241 252 254
f 242 256 243
f 249 251 250
