v 0.004158 -0.011478 0.002520
v -0.000441 -0.011478 0.003949
v -0.000441 -0.000605 0.008065
v 0.005221 -0.000605 0.006693
v 0.005221 -0.004426 0.007154
v 0.004158 -0.011478 0.065744
v -0.000442 -0.008082 0.006961
v -0.000442 -0.004748 0.007104
v -0.000442 -0.004426 0.007135
v -0.000441 -0.011478 0.064354
v -0.000441 -0.000605 0.063861
v 0.005221 -0.000605 0.066231
v 0.005221 -0.004426 0.064934
v -0.000442 -0.005671 0.065969
v -0.000442 -0.006238 0.065813
v -0.000442 -0.008082 0.063250
v -0.000442 -0.004426 0.065882
v -0.000442 -0.006322 0.065769
v -0.000442 -0.006615 0.065613
v -0.000442 -0.007067 0.065233
v -0.000442 -0.007152 0.065133
v -0.000442 -0.007463 0.064684
v -0.000442 -0.007614 0.064397
v -0.000441 -0.003987 0.065769
v -0.000442 -0.004917 0.065994
v -0.000442 -0.005086 0.065994
f 1 2 3
f 1 3 4
f 1 4 5
f 1 5 13
f 1 13 6
f 1 6 10
f 1 10 2
f 2 7 8
f 2 8 9
f 2 9 3
f 2 10 16
f 2 16 7
f 3 9 17
f 3 17 11
f 3 11 12
f 3 12 4
f 4 12 13
f 4 13 5
f 6 13 12
f 6 12 14
f 6 14 15
f 6 15 10
f 7 16 23
f 7 23 22
f 7 22 21
f 7 21 20
f 7 20 19
f 7 19 18
f 7 18 15
f 7 15 14
f 7 14 26
f 7 26 25
f 7 25 17
f 7 17 9
f 7 9 8
f 10 15 18
f 10 18 19
f 10 19 20
f 10 20 21
f 10 21 22
f 10 22 23
f 10 23 16
f 11 17 24
f 11 24 12
f 12 24 17
f 12 17 25
f 12 25 26
f 12 26 14
