v 0.038554 -0.011793 0.037537
v 0.038379 -0.011811 0.043348
v 0.037737 -0.015179 0.040224
v 0.037684 -0.014973 0.034596
v 0.038138 -0.012246 0.032720
v 0.037409 -0.011616 0.027107
v 0.016443 -0.011478 0.070992
v 0.020566 -0.011616 0.071330
v 0.036176 -0.011934 0.055597
v 0.036897 -0.013094 0.051542
v 0.037661 -0.013936 0.045894
v 0.036848 -0.017431 0.042565
v 0.036710 -0.018061 0.036536
v 0.036741 -0.017508 0.033172
v 0.037508 -0.013454 0.029900
v 0.036386 -0.015241 0.026042
v 0.036225 -0.013215 0.023235
v 0.034691 -0.012314 0.017269
v 0.030602 -0.012382 0.008581
v 0.027044 -0.012176 0.004054
v 0.015962 -0.011478 -0.000713
v 0.012416 -0.011478 0.069701
v -0.000438 -0.017876 0.067607
v -0.000438 -0.021650 0.068756
v 0.006842 -0.025566 0.069722
v 0.010373 -0.024241 0.070117
v 0.019623 -0.014917 0.071147
v 0.023387 -0.013592 0.070562
v 0.027235 -0.013147 0.068806
v 0.029831 -0.012994 0.066704
v 0.032461 -0.012438 0.063594
v 0.035080 -0.016698 0.054159
v 0.034912 -0.013203 0.058256
v 0.035920 -0.017481 0.049384
v 0.036172 -0.018332 0.045795
v 0.036096 -0.019504 0.039554
v 0.035347 -0.021005 0.036761
v 0.035244 -0.020534 0.031677
v 0.035863 -0.018238 0.028644
v 0.035187 -0.017652 0.024293
v 0.034313 -0.016127 0.019244
v 0.032648 -0.017187 0.015591
v 0.033221 -0.012688 0.013659
v 0.031851 -0.014799 0.012016
v 0.030167 -0.017042 0.010415
v 0.027579 -0.015341 0.005824
v 0.023319 -0.016592 0.002446
v 0.024177 -0.012556 0.001656
v 0.020051 -0.012308 -0.000192
v 0.018508 -0.015500 -0.000213
v 0.014618 -0.017399 -0.000523
v 0.008312 -0.017979 -0.000678
v 0.003914 -0.018367 -0.000417
v 0.012973 -0.011478 -0.000227
v -0.000438 -0.013315 0.065385
v -0.000438 -0.012576 0.003031
v -0.000018 -0.041541 0.038073
v -0.000056 -0.032891 0.066211
v 0.002418 -0.028077 0.068911
v -0.000400 -0.016321 0.000810
v 0.005949 -0.029219 0.068636
v 0.014512 -0.023867 0.070075
v 0.018199 -0.019680 0.070625
v 0.022704 -0.017590 0.069969
v 0.026571 -0.017469 0.067861
v 0.029312 -0.016775 0.065625
v 0.032095 -0.015473 0.062487
v 0.033836 -0.016401 0.058333
v 0.033210 -0.019033 0.056810
v 0.032744 -0.021176 0.054779
v 0.034221 -0.021347 0.048369
v 0.034527 -0.021941 0.043616
v 0.034729 -0.022033 0.040026
v 0.033492 -0.024091 0.035012
v 0.032958 -0.024061 0.029885
v 0.032881 -0.022869 0.025280
v 0.033343 -0.020078 0.021218
v 0.032213 -0.020305 0.017975
v 0.030514 -0.020069 0.013743
v 0.028148 -0.019206 0.008884
v 0.025731 -0.018055 0.005281
v 0.022815 -0.020614 0.004061
v 0.020074 -0.019180 0.001515
v 0.015172 -0.021509 0.000422
v 0.006285 -0.021871 -0.000551
v 0.011091 -0.023143 0.000062
v 0.000219 -0.020681 -0.000093
v 0.003219 -0.041555 0.038609
v 0.000074 -0.041449 0.042889
v 0.000143 -0.039862 0.053587
v 0.000009 -0.041131 0.030372
v 0.000654 -0.041414 0.033355
v 0.000868 -0.037539 0.060209
v 0.001948 -0.035852 0.062981
v 0.004143 -0.034062 0.065054
v 0.005586 -0.031795 0.067057
v 0.000280 -0.024523 0.000323
v 0.000253 -0.030577 0.004279
v 0.009465 -0.029814 0.068072
v 0.014149 -0.027724 0.068509
v 0.019272 -0.023207 0.069264
v 0.022158 -0.021076 0.069031
v 0.025292 -0.020396 0.067423
v 0.027033 -0.021785 0.064920
v 0.030224 -0.019106 0.062826
v 0.032053 -0.018936 0.059631
v 0.031289 -0.021856 0.057656
v 0.029751 -0.025619 0.054497
v 0.033191 -0.021888 0.051472
v 0.032335 -0.024550 0.047297
v 0.031721 -0.026299 0.042600
v 0.032923 -0.024939 0.039145
v 0.031331 -0.026814 0.032974
v 0.031553 -0.026793 0.037008
v 0.031580 -0.025371 0.026994
v 0.029736 -0.027097 0.024533
v 0.030820 -0.023882 0.020090
v 0.029572 -0.022760 0.015083
v 0.027438 -0.022371 0.010683
v 0.024975 -0.023025 0.007968
v 0.020894 -0.023408 0.004336
v 0.017218 -0.023517 0.002199
v 0.014157 -0.025254 0.002016
v 0.003975 -0.023826 -0.000100
v 0.010469 -0.027282 0.002263
v 0.006922 -0.026190 0.000923
v 0.004117 -0.041370 0.033108
v 0.007132 -0.041102 0.035118
v 0.007373 -0.041125 0.038559
v 0.006972 -0.041078 0.041832
v 0.001005 -0.041184 0.046726
v 0.001437 -0.040460 0.051020
v 0.003979 -0.039656 0.054187
v 0.001368 -0.039029 0.056570
v 0.000444 -0.040124 0.023905
v 0.001311 -0.040734 0.027149
v 0.006136 -0.037475 0.059652
v 0.006380 -0.035797 0.062586
v 0.009568 -0.032593 0.065766
v 0.001456 -0.027900 0.001945
v 0.006105 -0.029140 0.002982
v 0.004998 -0.031207 0.004935
v 0.000944 -0.033006 0.007164
v 0.000841 -0.037513 0.015570
v 0.013072 -0.030273 0.067057
v 0.017646 -0.029252 0.066013
v 0.020139 -0.026811 0.066725
v 0.023696 -0.023578 0.066634
v 0.024399 -0.026166 0.063834
v 0.027861 -0.023393 0.062374
v 0.029953 -0.021827 0.060576
v 0.028644 -0.025445 0.057924
v 0.027552 -0.028675 0.053087
v 0.029480 -0.027423 0.050329
v 0.025613 -0.029084 0.057403
v 0.029755 -0.028030 0.046994
v 0.029110 -0.029299 0.043764
v 0.030098 -0.028519 0.039695
v 0.028541 -0.029776 0.031014
v 0.030144 -0.027515 0.028412
v 0.028472 -0.030247 0.036444
v 0.027560 -0.029976 0.026994
v 0.026602 -0.030053 0.023750
v 0.026968 -0.028698 0.020393
v 0.027228 -0.026826 0.016684
v 0.027445 -0.025209 0.014272
v 0.024483 -0.026022 0.010676
v 0.020093 -0.027020 0.007079
v 0.018180 -0.025536 0.004110
v 0.014439 -0.028504 0.004851
v 0.010755 -0.030638 0.005683
v 0.005632 -0.040637 0.028278
v 0.007018 -0.040805 0.031042
v 0.010381 -0.039998 0.030809
v 0.011496 -0.040083 0.038186
v 0.010072 -0.040219 0.043940
v 0.008392 -0.040092 0.048425
v 0.004609 -0.040716 0.048848
v 0.007338 -0.039606 0.052501
v 0.006911 -0.038526 0.056789
v 0.001189 -0.039200 0.020443
v 0.004601 -0.040192 0.025090
v 0.010129 -0.037575 0.057410
v 0.009495 -0.036218 0.060830
v 0.013805 -0.032455 0.064525
v 0.004388 -0.033650 0.008172
v 0.001292 -0.035755 0.011733
v 0.004670 -0.037274 0.015386
v 0.004201 -0.038685 0.019096
v 0.017772 -0.031551 0.063242
v 0.020711 -0.029099 0.064053
v 0.022227 -0.030235 0.060788
v 0.025964 -0.026846 0.061013
v 0.026602 -0.030350 0.050506
v 0.023727 -0.031192 0.056105
v 0.027728 -0.030306 0.046126
v 0.027636 -0.030898 0.041246
v 0.025372 -0.032702 0.032156
v 0.025475 -0.032028 0.028129
v 0.025964 -0.032458 0.036818
v 0.023040 -0.033477 0.026162
v 0.023704 -0.031563 0.020605
v 0.024174 -0.030303 0.017960
v 0.025281 -0.027217 0.013630
v 0.020868 -0.029493 0.011247
v 0.017768 -0.030023 0.008856
v 0.014424 -0.031981 0.009378
v 0.010522 -0.033759 0.010133
v 0.008972 -0.038808 0.022516
v 0.011236 -0.039268 0.027692
v 0.013065 -0.039265 0.031670
v 0.013030 -0.039506 0.035323
v 0.014221 -0.039123 0.038849
v 0.012534 -0.039636 0.041768
v 0.012836 -0.039176 0.045760
v 0.011122 -0.039274 0.049250
v 0.011561 -0.038361 0.053199
v 0.005567 -0.039362 0.022093
v 0.014760 -0.036176 0.056824
v 0.013798 -0.034478 0.061521
v 0.006514 -0.035629 0.012192
v 0.007716 -0.036889 0.015492
v 0.008163 -0.037857 0.018518
v 0.018547 -0.033506 0.058968
v 0.020753 -0.033344 0.056027
v 0.023368 -0.032499 0.052720
v 0.024284 -0.032941 0.046634
v 0.026044 -0.032010 0.043665
v 0.023261 -0.034451 0.036176
v 0.021139 -0.035617 0.032600
v 0.020933 -0.035346 0.029237
v 0.019264 -0.035617 0.025647
v 0.022196 -0.033318 0.023130
v 0.020681 -0.032487 0.017446
v 0.023082 -0.029699 0.014667
v 0.018669 -0.031863 0.013073
v 0.014638 -0.033839 0.013102
v 0.010957 -0.035964 0.015118
v 0.011847 -0.037015 0.018990
v 0.013752 -0.037107 0.021606
v 0.014893 -0.037442 0.024857
v 0.018310 -0.037124 0.033390
v 0.016943 -0.037919 0.036585
v 0.015878 -0.037857 0.029646
v 0.017367 -0.037684 0.040442
v 0.017035 -0.037643 0.043722
v 0.015909 -0.037884 0.046853
v 0.015634 -0.037248 0.051310
v 0.018524 -0.035623 0.052607
v 0.021093 -0.034916 0.048453
v 0.021459 -0.035111 0.045061
v 0.020654 -0.036006 0.035548
v 0.021112 -0.035649 0.040203
v 0.018470 -0.035217 0.022326
v 0.017023 -0.034966 0.018877
v 0.015275 -0.034834 0.016155
f 1 2 3
f 1 3 4
f 1 4 5
f 1 5 6
f 1 6 2
f 2 6 7
f 2 7 8
f 2 8 9
f 2 9 10
f 2 10 11
f 2 11 3
f 3 11 12
f 3 12 13
f 3 13 4
f 4 14 15
f 4 15 5
f 4 13 14
f 5 15 6
f 6 15 16
f 6 16 17
f 6 17 18
f 6 18 19
f 6 19 20
f 6 20 21
f 6 21 7
f 7 22 23
f 7 23 24
f 7 24 25
f 7 25 26
f 7 26 8
f 7 21 54
f 7 54 22
f 8 26 27
f 8 27 28
f 8 28 29
f 8 29 30
f 8 30 31
f 8 31 9
f 9 32 10
f 9 31 33
f 9 33 32
f 10 32 34
f 10 34 11
f 11 34 35
f 11 35 12
f 12 36 13
f 12 35 36
f 13 36 37
f 13 37 38
f 13 38 14
f 14 38 39
f 14 39 15
f 15 39 16
f 16 40 41
f 16 41 17
f 16 39 40
f 17 41 18
f 18 41 42
f 18 42 43
f 18 43 19
f 19 43 44
f 19 44 45
f 19 45 46
f 19 46 20
f 20 47 48
f 20 48 49
f 20 49 21
f 20 46 47
f 21 49 50
f 21 50 51
f 21 51 52
f 21 52 53
f 21 53 54
f 22 55 23
f 22 54 56
f 22 56 55
f 23 55 56
f 23 56 24
f 24 57 58
f 24 58 59
f 24 59 25
f 24 56 60
f 24 60 57
f 25 59 61
f 25 61 26
f 26 62 63
f 26 63 27
f 26 61 62
f 27 63 28
f 28 63 64
f 28 64 29
f 29 64 65
f 29 65 30
f 30 65 66
f 30 66 31
f 31 66 67
f 31 67 33
f 32 33 68
f 32 68 69
f 32 69 70
f 32 70 34
f 33 67 68
f 34 71 35
f 34 70 71
f 35 71 72
f 35 72 36
f 36 73 37
f 36 72 73
f 37 73 74
f 37 74 38
f 38 74 75
f 38 75 76
f 38 76 39
f 39 76 77
f 39 77 40
f 40 77 41
f 41 77 78
f 41 78 42
f 42 79 45
f 42 45 44
f 42 44 43
f 42 78 79
f 45 80 46
f 45 79 80
f 46 80 81
f 46 81 47
f 47 81 82
f 47 82 83
f 47 83 48
f 48 83 50
f 48 50 49
f 50 83 84
f 50 84 51
f 51 85 52
f 51 84 86
f 51 86 85
f 52 85 53
f 53 87 60
f 53 60 54
f 53 85 87
f 54 60 56
f 57 88 89
f 57 89 90
f 57 90 58
f 57 60 91
f 57 91 92
f 57 92 88
f 58 93 94
f 58 94 95
f 58 95 96
f 58 96 61
f 58 61 59
f 58 90 93
f 60 87 97
f 60 97 98
f 60 98 91
f 61 96 99
f 61 99 62
f 62 99 100
f 62 100 101
f 62 101 63
f 63 101 64
f 64 101 102
f 64 102 65
f 65 103 66
f 65 102 103
f 66 103 104
f 66 104 105
f 66 105 67
f 67 105 106
f 67 106 68
f 68 106 69
f 69 106 107
f 69 107 70
f 70 108 109
f 70 109 71
f 70 107 108
f 71 110 72
f 71 109 110
f 72 111 112
f 72 112 73
f 72 110 111
f 73 112 74
f 74 113 75
f 74 112 114
f 74 114 113
f 75 113 115
f 75 115 76
f 76 116 117
f 76 117 77
f 76 115 116
f 77 117 78
f 78 117 118
f 78 118 79
f 79 118 119
f 79 119 80
f 80 119 120
f 80 120 81
f 81 120 82
f 82 120 121
f 82 121 83
f 83 121 122
f 83 122 84
f 84 122 123
f 84 123 86
f 85 86 124
f 85 124 97
f 85 97 87
f 86 123 125
f 86 125 126
f 86 126 124
f 88 92 127
f 88 127 128
f 88 128 129
f 88 129 130
f 88 130 131
f 88 131 89
f 89 131 90
f 90 131 132
f 90 132 133
f 90 133 134
f 90 134 93
f 91 98 135
f 91 135 136
f 91 136 127
f 91 127 92
f 93 134 137
f 93 137 138
f 93 138 94
f 94 138 95
f 95 139 96
f 95 138 139
f 96 139 99
f 97 124 126
f 97 126 140
f 97 140 98
f 98 140 141
f 98 141 142
f 98 142 143
f 98 143 144
f 98 144 135
f 99 139 145
f 99 145 100
f 100 145 146
f 100 146 147
f 100 147 101
f 101 147 102
f 102 147 148
f 102 148 103
f 103 148 104
f 104 149 150
f 104 150 105
f 104 148 149
f 105 150 151
f 105 151 106
f 106 151 107
f 107 151 152
f 107 152 108
f 108 153 154
f 108 154 110
f 108 110 109
f 108 152 155
f 108 155 153
f 110 154 156
f 110 156 111
f 111 156 157
f 111 157 158
f 111 158 112
f 112 158 114
f 113 159 160
f 113 160 115
f 113 114 161
f 113 161 159
f 114 158 161
f 115 160 116
f 116 160 162
f 116 162 163
f 116 163 164
f 116 164 165
f 116 165 117
f 117 165 166
f 117 166 118
f 118 166 119
f 119 167 120
f 119 166 167
f 120 167 168
f 120 168 121
f 121 169 122
f 121 168 169
f 122 169 123
f 123 169 170
f 123 170 125
f 125 141 126
f 125 170 171
f 125 171 141
f 126 141 140
f 127 136 172
f 127 172 173
f 127 173 128
f 128 173 174
f 128 174 175
f 128 175 129
f 129 175 176
f 129 176 130
f 130 176 177
f 130 177 178
f 130 178 131
f 131 178 132
f 132 178 133
f 133 178 179
f 133 179 180
f 133 180 134
f 134 180 137
f 135 181 182
f 135 182 136
f 135 144 181
f 136 182 172
f 137 180 183
f 137 183 184
f 137 184 138
f 138 184 185
f 138 185 139
f 139 185 145
f 141 171 142
f 142 171 186
f 142 186 143
f 143 186 187
f 143 187 144
f 144 187 188
f 144 188 189
f 144 189 181
f 145 185 146
f 146 185 190
f 146 190 191
f 146 191 147
f 147 191 149
f 147 149 148
f 149 191 192
f 149 192 193
f 149 193 150
f 150 193 152
f 150 152 151
f 152 193 155
f 153 194 154
f 153 155 194
f 154 194 156
f 155 195 194
f 155 193 192
f 155 192 195
f 156 194 196
f 156 196 157
f 157 197 158
f 157 196 197
f 158 197 161
f 159 198 199
f 159 199 162
f 159 162 160
f 159 161 198
f 161 197 200
f 161 200 198
f 162 199 163
f 163 199 201
f 163 201 202
f 163 202 164
f 164 202 203
f 164 203 165
f 165 203 204
f 165 204 166
f 166 204 167
f 167 204 205
f 167 205 168
f 168 205 206
f 168 206 170
f 168 170 169
f 170 206 207
f 170 207 171
f 171 207 208
f 171 208 186
f 172 182 209
f 172 209 210
f 172 210 173
f 173 210 174
f 174 210 211
f 174 211 212
f 174 212 175
f 175 213 214
f 175 214 176
f 175 212 213
f 176 214 215
f 176 215 216
f 176 216 177
f 177 216 179
f 177 179 178
f 179 217 183
f 179 183 180
f 179 216 217
f 181 189 182
f 182 189 218
f 182 218 209
f 183 217 219
f 183 219 220
f 183 220 184
f 184 220 185
f 185 220 190
f 186 208 221
f 186 221 187
f 187 221 188
f 188 222 189
f 188 221 222
f 189 223 218
f 189 222 223
f 190 220 224
f 190 224 192
f 190 192 191
f 192 224 225
f 192 225 195
f 194 195 226
f 194 226 196
f 195 225 226
f 196 226 227
f 196 227 228
f 196 228 197
f 197 228 200
f 198 229 230
f 198 230 231
f 198 231 201
f 198 201 199
f 198 200 229
f 200 228 229
f 201 232 233
f 201 233 202
f 201 231 232
f 202 234 203
f 202 233 234
f 203 234 235
f 203 235 204
f 204 235 205
f 205 235 236
f 205 236 206
f 206 236 207
f 207 236 237
f 207 237 208
f 208 237 238
f 208 238 222
f 208 222 221
f 209 218 223
f 209 223 239
f 209 239 240
f 209 240 210
f 210 240 241
f 210 241 211
f 211 242 243
f 211 243 212
f 211 241 244
f 211 244 242
f 212 243 213
f 213 243 245
f 213 245 246
f 213 246 214
f 214 246 247
f 214 247 215
f 215 247 216
f 216 247 248
f 216 248 217
f 217 248 219
f 219 225 224
f 219 224 220
f 219 248 249
f 219 249 225
f 222 238 223
f 223 238 239
f 225 249 226
f 226 249 250
f 226 250 227
f 227 250 251
f 227 251 228
f 228 251 229
f 229 252 230
f 229 251 253
f 229 253 252
f 230 252 242
f 230 242 231
f 231 242 244
f 231 244 232
f 232 241 254
f 232 254 233
f 232 244 241
f 233 254 234
f 234 254 255
f 234 255 236
f 234 236 235
f 236 255 256
f 236 256 237
f 237 256 238
f 238 256 239
f 239 256 240
f 240 256 255
f 240 255 241
f 241 255 254
f 242 252 243
f 243 252 245
f 245 253 246
f 245 252 253
f 246 253 251
f 246 251 250
f 246 250 247
f 247 250 249
f 247 249 248
