v 0.005221 0.010707 0.069999
v 0.004843 0.030073 0.058509
v 0.004752 0.016755 0.069848
v -0.001351 0.016617 0.069585
v -0.004428 0.015651 0.069385
v -0.021228 -0.002306 0.067868
v 0.005221 0.004868 0.068510
v 0.005221 0.008977 0.000052
v 0.004910 0.025452 0.010507
v 0.001613 0.030439 0.057999
v 0.004578 0.028077 0.062061
v 0.004744 0.032488 0.026315
v 0.004678 0.032641 0.051081
v 0.003152 0.031760 0.054426
v 0.003865 0.021155 0.068468
v 0.000851 0.018946 0.069248
v 0.004180 0.024767 0.065965
v -0.009287 0.016663 0.068675
v -0.022563 0.007813 0.067634
v -0.023621 0.004105 0.067744
v -0.007488 -0.002313 0.064516
v -0.016137 -0.002306 0.067365
v 0.005221 0.000088 0.066523
v -0.025441 -0.001059 0.067468
v -0.028608 -0.001858 0.066172
v -0.036030 -0.002085 0.054943
v -0.037121 -0.002256 0.044571
v -0.020233 -0.002306 0.001341
v -0.007488 -0.002313 0.003086
v 0.005221 0.005834 0.001438
v -0.010411 -0.002306 0.001003
v -0.014403 -0.001627 0.000224
v -0.014470 0.003519 -0.000459
v 0.004644 0.013331 0.000286
v 0.004690 0.020505 0.004204
v 0.004354 0.023542 0.007749
v -0.000771 0.026674 0.012080
v 0.003239 0.027356 0.013535
v 0.003446 0.029739 0.018073
v 0.004072 0.031050 0.021418
v -0.002201 0.029657 0.059137
v -0.000178 0.031923 0.053757
v -0.004009 0.031032 0.055219
v 0.001041 0.026870 0.063813
v 0.000448 0.031703 0.023142
v 0.000548 0.032644 0.026687
v 0.003508 0.033585 0.032356
v 0.004006 0.033969 0.038722
v 0.004089 0.033422 0.047150
v 0.000038 0.033049 0.048812
v -0.004946 0.019863 0.068351
v -0.000538 0.023783 0.066661
v -0.003972 0.023389 0.066647
v -0.009275 0.020647 0.067282
v -0.014690 0.016950 0.067544
v -0.020913 0.013537 0.066737
v -0.023596 0.011098 0.066599
v -0.026191 0.008239 0.066206
v -0.027336 0.003583 0.066447
v -0.000451 -0.002313 0.063399
v 0.005221 -0.000604 0.006693
v -0.031241 0.002460 0.063599
v -0.031324 -0.001347 0.063978
v -0.033766 -0.001528 0.060716
v -0.035678 0.001896 0.055964
v -0.036408 0.002894 0.051902
v -0.036847 -0.001847 0.049992
v -0.037137 0.000372 0.047564
v -0.037129 0.000131 0.041557
v -0.036785 -0.000342 0.036495
v -0.036113 -0.002100 0.031763
v -0.026925 -0.001869 0.006735
v -0.024019 -0.000686 0.003693
v -0.020146 0.004421 0.001417
v -0.000451 -0.002313 0.007583
v -0.015805 0.007443 0.000072
v -0.006816 0.013694 0.000479
v 0.004508 0.017462 0.002024
v 0.000743 0.020672 0.004266
v -0.000704 0.024149 0.008480
v -0.004647 0.026223 0.011645
v -0.004212 0.028258 0.015197
v 0.000822 0.028549 0.015528
v -0.002466 0.029945 0.018646
v -0.006799 0.028979 0.058999
v -0.006886 0.027147 0.062227
v -0.003918 0.026244 0.064040
v -0.003544 0.032200 0.051481
v -0.007989 0.030613 0.054323
v -0.003797 0.031415 0.023349
v -0.005344 0.032111 0.027722
v -0.002346 0.033070 0.030584
v -0.001077 0.033692 0.035743
v -0.001376 0.033635 0.043426
v 0.003463 0.033887 0.043791
v -0.005551 0.032680 0.046916
v -0.009395 0.023840 0.065137
v -0.012645 0.020662 0.066475
v -0.019462 0.017394 0.065723
v -0.024504 0.014454 0.064627
v -0.028186 0.011968 0.063151
v -0.030644 0.006449 0.063254
v -0.034243 0.002713 0.059426
v -0.035363 0.005724 0.054943
v -0.035856 0.007717 0.050640
v -0.036901 0.003604 0.047185
v -0.036880 0.005138 0.041715
v -0.036864 0.003451 0.038508
v -0.036320 0.001001 0.033074
v -0.035147 0.000269 0.027218
v -0.034069 -0.001432 0.022770
v -0.031581 -0.001592 0.015459
v -0.029604 -0.000597 0.011369
v -0.028053 0.002240 0.009259
v -0.025030 0.005287 0.006176
v -0.022086 0.008324 0.004142
v -0.018500 0.011169 0.002507
v -0.014901 0.011989 0.001086
v -0.010241 0.015405 0.001521
v -0.006492 0.018069 0.002617
v -0.006227 0.021351 0.005700
v -0.005091 0.023446 0.007976
v -0.010133 0.023126 0.008742
v -0.011153 0.025928 0.013425
v -0.008852 0.027477 0.015232
v -0.006783 0.029199 0.018039
v -0.006343 0.030357 0.021066
v -0.011368 0.028851 0.056523
v -0.010945 0.026571 0.061275
v -0.013661 0.023602 0.063771
v -0.007653 0.031600 0.051040
v -0.011145 0.030187 0.052799
v -0.008217 0.030964 0.025025
v -0.007757 0.032133 0.031543
v -0.004639 0.033156 0.034612
v -0.005174 0.033223 0.040081
v -0.008831 0.032300 0.042122
v -0.010245 0.031430 0.048026
v -0.018065 0.020115 0.064620
v -0.023392 0.017735 0.062992
v -0.026888 0.014994 0.062330
v -0.030669 0.010636 0.061226
v -0.032755 0.007749 0.059916
v -0.034380 0.008924 0.055475
v -0.034844 0.011090 0.049978
v -0.036030 0.008910 0.045143
v -0.035873 0.009450 0.041053
v -0.035902 0.007983 0.036412
v -0.036383 0.004733 0.035143
v -0.035470 0.004243 0.030149
v -0.034401 0.004517 0.025756
v -0.033008 0.000035 0.019597
v -0.030905 0.002514 0.014956
v -0.029272 0.004350 0.012376
v -0.028364 0.007525 0.012376
v -0.026224 0.007553 0.008804
v -0.023048 0.011375 0.006811
v -0.020527 0.015352 0.006776
v -0.017198 0.016045 0.004500
v -0.013566 0.015846 0.002755
v -0.012326 0.018517 0.004404
v -0.009158 0.019667 0.004562
v -0.014146 0.021304 0.008066
v -0.014739 0.024462 0.013004
v -0.014544 0.026752 0.017790
v -0.010083 0.029256 0.020480
v -0.014470 0.027221 0.057495
v -0.014860 0.028528 0.053419
v -0.014967 0.025186 0.060875
v -0.016759 0.022643 0.063109
v -0.014408 0.029785 0.048950
v -0.012944 0.028851 0.022170
v -0.011588 0.030009 0.025177
v -0.011787 0.030655 0.029480
v -0.008213 0.032431 0.036481
v -0.012994 0.030808 0.044784
v -0.011638 0.031373 0.037550
v -0.021838 0.020498 0.061461
v -0.026282 0.017888 0.059944
v -0.029682 0.014681 0.059026
v -0.032531 0.011389 0.057550
v -0.032713 0.013804 0.053702
v -0.033045 0.014628 0.050454
v -0.033683 0.014336 0.045950
v -0.034189 0.013527 0.041667
v -0.034778 0.010991 0.035232
v -0.034907 0.008903 0.031701
v -0.033331 0.008391 0.024873
v -0.033273 0.004556 0.022018
v -0.034069 0.009041 0.028287
v -0.031092 0.006168 0.017149
v -0.029015 0.010789 0.015770
v -0.026573 0.010703 0.011252
v -0.024267 0.013996 0.010204
v -0.022833 0.016908 0.010852
v -0.018823 0.019131 0.008673
v -0.017911 0.021507 0.010880
v -0.017870 0.023563 0.014411
v -0.017351 0.026493 0.020866
v -0.017994 0.025914 0.056337
v -0.018172 0.027569 0.050881
v -0.020022 0.023069 0.059461
v -0.017260 0.028823 0.045322
v -0.019935 0.027161 0.047640
v -0.016244 0.027857 0.023749
v -0.015527 0.028773 0.027039
v -0.014768 0.029757 0.031577
v -0.013305 0.030584 0.034570
v -0.014702 0.030201 0.040646
v -0.024545 0.020754 0.057971
v -0.028691 0.018271 0.055281
v -0.029823 0.018513 0.051626
v -0.031337 0.017913 0.045667
v -0.031851 0.017455 0.040336
v -0.033509 0.014386 0.037729
v -0.032933 0.014528 0.033922
v -0.033621 0.011914 0.030694
v -0.031308 0.013548 0.024722
v -0.031519 0.009549 0.020653
v -0.032328 0.013385 0.028060
v -0.027418 0.015136 0.016845
v -0.026046 0.014809 0.013804
v -0.029599 0.014365 0.020887
v -0.024877 0.018410 0.016252
v -0.021780 0.020172 0.013597
v -0.021701 0.021848 0.016597
v -0.019951 0.024277 0.019218
v -0.019715 0.026095 0.024756
v -0.021763 0.024881 0.053054
v -0.024943 0.021876 0.054950
v -0.022713 0.025335 0.048502
v -0.018641 0.028315 0.039074
v -0.020134 0.027374 0.043722
v -0.022804 0.025683 0.045164
v -0.019619 0.027044 0.029411
v -0.018968 0.027938 0.034143
v -0.026602 0.021720 0.051674
v -0.028812 0.020406 0.048798
v -0.029305 0.020413 0.045253
v -0.029657 0.020207 0.040895
v -0.030354 0.018971 0.035508
v -0.030300 0.017451 0.029529
v -0.027970 0.018833 0.024646
v -0.027066 0.018119 0.020708
v -0.023314 0.022146 0.020639
v -0.024417 0.022501 0.024480
v -0.023053 0.024835 0.029811
v -0.026481 0.023006 0.045860
v -0.022422 0.026177 0.039246
v -0.024636 0.024717 0.041053
v -0.022683 0.025843 0.035301
v -0.027472 0.022476 0.041764
v -0.028364 0.020921 0.033556
v -0.026685 0.021944 0.030053
v -0.025698 0.023492 0.034108
v -0.025934 0.023624 0.037653
f 1 2 3
f 1 3 4
f 1 4 5
f 1 5 6
f 1 6 7
f 1 7 23
f 1 23 61
f 1 61 30
f 1 30 8
f 1 8 9
f 1 9 2
f 2 10 11
f 2 11 3
f 2 9 12
f 2 12 13
f 2 13 14
f 2 14 10
f 3 15 16
f 3 16 4
f 3 11 17
f 3 17 15
f 4 16 18
f 4 18 5
f 5 18 19
f 5 19 20
f 5 20 6
f 6 21 22
f 6 22 23
f 6 23 7
f 6 20 24
f 6 24 25
f 6 25 26
f 6 26 27
f 6 27 28
f 6 28 29
f 6 29 21
f 8 30 31
f 8 31 32
f 8 32 33
f 8 33 34
f 8 34 35
f 8 35 9
f 9 35 36
f 9 36 37
f 9 37 38
f 9 38 39
f 9 39 40
f 9 40 12
f 10 41 11
f 10 14 42
f 10 42 43
f 10 43 41
f 11 41 44
f 11 44 17
f 12 40 45
f 12 45 46
f 12 46 47
f 12 47 48
f 12 48 13
f 13 48 49
f 13 49 50
f 13 50 42
f 13 42 14
f 15 51 16
f 15 17 52
f 15 52 53
f 15 53 51
f 16 51 18
f 17 44 52
f 18 51 54
f 18 54 55
f 18 55 19
f 19 55 56
f 19 56 57
f 19 57 58
f 19 58 59
f 19 59 20
f 20 59 24
f 21 60 22
f 21 29 75
f 21 75 60
f 22 60 23
f 23 60 61
f 24 59 25
f 25 59 62
f 25 62 63
f 25 63 64
f 25 64 26
f 26 65 66
f 26 66 67
f 26 67 27
f 26 64 65
f 27 67 68
f 27 68 69
f 27 69 70
f 27 70 71
f 27 71 28
f 28 71 72
f 28 72 73
f 28 73 74
f 28 74 33
f 28 33 32
f 28 32 31
f 28 31 29
f 29 31 75
f 30 61 31
f 31 61 75
f 33 74 76
f 33 76 77
f 33 77 34
f 34 77 78
f 34 78 35
f 35 78 79
f 35 79 36
f 36 79 80
f 36 80 37
f 37 80 81
f 37 81 82
f 37 82 83
f 37 83 38
f 38 83 39
f 39 84 40
f 39 83 84
f 40 84 45
f 41 85 86
f 41 86 87
f 41 87 44
f 41 43 85
f 42 50 88
f 42 88 43
f 43 88 89
f 43 89 85
f 44 87 52
f 45 90 46
f 45 84 90
f 46 90 91
f 46 91 92
f 46 92 47
f 47 92 93
f 47 93 48
f 48 94 95
f 48 95 49
f 48 93 94
f 49 95 50
f 50 95 94
f 50 94 96
f 50 96 88
f 51 53 54
f 52 87 53
f 53 87 97
f 53 97 54
f 54 97 98
f 54 98 55
f 55 98 99
f 55 99 56
f 56 99 57
f 57 99 100
f 57 100 58
f 58 100 101
f 58 101 102
f 58 102 59
f 59 102 62
f 60 75 61
f 62 102 103
f 62 103 64
f 62 64 63
f 64 103 65
f 65 103 104
f 65 104 66
f 66 104 105
f 66 105 106
f 66 106 68
f 66 68 67
f 68 106 107
f 68 107 69
f 69 107 108
f 69 108 70
f 70 108 109
f 70 109 71
f 71 109 110
f 71 110 111
f 71 111 112
f 71 112 72
f 72 113 114
f 72 114 115
f 72 115 73
f 72 112 113
f 73 115 116
f 73 116 74
f 74 116 117
f 74 117 76
f 76 118 77
f 76 117 118
f 77 118 119
f 77 119 120
f 77 120 78
f 78 120 79
f 79 121 122
f 79 122 80
f 79 120 121
f 80 122 81
f 81 122 123
f 81 123 124
f 81 124 125
f 81 125 82
f 82 125 126
f 82 126 84
f 82 84 83
f 84 126 127
f 84 127 90
f 85 89 128
f 85 128 129
f 85 129 86
f 86 129 130
f 86 130 97
f 86 97 87
f 88 96 131
f 88 131 89
f 89 131 132
f 89 132 128
f 90 133 91
f 90 127 133
f 91 134 135
f 91 135 92
f 91 133 134
f 92 135 93
f 93 135 136
f 93 136 94
f 94 136 96
f 96 136 137
f 96 137 138
f 96 138 131
f 97 130 98
f 98 130 139
f 98 139 99
f 99 139 140
f 99 140 100
f 100 140 141
f 100 141 101
f 101 141 142
f 101 142 102
f 102 142 143
f 102 143 103
f 103 143 144
f 103 144 104
f 104 144 105
f 105 145 146
f 105 146 106
f 105 144 145
f 106 146 107
f 107 146 147
f 107 147 148
f 107 148 149
f 107 149 108
f 108 149 109
f 109 149 150
f 109 150 110
f 110 150 151
f 110 151 111
f 111 151 152
f 111 152 112
f 112 152 153
f 112 153 113
f 113 153 114
f 114 153 154
f 114 154 155
f 114 155 156
f 114 156 115
f 115 156 157
f 115 157 116
f 116 157 158
f 116 158 117
f 117 158 159
f 117 159 118
f 118 159 160
f 118 160 119
f 119 160 161
f 119 161 120
f 120 161 162
f 120 162 121
f 121 162 123
f 121 123 122
f 123 162 163
f 123 163 164
f 123 164 124
f 124 164 165
f 124 165 125
f 125 165 166
f 125 166 126
f 126 166 127
f 127 166 133
f 128 167 129
f 128 132 168
f 128 168 167
f 129 169 130
f 129 167 169
f 130 169 170
f 130 170 139
f 131 138 132
f 132 138 171
f 132 171 168
f 133 166 172
f 133 172 173
f 133 173 174
f 133 174 134
f 134 174 175
f 134 175 135
f 135 175 136
f 136 175 137
f 137 176 138
f 137 175 177
f 137 177 176
f 138 176 171
f 139 170 178
f 139 178 140
f 140 178 179
f 140 179 141
f 141 179 180
f 141 180 142
f 142 180 181
f 142 181 143
f 143 181 144
f 144 182 145
f 144 181 182
f 145 182 183
f 145 183 184
f 145 184 146
f 146 184 185
f 146 185 147
f 147 185 186
f 147 186 148
f 148 186 187
f 148 187 149
f 149 187 150
f 150 187 151
f 151 188 189
f 151 189 152
f 151 187 190
f 151 190 188
f 152 189 153
f 153 189 191
f 153 191 154
f 154 191 155
f 155 192 193
f 155 193 156
f 155 191 192
f 156 193 157
f 157 193 194
f 157 194 158
f 158 194 195
f 158 195 196
f 158 196 159
f 159 196 163
f 159 163 161
f 159 161 160
f 161 163 162
f 163 196 197
f 163 197 164
f 164 197 198
f 164 198 165
f 165 199 172
f 165 172 166
f 165 198 199
f 167 168 200
f 167 200 169
f 168 171 201
f 168 201 200
f 169 200 202
f 169 202 170
f 170 202 178
f 171 176 203
f 171 203 204
f 171 204 201
f 172 205 173
f 172 199 205
f 173 206 174
f 173 205 206
f 174 207 208
f 174 208 175
f 174 206 207
f 175 208 177
f 176 177 209
f 176 209 203
f 177 208 209
f 178 202 210
f 178 210 179
f 179 210 211
f 179 211 180
f 180 211 182
f 180 182 181
f 182 211 212
f 182 212 183
f 183 212 213
f 183 213 184
f 184 213 214
f 184 214 185
f 185 214 215
f 185 215 186
f 186 216 217
f 186 217 187
f 186 215 216
f 187 217 190
f 188 190 218
f 188 218 219
f 188 219 189
f 189 219 191
f 190 217 220
f 190 220 218
f 191 219 192
f 192 221 222
f 192 222 193
f 192 219 223
f 192 223 221
f 193 222 194
f 194 222 195
f 195 222 224
f 195 224 225
f 195 225 196
f 196 225 197
f 197 225 198
f 198 225 226
f 198 226 227
f 198 227 199
f 199 227 228
f 199 228 205
f 200 210 202
f 200 201 229
f 200 229 230
f 200 230 210
f 201 204 231
f 201 231 229
f 203 209 232
f 203 232 233
f 203 233 204
f 204 233 234
f 204 234 231
f 205 228 235
f 205 235 206
f 206 235 207
f 207 235 236
f 207 236 208
f 208 236 232
f 208 232 209
f 210 230 211
f 211 230 237
f 211 237 212
f 212 237 238
f 212 238 213
f 213 239 240
f 213 240 214
f 213 238 239
f 214 240 241
f 214 241 215
f 215 241 216
f 216 241 242
f 216 242 220
f 216 220 217
f 218 243 223
f 218 223 219
f 218 220 242
f 218 242 243
f 221 224 222
f 221 223 244
f 221 244 224
f 223 243 244
f 224 244 245
f 224 245 226
f 224 226 225
f 226 245 227
f 227 245 246
f 227 246 228
f 228 246 247
f 228 247 235
f 229 231 237
f 229 237 230
f 231 234 248
f 231 248 237
f 232 249 233
f 232 236 249
f 233 249 234
f 234 249 250
f 234 250 248
f 235 247 251
f 235 251 236
f 236 251 249
f 237 248 238
f 238 248 239
f 239 248 252
f 239 252 240
f 240 252 253
f 240 253 241
f 241 253 242
f 242 254 243
f 242 253 254
f 243 246 245
f 243 245 244
f 243 254 246
f 246 254 247
f 247 254 255
f 247 255 251
f 248 250 252
f 249 251 250
f 250 251 256
f 250 256 252
f 251 255 256
f 252 256 253
f 253 256 255
f 253 255 254
