v -0.004782 -0.008722 0.004382
v -0.004782 -0.002313 0.005783
v -0.000442 -0.003235 0.007316
v -0.000442 -0.003993 0.007153
v -0.000442 -0.008722 0.006453
v -0.004782 -0.008722 0.063502
v -0.000442 -0.002313 0.007576
v -0.004782 -0.002313 0.063405
v -0.000442 -0.008722 0.063019
v -0.001027 -0.007504 0.064854
v -0.001027 -0.007126 0.065307
v -0.001027 -0.006723 0.065681
v -0.001782 -0.006620 0.065615
v -0.002204 -0.006100 0.065754
v -0.002614 -0.005670 0.065488
v -0.003024 -0.004917 0.065114
v -0.000442 -0.002313 0.063417
v -0.002600 -0.004917 0.065494
v -0.002185 -0.004500 0.065742
v -0.001910 -0.003996 0.065609
v -0.001407 -0.003784 0.065730
v -0.001424 -0.003022 0.064981
v -0.000442 -0.007153 0.065138
v -0.000442 -0.007068 0.065241
v -0.000442 -0.006616 0.065621
v -0.000442 -0.006323 0.065778
v -0.001027 -0.006345 0.065856
v -0.001782 -0.006242 0.065808
v -0.001782 -0.005670 0.065917
v -0.002237 -0.005670 0.065766
v -0.001280 -0.003022 0.064981
v -0.000777 -0.003040 0.064957
v -0.000442 -0.003067 0.064884
v -0.002223 -0.004917 0.065760
v -0.001782 -0.004917 0.065917
v -0.001708 -0.004213 0.065796
v -0.001027 -0.004162 0.065881
v -0.001027 -0.003771 0.065736
v -0.000596 -0.003767 0.065742
v -0.000442 -0.006239 0.065814
v -0.000442 -0.005670 0.065971
v -0.001027 -0.005670 0.066038
v -0.001027 -0.004917 0.066056
v -0.000442 -0.003628 0.065549
v -0.000442 -0.003986 0.065784
v -0.000442 -0.004164 0.065826
v -0.000442 -0.005085 0.065995
v -0.000442 -0.004917 0.065995
v -0.000442 -0.004298 0.065856
f 1 2 3
f 1 3 4
f 1 4 5
f 1 5 9
f 1 9 6
f 1 6 8
f 1 8 2
f 2 7 3
f 2 8 17
f 2 17 7
f 3 7 17
f 3 17 33
f 3 33 44
f 3 44 45
f 3 45 46
f 3 46 49
f 3 49 48
f 3 48 47
f 3 47 41
f 3 41 40
f 3 40 26
f 3 26 25
f 3 25 24
f 3 24 23
f 3 23 9
f 3 9 5
f 3 5 4
f 6 9 10
f 6 10 11
f 6 11 12
f 6 12 13
f 6 13 14
f 6 14 15
f 6 15 16
f 6 16 8
f 8 16 18
f 8 18 19
f 8 19 20
f 8 20 21
f 8 21 22
f 8 22 17
f 9 23 10
f 10 23 24
f 10 24 11
f 11 24 12
f 12 24 25
f 12 25 26
f 12 26 27
f 12 27 28
f 12 28 13
f 13 28 14
f 14 28 29
f 14 29 30
f 14 30 15
f 15 30 18
f 15 18 16
f 17 22 31
f 17 31 32
f 17 32 33
f 18 30 34
f 18 34 19
f 19 34 35
f 19 35 36
f 19 36 21
f 19 21 20
f 21 36 37
f 21 37 38
f 21 38 22
f 22 38 39
f 22 39 31
f 26 40 27
f 27 40 41
f 27 41 42
f 27 42 28
f 28 42 29
f 29 42 43
f 29 43 35
f 29 35 30
f 30 35 34
f 31 39 32
f 32 39 44
f 32 44 33
f 35 43 36
f 36 43 37
f 37 45 39
f 37 39 38
f 37 43 46
f 37 46 45
f 39 45 44
f 41 47 42
f 42 47 43
f 43 47 48
f 43 48 49
f 43 49 46
