v -0.004782 -0.008722 0.063502
v -0.004782 -0.002313 0.063403
v -0.009328 -0.002313 0.065334
v -0.010500 -0.002313 0.065812
v -0.011222 -0.008722 0.065978
v -0.004782 -0.008722 0.004391
v -0.004975 -0.002313 0.005573
v -0.011929 -0.002313 0.066329
v -0.012702 -0.008722 0.066475
v -0.006014 -0.008722 0.003409
v -0.008311 -0.002313 0.002354
v -0.007440 -0.002313 0.003124
v -0.006667 -0.002313 0.003874
v -0.013237 -0.002313 0.066721
v -0.014938 -0.008722 0.067166
v -0.013855 -0.008722 0.066834
v -0.007367 -0.008722 0.002447
v -0.009664 -0.002313 0.001365
v -0.015129 -0.002313 0.067199
v -0.016516 -0.008713 0.067557
v -0.018914 -0.008722 0.067929
v -0.008755 -0.008722 0.001637
v -0.011102 -0.002313 0.000662
v -0.016326 -0.002313 0.067438
v -0.017460 -0.002313 0.067617
v -0.018591 -0.002313 0.067770
v -0.020099 -0.002313 0.067889
v -0.020647 -0.008722 0.068062
v -0.010367 -0.008722 0.000940
v -0.011378 -0.008722 0.000609
v -0.012635 -0.002313 0.000290
v -0.021772 -0.002313 0.067922
v -0.021781 -0.008713 0.068048
v -0.023577 -0.008717 0.067929
v -0.025168 -0.008722 0.067630
v -0.012702 -0.008722 0.000336
v -0.013839 -0.008722 0.000263
v -0.014235 -0.002313 0.000317
v -0.023197 -0.002313 0.067862
v -0.024620 -0.002398 0.067690
v -0.025168 -0.003408 0.067610
v -0.025168 -0.006425 0.067630
v -0.025922 -0.006425 0.067431
v -0.026245 -0.008306 0.067298
v -0.027658 -0.008722 0.066621
v -0.016481 -0.008722 0.000502
v -0.014973 -0.008713 0.000323
v -0.015366 -0.002313 0.000456
v -0.032429 -0.002313 0.062805
v -0.029112 -0.002398 0.065911
v -0.026159 -0.002924 0.067351
v -0.026942 -0.004917 0.067073
v -0.026771 -0.007180 0.067119
v -0.027946 -0.006802 0.066588
v -0.029394 -0.006596 0.065666
v -0.029495 -0.008522 0.065400
v -0.030880 -0.008617 0.064126
v -0.032321 -0.008713 0.062294
v -0.034691 -0.008722 0.057397
v -0.020977 -0.008717 0.001471
v -0.019465 -0.008713 0.000954
v -0.023473 -0.008722 0.003243
v -0.019516 -0.002313 0.001120
v -0.033984 -0.002946 0.060436
v -0.033240 -0.002946 0.061657
v -0.032277 -0.004540 0.063011
v -0.031577 -0.004540 0.063841
v -0.031301 -0.002483 0.064126
v -0.030370 -0.002483 0.064982
v -0.035422 -0.002313 0.057244
v -0.029258 -0.003974 0.065845
v -0.028219 -0.005294 0.066489
v -0.028016 -0.004162 0.066588
v -0.027617 -0.002946 0.066761
v -0.029201 -0.005294 0.065872
v -0.030230 -0.004917 0.065102
v -0.030141 -0.007180 0.065029
v -0.031101 -0.005717 0.064246
v -0.031561 -0.006802 0.063635
v -0.031618 -0.008452 0.063323
v -0.032270 -0.005888 0.062872
v -0.032885 -0.004917 0.062095
v -0.032970 -0.008555 0.061292
v -0.034393 -0.008357 0.058432
v -0.035277 -0.006972 0.056634
v -0.035023 -0.008722 0.056275
v -0.021151 -0.007180 0.001544
v -0.022377 -0.008385 0.002281
v -0.021528 -0.007556 0.001730
v -0.020964 -0.002355 0.001538
v -0.023381 -0.007556 0.003024
v -0.027845 -0.008722 0.008712
v -0.025326 -0.008717 0.005148
v -0.024255 -0.008713 0.003993
v -0.030566 -0.002355 0.012986
v -0.035131 -0.002313 0.026876
v -0.034041 -0.006802 0.059693
v -0.033506 -0.005883 0.060888
v -0.033259 -0.004917 0.061485
v -0.034763 -0.002924 0.058877
v -0.034561 -0.006047 0.058797
v -0.030607 -0.004917 0.064770
v -0.030788 -0.003785 0.064637
v -0.036797 -0.002313 0.050282
v -0.036496 -0.002483 0.052897
v -0.035793 -0.002441 0.056003
v -0.035381 -0.003719 0.057244
v -0.033953 -0.008235 0.059474
v -0.034703 -0.007180 0.058140
v -0.035638 -0.005294 0.055983
v -0.035689 -0.006708 0.054974
v -0.035321 -0.008722 0.055101
v -0.035052 -0.006047 0.057642
v -0.021392 -0.003596 0.001690
v -0.023619 -0.006425 0.003157
v -0.022614 -0.006141 0.002381
v -0.021743 -0.005670 0.001856
v -0.022510 -0.002811 0.002361
v -0.024072 -0.002924 0.003476
v -0.026080 -0.002483 0.005486
v -0.027233 -0.002462 0.007066
v -0.024414 -0.006047 0.003880
v -0.028611 -0.008691 0.009973
v -0.028437 -0.006425 0.009090
v -0.027778 -0.006425 0.008061
v -0.026245 -0.008279 0.006190
v -0.030534 -0.008722 0.014061
v -0.026264 -0.005294 0.005792
v -0.025285 -0.005294 0.004690
v -0.030848 -0.003785 0.013570
v -0.031472 -0.002967 0.015063
v -0.031966 -0.002483 0.016324
v -0.033538 -0.002483 0.020843
v -0.028950 -0.002441 0.009707
v -0.029559 -0.002946 0.010802
v -0.030227 -0.003596 0.012183
v -0.034371 -0.002441 0.023770
v -0.034821 -0.002398 0.025542
v -0.034909 -0.003408 0.026126
v -0.035362 -0.002872 0.028044
v -0.036034 -0.003035 0.031581
v -0.036509 -0.002398 0.034587
v -0.036975 -0.002398 0.039319
v -0.036896 -0.002313 0.049035
v -0.036677 -0.005670 0.047993
v -0.036683 -0.002483 0.051391
v -0.036186 -0.002526 0.054417
v -0.036287 -0.004564 0.052970
v -0.036104 -0.003798 0.054576
v -0.035774 -0.003785 0.055917
v -0.035875 -0.006802 0.053840
v -0.035543 -0.008705 0.054019
v -0.036300 -0.008722 0.046486
v -0.025298 -0.002946 0.004610
v -0.026384 -0.003785 0.005838
v -0.027588 -0.003738 0.007517
v -0.028469 -0.002988 0.008884
v -0.029438 -0.008205 0.011439
v -0.028814 -0.007556 0.010012
v -0.029346 -0.006070 0.010650
v -0.028627 -0.005245 0.009229
v -0.027835 -0.005294 0.007975
v -0.027202 -0.005046 0.007006
v -0.035834 -0.008722 0.035131
v -0.034222 -0.008713 0.025747
v -0.032337 -0.008291 0.018779
v -0.031548 -0.008289 0.016430
v -0.031152 -0.008323 0.015415
v -0.030965 -0.007563 0.014618
v -0.030176 -0.007934 0.012893
v -0.030566 -0.005059 0.013012
v -0.031843 -0.003785 0.015979
v -0.032407 -0.003785 0.017505
v -0.032907 -0.002946 0.018919
v -0.032888 -0.004495 0.019045
v -0.033851 -0.002868 0.021925
v -0.028722 -0.004162 0.009316
v -0.029296 -0.004540 0.010318
v -0.029821 -0.004162 0.011333
v -0.034662 -0.003710 0.025144
v -0.034155 -0.003408 0.023106
v -0.034795 -0.004540 0.025980
v -0.035479 -0.004351 0.029132
v -0.035812 -0.003785 0.030658
v -0.035644 -0.005953 0.031030
v -0.036268 -0.004917 0.034415
v -0.036385 -0.003785 0.034415
v -0.036712 -0.003785 0.037056
v -0.036715 -0.002483 0.036333
v -0.036851 -0.002597 0.037740
v -0.036918 -0.003586 0.039332
v -0.037079 -0.002654 0.041204
v -0.037146 -0.002483 0.042378
v -0.037073 -0.002398 0.045610
v -0.037019 -0.003879 0.044980
v -0.036835 -0.005020 0.046692
v -0.036680 -0.006425 0.046486
v -0.036474 -0.006802 0.048564
v -0.035970 -0.008414 0.051139
v -0.035777 -0.008323 0.052891
v -0.036284 -0.008113 0.048371
v -0.036683 -0.006802 0.045352
v -0.036424 -0.008323 0.045352
v -0.036366 -0.008705 0.044203
v -0.036328 -0.008722 0.041921
v -0.030157 -0.006041 0.012315
v -0.036091 -0.008442 0.037016
v -0.036379 -0.006802 0.037056
v -0.036205 -0.006742 0.035510
v -0.035536 -0.008525 0.032523
v -0.035137 -0.008705 0.030280
v -0.036259 -0.008705 0.039691
v -0.034678 -0.008105 0.027354
v -0.034238 -0.007368 0.024998
v -0.033943 -0.008292 0.024360
v -0.033119 -0.008337 0.021394
v -0.032723 -0.006802 0.019337
v -0.032369 -0.007250 0.018414
v -0.032039 -0.006425 0.017074
v -0.031634 -0.006775 0.016025
v -0.030636 -0.006802 0.013576
v -0.031792 -0.005294 0.016018
v -0.032261 -0.005314 0.017352
v -0.032584 -0.006047 0.018580
v -0.032951 -0.005670 0.019622
v -0.033873 -0.004162 0.022257
v -0.033680 -0.005459 0.022018
v -0.033857 -0.006759 0.023239
v -0.034681 -0.006453 0.026371
v -0.034925 -0.005294 0.026876
v -0.035403 -0.006087 0.029696
v -0.035023 -0.006613 0.028017
v -0.035340 -0.007287 0.030187
v -0.035771 -0.007180 0.032915
v -0.036100 -0.005987 0.034103
v -0.036436 -0.005294 0.035921
v -0.036572 -0.005294 0.037056
v -0.036785 -0.004162 0.038184
v -0.036813 -0.004802 0.039239
v -0.037048 -0.003408 0.041582
v -0.037117 -0.002946 0.043653
v -0.036899 -0.005272 0.044602
v -0.036750 -0.006425 0.044223
v -0.036509 -0.007933 0.044223
v -0.036430 -0.008319 0.043089
v -0.036455 -0.007933 0.041204
v -0.036252 -0.008319 0.038483
v -0.036484 -0.006802 0.038184
v -0.036642 -0.006802 0.040826
v -0.036512 -0.007180 0.039319
v -0.033252 -0.007180 0.021294
v -0.033097 -0.006470 0.020452
v -0.036677 -0.005294 0.038184
v -0.036674 -0.006047 0.039319
v -0.036870 -0.005195 0.041429
v -0.036671 -0.006802 0.041960
f 1 2 3
f 1 3 4
f 1 4 5
f 1 5 9
f 1 9 16
f 1 16 15
f 1 15 21
f 1 21 28
f 1 28 35
f 1 35 45
f 1 45 59
f 1 59 86
f 1 86 112
f 1 112 153
f 1 153 205
f 1 205 164
f 1 164 127
f 1 127 92
f 1 92 62
f 1 62 46
f 1 46 37
f 1 37 36
f 1 36 30
f 1 30 29
f 1 29 22
f 1 22 17
f 1 17 10
f 1 10 6
f 1 6 2
f 2 6 7
f 2 7 13
f 2 13 12
f 2 12 11
f 2 11 18
f 2 18 23
f 2 23 31
f 2 31 38
f 2 38 48
f 2 48 63
f 2 63 96
f 2 96 144
f 2 144 104
f 2 104 70
f 2 70 49
f 2 49 39
f 2 39 32
f 2 32 27
f 2 27 26
f 2 26 25
f 2 25 24
f 2 24 19
f 2 19 14
f 2 14 8
f 2 8 4
f 2 4 3
f 4 8 5
f 5 8 9
f 6 10 11
f 6 11 12
f 6 12 13
f 6 13 7
f 8 14 15
f 8 15 16
f 8 16 9
f 10 17 18
f 10 18 11
f 14 19 15
f 15 19 20
f 15 20 21
f 17 22 18
f 18 22 23
f 19 24 20
f 20 24 25
f 20 25 21
f 21 25 26
f 21 26 27
f 21 27 28
f 22 29 23
f 23 29 30
f 23 30 31
f 27 32 28
f 28 33 34
f 28 34 35
f 28 32 33
f 30 36 31
f 31 36 37
f 31 37 38
f 32 39 33
f 33 39 34
f 34 39 40
f 34 40 41
f 34 41 42
f 34 42 35
f 35 42 43
f 35 43 44
f 35 44 45
f 37 46 47
f 37 47 38
f 38 47 46
f 38 46 48
f 39 49 50
f 39 50 40
f 40 51 41
f 40 50 51
f 41 51 42
f 42 51 43
f 43 51 52
f 43 52 53
f 43 53 44
f 44 53 45
f 45 53 54
f 45 54 55
f 45 55 56
f 45 56 57
f 45 57 58
f 45 58 59
f 46 60 61
f 46 61 48
f 46 62 60
f 48 61 63
f 49 64 65
f 49 65 66
f 49 66 67
f 49 67 68
f 49 68 69
f 49 69 50
f 49 70 64
f 50 69 71
f 50 71 72
f 50 72 73
f 50 73 74
f 50 74 51
f 51 74 52
f 52 74 73
f 52 73 72
f 52 72 53
f 53 72 54
f 54 72 75
f 54 75 55
f 55 76 77
f 55 77 56
f 55 75 76
f 56 77 57
f 57 77 78
f 57 78 79
f 57 79 80
f 57 80 58
f 58 80 81
f 58 81 82
f 58 82 83
f 58 83 59
f 59 84 85
f 59 85 86
f 59 83 84
f 60 87 61
f 60 62 88
f 60 88 89
f 60 89 87
f 61 87 90
f 61 90 63
f 62 91 88
f 62 92 93
f 62 93 94
f 62 94 91
f 63 90 95
f 63 95 96
f 64 97 98
f 64 98 99
f 64 99 65
f 64 70 100
f 64 100 101
f 64 101 97
f 65 99 82
f 65 82 66
f 66 79 67
f 66 82 81
f 66 81 79
f 67 78 102
f 67 102 103
f 67 103 68
f 67 79 78
f 68 103 69
f 69 103 76
f 69 76 71
f 70 104 105
f 70 105 106
f 70 106 107
f 70 107 100
f 71 75 72
f 71 76 75
f 76 103 102
f 76 102 77
f 77 102 78
f 79 81 80
f 82 99 83
f 83 99 98
f 83 98 97
f 83 97 108
f 83 108 84
f 84 109 85
f 84 108 109
f 85 110 111
f 85 111 112
f 85 112 86
f 85 109 113
f 85 113 110
f 87 89 114
f 87 114 90
f 88 91 115
f 88 115 116
f 88 116 89
f 89 116 117
f 89 117 114
f 90 114 118
f 90 118 119
f 90 119 120
f 90 120 121
f 90 121 95
f 91 94 122
f 91 122 115
f 92 123 124
f 92 124 125
f 92 125 126
f 92 126 93
f 92 127 123
f 93 126 128
f 93 128 129
f 93 129 94
f 94 129 122
f 95 130 131
f 95 131 132
f 95 132 133
f 95 133 96
f 95 121 134
f 95 134 135
f 95 135 136
f 95 136 130
f 96 133 137
f 96 137 138
f 96 138 139
f 96 139 140
f 96 140 141
f 96 141 142
f 96 142 143
f 96 143 144
f 97 101 108
f 100 107 113
f 100 113 101
f 101 113 109
f 101 109 108
f 104 144 145
f 104 145 146
f 104 146 105
f 105 147 106
f 105 146 148
f 105 148 149
f 105 149 147
f 106 150 107
f 106 147 150
f 107 150 110
f 107 110 113
f 110 150 149
f 110 149 111
f 111 149 151
f 111 151 152
f 111 152 112
f 112 152 153
f 114 117 118
f 115 119 116
f 115 122 119
f 116 119 118
f 116 118 117
f 119 154 120
f 119 122 154
f 120 154 155
f 120 155 121
f 121 155 156
f 121 156 157
f 121 157 134
f 122 129 154
f 123 158 159
f 123 159 124
f 123 127 158
f 124 159 160
f 124 160 161
f 124 161 162
f 124 162 125
f 125 162 163
f 125 163 126
f 126 163 128
f 127 164 165
f 127 165 166
f 127 166 167
f 127 167 168
f 127 168 169
f 127 169 170
f 127 170 158
f 128 155 129
f 128 163 155
f 129 155 154
f 130 136 171
f 130 171 172
f 130 172 131
f 131 172 132
f 132 172 173
f 132 173 174
f 132 174 133
f 133 174 175
f 133 175 176
f 133 176 137
f 134 157 177
f 134 177 178
f 134 178 135
f 135 178 179
f 135 179 136
f 136 179 171
f 137 180 138
f 137 176 181
f 137 181 180
f 138 180 139
f 139 180 182
f 139 182 140
f 140 182 183
f 140 183 184
f 140 184 141
f 141 184 185
f 141 185 186
f 141 186 187
f 141 187 142
f 142 187 188
f 142 188 189
f 142 189 143
f 143 190 191
f 143 191 192
f 143 192 193
f 143 193 194
f 143 194 144
f 143 189 190
f 144 194 195
f 144 195 196
f 144 196 145
f 145 196 197
f 145 197 198
f 145 198 148
f 145 148 146
f 147 149 150
f 148 198 199
f 148 199 200
f 148 200 151
f 148 151 149
f 151 200 152
f 152 200 199
f 152 199 153
f 153 199 201
f 153 201 197
f 153 197 202
f 153 202 203
f 153 203 204
f 153 204 205
f 155 163 156
f 156 163 162
f 156 162 177
f 156 177 157
f 158 170 206
f 158 206 160
f 158 160 159
f 160 179 178
f 160 178 161
f 160 206 179
f 161 178 177
f 161 177 162
f 164 207 208
f 164 208 209
f 164 209 210
f 164 210 211
f 164 211 165
f 164 205 212
f 164 212 207
f 165 211 213
f 165 213 214
f 165 214 215
f 165 215 216
f 165 216 166
f 166 216 217
f 166 217 218
f 166 218 167
f 167 219 220
f 167 220 168
f 167 218 219
f 168 220 169
f 169 221 170
f 169 220 221
f 170 221 206
f 171 221 222
f 171 222 172
f 171 179 206
f 171 206 221
f 172 222 173
f 173 222 223
f 173 223 175
f 173 175 174
f 175 223 224
f 175 224 225
f 175 225 226
f 175 226 176
f 176 226 181
f 180 181 226
f 180 226 182
f 182 226 227
f 182 227 228
f 182 228 214
f 182 214 229
f 182 229 230
f 182 230 183
f 183 231 184
f 183 230 232
f 183 232 231
f 184 231 185
f 185 231 233
f 185 233 210
f 185 210 234
f 185 234 235
f 185 235 186
f 186 236 187
f 186 235 236
f 187 236 188
f 188 237 238
f 188 238 190
f 188 190 189
f 188 236 237
f 190 238 191
f 191 238 239
f 191 239 240
f 191 240 192
f 192 240 193
f 193 240 241
f 193 241 194
f 194 241 195
f 195 241 242
f 195 242 196
f 196 242 197
f 197 201 198
f 197 242 202
f 198 201 199
f 202 242 243
f 202 243 244
f 202 244 203
f 203 244 204
f 204 244 245
f 204 245 205
f 205 245 246
f 205 246 212
f 207 212 247
f 207 247 208
f 208 247 248
f 208 248 253
f 208 253 237
f 208 237 209
f 209 236 235
f 209 235 234
f 209 234 210
f 209 237 236
f 210 233 211
f 211 233 213
f 212 246 249
f 212 249 250
f 212 250 247
f 213 232 229
f 213 229 214
f 213 233 232
f 214 228 215
f 215 228 216
f 216 228 251
f 216 251 217
f 217 252 225
f 217 225 224
f 217 224 218
f 217 251 252
f 218 224 219
f 219 223 220
f 219 224 223
f 220 223 222
f 220 222 221
f 225 252 227
f 225 227 226
f 227 251 228
f 227 252 251
f 229 232 230
f 231 232 233
f 237 253 238
f 238 253 239
f 239 253 254
f 239 254 255
f 239 255 240
f 240 255 241
f 241 255 242
f 242 255 243
f 243 255 256
f 243 256 244
f 244 256 245
f 245 256 246
f 246 256 249
f 247 250 248
f 248 250 254
f 248 254 253
f 249 254 250
f 249 256 255
f 249 255 254
