v 0.019067 -0.004425 -0.000148
v 0.015909 -0.004425 -0.000134
v 0.007158 0.011924 -0.000036
v 0.012134 0.010884 0.000176
v 0.020321 0.000657 0.000401
v 0.022192 -0.004406 0.000443
v 0.037552 -0.004323 0.025091
v 0.016486 -0.004425 0.071245
v 0.005221 0.007594 0.000486
v 0.011903 -0.004425 0.001471
v 0.005224 0.017340 0.001986
v 0.008646 0.016051 0.001450
v 0.014721 0.012435 0.001070
v 0.023165 0.004833 0.002091
v 0.024389 -0.000147 0.001676
v 0.025498 -0.003767 0.001936
v 0.028174 -0.004147 0.004183
v 0.032530 -0.004000 0.010415
v 0.034612 -0.003666 0.014802
v 0.036216 -0.002250 0.019880
v 0.037351 -0.000789 0.025154
v 0.038196 -0.002982 0.028950
v 0.038803 -0.003797 0.034196
v 0.038770 -0.004023 0.044978
v 0.026062 -0.003895 0.070400
v 0.022693 -0.003873 0.071619
v 0.019344 -0.003234 0.071795
v 0.005221 0.012108 0.070112
v 0.005221 0.006899 0.069245
v 0.012563 -0.004425 0.069626
v 0.005221 -0.004425 0.007155
v 0.005745 0.020528 0.004288
v 0.009250 0.019586 0.003725
v 0.005244 0.033944 0.037922
v 0.005643 0.032569 0.027077
v 0.005825 0.030973 0.021570
v 0.012764 0.017080 0.002563
v 0.018529 0.014996 0.003760
v 0.023759 0.009543 0.004366
v 0.025056 0.006489 0.003908
v 0.027178 -0.000136 0.003732
v 0.029306 -0.000680 0.006014
v 0.030458 -0.003846 0.006880
v 0.031652 -0.000530 0.009394
v 0.033642 -0.000913 0.012901
v 0.034774 0.001385 0.016542
v 0.036302 0.001092 0.021316
v 0.037206 0.003616 0.027316
v 0.037869 0.000709 0.028774
v 0.038473 -0.000823 0.032344
v 0.038757 -0.000312 0.037534
v 0.038932 -0.003377 0.039711
v 0.038427 0.000544 0.044682
v 0.038173 -0.003467 0.049858
v 0.034074 -0.003493 0.062351
v 0.029837 -0.003328 0.067654
v 0.027524 -0.001142 0.069337
v 0.024825 -0.000598 0.070830
v 0.021555 0.000063 0.071689
v 0.019139 0.002069 0.071781
v 0.016047 0.004705 0.071569
v 0.009623 0.013133 0.070640
v 0.006207 0.018267 0.069548
v 0.006125 0.022470 0.067682
v 0.006069 0.029204 0.059900
v 0.005937 -0.004425 0.065422
v 0.009085 -0.004425 0.067485
v 0.006263 0.026274 0.012084
v 0.006428 0.022661 0.006746
v 0.010388 0.021482 0.006056
v 0.010213 0.033283 0.037140
v 0.006666 0.033515 0.033337
v 0.006042 0.032332 0.051830
v 0.006224 0.033260 0.047246
v 0.006369 0.033812 0.041746
v 0.008963 0.031307 0.024183
v 0.009728 0.032272 0.028668
v 0.006158 0.029384 0.017788
v 0.011098 0.029538 0.020274
v 0.013893 0.022162 0.008133
v 0.016925 0.020874 0.008098
v 0.020096 0.018605 0.007732
v 0.023753 0.016194 0.008640
v 0.025010 0.012656 0.007197
v 0.026637 0.008345 0.006218
v 0.027402 0.003673 0.004978
v 0.029597 0.002651 0.007246
v 0.032890 0.002122 0.012274
v 0.034025 0.006534 0.017330
v 0.035289 0.003977 0.019429
v 0.036338 0.003590 0.023183
v 0.035318 0.007301 0.022352
v 0.036892 0.006872 0.029767
v 0.038070 0.003177 0.033197
v 0.037962 0.005040 0.040499
v 0.037566 0.004067 0.047591
v 0.037140 0.002294 0.052196
v 0.037110 -0.002986 0.054598
v 0.034312 0.000762 0.061337
v 0.032804 -0.000181 0.064013
v 0.036034 -0.002569 0.058098
v 0.028356 0.002749 0.068098
v 0.030755 0.001693 0.066069
v 0.025693 0.002531 0.069964
v 0.021578 0.005445 0.071062
v 0.019242 0.008882 0.070985
v 0.015764 0.008195 0.071407
v 0.013441 0.012127 0.070929
v 0.009613 0.017941 0.069590
v 0.007095 0.026646 0.063569
v 0.012926 0.018076 0.069245
v 0.011883 0.022222 0.067048
v 0.009237 0.024633 0.065548
v 0.007148 0.030916 0.055929
v 0.011599 0.027018 0.061837
v 0.008841 0.029501 0.058534
v 0.009969 0.027938 0.015985
v 0.009982 0.024738 0.010394
v 0.014064 0.032122 0.036112
v 0.013028 0.032002 0.031711
v 0.010038 0.032903 0.032633
v 0.011880 0.032899 0.040513
v 0.009458 0.032115 0.050992
v 0.011068 0.032336 0.048175
v 0.012998 0.032355 0.044534
v 0.012833 0.030357 0.024070
v 0.013233 0.031078 0.027344
v 0.014239 0.028415 0.019591
v 0.013573 0.027097 0.016126
v 0.012837 0.024892 0.011711
v 0.016397 0.023063 0.010795
v 0.019347 0.021922 0.011394
v 0.022353 0.020318 0.011985
v 0.024627 0.018143 0.011732
v 0.026623 0.014587 0.010429
v 0.028676 0.010579 0.009873
v 0.029719 0.006320 0.008873
v 0.032401 0.005194 0.012711
v 0.031916 0.009340 0.014471
v 0.033335 0.010399 0.019105
v 0.033748 0.012645 0.023556
v 0.035530 0.009513 0.026168
v 0.036523 0.009637 0.032837
v 0.037483 0.006955 0.035936
v 0.036665 0.009806 0.041020
v 0.037160 0.006846 0.046027
v 0.036741 0.005840 0.050922
v 0.035685 0.005701 0.055541
v 0.035718 0.001817 0.057654
v 0.033830 0.006332 0.059929
v 0.032570 0.004251 0.063048
v 0.029897 0.005885 0.065936
v 0.027498 0.007631 0.067492
v 0.025284 0.010508 0.068027
v 0.022499 0.009235 0.069921
v 0.018839 0.012544 0.070083
v 0.015750 0.015976 0.069612
v 0.016899 0.020333 0.066851
v 0.014104 0.023683 0.065027
v 0.012543 0.029771 0.056062
v 0.011979 0.030958 0.053119
v 0.015552 0.025587 0.062112
v 0.012586 0.028479 0.058886
v 0.018404 0.030286 0.035598
v 0.017447 0.030124 0.030471
v 0.017714 0.030785 0.039478
v 0.016417 0.029636 0.025957
v 0.016701 0.031123 0.043823
v 0.015199 0.031330 0.047556
v 0.017575 0.028351 0.022915
v 0.018324 0.026830 0.019654
v 0.015506 0.025272 0.013873
v 0.019885 0.024581 0.016478
v 0.024802 0.020483 0.015366
v 0.027808 0.017790 0.016147
v 0.029936 0.015244 0.016591
v 0.029996 0.012018 0.013000
v 0.031359 0.012303 0.016070
v 0.032170 0.013516 0.019732
v 0.032141 0.015514 0.023253
v 0.034672 0.012634 0.027753
v 0.035533 0.011586 0.030591
v 0.034790 0.013824 0.032704
v 0.036355 0.010786 0.037027
v 0.035503 0.012484 0.044063
v 0.035332 0.011988 0.047915
v 0.035645 0.009915 0.050527
v 0.034952 0.009194 0.054753
v 0.032840 0.011331 0.058541
v 0.030388 0.012731 0.061879
v 0.030504 0.008717 0.064112
v 0.027504 0.012653 0.065330
v 0.023941 0.013272 0.067661
v 0.019611 0.016577 0.068126
v 0.021139 0.019484 0.065407
v 0.020149 0.022260 0.063309
v 0.017140 0.028385 0.055640
v 0.015912 0.030214 0.051548
v 0.022677 0.022680 0.060844
v 0.017562 0.026710 0.058929
v 0.021842 0.028505 0.036556
v 0.020304 0.029039 0.032556
v 0.021268 0.027942 0.028964
v 0.020248 0.027645 0.024985
v 0.019351 0.029944 0.042492
v 0.018512 0.030053 0.046556
v 0.022829 0.023829 0.018866
v 0.023366 0.024922 0.022499
v 0.026722 0.021088 0.020190
v 0.030134 0.017332 0.020626
v 0.030280 0.018643 0.024168
v 0.032382 0.016769 0.027746
v 0.033061 0.017096 0.033450
v 0.034226 0.015503 0.038816
v 0.034342 0.015169 0.042478
v 0.033939 0.015090 0.047520
v 0.033438 0.014883 0.051358
v 0.033471 0.013340 0.054224
v 0.030247 0.015931 0.059062
v 0.031121 0.016844 0.055809
v 0.027831 0.018001 0.060717
v 0.026920 0.015650 0.063893
v 0.023568 0.016754 0.065922
v 0.024871 0.019454 0.062520
v 0.020796 0.025568 0.057929
v 0.021740 0.026676 0.054048
v 0.020687 0.028100 0.051175
v 0.025587 0.021798 0.058922
v 0.023993 0.026913 0.034260
v 0.022825 0.028006 0.040260
v 0.023432 0.026166 0.027077
v 0.022835 0.027833 0.044013
v 0.022980 0.027382 0.047309
v 0.027686 0.021985 0.025204
v 0.029253 0.021276 0.028859
v 0.030253 0.020938 0.033232
v 0.032124 0.018857 0.036365
v 0.032514 0.018023 0.044253
v 0.031768 0.018609 0.047929
v 0.031814 0.017565 0.051654
v 0.028781 0.019969 0.056006
v 0.024023 0.024667 0.055492
v 0.024577 0.025580 0.051281
v 0.026752 0.022327 0.056013
v 0.025930 0.025651 0.038915
v 0.027366 0.024074 0.033788
v 0.025439 0.025313 0.030612
v 0.025732 0.025809 0.042675
v 0.026637 0.024475 0.048682
v 0.028577 0.023251 0.040168
v 0.030883 0.020562 0.041858
v 0.030689 0.020517 0.045126
v 0.029085 0.021242 0.051696
v 0.029270 0.021948 0.047746
v 0.026511 0.023600 0.052795
v 0.028224 0.023458 0.044978
f 1 2 3
f 1 3 4
f 1 4 5
f 1 5 6
f 1 6 7
f 1 7 8
f 1 8 30
f 1 30 67
f 1 67 66
f 1 66 31
f 1 31 10
f 1 10 2
f 2 9 3
f 2 10 9
f 3 9 11
f 3 11 12
f 3 12 4
f 4 12 13
f 4 13 5
f 5 13 14
f 5 14 15
f 5 15 6
f 6 15 16
f 6 16 17
f 6 17 7
f 7 17 18
f 7 18 19
f 7 19 20
f 7 20 21
f 7 21 22
f 7 22 23
f 7 23 24
f 7 24 8
f 8 24 25
f 8 25 26
f 8 26 27
f 8 27 28
f 8 28 29
f 8 29 30
f 9 10 31
f 9 31 29
f 9 29 28
f 9 28 11
f 11 32 33
f 11 33 12
f 11 28 34
f 11 34 35
f 11 35 36
f 11 36 32
f 12 33 37
f 12 37 13
f 13 37 38
f 13 38 14
f 14 38 39
f 14 39 40
f 14 40 15
f 15 40 41
f 15 41 16
f 16 41 17
f 17 41 42
f 17 42 43
f 17 43 18
f 18 43 44
f 18 44 45
f 18 45 19
f 19 45 46
f 19 46 20
f 20 47 21
f 20 46 47
f 21 48 49
f 21 49 22
f 21 47 48
f 22 49 50
f 22 50 23
f 23 50 51
f 23 51 52
f 23 52 24
f 24 52 53
f 24 53 54
f 24 54 55
f 24 55 25
f 25 56 57
f 25 57 58
f 25 58 26
f 25 55 56
f 26 59 27
f 26 58 59
f 27 60 61
f 27 61 28
f 27 59 60
f 28 61 62
f 28 62 63
f 28 63 64
f 28 64 65
f 28 65 34
f 29 66 67
f 29 67 30
f 29 31 66
f 32 68 69
f 32 69 33
f 32 36 68
f 33 69 70
f 33 70 37
f 34 71 72
f 34 72 35
f 34 65 73
f 34 73 74
f 34 74 75
f 34 75 71
f 35 76 36
f 35 72 77
f 35 77 76
f 36 78 68
f 36 76 79
f 36 79 78
f 37 70 80
f 37 80 81
f 37 81 82
f 37 82 38
f 38 82 83
f 38 83 84
f 38 84 39
f 39 84 85
f 39 85 40
f 40 85 86
f 40 86 41
f 41 86 42
f 42 86 87
f 42 87 44
f 42 44 43
f 44 88 45
f 44 87 88
f 45 88 46
f 46 88 89
f 46 89 90
f 46 90 47
f 47 91 48
f 47 90 91
f 48 91 92
f 48 92 93
f 48 93 94
f 48 94 49
f 49 94 50
f 50 94 51
f 51 94 95
f 51 95 53
f 51 53 52
f 53 96 97
f 53 97 54
f 53 95 96
f 54 97 98
f 54 98 55
f 55 99 100
f 55 100 56
f 55 98 101
f 55 101 99
f 56 102 57
f 56 100 103
f 56 103 102
f 57 102 104
f 57 104 58
f 58 104 105
f 58 105 59
f 59 105 106
f 59 106 60
f 60 107 61
f 60 106 107
f 61 107 62
f 62 107 108
f 62 108 63
f 63 109 64
f 63 108 109
f 64 110 65
f 64 109 111
f 64 111 112
f 64 112 113
f 64 113 110
f 65 114 73
f 65 110 115
f 65 115 116
f 65 116 114
f 68 78 117
f 68 117 118
f 68 118 69
f 69 118 70
f 70 118 80
f 71 119 120
f 71 120 121
f 71 121 72
f 71 75 122
f 71 122 119
f 72 121 77
f 73 114 123
f 73 123 74
f 74 123 124
f 74 124 75
f 75 124 125
f 75 125 122
f 76 126 79
f 76 77 126
f 77 121 120
f 77 120 127
f 77 127 126
f 78 79 117
f 79 126 128
f 79 128 129
f 79 129 117
f 80 118 130
f 80 130 131
f 80 131 81
f 81 131 132
f 81 132 82
f 82 132 133
f 82 133 134
f 82 134 83
f 83 134 135
f 83 135 84
f 84 135 136
f 84 136 85
f 85 136 137
f 85 137 86
f 86 137 87
f 87 137 88
f 88 137 138
f 88 138 89
f 89 138 139
f 89 139 140
f 89 140 92
f 89 92 90
f 90 92 91
f 92 140 141
f 92 141 142
f 92 142 93
f 93 143 144
f 93 144 94
f 93 142 143
f 94 144 95
f 95 145 146
f 95 146 96
f 95 144 145
f 96 146 147
f 96 147 97
f 97 147 148
f 97 148 149
f 97 149 98
f 98 149 101
f 99 150 151
f 99 151 100
f 99 101 149
f 99 149 150
f 100 151 103
f 102 103 152
f 102 152 153
f 102 153 104
f 103 151 152
f 104 153 154
f 104 154 155
f 104 155 105
f 105 155 106
f 106 156 157
f 106 157 108
f 106 108 107
f 106 155 156
f 108 157 109
f 109 157 111
f 110 113 115
f 111 157 158
f 111 158 112
f 112 158 159
f 112 159 113
f 113 159 115
f 114 160 161
f 114 161 123
f 114 116 160
f 115 162 163
f 115 163 116
f 115 159 162
f 116 163 160
f 117 129 130
f 117 130 118
f 119 164 165
f 119 165 120
f 119 122 166
f 119 166 164
f 120 165 167
f 120 167 127
f 122 125 168
f 122 168 166
f 123 161 124
f 124 161 169
f 124 169 125
f 125 169 168
f 126 127 167
f 126 167 170
f 126 170 128
f 128 170 171
f 128 171 129
f 129 172 130
f 129 171 172
f 130 172 131
f 131 172 173
f 131 173 132
f 132 173 133
f 133 173 174
f 133 174 134
f 134 174 175
f 134 175 135
f 135 175 176
f 135 176 177
f 135 177 136
f 136 177 139
f 136 139 137
f 137 139 138
f 139 177 178
f 139 178 140
f 140 179 141
f 140 178 179
f 141 179 180
f 141 180 181
f 141 181 142
f 142 181 182
f 142 182 143
f 143 182 183
f 143 183 184
f 143 184 144
f 144 184 145
f 145 185 186
f 145 186 146
f 145 184 185
f 146 186 187
f 146 187 147
f 147 187 188
f 147 188 148
f 148 188 150
f 148 150 149
f 150 189 190
f 150 190 191
f 150 191 151
f 150 188 189
f 151 191 152
f 152 191 192
f 152 192 153
f 153 192 154
f 154 192 193
f 154 193 155
f 155 193 194
f 155 194 156
f 156 194 157
f 157 194 158
f 158 195 196
f 158 196 159
f 158 194 195
f 159 196 162
f 160 197 198
f 160 198 161
f 160 163 197
f 161 198 169
f 162 199 200
f 162 200 163
f 162 196 199
f 163 200 197
f 164 166 201
f 164 201 202
f 164 202 165
f 165 202 203
f 165 203 204
f 165 204 167
f 166 168 205
f 166 205 201
f 167 204 170
f 168 169 206
f 168 206 205
f 169 198 206
f 170 204 171
f 171 207 173
f 171 173 172
f 171 204 208
f 171 208 207
f 173 207 174
f 174 207 209
f 174 209 175
f 175 209 210
f 175 210 176
f 176 178 177
f 176 210 179
f 176 179 178
f 179 210 180
f 180 211 212
f 180 212 181
f 180 210 211
f 181 183 182
f 181 212 183
f 183 212 213
f 183 213 214
f 183 214 184
f 184 214 215
f 184 215 185
f 185 215 216
f 185 216 186
f 186 216 217
f 186 217 187
f 187 217 218
f 187 218 188
f 188 218 189
f 189 219 190
f 189 218 220
f 189 220 219
f 190 219 221
f 190 221 222
f 190 222 192
f 190 192 191
f 192 222 223
f 192 223 193
f 193 223 194
f 194 223 195
f 195 223 224
f 195 224 196
f 196 224 199
f 197 200 225
f 197 225 226
f 197 226 227
f 197 227 198
f 198 227 206
f 199 224 228
f 199 228 225
f 199 225 200
f 201 229 202
f 201 205 230
f 201 230 229
f 202 229 203
f 203 229 231
f 203 231 204
f 204 231 208
f 205 206 232
f 205 232 230
f 206 227 233
f 206 233 232
f 207 208 209
f 208 231 234
f 208 234 209
f 209 234 211
f 209 211 210
f 211 234 235
f 211 235 212
f 212 235 236
f 212 236 213
f 213 236 237
f 213 237 214
f 214 238 215
f 214 237 238
f 215 238 216
f 216 238 239
f 216 239 240
f 216 240 217
f 217 240 220
f 217 220 218
f 219 220 241
f 219 241 221
f 220 240 241
f 221 224 222
f 221 241 228
f 221 228 224
f 222 224 223
f 225 242 226
f 225 228 242
f 226 242 243
f 226 243 227
f 227 243 233
f 228 241 244
f 228 244 242
f 229 230 245
f 229 245 246
f 229 246 247
f 229 247 231
f 230 232 248
f 230 248 245
f 231 247 234
f 232 233 248
f 233 243 249
f 233 249 248
f 234 247 235
f 235 247 246
f 235 246 236
f 236 246 250
f 236 250 237
f 237 250 251
f 237 251 238
f 238 252 239
f 238 251 252
f 239 253 240
f 239 252 254
f 239 254 253
f 240 253 241
f 241 253 244
f 242 244 255
f 242 255 243
f 243 255 249
f 244 253 255
f 245 248 250
f 245 250 246
f 248 249 256
f 248 256 250
f 249 255 253
f 249 253 254
f 249 254 256
f 250 256 251
f 251 256 252
f 252 256 254
