v -0.094381 0.090703 0.014131
v -0.094381 0.090929 0.024110
v -0.094381 0.090728 0.012081
v -0.065339 0.032468 0.017454
v -0.094381 0.091030 0.027447
v -0.094381 0.090747 0.010803
v -0.065126 0.032468 0.014242
v -0.064729 0.032468 0.020471
v -0.094381 0.090923 0.007475
v -0.094381 0.092322 0.029932
v -0.064552 0.032468 0.012232
v -0.094381 0.091383 0.006200
v -0.094381 0.092089 0.004244
v -0.064693 0.032468 0.020568
v -0.094381 0.093663 0.030470
v -0.064424 0.033665 0.022561
v -0.062418 0.032468 0.023939
v -0.062113 0.032468 0.024215
v -0.061022 0.033841 0.025775
v -0.064699 0.033079 0.011854
v -0.063973 0.032468 0.011205
v -0.094381 0.093783 0.003102
v -0.061992 0.032468 0.008685
v -0.063559 0.032468 0.010584
v -0.062662 0.032468 0.023600
v -0.094381 0.095402 0.031102
v -0.059315 0.032468 0.026177
v -0.059382 0.032468 0.026140
v -0.094381 0.094413 0.002686
v -0.061815 0.032468 0.008528
v -0.094381 0.096820 0.031310
v -0.056028 0.032468 0.027150
v -0.094381 0.095062 0.002501
v -0.057016 0.032468 0.006017
v -0.057138 0.032468 0.006066
v -0.059345 0.032468 0.007054
v -0.059632 0.032468 0.007213
v -0.085966 0.096820 0.031031
v -0.094381 0.096820 0.002225
v -0.052699 0.032468 0.027575
v -0.061114 0.053755 0.029106
v -0.062406 0.055538 0.029200
v -0.059510 0.055361 0.029195
v -0.059351 0.058807 0.029343
v -0.094381 0.095862 0.002311
v -0.055595 0.032468 0.005624
v -0.082637 0.096820 0.030840
v -0.085966 0.096820 0.002248
v -0.059351 0.058807 0.003170
v -0.059351 0.055481 0.003438
v -0.049370 0.032468 0.004693
v -0.049651 0.032468 0.004713
v -0.049370 0.032468 0.027623
v -0.060723 0.053755 0.029106
v -0.057315 0.056388 0.029146
v -0.057053 0.058807 0.029189
v -0.079308 0.096820 0.030629
v -0.081216 0.096820 0.030752
v -0.052699 0.032468 0.005072
v -0.053016 0.032468 0.005126
v -0.055358 0.032468 0.005570
v -0.082637 0.096820 0.002268
v -0.056028 0.058807 0.003185
v -0.046321 0.032468 0.004628
v -0.046047 0.032468 0.027373
v -0.055388 0.058807 0.028955
v -0.058729 0.096820 0.028978
v -0.060114 0.096820 0.029132
v -0.060406 0.096820 0.029160
v -0.062851 0.096820 0.029363
v -0.064583 0.096820 0.029502
v -0.072656 0.096820 0.030145
v -0.074564 0.096820 0.030291
v -0.075985 0.096820 0.030396
v -0.077887 0.096820 0.030533
v -0.079308 0.096820 0.002305
v -0.052699 0.062133 0.003555
v -0.042998 0.032468 0.004933
v -0.046047 0.032468 0.004637
v -0.072351 0.096820 0.002456
v -0.070644 0.096820 0.002496
v -0.062681 0.096820 0.002738
v -0.060985 0.096820 0.002832
v -0.059449 0.096820 0.002925
v -0.042718 0.032468 0.026732
v -0.055833 0.096820 0.027267
v -0.040291 0.032468 0.026032
v -0.038627 0.032468 0.025400
v -0.042718 0.032468 0.004978
v -0.057144 0.096820 0.003962
v -0.038456 0.032468 0.006080
v -0.038596 0.032468 0.006020
v -0.040114 0.032468 0.005530
v -0.040291 0.032468 0.005491
v -0.054132 0.094621 0.026114
v -0.054967 0.096820 0.026017
v -0.035840 0.032468 0.023652
v -0.035657 0.032468 0.023498
v -0.034523 0.033533 0.022262
v -0.055711 0.096820 0.004637
v -0.035743 0.032493 0.007745
v -0.035749 0.032468 0.007740
v -0.054419 0.096820 0.025192
v -0.054437 0.096820 0.025232
v -0.033523 0.032468 0.021155
v -0.033413 0.032468 0.020958
v -0.054400 0.096820 0.006202
v -0.034163 0.032468 0.008901
v -0.035706 0.032468 0.007768
v -0.054053 0.096820 0.024101
v -0.032127 0.032468 0.017454
v -0.054315 0.096820 0.006558
v -0.054394 0.096813 0.006211
v -0.033279 0.032493 0.010493
v -0.033273 0.032468 0.010496
v -0.053809 0.096820 0.020782
v -0.032090 0.032468 0.014131
v -0.053577 0.096820 0.014131
v -0.044602 0.069800 0.017454
v -0.053705 0.096820 0.019361
v -0.054132 0.096820 0.007381
v -0.032151 0.032468 0.013912
v -0.033261 0.032468 0.010524
v -0.053919 0.096820 0.009266
v -0.053772 0.096820 0.010803
v -0.053614 0.096820 0.016036
f 1 2 5
f 1 5 10
f 1 10 15
f 1 15 26
f 1 26 31
f 1 31 39
f 1 39 45
f 1 45 33
f 1 33 29
f 1 29 22
f 1 22 13
f 1 13 12
f 1 12 9
f 1 9 6
f 1 6 3
f 1 3 4
f 1 4 2
f 2 4 5
f 3 6 4
f 4 7 11
f 4 11 21
f 4 21 24
f 4 24 23
f 4 23 30
f 4 30 37
f 4 37 36
f 4 36 35
f 4 35 34
f 4 34 46
f 4 46 61
f 4 61 60
f 4 60 59
f 4 59 52
f 4 52 51
f 4 51 64
f 4 64 79
f 4 79 78
f 4 78 89
f 4 89 94
f 4 94 93
f 4 93 92
f 4 92 91
f 4 91 102
f 4 102 109
f 4 109 108
f 4 108 115
f 4 115 123
f 4 123 122
f 4 122 117
f 4 117 111
f 4 111 106
f 4 106 105
f 4 105 98
f 4 98 97
f 4 97 88
f 4 88 87
f 4 87 85
f 4 85 65
f 4 65 53
f 4 53 40
f 4 40 32
f 4 32 27
f 4 27 28
f 4 28 18
f 4 18 17
f 4 17 25
f 4 25 14
f 4 14 8
f 4 8 5
f 4 6 9
f 4 9 7
f 5 8 10
f 7 9 12
f 7 12 13
f 7 13 11
f 8 14 10
f 10 14 16
f 10 16 17
f 10 17 18
f 10 18 19
f 10 19 15
f 11 20 21
f 11 13 20
f 13 22 23
f 13 23 24
f 13 24 21
f 13 21 20
f 14 25 16
f 15 19 27
f 15 27 26
f 16 25 17
f 18 28 19
f 19 28 27
f 22 29 23
f 23 29 30
f 26 27 32
f 26 32 31
f 29 33 34
f 29 34 35
f 29 35 36
f 29 36 37
f 29 37 30
f 31 38 47
f 31 47 58
f 31 58 57
f 31 57 75
f 31 75 74
f 31 74 73
f 31 73 72
f 31 72 71
f 31 71 70
f 31 70 69
f 31 69 68
f 31 68 67
f 31 67 86
f 31 86 96
f 31 96 104
f 31 104 103
f 31 103 110
f 31 110 116
f 31 116 120
f 31 120 126
f 31 126 118
f 31 118 125
f 31 125 124
f 31 124 121
f 31 121 112
f 31 112 107
f 31 107 100
f 31 100 90
f 31 90 84
f 31 84 83
f 31 83 82
f 31 82 81
f 31 81 80
f 31 80 76
f 31 76 62
f 31 62 48
f 31 48 39
f 31 32 40
f 31 40 41
f 31 41 42
f 31 42 43
f 31 43 44
f 31 44 38
f 33 45 34
f 34 45 46
f 38 44 47
f 39 48 49
f 39 49 50
f 39 50 51
f 39 51 52
f 39 52 45
f 40 53 41
f 41 54 43
f 41 43 42
f 41 53 54
f 43 55 44
f 43 54 53
f 43 53 55
f 44 55 56
f 44 56 57
f 44 57 58
f 44 58 47
f 45 52 59
f 45 59 60
f 45 60 61
f 45 61 46
f 48 62 63
f 48 63 49
f 49 63 64
f 49 64 51
f 49 51 50
f 53 65 55
f 55 65 56
f 56 65 66
f 56 66 67
f 56 67 68
f 56 68 69
f 56 69 70
f 56 70 71
f 56 71 72
f 56 72 73
f 56 73 74
f 56 74 75
f 56 75 57
f 62 76 63
f 63 77 78
f 63 78 79
f 63 79 64
f 63 76 80
f 63 80 81
f 63 81 82
f 63 82 83
f 63 83 84
f 63 84 77
f 65 85 66
f 66 85 67
f 67 85 87
f 67 87 88
f 67 88 86
f 77 89 78
f 77 84 89
f 84 90 91
f 84 91 92
f 84 92 93
f 84 93 94
f 84 94 89
f 86 95 96
f 86 88 97
f 86 97 98
f 86 98 99
f 86 99 95
f 90 100 91
f 91 101 102
f 91 100 101
f 95 103 104
f 95 104 96
f 95 99 105
f 95 105 106
f 95 106 103
f 98 105 99
f 100 107 108
f 100 108 101
f 101 108 109
f 101 109 102
f 103 106 111
f 103 111 110
f 107 112 113
f 107 113 114
f 107 114 108
f 108 114 115
f 110 111 116
f 111 117 118
f 111 118 119
f 111 119 120
f 111 120 116
f 112 121 117
f 112 117 113
f 113 117 122
f 113 122 123
f 113 123 114
f 114 123 115
f 117 121 124
f 117 124 125
f 117 125 118
f 118 126 119
f 119 126 120
