v -0.029413 0.144927 0.014134
v -0.029195 0.143543 0.007890
v -0.030997 0.143915 0.010735
v -0.032206 0.144089 0.014134
v -0.029413 0.144833 0.017449
v -0.025104 0.144324 0.017449
v -0.025134 0.144329 0.014134
v -0.024767 0.143849 0.010922
v -0.026401 0.143538 0.007890
v -0.029145 0.141208 0.004050
v -0.070292 0.130576 0.005509
v -0.072342 0.130218 0.007479
v -0.072402 0.130242 0.010805
v -0.071371 0.130501 0.017449
v -0.070232 0.130755 0.024582
v -0.029254 0.144089 0.020718
v -0.024807 0.143844 0.020795
v -0.031889 0.143938 0.018511
v -0.023152 0.141980 0.017449
v -0.023242 0.141980 0.014134
v -0.023588 0.141504 0.007479
v -0.023469 0.139950 0.004307
v -0.026322 0.139762 0.002140
v -0.029145 0.138764 0.001586
v -0.072481 0.128810 0.004718
v -0.077166 0.127581 0.005122
v -0.075977 0.128787 0.007479
v -0.075977 0.128834 0.010805
v -0.080692 0.126894 0.010805
v -0.080167 0.126677 0.024107
v -0.077453 0.127181 0.028325
v -0.069321 0.130340 0.027557
v -0.026778 0.143218 0.023233
v -0.024321 0.141047 0.025163
v -0.020607 0.135251 0.027250
v -0.020597 0.136283 0.024585
v -0.020607 0.136283 0.020778
v -0.020290 0.135327 0.017449
v -0.020815 0.136306 0.013990
v -0.021934 0.138651 0.010805
v -0.022102 0.138651 0.007479
v -0.020993 0.134766 0.003085
v -0.023618 0.138053 0.001696
v -0.024965 0.134818 -0.000979
v -0.029413 0.135035 -0.000671
v -0.069321 0.128674 0.003930
v -0.075977 0.125345 0.003359
v -0.082624 0.124704 0.004825
v -0.092381 0.120669 0.006457
v -0.086576 0.123970 0.007479
v -0.081614 0.126367 0.007479
v -0.088369 0.123141 0.010805
v -0.089290 0.122609 0.024107
v -0.086546 0.123932 0.024107
v -0.082624 0.125632 0.024107
v -0.085774 0.123367 0.028468
v -0.082624 0.123127 0.029901
v -0.075977 0.125345 0.030078
v -0.069321 0.128288 0.029630
v -0.029413 0.140647 0.026098
v -0.026084 0.138896 0.027981
v -0.021865 0.136315 0.028235
v -0.020646 0.133048 0.029523
v -0.019369 0.131998 0.027433
v -0.018943 0.131998 0.024107
v -0.018487 0.130797 0.020778
v -0.018972 0.131998 0.017449
v -0.019022 0.131998 0.014134
v -0.019151 0.131998 0.010805
v -0.020815 0.136000 0.010805
v -0.019388 0.131998 0.007479
v -0.019646 0.131998 0.004150
v -0.018031 0.127657 0.003519
v -0.020438 0.131937 0.000875
v -0.021627 0.133001 -0.000194
v -0.026084 0.131998 -0.001974
v -0.022746 0.131937 -0.001429
v -0.029413 0.131998 -0.001687
v -0.036069 0.130910 -0.001055
v -0.079474 0.121894 0.002771
v -0.082148 0.120938 0.002955
v -0.089290 0.118701 0.003633
v -0.085695 0.123203 0.004911
v -0.095937 0.117840 0.005235
v -0.095937 0.118890 0.007479
v -0.089290 0.121390 0.004995
v -0.093153 0.120646 0.010805
v -0.093074 0.120608 0.024107
v -0.095937 0.117680 0.029500
v -0.089290 0.119897 0.029991
v -0.085952 0.118701 0.030739
v -0.072649 0.126578 0.029991
v -0.079306 0.122016 0.030609
v -0.075977 0.122016 0.030809
v -0.029413 0.131998 0.031066
v -0.025579 0.136273 0.029684
v -0.028739 0.137747 0.028558
v -0.022895 0.135251 0.029677
v -0.019913 0.128674 0.030014
v -0.017932 0.128090 0.026936
v -0.022766 0.131998 0.030752
v -0.017764 0.128702 0.024107
v -0.016496 0.125345 0.020778
v -0.016536 0.125345 0.017449
v -0.018081 0.129427 0.014134
v -0.018121 0.129286 0.010805
v -0.018239 0.129013 0.007479
v -0.016902 0.125345 0.007479
v -0.015694 0.122016 0.007479
v -0.017487 0.124686 0.002083
v -0.019299 0.128674 0.000821
v -0.021756 0.129201 -0.001530
v -0.026084 0.128674 -0.002291
v -0.029413 0.128674 -0.002164
v -0.032741 0.128674 -0.001920
v -0.085645 0.116794 0.002527
v -0.085774 0.118461 0.002915
v -0.092618 0.115372 0.003335
v -0.095937 0.115372 0.004117
v -0.092727 0.118880 0.004751
v -0.099265 0.112048 0.003840
v -0.107070 0.108272 0.005082
v -0.102524 0.113555 0.006337
v -0.099067 0.116065 0.006063
v -0.103782 0.113955 0.011953
v -0.099215 0.117006 0.010805
v -0.095937 0.119017 0.010805
v -0.095937 0.118988 0.024107
v -0.099037 0.116079 0.028812
v -0.102633 0.113616 0.028575
v -0.102593 0.108719 0.030983
v -0.099265 0.112048 0.030792
v -0.095937 0.115372 0.030355
v -0.082624 0.118701 0.030949
v -0.092618 0.115372 0.030769
v -0.089290 0.115372 0.031049
v -0.079306 0.118701 0.031083
v -0.032741 0.128674 0.031527
v -0.026084 0.131998 0.031163
v -0.022766 0.128674 0.031183
v -0.019904 0.125345 0.029811
v -0.016981 0.122016 0.026755
v -0.017754 0.125345 0.027670
v -0.015842 0.122016 0.024107
v -0.016635 0.125345 0.024107
v -0.015416 0.122016 0.020778
v -0.015397 0.122016 0.017449
v -0.015436 0.122016 0.014134
v -0.015506 0.122016 0.010805
v -0.014822 0.118701 0.010805
v -0.015615 0.118701 0.007479
v -0.016991 0.121559 0.003182
v -0.022291 0.124064 -0.001169
v -0.026084 0.125345 -0.001950
v -0.029413 0.125345 -0.002020
v -0.032741 0.125345 -0.001974
v -0.105991 0.096831 0.001896
v -0.105911 0.101111 0.002497
v -0.088280 0.114176 0.002404
v -0.089350 0.115321 0.002761
v -0.098997 0.108446 0.002891
v -0.102593 0.108719 0.003613
v -0.105921 0.105395 0.003482
v -0.109239 0.102066 0.003516
v -0.111894 0.102066 0.004938
v -0.110002 0.105263 0.005913
v -0.107823 0.109063 0.007479
v -0.105188 0.111356 0.006431
v -0.105624 0.111959 0.010805
v -0.104267 0.113724 0.015777
v -0.099205 0.116992 0.024107
v -0.103276 0.114186 0.024107
v -0.105178 0.111460 0.028492
v -0.099265 0.108719 0.031323
v -0.109150 0.105160 0.029750
v -0.105921 0.105395 0.030916
v -0.105921 0.102066 0.031483
v -0.102593 0.105395 0.031433
v -0.095937 0.112048 0.031069
v -0.085952 0.115372 0.031193
v -0.029413 0.128674 0.031610
v -0.089290 0.112048 0.031380
v -0.026084 0.128674 0.031510
v -0.026084 0.125345 0.031236
v -0.022766 0.125345 0.030802
v -0.019894 0.122459 0.028922
v -0.016625 0.118631 0.024094
v -0.018883 0.118372 0.025941
v -0.015377 0.118701 0.020778
v -0.014891 0.118701 0.017449
v -0.014713 0.118701 0.014134
v -0.015852 0.115372 0.014134
v -0.016932 0.116210 0.007479
v -0.017071 0.118927 0.004384
v -0.019438 0.118786 0.002671
v -0.022766 0.121550 -0.000267
v -0.061456 0.096831 0.002811
v -0.026084 0.122605 -0.001239
v -0.071490 0.096831 0.002477
v -0.102593 0.096831 0.001796
v -0.115906 0.096831 0.009519
v -0.114123 0.097132 0.004297
v -0.109755 0.097899 0.002517
v -0.114588 0.099383 0.007479
v -0.112964 0.102066 0.007479
v -0.110864 0.105343 0.010805
v -0.107952 0.109200 0.010805
v -0.107298 0.110024 0.014134
v -0.107288 0.110019 0.017449
v -0.107912 0.109157 0.024107
v -0.105604 0.111921 0.024107
v -0.110567 0.104939 0.027877
v -0.099265 0.105395 0.031610
v -0.095937 0.108719 0.031447
v -0.113845 0.099712 0.027433
v -0.114975 0.097090 0.027914
v -0.110418 0.102066 0.030191
v -0.112300 0.097791 0.030565
v -0.108893 0.097786 0.031570
v -0.105565 0.097786 0.031821
v -0.102593 0.102066 0.031710
v -0.101177 0.096831 0.031757
v -0.029413 0.125345 0.031497
v -0.072649 0.096831 0.030141
v -0.063725 0.096831 0.029430
v -0.059505 0.096831 0.029059
v -0.022360 0.121352 0.029276
v -0.017051 0.116404 0.021877
v -0.055840 0.096831 0.027266
v -0.016506 0.115189 0.017366
v -0.017487 0.113541 0.015166
v -0.017625 0.114111 0.010494
v -0.019408 0.114624 0.007583
v -0.018517 0.116639 0.005366
v -0.021865 0.117331 0.002774
v -0.056434 0.096831 0.004300
v -0.115143 0.097513 0.024107
v -0.114568 0.099354 0.010805
v -0.113003 0.102066 0.010805
v -0.110775 0.105207 0.024107
v -0.107932 0.109176 0.020778
v -0.112469 0.102066 0.027433
v -0.113320 0.100960 0.024107
v -0.085952 0.096831 0.031029
v -0.081921 0.096831 0.030796
v -0.078592 0.096831 0.030579
v -0.075264 0.096831 0.030341
v -0.018329 0.113955 0.018418
v -0.054384 0.096831 0.024855
v -0.053710 0.096831 0.019356
v -0.053601 0.096831 0.015082
v -0.053859 0.096831 0.010037
v -0.054245 0.096831 0.006885
f 1 2 3
f 1 3 4
f 1 4 5
f 1 5 6
f 1 6 7
f 1 7 8
f 1 8 9
f 1 9 2
f 2 10 11
f 2 11 3
f 2 9 10
f 3 11 4
f 4 11 12
f 4 12 13
f 4 13 14
f 4 14 15
f 4 15 5
f 5 16 17
f 5 17 6
f 5 15 18
f 5 18 16
f 6 17 19
f 6 19 7
f 7 19 8
f 8 19 20
f 8 20 21
f 8 21 9
f 9 21 22
f 9 22 23
f 9 23 10
f 10 23 24
f 10 24 11
f 11 25 26
f 11 26 27
f 11 27 12
f 11 24 25
f 12 27 28
f 12 28 13
f 13 28 14
f 14 28 15
f 15 28 29
f 15 29 30
f 15 30 31
f 15 31 32
f 15 32 18
f 16 33 17
f 16 18 32
f 16 32 33
f 17 33 34
f 17 34 35
f 17 35 36
f 17 36 19
f 19 36 37
f 19 37 20
f 20 37 38
f 20 38 39
f 20 39 40
f 20 40 41
f 20 41 21
f 21 41 42
f 21 42 22
f 22 43 23
f 22 42 43
f 23 43 44
f 23 44 24
f 24 44 45
f 24 45 46
f 24 46 25
f 25 46 47
f 25 47 26
f 26 47 48
f 26 48 49
f 26 49 50
f 26 50 51
f 26 51 27
f 27 51 29
f 27 29 28
f 29 51 50
f 29 50 52
f 29 52 53
f 29 53 54
f 29 54 55
f 29 55 30
f 30 55 31
f 31 55 54
f 31 54 56
f 31 56 57
f 31 57 58
f 31 58 59
f 31 59 32
f 32 59 60
f 32 60 33
f 33 61 34
f 33 60 61
f 34 61 62
f 34 62 35
f 35 62 63
f 35 63 64
f 35 64 36
f 36 64 65
f 36 65 66
f 36 66 37
f 37 66 67
f 37 67 68
f 37 68 38
f 38 68 39
f 39 68 69
f 39 69 70
f 39 70 40
f 40 70 41
f 41 70 69
f 41 69 71
f 41 71 72
f 41 72 42
f 42 72 73
f 42 73 74
f 42 74 43
f 43 74 75
f 43 75 44
f 44 76 45
f 44 75 77
f 44 77 76
f 45 76 78
f 45 78 79
f 45 79 47
f 45 47 46
f 47 80 81
f 47 81 82
f 47 82 48
f 47 79 80
f 48 82 83
f 48 83 49
f 49 84 85
f 49 85 50
f 49 83 86
f 49 86 84
f 50 85 87
f 50 87 52
f 52 87 53
f 53 56 54
f 53 87 88
f 53 88 56
f 56 88 89
f 56 89 57
f 57 89 90
f 57 90 91
f 57 91 58
f 58 92 59
f 58 91 93
f 58 93 94
f 58 94 92
f 59 92 95
f 59 95 96
f 59 96 97
f 59 97 60
f 60 97 61
f 61 96 98
f 61 98 62
f 61 97 96
f 62 98 63
f 63 99 100
f 63 100 64
f 63 98 101
f 63 101 99
f 64 100 102
f 64 102 65
f 65 102 103
f 65 103 66
f 66 103 104
f 66 104 67
f 67 104 68
f 68 104 105
f 68 105 106
f 68 106 69
f 69 106 107
f 69 107 71
f 71 107 72
f 72 107 73
f 73 108 109
f 73 109 110
f 73 110 111
f 73 111 74
f 73 107 108
f 74 111 75
f 75 111 112
f 75 112 77
f 76 77 112
f 76 112 113
f 76 113 114
f 76 114 115
f 76 115 78
f 78 115 79
f 79 115 116
f 79 116 80
f 80 116 117
f 80 117 81
f 81 117 82
f 82 86 83
f 82 117 118
f 82 118 119
f 82 119 84
f 82 84 120
f 82 120 86
f 84 86 120
f 84 119 121
f 84 121 122
f 84 122 123
f 84 123 124
f 84 124 85
f 85 124 123
f 85 123 125
f 85 125 126
f 85 126 127
f 85 127 87
f 87 127 128
f 87 128 88
f 88 128 89
f 89 128 129
f 89 129 130
f 89 130 131
f 89 131 132
f 89 132 133
f 89 133 90
f 90 133 91
f 91 134 93
f 91 133 135
f 91 135 136
f 91 136 134
f 92 94 95
f 93 134 94
f 94 134 137
f 94 137 138
f 94 138 95
f 95 138 139
f 95 139 96
f 96 139 101
f 96 101 98
f 99 101 140
f 99 140 141
f 99 141 142
f 99 142 143
f 99 143 100
f 100 143 144
f 100 144 145
f 100 145 102
f 101 139 140
f 102 145 103
f 103 145 146
f 103 146 147
f 103 147 104
f 104 147 148
f 104 148 149
f 104 149 105
f 105 149 106
f 106 149 109
f 106 109 108
f 106 108 107
f 109 149 150
f 109 150 151
f 109 151 152
f 109 152 110
f 110 152 153
f 110 153 112
f 110 112 111
f 112 153 113
f 113 153 154
f 113 154 155
f 113 155 156
f 113 156 114
f 114 156 157
f 114 157 115
f 115 157 158
f 115 158 159
f 115 159 116
f 116 159 160
f 116 160 117
f 117 160 118
f 118 160 161
f 118 161 162
f 118 162 121
f 118 121 119
f 121 162 122
f 122 162 163
f 122 163 164
f 122 164 165
f 122 165 166
f 122 166 167
f 122 167 168
f 122 168 123
f 123 168 125
f 125 168 169
f 125 169 170
f 125 170 126
f 126 170 171
f 126 171 127
f 127 171 128
f 128 171 129
f 129 171 172
f 129 172 130
f 130 172 173
f 130 173 131
f 131 174 132
f 131 173 175
f 131 175 176
f 131 176 177
f 131 177 178
f 131 178 174
f 132 174 179
f 132 179 136
f 132 136 135
f 132 135 133
f 134 136 180
f 134 180 137
f 136 179 174
f 136 174 180
f 137 180 138
f 138 181 139
f 138 180 182
f 138 182 181
f 139 183 140
f 139 181 183
f 140 183 184
f 140 184 185
f 140 185 141
f 141 186 142
f 141 185 186
f 142 187 144
f 142 144 143
f 142 186 188
f 142 188 187
f 144 187 189
f 144 189 190
f 144 190 146
f 144 146 145
f 146 190 191
f 146 191 147
f 147 191 148
f 148 191 149
f 149 191 150
f 150 191 192
f 150 192 193
f 150 193 151
f 151 193 194
f 151 194 152
f 152 194 195
f 152 195 153
f 153 196 197
f 153 197 198
f 153 198 154
f 153 195 196
f 154 198 197
f 154 197 199
f 154 199 200
f 154 200 155
f 155 200 156
f 156 200 157
f 157 200 199
f 157 199 197
f 157 197 236
f 157 236 253
f 157 253 252
f 157 252 251
f 157 251 250
f 157 250 249
f 157 249 229
f 157 229 226
f 157 226 225
f 157 225 224
f 157 224 247
f 157 247 246
f 157 246 245
f 157 245 244
f 157 244 222
f 157 222 201
f 157 201 202
f 157 202 203
f 157 203 158
f 158 163 162
f 158 162 161
f 158 161 160
f 158 160 159
f 158 203 163
f 163 203 164
f 164 203 202
f 164 202 165
f 165 202 204
f 165 204 205
f 165 205 166
f 166 205 167
f 167 205 206
f 167 206 207
f 167 207 169
f 167 169 168
f 169 207 170
f 170 172 171
f 170 207 208
f 170 208 209
f 170 209 210
f 170 210 211
f 170 211 172
f 172 211 173
f 173 211 210
f 173 210 212
f 173 212 175
f 174 178 213
f 174 213 214
f 174 214 180
f 175 212 215
f 175 215 216
f 175 216 217
f 175 217 176
f 176 217 218
f 176 218 219
f 176 219 177
f 177 219 220
f 177 220 221
f 177 221 178
f 178 221 213
f 180 214 182
f 181 182 213
f 181 213 221
f 181 221 220
f 181 220 222
f 181 222 223
f 181 223 183
f 182 214 213
f 183 223 184
f 184 223 224
f 184 224 225
f 184 225 226
f 184 226 185
f 185 227 186
f 185 226 227
f 186 227 188
f 187 188 228
f 187 228 189
f 188 227 226
f 188 226 229
f 188 229 228
f 189 228 230
f 189 230 192
f 189 192 190
f 190 192 191
f 192 230 231
f 192 231 232
f 192 232 193
f 193 232 233
f 193 233 234
f 193 234 194
f 194 234 195
f 195 234 235
f 195 235 196
f 196 236 197
f 196 235 236
f 201 237 238
f 201 238 204
f 201 204 202
f 201 222 216
f 201 216 237
f 204 238 239
f 204 239 205
f 205 239 206
f 206 239 240
f 206 240 210
f 206 210 241
f 206 241 207
f 207 241 208
f 208 241 209
f 209 241 210
f 210 240 212
f 212 240 242
f 212 242 215
f 215 243 237
f 215 237 216
f 215 242 243
f 216 218 217
f 216 222 218
f 218 222 219
f 219 222 220
f 222 244 223
f 223 244 245
f 223 245 246
f 223 246 247
f 223 247 224
f 228 229 248
f 228 248 230
f 229 249 248
f 230 248 231
f 231 248 249
f 231 249 250
f 231 250 251
f 231 251 252
f 231 252 253
f 231 253 232
f 232 253 236
f 232 236 233
f 233 236 234
f 234 236 235
f 237 243 238
f 238 243 239
f 239 243 240
f 240 243 242
