v -0.094381 0.096824 0.031308
v -0.094529 0.096824 0.031320
v -0.113979 0.075381 0.032491
v -0.113950 0.075381 0.032488
v -0.094381 0.096074 0.031201
v -0.094381 0.096824 0.002227
v -0.097856 0.096824 0.031547
v -0.113483 0.078769 0.032494
v -0.115908 0.075381 0.032591
v -0.112336 0.075381 0.031679
v -0.094381 0.092325 0.029933
v -0.094381 0.093665 0.030471
v -0.094381 0.095405 0.031103
v -0.094381 0.095865 0.002311
v -0.115911 0.075381 0.000459
v -0.115911 0.075442 0.000455
v -0.109261 0.085426 0.001044
v -0.105934 0.088751 0.001321
v -0.099277 0.096824 0.001925
v -0.101186 0.096824 0.031761
v -0.113530 0.081198 0.032472
v -0.115973 0.075381 0.032595
v -0.105934 0.092078 0.032022
v -0.110235 0.075381 0.030009
v -0.110203 0.075381 0.029971
v -0.094381 0.091034 0.027445
v -0.094381 0.095063 0.002500
v -0.112415 0.075381 0.001569
v -0.119238 0.075381 0.000474
v -0.115911 0.078769 0.000575
v -0.112585 0.082099 0.000770
v -0.105934 0.092078 0.001402
v -0.102604 0.096824 0.001796
v -0.104513 0.096824 0.031880
v -0.115129 0.081198 0.032472
v -0.109261 0.088751 0.032204
v -0.119101 0.075381 0.032538
v -0.109427 0.075381 0.027498
v -0.109421 0.075381 0.027435
v -0.109313 0.075381 0.024207
v -0.109310 0.075381 0.024110
v -0.094381 0.090932 0.024110
v -0.094381 0.094416 0.002686
v -0.110594 0.076469 0.002189
v -0.110565 0.075381 0.004149
v -0.120578 0.075381 0.000952
v -0.119238 0.075442 0.000481
v -0.115911 0.082099 0.000842
v -0.112585 0.085426 0.000946
v -0.105934 0.095405 0.001704
v -0.106004 0.096824 0.001893
v -0.105934 0.096824 0.031858
v -0.109261 0.092078 0.032069
v -0.117347 0.080190 0.032415
v -0.120543 0.075381 0.032371
v -0.110022 0.075381 0.007713
v -0.094381 0.090749 0.010802
v -0.094381 0.090732 0.012083
v -0.094381 0.090707 0.014131
v -0.094381 0.093784 0.003101
v -0.094381 0.092088 0.004243
v -0.094381 0.091383 0.006200
v -0.094381 0.090925 0.007474
v -0.110046 0.075381 0.007559
v -0.122644 0.075381 0.001698
v -0.119238 0.078769 0.000915
v -0.115911 0.085426 0.001305
v -0.112585 0.088751 0.001349
v -0.109261 0.092078 0.001500
v -0.109529 0.095690 0.002076
v -0.109071 0.096824 0.002205
v -0.107839 0.096824 0.031786
v -0.109261 0.095405 0.031795
v -0.109261 0.096824 0.031641
v -0.112585 0.092078 0.031701
v -0.115911 0.085426 0.031950
v -0.112585 0.095405 0.031141
v -0.115911 0.088751 0.031258
v -0.115001 0.095405 0.029854
v -0.118147 0.088751 0.029861
v -0.121549 0.078769 0.030175
v -0.121926 0.075381 0.031000
v -0.094381 0.090835 0.009167
v -0.124097 0.075381 0.004149
v -0.121243 0.081467 0.002195
v -0.121704 0.078769 0.001887
v -0.119539 0.082384 0.001711
v -0.117405 0.090201 0.002573
v -0.116142 0.088956 0.001997
v -0.115188 0.091440 0.002264
v -0.112865 0.092359 0.002003
v -0.111943 0.094773 0.002280
v -0.110656 0.096824 0.002447
v -0.111163 0.096824 0.031264
v -0.112640 0.096824 0.030716
v -0.114029 0.096824 0.029977
v -0.114709 0.096824 0.029596
v -0.117732 0.090778 0.029354
v -0.121138 0.081164 0.029568
v -0.123443 0.075381 0.027435
v -0.124190 0.075381 0.007474
v -0.123957 0.076181 0.007474
v -0.123146 0.078769 0.007474
v -0.122031 0.082099 0.007474
v -0.121103 0.084296 0.004806
v -0.120849 0.083685 0.002588
v -0.118039 0.091473 0.004791
v -0.115094 0.096824 0.004841
v -0.113796 0.096824 0.003919
v -0.112862 0.096824 0.003280
v -0.112865 0.095690 0.002768
v -0.114160 0.093656 0.002503
v -0.111082 0.096824 0.002535
v -0.115053 0.096824 0.028712
v -0.115296 0.096824 0.027435
v -0.115943 0.095405 0.027435
v -0.117878 0.091142 0.027435
v -0.118835 0.088751 0.027435
v -0.120067 0.085426 0.027435
v -0.120773 0.083381 0.027435
v -0.122340 0.078769 0.027435
v -0.123426 0.075442 0.027435
v -0.123449 0.075381 0.027328
v -0.123598 0.075381 0.024110
v -0.122515 0.078769 0.024110
v -0.121176 0.084506 0.007474
v -0.121436 0.081975 0.024110
v -0.120861 0.083639 0.024110
v -0.120563 0.086169 0.007474
v -0.119574 0.088751 0.007474
v -0.118249 0.091992 0.007474
v -0.117537 0.093654 0.007474
v -0.116682 0.095405 0.007474
v -0.115946 0.096824 0.007474
v -0.115409 0.096824 0.025900
v -0.117289 0.093054 0.024110
v -0.117969 0.091391 0.024110
v -0.118984 0.088751 0.024110
v -0.120213 0.085426 0.024110
v -0.117490 0.093537 0.010802
v -0.116603 0.095405 0.010802
v -0.115926 0.096824 0.008994
v -0.115485 0.096824 0.024110
v -0.116191 0.095405 0.024110
v -0.115882 0.096824 0.010802
f 1 2 3
f 1 3 4
f 1 4 5
f 1 5 13
f 1 13 12
f 1 12 11
f 1 11 26
f 1 26 42
f 1 42 59
f 1 59 58
f 1 58 57
f 1 57 83
f 1 83 63
f 1 63 62
f 1 62 61
f 1 61 60
f 1 60 43
f 1 43 27
f 1 27 14
f 1 14 6
f 1 6 19
f 1 19 33
f 1 33 51
f 1 51 71
f 1 71 93
f 1 93 113
f 1 113 110
f 1 110 109
f 1 109 108
f 1 108 134
f 1 134 142
f 1 142 145
f 1 145 143
f 1 143 135
f 1 135 115
f 1 115 114
f 1 114 97
f 1 97 96
f 1 96 95
f 1 95 94
f 1 94 74
f 1 74 72
f 1 72 52
f 1 52 34
f 1 34 20
f 1 20 7
f 1 7 2
f 2 7 8
f 2 8 3
f 3 8 9
f 3 9 22
f 3 22 37
f 3 37 55
f 3 55 82
f 3 82 100
f 3 100 123
f 3 123 124
f 3 124 101
f 3 101 84
f 3 84 65
f 3 65 46
f 3 46 29
f 3 29 15
f 3 15 28
f 3 28 45
f 3 45 64
f 3 64 56
f 3 56 41
f 3 41 40
f 3 40 39
f 3 39 38
f 3 38 25
f 3 25 24
f 3 24 10
f 3 10 4
f 4 10 11
f 4 11 12
f 4 12 13
f 4 13 5
f 6 14 15
f 6 15 16
f 6 16 17
f 6 17 18
f 6 18 19
f 7 20 8
f 8 21 22
f 8 22 9
f 8 20 23
f 8 23 21
f 10 24 11
f 11 24 25
f 11 25 26
f 14 27 15
f 15 29 16
f 15 27 28
f 16 29 30
f 16 30 31
f 16 31 17
f 17 31 32
f 17 32 18
f 18 32 19
f 19 32 33
f 20 34 23
f 21 35 22
f 21 23 36
f 21 36 35
f 22 35 37
f 23 34 36
f 25 38 26
f 26 38 39
f 26 39 40
f 26 40 41
f 26 41 42
f 27 43 28
f 28 43 44
f 28 44 45
f 29 46 47
f 29 47 48
f 29 48 30
f 30 48 49
f 30 49 31
f 31 49 32
f 32 49 50
f 32 50 33
f 33 50 51
f 34 52 53
f 34 53 36
f 35 36 53
f 35 53 54
f 35 54 37
f 37 54 55
f 41 56 57
f 41 57 58
f 41 58 59
f 41 59 42
f 43 60 44
f 44 60 61
f 44 61 45
f 45 61 62
f 45 62 63
f 45 63 64
f 46 65 66
f 46 66 47
f 47 66 48
f 48 66 67
f 48 67 68
f 48 68 49
f 49 68 69
f 49 69 50
f 50 69 51
f 51 70 71
f 51 69 70
f 52 72 53
f 53 72 73
f 53 73 54
f 54 73 74
f 54 74 75
f 54 75 76
f 54 76 55
f 55 76 77
f 55 77 78
f 55 78 79
f 55 79 80
f 55 80 81
f 55 81 82
f 56 64 63
f 56 63 83
f 56 83 57
f 65 84 85
f 65 85 86
f 65 86 66
f 66 86 85
f 66 85 87
f 66 87 88
f 66 88 89
f 66 89 67
f 67 89 90
f 67 90 91
f 67 91 68
f 68 91 70
f 68 70 69
f 70 91 92
f 70 92 71
f 71 92 93
f 72 74 73
f 74 94 75
f 75 94 77
f 75 77 76
f 77 95 78
f 77 94 95
f 78 95 96
f 78 96 79
f 79 97 80
f 79 96 97
f 80 97 98
f 80 98 99
f 80 99 81
f 81 99 100
f 81 100 82
f 84 101 102
f 84 102 103
f 84 103 104
f 84 104 105
f 84 105 106
f 84 106 85
f 85 106 88
f 85 88 87
f 88 106 107
f 88 107 108
f 88 108 109
f 88 109 110
f 88 110 111
f 88 111 112
f 88 112 90
f 88 90 89
f 90 112 92
f 90 92 91
f 92 112 113
f 92 113 93
f 97 114 98
f 98 114 115
f 98 115 116
f 98 116 117
f 98 117 118
f 98 118 119
f 98 119 99
f 99 119 120
f 99 120 121
f 99 121 122
f 99 122 100
f 100 122 123
f 101 124 102
f 102 124 103
f 103 124 125
f 103 125 104
f 104 126 105
f 104 125 127
f 104 127 128
f 104 128 126
f 105 107 106
f 105 126 129
f 105 129 130
f 105 130 131
f 105 131 107
f 107 131 132
f 107 132 133
f 107 133 134
f 107 134 108
f 110 113 111
f 111 113 112
f 115 135 136
f 115 136 116
f 116 136 117
f 117 136 137
f 117 137 118
f 118 137 138
f 118 138 119
f 119 138 139
f 119 139 128
f 119 128 120
f 120 128 127
f 120 127 121
f 121 127 125
f 121 125 122
f 122 125 124
f 122 124 123
f 126 128 139
f 126 139 129
f 129 139 138
f 129 138 130
f 130 138 137
f 130 137 131
f 131 140 132
f 131 137 136
f 131 136 140
f 132 140 141
f 132 141 133
f 133 141 142
f 133 142 134
f 135 143 144
f 135 144 136
f 136 144 140
f 140 144 141
f 141 145 142
f 141 144 143
f 141 143 145
