v -0.128181 0.043467 0.024109
v -0.126579 0.043467 0.024109
v -0.127874 0.043636 0.027437
v -0.129030 0.045498 0.027437
v -0.129388 0.045498 0.024109
v -0.128854 0.045179 0.007236
v -0.127796 0.043723 0.008182
v -0.124915 0.044304 0.024109
v -0.125292 0.044317 0.027437
v -0.126955 0.043636 0.027437
v -0.127307 0.043723 0.008182
v -0.127620 0.043798 0.029250
v -0.128414 0.045382 0.030520
v -0.129351 0.048825 0.030764
v -0.129662 0.048825 0.027437
v -0.129775 0.048825 0.024109
v -0.130182 0.048825 0.007477
v -0.130215 0.048825 0.004149
v -0.129016 0.045588 0.004149
v -0.128674 0.046054 0.000821
v -0.125893 0.045691 0.000821
v -0.123432 0.045979 0.027437
v -0.123493 0.046219 0.030764
v -0.126075 0.044529 0.007236
v -0.125893 0.044817 0.004149
v -0.123587 0.046391 0.004149
v -0.126135 0.044626 0.030520
v -0.127405 0.043798 0.029250
v -0.125893 0.046226 0.033060
v -0.128173 0.046413 0.032929
v -0.128787 0.052152 0.030764
v -0.129167 0.052152 0.027437
v -0.128330 0.048825 0.033108
v -0.128029 0.052152 0.032902
v -0.127772 0.054660 0.032654
v -0.129304 0.052152 0.024109
v -0.129644 0.052152 0.007477
v -0.129666 0.052152 0.004149
v -0.129572 0.048825 0.000821
v -0.128074 0.046697 -0.001137
v -0.125893 0.046785 -0.001085
v -0.124193 0.047125 -0.000872
v -0.123882 0.046800 0.000821
v -0.122008 0.048825 0.027437
v -0.122210 0.048825 0.030764
v -0.123821 0.046663 0.032764
v -0.122437 0.048825 0.004149
v -0.109314 0.075378 0.024109
v -0.125893 0.048825 0.033741
v -0.128025 0.055654 0.030916
v -0.127727 0.057947 0.029908
v -0.128533 0.055479 0.027437
v -0.128694 0.055479 0.024109
v -0.125893 0.052152 0.033631
v -0.124471 0.065460 0.032592
v -0.124252 0.067197 0.032444
v -0.127403 0.056878 0.032127
v -0.129022 0.055479 0.007477
v -0.129057 0.055479 0.004149
v -0.127733 0.061164 0.002133
v -0.128973 0.052152 0.000821
v -0.127925 0.052152 -0.001085
v -0.128242 0.048825 -0.001254
v -0.125893 0.048825 -0.001415
v -0.123994 0.048825 -0.000999
v -0.112418 0.075378 0.001572
v -0.113381 0.072114 0.001768
v -0.113932 0.069758 0.002126
v -0.110568 0.075378 0.004149
v -0.109422 0.075378 0.027437
v -0.109430 0.075378 0.027499
v -0.110801 0.073573 0.029336
v -0.110206 0.075378 0.029973
v -0.120809 0.053539 0.032530
v -0.123368 0.048825 0.033056
v -0.110024 0.075378 0.007714
v -0.122566 0.058809 0.033380
v -0.114151 0.073369 0.032461
v -0.113954 0.075378 0.032489
v -0.124410 0.071092 0.029577
v -0.126223 0.065460 0.027437
v -0.127037 0.062133 0.027437
v -0.127497 0.060193 0.027437
v -0.127872 0.058534 0.027437
v -0.127892 0.059106 0.024178
v -0.128332 0.058809 0.007477
v -0.122566 0.062133 0.033249
v -0.121013 0.074172 0.032475
v -0.121928 0.075378 0.031002
v -0.128396 0.058809 0.004149
v -0.127808 0.061495 0.004149
v -0.126847 0.065460 0.004149
v -0.126039 0.068787 0.004149
v -0.124328 0.074072 0.002360
v -0.124641 0.072114 0.002012
v -0.127651 0.054154 -0.000910
v -0.127978 0.058809 0.001623
v -0.125893 0.052152 -0.001336
v -0.123765 0.052152 -0.001092
v -0.115914 0.075378 0.000460
v -0.110236 0.075378 0.030007
v -0.114554 0.071151 0.032310
v -0.115910 0.075378 0.032592
v -0.112340 0.075378 0.031680
v -0.123444 0.075378 0.027437
v -0.124089 0.073282 0.027437
v -0.124561 0.071617 0.027437
v -0.125351 0.068787 0.027437
v -0.125496 0.068787 0.024109
v -0.126350 0.065460 0.024109
v -0.127233 0.061852 0.024178
v -0.127542 0.060411 0.025334
v -0.127577 0.060552 0.023114
v -0.126812 0.065460 0.007477
v -0.127768 0.061349 0.007477
v -0.115974 0.075378 0.032592
v -0.119241 0.072114 0.032736
v -0.119104 0.075378 0.032537
v -0.120543 0.075378 0.032372
v -0.126020 0.068787 0.007477
v -0.125132 0.072114 0.004149
v -0.125130 0.072114 0.007477
v -0.124438 0.074447 0.004149
v -0.124097 0.075378 0.004149
v -0.122644 0.075378 0.001699
v -0.122566 0.072114 0.000870
v -0.122566 0.068787 0.000212
v -0.119241 0.075378 0.000477
v -0.119241 0.072114 0.000181
v -0.123450 0.075378 0.027330
v -0.124162 0.073544 0.024109
v -0.124647 0.071879 0.024109
v -0.117960 0.075378 0.032557
v -0.124447 0.074516 0.007477
v -0.124193 0.075378 0.007477
v -0.120577 0.075378 0.000952
v -0.123598 0.075378 0.024109
f 1 2 10
f 1 10 3
f 1 3 4
f 1 4 5
f 1 5 6
f 1 6 7
f 1 7 11
f 1 11 2
f 2 8 9
f 2 9 10
f 2 11 8
f 3 10 28
f 3 28 12
f 3 12 13
f 3 13 4
f 4 13 14
f 4 14 5
f 5 14 15
f 5 15 16
f 5 16 17
f 5 17 18
f 5 18 19
f 5 19 6
f 6 19 7
f 7 19 20
f 7 20 21
f 7 21 11
f 8 22 23
f 8 23 9
f 8 11 24
f 8 24 25
f 8 25 26
f 8 26 22
f 9 23 27
f 9 27 28
f 9 28 10
f 11 21 25
f 11 25 24
f 12 28 29
f 12 29 30
f 12 30 13
f 13 30 14
f 14 31 32
f 14 32 15
f 14 30 33
f 14 33 34
f 14 34 35
f 14 35 31
f 15 36 16
f 15 32 36
f 16 36 17
f 17 37 18
f 17 36 37
f 18 37 38
f 18 38 39
f 18 39 20
f 18 20 19
f 20 39 40
f 20 40 21
f 21 40 41
f 21 41 42
f 21 42 43
f 21 43 25
f 22 44 23
f 22 26 44
f 23 44 45
f 23 45 46
f 23 46 27
f 25 43 26
f 26 43 47
f 26 47 48
f 26 48 44
f 27 46 29
f 27 29 28
f 29 49 30
f 29 46 49
f 30 49 33
f 31 35 50
f 31 50 51
f 31 51 52
f 31 52 32
f 32 52 53
f 32 53 36
f 33 49 54
f 33 54 34
f 34 54 55
f 34 55 56
f 34 56 35
f 35 56 57
f 35 57 50
f 36 53 37
f 37 58 59
f 37 59 38
f 37 53 58
f 38 59 60
f 38 60 39
f 39 61 62
f 39 62 63
f 39 63 40
f 39 60 61
f 40 63 64
f 40 64 41
f 41 64 42
f 42 64 65
f 42 65 66
f 42 66 67
f 42 67 68
f 42 68 69
f 42 69 43
f 43 69 47
f 44 48 70
f 44 70 45
f 45 70 71
f 45 71 72
f 45 72 73
f 45 73 46
f 46 74 75
f 46 75 49
f 46 73 74
f 47 69 76
f 47 76 48
f 48 76 69
f 48 69 66
f 48 66 100
f 48 100 128
f 48 128 136
f 48 136 125
f 48 125 124
f 48 124 135
f 48 135 137
f 48 137 130
f 48 130 105
f 48 105 89
f 48 89 119
f 48 119 118
f 48 118 133
f 48 133 116
f 48 116 103
f 48 103 79
f 48 79 104
f 48 104 101
f 48 101 73
f 48 73 71
f 48 71 70
f 49 77 54
f 49 75 78
f 49 78 79
f 49 79 77
f 50 57 51
f 51 57 80
f 51 80 81
f 51 81 82
f 51 82 83
f 51 83 84
f 51 84 52
f 52 84 53
f 53 84 85
f 53 85 86
f 53 86 58
f 54 77 87
f 54 87 88
f 54 88 55
f 55 88 56
f 56 89 80
f 56 80 57
f 56 88 89
f 58 86 90
f 58 90 59
f 59 90 60
f 60 90 91
f 60 91 92
f 60 92 93
f 60 93 94
f 60 94 95
f 60 95 96
f 60 96 97
f 60 97 61
f 61 97 96
f 61 96 62
f 62 96 98
f 62 98 63
f 63 98 64
f 64 98 99
f 64 99 65
f 65 99 66
f 66 99 100
f 66 69 67
f 67 69 68
f 71 73 72
f 73 101 74
f 74 102 75
f 74 101 102
f 75 102 78
f 77 103 87
f 77 79 103
f 78 102 104
f 78 104 79
f 80 105 106
f 80 106 107
f 80 107 108
f 80 108 81
f 80 89 105
f 81 108 109
f 81 109 110
f 81 110 111
f 81 111 112
f 81 112 82
f 82 112 83
f 83 112 85
f 83 85 84
f 85 112 111
f 85 111 113
f 85 113 114
f 85 114 115
f 85 115 86
f 86 115 91
f 86 91 90
f 87 103 116
f 87 116 117
f 87 117 118
f 87 118 88
f 88 118 119
f 88 119 89
f 91 115 114
f 91 114 120
f 91 120 92
f 92 120 93
f 93 121 94
f 93 120 122
f 93 122 121
f 94 121 123
f 94 123 124
f 94 124 125
f 94 125 95
f 95 125 96
f 96 125 126
f 96 126 127
f 96 127 128
f 96 128 98
f 98 128 129
f 98 129 100
f 98 100 99
f 100 129 128
f 101 104 102
f 105 130 106
f 106 130 131
f 106 131 132
f 106 132 107
f 107 132 108
f 108 132 109
f 109 132 122
f 109 122 120
f 109 120 110
f 110 120 111
f 111 120 113
f 113 120 114
f 116 133 117
f 117 133 118
f 121 122 134
f 121 134 135
f 121 135 123
f 122 132 134
f 123 135 124
f 125 136 126
f 126 136 128
f 126 128 127
f 130 137 131
f 131 137 135
f 131 135 134
f 131 134 132
