v -0.009840 -0.078941 0.002835
v -0.015016 -0.074600 0.011740
v -0.014976 -0.074600 0.043020
v -0.009954 -0.078917 0.034038
v -0.009946 -0.078941 0.033654
v -0.009909 -0.079398 0.002408
v -0.009909 -0.079398 0.001973
v -0.009855 -0.078941 0.002387
v -0.009906 -0.078941 0.001541
v -0.009952 -0.078941 0.001110
v -0.010080 -0.078951 0.000538
v -0.010243 -0.078917 0.000260
v -0.010480 -0.078941 -0.000043
v -0.010768 -0.078941 -0.000218
v -0.011167 -0.078941 -0.000380
v -0.018232 -0.077843 0.000811
v -0.018500 -0.077843 0.000811
v -0.019893 -0.074156 0.013312
v -0.019893 -0.074156 0.038659
v -0.022487 -0.074156 0.042793
v -0.022889 -0.074156 0.043028
v -0.023340 -0.074156 0.043045
v -0.015541 -0.075056 0.043105
v -0.015171 -0.075056 0.043054
v -0.014925 -0.074825 0.042981
v -0.010468 -0.078941 0.038693
v -0.010234 -0.078926 0.038386
v -0.010063 -0.078959 0.037545
v -0.010043 -0.078941 0.037122
v -0.010054 -0.079310 0.034081
v -0.010049 -0.079316 0.033654
v -0.010037 -0.079750 0.001973
v -0.010046 -0.079729 0.001541
v -0.009929 -0.079398 0.001541
v -0.009986 -0.079398 0.001110
v -0.010103 -0.079229 0.000431
v -0.010505 -0.079317 -0.000022
v -0.010725 -0.079437 -0.000120
v -0.011227 -0.079369 -0.000333
v -0.011381 -0.079204 -0.000419
v -0.011378 -0.078941 -0.000423
v -0.018144 -0.078183 0.000333
v -0.011635 -0.078941 -0.000445
v -0.018580 -0.078192 0.000337
v -0.018617 -0.077957 0.000670
v -0.034428 -0.080476 0.000444
v -0.034203 -0.080349 0.000670
v -0.024852 -0.074156 0.013999
v -0.032037 -0.077307 0.043037
v -0.032037 -0.077662 0.043092
v -0.022923 -0.074622 0.043084
v -0.023634 -0.074156 0.043020
v -0.032325 -0.077363 0.043028
v -0.018147 -0.077227 0.043135
v -0.017416 -0.076932 0.043131
v -0.015541 -0.075490 0.043105
v -0.015256 -0.075490 0.043033
v -0.010505 -0.079270 0.038681
v -0.010120 -0.079000 0.038027
v -0.010417 -0.079409 0.038450
v -0.010120 -0.079172 0.037677
v -0.010203 -0.079357 0.037540
v -0.010163 -0.079524 0.034081
v -0.010157 -0.079531 0.033654
v -0.010154 -0.079536 0.033222
v -0.010134 -0.079573 0.029315
v -0.010186 -0.079967 0.001973
v -0.010203 -0.079946 0.001541
v -0.010237 -0.079889 0.001110
v -0.010083 -0.079672 0.001110
v -0.010106 -0.079628 0.000862
v -0.010445 -0.079731 0.000311
v -0.010554 -0.079604 0.000021
v -0.010114 -0.079449 0.000632
v -0.010845 -0.079704 -0.000047
v -0.011635 -0.079502 -0.000385
v -0.011892 -0.079587 -0.000410
v -0.011635 -0.079288 -0.000427
v -0.012069 -0.078941 -0.000449
v -0.018144 -0.078441 0.000119
v -0.012183 -0.079634 -0.000423
v -0.018580 -0.078454 0.000123
v -0.034046 -0.080883 0.000042
v -0.034283 -0.080893 0.000064
v -0.038991 -0.082480 -0.000146
v -0.038991 -0.082263 0.000136
v -0.038991 -0.082188 0.000358
v -0.034500 -0.080430 0.000670
v -0.035590 -0.077162 0.012295
v -0.034203 -0.080213 0.001106
v -0.024852 -0.074156 0.038967
v -0.032468 -0.077667 0.043054
v -0.035590 -0.079397 0.042951
v -0.035590 -0.079906 0.042990
v -0.034639 -0.079820 0.043024
v -0.034639 -0.080108 0.043020
v -0.023856 -0.074156 0.042896
v -0.032111 -0.077162 0.042951
v -0.035590 -0.078726 0.042576
v -0.035590 -0.078964 0.042772
v -0.017713 -0.077227 0.043131
v -0.015698 -0.076221 0.043024
v -0.015313 -0.075733 0.042998
v -0.010588 -0.079557 0.038604
v -0.010254 -0.079398 0.037993
v -0.010497 -0.079673 0.038313
v -0.010214 -0.079409 0.037122
v -0.010440 -0.079739 0.037566
v -0.010402 -0.079794 0.035392
v -0.010385 -0.079809 0.034512
v -0.010380 -0.079813 0.034081
v -0.010548 -0.080050 0.032185
v -0.010408 -0.080149 0.001973
v -0.010420 -0.080143 0.001541
v -0.010454 -0.080123 0.001110
v -0.010502 -0.080087 0.000794
v -0.010328 -0.079823 0.000679
v -0.010585 -0.080021 0.000504
v -0.010716 -0.079862 0.000196
v -0.011116 -0.079993 0.000076
v -0.011236 -0.079841 -0.000090
v -0.011635 -0.079831 -0.000214
v -0.012049 -0.079800 -0.000329
v -0.028990 -0.081566 -0.000496
v -0.029423 -0.081281 -0.000445
v -0.034417 -0.081783 -0.000415
v -0.018580 -0.079398 -0.000342
v -0.018181 -0.078940 -0.000188
v -0.018144 -0.078658 -0.000039
v -0.013807 -0.080265 -0.000269
v -0.038700 -0.083964 -0.000419
v -0.029423 -0.081999 -0.000474
v -0.018580 -0.078670 -0.000026
v -0.038991 -0.082834 -0.000363
v -0.038991 -0.082115 0.000674
v -0.038991 -0.082038 0.001106
v -0.038991 -0.081997 0.001537
v -0.038991 -0.081978 0.001973
v -0.038991 -0.081622 0.010391
v -0.035590 -0.077162 0.038599
v -0.024213 -0.074156 0.042336
v -0.035547 -0.080544 0.042661
v -0.035547 -0.080284 0.042879
v -0.035070 -0.080096 0.043003
v -0.038991 -0.084774 0.010391
v -0.035070 -0.080313 0.042883
v -0.034639 -0.080324 0.042857
v -0.034286 -0.080090 0.043007
v -0.019014 -0.077914 0.043011
v -0.019014 -0.077662 0.043075
v -0.024090 -0.074156 0.042678
v -0.032402 -0.077162 0.042742
v -0.035590 -0.078622 0.042336
v -0.017713 -0.077515 0.043050
v -0.017291 -0.077236 0.043062
v -0.016880 -0.076989 0.043054
v -0.016611 -0.076975 0.043007
v -0.016132 -0.076607 0.043007
v -0.010876 -0.079686 0.038706
v -0.010765 -0.079823 0.038433
v -0.010454 -0.079717 0.037993
v -0.010942 -0.080073 0.038262
v -0.010682 -0.079934 0.037993
v -0.010659 -0.079955 0.037566
v -0.010596 -0.080012 0.035392
v -0.010579 -0.080026 0.034512
v -0.010791 -0.080150 0.034081
v -0.010768 -0.080170 0.031920
v -0.010768 -0.080311 0.001973
v -0.010768 -0.080312 0.001541
v -0.010768 -0.080281 0.001110
v -0.010745 -0.080167 0.000657
v -0.010876 -0.080110 0.000367
v -0.011236 -0.080145 0.000226
v -0.011407 -0.080052 0.000012
v -0.011635 -0.080090 -0.000030
v -0.012069 -0.080153 -0.000094
v -0.012503 -0.080207 -0.000128
v -0.013376 -0.080265 -0.000222
v -0.037678 -0.083594 -0.000440
v -0.038985 -0.083736 -0.000440
v -0.037678 -0.083302 -0.000453
v -0.038991 -0.083300 -0.000445
v -0.037710 -0.082829 -0.000440
v -0.034594 -0.082010 -0.000436
v -0.037593 -0.082638 -0.000423
v -0.037878 -0.082661 -0.000415
v -0.018580 -0.078940 -0.000163
v -0.038991 -0.084189 -0.000329
v -0.014240 -0.080590 -0.000094
v -0.038991 -0.083973 -0.000423
v -0.038991 -0.083051 -0.000423
v -0.035070 -0.080545 0.042670
v -0.035590 -0.083756 0.038390
v -0.038991 -0.084770 0.000670
v -0.011201 -0.080414 0.001541
v -0.011943 -0.080469 0.037122
v -0.025080 -0.082458 0.037122
v -0.032029 -0.083483 0.037562
v -0.035590 -0.084009 0.037122
v -0.035590 -0.084001 0.037570
v -0.035590 -0.083957 0.038006
v -0.034639 -0.080527 0.042640
v -0.011404 -0.080055 0.038655
v -0.018777 -0.077888 0.042994
v -0.017442 -0.077470 0.043011
v -0.011116 -0.079976 0.038544
v -0.010902 -0.080101 0.037993
v -0.011233 -0.080111 0.038416
v -0.011201 -0.080234 0.037993
v -0.010876 -0.080121 0.037566
v -0.010828 -0.080139 0.035819
v -0.011201 -0.080289 0.037122
v -0.011201 -0.080329 0.033222
v -0.011201 -0.080332 0.032787
v -0.011201 -0.080345 0.029746
v -0.011201 -0.080364 0.024531
v -0.011201 -0.080397 0.001110
v -0.011201 -0.080329 0.000670
v -0.013090 -0.080495 0.000004
v -0.011635 -0.080253 0.000235
v -0.013376 -0.080519 -0.000030
v -0.013807 -0.080555 -0.000069
v -0.038551 -0.083756 -0.000436
v -0.038985 -0.084507 -0.000107
v -0.038991 -0.084699 0.000235
v -0.035059 -0.083657 0.038471
v -0.034639 -0.083651 0.038412
v -0.014891 -0.080917 0.000452
v -0.011852 -0.080481 0.000888
v -0.011635 -0.080416 0.037122
v -0.011635 -0.080411 0.037566
v -0.011980 -0.080466 0.037566
v -0.025080 -0.082445 0.037566
v -0.035261 -0.083957 0.037429
v -0.032548 -0.083539 0.037869
v -0.035307 -0.083951 0.037728
v -0.027035 -0.082650 0.038215
v -0.033079 -0.083524 0.038224
v -0.032029 -0.083441 0.037993
v -0.025791 -0.082204 0.038634
v -0.025939 -0.082331 0.038471
v -0.011635 -0.080207 0.038433
v -0.011201 -0.080281 0.037566
v -0.011635 -0.080358 0.037993
v -0.011678 -0.080424 0.000713
v -0.011983 -0.080461 0.000602
v -0.012277 -0.080484 0.000448
v -0.012802 -0.080461 0.000081
v -0.013807 -0.080687 0.000235
v -0.014240 -0.080761 0.000235
v -0.012251 -0.080487 0.037801
v -0.012092 -0.080432 0.037967
v -0.013070 -0.080500 0.038245
f 1 2 3
f 1 3 4
f 1 4 5
f 1 5 6
f 1 6 7
f 1 7 8
f 1 8 2
f 2 8 9
f 2 9 10
f 2 10 11
f 2 11 12
f 2 12 13
f 2 13 14
f 2 14 15
f 2 15 16
f 2 16 17
f 2 17 18
f 2 18 3
f 3 19 20
f 3 20 21
f 3 21 22
f 3 22 23
f 3 23 24
f 3 24 25
f 3 25 26
f 3 26 27
f 3 27 28
f 3 28 29
f 3 29 4
f 3 18 19
f 4 29 5
f 5 29 30
f 5 30 31
f 5 31 6
f 6 32 7
f 6 31 32
f 7 32 33
f 7 33 34
f 7 34 8
f 8 34 9
f 9 34 10
f 10 34 35
f 10 35 36
f 10 36 11
f 11 36 12
f 12 36 13
f 13 37 14
f 13 36 37
f 14 37 38
f 14 38 15
f 15 38 39
f 15 39 40
f 15 40 41
f 15 41 16
f 16 42 17
f 16 41 43
f 16 43 42
f 17 42 44
f 17 44 45
f 17 45 46
f 17 46 47
f 17 47 48
f 17 48 18
f 18 48 91
f 18 91 141
f 18 141 151
f 18 151 97
f 18 97 52
f 18 52 22
f 18 22 21
f 18 21 20
f 18 20 19
f 22 49 50
f 22 50 51
f 22 51 23
f 22 52 53
f 22 53 49
f 23 51 54
f 23 54 55
f 23 55 56
f 23 56 24
f 24 56 57
f 24 57 25
f 25 58 26
f 25 57 58
f 26 58 27
f 27 59 28
f 27 58 60
f 27 60 59
f 28 59 61
f 28 61 29
f 29 61 30
f 30 62 63
f 30 63 64
f 30 64 31
f 30 61 62
f 31 64 65
f 31 65 66
f 31 66 32
f 32 66 67
f 32 67 33
f 33 67 68
f 33 68 69
f 33 69 70
f 33 70 35
f 33 35 34
f 35 70 71
f 35 71 36
f 36 72 73
f 36 73 37
f 36 71 74
f 36 74 72
f 37 73 38
f 38 73 75
f 38 75 39
f 39 76 40
f 39 75 76
f 40 76 77
f 40 77 78
f 40 78 43
f 40 43 41
f 42 43 79
f 42 79 80
f 42 80 44
f 43 78 81
f 43 81 79
f 44 46 45
f 44 80 82
f 44 82 83
f 44 83 84
f 44 84 46
f 46 84 85
f 46 85 86
f 46 86 87
f 46 87 88
f 46 88 89
f 46 89 90
f 46 90 47
f 47 90 48
f 48 90 89
f 48 89 140
f 48 140 91
f 49 53 50
f 50 54 51
f 50 53 92
f 50 92 93
f 50 93 94
f 50 94 95
f 50 95 96
f 50 96 54
f 52 97 98
f 52 98 53
f 53 98 99
f 53 99 100
f 53 100 93
f 53 93 92
f 54 101 55
f 54 96 101
f 55 101 56
f 56 101 102
f 56 102 57
f 57 102 103
f 57 103 58
f 58 104 60
f 58 103 102
f 58 102 104
f 59 60 105
f 59 105 61
f 60 104 106
f 60 106 105
f 61 105 62
f 62 107 63
f 62 105 108
f 62 108 107
f 63 107 108
f 63 108 109
f 63 109 110
f 63 110 64
f 64 110 111
f 64 111 65
f 65 111 66
f 66 111 112
f 66 112 67
f 67 113 114
f 67 114 68
f 67 112 113
f 68 114 115
f 68 115 69
f 69 115 116
f 69 116 71
f 69 71 70
f 71 116 117
f 71 117 72
f 71 72 74
f 72 117 118
f 72 118 73
f 73 118 119
f 73 119 120
f 73 120 75
f 75 121 122
f 75 122 76
f 75 120 121
f 76 122 77
f 77 81 78
f 77 122 123
f 77 123 81
f 79 81 124
f 79 124 125
f 79 125 126
f 79 126 127
f 79 127 128
f 79 128 129
f 79 129 82
f 79 82 80
f 81 123 130
f 81 130 131
f 81 131 132
f 81 132 124
f 82 129 133
f 82 133 83
f 83 133 126
f 83 126 84
f 84 126 134
f 84 134 85
f 85 134 192
f 85 192 183
f 85 183 191
f 85 191 189
f 85 189 226
f 85 226 195
f 85 195 145
f 85 145 139
f 85 139 138
f 85 138 137
f 85 137 136
f 85 136 135
f 85 135 87
f 85 87 86
f 87 135 89
f 87 89 88
f 89 135 136
f 89 136 137
f 89 137 138
f 89 138 139
f 89 139 140
f 91 140 141
f 93 100 139
f 93 139 94
f 94 142 143
f 94 143 144
f 94 144 96
f 94 96 95
f 94 139 145
f 94 145 142
f 96 144 143
f 96 143 146
f 96 146 147
f 96 147 148
f 96 148 149
f 96 149 150
f 96 150 101
f 97 151 152
f 97 152 98
f 98 152 99
f 99 152 153
f 99 153 139
f 99 139 100
f 101 150 149
f 101 149 154
f 101 154 155
f 101 155 156
f 101 156 102
f 102 157 158
f 102 158 159
f 102 159 104
f 102 156 157
f 104 160 106
f 104 159 160
f 105 106 161
f 105 161 108
f 106 162 163
f 106 163 161
f 106 160 162
f 108 161 164
f 108 164 165
f 108 165 109
f 109 165 166
f 109 166 110
f 110 166 112
f 110 112 111
f 112 166 167
f 112 167 168
f 112 168 113
f 113 169 170
f 113 170 114
f 113 168 169
f 114 170 171
f 114 171 115
f 115 171 116
f 116 172 118
f 116 118 117
f 116 171 172
f 118 173 119
f 118 172 173
f 119 173 120
f 120 173 174
f 120 174 175
f 120 175 121
f 121 175 176
f 121 176 122
f 122 176 177
f 122 177 123
f 123 177 178
f 123 178 179
f 123 179 130
f 124 132 180
f 124 180 181
f 124 181 182
f 124 182 183
f 124 183 184
f 124 184 185
f 124 185 126
f 124 126 125
f 126 186 187
f 126 187 134
f 126 133 188
f 126 188 128
f 126 128 127
f 126 185 186
f 128 188 133
f 128 133 129
f 130 189 131
f 130 179 190
f 130 190 189
f 131 189 191
f 131 191 132
f 132 191 180
f 134 187 192
f 139 153 140
f 140 153 152
f 140 152 151
f 140 151 141
f 142 193 146
f 142 146 143
f 142 145 194
f 142 194 193
f 145 195 196
f 145 196 197
f 145 197 198
f 145 198 199
f 145 199 200
f 145 200 201
f 145 201 202
f 145 202 194
f 146 193 147
f 147 193 203
f 147 203 149
f 147 149 148
f 149 203 204
f 149 204 205
f 149 205 154
f 154 205 204
f 154 204 206
f 154 206 155
f 155 206 157
f 155 157 156
f 157 206 159
f 157 159 158
f 159 204 207
f 159 207 160
f 159 206 204
f 160 207 162
f 161 163 164
f 162 208 163
f 162 207 204
f 162 204 209
f 162 209 210
f 162 210 208
f 163 208 211
f 163 211 164
f 164 211 165
f 165 211 166
f 166 211 212
f 166 212 167
f 167 212 213
f 167 213 168
f 168 213 214
f 168 214 215
f 168 215 169
f 169 215 216
f 169 216 217
f 169 217 170
f 170 217 196
f 170 196 218
f 170 218 171
f 171 218 219
f 171 219 172
f 172 219 173
f 173 219 174
f 174 220 176
f 174 176 175
f 174 219 221
f 174 221 220
f 176 220 177
f 177 220 222
f 177 222 178
f 178 222 179
f 179 222 223
f 179 223 190
f 180 191 224
f 180 224 181
f 181 224 191
f 181 191 183
f 181 183 182
f 183 192 184
f 184 192 186
f 184 186 185
f 186 192 187
f 189 190 225
f 189 225 226
f 190 223 225
f 193 194 227
f 193 227 203
f 194 202 228
f 194 228 227
f 195 226 229
f 195 229 230
f 195 230 218
f 195 218 196
f 196 217 231
f 196 231 197
f 197 231 232
f 197 232 233
f 197 233 198
f 198 233 234
f 198 234 199
f 199 235 200
f 199 234 236
f 199 236 237
f 199 237 201
f 199 201 235
f 200 235 201
f 201 237 202
f 202 238 239
f 202 239 228
f 202 237 236
f 202 236 240
f 202 240 238
f 203 227 228
f 203 228 241
f 203 241 204
f 204 241 242
f 204 242 238
f 204 238 243
f 204 243 209
f 208 210 244
f 208 244 211
f 209 243 245
f 209 245 210
f 210 245 232
f 210 232 244
f 211 244 212
f 212 244 213
f 213 231 214
f 213 244 232
f 213 232 231
f 214 231 215
f 215 231 216
f 216 231 217
f 218 230 246
f 218 246 219
f 219 246 247
f 219 247 248
f 219 248 249
f 219 249 221
f 220 221 249
f 220 249 248
f 220 248 250
f 220 250 251
f 220 251 226
f 220 226 225
f 220 225 222
f 222 225 223
f 226 251 229
f 228 239 238
f 228 238 242
f 228 242 241
f 229 251 248
f 229 248 247
f 229 247 230
f 230 247 246
f 232 245 252
f 232 252 233
f 233 252 234
f 234 252 236
f 236 252 240
f 238 240 252
f 238 252 253
f 238 253 245
f 238 245 254
f 238 254 243
f 243 254 245
f 245 253 252
f 248 251 250
