v -0.018255 -0.052021 0.038878
v -0.018255 -0.050305 0.038861
v -0.020312 -0.052976 0.043044
v -0.020371 -0.053426 0.043074
v -0.020312 -0.053454 0.012775
v -0.018255 -0.052021 0.013839
v -0.018255 -0.049926 0.038852
v -0.021185 -0.052908 0.043074
v -0.020751 -0.053342 0.043087
v -0.018255 -0.049492 0.038814
v -0.018255 -0.049062 0.038715
v -0.018255 -0.048763 0.038532
v -0.020533 -0.052691 0.042997
v -0.020768 -0.052763 0.043032
v -0.037248 -0.055748 0.043036
v -0.036918 -0.055748 0.043002
v -0.036380 -0.055748 0.042912
v -0.036123 -0.055748 0.042856
v -0.036123 -0.055748 0.011522
v -0.038314 -0.055736 0.001424
v -0.022263 -0.053130 0.001304
v -0.018255 -0.051076 0.000676
v -0.018255 -0.051111 0.001052
v -0.023357 -0.053342 0.043079
v -0.021185 -0.052649 0.043027
v -0.039414 -0.055646 0.043032
v -0.023942 -0.053454 0.043079
v -0.037685 -0.055748 0.043040
v -0.018255 -0.048548 0.038049
v -0.018579 -0.048720 0.038365
v -0.022308 -0.049215 0.038224
v -0.030645 -0.050505 0.038237
v -0.044802 -0.052697 0.038194
v -0.044514 -0.052680 0.038232
v -0.021622 -0.052480 0.042775
v -0.040954 -0.055748 0.039314
v -0.040954 -0.055748 0.012762
v -0.043988 -0.055748 0.000300
v -0.044245 -0.055748 -0.000170
v -0.038306 -0.055740 0.001971
v -0.038116 -0.055482 0.000676
v -0.044486 -0.055748 -0.000392
v -0.022489 -0.053081 0.001061
v -0.022489 -0.052931 0.000676
v -0.022224 -0.052725 0.000415
v -0.022067 -0.052786 0.000697
v -0.018255 -0.050960 0.000168
v -0.021731 -0.052681 0.043002
v -0.037685 -0.055307 0.042993
v -0.038550 -0.055165 0.042732
v -0.038983 -0.055215 0.042694
v -0.040022 -0.055748 0.042985
v -0.039680 -0.055732 0.043023
v -0.025526 -0.049672 0.038113
v -0.018255 -0.048459 0.037566
v -0.020166 -0.048775 0.037822
v -0.030937 -0.050527 0.038194
v -0.045060 -0.052688 0.038023
v -0.045485 -0.052785 0.037989
v -0.045496 -0.053003 0.038344
v -0.045060 -0.052935 0.038412
v -0.037508 -0.054853 0.042570
v -0.045496 -0.055748 0.038715
v -0.038116 -0.055343 0.000398
v -0.044780 -0.055748 -0.000461
v -0.022489 -0.052757 0.000381
v -0.022492 -0.052440 0.000142
v -0.018255 -0.050721 -0.000132
v -0.038116 -0.055126 0.042762
v -0.045799 -0.053078 0.038267
v -0.045496 -0.053273 0.038557
v -0.045732 -0.053546 0.038655
v -0.040282 -0.055748 0.042848
v -0.045883 -0.055748 0.038626
v -0.025932 -0.049700 0.037976
v -0.018255 -0.048443 0.037134
v -0.045496 -0.052603 0.037130
v -0.045754 -0.052668 0.037420
v -0.045485 -0.052643 0.037566
v -0.028471 -0.050067 0.037856
v -0.045334 -0.052678 0.037831
v -0.045622 -0.052719 0.037707
v -0.045936 -0.053003 0.037997
v -0.045161 -0.055748 -0.000491
v -0.021345 -0.050967 -0.000422
v -0.022487 -0.051607 -0.000268
v -0.022492 -0.052046 -0.000076
v -0.022641 -0.052272 0.000014
v -0.022352 -0.052234 0.000031
v -0.019013 -0.050739 -0.000243
v -0.018255 -0.050305 -0.000332
v -0.046087 -0.053172 0.038147
v -0.046235 -0.053461 0.038292
v -0.045908 -0.053359 0.038420
v -0.046020 -0.053776 0.038587
v -0.040576 -0.055748 0.042656
v -0.046275 -0.055748 0.038365
v -0.018255 -0.048435 0.036754
v -0.045774 -0.052660 0.037130
v -0.018255 -0.048422 0.002847
v -0.045060 -0.052538 0.018480
v -0.045496 -0.052609 0.004146
v -0.045989 -0.052781 0.037130
v -0.046325 -0.052997 0.037130
v -0.046261 -0.053038 0.037566
v -0.045914 -0.052812 0.037566
v -0.046196 -0.053086 0.037861
v -0.045513 -0.055748 -0.000465
v -0.045060 -0.054644 -0.000550
v -0.044626 -0.054210 -0.000572
v -0.027262 -0.051172 -0.000529
v -0.027695 -0.051607 -0.000508
v -0.021619 -0.050739 -0.000461
v -0.022053 -0.051028 -0.000439
v -0.021619 -0.050992 -0.000431
v -0.019640 -0.050527 -0.000414
v -0.019475 -0.050698 -0.000332
v -0.018255 -0.048995 -0.000149
v -0.018579 -0.050305 -0.000362
v -0.018579 -0.049958 -0.000405
v -0.018280 -0.049609 -0.000388
v -0.046361 -0.053353 0.037989
v -0.046594 -0.053535 0.037818
v -0.046518 -0.053776 0.038104
v -0.046300 -0.053776 0.038369
v -0.046101 -0.054210 0.038630
v -0.046107 -0.054644 0.038630
v -0.046059 -0.055079 0.038617
v -0.046311 -0.055079 0.038399
v -0.046594 -0.054644 0.038027
v -0.046568 -0.055079 0.037976
v -0.046479 -0.055748 0.037989
v -0.045961 -0.052749 0.017608
v -0.046364 -0.052949 0.016741
v -0.045969 -0.052765 0.036698
v -0.045746 -0.052675 0.004146
v -0.045958 -0.052753 0.001103
v -0.018255 -0.048425 0.002403
v -0.045060 -0.052556 0.001544
v -0.045496 -0.052627 0.001544
v -0.045746 -0.052681 0.001544
v -0.046353 -0.052982 0.036698
v -0.046571 -0.053134 0.036698
v -0.046543 -0.053170 0.037130
v -0.046479 -0.053256 0.037566
v -0.045947 -0.054644 -0.000418
v -0.045496 -0.054644 -0.000516
v -0.045818 -0.055748 -0.000358
v -0.045060 -0.054210 -0.000559
v -0.044626 -0.053776 -0.000550
v -0.027262 -0.050865 -0.000465
v -0.026828 -0.050845 -0.000473
v -0.018826 -0.049638 -0.000414
v -0.018579 -0.049529 -0.000384
v -0.044626 -0.053171 -0.000401
v -0.019013 -0.049061 -0.000119
v -0.018314 -0.048780 0.000018
v -0.018255 -0.048651 0.000291
v -0.046633 -0.053776 0.037882
v -0.046627 -0.053473 0.037566
v -0.046731 -0.053776 0.037566
v -0.046543 -0.054210 0.038147
v -0.046325 -0.054210 0.038416
v -0.046664 -0.054210 0.037933
v -0.046325 -0.054644 0.038416
v -0.046594 -0.055372 0.037814
v -0.046554 -0.055748 0.037566
v -0.046599 -0.053105 0.016741
v -0.046582 -0.053122 0.034801
v -0.046356 -0.052970 0.001103
v -0.045726 -0.052688 0.000992
v -0.045888 -0.052776 0.000710
v -0.046319 -0.053001 0.000668
v -0.018255 -0.048435 0.001980
v -0.018255 -0.048446 0.001544
v -0.045496 -0.052639 0.001103
v -0.046692 -0.053352 0.036698
v -0.046672 -0.053388 0.037130
v -0.046708 -0.053356 0.035395
v -0.045961 -0.054210 -0.000422
v -0.046333 -0.054644 -0.000162
v -0.046406 -0.054252 -0.000149
v -0.045496 -0.054210 -0.000516
v -0.046247 -0.055748 0.000005
v -0.045060 -0.053776 -0.000529
v -0.044192 -0.053244 -0.000444
v -0.045060 -0.053327 -0.000418
v -0.045496 -0.053280 -0.000332
v -0.045496 -0.053005 -0.000119
v -0.045060 -0.052959 -0.000157
v -0.044304 -0.052683 0.000005
v -0.019338 -0.048769 0.000415
v -0.018255 -0.048528 0.000727
v -0.044707 -0.052714 0.000082
v -0.046776 -0.054210 0.037566
v -0.046792 -0.053776 0.037130
v -0.046734 -0.054644 0.037566
v -0.046666 -0.055079 0.037566
v -0.046608 -0.055442 0.037566
v -0.046697 -0.055079 0.037130
v -0.046717 -0.055079 0.036698
v -0.046588 -0.055748 0.036613
v -0.046708 -0.053342 0.017172
v -0.046680 -0.053302 0.034946
v -0.046616 -0.053247 0.001103
v -0.046669 -0.053355 0.001544
v -0.045608 -0.052707 0.000595
v -0.045969 -0.052970 0.000193
v -0.046238 -0.053060 0.000313
v -0.046585 -0.053304 0.000668
v -0.018255 -0.048479 0.001103
v -0.046815 -0.053776 0.036698
v -0.046848 -0.053776 0.035395
v -0.046840 -0.053776 0.035826
v -0.046381 -0.053796 -0.000119
v -0.045894 -0.053776 -0.000401
v -0.045496 -0.053776 -0.000486
v -0.046580 -0.054426 0.000018
v -0.046594 -0.054045 0.000001
v -0.046373 -0.055748 0.000338
v -0.045611 -0.053522 -0.000431
v -0.045936 -0.053337 -0.000209
v -0.045855 -0.053061 -0.000059
v -0.045477 -0.052778 0.000266
v -0.045060 -0.052743 0.000163
v -0.045320 -0.052686 0.000437
v -0.046809 -0.054210 0.037130
v -0.046767 -0.054644 0.037130
v -0.046781 -0.054644 0.036698
v -0.046722 -0.055079 0.036262
v -0.046613 -0.055630 0.036262
v -0.046504 -0.055748 0.014570
v -0.046818 -0.053776 0.018480
v -0.046734 -0.053776 0.000668
v -0.046762 -0.053776 0.001103
v -0.046143 -0.053127 0.000022
v -0.046389 -0.053313 0.000206
v -0.046602 -0.053499 0.000394
v -0.046829 -0.054210 0.035826
v -0.046837 -0.054210 0.033655
v -0.046538 -0.053665 0.000103
v -0.046249 -0.053417 -0.000067
v -0.046594 -0.054912 0.000415
v -0.046624 -0.054644 0.000317
v -0.046655 -0.054252 0.000193
v -0.046641 -0.053796 0.000244
v -0.046437 -0.055748 0.000770
v -0.046784 -0.054644 0.036262
v -0.046798 -0.054210 0.015437
v -0.046731 -0.054644 0.015005
v -0.046451 -0.055748 0.001544
v -0.046748 -0.054210 0.000668
v -0.046672 -0.054644 0.000668
v -0.046448 -0.055748 0.001103
f 1 2 3
f 1 3 4
f 1 4 5
f 1 5 6
f 1 6 23
f 1 23 22
f 1 22 47
f 1 47 68
f 1 68 91
f 1 91 118
f 1 118 158
f 1 158 193
f 1 193 211
f 1 211 175
f 1 175 174
f 1 174 138
f 1 138 100
f 1 100 98
f 1 98 76
f 1 76 55
f 1 55 29
f 1 29 12
f 1 12 11
f 1 11 10
f 1 10 7
f 1 7 2
f 2 7 3
f 3 8 9
f 3 9 4
f 3 7 10
f 3 10 11
f 3 11 12
f 3 12 13
f 3 13 14
f 3 14 8
f 4 9 15
f 4 15 16
f 4 16 17
f 4 17 18
f 4 18 5
f 5 19 20
f 5 20 21
f 5 21 22
f 5 22 23
f 5 23 6
f 5 18 19
f 8 24 9
f 8 14 25
f 8 25 26
f 8 26 24
f 9 24 27
f 9 27 28
f 9 28 15
f 12 29 30
f 12 30 31
f 12 31 32
f 12 32 33
f 12 33 34
f 12 34 35
f 12 35 25
f 12 25 13
f 13 25 14
f 15 28 36
f 15 36 16
f 16 36 17
f 17 36 18
f 18 36 37
f 18 37 19
f 19 37 38
f 19 38 39
f 19 39 40
f 19 40 20
f 20 41 21
f 20 40 42
f 20 42 41
f 21 41 43
f 21 43 44
f 21 44 45
f 21 45 46
f 21 46 47
f 21 47 22
f 24 26 27
f 25 35 48
f 25 48 26
f 26 28 27
f 26 48 49
f 26 49 50
f 26 50 51
f 26 51 52
f 26 52 53
f 26 53 28
f 28 53 52
f 28 52 36
f 29 54 31
f 29 31 30
f 29 55 56
f 29 56 54
f 31 54 57
f 31 57 32
f 32 57 33
f 33 58 59
f 33 59 60
f 33 60 61
f 33 61 51
f 33 51 50
f 33 50 62
f 33 62 34
f 33 57 58
f 34 62 35
f 35 62 48
f 36 52 63
f 36 63 74
f 36 74 97
f 36 97 132
f 36 132 167
f 36 167 202
f 36 202 232
f 36 232 251
f 36 251 254
f 36 254 247
f 36 247 220
f 36 220 184
f 36 184 148
f 36 148 108
f 36 108 84
f 36 84 65
f 36 65 42
f 36 42 39
f 36 39 38
f 36 38 37
f 39 42 40
f 41 64 44
f 41 44 43
f 41 42 64
f 42 65 64
f 44 64 66
f 44 66 45
f 45 66 67
f 45 67 68
f 45 68 47
f 45 47 46
f 48 62 50
f 48 50 69
f 48 69 49
f 49 69 50
f 51 61 52
f 52 61 60
f 52 60 70
f 52 70 71
f 52 71 72
f 52 72 73
f 52 73 74
f 52 74 63
f 54 56 75
f 54 75 57
f 55 76 77
f 55 77 78
f 55 78 56
f 56 78 79
f 56 79 80
f 56 80 75
f 57 75 81
f 57 81 58
f 58 81 59
f 59 81 82
f 59 82 83
f 59 83 70
f 59 70 60
f 64 65 66
f 65 84 85
f 65 85 86
f 65 86 87
f 65 87 88
f 65 88 67
f 65 67 66
f 67 88 89
f 67 89 68
f 68 89 90
f 68 90 91
f 70 92 93
f 70 93 94
f 70 94 72
f 70 72 71
f 70 83 92
f 72 94 93
f 72 93 95
f 72 95 73
f 73 95 96
f 73 96 74
f 74 96 97
f 75 80 81
f 76 98 77
f 77 99 78
f 77 98 100
f 77 100 101
f 77 101 102
f 77 102 99
f 78 99 103
f 78 103 104
f 78 104 105
f 78 105 106
f 78 106 83
f 78 83 82
f 78 82 81
f 78 81 79
f 79 81 80
f 83 106 107
f 83 107 92
f 84 108 109
f 84 109 110
f 84 110 111
f 84 111 112
f 84 112 113
f 84 113 114
f 84 114 115
f 84 115 85
f 85 115 116
f 85 116 117
f 85 117 86
f 86 117 87
f 87 117 89
f 87 89 88
f 89 117 90
f 90 117 91
f 91 117 116
f 91 116 119
f 91 119 120
f 91 120 121
f 91 121 118
f 92 107 122
f 92 122 93
f 93 122 123
f 93 123 124
f 93 124 125
f 93 125 95
f 95 125 126
f 95 126 96
f 96 126 127
f 96 127 128
f 96 128 97
f 97 128 127
f 97 127 129
f 97 129 130
f 97 130 131
f 97 131 132
f 99 133 134
f 99 134 135
f 99 135 103
f 99 102 136
f 99 136 137
f 99 137 133
f 100 138 139
f 100 139 102
f 100 102 101
f 102 139 140
f 102 140 141
f 102 141 136
f 103 135 142
f 103 142 104
f 104 142 143
f 104 143 144
f 104 144 105
f 105 145 107
f 105 107 106
f 105 144 145
f 107 145 122
f 108 146 147
f 108 147 109
f 108 148 146
f 109 147 149
f 109 149 110
f 110 149 150
f 110 150 111
f 111 150 151
f 111 151 152
f 111 152 153
f 111 153 113
f 111 113 112
f 113 153 120
f 113 120 116
f 113 116 115
f 113 115 114
f 116 120 119
f 118 121 154
f 118 154 151
f 118 151 155
f 118 155 156
f 118 156 157
f 118 157 158
f 120 153 121
f 121 153 154
f 122 145 123
f 123 159 124
f 123 145 160
f 123 160 161
f 123 161 159
f 124 162 163
f 124 163 125
f 124 159 164
f 124 164 162
f 125 163 126
f 126 163 127
f 127 163 165
f 127 165 129
f 129 165 162
f 129 162 130
f 130 162 164
f 130 164 166
f 130 166 131
f 131 166 132
f 132 166 167
f 133 137 134
f 134 168 169
f 134 169 142
f 134 142 135
f 134 137 170
f 134 170 168
f 136 141 137
f 137 141 171
f 137 171 172
f 137 172 173
f 137 173 170
f 138 174 139
f 139 174 175
f 139 175 176
f 139 176 140
f 140 176 171
f 140 171 141
f 142 169 143
f 143 177 178
f 143 178 144
f 143 169 179
f 143 179 177
f 144 178 160
f 144 160 145
f 146 180 147
f 146 148 181
f 146 181 182
f 146 182 180
f 147 183 149
f 147 180 183
f 148 184 181
f 149 183 217
f 149 217 185
f 149 185 150
f 150 185 186
f 150 186 151
f 151 186 155
f 151 154 153
f 151 153 152
f 155 186 187
f 155 187 188
f 155 188 189
f 155 189 190
f 155 190 157
f 155 157 156
f 157 190 191
f 157 191 158
f 158 192 193
f 158 191 194
f 158 194 192
f 159 161 164
f 160 178 161
f 161 195 164
f 161 178 196
f 161 196 195
f 162 165 163
f 164 195 166
f 166 195 197
f 166 197 198
f 166 198 199
f 166 199 167
f 167 199 200
f 167 200 201
f 167 201 202
f 168 203 179
f 168 179 204
f 168 204 169
f 168 170 205
f 168 205 206
f 168 206 203
f 169 204 179
f 170 173 205
f 171 176 207
f 171 207 172
f 172 207 208
f 172 208 209
f 172 209 173
f 173 210 205
f 173 209 210
f 175 211 176
f 176 211 207
f 177 212 196
f 177 196 178
f 177 179 213
f 177 213 214
f 177 214 212
f 179 203 213
f 180 182 215
f 180 215 216
f 180 216 217
f 180 217 183
f 181 184 218
f 181 218 182
f 182 218 219
f 182 219 215
f 184 220 218
f 185 217 221
f 185 221 187
f 185 187 186
f 187 221 188
f 188 222 223
f 188 223 189
f 188 221 222
f 189 223 224
f 189 224 225
f 189 225 194
f 189 194 191
f 189 191 190
f 192 226 193
f 192 194 226
f 193 226 207
f 193 207 211
f 194 225 226
f 195 196 227
f 195 227 228
f 195 228 197
f 196 212 227
f 197 228 198
f 198 228 200
f 198 200 199
f 200 228 201
f 201 229 230
f 201 230 202
f 201 228 229
f 202 230 231
f 202 231 232
f 203 233 213
f 203 206 233
f 205 210 234
f 205 234 235
f 205 235 206
f 206 235 233
f 207 226 224
f 207 224 208
f 208 224 223
f 208 223 236
f 208 236 209
f 209 236 237
f 209 237 210
f 210 237 238
f 210 238 234
f 212 214 227
f 213 239 227
f 213 227 214
f 213 233 240
f 213 240 239
f 215 219 241
f 215 241 242
f 215 242 216
f 216 221 217
f 216 242 222
f 216 222 221
f 218 220 243
f 218 243 244
f 218 244 245
f 218 245 219
f 219 245 246
f 219 246 241
f 220 247 243
f 222 242 236
f 222 236 223
f 224 226 225
f 227 239 229
f 227 229 228
f 229 239 248
f 229 248 230
f 230 248 249
f 230 249 250
f 230 250 231
f 231 250 232
f 232 250 251
f 233 235 249
f 233 249 240
f 234 238 246
f 234 246 245
f 234 245 252
f 234 252 235
f 235 252 249
f 236 242 241
f 236 241 237
f 237 241 238
f 238 241 246
f 239 240 248
f 240 249 248
f 243 253 252
f 243 252 244
f 243 247 253
f 244 252 245
f 247 254 253
f 249 252 250
f 250 252 253
f 250 253 251
f 251 253 254
