v -0.040725 -0.085107 0.001541
v -0.041157 -0.085078 0.001981
v -0.041157 -0.085075 0.001541
v -0.040725 -0.085101 0.001109
v -0.040292 -0.085026 0.000673
v -0.039856 -0.085009 0.011526
v -0.040292 -0.085081 0.011526
v -0.040725 -0.085101 0.011094
v -0.041497 -0.084917 0.002409
v -0.041492 -0.084917 0.001981
v -0.041157 -0.085026 0.026709
v -0.041503 -0.084912 0.027141
v -0.041501 -0.084917 0.002845
v -0.041157 -0.085055 0.001109
v -0.040725 -0.085081 0.000673
v -0.041484 -0.084914 0.001541
v -0.038993 -0.084768 0.000673
v -0.040292 -0.084909 0.000109
v -0.039455 -0.084817 0.000259
v -0.035593 -0.084136 0.010389
v -0.035593 -0.084141 0.011924
v -0.035593 -0.084026 0.034091
v -0.035593 -0.084009 0.037134
v -0.040258 -0.084860 0.037126
v -0.040725 -0.085035 0.024546
v -0.041791 -0.084598 0.002845
v -0.041790 -0.084593 0.002409
v -0.041157 -0.084975 0.033659
v -0.041484 -0.084889 0.034091
v -0.041718 -0.084736 0.025845
v -0.041697 -0.084748 0.035826
v -0.041463 -0.084900 0.001109
v -0.041157 -0.084992 0.000673
v -0.040783 -0.084906 0.000118
v -0.041783 -0.084581 0.001981
v -0.041773 -0.084561 0.001541
v -0.038993 -0.084696 0.000237
v -0.040292 -0.084604 -0.000220
v -0.039826 -0.084745 -0.000049
v -0.035593 -0.080756 0.010389
v -0.038993 -0.084506 -0.000105
v -0.038993 -0.084078 -0.000370
v -0.038993 -0.083736 -0.000438
v -0.035593 -0.084001 0.037574
v -0.040725 -0.084923 0.037130
v -0.040725 -0.084932 0.036694
v -0.040139 -0.084825 0.037497
v -0.042009 -0.084170 0.002845
v -0.042006 -0.084170 0.002409
v -0.041912 -0.084529 0.035826
v -0.042110 -0.084170 0.036258
v -0.041999 -0.084170 0.001981
v -0.041157 -0.084943 0.036258
v -0.041466 -0.084866 0.036258
v -0.041482 -0.084866 0.035826
v -0.041808 -0.084647 0.035390
v -0.041556 -0.084788 0.036694
v -0.041908 -0.084503 0.036694
v -0.041914 -0.084518 0.036258
v -0.041750 -0.084518 0.001050
v -0.041653 -0.084561 0.000708
v -0.041398 -0.084843 0.000558
v -0.041126 -0.084877 0.000276
v -0.041126 -0.084584 -0.000066
v -0.040725 -0.084604 -0.000186
v -0.041985 -0.084170 0.001541
v -0.041957 -0.084170 0.001109
v -0.039422 -0.084570 -0.000143
v -0.040725 -0.084253 -0.000370
v -0.040292 -0.084205 -0.000421
v -0.039856 -0.084196 -0.000417
v -0.035594 -0.074704 0.013129
v -0.035594 -0.073951 0.013471
v -0.035594 -0.073296 0.013774
v -0.035594 -0.072954 0.013945
v -0.035594 -0.069753 0.015724
v -0.035593 -0.079038 0.011757
v -0.038993 -0.083296 -0.000438
v -0.038993 -0.082940 -0.000391
v -0.040292 -0.083736 -0.000506
v -0.040292 -0.083302 -0.000558
v -0.035593 -0.083756 0.038399
v -0.035632 -0.083957 0.038032
v -0.041157 -0.084932 0.036694
v -0.040725 -0.084889 0.037562
v -0.039856 -0.084693 0.037998
v -0.040370 -0.084797 0.037899
v -0.042224 -0.083874 0.036694
v -0.042175 -0.083748 0.008051
v -0.042146 -0.083736 0.001981
v -0.042140 -0.083736 0.001541
v -0.042244 -0.083529 0.007478
v -0.042107 -0.084170 0.036694
v -0.041200 -0.084880 0.037168
v -0.041496 -0.084779 0.037113
v -0.041883 -0.084475 0.037130
v -0.042070 -0.084170 0.037130
v -0.041834 -0.084256 0.000643
v -0.041466 -0.084584 0.000276
v -0.041248 -0.084713 0.000156
v -0.041438 -0.084297 -0.000045
v -0.041275 -0.083851 -0.000382
v -0.041065 -0.084070 -0.000365
v -0.042121 -0.083736 0.001109
v -0.042047 -0.083736 0.000673
v -0.041142 -0.083719 -0.000442
v -0.040725 -0.083886 -0.000459
v -0.042193 -0.060715 0.000481
v -0.042000 -0.060727 0.001109
v -0.043897 -0.055749 0.000673
v -0.043844 -0.055749 0.001109
v -0.042882 -0.055749 0.013026
v -0.035594 -0.069891 0.038968
v -0.035593 -0.070572 0.041909
v -0.043762 -0.063767 -0.000630
v -0.044244 -0.058557 -0.000506
v -0.044494 -0.056430 -0.000447
v -0.044487 -0.055749 -0.000391
v -0.042673 -0.060936 0.000019
v -0.040725 -0.083302 -0.000545
v -0.040725 -0.082865 -0.000562
v -0.043762 -0.064198 -0.000630
v -0.035593 -0.080538 0.042657
v -0.040222 -0.084420 0.038605
v -0.039856 -0.084512 0.038391
v -0.039422 -0.084472 0.038335
v -0.038404 -0.084380 0.038186
v -0.040725 -0.084814 0.037980
v -0.041073 -0.084794 0.037938
v -0.042350 -0.083299 0.036694
v -0.042272 -0.083627 0.031483
v -0.042240 -0.083742 0.037130
v -0.042347 -0.083299 0.037130
v -0.042221 -0.083340 0.002409
v -0.042224 -0.083271 0.001947
v -0.042211 -0.083302 0.001541
v -0.042426 -0.082865 0.037130
v -0.046594 -0.055749 0.036258
v -0.046455 -0.055749 0.001541
v -0.046219 -0.057255 0.001109
v -0.041216 -0.084831 0.037506
v -0.041591 -0.084618 0.037562
v -0.041825 -0.084406 0.037681
v -0.041992 -0.084170 0.037562
v -0.042096 -0.083733 0.037998
v -0.042247 -0.083535 0.037609
v -0.041775 -0.084113 0.000301
v -0.041583 -0.083730 -0.000203
v -0.041843 -0.083716 0.000066
v -0.041643 -0.083302 -0.000288
v -0.041282 -0.083365 -0.000464
v -0.042681 -0.080072 0.000861
v -0.042840 -0.078960 0.000673
v -0.042771 -0.079391 0.000673
v -0.042131 -0.083302 0.000673
v -0.042019 -0.083302 0.000237
v -0.043993 -0.055749 0.000301
v -0.042188 -0.060434 0.000763
v -0.044250 -0.055749 -0.000169
v -0.043005 -0.055749 0.038728
v -0.041802 -0.058629 0.042943
v -0.035593 -0.070675 0.042370
v -0.044630 -0.058557 -0.000562
v -0.044630 -0.058123 -0.000553
v -0.044498 -0.056818 -0.000472
v -0.044783 -0.055749 -0.000459
v -0.041157 -0.082432 -0.000532
v -0.043762 -0.064632 -0.000626
v -0.041157 -0.081998 -0.000541
v -0.045064 -0.057255 -0.000515
v -0.035593 -0.080170 0.042939
v -0.036165 -0.080046 0.042994
v -0.040860 -0.084411 0.038673
v -0.040725 -0.084604 0.038429
v -0.041211 -0.084417 0.038523
v -0.041466 -0.084460 0.038310
v -0.041603 -0.084501 0.037963
v -0.042390 -0.082865 0.037562
v -0.046077 -0.058123 0.000673
v -0.045716 -0.061385 0.037352
v -0.045495 -0.062896 0.036694
v -0.046590 -0.055749 0.036608
v -0.046448 -0.055749 0.001109
v -0.046441 -0.055749 0.000772
v -0.041827 -0.084248 0.038027
v -0.041862 -0.084035 0.038275
v -0.041921 -0.083733 0.038344
v -0.042258 -0.082842 0.038173
v -0.042240 -0.083279 0.037963
v -0.041879 -0.083302 -0.000070
v -0.041752 -0.082432 -0.000382
v -0.041535 -0.082432 -0.000468
v -0.046154 -0.057508 0.000438
v -0.044859 -0.065816 0.000417
v -0.042700 -0.079532 0.000366
v -0.042702 -0.078966 0.000058
v -0.042253 -0.081417 0.000002
v -0.044429 -0.055749 0.038733
v -0.035593 -0.071187 0.042909
v -0.035593 -0.070856 0.042708
v -0.045064 -0.055749 0.038733
v -0.045498 -0.055749 0.038711
v -0.045885 -0.055749 0.038626
v -0.042337 -0.058629 0.042691
v -0.041897 -0.060790 0.042956
v -0.038987 -0.074184 0.043037
v -0.035593 -0.071948 0.043003
v -0.035593 -0.071592 0.042994
v -0.045064 -0.056818 -0.000515
v -0.045164 -0.055749 -0.000494
v -0.041591 -0.081567 -0.000498
v -0.044196 -0.063767 -0.000566
v -0.045645 -0.055758 -0.000429
v -0.037374 -0.079595 0.043020
v -0.041418 -0.084021 0.038677
v -0.041587 -0.084173 0.038438
v -0.046557 -0.055749 0.037562
v -0.044853 -0.066623 0.037801
v -0.046144 -0.058301 0.037715
v -0.046216 -0.058123 0.037130
v -0.046376 -0.055749 0.000340
v -0.041697 -0.083733 0.038562
v -0.039723 -0.077224 0.042691
v -0.041984 -0.083299 0.038399
v -0.045262 -0.063414 0.038139
v -0.039772 -0.076790 0.042738
v -0.042325 -0.060727 0.042669
v -0.044946 -0.064632 0.038365
v -0.045281 -0.063120 0.038216
v -0.042317 -0.080696 -0.000087
v -0.043604 -0.072885 -0.000058
v -0.044776 -0.063330 -0.000370
v -0.044847 -0.062497 -0.000417
v -0.041712 -0.082067 -0.000438
v -0.046263 -0.056387 0.000242
v -0.046133 -0.056928 0.000071
v -0.043111 -0.076374 0.000032
v -0.042831 -0.078523 0.000237
v -0.046238 -0.055850 0.038382
v -0.042354 -0.058991 0.042691
v -0.039362 -0.074184 0.043029
v -0.042352 -0.060296 0.042682
v -0.041931 -0.061224 0.042922
v -0.039507 -0.076790 0.042956
v -0.045978 -0.055749 -0.000254
v -0.044196 -0.064198 -0.000549
v -0.044561 -0.063330 -0.000476
v -0.045676 -0.056387 -0.000404
v -0.039373 -0.077296 0.042960
v -0.046464 -0.055850 0.037993
v -0.046252 -0.055749 0.000007
v -0.046163 -0.056514 0.000002
v -0.046232 -0.056387 0.038322
v -0.044955 -0.063767 -0.000122
v -0.043568 -0.073319 -0.000011
f 1 2 3
f 1 3 4
f 1 4 5
f 1 5 6
f 1 6 7
f 1 7 8
f 1 8 2
f 2 9 10
f 2 10 3
f 2 8 11
f 2 11 12
f 2 12 13
f 2 13 9
f 3 14 15
f 3 15 4
f 3 10 16
f 3 16 14
f 4 15 5
f 5 17 6
f 5 15 18
f 5 18 19
f 5 19 17
f 6 20 21
f 6 21 22
f 6 22 23
f 6 23 24
f 6 24 7
f 6 17 20
f 7 24 25
f 7 25 8
f 8 25 11
f 9 13 26
f 9 26 10
f 10 26 27
f 10 27 16
f 11 25 28
f 11 28 29
f 11 29 12
f 12 30 13
f 12 29 31
f 12 31 30
f 13 30 26
f 14 16 32
f 14 32 33
f 14 33 15
f 15 33 34
f 15 34 18
f 16 27 35
f 16 35 36
f 16 36 32
f 17 19 37
f 17 37 20
f 18 34 38
f 18 38 39
f 18 39 19
f 19 39 37
f 20 40 77
f 20 77 114
f 20 114 162
f 20 162 200
f 20 200 199
f 20 199 208
f 20 208 207
f 20 207 171
f 20 171 123
f 20 123 82
f 20 82 44
f 20 44 23
f 20 23 22
f 20 22 21
f 20 37 41
f 20 41 42
f 20 42 43
f 20 43 78
f 20 78 40
f 23 44 24
f 24 45 46
f 24 46 25
f 24 44 47
f 24 47 45
f 25 46 28
f 26 48 49
f 26 49 27
f 26 30 50
f 26 50 51
f 26 51 48
f 27 49 52
f 27 52 35
f 28 46 53
f 28 53 29
f 29 53 54
f 29 54 55
f 29 55 31
f 30 31 56
f 30 56 50
f 31 55 54
f 31 54 57
f 31 57 58
f 31 58 59
f 31 59 56
f 32 60 61
f 32 61 62
f 32 62 33
f 32 36 60
f 33 62 63
f 33 63 34
f 34 63 64
f 34 64 65
f 34 65 38
f 35 52 66
f 35 66 36
f 36 66 67
f 36 67 60
f 37 39 41
f 38 68 39
f 38 65 69
f 38 69 70
f 38 70 71
f 38 71 68
f 39 68 41
f 40 72 73
f 40 73 74
f 40 74 75
f 40 75 76
f 40 76 77
f 40 78 79
f 40 79 72
f 41 68 42
f 42 68 71
f 42 71 43
f 43 71 80
f 43 80 81
f 43 81 78
f 44 82 83
f 44 83 47
f 45 84 53
f 45 53 46
f 45 47 85
f 45 85 84
f 47 83 86
f 47 86 87
f 47 87 85
f 48 51 88
f 48 88 89
f 48 89 49
f 49 90 91
f 49 91 52
f 49 89 92
f 49 92 90
f 50 56 59
f 50 59 93
f 50 93 51
f 51 93 88
f 52 91 66
f 53 84 54
f 54 84 94
f 54 94 95
f 54 95 57
f 57 95 96
f 57 96 58
f 58 96 97
f 58 97 93
f 58 93 59
f 60 67 98
f 60 98 61
f 61 98 99
f 61 99 62
f 62 99 100
f 62 100 63
f 63 100 64
f 64 101 102
f 64 102 103
f 64 103 65
f 64 100 101
f 65 103 69
f 66 91 104
f 66 104 67
f 67 104 105
f 67 105 98
f 69 103 106
f 69 106 107
f 69 107 70
f 70 107 80
f 70 80 71
f 72 79 108
f 72 108 73
f 73 108 74
f 74 108 75
f 75 108 76
f 76 108 109
f 76 109 110
f 76 110 111
f 76 111 112
f 76 112 113
f 76 113 114
f 76 114 77
f 78 81 115
f 78 115 116
f 78 116 117
f 78 117 118
f 78 118 119
f 78 119 79
f 79 119 108
f 80 120 81
f 80 107 120
f 81 120 121
f 81 121 122
f 81 122 115
f 82 123 124
f 82 124 125
f 82 125 126
f 82 126 127
f 82 127 83
f 83 127 86
f 84 85 94
f 85 87 128
f 85 128 129
f 85 129 94
f 86 128 87
f 86 127 126
f 86 126 125
f 86 125 128
f 88 130 131
f 88 131 92
f 88 92 89
f 88 93 132
f 88 132 133
f 88 133 130
f 90 92 134
f 90 134 91
f 91 134 135
f 91 135 136
f 91 136 104
f 92 131 130
f 92 130 137
f 92 137 138
f 92 138 139
f 92 139 140
f 92 140 134
f 93 97 132
f 94 129 141
f 94 141 95
f 95 141 142
f 95 142 96
f 96 142 143
f 96 143 144
f 96 144 97
f 97 144 145
f 97 145 146
f 97 146 132
f 98 105 147
f 98 147 99
f 99 147 101
f 99 101 100
f 101 148 102
f 101 147 149
f 101 149 148
f 102 148 150
f 102 150 151
f 102 151 106
f 102 106 103
f 104 136 152
f 104 152 153
f 104 153 154
f 104 154 155
f 104 155 105
f 105 155 156
f 105 156 149
f 105 149 147
f 106 151 120
f 106 120 107
f 108 157 158
f 108 158 109
f 108 119 118
f 108 118 159
f 108 159 157
f 109 158 110
f 110 157 159
f 110 159 118
f 110 118 166
f 110 166 210
f 110 210 245
f 110 245 251
f 110 251 221
f 110 221 184
f 110 184 183
f 110 183 139
f 110 139 138
f 110 138 182
f 110 182 217
f 110 217 203
f 110 203 202
f 110 202 201
f 110 201 198
f 110 198 160
f 110 160 112
f 110 112 111
f 110 158 157
f 112 160 113
f 113 160 161
f 113 161 162
f 113 162 114
f 115 122 163
f 115 163 164
f 115 164 116
f 116 164 165
f 116 165 117
f 117 165 166
f 117 166 118
f 120 151 167
f 120 167 121
f 121 168 122
f 121 167 169
f 121 169 168
f 122 168 170
f 122 170 163
f 123 171 172
f 123 172 173
f 123 173 124
f 124 173 174
f 124 174 125
f 125 174 128
f 128 174 129
f 129 174 175
f 129 175 176
f 129 176 177
f 129 177 142
f 129 142 141
f 130 133 137
f 132 146 133
f 133 146 178
f 133 178 137
f 134 140 135
f 135 140 179
f 135 179 136
f 136 179 152
f 137 178 180
f 137 180 181
f 137 181 138
f 138 181 182
f 139 183 140
f 140 183 184
f 140 184 179
f 142 177 143
f 143 177 185
f 143 185 144
f 144 185 145
f 145 185 186
f 145 186 187
f 145 187 188
f 145 188 189
f 145 189 146
f 146 189 178
f 148 149 190
f 148 190 150
f 149 156 190
f 150 191 151
f 150 190 191
f 151 192 167
f 151 191 192
f 152 179 153
f 153 179 193
f 153 193 194
f 153 194 195
f 153 195 154
f 154 195 155
f 155 195 156
f 156 195 196
f 156 196 197
f 156 197 190
f 160 198 161
f 161 199 200
f 161 200 162
f 161 198 201
f 161 201 202
f 161 202 203
f 161 203 204
f 161 204 205
f 161 205 206
f 161 206 207
f 161 207 208
f 161 208 199
f 163 170 209
f 163 209 210
f 163 210 164
f 164 210 166
f 164 166 165
f 167 168 169
f 167 192 211
f 167 211 168
f 168 211 212
f 168 212 170
f 170 212 213
f 170 213 209
f 171 207 172
f 172 207 214
f 172 214 173
f 173 215 175
f 173 175 174
f 173 214 215
f 175 215 176
f 176 215 216
f 176 216 186
f 176 186 185
f 176 185 177
f 178 217 180
f 178 189 218
f 178 218 219
f 178 219 217
f 179 184 193
f 180 220 182
f 180 182 181
f 180 217 220
f 182 220 217
f 184 221 193
f 186 216 215
f 186 215 222
f 186 222 187
f 187 222 223
f 187 223 224
f 187 224 188
f 188 225 218
f 188 218 189
f 188 224 223
f 188 223 226
f 188 226 227
f 188 227 228
f 188 228 229
f 188 229 225
f 190 197 230
f 190 230 191
f 191 230 231
f 191 231 232
f 191 232 233
f 191 233 234
f 191 234 192
f 192 234 211
f 193 221 235
f 193 235 236
f 193 236 237
f 193 237 194
f 194 238 195
f 194 237 238
f 195 238 196
f 196 237 230
f 196 230 197
f 196 238 237
f 203 217 239
f 203 239 204
f 204 239 240
f 204 240 205
f 205 241 206
f 205 240 242
f 205 242 243
f 205 243 244
f 205 244 241
f 206 241 214
f 206 214 207
f 209 213 210
f 210 213 245
f 211 234 246
f 211 246 212
f 212 246 247
f 212 247 248
f 212 248 213
f 213 248 245
f 214 241 249
f 214 249 215
f 215 249 222
f 217 219 250
f 217 250 239
f 218 225 250
f 218 250 219
f 221 251 252
f 221 252 235
f 222 249 223
f 223 249 244
f 223 244 226
f 225 229 250
f 226 244 227
f 227 244 243
f 227 243 242
f 227 242 239
f 227 239 253
f 227 253 228
f 228 253 229
f 229 253 250
f 230 237 231
f 231 254 232
f 231 237 255
f 231 255 252
f 231 252 254
f 232 254 252
f 232 252 233
f 233 252 245
f 233 245 248
f 233 248 247
f 233 247 234
f 234 247 246
f 235 252 236
f 236 252 255
f 236 255 237
f 239 250 253
f 239 242 240
f 241 244 249
f 245 252 251
