v -0.014923 -0.071729 0.042899
v -0.014923 -0.071578 0.042854
v -0.014991 -0.071578 0.042928
v -0.014970 -0.071729 0.042947
v -0.017430 -0.074598 0.039024
v -0.014923 -0.071729 0.011533
v -0.014923 -0.071214 0.042704
v -0.020777 -0.053459 0.043078
v -0.015295 -0.070883 0.043011
v -0.022490 -0.074155 0.042806
v -0.015251 -0.071145 0.043023
v -0.015172 -0.071729 0.043039
v -0.022887 -0.074155 0.043036
v -0.019893 -0.074598 0.038699
v -0.017430 -0.074598 0.012133
v -0.023322 -0.074155 0.043052
v -0.023358 -0.074155 0.043052
v -0.023642 -0.074155 0.043023
v -0.041650 -0.063763 0.010719
v -0.041650 -0.063745 0.010716
v -0.041650 -0.063264 0.010674
v -0.020262 -0.067017 0.011105
v -0.022490 -0.053454 0.010677
v -0.014923 -0.067019 0.011798
v -0.014923 -0.067019 0.038916
v -0.023467 -0.053459 0.043081
v -0.024225 -0.053779 0.043119
v -0.017277 -0.069842 0.043122
v -0.015544 -0.071729 0.043094
v -0.020777 -0.053454 0.039002
v -0.023856 -0.074155 0.042905
v -0.024091 -0.074155 0.042688
v -0.024214 -0.074155 0.042344
v -0.024855 -0.074155 0.038973
v -0.019893 -0.074598 0.013323
v -0.017709 -0.074598 0.012235
v -0.024855 -0.074155 0.014003
v -0.039849 -0.069748 0.014185
v -0.041650 -0.067017 0.012053
v -0.041650 -0.064670 0.010981
v -0.041650 -0.064196 0.010808
v -0.022923 -0.072447 0.043170
v -0.039417 -0.063763 0.043020
v -0.039718 -0.063763 0.043007
v -0.039641 -0.063985 0.042995
v -0.040443 -0.069748 0.038785
v -0.042879 -0.058626 0.012985
v -0.041650 -0.062896 0.010645
v -0.041650 -0.062805 0.010642
v -0.034639 -0.054326 0.010575
v -0.035071 -0.054326 0.010582
v -0.036122 -0.054326 0.010607
v -0.026631 -0.053454 0.012487
v -0.020780 -0.053454 0.012503
v -0.020777 -0.053459 0.012506
v -0.020777 -0.053454 0.012608
v -0.025714 -0.053454 0.039002
v -0.023946 -0.053459 0.043078
v -0.033774 -0.059423 0.043090
v -0.022923 -0.072013 0.043183
v -0.024225 -0.053459 0.043071
v -0.039587 -0.055752 0.043027
v -0.040285 -0.056037 0.043030
v -0.019885 -0.074598 0.013317
v -0.018166 -0.074598 0.012446
v -0.040443 -0.069748 0.014409
v -0.040205 -0.069748 0.014303
v -0.042882 -0.058626 0.012995
v -0.041650 -0.067017 0.038772
v -0.041861 -0.058477 0.043011
v -0.041650 -0.061420 0.042995
v -0.041650 -0.061540 0.042992
v -0.041650 -0.061681 0.042979
v -0.041650 -0.061733 0.042972
v -0.041155 -0.062463 0.042924
v -0.041606 -0.062470 0.042727
v -0.041168 -0.062915 0.042739
v -0.041034 -0.063200 0.042647
v -0.041472 -0.062780 0.042640
v -0.041650 -0.062441 0.042707
v -0.042882 -0.055752 0.013036
v -0.041650 -0.062379 0.010639
v -0.041650 -0.061987 0.010665
v -0.038361 -0.055752 0.010767
v -0.036122 -0.054326 0.038890
v -0.028804 -0.053454 0.015299
v -0.027868 -0.053454 0.013611
v -0.027638 -0.053454 0.013250
v -0.027471 -0.053454 0.013055
v -0.027411 -0.053454 0.012998
v -0.027268 -0.053454 0.012870
v -0.026943 -0.053454 0.012653
v -0.026905 -0.053454 0.012631
v -0.028804 -0.053454 0.038820
v -0.024414 -0.053459 0.043052
v -0.040011 -0.055752 0.042988
v -0.039784 -0.055752 0.043011
v -0.040575 -0.056112 0.043017
v -0.041853 -0.058123 0.043007
v -0.042882 -0.058626 0.039030
v -0.042466 -0.058626 0.042337
v -0.042477 -0.058626 0.042267
v -0.042011 -0.058593 0.042924
v -0.042042 -0.058626 0.042902
v -0.042334 -0.058626 0.042691
v -0.041546 -0.061987 0.042931
v -0.042362 -0.058626 0.042631
v -0.042882 -0.055752 0.038721
v -0.041650 -0.061284 0.010811
v -0.041650 -0.061594 0.010722
v -0.041650 -0.061634 0.010716
v -0.040577 -0.055752 0.042650
v -0.024759 -0.053459 0.042886
v -0.024534 -0.053459 0.043020
v -0.040035 -0.055752 0.042979
v -0.040044 -0.055758 0.042985
v -0.040285 -0.055816 0.042924
v -0.040706 -0.055969 0.042778
v -0.040982 -0.056120 0.042640
v -0.040870 -0.056385 0.042944
v -0.041817 -0.057892 0.042995
v -0.042332 -0.058558 0.042691
v -0.042455 -0.058558 0.042337
v -0.042293 -0.058219 0.042640
v -0.042228 -0.057929 0.042474
v -0.041866 -0.057374 0.042631
v -0.040285 -0.055752 0.042845
v -0.041929 -0.057724 0.042774
f 1 2 3
f 1 3 4
f 1 4 5
f 1 5 15
f 1 15 6
f 1 6 24
f 1 24 25
f 1 25 7
f 1 7 2
f 2 7 8
f 2 8 3
f 3 8 9
f 3 9 4
f 4 10 5
f 4 9 11
f 4 11 12
f 4 12 13
f 4 13 10
f 5 14 35
f 5 35 64
f 5 64 65
f 5 65 36
f 5 36 15
f 5 10 13
f 5 13 16
f 5 16 17
f 5 17 18
f 5 18 14
f 6 15 19
f 6 19 20
f 6 20 21
f 6 21 22
f 6 22 23
f 6 23 24
f 7 25 8
f 8 26 27
f 8 27 28
f 8 28 29
f 8 29 12
f 8 12 11
f 8 11 9
f 8 25 30
f 8 30 26
f 12 29 13
f 13 29 16
f 14 18 31
f 14 31 32
f 14 32 33
f 14 33 34
f 14 34 37
f 14 37 35
f 15 36 37
f 15 37 38
f 15 38 39
f 15 39 40
f 15 40 41
f 15 41 19
f 16 29 42
f 16 42 17
f 17 42 43
f 17 43 44
f 17 44 45
f 17 45 18
f 18 45 46
f 18 46 31
f 19 41 47
f 19 47 20
f 20 47 21
f 21 47 48
f 21 48 22
f 22 48 49
f 22 49 23
f 23 49 50
f 23 50 51
f 23 51 52
f 23 52 53
f 23 53 93
f 23 93 92
f 23 92 91
f 23 91 90
f 23 90 89
f 23 89 88
f 23 88 87
f 23 87 86
f 23 86 94
f 23 94 57
f 23 57 30
f 23 30 56
f 23 56 54
f 23 54 24
f 24 54 55
f 24 55 56
f 24 56 30
f 24 30 25
f 26 30 57
f 26 57 58
f 26 58 27
f 27 59 60
f 27 60 28
f 27 58 61
f 27 61 62
f 27 62 63
f 27 63 59
f 28 60 29
f 29 60 42
f 31 46 32
f 32 46 33
f 33 46 34
f 34 46 66
f 34 66 37
f 35 37 64
f 36 65 37
f 37 66 67
f 37 67 38
f 37 65 64
f 38 67 39
f 39 68 40
f 39 67 66
f 39 66 46
f 39 46 69
f 39 69 100
f 39 100 68
f 40 68 47
f 40 47 41
f 42 60 43
f 43 60 70
f 43 70 71
f 43 71 72
f 43 72 44
f 44 72 73
f 44 73 45
f 45 73 74
f 45 74 75
f 45 75 76
f 45 76 77
f 45 77 78
f 45 78 46
f 46 78 79
f 46 79 80
f 46 80 69
f 47 68 81
f 47 81 82
f 47 82 49
f 47 49 48
f 49 82 50
f 50 82 51
f 51 82 52
f 52 82 83
f 52 83 84
f 52 84 81
f 52 81 108
f 52 108 85
f 52 85 94
f 52 94 86
f 52 86 87
f 52 87 88
f 52 88 89
f 52 89 90
f 52 90 91
f 52 91 92
f 52 92 93
f 52 93 53
f 54 56 55
f 57 94 61
f 57 61 58
f 59 63 60
f 60 63 70
f 61 94 95
f 61 95 96
f 61 96 97
f 61 97 62
f 62 97 63
f 63 97 96
f 63 96 98
f 63 98 99
f 63 99 70
f 68 100 108
f 68 108 81
f 69 101 102
f 69 102 100
f 69 80 101
f 70 99 103
f 70 103 72
f 70 72 71
f 72 103 104
f 72 104 105
f 72 105 73
f 73 105 74
f 74 106 75
f 74 105 80
f 74 80 76
f 74 76 106
f 75 106 76
f 76 80 79
f 76 79 77
f 77 79 78
f 80 105 107
f 80 107 101
f 81 84 109
f 81 109 110
f 81 110 111
f 81 111 83
f 81 83 82
f 83 111 84
f 84 111 110
f 84 110 109
f 85 108 112
f 85 112 113
f 85 113 94
f 94 113 114
f 94 114 95
f 95 114 96
f 96 115 116
f 96 116 98
f 96 114 115
f 98 116 117
f 98 117 112
f 98 112 118
f 98 118 119
f 98 119 120
f 98 120 121
f 98 121 99
f 99 121 122
f 99 122 103
f 100 102 108
f 101 107 122
f 101 122 123
f 101 123 108
f 101 108 102
f 103 122 105
f 103 105 104
f 105 122 107
f 108 123 124
f 108 124 125
f 108 125 126
f 108 126 119
f 108 119 112
f 112 117 127
f 112 127 113
f 112 119 118
f 113 127 114
f 114 127 115
f 115 127 116
f 116 127 117
f 119 126 120
f 120 126 121
f 121 126 128
f 121 128 124
f 121 124 122
f 122 124 123
f 124 126 125
f 124 128 126
