v -0.023215 -0.076930 0.039295
v -0.023215 -0.078915 0.038892
v -0.023215 -0.076930 0.012566
v -0.024855 -0.071287 0.038937
v -0.030949 -0.073957 0.043003
v -0.030922 -0.076876 0.043016
v -0.030922 -0.077141 0.043016
v -0.030924 -0.077160 0.043016
v -0.023309 -0.078915 0.038895
v -0.023215 -0.078915 0.010177
v -0.030955 -0.077160 0.043019
v -0.031134 -0.077160 0.043029
v -0.024855 -0.071287 0.016233
v -0.028701 -0.070073 0.038818
v -0.033774 -0.070884 0.042633
v -0.033398 -0.071172 0.042765
v -0.032905 -0.071290 0.042655
v -0.033539 -0.071357 0.043003
v -0.032504 -0.071584 0.042687
v -0.032166 -0.071730 0.042633
v -0.032028 -0.072003 0.042720
v -0.031725 -0.072138 0.042642
v -0.031591 -0.072441 0.042723
v -0.031604 -0.072884 0.042884
v -0.031169 -0.073865 0.043019
v -0.031603 -0.074619 0.043113
v -0.023742 -0.078915 0.038898
v -0.031548 -0.077160 0.043032
v -0.023353 -0.078915 0.010219
v -0.035593 -0.077159 0.012289
v -0.035593 -0.076709 0.012412
v -0.035593 -0.076348 0.012512
v -0.035593 -0.076082 0.012592
v -0.035593 -0.075869 0.012660
v -0.035593 -0.075485 0.012805
v -0.035593 -0.075070 0.012973
v -0.035593 -0.074867 0.013056
v -0.035593 -0.074703 0.013127
v -0.035593 -0.073948 0.013469
v -0.035593 -0.073299 0.013772
v -0.035593 -0.073056 0.013888
v -0.035593 -0.072857 0.013992
v -0.035593 -0.070073 0.015604
v -0.024855 -0.072995 0.014727
v -0.028701 -0.070073 0.016745
v -0.034811 -0.070073 0.039073
v -0.035076 -0.070612 0.042349
v -0.034643 -0.070620 0.042349
v -0.034208 -0.070812 0.042713
v -0.033774 -0.071105 0.042852
v -0.033774 -0.071321 0.043016
v -0.033774 -0.072016 0.043071
v -0.031603 -0.074186 0.043084
v -0.032038 -0.072449 0.042884
v -0.032473 -0.072016 0.042884
v -0.034208 -0.072016 0.043078
v -0.023790 -0.078915 0.038898
v -0.035591 -0.071949 0.043010
v -0.031866 -0.077160 0.043013
v -0.028700 -0.078915 0.038853
v -0.024223 -0.078915 0.038895
v -0.023792 -0.078915 0.010425
v -0.028700 -0.078915 0.013208
v -0.035593 -0.077159 0.038605
v -0.035593 -0.070073 0.039037
v -0.035076 -0.070073 0.039082
v -0.035210 -0.070073 0.039073
v -0.035510 -0.070073 0.039047
v -0.035510 -0.070556 0.041913
v -0.035510 -0.070648 0.042349
v -0.035510 -0.070823 0.042700
v -0.035076 -0.070799 0.042707
v -0.034643 -0.070786 0.042716
v -0.034208 -0.071106 0.042929
v -0.034208 -0.071323 0.043013
v -0.035591 -0.071699 0.043010
v -0.035593 -0.073044 0.039069
v -0.035591 -0.072155 0.042994
v -0.032117 -0.077160 0.042968
v -0.032389 -0.077160 0.042771
v -0.032421 -0.077160 0.042739
v -0.035591 -0.072234 0.042949
v -0.035593 -0.070119 0.039069
v -0.035591 -0.070884 0.042732
v -0.035591 -0.070831 0.042694
v -0.035591 -0.070689 0.042407
v -0.035591 -0.070665 0.042349
v -0.035591 -0.070573 0.041913
v -0.035510 -0.071148 0.042907
v -0.035510 -0.071469 0.042987
v -0.035591 -0.071489 0.042987
v -0.035591 -0.071227 0.042923
v -0.035591 -0.071148 0.042900
f 1 2 10
f 1 10 3
f 1 3 13
f 1 13 4
f 1 4 5
f 1 5 6
f 1 6 7
f 1 7 8
f 1 8 2
f 2 9 27
f 2 27 57
f 2 57 61
f 2 61 60
f 2 60 63
f 2 63 62
f 2 62 29
f 2 29 10
f 2 8 11
f 2 11 12
f 2 12 9
f 3 10 13
f 4 13 45
f 4 45 14
f 4 14 15
f 4 15 16
f 4 16 17
f 4 17 18
f 4 18 19
f 4 19 20
f 4 20 21
f 4 21 22
f 4 22 23
f 4 23 5
f 5 23 24
f 5 24 18
f 5 18 25
f 5 25 26
f 5 26 6
f 6 26 7
f 7 26 11
f 7 11 8
f 9 12 28
f 9 28 27
f 10 29 30
f 10 30 31
f 10 31 32
f 10 32 33
f 10 33 34
f 10 34 35
f 10 35 36
f 10 36 37
f 10 37 38
f 10 38 39
f 10 39 40
f 10 40 41
f 10 41 42
f 10 42 43
f 10 43 44
f 10 44 13
f 11 26 12
f 12 26 28
f 13 44 43
f 13 43 45
f 14 45 43
f 14 43 65
f 14 65 68
f 14 68 67
f 14 67 66
f 14 66 46
f 14 46 47
f 14 47 48
f 14 48 49
f 14 49 15
f 15 49 50
f 15 50 16
f 16 50 18
f 16 18 17
f 18 51 52
f 18 52 53
f 18 53 25
f 18 24 54
f 18 54 55
f 18 55 21
f 18 21 20
f 18 20 19
f 18 50 49
f 18 49 51
f 21 55 23
f 21 23 22
f 23 55 54
f 23 54 24
f 25 53 26
f 26 53 52
f 26 52 56
f 26 56 28
f 27 28 57
f 28 56 58
f 28 58 59
f 28 59 60
f 28 60 61
f 28 61 57
f 29 62 30
f 30 62 63
f 30 63 60
f 30 60 64
f 30 64 77
f 30 77 83
f 30 83 65
f 30 65 43
f 30 43 42
f 30 42 41
f 30 41 40
f 30 40 39
f 30 39 38
f 30 38 37
f 30 37 36
f 30 36 35
f 30 35 34
f 30 34 33
f 30 33 32
f 30 32 31
f 46 66 47
f 47 66 67
f 47 67 68
f 47 68 65
f 47 65 69
f 47 69 70
f 47 70 71
f 47 71 72
f 47 72 73
f 47 73 48
f 48 73 49
f 49 73 74
f 49 74 51
f 51 74 75
f 51 75 56
f 51 56 52
f 56 75 76
f 56 76 58
f 58 76 83
f 58 83 77
f 58 77 78
f 58 78 59
f 59 78 79
f 59 79 60
f 60 79 80
f 60 80 81
f 60 81 64
f 64 81 82
f 64 82 78
f 64 78 77
f 65 83 84
f 65 84 85
f 65 85 86
f 65 86 87
f 65 87 88
f 65 88 69
f 69 88 87
f 69 87 70
f 70 87 86
f 70 86 85
f 70 85 71
f 71 85 84
f 71 84 89
f 71 89 72
f 72 89 73
f 73 89 74
f 74 89 75
f 75 90 91
f 75 91 76
f 75 89 92
f 75 92 90
f 76 91 83
f 78 82 80
f 78 80 79
f 80 82 81
f 83 91 92
f 83 92 93
f 83 93 84
f 84 93 89
f 89 93 92
f 90 92 91
