v -0.012063 -0.078914 -0.000453
v -0.018253 -0.049637 -0.000385
v -0.013803 -0.063760 -0.000513
v -0.011478 -0.078836 -0.000432
v -0.010620 -0.078914 -0.000128
v -0.015537 -0.078914 -0.000154
v -0.018225 -0.048724 0.000124
v -0.018197 -0.049002 -0.000154
v -0.016838 -0.049005 -0.000257
v -0.016406 -0.049180 -0.000334
v -0.015800 -0.049467 -0.000402
v -0.015972 -0.049872 -0.000466
v -0.015972 -0.050310 -0.000466
v -0.015965 -0.078914 -0.000115
v -0.018253 -0.050310 -0.000334
v -0.021225 -0.062811 0.011110
v -0.021225 -0.061606 0.011110
v -0.021225 -0.058182 0.012364
v -0.020772 -0.053462 0.012513
v -0.013433 -0.063760 -0.000466
v -0.015617 -0.050310 -0.000440
v -0.011198 -0.077222 -0.000316
v -0.010763 -0.077657 -0.000167
v -0.010477 -0.078528 -0.000043
v -0.010157 -0.078893 0.000402
v -0.009952 -0.078914 0.001108
v -0.018253 -0.048531 0.000727
v -0.017708 -0.048437 0.000671
v -0.016857 -0.048331 0.000488
v -0.017708 -0.048739 -0.000030
v -0.017273 -0.048860 -0.000141
v -0.015972 -0.049005 -0.000287
v -0.016838 -0.048691 -0.000068
v -0.016406 -0.048667 -0.000077
v -0.015543 -0.049872 -0.000415
v -0.015418 -0.048932 -0.000154
v -0.015975 -0.078914 0.010041
v -0.021831 -0.062651 0.039763
v -0.021831 -0.060007 0.039763
v -0.020772 -0.053462 0.043078
v -0.020305 -0.052030 0.013266
v -0.013582 -0.061796 -0.000415
v -0.013184 -0.064195 -0.000402
v -0.013250 -0.063331 -0.000368
v -0.010728 -0.077219 -0.000107
v -0.010484 -0.077289 0.000107
v -0.010433 -0.077657 0.000111
v -0.010311 -0.078092 0.000235
v -0.010237 -0.077222 0.000671
v -0.009997 -0.078528 0.001108
v -0.009949 -0.078528 0.001544
v -0.009907 -0.078914 0.001544
v -0.010083 -0.078008 0.000958
v -0.018253 -0.048482 0.001108
v -0.016838 -0.048204 0.001108
v -0.016406 -0.048138 0.001108
v -0.016406 -0.048228 0.000671
v -0.016406 -0.048386 0.000282
v -0.015972 -0.048657 -0.000086
v -0.015972 -0.048379 0.000269
v -0.015077 -0.049443 -0.000120
v -0.015107 -0.050310 -0.000287
v -0.015113 -0.048673 0.000274
v -0.014897 -0.049005 0.000248
v -0.015593 -0.078914 0.038882
v -0.017426 -0.074596 0.039015
v -0.021831 -0.062385 0.042180
v -0.021831 -0.060252 0.041910
v -0.019618 -0.053115 0.043005
v -0.020305 -0.052867 0.042924
v -0.018251 -0.048555 0.038044
v -0.018251 -0.048464 0.037565
v -0.020305 -0.052030 0.038989
v -0.021831 -0.060391 0.042509
v -0.021831 -0.060790 0.042971
v -0.021831 -0.061162 0.043031
v -0.021180 -0.061162 0.043116
v -0.020747 -0.061162 0.043138
v -0.017708 -0.056822 0.043176
v -0.018947 -0.053646 0.043082
v -0.018253 -0.048431 0.002408
v -0.018253 -0.048449 0.001544
v -0.014756 -0.050310 -0.000090
v -0.011427 -0.071218 0.000038
v -0.010414 -0.076893 0.000346
v -0.011353 -0.070710 0.000329
v -0.014476 -0.050350 0.000308
v -0.014315 -0.050739 0.000671
v -0.010141 -0.077382 0.001172
v -0.010005 -0.078092 0.001544
v -0.009910 -0.078528 0.001971
v -0.009877 -0.078914 0.001971
v -0.016838 -0.048168 0.001544
v -0.016406 -0.048098 0.001544
v -0.015972 -0.048111 0.001108
v -0.015972 -0.048059 0.001544
v -0.015972 -0.048210 0.000671
v -0.015529 -0.048358 0.000462
v -0.014962 -0.049872 -0.000137
v -0.014838 -0.049374 0.000128
v -0.015199 -0.048413 0.000736
v -0.014786 -0.048881 0.000616
v -0.014561 -0.049437 0.000671
v -0.014669 -0.078914 0.038921
v -0.014922 -0.075331 0.042616
v -0.015961 -0.074596 0.042988
v -0.016391 -0.074596 0.042783
v -0.016656 -0.074596 0.042389
v -0.016774 -0.074596 0.041945
v -0.021831 -0.062132 0.042766
v -0.015694 -0.048836 0.038506
v -0.016340 -0.048642 0.038575
v -0.017264 -0.048334 0.038173
v -0.018094 -0.048778 0.038592
v -0.017574 -0.048331 0.037895
v -0.017273 -0.048228 0.037565
v -0.018251 -0.048446 0.036967
v -0.021831 -0.061690 0.043014
v -0.015539 -0.072448 0.043138
v -0.015554 -0.074596 0.043031
v -0.017273 -0.056822 0.043138
v -0.017407 -0.055378 0.043048
v -0.018476 -0.053906 0.043018
v -0.015257 -0.049156 0.038506
v -0.018077 -0.048392 0.002844
v -0.017273 -0.048240 0.002408
v -0.014505 -0.050739 0.000111
v -0.014412 -0.050132 0.000714
v -0.014320 -0.050310 0.001108
v -0.014278 -0.050310 0.001544
v -0.014180 -0.050739 0.001976
v -0.009972 -0.078092 0.001971
v -0.009879 -0.078528 0.002408
v -0.009849 -0.078914 0.002408
v -0.016838 -0.048165 0.001976
v -0.016838 -0.048162 0.003712
v -0.016838 -0.048150 0.037129
v -0.015972 -0.048044 0.001976
v -0.015539 -0.048168 0.001108
v -0.015539 -0.048111 0.001544
v -0.015539 -0.048083 0.001976
v -0.015104 -0.048373 0.001108
v -0.014816 -0.048673 0.001108
v -0.014635 -0.049005 0.001108
v -0.014467 -0.049513 0.001172
v -0.011608 -0.078914 0.038989
v -0.014920 -0.074953 0.042894
v -0.011198 -0.078914 0.038977
v -0.015182 -0.048869 0.038061
v -0.015698 -0.048494 0.038036
v -0.016343 -0.048277 0.038126
v -0.016838 -0.048280 0.038126
v -0.016838 -0.048150 0.037565
v -0.017273 -0.048228 0.036697
v -0.014946 -0.074554 0.043018
v -0.014868 -0.072883 0.043035
v -0.014922 -0.072300 0.043035
v -0.017003 -0.056822 0.043044
v -0.017204 -0.056157 0.043065
v -0.014860 -0.050256 0.038600
v -0.014967 -0.049872 0.038583
v -0.014959 -0.049458 0.038378
v -0.014845 -0.049247 0.038010
v -0.014361 -0.049872 0.001544
v -0.014255 -0.050310 0.001976
v -0.014249 -0.050310 0.002408
v -0.014178 -0.050739 0.002408
v -0.009873 -0.078528 0.002844
v -0.009841 -0.078914 0.002823
v -0.016408 -0.048120 0.035829
v -0.015972 -0.048092 0.023243
v -0.015062 -0.048340 0.001544
v -0.015061 -0.048334 0.001976
v -0.015972 -0.048111 0.030188
v -0.015419 -0.048292 0.035397
v -0.014796 -0.048639 0.001544
v -0.014596 -0.049005 0.001544
v -0.014452 -0.049428 0.001544
v -0.010610 -0.078914 0.038767
v -0.014904 -0.049014 0.037565
v -0.015197 -0.048679 0.037565
v -0.015498 -0.048464 0.037565
v -0.015920 -0.048295 0.037788
v -0.016408 -0.048144 0.037565
v -0.016408 -0.048129 0.037129
v -0.010490 -0.078528 0.038690
v -0.014507 -0.072883 0.042736
v -0.010555 -0.077503 0.038639
v -0.012265 -0.064763 0.038245
v -0.014363 -0.052051 0.038339
v -0.014407 -0.051613 0.038292
v -0.014786 -0.049872 0.038365
v -0.014614 -0.049872 0.037997
v -0.014665 -0.049437 0.037565
v -0.014346 -0.049872 0.001976
v -0.014441 -0.049380 0.004144
v -0.014337 -0.049872 0.003712
v -0.014249 -0.050310 0.003276
v -0.010011 -0.078092 0.033652
v -0.009944 -0.078528 0.033652
v -0.009944 -0.078914 0.033652
v -0.015972 -0.048144 0.035397
v -0.014775 -0.048639 0.002408
v -0.014783 -0.048639 0.001976
v -0.015368 -0.048340 0.036218
v -0.014865 -0.048525 0.004144
v -0.014762 -0.048639 0.003712
v -0.015972 -0.048156 0.036257
v -0.015422 -0.048301 0.035825
v -0.014575 -0.049005 0.002408
v -0.014472 -0.049304 0.001976
v -0.010164 -0.078827 0.038301
v -0.010054 -0.078914 0.037510
v -0.010091 -0.078905 0.037942
v -0.014804 -0.049084 0.037129
v -0.015025 -0.048715 0.036697
v -0.015056 -0.048751 0.037129
v -0.015375 -0.048386 0.036697
v -0.015434 -0.048419 0.037129
v -0.015593 -0.048289 0.036697
v -0.015811 -0.048253 0.037129
v -0.015972 -0.048171 0.036697
v -0.014469 -0.050872 0.038143
v -0.010082 -0.078555 0.037984
v -0.010096 -0.078011 0.037655
v -0.014469 -0.050377 0.037719
v -0.014529 -0.049872 0.037565
v -0.014634 -0.049437 0.037129
v -0.014790 -0.049044 0.036697
v -0.014556 -0.049005 0.003712
v -0.014469 -0.049298 0.007617
v -0.014337 -0.049872 0.004144
v -0.014392 -0.049724 0.010661
v -0.014331 -0.050310 0.019351
v -0.014261 -0.050746 0.019788
v -0.014485 -0.050005 0.037129
v -0.010034 -0.078092 0.037129
v -0.009993 -0.078528 0.037129
v -0.009952 -0.078914 0.034037
v -0.014567 -0.049005 0.002844
v -0.014876 -0.048769 0.034525
v -0.014988 -0.048709 0.036261
v -0.014557 -0.049005 0.004144
v -0.010037 -0.078914 0.037129
v -0.010017 -0.078528 0.037565
v -0.010089 -0.077760 0.037287
v -0.014614 -0.049437 0.036697
v -0.014830 -0.048893 0.035825
v -0.014609 -0.049437 0.036257
v -0.014814 -0.048887 0.034084
f 1 2 3
f 1 3 4
f 1 4 5
f 1 5 26
f 1 26 52
f 1 52 92
f 1 92 134
f 1 134 169
f 1 169 201
f 1 201 239
f 1 239 244
f 1 244 213
f 1 213 179
f 1 179 148
f 1 148 146
f 1 146 104
f 1 104 65
f 1 65 37
f 1 37 14
f 1 14 6
f 1 6 2
f 2 7 8
f 2 8 9
f 2 9 10
f 2 10 11
f 2 11 12
f 2 12 13
f 2 13 3
f 2 6 14
f 2 14 15
f 2 15 16
f 2 16 17
f 2 17 18
f 2 18 19
f 2 19 7
f 3 20 4
f 3 13 12
f 3 12 21
f 3 21 20
f 4 20 22
f 4 22 23
f 4 23 5
f 5 23 24
f 5 24 25
f 5 25 26
f 7 27 28
f 7 28 29
f 7 29 30
f 7 30 8
f 7 19 27
f 8 31 9
f 8 30 31
f 9 32 10
f 9 31 33
f 9 33 34
f 9 34 32
f 10 32 11
f 11 35 12
f 11 32 36
f 11 36 35
f 12 35 21
f 14 37 38
f 14 38 16
f 14 16 15
f 16 38 39
f 16 39 17
f 17 39 18
f 18 39 19
f 19 39 40
f 19 40 73
f 19 73 41
f 19 41 27
f 20 21 35
f 20 35 42
f 20 42 43
f 20 43 22
f 22 43 23
f 23 43 44
f 23 44 45
f 23 45 24
f 24 46 47
f 24 47 48
f 24 48 25
f 24 45 46
f 25 48 49
f 25 49 26
f 26 50 51
f 26 51 52
f 26 49 53
f 26 53 50
f 27 54 55
f 27 55 28
f 27 41 54
f 28 55 29
f 29 55 56
f 29 56 57
f 29 57 58
f 29 58 30
f 30 58 33
f 30 33 31
f 32 34 59
f 32 59 36
f 33 58 34
f 34 58 60
f 34 60 59
f 35 36 61
f 35 61 62
f 35 62 42
f 36 59 63
f 36 63 64
f 36 64 61
f 37 65 66
f 37 66 38
f 38 66 67
f 38 67 110
f 38 110 118
f 38 118 76
f 38 76 75
f 38 75 74
f 38 74 68
f 38 68 39
f 39 68 40
f 40 69 70
f 40 70 71
f 40 71 72
f 40 72 73
f 40 68 74
f 40 74 75
f 40 75 76
f 40 76 77
f 40 77 78
f 40 78 79
f 40 79 80
f 40 80 69
f 41 73 81
f 41 81 82
f 41 82 54
f 42 62 43
f 43 62 44
f 44 62 83
f 44 83 45
f 45 83 84
f 45 84 46
f 46 84 85
f 46 85 48
f 46 48 47
f 48 85 49
f 49 85 86
f 49 86 87
f 49 87 88
f 49 88 89
f 49 89 53
f 50 89 90
f 50 90 51
f 50 53 89
f 51 90 91
f 51 91 52
f 52 91 92
f 54 82 93
f 54 93 55
f 55 93 94
f 55 94 56
f 56 95 57
f 56 94 96
f 56 96 95
f 57 97 58
f 57 95 97
f 58 97 60
f 59 60 98
f 59 98 63
f 60 97 98
f 61 83 99
f 61 99 62
f 61 64 100
f 61 100 83
f 62 99 83
f 63 98 101
f 63 101 102
f 63 102 64
f 64 102 103
f 64 103 100
f 65 104 105
f 65 105 106
f 65 106 107
f 65 107 108
f 65 108 109
f 65 109 66
f 66 109 110
f 66 110 67
f 69 80 111
f 69 111 112
f 69 112 70
f 70 112 113
f 70 113 114
f 70 114 71
f 71 114 113
f 71 113 115
f 71 115 72
f 72 115 116
f 72 116 117
f 72 117 73
f 73 117 81
f 76 118 77
f 77 119 78
f 77 118 106
f 77 106 120
f 77 120 119
f 78 119 79
f 79 121 80
f 79 119 121
f 80 121 122
f 80 122 123
f 80 123 124
f 80 124 111
f 81 125 126
f 81 126 93
f 81 93 82
f 81 117 125
f 83 100 127
f 83 127 84
f 84 127 86
f 84 86 85
f 86 127 87
f 87 127 100
f 87 100 103
f 87 103 128
f 87 128 88
f 88 128 129
f 88 129 89
f 89 129 130
f 89 130 131
f 89 131 132
f 89 132 90
f 90 132 91
f 91 132 133
f 91 133 92
f 92 133 134
f 93 126 135
f 93 135 94
f 94 135 136
f 94 136 137
f 94 137 138
f 94 138 96
f 95 139 97
f 95 96 140
f 95 140 139
f 96 138 141
f 96 141 140
f 97 139 98
f 98 139 101
f 101 139 142
f 101 142 102
f 102 142 143
f 102 143 144
f 102 144 103
f 103 144 145
f 103 145 128
f 104 146 105
f 105 147 106
f 105 146 148
f 105 148 147
f 106 118 107
f 106 147 120
f 107 118 110
f 107 110 108
f 108 110 109
f 111 124 149
f 111 149 150
f 111 150 151
f 111 151 112
f 112 151 152
f 112 152 113
f 113 152 153
f 113 153 115
f 115 153 116
f 116 153 137
f 116 137 154
f 116 154 125
f 116 125 117
f 119 120 155
f 119 155 156
f 119 156 157
f 119 157 121
f 120 147 155
f 121 157 158
f 121 158 159
f 121 159 122
f 122 159 160
f 122 160 161
f 122 161 124
f 122 124 123
f 124 161 162
f 124 162 163
f 124 163 149
f 125 154 126
f 126 154 137
f 126 137 136
f 126 136 135
f 128 145 129
f 129 145 164
f 129 164 130
f 130 164 165
f 130 165 131
f 131 165 166
f 131 166 167
f 131 167 168
f 131 168 133
f 131 133 132
f 133 168 169
f 133 169 134
f 137 153 138
f 138 153 170
f 138 170 171
f 138 171 141
f 139 140 142
f 140 172 142
f 140 141 172
f 141 173 172
f 141 171 174
f 141 174 175
f 141 175 173
f 142 172 143
f 143 172 176
f 143 176 177
f 143 177 144
f 144 177 178
f 144 178 145
f 145 178 164
f 147 148 179
f 147 179 155
f 149 163 180
f 149 180 181
f 149 181 182
f 149 182 150
f 150 182 183
f 150 183 151
f 151 183 184
f 151 184 152
f 152 184 153
f 153 184 185
f 153 185 170
f 155 179 186
f 155 186 187
f 155 187 156
f 156 187 157
f 157 187 158
f 158 187 188
f 158 188 189
f 158 189 190
f 158 190 160
f 158 160 159
f 160 190 191
f 160 191 192
f 160 192 161
f 161 192 162
f 162 192 163
f 163 192 193
f 163 193 194
f 163 194 180
f 164 178 165
f 165 178 195
f 165 195 166
f 166 195 196
f 166 196 197
f 166 197 232
f 166 232 198
f 166 198 167
f 167 198 199
f 167 199 168
f 168 199 200
f 168 200 169
f 169 200 201
f 170 185 202
f 170 202 174
f 170 174 171
f 172 173 203
f 172 203 204
f 172 204 176
f 173 175 205
f 173 205 206
f 173 206 207
f 173 207 203
f 174 202 175
f 175 202 208
f 175 208 209
f 175 209 205
f 176 204 177
f 177 204 210
f 177 210 211
f 177 211 178
f 178 211 195
f 179 212 186
f 179 213 214
f 179 214 212
f 180 194 215
f 180 215 216
f 180 216 217
f 180 217 181
f 181 217 216
f 181 216 218
f 181 218 219
f 181 219 182
f 182 219 183
f 183 219 220
f 183 220 221
f 183 221 184
f 184 221 222
f 184 222 185
f 185 222 208
f 185 208 202
f 186 212 188
f 186 188 187
f 188 212 189
f 189 223 191
f 189 191 190
f 189 212 224
f 189 224 225
f 189 225 226
f 189 226 223
f 191 223 192
f 192 223 193
f 193 223 226
f 193 226 227
f 193 227 194
f 194 227 228
f 194 228 229
f 194 229 215
f 195 211 196
f 196 230 231
f 196 231 232
f 196 232 197
f 196 211 230
f 198 232 233
f 198 233 234
f 198 234 235
f 198 235 199
f 199 235 236
f 199 236 237
f 199 237 200
f 200 237 238
f 200 238 201
f 201 238 239
f 203 210 204
f 203 207 230
f 203 230 240
f 203 240 210
f 205 241 206
f 205 209 220
f 205 220 218
f 205 218 216
f 205 216 242
f 205 242 241
f 206 241 207
f 207 243 230
f 207 241 243
f 208 222 209
f 209 222 220
f 210 240 211
f 211 240 230
f 212 214 224
f 213 244 238
f 213 238 245
f 213 245 214
f 214 245 224
f 215 229 216
f 216 229 242
f 218 220 219
f 220 222 221
f 224 245 225
f 225 245 246
f 225 246 227
f 225 227 226
f 227 246 236
f 227 236 247
f 227 247 228
f 228 247 229
f 229 247 248
f 229 248 242
f 230 243 231
f 231 243 249
f 231 249 236
f 231 236 233
f 231 233 232
f 233 236 234
f 234 236 235
f 236 246 237
f 236 249 247
f 237 246 245
f 237 245 238
f 238 244 239
f 241 242 248
f 241 248 250
f 241 250 243
f 243 250 249
f 247 249 248
f 248 249 250
