v -0.019890 -0.067015 0.012508
v -0.019890 -0.067148 0.011812
v -0.019938 -0.065097 0.011095
v -0.019981 -0.064201 0.011095
v -0.020057 -0.063766 0.011095
v -0.020181 -0.063332 0.011095
v -0.020339 -0.062943 0.011095
v -0.020624 -0.062446 0.011095
v -0.020879 -0.062049 0.011095
v -0.021214 -0.061610 0.011095
v -0.021698 -0.061197 0.011095
v -0.022052 -0.060934 0.011095
v -0.022960 -0.060308 0.011095
v -0.023395 -0.060020 0.011095
v -0.024182 -0.059621 0.011096
v -0.024716 -0.059360 0.011097
v -0.025139 -0.059169 0.011097
v -0.025957 -0.058851 0.011097
v -0.026365 -0.058693 0.011097
v -0.026828 -0.058563 0.011097
v -0.027262 -0.058505 0.011097
v -0.027695 -0.058497 0.011097
v -0.023046 -0.067112 0.012508
v -0.020091 -0.068574 0.012508
v -0.019890 -0.068223 0.012437
v -0.019890 -0.067653 0.012065
v -0.021321 -0.066802 0.002404
v -0.021313 -0.066368 0.002404
v -0.021334 -0.065934 0.002404
v -0.021399 -0.065483 0.002364
v -0.021432 -0.065180 0.002509
v -0.021610 -0.064634 0.002404
v -0.021847 -0.064019 0.002256
v -0.022224 -0.063224 0.002319
v -0.022313 -0.062997 0.002462
v -0.022610 -0.062545 0.002404
v -0.022719 -0.062268 0.002729
v -0.023123 -0.061798 0.002572
v -0.023539 -0.061346 0.002518
v -0.023977 -0.060920 0.002544
v -0.024158 -0.060771 0.002761
v -0.024504 -0.060541 0.002837
v -0.025091 -0.060256 0.002837
v -0.025505 -0.060068 0.002837
v -0.025959 -0.059885 0.002837
v -0.026393 -0.059730 0.002837
v -0.026647 -0.059647 0.002837
v -0.026966 -0.059628 0.002404
v -0.027260 -0.059586 0.002404
v -0.027695 -0.059540 0.002404
v -0.028130 -0.059512 0.002404
v -0.028681 -0.059488 0.002788
v -0.028130 -0.058528 0.011097
v -0.023130 -0.067671 0.012508
v -0.028681 -0.058629 0.011097
v -0.021013 -0.069464 0.012508
v -0.021812 -0.070514 0.011365
v -0.021795 -0.070534 0.011085
v -0.021794 -0.070535 0.010647
v -0.021582 -0.070277 0.010647
v -0.022711 -0.070917 0.002837
v -0.022566 -0.070699 0.002837
v -0.022348 -0.070340 0.002837
v -0.022089 -0.069841 0.002837
v -0.021906 -0.069451 0.002837
v -0.021829 -0.069205 0.002599
v -0.021652 -0.068540 0.002404
v -0.021532 -0.068106 0.002404
v -0.021402 -0.067441 0.002206
v -0.021385 -0.067082 0.002156
v -0.021371 -0.066802 0.002135
v -0.021367 -0.066368 0.002131
v -0.021393 -0.065823 0.002172
v -0.021746 -0.064634 0.002036
v -0.021873 -0.064244 0.002046
v -0.022129 -0.063759 0.001950
v -0.022206 -0.063433 0.002079
v -0.022664 -0.062623 0.002124
v -0.022760 -0.062327 0.002404
v -0.023000 -0.062007 0.002416
v -0.023164 -0.061845 0.002281
v -0.023587 -0.061393 0.002228
v -0.024131 -0.060885 0.002300
v -0.024672 -0.060519 0.002404
v -0.025091 -0.060321 0.002404
v -0.025470 -0.060148 0.002404
v -0.025711 -0.060062 0.002291
v -0.025959 -0.059949 0.002404
v -0.026393 -0.059794 0.002404
v -0.026749 -0.059680 0.002404
v -0.027150 -0.059634 0.002168
v -0.028130 -0.059588 0.002089
v -0.028681 -0.059539 0.002394
v -0.028798 -0.060728 0.001536
v -0.023188 -0.068114 0.012508
v -0.028798 -0.061792 0.011097
v -0.023219 -0.068468 0.012508
v -0.021290 -0.069698 0.012508
v -0.021877 -0.070459 0.011654
v -0.022033 -0.070630 0.011513
v -0.022286 -0.070916 0.011205
v -0.022092 -0.070778 0.011068
v -0.022263 -0.070932 0.010852
v -0.023546 -0.071817 0.003273
v -0.023563 -0.071803 0.002719
v -0.023341 -0.071596 0.002837
v -0.023118 -0.071380 0.002837
v -0.023141 -0.071356 0.002235
v -0.022909 -0.071144 0.002837
v -0.022677 -0.070751 0.002404
v -0.022318 -0.070173 0.002487
v -0.022238 -0.069926 0.002343
v -0.021953 -0.069374 0.002433
v -0.021830 -0.069026 0.002371
v -0.021817 -0.068804 0.002156
v -0.021520 -0.067272 0.001996
v -0.021774 -0.068540 0.002090
v -0.021727 -0.068071 0.001953
v -0.021614 -0.067671 0.001968
v -0.021535 -0.066802 0.001917
v -0.021530 -0.066368 0.001911
v -0.021536 -0.065934 0.001942
v -0.021540 -0.065544 0.002013
v -0.021693 -0.065044 0.001932
v -0.021892 -0.064634 0.001818
v -0.022232 -0.063898 0.001723
v -0.022314 -0.063610 0.001791
v -0.022592 -0.062924 0.001974
v -0.022802 -0.062795 0.001832
v -0.023051 -0.062135 0.002095
v -0.023875 -0.061257 0.002063
v -0.024322 -0.060860 0.002062
v -0.023453 -0.061684 0.002073
v -0.024847 -0.060495 0.002162
v -0.025959 -0.060033 0.002115
v -0.026393 -0.059961 0.002017
v -0.026512 -0.060106 0.001779
v -0.027260 -0.059780 0.001936
v -0.027695 -0.059675 0.002000
v -0.028130 -0.059735 0.001872
v -0.028622 -0.059689 0.001981
v -0.028681 -0.059965 0.001658
v -0.028798 -0.061240 0.001700
v -0.028681 -0.060291 0.001536
v -0.027260 -0.060728 0.001524
v -0.024676 -0.071577 0.001563
v -0.028798 -0.061827 0.003251
v -0.024697 -0.072815 0.009792
v -0.024697 -0.072689 0.010302
v -0.024697 -0.072547 0.010652
v -0.024697 -0.072370 0.010947
v -0.024697 -0.072150 0.011194
v -0.024697 -0.071939 0.011366
v -0.024697 -0.071599 0.011525
v -0.024697 -0.071185 0.011588
v -0.023069 -0.069461 0.012508
v -0.023155 -0.069175 0.012508
v -0.023214 -0.068884 0.012508
v -0.021530 -0.069878 0.012508
v -0.022471 -0.070934 0.011517
v -0.024684 -0.072840 0.009348
v -0.023788 -0.072006 0.002837
v -0.023672 -0.071859 0.002371
v -0.023878 -0.071900 0.002050
v -0.023463 -0.071462 0.001968
v -0.023043 -0.071066 0.002067
v -0.022664 -0.070559 0.002114
v -0.022227 -0.069712 0.002131
v -0.022159 -0.069408 0.002059
v -0.021900 -0.068192 0.001795
v -0.021816 -0.067786 0.001739
v -0.021766 -0.067236 0.001702
v -0.021754 -0.066908 0.001688
v -0.021747 -0.066368 0.001685
v -0.021754 -0.065934 0.001693
v -0.021776 -0.065503 0.001708
v -0.021879 -0.064996 0.001728
v -0.022183 -0.064201 0.001693
v -0.022485 -0.064201 0.001574
v -0.022469 -0.063759 0.001666
v -0.022650 -0.063209 0.001726
v -0.023090 -0.062633 0.001733
v -0.024102 -0.061414 0.001760
v -0.024485 -0.060979 0.001772
v -0.024666 -0.060735 0.001967
v -0.025091 -0.060436 0.002085
v -0.025566 -0.060311 0.001982
v -0.025959 -0.060213 0.001899
v -0.026858 -0.060148 0.001683
v -0.027260 -0.059996 0.001692
v -0.025690 -0.060485 0.001737
v -0.025959 -0.060429 0.001706
v -0.027695 -0.059961 0.001674
v -0.028130 -0.059953 0.001661
v -0.028798 -0.061530 0.001957
v -0.024684 -0.072374 0.001914
v -0.028130 -0.060291 0.001538
v -0.026827 -0.060728 0.001529
v -0.022485 -0.065069 0.001522
v -0.022485 -0.065934 0.001540
v -0.022485 -0.068106 0.001600
v -0.023355 -0.070277 0.001633
v -0.023788 -0.071144 0.001663
v -0.024187 -0.071611 0.001660
v -0.024308 -0.071889 0.001703
v -0.024592 -0.072123 0.001733
v -0.028798 -0.061822 0.002981
v -0.022667 -0.070948 0.011764
v -0.022100 -0.070084 0.012508
v -0.022553 -0.070020 0.012508
v -0.022874 -0.069788 0.012508
v -0.024692 -0.072578 0.002372
v -0.024649 -0.072595 0.002837
v -0.024139 -0.072280 0.002837
v -0.024168 -0.072261 0.002404
v -0.024347 -0.072289 0.002094
v -0.024019 -0.071780 0.001762
v -0.023756 -0.071692 0.001930
v -0.024184 -0.072039 0.001928
v -0.023532 -0.071254 0.001738
v -0.023185 -0.070845 0.001776
v -0.022796 -0.070277 0.001814
v -0.022585 -0.070277 0.002029
v -0.022721 -0.070028 0.001760
v -0.022054 -0.067671 0.001648
v -0.022665 -0.069740 0.001732
v -0.022048 -0.068071 0.001702
v -0.022054 -0.067236 0.001610
v -0.022053 -0.066908 0.001596
v -0.022052 -0.066368 0.001579
v -0.022052 -0.065934 0.001578
v -0.022052 -0.065503 0.001596
v -0.022110 -0.064634 0.001663
v -0.022919 -0.063766 0.001567
v -0.022919 -0.063332 0.001620
v -0.022485 -0.064634 0.001530
v -0.022936 -0.062924 0.001703
v -0.024334 -0.061268 0.001714
v -0.024773 -0.060901 0.001723
v -0.025400 -0.060564 0.001786
v -0.027260 -0.060291 0.001569
v -0.026393 -0.060345 0.001666
v -0.027695 -0.060291 0.001549
v -0.028798 -0.061749 0.002404
v -0.026393 -0.060728 0.001553
v -0.022887 -0.069868 0.001689
v -0.023013 -0.070277 0.001711
v -0.023341 -0.070705 0.001692
v -0.028798 -0.061788 0.002692
v -0.023098 -0.070556 0.001739
v -0.024656 -0.061594 0.001612
v -0.024640 -0.061139 0.001681
v -0.025091 -0.061162 0.001625
f 1 2 3
f 1 3 4
f 1 4 5
f 1 5 6
f 1 6 7
f 1 7 8
f 1 8 9
f 1 9 10
f 1 10 11
f 1 11 12
f 1 12 13
f 1 13 14
f 1 14 15
f 1 15 16
f 1 16 17
f 1 17 18
f 1 18 19
f 1 19 20
f 1 20 21
f 1 21 22
f 1 22 23
f 1 23 54
f 1 54 95
f 1 95 97
f 1 97 158
f 1 158 157
f 1 157 156
f 1 156 211
f 1 211 210
f 1 210 209
f 1 209 159
f 1 159 98
f 1 98 56
f 1 56 24
f 1 24 25
f 1 25 26
f 1 26 2
f 2 26 27
f 2 27 3
f 3 27 28
f 3 28 4
f 4 28 29
f 4 29 30
f 4 30 5
f 5 30 31
f 5 31 32
f 5 32 6
f 6 32 33
f 6 33 7
f 7 33 34
f 7 34 35
f 7 35 8
f 8 35 36
f 8 36 9
f 9 36 37
f 9 37 10
f 10 37 38
f 10 38 39
f 10 39 40
f 10 40 11
f 11 40 12
f 12 40 13
f 13 40 14
f 14 40 41
f 14 41 42
f 14 42 15
f 15 42 16
f 16 42 43
f 16 43 44
f 16 44 17
f 17 44 45
f 17 45 18
f 18 45 19
f 19 45 46
f 19 46 47
f 19 47 20
f 20 47 48
f 20 48 49
f 20 49 21
f 21 49 50
f 21 50 51
f 21 51 22
f 22 51 52
f 22 52 53
f 22 53 23
f 23 53 55
f 23 55 54
f 24 56 57
f 24 57 58
f 24 58 59
f 24 59 60
f 24 60 61
f 24 61 62
f 24 62 63
f 24 63 25
f 25 63 64
f 25 64 65
f 25 65 66
f 25 66 67
f 25 67 68
f 25 68 69
f 25 69 26
f 26 69 27
f 27 69 70
f 27 70 71
f 27 71 28
f 28 72 29
f 28 71 72
f 29 72 73
f 29 73 30
f 30 73 74
f 30 74 32
f 30 32 31
f 32 74 33
f 33 74 75
f 33 75 76
f 33 76 77
f 33 77 34
f 34 77 78
f 34 78 36
f 34 36 35
f 36 78 79
f 36 79 37
f 37 79 80
f 37 80 38
f 38 80 81
f 38 81 39
f 39 82 40
f 39 81 82
f 40 83 84
f 40 84 42
f 40 42 41
f 40 82 83
f 42 84 43
f 43 84 85
f 43 85 86
f 43 86 44
f 44 86 87
f 44 87 45
f 45 88 46
f 45 87 88
f 46 88 89
f 46 89 47
f 47 89 90
f 47 90 48
f 48 90 91
f 48 91 49
f 49 91 50
f 50 91 92
f 50 92 51
f 51 92 93
f 51 93 52
f 52 93 94
f 52 94 55
f 52 55 53
f 54 55 95
f 55 94 96
f 55 96 97
f 55 97 95
f 56 98 57
f 57 99 100
f 57 100 101
f 57 101 102
f 57 102 58
f 57 98 99
f 58 102 103
f 58 103 59
f 59 103 104
f 59 104 105
f 59 105 106
f 59 106 107
f 59 107 108
f 59 108 109
f 59 109 61
f 59 61 60
f 61 109 108
f 61 108 110
f 61 110 62
f 62 110 63
f 63 110 111
f 63 111 64
f 64 66 65
f 64 111 66
f 66 111 112
f 66 112 113
f 66 113 114
f 66 114 67
f 67 114 115
f 67 115 69
f 67 69 68
f 69 116 70
f 69 115 117
f 69 117 118
f 69 118 119
f 69 119 116
f 70 116 71
f 71 116 120
f 71 120 121
f 71 121 72
f 72 121 122
f 72 122 73
f 73 123 124
f 73 124 74
f 73 122 123
f 74 124 125
f 74 125 75
f 75 126 76
f 75 125 126
f 76 127 77
f 76 126 127
f 77 127 128
f 77 128 78
f 78 128 129
f 78 129 130
f 78 130 81
f 78 81 79
f 79 81 80
f 81 130 82
f 82 131 132
f 82 132 83
f 82 130 133
f 82 133 131
f 83 132 134
f 83 134 84
f 84 134 85
f 85 134 87
f 85 87 86
f 87 135 89
f 87 89 88
f 87 134 135
f 89 135 90
f 90 135 91
f 91 136 137
f 91 137 138
f 91 138 139
f 91 139 92
f 91 135 136
f 92 139 140
f 92 140 141
f 92 141 93
f 93 141 142
f 93 142 94
f 94 143 195
f 94 195 244
f 94 244 249
f 94 249 207
f 94 207 147
f 94 147 96
f 94 142 144
f 94 144 145
f 94 145 146
f 94 146 143
f 96 147 148
f 96 148 149
f 96 149 150
f 96 150 151
f 96 151 152
f 96 152 153
f 96 153 154
f 96 154 155
f 96 155 156
f 96 156 157
f 96 157 158
f 96 158 97
f 98 159 100
f 98 100 99
f 100 160 101
f 100 159 160
f 101 160 149
f 101 149 148
f 101 148 103
f 101 103 102
f 103 148 161
f 103 161 162
f 103 162 104
f 104 162 105
f 105 162 163
f 105 163 108
f 105 108 107
f 105 107 106
f 108 163 164
f 108 164 165
f 108 165 166
f 108 166 167
f 108 167 110
f 110 167 111
f 111 167 112
f 112 167 168
f 112 168 113
f 113 168 115
f 113 115 114
f 115 168 169
f 115 169 170
f 115 170 117
f 116 119 171
f 116 171 172
f 116 172 120
f 117 170 118
f 118 171 119
f 118 170 171
f 120 172 173
f 120 173 121
f 121 174 175
f 121 175 122
f 121 173 174
f 122 175 176
f 122 176 123
f 123 176 124
f 124 177 125
f 124 176 177
f 125 177 126
f 126 177 178
f 126 178 179
f 126 179 180
f 126 180 181
f 126 181 127
f 127 181 129
f 127 129 128
f 129 182 183
f 129 183 133
f 129 133 130
f 129 181 182
f 131 184 132
f 131 133 184
f 132 184 185
f 132 185 134
f 133 183 184
f 134 186 135
f 134 185 186
f 135 186 187
f 135 187 188
f 135 188 137
f 135 137 136
f 137 189 190
f 137 190 138
f 137 188 191
f 137 191 192
f 137 192 189
f 138 193 140
f 138 140 139
f 138 190 193
f 140 193 194
f 140 194 142
f 140 142 141
f 142 194 144
f 143 146 196
f 143 196 195
f 144 194 197
f 144 197 145
f 145 197 198
f 145 198 199
f 145 199 146
f 146 199 200
f 146 200 201
f 146 201 202
f 146 202 203
f 146 203 204
f 146 204 205
f 146 205 206
f 146 206 196
f 147 207 161
f 147 161 148
f 149 160 208
f 149 208 150
f 150 208 151
f 151 208 152
f 152 208 209
f 152 209 153
f 153 209 210
f 153 210 154
f 154 210 211
f 154 211 156
f 154 156 155
f 159 209 208
f 159 208 160
f 161 207 212
f 161 212 213
f 161 213 214
f 161 214 162
f 162 214 215
f 162 215 163
f 163 215 216
f 163 216 164
f 164 217 218
f 164 218 165
f 164 216 219
f 164 219 217
f 165 220 166
f 165 218 217
f 165 217 220
f 166 221 167
f 166 220 221
f 167 221 222
f 167 222 223
f 167 223 168
f 168 223 224
f 168 224 169
f 169 224 170
f 170 224 171
f 171 225 172
f 171 224 226
f 171 226 227
f 171 227 225
f 172 228 173
f 172 225 228
f 173 229 230
f 173 230 174
f 173 228 229
f 174 231 175
f 174 230 231
f 175 231 232
f 175 232 176
f 176 232 233
f 176 233 177
f 177 233 178
f 178 233 179
f 179 234 235
f 179 235 180
f 179 233 236
f 179 236 234
f 180 235 181
f 181 235 237
f 181 237 182
f 182 237 238
f 182 238 183
f 183 238 184
f 184 239 240
f 184 240 188
f 184 188 187
f 184 187 186
f 184 186 185
f 184 238 239
f 188 240 191
f 189 241 190
f 189 192 242
f 189 242 241
f 190 241 193
f 191 240 239
f 191 239 192
f 192 239 242
f 193 241 243
f 193 243 194
f 194 243 197
f 195 196 212
f 195 212 244
f 196 206 217
f 196 217 219
f 196 219 216
f 196 216 212
f 197 243 198
f 198 243 241
f 198 241 245
f 198 245 236
f 198 236 199
f 199 236 231
f 199 231 230
f 199 230 200
f 200 230 201
f 201 230 229
f 201 229 228
f 201 228 225
f 201 225 246
f 201 246 202
f 202 247 248
f 202 248 203
f 202 246 247
f 203 248 220
f 203 220 204
f 204 220 205
f 205 220 217
f 205 217 206
f 207 249 212
f 212 216 215
f 212 215 213
f 212 249 244
f 213 215 214
f 220 248 247
f 220 247 250
f 220 250 221
f 221 250 224
f 221 224 222
f 222 224 223
f 224 250 247
f 224 247 226
f 225 227 226
f 225 226 246
f 226 247 246
f 231 236 232
f 232 236 233
f 234 236 251
f 234 251 235
f 235 251 252
f 235 252 238
f 235 238 237
f 236 245 251
f 238 252 239
f 239 252 245
f 239 245 242
f 241 242 245
f 245 252 253
f 245 253 251
f 251 253 252
