v -0.028800 -0.058268 0.012987
v -0.028800 -0.058268 0.012448
v -0.029388 -0.058268 0.012722
v -0.029870 -0.058281 0.012987
v -0.028800 -0.062003 0.012987
v -0.024699 -0.071383 0.011553
v -0.024699 -0.070405 0.011264
v -0.024699 -0.069998 0.010735
v -0.024699 -0.069836 0.010271
v -0.024699 -0.069747 0.009780
v -0.024699 -0.069664 0.009129
v -0.024699 -0.069611 0.008261
v -0.024699 -0.069596 0.007609
v -0.024699 -0.069587 0.006094
v -0.028900 -0.059515 0.002738
v -0.024699 -0.069622 0.003359
v -0.024699 -0.069667 0.002840
v -0.030691 -0.058838 0.012987
v -0.029680 -0.059681 0.002488
v -0.030301 -0.059773 0.002838
v -0.030735 -0.059884 0.002838
v -0.031120 -0.060049 0.002671
v -0.032320 -0.060647 0.002839
v -0.032886 -0.060084 0.012986
v -0.031734 -0.062904 0.012987
v -0.033542 -0.063809 0.012986
v -0.029363 -0.073044 0.012266
v -0.024767 -0.072246 0.011112
v -0.024727 -0.072680 0.010384
v -0.024699 -0.072833 0.009562
v -0.028970 -0.059644 0.002173
v -0.024699 -0.069830 0.002354
v -0.031686 -0.059596 0.012987
v -0.030301 -0.059845 0.002404
v -0.030734 -0.060038 0.002214
v -0.031841 -0.060458 0.002333
v -0.032645 -0.060907 0.002443
v -0.033202 -0.061312 0.002839
v -0.033307 -0.060430 0.012986
v -0.034478 -0.062820 0.012986
v -0.034257 -0.063535 0.012986
v -0.029925 -0.073010 0.012237
v -0.029436 -0.073531 0.011968
v -0.025116 -0.072709 0.010827
v -0.029023 -0.073637 0.011691
v -0.025533 -0.073141 0.010402
v -0.025140 -0.073077 0.009968
v -0.024699 -0.072624 0.002840
v -0.025089 -0.073098 0.009345
v -0.029533 -0.059967 0.001848
v -0.030301 -0.059990 0.002052
v -0.028900 -0.060136 0.001607
v -0.024699 -0.070213 0.001911
v -0.033770 -0.060855 0.012986
v -0.034126 -0.061335 0.012986
v -0.031177 -0.060476 0.001849
v -0.032433 -0.060958 0.001995
v -0.033269 -0.061452 0.002346
v -0.033520 -0.061627 0.002839
v -0.034396 -0.061993 0.012944
v -0.034797 -0.063437 0.012600
v -0.033053 -0.071176 0.011310
v -0.032735 -0.071898 0.011177
v -0.031872 -0.072701 0.011192
v -0.029891 -0.073526 0.011726
v -0.029436 -0.073751 0.011516
v -0.026580 -0.073547 0.010243
v -0.025961 -0.073374 0.010214
v -0.028567 -0.073877 0.010648
v -0.027263 -0.073749 0.010214
v -0.026174 -0.073534 0.009806
v -0.025527 -0.073290 0.009562
v -0.025093 -0.072850 0.002840
v -0.025052 -0.072666 0.002064
v -0.024907 -0.072198 0.001674
v -0.024699 -0.071146 0.001567
v -0.025763 -0.073160 0.002840
v -0.028800 -0.060727 0.001537
v -0.029651 -0.060727 0.001536
v -0.032029 -0.060981 0.001732
v -0.024699 -0.070673 0.001654
v -0.034566 -0.061895 0.010865
v -0.034892 -0.062406 0.010865
v -0.035139 -0.062897 0.011082
v -0.034992 -0.062729 0.011516
v -0.032840 -0.061518 0.001787
v -0.033464 -0.061853 0.002028
v -0.034097 -0.062380 0.002652
v -0.035324 -0.063672 0.011342
v -0.035212 -0.064200 0.011754
v -0.035286 -0.064634 0.011508
v -0.034927 -0.068445 0.010769
v -0.033193 -0.071461 0.010961
v -0.032714 -0.072260 0.010760
v -0.032197 -0.072738 0.010712
v -0.031682 -0.073055 0.010649
v -0.029436 -0.073843 0.010215
v -0.029219 -0.073821 0.011082
v -0.029869 -0.073672 0.011082
v -0.027698 -0.073837 0.010214
v -0.029001 -0.073886 0.010649
v -0.028136 -0.073969 0.009903
v -0.027263 -0.073849 0.009562
v -0.026830 -0.073737 0.009562
v -0.026273 -0.073583 0.009345
v -0.025734 -0.073104 0.002383
v -0.025435 -0.072633 0.001716
v -0.026170 -0.073112 0.001916
v -0.025961 -0.072629 0.001605
v -0.025527 -0.072013 0.001507
v -0.024896 -0.071578 0.001550
v -0.026585 -0.073443 0.002840
v -0.026396 -0.073355 0.002405
v -0.026179 -0.072013 0.001477
v -0.032688 -0.062030 0.001592
v -0.033775 -0.064200 0.001521
v -0.033480 -0.062404 0.001672
v -0.034536 -0.063163 0.002339
v -0.034682 -0.063331 0.002839
v -0.035128 -0.062897 0.010431
v -0.035293 -0.063331 0.010431
v -0.035410 -0.063765 0.010648
v -0.033964 -0.062664 0.001865
v -0.035423 -0.064417 0.011082
v -0.035363 -0.067737 0.010348
v -0.035301 -0.068217 0.010224
v -0.034907 -0.069007 0.010347
v -0.033470 -0.071144 0.010811
v -0.033167 -0.071755 0.010615
v -0.033111 -0.072004 0.010215
v -0.032822 -0.072361 0.009997
v -0.032474 -0.072661 0.009997
v -0.031853 -0.073069 0.010120
v -0.029869 -0.073711 0.010215
v -0.029869 -0.073712 0.009564
v -0.029436 -0.073837 0.009564
v -0.028857 -0.073963 0.009346
v -0.028776 -0.073966 0.009857
v -0.027943 -0.073988 0.009436
v -0.027939 -0.073984 0.008753
v -0.027047 -0.073041 0.001613
v -0.027124 -0.073517 0.002186
v -0.027915 -0.073403 0.001791
v -0.026396 -0.072446 0.001502
v -0.027047 -0.072446 0.001487
v -0.034208 -0.064634 0.001527
v -0.033340 -0.062897 0.001578
v -0.034208 -0.063765 0.001631
v -0.034468 -0.063451 0.001868
v -0.034909 -0.063955 0.002331
v -0.034880 -0.063721 0.002839
v -0.035074 -0.064200 0.002839
v -0.035184 -0.064634 0.002622
v -0.035365 -0.065315 0.002839
v -0.035460 -0.064200 0.010431
v -0.035406 -0.065502 0.003273
v -0.035468 -0.064634 0.010648
v -0.035504 -0.067454 0.009781
v -0.035434 -0.068105 0.009781
v -0.035273 -0.068698 0.009683
v -0.034935 -0.069465 0.009573
v -0.033529 -0.071413 0.010284
v -0.033149 -0.072049 0.009780
v -0.033547 -0.071570 0.009564
v -0.033031 -0.071936 0.002769
v -0.032054 -0.072672 0.002839
v -0.032569 -0.072306 0.002839
v -0.031602 -0.072906 0.002839
v -0.030894 -0.073207 0.002839
v -0.030230 -0.073583 0.008911
v -0.030300 -0.073387 0.002622
v -0.028872 -0.073949 0.008856
v -0.029845 -0.073527 0.003273
v -0.028400 -0.073972 0.008215
v -0.027915 -0.073672 0.002405
v -0.028801 -0.073054 0.001614
v -0.027915 -0.072881 0.001533
v -0.028809 -0.073501 0.001978
v -0.029604 -0.073077 0.001685
v -0.028818 -0.072446 0.001519
v -0.034398 -0.067170 0.001541
v -0.034817 -0.066368 0.001596
v -0.034792 -0.065285 0.001627
v -0.034383 -0.064200 0.001616
v -0.034896 -0.064603 0.001836
v -0.035294 -0.065414 0.002180
v -0.035396 -0.066151 0.002404
v -0.035487 -0.064634 0.010215
v -0.035421 -0.065937 0.003055
v -0.035574 -0.066368 0.008695
v -0.035573 -0.067074 0.009130
v -0.035545 -0.067671 0.009130
v -0.035479 -0.068105 0.009130
v -0.035325 -0.068684 0.008849
v -0.035208 -0.068982 0.009346
v -0.034973 -0.069555 0.008913
v -0.034610 -0.070073 0.009346
v -0.033921 -0.071019 0.009665
v -0.033943 -0.071084 0.008911
v -0.033774 -0.071146 0.002839
v -0.033477 -0.071492 0.002777
v -0.033862 -0.071175 0.009346
v -0.032437 -0.072284 0.002250
v -0.033212 -0.071563 0.002206
v -0.031602 -0.072853 0.002404
v -0.030843 -0.073097 0.002192
v -0.029869 -0.073464 0.002404
v -0.029670 -0.073538 0.002787
v -0.029436 -0.073603 0.003273
v -0.029001 -0.073624 0.002622
v -0.028567 -0.073660 0.002405
v -0.030300 -0.072841 0.001665
v -0.030300 -0.072446 0.001579
v -0.029436 -0.072446 0.001541
v -0.029419 -0.073507 0.002243
v -0.030070 -0.073195 0.001913
v -0.032905 -0.070710 0.001593
v -0.034208 -0.067888 0.001549
v -0.034208 -0.068541 0.001591
v -0.034781 -0.067882 0.001692
v -0.035052 -0.067088 0.001800
v -0.035130 -0.065937 0.001821
v -0.035275 -0.066368 0.001982
v -0.035334 -0.066914 0.002257
v -0.035394 -0.066803 0.002839
v -0.035584 -0.066803 0.008477
v -0.035314 -0.067420 0.002622
v -0.035203 -0.068105 0.003054
v -0.035102 -0.068541 0.003054
v -0.034866 -0.069162 0.002639
v -0.034784 -0.069895 0.008664
v -0.034432 -0.070141 0.003272
v -0.034482 -0.070358 0.008694
v -0.034035 -0.070787 0.002839
v -0.034014 -0.070552 0.002259
v -0.033541 -0.071159 0.002189
v -0.031602 -0.072655 0.001965
v -0.032000 -0.072533 0.002164
v -0.032741 -0.071690 0.001845
v -0.033084 -0.071222 0.001730
v -0.031162 -0.072718 0.001789
v -0.030735 -0.072609 0.001647
v -0.031674 -0.072164 0.001666
v -0.033350 -0.070709 0.001680
v -0.033526 -0.070204 0.001644
v -0.033775 -0.069408 0.001587
v -0.034561 -0.068541 0.001685
v -0.035096 -0.067671 0.001970
v -0.034846 -0.068619 0.001957
v -0.035147 -0.068105 0.002403
v -0.035044 -0.068541 0.002403
v -0.034460 -0.069822 0.002244
v -0.034412 -0.070127 0.002810
v -0.033549 -0.070705 0.001768
v -0.034049 -0.069896 0.001741
f 1 2 3
f 1 3 4
f 1 4 18
f 1 18 33
f 1 33 25
f 1 25 5
f 1 5 6
f 1 6 7
f 1 7 8
f 1 8 9
f 1 9 10
f 1 10 11
f 1 11 12
f 1 12 13
f 1 13 14
f 1 14 2
f 2 15 3
f 2 14 16
f 2 16 17
f 2 17 15
f 3 15 4
f 4 15 19
f 4 19 20
f 4 20 21
f 4 21 22
f 4 22 23
f 4 23 24
f 4 24 18
f 5 25 26
f 5 26 27
f 5 27 6
f 6 28 29
f 6 29 30
f 6 30 48
f 6 48 76
f 6 76 81
f 6 81 53
f 6 53 32
f 6 32 17
f 6 17 16
f 6 16 14
f 6 14 13
f 6 13 12
f 6 12 11
f 6 11 10
f 6 10 9
f 6 9 8
f 6 8 7
f 6 27 28
f 15 31 19
f 15 17 32
f 15 32 31
f 18 24 33
f 19 34 20
f 19 31 34
f 20 34 21
f 21 34 22
f 22 34 35
f 22 35 36
f 22 36 23
f 23 36 37
f 23 37 24
f 24 37 38
f 24 38 39
f 24 39 33
f 25 33 40
f 25 40 41
f 25 41 26
f 26 41 27
f 27 42 43
f 27 43 28
f 27 41 42
f 28 44 29
f 28 43 45
f 28 45 44
f 29 44 46
f 29 46 47
f 29 47 30
f 30 47 49
f 30 49 48
f 31 50 51
f 31 51 34
f 31 32 52
f 31 52 50
f 32 53 52
f 33 39 54
f 33 54 55
f 33 55 40
f 34 51 35
f 35 51 56
f 35 56 36
f 36 56 57
f 36 57 37
f 37 57 58
f 37 58 38
f 38 58 59
f 38 59 54
f 38 54 39
f 40 60 61
f 40 61 41
f 40 55 60
f 41 61 62
f 41 62 42
f 42 62 63
f 42 63 64
f 42 64 65
f 42 65 43
f 43 65 66
f 43 66 45
f 44 45 46
f 45 67 68
f 45 68 46
f 45 66 69
f 45 69 70
f 45 70 67
f 46 68 47
f 47 68 71
f 47 71 72
f 47 72 49
f 48 49 73
f 48 73 74
f 48 74 75
f 48 75 76
f 49 72 77
f 49 77 73
f 50 52 56
f 50 56 51
f 52 78 79
f 52 79 80
f 52 80 56
f 52 53 81
f 52 81 78
f 54 59 82
f 54 82 55
f 55 82 83
f 55 83 84
f 55 84 85
f 55 85 60
f 56 80 57
f 57 80 86
f 57 86 87
f 57 87 58
f 58 87 88
f 58 88 59
f 59 88 82
f 60 85 89
f 60 89 61
f 61 89 90
f 61 90 91
f 61 91 92
f 61 92 62
f 62 93 63
f 62 92 93
f 63 93 94
f 63 94 64
f 64 94 95
f 64 95 96
f 64 96 65
f 65 96 66
f 66 97 98
f 66 98 69
f 66 96 99
f 66 99 97
f 67 70 71
f 67 71 68
f 69 100 70
f 69 98 101
f 69 101 102
f 69 102 100
f 70 100 103
f 70 103 71
f 71 103 104
f 71 104 105
f 71 105 72
f 72 105 77
f 73 77 106
f 73 106 74
f 74 107 75
f 74 106 108
f 74 108 107
f 75 107 109
f 75 109 110
f 75 110 111
f 75 111 76
f 76 111 110
f 76 110 78
f 76 78 81
f 77 105 112
f 77 112 113
f 77 113 106
f 78 110 114
f 78 114 79
f 79 115 80
f 79 114 116
f 79 116 115
f 80 115 117
f 80 117 86
f 82 88 83
f 83 88 118
f 83 118 119
f 83 119 120
f 83 120 84
f 84 120 121
f 84 121 122
f 84 122 89
f 84 89 85
f 86 117 87
f 87 117 123
f 87 123 118
f 87 118 88
f 89 122 124
f 89 124 90
f 90 124 91
f 91 124 125
f 91 125 92
f 92 125 126
f 92 126 127
f 92 127 128
f 92 128 93
f 93 129 94
f 93 128 129
f 94 130 131
f 94 131 95
f 94 129 130
f 95 131 132
f 95 132 133
f 95 133 96
f 96 133 99
f 97 99 134
f 97 134 135
f 97 135 136
f 97 136 137
f 97 137 138
f 97 138 101
f 97 101 98
f 99 133 134
f 100 102 103
f 101 138 102
f 102 138 139
f 102 139 103
f 103 139 140
f 103 140 112
f 103 112 104
f 104 112 105
f 106 113 108
f 107 108 141
f 107 141 109
f 108 113 142
f 108 142 143
f 108 143 141
f 109 144 110
f 109 141 144
f 110 144 114
f 112 142 113
f 112 140 142
f 114 144 145
f 114 145 146
f 114 146 116
f 115 147 117
f 115 116 147
f 116 146 147
f 117 147 148
f 117 148 149
f 117 149 123
f 118 149 150
f 118 150 151
f 118 151 119
f 118 123 149
f 119 151 120
f 120 151 152
f 120 152 121
f 121 152 153
f 121 153 154
f 121 154 122
f 122 155 124
f 122 154 156
f 122 156 155
f 124 157 158
f 124 158 125
f 124 155 157
f 125 158 159
f 125 159 126
f 126 160 127
f 126 159 160
f 127 160 161
f 127 161 162
f 127 162 128
f 128 162 129
f 129 162 130
f 130 163 131
f 130 162 164
f 130 164 163
f 131 163 165
f 131 165 132
f 132 166 133
f 132 165 167
f 132 167 166
f 133 168 169
f 133 169 170
f 133 170 135
f 133 135 134
f 133 166 168
f 135 170 171
f 135 171 136
f 136 172 137
f 136 171 173
f 136 173 172
f 137 172 174
f 137 174 139
f 137 139 138
f 139 174 140
f 140 174 175
f 140 175 142
f 141 143 176
f 141 176 177
f 141 177 144
f 142 175 143
f 143 175 178
f 143 178 179
f 143 179 176
f 144 177 145
f 145 177 180
f 145 180 181
f 145 181 146
f 146 181 182
f 146 182 183
f 146 183 184
f 146 184 148
f 146 148 147
f 148 184 149
f 149 184 185
f 149 185 150
f 150 152 151
f 150 185 186
f 150 186 153
f 150 153 152
f 153 186 154
f 154 186 187
f 154 187 156
f 155 156 188
f 155 188 157
f 156 187 189
f 156 189 190
f 156 190 188
f 157 188 191
f 157 191 158
f 158 192 159
f 158 191 192
f 159 192 193
f 159 193 160
f 160 194 195
f 160 195 161
f 160 193 194
f 161 195 196
f 161 196 197
f 161 197 162
f 162 197 198
f 162 198 164
f 163 164 199
f 163 199 200
f 163 200 201
f 163 201 165
f 164 198 202
f 164 202 199
f 165 203 167
f 165 201 204
f 165 204 203
f 166 167 203
f 166 203 205
f 166 205 168
f 168 205 169
f 169 171 170
f 169 205 171
f 171 205 206
f 171 206 207
f 171 207 208
f 171 208 173
f 172 173 209
f 172 209 210
f 172 210 174
f 173 208 209
f 174 210 211
f 174 211 175
f 175 211 178
f 176 179 212
f 176 212 213
f 176 213 177
f 177 213 214
f 177 214 180
f 178 215 216
f 178 216 179
f 178 211 215
f 179 216 212
f 180 214 217
f 180 217 218
f 180 218 181
f 181 218 219
f 181 219 220
f 181 220 182
f 182 220 221
f 182 221 222
f 182 222 183
f 183 222 185
f 183 185 184
f 185 222 186
f 186 222 223
f 186 223 187
f 187 223 224
f 187 224 225
f 187 225 226
f 187 226 189
f 188 190 191
f 189 226 190
f 190 226 191
f 191 226 192
f 192 226 225
f 192 225 227
f 192 227 193
f 193 228 229
f 193 229 194
f 193 227 228
f 194 230 196
f 194 196 195
f 194 229 230
f 196 231 197
f 196 230 232
f 196 232 231
f 197 233 202
f 197 202 198
f 197 231 233
f 199 233 200
f 199 202 233
f 200 233 234
f 200 234 235
f 200 235 236
f 200 236 201
f 201 236 204
f 203 237 238
f 203 238 205
f 203 204 239
f 203 239 237
f 204 236 240
f 204 240 239
f 205 238 237
f 205 237 206
f 206 216 207
f 206 237 241
f 206 241 216
f 207 216 215
f 207 215 211
f 207 211 210
f 207 210 208
f 208 210 209
f 212 216 241
f 212 241 242
f 212 242 213
f 213 243 217
f 213 217 214
f 213 242 243
f 217 243 240
f 217 240 244
f 217 244 245
f 217 245 246
f 217 246 218
f 218 246 219
f 219 246 247
f 219 247 220
f 220 248 221
f 220 247 249
f 220 249 248
f 221 223 222
f 221 248 223
f 223 248 224
f 224 248 250
f 224 250 227
f 224 227 225
f 227 250 228
f 228 250 229
f 229 250 251
f 229 251 230
f 230 251 252
f 230 252 253
f 230 253 232
f 231 232 234
f 231 234 233
f 232 253 234
f 234 253 252
f 234 252 235
f 235 254 236
f 235 252 255
f 235 255 254
f 236 254 240
f 237 239 241
f 239 240 243
f 239 243 241
f 240 254 244
f 241 243 242
f 244 254 255
f 244 255 245
f 245 255 246
f 246 255 247
f 247 255 249
f 248 249 251
f 248 251 250
f 249 255 252
f 249 252 251
