v -0.024803 -0.016450 0.001496
v -0.091376 -0.018656 -0.002870
v -0.080634 -0.016494 0.001469
v -0.080634 -0.016494 0.002077
v -0.024717 -0.016452 0.002854
v -0.023043 -0.016523 0.002843
v -0.023192 -0.016545 0.001614
v -0.024803 -0.017750 0.000938
v -0.091376 -0.022526 -0.007150
v -0.091376 -0.021451 -0.006488
v -0.091376 -0.020314 -0.005412
v -0.091376 -0.019237 -0.003944
v -0.082789 -0.016508 0.001498
v -0.093530 -0.019221 -0.003917
v -0.093530 -0.018674 -0.002844
v -0.082789 -0.016508 0.002073
v -0.043566 -0.016627 0.003969
v -0.023939 -0.016601 0.003988
v -0.023352 -0.016601 0.003988
v -0.021976 -0.016977 0.002843
v -0.021443 -0.018296 0.001635
v -0.022552 -0.017647 0.001378
v -0.089231 -0.026343 -0.008013
v -0.091376 -0.024195 -0.007819
v -0.022659 -0.019897 0.001073
v -0.093530 -0.024195 -0.007964
v -0.093530 -0.022463 -0.007221
v -0.093530 -0.021391 -0.006508
v -0.093530 -0.020296 -0.005433
v -0.095685 -0.018722 -0.002750
v -0.088303 -0.016649 0.001711
v -0.095685 -0.020336 -0.005393
v -0.095685 -0.019263 -0.003824
v -0.088303 -0.016649 0.001816
v -0.099984 -0.018360 0.002244
v -0.082789 -0.017750 0.002826
v -0.060804 -0.018646 0.003950
v -0.018424 -0.032786 0.007676
v -0.018424 -0.026941 0.006207
v -0.018424 -0.025846 0.005882
v -0.021421 -0.018320 0.004067
v -0.021357 -0.018052 0.002843
v -0.018424 -0.024387 0.002982
v -0.018424 -0.026271 0.002214
v -0.018424 -0.026343 0.002198
v -0.089231 -0.028489 -0.007920
v -0.091376 -0.026343 -0.008239
v -0.022659 -0.022045 0.001214
v -0.093530 -0.026343 -0.008376
v -0.095685 -0.026343 -0.008437
v -0.095685 -0.024195 -0.007983
v -0.095685 -0.022494 -0.007221
v -0.095685 -0.021419 -0.006466
v -0.097072 -0.018778 -0.002628
v -0.104283 -0.018610 0.001217
v -0.105733 -0.018736 0.001482
v -0.097840 -0.020436 -0.005322
v -0.099984 -0.020584 -0.005158
v -0.097797 -0.019289 -0.003445
v -0.105733 -0.018736 0.001875
v -0.104283 -0.018610 0.002018
v -0.102117 -0.018474 0.002168
v -0.110715 -0.020304 0.002173
v -0.118736 -0.031525 0.003976
v -0.112859 -0.032786 0.004425
v -0.022659 -0.034934 0.007229
v -0.018424 -0.034934 0.007351
v -0.062671 -0.033949 0.006100
v -0.018424 -0.024379 0.004805
v -0.018424 -0.024379 0.003061
v -0.018424 -0.030564 0.002597
v -0.018424 -0.030636 0.002605
v -0.018424 -0.032716 0.002892
v -0.018424 -0.032786 0.002903
v -0.018424 -0.034864 0.003447
v -0.018424 -0.034934 0.003466
v -0.089199 -0.030803 -0.007221
v -0.091376 -0.028489 -0.008134
v -0.093530 -0.028489 -0.008239
v -0.095685 -0.028489 -0.008302
v -0.097840 -0.028489 -0.008264
v -0.097840 -0.026343 -0.008355
v -0.097840 -0.024195 -0.007851
v -0.097840 -0.022594 -0.007139
v -0.097840 -0.021519 -0.006395
v -0.106416 -0.020466 -0.003311
v -0.106416 -0.019707 -0.001450
v -0.108581 -0.019537 0.000693
v -0.110715 -0.020045 0.000693
v -0.114160 -0.020912 0.001504
v -0.099984 -0.021693 -0.006232
v -0.102117 -0.020774 -0.004918
v -0.114160 -0.020912 0.001832
v -0.112859 -0.020716 0.001985
v -0.118779 -0.022884 0.001982
v -0.117168 -0.022604 0.002096
v -0.123611 -0.028489 0.002972
v -0.123611 -0.030636 0.003372
v -0.121467 -0.032248 0.003840
v -0.122747 -0.033661 0.003946
v -0.119387 -0.032690 0.004080
v -0.117168 -0.032786 0.004239
v -0.117168 -0.034438 0.004163
v -0.041433 -0.036049 0.006111
v -0.112859 -0.034726 0.004271
v -0.018424 -0.034976 0.007323
v -0.115014 -0.034606 0.004223
v -0.018424 -0.036017 0.003878
v -0.088453 -0.031627 -0.006783
v -0.089882 -0.031783 -0.006873
v -0.091376 -0.030636 -0.007480
v -0.095685 -0.030636 -0.007573
v -0.097840 -0.030636 -0.007570
v -0.093530 -0.030636 -0.007541
v -0.099984 -0.030636 -0.007475
v -0.102117 -0.030636 -0.007328
v -0.099984 -0.028489 -0.008097
v -0.099984 -0.026343 -0.008134
v -0.099984 -0.024195 -0.007631
v -0.099984 -0.022766 -0.007032
v -0.104965 -0.021068 -0.004578
v -0.106416 -0.021305 -0.004384
v -0.107984 -0.020696 -0.002955
v -0.103536 -0.020912 -0.004748
v -0.113360 -0.021164 0.000072
v -0.118299 -0.023094 -0.000401
v -0.118694 -0.022924 0.000693
v -0.101594 -0.022944 -0.006931
v -0.102245 -0.022155 -0.006133
v -0.119771 -0.023478 0.000693
v -0.122864 -0.025124 0.001271
v -0.122864 -0.025124 0.001859
v -0.125254 -0.026843 0.002138
v -0.123600 -0.026215 0.002239
v -0.125894 -0.028380 0.002455
v -0.125755 -0.030636 0.003058
v -0.123526 -0.032880 0.003730
v -0.122747 -0.033915 0.003946
v -0.119323 -0.034251 0.004078
v -0.112859 -0.035799 0.003660
v -0.082789 -0.036375 0.004307
v -0.022659 -0.036215 0.006392
v -0.101242 -0.036043 0.003955
v -0.093530 -0.036223 0.004130
v -0.018424 -0.036209 0.006428
v -0.018424 -0.036237 0.004991
v -0.022659 -0.036099 0.003810
v -0.104891 -0.036077 -0.002646
v -0.089231 -0.034800 -0.003600
v -0.089231 -0.034013 -0.004847
v -0.089199 -0.032614 -0.006078
v -0.091376 -0.032916 -0.005963
v -0.091376 -0.031841 -0.006915
v -0.093530 -0.031859 -0.006933
v -0.095685 -0.031865 -0.006945
v -0.097840 -0.031869 -0.006948
v -0.099984 -0.031833 -0.006915
v -0.103440 -0.031733 -0.006836
v -0.104869 -0.031635 -0.006794
v -0.104208 -0.030807 -0.007117
v -0.106416 -0.030360 -0.007056
v -0.102117 -0.028489 -0.007862
v -0.104283 -0.028489 -0.007586
v -0.102117 -0.026343 -0.007833
v -0.102245 -0.024033 -0.007235
v -0.103035 -0.023210 -0.006784
v -0.106416 -0.022379 -0.005187
v -0.108037 -0.022752 -0.004898
v -0.119323 -0.025578 -0.002245
v -0.119131 -0.024175 -0.001027
v -0.121019 -0.024880 -0.000751
v -0.122448 -0.025336 -0.000161
v -0.123600 -0.025778 0.000610
v -0.125201 -0.026925 0.000693
v -0.126257 -0.027946 0.000693
v -0.127131 -0.029025 0.002124
v -0.127249 -0.030636 0.002301
v -0.125755 -0.032786 0.002965
v -0.125755 -0.034187 0.002255
v -0.123526 -0.034486 0.002991
v -0.120635 -0.036055 0.001895
v -0.119323 -0.035324 0.003181
v -0.119323 -0.036135 0.002105
v -0.112859 -0.036311 0.002586
v -0.084933 -0.036882 0.002843
v -0.093530 -0.036733 0.002843
v -0.020504 -0.036221 0.006401
v -0.082789 -0.036900 0.002843
v -0.018424 -0.036211 0.006384
v -0.020504 -0.036279 0.004991
v -0.033400 -0.036253 0.003586
v -0.104219 -0.036313 -0.001567
v -0.106491 -0.036317 -0.001581
v -0.105819 -0.036077 -0.002646
v -0.106416 -0.034211 -0.004989
v -0.091376 -0.034041 -0.004890
v -0.106416 -0.032786 -0.005983
v -0.106416 -0.031437 -0.006743
v -0.108133 -0.029988 -0.006929
v -0.106416 -0.028489 -0.007275
v -0.108261 -0.028489 -0.006967
v -0.107888 -0.027095 -0.006909
v -0.104283 -0.026343 -0.007459
v -0.104283 -0.024649 -0.007054
v -0.105659 -0.025070 -0.006907
v -0.104283 -0.023576 -0.006603
v -0.108677 -0.024037 -0.005425
v -0.116336 -0.027308 -0.004756
v -0.119323 -0.026653 -0.003125
v -0.120731 -0.027077 -0.002775
v -0.124795 -0.027332 -0.000420
v -0.126939 -0.029379 -0.000463
v -0.127142 -0.029021 0.000693
v -0.127398 -0.030636 0.000693
v -0.127057 -0.032786 0.002067
v -0.126865 -0.033893 0.001812
v -0.120635 -0.036055 0.001674
v -0.106416 -0.036733 0.000693
v -0.119323 -0.036135 0.001521
v -0.104283 -0.036762 0.000693
v -0.022659 -0.036305 0.004991
v -0.108581 -0.034922 -0.003600
v -0.106491 -0.035404 -0.003458
v -0.124827 -0.033897 -0.000406
v -0.108581 -0.034055 -0.004857
v -0.108581 -0.032786 -0.005713
v -0.115014 -0.032142 -0.004964
v -0.112859 -0.030636 -0.005945
v -0.108731 -0.030676 -0.006639
v -0.112859 -0.028489 -0.006068
v -0.110715 -0.028489 -0.006497
v -0.106384 -0.026367 -0.007048
v -0.108603 -0.026367 -0.006537
v -0.110715 -0.026343 -0.005978
v -0.117776 -0.027972 -0.004510
v -0.115014 -0.028489 -0.005478
v -0.119152 -0.028609 -0.004127
v -0.126971 -0.030636 -0.000483
v -0.118342 -0.029405 -0.004715
v -0.126907 -0.031919 -0.000436
v -0.127046 -0.032696 0.000837
v -0.126865 -0.033893 0.001649
v -0.125627 -0.034145 0.000837
v -0.118086 -0.033823 -0.002472
v -0.126246 -0.033351 0.000215
v -0.117851 -0.031187 -0.004549
v -0.116422 -0.031869 -0.004780
v -0.115014 -0.033215 -0.003964
v -0.109819 -0.033897 -0.004715
v -0.112859 -0.032448 -0.005168
v -0.111259 -0.033711 -0.004515
v -0.112859 -0.033521 -0.004265
v -0.115014 -0.030636 -0.005480
v -0.118342 -0.029754 -0.004715
v -0.119152 -0.030536 -0.004161
v -0.117158 -0.030536 -0.004895
f 1 2 3
f 1 3 4
f 1 4 5
f 1 5 6
f 1 6 7
f 1 7 8
f 1 8 9
f 1 9 10
f 1 10 11
f 1 11 12
f 1 12 2
f 2 13 3
f 2 12 14
f 2 14 15
f 2 15 13
f 3 13 16
f 3 16 4
f 4 16 17
f 4 17 5
f 5 18 19
f 5 19 6
f 5 17 18
f 6 19 20
f 6 20 7
f 7 20 21
f 7 21 22
f 7 22 8
f 8 23 24
f 8 24 9
f 8 22 25
f 8 25 23
f 9 24 26
f 9 26 27
f 9 27 10
f 10 27 28
f 10 28 11
f 11 28 29
f 11 29 12
f 12 29 14
f 13 15 30
f 13 30 31
f 13 31 34
f 13 34 16
f 14 29 32
f 14 32 33
f 14 33 15
f 15 33 30
f 16 34 35
f 16 35 36
f 16 36 17
f 17 36 37
f 17 37 38
f 17 38 18
f 18 38 19
f 19 38 39
f 19 39 40
f 19 40 41
f 19 41 20
f 20 41 42
f 20 42 21
f 21 25 22
f 21 42 43
f 21 43 44
f 21 44 45
f 21 45 25
f 23 25 46
f 23 46 47
f 23 47 24
f 24 47 26
f 25 45 48
f 25 48 46
f 26 49 50
f 26 50 51
f 26 51 27
f 26 47 49
f 27 51 52
f 27 52 28
f 28 52 53
f 28 53 29
f 29 53 32
f 30 33 54
f 30 54 31
f 31 54 55
f 31 55 56
f 31 56 60
f 31 60 34
f 32 53 85
f 32 85 57
f 32 57 33
f 33 57 58
f 33 58 59
f 33 59 54
f 34 60 61
f 34 61 62
f 34 62 35
f 35 37 36
f 35 62 63
f 35 63 37
f 37 63 64
f 37 64 65
f 37 65 38
f 38 66 67
f 38 67 106
f 38 106 145
f 38 145 189
f 38 189 146
f 38 146 108
f 38 108 76
f 38 76 75
f 38 75 74
f 38 74 73
f 38 73 72
f 38 72 71
f 38 71 45
f 38 45 44
f 38 44 43
f 38 43 70
f 38 70 69
f 38 69 40
f 38 40 39
f 38 65 68
f 38 68 66
f 40 69 41
f 41 69 42
f 42 69 70
f 42 70 43
f 45 71 46
f 45 46 48
f 46 71 72
f 46 72 73
f 46 73 74
f 46 74 75
f 46 75 76
f 46 76 77
f 46 77 78
f 46 78 47
f 47 78 49
f 49 78 79
f 49 79 80
f 49 80 50
f 50 80 81
f 50 81 82
f 50 82 51
f 51 82 83
f 51 83 84
f 51 84 52
f 52 84 85
f 52 85 53
f 54 59 86
f 54 86 87
f 54 87 55
f 55 87 56
f 56 87 88
f 56 88 89
f 56 89 90
f 56 90 93
f 56 93 60
f 57 85 58
f 58 85 91
f 58 91 92
f 58 92 86
f 58 86 59
f 60 93 63
f 60 63 61
f 61 63 62
f 63 93 94
f 63 94 95
f 63 95 96
f 63 96 97
f 63 97 64
f 64 97 98
f 64 98 99
f 64 99 100
f 64 100 101
f 64 101 102
f 64 102 65
f 65 102 103
f 65 103 68
f 66 104 67
f 66 68 105
f 66 105 104
f 67 104 106
f 68 103 107
f 68 107 105
f 76 108 77
f 77 109 110
f 77 110 111
f 77 111 78
f 77 108 109
f 78 111 79
f 79 111 80
f 80 112 113
f 80 113 81
f 80 111 114
f 80 114 112
f 81 113 115
f 81 115 116
f 81 116 117
f 81 117 82
f 82 117 118
f 82 118 119
f 82 119 83
f 83 119 120
f 83 120 84
f 84 120 85
f 85 120 91
f 86 121 122
f 86 122 123
f 86 123 87
f 86 92 124
f 86 124 121
f 87 123 89
f 87 89 88
f 89 125 90
f 89 123 125
f 90 125 126
f 90 126 127
f 90 127 95
f 90 95 93
f 91 120 128
f 91 128 129
f 91 129 121
f 91 121 124
f 91 124 92
f 93 95 94
f 95 127 130
f 95 130 131
f 95 131 132
f 95 132 133
f 95 133 134
f 95 134 97
f 95 97 96
f 97 134 133
f 97 133 135
f 97 135 136
f 97 136 98
f 98 136 137
f 98 137 100
f 98 100 99
f 100 137 138
f 100 138 102
f 100 102 101
f 102 138 103
f 103 138 139
f 103 139 140
f 103 140 107
f 104 141 142
f 104 142 106
f 104 105 143
f 104 143 144
f 104 144 141
f 105 107 140
f 105 140 143
f 106 142 145
f 108 146 147
f 108 147 148
f 108 148 149
f 108 149 150
f 108 150 151
f 108 151 110
f 108 110 109
f 110 151 150
f 110 150 152
f 110 152 153
f 110 153 111
f 111 153 114
f 112 114 153
f 112 153 154
f 112 154 155
f 112 155 156
f 112 156 113
f 113 156 157
f 113 157 158
f 113 158 115
f 115 158 159
f 115 159 116
f 116 159 160
f 116 160 117
f 117 160 161
f 117 161 162
f 117 162 118
f 118 162 163
f 118 163 164
f 118 164 119
f 119 164 165
f 119 165 128
f 119 128 120
f 121 129 128
f 121 128 166
f 121 166 122
f 122 167 168
f 122 168 169
f 122 169 170
f 122 170 126
f 122 126 123
f 122 166 167
f 123 126 125
f 126 170 171
f 126 171 172
f 126 172 130
f 126 130 127
f 128 165 166
f 130 172 131
f 131 173 174
f 131 174 133
f 131 133 132
f 131 172 173
f 133 174 175
f 133 175 176
f 133 176 135
f 135 176 136
f 136 176 177
f 136 177 178
f 136 178 137
f 137 178 138
f 138 178 179
f 138 179 180
f 138 180 181
f 138 181 182
f 138 182 140
f 138 140 139
f 140 182 183
f 140 183 184
f 140 184 144
f 140 144 143
f 141 185 142
f 141 144 186
f 141 186 185
f 142 187 145
f 142 185 188
f 142 188 187
f 144 184 186
f 145 187 188
f 145 188 189
f 146 189 190
f 146 190 147
f 147 190 191
f 147 191 148
f 148 192 193
f 148 193 194
f 148 194 195
f 148 195 196
f 148 196 150
f 148 150 149
f 148 191 192
f 150 196 152
f 152 154 153
f 152 196 195
f 152 195 154
f 154 195 155
f 155 195 156
f 156 195 157
f 157 195 197
f 157 197 158
f 158 197 159
f 159 197 198
f 159 198 160
f 160 198 161
f 161 198 199
f 161 199 162
f 162 199 163
f 163 199 200
f 163 200 164
f 164 200 201
f 164 201 202
f 164 202 203
f 164 203 204
f 164 204 165
f 165 204 166
f 166 204 205
f 166 205 206
f 166 206 168
f 166 168 167
f 168 206 207
f 168 207 208
f 168 208 209
f 168 209 169
f 169 209 210
f 169 210 171
f 169 171 170
f 171 210 211
f 171 211 172
f 172 211 174
f 172 174 173
f 174 211 212
f 174 212 175
f 175 212 213
f 175 213 176
f 176 213 214
f 176 214 177
f 177 214 215
f 177 215 178
f 178 215 216
f 178 216 179
f 179 216 181
f 179 181 180
f 181 217 219
f 181 219 183
f 181 183 182
f 181 216 242
f 181 242 217
f 183 218 184
f 183 219 218
f 184 218 186
f 185 186 218
f 185 218 220
f 185 220 188
f 188 191 190
f 188 190 221
f 188 221 189
f 188 220 192
f 188 192 191
f 189 221 190
f 192 220 193
f 193 220 218
f 193 218 219
f 193 219 194
f 194 222 223
f 194 223 195
f 194 219 217
f 194 217 224
f 194 224 222
f 195 223 225
f 195 225 197
f 197 225 226
f 197 226 198
f 198 226 227
f 198 227 228
f 198 228 229
f 198 229 199
f 199 229 228
f 199 228 230
f 199 230 231
f 199 231 201
f 199 201 200
f 201 231 202
f 202 205 232
f 202 232 203
f 202 231 230
f 202 230 205
f 203 232 205
f 203 205 204
f 205 230 233
f 205 233 234
f 205 234 208
f 205 208 206
f 206 208 207
f 208 235 210
f 208 210 209
f 208 234 230
f 208 230 236
f 208 236 235
f 210 235 237
f 210 237 212
f 210 212 211
f 212 238 214
f 212 214 213
f 212 237 239
f 212 239 238
f 214 238 240
f 214 240 241
f 214 241 242
f 214 242 215
f 215 242 216
f 217 242 243
f 217 243 224
f 222 225 223
f 222 224 244
f 222 244 225
f 224 243 242
f 224 242 245
f 224 245 240
f 224 240 246
f 224 246 247
f 224 247 227
f 224 227 248
f 224 248 244
f 225 244 249
f 225 249 227
f 225 227 250
f 225 250 226
f 226 250 227
f 227 249 251
f 227 251 252
f 227 252 248
f 227 247 228
f 228 247 253
f 228 253 230
f 230 253 254
f 230 254 239
f 230 239 236
f 230 234 233
f 235 236 239
f 235 239 237
f 238 239 254
f 238 254 240
f 240 245 242
f 240 242 241
f 240 254 255
f 240 255 246
f 244 248 252
f 244 252 251
f 244 251 249
f 246 255 254
f 246 254 256
f 246 256 253
f 246 253 247
f 253 256 254
