v 0.078301 -0.018142 0.007141
v 0.078301 -0.018720 0.004681
v 0.076159 -0.018736 0.004708
v 0.076159 -0.018196 0.007141
v 0.075372 -0.018672 0.010169
v 0.078301 -0.018710 0.010186
v 0.080453 -0.018915 0.010305
v 0.080453 -0.018381 0.007141
v 0.080453 -0.018845 0.005011
v 0.078301 -0.019905 0.002845
v 0.001001 -0.022952 0.001571
v 0.003143 -0.022578 0.002175
v 0.003143 -0.021817 0.004992
v 0.003143 -0.022100 0.007141
v 0.076159 -0.020010 0.012250
v 0.001001 -0.022893 0.008564
v 0.003143 -0.023152 0.009334
v 0.078301 -0.020518 0.012944
v 0.080453 -0.020604 0.012874
v 0.082847 -0.021323 0.012813
v 0.084748 -0.020626 0.010144
v 0.082165 -0.018947 0.009016
v 0.082207 -0.019022 0.006330
v 0.080264 -0.020741 0.002170
v 0.083824 -0.020548 0.004195
v 0.078301 -0.021464 0.001349
v 0.072432 -0.020913 0.001714
v 0.068526 -0.020957 0.001759
v 0.002996 -0.024968 -0.000083
v -0.009741 -0.024378 0.000856
v -0.011893 -0.024502 0.000927
v -0.010455 -0.023070 0.003352
v -0.009541 -0.023229 0.005966
v 0.003143 -0.024616 0.010880
v 0.067570 -0.021462 0.013031
v -0.009741 -0.024789 0.008901
v 0.080380 -0.022779 0.014408
v 0.074007 -0.021335 0.013350
v 0.077450 -0.022590 0.014370
v 0.083236 -0.024560 0.014719
v 0.085010 -0.022570 0.012453
v 0.086512 -0.022134 0.009289
v 0.085903 -0.021367 0.007141
v 0.082606 -0.021897 0.001743
v 0.084632 -0.022146 0.002940
v 0.085871 -0.021927 0.004992
v 0.078301 -0.024197 0.000147
v 0.076159 -0.024197 0.000130
v 0.020331 -0.025205 -0.000414
v 0.080453 -0.024197 0.000228
v -0.010633 -0.026269 -0.000355
v -0.018413 -0.026307 0.002209
v -0.018413 -0.024382 0.003916
v -0.012177 -0.024649 0.007789
v -0.009741 -0.026201 0.010389
v -0.005446 -0.026434 0.011079
v 0.003143 -0.027077 0.012157
v 0.020426 -0.025474 0.012640
v 0.069712 -0.026344 0.015770
v 0.080453 -0.026344 0.015600
v 0.082606 -0.026344 0.015387
v 0.069712 -0.024028 0.014744
v 0.084758 -0.026344 0.014632
v 0.085525 -0.024380 0.013304
v 0.086942 -0.024197 0.011444
v 0.087824 -0.024490 0.009579
v 0.087814 -0.024494 0.006274
v 0.083351 -0.023849 0.001044
v 0.085777 -0.023875 0.002867
v 0.088013 -0.026671 0.004259
v 0.078301 -0.026344 -0.000183
v 0.070552 -0.026731 -0.000404
v 0.043935 -0.026344 -0.000661
v 0.050382 -0.025301 -0.000372
v 0.080453 -0.026344 -0.000120
v 0.026778 -0.026344 -0.000742
v 0.003143 -0.028488 -0.001213
v 0.082606 -0.026344 0.000171
v -0.010518 -0.028488 -0.000795
v -0.010486 -0.030637 -0.000826
v -0.018413 -0.030601 0.002603
v -0.018413 -0.026396 0.006048
v -0.010528 -0.028115 0.011091
v -0.003304 -0.028488 0.012146
v -0.005446 -0.028488 0.011934
v 0.020331 -0.028488 0.013945
v 0.069712 -0.028488 0.016110
v 0.080453 -0.028488 0.015902
v 0.082606 -0.028488 0.015679
v 0.085031 -0.028488 0.014775
v 0.086585 -0.026344 0.013281
v 0.087908 -0.026344 0.011332
v 0.088538 -0.026344 0.009289
v 0.088612 -0.026344 0.007141
v 0.086291 -0.026366 0.002195
v 0.085409 -0.028488 0.001204
v 0.088843 -0.028488 0.007141
v 0.088213 -0.028778 0.004424
v 0.087142 -0.028488 0.002751
v 0.070122 -0.029282 -0.000566
v 0.041782 -0.028488 -0.001011
v 0.041782 -0.026344 -0.000678
v 0.046087 -0.025791 -0.000518
v 0.039640 -0.028488 -0.001035
v 0.033214 -0.028488 -0.001098
v 0.020331 -0.028488 -0.001208
v 0.080453 -0.028488 -0.000190
v 0.082606 -0.028488 0.000075
v 0.033214 -0.026344 -0.000715
v 0.005295 -0.030637 -0.001234
v 0.003143 -0.030637 -0.001224
v 0.020331 -0.030637 -0.001259
v -0.010413 -0.032708 -0.000506
v -0.018413 -0.032750 0.002899
v 0.003143 -0.032786 -0.000929
v -0.018413 -0.032820 0.007670
v -0.012208 -0.031931 0.010669
v -0.009741 -0.030637 0.011699
v -0.000658 -0.029302 0.012616
v 0.020331 -0.030637 0.014098
v 0.069712 -0.030637 0.015819
v 0.078301 -0.030637 0.015941
v 0.080453 -0.030637 0.015938
v 0.082606 -0.030637 0.015618
v 0.084611 -0.031589 0.014540
v 0.086491 -0.030637 0.013258
v 0.086680 -0.028488 0.013418
v 0.088003 -0.028488 0.011548
v 0.088738 -0.028488 0.009289
v 0.086260 -0.030507 0.002241
v 0.083540 -0.033113 0.001354
v 0.082606 -0.030637 0.000291
v 0.088496 -0.030637 0.007141
v 0.087845 -0.031517 0.005091
v 0.080453 -0.030637 -0.000028
v 0.078301 -0.030637 -0.000113
v 0.062803 -0.032163 -0.000268
v 0.048229 -0.032382 -0.000561
v 0.041782 -0.030637 -0.000980
v 0.039640 -0.030637 -0.001014
v 0.037488 -0.030637 -0.001043
v 0.033214 -0.030637 -0.001098
v 0.020331 -0.032786 -0.000839
v 0.037488 -0.032786 -0.000685
v 0.031062 -0.032786 -0.000758
v 0.003143 -0.034700 -0.000202
v -0.009741 -0.034933 0.000558
v -0.012250 -0.035664 0.001490
v -0.018413 -0.035511 0.003943
v 0.026778 -0.034009 -0.000455
v -0.018413 -0.035581 0.006874
v -0.009741 -0.032786 0.011342
v -0.002475 -0.031555 0.012546
v 0.002597 -0.034429 0.012242
v 0.020331 -0.032786 0.013607
v 0.042843 -0.031716 0.014659
v 0.076159 -0.032786 0.015518
v 0.078301 -0.032786 0.015589
v 0.080453 -0.032786 0.015481
v 0.082438 -0.033629 0.014773
v 0.084748 -0.034362 0.012973
v 0.086396 -0.033286 0.011742
v 0.087866 -0.030442 0.011096
v 0.087961 -0.031740 0.009396
v 0.085798 -0.032786 0.002811
v 0.082606 -0.035829 0.002961
v 0.080453 -0.035154 0.001665
v 0.080453 -0.032786 0.000461
v 0.087824 -0.032529 0.007141
v 0.086491 -0.034702 0.007141
v 0.085325 -0.034740 0.004134
v 0.078301 -0.032786 0.000293
v 0.041782 -0.033224 -0.000493
v 0.076159 -0.032786 0.000233
v 0.071854 -0.032786 0.000121
v 0.005295 -0.036555 0.001220
v 0.003143 -0.036537 0.001206
v 0.024626 -0.034567 -0.000129
v 0.022473 -0.035796 0.000723
v -0.009741 -0.036877 0.002845
v -0.011893 -0.037142 0.004992
v 0.039136 -0.034298 -0.000103
v 0.031062 -0.035025 0.000247
v -0.012471 -0.036096 0.008330
v -0.010476 -0.034471 0.010358
v 0.003143 -0.036596 0.010892
v 0.005295 -0.035049 0.012022
v 0.020331 -0.034575 0.012883
v 0.063265 -0.033969 0.014712
v 0.069712 -0.032786 0.015300
v 0.067570 -0.034128 0.014797
v 0.069712 -0.034192 0.014836
v 0.076159 -0.034360 0.014928
v 0.078301 -0.034921 0.014605
v 0.080453 -0.034764 0.014477
v 0.082679 -0.035600 0.013005
v 0.084527 -0.035863 0.011303
v 0.086396 -0.034672 0.009289
v 0.082606 -0.037172 0.004992
v 0.080453 -0.036680 0.003114
v 0.078301 -0.035347 0.001526
v 0.085042 -0.036136 0.009289
v 0.085052 -0.036192 0.007141
v 0.076159 -0.035423 0.001473
v 0.069712 -0.035525 0.001303
v 0.005295 -0.037925 0.003234
v 0.039640 -0.036409 0.001376
v 0.035346 -0.037493 0.002716
v 0.033214 -0.037871 0.003241
v -0.009741 -0.037363 0.004992
v 0.002754 -0.038096 0.003996
v 0.002765 -0.038150 0.008216
v 0.041782 -0.035664 0.000869
v -0.009741 -0.036310 0.008685
v 0.005295 -0.036632 0.010948
v 0.035346 -0.036057 0.012553
v 0.022473 -0.035708 0.012313
v 0.018168 -0.035049 0.012534
v 0.074007 -0.034865 0.014574
v 0.076159 -0.035435 0.014258
v 0.078301 -0.036600 0.013185
v 0.080453 -0.036865 0.012223
v 0.080747 -0.038078 0.009010
v 0.081745 -0.038003 0.006871
v 0.080338 -0.038070 0.005353
v 0.078301 -0.038138 0.004984
v 0.078301 -0.036829 0.002944
v 0.072642 -0.036057 0.001728
v 0.035346 -0.038228 0.003790
v 0.007437 -0.038339 0.004377
v 0.069712 -0.037560 0.003542
v 0.051600 -0.038160 0.003913
v 0.005295 -0.038411 0.004992
v 0.007437 -0.038449 0.007141
v 0.054676 -0.038415 0.009134
v 0.035346 -0.038013 0.009977
v 0.041782 -0.036676 0.012055
v 0.065418 -0.036503 0.013029
v 0.071854 -0.036572 0.013141
v 0.074007 -0.036586 0.013180
v 0.074007 -0.037628 0.011436
v 0.077797 -0.038140 0.009980
v 0.078301 -0.038584 0.007141
v 0.076159 -0.037419 0.003647
v 0.069712 -0.038381 0.005314
v 0.061123 -0.038106 0.004081
v 0.035346 -0.038461 0.004992
v 0.061123 -0.038393 0.005154
v 0.058971 -0.038397 0.005127
v 0.054676 -0.038658 0.007141
v 0.035346 -0.038499 0.008020
v 0.058971 -0.038652 0.007141
v 0.061123 -0.038648 0.007141
v 0.076159 -0.038594 0.007141
v 0.071854 -0.037604 0.011436
f 1 2 3
f 1 3 4
f 1 4 5
f 1 5 6
f 1 6 7
f 1 7 8
f 1 8 9
f 1 9 2
f 2 10 3
f 2 9 10
f 3 10 11
f 3 11 12
f 3 12 13
f 3 13 4
f 4 13 14
f 4 14 5
f 5 15 6
f 5 14 16
f 5 16 17
f 5 17 15
f 6 15 18
f 6 18 7
f 7 18 19
f 7 19 20
f 7 20 21
f 7 21 22
f 7 22 8
f 8 22 23
f 8 23 9
f 9 24 10
f 9 23 25
f 9 25 24
f 10 24 26
f 10 26 27
f 10 27 28
f 10 28 11
f 11 28 29
f 11 29 30
f 11 30 31
f 11 31 32
f 11 32 12
f 12 32 13
f 13 32 33
f 13 33 14
f 14 33 16
f 15 17 34
f 15 34 35
f 15 35 18
f 16 33 36
f 16 36 17
f 17 36 34
f 18 37 19
f 18 35 38
f 18 38 39
f 18 39 37
f 19 37 20
f 20 40 41
f 20 41 21
f 20 37 40
f 21 41 42
f 21 42 43
f 21 43 22
f 22 43 23
f 23 43 25
f 24 25 44
f 24 44 26
f 25 45 44
f 25 43 46
f 25 46 45
f 26 47 48
f 26 48 49
f 26 49 27
f 26 44 50
f 26 50 47
f 27 49 29
f 27 29 28
f 29 51 30
f 29 49 51
f 30 51 31
f 31 51 52
f 31 52 53
f 31 53 32
f 32 53 33
f 33 53 54
f 33 54 36
f 34 36 55
f 34 55 56
f 34 56 57
f 34 57 58
f 34 58 35
f 35 58 39
f 35 39 38
f 36 54 55
f 37 39 59
f 37 59 60
f 37 60 61
f 37 61 40
f 39 58 62
f 39 62 59
f 40 63 64
f 40 64 41
f 40 61 63
f 41 64 65
f 41 65 42
f 42 65 66
f 42 66 67
f 42 67 43
f 43 67 46
f 44 45 68
f 44 68 50
f 45 46 69
f 45 69 68
f 46 67 70
f 46 70 69
f 47 71 72
f 47 72 73
f 47 73 74
f 47 74 48
f 47 50 75
f 47 75 71
f 48 74 49
f 49 74 76
f 49 76 77
f 49 77 51
f 50 68 78
f 50 78 75
f 51 77 79
f 51 79 52
f 52 79 80
f 52 80 81
f 52 81 114
f 52 114 149
f 52 149 151
f 52 151 116
f 52 116 82
f 52 82 53
f 53 82 54
f 54 82 55
f 55 82 83
f 55 83 56
f 56 84 57
f 56 83 85
f 56 85 84
f 57 84 86
f 57 86 58
f 58 86 59
f 58 59 62
f 59 86 87
f 59 87 60
f 60 87 88
f 60 88 61
f 61 89 63
f 61 88 89
f 63 89 90
f 63 90 91
f 63 91 64
f 64 91 65
f 65 91 92
f 65 92 66
f 66 92 93
f 66 93 94
f 66 94 67
f 67 94 70
f 68 69 95
f 68 95 96
f 68 96 78
f 69 70 95
f 70 94 97
f 70 97 98
f 70 98 99
f 70 99 95
f 71 75 100
f 71 100 72
f 72 100 101
f 72 101 73
f 73 102 103
f 73 103 74
f 73 101 104
f 73 104 105
f 73 105 106
f 73 106 102
f 74 103 76
f 75 107 100
f 75 78 108
f 75 108 107
f 76 106 77
f 76 103 109
f 76 109 106
f 77 110 111
f 77 111 80
f 77 80 79
f 77 106 112
f 77 112 110
f 78 96 108
f 80 113 114
f 80 114 81
f 80 111 115
f 80 115 113
f 82 116 83
f 83 116 117
f 83 117 118
f 83 118 85
f 84 119 86
f 84 85 119
f 85 118 119
f 86 119 120
f 86 120 87
f 87 120 121
f 87 121 122
f 87 122 123
f 87 123 88
f 88 123 89
f 89 124 90
f 89 123 124
f 90 124 125
f 90 125 126
f 90 126 127
f 90 127 91
f 91 127 128
f 91 128 92
f 92 128 129
f 92 129 93
f 93 129 97
f 93 97 94
f 95 99 96
f 96 99 130
f 96 130 131
f 96 131 132
f 96 132 108
f 97 129 133
f 97 133 98
f 98 133 134
f 98 134 130
f 98 130 99
f 100 107 135
f 100 135 136
f 100 136 137
f 100 137 138
f 100 138 139
f 100 139 140
f 100 140 101
f 101 140 141
f 101 141 142
f 101 142 112
f 101 112 104
f 102 106 109
f 102 109 103
f 104 112 105
f 105 112 106
f 107 108 135
f 108 132 135
f 110 115 111
f 110 112 115
f 112 143 115
f 112 142 144
f 112 144 145
f 112 145 143
f 113 115 146
f 113 146 147
f 113 147 148
f 113 148 149
f 113 149 114
f 115 143 150
f 115 150 146
f 116 151 117
f 117 151 152
f 117 152 118
f 118 152 153
f 118 153 119
f 119 153 120
f 120 153 154
f 120 154 155
f 120 155 156
f 120 156 121
f 121 156 157
f 121 157 158
f 121 158 122
f 122 158 123
f 123 158 159
f 123 159 124
f 124 160 125
f 124 159 160
f 125 161 126
f 125 160 161
f 126 162 163
f 126 163 128
f 126 128 127
f 126 161 162
f 128 163 129
f 129 163 164
f 129 164 133
f 130 165 131
f 130 134 165
f 131 166 167
f 131 167 168
f 131 168 132
f 131 165 166
f 132 168 135
f 133 164 169
f 133 169 134
f 134 169 170
f 134 170 171
f 134 171 165
f 135 168 172
f 135 172 136
f 136 172 137
f 137 173 138
f 137 172 174
f 137 174 175
f 137 175 173
f 138 173 144
f 138 144 139
f 139 144 140
f 140 144 141
f 141 144 142
f 143 145 150
f 144 150 145
f 144 173 150
f 146 176 177
f 146 177 147
f 146 150 178
f 146 178 179
f 146 179 176
f 147 177 148
f 148 177 180
f 148 180 149
f 149 180 181
f 149 181 151
f 150 173 182
f 150 182 183
f 150 183 178
f 151 181 184
f 151 184 185
f 151 185 152
f 152 185 154
f 152 154 153
f 154 185 186
f 154 186 187
f 154 187 188
f 154 188 155
f 155 189 190
f 155 190 156
f 155 188 189
f 156 190 157
f 157 190 189
f 157 189 158
f 158 189 191
f 158 191 192
f 158 192 193
f 158 193 194
f 158 194 159
f 159 194 195
f 159 195 160
f 160 196 161
f 160 195 196
f 161 196 197
f 161 197 162
f 162 198 164
f 162 164 163
f 162 197 198
f 164 198 169
f 165 171 166
f 166 171 199
f 166 199 200
f 166 200 167
f 167 200 201
f 167 201 168
f 168 201 172
f 169 198 170
f 170 198 202
f 170 202 203
f 170 203 171
f 171 203 199
f 172 201 204
f 172 204 205
f 172 205 174
f 173 175 174
f 173 174 182
f 174 205 182
f 176 206 177
f 176 179 207
f 176 207 208
f 176 208 209
f 176 209 206
f 177 206 180
f 178 183 179
f 179 183 207
f 180 210 181
f 180 206 211
f 180 211 210
f 181 210 212
f 181 212 184
f 182 205 213
f 182 213 183
f 183 213 207
f 184 212 214
f 184 214 185
f 185 214 186
f 186 214 212
f 186 212 215
f 186 215 216
f 186 216 217
f 186 217 187
f 187 218 188
f 187 217 218
f 188 218 217
f 188 217 192
f 188 192 191
f 188 191 189
f 192 217 216
f 192 216 219
f 192 219 193
f 193 219 220
f 193 220 194
f 194 220 221
f 194 221 195
f 195 221 196
f 196 221 222
f 196 222 197
f 197 202 198
f 197 222 223
f 197 223 202
f 199 224 225
f 199 225 200
f 199 203 224
f 200 225 226
f 200 226 227
f 200 227 201
f 201 227 228
f 201 228 204
f 202 223 224
f 202 224 203
f 204 228 205
f 205 228 213
f 206 209 229
f 206 229 230
f 206 230 211
f 207 231 232
f 207 232 208
f 207 213 228
f 207 228 231
f 208 232 229
f 208 229 209
f 210 233 212
f 210 211 233
f 211 230 233
f 212 233 234
f 212 234 235
f 212 235 236
f 212 236 215
f 215 236 237
f 215 237 238
f 215 238 216
f 216 238 220
f 216 220 219
f 220 238 239
f 220 239 240
f 220 240 221
f 221 240 241
f 221 241 242
f 221 242 222
f 222 242 223
f 223 242 243
f 223 243 224
f 224 243 225
f 225 243 226
f 226 244 227
f 226 243 245
f 226 245 246
f 226 246 231
f 226 231 244
f 227 244 231
f 227 231 228
f 229 247 230
f 229 232 245
f 229 245 248
f 229 248 249
f 229 249 247
f 230 247 233
f 231 246 232
f 232 246 245
f 233 247 250
f 233 250 234
f 234 250 251
f 234 251 235
f 235 251 250
f 235 250 252
f 235 252 253
f 235 253 254
f 235 254 243
f 235 243 242
f 235 242 241
f 235 241 236
f 236 241 255
f 236 255 240
f 236 240 239
f 236 239 237
f 237 239 238
f 240 255 241
f 243 254 245
f 245 254 248
f 247 249 253
f 247 253 252
f 247 252 250
f 248 254 253
f 248 253 249
