v 0.074174 -0.050723 -0.014545
v 0.074174 -0.050723 -0.014967
v 0.074116 -0.050723 -0.013643
v 0.075560 -0.055065 -0.020188
v 0.075560 -0.055065 -0.020517
v 0.073190 -0.050723 -0.015315
v 0.076856 -0.089116 -0.011464
v 0.072414 -0.050723 -0.013132
v 0.071804 -0.097657 -0.000450
v 0.076856 -0.085505 -0.017906
v 0.076856 -0.084592 -0.019717
v 0.076856 -0.084237 -0.021135
v 0.075801 -0.068464 -0.022747
v 0.075705 -0.067059 -0.022635
v 0.074453 -0.068464 -0.023408
v 0.068946 -0.057245 -0.022472
v 0.074453 -0.054948 -0.020659
v 0.076856 -0.084237 -0.021199
v 0.076856 -0.085383 -0.022592
v 0.072414 -0.050723 -0.015478
v 0.076856 -0.091043 -0.011346
v 0.035028 -0.050723 -0.008457
v 0.070370 -0.097449 -0.000450
v 0.071734 -0.099249 -0.000450
v 0.074453 -0.070508 -0.023507
v 0.071451 -0.079465 -0.024569
v 0.064237 -0.068464 -0.025309
v 0.064237 -0.066430 -0.025117
v 0.065403 -0.064746 -0.024673
v 0.064237 -0.064549 -0.024745
v 0.024400 -0.061318 -0.026564
v 0.063520 -0.054917 -0.020626
v 0.066281 -0.053036 -0.018623
v 0.076856 -0.085967 -0.022565
v 0.071451 -0.079779 -0.024569
v 0.041771 -0.050723 -0.015296
v 0.076856 -0.092945 -0.012146
v 0.033856 -0.050723 -0.008457
v 0.047899 -0.097368 -0.000450
v 0.071520 -0.099838 -0.000450
v 0.076856 -0.094492 -0.013699
v 0.076856 -0.094284 -0.013475
v 0.062192 -0.074596 -0.025548
v 0.064237 -0.070508 -0.025326
v 0.060154 -0.074596 -0.025716
v 0.056065 -0.074596 -0.025978
v 0.025422 -0.070513 -0.027773
v 0.025422 -0.068469 -0.027567
v 0.024106 -0.068469 -0.027107
v 0.022185 -0.068383 -0.024887
v 0.022185 -0.066430 -0.024151
v 0.022185 -0.059056 -0.020736
v 0.022185 -0.050723 -0.014831
v 0.023378 -0.050723 -0.014948
v 0.025422 -0.050723 -0.015007
v 0.062192 -0.053939 -0.019533
v 0.035633 -0.050723 -0.015253
v 0.070370 -0.079870 -0.024614
v 0.076856 -0.086951 -0.021779
v 0.059147 -0.102186 -0.012271
v 0.024737 -0.085941 -0.024665
v 0.024609 -0.081823 -0.026615
v 0.060154 -0.076635 -0.025628
v 0.022185 -0.050723 -0.013544
v 0.041241 -0.097530 -0.000450
v 0.041766 -0.097490 -0.000450
v 0.043810 -0.097373 -0.000450
v 0.045854 -0.097368 -0.000450
v 0.071178 -0.100071 -0.000450
v 0.069535 -0.102318 -0.003943
v 0.069733 -0.102495 -0.005112
v 0.076856 -0.094492 -0.014735
v 0.069743 -0.102536 -0.007155
v 0.051982 -0.074596 -0.026184
v 0.025422 -0.072557 -0.027628
v 0.024010 -0.078673 -0.027035
v 0.024133 -0.072557 -0.027224
v 0.024127 -0.070513 -0.027251
v 0.022185 -0.070614 -0.025101
v 0.025000 -0.080717 -0.026823
v 0.076856 -0.088229 -0.020736
v 0.024481 -0.102216 -0.012311
v 0.076856 -0.090633 -0.018701
v 0.076856 -0.092682 -0.016962
v 0.076856 -0.093701 -0.016032
v 0.069551 -0.102369 -0.008586
v 0.024277 -0.085941 -0.024665
v 0.024352 -0.081823 -0.026615
v 0.025342 -0.078673 -0.027035
v 0.022185 -0.050941 -0.013555
v 0.024325 -0.101151 -0.012140
v 0.041241 -0.099488 -0.000450
v 0.062198 -0.102090 -0.000450
v 0.068946 -0.102495 -0.005112
v 0.076856 -0.094477 -0.015010
v 0.068759 -0.102536 -0.007155
v 0.024165 -0.080717 -0.026823
v 0.022185 -0.080596 -0.023181
v 0.022185 -0.071933 -0.024911
v 0.024357 -0.102216 -0.012311
v 0.076856 -0.093853 -0.015855
v 0.022185 -0.080717 -0.020110
v 0.024357 -0.102216 -0.012162
v 0.022185 -0.081245 -0.022191
v 0.022185 -0.081676 -0.020659
v 0.022185 -0.081620 -0.021359
v 0.022185 -0.081402 -0.020303
f 1 2 6
f 1 6 20
f 1 20 36
f 1 36 57
f 1 57 55
f 1 55 54
f 1 54 53
f 1 53 64
f 1 64 38
f 1 38 22
f 1 22 8
f 1 8 3
f 1 3 4
f 1 4 5
f 1 5 2
f 2 5 6
f 3 7 4
f 3 8 9
f 3 9 7
f 4 7 10
f 4 10 11
f 4 11 12
f 4 12 18
f 4 18 5
f 5 13 14
f 5 14 15
f 5 15 16
f 5 16 17
f 5 17 6
f 5 18 19
f 5 19 13
f 6 17 20
f 7 9 21
f 7 21 37
f 7 37 42
f 7 42 41
f 7 41 72
f 7 72 95
f 7 95 101
f 7 101 85
f 7 85 84
f 7 84 83
f 7 83 81
f 7 81 59
f 7 59 34
f 7 34 19
f 7 19 18
f 7 18 12
f 7 12 11
f 7 11 10
f 8 22 9
f 9 22 23
f 9 23 39
f 9 39 68
f 9 68 67
f 9 67 66
f 9 66 65
f 9 65 92
f 9 92 93
f 9 93 69
f 9 69 40
f 9 40 24
f 9 24 21
f 13 25 15
f 13 15 14
f 13 19 25
f 15 25 26
f 15 26 27
f 15 27 28
f 15 28 29
f 15 29 16
f 16 29 30
f 16 30 31
f 16 31 17
f 17 31 32
f 17 32 33
f 17 33 20
f 19 34 35
f 19 35 25
f 20 33 36
f 21 24 37
f 22 38 68
f 22 68 39
f 22 39 23
f 24 40 41
f 24 41 42
f 24 42 37
f 25 35 26
f 26 35 43
f 26 43 44
f 26 44 27
f 27 44 43
f 27 43 45
f 27 45 46
f 27 46 47
f 27 47 28
f 28 30 29
f 28 47 48
f 28 48 31
f 28 31 30
f 31 48 47
f 31 47 49
f 31 49 50
f 31 50 51
f 31 51 52
f 31 52 53
f 31 53 54
f 31 54 55
f 31 55 56
f 31 56 32
f 32 56 33
f 33 56 55
f 33 55 57
f 33 57 36
f 34 58 35
f 34 59 60
f 34 60 61
f 34 61 62
f 34 62 58
f 35 58 63
f 35 63 45
f 35 45 43
f 38 64 65
f 38 65 66
f 38 66 67
f 38 67 68
f 40 69 70
f 40 70 71
f 40 71 41
f 41 71 73
f 41 73 72
f 45 63 46
f 46 63 74
f 46 74 47
f 47 74 75
f 47 75 76
f 47 76 77
f 47 77 78
f 47 78 49
f 49 78 79
f 49 79 50
f 50 79 99
f 50 99 98
f 50 98 104
f 50 104 106
f 50 106 105
f 50 105 107
f 50 107 102
f 50 102 90
f 50 90 64
f 50 64 53
f 50 53 52
f 50 52 51
f 58 62 80
f 58 80 63
f 59 81 60
f 60 82 61
f 60 81 83
f 60 83 84
f 60 84 85
f 60 85 86
f 60 86 73
f 60 73 82
f 61 82 100
f 61 100 87
f 61 87 88
f 61 88 62
f 62 88 97
f 62 97 80
f 63 80 89
f 63 89 75
f 63 75 74
f 64 90 91
f 64 91 92
f 64 92 65
f 69 93 70
f 70 93 71
f 71 93 94
f 71 94 96
f 71 96 73
f 72 73 95
f 73 96 100
f 73 100 82
f 73 86 95
f 75 89 76
f 76 78 77
f 76 89 80
f 76 80 97
f 76 97 98
f 76 98 99
f 76 99 79
f 76 79 78
f 85 101 86
f 86 101 95
f 87 100 98
f 87 98 97
f 87 97 88
f 90 102 103
f 90 103 91
f 91 103 92
f 92 103 93
f 93 103 94
f 94 103 96
f 96 103 100
f 98 100 104
f 100 103 105
f 100 105 106
f 100 106 104
f 102 107 103
f 103 107 105
