v -0.058383 -0.072548 0.019321
v -0.056139 -0.072361 0.018764
v -0.058383 -0.070510 0.019073
v -0.059946 -0.068991 0.018598
v -0.060925 -0.070185 0.018560
v -0.060557 -0.072514 0.018869
v -0.058383 -0.074590 0.019031
v -0.056338 -0.074590 0.019020
v -0.054290 -0.074777 0.018587
v -0.056627 -0.070510 0.018613
v -0.054967 -0.072907 0.018496
v -0.057052 -0.068926 0.018485
v -0.056338 -0.064380 0.017148
v -0.058383 -0.068182 0.018429
v -0.057888 -0.063075 0.016466
v -0.058492 -0.064224 0.016831
v -0.057915 -0.058739 0.014529
v -0.059249 -0.063438 0.016281
v -0.063730 -0.067270 0.016458
v -0.064135 -0.068468 0.016752
v -0.056338 -0.062789 0.016582
v -0.062323 -0.070521 0.017992
v -0.061546 -0.071514 0.018462
v -0.072434 -0.074590 0.012845
v -0.072420 -0.076636 0.012679
v -0.072125 -0.078105 0.012483
v -0.063544 -0.077700 0.016364
v -0.059847 -0.074590 0.018643
v -0.058911 -0.075823 0.018481
v -0.055664 -0.077876 0.018489
v -0.056341 -0.076712 0.018704
v -0.053726 -0.077933 0.018519
v -0.054293 -0.076636 0.018707
v -0.053225 -0.076109 0.018432
v -0.054293 -0.064380 0.016876
v -0.053766 -0.063003 0.016447
v -0.056338 -0.058667 0.014669
v -0.058014 -0.056885 0.012830
v -0.058645 -0.057995 0.013520
v -0.072161 -0.062980 0.010524
v -0.071952 -0.065197 0.012382
v -0.072294 -0.066426 0.012585
v -0.054293 -0.061831 0.016074
v -0.072430 -0.068468 0.012766
v -0.072268 -0.070510 0.013007
v -0.072274 -0.072548 0.013064
v -0.086365 -0.072548 0.004549
v -0.086239 -0.074105 0.004380
v -0.071713 -0.081769 0.010242
v -0.058383 -0.085402 0.013994
v -0.064085 -0.080246 0.014672
v -0.058383 -0.084379 0.014616
v -0.057258 -0.081696 0.016285
v -0.056481 -0.080899 0.016861
v -0.055478 -0.081910 0.016469
v -0.053699 -0.081429 0.016040
v -0.053069 -0.080067 0.016684
v -0.052976 -0.070510 0.016797
v -0.052962 -0.068468 0.016722
v -0.053025 -0.066426 0.016609
v -0.053148 -0.064380 0.016469
v -0.053125 -0.060987 0.014759
v -0.054924 -0.058999 0.014559
v -0.056743 -0.056885 0.012830
v -0.058383 -0.054930 0.008784
v -0.058383 -0.055434 0.009805
v -0.059784 -0.055083 0.008418
v -0.061145 -0.055304 0.008004
v -0.071763 -0.059232 0.006211
v -0.072165 -0.061018 0.008543
v -0.086112 -0.067323 0.002251
v -0.086023 -0.069392 0.004131
v -0.086205 -0.070510 0.004365
v -0.054264 -0.060300 0.015057
v -0.086574 -0.070510 0.003065
v -0.086746 -0.072548 0.003065
v -0.086517 -0.074708 0.003193
v -0.086282 -0.075987 0.002598
v -0.072188 -0.084063 0.006697
v -0.059747 -0.086028 0.012555
v -0.058383 -0.086315 0.012977
v -0.056338 -0.085471 0.013972
v -0.056338 -0.084452 0.014729
v -0.054977 -0.084013 0.014514
v -0.054894 -0.086108 0.012517
v -0.053613 -0.083517 0.014036
v -0.053533 -0.085605 0.012031
v -0.053464 -0.087696 0.010031
v -0.053062 -0.082154 0.014680
v -0.053059 -0.084242 0.012672
v -0.053042 -0.088440 0.007149
v -0.052956 -0.080719 -0.016262
v -0.052952 -0.078677 -0.016368
v -0.052952 -0.076636 -0.015961
v -0.052952 -0.068468 -0.015957
v -0.052952 -0.066426 -0.016360
v -0.052969 -0.064380 -0.016191
v -0.053072 -0.054724 -0.006716
v -0.053132 -0.052988 -0.004210
v -0.055120 -0.054881 0.006810
v -0.055319 -0.055186 0.008170
v -0.054536 -0.058610 0.013282
v -0.055382 -0.057301 0.012178
v -0.056680 -0.054946 0.008742
v -0.057218 -0.053095 0.004187
v -0.058383 -0.054301 0.007149
v -0.060447 -0.054743 0.007250
v -0.061788 -0.054938 0.006636
v -0.072131 -0.059049 0.005107
v -0.086282 -0.067167 0.001019
v -0.086750 -0.068468 0.001019
v -0.086278 -0.068613 0.002986
v -0.086863 -0.072548 -0.003065
v -0.086660 -0.074590 0.001019
v -0.086381 -0.076113 0.001019
v -0.071873 -0.085906 0.002356
v -0.063949 -0.088055 0.004564
v -0.058267 -0.087314 0.011120
v -0.057510 -0.087925 0.010359
v -0.056338 -0.088070 0.010543
v -0.056338 -0.087398 0.011564
v -0.056338 -0.086376 0.012951
v -0.054825 -0.088085 0.010509
v -0.053065 -0.086334 0.010668
v -0.054204 -0.088517 0.009289
v -0.053075 -0.088307 0.008667
v -0.053819 -0.089383 0.005107
v -0.053659 -0.089383 0.003065
v -0.053075 -0.088360 -0.007153
v -0.053062 -0.088269 -0.009195
v -0.053069 -0.082082 -0.016620
v -0.052952 -0.074590 -0.016771
v -0.053079 -0.084082 -0.014627
v -0.053085 -0.063083 -0.016590
v -0.053122 -0.061113 -0.014533
v -0.053175 -0.059148 -0.012401
v -0.053364 -0.055297 -0.008079
v -0.053802 -0.053362 -0.005842
v -0.055127 -0.053076 -0.005653
v -0.054293 -0.052988 -0.003935
v -0.064059 -0.054950 0.001019
v -0.063886 -0.055003 0.002571
v -0.072460 -0.058843 0.003065
v -0.086288 -0.067163 -0.001019
v -0.072450 -0.058804 0.001019
v -0.086746 -0.068468 -0.001019
v -0.086640 -0.074590 -0.001019
v -0.086617 -0.070510 -0.003065
v -0.086444 -0.072548 -0.004598
v -0.086521 -0.074704 -0.003178
v -0.086361 -0.076097 -0.001019
v -0.071962 -0.085933 0.001019
v -0.059389 -0.091978 -0.002033
v -0.058446 -0.090341 0.003151
v -0.057809 -0.090051 0.004447
v -0.055312 -0.089967 0.006263
v -0.056338 -0.088624 0.009194
v -0.054373 -0.089402 0.007024
v -0.054838 -0.090097 0.005107
v -0.054682 -0.090207 0.003065
v -0.053719 -0.089383 -0.005107
v -0.054742 -0.090181 -0.005107
v -0.054937 -0.090089 -0.006618
v -0.053122 -0.088078 -0.010438
v -0.053098 -0.086082 -0.012533
v -0.057291 -0.079193 -0.018410
v -0.054293 -0.080719 -0.017314
v -0.054293 -0.078677 -0.017442
v -0.054293 -0.082193 -0.016752
v -0.054293 -0.066426 -0.017423
v -0.054293 -0.083212 -0.015735
v -0.054293 -0.064380 -0.017197
v -0.054293 -0.062877 -0.016654
v -0.054293 -0.061854 -0.015882
v -0.054293 -0.060758 -0.014861
v -0.054293 -0.059736 -0.013783
v -0.054293 -0.058831 -0.012766
v -0.053766 -0.057053 -0.010415
v -0.054728 -0.054896 -0.008505
v -0.057842 -0.055140 -0.010295
v -0.060520 -0.054774 -0.007220
v -0.061739 -0.055037 -0.006584
v -0.063906 -0.055053 -0.001019
v -0.059508 -0.055125 -0.010351
v -0.072440 -0.058846 -0.003065
v -0.072447 -0.058804 -0.001019
v -0.086119 -0.067315 -0.002244
v -0.072135 -0.059045 -0.005107
v -0.086242 -0.068666 -0.002982
v -0.086096 -0.069995 -0.004233
v -0.072434 -0.072548 -0.013019
v -0.072440 -0.074590 -0.012857
v -0.072390 -0.076636 -0.012672
v -0.086268 -0.074098 -0.004391
v -0.072284 -0.066426 -0.012578
v -0.072470 -0.068468 -0.012785
v -0.072447 -0.070510 -0.012973
v -0.086259 -0.075964 -0.002575
v -0.071849 -0.085891 -0.000514
v -0.056338 -0.089498 -0.007590
v -0.056338 -0.090101 -0.006569
v -0.056338 -0.090864 -0.003065
v -0.056338 -0.090879 -0.001019
v -0.072165 -0.084055 -0.006697
v -0.063644 -0.085898 -0.010310
v -0.054698 -0.090204 0.001019
v -0.054712 -0.090196 -0.001019
v -0.054293 -0.088750 -0.009195
v -0.054293 -0.087154 -0.011463
v -0.054293 -0.086131 -0.012589
v -0.054293 -0.084162 -0.014714
v -0.054293 -0.088074 -0.010442
v -0.060424 -0.078151 -0.018726
v -0.060424 -0.076636 -0.019167
v -0.058383 -0.076636 -0.018794
v -0.057098 -0.076636 -0.018459
v -0.058731 -0.079441 -0.018188
v -0.057105 -0.074590 -0.018459
v -0.056338 -0.081944 -0.016556
v -0.057138 -0.070510 -0.018448
v -0.057347 -0.069388 -0.018425
v -0.057112 -0.072548 -0.018455
v -0.055877 -0.083990 -0.014526
v -0.061636 -0.065247 -0.016432
v -0.055714 -0.062991 -0.016515
v -0.056338 -0.060453 -0.014880
v -0.058383 -0.057018 -0.012416
v -0.057125 -0.057114 -0.012382
v -0.055761 -0.057446 -0.012013
v -0.056531 -0.056301 -0.011131
v -0.058383 -0.055999 -0.011361
v -0.063684 -0.055140 -0.002319
v -0.059535 -0.057064 -0.012344
v -0.072151 -0.061026 -0.008539
v -0.071786 -0.059224 -0.006218
v -0.072185 -0.062987 -0.010528
v -0.071939 -0.065205 -0.012378
v -0.061984 -0.076636 -0.018828
v -0.072108 -0.078113 -0.012472
v -0.071763 -0.081788 -0.010261
v -0.062469 -0.068468 -0.017200
v -0.062469 -0.070510 -0.017758
v -0.061961 -0.074590 -0.018783
v -0.055435 -0.087937 -0.010291
v -0.055654 -0.085982 -0.012427
v -0.063584 -0.083822 -0.012295
v -0.061732 -0.077895 -0.018613
v -0.061901 -0.082044 -0.014605
v -0.060424 -0.074590 -0.019118
v -0.058383 -0.074590 -0.018790
v -0.060587 -0.072376 -0.018677
v -0.061377 -0.071575 -0.018380
v -0.062379 -0.066598 -0.016601
v -0.063983 -0.063018 -0.014533
v -0.061699 -0.072930 -0.018553
f 1 2 3
f 1 3 4
f 1 4 5
f 1 5 6
f 1 6 7
f 1 7 8
f 1 8 9
f 1 9 2
f 2 10 3
f 2 9 11
f 2 11 10
f 3 10 12
f 3 12 13
f 3 13 14
f 3 14 4
f 4 15 16
f 4 16 17
f 4 17 18
f 4 18 19
f 4 19 20
f 4 20 5
f 4 14 21
f 4 21 15
f 5 20 22
f 5 22 23
f 5 23 6
f 6 23 24
f 6 24 25
f 6 25 26
f 6 26 27
f 6 27 28
f 6 28 7
f 7 28 29
f 7 29 30
f 7 30 31
f 7 31 32
f 7 32 8
f 8 32 33
f 8 33 9
f 9 33 34
f 9 34 35
f 9 35 11
f 10 11 12
f 11 35 12
f 12 35 36
f 12 36 13
f 13 36 21
f 13 21 14
f 15 21 17
f 15 17 16
f 17 21 37
f 17 37 38
f 17 38 39
f 17 39 40
f 17 40 41
f 17 41 19
f 17 19 18
f 19 41 20
f 20 41 42
f 20 42 22
f 21 43 37
f 21 36 43
f 22 42 44
f 22 44 23
f 23 44 45
f 23 45 46
f 23 46 24
f 24 46 47
f 24 47 25
f 25 47 48
f 25 48 26
f 26 49 50
f 26 50 51
f 26 51 27
f 26 48 49
f 27 51 52
f 27 52 53
f 27 53 30
f 27 30 29
f 27 29 28
f 30 32 31
f 30 53 54
f 30 54 55
f 30 55 32
f 32 55 56
f 32 56 57
f 32 57 34
f 32 34 33
f 34 57 58
f 34 58 59
f 34 59 60
f 34 60 61
f 34 61 35
f 35 61 36
f 36 61 62
f 36 62 43
f 37 43 63
f 37 63 64
f 37 64 38
f 38 64 65
f 38 65 66
f 38 66 67
f 38 67 68
f 38 68 69
f 38 69 70
f 38 70 40
f 38 40 39
f 40 71 72
f 40 72 41
f 40 70 71
f 41 72 42
f 42 72 73
f 42 73 47
f 42 47 44
f 43 62 74
f 43 74 63
f 44 47 45
f 45 47 46
f 47 73 75
f 47 75 76
f 47 76 77
f 47 77 48
f 48 77 78
f 48 78 49
f 49 78 79
f 49 79 80
f 49 80 50
f 50 80 81
f 50 81 82
f 50 82 83
f 50 83 55
f 50 55 52
f 50 52 51
f 52 55 54
f 52 54 53
f 55 83 82
f 55 82 56
f 56 82 84
f 56 84 85
f 56 85 86
f 56 86 57
f 57 86 87
f 57 87 88
f 57 88 89
f 57 89 58
f 58 89 90
f 58 90 91
f 58 91 59
f 59 91 92
f 59 92 93
f 59 93 94
f 59 94 95
f 59 95 96
f 59 96 97
f 59 97 98
f 59 98 99
f 59 99 62
f 59 62 60
f 60 62 61
f 62 99 100
f 62 100 101
f 62 101 102
f 62 102 63
f 62 63 74
f 63 102 103
f 63 103 64
f 64 101 104
f 64 104 65
f 64 103 101
f 65 104 105
f 65 105 106
f 65 106 107
f 65 107 67
f 65 67 66
f 67 107 68
f 68 107 108
f 68 108 69
f 69 109 71
f 69 71 70
f 69 108 109
f 71 109 110
f 71 110 111
f 71 111 112
f 71 112 72
f 72 112 73
f 73 112 75
f 75 112 111
f 75 111 76
f 76 113 114
f 76 114 77
f 76 111 113
f 77 115 78
f 77 114 115
f 78 115 116
f 78 116 79
f 79 116 117
f 79 117 118
f 79 118 80
f 80 118 81
f 81 118 119
f 81 119 120
f 81 120 121
f 81 121 122
f 81 122 82
f 82 85 84
f 82 122 123
f 82 123 85
f 85 88 86
f 85 123 88
f 86 88 87
f 88 124 90
f 88 90 89
f 88 123 125
f 88 125 126
f 88 126 124
f 90 124 91
f 91 124 126
f 91 126 127
f 91 127 128
f 91 128 129
f 91 129 130
f 91 130 92
f 92 131 132
f 92 132 93
f 92 130 133
f 92 133 131
f 93 132 96
f 93 96 95
f 93 95 94
f 96 134 97
f 96 132 134
f 97 134 98
f 98 135 136
f 98 136 137
f 98 137 99
f 98 134 135
f 99 137 138
f 99 138 139
f 99 139 140
f 99 140 105
f 99 105 100
f 100 105 101
f 101 105 104
f 101 103 102
f 105 139 141
f 105 141 142
f 105 142 108
f 105 108 107
f 105 107 106
f 105 140 139
f 108 142 109
f 109 142 143
f 109 143 110
f 110 144 111
f 110 143 145
f 110 145 144
f 111 144 146
f 111 146 113
f 113 147 114
f 113 146 148
f 113 148 149
f 113 149 150
f 113 150 147
f 114 147 115
f 115 147 151
f 115 151 152
f 115 152 116
f 116 152 153
f 116 153 117
f 117 153 154
f 117 154 119
f 117 119 118
f 119 154 155
f 119 155 156
f 119 156 157
f 119 157 120
f 120 123 121
f 120 157 156
f 120 156 123
f 121 123 122
f 123 156 125
f 125 156 158
f 125 158 126
f 126 158 159
f 126 159 127
f 127 159 160
f 127 160 128
f 128 160 161
f 128 161 129
f 129 161 130
f 130 161 162
f 130 162 163
f 130 163 164
f 130 164 165
f 130 165 133
f 131 166 167
f 131 167 168
f 131 168 132
f 131 133 169
f 131 169 166
f 132 168 170
f 132 170 134
f 133 165 171
f 133 171 169
f 134 170 172
f 134 172 173
f 134 173 174
f 134 174 175
f 134 175 176
f 134 176 135
f 135 176 136
f 136 176 177
f 136 177 178
f 136 178 137
f 137 178 179
f 137 179 138
f 138 179 180
f 138 180 139
f 139 181 182
f 139 182 183
f 139 183 141
f 139 180 184
f 139 184 181
f 141 183 185
f 141 185 186
f 141 186 145
f 141 145 143
f 141 143 142
f 144 187 146
f 144 145 186
f 144 186 185
f 144 185 188
f 144 188 187
f 146 189 148
f 146 187 189
f 147 150 151
f 148 189 190
f 148 190 149
f 149 191 192
f 149 192 193
f 149 193 194
f 149 194 150
f 149 190 195
f 149 195 196
f 149 196 197
f 149 197 191
f 150 198 151
f 150 194 198
f 151 198 199
f 151 199 152
f 152 199 153
f 153 200 201
f 153 201 163
f 153 163 162
f 153 162 202
f 153 202 203
f 153 203 160
f 153 160 159
f 153 159 156
f 153 156 155
f 153 155 154
f 153 199 204
f 153 204 205
f 153 205 200
f 156 159 158
f 160 203 206
f 160 206 161
f 161 206 207
f 161 207 162
f 162 207 203
f 162 203 202
f 163 208 164
f 163 201 208
f 164 209 210
f 164 210 211
f 164 211 171
f 164 171 165
f 164 208 212
f 164 212 209
f 166 213 214
f 166 214 215
f 166 215 216
f 166 216 168
f 166 168 167
f 166 169 217
f 166 217 213
f 168 216 218
f 168 218 170
f 169 171 219
f 169 219 217
f 170 220 221
f 170 221 172
f 170 218 222
f 170 222 220
f 171 223 219
f 171 211 223
f 172 224 225
f 172 225 173
f 172 221 224
f 173 226 227
f 173 227 174
f 173 225 226
f 174 227 228
f 174 228 175
f 175 228 176
f 176 228 229
f 176 229 177
f 177 229 179
f 177 179 178
f 179 229 230
f 179 230 180
f 180 230 228
f 180 228 231
f 180 231 184
f 181 184 182
f 182 232 183
f 182 184 188
f 182 188 232
f 183 232 185
f 184 231 227
f 184 227 233
f 184 233 234
f 184 234 235
f 184 235 188
f 185 232 188
f 187 188 235
f 187 235 234
f 187 234 236
f 187 236 237
f 187 237 190
f 187 190 189
f 190 237 195
f 191 238 192
f 191 197 238
f 192 238 193
f 193 238 239
f 193 239 194
f 194 239 240
f 194 240 198
f 195 237 241
f 195 241 242
f 195 242 243
f 195 243 196
f 196 243 197
f 197 243 238
f 198 240 204
f 198 204 199
f 200 205 244
f 200 244 212
f 200 212 201
f 201 212 208
f 203 207 206
f 204 240 205
f 205 223 245
f 205 245 244
f 205 240 246
f 205 246 247
f 205 247 248
f 205 248 217
f 205 217 219
f 205 219 223
f 209 245 210
f 209 212 245
f 210 245 223
f 210 223 211
f 212 244 245
f 213 247 214
f 213 217 247
f 214 238 249
f 214 249 250
f 214 250 215
f 214 247 238
f 215 250 218
f 215 218 216
f 217 248 247
f 218 250 222
f 220 222 250
f 220 250 249
f 220 249 221
f 221 249 251
f 221 251 252
f 221 252 224
f 224 253 237
f 224 237 254
f 224 254 233
f 224 233 225
f 224 252 241
f 224 241 253
f 225 233 226
f 226 233 227
f 227 231 228
f 228 230 229
f 233 254 237
f 233 237 236
f 233 236 234
f 237 253 241
f 238 243 249
f 238 247 239
f 239 247 240
f 240 247 246
f 241 252 242
f 242 252 255
f 242 255 243
f 243 255 249
f 249 255 252
f 249 252 251
