v 0.078694 -0.098667 -0.001019
v 0.078936 -0.098545 -0.003065
v 0.080462 -0.098667 -0.001019
v 0.078691 -0.098639 -0.000447
v 0.077771 -0.097066 -0.001019
v 0.076856 -0.094475 -0.015008
v 0.079289 -0.098301 -0.004581
v 0.081476 -0.098174 -0.008359
v 0.081782 -0.098174 -0.008359
v 0.081890 -0.098254 -0.007153
v 0.080425 -0.098639 -0.000447
v 0.081834 -0.098244 -0.005107
v 0.081261 -0.097897 0.003063
v 0.078685 -0.098559 0.001022
v 0.076856 -0.094484 -0.013694
v 0.076856 -0.094484 -0.014735
v 0.077534 -0.093958 0.014217
v 0.077510 -0.094043 0.012851
v 0.076856 -0.093851 -0.015853
v 0.078551 -0.094419 -0.014838
v 0.076143 -0.076454 0.022078
v 0.082085 -0.096465 -0.010751
v 0.082361 -0.097118 -0.009101
v 0.082794 -0.097066 -0.007153
v 0.080330 -0.098559 0.001022
v 0.082699 -0.097066 -0.005107
v 0.082221 -0.096883 0.003063
v 0.082144 -0.096775 0.005109
v 0.081745 -0.096155 0.011238
v 0.081632 -0.096062 0.012284
v 0.080242 -0.098362 0.003063
v 0.078938 -0.098362 0.003063
v 0.076143 -0.076454 0.023284
v 0.078897 -0.094315 0.014666
v 0.078958 -0.092259 0.016593
v 0.079647 -0.085753 0.022402
v 0.077596 -0.091649 0.016099
v 0.079303 -0.098193 0.004408
v 0.078886 -0.096381 0.009197
v 0.079291 -0.096155 0.010532
v 0.076856 -0.093700 -0.016029
v 0.078551 -0.093541 -0.015859
v 0.079973 -0.094179 -0.014518
v 0.076143 -0.062042 0.019434
v 0.076856 -0.085959 -0.022564
v 0.076856 -0.086945 -0.021776
v 0.076856 -0.088222 -0.020735
v 0.076856 -0.092677 -0.016962
v 0.081978 -0.086189 -0.022776
v 0.083960 -0.086147 -0.020786
v 0.083454 -0.094930 -0.009132
v 0.083538 -0.095461 -0.007153
v 0.083502 -0.095531 -0.005107
v 0.082802 -0.095029 0.007151
v 0.082588 -0.095029 0.009197
v 0.081915 -0.096315 0.009197
v 0.082344 -0.095029 0.011238
v 0.081554 -0.096062 0.012284
v 0.079985 -0.098193 0.004408
v 0.081963 -0.094972 0.013088
v 0.081810 -0.094254 0.014511
v 0.080594 -0.094428 0.014733
v 0.076143 -0.074825 0.024284
v 0.081009 -0.086124 0.022681
v 0.080193 -0.095925 0.011893
v 0.080763 -0.095498 0.013088
v 0.079543 -0.081791 0.024542
v 0.076143 -0.060286 0.019305
v 0.076856 -0.085377 -0.022590
v 0.078704 -0.074599 -0.025255
v 0.080299 -0.076632 -0.026142
v 0.081445 -0.077885 -0.026636
v 0.080595 -0.082185 -0.024714
v 0.081071 -0.086189 -0.022776
v 0.081838 -0.082251 -0.024740
v 0.081695 -0.077885 -0.026636
v 0.084179 -0.084805 -0.021008
v 0.084798 -0.084805 -0.019410
v 0.084240 -0.086466 -0.019410
v 0.085727 -0.085866 -0.012663
v 0.086109 -0.086312 -0.001019
v 0.086108 -0.086316 -0.000447
v 0.086106 -0.086312 0.001022
v 0.085812 -0.085978 0.009197
v 0.085741 -0.085884 0.011238
v 0.085704 -0.085833 0.012295
v 0.082954 -0.095029 0.005109
v 0.084109 -0.086382 0.019413
v 0.083903 -0.086138 0.020779
v 0.081931 -0.086124 0.022681
v 0.079356 -0.080721 0.024732
v 0.076143 -0.073834 0.024542
v 0.081823 -0.082073 0.024722
v 0.080594 -0.082026 0.024691
v 0.080594 -0.080721 0.025181
v 0.076143 -0.059991 0.019356
v 0.076886 -0.060291 -0.007153
v 0.077007 -0.058249 -0.007153
v 0.078533 -0.064380 -0.023497
v 0.078748 -0.072553 -0.025250
v 0.080242 -0.072553 -0.026270
v 0.080230 -0.074599 -0.026276
v 0.081321 -0.076632 -0.026678
v 0.081748 -0.076632 -0.026678
v 0.083749 -0.081904 -0.022580
v 0.083749 -0.081570 -0.022580
v 0.083806 -0.058249 -0.020668
v 0.085721 -0.059183 -0.012570
v 0.085727 -0.085744 -0.012663
v 0.086109 -0.084936 -0.001019
v 0.086109 -0.086312 -0.000447
v 0.086106 -0.084974 0.001022
v 0.085704 -0.085823 0.012295
v 0.084863 -0.060291 0.019413
v 0.084266 -0.062338 0.020836
v 0.082028 -0.078679 0.025124
v 0.081976 -0.080721 0.024969
v 0.080594 -0.078679 0.025593
v 0.079052 -0.078679 0.024985
v 0.076143 -0.072778 0.024598
v 0.078763 -0.076632 0.025217
v 0.080594 -0.076632 0.025840
v 0.080594 -0.074599 0.025974
v 0.076143 -0.059066 0.020001
v 0.077406 -0.055062 -0.006349
v 0.078371 -0.050720 -0.011885
v 0.077345 -0.050715 0.005383
v 0.079450 -0.058939 -0.022642
v 0.079022 -0.062267 -0.023564
v 0.079363 -0.062901 -0.024724
v 0.079200 -0.064380 -0.024915
v 0.079122 -0.066422 -0.025100
v 0.079043 -0.068464 -0.025234
v 0.080291 -0.070511 -0.026260
v 0.081263 -0.072553 -0.026672
v 0.081251 -0.074599 -0.026683
v 0.081764 -0.074599 -0.026683
v 0.081770 -0.072553 -0.026672
v 0.081746 -0.070511 -0.026652
v 0.082139 -0.066422 -0.025368
v 0.082119 -0.064380 -0.025203
v 0.083771 -0.057123 -0.020621
v 0.082874 -0.050720 -0.011240
v 0.083660 -0.050720 -0.004509
v 0.083718 -0.050720 -0.003998
v 0.085594 -0.057507 -0.007153
v 0.085762 -0.059010 -0.011240
v 0.086102 -0.058249 -0.001019
v 0.083915 -0.057010 -0.019410
v 0.086109 -0.084945 -0.000447
v 0.086099 -0.058254 0.001022
v 0.085702 -0.059268 0.012269
v 0.084878 -0.058254 0.017367
v 0.084551 -0.058254 0.019413
v 0.083973 -0.058254 0.020789
v 0.084196 -0.060291 0.020928
v 0.082117 -0.064380 0.025222
v 0.082104 -0.066422 0.025279
v 0.076143 -0.072731 0.024598
v 0.078550 -0.072557 0.025351
v 0.080594 -0.072557 0.025913
v 0.076143 -0.059066 0.020696
v 0.077344 -0.050715 0.006506
v 0.079113 -0.050720 -0.013616
v 0.080508 -0.050715 -0.000447
v 0.079904 -0.057578 -0.022034
v 0.080589 -0.058254 -0.022956
v 0.079845 -0.061540 -0.024291
v 0.081205 -0.061009 -0.024657
v 0.080553 -0.062267 -0.024961
v 0.080595 -0.064380 -0.025595
v 0.080595 -0.066422 -0.025951
v 0.080682 -0.068431 -0.026276
v 0.081419 -0.069093 -0.026611
v 0.081313 -0.070511 -0.026652
v 0.081685 -0.069093 -0.026611
v 0.081954 -0.062333 -0.024915
v 0.081853 -0.057080 -0.022626
v 0.081948 -0.050720 -0.014936
v 0.082397 -0.050720 -0.013384
v 0.081766 -0.061009 -0.024657
v 0.083853 -0.050715 -0.000447
v 0.085704 -0.057226 -0.004117
v 0.085654 -0.057343 -0.005478
v 0.083775 -0.050720 -0.003065
v 0.085823 -0.058756 -0.009194
v 0.085881 -0.058531 -0.007153
v 0.086014 -0.058249 -0.003065
v 0.085727 -0.057198 -0.003065
v 0.083853 -0.050720 -0.001086
v 0.083851 -0.050715 0.001105
v 0.086101 -0.058249 -0.000447
v 0.085732 -0.057198 0.002646
v 0.085695 -0.057245 0.004012
v 0.085946 -0.058057 0.003223
v 0.085928 -0.058376 0.005109
v 0.085868 -0.058587 0.007151
v 0.085803 -0.058841 0.009197
v 0.085736 -0.059122 0.011238
v 0.083721 -0.050715 0.004305
v 0.083685 -0.050715 0.004656
v 0.082885 -0.050715 0.011882
v 0.082544 -0.050715 0.013372
v 0.083750 -0.057151 0.020557
v 0.081780 -0.061023 0.024660
v 0.081992 -0.062338 0.024944
v 0.080594 -0.064380 0.025562
v 0.080594 -0.066422 0.025717
v 0.076143 -0.071543 0.024526
v 0.076143 -0.060291 0.021454
v 0.079428 -0.055076 0.020511
v 0.079414 -0.053010 0.018547
v 0.077494 -0.050945 0.012346
v 0.077344 -0.050715 0.006914
v 0.079340 -0.050720 -0.013900
v 0.080595 -0.050720 -0.014900
v 0.080279 -0.050720 -0.014663
v 0.081266 -0.057080 -0.022626
v 0.079509 -0.051025 -0.014390
v 0.083801 -0.050720 -0.002426
v 0.085891 -0.058113 -0.004921
v 0.083782 -0.050715 0.003063
v 0.083763 -0.050715 0.003512
v 0.085653 -0.057353 0.005109
v 0.085574 -0.057573 0.007151
v 0.082313 -0.050715 0.014222
v 0.082060 -0.050715 0.014980
v 0.081793 -0.057108 0.022603
v 0.082061 -0.058254 0.022933
v 0.081197 -0.061023 0.024660
v 0.080548 -0.062300 0.024959
v 0.079417 -0.062953 0.024691
v 0.076143 -0.064380 0.023387
v 0.076143 -0.061770 0.022361
v 0.079837 -0.061591 0.024402
v 0.081291 -0.057108 0.022603
v 0.080594 -0.050715 0.015248
v 0.079986 -0.050715 0.014820
v 0.079500 -0.050715 0.014454
v 0.078928 -0.050715 0.013789
v 0.078132 -0.050715 0.012790
v 0.079860 -0.053010 0.018547
v 0.077703 -0.050715 0.012125
v 0.081606 -0.050715 0.015207
v 0.076143 -0.062610 0.022815
f 1 2 3
f 1 3 11
f 1 11 4
f 1 4 5
f 1 5 6
f 1 6 2
f 2 7 8
f 2 8 9
f 2 9 10
f 2 10 3
f 2 6 7
f 3 10 12
f 3 12 13
f 3 13 11
f 4 11 25
f 4 25 14
f 4 14 5
f 5 15 16
f 5 16 6
f 5 14 17
f 5 17 18
f 5 18 15
f 6 19 20
f 6 20 9
f 6 9 8
f 6 8 7
f 6 16 21
f 6 21 19
f 9 20 22
f 9 22 23
f 9 23 24
f 9 24 10
f 10 24 12
f 11 13 25
f 12 24 26
f 12 26 27
f 12 27 28
f 12 28 13
f 13 28 29
f 13 29 30
f 13 30 31
f 13 31 25
f 14 25 31
f 14 31 32
f 14 32 17
f 15 18 17
f 15 17 33
f 15 33 21
f 15 21 16
f 17 34 35
f 17 35 36
f 17 36 37
f 17 37 33
f 17 32 38
f 17 38 39
f 17 39 40
f 17 40 34
f 19 21 41
f 19 41 20
f 20 41 42
f 20 42 43
f 20 43 22
f 21 33 63
f 21 63 92
f 21 92 120
f 21 120 159
f 21 159 209
f 21 209 233
f 21 233 245
f 21 245 234
f 21 234 210
f 21 210 162
f 21 162 124
f 21 124 96
f 21 96 68
f 21 68 44
f 21 44 45
f 21 45 46
f 21 46 47
f 21 47 48
f 21 48 41
f 22 43 49
f 22 49 50
f 22 50 23
f 23 51 24
f 23 50 51
f 24 51 52
f 24 52 53
f 24 53 26
f 26 53 28
f 26 28 27
f 28 54 55
f 28 55 56
f 28 56 29
f 28 53 54
f 29 56 57
f 29 57 30
f 30 58 38
f 30 38 59
f 30 59 31
f 30 57 60
f 30 60 61
f 30 61 62
f 30 62 58
f 31 59 38
f 31 38 32
f 33 37 63
f 34 62 64
f 34 64 35
f 34 40 65
f 34 65 66
f 34 66 62
f 35 64 36
f 36 64 67
f 36 67 63
f 36 63 37
f 38 58 65
f 38 65 40
f 38 40 39
f 41 48 49
f 41 49 42
f 42 49 43
f 44 68 45
f 45 68 69
f 45 69 70
f 45 70 71
f 45 71 72
f 45 72 73
f 45 73 74
f 45 74 46
f 46 74 47
f 47 74 48
f 48 74 49
f 49 74 75
f 49 75 50
f 50 75 76
f 50 76 77
f 50 77 78
f 50 78 79
f 50 79 51
f 51 80 52
f 51 79 78
f 51 78 80
f 52 80 81
f 52 81 82
f 52 82 83
f 52 83 53
f 53 83 84
f 53 84 85
f 53 85 86
f 53 86 87
f 53 87 54
f 54 87 86
f 54 86 55
f 55 86 57
f 55 57 56
f 57 86 88
f 57 88 60
f 58 62 66
f 58 66 65
f 60 88 89
f 60 89 61
f 61 89 90
f 61 90 62
f 62 90 64
f 63 67 91
f 63 91 92
f 64 90 93
f 64 93 94
f 64 94 67
f 67 94 95
f 67 95 91
f 68 96 69
f 69 97 98
f 69 98 99
f 69 99 100
f 69 100 70
f 69 96 97
f 70 100 101
f 70 101 102
f 70 102 71
f 71 102 103
f 71 103 72
f 72 103 104
f 72 104 76
f 72 76 75
f 72 75 73
f 73 75 74
f 76 104 105
f 76 105 77
f 77 105 78
f 78 105 106
f 78 106 107
f 78 107 108
f 78 108 109
f 78 109 80
f 80 109 110
f 80 110 81
f 81 110 150
f 81 150 111
f 81 111 82
f 82 111 83
f 83 112 113
f 83 113 86
f 83 86 85
f 83 85 84
f 83 111 150
f 83 150 112
f 86 113 114
f 86 114 89
f 86 89 88
f 89 114 115
f 89 115 116
f 89 116 117
f 89 117 93
f 89 93 90
f 91 95 118
f 91 118 119
f 91 119 92
f 92 119 121
f 92 121 122
f 92 122 123
f 92 123 120
f 93 117 118
f 93 118 95
f 93 95 94
f 96 124 97
f 97 124 98
f 98 125 126
f 98 126 99
f 98 124 127
f 98 127 125
f 99 128 129
f 99 129 130
f 99 130 131
f 99 131 132
f 99 132 100
f 99 126 128
f 100 132 133
f 100 133 134
f 100 134 101
f 101 134 135
f 101 135 136
f 101 136 102
f 102 136 103
f 103 136 137
f 103 137 104
f 104 137 105
f 105 137 138
f 105 138 106
f 106 138 139
f 106 139 107
f 107 139 140
f 107 140 141
f 107 141 142
f 107 142 108
f 108 143 144
f 108 144 145
f 108 145 146
f 108 146 147
f 108 147 148
f 108 148 109
f 108 142 149
f 108 149 143
f 109 148 110
f 110 148 150
f 112 151 152
f 112 152 113
f 112 150 151
f 113 152 114
f 114 153 154
f 114 154 155
f 114 155 156
f 114 156 115
f 114 152 153
f 115 156 157
f 115 157 158
f 115 158 116
f 116 158 123
f 116 123 122
f 116 122 117
f 117 122 118
f 118 122 121
f 118 121 119
f 120 123 160
f 120 160 159
f 123 158 157
f 123 157 161
f 123 161 160
f 124 162 214
f 124 214 163
f 124 163 127
f 125 127 126
f 126 164 128
f 126 127 164
f 127 163 214
f 127 214 243
f 127 243 241
f 127 241 240
f 127 240 239
f 127 239 238
f 127 238 237
f 127 237 244
f 127 244 227
f 127 227 226
f 127 226 203
f 127 203 202
f 127 202 201
f 127 201 200
f 127 200 223
f 127 223 222
f 127 222 191
f 127 191 182
f 127 182 165
f 127 165 164
f 128 164 166
f 128 166 167
f 128 167 168
f 128 168 130
f 128 130 129
f 130 168 169
f 130 169 170
f 130 170 171
f 130 171 131
f 131 171 172
f 131 172 173
f 131 173 132
f 132 173 134
f 132 134 133
f 134 173 174
f 134 174 175
f 134 175 135
f 135 175 139
f 135 139 138
f 135 138 137
f 135 137 136
f 139 175 174
f 139 174 176
f 139 176 141
f 139 141 140
f 141 176 177
f 141 177 142
f 142 178 179
f 142 179 180
f 142 180 143
f 142 143 149
f 142 177 181
f 142 181 178
f 143 180 182
f 143 182 144
f 144 182 145
f 145 183 184
f 145 184 146
f 145 182 185
f 145 185 183
f 146 184 186
f 146 186 147
f 147 186 148
f 148 186 187
f 148 187 188
f 148 188 183
f 148 183 189
f 148 189 190
f 148 190 182
f 148 182 191
f 148 191 192
f 148 192 151
f 148 151 150
f 151 191 193
f 151 193 194
f 151 194 195
f 151 195 196
f 151 196 197
f 151 197 198
f 151 198 199
f 151 199 152
f 151 192 191
f 152 199 200
f 152 200 153
f 153 200 201
f 153 201 202
f 153 202 154
f 154 202 203
f 154 203 204
f 154 204 155
f 155 204 205
f 155 205 206
f 155 206 156
f 156 206 157
f 157 206 207
f 157 207 208
f 157 208 161
f 159 160 208
f 159 208 209
f 160 161 208
f 162 210 211
f 162 211 212
f 162 212 213
f 162 213 214
f 164 215 166
f 164 165 215
f 165 179 216
f 165 216 217
f 165 217 215
f 165 182 179
f 166 218 167
f 166 215 219
f 166 219 218
f 167 169 168
f 167 218 169
f 169 181 171
f 169 171 170
f 169 218 178
f 169 178 181
f 171 176 174
f 171 174 172
f 171 181 176
f 172 174 173
f 176 181 177
f 178 218 179
f 179 218 216
f 179 182 180
f 182 190 220
f 182 220 185
f 183 221 187
f 183 187 186
f 183 186 184
f 183 185 220
f 183 220 190
f 183 190 189
f 183 188 221
f 187 221 188
f 191 222 193
f 193 222 194
f 194 223 200
f 194 200 224
f 194 224 197
f 194 197 196
f 194 196 195
f 194 222 223
f 197 224 198
f 198 224 225
f 198 225 200
f 198 200 199
f 200 225 224
f 203 226 204
f 204 226 227
f 204 227 228
f 204 228 229
f 204 229 205
f 205 229 228
f 205 228 236
f 205 236 230
f 205 230 207
f 205 207 206
f 207 230 231
f 207 231 232
f 207 232 233
f 207 233 209
f 207 209 208
f 210 234 211
f 211 234 235
f 211 235 236
f 211 236 212
f 212 237 238
f 212 238 239
f 212 239 240
f 212 240 241
f 212 241 213
f 212 236 228
f 212 228 242
f 212 242 237
f 213 241 243
f 213 243 214
f 215 217 219
f 216 218 217
f 217 218 219
f 227 244 228
f 228 244 242
f 230 236 235
f 230 235 231
f 231 235 232
f 232 235 245
f 232 245 233
f 234 245 235
f 237 242 244
