v 0.043766 0.103301 -0.001012
v 0.039695 0.103301 -0.003055
v 0.029466 0.103301 0.007146
v 0.043766 0.103286 0.001018
v 0.045822 0.103233 0.001018
v 0.056041 0.102497 -0.029627
v 0.035604 0.103301 -0.005098
v 0.017244 0.103301 0.013282
v 0.031523 0.103286 0.007146
v 0.056041 0.102430 0.027590
v 0.059426 0.102377 0.011239
v 0.056041 0.102407 -0.030884
v -0.021563 0.102572 -0.029627
v 0.021294 0.103301 -0.011233
v 0.059478 0.102347 0.009196
v 0.057380 0.102249 -0.030734
v 0.013163 0.103301 0.015325
v 0.056041 0.102272 0.029182
v 0.057232 0.102234 0.029243
v 0.057327 0.102294 0.027590
v 0.059373 0.102362 0.013282
v 0.007026 0.103301 0.017368
v -0.021563 0.102662 0.029633
v -0.021563 0.102527 0.031006
v 0.069475 0.100191 0.015325
v 0.069475 0.100191 0.014191
v 0.053309 0.096127 -0.034826
v 0.051981 0.096172 -0.034867
v -0.011365 0.096547 -0.034902
v -0.021563 0.102445 -0.030884
v -0.025665 0.102580 -0.027092
v 0.019248 0.103301 -0.011233
v 0.070066 0.098936 -0.015319
v 0.061419 0.100424 -0.030850
v 0.060122 0.100739 -0.031007
v 0.060122 0.100612 0.030917
v 0.061334 0.100341 0.030794
v 0.069370 0.100146 0.016377
v 0.004980 0.103301 0.017368
v -0.025665 0.102580 0.027152
v -0.023608 0.102377 0.030890
v 0.002945 0.103301 0.015325
v -0.020624 0.096067 0.034798
v -0.019538 0.096082 0.034860
v -0.017492 0.096097 0.034887
v 0.051981 0.096480 0.034866
v 0.070171 0.099102 0.015325
v 0.062115 0.098944 -0.031007
v 0.063591 0.097058 -0.030918
v 0.064287 0.094925 -0.031041
v 0.065415 0.092979 -0.030816
v 0.065415 0.091694 -0.030816
v 0.057580 0.090928 -0.033125
v 0.056041 0.090928 -0.033583
v 0.056199 0.088712 -0.033241
v 0.045822 0.068458 -0.031499
v -0.011365 0.095556 -0.034902
v -0.017492 0.096097 -0.034881
v -0.019538 0.096089 -0.034861
v -0.020656 0.096067 -0.034799
v -0.023608 0.102272 -0.030740
v -0.024652 0.102174 -0.030652
v -0.027236 0.102347 -0.026778
v -0.027278 0.102362 0.026517
v 0.007026 0.103301 0.001018
v 0.069887 0.098763 -0.016966
v 0.070445 0.097058 -0.015319
v 0.063243 0.098155 -0.030693
v 0.053309 0.096329 0.034825
v 0.063190 0.091867 0.034901
v 0.063222 0.098110 0.030671
v 0.069749 0.099102 0.016842
v -0.024790 0.102249 0.030760
v -0.025549 0.101115 0.031054
v -0.027088 0.100409 0.030890
v -0.027753 0.099132 0.031143
v -0.029029 0.098478 0.030890
v -0.029735 0.096855 0.030999
v -0.031159 0.092979 0.030979
v -0.024790 0.089418 0.033029
v -0.023746 0.088802 0.033329
v -0.010564 0.057160 0.028635
v 0.043776 0.068458 0.031525
v -0.011365 0.096082 0.034894
v 0.070477 0.097058 0.015325
v 0.069992 0.097058 0.017122
v 0.065310 0.094173 -0.030706
v 0.069992 0.097156 -0.017533
v 0.070720 0.086849 -0.015319
v 0.071521 0.072966 -0.010625
v 0.059141 0.057137 -0.024550
v 0.059204 0.063155 -0.026620
v 0.057517 0.060112 -0.026846
v 0.056062 0.060300 -0.027604
v 0.054100 0.062471 -0.028964
v 0.057464 0.089283 -0.033002
v 0.053341 0.060210 -0.028759
v 0.051949 0.062343 -0.029504
v 0.049924 0.058625 -0.028868
v 0.047826 0.058114 -0.028855
v 0.045822 0.058249 -0.028944
v 0.041741 0.058249 -0.028964
v 0.019269 0.058512 -0.028991
v 0.009694 0.057182 -0.028629
v -0.012557 0.058895 -0.028759
v 0.039695 0.068458 -0.031424
v 0.051949 0.060300 -0.029087
v -0.024979 0.090928 -0.033460
v -0.031201 0.092979 -0.031034
v -0.031001 0.095015 -0.030904
v -0.029777 0.096960 -0.031082
v -0.029124 0.098433 -0.030932
v -0.026962 0.100356 -0.030829
v -0.032994 0.100319 -0.024892
v -0.032994 0.100319 0.024898
v 0.071901 0.074588 0.009196
v 0.071595 0.074588 -0.009184
v 0.071489 0.074588 -0.010536
v 0.059099 0.061321 0.026565
v 0.065415 0.091627 0.031033
v 0.065415 0.092979 0.030979
v 0.065310 0.094151 0.030705
v 0.045822 0.068458 0.031436
v 0.045822 0.066738 0.031054
v 0.053172 0.059684 0.028676
v -0.030790 0.096044 0.030658
v -0.030927 0.095015 0.030781
v -0.031106 0.091574 0.030924
v -0.034913 0.096112 0.022561
v -0.034945 0.091920 0.022527
v -0.005228 0.057047 0.028683
v 0.013174 0.060300 0.029558
v -0.030843 0.079584 0.026811
v -0.012842 0.056799 0.027132
v -0.011302 0.056303 0.027658
v -0.009309 0.054500 0.027070
v 0.031523 0.026554 0.015127
v 0.041741 0.057115 0.028642
v 0.043797 0.057160 0.028628
v 0.011117 0.058249 0.029086
v 0.013163 0.058249 0.029093
v 0.015209 0.058249 0.029086
v 0.070066 0.086849 0.017218
v 0.070530 0.086849 0.015325
v 0.071627 0.074588 0.010850
v 0.071595 0.072673 -0.009184
v 0.071331 0.071659 -0.009184
v 0.058181 0.026554 -0.003055
v 0.057264 0.026554 -0.008336
v 0.057443 0.054756 -0.024782
v 0.058128 0.056356 -0.025028
v 0.057232 0.058918 -0.026675
v 0.058519 0.060112 -0.026108
v 0.058909 0.061787 -0.026395
v 0.055988 0.026554 -0.010598
v 0.056062 0.058249 -0.026983
v 0.053003 0.059263 -0.028602
v 0.048469 0.057340 -0.028540
v 0.047098 0.057175 -0.028622
v 0.051949 0.059045 -0.028725
v 0.045822 0.057152 -0.028636
v 0.041741 0.057160 -0.028650
v 0.011117 0.057175 -0.028629
v 0.000909 0.054162 -0.027297
v -0.005228 0.052960 -0.026750
v -0.006789 0.053020 -0.026682
v -0.010680 0.054943 -0.026798
v -0.012842 0.056791 -0.027065
v -0.025296 0.070952 -0.027051
v -0.031106 0.091574 -0.030918
v -0.035071 0.077811 -0.018537
v -0.030853 0.096209 -0.030740
v -0.035293 0.090214 -0.016904
v -0.034997 0.096209 0.020320
v -0.034997 0.096224 0.021454
v 0.071837 0.072545 0.009196
v 0.071627 0.072545 0.010857
v 0.059584 0.060300 0.025185
v 0.071489 0.071328 0.010542
v 0.059826 0.062140 0.025745
v 0.057759 0.060660 0.026927
v 0.051147 0.026554 0.014396
v 0.053035 0.026554 0.013439
v 0.055144 0.026554 0.012339
v 0.057084 0.026554 0.010207
v 0.044968 0.057212 0.028608
v 0.047878 0.054162 0.027323
v 0.049840 0.054110 0.027050
v -0.035830 0.090928 0.017368
v -0.035145 0.091852 0.021454
v -0.035124 0.077368 0.016316
v -0.003182 0.057002 0.028697
v -0.029050 0.073056 0.024870
v -0.027109 0.070502 0.024884
v -0.016522 0.057160 0.014375
v -0.010342 0.053140 0.020443
v -0.009372 0.052509 0.021256
v -0.010680 0.054936 0.026824
v -0.026698 0.069472 0.024529
v 0.023097 0.026554 0.012209
v 0.024478 0.026554 0.012906
v 0.029129 0.026554 0.014594
v 0.030489 0.026554 0.014943
v 0.043776 0.026554 0.015291
v 0.005001 0.056987 0.028697
v 0.027452 0.054162 0.027405
v 0.029477 0.054162 0.027398
v -0.001147 0.056987 0.028703
v 0.000909 0.056987 0.028703
v 0.071489 0.071336 0.009196
v 0.058371 0.026554 -0.001019
v 0.054322 0.026554 -0.011917
v 0.055471 0.052780 -0.024837
v 0.056758 0.057558 -0.026422
v 0.045316 0.026554 -0.014875
v 0.031523 0.026554 -0.015299
v 0.029414 0.026554 -0.014834
v 0.023255 0.026554 -0.012716
v 0.022285 0.026554 -0.011951
v 0.021367 0.026554 -0.011192
v -0.004838 0.044524 -0.014725
v -0.029071 0.071290 -0.023095
v -0.027331 0.070915 -0.025158
v -0.030864 0.079539 -0.026846
v -0.035314 0.084850 -0.015319
v -0.035293 0.089245 -0.016904
v -0.030843 0.073432 -0.022541
v -0.033184 0.075182 -0.018613
v 0.059204 0.051022 0.020552
v 0.058076 0.026554 0.007140
v 0.058318 0.026554 0.001011
v 0.058350 0.026554 0.000006
v 0.049924 0.026554 0.014649
v -0.035714 0.088885 0.017368
v -0.033236 0.075107 0.017368
v -0.033047 0.075302 0.018557
v -0.016596 0.057107 0.013269
v -0.005006 0.044321 -0.013269
v 0.018067 0.026554 0.006511
v -0.030347 0.071967 0.017368
v 0.018953 0.026554 0.007857
v 0.019807 0.026554 0.008964
v 0.020745 0.026554 0.010119
v 0.021473 0.026554 0.010870
v -0.032308 0.074085 0.017368
v 0.053309 0.026554 -0.012361
v 0.020418 0.026554 -0.010113
v 0.019786 0.026554 -0.009334
v 0.019069 0.026554 -0.007141
v -0.016838 0.056897 -0.001019
v -0.016838 0.056897 0.001011
v -0.016754 0.056957 0.005104
v 0.018067 0.026554 -0.002658
v 0.017909 0.026554 -0.001019
v -0.016796 0.056927 0.003061
f 1 2 7
f 1 7 14
f 1 14 32
f 1 32 65
f 1 65 42
f 1 42 39
f 1 39 22
f 1 22 17
f 1 17 8
f 1 8 3
f 1 3 4
f 1 4 5
f 1 5 6
f 1 6 2
f 2 6 7
f 3 8 4
f 4 8 17
f 4 17 9
f 4 9 10
f 4 10 5
f 5 10 11
f 5 11 6
f 6 12 13
f 6 13 14
f 6 14 7
f 6 11 15
f 6 15 16
f 6 16 12
f 9 17 10
f 10 18 19
f 10 19 20
f 10 20 21
f 10 21 11
f 10 17 22
f 10 22 23
f 10 23 24
f 10 24 18
f 11 21 25
f 11 25 26
f 11 26 15
f 12 16 27
f 12 27 28
f 12 28 29
f 12 29 30
f 12 30 13
f 13 30 31
f 13 31 32
f 13 32 14
f 15 26 16
f 16 26 33
f 16 33 34
f 16 34 35
f 16 35 27
f 18 24 19
f 19 36 37
f 19 37 38
f 19 38 25
f 19 25 20
f 19 24 36
f 20 25 21
f 22 39 23
f 23 40 41
f 23 41 24
f 23 39 42
f 23 42 40
f 24 41 43
f 24 43 44
f 24 44 45
f 24 45 46
f 24 46 36
f 25 38 47
f 25 47 26
f 26 47 33
f 27 35 34
f 27 34 48
f 27 48 49
f 27 49 50
f 27 50 51
f 27 51 52
f 27 52 53
f 27 53 54
f 27 54 55
f 27 55 56
f 27 56 28
f 28 56 57
f 28 57 29
f 29 57 58
f 29 58 59
f 29 59 30
f 30 59 60
f 30 60 61
f 30 61 31
f 31 61 62
f 31 62 63
f 31 63 64
f 31 64 40
f 31 40 42
f 31 42 65
f 31 65 32
f 33 66 34
f 33 47 67
f 33 67 66
f 34 68 49
f 34 49 48
f 34 66 68
f 36 46 69
f 36 69 37
f 37 69 70
f 37 70 71
f 37 71 38
f 38 71 72
f 38 72 47
f 40 64 73
f 40 73 41
f 41 73 43
f 43 73 74
f 43 74 75
f 43 75 76
f 43 76 77
f 43 77 78
f 43 78 79
f 43 79 80
f 43 80 81
f 43 81 82
f 43 82 44
f 44 82 83
f 44 83 45
f 45 84 46
f 45 83 70
f 45 70 84
f 46 70 69
f 46 84 70
f 47 85 67
f 47 72 86
f 47 86 85
f 49 68 87
f 49 87 50
f 50 87 51
f 51 87 88
f 51 88 52
f 52 88 89
f 52 89 90
f 52 90 91
f 52 91 92
f 52 92 93
f 52 93 94
f 52 94 95
f 52 95 96
f 52 96 53
f 53 96 54
f 54 96 55
f 55 97 98
f 55 98 56
f 55 96 97
f 56 99 100
f 56 100 101
f 56 101 102
f 56 102 103
f 56 103 104
f 56 104 105
f 56 105 106
f 56 106 57
f 56 98 107
f 56 107 99
f 57 59 58
f 57 106 59
f 59 106 105
f 59 105 60
f 60 105 108
f 60 108 109
f 60 109 110
f 60 110 111
f 60 111 112
f 60 112 113
f 60 113 62
f 60 62 61
f 62 113 114
f 62 114 63
f 63 114 64
f 64 114 115
f 64 115 73
f 66 67 88
f 66 88 87
f 66 87 68
f 67 89 88
f 67 85 116
f 67 116 117
f 67 117 118
f 67 118 89
f 70 119 120
f 70 120 121
f 70 121 122
f 70 122 71
f 70 83 123
f 70 123 124
f 70 124 125
f 70 125 119
f 71 122 72
f 72 122 121
f 72 121 86
f 73 115 75
f 73 75 74
f 75 77 76
f 75 115 77
f 77 115 126
f 77 126 78
f 78 126 127
f 78 127 79
f 79 128 80
f 79 127 129
f 79 129 130
f 79 130 128
f 80 128 81
f 81 128 82
f 82 131 132
f 82 132 83
f 82 128 133
f 82 133 134
f 82 134 135
f 82 135 136
f 82 136 137
f 82 137 131
f 83 138 139
f 83 139 124
f 83 124 123
f 83 132 140
f 83 140 141
f 83 141 142
f 83 142 138
f 85 86 143
f 85 143 144
f 85 144 145
f 85 145 116
f 86 121 120
f 86 120 143
f 89 118 90
f 90 118 117
f 90 117 146
f 90 146 147
f 90 147 148
f 90 148 149
f 90 149 91
f 91 150 151
f 91 151 152
f 91 152 153
f 91 153 154
f 91 154 92
f 91 149 155
f 91 155 150
f 92 154 152
f 92 152 93
f 93 152 94
f 94 152 156
f 94 156 97
f 94 97 95
f 95 97 96
f 97 157 107
f 97 107 98
f 97 156 157
f 99 158 159
f 99 159 100
f 99 107 160
f 99 160 158
f 100 159 101
f 101 159 161
f 101 161 102
f 102 161 162
f 102 162 163
f 102 163 104
f 102 104 103
f 104 163 164
f 104 164 165
f 104 165 105
f 105 165 166
f 105 166 167
f 105 167 168
f 105 168 169
f 105 169 108
f 107 157 160
f 108 169 170
f 108 170 109
f 109 170 171
f 109 171 114
f 109 114 110
f 110 172 111
f 110 114 172
f 111 172 112
f 112 172 114
f 112 114 113
f 114 171 173
f 114 173 174
f 114 174 175
f 114 175 115
f 115 175 129
f 115 129 127
f 115 127 126
f 116 176 146
f 116 146 117
f 116 145 177
f 116 177 176
f 119 178 179
f 119 179 180
f 119 180 120
f 119 125 181
f 119 181 182
f 119 182 183
f 119 183 184
f 119 184 185
f 119 185 178
f 120 179 177
f 120 177 143
f 120 180 179
f 124 139 186
f 124 186 125
f 125 186 187
f 125 187 188
f 125 188 182
f 125 182 181
f 128 130 133
f 129 175 189
f 129 189 190
f 129 190 130
f 130 190 191
f 130 191 133
f 131 192 132
f 131 137 192
f 132 192 140
f 133 191 193
f 133 193 194
f 133 194 134
f 134 195 196
f 134 196 197
f 134 197 198
f 134 198 135
f 134 194 199
f 134 199 195
f 135 198 136
f 136 198 200
f 136 200 201
f 136 201 202
f 136 202 203
f 136 203 137
f 137 203 202
f 137 202 201
f 137 201 200
f 137 200 244
f 137 244 243
f 137 243 242
f 137 242 241
f 137 241 239
f 137 239 254
f 137 254 253
f 137 253 249
f 137 249 248
f 137 248 247
f 137 247 220
f 137 220 219
f 137 219 218
f 137 218 217
f 137 217 216
f 137 216 215
f 137 215 246
f 137 246 212
f 137 212 155
f 137 155 149
f 137 149 148
f 137 148 211
f 137 211 232
f 137 232 231
f 137 231 230
f 137 230 185
f 137 185 184
f 137 184 183
f 137 183 182
f 137 182 233
f 137 233 204
f 137 204 192
f 138 204 187
f 138 187 139
f 138 142 141
f 138 141 205
f 138 205 206
f 138 206 207
f 138 207 204
f 139 187 186
f 140 192 208
f 140 208 141
f 141 208 209
f 141 209 205
f 143 177 144
f 144 177 145
f 146 176 147
f 147 176 210
f 147 210 211
f 147 211 148
f 150 155 212
f 150 212 213
f 150 213 214
f 150 214 151
f 151 214 152
f 152 214 156
f 152 154 153
f 156 214 157
f 157 214 213
f 157 213 215
f 157 215 160
f 158 160 215
f 158 215 159
f 159 215 216
f 159 216 161
f 161 216 162
f 162 216 163
f 163 216 164
f 164 216 165
f 165 216 166
f 166 216 217
f 166 217 218
f 166 218 167
f 167 218 219
f 167 219 220
f 167 220 221
f 167 221 168
f 168 221 222
f 168 222 223
f 168 223 169
f 169 223 224
f 169 224 170
f 170 224 171
f 171 191 189
f 171 189 225
f 171 225 226
f 171 226 173
f 171 224 227
f 171 227 228
f 171 228 191
f 173 226 189
f 173 189 174
f 174 189 175
f 176 177 179
f 176 179 210
f 178 185 229
f 178 229 179
f 179 229 185
f 179 185 230
f 179 230 231
f 179 231 232
f 179 232 211
f 179 211 210
f 182 188 233
f 187 233 188
f 187 204 233
f 189 234 190
f 189 226 225
f 189 191 234
f 190 234 191
f 191 228 235
f 191 235 236
f 191 236 193
f 192 204 208
f 193 199 194
f 193 236 199
f 195 237 238
f 195 238 239
f 195 239 196
f 195 199 240
f 195 240 237
f 196 239 197
f 197 239 198
f 198 239 241
f 198 241 242
f 198 242 243
f 198 243 244
f 198 244 200
f 199 236 235
f 199 235 245
f 199 245 240
f 204 207 206
f 204 206 205
f 204 205 209
f 204 209 208
f 212 246 213
f 213 246 215
f 220 247 221
f 221 238 222
f 221 247 248
f 221 248 249
f 221 249 238
f 222 228 227
f 222 227 223
f 222 238 228
f 223 227 224
f 228 238 250
f 228 250 235
f 235 250 251
f 235 251 245
f 237 252 238
f 237 240 252
f 238 249 253
f 238 253 254
f 238 254 239
f 238 252 255
f 238 255 251
f 238 251 250
f 240 245 251
f 240 251 255
f 240 255 252
