v 0.058386 0.026551 -0.001016
v 0.058209 0.026551 -0.003059
v 0.058364 0.026551 0.000015
v 0.083468 -0.048128 0.001215
v 0.083700 -0.048877 -0.000591
v 0.057325 0.026551 -0.008162
v 0.083645 -0.049081 -0.001954
v 0.082948 -0.048022 -0.005106
v 0.082860 -0.050064 -0.011239
v 0.058342 0.026551 0.001024
v 0.083291 -0.048022 0.003064
v 0.083656 -0.049051 0.002012
v 0.083700 -0.048877 0.000656
v 0.058099 0.026551 0.007151
v 0.083844 -0.049868 0.001215
v 0.083844 -0.049883 -0.001171
v 0.057226 0.026551 -0.008534
v 0.081976 -0.048635 -0.012876
v 0.083601 -0.049391 -0.003062
v 0.083081 -0.050064 -0.009196
v 0.083656 -0.050715 -0.004507
v 0.082871 -0.050715 -0.011239
v 0.082396 -0.050715 -0.013386
v 0.082241 -0.049913 -0.013446
v 0.083015 -0.048022 0.005107
v 0.082849 -0.050064 0.011238
v 0.083601 -0.049338 0.003064
v 0.083777 -0.050359 0.003064
v 0.083081 -0.050064 0.009194
v 0.057104 0.026551 0.010211
v 0.082296 -0.049898 0.013423
v 0.083811 -0.050715 0.002175
v 0.083844 -0.050715 0.001113
v 0.083855 -0.050715 -0.001086
v 0.083800 -0.050715 -0.002429
v 0.083766 -0.050412 -0.003062
v 0.056264 0.026551 -0.010305
v 0.081909 -0.050488 -0.014852
v 0.083711 -0.050715 -0.003994
v 0.081943 -0.050715 -0.014940
v 0.082539 -0.050715 0.013369
v 0.082882 -0.050715 0.011882
v 0.083512 -0.050087 0.005203
v 0.083678 -0.050715 0.004654
v 0.083302 -0.050064 0.007147
v 0.083755 -0.050715 0.003510
v 0.083777 -0.050715 0.003064
v 0.083711 -0.050715 0.004307
v 0.057093 0.026551 0.010239
v 0.082009 -0.050473 0.014889
v 0.082307 -0.050715 0.014223
v 0.083766 -0.050715 -0.003062
v 0.055744 0.026551 -0.010903
v 0.072414 -0.050715 -0.015475
v 0.072414 -0.050064 -0.015748
v 0.045917 0.025583 -0.014933
v 0.047863 0.023390 -0.014682
v 0.049068 0.022633 -0.014420
v 0.053323 0.026551 -0.012369
v 0.054340 0.026551 -0.011923
v 0.055158 0.026551 0.012350
v 0.082053 -0.050715 0.014981
v 0.009074 -0.050715 -0.016838
v 0.039705 0.005102 -0.015549
v 0.031536 0.025538 -0.015386
v 0.039705 0.017362 -0.015330
v 0.045840 0.023495 -0.015015
v 0.044900 0.026551 -0.014912
v 0.045751 0.026551 -0.014848
v 0.053058 0.026551 0.013458
v 0.081600 -0.050715 0.015211
v 0.007482 -0.050715 -0.016240
v -0.023624 -0.050677 -0.007153
v -0.023624 -0.049951 -0.008442
v -0.024829 -0.049664 -0.008307
v -0.012835 -0.045239 -0.012433
v -0.012835 -0.044634 -0.012433
v 0.031536 0.026551 -0.015308
v 0.051146 0.026551 0.014396
v 0.080583 -0.050715 0.015253
v 0.049930 0.026551 0.014662
v 0.043795 0.026551 0.015299
v 0.013153 -0.041896 0.019340
v -0.015101 -0.050715 -0.004801
v -0.020330 -0.050715 0.009849
v -0.020330 -0.050715 0.010703
v -0.027714 -0.050102 0.001028
v -0.027714 -0.050102 -0.001019
v -0.029041 -0.049512 -0.001019
v -0.028897 -0.049293 -0.002198
v -0.025216 -0.049875 -0.007153
v -0.024829 -0.048975 -0.008307
v -0.012758 -0.009193 -0.006434
v -0.000200 -0.006054 -0.010308
v 0.024362 0.020463 -0.014317
v 0.029502 0.025538 -0.014968
v 0.029425 0.026551 -0.014845
v 0.013153 -0.043999 0.018876
v 0.009074 -0.050715 0.016886
v 0.031536 0.026551 0.015140
v 0.004984 -0.041896 0.019237
v 0.004873 -0.044089 0.018844
v -0.028941 -0.048862 0.002721
v -0.028941 -0.049422 0.002721
v -0.019545 -0.050715 0.010887
v 0.003514 -0.043515 0.018728
v 0.003326 -0.041896 0.018905
v -0.012835 -0.009548 0.006499
v -0.029074 -0.049611 0.001028
v -0.029041 -0.048771 -0.001019
v -0.028897 -0.048892 -0.002198
v -0.012404 -0.008164 -0.006143
v 0.023267 0.026551 -0.012720
v 0.005481 -0.045103 0.018558
v 0.006211 -0.045103 0.018558
v 0.030497 0.026551 0.014956
v 0.004984 -0.039847 0.018961
v -0.029074 -0.048741 0.001028
v 0.029425 0.026551 0.014697
v 0.003646 -0.039847 0.018657
v -0.012404 -0.008164 -0.006087
v -0.012835 -0.009510 0.005104
v 0.024494 0.026551 0.012913
v 0.023743 0.026551 0.012601
v 0.023234 0.026551 0.012325
v 0.022726 0.026551 0.011988
v 0.021477 0.026551 0.010880
v 0.020946 0.026551 0.010352
v 0.020548 0.026551 0.009910
v 0.020239 0.026551 0.009524
v 0.018713 0.026551 0.007540
v 0.018083 0.026551 0.006520
v 0.017884 0.026551 -0.001016
v 0.018094 0.026551 -0.002659
v 0.019089 0.026551 -0.007146
v 0.019796 0.026551 -0.009334
v 0.020415 0.026551 -0.010113
v 0.021366 0.026551 -0.011200
v 0.022074 0.026551 -0.011788
v 0.028850 0.026551 0.014506
f 1 2 6
f 1 6 17
f 1 17 37
f 1 37 53
f 1 53 60
f 1 60 59
f 1 59 69
f 1 69 68
f 1 68 78
f 1 78 97
f 1 97 113
f 1 113 139
f 1 139 138
f 1 138 137
f 1 137 136
f 1 136 135
f 1 135 134
f 1 134 133
f 1 133 132
f 1 132 131
f 1 131 130
f 1 130 129
f 1 129 128
f 1 128 127
f 1 127 126
f 1 126 125
f 1 125 124
f 1 124 123
f 1 123 140
f 1 140 119
f 1 119 116
f 1 116 100
f 1 100 82
f 1 82 81
f 1 81 79
f 1 79 70
f 1 70 61
f 1 61 49
f 1 49 30
f 1 30 14
f 1 14 10
f 1 10 3
f 1 3 4
f 1 4 5
f 1 5 2
f 2 5 7
f 2 7 8
f 2 8 9
f 2 9 6
f 3 10 4
f 4 11 12
f 4 12 13
f 4 13 5
f 4 10 14
f 4 14 11
f 5 13 15
f 5 15 16
f 5 16 7
f 6 9 18
f 6 18 17
f 7 16 19
f 7 19 9
f 7 9 8
f 9 19 20
f 9 20 21
f 9 21 22
f 9 22 23
f 9 23 24
f 9 24 18
f 11 25 26
f 11 26 12
f 11 14 25
f 12 27 28
f 12 28 15
f 12 15 13
f 12 26 29
f 12 29 27
f 14 30 31
f 14 31 26
f 14 26 25
f 15 28 32
f 15 32 33
f 15 33 34
f 15 34 16
f 16 34 35
f 16 35 36
f 16 36 19
f 17 18 24
f 17 24 38
f 17 38 37
f 19 36 20
f 20 36 39
f 20 39 21
f 21 39 52
f 21 52 35
f 21 35 34
f 21 34 33
f 21 33 32
f 21 32 47
f 21 47 46
f 21 46 48
f 21 48 44
f 21 44 42
f 21 42 41
f 21 41 51
f 21 51 62
f 21 62 71
f 21 71 80
f 21 80 99
f 21 99 105
f 21 105 86
f 21 86 85
f 21 85 84
f 21 84 72
f 21 72 63
f 21 63 54
f 21 54 40
f 21 40 23
f 21 23 22
f 23 40 24
f 24 40 38
f 26 31 41
f 26 41 42
f 26 42 29
f 27 43 44
f 27 44 28
f 27 29 45
f 27 45 43
f 28 46 47
f 28 47 32
f 28 44 48
f 28 48 46
f 29 42 44
f 29 44 45
f 30 49 50
f 30 50 31
f 31 50 51
f 31 51 41
f 35 52 36
f 36 52 39
f 37 38 40
f 37 40 53
f 40 54 55
f 40 55 56
f 40 56 57
f 40 57 58
f 40 58 59
f 40 59 60
f 40 60 53
f 43 45 44
f 49 61 62
f 49 62 50
f 50 62 51
f 54 63 55
f 55 64 65
f 55 65 66
f 55 66 67
f 55 67 56
f 55 63 64
f 56 67 65
f 56 65 68
f 56 68 69
f 56 69 57
f 57 69 58
f 58 69 59
f 61 70 62
f 62 70 71
f 63 72 73
f 63 73 74
f 63 74 75
f 63 75 76
f 63 76 77
f 63 77 65
f 63 65 64
f 65 77 78
f 65 78 68
f 65 67 66
f 70 79 71
f 71 79 81
f 71 81 82
f 71 82 83
f 71 83 80
f 72 84 73
f 73 85 86
f 73 86 87
f 73 87 88
f 73 88 89
f 73 89 90
f 73 90 91
f 73 91 75
f 73 75 74
f 73 84 85
f 75 91 90
f 75 90 111
f 75 111 92
f 75 92 77
f 75 77 76
f 77 92 93
f 77 93 94
f 77 94 95
f 77 95 96
f 77 96 78
f 78 96 97
f 80 83 98
f 80 98 99
f 82 100 101
f 82 101 83
f 83 101 102
f 83 102 98
f 86 103 104
f 86 104 87
f 86 105 106
f 86 106 107
f 86 107 108
f 86 108 103
f 87 104 109
f 87 109 88
f 88 109 89
f 89 109 118
f 89 118 110
f 89 110 111
f 89 111 90
f 92 111 93
f 93 112 113
f 93 113 95
f 93 95 94
f 93 111 110
f 93 110 112
f 95 113 97
f 95 97 96
f 98 102 114
f 98 114 115
f 98 115 99
f 99 115 114
f 99 114 105
f 100 116 101
f 101 117 107
f 101 107 106
f 101 106 102
f 101 116 117
f 102 106 105
f 102 105 114
f 103 118 109
f 103 109 104
f 103 108 118
f 107 117 116
f 107 116 119
f 107 119 120
f 107 120 108
f 108 121 122
f 108 122 118
f 108 120 123
f 108 123 124
f 108 124 125
f 108 125 126
f 108 126 127
f 108 127 128
f 108 128 129
f 108 129 130
f 108 130 131
f 108 131 132
f 108 132 121
f 110 118 112
f 112 118 121
f 112 121 133
f 112 133 134
f 112 134 135
f 112 135 136
f 112 136 137
f 112 137 138
f 112 138 139
f 112 139 113
f 118 122 121
f 119 140 120
f 120 140 123
f 121 132 133
