v -0.011026 -0.096272 -0.003063
v -0.010022 -0.096259 -0.001552
v -0.010772 -0.096259 -0.001552
v -0.014627 -0.096054 -0.002035
v -0.014627 -0.096054 -0.002074
v -0.010830 -0.096134 -0.004584
v -0.009333 -0.096130 -0.004724
v -0.009336 -0.096237 -0.003232
v -0.008282 -0.096072 -0.004029
v -0.014368 -0.092023 0.014383
v -0.015465 -0.092054 0.014416
v -0.015465 -0.094725 0.004438
v -0.028182 -0.094252 0.006543
v -0.028996 -0.094252 0.006543
v -0.029165 -0.094457 0.005109
v -0.029174 -0.094564 0.003063
v -0.026897 -0.094123 -0.008658
v -0.025750 -0.094208 -0.009281
v -0.025117 -0.094105 -0.010420
v -0.023631 -0.094181 -0.010570
v -0.009333 -0.095902 -0.005742
v -0.008282 -0.096072 -0.004434
v -0.008128 -0.095211 -0.005047
v -0.007739 -0.082769 0.020653
v -0.008201 -0.083804 0.020494
v -0.014277 -0.090087 0.016526
v -0.015465 -0.090172 0.016618
v -0.015465 -0.091193 0.015440
v -0.017508 -0.092040 0.014402
v -0.017508 -0.091184 0.015425
v -0.023631 -0.091978 0.014325
v -0.024665 -0.091965 0.014305
v -0.029016 -0.088187 0.016700
v -0.035364 -0.076713 0.003000
v -0.035758 -0.076633 0.001021
v -0.035455 -0.077726 -0.000606
v -0.035376 -0.077998 -0.001021
v -0.028984 -0.092277 -0.011241
v -0.028762 -0.091978 -0.012288
v -0.024586 -0.091956 -0.014297
v -0.021585 -0.093615 -0.011656
v -0.021585 -0.094212 -0.010637
v -0.008309 -0.094007 -0.008175
v -0.008052 -0.094440 -0.007152
v -0.019548 -0.094234 -0.010676
v -0.017508 -0.094257 -0.010710
v -0.015465 -0.094181 -0.010589
v -0.014382 -0.092009 -0.014379
v -0.012217 -0.090034 -0.016517
v -0.010069 -0.088036 -0.018559
v -0.007973 -0.093882 -0.005656
v -0.006210 -0.067514 0.022642
v -0.014371 -0.073632 0.024573
v -0.014289 -0.081824 0.022560
v -0.017508 -0.090163 0.016608
v -0.015465 -0.081855 0.022589
v -0.021588 -0.091149 0.015372
v -0.019551 -0.090145 0.016589
v -0.023631 -0.090105 0.016545
v -0.023631 -0.091126 0.015343
v -0.024933 -0.090034 0.016473
v -0.028946 -0.086114 0.018611
v -0.035201 -0.076085 0.004327
v -0.035989 -0.074591 0.001021
v -0.035245 -0.077926 -0.002310
v -0.028975 -0.090176 -0.014514
v -0.023255 -0.087996 -0.018535
v -0.021585 -0.088089 -0.018622
v -0.019548 -0.088121 -0.018651
v -0.021585 -0.091987 -0.014340
v -0.017508 -0.093673 -0.011728
v -0.019548 -0.093646 -0.011699
v -0.008052 -0.085913 -0.020500
v -0.007626 -0.084812 -0.019413
v -0.006239 -0.069525 -0.022619
v -0.015465 -0.092036 -0.014412
v -0.011376 -0.088138 -0.018631
v -0.006239 -0.069525 -0.022440
v -0.006210 -0.067295 0.022642
v -0.007290 -0.067656 0.022951
v -0.006210 -0.067514 0.022386
v -0.006172 -0.053364 0.014465
v -0.014303 -0.072557 0.024617
v -0.015465 -0.072557 0.024723
v -0.015465 -0.073690 0.024607
v -0.019551 -0.081819 0.022560
v -0.021588 -0.081806 0.022541
v -0.025674 -0.081770 0.022507
v -0.017508 -0.073717 0.024612
v -0.019551 -0.073726 0.024602
v -0.026713 -0.081757 0.022488
v -0.029037 -0.084807 0.019022
v -0.035201 -0.075237 0.004327
v -0.035539 -0.074568 0.003116
v -0.029191 -0.072557 0.022980
v -0.028964 -0.056378 0.017211
v -0.028935 -0.054318 0.015121
v -0.028742 -0.053136 0.014305
v -0.029048 -0.052713 -0.011820
v -0.029048 -0.052713 -0.012887
v -0.029007 -0.054653 -0.015325
v -0.028838 -0.055085 -0.016435
v -0.028891 -0.066425 -0.022624
v -0.029083 -0.068468 -0.022836
v -0.035245 -0.077034 -0.002310
v -0.035510 -0.076464 -0.001190
v -0.028923 -0.078145 -0.022749
v -0.026947 -0.086194 -0.018723
v -0.025674 -0.086604 -0.018892
v -0.012503 -0.085886 -0.020475
v -0.011376 -0.085927 -0.020504
v -0.017508 -0.092027 -0.014398
v -0.009333 -0.085944 -0.020524
v -0.015465 -0.080120 -0.022643
v -0.014233 -0.080022 -0.022619
v -0.014371 -0.073668 -0.024569
v -0.007290 -0.069636 -0.023077
v -0.006239 -0.069404 -0.022619
v -0.006172 -0.053364 0.014132
v -0.007290 -0.067014 0.022951
v -0.006172 -0.052989 0.014465
v -0.014330 -0.071353 0.024592
v -0.015465 -0.071264 0.024631
v -0.017508 -0.072557 0.024713
v -0.021588 -0.073717 0.024583
v -0.023631 -0.073690 0.024559
v -0.024717 -0.073636 0.024539
v -0.029031 -0.073859 0.022806
v -0.029194 -0.070510 0.022970
v -0.029124 -0.068468 0.022869
v -0.028791 -0.057177 0.018428
v -0.024790 -0.072557 0.024559
v -0.028818 -0.055103 0.016429
v -0.011376 -0.052601 0.014885
v -0.019551 -0.050719 0.010888
v -0.020339 -0.050719 0.010704
v -0.021145 -0.050804 0.010598
v -0.024749 -0.051063 -0.012197
v -0.024749 -0.051063 -0.012327
v -0.023634 -0.051040 -0.012375
v -0.015462 -0.056998 -0.018752
v -0.017505 -0.057029 -0.018709
v -0.019548 -0.057061 -0.018660
v -0.023634 -0.060940 -0.021171
v -0.025164 -0.061061 -0.020915
v -0.028759 -0.065382 -0.022493
v -0.027884 -0.066359 -0.022851
v -0.024685 -0.073565 -0.024526
v -0.024685 -0.073574 -0.024526
v -0.023634 -0.073596 -0.024535
v -0.017505 -0.073694 -0.024584
v -0.015462 -0.073717 -0.024593
v -0.014371 -0.073480 -0.024569
v -0.007290 -0.069132 -0.023077
v -0.014210 -0.057065 -0.018646
v -0.014321 -0.051023 -0.012414
v -0.012205 -0.050724 -0.004666
v -0.010022 -0.050719 0.003854
v -0.006172 -0.052989 0.014132
v -0.014306 -0.063108 0.022584
v -0.009333 -0.066813 0.023168
v -0.007290 -0.052744 0.014721
v -0.010025 -0.050719 0.004028
v -0.010048 -0.050719 0.005109
v -0.010106 -0.050719 0.005404
v -0.010171 -0.050719 0.005718
v -0.015465 -0.062978 0.022642
v -0.017508 -0.071282 0.024621
v -0.017508 -0.062987 0.022642
v -0.019551 -0.071317 0.024607
v -0.023631 -0.071393 0.024573
v -0.019551 -0.072557 0.024689
v -0.023631 -0.072557 0.024612
v -0.024770 -0.071451 0.024549
v -0.028955 -0.067255 0.022686
v -0.024910 -0.063166 0.022565
v -0.023631 -0.063054 0.022613
v -0.015465 -0.056869 0.018558
v -0.009333 -0.052583 0.014899
v -0.015465 -0.050719 0.011052
v -0.020339 -0.050719 0.009850
v -0.015112 -0.050724 -0.004801
v -0.019548 -0.051014 -0.012433
v -0.014855 -0.050724 -0.004922
v -0.015462 -0.061788 -0.022281
v -0.017505 -0.051005 -0.012462
v -0.015462 -0.050987 -0.012481
v -0.019548 -0.066425 -0.023478
v -0.017505 -0.066425 -0.023555
v -0.023634 -0.073547 -0.024535
v -0.017505 -0.073462 -0.024584
v -0.015462 -0.073445 -0.024593
v -0.015462 -0.066425 -0.023493
v -0.009333 -0.068891 -0.023449
v -0.014333 -0.062965 -0.022551
v -0.012625 -0.050724 -0.004864
v -0.010638 -0.050719 0.003854
v -0.014233 -0.056931 0.018534
v -0.014035 -0.050733 0.010685
v -0.014178 -0.050719 0.010709
v -0.019551 -0.063010 0.022633
v -0.015462 -0.062809 -0.022575
f 1 2 3
f 1 3 4
f 1 4 5
f 1 5 6
f 1 6 7
f 1 7 8
f 1 8 2
f 2 8 9
f 2 9 10
f 2 10 11
f 2 11 12
f 2 12 13
f 2 13 14
f 2 14 3
f 3 14 15
f 3 15 4
f 4 15 16
f 4 16 5
f 5 16 17
f 5 17 18
f 5 18 6
f 6 18 19
f 6 19 20
f 6 20 21
f 6 21 7
f 7 22 8
f 7 21 22
f 8 22 9
f 9 22 23
f 9 23 24
f 9 24 25
f 9 25 10
f 10 25 26
f 10 26 27
f 10 27 28
f 10 28 11
f 11 29 14
f 11 14 13
f 11 13 12
f 11 28 30
f 11 30 29
f 14 29 31
f 14 31 32
f 14 32 33
f 14 33 34
f 14 34 35
f 14 35 15
f 15 35 36
f 15 36 37
f 15 37 16
f 16 37 38
f 16 38 17
f 17 38 39
f 17 39 19
f 17 19 18
f 19 39 40
f 19 40 20
f 20 40 41
f 20 41 42
f 20 42 21
f 21 43 44
f 21 44 22
f 21 42 45
f 21 45 46
f 21 46 47
f 21 47 48
f 21 48 49
f 21 49 50
f 21 50 43
f 22 44 23
f 23 44 51
f 23 51 52
f 23 52 24
f 24 52 53
f 24 53 54
f 24 54 25
f 25 54 27
f 25 27 26
f 27 55 28
f 27 54 56
f 27 56 55
f 28 55 30
f 29 30 57
f 29 57 31
f 30 55 58
f 30 58 59
f 30 59 57
f 31 57 60
f 31 60 32
f 32 60 59
f 32 59 61
f 32 61 33
f 33 61 62
f 33 62 63
f 33 63 34
f 34 63 35
f 35 63 64
f 35 64 65
f 35 65 36
f 36 65 37
f 37 65 38
f 38 65 66
f 38 66 39
f 39 66 40
f 40 66 67
f 40 67 68
f 40 68 69
f 40 69 70
f 40 70 71
f 40 71 72
f 40 72 41
f 41 72 42
f 42 72 45
f 43 50 73
f 43 73 44
f 44 73 74
f 44 74 75
f 44 75 51
f 45 72 71
f 45 71 46
f 46 71 48
f 46 48 47
f 48 76 49
f 48 71 76
f 49 76 77
f 49 77 50
f 50 77 73
f 51 75 78
f 51 78 52
f 52 79 120
f 52 120 80
f 52 80 53
f 52 78 75
f 52 75 81
f 52 81 119
f 52 119 82
f 52 82 121
f 52 121 79
f 53 80 83
f 53 83 84
f 53 84 85
f 53 85 54
f 54 85 56
f 55 56 86
f 55 86 87
f 55 87 88
f 55 88 58
f 56 85 89
f 56 89 90
f 56 90 86
f 57 59 60
f 58 88 59
f 59 88 91
f 59 91 61
f 61 91 62
f 62 91 92
f 62 92 63
f 63 93 94
f 63 94 64
f 63 92 95
f 63 95 93
f 64 94 96
f 64 96 97
f 64 97 98
f 64 98 99
f 64 99 100
f 64 100 101
f 64 101 102
f 64 102 103
f 64 103 104
f 64 104 105
f 64 105 106
f 64 106 65
f 65 106 105
f 65 105 104
f 65 104 107
f 65 107 66
f 66 107 108
f 66 108 109
f 66 109 67
f 67 109 107
f 67 107 110
f 67 110 68
f 68 110 111
f 68 111 69
f 69 77 76
f 69 76 112
f 69 112 70
f 69 111 113
f 69 113 77
f 70 112 71
f 71 112 76
f 73 77 113
f 73 113 114
f 73 114 115
f 73 115 116
f 73 116 117
f 73 117 75
f 73 75 74
f 75 117 154
f 75 154 118
f 75 118 159
f 75 159 119
f 75 119 81
f 79 121 120
f 80 120 83
f 82 119 159
f 82 159 121
f 83 120 122
f 83 122 84
f 84 123 124
f 84 124 90
f 84 90 89
f 84 89 85
f 84 122 123
f 86 88 87
f 86 90 125
f 86 125 88
f 88 125 126
f 88 126 91
f 90 124 125
f 91 126 127
f 91 127 95
f 91 95 128
f 91 128 92
f 92 128 95
f 93 95 129
f 93 129 130
f 93 130 94
f 94 130 131
f 94 131 96
f 95 127 132
f 95 132 129
f 96 131 133
f 96 133 97
f 97 133 98
f 98 133 134
f 98 134 135
f 98 135 136
f 98 136 137
f 98 137 138
f 98 138 99
f 99 138 139
f 99 139 100
f 100 139 102
f 100 102 101
f 102 139 140
f 102 140 141
f 102 141 142
f 102 142 143
f 102 143 144
f 102 144 145
f 102 145 146
f 102 146 103
f 103 146 147
f 103 147 148
f 103 148 104
f 104 148 149
f 104 149 107
f 107 149 114
f 107 114 110
f 107 109 108
f 110 114 111
f 111 114 113
f 114 149 150
f 114 150 151
f 114 151 152
f 114 152 116
f 114 116 115
f 116 152 192
f 116 192 153
f 116 153 154
f 116 154 117
f 118 154 155
f 118 155 156
f 118 156 157
f 118 157 158
f 118 158 159
f 120 160 161
f 120 161 122
f 120 121 162
f 120 162 160
f 121 159 158
f 121 158 163
f 121 163 164
f 121 164 165
f 121 165 166
f 121 166 162
f 122 161 167
f 122 167 123
f 123 168 124
f 123 167 169
f 123 169 168
f 124 168 170
f 124 170 171
f 124 171 172
f 124 172 125
f 125 172 126
f 126 172 173
f 126 173 127
f 127 173 132
f 129 132 174
f 129 174 130
f 130 174 175
f 130 175 131
f 131 176 177
f 131 177 178
f 131 178 134
f 131 134 133
f 131 175 176
f 132 173 174
f 134 179 180
f 134 180 135
f 134 178 179
f 135 180 200
f 135 200 166
f 135 166 165
f 135 165 164
f 135 164 163
f 135 163 158
f 135 158 197
f 135 197 181
f 135 181 136
f 136 181 139
f 136 139 138
f 136 138 137
f 139 181 182
f 139 182 140
f 140 183 141
f 140 182 184
f 140 184 183
f 141 185 142
f 141 183 186
f 141 186 187
f 141 187 156
f 141 156 155
f 141 155 185
f 142 185 143
f 143 185 144
f 144 185 146
f 144 146 145
f 146 185 188
f 146 188 147
f 147 188 148
f 148 188 189
f 148 189 190
f 148 190 150
f 148 150 149
f 150 190 191
f 150 191 151
f 151 191 192
f 151 192 152
f 153 192 189
f 153 189 193
f 153 193 194
f 153 194 154
f 154 195 155
f 154 194 195
f 155 195 185
f 156 187 157
f 157 187 196
f 157 196 158
f 158 196 184
f 158 184 197
f 160 198 167
f 160 167 161
f 160 162 198
f 162 166 199
f 162 199 200
f 162 200 179
f 162 179 198
f 166 200 199
f 167 178 169
f 167 198 178
f 168 169 201
f 168 201 177
f 168 177 170
f 169 178 201
f 170 177 171
f 171 174 173
f 171 173 172
f 171 177 174
f 174 177 176
f 174 176 175
f 177 201 178
f 178 198 179
f 179 200 180
f 181 197 182
f 182 197 184
f 183 184 187
f 183 187 186
f 184 196 187
f 185 195 202
f 185 202 189
f 185 189 188
f 189 202 193
f 189 192 191
f 189 191 190
f 193 202 195
f 193 195 194
