v -0.042920 -0.018488 0.019302
v -0.041940 -0.012836 0.021310
v -0.042598 -0.014467 0.017964
v -0.042281 -0.019108 0.013713
v -0.041386 -0.019720 0.025130
v -0.040766 -0.015365 0.025700
v -0.040662 -0.006462 0.022607
v -0.040742 -0.003923 0.019243
v -0.041576 -0.009019 0.016206
v -0.041121 -0.012567 0.013113
v -0.040051 -0.017200 0.009432
v -0.037754 -0.019553 0.005136
v -0.027786 -0.020257 -0.000770
v -0.031702 -0.020702 0.034445
v -0.038422 -0.017830 0.030216
v -0.038782 -0.013355 0.029049
v -0.039445 -0.009565 0.026881
v -0.038673 -0.004238 0.026862
v -0.038886 0.001117 0.023535
v -0.039662 0.000691 0.020636
v -0.038824 0.004638 0.019459
v -0.038048 0.007278 0.016224
v -0.040141 -0.003098 0.014969
v -0.040065 -0.007342 0.012599
v -0.038213 -0.003367 0.010557
v -0.037347 -0.007499 0.007696
v -0.037181 -0.012901 0.005855
v -0.033435 -0.019636 0.000728
v -0.035031 -0.016255 0.002434
v -0.022023 -0.020702 -0.000274
v -0.031456 -0.014809 0.000072
v -0.028672 -0.008222 -0.000304
v -0.019248 0.020388 -0.000353
v -0.017240 0.024789 -0.000409
v -0.006373 0.040827 -0.000688
v 0.005395 0.052872 -0.000833
v -0.026043 -0.020702 0.035492
v -0.028013 -0.014522 0.035421
v -0.030419 -0.009343 0.034892
v -0.032976 -0.015810 0.034147
v -0.035363 -0.011956 0.032630
v -0.036736 -0.007277 0.030734
v -0.036352 -0.002163 0.029873
v -0.037115 0.002831 0.026896
v -0.037162 0.006889 0.024574
v -0.037593 0.007834 0.022421
v -0.037541 0.009808 0.019298
v -0.035893 0.015867 0.017964
v -0.036532 0.011142 0.014529
v -0.038753 0.000913 0.013661
v -0.036419 0.005110 0.011083
v -0.035652 0.001126 0.008064
v -0.034993 -0.003154 0.005713
v -0.033862 -0.011150 0.002308
v -0.031991 -0.007333 0.001406
v -0.016677 -0.020702 0.001175
v 0.005456 0.046238 -0.000163
v -0.029912 -0.008787 -0.000021
v -0.026394 0.004267 -0.000014
v -0.022383 0.016043 -0.000081
v -0.015469 0.029681 -0.000371
v -0.004478 0.046016 -0.000599
v -0.001022 0.052872 -0.000431
v 0.003671 0.058607 -0.000192
v 0.004026 0.064008 0.002010
v 0.004746 0.068354 0.005374
v 0.004827 0.072106 0.009711
v 0.004656 0.073403 0.025089
v 0.005456 0.031859 0.034445
v -0.013310 -0.020702 0.033875
v -0.019229 -0.018599 0.036073
v -0.022871 -0.012243 0.036226
v -0.025958 -0.009565 0.035928
v -0.027606 -0.002867 0.035536
v -0.029344 0.003007 0.034683
v -0.031901 -0.003432 0.034039
v -0.033862 -0.006832 0.033264
v -0.034638 0.002173 0.030804
v -0.035169 0.009854 0.027071
v -0.035959 0.012615 0.023293
v -0.034018 0.019481 0.022410
v -0.033104 0.023659 0.018807
v -0.031626 0.026568 0.016087
v -0.034079 0.019721 0.015658
v -0.034207 0.015765 0.012737
v -0.034146 0.010530 0.009857
v -0.033379 0.005240 0.006403
v -0.032706 0.001821 0.004335
v -0.030646 -0.001329 0.001540
v -0.028885 -0.001088 0.000434
v -0.011771 -0.020702 0.003306
v 0.005456 0.039030 0.001406
v -0.027876 0.002840 0.000475
v -0.025134 0.011503 0.000515
v -0.022838 0.023770 0.001767
v -0.016648 0.033591 0.000542
v -0.012751 0.039502 0.000214
v -0.008267 0.043875 -0.000241
v -0.006936 0.048814 0.000162
v -0.005170 0.052974 0.001030
v -0.000723 0.060395 0.002475
v -0.001434 0.063406 0.005765
v 0.000328 0.067288 0.008165
v 0.000697 0.070744 0.012320
v 0.003543 0.073950 0.014421
v 0.003027 0.073903 0.018963
v 0.001365 0.071272 0.025163
v 0.003827 0.070725 0.029284
v 0.004429 0.067594 0.032511
v 0.004363 0.063091 0.034180
v 0.004628 0.047220 0.036285
v 0.004907 0.037770 0.036114
v -0.009938 -0.020702 0.031117
v 0.005456 0.026559 0.032112
v -0.018363 -0.011520 0.036412
v -0.003252 0.027448 0.037001
v -0.018912 0.003535 0.036837
v -0.022407 0.010623 0.036304
v -0.024528 0.004499 0.036036
v -0.025849 0.016182 0.034832
v -0.028269 0.010095 0.034508
v -0.032649 0.008094 0.031363
v -0.033194 0.015469 0.027496
v -0.031418 0.024271 0.024984
v -0.029950 0.028273 0.024604
v -0.028302 0.033906 0.022231
v -0.029207 0.033202 0.017763
v -0.031617 0.022473 0.012152
v -0.026787 0.035982 0.013907
v -0.028558 0.030914 0.012796
v -0.030035 0.019573 0.008120
v -0.030481 0.013264 0.005885
v -0.030769 0.007797 0.004145
v -0.026413 0.017164 0.002706
v -0.008148 -0.020702 0.005859
v 0.005456 0.032183 0.003437
v -0.027246 0.020379 0.004834
v -0.023472 0.029005 0.004547
v -0.020408 0.030561 0.002252
v -0.016994 0.037269 0.002054
v -0.014598 0.042402 0.002427
v -0.010914 0.047952 0.002300
v -0.008598 0.051973 0.002848
v -0.003531 0.057912 0.002975
v -0.007017 0.055614 0.004163
v -0.006278 0.059709 0.007070
v -0.004242 0.066741 0.012886
v -0.001022 0.071105 0.017122
v -0.001363 0.070438 0.021210
v -0.004289 0.067233 0.023773
v -0.004924 0.065129 0.027078
v -0.000453 0.068020 0.028714
v -0.002764 0.064879 0.030380
v -0.004734 0.061386 0.031870
v 0.000693 0.063378 0.033323
v -0.001969 0.059654 0.034057
v -0.000932 0.055605 0.035302
v 0.003946 0.058699 0.035175
v 0.004292 0.052946 0.035924
v -0.000965 0.046294 0.036487
v -0.004478 0.038594 0.036926
v 0.002577 0.041290 0.036602
v 0.000541 0.050203 0.036207
v 0.001209 0.035917 0.036755
v -0.000155 0.032350 0.036755
v -0.005454 -0.020702 0.025096
v 0.005456 0.021528 0.029094
v -0.012619 0.010067 0.037031
v -0.014404 0.005157 0.036941
v -0.006373 0.025012 0.037187
v -0.016857 0.010512 0.037004
v -0.016184 0.015867 0.037045
v -0.017974 0.016312 0.036844
v -0.020967 0.016090 0.036326
v -0.021980 0.021991 0.035574
v -0.023264 0.026930 0.034303
v -0.027857 0.019684 0.032798
v -0.030495 0.014366 0.031717
v -0.030481 0.021009 0.028744
v -0.027791 0.026754 0.029593
v -0.027720 0.031794 0.026303
v -0.025489 0.036222 0.026508
v -0.023321 0.041012 0.026069
v -0.026119 0.038965 0.021459
v -0.026654 0.038363 0.017316
v -0.028676 0.027662 0.010688
v -0.025177 0.035213 0.010457
v -0.023453 0.043097 0.015140
v -0.023325 0.040596 0.011999
v -0.026721 0.024817 0.006306
v -0.006164 -0.020702 0.009134
v 0.005456 0.026161 0.005654
v -0.024902 0.031497 0.007658
v -0.019854 0.036185 0.004357
v -0.018078 0.041967 0.005803
v -0.014626 0.046080 0.004722
v -0.013305 0.051630 0.007498
v -0.010923 0.054632 0.007368
v -0.008579 0.062044 0.012558
v -0.009555 0.058718 0.009849
v -0.004763 0.067881 0.017558
v -0.007590 0.065139 0.018345
v -0.010715 0.061757 0.019324
v -0.010014 0.061053 0.024850
v -0.007476 0.062016 0.028069
v -0.008750 0.058811 0.030171
v -0.009853 0.054373 0.032734
v -0.006226 0.055688 0.034083
v -0.004365 0.050398 0.035738
v -0.004478 0.042838 0.036636
v -0.007713 0.031905 0.037139
v -0.006699 0.046896 0.035965
v -0.004095 -0.020702 0.019283
v 0.005456 0.016794 0.025040
v -0.010388 0.025012 0.037232
v -0.012173 0.021658 0.037187
v -0.016634 0.020546 0.036848
v -0.016634 0.024789 0.036617
v -0.019097 0.027782 0.035831
v -0.015228 0.039910 0.035082
v -0.021493 0.031914 0.033942
v -0.020565 0.036871 0.032902
v -0.026882 0.023918 0.032239
v -0.024964 0.033035 0.029891
v -0.021564 0.040318 0.029750
v -0.019835 0.045738 0.027648
v -0.021545 0.046395 0.023065
v -0.024324 0.042615 0.020666
v -0.022658 0.045877 0.019403
v -0.019741 0.043505 0.009041
v -0.021928 0.037473 0.007554
v -0.019191 0.050240 0.015349
v -0.017756 0.047841 0.009995
v -0.004919 -0.020702 0.013035
v 0.005456 0.021148 0.009082
v -0.013007 0.057458 0.013422
v -0.016236 0.054289 0.014987
v -0.013978 0.058245 0.019570
v -0.015322 0.054493 0.025137
v -0.012173 0.056059 0.028654
v -0.014437 0.049583 0.031814
v -0.014641 0.045395 0.033919
v -0.010535 0.048517 0.034732
v -0.011501 0.035694 0.036516
v -0.013286 0.030126 0.036725
v -0.010843 0.042625 0.035753
v 0.005456 0.015849 0.016649
v 0.005456 0.014922 0.021493
v -0.016767 0.033350 0.035708
v -0.018779 0.040253 0.033118
v -0.018078 0.043755 0.031885
v -0.015791 0.051250 0.028546
v -0.017955 0.051037 0.024735
v -0.019627 0.050676 0.019895
v 0.005456 0.018183 0.012577
v -0.017098 0.054206 0.020152
f 1 2 3
f 1 3 4
f 1 4 5
f 1 5 2
f 2 5 6
f 2 6 7
f 2 7 8
f 2 8 3
f 3 8 9
f 3 9 4
f 4 9 10
f 4 10 11
f 4 11 12
f 4 12 5
f 5 12 13
f 5 13 14
f 5 14 15
f 5 15 16
f 5 16 6
f 6 16 17
f 6 17 18
f 6 18 7
f 7 18 19
f 7 19 20
f 7 20 8
f 8 20 21
f 8 21 22
f 8 22 9
f 9 22 23
f 9 23 24
f 9 24 10
f 10 24 11
f 11 24 25
f 11 25 26
f 11 26 27
f 11 27 12
f 12 28 13
f 12 27 29
f 12 29 28
f 13 30 14
f 13 28 31
f 13 31 32
f 13 32 33
f 13 33 34
f 13 34 35
f 13 35 36
f 13 36 30
f 14 37 38
f 14 38 39
f 14 39 40
f 14 40 15
f 14 30 56
f 14 56 91
f 14 91 135
f 14 135 191
f 14 191 234
f 14 234 213
f 14 213 166
f 14 166 113
f 14 113 70
f 14 70 37
f 15 40 41
f 15 41 42
f 15 42 16
f 16 42 18
f 16 18 17
f 18 42 43
f 18 43 44
f 18 44 19
f 19 44 45
f 19 45 46
f 19 46 20
f 20 46 47
f 20 47 21
f 21 47 22
f 22 47 48
f 22 48 49
f 22 49 50
f 22 50 23
f 23 50 24
f 24 50 25
f 25 50 51
f 25 51 52
f 25 52 26
f 26 52 53
f 26 53 27
f 27 53 54
f 27 54 29
f 28 29 55
f 28 55 31
f 29 54 55
f 30 36 57
f 30 57 56
f 31 55 58
f 31 58 32
f 32 58 59
f 32 59 60
f 32 60 33
f 33 60 34
f 34 60 61
f 34 61 35
f 35 61 62
f 35 62 36
f 36 62 63
f 36 63 64
f 36 64 65
f 36 65 66
f 36 66 67
f 36 67 68
f 36 68 69
f 36 69 57
f 37 70 71
f 37 71 72
f 37 72 73
f 37 73 38
f 38 73 39
f 39 73 74
f 39 74 75
f 39 75 76
f 39 76 40
f 40 76 77
f 40 77 41
f 41 77 42
f 42 77 78
f 42 78 43
f 43 78 44
f 44 78 79
f 44 79 45
f 45 79 80
f 45 80 46
f 46 80 81
f 46 81 47
f 47 81 48
f 48 81 82
f 48 82 83
f 48 83 84
f 48 84 49
f 49 84 85
f 49 85 51
f 49 51 50
f 51 85 86
f 51 86 52
f 52 86 87
f 52 87 53
f 53 87 88
f 53 88 54
f 54 88 89
f 54 89 55
f 55 89 90
f 55 90 58
f 56 57 91
f 57 69 114
f 57 114 167
f 57 167 214
f 57 214 248
f 57 248 247
f 57 247 255
f 57 255 235
f 57 235 192
f 57 192 136
f 57 136 92
f 57 92 91
f 58 90 59
f 59 93 94
f 59 94 60
f 59 90 93
f 60 95 96
f 60 96 61
f 60 94 95
f 61 96 97
f 61 97 98
f 61 98 62
f 62 98 63
f 63 98 99
f 63 99 64
f 64 99 100
f 64 100 65
f 65 101 66
f 65 100 101
f 66 101 102
f 66 102 103
f 66 103 67
f 67 103 104
f 67 104 105
f 67 105 68
f 68 105 106
f 68 106 107
f 68 107 108
f 68 108 109
f 68 109 69
f 69 109 110
f 69 110 111
f 69 111 112
f 69 112 70
f 69 70 113
f 69 113 114
f 70 112 71
f 71 115 72
f 71 112 116
f 71 116 115
f 72 115 117
f 72 117 73
f 73 117 118
f 73 118 119
f 73 119 74
f 74 119 75
f 75 119 118
f 75 118 120
f 75 120 121
f 75 121 76
f 76 121 77
f 77 121 122
f 77 122 78
f 78 122 79
f 79 122 123
f 79 123 80
f 80 123 124
f 80 124 81
f 81 124 125
f 81 125 126
f 81 126 82
f 82 126 127
f 82 127 83
f 83 128 84
f 83 127 129
f 83 129 130
f 83 130 128
f 84 128 85
f 85 128 86
f 86 128 131
f 86 131 132
f 86 132 87
f 87 132 133
f 87 133 88
f 88 133 89
f 89 133 134
f 89 134 93
f 89 93 90
f 91 92 135
f 92 136 135
f 93 134 94
f 94 134 95
f 95 134 137
f 95 137 138
f 95 138 139
f 95 139 96
f 96 139 140
f 96 140 97
f 97 141 99
f 97 99 98
f 97 140 141
f 99 142 100
f 99 141 142
f 100 142 143
f 100 143 101
f 101 143 144
f 101 144 145
f 101 145 102
f 102 145 146
f 102 146 103
f 103 147 104
f 103 146 147
f 104 148 105
f 104 147 148
f 105 148 106
f 106 148 149
f 106 149 107
f 107 149 150
f 107 150 151
f 107 151 152
f 107 152 108
f 108 152 153
f 108 153 109
f 109 153 154
f 109 154 155
f 109 155 110
f 110 155 156
f 110 156 157
f 110 157 158
f 110 158 159
f 110 159 111
f 111 160 161
f 111 161 162
f 111 162 112
f 111 159 163
f 111 163 160
f 112 162 164
f 112 164 165
f 112 165 116
f 113 166 114
f 114 166 167
f 115 168 169
f 115 169 117
f 115 116 168
f 116 165 164
f 116 164 170
f 116 170 168
f 117 169 171
f 117 171 172
f 117 172 173
f 117 173 118
f 118 173 174
f 118 174 175
f 118 175 120
f 120 175 176
f 120 176 121
f 121 176 177
f 121 177 122
f 122 177 178
f 122 178 123
f 123 178 179
f 123 179 124
f 124 179 180
f 124 180 181
f 124 181 125
f 125 181 126
f 126 181 182
f 126 182 183
f 126 183 184
f 126 184 127
f 127 184 185
f 127 185 129
f 128 130 186
f 128 186 131
f 129 187 130
f 129 185 188
f 129 188 189
f 129 189 187
f 130 187 186
f 131 186 190
f 131 190 137
f 131 137 132
f 132 137 133
f 133 137 134
f 135 136 192
f 135 192 191
f 137 190 138
f 138 193 194
f 138 194 139
f 138 190 193
f 139 194 140
f 140 194 141
f 141 194 195
f 141 195 196
f 141 196 142
f 142 196 143
f 143 196 197
f 143 197 198
f 143 198 145
f 143 145 144
f 145 198 146
f 146 199 147
f 146 198 200
f 146 200 199
f 147 201 148
f 147 199 201
f 148 201 149
f 149 201 202
f 149 202 150
f 150 202 203
f 150 203 204
f 150 204 151
f 151 204 205
f 151 205 153
f 151 153 152
f 153 205 206
f 153 206 154
f 154 206 207
f 154 207 208
f 154 208 156
f 154 156 155
f 156 208 157
f 157 208 209
f 157 209 163
f 157 163 158
f 158 163 159
f 160 210 161
f 160 163 210
f 161 210 211
f 161 211 170
f 161 170 164
f 161 164 162
f 163 209 212
f 163 212 210
f 166 213 214
f 166 214 167
f 168 171 169
f 168 170 215
f 168 215 216
f 168 216 171
f 170 211 215
f 171 216 172
f 172 216 215
f 172 215 217
f 172 217 173
f 173 217 218
f 173 218 174
f 174 218 219
f 174 219 175
f 175 219 176
f 176 219 220
f 176 220 221
f 176 221 222
f 176 222 223
f 176 223 177
f 177 223 178
f 178 223 179
f 179 223 180
f 180 224 181
f 180 223 224
f 181 224 182
f 182 224 225
f 182 225 183
f 183 225 226
f 183 226 227
f 183 227 184
f 184 227 228
f 184 228 185
f 185 228 229
f 185 229 188
f 186 187 193
f 186 193 190
f 187 189 230
f 187 230 231
f 187 231 193
f 188 229 232
f 188 232 189
f 189 232 233
f 189 233 230
f 191 192 235
f 191 235 234
f 193 231 194
f 194 231 195
f 195 230 196
f 195 231 230
f 196 230 233
f 196 233 197
f 197 233 236
f 197 236 200
f 197 200 198
f 199 202 201
f 199 200 236
f 199 236 202
f 202 236 237
f 202 237 238
f 202 238 203
f 203 238 204
f 204 238 239
f 204 239 240
f 204 240 205
f 205 240 206
f 206 240 241
f 206 241 207
f 207 241 242
f 207 242 208
f 208 242 243
f 208 243 209
f 209 243 212
f 210 212 244
f 210 244 211
f 211 244 245
f 211 245 215
f 212 246 244
f 212 243 246
f 213 234 247
f 213 247 248
f 213 248 214
f 215 245 217
f 217 245 218
f 218 245 244
f 218 244 219
f 219 244 249
f 219 249 220
f 220 246 243
f 220 243 242
f 220 242 221
f 220 249 246
f 221 242 250
f 221 250 222
f 222 250 224
f 222 224 223
f 224 250 225
f 225 250 251
f 225 251 226
f 226 251 252
f 226 252 253
f 226 253 227
f 227 229 228
f 227 253 254
f 227 254 229
f 229 254 232
f 232 254 237
f 232 237 233
f 233 237 236
f 234 235 255
f 234 255 247
f 237 256 238
f 237 254 256
f 238 256 239
f 239 256 253
f 239 253 252
f 239 252 240
f 240 252 241
f 241 252 251
f 241 251 242
f 242 251 250
f 244 246 249
f 253 256 254
