v -0.043785 -0.028152 0.017933
v -0.043758 -0.032277 0.017141
v -0.043730 -0.035901 0.017075
v -0.043583 -0.035901 0.018849
v -0.043210 -0.032778 0.021527
v -0.043148 -0.027427 0.021527
v -0.043315 -0.022062 0.018852
v -0.043287 -0.024528 0.015291
v -0.043420 -0.037015 0.014846
v -0.043082 -0.041259 0.014397
v -0.042810 -0.046610 0.016348
v -0.043443 -0.039922 0.017962
v -0.043027 -0.037687 0.021527
v -0.042025 -0.032800 0.025081
v -0.041854 -0.027427 0.025262
v -0.042503 -0.022062 0.022638
v -0.042565 -0.021195 0.013844
v -0.041939 -0.025641 0.011198
v -0.042557 -0.030349 0.012146
v -0.042297 -0.035550 0.011430
v -0.041729 -0.040811 0.010510
v -0.042165 -0.046154 0.012649
v -0.041994 -0.051751 0.014281
v -0.041706 -0.055532 0.016630
v -0.042161 -0.051385 0.018042
v -0.042487 -0.043464 0.021777
v -0.041496 -0.037463 0.025769
v -0.039798 -0.033450 0.029102
v -0.039802 -0.028765 0.029138
v -0.040836 -0.021845 0.026800
v -0.036332 -0.021614 0.032663
v -0.027780 -0.020702 0.035236
v -0.026009 -0.020702 -0.000807
v -0.037385 -0.021830 0.004278
v -0.040599 -0.022062 0.009135
v -0.039165 -0.027427 0.005921
v -0.040086 -0.032778 0.007047
v -0.040004 -0.037687 0.007090
v -0.039888 -0.041259 0.007155
v -0.040688 -0.045272 0.009070
v -0.041310 -0.051071 0.011723
v -0.040917 -0.055330 0.012161
v -0.040913 -0.059194 0.014535
v -0.041286 -0.055532 0.019743
v -0.039989 -0.064626 0.015975
v -0.040855 -0.047947 0.024788
v -0.040603 -0.042597 0.026804
v -0.037028 -0.026426 0.032113
v -0.039596 -0.038913 0.028881
v -0.038773 -0.022069 0.030231
v -0.036068 -0.033069 0.032381
v -0.033212 -0.027211 0.033923
v -0.031169 -0.023295 0.034542
v -0.029117 -0.029430 0.034802
v -0.025993 -0.025193 0.035417
v -0.023708 -0.021980 0.035765
v -0.018832 -0.021696 0.035895
v -0.013699 -0.020702 0.034140
v -0.022034 -0.020702 -0.000275
v -0.022453 -0.031440 -0.000611
v -0.025993 -0.034115 -0.001078
v -0.026218 -0.030551 -0.001028
v -0.026887 -0.025193 -0.000981
v -0.029564 -0.022069 -0.000818
v -0.033675 -0.022025 0.000681
v -0.036325 -0.026090 0.002508
v -0.037498 -0.032554 0.003558
v -0.037517 -0.039697 0.003771
v -0.038749 -0.046206 0.005947
v -0.039961 -0.050189 0.008570
v -0.039146 -0.053873 0.007908
v -0.037537 -0.062190 0.007427
v -0.039138 -0.065762 0.012309
v -0.040362 -0.059336 0.020615
v -0.040055 -0.054284 0.024198
v -0.038462 -0.069147 0.013246
v -0.038376 -0.069155 0.018610
v -0.038780 -0.065568 0.020988
v -0.039079 -0.048044 0.028045
v -0.038357 -0.054732 0.027242
v -0.037696 -0.044487 0.030137
v -0.035054 -0.042791 0.031936
v -0.033414 -0.037583 0.033123
v -0.032105 -0.031889 0.033995
v -0.027780 -0.034115 0.034762
v -0.024213 -0.030103 0.035403
v -0.020650 -0.030103 0.035483
v -0.017969 -0.031440 0.035037
v -0.009938 -0.020709 0.031118
v -0.006185 -0.020702 0.026681
v -0.017969 -0.060868 0.031552
v -0.014997 -0.063700 0.029670
v -0.013233 -0.067929 0.027958
v -0.010222 -0.065777 0.025928
v -0.016679 -0.020702 0.001176
v -0.016128 -0.057789 0.000482
v -0.020985 -0.052408 -0.000648
v -0.030007 -0.036126 -0.000991
v -0.025772 -0.052408 -0.001049
v -0.029284 -0.044547 -0.001049
v -0.031720 -0.028092 -0.000478
v -0.033212 -0.032337 -0.000079
v -0.034957 -0.035677 0.001133
v -0.035598 -0.046811 0.002277
v -0.038038 -0.050623 0.005603
v -0.034716 -0.068960 0.005838
v -0.036880 -0.069924 0.009414
v -0.034530 -0.059343 0.003066
v -0.037172 -0.072435 0.012233
v -0.038703 -0.062624 0.023170
v -0.038520 -0.058573 0.025599
v -0.035513 -0.076979 0.012827
v -0.036954 -0.073040 0.018176
v -0.036729 -0.069872 0.022468
v -0.037086 -0.053746 0.028993
v -0.036814 -0.062257 0.026594
v -0.035023 -0.049397 0.030933
v -0.032237 -0.041259 0.033192
v -0.028709 -0.038106 0.034263
v -0.024213 -0.034115 0.035117
v -0.024213 -0.039025 0.034621
v -0.020650 -0.034115 0.035160
v -0.018545 -0.038980 0.034321
v -0.007953 -0.067107 0.023239
v -0.004700 -0.020709 0.023481
v -0.004094 -0.020709 0.019290
v -0.006161 -0.020702 0.009139
v -0.006472 -0.071150 0.019920
v -0.020658 -0.057363 0.032305
v -0.020650 -0.062653 0.031567
v -0.018451 -0.065740 0.030832
v -0.015836 -0.071090 0.028975
v -0.013307 -0.074505 0.026768
v -0.011391 -0.071426 0.026029
v -0.008446 -0.072248 0.022910
v -0.011780 -0.020702 0.003301
v -0.011450 -0.060591 0.002523
v -0.013964 -0.064439 0.001441
v -0.018304 -0.063012 0.000120
v -0.020650 -0.057759 -0.000579
v -0.030458 -0.051071 -0.000709
v -0.025772 -0.057535 -0.000941
v -0.033585 -0.041476 0.000304
v -0.033267 -0.050720 0.000789
v -0.030722 -0.075178 0.004104
v -0.033671 -0.074864 0.007170
v -0.033232 -0.064507 0.002925
v -0.031930 -0.067727 0.002657
v -0.032319 -0.079407 0.007821
v -0.033271 -0.080827 0.010536
v -0.031646 -0.055330 0.000163
v -0.036589 -0.065785 0.025313
v -0.031165 -0.086334 0.013018
v -0.035380 -0.076837 0.017962
v -0.033411 -0.078085 0.021342
v -0.034296 -0.074199 0.023228
v -0.036325 -0.057744 0.028454
v -0.033752 -0.064402 0.028306
v -0.034157 -0.055338 0.030228
v -0.034467 -0.068243 0.026543
v -0.031767 -0.045825 0.032638
v -0.028383 -0.042365 0.033811
v -0.023724 -0.043867 0.034060
v -0.008034 -0.076127 0.021433
v -0.005800 -0.067899 0.017821
v -0.005746 -0.068004 0.012613
v -0.004918 -0.020717 0.013033
v -0.005975 -0.074109 0.015881
v -0.008147 -0.020702 0.005860
v -0.007102 -0.067115 0.007438
v -0.007595 -0.080976 0.019001
v -0.006402 -0.078174 0.016543
v -0.024213 -0.062653 0.031255
v -0.022636 -0.065971 0.030836
v -0.019310 -0.071576 0.029732
v -0.024656 -0.054179 0.032558
v -0.017336 -0.081260 0.026677
v -0.013089 -0.080513 0.025070
v -0.011205 -0.074968 0.025143
v -0.010020 -0.080349 0.022696
v -0.009596 -0.064761 0.003851
v -0.009623 -0.071538 0.004412
v -0.014853 -0.068923 0.001466
v -0.018863 -0.071576 0.000695
v -0.019652 -0.068251 0.000268
v -0.022877 -0.062653 -0.000543
v -0.028495 -0.061316 -0.000344
v -0.025993 -0.065329 -0.000398
v -0.027773 -0.073564 0.001553
v -0.025795 -0.084444 0.003822
v -0.028394 -0.085871 0.006844
v -0.028954 -0.067249 0.000666
v -0.030322 -0.086857 0.010561
v -0.028573 -0.090878 0.012899
v -0.027858 -0.091468 0.016258
v -0.029533 -0.087717 0.018252
v -0.031394 -0.081477 0.021567
v -0.031483 -0.078929 0.023449
v -0.031650 -0.070791 0.027412
v -0.029276 -0.066367 0.029493
v -0.029253 -0.053881 0.031863
v -0.006064 -0.071935 0.011849
v -0.007001 -0.071576 0.008183
v -0.006954 -0.082733 0.013728
v -0.006632 -0.078652 0.011744
v -0.007401 -0.076926 0.008151
v -0.008092 -0.085916 0.017716
v -0.008019 -0.087948 0.014795
v -0.024206 -0.072077 0.029200
v -0.020250 -0.075013 0.028827
v -0.020965 -0.081918 0.026507
v -0.019302 -0.089353 0.023543
v -0.016528 -0.084451 0.025349
v -0.014391 -0.087889 0.023326
v -0.010672 -0.084220 0.022019
v -0.010661 -0.086282 0.005928
v -0.013241 -0.084690 0.003996
v -0.017080 -0.084511 0.002660
v -0.022990 -0.073586 0.000579
v -0.023763 -0.068392 -0.000079
v -0.018191 -0.080670 0.001951
v -0.022978 -0.083906 0.002440
v -0.024213 -0.088389 0.004553
v -0.023514 -0.092798 0.006576
v -0.027155 -0.090803 0.008874
v -0.024509 -0.095705 0.012613
v -0.025538 -0.094330 0.016373
v -0.026564 -0.090527 0.020061
v -0.027808 -0.080536 0.025110
v -0.029715 -0.076216 0.026102
v -0.027551 -0.072592 0.028338
v -0.007988 -0.087545 0.011372
v -0.007887 -0.083809 0.008954
v -0.010618 -0.089443 0.019627
v -0.009713 -0.092604 0.014835
v -0.009336 -0.091498 0.010688
v -0.024618 -0.076934 0.027553
v -0.021874 -0.085438 0.024998
v -0.022601 -0.092865 0.020680
v -0.018319 -0.094323 0.020380
v -0.014131 -0.091236 0.021661
v -0.024668 -0.086984 0.023503
v -0.010571 -0.090855 0.007467
v -0.014601 -0.091722 0.005020
v -0.016944 -0.088232 0.003333
v -0.020204 -0.087194 0.002801
v -0.018960 -0.091214 0.003789
v -0.019788 -0.094397 0.005639
v -0.021000 -0.096415 0.009479
v -0.020650 -0.097035 0.015121
v -0.013128 -0.093949 0.018860
v -0.012005 -0.095145 0.014307
v -0.013307 -0.094270 0.008093
v -0.016093 -0.096677 0.015896
v -0.016497 -0.095272 0.007289
v -0.015848 -0.096228 0.010872
f 1 2 3
f 1 3 4
f 1 4 5
f 1 5 6
f 1 6 7
f 1 7 8
f 1 8 2
f 2 8 9
f 2 9 3
f 3 9 10
f 3 10 11
f 3 11 12
f 3 12 4
f 4 12 13
f 4 13 5
f 5 13 14
f 5 14 6
f 6 14 15
f 6 15 16
f 6 16 7
f 7 16 17
f 7 17 8
f 8 17 18
f 8 18 19
f 8 19 9
f 9 19 20
f 9 20 10
f 10 20 21
f 10 21 22
f 10 22 23
f 10 23 11
f 11 23 24
f 11 24 25
f 11 25 12
f 12 25 26
f 12 26 13
f 13 26 27
f 13 27 14
f 14 28 29
f 14 29 15
f 14 27 28
f 15 29 30
f 15 30 16
f 16 30 17
f 17 31 32
f 17 32 33
f 17 33 34
f 17 34 35
f 17 35 18
f 17 30 31
f 18 35 36
f 18 36 37
f 18 37 19
f 19 37 20
f 20 37 21
f 21 38 39
f 21 39 40
f 21 40 41
f 21 41 22
f 21 37 38
f 22 41 23
f 23 41 42
f 23 42 43
f 23 43 24
f 24 44 25
f 24 43 45
f 24 45 44
f 25 44 26
f 26 46 47
f 26 47 27
f 26 44 46
f 27 47 28
f 28 48 29
f 28 47 49
f 28 49 48
f 29 48 50
f 29 50 30
f 30 50 31
f 31 50 48
f 31 48 51
f 31 51 52
f 31 52 53
f 31 53 32
f 32 53 54
f 32 54 55
f 32 55 56
f 32 56 57
f 32 57 58
f 32 58 90
f 32 90 127
f 32 127 169
f 32 169 136
f 32 136 95
f 32 95 59
f 32 59 33
f 33 59 60
f 33 60 61
f 33 61 62
f 33 62 63
f 33 63 64
f 33 64 65
f 33 65 34
f 34 65 66
f 34 66 36
f 34 36 35
f 36 67 37
f 36 66 67
f 37 67 68
f 37 68 38
f 38 68 39
f 39 68 69
f 39 69 40
f 40 69 70
f 40 70 41
f 41 70 71
f 41 71 42
f 42 71 72
f 42 72 73
f 42 73 43
f 43 73 45
f 44 45 74
f 44 74 75
f 44 75 46
f 45 73 76
f 45 76 77
f 45 77 78
f 45 78 74
f 46 79 47
f 46 75 80
f 46 80 79
f 47 79 49
f 48 49 81
f 48 81 51
f 49 79 81
f 51 81 82
f 51 82 83
f 51 83 52
f 52 83 84
f 52 84 54
f 52 54 53
f 54 84 85
f 54 85 55
f 55 85 86
f 55 86 56
f 56 86 57
f 57 86 87
f 57 87 88
f 57 88 58
f 58 89 90
f 58 88 91
f 58 91 92
f 58 92 93
f 58 93 94
f 58 94 89
f 59 95 96
f 59 96 60
f 60 96 97
f 60 97 61
f 61 98 63
f 61 63 62
f 61 97 99
f 61 99 100
f 61 100 98
f 63 98 64
f 64 98 101
f 64 101 65
f 65 101 102
f 65 102 66
f 66 102 103
f 66 103 67
f 67 103 68
f 68 104 69
f 68 103 104
f 69 104 105
f 69 105 71
f 69 71 70
f 71 105 72
f 72 106 107
f 72 107 73
f 72 105 108
f 72 108 106
f 73 107 109
f 73 109 76
f 74 78 110
f 74 110 75
f 75 110 111
f 75 111 80
f 76 109 112
f 76 112 113
f 76 113 77
f 77 113 114
f 77 114 78
f 78 114 110
f 79 80 115
f 79 115 81
f 80 111 116
f 80 116 115
f 81 115 117
f 81 117 82
f 82 117 118
f 82 118 83
f 83 118 84
f 84 118 119
f 84 119 85
f 85 120 86
f 85 119 121
f 85 121 120
f 86 120 87
f 87 120 122
f 87 122 88
f 88 122 123
f 88 123 91
f 89 94 124
f 89 124 90
f 90 125 126
f 90 126 127
f 90 124 128
f 90 128 125
f 91 123 129
f 91 129 130
f 91 130 131
f 91 131 132
f 91 132 92
f 92 132 93
f 93 132 133
f 93 133 134
f 93 134 94
f 94 134 135
f 94 135 124
f 95 136 96
f 96 137 138
f 96 138 139
f 96 139 140
f 96 140 97
f 96 136 137
f 97 140 99
f 98 102 101
f 98 100 141
f 98 141 102
f 99 140 142
f 99 142 100
f 100 142 141
f 102 141 143
f 102 143 103
f 103 143 104
f 104 143 144
f 104 144 108
f 104 108 105
f 106 145 146
f 106 146 107
f 106 108 147
f 106 147 148
f 106 148 145
f 107 146 149
f 107 149 150
f 107 150 109
f 108 144 151
f 108 151 147
f 109 150 112
f 110 114 152
f 110 152 111
f 111 152 116
f 112 150 153
f 112 153 154
f 112 154 113
f 113 154 114
f 114 154 155
f 114 155 156
f 114 156 152
f 115 116 157
f 115 157 158
f 115 158 159
f 115 159 117
f 116 152 160
f 116 160 157
f 117 161 118
f 117 159 161
f 118 161 162
f 118 162 119
f 119 162 121
f 120 121 122
f 121 162 163
f 121 163 122
f 122 163 129
f 122 129 123
f 124 135 164
f 124 164 128
f 125 128 165
f 125 165 126
f 126 166 167
f 126 167 127
f 126 165 168
f 126 168 166
f 127 167 170
f 127 170 169
f 128 164 171
f 128 171 172
f 128 172 165
f 129 163 130
f 130 173 174
f 130 174 175
f 130 175 131
f 130 163 176
f 130 176 173
f 131 175 132
f 132 175 177
f 132 177 178
f 132 178 133
f 133 179 134
f 133 178 179
f 134 179 135
f 135 179 180
f 135 180 164
f 136 169 137
f 137 169 181
f 137 181 138
f 138 181 182
f 138 182 183
f 138 183 139
f 139 183 184
f 139 184 185
f 139 185 140
f 140 185 186
f 140 186 142
f 141 142 187
f 141 187 151
f 141 151 143
f 142 186 188
f 142 188 187
f 143 151 144
f 145 148 189
f 145 189 190
f 145 190 191
f 145 191 149
f 145 149 146
f 147 151 148
f 148 151 192
f 148 192 189
f 149 191 193
f 149 193 150
f 150 193 153
f 151 187 192
f 152 156 160
f 153 193 194
f 153 194 195
f 153 195 196
f 153 196 154
f 154 196 155
f 155 196 197
f 155 197 156
f 156 197 198
f 156 198 160
f 157 160 158
f 158 160 199
f 158 199 200
f 158 200 159
f 159 201 161
f 159 200 201
f 160 198 199
f 161 201 162
f 162 201 176
f 162 176 163
f 164 180 171
f 165 172 168
f 166 168 202
f 166 202 203
f 166 203 170
f 166 170 167
f 168 172 204
f 168 204 205
f 168 205 202
f 169 170 181
f 170 203 206
f 170 206 182
f 170 182 181
f 171 180 207
f 171 207 172
f 172 207 208
f 172 208 204
f 173 200 174
f 173 176 201
f 173 201 200
f 174 200 209
f 174 209 210
f 174 210 175
f 175 210 177
f 177 211 212
f 177 212 213
f 177 213 178
f 177 210 211
f 178 213 214
f 178 214 215
f 178 215 180
f 178 180 179
f 180 215 207
f 182 206 216
f 182 216 217
f 182 217 183
f 183 217 218
f 183 218 184
f 184 219 220
f 184 220 185
f 184 218 221
f 184 221 219
f 185 220 186
f 186 220 188
f 187 188 192
f 188 220 219
f 188 219 222
f 188 222 189
f 188 189 192
f 189 222 190
f 190 222 223
f 190 223 191
f 191 223 224
f 191 224 225
f 191 225 193
f 193 225 194
f 194 225 226
f 194 226 227
f 194 227 195
f 195 228 196
f 195 227 228
f 196 228 197
f 197 228 198
f 198 228 229
f 198 229 230
f 198 230 199
f 199 230 231
f 199 231 200
f 200 231 209
f 202 205 206
f 202 206 203
f 204 208 232
f 204 232 205
f 205 232 233
f 205 233 206
f 206 233 216
f 207 215 234
f 207 234 235
f 207 235 208
f 208 235 236
f 208 236 232
f 209 231 237
f 209 237 211
f 209 211 210
f 211 237 238
f 211 238 212
f 212 239 240
f 212 240 241
f 212 241 214
f 212 214 213
f 212 238 242
f 212 242 239
f 214 241 215
f 215 241 234
f 216 233 243
f 216 243 244
f 216 244 217
f 217 244 245
f 217 245 218
f 218 245 246
f 218 246 221
f 219 221 246
f 219 246 222
f 222 246 247
f 222 247 223
f 223 247 248
f 223 248 224
f 224 248 249
f 224 249 226
f 224 226 225
f 226 249 250
f 226 250 227
f 227 250 239
f 227 239 228
f 228 239 242
f 228 242 229
f 229 237 231
f 229 231 230
f 229 242 238
f 229 238 237
f 232 236 233
f 233 236 243
f 234 241 251
f 234 251 235
f 235 251 252
f 235 252 236
f 236 252 253
f 236 253 243
f 239 250 240
f 240 251 241
f 240 250 254
f 240 254 251
f 243 253 244
f 244 253 255
f 244 255 248
f 244 248 247
f 244 247 245
f 245 247 246
f 248 255 249
f 249 256 250
f 249 255 256
f 250 256 254
f 251 254 252
f 252 254 256
f 252 256 253
f 253 256 255
