v -0.051631 -0.029611 0.011867
v -0.051364 -0.029604 0.010896
v -0.051275 -0.030233 0.011241
v -0.051340 -0.030392 0.011867
v -0.051300 -0.030004 0.012679
v -0.051411 -0.028932 0.012414
v -0.051628 -0.028932 0.011867
v -0.051496 -0.028932 0.010958
v -0.050564 -0.029616 0.010109
v -0.050814 -0.030291 0.010629
v -0.050882 -0.028932 0.010239
v -0.050406 -0.030973 0.010871
v -0.050701 -0.031192 0.011895
v -0.050818 -0.030998 0.012501
v -0.050745 -0.029584 0.013407
v -0.050910 -0.030195 0.013188
v -0.050686 -0.026397 0.012724
v -0.051044 -0.026206 0.011867
v -0.051249 -0.026923 0.011594
v -0.051508 -0.028252 0.011188
v -0.051359 -0.028252 0.010749
v -0.050726 -0.028252 0.010081
v -0.050270 -0.028932 0.009874
v -0.049590 -0.029611 0.009805
v -0.050233 -0.030266 0.010170
v -0.050724 -0.026888 0.010063
v -0.049573 -0.030736 0.010270
v -0.049893 -0.031391 0.011096
v -0.049590 -0.031577 0.011867
v -0.050270 -0.031325 0.012554
v -0.050506 -0.030845 0.013080
v -0.049993 -0.030198 0.013524
v -0.049590 -0.028932 0.013754
v -0.048295 -0.024167 0.014264
v -0.048392 -0.023488 0.014169
v -0.049414 -0.024849 0.013710
v -0.046639 -0.013435 0.013419
v -0.047178 -0.013584 0.012640
v -0.048069 -0.014548 0.011406
v -0.048355 -0.014646 0.010507
v -0.051103 -0.026206 0.011188
v -0.051296 -0.027550 0.010868
v -0.051016 -0.026888 0.010507
v -0.050794 -0.026206 0.010301
v -0.050270 -0.027568 0.009778
v -0.050270 -0.028252 0.009820
v -0.050054 -0.026888 0.009628
v -0.049610 -0.027636 0.009518
v -0.049590 -0.028252 0.009584
v -0.049590 -0.028932 0.009676
v -0.048911 -0.029611 0.009861
v -0.046469 -0.022796 0.008126
v -0.045508 -0.023488 0.008294
v -0.047755 -0.013999 0.009418
v -0.048524 -0.021444 0.008844
v -0.049842 -0.024849 0.009557
v -0.049866 -0.025529 0.009526
v -0.049866 -0.026206 0.009514
v -0.049139 -0.031376 0.010995
v -0.048760 -0.030331 0.010190
v -0.048898 -0.031290 0.011867
v -0.049034 -0.031174 0.012432
v -0.049590 -0.031333 0.012612
v -0.049359 -0.030817 0.013025
v -0.049377 -0.029496 0.013639
v -0.047298 -0.024819 0.014221
v -0.048064 -0.024723 0.014292
v -0.046189 -0.019405 0.014664
v -0.049120 -0.024167 0.013806
v -0.046777 -0.019405 0.014419
v -0.047265 -0.020261 0.014285
v -0.042977 -0.011150 0.015041
v -0.043407 -0.010614 0.014679
v -0.043830 -0.010196 0.014265
v -0.045256 -0.010772 0.013415
v -0.046625 -0.012597 0.012864
v -0.047996 -0.014002 0.011147
v -0.048043 -0.013765 0.010604
v -0.047936 -0.013543 0.010054
v -0.048191 -0.014646 0.009827
v -0.048548 -0.023488 0.008816
v -0.047549 -0.022803 0.008366
v -0.046926 -0.022124 0.008112
v -0.044827 -0.023488 0.008419
v -0.046189 -0.022124 0.007980
v -0.045508 -0.022124 0.007964
v -0.045232 -0.022775 0.008136
v -0.047389 -0.012990 0.009770
v -0.046753 -0.012725 0.009339
v -0.046885 -0.013264 0.009121
v -0.046718 -0.013772 0.008797
v -0.047142 -0.014686 0.008765
v -0.048072 -0.020085 0.008663
v -0.048564 -0.022124 0.008810
v -0.048391 -0.022803 0.008729
v -0.048544 -0.030857 0.010957
v -0.044863 -0.024150 0.008685
v -0.044348 -0.023702 0.008706
v -0.044265 -0.024386 0.009264
v -0.048464 -0.030772 0.012091
v -0.048675 -0.030482 0.012768
v -0.048508 -0.028675 0.013604
v -0.046429 -0.025330 0.013649
v -0.044376 -0.019941 0.014330
v -0.044827 -0.019405 0.014632
v -0.045508 -0.020085 0.014635
v -0.045508 -0.019405 0.014718
v -0.046189 -0.020085 0.014648
v -0.042789 -0.011920 0.015184
v -0.042211 -0.010317 0.015077
v -0.042869 -0.010518 0.014935
v -0.044652 -0.010042 0.013438
v -0.039452 -0.005864 0.014367
v -0.040030 -0.005864 0.014039
v -0.045109 -0.010294 0.013040
v -0.045780 -0.011022 0.012712
v -0.046473 -0.011694 0.012081
v -0.046914 -0.011920 0.011188
v -0.047041 -0.012114 0.010507
v -0.047549 -0.021444 0.008311
v -0.047005 -0.021444 0.008086
v -0.046189 -0.020764 0.007838
v -0.046189 -0.021444 0.007895
v -0.044655 -0.022126 0.008120
v -0.043966 -0.021444 0.008193
v -0.045508 -0.021444 0.007859
v -0.044827 -0.020764 0.007841
v -0.044568 -0.021444 0.008004
v -0.046377 -0.011505 0.010184
v -0.046226 -0.012086 0.009464
v -0.046201 -0.012590 0.009120
v -0.046337 -0.013128 0.008885
v -0.046141 -0.013327 0.008733
v -0.046189 -0.013964 0.008535
v -0.046189 -0.014646 0.008364
v -0.046135 -0.016005 0.008146
v -0.046898 -0.018723 0.008117
v -0.047549 -0.019405 0.008401
v -0.047549 -0.020085 0.008339
v -0.048128 -0.020764 0.008641
v -0.047366 -0.020764 0.008224
v -0.043832 -0.024353 0.009856
v -0.043932 -0.024648 0.010904
v -0.044092 -0.022848 0.008569
v -0.043594 -0.022124 0.008644
v -0.043882 -0.023296 0.008878
v -0.043702 -0.023704 0.009342
v -0.047973 -0.030100 0.012051
v -0.047887 -0.029277 0.012891
v -0.043950 -0.022803 0.012788
v -0.042527 -0.016609 0.014287
v -0.041851 -0.012562 0.015043
v -0.042108 -0.011920 0.015226
v -0.042108 -0.011240 0.015221
v -0.041312 -0.009411 0.014982
v -0.040554 -0.005864 0.013430
v -0.040526 -0.009942 0.014952
v -0.038387 -0.005864 0.014098
v -0.045215 -0.010176 0.012398
v -0.045894 -0.010853 0.012062
v -0.046445 -0.011308 0.011298
v -0.046842 -0.020764 0.008009
v -0.045508 -0.020764 0.007788
v -0.046189 -0.020085 0.007813
v -0.045508 -0.020085 0.007740
v -0.043858 -0.020759 0.008084
v -0.043017 -0.019370 0.008187
v -0.042292 -0.019665 0.008683
v -0.044827 -0.020085 0.007762
v -0.044148 -0.019405 0.007814
v -0.043886 -0.020085 0.007967
v -0.040682 -0.005864 0.012553
v -0.040289 -0.005864 0.011777
v -0.045612 -0.011764 0.009403
v -0.045695 -0.012776 0.008809
v -0.045508 -0.013282 0.008568
v -0.045508 -0.013964 0.008368
v -0.045815 -0.015346 0.008143
v -0.045508 -0.016005 0.007991
v -0.046189 -0.018723 0.007870
v -0.046407 -0.018046 0.008007
v -0.046970 -0.019405 0.008084
v -0.047002 -0.020085 0.008071
v -0.041403 -0.019405 0.009827
v -0.043194 -0.023186 0.010065
v -0.043178 -0.023188 0.011219
v -0.043754 -0.024127 0.011444
v -0.044471 -0.025217 0.011567
v -0.041788 -0.019503 0.009169
v -0.043632 -0.023410 0.012115
v -0.042482 -0.019665 0.012861
v -0.039613 -0.011464 0.013691
v -0.039702 -0.010277 0.014278
v -0.038303 -0.007986 0.013413
v -0.038004 -0.005864 0.013227
v -0.046189 -0.019405 0.007826
v -0.045508 -0.019405 0.007716
v -0.044827 -0.019405 0.007714
v -0.042858 -0.018723 0.008160
v -0.041998 -0.018421 0.008643
v -0.041676 -0.018794 0.008975
v -0.044148 -0.018723 0.007789
v -0.043467 -0.018723 0.007940
v -0.039384 -0.005864 0.011380
v -0.044827 -0.012519 0.008768
v -0.044827 -0.013282 0.008472
v -0.044827 -0.013964 0.008287
v -0.045108 -0.014726 0.008143
v -0.044827 -0.015325 0.008017
v -0.044827 -0.016005 0.007928
v -0.045508 -0.016685 0.007921
v -0.045508 -0.018046 0.007792
v -0.045508 -0.018723 0.007734
v -0.038371 -0.008067 0.012015
v -0.038119 -0.007838 0.012547
v -0.041129 -0.018670 0.010244
v -0.041363 -0.019405 0.010507
v -0.041563 -0.019448 0.011223
v -0.043246 -0.022833 0.011867
v -0.042362 -0.020299 0.012331
v -0.040406 -0.015665 0.012209
v -0.039135 -0.011054 0.013041
v -0.038289 -0.008610 0.012776
v -0.038143 -0.005864 0.012479
v -0.044827 -0.018723 0.007711
v -0.042826 -0.018046 0.008144
v -0.041833 -0.017367 0.008756
v -0.044148 -0.018046 0.007810
v -0.043467 -0.018046 0.007929
v -0.038580 -0.005864 0.011781
v -0.042346 -0.013964 0.008753
v -0.042530 -0.013350 0.008780
v -0.042982 -0.012788 0.008767
v -0.043467 -0.013282 0.008540
v -0.043467 -0.012501 0.008771
v -0.044148 -0.012474 0.008752
v -0.044148 -0.013282 0.008465
v -0.044148 -0.013964 0.008296
v -0.044204 -0.014752 0.008134
v -0.044148 -0.016005 0.007962
v -0.044148 -0.016685 0.007901
v -0.038280 -0.007156 0.012083
v -0.041721 -0.019146 0.011965
v -0.042875 -0.017364 0.008162
v -0.042142 -0.016685 0.008605
v -0.043467 -0.017364 0.007970
v -0.042106 -0.014646 0.008810
v -0.042789 -0.016005 0.008326
v -0.042789 -0.015325 0.008395
v -0.042789 -0.014646 0.008476
v -0.042789 -0.013964 0.008577
v -0.043467 -0.013964 0.008390
v -0.043780 -0.015260 0.008118
v -0.043467 -0.014646 0.008271
v -0.043402 -0.016005 0.008109
v -0.043125 -0.016657 0.008131
f 1 2 3
f 1 3 4
f 1 4 5
f 1 5 6
f 1 6 7
f 1 7 8
f 1 8 2
f 2 9 10
f 2 10 3
f 2 8 11
f 2 11 9
f 3 10 12
f 3 12 13
f 3 13 4
f 4 13 14
f 4 14 5
f 5 15 6
f 5 14 16
f 5 16 15
f 6 17 18
f 6 18 7
f 6 15 17
f 7 18 19
f 7 19 20
f 7 20 8
f 8 20 21
f 8 21 11
f 9 11 22
f 9 22 23
f 9 23 24
f 9 24 25
f 9 25 10
f 10 25 12
f 11 21 26
f 11 26 22
f 12 27 28
f 12 28 13
f 12 25 27
f 13 28 29
f 13 29 30
f 13 30 14
f 14 30 31
f 14 31 16
f 15 16 32
f 15 32 33
f 15 33 34
f 15 34 35
f 15 35 36
f 15 36 17
f 16 31 32
f 17 36 37
f 17 37 38
f 17 38 39
f 17 39 18
f 18 39 40
f 18 40 19
f 19 40 41
f 19 41 20
f 20 41 42
f 20 42 21
f 21 42 43
f 21 43 44
f 21 44 26
f 22 45 46
f 22 46 23
f 22 26 47
f 22 47 45
f 23 46 47
f 23 47 48
f 23 48 49
f 23 49 50
f 23 50 24
f 24 51 27
f 24 27 25
f 24 50 52
f 24 52 53
f 24 53 51
f 26 44 54
f 26 54 55
f 26 55 56
f 26 56 57
f 26 57 58
f 26 58 47
f 27 59 28
f 27 51 60
f 27 60 59
f 28 59 29
f 29 59 61
f 29 61 62
f 29 62 63
f 29 63 30
f 30 63 31
f 31 63 64
f 31 64 32
f 32 65 33
f 32 64 65
f 33 65 66
f 33 66 67
f 33 67 34
f 34 67 68
f 34 68 35
f 35 69 36
f 35 68 70
f 35 70 71
f 35 71 37
f 35 37 69
f 36 69 37
f 37 72 73
f 37 73 74
f 37 74 75
f 37 75 76
f 37 76 38
f 37 71 70
f 37 70 72
f 38 76 77
f 38 77 39
f 39 77 40
f 40 77 78
f 40 78 79
f 40 79 80
f 40 80 41
f 41 80 42
f 42 80 44
f 42 44 43
f 44 80 54
f 45 47 46
f 47 58 81
f 47 81 82
f 47 82 48
f 48 82 49
f 49 82 83
f 49 83 50
f 50 83 52
f 51 53 84
f 51 84 60
f 52 83 85
f 52 85 86
f 52 86 53
f 53 86 87
f 53 87 84
f 54 80 79
f 54 79 88
f 54 88 89
f 54 89 90
f 54 90 91
f 54 91 92
f 54 92 93
f 54 93 55
f 55 93 94
f 55 94 56
f 56 94 57
f 57 94 58
f 58 94 95
f 58 95 81
f 59 60 96
f 59 96 61
f 60 84 97
f 60 97 98
f 60 98 99
f 60 99 96
f 61 96 100
f 61 100 62
f 62 100 101
f 62 101 64
f 62 64 63
f 64 101 102
f 64 102 65
f 65 102 66
f 66 102 103
f 66 103 104
f 66 104 105
f 66 105 106
f 66 106 107
f 66 107 67
f 67 108 68
f 67 107 108
f 68 109 72
f 68 72 70
f 68 108 109
f 72 110 111
f 72 111 73
f 72 109 110
f 73 111 74
f 74 112 75
f 74 111 113
f 74 113 114
f 74 114 112
f 75 112 115
f 75 115 116
f 75 116 76
f 76 116 117
f 76 117 77
f 77 117 118
f 77 118 78
f 78 118 79
f 79 118 119
f 79 119 88
f 81 95 120
f 81 120 82
f 82 120 121
f 82 121 83
f 83 121 122
f 83 122 123
f 83 123 85
f 84 98 97
f 84 87 124
f 84 124 125
f 84 125 98
f 85 123 126
f 85 126 86
f 86 126 127
f 86 127 128
f 86 128 87
f 87 128 124
f 88 119 129
f 88 129 89
f 89 129 130
f 89 130 131
f 89 131 132
f 89 132 90
f 90 132 91
f 91 132 133
f 91 133 134
f 91 134 135
f 91 135 92
f 92 135 136
f 92 136 137
f 92 137 138
f 92 138 93
f 93 138 139
f 93 139 140
f 93 140 94
f 94 140 139
f 94 139 141
f 94 141 120
f 94 120 95
f 96 99 142
f 96 142 143
f 96 143 100
f 98 125 144
f 98 144 145
f 98 145 146
f 98 146 99
f 99 146 147
f 99 147 142
f 100 143 148
f 100 148 149
f 100 149 101
f 101 149 102
f 102 149 103
f 103 149 150
f 103 150 104
f 104 150 151
f 104 151 152
f 104 152 105
f 105 152 153
f 105 153 106
f 106 153 107
f 107 153 109
f 107 109 108
f 109 153 154
f 109 154 110
f 110 154 155
f 110 155 113
f 110 113 111
f 112 114 156
f 112 156 115
f 113 155 157
f 113 157 158
f 113 158 195
f 113 195 224
f 113 224 230
f 113 230 204
f 113 204 173
f 113 173 172
f 113 172 156
f 113 156 114
f 115 156 159
f 115 159 160
f 115 160 116
f 116 160 117
f 117 160 118
f 118 160 161
f 118 161 119
f 119 161 129
f 120 141 121
f 121 141 162
f 121 162 122
f 122 163 123
f 122 162 164
f 122 164 165
f 122 165 163
f 123 163 126
f 124 128 125
f 125 128 166
f 125 166 167
f 125 167 168
f 125 168 145
f 125 145 144
f 126 163 169
f 126 169 127
f 127 169 170
f 127 170 171
f 127 171 128
f 128 171 166
f 129 161 172
f 129 172 173
f 129 173 130
f 130 173 174
f 130 174 131
f 131 174 175
f 131 175 132
f 132 175 133
f 133 176 134
f 133 175 176
f 134 177 135
f 134 176 177
f 135 177 178
f 135 178 136
f 136 178 179
f 136 179 180
f 136 180 181
f 136 181 137
f 137 181 180
f 137 180 182
f 137 182 138
f 138 182 139
f 139 182 183
f 139 183 141
f 141 183 162
f 142 147 184
f 142 184 185
f 142 185 143
f 143 185 186
f 143 186 187
f 143 187 188
f 143 188 148
f 145 168 146
f 146 168 189
f 146 189 147
f 147 189 184
f 148 188 149
f 149 188 190
f 149 190 150
f 150 190 191
f 150 191 151
f 151 192 193
f 151 193 157
f 151 157 152
f 151 191 192
f 152 157 153
f 153 157 154
f 154 157 155
f 156 172 159
f 157 193 158
f 158 194 195
f 158 193 194
f 159 161 160
f 159 172 161
f 162 183 164
f 163 165 198
f 163 198 169
f 164 183 196
f 164 196 197
f 164 197 165
f 165 197 198
f 166 171 167
f 167 199 168
f 167 171 199
f 168 199 200
f 168 200 201
f 168 201 189
f 169 198 170
f 170 198 202
f 170 202 203
f 170 203 171
f 171 203 199
f 173 204 174
f 174 204 175
f 175 204 205
f 175 205 176
f 176 205 206
f 176 206 177
f 177 206 207
f 177 207 208
f 177 208 178
f 178 208 179
f 179 208 209
f 179 209 210
f 179 210 211
f 179 211 180
f 180 211 212
f 180 212 213
f 180 213 196
f 180 196 182
f 182 196 183
f 184 201 214
f 184 214 215
f 184 215 216
f 184 216 217
f 184 217 185
f 184 189 201
f 185 217 186
f 186 217 218
f 186 218 219
f 186 219 190
f 186 190 187
f 187 190 188
f 190 219 220
f 190 220 191
f 191 220 192
f 192 221 222
f 192 222 194
f 192 194 193
f 192 220 221
f 194 223 215
f 194 215 195
f 194 222 223
f 195 215 224
f 196 213 197
f 197 213 225
f 197 225 198
f 198 225 202
f 199 203 226
f 199 226 200
f 200 226 227
f 200 227 201
f 201 227 214
f 202 228 229
f 202 229 203
f 202 225 228
f 203 229 226
f 204 230 231
f 204 231 232
f 204 232 233
f 204 233 234
f 204 234 235
f 204 235 236
f 204 236 205
f 205 236 206
f 206 236 237
f 206 237 207
f 207 237 238
f 207 238 239
f 207 239 209
f 207 209 208
f 209 239 240
f 209 240 210
f 210 240 241
f 210 241 225
f 210 225 213
f 210 213 212
f 210 212 211
f 214 242 215
f 214 227 242
f 215 223 216
f 215 242 224
f 216 223 217
f 217 223 221
f 217 221 218
f 218 221 243
f 218 243 219
f 219 243 220
f 220 243 221
f 221 223 222
f 224 242 230
f 225 241 228
f 226 229 244
f 226 244 245
f 226 245 227
f 227 245 230
f 227 230 242
f 228 241 246
f 228 246 229
f 229 246 244
f 230 245 247
f 230 247 231
f 231 247 248
f 231 248 249
f 231 249 250
f 231 250 251
f 231 251 232
f 232 251 233
f 233 251 252
f 233 252 234
f 234 237 235
f 234 252 238
f 234 238 237
f 235 237 236
f 238 252 239
f 239 253 240
f 239 252 254
f 239 254 253
f 240 253 255
f 240 255 246
f 240 246 241
f 244 246 256
f 244 256 248
f 244 248 245
f 245 248 247
f 246 255 256
f 248 256 249
f 249 256 255
f 249 255 250
f 250 254 251
f 250 255 254
f 251 254 252
f 253 254 255
