v 0.002772 -0.010801 0.014439
v 0.002655 -0.010801 0.015594
v 0.002531 -0.011068 0.015951
v 0.002672 -0.011099 0.014439
v 0.002491 -0.011639 0.014439
v -0.003655 -0.010801 0.014439
v 0.002619 -0.010801 0.015951
v 0.002493 -0.010967 0.016631
v 0.002375 -0.011307 0.016631
v 0.002610 -0.011284 0.014439
v 0.002577 -0.010801 0.016355
v 0.002380 -0.011887 0.014635
v 0.002383 -0.011932 0.014439
v 0.002168 -0.012478 0.014439
v 0.002119 -0.012601 0.014439
v 0.000712 -0.016003 0.014439
v 0.000509 -0.016468 0.014439
v 0.000204 -0.016809 0.014439
v -0.000061 -0.017043 0.014439
v -0.000137 -0.017094 0.014439
v -0.000593 -0.017209 0.014439
v -0.000732 -0.017196 0.014439
v -0.001305 -0.017125 0.014439
v -0.002634 -0.016750 0.014439
v -0.002764 -0.016701 0.014439
v -0.003259 -0.016510 0.014439
v -0.003524 -0.016301 0.014439
v -0.003599 -0.016232 0.014439
v -0.003633 -0.016156 0.014439
v -0.003714 -0.015892 0.014439
v -0.003758 -0.015436 0.014439
v -0.003770 -0.015322 0.014439
v -0.003777 -0.014793 0.014439
v -0.003777 -0.014641 0.014439
v -0.003764 -0.014113 0.014439
v -0.006033 -0.014646 0.018111
v -0.003761 -0.010801 0.014621
v 0.002547 -0.010801 0.016631
v 0.002472 -0.010905 0.016985
v 0.001824 -0.012356 0.018111
v 0.001731 -0.012608 0.018111
v 0.002104 -0.012601 0.014590
v 0.001705 -0.012713 0.017992
v 0.000698 -0.016003 0.014590
v 0.000500 -0.016456 0.014590
v 0.000033 -0.016683 0.017992
v -0.000211 -0.017069 0.017992
v -0.000187 -0.017098 0.017312
v -0.000124 -0.017126 0.015270
v -0.000593 -0.017340 0.015951
v -0.000593 -0.017303 0.015270
v -0.001273 -0.017338 0.015951
v -0.001273 -0.017252 0.015270
v -0.004664 -0.016474 0.018111
v -0.004812 -0.016410 0.018111
v -0.005229 -0.016162 0.018111
v -0.005382 -0.016065 0.018111
v -0.005625 -0.015879 0.018111
v -0.006010 -0.015297 0.018111
v -0.006031 -0.014641 0.018111
v -0.005855 -0.014257 0.018111
v -0.003945 -0.010801 0.018111
v 0.002517 -0.010801 0.016878
v 0.002494 -0.010801 0.017068
v 0.002357 -0.010801 0.018111
v 0.001941 -0.012020 0.018111
v 0.001702 -0.012686 0.018111
v 0.001653 -0.012812 0.018111
v 0.000356 -0.016159 0.017312
v 0.000350 -0.015982 0.018056
v 0.000343 -0.015984 0.018111
v 0.000009 -0.016689 0.018111
v -0.000224 -0.017055 0.018111
v -0.000593 -0.017323 0.017992
v -0.000593 -0.017357 0.017312
v -0.001273 -0.017468 0.017992
v -0.001273 -0.017438 0.017312
v -0.001954 -0.017265 0.018111
v 0.001460 -0.013281 0.018111
v -0.000587 -0.017296 0.018111
v -0.001273 -0.017459 0.018111
f 1 2 3
f 1 3 4
f 1 4 5
f 1 5 6
f 1 6 37
f 1 37 62
f 1 62 65
f 1 65 64
f 1 64 63
f 1 63 38
f 1 38 11
f 1 11 7
f 1 7 2
f 2 7 3
f 3 8 9
f 3 9 5
f 3 5 10
f 3 10 4
f 3 7 11
f 3 11 8
f 4 10 5
f 5 9 12
f 5 12 13
f 5 13 14
f 5 14 15
f 5 15 16
f 5 16 17
f 5 17 18
f 5 18 19
f 5 19 20
f 5 20 21
f 5 21 22
f 5 22 23
f 5 23 24
f 5 24 25
f 5 25 26
f 5 26 27
f 5 27 28
f 5 28 29
f 5 29 30
f 5 30 31
f 5 31 32
f 5 32 33
f 5 33 34
f 5 34 35
f 5 35 6
f 6 35 36
f 6 36 37
f 8 11 38
f 8 38 39
f 8 39 9
f 9 39 40
f 9 40 41
f 9 41 12
f 12 42 14
f 12 14 13
f 12 41 43
f 12 43 42
f 14 42 15
f 15 42 44
f 15 44 16
f 16 44 45
f 16 45 17
f 17 45 46
f 17 46 47
f 17 47 48
f 17 48 18
f 18 48 49
f 18 49 19
f 19 49 20
f 20 49 50
f 20 50 51
f 20 51 21
f 21 51 52
f 21 52 53
f 21 53 22
f 22 53 23
f 23 53 24
f 24 54 25
f 24 53 52
f 24 52 54
f 25 54 26
f 26 54 55
f 26 55 56
f 26 56 57
f 26 57 58
f 26 58 27
f 27 58 28
f 28 58 59
f 28 59 29
f 29 59 30
f 30 59 31
f 31 59 32
f 32 59 36
f 32 36 33
f 33 36 34
f 34 36 35
f 36 59 58
f 36 58 57
f 36 57 56
f 36 56 55
f 36 55 54
f 36 54 78
f 36 78 81
f 36 81 80
f 36 80 73
f 36 73 72
f 36 72 71
f 36 71 79
f 36 79 68
f 36 68 67
f 36 67 41
f 36 41 40
f 36 40 66
f 36 66 65
f 36 65 62
f 36 62 61
f 36 61 60
f 36 60 37
f 37 60 61
f 37 61 62
f 38 63 39
f 39 63 64
f 39 64 65
f 39 65 66
f 39 66 40
f 41 67 43
f 42 43 68
f 42 68 69
f 42 69 44
f 43 67 68
f 44 69 45
f 45 69 46
f 46 69 70
f 46 70 71
f 46 71 72
f 46 72 47
f 47 73 74
f 47 74 48
f 47 72 73
f 48 74 75
f 48 75 49
f 49 75 50
f 50 75 76
f 50 76 77
f 50 77 51
f 51 77 52
f 52 77 54
f 54 76 78
f 54 77 76
f 68 79 69
f 69 79 70
f 70 79 71
f 73 80 74
f 74 80 81
f 74 81 76
f 74 76 75
f 76 81 78
