v -0.003438 -0.009820 0.017323
v -0.003107 -0.009820 0.017323
v -0.003294 -0.010801 0.017323
v -0.008264 -0.013757 0.018311
v -0.008264 -0.013483 0.018313
v -0.008264 -0.013146 0.018370
v -0.008264 -0.010801 0.018851
v -0.007279 -0.009821 0.019030
v -0.006777 -0.009820 0.019078
v 0.002743 -0.009820 0.017926
v 0.002817 -0.009822 0.017323
v -0.001955 -0.017266 0.018111
v -0.004663 -0.016473 0.018111
v -0.004811 -0.016410 0.018111
v -0.005229 -0.016161 0.018111
v -0.005381 -0.016065 0.018111
v -0.005625 -0.015879 0.018111
v -0.006009 -0.015296 0.018111
v -0.008264 -0.014231 0.018345
v -0.008264 -0.013905 0.018317
v 0.002452 -0.010801 0.017323
v -0.001273 -0.017459 0.018111
v -0.008264 -0.010801 0.025920
v -0.007279 -0.009820 0.024626
v 0.002614 -0.009820 0.019336
v 0.002548 -0.009820 0.020035
v 0.001823 -0.012355 0.018111
v 0.001730 -0.012609 0.018111
v -0.004738 -0.017627 0.019998
v -0.004675 -0.017270 0.019391
v -0.005226 -0.017151 0.019511
v -0.005071 -0.016372 0.018269
v -0.005525 -0.016236 0.018480
v -0.007913 -0.015041 0.018914
v -0.008264 -0.014622 0.018661
v -0.008264 -0.014319 0.018414
v 0.001701 -0.012687 0.018111
v 0.001653 -0.012812 0.018111
v 0.000342 -0.015984 0.018111
v 0.000009 -0.016689 0.018111
v -0.000224 -0.017055 0.018111
v -0.000480 -0.017225 0.018111
v -0.000587 -0.017296 0.018111
v -0.002635 -0.018002 0.022075
v -0.003314 -0.018083 0.021396
v -0.003995 -0.017972 0.020716
v -0.003995 -0.017803 0.020128
v -0.004553 -0.017768 0.020200
v -0.008264 -0.011921 0.026000
v -0.007279 -0.009820 0.025940
v 0.002498 -0.009820 0.020507
v 0.001805 -0.012307 0.018453
v 0.001685 -0.012561 0.018678
v -0.005007 -0.017700 0.020384
v -0.005414 -0.017291 0.019981
v -0.005679 -0.017010 0.019718
v -0.005414 -0.016893 0.019313
v -0.008264 -0.014964 0.019282
v 0.001408 -0.013281 0.018674
v -0.000304 -0.016212 0.022756
v 0.000439 -0.015006 0.021129
v -0.000558 -0.016683 0.022756
v -0.000847 -0.017122 0.022756
v -0.001341 -0.017502 0.022700
v -0.001612 -0.017705 0.022436
v -0.001612 -0.017705 0.022408
v -0.002635 -0.017985 0.022756
v -0.003314 -0.018131 0.022075
v -0.003995 -0.018139 0.022075
v -0.003995 -0.018085 0.021396
v -0.004675 -0.018014 0.021396
v -0.004738 -0.017846 0.020652
v -0.008264 -0.012600 0.026015
v -0.001898 -0.009820 0.026145
v -0.001955 -0.009820 0.026143
v 0.002337 -0.009820 0.021952
v 0.001785 -0.011571 0.021030
v -0.005144 -0.017768 0.020838
v -0.005364 -0.017589 0.020652
v -0.005789 -0.017117 0.020172
v -0.005918 -0.017222 0.020716
v -0.006352 -0.016992 0.021210
v -0.006388 -0.017034 0.021663
v -0.008264 -0.014973 0.019355
v -0.000215 -0.015770 0.023228
v -0.000361 -0.015999 0.023447
v -0.000721 -0.016725 0.023458
v 0.000057 -0.015321 0.022756
v 0.001702 -0.011216 0.022817
v 0.001428 -0.011921 0.022756
v -0.000883 -0.017083 0.023245
v -0.001661 -0.017687 0.022890
v -0.001915 -0.017779 0.022700
v -0.002114 -0.017757 0.023313
v -0.002577 -0.017825 0.023497
v -0.003314 -0.018108 0.022756
v -0.003995 -0.018107 0.022756
v -0.004675 -0.018047 0.022075
v -0.005243 -0.017827 0.021396
v -0.008264 -0.013315 0.025900
v -0.007396 -0.013281 0.025969
v -0.003802 -0.015766 0.025825
v -0.005356 -0.013961 0.025964
v -0.004675 -0.013961 0.025984
v -0.008078 -0.012600 0.026020
v -0.003995 -0.013961 0.025989
v -0.001275 -0.009820 0.026129
v 0.002242 -0.009820 0.022756
v -0.005584 -0.017639 0.021396
v -0.006089 -0.017250 0.021421
v -0.006388 -0.017034 0.021875
v -0.008264 -0.015133 0.024117
v -0.005645 -0.017674 0.022075
v 0.001787 -0.010895 0.023085
v -0.000090 -0.015358 0.023447
v -0.000155 -0.015156 0.023919
v -0.000815 -0.016527 0.023965
v -0.000973 -0.016980 0.023699
v -0.001230 -0.017275 0.023458
v -0.001915 -0.017646 0.023497
v -0.002312 -0.017700 0.023766
v -0.002765 -0.017736 0.023829
v -0.003314 -0.017933 0.023436
v -0.003995 -0.017919 0.023436
v -0.004648 -0.017804 0.023432
v -0.004675 -0.017978 0.022756
v -0.005260 -0.017794 0.022756
v -0.005305 -0.017840 0.022075
v -0.008264 -0.013395 0.025882
v -0.004014 -0.015996 0.025774
v -0.003606 -0.015766 0.025825
v -0.003995 -0.014641 0.025932
v -0.003314 -0.014641 0.025928
v -0.003314 -0.013961 0.025968
v -0.001217 -0.009820 0.026123
v 0.002130 -0.009820 0.023437
v -0.008264 -0.015086 0.024789
v -0.006100 -0.017278 0.022090
v -0.006369 -0.017015 0.022327
v -0.005600 -0.017661 0.022756
v 0.001820 -0.010294 0.023836
v -0.000858 -0.015829 0.024547
v -0.000965 -0.016283 0.024419
v -0.000698 -0.016034 0.024161
v 0.001897 -0.009820 0.024085
v 0.001733 -0.009820 0.024368
v -0.001195 -0.016757 0.024192
v -0.001426 -0.017173 0.023965
v -0.002577 -0.017542 0.024080
v -0.001924 -0.017296 0.024161
v -0.002131 -0.017103 0.024540
v -0.002635 -0.017163 0.024661
v -0.003314 -0.016992 0.025087
v -0.003314 -0.017748 0.023846
v -0.003995 -0.017739 0.023828
v -0.004403 -0.017722 0.023806
v -0.004855 -0.017650 0.023655
v -0.005131 -0.017742 0.023202
v -0.008264 -0.013942 0.025749
v -0.003995 -0.016614 0.025425
v -0.003314 -0.016652 0.025421
v -0.003353 -0.015996 0.025757
v -0.008264 -0.014678 0.025395
v -0.002865 -0.015079 0.025836
v -0.002746 -0.014641 0.025866
v -0.000593 -0.009820 0.026028
v -0.005988 -0.017321 0.022756
v -0.008264 -0.015047 0.024977
v -0.005356 -0.017525 0.023432
v -0.001104 -0.015321 0.024987
v -0.001541 -0.015782 0.025186
v -0.001253 -0.016032 0.024816
v 0.001414 -0.009820 0.024768
v 0.001102 -0.009820 0.025126
v -0.001713 -0.016236 0.025085
v -0.001420 -0.016534 0.024632
v -0.001678 -0.016987 0.024418
v -0.002635 -0.016886 0.025001
v -0.001922 -0.016701 0.024813
v -0.003995 -0.016955 0.025029
v -0.004684 -0.017374 0.024119
v -0.007946 -0.015047 0.025212
v -0.004557 -0.016491 0.025303
v -0.002635 -0.016547 0.025300
v -0.002635 -0.016002 0.025559
v -0.002637 -0.015312 0.025743
v -0.008264 -0.014834 0.025260
v -0.002406 -0.014641 0.025797
v -0.000085 -0.009820 0.025885
v 0.000825 -0.009820 0.025357
v 0.000795 -0.009820 0.025378
v -0.001445 -0.015321 0.025260
v -0.001955 -0.015321 0.025523
v -0.001946 -0.016006 0.025288
v -0.002166 -0.016415 0.025195
v -0.004512 -0.017098 0.024570
v -0.001955 -0.014641 0.025646
v -0.000042 -0.009820 0.025869
v 0.000281 -0.009820 0.025723
v 0.000254 -0.009820 0.025737
f 1 2 11
f 1 11 21
f 1 21 3
f 1 3 4
f 1 4 5
f 1 5 6
f 1 6 7
f 1 7 8
f 1 8 9
f 1 9 24
f 1 24 50
f 1 50 75
f 1 75 74
f 1 74 107
f 1 107 135
f 1 135 166
f 1 166 189
f 1 189 198
f 1 198 200
f 1 200 199
f 1 199 191
f 1 191 190
f 1 190 174
f 1 174 173
f 1 173 146
f 1 146 145
f 1 145 136
f 1 136 108
f 1 108 76
f 1 76 51
f 1 51 26
f 1 26 25
f 1 25 10
f 1 10 2
f 2 10 11
f 3 12 13
f 3 13 14
f 3 14 15
f 3 15 16
f 3 16 17
f 3 17 18
f 3 18 19
f 3 19 20
f 3 20 4
f 3 21 22
f 3 22 12
f 4 20 19
f 4 19 36
f 4 36 35
f 4 35 58
f 4 58 84
f 4 84 112
f 4 112 137
f 4 137 168
f 4 168 187
f 4 187 163
f 4 163 159
f 4 159 129
f 4 129 100
f 4 100 73
f 4 73 49
f 4 49 23
f 4 23 7
f 4 7 6
f 4 6 5
f 7 23 50
f 7 50 24
f 7 24 8
f 8 24 9
f 10 25 11
f 11 25 26
f 11 26 27
f 11 27 28
f 11 28 21
f 12 29 30
f 12 30 13
f 12 22 29
f 13 30 31
f 13 31 14
f 14 31 32
f 14 32 15
f 15 32 33
f 15 33 34
f 15 34 16
f 16 34 35
f 16 35 36
f 16 36 19
f 16 19 17
f 17 19 18
f 21 28 37
f 21 37 38
f 21 38 39
f 21 39 40
f 21 40 41
f 21 41 42
f 21 42 43
f 21 43 22
f 22 43 44
f 22 44 45
f 22 45 46
f 22 46 47
f 22 47 48
f 22 48 29
f 23 49 50
f 26 51 27
f 27 51 52
f 27 52 28
f 28 53 37
f 28 52 53
f 29 54 31
f 29 31 30
f 29 48 54
f 31 54 55
f 31 55 56
f 31 56 34
f 31 34 57
f 31 57 32
f 32 57 33
f 33 57 34
f 34 58 35
f 34 56 58
f 37 53 38
f 38 53 59
f 38 59 39
f 39 60 40
f 39 59 61
f 39 61 60
f 40 60 62
f 40 62 41
f 41 62 63
f 41 63 64
f 41 64 65
f 41 65 42
f 42 65 43
f 43 65 66
f 43 66 44
f 44 67 68
f 44 68 45
f 44 66 65
f 44 65 67
f 45 68 69
f 45 69 70
f 45 70 46
f 46 70 71
f 46 71 72
f 46 72 48
f 46 48 47
f 48 72 54
f 49 73 74
f 49 74 75
f 49 75 50
f 51 76 52
f 52 76 53
f 53 76 77
f 53 77 59
f 54 72 78
f 54 78 79
f 54 79 55
f 55 79 80
f 55 80 56
f 56 80 58
f 58 80 81
f 58 81 82
f 58 82 83
f 58 83 84
f 59 77 61
f 60 85 86
f 60 86 87
f 60 87 62
f 60 61 88
f 60 88 85
f 61 77 89
f 61 89 90
f 61 90 88
f 62 87 91
f 62 91 63
f 63 91 64
f 64 91 92
f 64 92 65
f 65 92 93
f 65 93 67
f 67 93 92
f 67 92 94
f 67 94 95
f 67 95 96
f 67 96 68
f 68 96 69
f 69 96 97
f 69 97 98
f 69 98 71
f 69 71 70
f 71 98 99
f 71 99 78
f 71 78 72
f 73 100 101
f 73 101 102
f 73 102 103
f 73 103 104
f 73 104 105
f 73 105 74
f 74 105 106
f 74 106 107
f 76 108 77
f 77 108 89
f 78 99 109
f 78 109 79
f 79 109 81
f 79 81 80
f 81 109 110
f 81 110 82
f 82 110 83
f 83 111 112
f 83 112 84
f 83 110 113
f 83 113 111
f 85 88 114
f 85 114 115
f 85 115 86
f 86 115 116
f 86 116 117
f 86 117 87
f 87 117 118
f 87 118 91
f 88 90 114
f 89 108 114
f 89 114 90
f 91 118 119
f 91 119 92
f 92 120 94
f 92 119 120
f 94 121 95
f 94 120 121
f 95 121 122
f 95 122 123
f 95 123 96
f 96 123 97
f 97 123 124
f 97 124 125
f 97 125 126
f 97 126 98
f 98 126 127
f 98 127 128
f 98 128 99
f 99 128 113
f 99 113 109
f 100 129 130
f 100 130 101
f 101 130 102
f 102 131 132
f 102 132 104
f 102 104 103
f 102 130 131
f 104 132 106
f 104 106 105
f 106 132 133
f 106 133 134
f 106 134 107
f 107 134 133
f 107 133 135
f 108 136 114
f 109 113 110
f 111 137 112
f 111 113 138
f 111 138 139
f 111 139 137
f 113 128 140
f 113 140 138
f 114 136 115
f 115 136 141
f 115 141 116
f 116 142 143
f 116 143 144
f 116 144 117
f 116 141 145
f 116 145 146
f 116 146 142
f 117 143 118
f 117 144 143
f 118 143 147
f 118 147 148
f 118 148 119
f 119 148 120
f 120 148 121
f 121 149 122
f 121 148 150
f 121 150 151
f 121 151 152
f 121 152 149
f 122 153 154
f 122 154 123
f 122 149 153
f 123 154 124
f 124 155 156
f 124 156 125
f 124 154 155
f 125 156 157
f 125 157 158
f 125 158 126
f 126 158 127
f 127 158 140
f 127 140 128
f 129 159 130
f 130 160 161
f 130 161 162
f 130 162 131
f 130 159 163
f 130 163 160
f 131 162 164
f 131 164 133
f 131 133 132
f 133 164 165
f 133 165 135
f 135 165 166
f 136 145 141
f 137 139 167
f 137 167 140
f 137 140 168
f 138 140 167
f 138 167 139
f 140 158 169
f 140 169 168
f 142 170 171
f 142 171 172
f 142 172 143
f 142 146 173
f 142 173 174
f 142 174 170
f 143 172 175
f 143 175 176
f 143 176 147
f 147 176 177
f 147 177 148
f 148 177 150
f 149 152 153
f 150 177 151
f 151 178 152
f 151 177 179
f 151 179 178
f 152 178 153
f 153 161 160
f 153 160 180
f 153 180 156
f 153 156 155
f 153 155 154
f 153 178 161
f 156 181 157
f 156 180 181
f 157 182 168
f 157 168 169
f 157 169 158
f 157 181 182
f 160 163 182
f 160 182 183
f 160 183 180
f 161 178 184
f 161 184 162
f 162 184 185
f 162 185 186
f 162 186 164
f 163 187 182
f 164 186 188
f 164 188 166
f 164 166 165
f 166 188 189
f 168 182 187
f 170 174 171
f 171 175 172
f 171 174 190
f 171 190 191
f 171 191 192
f 171 192 193
f 171 193 194
f 171 194 175
f 175 179 177
f 175 177 176
f 175 194 195
f 175 195 179
f 178 179 195
f 178 195 184
f 180 183 196
f 180 196 181
f 181 196 182
f 182 196 183
f 184 195 185
f 185 195 194
f 185 194 193
f 185 193 186
f 186 193 188
f 188 193 197
f 188 197 189
f 189 197 193
f 189 193 198
f 191 199 192
f 192 199 200
f 192 200 193
f 193 200 198
