v -0.007279 -0.010801 0.010249
v -0.007279 -0.010756 0.010244
v -0.009175 -0.009820 0.013598
v -0.007945 -0.013652 0.010181
v -0.007945 -0.014020 0.009784
v -0.007945 -0.014105 0.009683
v -0.007945 -0.014329 0.009144
v -0.007945 -0.014369 0.008464
v -0.007279 -0.010801 0.002669
v -0.007279 -0.010536 0.010214
v -0.020886 -0.009820 0.013598
v -0.010579 -0.010801 0.014439
v -0.007279 -0.009820 0.010117
v -0.012406 -0.012349 0.014439
v -0.012844 -0.012554 0.014439
v -0.015564 -0.012725 0.005064
v -0.013524 -0.012611 0.014439
v -0.015564 -0.012736 0.004383
v -0.007945 -0.014282 0.007480
v -0.007945 -0.013305 0.002577
v -0.007945 -0.013233 0.002545
v -0.007945 -0.012733 0.002431
v -0.007945 -0.012599 0.002419
v -0.007279 -0.009894 0.002631
v -0.007945 -0.013927 0.003701
v -0.007945 -0.013812 0.003238
v -0.007945 -0.013749 0.003105
v -0.007945 -0.013601 0.002828
v -0.007945 -0.013560 0.002774
v -0.018302 -0.010801 0.014439
v -0.020204 -0.009820 0.009144
v -0.017497 -0.011790 0.004383
v -0.017065 -0.012130 0.004383
v -0.016725 -0.012336 0.004383
v -0.016704 -0.012326 0.005064
v -0.016243 -0.012527 0.005064
v -0.007279 -0.009820 0.002628
v -0.016243 -0.012542 0.004383
v -0.014233 -0.012387 0.014439
v -0.015564 -0.012653 0.003703
v -0.008759 -0.013172 0.002492
v -0.010801 -0.012315 0.001959
v -0.010262 -0.012306 0.001972
v -0.008759 -0.012599 0.002261
v -0.008080 -0.012599 0.002392
v -0.011482 -0.011239 0.001612
v -0.015564 -0.012455 0.003021
v -0.015910 -0.012262 0.002676
v -0.015564 -0.012286 0.002636
v -0.009441 -0.013114 0.002492
v -0.017686 -0.011050 0.014439
v -0.020119 -0.009820 0.008673
v -0.017838 -0.011442 0.004383
v -0.017406 -0.011701 0.003703
v -0.016897 -0.012072 0.003680
v -0.016652 -0.012300 0.003890
v -0.017076 -0.011288 0.014439
v -0.017606 -0.011082 0.014439
v -0.012984 -0.010558 0.001279
v -0.014201 -0.009878 0.001037
v -0.014259 -0.009820 0.001028
v -0.016283 -0.012405 0.003680
v -0.016044 -0.012317 0.003021
v -0.011291 -0.012288 0.001971
v -0.014201 -0.011034 0.001234
v -0.013524 -0.011035 0.001260
v -0.013009 -0.010980 0.001292
v -0.012999 -0.010801 0.001285
v -0.016724 -0.011693 0.002514
v -0.016201 -0.011898 0.002368
v -0.016036 -0.011649 0.001955
v -0.015564 -0.012024 0.002296
v -0.016536 -0.012237 0.003437
v -0.016383 -0.012158 0.003021
v -0.015564 -0.011683 0.001927
v -0.019213 -0.009820 0.004080
v -0.018703 -0.009820 0.001902
v -0.017309 -0.011618 0.003280
v -0.018599 -0.009820 0.001661
v -0.016940 -0.011793 0.003041
v -0.014882 -0.009878 0.000887
v -0.014946 -0.009820 0.000874
v -0.014883 -0.010989 0.001246
v -0.017296 -0.009820 0.000684
v -0.016598 -0.009820 0.000651
v -0.016245 -0.009820 0.000682
v -0.015643 -0.009820 0.000744
v -0.015621 -0.009820 0.000747
v -0.018494 -0.009820 0.001449
v -0.018219 -0.009820 0.001071
v -0.018127 -0.009820 0.000991
v -0.016490 -0.011515 0.002059
v -0.017884 -0.009820 0.000832
f 1 2 3
f 1 3 4
f 1 4 5
f 1 5 6
f 1 6 7
f 1 7 8
f 1 8 9
f 1 9 24
f 1 24 37
f 1 37 13
f 1 13 10
f 1 10 2
f 2 10 3
f 3 11 30
f 3 30 12
f 3 12 4
f 3 10 13
f 3 13 37
f 3 37 61
f 3 61 82
f 3 82 88
f 3 88 87
f 3 87 86
f 3 86 85
f 3 85 84
f 3 84 93
f 3 93 91
f 3 91 90
f 3 90 89
f 3 89 79
f 3 79 77
f 3 77 76
f 3 76 52
f 3 52 31
f 3 31 11
f 4 12 14
f 4 14 5
f 5 14 6
f 6 14 15
f 6 15 7
f 7 16 8
f 7 15 17
f 7 17 16
f 8 16 18
f 8 18 19
f 8 19 9
f 9 20 21
f 9 21 22
f 9 22 23
f 9 23 24
f 9 19 25
f 9 25 26
f 9 26 27
f 9 27 28
f 9 28 29
f 9 29 20
f 11 31 32
f 11 32 33
f 11 33 34
f 11 34 35
f 11 35 36
f 11 36 30
f 12 30 51
f 12 51 58
f 12 58 57
f 12 57 39
f 12 39 17
f 12 17 15
f 12 15 14
f 16 17 36
f 16 36 38
f 16 38 18
f 17 39 36
f 18 38 40
f 18 40 25
f 18 25 19
f 20 41 42
f 20 42 43
f 20 43 21
f 20 29 41
f 21 43 44
f 21 44 22
f 22 45 23
f 22 44 45
f 23 45 46
f 23 46 37
f 23 37 24
f 25 40 26
f 26 40 47
f 26 47 48
f 26 48 27
f 27 48 28
f 28 48 49
f 28 49 50
f 28 50 29
f 29 50 41
f 30 36 51
f 31 52 53
f 31 53 32
f 32 53 54
f 32 54 33
f 33 54 55
f 33 55 56
f 33 56 34
f 34 38 36
f 34 36 35
f 34 56 38
f 36 39 57
f 36 57 58
f 36 58 51
f 37 46 59
f 37 59 60
f 37 60 61
f 38 56 62
f 38 62 40
f 40 62 63
f 40 63 48
f 40 48 47
f 41 50 42
f 42 50 64
f 42 64 65
f 42 65 43
f 43 65 66
f 43 66 67
f 43 67 44
f 44 67 45
f 45 67 46
f 46 67 68
f 46 68 59
f 48 69 70
f 48 70 71
f 48 71 72
f 48 72 49
f 48 63 73
f 48 73 74
f 48 74 69
f 49 72 50
f 50 72 71
f 50 71 75
f 50 75 64
f 52 76 53
f 53 76 77
f 53 77 54
f 54 78 55
f 54 77 79
f 54 79 78
f 55 78 80
f 55 80 73
f 55 73 56
f 56 73 62
f 59 68 81
f 59 81 82
f 59 82 60
f 60 82 61
f 62 73 63
f 64 75 83
f 64 83 65
f 65 83 84
f 65 84 85
f 65 85 66
f 66 85 86
f 66 86 67
f 67 86 87
f 67 87 88
f 67 88 81
f 67 81 68
f 69 89 90
f 69 90 91
f 69 91 70
f 69 74 80
f 69 80 89
f 70 91 92
f 70 92 71
f 71 92 93
f 71 93 84
f 71 84 83
f 71 83 75
f 73 80 74
f 78 79 89
f 78 89 80
f 81 88 82
f 91 93 92
