v -0.005081 0.003209 -0.000299
v -0.005854 -0.000328 0.000500
v -0.006395 -0.000362 0.000481
v -0.017677 0.000252 -0.000085
v -0.020278 0.001985 -0.000185
v -0.005083 0.003719 -0.000294
v -0.002054 0.003719 0.000283
v -0.001507 0.003051 0.000500
v -0.002021 0.002800 0.000454
v -0.002924 -0.000451 0.001304
v -0.002924 -0.000883 0.001670
v -0.004832 -0.003723 0.003810
v -0.016810 -0.004317 0.002488
v -0.018544 -0.003419 0.001640
v -0.019411 -0.003037 0.001294
v -0.001709 0.002476 0.000630
v -0.018544 -0.000617 0.000137
v -0.020295 -0.002283 0.000768
v -0.019881 -0.001950 0.000589
v -0.018544 0.000252 -0.000074
v -0.021143 0.001120 -0.000066
v -0.021143 0.001985 -0.000131
v -0.018544 0.003717 0.000045
v -0.006809 0.009394 0.000573
v -0.005092 0.004168 -0.000261
v -0.003794 0.007186 0.000245
v -0.001971 0.004667 0.000416
v -0.001457 0.003719 0.000470
v -0.000234 0.003708 0.001277
v -0.000234 0.002856 0.001470
v -0.000234 0.000975 0.001973
v -0.000234 -0.000046 0.002288
v -0.002435 -0.000260 0.001421
v -0.000234 -0.000464 0.002613
v -0.000234 -0.000844 0.002984
v -0.016191 -0.004687 0.002976
v -0.001187 -0.002981 0.004847
v -0.001537 -0.003681 0.005668
v -0.019411 -0.006644 0.005381
v -0.019411 -0.006423 0.004758
v -0.016810 -0.004725 0.002921
v -0.019411 -0.004390 0.002469
v -0.019411 -0.003956 0.002060
v -0.019411 -0.003471 0.001621
v -0.020278 -0.003027 0.001234
v -0.020295 -0.001549 0.000478
v -0.019411 -0.000617 0.000164
v -0.021143 -0.002977 0.001253
v -0.021143 -0.002353 0.000868
v -0.020593 -0.001885 0.000616
v -0.021143 -0.000617 0.000359
v -0.021623 -0.001135 0.000587
v -0.022057 0.000235 0.000419
v -0.022013 0.001120 0.000226
v -0.020278 -0.000617 0.000229
v -0.021582 0.004151 0.000606
v -0.021143 0.002852 0.000113
v -0.020657 0.005003 0.000611
v -0.018544 0.004584 0.000221
v -0.022013 0.001985 0.000229
v -0.023763 0.003683 0.001304
v -0.022882 0.003717 0.000947
v -0.023352 0.005111 0.001453
v -0.023123 0.005691 0.001532
v -0.003794 0.008011 0.000397
v -0.022543 0.005918 0.001453
v -0.010737 0.011452 0.002775
v -0.000234 0.012709 0.002548
v -0.003487 0.007934 0.000443
v -0.003186 0.007864 0.000492
v -0.001521 0.004436 0.000532
v -0.000234 0.004611 0.001288
v -0.000234 -0.001106 0.003282
v -0.000747 -0.002810 0.004942
v -0.001225 -0.003357 0.005381
v -0.000234 -0.004322 0.013027
v -0.000234 -0.004448 0.014051
v -0.019411 -0.006735 0.006248
v -0.020278 -0.006824 0.007120
v -0.020278 -0.006725 0.006248
v -0.020278 -0.006602 0.005381
v -0.020278 -0.006398 0.004801
v -0.018544 -0.006793 0.007987
v -0.019411 -0.006047 0.004325
v -0.019411 -0.004798 0.002905
v -0.020278 -0.004771 0.002938
v -0.020278 -0.004353 0.002507
v -0.021143 -0.001738 0.000654
v -0.021143 -0.001305 0.000532
v -0.021753 -0.004598 0.003127
v -0.021728 -0.002881 0.001361
v -0.021143 -0.004679 0.003035
v -0.022015 -0.002334 0.001234
v -0.024349 -0.000339 0.001407
v -0.024448 0.000252 0.001356
v -0.021143 0.004789 0.000662
v -0.024429 0.001120 0.001356
v -0.024360 0.001985 0.001369
v -0.024285 0.002852 0.001402
v -0.023750 0.002852 0.001142
v -0.024225 0.003372 0.001443
v -0.024227 0.005924 0.002307
v -0.023750 0.006107 0.002141
v -0.022891 0.006319 0.001898
v -0.022662 0.006837 0.002261
v -0.011670 0.011452 0.003035
v -0.001720 0.012709 0.003041
v -0.000234 0.012709 0.024138
v -0.000234 0.007205 0.001651
v -0.000648 0.007186 0.001413
v -0.001187 0.007186 0.001112
v -0.000234 -0.001578 0.004476
v -0.000234 -0.004295 0.014896
v -0.019411 -0.006920 0.009723
v -0.018544 -0.006883 0.008853
v -0.019411 -0.006901 0.007987
v -0.020278 -0.006887 0.007987
v -0.021143 -0.006808 0.007987
v -0.022013 -0.006721 0.007987
v -0.019411 -0.006978 0.008853
v -0.022606 -0.006353 0.007339
v -0.023432 -0.005463 0.005671
v -0.023112 -0.005295 0.005097
v -0.022013 -0.005290 0.004265
v -0.022032 -0.004833 0.003599
v -0.020278 -0.005586 0.003867
v -0.024172 -0.003646 0.003217
v -0.024885 0.000252 0.001608
v -0.024390 -0.003068 0.003043
v -0.025155 -0.000353 0.002163
v -0.024868 0.001120 0.001602
v -0.024796 0.001985 0.001673
v -0.025039 0.001985 0.001889
v -0.024719 0.002852 0.001781
v -0.025186 0.002852 0.002217
v -0.025100 0.003457 0.002298
v -0.025028 0.004053 0.002391
v -0.025368 0.004584 0.002900
v -0.025802 0.004584 0.003339
v -0.025233 0.005251 0.003046
v -0.026069 0.005215 0.003905
v -0.028447 0.009647 0.011099
v -0.025039 0.009988 0.007247
v -0.024794 0.009988 0.007044
v -0.023233 0.008433 0.004151
v -0.023242 0.006722 0.002382
v -0.022013 0.008279 0.003393
v -0.021999 0.009988 0.005549
v -0.023095 0.009988 0.006085
v -0.023722 0.009988 0.006416
v -0.003484 0.012709 0.004417
v -0.022013 0.008708 0.003826
v -0.000234 0.004188 0.024138
v -0.003484 0.012709 0.024138
v -0.028447 0.009649 0.027372
v -0.028127 0.009649 0.027340
v -0.000234 -0.004054 0.015338
v -0.020278 -0.005968 0.012326
v -0.020278 -0.006228 0.011808
v -0.019411 -0.006652 0.010587
v -0.020278 -0.006627 0.010587
v -0.020278 -0.006831 0.009723
v -0.020278 -0.006908 0.008853
v -0.022013 -0.006627 0.008853
v -0.022645 -0.006409 0.008853
v -0.022731 -0.006465 0.007987
v -0.023576 -0.005559 0.006248
v -0.026837 -0.003721 0.007572
v -0.024360 -0.004661 0.005381
v -0.024225 -0.004552 0.004899
v -0.022847 -0.005089 0.004560
v -0.024410 -0.003816 0.003796
v -0.024987 -0.003575 0.004222
v -0.024689 -0.003320 0.003553
v -0.024968 -0.002580 0.003309
v -0.027710 -0.000430 0.004885
v -0.025299 0.001120 0.002038
v -0.025039 0.001478 0.001811
v -0.025282 0.001985 0.002112
v -0.025619 0.002852 0.002656
v -0.026025 0.002852 0.003089
v -0.026788 0.003261 0.004086
v -0.026177 0.004584 0.003775
v -0.026611 0.004584 0.004371
v -0.026799 0.005037 0.004923
v -0.026881 0.004584 0.004807
v -0.027431 0.003644 0.005459
v -0.027663 0.003307 0.005801
v -0.027710 -0.000033 0.004885
v -0.028050 0.001985 0.007987
v -0.028033 0.001120 0.007987
v -0.028447 0.006733 0.012486
v -0.028447 0.009649 0.011462
v -0.022653 0.008589 0.003972
v -0.018544 0.000069 0.019463
v -0.018544 -0.000364 0.019030
v -0.000234 -0.003239 0.016614
v -0.028447 0.004849 0.017380
v -0.027715 -0.001143 0.010270
v -0.026884 -0.002075 0.011199
v -0.026119 -0.003029 0.011313
v -0.025871 -0.003607 0.010890
v -0.025100 -0.003698 0.011947
v -0.024194 -0.004530 0.011903
v -0.023750 -0.004357 0.012526
v -0.021615 -0.005421 0.012786
v -0.020646 -0.003634 0.015335
v -0.020068 -0.003681 0.015427
v -0.019411 0.000125 0.019395
v -0.000234 -0.003825 0.015744
v -0.020278 -0.005563 0.012903
v -0.021143 -0.005517 0.012868
v -0.021143 -0.005856 0.012326
v -0.017677 -0.005267 0.013428
v -0.020902 -0.006338 0.011264
v -0.020278 -0.006377 0.011375
v -0.021173 -0.006157 0.011513
v -0.023360 -0.005417 0.011085
v -0.023490 -0.005496 0.010587
v -0.023664 -0.005610 0.009723
v -0.024103 -0.005338 0.009723
v -0.024178 -0.005386 0.009235
v -0.023833 -0.005648 0.008908
v -0.023799 -0.005615 0.007158
v -0.025166 -0.004600 0.009723
v -0.025600 -0.004239 0.009723
v -0.025959 -0.003715 0.010313
v -0.026213 -0.003280 0.010598
v -0.026688 -0.002640 0.010590
v -0.026975 -0.002206 0.010590
v -0.027732 -0.001166 0.009723
v -0.027873 -0.000617 0.008853
v -0.027622 -0.000948 0.005381
v -0.025180 -0.002997 0.003883
v -0.027729 -0.000514 0.005381
v -0.027986 0.000252 0.007987
v -0.026094 0.001985 0.003003
v -0.025716 0.001985 0.002567
v -0.026818 0.002686 0.004035
v -0.026997 0.003715 0.004609
v -0.026854 0.001985 0.003989
v -0.026528 0.001985 0.003558
v -0.028447 0.004704 0.014059
v -0.028447 0.005014 0.013634
v -0.028447 0.005475 0.013184
v -0.028447 0.006057 0.012832
v -0.019411 -0.003702 0.015457
v -0.028447 0.004536 0.016692
v -0.027887 -0.000617 0.009723
v -0.025064 -0.004557 0.010224
v -0.023750 -0.004665 0.012090
v -0.023924 -0.005211 0.010587
v -0.028003 0.000252 0.008853
v -0.028447 0.004380 0.014921
v -0.028447 0.004355 0.015790
f 1 2 3
f 1 3 4
f 1 4 5
f 1 5 6
f 1 6 7
f 1 7 8
f 1 8 9
f 1 9 2
f 2 10 11
f 2 11 12
f 2 12 13
f 2 13 14
f 2 14 15
f 2 15 3
f 2 9 8
f 2 8 16
f 2 16 10
f 3 17 4
f 3 15 18
f 3 18 19
f 3 19 17
f 4 17 20
f 4 20 5
f 5 20 21
f 5 21 22
f 5 22 23
f 5 23 24
f 5 24 25
f 5 25 6
f 6 25 7
f 7 25 26
f 7 26 27
f 7 27 28
f 7 28 8
f 8 28 29
f 8 29 30
f 8 30 31
f 8 31 32
f 8 32 16
f 10 33 32
f 10 32 34
f 10 34 11
f 10 16 33
f 11 34 35
f 11 35 12
f 12 36 13
f 12 35 37
f 12 37 38
f 12 38 39
f 12 39 40
f 12 40 36
f 13 36 41
f 13 41 42
f 13 42 43
f 13 43 44
f 13 44 14
f 14 44 15
f 15 44 45
f 15 45 18
f 16 32 33
f 17 19 46
f 17 46 47
f 17 47 20
f 18 45 48
f 18 48 49
f 18 49 50
f 18 50 19
f 19 50 46
f 20 47 21
f 21 51 52
f 21 52 53
f 21 53 54
f 21 54 22
f 21 47 55
f 21 55 51
f 22 56 57
f 22 57 58
f 22 58 59
f 22 59 23
f 22 54 60
f 22 60 61
f 22 61 62
f 22 62 63
f 22 63 64
f 22 64 56
f 23 59 24
f 24 65 26
f 24 26 25
f 24 59 58
f 24 58 66
f 24 66 67
f 24 67 68
f 24 68 65
f 26 65 69
f 26 69 70
f 26 70 27
f 27 71 28
f 27 70 71
f 28 71 72
f 28 72 29
f 29 72 109
f 29 109 68
f 29 68 108
f 29 108 153
f 29 153 197
f 29 197 210
f 29 210 157
f 29 157 113
f 29 113 77
f 29 77 76
f 29 76 112
f 29 112 73
f 29 73 35
f 29 35 34
f 29 34 32
f 29 32 31
f 29 31 30
f 35 73 37
f 36 40 41
f 37 73 74
f 37 74 75
f 37 75 38
f 38 75 76
f 38 76 77
f 38 77 39
f 39 78 79
f 39 79 80
f 39 80 81
f 39 81 82
f 39 82 40
f 39 77 83
f 39 83 115
f 39 115 78
f 40 82 84
f 40 84 41
f 41 84 85
f 41 85 42
f 42 85 86
f 42 86 87
f 42 87 48
f 42 48 45
f 42 45 43
f 43 45 44
f 46 50 88
f 46 88 89
f 46 89 55
f 46 55 47
f 48 90 91
f 48 91 49
f 48 87 86
f 48 86 92
f 48 92 90
f 49 91 93
f 49 93 94
f 49 94 52
f 49 52 88
f 49 88 50
f 51 89 52
f 51 55 89
f 52 89 88
f 52 94 53
f 53 94 54
f 54 94 95
f 54 95 60
f 56 96 57
f 56 64 96
f 57 96 58
f 58 96 66
f 60 95 97
f 60 97 98
f 60 98 99
f 60 99 100
f 60 100 101
f 60 101 61
f 61 101 63
f 61 63 62
f 63 101 102
f 63 102 64
f 64 102 103
f 64 103 104
f 64 104 66
f 64 66 96
f 65 68 69
f 66 104 105
f 66 105 106
f 66 106 67
f 67 106 68
f 68 107 151
f 68 151 154
f 68 154 108
f 68 109 110
f 68 110 111
f 68 111 70
f 68 70 69
f 68 106 107
f 70 111 71
f 71 111 110
f 71 110 72
f 72 110 109
f 73 112 74
f 74 112 76
f 74 76 75
f 77 113 114
f 77 114 115
f 77 115 83
f 78 116 79
f 78 115 116
f 79 117 118
f 79 118 119
f 79 119 80
f 79 116 120
f 79 120 117
f 80 119 81
f 81 119 121
f 81 121 122
f 81 122 82
f 82 122 123
f 82 123 124
f 82 124 125
f 82 125 90
f 82 90 92
f 82 92 126
f 82 126 84
f 84 126 86
f 84 86 85
f 86 126 92
f 90 125 127
f 90 127 91
f 91 127 94
f 91 94 93
f 94 128 95
f 94 127 129
f 94 129 130
f 94 130 128
f 95 128 131
f 95 131 97
f 97 131 98
f 98 131 99
f 99 101 100
f 99 131 132
f 99 132 101
f 101 132 133
f 101 133 134
f 101 134 135
f 101 135 136
f 101 136 137
f 101 137 102
f 102 137 138
f 102 138 139
f 102 139 140
f 102 140 141
f 102 141 142
f 102 142 143
f 102 143 144
f 102 144 145
f 102 145 146
f 102 146 103
f 103 146 104
f 104 146 105
f 105 147 106
f 105 146 147
f 106 148 149
f 106 149 150
f 106 150 144
f 106 144 143
f 106 143 151
f 106 151 107
f 106 147 152
f 106 152 148
f 108 154 155
f 108 155 156
f 108 156 153
f 113 157 158
f 113 158 159
f 113 159 160
f 113 160 114
f 114 160 161
f 114 161 162
f 114 162 163
f 114 163 120
f 114 120 115
f 115 120 116
f 117 163 118
f 117 120 163
f 118 163 119
f 119 164 165
f 119 165 166
f 119 166 121
f 119 163 162
f 119 162 164
f 121 166 167
f 121 167 122
f 122 167 168
f 122 168 169
f 122 169 170
f 122 170 127
f 122 127 123
f 123 127 171
f 123 171 124
f 124 171 127
f 124 127 125
f 127 170 172
f 127 172 173
f 127 173 174
f 127 174 175
f 127 175 129
f 128 130 176
f 128 176 177
f 128 177 131
f 129 175 130
f 130 175 176
f 131 177 178
f 131 178 133
f 131 133 132
f 133 178 179
f 133 179 134
f 134 179 135
f 135 179 180
f 135 180 137
f 135 137 136
f 137 180 139
f 137 139 138
f 139 180 181
f 139 181 182
f 139 182 183
f 139 183 141
f 139 141 140
f 141 183 184
f 141 184 185
f 141 185 142
f 142 185 186
f 142 186 187
f 142 187 188
f 142 188 189
f 142 189 176
f 142 176 190
f 142 190 191
f 142 191 192
f 142 192 246
f 142 246 245
f 142 245 244
f 142 244 243
f 142 243 254
f 142 254 255
f 142 255 248
f 142 248 198
f 142 198 155
f 142 155 193
f 142 193 151
f 142 151 143
f 144 150 194
f 144 194 145
f 145 194 146
f 146 194 147
f 147 194 152
f 148 152 194
f 148 194 149
f 149 194 150
f 151 193 155
f 151 155 154
f 153 156 155
f 153 155 195
f 153 195 196
f 153 196 197
f 155 198 199
f 155 199 200
f 155 200 201
f 155 201 202
f 155 202 203
f 155 203 204
f 155 204 205
f 155 205 206
f 155 206 207
f 155 207 208
f 155 208 209
f 155 209 195
f 157 210 158
f 158 211 212
f 158 212 213
f 158 213 159
f 158 210 214
f 158 214 211
f 159 213 215
f 159 215 216
f 159 216 160
f 160 216 161
f 161 216 215
f 161 215 162
f 162 215 164
f 164 215 165
f 165 215 217
f 165 217 218
f 165 218 219
f 165 219 220
f 165 220 221
f 165 221 222
f 165 222 223
f 165 223 166
f 166 223 168
f 166 168 224
f 166 224 167
f 167 224 168
f 168 225 226
f 168 226 227
f 168 227 202
f 168 202 228
f 168 228 229
f 168 229 230
f 168 230 199
f 168 199 231
f 168 231 232
f 168 232 233
f 168 233 173
f 168 173 170
f 168 170 169
f 168 223 222
f 168 222 225
f 170 173 172
f 173 233 176
f 173 176 234
f 173 234 174
f 174 234 175
f 175 234 176
f 176 233 235
f 176 235 236
f 176 236 191
f 176 191 190
f 176 189 177
f 177 189 237
f 177 237 238
f 177 238 179
f 177 179 178
f 179 238 180
f 180 238 181
f 181 238 237
f 181 237 182
f 182 184 183
f 182 237 239
f 182 239 189
f 182 189 240
f 182 240 184
f 184 240 186
f 184 186 185
f 186 240 187
f 187 240 188
f 188 240 189
f 189 239 241
f 189 241 242
f 189 242 237
f 191 243 244
f 191 244 245
f 191 245 246
f 191 246 192
f 191 236 243
f 195 209 196
f 196 209 208
f 196 208 247
f 196 247 197
f 197 247 214
f 197 214 210
f 198 248 199
f 199 249 231
f 199 230 200
f 199 248 249
f 200 230 229
f 200 229 202
f 200 202 201
f 202 229 228
f 202 227 226
f 202 226 250
f 202 250 204
f 202 204 203
f 204 218 251
f 204 251 205
f 204 250 218
f 205 251 206
f 206 213 212
f 206 212 207
f 206 251 218
f 206 218 213
f 207 212 208
f 208 211 247
f 208 212 211
f 211 214 247
f 213 218 217
f 213 217 215
f 218 250 252
f 218 252 219
f 219 252 221
f 219 221 220
f 221 252 250
f 221 250 225
f 221 225 222
f 225 250 226
f 231 249 232
f 232 249 253
f 232 253 236
f 232 236 235
f 232 235 233
f 236 253 254
f 236 254 243
f 237 242 239
f 239 242 241
f 248 255 249
f 249 255 253
f 253 255 254
