v 0.020515 0.017607 0.000293
v 0.021014 0.019828 0.000594
v 0.022251 0.019189 0.000551
v 0.022835 0.019059 0.000564
v 0.023117 0.017607 0.000440
v 0.023942 0.016759 0.000507
v 0.023117 0.016743 0.000464
v 0.005764 0.012461 0.000464
v 0.005764 0.013295 0.000474
v 0.019652 0.017607 0.000313
v 0.021690 0.019709 0.000614
v 0.003139 0.014593 0.000785
v 0.019846 0.026592 0.002600
v 0.022251 0.019623 0.000641
v 0.024655 0.020819 0.001381
v 0.023925 0.017575 0.000511
v 0.024479 0.017158 0.000557
v 0.023534 0.013735 0.001482
v 0.022869 0.013612 0.001298
v 0.023623 0.016272 0.000584
v 0.005764 0.012028 0.000651
v 0.003125 0.010696 0.001442
v 0.003135 0.011370 0.001150
v 0.003142 0.012401 0.000809
v 0.005122 0.012808 0.000537
v 0.022251 0.014138 0.000949
v 0.003125 0.014593 0.024136
v 0.013457 0.023744 0.005962
v 0.013457 0.023744 0.029186
v 0.019846 0.026402 0.034503
v 0.025830 0.026592 0.034503
v 0.020277 0.026592 0.002902
v 0.027267 0.021723 0.003836
v 0.025399 0.022473 0.003146
v 0.026337 0.021632 0.003126
v 0.025195 0.020209 0.001529
v 0.026924 0.021078 0.003260
v 0.025457 0.013619 0.002279
v 0.027186 0.017429 0.002239
v 0.027186 0.016927 0.002239
v 0.022251 0.013574 0.001197
v 0.023674 0.010137 0.003990
v 0.003135 0.007236 0.003642
v 0.003125 0.010015 0.001837
v 0.003125 0.007236 0.024136
v 0.020213 0.025946 0.034503
v 0.025385 0.026315 0.034503
v 0.034053 0.018833 0.026684
v 0.027461 0.026592 0.033777
v 0.033031 0.026592 0.015429
v 0.027362 0.021078 0.003695
v 0.033384 0.026592 0.015831
v 0.034875 0.023316 0.014431
v 0.034970 0.022731 0.014110
v 0.034862 0.022166 0.013594
v 0.025990 0.014138 0.002446
v 0.026347 0.013483 0.002985
v 0.027933 0.017164 0.003106
v 0.028901 0.014356 0.005637
v 0.024424 0.009356 0.007563
v 0.007483 0.007236 0.005711
v 0.027084 0.011757 0.005708
v 0.027046 0.011073 0.006532
v 0.010601 0.007236 0.024136
v 0.022893 0.025353 0.034503
v 0.022057 0.025355 0.034503
v 0.021384 0.025512 0.034503
v 0.020712 0.025753 0.034503
v 0.024499 0.025802 0.034503
v 0.034175 0.017816 0.025924
v 0.034631 0.019125 0.026483
v 0.034879 0.019699 0.026674
v 0.034366 0.019386 0.026791
v 0.033051 0.015451 0.024889
v 0.033846 0.017238 0.025720
v 0.027936 0.026592 0.033529
v 0.033883 0.026592 0.016578
v 0.034046 0.025970 0.016116
v 0.034845 0.024142 0.015339
v 0.034977 0.023636 0.015004
v 0.035731 0.023305 0.016169
v 0.035595 0.023002 0.015583
v 0.035425 0.022750 0.014994
v 0.035605 0.021944 0.014719
v 0.035228 0.021944 0.014066
v 0.029682 0.018045 0.005644
v 0.027114 0.013574 0.003936
v 0.035887 0.019345 0.015128
v 0.035806 0.018748 0.015235
v 0.036594 0.017128 0.018165
v 0.023524 0.009375 0.011612
v 0.019601 0.008119 0.014009
v 0.019751 0.008119 0.013185
v 0.019693 0.008119 0.012201
v 0.019432 0.008119 0.011437
v 0.018810 0.008119 0.010590
v 0.010601 0.007236 0.007677
v 0.032949 0.013738 0.020991
v 0.035741 0.016285 0.017894
v 0.035799 0.016239 0.018399
v 0.033921 0.014597 0.019257
v 0.033530 0.014116 0.020991
v 0.019299 0.008119 0.014923
v 0.018946 0.008119 0.015771
v 0.018331 0.008119 0.017023
v 0.018083 0.008119 0.017468
v 0.014626 0.008119 0.023633
v 0.023986 0.025607 0.034503
v 0.034332 0.016795 0.025090
v 0.034896 0.017113 0.024946
v 0.035089 0.017605 0.025110
v 0.035687 0.018070 0.024889
v 0.035490 0.020133 0.026239
v 0.035592 0.021075 0.026544
v 0.035008 0.020209 0.026741
v 0.033530 0.015231 0.024317
v 0.034070 0.015357 0.024126
v 0.033530 0.015645 0.024745
v 0.033995 0.016281 0.024926
v 0.028357 0.026592 0.033184
v 0.034121 0.026592 0.017070
v 0.034817 0.024959 0.016273
v 0.034957 0.024333 0.015804
v 0.036533 0.022263 0.017204
v 0.035809 0.022750 0.015844
v 0.034753 0.025718 0.017321
v 0.035531 0.025559 0.019257
v 0.035779 0.025125 0.019257
v 0.035816 0.023460 0.016668
v 0.036641 0.022524 0.017770
v 0.035714 0.022424 0.015332
v 0.035785 0.021944 0.015151
v 0.036618 0.021677 0.016990
v 0.036227 0.021075 0.015804
v 0.035874 0.021075 0.014987
v 0.035673 0.021075 0.014555
v 0.035908 0.020209 0.015041
v 0.036268 0.019345 0.015804
v 0.036641 0.018720 0.016936
v 0.036784 0.018447 0.017489
v 0.037052 0.018475 0.018399
v 0.037450 0.018886 0.019910
v 0.037494 0.018805 0.020991
v 0.037497 0.018795 0.021865
v 0.037263 0.018361 0.021865
v 0.036577 0.017160 0.022338
v 0.035864 0.016131 0.020991
v 0.035847 0.016148 0.020134
v 0.036230 0.016685 0.018399
v 0.034084 0.014460 0.021865
v 0.033530 0.014119 0.021865
v 0.032667 0.013801 0.021852
v 0.035833 0.016184 0.019257
v 0.033568 0.014364 0.022759
v 0.033296 0.014500 0.023289
v 0.033568 0.014773 0.023587
v 0.034906 0.016222 0.024122
v 0.035194 0.016838 0.024390
v 0.035520 0.017605 0.024712
v 0.035897 0.017605 0.024276
v 0.036509 0.018164 0.023965
v 0.036648 0.018742 0.024116
v 0.035830 0.020368 0.025974
v 0.035897 0.021075 0.026108
v 0.035582 0.021944 0.026450
v 0.028775 0.026592 0.032779
v 0.034376 0.015224 0.023530
v 0.034855 0.015421 0.023198
v 0.034648 0.015639 0.023781
v 0.033873 0.014612 0.023078
v 0.034811 0.026592 0.019099
v 0.034573 0.026560 0.018279
v 0.034420 0.026406 0.017562
v 0.036410 0.021961 0.016678
v 0.037429 0.021474 0.018845
v 0.034855 0.025893 0.017894
v 0.035762 0.025595 0.020070
v 0.034943 0.026033 0.018399
v 0.036458 0.024714 0.020991
v 0.036947 0.022812 0.019257
v 0.036580 0.023276 0.018774
v 0.036604 0.022958 0.018329
v 0.037416 0.021823 0.019307
v 0.036522 0.020209 0.016340
v 0.036298 0.020209 0.015804
v 0.037389 0.021016 0.018584
v 0.036512 0.019345 0.016363
v 0.036696 0.019345 0.016799
v 0.036988 0.019345 0.017525
v 0.037293 0.019411 0.018473
v 0.037433 0.019288 0.019223
v 0.037599 0.019345 0.020134
v 0.037698 0.019345 0.020991
v 0.037660 0.019345 0.021865
v 0.037467 0.018841 0.022405
v 0.036777 0.017571 0.022672
v 0.036499 0.017255 0.022924
v 0.035768 0.016232 0.022528
v 0.035833 0.016158 0.021865
v 0.035405 0.015722 0.021865
v 0.035408 0.015694 0.020991
v 0.034046 0.014491 0.022505
v 0.035731 0.017136 0.024072
v 0.036726 0.017835 0.023382
v 0.036852 0.018464 0.023644
v 0.036770 0.019345 0.024283
v 0.035833 0.021944 0.026018
v 0.036828 0.020209 0.024417
v 0.037253 0.020209 0.023600
v 0.037042 0.022812 0.023600
v 0.036706 0.022812 0.024220
v 0.035008 0.022812 0.026805
v 0.036648 0.023348 0.024126
v 0.034896 0.023371 0.026708
v 0.034933 0.026592 0.023707
v 0.034909 0.015368 0.022733
v 0.035680 0.016336 0.023101
v 0.035887 0.016946 0.023600
v 0.035052 0.015910 0.023530
v 0.035014 0.026592 0.019977
v 0.035711 0.025866 0.020583
v 0.037548 0.021963 0.020171
v 0.037738 0.021075 0.020134
v 0.037555 0.021139 0.019183
v 0.036784 0.024424 0.021865
v 0.037171 0.023682 0.021865
v 0.037385 0.022263 0.019910
v 0.037012 0.020209 0.017525
v 0.037392 0.020209 0.018530
v 0.037443 0.019745 0.018808
v 0.037752 0.020209 0.020134
v 0.037823 0.020209 0.020991
v 0.037718 0.020209 0.021865
v 0.037453 0.019345 0.022793
v 0.037161 0.019345 0.023600
v 0.037259 0.018523 0.022713
v 0.037480 0.020209 0.022897
v 0.037470 0.021075 0.022857
v 0.037433 0.021944 0.022679
v 0.037348 0.022744 0.022649
v 0.037151 0.023682 0.022733
v 0.036804 0.023655 0.023587
v 0.036675 0.024239 0.023285
v 0.036784 0.024356 0.022733
v 0.035143 0.026592 0.022733
v 0.035130 0.026592 0.020985
v 0.035157 0.026592 0.021865
v 0.036461 0.024858 0.021865
v 0.037636 0.021944 0.020991
v 0.037453 0.022412 0.020489
v 0.037480 0.022503 0.020991
v 0.037772 0.021075 0.020991
v 0.037582 0.020209 0.019257
v 0.037385 0.022931 0.021865
v 0.037684 0.021075 0.021865
v 0.037599 0.021944 0.021865
f 1 2 3
f 1 3 4
f 1 4 5
f 1 5 6
f 1 6 7
f 1 7 8
f 1 8 9
f 1 9 10
f 1 10 2
f 2 11 3
f 2 10 12
f 2 12 13
f 2 13 11
f 3 11 4
f 4 11 14
f 4 14 15
f 4 15 16
f 4 16 5
f 5 16 6
f 6 17 18
f 6 18 19
f 6 19 20
f 6 20 7
f 6 16 17
f 7 20 8
f 8 21 22
f 8 22 23
f 8 23 24
f 8 24 25
f 8 25 9
f 8 20 26
f 8 26 21
f 9 25 12
f 9 12 10
f 11 13 14
f 12 24 22
f 12 22 27
f 12 27 28
f 12 28 13
f 12 25 24
f 13 28 29
f 13 29 30
f 13 30 31
f 13 31 49
f 13 49 76
f 13 76 120
f 13 120 166
f 13 166 215
f 13 215 245
f 13 245 247
f 13 247 246
f 13 246 220
f 13 220 171
f 13 171 121
f 13 121 77
f 13 77 52
f 13 52 50
f 13 50 32
f 13 32 33
f 13 33 34
f 13 34 35
f 13 35 15
f 13 15 14
f 15 36 17
f 15 17 16
f 15 35 33
f 15 33 37
f 15 37 36
f 17 38 18
f 17 36 39
f 17 39 40
f 17 40 38
f 18 38 19
f 19 41 26
f 19 26 20
f 19 38 42
f 19 42 41
f 21 43 44
f 21 44 22
f 21 26 41
f 21 41 43
f 22 44 45
f 22 45 27
f 22 24 23
f 27 45 30
f 27 30 29
f 27 29 28
f 30 45 46
f 30 46 68
f 30 68 67
f 30 67 66
f 30 66 65
f 30 65 108
f 30 108 69
f 30 69 47
f 30 47 31
f 31 47 48
f 31 48 49
f 32 50 33
f 33 51 37
f 33 35 34
f 33 50 52
f 33 52 53
f 33 53 54
f 33 54 55
f 33 55 51
f 36 37 39
f 37 51 39
f 38 56 57
f 38 57 42
f 38 40 56
f 39 51 55
f 39 55 58
f 39 58 40
f 40 57 56
f 40 58 59
f 40 59 57
f 41 42 43
f 42 60 61
f 42 61 43
f 42 57 62
f 42 62 63
f 42 63 60
f 43 61 97
f 43 97 64
f 43 64 45
f 43 45 44
f 45 64 65
f 45 65 66
f 45 66 67
f 45 67 68
f 45 68 46
f 47 69 48
f 48 70 71
f 48 71 72
f 48 72 73
f 48 73 49
f 48 69 74
f 48 74 75
f 48 75 70
f 49 73 72
f 49 72 76
f 52 77 78
f 52 78 53
f 53 78 79
f 53 79 80
f 53 80 81
f 53 81 82
f 53 82 83
f 53 83 54
f 54 83 84
f 54 84 85
f 54 85 55
f 55 86 58
f 55 85 86
f 57 59 87
f 57 87 62
f 58 86 88
f 58 88 59
f 59 63 62
f 59 62 87
f 59 88 89
f 59 89 90
f 59 90 63
f 60 91 92
f 60 92 93
f 60 93 94
f 60 94 95
f 60 95 96
f 60 96 97
f 60 97 61
f 60 63 98
f 60 98 91
f 63 90 99
f 63 99 100
f 63 100 101
f 63 101 102
f 63 102 98
f 64 97 93
f 64 93 92
f 64 92 103
f 64 103 104
f 64 104 105
f 64 105 106
f 64 106 107
f 64 107 74
f 64 74 108
f 64 108 65
f 69 108 74
f 70 109 110
f 70 110 71
f 70 75 109
f 71 110 72
f 72 110 111
f 72 111 112
f 72 112 113
f 72 113 114
f 72 114 115
f 72 115 76
f 74 116 117
f 74 117 118
f 74 118 75
f 74 107 116
f 75 118 119
f 75 119 109
f 76 115 114
f 76 114 120
f 77 121 122
f 77 122 78
f 78 122 79
f 79 122 123
f 79 123 81
f 79 81 80
f 81 124 125
f 81 125 82
f 81 123 122
f 81 122 126
f 81 126 127
f 81 127 128
f 81 128 129
f 81 129 130
f 81 130 124
f 82 125 131
f 82 131 83
f 83 131 84
f 84 131 132
f 84 132 133
f 84 133 134
f 84 134 135
f 84 135 136
f 84 136 85
f 85 136 86
f 86 136 88
f 88 136 137
f 88 137 138
f 88 138 89
f 89 138 139
f 89 139 90
f 90 139 140
f 90 140 141
f 90 141 142
f 90 142 143
f 90 143 144
f 90 144 145
f 90 145 146
f 90 146 147
f 90 147 148
f 90 148 149
f 90 149 99
f 91 98 92
f 92 98 103
f 93 97 94
f 94 97 95
f 95 97 96
f 98 102 150
f 98 150 151
f 98 151 152
f 98 152 105
f 98 105 104
f 98 104 103
f 99 149 100
f 100 149 153
f 100 153 150
f 100 150 101
f 101 150 102
f 105 152 106
f 106 152 107
f 107 152 154
f 107 154 155
f 107 155 156
f 107 156 116
f 109 119 110
f 110 157 158
f 110 158 159
f 110 159 112
f 110 112 111
f 110 119 117
f 110 117 157
f 112 159 160
f 112 160 161
f 112 161 162
f 112 162 163
f 112 163 113
f 113 163 114
f 114 163 164
f 114 164 165
f 114 165 166
f 114 166 120
f 116 156 117
f 117 167 168
f 117 168 169
f 117 169 157
f 117 119 118
f 117 156 170
f 117 170 167
f 121 171 172
f 121 172 173
f 121 173 126
f 121 126 122
f 124 174 131
f 124 131 125
f 124 130 175
f 124 175 174
f 126 176 127
f 126 173 176
f 127 177 128
f 127 176 178
f 127 178 172
f 127 172 171
f 127 171 177
f 128 179 180
f 128 180 181
f 128 181 182
f 128 182 129
f 128 177 179
f 129 182 130
f 130 182 180
f 130 180 183
f 130 183 175
f 131 174 132
f 132 174 133
f 133 175 134
f 133 174 175
f 134 184 185
f 134 185 135
f 134 175 186
f 134 186 184
f 135 185 136
f 136 185 137
f 137 185 138
f 138 185 187
f 138 187 139
f 139 188 189
f 139 189 140
f 139 187 188
f 140 189 190
f 140 190 141
f 141 190 191
f 141 191 142
f 142 191 192
f 142 192 193
f 142 193 143
f 143 193 144
f 144 193 194
f 144 194 195
f 144 195 196
f 144 196 145
f 145 196 146
f 146 197 198
f 146 198 199
f 146 199 147
f 146 196 197
f 147 199 200
f 147 200 201
f 147 201 148
f 148 153 149
f 148 201 153
f 150 202 151
f 150 153 201
f 150 201 200
f 150 200 202
f 151 154 152
f 151 202 154
f 154 202 170
f 154 170 155
f 155 170 156
f 157 169 203
f 157 203 158
f 158 203 159
f 159 203 160
f 160 203 204
f 160 204 161
f 161 204 205
f 161 205 162
f 162 205 206
f 162 206 163
f 163 206 164
f 164 207 165
f 164 206 208
f 164 208 209
f 164 209 210
f 164 210 211
f 164 211 207
f 165 212 166
f 165 207 211
f 165 211 213
f 165 213 214
f 165 214 212
f 166 214 215
f 166 212 214
f 167 170 168
f 168 170 202
f 168 202 216
f 168 216 198
f 168 198 217
f 168 217 218
f 168 218 219
f 168 219 169
f 169 219 203
f 171 220 221
f 171 221 177
f 172 178 173
f 173 178 176
f 175 183 222
f 175 222 223
f 175 223 224
f 175 224 186
f 177 221 179
f 179 221 225
f 179 225 226
f 179 226 227
f 179 227 180
f 180 227 183
f 180 182 181
f 183 227 222
f 184 186 228
f 184 228 188
f 184 188 185
f 185 188 187
f 186 224 229
f 186 229 228
f 188 228 189
f 189 228 229
f 189 229 230
f 189 230 190
f 190 230 191
f 191 230 192
f 192 231 193
f 192 230 231
f 193 231 232
f 193 232 194
f 194 232 233
f 194 233 234
f 194 234 195
f 195 234 235
f 195 235 236
f 195 236 196
f 196 236 204
f 196 204 197
f 197 217 198
f 197 204 217
f 198 216 199
f 199 216 200
f 200 216 202
f 203 219 218
f 203 218 204
f 204 236 205
f 204 218 217
f 205 236 235
f 205 235 206
f 206 235 208
f 208 235 209
f 209 235 234
f 209 234 237
f 209 237 238
f 209 238 210
f 210 238 239
f 210 239 240
f 210 240 241
f 210 241 242
f 210 242 213
f 210 213 211
f 213 242 243
f 213 243 214
f 214 243 215
f 215 243 244
f 215 244 245
f 220 246 221
f 221 246 247
f 221 247 248
f 221 248 225
f 222 249 223
f 222 227 250
f 222 250 251
f 222 251 249
f 223 252 232
f 223 232 231
f 223 231 224
f 223 249 252
f 224 231 253
f 224 253 229
f 225 244 241
f 225 241 226
f 225 248 245
f 225 245 244
f 226 241 254
f 226 254 251
f 226 251 250
f 226 250 227
f 229 253 230
f 230 253 231
f 232 252 255
f 232 255 233
f 233 255 238
f 233 238 237
f 233 237 234
f 238 255 239
f 239 255 256
f 239 256 240
f 240 256 241
f 241 256 254
f 241 244 243
f 241 243 242
f 245 248 247
f 249 251 254
f 249 254 256
f 249 256 252
f 252 256 255
