v -0.031562 0.037695 0.007121
v -0.031562 0.037661 0.006257
v -0.032432 0.037684 0.006257
v -0.032432 0.037634 0.007121
v -0.031562 0.037596 0.007986
v -0.025048 0.037397 0.009939
v -0.025048 0.037504 0.008649
v -0.031585 0.037340 0.005369
v -0.025048 0.037374 0.007758
v -0.032049 0.037168 0.004900
v -0.032630 0.037241 0.005145
v -0.033211 0.037142 0.005434
v -0.033495 0.037199 0.006186
v -0.033536 0.037256 0.007002
v -0.032666 0.037195 0.009091
v -0.032432 0.037466 0.007986
v -0.031562 0.037451 0.008857
v -0.033720 0.037122 0.008009
v -0.033328 0.037065 0.008921
v -0.025048 0.037229 0.010588
v -0.003481 0.024585 0.022714
v -0.031626 0.037111 0.010170
v -0.003481 0.024585 0.002470
v -0.025048 0.036836 0.006628
v -0.026936 0.034648 0.003056
v -0.027224 0.034228 0.002572
v -0.034432 0.034766 0.002222
v -0.034221 0.035266 0.002794
v -0.033896 0.036443 0.004736
v -0.034072 0.036580 0.005383
v -0.034225 0.036893 0.007121
v -0.034865 0.036530 0.007986
v -0.032378 0.037134 0.009677
v -0.034162 0.036813 0.008857
v -0.034860 0.036466 0.008857
v -0.033301 0.036874 0.009724
v -0.025048 0.036630 0.011898
v -0.003481 0.011463 0.022714
v -0.028967 0.023860 0.031976
v -0.028089 0.023310 0.032299
v -0.027810 0.022519 0.032796
v -0.028269 0.020915 0.033735
v -0.028026 0.020277 0.033901
v -0.028256 0.018971 0.034361
v -0.027224 0.018471 0.034041
v -0.026512 0.017623 0.033731
v -0.032432 0.036725 0.010588
v -0.030697 0.024856 0.030747
v -0.003639 0.011463 0.003920
v -0.003639 0.022737 0.001208
v -0.003675 0.023501 0.001358
v -0.004202 0.024142 0.001446
v -0.007216 0.024585 0.000269
v -0.026665 0.033750 0.002293
v -0.027224 0.032032 0.001392
v -0.033572 0.029275 -0.000384
v -0.036469 0.031745 0.001351
v -0.034856 0.034885 0.002777
v -0.036451 0.034705 0.005124
v -0.036239 0.035454 0.008683
v -0.034162 0.036374 0.010122
v -0.034883 0.036210 0.009626
v -0.047741 0.025971 0.014926
v -0.048448 0.025108 0.016662
v -0.033243 0.036473 0.010605
v -0.029832 0.024872 0.030690
v -0.029832 0.024436 0.031370
v -0.027224 0.016749 0.033963
v -0.026643 0.016489 0.033673
v -0.028688 0.014263 0.033619
v -0.029053 0.012930 0.032782
v -0.028089 0.012082 0.031717
v -0.027224 0.011830 0.031166
v -0.032198 -0.001116 0.018026
v -0.028967 0.022890 0.032734
v -0.029832 0.023860 0.031989
v -0.028967 0.021942 0.033323
v -0.028967 0.021278 0.033687
v -0.028967 0.020209 0.034129
v -0.029828 0.020209 0.034095
v -0.029828 0.019330 0.034211
v -0.028967 0.017623 0.034374
v -0.028089 0.017623 0.034279
v -0.027224 0.017623 0.034031
v -0.032013 0.024990 0.030118
v -0.031562 0.024772 0.030639
v -0.031562 0.024341 0.031268
v -0.030697 0.024421 0.031322
v -0.010739 0.011830 0.002195
v -0.008707 0.014385 0.000449
v -0.005103 0.016424 0.001477
v -0.032211 -0.001104 0.017352
v -0.033518 -0.000971 0.014246
v -0.033319 -0.000467 0.013174
v -0.033747 -0.000272 0.012705
v -0.006094 0.017612 0.000647
v -0.006991 0.022034 -0.000364
v -0.007022 0.022924 -0.000360
v -0.008135 0.024585 -0.000041
v -0.043749 0.017650 0.006751
v -0.044556 0.017619 0.007179
v -0.038109 0.027602 0.002307
v -0.012140 0.018746 -0.000323
v -0.026368 0.015011 0.000290
v -0.027224 0.015011 0.000371
v -0.027179 0.014163 0.000470
v -0.027742 0.014469 0.000572
v -0.030355 0.014480 0.001450
v -0.045831 0.021076 0.007588
v -0.047768 0.020209 0.009081
v -0.046840 0.024780 0.009207
v -0.047745 0.025960 0.013793
v -0.033797 0.024150 0.030159
v -0.048903 0.024929 0.015797
v -0.048989 0.024585 0.016736
v -0.048588 0.024215 0.017750
v -0.047826 0.024008 0.018713
v -0.028089 0.016749 0.034187
v -0.028089 0.015886 0.033973
v -0.028967 0.015011 0.033963
v -0.029828 0.014175 0.033558
v -0.031562 0.013568 0.032864
v -0.030220 0.011055 0.031047
v -0.029404 0.011112 0.030975
v -0.033301 -0.001150 0.018152
v -0.033301 -0.001249 0.017522
v -0.029828 0.022897 0.032738
v -0.030697 0.023810 0.031942
v -0.029828 0.021942 0.033313
v -0.029828 0.021247 0.033656
v -0.030697 0.021331 0.033537
v -0.033148 0.020071 0.033544
v -0.032432 0.017623 0.034037
v -0.028967 0.016749 0.034313
v -0.031562 0.016749 0.034119
v -0.032563 0.023970 0.031271
v -0.031562 0.023756 0.031884
v -0.024214 0.011074 0.001446
v -0.009870 0.014309 0.000351
v -0.009005 0.015011 0.000228
v -0.008604 0.017921 -0.000303
v -0.009870 0.015011 0.000106
v -0.034166 -0.001173 0.014933
v -0.034437 -0.001047 0.014273
v -0.034171 -0.000493 0.013157
v -0.036212 0.002329 0.010044
v -0.044411 0.016932 0.007332
v -0.030693 0.013274 0.001875
v -0.030963 0.012636 0.002205
v -0.045587 0.020209 0.007485
v -0.047804 0.019227 0.009472
v -0.010739 0.016749 -0.000170
v -0.010739 0.015878 -0.000041
v -0.026399 0.014118 0.000443
v -0.027021 0.013503 0.000711
v -0.046997 0.020419 0.008489
v -0.049412 0.022485 0.012643
v -0.048353 0.022565 0.010847
v -0.049507 0.023959 0.015665
v -0.034820 0.023413 0.030271
v -0.035496 0.022405 0.030996
v -0.049439 0.023966 0.016461
v -0.048507 0.023287 0.018849
v -0.028967 0.015886 0.034194
v -0.029828 0.015011 0.033932
v -0.032130 0.015271 0.033646
v -0.031562 0.014144 0.033204
v -0.032306 0.013885 0.032870
v -0.037636 -0.000371 0.019033
v -0.037636 -0.000688 0.018390
v -0.035896 -0.001158 0.017356
v -0.035036 -0.001318 0.016672
v -0.034166 -0.001269 0.016672
v -0.034166 -0.001227 0.015797
v -0.030697 0.022851 0.032683
v -0.030697 0.021942 0.033248
v -0.031562 0.021942 0.033115
v -0.032432 0.021079 0.033313
v -0.033301 0.017623 0.033854
v -0.033328 0.021133 0.033037
v -0.034473 0.020789 0.032823
v -0.034162 0.020209 0.033129
v -0.033815 0.018223 0.033622
v -0.033887 0.016982 0.033677
v -0.032432 0.016749 0.033952
v -0.029828 0.015886 0.034140
v -0.031562 0.015886 0.033908
v -0.032536 0.023321 0.031891
v -0.031562 0.023046 0.032411
v -0.027224 0.012590 0.001276
v -0.035960 -0.001177 0.016611
v -0.036297 -0.001036 0.016281
v -0.036518 -0.000276 0.014253
v -0.036230 -0.000161 0.013674
v -0.038645 0.001489 0.012667
v -0.037352 0.002321 0.010823
v -0.039167 0.002138 0.012562
v -0.039748 0.002646 0.012909
v -0.047763 0.016974 0.011653
v -0.047916 0.017558 0.011405
v -0.048299 0.017619 0.012327
v -0.049417 0.021813 0.012936
v -0.049381 0.020480 0.015236
v -0.049381 0.020430 0.016434
v -0.035410 0.021366 0.031812
v -0.034829 0.021656 0.031965
v -0.049142 0.019334 0.017526
v -0.049155 0.020209 0.017526
v -0.048917 0.020209 0.018390
v -0.048899 0.021076 0.018390
v -0.048502 0.021076 0.019298
v -0.047808 0.021186 0.020353
v -0.034004 0.013552 0.031986
v -0.034585 0.013877 0.031836
v -0.038217 -0.000325 0.018659
v -0.037636 -0.000726 0.017522
v -0.036640 -0.001009 0.016835
v -0.031797 0.022443 0.032755
v -0.036347 0.018055 0.031853
v -0.035329 0.018471 0.032622
v -0.034130 0.017623 0.033541
v -0.034901 0.017623 0.032976
v -0.036370 0.014553 0.031003
v -0.038077 0.000679 0.013617
v -0.039821 0.001538 0.015682
v -0.039893 0.002314 0.013776
v -0.048097 0.015874 0.014062
v -0.047808 0.016459 0.012450
v -0.048232 0.016741 0.013191
v -0.048475 0.017050 0.013906
v -0.049363 0.020140 0.015797
v -0.049200 0.019334 0.016665
v -0.048966 0.018475 0.016665
v -0.048836 0.018395 0.017604
v -0.048691 0.018628 0.018172
v -0.048678 0.019464 0.018693
v -0.048480 0.020209 0.019281
v -0.047664 0.020346 0.020442
v -0.037208 0.018028 0.030975
v -0.038870 0.000301 0.017522
v -0.038244 -0.000348 0.017522
v -0.039902 0.003165 0.019785
v -0.040753 0.003184 0.018628
v -0.040951 0.002932 0.017522
v -0.046799 0.017108 0.019744
v -0.040663 0.003723 0.019244
v -0.039014 0.000610 0.016383
v -0.040794 0.002695 0.016672
v -0.040717 0.002791 0.015797
v -0.040059 0.002081 0.014933
v -0.040528 0.002860 0.014852
v -0.048133 0.015874 0.014926
v -0.048475 0.016871 0.014845
v -0.041560 0.003902 0.016406
v -0.041546 0.003925 0.017788
v -0.041438 0.004410 0.018638
f 1 2 3
f 1 3 4
f 1 4 5
f 1 5 6
f 1 6 7
f 1 7 2
f 2 8 3
f 2 7 9
f 2 9 8
f 3 8 10
f 3 10 11
f 3 11 12
f 3 12 13
f 3 13 14
f 3 14 4
f 4 15 16
f 4 16 17
f 4 17 5
f 4 14 18
f 4 18 19
f 4 19 15
f 5 17 6
f 6 20 21
f 6 21 7
f 6 17 22
f 6 22 20
f 7 21 23
f 7 23 9
f 8 9 24
f 8 24 10
f 9 23 24
f 10 24 25
f 10 25 26
f 10 26 27
f 10 27 28
f 10 28 11
f 11 28 12
f 12 28 29
f 12 29 30
f 12 30 13
f 13 30 31
f 13 31 14
f 14 31 32
f 14 32 18
f 15 33 16
f 15 19 33
f 16 33 17
f 17 33 22
f 18 34 19
f 18 32 35
f 18 35 34
f 19 34 36
f 19 36 33
f 20 37 21
f 20 22 37
f 21 38 23
f 21 37 39
f 21 39 40
f 21 40 41
f 21 41 42
f 21 42 43
f 21 43 44
f 21 44 45
f 21 45 46
f 21 46 38
f 22 33 47
f 22 47 48
f 22 48 37
f 23 38 49
f 23 49 50
f 23 50 51
f 23 51 52
f 23 52 53
f 23 53 24
f 24 53 25
f 25 53 54
f 25 54 26
f 26 54 27
f 27 54 55
f 27 55 56
f 27 56 57
f 27 57 58
f 27 58 28
f 28 58 29
f 29 58 59
f 29 59 30
f 30 59 31
f 31 59 32
f 32 59 60
f 32 60 35
f 33 36 47
f 34 61 36
f 34 35 62
f 34 62 61
f 35 60 63
f 35 63 64
f 35 64 62
f 36 65 47
f 36 61 65
f 37 48 66
f 37 66 67
f 37 67 39
f 38 46 68
f 38 68 69
f 38 69 70
f 38 70 71
f 38 71 72
f 38 72 73
f 38 73 74
f 38 74 49
f 39 75 40
f 39 67 76
f 39 76 75
f 40 75 41
f 41 75 77
f 41 77 78
f 41 78 42
f 42 78 79
f 42 79 43
f 43 79 44
f 44 79 80
f 44 80 81
f 44 81 82
f 44 82 83
f 44 83 84
f 44 84 45
f 45 84 46
f 46 84 68
f 47 65 85
f 47 85 86
f 47 86 48
f 48 86 87
f 48 87 88
f 48 88 67
f 48 67 66
f 49 89 90
f 49 90 91
f 49 91 50
f 49 74 92
f 49 92 93
f 49 93 94
f 49 94 95
f 49 95 89
f 50 91 96
f 50 96 97
f 50 97 98
f 50 98 51
f 51 98 53
f 51 53 52
f 53 98 99
f 53 99 54
f 54 99 55
f 55 99 56
f 56 100 101
f 56 101 102
f 56 102 57
f 56 99 98
f 56 98 97
f 56 97 103
f 56 103 104
f 56 104 105
f 56 105 106
f 56 106 107
f 56 107 108
f 56 108 100
f 57 102 109
f 57 109 110
f 57 110 111
f 57 111 59
f 57 59 58
f 59 111 112
f 59 112 60
f 60 112 63
f 61 62 64
f 61 64 113
f 61 113 85
f 61 85 65
f 63 112 114
f 63 114 64
f 64 114 115
f 64 115 116
f 64 116 117
f 64 117 113
f 67 88 76
f 68 84 83
f 68 83 118
f 68 118 119
f 68 119 69
f 69 119 70
f 70 119 120
f 70 120 121
f 70 121 71
f 71 121 122
f 71 122 123
f 71 123 124
f 71 124 72
f 72 124 74
f 72 74 73
f 74 124 123
f 74 123 125
f 74 125 126
f 74 126 92
f 75 76 127
f 75 127 77
f 76 88 128
f 76 128 127
f 77 127 129
f 77 129 78
f 78 129 130
f 78 130 80
f 78 80 79
f 80 130 131
f 80 131 132
f 80 132 133
f 80 133 81
f 81 133 82
f 82 134 83
f 82 133 135
f 82 135 134
f 83 134 118
f 85 113 136
f 85 136 87
f 85 87 86
f 87 136 137
f 87 137 88
f 88 137 128
f 89 138 139
f 89 139 90
f 89 95 138
f 90 140 141
f 90 141 96
f 90 96 91
f 90 139 142
f 90 142 140
f 92 126 143
f 92 143 93
f 93 143 144
f 93 144 94
f 94 144 95
f 95 144 145
f 95 145 146
f 95 146 138
f 96 141 97
f 97 141 103
f 100 147 101
f 100 108 148
f 100 148 149
f 100 149 147
f 101 150 102
f 101 147 151
f 101 151 110
f 101 110 150
f 102 150 109
f 103 141 152
f 103 152 104
f 104 152 153
f 104 153 154
f 104 154 106
f 104 106 105
f 106 155 149
f 106 149 148
f 106 148 107
f 106 154 138
f 106 138 155
f 107 148 108
f 109 150 156
f 109 156 110
f 110 156 150
f 110 151 157
f 110 157 158
f 110 158 111
f 111 158 157
f 111 157 112
f 112 157 159
f 112 159 114
f 113 117 160
f 113 160 161
f 113 161 136
f 114 159 162
f 114 162 115
f 115 162 163
f 115 163 116
f 116 163 117
f 117 163 161
f 117 161 160
f 118 134 164
f 118 164 119
f 119 164 120
f 120 165 121
f 120 164 165
f 121 165 166
f 121 166 167
f 121 167 122
f 122 167 168
f 122 168 169
f 122 169 123
f 123 169 125
f 125 169 170
f 125 170 171
f 125 171 172
f 125 172 126
f 126 172 173
f 126 173 174
f 126 174 143
f 127 128 175
f 127 175 176
f 127 176 129
f 128 137 175
f 129 176 130
f 130 176 131
f 131 176 177
f 131 177 178
f 131 178 132
f 132 179 133
f 132 178 180
f 132 180 181
f 132 181 182
f 132 182 183
f 132 183 179
f 133 179 184
f 133 184 185
f 133 185 135
f 134 135 186
f 134 186 164
f 135 185 187
f 135 187 165
f 135 165 186
f 136 188 137
f 136 161 188
f 137 189 175
f 137 188 189
f 138 149 190
f 138 190 155
f 138 154 142
f 138 142 139
f 138 146 149
f 140 142 141
f 141 142 153
f 141 153 152
f 142 154 153
f 143 174 172
f 143 172 144
f 144 172 191
f 144 191 192
f 144 192 193
f 144 193 194
f 144 194 145
f 145 194 146
f 146 194 195
f 146 195 196
f 146 196 147
f 146 147 149
f 147 196 197
f 147 197 151
f 149 155 190
f 151 197 198
f 151 198 199
f 151 199 200
f 151 200 201
f 151 201 202
f 151 202 157
f 157 202 159
f 159 202 203
f 159 203 204
f 159 204 162
f 161 205 206
f 161 206 188
f 161 163 205
f 162 204 207
f 162 207 208
f 162 208 209
f 162 209 210
f 162 210 163
f 163 211 212
f 163 212 205
f 163 210 211
f 164 186 165
f 165 187 166
f 166 168 167
f 166 187 185
f 166 185 184
f 166 184 213
f 166 213 168
f 168 213 169
f 169 213 214
f 169 214 215
f 169 215 170
f 170 215 216
f 170 216 217
f 170 217 171
f 171 217 191
f 171 191 172
f 172 174 173
f 175 189 177
f 175 177 176
f 177 218 180
f 177 180 178
f 177 189 218
f 179 183 184
f 180 218 188
f 180 188 181
f 181 188 206
f 181 206 205
f 181 205 219
f 181 219 220
f 181 220 182
f 182 220 221
f 182 221 183
f 183 221 184
f 184 221 222
f 184 222 223
f 184 223 214
f 184 214 213
f 188 218 189
f 191 217 192
f 192 217 216
f 192 216 224
f 192 224 193
f 193 224 194
f 194 224 195
f 195 224 225
f 195 225 226
f 195 226 197
f 195 197 196
f 197 226 198
f 198 226 227
f 198 227 228
f 198 228 199
f 199 228 229
f 199 229 201
f 199 201 200
f 201 229 230
f 201 230 202
f 202 230 203
f 203 231 204
f 203 230 231
f 204 231 232
f 204 232 207
f 205 212 219
f 207 233 234
f 207 234 235
f 207 235 236
f 207 236 209
f 207 209 208
f 207 232 233
f 209 236 237
f 209 237 211
f 209 211 210
f 211 237 212
f 212 237 238
f 212 238 239
f 212 239 219
f 214 223 215
f 215 240 241
f 215 241 216
f 215 223 242
f 215 242 243
f 215 243 244
f 215 244 240
f 216 241 224
f 219 222 220
f 219 239 223
f 219 223 222
f 220 222 221
f 223 239 238
f 223 238 245
f 223 245 246
f 223 246 242
f 224 241 247
f 224 247 225
f 225 247 241
f 225 241 240
f 225 240 248
f 225 248 249
f 225 249 250
f 225 250 226
f 226 250 251
f 226 251 227
f 227 252 253
f 227 253 230
f 227 230 229
f 227 229 228
f 227 251 254
f 227 254 252
f 230 253 232
f 230 232 231
f 232 253 233
f 233 253 252
f 233 252 234
f 234 252 255
f 234 255 256
f 234 256 235
f 235 256 246
f 235 246 245
f 235 245 236
f 236 245 238
f 236 238 237
f 240 244 248
f 242 246 243
f 243 246 256
f 243 256 255
f 243 255 244
f 244 255 254
f 244 254 248
f 248 254 249
f 249 254 251
f 249 251 250
f 252 254 255
