v 0.010588 0.045244 0.031204
v 0.011484 0.043944 0.031204
v 0.013450 0.049491 0.026120
v 0.013450 0.051191 0.025021
v 0.013450 0.052135 0.024364
v 0.013450 0.052639 0.023913
v -0.003479 0.055426 0.023866
v -0.003479 0.012726 0.024136
v 0.010588 0.024848 0.031204
v 0.013450 0.040906 0.031204
v 0.019745 0.008117 0.013192
v 0.013450 0.053047 0.023463
v 0.013450 0.053421 0.022786
v 0.013450 0.053596 0.022001
v 0.013450 0.053622 0.021152
v -0.003479 0.054630 0.013389
v -0.000229 0.004199 0.024142
v -0.003479 0.012726 0.004423
v -0.000229 -0.004431 0.014056
v -0.000229 -0.004289 0.014898
v -0.000229 -0.003810 0.015746
v -0.000229 -0.003229 0.016610
v 0.013450 0.025979 0.031204
v 0.000535 0.003365 0.024142
v 0.002533 0.001297 0.024139
v 0.003440 0.000405 0.024139
v 0.004154 -0.000216 0.024139
v 0.004870 -0.000733 0.024139
v 0.005694 -0.001263 0.024139
v 0.006296 -0.001567 0.024139
v 0.007441 -0.002052 0.024139
v 0.008171 -0.002330 0.024139
v 0.008900 -0.002556 0.024139
v 0.009881 -0.002673 0.024139
v 0.010595 -0.002653 0.024139
v 0.019592 0.008117 0.014012
v 0.019193 -0.001477 0.016222
v 0.019722 0.008117 0.012325
v 0.013450 0.053467 0.020210
v 0.019441 -0.000617 0.014929
v 0.019583 0.000249 0.014056
v 0.019701 0.000249 0.013192
v 0.019770 0.000249 0.012325
v 0.019820 -0.000617 0.011457
v -0.003479 0.054391 0.012321
v 0.000175 -0.003558 0.016983
v 0.000936 -0.004586 0.017158
v 0.001148 -0.004289 0.017737
v 0.001714 -0.004690 0.018091
v 0.002749 -0.005343 0.018795
v 0.003475 -0.005517 0.019487
v 0.004417 -0.006286 0.019725
v -0.003479 0.016741 0.002808
v -0.000229 -0.000242 0.002451
v -0.000229 -0.001095 0.003281
v -0.000229 -0.001574 0.004480
v -0.000229 -0.004315 0.013026
v 0.000998 -0.006235 0.013192
v 0.001012 -0.006222 0.014056
v 0.001066 -0.006131 0.014926
v 0.000104 -0.004541 0.015395
v 0.000033 -0.003778 0.016400
v 0.014962 -0.000287 0.023638
v 0.015288 0.000249 0.023638
v 0.015740 0.001103 0.023638
v 0.016073 0.001969 0.023638
v 0.016262 0.002835 0.023638
v 0.016278 0.003695 0.023638
v 0.007261 -0.007178 0.020620
v 0.011197 -0.008142 0.020711
v 0.011836 -0.008187 0.020764
v 0.012602 -0.002252 0.023638
v 0.013580 -0.001515 0.023638
v 0.014068 -0.001115 0.023638
v 0.014518 -0.000701 0.023638
v 0.012428 -0.008103 0.020680
v 0.014064 -0.005511 0.021478
v 0.018662 -0.001483 0.017521
v 0.018972 -0.002349 0.016657
v 0.019229 -0.002349 0.015874
v 0.019430 -0.001483 0.014929
v 0.013450 0.047894 0.005478
v 0.013450 0.048786 0.006308
v 0.013450 0.049135 0.007125
v 0.019631 -0.000617 0.007989
v -0.003381 0.051915 0.004013
v 0.019574 -0.000617 0.014056
v 0.019688 -0.000617 0.013192
v 0.019758 -0.000617 0.012325
v 0.019389 -0.002349 0.014929
v 0.019296 -0.003455 0.014172
v 0.019296 -0.003836 0.013192
v 0.019476 -0.003216 0.010593
v -0.003479 0.051172 0.003068
v 0.001021 -0.005692 0.015734
v 0.001776 -0.006357 0.016341
v 0.001732 -0.005524 0.017252
v 0.001714 -0.005103 0.017674
v 0.001981 -0.006099 0.016923
v 0.002291 -0.006674 0.016654
v 0.002601 -0.007243 0.016375
v 0.003785 -0.006047 0.019258
v 0.003468 -0.008077 0.016341
v 0.008335 -0.009842 0.017909
v -0.003479 0.027091 -0.000532
v -0.000229 0.000986 0.001975
v 0.010969 -0.004082 0.003666
v 0.007103 -0.006409 0.004808
v 0.005135 -0.009021 0.008145
v 0.001796 -0.007056 0.012375
v 0.000927 -0.005918 0.012321
v 0.001776 -0.007211 0.013192
v 0.001960 -0.007437 0.014056
v 0.001760 -0.007017 0.015098
v 0.014864 -0.004496 0.021425
v 0.015802 -0.004606 0.020623
v 0.016066 -0.004916 0.020138
v 0.016556 -0.004043 0.019978
v 0.018415 -0.003106 0.017684
v 0.017503 -0.003713 0.018861
v 0.018303 -0.004082 0.017483
v 0.018541 -0.002427 0.017609
v 0.009233 -0.009874 0.018094
v 0.009667 -0.010618 0.017033
v 0.014967 -0.008058 0.017743
v 0.015938 -0.005549 0.019863
v 0.014180 -0.006370 0.020748
v 0.014415 -0.005808 0.020993
v 0.015569 -0.005187 0.020442
v 0.018842 -0.003216 0.016657
v 0.019177 -0.003073 0.015640
v 0.013450 0.047105 0.005187
v 0.011350 0.043886 0.001512
v 0.008846 0.045871 0.000582
v 0.006421 0.047726 0.001274
v 0.019302 -0.003830 0.010024
v 0.019355 -0.001309 0.007422
v 0.019423 -0.000617 0.007328
v 0.019225 -0.003364 0.014970
v 0.018880 -0.004082 0.015784
v 0.018472 -0.005187 0.015899
v 0.019241 -0.004172 0.011457
v 0.019245 -0.004185 0.010593
v -0.003479 0.050215 0.002273
v 0.005762 0.047784 0.001209
v 0.001812 -0.006758 0.015784
v 0.002419 -0.007431 0.015784
v 0.002879 -0.007993 0.015565
v 0.003101 -0.008323 0.015004
v 0.007735 -0.009835 0.017352
v -0.003479 0.027860 -0.000732
v -0.000229 0.002861 0.001475
v -0.000229 0.003721 0.001281
v 0.010098 0.000249 0.002839
v 0.011053 0.000308 0.002955
v 0.011838 -0.004050 0.003851
v 0.011548 -0.004683 0.003973
v 0.010969 -0.004968 0.004088
v 0.010606 -0.007153 0.005791
v 0.010383 -0.008129 0.006568
v 0.005764 -0.008866 0.007848
v 0.009233 -0.009835 0.009075
v 0.009233 -0.010152 0.009720
v 0.008358 -0.010495 0.010665
v 0.007498 -0.010340 0.011457
v 0.003883 -0.008801 0.014056
v 0.003158 -0.008400 0.013189
v 0.002679 -0.008019 0.012963
v 0.002216 -0.007637 0.013192
v 0.002585 -0.008103 0.014056
v 0.002629 -0.008064 0.014776
v 0.016568 -0.004722 0.019600
v 0.018363 -0.004580 0.017133
v 0.017710 -0.004037 0.018398
v 0.008364 -0.010249 0.016654
v 0.008358 -0.010534 0.011389
v 0.009019 -0.010547 0.010841
v 0.010098 -0.010411 0.011457
v 0.013197 -0.009758 0.013608
v 0.015633 -0.008025 0.016510
v 0.017514 -0.006293 0.016882
v 0.017624 -0.005814 0.017305
v 0.017450 -0.005343 0.017931
v 0.018646 -0.004082 0.016657
v 0.013450 0.033943 0.000783
v 0.013026 0.041022 0.002505
v 0.012294 0.040641 0.001453
v 0.010677 0.041016 0.000222
v 0.010047 0.040777 -0.000178
v 0.008586 0.042457 -0.000294
v 0.005181 0.043414 -0.000303
v -0.003479 0.047998 0.000939
v 0.019159 -0.001890 0.007657
v 0.018557 -0.004696 0.009895
v 0.016002 -0.005795 0.007163
v 0.015868 -0.005498 0.006590
v 0.016618 -0.004547 0.006662
v 0.015968 -0.001302 0.004711
v 0.016084 -0.000617 0.004555
v 0.016135 -0.004088 0.006067
v 0.013450 0.031597 0.000504
v 0.013450 0.032288 0.000482
v 0.013450 0.033226 0.000601
v 0.018420 -0.004896 0.016582
v 0.018055 -0.005873 0.015784
v 0.018242 -0.005155 0.016817
v 0.017391 -0.006991 0.014056
v 0.017398 -0.007010 0.013192
v 0.016579 -0.007082 0.010284
v -0.003479 0.049452 0.001725
v -0.003479 0.048599 0.001205
v 0.003135 -0.008452 0.014231
v 0.004061 -0.008749 0.014873
v -0.003479 0.028578 -0.000764
v -0.002913 0.028015 -0.000776
v -0.002047 0.027143 -0.000735
v -0.001180 0.027143 -0.000732
v 0.003162 0.015894 0.000410
v 0.004068 0.015888 0.000501
v 0.009226 0.015894 0.001046
v 0.015345 -0.000539 0.004148
v 0.013988 -0.004502 0.004952
v 0.012992 -0.005278 0.005028
v 0.012415 -0.005459 0.004890
v 0.011836 -0.005569 0.004758
v 0.015302 -0.005898 0.006659
v 0.014121 -0.008930 0.009169
v 0.010339 -0.008736 0.007375
v 0.010143 -0.009099 0.007908
v 0.009908 -0.009842 0.009050
v 0.017918 -0.004961 0.017534
v 0.010098 -0.010269 0.010593
v 0.014454 -0.008840 0.009720
v 0.014721 -0.008788 0.010593
v 0.015302 -0.008439 0.011457
v 0.016965 -0.007424 0.013192
v 0.016960 -0.007411 0.014056
v 0.016858 -0.007321 0.014929
v 0.017622 -0.006416 0.015784
v 0.017293 -0.006926 0.014929
v -0.002047 0.028015 -0.000773
v -0.003479 0.047144 0.000777
v 0.016474 -0.006933 0.009720
v 0.015877 -0.007256 0.009035
v 0.015703 -0.007101 0.008459
v 0.016556 -0.006170 0.008565
v 0.015875 -0.006403 0.007732
v 0.015660 -0.004379 0.005851
v 0.016164 -0.004884 0.006461
v 0.001422 0.025404 -0.000394
v 0.001422 0.026276 -0.000447
v 0.015783 -0.008038 0.010878
v 0.015697 -0.007941 0.010299
v 0.015158 -0.008265 0.009720
v 0.016041 -0.007405 0.009720
v 0.015852 -0.008090 0.011457
f 1 2 3
f 1 3 4
f 1 4 5
f 1 5 6
f 1 6 7
f 1 7 8
f 1 8 9
f 1 9 23
f 1 23 10
f 1 10 2
f 2 10 3
f 3 10 11
f 3 11 4
f 4 11 5
f 5 11 6
f 6 11 12
f 6 12 7
f 7 12 13
f 7 13 14
f 7 14 15
f 7 15 16
f 7 16 45
f 7 45 94
f 7 94 144
f 7 144 210
f 7 210 211
f 7 211 192
f 7 192 242
f 7 242 214
f 7 214 151
f 7 151 105
f 7 105 53
f 7 53 18
f 7 18 8
f 8 17 9
f 8 18 19
f 8 19 20
f 8 20 21
f 8 21 22
f 8 22 17
f 9 17 24
f 9 24 25
f 9 25 26
f 9 26 27
f 9 27 28
f 9 28 29
f 9 29 30
f 9 30 31
f 9 31 32
f 9 32 33
f 9 33 34
f 9 34 35
f 9 35 23
f 10 36 11
f 10 23 37
f 10 37 36
f 11 38 39
f 11 39 15
f 11 15 14
f 11 14 13
f 11 13 12
f 11 36 40
f 11 40 41
f 11 41 42
f 11 42 43
f 11 43 44
f 11 44 38
f 15 39 16
f 16 39 45
f 17 22 46
f 17 46 47
f 17 47 48
f 17 48 49
f 17 49 50
f 17 50 51
f 17 51 52
f 17 52 24
f 18 53 54
f 18 54 55
f 18 55 56
f 18 56 57
f 18 57 19
f 19 57 58
f 19 58 59
f 19 59 20
f 20 59 60
f 20 60 61
f 20 61 21
f 21 62 22
f 21 61 62
f 22 62 47
f 22 47 46
f 23 35 63
f 23 63 64
f 23 64 65
f 23 65 66
f 23 66 67
f 23 67 68
f 23 68 37
f 24 52 25
f 25 52 26
f 26 52 27
f 27 52 69
f 27 69 28
f 28 69 29
f 29 69 30
f 30 69 31
f 31 69 32
f 32 69 33
f 33 69 70
f 33 70 71
f 33 71 34
f 34 71 35
f 35 72 73
f 35 73 74
f 35 74 75
f 35 75 63
f 35 71 76
f 35 76 77
f 35 77 72
f 36 37 40
f 37 67 78
f 37 78 79
f 37 79 80
f 37 80 81
f 37 81 40
f 37 68 67
f 38 82 83
f 38 83 84
f 38 84 39
f 38 44 85
f 38 85 82
f 39 86 45
f 39 84 86
f 40 87 41
f 40 81 87
f 41 87 42
f 42 87 88
f 42 88 89
f 42 89 43
f 43 89 44
f 44 89 90
f 44 90 91
f 44 91 92
f 44 92 93
f 44 93 85
f 45 86 94
f 47 95 96
f 47 96 97
f 47 97 98
f 47 98 49
f 47 49 48
f 47 62 95
f 49 98 50
f 50 98 97
f 50 97 99
f 50 99 100
f 50 100 101
f 50 101 102
f 50 102 51
f 51 102 52
f 52 102 101
f 52 101 103
f 52 103 104
f 52 104 69
f 53 105 106
f 53 106 54
f 54 106 107
f 54 107 108
f 54 108 109
f 54 109 55
f 55 109 110
f 55 110 56
f 56 110 111
f 56 111 57
f 57 111 58
f 58 111 110
f 58 110 112
f 58 112 113
f 58 113 59
f 59 113 114
f 59 114 60
f 60 95 61
f 60 114 95
f 61 95 62
f 63 75 77
f 63 77 115
f 63 115 116
f 63 116 64
f 64 116 65
f 65 116 117
f 65 117 118
f 65 118 66
f 66 119 67
f 66 118 120
f 66 120 121
f 66 121 119
f 67 119 122
f 67 122 78
f 69 104 70
f 70 104 123
f 70 123 71
f 71 123 124
f 71 124 76
f 72 77 73
f 73 77 74
f 74 77 75
f 76 124 125
f 76 125 126
f 76 126 127
f 76 127 77
f 77 127 128
f 77 128 129
f 77 129 116
f 77 116 115
f 78 122 79
f 79 122 119
f 79 119 130
f 79 130 80
f 80 90 81
f 80 130 131
f 80 131 90
f 81 90 88
f 81 88 87
f 82 85 132
f 82 132 133
f 82 133 134
f 82 134 83
f 83 134 135
f 83 135 86
f 83 86 84
f 85 93 136
f 85 136 137
f 85 137 138
f 85 138 132
f 86 135 94
f 88 90 89
f 90 131 139
f 90 139 91
f 91 139 92
f 92 139 140
f 92 140 141
f 92 141 142
f 92 142 93
f 93 142 143
f 93 143 136
f 94 135 145
f 94 145 144
f 95 114 146
f 95 146 96
f 96 100 99
f 96 99 97
f 96 146 147
f 96 147 101
f 96 101 100
f 101 147 103
f 103 147 148
f 103 148 149
f 103 149 150
f 103 150 104
f 104 150 124
f 104 124 123
f 105 151 152
f 105 152 106
f 106 152 107
f 107 152 153
f 107 153 154
f 107 154 155
f 107 155 156
f 107 156 157
f 107 157 158
f 107 158 108
f 108 158 159
f 108 159 160
f 108 160 161
f 108 161 109
f 109 161 162
f 109 162 163
f 109 163 164
f 109 164 165
f 109 165 166
f 109 166 167
f 109 167 168
f 109 168 110
f 110 168 169
f 110 169 112
f 112 169 170
f 112 170 113
f 113 170 171
f 113 171 114
f 114 171 147
f 114 147 146
f 116 129 126
f 116 126 117
f 117 172 118
f 117 126 172
f 118 172 120
f 119 121 173
f 119 173 130
f 120 172 174
f 120 174 121
f 121 174 173
f 124 175 165
f 124 165 176
f 124 176 177
f 124 177 178
f 124 178 179
f 124 179 180
f 124 180 125
f 124 150 175
f 125 180 181
f 125 181 126
f 126 128 127
f 126 181 182
f 126 182 183
f 126 183 172
f 126 129 128
f 130 173 184
f 130 184 131
f 131 184 140
f 131 140 139
f 132 185 186
f 132 186 187
f 132 187 133
f 132 138 185
f 133 187 188
f 133 188 134
f 134 188 189
f 134 189 190
f 134 190 191
f 134 191 192
f 134 192 145
f 134 145 135
f 136 193 137
f 136 143 194
f 136 194 195
f 136 195 196
f 136 196 197
f 136 197 193
f 137 198 199
f 137 199 138
f 137 193 197
f 137 197 200
f 137 200 198
f 138 199 201
f 138 201 202
f 138 202 203
f 138 203 185
f 140 184 204
f 140 204 141
f 141 181 205
f 141 205 142
f 141 204 206
f 141 206 181
f 142 205 207
f 142 207 208
f 142 208 143
f 143 208 209
f 143 209 194
f 144 145 210
f 145 192 211
f 145 211 210
f 147 171 148
f 148 171 149
f 149 212 166
f 149 166 213
f 149 213 175
f 149 175 150
f 149 171 212
f 151 214 215
f 151 215 153
f 151 153 152
f 153 215 216
f 153 216 217
f 153 217 218
f 153 218 219
f 153 219 220
f 153 220 154
f 154 220 155
f 155 221 156
f 155 220 201
f 155 201 221
f 156 222 157
f 156 221 222
f 157 222 223
f 157 223 224
f 157 224 225
f 157 225 159
f 157 159 158
f 159 225 160
f 160 225 224
f 160 224 226
f 160 226 227
f 160 227 228
f 160 228 161
f 161 228 229
f 161 229 162
f 162 229 230
f 162 230 163
f 163 230 177
f 163 177 164
f 164 177 176
f 164 176 165
f 165 175 166
f 166 212 167
f 166 175 213
f 167 212 170
f 167 170 168
f 168 170 169
f 170 212 171
f 172 183 231
f 172 231 174
f 173 231 182
f 173 182 206
f 173 206 204
f 173 204 184
f 173 174 231
f 177 230 232
f 177 232 178
f 178 232 227
f 178 227 179
f 179 227 233
f 179 233 234
f 179 234 235
f 179 235 236
f 179 236 237
f 179 237 180
f 180 237 238
f 180 238 181
f 181 239 205
f 181 206 182
f 181 238 240
f 181 240 239
f 182 231 183
f 185 203 187
f 185 187 186
f 187 203 188
f 188 203 189
f 189 203 202
f 189 202 201
f 189 201 217
f 189 217 190
f 190 217 241
f 190 241 191
f 191 242 192
f 191 241 214
f 191 214 242
f 194 209 243
f 194 243 244
f 194 244 245
f 194 245 246
f 194 246 247
f 194 247 195
f 195 247 196
f 196 247 227
f 196 227 226
f 196 226 224
f 196 224 223
f 196 223 222
f 196 222 248
f 196 248 249
f 196 249 197
f 197 249 200
f 198 221 199
f 198 200 248
f 198 248 222
f 198 222 221
f 199 221 201
f 200 249 248
f 201 220 250
f 201 250 251
f 201 251 217
f 205 239 207
f 207 239 240
f 207 240 237
f 207 237 208
f 208 237 236
f 208 236 252
f 208 252 209
f 209 252 253
f 209 253 254
f 209 254 255
f 209 255 243
f 214 241 215
f 215 241 217
f 215 217 216
f 217 251 250
f 217 250 218
f 218 250 219
f 219 250 220
f 227 245 244
f 227 244 254
f 227 254 233
f 227 232 230
f 227 230 228
f 227 247 245
f 228 230 229
f 233 254 252
f 233 252 256
f 233 256 234
f 234 256 236
f 234 236 235
f 236 256 252
f 237 240 238
f 243 255 244
f 244 255 254
f 245 247 246
f 252 254 253
