v -0.034755 0.057534 0.019259
v -0.034682 0.058167 0.019867
v -0.034602 0.058421 0.019259
v -0.034670 0.057492 0.018403
v -0.034706 0.056665 0.018398
v -0.034716 0.055799 0.018398
v -0.034706 0.055799 0.020128
v -0.032906 0.059776 0.022373
v -0.032808 0.061359 0.019259
v -0.034581 0.055799 0.020942
v -0.034223 0.055799 0.021866
v -0.033736 0.059518 0.016861
v -0.034305 0.058400 0.017527
v -0.034550 0.058231 0.018546
v -0.032943 0.061139 0.018398
v -0.034495 0.057492 0.017579
v -0.034529 0.056411 0.016914
v -0.034572 0.055799 0.016787
v -0.034651 0.055799 0.017527
v -0.034633 0.054984 0.017579
v -0.034657 0.054685 0.018274
v -0.034673 0.054672 0.019259
v -0.034590 0.054993 0.020876
v -0.034633 0.054706 0.020271
v -0.033687 0.055799 0.022709
v -0.032227 0.059265 0.023504
v -0.032129 0.059932 0.023343
v -0.031939 0.060515 0.023105
v -0.032129 0.060734 0.022527
v -0.032689 0.060312 0.021866
v -0.032227 0.061659 0.020128
v -0.032306 0.061908 0.019193
v -0.032013 0.062322 0.018631
v -0.032392 0.061874 0.018398
v -0.032080 0.061110 0.021866
v -0.033880 0.055086 0.022492
v -0.032931 0.059822 0.015215
v -0.033779 0.058640 0.016142
v -0.034070 0.058400 0.016660
v -0.032906 0.060443 0.015921
v -0.034247 0.057534 0.016660
v -0.032013 0.062330 0.017923
v -0.034235 0.055799 0.015794
v -0.034556 0.055145 0.016827
v -0.025036 0.024205 0.003546
v -0.025036 0.024205 0.022712
v -0.034091 0.054849 0.021946
v -0.032187 0.056665 0.024265
v -0.032043 0.058205 0.024090
v -0.031927 0.059024 0.023977
v -0.031357 0.059548 0.024170
v -0.031608 0.060169 0.023625
v -0.031360 0.060755 0.023327
v -0.031308 0.061608 0.022484
v -0.031468 0.061752 0.021866
v -0.031155 0.063191 0.017962
v -0.032025 0.053925 0.024059
v -0.032172 0.055799 0.024233
v -0.032218 0.059962 0.014225
v -0.032824 0.058995 0.014571
v -0.032490 0.060181 0.014867
v -0.033886 0.057450 0.015783
v -0.034079 0.056665 0.015794
v -0.032138 0.061566 0.016018
v -0.032450 0.061000 0.015794
v -0.033761 0.056888 0.015316
v -0.033690 0.055799 0.014970
v -0.025036 0.027147 0.001155
v -0.025036 0.026041 0.001161
v -0.034168 0.054934 0.015794
v -0.009004 0.024593 0.000091
v -0.011719 0.024205 0.001272
v -0.023074 0.024205 0.022714
v -0.028088 0.055799 0.026188
v -0.028957 0.055799 0.026079
v -0.029570 0.055233 0.025842
v -0.030693 0.055799 0.025379
v -0.031514 0.055799 0.024851
v -0.031520 0.056665 0.024867
v -0.030228 0.059565 0.024883
v -0.029652 0.059877 0.025099
v -0.030904 0.061334 0.023066
v -0.030589 0.061832 0.022685
v -0.030277 0.062313 0.022310
v -0.030849 0.062182 0.021866
v -0.029331 0.063141 0.021277
v -0.028749 0.063293 0.021718
v -0.017680 0.066611 0.022714
v -0.015068 0.067244 0.008852
v -0.015941 0.067012 0.008852
v -0.015941 0.066936 0.007986
v -0.018586 0.065977 0.007973
v -0.017334 0.065847 0.004859
v -0.032074 0.059396 0.013712
v -0.032187 0.060793 0.015099
v -0.031957 0.060544 0.014521
v -0.021745 0.063381 0.006428
v -0.019100 0.062486 0.003065
v -0.032603 0.058421 0.014119
v -0.033476 0.056665 0.014840
v -0.031881 0.061372 0.015443
v -0.033041 0.056665 0.014291
v -0.032906 0.055799 0.013998
v -0.019841 0.033669 -0.000266
v -0.032239 0.056665 0.013343
v -0.032114 0.058400 0.013509
v -0.020925 0.059265 0.003910
v -0.018727 0.061861 0.002537
v -0.018243 0.062115 0.002273
v -0.017677 0.060996 0.001911
v -0.008135 0.024593 -0.000041
v -0.007213 0.024593 0.000265
v -0.003484 0.024593 0.002471
v -0.011719 0.024205 0.022714
v -0.027225 0.055799 0.026185
v -0.028088 0.056665 0.026214
v -0.029854 0.055799 0.025776
v -0.028957 0.056665 0.026082
v -0.030693 0.056665 0.025377
v -0.028529 0.059755 0.025807
v -0.028290 0.063280 0.022241
v -0.016868 0.066619 0.022714
v -0.014208 0.067333 0.009721
v -0.014208 0.067303 0.008852
v -0.015068 0.067134 0.007986
v -0.016424 0.066666 0.007458
v -0.012475 0.065733 0.004547
v -0.015068 0.065716 0.004587
v -0.015068 0.065125 0.003839
v -0.015941 0.065116 0.003881
v -0.013764 0.063191 0.001464
v -0.018509 0.062714 0.002814
v -0.018821 0.063065 0.003345
v -0.015068 0.066780 0.006858
v -0.014208 0.066619 0.006306
v -0.015068 0.066172 0.005384
v -0.014208 0.066189 0.005384
v -0.017677 0.035839 -0.000371
v -0.016807 0.034965 -0.000406
v -0.004663 0.028899 -0.000752
v -0.003564 0.027877 -0.000733
v -0.017606 0.058353 0.001591
v -0.016969 0.060131 0.001557
v -0.014594 0.058834 0.000609
v -0.017677 0.061861 0.002043
v -0.003484 0.026877 -0.000451
v -0.003484 0.026163 -0.000097
v -0.003484 0.025619 0.000495
v -0.003484 0.024593 0.022714
v -0.025262 0.056665 0.026048
v -0.027225 0.056665 0.026174
v -0.027225 0.057534 0.026063
v -0.029824 0.056665 0.025768
v -0.029527 0.057247 0.025823
v -0.025262 0.057424 0.025979
v -0.025042 0.057965 0.025855
v -0.013326 0.066037 0.022714
v -0.014208 0.066370 0.022714
v -0.013345 0.067185 0.010593
v -0.013345 0.067244 0.009721
v -0.013345 0.067168 0.008852
v -0.013345 0.066999 0.007986
v -0.014208 0.067126 0.007986
v -0.014208 0.066906 0.007117
v -0.011376 0.065842 0.004840
v -0.011548 0.065353 0.004301
v -0.013161 0.062980 0.001591
v -0.012852 0.062398 0.001441
v -0.013406 0.062710 0.001414
v -0.013372 0.066737 0.006803
v -0.008713 0.045393 -0.000340
v -0.006396 0.044527 -0.000477
v -0.003484 0.028591 -0.000770
v -0.005529 0.048850 0.000218
v -0.005783 0.045199 -0.000355
v -0.006396 0.045325 -0.000400
v -0.003484 0.055276 0.022714
v -0.004317 0.056922 0.022714
v -0.005104 0.058395 0.022714
v -0.005707 0.059303 0.022714
v -0.006285 0.060080 0.022714
v -0.006745 0.060667 0.022714
v -0.007415 0.061308 0.022714
v -0.011860 0.065066 0.022714
v -0.012485 0.065505 0.022714
v -0.009139 0.065150 0.011451
v -0.009916 0.065749 0.010593
v -0.010737 0.066281 0.009721
v -0.011882 0.066720 0.010688
v -0.012405 0.066868 0.011491
v -0.012475 0.066961 0.010593
v -0.012475 0.066970 0.009721
v -0.012475 0.066944 0.008852
v -0.011961 0.066674 0.007751
v -0.011673 0.066505 0.007178
v -0.012693 0.066623 0.006781
v -0.011603 0.066058 0.005384
v -0.011603 0.066265 0.006251
v -0.010663 0.066091 0.007054
v -0.010155 0.065897 0.007299
v -0.008493 0.064095 0.006031
v -0.008337 0.063563 0.005463
v -0.008477 0.063242 0.004867
v -0.008477 0.062406 0.003974
v -0.010280 0.064065 0.004058
v -0.011205 0.064884 0.004101
v -0.010372 0.063128 0.003247
v -0.009647 0.062402 0.003144
v -0.008557 0.061460 0.003205
v -0.004966 0.049429 0.000448
v -0.004660 0.044527 -0.000023
v -0.003484 0.047056 0.000794
v -0.004841 0.048850 0.000360
v -0.003484 0.054706 0.014098
v -0.005376 0.060131 0.010593
v -0.005379 0.060131 0.011451
v -0.005765 0.060903 0.011451
v -0.007204 0.063609 0.009721
v -0.007568 0.064187 0.009721
v -0.008661 0.064964 0.010466
v -0.009849 0.065787 0.009721
v -0.010737 0.066328 0.008852
v -0.009806 0.065817 0.008852
v -0.011594 0.066649 0.009721
v -0.011588 0.066653 0.008852
v -0.010737 0.066315 0.007986
v -0.009824 0.065809 0.007986
v -0.008992 0.064922 0.007117
v -0.008242 0.064318 0.007117
v -0.007626 0.063706 0.007117
v -0.007724 0.063330 0.006050
v -0.006827 0.062317 0.006676
v -0.003484 0.051185 0.003065
v -0.003484 0.050227 0.002278
v -0.003484 0.049462 0.001718
v -0.008382 0.061798 0.003667
v -0.008848 0.062030 0.003398
v -0.003484 0.048605 0.001200
v -0.003484 0.048002 0.000939
v -0.003484 0.054642 0.013377
v -0.003484 0.054410 0.012320
v -0.003484 0.051924 0.004008
v -0.005502 0.060131 0.009721
v -0.006928 0.062875 0.007986
v -0.007222 0.063609 0.008852
v -0.005744 0.060865 0.010593
v -0.007577 0.064175 0.008852
v -0.008312 0.064779 0.009721
v -0.008367 0.064795 0.008969
v -0.008637 0.064855 0.007986
v -0.007648 0.064090 0.008263
v -0.007400 0.063668 0.007981
v -0.007011 0.062807 0.007117
f 1 2 3
f 1 3 4
f 1 4 5
f 1 5 6
f 1 6 7
f 1 7 2
f 2 8 9
f 2 9 3
f 2 7 10
f 2 10 11
f 2 11 8
f 3 12 13
f 3 13 14
f 3 14 4
f 3 9 15
f 3 15 12
f 4 16 17
f 4 17 18
f 4 18 5
f 4 14 13
f 4 13 16
f 5 18 19
f 5 19 6
f 6 20 21
f 6 21 22
f 6 22 7
f 6 19 20
f 7 23 10
f 7 22 24
f 7 24 23
f 8 11 25
f 8 25 26
f 8 26 27
f 8 27 28
f 8 28 29
f 8 29 30
f 8 30 9
f 9 31 32
f 9 32 33
f 9 33 34
f 9 34 15
f 9 30 35
f 9 35 31
f 10 23 11
f 11 23 36
f 11 36 25
f 12 37 38
f 12 38 39
f 12 39 13
f 12 15 40
f 12 40 37
f 13 39 41
f 13 41 16
f 15 34 42
f 15 42 40
f 16 41 17
f 17 41 43
f 17 43 18
f 18 43 44
f 18 44 20
f 18 20 19
f 20 44 45
f 20 45 21
f 21 45 22
f 22 45 46
f 22 46 24
f 23 24 46
f 23 46 47
f 23 47 36
f 25 36 48
f 25 48 49
f 25 49 26
f 26 49 50
f 26 50 27
f 27 50 51
f 27 51 52
f 27 52 28
f 28 52 53
f 28 53 54
f 28 54 29
f 29 35 30
f 29 54 55
f 29 55 35
f 31 35 55
f 31 55 32
f 32 55 33
f 33 56 42
f 33 42 34
f 33 55 56
f 36 47 46
f 36 46 57
f 36 57 58
f 36 58 48
f 37 59 60
f 37 60 38
f 37 40 61
f 37 61 59
f 38 60 62
f 38 62 63
f 38 63 39
f 39 63 41
f 40 42 64
f 40 64 65
f 40 65 61
f 41 63 43
f 42 56 64
f 43 63 66
f 43 66 67
f 43 67 68
f 43 68 69
f 43 69 70
f 43 70 44
f 44 70 69
f 44 69 45
f 45 69 71
f 45 71 72
f 45 72 114
f 45 114 73
f 45 73 46
f 46 73 74
f 46 74 75
f 46 75 76
f 46 76 77
f 46 77 78
f 46 78 57
f 48 58 78
f 48 78 79
f 48 79 49
f 49 79 50
f 50 79 80
f 50 80 51
f 51 80 81
f 51 81 52
f 52 81 53
f 53 82 54
f 53 81 82
f 54 82 83
f 54 83 84
f 54 84 85
f 54 85 55
f 55 85 56
f 56 85 86
f 56 86 87
f 56 87 88
f 56 88 89
f 56 89 90
f 56 90 91
f 56 91 92
f 56 92 93
f 56 93 64
f 57 78 58
f 59 94 60
f 59 61 95
f 59 95 96
f 59 96 97
f 59 97 98
f 59 98 94
f 60 99 100
f 60 100 66
f 60 66 62
f 60 94 99
f 61 65 95
f 62 66 63
f 64 101 95
f 64 95 65
f 64 93 97
f 64 97 101
f 66 100 67
f 67 100 102
f 67 102 103
f 67 103 68
f 68 104 69
f 68 103 105
f 68 105 106
f 68 106 107
f 68 107 108
f 68 108 109
f 68 109 110
f 68 110 104
f 69 111 71
f 69 104 111
f 71 111 72
f 72 111 112
f 72 112 113
f 72 113 149
f 72 149 114
f 73 114 74
f 74 114 115
f 74 115 116
f 74 116 75
f 75 117 76
f 75 116 118
f 75 118 117
f 76 117 77
f 77 117 119
f 77 119 79
f 77 79 78
f 79 119 80
f 80 120 81
f 80 119 120
f 81 120 82
f 82 121 83
f 82 120 121
f 83 121 84
f 84 121 87
f 84 87 85
f 85 87 86
f 87 121 88
f 88 122 123
f 88 123 89
f 88 121 120
f 88 120 122
f 89 123 124
f 89 124 125
f 89 125 91
f 89 91 90
f 91 125 93
f 91 93 126
f 91 126 92
f 92 126 93
f 93 127 128
f 93 128 129
f 93 129 130
f 93 130 131
f 93 131 132
f 93 132 133
f 93 133 97
f 93 125 134
f 93 134 135
f 93 135 136
f 93 136 137
f 93 137 127
f 94 106 99
f 94 98 108
f 94 108 106
f 95 101 96
f 96 101 97
f 97 133 98
f 98 133 132
f 98 132 109
f 98 109 108
f 99 106 102
f 99 102 100
f 102 106 105
f 102 105 103
f 104 138 139
f 104 139 140
f 104 140 141
f 104 141 111
f 104 110 142
f 104 142 143
f 104 143 144
f 104 144 138
f 106 108 107
f 109 132 131
f 109 131 145
f 109 145 110
f 110 145 144
f 110 144 143
f 110 143 142
f 111 141 146
f 111 146 147
f 111 147 112
f 112 147 148
f 112 148 113
f 113 148 147
f 113 147 146
f 113 146 173
f 113 173 212
f 113 212 239
f 113 239 238
f 113 238 235
f 113 235 234
f 113 234 233
f 113 233 242
f 113 242 241
f 113 241 240
f 113 240 214
f 113 214 177
f 113 177 149
f 114 149 115
f 115 150 151
f 115 151 116
f 115 149 150
f 116 151 152
f 116 152 120
f 116 120 118
f 117 118 153
f 117 153 119
f 118 120 154
f 118 154 153
f 119 153 154
f 119 154 120
f 120 152 155
f 120 155 156
f 120 156 157
f 120 157 158
f 120 158 122
f 122 158 123
f 123 159 160
f 123 160 124
f 123 158 159
f 124 160 161
f 124 161 162
f 124 162 163
f 124 163 125
f 125 163 164
f 125 164 134
f 127 129 128
f 127 137 165
f 127 165 131
f 127 131 129
f 129 131 130
f 131 165 166
f 131 166 167
f 131 167 168
f 131 168 169
f 131 169 144
f 131 144 145
f 134 164 135
f 135 164 170
f 135 170 165
f 135 165 137
f 135 137 136
f 138 171 172
f 138 172 139
f 138 144 171
f 139 172 140
f 140 172 173
f 140 173 141
f 141 173 146
f 144 174 175
f 144 175 176
f 144 176 172
f 144 172 171
f 144 169 174
f 149 177 150
f 150 178 179
f 150 179 155
f 150 155 151
f 150 177 178
f 151 155 152
f 155 179 180
f 155 180 181
f 155 181 182
f 155 182 183
f 155 183 156
f 156 183 184
f 156 184 185
f 156 185 157
f 157 185 186
f 157 186 187
f 157 187 188
f 157 188 189
f 157 189 190
f 157 190 158
f 158 190 159
f 159 190 191
f 159 191 160
f 160 191 192
f 160 192 193
f 160 193 161
f 161 193 194
f 161 194 195
f 161 195 162
f 162 195 196
f 162 196 170
f 162 170 163
f 163 170 164
f 165 170 197
f 165 197 198
f 165 198 199
f 165 199 200
f 165 200 201
f 165 201 202
f 165 202 203
f 165 203 204
f 165 204 205
f 165 205 206
f 165 206 166
f 166 206 167
f 167 207 208
f 167 208 209
f 167 209 168
f 167 206 207
f 168 209 210
f 168 210 174
f 168 174 169
f 170 196 197
f 172 176 175
f 172 175 173
f 173 175 211
f 173 211 212
f 174 210 213
f 174 213 175
f 175 213 211
f 177 214 215
f 177 215 216
f 177 216 217
f 177 217 178
f 178 217 179
f 179 217 218
f 179 218 219
f 179 219 180
f 180 219 181
f 181 219 182
f 182 219 183
f 183 219 220
f 183 220 184
f 184 220 186
f 184 186 185
f 186 220 187
f 187 221 188
f 187 220 221
f 188 222 189
f 188 221 223
f 188 223 222
f 189 222 224
f 189 224 191
f 189 191 190
f 191 224 192
f 192 225 193
f 192 224 225
f 193 225 226
f 193 226 194
f 194 226 195
f 195 226 199
f 195 199 198
f 195 198 197
f 195 197 196
f 199 226 200
f 200 226 227
f 200 227 228
f 200 228 201
f 201 228 229
f 201 229 230
f 201 230 231
f 201 231 202
f 202 231 203
f 203 231 204
f 204 231 232
f 204 232 233
f 204 233 234
f 204 234 235
f 204 235 236
f 204 236 209
f 204 209 237
f 204 237 205
f 205 237 208
f 205 208 206
f 206 208 207
f 208 237 209
f 209 236 235
f 209 235 238
f 209 238 210
f 210 238 239
f 210 239 213
f 211 213 212
f 212 213 239
f 214 240 215
f 215 240 241
f 215 241 242
f 215 242 243
f 215 243 232
f 215 232 244
f 215 244 245
f 215 245 246
f 215 246 217
f 215 217 216
f 217 246 218
f 218 246 245
f 218 245 247
f 218 247 219
f 219 247 248
f 219 248 220
f 220 248 223
f 220 223 221
f 222 223 226
f 222 226 225
f 222 225 224
f 223 248 227
f 223 227 226
f 227 248 249
f 227 249 247
f 227 247 250
f 227 250 228
f 228 250 229
f 229 247 251
f 229 251 230
f 229 250 247
f 230 251 252
f 230 252 253
f 230 253 231
f 231 253 232
f 232 253 244
f 232 243 242
f 232 242 233
f 244 253 245
f 245 253 252
f 245 252 247
f 247 249 248
f 247 252 251
