v -0.031244 -0.016507 0.019400
v -0.031675 -0.016507 0.019393
v -0.031925 -0.018318 0.010218
v -0.031298 -0.018296 0.010218
v -0.031241 -0.018291 0.010218
v -0.031154 -0.009562 0.019376
v -0.031154 -0.001103 0.019384
v -0.032318 -0.016362 0.019354
v -0.032318 -0.016507 0.019354
v -0.031676 -0.001621 0.019370
v -0.032315 -0.018312 0.010218
v -0.032315 -0.016590 0.002191
v -0.031674 -0.016520 0.002191
v -0.031241 -0.016425 0.002191
v -0.031154 -0.009562 0.012082
v -0.031154 -0.000461 0.019383
v -0.032959 -0.016507 0.019275
v -0.032317 -0.001621 0.019330
v -0.032957 -0.009562 0.019273
v -0.031676 -0.000979 0.019369
v -0.033061 -0.016507 0.019261
v -0.033408 -0.016507 0.019202
v -0.033728 -0.016507 0.019141
v -0.034240 -0.016507 0.019017
v -0.034382 -0.016507 0.018978
v -0.034882 -0.016507 0.018839
v -0.035492 -0.016507 0.018639
v -0.035814 -0.016507 0.018526
v -0.036160 -0.016507 0.018399
v -0.036798 -0.016507 0.018148
v -0.037250 -0.016507 0.017957
v -0.037683 -0.016507 0.017748
v -0.038082 -0.016507 0.017550
v -0.038523 -0.016507 0.017321
v -0.038845 -0.016507 0.017142
v -0.039364 -0.016507 0.016838
v -0.039442 -0.016507 0.016792
v -0.039711 -0.016507 0.016630
v -0.040031 -0.016507 0.016414
v -0.040496 -0.016507 0.016095
v -0.040565 -0.016507 0.016045
v -0.040816 -0.016507 0.015858
v -0.041113 -0.016507 0.015633
v -0.032957 -0.018239 0.010218
v -0.032957 -0.016566 0.002191
v -0.032957 -0.016274 0.001645
v -0.032315 -0.016281 0.001642
v -0.031674 -0.016242 0.001674
v -0.031241 -0.016195 0.001705
v -0.031155 -0.004841 0.002115
v -0.031155 -0.004633 0.001732
v -0.031155 -0.004561 0.001684
v -0.031155 -0.004185 0.001460
v -0.031155 -0.004063 0.001428
v -0.031154 -0.005132 0.011172
v -0.031154 -0.000338 0.019381
v -0.031676 -0.000002 0.019363
v -0.032317 -0.000979 0.019328
v -0.032957 -0.000002 0.019248
v -0.033400 -0.013155 0.019206
v -0.033342 -0.000002 0.019194
v -0.033706 -0.009307 0.019132
v -0.034240 -0.016362 0.019019
v -0.034881 -0.000002 0.018793
v -0.035146 -0.000002 0.018708
v -0.035431 -0.000002 0.018616
v -0.035586 -0.000002 0.018565
v -0.035757 -0.000979 0.018508
v -0.035803 -0.013155 0.018522
v -0.036159 -0.000979 0.018354
v -0.036800 -0.000002 0.018093
v -0.037188 -0.000338 0.017930
v -0.038082 -0.000979 0.017489
v -0.038468 -0.000979 0.017291
v -0.038790 -0.000979 0.017111
v -0.039660 -0.002261 0.016598
v -0.040499 -0.013800 0.016093
v -0.040501 -0.014438 0.016093
v -0.040499 -0.015080 0.016095
v -0.040822 -0.014438 0.015865
v -0.040821 -0.015080 0.015863
v -0.041113 -0.016507 0.011776
v -0.041113 -0.014883 0.015641
v -0.033597 -0.018092 0.010218
v -0.034239 -0.016353 0.002191
v -0.033597 -0.016484 0.002191
v -0.033597 -0.016220 0.001695
v -0.034239 -0.015724 0.001516
v -0.033597 -0.015724 0.001460
v -0.032957 -0.015724 0.001417
v -0.032315 -0.015724 0.001412
v -0.031674 -0.015724 0.001421
v -0.031241 -0.015724 0.001446
v -0.031155 -0.003543 0.001394
v -0.031154 -0.000002 0.011172
v -0.031154 -0.000002 0.019374
v -0.032317 -0.000002 0.019321
v -0.033496 -0.000002 0.019158
v -0.033663 -0.000002 0.019118
v -0.034240 -0.000002 0.018973
v -0.035753 -0.000002 0.018503
v -0.035754 -0.000338 0.018506
v -0.036159 -0.000002 0.018349
v -0.037188 -0.000002 0.017929
v -0.038082 -0.000002 0.017482
v -0.038466 -0.000338 0.017289
v -0.038786 -0.000002 0.017107
v -0.039318 -0.000002 0.016785
v -0.039472 -0.000002 0.016690
v -0.039654 -0.001621 0.016595
v -0.039814 -0.000002 0.016473
v -0.040004 -0.000002 0.016349
v -0.040137 -0.000338 0.016262
v -0.041113 -0.010591 0.015612
v -0.041113 -0.014438 0.015641
v -0.037177 -0.014808 0.001829
v -0.036419 -0.015367 0.001954
v -0.036187 -0.015575 0.002179
v -0.035155 -0.016028 0.001914
v -0.034917 -0.016163 0.002152
v -0.041113 -0.009562 0.012225
v -0.039711 -0.009311 0.002352
v -0.039702 -0.009953 0.002421
v -0.039689 -0.010290 0.002497
v -0.039565 -0.010539 0.002246
v -0.039389 -0.011233 0.002193
v -0.039017 -0.012133 0.001946
v -0.038345 -0.013397 0.002013
v -0.037796 -0.014166 0.001840
v -0.034728 -0.016093 0.001811
v -0.034239 -0.016150 0.001751
v -0.035520 -0.015084 0.001423
v -0.034917 -0.015779 0.001651
v -0.034880 -0.015084 0.001375
v -0.033597 -0.003543 0.001350
v -0.031241 -0.015084 0.001424
v -0.032315 -0.002916 0.001603
v -0.031155 -0.003427 0.001440
v -0.031155 -0.002677 0.002219
v -0.031155 -0.000002 0.010577
v -0.031155 -0.002982 0.001665
v -0.031155 -0.002919 0.001742
v -0.038464 -0.000002 0.017287
v -0.040137 -0.000002 0.016259
v -0.041113 -0.009562 0.015602
v -0.036801 -0.014931 0.001734
v -0.035993 -0.015489 0.001781
v -0.037411 -0.014404 0.001741
v -0.036801 -0.014442 0.001507
v -0.035520 -0.015618 0.001695
v -0.040137 -0.000002 0.012879
v -0.039703 -0.008825 0.002401
v -0.039648 -0.009311 0.002030
v -0.039637 -0.009563 0.002057
v -0.039620 -0.009953 0.002099
v -0.039171 -0.011233 0.001742
v -0.039095 -0.011706 0.001811
v -0.038478 -0.012968 0.001792
v -0.037903 -0.013800 0.001755
v -0.037442 -0.013800 0.001529
v -0.036187 -0.015125 0.001629
v -0.037442 -0.013158 0.001447
v -0.038082 -0.011873 0.001426
v -0.038724 -0.009563 0.001426
v -0.038723 -0.008671 0.001423
v -0.036801 -0.004829 0.001386
v -0.034239 -0.003543 0.001384
v -0.032957 -0.002923 0.001605
v -0.032315 -0.002595 0.001914
v -0.031675 -0.002932 0.001635
v -0.031675 -0.002611 0.002041
v -0.031675 -0.000002 0.010594
v -0.038082 -0.012516 0.001467
v -0.038988 -0.000002 0.012142
v -0.034239 -0.002742 0.002191
v -0.034880 -0.002926 0.002191
v -0.035259 -0.003199 0.001838
v -0.036545 -0.003830 0.001824
v -0.037232 -0.004393 0.001755
v -0.037816 -0.005076 0.001804
v -0.038400 -0.005791 0.001877
v -0.038953 -0.006716 0.002145
v -0.039116 -0.006910 0.002329
v -0.039219 -0.007348 0.002145
v -0.039459 -0.008031 0.002193
v -0.039615 -0.008637 0.002189
v -0.039194 -0.008031 0.001719
v -0.039280 -0.008671 0.001672
v -0.039327 -0.009311 0.001652
v -0.039511 -0.009563 0.001886
v -0.039246 -0.010594 0.001688
v -0.038724 -0.011233 0.001509
v -0.038772 -0.011901 0.001666
v -0.038599 -0.012516 0.001714
v -0.038111 -0.013172 0.001651
v -0.037976 -0.013585 0.001719
v -0.037674 -0.013585 0.001571
v -0.038724 -0.010594 0.001447
v -0.038724 -0.009953 0.001430
v -0.038723 -0.008031 0.001462
v -0.037444 -0.004848 0.001652
v -0.036776 -0.004183 0.001670
v -0.036160 -0.004187 0.001469
v -0.037442 -0.005469 0.001454
v -0.034880 -0.003543 0.001504
v -0.034239 -0.003029 0.001677
v -0.033597 -0.002959 0.001635
v -0.032957 -0.002602 0.001931
v -0.032315 -0.000002 0.010617
v -0.038637 -0.000002 0.011925
v -0.038455 -0.000002 0.011817
v -0.033658 -0.002625 0.002163
v -0.034880 -0.003127 0.001762
v -0.036160 -0.003726 0.001732
v -0.037961 -0.005469 0.001716
v -0.038507 -0.006220 0.001774
v -0.039027 -0.007100 0.001900
v -0.039120 -0.007529 0.001792
v -0.038777 -0.007348 0.001642
v -0.039316 -0.009563 0.001656
v -0.039299 -0.009953 0.001663
v -0.038628 -0.006751 0.001696
v -0.035780 -0.003610 0.001696
v -0.035492 -0.003520 0.001672
v -0.038145 -0.006048 0.001642
v -0.037920 -0.000002 0.011568
v -0.037394 -0.000002 0.011391
v -0.037161 -0.000002 0.011313
v -0.036493 -0.000002 0.011170
v -0.034245 -0.000002 0.010833
v -0.032956 -0.000002 0.010669
f 1 2 3
f 1 3 4
f 1 4 5
f 1 5 6
f 1 6 7
f 1 7 2
f 2 8 9
f 2 9 3
f 2 7 10
f 2 10 8
f 3 11 12
f 3 12 4
f 3 9 11
f 4 12 5
f 5 12 13
f 5 13 14
f 5 14 15
f 5 15 6
f 6 15 55
f 6 55 95
f 6 95 96
f 6 96 56
f 6 56 16
f 6 16 7
f 7 16 20
f 7 20 10
f 8 17 9
f 8 10 18
f 8 18 19
f 8 19 17
f 9 17 11
f 10 20 58
f 10 58 18
f 11 17 21
f 11 21 22
f 11 22 23
f 11 23 24
f 11 24 25
f 11 25 26
f 11 26 27
f 11 27 28
f 11 28 29
f 11 29 30
f 11 30 31
f 11 31 32
f 11 32 33
f 11 33 34
f 11 34 35
f 11 35 36
f 11 36 37
f 11 37 38
f 11 38 39
f 11 39 40
f 11 40 41
f 11 41 42
f 11 42 43
f 11 43 44
f 11 44 45
f 11 45 12
f 12 45 46
f 12 46 47
f 12 47 48
f 12 48 13
f 13 48 49
f 13 49 14
f 14 49 15
f 15 49 50
f 15 50 51
f 15 51 52
f 15 52 53
f 15 53 54
f 15 54 55
f 16 56 57
f 16 57 20
f 17 19 21
f 18 58 59
f 18 59 19
f 19 60 21
f 19 59 61
f 19 61 60
f 20 57 58
f 21 60 22
f 22 60 23
f 23 60 62
f 23 62 63
f 23 63 24
f 24 63 25
f 25 63 26
f 26 63 64
f 26 64 65
f 26 65 66
f 26 66 27
f 27 66 67
f 27 67 68
f 27 68 69
f 27 69 28
f 28 69 29
f 29 69 68
f 29 68 70
f 29 70 30
f 30 70 71
f 30 71 72
f 30 72 31
f 31 72 32
f 32 72 33
f 33 72 73
f 33 73 74
f 33 74 34
f 34 74 35
f 35 74 75
f 35 75 36
f 36 75 37
f 37 75 76
f 37 76 38
f 38 76 77
f 38 77 39
f 39 77 78
f 39 78 79
f 39 79 40
f 40 79 80
f 40 80 41
f 41 81 42
f 41 80 81
f 42 81 43
f 43 82 44
f 43 81 83
f 43 83 115
f 43 115 114
f 43 114 145
f 43 145 121
f 43 121 82
f 44 82 84
f 44 84 85
f 44 85 86
f 44 86 45
f 45 86 87
f 45 87 46
f 46 87 88
f 46 88 89
f 46 89 90
f 46 90 47
f 47 90 91
f 47 91 92
f 47 92 93
f 47 93 48
f 48 93 49
f 49 93 53
f 49 53 52
f 49 52 51
f 49 51 50
f 53 93 54
f 54 94 55
f 54 93 94
f 55 94 95
f 56 96 57
f 57 97 58
f 57 96 95
f 57 95 140
f 57 140 172
f 57 172 209
f 57 209 231
f 57 231 230
f 57 230 229
f 57 229 228
f 57 228 227
f 57 227 226
f 57 226 211
f 57 211 210
f 57 210 174
f 57 174 151
f 57 151 144
f 57 144 112
f 57 112 111
f 57 111 109
f 57 109 108
f 57 108 107
f 57 107 143
f 57 143 105
f 57 105 104
f 57 104 71
f 57 71 103
f 57 103 101
f 57 101 67
f 57 67 66
f 57 66 65
f 57 65 64
f 57 64 100
f 57 100 99
f 57 99 98
f 57 98 61
f 57 61 59
f 57 59 97
f 58 97 59
f 60 61 62
f 61 98 62
f 62 98 99
f 62 99 63
f 63 99 100
f 63 100 64
f 67 101 102
f 67 102 68
f 68 102 70
f 70 102 103
f 70 103 71
f 71 104 72
f 72 104 73
f 73 104 105
f 73 105 106
f 73 106 74
f 74 106 75
f 75 106 107
f 75 107 76
f 76 107 108
f 76 108 109
f 76 109 110
f 76 110 111
f 76 111 112
f 76 112 113
f 76 113 77
f 77 80 78
f 77 113 80
f 78 80 79
f 80 114 115
f 80 115 83
f 80 83 81
f 80 113 114
f 82 116 117
f 82 117 118
f 82 118 119
f 82 119 120
f 82 120 85
f 82 85 84
f 82 121 122
f 82 122 123
f 82 123 124
f 82 124 125
f 82 125 126
f 82 126 127
f 82 127 128
f 82 128 129
f 82 129 116
f 85 120 119
f 85 119 130
f 85 130 86
f 86 130 131
f 86 131 87
f 87 131 88
f 88 132 89
f 88 131 133
f 88 133 132
f 89 132 134
f 89 134 90
f 90 134 91
f 91 134 135
f 91 135 136
f 91 136 92
f 92 136 93
f 93 136 94
f 94 135 137
f 94 137 138
f 94 138 95
f 94 136 135
f 95 139 140
f 95 138 141
f 95 141 142
f 95 142 139
f 101 103 102
f 105 143 106
f 106 143 107
f 109 111 110
f 112 144 113
f 113 144 145
f 113 145 114
f 116 146 147
f 116 147 117
f 116 129 148
f 116 148 149
f 116 149 146
f 117 147 119
f 117 119 118
f 119 147 150
f 119 150 130
f 121 145 144
f 121 144 151
f 121 151 152
f 121 152 122
f 122 153 123
f 122 152 153
f 123 153 154
f 123 154 155
f 123 155 124
f 124 155 125
f 125 155 156
f 125 156 126
f 126 156 157
f 126 157 127
f 127 157 158
f 127 158 128
f 128 158 129
f 129 158 159
f 129 159 160
f 129 160 148
f 130 150 133
f 130 133 131
f 132 133 150
f 132 150 161
f 132 161 149
f 132 149 162
f 132 162 134
f 134 162 163
f 134 163 164
f 134 164 165
f 134 165 166
f 134 166 135
f 135 166 167
f 135 167 168
f 135 168 137
f 137 169 170
f 137 170 138
f 137 168 169
f 138 170 141
f 139 171 140
f 139 142 171
f 140 171 169
f 140 169 172
f 141 170 169
f 141 169 142
f 142 169 171
f 146 161 147
f 146 149 161
f 147 161 150
f 148 160 149
f 149 160 173
f 149 173 162
f 151 174 175
f 151 175 176
f 151 176 177
f 151 177 178
f 151 178 179
f 151 179 180
f 151 180 181
f 151 181 182
f 151 182 183
f 151 183 184
f 151 184 185
f 151 185 186
f 151 186 152
f 152 186 153
f 153 186 187
f 153 187 188
f 153 188 189
f 153 189 190
f 153 190 191
f 153 191 154
f 154 191 155
f 155 191 156
f 156 191 192
f 156 192 193
f 156 193 157
f 157 193 194
f 157 194 158
f 158 194 195
f 158 195 196
f 158 196 159
f 159 196 197
f 159 197 160
f 160 197 173
f 162 173 163
f 163 173 198
f 163 198 199
f 163 199 164
f 164 199 189
f 164 189 165
f 165 200 166
f 165 189 200
f 166 201 179
f 166 179 202
f 166 202 203
f 166 203 167
f 166 200 204
f 166 204 201
f 167 205 206
f 167 206 207
f 167 207 168
f 167 203 205
f 168 207 208
f 168 208 169
f 169 208 209
f 169 209 172
f 173 197 195
f 173 195 194
f 173 194 193
f 173 193 192
f 173 192 198
f 174 210 175
f 175 210 211
f 175 211 212
f 175 212 213
f 175 213 177
f 175 177 176
f 177 213 214
f 177 214 178
f 178 214 202
f 178 202 179
f 179 201 180
f 180 201 215
f 180 215 181
f 181 215 216
f 181 216 217
f 181 217 182
f 182 217 183
f 183 217 184
f 184 217 218
f 184 218 185
f 185 218 186
f 186 218 187
f 187 218 219
f 187 219 200
f 187 200 188
f 188 200 189
f 189 199 198
f 189 198 220
f 189 220 190
f 190 220 221
f 190 221 191
f 191 221 198
f 191 198 192
f 195 197 196
f 198 221 220
f 200 219 222
f 200 222 204
f 201 204 215
f 202 214 203
f 203 214 223
f 203 223 224
f 203 224 205
f 204 222 225
f 204 225 216
f 204 216 215
f 205 224 213
f 205 213 206
f 206 213 212
f 206 212 208
f 206 208 207
f 208 212 226
f 208 226 227
f 208 227 228
f 208 228 229
f 208 229 230
f 208 230 231
f 208 231 209
f 211 226 212
f 213 224 223
f 213 223 214
f 216 225 222
f 216 222 218
f 216 218 217
f 218 222 219
