v -0.040143 -0.009491 0.016295
v -0.040477 -0.009564 0.016076
v -0.041148 -0.019567 0.015645
v -0.040143 -0.009564 0.016295
v -0.040143 -0.003728 0.016282
v -0.040467 -0.004184 0.016066
v -0.040788 -0.004184 0.015841
v -0.041586 -0.019567 0.015310
v -0.041148 -0.021937 0.015638
v -0.040143 -0.009564 0.012327
v -0.040143 -0.000337 0.016264
v -0.040198 0.000029 0.016225
v -0.040449 -0.000337 0.016059
v -0.040767 0.000029 0.015816
v -0.041207 -0.003542 0.015517
v -0.041207 -0.004184 0.015520
v -0.042267 -0.013160 0.014701
v -0.042269 -0.013799 0.014703
v -0.042279 -0.018288 0.014713
v -0.041934 -0.019567 0.015011
v -0.042277 -0.021937 0.014711
v -0.041934 -0.021937 0.015002
v -0.041575 -0.021937 0.015300
v -0.041475 -0.021937 0.015380
v -0.041525 -0.002903 0.015262
v -0.041148 -0.021937 0.010825
v -0.040143 -0.003374 0.011654
v -0.040143 0.000029 0.016260
v -0.040446 0.000029 0.016057
v -0.042278 0.002982 0.014566
v -0.041182 0.000029 0.015497
v -0.041191 -0.000979 0.015502
v -0.041517 -0.001621 0.015257
v -0.041522 -0.002263 0.015260
v -0.042941 -0.011878 0.014094
v -0.041911 -0.003542 0.014942
v -0.042234 -0.004184 0.014675
v -0.042955 -0.019567 0.014107
v -0.042599 -0.019567 0.014427
v -0.042279 -0.018930 0.014713
v -0.042599 -0.021937 0.014418
v -0.042954 -0.020211 0.014105
v -0.046763 -0.021937 -0.000049
v -0.045460 -0.017958 0.000595
v -0.045409 -0.017531 0.000523
v -0.040143 -0.002903 0.011604
v -0.040143 0.000029 0.012866
v -0.042278 0.002999 0.010872
v -0.042278 0.001459 0.014588
v -0.041502 0.000029 0.015245
v -0.041318 0.000029 0.015390
v -0.042543 0.002999 0.014320
v -0.042884 0.000944 0.014037
v -0.042564 0.000944 0.014333
v -0.042214 0.000029 0.014656
v -0.042939 -0.011236 0.014090
v -0.043538 -0.002903 0.013411
v -0.043580 -0.014441 0.013453
v -0.042278 0.000944 0.014593
v -0.043585 -0.021937 0.013460
v -0.043487 -0.021937 0.013560
v -0.042947 -0.021937 0.014097
v -0.043168 -0.021937 0.013881
v -0.047001 -0.021937 -0.000246
v -0.046055 -0.018017 -0.000083
v -0.046034 -0.017646 -0.000098
v -0.045664 -0.001621 0.000137
v -0.045368 -0.001621 0.000455
v -0.040143 -0.002727 0.011613
v -0.040143 -0.002136 0.011754
v -0.045389 -0.001189 0.000503
v -0.046457 0.002999 0.000267
v -0.042863 0.002999 0.014017
v -0.042877 0.001586 0.014032
v -0.043523 0.000300 0.013393
v -0.043528 -0.000337 0.013400
v -0.043208 -0.000337 0.013724
v -0.042893 -0.000979 0.014047
v -0.043814 -0.000337 0.013079
v -0.044139 -0.000979 0.012719
v -0.044155 -0.005466 0.012739
v -0.044189 -0.015725 0.012781
v -0.044200 -0.021937 0.012794
v -0.047251 -0.021937 -0.000336
v -0.047059 -0.020853 -0.000324
v -0.046418 -0.017646 -0.000257
v -0.047356 -0.009803 -0.000705
v -0.045985 -0.001621 -0.000116
v -0.046653 0.002999 -0.000159
v -0.040143 -0.002263 0.011692
v -0.043112 0.002999 0.013761
v -0.043431 0.002999 0.013433
v -0.043496 0.002999 0.013365
v -0.043744 0.002999 0.013099
v -0.044048 0.002999 0.012763
v -0.044114 0.002999 0.012689
v -0.044135 -0.000337 0.012714
v -0.044715 0.000300 0.011997
v -0.044735 -0.004826 0.012027
v -0.044419 -0.005466 0.012420
v -0.044791 -0.021937 0.012095
v -0.044496 -0.021937 0.012446
v -0.044405 -0.021937 0.012554
v -0.047700 -0.021937 -0.000495
v -0.047059 -0.017646 -0.000459
v -0.047403 -0.009803 -0.000705
v -0.047356 -0.009447 -0.000705
v -0.046418 -0.001621 -0.000304
v -0.047700 -0.020853 -0.000524
v -0.047059 0.002999 -0.000439
v -0.044372 0.002999 0.012368
v -0.044965 0.000300 0.011676
v -0.044969 -0.000337 0.011679
v -0.044990 -0.004826 0.011707
v -0.044690 0.002999 0.011969
v -0.044946 0.002999 0.011648
v -0.044758 -0.011236 0.012052
v -0.045042 -0.021937 0.011774
v -0.048341 -0.021937 -0.000286
v -0.047700 -0.021493 -0.000507
v -0.047650 -0.009989 -0.000607
v -0.047403 -0.009447 -0.000705
v -0.047700 0.002999 -0.000545
v -0.045285 0.000300 0.011253
v -0.045290 -0.000337 0.011258
v -0.045309 -0.004184 0.011280
v -0.045361 -0.021493 0.011355
v -0.045265 0.002999 0.011222
v -0.045362 -0.021937 0.011355
v -0.048686 -0.021937 -0.000081
v -0.048312 0.001586 -0.000281
v -0.047824 0.002999 -0.000492
v -0.047700 0.002868 -0.000547
v -0.045519 0.000300 0.010930
v -0.045523 -0.000337 0.010937
v -0.045540 -0.004184 0.010960
v -0.045592 -0.021493 0.011035
v -0.045497 0.002999 0.010899
v -0.045592 -0.021937 0.011035
v -0.048818 -0.021937 0.000267
v -0.048641 0.002228 -0.000006
v -0.048320 0.002228 -0.000271
v -0.048311 0.002999 -0.000267
v -0.045771 0.000300 0.010523
v -0.045779 -0.000337 0.010523
v -0.045730 0.002999 0.010523
v -0.045825 -0.004826 0.010523
v -0.045913 -0.020851 0.010546
v -0.045913 -0.021937 0.010548
v -0.048857 -0.021937 0.000468
v -0.048756 0.002999 0.000327
v -0.048659 0.002999 0.000072
v -0.048632 0.002999 0.000007
v -0.046030 0.000300 0.010087
v -0.046061 -0.004826 0.010137
v -0.045954 0.002999 0.010140
v -0.046217 0.000300 0.009769
v -0.046110 -0.020851 0.010223
v -0.046111 -0.021493 0.010225
v -0.046116 -0.021937 0.010216
v -0.048936 -0.021937 0.000909
v -0.048774 0.002999 0.000445
v -0.046239 -0.004826 0.009815
v -0.046300 -0.020853 0.009880
v -0.046011 0.002999 0.010042
v -0.046150 0.002999 0.009787
v -0.046500 0.000300 0.009240
v -0.046729 -0.004184 0.008898
v -0.046297 -0.021937 0.009880
v -0.046299 -0.021493 0.009880
v -0.048928 -0.021937 0.001552
v -0.048841 0.002999 0.000909
v -0.046550 -0.004826 0.009240
v -0.046608 -0.020853 0.009296
v -0.046721 -0.021937 0.009083
v -0.046442 0.002999 0.009240
v -0.046676 0.002999 0.008794
v -0.046701 0.000300 0.008842
v -0.046876 -0.004184 0.008577
v -0.047397 -0.021493 0.007675
v -0.047247 -0.021937 0.007995
v -0.046960 -0.021937 0.008599
v -0.046770 -0.021493 0.008982
v -0.046858 0.000300 0.008524
v -0.047119 0.000300 0.007958
v -0.048864 -0.021937 0.002192
v -0.048797 0.002999 0.001553
v -0.046771 -0.021937 0.008983
v -0.046802 0.002999 0.008537
v -0.047158 -0.004184 0.007958
v -0.047499 -0.021937 0.007432
v -0.047397 -0.021937 0.007677
v -0.047344 -0.004826 0.007556
v -0.047072 0.002999 0.007958
v -0.047316 0.000944 0.007492
v -0.047321 0.000300 0.007499
v -0.048835 -0.021937 0.002392
v -0.048805 -0.011236 0.002192
v -0.048721 0.002999 0.002192
v -0.047542 -0.021493 0.007321
v -0.047545 -0.021937 0.007321
v -0.047450 0.000944 0.007171
v -0.047472 -0.004826 0.007234
v -0.047299 0.002999 0.007451
v -0.048766 -0.021937 0.002835
v -0.048672 0.002999 0.002563
v -0.047715 -0.021937 0.006878
v -0.047432 0.002999 0.007130
v -0.047638 0.000944 0.006682
v -0.047643 0.000300 0.006682
v -0.047679 -0.004826 0.006682
v -0.047790 -0.021937 0.006679
v -0.048688 -0.021937 0.003314
v -0.048614 0.002999 0.002884
v -0.048636 -0.021937 0.003635
v -0.047567 0.002999 0.006775
v -0.047601 0.002999 0.006682
v -0.047786 0.002999 0.006171
v -0.047856 0.001586 0.006041
v -0.047865 0.000944 0.006041
v -0.047870 0.000300 0.006041
v -0.048019 -0.004702 0.005718
v -0.047951 -0.016364 0.006138
v -0.047908 -0.021937 0.006344
v -0.048592 0.002999 0.003006
v -0.048405 0.000944 0.004114
v -0.048513 0.002228 0.003474
v -0.048607 -0.021937 0.003790
v -0.047832 0.002999 0.006041
v -0.047995 0.001586 0.005635
v -0.047998 0.000944 0.005644
v -0.048092 0.000944 0.005324
v -0.048255 0.000944 0.004760
v -0.048111 -0.004184 0.005389
v -0.048208 -0.020853 0.005396
v -0.048070 -0.021493 0.005862
v -0.048071 -0.021937 0.005867
v -0.047963 -0.021937 0.006189
v -0.048479 0.002999 0.003603
v -0.048398 0.001586 0.004114
v -0.048544 -0.021937 0.004114
v -0.048389 -0.020853 0.004758
v -0.048362 -0.016364 0.004758
v -0.047953 0.002999 0.005687
v -0.047983 0.002999 0.005595
v -0.048078 0.002999 0.005276
v -0.048088 0.001586 0.005314
v -0.048246 0.001586 0.004760
v -0.048211 -0.021493 0.005396
v -0.048211 -0.021937 0.005396
v -0.048377 0.002999 0.004114
v -0.048497 -0.021937 0.004316
v -0.048392 -0.021493 0.004758
v -0.048223 0.002999 0.004760
v -0.048389 -0.021937 0.004758
f 1 2 3
f 1 3 4
f 1 4 10
f 1 10 27
f 1 27 46
f 1 46 69
f 1 69 90
f 1 90 70
f 1 70 47
f 1 47 28
f 1 28 11
f 1 11 5
f 1 5 2
f 2 5 6
f 2 6 3
f 3 6 7
f 3 7 8
f 3 8 9
f 3 9 4
f 4 9 26
f 4 26 10
f 5 11 12
f 5 12 13
f 5 13 6
f 6 13 7
f 7 13 14
f 7 14 15
f 7 15 16
f 7 16 8
f 8 17 18
f 8 18 19
f 8 19 20
f 8 20 21
f 8 21 22
f 8 22 23
f 8 23 24
f 8 24 9
f 8 16 25
f 8 25 17
f 9 24 23
f 9 23 22
f 9 22 21
f 9 21 41
f 9 41 62
f 9 62 63
f 9 63 61
f 9 61 60
f 9 60 83
f 9 83 103
f 9 103 102
f 9 102 101
f 9 101 118
f 9 118 129
f 9 129 139
f 9 139 149
f 9 149 160
f 9 160 169
f 9 169 175
f 9 175 188
f 9 188 182
f 9 182 181
f 9 181 192
f 9 192 191
f 9 191 201
f 9 201 207
f 9 207 212
f 9 212 224
f 9 224 238
f 9 238 237
f 9 237 250
f 9 250 255
f 9 255 252
f 9 252 241
f 9 241 228
f 9 228 215
f 9 215 213
f 9 213 205
f 9 205 197
f 9 197 186
f 9 186 171
f 9 171 161
f 9 161 150
f 9 150 140
f 9 140 130
f 9 130 119
f 9 119 104
f 9 104 84
f 9 84 64
f 9 64 43
f 9 43 26
f 10 26 27
f 11 28 12
f 12 29 13
f 12 28 30
f 12 30 29
f 13 29 14
f 14 31 32
f 14 32 15
f 14 29 30
f 14 30 31
f 15 32 33
f 15 33 34
f 15 34 25
f 15 25 16
f 17 35 18
f 17 25 36
f 17 36 37
f 17 37 35
f 18 35 19
f 19 38 39
f 19 39 40
f 19 40 20
f 19 35 38
f 20 40 21
f 21 40 39
f 21 39 38
f 21 38 42
f 21 42 41
f 25 34 36
f 26 43 44
f 26 44 45
f 26 45 46
f 26 46 27
f 28 47 48
f 28 48 30
f 30 49 33
f 30 33 50
f 30 50 51
f 30 51 31
f 30 48 52
f 30 52 53
f 30 53 54
f 30 54 49
f 31 51 33
f 31 33 32
f 33 51 50
f 33 49 34
f 34 49 55
f 34 55 37
f 34 37 36
f 35 56 57
f 35 57 58
f 35 58 38
f 35 37 56
f 37 55 59
f 37 59 54
f 37 54 56
f 38 58 60
f 38 60 61
f 38 61 42
f 41 42 62
f 42 61 63
f 42 63 62
f 43 64 65
f 43 65 45
f 43 45 44
f 45 65 66
f 45 66 67
f 45 67 68
f 45 68 46
f 46 68 69
f 47 70 71
f 47 71 72
f 47 72 48
f 48 72 89
f 48 89 110
f 48 110 123
f 48 123 132
f 48 132 143
f 48 143 153
f 48 153 152
f 48 152 151
f 48 151 162
f 48 162 172
f 48 172 187
f 48 187 199
f 48 199 206
f 48 206 214
f 48 214 225
f 48 225 239
f 48 239 251
f 48 251 254
f 48 254 246
f 48 246 245
f 48 245 244
f 48 244 229
f 48 229 218
f 48 218 217
f 48 217 216
f 48 216 208
f 48 208 204
f 48 204 194
f 48 194 189
f 48 189 177
f 48 177 176
f 48 176 166
f 48 166 165
f 48 165 156
f 48 156 146
f 48 146 138
f 48 138 128
f 48 128 116
f 48 116 115
f 48 115 111
f 48 111 96
f 48 96 95
f 48 95 94
f 48 94 93
f 48 93 92
f 48 92 91
f 48 91 73
f 48 73 52
f 49 59 55
f 49 54 59
f 52 73 74
f 52 74 53
f 53 75 76
f 53 76 77
f 53 77 78
f 53 78 54
f 53 74 75
f 54 78 56
f 56 78 77
f 56 77 76
f 56 76 57
f 57 76 79
f 57 79 80
f 57 80 81
f 57 81 82
f 57 82 58
f 58 82 83
f 58 83 60
f 64 84 85
f 64 85 86
f 64 86 66
f 64 66 65
f 66 86 87
f 66 87 88
f 66 88 67
f 67 88 89
f 67 89 71
f 67 71 68
f 68 71 90
f 68 90 69
f 70 90 71
f 71 89 72
f 73 91 74
f 74 91 92
f 74 92 75
f 75 92 93
f 75 93 94
f 75 94 76
f 76 94 95
f 76 95 96
f 76 96 79
f 79 97 80
f 79 96 97
f 80 97 98
f 80 98 99
f 80 99 100
f 80 100 81
f 81 100 82
f 82 100 101
f 82 101 102
f 82 102 103
f 82 103 83
f 84 104 85
f 85 104 86
f 86 104 105
f 86 105 87
f 87 106 122
f 87 122 107
f 87 107 108
f 87 108 88
f 87 105 109
f 87 109 106
f 88 108 110
f 88 110 89
f 96 111 98
f 96 98 97
f 98 112 113
f 98 113 114
f 98 114 99
f 98 111 115
f 98 115 116
f 98 116 112
f 99 114 117
f 99 117 100
f 100 117 101
f 101 117 114
f 101 114 118
f 104 119 120
f 104 120 105
f 105 120 109
f 106 109 119
f 106 119 121
f 106 121 122
f 107 123 110
f 107 110 108
f 107 122 123
f 109 120 119
f 112 124 125
f 112 125 113
f 112 116 124
f 113 125 114
f 114 125 126
f 114 126 127
f 114 127 118
f 116 128 124
f 118 127 129
f 119 130 131
f 119 131 121
f 121 131 132
f 121 132 133
f 121 133 122
f 122 133 123
f 123 133 132
f 124 134 135
f 124 135 125
f 124 128 134
f 125 135 136
f 125 136 126
f 126 136 127
f 127 137 129
f 127 136 137
f 128 138 134
f 129 137 139
f 130 140 141
f 130 141 131
f 131 141 142
f 131 142 143
f 131 143 132
f 134 144 145
f 134 145 135
f 134 138 146
f 134 146 144
f 135 145 147
f 135 147 136
f 136 147 148
f 136 148 137
f 137 149 139
f 137 148 149
f 140 150 151
f 140 151 141
f 141 151 152
f 141 152 153
f 141 153 143
f 141 143 142
f 144 154 145
f 144 146 154
f 145 154 155
f 145 155 147
f 146 156 157
f 146 157 154
f 147 155 148
f 148 155 158
f 148 158 159
f 148 159 149
f 149 159 160
f 150 161 151
f 151 161 162
f 154 157 155
f 155 163 164
f 155 164 158
f 155 157 163
f 156 165 157
f 157 165 166
f 157 166 167
f 157 167 168
f 157 168 163
f 158 164 159
f 159 164 160
f 160 164 170
f 160 170 169
f 161 171 172
f 161 172 162
f 163 168 173
f 163 173 164
f 164 173 168
f 164 168 174
f 164 174 175
f 164 175 170
f 166 176 167
f 167 176 177
f 167 177 178
f 167 178 168
f 168 179 180
f 168 180 181
f 168 181 182
f 168 182 183
f 168 183 175
f 168 175 174
f 168 178 184
f 168 184 185
f 168 185 179
f 169 170 175
f 171 186 187
f 171 187 172
f 175 183 188
f 177 189 184
f 177 184 178
f 179 185 190
f 179 190 180
f 180 191 192
f 180 192 181
f 180 190 193
f 180 193 191
f 182 188 183
f 184 189 194
f 184 194 185
f 185 194 195
f 185 195 196
f 185 196 193
f 185 193 190
f 186 197 198
f 186 198 187
f 187 198 199
f 191 193 200
f 191 200 201
f 193 196 202
f 193 202 203
f 193 203 200
f 194 204 195
f 195 202 196
f 195 204 202
f 197 205 206
f 197 206 198
f 198 206 199
f 200 207 201
f 200 203 207
f 202 204 208
f 202 208 209
f 202 209 210
f 202 210 203
f 203 211 212
f 203 212 207
f 203 210 211
f 205 213 206
f 206 213 215
f 206 215 214
f 208 216 209
f 209 216 217
f 209 217 218
f 209 218 219
f 209 219 220
f 209 220 221
f 209 221 210
f 210 221 211
f 211 222 223
f 211 223 212
f 211 221 222
f 212 223 224
f 214 215 226
f 214 226 227
f 214 227 225
f 215 228 226
f 218 229 219
f 219 229 230
f 219 230 220
f 220 230 231
f 220 231 222
f 220 222 221
f 222 231 232
f 222 232 233
f 222 233 234
f 222 234 235
f 222 235 236
f 222 236 223
f 223 236 237
f 223 237 238
f 223 238 224
f 225 227 239
f 226 233 240
f 226 240 227
f 226 228 241
f 226 241 242
f 226 242 243
f 226 243 233
f 227 240 239
f 229 244 230
f 230 244 245
f 230 245 246
f 230 246 247
f 230 247 233
f 230 233 232
f 230 232 231
f 233 247 248
f 233 248 240
f 233 243 234
f 234 243 242
f 234 242 235
f 235 242 249
f 235 249 236
f 236 249 237
f 237 249 250
f 239 240 251
f 240 248 251
f 241 252 242
f 242 252 253
f 242 253 249
f 246 254 248
f 246 248 247
f 248 254 251
f 249 253 250
f 250 253 255
f 252 255 253
