v -0.031241 -0.017740 0.009871
v -0.031241 -0.017740 0.019399
v -0.031241 -0.014259 0.009871
v -0.031154 -0.004880 0.009257
v -0.027878 -0.009559 0.009257
v -0.030260 -0.017740 0.009871
v -0.028308 -0.021436 0.020133
v -0.028388 -0.021372 0.020133
v -0.028704 -0.021083 0.020133
v -0.028713 -0.021073 0.020133
v -0.028672 -0.021021 0.020782
v -0.028843 -0.020621 0.021423
v -0.028802 -0.020557 0.021828
v -0.028755 -0.020485 0.022256
v -0.028696 -0.020394 0.022704
v -0.028893 -0.020073 0.022704
v -0.028832 -0.019969 0.023102
v -0.029152 -0.019570 0.022704
v -0.028936 -0.019570 0.023215
v -0.029361 -0.018952 0.022726
v -0.029402 -0.018283 0.022962
v -0.029415 -0.017646 0.023002
v -0.031241 -0.017644 0.019401
v -0.031241 -0.009559 0.012095
v -0.031154 -0.001380 0.009257
v -0.024970 -0.009559 0.009257
v -0.029881 -0.017592 0.009871
v -0.016758 -0.017740 0.010453
v -0.021127 -0.021436 0.020133
v -0.028244 -0.021436 0.020782
v -0.028351 -0.021352 0.020782
v -0.028611 -0.020942 0.021423
v -0.028292 -0.021308 0.021423
v -0.028558 -0.020804 0.022051
v -0.028333 -0.020866 0.022650
v -0.028265 -0.020658 0.023121
v -0.028473 -0.020194 0.023224
v -0.028465 -0.019570 0.023470
v -0.029040 -0.018928 0.023299
v -0.031241 -0.009559 0.019373
v -0.031241 -0.017002 0.019399
v -0.029082 -0.018283 0.023286
v -0.029066 -0.000965 0.023272
v -0.029393 -0.001622 0.022944
v -0.031154 0.002533 0.012013
v -0.028465 0.002533 0.011160
v -0.027817 0.002533 0.010959
v -0.024617 0.002533 0.009999
v -0.024271 0.002533 0.009987
v -0.031029 -0.001392 0.009257
v -0.024970 -0.008477 0.009257
v -0.016759 -0.005063 0.010358
v -0.020960 -0.021295 0.020133
v -0.016758 -0.014227 0.010453
v -0.016758 -0.017740 0.019414
v -0.021205 -0.021436 0.020782
v -0.028125 -0.021436 0.021423
v -0.028203 -0.021229 0.022062
v -0.028045 -0.021436 0.021695
v -0.028152 -0.021177 0.022400
v -0.028038 -0.021085 0.022828
v -0.027611 -0.021256 0.023108
v -0.027247 -0.021436 0.023214
v -0.027156 -0.021436 0.023261
v -0.026479 -0.021431 0.023546
v -0.028465 -0.018928 0.023553
v -0.026224 -0.021172 0.023666
v -0.031154 0.002533 0.019375
v -0.028463 -0.000338 0.023567
v -0.029031 -0.000338 0.023295
v -0.029388 -0.000980 0.022906
v -0.025211 0.003706 0.020139
v -0.024619 0.003785 0.020139
v -0.023941 0.002533 0.010042
v -0.016759 -0.000968 0.010358
v -0.028469 -0.002864 0.009257
v -0.029062 -0.002271 0.009257
v -0.029087 -0.002246 0.009257
v -0.029803 -0.001792 0.009257
v -0.030410 -0.001560 0.009257
v -0.026269 -0.005890 0.009257
v -0.021002 -0.021263 0.020782
v -0.016758 -0.009559 0.011315
v -0.016758 -0.017476 0.019414
v -0.019780 -0.001622 0.023070
v -0.020213 -0.017002 0.023288
v -0.020224 -0.018286 0.023272
v -0.020285 -0.018928 0.023237
v -0.020373 -0.019416 0.023136
v -0.020481 -0.019844 0.022941
v -0.021055 -0.020582 0.023074
v -0.021249 -0.021009 0.022704
v -0.021147 -0.021120 0.022064
v -0.021055 -0.021216 0.021279
v -0.021246 -0.021436 0.020984
v -0.027945 -0.021436 0.022028
v -0.027681 -0.021436 0.022666
v -0.026535 -0.021436 0.023519
v -0.026479 -0.021436 0.023542
v -0.025963 -0.021436 0.023574
v -0.028154 0.000583 0.023672
v -0.026218 -0.021172 0.023666
v -0.022698 -0.014289 0.023696
v -0.026282 -0.014161 0.023682
v -0.028931 0.000304 0.023214
v -0.028833 0.000711 0.023100
v -0.028282 0.001457 0.023158
v -0.027518 0.002560 0.023046
v -0.026174 0.003180 0.022965
v -0.026280 0.003210 0.022537
v -0.028154 0.000635 0.023672
v -0.025937 0.003257 0.022734
v -0.025258 0.003543 0.021425
v -0.024619 0.003649 0.021425
v -0.023979 0.003624 0.021425
v -0.024026 0.003735 0.020139
v -0.018828 0.002533 0.013135
v -0.019807 0.002533 0.012523
v -0.021851 0.002533 0.011250
v -0.022694 0.002533 0.010741
v -0.026510 -0.005468 0.009257
v -0.026786 -0.005021 0.009257
v -0.027369 -0.004214 0.009257
v -0.016759 -0.000968 0.019397
v -0.016758 -0.009559 0.018913
v -0.016758 -0.014437 0.019387
v -0.019783 -0.001177 0.023067
v -0.020133 -0.001622 0.023319
v -0.020804 -0.017024 0.023617
v -0.020774 -0.018928 0.023454
v -0.021415 -0.020209 0.023446
v -0.020726 -0.019604 0.023272
v -0.020926 -0.020209 0.023173
v -0.021442 -0.020819 0.023208
v -0.021671 -0.021224 0.023105
v -0.021569 -0.021300 0.022704
v -0.021467 -0.021391 0.022064
v -0.021503 -0.021436 0.022011
v -0.021445 -0.021436 0.021806
v -0.021335 -0.021436 0.021392
v -0.023279 -0.021436 0.023536
v -0.021038 -0.016822 0.023676
v -0.022698 -0.014022 0.023696
v -0.021004 -0.000106 0.023690
v -0.026282 -0.014047 0.023682
v -0.028431 0.000887 0.023341
v -0.027657 0.002227 0.023150
v -0.027182 0.002654 0.023165
v -0.027182 0.002227 0.023432
v -0.026541 0.002800 0.023303
v -0.025747 0.003219 0.023076
v -0.025258 0.003358 0.022705
v -0.021134 0.000062 0.023690
v -0.028123 0.000635 0.023672
v -0.026541 0.002227 0.023600
v -0.024619 0.003555 0.022065
v -0.025258 0.003461 0.022065
v -0.023979 0.003531 0.022065
v -0.023340 0.003410 0.022065
v -0.023340 0.003496 0.021425
v -0.018828 0.002533 0.019402
v -0.020401 0.000711 0.023101
v -0.020299 0.000304 0.023214
v -0.020194 -0.000338 0.023299
v -0.016758 -0.013795 0.019367
v -0.016758 -0.013630 0.019354
v -0.016758 -0.013156 0.019312
v -0.020082 -0.000968 0.023261
v -0.020784 -0.000326 0.023608
v -0.021004 0.000062 0.023690
v -0.021415 -0.019570 0.023500
v -0.022056 -0.020851 0.023442
v -0.022056 -0.021354 0.023213
v -0.022118 -0.021436 0.023166
v -0.021876 -0.021436 0.022916
v -0.021768 -0.021436 0.022714
v -0.021677 -0.021436 0.022499
v -0.021521 -0.021436 0.022064
v -0.022556 -0.021436 0.023341
v -0.025937 0.002926 0.023293
v -0.026277 0.002531 0.023467
v -0.025258 0.003242 0.023101
v -0.024619 0.003422 0.022705
v -0.023339 0.002227 0.023528
v -0.023979 0.002869 0.023381
v -0.025258 0.002869 0.023354
v -0.023979 0.003405 0.022705
v -0.023330 0.003276 0.022718
v -0.022949 0.003224 0.022513
v -0.023109 0.003163 0.022941
v -0.022243 0.002639 0.023125
v -0.021815 0.002484 0.022864
v -0.021131 0.001867 0.022946
v -0.020965 0.001440 0.023138
v -0.020761 0.000933 0.023242
v -0.020784 0.000287 0.023536
v -0.022040 0.002254 0.023245
v -0.022698 0.002227 0.023463
v -0.022301 -0.021436 0.023258
v -0.024619 0.003266 0.023124
v -0.023979 0.003259 0.023131
v -0.023330 0.002916 0.023258
v -0.023536 0.003219 0.023085
v -0.022698 0.002758 0.023218
v -0.021558 0.002057 0.023138
v -0.021374 0.001627 0.023247
f 1 2 23
f 1 23 41
f 1 41 40
f 1 40 24
f 1 24 3
f 1 3 25
f 1 25 4
f 1 4 5
f 1 5 26
f 1 26 6
f 1 6 29
f 1 29 7
f 1 7 8
f 1 8 9
f 1 9 10
f 1 10 2
f 2 10 11
f 2 11 12
f 2 12 13
f 2 13 14
f 2 14 15
f 2 15 16
f 2 16 17
f 2 17 18
f 2 18 19
f 2 19 20
f 2 20 21
f 2 21 22
f 2 22 23
f 3 24 25
f 4 25 50
f 4 50 80
f 4 80 79
f 4 79 78
f 4 78 77
f 4 77 76
f 4 76 123
f 4 123 122
f 4 122 121
f 4 121 81
f 4 81 51
f 4 51 26
f 4 26 5
f 6 26 27
f 6 27 28
f 6 28 29
f 7 29 56
f 7 56 95
f 7 95 140
f 7 140 139
f 7 139 138
f 7 138 178
f 7 178 177
f 7 177 176
f 7 176 175
f 7 175 174
f 7 174 199
f 7 199 179
f 7 179 141
f 7 141 100
f 7 100 99
f 7 99 98
f 7 98 64
f 7 64 63
f 7 63 97
f 7 97 96
f 7 96 59
f 7 59 57
f 7 57 30
f 7 30 31
f 7 31 8
f 8 31 9
f 9 11 10
f 9 31 11
f 11 32 12
f 11 31 33
f 11 33 32
f 12 32 13
f 13 32 14
f 14 32 34
f 14 34 35
f 14 35 15
f 15 17 16
f 15 35 36
f 15 36 17
f 17 19 18
f 17 36 37
f 17 37 19
f 19 38 39
f 19 39 21
f 19 21 20
f 19 37 38
f 21 39 22
f 22 40 41
f 22 41 23
f 22 39 42
f 22 42 43
f 22 43 44
f 22 44 40
f 24 40 68
f 24 68 45
f 24 45 25
f 25 45 46
f 25 46 47
f 25 47 48
f 25 48 49
f 25 49 50
f 26 51 75
f 26 75 52
f 26 52 28
f 26 28 27
f 28 53 29
f 28 52 75
f 28 75 54
f 28 54 83
f 28 83 125
f 28 125 167
f 28 167 166
f 28 166 165
f 28 165 126
f 28 126 84
f 28 84 55
f 28 55 53
f 29 53 56
f 30 57 33
f 30 33 31
f 32 33 58
f 32 58 34
f 33 57 59
f 33 59 58
f 34 58 60
f 34 60 35
f 35 61 36
f 35 60 61
f 36 61 62
f 36 62 63
f 36 63 64
f 36 64 65
f 36 65 37
f 37 65 38
f 38 66 39
f 38 65 67
f 38 67 66
f 39 66 42
f 40 44 68
f 42 66 69
f 42 69 70
f 42 70 43
f 43 70 44
f 44 70 71
f 44 71 68
f 45 68 72
f 45 72 73
f 45 73 46
f 46 73 47
f 47 73 48
f 48 73 49
f 49 73 74
f 49 74 75
f 49 75 76
f 49 76 77
f 49 77 78
f 49 78 79
f 49 79 80
f 49 80 50
f 51 81 75
f 53 82 56
f 53 55 82
f 54 75 83
f 55 84 85
f 55 85 86
f 55 86 87
f 55 87 88
f 55 88 89
f 55 89 90
f 55 90 91
f 55 91 92
f 55 92 93
f 55 93 94
f 55 94 82
f 56 82 95
f 58 59 96
f 58 96 60
f 60 96 97
f 60 97 61
f 61 97 62
f 62 97 63
f 64 98 65
f 65 98 99
f 65 99 100
f 65 100 67
f 66 67 101
f 66 101 69
f 67 100 102
f 67 102 103
f 67 103 104
f 67 104 101
f 68 71 70
f 68 70 105
f 68 105 106
f 68 106 107
f 68 107 108
f 68 108 109
f 68 109 110
f 68 110 72
f 69 101 111
f 69 111 70
f 70 111 105
f 72 110 112
f 72 112 113
f 72 113 114
f 72 114 73
f 73 114 115
f 73 115 116
f 73 116 117
f 73 117 118
f 73 118 119
f 73 119 120
f 73 120 74
f 74 120 75
f 75 81 121
f 75 121 122
f 75 122 123
f 75 123 76
f 75 120 119
f 75 119 118
f 75 118 117
f 75 117 161
f 75 161 124
f 75 124 125
f 75 125 83
f 82 94 95
f 84 126 124
f 84 124 85
f 85 124 127
f 85 127 128
f 85 128 86
f 86 129 87
f 86 128 129
f 87 130 88
f 87 129 130
f 88 130 131
f 88 131 132
f 88 132 89
f 89 132 133
f 89 133 91
f 89 91 90
f 91 133 134
f 91 134 135
f 91 135 92
f 92 135 136
f 92 136 93
f 93 136 137
f 93 137 138
f 93 138 139
f 93 139 140
f 93 140 94
f 94 140 95
f 100 141 102
f 101 104 145
f 101 145 111
f 102 141 142
f 102 142 103
f 103 143 145
f 103 145 104
f 103 142 144
f 103 144 170
f 103 170 143
f 105 111 146
f 105 146 106
f 106 146 107
f 107 146 111
f 107 111 147
f 107 147 108
f 108 148 109
f 108 147 149
f 108 149 148
f 109 150 151
f 109 151 152
f 109 152 112
f 109 112 110
f 109 148 150
f 111 145 143
f 111 143 153
f 111 153 170
f 111 170 154
f 111 154 155
f 111 155 149
f 111 149 147
f 112 152 156
f 112 156 157
f 112 157 113
f 113 157 114
f 114 157 156
f 114 156 158
f 114 158 115
f 115 158 159
f 115 159 160
f 115 160 116
f 116 160 161
f 116 161 117
f 124 161 162
f 124 162 163
f 124 163 164
f 124 164 127
f 124 126 165
f 124 165 166
f 124 166 167
f 124 167 125
f 127 164 168
f 127 168 128
f 128 168 164
f 128 164 169
f 128 169 129
f 129 142 130
f 129 169 170
f 129 170 144
f 129 144 142
f 130 142 131
f 131 133 132
f 131 142 171
f 131 171 141
f 131 141 172
f 131 172 134
f 131 134 133
f 134 172 173
f 134 173 135
f 135 173 174
f 135 174 175
f 135 175 176
f 135 176 136
f 136 176 177
f 136 177 178
f 136 178 138
f 136 138 137
f 141 179 172
f 141 171 142
f 143 170 153
f 148 149 150
f 149 155 150
f 150 180 151
f 150 155 181
f 150 181 180
f 151 180 182
f 151 182 183
f 151 183 152
f 152 183 156
f 154 170 155
f 155 184 185
f 155 185 186
f 155 186 181
f 155 170 184
f 156 183 187
f 156 187 158
f 158 187 159
f 159 187 188
f 159 188 189
f 159 189 161
f 159 161 160
f 161 189 190
f 161 190 191
f 161 191 192
f 161 192 193
f 161 193 194
f 161 194 162
f 162 194 195
f 162 195 163
f 163 195 196
f 163 196 164
f 164 196 170
f 164 170 169
f 170 196 197
f 170 197 198
f 170 198 184
f 172 179 199
f 172 199 173
f 173 199 174
f 180 181 186
f 180 186 200
f 180 200 182
f 182 200 183
f 183 200 201
f 183 201 187
f 184 198 185
f 185 202 201
f 185 201 200
f 185 200 186
f 185 198 202
f 187 201 203
f 187 203 188
f 188 203 190
f 188 190 189
f 190 203 204
f 190 204 191
f 191 197 205
f 191 205 193
f 191 193 192
f 191 204 197
f 193 205 194
f 194 205 206
f 194 206 196
f 194 196 195
f 196 206 197
f 197 204 198
f 197 206 205
f 198 204 202
f 201 202 203
f 202 204 203
