v -0.000924 -0.000946 0.009910
v -0.000264 -0.002672 0.002193
v -0.016837 -0.000966 0.004105
v -0.017348 -0.000966 0.004342
v -0.017557 -0.000966 0.004758
v -0.017672 -0.000966 0.005396
v -0.017896 -0.000966 0.010092
v -0.017903 -0.000966 0.010356
v -0.016755 -0.000966 0.010356
v -0.000223 -0.001001 0.009910
v -0.000264 -0.002964 0.001591
v 0.000381 -0.002745 0.002193
v 0.000381 -0.003010 0.001635
v -0.016923 -0.002935 0.001583
v -0.031147 -0.002952 0.001704
v -0.031147 -0.002670 0.002261
v -0.000898 -0.002964 0.001589
v -0.031147 -0.001377 0.009255
v -0.021489 -0.002683 0.010356
v 0.002834 -0.006525 0.011357
v 0.006162 -0.006525 0.011357
v 0.000381 -0.001071 0.009910
v 0.000985 -0.003602 0.001358
v 0.000422 -0.003602 0.001307
v -0.000264 -0.003545 0.001303
v 0.001018 -0.002879 0.002193
v 0.001667 -0.003176 0.001807
v 0.001018 -0.003088 0.001703
v -0.016755 -0.003547 0.001299
v -0.031147 -0.003488 0.001417
v -0.031241 -0.014550 0.001684
v -0.031241 -0.014246 0.002166
v -0.025019 -0.009563 0.010451
v -0.022514 -0.003735 0.010356
v -0.022324 -0.003429 0.010356
v -0.021970 -0.002994 0.010356
v -0.031241 -0.014213 0.002361
v -0.031241 -0.014147 0.002833
v -0.031241 -0.014120 0.003475
v -0.031241 -0.014108 0.004180
v -0.031241 -0.014134 0.007316
v -0.031241 -0.014152 0.007951
v -0.031241 -0.014183 0.008656
v -0.031241 -0.014220 0.009240
v -0.031241 -0.014263 0.009869
v -0.025019 -0.010747 0.010451
v 0.003531 -0.012032 0.011357
v 0.006681 -0.008687 0.011357
v 0.006483 -0.007673 0.009706
v 0.006483 -0.007680 0.009239
v 0.006379 -0.007358 0.009239
v 0.005939 -0.006141 0.009909
v 0.005805 -0.005847 0.009909
v 0.005611 -0.005472 0.009909
v 0.005305 -0.004910 0.009909
v 0.005100 -0.004616 0.009909
v 0.004731 -0.004202 0.009909
v 0.003561 -0.002940 0.009909
v 0.002893 -0.002295 0.009910
v 0.002252 -0.001825 0.009910
v 0.001667 -0.001502 0.009910
v 0.001018 -0.001229 0.009910
v 0.000701 -0.003855 0.001225
v 0.001667 -0.003545 0.001524
v 0.002301 -0.004187 0.001360
v 0.001984 -0.003225 0.001870
v 0.002241 -0.003540 0.001693
v -0.019174 -0.004487 0.001224
v -0.030387 -0.004187 0.001372
v -0.031024 -0.015079 0.001401
v -0.031241 -0.015079 0.001426
v -0.031241 -0.017739 0.009869
v -0.022033 -0.015750 0.010451
v -0.021474 -0.016405 0.010451
v -0.020766 -0.016788 0.010451
v -0.018019 -0.017739 0.010451
v -0.003511 -0.018709 0.010625
v 0.006461 -0.011990 0.011357
v 0.006725 -0.008894 0.011357
v 0.006572 -0.008033 0.009239
v 0.006476 -0.007706 0.008907
v 0.006062 -0.007390 0.002833
v 0.005887 -0.006937 0.002833
v 0.005745 -0.006619 0.002833
v 0.005469 -0.006110 0.002833
v 0.005230 -0.005726 0.002833
v 0.005014 -0.005406 0.002833
v 0.004694 -0.004962 0.002833
v 0.004422 -0.004642 0.002833
v 0.004101 -0.004343 0.002833
v 0.004045 -0.004390 0.002193
v 0.003322 -0.003835 0.002388
v 0.002998 -0.003696 0.002176
v 0.002364 -0.003345 0.002193
v 0.000713 -0.015405 0.001220
v 0.004228 -0.006110 0.001380
v 0.005510 -0.009314 0.001326
v 0.005510 -0.009951 0.001322
v 0.002986 -0.004140 0.001591
v 0.003587 -0.004830 0.001467
v 0.003225 -0.003895 0.001961
v 0.003001 -0.003818 0.001849
v 0.002796 -0.003748 0.001748
v -0.018544 -0.015409 0.001226
v -0.030387 -0.015079 0.001370
v -0.031241 -0.015720 0.001445
v -0.031241 -0.017739 0.009564
v -0.016755 -0.018704 0.009934
v -0.016755 -0.018704 0.004147
v -0.002821 -0.018709 0.010547
v -0.002385 -0.018709 0.010576
v 0.003903 -0.016037 0.009953
v 0.004202 -0.015731 0.009953
v 0.004530 -0.015381 0.009953
v 0.005096 -0.014712 0.009953
v 0.005365 -0.014359 0.009953
v 0.005644 -0.013960 0.009953
v 0.005887 -0.013574 0.009953
v 0.006062 -0.013213 0.009953
v 0.006311 -0.012585 0.009953
v 0.006476 -0.012199 0.009570
v 0.006707 -0.011237 0.011357
v 0.002468 -0.017276 0.009953
v 0.002904 -0.016958 0.009953
v 0.003244 -0.016664 0.009953
v 0.003564 -0.016365 0.009953
v 0.006800 -0.009314 0.011357
v 0.006692 -0.008673 0.009239
v 0.006476 -0.008975 0.002492
v 0.006259 -0.008033 0.002833
v 0.006170 -0.008033 0.002193
v 0.005860 -0.006997 0.002392
v 0.005346 -0.006073 0.002193
v 0.005208 -0.005757 0.002406
v 0.004645 -0.005025 0.002193
v 0.004366 -0.004703 0.002193
v 0.003959 -0.004463 0.001824
v 0.003557 -0.004046 0.002182
v 0.000996 -0.015671 0.001326
v 0.000422 -0.015671 0.001299
v -0.015637 -0.015718 0.001305
v 0.004869 -0.012517 0.001364
v 0.004228 -0.013800 0.001393
v 0.003587 -0.014440 0.001406
v 0.002945 -0.015082 0.001443
v 0.004228 -0.005470 0.001477
v 0.004869 -0.006751 0.001416
v 0.005510 -0.008673 0.001365
v 0.006099 -0.009314 0.001631
v 0.006099 -0.009951 0.001633
v 0.005510 -0.010592 0.001345
v 0.003587 -0.004334 0.001719
v 0.004194 -0.004868 0.001725
v -0.016923 -0.015720 0.001311
v -0.016759 -0.015880 0.001383
v -0.016278 -0.016332 0.001591
v -0.016841 -0.016329 0.001595
v -0.031241 -0.016193 0.001706
v -0.031241 -0.016423 0.002190
v -0.000898 -0.016713 0.001821
v -0.000257 -0.016706 0.001832
v -0.016498 -0.018704 0.004166
v -0.016278 -0.018704 0.004188
v 0.000135 -0.016692 0.001857
v 0.000556 -0.016664 0.002000
v 0.000381 -0.018090 0.009953
v 0.001093 -0.017913 0.009953
v 0.001663 -0.017711 0.009953
v 0.004526 -0.014732 0.002831
v 0.004768 -0.014411 0.002831
v 0.005089 -0.013964 0.002831
v 0.005298 -0.013644 0.002831
v 0.005793 -0.012754 0.002831
v 0.006054 -0.013159 0.009239
v 0.005577 -0.013159 0.002831
v 0.006353 -0.012528 0.009239
v 0.006476 -0.012206 0.009239
v 0.006789 -0.010782 0.011357
v 0.006476 -0.012208 0.008895
v 0.002658 -0.016061 0.002431
v 0.003452 -0.015531 0.002190
v 0.003840 -0.015346 0.002831
v 0.004202 -0.015026 0.002831
v 0.006841 -0.009951 0.011357
v 0.006755 -0.009314 0.009239
v 0.006494 -0.009314 0.002403
v 0.006420 -0.009314 0.002086
v 0.006360 -0.008725 0.002243
v 0.005883 -0.007569 0.001809
v 0.005801 -0.007144 0.001965
v 0.005946 -0.007369 0.002185
v 0.005700 -0.006769 0.002185
v 0.005163 -0.005835 0.001980
v 0.004992 -0.005513 0.002193
v 0.004586 -0.005110 0.001836
v 0.001667 -0.015722 0.001455
v 0.001026 -0.016283 0.001657
v -0.000257 -0.016363 0.001558
v 0.004869 -0.013159 0.001481
v 0.005510 -0.011234 0.001403
v 0.004243 -0.014458 0.001635
v 0.003572 -0.015082 0.001661
v 0.002945 -0.015579 0.001706
v 0.002323 -0.015765 0.001643
v 0.004712 -0.005470 0.001733
v 0.004917 -0.006073 0.001614
v 0.005391 -0.006751 0.001697
v 0.005510 -0.008033 0.001462
v 0.006047 -0.008673 0.001662
v 0.006420 -0.009951 0.002056
v 0.006051 -0.010592 0.001653
v 0.000362 -0.016416 0.001659
v 0.001667 -0.016176 0.001722
v 0.000985 -0.016596 0.002205
v 0.002114 -0.016092 0.001803
v 0.001667 -0.016390 0.002190
v 0.002323 -0.016151 0.002206
v 0.004481 -0.014689 0.002190
v 0.004727 -0.014367 0.002190
v 0.005048 -0.013887 0.002190
v 0.005249 -0.013566 0.002190
v 0.005745 -0.012648 0.002190
v 0.005939 -0.012434 0.002831
v 0.005477 -0.013159 0.002190
v 0.006815 -0.010592 0.011357
v 0.006658 -0.011234 0.009239
v 0.006487 -0.010349 0.002454
v 0.006114 -0.011954 0.002833
v 0.006319 -0.011234 0.002833
v 0.002547 -0.016007 0.002004
v 0.002904 -0.015868 0.002206
v 0.003341 -0.015461 0.001801
v 0.003769 -0.015292 0.002190
v 0.004161 -0.014974 0.002190
v 0.006766 -0.009951 0.009239
v 0.006520 -0.009951 0.002833
v 0.006502 -0.009951 0.002375
v 0.005957 -0.008033 0.001734
v 0.005275 -0.006261 0.001776
v 0.004865 -0.013745 0.001690
v 0.005510 -0.011954 0.001542
v 0.005521 -0.012469 0.001685
v 0.005290 -0.013159 0.001766
v 0.005983 -0.011234 0.001698
v 0.004045 -0.014868 0.001762
v 0.004645 -0.014254 0.001766
v 0.006379 -0.010573 0.002222
v 0.005201 -0.013494 0.001856
v 0.005842 -0.012222 0.001856
v 0.005890 -0.012328 0.002190
v 0.006733 -0.010592 0.009239
v 0.006226 -0.011234 0.002193
v 0.006024 -0.011954 0.002192
v 0.005883 -0.011954 0.001804
f 1 2 3
f 1 3 4
f 1 4 5
f 1 5 6
f 1 6 7
f 1 7 8
f 1 8 9
f 1 9 10
f 1 10 2
f 2 11 3
f 2 10 12
f 2 12 13
f 2 13 11
f 3 14 15
f 3 15 16
f 3 16 4
f 3 11 17
f 3 17 14
f 4 16 18
f 4 18 5
f 5 18 6
f 6 18 7
f 7 18 8
f 8 18 19
f 8 19 20
f 8 20 21
f 8 21 9
f 9 21 10
f 10 22 12
f 10 21 22
f 11 13 23
f 11 23 24
f 11 24 25
f 11 25 17
f 12 22 26
f 12 26 27
f 12 27 28
f 12 28 13
f 13 28 23
f 14 17 25
f 14 25 29
f 14 29 30
f 14 30 15
f 15 30 31
f 15 31 32
f 15 32 16
f 16 32 18
f 18 33 34
f 18 34 35
f 18 35 36
f 18 36 19
f 18 32 37
f 18 37 38
f 18 38 39
f 18 39 40
f 18 40 41
f 18 41 42
f 18 42 43
f 18 43 44
f 18 44 45
f 18 45 33
f 19 36 20
f 20 36 33
f 20 33 46
f 20 46 47
f 20 47 78
f 20 78 122
f 20 122 178
f 20 178 225
f 20 225 184
f 20 184 127
f 20 127 79
f 20 79 48
f 20 48 21
f 21 48 49
f 21 49 50
f 21 50 51
f 21 51 52
f 21 52 53
f 21 53 54
f 21 54 55
f 21 55 56
f 21 56 57
f 21 57 58
f 21 58 59
f 21 59 60
f 21 60 61
f 21 61 62
f 21 62 22
f 22 62 26
f 23 63 24
f 23 28 64
f 23 64 65
f 23 65 63
f 24 63 25
f 25 63 29
f 26 62 66
f 26 66 27
f 27 66 67
f 27 67 64
f 27 64 28
f 29 63 68
f 29 68 30
f 30 68 69
f 30 69 70
f 30 70 71
f 30 71 31
f 31 71 106
f 31 106 158
f 31 158 159
f 31 159 107
f 31 107 72
f 31 72 45
f 31 45 44
f 31 44 43
f 31 43 42
f 31 42 41
f 31 41 40
f 31 40 39
f 31 39 38
f 31 38 37
f 31 37 32
f 33 36 35
f 33 35 34
f 33 45 72
f 33 72 46
f 46 72 73
f 46 73 47
f 47 73 74
f 47 74 75
f 47 75 76
f 47 76 77
f 47 77 78
f 48 79 80
f 48 80 49
f 49 80 50
f 50 81 51
f 50 80 81
f 51 81 82
f 51 82 83
f 51 83 52
f 52 83 84
f 52 84 53
f 53 84 54
f 54 85 55
f 54 84 85
f 55 85 86
f 55 86 87
f 55 87 56
f 56 87 88
f 56 88 89
f 56 89 57
f 57 89 58
f 58 89 59
f 59 89 90
f 59 90 91
f 59 91 60
f 60 91 92
f 60 92 61
f 61 92 93
f 61 93 94
f 61 94 66
f 61 66 62
f 63 95 68
f 63 65 96
f 63 96 97
f 63 97 98
f 63 98 95
f 64 67 65
f 65 67 99
f 65 99 100
f 65 100 96
f 66 94 93
f 66 93 101
f 66 101 102
f 66 102 103
f 66 103 67
f 67 103 99
f 68 104 105
f 68 105 69
f 68 95 104
f 69 105 70
f 70 105 106
f 70 106 71
f 72 107 109
f 72 109 108
f 72 108 77
f 72 77 76
f 72 76 75
f 72 75 74
f 72 74 73
f 77 108 109
f 77 109 110
f 77 110 111
f 77 111 78
f 78 112 113
f 78 113 114
f 78 114 115
f 78 115 116
f 78 116 117
f 78 117 118
f 78 118 119
f 78 119 120
f 78 120 121
f 78 121 122
f 78 111 123
f 78 123 124
f 78 124 125
f 78 125 126
f 78 126 112
f 79 127 128
f 79 128 80
f 80 128 129
f 80 129 81
f 81 129 130
f 81 130 82
f 82 130 131
f 82 131 132
f 82 132 83
f 83 132 84
f 84 132 133
f 84 133 85
f 85 133 134
f 85 134 86
f 86 134 87
f 87 134 88
f 88 135 89
f 88 134 135
f 89 136 91
f 89 91 90
f 89 135 136
f 91 137 138
f 91 138 92
f 91 136 137
f 92 138 101
f 92 101 93
f 95 139 140
f 95 140 141
f 95 141 104
f 95 98 142
f 95 142 143
f 95 143 144
f 95 144 145
f 95 145 139
f 96 146 147
f 96 147 148
f 96 148 97
f 96 100 146
f 97 148 149
f 97 149 98
f 98 149 150
f 98 150 151
f 98 151 142
f 99 103 152
f 99 152 100
f 100 152 137
f 100 137 153
f 100 153 146
f 101 138 137
f 101 137 102
f 102 137 103
f 103 137 152
f 104 141 154
f 104 154 106
f 104 106 105
f 106 154 155
f 106 155 156
f 106 156 157
f 106 157 158
f 107 159 109
f 109 157 156
f 109 156 160
f 109 160 161
f 109 161 162
f 109 162 111
f 109 111 110
f 109 159 158
f 109 158 157
f 111 162 163
f 111 163 164
f 111 164 165
f 111 165 166
f 111 166 167
f 111 167 168
f 111 168 123
f 112 169 113
f 112 126 169
f 113 169 114
f 114 169 115
f 115 169 116
f 116 169 170
f 116 170 171
f 116 171 117
f 117 171 172
f 117 172 118
f 118 173 174
f 118 174 119
f 118 172 175
f 118 175 173
f 119 174 176
f 119 176 121
f 119 121 120
f 121 176 177
f 121 177 122
f 122 177 179
f 122 179 178
f 123 168 180
f 123 180 181
f 123 181 182
f 123 182 124
f 124 182 125
f 125 182 183
f 125 183 169
f 125 169 126
f 127 184 185
f 127 185 128
f 128 185 129
f 129 185 186
f 129 186 187
f 129 187 188
f 129 188 131
f 129 131 130
f 131 189 190
f 131 190 191
f 131 191 132
f 131 188 189
f 132 190 192
f 132 192 133
f 132 191 190
f 133 193 134
f 133 192 193
f 134 193 194
f 134 194 135
f 135 195 136
f 135 194 193
f 135 193 195
f 136 195 137
f 137 195 153
f 139 196 197
f 139 197 198
f 139 198 140
f 139 145 196
f 140 198 141
f 141 155 154
f 141 198 155
f 142 199 143
f 142 151 200
f 142 200 199
f 143 199 201
f 143 201 144
f 144 201 145
f 145 201 202
f 145 202 203
f 145 203 204
f 145 204 196
f 146 153 205
f 146 205 206
f 146 206 147
f 147 206 207
f 147 207 208
f 147 208 148
f 148 208 209
f 148 209 149
f 149 209 187
f 149 187 210
f 149 210 150
f 150 211 151
f 150 210 211
f 151 211 200
f 153 195 205
f 155 198 156
f 156 198 160
f 160 198 161
f 161 198 164
f 161 164 163
f 161 163 162
f 164 198 212
f 164 212 197
f 164 197 213
f 164 213 165
f 165 214 166
f 165 213 215
f 165 215 216
f 165 216 214
f 166 214 167
f 167 214 216
f 167 216 168
f 168 216 217
f 168 217 180
f 169 183 218
f 169 218 219
f 169 219 170
f 170 219 171
f 171 220 172
f 171 219 220
f 172 220 221
f 172 221 175
f 173 222 250
f 173 250 223
f 173 223 179
f 173 179 176
f 173 176 174
f 173 175 224
f 173 224 222
f 175 221 224
f 176 179 177
f 178 179 226
f 178 226 225
f 179 227 226
f 179 223 228
f 179 228 229
f 179 229 227
f 180 217 230
f 180 230 231
f 180 231 181
f 181 231 232
f 181 232 233
f 181 233 182
f 182 234 183
f 182 233 234
f 183 234 218
f 184 225 235
f 184 235 185
f 185 235 186
f 186 235 236
f 186 236 237
f 186 237 187
f 187 209 238
f 187 238 188
f 187 237 210
f 188 238 189
f 189 238 207
f 189 207 239
f 189 239 190
f 190 239 193
f 190 193 192
f 193 239 195
f 195 239 205
f 196 213 197
f 196 204 213
f 197 212 198
f 199 240 201
f 199 200 241
f 199 241 242
f 199 242 243
f 199 243 240
f 200 211 244
f 200 244 241
f 201 245 202
f 201 240 246
f 201 246 245
f 202 232 203
f 202 245 232
f 203 232 215
f 203 215 213
f 203 213 204
f 205 239 206
f 206 239 207
f 207 238 208
f 208 238 209
f 210 237 227
f 210 227 247
f 210 247 244
f 210 244 211
f 215 232 230
f 215 230 216
f 216 230 217
f 218 246 219
f 218 234 245
f 218 245 246
f 219 246 248
f 219 248 220
f 220 248 221
f 221 248 224
f 222 249 250
f 222 224 248
f 222 248 249
f 223 250 228
f 225 226 251
f 225 251 227
f 225 227 235
f 226 227 251
f 227 229 252
f 227 252 247
f 227 237 236
f 227 236 235
f 228 250 253
f 228 253 229
f 229 253 252
f 230 232 231
f 232 245 234
f 232 234 233
f 240 243 248
f 240 248 246
f 241 244 254
f 241 254 242
f 242 254 249
f 242 249 243
f 243 249 248
f 244 247 252
f 244 252 254
f 249 254 252
f 249 252 253
f 249 253 250
