v 0.000379 -0.024624 -0.000685
v 0.014477 -0.023417 -0.000561
v 0.014155 -0.024378 -0.000580
v 0.013680 -0.025675 -0.000172
v -0.015003 -0.025003 -0.000564
v -0.045772 -0.024698 -0.000514
v -0.047536 -0.023738 -0.000526
v -0.047694 -0.021938 -0.000485
v 0.014774 -0.022156 -0.000407
v 0.015286 -0.023738 -0.000056
v 0.014882 -0.025248 -0.000056
v 0.012878 -0.026018 0.000155
v -0.013081 -0.025753 -0.000151
v 0.014724 -0.025912 0.000913
v -0.046733 -0.024837 -0.000419
v -0.047935 -0.024698 -0.000269
v -0.048542 -0.023716 -0.000103
v -0.048554 -0.022776 -0.000108
v -0.048674 -0.021988 0.000096
v -0.040885 -0.016511 0.011823
v -0.036498 -0.016509 0.010221
v -0.016836 -0.017745 0.004178
v -0.002390 -0.018711 0.010522
v 0.015432 -0.022156 0.000274
v 0.015634 -0.023738 0.000913
v 0.015470 -0.024816 0.000540
v 0.013516 -0.026204 0.001235
v -0.015648 -0.026012 0.000913
v -0.019643 -0.025813 0.000072
v -0.045450 -0.025463 -0.000037
v 0.015489 -0.024993 0.001556
v 0.015242 -0.025397 0.002197
v 0.014711 -0.025904 0.001876
v 0.013839 -0.026177 0.002197
v -0.046733 -0.025472 0.000082
v -0.047840 -0.025304 0.000205
v -0.048617 -0.024630 0.000343
v -0.048940 -0.023738 0.000913
v -0.048927 -0.021963 0.001285
v -0.041132 -0.016509 0.012689
v -0.031225 -0.016509 0.010221
v -0.002390 -0.018711 0.019431
v 0.007877 -0.020222 0.012349
v 0.015558 -0.022156 0.001238
v 0.015571 -0.024059 0.001876
v 0.015482 -0.022156 0.002415
v 0.009988 -0.026079 0.011481
v 0.002617 -0.026024 0.016927
v -0.001866 -0.026011 0.017566
v -0.019479 -0.025996 0.001556
v -0.046733 -0.025797 0.001556
v -0.046095 -0.025761 0.000803
v 0.015463 -0.024788 0.002560
v 0.014875 -0.024955 0.004857
v 0.014812 -0.025595 0.003611
v 0.014673 -0.025837 0.002844
v 0.013839 -0.026023 0.004760
v 0.013839 -0.026126 0.003160
v 0.013200 -0.026102 0.005721
v -0.047416 -0.025682 0.000825
v -0.047770 -0.025677 0.001556
v -0.048535 -0.025098 0.001264
v -0.048940 -0.023738 0.001876
v -0.048542 -0.025095 0.002156
v -0.048801 -0.021938 0.002569
v -0.040873 -0.016634 0.015810
v -0.037099 -0.016509 0.018012
v -0.031440 -0.016509 0.019393
v -0.004186 -0.018711 0.023131
v 0.007725 -0.020222 0.015710
v 0.015400 -0.023738 0.003077
v 0.015204 -0.022156 0.004138
v 0.015331 -0.022466 0.003478
v 0.009350 -0.025935 0.013080
v 0.009350 -0.026068 0.012122
v 0.012555 -0.026075 0.007325
v 0.010633 -0.026057 0.010845
v 0.005184 -0.026009 0.015646
v 0.003584 -0.025889 0.017198
v 0.002301 -0.025852 0.017798
v -0.001227 -0.025988 0.018211
v -0.032787 -0.025746 0.018366
v -0.036157 -0.025736 0.016927
v -0.037440 -0.025722 0.016284
v -0.042561 -0.025638 0.012926
v -0.043756 -0.025615 0.011443
v -0.045134 -0.025586 0.009250
v 0.015210 -0.024378 0.003957
v 0.014597 -0.024378 0.006041
v 0.014205 -0.024974 0.006803
v 0.014047 -0.025787 0.005711
v 0.014382 -0.025812 0.004437
v 0.013447 -0.025774 0.007207
v 0.012789 -0.025874 0.008094
v -0.047612 -0.025555 0.003718
v -0.048263 -0.025228 0.003158
v -0.048655 -0.024687 0.003146
v -0.048820 -0.023738 0.002840
v -0.048560 -0.021938 0.004005
v -0.048383 -0.021938 0.004760
v -0.048112 -0.021938 0.005718
v -0.047751 -0.022037 0.006782
v -0.046816 -0.021963 0.008884
v -0.046006 -0.021938 0.010387
v -0.045456 -0.021988 0.011222
v -0.044913 -0.021938 0.011929
v -0.044198 -0.021938 0.012786
v -0.043326 -0.021938 0.013707
v -0.042270 -0.021938 0.014706
v -0.042289 -0.023417 0.014725
v -0.041132 -0.019253 0.015636
v -0.040816 -0.017650 0.015867
v -0.039836 -0.016634 0.016541
v -0.038363 -0.016634 0.017400
v -0.027192 -0.021435 0.023233
v -0.035897 -0.016509 0.018489
v -0.032376 -0.016509 0.019346
v -0.012442 -0.018711 0.023554
v -0.004831 -0.019154 0.023551
v 0.006296 -0.020222 0.016697
v 0.007017 -0.020222 0.016220
v 0.007320 -0.022466 0.016014
v 0.007984 -0.022777 0.015506
v 0.008294 -0.022156 0.015269
v 0.008844 -0.022466 0.014801
v 0.009514 -0.022156 0.014196
v 0.010235 -0.022156 0.013467
v 0.011265 -0.022156 0.012276
v 0.012359 -0.022156 0.010814
v 0.012909 -0.022156 0.009945
v 0.013295 -0.022156 0.009252
v 0.013782 -0.022156 0.008258
v 0.014332 -0.022156 0.006943
v 0.014660 -0.022156 0.006041
v 0.014977 -0.022466 0.005059
v 0.015002 -0.023738 0.004897
v 0.011379 -0.025821 0.010880
v 0.009571 -0.025538 0.013686
v 0.008705 -0.025889 0.013724
v 0.006783 -0.025927 0.015005
v 0.007428 -0.025963 0.014364
v 0.011917 -0.025980 0.009252
v 0.003072 -0.025708 0.017834
v 0.006233 -0.025794 0.015843
v 0.005588 -0.025682 0.016529
v 0.001182 -0.025676 0.018553
v 0.000214 -0.025854 0.018385
v -0.001208 -0.025765 0.018947
v -0.017551 -0.025851 0.018480
v -0.031529 -0.025623 0.018831
v -0.033931 -0.025537 0.018544
v -0.036384 -0.025686 0.017324
v -0.037080 -0.025682 0.016956
v -0.042023 -0.025633 0.013512
v -0.043168 -0.025602 0.012416
v -0.044495 -0.025572 0.010524
v -0.045772 -0.025507 0.008607
v 0.014306 -0.023738 0.006969
v 0.013845 -0.024378 0.007966
v 0.014768 -0.023097 0.005733
v 0.013541 -0.025063 0.008334
v 0.012890 -0.025373 0.009262
v 0.012448 -0.025775 0.009252
v -0.047460 -0.025264 0.005723
v -0.048282 -0.024883 0.004283
v -0.048409 -0.024058 0.004760
v -0.048617 -0.023738 0.003905
v -0.048124 -0.023417 0.005730
v -0.047796 -0.023097 0.006682
v -0.047467 -0.023417 0.007501
v -0.047334 -0.022420 0.007805
v -0.046841 -0.023097 0.008842
v -0.046089 -0.023097 0.010270
v -0.045526 -0.023097 0.011113
v -0.044786 -0.023738 0.012086
v -0.043775 -0.024058 0.013303
v -0.043130 -0.024058 0.013968
v -0.042453 -0.024159 0.014583
v -0.041669 -0.023738 0.015240
v -0.040829 -0.021936 0.015874
v -0.040588 -0.020536 0.016045
v -0.040026 -0.020213 0.016424
v -0.039621 -0.023417 0.016692
v -0.038704 -0.023738 0.017238
v -0.038521 -0.017650 0.017324
v -0.033280 -0.016509 0.019218
v -0.034582 -0.016509 0.018916
v -0.037440 -0.024058 0.017889
v -0.037155 -0.024775 0.017910
v -0.036416 -0.025185 0.018029
v -0.035063 -0.025102 0.018584
v -0.033362 -0.025054 0.019192
v -0.026218 -0.021706 0.023395
v -0.005393 -0.020215 0.023561
v 0.003717 -0.025140 0.017886
v 0.005259 -0.024790 0.017215
v 0.006290 -0.024059 0.016688
v 0.006707 -0.021821 0.016431
v 0.007396 -0.023738 0.015940
v 0.008136 -0.023738 0.015378
v 0.008920 -0.023738 0.014725
v 0.009672 -0.024592 0.014044
v 0.010342 -0.024871 0.013427
v 0.010861 -0.024378 0.012826
v 0.012467 -0.024059 0.010736
v 0.012878 -0.024378 0.010045
v 0.013377 -0.024378 0.009043
v 0.010994 -0.025461 0.012117
v 0.012365 -0.025530 0.009938
v 0.008553 -0.025186 0.014803
v 0.007731 -0.025345 0.015311
v 0.006916 -0.025480 0.015822
v 0.006966 -0.025722 0.015506
v 0.008085 -0.025818 0.014395
v 0.004526 -0.025455 0.017319
v 0.001846 -0.025227 0.018608
v 0.006100 -0.024937 0.016678
v -0.006702 -0.021752 0.023293
v -0.007461 -0.021781 0.023473
v -0.002068 -0.025663 0.019175
v -0.023974 -0.022071 0.023262
v -0.032306 -0.025458 0.018973
v -0.008592 -0.022451 0.023008
v -0.037699 -0.025202 0.017414
v -0.039008 -0.025333 0.016496
v -0.039748 -0.025556 0.015693
v -0.041284 -0.025577 0.014364
v -0.043301 -0.025091 0.013410
v -0.044078 -0.025198 0.012364
v -0.044590 -0.025234 0.011509
v -0.045134 -0.025485 0.009884
v -0.045861 -0.025234 0.009430
v -0.046550 -0.025134 0.008334
v 0.012309 -0.025052 0.010612
v -0.047233 -0.025094 0.006851
v -0.048067 -0.024353 0.005645
v -0.047764 -0.024058 0.006682
v -0.047410 -0.024305 0.007422
v -0.046613 -0.024305 0.009136
v -0.046120 -0.024411 0.009993
v -0.045488 -0.024302 0.011056
v -0.044009 -0.024690 0.012912
v -0.042706 -0.024993 0.014023
v -0.041499 -0.024698 0.015254
v -0.040588 -0.023738 0.016042
v -0.039526 -0.024316 0.016697
v -0.038489 -0.024825 0.017224
v 0.007327 -0.024787 0.015893
v 0.008085 -0.024698 0.015337
v 0.008812 -0.024698 0.014765
v -0.040000 -0.025155 0.016094
v -0.041271 -0.025270 0.015017
v -0.040639 -0.025539 0.015005
v -0.041935 -0.025141 0.014592
v -0.045393 -0.025080 0.010634
v -0.040816 -0.025048 0.015579
f 1 2 3
f 1 3 4
f 1 4 5
f 1 5 6
f 1 6 7
f 1 7 8
f 1 8 2
f 2 8 9
f 2 9 10
f 2 10 11
f 2 11 3
f 3 11 4
f 4 12 13
f 4 13 5
f 4 11 14
f 4 14 12
f 5 13 6
f 6 15 7
f 6 13 15
f 7 16 17
f 7 17 8
f 7 15 16
f 8 17 18
f 8 18 19
f 8 19 20
f 8 20 21
f 8 21 22
f 8 22 9
f 9 22 23
f 9 23 24
f 9 24 10
f 10 24 25
f 10 25 26
f 10 26 11
f 11 26 14
f 12 14 27
f 12 27 28
f 12 28 29
f 12 29 13
f 13 29 30
f 13 30 15
f 14 26 31
f 14 31 32
f 14 32 33
f 14 33 34
f 14 34 27
f 15 30 35
f 15 35 16
f 16 35 36
f 16 36 37
f 16 37 17
f 17 37 38
f 17 38 19
f 17 19 18
f 19 38 39
f 19 39 40
f 19 40 20
f 20 40 21
f 21 40 67
f 21 67 116
f 21 116 187
f 21 187 186
f 21 186 117
f 21 117 68
f 21 68 41
f 21 41 22
f 22 41 23
f 23 41 42
f 23 42 43
f 23 43 24
f 24 44 25
f 24 43 44
f 25 45 31
f 25 31 26
f 25 44 46
f 25 46 45
f 27 34 47
f 27 47 48
f 27 48 49
f 27 49 50
f 27 50 28
f 28 50 51
f 28 51 52
f 28 52 29
f 29 52 30
f 30 52 35
f 31 45 53
f 31 53 32
f 32 53 54
f 32 54 55
f 32 55 56
f 32 56 33
f 33 56 57
f 33 57 58
f 33 58 34
f 34 58 59
f 34 59 47
f 35 60 36
f 35 52 60
f 36 61 62
f 36 62 37
f 36 60 61
f 37 62 38
f 38 63 39
f 38 62 64
f 38 64 63
f 39 63 65
f 39 65 40
f 40 66 67
f 40 65 66
f 41 68 42
f 42 69 70
f 42 70 43
f 42 68 69
f 43 70 44
f 44 70 46
f 45 46 71
f 45 71 53
f 46 70 72
f 46 72 73
f 46 73 71
f 47 74 75
f 47 75 48
f 47 59 76
f 47 76 77
f 47 77 74
f 48 78 79
f 48 79 80
f 48 80 81
f 48 81 49
f 48 75 78
f 49 81 82
f 49 82 83
f 49 83 51
f 49 51 50
f 51 83 84
f 51 84 85
f 51 85 86
f 51 86 87
f 51 87 61
f 51 61 60
f 51 60 52
f 53 71 88
f 53 88 54
f 54 88 89
f 54 89 90
f 54 90 91
f 54 91 55
f 55 91 92
f 55 92 56
f 56 92 57
f 57 92 91
f 57 91 93
f 57 93 94
f 57 94 59
f 57 59 58
f 59 94 76
f 61 95 96
f 61 96 64
f 61 64 62
f 61 87 95
f 63 64 97
f 63 97 98
f 63 98 65
f 64 96 97
f 65 98 99
f 65 99 66
f 66 99 100
f 66 100 101
f 66 101 102
f 66 102 103
f 66 103 104
f 66 104 105
f 66 105 106
f 66 106 107
f 66 107 108
f 66 108 109
f 66 109 110
f 66 110 111
f 66 111 112
f 66 112 113
f 66 113 67
f 67 114 115
f 67 115 116
f 67 113 114
f 68 117 118
f 68 118 69
f 69 118 119
f 69 119 120
f 69 120 121
f 69 121 70
f 70 121 122
f 70 122 123
f 70 123 124
f 70 124 125
f 70 125 126
f 70 126 127
f 70 127 128
f 70 128 129
f 70 129 130
f 70 130 131
f 70 131 132
f 70 132 133
f 70 133 134
f 70 134 72
f 71 73 72
f 71 72 88
f 72 135 136
f 72 136 88
f 72 134 135
f 74 77 137
f 74 137 138
f 74 138 139
f 74 139 140
f 74 140 141
f 74 141 75
f 75 141 78
f 76 94 142
f 76 142 77
f 77 142 137
f 78 141 140
f 78 140 79
f 79 143 80
f 79 140 144
f 79 144 145
f 79 145 143
f 80 146 147
f 80 147 81
f 80 143 146
f 81 147 148
f 81 148 149
f 81 149 82
f 82 150 151
f 82 151 152
f 82 152 83
f 82 149 150
f 83 152 153
f 83 153 84
f 84 153 154
f 84 154 85
f 85 155 86
f 85 154 155
f 86 155 156
f 86 156 87
f 87 156 157
f 87 157 95
f 88 136 89
f 89 158 159
f 89 159 90
f 89 136 160
f 89 160 158
f 90 159 161
f 90 161 91
f 91 161 93
f 93 161 162
f 93 162 163
f 93 163 94
f 94 163 142
f 95 164 96
f 95 157 164
f 96 164 165
f 96 165 97
f 97 165 166
f 97 166 167
f 97 167 98
f 98 167 99
f 99 167 100
f 100 167 166
f 100 166 101
f 101 166 168
f 101 168 102
f 102 168 169
f 102 169 170
f 102 170 171
f 102 171 103
f 103 171 172
f 103 172 173
f 103 173 104
f 104 173 105
f 105 173 174
f 105 174 175
f 105 175 106
f 106 175 176
f 106 176 107
f 107 176 108
f 108 176 177
f 108 177 109
f 109 177 110
f 110 177 178
f 110 178 179
f 110 179 111
f 111 180 112
f 111 179 180
f 112 180 181
f 112 181 113
f 113 181 182
f 113 182 183
f 113 183 184
f 113 184 185
f 113 185 114
f 114 185 115
f 115 117 186
f 115 186 187
f 115 187 116
f 115 185 184
f 115 184 188
f 115 188 189
f 115 189 190
f 115 190 191
f 115 191 192
f 115 192 193
f 115 193 118
f 115 118 117
f 118 193 194
f 118 194 119
f 119 194 195
f 119 195 196
f 119 196 197
f 119 197 120
f 120 197 198
f 120 198 121
f 121 198 122
f 122 198 197
f 122 197 199
f 122 199 123
f 123 200 124
f 123 199 200
f 124 200 201
f 124 201 125
f 125 201 202
f 125 202 126
f 126 202 203
f 126 203 127
f 127 203 204
f 127 204 128
f 128 204 205
f 128 205 129
f 129 205 130
f 130 206 131
f 130 205 206
f 131 206 207
f 131 207 132
f 132 207 158
f 132 158 133
f 133 158 160
f 133 160 134
f 134 160 135
f 135 160 136
f 137 208 138
f 137 142 163
f 137 163 209
f 137 209 208
f 138 210 211
f 138 211 212
f 138 212 213
f 138 213 214
f 138 214 139
f 138 208 203
f 138 203 210
f 139 214 144
f 139 144 140
f 143 145 215
f 143 215 195
f 143 195 216
f 143 216 146
f 144 214 213
f 144 213 145
f 145 213 212
f 145 212 217
f 145 217 215
f 146 216 218
f 146 218 219
f 146 219 148
f 146 148 147
f 148 219 220
f 148 220 150
f 148 150 149
f 150 221 222
f 150 222 151
f 150 220 223
f 150 223 221
f 151 222 192
f 151 192 191
f 151 191 190
f 151 190 152
f 152 190 224
f 152 224 225
f 152 225 153
f 153 225 226
f 153 226 154
f 154 226 227
f 154 227 228
f 154 228 155
f 155 228 229
f 155 229 230
f 155 230 231
f 155 231 156
f 156 231 157
f 157 231 232
f 157 232 233
f 157 233 164
f 158 207 159
f 159 207 161
f 161 207 206
f 161 206 234
f 161 234 162
f 162 234 209
f 162 209 163
f 164 233 235
f 164 235 165
f 165 235 236
f 165 236 166
f 166 236 237
f 166 237 168
f 168 237 169
f 169 237 170
f 170 237 238
f 170 238 239
f 170 239 172
f 170 172 171
f 172 239 173
f 173 239 240
f 173 240 241
f 173 241 174
f 174 241 175
f 175 241 242
f 175 242 176
f 176 242 177
f 177 242 178
f 178 242 243
f 178 243 244
f 178 244 179
f 179 244 245
f 179 245 180
f 180 245 181
f 181 245 182
f 182 245 183
f 183 245 246
f 183 246 184
f 184 246 247
f 184 247 188
f 188 247 189
f 189 247 224
f 189 224 190
f 192 222 193
f 193 222 221
f 193 221 219
f 193 219 194
f 194 219 218
f 194 218 216
f 194 216 195
f 195 215 196
f 196 215 217
f 196 217 197
f 197 217 248
f 197 248 199
f 199 248 249
f 199 249 200
f 200 249 250
f 200 250 201
f 201 250 202
f 202 250 203
f 203 250 210
f 203 208 234
f 203 234 205
f 203 205 204
f 205 234 206
f 208 209 234
f 210 250 249
f 210 249 248
f 210 248 211
f 211 248 212
f 212 248 217
f 219 223 220
f 219 221 223
f 224 247 251
f 224 251 225
f 225 251 226
f 226 251 252
f 226 252 253
f 226 253 227
f 227 253 252
f 227 252 228
f 228 252 254
f 228 254 243
f 228 243 242
f 228 242 229
f 229 242 255
f 229 255 230
f 230 255 232
f 230 232 231
f 232 255 233
f 233 255 240
f 233 240 239
f 233 239 238
f 233 238 235
f 235 238 236
f 236 238 237
f 240 255 241
f 241 255 242
f 243 254 244
f 244 254 256
f 244 256 251
f 244 251 247
f 244 247 246
f 244 246 245
f 251 256 252
f 252 256 254
