v -0.016758 -0.018708 0.009936
v -0.016758 -0.014352 0.009936
v -0.015335 -0.018708 0.009936
v -0.006804 -0.018709 0.019689
v -0.013914 -0.018709 0.019713
v -0.016758 -0.018708 0.019412
v -0.016758 -0.007052 0.011344
v -0.012695 -0.007052 0.010333
v -0.012534 -0.012035 0.009936
v -0.012467 -0.016363 0.009936
v -0.002383 -0.018708 0.010638
v -0.003409 -0.018709 0.019689
v -0.013586 -0.018709 0.022065
v -0.016758 -0.018287 0.019416
v -0.013475 -0.018709 0.022619
v -0.013417 -0.018709 0.022809
v -0.013363 -0.018709 0.022945
v -0.013055 -0.018709 0.023288
v -0.013389 -0.018544 0.023008
v -0.013415 -0.018116 0.023055
v -0.013429 -0.017647 0.023070
v -0.016758 -0.007052 0.019183
v -0.004406 -0.007052 0.010333
v -0.009873 -0.012035 0.009936
v -0.012113 -0.016063 0.009936
v -0.004600 -0.012035 0.010333
v -0.002383 -0.014229 0.010638
v -0.002175 -0.012035 0.011791
v -0.002383 -0.018708 0.019438
v -0.011806 -0.015714 0.009936
v -0.011520 -0.015362 0.009936
v -0.011320 -0.015087 0.009936
v -0.010994 -0.014594 0.009936
v -0.010765 -0.014236 0.009936
v -0.010557 -0.013853 0.009936
v -0.010300 -0.013311 0.009936
v -0.010147 -0.012949 0.009936
v -0.003825 -0.018709 0.022210
v -0.016758 -0.017646 0.019416
v -0.013076 -0.017647 0.023352
v -0.013135 -0.018313 0.023274
v -0.012435 -0.018709 0.023562
v -0.013422 -0.017175 0.023056
v -0.016758 -0.014441 0.019387
v -0.016758 -0.017479 0.019414
v -0.013133 -0.016979 0.023266
v -0.013025 -0.016365 0.023280
v -0.012929 -0.015724 0.023223
v -0.012435 -0.015724 0.023516
v -0.011859 -0.014379 0.023276
v -0.010513 -0.013801 0.023511
v -0.009872 -0.013801 0.023609
v -0.009853 -0.013113 0.023268
v -0.009231 -0.013160 0.023372
v -0.008593 -0.007052 0.019796
v -0.002179 -0.007052 0.011853
v -0.002175 -0.007394 0.011887
v -0.002175 -0.012035 0.019382
v -0.002175 -0.012034 0.019418
v -0.003853 -0.017647 0.022867
v -0.003741 -0.018139 0.022521
v -0.003866 -0.018326 0.022724
v -0.004117 -0.018709 0.023048
v -0.003958 -0.018709 0.022712
v -0.003878 -0.018709 0.022462
v -0.012435 -0.016365 0.023586
v -0.004767 -0.018709 0.023516
v -0.005024 -0.016090 0.023681
v -0.005095 -0.016090 0.023681
v -0.009556 -0.013801 0.023616
v -0.008590 -0.013160 0.023409
v -0.002179 -0.007052 0.019412
v -0.002175 -0.007052 0.015880
v -0.002175 -0.011879 0.019418
v -0.004237 -0.016365 0.023233
v -0.004195 -0.017005 0.023220
v -0.004173 -0.017647 0.023214
v -0.004200 -0.018288 0.023214
v -0.004242 -0.018709 0.023230
v -0.002175 -0.007392 0.019410
v -0.005095 -0.015845 0.023681
v -0.009231 -0.013801 0.023621
v -0.004563 -0.018709 0.023430
v -0.005024 -0.015845 0.023681
v -0.007950 -0.013801 0.023590
v -0.007308 -0.013801 0.023569
v -0.007308 -0.013216 0.023294
v -0.007912 -0.013102 0.023307
v -0.004329 -0.015723 0.023168
v -0.006818 -0.013801 0.023465
v -0.006667 -0.013801 0.023433
v -0.005385 -0.015084 0.023530
v -0.004783 -0.015668 0.023525
f 1 2 9
f 1 9 24
f 1 24 37
f 1 37 36
f 1 36 35
f 1 35 34
f 1 34 33
f 1 33 32
f 1 32 31
f 1 31 30
f 1 30 25
f 1 25 10
f 1 10 3
f 1 3 12
f 1 12 4
f 1 4 5
f 1 5 6
f 1 6 14
f 1 14 39
f 1 39 45
f 1 45 44
f 1 44 22
f 1 22 7
f 1 7 2
f 2 7 8
f 2 8 9
f 3 10 11
f 3 11 12
f 4 12 38
f 4 38 65
f 4 65 64
f 4 64 63
f 4 63 79
f 4 79 83
f 4 83 67
f 4 67 42
f 4 42 18
f 4 18 17
f 4 17 16
f 4 16 15
f 4 15 13
f 4 13 5
f 5 13 6
f 6 13 15
f 6 15 16
f 6 16 17
f 6 17 18
f 6 18 19
f 6 19 20
f 6 20 21
f 6 21 14
f 7 22 55
f 7 55 72
f 7 72 73
f 7 73 56
f 7 56 23
f 7 23 8
f 8 23 24
f 8 24 9
f 10 25 11
f 11 26 23
f 11 23 27
f 11 27 28
f 11 28 58
f 11 58 29
f 11 29 12
f 11 25 30
f 11 30 31
f 11 31 32
f 11 32 33
f 11 33 34
f 11 34 35
f 11 35 36
f 11 36 37
f 11 37 24
f 11 24 26
f 12 29 38
f 14 21 39
f 18 40 41
f 18 41 20
f 18 20 19
f 18 42 40
f 20 41 21
f 21 41 40
f 21 40 43
f 21 43 22
f 21 22 44
f 21 44 45
f 21 45 39
f 22 43 46
f 22 46 47
f 22 47 48
f 22 48 49
f 22 49 50
f 22 50 51
f 22 51 52
f 22 52 53
f 22 53 54
f 22 54 55
f 23 56 27
f 23 26 24
f 27 56 28
f 28 57 73
f 28 73 80
f 28 80 74
f 28 74 59
f 28 59 58
f 28 56 57
f 29 58 59
f 29 59 60
f 29 60 61
f 29 61 62
f 29 62 63
f 29 63 64
f 29 64 65
f 29 65 38
f 40 47 46
f 40 46 43
f 40 42 66
f 40 66 47
f 42 67 68
f 42 68 69
f 42 69 66
f 47 66 49
f 47 49 48
f 49 66 52
f 49 52 51
f 49 51 50
f 52 70 71
f 52 71 54
f 52 54 53
f 52 66 70
f 54 71 55
f 55 71 72
f 56 73 57
f 59 74 60
f 60 75 76
f 60 76 77
f 60 77 78
f 60 78 79
f 60 79 63
f 60 63 62
f 60 62 61
f 60 74 80
f 60 80 72
f 60 72 75
f 66 69 81
f 66 81 82
f 66 82 70
f 67 83 68
f 68 84 81
f 68 81 69
f 68 83 84
f 70 82 71
f 71 82 85
f 71 85 86
f 71 86 87
f 71 87 88
f 71 88 72
f 72 89 75
f 72 80 73
f 72 88 87
f 72 87 86
f 72 86 90
f 72 90 91
f 72 91 92
f 72 92 84
f 72 84 93
f 72 93 89
f 75 89 93
f 75 93 84
f 75 84 76
f 76 84 77
f 77 84 83
f 77 83 79
f 77 79 78
f 81 84 82
f 82 84 85
f 84 92 91
f 84 91 90
f 84 90 86
f 84 86 85
