v 0.000394 0.189233 0.016797
v 0.002068 0.189233 0.016652
v -0.000791 0.189233 0.016797
v 0.000394 -0.082725 0.016797
v 0.002943 0.189233 0.016462
v 0.002068 -0.079381 0.016652
v -0.001911 0.189233 0.016665
v -0.000791 -0.082725 0.016797
v 0.000165 -0.084478 0.016777
v 0.002068 -0.082725 0.016626
v 0.004725 0.189233 0.016068
v 0.004725 -0.079381 0.016068
v -0.002462 0.189233 0.016600
v -0.002462 -0.079381 0.016600
v -0.002462 -0.082725 0.016564
v -0.000621 -0.084478 0.016777
v 0.001321 -0.085179 0.015345
v 0.004725 -0.085314 0.014688
v 0.008070 -0.084964 0.014001
v 0.004725 -0.082725 0.016025
v 0.005828 0.189233 0.015598
v 0.008070 -0.082725 0.014625
v 0.008070 -0.079381 0.014642
v -0.005305 0.189233 0.015900
v -0.005305 -0.079381 0.015900
v -0.005305 -0.082725 0.015864
v -0.008066 -0.085018 0.014041
v -0.005305 -0.085314 0.014609
v -0.001826 -0.085179 0.015315
v -0.005305 -0.086231 0.011721
v 0.004725 -0.086231 0.011721
v 0.008070 -0.085881 0.011721
v 0.011164 -0.084964 0.011485
v 0.009881 -0.084559 0.013502
v 0.008070 0.189233 0.014642
v 0.009953 -0.082725 0.013555
v -0.007521 0.189233 0.014872
v -0.008611 -0.082725 0.014366
v -0.011382 -0.085018 0.011140
v -0.008967 -0.085503 0.012040
v -0.010282 -0.082725 0.013361
v -0.008650 -0.086231 0.008377
v 0.011415 -0.085908 0.008377
v 0.011415 -0.086231 0.005033
v 0.013217 -0.084586 0.010210
v 0.011624 -0.082725 0.011965
v 0.009953 0.189233 0.013555
v 0.010505 0.189233 0.013032
v -0.008611 0.189233 0.014366
v -0.010282 -0.079381 0.013364
v -0.009730 0.189233 0.013696
v -0.014267 -0.084991 0.007760
v -0.012296 -0.085503 0.008676
v -0.011924 -0.082725 0.011689
v -0.013595 -0.082725 0.009957
v -0.011992 -0.086231 0.005033
v -0.011933 -0.079381 0.011692
v 0.014868 -0.085153 0.004728
v 0.013742 -0.084991 0.008377
v 0.011415 -0.086231 -0.004999
v 0.014760 -0.085476 0.001689
v 0.016445 -0.084424 0.003407
v 0.014421 -0.082725 0.008377
v 0.013282 -0.082725 0.010293
v 0.012172 0.189233 0.011413
v 0.011624 0.189233 0.011965
v -0.010282 0.189233 0.013364
v -0.011388 0.189233 0.012244
v -0.014783 -0.085314 0.005033
v -0.014564 -0.082725 0.008285
v -0.015948 -0.082725 0.005033
v -0.013604 -0.079381 0.009957
v -0.011992 -0.086231 -0.004999
v -0.015106 -0.085314 0.001689
v -0.011933 0.189233 0.011692
v -0.013053 0.189233 0.010532
v 0.016536 -0.084559 0.001689
v 0.004725 -0.086231 -0.011687
v 0.011415 -0.085908 -0.008343
v 0.014868 -0.085153 -0.004694
v 0.014760 -0.085476 -0.001655
v 0.016644 -0.082725 0.001689
v 0.016451 -0.082725 0.003433
v 0.015896 -0.082725 0.005105
v 0.014447 -0.079381 0.008377
v 0.013667 0.189233 0.009662
v 0.013282 0.189233 0.010293
v -0.016623 -0.082725 0.001689
v -0.015997 -0.079381 0.005033
v -0.014247 0.189233 0.008837
v -0.014564 0.189233 0.008285
v -0.015523 0.189233 0.006107
v -0.016698 -0.079381 0.001689
v -0.013604 0.189233 0.009957
v -0.008650 -0.086231 -0.008343
v -0.015106 -0.085314 -0.001655
v -0.014783 -0.085314 -0.004999
v -0.012296 -0.085503 -0.008642
v -0.008967 -0.085503 -0.012006
v 0.016536 -0.084559 -0.001655
v 0.001321 -0.085179 -0.015311
v 0.004725 -0.085314 -0.014654
v 0.008070 -0.085881 -0.011687
v -0.005305 -0.086231 -0.011687
v 0.011164 -0.084964 -0.011451
v 0.013217 -0.084586 -0.010176
v 0.013742 -0.084991 -0.008343
v 0.016445 -0.084424 -0.003373
v 0.016644 -0.082725 -0.001655
v 0.016644 0.189233 0.001689
v 0.016516 0.189233 0.002855
v 0.015922 -0.079381 0.005105
v 0.016451 0.189233 0.003433
v 0.014447 0.189233 0.008377
v -0.016623 -0.082725 -0.001655
v -0.015997 0.189233 0.005033
v -0.016698 -0.079381 -0.001655
v -0.016698 0.189233 0.001689
v -0.014267 -0.084991 -0.007726
v -0.015948 -0.082725 -0.004999
v -0.011382 -0.085018 -0.011106
v -0.008066 -0.085018 -0.014007
v -0.005305 -0.085314 -0.014575
v -0.001826 -0.085179 -0.015281
v -0.000621 -0.084478 -0.016743
v 0.000165 -0.084478 -0.016743
v 0.008070 -0.084964 -0.013967
v 0.009881 -0.084559 -0.013468
v 0.011624 -0.082725 -0.011931
v 0.013282 -0.082725 -0.010259
v 0.014421 -0.082725 -0.008343
v 0.015896 -0.082725 -0.005071
v 0.016451 -0.082725 -0.003399
v 0.016644 0.189233 -0.001655
v 0.015922 0.189233 0.005105
v -0.015997 -0.079381 -0.004999
v -0.016698 0.189233 -0.001655
v -0.016228 0.189233 -0.003895
v -0.014564 -0.082725 -0.008251
v -0.013595 -0.082725 -0.009923
v -0.011924 -0.082725 -0.011655
v -0.010282 -0.082725 -0.013327
v -0.008611 -0.082725 -0.014332
v -0.005305 -0.082725 -0.015830
v -0.002462 -0.082725 -0.016530
v -0.000791 -0.082725 -0.016763
v 0.000394 -0.082725 -0.016763
v 0.002068 -0.082725 -0.016592
v 0.004725 -0.082725 -0.015991
v 0.008070 -0.082725 -0.014591
v 0.009953 -0.082725 -0.013521
v 0.011073 0.189233 -0.012456
v 0.011624 0.189233 -0.011931
v 0.012737 0.189233 -0.010810
v 0.014447 -0.079381 -0.008343
v 0.013282 0.189233 -0.010259
v 0.015922 -0.079381 -0.005071
v 0.016278 0.189233 -0.003951
v 0.016451 0.189233 -0.003399
v -0.015997 0.189233 -0.004999
v -0.013604 -0.079381 -0.009923
v -0.014564 0.189233 -0.008251
v -0.011933 -0.079381 -0.011658
v -0.010282 -0.079381 -0.013330
v -0.005305 -0.079381 -0.015866
v -0.008611 0.189233 -0.014332
v -0.002462 -0.079381 -0.016566
v -0.000791 0.189233 -0.016763
v 0.000394 0.189233 -0.016763
v 0.001513 0.189233 -0.016668
v 0.002068 -0.079381 -0.016618
v 0.004725 -0.079381 -0.016034
v 0.008070 -0.079381 -0.014608
v 0.009330 0.189233 -0.013882
v 0.009953 0.189233 -0.013521
v 0.014447 0.189233 -0.008343
v 0.015922 0.189233 -0.005071
v -0.013604 0.189233 -0.009923
v -0.012485 0.189233 -0.011086
v -0.011933 0.189233 -0.011658
v -0.010282 0.189233 -0.013330
v -0.005305 0.189233 -0.015866
v -0.003399 0.189233 -0.016336
v -0.002462 0.189233 -0.016566
v 0.002068 0.189233 -0.016618
v 0.003847 0.189233 -0.016227
v 0.004725 0.189233 -0.016034
v 0.008070 0.189233 -0.014608
f 1 2 5
f 1 5 11
f 1 11 21
f 1 21 35
f 1 35 47
f 1 47 48
f 1 48 66
f 1 66 65
f 1 65 87
f 1 87 86
f 1 86 114
f 1 114 135
f 1 135 113
f 1 113 111
f 1 111 110
f 1 110 134
f 1 134 159
f 1 159 158
f 1 158 177
f 1 177 176
f 1 176 156
f 1 156 154
f 1 154 153
f 1 153 152
f 1 152 175
f 1 175 174
f 1 174 188
f 1 188 187
f 1 187 186
f 1 186 185
f 1 185 170
f 1 170 169
f 1 169 168
f 1 168 184
f 1 184 183
f 1 183 182
f 1 182 166
f 1 166 181
f 1 181 180
f 1 180 179
f 1 179 178
f 1 178 162
f 1 162 160
f 1 160 138
f 1 138 137
f 1 137 118
f 1 118 116
f 1 116 92
f 1 92 91
f 1 91 90
f 1 90 94
f 1 94 76
f 1 76 75
f 1 75 68
f 1 68 67
f 1 67 51
f 1 51 49
f 1 49 37
f 1 37 24
f 1 24 13
f 1 13 7
f 1 7 3
f 1 3 8
f 1 8 4
f 1 4 6
f 1 6 2
f 2 6 5
f 3 7 8
f 4 8 16
f 4 16 9
f 4 9 10
f 4 10 6
f 5 6 12
f 5 12 11
f 6 10 12
f 7 13 14
f 7 14 8
f 8 14 15
f 8 15 16
f 9 16 17
f 9 17 18
f 9 18 19
f 9 19 20
f 9 20 10
f 10 20 12
f 11 12 21
f 12 20 22
f 12 22 23
f 12 23 21
f 13 24 25
f 13 25 14
f 14 25 26
f 14 26 15
f 15 26 16
f 16 27 28
f 16 28 29
f 16 29 17
f 16 26 27
f 17 29 30
f 17 30 31
f 17 31 18
f 18 31 32
f 18 32 19
f 19 33 34
f 19 34 20
f 19 32 33
f 20 34 22
f 21 23 35
f 22 34 36
f 22 36 23
f 23 36 47
f 23 47 35
f 24 37 25
f 25 38 26
f 25 37 38
f 26 38 27
f 27 39 40
f 27 40 28
f 27 38 41
f 27 41 39
f 28 40 30
f 28 30 29
f 30 42 56
f 30 56 73
f 30 73 95
f 30 95 104
f 30 104 78
f 30 78 60
f 30 60 44
f 30 44 31
f 30 40 42
f 31 43 32
f 31 44 43
f 32 43 33
f 33 45 34
f 33 43 45
f 34 45 46
f 34 46 36
f 36 46 48
f 36 48 47
f 37 49 38
f 38 50 41
f 38 49 51
f 38 51 50
f 39 52 53
f 39 53 40
f 39 41 54
f 39 54 55
f 39 55 52
f 40 53 56
f 40 56 42
f 41 50 57
f 41 57 54
f 43 44 58
f 43 58 59
f 43 59 45
f 44 60 81
f 44 81 61
f 44 61 58
f 45 59 62
f 45 62 63
f 45 63 64
f 45 64 46
f 46 64 65
f 46 65 66
f 46 66 48
f 50 51 67
f 50 67 68
f 50 68 57
f 52 69 53
f 52 55 70
f 52 70 71
f 52 71 69
f 53 69 56
f 54 57 55
f 55 57 72
f 55 72 70
f 56 69 74
f 56 74 96
f 56 96 73
f 57 68 75
f 57 75 76
f 57 76 72
f 58 61 77
f 58 77 62
f 58 62 59
f 60 78 79
f 60 79 80
f 60 80 81
f 61 81 100
f 61 100 77
f 62 77 82
f 62 82 83
f 62 83 84
f 62 84 63
f 63 84 112
f 63 112 85
f 63 85 64
f 64 85 86
f 64 86 87
f 64 87 65
f 69 71 88
f 69 88 74
f 70 89 71
f 70 72 90
f 70 90 91
f 70 91 92
f 70 92 89
f 71 89 93
f 71 93 88
f 72 76 94
f 72 94 90
f 73 96 97
f 73 97 98
f 73 98 99
f 73 99 95
f 74 88 115
f 74 115 96
f 77 100 109
f 77 109 82
f 78 101 102
f 78 102 103
f 78 103 79
f 78 104 101
f 79 103 105
f 79 105 106
f 79 106 107
f 79 107 80
f 80 107 108
f 80 108 100
f 80 100 81
f 82 109 134
f 82 134 110
f 82 110 111
f 82 111 83
f 83 112 84
f 83 111 113
f 83 113 135
f 83 135 112
f 85 112 135
f 85 135 114
f 85 114 86
f 88 93 117
f 88 117 115
f 89 92 116
f 89 116 118
f 89 118 93
f 93 118 137
f 93 137 117
f 95 99 104
f 96 115 97
f 97 119 98
f 97 115 120
f 97 120 119
f 98 119 121
f 98 121 99
f 99 121 122
f 99 122 123
f 99 123 104
f 100 108 109
f 101 124 125
f 101 125 126
f 101 126 102
f 101 104 124
f 102 126 127
f 102 127 103
f 103 127 105
f 104 123 124
f 105 127 128
f 105 128 106
f 106 128 129
f 106 129 130
f 106 130 131
f 106 131 108
f 106 108 107
f 108 131 132
f 108 132 133
f 108 133 109
f 109 133 159
f 109 159 134
f 115 117 120
f 117 136 120
f 117 137 138
f 117 138 136
f 119 120 139
f 119 139 140
f 119 140 121
f 120 136 139
f 121 140 141
f 121 141 142
f 121 142 122
f 122 142 143
f 122 143 144
f 122 144 125
f 122 125 123
f 123 125 124
f 125 144 145
f 125 145 146
f 125 146 147
f 125 147 126
f 126 147 148
f 126 148 149
f 126 149 127
f 127 149 128
f 128 149 150
f 128 150 151
f 128 151 129
f 129 151 152
f 129 152 153
f 129 153 154
f 129 154 130
f 130 155 131
f 130 154 156
f 130 156 176
f 130 176 155
f 131 155 157
f 131 157 132
f 132 157 133
f 133 157 158
f 133 158 159
f 136 138 160
f 136 160 162
f 136 162 139
f 139 161 140
f 139 162 178
f 139 178 161
f 140 161 163
f 140 163 141
f 141 163 142
f 142 163 164
f 142 164 143
f 143 165 144
f 143 164 181
f 143 181 166
f 143 166 182
f 143 182 165
f 144 165 167
f 144 167 145
f 145 167 146
f 146 167 184
f 146 184 168
f 146 168 169
f 146 169 147
f 147 169 170
f 147 170 171
f 147 171 148
f 148 171 172
f 148 172 149
f 149 172 150
f 150 172 173
f 150 173 151
f 151 173 174
f 151 174 175
f 151 175 152
f 155 176 177
f 155 177 157
f 157 177 158
f 161 178 179
f 161 179 163
f 163 179 180
f 163 180 181
f 163 181 164
f 165 182 183
f 165 183 167
f 167 183 184
f 170 185 171
f 171 185 186
f 171 186 172
f 172 186 187
f 172 187 188
f 172 188 173
f 173 188 174
