v 0.048204 0.234979 -0.017206
v 0.048204 0.237695 -0.016933
v 0.058237 0.234979 -0.017206
v 0.048204 0.231733 -0.016973
v 0.045887 0.232260 -0.016885
v 0.045629 0.234979 -0.016953
v 0.045974 0.237345 -0.016858
v 0.048204 0.239366 -0.016558
v 0.058237 0.237695 -0.016933
v 0.060463 0.237345 -0.016858
v 0.060805 0.234979 -0.016953
v 0.060550 0.232260 -0.016885
v 0.058237 0.231733 -0.016973
v 0.048204 0.230062 -0.016686
v 0.044809 0.231341 -0.016356
v 0.028172 0.231636 -0.011872
v 0.028172 0.234946 -0.012229
v 0.028172 0.234979 -0.012232
v 0.044862 0.238406 -0.016225
v 0.044862 0.241665 -0.015011
v 0.028172 0.238289 -0.011629
v 0.028172 0.238322 -0.011622
v 0.048204 0.241665 -0.015641
v 0.058237 0.239366 -0.016558
v 0.061583 0.241665 -0.014829
v 0.063285 0.243404 -0.013402
v 0.061579 0.238406 -0.015908
v 0.062476 0.234979 -0.015975
v 0.058237 0.241665 -0.015641
v 0.061631 0.231341 -0.016015
v 0.061583 0.228293 -0.015139
v 0.058237 0.230062 -0.016686
v 0.048204 0.228293 -0.016005
v 0.044862 0.228293 -0.015378
v 0.028172 0.228689 -0.010722
v 0.044862 0.243938 -0.013783
v 0.028172 0.240803 -0.010553
v 0.028172 0.240823 -0.010543
v 0.048204 0.244404 -0.014117
v 0.061583 0.243921 -0.013770
v 0.063334 0.246811 -0.010169
v 0.063431 0.244716 -0.011447
v 0.063418 0.241665 -0.013689
v 0.061583 0.245592 -0.012371
v 0.063533 0.238322 -0.014110
v 0.063533 0.234979 -0.014303
v 0.063533 0.231636 -0.014181
v 0.063473 0.228293 -0.013817
v 0.058237 0.244404 -0.014117
v 0.063362 0.226346 -0.013524
v 0.061583 0.225662 -0.013979
v 0.058237 0.228293 -0.016005
v 0.048204 0.225115 -0.014350
v 0.044862 0.225611 -0.014013
v 0.028172 0.227034 -0.009714
v 0.044862 0.245609 -0.012398
v 0.048204 0.246076 -0.012819
v 0.028172 0.242477 -0.009323
v 0.058237 0.246076 -0.012819
v 0.063452 0.247237 -0.008341
v 0.063732 0.245012 -0.008341
v 0.061583 0.247267 -0.010698
v 0.060463 0.250191 -0.006989
v 0.062692 0.249523 -0.005870
v 0.063320 0.250110 -0.003641
v 0.063697 0.241665 -0.011686
v 0.063808 0.238322 -0.011686
v 0.063808 0.231636 -0.011686
v 0.063752 0.228293 -0.011686
v 0.063526 0.225118 -0.011572
v 0.063414 0.222953 -0.010381
v 0.061583 0.223990 -0.012731
v 0.058237 0.223443 -0.013224
v 0.058237 0.225115 -0.014350
v 0.048204 0.223443 -0.013224
v 0.044862 0.223940 -0.012822
v 0.028172 0.227014 -0.009697
v 0.044862 0.247291 -0.010725
v 0.048204 0.247656 -0.011147
v 0.028172 0.244129 -0.007637
v 0.058237 0.247656 -0.011147
v 0.063515 0.248388 -0.004852
v 0.063672 0.248355 -0.001652
v 0.063808 0.245012 -0.004997
v 0.061579 0.250476 -0.004852
v 0.058237 0.249328 -0.008824
v 0.058237 0.250271 -0.007151
v 0.058237 0.251026 -0.004997
v 0.061583 0.251047 -0.001652
v 0.063393 0.250207 -0.001652
v 0.063791 0.224947 -0.008341
v 0.063808 0.224947 -0.004997
v 0.063470 0.221745 -0.008031
v 0.063268 0.219912 -0.006710
v 0.061583 0.220661 -0.008989
v 0.061583 0.222332 -0.011059
v 0.058237 0.221876 -0.011551
v 0.048204 0.221876 -0.011551
v 0.044862 0.222248 -0.011150
v 0.028172 0.225410 -0.008041
v 0.044862 0.249036 -0.008200
v 0.045974 0.250191 -0.006989
v 0.048204 0.249328 -0.008824
v 0.028172 0.245733 -0.004926
v 0.063672 0.248355 0.001686
v 0.063808 0.245012 0.005031
v 0.058237 0.251704 -0.001652
v 0.048204 0.250271 -0.007151
v 0.048204 0.251026 -0.004997
v 0.061583 0.251047 0.001686
v 0.063393 0.250207 0.001686
v 0.063794 0.221604 -0.001652
v 0.063669 0.221604 -0.004997
v 0.063808 0.224947 0.005031
v 0.063390 0.219721 -0.004997
v 0.061583 0.218234 -0.001652
v 0.061583 0.218801 -0.004997
v 0.061583 0.219586 -0.007316
v 0.058237 0.220204 -0.009579
v 0.048204 0.220204 -0.009579
v 0.044862 0.220573 -0.009006
v 0.028172 0.223738 -0.005732
v 0.044862 0.250489 -0.004892
v 0.028172 0.245807 -0.004794
v 0.028172 0.246579 -0.002343
v 0.063320 0.250110 0.003675
v 0.063515 0.248388 0.004886
v 0.063732 0.245012 0.008375
v 0.063808 0.238322 0.011720
v 0.058237 0.251704 0.001686
v 0.048204 0.251704 -0.001652
v 0.061579 0.250476 0.004886
v 0.063794 0.221604 0.001686
v 0.063515 0.219492 -0.001652
v 0.063808 0.231636 0.011720
v 0.063791 0.224947 0.008375
v 0.061583 0.218234 0.001686
v 0.058237 0.217415 -0.001652
v 0.058237 0.218096 -0.004997
v 0.058237 0.219271 -0.007907
v 0.048204 0.219271 -0.007907
v 0.044862 0.219580 -0.007333
v 0.028172 0.222963 -0.004059
v 0.044862 0.251097 -0.001652
v 0.028172 0.246700 -0.001652
v 0.062692 0.249523 0.005904
v 0.063334 0.246811 0.010203
v 0.063452 0.247237 0.008375
v 0.060463 0.250191 0.007023
v 0.063431 0.244716 0.011481
v 0.063697 0.241665 0.011720
v 0.063533 0.238322 0.014144
v 0.063533 0.234979 0.014337
v 0.058237 0.251026 0.005031
v 0.048204 0.251704 0.001686
v 0.063669 0.221604 0.005031
v 0.063515 0.219492 0.001686
v 0.063533 0.231636 0.014215
v 0.063752 0.228293 0.011720
v 0.063526 0.225118 0.011606
v 0.063414 0.222953 0.010415
v 0.063470 0.221745 0.008065
v 0.063390 0.219721 0.005031
v 0.063268 0.219912 0.006744
v 0.061583 0.218801 0.005031
v 0.058237 0.217415 0.001686
v 0.048204 0.217415 -0.001652
v 0.048204 0.218096 -0.004997
v 0.044862 0.218710 -0.004997
v 0.028172 0.222403 -0.001652
v 0.044862 0.251097 0.001686
v 0.028172 0.246700 0.001686
v 0.061583 0.247267 0.010732
v 0.061583 0.245592 0.012405
v 0.063285 0.243404 0.013436
v 0.058237 0.250271 0.007185
v 0.058237 0.249328 0.008858
v 0.058237 0.247656 0.011181
v 0.063418 0.241665 0.013723
v 0.062476 0.234979 0.016009
v 0.048204 0.251026 0.005031
v 0.044862 0.250489 0.004926
v 0.063473 0.228293 0.013851
v 0.063362 0.226346 0.013558
v 0.061583 0.223990 0.012765
v 0.061583 0.222332 0.011093
v 0.061583 0.220661 0.009023
v 0.061583 0.219586 0.007350
v 0.058237 0.218096 0.005031
v 0.048204 0.217415 0.001686
v 0.044862 0.218009 -0.001652
v 0.028172 0.222403 0.001686
v 0.028172 0.245868 0.004636
v 0.058237 0.246076 0.012853
v 0.061583 0.243921 0.013804
v 0.061583 0.241665 0.014863
v 0.060463 0.237345 0.016892
v 0.061579 0.238406 0.015942
v 0.048204 0.250271 0.007185
v 0.048204 0.249328 0.008858
v 0.048204 0.247656 0.011181
v 0.060805 0.234979 0.016987
v 0.060550 0.232260 0.016919
v 0.061631 0.231341 0.016049
v 0.045974 0.250191 0.007023
v 0.061583 0.228293 0.015173
v 0.061583 0.225662 0.014013
v 0.058237 0.223443 0.013258
v 0.058237 0.221876 0.011585
v 0.058237 0.220204 0.009613
v 0.058237 0.219271 0.007941
v 0.048204 0.218096 0.005031
v 0.044862 0.218009 0.001686
v 0.028172 0.222406 0.001706
v 0.028172 0.245807 0.004828
v 0.058237 0.244404 0.014151
v 0.048204 0.246076 0.012853
v 0.058237 0.241665 0.015675
v 0.058237 0.234979 0.017240
v 0.058237 0.239366 0.016592
v 0.058237 0.237695 0.016967
v 0.044862 0.247291 0.010759
v 0.058237 0.231733 0.017007
v 0.058237 0.230062 0.016720
v 0.044862 0.249036 0.008234
v 0.028172 0.244129 0.007671
v 0.058237 0.228293 0.016039
v 0.058237 0.225115 0.014384
v 0.048204 0.223443 0.013258
v 0.048204 0.221876 0.011585
v 0.048204 0.220204 0.009613
v 0.048204 0.219271 0.007941
v 0.044862 0.219580 0.007367
v 0.044862 0.218710 0.005031
v 0.028172 0.222963 0.004093
v 0.048204 0.244404 0.014151
v 0.044862 0.245609 0.012432
v 0.044862 0.243938 0.013817
v 0.048204 0.241665 0.015675
v 0.048204 0.234979 0.017240
v 0.048204 0.239366 0.016592
v 0.048204 0.237695 0.016967
v 0.028172 0.242511 0.009326
v 0.028172 0.242494 0.009343
v 0.048204 0.231733 0.017007
v 0.048204 0.230062 0.016720
v 0.048204 0.228293 0.016039
v 0.048204 0.225115 0.014384
v 0.044862 0.225611 0.014047
v 0.044862 0.223940 0.012856
v 0.044862 0.222248 0.011184
v 0.044862 0.220573 0.009040
v 0.028172 0.223738 0.005766
v 0.028172 0.240840 0.010564
v 0.044862 0.241665 0.015045
v 0.045974 0.237345 0.016892
v 0.045629 0.234979 0.016987
v 0.045887 0.232260 0.016919
v 0.044809 0.231341 0.016390
v 0.044862 0.228293 0.015412
v 0.028172 0.228706 0.010766
v 0.028172 0.227034 0.009748
v 0.028172 0.225410 0.008075
v 0.028172 0.223755 0.005789
v 0.028172 0.238322 0.011656
v 0.044862 0.238406 0.016259
v 0.028172 0.234979 0.012266
v 0.028172 0.231636 0.011906
v 0.028172 0.228729 0.010776
f 1 2 9
f 1 9 3
f 1 3 13
f 1 13 4
f 1 4 5
f 1 5 6
f 1 6 7
f 1 7 2
f 2 8 24
f 2 24 9
f 2 7 8
f 3 9 10
f 3 10 11
f 3 11 12
f 3 12 13
f 4 13 32
f 4 32 14
f 4 14 5
f 5 14 15
f 5 15 16
f 5 16 17
f 5 17 18
f 5 18 6
f 6 18 7
f 7 19 20
f 7 20 8
f 7 18 21
f 7 21 22
f 7 22 19
f 8 23 29
f 8 29 24
f 8 20 23
f 9 24 10
f 10 25 26
f 10 26 27
f 10 27 28
f 10 28 11
f 10 24 29
f 10 29 25
f 11 28 12
f 12 28 30
f 12 30 31
f 12 31 32
f 12 32 13
f 14 32 52
f 14 52 33
f 14 33 34
f 14 34 15
f 15 34 16
f 16 35 55
f 16 55 77
f 16 77 100
f 16 100 122
f 16 122 143
f 16 143 170
f 16 170 192
f 16 192 214
f 16 214 235
f 16 235 253
f 16 253 264
f 16 264 263
f 16 263 262
f 16 262 261
f 16 261 269
f 16 269 268
f 16 268 267
f 16 267 265
f 16 265 254
f 16 254 244
f 16 244 243
f 16 243 226
f 16 226 215
f 16 215 193
f 16 193 172
f 16 172 145
f 16 145 125
f 16 125 124
f 16 124 104
f 16 104 80
f 16 80 58
f 16 58 38
f 16 38 37
f 16 37 22
f 16 22 21
f 16 21 18
f 16 18 17
f 16 34 35
f 19 22 20
f 20 36 23
f 20 22 37
f 20 37 38
f 20 38 36
f 23 39 49
f 23 49 29
f 23 36 39
f 25 29 40
f 25 40 26
f 26 41 42
f 26 42 43
f 26 43 28
f 26 28 27
f 26 40 44
f 26 44 41
f 28 43 45
f 28 45 46
f 28 46 47
f 28 47 48
f 28 48 30
f 29 49 40
f 30 48 50
f 30 50 31
f 31 51 52
f 31 52 32
f 31 50 51
f 33 52 74
f 33 74 53
f 33 53 54
f 33 54 34
f 34 54 35
f 35 54 55
f 36 56 57
f 36 57 39
f 36 38 58
f 36 58 56
f 39 57 59
f 39 59 49
f 40 49 59
f 40 59 44
f 41 60 61
f 41 61 42
f 41 44 62
f 41 62 63
f 41 63 64
f 41 64 65
f 41 65 60
f 42 61 66
f 42 66 43
f 43 66 45
f 44 59 62
f 45 66 67
f 45 67 46
f 46 67 68
f 46 68 47
f 47 68 69
f 47 69 48
f 48 69 70
f 48 70 50
f 50 71 72
f 50 72 51
f 50 70 71
f 51 72 73
f 51 73 74
f 51 74 52
f 53 74 73
f 53 73 75
f 53 75 54
f 54 75 76
f 54 76 55
f 55 76 77
f 56 78 57
f 56 58 78
f 57 79 81
f 57 81 59
f 57 78 79
f 58 80 78
f 59 81 62
f 60 65 82
f 60 82 61
f 61 67 66
f 61 82 83
f 61 83 84
f 61 84 67
f 62 81 63
f 63 85 65
f 63 65 64
f 63 81 86
f 63 86 87
f 63 87 88
f 63 88 85
f 65 85 89
f 65 89 90
f 65 90 83
f 65 83 82
f 67 84 106
f 67 106 129
f 67 129 135
f 67 135 114
f 67 114 92
f 67 92 68
f 68 91 69
f 68 92 91
f 69 91 70
f 70 91 71
f 71 91 93
f 71 93 94
f 71 94 95
f 71 95 96
f 71 96 72
f 72 96 73
f 73 96 97
f 73 97 98
f 73 98 75
f 75 98 99
f 75 99 76
f 76 99 77
f 77 99 100
f 78 101 102
f 78 102 103
f 78 103 79
f 78 80 101
f 79 103 86
f 79 86 81
f 80 104 102
f 80 102 101
f 83 90 111
f 83 111 105
f 83 105 106
f 83 106 84
f 85 88 107
f 85 107 89
f 86 103 108
f 86 108 87
f 87 108 109
f 87 109 88
f 88 109 131
f 88 131 107
f 89 110 111
f 89 111 90
f 89 107 130
f 89 130 110
f 91 112 113
f 91 113 93
f 91 92 112
f 92 114 133
f 92 133 112
f 93 115 94
f 93 113 115
f 94 115 116
f 94 116 117
f 94 117 118
f 94 118 95
f 95 118 119
f 95 119 96
f 96 119 97
f 97 119 120
f 97 120 98
f 98 120 99
f 99 120 121
f 99 121 100
f 100 121 122
f 102 123 109
f 102 109 108
f 102 108 103
f 102 104 124
f 102 124 125
f 102 125 123
f 105 111 126
f 105 126 127
f 105 127 128
f 105 128 106
f 106 128 129
f 107 131 155
f 107 155 130
f 109 123 131
f 110 132 126
f 110 126 111
f 110 130 132
f 112 133 157
f 112 157 134
f 112 134 113
f 113 134 115
f 114 135 136
f 114 136 133
f 115 134 116
f 116 134 157
f 116 157 137
f 116 137 166
f 116 166 138
f 116 138 117
f 117 138 139
f 117 139 118
f 118 139 140
f 118 140 119
f 119 140 141
f 119 141 120
f 120 141 142
f 120 142 121
f 121 142 122
f 122 142 143
f 123 144 131
f 123 125 144
f 125 145 144
f 126 146 147
f 126 147 148
f 126 148 127
f 126 132 149
f 126 149 146
f 127 148 128
f 128 148 147
f 128 147 150
f 128 150 151
f 128 151 129
f 129 151 152
f 129 152 153
f 129 153 135
f 130 154 132
f 130 155 181
f 130 181 154
f 131 144 171
f 131 171 155
f 132 154 149
f 133 136 156
f 133 156 157
f 135 153 158
f 135 158 159
f 135 159 136
f 136 159 160
f 136 160 161
f 136 161 162
f 136 162 156
f 137 157 163
f 137 163 164
f 137 164 165
f 137 165 166
f 138 166 190
f 138 190 167
f 138 167 168
f 138 168 139
f 139 168 141
f 139 141 140
f 141 168 142
f 142 168 169
f 142 169 143
f 143 169 170
f 144 145 172
f 144 172 171
f 146 149 147
f 147 149 173
f 147 173 174
f 147 174 175
f 147 175 150
f 149 154 176
f 149 176 177
f 149 177 178
f 149 178 173
f 150 175 179
f 150 179 151
f 151 179 152
f 152 179 180
f 152 180 153
f 153 180 158
f 154 181 199
f 154 199 176
f 155 171 182
f 155 182 181
f 156 162 163
f 156 163 157
f 158 180 183
f 158 183 159
f 159 183 160
f 160 183 184
f 160 184 161
f 161 184 185
f 161 185 186
f 161 186 187
f 161 187 164
f 161 164 162
f 162 164 163
f 164 187 188
f 164 188 165
f 165 188 189
f 165 189 166
f 166 189 212
f 166 212 190
f 167 190 213
f 167 213 191
f 167 191 168
f 168 191 169
f 169 191 170
f 170 191 213
f 170 213 192
f 171 172 182
f 172 193 182
f 173 178 194
f 173 194 174
f 174 195 175
f 174 194 195
f 175 195 196
f 175 196 197
f 175 197 198
f 175 198 180
f 175 180 179
f 176 199 200
f 176 200 177
f 177 200 201
f 177 201 178
f 178 201 217
f 178 217 194
f 180 198 197
f 180 197 202
f 180 202 203
f 180 203 204
f 180 204 183
f 181 182 205
f 181 205 199
f 182 193 205
f 183 204 184
f 184 204 206
f 184 206 207
f 184 207 185
f 185 207 208
f 185 208 186
f 186 208 209
f 186 209 210
f 186 210 187
f 187 210 188
f 188 210 211
f 188 211 189
f 189 211 232
f 189 232 212
f 190 212 213
f 192 213 214
f 193 215 205
f 194 216 195
f 194 217 236
f 194 236 216
f 195 216 218
f 195 218 196
f 196 218 197
f 197 219 202
f 197 218 220
f 197 220 221
f 197 221 219
f 199 205 200
f 200 205 222
f 200 222 201
f 201 222 217
f 202 219 203
f 203 206 204
f 203 219 223
f 203 223 224
f 203 224 206
f 205 225 222
f 205 215 226
f 205 226 225
f 206 224 227
f 206 227 207
f 207 227 228
f 207 228 208
f 208 228 248
f 208 248 229
f 208 229 230
f 208 230 209
f 209 230 231
f 209 231 210
f 210 231 232
f 210 232 211
f 212 233 234
f 212 234 213
f 212 232 233
f 213 234 214
f 214 234 235
f 216 236 239
f 216 239 218
f 217 222 237
f 217 237 238
f 217 238 236
f 218 239 241
f 218 241 220
f 219 240 245
f 219 245 223
f 219 221 242
f 219 242 240
f 220 241 242
f 220 242 221
f 222 225 226
f 222 226 243
f 222 243 244
f 222 244 237
f 223 245 246
f 223 246 224
f 224 246 247
f 224 247 227
f 227 247 248
f 227 248 228
f 229 248 249
f 229 249 250
f 229 250 251
f 229 251 230
f 230 251 231
f 231 251 252
f 231 252 233
f 231 233 232
f 233 252 253
f 233 253 235
f 233 235 234
f 236 238 239
f 237 244 238
f 238 244 254
f 238 254 255
f 238 255 239
f 239 255 241
f 240 242 256
f 240 256 257
f 240 257 258
f 240 258 245
f 241 255 256
f 241 256 242
f 245 258 246
f 246 258 259
f 246 259 260
f 246 260 247
f 247 260 249
f 247 249 248
f 249 260 261
f 249 261 262
f 249 262 250
f 250 262 251
f 251 262 263
f 251 263 252
f 252 263 264
f 252 264 253
f 254 265 255
f 255 266 256
f 255 265 266
f 256 266 265
f 256 265 267
f 256 267 257
f 257 267 258
f 258 267 268
f 258 268 259
f 259 268 260
f 260 268 269
f 260 269 261
