v -0.031462 0.061666 0.044134
v -0.031462 0.058885 0.044109
v -0.031462 0.061422 0.029269
v -0.033068 0.066775 0.068755
v -0.033068 0.063586 0.071912
v -0.031462 0.058601 0.032246
v -0.033068 0.062450 0.071726
v -0.033068 0.060834 0.070905
v -0.033068 0.059918 0.069551
v -0.033068 0.059525 0.068358
v -0.033068 0.059347 0.067208
v -0.033068 0.059235 0.065928
v -0.054749 0.037455 0.025963
v -0.054644 0.037455 0.024708
v -0.054530 0.037455 0.022278
v -0.031462 0.061365 0.026317
v -0.031462 0.061015 0.009601
v -0.031607 0.060983 0.008532
v -0.032962 0.061000 0.008532
v -0.036603 0.066703 0.068358
v -0.035384 0.066720 0.068755
v -0.035787 0.066499 0.069843
v -0.034845 0.066436 0.070278
v -0.033177 0.066356 0.070502
v -0.033142 0.064545 0.071863
v -0.041451 0.062780 0.071931
v -0.067688 0.039553 0.071999
v -0.031462 0.058486 0.027119
v -0.066055 0.039553 0.071664
v -0.064555 0.039553 0.070818
v -0.063644 0.039553 0.069482
v -0.055503 0.037455 0.029946
v -0.055198 0.037455 0.028741
v -0.054972 0.037455 0.027523
v -0.054491 0.037455 0.020258
v -0.031462 0.058259 0.008532
v -0.055909 0.037455 0.008526
v -0.057714 0.045850 0.008526
v -0.034579 0.060946 0.008532
v -0.039529 0.066341 0.068358
v -0.038849 0.066384 0.068967
v -0.036603 0.066537 0.069451
v -0.035818 0.060857 0.008532
v -0.037275 0.060728 0.008532
v -0.038509 0.066482 0.068128
v -0.037701 0.066321 0.069806
v -0.035787 0.066370 0.070247
v -0.037005 0.065469 0.071216
v -0.033216 0.065460 0.071459
v -0.041045 0.063586 0.071863
v -0.039834 0.063586 0.071894
v -0.038623 0.064398 0.071720
v -0.042666 0.062780 0.071918
v -0.051952 0.058739 0.071937
v -0.052757 0.057929 0.071943
v -0.066457 0.043456 0.071987
v -0.068746 0.039894 0.071937
v -0.069629 0.039553 0.071676
v -0.066547 0.037455 0.044128
v -0.063562 0.037455 0.044128
v -0.056980 0.037455 0.033569
v -0.056327 0.037455 0.032314
v -0.055870 0.037455 0.031127
v -0.054495 0.037455 0.019046
v -0.054534 0.037455 0.017828
v -0.054624 0.037455 0.016623
v -0.054843 0.037455 0.014498
v -0.065660 0.038528 0.008526
v -0.066082 0.037455 0.009657
v -0.066035 0.037489 0.008613
v -0.062176 0.045327 0.008526
v -0.038623 0.060570 0.008532
v -0.040642 0.066140 0.068358
v -0.041451 0.065963 0.068755
v -0.040240 0.066146 0.069159
v -0.039431 0.066054 0.069967
v -0.040818 0.065767 0.070166
v -0.039834 0.065566 0.070756
v -0.038822 0.065354 0.071111
v -0.040342 0.064809 0.071378
v -0.042264 0.063586 0.071813
v -0.041826 0.064424 0.071452
v -0.049128 0.060352 0.071918
v -0.044280 0.062780 0.071850
v -0.045893 0.061973 0.071887
v -0.054382 0.057120 0.071943
v -0.051550 0.059548 0.071875
v -0.053222 0.058480 0.071894
v -0.060847 0.051463 0.071962
v -0.063340 0.048169 0.071968
v -0.064887 0.046613 0.071956
v -0.065695 0.045402 0.071956
v -0.066512 0.044997 0.071875
v -0.067309 0.043798 0.071838
v -0.068125 0.042167 0.071831
v -0.068934 0.041358 0.071664
v -0.070438 0.039662 0.071142
v -0.071126 0.039630 0.070265
v -0.071372 0.039553 0.068755
v -0.066524 0.037455 0.042201
v -0.065320 0.039395 0.008526
v -0.070547 0.041763 0.068358
v -0.066129 0.037455 0.012149
v -0.061273 0.046645 0.008532
v -0.060261 0.048014 0.008532
v -0.059527 0.048918 0.008532
v -0.058324 0.050235 0.008532
v -0.057578 0.051019 0.008532
v -0.056730 0.051802 0.008532
v -0.055659 0.052735 0.008532
v -0.054866 0.053412 0.008532
v -0.053628 0.054333 0.008532
v -0.052640 0.055016 0.008532
v -0.051206 0.055941 0.008532
v -0.050018 0.056624 0.008532
v -0.048413 0.057456 0.008532
v -0.046756 0.058208 0.008532
v -0.045491 0.058724 0.008532
v -0.044104 0.059232 0.008532
v -0.043072 0.059560 0.008532
v -0.041904 0.059878 0.008532
v -0.040240 0.060257 0.008532
v -0.062890 0.044231 0.008526
v -0.066965 0.048723 0.068519
v -0.042264 0.065822 0.068358
v -0.042686 0.065638 0.069339
v -0.043936 0.064935 0.070321
v -0.043068 0.064837 0.070843
v -0.045096 0.064806 0.069986
v -0.042170 0.064783 0.071166
v -0.043068 0.063931 0.071570
v -0.045487 0.062780 0.071757
v -0.048319 0.061161 0.071863
v -0.047510 0.061973 0.071769
v -0.058429 0.053886 0.071950
v -0.055191 0.057120 0.071894
v -0.049530 0.061161 0.071738
v -0.051147 0.060352 0.071744
v -0.052757 0.059548 0.071732
v -0.054382 0.057927 0.071869
v -0.062062 0.051059 0.071856
v -0.064148 0.048169 0.071912
v -0.060445 0.053073 0.071819
v -0.064887 0.047422 0.071887
v -0.065695 0.046613 0.071850
v -0.066512 0.045807 0.071763
v -0.068348 0.044116 0.071260
v -0.070122 0.040902 0.070968
v -0.070188 0.042133 0.070147
v -0.070922 0.040506 0.069911
v -0.070918 0.040859 0.068861
v -0.064414 0.041450 0.008526
v -0.070110 0.042851 0.068755
v -0.070575 0.041763 0.069159
v -0.066141 0.049902 0.068755
v -0.065359 0.050973 0.069023
v -0.062930 0.053969 0.068358
v -0.061531 0.055352 0.068358
v -0.059156 0.057456 0.068358
v -0.056925 0.059227 0.068358
v -0.055972 0.059927 0.068358
v -0.054859 0.060639 0.068358
v -0.053413 0.061508 0.068358
v -0.049882 0.063285 0.068358
v -0.048725 0.063767 0.068358
v -0.047471 0.064258 0.068358
v -0.044682 0.065193 0.068358
v -0.043510 0.065529 0.068358
v -0.063574 0.043051 0.008526
v -0.068489 0.046091 0.068755
v -0.067723 0.047434 0.069159
v -0.067070 0.048312 0.069600
v -0.044280 0.065288 0.069159
v -0.045377 0.064094 0.070905
v -0.047416 0.064241 0.069296
v -0.046811 0.064140 0.070166
v -0.044033 0.063850 0.071465
v -0.046295 0.063075 0.071483
v -0.048725 0.061973 0.071564
v -0.056808 0.056311 0.071831
v -0.059640 0.053886 0.071813
v -0.050804 0.061307 0.071409
v -0.054382 0.058736 0.071657
v -0.055191 0.057927 0.071744
v -0.052206 0.060487 0.071446
v -0.063676 0.049041 0.071875
v -0.061660 0.052267 0.071738
v -0.059234 0.054695 0.071726
v -0.064891 0.048235 0.071763
v -0.065711 0.047813 0.071552
v -0.066676 0.047293 0.071191
v -0.067684 0.045247 0.071297
v -0.069254 0.043057 0.070905
v -0.067723 0.046214 0.070800
v -0.069551 0.043640 0.070079
v -0.069493 0.044090 0.068358
v -0.069508 0.044116 0.069159
v -0.065348 0.050525 0.070216
v -0.064535 0.051928 0.069389
v -0.063660 0.053071 0.069159
v -0.062344 0.054551 0.068755
v -0.060304 0.056466 0.068960
v -0.058945 0.057614 0.069159
v -0.057874 0.058480 0.068979
v -0.056890 0.059195 0.069159
v -0.055538 0.060111 0.069215
v -0.054472 0.060814 0.069159
v -0.053269 0.061505 0.069259
v -0.051542 0.062455 0.068786
v -0.050022 0.063141 0.069246
v -0.045901 0.064806 0.068830
v -0.069067 0.044997 0.069159
v -0.068481 0.045723 0.070079
v -0.067672 0.047115 0.070079
v -0.066985 0.047945 0.070483
v -0.065902 0.049638 0.070390
v -0.048960 0.062450 0.071241
v -0.047600 0.062900 0.071322
v -0.049116 0.063248 0.070197
v -0.057620 0.056311 0.071657
v -0.050034 0.062211 0.071030
v -0.051600 0.061626 0.070856
v -0.055073 0.059000 0.071328
v -0.057335 0.057602 0.071235
v -0.057609 0.057120 0.071353
v -0.054257 0.059715 0.071185
v -0.060984 0.054135 0.071322
v -0.061945 0.053168 0.071328
v -0.063305 0.051478 0.071390
v -0.059320 0.055783 0.071309
v -0.064359 0.049968 0.071452
v -0.065211 0.049319 0.071253
v -0.066106 0.048235 0.071185
v -0.064586 0.051420 0.070284
v -0.062941 0.053765 0.069451
v -0.061293 0.055134 0.070048
v -0.059105 0.057198 0.069924
v -0.057484 0.058383 0.070147
v -0.055132 0.060022 0.070259
v -0.054116 0.060742 0.070154
v -0.052788 0.061523 0.070085
v -0.051952 0.062013 0.069967
v -0.051026 0.062412 0.070203
v -0.063723 0.051911 0.070850
v -0.053284 0.060768 0.070794
v -0.058863 0.056632 0.070992
v -0.056191 0.059218 0.070352
v -0.058167 0.057634 0.070526
v -0.060316 0.055080 0.071160
v -0.062726 0.052330 0.071316
v -0.063375 0.052784 0.070296
v -0.062191 0.054021 0.070340
v -0.060164 0.056018 0.070321
f 1 2 6
f 1 6 28
f 1 28 36
f 1 36 17
f 1 17 16
f 1 16 3
f 1 3 4
f 1 4 5
f 1 5 2
f 2 5 7
f 2 7 8
f 2 8 9
f 2 9 10
f 2 10 11
f 2 11 12
f 2 12 13
f 2 13 14
f 2 14 15
f 2 15 6
f 3 16 4
f 4 16 17
f 4 17 18
f 4 18 19
f 4 19 20
f 4 20 21
f 4 21 22
f 4 22 23
f 4 23 24
f 4 24 5
f 5 24 25
f 5 25 26
f 5 26 27
f 5 27 7
f 6 15 28
f 7 27 29
f 7 29 8
f 8 29 30
f 8 30 9
f 9 31 10
f 9 30 31
f 10 31 32
f 10 32 33
f 10 33 11
f 11 33 34
f 11 34 13
f 11 13 12
f 13 34 33
f 13 33 32
f 13 32 63
f 13 63 62
f 13 62 61
f 13 61 60
f 13 60 59
f 13 59 100
f 13 100 103
f 13 103 69
f 13 69 37
f 13 37 67
f 13 67 66
f 13 66 65
f 13 65 64
f 13 64 35
f 13 35 15
f 13 15 14
f 15 35 28
f 17 36 18
f 18 36 37
f 18 37 38
f 18 38 19
f 19 38 39
f 19 39 20
f 20 40 41
f 20 41 42
f 20 42 21
f 20 39 43
f 20 43 44
f 20 44 45
f 20 45 40
f 21 42 22
f 22 42 46
f 22 46 47
f 22 47 23
f 23 47 48
f 23 48 24
f 24 48 49
f 24 49 25
f 25 50 51
f 25 51 26
f 25 49 52
f 25 52 50
f 26 51 53
f 26 53 54
f 26 54 55
f 26 55 56
f 26 56 27
f 27 56 57
f 27 57 58
f 27 58 59
f 27 59 60
f 27 60 29
f 28 35 36
f 29 60 30
f 30 60 31
f 31 60 61
f 31 61 62
f 31 62 63
f 31 63 32
f 35 64 36
f 36 64 65
f 36 65 66
f 36 66 67
f 36 67 37
f 37 68 101
f 37 101 152
f 37 152 169
f 37 169 123
f 37 123 71
f 37 71 38
f 37 69 70
f 37 70 68
f 38 71 44
f 38 44 43
f 38 43 39
f 40 45 72
f 40 72 73
f 40 73 74
f 40 74 75
f 40 75 41
f 41 75 76
f 41 76 46
f 41 46 42
f 44 71 72
f 44 72 45
f 46 76 47
f 47 77 78
f 47 78 48
f 47 76 77
f 48 78 79
f 48 79 80
f 48 80 52
f 48 52 49
f 50 53 51
f 50 52 81
f 50 81 53
f 52 80 82
f 52 82 81
f 53 83 54
f 53 81 84
f 53 84 85
f 53 85 83
f 54 86 55
f 54 83 87
f 54 87 88
f 54 88 86
f 55 89 56
f 55 86 89
f 56 89 90
f 56 90 91
f 56 91 92
f 56 92 57
f 57 92 93
f 57 93 94
f 57 94 95
f 57 95 96
f 57 96 58
f 58 96 97
f 58 97 98
f 58 98 99
f 58 99 59
f 59 99 100
f 68 70 99
f 68 99 102
f 68 102 101
f 69 103 99
f 69 99 70
f 71 104 105
f 71 105 106
f 71 106 107
f 71 107 108
f 71 108 109
f 71 109 110
f 71 110 111
f 71 111 112
f 71 112 113
f 71 113 114
f 71 114 115
f 71 115 116
f 71 116 117
f 71 117 118
f 71 118 119
f 71 119 120
f 71 120 121
f 71 121 122
f 71 122 72
f 71 123 124
f 71 124 104
f 72 122 73
f 73 125 74
f 73 122 125
f 74 125 126
f 74 126 75
f 75 126 77
f 75 77 76
f 77 127 128
f 77 128 78
f 77 126 129
f 77 129 127
f 78 128 130
f 78 130 79
f 79 130 80
f 80 130 82
f 81 82 131
f 81 131 132
f 81 132 84
f 82 130 131
f 83 85 133
f 83 133 87
f 84 132 134
f 84 134 85
f 85 134 133
f 86 135 89
f 86 88 136
f 86 136 135
f 87 133 137
f 87 137 138
f 87 138 139
f 87 139 140
f 87 140 88
f 88 140 136
f 89 141 142
f 89 142 91
f 89 91 90
f 89 135 143
f 89 143 141
f 91 142 144
f 91 144 92
f 92 144 145
f 92 145 93
f 93 145 146
f 93 146 94
f 94 146 95
f 95 146 96
f 96 146 147
f 96 147 97
f 97 147 148
f 97 148 98
f 98 148 149
f 98 149 150
f 98 150 99
f 99 150 151
f 99 151 102
f 99 103 100
f 101 102 153
f 101 153 152
f 102 151 154
f 102 154 153
f 104 124 155
f 104 155 105
f 105 155 156
f 105 156 157
f 105 157 106
f 106 157 107
f 107 157 108
f 108 157 158
f 108 158 109
f 109 158 159
f 109 159 110
f 110 159 111
f 111 159 160
f 111 160 112
f 112 160 161
f 112 161 113
f 113 161 114
f 114 161 162
f 114 162 163
f 114 163 115
f 115 163 116
f 116 163 164
f 116 164 117
f 117 164 165
f 117 165 118
f 118 165 166
f 118 166 119
f 119 166 167
f 119 167 120
f 120 167 168
f 120 168 121
f 121 168 125
f 121 125 122
f 123 169 124
f 124 170 171
f 124 171 172
f 124 172 155
f 124 169 170
f 125 168 173
f 125 173 126
f 126 173 129
f 127 174 128
f 127 129 174
f 128 174 130
f 129 173 175
f 129 175 176
f 129 176 174
f 130 174 177
f 130 177 131
f 131 177 132
f 132 177 178
f 132 178 179
f 132 179 134
f 133 134 137
f 134 179 137
f 135 136 180
f 135 180 181
f 135 181 143
f 136 140 180
f 137 179 138
f 138 179 182
f 138 182 139
f 139 183 184
f 139 184 140
f 139 182 185
f 139 185 183
f 140 184 180
f 141 186 142
f 141 143 187
f 141 187 186
f 142 186 144
f 143 181 188
f 143 188 187
f 144 186 189
f 144 189 145
f 145 189 146
f 146 189 190
f 146 190 191
f 146 191 192
f 146 192 147
f 147 193 148
f 147 192 194
f 147 194 193
f 148 193 149
f 149 195 154
f 149 154 150
f 149 193 195
f 150 154 151
f 152 153 196
f 152 196 170
f 152 170 169
f 153 154 197
f 153 197 196
f 154 195 197
f 155 172 156
f 156 172 198
f 156 198 199
f 156 199 200
f 156 200 157
f 157 200 201
f 157 201 158
f 158 201 202
f 158 202 159
f 159 202 203
f 159 203 204
f 159 204 160
f 160 204 205
f 160 205 161
f 161 205 206
f 161 206 207
f 161 207 162
f 162 207 163
f 163 207 208
f 163 208 209
f 163 209 164
f 164 209 210
f 164 210 175
f 164 175 165
f 165 175 166
f 166 175 211
f 166 211 167
f 167 211 173
f 167 173 168
f 170 196 212
f 170 212 171
f 171 212 213
f 171 213 214
f 171 214 172
f 172 214 215
f 172 215 216
f 172 216 198
f 173 211 175
f 174 217 218
f 174 218 177
f 174 176 219
f 174 219 217
f 175 210 219
f 175 219 176
f 177 218 178
f 178 218 179
f 179 218 217
f 179 217 182
f 180 184 220
f 180 220 188
f 180 188 181
f 182 217 221
f 182 221 222
f 182 222 185
f 183 185 223
f 183 223 224
f 183 224 225
f 183 225 184
f 184 225 220
f 185 222 226
f 185 226 223
f 186 187 189
f 187 188 227
f 187 227 228
f 187 228 229
f 187 229 189
f 188 220 230
f 188 230 227
f 189 229 231
f 189 231 190
f 190 231 232
f 190 232 233
f 190 233 191
f 191 233 215
f 191 215 194
f 191 194 192
f 193 194 195
f 194 215 213
f 194 213 195
f 195 213 212
f 195 212 197
f 196 197 212
f 198 216 234
f 198 234 199
f 199 234 200
f 200 234 235
f 200 235 201
f 201 235 202
f 202 235 236
f 202 236 237
f 202 237 203
f 203 237 238
f 203 238 205
f 203 205 204
f 205 238 239
f 205 239 206
f 206 239 240
f 206 240 207
f 207 240 208
f 208 210 209
f 208 240 241
f 208 241 242
f 208 242 210
f 210 242 243
f 210 243 219
f 213 215 214
f 215 233 216
f 216 233 244
f 216 244 234
f 217 219 221
f 219 243 221
f 220 225 230
f 221 243 222
f 222 243 245
f 222 245 226
f 223 226 224
f 224 246 230
f 224 230 225
f 224 226 245
f 224 245 247
f 224 247 248
f 224 248 246
f 227 230 249
f 227 249 228
f 228 249 244
f 228 244 250
f 228 250 229
f 229 250 244
f 229 244 232
f 229 232 231
f 230 246 249
f 232 244 233
f 234 244 251
f 234 251 235
f 235 251 252
f 235 252 236
f 236 252 253
f 236 253 237
f 237 253 248
f 237 248 238
f 238 248 247
f 238 247 239
f 239 247 245
f 239 245 240
f 240 245 241
f 241 245 243
f 241 243 242
f 244 252 251
f 244 249 252
f 246 248 253
f 246 253 249
f 249 253 252
