v -0.004609 0.005097 0.037007
v -0.004599 0.005711 0.012564
v -0.003772 0.006082 0.044143
v -0.004447 0.005154 0.044143
v -0.004609 0.009692 0.044143
v -0.004609 0.011687 0.008213
v -0.004557 0.006007 0.008459
v -0.004512 0.005957 0.009458
v -0.004466 0.005975 0.010137
v -0.004454 0.005957 0.010939
v -0.002646 0.007769 0.044143
v -0.003085 0.007089 0.044132
v -0.002234 0.037248 0.044143
v -0.003163 0.037248 0.013355
v -0.004609 0.013941 0.017670
v -0.002910 0.037248 0.008386
v -0.003027 0.021298 0.008213
v 0.001725 0.024801 0.008213
v -0.001326 0.011728 0.008291
v -0.002819 0.008663 0.008368
v -0.004609 0.013966 0.016784
v -0.003161 0.037248 0.012606
v -0.003853 0.007004 0.008445
v -0.003826 0.006967 0.009328
v -0.003808 0.006942 0.010137
v -0.003795 0.006923 0.010949
v -0.002180 0.008531 0.044143
v -0.003124 0.007945 0.011755
v 0.001203 0.035284 0.044143
v 0.000682 0.037065 0.044132
v 0.000104 0.037248 0.010781
v 0.000091 0.036993 0.008459
v 0.001708 0.027234 0.008213
v -0.001015 0.027234 0.008213
v 0.001764 0.025704 0.008273
v 0.001722 0.024040 0.008368
v 0.001661 0.023152 0.008368
v 0.001587 0.022343 0.008368
v 0.001498 0.021538 0.008368
v 0.001399 0.020886 0.008368
v 0.000708 0.017500 0.008368
v 0.000516 0.016751 0.008368
v -0.000240 0.014265 0.008368
v -0.000501 0.013610 0.008368
v -0.000852 0.012776 0.008368
v -0.001262 0.011602 0.009194
v -0.002244 0.009730 0.008386
v -0.003243 0.007961 0.008407
v -0.002285 0.009538 0.009328
v -0.002839 0.008534 0.009381
v -0.003243 0.007873 0.009381
v -0.003148 0.007986 0.010024
v -0.003133 0.007961 0.010949
v -0.001592 0.009664 0.044143
v -0.002707 0.008606 0.012564
v -0.002068 0.008748 0.043288
v -0.002724 0.008606 0.011755
v 0.001421 0.034475 0.044143
v 0.001024 0.034919 0.025506
v 0.001017 0.035703 0.039451
v 0.000994 0.036027 0.044132
v 0.000492 0.036093 0.012571
v 0.000294 0.036782 0.013376
v 0.000135 0.037198 0.011684
v 0.000280 0.036744 0.011758
v 0.000184 0.036955 0.010095
v 0.000179 0.036914 0.009335
v 0.000342 0.036159 0.008452
v 0.001759 0.026519 0.008277
v 0.000576 0.035284 0.008452
v 0.001267 0.032124 0.008417
v 0.001601 0.029626 0.008452
v 0.001836 0.025579 0.009089
v 0.001821 0.024899 0.009033
v 0.001841 0.023857 0.009898
v 0.001663 0.022343 0.009328
v 0.001810 0.023253 0.010137
v 0.001554 0.021538 0.009328
v 0.001437 0.020732 0.009328
v 0.001310 0.019926 0.009328
v 0.001251 0.019926 0.008519
v 0.001010 0.018715 0.008512
v 0.000805 0.017500 0.009328
v 0.000589 0.016663 0.009342
v 0.000167 0.015429 0.008488
v 0.000153 0.015231 0.009328
v -0.000180 0.014265 0.009328
v -0.000550 0.013314 0.009328
v -0.000810 0.012647 0.009328
v -0.001247 0.011587 0.010137
v -0.002156 0.009692 0.010949
v -0.002376 0.009308 0.010137
v -0.002771 0.008606 0.010137
v -0.002746 0.008606 0.010949
v -0.000946 0.011030 0.044143
v -0.001762 0.009415 0.040865
v -0.001497 0.010004 0.039247
v -0.002340 0.009245 0.012564
v -0.001775 0.009415 0.040053
v -0.002039 0.009170 0.031967
v 0.001617 0.033670 0.044143
v 0.001591 0.033670 0.042483
v 0.000928 0.034507 0.012571
v 0.000716 0.035284 0.011758
v 0.000478 0.036093 0.011758
v 0.000463 0.036093 0.010949
v 0.000445 0.036093 0.010141
v 0.000415 0.036093 0.009335
v 0.000632 0.035284 0.009335
v 0.001832 0.026699 0.009219
v 0.000774 0.034475 0.008452
v 0.000838 0.034475 0.009335
v 0.001024 0.033720 0.009335
v 0.001023 0.033377 0.008463
v 0.001220 0.032858 0.009335
v 0.001357 0.032052 0.009335
v 0.001399 0.031243 0.008452
v 0.001502 0.030431 0.008452
v 0.001568 0.030431 0.009335
v 0.001650 0.029626 0.009335
v 0.001867 0.026390 0.010137
v 0.001867 0.025579 0.010137
v 0.001865 0.024770 0.010137
v 0.001874 0.023964 0.010949
v 0.001691 0.022343 0.010137
v 0.002163 0.023964 0.025510
v 0.002087 0.023152 0.024697
v 0.001819 0.023165 0.010949
v 0.001830 0.020669 0.028728
v 0.001327 0.019926 0.010137
v 0.001158 0.019118 0.009328
v 0.001204 0.019118 0.010949
v 0.001183 0.019118 0.010137
v 0.000999 0.018369 0.009328
v 0.001013 0.018302 0.010137
v 0.000827 0.017500 0.010137
v 0.000357 0.015882 0.009328
v 0.000610 0.016663 0.010165
v 0.000385 0.015882 0.010137
v 0.000169 0.015181 0.010137
v 0.000184 0.015133 0.010949
v -0.000151 0.014265 0.010137
v -0.000123 0.014265 0.010949
v -0.000101 0.014265 0.011755
v -0.000701 0.012858 0.010299
v -0.002248 0.009465 0.011755
v -0.000515 0.012446 0.030951
v -0.000516 0.012046 0.041671
v -0.001163 0.011030 0.030346
v -0.001375 0.010548 0.031158
v -0.001560 0.010133 0.031967
v -0.000599 0.011791 0.044143
v 0.001764 0.032971 0.044143
v 0.001315 0.032858 0.014185
v 0.001113 0.033670 0.012571
v 0.001031 0.033991 0.011825
v 0.000907 0.034475 0.010949
v 0.000701 0.035284 0.010949
v 0.000672 0.035284 0.010141
v 0.000879 0.034475 0.010141
v 0.001856 0.027511 0.010949
v 0.001895 0.027215 0.011755
v 0.001040 0.033789 0.010141
v 0.001239 0.032858 0.010141
v 0.001378 0.032052 0.010141
v 0.001492 0.031243 0.010141
v 0.001602 0.030431 0.010141
v 0.001673 0.029626 0.010141
v 0.001838 0.028241 0.011934
v 0.002002 0.025579 0.015799
v 0.001990 0.024770 0.015799
v 0.002017 0.021538 0.031967
v 0.002433 0.027995 0.044122
v 0.002383 0.025579 0.040865
v 0.002428 0.025560 0.044122
v 0.002346 0.023964 0.040053
v 0.002306 0.023152 0.040053
v 0.002103 0.021538 0.036817
v 0.001998 0.020732 0.036817
v 0.001806 0.020420 0.029537
v 0.001221 0.019118 0.011755
v 0.001070 0.018466 0.010949
v 0.000976 0.018060 0.010949
v 0.001200 0.018306 0.019844
v 0.001317 0.018306 0.026298
v 0.001184 0.017500 0.030346
v 0.000406 0.015882 0.010949
v 0.001008 0.016795 0.031158
v 0.000948 0.016524 0.031967
v 0.000194 0.015096 0.011755
v 0.000373 0.014781 0.028728
v -0.000109 0.013456 0.030346
v -0.000096 0.013456 0.031158
v -0.000256 0.012647 0.042483
v -0.000245 0.012647 0.043288
v 0.000411 0.014265 0.044143
v -0.000244 0.012631 0.044122
v 0.000153 0.013601 0.044132
v 0.001945 0.032052 0.044143
v 0.001860 0.031838 0.036008
v 0.001443 0.032052 0.013376
v 0.001286 0.032858 0.012571
v 0.001049 0.033836 0.010949
v 0.001872 0.028005 0.012571
v 0.001912 0.027215 0.012550
v 0.001271 0.032858 0.011758
v 0.001428 0.032052 0.012571
v 0.001395 0.032052 0.010949
v 0.001509 0.031243 0.010949
v 0.002318 0.029626 0.044143
v 0.002406 0.028817 0.044122
v 0.001989 0.026390 0.015799
v 0.001926 0.027215 0.013355
v 0.002410 0.024748 0.044143
v 0.002355 0.023964 0.040865
v 0.002311 0.023152 0.040865
v 0.002216 0.022343 0.042483
v 0.002010 0.020732 0.041671
v 0.001887 0.019974 0.042483
v 0.001849 0.019785 0.041671
v 0.001874 0.020081 0.036817
v 0.001825 0.019901 0.036008
v 0.001513 0.019118 0.027107
v 0.001364 0.019118 0.019032
v 0.001348 0.019118 0.018226
v 0.001080 0.018441 0.011755
v 0.001331 0.018306 0.027107
v 0.001358 0.018306 0.028728
v 0.001470 0.018306 0.036008
v 0.001196 0.017500 0.031158
v 0.000754 0.015882 0.031158
v 0.001278 0.017500 0.036817
v 0.001022 0.016505 0.037630
v 0.000852 0.015882 0.037630
v 0.000483 0.015074 0.029537
v 0.000612 0.015074 0.038435
v 0.000690 0.015074 0.044143
v 0.002093 0.031221 0.044143
v 0.002208 0.030431 0.044143
v 0.002364 0.023964 0.044143
v 0.002312 0.023152 0.041671
v 0.002312 0.023152 0.042483
v 0.002102 0.021497 0.044143
v 0.002003 0.020732 0.044143
v 0.001791 0.019435 0.044143
v 0.001720 0.019118 0.042483
v 0.001658 0.019118 0.036008
v 0.001646 0.019118 0.035199
v 0.001481 0.018306 0.036817
v 0.001556 0.018287 0.044143
v 0.001356 0.017500 0.044143
v 0.001144 0.016666 0.044143
v 0.000972 0.016021 0.044143
v 0.000863 0.015882 0.038435
v 0.002294 0.023152 0.044143
v 0.002202 0.022343 0.044143
f 1 2 3
f 1 3 4
f 1 4 5
f 1 5 15
f 1 15 21
f 1 21 6
f 1 6 2
f 2 6 7
f 2 7 8
f 2 8 9
f 2 9 10
f 2 10 3
f 3 11 27
f 3 27 54
f 3 54 95
f 3 95 152
f 3 152 196
f 3 196 237
f 3 237 253
f 3 253 252
f 3 252 251
f 3 251 250
f 3 250 245
f 3 245 244
f 3 244 243
f 3 243 256
f 3 256 255
f 3 255 240
f 3 240 214
f 3 214 210
f 3 210 239
f 3 239 238
f 3 238 199
f 3 199 153
f 3 153 101
f 3 101 58
f 3 58 29
f 3 29 13
f 3 13 5
f 3 5 4
f 3 10 12
f 3 12 11
f 5 13 14
f 5 14 15
f 6 16 17
f 6 17 34
f 6 34 33
f 6 33 18
f 6 18 19
f 6 19 20
f 6 20 7
f 6 21 22
f 6 22 16
f 7 20 23
f 7 23 8
f 8 23 24
f 8 24 9
f 9 24 25
f 9 25 26
f 9 26 10
f 10 26 12
f 11 12 26
f 11 26 28
f 11 28 27
f 13 29 30
f 13 30 31
f 13 31 16
f 13 16 22
f 13 22 14
f 14 22 21
f 14 21 15
f 16 31 32
f 16 32 33
f 16 33 34
f 16 34 17
f 18 33 35
f 18 35 36
f 18 36 37
f 18 37 38
f 18 38 39
f 18 39 40
f 18 40 41
f 18 41 42
f 18 42 19
f 19 42 43
f 19 43 44
f 19 44 45
f 19 45 46
f 19 46 47
f 19 47 20
f 20 48 23
f 20 47 49
f 20 49 50
f 20 50 48
f 23 48 51
f 23 51 24
f 24 51 25
f 25 51 52
f 25 52 53
f 25 53 26
f 26 53 28
f 27 28 55
f 27 55 56
f 27 56 54
f 28 53 57
f 28 57 55
f 29 58 59
f 29 59 60
f 29 60 61
f 29 61 30
f 30 61 62
f 30 62 63
f 30 63 64
f 30 64 31
f 31 64 65
f 31 65 66
f 31 66 67
f 31 67 32
f 32 68 33
f 32 67 68
f 33 69 35
f 33 68 70
f 33 70 71
f 33 71 72
f 33 72 69
f 35 69 73
f 35 73 74
f 35 74 36
f 36 74 75
f 36 75 37
f 37 76 38
f 37 75 77
f 37 77 76
f 38 76 39
f 39 76 78
f 39 78 79
f 39 79 40
f 40 79 80
f 40 80 81
f 40 81 82
f 40 82 41
f 41 82 83
f 41 83 42
f 42 83 84
f 42 84 85
f 42 85 43
f 43 85 86
f 43 86 87
f 43 87 88
f 43 88 89
f 43 89 44
f 44 89 46
f 44 46 45
f 46 89 90
f 46 90 91
f 46 91 49
f 46 49 47
f 48 50 51
f 49 91 92
f 49 92 50
f 50 92 93
f 50 93 53
f 50 53 52
f 50 52 51
f 53 94 57
f 53 93 94
f 54 56 96
f 54 96 97
f 54 97 95
f 55 98 56
f 55 57 98
f 56 99 96
f 56 98 100
f 56 100 99
f 57 94 98
f 58 101 102
f 58 102 103
f 58 103 59
f 59 103 104
f 59 104 60
f 60 104 61
f 61 104 62
f 62 104 105
f 62 105 65
f 62 65 63
f 63 65 64
f 65 105 106
f 65 106 66
f 66 106 107
f 66 107 67
f 67 108 68
f 67 107 108
f 68 108 109
f 68 109 70
f 69 72 110
f 69 110 73
f 70 111 71
f 70 109 112
f 70 112 113
f 70 113 111
f 71 111 114
f 71 114 115
f 71 115 116
f 71 116 117
f 71 117 118
f 71 118 72
f 72 118 119
f 72 119 120
f 72 120 110
f 73 110 121
f 73 121 122
f 73 122 123
f 73 123 75
f 73 75 74
f 75 123 124
f 75 124 77
f 76 77 125
f 76 125 78
f 77 124 126
f 77 126 127
f 77 127 128
f 77 128 125
f 78 125 79
f 79 125 129
f 79 129 130
f 79 130 80
f 80 131 81
f 80 130 132
f 80 132 133
f 80 133 131
f 81 131 82
f 82 131 134
f 82 134 83
f 83 134 135
f 83 135 136
f 83 136 84
f 84 137 85
f 84 136 138
f 84 138 139
f 84 139 137
f 85 137 86
f 86 137 140
f 86 140 87
f 87 140 141
f 87 141 142
f 87 142 88
f 88 142 89
f 89 142 143
f 89 143 144
f 89 144 145
f 89 145 90
f 90 146 91
f 90 145 147
f 90 147 148
f 90 148 149
f 90 149 150
f 90 150 151
f 90 151 98
f 90 98 146
f 91 146 92
f 92 94 93
f 92 146 98
f 92 98 94
f 95 97 149
f 95 149 148
f 95 148 152
f 96 99 97
f 97 99 151
f 97 151 150
f 97 150 149
f 98 151 99
f 98 99 100
f 101 153 102
f 102 153 154
f 102 154 155
f 102 155 156
f 102 156 103
f 103 156 157
f 103 157 104
f 104 157 158
f 104 158 106
f 104 106 105
f 106 158 107
f 107 159 108
f 107 158 159
f 108 159 109
f 109 159 160
f 109 160 112
f 110 120 161
f 110 161 162
f 110 162 121
f 111 113 114
f 112 160 113
f 113 115 114
f 113 160 163
f 113 163 115
f 115 163 164
f 115 164 165
f 115 165 116
f 116 119 117
f 116 165 166
f 116 166 167
f 116 167 119
f 117 119 118
f 119 167 120
f 120 167 168
f 120 168 169
f 120 169 161
f 121 162 170
f 121 170 122
f 122 170 123
f 123 170 124
f 124 170 171
f 124 171 126
f 125 128 172
f 125 172 129
f 126 171 170
f 126 170 173
f 126 173 174
f 126 174 175
f 126 175 176
f 126 176 177
f 126 177 127
f 127 177 178
f 127 178 172
f 127 172 128
f 129 172 179
f 129 179 180
f 129 180 130
f 130 181 132
f 130 180 181
f 131 133 135
f 131 135 134
f 132 181 182
f 132 182 133
f 133 182 135
f 135 182 136
f 136 182 183
f 136 183 184
f 136 184 185
f 136 185 186
f 136 186 138
f 137 139 141
f 137 141 140
f 138 187 139
f 138 186 188
f 138 188 189
f 138 189 187
f 139 187 190
f 139 190 141
f 141 190 143
f 141 143 142
f 143 190 144
f 144 190 191
f 144 191 192
f 144 192 145
f 145 192 147
f 147 192 193
f 147 193 194
f 147 194 148
f 148 194 195
f 148 195 152
f 152 195 197
f 152 197 198
f 152 198 196
f 153 199 200
f 153 200 154
f 154 201 202
f 154 202 155
f 154 200 201
f 155 202 203
f 155 203 156
f 156 203 157
f 157 203 163
f 157 163 160
f 157 160 158
f 158 160 159
f 161 169 204
f 161 204 162
f 162 204 205
f 162 205 170
f 163 203 164
f 164 203 206
f 164 206 207
f 164 207 208
f 164 208 165
f 165 208 166
f 166 208 209
f 166 209 167
f 167 209 210
f 167 210 211
f 167 211 204
f 167 204 169
f 167 169 168
f 170 205 212
f 170 212 173
f 172 178 179
f 173 175 174
f 173 212 213
f 173 213 211
f 173 211 210
f 173 210 214
f 173 214 175
f 175 214 176
f 176 214 215
f 176 215 177
f 177 215 216
f 177 216 178
f 178 216 217
f 178 217 218
f 178 218 179
f 179 218 219
f 179 219 220
f 179 220 221
f 179 221 222
f 179 222 180
f 180 223 224
f 180 224 225
f 180 225 181
f 180 222 223
f 181 225 182
f 182 225 226
f 182 226 183
f 183 226 184
f 184 223 185
f 184 226 223
f 185 223 227
f 185 227 186
f 186 227 228
f 186 228 229
f 186 229 230
f 186 230 188
f 187 189 231
f 187 231 190
f 188 230 189
f 189 230 232
f 189 232 233
f 189 233 234
f 189 234 231
f 190 231 235
f 190 235 191
f 191 235 236
f 191 236 196
f 191 196 193
f 191 193 192
f 193 196 198
f 193 198 194
f 194 198 195
f 195 198 197
f 196 236 237
f 199 238 200
f 200 238 201
f 201 207 202
f 201 238 239
f 201 239 210
f 201 210 209
f 201 209 207
f 202 207 206
f 202 206 203
f 204 211 205
f 205 211 213
f 205 213 212
f 207 209 208
f 214 240 216
f 214 216 215
f 216 240 241
f 216 241 217
f 217 241 242
f 217 242 243
f 217 243 218
f 218 243 244
f 218 244 219
f 219 244 245
f 219 245 220
f 220 245 246
f 220 246 221
f 221 247 222
f 221 246 247
f 222 247 248
f 222 248 223
f 223 248 228
f 223 228 227
f 223 226 224
f 224 226 225
f 228 248 229
f 229 248 247
f 229 247 249
f 229 249 232
f 229 232 230
f 231 234 235
f 232 249 250
f 232 250 251
f 232 251 252
f 232 252 253
f 232 253 233
f 233 253 254
f 233 254 234
f 234 254 236
f 234 236 235
f 236 254 237
f 237 254 253
f 240 255 242
f 240 242 241
f 242 255 256
f 242 256 243
f 245 250 246
f 246 250 247
f 247 250 249
