v -0.067894 0.026904 0.007989
v -0.067710 0.030122 0.008438
v -0.067805 0.028267 0.007852
v -0.067751 0.025595 0.007234
v -0.067785 0.023638 0.007805
v -0.067642 0.021879 0.007857
v -0.067492 0.030844 0.007706
v -0.067362 0.020339 0.007954
v -0.061843 0.006343 0.010831
v -0.064412 0.041432 0.008515
v -0.066776 0.034839 0.008144
v -0.063717 0.030885 -0.000029
v -0.064289 0.024381 0.000437
v -0.067117 0.021082 0.006739
v -0.066851 0.018334 0.007604
v -0.067131 0.032392 0.007454
v -0.066197 0.015430 0.008189
v -0.065570 0.013794 0.007933
v -0.064432 0.011169 0.007980
v -0.063792 0.009847 0.008001
v -0.062088 0.006793 0.008920
v -0.061434 0.005797 0.009729
v -0.059730 0.003534 0.011127
v -0.060998 0.047002 0.008515
v -0.062640 0.044595 0.008516
v -0.063635 0.042863 0.008312
v -0.063921 0.041991 0.007463
v -0.064514 0.040798 0.007467
v -0.065488 0.038800 0.008058
v -0.065938 0.037580 0.008086
v -0.066367 0.036141 0.007988
v -0.062919 0.030013 -0.000809
v -0.063839 0.026788 -0.000142
v -0.062967 0.034117 -0.000061
v -0.063165 0.032446 -0.000247
v -0.063505 0.023611 -0.000434
v -0.063519 0.021886 -0.000290
v -0.063028 0.018723 -0.000140
v -0.062878 0.017469 0.000028
v -0.066367 0.016494 0.007582
v -0.064575 0.012056 0.007155
v -0.062245 0.007454 0.007475
v -0.062960 0.008477 0.007825
v -0.061168 0.005552 0.008369
v -0.059839 0.003745 0.009324
v -0.058395 0.002102 0.008407
v -0.058933 0.002620 0.011127
v -0.056507 0.006922 0.011127
v -0.057693 0.050772 0.008001
v -0.060078 0.048092 0.007920
v -0.061604 0.045972 0.007812
v -0.053420 0.054460 0.008515
v -0.062524 0.044377 0.007283
v -0.060303 0.040641 -0.000115
v -0.061775 0.037137 -0.000216
v -0.062320 0.035685 -0.000199
v -0.016377 0.001339 -0.000659
v -0.050326 0.001332 -0.000593
v -0.059022 0.010433 -0.000593
v -0.060970 0.038173 -0.000325
v -0.052991 0.049401 -0.000476
v -0.029924 0.056314 -0.000605
v -0.008697 0.043770 -0.000782
v -0.062374 0.016698 -0.000249
v -0.061754 0.014762 -0.000179
v -0.060970 0.013024 -0.000201
v -0.060269 0.011360 -0.000108
v -0.061352 0.006206 0.007338
v -0.058688 0.008899 -0.000164
v -0.060105 0.004495 0.007332
v -0.057740 0.001809 0.007249
v -0.056739 0.000698 0.007576
v -0.056405 0.000091 0.008921
v -0.057250 0.000882 0.009323
v -0.056698 0.000323 0.010620
v -0.055498 0.000057 0.011127
v -0.051655 0.000057 0.011127
v -0.003906 0.045290 0.008379
v -0.032963 0.060998 0.008516
v -0.034156 0.060957 0.008515
v -0.043062 0.059545 0.008515
v -0.058851 0.049456 0.007501
v -0.055621 0.052694 0.008107
v -0.056582 0.051828 0.008003
v -0.059280 0.048522 0.006746
v -0.048827 0.057187 0.008265
v -0.052418 0.055128 0.008265
v -0.054660 0.053498 0.008112
v -0.056793 0.046006 -0.000128
v -0.058769 0.043238 -0.000026
v -0.057713 0.044602 -0.000195
v -0.003443 0.022759 -0.000622
v -0.005058 0.015083 -0.000524
v -0.009917 0.006990 -0.000521
v -0.012234 0.003507 -0.000241
v -0.015143 0.001673 -0.000462
v -0.017399 0.000118 -0.000443
v -0.020459 -0.001627 -0.000237
v -0.049270 0.000125 -0.000241
v -0.051737 0.001373 -0.000087
v -0.054851 0.004427 -0.000340
v -0.055430 0.047486 -0.000130
v -0.051573 0.051065 0.000008
v -0.048943 0.052755 -0.000055
v -0.048718 0.052265 -0.000437
v -0.042776 0.054835 -0.000425
v -0.040221 0.055816 -0.000351
v -0.035375 0.056900 -0.000217
v -0.032759 0.057166 0.000073
v -0.028357 0.056546 -0.000311
v -0.025276 0.055503 -0.000517
v -0.017195 0.051460 -0.000632
v -0.010319 0.046388 -0.000519
v -0.008895 0.044949 -0.000379
v -0.007416 0.043395 -0.000123
v -0.006380 0.041295 -0.000293
v -0.004915 0.037300 -0.000511
v -0.058054 0.007747 0.000041
v -0.057182 0.006609 0.000063
v -0.031335 -0.008165 0.006674
v -0.030742 -0.008649 0.008084
v -0.019614 -0.006038 0.008210
v -0.004424 0.006261 0.008210
v 0.001722 0.027224 0.008379
v 0.001238 0.032187 0.008379
v -0.002305 0.042495 0.008186
v -0.002932 0.043525 0.007822
v -0.004663 0.046279 0.007844
v -0.006925 0.049299 0.008301
v -0.016643 0.056853 0.008183
v -0.024847 0.060016 0.008240
v -0.026489 0.060377 0.008211
v -0.027784 0.060602 0.008043
v -0.029392 0.060773 0.007872
v -0.031253 0.060895 0.007939
v -0.032963 0.060827 0.007317
v -0.035580 0.060827 0.007970
v -0.037100 0.060725 0.008415
v -0.039621 0.060323 0.008110
v -0.041222 0.059982 0.008060
v -0.044037 0.059109 0.007777
v -0.046156 0.058414 0.008282
v -0.054981 0.052824 0.006896
v -0.047771 0.057541 0.007468
v -0.050619 0.056191 0.008052
v -0.053808 0.053908 0.007293
v -0.002366 0.026788 -0.000323
v -0.002251 0.023570 -0.000209
v -0.003838 0.017305 -0.000368
v -0.004077 0.015423 -0.000115
v -0.004915 0.013883 -0.000194
v -0.006544 0.010590 -0.000203
v -0.006203 0.012056 -0.000361
v -0.008636 0.007979 -0.000369
v -0.011034 0.004611 -0.000206
v -0.013685 0.001986 -0.000059
v -0.016234 0.000193 -0.000059
v -0.017535 -0.000713 -0.000006
v -0.018823 -0.000809 -0.000288
v -0.020813 -0.006372 0.007524
v -0.022394 -0.007040 0.007831
v -0.026503 -0.007974 0.007314
v -0.028104 -0.008103 0.007054
v -0.029931 -0.008117 0.006710
v -0.044480 0.054910 -0.000090
v -0.047362 0.053205 -0.000312
v -0.045754 0.054017 -0.000297
v -0.041686 0.055619 -0.000237
v -0.037665 0.056703 -0.000087
v -0.037393 0.060329 0.006896
v -0.031743 0.057364 0.000432
v -0.027314 0.060193 0.006877
v -0.025276 0.056062 -0.000168
v -0.023648 0.055230 -0.000335
v -0.021236 0.054562 -0.000201
v -0.021236 0.053880 -0.000531
v -0.013528 0.049953 -0.000222
v -0.012186 0.048610 -0.000314
v -0.018285 0.052728 -0.000404
v -0.015920 0.051610 -0.000279
v -0.009440 0.046286 -0.000053
v -0.010714 0.047601 -0.000139
v -0.005426 0.047049 0.007231
v -0.002128 0.041561 0.007129
v -0.005433 0.040198 0.000013
v -0.004874 0.038739 -0.000114
v -0.003702 0.035794 -0.000117
v -0.003177 0.033053 -0.000299
v -0.028915 -0.008451 0.007957
v -0.027702 -0.008287 0.007957
v -0.025495 -0.007906 0.007963
v -0.024234 -0.007585 0.007926
v -0.019314 -0.005792 0.007583
v -0.018210 -0.005397 0.007948
v -0.013017 -0.002343 0.007957
v -0.010537 -0.000393 0.007871
v -0.008336 0.001680 0.007860
v -0.007266 0.002893 0.007588
v -0.005849 0.004550 0.007630
v -0.004602 0.006302 0.007449
v -0.003695 0.007481 0.007692
v -0.002673 0.009172 0.007763
v -0.001174 0.012260 0.007898
v 0.000039 0.015423 0.007851
v 0.000884 0.018696 0.007902
v 0.001579 0.022963 0.008020
v 0.001702 0.026052 0.007957
v 0.001531 0.029208 0.007873
v 0.001211 0.030469 0.007379
v 0.000925 0.033305 0.007864
v 0.000134 0.036516 0.007908
v -0.000302 0.037832 0.007985
v -0.000785 0.039114 0.008030
v -0.001358 0.040320 0.007800
v -0.005985 0.047963 0.007821
v -0.007688 0.049728 0.007346
v -0.008193 0.050601 0.008213
v -0.012097 0.053914 0.007939
v -0.013883 0.055155 0.007899
v -0.015218 0.055994 0.007814
v -0.018448 0.057691 0.007762
v -0.021590 0.059000 0.008043
v -0.023430 0.059477 0.007604
v -0.025692 0.060023 0.007234
v -0.038394 0.060541 0.008112
v -0.039416 0.060091 0.007031
v -0.002162 0.028526 -0.000061
v 0.001198 0.022793 0.006873
v -0.002298 0.022179 -0.000070
v -0.003068 0.019296 -0.000191
v 0.001388 0.026890 0.007094
v -0.000499 0.013883 0.007791
v -0.002169 0.010515 0.007198
v -0.007014 0.009301 -0.000018
v 0.000428 0.017182 0.007586
v -0.009494 0.006111 -0.000068
v -0.009338 0.000698 0.007831
v -0.011825 -0.001450 0.007815
v -0.013426 -0.002390 0.007179
v -0.015573 -0.003924 0.007642
v -0.017079 -0.004736 0.007533
v -0.021978 0.055114 0.000015
v -0.019995 0.054010 -0.000207
v -0.014673 0.051126 -0.000011
v -0.017024 0.052605 -0.000073
v -0.008826 0.050717 0.006986
v -0.010993 0.052776 0.007148
v -0.003075 0.034335 0.000118
v -0.002298 0.030428 0.000162
v -0.014210 -0.003106 0.007756
v 0.001225 0.021314 0.007377
v 0.001634 0.024416 0.007831
v 0.000428 0.034792 0.007435
v -0.010094 0.052292 0.007927
v -0.020207 0.058427 0.007786
f 1 2 3
f 1 3 4
f 1 4 5
f 1 5 6
f 1 6 2
f 2 7 3
f 2 6 8
f 2 8 9
f 2 9 10
f 2 10 11
f 2 11 7
f 3 7 12
f 3 12 4
f 4 13 14
f 4 14 6
f 4 6 5
f 4 12 13
f 6 14 15
f 6 15 8
f 7 11 16
f 7 16 12
f 8 15 17
f 8 17 9
f 9 17 18
f 9 18 19
f 9 19 20
f 9 20 21
f 9 21 22
f 9 22 23
f 9 23 24
f 9 24 25
f 9 25 10
f 10 25 26
f 10 26 27
f 10 27 28
f 10 28 29
f 10 29 30
f 10 30 11
f 11 30 31
f 11 31 16
f 12 32 33
f 12 33 13
f 12 16 34
f 12 34 35
f 12 35 32
f 13 36 37
f 13 37 14
f 13 33 36
f 14 37 38
f 14 38 39
f 14 39 15
f 15 39 40
f 15 40 17
f 16 31 34
f 17 40 18
f 18 40 41
f 18 41 19
f 19 41 20
f 20 41 42
f 20 42 43
f 20 43 21
f 21 43 42
f 21 42 44
f 21 44 22
f 22 44 45
f 22 45 23
f 23 45 46
f 23 46 47
f 23 47 76
f 23 76 77
f 23 77 48
f 23 48 24
f 24 49 50
f 24 50 51
f 24 51 25
f 24 48 52
f 24 52 49
f 25 51 53
f 25 53 26
f 26 53 27
f 27 54 28
f 27 53 54
f 28 54 55
f 28 55 56
f 28 56 34
f 28 34 30
f 28 30 29
f 30 34 31
f 32 57 58
f 32 58 59
f 32 59 36
f 32 36 33
f 32 35 56
f 32 56 55
f 32 55 60
f 32 60 61
f 32 61 62
f 32 62 63
f 32 63 57
f 34 56 35
f 36 59 64
f 36 64 37
f 37 64 38
f 38 64 39
f 39 64 65
f 39 65 41
f 39 41 40
f 41 65 66
f 41 66 67
f 41 67 42
f 42 68 44
f 42 67 69
f 42 69 68
f 44 70 46
f 44 46 45
f 44 68 70
f 46 70 71
f 46 71 72
f 46 72 73
f 46 73 74
f 46 74 47
f 47 74 75
f 47 75 76
f 48 77 78
f 48 78 79
f 48 79 80
f 48 80 81
f 48 81 52
f 49 82 50
f 49 52 83
f 49 83 84
f 49 84 82
f 50 82 85
f 50 85 51
f 51 85 53
f 52 81 86
f 52 86 87
f 52 87 88
f 52 88 83
f 53 85 89
f 53 89 90
f 53 90 54
f 54 90 91
f 54 91 60
f 54 60 55
f 57 63 92
f 57 92 93
f 57 93 94
f 57 94 95
f 57 95 96
f 57 96 97
f 57 97 98
f 57 98 58
f 58 98 99
f 58 99 100
f 58 100 101
f 58 101 59
f 59 69 67
f 59 67 66
f 59 66 65
f 59 65 64
f 59 101 69
f 60 91 61
f 61 91 89
f 61 89 102
f 61 102 103
f 61 103 104
f 61 104 105
f 61 105 62
f 62 105 106
f 62 106 107
f 62 107 108
f 62 108 109
f 62 109 110
f 62 110 111
f 62 111 112
f 62 112 63
f 63 112 113
f 63 113 114
f 63 114 115
f 63 115 116
f 63 116 117
f 63 117 92
f 68 69 118
f 68 118 70
f 69 101 119
f 69 119 118
f 70 118 119
f 70 119 71
f 71 119 101
f 71 101 100
f 71 100 72
f 72 99 73
f 72 100 99
f 73 75 74
f 73 99 120
f 73 120 121
f 73 121 75
f 75 121 76
f 76 121 77
f 77 121 122
f 77 122 123
f 77 123 124
f 77 124 125
f 77 125 78
f 78 125 126
f 78 126 127
f 78 127 128
f 78 128 129
f 78 129 79
f 79 129 130
f 79 130 131
f 79 131 132
f 79 132 133
f 79 133 134
f 79 134 135
f 79 135 136
f 79 136 80
f 80 136 137
f 80 137 138
f 80 138 81
f 81 138 139
f 81 139 140
f 81 140 141
f 81 141 142
f 81 142 86
f 82 84 143
f 82 143 85
f 83 88 143
f 83 143 84
f 85 143 102
f 85 102 89
f 86 142 144
f 86 144 145
f 86 145 87
f 87 145 146
f 87 146 88
f 88 146 143
f 89 91 90
f 92 147 148
f 92 148 149
f 92 149 93
f 92 117 147
f 93 149 150
f 93 150 151
f 93 151 152
f 93 152 153
f 93 153 154
f 93 154 94
f 94 155 95
f 94 154 155
f 95 156 96
f 95 155 156
f 96 156 157
f 96 157 97
f 97 157 158
f 97 158 159
f 97 159 98
f 98 159 158
f 98 158 160
f 98 160 161
f 98 161 162
f 98 162 163
f 98 163 164
f 98 164 120
f 98 120 99
f 102 143 103
f 103 143 146
f 103 146 104
f 104 146 145
f 104 145 144
f 104 144 165
f 104 165 166
f 104 166 105
f 105 166 167
f 105 167 106
f 106 167 165
f 106 165 168
f 106 168 107
f 107 168 169
f 107 169 108
f 108 169 170
f 108 170 136
f 108 136 109
f 109 171 110
f 109 136 171
f 110 171 172
f 110 172 173
f 110 173 111
f 111 173 174
f 111 174 175
f 111 175 176
f 111 176 112
f 112 177 178
f 112 178 113
f 112 176 179
f 112 179 180
f 112 180 177
f 113 181 114
f 113 178 182
f 113 182 181
f 114 181 115
f 115 181 183
f 115 183 184
f 115 184 185
f 115 185 116
f 116 185 186
f 116 186 117
f 117 186 187
f 117 187 188
f 117 188 147
f 120 164 121
f 121 164 163
f 121 163 189
f 121 189 190
f 121 190 191
f 121 191 122
f 122 191 192
f 122 192 161
f 122 161 160
f 122 160 193
f 122 193 194
f 122 194 195
f 122 195 123
f 123 195 196
f 123 196 197
f 123 197 198
f 123 198 199
f 123 199 200
f 123 200 201
f 123 201 202
f 123 202 203
f 123 203 124
f 124 203 204
f 124 204 205
f 124 205 206
f 124 206 207
f 124 207 208
f 124 208 125
f 125 208 209
f 125 209 210
f 125 210 211
f 125 211 212
f 125 212 213
f 125 213 126
f 126 213 214
f 126 214 184
f 126 184 127
f 127 183 128
f 127 184 183
f 128 183 215
f 128 215 129
f 129 215 183
f 129 183 216
f 129 216 217
f 129 217 130
f 130 218 219
f 130 219 220
f 130 220 221
f 130 221 222
f 130 222 131
f 130 217 218
f 131 222 223
f 131 223 224
f 131 224 132
f 132 224 133
f 133 224 172
f 133 172 134
f 134 172 136
f 134 136 135
f 136 172 171
f 136 170 137
f 137 170 225
f 137 225 138
f 138 225 139
f 139 225 226
f 139 226 140
f 140 226 141
f 141 144 142
f 141 226 165
f 141 165 144
f 147 227 148
f 147 188 227
f 148 228 229
f 148 229 230
f 148 230 149
f 148 227 231
f 148 231 228
f 149 230 150
f 150 204 232
f 150 232 233
f 150 233 234
f 150 234 152
f 150 152 151
f 150 230 235
f 150 235 204
f 152 234 154
f 152 154 153
f 154 234 236
f 154 236 155
f 155 236 198
f 155 198 237
f 155 237 156
f 156 237 196
f 156 196 238
f 156 238 239
f 156 239 157
f 157 239 158
f 158 239 240
f 158 240 241
f 158 241 193
f 158 193 160
f 161 192 162
f 162 192 191
f 162 191 190
f 162 190 189
f 162 189 163
f 165 167 166
f 165 226 168
f 168 226 169
f 169 226 170
f 170 226 225
f 172 224 173
f 173 242 175
f 173 175 174
f 173 224 242
f 175 242 243
f 175 243 176
f 176 243 179
f 177 180 244
f 177 244 182
f 177 182 178
f 179 243 245
f 179 245 180
f 180 245 244
f 181 182 246
f 181 246 216
f 181 216 183
f 182 244 247
f 182 247 246
f 184 214 213
f 184 213 212
f 184 212 187
f 184 187 186
f 184 186 185
f 187 212 211
f 187 211 248
f 187 248 188
f 188 248 249
f 188 249 227
f 193 241 194
f 194 241 240
f 194 240 250
f 194 250 195
f 195 250 239
f 195 239 238
f 195 238 196
f 196 237 197
f 197 237 198
f 198 236 199
f 199 236 200
f 200 236 234
f 200 234 201
f 201 234 233
f 201 233 202
f 202 233 203
f 203 233 232
f 203 232 204
f 204 235 205
f 205 235 251
f 205 251 206
f 206 251 228
f 206 228 252
f 206 252 207
f 207 252 231
f 207 231 208
f 208 231 209
f 209 231 227
f 209 227 249
f 209 249 210
f 210 253 211
f 210 249 253
f 211 253 248
f 216 246 217
f 217 246 254
f 217 254 218
f 218 254 247
f 218 247 219
f 219 247 244
f 219 244 220
f 220 244 245
f 220 245 221
f 221 255 222
f 221 245 243
f 221 243 242
f 221 242 255
f 222 255 223
f 223 255 242
f 223 242 224
f 228 231 252
f 228 251 229
f 229 251 235
f 229 235 230
f 239 250 240
f 246 247 254
f 248 253 249
