v -0.012192 -0.003146 0.066900
v -0.052025 -0.000996 0.067221
v -0.052025 -0.001088 0.068348
v -0.052025 -0.001308 0.069196
v -0.052025 -0.001926 0.070266
v -0.018670 -0.004669 0.070273
v -0.018670 -0.005726 0.071235
v -0.018670 -0.006702 0.071663
v -0.018670 -0.007507 0.071848
v -0.018688 -0.008718 0.071913
v -0.018706 -0.009928 0.071742
v -0.018670 -0.011001 0.071150
v -0.018846 -0.012022 0.069545
v -0.018846 -0.012021 0.068348
v -0.012860 -0.003146 0.048141
v -0.020542 0.000627 0.004754
v -0.052789 0.000048 0.044134
v -0.057063 0.000048 0.044134
v -0.056088 -0.001228 0.066872
v -0.052025 -0.002745 0.071128
v -0.052025 -0.003535 0.071570
v -0.052025 -0.004730 0.071920
v -0.052025 -0.005961 0.072027
v -0.047905 -0.008379 0.072048
v -0.019615 -0.009190 0.071920
v -0.020019 -0.009996 0.071841
v -0.021231 -0.010805 0.071749
v -0.020423 -0.010805 0.071656
v -0.019505 -0.011036 0.071378
v -0.020423 -0.011439 0.071335
v -0.020990 -0.012120 0.070886
v -0.019654 -0.012080 0.070301
v -0.021284 -0.012875 0.069460
v -0.019615 -0.012377 0.069160
v -0.019615 -0.012303 0.068348
v -0.021438 -0.006770 0.008412
v -0.013013 -0.003146 0.044141
v -0.020542 0.000506 0.002066
v -0.049746 0.000048 -0.000037
v -0.056338 0.000021 0.008954
v -0.052025 -0.009889 0.069118
v -0.051885 -0.009719 0.070230
v -0.051959 -0.008952 0.071086
v -0.051915 -0.007035 0.071963
v -0.050422 -0.007975 0.071998
v -0.049522 -0.007574 0.072041
v -0.041730 -0.011497 0.071891
v -0.038027 -0.011524 0.071977
v -0.032550 -0.011614 0.071955
v -0.027297 -0.011614 0.071913
v -0.023252 -0.010805 0.071898
v -0.022039 -0.010805 0.071820
v -0.024060 -0.011614 0.071763
v -0.022847 -0.011908 0.071492
v -0.021916 -0.011845 0.071385
v -0.023656 -0.012707 0.071064
v -0.022847 -0.012776 0.070743
v -0.022074 -0.012881 0.070294
v -0.022847 -0.013383 0.069160
v -0.022039 -0.013153 0.069160
v -0.020423 -0.012651 0.069160
v -0.022847 -0.013216 0.069966
v -0.021372 -0.012905 0.068497
v -0.022689 -0.007205 0.008262
v -0.021626 -0.003134 0.000833
v -0.020915 -0.002260 -0.000059
v -0.020542 -0.001107 -0.000486
v -0.020542 0.000027 0.000105
v -0.020542 0.000445 0.001253
v -0.055947 -0.000012 0.007471
v -0.047765 -0.000038 -0.000494
v -0.048894 -0.000137 -0.000265
v -0.048178 -0.000866 -0.000087
v -0.050093 -0.004021 0.007171
v -0.052570 -0.002473 0.007114
v -0.054959 -0.000845 0.007449
v -0.054177 -0.001674 0.008533
v -0.054283 -0.001437 0.007599
v -0.053374 -0.002224 0.008148
v -0.052500 -0.002888 0.008533
v -0.050866 -0.003788 0.007834
v -0.048362 -0.005233 0.008533
v -0.050664 -0.010602 0.069303
v -0.049003 -0.011236 0.069859
v -0.050281 -0.010472 0.070308
v -0.049522 -0.010600 0.070658
v -0.049214 -0.010118 0.071314
v -0.050751 -0.009298 0.071356
v -0.051142 -0.008379 0.071713
v -0.049302 -0.008790 0.071898
v -0.044673 -0.010804 0.071827
v -0.045476 -0.010804 0.071734
v -0.043052 -0.011922 0.071535
v -0.040632 -0.012422 0.071570
v -0.039015 -0.012422 0.071720
v -0.038203 -0.012422 0.071777
v -0.036991 -0.012422 0.071848
v -0.035774 -0.012422 0.071877
v -0.033363 -0.012422 0.071884
v -0.028913 -0.012422 0.071827
v -0.027701 -0.012422 0.071763
v -0.026893 -0.012422 0.071684
v -0.025276 -0.012422 0.071513
v -0.023656 -0.012303 0.071378
v -0.026893 -0.013600 0.070765
v -0.023656 -0.013032 0.070658
v -0.024477 -0.012720 0.071214
v -0.025593 -0.013719 0.070159
v -0.024174 -0.013635 0.069431
v -0.025276 -0.013927 0.069160
v -0.025421 -0.007944 0.008376
v -0.024468 -0.007719 0.008376
v -0.023660 -0.007513 0.008376
v -0.025259 -0.003943 0.000048
v -0.022298 -0.003047 0.000198
v -0.022044 -0.002601 -0.000216
v -0.022044 -0.001916 -0.000529
v -0.024872 -0.002724 -0.000601
v -0.032133 -0.004034 -0.000757
v -0.040069 -0.003098 -0.000793
v -0.044673 -0.001913 -0.000451
v -0.046403 -0.001398 -0.000308
v -0.047255 -0.001440 -0.000030
v -0.048494 -0.004832 0.007164
v -0.049025 -0.004785 0.007827
v -0.051788 -0.003152 0.007478
v -0.047484 -0.005533 0.007742
v -0.046403 -0.006110 0.008533
v -0.049025 -0.011355 0.069025
v -0.047905 -0.011638 0.069973
v -0.048156 -0.011224 0.070608
v -0.047905 -0.011813 0.069160
v -0.047071 -0.011106 0.071221
v -0.047905 -0.010314 0.071513
v -0.046285 -0.010804 0.071585
v -0.045476 -0.011457 0.071364
v -0.043987 -0.011848 0.071414
v -0.042248 -0.012325 0.071406
v -0.040895 -0.012884 0.071235
v -0.039015 -0.013065 0.071371
v -0.039824 -0.012710 0.071492
v -0.037799 -0.013150 0.071428
v -0.035774 -0.013231 0.071499
v -0.032923 -0.013474 0.071399
v -0.030934 -0.013231 0.071520
v -0.026893 -0.013050 0.071342
v -0.031742 -0.014108 0.070800
v -0.031048 -0.014474 0.070194
v -0.027701 -0.014123 0.069966
v -0.027701 -0.013392 0.071128
v -0.028865 -0.013489 0.071214
v -0.026893 -0.014005 0.069966
v -0.026085 -0.014069 0.069160
v -0.026085 -0.013996 0.068348
v -0.026893 -0.008225 0.008540
v -0.028149 -0.008408 0.008383
v -0.031606 -0.008326 0.006907
v -0.029207 -0.004760 0.000013
v -0.026893 -0.004109 -0.000166
v -0.024468 -0.003432 -0.000244
v -0.023375 -0.003248 -0.000094
v -0.023664 -0.002724 -0.000494
v -0.026085 -0.003783 -0.000273
v -0.029251 -0.004418 -0.000294
v -0.030125 -0.004584 -0.000280
v -0.031272 -0.004776 -0.000251
v -0.032550 -0.004909 -0.000216
v -0.033762 -0.004617 -0.000429
v -0.039007 -0.004159 -0.000216
v -0.039819 -0.004071 -0.000144
v -0.041862 -0.003404 -0.000237
v -0.043056 -0.002724 -0.000394
v -0.045507 -0.001969 -0.000237
v -0.044673 -0.002507 -0.000130
v -0.045529 -0.002335 0.000041
v -0.046851 -0.005619 0.007200
v -0.046517 -0.005928 0.007727
v -0.045626 -0.006413 0.008533
v -0.047009 -0.012072 0.069531
v -0.045476 -0.012514 0.069973
v -0.046298 -0.012099 0.070330
v -0.045186 -0.011994 0.070964
v -0.046908 -0.012104 0.068348
v -0.046285 -0.012408 0.069160
v -0.041971 -0.012845 0.071014
v -0.039824 -0.013556 0.070708
v -0.039015 -0.013621 0.070800
v -0.038203 -0.013678 0.070865
v -0.037395 -0.013731 0.070929
v -0.036521 -0.013543 0.071235
v -0.034570 -0.013466 0.071392
v -0.031742 -0.013466 0.071392
v -0.033363 -0.014120 0.070807
v -0.030609 -0.013666 0.071207
v -0.032550 -0.014331 0.070508
v -0.033363 -0.014602 0.069973
v -0.031338 -0.014739 0.069160
v -0.030125 -0.014590 0.069474
v -0.028860 -0.014479 0.068968
v -0.029322 -0.008558 0.008383
v -0.031606 -0.008661 0.007720
v -0.032954 -0.008366 0.006907
v -0.025268 -0.003597 -0.000265
v -0.034970 -0.004838 -0.000130
v -0.034166 -0.008331 0.006907
v -0.037122 -0.004713 0.000141
v -0.038203 -0.008076 0.007128
v -0.040728 -0.003963 0.000005
v -0.043267 -0.003172 -0.000009
v -0.045116 -0.006434 0.007599
v -0.044673 -0.006755 0.008533
v -0.044501 -0.012907 0.069774
v -0.043869 -0.012729 0.070529
v -0.043052 -0.012795 0.070765
v -0.045059 -0.012817 0.069053
v -0.040583 -0.013678 0.070301
v -0.037395 -0.014257 0.069973
v -0.034808 -0.014355 0.070380
v -0.036156 -0.014430 0.069902
v -0.034166 -0.014712 0.069160
v -0.032884 -0.014766 0.069160
v -0.032528 -0.008759 0.008027
v -0.031303 -0.008747 0.008505
v -0.030209 -0.008644 0.008383
v -0.033666 -0.008739 0.007913
v -0.034970 -0.008593 0.007720
v -0.037395 -0.008340 0.007720
v -0.038203 -0.008248 0.007720
v -0.039481 -0.008022 0.007649
v -0.040623 -0.007799 0.007720
v -0.041453 -0.007602 0.007720
v -0.042639 -0.007207 0.007542
v -0.043869 -0.006893 0.007727
v -0.043452 -0.007160 0.008547
v -0.041756 -0.013599 0.069873
v -0.043052 -0.013235 0.069973
v -0.043860 -0.013175 0.069160
v -0.043052 -0.013392 0.069160
v -0.039824 -0.013920 0.069973
v -0.039015 -0.014037 0.069973
v -0.038203 -0.014149 0.069973
v -0.038203 -0.014304 0.069160
v -0.035374 -0.014616 0.069160
v -0.036582 -0.008551 0.008540
v -0.037873 -0.008376 0.008455
v -0.039011 -0.008210 0.008526
v -0.041760 -0.013722 0.069025
v -0.041862 -0.007603 0.008533
v -0.040632 -0.013956 0.069160
v -0.039824 -0.014079 0.069160
v -0.039015 -0.014194 0.069160
v -0.039015 -0.014144 0.068348
v -0.038203 -0.014251 0.068348
v -0.037065 -0.014435 0.068982
v -0.039824 -0.014017 0.068348
v -0.040632 -0.013877 0.068348
f 1 2 3
f 1 3 4
f 1 4 5
f 1 5 6
f 1 6 7
f 1 7 8
f 1 8 9
f 1 9 10
f 1 10 11
f 1 11 12
f 1 12 13
f 1 13 14
f 1 14 15
f 1 15 16
f 1 16 2
f 2 16 17
f 2 17 18
f 2 18 19
f 2 19 3
f 3 19 4
f 4 19 5
f 5 20 6
f 5 19 20
f 6 20 7
f 7 21 8
f 7 20 21
f 8 22 9
f 8 21 22
f 9 22 23
f 9 23 10
f 10 23 24
f 10 24 25
f 10 25 26
f 10 26 11
f 11 26 27
f 11 27 28
f 11 28 29
f 11 29 12
f 12 29 30
f 12 30 31
f 12 31 32
f 12 32 13
f 13 32 33
f 13 33 34
f 13 34 14
f 14 35 36
f 14 36 37
f 14 37 15
f 14 34 35
f 15 37 16
f 16 38 39
f 16 39 40
f 16 40 18
f 16 18 17
f 16 37 38
f 18 40 41
f 18 41 19
f 19 41 42
f 19 42 43
f 19 43 44
f 19 44 23
f 19 23 22
f 19 22 21
f 19 21 20
f 23 44 45
f 23 45 46
f 23 46 24
f 24 46 45
f 24 45 47
f 24 47 48
f 24 48 49
f 24 49 25
f 25 49 50
f 25 50 51
f 25 51 26
f 26 52 27
f 26 51 52
f 27 52 53
f 27 53 28
f 28 54 55
f 28 55 30
f 28 30 29
f 28 53 54
f 30 55 31
f 31 55 56
f 31 56 57
f 31 57 58
f 31 58 32
f 32 58 33
f 33 59 60
f 33 60 61
f 33 61 34
f 33 58 62
f 33 62 59
f 34 61 35
f 35 61 63
f 35 63 64
f 35 64 36
f 36 64 65
f 36 65 66
f 36 66 37
f 37 66 67
f 37 67 68
f 37 68 69
f 37 69 38
f 38 69 39
f 39 70 40
f 39 69 71
f 39 71 72
f 39 72 73
f 39 73 74
f 39 74 75
f 39 75 76
f 39 76 70
f 40 77 41
f 40 70 76
f 40 76 78
f 40 78 77
f 41 77 79
f 41 79 80
f 41 80 81
f 41 81 82
f 41 82 83
f 41 83 42
f 42 83 84
f 42 84 85
f 42 85 86
f 42 86 43
f 43 86 87
f 43 87 88
f 43 88 89
f 43 89 44
f 44 89 45
f 45 89 90
f 45 90 91
f 45 91 47
f 47 91 92
f 47 92 93
f 47 93 94
f 47 94 95
f 47 95 96
f 47 96 97
f 47 97 48
f 48 97 98
f 48 98 99
f 48 99 49
f 49 99 50
f 50 99 100
f 50 100 51
f 51 100 53
f 51 53 52
f 53 100 101
f 53 101 102
f 53 102 103
f 53 103 54
f 54 103 104
f 54 104 55
f 55 104 56
f 56 105 106
f 56 106 57
f 56 104 107
f 56 107 105
f 57 106 58
f 58 106 108
f 58 108 62
f 59 62 109
f 59 109 110
f 59 110 111
f 59 111 112
f 59 112 113
f 59 113 63
f 59 63 60
f 60 63 61
f 62 108 109
f 63 113 64
f 64 113 114
f 64 114 115
f 64 115 65
f 65 115 66
f 66 115 116
f 66 116 67
f 67 116 117
f 67 117 118
f 67 118 119
f 67 119 120
f 67 120 71
f 67 71 68
f 68 71 69
f 71 121 72
f 71 120 121
f 72 121 122
f 72 122 73
f 73 123 74
f 73 122 123
f 74 124 125
f 74 125 81
f 74 81 126
f 74 126 75
f 74 123 124
f 75 126 78
f 75 78 76
f 77 78 79
f 78 126 79
f 79 126 80
f 80 126 81
f 81 125 82
f 82 125 127
f 82 127 128
f 82 128 129
f 82 129 83
f 83 129 84
f 84 130 131
f 84 131 85
f 84 129 132
f 84 132 130
f 85 131 86
f 86 131 87
f 87 131 133
f 87 133 134
f 87 134 89
f 87 89 88
f 89 134 90
f 90 134 92
f 90 92 91
f 92 134 135
f 92 135 136
f 92 136 137
f 92 137 93
f 93 137 138
f 93 138 94
f 94 138 139
f 94 139 140
f 94 140 141
f 94 141 95
f 95 141 140
f 95 140 142
f 95 142 96
f 96 142 97
f 97 142 143
f 97 143 98
f 98 143 144
f 98 144 145
f 98 145 99
f 99 145 100
f 100 145 101
f 101 145 146
f 101 146 102
f 102 146 103
f 103 146 104
f 104 146 107
f 105 147 148
f 105 148 149
f 105 149 108
f 105 108 106
f 105 107 146
f 105 146 150
f 105 150 151
f 105 151 147
f 108 149 152
f 108 152 110
f 108 110 109
f 110 153 154
f 110 154 111
f 110 152 153
f 111 154 155
f 111 155 156
f 111 156 157
f 111 157 158
f 111 158 114
f 111 114 112
f 112 114 113
f 114 158 159
f 114 159 160
f 114 160 161
f 114 161 115
f 115 161 116
f 116 161 160
f 116 160 162
f 116 162 117
f 117 162 118
f 118 162 119
f 119 162 163
f 119 163 164
f 119 164 165
f 119 165 166
f 119 166 167
f 119 167 168
f 119 168 120
f 120 168 169
f 120 169 170
f 120 170 171
f 120 171 172
f 120 172 121
f 121 172 173
f 121 173 122
f 122 173 123
f 123 173 174
f 123 174 175
f 123 175 124
f 124 175 176
f 124 176 127
f 124 127 125
f 127 177 128
f 127 176 177
f 128 177 178
f 128 178 132
f 128 132 129
f 130 132 179
f 130 179 180
f 130 180 181
f 130 181 131
f 131 181 182
f 131 182 133
f 132 178 183
f 132 183 184
f 132 184 179
f 133 136 135
f 133 135 134
f 133 182 136
f 136 182 137
f 137 182 185
f 137 185 138
f 138 185 139
f 139 185 186
f 139 186 187
f 139 187 140
f 140 187 188
f 140 188 189
f 140 189 190
f 140 190 142
f 142 190 143
f 143 190 191
f 143 191 144
f 144 192 145
f 144 191 193
f 144 193 194
f 144 194 192
f 145 192 194
f 145 194 151
f 145 151 146
f 146 151 150
f 147 151 194
f 147 194 193
f 147 193 195
f 147 195 148
f 148 196 197
f 148 197 198
f 148 198 149
f 148 195 196
f 149 198 152
f 152 198 153
f 153 198 199
f 153 199 154
f 154 199 156
f 154 156 155
f 156 200 201
f 156 201 157
f 156 199 200
f 157 202 167
f 157 167 158
f 157 201 202
f 158 167 166
f 158 166 165
f 158 165 164
f 158 164 159
f 159 164 163
f 159 163 160
f 160 163 203
f 160 203 162
f 162 203 163
f 167 204 168
f 167 202 205
f 167 205 204
f 168 204 169
f 169 204 206
f 169 206 170
f 170 206 207
f 170 207 208
f 170 208 171
f 171 208 209
f 171 209 174
f 171 174 172
f 172 174 173
f 174 209 175
f 175 209 176
f 176 210 177
f 176 209 210
f 177 210 178
f 178 211 183
f 178 210 211
f 179 212 180
f 179 184 212
f 180 212 181
f 181 213 182
f 181 212 213
f 182 213 214
f 182 214 185
f 183 211 184
f 184 211 215
f 184 215 212
f 185 214 186
f 186 216 187
f 186 214 216
f 187 216 217
f 187 217 218
f 187 218 188
f 188 218 189
f 189 218 193
f 189 193 190
f 190 193 191
f 193 218 195
f 195 218 196
f 196 219 220
f 196 220 221
f 196 221 197
f 196 218 219
f 197 221 222
f 197 222 223
f 197 223 224
f 197 224 200
f 197 200 199
f 197 199 198
f 200 224 201
f 201 224 223
f 201 223 222
f 201 222 225
f 201 225 202
f 202 225 205
f 204 205 207
f 204 207 206
f 205 225 226
f 205 226 207
f 207 226 227
f 207 227 228
f 207 228 229
f 207 229 230
f 207 230 208
f 208 230 231
f 208 231 232
f 208 232 209
f 209 232 210
f 210 232 233
f 210 233 211
f 211 233 234
f 211 234 215
f 212 235 236
f 212 236 213
f 212 215 237
f 212 237 238
f 212 238 235
f 213 236 216
f 213 216 214
f 215 234 237
f 216 236 235
f 216 235 239
f 216 239 240
f 216 240 241
f 216 241 217
f 217 241 242
f 217 242 219
f 217 219 218
f 219 242 243
f 219 243 220
f 220 243 225
f 220 225 221
f 221 225 222
f 225 243 244
f 225 244 226
f 226 244 227
f 227 244 228
f 228 244 245
f 228 245 246
f 228 246 229
f 229 246 230
f 230 246 247
f 230 247 248
f 230 248 231
f 231 248 234
f 231 234 233
f 231 233 232
f 234 248 237
f 235 238 247
f 235 247 249
f 235 249 239
f 237 248 238
f 238 248 247
f 239 249 250
f 239 250 240
f 240 250 251
f 240 251 241
f 241 251 242
f 242 251 252
f 242 252 253
f 242 253 254
f 242 254 243
f 243 254 244
f 244 254 253
f 244 253 245
f 245 253 252
f 245 252 246
f 246 252 255
f 246 255 256
f 246 256 247
f 247 256 249
f 249 256 255
f 249 255 252
f 249 252 250
f 250 252 251
