v -0.021329 -0.007373 0.044139
v -0.020414 -0.007033 0.044143
v -0.021435 -0.004568 0.044143
v -0.021343 -0.007346 0.040865
v -0.021336 -0.007354 0.041671
v -0.020639 -0.007064 0.040053
v -0.019607 -0.006714 0.044122
v -0.018769 -0.006372 0.044143
v -0.004611 0.009686 0.044143
v -0.011773 0.004828 0.041822
v -0.011999 0.005020 0.041073
v -0.012664 0.005054 0.039821
v -0.012453 0.005869 0.038326
v -0.013441 0.005827 0.035994
v -0.014306 0.005723 0.033353
v -0.014444 0.005871 0.032277
v -0.014563 0.006009 0.031158
v -0.015032 0.005617 0.030346
v -0.015839 0.004803 0.029537
v -0.015895 0.004866 0.028728
v -0.016071 0.004705 0.027919
v -0.016644 0.003925 0.027110
v -0.016661 0.003965 0.025904
v -0.021435 -0.003264 0.018332
v -0.021435 -0.006976 0.014990
v -0.021061 -0.007079 0.030346
v -0.020417 -0.006824 0.029537
v -0.019418 -0.006438 0.030641
v -0.017954 -0.006011 0.044143
v -0.018798 -0.006053 0.022271
v -0.004611 0.013934 0.017670
v -0.008288 0.011102 0.027110
v -0.008288 0.010962 0.027919
v -0.009085 0.010614 0.027919
v -0.010408 0.009765 0.028883
v -0.010795 0.009048 0.031158
v -0.010834 0.008837 0.031967
v -0.011338 0.008332 0.032773
v -0.011416 0.007953 0.034098
v -0.011231 0.007465 0.036275
v -0.011799 0.006478 0.038157
v -0.011999 0.005825 0.039377
v -0.005502 0.003781 0.044143
v -0.004781 0.004707 0.044132
v -0.004649 0.005054 0.036511
v -0.004611 0.011684 0.008213
v -0.012778 0.006011 0.037137
v -0.012980 0.006611 0.034707
v -0.013268 0.006695 0.033462
v -0.013739 0.006566 0.032266
v -0.013978 0.006597 0.031158
v -0.014444 0.006282 0.030346
v -0.015200 0.005617 0.029259
v -0.015580 0.005364 0.027919
v -0.015864 0.005047 0.027110
v -0.016107 0.004747 0.026301
v -0.016280 0.004557 0.024697
v -0.016667 0.003977 0.024697
v -0.021435 -0.003218 0.017417
v -0.021435 -0.003566 0.008213
v -0.021382 -0.006747 0.008386
v -0.021329 -0.006835 0.010837
v -0.021329 -0.006858 0.011642
v -0.021329 -0.006906 0.013373
v -0.021329 -0.006924 0.014185
v -0.020417 -0.006570 0.013373
v -0.019969 -0.006378 0.012564
v -0.018798 -0.006040 0.021462
v -0.017094 -0.005592 0.044143
v -0.017871 -0.005606 0.020649
v -0.017537 -0.005575 0.028728
v -0.017448 -0.005621 0.034390
v -0.004664 0.013932 0.016816
v -0.009682 0.010524 0.025869
v -0.009204 0.010674 0.027110
v -0.008211 0.011248 0.026227
v -0.011552 0.009018 0.028728
v -0.011457 0.008954 0.029537
v -0.011132 0.009012 0.030391
v -0.009907 0.010282 0.027110
v -0.010625 0.009750 0.027919
v -0.011526 0.008595 0.031158
v -0.011832 0.008240 0.031848
v -0.011743 0.008076 0.032773
v -0.012234 0.007306 0.034390
v -0.006245 0.002918 0.044143
v -0.006279 0.002951 0.040053
v -0.006302 0.002976 0.037630
v -0.005441 0.004130 0.031967
v -0.005260 0.004701 0.018226
v -0.004764 0.005517 0.011512
v -0.004769 0.005585 0.009733
v -0.004815 0.005642 0.008445
v -0.007040 0.002895 0.008368
v -0.007786 0.002067 0.008368
v -0.008603 0.001231 0.008368
v -0.009248 0.000603 0.008368
v -0.009843 0.000063 0.008368
v -0.013357 0.006411 0.016608
v -0.006595 0.012166 0.015799
v -0.012537 0.007383 0.033282
v -0.012781 0.007425 0.032203
v -0.013107 0.007358 0.031158
v -0.013201 0.007437 0.030346
v -0.013561 0.007404 0.028862
v -0.014319 0.006543 0.029537
v -0.015011 0.006023 0.028053
v -0.015058 0.006073 0.027110
v -0.015080 0.006084 0.025904
v -0.016056 0.004876 0.023889
v -0.013006 -0.002424 0.008371
v -0.015804 0.005181 0.022967
v -0.015916 0.004895 0.021462
v -0.015067 0.005838 0.020931
v -0.014854 0.005863 0.019844
v -0.015277 0.005087 0.018226
v -0.015172 0.004974 0.017368
v -0.014388 0.005804 0.017706
v -0.014428 0.005437 0.016608
v -0.020019 -0.006238 0.008407
v -0.019854 -0.006232 0.009328
v -0.021329 -0.006791 0.009638
v -0.020093 -0.006390 0.011020
v -0.020417 -0.006534 0.011755
v -0.021226 -0.006849 0.012564
v -0.020417 -0.006553 0.012564
v -0.019783 -0.006282 0.011755
v -0.018798 -0.005836 0.010949
v -0.018276 -0.005604 0.010949
v -0.018054 -0.005521 0.011755
v -0.017832 -0.005437 0.012564
v -0.016374 -0.005222 0.044143
v -0.017041 -0.005414 0.034390
v -0.017181 -0.005104 0.011755
v -0.017145 -0.005362 0.027919
v -0.006251 0.012647 0.016608
v -0.012975 0.008051 0.022964
v -0.011962 0.008962 0.024420
v -0.010951 0.009690 0.023889
v -0.010968 0.009707 0.024697
v -0.010752 0.009834 0.025904
v -0.010694 0.009796 0.027110
v -0.012608 0.008090 0.029537
v -0.012323 0.008178 0.030346
v -0.011630 0.009073 0.027919
v -0.012583 0.008299 0.028274
v -0.012223 0.008101 0.031158
v -0.006999 0.002065 0.044143
v -0.006460 0.002759 0.039247
v -0.006469 0.002768 0.038435
v -0.007027 0.002482 0.023080
v -0.006220 0.003690 0.010949
v -0.005836 0.004127 0.011755
v -0.005487 0.004586 0.010949
v -0.005497 0.004601 0.010137
v -0.005515 0.004622 0.009328
v -0.005548 0.004663 0.008445
v -0.006113 0.003965 0.008519
v -0.006992 0.002841 0.009328
v -0.007758 0.001994 0.009328
v -0.008351 0.001389 0.009328
v -0.008962 0.000795 0.009328
v -0.009807 0.000025 0.009328
v -0.010879 -0.000907 0.009328
v -0.010714 -0.000699 0.008445
v -0.011618 -0.001431 0.008445
v -0.013810 0.006451 0.018114
v -0.013948 0.006574 0.019032
v -0.013000 0.008069 0.027110
v -0.013616 0.007458 0.027919
v -0.014304 0.006730 0.028246
v -0.014466 0.006689 0.027110
v -0.014500 0.006735 0.025904
v -0.014500 0.006739 0.024697
v -0.015080 0.006082 0.024697
v -0.012331 -0.001969 0.008519
v -0.013924 -0.003139 0.009328
v -0.013981 -0.003101 0.008445
v -0.015093 -0.003815 0.008445
v -0.015065 0.006069 0.023889
v -0.015228 0.005844 0.023080
v -0.015203 0.005819 0.022271
v -0.014452 0.006678 0.023080
v -0.014401 0.006626 0.021947
v -0.014118 0.006732 0.020758
v -0.014042 0.006657 0.019844
v -0.014770 0.005781 0.019032
v -0.014466 0.005877 0.018226
v -0.016858 -0.004820 0.008484
v -0.018260 -0.005504 0.008484
v -0.018564 -0.005690 0.009328
v -0.020259 -0.006417 0.010137
v -0.017527 -0.005247 0.010949
v -0.015528 -0.004755 0.044132
v -0.014513 -0.004138 0.044132
v -0.013048 -0.003166 0.044143
v -0.016379 -0.004951 0.027110
v -0.015987 -0.004732 0.026301
v -0.016822 -0.004872 0.010137
v -0.016440 -0.004703 0.010949
v -0.013361 0.007246 0.019844
v -0.013481 0.007333 0.020941
v -0.013575 0.007414 0.022021
v -0.013845 0.007283 0.023080
v -0.013023 0.008090 0.023889
v -0.013033 0.008101 0.024697
v -0.012102 0.008860 0.025728
v -0.011681 0.009110 0.027110
v -0.012331 0.008618 0.027110
v -0.009896 -0.000722 0.044132
v -0.008196 0.000834 0.044132
v -0.007595 0.001431 0.044122
v -0.007628 0.001460 0.040865
v -0.006897 0.002342 0.036008
v -0.006231 0.003704 0.010137
v -0.006250 0.003725 0.009328
v -0.008138 0.001581 0.010137
v -0.008333 0.001368 0.010949
v -0.008749 0.000976 0.010137
v -0.008731 0.000957 0.011755
v -0.009408 0.000025 0.027110
v -0.010329 -0.000682 0.021462
v -0.009798 -0.000436 0.032773
v -0.011575 -0.001462 0.009328
v -0.010217 -0.000774 0.031158
v -0.011093 -0.001529 0.033581
v -0.013649 0.007485 0.027110
v -0.013031 0.008099 0.025904
v -0.013891 0.007329 0.025904
v -0.013902 0.007333 0.024697
v -0.013878 0.007314 0.023889
v -0.014480 0.006712 0.023889
v -0.012974 -0.002492 0.009799
v -0.013897 -0.003151 0.010137
v -0.015032 -0.003842 0.009564
v -0.016839 -0.004847 0.009328
v -0.015544 -0.004751 0.043288
v -0.013275 -0.003306 0.043288
v -0.015566 -0.004198 0.010949
v -0.011895 -0.002342 0.043288
v -0.012002 -0.002424 0.044132
v -0.010782 -0.001468 0.044132
v -0.012578 -0.002434 0.021462
v -0.010093 -0.000886 0.043288
v -0.009698 -0.000521 0.042483
v -0.008820 0.000248 0.044122
v -0.008677 0.000496 0.037630
v -0.008002 0.001032 0.043288
v -0.008031 0.001068 0.040053
v -0.008909 0.000309 0.036008
v -0.009319 -0.000054 0.035199
v -0.012591 -0.002303 0.014020
v -0.012007 -0.002259 0.034390
v -0.010992 -0.001610 0.042483
v -0.009290 -0.000083 0.038435
f 1 2 3
f 1 3 4
f 1 4 5
f 1 5 2
f 2 5 4
f 2 4 6
f 2 6 7
f 2 7 8
f 2 8 29
f 2 29 69
f 2 69 132
f 2 132 196
f 2 196 148
f 2 148 86
f 2 86 43
f 2 43 9
f 2 9 3
f 3 9 10
f 3 10 11
f 3 11 12
f 3 12 13
f 3 13 14
f 3 14 15
f 3 15 16
f 3 16 17
f 3 17 18
f 3 18 19
f 3 19 20
f 3 20 21
f 3 21 22
f 3 22 23
f 3 23 24
f 3 24 59
f 3 59 60
f 3 60 25
f 3 25 4
f 4 25 26
f 4 26 27
f 4 27 6
f 6 27 7
f 7 27 28
f 7 28 8
f 8 28 30
f 8 30 29
f 9 31 32
f 9 32 33
f 9 33 34
f 9 34 35
f 9 35 36
f 9 36 37
f 9 37 38
f 9 38 39
f 9 39 40
f 9 40 41
f 9 41 42
f 9 42 11
f 9 11 10
f 9 43 44
f 9 44 45
f 9 45 46
f 9 46 31
f 11 42 12
f 12 42 13
f 13 41 47
f 13 47 14
f 13 42 41
f 14 47 48
f 14 48 49
f 14 49 15
f 15 49 50
f 15 50 16
f 16 50 51
f 16 51 17
f 17 51 52
f 17 52 53
f 17 53 18
f 18 53 19
f 19 53 20
f 20 53 54
f 20 54 21
f 21 54 55
f 21 55 56
f 21 56 22
f 22 56 23
f 23 57 58
f 23 58 59
f 23 59 24
f 23 56 57
f 25 60 61
f 25 61 62
f 25 62 63
f 25 63 64
f 25 64 65
f 25 65 26
f 26 65 66
f 26 66 27
f 27 66 67
f 27 67 28
f 28 67 68
f 28 68 30
f 29 30 68
f 29 68 70
f 29 70 71
f 29 71 72
f 29 72 69
f 31 46 73
f 31 73 74
f 31 74 75
f 31 75 76
f 31 76 32
f 32 76 75
f 32 75 34
f 32 34 33
f 34 75 35
f 35 77 78
f 35 78 79
f 35 79 36
f 35 75 80
f 35 80 81
f 35 81 77
f 36 79 82
f 36 82 37
f 37 82 38
f 38 82 83
f 38 83 84
f 38 84 39
f 39 85 40
f 39 84 85
f 40 85 41
f 41 85 48
f 41 48 47
f 43 86 87
f 43 87 88
f 43 88 89
f 43 89 44
f 44 89 45
f 45 89 90
f 45 90 91
f 45 91 92
f 45 92 46
f 46 92 93
f 46 93 94
f 46 94 95
f 46 95 96
f 46 96 97
f 46 97 98
f 46 98 60
f 46 60 99
f 46 99 100
f 46 100 73
f 48 85 101
f 48 101 49
f 49 101 50
f 50 102 51
f 50 101 102
f 51 102 103
f 51 103 104
f 51 104 105
f 51 105 52
f 52 105 106
f 52 106 107
f 52 107 53
f 53 107 54
f 54 107 108
f 54 108 55
f 55 108 109
f 55 109 110
f 55 110 56
f 56 110 57
f 57 110 59
f 57 59 58
f 59 110 60
f 60 98 111
f 60 111 61
f 60 110 112
f 60 112 113
f 60 113 114
f 60 114 115
f 60 115 116
f 60 116 117
f 60 117 118
f 60 118 119
f 60 119 99
f 61 111 120
f 61 120 121
f 61 121 122
f 61 122 62
f 62 122 123
f 62 123 124
f 62 124 125
f 62 125 63
f 63 125 64
f 64 125 65
f 65 125 126
f 65 126 66
f 66 126 67
f 67 126 123
f 67 123 127
f 67 127 68
f 68 127 128
f 68 128 129
f 68 129 130
f 68 130 131
f 68 131 70
f 69 72 133
f 69 133 132
f 70 131 134
f 70 134 135
f 70 135 71
f 71 135 133
f 71 133 72
f 73 100 136
f 73 136 137
f 73 137 138
f 73 138 139
f 73 139 140
f 73 140 141
f 73 141 74
f 74 141 142
f 74 142 80
f 74 80 75
f 77 143 144
f 77 144 78
f 77 81 145
f 77 145 146
f 77 146 143
f 78 144 147
f 78 147 82
f 78 82 79
f 80 142 81
f 81 142 145
f 82 147 83
f 83 147 101
f 83 101 84
f 84 101 85
f 86 148 149
f 86 149 87
f 87 149 88
f 88 149 150
f 88 150 151
f 88 151 152
f 88 152 89
f 89 152 153
f 89 153 154
f 89 154 90
f 90 154 91
f 91 154 155
f 91 155 92
f 92 155 156
f 92 156 93
f 93 157 94
f 93 156 157
f 94 157 158
f 94 158 159
f 94 159 95
f 95 159 160
f 95 160 96
f 96 160 161
f 96 161 162
f 96 162 97
f 97 162 163
f 97 163 98
f 98 163 164
f 98 164 165
f 98 165 166
f 98 166 111
f 99 119 118
f 99 118 167
f 99 167 100
f 100 167 168
f 100 168 136
f 101 147 102
f 102 147 144
f 102 144 103
f 103 144 104
f 104 144 143
f 104 143 105
f 105 143 146
f 105 146 169
f 105 169 170
f 105 170 171
f 105 171 106
f 106 171 107
f 107 171 172
f 107 172 108
f 108 172 173
f 108 173 109
f 109 173 174
f 109 174 175
f 109 175 110
f 110 175 112
f 111 166 176
f 111 176 177
f 111 177 178
f 111 178 179
f 111 179 120
f 112 175 180
f 112 180 181
f 112 181 182
f 112 182 113
f 113 182 114
f 114 182 183
f 114 183 184
f 114 184 185
f 114 185 186
f 114 186 115
f 115 186 187
f 115 187 116
f 116 187 188
f 116 188 117
f 117 188 118
f 118 188 167
f 120 179 189
f 120 189 190
f 120 190 121
f 121 190 191
f 121 191 123
f 121 123 192
f 121 192 122
f 122 192 123
f 123 126 124
f 123 191 127
f 124 126 125
f 127 191 128
f 128 191 129
f 129 193 130
f 129 191 193
f 130 193 131
f 131 193 134
f 132 194 195
f 132 195 196
f 132 133 197
f 132 197 198
f 132 198 194
f 133 135 197
f 134 193 199
f 134 199 200
f 134 200 197
f 134 197 135
f 136 168 201
f 136 201 202
f 136 202 137
f 137 203 204
f 137 204 205
f 137 205 138
f 137 202 203
f 138 205 206
f 138 206 207
f 138 207 140
f 138 140 139
f 140 207 141
f 141 208 142
f 141 207 208
f 142 208 145
f 145 208 209
f 145 209 146
f 146 209 169
f 148 196 210
f 148 210 211
f 148 211 212
f 148 212 213
f 148 213 214
f 148 214 149
f 149 214 150
f 150 214 151
f 151 160 159
f 151 159 152
f 151 214 160
f 152 159 215
f 152 215 153
f 153 215 155
f 153 155 154
f 155 215 216
f 155 216 156
f 156 216 158
f 156 158 157
f 158 216 159
f 159 216 215
f 160 217 161
f 160 214 213
f 160 213 217
f 161 217 218
f 161 218 219
f 161 219 162
f 162 219 220
f 162 220 221
f 162 221 163
f 163 222 164
f 163 221 223
f 163 223 222
f 164 224 166
f 164 166 165
f 164 222 225
f 164 225 226
f 164 226 224
f 166 224 176
f 167 188 168
f 168 188 187
f 168 187 186
f 168 186 201
f 169 227 170
f 169 209 228
f 169 228 229
f 169 229 227
f 170 227 172
f 170 172 171
f 172 227 229
f 172 229 173
f 173 230 174
f 173 229 230
f 174 231 232
f 174 232 181
f 174 181 180
f 174 180 175
f 174 230 231
f 176 224 233
f 176 233 177
f 177 179 178
f 177 233 234
f 177 234 235
f 177 235 179
f 179 235 189
f 181 232 182
f 182 232 183
f 183 232 231
f 183 231 204
f 183 204 184
f 184 204 203
f 184 203 185
f 185 203 202
f 185 202 186
f 186 202 201
f 189 236 191
f 189 191 190
f 189 235 200
f 189 200 236
f 191 236 199
f 191 199 193
f 194 237 195
f 194 198 237
f 195 238 196
f 195 237 198
f 195 198 239
f 195 239 234
f 195 234 238
f 196 240 241
f 196 241 242
f 196 242 210
f 196 238 234
f 196 234 243
f 196 243 240
f 197 200 198
f 198 200 239
f 199 236 200
f 200 235 239
f 204 231 205
f 205 231 230
f 205 230 206
f 206 230 228
f 206 228 207
f 207 228 209
f 207 209 208
f 210 242 244
f 210 244 245
f 210 245 246
f 210 246 211
f 211 246 247
f 211 247 248
f 211 248 212
f 212 248 213
f 213 249 217
f 213 248 249
f 217 249 218
f 218 220 219
f 218 249 220
f 220 249 247
f 220 247 250
f 220 250 221
f 221 250 251
f 221 251 223
f 222 223 225
f 223 251 245
f 223 245 244
f 223 244 225
f 224 252 233
f 224 226 240
f 224 240 253
f 224 253 252
f 225 244 242
f 225 242 254
f 225 254 226
f 226 254 240
f 228 230 229
f 233 252 234
f 234 239 235
f 234 252 243
f 240 254 242
f 240 242 241
f 240 243 253
f 243 252 253
f 245 251 255
f 245 255 246
f 246 255 251
f 246 251 250
f 246 250 247
f 247 249 248
