v 0.007142 0.031956 0.068776
v 0.001963 0.031918 0.044131
v -0.000083 0.037500 0.008462
v 0.006827 0.033676 0.068353
v 0.006993 0.032867 0.068758
v 0.006780 0.033796 0.069429
v 0.006749 0.032393 0.070319
v 0.005753 0.031956 0.071482
v 0.004242 0.031918 0.071843
v -0.000764 0.031918 0.044442
v -0.002913 0.037258 0.008387
v -0.001315 0.040542 0.008406
v -0.000591 0.038866 0.008555
v 0.005041 0.040122 0.068353
v 0.005359 0.039337 0.068758
v 0.005690 0.038350 0.068758
v 0.006076 0.037066 0.068758
v 0.006316 0.036100 0.068758
v 0.006532 0.035138 0.068758
v 0.006233 0.035697 0.069971
v 0.005836 0.034998 0.070978
v 0.005674 0.033796 0.071345
v 0.005718 0.032867 0.071420
v 0.004643 0.034892 0.071694
v 0.004643 0.033270 0.071781
v 0.003836 0.034892 0.071855
v 0.003836 0.033270 0.071868
v -0.032804 0.063992 0.071918
v 0.002624 0.031918 0.071725
v -0.033055 0.058902 0.044131
v -0.031454 0.058199 0.008387
v -0.000768 0.031918 0.045711
v -0.006990 0.049391 0.008387
v -0.002913 0.043741 0.008443
v -0.002087 0.042180 0.008450
v 0.002821 0.045260 0.068353
v 0.003470 0.043874 0.068353
v 0.004293 0.042105 0.069069
v 0.004883 0.040672 0.069162
v 0.005450 0.038531 0.069971
v 0.005844 0.037278 0.069952
v 0.005659 0.036534 0.070686
v 0.004938 0.037548 0.071146
v 0.005127 0.035697 0.071401
v 0.004139 0.038531 0.071470
v 0.003026 0.040142 0.071656
v 0.003431 0.037517 0.071799
v 0.001814 0.039941 0.071868
v 0.002624 0.036100 0.071887
v -0.022433 0.062780 0.071936
v -0.031733 0.064398 0.071899
v -0.032804 0.065208 0.071644
v -0.033063 0.062449 0.071731
v 0.001349 0.031918 0.071215
v -0.000512 0.031918 0.063066
v -0.033055 0.059175 0.064714
v -0.033063 0.059312 0.066873
v -0.033063 0.062155 0.066680
v -0.033055 0.061688 0.044131
v -0.031190 0.060954 0.008387
v -0.007848 0.050295 0.008387
v -0.002948 0.053566 0.068353
v -0.002268 0.052839 0.068633
v -0.006046 0.048274 0.008462
v -0.005420 0.047472 0.008462
v -0.004700 0.046506 0.008462
v -0.004058 0.045560 0.008450
v 0.001050 0.048291 0.068353
v 0.001884 0.046991 0.068913
v 0.003435 0.043990 0.069405
v 0.004458 0.041085 0.070157
v 0.004997 0.039798 0.070045
v 0.005127 0.038784 0.070481
v 0.004443 0.040074 0.070792
v 0.004061 0.039443 0.071345
v 0.002219 0.041358 0.071731
v 0.001412 0.044188 0.071557
v -0.001827 0.047018 0.071880
v 0.001412 0.042973 0.071737
v -0.010721 0.056314 0.071918
v -0.016778 0.060353 0.071930
v -0.017581 0.061162 0.071868
v -0.021217 0.062780 0.071818
v -0.023244 0.063589 0.071799
v -0.024858 0.063589 0.071911
v -0.028097 0.064398 0.071806
v -0.029309 0.065208 0.071488
v -0.031332 0.065556 0.071333
v -0.032804 0.065972 0.071028
v -0.033063 0.060834 0.070910
v -0.033063 0.066293 0.067091
v 0.000420 0.031918 0.070344
v -0.000469 0.031918 0.065517
v -0.000418 0.031918 0.067140
v -0.033055 0.059233 0.065927
v -0.000233 0.031918 0.068727
v -0.033063 0.059462 0.068024
v -0.033063 0.065208 0.066705
v -0.030112 0.060909 0.008462
v -0.028876 0.060804 0.008437
v -0.027247 0.060554 0.008387
v -0.032804 0.066778 0.068758
v -0.031532 0.066795 0.068758
v -0.029710 0.066734 0.068758
v -0.008954 0.051378 0.008387
v -0.004578 0.055177 0.068353
v -0.004570 0.055194 0.069006
v -0.002945 0.053371 0.069436
v -0.001477 0.051832 0.069025
v -0.000434 0.050490 0.068353
v 0.000106 0.049701 0.068241
v 0.001038 0.048278 0.069162
v 0.001821 0.046625 0.069971
v 0.002691 0.045369 0.069554
v 0.003435 0.043208 0.070344
v 0.002612 0.044174 0.070785
v 0.003368 0.041627 0.071153
v 0.002022 0.044188 0.071289
v 0.000869 0.045929 0.071401
v 0.000605 0.044591 0.071731
v -0.005459 0.051910 0.071880
v -0.000615 0.046209 0.071781
v -0.002630 0.049032 0.071812
v -0.003436 0.049835 0.071843
v -0.011528 0.057123 0.071911
v -0.013944 0.058735 0.071918
v -0.013138 0.058735 0.071862
v -0.015361 0.059950 0.071868
v -0.013944 0.059547 0.071787
v -0.014755 0.060353 0.071656
v -0.017982 0.061971 0.071650
v -0.021575 0.063726 0.071420
v -0.024082 0.064511 0.071389
v -0.025263 0.064398 0.071644
v -0.026479 0.064398 0.071731
v -0.026479 0.065023 0.071364
v -0.028628 0.065706 0.071041
v -0.031332 0.066556 0.070213
v -0.032804 0.066566 0.070195
v -0.033063 0.059895 0.069492
v -0.028502 0.066621 0.068353
v -0.026074 0.060315 0.008387
v -0.026074 0.066242 0.068353
v -0.029801 0.066501 0.070120
v -0.028337 0.066491 0.069523
v -0.009635 0.052019 0.008387
v -0.005381 0.055980 0.068758
v -0.006223 0.056758 0.068745
v -0.007156 0.057468 0.069162
v -0.006392 0.056615 0.069709
v -0.005814 0.055952 0.069995
v -0.004999 0.055160 0.069995
v -0.002606 0.052695 0.069971
v -0.002087 0.051931 0.070207
v -0.000504 0.050391 0.069429
v 0.000145 0.049531 0.069293
v 0.000353 0.048855 0.069971
v 0.001074 0.047530 0.070269
v 0.001751 0.045912 0.070711
v 0.001707 0.045082 0.071215
v -0.001421 0.048029 0.071712
v -0.000115 0.047708 0.071352
v -0.003436 0.050647 0.071737
v -0.006274 0.053484 0.071775
v -0.008297 0.055505 0.071762
v -0.010721 0.057123 0.071843
v -0.011528 0.057926 0.071806
v -0.012343 0.058735 0.071725
v -0.012713 0.059670 0.071395
v -0.014755 0.060978 0.071320
v -0.016014 0.061462 0.071426
v -0.017191 0.062316 0.071271
v -0.018962 0.063224 0.071072
v -0.020706 0.063961 0.070972
v -0.022839 0.064514 0.071097
v -0.025263 0.064914 0.071271
v -0.027695 0.065614 0.070997
v -0.026479 0.065597 0.070798
v -0.027227 0.066413 0.068695
v -0.024456 0.065901 0.068353
v -0.024826 0.060046 0.008443
v -0.023240 0.059595 0.008425
v -0.015168 0.056089 0.008443
v -0.026074 0.066184 0.069162
v -0.025263 0.066051 0.068758
v -0.026881 0.066146 0.069971
v -0.012374 0.054245 0.008443
v -0.011469 0.053559 0.008462
v -0.010556 0.052815 0.008499
v -0.008073 0.058188 0.069162
v -0.007140 0.057478 0.068353
v -0.008600 0.058267 0.070089
v -0.007931 0.057478 0.070437
v -0.004845 0.054204 0.070891
v -0.003995 0.053935 0.070300
v -0.004050 0.053068 0.071146
v -0.002870 0.051852 0.071059
v -0.001299 0.050804 0.070338
v -0.000599 0.049858 0.070381
v 0.000291 0.048414 0.070568
v -0.000756 0.049090 0.071177
v -0.002630 0.049835 0.071687
v -0.001827 0.049032 0.071631
v -0.001504 0.049961 0.071227
v -0.004251 0.051958 0.071650
v -0.005054 0.053078 0.071582
v -0.006675 0.054696 0.071551
v -0.009706 0.056720 0.071750
v -0.010273 0.058062 0.071401
v -0.011268 0.059039 0.071233
v -0.012158 0.059817 0.071072
v -0.013889 0.060640 0.071221
v -0.014877 0.061619 0.070860
v -0.016085 0.062511 0.070549
v -0.019521 0.064019 0.070412
v -0.021843 0.064760 0.070499
v -0.023649 0.065064 0.070723
v -0.025192 0.065624 0.070400
v -0.023146 0.065580 0.068671
v -0.022028 0.065313 0.068353
v -0.020918 0.064972 0.068353
v -0.021449 0.059018 0.008443
v -0.018746 0.057960 0.008462
v -0.017431 0.057325 0.008462
v -0.016538 0.056850 0.008462
v -0.013630 0.061865 0.068353
v -0.010607 0.060025 0.068758
v -0.013393 0.054969 0.008493
v -0.022028 0.065266 0.069162
v -0.024283 0.065723 0.069541
v -0.022839 0.065276 0.069971
v -0.009615 0.059339 0.068789
v -0.010953 0.060066 0.069784
v -0.009985 0.059199 0.070244
v -0.009556 0.058472 0.070730
v -0.008993 0.057427 0.071233
v -0.006675 0.055724 0.071059
v -0.005688 0.054696 0.071140
v -0.002350 0.050736 0.071327
v -0.007935 0.056400 0.071302
v -0.013016 0.060694 0.070748
v -0.014011 0.061637 0.070288
v -0.015078 0.062319 0.070058
v -0.017408 0.063248 0.070288
v -0.018439 0.063907 0.069765
v -0.020950 0.064948 0.069286
v -0.018065 0.063961 0.068353
v -0.019982 0.058482 0.008462
v -0.017179 0.063620 0.068353
v -0.016294 0.063221 0.068353
v -0.014672 0.062415 0.068353
v -0.014224 0.062162 0.069162
v -0.011823 0.060790 0.068913
v -0.013216 0.061527 0.069498
v -0.012248 0.060769 0.070027
v -0.016900 0.063425 0.069293
f 1 2 3
f 1 3 4
f 1 4 5
f 1 5 6
f 1 6 7
f 1 7 8
f 1 8 9
f 1 9 2
f 2 10 11
f 2 11 3
f 2 9 29
f 2 29 54
f 2 54 92
f 2 92 96
f 2 96 94
f 2 94 93
f 2 93 55
f 2 55 32
f 2 32 10
f 3 11 12
f 3 12 13
f 3 13 14
f 3 14 15
f 3 15 16
f 3 16 17
f 3 17 18
f 3 18 4
f 4 18 19
f 4 19 5
f 5 19 6
f 6 19 18
f 6 18 20
f 6 20 7
f 7 21 22
f 7 22 23
f 7 23 8
f 7 20 21
f 8 23 24
f 8 24 25
f 8 25 9
f 9 25 26
f 9 26 27
f 9 27 28
f 9 28 29
f 10 30 31
f 10 31 11
f 10 32 30
f 11 31 60
f 11 60 101
f 11 101 142
f 11 142 146
f 11 146 105
f 11 105 61
f 11 61 33
f 11 33 12
f 12 33 34
f 12 34 35
f 12 35 36
f 12 36 37
f 12 37 38
f 12 38 13
f 13 38 14
f 14 38 39
f 14 39 15
f 15 39 16
f 16 39 40
f 16 40 41
f 16 41 17
f 17 41 18
f 18 41 20
f 20 41 42
f 20 42 21
f 21 43 44
f 21 44 22
f 21 42 43
f 22 44 23
f 23 44 24
f 24 44 45
f 24 45 46
f 24 46 47
f 24 47 25
f 25 47 26
f 26 47 48
f 26 48 49
f 26 49 27
f 27 49 28
f 28 49 50
f 28 50 51
f 28 51 52
f 28 52 53
f 28 53 29
f 29 53 54
f 30 32 55
f 30 55 56
f 30 56 57
f 30 57 58
f 30 58 59
f 30 59 31
f 31 59 60
f 33 61 62
f 33 62 63
f 33 63 64
f 33 64 65
f 33 65 66
f 33 66 67
f 33 67 34
f 34 67 68
f 34 68 69
f 34 69 36
f 34 36 35
f 36 69 70
f 36 70 37
f 37 70 38
f 38 70 39
f 39 70 71
f 39 71 72
f 39 72 40
f 40 72 73
f 40 73 41
f 41 73 42
f 42 73 43
f 43 73 74
f 43 74 75
f 43 75 44
f 44 75 45
f 45 75 46
f 46 76 47
f 46 75 77
f 46 77 76
f 47 76 48
f 48 78 49
f 48 76 79
f 48 79 78
f 49 78 80
f 49 80 81
f 49 81 50
f 50 81 82
f 50 82 83
f 50 83 84
f 50 84 85
f 50 85 51
f 51 85 86
f 51 86 52
f 52 87 88
f 52 88 89
f 52 89 53
f 52 86 87
f 53 90 54
f 53 89 91
f 53 91 98
f 53 98 58
f 53 58 57
f 53 57 97
f 53 97 140
f 53 140 90
f 54 90 92
f 55 93 56
f 56 93 94
f 56 94 95
f 56 95 57
f 57 95 94
f 57 94 96
f 57 96 97
f 58 98 59
f 59 98 91
f 59 91 60
f 60 99 100
f 60 100 101
f 60 91 102
f 60 102 103
f 60 103 104
f 60 104 99
f 61 105 106
f 61 106 62
f 62 106 107
f 62 107 63
f 63 107 108
f 63 108 109
f 63 109 110
f 63 110 64
f 64 110 65
f 65 110 66
f 66 110 111
f 66 111 67
f 67 111 68
f 68 111 112
f 68 112 69
f 69 112 113
f 69 113 114
f 69 114 70
f 70 114 115
f 70 115 71
f 71 115 74
f 71 74 73
f 71 73 72
f 74 115 116
f 74 116 117
f 74 117 75
f 75 117 118
f 75 118 77
f 76 77 79
f 77 119 120
f 77 120 79
f 77 118 119
f 78 121 80
f 78 79 122
f 78 122 123
f 78 123 124
f 78 124 121
f 79 120 122
f 80 125 126
f 80 126 81
f 80 121 125
f 81 126 127
f 81 127 128
f 81 128 82
f 82 128 129
f 82 129 130
f 82 130 131
f 82 131 83
f 83 131 84
f 84 131 132
f 84 132 133
f 84 133 134
f 84 134 135
f 84 135 85
f 85 135 86
f 86 135 87
f 87 135 134
f 87 134 136
f 87 136 137
f 87 137 88
f 88 137 89
f 89 137 138
f 89 138 139
f 89 139 91
f 90 140 92
f 91 139 102
f 92 140 96
f 96 140 97
f 99 104 141
f 99 141 100
f 100 141 101
f 101 141 143
f 101 143 142
f 102 139 103
f 103 139 138
f 103 138 104
f 104 138 144
f 104 144 145
f 104 145 141
f 105 146 106
f 106 146 147
f 106 147 107
f 107 147 148
f 107 148 149
f 107 149 150
f 107 150 151
f 107 151 152
f 107 152 108
f 108 152 153
f 108 153 109
f 109 153 154
f 109 154 155
f 109 155 156
f 109 156 110
f 110 156 112
f 110 112 111
f 112 156 157
f 112 157 113
f 113 157 158
f 113 158 159
f 113 159 115
f 113 115 114
f 115 159 116
f 116 159 160
f 116 160 117
f 117 160 118
f 118 160 119
f 119 161 120
f 119 160 162
f 119 162 161
f 120 161 122
f 121 124 163
f 121 163 164
f 121 164 165
f 121 165 166
f 121 166 125
f 122 161 123
f 123 161 163
f 123 163 124
f 125 166 127
f 125 127 126
f 127 166 167
f 127 167 129
f 127 129 128
f 129 167 168
f 129 168 130
f 130 168 169
f 130 169 170
f 130 170 171
f 130 171 131
f 131 171 172
f 131 172 132
f 132 172 173
f 132 173 174
f 132 174 175
f 132 175 133
f 133 175 176
f 133 176 134
f 134 176 136
f 136 176 177
f 136 177 137
f 137 177 178
f 137 178 144
f 137 144 138
f 141 145 179
f 141 179 143
f 142 143 180
f 142 180 181
f 142 181 182
f 142 182 183
f 142 183 146
f 143 179 184
f 143 184 185
f 143 185 180
f 144 186 145
f 144 178 186
f 145 186 184
f 145 184 179
f 146 183 187
f 146 187 188
f 146 188 189
f 146 189 148
f 146 148 147
f 148 190 149
f 148 189 191
f 148 191 190
f 149 190 192
f 149 192 150
f 150 192 151
f 151 192 193
f 151 193 194
f 151 194 195
f 151 195 152
f 152 195 153
f 153 195 154
f 154 195 196
f 154 196 197
f 154 197 198
f 154 198 199
f 154 199 155
f 155 157 156
f 155 199 157
f 157 199 200
f 157 200 158
f 158 200 159
f 159 200 201
f 159 201 160
f 160 201 162
f 161 202 163
f 161 162 203
f 161 203 202
f 162 201 204
f 162 204 203
f 163 202 205
f 163 205 164
f 164 205 206
f 164 206 165
f 165 206 207
f 165 207 208
f 165 208 166
f 166 208 167
f 167 208 209
f 167 209 168
f 168 209 169
f 169 209 210
f 169 210 211
f 169 211 212
f 169 212 170
f 170 212 213
f 170 213 172
f 170 172 171
f 172 213 214
f 172 214 173
f 173 214 215
f 173 215 174
f 174 215 216
f 174 216 175
f 175 216 217
f 175 217 176
f 176 217 178
f 176 178 177
f 178 217 218
f 178 218 186
f 180 185 219
f 180 219 220
f 180 220 181
f 181 220 182
f 182 220 221
f 182 221 222
f 182 222 183
f 183 222 223
f 183 223 224
f 183 224 225
f 183 225 226
f 183 226 227
f 183 227 228
f 183 228 187
f 184 229 185
f 184 186 230
f 184 230 229
f 185 229 219
f 186 218 231
f 186 231 230
f 187 228 232
f 187 232 191
f 187 191 188
f 188 191 189
f 190 191 232
f 190 232 233
f 190 233 192
f 192 233 234
f 192 234 193
f 193 234 235
f 193 235 236
f 193 236 237
f 193 237 194
f 194 237 238
f 194 238 196
f 194 196 195
f 196 239 204
f 196 204 197
f 196 238 206
f 196 206 239
f 197 204 198
f 198 204 201
f 198 201 199
f 199 201 200
f 202 203 239
f 202 239 205
f 203 204 239
f 205 239 206
f 206 238 207
f 207 238 240
f 207 240 208
f 208 240 209
f 209 240 236
f 209 236 210
f 210 236 235
f 210 235 211
f 211 235 241
f 211 241 212
f 212 241 213
f 213 241 242
f 213 242 214
f 214 242 243
f 214 243 244
f 214 244 215
f 215 244 245
f 215 245 246
f 215 246 216
f 216 246 231
f 216 231 218
f 216 218 217
f 219 229 220
f 220 229 246
f 220 246 221
f 221 246 247
f 221 247 222
f 222 248 223
f 222 247 248
f 223 248 249
f 223 249 250
f 223 250 224
f 224 250 251
f 224 251 226
f 224 226 225
f 226 251 252
f 226 252 253
f 226 253 227
f 227 253 233
f 227 233 232
f 227 232 228
f 229 230 231
f 229 231 246
f 233 254 255
f 233 255 234
f 233 253 254
f 234 241 235
f 234 255 241
f 236 240 237
f 237 240 238
f 241 255 242
f 242 255 254
f 242 254 243
f 243 254 252
f 243 252 256
f 243 256 244
f 244 256 245
f 245 256 246
f 246 256 247
f 247 256 249
f 247 249 248
f 249 256 250
f 250 256 252
f 250 252 251
f 252 254 253
