v -0.017189 -0.045246 0.035265
v -0.017189 -0.048021 0.035265
v -0.017189 -0.045257 0.033550
v -0.021335 -0.040148 0.067130
v -0.021186 -0.040341 0.068570
v -0.021186 -0.043738 0.070346
v -0.017189 -0.054011 0.029182
v -0.021186 -0.044587 0.070211
v -0.021186 -0.045249 0.069949
v -0.021186 -0.045995 0.069449
v -0.017189 -0.045320 0.026754
v -0.017189 -0.045357 0.023221
v -0.017189 -0.045508 0.009390
v -0.017404 -0.045532 0.008524
v -0.018459 -0.045397 0.008542
v -0.019215 -0.045357 0.008542
v -0.019971 -0.045339 0.008542
v -0.020726 -0.045317 0.008634
v -0.021482 -0.045323 0.008542
v -0.022286 -0.045360 0.008378
v -0.023055 -0.045410 0.008378
v -0.024048 -0.040309 0.067429
v -0.022993 -0.040227 0.067545
v -0.022237 -0.040177 0.067545
v -0.024504 -0.040812 0.069052
v -0.022237 -0.040793 0.069308
v -0.021335 -0.040910 0.069528
v -0.021363 -0.041791 0.070114
v -0.022237 -0.040259 0.068155
v -0.022993 -0.040280 0.068094
v -0.024044 -0.040381 0.068149
v -0.021335 -0.042910 0.070352
v -0.022237 -0.042984 0.070364
v -0.043379 -0.051291 0.070437
v -0.048609 -0.056080 0.070419
v -0.047801 -0.056347 0.070382
v -0.017189 -0.054813 0.028066
v -0.021186 -0.046439 0.068924
v -0.046774 -0.056347 0.070254
v -0.049911 -0.067176 0.065300
v -0.017189 -0.049992 0.008445
v -0.022143 -0.050117 0.008115
v -0.025994 -0.045786 0.008115
v -0.024661 -0.045566 0.008390
v -0.023748 -0.045444 0.008634
v -0.025263 -0.040436 0.067545
v -0.025489 -0.045622 0.008786
v -0.025263 -0.040545 0.068302
v -0.027526 -0.041008 0.068826
v -0.026019 -0.041026 0.069174
v -0.025169 -0.041050 0.069351
v -0.022993 -0.040841 0.069296
v -0.026019 -0.041518 0.069717
v -0.022993 -0.041473 0.069888
v -0.022237 -0.041473 0.069931
v -0.026019 -0.042074 0.070095
v -0.026774 -0.042285 0.070156
v -0.026774 -0.042984 0.070327
v -0.029793 -0.043738 0.070376
v -0.030552 -0.044495 0.070394
v -0.042624 -0.050535 0.070425
v -0.042624 -0.049778 0.070400
v -0.043379 -0.050535 0.070407
v -0.038094 -0.047516 0.070400
v -0.040360 -0.049024 0.070413
v -0.048665 -0.055056 0.070346
v -0.049695 -0.056109 0.070309
v -0.052756 -0.067176 0.065331
v -0.017189 -0.055204 0.027334
v -0.021186 -0.046783 0.068302
v -0.049870 -0.067176 0.064519
v -0.017189 -0.056397 0.021788
v -0.017189 -0.056352 0.022861
v -0.017189 -0.056244 0.023960
v -0.017189 -0.055879 0.025564
v -0.021186 -0.047050 0.067545
v -0.031276 -0.058890 0.008115
v -0.017189 -0.052635 0.011367
v -0.034187 -0.059569 0.008109
v -0.039567 -0.050939 0.008109
v -0.027269 -0.045976 0.008115
v -0.026019 -0.040526 0.067545
v -0.026774 -0.040682 0.066789
v -0.027996 -0.046053 0.008506
v -0.027526 -0.040783 0.066789
v -0.026019 -0.040635 0.068302
v -0.028379 -0.041195 0.068912
v -0.027526 -0.041248 0.069211
v -0.026774 -0.041074 0.069101
v -0.026774 -0.040740 0.068302
v -0.029455 -0.041124 0.067789
v -0.027526 -0.041624 0.069656
v -0.026774 -0.041563 0.069693
v -0.027526 -0.042341 0.070120
v -0.030552 -0.043016 0.070163
v -0.029793 -0.043135 0.070272
v -0.030552 -0.043738 0.070358
v -0.032063 -0.044495 0.070382
v -0.040360 -0.048270 0.070388
v -0.041872 -0.049024 0.070370
v -0.043379 -0.049778 0.070321
v -0.046402 -0.052802 0.070346
v -0.047913 -0.054302 0.070346
v -0.038849 -0.047516 0.070388
v -0.049208 -0.055056 0.070242
v -0.050374 -0.056056 0.070059
v -0.052136 -0.056310 0.068174
v -0.052759 -0.067176 0.063000
v -0.051534 -0.056297 0.069339
v -0.017189 -0.055538 0.026571
v -0.049856 -0.067176 0.063763
v -0.017189 -0.056400 0.020720
v -0.049782 -0.067176 0.057716
v -0.049668 -0.067176 0.043208
v -0.032088 -0.059390 0.008115
v -0.017189 -0.053252 0.012093
v -0.047693 -0.064673 0.008115
v -0.041743 -0.060760 0.008109
v -0.031767 -0.047111 0.008115
v -0.040479 -0.051585 0.008109
v -0.043069 -0.047093 0.066929
v -0.041906 -0.046362 0.066789
v -0.038626 -0.050320 0.008372
v -0.036990 -0.049389 0.008140
v -0.035472 -0.048619 0.008134
v -0.034027 -0.047952 0.008128
v -0.029382 -0.046394 0.008201
v -0.026774 -0.040635 0.067545
v -0.028278 -0.040910 0.066789
v -0.027526 -0.040756 0.067545
v -0.030552 -0.041486 0.068302
v -0.031402 -0.041891 0.068747
v -0.030308 -0.041904 0.069345
v -0.029295 -0.041796 0.069491
v -0.028278 -0.041695 0.069595
v -0.028278 -0.040883 0.067545
v -0.030552 -0.041375 0.067545
v -0.030552 -0.042312 0.069693
v -0.029793 -0.042756 0.070114
v -0.031412 -0.043114 0.070102
v -0.032812 -0.043532 0.070102
v -0.033686 -0.044275 0.070266
v -0.032854 -0.044233 0.070315
v -0.035075 -0.044984 0.070303
v -0.038094 -0.046466 0.070309
v -0.041523 -0.048169 0.070266
v -0.044100 -0.049622 0.070144
v -0.048581 -0.054027 0.070144
v -0.049671 -0.055268 0.070120
v -0.050193 -0.055064 0.069693
v -0.050914 -0.055866 0.069620
v -0.051335 -0.055572 0.068924
v -0.051395 -0.055331 0.068302
v -0.051283 -0.055096 0.067545
v -0.051802 -0.055799 0.067545
v -0.052115 -0.056265 0.067069
v -0.052502 -0.067176 0.043050
v -0.050545 -0.055067 0.069406
v -0.017189 -0.056310 0.019530
v -0.047693 -0.066567 0.011654
v -0.047693 -0.066512 0.010897
v -0.017189 -0.053995 0.013197
v -0.017189 -0.054619 0.014216
v -0.017189 -0.055162 0.015351
v -0.017189 -0.055426 0.016016
v -0.017189 -0.055744 0.016944
v -0.017189 -0.055979 0.017694
v -0.047693 -0.066244 0.010263
v -0.047693 -0.058847 0.008347
v -0.046802 -0.057667 0.008115
v -0.041628 -0.052492 0.008109
v -0.032808 -0.047452 0.008372
v -0.032209 -0.047214 0.008628
v -0.033853 -0.042431 0.066789
v -0.032979 -0.042148 0.066789
v -0.031304 -0.046921 0.008628
v -0.030552 -0.046693 0.008628
v -0.045078 -0.048497 0.067448
v -0.044344 -0.048016 0.066789
v -0.044372 -0.047987 0.067545
v -0.043243 -0.047230 0.067649
v -0.041927 -0.046349 0.067545
v -0.039065 -0.044735 0.066789
v -0.035911 -0.048786 0.008634
v -0.037756 -0.044098 0.067021
v -0.036586 -0.043606 0.066789
v -0.031304 -0.041584 0.067545
v -0.031980 -0.041865 0.068210
v -0.033149 -0.042545 0.069009
v -0.032171 -0.042394 0.069266
v -0.032937 -0.042206 0.068369
v -0.031304 -0.042412 0.069632
v -0.033574 -0.043640 0.070010
v -0.035817 -0.044770 0.070144
v -0.037641 -0.045672 0.070175
v -0.038818 -0.046275 0.070150
v -0.041882 -0.047505 0.069821
v -0.044044 -0.048773 0.069662
v -0.045113 -0.049281 0.069388
v -0.046840 -0.051976 0.070016
v -0.048104 -0.053387 0.070083
v -0.049135 -0.053440 0.069498
v -0.049845 -0.054246 0.069461
v -0.049901 -0.053622 0.068582
v -0.050604 -0.054429 0.068552
v -0.050618 -0.054220 0.067545
v -0.050730 -0.054458 0.066789
v -0.017189 -0.056141 0.018426
v -0.046099 -0.056866 0.008115
v -0.043755 -0.054368 0.008115
v -0.043163 -0.053773 0.008115
v -0.042544 -0.053246 0.008115
v -0.036377 -0.043473 0.067545
v -0.033853 -0.042412 0.067545
v -0.032899 -0.042058 0.067545
v -0.032000 -0.041815 0.067234
v -0.045949 -0.049281 0.067362
v -0.045152 -0.048622 0.068137
v -0.042927 -0.047190 0.068479
v -0.041593 -0.046317 0.068521
v -0.039079 -0.044719 0.067545
v -0.040266 -0.045450 0.068302
v -0.037338 -0.043907 0.067545
v -0.033909 -0.042545 0.068296
v -0.035709 -0.043336 0.068521
v -0.037150 -0.044034 0.068832
v -0.034762 -0.043291 0.069241
v -0.033278 -0.043108 0.069674
v -0.034292 -0.043796 0.069912
v -0.035831 -0.043976 0.069571
v -0.038223 -0.044947 0.069498
v -0.038849 -0.045397 0.069595
v -0.039493 -0.045757 0.069601
v -0.040590 -0.046270 0.069528
v -0.043355 -0.048265 0.069650
v -0.044622 -0.048693 0.069192
v -0.046210 -0.049976 0.068924
v -0.048421 -0.052574 0.069394
v -0.047836 -0.052117 0.069534
v -0.049271 -0.052942 0.068607
v -0.048592 -0.052109 0.068302
v -0.049911 -0.053434 0.067545
v -0.046788 -0.050146 0.067057
v -0.037620 -0.044090 0.068149
v -0.036586 -0.043651 0.068302
v -0.046788 -0.050143 0.067753
v -0.045778 -0.049265 0.068344
v -0.043787 -0.047873 0.068723
v -0.042328 -0.047085 0.069162
v -0.039939 -0.045532 0.069016
v -0.039302 -0.044915 0.068393
v -0.041325 -0.046500 0.069247
v -0.038801 -0.044883 0.068997
v -0.046718 -0.050222 0.068460
f 1 2 7
f 1 7 37
f 1 37 69
f 1 69 110
f 1 110 75
f 1 75 74
f 1 74 73
f 1 73 72
f 1 72 112
f 1 112 159
f 1 159 208
f 1 208 167
f 1 167 166
f 1 166 165
f 1 165 164
f 1 164 163
f 1 163 162
f 1 162 116
f 1 116 78
f 1 78 41
f 1 41 13
f 1 13 12
f 1 12 11
f 1 11 3
f 1 3 4
f 1 4 5
f 1 5 6
f 1 6 2
f 2 6 8
f 2 8 9
f 2 9 10
f 2 10 7
f 3 11 4
f 4 11 12
f 4 12 13
f 4 13 14
f 4 14 15
f 4 15 16
f 4 16 17
f 4 17 18
f 4 18 19
f 4 19 20
f 4 20 21
f 4 21 22
f 4 22 23
f 4 23 24
f 4 24 5
f 5 25 26
f 5 26 27
f 5 27 28
f 5 28 6
f 5 24 29
f 5 29 30
f 5 30 31
f 5 31 25
f 6 28 32
f 6 32 33
f 6 33 34
f 6 34 35
f 6 35 36
f 6 36 8
f 7 10 38
f 7 38 37
f 8 36 39
f 8 39 9
f 9 39 40
f 9 40 10
f 10 40 38
f 13 41 14
f 14 41 42
f 14 42 43
f 14 43 20
f 14 20 15
f 15 20 16
f 16 20 17
f 17 20 19
f 17 19 18
f 20 43 21
f 21 43 44
f 21 44 45
f 21 45 22
f 22 46 31
f 22 31 30
f 22 30 23
f 22 45 47
f 22 47 46
f 23 30 24
f 24 30 29
f 25 31 48
f 25 48 49
f 25 49 50
f 25 50 51
f 25 51 52
f 25 52 26
f 26 52 51
f 26 51 27
f 27 51 53
f 27 53 54
f 27 54 55
f 27 55 28
f 28 55 56
f 28 56 57
f 28 57 58
f 28 58 33
f 28 33 32
f 31 46 48
f 33 59 60
f 33 60 34
f 33 58 59
f 34 61 62
f 34 62 63
f 34 63 35
f 34 60 64
f 34 64 65
f 34 65 61
f 35 63 66
f 35 66 67
f 35 67 36
f 36 67 68
f 36 68 40
f 36 40 39
f 37 38 70
f 37 70 69
f 38 40 70
f 40 68 108
f 40 108 157
f 40 157 114
f 40 114 113
f 40 113 111
f 40 111 71
f 40 71 72
f 40 72 73
f 40 73 74
f 40 74 75
f 40 75 76
f 40 76 70
f 41 77 42
f 41 78 77
f 42 77 79
f 42 79 80
f 42 80 43
f 43 80 81
f 43 81 47
f 43 47 44
f 44 47 45
f 46 82 86
f 46 86 48
f 46 47 83
f 46 83 82
f 47 81 84
f 47 84 85
f 47 85 83
f 48 86 49
f 49 87 88
f 49 88 89
f 49 89 50
f 49 86 90
f 49 90 91
f 49 91 87
f 50 89 88
f 50 88 51
f 51 88 92
f 51 92 93
f 51 93 53
f 53 93 56
f 53 56 54
f 54 56 55
f 56 94 57
f 56 93 94
f 57 94 95
f 57 95 96
f 57 96 58
f 58 96 97
f 58 97 59
f 59 97 98
f 59 98 60
f 60 98 64
f 61 65 62
f 62 65 99
f 62 99 100
f 62 100 101
f 62 101 102
f 62 102 63
f 63 102 103
f 63 103 66
f 64 98 104
f 64 104 99
f 64 99 65
f 66 103 105
f 66 105 67
f 67 105 106
f 67 106 68
f 68 107 108
f 68 106 109
f 68 109 107
f 69 70 110
f 70 76 110
f 71 111 72
f 72 111 113
f 72 113 114
f 72 114 112
f 75 110 76
f 77 115 79
f 77 78 116
f 77 116 115
f 79 115 117
f 79 117 118
f 79 118 171
f 79 171 120
f 79 120 80
f 80 119 81
f 80 120 121
f 80 121 122
f 80 122 123
f 80 123 124
f 80 124 125
f 80 125 126
f 80 126 119
f 81 119 127
f 81 127 84
f 82 83 85
f 82 85 128
f 82 128 90
f 82 90 86
f 84 127 129
f 84 129 85
f 85 129 136
f 85 136 130
f 85 130 128
f 87 91 131
f 87 131 132
f 87 132 133
f 87 133 134
f 87 134 88
f 88 134 135
f 88 135 92
f 90 128 130
f 90 130 136
f 90 136 91
f 91 136 129
f 91 129 137
f 91 137 131
f 92 138 139
f 92 139 94
f 92 94 93
f 92 135 138
f 94 139 95
f 95 139 140
f 95 140 141
f 95 141 142
f 95 142 96
f 96 142 143
f 96 143 97
f 97 143 98
f 98 143 144
f 98 144 104
f 99 104 145
f 99 145 146
f 99 146 100
f 100 146 101
f 101 146 147
f 101 147 102
f 102 147 105
f 102 105 103
f 104 144 145
f 105 147 148
f 105 148 149
f 105 149 106
f 106 149 150
f 106 150 151
f 106 151 109
f 107 109 152
f 107 152 153
f 107 153 154
f 107 154 155
f 107 155 156
f 107 156 157
f 107 157 108
f 109 151 158
f 109 158 152
f 112 114 160
f 112 160 161
f 112 161 159
f 114 157 160
f 115 116 162
f 115 162 163
f 115 163 164
f 115 164 165
f 115 165 166
f 115 166 167
f 115 167 161
f 115 161 168
f 115 168 117
f 117 169 170
f 117 170 171
f 117 171 118
f 117 168 157
f 117 157 169
f 119 126 172
f 119 172 173
f 119 173 174
f 119 174 175
f 119 175 176
f 119 176 177
f 119 177 127
f 120 171 178
f 120 178 179
f 120 179 121
f 121 179 178
f 121 178 180
f 121 180 181
f 121 181 182
f 121 182 122
f 122 182 183
f 122 183 124
f 122 124 123
f 124 183 184
f 124 184 125
f 125 184 183
f 125 183 185
f 125 185 126
f 126 185 186
f 126 186 174
f 126 174 172
f 127 177 187
f 127 187 137
f 127 137 129
f 131 137 188
f 131 188 132
f 132 189 190
f 132 190 133
f 132 188 191
f 132 191 189
f 133 190 192
f 133 192 134
f 134 192 138
f 134 138 135
f 137 187 188
f 138 140 139
f 138 192 140
f 140 192 141
f 141 193 194
f 141 194 142
f 141 192 193
f 142 144 143
f 142 194 144
f 144 194 195
f 144 195 145
f 145 195 146
f 146 195 196
f 146 196 197
f 146 197 147
f 147 197 198
f 147 198 199
f 147 199 200
f 147 200 201
f 147 201 148
f 148 201 202
f 148 202 150
f 148 150 149
f 150 202 203
f 150 203 151
f 151 203 158
f 152 204 205
f 152 205 153
f 152 158 203
f 152 203 202
f 152 202 204
f 153 205 206
f 153 206 154
f 154 206 207
f 154 207 156
f 154 156 155
f 156 207 170
f 156 170 169
f 156 169 157
f 157 168 161
f 157 161 160
f 159 161 208
f 161 167 208
f 170 207 206
f 170 206 209
f 170 209 171
f 171 209 210
f 171 210 211
f 171 211 212
f 171 212 178
f 172 174 173
f 174 186 213
f 174 213 214
f 174 214 215
f 174 215 175
f 175 215 216
f 175 216 177
f 175 177 176
f 177 216 187
f 178 212 211
f 178 211 217
f 178 217 218
f 178 218 180
f 180 218 181
f 181 218 219
f 181 219 220
f 181 220 182
f 182 221 183
f 182 220 222
f 182 222 221
f 183 221 185
f 185 221 223
f 185 223 213
f 185 213 186
f 187 216 215
f 187 215 188
f 188 215 191
f 189 191 224
f 189 224 225
f 189 225 226
f 189 226 227
f 189 227 190
f 190 227 228
f 190 228 192
f 191 215 224
f 192 228 193
f 193 228 229
f 193 229 194
f 194 229 230
f 194 230 231
f 194 231 195
f 195 231 232
f 195 232 233
f 195 233 196
f 196 233 234
f 196 234 197
f 197 234 235
f 197 235 198
f 198 235 236
f 198 236 199
f 199 236 237
f 199 237 238
f 199 238 239
f 199 239 200
f 200 239 201
f 201 239 202
f 202 239 238
f 202 238 240
f 202 240 204
f 204 240 241
f 204 241 206
f 204 206 205
f 206 242 209
f 206 241 242
f 209 242 243
f 209 243 210
f 210 243 211
f 211 243 217
f 213 223 244
f 213 244 245
f 213 245 214
f 214 245 224
f 214 224 215
f 217 243 246
f 217 246 218
f 218 246 247
f 218 247 236
f 218 236 248
f 218 248 219
f 219 248 249
f 219 249 220
f 220 250 251
f 220 251 222
f 220 249 252
f 220 252 250
f 221 222 251
f 221 251 244
f 221 244 223
f 224 245 225
f 225 245 226
f 226 253 231
f 226 231 227
f 226 245 251
f 226 251 253
f 227 231 230
f 227 230 228
f 228 230 229
f 231 234 232
f 231 253 234
f 232 234 233
f 234 253 250
f 234 250 252
f 234 252 249
f 234 249 235
f 235 249 236
f 236 249 248
f 236 247 237
f 237 247 254
f 237 254 240
f 237 240 238
f 240 254 241
f 241 254 246
f 241 246 242
f 242 246 243
f 244 251 245
f 246 254 247
f 250 253 251
