v 0.010546 -0.057291 0.067043
v 0.009020 -0.055177 0.066788
v 0.009667 -0.056033 0.067546
v 0.010431 -0.057365 0.068286
v -0.002515 -0.065930 0.020148
v -0.002515 -0.065837 0.019232
v -0.002515 -0.065655 0.018414
v -0.002515 -0.065465 0.017692
v -0.002515 -0.065190 0.017031
v -0.002515 -0.064811 0.016298
v -0.002515 -0.064227 0.015315
v -0.002515 -0.063725 0.014563
v -0.002537 -0.059363 0.008439
v -0.002688 -0.050959 0.009361
v 0.008349 -0.054313 0.066788
v 0.009027 -0.055167 0.067546
v 0.009174 -0.055516 0.068219
v 0.009891 -0.056536 0.068298
v -0.002515 -0.065806 0.022191
v -0.002515 -0.065920 0.021191
v 0.009907 -0.057056 0.068953
v 0.009481 -0.057365 0.069626
v -0.017185 -0.056405 0.021470
v -0.017185 -0.056392 0.020603
v -0.017185 -0.056311 0.019529
v -0.017185 -0.056137 0.018426
v -0.017185 -0.055975 0.017692
v -0.017185 -0.055743 0.016940
v -0.017185 -0.055420 0.015994
v -0.017185 -0.055164 0.015352
v -0.017185 -0.054705 0.014382
v -0.017185 -0.053854 0.012993
v -0.013932 -0.053040 0.008439
v -0.017185 -0.047640 0.008439
v -0.005269 -0.049418 0.008452
v -0.002976 -0.050865 0.008530
v -0.003583 -0.050360 0.009385
v -0.000845 -0.046149 0.066788
v 0.001794 -0.047865 0.067237
v 0.002744 -0.048602 0.066788
v 0.003592 -0.049277 0.066788
v 0.004583 -0.050156 0.066460
v 0.006986 -0.052626 0.066788
v 0.007818 -0.053654 0.066788
v 0.008352 -0.054306 0.067546
v 0.006733 -0.052563 0.068298
v 0.008310 -0.054546 0.068486
v 0.009254 -0.055998 0.068880
v -0.002515 -0.065639 0.022980
v -0.021181 -0.047127 0.067079
v -0.017185 -0.056253 0.023925
v 0.007223 -0.057344 0.070299
v 0.005732 -0.057365 0.070214
v 0.005060 -0.057365 0.070056
v 0.003931 -0.057365 0.069607
v 0.003227 -0.057365 0.069086
v 0.002597 -0.057365 0.068383
v -0.017185 -0.056377 0.022422
v 0.009145 -0.056508 0.069450
v 0.008457 -0.055609 0.069498
v 0.008784 -0.056531 0.069704
v 0.007920 -0.055859 0.069929
v 0.008432 -0.057276 0.070135
v -0.022134 -0.047612 0.043056
v -0.022134 -0.047678 0.040448
v -0.022134 -0.047756 0.035598
v -0.017185 -0.053025 0.011817
v -0.014431 -0.052583 0.008439
v -0.017185 -0.052492 0.011198
v -0.022134 -0.045033 0.035270
v -0.017153 -0.045563 0.008542
v -0.015340 -0.045887 0.008536
v -0.017064 -0.050001 0.008445
v -0.006584 -0.048766 0.008488
v -0.004495 -0.044119 0.066491
v -0.002761 -0.044962 0.067443
v -0.001584 -0.045692 0.066788
v -0.004111 -0.050133 0.008536
v -0.013827 -0.046185 0.008536
v -0.011654 -0.046733 0.008536
v -0.010311 -0.047175 0.008536
v -0.001309 -0.045801 0.067546
v -0.000560 -0.046276 0.067546
v 0.002776 -0.048574 0.067546
v 0.003643 -0.049302 0.067546
v 0.004379 -0.049984 0.067546
v 0.005326 -0.050918 0.067546
v 0.006250 -0.051871 0.067546
v 0.006807 -0.052467 0.067546
v 0.007818 -0.053664 0.067546
v 0.006193 -0.051921 0.068298
v 0.006061 -0.052290 0.069207
v 0.008496 -0.055114 0.068977
v 0.002095 -0.057365 0.067522
v -0.021181 -0.046781 0.068298
v -0.021181 -0.047233 0.066030
v 0.007459 -0.056463 0.070250
v 0.004955 -0.054303 0.070311
v 0.004200 -0.053548 0.070323
v -0.016939 -0.043737 0.070384
v -0.021181 -0.043737 0.070347
v 0.006464 -0.057344 0.070274
v -0.021181 -0.044586 0.070208
v -0.021181 -0.045248 0.069953
v -0.021181 -0.045993 0.069450
v -0.021181 -0.046440 0.068922
v 0.005466 -0.051815 0.069389
v 0.007939 -0.055114 0.069577
v 0.005777 -0.052740 0.069717
v 0.005105 -0.052800 0.070086
v -0.022134 -0.044947 0.043056
v -0.020947 -0.040145 0.066788
v -0.021063 -0.040345 0.068619
v -0.016453 -0.045652 0.008706
v -0.019959 -0.040130 0.066788
v -0.019207 -0.040163 0.066788
v -0.018449 -0.040229 0.066788
v -0.017905 -0.040325 0.066382
v -0.017166 -0.040383 0.066788
v -0.015432 -0.045778 0.009385
v -0.009310 -0.047554 0.008536
v -0.008100 -0.048069 0.008524
v -0.006059 -0.043318 0.067425
v -0.003360 -0.044641 0.067546
v -0.003020 -0.044894 0.068231
v -0.012665 -0.046437 0.008561
v -0.013369 -0.041055 0.066952
v -0.009383 -0.042156 0.066788
v -0.008635 -0.042396 0.066788
v -0.007940 -0.042631 0.066788
v -0.007122 -0.042924 0.066788
v -0.001639 -0.045723 0.068298
v -0.000746 -0.046286 0.068316
v 0.001653 -0.047933 0.068419
v 0.002549 -0.048610 0.068534
v 0.003374 -0.049299 0.068571
v 0.005095 -0.050779 0.068298
v 0.005658 -0.051340 0.068298
v 0.004772 -0.050734 0.068916
v 0.004993 -0.053513 0.070256
v 0.004200 -0.052800 0.070274
v 0.004337 -0.052103 0.070135
v 0.003445 -0.052800 0.070323
v 0.000425 -0.050534 0.070335
v 0.001183 -0.051290 0.070335
v -0.006367 -0.046758 0.070365
v 0.003445 -0.052045 0.070274
v -0.014671 -0.043737 0.070377
v -0.018449 -0.042982 0.070371
v -0.007122 -0.046003 0.070365
v -0.021181 -0.042833 0.070341
v 0.004318 -0.050807 0.069492
v 0.003707 -0.051398 0.070129
v -0.020947 -0.040135 0.067467
v -0.020890 -0.041997 0.070196
v -0.020832 -0.040741 0.069304
v -0.019959 -0.040274 0.068510
v -0.016181 -0.040542 0.066788
v -0.014671 -0.040812 0.066788
v -0.019959 -0.040143 0.067546
v -0.019207 -0.040171 0.067546
v -0.017841 -0.040310 0.067388
v -0.016939 -0.040446 0.067546
v -0.016181 -0.040557 0.067546
v -0.007122 -0.042899 0.067546
v -0.005615 -0.043659 0.068298
v -0.004521 -0.044129 0.068201
v -0.004943 -0.044189 0.068916
v -0.003763 -0.044894 0.069037
v -0.002230 -0.045778 0.069062
v -0.011654 -0.041504 0.066788
v -0.014671 -0.040807 0.067546
v -0.013916 -0.040949 0.067546
v -0.012704 -0.041204 0.067546
v -0.011654 -0.041456 0.067546
v -0.010605 -0.041757 0.067400
v -0.009383 -0.042118 0.067546
v -0.008635 -0.042356 0.067546
v -0.007889 -0.042613 0.067546
v -0.001127 -0.046379 0.068989
v 0.002114 -0.048794 0.069268
v 0.003992 -0.050001 0.068898
v 0.002878 -0.051098 0.070226
v 0.001183 -0.050534 0.070311
v -0.003360 -0.047511 0.070329
v -0.002601 -0.048269 0.070335
v -0.013916 -0.043737 0.070371
v -0.016939 -0.042982 0.070359
v -0.018449 -0.042280 0.070268
v -0.006367 -0.045687 0.070299
v -0.010138 -0.044492 0.070353
v 0.002766 -0.049506 0.069474
v 0.003480 -0.050320 0.069638
v 0.000380 -0.048850 0.070153
v -0.017694 -0.041934 0.070159
v -0.019626 -0.041709 0.070086
v -0.019207 -0.040969 0.069547
v -0.019959 -0.040769 0.069328
v -0.019207 -0.040433 0.068789
v -0.016939 -0.040542 0.068298
v -0.018503 -0.040284 0.067867
v -0.015429 -0.040681 0.067546
v -0.016181 -0.040656 0.068298
v -0.008321 -0.042563 0.068237
v -0.006696 -0.043341 0.068716
v -0.009370 -0.042606 0.069280
v -0.007393 -0.043679 0.069601
v -0.005964 -0.044376 0.069650
v -0.004463 -0.045131 0.069656
v -0.002969 -0.045899 0.069632
v -0.001725 -0.046453 0.069510
v -0.015429 -0.040779 0.068298
v -0.013353 -0.041153 0.068098
v -0.012409 -0.041406 0.068298
v -0.010567 -0.041871 0.068249
v -0.009383 -0.042219 0.068298
v -0.000861 -0.047008 0.069541
v 0.001391 -0.048526 0.069529
v 0.001145 -0.049804 0.070232
v 0.000425 -0.049779 0.070293
v -0.001840 -0.048269 0.070299
v -0.002691 -0.047261 0.070244
v -0.003360 -0.046882 0.070244
v -0.013699 -0.042684 0.070220
v -0.017694 -0.042313 0.070262
v -0.009383 -0.044242 0.070287
v -0.005576 -0.045483 0.070177
v 0.000460 -0.048057 0.069650
v -0.000362 -0.047503 0.069656
v -0.001123 -0.047559 0.069989
v -0.002569 -0.046776 0.070050
v -0.016939 -0.041984 0.070141
v -0.018449 -0.041471 0.069892
v -0.016431 -0.041130 0.069389
v -0.018449 -0.040820 0.069292
v -0.017694 -0.041471 0.069838
v -0.016181 -0.040908 0.068989
v -0.017694 -0.040888 0.069268
v -0.008849 -0.042545 0.068807
v -0.013916 -0.041711 0.069553
v -0.010138 -0.042982 0.069814
v -0.011539 -0.041699 0.068534
v -0.012355 -0.041807 0.069213
v -0.008532 -0.044048 0.070135
v -0.006914 -0.044707 0.070117
v -0.003798 -0.046233 0.070117
v -0.014729 -0.041135 0.068916
v -0.010804 -0.043295 0.070135
v -0.013200 -0.042295 0.069905
v -0.015429 -0.041575 0.069674
v -0.016181 -0.041522 0.069717
v -0.014671 -0.041631 0.069620
v -0.015429 -0.041087 0.069092
v -0.013059 -0.041681 0.069256
f 1 2 3
f 1 3 4
f 1 4 5
f 1 5 6
f 1 6 7
f 1 7 8
f 1 8 9
f 1 9 10
f 1 10 11
f 1 11 12
f 1 12 13
f 1 13 14
f 1 14 2
f 2 15 16
f 2 16 3
f 2 14 15
f 3 16 17
f 3 17 18
f 3 18 4
f 4 19 20
f 4 20 5
f 4 18 21
f 4 21 22
f 4 22 19
f 5 20 23
f 5 23 24
f 5 24 25
f 5 25 6
f 6 25 26
f 6 26 27
f 6 27 7
f 7 27 8
f 8 27 28
f 8 28 29
f 8 29 30
f 8 30 9
f 9 30 31
f 9 31 10
f 10 31 11
f 11 31 32
f 11 32 33
f 11 33 12
f 12 33 13
f 13 33 68
f 13 68 34
f 13 34 35
f 13 35 36
f 13 36 14
f 14 36 37
f 14 37 38
f 14 38 39
f 14 39 40
f 14 40 41
f 14 41 42
f 14 42 43
f 14 43 44
f 14 44 15
f 15 44 45
f 15 45 16
f 16 45 17
f 17 45 46
f 17 46 47
f 17 47 48
f 17 48 18
f 18 48 21
f 19 49 50
f 19 50 51
f 19 51 20
f 19 22 52
f 19 52 53
f 19 53 54
f 19 54 55
f 19 55 56
f 19 56 57
f 19 57 49
f 20 51 58
f 20 58 23
f 21 48 59
f 21 59 22
f 22 59 60
f 22 60 61
f 22 61 62
f 22 62 63
f 22 63 52
f 23 58 64
f 23 64 65
f 23 65 66
f 23 66 24
f 24 66 25
f 25 66 26
f 26 66 27
f 27 66 28
f 28 66 29
f 29 66 30
f 30 66 31
f 31 66 32
f 32 66 67
f 32 67 33
f 33 67 69
f 33 69 68
f 34 70 71
f 34 71 72
f 34 72 35
f 34 68 73
f 34 73 66
f 34 66 70
f 35 74 75
f 35 75 76
f 35 76 77
f 35 77 37
f 35 37 78
f 35 78 36
f 35 72 79
f 35 79 80
f 35 80 81
f 35 81 74
f 36 78 37
f 37 77 38
f 38 77 82
f 38 82 83
f 38 83 39
f 39 83 84
f 39 84 40
f 40 84 41
f 41 84 85
f 41 85 42
f 42 85 86
f 42 86 87
f 42 87 43
f 43 87 88
f 43 88 89
f 43 89 90
f 43 90 45
f 43 45 44
f 45 90 46
f 46 91 92
f 46 92 47
f 46 90 91
f 47 92 93
f 47 93 48
f 48 93 60
f 48 60 59
f 49 57 94
f 49 94 50
f 50 94 57
f 50 57 95
f 50 95 64
f 50 64 96
f 50 96 51
f 51 96 58
f 52 63 97
f 52 97 98
f 52 98 99
f 52 99 100
f 52 100 101
f 52 101 102
f 52 102 53
f 53 102 101
f 53 101 103
f 53 103 104
f 53 104 54
f 54 104 105
f 54 105 55
f 55 105 106
f 55 106 56
f 56 106 95
f 56 95 57
f 58 96 64
f 60 93 92
f 60 92 107
f 60 107 108
f 60 108 62
f 60 62 61
f 62 109 110
f 62 110 63
f 62 108 109
f 63 110 97
f 64 95 106
f 64 106 105
f 64 105 104
f 64 104 103
f 64 103 101
f 64 101 111
f 64 111 70
f 64 70 66
f 64 66 65
f 66 73 69
f 66 69 67
f 68 69 73
f 70 112 71
f 70 111 113
f 70 113 112
f 71 114 72
f 71 112 115
f 71 115 116
f 71 116 117
f 71 117 118
f 71 118 119
f 71 119 114
f 72 114 120
f 72 120 79
f 74 81 121
f 74 121 122
f 74 122 75
f 75 122 123
f 75 123 124
f 75 124 76
f 76 124 125
f 76 125 82
f 76 82 77
f 79 126 80
f 79 120 127
f 79 127 126
f 80 126 128
f 80 128 129
f 80 129 81
f 81 129 130
f 81 130 131
f 81 131 121
f 82 125 132
f 82 132 133
f 82 133 83
f 83 133 134
f 83 134 84
f 84 134 135
f 84 135 136
f 84 136 85
f 85 136 137
f 85 137 86
f 86 137 87
f 87 137 138
f 87 138 88
f 88 138 89
f 89 138 91
f 89 91 90
f 91 138 92
f 92 138 139
f 92 139 107
f 97 140 141
f 97 141 99
f 97 99 98
f 97 110 142
f 97 142 140
f 99 143 144
f 99 144 145
f 99 145 146
f 99 146 100
f 99 141 147
f 99 147 143
f 100 148 149
f 100 149 101
f 100 146 150
f 100 150 148
f 101 149 151
f 101 151 111
f 107 152 109
f 107 109 108
f 107 139 152
f 109 153 110
f 109 152 153
f 110 153 142
f 111 151 113
f 112 113 154
f 112 154 115
f 113 151 155
f 113 155 156
f 113 156 157
f 113 157 154
f 114 119 158
f 114 158 159
f 114 159 120
f 115 154 160
f 115 160 161
f 115 161 116
f 116 161 117
f 117 119 118
f 117 161 162
f 117 162 119
f 119 162 163
f 119 163 164
f 119 164 158
f 120 159 127
f 121 131 122
f 122 131 123
f 123 131 165
f 123 165 166
f 123 166 167
f 123 167 124
f 124 167 125
f 125 167 168
f 125 168 169
f 125 169 170
f 125 170 132
f 126 171 128
f 126 127 171
f 127 172 173
f 127 173 174
f 127 174 175
f 127 175 171
f 127 159 172
f 128 171 176
f 128 176 177
f 128 177 178
f 128 178 129
f 129 178 130
f 130 178 179
f 130 179 131
f 131 179 165
f 132 170 180
f 132 180 133
f 133 180 134
f 134 180 135
f 135 180 181
f 135 181 182
f 135 182 136
f 136 182 137
f 137 182 139
f 137 139 138
f 139 182 152
f 140 142 153
f 140 153 183
f 140 183 141
f 141 183 147
f 143 147 184
f 143 184 144
f 144 184 185
f 144 185 186
f 144 186 150
f 144 150 145
f 145 150 146
f 147 183 184
f 148 150 187
f 148 187 188
f 148 188 149
f 149 188 189
f 149 189 151
f 150 186 185
f 150 185 190
f 150 190 191
f 150 191 187
f 151 189 155
f 152 182 192
f 152 192 193
f 152 193 153
f 153 194 183
f 153 193 194
f 154 157 160
f 155 189 195
f 155 195 196
f 155 196 156
f 156 197 198
f 156 198 199
f 156 199 157
f 156 196 197
f 157 199 200
f 157 200 201
f 157 201 161
f 157 161 160
f 158 164 202
f 158 202 172
f 158 172 159
f 161 201 162
f 162 201 163
f 163 201 200
f 163 200 164
f 164 200 203
f 164 203 212
f 164 212 202
f 165 179 204
f 165 204 166
f 166 204 205
f 166 205 168
f 166 168 167
f 168 205 206
f 168 206 207
f 168 207 208
f 168 208 169
f 169 208 209
f 169 209 210
f 169 210 211
f 169 211 170
f 170 211 180
f 171 175 176
f 172 202 212
f 172 212 173
f 173 212 213
f 173 213 174
f 174 213 214
f 174 214 175
f 175 214 215
f 175 215 216
f 175 216 177
f 175 177 176
f 177 216 178
f 178 216 204
f 178 204 179
f 180 211 217
f 180 217 181
f 181 217 218
f 181 218 192
f 181 192 182
f 183 194 219
f 183 219 220
f 183 220 184
f 184 220 185
f 185 220 221
f 185 221 222
f 185 222 223
f 185 223 190
f 187 191 224
f 187 224 188
f 188 225 189
f 188 224 225
f 189 225 195
f 190 226 191
f 190 223 227
f 190 227 226
f 191 226 224
f 192 218 193
f 193 218 194
f 194 222 219
f 194 218 228
f 194 228 229
f 194 229 230
f 194 230 231
f 194 231 222
f 195 232 233
f 195 233 196
f 195 225 224
f 195 224 232
f 196 233 197
f 197 234 235
f 197 235 198
f 197 233 236
f 197 236 234
f 198 235 199
f 199 237 200
f 199 235 238
f 199 238 237
f 200 237 203
f 203 237 212
f 204 216 239
f 204 239 205
f 205 239 206
f 206 240 241
f 206 241 207
f 206 239 242
f 206 242 243
f 206 243 240
f 207 241 244
f 207 244 245
f 207 245 208
f 208 245 246
f 208 246 209
f 209 246 231
f 209 231 210
f 210 217 211
f 210 231 217
f 212 237 247
f 212 247 214
f 212 214 213
f 214 247 242
f 214 242 215
f 215 242 239
f 215 239 216
f 217 231 230
f 217 230 229
f 217 229 218
f 218 229 228
f 219 222 221
f 219 221 220
f 222 231 246
f 222 246 223
f 223 246 227
f 224 248 249
f 224 249 232
f 224 226 248
f 226 227 244
f 226 244 248
f 227 246 245
f 227 245 244
f 232 249 250
f 232 250 251
f 232 251 236
f 232 236 233
f 234 238 235
f 234 236 251
f 234 251 250
f 234 250 252
f 234 252 240
f 234 240 253
f 234 253 237
f 234 237 238
f 237 253 247
f 240 243 254
f 240 254 253
f 240 252 249
f 240 249 241
f 241 249 248
f 241 248 244
f 242 247 243
f 243 247 254
f 247 253 254
f 249 252 250
