v -0.050761 -0.080111 0.008115
v -0.053881 -0.080079 0.008378
v -0.053918 -0.079111 0.008115
v -0.050320 -0.079104 0.008115
v -0.050657 -0.080111 0.011666
v -0.053924 -0.080111 0.009397
v -0.059161 -0.079881 0.067538
v -0.059212 -0.079232 0.067538
v -0.053924 -0.078237 0.008115
v -0.059246 -0.078477 0.067538
v -0.050103 -0.078477 0.008115
v -0.049737 -0.078986 0.033559
v -0.049837 -0.079200 0.032802
v -0.050589 -0.080111 0.014681
v -0.053958 -0.080111 0.010153
v -0.059067 -0.079881 0.068295
v -0.053983 -0.080111 0.010782
v -0.054009 -0.080111 0.011532
v -0.054031 -0.080111 0.012289
v -0.054306 -0.080111 0.041851
v -0.054306 -0.080111 0.042851
v -0.059107 -0.079232 0.068295
v -0.053921 -0.077481 0.008115
v -0.059120 -0.078477 0.068295
v -0.059233 -0.077723 0.067538
v -0.059160 -0.076214 0.066788
v -0.047705 -0.064683 0.008115
v -0.047705 -0.066258 0.010275
v -0.047705 -0.066523 0.010910
v -0.042919 -0.056353 0.065330
v -0.042949 -0.056353 0.066031
v -0.051961 -0.079881 0.065330
v -0.050446 -0.080058 0.032601
v -0.050466 -0.080111 0.031673
v -0.058805 -0.079881 0.068954
v -0.051643 -0.080111 0.043047
v -0.056225 -0.079881 0.070424
v -0.056980 -0.079881 0.070357
v -0.057643 -0.079881 0.070119
v -0.058321 -0.079881 0.069625
v -0.058814 -0.079232 0.068972
v -0.053910 -0.076725 0.008115
v -0.058818 -0.078477 0.068972
v -0.058912 -0.077723 0.068759
v -0.058875 -0.075688 0.068685
v -0.058859 -0.074944 0.068637
v -0.059086 -0.077723 0.068295
v -0.059211 -0.076967 0.067538
v -0.059097 -0.074702 0.067538
v -0.059121 -0.075455 0.066788
v -0.053921 -0.075455 0.008640
v -0.053922 -0.076151 0.008378
v -0.049224 -0.061197 0.008115
v -0.047723 -0.058881 0.008378
v -0.047705 -0.058760 0.009397
v -0.047705 -0.058725 0.010153
v -0.047705 -0.058660 0.011666
v -0.046545 -0.056353 0.065330
v -0.043002 -0.056353 0.066721
v -0.052006 -0.079881 0.066031
v -0.050552 -0.080111 0.033559
v -0.052080 -0.079881 0.066727
v -0.052217 -0.079881 0.067538
v -0.052406 -0.079881 0.068295
v -0.052821 -0.079881 0.069021
v -0.053385 -0.079881 0.069588
v -0.053959 -0.079881 0.069955
v -0.054544 -0.079881 0.070211
v -0.055469 -0.079881 0.070388
v -0.048565 -0.056353 0.070418
v -0.056225 -0.075455 0.070449
v -0.056980 -0.078477 0.070376
v -0.056980 -0.079232 0.070369
v -0.057662 -0.079232 0.070131
v -0.058329 -0.079232 0.069631
v -0.058709 -0.077723 0.069137
v -0.053854 -0.075337 0.008115
v -0.058656 -0.073946 0.069051
v -0.058886 -0.073946 0.068362
v -0.059049 -0.073946 0.067538
v -0.059064 -0.074702 0.066788
v -0.053855 -0.074700 0.008640
v -0.050603 -0.063683 0.008115
v -0.049834 -0.062183 0.008384
v -0.053475 -0.058262 0.067441
v -0.048872 -0.060560 0.008378
v -0.048282 -0.059653 0.008378
v -0.052281 -0.056466 0.067605
v -0.052089 -0.056353 0.066794
v -0.051717 -0.056353 0.066031
v -0.051146 -0.056353 0.065537
v -0.050189 -0.056353 0.065378
v -0.043146 -0.056353 0.067483
v -0.043561 -0.056353 0.068289
v -0.043899 -0.056353 0.068710
v -0.044691 -0.056353 0.069399
v -0.045521 -0.056353 0.069851
v -0.046379 -0.056353 0.070168
v -0.047697 -0.056353 0.070376
v -0.047001 -0.056353 0.070284
v -0.052155 -0.056353 0.068319
v -0.050338 -0.056357 0.070168
v -0.049324 -0.056411 0.070406
v -0.049433 -0.057334 0.070424
v -0.055469 -0.070925 0.070449
v -0.056225 -0.073946 0.070449
v -0.056980 -0.075455 0.070363
v -0.057221 -0.076214 0.070308
v -0.057664 -0.078477 0.070131
v -0.058333 -0.078477 0.069631
v -0.058332 -0.077723 0.069631
v -0.058311 -0.073946 0.069625
v -0.053775 -0.074460 0.008115
v -0.058597 -0.073190 0.069051
v -0.058284 -0.073190 0.069601
v -0.058851 -0.073190 0.068222
v -0.058971 -0.073190 0.067538
v -0.058941 -0.073190 0.066928
v -0.053783 -0.073946 0.008640
v -0.052123 -0.067388 0.008115
v -0.051340 -0.065257 0.008128
v -0.050868 -0.064134 0.008640
v -0.055159 -0.061357 0.066928
v -0.050536 -0.063436 0.008640
v -0.050111 -0.062625 0.008640
v -0.054384 -0.059897 0.066959
v -0.053819 -0.058846 0.067538
v -0.053622 -0.058550 0.068161
v -0.052858 -0.057283 0.067538
v -0.052832 -0.057318 0.068295
v -0.052903 -0.057592 0.068783
v -0.052230 -0.056727 0.068875
v -0.051591 -0.056432 0.069369
v -0.052144 -0.059118 0.070211
v -0.050189 -0.057334 0.070376
v -0.051742 -0.057299 0.069741
v -0.051691 -0.059601 0.070388
v -0.050940 -0.058846 0.070412
v -0.050189 -0.058090 0.070424
v -0.053203 -0.064132 0.070430
v -0.053203 -0.063376 0.070424
v -0.054714 -0.067909 0.070437
v -0.054714 -0.067153 0.070424
v -0.055469 -0.069413 0.070418
v -0.056225 -0.071681 0.070412
v -0.056225 -0.072434 0.070424
v -0.056980 -0.074702 0.070351
v -0.057622 -0.074702 0.070113
v -0.057661 -0.076967 0.070125
v -0.057587 -0.073946 0.070101
v -0.053184 -0.070804 0.008115
v -0.053707 -0.073190 0.008640
v -0.053601 -0.072807 0.008134
v -0.058495 -0.072434 0.069051
v -0.058228 -0.072434 0.069546
v -0.057501 -0.073076 0.070095
v -0.057737 -0.072434 0.069887
v -0.058619 -0.071681 0.068295
v -0.058814 -0.072651 0.068075
v -0.058741 -0.071681 0.067538
v -0.058883 -0.072537 0.067300
v -0.052524 -0.068541 0.008115
v -0.052372 -0.067909 0.008640
v -0.052088 -0.067109 0.008640
v -0.051795 -0.066399 0.008378
v -0.057387 -0.066699 0.066953
v -0.056702 -0.065013 0.066788
v -0.055879 -0.062927 0.067014
v -0.055458 -0.061869 0.067538
v -0.055091 -0.061111 0.067538
v -0.054680 -0.060357 0.067538
v -0.054295 -0.059674 0.067538
v -0.054264 -0.059736 0.068393
v -0.053563 -0.058887 0.068978
v -0.052701 -0.057911 0.069283
v -0.052468 -0.057308 0.069082
v -0.052025 -0.057022 0.069381
v -0.052200 -0.057525 0.069540
v -0.052733 -0.060385 0.070272
v -0.052534 -0.059697 0.070211
v -0.052447 -0.058134 0.069643
v -0.052446 -0.061113 0.070400
v -0.053103 -0.061113 0.070278
v -0.051691 -0.060357 0.070418
v -0.053203 -0.062620 0.070406
v -0.053958 -0.064132 0.070388
v -0.055471 -0.068655 0.070400
v -0.055471 -0.067909 0.070369
v -0.056467 -0.070169 0.070302
v -0.056980 -0.073946 0.070327
v -0.057042 -0.073200 0.070278
v -0.053422 -0.071679 0.008378
v -0.053270 -0.070923 0.008640
v -0.053043 -0.070169 0.008378
v -0.052821 -0.069388 0.008378
v -0.053593 -0.072376 0.008640
v -0.058253 -0.071579 0.069259
v -0.058223 -0.070983 0.069039
v -0.058479 -0.070925 0.068295
v -0.057737 -0.071681 0.069778
v -0.056615 -0.069339 0.070192
v -0.056762 -0.067153 0.069582
v -0.056766 -0.070925 0.070260
v -0.058597 -0.070925 0.067538
v -0.052626 -0.068660 0.008640
v -0.058142 -0.068946 0.067020
v -0.057835 -0.067909 0.067538
v -0.057259 -0.066304 0.067538
v -0.057009 -0.065644 0.067538
v -0.056730 -0.064948 0.067538
v -0.056403 -0.064132 0.067538
v -0.055816 -0.062695 0.067538
v -0.055158 -0.061371 0.068161
v -0.055779 -0.062764 0.068393
v -0.055453 -0.062657 0.069027
v -0.053940 -0.059648 0.069027
v -0.053486 -0.059520 0.069497
v -0.052930 -0.058629 0.069521
v -0.053700 -0.061997 0.070235
v -0.053483 -0.061113 0.070125
v -0.053200 -0.060285 0.070034
v -0.053958 -0.063376 0.070333
v -0.053956 -0.062697 0.070260
v -0.054714 -0.065644 0.070357
v -0.055241 -0.065644 0.070247
v -0.055543 -0.067083 0.070290
v -0.056673 -0.066574 0.069497
v -0.056649 -0.065130 0.068759
v -0.058178 -0.070158 0.068643
v -0.058031 -0.068832 0.068106
v -0.058265 -0.069413 0.067538
v -0.058437 -0.070169 0.067538
v -0.055163 -0.065055 0.070217
v -0.055960 -0.067111 0.070156
v -0.056289 -0.066353 0.069735
v -0.056126 -0.065644 0.069674
v -0.058102 -0.068758 0.067538
v -0.057376 -0.066725 0.067965
v -0.056631 -0.064816 0.068295
v -0.056364 -0.064132 0.068295
v -0.055813 -0.063376 0.069003
v -0.055056 -0.062318 0.069381
v -0.055187 -0.062820 0.069521
v -0.053791 -0.060357 0.069625
v -0.054204 -0.062497 0.070113
v -0.055017 -0.064341 0.070156
v -0.055318 -0.063376 0.069637
v -0.054590 -0.064132 0.070260
v -0.055986 -0.064888 0.069570
v -0.056543 -0.065855 0.069344
v -0.055914 -0.064190 0.069357
v -0.055434 -0.064839 0.069991
v -0.054589 -0.063281 0.070107
v -0.055519 -0.064130 0.069717
f 1 2 3
f 1 3 9
f 1 9 23
f 1 23 42
f 1 42 77
f 1 77 113
f 1 113 151
f 1 151 162
f 1 162 120
f 1 120 83
f 1 83 53
f 1 53 27
f 1 27 11
f 1 11 4
f 1 4 5
f 1 5 14
f 1 14 34
f 1 34 61
f 1 61 36
f 1 36 21
f 1 21 20
f 1 20 19
f 1 19 18
f 1 18 17
f 1 17 15
f 1 15 6
f 1 6 2
f 2 6 7
f 2 7 8
f 2 8 3
f 3 8 10
f 3 10 9
f 4 11 12
f 4 12 13
f 4 13 14
f 4 14 5
f 6 15 7
f 7 16 8
f 7 15 17
f 7 17 18
f 7 18 19
f 7 19 20
f 7 20 21
f 7 21 16
f 8 16 22
f 8 22 10
f 9 10 23
f 10 22 24
f 10 24 25
f 10 25 26
f 10 26 23
f 11 27 28
f 11 28 29
f 11 29 30
f 11 30 12
f 12 30 31
f 12 31 32
f 12 32 13
f 13 33 34
f 13 34 14
f 13 32 33
f 16 21 35
f 16 35 22
f 21 36 37
f 21 37 38
f 21 38 39
f 21 39 40
f 21 40 35
f 22 35 41
f 22 41 24
f 23 26 42
f 24 41 43
f 24 43 44
f 24 44 45
f 24 45 46
f 24 46 47
f 24 47 48
f 24 48 25
f 25 48 26
f 26 48 49
f 26 49 50
f 26 50 51
f 26 51 52
f 26 52 42
f 27 53 54
f 27 54 30
f 27 30 28
f 28 30 29
f 30 54 55
f 30 55 56
f 30 56 57
f 30 57 58
f 30 58 92
f 30 92 91
f 30 91 90
f 30 90 89
f 30 89 101
f 30 101 70
f 30 70 99
f 30 99 100
f 30 100 98
f 30 98 97
f 30 97 96
f 30 96 95
f 30 95 94
f 30 94 93
f 30 93 59
f 30 59 31
f 31 59 60
f 31 60 32
f 32 61 33
f 32 60 61
f 33 61 34
f 35 40 41
f 36 61 62
f 36 62 63
f 36 63 64
f 36 64 65
f 36 65 66
f 36 66 67
f 36 67 68
f 36 68 69
f 36 69 37
f 37 70 71
f 37 71 72
f 37 72 73
f 37 73 38
f 37 69 70
f 38 73 74
f 38 74 39
f 39 74 40
f 40 75 41
f 40 74 75
f 41 75 76
f 41 76 43
f 42 52 77
f 43 76 78
f 43 78 44
f 44 78 45
f 45 78 46
f 46 79 47
f 46 78 79
f 47 79 48
f 48 79 49
f 49 80 50
f 49 79 80
f 50 80 81
f 50 81 51
f 51 82 77
f 51 77 52
f 51 81 82
f 53 83 84
f 53 84 85
f 53 85 86
f 53 86 87
f 53 87 54
f 54 87 88
f 54 88 89
f 54 89 55
f 55 89 90
f 55 90 56
f 56 90 91
f 56 91 92
f 56 92 57
f 57 92 58
f 59 62 60
f 59 93 63
f 59 63 62
f 60 62 61
f 63 93 64
f 64 93 94
f 64 94 65
f 65 95 66
f 65 94 95
f 66 96 67
f 66 95 96
f 67 96 97
f 67 97 68
f 68 98 69
f 68 97 98
f 69 99 70
f 69 98 100
f 69 100 99
f 70 101 102
f 70 102 103
f 70 103 104
f 70 104 71
f 71 104 105
f 71 105 106
f 71 106 72
f 72 107 108
f 72 108 74
f 72 74 73
f 72 106 107
f 74 108 109
f 74 109 110
f 74 110 75
f 75 110 76
f 76 110 111
f 76 111 112
f 76 112 78
f 77 82 113
f 78 114 79
f 78 112 115
f 78 115 114
f 79 114 116
f 79 116 80
f 80 116 117
f 80 117 118
f 80 118 81
f 81 118 82
f 82 119 113
f 82 118 119
f 83 120 121
f 83 121 122
f 83 122 123
f 83 123 124
f 83 124 125
f 83 125 84
f 84 125 126
f 84 126 85
f 85 126 127
f 85 127 128
f 85 128 129
f 85 129 86
f 86 129 87
f 87 129 88
f 88 129 101
f 88 101 89
f 101 129 130
f 101 130 131
f 101 131 132
f 101 132 133
f 101 133 102
f 102 134 135
f 102 135 103
f 102 133 136
f 102 136 134
f 103 135 137
f 103 137 138
f 103 138 139
f 103 139 104
f 104 139 105
f 105 139 140
f 105 140 141
f 105 141 142
f 105 142 143
f 105 143 144
f 105 144 145
f 105 145 146
f 105 146 106
f 106 146 107
f 107 147 108
f 107 146 145
f 107 145 147
f 108 148 149
f 108 149 109
f 108 147 148
f 109 149 111
f 109 111 110
f 111 149 112
f 112 149 148
f 112 148 150
f 112 150 115
f 113 119 152
f 113 152 153
f 113 153 151
f 114 154 116
f 114 115 155
f 114 155 154
f 115 150 156
f 115 156 157
f 115 157 155
f 116 158 159
f 116 159 117
f 116 154 158
f 117 159 160
f 117 160 161
f 117 161 118
f 118 161 152
f 118 152 119
f 120 162 163
f 120 163 164
f 120 164 165
f 120 165 121
f 121 165 166
f 121 166 167
f 121 167 168
f 121 168 169
f 121 169 122
f 122 169 123
f 123 169 170
f 123 170 124
f 124 170 125
f 125 170 126
f 126 170 171
f 126 171 172
f 126 172 127
f 127 172 128
f 128 172 171
f 128 171 173
f 128 173 131
f 128 131 130
f 128 130 129
f 131 173 174
f 131 174 175
f 131 175 176
f 131 176 132
f 132 176 177
f 132 177 133
f 133 177 178
f 133 178 136
f 134 179 137
f 134 137 135
f 134 136 180
f 134 180 179
f 136 178 181
f 136 181 180
f 137 182 138
f 137 179 183
f 137 183 182
f 138 184 139
f 138 182 185
f 138 185 184
f 139 184 141
f 139 141 140
f 141 143 142
f 141 184 185
f 141 185 143
f 143 185 186
f 143 186 187
f 143 187 144
f 144 187 145
f 145 187 188
f 145 188 189
f 145 189 190
f 145 190 147
f 147 190 148
f 148 190 150
f 150 190 191
f 150 191 156
f 151 153 192
f 151 192 193
f 151 193 194
f 151 194 195
f 151 195 162
f 152 196 153
f 152 161 196
f 153 196 192
f 154 155 197
f 154 197 198
f 154 198 199
f 154 199 158
f 155 157 200
f 155 200 201
f 155 201 202
f 155 202 197
f 156 191 203
f 156 203 201
f 156 201 157
f 157 201 200
f 158 199 160
f 158 160 159
f 160 204 161
f 160 199 204
f 161 204 196
f 162 195 205
f 162 205 163
f 163 205 166
f 163 166 164
f 164 166 165
f 166 205 206
f 166 206 207
f 166 207 208
f 166 208 209
f 166 209 167
f 167 209 210
f 167 210 211
f 167 211 168
f 168 211 212
f 168 212 169
f 169 213 170
f 169 212 214
f 169 214 213
f 170 213 173
f 170 173 171
f 173 214 215
f 173 215 216
f 173 216 174
f 173 213 214
f 174 216 217
f 174 217 218
f 174 218 175
f 175 218 178
f 175 178 177
f 175 177 176
f 178 218 181
f 179 180 219
f 179 219 183
f 180 220 219
f 180 181 221
f 180 221 220
f 181 218 221
f 182 183 185
f 183 222 185
f 183 219 223
f 183 223 222
f 185 222 186
f 186 222 224
f 186 224 188
f 186 188 187
f 188 224 225
f 188 225 226
f 188 226 189
f 189 226 201
f 189 201 203
f 189 203 190
f 190 203 191
f 192 196 206
f 192 206 193
f 193 206 194
f 194 206 195
f 195 206 205
f 196 204 206
f 197 202 227
f 197 227 198
f 198 228 229
f 198 229 199
f 198 227 228
f 199 230 231
f 199 231 232
f 199 232 204
f 199 229 230
f 201 226 225
f 201 225 233
f 201 233 234
f 201 234 202
f 202 235 236
f 202 236 227
f 202 234 235
f 204 232 206
f 206 232 231
f 206 231 237
f 206 237 207
f 207 237 230
f 207 230 238
f 207 238 208
f 208 238 239
f 208 239 209
f 209 239 240
f 209 240 210
f 210 240 211
f 211 240 212
f 212 240 214
f 214 228 241
f 214 241 215
f 214 240 228
f 215 241 242
f 215 242 216
f 216 242 217
f 217 242 243
f 217 243 244
f 217 244 221
f 217 221 218
f 219 220 245
f 219 245 246
f 219 246 223
f 220 221 245
f 221 244 247
f 221 247 245
f 222 223 248
f 222 248 233
f 222 233 224
f 223 246 233
f 223 233 248
f 224 233 225
f 227 236 249
f 227 249 250
f 227 250 228
f 228 240 239
f 228 239 238
f 228 238 230
f 228 230 229
f 228 250 251
f 228 251 241
f 230 237 231
f 233 246 234
f 234 246 252
f 234 252 235
f 235 252 236
f 236 252 249
f 241 251 243
f 241 243 242
f 243 247 244
f 243 251 247
f 245 253 246
f 245 247 253
f 246 253 247
f 246 247 254
f 246 254 252
f 247 251 249
f 247 249 254
f 249 252 254
f 249 251 250
