v 0.016622 -0.082980 0.066724
v 0.016485 -0.082980 0.067920
v 0.016470 -0.083779 0.067167
v 0.016363 -0.084534 0.066788
v 0.011745 -0.083311 0.043057
v 0.009036 -0.082980 0.043057
v 0.016285 -0.083779 0.068296
v 0.012951 -0.082980 0.070197
v 0.015701 -0.082997 0.069388
v 0.015852 -0.086565 0.067893
v 0.015985 -0.086342 0.066681
v 0.011504 -0.084534 0.043057
v 0.009040 -0.082980 0.044138
v -0.021183 -0.108692 0.043057
v -0.021183 -0.108647 0.046253
v 0.015823 -0.084908 0.068889
v 0.015534 -0.087555 0.068296
v 0.015756 -0.083779 0.069247
v 0.008732 -0.096613 0.070269
v 0.009487 -0.095105 0.070261
v 0.012947 -0.088311 0.070200
v 0.014531 -0.083292 0.070112
v 0.011748 -0.082980 0.069914
v -0.021175 -0.111855 0.070160
v -0.021175 -0.113082 0.070307
v -0.015428 -0.112475 0.070333
v 0.015379 -0.083779 0.069612
v 0.015467 -0.088311 0.067543
v 0.015678 -0.087555 0.067167
v 0.015182 -0.089359 0.067084
v 0.014772 -0.090579 0.066788
v 0.010620 -0.087986 0.043057
v 0.010942 -0.086799 0.043057
v 0.011304 -0.085375 0.043057
v 0.009143 -0.082980 0.051694
v -0.021183 -0.108747 0.055464
v -0.019669 -0.111326 0.043057
v -0.021064 -0.111339 0.043351
v -0.021183 -0.111622 0.065138
v 0.015279 -0.086329 0.069241
v 0.015138 -0.087555 0.069065
v 0.015149 -0.088687 0.068467
v 0.014842 -0.089816 0.068296
v 0.007223 -0.098878 0.070256
v 0.007974 -0.098122 0.070251
v 0.008947 -0.097580 0.070208
v 0.010046 -0.095371 0.070221
v -0.011276 -0.111716 0.070325
v -0.007124 -0.110207 0.070315
v -0.004860 -0.109451 0.070288
v 0.012921 -0.089125 0.070160
v 0.014342 -0.087179 0.069813
v 0.015031 -0.084911 0.069703
v 0.010694 -0.082980 0.069193
v -0.021175 -0.110658 0.069666
v -0.021183 -0.108945 0.065138
v -0.020946 -0.116112 0.066790
v -0.020946 -0.116125 0.067621
v -0.020946 -0.115859 0.068731
v -0.020946 -0.115226 0.069618
v -0.020946 -0.114409 0.070066
v -0.019210 -0.113831 0.070243
v -0.018452 -0.113516 0.070285
v -0.017697 -0.113231 0.070320
v 0.014724 -0.090579 0.067543
v 0.014280 -0.091857 0.067167
v 0.013787 -0.093132 0.066675
v 0.009769 -0.090365 0.043057
v 0.010239 -0.089064 0.043057
v 0.009317 -0.082980 0.063386
v -0.021183 -0.108848 0.062558
v -0.018452 -0.111268 0.043057
v -0.018452 -0.115917 0.066288
v 0.014276 -0.088311 0.069690
v 0.014413 -0.089197 0.069351
v 0.014453 -0.090822 0.068350
v 0.005713 -0.101139 0.070237
v 0.010486 -0.095105 0.070157
v 0.005328 -0.102031 0.070192
v 0.006471 -0.102654 0.069762
v 0.008732 -0.099627 0.069773
v 0.010997 -0.095105 0.069997
v 0.011504 -0.093197 0.070112
v -0.012409 -0.112475 0.070299
v -0.004597 -0.109954 0.070226
v -0.003346 -0.108968 0.070253
v 0.002016 -0.105191 0.070216
v 0.013269 -0.090579 0.069839
v 0.013591 -0.089816 0.069805
v 0.012511 -0.092091 0.069943
v 0.009924 -0.082980 0.068000
v -0.021175 -0.109870 0.068953
v -0.021175 -0.109299 0.067850
v -0.021175 -0.109065 0.066841
v -0.021175 -0.108984 0.066035
v 0.009376 -0.082980 0.064521
v -0.019584 -0.116083 0.067169
v -0.017397 -0.115917 0.066678
v -0.018452 -0.116024 0.067169
v -0.017323 -0.115927 0.067629
v -0.018011 -0.115894 0.068446
v -0.019444 -0.115739 0.068916
v -0.017734 -0.115398 0.069239
v -0.016598 -0.114963 0.069559
v -0.019395 -0.114996 0.069722
v -0.019962 -0.114480 0.070040
v -0.019210 -0.114207 0.070146
v -0.016032 -0.113520 0.070253
v 0.013710 -0.093187 0.067586
v 0.013173 -0.094352 0.067543
v 0.013081 -0.094589 0.066555
v 0.009232 -0.091656 0.043057
v -0.016561 -0.111060 0.043057
v 0.013769 -0.090579 0.069546
v 0.012810 -0.094245 0.068918
v 0.013850 -0.092353 0.068403
v 0.001716 -0.106210 0.070082
v 0.002626 -0.105610 0.070010
v 0.002552 -0.106667 0.069570
v 0.006401 -0.103631 0.069279
v 0.009188 -0.100176 0.069225
v 0.009739 -0.098242 0.069709
v 0.011874 -0.094767 0.069644
v -0.011247 -0.112851 0.070125
v -0.008634 -0.111943 0.070146
v -0.006007 -0.110583 0.070213
v -0.006640 -0.111203 0.070138
v -0.003346 -0.109613 0.070104
v -0.002528 -0.109104 0.070136
v -0.001056 -0.107952 0.070160
v 0.013103 -0.092091 0.069615
v 0.012607 -0.093093 0.069655
v 0.009535 -0.082980 0.066430
v -0.015051 -0.115625 0.066790
v -0.016317 -0.115820 0.067244
v -0.014674 -0.115531 0.067546
v -0.015810 -0.115609 0.068299
v -0.014674 -0.115226 0.068857
v -0.016942 -0.115466 0.069054
v -0.017697 -0.114739 0.069805
v -0.015428 -0.115171 0.069159
v -0.013919 -0.114535 0.069580
v -0.015428 -0.114665 0.069660
v -0.016942 -0.114133 0.070106
v -0.013919 -0.113727 0.070040
v 0.012877 -0.094702 0.068256
v 0.012588 -0.095533 0.067543
v 0.012126 -0.096422 0.066569
v 0.008492 -0.093236 0.043057
v -0.015428 -0.110908 0.043057
v 0.012196 -0.095413 0.068998
v -0.000378 -0.108695 0.069599
v -0.000667 -0.109101 0.069452
v -0.000160 -0.108942 0.069284
v 0.000828 -0.108273 0.069244
v 0.001786 -0.107430 0.069375
v 0.003759 -0.106074 0.069172
v 0.003674 -0.106687 0.068299
v 0.006841 -0.103997 0.067840
v 0.007763 -0.102466 0.068843
v 0.009861 -0.099994 0.068296
v 0.011478 -0.097168 0.068528
v 0.010575 -0.097661 0.069383
v 0.008455 -0.101645 0.068798
v 0.009077 -0.101090 0.068406
v 0.011523 -0.095721 0.069535
v -0.010899 -0.113792 0.069586
v -0.010140 -0.112582 0.070101
v -0.013167 -0.114224 0.069684
v -0.008634 -0.112475 0.069895
v -0.006303 -0.111787 0.069717
v -0.004860 -0.110960 0.069807
v -0.004090 -0.110168 0.070024
v -0.001825 -0.109490 0.069684
v -0.013919 -0.115414 0.067169
v -0.012938 -0.115203 0.066691
v -0.013030 -0.115109 0.068045
v -0.014674 -0.115405 0.068299
v -0.013926 -0.115164 0.068619
v -0.011380 -0.114441 0.068846
v -0.012383 -0.114237 0.069522
v 0.012092 -0.096373 0.067898
v 0.011330 -0.097827 0.067634
v 0.011386 -0.097762 0.066598
v 0.007770 -0.094586 0.043057
v -0.014518 -0.110710 0.043057
v -0.002702 -0.110366 0.069436
v -0.001463 -0.109990 0.069052
v 0.000143 -0.109140 0.068782
v 0.002408 -0.107641 0.068512
v 0.001890 -0.108283 0.067546
v 0.002930 -0.107453 0.067546
v 0.003585 -0.106921 0.067546
v 0.006816 -0.104163 0.066790
v 0.009213 -0.101269 0.067167
v 0.008481 -0.101895 0.068299
v 0.009739 -0.100558 0.067167
v 0.010790 -0.098787 0.067543
v -0.009915 -0.113653 0.069345
v -0.007898 -0.112793 0.069516
v -0.007124 -0.112319 0.069610
v -0.004116 -0.111200 0.069409
v -0.011276 -0.114749 0.067546
v -0.011276 -0.114788 0.066790
v -0.013160 -0.110376 0.043057
v -0.010281 -0.114431 0.066267
v -0.010425 -0.114340 0.068400
v -0.008131 -0.113597 0.068470
v 0.010572 -0.099173 0.066788
v 0.006753 -0.096250 0.043057
v -0.001955 -0.110626 0.068531
v 0.001642 -0.108264 0.068406
v -0.000745 -0.109925 0.068317
v 0.000872 -0.109010 0.067597
v 0.001050 -0.108977 0.066675
v 0.003170 -0.107277 0.066790
v 0.006194 -0.104620 0.066240
v 0.001931 -0.102142 0.043057
v 0.003170 -0.100867 0.043057
v 0.003714 -0.100273 0.043057
v 0.004436 -0.099439 0.043057
v 0.005154 -0.098537 0.043057
v 0.006172 -0.097113 0.043057
v -0.006991 -0.113117 0.068571
v -0.003413 -0.111391 0.068582
v -0.009748 -0.114334 0.067199
v -0.009385 -0.114058 0.068299
v -0.007861 -0.113685 0.066526
v -0.012190 -0.110113 0.043057
v -0.011399 -0.109876 0.043057
v -0.010140 -0.109464 0.043057
v -0.007472 -0.113494 0.067546
v -0.006110 -0.112880 0.067968
v -0.008634 -0.113961 0.067169
v -0.002680 -0.111190 0.067954
v -0.001544 -0.110632 0.067458
v -0.004438 -0.112021 0.068331
v -0.000282 -0.109863 0.067169
v 0.001801 -0.108364 0.066510
v -0.001296 -0.110567 0.066569
v -0.001648 -0.105175 0.043057
v -0.000874 -0.104598 0.043057
v 0.000884 -0.103092 0.043057
v -0.005777 -0.112858 0.066563
v -0.008986 -0.109078 0.043057
v -0.004516 -0.112222 0.067546
v -0.003346 -0.111628 0.067546
v -0.002650 -0.111307 0.066790
v -0.002876 -0.111388 0.066320
v -0.004575 -0.106956 0.043057
v -0.003731 -0.106483 0.043057
v -0.004604 -0.112303 0.066670
v -0.008223 -0.108747 0.043057
v -0.007184 -0.108283 0.043057
v -0.006099 -0.107761 0.043057
f 1 2 3
f 1 3 4
f 1 4 5
f 1 5 6
f 1 6 13
f 1 13 35
f 1 35 70
f 1 70 96
f 1 96 133
f 1 133 91
f 1 91 54
f 1 54 23
f 1 23 8
f 1 8 2
f 2 7 3
f 2 8 9
f 2 9 7
f 3 7 10
f 3 10 4
f 4 10 11
f 4 11 12
f 4 12 5
f 5 12 34
f 5 34 33
f 5 33 32
f 5 32 69
f 5 69 68
f 5 68 112
f 5 112 149
f 5 149 185
f 5 185 210
f 5 210 223
f 5 223 222
f 5 222 221
f 5 221 220
f 5 220 219
f 5 219 218
f 5 218 243
f 5 243 242
f 5 242 241
f 5 241 251
f 5 251 250
f 5 250 255
f 5 255 254
f 5 254 253
f 5 253 245
f 5 245 231
f 5 231 230
f 5 230 229
f 5 229 205
f 5 205 186
f 5 186 150
f 5 150 113
f 5 113 72
f 5 72 37
f 5 37 14
f 5 14 6
f 6 14 15
f 6 15 13
f 7 16 17
f 7 17 10
f 7 9 18
f 7 18 16
f 8 19 20
f 8 20 21
f 8 21 22
f 8 22 9
f 8 23 24
f 8 24 25
f 8 25 26
f 8 26 19
f 9 22 27
f 9 27 18
f 10 17 28
f 10 28 29
f 10 29 11
f 11 29 30
f 11 30 31
f 11 31 32
f 11 32 33
f 11 33 34
f 11 34 12
f 13 15 36
f 13 36 35
f 14 37 38
f 14 38 25
f 14 25 39
f 14 39 56
f 14 56 71
f 14 71 36
f 14 36 15
f 16 18 40
f 16 40 41
f 16 41 17
f 17 41 42
f 17 42 43
f 17 43 28
f 18 27 40
f 19 44 45
f 19 45 46
f 19 46 47
f 19 47 20
f 19 26 48
f 19 48 49
f 19 49 50
f 19 50 44
f 20 47 21
f 21 51 22
f 21 47 51
f 22 52 53
f 22 53 27
f 22 51 52
f 23 54 55
f 23 55 24
f 24 55 56
f 24 56 25
f 25 56 39
f 25 38 57
f 25 57 58
f 25 58 59
f 25 59 60
f 25 60 61
f 25 61 62
f 25 62 63
f 25 63 64
f 25 64 26
f 26 64 48
f 27 53 40
f 28 30 29
f 28 43 65
f 28 65 30
f 30 65 31
f 31 65 66
f 31 66 67
f 31 67 68
f 31 68 69
f 31 69 32
f 35 36 70
f 36 71 70
f 37 72 73
f 37 73 57
f 37 57 38
f 40 53 74
f 40 74 75
f 40 75 41
f 41 75 42
f 42 75 76
f 42 76 43
f 43 76 65
f 44 77 45
f 44 50 77
f 45 77 46
f 46 78 47
f 46 77 79
f 46 79 80
f 46 80 81
f 46 81 82
f 46 82 78
f 47 78 83
f 47 83 51
f 48 64 84
f 48 84 49
f 49 84 85
f 49 85 50
f 50 85 86
f 50 86 87
f 50 87 77
f 51 88 89
f 51 89 52
f 51 83 90
f 51 90 88
f 52 74 53
f 52 89 74
f 54 91 92
f 54 92 55
f 55 92 56
f 56 92 93
f 56 93 94
f 56 94 95
f 56 95 96
f 56 96 70
f 56 70 71
f 57 97 58
f 57 73 98
f 57 98 97
f 58 97 99
f 58 99 100
f 58 100 101
f 58 101 59
f 59 101 102
f 59 102 60
f 60 102 103
f 60 103 104
f 60 104 105
f 60 105 106
f 60 106 61
f 61 106 107
f 61 107 62
f 62 107 108
f 62 108 63
f 63 108 64
f 64 108 84
f 65 76 109
f 65 109 66
f 66 109 67
f 67 109 110
f 67 110 111
f 67 111 112
f 67 112 68
f 72 113 98
f 72 98 73
f 74 89 114
f 74 114 75
f 75 114 115
f 75 115 116
f 75 116 76
f 76 116 109
f 77 87 79
f 78 82 83
f 79 87 117
f 79 117 118
f 79 118 80
f 80 118 119
f 80 119 120
f 80 120 121
f 80 121 81
f 81 121 122
f 81 122 82
f 82 123 90
f 82 90 83
f 82 122 123
f 84 108 124
f 84 124 125
f 84 125 126
f 84 126 85
f 85 126 127
f 85 127 128
f 85 128 129
f 85 129 86
f 86 129 130
f 86 130 87
f 87 130 117
f 88 131 114
f 88 114 89
f 88 90 131
f 90 132 131
f 90 123 132
f 91 133 94
f 91 94 93
f 91 93 92
f 94 133 95
f 95 133 96
f 97 98 99
f 98 113 134
f 98 134 135
f 98 135 100
f 98 100 99
f 100 135 136
f 100 136 137
f 100 137 101
f 101 137 138
f 101 138 139
f 101 139 102
f 102 139 103
f 103 139 104
f 104 140 105
f 104 139 141
f 104 141 142
f 104 142 143
f 104 143 140
f 105 140 106
f 106 140 144
f 106 144 107
f 107 144 108
f 108 144 145
f 108 145 124
f 109 116 146
f 109 146 110
f 110 146 147
f 110 147 111
f 111 147 148
f 111 148 149
f 111 149 112
f 113 150 134
f 114 131 115
f 115 131 123
f 115 123 151
f 115 151 146
f 115 146 116
f 117 119 118
f 117 130 129
f 117 129 152
f 117 152 119
f 119 152 153
f 119 153 154
f 119 154 155
f 119 155 156
f 119 156 157
f 119 157 120
f 120 157 158
f 120 158 159
f 120 159 160
f 120 160 121
f 121 161 162
f 121 162 151
f 121 151 163
f 121 163 122
f 121 160 164
f 121 164 165
f 121 165 161
f 122 163 166
f 122 166 123
f 123 166 151
f 123 131 132
f 124 167 168
f 124 168 125
f 124 145 169
f 124 169 167
f 125 168 170
f 125 170 127
f 125 127 126
f 127 171 172
f 127 172 173
f 127 173 128
f 127 170 171
f 128 173 129
f 129 174 152
f 129 173 174
f 134 175 136
f 134 136 135
f 134 150 176
f 134 176 175
f 136 175 177
f 136 177 178
f 136 178 137
f 137 178 138
f 138 178 179
f 138 179 180
f 138 180 181
f 138 181 142
f 138 142 141
f 138 141 139
f 140 143 144
f 142 181 169
f 142 169 143
f 143 169 145
f 143 145 144
f 146 151 162
f 146 162 182
f 146 182 147
f 147 182 183
f 147 183 148
f 148 183 184
f 148 184 185
f 148 185 149
f 150 186 176
f 151 166 163
f 152 174 153
f 153 174 187
f 153 187 188
f 153 188 154
f 154 189 155
f 154 188 189
f 155 189 190
f 155 190 157
f 155 157 156
f 157 190 158
f 158 190 191
f 158 191 192
f 158 192 193
f 158 193 159
f 159 194 195
f 159 195 196
f 159 196 160
f 159 193 194
f 160 196 164
f 161 165 197
f 161 197 198
f 161 198 162
f 162 198 183
f 162 183 182
f 164 196 165
f 165 196 195
f 165 195 197
f 167 169 181
f 167 181 180
f 167 180 199
f 167 199 200
f 167 200 170
f 167 170 168
f 170 200 201
f 170 201 171
f 171 201 202
f 171 202 172
f 172 202 174
f 172 174 173
f 174 202 187
f 175 176 203
f 175 203 177
f 176 204 203
f 176 186 205
f 176 205 206
f 176 206 204
f 177 179 178
f 177 203 207
f 177 207 179
f 179 207 180
f 180 207 208
f 180 208 199
f 183 198 184
f 184 198 209
f 184 209 185
f 185 209 210
f 187 202 188
f 188 202 211
f 188 211 189
f 189 212 190
f 189 211 213
f 189 213 212
f 190 212 191
f 191 212 214
f 191 214 215
f 191 215 192
f 192 216 193
f 192 215 216
f 193 216 194
f 194 216 217
f 194 217 218
f 194 218 219
f 194 219 220
f 194 220 221
f 194 221 222
f 194 222 195
f 195 222 197
f 197 209 198
f 197 222 223
f 197 223 210
f 197 210 209
f 199 208 224
f 199 224 200
f 200 224 202
f 200 202 201
f 202 225 211
f 202 224 225
f 203 204 226
f 203 226 227
f 203 227 207
f 204 206 228
f 204 228 226
f 205 229 206
f 206 229 230
f 206 230 231
f 206 231 228
f 207 227 208
f 208 232 233
f 208 233 224
f 208 227 234
f 208 234 232
f 211 235 236
f 211 236 213
f 211 225 237
f 211 237 235
f 212 213 214
f 213 236 238
f 213 238 214
f 214 238 215
f 215 239 216
f 215 238 240
f 215 240 241
f 215 241 242
f 215 242 239
f 216 239 217
f 217 239 242
f 217 242 243
f 217 243 218
f 224 233 237
f 224 237 225
f 226 234 227
f 226 228 234
f 228 244 232
f 228 232 234
f 228 231 245
f 228 245 244
f 232 244 233
f 233 244 246
f 233 246 237
f 235 237 247
f 235 247 236
f 236 247 248
f 236 248 240
f 236 240 238
f 237 246 247
f 240 248 249
f 240 249 250
f 240 250 251
f 240 251 241
f 244 249 252
f 244 252 246
f 244 245 253
f 244 253 254
f 244 254 255
f 244 255 249
f 246 252 248
f 246 248 247
f 248 252 249
f 249 255 250
