v 0.009039 -0.082978 0.043047
v 0.011802 -0.082978 0.043047
v 0.009047 -0.082978 0.044125
v 0.003269 -0.080113 0.017638
v 0.003284 -0.080113 0.016881
v 0.003732 -0.080050 0.008439
v 0.016562 -0.082978 0.067512
v 0.011553 -0.080050 0.008439
v 0.009148 -0.082978 0.051676
v 0.003282 -0.080113 0.019091
v -0.002511 -0.065941 0.020436
v -0.002511 -0.065843 0.019237
v 0.003439 -0.079267 0.008439
v -0.002511 -0.065663 0.018425
v 0.016650 -0.082670 0.066743
v 0.016660 -0.082154 0.067433
v 0.016658 -0.081469 0.067893
v 0.016503 -0.082255 0.068299
v 0.016413 -0.082978 0.068299
v 0.011574 -0.076028 0.008439
v 0.011626 -0.077676 0.008536
v 0.011616 -0.078478 0.008536
v 0.011603 -0.079235 0.008536
v 0.017010 -0.078478 0.066791
v 0.016972 -0.079235 0.066791
v 0.016842 -0.080747 0.066791
v 0.009317 -0.082978 0.063006
v 0.009332 -0.082978 0.063769
v 0.003319 -0.080113 0.019903
v -0.002511 -0.065913 0.021471
v -0.002513 -0.054473 0.034727
v -0.002511 -0.059378 0.008439
v -0.002511 -0.065485 0.017759
v -0.002511 -0.065200 0.017032
v -0.002511 -0.064769 0.016221
v -0.002511 -0.064236 0.015319
v -0.002511 -0.063815 0.014683
v 0.016767 -0.081501 0.066791
v 0.016784 -0.080747 0.067536
v 0.016650 -0.080747 0.068214
v 0.016266 -0.080747 0.069056
v 0.016164 -0.082255 0.069007
v 0.015961 -0.082978 0.069135
v 0.011532 -0.075391 0.008439
v 0.017033 -0.076966 0.066791
v 0.011622 -0.076919 0.008536
v 0.017029 -0.077724 0.066791
v 0.016960 -0.076966 0.067536
v 0.016878 -0.079235 0.067536
v 0.016836 -0.079989 0.067536
v 0.009378 -0.082978 0.064520
v 0.003374 -0.080113 0.020599
v -0.002511 -0.065815 0.022192
v 0.009487 -0.082978 0.066034
v -0.002513 -0.053947 0.043047
v -0.002513 -0.050734 0.034727
v -0.000142 -0.052993 0.008439
v -0.002511 -0.051193 0.008512
v 0.016723 -0.077609 0.068523
v 0.016206 -0.076966 0.069298
v 0.015961 -0.079989 0.069474
v 0.016042 -0.081415 0.069286
v 0.015692 -0.082141 0.069534
v 0.015449 -0.082978 0.069637
v 0.011473 -0.074608 0.008439
v 0.016972 -0.076212 0.066791
v 0.016912 -0.076212 0.067536
v 0.016667 -0.074704 0.068323
v 0.016742 -0.076862 0.068499
v 0.003456 -0.080113 0.021374
v -0.002511 -0.065634 0.023027
v 0.009587 -0.082978 0.066791
v -0.002511 -0.065406 0.023839
v -0.002513 -0.050604 0.043047
v -0.002511 -0.065155 0.024511
v -0.002511 -0.064705 0.025389
v 0.001890 -0.057373 0.066785
v -0.002513 -0.050616 0.041860
v -0.002511 -0.050987 0.012206
v -0.002511 -0.051000 0.011473
v -0.002511 -0.051047 0.010141
v -0.001792 -0.051687 0.008585
v -0.000952 -0.052328 0.008585
v -0.000626 -0.052492 0.009517
v 0.000133 -0.053117 0.009390
v 0.000369 -0.053396 0.008536
v 0.001084 -0.054001 0.008512
v 0.001696 -0.054559 0.008536
v 0.002125 -0.055028 0.008536
v 0.006099 -0.059981 0.008439
v -0.002501 -0.051089 0.009366
v 0.016331 -0.074704 0.069056
v 0.015762 -0.074704 0.069649
v 0.015776 -0.075458 0.069668
v 0.015782 -0.076212 0.069674
v 0.015741 -0.080747 0.069589
v 0.015537 -0.078478 0.069807
v 0.014815 -0.082978 0.070013
v 0.011398 -0.073962 0.008439
v 0.016677 -0.073322 0.066579
v 0.016754 -0.073946 0.066791
v 0.016660 -0.073306 0.067506
v 0.016658 -0.073911 0.068045
v 0.016468 -0.073189 0.068299
v 0.002077 -0.057373 0.067463
v 0.009923 -0.082978 0.067996
v 0.002609 -0.057373 0.068384
v 0.003210 -0.057373 0.069056
v 0.003960 -0.057373 0.069613
v 0.005071 -0.057373 0.070055
v 0.005745 -0.057373 0.070213
v 0.006476 -0.057373 0.070279
v 0.007231 -0.057373 0.070303
v 0.008324 -0.057420 0.070188
v 0.010051 -0.057373 0.069032
v 0.010646 -0.057445 0.067070
v -0.001964 -0.051481 0.009390
v 0.002951 -0.055972 0.008585
v 0.004654 -0.058006 0.008536
v 0.006631 -0.060779 0.008439
v 0.005324 -0.058859 0.008536
v 0.011075 -0.058092 0.066791
v 0.016088 -0.073239 0.069098
v 0.016082 -0.073838 0.069250
v 0.016059 -0.072438 0.068929
v 0.015585 -0.073239 0.069637
v 0.015537 -0.073946 0.069752
v 0.015868 -0.073021 0.069377
v 0.015537 -0.076966 0.069831
v 0.015537 -0.077724 0.069819
v 0.014819 -0.078478 0.070122
v 0.014827 -0.081501 0.070061
v 0.014450 -0.081501 0.070206
v 0.014228 -0.082978 0.070200
v 0.011228 -0.073008 0.008439
v 0.016535 -0.072438 0.066791
v 0.016503 -0.072438 0.067536
v 0.016189 -0.071680 0.068299
v 0.015950 -0.070967 0.068590
v 0.015990 -0.071680 0.068808
v 0.010419 -0.082978 0.068929
v 0.010972 -0.082978 0.069450
v 0.011775 -0.082978 0.069922
v 0.012604 -0.082978 0.070170
v 0.013287 -0.082978 0.070225
v 0.012510 -0.068664 0.070267
v 0.009491 -0.060358 0.070279
v 0.008739 -0.058846 0.070267
v 0.009962 -0.059648 0.070152
v 0.009233 -0.058171 0.070061
v 0.009696 -0.057512 0.069540
v 0.010560 -0.058561 0.069353
v 0.011435 -0.059699 0.069129
v 0.011454 -0.059103 0.068517
v 0.010566 -0.057639 0.068378
v 0.011044 -0.058092 0.067536
v 0.003891 -0.057043 0.008754
v 0.006971 -0.061296 0.008536
v 0.007294 -0.061866 0.008536
v 0.008198 -0.063571 0.008488
v 0.009895 -0.067558 0.008439
v 0.011561 -0.058929 0.067536
v 0.011454 -0.058710 0.066791
v 0.015805 -0.072438 0.069304
v 0.015428 -0.072438 0.069643
v 0.015347 -0.071680 0.069595
v 0.014777 -0.070926 0.069867
v 0.014777 -0.071680 0.069952
v 0.014777 -0.073189 0.070049
v 0.014725 -0.073902 0.070110
v 0.014865 -0.076212 0.070122
v 0.015125 -0.069630 0.069395
v 0.015263 -0.070926 0.069540
v 0.014023 -0.075458 0.070243
v 0.014023 -0.082255 0.070225
v 0.014693 -0.075458 0.070158
v 0.011027 -0.071966 0.008439
v 0.016386 -0.071680 0.066791
v 0.016359 -0.071680 0.067536
v 0.015967 -0.070337 0.068099
v 0.015158 -0.067827 0.068705
v 0.015162 -0.068679 0.069080
v 0.015705 -0.069415 0.068299
v 0.015533 -0.068664 0.068299
v 0.012510 -0.067909 0.070255
v 0.010247 -0.061866 0.070273
v 0.010484 -0.061213 0.070225
v 0.011439 -0.062528 0.070152
v 0.011188 -0.061866 0.070128
v 0.010972 -0.061096 0.070055
v 0.010884 -0.059600 0.069631
v 0.010501 -0.058948 0.069613
v 0.011792 -0.060288 0.069104
v 0.012190 -0.060408 0.068565
v 0.012200 -0.061663 0.069492
v 0.011884 -0.059667 0.068244
v 0.007576 -0.062383 0.008536
v 0.012154 -0.059943 0.067003
v 0.008354 -0.063761 0.009051
v 0.008504 -0.064195 0.008536
v 0.008789 -0.064851 0.008536
v 0.010260 -0.068657 0.008633
v 0.010545 -0.069655 0.008536
v 0.009043 -0.065428 0.008633
v 0.014416 -0.064854 0.066791
v 0.014725 -0.065644 0.066791
v 0.015234 -0.067120 0.066846
v 0.012043 -0.059759 0.067639
v 0.014725 -0.069415 0.069704
v 0.014023 -0.067909 0.069886
v 0.014148 -0.070926 0.070134
v 0.014668 -0.074704 0.070158
v 0.014540 -0.067909 0.069565
v 0.014641 -0.068664 0.069643
v 0.014023 -0.074704 0.070231
v 0.016229 -0.070926 0.066791
v 0.016206 -0.070926 0.067536
v 0.015148 -0.067218 0.068244
v 0.014880 -0.066398 0.068299
v 0.014486 -0.065824 0.068789
v 0.014433 -0.066398 0.069116
v 0.014412 -0.067117 0.069443
v 0.015946 -0.069846 0.067524
v 0.015646 -0.068664 0.067536
v 0.011000 -0.063378 0.070255
v 0.013534 -0.068781 0.070164
v 0.012292 -0.064344 0.070104
v 0.011756 -0.061866 0.069855
v 0.011293 -0.060383 0.069643
v 0.011762 -0.061169 0.069619
v 0.012164 -0.061064 0.069165
v 0.012803 -0.061977 0.068898
v 0.012860 -0.061524 0.068232
v 0.012979 -0.063523 0.069522
v 0.012841 -0.062823 0.069365
v 0.012422 -0.062623 0.069661
v 0.012380 -0.060358 0.067536
v 0.012925 -0.061416 0.066936
v 0.013597 -0.062940 0.066779
v 0.014113 -0.064132 0.066791
v 0.015990 -0.069953 0.066688
v 0.014748 -0.065644 0.067536
v 0.015125 -0.066705 0.067391
v 0.013270 -0.065644 0.069867
v 0.013270 -0.066398 0.070001
v 0.013903 -0.066398 0.069655
v 0.014460 -0.065314 0.068263
v 0.013333 -0.062623 0.068299
v 0.013583 -0.064677 0.069353
v 0.013721 -0.065412 0.069504
v 0.012585 -0.063311 0.069728
v 0.013130 -0.061866 0.067536
v 0.012829 -0.061232 0.067536
v 0.013097 -0.064132 0.069619
v 0.013604 -0.062934 0.067378
f 1 2 7
f 1 7 19
f 1 19 43
f 1 43 64
f 1 64 98
f 1 98 134
f 1 134 145
f 1 145 144
f 1 144 143
f 1 143 142
f 1 142 141
f 1 141 106
f 1 106 72
f 1 72 54
f 1 54 51
f 1 51 28
f 1 28 27
f 1 27 9
f 1 9 3
f 1 3 4
f 1 4 5
f 1 5 6
f 1 6 8
f 1 8 2
f 2 8 7
f 3 9 10
f 3 10 4
f 4 10 11
f 4 11 5
f 5 11 12
f 5 12 6
f 6 13 32
f 6 32 57
f 6 57 90
f 6 90 120
f 6 120 161
f 6 161 177
f 6 177 135
f 6 135 99
f 6 99 65
f 6 65 44
f 6 44 20
f 6 20 8
f 6 12 14
f 6 14 13
f 7 8 15
f 7 15 16
f 7 16 17
f 7 17 18
f 7 18 19
f 8 20 21
f 8 21 22
f 8 22 23
f 8 23 24
f 8 24 25
f 8 25 26
f 8 26 15
f 9 27 10
f 10 27 28
f 10 28 29
f 10 29 30
f 10 30 11
f 11 30 31
f 11 31 12
f 12 31 14
f 13 14 33
f 13 33 34
f 13 34 35
f 13 35 36
f 13 36 37
f 13 37 32
f 14 31 33
f 15 26 38
f 15 38 16
f 16 39 17
f 16 38 26
f 16 26 39
f 17 40 18
f 17 39 40
f 18 40 41
f 18 41 42
f 18 42 19
f 19 42 43
f 20 44 45
f 20 45 46
f 20 46 21
f 21 46 45
f 21 45 47
f 21 47 22
f 22 47 23
f 23 47 24
f 24 47 48
f 24 48 49
f 24 49 25
f 25 49 50
f 25 50 39
f 25 39 26
f 28 51 29
f 29 52 53
f 29 53 30
f 29 51 54
f 29 54 52
f 30 53 55
f 30 55 31
f 31 55 74
f 31 74 78
f 31 78 56
f 31 56 32
f 31 32 37
f 31 37 36
f 31 36 35
f 31 35 34
f 31 34 33
f 32 56 58
f 32 58 57
f 39 50 40
f 40 50 49
f 40 49 59
f 40 59 41
f 41 60 61
f 41 61 62
f 41 62 42
f 41 59 60
f 42 62 43
f 43 62 63
f 43 63 64
f 44 65 45
f 45 66 67
f 45 67 48
f 45 48 47
f 45 65 66
f 48 67 68
f 48 68 69
f 48 69 59
f 48 59 49
f 52 54 70
f 52 70 71
f 52 71 53
f 53 71 55
f 54 72 73
f 54 73 71
f 54 71 70
f 55 71 73
f 55 73 75
f 55 75 76
f 55 76 77
f 55 77 74
f 56 78 79
f 56 79 80
f 56 80 81
f 56 81 58
f 57 58 82
f 57 82 83
f 57 83 84
f 57 84 85
f 57 85 86
f 57 86 87
f 57 87 88
f 57 88 89
f 57 89 90
f 58 81 91
f 58 91 82
f 59 69 60
f 60 69 92
f 60 92 93
f 60 93 94
f 60 94 95
f 60 95 61
f 61 96 63
f 61 63 62
f 61 95 97
f 61 97 96
f 63 96 64
f 64 96 98
f 65 99 100
f 65 100 66
f 66 100 101
f 66 101 102
f 66 102 67
f 67 102 103
f 67 103 68
f 68 103 104
f 68 104 92
f 68 92 69
f 72 105 77
f 72 77 76
f 72 76 75
f 72 75 73
f 72 106 105
f 74 77 105
f 74 105 107
f 74 107 108
f 74 108 109
f 74 109 110
f 74 110 111
f 74 111 112
f 74 112 113
f 74 113 114
f 74 114 115
f 74 115 116
f 74 116 78
f 78 116 79
f 79 116 80
f 80 116 81
f 81 116 91
f 82 91 117
f 82 117 83
f 83 117 84
f 84 117 116
f 84 116 85
f 85 87 86
f 85 116 87
f 87 116 88
f 88 116 89
f 89 118 119
f 89 119 90
f 89 116 118
f 90 119 121
f 90 121 122
f 90 122 120
f 91 116 117
f 92 123 124
f 92 124 93
f 92 104 125
f 92 125 123
f 93 126 127
f 93 127 94
f 93 124 128
f 93 128 126
f 94 127 129
f 94 129 95
f 95 129 130
f 95 130 97
f 96 97 98
f 97 130 131
f 97 131 132
f 97 132 98
f 98 132 133
f 98 133 134
f 99 135 100
f 100 136 102
f 100 102 101
f 100 135 136
f 102 137 103
f 102 136 137
f 103 137 104
f 104 137 138
f 104 138 139
f 104 139 140
f 104 140 125
f 105 106 141
f 105 141 107
f 107 141 108
f 108 141 142
f 108 142 109
f 109 142 143
f 109 143 110
f 110 143 144
f 110 144 111
f 111 144 112
f 112 144 145
f 112 145 113
f 113 145 146
f 113 146 147
f 113 147 148
f 113 148 114
f 114 148 149
f 114 149 150
f 114 150 151
f 114 151 115
f 115 151 152
f 115 152 153
f 115 153 154
f 115 154 155
f 115 155 116
f 116 156 122
f 116 122 121
f 116 121 119
f 116 119 157
f 116 157 118
f 116 155 156
f 118 157 119
f 120 122 158
f 120 158 159
f 120 159 160
f 120 160 161
f 122 156 162
f 122 162 163
f 122 163 158
f 123 128 124
f 123 125 128
f 125 140 164
f 125 164 128
f 126 165 127
f 126 128 166
f 126 166 165
f 127 167 168
f 127 168 169
f 127 169 170
f 127 170 171
f 127 171 129
f 127 165 167
f 128 164 172
f 128 172 173
f 128 173 166
f 129 171 131
f 129 131 130
f 131 171 133
f 131 133 132
f 133 174 175
f 133 175 134
f 133 171 176
f 133 176 174
f 134 175 145
f 135 177 136
f 136 177 178
f 136 178 179
f 136 179 137
f 137 179 138
f 138 180 139
f 138 179 180
f 139 181 182
f 139 182 140
f 139 180 183
f 139 183 184
f 139 184 181
f 140 182 164
f 145 175 146
f 146 185 186
f 146 186 147
f 146 175 174
f 146 174 215
f 146 215 185
f 147 186 187
f 147 187 148
f 148 187 149
f 149 187 188
f 149 188 189
f 149 189 190
f 149 190 191
f 149 191 150
f 150 191 192
f 150 192 151
f 151 192 152
f 152 192 191
f 152 191 153
f 153 193 194
f 153 194 154
f 153 191 195
f 153 195 193
f 154 194 196
f 154 196 155
f 155 196 156
f 156 196 162
f 158 163 159
f 159 197 160
f 159 163 198
f 159 198 197
f 160 197 199
f 160 199 200
f 160 200 201
f 160 201 161
f 161 202 203
f 161 203 177
f 161 201 204
f 161 204 205
f 161 205 206
f 161 206 207
f 161 207 202
f 162 196 208
f 162 208 163
f 163 208 198
f 164 182 172
f 165 209 167
f 165 166 209
f 166 173 209
f 167 209 210
f 167 210 168
f 168 210 211
f 168 211 169
f 169 211 170
f 170 211 212
f 170 212 171
f 171 212 176
f 172 213 214
f 172 214 173
f 172 182 213
f 173 214 209
f 174 176 212
f 174 212 215
f 177 203 216
f 177 216 178
f 178 216 217
f 178 217 179
f 179 217 180
f 180 184 183
f 180 217 184
f 181 184 218
f 181 218 219
f 181 219 220
f 181 220 182
f 182 221 222
f 182 222 213
f 182 220 221
f 184 217 223
f 184 223 224
f 184 224 218
f 185 225 186
f 185 215 226
f 185 226 225
f 186 225 187
f 187 225 226
f 187 226 188
f 188 226 227
f 188 227 228
f 188 228 189
f 189 228 190
f 190 228 191
f 191 229 230
f 191 230 195
f 191 228 229
f 193 195 231
f 193 231 194
f 194 231 232
f 194 232 233
f 194 233 196
f 195 234 235
f 195 235 232
f 195 232 231
f 195 230 228
f 195 228 236
f 195 236 234
f 196 233 237
f 196 237 208
f 197 198 238
f 197 238 199
f 198 208 237
f 198 237 238
f 199 238 200
f 200 238 239
f 200 239 201
f 201 239 240
f 201 240 204
f 202 207 203
f 203 207 241
f 203 241 216
f 204 240 205
f 205 240 242
f 205 242 206
f 206 242 243
f 206 243 207
f 207 243 241
f 209 214 210
f 210 244 245
f 210 245 226
f 210 226 211
f 210 214 213
f 210 213 246
f 210 246 244
f 211 226 212
f 212 226 215
f 213 222 246
f 216 241 223
f 216 223 217
f 218 224 243
f 218 243 219
f 219 243 242
f 219 242 247
f 219 247 220
f 220 247 248
f 220 248 232
f 220 232 235
f 220 235 249
f 220 249 221
f 221 249 222
f 222 250 246
f 222 249 250
f 223 241 224
f 224 241 243
f 226 245 227
f 227 245 244
f 227 244 228
f 228 244 251
f 228 251 236
f 228 230 229
f 232 248 233
f 233 248 252
f 233 252 253
f 233 253 237
f 234 250 249
f 234 249 235
f 234 236 254
f 234 254 250
f 236 251 254
f 237 253 238
f 238 253 252
f 238 252 255
f 238 255 239
f 239 255 240
f 240 255 242
f 242 255 252
f 242 252 248
f 242 248 247
f 244 246 254
f 244 254 251
f 246 250 254
