v -0.021188 -0.112652 0.070272
v -0.055844 -0.079894 0.070406
v -0.022617 -0.113227 0.070315
v -0.021188 -0.114028 0.070193
v -0.021188 -0.111219 0.069955
v -0.054247 -0.079894 0.070083
v -0.056219 -0.083401 0.070437
v -0.051933 -0.079890 0.064835
v -0.054563 -0.079890 0.065158
v -0.057307 -0.079894 0.070242
v -0.056976 -0.081515 0.070327
v -0.023750 -0.113227 0.070309
v -0.047919 -0.100380 0.070400
v -0.041115 -0.107186 0.070364
v -0.033944 -0.110960 0.070327
v -0.026368 -0.113677 0.070175
v -0.022617 -0.114213 0.070126
v -0.021188 -0.114954 0.069790
v -0.021188 -0.110262 0.069363
v -0.053099 -0.079894 0.069308
v -0.056219 -0.084912 0.070376
v -0.055469 -0.087175 0.070400
v -0.055469 -0.086047 0.070425
v -0.051688 -0.095854 0.070394
v -0.052308 -0.079894 0.067917
v -0.052041 -0.079894 0.066379
v -0.021188 -0.108967 0.065653
v -0.021188 -0.108846 0.062553
v -0.050463 -0.080128 0.032046
v -0.051885 -0.079890 0.063382
v -0.054551 -0.079890 0.063858
v -0.059127 -0.079894 0.067190
v -0.058284 -0.079894 0.069656
v -0.057359 -0.081965 0.070187
v -0.057084 -0.083401 0.070223
v -0.029228 -0.112798 0.070254
v -0.051250 -0.097869 0.070260
v -0.047198 -0.102952 0.070229
v -0.043121 -0.105668 0.070364
v -0.037342 -0.109449 0.070339
v -0.041398 -0.107804 0.070248
v -0.038371 -0.109538 0.070260
v -0.032054 -0.112251 0.070236
v -0.037153 -0.110336 0.070217
v -0.030167 -0.113134 0.070113
v -0.028091 -0.114202 0.069808
v -0.023375 -0.114738 0.069875
v -0.022617 -0.115447 0.069332
v -0.021299 -0.115809 0.068826
v -0.021262 -0.116117 0.067691
v -0.021188 -0.111329 0.043043
v -0.021188 -0.109538 0.068429
v -0.056676 -0.085572 0.070217
v -0.056148 -0.086803 0.070290
v -0.054711 -0.088690 0.070413
v -0.054711 -0.090573 0.070327
v -0.053954 -0.091336 0.070382
v -0.052446 -0.094358 0.070394
v -0.052966 -0.095106 0.070242
v -0.021188 -0.109130 0.067190
v -0.021188 -0.108747 0.055449
v -0.050582 -0.080128 0.014685
v -0.051655 -0.079890 0.043031
v -0.051833 -0.079890 0.060734
v -0.021188 -0.108648 0.046241
v -0.021849 -0.108183 0.008094
v -0.054377 -0.079890 0.045612
v -0.058930 -0.079933 0.068624
v -0.054325 -0.079890 0.043031
v -0.053861 -0.080128 0.008094
v -0.059019 -0.080759 0.066788
v -0.059004 -0.081515 0.067538
v -0.058811 -0.081355 0.068673
v -0.058403 -0.082650 0.069174
v -0.057849 -0.083274 0.069717
v -0.058024 -0.081135 0.069784
v -0.057437 -0.085668 0.069717
v -0.052086 -0.097046 0.070138
v -0.050782 -0.098993 0.070144
v -0.049475 -0.100795 0.070113
v -0.048175 -0.102352 0.070132
v -0.045416 -0.104682 0.070229
v -0.042423 -0.107467 0.070144
v -0.040161 -0.109272 0.069943
v -0.033112 -0.111971 0.070211
v -0.039043 -0.110276 0.069717
v -0.037710 -0.111077 0.069625
v -0.034795 -0.112517 0.069583
v -0.035671 -0.111081 0.070168
v -0.031307 -0.113227 0.069906
v -0.029038 -0.114223 0.069674
v -0.026769 -0.114677 0.069662
v -0.026015 -0.115089 0.069393
v -0.022242 -0.115965 0.068509
v -0.023735 -0.115961 0.068124
v -0.022617 -0.116117 0.067160
v -0.021336 -0.116114 0.066782
v -0.021867 -0.110985 0.008406
v -0.021188 -0.108690 0.043043
v -0.056527 -0.086803 0.070156
v -0.055714 -0.088495 0.070260
v -0.055699 -0.089818 0.070126
v -0.055179 -0.091322 0.070083
v -0.054577 -0.092687 0.070077
v -0.054889 -0.093826 0.069558
v -0.050648 -0.080128 0.011664
v -0.050741 -0.080128 0.008094
v -0.023208 -0.110879 0.008094
v -0.053731 -0.081511 0.008094
v -0.053608 -0.082596 0.008094
v -0.058670 -0.084157 0.067538
v -0.058852 -0.082678 0.067813
v -0.058087 -0.085292 0.069033
v -0.058555 -0.084157 0.068295
v -0.058120 -0.084281 0.069277
v -0.057344 -0.087523 0.069412
v -0.056976 -0.086803 0.069857
v -0.051840 -0.098373 0.069833
v -0.053441 -0.096578 0.069509
v -0.052906 -0.097575 0.069497
v -0.051220 -0.100245 0.069320
v -0.048179 -0.103480 0.069619
v -0.044933 -0.105420 0.070120
v -0.047436 -0.104253 0.069601
v -0.045672 -0.105697 0.069680
v -0.044428 -0.106913 0.069583
v -0.041360 -0.109205 0.069528
v -0.040425 -0.109868 0.069454
v -0.032169 -0.113443 0.069631
v -0.036492 -0.111918 0.069461
v -0.035196 -0.113088 0.068563
v -0.033168 -0.113702 0.068838
v -0.029937 -0.114291 0.069491
v -0.027148 -0.115138 0.069107
v -0.028619 -0.115135 0.068423
v -0.027148 -0.115511 0.067917
v -0.025455 -0.115887 0.066379
v -0.024129 -0.116029 0.066782
v -0.056665 -0.087927 0.069875
v -0.056750 -0.089069 0.069564
v -0.056412 -0.090052 0.069570
v -0.055844 -0.091698 0.069540
v -0.055881 -0.092935 0.068557
v -0.054225 -0.095567 0.069265
v -0.024511 -0.110765 0.008094
v -0.048383 -0.096486 0.008094
v -0.049029 -0.095528 0.008131
v -0.052100 -0.089123 0.008369
v -0.053293 -0.084856 0.008363
v -0.053549 -0.083572 0.008839
v -0.058217 -0.086377 0.067398
v -0.058406 -0.085292 0.067917
v -0.058079 -0.086345 0.068405
v -0.057422 -0.088470 0.068740
v -0.053656 -0.097131 0.068808
v -0.052910 -0.098305 0.068862
v -0.052011 -0.099348 0.069155
v -0.050660 -0.101129 0.069223
v -0.049887 -0.102076 0.069223
v -0.048951 -0.103033 0.069314
v -0.046496 -0.105363 0.069473
v -0.045431 -0.106179 0.069522
v -0.045134 -0.106679 0.069296
v -0.043232 -0.108151 0.069302
v -0.042244 -0.109073 0.069082
v -0.039856 -0.110609 0.068948
v -0.037097 -0.112159 0.068783
v -0.036020 -0.112922 0.067837
v -0.033937 -0.113776 0.067709
v -0.032173 -0.114340 0.067849
v -0.030906 -0.114443 0.068771
v -0.030171 -0.114787 0.068295
v -0.028281 -0.115358 0.067538
v -0.027909 -0.110187 0.008094
v -0.025748 -0.110609 0.008113
v -0.029358 -0.115138 0.067117
v -0.056605 -0.091162 0.068509
v -0.055164 -0.094421 0.068557
v -0.056301 -0.092091 0.068295
v -0.055799 -0.093499 0.067538
v -0.044874 -0.100852 0.008094
v -0.045980 -0.099724 0.008235
v -0.046716 -0.098851 0.008369
v -0.051989 -0.100284 0.066788
v -0.049809 -0.094177 0.008369
v -0.050715 -0.092449 0.008369
v -0.051272 -0.091240 0.008369
v -0.053716 -0.097642 0.066678
v -0.055985 -0.093074 0.066684
v -0.056431 -0.091978 0.067166
v -0.056884 -0.090807 0.067538
v -0.057359 -0.089456 0.067550
v -0.052501 -0.087902 0.008497
v -0.052943 -0.086363 0.008497
v -0.057816 -0.087931 0.067538
v -0.057820 -0.087551 0.068295
v -0.054332 -0.096241 0.068307
v -0.052672 -0.099008 0.068295
v -0.051291 -0.100926 0.068502
v -0.050611 -0.101778 0.068545
v -0.048049 -0.104484 0.068814
v -0.046062 -0.106080 0.069107
v -0.044558 -0.107591 0.068722
v -0.043785 -0.108329 0.068374
v -0.041297 -0.109893 0.068679
v -0.038872 -0.111319 0.068649
v -0.037717 -0.112117 0.067923
v -0.037606 -0.112305 0.066666
v -0.036128 -0.112986 0.066672
v -0.034928 -0.113461 0.067160
v -0.033565 -0.114007 0.066782
v -0.032295 -0.114433 0.066678
v -0.030736 -0.114826 0.067068
v -0.029473 -0.109847 0.008094
v -0.054637 -0.095854 0.067538
v -0.055235 -0.094709 0.067166
v -0.043756 -0.101898 0.008094
v -0.048064 -0.104870 0.066788
v -0.049103 -0.103838 0.066788
v -0.050496 -0.102196 0.067538
v -0.051317 -0.101139 0.067538
v -0.052624 -0.099337 0.067166
v -0.054392 -0.096351 0.066556
v -0.053634 -0.097575 0.067917
v -0.054184 -0.096706 0.067538
v -0.052052 -0.100025 0.068002
v -0.049118 -0.103703 0.068081
v -0.047224 -0.105349 0.068661
v -0.046036 -0.106623 0.067917
v -0.044900 -0.107559 0.067917
v -0.043997 -0.108346 0.067166
v -0.042809 -0.109119 0.067898
v -0.040722 -0.110584 0.067142
v -0.039073 -0.111499 0.067654
v -0.039154 -0.111517 0.066666
v -0.035307 -0.107708 0.008094
v -0.033937 -0.108332 0.008125
v -0.032507 -0.108878 0.008094
v -0.031423 -0.109254 0.008094
v -0.030550 -0.109534 0.008094
v -0.041539 -0.103817 0.008094
v -0.046805 -0.106069 0.067142
v -0.047841 -0.105037 0.067788
v -0.049794 -0.103012 0.067624
v -0.044755 -0.107754 0.066788
v -0.043188 -0.108956 0.066696
v -0.041891 -0.109839 0.067160
v -0.038649 -0.105885 0.008094
v -0.037866 -0.106346 0.008094
v -0.037023 -0.106828 0.008094
v -0.040685 -0.104491 0.008094
v -0.045962 -0.106750 0.066788
v -0.039660 -0.105239 0.008094
f 1 2 3
f 1 3 4
f 1 4 18
f 1 18 51
f 1 51 99
f 1 99 65
f 1 65 61
f 1 61 28
f 1 28 27
f 1 27 60
f 1 60 52
f 1 52 19
f 1 19 5
f 1 5 6
f 1 6 2
f 2 7 3
f 2 6 8
f 2 8 9
f 2 9 10
f 2 10 11
f 2 11 7
f 3 12 4
f 3 7 13
f 3 13 14
f 3 14 15
f 3 15 12
f 4 16 17
f 4 17 18
f 4 12 16
f 5 19 6
f 6 19 20
f 6 20 8
f 7 11 21
f 7 21 22
f 7 22 23
f 7 23 24
f 7 24 13
f 8 20 25
f 8 25 26
f 8 26 27
f 8 27 28
f 8 28 29
f 8 29 30
f 8 30 64
f 8 64 63
f 8 63 69
f 8 69 67
f 8 67 31
f 8 31 9
f 9 31 32
f 9 32 33
f 9 33 10
f 10 34 11
f 10 33 34
f 11 34 35
f 11 35 21
f 12 15 36
f 12 36 16
f 13 24 37
f 13 37 38
f 13 38 39
f 13 39 14
f 14 40 15
f 14 39 41
f 14 41 42
f 14 42 40
f 15 43 36
f 15 40 44
f 15 44 43
f 16 45 46
f 16 46 47
f 16 47 17
f 16 36 45
f 17 47 18
f 18 47 48
f 18 48 49
f 18 49 50
f 18 50 51
f 19 52 20
f 20 52 25
f 21 35 53
f 21 53 54
f 21 54 22
f 22 55 23
f 22 54 56
f 22 56 57
f 22 57 55
f 23 55 24
f 24 55 58
f 24 58 59
f 24 59 37
f 25 52 60
f 25 60 26
f 26 60 27
f 28 61 29
f 29 62 63
f 29 63 64
f 29 64 30
f 29 61 65
f 29 65 66
f 29 66 62
f 31 67 32
f 32 68 33
f 32 67 69
f 32 69 70
f 32 70 71
f 32 71 72
f 32 72 68
f 33 68 73
f 33 73 74
f 33 74 75
f 33 75 76
f 33 76 34
f 34 76 75
f 34 75 35
f 35 75 77
f 35 77 53
f 36 43 45
f 37 59 78
f 37 78 79
f 37 79 80
f 37 80 81
f 37 81 38
f 38 82 39
f 38 81 82
f 39 82 41
f 40 42 44
f 41 82 83
f 41 83 42
f 42 83 84
f 42 84 44
f 43 44 85
f 43 85 45
f 44 84 86
f 44 86 87
f 44 87 88
f 44 88 89
f 44 89 85
f 45 90 91
f 45 91 46
f 45 85 90
f 46 91 92
f 46 92 47
f 47 92 93
f 47 93 48
f 48 93 94
f 48 94 49
f 49 94 50
f 50 95 96
f 50 96 97
f 50 97 98
f 50 98 51
f 50 94 95
f 51 98 66
f 51 66 99
f 53 100 54
f 53 77 100
f 54 101 56
f 54 100 102
f 54 102 101
f 55 57 58
f 56 58 57
f 56 101 102
f 56 102 103
f 56 103 59
f 56 59 58
f 59 103 104
f 59 104 105
f 59 105 78
f 62 106 63
f 62 66 106
f 63 106 107
f 63 107 70
f 63 70 69
f 65 99 66
f 66 108 145
f 66 145 174
f 66 174 214
f 66 214 240
f 66 240 239
f 66 239 238
f 66 238 236
f 66 236 250
f 66 250 249
f 66 249 248
f 66 248 253
f 66 253 251
f 66 251 241
f 66 241 217
f 66 217 181
f 66 181 146
f 66 146 110
f 66 110 109
f 66 109 70
f 66 70 107
f 66 107 106
f 66 98 108
f 68 72 73
f 70 109 71
f 71 109 72
f 72 109 110
f 72 110 111
f 72 111 112
f 72 112 73
f 73 113 74
f 73 112 114
f 73 114 113
f 74 113 115
f 74 115 75
f 75 115 77
f 77 115 116
f 77 116 117
f 77 117 100
f 78 118 79
f 78 105 119
f 78 119 120
f 78 120 118
f 79 118 80
f 80 118 121
f 80 121 122
f 80 122 81
f 81 123 82
f 81 122 124
f 81 124 123
f 82 123 83
f 83 123 125
f 83 125 126
f 83 126 127
f 83 127 84
f 84 127 128
f 84 128 86
f 85 89 129
f 85 129 90
f 86 128 130
f 86 130 87
f 87 130 88
f 88 130 131
f 88 131 132
f 88 132 129
f 88 129 89
f 90 129 133
f 90 133 91
f 91 133 92
f 92 133 93
f 93 133 134
f 93 134 94
f 94 134 95
f 95 135 136
f 95 136 137
f 95 137 138
f 95 138 96
f 95 134 135
f 96 138 98
f 96 98 97
f 98 138 108
f 100 117 139
f 100 139 102
f 102 139 140
f 102 140 141
f 102 141 142
f 102 142 103
f 103 142 105
f 103 105 104
f 105 142 143
f 105 143 144
f 105 144 119
f 108 138 137
f 108 137 145
f 110 146 147
f 110 147 148
f 110 148 149
f 110 149 150
f 110 150 111
f 111 151 152
f 111 152 114
f 111 114 112
f 111 150 149
f 111 149 151
f 113 114 153
f 113 153 154
f 113 154 116
f 113 116 115
f 114 152 153
f 116 140 139
f 116 139 117
f 116 154 140
f 118 120 121
f 119 144 120
f 120 144 155
f 120 155 156
f 120 156 157
f 120 157 121
f 121 157 158
f 121 158 122
f 122 158 159
f 122 159 160
f 122 160 161
f 122 161 124
f 123 124 125
f 124 161 125
f 125 161 162
f 125 162 126
f 126 162 163
f 126 163 164
f 126 164 127
f 127 164 165
f 127 165 128
f 128 165 166
f 128 166 130
f 129 132 133
f 130 166 167
f 130 167 131
f 131 167 168
f 131 168 169
f 131 169 170
f 131 170 132
f 132 170 171
f 132 171 133
f 133 171 134
f 134 171 135
f 135 172 173
f 135 173 136
f 135 171 172
f 136 173 137
f 137 174 175
f 137 175 145
f 137 173 176
f 137 176 174
f 140 154 141
f 141 154 177
f 141 177 142
f 142 177 143
f 143 178 144
f 143 177 179
f 143 179 180
f 143 180 178
f 144 178 155
f 145 175 174
f 146 181 182
f 146 182 183
f 146 183 184
f 146 184 147
f 147 185 186
f 147 186 187
f 147 187 148
f 147 184 188
f 147 188 185
f 148 187 189
f 148 189 190
f 148 190 191
f 148 191 192
f 148 192 193
f 148 193 194
f 148 194 149
f 149 194 151
f 151 195 196
f 151 196 152
f 151 194 195
f 152 196 153
f 153 196 154
f 154 196 177
f 155 178 197
f 155 197 198
f 155 198 156
f 156 198 199
f 156 199 157
f 157 199 158
f 158 199 200
f 158 200 159
f 159 200 201
f 159 201 160
f 160 201 161
f 161 201 202
f 161 202 163
f 161 163 162
f 163 202 203
f 163 203 164
f 164 203 165
f 165 203 204
f 165 204 205
f 165 205 166
f 166 205 206
f 166 206 167
f 167 206 207
f 167 207 168
f 168 207 208
f 168 208 209
f 168 209 210
f 168 210 169
f 169 210 211
f 169 211 170
f 170 211 212
f 170 212 213
f 170 213 172
f 170 172 171
f 172 213 173
f 173 213 176
f 174 176 214
f 176 213 214
f 177 196 192
f 177 192 191
f 177 191 179
f 178 180 197
f 179 191 180
f 180 215 197
f 180 191 190
f 180 190 189
f 180 189 216
f 180 216 215
f 181 217 218
f 181 218 219
f 181 219 182
f 182 219 183
f 183 219 184
f 184 219 220
f 184 220 221
f 184 221 222
f 184 222 188
f 185 188 223
f 185 223 186
f 186 223 189
f 186 189 187
f 188 222 224
f 188 224 225
f 188 225 215
f 188 215 223
f 189 223 216
f 192 196 195
f 192 195 193
f 193 195 194
f 197 215 225
f 197 225 224
f 197 224 198
f 198 226 199
f 198 224 222
f 198 222 226
f 199 226 221
f 199 221 220
f 199 220 200
f 200 220 227
f 200 227 201
f 201 227 228
f 201 228 202
f 202 228 203
f 203 228 229
f 203 229 230
f 203 230 204
f 204 230 231
f 204 231 232
f 204 232 205
f 205 232 233
f 205 233 234
f 205 234 206
f 206 234 207
f 207 234 208
f 208 235 236
f 208 236 209
f 208 234 235
f 209 211 210
f 209 236 237
f 209 237 211
f 211 237 238
f 211 238 239
f 211 239 212
f 212 239 240
f 212 240 214
f 212 214 213
f 215 216 223
f 217 241 242
f 217 242 218
f 218 242 243
f 218 243 219
f 219 243 227
f 219 227 244
f 219 244 220
f 220 244 227
f 221 226 222
f 227 243 228
f 228 243 229
f 229 243 242
f 229 242 230
f 230 242 231
f 231 242 245
f 231 245 246
f 231 246 247
f 231 247 232
f 232 247 233
f 233 247 248
f 233 248 235
f 233 235 234
f 235 248 249
f 235 249 250
f 235 250 236
f 236 238 237
f 241 251 245
f 241 245 252
f 241 252 242
f 242 252 245
f 245 251 246
f 246 251 253
f 246 253 247
f 247 253 248
