v 0.030585 -0.001797 0.008480
v 0.030585 -0.001678 0.010495
v 0.030585 -0.001732 0.007923
v 0.041825 -0.025858 0.006467
v 0.041874 -0.025858 0.008148
v 0.041887 -0.025858 0.008480
v 0.042092 -0.025858 0.009629
v 0.030585 -0.000961 0.012377
v 0.030585 -0.001509 0.006478
v 0.042081 -0.025858 0.004534
v 0.042137 -0.025858 0.009862
v 0.030585 -0.000494 0.013103
v 0.030585 -0.000755 0.004628
v 0.042293 -0.025858 0.003560
v 0.042445 -0.025858 0.010704
v 0.030585 0.000732 0.014272
v 0.042507 -0.025858 0.010869
v 0.030585 -0.000169 0.003699
v 0.043036 -0.025858 0.002467
v 0.030585 0.000086 0.003365
v 0.030585 0.000819 0.002500
v 0.030585 0.001774 0.001513
v 0.030585 0.001991 0.001328
v 0.030585 0.002708 0.000823
v 0.030585 0.002209 0.015300
v 0.043402 -0.025858 0.012285
v 0.043629 -0.025858 0.012637
v 0.044042 -0.025858 0.001266
v 0.030585 0.003381 0.000484
v 0.030585 0.002920 0.015577
v 0.044263 -0.025858 0.013380
v 0.044445 -0.025858 0.013524
v 0.045288 -0.025858 0.000976
v 0.030585 0.004743 -0.000145
v 0.030585 0.003218 0.015685
v 0.044956 -0.025858 0.013747
v 0.045288 -0.017461 0.000726
v 0.045592 -0.025858 0.001002
v 0.030585 0.005378 -0.000224
v 0.030585 0.006714 -0.000345
v 0.030585 0.004700 0.015835
v 0.045185 -0.025858 0.013839
v 0.046987 -0.025858 0.014139
v 0.047304 -0.025858 0.014178
v 0.045288 -0.015448 0.000712
v 0.047174 -0.023508 0.001114
v 0.047176 -0.025858 0.001138
v 0.030585 0.029586 -0.000292
v 0.031184 0.004700 0.015804
v 0.030585 0.029586 0.015614
v 0.045288 -0.015448 0.014633
v 0.045288 -0.013434 0.014709
v 0.048634 -0.025858 0.013797
v 0.047304 -0.025521 0.014191
v 0.045288 -0.013434 0.000799
v 0.046872 -0.017461 0.001089
v 0.047011 -0.019475 0.001084
v 0.047110 -0.021494 0.001094
v 0.048192 -0.025521 0.001520
v 0.047184 -0.025521 0.001136
v 0.048182 -0.025858 0.001528
v 0.031184 0.029586 -0.000156
v 0.034359 0.004092 0.015555
v 0.030930 0.029586 0.015545
v 0.047304 -0.023508 0.014251
v 0.047304 -0.021494 0.014292
v 0.047304 -0.019475 0.014292
v 0.047304 -0.017461 0.014212
v 0.045288 -0.011415 0.014604
v 0.049188 -0.025858 0.012716
v 0.048644 -0.025521 0.013804
v 0.046523 -0.013434 0.001236
v 0.046714 -0.015448 0.001130
v 0.033198 0.029586 0.000492
v 0.048118 -0.021494 0.001631
v 0.048182 -0.023508 0.001540
v 0.048710 -0.025521 0.002527
v 0.048274 -0.025858 0.001694
v 0.031585 0.029586 0.015400
v 0.048661 -0.023508 0.013823
v 0.048644 -0.021494 0.013828
v 0.048565 -0.019475 0.013778
v 0.046968 -0.013434 0.014094
v 0.033903 0.029586 0.014627
v 0.033198 0.029586 0.014917
v 0.032088 0.029586 0.015252
v 0.049291 -0.025858 0.012510
v 0.049306 -0.025521 0.012510
v 0.049340 -0.023508 0.012510
v 0.046380 -0.012104 0.001347
v 0.048019 -0.019475 0.001827
v 0.034735 0.029586 0.001151
v 0.048544 -0.019475 0.002835
v 0.048642 -0.021494 0.002638
v 0.048696 -0.023508 0.002548
v 0.049293 -0.025521 0.004452
v 0.048706 -0.025858 0.002535
v 0.049274 -0.023508 0.004452
v 0.049288 -0.021494 0.012510
v 0.049104 -0.019475 0.012510
v 0.048422 -0.017461 0.013643
v 0.046690 -0.011415 0.013934
v 0.035912 0.029586 0.013659
v 0.035602 0.029586 0.013828
v 0.035285 0.029586 0.013995
v 0.048332 -0.016343 0.013548
v 0.049717 -0.025858 0.010495
v 0.049727 -0.025521 0.010495
v 0.049746 -0.023508 0.010495
v 0.047189 -0.013434 0.002437
v 0.047758 -0.015638 0.002632
v 0.047880 -0.017461 0.002198
v 0.035743 0.029586 0.001932
v 0.036553 0.029586 0.002939
v 0.048969 -0.019475 0.004452
v 0.049167 -0.021494 0.004452
v 0.048398 -0.017461 0.003205
v 0.049586 -0.025521 0.006467
v 0.049286 -0.025858 0.004452
v 0.049575 -0.023508 0.006467
v 0.049642 -0.021494 0.010495
v 0.049423 -0.019475 0.010495
v 0.048788 -0.017461 0.012510
v 0.036191 0.029586 0.013484
v 0.048439 -0.015583 0.012372
v 0.048171 -0.015003 0.012952
v 0.037494 0.029586 0.010495
v 0.036931 0.029586 0.012000
v 0.036713 0.029586 0.012574
v 0.036354 0.029586 0.013206
v 0.049747 -0.025858 0.008480
v 0.049759 -0.025521 0.008480
v 0.049751 -0.023508 0.008480
v 0.048314 -0.016441 0.003433
v 0.037026 0.029586 0.004452
v 0.049271 -0.019475 0.006467
v 0.048672 -0.017461 0.004452
v 0.049464 -0.021494 0.006467
v 0.049577 -0.025858 0.006467
v 0.049627 -0.021494 0.008480
v 0.049419 -0.019475 0.008480
v 0.049117 -0.017461 0.008480
v 0.049092 -0.017461 0.010495
v 0.048330 -0.014367 0.011609
v 0.037535 0.029586 0.009790
v 0.048370 -0.014221 0.010495
v 0.049605 -0.025858 0.006798
v 0.047805 -0.013434 0.004452
v 0.048193 -0.014992 0.004452
v 0.048407 -0.016001 0.004452
v 0.037222 0.029586 0.005762
v 0.048293 -0.014519 0.005637
v 0.048974 -0.017461 0.006467
v 0.048531 -0.015296 0.006372
v 0.048359 -0.014264 0.006980
v 0.048698 -0.015448 0.008480
v 0.048661 -0.015448 0.010495
v 0.037571 0.029586 0.008480
v 0.048390 -0.014145 0.008480
v 0.037516 0.029586 0.007775
f 1 2 8
f 1 8 12
f 1 12 16
f 1 16 25
f 1 25 30
f 1 30 35
f 1 35 41
f 1 41 50
f 1 50 48
f 1 48 40
f 1 40 39
f 1 39 34
f 1 34 29
f 1 29 24
f 1 24 23
f 1 23 22
f 1 22 21
f 1 21 20
f 1 20 18
f 1 18 13
f 1 13 9
f 1 9 3
f 1 3 4
f 1 4 2
f 2 4 5
f 2 5 6
f 2 6 7
f 2 7 8
f 3 9 4
f 4 10 14
f 4 14 19
f 4 19 28
f 4 28 33
f 4 33 38
f 4 38 47
f 4 47 61
f 4 61 78
f 4 78 97
f 4 97 119
f 4 119 139
f 4 139 147
f 4 147 131
f 4 131 107
f 4 107 87
f 4 87 70
f 4 70 53
f 4 53 44
f 4 44 43
f 4 43 42
f 4 42 36
f 4 36 32
f 4 32 31
f 4 31 27
f 4 27 26
f 4 26 17
f 4 17 15
f 4 15 11
f 4 11 7
f 4 7 6
f 4 6 5
f 4 9 10
f 7 11 8
f 8 11 12
f 9 13 10
f 10 13 14
f 11 15 12
f 12 15 17
f 12 17 16
f 13 18 14
f 14 18 20
f 14 20 21
f 14 21 22
f 14 22 23
f 14 23 24
f 14 24 19
f 16 17 26
f 16 26 27
f 16 27 25
f 19 24 28
f 24 29 28
f 25 27 31
f 25 31 32
f 25 32 30
f 28 29 34
f 28 34 33
f 30 32 35
f 32 36 35
f 33 37 38
f 33 34 39
f 33 39 40
f 33 40 37
f 35 36 42
f 35 42 43
f 35 43 44
f 35 44 41
f 37 45 46
f 37 46 47
f 37 47 38
f 37 40 45
f 40 48 45
f 41 49 50
f 41 44 51
f 41 51 52
f 41 52 49
f 44 53 54
f 44 54 52
f 44 52 51
f 45 55 56
f 45 56 57
f 45 57 58
f 45 58 46
f 45 48 55
f 46 59 60
f 46 60 47
f 46 58 59
f 47 60 59
f 47 59 61
f 48 50 64
f 48 64 79
f 48 79 86
f 48 86 85
f 48 85 84
f 48 84 105
f 48 105 104
f 48 104 103
f 48 103 124
f 48 124 130
f 48 130 129
f 48 129 128
f 48 128 127
f 48 127 145
f 48 145 158
f 48 158 160
f 48 160 151
f 48 151 135
f 48 135 114
f 48 114 113
f 48 113 92
f 48 92 74
f 48 74 62
f 48 62 55
f 49 63 50
f 49 52 63
f 50 63 52
f 50 52 64
f 52 54 65
f 52 65 66
f 52 66 67
f 52 67 68
f 52 68 69
f 52 69 64
f 53 70 71
f 53 71 54
f 54 71 65
f 55 72 73
f 55 73 56
f 55 62 74
f 55 74 72
f 56 75 76
f 56 76 57
f 56 73 75
f 57 76 58
f 58 76 59
f 59 77 78
f 59 78 61
f 59 76 77
f 64 69 79
f 65 71 66
f 66 71 80
f 66 80 67
f 67 80 81
f 67 81 68
f 68 81 82
f 68 82 83
f 68 83 69
f 69 83 84
f 69 84 85
f 69 85 86
f 69 86 79
f 70 87 88
f 70 88 71
f 71 88 89
f 71 89 80
f 72 90 91
f 72 91 73
f 72 74 92
f 72 92 90
f 73 91 75
f 75 91 93
f 75 93 94
f 75 94 76
f 76 95 77
f 76 94 95
f 77 96 97
f 77 97 78
f 77 95 98
f 77 98 96
f 80 89 81
f 81 99 82
f 81 89 99
f 82 99 100
f 82 100 101
f 82 101 83
f 83 102 103
f 83 103 104
f 83 104 105
f 83 105 84
f 83 101 106
f 83 106 102
f 87 107 88
f 88 107 108
f 88 108 89
f 89 108 109
f 89 109 99
f 90 110 111
f 90 111 112
f 90 112 91
f 90 92 113
f 90 113 114
f 90 114 110
f 91 112 93
f 93 115 116
f 93 116 94
f 93 112 117
f 93 117 115
f 94 116 98
f 94 98 95
f 96 118 119
f 96 119 97
f 96 98 120
f 96 120 118
f 98 116 120
f 99 109 121
f 99 121 100
f 100 121 122
f 100 122 123
f 100 123 106
f 100 106 101
f 102 106 124
f 102 124 103
f 106 123 125
f 106 125 126
f 106 126 127
f 106 127 128
f 106 128 129
f 106 129 130
f 106 130 124
f 107 131 132
f 107 132 108
f 108 132 109
f 109 132 133
f 109 133 121
f 110 134 111
f 110 114 134
f 111 134 117
f 111 117 112
f 114 135 134
f 115 136 116
f 115 117 134
f 115 134 137
f 115 137 153
f 115 153 136
f 116 138 120
f 116 136 138
f 118 132 139
f 118 139 119
f 118 120 133
f 118 133 132
f 120 138 133
f 121 133 140
f 121 140 141
f 121 141 122
f 122 141 142
f 122 142 143
f 122 143 123
f 123 143 144
f 123 144 125
f 125 144 126
f 126 144 127
f 127 144 146
f 127 146 145
f 131 147 132
f 132 147 139
f 133 138 140
f 134 148 149
f 134 149 150
f 134 150 137
f 134 135 148
f 135 151 152
f 135 152 148
f 136 141 140
f 136 140 138
f 136 153 141
f 137 150 153
f 141 153 142
f 142 153 154
f 142 154 155
f 142 155 156
f 142 156 143
f 143 156 157
f 143 157 144
f 144 157 146
f 145 146 158
f 146 157 159
f 146 159 158
f 148 152 149
f 149 152 150
f 150 152 153
f 151 160 152
f 152 155 154
f 152 154 153
f 152 160 155
f 155 159 156
f 155 160 158
f 155 158 159
f 156 159 157
