v 0.026037 -0.065607 0.008931
v 0.026037 -0.065498 0.006916
v 0.027156 -0.065436 0.008480
v 0.026596 -0.065533 0.010494
v 0.026232 -0.065140 0.013293
v 0.026037 -0.063401 0.014333
v 0.026037 -0.065288 0.004889
v 0.027156 -0.065307 0.006467
v 0.029358 -0.064875 0.008480
v 0.029383 -0.064883 0.010494
v 0.027757 -0.064984 0.013113
v 0.027355 -0.064012 0.014050
v 0.029170 -0.063592 0.013990
v 0.031184 -0.061798 0.014218
v 0.029170 -0.061798 0.014407
v 0.026037 -0.061436 0.014328
v 0.026193 -0.062790 -0.000627
v 0.026557 -0.063599 0.000310
v 0.026719 -0.064731 0.002362
v 0.027617 -0.064914 0.004031
v 0.026037 -0.059623 -0.000007
v 0.028736 -0.064712 0.004704
v 0.029135 -0.064802 0.006467
v 0.031184 -0.063930 0.006467
v 0.031184 -0.064090 0.008480
v 0.031184 -0.064105 0.010494
v 0.028919 -0.064778 0.012441
v 0.031184 -0.063763 0.012510
v 0.032426 -0.062950 0.013043
v 0.031184 -0.063133 0.013774
v 0.033055 -0.061744 0.013837
v 0.035192 -0.059756 0.013874
v 0.033198 -0.059783 0.014215
v 0.047143 -0.025862 0.014158
v 0.026037 -0.060005 0.013724
v 0.044699 -0.025873 0.013616
v 0.026297 -0.061141 -0.000670
v 0.028179 -0.060794 -0.000586
v 0.027692 -0.062148 -0.000505
v 0.031240 -0.061923 0.000568
v 0.029170 -0.063308 0.000753
v 0.029170 -0.064082 0.002437
v 0.026037 -0.058448 0.001001
v 0.043035 -0.025862 0.002467
v 0.044040 -0.025862 0.001266
v 0.031184 -0.063650 0.004452
v 0.032966 -0.062642 0.004452
v 0.033187 -0.062786 0.006467
v 0.032797 -0.063191 0.008480
v 0.032813 -0.063199 0.010494
v 0.033570 -0.062347 0.012510
v 0.034505 -0.061039 0.013696
v 0.036482 -0.059063 0.013684
v 0.037183 -0.057678 0.013817
v 0.037229 -0.055748 0.014013
v 0.041256 -0.049706 0.013899
v 0.045286 -0.039634 0.013913
v 0.047301 -0.029562 0.014049
v 0.048633 -0.025862 0.013796
v 0.043513 -0.025862 0.012460
v 0.026037 -0.059009 0.012876
v 0.045286 -0.025862 0.000977
v 0.031184 -0.059783 -0.000217
v 0.045286 -0.033592 0.000946
v 0.045286 -0.035607 0.000956
v 0.039241 -0.051718 0.000548
v 0.033198 -0.059783 0.000211
v 0.033198 -0.061253 0.000982
v 0.030604 -0.063016 0.001119
v 0.031593 -0.062934 0.002208
v 0.026037 -0.057721 0.002437
v 0.042184 -0.025862 0.004048
v 0.032277 -0.062856 0.003243
v 0.034853 -0.061308 0.004452
v 0.035034 -0.061452 0.006467
v 0.033804 -0.062533 0.008480
v 0.033820 -0.062541 0.010494
v 0.035145 -0.061534 0.010494
v 0.034881 -0.061339 0.012510
v 0.035888 -0.060456 0.012510
v 0.036877 -0.059448 0.012510
v 0.037886 -0.058363 0.012510
v 0.038387 -0.056943 0.013622
v 0.038812 -0.055748 0.013750
v 0.039411 -0.053897 0.013836
v 0.041239 -0.051578 0.013749
v 0.043265 -0.047547 0.013734
v 0.043272 -0.045684 0.013863
v 0.044822 -0.043668 0.013752
v 0.046744 -0.037619 0.013771
v 0.047874 -0.031577 0.013808
v 0.048524 -0.029562 0.013711
v 0.049238 -0.025862 0.012614
v 0.048584 -0.027546 0.013756
v 0.042309 -0.025862 0.010306
v 0.026037 -0.058059 0.011710
v 0.047173 -0.025862 0.001138
v 0.035215 -0.057768 0.000285
v 0.047129 -0.027546 0.001150
v 0.047004 -0.029562 0.001163
v 0.046857 -0.031577 0.001176
v 0.046727 -0.033592 0.001199
v 0.046588 -0.035607 0.001241
v 0.045286 -0.037619 0.001036
v 0.043272 -0.043668 0.000889
v 0.041256 -0.047691 0.000714
v 0.042850 -0.047691 0.001110
v 0.040910 -0.051718 0.001045
v 0.037229 -0.055748 0.000499
v 0.037123 -0.057612 0.001045
v 0.035069 -0.059678 0.000990
v 0.034424 -0.060962 0.001885
v 0.036380 -0.058935 0.001274
v 0.033050 -0.062137 0.002518
v 0.026037 -0.057106 0.004393
v 0.041826 -0.025862 0.006467
v 0.035552 -0.060191 0.002437
v 0.035860 -0.060468 0.004452
v 0.036041 -0.060631 0.006467
v 0.035143 -0.061526 0.008480
v 0.036150 -0.060728 0.008480
v 0.036153 -0.060728 0.010494
v 0.037171 -0.059721 0.010494
v 0.038176 -0.058709 0.010494
v 0.038712 -0.057351 0.012510
v 0.040193 -0.054675 0.013468
v 0.040557 -0.053332 0.013687
v 0.042427 -0.050259 0.013615
v 0.044409 -0.046228 0.013603
v 0.046533 -0.039634 0.013681
v 0.049094 -0.029562 0.012510
v 0.049208 -0.027546 0.012510
v 0.048347 -0.033763 0.013251
v 0.048941 -0.031577 0.012510
v 0.049714 -0.025862 0.010494
v 0.041880 -0.025862 0.008314
v 0.026037 -0.057343 0.010475
v 0.048466 -0.025862 0.002074
v 0.048410 -0.027546 0.002072
v 0.047865 -0.031577 0.001925
v 0.046384 -0.038210 0.001361
v 0.044859 -0.041649 0.001145
v 0.044595 -0.043668 0.001224
v 0.042513 -0.049290 0.001238
v 0.040508 -0.053200 0.001215
v 0.039364 -0.053815 0.000880
v 0.038687 -0.055748 0.001123
v 0.036628 -0.059184 0.002437
v 0.038399 -0.056958 0.001900
v 0.037635 -0.058090 0.002437
v 0.026037 -0.056908 0.005977
v 0.026037 -0.056881 0.008480
v 0.036902 -0.059460 0.004452
v 0.037072 -0.059623 0.006467
v 0.037169 -0.059721 0.008480
v 0.038174 -0.058705 0.008480
v 0.038991 -0.057698 0.008480
v 0.038991 -0.057701 0.010494
v 0.039998 -0.056410 0.010494
v 0.040163 -0.055476 0.012404
v 0.042564 -0.051578 0.012379
v 0.044574 -0.047547 0.012417
v 0.046509 -0.043256 0.012009
v 0.046400 -0.041478 0.013285
v 0.049549 -0.029562 0.010494
v 0.049661 -0.027546 0.010494
v 0.048391 -0.037020 0.011734
v 0.048524 -0.035607 0.012090
v 0.047317 -0.039634 0.012510
v 0.049118 -0.033592 0.010494
v 0.049366 -0.031577 0.010494
v 0.049744 -0.025862 0.008646
v 0.049696 -0.027546 0.008480
v 0.049282 -0.025862 0.004452
v 0.049238 -0.027546 0.004452
v 0.048528 -0.031577 0.002933
v 0.048319 -0.029562 0.002205
v 0.047735 -0.033592 0.002227
v 0.046391 -0.039840 0.001991
v 0.044416 -0.045567 0.001656
v 0.048354 -0.034117 0.003332
v 0.047148 -0.037619 0.002437
v 0.042214 -0.050632 0.001503
v 0.040448 -0.054181 0.002090
v 0.037907 -0.058406 0.004452
v 0.039575 -0.055639 0.002428
v 0.040355 -0.054896 0.003095
v 0.038759 -0.057394 0.004452
v 0.038076 -0.058596 0.006467
v 0.038902 -0.057585 0.006467
v 0.039998 -0.056410 0.008480
v 0.040708 -0.055402 0.010494
v 0.042332 -0.052842 0.011056
v 0.044351 -0.048847 0.011684
v 0.046430 -0.044209 0.010836
v 0.047324 -0.041649 0.010494
v 0.049579 -0.029562 0.008480
v 0.048802 -0.035607 0.010494
v 0.047909 -0.039634 0.010494
v 0.048357 -0.037833 0.010494
v 0.049120 -0.033592 0.008480
v 0.049380 -0.031577 0.008480
v 0.049575 -0.025862 0.006467
v 0.049524 -0.027546 0.006467
v 0.049125 -0.029562 0.004452
v 0.048932 -0.031577 0.004452
v 0.046386 -0.042171 0.003243
v 0.044458 -0.047100 0.002955
v 0.048292 -0.035705 0.004365
v 0.047410 -0.039634 0.004452
v 0.048665 -0.033592 0.004452
v 0.042885 -0.049858 0.002279
v 0.042193 -0.051446 0.002563
v 0.042402 -0.051975 0.004452
v 0.041355 -0.053733 0.004452
v 0.040490 -0.055091 0.004452
v 0.039766 -0.056099 0.004452
v 0.039910 -0.056293 0.006467
v 0.040624 -0.055285 0.006467
v 0.040708 -0.055402 0.008480
v 0.041715 -0.053885 0.010494
v 0.042028 -0.053364 0.008480
v 0.042996 -0.051718 0.010494
v 0.044168 -0.049489 0.010494
v 0.045026 -0.047691 0.010494
v 0.045952 -0.045528 0.010498
v 0.046324 -0.044750 0.009493
v 0.047305 -0.041649 0.008480
v 0.049220 -0.031577 0.006467
v 0.049405 -0.029562 0.006467
v 0.048800 -0.035607 0.008480
v 0.047888 -0.039634 0.008480
v 0.048350 -0.037802 0.008480
v 0.048962 -0.033592 0.006467
v 0.046823 -0.041649 0.004452
v 0.046222 -0.043466 0.004452
v 0.045398 -0.045684 0.004452
v 0.044639 -0.047497 0.004452
v 0.043606 -0.049706 0.004452
v 0.048626 -0.035607 0.006467
v 0.048148 -0.037035 0.005037
v 0.047709 -0.039634 0.006467
v 0.044133 -0.049212 0.006542
v 0.042386 -0.052523 0.006675
v 0.041734 -0.053562 0.006495
v 0.042982 -0.051718 0.008480
v 0.044166 -0.049485 0.008480
v 0.045022 -0.047691 0.008480
v 0.045950 -0.045528 0.008482
v 0.046428 -0.044205 0.008145
v 0.047115 -0.041649 0.006467
v 0.048261 -0.037405 0.006467
v 0.046370 -0.043886 0.006467
v 0.045690 -0.045684 0.006467
v 0.044725 -0.047890 0.006272
v 0.044235 -0.048598 0.004961
f 1 2 3
f 1 3 4
f 1 4 5
f 1 5 6
f 1 6 16
f 1 16 35
f 1 35 61
f 1 61 96
f 1 96 137
f 1 137 152
f 1 152 151
f 1 151 115
f 1 115 71
f 1 71 43
f 1 43 21
f 1 21 7
f 1 7 2
f 2 7 8
f 2 8 3
f 3 8 9
f 3 9 10
f 3 10 4
f 4 10 11
f 4 11 5
f 5 11 12
f 5 12 6
f 6 12 13
f 6 13 14
f 6 14 15
f 6 15 16
f 7 17 18
f 7 18 19
f 7 19 20
f 7 20 8
f 7 21 17
f 8 20 22
f 8 22 23
f 8 23 9
f 9 23 24
f 9 24 25
f 9 25 10
f 10 25 26
f 10 26 27
f 10 27 11
f 11 27 28
f 11 28 29
f 11 29 30
f 11 30 13
f 11 13 12
f 13 30 14
f 14 30 31
f 14 31 32
f 14 32 33
f 14 33 15
f 15 33 34
f 15 34 16
f 16 34 36
f 16 36 35
f 17 37 38
f 17 38 39
f 17 39 40
f 17 40 41
f 17 41 18
f 17 21 37
f 18 41 19
f 19 41 42
f 19 42 20
f 20 42 22
f 21 43 44
f 21 44 45
f 21 45 37
f 22 42 46
f 22 46 23
f 23 46 24
f 24 46 47
f 24 47 48
f 24 48 49
f 24 49 25
f 25 49 50
f 25 50 26
f 26 50 28
f 26 28 27
f 28 50 29
f 29 50 51
f 29 51 52
f 29 52 30
f 30 52 31
f 31 52 32
f 32 53 54
f 32 54 33
f 32 52 53
f 33 54 55
f 33 55 56
f 33 56 57
f 33 57 58
f 33 58 34
f 34 58 59
f 34 59 93
f 34 93 135
f 34 135 172
f 34 172 203
f 34 203 174
f 34 174 138
f 34 138 97
f 34 97 62
f 34 62 45
f 34 45 44
f 34 44 72
f 34 72 116
f 34 116 136
f 34 136 95
f 34 95 60
f 34 60 36
f 35 36 60
f 35 60 61
f 37 45 62
f 37 62 38
f 38 63 39
f 38 62 64
f 38 64 65
f 38 65 66
f 38 66 63
f 39 63 67
f 39 67 40
f 40 68 69
f 40 69 41
f 40 67 68
f 41 69 42
f 42 69 70
f 42 70 46
f 43 71 72
f 43 72 44
f 46 70 73
f 46 73 47
f 47 73 74
f 47 74 48
f 48 74 75
f 48 75 76
f 48 76 49
f 49 76 77
f 49 77 50
f 50 77 51
f 51 77 78
f 51 78 79
f 51 79 52
f 52 79 80
f 52 80 53
f 53 80 81
f 53 81 82
f 53 82 83
f 53 83 54
f 54 83 84
f 54 84 55
f 55 84 85
f 55 85 56
f 56 86 87
f 56 87 88
f 56 88 57
f 56 85 86
f 57 88 89
f 57 89 90
f 57 90 58
f 58 91 92
f 58 92 59
f 58 90 91
f 59 92 94
f 59 94 93
f 60 95 61
f 61 95 96
f 62 97 64
f 63 98 67
f 63 66 98
f 64 97 65
f 65 97 99
f 65 99 100
f 65 100 101
f 65 101 102
f 65 102 103
f 65 103 104
f 65 104 105
f 65 105 106
f 65 106 66
f 66 106 107
f 66 107 108
f 66 108 109
f 66 109 98
f 67 98 110
f 67 110 111
f 67 111 68
f 68 112 69
f 68 111 113
f 68 113 112
f 69 112 70
f 70 112 114
f 70 114 73
f 71 115 72
f 72 115 116
f 73 114 74
f 74 112 117
f 74 117 118
f 74 118 119
f 74 119 75
f 74 114 112
f 75 120 76
f 75 119 121
f 75 121 120
f 76 120 77
f 77 120 78
f 78 120 121
f 78 121 122
f 78 122 79
f 79 122 80
f 80 122 123
f 80 123 124
f 80 124 81
f 81 124 82
f 82 125 83
f 82 124 125
f 83 126 127
f 83 127 84
f 83 125 126
f 84 127 86
f 84 86 85
f 86 128 87
f 86 127 128
f 87 129 89
f 87 89 88
f 87 128 129
f 89 130 90
f 89 129 130
f 90 130 92
f 90 92 91
f 92 131 132
f 92 132 93
f 92 93 94
f 92 130 133
f 92 133 134
f 92 134 131
f 93 132 135
f 95 136 137
f 95 137 96
f 97 138 139
f 97 139 99
f 98 109 110
f 99 139 100
f 100 102 101
f 100 139 102
f 102 139 140
f 102 140 103
f 103 140 141
f 103 141 142
f 103 142 104
f 104 142 105
f 105 142 143
f 105 143 107
f 105 107 106
f 107 144 108
f 107 143 144
f 108 144 145
f 108 145 146
f 108 146 109
f 109 146 147
f 109 147 110
f 110 113 111
f 110 147 113
f 112 113 117
f 113 148 117
f 113 147 149
f 113 149 150
f 113 150 148
f 115 151 116
f 116 151 152
f 116 152 136
f 117 148 118
f 118 148 153
f 118 153 119
f 119 153 154
f 119 154 121
f 121 154 155
f 121 155 123
f 121 123 122
f 123 155 124
f 124 155 156
f 124 156 157
f 124 157 158
f 124 158 125
f 125 158 159
f 125 159 160
f 125 160 126
f 126 160 161
f 126 161 128
f 126 128 127
f 128 161 162
f 128 162 129
f 129 162 163
f 129 163 164
f 129 164 130
f 130 164 133
f 131 134 165
f 131 165 132
f 132 165 166
f 132 166 135
f 133 167 168
f 133 168 134
f 133 164 169
f 133 169 167
f 134 168 170
f 134 170 171
f 134 171 165
f 135 166 173
f 135 173 172
f 136 152 137
f 138 174 175
f 138 175 139
f 139 175 176
f 139 176 177
f 139 177 140
f 140 177 176
f 140 176 178
f 140 178 141
f 141 179 180
f 141 180 143
f 141 143 142
f 141 178 181
f 141 181 182
f 141 182 179
f 143 180 144
f 144 183 145
f 144 180 183
f 145 184 149
f 145 149 147
f 145 147 146
f 145 183 184
f 148 150 185
f 148 185 153
f 149 184 186
f 149 186 187
f 149 187 188
f 149 188 150
f 150 188 185
f 153 185 189
f 153 189 154
f 154 189 156
f 154 156 155
f 156 189 190
f 156 190 157
f 157 190 191
f 157 191 158
f 158 191 159
f 159 191 220
f 159 220 192
f 159 192 160
f 160 192 193
f 160 193 161
f 161 194 162
f 161 193 194
f 162 194 163
f 163 169 164
f 163 194 195
f 163 195 196
f 163 196 167
f 163 167 169
f 165 171 197
f 165 197 173
f 165 173 166
f 167 198 170
f 167 170 168
f 167 196 199
f 167 199 200
f 167 200 198
f 170 201 202
f 170 202 171
f 170 198 201
f 171 202 197
f 172 173 203
f 173 197 204
f 173 204 203
f 174 203 175
f 175 204 205
f 175 205 176
f 175 203 204
f 176 205 206
f 176 206 181
f 176 181 178
f 179 207 180
f 179 182 207
f 180 207 208
f 180 208 183
f 181 209 210
f 181 210 207
f 181 207 182
f 181 206 211
f 181 211 209
f 183 208 212
f 183 212 213
f 183 213 184
f 184 187 186
f 184 213 187
f 185 188 189
f 187 213 214
f 187 214 215
f 187 215 216
f 187 216 217
f 187 217 188
f 188 190 189
f 188 217 218
f 188 218 190
f 190 218 191
f 191 218 219
f 191 219 220
f 192 221 193
f 192 220 221
f 193 221 222
f 193 222 223
f 193 223 224
f 193 224 194
f 194 224 225
f 194 225 226
f 194 226 195
f 195 226 227
f 195 227 196
f 196 227 228
f 196 228 199
f 197 202 229
f 197 229 230
f 197 230 204
f 198 200 231
f 198 231 201
f 199 228 232
f 199 232 233
f 199 233 200
f 200 233 231
f 201 231 234
f 201 234 202
f 202 234 229
f 204 230 205
f 205 230 229
f 205 229 206
f 206 229 234
f 206 234 211
f 207 235 236
f 207 236 237
f 207 237 208
f 207 210 235
f 208 237 238
f 208 238 239
f 208 239 213
f 208 213 212
f 209 211 240
f 209 240 241
f 209 241 210
f 210 242 235
f 210 241 242
f 211 234 240
f 213 239 214
f 214 239 243
f 214 243 244
f 214 244 215
f 215 244 245
f 215 245 216
f 216 245 219
f 216 219 218
f 216 218 217
f 219 245 222
f 219 222 220
f 220 222 221
f 222 245 244
f 222 244 246
f 222 246 223
f 223 246 247
f 223 247 224
f 224 247 225
f 225 247 248
f 225 248 227
f 225 227 226
f 227 248 249
f 227 249 250
f 227 250 228
f 228 242 232
f 228 250 251
f 228 251 242
f 231 252 240
f 231 240 234
f 231 233 252
f 232 242 233
f 233 242 252
f 235 251 236
f 235 242 251
f 236 251 253
f 236 253 237
f 237 254 238
f 237 253 254
f 238 254 255
f 238 255 256
f 238 256 239
f 239 256 243
f 240 252 241
f 241 252 242
f 243 256 255
f 243 255 248
f 243 248 247
f 243 247 246
f 243 246 244
f 248 255 254
f 248 254 249
f 249 254 250
f 250 254 253
f 250 253 251
