v 0.013048 -0.055757 -0.001394
v 0.012951 -0.057869 -0.001036
v 0.011032 -0.053740 -0.001326
v 0.011032 -0.051725 -0.001369
v 0.015064 -0.057767 -0.001361
v 0.015039 -0.059840 -0.000995
v 0.013558 -0.059205 -0.000813
v 0.011629 -0.057266 -0.000816
v 0.010987 -0.055760 -0.000989
v 0.009465 -0.053740 -0.000895
v 0.008893 -0.051781 -0.000971
v 0.009018 -0.049711 -0.001208
v 0.010652 -0.049329 -0.001273
v 0.011032 -0.049711 -0.001277
v 0.019088 -0.059784 -0.001179
v 0.017074 -0.059784 -0.001294
v 0.017074 -0.061395 -0.000902
v 0.015692 -0.061025 -0.000755
v 0.014350 -0.060550 -0.000223
v 0.012213 -0.058605 -0.000362
v 0.009819 -0.055091 -0.000744
v 0.007866 -0.051149 -0.000708
v 0.007675 -0.049711 -0.000818
v 0.008870 -0.049329 -0.001181
v 0.011032 -0.049329 -0.001252
v 0.026037 -0.060629 -0.000666
v 0.023118 -0.061799 -0.000961
v 0.021102 -0.061799 -0.001057
v 0.019024 -0.061939 -0.000932
v 0.019652 -0.062921 -0.000684
v 0.018308 -0.062707 -0.000468
v 0.016986 -0.062423 0.000290
v 0.013894 -0.060921 0.001120
v 0.013054 -0.059768 0.000379
v 0.015039 -0.061354 0.000438
v 0.011834 -0.058988 0.000982
v 0.011059 -0.057737 0.000425
v 0.010287 -0.056432 -0.000129
v 0.009559 -0.055760 0.000493
v 0.008140 -0.052491 -0.000384
v 0.007586 -0.051781 0.000342
v 0.006914 -0.049711 0.000421
v 0.006813 -0.049329 0.000421
v 0.007531 -0.049329 -0.000703
v 0.012458 -0.049329 -0.000899
v 0.026037 -0.059621 -0.000008
v 0.026037 -0.061709 -0.000718
v 0.013495 -0.049329 -0.000318
v 0.025134 -0.061799 -0.000790
v 0.026037 -0.062733 -0.000642
v 0.025134 -0.062966 -0.000678
v 0.023118 -0.063079 -0.000757
v 0.021102 -0.063042 -0.000758
v 0.021102 -0.063861 0.000421
v 0.019024 -0.063307 0.000290
v 0.017601 -0.063042 0.000875
v 0.016257 -0.062710 0.001860
v 0.013678 -0.061098 0.002436
v 0.012672 -0.060224 0.002436
v 0.015212 -0.062188 0.002494
v 0.011618 -0.059217 0.002436
v 0.010610 -0.058057 0.002436
v 0.009942 -0.056874 0.001214
v 0.007856 -0.053053 0.000961
v 0.008477 -0.053732 0.000342
v 0.006391 -0.049711 0.002436
v 0.006278 -0.049329 0.002436
v 0.006634 -0.049329 0.001067
v 0.026037 -0.058451 0.000999
v 0.014723 -0.049329 0.000754
v 0.026037 -0.063722 0.000350
v 0.025134 -0.063929 0.000421
v 0.023118 -0.064035 0.000421
v 0.020997 -0.064651 0.002380
v 0.023118 -0.064770 0.001635
v 0.019088 -0.064111 0.002436
v 0.016986 -0.063211 0.002494
v 0.015980 -0.062860 0.003204
v 0.014824 -0.062268 0.004452
v 0.013482 -0.061261 0.004452
v 0.012474 -0.060403 0.004452
v 0.011442 -0.059395 0.004452
v 0.010434 -0.058265 0.004452
v 0.009816 -0.057055 0.002436
v 0.009010 -0.055757 0.002436
v 0.008208 -0.054348 0.002436
v 0.007730 -0.053340 0.002436
v 0.007074 -0.051725 0.002436
v 0.006157 -0.049392 0.004195
v 0.006243 -0.049329 0.002823
v 0.006901 -0.051725 0.004452
v 0.026037 -0.057722 0.002436
v 0.015731 -0.049329 0.001885
v 0.016391 -0.049329 0.002892
v 0.026037 -0.064722 0.001928
v 0.025134 -0.064778 0.001607
v 0.020256 -0.064786 0.003678
v 0.021598 -0.064928 0.003013
v 0.023118 -0.065027 0.002641
v 0.019185 -0.064519 0.004391
v 0.017074 -0.063608 0.004452
v 0.015832 -0.062955 0.004452
v 0.014649 -0.062373 0.006467
v 0.015657 -0.063076 0.006467
v 0.013348 -0.061365 0.006467
v 0.012340 -0.060527 0.006467
v 0.011316 -0.059520 0.006467
v 0.010310 -0.058409 0.006467
v 0.009674 -0.057259 0.004452
v 0.008739 -0.055757 0.004452
v 0.008084 -0.054590 0.004452
v 0.007638 -0.053582 0.004452
v 0.006198 -0.049392 0.006327
v 0.006908 -0.051725 0.006467
v 0.006574 -0.049329 0.008465
v 0.007630 -0.053650 0.006467
v 0.026037 -0.057116 0.004392
v 0.017053 -0.049329 0.004452
v 0.026037 -0.064869 0.002428
v 0.025134 -0.065028 0.002615
v 0.020997 -0.065049 0.004391
v 0.019921 -0.064885 0.005021
v 0.023118 -0.065385 0.004452
v 0.018689 -0.064595 0.006467
v 0.017074 -0.063858 0.006467
v 0.015574 -0.063140 0.008480
v 0.014566 -0.062431 0.008480
v 0.017074 -0.063985 0.008480
v 0.013285 -0.061422 0.008480
v 0.012277 -0.060572 0.008480
v 0.011295 -0.059565 0.008480
v 0.010288 -0.058402 0.008480
v 0.009594 -0.057406 0.006467
v 0.008623 -0.055757 0.006467
v 0.008047 -0.054657 0.006467
v 0.006650 -0.049711 0.008480
v 0.007191 -0.051725 0.008480
v 0.007757 -0.053392 0.008480
v 0.007179 -0.049711 0.010495
v 0.007122 -0.049329 0.010495
v 0.008140 -0.054401 0.008480
v 0.026037 -0.056956 0.005487
v 0.017553 -0.049329 0.006467
v 0.026037 -0.064969 0.002833
v 0.025134 -0.065376 0.004452
v 0.021102 -0.065338 0.006467
v 0.023118 -0.065649 0.006467
v 0.019697 -0.064961 0.006467
v 0.018514 -0.064662 0.008480
v 0.015620 -0.063102 0.010495
v 0.014612 -0.062400 0.010495
v 0.017074 -0.063918 0.010495
v 0.018572 -0.064628 0.010495
v 0.013355 -0.061395 0.010495
v 0.012347 -0.060482 0.010495
v 0.011423 -0.059474 0.010495
v 0.010415 -0.058170 0.010495
v 0.009631 -0.057398 0.008480
v 0.008753 -0.055757 0.008480
v 0.007691 -0.051796 0.010557
v 0.007901 -0.053031 0.009926
v 0.007891 -0.051172 0.011842
v 0.007743 -0.049711 0.012182
v 0.007720 -0.049329 0.012222
v 0.009103 -0.055757 0.010495
v 0.008298 -0.053717 0.010557
v 0.026037 -0.056877 0.006467
v 0.017669 -0.049329 0.008480
v 0.026037 -0.065238 0.004424
v 0.025134 -0.065609 0.006467
v 0.026037 -0.065346 0.005352
v 0.023118 -0.065799 0.008480
v 0.021102 -0.065483 0.008480
v 0.019522 -0.065023 0.008480
v 0.019580 -0.065012 0.010495
v 0.015809 -0.062974 0.012121
v 0.013595 -0.061196 0.012511
v 0.016889 -0.063424 0.012680
v 0.019125 -0.064511 0.012632
v 0.019822 -0.064928 0.012040
v 0.012589 -0.060211 0.012511
v 0.011686 -0.059205 0.012511
v 0.009936 -0.056922 0.011789
v 0.009790 -0.057164 0.010495
v 0.008066 -0.052516 0.011271
v 0.008282 -0.051796 0.012513
v 0.008156 -0.049711 0.013190
v 0.008140 -0.049329 0.013229
v 0.009633 -0.055787 0.012480
v 0.008831 -0.053740 0.012511
v 0.026037 -0.056885 0.008480
v 0.017274 -0.049329 0.010495
v 0.025134 -0.065731 0.008480
v 0.026037 -0.065473 0.006467
v 0.026037 -0.065533 0.007366
v 0.025134 -0.065730 0.010495
v 0.023118 -0.065770 0.010495
v 0.021102 -0.065464 0.010495
v 0.015109 -0.062313 0.012680
v 0.016095 -0.062786 0.013464
v 0.013869 -0.060951 0.013680
v 0.020203 -0.064783 0.013383
v 0.020966 -0.065140 0.012632
v 0.011921 -0.058930 0.013645
v 0.010633 -0.057661 0.012480
v 0.010166 -0.056482 0.013132
v 0.009847 -0.055138 0.013722
v 0.009582 -0.053740 0.013970
v 0.009315 -0.051725 0.014162
v 0.009164 -0.049711 0.014235
v 0.009148 -0.049329 0.014241
v 0.026037 -0.057353 0.010476
v 0.016496 -0.049329 0.012145
v 0.026037 -0.065601 0.008480
v 0.026037 -0.065610 0.009381
v 0.026037 -0.065610 0.010495
v 0.025134 -0.065505 0.012511
v 0.023118 -0.065514 0.012511
v 0.015064 -0.061403 0.013974
v 0.017438 -0.063158 0.013848
v 0.013137 -0.059674 0.013970
v 0.019088 -0.063547 0.014093
v 0.021546 -0.064962 0.013691
v 0.011553 -0.057767 0.013933
v 0.010915 -0.055787 0.014199
v 0.011032 -0.053740 0.014744
v 0.011032 -0.051725 0.014964
v 0.011032 -0.049711 0.015065
v 0.011032 -0.049329 0.015080
v 0.026037 -0.057824 0.011326
v 0.015753 -0.049329 0.013153
v 0.026037 -0.058296 0.012095
v 0.026037 -0.065365 0.012592
v 0.025134 -0.065073 0.013817
v 0.026037 -0.065217 0.013143
v 0.023118 -0.065072 0.013819
v 0.016889 -0.061989 0.014262
v 0.015064 -0.059784 0.014673
v 0.013048 -0.057767 0.014657
v 0.019088 -0.061799 0.014736
v 0.020966 -0.063993 0.014140
v 0.013048 -0.055757 0.014954
v 0.021102 -0.061799 0.014696
v 0.026037 -0.061799 0.014448
v 0.013048 -0.049329 0.014914
v 0.026037 -0.059225 0.013103
v 0.026037 -0.058799 0.012653
v 0.014840 -0.049329 0.013990
v 0.025134 -0.063813 0.014396
v 0.023118 -0.063813 0.014440
v 0.026037 -0.065015 0.013748
v 0.026037 -0.062913 0.014412
v 0.026037 -0.061075 0.014207
v 0.026037 -0.060232 0.013888
v 0.026037 -0.059781 0.013561
v 0.026037 -0.063895 0.014256
f 1 2 3
f 1 3 4
f 1 4 5
f 1 5 2
f 2 5 6
f 2 6 7
f 2 7 8
f 2 8 9
f 2 9 3
f 3 9 10
f 3 10 11
f 3 11 12
f 3 12 4
f 4 12 13
f 4 13 14
f 4 14 15
f 4 15 5
f 5 15 16
f 5 16 6
f 6 16 17
f 6 17 18
f 6 18 7
f 7 19 20
f 7 20 8
f 7 18 19
f 8 20 21
f 8 21 9
f 9 21 10
f 10 21 22
f 10 22 11
f 11 22 23
f 11 23 12
f 12 23 24
f 12 24 13
f 13 25 14
f 13 24 44
f 13 44 43
f 13 43 68
f 13 68 67
f 13 67 90
f 13 90 115
f 13 115 140
f 13 140 164
f 13 164 188
f 13 188 211
f 13 211 229
f 13 229 245
f 13 245 248
f 13 248 231
f 13 231 213
f 13 213 192
f 13 192 168
f 13 168 143
f 13 143 118
f 13 118 94
f 13 94 93
f 13 93 70
f 13 70 48
f 13 48 45
f 13 45 25
f 14 25 26
f 14 26 15
f 15 26 27
f 15 27 16
f 16 27 28
f 16 28 29
f 16 29 17
f 17 29 30
f 17 30 31
f 17 31 18
f 18 31 32
f 18 32 19
f 19 33 34
f 19 34 20
f 19 32 35
f 19 35 33
f 20 34 36
f 20 36 37
f 20 37 38
f 20 38 21
f 21 39 40
f 21 40 22
f 21 38 39
f 22 41 42
f 22 42 43
f 22 43 44
f 22 44 23
f 22 40 41
f 23 44 24
f 25 45 26
f 26 46 69
f 26 69 92
f 26 92 117
f 26 117 142
f 26 142 167
f 26 167 191
f 26 191 212
f 26 212 230
f 26 230 232
f 26 232 247
f 26 247 246
f 26 246 255
f 26 255 254
f 26 254 253
f 26 253 244
f 26 244 252
f 26 252 256
f 26 256 251
f 26 251 235
f 26 235 233
f 26 233 216
f 26 216 215
f 26 215 214
f 26 214 195
f 26 195 194
f 26 194 171
f 26 171 169
f 26 169 144
f 26 144 119
f 26 119 95
f 26 95 71
f 26 71 50
f 26 50 47
f 26 47 27
f 26 45 48
f 26 48 46
f 27 47 49
f 27 49 50
f 27 50 51
f 27 51 52
f 27 52 28
f 28 53 29
f 28 52 53
f 29 53 30
f 30 53 54
f 30 54 55
f 30 55 31
f 31 55 56
f 31 56 32
f 32 57 35
f 32 56 57
f 33 58 59
f 33 59 36
f 33 36 34
f 33 35 57
f 33 57 60
f 33 60 58
f 36 61 62
f 36 62 63
f 36 63 37
f 36 59 61
f 37 63 38
f 38 63 39
f 39 64 65
f 39 65 40
f 39 63 64
f 40 65 64
f 40 64 41
f 41 64 66
f 41 66 42
f 42 66 67
f 42 67 68
f 42 68 43
f 46 48 69
f 47 50 49
f 48 70 69
f 50 71 51
f 51 71 72
f 51 72 52
f 52 72 73
f 52 73 53
f 53 73 54
f 54 74 55
f 54 73 75
f 54 75 74
f 55 76 56
f 55 74 76
f 56 76 77
f 56 77 57
f 57 77 78
f 57 78 60
f 58 60 78
f 58 78 79
f 58 79 80
f 58 80 81
f 58 81 59
f 59 81 61
f 61 82 83
f 61 83 62
f 61 81 82
f 62 83 84
f 62 84 63
f 63 84 85
f 63 85 86
f 63 86 64
f 64 86 87
f 64 87 88
f 64 88 66
f 66 89 90
f 66 90 67
f 66 88 91
f 66 91 89
f 69 70 93
f 69 93 94
f 69 94 92
f 71 95 96
f 71 96 72
f 72 96 73
f 73 96 75
f 74 97 76
f 74 75 98
f 74 98 97
f 75 99 98
f 75 96 99
f 76 97 100
f 76 100 77
f 77 101 78
f 77 100 101
f 78 102 79
f 78 101 102
f 79 103 80
f 79 102 104
f 79 104 103
f 80 103 105
f 80 105 106
f 80 106 81
f 81 106 82
f 82 107 108
f 82 108 83
f 82 106 107
f 83 108 109
f 83 109 84
f 84 109 110
f 84 110 85
f 85 110 86
f 86 110 111
f 86 111 87
f 87 112 88
f 87 111 112
f 88 112 91
f 89 113 90
f 89 91 114
f 89 114 113
f 90 113 115
f 91 112 116
f 91 116 114
f 92 94 118
f 92 118 117
f 95 119 96
f 96 120 99
f 96 119 120
f 97 98 121
f 97 121 122
f 97 122 100
f 98 99 123
f 98 123 121
f 99 120 123
f 100 122 124
f 100 124 101
f 101 125 102
f 101 124 125
f 102 125 104
f 103 104 126
f 103 126 127
f 103 127 105
f 104 125 128
f 104 128 126
f 105 127 129
f 105 129 106
f 106 129 130
f 106 130 107
f 107 130 131
f 107 131 108
f 108 131 132
f 108 132 133
f 108 133 109
f 109 133 110
f 110 133 134
f 110 134 111
f 111 134 135
f 111 135 112
f 112 135 116
f 113 136 115
f 113 114 137
f 113 137 136
f 114 116 138
f 114 138 137
f 115 136 139
f 115 139 140
f 116 135 141
f 116 141 138
f 117 118 143
f 117 143 142
f 119 144 120
f 120 145 123
f 120 144 145
f 121 146 122
f 121 123 147
f 121 147 146
f 122 146 148
f 122 148 124
f 123 145 147
f 124 148 149
f 124 149 125
f 125 149 128
f 126 128 150
f 126 150 151
f 126 151 127
f 127 151 129
f 128 152 150
f 128 149 153
f 128 153 152
f 129 151 154
f 129 154 130
f 130 154 155
f 130 155 131
f 131 156 132
f 131 155 156
f 132 156 157
f 132 157 158
f 132 158 133
f 133 158 134
f 134 158 159
f 134 159 135
f 135 159 141
f 136 137 160
f 136 160 139
f 137 138 161
f 137 161 160
f 138 141 161
f 139 160 162
f 139 162 163
f 139 163 140
f 140 163 164
f 141 159 165
f 141 165 166
f 141 166 161
f 142 143 167
f 143 168 167
f 144 169 145
f 145 170 147
f 145 169 171
f 145 171 170
f 146 147 172
f 146 172 173
f 146 173 148
f 147 170 172
f 148 173 174
f 148 174 149
f 149 174 175
f 149 175 153
f 150 152 176
f 150 176 151
f 151 177 154
f 151 176 177
f 152 178 176
f 152 153 179
f 152 179 178
f 153 175 180
f 153 180 179
f 154 177 155
f 155 177 181
f 155 181 156
f 156 182 157
f 156 181 182
f 157 183 184
f 157 184 158
f 157 182 183
f 158 184 159
f 159 184 165
f 160 161 185
f 160 185 162
f 161 166 185
f 162 185 186
f 162 186 163
f 163 186 187
f 163 187 164
f 164 187 188
f 165 184 183
f 165 183 189
f 165 189 166
f 166 189 190
f 166 190 185
f 167 168 191
f 168 192 191
f 170 193 172
f 170 171 194
f 170 194 195
f 170 195 193
f 172 193 196
f 172 196 197
f 172 197 198
f 172 198 173
f 173 198 174
f 174 198 175
f 175 198 180
f 176 199 177
f 176 178 200
f 176 200 199
f 177 199 200
f 177 200 201
f 177 201 181
f 178 179 202
f 178 202 200
f 179 180 202
f 180 198 203
f 180 203 202
f 181 201 204
f 181 204 182
f 182 204 205
f 182 205 183
f 183 205 206
f 183 206 189
f 185 190 186
f 186 190 207
f 186 207 208
f 186 208 187
f 187 208 209
f 187 209 188
f 188 209 210
f 188 210 211
f 189 207 190
f 189 206 207
f 191 192 212
f 192 213 212
f 193 195 214
f 193 214 215
f 193 215 216
f 193 216 196
f 196 217 197
f 196 216 217
f 197 217 218
f 197 218 198
f 198 218 203
f 200 219 201
f 200 202 220
f 200 220 219
f 201 221 204
f 201 219 221
f 202 222 220
f 202 203 223
f 202 223 222
f 203 218 223
f 204 224 207
f 204 207 206
f 204 206 205
f 204 221 224
f 207 224 225
f 207 225 208
f 208 225 226
f 208 226 209
f 209 226 227
f 209 227 210
f 210 227 228
f 210 228 229
f 210 229 211
f 212 213 230
f 213 231 232
f 213 232 230
f 216 233 217
f 217 234 218
f 217 233 235
f 217 235 234
f 218 236 223
f 218 234 236
f 219 220 237
f 219 237 238
f 219 238 221
f 220 222 237
f 221 238 239
f 221 239 224
f 222 240 237
f 222 223 241
f 222 241 240
f 223 236 241
f 224 239 225
f 225 239 226
f 226 239 242
f 226 242 227
f 227 242 228
f 228 242 229
f 229 242 243
f 229 243 244
f 229 244 245
f 231 246 247
f 231 247 232
f 231 248 246
f 234 249 250
f 234 250 236
f 234 235 251
f 234 251 249
f 236 250 241
f 237 240 238
f 238 240 242
f 238 242 239
f 240 241 250
f 240 250 243
f 240 243 242
f 243 250 249
f 243 249 252
f 243 252 244
f 244 253 245
f 245 253 254
f 245 254 248
f 246 248 255
f 248 254 255
f 249 251 256
f 249 256 252
