v -0.038818 -0.018759 0.006466
v -0.038783 -0.018759 0.008480
v -0.038644 -0.017462 0.006466
v -0.038754 -0.018759 0.004792
v -0.037732 -0.018759 0.013015
v -0.038529 -0.018588 0.011279
v -0.038386 -0.017081 0.010714
v -0.038606 -0.017462 0.008480
v -0.038430 -0.016910 0.003946
v -0.038299 -0.015631 0.006466
v -0.038286 -0.015864 0.004618
v -0.038337 -0.017583 0.002614
v -0.038399 -0.018753 0.002066
v -0.037410 -0.018759 0.000589
v -0.036624 -0.018759 0.013850
v -0.036822 -0.017462 0.013808
v -0.036681 -0.015445 0.013763
v -0.036405 -0.012910 0.013583
v -0.037900 -0.017426 0.012433
v -0.037487 -0.015445 0.012509
v -0.037010 -0.013431 0.012509
v -0.037509 -0.013431 0.010495
v -0.038229 -0.015982 0.010044
v -0.038269 -0.015740 0.008480
v -0.037878 -0.015445 0.002437
v -0.037725 -0.013431 0.006466
v -0.037650 -0.013431 0.004452
v -0.036745 -0.013431 0.000818
v -0.037001 -0.015445 0.000603
v -0.037202 -0.017462 0.000521
v -0.035317 -0.015445 -0.000385
v -0.035317 -0.017462 -0.000426
v -0.035317 -0.018759 -0.000416
v -0.035054 -0.018759 0.013934
v -0.035317 -0.017462 0.014027
v -0.035317 -0.015445 0.014054
v -0.035317 -0.013431 0.013991
v -0.035357 -0.011595 0.013830
v -0.034723 -0.009401 0.013804
v -0.034460 -0.008074 0.013647
v -0.036054 -0.011040 0.012917
v -0.036500 -0.011595 0.012351
v -0.036381 -0.010283 0.011035
v -0.036853 -0.011418 0.010495
v -0.037010 -0.011418 0.008480
v -0.037659 -0.013431 0.008480
v -0.037363 -0.013431 0.002437
v -0.036509 -0.011875 0.001127
v -0.037072 -0.011418 0.006466
v -0.036999 -0.011418 0.004452
v -0.035025 -0.009401 0.000581
v -0.033681 -0.009401 -0.000427
v -0.034328 -0.012656 -0.000591
v -0.033306 -0.018759 0.000363
v -0.019200 0.004701 -0.001180
v -0.016725 0.004704 -0.000956
v -0.016264 0.003657 -0.000603
v -0.033789 -0.018759 0.013591
v -0.016264 0.005161 0.014751
v -0.016725 0.006944 0.014942
v -0.019200 0.004701 0.014898
v -0.023234 0.002684 0.014769
v -0.033306 -0.009401 0.014194
v -0.033376 -0.007396 0.013934
v -0.032727 -0.005371 0.013808
v -0.032411 -0.004174 0.013624
v -0.034394 -0.007063 0.012763
v -0.035688 -0.009572 0.012351
v -0.034387 -0.006244 0.011734
v -0.035149 -0.007385 0.010495
v -0.035981 -0.009198 0.010495
v -0.036277 -0.009513 0.008480
v -0.036312 -0.009428 0.006466
v -0.036476 -0.010911 0.002019
v -0.034306 -0.006388 0.001451
v -0.034637 -0.007729 0.000944
v -0.036277 -0.009516 0.004452
v -0.036184 -0.009855 0.002691
v -0.031855 -0.004999 -0.000311
v -0.032392 -0.006863 -0.000612
v -0.031226 -0.005548 -0.000680
v -0.023234 0.002684 -0.001019
v -0.032158 -0.018759 0.001274
v -0.021218 0.004701 -0.001065
v -0.016725 0.006714 -0.001111
v -0.016264 0.009725 -0.000470
v -0.016264 0.002551 0.000155
v -0.032734 -0.018759 0.012894
v -0.016264 0.000995 0.013465
v -0.016264 0.003144 0.014241
v -0.016725 0.010765 0.012640
v -0.016725 0.010011 0.013956
v -0.016725 0.008728 0.014589
v -0.019200 0.006714 0.014797
v -0.021218 0.004701 0.014846
v -0.027426 0.000832 0.014150
v -0.029272 -0.003360 0.014417
v -0.031288 -0.005371 0.014262
v -0.031288 -0.003451 0.013932
v -0.031981 -0.002809 0.012509
v -0.032645 -0.003811 0.012509
v -0.030614 -0.001907 0.013765
v -0.030095 -0.000562 0.013093
v -0.032890 -0.003460 0.010495
v -0.034193 -0.005565 0.010495
v -0.035310 -0.007385 0.008480
v -0.034284 -0.005403 0.008480
v -0.035385 -0.007385 0.006466
v -0.035312 -0.007385 0.004452
v -0.034864 -0.007187 0.002249
v -0.034180 -0.005781 0.002521
v -0.032813 -0.003581 0.002437
v -0.032555 -0.003970 0.001032
v -0.032864 -0.005548 0.000385
v -0.031310 -0.003304 0.000264
v -0.030049 -0.002632 -0.000503
v -0.030511 -0.003967 -0.000662
v -0.026788 0.000670 -0.000705
v -0.025110 0.002522 -0.000733
v -0.028709 -0.001706 -0.000689
v -0.031266 -0.018759 0.002494
v -0.016264 0.000726 0.001580
v -0.016264 -0.000497 0.002716
v -0.023059 0.004556 -0.000752
v -0.021744 0.005921 -0.000685
v -0.019249 0.006800 -0.000918
v -0.016725 0.008525 -0.000814
v -0.018609 0.007956 -0.000721
v -0.019953 0.007531 -0.000402
v -0.016725 0.010235 0.000744
v -0.016725 0.010957 0.002618
v -0.016725 0.011269 0.004553
v -0.016725 0.011361 0.006534
v -0.016725 0.011296 0.008480
v -0.016725 0.011128 0.010628
v -0.031511 -0.018759 0.011882
v -0.016264 -0.001311 0.012122
v -0.018304 0.009807 0.013022
v -0.020556 0.007967 0.013766
v -0.019013 0.008675 0.013956
v -0.021223 0.006767 0.014172
v -0.023355 0.004833 0.014237
v -0.025426 0.002861 0.014215
v -0.026868 0.002304 0.013871
v -0.028755 0.000266 0.013836
v -0.029365 -0.001279 0.014062
v -0.030881 -0.001279 0.012455
v -0.030360 -0.000238 0.011748
v -0.028203 0.001611 0.013386
v -0.031411 -0.001346 0.010495
v -0.032261 -0.002405 0.009960
v -0.032877 -0.003163 0.008644
v -0.034325 -0.005335 0.006466
v -0.033131 -0.003360 0.006466
v -0.034281 -0.005412 0.004452
v -0.032902 -0.003171 0.004312
v -0.032213 -0.002476 0.002991
v -0.031056 -0.001184 0.002341
v -0.030221 -0.000403 0.001605
v -0.030764 -0.001744 0.000840
v -0.028245 -0.000362 -0.000580
v -0.026316 0.001740 -0.000618
v -0.024351 0.003793 -0.000645
v -0.030550 -0.018759 0.003622
v -0.016264 -0.001818 0.004283
v -0.022693 0.006072 0.000422
v -0.020580 0.007985 0.000941
v -0.018342 0.009831 0.001905
v -0.019454 0.009250 0.002437
v -0.018719 0.010064 0.004452
v -0.018790 0.010111 0.006466
v -0.018734 0.010072 0.008480
v -0.018620 0.010005 0.010495
v -0.030685 -0.018759 0.010945
v -0.016264 -0.002411 0.011016
v -0.019397 0.009209 0.012509
v -0.020905 0.008200 0.012509
v -0.021914 0.007490 0.012509
v -0.024110 0.005597 0.013173
v -0.022770 0.006133 0.013869
v -0.024872 0.004252 0.013902
v -0.026216 0.003648 0.013421
v -0.028449 0.001873 0.012043
v -0.029619 0.000903 0.010495
v -0.030471 -0.000102 0.010495
v -0.030577 0.000022 0.008480
v -0.032029 -0.001901 0.008363
v -0.032387 -0.002228 0.006466
v -0.032045 -0.001865 0.004601
v -0.030577 0.000022 0.004452
v -0.030429 -0.000158 0.002948
v -0.029590 0.000576 0.002341
v -0.028360 0.001779 0.001929
v -0.028731 0.000670 0.000924
v -0.027795 0.000670 -0.000085
v -0.026351 0.003781 0.001930
v -0.023702 0.005220 0.000422
v -0.030007 -0.018759 0.004727
v -0.016264 -0.002558 0.005478
v -0.024146 0.005632 0.001667
v -0.020951 0.008242 0.002437
v -0.021958 0.007528 0.002437
v -0.019726 0.009430 0.004452
v -0.022170 0.007684 0.003729
v -0.019799 0.009480 0.006466
v -0.019739 0.009441 0.008480
v -0.019624 0.009362 0.010495
v -0.029914 -0.018759 0.009641
v -0.016264 -0.003254 0.008857
v -0.021748 0.007947 0.010604
v -0.024344 0.005794 0.011829
v -0.023355 0.006381 0.012504
v -0.026451 0.003875 0.012078
v -0.028614 0.002047 0.010495
v -0.027629 0.003058 0.010495
v -0.029722 0.001027 0.008480
v -0.030630 0.000089 0.006466
v -0.031636 -0.001220 0.006466
v -0.029775 0.001095 0.006466
v -0.029718 0.001030 0.004452
v -0.028709 0.002147 0.004452
v -0.027448 0.002881 0.002437
v -0.026715 0.004117 0.004452
v -0.024397 0.005836 0.003011
v -0.025139 0.004995 0.002379
v -0.029502 -0.018759 0.006466
v -0.016264 -0.003074 0.006914
v -0.023377 0.006434 0.002379
v -0.021384 0.008312 0.004421
v -0.022298 0.007773 0.005072
v -0.024572 0.005977 0.004452
v -0.023075 0.007106 0.004421
v -0.021218 0.008539 0.006466
v -0.021218 0.008463 0.008480
v -0.022251 0.007743 0.009010
v -0.029539 -0.018759 0.008480
v -0.023033 0.007033 0.010325
v -0.024479 0.005901 0.010495
v -0.025486 0.005046 0.010495
v -0.026625 0.004040 0.010495
v -0.028713 0.002168 0.008480
v -0.027749 0.003173 0.008480
v -0.028769 0.002218 0.006466
v -0.027799 0.003226 0.006466
v -0.027718 0.003153 0.004452
v -0.026799 0.004191 0.006466
v -0.025578 0.005122 0.004452
v -0.024651 0.006045 0.006466
v -0.023329 0.007050 0.006466
v -0.022320 0.007790 0.006466
v -0.025660 0.005196 0.006466
v -0.023278 0.007006 0.008480
v -0.024596 0.006001 0.008480
v -0.025605 0.005152 0.008480
v -0.026744 0.004143 0.008480
f 1 2 3
f 1 3 4
f 1 4 14
f 1 14 33
f 1 33 54
f 1 54 83
f 1 83 121
f 1 121 164
f 1 164 198
f 1 198 226
f 1 226 236
f 1 236 208
f 1 208 174
f 1 174 136
f 1 136 88
f 1 88 58
f 1 58 34
f 1 34 15
f 1 15 5
f 1 5 2
f 2 5 6
f 2 6 7
f 2 7 8
f 2 8 3
f 3 9 4
f 3 8 10
f 3 10 11
f 3 11 9
f 4 9 12
f 4 12 13
f 4 13 14
f 5 15 16
f 5 16 17
f 5 17 18
f 5 18 19
f 5 19 6
f 6 19 20
f 6 20 7
f 7 20 21
f 7 21 22
f 7 22 23
f 7 23 8
f 8 23 24
f 8 24 10
f 9 11 25
f 9 25 12
f 10 24 26
f 10 26 27
f 10 27 11
f 11 27 25
f 12 25 13
f 13 25 28
f 13 28 29
f 13 29 30
f 13 30 14
f 14 30 31
f 14 31 32
f 14 32 33
f 15 34 35
f 15 35 36
f 15 36 16
f 16 36 37
f 16 37 17
f 17 37 38
f 17 38 18
f 18 38 39
f 18 39 40
f 18 40 41
f 18 41 42
f 18 42 21
f 18 21 20
f 18 20 19
f 21 42 22
f 22 42 43
f 22 43 44
f 22 44 45
f 22 45 46
f 22 46 23
f 23 46 24
f 24 46 26
f 25 27 47
f 25 47 48
f 25 48 28
f 26 46 45
f 26 45 49
f 26 49 50
f 26 50 27
f 27 50 47
f 28 48 51
f 28 51 52
f 28 52 29
f 29 52 53
f 29 53 31
f 29 31 30
f 31 53 32
f 32 53 33
f 33 53 55
f 33 55 56
f 33 56 57
f 33 57 54
f 34 58 59
f 34 59 60
f 34 60 61
f 34 61 35
f 35 61 62
f 35 62 36
f 36 63 37
f 36 62 63
f 37 63 38
f 38 63 39
f 39 63 64
f 39 64 65
f 39 65 40
f 40 65 66
f 40 66 67
f 40 67 68
f 40 68 41
f 41 68 42
f 42 68 43
f 43 45 44
f 43 68 69
f 43 69 70
f 43 70 71
f 43 71 72
f 43 72 45
f 45 72 73
f 45 73 49
f 47 50 74
f 47 74 48
f 48 74 75
f 48 75 76
f 48 76 51
f 49 73 77
f 49 77 50
f 50 77 78
f 50 78 74
f 51 76 79
f 51 79 80
f 51 80 52
f 52 80 53
f 53 80 81
f 53 81 82
f 53 82 55
f 54 57 83
f 55 82 84
f 55 84 85
f 55 85 56
f 56 85 57
f 57 85 86
f 57 86 59
f 57 59 90
f 57 90 89
f 57 89 137
f 57 137 175
f 57 175 209
f 57 209 227
f 57 227 199
f 57 199 165
f 57 165 123
f 57 123 122
f 57 122 87
f 57 87 83
f 58 88 89
f 58 89 90
f 58 90 59
f 59 86 91
f 59 91 92
f 59 92 93
f 59 93 60
f 60 93 94
f 60 94 95
f 60 95 61
f 61 95 62
f 62 95 96
f 62 96 97
f 62 97 63
f 63 97 98
f 63 98 64
f 64 98 65
f 65 98 99
f 65 99 66
f 66 100 101
f 66 101 69
f 66 69 67
f 66 99 102
f 66 102 103
f 66 103 100
f 67 69 68
f 69 101 104
f 69 104 105
f 69 105 70
f 70 106 71
f 70 105 107
f 70 107 106
f 71 106 72
f 72 106 108
f 72 108 73
f 73 108 109
f 73 109 77
f 74 78 75
f 75 78 110
f 75 110 111
f 75 111 112
f 75 112 113
f 75 113 76
f 76 113 114
f 76 114 79
f 77 109 78
f 78 109 110
f 79 114 113
f 79 113 115
f 79 115 116
f 79 116 80
f 80 116 117
f 80 117 81
f 81 117 82
f 82 118 119
f 82 119 84
f 82 117 120
f 82 120 118
f 83 87 122
f 83 122 123
f 83 123 121
f 84 119 124
f 84 124 125
f 84 125 126
f 84 126 85
f 85 126 127
f 85 127 86
f 86 127 128
f 86 128 129
f 86 129 130
f 86 130 131
f 86 131 132
f 86 132 133
f 86 133 134
f 86 134 135
f 86 135 91
f 88 136 137
f 88 137 89
f 91 135 138
f 91 138 92
f 92 138 139
f 92 139 140
f 92 140 93
f 93 140 94
f 94 140 141
f 94 141 142
f 94 142 95
f 95 142 143
f 95 143 96
f 96 143 144
f 96 144 145
f 96 145 146
f 96 146 97
f 97 146 98
f 98 146 99
f 99 146 102
f 100 104 101
f 100 103 147
f 100 147 148
f 100 148 104
f 102 146 145
f 102 145 149
f 102 149 103
f 103 149 148
f 103 148 147
f 104 148 150
f 104 150 151
f 104 151 152
f 104 152 107
f 104 107 105
f 106 107 153
f 106 153 108
f 107 152 154
f 107 154 153
f 108 153 109
f 109 153 155
f 109 155 111
f 109 111 110
f 111 155 156
f 111 156 112
f 112 156 157
f 112 157 158
f 112 158 159
f 112 159 113
f 113 160 115
f 113 159 160
f 115 160 116
f 116 160 161
f 116 161 117
f 117 161 120
f 118 161 162
f 118 162 119
f 118 120 161
f 119 162 163
f 119 163 124
f 121 123 165
f 121 165 164
f 124 163 125
f 125 166 129
f 125 129 128
f 125 128 126
f 125 163 166
f 126 128 127
f 129 166 167
f 129 167 130
f 130 167 168
f 130 168 131
f 131 168 169
f 131 169 170
f 131 170 132
f 132 170 133
f 133 170 171
f 133 171 134
f 134 171 172
f 134 172 173
f 134 173 135
f 135 173 138
f 136 174 137
f 137 174 175
f 138 173 176
f 138 176 177
f 138 177 139
f 139 177 178
f 139 178 179
f 139 179 180
f 139 180 141
f 139 141 140
f 141 180 142
f 142 181 143
f 142 180 181
f 143 181 144
f 144 149 145
f 144 181 182
f 144 182 149
f 148 149 183
f 148 183 184
f 148 184 185
f 148 185 150
f 149 182 183
f 150 185 186
f 150 186 151
f 151 186 187
f 151 187 152
f 152 187 188
f 152 188 154
f 153 154 155
f 154 188 156
f 154 156 155
f 156 188 189
f 156 189 157
f 157 189 190
f 157 190 191
f 157 191 158
f 158 191 159
f 159 191 192
f 159 192 193
f 159 193 194
f 159 194 160
f 160 194 161
f 161 194 195
f 161 195 162
f 162 195 194
f 162 194 163
f 163 194 196
f 163 196 197
f 163 197 166
f 164 165 199
f 164 199 198
f 166 197 200
f 166 200 167
f 167 201 168
f 167 200 202
f 167 202 201
f 168 201 169
f 169 203 170
f 169 201 204
f 169 204 203
f 170 205 171
f 170 203 205
f 171 205 172
f 172 205 206
f 172 206 173
f 173 206 207
f 173 207 176
f 174 208 175
f 175 208 209
f 176 207 210
f 176 210 177
f 177 210 178
f 178 210 211
f 178 211 212
f 178 212 179
f 179 212 211
f 179 211 213
f 179 213 182
f 179 182 180
f 180 182 181
f 182 213 183
f 183 214 184
f 183 213 215
f 183 215 214
f 184 214 216
f 184 216 186
f 184 186 185
f 186 216 219
f 186 219 217
f 186 217 218
f 186 218 187
f 187 218 188
f 188 218 189
f 189 218 217
f 189 217 190
f 190 217 219
f 190 219 220
f 190 220 191
f 191 220 221
f 191 221 192
f 192 221 193
f 193 221 222
f 193 222 196
f 193 196 194
f 196 222 223
f 196 223 224
f 196 224 225
f 196 225 200
f 196 200 197
f 198 199 227
f 198 227 226
f 200 224 228
f 200 228 202
f 200 225 224
f 201 202 204
f 202 228 224
f 202 224 204
f 203 204 229
f 203 229 230
f 203 230 205
f 204 224 231
f 204 231 232
f 204 232 230
f 204 230 229
f 205 230 233
f 205 233 234
f 205 234 206
f 206 234 235
f 206 235 207
f 207 235 210
f 208 236 209
f 209 226 227
f 209 236 226
f 210 235 237
f 210 237 211
f 211 237 238
f 211 238 239
f 211 239 240
f 211 240 213
f 213 240 215
f 214 241 216
f 214 215 242
f 214 242 241
f 215 240 242
f 216 241 219
f 219 241 243
f 219 243 220
f 220 243 221
f 221 243 244
f 221 244 245
f 221 245 222
f 222 245 223
f 223 245 246
f 223 246 247
f 223 247 224
f 224 247 231
f 230 232 231
f 230 231 248
f 230 248 249
f 230 249 250
f 230 250 233
f 231 247 251
f 231 251 248
f 233 250 235
f 233 235 234
f 235 250 249
f 235 249 252
f 235 252 253
f 235 253 237
f 237 253 238
f 238 253 254
f 238 254 239
f 239 254 240
f 240 254 255
f 240 255 242
f 241 242 243
f 242 255 244
f 242 244 243
f 244 255 246
f 244 246 245
f 246 255 254
f 246 254 251
f 246 251 247
f 248 251 254
f 248 254 253
f 248 253 252
f 248 252 249
