v 0.030585 0.029591 0.015613
v 0.030585 0.029591 -0.000292
v 0.029718 0.029591 0.015736
v 0.030585 0.004708 0.015836
v 0.030585 0.006719 -0.000344
v 0.029682 0.029591 -0.000504
v 0.029163 0.029591 0.015811
v 0.027852 0.029591 0.015902
v 0.029163 0.004708 0.015912
v 0.023115 0.000681 0.016122
v 0.021102 -0.003354 0.016070
v 0.021102 -0.005369 0.015979
v 0.021271 -0.007327 0.015805
v 0.030585 0.003230 0.015684
v 0.030585 0.005381 -0.000223
v 0.028434 0.005623 -0.000614
v 0.029402 0.006719 -0.000498
v 0.028673 0.029591 -0.000665
v 0.027146 0.029591 0.015939
v 0.027146 0.004708 0.015989
v 0.025133 0.002693 0.016060
v 0.023115 0.002693 0.016107
v 0.021102 -0.001338 0.016102
v 0.019148 -0.007327 0.015942
v 0.004556 -0.012339 0.013632
v 0.021413 -0.007327 0.015778
v 0.030585 0.002927 0.015576
v 0.022202 -0.007327 0.015586
v 0.030585 0.004749 -0.000145
v 0.023115 0.003276 -0.000690
v 0.025073 0.004700 -0.000722
v 0.027146 0.005377 -0.000666
v 0.023115 0.004708 -0.000837
v 0.025133 0.006719 -0.000820
v 0.027146 0.006719 -0.000710
v 0.027146 0.029591 -0.000793
v 0.015057 -0.007327 -0.000046
v 0.025839 0.029591 0.015905
v -0.016264 0.006719 0.014939
v 0.019088 -0.007327 0.015939
v 0.025765 -0.007327 0.008478
v 0.025724 -0.007327 0.010495
v 0.025068 -0.007327 0.012508
v 0.024376 -0.007327 0.013727
v 0.024344 -0.007327 0.013772
v 0.023165 -0.007327 0.014828
v 0.023041 -0.007327 0.014932
v 0.004478 -0.012339 0.013627
v 0.004556 -0.012339 0.000971
v 0.030585 0.002217 0.015300
v 0.030585 0.003386 0.000485
v 0.019226 -0.007327 0.001131
v 0.019194 -0.007327 0.001119
v 0.018584 -0.007327 0.000907
v 0.017075 -0.007327 0.000389
v 0.023115 0.016792 -0.000857
v 0.020460 0.001449 -0.000638
v 0.021120 0.002619 -0.000710
v -0.016264 0.006719 -0.001101
v 0.025133 0.029591 -0.000783
v 0.025133 0.026870 -0.000818
v 0.002969 -0.012339 0.000709
v -0.016264 0.004716 -0.000899
v 0.025133 0.029591 0.015873
v -0.016264 0.007635 0.014912
v -0.016264 0.005623 0.014828
v -0.016264 0.004704 0.014676
v 0.003795 -0.012339 0.013565
v 0.030585 -0.001794 0.008478
v 0.025752 -0.007327 0.008414
v 0.030585 -0.001506 0.006480
v 0.030585 -0.001732 0.007919
v 0.030585 -0.001679 0.010495
v 0.030585 -0.000965 0.012376
v 0.030585 -0.000493 0.013103
v 0.030585 0.000735 0.014271
v 0.020895 -0.007327 0.001928
v 0.020936 -0.007327 0.001952
v 0.022592 -0.007327 0.002997
v 0.022647 -0.007327 0.003033
v 0.023647 -0.007327 0.003955
v 0.024486 -0.007327 0.004956
v 0.025252 -0.007327 0.006464
v 0.030585 0.002717 0.000824
v -0.016264 0.008657 -0.000818
v 0.023642 0.029591 -0.000656
v 0.001456 -0.012339 0.001099
v -0.016264 0.003666 -0.000602
v 0.023963 0.029591 0.015736
v -0.015163 0.008727 0.014858
v -0.016264 0.008727 0.014667
v -0.016264 0.003608 0.014376
v 0.002786 -0.012339 0.013297
v -0.016264 0.002693 0.014104
v -0.016264 0.001391 0.013642
v 0.030585 -0.000751 0.004629
v 0.030585 0.001999 0.001330
v 0.030585 0.001781 0.001514
v 0.030585 0.000817 0.002500
v 0.030585 0.000090 0.003367
v 0.030585 -0.000164 0.003700
v -0.016264 0.009687 -0.000528
v -0.016145 0.009724 -0.000579
v 0.022633 0.029591 -0.000499
v 0.000447 -0.012339 0.001858
v -0.016264 -0.000213 0.002443
v -0.016264 0.000353 0.001908
v -0.016264 0.000940 0.001401
v -0.016264 0.001289 0.001104
v -0.016264 0.002557 0.000156
v 0.023404 0.029591 0.015659
v 0.022748 0.029591 0.015548
v -0.016264 0.009617 0.014317
v 0.022395 0.029591 0.015478
v 0.000956 -0.012339 0.012720
v -0.016264 0.000841 0.013396
v -0.016264 0.009765 -0.000413
v 0.013241 0.029591 0.002690
v 0.015012 0.029591 0.001880
v 0.019088 0.029591 0.000495
v 0.021102 0.029591 -0.000150
v -0.000603 -0.012339 0.002866
v -0.016264 -0.001810 0.004284
v -0.016264 -0.000768 0.002991
v -0.015063 0.010775 0.014067
v -0.016264 0.010356 0.013914
v 0.021597 0.029591 0.015259
v 0.021102 0.029591 0.015118
v -0.000860 -0.012339 0.011933
v -0.016264 0.000382 0.013175
v -0.016264 0.010385 0.000602
v -0.014411 0.011900 0.001166
v 0.012127 0.029591 0.004452
v -0.001149 -0.012339 0.003496
v -0.016264 -0.002463 0.005278
v 0.015566 0.029591 0.013324
v -0.014324 0.011846 0.013626
v -0.016264 0.010869 0.013030
v 0.013553 0.029591 0.012616
v -0.001869 -0.012339 0.011348
v -0.016264 -0.000579 0.012577
v -0.016264 -0.001305 0.012123
v -0.016264 0.011194 0.002438
v 0.011801 0.029591 0.006091
v -0.016264 0.011534 0.004452
v -0.001612 -0.012339 0.004043
v -0.016264 -0.002643 0.005676
v -0.002007 -0.012339 0.004589
v -0.002337 -0.012339 0.005049
v -0.016264 0.011083 0.012509
v 0.013283 0.029591 0.012454
v 0.013108 0.029591 0.012348
v 0.012026 0.029591 0.010731
v -0.002250 -0.012339 0.010886
v -0.016264 -0.002061 0.011486
v -0.016264 -0.002221 0.011331
v -0.016264 -0.002541 0.010850
v 0.011742 0.029591 0.006949
v -0.016264 0.011637 0.006467
v -0.016264 -0.002980 0.006445
v -0.002690 -0.012339 0.005820
v -0.016264 0.011337 0.011022
v 0.011925 0.029591 0.010495
v -0.002649 -0.012339 0.010340
v -0.016264 -0.002795 0.010397
v 0.011723 0.029591 0.008529
v -0.016264 0.011571 0.008478
v -0.016264 -0.003152 0.007386
v -0.002970 -0.012339 0.006467
v -0.016264 0.011423 0.010495
v 0.011824 0.029591 0.009573
v -0.016264 0.011547 0.008834
v -0.003286 -0.012339 0.008478
v -0.016264 -0.003169 0.009232
v -0.016264 -0.003321 0.008478
v -0.003153 -0.012339 0.007556
f 1 2 6
f 1 6 18
f 1 18 36
f 1 36 60
f 1 60 86
f 1 86 104
f 1 104 121
f 1 121 120
f 1 120 119
f 1 119 118
f 1 118 133
f 1 133 144
f 1 144 158
f 1 158 166
f 1 166 171
f 1 171 163
f 1 163 153
f 1 153 152
f 1 152 151
f 1 151 139
f 1 139 136
f 1 136 128
f 1 128 127
f 1 127 114
f 1 114 112
f 1 112 111
f 1 111 89
f 1 89 64
f 1 64 38
f 1 38 19
f 1 19 8
f 1 8 7
f 1 7 3
f 1 3 4
f 1 4 14
f 1 14 27
f 1 27 50
f 1 50 76
f 1 76 75
f 1 75 74
f 1 74 73
f 1 73 69
f 1 69 72
f 1 72 71
f 1 71 96
f 1 96 101
f 1 101 100
f 1 100 99
f 1 99 98
f 1 98 97
f 1 97 84
f 1 84 51
f 1 51 29
f 1 29 15
f 1 15 5
f 1 5 2
f 2 5 6
f 3 7 4
f 4 7 8
f 4 8 9
f 4 9 10
f 4 10 11
f 4 11 12
f 4 12 13
f 4 13 14
f 5 15 16
f 5 16 17
f 5 17 18
f 5 18 6
f 8 19 9
f 9 19 20
f 9 20 21
f 9 21 10
f 10 21 19
f 10 19 22
f 10 22 23
f 10 23 11
f 11 23 24
f 11 24 12
f 12 24 13
f 13 24 25
f 13 25 26
f 13 26 14
f 14 26 28
f 14 28 27
f 15 29 16
f 16 30 31
f 16 31 32
f 16 32 33
f 16 33 34
f 16 34 35
f 16 35 36
f 16 36 18
f 16 18 17
f 16 29 37
f 16 37 30
f 19 38 23
f 19 23 22
f 19 21 20
f 23 38 39
f 23 39 24
f 24 39 40
f 24 40 25
f 25 41 42
f 25 42 43
f 25 43 44
f 25 44 45
f 25 45 46
f 25 46 47
f 25 47 28
f 25 28 26
f 25 40 48
f 25 48 68
f 25 68 93
f 25 93 115
f 25 115 129
f 25 129 140
f 25 140 154
f 25 154 164
f 25 164 173
f 25 173 176
f 25 176 169
f 25 169 161
f 25 161 149
f 25 149 148
f 25 148 146
f 25 146 134
f 25 134 122
f 25 122 105
f 25 105 87
f 25 87 62
f 25 62 49
f 25 49 41
f 27 28 50
f 28 47 50
f 29 51 52
f 29 52 53
f 29 53 54
f 29 54 55
f 29 55 37
f 30 33 31
f 30 37 33
f 31 33 32
f 33 56 34
f 33 37 57
f 33 57 58
f 33 58 59
f 33 59 56
f 34 56 36
f 34 36 35
f 36 56 61
f 36 61 59
f 36 59 60
f 37 55 49
f 37 49 62
f 37 62 63
f 37 63 59
f 37 59 57
f 38 64 65
f 38 65 39
f 39 65 91
f 39 91 113
f 39 113 126
f 39 126 138
f 39 138 150
f 39 150 162
f 39 162 170
f 39 170 172
f 39 172 167
f 39 167 159
f 39 159 145
f 39 145 143
f 39 143 131
f 39 131 117
f 39 117 102
f 39 102 85
f 39 85 59
f 39 59 63
f 39 63 88
f 39 88 110
f 39 110 109
f 39 109 108
f 39 108 107
f 39 107 106
f 39 106 124
f 39 124 123
f 39 123 135
f 39 135 147
f 39 147 160
f 39 160 168
f 39 168 175
f 39 175 174
f 39 174 165
f 39 165 157
f 39 157 156
f 39 156 155
f 39 155 142
f 39 142 141
f 39 141 130
f 39 130 116
f 39 116 95
f 39 95 94
f 39 94 92
f 39 92 67
f 39 67 66
f 39 66 40
f 40 66 67
f 40 67 68
f 40 68 48
f 41 69 42
f 41 49 70
f 41 70 71
f 41 71 72
f 41 72 69
f 42 69 73
f 42 73 43
f 43 73 74
f 43 74 75
f 43 75 44
f 44 75 45
f 45 75 76
f 45 76 46
f 46 76 47
f 47 76 50
f 49 55 54
f 49 54 53
f 49 53 52
f 49 52 77
f 49 77 78
f 49 78 79
f 49 79 80
f 49 80 81
f 49 81 82
f 49 82 83
f 49 83 70
f 51 84 52
f 52 84 77
f 56 59 61
f 57 59 58
f 59 85 60
f 60 85 86
f 62 87 88
f 62 88 63
f 64 89 90
f 64 90 65
f 65 90 91
f 67 92 68
f 68 92 94
f 68 94 95
f 68 95 93
f 70 83 71
f 71 83 96
f 77 84 78
f 78 84 97
f 78 97 79
f 79 97 80
f 80 97 98
f 80 98 81
f 81 98 99
f 81 99 100
f 81 100 82
f 82 100 101
f 82 101 96
f 82 96 83
f 85 102 103
f 85 103 86
f 86 103 104
f 87 105 106
f 87 106 107
f 87 107 108
f 87 108 109
f 87 109 110
f 87 110 88
f 89 111 90
f 90 111 112
f 90 112 91
f 91 112 114
f 91 114 113
f 93 95 116
f 93 116 115
f 102 117 118
f 102 118 103
f 103 118 119
f 103 119 120
f 103 120 121
f 103 121 104
f 105 122 123
f 105 123 124
f 105 124 106
f 113 125 126
f 113 114 127
f 113 127 128
f 113 128 125
f 115 116 130
f 115 130 129
f 117 131 132
f 117 132 118
f 118 132 133
f 122 134 135
f 122 135 123
f 125 128 136
f 125 136 126
f 126 137 138
f 126 136 139
f 126 139 137
f 129 130 141
f 129 141 142
f 129 142 140
f 131 143 132
f 132 143 133
f 133 143 145
f 133 145 144
f 134 146 135
f 135 146 148
f 135 148 149
f 135 149 147
f 137 150 138
f 137 139 151
f 137 151 152
f 137 152 153
f 137 153 150
f 140 142 155
f 140 155 156
f 140 156 157
f 140 157 154
f 144 145 159
f 144 159 158
f 147 149 160
f 149 161 160
f 150 153 163
f 150 163 162
f 154 157 165
f 154 165 164
f 158 159 166
f 159 167 166
f 160 161 169
f 160 169 168
f 162 163 170
f 163 171 172
f 163 172 170
f 164 165 174
f 164 174 173
f 166 167 171
f 167 172 171
f 168 169 175
f 169 176 175
f 173 174 175
f 173 175 176
