v 0.011724 0.029591 0.008530
v 0.011747 0.029591 0.006946
v 0.011830 0.029591 0.009573
v 0.046131 0.127125 0.009749
v 0.011807 0.029591 0.006090
v 0.046149 0.127062 0.008480
v 0.011926 0.029591 0.010496
v 0.047546 0.129642 0.010243
v 0.047905 0.131221 0.009954
v 0.047082 0.129642 0.008480
v 0.012027 0.029591 0.010731
v 0.013107 0.029591 0.012350
v 0.012133 0.029591 0.004451
v 0.046264 0.126704 0.007439
v 0.049315 0.129642 0.011045
v 0.021839 0.048616 0.013748
v 0.022946 0.049195 0.014257
v 0.025984 0.050321 0.015586
v 0.047859 0.131337 0.008480
v 0.049182 0.131800 0.010349
v 0.051747 0.135337 0.009966
v 0.049766 0.133253 0.009927
v 0.049587 0.133442 0.008480
v 0.048580 0.132347 0.008480
v 0.048116 0.131000 0.007290
v 0.013557 0.029591 0.012618
v 0.021568 0.047026 0.013906
v 0.013245 0.029591 0.002688
v 0.021921 0.048489 0.001282
v 0.051333 0.131652 0.011023
v 0.051177 0.133821 0.010364
v 0.027133 0.051016 0.015739
v 0.029169 0.051058 0.016075
v 0.015570 0.029591 0.013323
v 0.021108 0.029591 0.015118
v 0.021604 0.029591 0.015259
v 0.022399 0.029591 0.015479
v 0.023796 0.034939 0.015618
v 0.025138 0.034939 0.015843
v 0.053153 0.135885 0.010280
v 0.053695 0.137011 0.009842
v 0.052546 0.136517 0.008480
v 0.051558 0.135506 0.008480
v 0.049904 0.133116 0.007219
v 0.054619 0.134232 0.005588
v 0.054260 0.132884 0.005398
v 0.047845 0.129642 0.007100
v 0.021705 0.047026 0.001159
v 0.015014 0.029591 0.001879
v 0.022983 0.049111 0.000872
v 0.053346 0.133674 0.010926
v 0.031186 0.051058 0.016150
v 0.025138 0.032918 0.015863
v 0.027156 0.034939 0.016003
v 0.027156 0.032918 0.016004
v 0.022753 0.029591 0.015549
v 0.023406 0.029591 0.015662
v 0.054876 0.137011 0.009842
v 0.055474 0.137138 0.008557
v 0.053553 0.137106 0.008480
v 0.053943 0.136927 0.007250
v 0.051889 0.135116 0.007223
v 0.055965 0.135032 0.005284
v 0.055322 0.133611 0.005188
v 0.028056 0.052111 -0.000615
v 0.026820 0.051058 -0.000370
v 0.021108 0.036950 0.000400
v 0.021108 0.034939 0.000239
v 0.019095 0.029591 0.000494
v 0.025138 0.049047 0.000018
v 0.055533 0.133632 0.010055
v 0.055474 0.135611 0.010023
v 0.033199 0.049047 0.016056
v 0.035253 0.048911 0.015758
v 0.036264 0.048152 0.015559
v 0.036264 0.047742 0.015559
v 0.029169 0.032918 0.015944
v 0.023971 0.029591 0.015737
v 0.025138 0.029591 0.015873
v 0.025846 0.029591 0.015907
v 0.027156 0.029591 0.015941
v 0.056218 0.136232 0.009281
v 0.056710 0.136896 0.007938
v 0.056710 0.136896 0.007107
v 0.055363 0.137022 0.007030
v 0.053300 0.135748 0.006863
v 0.056917 0.135032 0.005284
v 0.055363 0.131652 0.004926
v 0.029169 0.051058 -0.000859
v 0.027827 0.051058 -0.000659
v 0.021108 0.029591 -0.000150
v 0.021108 0.030907 -0.000058
v 0.021108 0.032918 0.000090
v 0.057247 0.133632 0.009064
v 0.056494 0.134285 0.009536
v 0.056494 0.134895 0.009536
v 0.037225 0.045015 0.014838
v 0.031278 0.032992 0.015677
v 0.032252 0.033708 0.015549
v 0.031586 0.029591 0.015400
v 0.032091 0.029591 0.015252
v 0.033199 0.029591 0.014916
v 0.035212 0.034939 0.014698
v 0.027859 0.029591 0.015905
v 0.029169 0.029591 0.015811
v 0.058571 0.135000 0.007799
v 0.058571 0.135000 0.006931
v 0.057486 0.135685 0.006346
v 0.058258 0.134221 0.005588
v 0.057505 0.133600 0.005212
v 0.055363 0.129642 0.004758
v 0.031186 0.051058 -0.000968
v 0.029169 0.042994 -0.001000
v 0.023649 0.029591 -0.000657
v 0.022643 0.029591 -0.000501
v 0.038622 0.042994 0.013889
v 0.056043 0.127631 0.009367
v 0.057376 0.131652 0.008823
v 0.058612 0.131652 0.007882
v 0.058672 0.133674 0.007973
v 0.036990 0.036950 0.014027
v 0.038470 0.040983 0.013740
v 0.029725 0.029591 0.015737
v 0.030579 0.029591 0.015617
v 0.030933 0.029591 0.015546
v 0.033907 0.029591 0.014628
v 0.035212 0.032918 0.014451
v 0.058626 0.133600 0.006341
v 0.058405 0.132874 0.005438
v 0.057509 0.131758 0.005176
v 0.034564 0.050395 -0.000694
v 0.055363 0.127631 0.004701
v 0.033162 0.051058 -0.000797
v 0.034587 0.049047 -0.000686
v 0.031186 0.042994 -0.000904
v 0.027156 0.029591 -0.000795
v 0.025138 0.029591 -0.000787
v 0.056774 0.119566 0.008042
v 0.056935 0.121577 0.008178
v 0.057082 0.123598 0.008267
v 0.058488 0.129642 0.007674
v 0.058415 0.128420 0.007535
v 0.058415 0.128420 0.007318
v 0.058488 0.129642 0.007018
v 0.058580 0.131758 0.006395
v 0.056632 0.117555 0.007864
v 0.036521 0.032918 0.013765
v 0.036324 0.030907 0.013610
v 0.036223 0.029865 0.013523
v 0.038328 0.039530 0.013610
v 0.035281 0.029591 0.013995
v 0.035212 0.030907 0.014196
v 0.058405 0.132484 0.005438
v 0.057151 0.129642 0.005094
v 0.035593 0.049047 -0.000416
v 0.031186 0.029591 -0.000155
v 0.031186 0.030907 -0.000248
v 0.029688 0.029591 -0.000505
v 0.030074 0.032181 -0.000573
v 0.030281 0.033529 -0.000607
v 0.028681 0.029591 -0.000666
v 0.056503 0.115913 0.007673
v 0.056724 0.117555 0.006467
v 0.056388 0.116450 0.005440
v 0.035598 0.029591 0.013827
v 0.035910 0.029591 0.013657
v 0.036186 0.029591 0.013484
v 0.038167 0.038182 0.013434
v 0.054407 0.104153 0.007560
v 0.056462 0.117555 0.005359
v 0.056595 0.119566 0.005237
v 0.056701 0.121577 0.005166
v 0.056815 0.123598 0.005124
v 0.037225 0.047026 0.000286
v 0.033199 0.032918 0.000177
v 0.033199 0.030907 0.000365
v 0.033199 0.029591 0.000493
v 0.055359 0.109490 0.006467
v 0.056480 0.116007 0.006467
v 0.054366 0.104416 0.005448
v 0.054591 0.107479 0.005213
v 0.054775 0.109490 0.005092
v 0.036351 0.029591 0.013206
v 0.036710 0.029591 0.012573
v 0.038525 0.036950 0.012147
v 0.038691 0.038898 0.012662
v 0.052367 0.094245 0.007520
v 0.052367 0.094245 0.007184
v 0.054398 0.104195 0.006467
v 0.038668 0.045015 0.001092
v 0.037225 0.045015 0.000471
v 0.038507 0.042994 0.001238
v 0.034738 0.029591 0.001151
v 0.052519 0.095298 0.006494
v 0.052280 0.094572 0.005841
v 0.050336 0.086275 0.005447
v 0.038314 0.035603 0.003278
v 0.038484 0.036950 0.002996
v 0.038727 0.038972 0.002640
v 0.038884 0.040867 0.002254
v 0.038185 0.040119 0.001460
v 0.038341 0.041456 0.001350
v 0.036926 0.029591 0.012000
v 0.038208 0.034045 0.011383
v 0.038350 0.035392 0.011774
v 0.037491 0.029591 0.010496
v 0.037532 0.029591 0.009790
v 0.037882 0.030907 0.008480
v 0.040276 0.041878 0.005316
v 0.036282 0.033634 0.001382
v 0.036103 0.032286 0.001503
v 0.035915 0.030907 0.001661
v 0.035740 0.029591 0.001931
v 0.039941 0.041120 0.004567
v 0.040161 0.042994 0.003897
v 0.038153 0.034255 0.003845
v 0.037473 0.030907 0.004451
v 0.036549 0.029591 0.002939
v 0.036756 0.030907 0.002668
v 0.037569 0.029591 0.008480
v 0.037514 0.029591 0.007775
v 0.037725 0.030907 0.006467
v 0.038286 0.033697 0.005188
v 0.037987 0.032981 0.004490
v 0.037220 0.029591 0.005761
v 0.037022 0.029591 0.004451
f 1 2 5
f 1 5 13
f 1 13 28
f 1 28 49
f 1 49 69
f 1 69 91
f 1 91 115
f 1 115 114
f 1 114 137
f 1 137 136
f 1 136 161
f 1 161 158
f 1 158 156
f 1 156 177
f 1 177 193
f 1 193 213
f 1 213 218
f 1 218 226
f 1 226 225
f 1 225 221
f 1 221 220
f 1 220 207
f 1 207 206
f 1 206 203
f 1 203 184
f 1 184 183
f 1 183 167
f 1 167 166
f 1 166 165
f 1 165 151
f 1 151 126
f 1 126 102
f 1 102 101
f 1 101 100
f 1 100 125
f 1 125 124
f 1 124 123
f 1 123 105
f 1 105 104
f 1 104 81
f 1 81 80
f 1 80 79
f 1 79 78
f 1 78 57
f 1 57 56
f 1 56 37
f 1 37 36
f 1 36 35
f 1 35 34
f 1 34 26
f 1 26 12
f 1 12 11
f 1 11 7
f 1 7 3
f 1 3 4
f 1 4 2
f 2 4 6
f 2 6 5
f 3 7 4
f 4 8 9
f 4 9 10
f 4 10 6
f 4 7 11
f 4 11 12
f 4 12 8
f 5 6 13
f 6 10 14
f 6 14 13
f 8 15 9
f 8 12 16
f 8 16 17
f 8 17 18
f 8 18 15
f 9 19 10
f 9 15 20
f 9 20 21
f 9 21 22
f 9 22 23
f 9 23 24
f 9 24 19
f 10 19 25
f 10 25 14
f 12 26 27
f 12 27 16
f 13 14 28
f 14 25 29
f 14 29 28
f 15 30 31
f 15 31 20
f 15 18 32
f 15 32 33
f 15 33 30
f 16 27 17
f 17 27 26
f 17 26 18
f 18 26 34
f 18 34 35
f 18 35 36
f 18 36 37
f 18 37 38
f 18 38 39
f 18 39 33
f 18 33 32
f 19 24 25
f 20 31 21
f 21 40 41
f 21 41 42
f 21 42 43
f 21 43 23
f 21 23 22
f 21 31 40
f 23 44 24
f 23 43 44
f 24 44 25
f 25 44 45
f 25 45 46
f 25 46 47
f 25 47 29
f 28 29 48
f 28 48 49
f 29 50 48
f 29 47 50
f 30 51 40
f 30 40 31
f 30 33 52
f 30 52 51
f 33 39 53
f 33 53 54
f 33 54 55
f 33 55 52
f 37 56 38
f 38 56 57
f 38 57 39
f 39 57 53
f 40 58 41
f 40 51 58
f 41 58 59
f 41 59 60
f 41 60 42
f 42 60 61
f 42 61 62
f 42 62 44
f 42 44 43
f 44 62 63
f 44 63 45
f 45 63 46
f 46 63 64
f 46 64 65
f 46 65 66
f 46 66 47
f 47 66 50
f 48 50 49
f 49 67 68
f 49 68 69
f 49 50 70
f 49 70 67
f 50 66 70
f 51 71 72
f 51 72 58
f 51 52 73
f 51 73 74
f 51 74 75
f 51 75 76
f 51 76 71
f 52 55 77
f 52 77 73
f 53 57 78
f 53 78 79
f 53 79 54
f 54 79 55
f 55 79 80
f 55 80 81
f 55 81 77
f 58 72 82
f 58 82 83
f 58 83 59
f 59 83 84
f 59 84 85
f 59 85 60
f 60 85 61
f 61 86 62
f 61 85 63
f 61 63 86
f 62 86 63
f 63 85 87
f 63 87 88
f 63 88 64
f 64 88 65
f 65 89 90
f 65 90 66
f 65 88 89
f 66 90 91
f 66 91 92
f 66 92 93
f 66 93 68
f 66 68 70
f 67 70 68
f 68 93 69
f 69 93 92
f 69 92 91
f 71 94 95
f 71 95 96
f 71 96 72
f 71 76 97
f 71 97 94
f 72 96 82
f 73 77 98
f 73 98 74
f 74 98 76
f 74 76 75
f 76 98 99
f 76 99 100
f 76 100 101
f 76 101 102
f 76 102 103
f 76 103 97
f 77 81 104
f 77 104 105
f 77 105 98
f 82 96 106
f 82 106 83
f 83 106 107
f 83 107 84
f 84 107 108
f 84 108 87
f 84 87 85
f 87 108 109
f 87 109 110
f 87 110 111
f 87 111 88
f 88 111 112
f 88 112 89
f 89 112 113
f 89 113 114
f 89 114 90
f 90 114 115
f 90 115 91
f 94 97 116
f 94 116 117
f 94 117 118
f 94 118 119
f 94 119 120
f 94 120 96
f 94 96 95
f 96 120 106
f 97 103 121
f 97 121 122
f 97 122 116
f 98 105 123
f 98 123 124
f 98 124 99
f 99 124 125
f 99 125 100
f 102 126 103
f 103 126 127
f 103 127 121
f 106 120 107
f 107 120 128
f 107 128 109
f 107 109 108
f 109 128 129
f 109 129 110
f 110 129 130
f 110 130 131
f 110 131 132
f 110 132 111
f 111 132 131
f 111 131 133
f 111 133 112
f 112 133 131
f 112 131 134
f 112 134 135
f 112 135 113
f 113 135 136
f 113 136 137
f 113 137 114
f 116 122 138
f 116 138 139
f 116 139 140
f 116 140 118
f 116 118 117
f 118 140 119
f 119 141 142
f 119 142 143
f 119 143 144
f 119 144 145
f 119 145 120
f 119 140 139
f 119 139 138
f 119 138 146
f 119 146 141
f 120 145 128
f 121 127 147
f 121 147 122
f 122 147 148
f 122 148 149
f 122 149 150
f 122 150 146
f 122 146 138
f 126 151 152
f 126 152 127
f 127 152 151
f 127 151 147
f 128 145 153
f 128 153 129
f 129 153 130
f 130 153 154
f 130 154 155
f 130 155 134
f 130 134 131
f 134 155 156
f 134 156 157
f 134 157 158
f 134 158 159
f 134 159 160
f 134 160 161
f 134 161 135
f 135 161 136
f 141 146 142
f 142 146 162
f 142 162 143
f 143 163 164
f 143 164 144
f 143 162 163
f 144 164 153
f 144 153 145
f 146 150 162
f 147 151 165
f 147 165 148
f 148 165 166
f 148 166 149
f 149 166 167
f 149 167 168
f 149 168 150
f 150 168 169
f 150 169 162
f 153 164 170
f 153 170 171
f 153 171 172
f 153 172 173
f 153 173 155
f 153 155 154
f 155 174 175
f 155 175 156
f 155 173 174
f 156 175 176
f 156 176 177
f 156 158 157
f 158 161 159
f 159 161 160
f 162 169 178
f 162 178 179
f 162 179 163
f 163 179 164
f 164 179 180
f 164 180 181
f 164 181 182
f 164 182 170
f 167 183 168
f 168 183 184
f 168 184 185
f 168 185 186
f 168 186 169
f 169 187 188
f 169 188 189
f 169 189 178
f 169 186 185
f 169 185 187
f 170 182 190
f 170 190 171
f 171 190 172
f 172 190 174
f 172 174 173
f 174 190 191
f 174 191 175
f 175 191 176
f 176 191 177
f 177 192 193
f 177 191 192
f 178 189 180
f 178 180 179
f 180 189 188
f 180 188 194
f 180 194 195
f 180 195 196
f 180 196 197
f 180 197 198
f 180 198 199
f 180 199 200
f 180 200 201
f 180 201 202
f 180 202 192
f 180 192 190
f 180 190 181
f 181 190 182
f 184 203 204
f 184 204 205
f 184 205 185
f 185 205 187
f 187 205 204
f 187 204 206
f 187 206 207
f 187 207 208
f 187 208 188
f 188 208 209
f 188 209 195
f 188 195 194
f 190 192 191
f 192 202 193
f 193 210 211
f 193 211 212
f 193 212 213
f 193 202 210
f 195 209 196
f 196 209 214
f 196 214 215
f 196 215 197
f 197 215 214
f 197 214 216
f 197 216 217
f 197 217 218
f 197 218 219
f 197 219 198
f 198 219 201
f 198 201 199
f 199 201 200
f 201 219 212
f 201 212 211
f 201 211 210
f 201 210 202
f 203 206 204
f 207 220 208
f 208 220 209
f 209 220 221
f 209 221 222
f 209 222 223
f 209 223 224
f 209 224 214
f 212 219 213
f 213 219 218
f 214 224 216
f 216 224 217
f 217 224 223
f 217 223 222
f 217 222 221
f 217 221 225
f 217 225 226
f 217 226 218
