v -0.010209 -0.051073 0.016511
v -0.010152 -0.051027 0.018517
v -0.010209 -0.050752 0.021554
v -0.010209 -0.050871 0.008862
v 0.019479 -0.044641 0.008102
v -0.002043 -0.049272 0.018028
v -0.009850 -0.050843 0.020393
v -0.010209 -0.050265 0.023515
v 0.021523 -0.043778 0.021907
v 0.021539 -0.043539 0.023026
v -0.010209 -0.049162 0.001858
v -0.009961 -0.050733 0.007752
v -0.005499 -0.049713 0.007384
v -0.009317 -0.048767 0.001162
v -0.004528 -0.047683 0.001329
v 0.007309 -0.044678 0.001298
v 0.015274 -0.042648 0.001314
v 0.019711 -0.041609 0.001572
v 0.021130 -0.041426 0.002709
v -0.010209 -0.049741 0.025318
v 0.021825 -0.040249 0.002478
v 0.021980 -0.042262 0.024637
v 0.021361 -0.042115 0.025588
v -0.006762 -0.048767 0.025743
v -0.010190 -0.045643 -0.000544
v -0.010171 -0.047159 -0.000289
v -0.010171 -0.048372 0.000420
v -0.010209 -0.038531 -0.000824
v -0.007476 -0.047692 0.000313
v 0.003282 -0.045689 0.001286
v 0.019822 -0.040350 0.000341
v 0.020568 -0.040883 0.001043
v 0.004424 -0.044605 0.000356
v 0.021580 -0.039496 0.000940
v -0.008111 -0.048666 0.026178
v -0.010205 -0.048804 0.026406
v -0.010209 -0.046690 0.027160
v 0.021882 -0.038596 0.001642
v 0.022082 -0.038568 0.002867
v 0.022209 -0.041095 0.025105
v 0.021885 -0.040543 0.026485
v 0.020619 -0.041370 0.026765
v 0.016890 -0.042565 0.026561
v -0.008616 -0.046148 -0.000447
v -0.010190 -0.040553 -0.000766
v -0.009120 -0.045138 -0.000553
v 0.019181 -0.037557 -0.000371
v -0.008616 -0.047159 -0.000112
v -0.007102 -0.046148 -0.000331
v 0.019181 -0.039073 -0.000200
v -0.010209 -0.036978 -0.000860
v -0.008616 -0.029977 -0.001018
v 0.001241 -0.026439 -0.001046
v 0.003263 -0.026439 -0.001027
v -0.003033 -0.046516 0.000316
v 0.020565 -0.039239 0.000049
v 0.020590 -0.037125 0.000067
v -0.005934 -0.047692 0.026637
v 0.017160 -0.041095 0.027385
v 0.017664 -0.040093 0.027598
v 0.014507 -0.040690 0.027576
v 0.017160 -0.039073 0.027756
v 0.015643 -0.039073 0.027780
v -0.010209 -0.045138 0.027351
v 0.021783 -0.036914 0.002450
v 0.004554 0.032834 0.000307
v 0.003491 0.037621 0.000383
v 0.004957 0.033698 0.001408
v 0.005532 0.033174 0.002511
v 0.021752 -0.036795 0.026680
v 0.022053 -0.038568 0.026525
v 0.021031 -0.038063 0.027534
v 0.020641 -0.039569 0.027494
v 0.018676 -0.041297 0.027136
v 0.015541 -0.042565 0.026823
v 0.018172 -0.033514 -0.000574
v 0.018676 -0.035536 -0.000477
v 0.019181 -0.034020 -0.000389
v -0.010209 -0.029940 -0.000988
v -0.010209 -0.026945 -0.000979
v -0.010190 0.015036 -0.000796
v 0.007049 -0.014807 -0.000915
v 0.005535 -0.025934 -0.001009
v -0.007606 0.016010 -0.000781
v -0.006089 0.016010 -0.000775
v 0.016538 -0.023279 -0.000647
v 0.016309 -0.021377 -0.000504
v 0.013919 -0.008743 -0.000039
v 0.016906 -0.037557 0.027911
v 0.015392 -0.036547 0.028029
v 0.014380 -0.035536 0.028121
v 0.012104 -0.034020 0.028254
v -0.010209 -0.043677 0.027464
v 0.004986 0.035719 0.003372
v 0.004643 0.037244 0.003879
v 0.009895 0.008430 -0.000024
v 0.004672 0.031676 0.000183
v 0.004466 0.035921 0.001481
v 0.003383 0.035471 -0.000042
v 0.002384 0.039266 0.000012
v 0.003355 0.039238 0.000900
v 0.004554 0.036923 0.002338
v 0.004116 0.039266 0.003372
v 0.019686 -0.031502 0.027634
v 0.005640 0.032604 0.011966
v 0.004764 0.035921 0.018535
v 0.004488 0.036592 0.023588
v 0.004367 0.036528 0.025628
v 0.004500 0.035131 0.026528
v 0.003653 0.038154 0.026826
v 0.019809 -0.033009 0.027710
v 0.018575 -0.029720 0.028005
v 0.017160 -0.028461 0.028373
v 0.017670 -0.029545 -0.000672
v -0.010209 0.020090 -0.000732
v -0.010171 0.018537 -0.000757
v 0.011092 -0.023913 -0.000909
v 0.009070 -0.024418 -0.000948
v 0.006563 0.016295 -0.000675
v 0.001495 0.035214 -0.000483
v 0.015576 -0.020504 -0.000717
v 0.014586 -0.014945 -0.000659
v 0.013418 -0.009754 -0.000620
v 0.015643 -0.034020 0.028194
v 0.013621 -0.033514 0.028285
v 0.012609 -0.030225 0.028507
v 0.010083 -0.028590 0.028610
v -0.010209 -0.042179 0.027543
v 0.008061 -0.025934 0.028744
v 0.007049 -0.024923 0.028780
v 0.004472 0.037327 0.015501
v 0.003837 0.040184 0.006409
v 0.003520 0.040240 0.001833
v 0.005030 0.026623 -0.000346
v 0.003012 0.034203 -0.000368
v 0.000991 0.039266 -0.000246
v 0.000845 0.041067 0.000183
v 0.002476 0.041361 0.001010
v 0.001495 0.037244 -0.000374
v 0.003225 0.041260 0.003372
v 0.012463 -0.006722 0.028537
v 0.009588 -0.002431 0.029659
v 0.004015 0.038255 0.023588
v 0.003802 0.038760 0.025105
v 0.004053 0.037750 0.025613
v 0.003466 0.039477 0.026351
v 0.002327 0.041103 0.027215
v 0.011692 -0.004700 0.028716
v 0.008061 -0.000676 0.029911
v 0.015392 -0.027450 0.028540
v 0.015138 -0.021891 -0.000772
v -0.010209 0.022139 -0.000699
v 0.012104 -0.009754 -0.000775
v 0.013117 -0.013796 -0.000787
v 0.007569 0.013116 -0.000675
v 0.004021 0.028644 -0.000498
v -0.008111 0.033192 -0.000483
v -0.000025 0.035719 -0.000465
v -0.000025 0.036739 -0.000413
v 0.013567 -0.012280 -0.000723
v 0.012644 -0.007080 -0.000687
v 0.009197 0.007925 -0.000571
v 0.014126 -0.031493 0.028400
v 0.013621 -0.028966 0.028552
v 0.013117 -0.027450 0.028647
v 0.011600 -0.028488 0.028619
v 0.011092 -0.026945 0.028701
v -0.010209 -0.040755 0.027607
v 0.005535 -0.017839 0.029118
v 0.007049 0.000840 0.030012
v 0.002819 0.041397 0.025613
v 0.003428 0.039973 0.025105
v 0.008544 0.009532 -0.000675
v -0.004065 0.037750 -0.000289
v -0.002043 0.038760 -0.000240
v -0.000530 0.039266 -0.000210
v 0.001479 0.042243 0.001618
v -0.002043 0.039771 -0.000048
v -0.005709 0.039321 0.000122
v -0.007387 0.039312 0.000304
v -0.006375 0.040331 0.001256
v 0.002035 0.042307 0.002867
v 0.002076 0.042298 0.023840
v 0.008312 0.000574 0.029847
v 0.001790 0.042206 0.025552
v 0.000991 0.041590 0.026996
v 0.000991 0.040267 0.027668
v 0.007468 0.002356 0.029920
v 0.014142 -0.026394 0.028647
v -0.010209 0.024224 -0.000656
v -0.010190 0.034258 -0.000404
v -0.007353 0.035214 -0.000395
v -0.010209 0.032200 -0.000492
v -0.010209 -0.039156 0.027674
v 0.006040 0.002862 0.029960
v -0.010209 0.001851 0.028917
v -0.010171 0.000298 0.028902
v -0.010209 -0.002228 0.028859
v -0.010209 -0.006795 0.028756
v -0.010209 -0.034525 0.027850
v -0.010209 -0.037052 0.027756
v -0.010190 0.036234 -0.000264
v -0.005585 0.037750 -0.000252
v -0.004065 0.038760 -0.000179
v 0.000648 0.042472 0.002505
v 0.001384 0.042537 0.003879
v -0.007102 0.038760 0.000040
v -0.009120 0.039477 0.001040
v -0.009647 0.037924 -0.000003
v -0.010199 0.039358 0.001420
v -0.010209 0.039780 0.002867
v 0.001400 0.042647 0.022074
v -0.001485 0.041269 0.026588
v 0.000483 0.042592 0.023083
v -0.005347 0.040322 0.026674
v -0.009361 0.038981 0.026944
v -0.008111 0.038760 0.027303
v -0.008111 0.037887 0.027595
v -0.010132 0.035719 0.027747
v -0.010209 0.033128 0.027981
v -0.008616 0.030665 0.028184
v -0.009120 0.027633 0.028370
v -0.009120 0.025612 0.028492
v -0.010199 0.024077 0.028549
v -0.010209 0.018969 0.028735
v -0.010209 0.012473 0.028850
v -0.010209 0.007925 0.028920
v -0.010209 0.004856 0.028929
v -0.007625 0.041287 0.006400
v -0.002465 0.042491 0.006755
v -0.002043 0.042629 0.007923
v -0.000530 0.042684 0.007166
v -0.001034 0.042794 0.017015
v -0.010209 0.040626 0.007430
v -0.000025 0.042684 0.021566
v -0.010171 0.039762 0.025105
v -0.001608 0.042316 0.022193
v -0.009910 0.040139 0.023831
v -0.010180 0.037244 0.027561
v -0.010209 0.040331 0.022530
v -0.010209 0.030665 0.028154
v -0.010171 0.026623 0.028409
v -0.003668 0.042261 0.007923
v -0.010190 0.040736 0.015538
v -0.002043 0.042684 0.016511
v -0.003056 0.042454 0.014994
v -0.001034 0.042693 0.019545
v -0.010209 0.040506 0.021101
v -0.010190 0.040736 0.017566
v -0.002357 0.042325 0.020703
v -0.006089 0.041728 0.014994
v -0.009120 0.041002 0.017015
v -0.009120 0.040947 0.018535
v -0.002043 0.042592 0.018535
v -0.010190 0.040635 0.019578
v -0.008111 0.041076 0.020049
f 1 2 3
f 1 3 8
f 1 8 20
f 1 20 37
f 1 37 64
f 1 64 93
f 1 93 128
f 1 128 168
f 1 168 194
f 1 194 201
f 1 201 200
f 1 200 199
f 1 199 198
f 1 198 196
f 1 196 228
f 1 228 227
f 1 227 226
f 1 226 225
f 1 225 241
f 1 241 220
f 1 220 240
f 1 240 248
f 1 248 234
f 1 234 211
f 1 211 193
f 1 193 190
f 1 190 152
f 1 152 115
f 1 115 80
f 1 80 79
f 1 79 51
f 1 51 28
f 1 28 11
f 1 11 4
f 1 4 5
f 1 5 6
f 1 6 2
f 2 6 7
f 2 7 3
f 3 7 9
f 3 9 10
f 3 10 8
f 4 11 12
f 4 12 5
f 5 12 13
f 5 13 11
f 5 11 14
f 5 14 15
f 5 15 16
f 5 16 17
f 5 17 18
f 5 18 19
f 5 19 9
f 5 9 6
f 6 9 7
f 8 10 20
f 9 19 21
f 9 21 22
f 9 22 10
f 10 22 23
f 10 23 24
f 10 24 20
f 11 25 26
f 11 26 27
f 11 27 14
f 11 13 12
f 11 28 25
f 14 27 29
f 14 29 30
f 14 30 15
f 15 30 16
f 16 30 29
f 16 29 17
f 17 31 32
f 17 32 18
f 17 29 33
f 17 33 31
f 18 32 19
f 19 32 34
f 19 34 21
f 20 24 35
f 20 35 36
f 20 36 37
f 21 34 38
f 21 38 39
f 21 39 40
f 21 40 22
f 22 40 41
f 22 41 23
f 23 42 43
f 23 43 24
f 23 41 42
f 24 43 35
f 25 44 26
f 25 28 45
f 25 45 46
f 25 46 47
f 25 47 44
f 26 48 29
f 26 29 27
f 26 44 49
f 26 49 50
f 26 50 31
f 26 31 48
f 28 51 52
f 28 52 53
f 28 53 54
f 28 54 45
f 29 48 55
f 29 55 33
f 31 50 56
f 31 56 32
f 31 33 48
f 32 56 34
f 33 55 48
f 34 56 57
f 34 57 38
f 35 43 58
f 35 58 36
f 36 58 37
f 37 58 59
f 37 59 60
f 37 60 61
f 37 61 62
f 37 62 63
f 37 63 64
f 38 65 39
f 38 57 66
f 38 66 67
f 38 67 68
f 38 68 69
f 38 69 65
f 39 65 70
f 39 70 71
f 39 71 40
f 40 71 41
f 41 71 72
f 41 72 73
f 41 73 42
f 42 74 75
f 42 75 43
f 42 73 74
f 43 75 58
f 44 47 50
f 44 50 49
f 45 54 76
f 45 76 46
f 46 76 77
f 46 77 47
f 47 77 78
f 47 78 56
f 47 56 50
f 51 79 52
f 52 79 80
f 52 80 81
f 52 81 53
f 53 82 83
f 53 83 54
f 53 81 84
f 53 84 85
f 53 85 82
f 54 83 76
f 56 78 57
f 57 78 86
f 57 86 87
f 57 87 88
f 57 88 66
f 58 75 74
f 58 74 59
f 59 74 73
f 59 73 60
f 60 73 62
f 60 62 61
f 62 73 89
f 62 89 63
f 63 89 90
f 63 90 64
f 64 90 91
f 64 91 92
f 64 92 93
f 65 69 94
f 65 94 95
f 65 95 70
f 66 96 97
f 66 97 67
f 66 88 96
f 67 98 68
f 67 97 99
f 67 99 100
f 67 100 101
f 67 101 98
f 68 98 69
f 69 98 102
f 69 102 103
f 69 103 94
f 70 104 72
f 70 72 71
f 70 95 105
f 70 105 106
f 70 106 107
f 70 107 108
f 70 108 109
f 70 109 110
f 70 110 104
f 72 104 111
f 72 111 112
f 72 112 113
f 72 113 73
f 73 113 89
f 76 83 114
f 76 114 78
f 76 78 77
f 78 114 86
f 80 115 81
f 81 115 116
f 81 116 84
f 82 117 118
f 82 118 83
f 82 85 119
f 82 119 117
f 83 118 117
f 83 117 114
f 84 116 120
f 84 120 85
f 85 120 119
f 86 121 122
f 86 122 87
f 86 114 121
f 87 122 123
f 87 123 96
f 87 96 88
f 89 113 124
f 89 124 90
f 90 124 125
f 90 125 91
f 91 125 92
f 92 125 126
f 92 126 127
f 92 127 93
f 93 127 129
f 93 129 130
f 93 130 128
f 94 103 95
f 95 131 105
f 95 103 132
f 95 132 131
f 96 123 97
f 97 123 99
f 98 101 133
f 98 133 102
f 99 134 135
f 99 135 100
f 99 123 134
f 100 136 137
f 100 137 138
f 100 138 101
f 100 135 139
f 100 139 136
f 101 138 133
f 102 133 103
f 103 133 140
f 103 140 132
f 104 112 111
f 104 110 141
f 104 141 142
f 104 142 112
f 105 131 106
f 106 131 107
f 107 131 143
f 107 143 144
f 107 144 145
f 107 145 108
f 108 145 146
f 108 146 109
f 109 146 110
f 110 146 147
f 110 147 148
f 110 148 141
f 112 142 113
f 113 142 149
f 113 149 150
f 113 150 124
f 114 117 151
f 114 151 121
f 115 152 120
f 115 120 116
f 117 119 153
f 117 153 154
f 117 154 151
f 119 155 154
f 119 154 153
f 119 120 156
f 119 156 155
f 120 135 156
f 120 152 157
f 120 157 158
f 120 158 159
f 120 159 139
f 120 139 135
f 121 151 154
f 121 154 160
f 121 160 161
f 121 161 122
f 122 161 123
f 123 161 162
f 123 162 134
f 124 163 125
f 124 150 163
f 125 163 126
f 126 163 164
f 126 164 165
f 126 165 166
f 126 166 127
f 127 166 167
f 127 167 129
f 128 130 169
f 128 169 170
f 128 170 168
f 129 167 170
f 129 170 169
f 129 169 130
f 131 132 143
f 132 140 171
f 132 171 172
f 132 172 143
f 133 138 140
f 134 162 173
f 134 173 135
f 135 173 155
f 135 155 156
f 136 139 159
f 136 159 174
f 136 174 175
f 136 175 176
f 136 176 137
f 137 177 138
f 137 176 178
f 137 178 179
f 137 179 180
f 137 180 181
f 137 181 177
f 138 177 182
f 138 182 140
f 140 182 183
f 140 183 171
f 141 148 142
f 142 148 147
f 142 147 184
f 142 184 149
f 143 172 144
f 144 172 146
f 144 146 145
f 146 172 171
f 146 171 147
f 147 171 185
f 147 185 186
f 147 186 187
f 147 187 188
f 147 188 184
f 149 165 189
f 149 189 150
f 149 184 188
f 149 188 170
f 149 170 165
f 150 189 165
f 150 165 164
f 150 164 163
f 152 190 157
f 154 155 173
f 154 173 160
f 157 191 192
f 157 192 158
f 157 190 193
f 157 193 191
f 158 192 159
f 159 192 174
f 160 173 161
f 161 173 162
f 165 170 167
f 165 167 166
f 168 170 194
f 170 188 195
f 170 195 196
f 170 196 197
f 170 197 198
f 170 198 199
f 170 199 200
f 170 200 201
f 170 201 194
f 171 183 185
f 174 192 191
f 174 191 202
f 174 202 203
f 174 203 175
f 175 204 176
f 175 203 204
f 176 204 178
f 177 181 205
f 177 205 206
f 177 206 182
f 178 204 207
f 178 207 179
f 179 207 180
f 180 208 181
f 180 207 209
f 180 209 208
f 181 208 210
f 181 210 211
f 181 211 205
f 182 206 212
f 182 212 183
f 183 212 185
f 185 213 186
f 185 212 214
f 185 214 213
f 186 213 215
f 186 215 216
f 186 216 217
f 186 217 187
f 187 217 218
f 187 218 219
f 187 219 220
f 187 220 221
f 187 221 222
f 187 222 195
f 187 195 188
f 191 193 202
f 193 211 210
f 193 210 202
f 195 222 223
f 195 223 224
f 195 224 225
f 195 225 226
f 195 226 227
f 195 227 228
f 195 228 196
f 196 198 197
f 202 209 204
f 202 204 203
f 202 210 209
f 204 209 207
f 205 229 230
f 205 230 231
f 205 231 232
f 205 232 206
f 205 211 229
f 206 232 233
f 206 233 212
f 208 209 210
f 211 234 229
f 212 233 235
f 212 235 214
f 213 214 236
f 213 236 215
f 214 235 237
f 214 237 238
f 214 238 236
f 215 236 216
f 216 236 239
f 216 239 217
f 217 239 218
f 218 239 219
f 219 239 220
f 220 239 240
f 220 241 221
f 221 241 222
f 222 241 242
f 222 242 223
f 223 242 224
f 224 242 241
f 224 241 225
f 229 243 230
f 229 234 244
f 229 244 243
f 230 243 231
f 231 245 233
f 231 233 232
f 231 243 246
f 231 246 245
f 233 247 235
f 233 245 247
f 234 248 249
f 234 249 244
f 235 247 250
f 235 250 237
f 236 238 240
f 236 240 239
f 237 250 248
f 237 248 240
f 237 240 238
f 243 244 251
f 243 251 246
f 244 249 252
f 244 252 251
f 245 246 252
f 245 252 249
f 245 249 253
f 245 253 254
f 245 254 247
f 246 251 252
f 247 254 250
f 248 255 249
f 248 250 254
f 248 254 256
f 248 256 255
f 249 255 253
f 253 255 254
f 254 255 256
