v 0.003422 -0.025483 0.032062
v 0.003422 -0.025478 0.033775
v -0.001791 -0.024563 0.030349
v -0.001791 -0.024563 0.030317
v 0.003422 -0.025384 0.028641
v -0.001791 -0.023898 0.035004
v -0.001791 -0.024236 0.033773
v -0.001791 -0.024452 0.032030
v 0.003422 -0.024759 0.035019
v -0.015105 -0.015754 0.011547
v -0.014030 -0.016533 0.011547
v -0.013737 -0.016727 0.011547
v -0.001791 -0.024353 0.028641
v 0.003422 -0.025316 0.027983
v -0.013375 -0.016952 0.011547
v -0.012136 -0.017719 0.011547
v -0.010764 -0.018351 0.011547
v -0.001791 -0.022775 0.035623
v -0.011599 -0.015577 0.025771
v -0.010142 -0.017547 0.025771
v -0.016152 -0.014776 0.011547
v -0.015187 -0.015679 0.011547
v 0.003422 -0.024570 0.035078
v 0.003310 -0.024582 0.035088
v -0.001791 -0.018002 0.011542
v -0.009840 -0.018636 0.011547
v -0.006898 -0.019336 0.011547
v -0.005188 -0.019435 0.011547
v -0.003357 -0.018893 0.011547
v 0.003422 -0.024696 0.026941
v -0.001791 -0.022750 0.035631
v -0.011925 -0.014212 0.025771
v -0.017685 -0.013157 0.011547
v 0.003422 -0.022750 0.035574
v 0.003368 -0.022750 0.035581
v -0.001764 -0.022750 0.035631
v -0.001936 -0.018092 0.011547
v -0.001791 -0.005693 0.011542
v -0.000570 -0.017075 0.011542
v 0.003422 -0.024563 0.026779
v 0.000281 -0.016170 0.011542
v 0.000973 -0.015311 0.011542
v -0.001791 -0.021068 0.035957
v -0.001791 -0.021039 0.035962
v -0.001791 -0.007356 0.036601
v -0.001791 -0.005674 0.036643
v -0.011921 -0.012491 0.025771
v -0.017685 -0.007078 0.013950
v -0.017685 -0.010764 0.012889
v -0.017685 -0.004236 0.011547
v 0.003422 -0.022697 0.035579
v 0.003422 -0.005802 0.036528
v 0.002641 -0.009958 0.036353
v -0.001764 -0.021039 0.035962
v -0.001774 -0.005703 0.011542
v -0.005188 -0.003622 0.011547
v -0.003434 -0.004256 0.011547
v 0.003422 -0.024411 0.026685
v 0.001424 -0.014203 0.011542
v 0.001909 -0.012499 0.011542
v 0.001657 -0.005645 0.036626
v -0.000053 -0.005645 0.036648
v 0.001752 -0.003941 0.036520
v -0.001791 -0.005645 0.036638
v -0.001791 -0.004638 0.036461
v -0.001791 -0.004629 0.036459
v -0.011543 -0.010783 0.025771
v -0.017685 -0.005865 0.013142
v -0.017685 -0.005217 0.012540
v -0.001791 -0.004021 0.035505
v -0.001791 -0.004011 0.035486
v -0.001791 -0.003457 0.033834
v -0.001791 -0.003406 0.033674
v 0.003422 -0.000771 0.030362
v 0.003422 -0.000759 0.028641
v 0.003422 -0.003902 0.036518
v -0.001748 -0.005720 0.011542
v 0.003422 -0.012433 0.021089
v 0.002000 -0.010788 0.011542
v 0.003341 -0.003866 0.036520
v 0.002387 -0.003022 0.036380
v 0.001752 -0.002813 0.035439
v 0.000502 -0.002997 0.034837
v -0.000638 -0.003152 0.034161
v 0.003422 -0.001676 0.033859
v 0.003422 -0.002068 0.027445
v 0.001294 -0.009021 0.011542
v 0.001267 -0.008961 0.011542
v 0.000787 -0.008256 0.011542
v -0.000074 -0.007334 0.011542
v 0.003422 -0.003777 0.036486
v 0.003422 -0.010780 0.020908
v 0.003422 -0.009169 0.021903
v 0.002752 -0.003022 0.036380
v 0.003341 -0.002550 0.035613
v 0.003422 -0.002516 0.035535
v 0.003422 -0.002651 0.035709
v 0.003422 -0.002554 0.035589
f 1 2 3
f 1 3 4
f 1 4 5
f 1 5 14
f 1 14 30
f 1 30 40
f 1 40 58
f 1 58 78
f 1 78 92
f 1 92 93
f 1 93 86
f 1 86 75
f 1 75 74
f 1 74 85
f 1 85 96
f 1 96 98
f 1 98 97
f 1 97 91
f 1 91 76
f 1 76 52
f 1 52 51
f 1 51 34
f 1 34 23
f 1 23 9
f 1 9 2
f 2 6 7
f 2 7 8
f 2 8 3
f 2 9 6
f 3 8 10
f 3 10 11
f 3 11 12
f 3 12 4
f 4 13 14
f 4 14 5
f 4 12 15
f 4 15 16
f 4 16 17
f 4 17 13
f 6 9 18
f 6 18 19
f 6 19 20
f 6 20 7
f 7 20 21
f 7 21 22
f 7 22 10
f 7 10 8
f 9 23 24
f 9 24 18
f 10 22 25
f 10 25 11
f 11 25 12
f 12 25 15
f 13 17 26
f 13 26 27
f 13 27 14
f 14 27 28
f 14 28 29
f 14 29 30
f 15 25 16
f 16 25 17
f 17 25 26
f 18 24 31
f 18 31 19
f 19 31 32
f 19 32 33
f 19 33 20
f 20 33 21
f 21 33 25
f 21 25 22
f 23 34 35
f 23 35 24
f 24 35 36
f 24 36 31
f 25 37 29
f 25 29 28
f 25 28 27
f 25 27 26
f 25 33 50
f 25 50 38
f 25 38 55
f 25 55 77
f 25 77 90
f 25 90 89
f 25 89 88
f 25 88 87
f 25 87 79
f 25 79 60
f 25 60 59
f 25 59 42
f 25 42 41
f 25 41 39
f 25 39 30
f 25 30 37
f 29 37 30
f 30 39 41
f 30 41 42
f 30 42 40
f 31 36 43
f 31 43 32
f 32 43 44
f 32 44 45
f 32 45 46
f 32 46 47
f 32 47 48
f 32 48 49
f 32 49 33
f 33 49 48
f 33 48 68
f 33 68 69
f 33 69 50
f 34 51 35
f 35 51 52
f 35 52 53
f 35 53 54
f 35 54 43
f 35 43 36
f 38 50 56
f 38 56 57
f 38 57 55
f 40 42 59
f 40 59 60
f 40 60 58
f 43 54 44
f 44 54 45
f 45 54 61
f 45 61 62
f 45 62 46
f 46 62 63
f 46 63 64
f 46 64 47
f 47 64 65
f 47 65 66
f 47 66 67
f 47 67 48
f 48 67 68
f 50 69 66
f 50 66 70
f 50 70 71
f 50 71 72
f 50 72 73
f 50 73 74
f 50 74 75
f 50 75 56
f 52 76 61
f 52 61 53
f 53 61 54
f 55 57 77
f 56 75 57
f 57 75 77
f 58 60 78
f 60 79 78
f 61 76 80
f 61 80 62
f 62 80 63
f 63 80 81
f 63 81 65
f 63 65 64
f 65 81 66
f 66 81 70
f 66 69 68
f 66 68 67
f 70 81 71
f 71 81 82
f 71 82 83
f 71 83 84
f 71 84 72
f 72 84 73
f 73 84 85
f 73 85 74
f 75 86 79
f 75 79 87
f 75 87 88
f 75 88 89
f 75 89 90
f 75 90 77
f 76 91 80
f 78 79 92
f 79 86 93
f 79 93 92
f 80 91 94
f 80 94 81
f 81 95 85
f 81 85 82
f 81 94 95
f 82 85 83
f 83 85 84
f 85 95 96
f 91 97 94
f 94 97 95
f 95 97 98
f 95 98 96
