v -0.001790 -0.090607 0.008120
v -0.001790 -0.090547 0.009670
v -0.001790 -0.090585 0.003106
v 0.000662 -0.092140 0.002990
v 0.003377 -0.092770 0.021442
v -0.001455 -0.090180 0.021442
v -0.001790 -0.073267 0.021442
v -0.001790 -0.090049 0.001850
v 0.000711 -0.092102 0.000831
v 0.001663 -0.092485 0.001273
v 0.001663 -0.092518 0.002990
v 0.005163 -0.093526 0.023555
v 0.005163 -0.093482 0.025129
v 0.005107 -0.092748 0.026566
v 0.005107 -0.091177 0.027389
v 0.005107 -0.079202 0.028261
v -0.001790 -0.068307 0.004356
v 0.005103 -0.076733 0.028137
v 0.024930 -0.038451 0.022464
v 0.012532 -0.038461 0.004567
v 0.000517 -0.091177 0.000245
v -0.001790 -0.087541 0.000883
v 0.001663 -0.092201 0.000260
v 0.003377 -0.092863 0.001273
v 0.003377 -0.092940 0.002990
v 0.005877 -0.093756 0.024352
v 0.006506 -0.093695 0.025683
v 0.007648 -0.093739 0.026076
v 0.010532 -0.093985 0.026367
v 0.010221 -0.091177 0.027513
v 0.009366 -0.088800 0.027808
v 0.006797 -0.079202 0.028477
v 0.010068 -0.093049 0.026803
v 0.011927 -0.092885 0.026944
v -0.001790 -0.068936 0.002976
v 0.012556 -0.038461 0.003305
v 0.006797 -0.077500 0.028371
v 0.037966 -0.038538 0.022173
v 0.038631 -0.038451 0.020692
v 0.021970 -0.038451 0.005955
v 0.001663 -0.091177 -0.000127
v -0.000939 -0.086824 0.000407
v 0.001663 -0.089463 -0.000274
v -0.001790 -0.086008 0.000716
v 0.003377 -0.091177 -0.000502
v 0.005107 -0.091177 -0.000814
v 0.003377 -0.092392 0.000055
v 0.006797 -0.093323 0.001273
v 0.010221 -0.094385 0.023506
v 0.010068 -0.094150 0.025363
v 0.011927 -0.094259 0.025218
v 0.011927 -0.093953 0.026330
v 0.011927 -0.091177 0.027308
v 0.009737 -0.087755 0.027851
v 0.008507 -0.080922 0.028402
v 0.008507 -0.079202 0.028515
v 0.013508 -0.092847 0.026408
v 0.014706 -0.092255 0.026237
v 0.013637 -0.091177 0.026872
v -0.001790 -0.070480 0.002174
v 0.013791 -0.038461 0.002220
v 0.037486 -0.042436 0.022464
v 0.037921 -0.041577 0.021795
v 0.039075 -0.038451 0.018564
v 0.037736 -0.043291 0.021795
v 0.037966 -0.044999 0.020086
v 0.037643 -0.038451 0.006328
v 0.030734 -0.038461 -0.000035
v 0.029169 -0.038461 -0.000017
v 0.027463 -0.038461 0.000156
v 0.024567 -0.038461 0.000514
v 0.022184 -0.038461 0.000817
v 0.020627 -0.038461 0.001025
v 0.018776 -0.038461 0.001282
v 0.015505 -0.038461 0.001741
v 0.003377 -0.089463 -0.000690
v 0.000376 -0.077494 0.000170
v 0.001663 -0.079202 -0.000263
v -0.001790 -0.075759 0.001302
v -0.000060 -0.075780 0.000421
v 0.005095 -0.089474 -0.000930
v 0.006797 -0.091177 -0.000904
v 0.006797 -0.092677 -0.000202
v 0.005095 -0.092546 -0.000110
v 0.009358 -0.093745 0.008957
v 0.010221 -0.094330 0.021795
v 0.008507 -0.093285 0.001273
v 0.011927 -0.094270 0.023506
v 0.012919 -0.093816 0.025669
v 0.020857 -0.073913 0.025960
v 0.014884 -0.091177 0.026358
v 0.013847 -0.093312 0.025218
v 0.014940 -0.092458 0.025218
v 0.015593 -0.091177 0.025218
v 0.019619 -0.083490 0.024367
v 0.033497 -0.055938 0.022464
v 0.035562 -0.051175 0.022464
v 0.022264 -0.073913 0.025544
v 0.000553 -0.074828 0.000317
v -0.001790 -0.074045 0.001472
v 0.037062 -0.045875 0.022464
v 0.037325 -0.044621 0.022297
v 0.039321 -0.038451 0.016665
v 0.038349 -0.044588 0.018001
v 0.036901 -0.047173 0.022196
v 0.037563 -0.046713 0.020086
v 0.037075 -0.038461 0.005156
v 0.036578 -0.038461 0.004177
v 0.035869 -0.038461 0.002988
v 0.035159 -0.038461 0.001980
v 0.034150 -0.038461 0.001209
v 0.032626 -0.038461 0.000364
v 0.038414 -0.038451 0.008282
v 0.037974 -0.041577 0.008120
v 0.037087 -0.043291 0.006515
v 0.035409 -0.043449 0.002817
v 0.032287 -0.039869 0.000170
v 0.030734 -0.039869 -0.000127
v 0.029020 -0.041577 -0.000176
v 0.001663 -0.077494 -0.000208
v 0.003377 -0.087755 -0.000684
v 0.003377 -0.084327 -0.000644
v 0.003377 -0.086035 -0.000670
v 0.010221 -0.089463 -0.000976
v 0.029020 -0.043291 -0.000260
v 0.029020 -0.044999 -0.000326
v 0.029020 -0.046713 -0.000393
v 0.029020 -0.048421 -0.000442
v 0.008507 -0.091177 -0.000814
v 0.008507 -0.092622 -0.000136
v 0.013411 -0.093591 0.023506
v 0.009850 -0.092343 0.000098
v 0.010576 -0.092261 0.001273
v 0.014976 -0.092458 0.023506
v 0.015775 -0.091177 0.023506
v 0.017961 -0.086977 0.023954
v 0.033965 -0.055265 0.021795
v 0.035042 -0.052856 0.022170
v 0.035530 -0.051848 0.021795
v 0.036147 -0.050129 0.021795
v 0.039414 -0.038451 0.014950
v 0.039240 -0.039869 0.014950
v 0.038986 -0.041577 0.014950
v 0.037752 -0.046713 0.018374
v 0.038373 -0.044769 0.016665
v 0.036736 -0.048306 0.021685
v 0.035066 -0.042989 0.002052
v 0.035098 -0.041577 0.002012
v 0.035139 -0.039869 0.001983
v 0.033150 -0.044999 0.000514
v 0.032836 -0.043291 0.000271
v 0.033142 -0.039869 0.000479
v 0.038813 -0.038451 0.009806
v 0.038361 -0.039929 0.008634
v 0.038442 -0.041577 0.009806
v 0.037712 -0.043291 0.008120
v 0.036740 -0.044999 0.006354
v 0.036030 -0.044999 0.004694
v 0.034953 -0.044566 0.002237
v 0.032803 -0.041577 0.000291
v 0.032295 -0.044999 0.000092
v 0.030734 -0.044999 -0.000312
v 0.030734 -0.043291 -0.000277
v 0.030734 -0.041577 -0.000214
v 0.029020 -0.051848 -0.000384
v 0.030484 -0.051848 0.000075
v 0.012089 -0.089589 -0.000217
v 0.011625 -0.090837 -0.000015
v 0.010342 -0.091308 -0.000312
v 0.029020 -0.050140 -0.000465
v 0.012770 -0.090240 0.000537
v 0.012089 -0.091001 0.001175
v 0.015509 -0.089463 0.014950
v 0.016114 -0.088428 0.014950
v 0.017977 -0.087005 0.022300
v 0.034957 -0.054323 0.016665
v 0.035372 -0.053321 0.018310
v 0.035046 -0.053644 0.019915
v 0.039196 -0.039869 0.013250
v 0.039329 -0.038451 0.013250
v 0.038684 -0.043291 0.014950
v 0.038934 -0.041577 0.013250
v 0.036893 -0.049697 0.014950
v 0.037345 -0.048421 0.014950
v 0.037845 -0.046713 0.016665
v 0.037861 -0.046713 0.014950
v 0.038373 -0.044763 0.014950
v 0.034324 -0.043449 0.001414
v 0.032985 -0.046713 0.000675
v 0.031932 -0.048421 0.000190
v 0.032130 -0.046713 0.000112
v 0.039140 -0.038451 0.011538
v 0.039010 -0.039869 0.011538
v 0.038760 -0.041577 0.011538
v 0.038317 -0.042836 0.010282
v 0.037744 -0.044999 0.009829
v 0.037325 -0.044999 0.008120
v 0.036530 -0.046324 0.006815
v 0.034917 -0.046510 0.003262
v 0.035320 -0.044999 0.003198
v 0.033352 -0.049461 0.002041
v 0.033525 -0.048421 0.001810
v 0.033800 -0.046713 0.001533
v 0.030734 -0.048421 -0.000246
v 0.030734 -0.046713 -0.000312
v 0.030166 -0.053255 0.000237
v 0.030871 -0.050228 0.000011
v 0.031739 -0.049718 0.000312
v 0.031537 -0.050852 0.000456
v 0.029867 -0.054400 0.000427
v 0.031335 -0.051848 0.000667
v 0.031767 -0.053058 0.001853
v 0.031771 -0.053896 0.002653
v 0.033182 -0.052434 0.004099
v 0.033162 -0.053250 0.004962
v 0.033352 -0.053759 0.006088
v 0.033348 -0.054520 0.007113
v 0.033497 -0.054772 0.008120
v 0.033634 -0.055331 0.009959
v 0.033316 -0.056152 0.010609
v 0.033973 -0.055265 0.011538
v 0.034239 -0.055265 0.013250
v 0.035086 -0.053710 0.013250
v 0.034941 -0.054290 0.014950
v 0.035413 -0.053349 0.014950
v 0.035429 -0.053370 0.016555
v 0.038357 -0.044583 0.013515
v 0.038494 -0.043707 0.012947
v 0.036054 -0.051848 0.014950
v 0.036853 -0.049598 0.013250
v 0.037248 -0.048421 0.013250
v 0.037760 -0.046713 0.013250
v 0.032787 -0.048421 0.000955
v 0.038426 -0.043258 0.011538
v 0.038038 -0.044999 0.011538
v 0.037571 -0.046713 0.011538
v 0.037264 -0.046713 0.009829
v 0.036744 -0.046893 0.007976
v 0.035094 -0.051169 0.007673
v 0.033170 -0.051575 0.003262
v 0.033170 -0.050600 0.002407
v 0.032057 -0.051848 0.001524
v 0.032452 -0.050157 0.001247
v 0.034763 -0.052171 0.008120
v 0.034106 -0.053551 0.008120
v 0.034893 -0.053042 0.010158
v 0.034925 -0.053513 0.011538
v 0.035727 -0.051848 0.011538
v 0.035937 -0.051848 0.013250
v 0.036615 -0.049746 0.011781
v 0.036837 -0.048837 0.011212
v 0.036707 -0.048393 0.009829
v 0.036538 -0.047977 0.008547
v 0.035614 -0.050129 0.008120
v 0.036098 -0.050129 0.009829
v 0.035143 -0.052221 0.009572
f 1 2 7
f 1 7 17
f 1 17 35
f 1 35 60
f 1 60 100
f 1 100 79
f 1 79 44
f 1 44 22
f 1 22 8
f 1 8 3
f 1 3 4
f 1 4 2
f 2 4 5
f 2 5 6
f 2 6 7
f 3 8 9
f 3 9 4
f 4 9 10
f 4 10 11
f 4 11 12
f 4 12 13
f 4 13 5
f 5 13 6
f 6 13 14
f 6 14 15
f 6 15 16
f 6 16 7
f 7 16 18
f 7 18 19
f 7 19 20
f 7 20 17
f 8 21 9
f 8 22 21
f 9 23 10
f 9 21 23
f 10 24 25
f 10 25 11
f 10 23 24
f 11 25 26
f 11 26 12
f 12 26 13
f 13 26 27
f 13 27 14
f 14 27 28
f 14 28 29
f 14 29 15
f 15 30 31
f 15 31 32
f 15 32 16
f 15 29 33
f 15 33 34
f 15 34 30
f 16 32 18
f 17 20 36
f 17 36 35
f 18 32 37
f 18 37 19
f 19 38 39
f 19 39 64
f 19 64 103
f 19 103 141
f 19 141 180
f 19 180 192
f 19 192 153
f 19 153 113
f 19 113 67
f 19 67 40
f 19 40 20
f 19 37 38
f 20 40 36
f 21 41 23
f 21 22 42
f 21 42 43
f 21 43 41
f 22 44 42
f 23 41 45
f 23 45 46
f 23 46 47
f 23 47 24
f 24 48 25
f 24 47 48
f 25 48 49
f 25 49 26
f 26 49 27
f 27 49 50
f 27 50 28
f 28 50 29
f 29 50 51
f 29 51 52
f 29 52 34
f 29 34 33
f 30 34 53
f 30 53 54
f 30 54 31
f 31 54 55
f 31 55 32
f 32 56 37
f 32 55 56
f 34 52 57
f 34 57 58
f 34 58 59
f 34 59 53
f 35 36 60
f 36 40 61
f 36 61 60
f 37 56 38
f 38 56 62
f 38 62 63
f 38 63 39
f 39 63 65
f 39 65 66
f 39 66 64
f 40 67 68
f 40 68 69
f 40 69 70
f 40 70 71
f 40 71 72
f 40 72 73
f 40 73 74
f 40 74 75
f 40 75 61
f 41 43 76
f 41 76 45
f 42 44 77
f 42 77 78
f 42 78 43
f 43 78 76
f 44 79 80
f 44 80 77
f 45 76 46
f 46 76 81
f 46 81 82
f 46 82 83
f 46 83 84
f 46 84 47
f 47 84 48
f 48 85 86
f 48 86 49
f 48 84 83
f 48 83 87
f 48 87 85
f 49 86 88
f 49 88 51
f 49 51 50
f 51 88 89
f 51 89 52
f 52 89 58
f 52 58 57
f 53 59 90
f 53 90 56
f 53 56 54
f 54 56 55
f 56 90 62
f 58 91 59
f 58 89 92
f 58 92 93
f 58 93 94
f 58 94 95
f 58 95 96
f 58 96 97
f 58 97 91
f 59 91 98
f 59 98 90
f 60 99 100
f 60 61 99
f 61 75 99
f 62 101 102
f 62 102 65
f 62 65 63
f 62 90 101
f 64 66 104
f 64 104 103
f 65 102 101
f 65 101 66
f 66 101 105
f 66 105 106
f 66 106 104
f 67 107 108
f 67 108 109
f 67 109 110
f 67 110 111
f 67 111 112
f 67 112 68
f 67 113 114
f 67 114 115
f 67 115 116
f 67 116 107
f 68 112 117
f 68 117 118
f 68 118 69
f 69 118 119
f 69 119 120
f 69 120 70
f 70 120 71
f 71 120 72
f 72 120 73
f 73 120 74
f 74 120 75
f 75 120 99
f 76 78 121
f 76 121 81
f 77 80 120
f 77 120 78
f 78 120 122
f 78 122 123
f 78 123 121
f 79 100 80
f 80 100 99
f 80 99 120
f 81 124 82
f 81 121 123
f 81 123 122
f 81 122 125
f 81 125 126
f 81 126 127
f 81 127 128
f 81 128 124
f 82 124 129
f 82 129 83
f 83 129 130
f 83 130 87
f 85 88 86
f 85 87 88
f 87 131 88
f 87 130 132
f 87 132 133
f 87 133 131
f 88 131 89
f 89 131 92
f 90 98 101
f 91 97 98
f 92 131 134
f 92 134 93
f 93 134 135
f 93 135 136
f 93 136 94
f 94 136 95
f 95 136 137
f 95 137 96
f 96 137 138
f 96 138 97
f 97 139 140
f 97 140 105
f 97 105 101
f 97 101 98
f 97 138 139
f 103 104 142
f 103 142 141
f 104 143 142
f 104 106 144
f 104 144 145
f 104 145 143
f 105 140 146
f 105 146 106
f 106 146 140
f 106 140 139
f 106 139 144
f 107 116 147
f 107 147 108
f 108 147 109
f 109 147 148
f 109 148 149
f 109 149 110
f 110 149 150
f 110 150 111
f 111 151 152
f 111 152 112
f 111 150 151
f 112 152 117
f 113 153 154
f 113 154 114
f 114 154 155
f 114 155 156
f 114 156 115
f 115 156 157
f 115 157 158
f 115 158 116
f 116 158 159
f 116 159 147
f 117 152 160
f 117 160 151
f 117 151 161
f 117 161 162
f 117 162 163
f 117 163 164
f 117 164 118
f 118 164 119
f 119 164 125
f 119 125 120
f 120 125 122
f 124 165 166
f 124 166 167
f 124 167 168
f 124 168 169
f 124 169 129
f 124 128 170
f 124 170 165
f 125 164 126
f 126 164 127
f 127 164 163
f 127 163 128
f 128 163 162
f 128 162 170
f 129 169 130
f 130 169 132
f 131 133 134
f 132 169 168
f 132 168 171
f 132 171 133
f 133 171 172
f 133 172 134
f 134 172 171
f 134 171 173
f 134 173 135
f 135 173 174
f 135 174 175
f 135 175 136
f 136 175 176
f 136 176 177
f 136 177 178
f 136 178 137
f 137 178 138
f 138 178 139
f 139 178 177
f 139 177 144
f 141 142 179
f 141 179 180
f 142 143 179
f 143 145 181
f 143 181 182
f 143 182 179
f 144 177 183
f 144 183 184
f 144 184 185
f 144 185 145
f 145 185 186
f 145 186 187
f 145 187 181
f 147 159 150
f 147 150 188
f 147 188 148
f 148 188 149
f 149 188 150
f 150 189 190
f 150 190 191
f 150 191 161
f 150 161 151
f 150 159 189
f 151 160 152
f 153 192 193
f 153 193 155
f 153 155 154
f 155 193 194
f 155 194 195
f 155 195 156
f 156 195 196
f 156 196 197
f 156 197 157
f 157 197 198
f 157 198 158
f 158 198 199
f 158 199 200
f 158 200 159
f 159 200 199
f 159 199 201
f 159 201 202
f 159 202 203
f 159 203 189
f 161 191 204
f 161 204 205
f 161 205 162
f 162 205 170
f 165 170 204
f 165 204 166
f 166 206 167
f 166 204 207
f 166 207 190
f 166 190 208
f 166 208 209
f 166 209 206
f 167 171 168
f 167 206 210
f 167 210 171
f 170 205 204
f 171 210 211
f 171 211 212
f 171 212 213
f 171 213 214
f 171 214 215
f 171 215 216
f 171 216 217
f 171 217 218
f 171 218 219
f 171 219 220
f 171 220 221
f 171 221 174
f 171 174 173
f 174 221 222
f 174 222 175
f 175 222 223
f 175 223 224
f 175 224 176
f 176 224 225
f 176 225 226
f 176 226 177
f 177 226 183
f 179 182 194
f 179 194 193
f 179 193 180
f 180 193 192
f 181 187 227
f 181 227 182
f 182 227 228
f 182 228 194
f 183 229 230
f 183 230 184
f 183 226 229
f 184 230 231
f 184 231 186
f 184 186 185
f 186 231 232
f 186 232 227
f 186 227 187
f 189 203 233
f 189 233 208
f 189 208 190
f 190 207 204
f 190 204 191
f 194 228 234
f 194 234 195
f 195 234 235
f 195 235 196
f 196 235 236
f 196 236 237
f 196 237 197
f 197 237 238
f 197 238 198
f 198 238 239
f 198 239 240
f 198 240 241
f 198 241 199
f 199 241 201
f 201 241 242
f 201 242 243
f 201 243 202
f 202 243 209
f 202 209 233
f 202 233 203
f 206 209 211
f 206 211 210
f 208 233 209
f 209 243 242
f 209 242 211
f 211 242 212
f 212 242 241
f 212 241 240
f 212 240 213
f 213 240 214
f 214 240 239
f 214 239 215
f 215 239 216
f 216 239 217
f 217 239 244
f 217 244 245
f 217 245 218
f 218 245 246
f 218 246 219
f 219 246 247
f 219 247 220
f 220 247 221
f 221 223 222
f 221 247 223
f 223 225 224
f 223 247 248
f 223 248 249
f 223 249 225
f 225 249 229
f 225 229 226
f 227 232 235
f 227 235 228
f 228 235 234
f 229 249 230
f 230 249 250
f 230 250 231
f 231 250 251
f 231 251 236
f 231 236 232
f 232 236 235
f 236 251 237
f 237 251 252
f 237 252 253
f 237 253 238
f 238 253 239
f 239 253 254
f 239 254 255
f 239 255 256
f 239 256 244
f 244 256 245
f 245 256 246
f 246 256 248
f 246 248 247
f 248 255 250
f 248 250 249
f 248 256 255
f 250 255 251
f 251 255 252
f 252 255 253
f 253 255 254
