v -0.001785 -0.023699 0.006052
v -0.001785 -0.023192 0.008015
v -0.001785 -0.022404 0.000755
v 0.010005 -0.073638 0.025816
v -0.001785 -0.022117 0.009070
v -0.001785 -0.021043 -0.000123
v 0.011672 -0.073918 0.021391
v 0.011469 -0.073918 0.026684
v 0.003430 -0.024663 0.035046
v -0.001785 -0.018012 0.011547
v -0.000049 -0.021043 -0.000509
v -0.000029 -0.022787 -0.000002
v -0.001785 -0.019329 -0.000366
v 0.024529 -0.073918 0.021696
v 0.014864 -0.038445 0.001862
v 0.018772 -0.038445 0.001277
v 0.020625 -0.038445 0.001027
v 0.022183 -0.038445 0.000822
v 0.024570 -0.038445 0.000516
v 0.027313 -0.038445 0.000175
v 0.029178 -0.038445 -0.000016
v 0.013642 -0.073918 0.026933
v 0.011939 -0.072358 0.027393
v 0.003430 -0.022728 0.035571
v -0.001785 -0.005702 0.011547
v 0.001662 -0.019329 -0.000821
v 0.001662 -0.021043 -0.000715
v -0.001785 -0.017600 -0.000421
v 0.025444 -0.072167 0.021596
v 0.024594 -0.073270 0.023614
v 0.023591 -0.073918 0.024765
v 0.030731 -0.038290 -0.000024
v 0.032617 -0.038290 0.000369
v 0.034154 -0.038290 0.001211
v 0.035526 -0.038290 0.002483
v 0.036828 -0.038290 0.004582
v 0.037787 -0.038290 0.006552
v 0.003374 -0.017622 -0.000998
v 0.015357 -0.073918 0.026842
v 0.005089 -0.021036 0.035549
v 0.005089 -0.014200 0.035946
v 0.003997 -0.005341 0.036490
v 0.003552 -0.003082 0.036005
v 0.005089 -0.022750 0.035369
v -0.001785 -0.001721 0.009515
v -0.001785 -0.014178 -0.000513
v 0.026338 -0.070415 0.021494
v 0.033410 -0.056038 0.022589
v 0.024841 -0.071762 0.024482
v 0.028211 -0.064750 0.024412
v 0.033102 -0.053772 0.024456
v 0.025601 -0.067222 0.025360
v 0.023886 -0.070651 0.025471
v 0.022264 -0.073918 0.025548
v 0.005081 -0.014200 -0.001053
v 0.005081 -0.012493 -0.000998
v 0.005081 -0.010786 -0.000888
v 0.030731 -0.036436 0.000131
v 0.032350 -0.036436 0.000461
v 0.032447 -0.033015 0.000932
v 0.033855 -0.033015 0.001704
v 0.034514 -0.034957 0.001880
v 0.035222 -0.036407 0.002307
v 0.036909 -0.036436 0.004313
v 0.038414 -0.038290 0.008228
v 0.037868 -0.036436 0.006405
v -0.001785 -0.012493 -0.000491
v 0.017069 -0.073918 0.026581
v 0.006800 -0.021036 0.035321
v 0.006800 -0.019329 0.035494
v 0.008508 -0.012493 0.035696
v 0.006800 -0.007364 0.036012
v 0.018638 0.001252 0.029426
v 0.008508 -0.010786 0.035733
v 0.017085 0.001252 0.029911
v 0.015301 0.001252 0.030216
v 0.013638 0.001244 0.030477
v 0.011927 0.001244 0.030683
v 0.006768 0.001244 0.031208
v 0.003430 -0.001684 0.033851
v -0.001785 -0.001044 0.007960
v 0.029396 -0.064235 0.021391
v 0.034826 -0.052020 0.023232
v 0.038867 -0.038290 0.010007
v 0.039155 -0.038283 0.011543
v 0.039345 -0.038283 0.013253
v 0.039426 -0.038283 0.014962
v 0.036642 -0.046995 0.022769
v 0.035174 -0.049864 0.023761
v 0.033944 -0.050122 0.024765
v 0.033058 -0.051829 0.024901
v 0.023886 -0.068937 0.025765
v 0.022183 -0.072358 0.025831
v 0.020427 -0.073918 0.026033
v 0.003374 -0.007364 -0.000546
v 0.003374 -0.005657 -0.000366
v 0.005081 -0.009072 -0.000634
v 0.030731 -0.031308 0.000704
v 0.031888 -0.034398 0.000553
v 0.030731 -0.029593 0.000969
v 0.032447 -0.031308 0.001230
v 0.033070 -0.029350 0.001950
v 0.035311 -0.029593 0.003542
v 0.037091 -0.028982 0.006188
v 0.038459 -0.036436 0.008033
v 0.038981 -0.036436 0.010044
v 0.038390 -0.029711 0.009118
v 0.038584 -0.034729 0.008548
v -0.001785 -0.010786 -0.000358
v 0.018897 -0.073918 0.026283
v 0.008508 -0.017622 0.035314
v 0.008508 -0.015915 0.035479
v 0.008508 -0.014200 0.035597
v 0.010086 -0.012493 0.035127
v 0.010069 -0.014200 0.035082
v 0.008508 -0.009072 0.035604
v 0.020936 0.001252 0.028128
v 0.009976 -0.010786 0.035116
v 0.031994 -0.026437 0.025893
v 0.000942 0.001252 0.008232
v 0.004620 0.001244 0.029694
v 0.000647 0.001252 0.006405
v -0.001785 -0.001176 0.006405
v 0.039264 -0.036436 0.011543
v 0.039450 -0.036436 0.013253
v 0.039547 -0.036436 0.014962
v 0.039345 -0.038283 0.016671
v 0.037184 -0.044604 0.022596
v 0.036242 -0.044986 0.023842
v 0.035635 -0.048481 0.023651
v 0.039163 -0.038136 0.018457
v 0.034907 -0.047333 0.024644
v 0.034773 -0.044986 0.024941
v 0.032439 -0.050122 0.025346
v 0.029020 -0.056965 0.025588
v 0.001662 -0.005657 -0.000189
v -0.000280 -0.002435 0.000616
v 0.002544 -0.003752 0.000193
v 0.017036 0.001252 0.004247
v 0.029024 -0.024457 0.001579
v 0.029024 -0.026179 0.001233
v 0.030731 -0.027886 0.001347
v 0.030792 -0.024737 0.002123
v 0.031310 -0.020896 0.003659
v 0.034830 -0.027643 0.003681
v 0.035849 -0.027952 0.004725
v 0.036889 -0.026760 0.006986
v 0.037751 -0.027886 0.008118
v 0.038985 -0.034729 0.010044
v 0.038888 -0.029593 0.011543
v 0.038807 -0.031528 0.010044
v 0.038378 -0.028166 0.010180
v 0.038904 -0.033015 0.010044
v -0.001785 -0.005540 0.000403
v 0.034154 -0.043272 0.025320
v 0.034154 -0.039858 0.025456
v 0.034154 -0.038136 0.025463
v 0.034154 -0.034729 0.025437
v 0.034154 -0.041572 0.025397
v 0.022721 0.001252 0.026691
v 0.034749 -0.027908 0.024405
v 0.033454 -0.023935 0.024497
v 0.034154 -0.033015 0.025371
v 0.032827 -0.031308 0.025882
v 0.032734 -0.029615 0.025827
v 0.032625 -0.027886 0.025732
v 0.034154 -0.029615 0.025055
v 0.001699 0.001252 0.004942
v -0.000547 -0.001198 0.001818
v -0.001461 -0.001441 0.002990
v -0.001785 -0.002413 0.001410
v 0.039264 -0.034729 0.011543
v 0.039458 -0.034729 0.013253
v 0.039503 -0.034729 0.014962
v 0.039442 -0.036436 0.016671
v 0.038661 -0.038283 0.020670
v 0.037492 -0.042418 0.022464
v 0.037144 -0.041572 0.023217
v 0.036699 -0.043272 0.023563
v 0.035979 -0.041572 0.024401
v 0.035489 -0.043272 0.024691
v 0.039171 -0.036510 0.018498
v 0.038847 -0.036421 0.020086
v -0.001785 -0.003921 0.000733
v 0.011975 0.001252 0.003931
v 0.014621 0.001252 0.003887
v 0.018744 0.001252 0.004824
v 0.030286 -0.023162 0.002351
v 0.033438 -0.020594 0.005405
v 0.020301 0.001252 0.005695
v 0.034842 -0.021212 0.006706
v 0.035214 -0.020204 0.008129
v 0.036578 -0.021941 0.009801
v 0.037407 -0.024457 0.010044
v 0.037937 -0.026385 0.010044
v 0.039211 -0.033015 0.011543
v 0.039090 -0.029593 0.013253
v 0.039086 -0.031308 0.011543
v 0.038354 -0.026738 0.011646
v 0.038835 -0.027886 0.013253
v 0.035999 -0.039858 0.024430
v 0.035950 -0.038209 0.024456
v 0.035473 -0.034729 0.024699
v 0.024278 0.001252 0.024651
v 0.033175 -0.022257 0.024250
v 0.034085 -0.021043 0.022791
v 0.035692 -0.031308 0.024151
v 0.035967 -0.029615 0.023618
v 0.037128 -0.029380 0.022243
v 0.034154 -0.031308 0.025221
v 0.035833 -0.033015 0.024254
v 0.039397 -0.033015 0.013253
v 0.039454 -0.033015 0.014962
v 0.039248 -0.031308 0.016671
v 0.038309 -0.036421 0.021567
v 0.037581 -0.038173 0.022765
v 0.037221 -0.039858 0.023254
v 0.039175 -0.029593 0.016671
v 0.038706 -0.029012 0.018663
v 0.038394 -0.029593 0.020023
v 0.021758 0.001252 0.006864
v 0.022976 0.001252 0.008129
v 0.024181 0.001252 0.009695
v 0.035190 -0.018615 0.009864
v 0.025035 0.001252 0.011055
v 0.036003 -0.019336 0.011543
v 0.036699 -0.021102 0.011543
v 0.037277 -0.022750 0.011543
v 0.037787 -0.024457 0.011543
v 0.039195 -0.029593 0.014962
v 0.039381 -0.031308 0.014962
v 0.039264 -0.031308 0.013253
v 0.038455 -0.026069 0.013253
v 0.038928 -0.027886 0.014962
v 0.036808 -0.036436 0.023651
v 0.036327 -0.034729 0.023993
v 0.025415 0.001252 0.022379
v 0.035554 -0.020808 0.020633
v 0.037108 -0.034729 0.023144
v 0.038350 -0.025142 0.014962
v 0.038540 -0.026532 0.016344
v 0.037492 -0.022750 0.016671
v 0.036711 -0.021617 0.018748
v 0.035267 -0.017636 0.011672
v 0.025925 0.001252 0.013198
v 0.035048 -0.016702 0.012793
v 0.036768 -0.020241 0.014631
v 0.037549 -0.022750 0.013253
v 0.038054 -0.024457 0.013253
v 0.026245 0.001252 0.019975
v 0.037682 -0.022750 0.014962
v 0.036727 -0.020182 0.016741
v 0.026326 0.001252 0.014947
v 0.026459 0.001252 0.016443
v 0.035093 -0.016599 0.014962
v 0.026479 0.001252 0.018457
f 1 2 5
f 1 5 10
f 1 10 25
f 1 25 45
f 1 45 81
f 1 81 123
f 1 123 171
f 1 171 184
f 1 184 154
f 1 154 109
f 1 109 67
f 1 67 46
f 1 46 28
f 1 28 13
f 1 13 6
f 1 6 3
f 1 3 4
f 1 4 2
f 2 4 5
f 3 6 7
f 3 7 4
f 4 7 8
f 4 8 9
f 4 9 5
f 5 9 10
f 6 11 12
f 6 12 7
f 6 13 11
f 7 14 31
f 7 31 54
f 7 54 94
f 7 94 110
f 7 110 68
f 7 68 39
f 7 39 22
f 7 22 8
f 7 12 15
f 7 15 16
f 7 16 17
f 7 17 18
f 7 18 19
f 7 19 20
f 7 20 21
f 7 21 14
f 8 22 23
f 8 23 24
f 8 24 9
f 9 24 10
f 10 24 25
f 11 13 26
f 11 26 27
f 11 27 20
f 11 20 19
f 11 19 18
f 11 18 17
f 11 17 16
f 11 16 15
f 11 15 12
f 13 28 26
f 14 29 30
f 14 30 31
f 14 21 32
f 14 32 33
f 14 33 34
f 14 34 35
f 14 35 36
f 14 36 37
f 14 37 29
f 20 27 21
f 21 27 38
f 21 38 32
f 22 39 23
f 23 39 24
f 24 40 41
f 24 41 42
f 24 42 43
f 24 43 25
f 24 39 44
f 24 44 40
f 25 43 45
f 26 28 46
f 26 46 38
f 26 38 27
f 29 37 47
f 29 47 48
f 29 48 30
f 30 48 49
f 30 49 31
f 31 49 50
f 31 50 51
f 31 51 52
f 31 52 53
f 31 53 54
f 32 38 55
f 32 55 56
f 32 56 57
f 32 57 58
f 32 58 59
f 32 59 33
f 33 59 60
f 33 60 34
f 34 60 61
f 34 61 62
f 34 62 63
f 34 63 35
f 35 63 64
f 35 64 36
f 36 64 37
f 37 65 47
f 37 64 66
f 37 66 65
f 38 46 67
f 38 67 55
f 39 68 44
f 40 44 69
f 40 69 70
f 40 70 41
f 41 71 42
f 41 70 71
f 42 72 73
f 42 73 43
f 42 71 74
f 42 74 72
f 43 73 75
f 43 75 76
f 43 76 77
f 43 77 78
f 43 78 79
f 43 79 80
f 43 80 45
f 44 68 69
f 45 80 81
f 47 82 48
f 47 65 82
f 48 83 50
f 48 50 49
f 48 82 84
f 48 84 85
f 48 85 86
f 48 86 87
f 48 87 88
f 48 88 83
f 50 83 51
f 51 83 89
f 51 89 90
f 51 90 91
f 51 91 52
f 52 92 53
f 52 91 92
f 53 92 54
f 54 93 94
f 54 92 93
f 55 67 56
f 56 67 95
f 56 95 57
f 57 95 96
f 57 96 97
f 57 97 98
f 57 98 58
f 58 98 99
f 58 99 59
f 59 99 60
f 60 100 101
f 60 101 61
f 60 99 100
f 61 101 102
f 61 102 103
f 61 103 62
f 62 103 63
f 63 103 64
f 64 103 104
f 64 104 66
f 65 84 82
f 65 66 105
f 65 105 106
f 65 106 84
f 66 104 107
f 66 107 108
f 66 108 105
f 67 109 95
f 68 110 69
f 69 111 70
f 69 110 94
f 69 94 93
f 69 93 111
f 70 111 112
f 70 112 113
f 70 113 71
f 71 114 74
f 71 113 115
f 71 115 114
f 72 74 116
f 72 116 73
f 73 117 160
f 73 160 204
f 73 204 237
f 73 237 250
f 73 250 256
f 73 256 254
f 73 254 253
f 73 253 245
f 73 245 225
f 73 225 223
f 73 223 222
f 73 222 221
f 73 221 190
f 73 190 187
f 73 187 139
f 73 139 186
f 73 186 185
f 73 185 168
f 73 168 122
f 73 122 120
f 73 120 76
f 73 76 75
f 73 116 118
f 73 118 119
f 73 119 117
f 74 114 118
f 74 118 116
f 76 120 121
f 76 121 79
f 76 79 78
f 76 78 77
f 79 121 80
f 80 121 81
f 81 121 120
f 81 120 122
f 81 122 123
f 83 88 89
f 84 106 124
f 84 124 85
f 85 124 86
f 86 124 125
f 86 125 126
f 86 126 87
f 87 126 127
f 87 127 88
f 88 128 129
f 88 129 130
f 88 130 89
f 88 127 131
f 88 131 128
f 89 130 132
f 89 132 90
f 90 132 133
f 90 133 134
f 90 134 91
f 91 134 92
f 92 134 135
f 92 135 111
f 92 111 93
f 95 136 96
f 95 109 136
f 96 136 137
f 96 137 138
f 96 138 139
f 96 139 140
f 96 140 141
f 96 141 97
f 97 141 100
f 97 100 98
f 98 100 99
f 100 141 140
f 100 140 142
f 100 142 101
f 101 142 143
f 101 143 102
f 102 143 144
f 102 144 145
f 102 145 103
f 103 145 146
f 103 146 104
f 104 146 147
f 104 147 148
f 104 148 107
f 105 108 149
f 105 149 106
f 106 149 124
f 107 150 151
f 107 151 108
f 107 148 152
f 107 152 150
f 108 151 153
f 108 153 149
f 109 154 136
f 111 135 134
f 111 134 112
f 112 134 155
f 112 155 113
f 113 155 115
f 114 115 156
f 114 156 157
f 114 157 158
f 114 158 118
f 115 155 159
f 115 159 156
f 117 119 161
f 117 161 162
f 117 162 160
f 118 158 163
f 118 163 164
f 118 164 165
f 118 165 166
f 118 166 119
f 119 166 167
f 119 167 161
f 122 168 169
f 122 169 170
f 122 170 123
f 123 170 171
f 124 149 172
f 124 172 173
f 124 173 125
f 125 173 126
f 126 173 174
f 126 174 175
f 126 175 127
f 127 175 131
f 128 176 177
f 128 177 178
f 128 178 179
f 128 179 129
f 128 131 176
f 129 179 180
f 129 180 181
f 129 181 132
f 129 132 130
f 131 175 182
f 131 182 183
f 131 183 176
f 132 181 133
f 133 181 155
f 133 155 134
f 136 154 137
f 137 154 184
f 137 184 171
f 137 171 169
f 137 169 185
f 137 185 186
f 137 186 138
f 138 186 139
f 139 187 140
f 140 188 143
f 140 143 142
f 140 187 188
f 143 188 144
f 144 189 145
f 144 188 187
f 144 187 190
f 144 190 189
f 145 189 191
f 145 191 146
f 146 191 147
f 147 191 192
f 147 192 193
f 147 193 148
f 148 193 194
f 148 194 195
f 148 195 152
f 149 153 196
f 149 196 172
f 150 197 198
f 150 198 151
f 150 152 199
f 150 199 200
f 150 200 197
f 151 198 196
f 151 196 153
f 152 195 199
f 155 181 159
f 156 159 181
f 156 181 201
f 156 201 157
f 157 201 202
f 157 202 203
f 157 203 158
f 158 203 163
f 160 162 205
f 160 205 206
f 160 206 204
f 161 205 162
f 161 167 207
f 161 207 208
f 161 208 209
f 161 209 205
f 163 210 165
f 163 165 164
f 163 203 210
f 165 210 166
f 166 210 167
f 167 210 203
f 167 203 211
f 167 211 207
f 168 185 169
f 169 171 170
f 172 196 173
f 173 196 212
f 173 212 213
f 173 213 174
f 174 213 175
f 175 213 214
f 175 214 182
f 176 183 215
f 176 215 177
f 177 215 216
f 177 216 178
f 178 217 179
f 178 216 217
f 179 217 180
f 180 217 201
f 180 201 181
f 182 214 218
f 182 218 183
f 183 218 219
f 183 219 220
f 183 220 215
f 189 190 221
f 189 221 222
f 189 222 191
f 191 222 223
f 191 223 192
f 192 224 193
f 192 223 225
f 192 225 224
f 193 224 226
f 193 226 227
f 193 227 228
f 193 228 194
f 194 228 229
f 194 229 195
f 195 229 199
f 196 198 212
f 197 230 231
f 197 231 232
f 197 232 198
f 197 200 230
f 198 232 212
f 199 229 233
f 199 233 200
f 200 233 234
f 200 234 230
f 201 217 235
f 201 235 202
f 202 235 236
f 202 236 203
f 203 236 211
f 204 206 238
f 204 238 237
f 205 209 206
f 206 209 238
f 207 211 236
f 207 236 208
f 208 236 239
f 208 239 209
f 209 239 215
f 209 215 220
f 209 220 238
f 212 232 231
f 212 231 213
f 213 231 218
f 213 218 214
f 215 239 216
f 216 239 235
f 216 235 217
f 218 231 230
f 218 230 234
f 218 234 240
f 218 240 241
f 218 241 219
f 219 241 242
f 219 242 243
f 219 243 220
f 220 243 238
f 224 244 226
f 224 225 245
f 224 245 244
f 226 244 246
f 226 246 247
f 226 247 227
f 227 248 228
f 227 247 248
f 228 248 229
f 229 249 233
f 229 248 249
f 233 249 240
f 233 240 234
f 235 239 236
f 237 238 243
f 237 243 250
f 240 249 251
f 240 251 242
f 240 242 241
f 242 251 252
f 242 252 243
f 243 252 250
f 244 245 246
f 245 253 246
f 246 253 254
f 246 254 255
f 246 255 247
f 247 252 251
f 247 251 248
f 247 255 252
f 248 251 249
f 250 252 256
f 252 255 256
f 254 256 255
