v 0.000640 0.001267 0.006409
v 0.007715 0.001252 0.021881
v 0.004628 0.001252 0.029602
v 0.000903 0.001267 0.008117
v 0.002455 0.007368 0.007254
v 0.004311 0.010487 0.005638
v 0.001702 0.001267 0.004939
v 0.008834 0.001252 0.020454
v 0.006774 0.001252 0.031210
v 0.006015 0.004183 0.031164
v 0.005877 0.006934 0.030125
v 0.012760 0.024399 0.029556
v 0.005788 0.015389 0.006852
v 0.007688 0.019114 0.005608
v 0.005846 0.014295 0.005465
v 0.027311 0.059345 0.004383
v 0.029024 0.062778 0.004310
v 0.030737 0.064480 0.004173
v 0.011979 0.001267 0.003933
v 0.014584 0.001252 0.015889
v 0.029024 0.064480 0.004475
v 0.011939 0.001252 0.030681
v 0.008299 0.003943 0.031293
v 0.007840 0.006349 0.031404
v 0.007478 0.008605 0.031312
v 0.010681 0.018290 0.030382
v 0.014397 0.028072 0.029656
v 0.016186 0.039743 0.007254
v 0.019612 0.046557 0.005533
v 0.027998 0.065769 0.005344
v 0.009325 0.022742 0.005508
v 0.010935 0.026288 0.005417
v 0.030737 0.066189 0.004265
v 0.032446 0.063633 0.004016
v 0.032446 0.061061 0.003989
v 0.014620 0.001267 0.003884
v 0.026365 0.001252 0.019178
v 0.017038 0.001267 0.004248
v 0.030063 0.068685 0.004952
v 0.013648 0.001252 0.030476
v 0.013648 0.008058 0.030913
v 0.012979 0.009767 0.031094
v 0.011939 0.014902 0.031415
v 0.008518 0.008058 0.031444
v 0.009383 0.012166 0.031385
v 0.011417 0.016881 0.031380
v 0.031504 0.066443 0.029572
v 0.033101 0.070904 0.028118
v 0.034649 0.076001 0.023508
v 0.034636 0.076795 0.020985
v 0.029791 0.070311 0.006644
v 0.032446 0.066189 0.004181
v 0.032446 0.069614 0.004753
v 0.032446 0.067898 0.004426
v 0.034159 0.063633 0.004030
v 0.034159 0.061061 0.004027
v 0.032446 0.055927 0.004011
v 0.034159 0.059345 0.004092
v 0.035863 0.061061 0.004243
v 0.025647 0.001252 0.021797
v 0.018778 0.001267 0.004836
v 0.020312 0.001267 0.005700
v 0.021771 0.001267 0.006865
v 0.022989 0.001267 0.008144
v 0.024853 0.001267 0.010793
v 0.026392 0.001267 0.015671
v 0.044548 0.054210 0.016674
v 0.045458 0.057171 0.018609
v 0.045226 0.057628 0.020840
v 0.035863 0.059345 0.004359
v 0.037571 0.061061 0.004658
v 0.037571 0.059345 0.004839
v 0.031785 0.072920 0.006649
v 0.031781 0.071263 0.005373
v 0.015356 0.001252 0.030252
v 0.015356 0.009767 0.030743
v 0.013759 0.018387 0.031320
v 0.034159 0.064472 0.030433
v 0.032446 0.061908 0.030560
v 0.017975 0.031063 0.031223
v 0.030737 0.061054 0.030481
v 0.033409 0.067898 0.030136
v 0.034435 0.069899 0.029602
v 0.033944 0.072350 0.027492
v 0.035292 0.074284 0.026505
v 0.035622 0.075506 0.025083
v 0.036157 0.077043 0.022739
v 0.035242 0.077807 0.018377
v 0.034636 0.077597 0.014961
v 0.033030 0.075971 0.011540
v 0.031647 0.073872 0.008298
v 0.034159 0.066189 0.004208
v 0.034159 0.069614 0.004947
v 0.034159 0.067898 0.004499
v 0.034159 0.071398 0.005554
v 0.035863 0.062778 0.004197
v 0.035863 0.064480 0.004262
v 0.024835 0.001252 0.023686
v 0.039262 0.059345 0.005570
v 0.041599 0.060259 0.006916
v 0.042384 0.057643 0.008368
v 0.043731 0.058768 0.009630
v 0.025946 0.001274 0.013248
v 0.043736 0.055777 0.011190
v 0.043633 0.053993 0.012258
v 0.045253 0.056804 0.015026
v 0.045199 0.056137 0.016674
v 0.046024 0.059352 0.018377
v 0.045846 0.059352 0.020087
v 0.045297 0.059367 0.021878
v 0.043700 0.057763 0.024196
v 0.037571 0.062778 0.004613
v 0.039503 0.061061 0.005452
v 0.033811 0.073640 0.006830
v 0.033793 0.075911 0.009606
v 0.017850 0.001252 0.029672
v 0.034159 0.055934 0.029998
v 0.017069 0.009767 0.030444
v 0.017069 0.011484 0.030541
v 0.032446 0.055934 0.030290
v 0.035867 0.064472 0.030096
v 0.034159 0.066189 0.030484
v 0.035867 0.061054 0.029950
v 0.035867 0.062763 0.030031
v 0.032446 0.064472 0.030460
v 0.036416 0.072763 0.027865
v 0.036652 0.067883 0.029640
v 0.037580 0.069442 0.028809
v 0.037393 0.075341 0.024981
v 0.037410 0.073684 0.026721
v 0.037683 0.077365 0.020087
v 0.038891 0.075214 0.023567
v 0.037776 0.077425 0.018377
v 0.035867 0.077830 0.014961
v 0.035238 0.077830 0.016672
v 0.035305 0.077380 0.012895
v 0.035863 0.066189 0.004459
v 0.035863 0.067898 0.004801
v 0.035903 0.073122 0.007211
v 0.036541 0.069674 0.005622
v 0.037571 0.064480 0.004677
v 0.023569 0.001252 0.025733
v 0.043254 0.060799 0.008460
v 0.041519 0.062778 0.006693
v 0.045257 0.059300 0.012393
v 0.044485 0.057628 0.011540
v 0.044356 0.061061 0.009997
v 0.044597 0.055919 0.013248
v 0.045221 0.057861 0.013475
v 0.045819 0.058678 0.015851
v 0.046212 0.061908 0.018377
v 0.046038 0.061054 0.020087
v 0.044521 0.059352 0.023508
v 0.045070 0.061054 0.022809
v 0.043455 0.059352 0.025129
v 0.039556 0.062778 0.005433
v 0.035778 0.075641 0.009517
v 0.034707 0.054210 0.029729
v 0.021597 0.001252 0.027624
v 0.039284 0.059352 0.028512
v 0.037803 0.059352 0.029243
v 0.037620 0.061054 0.029502
v 0.036407 0.059352 0.029704
v 0.037700 0.066189 0.029526
v 0.035867 0.066189 0.030096
v 0.038530 0.062763 0.029232
v 0.038075 0.071346 0.027765
v 0.039284 0.066189 0.028744
v 0.039632 0.068437 0.027975
v 0.038923 0.073744 0.025288
v 0.040065 0.070904 0.026413
v 0.039806 0.075311 0.022113
v 0.039735 0.075978 0.020311
v 0.039288 0.076428 0.018377
v 0.040546 0.073055 0.024161
v 0.037754 0.077410 0.016672
v 0.037553 0.077298 0.014961
v 0.037665 0.075686 0.011093
v 0.037571 0.066189 0.004931
v 0.037990 0.067838 0.005546
v 0.037678 0.073527 0.008481
v 0.038088 0.071428 0.007227
v 0.039244 0.069509 0.006903
v 0.039436 0.064480 0.005487
v 0.041929 0.057388 0.026146
v 0.042897 0.062778 0.008071
v 0.043673 0.064247 0.009153
v 0.044213 0.062778 0.009827
v 0.041430 0.065192 0.006970
v 0.045449 0.061061 0.012444
v 0.045208 0.062778 0.011665
v 0.046091 0.062763 0.020087
v 0.045824 0.064465 0.014958
v 0.046006 0.064472 0.016674
v 0.046176 0.064472 0.018377
v 0.043593 0.061054 0.025302
v 0.045021 0.063580 0.022998
v 0.043624 0.062763 0.025348
v 0.042241 0.059352 0.026427
v 0.038285 0.052089 0.027681
v 0.040707 0.059112 0.027568
v 0.040957 0.061054 0.027746
v 0.039284 0.061054 0.028787
v 0.038548 0.064472 0.029232
v 0.041055 0.062763 0.027808
v 0.040890 0.066189 0.027668
v 0.041033 0.064472 0.027786
v 0.041532 0.067755 0.026626
v 0.041497 0.071008 0.024886
v 0.041956 0.069239 0.025501
v 0.040600 0.074741 0.021646
v 0.042228 0.073647 0.019178
v 0.040707 0.075326 0.018377
v 0.039752 0.076076 0.016453
v 0.041965 0.071953 0.023284
v 0.041889 0.073085 0.021797
v 0.039735 0.075821 0.014643
v 0.039007 0.075693 0.012698
v 0.039610 0.074172 0.011014
v 0.039168 0.066189 0.005632
v 0.039369 0.072058 0.008527
v 0.039788 0.070019 0.007507
v 0.041492 0.068625 0.008252
v 0.042531 0.066189 0.008257
v 0.043682 0.066294 0.009663
v 0.044766 0.066264 0.011651
v 0.045418 0.064704 0.012657
v 0.046006 0.064472 0.020087
v 0.045806 0.066354 0.015587
v 0.045971 0.066189 0.018377
v 0.042393 0.061054 0.026575
v 0.042442 0.062763 0.026634
v 0.045297 0.065372 0.021948
v 0.044396 0.066189 0.023508
v 0.043584 0.064472 0.025294
v 0.042424 0.064472 0.026615
v 0.042241 0.066189 0.026475
v 0.043486 0.069359 0.023289
v 0.043303 0.066991 0.024873
v 0.043629 0.071466 0.020087
v 0.043745 0.071646 0.018377
v 0.042777 0.073040 0.016672
v 0.041537 0.074359 0.015849
v 0.043589 0.070514 0.021876
v 0.040711 0.074464 0.013251
v 0.041626 0.072260 0.011381
v 0.042241 0.069884 0.009854
v 0.043825 0.068175 0.010920
v 0.045199 0.066968 0.013329
v 0.045440 0.066923 0.020411
v 0.044976 0.068947 0.015301
v 0.045212 0.068677 0.018166
v 0.044624 0.069442 0.020087
v 0.043696 0.071556 0.015719
v 0.041911 0.073130 0.013251
v 0.043589 0.069794 0.011907
f 1 2 3
f 1 3 4
f 1 4 5
f 1 5 6
f 1 6 7
f 1 7 2
f 2 8 20
f 2 20 37
f 2 37 60
f 2 60 98
f 2 98 142
f 2 142 159
f 2 159 116
f 2 116 75
f 2 75 40
f 2 40 22
f 2 22 9
f 2 9 3
f 2 7 8
f 3 9 10
f 3 10 11
f 3 11 4
f 4 11 5
f 5 11 12
f 5 12 13
f 5 13 14
f 5 14 15
f 5 15 6
f 6 15 7
f 7 16 17
f 7 17 18
f 7 18 19
f 7 19 20
f 7 20 8
f 7 15 21
f 7 21 16
f 9 22 23
f 9 23 24
f 9 24 10
f 10 24 25
f 10 25 11
f 11 25 26
f 11 26 12
f 12 27 28
f 12 28 13
f 12 26 27
f 13 28 14
f 14 28 29
f 14 29 30
f 14 30 31
f 14 31 15
f 15 31 32
f 15 32 21
f 16 21 17
f 17 21 33
f 17 33 18
f 18 33 34
f 18 34 19
f 19 34 35
f 19 35 36
f 19 36 20
f 20 36 38
f 20 38 37
f 21 30 39
f 21 39 33
f 21 32 30
f 22 40 23
f 23 40 41
f 23 41 42
f 23 42 43
f 23 43 44
f 23 44 24
f 24 44 25
f 25 44 45
f 25 45 46
f 25 46 47
f 25 47 26
f 26 47 27
f 27 47 48
f 27 48 49
f 27 49 28
f 28 49 50
f 28 50 51
f 28 51 30
f 28 30 29
f 30 51 39
f 30 32 31
f 33 52 34
f 33 39 53
f 33 53 54
f 33 54 52
f 34 55 35
f 34 52 55
f 35 55 56
f 35 56 57
f 35 57 36
f 36 57 56
f 36 56 58
f 36 58 59
f 36 59 38
f 37 38 61
f 37 61 62
f 37 62 63
f 37 63 64
f 37 64 65
f 37 65 66
f 37 66 67
f 37 67 68
f 37 68 69
f 37 69 60
f 38 59 70
f 38 70 71
f 38 71 72
f 38 72 61
f 39 51 73
f 39 73 74
f 39 74 53
f 40 75 41
f 41 76 42
f 41 75 76
f 42 77 43
f 42 76 78
f 42 78 79
f 42 79 77
f 43 77 79
f 43 79 80
f 43 80 46
f 43 46 44
f 44 46 45
f 46 80 81
f 46 81 47
f 47 82 48
f 47 81 82
f 48 82 83
f 48 83 84
f 48 84 49
f 49 84 85
f 49 85 86
f 49 86 87
f 49 87 50
f 50 87 88
f 50 88 89
f 50 89 90
f 50 90 51
f 51 90 91
f 51 91 73
f 52 54 92
f 52 92 55
f 53 93 94
f 53 94 54
f 53 74 95
f 53 95 93
f 54 94 92
f 55 96 56
f 55 92 97
f 55 97 96
f 56 96 59
f 56 59 58
f 59 96 112
f 59 112 71
f 59 71 70
f 60 69 98
f 61 72 99
f 61 99 62
f 62 99 100
f 62 100 63
f 63 100 101
f 63 101 64
f 64 101 102
f 64 102 65
f 65 103 66
f 65 102 104
f 65 104 105
f 65 105 103
f 66 103 106
f 66 106 67
f 67 106 107
f 67 107 68
f 68 107 108
f 68 108 109
f 68 109 69
f 69 109 110
f 69 110 111
f 69 111 98
f 71 112 113
f 71 113 72
f 72 113 99
f 73 114 74
f 73 91 115
f 73 115 114
f 74 114 95
f 75 116 117
f 75 117 118
f 75 118 76
f 76 118 119
f 76 119 117
f 76 117 120
f 76 120 78
f 78 121 122
f 78 122 79
f 78 120 117
f 78 117 123
f 78 123 124
f 78 124 121
f 79 122 80
f 80 122 125
f 80 125 81
f 81 125 82
f 82 125 122
f 82 122 83
f 83 126 85
f 83 85 84
f 83 122 127
f 83 127 128
f 83 128 126
f 85 129 86
f 85 126 130
f 85 130 129
f 86 129 87
f 87 131 88
f 87 129 132
f 87 132 131
f 88 131 133
f 88 133 134
f 88 134 135
f 88 135 89
f 89 135 134
f 89 134 136
f 89 136 115
f 89 115 90
f 90 115 91
f 92 94 137
f 92 137 97
f 93 138 94
f 93 95 138
f 94 138 137
f 95 114 139
f 95 139 140
f 95 140 138
f 96 97 141
f 96 141 112
f 97 137 141
f 98 111 142
f 99 113 100
f 100 143 101
f 100 113 144
f 100 144 143
f 101 143 102
f 102 145 146
f 102 146 104
f 102 143 147
f 102 147 145
f 103 105 148
f 103 148 106
f 104 146 105
f 105 146 148
f 106 149 150
f 106 150 107
f 106 148 149
f 107 150 108
f 108 150 151
f 108 151 152
f 108 152 109
f 109 152 110
f 110 153 111
f 110 152 154
f 110 154 153
f 111 153 155
f 111 155 142
f 112 156 113
f 112 141 156
f 113 156 144
f 114 115 157
f 114 157 139
f 115 136 157
f 116 158 117
f 116 159 160
f 116 160 161
f 116 161 162
f 116 162 158
f 117 119 118
f 117 158 163
f 117 163 123
f 121 164 165
f 121 165 122
f 121 124 162
f 121 162 166
f 121 166 164
f 122 165 127
f 123 163 162
f 123 162 124
f 126 128 167
f 126 167 130
f 127 165 164
f 127 164 168
f 127 168 128
f 128 168 169
f 128 169 167
f 129 130 170
f 129 170 132
f 130 167 171
f 130 171 170
f 131 132 172
f 131 172 173
f 131 173 174
f 131 174 133
f 132 170 175
f 132 175 172
f 133 174 176
f 133 176 134
f 134 176 177
f 134 177 136
f 136 177 178
f 136 178 157
f 137 138 179
f 137 179 141
f 138 140 180
f 138 180 179
f 139 157 181
f 139 181 182
f 139 182 140
f 140 183 180
f 140 182 183
f 141 179 184
f 141 184 156
f 142 155 185
f 142 185 159
f 143 144 186
f 143 186 187
f 143 187 188
f 143 188 147
f 144 156 184
f 144 184 189
f 144 189 186
f 145 150 149
f 145 149 148
f 145 148 146
f 145 147 190
f 145 190 150
f 147 188 191
f 147 191 190
f 150 190 151
f 151 192 152
f 151 190 193
f 151 193 194
f 151 194 195
f 151 195 192
f 152 192 154
f 153 154 196
f 153 196 155
f 154 192 197
f 154 197 198
f 154 198 196
f 155 199 185
f 155 196 199
f 157 178 181
f 158 162 163
f 159 185 199
f 159 199 200
f 159 200 160
f 160 201 202
f 160 202 203
f 160 203 161
f 160 200 201
f 161 203 162
f 162 203 166
f 164 166 204
f 164 204 168
f 166 203 205
f 166 205 204
f 167 169 171
f 168 206 169
f 168 204 207
f 168 207 206
f 169 206 208
f 169 208 171
f 170 171 209
f 170 209 175
f 171 208 210
f 171 210 209
f 172 175 211
f 172 211 173
f 173 211 212
f 173 212 213
f 173 213 174
f 174 213 214
f 174 214 176
f 175 215 216
f 175 216 211
f 175 209 215
f 176 214 177
f 177 214 217
f 177 217 218
f 177 218 178
f 178 218 219
f 178 219 181
f 179 180 220
f 179 220 184
f 180 183 220
f 181 221 182
f 181 219 221
f 182 221 222
f 182 222 183
f 183 223 220
f 183 222 223
f 184 220 189
f 186 189 224
f 186 224 187
f 187 224 225
f 187 225 226
f 187 226 191
f 187 191 188
f 189 220 223
f 189 223 224
f 190 191 227
f 190 227 193
f 191 226 227
f 192 195 228
f 192 228 197
f 193 227 229
f 193 229 194
f 194 229 195
f 195 229 230
f 195 230 228
f 196 231 199
f 196 198 232
f 196 232 231
f 197 228 233
f 197 233 234
f 197 234 235
f 197 235 198
f 198 235 236
f 198 236 232
f 199 201 200
f 199 231 202
f 199 202 201
f 202 231 205
f 202 205 203
f 204 205 207
f 205 231 232
f 205 232 236
f 205 236 207
f 206 207 236
f 206 236 237
f 206 237 208
f 208 237 210
f 209 210 238
f 209 238 215
f 210 237 239
f 210 239 238
f 211 216 212
f 212 216 240
f 212 240 241
f 212 241 242
f 212 242 213
f 213 242 243
f 213 243 214
f 214 243 217
f 215 238 244
f 215 244 216
f 216 244 240
f 217 243 245
f 217 245 218
f 218 245 219
f 219 245 246
f 219 246 221
f 221 246 247
f 221 247 222
f 222 247 223
f 223 225 224
f 223 247 225
f 225 247 248
f 225 248 226
f 226 248 249
f 226 249 227
f 227 249 229
f 228 230 250
f 228 250 233
f 229 249 251
f 229 251 252
f 229 252 230
f 230 252 250
f 233 250 238
f 233 238 234
f 234 238 239
f 234 239 235
f 235 239 237
f 235 237 236
f 238 250 244
f 240 244 253
f 240 253 241
f 241 252 254
f 241 254 242
f 241 253 252
f 242 254 255
f 242 255 243
f 243 255 245
f 244 250 253
f 245 255 246
f 246 255 256
f 246 256 247
f 247 256 248
f 248 256 249
f 249 256 251
f 250 252 253
f 251 256 254
f 251 254 252
f 254 256 255
