v -0.041292 -0.034750 0.020083
v -0.041256 -0.034750 0.018375
v -0.041269 -0.036454 0.020083
v -0.041165 -0.034750 0.021792
v -0.041142 -0.033027 0.021792
v -0.041251 -0.033027 0.020083
v -0.041151 -0.038164 0.018375
v -0.041215 -0.033027 0.018375
v -0.040979 -0.033027 0.016667
v -0.040888 -0.039875 0.016667
v -0.041183 -0.038164 0.020083
v -0.041119 -0.036454 0.021792
v -0.040870 -0.034750 0.023506
v -0.040842 -0.033027 0.023506
v -0.041028 -0.031213 0.021792
v -0.041119 -0.031213 0.020083
v -0.041015 -0.039875 0.018375
v -0.041051 -0.031213 0.018428
v -0.040765 -0.031213 0.016723
v -0.040257 -0.031213 0.015039
v -0.040347 -0.033027 0.014706
v -0.040338 -0.039502 0.014274
v -0.040384 -0.041414 0.015023
v -0.040506 -0.042153 0.016408
v -0.040770 -0.041585 0.018375
v -0.040983 -0.039875 0.020083
v -0.040806 -0.039875 0.021792
v -0.040979 -0.038164 0.021792
v -0.040774 -0.036454 0.023506
v -0.040320 -0.034078 0.025140
v -0.040207 -0.031213 0.024988
v -0.040674 -0.031158 0.023606
v -0.039298 -0.031213 0.013029
v -0.039507 -0.033027 0.013029
v -0.039807 -0.039960 0.013001
v -0.039684 -0.041414 0.013113
v -0.037795 -0.048513 0.011367
v -0.038536 -0.048226 0.013452
v -0.040202 -0.044304 0.018282
v -0.038617 -0.049160 0.014992
v -0.039103 -0.048299 0.016800
v -0.040715 -0.041585 0.020083
v -0.040243 -0.044145 0.020055
v -0.040561 -0.041585 0.021792
v -0.040238 -0.041915 0.023466
v -0.040356 -0.040095 0.024076
v -0.039852 -0.041439 0.025190
v -0.035434 -0.048299 0.029929
v -0.034127 -0.048299 0.031065
v -0.028260 -0.031103 0.025131
v -0.032551 -0.048299 0.031918
v -0.030830 -0.048299 0.032412
v -0.029132 -0.048299 0.032506
v -0.028664 -0.031103 0.012808
v -0.017308 -0.048158 0.004658
v -0.018874 -0.048158 0.004817
v -0.022507 -0.048158 0.005271
v -0.023864 -0.048158 0.005445
v -0.029395 -0.048158 0.006186
v -0.030907 -0.048293 0.006388
v -0.032596 -0.048293 0.006715
v -0.034240 -0.048293 0.007337
v -0.035784 -0.048293 0.008423
v -0.036928 -0.048293 0.009699
v -0.036656 -0.050357 0.010076
v -0.034971 -0.054994 0.010371
v -0.039625 -0.046717 0.018375
v -0.037809 -0.051854 0.016667
v -0.038517 -0.050119 0.016667
v -0.035026 -0.055959 0.012014
v -0.035984 -0.055269 0.014961
v -0.039162 -0.048299 0.018440
v -0.040252 -0.043357 0.021792
v -0.039612 -0.046717 0.020083
v -0.039471 -0.046717 0.021792
v -0.039889 -0.045000 0.021792
v -0.038399 -0.047993 0.024776
v -0.036992 -0.048635 0.027518
v -0.034699 -0.050180 0.029929
v -0.033459 -0.051848 0.030455
v -0.033168 -0.050266 0.031267
v -0.028028 -0.031103 0.023537
v -0.027411 -0.048299 0.032353
v -0.022275 -0.048164 0.031768
v -0.015460 -0.048164 0.030947
v -0.013752 -0.048164 0.030452
v -0.012395 -0.048164 0.029213
v -0.032151 -0.051848 0.031460
v -0.030830 -0.051848 0.031949
v -0.030830 -0.050138 0.032201
v -0.029132 -0.053558 0.032073
v -0.029132 -0.051848 0.032235
v -0.029132 -0.050138 0.032372
v -0.027411 -0.055269 0.031964
v -0.027411 -0.053558 0.032083
v -0.025699 -0.056985 0.031778
v -0.027411 -0.051848 0.032188
v 0.002962 -0.087743 0.027981
v 0.005096 -0.079191 0.028255
v -0.027888 -0.031103 0.018375
v -0.014928 -0.048158 0.005451
v -0.011019 -0.055947 0.003774
v -0.012908 -0.054408 0.003840
v -0.004348 -0.067914 0.002103
v -0.010329 -0.060394 0.003136
v -0.015460 -0.053558 0.004113
v -0.001796 -0.086008 0.000715
v -0.029123 -0.053558 0.005928
v -0.030839 -0.050138 0.006320
v -0.030839 -0.051848 0.006273
v -0.030839 -0.053558 0.006239
v -0.032551 -0.050138 0.006715
v -0.033668 -0.050138 0.007119
v -0.034522 -0.050138 0.007664
v -0.035557 -0.050138 0.008520
v -0.035244 -0.052349 0.008812
v -0.034958 -0.054004 0.009298
v -0.033573 -0.056454 0.008744
v -0.033373 -0.057755 0.009908
v -0.036451 -0.054750 0.016667
v -0.037877 -0.051854 0.018372
v -0.038549 -0.050205 0.018372
v -0.035194 -0.056265 0.013626
v -0.035035 -0.056869 0.014961
v -0.035121 -0.057016 0.016667
v -0.039130 -0.048299 0.020149
v -0.038558 -0.049343 0.021944
v -0.038558 -0.048537 0.023503
v -0.037809 -0.050162 0.023802
v -0.037024 -0.050968 0.025255
v -0.037051 -0.049783 0.026568
v -0.033096 -0.055385 0.028750
v -0.033041 -0.053705 0.030001
v -0.031511 -0.053809 0.031302
v -0.027860 -0.031103 0.021792
v 0.005096 -0.076851 0.028165
v -0.000643 -0.066008 0.026120
v 0.005096 -0.074921 0.021443
v -0.027783 -0.031103 0.020083
v 0.005096 -0.075342 0.026880
v -0.029132 -0.055269 0.031821
v -0.027411 -0.056985 0.031796
v -0.025699 -0.058696 0.031638
v 0.001682 -0.088177 0.027813
v 0.005087 -0.091164 0.027387
v -0.023987 -0.061591 0.031255
v -0.025581 -0.061109 0.031252
v 0.005092 -0.092740 0.026565
v 0.005096 -0.093449 0.025106
v -0.002455 -0.066772 0.003609
v -0.005901 -0.061866 0.003812
v -0.002114 -0.069918 0.002097
v -0.001796 -0.074035 0.001475
v -0.001796 -0.075745 0.001303
v -0.006905 -0.065513 0.002473
v 0.005087 -0.093412 0.021443
v -0.001796 -0.087535 0.000890
v -0.026612 -0.062190 0.005545
v -0.026861 -0.060394 0.005486
v -0.029123 -0.055269 0.005903
v -0.029123 -0.056979 0.005915
v -0.030839 -0.055269 0.006289
v -0.033028 -0.052111 0.006976
v -0.032637 -0.053503 0.006908
v -0.033282 -0.054035 0.007365
v -0.033455 -0.055269 0.008022
v -0.031429 -0.058989 0.007639
v -0.031802 -0.059686 0.008778
v -0.036937 -0.053797 0.018372
v -0.035121 -0.057010 0.018372
v -0.036143 -0.055269 0.018372
v -0.037709 -0.051854 0.020077
v -0.038495 -0.050070 0.020077
v -0.036347 -0.054676 0.020108
v -0.031307 -0.060706 0.009827
v -0.031411 -0.061781 0.014728
v -0.033682 -0.059075 0.016667
v -0.033518 -0.059380 0.018633
v -0.036569 -0.053846 0.021792
v -0.036751 -0.052618 0.023463
v -0.035189 -0.055556 0.023612
v -0.033818 -0.056998 0.025153
v -0.033327 -0.056375 0.027228
v -0.031670 -0.057780 0.028619
v -0.032038 -0.055837 0.029870
v -0.030789 -0.055538 0.031127
v -0.029132 -0.056943 0.031466
v 0.005096 -0.074902 0.025221
v 0.005096 -0.093504 0.023503
v -0.001796 -0.068928 0.002978
v -0.026943 -0.059991 0.031314
v -0.005956 -0.083418 0.027748
v 0.000429 -0.090602 0.026357
v 0.003480 -0.092453 0.025825
v -0.000103 -0.090712 0.025115
v 0.003362 -0.092752 0.023509
v -0.002310 -0.090382 0.003254
v -0.001796 -0.089625 0.001534
v -0.003036 -0.089105 0.001885
v -0.006078 -0.085220 0.002106
v -0.024959 -0.064792 0.005492
v -0.030848 -0.058525 0.006880
v -0.029123 -0.058690 0.006030
v -0.032215 -0.055269 0.006908
v -0.030090 -0.060547 0.007207
v -0.028496 -0.062557 0.007057
v -0.030231 -0.061543 0.008538
v -0.030099 -0.062263 0.009827
v -0.035044 -0.056894 0.020136
v -0.035816 -0.055275 0.021792
v -0.029908 -0.062874 0.011062
v -0.031479 -0.061866 0.016667
v -0.032674 -0.060406 0.016667
v -0.030058 -0.063033 0.012727
v -0.029804 -0.063620 0.014961
v -0.031466 -0.061866 0.018372
v -0.031379 -0.061756 0.020307
v -0.033314 -0.059447 0.020195
v -0.034903 -0.056680 0.022022
v -0.033554 -0.058048 0.023911
v -0.033218 -0.057584 0.025678
v -0.028001 -0.062673 0.028103
v -0.028537 -0.060871 0.029746
v -0.029722 -0.058928 0.030100
v -0.030812 -0.056949 0.030368
v -0.029704 -0.057486 0.031034
v -0.028051 -0.058934 0.031267
v -0.002696 -0.090370 0.008591
v -0.002696 -0.090358 0.006407
v -0.027474 -0.060498 0.030838
v -0.024909 -0.064719 0.029543
v -0.007781 -0.081775 0.027801
v -0.000711 -0.090077 0.025616
v -0.000997 -0.090388 0.023992
v -0.001134 -0.090480 0.021798
v -0.003504 -0.089661 0.004698
v -0.004530 -0.088800 0.004101
v -0.031316 -0.057199 0.006846
v -0.029826 -0.063656 0.016667
v -0.030240 -0.063210 0.018372
v -0.028537 -0.064921 0.014961
v -0.031888 -0.060816 0.021894
v -0.030081 -0.063045 0.021421
v -0.033477 -0.058806 0.021792
v -0.029899 -0.062825 0.023030
v -0.028555 -0.063241 0.025822
v -0.026925 -0.064188 0.027228
v -0.026448 -0.063705 0.028871
v -0.027293 -0.061989 0.029901
v -0.029722 -0.063571 0.020108
v -0.028941 -0.064481 0.018372
v -0.028560 -0.064945 0.016667
v -0.028932 -0.063607 0.023802
v -0.028178 -0.064579 0.023021
v -0.028346 -0.064719 0.021400
f 1 2 3
f 1 3 4
f 1 4 5
f 1 5 6
f 1 6 8
f 1 8 2
f 2 7 3
f 2 8 9
f 2 9 10
f 2 10 7
f 3 7 11
f 3 11 12
f 3 12 4
f 4 13 5
f 4 12 13
f 5 14 15
f 5 15 6
f 5 13 14
f 6 15 16
f 6 16 8
f 7 10 17
f 7 17 11
f 8 16 18
f 8 18 9
f 9 18 19
f 9 19 20
f 9 20 21
f 9 21 22
f 9 22 10
f 10 22 23
f 10 23 24
f 10 24 25
f 10 25 17
f 11 17 26
f 11 26 27
f 11 27 28
f 11 28 12
f 12 28 29
f 12 29 13
f 13 30 14
f 13 29 30
f 14 30 31
f 14 31 32
f 14 32 15
f 15 32 16
f 16 32 18
f 17 25 26
f 18 32 19
f 19 32 20
f 20 32 33
f 20 33 21
f 21 33 34
f 21 34 35
f 21 35 22
f 22 35 36
f 22 36 23
f 23 36 37
f 23 37 38
f 23 38 24
f 24 39 25
f 24 38 40
f 24 40 41
f 24 41 39
f 25 42 26
f 25 39 43
f 25 43 42
f 26 42 44
f 26 44 27
f 27 44 45
f 27 45 46
f 27 46 28
f 28 46 29
f 29 46 30
f 30 46 47
f 30 47 48
f 30 48 49
f 30 49 31
f 31 50 32
f 31 49 51
f 31 51 52
f 31 52 53
f 31 53 50
f 32 50 54
f 32 54 33
f 33 54 55
f 33 55 56
f 33 56 57
f 33 57 58
f 33 58 59
f 33 59 60
f 33 60 61
f 33 61 62
f 33 62 63
f 33 63 34
f 34 63 35
f 35 63 64
f 35 64 36
f 36 64 37
f 37 64 65
f 37 65 66
f 37 66 38
f 38 66 40
f 39 67 43
f 39 41 67
f 40 68 69
f 40 69 41
f 40 66 70
f 40 70 71
f 40 71 68
f 41 69 72
f 41 72 67
f 42 43 73
f 42 73 44
f 43 67 74
f 43 74 75
f 43 75 76
f 43 76 73
f 44 73 45
f 45 73 76
f 45 76 75
f 45 75 77
f 45 77 47
f 45 47 46
f 47 77 78
f 47 78 48
f 48 78 79
f 48 79 80
f 48 80 81
f 48 81 49
f 49 81 51
f 50 82 135
f 50 135 139
f 50 139 100
f 50 100 54
f 50 53 83
f 50 83 84
f 50 84 85
f 50 85 86
f 50 86 87
f 50 87 82
f 51 81 88
f 51 88 89
f 51 89 90
f 51 90 52
f 52 90 91
f 52 91 92
f 52 92 93
f 52 93 53
f 53 93 94
f 53 94 95
f 53 95 96
f 53 96 97
f 53 97 98
f 53 98 99
f 53 99 83
f 54 100 101
f 54 101 55
f 55 101 102
f 55 102 103
f 55 103 104
f 55 104 105
f 55 105 56
f 56 105 106
f 56 106 107
f 56 107 57
f 57 107 58
f 58 107 59
f 59 107 60
f 60 108 109
f 60 109 61
f 60 107 108
f 61 109 110
f 61 110 111
f 61 111 112
f 61 112 113
f 61 113 62
f 62 113 114
f 62 114 63
f 63 114 115
f 63 115 64
f 64 115 116
f 64 116 65
f 65 116 117
f 65 117 66
f 66 118 119
f 66 119 70
f 66 117 118
f 67 72 74
f 68 120 121
f 68 121 69
f 68 71 120
f 69 121 122
f 69 122 72
f 70 123 71
f 70 119 123
f 71 123 124
f 71 124 125
f 71 125 120
f 72 122 126
f 72 126 74
f 74 126 75
f 75 126 127
f 75 127 128
f 75 128 77
f 77 128 129
f 77 129 130
f 77 130 131
f 77 131 78
f 78 131 132
f 78 132 133
f 78 133 79
f 79 133 80
f 80 133 134
f 80 134 81
f 81 134 88
f 82 87 135
f 83 99 84
f 84 99 85
f 85 99 136
f 85 136 86
f 86 136 87
f 87 137 138
f 87 138 101
f 87 101 100
f 87 100 139
f 87 139 135
f 87 136 140
f 87 140 137
f 88 134 89
f 89 134 141
f 89 141 91
f 89 91 90
f 91 141 142
f 91 142 94
f 91 94 92
f 92 94 93
f 94 142 143
f 94 143 96
f 94 96 95
f 96 143 98
f 96 98 97
f 98 144 145
f 98 145 99
f 98 143 146
f 98 146 147
f 98 147 144
f 99 145 148
f 99 148 149
f 99 149 189
f 99 189 138
f 99 138 188
f 99 188 140
f 99 140 136
f 101 138 150
f 101 150 151
f 101 151 102
f 102 151 152
f 102 152 104
f 102 104 103
f 104 152 153
f 104 153 154
f 104 154 155
f 104 155 105
f 105 155 154
f 105 154 107
f 105 107 106
f 107 154 138
f 107 138 156
f 107 156 157
f 107 157 158
f 107 158 159
f 107 159 160
f 107 160 108
f 108 111 110
f 108 110 109
f 108 160 111
f 111 160 161
f 111 161 162
f 111 162 112
f 112 162 113
f 113 163 164
f 113 164 165
f 113 165 114
f 113 162 163
f 114 165 115
f 115 165 116
f 116 165 166
f 116 166 118
f 116 118 117
f 118 166 167
f 118 167 168
f 118 168 119
f 119 168 123
f 120 169 121
f 120 125 170
f 120 170 171
f 120 171 169
f 121 172 173
f 121 173 122
f 121 169 174
f 121 174 172
f 122 173 126
f 123 168 175
f 123 175 124
f 124 175 176
f 124 176 177
f 124 177 125
f 125 177 178
f 125 178 170
f 126 173 127
f 127 173 172
f 127 172 179
f 127 179 129
f 127 129 128
f 129 179 180
f 129 180 130
f 130 180 181
f 130 181 182
f 130 182 183
f 130 183 131
f 131 183 132
f 132 183 184
f 132 184 185
f 132 185 133
f 133 185 186
f 133 186 134
f 134 186 187
f 134 187 141
f 137 140 188
f 137 188 138
f 138 189 156
f 138 154 153
f 138 153 190
f 138 190 150
f 141 187 191
f 141 191 142
f 142 191 147
f 142 147 143
f 143 147 146
f 144 192 193
f 144 193 145
f 144 147 192
f 145 193 148
f 147 191 192
f 148 194 149
f 148 193 194
f 149 194 195
f 149 195 196
f 149 196 189
f 150 190 152
f 150 152 151
f 152 190 153
f 156 189 197
f 156 197 198
f 156 198 157
f 157 198 199
f 157 199 200
f 157 200 158
f 158 200 201
f 158 201 202
f 158 202 203
f 158 203 159
f 159 203 162
f 159 162 161
f 159 161 160
f 162 203 204
f 162 204 164
f 162 164 163
f 164 204 165
f 165 204 202
f 165 202 166
f 166 202 167
f 167 202 205
f 167 205 168
f 168 205 206
f 168 206 207
f 168 207 208
f 168 208 175
f 169 171 174
f 170 209 171
f 170 178 209
f 171 209 174
f 172 174 179
f 174 209 210
f 174 210 179
f 175 208 211
f 175 211 176
f 176 212 213
f 176 213 177
f 176 211 214
f 176 214 215
f 176 215 212
f 177 213 178
f 178 213 212
f 178 212 216
f 178 216 217
f 178 217 218
f 178 218 209
f 179 210 181
f 179 181 180
f 181 210 219
f 181 219 220
f 181 220 182
f 182 220 221
f 182 221 183
f 183 221 184
f 184 221 222
f 184 222 223
f 184 223 224
f 184 224 185
f 185 225 186
f 185 224 225
f 186 225 226
f 186 226 187
f 187 226 227
f 187 227 191
f 189 196 228
f 189 228 229
f 189 229 197
f 191 227 230
f 191 230 192
f 192 231 232
f 192 232 193
f 192 230 231
f 193 233 195
f 193 195 194
f 193 232 231
f 193 231 233
f 195 233 234
f 195 234 196
f 196 234 235
f 196 235 228
f 197 229 236
f 197 236 237
f 197 237 199
f 197 199 198
f 199 237 207
f 199 207 206
f 199 206 201
f 199 201 200
f 201 206 205
f 201 205 202
f 202 204 238
f 202 238 203
f 203 238 204
f 207 237 208
f 208 237 211
f 209 219 210
f 209 218 219
f 211 237 214
f 212 215 239
f 212 239 240
f 212 240 216
f 214 237 215
f 215 237 241
f 215 241 239
f 216 240 217
f 217 242 218
f 217 240 243
f 217 243 242
f 218 244 219
f 218 242 244
f 219 244 220
f 220 244 242
f 220 242 245
f 220 245 246
f 220 246 221
f 221 246 222
f 222 246 247
f 222 247 233
f 222 233 248
f 222 248 223
f 223 230 224
f 223 248 231
f 223 231 249
f 223 249 230
f 224 230 226
f 224 226 225
f 226 230 227
f 228 235 234
f 228 234 250
f 228 250 251
f 228 251 252
f 228 252 237
f 228 237 229
f 229 237 236
f 230 249 231
f 231 248 233
f 233 247 246
f 233 246 234
f 234 246 253
f 234 253 254
f 234 254 255
f 234 255 250
f 237 252 241
f 239 241 252
f 239 252 240
f 240 252 251
f 240 251 250
f 240 250 243
f 242 243 245
f 243 250 255
f 243 255 254
f 243 254 245
f 245 254 253
f 245 253 246
