v 0.101976 0.105374 0.007480
v 0.101976 0.106287 0.009979
v 0.101976 0.105521 0.006788
v 0.132414 0.021873 0.007434
v 0.132533 0.021873 0.009114
v 0.101976 0.106463 0.010154
v 0.101976 0.106326 0.005452
v 0.132554 0.021873 0.005916
v 0.132476 0.021873 0.006698
v 0.133563 0.021873 0.010460
v 0.101976 0.108722 0.011955
v 0.101976 0.106650 0.010331
v 0.101976 0.106434 0.005373
v 0.108423 0.094180 -0.001996
v 0.107463 0.095604 -0.000594
v 0.129554 0.042316 -0.002536
v 0.134175 0.021873 0.003885
v 0.134909 0.021873 0.011805
v 0.101976 0.109095 0.012066
v 0.101976 0.109056 0.004127
v 0.108148 0.095604 -0.002317
v 0.130571 0.044476 -0.004287
v 0.131138 0.041520 -0.003525
v 0.134987 0.021873 0.003006
v 0.135984 0.021873 0.012073
v 0.101976 0.111756 0.012707
v 0.101976 0.109193 0.004081
v 0.107820 0.098294 -0.002771
v 0.110028 0.095663 -0.003818
v 0.132225 0.042512 -0.004825
v 0.111374 0.094798 -0.004570
v 0.135648 0.021873 0.002624
v 0.136719 0.021873 0.012256
v 0.101976 0.114446 0.012754
v 0.134027 0.049857 0.013006
v 0.101976 0.111491 0.004090
v 0.107980 0.100994 -0.002614
v 0.109556 0.098294 -0.004117
v 0.113122 0.092913 -0.004843
v 0.131913 0.044476 -0.004935
v 0.134027 0.044476 -0.005066
v 0.134027 0.042080 -0.004892
v 0.134027 0.040735 -0.004512
v 0.136719 0.021873 0.002068
v 0.111070 0.096595 -0.004666
v 0.138344 0.021873 0.012134
v 0.104426 0.111756 0.012772
v 0.104426 0.114446 0.012555
v 0.101976 0.117147 0.012448
v 0.139411 0.022943 0.012031
v 0.136719 0.047166 0.012523
v 0.136719 0.049857 0.012436
v 0.134027 0.052557 0.012910
v 0.117883 0.092913 0.012834
v 0.101976 0.116440 0.005852
v 0.109921 0.100837 -0.003880
v 0.110898 0.099845 -0.004694
v 0.110898 0.098294 -0.004705
v 0.115260 0.092992 -0.004903
v 0.120575 0.082152 -0.005034
v 0.130276 0.063319 -0.004786
v 0.130141 0.065135 -0.004726
v 0.135541 0.044476 -0.004760
v 0.135578 0.042345 -0.004786
v 0.123263 0.076771 -0.005048
v 0.123464 0.079628 -0.004968
v 0.125196 0.076771 -0.004878
v 0.139411 0.021873 0.001693
v 0.139497 0.021873 0.011996
v 0.117883 0.095604 0.012632
v 0.107114 0.111756 0.012464
v 0.109946 0.111884 0.011958
v 0.107168 0.114486 0.012024
v 0.104476 0.117205 0.012020
v 0.101976 0.119778 0.011985
v 0.140962 0.021873 0.011596
v 0.140790 0.046253 0.011541
v 0.137942 0.058910 0.011486
v 0.135377 0.067374 0.011518
v 0.132693 0.075455 0.011525
v 0.130136 0.081268 0.011614
v 0.120575 0.092913 0.012523
v 0.101976 0.117814 0.006355
v 0.101976 0.119199 0.006906
v 0.111308 0.099845 -0.004694
v 0.101976 0.119660 0.007128
v 0.101976 0.121909 0.008258
v 0.116898 0.092147 -0.004802
v 0.122663 0.082152 -0.004890
v 0.129677 0.066932 -0.004482
v 0.130768 0.066029 -0.003465
v 0.132915 0.062484 -0.002303
v 0.132710 0.056691 -0.004652
v 0.124838 0.078852 -0.004784
v 0.124494 0.080639 -0.004561
v 0.135393 0.045890 -0.004650
v 0.142193 0.031024 0.002099
v 0.140868 0.031024 0.000685
v 0.140880 0.028785 0.000678
v 0.140745 0.026998 0.000752
v 0.141557 0.021873 0.002631
v 0.112556 0.109016 0.011879
v 0.111694 0.111078 0.011746
v 0.106306 0.116341 0.011787
v 0.103614 0.118992 0.011778
v 0.102707 0.120789 0.010901
v 0.101976 0.120063 0.011776
v 0.141611 0.021873 0.011246
v 0.142292 0.022943 0.010862
v 0.143896 0.028334 0.009590
v 0.143835 0.031024 0.009516
v 0.143740 0.033714 0.009406
v 0.143675 0.036405 0.009261
v 0.140638 0.048040 0.011454
v 0.138746 0.060628 0.009931
v 0.138393 0.063319 0.009466
v 0.136029 0.068444 0.010315
v 0.135746 0.071390 0.009466
v 0.135455 0.072941 0.008988
v 0.133177 0.076525 0.010152
v 0.132874 0.078636 0.009243
v 0.130621 0.082161 0.010225
v 0.127506 0.086629 0.011661
v 0.123304 0.092805 0.011898
v 0.122442 0.095044 0.011805
v 0.120776 0.095810 0.012075
v 0.111571 0.102722 -0.002478
v 0.112338 0.100768 -0.003256
v 0.113102 0.098765 -0.004032
v 0.113857 0.096968 -0.004637
v 0.101976 0.122066 0.008376
v 0.122122 0.083919 -0.004744
v 0.116204 0.093944 -0.004473
v 0.127600 0.076152 -0.002577
v 0.138176 0.064978 0.008665
v 0.140782 0.054059 0.008785
v 0.142768 0.036218 0.004987
v 0.135455 0.072941 0.008667
v 0.135746 0.071390 0.008231
v 0.121527 0.085706 -0.004376
v 0.119434 0.091912 -0.002313
v 0.122286 0.086874 -0.002582
v 0.129935 0.083241 0.006224
v 0.141680 0.033479 0.001980
v 0.143240 0.033793 0.004987
v 0.143392 0.030788 0.004897
v 0.143293 0.028579 0.004897
v 0.141845 0.028068 0.001830
v 0.143855 0.021873 0.008171
v 0.110939 0.112865 0.011221
v 0.109146 0.113612 0.011753
v 0.119475 0.100140 0.011654
v 0.114017 0.108093 0.011624
v 0.101976 0.121899 0.010335
v 0.142169 0.021873 0.010902
v 0.143855 0.021873 0.009512
v 0.143847 0.025633 0.008063
v 0.143806 0.028579 0.007400
v 0.143704 0.033793 0.007329
v 0.143650 0.036218 0.007527
v 0.143576 0.038359 0.008456
v 0.143576 0.038359 0.009068
v 0.141188 0.049857 0.009880
v 0.140942 0.052557 0.009302
v 0.140782 0.054059 0.008889
v 0.138176 0.064978 0.009070
v 0.132874 0.078636 0.008445
v 0.127469 0.089172 0.009286
v 0.127847 0.087532 0.010179
v 0.124728 0.091833 0.011601
v 0.118999 0.102153 0.006473
v 0.114033 0.099894 -0.002239
v 0.103203 0.121300 0.008711
v 0.105965 0.118668 0.008578
v 0.111374 0.113347 0.008603
v 0.113902 0.110489 0.008751
v 0.101976 0.122184 0.009756
v 0.117066 0.095054 -0.002678
v 0.117878 0.092923 -0.003394
v 0.118810 0.090223 -0.004234
v 0.143486 0.035197 0.006018
v 0.119709 0.100366 0.005730
v 0.122003 0.097096 0.006057
v 0.127469 0.089172 0.008483
v 0.130153 0.083772 0.008017
v 0.143761 0.030788 0.007329
v 0.113487 0.109890 0.010841
v 0.112433 0.111677 0.010133
v 0.111374 0.113347 0.009425
v 0.105965 0.118668 0.009229
v 0.101976 0.122184 0.009845
v 0.118941 0.101937 0.011155
v 0.119405 0.102575 0.009360
v 0.119405 0.102575 0.008267
v 0.120058 0.101151 0.007414
v 0.103203 0.121300 0.009107
v 0.113902 0.110489 0.009047
v 0.121477 0.098844 0.007480
f 1 2 6
f 1 6 12
f 1 12 11
f 1 11 19
f 1 19 26
f 1 26 34
f 1 34 49
f 1 49 75
f 1 75 107
f 1 107 154
f 1 154 191
f 1 191 177
f 1 177 131
f 1 131 87
f 1 87 86
f 1 86 84
f 1 84 83
f 1 83 55
f 1 55 36
f 1 36 27
f 1 27 20
f 1 20 13
f 1 13 7
f 1 7 3
f 1 3 4
f 1 4 5
f 1 5 2
f 2 5 6
f 3 7 8
f 3 8 9
f 3 9 4
f 4 9 8
f 4 8 17
f 4 17 24
f 4 24 32
f 4 32 44
f 4 44 68
f 4 68 101
f 4 101 149
f 4 149 156
f 4 156 155
f 4 155 108
f 4 108 76
f 4 76 69
f 4 69 46
f 4 46 33
f 4 33 25
f 4 25 18
f 4 18 10
f 4 10 5
f 5 10 11
f 5 11 12
f 5 12 6
f 7 13 14
f 7 14 15
f 7 15 8
f 8 16 17
f 8 15 14
f 8 14 16
f 10 18 11
f 11 18 19
f 13 20 21
f 13 21 14
f 14 21 16
f 16 22 23
f 16 23 24
f 16 24 17
f 16 21 22
f 18 25 26
f 18 26 19
f 20 27 28
f 20 28 21
f 21 28 29
f 21 29 22
f 22 30 23
f 22 29 31
f 22 31 30
f 23 30 24
f 24 30 32
f 25 33 26
f 26 33 35
f 26 35 34
f 27 36 28
f 28 37 38
f 28 38 29
f 28 36 37
f 29 38 31
f 30 31 39
f 30 39 40
f 30 40 41
f 30 41 42
f 30 42 43
f 30 43 44
f 30 44 32
f 31 38 45
f 31 45 39
f 33 46 35
f 34 47 48
f 34 48 49
f 34 35 47
f 35 46 50
f 35 50 51
f 35 51 52
f 35 52 53
f 35 53 54
f 35 54 47
f 36 55 56
f 36 56 37
f 37 56 57
f 37 57 38
f 38 57 58
f 38 58 45
f 39 45 58
f 39 58 57
f 39 57 59
f 39 59 60
f 39 60 41
f 39 41 40
f 41 61 62
f 41 62 63
f 41 63 64
f 41 64 42
f 41 60 65
f 41 65 66
f 41 66 67
f 41 67 61
f 42 64 43
f 43 64 68
f 43 68 44
f 46 69 50
f 47 54 70
f 47 70 48
f 48 70 71
f 48 71 72
f 48 72 73
f 48 73 74
f 48 74 75
f 48 75 49
f 50 69 76
f 50 76 77
f 50 77 51
f 51 77 52
f 52 78 79
f 52 79 53
f 52 77 78
f 53 79 80
f 53 80 81
f 53 81 82
f 53 82 54
f 54 82 70
f 55 83 56
f 56 83 84
f 56 84 57
f 57 85 59
f 57 84 86
f 57 86 87
f 57 87 85
f 59 85 88
f 59 88 89
f 59 89 66
f 59 66 60
f 60 66 65
f 61 67 62
f 62 90 91
f 62 91 92
f 62 92 93
f 62 93 63
f 62 67 94
f 62 94 95
f 62 95 90
f 63 93 96
f 63 96 97
f 63 97 64
f 64 97 98
f 64 98 99
f 64 99 100
f 64 100 68
f 66 89 94
f 66 94 67
f 68 100 101
f 70 82 71
f 71 102 72
f 71 82 102
f 72 102 103
f 72 103 73
f 73 103 104
f 73 104 74
f 74 104 75
f 75 105 106
f 75 106 107
f 75 104 105
f 76 108 77
f 77 108 109
f 77 109 110
f 77 110 111
f 77 111 112
f 77 112 113
f 77 113 114
f 77 114 78
f 78 114 115
f 78 115 116
f 78 116 79
f 79 116 117
f 79 117 80
f 80 118 119
f 80 119 120
f 80 120 81
f 80 117 118
f 81 120 121
f 81 121 122
f 81 122 123
f 81 123 82
f 82 123 124
f 82 124 125
f 82 125 126
f 82 126 102
f 85 87 127
f 85 127 128
f 85 128 129
f 85 129 130
f 85 130 88
f 87 131 127
f 88 95 132
f 88 132 89
f 88 130 133
f 88 133 95
f 89 132 94
f 90 95 91
f 91 95 134
f 91 134 92
f 92 135 136
f 92 136 137
f 92 137 96
f 92 96 93
f 92 134 138
f 92 138 139
f 92 139 135
f 94 132 95
f 95 133 140
f 95 140 141
f 95 141 142
f 95 142 143
f 95 143 134
f 96 137 144
f 96 144 97
f 97 144 145
f 97 145 146
f 97 146 147
f 97 147 148
f 97 148 99
f 97 99 98
f 99 148 100
f 100 148 101
f 101 148 147
f 101 147 149
f 102 126 125
f 102 125 103
f 103 150 151
f 103 151 104
f 103 125 152
f 103 152 153
f 103 153 150
f 104 151 150
f 104 150 105
f 105 150 106
f 106 154 107
f 106 150 154
f 108 155 109
f 109 155 156
f 109 156 110
f 110 156 149
f 110 149 157
f 110 157 158
f 110 158 159
f 110 159 111
f 111 159 160
f 111 160 113
f 111 113 112
f 113 160 161
f 113 161 162
f 113 162 114
f 114 163 164
f 114 164 115
f 114 162 163
f 115 164 116
f 116 164 165
f 116 165 166
f 116 166 117
f 117 166 118
f 118 166 119
f 119 166 135
f 119 135 138
f 119 138 167
f 119 167 121
f 119 121 120
f 121 167 184
f 121 184 168
f 121 168 122
f 122 168 169
f 122 169 123
f 123 169 168
f 123 168 170
f 123 170 125
f 123 125 124
f 125 170 152
f 127 171 172
f 127 172 128
f 127 131 173
f 127 173 174
f 127 174 175
f 127 175 176
f 127 176 171
f 128 172 129
f 129 172 130
f 130 172 133
f 131 177 173
f 133 172 178
f 133 178 179
f 133 179 180
f 133 180 140
f 134 143 138
f 135 166 165
f 135 165 136
f 135 139 138
f 136 161 181
f 136 181 137
f 136 165 162
f 136 162 161
f 137 181 145
f 137 145 144
f 138 143 167
f 140 180 179
f 140 179 141
f 141 179 178
f 141 178 182
f 141 182 183
f 141 183 142
f 142 183 143
f 143 184 185
f 143 185 167
f 143 183 184
f 145 181 146
f 146 186 158
f 146 158 149
f 146 149 147
f 146 181 186
f 149 158 157
f 150 153 187
f 150 187 188
f 150 188 189
f 150 189 190
f 150 190 191
f 150 191 154
f 152 192 153
f 152 170 192
f 153 192 187
f 158 186 159
f 159 181 160
f 159 186 181
f 160 181 161
f 162 165 164
f 162 164 163
f 167 185 184
f 168 184 194
f 168 194 193
f 168 193 192
f 168 192 170
f 171 194 195
f 171 195 183
f 171 183 182
f 171 182 172
f 171 176 194
f 172 182 178
f 173 177 191
f 173 191 196
f 173 196 190
f 173 190 174
f 174 190 189
f 174 189 175
f 175 189 197
f 175 197 176
f 176 197 193
f 176 193 194
f 183 195 198
f 183 198 184
f 184 198 194
f 187 197 188
f 187 192 193
f 187 193 197
f 188 197 189
f 190 196 191
f 194 198 195
