v 0.099405 -0.075863 0.007978
v 0.100449 -0.075356 0.008716
v 0.099405 -0.075863 0.008032
v 0.099405 -0.074208 0.004628
v 0.100615 -0.072773 0.003191
v 0.103636 -0.070352 0.002681
v 0.100449 -0.075356 0.008901
v 0.106305 -0.067750 0.002097
v 0.105844 -0.069998 0.008674
v 0.099405 -0.075824 0.009219
v 0.099405 -0.073222 0.002835
v 0.102557 -0.069778 0.000886
v 0.105900 -0.067339 0.000652
v 0.101325 -0.073538 0.009810
v 0.100410 -0.072620 0.011527
v 0.105844 -0.069998 0.008943
v 0.107651 -0.066334 0.002097
v 0.108857 -0.064995 0.002097
v 0.114290 -0.059733 0.008111
v 0.116772 -0.056729 0.008437
v 0.099405 -0.073844 0.010903
v 0.099405 -0.070850 0.001282
v 0.100214 -0.070017 0.000703
v 0.100763 -0.070017 0.000703
v 0.101690 -0.068755 0.000310
v 0.104424 -0.067884 0.000387
v 0.108500 -0.064574 0.000718
v 0.111795 -0.051687 -0.004955
v 0.114382 -0.049056 -0.005042
v 0.099405 -0.070936 0.012137
v 0.099405 -0.072849 0.011671
v 0.116154 -0.055992 0.011095
v 0.117003 -0.054194 0.011679
v 0.115231 -0.055103 0.012147
v 0.115191 -0.052414 0.013129
v 0.112501 -0.055112 0.013183
v 0.116772 -0.056729 0.009302
v 0.114290 -0.059733 0.009367
v 0.111369 -0.062153 0.002997
v 0.124609 -0.045689 0.008824
v 0.099405 -0.068563 0.000820
v 0.099931 -0.068563 0.000491
v 0.110555 -0.051687 -0.004955
v 0.116776 -0.046071 -0.004866
v 0.124448 -0.042752 0.003914
v 0.112501 -0.047038 -0.005787
v 0.112614 -0.049860 -0.005263
v 0.115244 -0.046990 -0.005344
v 0.099405 -0.068200 0.012536
v 0.112501 -0.052414 0.013732
v 0.118901 -0.053428 0.010171
v 0.119406 -0.051525 0.011671
v 0.117895 -0.052424 0.012039
v 0.117882 -0.049726 0.012867
v 0.115191 -0.049726 0.013709
v 0.124609 -0.045689 0.008826
v 0.127713 -0.038217 0.005368
v 0.132737 -0.029664 0.006035
v 0.132088 -0.031071 0.007479
v 0.130064 -0.035089 0.008633
v 0.099953 -0.066564 0.000454
v 0.099405 -0.066114 0.001227
v 0.110333 -0.049726 -0.005113
v 0.117255 -0.044340 -0.005182
v 0.122070 -0.037834 -0.004795
v 0.124944 -0.040953 0.002980
v 0.127238 -0.037499 0.003575
v 0.110563 -0.047038 -0.005071
v 0.112327 -0.044235 -0.005387
v 0.131131 -0.001126 -0.005117
v 0.131335 -0.003977 -0.005462
v 0.115191 -0.041652 -0.005803
v 0.115191 -0.044340 -0.005926
v 0.120573 -0.036265 -0.005824
v 0.099405 -0.065875 0.012498
v 0.112501 -0.049726 0.013719
v 0.115191 -0.047038 0.013752
v 0.119811 -0.052079 0.010171
v 0.130064 -0.035089 0.008932
v 0.130456 -0.033577 0.009373
v 0.133033 -0.028191 0.009317
v 0.134635 -0.020126 0.011009
v 0.133886 -0.017438 0.012326
v 0.131335 -0.017438 0.013336
v 0.131335 -0.014749 0.013584
v 0.131335 -0.012052 0.013659
v 0.132763 -0.029722 0.007479
v 0.130012 -0.032276 0.003409
v 0.132720 -0.026938 0.003388
v 0.138266 -0.013735 0.005553
v 0.137156 -0.017438 0.007479
v 0.110864 -0.045057 -0.004899
v 0.099405 -0.065397 0.001629
v 0.122410 -0.036265 -0.005065
v 0.127695 -0.024900 -0.004947
v 0.129750 -0.001920 -0.004797
v 0.131862 0.001399 -0.004963
v 0.134152 0.001610 -0.004905
v 0.133634 -0.001289 -0.005115
v 0.131335 -0.006675 -0.005481
v 0.125954 -0.022824 -0.005864
v 0.125954 -0.020126 -0.005843
v 0.120573 -0.033577 -0.005897
v 0.128074 -0.022824 -0.005227
v 0.125584 -0.028191 -0.005259
v 0.099405 -0.065511 0.012482
v 0.131335 -0.009363 0.013540
v 0.136716 0.021863 0.012255
v 0.132737 -0.029664 0.008915
v 0.135545 -0.021905 0.009179
v 0.135881 -0.020126 0.009662
v 0.135232 -0.017438 0.011376
v 0.136107 -0.012052 0.012053
v 0.136847 -0.009172 0.012170
v 0.134026 -0.012052 0.013154
v 0.134026 -0.009363 0.013445
v 0.134026 -0.006675 0.013368
v 0.130081 -0.019026 -0.004724
v 0.135493 -0.019112 0.003319
v 0.137909 -0.012559 0.003760
v 0.141027 -0.003183 0.005740
v 0.141762 -0.001289 0.007479
v 0.141153 -0.003594 0.007479
v 0.138336 -0.014051 0.007479
v 0.099405 -0.064239 0.002471
v 0.110380 -0.044235 -0.003393
v 0.132554 0.021863 0.005917
v 0.129785 0.003189 -0.002297
v 0.129411 0.001399 -0.002834
v 0.130094 -0.000122 -0.004568
v 0.132833 -0.011162 -0.004778
v 0.132380 0.003179 -0.004780
v 0.134026 0.003208 -0.004753
v 0.135393 0.002940 -0.004647
v 0.133447 -0.003977 -0.005117
v 0.135393 0.002653 -0.004647
v 0.131335 -0.009363 -0.005444
v 0.128645 -0.017438 -0.005604
v 0.128758 -0.020011 -0.005298
v 0.099405 -0.062967 0.011927
v 0.135985 0.021863 0.012074
v 0.134910 0.021863 0.011804
v 0.138340 0.021863 0.012134
v 0.138227 -0.013927 0.009107
v 0.137831 -0.009947 0.011249
v 0.138105 -0.008158 0.011548
v 0.140374 0.009474 0.011386
v 0.140983 0.020878 0.011604
v 0.139499 0.021863 0.011995
v 0.141284 -0.001289 0.005280
v 0.141014 -0.003355 0.009171
v 0.142211 0.001399 0.007479
v 0.099405 -0.063454 0.003047
v 0.099405 -0.060230 0.005459
v 0.132476 0.021863 0.006699
v 0.134174 0.021863 0.003885
v 0.099405 -0.059312 0.007479
v 0.130517 0.001399 -0.004179
v 0.131466 -0.012061 -0.005173
v 0.132959 -0.009363 -0.004884
v 0.134026 0.004557 -0.004348
v 0.134988 0.021863 0.003006
v 0.135650 0.021863 0.002623
v 0.136716 0.021863 0.002068
v 0.139411 0.021863 0.001693
v 0.141558 0.021863 0.002631
v 0.141514 0.020246 0.002673
v 0.141405 0.017548 0.002760
v 0.141488 0.001399 0.005012
v 0.099405 -0.062737 0.011854
v 0.133564 0.021863 0.010460
v 0.141236 -0.001289 0.009489
v 0.141475 0.001399 0.009724
v 0.141723 0.004097 0.009868
v 0.143748 0.014860 0.009279
v 0.143870 0.017548 0.009415
v 0.141967 0.020084 0.010970
v 0.142167 0.021863 0.010903
v 0.141610 0.021863 0.011245
v 0.140961 0.021863 0.011596
v 0.143587 0.012861 0.009073
v 0.143748 0.014860 0.008302
v 0.143587 0.012861 0.008558
v 0.132415 0.021863 0.007433
v 0.099405 -0.059465 0.008425
v 0.143852 0.021863 0.008171
v 0.143883 0.020246 0.008156
v 0.143870 0.017548 0.008150
v 0.099405 -0.061838 0.011405
v 0.132532 0.021863 0.009115
v 0.143883 0.020246 0.009506
v 0.143852 0.021863 0.009512
v 0.099405 -0.060192 0.009897
v 0.099405 -0.060527 0.010223
v 0.099405 -0.060412 0.010113
f 1 2 7
f 1 7 3
f 1 3 10
f 1 10 21
f 1 21 31
f 1 31 30
f 1 30 49
f 1 49 75
f 1 75 106
f 1 106 140
f 1 140 170
f 1 170 189
f 1 189 194
f 1 194 195
f 1 195 193
f 1 193 185
f 1 185 157
f 1 157 154
f 1 154 153
f 1 153 125
f 1 125 93
f 1 93 62
f 1 62 41
f 1 41 22
f 1 22 11
f 1 11 4
f 1 4 5
f 1 5 6
f 1 6 2
f 2 6 8
f 2 8 9
f 2 9 16
f 2 16 7
f 3 7 10
f 4 11 5
f 5 11 12
f 5 12 6
f 6 12 13
f 6 13 8
f 7 14 15
f 7 15 10
f 7 16 14
f 8 13 17
f 8 17 9
f 9 17 18
f 9 18 19
f 9 19 20
f 9 20 37
f 9 37 16
f 10 15 21
f 11 22 23
f 11 23 24
f 11 24 12
f 12 24 25
f 12 25 26
f 12 26 13
f 13 27 17
f 13 26 28
f 13 28 29
f 13 29 27
f 14 16 15
f 15 30 31
f 15 31 21
f 15 16 32
f 15 32 33
f 15 33 34
f 15 34 35
f 15 35 36
f 15 36 30
f 16 37 38
f 16 38 32
f 17 27 18
f 18 27 39
f 18 39 19
f 19 39 20
f 20 39 40
f 20 40 56
f 20 56 37
f 22 41 42
f 22 42 23
f 23 42 43
f 23 43 25
f 23 25 24
f 25 43 28
f 25 28 26
f 27 29 44
f 27 44 45
f 27 45 39
f 28 43 46
f 28 46 47
f 28 47 29
f 29 48 44
f 29 47 48
f 30 36 50
f 30 50 49
f 32 38 51
f 32 51 52
f 32 52 33
f 33 52 53
f 33 53 34
f 34 53 35
f 35 53 54
f 35 54 55
f 35 55 36
f 36 55 50
f 37 51 38
f 37 56 51
f 39 45 40
f 40 45 57
f 40 57 58
f 40 58 59
f 40 59 60
f 40 60 79
f 40 79 56
f 41 61 42
f 41 62 61
f 42 61 63
f 42 63 43
f 43 63 46
f 44 48 64
f 44 64 65
f 44 65 45
f 45 65 66
f 45 66 67
f 45 67 57
f 46 68 69
f 46 69 70
f 46 70 71
f 46 71 72
f 46 72 73
f 46 73 47
f 46 63 68
f 47 73 48
f 48 73 74
f 48 74 64
f 49 50 76
f 49 76 75
f 50 55 77
f 50 77 76
f 51 78 52
f 51 56 78
f 52 54 53
f 52 78 56
f 52 56 79
f 52 79 80
f 52 80 81
f 52 81 82
f 52 82 83
f 52 83 54
f 54 83 84
f 54 84 55
f 55 84 85
f 55 85 86
f 55 86 77
f 57 67 58
f 58 87 59
f 58 67 88
f 58 88 89
f 58 89 90
f 58 90 91
f 58 91 87
f 59 87 79
f 59 79 60
f 61 62 92
f 61 92 68
f 61 68 63
f 62 93 92
f 64 74 94
f 64 94 65
f 65 88 67
f 65 67 66
f 65 94 95
f 65 95 89
f 65 89 88
f 68 92 69
f 69 92 96
f 69 96 70
f 70 96 97
f 70 97 71
f 71 97 98
f 71 98 99
f 71 99 100
f 71 100 101
f 71 101 102
f 71 102 72
f 72 102 73
f 73 102 103
f 73 103 74
f 74 103 101
f 74 101 104
f 74 104 105
f 74 105 94
f 75 76 106
f 76 77 86
f 76 86 107
f 76 107 108
f 76 108 106
f 79 87 109
f 79 109 80
f 80 109 81
f 81 110 111
f 81 111 82
f 81 109 110
f 82 111 112
f 82 112 83
f 83 112 113
f 83 113 114
f 83 114 115
f 83 115 84
f 84 115 116
f 84 116 85
f 85 116 86
f 86 116 117
f 86 117 108
f 86 108 107
f 87 91 110
f 87 110 109
f 89 95 118
f 89 118 119
f 89 119 90
f 90 119 120
f 90 120 121
f 90 121 122
f 90 122 123
f 90 123 124
f 90 124 91
f 91 124 110
f 92 93 125
f 92 125 126
f 92 126 127
f 92 127 128
f 92 128 129
f 92 129 130
f 92 130 96
f 94 105 104
f 94 104 95
f 95 104 131
f 95 131 118
f 96 130 97
f 97 130 132
f 97 132 133
f 97 133 98
f 98 133 134
f 98 134 99
f 99 135 100
f 99 134 136
f 99 136 135
f 100 137 101
f 100 135 137
f 101 137 138
f 101 138 104
f 101 103 102
f 104 138 139
f 104 139 131
f 106 108 141
f 106 141 142
f 106 142 140
f 108 143 149
f 108 149 180
f 108 180 179
f 108 179 178
f 108 178 192
f 108 192 186
f 108 186 166
f 108 166 165
f 108 165 164
f 108 164 163
f 108 163 162
f 108 162 156
f 108 156 127
f 108 127 155
f 108 155 184
f 108 184 190
f 108 190 171
f 108 171 142
f 108 142 141
f 108 117 143
f 110 124 144
f 110 144 111
f 111 144 145
f 111 145 112
f 112 145 146
f 112 146 113
f 113 146 114
f 114 116 115
f 114 146 147
f 114 147 116
f 116 147 148
f 116 148 149
f 116 149 143
f 116 143 117
f 118 131 119
f 119 131 120
f 120 131 150
f 120 150 121
f 121 150 122
f 122 151 144
f 122 144 123
f 122 150 152
f 122 152 151
f 123 144 124
f 125 153 126
f 126 153 154
f 126 154 127
f 127 156 128
f 127 154 157
f 127 157 155
f 128 156 158
f 128 158 130
f 128 130 129
f 130 158 132
f 131 139 159
f 131 159 137
f 131 137 160
f 131 160 136
f 131 136 150
f 132 161 133
f 132 158 162
f 132 162 163
f 132 163 164
f 132 164 165
f 132 165 161
f 133 161 134
f 134 161 165
f 134 165 166
f 134 166 136
f 135 136 160
f 135 160 137
f 136 166 167
f 136 167 168
f 136 168 169
f 136 169 150
f 137 159 138
f 138 159 139
f 140 142 170
f 142 171 170
f 144 151 145
f 145 151 146
f 146 151 172
f 146 172 173
f 146 173 174
f 146 174 175
f 146 175 147
f 147 175 176
f 147 176 177
f 147 177 148
f 148 177 178
f 148 178 179
f 148 179 180
f 148 180 149
f 150 169 152
f 151 152 181
f 151 181 172
f 152 169 182
f 152 182 183
f 152 183 181
f 155 157 184
f 156 162 158
f 157 185 184
f 166 186 187
f 166 187 188
f 166 188 167
f 167 188 168
f 168 188 169
f 169 188 182
f 170 171 189
f 171 190 189
f 172 181 175
f 172 175 173
f 173 175 174
f 175 181 183
f 175 183 182
f 175 182 188
f 175 188 176
f 176 188 187
f 176 187 191
f 176 191 178
f 176 178 177
f 178 191 192
f 184 185 190
f 185 193 190
f 186 192 191
f 186 191 187
f 189 190 194
f 190 193 195
f 190 195 194
