v 0.099401 -0.059312 0.007478
v 0.099401 -0.059479 0.008423
v 0.099401 -0.060236 0.005458
v 0.007445 -0.099510 0.006157
v 0.007445 -0.099470 0.007530
v 0.007445 -0.099470 0.008918
v 0.099401 -0.060205 0.009895
v 0.099401 -0.063461 0.003048
v 0.082884 -0.075100 -0.004817
v 0.081173 -0.075196 -0.004727
v 0.079373 -0.075504 -0.004415
v 0.077501 -0.074954 -0.002495
v 0.038742 -0.091565 -0.001760
v 0.007445 -0.100383 0.005356
v 0.007445 -0.100388 0.010015
v 0.099401 -0.060422 0.010111
v 0.007445 -0.101948 0.011677
v 0.099401 -0.064248 0.002473
v 0.082884 -0.076650 -0.005520
v 0.080246 -0.076499 -0.005264
v 0.099401 -0.065409 0.001630
v 0.084621 -0.075136 -0.004781
v 0.077501 -0.077276 -0.005117
v 0.075701 -0.077730 -0.004829
v 0.044539 -0.091727 -0.004427
v 0.042523 -0.092196 -0.004050
v 0.040533 -0.091187 -0.002268
v 0.039813 -0.092767 -0.003339
v 0.007445 -0.100620 0.005144
v 0.099401 -0.060539 0.010221
v 0.007445 -0.103558 0.011971
v 0.012918 -0.103558 0.012686
v 0.023683 -0.100868 0.013485
v 0.099401 -0.062744 0.011853
v 0.099401 -0.061846 0.011403
v 0.080192 -0.079340 -0.006100
v 0.077501 -0.079340 -0.005960
v 0.085539 -0.076857 -0.004993
v 0.099401 -0.066121 0.001228
v 0.042523 -0.093544 -0.004947
v 0.040884 -0.093963 -0.004731
v 0.007445 -0.103467 0.003812
v 0.039084 -0.094669 -0.004409
v 0.007445 -0.103649 0.011965
v 0.023683 -0.103558 0.013625
v 0.026375 -0.100868 0.013775
v 0.007445 -0.106284 0.011783
v 0.007445 -0.106344 0.011775
v 0.078563 -0.080491 0.014282
v 0.099401 -0.062981 0.011925
v 0.085575 -0.078654 -0.004969
v 0.083127 -0.079583 -0.005452
v 0.077501 -0.082031 -0.005970
v 0.072109 -0.084726 -0.005976
v 0.047905 -0.095487 -0.005976
v 0.045223 -0.095487 -0.005838
v 0.047905 -0.092792 -0.005566
v 0.045349 -0.092691 -0.005139
v 0.099401 -0.068574 0.000821
v 0.086943 -0.077897 -0.004651
v 0.086943 -0.078023 -0.004651
v 0.042523 -0.095487 -0.005514
v 0.039921 -0.095538 -0.004985
v 0.007445 -0.103558 0.003780
v 0.038265 -0.096466 -0.004761
v 0.026375 -0.106248 0.012938
v 0.026375 -0.103558 0.013725
v 0.029066 -0.100868 0.013973
v 0.012918 -0.106248 0.012256
v 0.007445 -0.107470 0.011463
v 0.080192 -0.080284 0.014336
v 0.084207 -0.077983 0.014210
v 0.099401 -0.065520 0.012480
v 0.084180 -0.080643 -0.004543
v 0.082388 -0.081203 -0.005061
v 0.080138 -0.082071 -0.005356
v 0.074945 -0.084893 -0.005458
v 0.055970 -0.095008 -0.005233
v 0.055970 -0.092792 -0.005900
v 0.047905 -0.097607 -0.005246
v 0.045223 -0.097900 -0.005242
v 0.042622 -0.098389 -0.005145
v 0.039831 -0.099682 -0.004773
v 0.039831 -0.098172 -0.005141
v 0.099401 -0.070856 0.001284
v 0.099401 -0.073233 0.002835
v 0.007445 -0.106157 0.004363
v 0.038229 -0.098172 -0.004793
v 0.038373 -0.099631 -0.004717
v 0.029066 -0.108272 0.012109
v 0.029066 -0.106248 0.012972
v 0.007445 -0.108737 0.010998
v 0.029066 -0.103558 0.013669
v 0.031757 -0.100868 0.014059
v 0.080372 -0.082233 0.014354
v 0.082370 -0.081470 0.014304
v 0.083289 -0.079315 0.014258
v 0.084252 -0.077983 0.014210
v 0.099401 -0.065884 0.012496
v 0.087015 -0.086154 0.005981
v 0.081038 -0.088567 0.003778
v 0.079211 -0.083600 -0.004839
v 0.074143 -0.086472 -0.005007
v 0.072109 -0.086896 -0.005248
v 0.057914 -0.094488 -0.004927
v 0.053288 -0.096754 -0.004162
v 0.050120 -0.097249 -0.005029
v 0.043576 -0.099434 -0.004503
v 0.041785 -0.099626 -0.004735
v 0.007445 -0.110089 0.006343
v 0.099401 -0.074212 0.004627
v 0.097636 -0.075252 0.003552
v 0.007445 -0.106248 0.004385
v 0.007445 -0.108742 0.005562
v 0.007445 -0.110877 0.009613
v 0.018301 -0.110438 0.009080
v 0.029066 -0.109146 0.010169
v 0.047239 -0.105123 0.009228
v 0.045223 -0.105426 0.009635
v 0.050588 -0.101640 0.011160
v 0.053288 -0.099803 0.011669
v 0.058662 -0.097425 0.011827
v 0.061425 -0.095684 0.012161
v 0.053288 -0.098172 0.012470
v 0.080363 -0.084605 0.013869
v 0.031757 -0.103558 0.013501
v 0.081380 -0.083262 0.014190
v 0.034458 -0.100868 0.013957
v 0.079589 -0.083616 0.014274
v 0.083118 -0.082233 0.014043
v 0.084162 -0.080082 0.014198
v 0.084252 -0.078290 0.014210
v 0.099401 -0.068211 0.012534
v 0.099401 -0.075863 0.007979
v 0.087015 -0.086154 0.006649
v 0.083478 -0.088310 0.007478
v 0.078572 -0.091278 0.007478
v 0.081992 -0.088991 0.005566
v 0.082884 -0.087977 0.004717
v 0.076880 -0.091853 0.005374
v 0.075971 -0.091343 0.003584
v 0.065214 -0.096754 0.003724
v 0.057545 -0.099606 0.003306
v 0.055970 -0.099873 0.002925
v 0.039831 -0.106546 0.007478
v 0.037383 -0.107152 0.007580
v 0.032459 -0.107480 0.006271
v 0.053261 -0.101670 0.004873
v 0.045223 -0.105426 0.007787
v 0.018301 -0.109867 0.006946
v 0.015609 -0.109908 0.006762
v 0.007445 -0.110877 0.007689
v 0.018301 -0.110438 0.008291
v 0.020119 -0.110347 0.008926
v 0.036645 -0.107677 0.009052
v 0.020119 -0.110347 0.008572
v 0.036645 -0.107677 0.008547
v 0.053288 -0.102675 0.009412
v 0.047239 -0.105123 0.008309
v 0.055034 -0.102382 0.009068
v 0.053288 -0.101150 0.010758
v 0.058662 -0.098768 0.011010
v 0.064044 -0.096355 0.011258
v 0.062379 -0.096709 0.011449
v 0.060588 -0.097042 0.011643
v 0.080147 -0.087553 0.012338
v 0.082379 -0.086755 0.012075
v 0.083118 -0.084968 0.012770
v 0.080372 -0.084595 0.013871
v 0.085575 -0.082031 0.013327
v 0.099401 -0.072859 0.011669
v 0.099032 -0.071264 0.012165
v 0.099401 -0.070946 0.012135
v 0.096340 -0.071264 0.012872
v 0.099401 -0.075863 0.008031
v 0.093028 -0.081117 0.009440
v 0.086817 -0.085993 0.008443
v 0.085791 -0.086836 0.007520
v 0.081875 -0.088986 0.009354
v 0.073468 -0.094139 0.008830
v 0.077222 -0.092045 0.007478
v 0.074540 -0.093473 0.007737
v 0.068203 -0.096895 0.008640
v 0.062730 -0.099535 0.008776
v 0.074972 -0.092418 0.004601
v 0.061911 -0.099237 0.006980
v 0.058527 -0.099863 0.004988
v 0.055970 -0.100752 0.004785
v 0.034458 -0.107909 0.008049
v 0.031649 -0.108141 0.007292
v 0.021010 -0.109802 0.007596
v 0.061344 -0.099818 0.009172
v 0.054143 -0.102054 0.006551
v 0.055034 -0.102382 0.008343
v 0.062730 -0.099535 0.008848
v 0.063792 -0.098188 0.009711
v 0.066997 -0.095447 0.010868
v 0.079229 -0.088910 0.011637
v 0.081020 -0.088552 0.011150
v 0.087267 -0.083610 0.011733
v 0.085575 -0.084196 0.012165
v 0.084270 -0.084605 0.012488
v 0.083424 -0.084605 0.012838
v 0.088203 -0.081995 0.012189
v 0.090102 -0.081077 0.011759
v 0.091894 -0.080158 0.011234
v 0.099401 -0.073844 0.010900
v 0.099401 -0.075827 0.009216
v 0.095854 -0.078765 0.009430
v 0.073468 -0.094139 0.008804
v 0.068203 -0.096895 0.008920
v 0.066736 -0.097229 0.009362
f 1 2 7
f 1 7 16
f 1 16 30
f 1 30 35
f 1 35 34
f 1 34 50
f 1 50 73
f 1 73 99
f 1 99 133
f 1 133 173
f 1 173 171
f 1 171 207
f 1 207 208
f 1 208 175
f 1 175 134
f 1 134 111
f 1 111 86
f 1 86 85
f 1 85 59
f 1 59 39
f 1 39 21
f 1 21 18
f 1 18 8
f 1 8 3
f 1 3 4
f 1 4 5
f 1 5 6
f 1 6 2
f 2 6 7
f 3 8 9
f 3 9 10
f 3 10 11
f 3 11 12
f 3 12 4
f 4 13 14
f 4 14 29
f 4 29 42
f 4 42 64
f 4 64 87
f 4 87 113
f 4 113 114
f 4 114 110
f 4 110 152
f 4 152 115
f 4 115 92
f 4 92 70
f 4 70 48
f 4 48 47
f 4 47 44
f 4 44 31
f 4 31 17
f 4 17 15
f 4 15 6
f 4 6 5
f 4 12 11
f 4 11 13
f 6 15 7
f 7 15 17
f 7 17 16
f 8 18 9
f 9 19 20
f 9 20 10
f 9 18 21
f 9 21 22
f 9 22 19
f 10 20 23
f 10 23 11
f 11 23 24
f 11 24 25
f 11 25 26
f 11 26 27
f 11 27 13
f 13 27 28
f 13 28 29
f 13 29 14
f 16 17 30
f 17 31 32
f 17 32 33
f 17 33 34
f 17 34 35
f 17 35 30
f 19 36 37
f 19 37 20
f 19 22 38
f 19 38 36
f 20 37 23
f 21 39 22
f 22 39 38
f 23 37 40
f 23 40 25
f 23 25 24
f 25 40 41
f 25 41 26
f 26 41 28
f 26 28 27
f 28 41 29
f 29 41 43
f 29 43 42
f 31 44 32
f 32 45 46
f 32 46 33
f 32 44 47
f 32 47 48
f 32 48 45
f 33 46 49
f 33 49 50
f 33 50 34
f 36 38 51
f 36 51 52
f 36 52 53
f 36 53 54
f 36 54 55
f 36 55 56
f 36 56 37
f 37 56 57
f 37 57 58
f 37 58 40
f 38 39 59
f 38 59 60
f 38 60 61
f 38 61 51
f 40 58 62
f 40 62 41
f 41 63 43
f 41 62 63
f 42 43 65
f 42 65 64
f 43 63 65
f 45 66 67
f 45 67 68
f 45 68 46
f 45 48 69
f 45 69 66
f 46 68 49
f 48 70 69
f 49 71 72
f 49 72 50
f 49 68 71
f 50 72 73
f 51 61 74
f 51 74 75
f 51 75 52
f 52 75 76
f 52 76 53
f 53 76 77
f 53 77 54
f 54 77 78
f 54 78 79
f 54 79 55
f 55 79 78
f 55 78 80
f 55 80 81
f 55 81 82
f 55 82 83
f 55 83 84
f 55 84 56
f 56 84 62
f 56 62 57
f 57 62 58
f 59 85 61
f 59 61 60
f 61 85 86
f 61 86 74
f 62 84 65
f 62 65 63
f 64 65 88
f 64 88 89
f 64 89 87
f 65 84 88
f 66 90 91
f 66 91 67
f 66 69 92
f 66 92 90
f 67 91 93
f 67 93 94
f 67 94 68
f 68 94 71
f 69 70 92
f 71 95 96
f 71 96 97
f 71 97 98
f 71 98 72
f 71 94 95
f 72 98 73
f 73 98 99
f 74 86 100
f 74 100 101
f 74 101 102
f 74 102 75
f 75 102 103
f 75 103 76
f 76 103 77
f 77 103 104
f 77 104 78
f 78 105 106
f 78 106 107
f 78 107 80
f 78 104 103
f 78 103 105
f 80 107 108
f 80 108 109
f 80 109 81
f 81 109 83
f 81 83 82
f 83 89 84
f 83 109 110
f 83 110 89
f 84 89 88
f 86 111 112
f 86 112 100
f 87 89 113
f 89 110 114
f 89 114 113
f 90 92 115
f 90 115 116
f 90 116 117
f 90 117 118
f 90 118 119
f 90 119 120
f 90 120 121
f 90 121 122
f 90 122 123
f 90 123 124
f 90 124 125
f 90 125 91
f 91 126 93
f 91 125 127
f 91 127 126
f 93 126 128
f 93 128 94
f 94 128 129
f 94 129 95
f 95 129 96
f 96 129 127
f 96 127 130
f 96 130 131
f 96 131 132
f 96 132 98
f 96 98 97
f 98 132 133
f 98 133 99
f 100 112 111
f 100 111 134
f 100 134 175
f 100 175 135
f 100 135 136
f 100 136 137
f 100 137 138
f 100 138 139
f 100 139 101
f 101 139 138
f 101 138 140
f 101 140 141
f 101 141 103
f 101 103 102
f 103 141 142
f 103 142 105
f 105 142 143
f 105 143 106
f 106 143 107
f 107 143 144
f 107 144 108
f 108 145 146
f 108 146 147
f 108 147 109
f 108 144 148
f 108 148 149
f 108 149 145
f 109 147 150
f 109 150 151
f 109 151 110
f 110 151 152
f 115 152 153
f 115 153 116
f 116 153 156
f 116 156 154
f 116 154 117
f 117 155 118
f 117 154 156
f 117 156 157
f 117 157 155
f 118 158 119
f 118 155 157
f 118 157 159
f 118 159 194
f 118 194 160
f 118 160 158
f 119 158 161
f 119 161 120
f 120 161 162
f 120 162 163
f 120 163 164
f 120 164 121
f 121 164 165
f 121 165 122
f 122 165 123
f 123 165 164
f 123 164 125
f 123 125 124
f 125 166 167
f 125 167 168
f 125 168 169
f 125 169 127
f 125 164 166
f 126 127 129
f 126 129 128
f 127 169 168
f 127 168 170
f 127 170 130
f 130 170 171
f 130 171 172
f 130 172 173
f 130 173 174
f 130 174 131
f 131 174 132
f 132 174 133
f 133 174 173
f 135 175 176
f 135 176 177
f 135 177 178
f 135 178 136
f 136 178 179
f 136 179 137
f 137 179 180
f 137 180 181
f 137 181 138
f 138 181 140
f 140 181 182
f 140 182 183
f 140 183 184
f 140 184 142
f 140 142 185
f 140 185 141
f 141 185 142
f 142 184 186
f 142 186 187
f 142 187 143
f 143 187 188
f 143 188 159
f 143 159 148
f 143 148 144
f 145 149 146
f 146 157 189
f 146 189 190
f 146 190 147
f 146 149 157
f 147 190 150
f 148 159 149
f 149 159 157
f 150 191 156
f 150 156 153
f 150 153 152
f 150 152 151
f 150 190 191
f 156 191 190
f 156 190 189
f 156 189 157
f 158 160 192
f 158 192 161
f 159 188 193
f 159 193 194
f 160 195 192
f 160 194 184
f 160 184 195
f 161 192 162
f 162 192 163
f 163 192 196
f 163 196 197
f 163 197 198
f 163 198 166
f 163 166 164
f 166 198 167
f 167 198 199
f 167 199 200
f 167 200 201
f 167 201 202
f 167 202 168
f 168 202 203
f 168 203 170
f 170 203 202
f 170 202 201
f 170 201 204
f 170 204 171
f 171 205 206
f 171 206 207
f 171 173 172
f 171 204 205
f 175 208 176
f 176 208 209
f 176 209 200
f 176 200 199
f 176 199 179
f 176 179 177
f 177 179 178
f 179 199 180
f 180 210 181
f 180 199 211
f 180 211 183
f 180 183 210
f 181 210 183
f 181 183 182
f 183 211 195
f 183 195 184
f 184 194 186
f 186 194 187
f 187 194 188
f 188 194 193
f 192 195 196
f 195 211 212
f 195 212 196
f 196 212 197
f 197 212 198
f 198 212 199
f 199 212 211
f 200 209 206
f 200 206 205
f 200 205 204
f 200 204 201
f 206 209 207
f 207 209 208
