v -0.051684 0.052764 0.029016
v -0.048973 0.052158 0.029016
v -0.048801 0.050687 0.024643
v -0.054355 0.052626 0.027830
v -0.033202 0.049117 0.062404
v -0.032830 0.049608 0.058611
v -0.030120 0.049244 0.058611
v -0.031634 0.049504 0.050538
v -0.044828 0.051235 0.030241
v -0.048588 0.045483 0.022178
v -0.051524 0.046723 0.022330
v -0.052295 0.050975 0.024662
v 0.067711 0.008717 0.024923
v 0.066728 0.006796 0.023196
v -0.057517 0.051950 0.028352
v -0.033361 0.047023 0.065267
v -0.030518 0.047929 0.065833
v -0.027927 0.048541 0.064741
v -0.030120 0.049146 0.061307
v -0.036922 0.048552 0.060057
v -0.027954 0.048754 0.058611
v -0.029189 0.049037 0.055920
v -0.004928 0.041034 0.063560
v 0.011535 0.035033 0.063009
v -0.031833 0.049331 0.047842
v 0.065439 0.010869 0.030265
v -0.052614 0.042534 0.022498
v 0.065173 0.001932 0.022419
v -0.056494 0.044467 0.024141
v -0.054793 0.047906 0.023841
v -0.058965 0.049850 0.027191
v 0.068947 0.008729 0.029026
v 0.074049 0.004886 0.028312
v 0.069877 0.005682 0.024028
v -0.058606 0.049798 0.030083
v -0.032830 0.044461 0.066423
v -0.030120 0.044461 0.067402
v -0.037015 0.043550 0.062886
v -0.037055 0.037162 0.065488
v -0.026559 0.045217 0.068100
v -0.021364 0.045858 0.068081
v -0.026014 0.048165 0.061307
v -0.016687 0.044940 0.066684
v -0.024752 0.047715 0.063993
v -0.009485 0.042673 0.063993
v 0.003018 0.038161 0.066684
v 0.011853 0.034947 0.066374
v 0.015587 0.033568 0.063993
v 0.020968 0.031589 0.063993
v 0.052604 0.018745 0.050814
v 0.053268 0.018151 0.047842
v 0.055740 0.017089 0.050533
v 0.063512 -0.002291 0.023777
v -0.052654 0.038772 0.024077
v -0.056042 0.041011 0.024603
v 0.070382 0.000230 0.024082
v 0.067219 -0.002291 0.023816
v -0.061038 0.043890 0.028229
v 0.055647 0.016928 0.055925
v 0.055540 0.016882 0.058616
v 0.074700 0.001419 0.027993
v 0.055115 0.016287 0.062232
v 0.074155 -0.001270 0.027078
v -0.042343 0.032483 0.060185
v -0.039248 0.033689 0.064396
v -0.035501 0.036389 0.066472
v -0.035501 0.033689 0.066880
v -0.032830 0.041767 0.066807
v -0.032830 0.039084 0.067151
v -0.032830 0.036389 0.067417
v -0.024752 0.041767 0.068829
v -0.022054 0.041767 0.069360
v -0.019371 0.041767 0.069827
v -0.012541 0.039903 0.070924
v -0.007691 0.040226 0.070993
v 0.002885 0.037849 0.070481
v -0.012993 0.043717 0.067107
v -0.018440 0.045667 0.063993
v -0.008595 0.042280 0.066684
v -0.005898 0.041334 0.066684
v 0.011335 0.034958 0.069375
v 0.015587 0.033568 0.066684
v 0.020105 0.031877 0.066684
v 0.025539 0.029858 0.063993
v 0.033630 0.026760 0.063393
v 0.047130 0.021399 0.060879
v 0.052936 0.018711 0.054434
v 0.066728 -0.005286 0.026409
v -0.054248 0.037809 0.029016
v -0.058234 0.040007 0.029601
v 0.063964 -0.005130 0.027599
v 0.072640 -0.004380 0.027796
v 0.051647 0.019190 0.061504
v 0.054836 0.012999 0.062935
v 0.073610 -0.001645 0.030049
v 0.050731 0.018786 0.065114
v 0.051647 0.015376 0.065887
v -0.039447 0.029639 0.062266
v -0.038198 0.030002 0.065144
v -0.034305 0.031000 0.067466
v -0.030120 0.031000 0.068445
v -0.027436 0.031000 0.069001
v -0.027436 0.028317 0.069178
v -0.024752 0.028317 0.069670
v -0.019371 0.039084 0.069990
v -0.016687 0.039084 0.070432
v -0.017750 0.025127 0.070880
v -0.008595 0.036389 0.071564
v -0.005898 0.036389 0.071810
v -0.003227 0.036389 0.071992
v -0.003227 0.038674 0.071328
v 0.003390 0.036418 0.071549
v 0.012890 0.033268 0.071500
v 0.016504 0.032650 0.070639
v 0.025273 0.029766 0.068460
v 0.029033 0.028456 0.066684
v 0.033684 0.026627 0.066684
v 0.037112 0.025363 0.063993
v 0.042479 0.023217 0.063993
v 0.047170 0.021255 0.063993
v 0.070342 -0.006001 0.028888
v 0.066728 -0.006180 0.029026
v -0.039885 0.029442 0.047842
v -0.040005 0.029350 0.050538
v 0.062489 -0.005378 0.030290
v -0.038198 0.028433 0.055920
v 0.051953 0.012047 0.065365
v 0.051979 0.005279 0.062743
v 0.048724 0.000340 0.063899
v 0.044672 0.021936 0.066123
v 0.043011 0.021284 0.068164
v 0.047874 0.017568 0.067264
v 0.047874 0.014885 0.067117
v 0.047874 0.012179 0.066831
v -0.035368 0.027042 0.061307
v -0.033853 0.026454 0.064386
v -0.026559 0.024042 0.068292
v -0.030903 0.027965 0.068337
v -0.022054 0.025623 0.070211
v -0.022054 0.028317 0.070122
v -0.022054 0.031000 0.069980
v -0.019371 0.036389 0.070137
v -0.013976 0.022940 0.071411
v -0.011292 0.022940 0.071677
v -0.005898 0.033689 0.071874
v -0.003227 0.033689 0.072075
v -0.000517 0.033689 0.072238
v 0.002167 0.033689 0.072351
v 0.004865 0.033689 0.072380
v -0.000517 0.037353 0.071613
v 0.008014 0.034566 0.071657
v 0.012890 0.031000 0.072341
v 0.015587 0.031000 0.071962
v 0.021912 0.030100 0.071087
v 0.031186 0.027279 0.068691
v 0.037922 0.024804 0.067043
v 0.047874 -0.002084 0.061307
v 0.045190 -0.002089 0.061307
v -0.008236 0.016357 0.063240
v -0.029336 0.024492 0.060726
v -0.038211 0.028612 0.050538
v -0.038211 0.028462 0.053229
v 0.045203 -0.001778 0.050533
v 0.014099 0.008100 0.063270
v -0.035381 0.027031 0.058611
v 0.045190 -0.002043 0.054292
v 0.048246 0.005775 0.065882
v 0.045190 0.000530 0.065980
v 0.045190 -0.001461 0.063993
v 0.039809 0.020257 0.069193
v 0.044738 0.018561 0.068071
v 0.027306 0.026431 0.071155
v 0.034414 0.006808 0.069129
v 0.042479 0.004119 0.067264
v 0.045190 0.006808 0.066920
v 0.045190 0.004119 0.066644
v -0.032830 0.025906 0.061307
v -0.030120 0.024832 0.063993
v -0.020447 0.021088 0.067087
v -0.011664 0.018768 0.070836
v -0.016753 0.021803 0.070875
v -0.024752 0.025623 0.069557
v -0.008595 0.019178 0.071579
v -0.004569 0.020263 0.072144
v -0.008595 0.022940 0.071893
v -0.003227 0.031000 0.072120
v -0.005898 0.025623 0.072036
v -0.000517 0.031000 0.072262
v -0.003227 0.028317 0.072159
v -0.003227 0.025623 0.072184
v -0.003227 0.022940 0.072193
v 0.002167 0.031000 0.072346
v 0.004865 0.031000 0.072380
v 0.010206 0.031000 0.072434
v 0.015587 0.028312 0.072272
v 0.018271 0.028312 0.072149
v 0.020968 0.028312 0.071844
v 0.042479 -0.000849 0.064932
v 0.039384 -0.000278 0.065055
v 0.042479 -0.001461 0.061307
v 0.042479 -0.001489 0.058616
v -0.000742 0.013454 0.066684
v -0.011292 0.017464 0.063993
v 0.010206 0.009496 0.063993
v -0.024752 0.022692 0.063993
v -0.027422 0.023742 0.063993
v 0.034414 0.001107 0.061307
v 0.027479 0.003461 0.063993
v 0.026349 0.003894 0.066684
v 0.014909 0.007881 0.067358
v 0.007655 0.010408 0.066684
v 0.037523 0.002699 0.068091
v 0.034414 0.002538 0.068209
v 0.030295 0.022363 0.070801
v 0.037112 0.020257 0.069660
v 0.023652 0.025623 0.071687
v 0.031730 0.006808 0.069581
v -0.008196 0.016380 0.067540
v 0.008040 0.010564 0.069375
v 0.009356 0.010610 0.070944
v -0.000397 0.014787 0.071382
v -0.003705 0.016685 0.071554
v -0.000517 0.017574 0.072243
v -0.005898 0.022940 0.072066
v 0.002167 0.017574 0.072287
v 0.008864 0.014885 0.072159
v 0.015587 0.022940 0.072129
v 0.020968 0.025623 0.071888
v 0.015587 0.020257 0.072051
v 0.018271 0.025623 0.072066
v 0.031438 0.002723 0.068007
v 0.038733 -0.000318 0.060844
v 0.003509 0.011902 0.066684
v 0.023267 0.005025 0.067520
v 0.029033 0.006808 0.069955
v 0.020968 0.008689 0.071018
v 0.017965 0.008094 0.070762
v 0.026349 0.022940 0.071293
v 0.023652 0.012179 0.071023
v 0.028023 0.012179 0.070496
v 0.031730 0.017568 0.070314
v 0.034414 0.020257 0.070078
v 0.015587 0.012179 0.071775
v 0.018271 0.014885 0.071677
v 0.018271 0.012179 0.071564
v 0.020968 0.014885 0.071436
v 0.020968 0.012179 0.071308
v 0.029033 0.009496 0.070172
v 0.012890 0.010154 0.071229
v 0.010206 0.012179 0.071746
v 0.012890 0.012179 0.071864
v 0.012890 0.014885 0.071992
v 0.018271 0.022940 0.071977
v 0.015587 0.014885 0.071869
v 0.024675 0.009231 0.070727
f 1 2 3
f 1 3 4
f 1 4 5
f 1 5 6
f 1 6 7
f 1 7 8
f 1 8 2
f 2 8 9
f 2 9 3
f 3 10 11
f 3 11 12
f 3 12 4
f 3 9 13
f 3 13 14
f 3 14 10
f 4 12 15
f 4 15 5
f 5 16 17
f 5 17 18
f 5 18 19
f 5 19 6
f 5 15 20
f 5 20 16
f 6 19 7
f 7 19 18
f 7 18 21
f 7 21 22
f 7 22 8
f 8 22 23
f 8 23 24
f 8 24 25
f 8 25 9
f 9 25 26
f 9 26 13
f 10 27 11
f 10 14 28
f 10 28 27
f 11 27 29
f 11 29 30
f 11 30 12
f 12 30 31
f 12 31 15
f 13 26 32
f 13 32 33
f 13 33 34
f 13 34 14
f 14 34 28
f 15 31 35
f 15 35 20
f 16 36 37
f 16 37 17
f 16 20 38
f 16 38 39
f 16 39 36
f 17 37 40
f 17 40 41
f 17 41 18
f 18 42 21
f 18 41 43
f 18 43 44
f 18 44 42
f 20 35 38
f 21 42 45
f 21 45 22
f 22 45 23
f 23 45 46
f 23 46 47
f 23 47 48
f 23 48 24
f 24 48 49
f 24 49 50
f 24 50 25
f 25 50 51
f 25 51 26
f 26 51 50
f 26 50 52
f 26 52 32
f 27 28 53
f 27 53 54
f 27 54 55
f 27 55 29
f 28 34 56
f 28 56 57
f 28 57 53
f 29 55 58
f 29 58 31
f 29 31 30
f 31 58 35
f 32 52 59
f 32 59 60
f 32 60 33
f 33 61 34
f 33 60 62
f 33 62 61
f 34 61 63
f 34 63 56
f 35 58 64
f 35 64 65
f 35 65 38
f 36 39 66
f 36 66 67
f 36 67 68
f 36 68 37
f 37 68 69
f 37 69 70
f 37 70 71
f 37 71 40
f 38 65 39
f 39 67 66
f 39 65 67
f 40 71 72
f 40 72 73
f 40 73 74
f 40 74 41
f 41 74 75
f 41 75 76
f 41 76 77
f 41 77 43
f 42 44 78
f 42 78 45
f 43 77 44
f 44 77 78
f 45 78 79
f 45 79 80
f 45 80 46
f 46 80 81
f 46 81 82
f 46 82 47
f 47 82 49
f 47 49 48
f 49 83 84
f 49 84 85
f 49 85 50
f 49 82 83
f 50 86 87
f 50 87 52
f 50 85 86
f 52 87 59
f 53 57 88
f 53 88 54
f 54 89 90
f 54 90 55
f 54 88 91
f 54 91 89
f 55 90 58
f 56 63 92
f 56 92 57
f 57 92 88
f 58 90 64
f 59 87 60
f 60 87 93
f 60 93 62
f 61 62 94
f 61 94 95
f 61 95 63
f 62 93 96
f 62 96 97
f 62 97 94
f 63 95 92
f 64 98 99
f 64 99 65
f 64 90 98
f 65 99 67
f 67 99 100
f 67 100 70
f 67 70 69
f 67 69 68
f 70 100 101
f 70 101 71
f 71 101 102
f 71 102 103
f 71 103 72
f 72 103 104
f 72 104 105
f 72 105 73
f 73 105 106
f 73 106 74
f 74 106 107
f 74 107 108
f 74 108 109
f 74 109 110
f 74 110 75
f 75 110 111
f 75 111 76
f 76 80 79
f 76 79 77
f 76 111 112
f 76 112 113
f 76 113 114
f 76 114 81
f 76 81 80
f 77 79 78
f 81 114 115
f 81 115 83
f 81 83 82
f 83 115 116
f 83 116 84
f 84 116 85
f 85 116 117
f 85 117 118
f 85 118 86
f 86 118 119
f 86 119 120
f 86 120 93
f 86 93 87
f 88 92 121
f 88 121 122
f 88 122 91
f 89 123 124
f 89 124 90
f 89 91 125
f 89 125 123
f 90 124 126
f 90 126 98
f 91 122 125
f 92 95 121
f 93 120 96
f 94 97 127
f 94 127 128
f 94 128 95
f 95 128 129
f 95 129 121
f 96 120 130
f 96 130 131
f 96 131 132
f 96 132 97
f 97 132 133
f 97 133 134
f 97 134 127
f 98 126 135
f 98 135 136
f 98 136 99
f 99 136 137
f 99 137 138
f 99 138 100
f 100 138 103
f 100 103 101
f 101 103 102
f 103 138 139
f 103 139 104
f 104 139 140
f 104 140 141
f 104 141 105
f 105 141 142
f 105 142 106
f 106 142 140
f 106 140 107
f 107 140 139
f 107 139 143
f 107 143 108
f 108 143 144
f 108 144 109
f 109 145 146
f 109 146 110
f 109 144 145
f 110 146 147
f 110 147 148
f 110 148 149
f 110 149 150
f 110 150 111
f 111 150 112
f 112 149 151
f 112 151 113
f 112 150 149
f 113 151 152
f 113 152 153
f 113 153 154
f 113 154 114
f 114 154 155
f 114 155 115
f 115 155 117
f 115 117 116
f 117 155 156
f 117 156 120
f 117 120 119
f 117 119 118
f 120 156 130
f 121 129 157
f 121 157 122
f 122 157 158
f 122 158 125
f 123 159 160
f 123 160 161
f 123 161 162
f 123 162 124
f 123 125 163
f 123 163 164
f 123 164 159
f 124 162 165
f 124 165 126
f 125 158 166
f 125 166 163
f 126 165 135
f 127 134 167
f 127 167 129
f 127 129 128
f 129 167 168
f 129 168 169
f 129 169 157
f 130 156 155
f 130 155 131
f 131 170 171
f 131 171 132
f 131 155 154
f 131 154 172
f 131 172 170
f 132 171 133
f 133 171 173
f 133 173 174
f 133 174 175
f 133 175 176
f 133 176 134
f 134 176 167
f 135 165 177
f 135 177 136
f 136 177 178
f 136 178 179
f 136 179 137
f 137 179 180
f 137 180 181
f 137 181 138
f 138 181 182
f 138 182 139
f 139 182 181
f 139 181 143
f 140 142 141
f 143 181 183
f 143 183 184
f 143 184 144
f 144 185 145
f 144 184 185
f 145 185 146
f 146 186 147
f 146 185 187
f 146 187 186
f 147 188 148
f 147 186 189
f 147 189 188
f 148 188 190
f 148 190 191
f 148 191 192
f 148 192 193
f 148 193 149
f 149 193 194
f 149 194 152
f 149 152 151
f 152 194 195
f 152 195 196
f 152 196 197
f 152 197 153
f 153 197 154
f 154 197 172
f 157 169 158
f 158 169 198
f 158 198 199
f 158 199 200
f 158 200 201
f 158 201 166
f 159 202 203
f 159 203 160
f 159 164 204
f 159 204 202
f 160 205 206
f 160 206 177
f 160 177 165
f 160 165 162
f 160 162 161
f 160 203 205
f 163 166 201
f 163 201 207
f 163 207 164
f 164 207 208
f 164 208 209
f 164 209 210
f 164 210 211
f 164 211 204
f 167 176 168
f 168 176 174
f 168 174 212
f 168 212 213
f 168 213 198
f 168 198 169
f 170 172 214
f 170 214 215
f 170 215 173
f 170 173 171
f 172 197 216
f 172 216 214
f 173 212 174
f 173 215 217
f 173 217 212
f 174 176 175
f 177 206 178
f 178 206 179
f 179 205 203
f 179 203 202
f 179 202 218
f 179 218 180
f 179 206 205
f 180 218 219
f 180 219 220
f 180 220 221
f 180 221 222
f 180 222 183
f 180 183 181
f 183 222 223
f 183 223 184
f 184 223 191
f 184 191 190
f 184 190 224
f 184 224 185
f 185 224 187
f 186 187 189
f 187 224 189
f 188 189 190
f 189 224 190
f 191 223 192
f 192 223 225
f 192 225 193
f 193 225 194
f 194 226 195
f 194 225 226
f 195 226 227
f 195 227 196
f 196 228 216
f 196 216 197
f 196 227 229
f 196 229 230
f 196 230 228
f 198 213 231
f 198 231 199
f 199 232 200
f 199 231 209
f 199 209 232
f 200 232 201
f 201 232 207
f 202 233 219
f 202 219 218
f 202 204 233
f 204 211 233
f 207 232 209
f 207 209 208
f 209 234 210
f 209 231 234
f 210 219 211
f 210 234 219
f 211 219 233
f 212 217 235
f 212 235 213
f 213 235 236
f 213 236 237
f 213 237 231
f 214 216 238
f 214 238 239
f 214 239 240
f 214 240 241
f 214 241 242
f 214 242 215
f 215 242 241
f 215 241 217
f 216 228 243
f 216 243 244
f 216 244 245
f 216 245 246
f 216 246 247
f 216 247 238
f 217 241 248
f 217 248 235
f 219 234 220
f 220 234 231
f 220 231 237
f 220 237 249
f 220 249 250
f 220 250 221
f 221 223 222
f 221 250 223
f 223 250 251
f 223 251 226
f 223 226 225
f 226 251 243
f 226 243 252
f 226 252 229
f 226 229 227
f 228 230 253
f 228 253 243
f 229 254 253
f 229 253 230
f 229 252 254
f 235 248 255
f 235 255 236
f 236 255 245
f 236 245 243
f 236 243 251
f 236 251 237
f 237 251 249
f 238 247 239
f 239 247 255
f 239 255 240
f 240 248 241
f 240 255 248
f 243 245 244
f 243 253 254
f 243 254 252
f 245 255 247
f 245 247 246
f 249 251 250
