v -0.082720 -0.060171 0.007507
v -0.085819 -0.060171 -0.000877
v -0.083988 -0.060171 0.010083
v 0.007437 -0.099469 0.008918
v 0.007437 -0.099469 0.007530
v 0.007437 -0.099514 0.006156
v -0.086964 -0.060171 -0.003219
v -0.083998 -0.060171 0.010091
v -0.082250 -0.061677 0.011700
v 0.007437 -0.100383 0.010015
v 0.007437 -0.100383 0.005355
v -0.010480 -0.097194 -0.004330
v -0.009396 -0.096424 -0.002535
v -0.087312 -0.060171 -0.003376
v -0.011359 -0.096002 -0.003374
v -0.012279 -0.096648 -0.004781
v -0.091995 -0.060171 0.012043
v -0.082475 -0.064478 0.014249
v -0.081462 -0.063286 0.012841
v 0.007437 -0.101948 0.011676
v 0.007437 -0.100532 0.005221
v 0.007437 -0.100622 0.005144
v -0.009457 -0.098987 -0.004882
v -0.087956 -0.061801 -0.004644
v -0.089173 -0.060171 -0.003901
v -0.011359 -0.098128 -0.005130
v -0.014008 -0.098178 -0.005669
v -0.094777 -0.060171 0.012047
v -0.083978 -0.064478 0.014249
v -0.083978 -0.065884 0.014844
v -0.081462 -0.065834 0.014644
v -0.080685 -0.064905 0.013979
v -0.014008 -0.099956 0.014119
v -0.012515 -0.101854 0.014278
v 0.007437 -0.103557 0.011971
v 0.007437 -0.103468 0.003814
v 0.007437 -0.103557 0.003779
v -0.009355 -0.100865 -0.004907
v -0.011328 -0.100865 -0.005309
v -0.088068 -0.061801 -0.004644
v -0.016708 -0.098178 -0.005793
v -0.089623 -0.060171 -0.003791
v -0.014008 -0.100865 -0.005456
v -0.095391 -0.060171 0.011923
v -0.088191 -0.066788 0.014313
v -0.086453 -0.065889 0.014497
v -0.085420 -0.064518 0.014220
v -0.083978 -0.068576 0.015298
v -0.081288 -0.068576 0.015309
v -0.012515 -0.102345 0.014278
v 0.007437 -0.103652 0.011965
v 0.007437 -0.106160 0.004364
v -0.009672 -0.102360 -0.004746
v -0.088068 -0.061950 -0.004644
v -0.091566 -0.060171 -0.002794
v -0.019397 -0.098178 -0.005625
v -0.043614 -0.091889 -0.004812
v -0.055763 -0.086102 -0.004651
v -0.014008 -0.102335 -0.004762
v -0.015624 -0.102271 -0.004702
v -0.016595 -0.101009 -0.005223
v -0.022087 -0.098178 -0.005454
v -0.011328 -0.102400 -0.004795
v -0.096608 -0.060171 0.010665
v -0.093366 -0.064463 0.011395
v -0.088191 -0.067518 0.014313
v -0.086678 -0.068482 0.014625
v -0.085778 -0.070295 0.014433
v -0.083784 -0.071219 0.014633
v -0.081288 -0.071264 0.014997
v -0.058585 -0.086156 0.014231
v -0.015480 -0.102246 0.014220
v -0.014008 -0.102340 0.014270
v -0.010347 -0.107690 0.011585
v 0.004656 -0.108738 0.011138
v 0.006364 -0.107705 0.011545
v 0.007437 -0.106344 0.011773
v 0.007437 -0.106285 0.011783
v 0.007437 -0.106250 0.004388
v 0.007437 -0.108738 0.005559
v 0.007437 -0.110085 0.006342
v 0.004819 -0.110194 0.006210
v 0.001128 -0.110303 0.006115
v -0.089122 -0.062988 -0.003907
v -0.091546 -0.060499 -0.002796
v -0.096321 -0.060171 0.006094
v -0.030155 -0.097293 -0.004898
v -0.039758 -0.094184 -0.004667
v -0.050527 -0.088869 -0.004688
v -0.051529 -0.089489 -0.003337
v -0.053574 -0.089077 -0.002473
v -0.088028 -0.067240 -0.001955
v -0.089101 -0.065705 -0.002496
v -0.086667 -0.065884 -0.003450
v 0.000545 -0.110303 0.006115
v -0.003249 -0.110149 0.006605
v -0.011328 -0.108336 0.005510
v -0.014008 -0.108018 0.005762
v -0.026157 -0.104909 0.006125
v -0.024112 -0.099767 -0.004826
v -0.022087 -0.099981 -0.004981
v -0.019397 -0.100309 -0.005148
v -0.096914 -0.060171 0.010073
v -0.096730 -0.060504 0.010029
v -0.095708 -0.061408 0.010835
v -0.096168 -0.061950 0.009042
v -0.093622 -0.064756 0.009600
v -0.088068 -0.069972 0.011655
v -0.087578 -0.069312 0.013448
v -0.085389 -0.072675 0.011638
v -0.084551 -0.072088 0.013433
v -0.077862 -0.078541 0.012012
v -0.082751 -0.072689 0.014262
v -0.086483 -0.071030 0.012543
v -0.059588 -0.087195 0.013671
v -0.048983 -0.092793 0.013045
v -0.023692 -0.105008 0.011601
v -0.016513 -0.103309 0.013470
v -0.027476 -0.100865 0.012919
v -0.029573 -0.102648 0.011748
v -0.011277 -0.108401 0.010347
v -0.004937 -0.110358 0.008951
v 0.002140 -0.110800 0.009567
v 0.004819 -0.110914 0.009703
v 0.007437 -0.110875 0.009612
v 0.007366 -0.108738 0.011000
v 0.007437 -0.108738 0.010996
v 0.007437 -0.108699 0.011012
v 0.007437 -0.107472 0.011463
v 0.007437 -0.110875 0.007689
v 0.004819 -0.110914 0.007557
v -0.090830 -0.064692 -0.002089
v -0.091188 -0.063192 -0.002486
v -0.097037 -0.060171 0.007573
v -0.031976 -0.097040 -0.004772
v -0.041548 -0.093791 -0.004246
v -0.046896 -0.090990 -0.004409
v -0.032876 -0.097631 -0.003409
v -0.048308 -0.091745 -0.002612
v -0.055978 -0.094283 0.008563
v -0.059291 -0.091968 0.008094
v -0.064281 -0.089057 0.008350
v -0.077351 -0.080796 0.008672
v 0.002068 -0.110711 0.007241
v -0.004937 -0.110358 0.008267
v -0.011328 -0.109270 0.007478
v -0.014008 -0.108629 0.007478
v -0.027220 -0.105231 0.007509
v -0.027957 -0.104635 0.006636
v -0.029174 -0.099608 -0.002166
v -0.030104 -0.098739 -0.003151
v -0.025911 -0.099365 -0.004485
v -0.096168 -0.061950 0.008569
v -0.077351 -0.080796 0.009063
v -0.093622 -0.064756 0.008329
v -0.076451 -0.080339 0.010858
v -0.063913 -0.088854 0.011603
v -0.062441 -0.089286 0.011863
v -0.059567 -0.090195 0.012142
v -0.057062 -0.090105 0.012754
v -0.053083 -0.094154 0.011527
v -0.046221 -0.095590 0.012165
v -0.032855 -0.100617 0.012136
v -0.018651 -0.107755 0.009133
v -0.016708 -0.106970 0.010820
v -0.035555 -0.101501 0.010946
v -0.035555 -0.102728 0.009600
v -0.027476 -0.105306 0.009496
v -0.024664 -0.105569 0.010269
v -0.045270 -0.096985 0.011618
v -0.091034 -0.064930 -0.000592
v -0.040760 -0.094641 -0.003322
v -0.042202 -0.099489 0.006156
v -0.042683 -0.094338 -0.002451
v -0.036199 -0.101918 0.006545
v -0.045137 -0.099608 0.008614
v -0.050660 -0.097005 0.008480
v -0.055978 -0.094283 0.009253
v -0.064251 -0.089057 0.010170
v -0.018651 -0.107755 0.008435
v -0.029245 -0.105013 0.008429
v -0.030155 -0.104332 0.007509
v -0.032855 -0.103473 0.007478
v -0.035391 -0.102658 0.007456
v -0.034410 -0.102271 0.006084
v -0.062441 -0.090180 0.010170
v -0.054883 -0.093811 0.011048
v -0.058555 -0.091501 0.011550
v -0.043614 -0.099931 0.009381
v -0.043614 -0.098605 0.010725
v -0.029245 -0.105013 0.009104
v -0.037386 -0.102395 0.009139
v -0.043614 -0.099931 0.008011
v -0.037386 -0.102395 0.008338
v -0.045137 -0.099608 0.008966
v -0.050660 -0.097005 0.009085
f 1 2 7
f 1 7 14
f 1 14 25
f 1 25 42
f 1 42 55
f 1 55 86
f 1 86 134
f 1 134 103
f 1 103 64
f 1 64 44
f 1 44 28
f 1 28 17
f 1 17 8
f 1 8 3
f 1 3 4
f 1 4 5
f 1 5 6
f 1 6 2
f 2 6 7
f 3 8 9
f 3 9 4
f 4 10 20
f 4 20 35
f 4 35 51
f 4 51 78
f 4 78 77
f 4 77 129
f 4 129 128
f 4 128 127
f 4 127 125
f 4 125 130
f 4 130 81
f 4 81 80
f 4 80 79
f 4 79 52
f 4 52 37
f 4 37 36
f 4 36 22
f 4 22 21
f 4 21 11
f 4 11 6
f 4 6 5
f 4 9 10
f 6 11 12
f 6 12 13
f 6 13 7
f 7 13 15
f 7 15 16
f 7 16 14
f 8 17 9
f 9 17 18
f 9 18 19
f 9 19 20
f 9 20 10
f 11 21 12
f 12 16 15
f 12 15 13
f 12 21 22
f 12 22 23
f 12 23 16
f 14 16 24
f 14 24 25
f 16 23 26
f 16 26 27
f 16 27 24
f 17 28 18
f 18 28 29
f 18 29 30
f 18 30 31
f 18 31 20
f 18 20 32
f 18 32 19
f 19 32 20
f 20 33 34
f 20 34 35
f 20 31 33
f 22 36 23
f 23 36 37
f 23 37 38
f 23 38 39
f 23 39 27
f 23 27 26
f 24 40 25
f 24 27 41
f 24 41 40
f 25 40 42
f 27 39 43
f 27 43 41
f 28 44 45
f 28 45 46
f 28 46 30
f 28 30 47
f 28 47 29
f 29 47 30
f 30 46 48
f 30 48 49
f 30 49 31
f 31 49 33
f 33 49 34
f 34 50 35
f 34 49 50
f 35 50 51
f 37 52 53
f 37 53 38
f 38 53 39
f 39 53 43
f 40 54 55
f 40 55 42
f 40 41 54
f 41 43 56
f 41 56 57
f 41 57 58
f 41 58 54
f 43 59 60
f 43 60 61
f 43 61 62
f 43 62 56
f 43 53 63
f 43 63 59
f 44 64 65
f 44 65 66
f 44 66 45
f 45 66 48
f 45 48 46
f 48 66 67
f 48 67 68
f 48 68 69
f 48 69 70
f 48 70 71
f 48 71 72
f 48 72 73
f 48 73 50
f 48 50 49
f 50 73 74
f 50 74 75
f 50 75 76
f 50 76 77
f 50 77 78
f 50 78 51
f 52 79 53
f 53 79 80
f 53 80 81
f 53 81 82
f 53 82 83
f 53 83 63
f 54 84 85
f 54 85 55
f 54 58 84
f 55 85 86
f 56 62 57
f 57 87 88
f 57 88 89
f 57 89 58
f 57 62 87
f 58 89 90
f 58 90 91
f 58 91 92
f 58 92 93
f 58 93 94
f 58 94 84
f 59 63 95
f 59 95 60
f 60 95 96
f 60 96 97
f 60 97 98
f 60 98 99
f 60 99 100
f 60 100 61
f 61 100 101
f 61 101 102
f 61 102 62
f 62 102 101
f 62 101 87
f 63 83 95
f 64 103 104
f 64 104 105
f 64 105 65
f 65 105 104
f 65 104 106
f 65 106 107
f 65 107 108
f 65 108 109
f 65 109 66
f 66 109 68
f 66 68 67
f 68 110 111
f 68 111 112
f 68 112 113
f 68 113 69
f 68 109 114
f 68 114 110
f 69 113 115
f 69 115 71
f 69 71 70
f 71 115 116
f 71 116 72
f 72 117 118
f 72 118 74
f 72 74 73
f 72 116 119
f 72 119 120
f 72 120 117
f 74 118 117
f 74 117 121
f 74 121 122
f 74 122 123
f 74 123 124
f 74 124 75
f 75 124 125
f 75 125 126
f 75 126 76
f 76 126 127
f 76 127 128
f 76 128 129
f 76 129 77
f 81 130 82
f 82 130 83
f 83 130 131
f 83 131 95
f 84 94 93
f 84 93 132
f 84 132 133
f 84 133 85
f 85 133 86
f 86 133 134
f 87 100 135
f 87 135 88
f 87 101 100
f 88 136 137
f 88 137 89
f 88 135 138
f 88 138 136
f 89 137 90
f 90 137 139
f 90 139 91
f 91 139 140
f 91 140 141
f 91 141 142
f 91 142 92
f 92 142 143
f 92 143 132
f 92 132 93
f 95 131 144
f 95 144 96
f 96 144 145
f 96 145 146
f 96 146 97
f 97 146 98
f 98 146 147
f 98 147 148
f 98 148 99
f 99 148 149
f 99 149 100
f 100 149 150
f 100 150 151
f 100 151 152
f 100 152 135
f 103 134 106
f 103 106 104
f 106 134 153
f 106 153 155
f 106 155 107
f 107 154 110
f 107 110 108
f 107 155 143
f 107 143 154
f 108 114 109
f 108 110 114
f 110 154 112
f 110 112 111
f 112 154 156
f 112 156 157
f 112 157 113
f 113 157 158
f 113 158 115
f 115 159 160
f 115 160 116
f 115 158 159
f 116 160 161
f 116 161 162
f 116 162 120
f 116 120 163
f 116 163 119
f 117 164 165
f 117 165 121
f 117 120 166
f 117 166 167
f 117 167 168
f 117 168 169
f 117 169 164
f 119 163 120
f 120 162 170
f 120 170 166
f 121 165 164
f 121 164 122
f 122 145 123
f 122 164 146
f 122 146 145
f 123 145 131
f 123 131 124
f 124 131 130
f 124 130 125
f 125 127 126
f 131 145 144
f 132 171 153
f 132 153 134
f 132 134 133
f 132 143 171
f 135 152 138
f 136 138 172
f 136 172 173
f 136 173 174
f 136 174 139
f 136 139 137
f 138 152 151
f 138 151 150
f 138 150 175
f 138 175 173
f 138 173 172
f 139 174 176
f 139 176 177
f 139 177 140
f 140 177 196
f 140 196 178
f 140 178 142
f 140 142 141
f 142 178 179
f 142 179 154
f 142 154 143
f 143 155 171
f 146 164 180
f 146 180 147
f 147 180 148
f 148 181 149
f 148 180 181
f 149 181 182
f 149 182 183
f 149 183 184
f 149 184 185
f 149 185 150
f 150 185 175
f 153 171 155
f 154 179 157
f 154 157 156
f 157 179 186
f 157 186 178
f 157 178 187
f 157 187 188
f 157 188 158
f 158 188 161
f 158 161 159
f 159 161 160
f 161 188 187
f 161 187 189
f 161 189 190
f 161 190 166
f 161 166 170
f 161 170 162
f 164 169 168
f 164 168 191
f 164 191 181
f 164 181 180
f 166 190 189
f 166 189 167
f 167 189 192
f 167 192 191
f 167 191 168
f 173 193 176
f 173 176 174
f 173 175 193
f 175 185 184
f 175 184 194
f 175 194 193
f 176 193 194
f 176 194 192
f 176 192 195
f 176 195 196
f 176 196 177
f 178 196 187
f 178 186 179
f 181 191 192
f 181 192 194
f 181 194 183
f 181 183 182
f 183 194 184
f 187 196 195
f 187 195 189
f 189 195 192
