v 0.018302 0.159341 0.010171
v 0.018302 0.159051 0.008443
v 0.015822 0.159051 0.008523
v 0.015822 0.159299 0.010030
v 0.015822 0.159320 0.010171
v 0.015822 0.159151 0.011709
v 0.015822 0.159135 0.011846
v 0.018302 0.159146 0.011859
v 0.020992 0.159087 0.011803
v 0.020992 0.159272 0.010171
v 0.020992 0.159045 0.008449
v 0.020992 0.158475 0.007103
v 0.015822 0.158992 0.008412
v 0.018302 0.158385 0.007098
v 0.018302 0.157513 0.012718
v 0.015822 0.157651 0.012606
v 0.020992 0.157513 0.012649
v 0.029062 0.156969 0.012278
v 0.022754 0.158987 0.011689
v 0.022383 0.158866 0.008804
v 0.029062 0.157931 0.010171
v 0.038557 0.156187 0.008775
v 0.026372 0.157883 0.007479
v 0.020992 0.157128 0.004990
v 0.018302 0.157043 0.004968
v 0.036618 0.150910 -0.002136
v 0.029062 0.151571 -0.002776
v 0.026372 0.151824 -0.002950
v 0.015822 0.158311 0.007178
v 0.015822 0.157513 0.012675
v 0.015822 0.155041 0.013273
v 0.031752 0.151148 0.014301
v 0.031752 0.152495 0.013939
v 0.029062 0.154825 0.013324
v 0.031752 0.154825 0.013150
v 0.034451 0.154825 0.012833
v 0.042521 0.154180 0.012158
v 0.031752 0.156710 0.012075
v 0.031752 0.157418 0.010171
v 0.034451 0.156467 0.011852
v 0.036458 0.156293 0.011663
v 0.038254 0.156098 0.010927
v 0.038557 0.156187 0.009132
v 0.047091 0.153678 0.010171
v 0.046906 0.153615 0.008659
v 0.046872 0.148216 -0.002094
v 0.023682 0.151919 -0.002895
v 0.015822 0.156964 0.005096
v 0.015822 0.158200 0.007002
v 0.034451 0.151079 -0.002346
v 0.039831 0.149215 -0.002928
v 0.037360 0.149701 -0.002990
v 0.034451 0.149442 -0.003533
v 0.029062 0.149442 -0.003891
v 0.026372 0.149442 -0.004012
v 0.015822 0.154825 0.013308
v 0.033784 0.151090 0.014290
v 0.029973 0.150969 0.014250
v 0.031668 0.149299 0.014299
v 0.047901 0.145031 0.014294
v 0.047640 0.146637 0.014278
v 0.034586 0.152041 0.013899
v 0.047640 0.149173 0.013739
v 0.045211 0.152131 0.012740
v 0.045211 0.153837 0.011921
v 0.046914 0.153610 0.011689
v 0.055406 0.151006 0.010171
v 0.055254 0.150953 0.008657
v 0.054917 0.145475 -0.002021
v 0.053290 0.145728 -0.002313
v 0.050599 0.146172 -0.002748
v 0.047825 0.146880 -0.002888
v 0.023682 0.149442 -0.003688
v 0.021532 0.151544 -0.002496
v 0.015822 0.152125 0.001713
v 0.050599 0.144059 -0.003847
v 0.037141 0.146748 -0.004217
v 0.039831 0.146748 -0.004032
v 0.034451 0.146748 -0.004146
v 0.031752 0.146748 -0.003911
v 0.029062 0.146748 -0.003659
v 0.015822 0.152353 0.013349
v 0.046569 0.148100 0.014209
v 0.029973 0.150102 0.014250
v 0.030706 0.148306 0.014192
v 0.032503 0.148016 0.014234
v 0.075864 0.131825 0.014241
v 0.077500 0.131709 0.014245
v 0.077500 0.132311 0.014245
v 0.061351 0.140547 0.014268
v 0.063029 0.140235 0.014256
v 0.058670 0.148898 0.012071
v 0.050599 0.151544 0.012171
v 0.047850 0.152242 0.012283
v 0.061351 0.141894 0.014060
v 0.064041 0.144059 0.012983
v 0.061351 0.148459 0.011826
v 0.053290 0.151159 0.011910
v 0.055044 0.150910 0.011670
v 0.056755 0.150541 0.010171
v 0.062802 0.148143 0.008748
v 0.058670 0.143373 -0.002453
v 0.060483 0.142897 -0.002157
v 0.053290 0.144059 -0.003301
v 0.023851 0.146722 -0.002621
v 0.021860 0.147604 -0.002313
v 0.021380 0.149442 -0.002638
v 0.026372 0.146748 -0.003301
v 0.015822 0.149252 0.004810
v 0.020030 0.149442 -0.001372
v 0.019508 0.147915 0.000488
v 0.047901 0.144059 -0.004090
v 0.064041 0.138671 -0.003796
v 0.066740 0.135983 -0.004112
v 0.064041 0.135983 -0.004045
v 0.066740 0.133289 -0.003628
v 0.080190 0.127911 -0.003455
v 0.015822 0.152131 0.013329
v 0.101972 0.108726 0.011955
v 0.101972 0.109101 0.012066
v 0.101728 0.111763 0.012700
v 0.101972 0.111763 0.012706
v 0.078984 0.131751 0.014223
v 0.078984 0.132021 0.014223
v 0.073773 0.134741 0.014229
v 0.075569 0.134155 0.014163
v 0.074726 0.135777 0.013846
v 0.077500 0.135983 0.013371
v 0.074810 0.138671 0.012911
v 0.063873 0.146748 0.012029
v 0.062869 0.148185 0.011609
v 0.061351 0.148813 0.010171
v 0.062903 0.148201 0.010171
v 0.068249 0.145496 0.008690
v 0.065964 0.140277 -0.002255
v 0.064041 0.140753 -0.002650
v 0.061368 0.141524 -0.002857
v 0.024862 0.145332 -0.002020
v 0.022147 0.145264 0.000464
v 0.021110 0.146859 -0.000420
v 0.023066 0.145808 -0.001329
v 0.026372 0.145095 -0.002239
v 0.080190 0.125814 -0.002544
v 0.078023 0.126189 -0.002284
v 0.015822 0.149178 0.004901
v 0.015822 0.147630 0.007169
v 0.066807 0.138840 -0.002975
v 0.069430 0.135983 -0.003740
v 0.077500 0.130605 -0.003417
v 0.080283 0.130769 -0.002884
v 0.082357 0.129977 -0.002542
v 0.083108 0.128070 -0.002712
v 0.084542 0.126173 -0.002166
v 0.101972 0.109201 0.004083
v 0.101972 0.109059 0.004130
v 0.015822 0.149379 0.012218
v 0.101972 0.106655 0.010332
v 0.101972 0.114457 0.012755
v 0.101728 0.114457 0.012775
v 0.080005 0.133061 0.013759
v 0.077500 0.133653 0.014018
v 0.101728 0.117146 0.012490
v 0.101972 0.117151 0.012448
v 0.082889 0.130605 0.013750
v 0.082889 0.133289 0.013077
v 0.080190 0.135983 0.012778
v 0.072120 0.143045 0.011781
v 0.066740 0.145755 0.011812
v 0.068241 0.145485 0.010171
v 0.073520 0.142744 0.011549
v 0.073562 0.142765 0.010171
v 0.073545 0.142749 0.008779
v 0.071226 0.137588 -0.002253
v 0.069430 0.138069 -0.002650
v 0.023851 0.144973 -0.000497
v 0.101972 0.106439 0.005372
v 0.101972 0.106333 0.005452
v 0.101972 0.105525 0.006788
v 0.015822 0.147614 0.007229
v 0.015822 0.147620 0.007203
v 0.101972 0.105382 0.007479
v 0.072120 0.136078 -0.002823
v 0.079440 0.132306 -0.002301
v 0.097806 0.126665 0.008697
v 0.084154 0.129068 -0.001758
v 0.084542 0.127277 -0.002166
v 0.101972 0.111494 0.004092
v 0.015822 0.148253 0.011234
v 0.101972 0.106470 0.010153
v 0.101972 0.119782 0.011984
v 0.101770 0.119877 0.012009
v 0.095538 0.127077 0.011881
v 0.092705 0.129543 0.011768
v 0.084879 0.135032 0.011834
v 0.080190 0.137926 0.011922
v 0.077568 0.138803 0.012234
v 0.082729 0.135951 0.012055
v 0.078470 0.139738 0.010171
v 0.077121 0.140594 0.010171
v 0.076724 0.140325 0.011781
v 0.081733 0.137462 0.011645
v 0.081877 0.137557 0.010171
v 0.076885 0.140478 0.008391
v 0.081801 0.137499 0.008635
v 0.015822 0.147746 0.010113
v 0.101972 0.106296 0.009979
v 0.089930 0.132116 0.008619
v 0.093118 0.129823 0.008324
v 0.097806 0.126665 0.009045
v 0.100522 0.124034 0.008657
v 0.093219 0.129897 0.010171
v 0.101972 0.122069 0.008376
v 0.101972 0.121910 0.008257
v 0.101972 0.119665 0.007129
v 0.101972 0.119211 0.006908
v 0.101972 0.117817 0.006355
v 0.101972 0.116454 0.005853
v 0.101972 0.120072 0.011776
v 0.100910 0.121784 0.011792
v 0.100066 0.123580 0.011011
v 0.097326 0.126142 0.010840
v 0.096398 0.127425 0.010033
v 0.094568 0.128910 0.010171
v 0.089618 0.131952 0.011520
v 0.100522 0.124034 0.009217
v 0.101972 0.122185 0.009756
v 0.101972 0.121905 0.010334
v 0.101972 0.122185 0.009845
f 1 2 3
f 1 3 4
f 1 4 5
f 1 5 6
f 1 6 7
f 1 7 8
f 1 8 9
f 1 9 10
f 1 10 11
f 1 11 2
f 2 11 12
f 2 12 3
f 3 13 29
f 3 29 49
f 3 49 48
f 3 48 75
f 3 75 109
f 3 109 145
f 3 145 146
f 3 146 180
f 3 180 179
f 3 179 205
f 3 205 188
f 3 188 156
f 3 156 118
f 3 118 82
f 3 82 56
f 3 56 31
f 3 31 30
f 3 30 16
f 3 16 7
f 3 7 6
f 3 6 5
f 3 5 4
f 3 12 14
f 3 14 13
f 7 15 8
f 7 16 15
f 8 15 17
f 8 17 9
f 9 17 18
f 9 18 19
f 9 19 10
f 10 20 11
f 10 19 21
f 10 21 22
f 10 22 20
f 11 23 12
f 11 20 22
f 11 22 23
f 12 24 25
f 12 25 14
f 12 23 26
f 12 26 27
f 12 27 28
f 12 28 24
f 13 14 29
f 14 25 29
f 15 16 30
f 15 30 31
f 15 31 32
f 15 32 33
f 15 33 34
f 15 34 17
f 17 34 35
f 17 35 18
f 18 35 36
f 18 36 37
f 18 37 38
f 18 38 19
f 19 39 21
f 19 38 40
f 19 40 41
f 19 41 42
f 19 42 39
f 21 39 43
f 21 43 22
f 22 43 44
f 22 44 45
f 22 45 46
f 22 46 26
f 22 26 23
f 24 28 47
f 24 47 25
f 25 48 49
f 25 49 29
f 25 47 48
f 26 50 27
f 26 46 51
f 26 51 52
f 26 52 50
f 27 50 52
f 27 52 28
f 28 52 53
f 28 53 54
f 28 54 55
f 28 55 47
f 31 56 32
f 32 57 33
f 32 56 58
f 32 58 59
f 32 59 60
f 32 60 61
f 32 61 57
f 33 57 34
f 34 57 35
f 35 57 62
f 35 62 63
f 35 63 64
f 35 64 36
f 36 64 37
f 37 64 65
f 37 65 41
f 37 41 40
f 37 40 38
f 39 42 43
f 41 65 66
f 41 66 42
f 42 66 43
f 43 66 44
f 44 66 67
f 44 67 68
f 44 68 45
f 45 68 46
f 46 68 69
f 46 69 70
f 46 70 71
f 46 71 72
f 46 72 51
f 47 73 74
f 47 74 48
f 47 55 73
f 48 74 75
f 51 72 76
f 51 76 53
f 51 53 52
f 53 77 54
f 53 76 78
f 53 78 77
f 54 77 55
f 55 77 79
f 55 79 80
f 55 80 81
f 55 81 73
f 56 82 58
f 57 61 83
f 57 83 62
f 58 84 59
f 58 82 84
f 59 84 85
f 59 85 86
f 59 86 87
f 59 87 88
f 59 88 60
f 60 88 89
f 60 89 90
f 60 90 61
f 61 90 91
f 61 91 83
f 62 83 63
f 63 92 93
f 63 93 94
f 63 94 64
f 63 83 95
f 63 95 96
f 63 96 97
f 63 97 92
f 64 94 65
f 65 94 93
f 65 93 98
f 65 98 66
f 66 98 99
f 66 99 67
f 67 99 100
f 67 100 68
f 68 100 101
f 68 101 69
f 69 102 70
f 69 101 103
f 69 103 102
f 70 102 71
f 71 102 104
f 71 104 76
f 71 76 72
f 73 105 106
f 73 106 107
f 73 107 74
f 73 81 108
f 73 108 105
f 74 107 75
f 75 107 110
f 75 110 106
f 75 106 111
f 75 111 109
f 76 112 78
f 76 104 113
f 76 113 112
f 77 78 112
f 77 112 114
f 77 114 115
f 77 115 79
f 79 115 116
f 79 116 80
f 80 116 81
f 81 116 117
f 81 117 108
f 82 118 85
f 82 85 84
f 83 91 95
f 85 118 119
f 85 119 120
f 85 120 121
f 85 121 87
f 85 87 86
f 87 121 122
f 87 122 88
f 88 122 123
f 88 123 124
f 88 124 89
f 89 124 91
f 89 91 90
f 91 124 125
f 91 125 126
f 91 126 95
f 92 98 93
f 92 97 98
f 95 126 127
f 95 127 128
f 95 128 96
f 96 128 129
f 96 129 130
f 96 130 97
f 97 130 131
f 97 131 99
f 97 99 98
f 99 131 100
f 100 131 132
f 100 132 101
f 101 132 133
f 101 133 134
f 101 134 135
f 101 135 103
f 102 103 136
f 102 136 137
f 102 137 104
f 103 135 136
f 104 137 113
f 105 138 106
f 105 108 138
f 106 139 140
f 106 140 111
f 106 110 107
f 106 138 141
f 106 141 139
f 108 142 138
f 108 117 143
f 108 143 144
f 108 144 142
f 109 111 145
f 111 140 139
f 111 139 146
f 111 146 145
f 112 113 114
f 113 137 136
f 113 136 147
f 113 147 148
f 113 148 114
f 114 148 117
f 114 117 115
f 115 117 116
f 117 149 150
f 117 150 151
f 117 151 152
f 117 152 153
f 117 153 154
f 117 154 155
f 117 155 143
f 117 148 149
f 118 156 119
f 119 157 189
f 119 189 206
f 119 206 181
f 119 181 178
f 119 178 177
f 119 177 176
f 119 176 155
f 119 155 154
f 119 154 187
f 119 187 217
f 119 217 216
f 119 216 215
f 119 215 214
f 119 214 213
f 119 213 212
f 119 212 226
f 119 226 228
f 119 228 227
f 119 227 218
f 119 218 190
f 119 190 163
f 119 163 158
f 119 158 122
f 119 122 120
f 119 156 157
f 120 122 121
f 122 158 159
f 122 159 123
f 123 159 124
f 124 160 128
f 124 128 161
f 124 161 126
f 124 126 125
f 124 159 158
f 124 158 162
f 124 162 163
f 124 163 164
f 124 164 160
f 126 161 127
f 127 161 128
f 128 160 165
f 128 165 166
f 128 166 129
f 129 166 167
f 129 167 130
f 130 167 168
f 130 168 131
f 131 169 133
f 131 133 132
f 131 168 167
f 131 167 170
f 131 170 169
f 133 169 134
f 134 169 171
f 134 171 172
f 134 172 173
f 134 173 135
f 135 173 174
f 135 174 136
f 136 174 147
f 138 175 141
f 138 142 144
f 138 144 176
f 138 176 177
f 138 177 178
f 138 178 175
f 139 179 180
f 139 180 146
f 139 141 175
f 139 175 178
f 139 178 181
f 139 181 179
f 143 155 176
f 143 176 144
f 147 174 148
f 148 174 182
f 148 182 150
f 148 150 149
f 150 182 183
f 150 183 151
f 151 184 185
f 151 185 186
f 151 186 152
f 151 183 184
f 152 186 187
f 152 187 154
f 152 154 153
f 156 188 157
f 157 188 189
f 158 163 162
f 160 164 165
f 163 190 191
f 163 191 164
f 164 191 192
f 164 192 165
f 165 192 193
f 165 193 194
f 165 194 166
f 166 195 196
f 166 196 167
f 166 194 197
f 166 197 195
f 167 196 170
f 169 170 171
f 170 198 199
f 170 199 171
f 170 196 200
f 170 200 195
f 170 195 201
f 170 201 202
f 170 202 198
f 171 199 172
f 172 203 173
f 172 199 198
f 172 198 204
f 172 204 203
f 173 203 204
f 173 204 183
f 173 183 174
f 174 183 182
f 179 181 205
f 181 206 205
f 183 204 207
f 183 207 208
f 183 208 184
f 184 209 225
f 184 225 210
f 184 210 185
f 184 208 207
f 184 207 211
f 184 211 209
f 185 210 212
f 185 212 213
f 185 213 214
f 185 214 215
f 185 215 216
f 185 216 186
f 186 216 217
f 186 217 187
f 188 205 206
f 188 206 189
f 190 218 219
f 190 219 192
f 190 192 191
f 192 219 220
f 192 220 221
f 192 221 222
f 192 222 223
f 192 223 193
f 193 224 201
f 193 201 194
f 193 223 224
f 194 201 195
f 194 195 197
f 195 200 196
f 198 202 204
f 201 224 211
f 201 211 202
f 202 211 207
f 202 207 204
f 209 220 225
f 209 211 223
f 209 223 222
f 209 222 220
f 210 225 228
f 210 228 226
f 210 226 212
f 211 224 223
f 218 227 219
f 219 227 220
f 220 222 221
f 220 227 228
f 220 228 225
