v -0.014677 -0.088358 0.002920
v -0.014086 -0.092277 0.002920
v -0.014677 -0.097060 0.007526
v -0.014677 -0.116667 0.052957
v 0.048292 -0.079305 0.051853
v 0.017842 -0.074737 0.002920
v -0.011456 -0.092204 0.002920
v -0.011257 -0.097040 0.007536
v -0.014513 -0.124330 0.053458
v -0.014677 -0.122795 0.054766
v -0.014342 -0.098824 0.009356
v -0.014342 -0.100160 0.010869
v -0.014342 -0.104835 0.016629
v -0.014342 -0.106293 0.018827
v -0.014677 -0.118768 0.054403
v 0.051712 -0.079305 0.054056
v 0.049586 -0.079305 0.053013
v 0.057954 -0.079383 0.051638
v 0.039690 -0.079300 0.022559
v 0.037657 -0.079300 0.019696
v 0.036604 -0.079320 0.018321
v 0.035083 -0.079330 0.016476
v 0.033512 -0.079339 0.014774
v 0.029616 -0.079300 0.011042
v 0.017330 -0.080383 0.002920
v -0.007567 -0.091668 0.002920
v -0.008370 -0.096831 0.007740
v -0.006835 -0.098469 0.009693
v -0.008370 -0.100331 0.011472
v -0.009984 -0.101901 0.013138
v -0.014350 -0.124540 0.051561
v -0.008655 -0.124525 0.052737
v -0.010788 -0.123994 0.053790
v -0.012409 -0.123199 0.054690
v -0.010788 -0.122590 0.054874
v -0.014677 -0.120698 0.055027
v -0.014179 -0.103495 0.014907
v -0.012409 -0.101623 0.012668
v -0.009181 -0.103027 0.014595
v -0.009337 -0.105147 0.017457
v -0.012409 -0.105757 0.018107
v -0.014179 -0.108019 0.021664
v -0.012409 -0.106717 0.019604
v 0.053361 -0.079486 0.054531
v 0.055551 -0.079671 0.054454
v 0.054968 -0.083849 0.053228
v 0.056127 -0.082659 0.052200
v 0.054648 -0.085462 0.051643
v 0.053177 -0.087612 0.050861
v 0.038403 -0.080807 0.022175
v 0.038623 -0.079408 0.021117
v 0.036213 -0.081231 0.019522
v 0.033768 -0.082640 0.017907
v 0.032168 -0.081869 0.015489
v 0.030348 -0.082435 0.014084
v 0.028741 -0.082440 0.012463
v 0.031877 -0.080017 0.013675
v 0.027348 -0.079919 0.009575
v 0.015880 -0.081587 0.002920
v 0.024689 -0.082859 0.009560
v 0.021383 -0.085765 0.009504
v -0.001460 -0.090503 0.002920
v -0.001773 -0.093784 0.005956
v -0.002718 -0.097138 0.009064
v -0.004339 -0.098361 0.010025
v -0.002235 -0.098673 0.010751
v -0.001567 -0.100136 0.012520
v -0.003052 -0.101896 0.014273
v -0.007567 -0.102529 0.014191
v -0.011954 -0.124442 0.051152
v -0.009174 -0.123501 0.054245
v -0.002718 -0.123180 0.050728
v 0.001633 -0.122780 0.051684
v 0.004540 -0.122156 0.051996
v 0.001235 -0.122444 0.053402
v -0.004346 -0.122795 0.054403
v -0.005946 -0.121995 0.054899
v -0.008363 -0.121995 0.054991
v -0.003529 -0.120377 0.055129
v -0.006493 -0.103475 0.015607
v -0.007567 -0.105230 0.017805
v -0.008370 -0.106463 0.019620
v -0.012480 -0.108257 0.022140
v 0.036021 -0.102612 0.054879
v 0.010193 -0.117144 0.055119
v 0.047397 -0.091380 0.054608
v 0.053091 -0.084263 0.054480
v 0.054556 -0.082050 0.054393
v 0.051470 -0.086915 0.054460
v 0.049544 -0.090167 0.054342
v 0.052380 -0.088324 0.052798
v 0.051385 -0.090566 0.051219
v 0.036363 -0.082654 0.021117
v 0.034550 -0.083415 0.019553
v 0.030170 -0.084663 0.015893
v 0.028848 -0.085779 0.015597
v 0.024980 -0.085911 0.012244
v 0.024042 -0.085014 0.010715
v 0.014451 -0.082664 0.002920
v 0.017473 -0.086861 0.007894
v 0.021788 -0.087607 0.011303
v 0.019264 -0.087495 0.009504
v 0.002230 -0.089211 0.002920
v 0.002976 -0.090557 0.004351
v 0.003126 -0.092224 0.005916
v 0.002685 -0.093959 0.007408
v 0.001313 -0.095826 0.008778
v -0.000280 -0.097157 0.009632
v -0.000081 -0.098615 0.011216
v -0.001104 -0.101545 0.014401
v 0.003375 -0.100263 0.014298
v 0.000602 -0.103373 0.017330
v -0.003529 -0.103704 0.016548
v -0.010119 -0.109622 0.024849
v -0.007567 -0.109257 0.024557
v -0.005946 -0.107984 0.022646
v -0.002718 -0.107677 0.022942
v -0.001104 -0.106931 0.022242
v 0.003111 -0.106702 0.023658
v 0.012596 -0.119567 0.051265
v 0.004676 -0.121439 0.053836
v 0.007654 -0.121283 0.052027
v -0.002718 -0.121805 0.054792
v 0.001512 -0.121181 0.054705
v -0.001104 -0.120377 0.055083
v -0.005143 -0.105069 0.018035
v -0.006024 -0.106922 0.020785
v -0.007567 -0.107746 0.021899
v 0.014224 -0.115536 0.055088
v 0.024710 -0.110685 0.054961
v 0.034400 -0.104226 0.054843
v 0.039356 -0.101910 0.054444
v 0.008572 -0.118758 0.054894
v 0.012212 -0.117778 0.054858
v 0.046024 -0.094354 0.054398
v 0.045285 -0.096821 0.053632
v 0.047375 -0.095246 0.052906
v 0.046636 -0.096797 0.051720
v 0.049906 -0.092375 0.050948
v 0.034351 -0.085433 0.021475
v 0.031962 -0.086467 0.019727
v 0.029900 -0.086013 0.016962
v 0.027696 -0.087451 0.016139
v 0.024731 -0.088129 0.014053
v 0.030398 -0.087329 0.018878
v 0.023423 -0.087188 0.012152
v 0.012844 -0.083785 0.002920
v 0.016783 -0.088758 0.008998
v 0.019805 -0.092472 0.014544
v 0.019726 -0.088787 0.010950
v 0.004256 -0.088431 0.002920
v 0.007171 -0.092677 0.007843
v 0.005095 -0.093950 0.008221
v 0.004619 -0.095324 0.009366
v 0.002592 -0.097406 0.010797
v 0.000509 -0.101979 0.015469
v 0.005984 -0.098898 0.013741
v 0.005351 -0.100131 0.014932
v 0.003140 -0.101769 0.016128
v 0.002699 -0.103631 0.018587
v 0.000509 -0.104748 0.019384
v -0.001104 -0.105459 0.019880
v -0.002363 -0.104962 0.018679
v -0.004339 -0.106585 0.020621
v -0.002718 -0.106697 0.021235
v 0.005699 -0.105025 0.022165
v 0.008515 -0.104543 0.023029
v 0.016193 -0.118090 0.051030
v 0.020686 -0.116330 0.051873
v 0.016520 -0.118051 0.052548
v 0.006958 -0.120767 0.053892
v 0.009268 -0.119714 0.054378
v 0.006958 -0.119957 0.054649
v 0.012247 -0.119538 0.053074
v 0.004583 -0.120347 0.054751
v 0.023864 -0.112577 0.054644
v 0.026040 -0.111802 0.054552
v 0.028741 -0.109086 0.054756
v 0.033661 -0.106697 0.054439
v 0.041638 -0.101779 0.052727
v 0.017274 -0.116574 0.054419
v 0.039889 -0.103909 0.051730
v 0.033462 -0.087149 0.022318
v 0.032125 -0.088251 0.021961
v 0.030156 -0.088694 0.020131
v 0.027497 -0.089109 0.017749
v 0.026104 -0.088299 0.015500
v 0.023850 -0.090469 0.015740
v 0.010576 -0.085238 0.002920
v 0.015866 -0.091356 0.010843
v 0.014586 -0.090123 0.008988
v 0.021532 -0.092560 0.016067
v 0.020452 -0.093925 0.016721
v 0.019691 -0.095285 0.017708
v 0.018269 -0.093759 0.014861
v 0.006794 -0.087286 0.002920
v 0.006545 -0.090708 0.005834
v 0.010868 -0.088845 0.006043
v 0.011138 -0.092209 0.009161
v 0.007441 -0.093911 0.009064
v 0.008444 -0.095310 0.010899
v 0.008266 -0.097065 0.012688
v 0.008351 -0.098746 0.014682
v 0.007043 -0.100272 0.015924
v 0.006325 -0.101701 0.017493
v 0.008109 -0.103417 0.020928
v 0.010264 -0.103236 0.022048
v 0.013491 -0.101837 0.022088
v 0.023942 -0.114741 0.051219
v 0.025862 -0.113274 0.053125
v 0.019534 -0.116569 0.053187
v 0.014736 -0.117803 0.054240
v 0.022137 -0.114707 0.053810
v 0.028635 -0.110963 0.053877
v 0.030078 -0.109666 0.054260
v 0.031464 -0.108131 0.054500
v 0.038609 -0.105167 0.051689
v 0.030526 -0.089879 0.021950
v 0.028542 -0.091098 0.021107
v 0.027390 -0.090747 0.019461
v 0.024952 -0.090722 0.017074
v 0.023587 -0.092814 0.018224
v 0.013833 -0.095495 0.013925
v 0.013427 -0.092000 0.010061
v 0.021099 -0.095592 0.019313
v 0.018347 -0.097021 0.018853
v 0.016634 -0.097157 0.017723
v 0.017750 -0.095076 0.016016
v 0.016271 -0.094764 0.014682
v 0.010214 -0.093691 0.010097
v 0.010427 -0.095237 0.011779
v 0.012105 -0.096767 0.014334
v 0.009709 -0.100341 0.017442
v 0.010242 -0.099019 0.016057
v 0.008778 -0.101676 0.018720
v 0.010193 -0.101793 0.019727
v 0.011806 -0.101818 0.020846
v 0.016342 -0.098703 0.019563
v 0.017224 -0.100068 0.022334
v 0.014686 -0.102047 0.023366
v 0.011934 -0.100657 0.019226
v 0.018269 -0.098561 0.020913
v 0.019776 -0.098522 0.022252
v 0.033903 -0.108467 0.050917
v 0.029324 -0.111577 0.051485
v 0.027049 -0.092058 0.020627
v 0.024746 -0.093769 0.020509
v 0.013698 -0.096884 0.015443
v 0.012233 -0.095163 0.012653
v 0.015653 -0.096275 0.016006
v 0.022428 -0.095461 0.020412
v 0.020757 -0.096928 0.020867
v 0.014785 -0.097835 0.017319
v 0.012318 -0.098820 0.017008
v 0.025606 -0.095427 0.023668
f 1 2 3
f 1 3 10
f 1 10 36
f 1 36 15
f 1 15 4
f 1 4 5
f 1 5 6
f 1 6 25
f 1 25 59
f 1 59 99
f 1 99 147
f 1 147 189
f 1 189 196
f 1 196 151
f 1 151 103
f 1 103 62
f 1 62 26
f 1 26 7
f 1 7 2
f 2 7 8
f 2 8 3
f 3 9 10
f 3 8 11
f 3 11 12
f 3 12 13
f 3 13 14
f 3 14 9
f 4 15 16
f 4 16 17
f 4 17 5
f 5 17 6
f 6 17 16
f 6 16 18
f 6 18 19
f 6 19 20
f 6 20 21
f 6 21 22
f 6 22 23
f 6 23 24
f 6 24 25
f 7 26 8
f 8 26 27
f 8 27 28
f 8 28 29
f 8 29 30
f 8 30 12
f 8 12 11
f 9 14 31
f 9 31 32
f 9 32 33
f 9 33 34
f 9 34 10
f 10 34 35
f 10 35 36
f 12 37 13
f 12 30 38
f 12 38 37
f 13 37 39
f 13 39 40
f 13 40 41
f 13 41 14
f 14 42 31
f 14 41 43
f 14 43 42
f 15 36 44
f 15 44 16
f 16 44 18
f 18 44 45
f 18 45 46
f 18 46 47
f 18 47 48
f 18 48 49
f 18 49 19
f 19 49 50
f 19 50 51
f 19 51 20
f 20 51 52
f 20 52 21
f 21 52 22
f 22 52 53
f 22 53 54
f 22 54 23
f 23 54 55
f 23 55 56
f 23 56 57
f 23 57 24
f 24 57 56
f 24 56 58
f 24 58 25
f 25 58 60
f 25 60 61
f 25 61 59
f 26 62 63
f 26 63 27
f 27 63 64
f 27 64 65
f 27 65 28
f 28 65 29
f 29 65 66
f 29 66 67
f 29 67 68
f 29 68 69
f 29 69 30
f 30 39 37
f 30 37 38
f 30 69 39
f 31 42 70
f 31 70 32
f 32 71 33
f 32 70 72
f 32 72 73
f 32 73 74
f 32 74 75
f 32 75 76
f 32 76 71
f 33 71 34
f 34 71 76
f 34 76 77
f 34 77 35
f 35 77 78
f 35 78 36
f 36 78 79
f 36 79 44
f 39 69 80
f 39 80 81
f 39 81 40
f 40 43 41
f 40 81 82
f 40 82 43
f 42 43 83
f 42 83 70
f 43 82 83
f 44 84 45
f 44 79 85
f 44 85 84
f 45 84 86
f 45 86 87
f 45 87 88
f 45 88 46
f 46 48 47
f 46 88 87
f 46 87 89
f 46 89 90
f 46 90 91
f 46 91 48
f 48 91 92
f 48 92 49
f 49 92 50
f 50 92 93
f 50 93 51
f 51 93 52
f 52 93 94
f 52 94 53
f 53 94 95
f 53 95 54
f 54 95 55
f 55 95 56
f 56 95 96
f 56 96 97
f 56 97 98
f 56 98 60
f 56 60 58
f 59 61 100
f 59 100 99
f 60 98 61
f 61 98 101
f 61 101 102
f 61 102 100
f 62 103 104
f 62 104 105
f 62 105 106
f 62 106 107
f 62 107 63
f 63 107 108
f 63 108 64
f 64 108 66
f 64 66 65
f 66 108 109
f 66 109 67
f 67 110 68
f 67 109 111
f 67 111 110
f 68 110 112
f 68 112 113
f 68 113 80
f 68 80 69
f 70 114 115
f 70 115 72
f 70 83 114
f 72 115 116
f 72 116 117
f 72 117 73
f 73 118 119
f 73 119 120
f 73 120 74
f 73 117 118
f 74 121 75
f 74 120 122
f 74 122 121
f 75 121 76
f 76 123 77
f 76 121 124
f 76 124 123
f 77 123 125
f 77 125 78
f 78 125 79
f 79 125 85
f 80 126 81
f 80 113 126
f 81 126 127
f 81 127 82
f 82 127 128
f 82 128 83
f 83 128 114
f 84 129 130
f 84 130 131
f 84 131 132
f 84 132 86
f 84 85 129
f 85 125 133
f 85 133 134
f 85 134 129
f 86 132 135
f 86 135 90
f 86 90 89
f 86 89 87
f 90 135 136
f 90 136 137
f 90 137 91
f 91 137 92
f 92 137 138
f 92 138 139
f 92 139 93
f 93 140 94
f 93 139 140
f 94 140 141
f 94 141 95
f 95 142 96
f 95 141 142
f 96 143 144
f 96 144 97
f 96 142 145
f 96 145 143
f 97 144 146
f 97 146 98
f 98 146 101
f 99 100 148
f 99 148 147
f 100 102 148
f 101 146 144
f 101 144 149
f 101 149 150
f 101 150 102
f 102 150 148
f 103 151 104
f 104 151 152
f 104 152 105
f 105 152 153
f 105 153 106
f 106 153 154
f 106 154 107
f 107 154 155
f 107 155 108
f 108 155 109
f 109 155 111
f 110 111 156
f 110 156 112
f 111 157 158
f 111 158 159
f 111 159 156
f 111 155 157
f 112 156 159
f 112 159 160
f 112 160 161
f 112 161 162
f 112 162 163
f 112 163 113
f 113 163 126
f 114 128 115
f 115 128 116
f 116 128 127
f 116 127 164
f 116 164 117
f 117 164 165
f 117 165 118
f 118 161 119
f 118 165 162
f 118 162 161
f 119 161 160
f 119 160 166
f 119 166 120
f 120 166 167
f 120 167 168
f 120 168 169
f 120 169 170
f 120 170 122
f 121 122 171
f 121 171 172
f 121 172 173
f 121 173 124
f 122 170 174
f 122 174 171
f 123 124 175
f 123 175 125
f 124 173 175
f 125 175 133
f 126 163 165
f 126 165 164
f 126 164 127
f 129 134 130
f 130 134 176
f 130 176 177
f 130 177 178
f 130 178 131
f 131 179 132
f 131 178 179
f 132 180 136
f 132 136 135
f 132 179 180
f 133 173 134
f 133 175 173
f 134 173 172
f 134 172 181
f 134 181 177
f 134 177 176
f 136 180 137
f 137 180 138
f 138 180 182
f 138 182 183
f 138 183 140
f 138 140 139
f 140 183 141
f 141 183 184
f 141 184 185
f 141 185 145
f 141 145 142
f 143 145 186
f 143 186 187
f 143 187 144
f 144 187 188
f 144 188 149
f 145 185 186
f 147 148 189
f 148 150 190
f 148 190 191
f 148 191 189
f 149 188 192
f 149 192 193
f 149 193 194
f 149 194 195
f 149 195 190
f 149 190 150
f 151 196 197
f 151 197 152
f 152 198 199
f 152 199 200
f 152 200 153
f 152 197 198
f 153 200 154
f 154 200 201
f 154 201 202
f 154 202 157
f 154 157 155
f 157 202 203
f 157 203 158
f 158 203 204
f 158 204 205
f 158 205 159
f 159 205 160
f 160 205 206
f 160 206 166
f 162 165 163
f 166 206 167
f 167 206 207
f 167 207 168
f 168 208 209
f 168 209 169
f 168 207 208
f 169 209 210
f 169 210 211
f 169 211 170
f 170 211 174
f 171 174 172
f 172 174 212
f 172 212 181
f 174 211 212
f 177 181 213
f 177 213 210
f 177 210 214
f 177 214 215
f 177 215 216
f 177 216 178
f 178 216 179
f 179 216 215
f 179 215 217
f 179 217 180
f 180 217 182
f 181 212 211
f 181 211 213
f 182 217 218
f 182 218 184
f 182 184 183
f 184 218 185
f 185 218 219
f 185 219 220
f 185 220 186
f 186 220 187
f 187 220 221
f 187 221 188
f 188 222 192
f 188 221 222
f 189 198 196
f 189 191 198
f 190 195 223
f 190 223 224
f 190 224 191
f 191 224 198
f 192 222 193
f 193 222 225
f 193 225 194
f 194 226 227
f 194 227 228
f 194 228 195
f 194 225 226
f 195 228 229
f 195 229 223
f 196 198 197
f 198 224 199
f 199 230 200
f 199 224 230
f 200 230 201
f 201 230 231
f 201 231 202
f 202 231 232
f 202 232 203
f 203 233 204
f 203 232 234
f 203 234 233
f 204 233 235
f 204 235 205
f 205 235 206
f 206 235 236
f 206 236 207
f 207 236 237
f 207 237 208
f 208 238 239
f 208 239 240
f 208 240 209
f 208 237 241
f 208 241 238
f 209 240 239
f 209 239 242
f 209 242 243
f 209 243 244
f 209 244 245
f 209 245 210
f 210 213 211
f 210 245 217
f 210 217 214
f 214 217 215
f 217 245 244
f 217 244 246
f 217 246 219
f 217 219 218
f 219 246 220
f 220 246 221
f 221 246 222
f 222 246 247
f 222 247 225
f 223 248 232
f 223 232 249
f 223 249 224
f 223 229 250
f 223 250 248
f 224 249 231
f 224 231 230
f 225 247 251
f 225 251 252
f 225 252 242
f 225 242 226
f 226 242 238
f 226 238 227
f 227 238 253
f 227 253 248
f 227 248 250
f 227 250 228
f 228 250 229
f 231 249 232
f 232 248 254
f 232 254 234
f 233 236 235
f 233 234 254
f 233 254 241
f 233 241 236
f 236 241 237
f 238 242 239
f 238 241 253
f 241 254 253
f 242 252 243
f 243 252 244
f 244 252 251
f 244 251 255
f 244 255 246
f 246 255 247
f 247 255 251
f 248 253 254
