v -0.095933 -0.044496 0.050579
v -0.078976 -0.043901 0.020655
v -0.095876 -0.046914 0.050614
v -0.095775 -0.049338 0.051808
v -0.095667 -0.043367 0.052513
v -0.095572 -0.040826 0.052825
v -0.095737 -0.039641 0.050765
v -0.079178 -0.038833 0.021309
v -0.079337 -0.046914 0.021466
v -0.077614 -0.039744 0.018725
v -0.077417 -0.043531 0.018267
v -0.077962 -0.047037 0.019224
v -0.095775 -0.049338 0.050785
v -0.095534 -0.051652 0.051712
v -0.095192 -0.054179 0.051989
v -0.094419 -0.056603 0.052901
v -0.095255 -0.046455 0.053057
v -0.094749 -0.041257 0.053586
v -0.094584 -0.034807 0.053389
v -0.095420 -0.034205 0.051858
v -0.094046 -0.027131 0.049979
v -0.079191 -0.036218 0.021672
v -0.077969 -0.038025 0.019436
v -0.077443 -0.050146 0.018826
v -0.079248 -0.050255 0.021838
v -0.076037 -0.037217 0.016696
v -0.076151 -0.040449 0.016534
v -0.076290 -0.043572 0.016625
v -0.076138 -0.046914 0.016550
v -0.076062 -0.049338 0.016645
v -0.078982 -0.052570 0.021853
v -0.094369 -0.059020 0.050619
v -0.094077 -0.061040 0.051385
v -0.094261 -0.059253 0.052448
v -0.093140 -0.058212 0.053823
v -0.093830 -0.053371 0.053767
v -0.092817 -0.063060 0.053339
v -0.093133 -0.040449 0.054236
v -0.093475 -0.032390 0.053792
v -0.093140 -0.050954 0.054205
v -0.093140 -0.046112 0.054271
v -0.093133 -0.044195 0.054276
v -0.091987 -0.023913 0.053667
v -0.092405 -0.021674 0.052886
v -0.094001 -0.026344 0.051909
v -0.092449 -0.020092 0.051329
v -0.090866 -0.016661 0.050423
v -0.077804 -0.023824 0.023737
v -0.076246 -0.026179 0.020025
v -0.077671 -0.029165 0.021138
v -0.077798 -0.031568 0.020524
v -0.077405 -0.035615 0.018982
v -0.076081 -0.033903 0.017280
v -0.075973 -0.051679 0.016907
v -0.077753 -0.052570 0.019788
v -0.074516 -0.034807 0.014948
v -0.074637 -0.037217 0.014782
v -0.074751 -0.040449 0.014636
v -0.074833 -0.043531 0.014610
v -0.074732 -0.046914 0.014661
v -0.072565 -0.050330 0.012364
v -0.074649 -0.051762 0.015190
v -0.077620 -0.054398 0.020010
v -0.077493 -0.059924 0.021929
v -0.077665 -0.062053 0.023269
v -0.091062 -0.071215 0.051229
v -0.092348 -0.067621 0.051652
v -0.077823 -0.057089 0.021299
v -0.093140 -0.055795 0.054014
v -0.091277 -0.063135 0.054226
v -0.092133 -0.065991 0.053052
v -0.091201 -0.068709 0.053344
v -0.089909 -0.068709 0.054125
v -0.091524 -0.026741 0.054130
v -0.091474 -0.059773 0.054352
v -0.090733 -0.061006 0.054432
v -0.085063 -0.008985 0.054004
v -0.088300 -0.015435 0.053938
v -0.090783 -0.019886 0.053591
v -0.089713 -0.015435 0.053304
v -0.090771 -0.016894 0.052840
v -0.090010 -0.013826 0.051989
v -0.089269 -0.011724 0.050972
v -0.076100 -0.021365 0.022297
v -0.074383 -0.021899 0.019214
v -0.073015 -0.023796 0.016403
v -0.074567 -0.027823 0.016892
v -0.076094 -0.028014 0.019053
v -0.075694 -0.030774 0.017486
v -0.074947 -0.055021 0.016298
v -0.076220 -0.054987 0.018046
v -0.073028 -0.033999 0.013160
v -0.072857 -0.038765 0.012409
v -0.071640 -0.035047 0.011286
v -0.071488 -0.040449 0.010666
v -0.073199 -0.043531 0.012611
v -0.073205 -0.045962 0.012706
v -0.072648 -0.047722 0.012193
v -0.073319 -0.052570 0.013643
v -0.069537 -0.043901 0.008596
v -0.067909 -0.043640 0.006995
v -0.071944 -0.053371 0.012193
v -0.073477 -0.054918 0.014364
v -0.076334 -0.058294 0.019360
v -0.076037 -0.060841 0.019960
v -0.076258 -0.062334 0.021068
v -0.076429 -0.066025 0.023370
v -0.074440 -0.068860 0.021979
v -0.074390 -0.070846 0.023274
v -0.065939 -0.071010 0.012298
v -0.061803 -0.071215 0.012193
v -0.085070 -0.071215 0.053742
v -0.090391 -0.070770 0.053344
v -0.089770 -0.065744 0.054407
v -0.087217 -0.070675 0.054336
v -0.083448 -0.005753 0.053964
v -0.084005 -0.003877 0.053430
v -0.086679 -0.011402 0.053893
v -0.085443 -0.006534 0.053420
v -0.087280 -0.009368 0.053123
v -0.088915 -0.012676 0.052966
v -0.087375 -0.007643 0.051642
v -0.087812 -0.009074 0.050398
v -0.074415 -0.015312 0.023626
v -0.074738 -0.020407 0.020655
v -0.072939 -0.018674 0.018912
v -0.073072 -0.021146 0.017728
v -0.071514 -0.023509 0.014676
v -0.073097 -0.026227 0.015532
v -0.071811 -0.020407 0.016454
v -0.071381 -0.029041 0.012414
v -0.074580 -0.057411 0.016479
v -0.071514 -0.033191 0.011437
v -0.069759 -0.035321 0.009191
v -0.069898 -0.040347 0.008914
v -0.071121 -0.043901 0.010264
v -0.068777 -0.041257 0.007740
v -0.063697 -0.043106 0.002975
v -0.071501 -0.055795 0.012218
v -0.071469 -0.058212 0.012852
v -0.073047 -0.058212 0.014761
v -0.074839 -0.059780 0.017703
v -0.074320 -0.063683 0.018700
v -0.074624 -0.065950 0.020418
v -0.073275 -0.068709 0.020050
v -0.072971 -0.070647 0.020932
v -0.071438 -0.070757 0.018761
v -0.069613 -0.070449 0.016202
v -0.069962 -0.068408 0.015406
v -0.066807 -0.069134 0.012208
v -0.060086 -0.043901 0.002975
v -0.081833 -0.071215 0.051027
v -0.031232 -0.001261 0.002975
v -0.083492 -0.071215 0.052750
v -0.076581 -0.001261 0.052861
v -0.079590 -0.001261 0.053802
v -0.082637 -0.001898 0.053445
v -0.085906 -0.005116 0.052150
v -0.083955 -0.001562 0.051168
v -0.084265 -0.002850 0.049894
v -0.072990 -0.013361 0.022881
v -0.071431 -0.014470 0.019567
v -0.072749 -0.016380 0.020176
v -0.071476 -0.018229 0.017139
v -0.070342 -0.021626 0.014107
v -0.069841 -0.023769 0.012656
v -0.069765 -0.032458 0.009785
v -0.068283 -0.024604 0.010651
v -0.066687 -0.025933 0.008571
v -0.073237 -0.061280 0.016091
v -0.068574 -0.036183 0.007947
v -0.067764 -0.033801 0.007559
v -0.068289 -0.038833 0.007448
v -0.063697 -0.041257 0.002975
v -0.068175 -0.066025 0.012193
v -0.070633 -0.060876 0.012807
v -0.072768 -0.064067 0.016741
v -0.073313 -0.065320 0.018106
v -0.073211 -0.067141 0.018957
v -0.071330 -0.068661 0.017325
v -0.071552 -0.066272 0.016283
v -0.069746 -0.066915 0.014364
v -0.074155 -0.001261 0.050957
v -0.039575 -0.001405 0.002975
v -0.046372 -0.001261 0.006451
v -0.064875 -0.001261 0.022886
v -0.065806 -0.003192 0.021979
v -0.067922 -0.006006 0.022005
v -0.068201 -0.008622 0.019758
v -0.069531 -0.010943 0.019632
v -0.068695 -0.013477 0.016716
v -0.069309 -0.015435 0.016187
v -0.067124 -0.017298 0.012626
v -0.068562 -0.021187 0.012288
v -0.066877 -0.031575 0.007262
v -0.066604 -0.029493 0.007513
v -0.066528 -0.023454 0.009266
v -0.064875 -0.023522 0.007619
v -0.061511 -0.029363 0.002975
v -0.071349 -0.063868 0.014867
v -0.063057 -0.035581 0.002975
v -0.063507 -0.038792 0.002975
v -0.066180 -0.033191 0.006259
v -0.069797 -0.063649 0.012933
v -0.072755 -0.065758 0.017562
v -0.043870 -0.001412 0.004960
v -0.042660 -0.003206 0.002975
v -0.044624 -0.004555 0.002975
v -0.050198 -0.001466 0.008480
v -0.055525 -0.001405 0.012555
v -0.060295 -0.001316 0.017214
v -0.063520 -0.001261 0.021027
v -0.064710 -0.003541 0.020126
v -0.066554 -0.004863 0.021239
v -0.066655 -0.006746 0.019496
v -0.065040 -0.007143 0.017119
v -0.065521 -0.008923 0.016247
v -0.065211 -0.014915 0.011946
v -0.065775 -0.010765 0.015195
v -0.066395 -0.019085 0.010943
v -0.065002 -0.016634 0.010712
v -0.059149 -0.022981 0.002975
v -0.063412 -0.018428 0.008380
v -0.049780 -0.004774 0.005871
v -0.047316 -0.006876 0.002975
v -0.052497 -0.001795 0.009820
v -0.050984 -0.003521 0.007483
v -0.054778 -0.002767 0.010823
v -0.059117 -0.005500 0.012434
v -0.059928 -0.004274 0.014177
v -0.057546 -0.001494 0.014328
v -0.060650 -0.002863 0.016106
v -0.062968 -0.002473 0.019003
v -0.065033 -0.005349 0.018720
v -0.063368 -0.008848 0.013981
v -0.063139 -0.004315 0.017451
v -0.064622 -0.012696 0.012711
v -0.063019 -0.012703 0.011090
v -0.063190 -0.010724 0.012535
v -0.061359 -0.012731 0.009523
v -0.056647 -0.018236 0.002975
v -0.061714 -0.017106 0.007569
v -0.052776 -0.004993 0.007634
v -0.050508 -0.010101 0.002975
v -0.053777 -0.003959 0.009135
v -0.055361 -0.005589 0.009186
v -0.057546 -0.007896 0.009327
v -0.059307 -0.007732 0.010949
v -0.061740 -0.011293 0.010772
v -0.060150 -0.011313 0.009312
v -0.057616 -0.010615 0.007634
v -0.057090 -0.011984 0.006481
v -0.055595 -0.016579 0.002975
v -0.053517 -0.008280 0.006058
v -0.052263 -0.012162 0.002975
v -0.054208 -0.014668 0.002975
f 1 2 3
f 1 3 4
f 1 4 5
f 1 5 6
f 1 6 7
f 1 7 8
f 1 8 2
f 2 9 3
f 2 8 10
f 2 10 11
f 2 11 12
f 2 12 9
f 3 13 4
f 3 9 13
f 4 13 14
f 4 14 15
f 4 15 16
f 4 16 17
f 4 17 5
f 5 17 6
f 6 17 18
f 6 18 19
f 6 19 20
f 6 20 7
f 7 20 21
f 7 21 22
f 7 22 8
f 8 22 23
f 8 23 10
f 9 12 24
f 9 24 25
f 9 25 13
f 10 23 26
f 10 26 27
f 10 27 11
f 11 28 29
f 11 29 12
f 11 27 28
f 12 30 24
f 12 29 30
f 13 25 31
f 13 31 32
f 13 32 14
f 14 32 15
f 15 32 33
f 15 33 34
f 15 34 16
f 16 35 36
f 16 36 17
f 16 34 37
f 16 37 35
f 17 36 18
f 18 38 39
f 18 39 19
f 18 36 40
f 18 40 41
f 18 41 42
f 18 42 38
f 19 39 43
f 19 43 44
f 19 44 45
f 19 45 20
f 20 45 21
f 21 45 46
f 21 46 47
f 21 47 48
f 21 48 49
f 21 49 50
f 21 50 51
f 21 51 22
f 22 52 23
f 22 51 52
f 23 52 53
f 23 53 26
f 24 30 54
f 24 54 55
f 24 55 25
f 25 55 31
f 26 53 56
f 26 56 57
f 26 57 27
f 27 57 58
f 27 58 59
f 27 59 28
f 28 59 29
f 29 59 60
f 29 60 30
f 30 61 62
f 30 62 54
f 30 60 61
f 31 55 63
f 31 63 32
f 32 64 65
f 32 65 66
f 32 66 67
f 32 67 33
f 32 63 68
f 32 68 64
f 33 67 34
f 34 67 37
f 35 69 36
f 35 37 70
f 35 70 69
f 36 69 40
f 37 67 71
f 37 71 72
f 37 72 73
f 37 73 70
f 38 42 74
f 38 74 39
f 39 74 43
f 40 69 75
f 40 75 41
f 41 75 76
f 41 76 42
f 42 76 77
f 42 77 74
f 43 74 78
f 43 78 79
f 43 79 44
f 44 79 80
f 44 80 81
f 44 81 46
f 44 46 45
f 46 81 82
f 46 82 83
f 46 83 47
f 47 84 48
f 47 83 84
f 48 85 49
f 48 84 85
f 49 85 86
f 49 86 87
f 49 87 88
f 49 88 50
f 50 88 89
f 50 89 51
f 51 89 53
f 51 53 52
f 53 89 56
f 54 62 90
f 54 90 91
f 54 91 63
f 54 63 55
f 56 89 92
f 56 92 57
f 57 93 58
f 57 92 94
f 57 94 93
f 58 95 96
f 58 96 59
f 58 93 95
f 59 97 60
f 59 96 97
f 60 97 98
f 60 98 61
f 61 99 62
f 61 98 100
f 61 100 101
f 61 101 102
f 61 102 99
f 62 99 103
f 62 103 90
f 63 91 104
f 63 104 68
f 64 105 106
f 64 106 65
f 64 68 104
f 64 104 105
f 65 106 107
f 65 107 66
f 66 108 109
f 66 109 110
f 66 110 111
f 66 111 152
f 66 152 154
f 66 154 112
f 66 112 113
f 66 113 67
f 66 107 108
f 67 113 72
f 67 72 71
f 69 70 75
f 70 73 114
f 70 114 75
f 72 113 73
f 73 113 115
f 73 115 114
f 74 77 78
f 75 114 76
f 76 114 115
f 76 115 116
f 76 116 77
f 77 116 117
f 77 117 118
f 77 118 78
f 78 80 79
f 78 118 80
f 80 118 119
f 80 119 120
f 80 120 121
f 80 121 81
f 81 121 82
f 82 121 122
f 82 122 83
f 83 122 123
f 83 123 124
f 83 124 125
f 83 125 84
f 84 125 85
f 85 125 126
f 85 126 127
f 85 127 86
f 86 128 129
f 86 129 87
f 86 127 130
f 86 130 128
f 87 131 89
f 87 89 88
f 87 129 131
f 89 131 92
f 90 103 132
f 90 132 91
f 91 132 104
f 92 131 133
f 92 133 94
f 93 94 95
f 94 133 134
f 94 134 135
f 94 135 95
f 95 135 136
f 95 136 96
f 96 136 97
f 97 136 98
f 98 136 100
f 99 102 103
f 100 136 137
f 100 137 101
f 101 137 138
f 101 138 102
f 102 139 103
f 102 138 139
f 103 139 140
f 103 140 141
f 103 141 132
f 104 132 142
f 104 142 105
f 105 142 143
f 105 143 106
f 106 143 144
f 106 144 107
f 107 144 108
f 108 144 145
f 108 145 109
f 109 145 146
f 109 146 147
f 109 147 110
f 110 147 148
f 110 148 149
f 110 149 150
f 110 150 138
f 110 138 151
f 110 151 111
f 111 151 153
f 111 153 152
f 112 115 113
f 112 154 155
f 112 155 156
f 112 156 115
f 115 156 116
f 116 156 157
f 116 157 117
f 117 157 158
f 117 158 120
f 117 120 119
f 117 119 118
f 120 158 121
f 121 158 122
f 122 158 159
f 122 159 123
f 123 159 160
f 123 160 161
f 123 161 124
f 124 161 162
f 124 162 163
f 124 163 125
f 125 163 126
f 126 164 127
f 126 163 162
f 126 162 164
f 127 164 130
f 128 165 166
f 128 166 131
f 128 131 129
f 128 130 165
f 130 164 165
f 131 167 133
f 131 166 168
f 131 168 169
f 131 169 167
f 132 141 170
f 132 170 142
f 133 167 134
f 134 171 135
f 134 167 172
f 134 172 171
f 135 171 173
f 135 173 137
f 135 137 136
f 137 173 174
f 137 174 138
f 138 174 202
f 138 202 201
f 138 201 199
f 138 199 222
f 138 222 241
f 138 241 253
f 138 253 256
f 138 256 255
f 138 255 244
f 138 244 225
f 138 225 208
f 138 208 207
f 138 207 184
f 138 184 153
f 138 153 151
f 138 150 175
f 138 175 176
f 138 176 139
f 139 176 140
f 140 176 170
f 140 170 141
f 142 170 143
f 143 170 177
f 143 177 178
f 143 178 179
f 143 179 144
f 144 179 145
f 145 179 147
f 145 147 146
f 147 179 180
f 147 180 148
f 148 180 149
f 149 180 181
f 149 181 182
f 149 182 150
f 150 182 175
f 152 153 183
f 152 183 154
f 153 184 185
f 153 185 212
f 153 212 186
f 153 186 156
f 153 156 155
f 153 155 183
f 154 183 155
f 156 186 159
f 156 159 157
f 157 159 158
f 159 186 160
f 160 186 187
f 160 187 188
f 160 188 189
f 160 189 190
f 160 190 161
f 161 190 162
f 162 190 191
f 162 191 192
f 162 192 164
f 164 193 194
f 164 194 165
f 164 192 193
f 165 194 166
f 166 194 168
f 167 195 172
f 167 169 196
f 167 196 195
f 168 194 197
f 168 197 169
f 169 197 198
f 169 198 199
f 169 199 196
f 170 176 200
f 170 200 177
f 171 172 201
f 171 201 202
f 171 202 173
f 172 195 203
f 172 203 201
f 173 202 174
f 175 182 204
f 175 204 176
f 176 204 200
f 177 200 181
f 177 181 205
f 177 205 178
f 178 205 179
f 179 205 180
f 180 205 181
f 181 200 182
f 182 200 204
f 184 206 185
f 184 207 206
f 185 206 208
f 185 208 209
f 185 209 210
f 185 210 211
f 185 211 212
f 186 212 187
f 187 213 214
f 187 214 188
f 187 212 213
f 188 214 189
f 189 214 215
f 189 215 216
f 189 216 217
f 189 217 190
f 190 217 191
f 191 218 192
f 191 217 219
f 191 219 218
f 192 218 193
f 193 220 194
f 193 218 221
f 193 221 220
f 194 220 197
f 195 196 199
f 195 199 203
f 197 220 198
f 198 222 199
f 198 220 223
f 198 223 222
f 199 201 203
f 206 207 208
f 208 224 209
f 208 225 224
f 209 226 210
f 209 224 227
f 209 227 226
f 210 226 228
f 210 228 229
f 210 229 230
f 210 230 231
f 210 231 211
f 211 231 232
f 211 232 233
f 211 233 212
f 212 233 213
f 213 233 234
f 213 234 214
f 214 234 215
f 215 234 216
f 216 235 217
f 216 234 236
f 216 236 235
f 217 235 219
f 218 219 237
f 218 237 238
f 218 238 221
f 219 235 239
f 219 239 237
f 220 221 223
f 221 238 240
f 221 240 223
f 222 223 241
f 223 240 242
f 223 242 241
f 224 225 243
f 224 243 227
f 225 244 243
f 226 227 243
f 226 243 245
f 226 245 228
f 228 245 246
f 228 246 229
f 229 246 247
f 229 247 248
f 229 248 235
f 229 235 230
f 230 236 232
f 230 232 231
f 230 235 236
f 232 236 233
f 233 236 234
f 235 248 249
f 235 249 239
f 237 239 238
f 238 239 249
f 238 249 240
f 240 249 250
f 240 250 251
f 240 251 252
f 240 252 242
f 241 242 253
f 242 252 253
f 243 244 254
f 243 254 247
f 243 247 246
f 243 246 245
f 244 255 254
f 247 254 251
f 247 251 250
f 247 250 248
f 248 250 249
f 251 254 252
f 252 254 255
f 252 255 256
f 252 256 253
