v -0.061791 -0.071220 0.012189
v -0.065629 -0.071800 0.012439
v -0.074497 -0.071220 0.023739
v -0.081814 -0.071220 0.051028
v -0.014694 -0.088391 0.002941
v -0.045888 -0.076342 0.002941
v -0.064697 -0.073454 0.012506
v -0.064965 -0.075316 0.013986
v -0.066351 -0.073323 0.014246
v -0.069533 -0.071989 0.017099
v -0.045858 -0.081098 0.002941
v -0.071277 -0.071884 0.019329
v -0.073036 -0.071874 0.021958
v -0.072939 -0.073914 0.023448
v -0.085958 -0.082631 0.051304
v -0.090809 -0.072078 0.051538
v -0.090354 -0.071403 0.053177
v -0.085056 -0.071220 0.053738
v -0.083484 -0.071220 0.052748
v -0.014679 -0.116639 0.052911
v -0.014679 -0.114944 0.049992
v -0.014679 -0.117926 0.049604
v -0.014694 -0.092279 0.002941
v -0.062767 -0.076269 0.012455
v -0.066553 -0.079303 0.018839
v -0.067864 -0.075588 0.017599
v -0.068334 -0.074040 0.017053
v -0.063468 -0.079476 0.015481
v -0.064787 -0.079057 0.016594
v -0.069988 -0.073224 0.018564
v -0.044077 -0.082453 0.002941
v -0.045888 -0.085749 0.006657
v -0.049823 -0.089558 0.012235
v -0.053854 -0.086571 0.012567
v -0.055583 -0.084488 0.012189
v -0.057111 -0.082871 0.012189
v -0.058333 -0.081558 0.012189
v -0.059823 -0.079800 0.012189
v -0.061128 -0.078131 0.012189
v -0.071613 -0.073244 0.020860
v -0.071188 -0.075353 0.021988
v -0.071404 -0.076917 0.023667
v -0.082806 -0.088036 0.051411
v -0.084460 -0.084473 0.053110
v -0.087851 -0.078644 0.052472
v -0.089028 -0.076201 0.052156
v -0.089401 -0.074212 0.053141
v -0.087523 -0.074019 0.054422
v -0.087694 -0.071408 0.054325
v -0.014679 -0.120699 0.055029
v -0.014679 -0.118769 0.054407
v -0.014679 -0.124095 0.051130
v -0.014694 -0.101247 0.012189
v -0.015417 -0.098222 0.008719
v -0.016199 -0.096852 0.007315
v -0.016751 -0.095418 0.005947
v -0.017950 -0.092221 0.002941
v -0.066575 -0.082563 0.022044
v -0.068214 -0.080208 0.021993
v -0.068021 -0.079073 0.020656
v -0.068132 -0.076849 0.018901
v -0.061686 -0.084091 0.017272
v -0.069593 -0.075609 0.019916
v -0.041201 -0.084525 0.002941
v -0.045285 -0.090887 0.010510
v -0.047878 -0.090897 0.012189
v -0.050084 -0.091070 0.013935
v -0.051105 -0.091682 0.015338
v -0.052848 -0.090981 0.016037
v -0.054540 -0.087429 0.013945
v -0.056209 -0.085869 0.013889
v -0.060047 -0.084075 0.015675
v -0.058341 -0.083986 0.014139
v -0.081121 -0.090673 0.051339
v -0.081002 -0.090500 0.052712
v -0.082955 -0.087036 0.053177
v -0.088067 -0.076808 0.053345
v -0.081941 -0.086262 0.054391
v -0.086062 -0.077378 0.054488
v -0.080212 -0.086492 0.054662
v -0.017272 -0.121992 0.055080
v -0.015171 -0.122635 0.054851
v -0.015409 -0.124252 0.053605
v -0.018077 -0.124665 0.052677
v -0.020492 -0.124634 0.051901
v -0.022668 -0.124524 0.051334
v -0.016020 -0.108059 0.021764
v -0.015178 -0.106751 0.019549
v -0.015059 -0.104548 0.016257
v -0.015424 -0.103502 0.014889
v -0.015417 -0.099850 0.010505
v -0.018085 -0.100137 0.010898
v -0.020514 -0.098835 0.009760
v -0.021319 -0.097186 0.008193
v -0.020499 -0.091981 0.002941
v -0.063579 -0.084452 0.020110
v -0.065077 -0.084289 0.021917
v -0.079638 -0.092446 0.050921
v -0.063333 -0.085749 0.021258
v -0.058415 -0.087282 0.017308
v -0.057178 -0.089066 0.017946
v -0.059876 -0.090364 0.022340
v -0.039301 -0.085702 0.002941
v -0.043772 -0.090437 0.009295
v -0.043354 -0.092284 0.010704
v -0.045888 -0.092221 0.012189
v -0.048362 -0.093885 0.015537
v -0.052289 -0.092362 0.017043
v -0.049905 -0.093665 0.016497
v -0.054540 -0.090249 0.016762
v -0.055091 -0.088810 0.015777
v -0.078603 -0.093958 0.052268
v -0.081397 -0.089422 0.053187
v -0.076717 -0.095852 0.053202
v -0.083908 -0.081872 0.054545
v -0.080682 -0.088145 0.054386
v -0.084698 -0.080030 0.054539
v -0.075346 -0.094461 0.054550
v -0.075376 -0.092933 0.054677
v -0.078603 -0.088104 0.054687
v -0.027765 -0.120375 0.055080
v -0.030999 -0.120375 0.055034
v -0.023726 -0.121992 0.054948
v -0.025343 -0.122457 0.054713
v -0.018077 -0.123603 0.054340
v -0.021311 -0.124608 0.053049
v -0.025485 -0.107949 0.023014
v -0.023733 -0.108006 0.022616
v -0.021319 -0.108116 0.022402
v -0.024091 -0.124435 0.052340
v -0.032661 -0.122808 0.051931
v -0.018085 -0.106698 0.019635
v -0.015178 -0.105840 0.018099
v -0.018085 -0.105280 0.017436
v -0.017280 -0.103439 0.014843
v -0.018897 -0.102680 0.014032
v -0.020514 -0.101210 0.012393
v -0.020514 -0.100033 0.011010
v -0.022116 -0.099520 0.010704
v -0.027198 -0.098285 0.010316
v -0.027921 -0.097019 0.009183
v -0.023077 -0.091557 0.002941
v -0.078148 -0.094131 0.050849
v -0.071449 -0.101969 0.051038
v -0.063043 -0.087057 0.022442
v -0.055725 -0.091646 0.019385
v -0.056865 -0.092179 0.021264
v -0.058191 -0.091928 0.022437
v -0.041052 -0.092054 0.009295
v -0.037087 -0.086879 0.002941
v -0.043556 -0.093676 0.012225
v -0.041305 -0.093650 0.010934
v -0.046358 -0.093754 0.014057
v -0.047319 -0.095209 0.016313
v -0.049555 -0.095329 0.018135
v -0.053810 -0.093932 0.020319
v -0.052051 -0.095397 0.020467
v -0.071538 -0.102042 0.052488
v -0.079206 -0.090338 0.054356
v -0.076434 -0.094769 0.053988
v -0.068103 -0.103407 0.054407
v -0.073803 -0.096857 0.054463
v -0.069116 -0.101498 0.054570
v -0.064086 -0.104224 0.054856
v -0.047945 -0.113919 0.054963
v -0.037452 -0.118758 0.054983
v -0.033413 -0.120877 0.054728
v -0.027184 -0.122416 0.054631
v -0.029449 -0.123007 0.053677
v -0.025350 -0.107065 0.021514
v -0.029948 -0.106583 0.022254
v -0.023793 -0.106280 0.019834
v -0.021319 -0.106327 0.019457
v -0.036648 -0.121877 0.051993
v -0.021408 -0.105223 0.017752
v -0.022116 -0.101785 0.013276
v -0.022876 -0.100687 0.012097
v -0.025939 -0.100441 0.012475
v -0.030999 -0.098542 0.011669
v -0.030194 -0.097108 0.009887
v -0.025954 -0.090971 0.002941
v -0.030999 -0.089548 0.002941
v -0.070174 -0.103423 0.051595
v -0.055568 -0.093325 0.021355
v -0.035507 -0.087659 0.002941
v -0.035358 -0.093854 0.008499
v -0.037072 -0.095470 0.010730
v -0.040523 -0.095298 0.012225
v -0.040031 -0.096815 0.013582
v -0.042013 -0.098050 0.016201
v -0.038190 -0.096590 0.012373
v -0.046648 -0.096695 0.017619
v -0.049778 -0.096841 0.020324
v -0.047908 -0.097343 0.019365
v -0.053936 -0.094916 0.021789
v -0.050725 -0.097207 0.021794
v -0.063341 -0.108315 0.051115
v -0.062722 -0.108399 0.053463
v -0.066374 -0.104867 0.054330
v -0.065539 -0.104815 0.054590
v -0.067462 -0.102769 0.054626
v -0.070927 -0.100048 0.054468
v -0.059935 -0.107766 0.054800
v -0.045523 -0.115530 0.054948
v -0.043869 -0.117654 0.054590
v -0.040165 -0.119412 0.054493
v -0.038257 -0.119857 0.054575
v -0.036305 -0.120705 0.054345
v -0.042065 -0.119820 0.053197
v -0.027154 -0.105076 0.018855
v -0.038786 -0.121259 0.051896
v -0.031804 -0.106327 0.022682
v -0.033533 -0.103355 0.018676
v -0.031804 -0.103188 0.017655
v -0.024546 -0.105040 0.018084
v -0.023413 -0.103177 0.015328
v -0.024456 -0.101628 0.013547
v -0.026729 -0.102026 0.014598
v -0.028577 -0.101827 0.014843
v -0.031193 -0.102105 0.015986
v -0.033413 -0.100352 0.014695
v -0.033808 -0.098453 0.012597
v -0.032072 -0.096820 0.010173
v -0.032869 -0.095460 0.009122
v -0.033339 -0.093723 0.007637
v -0.061970 -0.109398 0.051982
v -0.039770 -0.100122 0.017375
v -0.041521 -0.100174 0.018579
v -0.035031 -0.098944 0.013654
v -0.035500 -0.100341 0.015512
v -0.048847 -0.098625 0.022075
v -0.047475 -0.098704 0.020988
v -0.043332 -0.100838 0.020830
v -0.046313 -0.099897 0.021789
v -0.055673 -0.113395 0.050952
v -0.058639 -0.111648 0.051538
v -0.058177 -0.111585 0.053437
v -0.056865 -0.110910 0.054621
v -0.049562 -0.115091 0.054596
v -0.047952 -0.116597 0.054014
v -0.049562 -0.116571 0.053136
v -0.047192 -0.117932 0.052386
v -0.029747 -0.103313 0.017094
v -0.039383 -0.103313 0.021917
v -0.036111 -0.104857 0.022437
v -0.033965 -0.105207 0.021861
v -0.050054 -0.116681 0.051768
v -0.036968 -0.103177 0.020202
v -0.035202 -0.102047 0.017538
v -0.033413 -0.101822 0.016466
v -0.026163 -0.103648 0.016589
v -0.057163 -0.112736 0.051998
v -0.041111 -0.101592 0.020360
v -0.037177 -0.102042 0.018584
v -0.055643 -0.113343 0.053131
v -0.053430 -0.114808 0.051962
f 1 2 3
f 1 3 18
f 1 18 19
f 1 19 4
f 1 4 5
f 1 5 6
f 1 6 2
f 2 7 8
f 2 8 9
f 2 9 10
f 2 10 3
f 2 6 11
f 2 11 7
f 3 10 12
f 3 12 13
f 3 13 14
f 3 14 15
f 3 15 16
f 3 16 17
f 3 17 18
f 4 19 20
f 4 20 21
f 4 21 5
f 5 21 22
f 5 22 23
f 5 23 57
f 5 57 95
f 5 95 142
f 5 142 181
f 5 181 182
f 5 182 185
f 5 185 150
f 5 150 103
f 5 103 64
f 5 64 31
f 5 31 11
f 5 11 6
f 7 24 8
f 7 11 24
f 8 25 26
f 8 26 27
f 8 27 9
f 8 24 28
f 8 28 29
f 8 29 25
f 9 27 10
f 10 30 12
f 10 27 30
f 11 31 32
f 11 32 33
f 11 33 34
f 11 34 35
f 11 35 36
f 11 36 37
f 11 37 38
f 11 38 39
f 11 39 24
f 12 30 40
f 12 40 13
f 13 40 14
f 14 40 41
f 14 41 42
f 14 42 15
f 15 43 44
f 15 44 45
f 15 45 46
f 15 46 16
f 15 42 43
f 16 46 47
f 16 47 17
f 17 47 48
f 17 48 49
f 17 49 18
f 18 49 50
f 18 50 51
f 18 51 20
f 18 20 19
f 20 51 50
f 20 50 52
f 20 52 22
f 20 22 21
f 22 52 23
f 23 52 53
f 23 53 54
f 23 54 55
f 23 55 56
f 23 56 57
f 24 39 28
f 25 58 59
f 25 59 60
f 25 60 61
f 25 61 26
f 25 29 62
f 25 62 58
f 26 61 30
f 26 30 27
f 28 39 38
f 28 38 62
f 28 62 29
f 30 61 63
f 30 63 40
f 31 64 32
f 32 64 65
f 32 65 33
f 33 66 67
f 33 67 68
f 33 68 69
f 33 69 70
f 33 70 34
f 33 65 66
f 34 70 71
f 34 71 35
f 35 71 72
f 35 72 73
f 35 73 36
f 36 73 72
f 36 72 37
f 37 72 38
f 38 72 62
f 40 63 41
f 41 63 60
f 41 60 42
f 42 60 59
f 42 59 74
f 42 74 43
f 43 74 75
f 43 75 76
f 43 76 44
f 44 77 45
f 44 76 78
f 44 78 77
f 45 77 47
f 45 47 46
f 47 77 48
f 48 77 79
f 48 79 80
f 48 80 81
f 48 81 50
f 48 50 49
f 50 81 82
f 50 82 52
f 52 82 83
f 52 83 84
f 52 84 85
f 52 85 86
f 52 86 87
f 52 87 88
f 52 88 89
f 52 89 53
f 53 89 90
f 53 90 91
f 53 91 54
f 54 91 92
f 54 92 55
f 55 92 93
f 55 93 94
f 55 94 56
f 56 95 57
f 56 94 95
f 58 62 96
f 58 96 97
f 58 97 98
f 58 98 59
f 59 98 74
f 60 63 61
f 62 99 96
f 62 72 100
f 62 100 101
f 62 101 102
f 62 102 99
f 64 103 104
f 64 104 65
f 65 104 105
f 65 105 106
f 65 106 66
f 66 107 67
f 66 106 107
f 67 107 68
f 68 108 69
f 68 107 109
f 68 109 108
f 69 108 110
f 69 110 111
f 69 111 70
f 70 111 71
f 71 100 72
f 71 111 100
f 74 112 75
f 74 98 112
f 75 113 76
f 75 112 114
f 75 114 113
f 76 113 78
f 77 78 115
f 77 115 79
f 78 113 116
f 78 116 80
f 78 80 115
f 79 115 117
f 79 117 80
f 80 116 118
f 80 118 119
f 80 119 120
f 80 120 81
f 80 117 115
f 81 120 121
f 81 121 122
f 81 122 123
f 81 123 82
f 82 123 124
f 82 124 125
f 82 125 83
f 83 125 126
f 83 126 84
f 84 126 85
f 85 126 86
f 86 127 128
f 86 128 129
f 86 129 87
f 86 126 130
f 86 130 131
f 86 131 127
f 87 132 88
f 87 129 132
f 88 133 89
f 88 132 133
f 89 133 134
f 89 134 135
f 89 135 90
f 90 135 91
f 91 135 92
f 92 135 136
f 92 136 137
f 92 137 138
f 92 138 93
f 93 138 139
f 93 139 94
f 94 139 140
f 94 140 141
f 94 141 142
f 94 142 95
f 96 99 97
f 97 143 98
f 97 99 143
f 98 143 144
f 98 144 112
f 99 102 145
f 99 145 144
f 99 144 143
f 100 111 101
f 101 146 102
f 101 111 110
f 101 110 146
f 102 146 147
f 102 147 148
f 102 148 144
f 102 144 145
f 103 149 104
f 103 150 149
f 104 149 105
f 105 151 106
f 105 149 152
f 105 152 151
f 106 151 153
f 106 153 107
f 107 153 154
f 107 154 155
f 107 155 109
f 108 156 146
f 108 146 110
f 108 109 155
f 108 155 157
f 108 157 156
f 112 158 114
f 112 144 158
f 113 114 159
f 113 159 116
f 114 160 159
f 114 158 161
f 114 161 160
f 116 159 118
f 118 162 163
f 118 163 164
f 118 164 119
f 118 159 162
f 119 164 120
f 120 164 121
f 121 164 165
f 121 165 122
f 122 166 167
f 122 167 168
f 122 168 123
f 122 165 166
f 123 168 124
f 124 168 125
f 125 168 126
f 126 168 169
f 126 169 130
f 127 170 128
f 127 131 171
f 127 171 170
f 128 172 173
f 128 173 129
f 128 170 172
f 129 173 132
f 130 169 131
f 131 169 174
f 131 174 171
f 132 134 133
f 132 173 175
f 132 175 134
f 134 175 135
f 135 175 136
f 136 175 176
f 136 176 137
f 137 176 138
f 138 176 177
f 138 177 139
f 139 177 140
f 140 177 178
f 140 178 179
f 140 179 180
f 140 180 141
f 141 181 142
f 141 180 182
f 141 182 181
f 144 183 158
f 144 148 147
f 144 147 184
f 144 184 183
f 146 156 184
f 146 184 147
f 149 150 185
f 149 185 186
f 149 186 187
f 149 187 152
f 151 152 188
f 151 188 189
f 151 189 190
f 151 190 153
f 152 187 191
f 152 191 188
f 153 190 154
f 154 190 192
f 154 192 155
f 155 193 157
f 155 192 194
f 155 194 193
f 156 157 195
f 156 195 184
f 157 196 197
f 157 197 195
f 157 193 196
f 158 183 198
f 158 198 199
f 158 199 161
f 159 160 162
f 160 161 162
f 161 199 200
f 161 200 201
f 161 201 163
f 161 163 202
f 161 202 162
f 162 202 163
f 163 201 164
f 164 203 165
f 164 201 200
f 164 200 203
f 165 203 204
f 165 204 166
f 166 204 205
f 166 205 206
f 166 206 207
f 166 207 167
f 167 207 208
f 167 208 168
f 168 208 169
f 169 208 209
f 169 209 174
f 170 171 210
f 170 210 172
f 171 174 211
f 171 211 212
f 171 212 213
f 171 213 214
f 171 214 210
f 172 175 173
f 172 210 215
f 172 215 175
f 174 209 211
f 175 215 216
f 175 216 176
f 176 216 217
f 176 217 177
f 177 217 178
f 178 217 218
f 178 218 219
f 178 219 179
f 179 220 221
f 179 221 222
f 179 222 223
f 179 223 180
f 179 219 220
f 180 223 182
f 182 223 224
f 182 224 225
f 182 225 186
f 182 186 185
f 183 226 198
f 183 184 195
f 183 195 197
f 183 197 226
f 186 225 224
f 186 224 187
f 187 224 223
f 187 223 222
f 187 222 191
f 188 191 189
f 189 191 227
f 189 227 190
f 190 227 228
f 190 228 192
f 191 222 229
f 191 229 230
f 191 230 227
f 192 228 194
f 193 194 231
f 193 231 196
f 194 232 231
f 194 228 233
f 194 233 234
f 194 234 232
f 196 231 235
f 196 235 197
f 197 235 236
f 197 236 226
f 198 226 237
f 198 237 199
f 199 237 238
f 199 238 200
f 200 238 203
f 203 238 204
f 204 238 239
f 204 239 205
f 205 239 240
f 205 240 206
f 206 240 209
f 206 209 208
f 206 208 207
f 209 240 241
f 209 241 242
f 209 242 211
f 210 214 243
f 210 243 215
f 211 244 245
f 211 245 246
f 211 246 212
f 211 242 247
f 211 247 244
f 212 246 213
f 213 246 248
f 213 248 249
f 213 249 214
f 214 250 220
f 214 220 243
f 214 249 250
f 215 243 251
f 215 251 216
f 216 251 218
f 216 218 217
f 218 251 243
f 218 243 219
f 219 243 220
f 220 250 221
f 221 250 230
f 221 230 229
f 221 229 222
f 226 252 237
f 226 236 252
f 227 253 228
f 227 230 249
f 227 249 254
f 227 254 253
f 228 253 233
f 230 250 249
f 231 232 234
f 231 234 235
f 233 253 247
f 233 247 235
f 233 235 234
f 235 247 252
f 235 252 236
f 237 252 255
f 237 255 239
f 237 239 238
f 239 255 240
f 240 255 241
f 241 247 242
f 241 255 247
f 244 253 254
f 244 254 248
f 244 248 245
f 244 247 253
f 245 248 246
f 247 255 256
f 247 256 252
f 248 254 249
f 252 256 255
