v -0.014230 0.006415 0.003833
v -0.008472 0.006019 0.003833
v -0.014362 0.003451 0.000775
v -0.034095 -0.001704 0.000122
v -0.039521 -0.001415 0.002977
v -0.069335 -0.043901 0.012179
v -0.000366 0.004184 0.003833
v -0.003553 0.001897 0.000714
v -0.010028 0.003094 0.000720
v -0.008572 0.001153 -0.000680
v -0.014362 0.001423 -0.000655
v -0.031028 -0.001926 -0.000793
v -0.039874 -0.006338 -0.000688
v -0.041595 -0.005267 0.000654
v -0.039466 -0.003346 0.001153
v -0.037095 -0.001897 0.001299
v -0.042510 -0.003133 0.002977
v -0.072666 -0.044944 0.012027
v -0.072578 -0.048526 0.012179
v -0.045863 -0.087991 0.012179
v 0.040015 -0.053546 0.009495
v 0.040004 -0.043824 0.008405
v 0.002083 0.003470 0.003833
v -0.000707 -0.000507 -0.000680
v -0.005980 0.000458 -0.000765
v -0.006796 -0.000922 -0.001181
v -0.011230 0.001115 -0.000777
v -0.013392 -0.000922 -0.001234
v -0.022083 -0.001280 -0.001167
v -0.026771 -0.001975 -0.001085
v -0.033378 -0.004147 -0.001061
v -0.041043 -0.009794 -0.001127
v -0.043878 -0.012217 -0.001122
v -0.046768 -0.013173 -0.000821
v -0.046216 -0.009659 0.000267
v -0.043646 -0.007362 0.000250
v -0.035815 -0.005421 -0.001029
v -0.044562 -0.004572 0.002977
v -0.071122 -0.044046 0.010250
v -0.070614 -0.046508 0.009760
v -0.047297 -0.006898 0.002977
v -0.050022 -0.009621 0.002977
v -0.052217 -0.012179 0.002977
v -0.054158 -0.014679 0.002977
v -0.056110 -0.017450 0.002977
v -0.059110 -0.022981 0.002977
v -0.061482 -0.029372 0.002977
v -0.071442 -0.051229 0.011223
v -0.071243 -0.054984 0.011739
v -0.069203 -0.063006 0.011973
v -0.068166 -0.066028 0.012179
v -0.054356 -0.085664 0.012179
v -0.046955 -0.091022 0.011729
v 0.021352 -0.085741 0.009495
v 0.033485 -0.071367 0.009466
v 0.038426 -0.060091 0.009454
v 0.038812 -0.056596 0.008909
v 0.038360 -0.052561 0.007661
v 0.039463 -0.047425 0.008064
v 0.032194 -0.046913 0.000891
v 0.031643 -0.043959 0.000230
v 0.029602 -0.037337 -0.000846
v 0.029327 -0.029199 0.000169
v 0.029437 -0.025549 0.001550
v 0.029558 -0.020529 0.003833
v 0.028158 -0.017913 0.003833
v 0.023459 -0.011435 0.003833
v 0.020591 -0.008105 0.003833
v 0.018176 -0.005962 0.003833
v 0.014392 -0.002988 0.003833
v 0.007664 0.001008 0.003833
v 0.003903 -0.001946 -0.000530
v 0.001278 -0.002245 -0.001008
v -0.003553 -0.000922 -0.001033
v -0.001954 -0.002525 -0.001229
v 0.012583 -0.010605 -0.001283
v 0.021462 -0.021900 -0.001308
v -0.032584 -0.081619 -0.001247
v -0.055978 -0.053372 -0.001183
v -0.052492 -0.020848 -0.000796
v -0.057599 -0.046102 -0.001105
v -0.054378 -0.025945 -0.000999
v -0.050606 -0.016610 -0.000557
v -0.049239 -0.011590 0.000944
v -0.069544 -0.043901 0.008583
v -0.063037 -0.035628 0.002977
v -0.061735 -0.046691 0.001045
v -0.069765 -0.049588 0.009173
v -0.054257 -0.017682 0.001245
v -0.057434 -0.023281 0.001295
v -0.057610 -0.026216 0.000413
v -0.061074 -0.035754 0.000934
v -0.059882 -0.033215 0.000404
v -0.068993 -0.054984 0.009334
v -0.070328 -0.057928 0.011471
v -0.068000 -0.061549 0.010105
v -0.066622 -0.066617 0.010686
v -0.062518 -0.076203 0.012179
v -0.065861 -0.069706 0.011495
v -0.064735 -0.071965 0.011647
v -0.052150 -0.084226 0.009063
v -0.049569 -0.089072 0.011594
v -0.059088 -0.080663 0.012179
v -0.057114 -0.081928 0.011452
v -0.018035 -0.092190 0.002942
v -0.011451 -0.092180 0.002917
v 0.018540 -0.087749 0.009265
v -0.040393 -0.081687 0.000200
v -0.037470 -0.084341 0.000844
v -0.037955 -0.085934 0.002488
v -0.035418 -0.087566 0.002841
v -0.030819 -0.088560 0.001882
v -0.024808 -0.091003 0.002738
v 0.020679 -0.084061 0.007587
v 0.024209 -0.083164 0.009430
v 0.029647 -0.076705 0.009293
v 0.026338 -0.066781 0.001114
v 0.034047 -0.067997 0.008372
v 0.035911 -0.064947 0.008731
v 0.037456 -0.062562 0.009294
v 0.036915 -0.058508 0.007508
v 0.031819 -0.052561 0.001290
v 0.031180 -0.050157 0.000373
v 0.030352 -0.047444 -0.000474
v 0.028753 -0.040494 -0.001118
v 0.026304 -0.031583 -0.001242
v 0.028588 -0.032597 -0.000824
v 0.025698 -0.026341 -0.001031
v 0.026845 -0.023078 0.000184
v 0.025190 -0.020066 0.000230
v 0.023900 -0.017894 0.000291
v 0.022091 -0.015529 0.000173
v 0.019135 -0.010480 0.001050
v 0.015242 -0.007806 0.000445
v 0.011028 -0.005508 -0.000093
v 0.009076 -0.003046 0.000874
v 0.008558 -0.005749 -0.000954
v 0.005315 -0.004147 -0.001029
v 0.002899 -0.004147 -0.001226
v 0.010565 -0.008182 -0.001168
v 0.014999 -0.010605 -0.001022
v 0.018231 -0.015451 -0.001225
v 0.019852 -0.018676 -0.001283
v 0.019852 -0.017064 -0.001175
v 0.023900 -0.022721 -0.001069
v 0.026304 -0.051750 -0.001287
v 0.021462 -0.064677 -0.001287
v -0.001149 -0.081619 -0.001292
v -0.024510 -0.085915 -0.001008
v -0.030565 -0.084042 -0.001026
v -0.037106 -0.079428 -0.001180
v -0.047099 -0.071125 -0.001140
v -0.009620 -0.085654 -0.001164
v -0.054378 -0.059029 -0.001144
v -0.057059 -0.055853 -0.000838
v -0.057599 -0.052561 -0.000925
v -0.058118 -0.048931 -0.000941
v -0.055570 -0.025134 -0.000651
v -0.057963 -0.038862 -0.000991
v -0.058062 -0.032954 -0.000701
v -0.055140 -0.021640 0.000112
v -0.060853 -0.039432 0.000345
v -0.061779 -0.042347 0.000985
v -0.060401 -0.044770 -0.000206
v -0.060324 -0.049732 0.000193
v -0.059949 -0.052561 0.000295
v -0.057776 -0.029170 -0.000169
v -0.059022 -0.035831 -0.000521
v -0.066555 -0.057668 0.007541
v -0.068122 -0.058237 0.009205
v -0.060224 -0.054801 0.000934
v -0.065309 -0.064078 0.008410
v -0.064890 -0.067100 0.009211
v -0.061096 -0.075257 0.010168
v -0.060279 -0.078385 0.011545
v -0.061515 -0.073143 0.009321
v -0.057754 -0.079128 0.009873
v -0.055062 -0.079032 0.007705
v -0.053485 -0.080721 0.007663
v -0.052184 -0.079428 0.005817
v -0.048853 -0.075682 0.000895
v -0.045819 -0.078279 0.000701
v -0.021278 -0.091456 0.002527
v -0.019105 -0.090095 0.000791
v -0.014362 -0.090433 0.000862
v -0.011737 -0.090163 0.000732
v -0.007590 -0.091640 0.002917
v -0.001910 -0.090549 0.002839
v 0.002193 -0.089197 0.002917
v 0.006771 -0.087267 0.002917
v 0.008977 -0.084177 0.001019
v 0.014337 -0.080451 0.000914
v -0.041926 -0.077767 -0.000950
v -0.034073 -0.084177 -0.000534
v -0.045522 -0.075363 -0.000776
v -0.034017 -0.086243 0.000975
v -0.026936 -0.087238 -0.000464
v -0.024510 -0.088966 0.000609
v 0.019753 -0.075470 0.000935
v 0.016245 -0.078819 0.000861
v 0.025918 -0.079814 0.008401
v 0.021837 -0.073075 0.000973
v 0.021694 -0.069571 -0.000713
v 0.024882 -0.064445 -0.000710
v 0.028885 -0.061732 0.000993
v 0.031003 -0.052561 0.000551
v 0.029393 -0.054984 -0.000247
v 0.028433 -0.052155 -0.001018
v 0.027915 -0.049346 -0.001235
v 0.017591 -0.012700 -0.000831
v 0.013521 -0.008858 -0.000858
v 0.026304 -0.054984 -0.001230
v 0.024694 -0.057407 -0.001275
v 0.019852 -0.068702 -0.001200
v 0.019852 -0.067100 -0.001282
v 0.024694 -0.059830 -0.001213
v 0.023889 -0.062659 -0.001144
v 0.013378 -0.073548 -0.001274
v 0.006120 -0.079997 -0.001216
v 0.001289 -0.082420 -0.001216
v -0.018642 -0.087334 -0.000841
v -0.049702 -0.071087 -0.000664
v -0.051147 -0.067100 -0.001008
v -0.052746 -0.063055 -0.001101
v -0.001954 -0.084197 -0.001109
v -0.001149 -0.086909 -0.000281
v -0.013855 -0.087682 -0.000743
v -0.054378 -0.061442 -0.000995
v -0.054731 -0.064059 -0.000546
v -0.057059 -0.059927 -0.000166
v -0.058548 -0.057407 0.000159
v -0.057158 -0.062881 0.000796
v -0.054610 -0.068268 0.000975
v -0.058371 -0.076435 0.008580
v -0.051533 -0.072863 0.000965
v -0.049437 -0.073471 0.000017
v -0.009620 -0.088927 -0.000043
v -0.003785 -0.087682 -0.000125
v 0.001134 -0.087788 0.001039
v 0.003991 -0.087740 0.002127
v 0.003715 -0.086272 0.000634
v 0.006109 -0.084592 0.000264
v 0.008899 -0.082227 -0.000365
v 0.017414 -0.075238 -0.000500
v 0.022455 -0.066713 -0.000996
v 0.026757 -0.060854 -0.000698
v 0.028080 -0.058344 -0.000599
v 0.026304 -0.058218 -0.001081
v 0.015804 -0.072737 -0.001204
v 0.010984 -0.079292 -0.000894
v 0.004510 -0.081619 -0.001169
v -0.052217 -0.070054 0.000135
v -0.053485 -0.065970 -0.000562
v 0.000947 -0.085529 -0.000538
v 0.006936 -0.081619 -0.000958
f 1 2 3
f 1 3 4
f 1 4 5
f 1 5 6
f 1 6 2
f 2 7 8
f 2 8 9
f 2 9 3
f 2 6 7
f 3 9 10
f 3 10 11
f 3 11 12
f 3 12 4
f 4 12 13
f 4 13 14
f 4 14 15
f 4 15 16
f 4 16 5
f 5 16 15
f 5 15 17
f 5 17 18
f 5 18 6
f 6 18 19
f 6 19 51
f 6 51 98
f 6 98 103
f 6 103 52
f 6 52 20
f 6 20 21
f 6 21 22
f 6 22 7
f 7 23 8
f 7 22 23
f 8 23 24
f 8 24 10
f 8 10 9
f 10 24 25
f 10 25 26
f 10 26 27
f 10 27 11
f 11 27 28
f 11 28 29
f 11 29 12
f 12 29 30
f 12 30 31
f 12 31 13
f 13 32 33
f 13 33 34
f 13 34 35
f 13 35 36
f 13 36 14
f 13 31 37
f 13 37 32
f 14 36 38
f 14 38 17
f 14 17 15
f 17 38 18
f 18 39 40
f 18 40 19
f 18 38 41
f 18 41 42
f 18 42 43
f 18 43 44
f 18 44 45
f 18 45 46
f 18 46 47
f 18 47 39
f 19 40 48
f 19 48 49
f 19 49 50
f 19 50 51
f 20 52 53
f 20 53 54
f 20 54 55
f 20 55 56
f 20 56 21
f 21 56 57
f 21 57 58
f 21 58 59
f 21 59 22
f 22 59 60
f 22 60 61
f 22 61 62
f 22 62 63
f 22 63 64
f 22 64 65
f 22 65 66
f 22 66 67
f 22 67 68
f 22 68 69
f 22 69 70
f 22 70 71
f 22 71 23
f 23 71 72
f 23 72 24
f 24 72 73
f 24 73 74
f 24 74 25
f 25 74 26
f 26 28 27
f 26 74 75
f 26 75 28
f 28 75 76
f 28 76 77
f 28 77 78
f 28 78 79
f 28 79 33
f 28 33 32
f 28 32 29
f 29 32 31
f 29 31 30
f 31 32 37
f 33 80 34
f 33 79 81
f 33 81 82
f 33 82 80
f 34 80 83
f 34 83 35
f 35 83 84
f 35 84 41
f 35 41 36
f 36 41 38
f 39 85 40
f 39 47 86
f 39 86 85
f 40 85 87
f 40 87 88
f 40 88 48
f 41 84 42
f 42 84 43
f 43 84 44
f 44 84 89
f 44 89 45
f 45 90 46
f 45 89 90
f 46 90 91
f 46 91 47
f 47 92 86
f 47 91 93
f 47 93 92
f 48 88 94
f 48 94 49
f 49 95 50
f 49 94 95
f 50 96 97
f 50 97 51
f 50 95 96
f 51 97 99
f 51 99 100
f 51 100 98
f 52 101 102
f 52 102 53
f 52 103 104
f 52 104 101
f 53 105 106
f 53 106 107
f 53 107 54
f 53 102 108
f 53 108 109
f 53 109 110
f 53 110 111
f 53 111 112
f 53 112 113
f 53 113 105
f 54 107 114
f 54 114 115
f 54 115 55
f 55 115 116
f 55 116 117
f 55 117 118
f 55 118 119
f 55 119 120
f 55 120 56
f 56 120 121
f 56 121 57
f 57 121 122
f 57 122 58
f 58 122 60
f 58 60 59
f 60 122 123
f 60 123 61
f 61 123 124
f 61 124 62
f 62 124 125
f 62 125 126
f 62 126 127
f 62 127 63
f 63 127 128
f 63 128 129
f 63 129 64
f 64 129 65
f 65 129 66
f 66 129 130
f 66 130 131
f 66 131 132
f 66 132 67
f 67 132 133
f 67 133 68
f 68 133 134
f 68 134 69
f 69 134 70
f 70 134 135
f 70 135 136
f 70 136 71
f 71 136 72
f 72 136 135
f 72 135 137
f 72 137 138
f 72 138 73
f 73 75 74
f 73 138 139
f 73 139 75
f 75 139 76
f 76 139 140
f 76 140 141
f 76 141 142
f 76 142 143
f 76 143 77
f 77 143 144
f 77 144 145
f 77 145 126
f 77 126 146
f 77 146 147
f 77 147 148
f 77 148 78
f 78 149 150
f 78 150 151
f 78 151 152
f 78 152 79
f 78 148 153
f 78 153 149
f 79 152 154
f 79 154 155
f 79 155 156
f 79 156 157
f 79 157 81
f 80 82 158
f 80 158 83
f 81 157 159
f 81 159 82
f 82 159 160
f 82 160 158
f 83 158 161
f 83 161 89
f 83 89 84
f 85 86 92
f 85 92 162
f 85 162 163
f 85 163 87
f 87 163 164
f 87 164 165
f 87 165 166
f 87 166 88
f 88 166 94
f 89 161 90
f 90 161 91
f 91 167 93
f 91 161 158
f 91 158 167
f 92 93 168
f 92 168 162
f 93 167 160
f 93 160 168
f 94 169 170
f 94 170 95
f 94 166 171
f 94 171 169
f 95 170 96
f 96 170 169
f 96 169 172
f 96 172 97
f 97 172 173
f 97 173 99
f 98 100 174
f 98 174 175
f 98 175 103
f 99 173 100
f 100 173 176
f 100 176 174
f 101 104 177
f 101 177 178
f 101 178 179
f 101 179 180
f 101 180 181
f 101 181 182
f 101 182 108
f 101 108 102
f 103 175 177
f 103 177 104
f 105 113 183
f 105 183 184
f 105 184 185
f 105 185 106
f 106 186 187
f 106 187 107
f 106 185 186
f 107 187 188
f 107 188 189
f 107 189 190
f 107 190 191
f 107 191 192
f 107 192 114
f 108 193 194
f 108 194 109
f 108 182 195
f 108 195 193
f 109 194 196
f 109 196 110
f 110 196 111
f 111 196 112
f 112 197 198
f 112 198 113
f 112 196 197
f 113 198 183
f 114 199 115
f 114 192 200
f 114 200 199
f 115 199 201
f 115 201 116
f 116 201 202
f 116 202 117
f 117 202 203
f 117 203 204
f 117 204 205
f 117 205 118
f 118 205 119
f 119 205 120
f 120 205 121
f 121 205 122
f 122 206 123
f 122 205 206
f 123 206 207
f 123 207 124
f 124 207 208
f 124 208 125
f 125 208 209
f 125 209 126
f 126 145 128
f 126 128 127
f 126 209 146
f 128 145 129
f 129 145 130
f 130 145 132
f 130 132 131
f 132 144 210
f 132 210 133
f 132 145 144
f 133 210 134
f 134 210 141
f 134 141 211
f 134 211 135
f 135 211 137
f 137 140 138
f 137 211 141
f 137 141 140
f 138 140 139
f 141 210 144
f 141 144 142
f 142 144 143
f 146 212 213
f 146 213 147
f 146 209 212
f 147 214 215
f 147 215 148
f 147 213 216
f 147 216 217
f 147 217 214
f 148 215 218
f 148 218 219
f 148 219 220
f 148 220 153
f 149 221 197
f 149 197 150
f 149 153 221
f 150 197 194
f 150 194 193
f 150 193 151
f 151 193 152
f 152 195 222
f 152 222 223
f 152 223 224
f 152 224 154
f 152 193 195
f 153 220 225
f 153 225 226
f 153 226 227
f 153 227 221
f 154 228 155
f 154 224 228
f 155 228 229
f 155 229 230
f 155 230 231
f 155 231 166
f 155 166 156
f 156 166 165
f 156 165 164
f 156 164 157
f 157 164 159
f 158 160 167
f 159 164 168
f 159 168 160
f 162 168 164
f 162 164 163
f 166 231 171
f 169 171 231
f 169 231 172
f 172 231 232
f 172 232 173
f 173 232 233
f 173 233 176
f 174 176 234
f 174 234 175
f 175 234 177
f 176 233 235
f 176 235 234
f 177 234 178
f 178 234 235
f 178 235 180
f 178 180 179
f 180 235 181
f 181 236 182
f 181 235 236
f 182 236 195
f 183 198 184
f 184 221 185
f 184 198 197
f 184 197 221
f 185 221 227
f 185 227 237
f 185 237 186
f 186 237 188
f 186 188 187
f 188 238 226
f 188 226 239
f 188 239 189
f 188 237 238
f 189 239 240
f 189 240 190
f 190 240 241
f 190 241 191
f 191 241 242
f 191 242 243
f 191 243 192
f 192 244 200
f 192 243 244
f 194 197 196
f 195 236 222
f 199 202 201
f 199 200 244
f 199 244 202
f 202 244 203
f 203 214 245
f 203 245 204
f 203 244 214
f 204 245 217
f 204 217 246
f 204 246 205
f 205 246 247
f 205 247 206
f 206 247 207
f 207 247 208
f 208 247 248
f 208 248 209
f 209 248 212
f 212 248 216
f 212 216 213
f 214 217 245
f 214 244 249
f 214 249 215
f 215 249 218
f 216 248 217
f 217 248 246
f 218 249 219
f 219 249 250
f 219 250 251
f 219 251 220
f 220 251 225
f 222 252 253
f 222 253 223
f 222 236 252
f 223 253 229
f 223 229 228
f 223 228 224
f 225 251 254
f 225 254 226
f 226 238 237
f 226 237 227
f 226 254 242
f 226 242 241
f 226 241 239
f 229 253 252
f 229 252 233
f 229 233 232
f 229 232 230
f 230 232 231
f 233 252 235
f 235 252 236
f 239 241 240
f 242 254 243
f 243 255 250
f 243 250 244
f 243 254 255
f 244 250 249
f 246 248 247
f 250 255 251
f 251 255 254
