v 0.003442 0.054305 0.041662
v 0.003390 0.054720 0.068680
v 0.003442 0.051269 0.041662
v 0.003442 0.053981 0.014481
v 0.003390 0.051685 0.068680
v -0.011515 0.057911 0.071274
v -0.011467 0.057640 0.072489
v -0.011515 0.056898 0.073664
v -0.011515 0.055935 0.074370
v -0.011515 0.055021 0.074723
v -0.011415 0.053711 0.074892
v 0.003442 0.050645 0.030969
v 0.003442 0.053965 0.013567
v -0.032537 0.024965 0.070718
v -0.032537 0.024730 0.068641
v 0.003442 0.050480 0.026390
v -0.011319 0.052034 0.074651
v -0.035132 0.026552 0.074533
v -0.033460 0.026552 0.073664
v -0.011515 0.057862 0.070359
v -0.012986 0.057376 0.071091
v -0.014593 0.056743 0.071274
v -0.013052 0.057202 0.072136
v 0.003442 0.053938 0.012652
v 0.003442 0.053909 0.011731
v 0.003442 0.053876 0.010817
v -0.012473 0.057122 0.072913
v -0.012625 0.056486 0.073723
v -0.013204 0.055255 0.074409
v -0.013544 0.054380 0.074683
v -0.012625 0.054024 0.074860
v -0.012625 0.053107 0.074912
v -0.036434 0.027007 0.074801
v -0.040875 0.026552 0.072188
v -0.039564 0.026552 0.074017
v -0.035480 0.024206 0.041656
v -0.032341 0.024206 0.041656
v -0.031043 0.024206 0.008177
v 0.003442 0.050233 0.008177
v -0.037348 0.027007 0.074762
v -0.015085 0.056492 0.070359
v 0.003194 0.053787 0.009092
v 0.002031 0.053734 0.008589
v 0.001117 0.053688 0.008589
v 0.000281 0.053585 0.008177
v -0.000638 0.053499 0.008177
v -0.001753 0.053377 0.008177
v -0.003024 0.053239 0.008589
v -0.004378 0.052948 0.008177
v -0.005732 0.052671 0.008177
v -0.007243 0.052252 0.008177
v -0.008044 0.052061 0.008589
v -0.009137 0.051751 0.008785
v -0.009878 0.051424 0.008177
v -0.011206 0.050936 0.008177
v -0.015468 0.056354 0.071274
v -0.014598 0.056423 0.072541
v 0.003194 0.053711 0.008177
v -0.016004 0.055275 0.073403
v -0.014785 0.055562 0.073717
v -0.014532 0.054724 0.074389
v -0.015381 0.054318 0.074409
v -0.015381 0.053107 0.074775
v -0.015002 0.053925 0.074612
v -0.014463 0.053107 0.074853
v -0.015381 0.052193 0.074879
v -0.023611 0.046689 0.074873
v -0.036434 0.028842 0.074794
v -0.040457 0.026908 0.072946
v -0.040522 0.027862 0.072123
v -0.041040 0.026552 0.071274
v -0.038746 0.027205 0.074363
v -0.037918 0.029472 0.074416
v -0.038990 0.029297 0.073802
v -0.039599 0.028254 0.073521
v -0.035180 0.024206 0.013207
v -0.034013 0.027073 0.008354
v -0.032602 0.030577 0.008177
v -0.035101 0.024206 0.010516
v -0.034884 0.024361 0.008615
v -0.037348 0.028386 0.074696
v -0.012973 0.050180 0.008177
v -0.016296 0.055938 0.070359
v -0.017724 0.055248 0.071274
v -0.016779 0.055492 0.072332
v -0.018124 0.054450 0.073070
v -0.017275 0.054509 0.073586
v -0.016296 0.054747 0.073802
v -0.018285 0.052820 0.074370
v -0.018042 0.053859 0.073802
v -0.019953 0.050358 0.074775
v -0.016296 0.052193 0.074840
v -0.019474 0.051276 0.074651
v -0.022696 0.047613 0.074860
v -0.024529 0.046689 0.074834
v -0.030943 0.039377 0.074814
v -0.035519 0.031131 0.074788
v -0.035519 0.032045 0.074749
v -0.036434 0.030217 0.074729
v -0.039577 0.029426 0.073024
v -0.040013 0.029297 0.072188
v -0.040183 0.029297 0.071274
v -0.040662 0.027809 0.071117
v -0.040958 0.026552 0.070359
v -0.035162 0.024206 0.012025
v -0.037479 0.031131 0.074337
v -0.036434 0.031131 0.074664
v -0.037683 0.032725 0.073736
v -0.038646 0.031640 0.073187
v -0.038406 0.030491 0.073893
v -0.034513 0.025631 0.008589
v -0.034026 0.027578 0.009902
v -0.033569 0.028383 0.008589
v -0.031409 0.032996 0.008177
v -0.033207 0.029297 0.008589
v -0.032881 0.030217 0.008987
v -0.032389 0.031287 0.008987
v -0.031953 0.032045 0.008589
v -0.016287 0.048471 0.008177
v -0.015534 0.048943 0.008589
v -0.014314 0.049570 0.008589
v -0.018124 0.055024 0.070359
v -0.019108 0.054519 0.071274
v -0.017955 0.054941 0.072188
v -0.018908 0.054410 0.072299
v -0.019457 0.053615 0.073168
v -0.019544 0.052137 0.074318
v -0.021542 0.050721 0.074429
v -0.020506 0.052470 0.073723
v -0.021778 0.049814 0.074657
v -0.022696 0.048524 0.074788
v -0.023611 0.047613 0.074821
v -0.025439 0.046689 0.074716
v -0.028191 0.043947 0.074723
v -0.028735 0.042829 0.074768
v -0.030024 0.041199 0.074781
v -0.031857 0.038457 0.074781
v -0.035519 0.032963 0.074683
v -0.039547 0.030425 0.072364
v -0.039738 0.030531 0.071149
v -0.035828 0.033831 0.074481
v -0.037013 0.032039 0.074357
v -0.037152 0.033880 0.073769
v -0.037796 0.033840 0.073011
v -0.038685 0.032606 0.072299
v -0.038807 0.032699 0.070359
v -0.037361 0.035708 0.070359
v -0.036878 0.036599 0.070359
v -0.030921 0.033880 0.008177
v -0.038262 0.033880 0.070359
v -0.037818 0.034817 0.070359
v -0.020902 0.045392 0.008177
v -0.018551 0.047135 0.008354
v -0.017023 0.048095 0.008589
v -0.019087 0.054506 0.070359
v -0.019953 0.054037 0.071274
v -0.021172 0.052688 0.072972
v -0.020323 0.053638 0.072116
v -0.022383 0.051685 0.073253
v -0.021673 0.051599 0.073802
v -0.022735 0.050035 0.074350
v -0.023793 0.049157 0.074396
v -0.025300 0.047758 0.074455
v -0.026341 0.046910 0.074442
v -0.028744 0.044798 0.074337
v -0.030429 0.042172 0.074540
v -0.032158 0.039509 0.074618
v -0.032689 0.038648 0.074625
v -0.034753 0.035213 0.074572
v -0.038733 0.032976 0.071274
v -0.033390 0.038816 0.074363
v -0.036203 0.035708 0.073749
v -0.036107 0.037289 0.072822
v -0.037030 0.035748 0.072645
v -0.037914 0.034322 0.072234
v -0.038323 0.033880 0.071274
v -0.037418 0.035708 0.071274
v -0.036177 0.037876 0.071084
v -0.034988 0.039714 0.070359
v -0.030434 0.034728 0.008177
v -0.037844 0.034873 0.071274
v -0.029663 0.035969 0.008177
v -0.024116 0.042667 0.008191
v -0.023075 0.043607 0.008217
v -0.022204 0.044383 0.008400
v -0.025940 0.049926 0.070803
v -0.024381 0.051054 0.070359
v -0.023537 0.051678 0.070359
v -0.019657 0.046362 0.008589
v -0.020772 0.053503 0.070359
v -0.020802 0.053523 0.071274
v -0.021817 0.052668 0.072188
v -0.023005 0.051846 0.072253
v -0.024190 0.050906 0.072449
v -0.024978 0.049896 0.073116
v -0.023471 0.050728 0.073455
v -0.024529 0.049464 0.073867
v -0.026201 0.048312 0.073730
v -0.027360 0.046313 0.074272
v -0.029981 0.043551 0.074285
v -0.029036 0.045709 0.073710
v -0.030913 0.042990 0.074017
v -0.033033 0.040393 0.073926
v -0.034592 0.038367 0.073769
v -0.035066 0.038005 0.073566
v -0.034888 0.038615 0.073351
v -0.034318 0.040057 0.072880
v -0.035097 0.039202 0.072462
v -0.036029 0.037889 0.072057
v -0.036873 0.036556 0.071698
v -0.034831 0.040017 0.071274
v -0.034409 0.040568 0.070359
v -0.028622 0.037513 0.008589
v -0.026928 0.039635 0.008262
v -0.025875 0.040882 0.008210
v -0.025056 0.041726 0.008204
v -0.029741 0.046399 0.070359
v -0.028100 0.047979 0.070359
v -0.027046 0.048982 0.070888
v -0.028135 0.048012 0.071274
v -0.026811 0.048979 0.072188
v -0.024394 0.051061 0.071274
v -0.023550 0.051685 0.071274
v -0.022374 0.052529 0.071156
v -0.026127 0.049147 0.072887
v -0.027016 0.048078 0.073312
v -0.025526 0.049048 0.073599
v -0.027743 0.047339 0.073377
v -0.030577 0.044175 0.073625
v -0.030142 0.044977 0.073305
v -0.031714 0.042446 0.073775
v -0.032637 0.041245 0.073782
v -0.034048 0.039499 0.073638
v -0.031339 0.043627 0.073253
v -0.032419 0.042697 0.072796
v -0.033181 0.042037 0.072188
v -0.034226 0.040661 0.072103
v -0.034087 0.041116 0.071274
v -0.033098 0.042386 0.070359
v -0.027908 0.038457 0.008589
v -0.032358 0.043386 0.070568
v -0.031270 0.044709 0.070359
v -0.030412 0.045719 0.070359
v -0.030429 0.045735 0.071274
v -0.029754 0.046419 0.071274
v -0.027760 0.048098 0.072266
v -0.028622 0.047121 0.072573
v -0.030503 0.045343 0.072260
v -0.031370 0.044366 0.072090
v -0.033286 0.042188 0.071274
v -0.031104 0.044944 0.071274
f 1 2 5
f 1 5 3
f 1 3 12
f 1 12 16
f 1 16 39
f 1 39 26
f 1 26 25
f 1 25 24
f 1 24 13
f 1 13 4
f 1 4 2
f 2 4 6
f 2 6 7
f 2 7 8
f 2 8 9
f 2 9 10
f 2 10 11
f 2 11 5
f 3 5 12
f 4 13 6
f 5 14 15
f 5 15 16
f 5 16 12
f 5 11 17
f 5 17 18
f 5 18 19
f 5 19 14
f 6 20 21
f 6 21 22
f 6 22 23
f 6 23 7
f 6 13 24
f 6 24 25
f 6 25 26
f 6 26 20
f 7 27 8
f 7 23 27
f 8 27 28
f 8 28 9
f 9 28 29
f 9 29 10
f 10 30 31
f 10 31 11
f 10 29 30
f 11 31 32
f 11 32 33
f 11 33 17
f 14 34 15
f 14 19 18
f 14 18 35
f 14 35 34
f 15 36 37
f 15 37 38
f 15 38 16
f 15 34 36
f 16 38 39
f 17 33 18
f 18 33 40
f 18 40 35
f 20 41 21
f 20 26 42
f 20 42 43
f 20 43 44
f 20 44 45
f 20 45 46
f 20 46 47
f 20 47 48
f 20 48 49
f 20 49 50
f 20 50 51
f 20 51 52
f 20 52 53
f 20 53 54
f 20 54 55
f 20 55 41
f 21 41 22
f 22 41 56
f 22 56 57
f 22 57 23
f 23 57 27
f 26 39 58
f 26 58 42
f 27 57 59
f 27 59 28
f 28 59 60
f 28 60 61
f 28 61 29
f 29 61 62
f 29 62 30
f 30 63 31
f 30 62 64
f 30 64 63
f 31 65 66
f 31 66 32
f 31 63 65
f 32 66 67
f 32 67 33
f 33 67 68
f 33 68 40
f 34 69 70
f 34 70 71
f 34 71 36
f 34 35 69
f 35 40 72
f 35 72 73
f 35 73 74
f 35 74 75
f 35 75 69
f 36 76 105
f 36 105 79
f 36 79 38
f 36 38 37
f 36 71 76
f 38 77 78
f 38 78 114
f 38 114 149
f 38 149 180
f 38 180 182
f 38 182 152
f 38 152 119
f 38 119 82
f 38 82 55
f 38 55 54
f 38 54 51
f 38 51 50
f 38 50 49
f 38 49 47
f 38 47 46
f 38 46 45
f 38 45 58
f 38 58 39
f 38 79 80
f 38 80 77
f 40 68 81
f 40 81 72
f 41 55 82
f 41 82 83
f 41 83 56
f 42 58 43
f 43 58 45
f 43 45 44
f 47 49 48
f 51 54 53
f 51 53 52
f 56 83 84
f 56 84 85
f 56 85 57
f 57 85 86
f 57 86 59
f 59 87 60
f 59 86 87
f 60 88 62
f 60 62 61
f 60 87 88
f 62 89 64
f 62 88 90
f 62 90 89
f 63 91 92
f 63 92 65
f 63 64 93
f 63 93 91
f 64 89 93
f 65 92 66
f 66 92 132
f 66 132 94
f 66 94 67
f 67 94 95
f 67 95 96
f 67 96 68
f 68 96 97
f 68 97 98
f 68 98 99
f 68 99 81
f 69 75 100
f 69 100 101
f 69 101 70
f 70 101 102
f 70 102 71
f 71 102 103
f 71 103 104
f 71 104 79
f 71 79 105
f 71 105 76
f 72 81 73
f 73 106 74
f 73 81 107
f 73 107 106
f 74 108 109
f 74 109 75
f 74 106 110
f 74 110 108
f 75 109 100
f 77 111 112
f 77 112 113
f 77 113 78
f 77 80 111
f 78 113 115
f 78 115 116
f 78 116 117
f 78 117 118
f 78 118 114
f 79 104 80
f 80 104 111
f 81 99 107
f 82 119 120
f 82 120 121
f 82 121 83
f 83 121 122
f 83 122 84
f 84 122 123
f 84 123 124
f 84 124 85
f 85 124 125
f 85 125 86
f 86 125 126
f 86 126 87
f 87 90 88
f 87 126 90
f 89 127 128
f 89 128 93
f 89 90 127
f 90 126 129
f 90 129 127
f 91 93 130
f 91 130 131
f 91 131 92
f 92 131 132
f 93 128 130
f 94 132 95
f 95 132 133
f 95 133 134
f 95 134 135
f 95 135 136
f 95 136 96
f 96 136 137
f 96 137 97
f 97 137 98
f 98 137 138
f 98 138 99
f 99 138 107
f 100 109 139
f 100 139 101
f 101 140 102
f 101 139 140
f 102 140 112
f 102 112 103
f 103 112 111
f 103 111 104
f 106 107 141
f 106 141 142
f 106 142 143
f 106 143 110
f 107 138 141
f 108 110 143
f 108 143 109
f 109 144 145
f 109 145 139
f 109 143 144
f 112 140 113
f 113 140 146
f 113 146 115
f 114 118 147
f 114 147 148
f 114 148 149
f 115 146 116
f 116 146 117
f 117 146 150
f 117 150 151
f 117 151 118
f 118 151 147
f 119 152 153
f 119 153 154
f 119 154 155
f 119 155 120
f 120 155 122
f 120 122 121
f 122 155 123
f 123 155 156
f 123 156 125
f 123 125 124
f 125 157 126
f 125 156 158
f 125 158 157
f 126 157 159
f 126 159 129
f 127 129 128
f 128 129 160
f 128 160 161
f 128 161 162
f 128 162 130
f 129 159 160
f 130 133 131
f 130 162 163
f 130 163 133
f 131 133 132
f 133 163 164
f 133 164 134
f 134 136 135
f 134 164 165
f 134 165 166
f 134 166 167
f 134 167 136
f 136 167 137
f 137 167 168
f 137 168 138
f 138 168 169
f 138 169 141
f 139 145 140
f 140 145 170
f 140 170 146
f 141 169 168
f 141 168 171
f 141 171 143
f 141 143 142
f 143 172 144
f 143 171 172
f 144 173 174
f 144 174 175
f 144 175 145
f 144 172 173
f 145 175 176
f 145 176 170
f 146 170 176
f 146 176 150
f 147 151 177
f 147 177 148
f 148 177 178
f 148 178 179
f 148 179 180
f 148 180 149
f 150 176 151
f 151 176 181
f 151 181 177
f 152 182 183
f 152 183 184
f 152 184 185
f 152 185 186
f 152 186 187
f 152 187 188
f 152 188 189
f 152 189 153
f 153 189 188
f 153 188 190
f 153 190 154
f 154 190 155
f 155 190 156
f 156 191 158
f 156 190 191
f 157 158 192
f 157 192 193
f 157 193 159
f 158 191 192
f 159 193 194
f 159 194 195
f 159 195 196
f 159 196 160
f 160 196 197
f 160 197 161
f 161 197 162
f 162 164 163
f 162 197 198
f 162 198 164
f 164 198 199
f 164 199 165
f 165 200 166
f 165 199 201
f 165 201 200
f 166 200 171
f 166 171 167
f 167 171 168
f 171 200 202
f 171 202 203
f 171 203 204
f 171 204 172
f 172 204 205
f 172 205 173
f 173 205 206
f 173 206 207
f 173 207 208
f 173 208 209
f 173 209 174
f 174 209 210
f 174 210 175
f 175 210 177
f 175 177 181
f 175 181 176
f 177 210 178
f 178 210 209
f 178 209 211
f 178 211 179
f 179 212 182
f 179 182 180
f 179 211 238
f 179 238 212
f 182 213 214
f 182 214 215
f 182 215 183
f 182 212 213
f 183 215 216
f 183 216 217
f 183 217 218
f 183 218 184
f 184 218 219
f 184 219 186
f 184 186 185
f 186 219 220
f 186 220 221
f 186 221 222
f 186 222 223
f 186 223 188
f 186 188 187
f 188 223 224
f 188 224 190
f 190 224 191
f 191 224 192
f 192 224 193
f 193 224 223
f 193 223 222
f 193 222 194
f 194 225 195
f 194 222 221
f 194 221 225
f 195 225 226
f 195 226 227
f 195 227 196
f 196 227 197
f 197 227 198
f 198 201 199
f 198 227 226
f 198 226 228
f 198 228 201
f 200 201 229
f 200 229 202
f 201 228 230
f 201 230 229
f 202 229 231
f 202 231 232
f 202 232 203
f 203 232 233
f 203 233 204
f 204 233 205
f 205 233 206
f 206 233 207
f 207 234 235
f 207 235 236
f 207 236 237
f 207 237 208
f 207 233 232
f 207 232 234
f 208 237 211
f 208 211 209
f 211 237 238
f 212 239 213
f 212 238 239
f 213 240 214
f 213 239 240
f 214 240 241
f 214 241 242
f 214 242 215
f 215 242 243
f 215 243 216
f 216 243 217
f 217 243 244
f 217 244 245
f 217 245 220
f 217 220 218
f 218 220 219
f 220 245 246
f 220 246 221
f 221 246 225
f 225 246 226
f 226 246 247
f 226 247 228
f 228 247 230
f 229 232 231
f 229 230 234
f 229 234 232
f 230 247 248
f 230 248 234
f 234 248 235
f 235 248 249
f 235 249 236
f 236 249 250
f 236 250 238
f 236 238 237
f 238 250 239
f 239 250 241
f 239 241 240
f 241 250 251
f 241 251 242
f 242 251 243
f 243 251 244
f 244 251 248
f 244 248 245
f 245 248 246
f 246 248 247
f 248 251 249
f 249 251 250
