v 0.003406 0.051274 0.041674
v -0.011314 0.048682 0.068680
v -0.011314 0.052029 0.068680
v -0.011314 0.055859 0.068745
v 0.003640 0.054299 0.041674
v 0.027614 0.042326 0.041674
v -0.011314 0.048729 0.070359
v 0.030517 0.040196 0.068898
v -0.011314 0.057041 0.069083
v -0.001605 0.060008 0.069991
v 0.001130 0.060324 0.070815
v 0.002047 0.060372 0.070815
v 0.003423 0.060380 0.070815
v 0.006621 0.060202 0.070359
v 0.005323 0.054208 0.041674
v -0.011125 0.057993 0.070359
v -0.010138 0.058280 0.070242
v -0.008951 0.058661 0.070359
v -0.006617 0.059204 0.070209
v -0.005286 0.059510 0.070359
v -0.004373 0.059678 0.070359
v -0.003448 0.059823 0.070359
v 0.025480 0.047621 0.041674
v 0.027364 0.046169 0.041677
v 0.030517 0.050468 0.068986
v 0.030517 0.049405 0.068686
v 0.030517 0.044276 0.068459
v -0.011314 0.049049 0.071921
v 0.030517 0.040394 0.070831
v -0.011314 0.057685 0.072510
v -0.002465 0.059979 0.070824
v -0.000700 0.060176 0.070815
v 0.000217 0.060259 0.070815
v 0.000675 0.060133 0.072188
v 0.003533 0.060208 0.072188
v 0.006621 0.060212 0.071274
v 0.005249 0.060313 0.070815
v 0.007538 0.060125 0.071274
v 0.009274 0.059943 0.070698
v 0.007755 0.060070 0.070131
v 0.006621 0.054101 0.041674
v -0.010863 0.058125 0.071274
v -0.009868 0.058434 0.071274
v -0.008951 0.058691 0.071274
v -0.007760 0.058995 0.070805
v -0.006204 0.059354 0.071274
v -0.005286 0.059548 0.071274
v -0.004373 0.059712 0.071274
v 0.024428 0.048314 0.041674
v 0.028445 0.052848 0.070356
v 0.030390 0.051357 0.069913
v 0.030357 0.051479 0.071781
v 0.030472 0.047623 0.074703
v 0.030517 0.045787 0.074703
v -0.011314 0.049857 0.073304
v 0.030517 0.040969 0.072302
v -0.011314 0.051942 0.074609
v -0.011293 0.056932 0.073721
v -0.009348 0.058104 0.073024
v -0.010323 0.058147 0.072198
v -0.003448 0.059842 0.071274
v -0.002121 0.059915 0.071999
v -0.000745 0.059919 0.072712
v 0.001130 0.060018 0.072731
v 0.002964 0.059923 0.073021
v 0.005249 0.060052 0.072601
v 0.008500 0.059979 0.071739
v 0.010273 0.059799 0.070359
v 0.010752 0.059720 0.071274
v 0.007681 0.053992 0.041674
v 0.009372 0.053789 0.041674
v -0.008951 0.058550 0.072188
v -0.008034 0.058791 0.072188
v -0.007014 0.059052 0.072100
v -0.005286 0.059396 0.072188
v -0.003870 0.059639 0.072188
v 0.023155 0.049061 0.041674
v 0.027090 0.053664 0.070239
v 0.028690 0.052712 0.071274
v 0.029518 0.052159 0.071274
v 0.027499 0.053455 0.071400
v 0.028793 0.052475 0.072185
v 0.029559 0.051748 0.072644
v 0.030124 0.050764 0.073477
v 0.030386 0.048879 0.074466
v 0.029518 0.048528 0.074677
v 0.027646 0.049446 0.074726
v 0.028600 0.048528 0.074739
v 0.029518 0.047623 0.074749
v 0.030472 0.046706 0.074742
v 0.030517 0.044391 0.074463
v -0.011179 0.053716 0.074899
v -0.011314 0.050582 0.073929
v 0.030517 0.041801 0.073242
v 0.030517 0.042763 0.073870
v -0.011047 0.055026 0.074765
v -0.010916 0.055980 0.074463
v -0.009876 0.056717 0.074228
v -0.010208 0.057357 0.073682
v -0.007309 0.058416 0.073327
v -0.005286 0.059177 0.072852
v -0.006257 0.059046 0.072650
v -0.002531 0.059502 0.073106
v -0.001618 0.059410 0.073408
v 0.000675 0.059751 0.073167
v 0.003877 0.059585 0.073538
v 0.007333 0.059832 0.072790
v 0.009364 0.059797 0.072188
v 0.011190 0.059655 0.070359
v 0.010662 0.053599 0.041674
v 0.010752 0.059580 0.072178
v 0.012107 0.059354 0.072188
v 0.013029 0.059325 0.071274
v 0.012107 0.059497 0.070815
v 0.025738 0.054417 0.070229
v 0.021922 0.049729 0.041674
v 0.025800 0.054451 0.071274
v 0.025423 0.054510 0.072263
v 0.026750 0.053668 0.072539
v 0.027970 0.052671 0.072949
v 0.028711 0.051624 0.073620
v 0.029399 0.050033 0.074293
v 0.028600 0.050507 0.074342
v 0.025959 0.051910 0.074469
v 0.026954 0.050821 0.074586
v 0.028600 0.049446 0.074642
v 0.024940 0.051276 0.074716
v 0.023105 0.052193 0.074739
v 0.024023 0.051276 0.074759
v 0.018524 0.054028 0.074798
v 0.019445 0.053107 0.074798
v 0.027683 0.048528 0.074759
v 0.008455 0.055859 0.074863
v -0.007117 0.054945 0.074918
v -0.008034 0.054945 0.074915
v -0.006658 0.055859 0.074860
v -0.008951 0.055859 0.074736
v -0.009876 0.055923 0.074629
v -0.009885 0.056320 0.074479
v -0.008034 0.057045 0.074381
v -0.008951 0.057230 0.074069
v -0.006204 0.058337 0.073753
v -0.003616 0.059064 0.073490
v -0.000700 0.059246 0.073750
v 0.000675 0.059293 0.073782
v 0.002047 0.059333 0.073805
v 0.005249 0.059335 0.073792
v 0.006621 0.059293 0.073773
v 0.008455 0.059589 0.073106
v 0.009364 0.059471 0.073106
v 0.011190 0.059232 0.072995
v 0.012107 0.059151 0.072816
v 0.013414 0.059196 0.070232
v 0.012116 0.053305 0.041674
v 0.013012 0.059024 0.072608
v 0.014859 0.058716 0.072188
v 0.013893 0.059054 0.071654
v 0.015776 0.058613 0.070815
v 0.014859 0.058860 0.070815
v 0.024940 0.054929 0.071274
v 0.023404 0.055650 0.070222
v 0.020616 0.050375 0.041674
v 0.023535 0.055502 0.072204
v 0.024883 0.054457 0.073011
v 0.025837 0.053435 0.073597
v 0.027249 0.052319 0.073812
v 0.027691 0.051248 0.074280
v 0.025145 0.052505 0.074427
v 0.024023 0.052507 0.074603
v 0.020354 0.054028 0.074684
v 0.019441 0.054028 0.074759
v 0.016689 0.054945 0.074785
v 0.011190 0.055859 0.074837
v 0.009819 0.055859 0.074853
v 0.007079 0.056776 0.074847
v 0.004790 0.056776 0.074860
v 0.000217 0.056776 0.074873
v -0.005286 0.055859 0.074889
v -0.002072 0.056776 0.074834
v -0.005286 0.056776 0.074716
v -0.008951 0.056464 0.074547
v -0.007117 0.056705 0.074629
v -0.005647 0.057319 0.074518
v -0.006842 0.057551 0.074219
v -0.005286 0.058123 0.074053
v -0.004332 0.058256 0.074095
v -0.002531 0.058882 0.073877
v 0.000217 0.058675 0.074235
v -0.001618 0.058606 0.074163
v 0.002047 0.058511 0.074407
v 0.003476 0.058681 0.074290
v 0.007538 0.058955 0.073981
v 0.008455 0.059204 0.073708
v 0.010314 0.058914 0.073678
v 0.013029 0.058321 0.073727
v 0.014142 0.058181 0.073506
v 0.015911 0.058301 0.072526
v 0.013606 0.052965 0.041674
v 0.017066 0.058228 0.070297
v 0.017070 0.058167 0.071674
v 0.018524 0.057742 0.071274
v 0.023454 0.055701 0.071274
v 0.022119 0.056264 0.070232
v 0.022201 0.056302 0.071274
v 0.019531 0.050893 0.041674
v 0.021988 0.056233 0.072191
v 0.022688 0.055510 0.073047
v 0.024121 0.054372 0.073620
v 0.024449 0.053157 0.074297
v 0.021054 0.054476 0.074476
v 0.017606 0.055640 0.074573
v 0.017606 0.054945 0.074733
v 0.014859 0.055859 0.074726
v 0.009819 0.056776 0.074788
v 0.008455 0.056776 0.074830
v 0.002047 0.057691 0.074723
v 0.000217 0.057691 0.074703
v -0.004013 0.057308 0.074632
v -0.002531 0.057863 0.074534
v 0.005249 0.057977 0.074625
v 0.001130 0.058092 0.074560
v 0.007906 0.058147 0.074472
v 0.009364 0.058876 0.073851
v 0.011190 0.058529 0.073864
v 0.012107 0.058422 0.073802
v 0.013127 0.057379 0.074375
v 0.015776 0.057171 0.074023
v 0.018524 0.056590 0.073802
v 0.018196 0.057183 0.073278
v 0.012107 0.057778 0.074261
v 0.018900 0.057426 0.072318
v 0.015371 0.052457 0.041674
v 0.020047 0.057128 0.070245
v 0.016693 0.051995 0.041674
v 0.020354 0.056903 0.072188
v 0.019895 0.057230 0.071241
v 0.021271 0.056662 0.070359
v 0.021271 0.056695 0.071274
v 0.018249 0.051416 0.041674
v 0.020866 0.056231 0.073193
v 0.021566 0.055529 0.073678
v 0.022708 0.054832 0.073802
v 0.020354 0.055101 0.074336
v 0.017107 0.056519 0.074183
v 0.014859 0.056517 0.074560
v 0.016284 0.055998 0.074593
v 0.011649 0.056776 0.074707
v 0.010273 0.057483 0.074586
v 0.011190 0.057859 0.074323
v 0.019985 0.056132 0.073721
f 1 2 3
f 1 3 4
f 1 4 5
f 1 5 15
f 1 15 41
f 1 41 70
f 1 70 71
f 1 71 110
f 1 110 154
f 1 154 198
f 1 198 232
f 1 232 234
f 1 234 239
f 1 239 205
f 1 205 162
f 1 162 116
f 1 116 77
f 1 77 49
f 1 49 23
f 1 23 6
f 1 6 2
f 2 7 28
f 2 28 55
f 2 55 93
f 2 93 57
f 2 57 30
f 2 30 9
f 2 9 4
f 2 4 3
f 2 6 8
f 2 8 7
f 4 9 5
f 5 10 11
f 5 11 12
f 5 12 13
f 5 13 14
f 5 14 15
f 5 9 16
f 5 16 17
f 5 17 18
f 5 18 19
f 5 19 20
f 5 20 21
f 5 21 22
f 5 22 10
f 6 23 24
f 6 24 25
f 6 25 26
f 6 26 27
f 6 27 8
f 7 8 29
f 7 29 28
f 8 27 26
f 8 26 25
f 8 25 54
f 8 54 91
f 8 91 95
f 8 95 94
f 8 94 56
f 8 56 29
f 9 30 16
f 10 31 32
f 10 32 33
f 10 33 11
f 10 22 31
f 11 33 34
f 11 34 12
f 12 35 13
f 12 34 35
f 13 35 36
f 13 36 37
f 13 37 14
f 14 37 36
f 14 36 38
f 14 38 39
f 14 39 40
f 14 40 15
f 15 40 41
f 16 42 43
f 16 43 18
f 16 18 17
f 16 30 42
f 18 43 44
f 18 44 45
f 18 45 19
f 19 45 20
f 20 45 46
f 20 46 47
f 20 47 21
f 21 47 48
f 21 48 22
f 22 48 31
f 23 49 50
f 23 50 51
f 23 51 24
f 24 51 25
f 25 51 52
f 25 52 53
f 25 53 54
f 28 29 56
f 28 56 55
f 30 57 58
f 30 58 59
f 30 59 60
f 30 60 42
f 31 48 61
f 31 61 32
f 32 61 62
f 32 62 33
f 33 62 34
f 34 62 63
f 34 63 64
f 34 64 35
f 35 64 65
f 35 65 66
f 35 66 36
f 36 66 67
f 36 67 38
f 38 67 39
f 39 68 40
f 39 67 69
f 39 69 68
f 40 70 41
f 40 68 71
f 40 71 70
f 42 60 43
f 43 60 72
f 43 72 44
f 44 72 73
f 44 73 74
f 44 74 46
f 44 46 45
f 46 74 47
f 47 74 75
f 47 75 48
f 48 75 76
f 48 76 62
f 48 62 61
f 49 77 78
f 49 78 50
f 50 79 80
f 50 80 51
f 50 78 81
f 50 81 79
f 51 80 52
f 52 80 82
f 52 82 83
f 52 83 84
f 52 84 85
f 52 85 53
f 53 85 86
f 53 86 87
f 53 87 88
f 53 88 89
f 53 89 90
f 53 90 54
f 54 90 92
f 54 92 57
f 54 57 91
f 55 56 94
f 55 94 93
f 57 92 58
f 57 93 95
f 57 95 91
f 58 92 96
f 58 96 97
f 58 97 98
f 58 98 99
f 58 99 59
f 59 73 72
f 59 72 60
f 59 99 100
f 59 100 101
f 59 101 102
f 59 102 73
f 62 76 63
f 63 76 103
f 63 103 104
f 63 104 105
f 63 105 64
f 64 105 65
f 65 106 66
f 65 105 106
f 66 107 67
f 66 106 107
f 67 108 69
f 67 107 108
f 68 69 109
f 68 109 110
f 68 110 71
f 69 111 112
f 69 112 113
f 69 113 114
f 69 114 109
f 69 108 111
f 73 102 74
f 74 102 75
f 75 101 76
f 75 102 101
f 76 101 103
f 77 115 78
f 77 116 115
f 78 115 117
f 78 117 81
f 79 82 80
f 79 81 82
f 81 117 118
f 81 118 119
f 81 119 82
f 82 119 120
f 82 120 83
f 83 120 84
f 84 120 121
f 84 121 122
f 84 122 85
f 85 122 123
f 85 123 124
f 85 124 125
f 85 125 126
f 85 126 86
f 86 126 87
f 87 126 127
f 87 127 128
f 87 128 129
f 87 129 88
f 88 129 89
f 89 129 130
f 89 130 131
f 89 131 132
f 89 132 133
f 89 133 90
f 90 133 134
f 90 134 92
f 92 134 135
f 92 135 96
f 93 94 95
f 96 135 136
f 96 136 137
f 96 137 138
f 96 138 97
f 97 138 139
f 97 139 98
f 98 139 140
f 98 140 141
f 98 141 99
f 99 141 142
f 99 142 100
f 100 142 143
f 100 143 101
f 101 143 103
f 103 143 104
f 104 144 105
f 104 143 144
f 105 144 145
f 105 145 146
f 105 146 106
f 106 146 147
f 106 147 148
f 106 148 149
f 106 149 107
f 107 149 108
f 108 149 150
f 108 150 151
f 108 151 152
f 108 152 111
f 109 114 153
f 109 153 110
f 110 153 154
f 111 152 112
f 112 152 155
f 112 155 156
f 112 156 157
f 112 157 113
f 113 157 158
f 113 158 159
f 113 159 153
f 113 153 114
f 115 160 117
f 115 116 161
f 115 161 160
f 116 162 161
f 117 160 118
f 118 160 163
f 118 163 164
f 118 164 119
f 119 164 120
f 120 164 165
f 120 165 121
f 121 165 166
f 121 166 167
f 121 167 122
f 122 167 123
f 123 167 124
f 124 168 169
f 124 169 125
f 124 167 168
f 125 169 127
f 125 127 126
f 127 169 128
f 128 169 170
f 128 170 171
f 128 171 130
f 128 130 129
f 130 171 172
f 130 172 173
f 130 173 174
f 130 174 131
f 131 174 133
f 131 133 132
f 133 174 175
f 133 175 176
f 133 176 177
f 133 177 134
f 134 177 135
f 135 177 178
f 135 178 136
f 136 178 179
f 136 179 180
f 136 180 137
f 137 181 138
f 137 180 182
f 137 182 181
f 138 181 139
f 139 181 140
f 140 181 183
f 140 183 184
f 140 184 142
f 140 142 141
f 142 184 185
f 142 185 186
f 142 186 187
f 142 187 143
f 143 187 144
f 144 188 145
f 144 187 189
f 144 189 188
f 145 188 146
f 146 190 191
f 146 191 147
f 146 188 190
f 147 192 148
f 147 191 192
f 148 192 193
f 148 193 149
f 149 193 150
f 150 194 151
f 150 193 194
f 151 195 152
f 151 194 195
f 152 195 196
f 152 196 197
f 152 197 155
f 153 198 154
f 153 159 199
f 153 199 198
f 155 197 156
f 156 197 200
f 156 200 157
f 157 200 158
f 158 200 201
f 158 201 199
f 158 199 159
f 160 161 202
f 160 202 163
f 161 203 204
f 161 204 202
f 161 162 205
f 161 205 203
f 163 202 204
f 163 204 206
f 163 206 207
f 163 207 164
f 164 207 208
f 164 208 165
f 165 208 166
f 166 208 209
f 166 209 167
f 167 209 168
f 168 209 210
f 168 210 169
f 169 210 170
f 170 210 211
f 170 211 212
f 170 212 171
f 171 212 172
f 172 212 213
f 172 213 214
f 172 214 215
f 172 215 173
f 173 215 174
f 174 215 175
f 175 215 216
f 175 216 176
f 176 216 177
f 177 216 217
f 177 217 179
f 177 179 178
f 179 217 180
f 180 218 182
f 180 217 218
f 181 182 183
f 182 218 183
f 183 218 219
f 183 219 186
f 183 186 184
f 184 186 185
f 186 219 189
f 186 189 187
f 188 189 219
f 188 219 190
f 190 216 220
f 190 220 191
f 190 219 221
f 190 221 216
f 191 220 222
f 191 222 192
f 192 222 223
f 192 223 193
f 193 223 194
f 194 223 224
f 194 224 225
f 194 225 195
f 195 226 227
f 195 227 228
f 195 228 229
f 195 229 196
f 195 225 230
f 195 230 226
f 196 229 197
f 197 229 231
f 197 231 200
f 198 199 232
f 199 201 233
f 199 233 234
f 199 234 232
f 200 231 201
f 201 231 235
f 201 235 236
f 201 236 233
f 203 205 237
f 203 237 204
f 204 237 238
f 204 238 206
f 205 239 237
f 206 238 235
f 206 235 240
f 206 240 207
f 207 240 241
f 207 241 208
f 208 241 242
f 208 242 209
f 209 242 243
f 209 243 210
f 210 243 211
f 211 243 244
f 211 244 245
f 211 245 246
f 211 246 212
f 212 246 213
f 213 246 245
f 213 245 247
f 213 247 214
f 214 248 220
f 214 220 215
f 214 247 248
f 215 220 216
f 216 221 217
f 217 221 219
f 217 219 218
f 220 248 222
f 222 248 249
f 222 249 223
f 223 249 224
f 224 249 230
f 224 230 225
f 226 245 244
f 226 244 227
f 226 230 249
f 226 249 248
f 226 248 245
f 227 244 228
f 228 244 243
f 228 243 250
f 228 250 229
f 229 250 240
f 229 240 231
f 231 240 235
f 233 236 237
f 233 237 239
f 233 239 234
f 235 238 236
f 236 238 237
f 240 250 241
f 241 250 243
f 241 243 242
f 245 248 247
