v -0.052413 0.078334 0.001630
v -0.052081 0.078238 0.002618
v -0.051948 0.078264 0.001630
v -0.052103 0.078249 0.000585
v -0.052413 0.078305 0.000858
v -0.052413 0.078256 0.002683
v -0.051043 0.078123 0.001630
v -0.049666 0.077099 0.003214
v -0.048164 0.076776 0.002924
v -0.049666 0.077804 0.001630
v -0.052413 0.078287 0.000416
v -0.047854 0.076758 0.000213
v -0.052413 0.077989 0.002958
v -0.052413 0.077401 0.003524
v -0.044988 0.072852 0.004404
v -0.046958 0.076381 0.002503
v -0.047679 0.076916 0.001792
v -0.046822 0.076486 0.000545
v -0.049666 0.077095 -0.000068
v -0.052413 0.077924 -0.000052
v -0.047854 0.075484 -0.000561
v -0.052413 0.075508 0.003909
v -0.045335 0.072852 0.004404
v -0.044324 0.071825 0.004543
v -0.043188 0.071197 0.004456
v -0.043780 0.072403 0.003901
v -0.044988 0.074748 0.002698
v -0.046822 0.076486 0.001296
v -0.044976 0.074777 0.001630
v -0.045073 0.074675 0.000645
v -0.046149 0.075361 0.000308
v -0.052413 0.077342 -0.000480
v -0.049666 0.075484 -0.000908
v -0.046045 0.073673 -0.000422
v -0.046045 0.071863 -0.000762
v -0.052413 0.073978 0.003056
v -0.046336 0.066198 0.003086
v -0.046181 0.066198 0.003198
v -0.044806 0.066198 0.004083
v -0.044618 0.066198 0.004165
v -0.043829 0.066198 0.004433
v -0.043713 0.066198 0.004454
v -0.045451 0.070053 0.004524
v -0.044234 0.070053 0.004697
v -0.045519 0.071863 0.004510
v -0.043006 0.070053 0.004519
v -0.041550 0.067291 0.004338
v -0.040500 0.066198 0.003702
v -0.040039 0.066198 0.003227
v -0.041398 0.069327 0.002796
v -0.042993 0.071825 0.003354
v -0.043266 0.072849 0.002693
v -0.043266 0.072849 0.002382
v -0.041518 0.069148 0.000724
v -0.044791 0.073673 0.000342
v -0.052413 0.076720 -0.000760
v -0.052413 0.075487 -0.000928
v -0.044234 0.068241 -0.000695
v -0.044176 0.071861 0.000008
v -0.042423 0.068241 -0.000235
v -0.044234 0.070053 -0.000568
v -0.042423 0.066431 -0.000569
v -0.042423 0.066198 -0.000585
v -0.052413 0.073050 0.001804
v -0.046965 0.066198 0.002525
v -0.042292 0.066198 0.004489
v -0.041540 0.066198 0.004430
v -0.041153 0.066198 0.004222
v -0.039787 0.066198 0.001630
v -0.041427 0.069282 0.001630
v -0.039907 0.066198 0.001243
v -0.040539 0.066198 0.000313
v -0.041294 0.068241 0.000500
v -0.042474 0.069872 0.000306
v -0.052413 0.074623 -0.000631
v -0.044002 0.066198 -0.000643
v -0.044234 0.066198 -0.000633
v -0.045812 0.066198 -0.000139
v -0.040614 0.066258 0.000277
v -0.040614 0.066198 0.000260
v -0.042191 0.066198 -0.000520
v -0.052413 0.072702 0.000917
v -0.047038 0.066198 0.002099
v -0.040572 0.066198 0.000285
v -0.047082 0.066198 0.000554
v -0.052413 0.073598 -0.000096
v -0.046066 0.066198 -0.000042
v -0.047093 0.066198 0.001686
v -0.052413 0.072702 0.000643
v -0.052413 0.073080 0.000283
f 1 2 3
f 1 3 4
f 1 4 5
f 1 5 11
f 1 11 20
f 1 20 32
f 1 32 56
f 1 56 57
f 1 57 75
f 1 75 86
f 1 86 90
f 1 90 89
f 1 89 82
f 1 82 64
f 1 64 36
f 1 36 22
f 1 22 14
f 1 14 13
f 1 13 6
f 1 6 2
f 2 7 3
f 2 6 8
f 2 8 9
f 2 9 10
f 2 10 7
f 3 7 4
f 4 11 5
f 4 7 10
f 4 10 12
f 4 12 11
f 6 13 8
f 8 13 14
f 8 14 15
f 8 15 9
f 9 16 17
f 9 17 10
f 9 15 16
f 10 17 18
f 10 18 12
f 11 12 19
f 11 19 20
f 12 21 19
f 12 18 21
f 14 22 15
f 15 23 24
f 15 24 25
f 15 25 26
f 15 26 27
f 15 27 16
f 15 22 23
f 16 28 17
f 16 27 28
f 17 28 18
f 18 28 29
f 18 29 30
f 18 30 31
f 18 31 21
f 19 21 32
f 19 32 20
f 21 33 32
f 21 31 34
f 21 34 35
f 21 35 33
f 22 36 37
f 22 37 38
f 22 38 39
f 22 39 40
f 22 40 41
f 22 41 42
f 22 42 43
f 22 43 44
f 22 44 45
f 22 45 23
f 23 45 24
f 24 45 44
f 24 44 25
f 25 46 47
f 25 47 48
f 25 48 49
f 25 49 50
f 25 50 51
f 25 51 52
f 25 52 26
f 25 44 46
f 26 52 27
f 27 52 29
f 27 29 28
f 29 52 53
f 29 53 30
f 30 53 54
f 30 54 55
f 30 55 31
f 31 55 34
f 32 33 56
f 33 57 56
f 33 35 58
f 33 58 57
f 34 55 59
f 34 59 60
f 34 60 61
f 34 61 35
f 35 61 62
f 35 62 63
f 35 63 58
f 36 64 65
f 36 65 37
f 37 65 83
f 37 83 88
f 37 88 85
f 37 85 87
f 37 87 78
f 37 78 77
f 37 77 76
f 37 76 63
f 37 63 81
f 37 81 80
f 37 80 84
f 37 84 72
f 37 72 71
f 37 71 69
f 37 69 49
f 37 49 48
f 37 48 68
f 37 68 67
f 37 67 66
f 37 66 42
f 37 42 41
f 37 41 40
f 37 40 39
f 37 39 38
f 42 66 44
f 42 44 43
f 44 66 67
f 44 67 46
f 46 67 47
f 47 67 68
f 47 68 48
f 49 69 50
f 50 69 53
f 50 53 52
f 50 52 51
f 53 69 70
f 53 70 54
f 54 70 69
f 54 69 71
f 54 71 72
f 54 72 73
f 54 73 74
f 54 74 55
f 55 74 59
f 57 58 76
f 57 76 77
f 57 77 78
f 57 78 75
f 58 63 76
f 59 74 60
f 60 74 73
f 60 73 79
f 60 79 80
f 60 80 81
f 60 81 62
f 60 62 61
f 62 81 63
f 64 82 65
f 65 82 83
f 72 84 73
f 73 84 79
f 75 85 86
f 75 78 87
f 75 87 85
f 79 84 80
f 82 88 83
f 82 89 88
f 85 88 89
f 85 89 90
f 85 90 86
