v 0.039976 -0.065691 0.003515
v 0.042927 -0.067416 0.007062
v 0.039976 -0.065195 0.004654
v 0.039976 -0.065616 0.002804
v 0.043546 -0.068544 0.000590
v 0.052249 -0.076098 0.003441
v 0.052386 -0.075955 0.004763
v 0.043970 -0.068322 0.007062
v 0.043239 -0.067094 0.008314
v 0.039976 -0.059588 0.009869
v 0.039976 -0.065461 0.001892
v 0.043857 -0.068143 -0.000618
v 0.045064 -0.068711 -0.001329
v 0.052381 -0.075995 0.002220
v 0.053555 -0.076861 0.003441
v 0.055927 -0.077783 0.005251
v 0.056222 -0.077580 0.006251
v 0.050672 -0.074012 0.006255
v 0.048736 -0.072438 0.006437
v 0.056170 -0.075923 0.008069
v 0.057177 -0.076114 0.008224
v 0.039976 -0.057621 0.010528
v 0.039976 -0.059191 0.010058
v 0.039976 -0.064809 0.001383
v 0.043438 -0.066935 -0.001243
v 0.044478 -0.067555 -0.001647
v 0.045658 -0.066438 -0.002830
v 0.046283 -0.067531 -0.002532
v 0.050826 -0.072113 -0.001092
v 0.053555 -0.076356 0.001889
v 0.055736 -0.077735 0.002277
v 0.055563 -0.077898 0.003441
v 0.057177 -0.077934 0.003441
v 0.057086 -0.077759 0.005167
v 0.056423 -0.077580 0.006251
v 0.057086 -0.077044 0.006937
v 0.058361 -0.076042 0.008208
v 0.039976 -0.055809 0.010823
v 0.039976 -0.056715 0.010679
v 0.043101 -0.065767 -0.001523
v 0.039976 -0.062163 0.000056
v 0.044537 -0.065807 -0.002482
v 0.045164 -0.065230 -0.002997
v 0.046283 -0.065807 -0.003164
v 0.046865 -0.066899 -0.002987
v 0.048124 -0.068103 -0.002721
v 0.051744 -0.072212 -0.001173
v 0.051744 -0.071199 -0.001738
v 0.057177 -0.077691 0.002336
v 0.052978 -0.072240 -0.001196
v 0.058089 -0.077544 0.002528
v 0.058118 -0.077572 0.003441
v 0.058126 -0.077580 0.004507
v 0.057630 -0.077409 0.005715
v 0.058579 -0.076321 0.007062
v 0.059530 -0.074823 0.005251
v 0.059024 -0.074823 0.007062
v 0.058345 -0.074823 0.008185
v 0.044503 -0.051283 0.010420
v 0.042692 -0.051283 0.010730
v 0.040881 -0.053095 0.010950
v 0.039976 -0.054001 0.010918
v 0.043967 -0.063955 -0.002716
v 0.039976 -0.061169 -0.000390
v 0.039976 -0.058555 -0.001458
v 0.039976 -0.057549 -0.001794
v 0.039976 -0.056715 -0.002064
v 0.044873 -0.063955 -0.003117
v 0.046314 -0.063955 -0.003552
v 0.048124 -0.065767 -0.003495
v 0.048124 -0.067197 -0.003093
v 0.049933 -0.068381 -0.002854
v 0.051744 -0.069387 -0.002519
v 0.057177 -0.076631 0.001710
v 0.053572 -0.071294 -0.001557
v 0.058351 -0.076631 0.002293
v 0.059522 -0.074823 0.003441
v 0.058702 -0.076631 0.003441
v 0.058594 -0.076734 0.005167
v 0.059676 -0.073011 0.003441
v 0.059553 -0.073011 0.005251
v 0.058097 -0.068425 0.006171
v 0.056380 -0.062723 0.006305
v 0.055325 -0.062214 0.007098
v 0.054490 -0.062914 0.007982
v 0.045835 -0.049873 0.010022
v 0.042692 -0.049471 0.010597
v 0.040881 -0.049471 0.010872
v 0.040881 -0.051283 0.010959
v 0.039976 -0.051283 0.010972
v 0.039976 -0.053095 0.010950
v 0.039976 -0.055809 -0.002148
v 0.044659 -0.062143 -0.003212
v 0.048124 -0.063955 -0.003789
v 0.046314 -0.062143 -0.003699
v 0.049933 -0.065767 -0.003513
v 0.049933 -0.067475 -0.003136
v 0.053555 -0.069387 -0.002305
v 0.051744 -0.068238 -0.002859
v 0.055366 -0.070642 -0.001304
v 0.056278 -0.070301 -0.001090
v 0.058754 -0.074823 0.002033
v 0.058831 -0.073011 0.001906
v 0.058102 -0.069717 0.000701
v 0.058083 -0.068509 0.000728
v 0.058344 -0.067579 0.001819
v 0.058214 -0.066152 0.002181
v 0.059352 -0.071199 0.003441
v 0.058666 -0.067579 0.003441
v 0.058230 -0.066220 0.004692
v 0.058349 -0.067726 0.005277
v 0.057927 -0.067217 0.005899
v 0.056160 -0.061515 0.005979
v 0.047326 -0.039327 0.006345
v 0.045569 -0.039331 0.008046
v 0.056324 -0.059330 0.004419
v 0.039976 -0.049471 0.010889
v 0.039976 -0.054903 -0.002090
v 0.046314 -0.060335 -0.003649
v 0.049933 -0.063955 -0.003702
v 0.048124 -0.062143 -0.003873
v 0.051744 -0.065767 -0.003255
v 0.051744 -0.067332 -0.003039
v 0.052774 -0.066955 -0.002939
v 0.053449 -0.067567 -0.002626
v 0.055366 -0.069387 -0.001637
v 0.056321 -0.069387 -0.001125
v 0.058102 -0.070392 0.000701
v 0.056344 -0.067579 -0.001147
v 0.058006 -0.067579 0.000914
v 0.056309 -0.066414 -0.001118
v 0.056216 -0.065207 -0.001025
v 0.056820 -0.065795 -0.000326
v 0.056712 -0.063955 0.000072
v 0.058291 -0.065946 0.003441
v 0.057871 -0.065636 0.001598
v 0.057460 -0.063955 0.001630
v 0.056321 -0.059290 0.002373
v 0.047382 -0.039243 0.005251
v 0.046503 -0.038337 0.005251
v 0.045482 -0.037666 0.006244
v 0.046130 -0.038727 0.006898
v 0.044503 -0.037614 0.006329
v 0.045127 -0.039331 0.008046
v 0.056348 -0.059250 0.003441
v 0.056670 -0.060335 0.003441
v 0.039976 -0.047635 0.010371
v 0.039976 -0.053997 -0.001996
v 0.046314 -0.058523 -0.003471
v 0.048124 -0.060335 -0.003797
v 0.051744 -0.063955 -0.003340
v 0.049933 -0.062143 -0.003726
v 0.052870 -0.065767 -0.002981
v 0.053775 -0.065767 -0.002600
v 0.055366 -0.067579 -0.001750
v 0.055514 -0.065795 -0.001592
v 0.055156 -0.063955 -0.001635
v 0.054909 -0.062143 -0.001481
v 0.056060 -0.063955 -0.000833
v 0.055813 -0.062143 -0.000463
v 0.056452 -0.062143 0.000443
v 0.056299 -0.061142 0.000675
v 0.056940 -0.062143 0.001630
v 0.055819 -0.058618 0.001714
v 0.047330 -0.039339 0.004009
v 0.056459 -0.060458 0.001714
v 0.056118 -0.059934 0.001165
v 0.045586 -0.037578 0.003762
v 0.045598 -0.037582 0.005251
v 0.044503 -0.037344 0.005251
v 0.043189 -0.037622 0.006300
v 0.042628 -0.038468 0.006725
v 0.039976 -0.046666 0.009846
v 0.041436 -0.038977 0.006460
v 0.039976 -0.053095 -0.001860
v 0.046314 -0.056715 -0.003215
v 0.048124 -0.058523 -0.003571
v 0.049933 -0.060335 -0.003591
v 0.052865 -0.063955 -0.002991
v 0.051744 -0.062143 -0.003282
v 0.053769 -0.063955 -0.002541
v 0.053644 -0.062143 -0.002386
v 0.052653 -0.061233 -0.002898
v 0.054679 -0.060641 -0.001282
v 0.054458 -0.059437 -0.001083
v 0.055399 -0.060287 -0.000204
v 0.054936 -0.058523 0.000071
v 0.054645 -0.057247 0.000454
v 0.047091 -0.039883 0.002803
v 0.045384 -0.037709 0.002556
v 0.044670 -0.037419 0.003272
v 0.042630 -0.037407 0.003353
v 0.042628 -0.037423 0.005356
v 0.041982 -0.037769 0.006030
v 0.039976 -0.041584 0.006622
v 0.040229 -0.039962 0.005803
v 0.039976 -0.040825 0.006122
v 0.039976 -0.051208 -0.001523
v 0.046314 -0.055499 -0.002979
v 0.048124 -0.056715 -0.003232
v 0.049054 -0.055785 -0.002905
v 0.050072 -0.058388 -0.003219
v 0.051736 -0.060510 -0.003103
v 0.051127 -0.058904 -0.003026
v 0.052739 -0.062143 -0.002940
v 0.052334 -0.060025 -0.002744
v 0.053339 -0.058523 -0.001615
v 0.053555 -0.060335 -0.002013
v 0.052967 -0.057096 -0.001342
v 0.054244 -0.058523 -0.000835
v 0.053648 -0.056568 -0.000291
v 0.045883 -0.038913 0.002226
v 0.052597 -0.055889 -0.001037
v 0.044670 -0.038429 0.002099
v 0.044177 -0.037590 0.002429
v 0.043191 -0.037590 0.002429
v 0.041984 -0.037809 0.002691
v 0.041587 -0.037555 0.003897
v 0.041587 -0.037555 0.004823
v 0.039976 -0.039200 0.004695
v 0.039976 -0.040173 0.005580
v 0.039976 -0.050345 -0.001291
v 0.046314 -0.054593 -0.002761
v 0.048124 -0.055551 -0.002972
v 0.050768 -0.057696 -0.002876
v 0.049447 -0.056715 -0.003011
v 0.048124 -0.054645 -0.002684
v 0.049046 -0.050357 -0.001100
v 0.051736 -0.058388 -0.002584
v 0.051893 -0.056580 -0.001812
v 0.042630 -0.038492 0.002139
v 0.046314 -0.053095 -0.002353
v 0.041394 -0.039017 0.002291
v 0.040187 -0.039811 0.002804
v 0.040887 -0.038560 0.003351
v 0.039976 -0.039200 0.003917
v 0.039976 -0.049992 -0.001180
v 0.039976 -0.040928 0.002370
v 0.039976 -0.048688 -0.000680
v 0.039976 -0.040010 0.003006
v 0.039976 -0.039517 0.003510
f 1 2 3
f 1 3 10
f 1 10 23
f 1 23 22
f 1 22 39
f 1 39 38
f 1 38 62
f 1 62 91
f 1 91 90
f 1 90 117
f 1 117 147
f 1 147 173
f 1 173 195
f 1 195 197
f 1 197 221
f 1 221 220
f 1 220 236
f 1 236 241
f 1 241 240
f 1 240 238
f 1 238 239
f 1 239 237
f 1 237 222
f 1 222 198
f 1 198 175
f 1 175 148
f 1 148 118
f 1 118 92
f 1 92 67
f 1 67 66
f 1 66 65
f 1 65 64
f 1 64 41
f 1 41 24
f 1 24 11
f 1 11 4
f 1 4 5
f 1 5 6
f 1 6 7
f 1 7 8
f 1 8 2
f 2 9 3
f 2 8 9
f 3 9 10
f 4 11 5
f 5 12 13
f 5 13 14
f 5 14 6
f 5 11 12
f 6 14 15
f 6 15 7
f 7 15 16
f 7 16 17
f 7 17 18
f 7 18 19
f 7 19 8
f 8 19 9
f 9 19 18
f 9 18 20
f 9 20 21
f 9 21 22
f 9 22 23
f 9 23 10
f 11 24 25
f 11 25 12
f 12 25 13
f 13 25 26
f 13 26 27
f 13 27 28
f 13 28 29
f 13 29 30
f 13 30 14
f 14 30 31
f 14 31 32
f 14 32 15
f 15 32 16
f 16 32 33
f 16 33 34
f 16 34 35
f 16 35 17
f 17 35 21
f 17 21 20
f 17 20 18
f 21 35 36
f 21 36 37
f 21 37 38
f 21 38 39
f 21 39 22
f 24 40 25
f 24 41 40
f 25 40 42
f 25 42 26
f 26 42 27
f 27 42 43
f 27 43 44
f 27 44 45
f 27 45 28
f 28 46 29
f 28 45 46
f 29 47 31
f 29 31 30
f 29 46 48
f 29 48 47
f 31 49 33
f 31 33 32
f 31 47 50
f 31 50 49
f 33 49 51
f 33 51 52
f 33 52 53
f 33 53 34
f 34 53 54
f 34 54 35
f 35 54 37
f 35 37 36
f 37 54 53
f 37 53 55
f 37 55 56
f 37 56 57
f 37 57 58
f 37 58 59
f 37 59 60
f 37 60 61
f 37 61 38
f 38 61 62
f 40 63 42
f 40 41 64
f 40 64 65
f 40 65 66
f 40 66 67
f 40 67 63
f 42 63 43
f 43 63 68
f 43 68 69
f 43 69 44
f 44 70 45
f 44 69 70
f 45 70 71
f 45 71 46
f 46 71 72
f 46 72 48
f 47 48 50
f 48 72 73
f 48 73 50
f 49 50 74
f 49 74 51
f 50 73 75
f 50 75 74
f 51 74 76
f 51 76 77
f 51 77 78
f 51 78 52
f 52 78 53
f 53 78 79
f 53 79 55
f 55 79 56
f 56 78 77
f 56 77 80
f 56 80 81
f 56 81 57
f 56 79 78
f 57 81 82
f 57 82 58
f 58 82 83
f 58 83 84
f 58 84 85
f 58 85 86
f 58 86 59
f 59 86 87
f 59 87 60
f 60 87 88
f 60 88 89
f 60 89 61
f 61 89 90
f 61 90 91
f 61 91 62
f 63 67 68
f 67 92 93
f 67 93 68
f 68 93 69
f 69 94 70
f 69 93 95
f 69 95 94
f 70 96 97
f 70 97 71
f 70 94 96
f 71 97 72
f 72 97 73
f 73 98 75
f 73 97 99
f 73 99 98
f 74 75 100
f 74 100 101
f 74 101 76
f 75 98 100
f 76 102 77
f 76 101 102
f 77 102 80
f 80 102 103
f 80 103 104
f 80 104 105
f 80 105 106
f 80 106 107
f 80 107 108
f 80 108 81
f 81 108 109
f 81 109 110
f 81 110 111
f 81 111 82
f 82 111 112
f 82 112 83
f 83 113 114
f 83 114 115
f 83 115 84
f 83 112 116
f 83 116 113
f 84 115 85
f 85 115 86
f 86 115 87
f 87 115 88
f 88 115 117
f 88 117 89
f 89 117 90
f 92 118 119
f 92 119 95
f 92 95 93
f 94 120 96
f 94 95 121
f 94 121 120
f 95 119 121
f 96 122 123
f 96 123 99
f 96 99 97
f 96 120 122
f 98 99 124
f 98 124 125
f 98 125 126
f 98 126 101
f 98 101 100
f 99 123 124
f 101 126 127
f 101 127 128
f 101 128 102
f 102 128 103
f 103 128 104
f 104 128 129
f 104 129 105
f 105 130 106
f 105 129 131
f 105 131 132
f 105 132 133
f 105 133 134
f 105 134 130
f 106 130 107
f 107 135 109
f 107 109 108
f 107 130 136
f 107 136 137
f 107 137 138
f 107 138 135
f 109 135 110
f 110 112 111
f 110 135 116
f 110 116 112
f 113 116 114
f 114 116 139
f 114 139 140
f 114 140 141
f 114 141 142
f 114 142 115
f 115 142 141
f 115 141 143
f 115 143 144
f 115 144 117
f 116 145 139
f 116 135 146
f 116 146 145
f 117 144 147
f 118 148 149
f 118 149 119
f 119 150 121
f 119 149 150
f 120 151 122
f 120 121 152
f 120 152 151
f 121 150 152
f 122 153 124
f 122 124 123
f 122 151 153
f 124 153 125
f 125 153 154
f 125 154 126
f 126 154 155
f 126 155 127
f 127 155 129
f 127 129 128
f 129 155 156
f 129 156 131
f 130 134 136
f 131 156 157
f 131 157 132
f 132 157 158
f 132 158 159
f 132 159 134
f 132 134 133
f 134 159 160
f 134 160 161
f 134 161 136
f 135 138 146
f 136 161 137
f 137 161 162
f 137 162 163
f 137 163 138
f 138 164 165
f 138 165 139
f 138 139 145
f 138 145 146
f 138 163 166
f 138 166 167
f 138 167 164
f 139 165 140
f 140 165 168
f 140 168 169
f 140 169 141
f 141 169 170
f 141 170 143
f 143 170 171
f 143 171 144
f 144 171 172
f 144 172 147
f 147 172 174
f 147 174 173
f 148 175 176
f 148 176 149
f 149 176 177
f 149 177 150
f 150 178 152
f 150 177 178
f 151 179 153
f 151 152 180
f 151 180 179
f 152 178 180
f 153 179 154
f 154 179 181
f 154 181 155
f 155 181 156
f 156 181 157
f 157 181 182
f 157 182 158
f 158 182 183
f 158 183 184
f 158 184 159
f 159 184 160
f 160 184 185
f 160 185 186
f 160 186 162
f 160 162 161
f 162 186 187
f 162 187 167
f 162 167 163
f 163 167 166
f 164 188 165
f 164 167 188
f 165 189 190
f 165 190 168
f 165 188 189
f 167 187 188
f 168 190 191
f 168 191 170
f 168 170 169
f 170 191 192
f 170 192 193
f 170 193 171
f 171 193 194
f 171 194 172
f 172 194 174
f 173 174 195
f 174 194 196
f 174 196 197
f 174 197 195
f 175 198 176
f 176 199 200
f 176 200 177
f 176 198 199
f 177 200 201
f 177 201 202
f 177 202 178
f 178 203 180
f 178 202 204
f 178 204 203
f 179 180 205
f 179 205 181
f 180 203 183
f 180 183 205
f 181 205 183
f 181 183 182
f 183 203 204
f 183 204 206
f 183 206 207
f 183 207 208
f 183 208 184
f 184 208 185
f 185 208 207
f 185 207 209
f 185 209 210
f 185 210 187
f 185 187 186
f 187 210 188
f 188 210 211
f 188 211 189
f 189 212 190
f 189 211 213
f 189 213 212
f 190 214 215
f 190 215 191
f 190 212 214
f 191 215 216
f 191 216 192
f 192 216 217
f 192 217 218
f 192 218 219
f 192 219 193
f 193 219 194
f 194 219 220
f 194 220 196
f 196 220 221
f 196 221 197
f 198 222 223
f 198 223 199
f 199 224 200
f 199 223 224
f 200 224 201
f 201 225 226
f 201 226 202
f 201 224 227
f 201 227 214
f 201 214 228
f 201 228 225
f 202 226 225
f 202 225 204
f 204 225 206
f 206 225 229
f 206 229 207
f 207 229 209
f 209 230 228
f 209 228 213
f 209 213 210
f 209 229 230
f 210 213 211
f 212 213 228
f 212 228 214
f 214 231 216
f 214 216 215
f 214 227 224
f 214 224 232
f 214 232 231
f 216 231 217
f 217 231 233
f 217 233 234
f 217 234 235
f 217 235 218
f 218 235 236
f 218 236 220
f 218 220 219
f 222 232 223
f 222 237 231
f 222 231 232
f 223 232 224
f 225 228 229
f 228 230 229
f 231 237 233
f 233 238 234
f 233 237 239
f 233 239 238
f 234 240 241
f 234 241 236
f 234 236 235
f 234 238 240
