v -0.066575 0.064619 0.001629
v -0.065740 0.064619 0.003069
v -0.065735 0.066197 0.003110
v -0.065841 0.066197 0.002925
v -0.066527 0.066197 0.001629
v -0.066020 0.064619 -0.000181
v -0.066302 0.062807 0.001629
v -0.065601 0.062807 0.002976
v -0.064153 0.062807 0.003555
v -0.064356 0.066197 0.003639
v -0.066455 0.066197 0.001398
v -0.065172 0.063373 -0.001164
v -0.065688 0.062785 -0.000310
v -0.065918 0.066197 -0.000181
v -0.065126 0.066197 -0.001123
v -0.065185 0.064619 -0.001165
v -0.065448 0.061361 0.000208
v -0.065569 0.061221 0.001629
v -0.065351 0.061536 0.002762
v -0.062428 0.057358 0.003209
v -0.062343 0.059187 0.003748
v -0.064153 0.066197 0.003709
v -0.060532 0.057375 0.004120
v -0.064717 0.062165 -0.000999
v -0.064153 0.064619 -0.001221
v -0.064129 0.062785 -0.001200
v -0.061681 0.058000 -0.001218
v -0.064994 0.066197 -0.001131
v -0.062395 0.057368 -0.000213
v -0.062255 0.056949 -0.000069
v -0.063412 0.057945 0.000480
v -0.063052 0.056949 0.001549
v -0.063064 0.056949 0.001629
v -0.063407 0.057950 0.002716
v -0.062298 0.056949 0.003156
v -0.060504 0.056949 0.004082
v -0.062267 0.066197 0.003040
v -0.058721 0.056949 0.004200
v -0.058078 0.056949 0.004149
v -0.058078 0.057051 0.004132
v -0.058078 0.057329 0.004083
v -0.062952 0.059187 -0.000815
v -0.064153 0.066197 -0.001167
v -0.063139 0.066197 -0.001130
v -0.060652 0.059019 -0.001187
v -0.060532 0.057873 -0.001190
v -0.060509 0.056949 -0.000947
v -0.060532 0.056949 -0.000939
v -0.061963 0.056949 -0.000266
v -0.061533 0.066197 0.002389
v -0.058078 0.059159 0.003179
v -0.058078 0.056949 -0.000890
v -0.063023 0.066197 -0.001084
v -0.058078 0.057214 -0.000841
v -0.059611 0.058303 -0.001092
v -0.058407 0.056949 -0.000939
v -0.058851 0.056949 -0.000944
v -0.059611 0.058018 -0.001092
v -0.061137 0.066197 0.001669
v -0.058078 0.060097 0.001615
v -0.062235 0.066197 -0.000643
v -0.058078 0.057390 -0.000807
v -0.061095 0.066197 0.000440
v -0.058078 0.060078 0.001518
v -0.061095 0.066197 0.000263
v -0.058078 0.058532 -0.000405
v -0.058078 0.059088 -0.000095
f 1 2 3
f 1 3 4
f 1 4 5
f 1 5 6
f 1 6 7
f 1 7 8
f 1 8 2
f 2 8 9
f 2 9 10
f 2 10 3
f 3 10 22
f 3 22 37
f 3 37 50
f 3 50 59
f 3 59 63
f 3 63 65
f 3 65 61
f 3 61 53
f 3 53 44
f 3 44 43
f 3 43 28
f 3 28 15
f 3 15 14
f 3 14 11
f 3 11 5
f 3 5 4
f 5 11 6
f 6 12 13
f 6 13 7
f 6 11 14
f 6 14 15
f 6 15 16
f 6 16 12
f 7 13 17
f 7 17 18
f 7 18 19
f 7 19 8
f 8 19 20
f 8 20 21
f 8 21 9
f 9 22 10
f 9 21 23
f 9 23 22
f 12 24 13
f 12 16 25
f 12 25 26
f 12 26 27
f 12 27 24
f 13 24 17
f 15 28 16
f 16 28 25
f 17 24 29
f 17 29 30
f 17 30 31
f 17 31 32
f 17 32 33
f 17 33 18
f 18 33 34
f 18 34 19
f 19 34 35
f 19 35 20
f 20 35 36
f 20 36 21
f 21 36 23
f 22 23 38
f 22 38 39
f 22 39 40
f 22 40 41
f 22 41 37
f 23 36 38
f 24 27 42
f 24 42 29
f 25 28 43
f 25 43 44
f 25 44 45
f 25 45 27
f 25 27 26
f 27 45 46
f 27 46 47
f 27 47 48
f 27 48 49
f 27 49 30
f 27 30 29
f 27 29 42
f 30 32 31
f 30 49 48
f 30 48 47
f 30 47 57
f 30 57 56
f 30 56 52
f 30 52 39
f 30 39 38
f 30 38 36
f 30 36 35
f 30 35 33
f 30 33 32
f 33 35 34
f 37 41 51
f 37 51 50
f 39 52 54
f 39 54 62
f 39 62 66
f 39 66 67
f 39 67 64
f 39 64 60
f 39 60 51
f 39 51 41
f 39 41 40
f 44 53 54
f 44 54 52
f 44 52 55
f 44 55 45
f 45 55 46
f 46 56 57
f 46 57 47
f 46 55 58
f 46 58 56
f 50 51 59
f 51 60 59
f 52 56 55
f 53 61 62
f 53 62 54
f 55 56 58
f 59 60 63
f 60 64 65
f 60 65 63
f 61 65 66
f 61 66 62
f 64 67 65
f 65 67 66
