v -0.063064 0.056946 0.001630
v -0.062291 0.056946 0.003154
v -0.058074 0.060090 0.001615
v -0.063047 0.056946 0.001550
v -0.063022 0.056865 0.001630
v -0.061543 0.054467 0.002732
v -0.059872 0.052491 0.004554
v -0.061846 0.055545 0.002977
v -0.060493 0.056946 0.004081
v -0.044800 0.066197 0.004083
v -0.046178 0.066197 0.003197
v -0.046329 0.066197 0.003086
v -0.046959 0.066197 0.002526
v -0.059897 0.053741 0.004543
v -0.047035 0.066197 0.002100
v -0.047085 0.066197 0.001686
v -0.047077 0.066197 0.000555
v -0.058074 0.060070 0.001519
v -0.062249 0.056946 -0.000068
v -0.061787 0.055545 0.000406
v -0.061434 0.054648 0.000723
v -0.062199 0.055545 0.001630
v -0.052378 0.040146 0.002517
v -0.052378 0.040146 0.002549
v -0.003559 -0.035980 0.004444
v -0.060056 0.052239 0.003438
v -0.058712 0.053741 0.004751
v -0.002501 -0.036746 0.005227
v -0.002467 -0.036746 0.005264
v -0.001846 -0.036242 0.006281
v -0.001022 -0.036746 0.006481
v -0.021580 -0.003288 0.006158
v -0.043708 0.066197 0.004453
v -0.043826 0.066197 0.004432
v -0.044615 0.066197 0.004164
v -0.046060 0.066197 -0.000042
v -0.061955 0.056946 -0.000265
v -0.014514 -0.017961 0.000598
v -0.057855 0.049146 0.000670
v -0.014716 -0.018334 0.001630
v -0.016270 -0.016127 0.002279
v -0.019841 -0.010614 0.002413
v -0.019841 -0.010614 0.002698
v -0.003559 -0.035980 0.004113
v -0.002896 -0.036746 0.003480
v -0.019992 -0.005324 0.006232
v -0.046035 0.035642 0.005255
v -0.016312 0.018963 0.006219
v -0.042288 0.066197 0.004488
v -0.000880 -0.036746 0.006517
v -0.045808 0.066197 -0.000138
v -0.060527 0.056946 -0.000939
v -0.020479 -0.007813 0.000249
v -0.014775 -0.016852 0.000421
v -0.013447 -0.016852 0.000054
v -0.000779 -0.036746 0.001550
v -0.000821 -0.036746 0.001564
v -0.002148 -0.036746 0.002186
v -0.002173 -0.036746 0.002215
v -0.003349 -0.035657 0.002907
v -0.002871 -0.036746 0.003413
v 0.010084 -0.027726 0.007089
v 0.001027 -0.036746 0.006693
v -0.015901 0.018963 0.006219
v -0.041532 0.066197 0.004429
v -0.044229 0.066197 -0.000632
v -0.060502 0.056946 -0.000946
v -0.018891 -0.007813 -0.000245
v -0.013447 -0.015049 0.000033
v 0.015519 -0.036746 0.001561
v 0.001027 -0.036746 0.001255
v 0.000994 -0.036746 0.001256
v 0.017334 -0.036746 0.007223
v 0.019140 -0.036746 0.007227
v 0.021215 -0.036746 0.006792
v -0.041322 0.066076 0.004415
v -0.041146 0.066197 0.004222
v -0.043994 0.066197 -0.000642
v -0.058712 0.055545 -0.000994
v -0.003442 -0.005062 0.000719
v -0.056906 0.053741 -0.000980
v -0.042423 0.064615 -0.000694
v 0.017292 -0.036746 0.001688
v 0.022761 -0.036746 0.005251
v -0.040499 0.066197 0.003702
v -0.042423 0.066197 -0.000585
v -0.056906 0.055545 -0.000975
v -0.006920 0.003061 0.000663
v 0.019258 -0.036746 0.002055
v 0.022282 -0.036746 0.004150
v -0.039692 0.065532 0.000715
v -0.039902 0.066197 0.001243
v -0.039785 0.066197 0.001630
v -0.039499 0.065834 0.002868
v -0.040037 0.066197 0.003227
v -0.042187 0.066197 -0.000520
v 0.020459 -0.036746 0.002436
v 0.021862 -0.036746 0.003419
v -0.040532 0.066197 0.000314
v 0.021442 -0.036746 0.003043
v -0.040608 0.066197 0.000261
v -0.040608 0.064615 -0.000180
v -0.040566 0.066197 0.000286
f 1 2 3
f 1 3 4
f 1 4 5
f 1 5 6
f 1 6 7
f 1 7 8
f 1 8 2
f 2 9 10
f 2 10 11
f 2 11 12
f 2 12 13
f 2 13 3
f 2 8 7
f 2 7 14
f 2 14 9
f 3 13 15
f 3 15 16
f 3 16 17
f 3 17 18
f 3 18 4
f 4 18 19
f 4 19 20
f 4 20 21
f 4 21 5
f 5 21 22
f 5 22 6
f 6 23 24
f 6 24 25
f 6 25 26
f 6 26 7
f 6 22 23
f 7 27 14
f 7 26 25
f 7 25 28
f 7 28 29
f 7 29 30
f 7 30 31
f 7 31 32
f 7 32 27
f 9 14 27
f 9 27 33
f 9 33 34
f 9 34 35
f 9 35 10
f 10 35 34
f 10 34 33
f 10 33 49
f 10 49 65
f 10 65 77
f 10 77 85
f 10 85 95
f 10 95 93
f 10 93 92
f 10 92 99
f 10 99 103
f 10 103 101
f 10 101 96
f 10 96 86
f 10 86 78
f 10 78 66
f 10 66 51
f 10 51 36
f 10 36 17
f 10 17 16
f 10 16 15
f 10 15 13
f 10 13 12
f 10 12 11
f 17 36 37
f 17 37 19
f 17 19 18
f 19 37 38
f 19 38 20
f 20 38 39
f 20 39 21
f 21 39 38
f 21 38 40
f 21 40 41
f 21 41 22
f 22 41 42
f 22 42 23
f 23 42 43
f 23 43 24
f 24 43 25
f 25 43 42
f 25 42 44
f 25 44 45
f 25 45 28
f 27 32 46
f 27 46 47
f 27 47 48
f 27 48 49
f 27 49 33
f 28 45 61
f 28 61 59
f 28 59 58
f 28 58 57
f 28 57 56
f 28 56 72
f 28 72 71
f 28 71 70
f 28 70 83
f 28 83 89
f 28 89 97
f 28 97 100
f 28 100 98
f 28 98 90
f 28 90 84
f 28 84 75
f 28 75 74
f 28 74 73
f 28 73 63
f 28 63 50
f 28 50 31
f 28 31 29
f 29 31 30
f 31 50 32
f 32 50 46
f 36 51 52
f 36 52 37
f 37 52 53
f 37 53 38
f 38 53 54
f 38 54 55
f 38 55 56
f 38 56 57
f 38 57 58
f 38 58 59
f 38 59 60
f 38 60 61
f 38 61 40
f 40 61 45
f 40 45 44
f 40 44 41
f 41 44 42
f 46 62 48
f 46 48 47
f 46 50 63
f 46 63 62
f 48 62 64
f 48 64 49
f 49 64 65
f 51 66 52
f 52 66 67
f 52 67 68
f 52 68 53
f 53 68 54
f 54 68 55
f 55 68 69
f 55 69 70
f 55 70 71
f 55 71 72
f 55 72 56
f 59 61 60
f 62 63 73
f 62 73 74
f 62 74 64
f 64 74 75
f 64 75 76
f 64 76 65
f 65 76 77
f 66 78 67
f 67 79 68
f 67 78 79
f 68 80 70
f 68 70 69
f 68 79 81
f 68 81 82
f 68 82 80
f 70 80 83
f 75 84 85
f 75 85 77
f 75 77 76
f 78 86 82
f 78 82 79
f 79 87 81
f 79 82 87
f 80 88 83
f 80 82 88
f 81 87 82
f 82 86 83
f 82 83 88
f 83 86 89
f 84 90 91
f 84 91 92
f 84 92 93
f 84 93 94
f 84 94 95
f 84 95 85
f 86 96 89
f 89 96 97
f 90 98 91
f 91 99 92
f 91 98 100
f 91 100 99
f 93 95 94
f 96 101 102
f 96 102 97
f 97 102 101
f 97 101 103
f 97 103 100
f 99 100 103
