v -0.055099 0.078701 0.001630
v -0.053289 0.078302 0.002856
v -0.052413 0.078256 0.002684
v -0.053289 0.078464 0.001630
v -0.055099 0.078645 -0.000181
v -0.056977 0.078547 0.001735
v -0.056022 0.078203 0.004350
v -0.055983 0.078203 0.004350
v -0.052413 0.077989 0.002958
v -0.052413 0.078334 0.001630
v -0.054776 0.078001 0.004087
v -0.053321 0.078400 -0.000083
v -0.052413 0.078305 0.000858
v -0.052413 0.078288 0.000415
v -0.055099 0.078292 -0.001183
v -0.056740 0.078491 -0.000214
v -0.053947 0.078318 -0.001212
v -0.058190 0.078377 0.000368
v -0.058190 0.078377 0.001202
v -0.056428 0.077295 0.004538
v -0.055268 0.077356 0.004601
v -0.061483 0.076424 0.002570
v -0.062189 0.075353 0.002802
v -0.063685 0.073673 0.002928
v -0.053834 0.076793 0.004514
v -0.052413 0.077400 0.003524
v -0.052413 0.077924 -0.000053
v -0.055099 0.077295 -0.001296
v -0.065224 0.071275 -0.001228
v -0.061465 0.074601 -0.001096
v -0.056022 0.078204 -0.001090
v -0.053756 0.077295 -0.001240
v -0.052413 0.077341 -0.000480
v -0.052413 0.076720 -0.000760
v -0.052413 0.075487 -0.000928
v -0.061621 0.076539 0.000531
v -0.060531 0.077119 0.001630
v -0.056552 0.076141 0.004598
v -0.064279 0.071954 0.003354
v -0.064153 0.070052 0.003795
v -0.055099 0.076032 0.004662
v -0.061610 0.076528 0.001630
v -0.062515 0.075701 0.001630
v -0.063318 0.074661 0.002600
v -0.065275 0.071409 0.002956
v -0.053834 0.076162 0.004514
v -0.052413 0.075508 0.003908
v -0.063138 0.066198 -0.001129
v -0.064153 0.066198 -0.001167
v -0.064153 0.070052 -0.001298
v -0.065226 0.070052 -0.001221
v -0.065918 0.066198 -0.000181
v -0.065713 0.070052 -0.000181
v -0.065299 0.071873 -0.000032
v -0.065071 0.072790 0.000671
v -0.063434 0.074786 0.000469
v -0.062148 0.075296 -0.000104
v -0.053857 0.076097 -0.001166
v -0.052413 0.074623 -0.000631
v -0.064153 0.066430 0.003723
v -0.065441 0.070052 0.003132
v -0.065596 0.068242 0.003133
v -0.065734 0.066430 0.003116
v -0.064153 0.066198 0.003709
v -0.063441 0.074796 0.001630
v -0.064433 0.073505 0.001501
v -0.064967 0.072616 0.002017
v -0.065329 0.071954 0.001501
v -0.065929 0.070052 0.001630
v -0.066277 0.068242 0.001630
v -0.052413 0.073978 0.003055
v -0.062266 0.066198 0.003040
v -0.063022 0.066198 -0.001084
v -0.064993 0.066198 -0.001131
v -0.065126 0.066198 -0.001124
v -0.066455 0.066198 0.001398
v -0.066519 0.066430 0.001630
v -0.065071 0.072790 0.000811
v -0.052413 0.073598 -0.000096
v -0.064357 0.066198 0.003639
v -0.066527 0.066198 0.001630
v -0.065842 0.066198 0.002925
v -0.065734 0.066198 0.003110
v -0.052413 0.073050 0.001803
v -0.061533 0.066198 0.002389
v -0.062233 0.066198 -0.000643
v -0.052413 0.073080 0.000283
v -0.052413 0.072702 0.000917
v -0.061229 0.066198 0.001838
v -0.061136 0.066198 0.001670
v -0.061095 0.066198 0.000263
v -0.052413 0.072702 0.000643
v -0.061095 0.066198 0.000439
f 1 2 3
f 1 3 4
f 1 4 5
f 1 5 6
f 1 6 7
f 1 7 8
f 1 8 2
f 2 8 3
f 3 9 26
f 3 26 47
f 3 47 71
f 3 71 84
f 3 84 88
f 3 88 92
f 3 92 87
f 3 87 79
f 3 79 59
f 3 59 35
f 3 35 34
f 3 34 33
f 3 33 27
f 3 27 14
f 3 14 13
f 3 13 10
f 3 10 4
f 3 8 11
f 3 11 9
f 4 12 5
f 4 10 13
f 4 13 14
f 4 14 12
f 5 15 16
f 5 16 6
f 5 12 17
f 5 17 15
f 6 16 18
f 6 18 19
f 6 19 7
f 7 20 21
f 7 21 8
f 7 19 22
f 7 22 23
f 7 23 24
f 7 24 20
f 8 21 25
f 8 25 11
f 9 11 26
f 11 25 26
f 12 14 17
f 14 27 17
f 15 17 28
f 15 28 29
f 15 29 30
f 15 30 31
f 15 31 16
f 16 31 18
f 17 32 28
f 17 27 33
f 17 33 34
f 17 34 35
f 17 35 32
f 18 31 36
f 18 36 19
f 19 36 37
f 19 37 22
f 20 38 21
f 20 24 39
f 20 39 40
f 20 40 38
f 21 38 41
f 21 41 25
f 22 37 42
f 22 42 43
f 22 43 44
f 22 44 23
f 23 44 24
f 24 44 45
f 24 45 39
f 25 41 46
f 25 46 47
f 25 47 26
f 28 32 48
f 28 48 49
f 28 49 50
f 28 50 29
f 29 50 51
f 29 51 52
f 29 52 53
f 29 53 54
f 29 54 55
f 29 55 56
f 29 56 36
f 29 36 57
f 29 57 30
f 30 57 36
f 30 36 31
f 32 58 48
f 32 35 58
f 35 59 48
f 35 48 58
f 36 56 43
f 36 43 42
f 36 42 37
f 38 40 60
f 38 60 41
f 39 45 40
f 40 45 61
f 40 61 62
f 40 62 63
f 40 63 60
f 41 60 64
f 41 64 46
f 43 56 65
f 43 65 44
f 44 65 66
f 44 66 67
f 44 67 45
f 45 68 69
f 45 69 70
f 45 70 61
f 45 67 68
f 46 64 47
f 47 64 72
f 47 72 71
f 48 73 86
f 48 86 91
f 48 91 93
f 48 93 90
f 48 90 89
f 48 89 85
f 48 85 72
f 48 72 64
f 48 64 80
f 48 80 83
f 48 83 82
f 48 82 81
f 48 81 76
f 48 76 52
f 48 52 75
f 48 75 74
f 48 74 49
f 48 59 73
f 49 74 50
f 50 74 75
f 50 75 51
f 51 75 52
f 52 76 53
f 53 76 77
f 53 77 70
f 53 70 69
f 53 69 54
f 54 69 55
f 55 69 78
f 55 78 65
f 55 65 56
f 59 79 73
f 60 63 80
f 60 80 64
f 61 70 77
f 61 77 62
f 62 77 63
f 63 77 81
f 63 81 82
f 63 82 83
f 63 83 80
f 65 78 66
f 66 78 67
f 67 78 68
f 68 78 69
f 71 72 85
f 71 85 84
f 73 79 86
f 76 81 77
f 79 87 86
f 84 85 89
f 84 89 90
f 84 90 88
f 86 87 92
f 86 92 91
f 88 90 93
f 88 93 91
f 88 91 92
