v -0.011692 -0.028734 -0.000525
v -0.014781 -0.033498 0.000484
v -0.018832 -0.030833 0.000651
v -0.021272 -0.022535 0.000386
v -0.016040 -0.024153 -0.000233
v -0.005831 -0.021829 0.000289
v 0.007871 -0.021829 0.000915
v -0.003604 -0.032242 0.000324
v -0.004989 -0.037894 0.001848
v -0.012074 -0.037410 0.001757
v -0.017949 -0.037549 0.003163
v -0.023152 -0.032576 0.003024
v -0.022007 -0.027554 0.001054
v -0.027670 -0.023155 0.003253
v -0.032068 -0.023102 0.006753
v -0.040035 -0.022346 0.019327
v -0.041442 -0.021978 0.024483
v 0.027229 -0.021829 0.042937
v -0.043196 -0.021948 0.036465
v 0.007885 -0.027242 0.001458
v 0.019112 -0.022422 0.007540
v 0.011908 -0.022479 0.002168
v 0.000278 -0.034642 0.001312
v 0.002314 -0.038640 0.003385
v -0.004890 -0.041915 0.004109
v -0.008935 -0.041378 0.003789
v -0.012986 -0.041716 0.004547
v -0.017836 -0.041302 0.005570
v -0.021795 -0.040519 0.006718
v -0.023520 -0.036896 0.005278
v -0.029084 -0.033147 0.007282
v -0.028822 -0.028038 0.005035
v -0.033432 -0.027332 0.009196
v -0.035723 -0.023235 0.010970
v -0.038452 -0.022900 0.015103
v -0.040488 -0.027239 0.022584
v -0.041775 -0.026831 0.028199
v -0.042616 -0.022174 0.030196
v 0.009264 -0.023685 0.066372
v 0.017946 -0.023656 0.059115
v 0.025263 -0.022976 0.047265
v 0.025037 -0.028164 0.044996
v 0.028395 -0.022780 0.038810
v 0.029031 -0.023089 0.029389
v 0.028416 -0.022681 0.024720
v -0.021576 -0.022349 0.067500
v -0.042404 -0.026874 0.035032
v -0.042609 -0.024378 0.040320
v -0.041563 -0.024481 0.045080
v -0.040071 -0.024501 0.049213
v -0.032661 -0.022489 0.060284
v 0.004194 -0.034595 0.002203
v 0.012028 -0.028512 0.003378
v 0.019261 -0.028002 0.009265
v 0.016341 -0.026977 0.005870
v 0.015902 -0.022883 0.004596
v 0.021671 -0.023069 0.010831
v 0.008288 -0.036654 0.004610
v 0.004640 -0.042077 0.006600
v -0.000783 -0.043135 0.005710
v -0.006453 -0.045064 0.006823
v -0.011246 -0.044772 0.006858
v -0.015248 -0.044484 0.007435
v -0.020360 -0.043907 0.009147
v -0.025252 -0.040698 0.009342
v -0.031438 -0.035935 0.011436
v -0.034358 -0.031264 0.012181
v -0.038303 -0.026802 0.016558
v -0.037787 -0.032215 0.019244
v -0.039222 -0.033236 0.024427
v -0.040417 -0.032049 0.028213
v -0.000839 -0.024222 0.070144
v 0.003982 -0.025144 0.068773
v 0.009151 -0.027896 0.065364
v 0.014488 -0.024136 0.062330
v -0.016393 -0.022890 0.069392
v 0.016574 -0.028721 0.058802
v 0.020590 -0.024239 0.055413
v 0.023036 -0.024786 0.050960
v 0.025475 -0.031549 0.040689
v 0.027462 -0.027939 0.037530
v 0.022336 -0.031456 0.048601
v 0.023998 -0.032338 0.044475
v 0.028402 -0.026838 0.032464
v 0.028042 -0.027170 0.027420
v 0.025991 -0.027375 0.020009
v 0.026960 -0.023294 0.020419
v -0.027790 -0.023089 0.063840
v -0.023322 -0.027571 0.065141
v -0.040580 -0.032437 0.033571
v -0.041343 -0.030375 0.038268
v -0.040141 -0.030922 0.043354
v -0.038197 -0.030441 0.049652
v -0.038084 -0.024494 0.053131
v -0.035185 -0.024537 0.057194
v -0.031085 -0.026427 0.060750
v 0.015054 -0.033694 0.007804
v 0.018752 -0.032072 0.010907
v 0.021643 -0.028426 0.012661
v 0.024139 -0.024312 0.014992
v 0.012028 -0.038587 0.008354
v 0.003919 -0.046718 0.011388
v 0.007892 -0.043579 0.009954
v -0.001306 -0.048280 0.011360
v -0.005951 -0.048313 0.010594
v -0.011968 -0.048167 0.010740
v -0.016909 -0.046771 0.010546
v -0.021873 -0.046195 0.013329
v -0.027684 -0.041905 0.012995
v -0.030689 -0.041510 0.016822
v -0.033828 -0.036674 0.015813
v -0.035786 -0.037589 0.021421
v -0.038692 -0.035978 0.029584
v -0.008793 -0.024395 0.070561
v -0.004198 -0.030740 0.068432
v 0.002887 -0.029447 0.067715
v 0.009716 -0.032043 0.063213
v -0.018465 -0.031522 0.065412
v -0.012477 -0.026480 0.069218
v 0.017458 -0.035341 0.053590
v 0.018787 -0.030955 0.054856
v 0.013025 -0.035185 0.058523
v 0.023368 -0.036054 0.041566
v 0.024726 -0.035593 0.037113
v 0.026613 -0.032381 0.031017
v 0.019452 -0.036346 0.049436
v 0.021396 -0.036919 0.045240
v 0.025708 -0.031983 0.024045
v 0.023587 -0.031791 0.018081
v -0.027967 -0.029205 0.062058
v -0.024644 -0.033846 0.061752
v -0.037837 -0.037784 0.034691
v -0.038388 -0.036087 0.039221
v -0.035397 -0.039515 0.043751
v -0.036288 -0.034738 0.049011
v -0.035518 -0.029699 0.054536
v -0.031481 -0.031482 0.058155
v 0.016341 -0.041892 0.017413
v 0.021919 -0.036979 0.020273
v 0.011448 -0.041653 0.010977
v 0.008818 -0.047690 0.017260
v 0.004279 -0.049944 0.017337
v 0.011286 -0.044239 0.014101
v -0.003660 -0.051340 0.015917
v -0.009811 -0.051545 0.015994
v -0.014796 -0.050232 0.014832
v -0.025676 -0.046277 0.017539
v -0.020748 -0.049695 0.018603
v -0.034309 -0.040745 0.023947
v -0.029791 -0.044156 0.020259
v -0.035595 -0.040649 0.029980
v -0.008729 -0.035338 0.066066
v -0.003151 -0.036733 0.065405
v 0.003615 -0.034927 0.064883
v 0.008132 -0.035775 0.062044
v -0.019844 -0.038683 0.061049
v -0.015128 -0.038461 0.062956
v -0.013283 -0.031516 0.066992
v 0.016044 -0.038925 0.052240
v 0.012212 -0.039919 0.055392
v 0.020781 -0.040881 0.040411
v 0.022972 -0.039591 0.034441
v 0.023340 -0.037933 0.026181
v 0.018052 -0.041136 0.046284
v -0.028448 -0.034015 0.059205
v -0.024177 -0.038335 0.059108
v -0.035376 -0.041215 0.036361
v -0.032562 -0.043297 0.042624
v -0.032569 -0.041679 0.046353
v -0.033807 -0.038378 0.049081
v -0.030208 -0.037625 0.054669
v 0.018469 -0.042392 0.021721
v 0.013202 -0.046897 0.021644
v 0.006605 -0.051031 0.023356
v 0.001062 -0.052248 0.020468
v -0.004325 -0.053206 0.020065
v -0.009373 -0.053425 0.020294
v -0.015361 -0.051983 0.019070
v -0.024934 -0.048770 0.022625
v -0.019603 -0.051472 0.022062
v -0.029437 -0.046148 0.025332
v -0.031594 -0.045326 0.032263
v -0.007945 -0.040629 0.062991
v 0.000285 -0.039760 0.062991
v 0.005156 -0.039578 0.061056
v 0.008239 -0.040947 0.057661
v -0.022212 -0.042362 0.056666
v -0.012858 -0.044345 0.058767
v 0.014736 -0.043131 0.048517
v 0.008111 -0.043983 0.054272
v 0.020229 -0.043072 0.034176
v 0.016857 -0.044312 0.042352
v 0.016595 -0.045883 0.037989
v 0.020979 -0.041607 0.027538
v -0.026249 -0.042826 0.053172
v -0.032407 -0.044557 0.036737
v -0.029339 -0.046629 0.041274
v -0.028801 -0.045048 0.046806
v -0.030017 -0.040698 0.051732
v 0.016765 -0.045439 0.025777
v 0.011420 -0.049500 0.027684
v 0.002286 -0.053551 0.027030
v -0.004297 -0.055036 0.026946
v -0.008630 -0.055235 0.026745
v -0.012498 -0.054389 0.024713
v -0.017694 -0.053113 0.025847
v -0.023159 -0.050640 0.025729
v -0.026334 -0.049264 0.029145
v -0.026327 -0.049526 0.035248
v -0.005562 -0.043864 0.060166
v 0.001225 -0.043732 0.058962
v 0.003989 -0.045296 0.055782
v -0.022700 -0.046171 0.051969
v -0.018076 -0.046231 0.054613
v -0.013742 -0.048064 0.054091
v -0.007832 -0.047809 0.055573
v 0.011321 -0.045667 0.048691
v 0.011858 -0.047836 0.043132
v 0.004414 -0.047504 0.052150
v 0.015881 -0.046990 0.032464
v 0.012028 -0.049288 0.037774
v 0.012353 -0.049566 0.032924
v -0.024078 -0.047700 0.048399
v -0.026397 -0.049155 0.039645
v -0.026192 -0.048180 0.044182
v 0.005453 -0.052964 0.033049
v -0.001956 -0.055195 0.030961
v -0.005923 -0.055689 0.034232
v -0.011649 -0.055447 0.035150
v -0.012894 -0.055052 0.029973
v -0.018352 -0.053405 0.029897
v -0.023223 -0.051340 0.030683
v -0.021823 -0.052115 0.036792
v -0.003519 -0.050166 0.052045
v 0.000426 -0.047504 0.054738
v -0.019999 -0.049215 0.049443
v -0.015898 -0.050057 0.050459
v -0.011550 -0.051472 0.049596
v -0.007839 -0.050189 0.052317
v 0.005679 -0.050110 0.046061
v 0.006874 -0.051230 0.041663
v 0.001621 -0.050189 0.049415
v 0.008642 -0.051429 0.036521
v -0.022127 -0.050677 0.043827
v 0.004279 -0.053060 0.038678
v -0.000634 -0.054863 0.036813
v -0.007273 -0.055404 0.038567
v -0.014018 -0.054724 0.039228
v -0.016457 -0.054316 0.034788
v -0.018288 -0.053527 0.038727
v -0.001744 -0.052453 0.046722
v -0.006403 -0.052732 0.047606
v -0.016980 -0.052460 0.044614
v -0.010504 -0.054413 0.042902
v 0.002349 -0.052357 0.043744
v -0.003597 -0.054406 0.042074
f 1 2 3
f 1 3 4
f 1 4 5
f 1 5 6
f 1 6 7
f 1 7 8
f 1 8 2
f 2 8 9
f 2 9 10
f 2 10 11
f 2 11 3
f 3 11 12
f 3 12 13
f 3 13 4
f 4 13 14
f 4 14 15
f 4 15 16
f 4 16 17
f 4 17 6
f 4 6 5
f 6 18 7
f 6 17 19
f 6 19 18
f 7 20 8
f 7 18 21
f 7 21 22
f 7 22 20
f 8 20 23
f 8 23 9
f 9 23 24
f 9 24 25
f 9 25 26
f 9 26 10
f 10 26 27
f 10 27 11
f 11 28 29
f 11 29 30
f 11 30 12
f 11 27 28
f 12 30 31
f 12 31 32
f 12 32 13
f 13 32 14
f 14 32 15
f 15 32 33
f 15 33 34
f 15 34 35
f 15 35 16
f 16 35 36
f 16 36 17
f 17 36 37
f 17 37 38
f 17 38 19
f 18 39 40
f 18 40 41
f 18 41 42
f 18 42 43
f 18 43 44
f 18 44 45
f 18 45 21
f 18 19 46
f 18 46 39
f 19 38 47
f 19 47 48
f 19 48 49
f 19 49 50
f 19 50 51
f 19 51 46
f 20 52 23
f 20 22 53
f 20 53 52
f 21 54 55
f 21 55 56
f 21 56 22
f 21 45 57
f 21 57 54
f 22 56 53
f 23 52 24
f 24 52 58
f 24 58 59
f 24 59 60
f 24 60 25
f 25 61 26
f 25 60 61
f 26 62 27
f 26 61 62
f 27 62 63
f 27 63 28
f 28 64 29
f 28 63 64
f 29 64 65
f 29 65 30
f 30 65 31
f 31 66 67
f 31 67 33
f 31 33 32
f 31 65 66
f 33 67 34
f 34 67 35
f 35 67 68
f 35 68 36
f 36 68 69
f 36 69 70
f 36 70 71
f 36 71 37
f 37 47 38
f 37 71 47
f 39 72 73
f 39 73 74
f 39 74 75
f 39 75 40
f 39 46 76
f 39 76 72
f 40 75 77
f 40 77 78
f 40 78 41
f 41 78 79
f 41 79 42
f 42 80 81
f 42 81 43
f 42 79 82
f 42 82 83
f 42 83 80
f 43 81 84
f 43 84 44
f 44 84 85
f 44 85 45
f 45 85 86
f 45 86 87
f 45 87 57
f 46 51 88
f 46 88 89
f 46 89 76
f 47 71 90
f 47 90 91
f 47 91 48
f 48 91 92
f 48 92 49
f 49 92 93
f 49 93 50
f 50 93 94
f 50 94 51
f 51 94 95
f 51 95 96
f 51 96 88
f 52 53 58
f 53 56 55
f 53 55 97
f 53 97 58
f 54 98 97
f 54 97 55
f 54 57 99
f 54 99 98
f 57 87 100
f 57 100 99
f 58 97 101
f 58 101 59
f 59 102 60
f 59 101 103
f 59 103 102
f 60 104 61
f 60 102 104
f 61 104 105
f 61 105 106
f 61 106 62
f 62 106 63
f 63 106 107
f 63 107 64
f 64 108 65
f 64 107 108
f 65 108 109
f 65 109 66
f 66 109 110
f 66 110 111
f 66 111 67
f 67 69 68
f 67 111 69
f 69 111 112
f 69 112 70
f 70 113 71
f 70 112 113
f 71 113 90
f 72 114 115
f 72 115 116
f 72 116 73
f 72 76 114
f 73 116 74
f 74 117 77
f 74 77 75
f 74 116 117
f 76 89 118
f 76 118 119
f 76 119 114
f 77 120 121
f 77 121 78
f 77 117 122
f 77 122 120
f 78 121 82
f 78 82 79
f 80 83 123
f 80 123 124
f 80 124 81
f 81 124 125
f 81 125 84
f 82 121 120
f 82 120 126
f 82 126 127
f 82 127 83
f 83 127 123
f 84 125 85
f 85 125 128
f 85 128 86
f 86 128 129
f 86 129 99
f 86 99 100
f 86 100 87
f 88 96 130
f 88 130 89
f 89 131 118
f 89 130 131
f 90 113 132
f 90 132 91
f 91 132 133
f 91 133 92
f 92 133 134
f 92 134 135
f 92 135 93
f 93 135 136
f 93 136 94
f 94 136 95
f 95 136 137
f 95 137 96
f 96 137 130
f 97 98 101
f 98 138 101
f 98 99 129
f 98 129 139
f 98 139 138
f 101 138 140
f 101 140 103
f 102 103 141
f 102 141 142
f 102 142 104
f 103 143 141
f 103 140 143
f 104 144 105
f 104 142 144
f 105 144 145
f 105 145 106
f 106 145 146
f 106 146 107
f 107 146 108
f 108 147 109
f 108 146 148
f 108 148 147
f 109 147 110
f 110 149 112
f 110 112 111
f 110 147 150
f 110 150 149
f 112 149 113
f 113 149 151
f 113 151 132
f 114 119 152
f 114 152 115
f 115 153 116
f 115 152 153
f 116 154 117
f 116 153 154
f 117 154 155
f 117 155 122
f 118 131 156
f 118 156 157
f 118 157 158
f 118 158 119
f 119 158 152
f 120 122 159
f 120 159 126
f 122 160 159
f 122 155 160
f 123 127 161
f 123 161 124
f 124 161 162
f 124 162 125
f 125 162 163
f 125 163 128
f 126 159 164
f 126 164 127
f 127 164 161
f 128 163 139
f 128 139 129
f 130 137 165
f 130 165 131
f 131 166 156
f 131 165 166
f 132 151 167
f 132 167 133
f 133 167 134
f 134 167 168
f 134 168 169
f 134 169 170
f 134 170 135
f 135 170 171
f 135 171 136
f 136 171 137
f 137 171 165
f 138 139 172
f 138 172 173
f 138 173 143
f 138 143 140
f 139 163 172
f 141 174 142
f 141 143 173
f 141 173 174
f 142 174 175
f 142 175 144
f 144 175 176
f 144 176 145
f 145 177 178
f 145 178 146
f 145 176 177
f 146 178 148
f 147 148 179
f 147 179 150
f 148 180 179
f 148 178 180
f 149 150 181
f 149 181 182
f 149 182 151
f 150 179 181
f 151 182 167
f 152 158 157
f 152 157 183
f 152 183 153
f 153 184 154
f 153 183 184
f 154 185 155
f 154 184 185
f 155 186 160
f 155 185 186
f 156 166 187
f 156 187 188
f 156 188 157
f 157 188 183
f 159 160 189
f 159 189 164
f 160 186 190
f 160 190 189
f 161 191 162
f 161 164 192
f 161 192 193
f 161 193 191
f 162 191 194
f 162 194 163
f 163 194 172
f 164 189 192
f 165 171 166
f 166 171 195
f 166 195 187
f 167 182 196
f 167 196 168
f 168 196 197
f 168 197 198
f 168 198 169
f 169 198 199
f 169 199 170
f 170 199 171
f 171 199 195
f 172 200 173
f 172 194 200
f 173 200 201
f 173 201 174
f 174 202 175
f 174 201 202
f 175 203 176
f 175 202 203
f 176 203 204
f 176 204 177
f 177 205 178
f 177 204 205
f 178 205 206
f 178 206 180
f 179 180 207
f 179 207 208
f 179 208 181
f 180 206 207
f 181 208 182
f 182 208 209
f 182 209 196
f 183 210 184
f 183 188 210
f 184 210 211
f 184 211 185
f 185 211 212
f 185 212 186
f 186 212 190
f 187 195 213
f 187 213 214
f 187 214 188
f 188 214 215
f 188 215 216
f 188 216 210
f 189 190 217
f 189 217 218
f 189 218 192
f 190 212 219
f 190 219 217
f 191 193 220
f 191 220 200
f 191 200 194
f 192 218 193
f 193 218 221
f 193 221 222
f 193 222 220
f 195 199 198
f 195 198 223
f 195 223 213
f 196 209 224
f 196 224 197
f 197 224 225
f 197 225 198
f 198 225 223
f 200 220 222
f 200 222 201
f 201 222 226
f 201 226 202
f 202 226 227
f 202 227 203
f 203 228 204
f 203 227 228
f 204 228 229
f 204 229 230
f 204 230 205
f 205 230 206
f 206 230 231
f 206 231 232
f 206 232 207
f 207 232 208
f 208 232 209
f 209 232 233
f 209 233 224
f 210 216 234
f 210 234 235
f 210 235 211
f 211 235 212
f 212 235 219
f 213 223 236
f 213 236 214
f 214 236 237
f 214 237 215
f 215 237 238
f 215 238 239
f 215 239 216
f 216 239 234
f 217 219 240
f 217 240 218
f 218 240 241
f 218 241 221
f 219 235 242
f 219 242 240
f 221 241 243
f 221 243 222
f 222 243 226
f 223 244 236
f 223 225 244
f 224 233 244
f 224 244 225
f 226 243 245
f 226 245 246
f 226 246 227
f 227 246 228
f 228 247 229
f 228 246 247
f 229 248 249
f 229 249 230
f 229 247 248
f 230 249 231
f 231 233 232
f 231 249 233
f 233 249 250
f 233 250 244
f 234 251 242
f 234 242 235
f 234 239 252
f 234 252 251
f 236 244 253
f 236 253 237
f 237 253 238
f 238 253 254
f 238 254 252
f 238 252 239
f 240 242 255
f 240 255 241
f 241 255 245
f 241 245 243
f 242 251 255
f 244 250 253
f 245 255 256
f 245 256 246
f 246 256 247
f 247 256 254
f 247 254 248
f 248 253 250
f 248 250 249
f 248 254 253
f 251 252 256
f 251 256 255
f 252 254 256
