v -0.093633 0.086633 0.009830
v -0.093606 0.086446 0.008837
v -0.093599 0.085315 0.008846
v -0.093619 0.085211 0.009884
v -0.093526 0.085683 0.010715
v -0.093526 0.086473 0.010715
v -0.093159 0.087437 0.009830
v -0.092619 0.085315 0.008455
v -0.092345 0.088235 0.009830
v -0.092065 0.087957 0.008919
v -0.092612 0.086966 0.008718
v -0.092539 0.083824 0.008727
v -0.093472 0.084448 0.008973
v -0.093472 0.084448 0.009381
v -0.093386 0.084608 0.010460
v -0.092258 0.083692 0.010879
v -0.092752 0.085211 0.010966
v -0.090998 0.086931 0.011556
v -0.092732 0.086979 0.010978
v -0.092272 0.088179 0.010887
v -0.090638 0.089774 0.011002
v -0.090998 0.085315 0.008271
v -0.090998 0.083692 0.008190
v -0.091405 0.089046 0.009830
v -0.090591 0.089719 0.009830
v -0.090277 0.089420 0.008991
v -0.090998 0.086931 0.008562
v -0.090978 0.082139 0.008569
v -0.090424 0.081009 0.008789
v -0.091945 0.082722 0.008882
v -0.088396 0.078207 0.009830
v -0.089070 0.079019 0.009830
v -0.090564 0.080822 0.009830
v -0.091378 0.081848 0.009830
v -0.091912 0.082742 0.010731
v -0.085348 0.076397 0.012264
v -0.086769 0.078838 0.012195
v -0.090998 0.085315 0.011511
v -0.090998 0.083692 0.011377
v -0.089377 0.086931 0.011919
v -0.089377 0.088554 0.011940
v -0.091104 0.088651 0.011237
v -0.089377 0.090031 0.011279
v -0.089444 0.089934 0.009713
v -0.090031 0.089420 0.008991
v -0.089377 0.083692 0.008126
v -0.089377 0.082077 0.008037
v -0.087809 0.078797 0.008377
v -0.088857 0.079303 0.008731
v -0.087302 0.077652 0.008682
v -0.087589 0.077354 0.009830
v -0.087449 0.077507 0.011103
v -0.088957 0.079150 0.011043
v -0.090457 0.080933 0.010877
v -0.085735 0.076016 0.011448
v -0.083741 0.074768 0.012276
v -0.051357 0.045650 0.015504
v -0.057720 0.052217 0.015447
v -0.075529 0.068416 0.013785
v -0.077104 0.070142 0.013768
v -0.076023 0.069497 0.014051
v -0.077477 0.071224 0.013969
v -0.085595 0.077223 0.012334
v -0.077731 0.072361 0.014013
v -0.085962 0.078838 0.012405
v -0.087756 0.080454 0.012047
v -0.082900 0.082077 0.013211
v -0.078865 0.074761 0.013877
v -0.086142 0.085315 0.012584
v -0.088163 0.086931 0.012178
v -0.087356 0.086931 0.012338
v -0.087236 0.087909 0.012308
v -0.087769 0.088491 0.012030
v -0.086555 0.087909 0.012308
v -0.087756 0.089816 0.011196
v -0.087756 0.089816 0.010138
v -0.087756 0.088720 0.009328
v -0.086862 0.087805 0.008999
v -0.081286 0.077223 0.007867
v -0.086142 0.080454 0.007925
v -0.086142 0.078838 0.007799
v -0.086209 0.077153 0.008337
v -0.085715 0.076051 0.008682
v -0.086816 0.076543 0.009830
v -0.086008 0.075752 0.009830
v -0.029038 0.022648 0.014685
v -0.084921 0.075212 0.011448
v -0.028764 0.022918 0.015563
v -0.041718 0.035872 0.015563
v -0.026850 0.023251 0.016998
v -0.025776 0.022682 0.017243
v -0.058194 0.053298 0.015668
v -0.061375 0.056669 0.015634
v -0.062456 0.057293 0.015371
v -0.064457 0.060046 0.015568
v -0.071574 0.067507 0.015074
v -0.074809 0.070746 0.014626
v -0.073188 0.069123 0.014866
v -0.078738 0.073679 0.013850
v -0.081286 0.080454 0.013509
v -0.081286 0.082077 0.013515
v -0.076430 0.073984 0.014383
v -0.082900 0.083692 0.013185
v -0.084521 0.085315 0.012851
v -0.085475 0.087694 0.012209
v -0.084521 0.086654 0.012532
v -0.086796 0.089483 0.010892
v -0.083387 0.086341 0.012442
v -0.086796 0.089483 0.010435
v -0.086289 0.088429 0.009832
v -0.085782 0.087312 0.009230
v -0.084034 0.085884 0.009104
v -0.082220 0.084428 0.009047
v -0.081286 0.083249 0.008935
v -0.074809 0.073984 0.007995
v -0.074809 0.072361 0.007729
v -0.082900 0.077223 0.007734
v -0.081286 0.075600 0.007668
v -0.084521 0.077223 0.007758
v -0.082900 0.075600 0.007794
v -0.084554 0.075544 0.008386
v -0.085141 0.074948 0.009830
v -0.025623 0.021226 0.010542
v -0.026703 0.021711 0.010929
v -0.027317 0.021164 0.012008
v -0.028338 0.021691 0.013066
v -0.025503 0.019305 0.014685
v -0.025503 0.019700 0.015554
v -0.025503 0.020553 0.016129
v -0.025503 0.021705 0.016878
v -0.025503 0.022551 0.017284
v -0.026290 0.023799 0.017364
v -0.028891 0.026011 0.017187
v -0.065037 0.061162 0.015616
v -0.067445 0.063693 0.015480
v -0.065951 0.061793 0.015511
v -0.069813 0.066002 0.015279
v -0.068799 0.065538 0.015460
v -0.069179 0.066620 0.015500
v -0.073188 0.070746 0.014910
v -0.074809 0.072361 0.014667
v -0.078951 0.079705 0.013891
v -0.078818 0.079705 0.013891
v -0.082873 0.085385 0.012719
v -0.082353 0.085925 0.011448
v -0.081159 0.083824 0.012940
v -0.081619 0.084892 0.012577
v -0.085061 0.087971 0.010309
v -0.081359 0.085121 0.011448
v -0.078778 0.082957 0.010514
v -0.083307 0.086439 0.010184
v -0.081586 0.084941 0.010127
v -0.079812 0.083249 0.009916
v -0.080452 0.082902 0.009011
v -0.073188 0.072361 0.007928
v -0.073188 0.070746 0.007656
v -0.076430 0.072361 0.007644
v -0.074809 0.070746 0.007620
v -0.079665 0.073984 0.007679
v -0.078044 0.072361 0.007716
v -0.071574 0.067507 0.007686
v -0.069953 0.065891 0.007757
v -0.042759 0.039554 0.009089
v -0.025503 0.023057 0.009905
v -0.025503 0.022211 0.010165
v -0.026196 0.022225 0.010336
v -0.025503 0.021164 0.010529
v -0.025503 0.021032 0.010627
v -0.025503 0.020380 0.011245
v -0.026150 0.020657 0.011512
v -0.025503 0.019590 0.012053
v -0.025596 0.019631 0.012096
v -0.025503 0.019492 0.012233
v -0.025503 0.019194 0.013066
v -0.025503 0.019222 0.013553
v -0.025503 0.023806 0.017476
v -0.029458 0.027127 0.017257
v -0.033794 0.032363 0.017147
v -0.069179 0.066731 0.015500
v -0.077097 0.078173 0.013944
v -0.069106 0.066731 0.015500
v -0.066191 0.064969 0.015473
v -0.064230 0.063506 0.015513
v -0.078878 0.082853 0.012160
v -0.079952 0.083373 0.012688
v -0.080545 0.084448 0.011448
v -0.026937 0.031226 0.013066
v -0.026963 0.031198 0.012119
v -0.028531 0.031281 0.010533
v -0.079372 0.082403 0.009434
v -0.078778 0.082957 0.011080
v -0.078811 0.081328 0.008995
v -0.071574 0.070746 0.007890
v -0.071574 0.069123 0.007623
v -0.069953 0.067507 0.007619
v -0.073188 0.069123 0.007653
v -0.068332 0.065891 0.007674
v -0.041678 0.039166 0.009015
v -0.045280 0.042099 0.008943
v -0.027871 0.025428 0.009770
v -0.025503 0.023813 0.009821
v -0.025503 0.021573 0.010375
v -0.025503 0.025415 0.017403
v -0.026256 0.025428 0.017482
v -0.033794 0.032869 0.017147
v -0.056259 0.056932 0.015469
v -0.065097 0.063818 0.015566
v -0.033260 0.032869 0.017147
v -0.057340 0.057383 0.015644
v -0.032180 0.032467 0.017074
v -0.026977 0.027932 0.017146
v -0.079518 0.083533 0.011551
v -0.036609 0.039367 0.015611
v -0.025663 0.029284 0.015197
v -0.025503 0.029430 0.014694
v -0.025503 0.029707 0.014204
v -0.054558 0.055386 0.015506
v -0.040824 0.042855 0.015767
v -0.039917 0.042487 0.015547
v -0.026123 0.030394 0.013066
v -0.025503 0.029756 0.013066
v -0.025503 0.029589 0.012321
v -0.025503 0.029541 0.012187
v -0.025503 0.029111 0.011659
v -0.025503 0.028174 0.010719
v -0.027450 0.030636 0.011040
v -0.025503 0.028001 0.010568
v -0.025503 0.027654 0.010430
v -0.054425 0.055524 0.008928
v -0.068332 0.067507 0.007871
v -0.041571 0.040872 0.009008
v -0.025503 0.024673 0.009739
v -0.025503 0.026462 0.017180
v -0.026363 0.026954 0.017255
v -0.027871 0.028292 0.017234
v -0.025896 0.027432 0.016878
v -0.025503 0.027301 0.016710
v -0.025503 0.027814 0.016347
v -0.025503 0.028341 0.015971
v -0.028404 0.031385 0.015738
v -0.025503 0.029180 0.015110
v -0.025503 0.026975 0.010194
v -0.025503 0.026288 0.009970
v -0.048161 0.048826 0.009040
v -0.053845 0.054463 0.008812
v -0.043506 0.043659 0.009091
v -0.044586 0.044311 0.008956
v -0.025503 0.025428 0.009844
f 1 2 3
f 1 3 4
f 1 4 5
f 1 5 6
f 1 6 7
f 1 7 2
f 2 8 3
f 2 7 9
f 2 9 10
f 2 10 11
f 2 11 8
f 3 8 12
f 3 12 13
f 3 13 4
f 4 13 14
f 4 14 15
f 4 15 5
f 5 15 16
f 5 16 17
f 5 17 18
f 5 18 6
f 6 18 19
f 6 19 20
f 6 20 7
f 7 20 21
f 7 21 9
f 8 11 22
f 8 22 23
f 8 23 12
f 9 21 24
f 9 24 10
f 10 24 25
f 10 25 26
f 10 26 11
f 11 26 27
f 11 27 22
f 12 23 28
f 12 28 13
f 13 28 29
f 13 29 30
f 13 30 31
f 13 31 32
f 13 32 33
f 13 33 14
f 14 33 34
f 14 34 35
f 14 35 15
f 15 35 16
f 16 35 36
f 16 36 37
f 16 37 17
f 17 38 18
f 17 37 39
f 17 39 38
f 18 40 41
f 18 41 19
f 18 38 40
f 19 41 20
f 20 41 42
f 20 42 21
f 21 43 44
f 21 44 25
f 21 25 24
f 21 42 41
f 21 41 43
f 22 27 26
f 22 26 45
f 22 45 46
f 22 46 47
f 22 47 23
f 23 47 28
f 25 44 26
f 26 44 45
f 28 47 48
f 28 48 29
f 29 48 49
f 29 49 31
f 29 31 30
f 31 50 51
f 31 51 52
f 31 52 53
f 31 53 32
f 31 49 50
f 32 53 33
f 33 53 54
f 33 54 34
f 34 54 35
f 35 54 36
f 36 52 55
f 36 55 56
f 36 56 57
f 36 57 58
f 36 58 59
f 36 59 60
f 36 60 61
f 36 61 62
f 36 62 63
f 36 63 37
f 36 54 53
f 36 53 52
f 37 63 62
f 37 62 64
f 37 64 65
f 37 65 66
f 37 66 39
f 38 67 40
f 38 39 66
f 38 66 65
f 38 65 68
f 38 68 67
f 40 67 69
f 40 69 70
f 40 70 41
f 41 70 69
f 41 69 71
f 41 71 72
f 41 72 73
f 41 73 43
f 43 73 74
f 43 74 75
f 43 75 76
f 43 76 44
f 44 76 45
f 45 76 77
f 45 77 78
f 45 78 46
f 46 78 79
f 46 79 80
f 46 80 81
f 46 81 47
f 47 81 48
f 48 81 82
f 48 82 50
f 48 50 49
f 50 82 83
f 50 83 84
f 50 84 51
f 51 84 52
f 52 84 85
f 52 85 86
f 52 86 87
f 52 87 55
f 55 87 88
f 55 88 56
f 56 88 89
f 56 89 57
f 57 89 90
f 57 90 58
f 58 90 91
f 58 91 92
f 58 92 93
f 58 93 94
f 58 94 61
f 58 61 59
f 59 61 60
f 61 94 93
f 61 93 95
f 61 95 96
f 61 96 62
f 62 97 64
f 62 96 98
f 62 98 97
f 64 97 99
f 64 99 65
f 65 99 68
f 67 100 101
f 67 101 69
f 67 68 102
f 67 102 100
f 68 99 97
f 68 97 102
f 69 101 71
f 71 101 72
f 72 74 73
f 72 101 103
f 72 103 104
f 72 104 74
f 74 105 75
f 74 104 103
f 74 103 101
f 74 101 106
f 74 106 105
f 75 107 109
f 75 109 76
f 75 105 108
f 75 108 107
f 76 109 110
f 76 110 78
f 76 78 77
f 78 110 111
f 78 111 112
f 78 112 113
f 78 113 114
f 78 114 115
f 78 115 116
f 78 116 79
f 79 116 117
f 79 117 80
f 80 117 81
f 81 117 118
f 81 118 119
f 81 119 82
f 82 119 120
f 82 120 121
f 82 121 83
f 83 122 85
f 83 85 84
f 83 121 123
f 83 123 124
f 83 124 125
f 83 125 122
f 85 122 126
f 85 126 86
f 86 126 127
f 86 127 128
f 86 128 87
f 87 128 88
f 88 128 129
f 88 129 130
f 88 130 89
f 89 130 90
f 90 130 91
f 91 130 131
f 91 131 132
f 91 132 133
f 91 133 93
f 91 93 92
f 93 133 132
f 93 132 95
f 95 134 135
f 95 135 136
f 95 136 96
f 95 132 134
f 96 136 137
f 96 137 138
f 96 138 139
f 96 139 98
f 97 140 141
f 97 141 102
f 97 98 139
f 97 139 140
f 100 102 101
f 101 102 141
f 101 141 142
f 101 142 143
f 101 143 144
f 101 144 106
f 105 106 108
f 106 144 108
f 107 108 145
f 107 145 109
f 108 144 146
f 108 146 147
f 108 147 145
f 109 148 113
f 109 113 110
f 109 145 149
f 109 149 150
f 109 150 148
f 110 113 112
f 110 112 111
f 113 148 151
f 113 151 152
f 113 152 153
f 113 153 154
f 113 154 114
f 114 154 115
f 115 155 156
f 115 156 116
f 115 154 155
f 116 156 117
f 117 156 118
f 118 156 157
f 118 157 158
f 118 158 159
f 118 159 119
f 119 159 120
f 120 159 160
f 120 160 161
f 120 161 162
f 120 162 163
f 120 163 164
f 120 164 165
f 120 165 166
f 120 166 123
f 120 123 121
f 122 125 126
f 123 166 167
f 123 167 168
f 123 168 124
f 124 168 169
f 124 169 170
f 124 170 125
f 125 170 171
f 125 171 172
f 125 172 173
f 125 173 174
f 125 174 126
f 126 174 175
f 126 175 127
f 127 175 174
f 127 174 173
f 127 173 171
f 127 171 169
f 127 169 168
f 127 168 167
f 127 167 202
f 127 202 165
f 127 165 164
f 127 164 201
f 127 201 232
f 127 232 248
f 127 248 243
f 127 243 242
f 127 242 228
f 127 228 227
f 127 227 225
f 127 225 224
f 127 224 223
f 127 223 222
f 127 222 221
f 127 221 216
f 127 216 215
f 127 215 241
f 127 241 239
f 127 239 238
f 127 238 237
f 127 237 233
f 127 233 203
f 127 203 176
f 127 176 131
f 127 131 130
f 127 130 129
f 127 129 128
f 131 176 132
f 132 176 177
f 132 177 134
f 134 139 138
f 134 138 135
f 134 177 178
f 134 178 139
f 135 138 137
f 135 137 136
f 139 179 140
f 139 178 205
f 139 205 179
f 140 142 141
f 140 179 142
f 142 179 181
f 142 181 143
f 143 180 146
f 143 146 144
f 143 181 182
f 143 182 183
f 143 183 180
f 145 147 184
f 145 184 149
f 146 180 185
f 146 185 147
f 147 185 184
f 148 150 151
f 149 186 150
f 149 184 186
f 150 187 188
f 150 188 189
f 150 189 190
f 150 190 153
f 150 153 152
f 150 152 151
f 150 186 191
f 150 191 187
f 153 190 154
f 154 190 192
f 154 192 193
f 154 193 155
f 155 193 156
f 156 193 194
f 156 194 157
f 157 194 158
f 158 194 195
f 158 195 196
f 158 196 159
f 159 196 161
f 159 161 160
f 161 196 195
f 161 195 197
f 161 197 162
f 162 197 198
f 162 198 199
f 162 199 163
f 163 199 200
f 163 200 164
f 164 200 201
f 165 202 166
f 166 202 167
f 169 171 170
f 171 173 172
f 176 203 204
f 176 204 178
f 176 178 177
f 178 204 205
f 179 205 208
f 179 208 181
f 180 183 206
f 180 206 185
f 181 207 183
f 181 183 182
f 181 208 207
f 183 209 206
f 183 207 208
f 183 208 210
f 183 210 211
f 183 211 209
f 184 191 212
f 184 212 186
f 184 185 213
f 184 213 214
f 184 214 215
f 184 215 216
f 184 216 191
f 185 206 217
f 185 217 211
f 185 211 218
f 185 218 219
f 185 219 213
f 186 212 191
f 187 216 220
f 187 220 188
f 187 191 216
f 188 220 221
f 188 221 222
f 188 222 223
f 188 223 224
f 188 224 225
f 188 225 226
f 188 226 189
f 189 226 225
f 189 225 227
f 189 227 228
f 189 228 229
f 189 229 192
f 189 192 190
f 192 229 230
f 192 230 193
f 193 230 194
f 194 230 195
f 195 230 197
f 197 230 231
f 197 231 232
f 197 232 198
f 198 232 201
f 198 201 200
f 198 200 199
f 203 233 234
f 203 234 235
f 203 235 208
f 203 208 204
f 204 208 205
f 206 209 211
f 206 211 217
f 208 235 210
f 210 235 211
f 211 235 234
f 211 234 233
f 211 233 236
f 211 236 219
f 211 219 218
f 213 219 236
f 213 236 237
f 213 237 238
f 213 238 239
f 213 239 240
f 213 240 214
f 214 240 239
f 214 239 241
f 214 241 215
f 216 221 220
f 228 242 229
f 229 242 243
f 229 243 244
f 229 244 245
f 229 245 230
f 230 245 244
f 230 244 246
f 230 246 247
f 230 247 231
f 231 247 243
f 231 243 248
f 231 248 232
f 233 237 236
f 243 247 246
f 243 246 244
