v 0.054932 -0.052971 0.035081
v 0.052180 -0.054466 0.035067
v 0.054923 -0.058266 0.033146
v 0.057511 -0.056705 0.033085
v 0.059290 -0.054675 0.033020
v 0.056780 -0.050454 0.034924
v 0.056001 -0.047414 0.035026
v 0.051403 -0.059161 0.033102
v 0.053066 -0.058646 0.033238
v 0.053897 -0.044840 0.034954
v 0.051403 -0.041755 0.034535
v 0.054686 -0.060505 0.031781
v 0.057558 -0.059561 0.031410
v 0.059334 -0.057694 0.031764
v 0.062454 -0.053048 0.031433
v 0.060593 -0.052272 0.032877
v 0.061099 -0.056419 0.031229
v 0.061156 -0.049841 0.032699
v 0.056808 -0.047414 0.034821
v 0.055603 -0.045624 0.034838
v 0.051391 -0.064583 0.027872
v 0.051403 -0.063198 0.029663
v 0.051700 -0.061290 0.031512
v 0.051363 -0.036807 0.032283
v 0.053095 -0.040893 0.033736
v 0.051635 -0.039042 0.033402
v 0.052903 -0.062446 0.030372
v 0.054686 -0.062381 0.030055
v 0.057454 -0.061420 0.029898
v 0.060349 -0.058948 0.030215
v 0.063117 -0.055390 0.029980
v 0.064245 -0.053040 0.029704
v 0.063983 -0.049841 0.030454
v 0.062733 -0.049841 0.031621
v 0.062419 -0.057204 0.029700
v 0.061674 -0.047054 0.032071
v 0.059517 -0.044983 0.032767
v 0.056426 -0.044063 0.033863
v 0.054768 -0.042470 0.033805
v 0.051369 -0.067357 0.020434
v 0.052223 -0.066830 0.022754
v 0.052335 -0.065903 0.025340
v 0.053877 -0.064452 0.027715
v 0.059567 -0.042151 0.031648
v 0.051356 -0.034376 0.030778
v 0.056543 -0.062638 0.029103
v 0.058554 -0.062928 0.027489
v 0.060832 -0.060517 0.028414
v 0.062459 -0.058899 0.028359
v 0.063987 -0.057126 0.028025
v 0.065094 -0.055729 0.027489
v 0.065358 -0.054070 0.027988
v 0.066509 -0.051912 0.027019
v 0.065143 -0.049841 0.029195
v 0.063765 -0.046854 0.030236
v 0.062932 -0.044443 0.030198
v 0.061057 -0.043945 0.031584
v 0.051396 -0.066176 0.010765
v 0.051381 -0.067537 0.016995
v 0.053877 -0.067075 0.020349
v 0.051356 -0.043308 0.000227
v 0.055022 -0.066091 0.023679
v 0.054686 -0.065282 0.026016
v 0.056330 -0.064387 0.026824
v 0.062002 -0.042490 0.030099
v 0.060605 -0.040664 0.029997
v 0.051602 -0.032337 0.029195
v 0.051356 -0.030564 0.027711
v 0.060145 -0.062209 0.026947
v 0.057987 -0.064432 0.025187
v 0.061823 -0.061032 0.026514
v 0.063657 -0.058854 0.026865
v 0.065419 -0.057420 0.025337
v 0.066078 -0.055504 0.026016
v 0.066910 -0.054086 0.025323
v 0.067876 -0.051459 0.024395
v 0.066655 -0.048145 0.027012
v 0.064944 -0.046650 0.028919
v 0.064072 -0.044182 0.028957
v 0.063240 -0.042462 0.028905
v 0.051403 -0.064146 0.007224
v 0.053877 -0.064505 0.008043
v 0.053125 -0.066021 0.010632
v 0.051403 -0.067149 0.013877
v 0.051403 -0.062487 0.005269
v 0.053877 -0.066855 0.013877
v 0.053877 -0.067218 0.017115
v 0.056304 -0.066548 0.019540
v 0.051356 -0.040071 0.001134
v 0.053266 -0.043328 0.000674
v 0.055427 -0.045436 0.000790
v 0.053066 -0.045804 0.000247
v 0.052235 -0.055692 0.000902
v 0.051403 -0.060795 0.003788
v 0.057094 -0.066001 0.021099
v 0.057925 -0.065212 0.022775
v 0.062187 -0.040509 0.028653
v 0.051546 -0.028419 0.024941
v 0.051356 -0.027005 0.022775
v 0.062164 -0.038972 0.027172
v 0.062443 -0.062838 0.021679
v 0.061001 -0.064329 0.020229
v 0.063193 -0.061592 0.022798
v 0.064821 -0.059823 0.022805
v 0.065129 -0.060301 0.021157
v 0.066652 -0.058450 0.020161
v 0.066927 -0.055667 0.023740
v 0.067880 -0.053890 0.022775
v 0.068440 -0.051373 0.022723
v 0.068270 -0.049032 0.023699
v 0.067744 -0.046609 0.024395
v 0.066812 -0.045804 0.026016
v 0.065014 -0.043434 0.027367
v 0.063547 -0.039830 0.026340
v 0.053967 -0.062859 0.005951
v 0.054686 -0.065347 0.009834
v 0.056304 -0.062756 0.006613
v 0.056343 -0.064407 0.009012
v 0.055300 -0.065948 0.011632
v 0.053772 -0.061016 0.004157
v 0.057342 -0.065711 0.013440
v 0.056883 -0.066397 0.017115
v 0.058872 -0.065543 0.019540
v 0.051356 -0.037767 0.002168
v 0.058809 -0.044084 0.002673
v 0.060002 -0.045804 0.002700
v 0.056880 -0.048292 0.000759
v 0.054686 -0.047414 0.000373
v 0.056817 -0.050650 0.000684
v 0.056348 -0.052991 0.000858
v 0.054994 -0.054932 0.000984
v 0.056304 -0.058744 0.003263
v 0.064011 -0.038903 0.024446
v 0.063650 -0.037583 0.022478
v 0.053863 -0.028819 0.021908
v 0.051356 -0.026380 0.021024
v 0.063706 -0.062568 0.018820
v 0.063983 -0.061608 0.021157
v 0.061284 -0.064477 0.017920
v 0.065403 -0.060648 0.018732
v 0.066781 -0.058683 0.017920
v 0.067513 -0.057122 0.018732
v 0.067688 -0.055504 0.021157
v 0.068445 -0.053106 0.021219
v 0.069060 -0.049841 0.020349
v 0.068992 -0.047414 0.020349
v 0.068393 -0.046764 0.022618
v 0.067665 -0.044182 0.022775
v 0.066755 -0.044239 0.025142
v 0.065309 -0.041117 0.024992
v 0.056304 -0.061608 0.005361
v 0.057726 -0.062908 0.007603
v 0.057961 -0.061588 0.006173
v 0.058289 -0.064403 0.010670
v 0.056304 -0.060329 0.004225
v 0.060959 -0.064297 0.015624
v 0.059541 -0.065282 0.017115
v 0.051356 -0.034082 0.004000
v 0.060745 -0.042519 0.004437
v 0.061892 -0.045465 0.004058
v 0.060855 -0.048362 0.002779
v 0.061088 -0.051479 0.002966
v 0.061156 -0.053890 0.003417
v 0.059391 -0.055357 0.002959
v 0.060255 -0.057069 0.003990
v 0.059353 -0.058515 0.004307
v 0.057970 -0.059827 0.004549
v 0.065087 -0.039475 0.023007
v 0.065454 -0.038940 0.020509
v 0.064222 -0.037481 0.020386
v 0.051356 -0.025824 0.018585
v 0.063636 -0.062417 0.016425
v 0.065335 -0.060562 0.016309
v 0.067041 -0.057821 0.016190
v 0.067822 -0.055504 0.015497
v 0.068249 -0.054850 0.018732
v 0.068849 -0.052272 0.018732
v 0.069174 -0.048223 0.017115
v 0.069116 -0.050650 0.017115
v 0.068649 -0.045028 0.017920
v 0.068476 -0.045113 0.020264
v 0.067524 -0.042564 0.020349
v 0.066467 -0.041122 0.022027
v 0.066764 -0.042601 0.023505
v 0.059908 -0.061159 0.007077
v 0.060077 -0.062287 0.008783
v 0.061196 -0.062814 0.011451
v 0.062700 -0.062716 0.014689
v 0.051356 -0.028929 0.008445
v 0.051552 -0.032370 0.005300
v 0.061170 -0.040946 0.005767
v 0.062546 -0.042637 0.005873
v 0.063647 -0.044770 0.005887
v 0.063417 -0.047414 0.004744
v 0.063558 -0.049841 0.004611
v 0.063427 -0.052272 0.004733
v 0.062011 -0.055144 0.004423
v 0.061798 -0.057073 0.005160
v 0.060872 -0.059177 0.005951
v 0.066842 -0.040897 0.019540
v 0.066003 -0.039328 0.017920
v 0.064397 -0.037326 0.017920
v 0.051356 -0.025799 0.015231
v 0.063847 -0.061441 0.014085
v 0.065053 -0.060195 0.014453
v 0.064842 -0.059071 0.011451
v 0.065260 -0.057678 0.010076
v 0.067090 -0.055745 0.012440
v 0.067707 -0.053890 0.012260
v 0.068511 -0.053036 0.015514
v 0.068909 -0.048223 0.014689
v 0.068492 -0.045069 0.015535
v 0.068846 -0.050650 0.014689
v 0.067700 -0.042564 0.017115
v 0.061280 -0.060824 0.008060
v 0.062475 -0.060869 0.009663
v 0.063138 -0.061126 0.011570
v 0.051356 -0.027471 0.010516
v 0.062341 -0.038960 0.008667
v 0.051557 -0.030588 0.006893
v 0.063305 -0.041117 0.007640
v 0.065302 -0.045477 0.007483
v 0.065173 -0.047414 0.006606
v 0.065281 -0.049841 0.006477
v 0.063732 -0.055005 0.005962
v 0.065162 -0.052272 0.006634
v 0.063678 -0.057367 0.007408
v 0.062250 -0.059251 0.007388
v 0.066863 -0.040856 0.017115
v 0.065454 -0.038932 0.015320
v 0.063999 -0.037297 0.015347
v 0.051356 -0.026322 0.013130
v 0.064020 -0.059185 0.009766
v 0.065267 -0.055998 0.008510
v 0.066701 -0.054495 0.010045
v 0.067967 -0.051459 0.011451
v 0.068441 -0.051349 0.013106
v 0.068291 -0.049032 0.012130
v 0.068422 -0.046727 0.013157
v 0.067730 -0.044182 0.013068
v 0.067423 -0.042564 0.014689
v 0.064071 -0.038020 0.013068
v 0.063765 -0.038735 0.010898
v 0.063790 -0.039855 0.009380
v 0.065129 -0.041865 0.009537
v 0.066818 -0.044149 0.010639
v 0.066870 -0.045804 0.009725
v 0.066654 -0.047475 0.008756
v 0.067022 -0.049841 0.009155
v 0.066634 -0.052178 0.008763
v 0.065426 -0.054070 0.007640
v 0.066495 -0.041130 0.013826
v 0.065171 -0.039361 0.013068
v 0.067815 -0.046609 0.011451
v 0.066797 -0.042564 0.012314
v 0.065305 -0.040337 0.011652
f 1 2 3
f 1 3 4
f 1 4 5
f 1 5 6
f 1 6 7
f 1 7 2
f 2 8 9
f 2 9 3
f 2 7 10
f 2 10 11
f 2 11 8
f 3 9 12
f 3 12 13
f 3 13 4
f 4 13 14
f 4 14 5
f 5 15 16
f 5 16 6
f 5 14 17
f 5 17 15
f 6 16 18
f 6 18 19
f 6 19 7
f 7 19 20
f 7 20 10
f 8 21 22
f 8 22 23
f 8 23 12
f 8 12 9
f 8 11 24
f 8 24 21
f 10 20 11
f 11 20 25
f 11 25 26
f 11 26 24
f 12 23 27
f 12 27 28
f 12 28 29
f 12 29 13
f 13 30 14
f 13 29 30
f 14 30 17
f 15 17 31
f 15 31 32
f 15 32 33
f 15 33 34
f 15 34 16
f 16 34 18
f 17 30 35
f 17 35 31
f 18 34 36
f 18 36 19
f 19 36 37
f 19 37 20
f 20 37 38
f 20 38 39
f 20 39 25
f 21 40 41
f 21 41 42
f 21 42 43
f 21 43 22
f 21 24 40
f 22 43 27
f 22 27 23
f 24 26 44
f 24 44 45
f 24 45 40
f 25 39 44
f 25 44 26
f 27 43 28
f 28 43 46
f 28 46 29
f 29 46 47
f 29 47 48
f 29 48 30
f 30 48 49
f 30 49 35
f 31 35 50
f 31 50 51
f 31 51 52
f 31 52 32
f 32 52 53
f 32 53 54
f 32 54 33
f 33 54 55
f 33 55 34
f 34 55 36
f 35 49 50
f 36 55 56
f 36 56 57
f 36 57 37
f 37 57 44
f 37 44 38
f 38 44 39
f 40 58 59
f 40 59 60
f 40 60 41
f 40 45 61
f 40 61 58
f 41 60 62
f 41 62 42
f 42 62 63
f 42 63 43
f 43 63 64
f 43 64 46
f 44 57 65
f 44 65 66
f 44 66 67
f 44 67 45
f 45 67 68
f 45 68 99
f 45 99 136
f 45 136 171
f 45 171 203
f 45 203 232
f 45 232 218
f 45 218 189
f 45 189 158
f 45 158 124
f 45 124 89
f 45 89 61
f 46 64 47
f 47 69 48
f 47 64 70
f 47 70 69
f 48 69 71
f 48 71 49
f 49 72 50
f 49 71 72
f 50 72 73
f 50 73 51
f 51 74 52
f 51 73 74
f 52 75 53
f 52 74 75
f 53 76 77
f 53 77 54
f 53 75 76
f 54 77 78
f 54 78 55
f 55 78 79
f 55 79 56
f 56 79 80
f 56 80 65
f 56 65 57
f 58 81 82
f 58 82 83
f 58 83 84
f 58 84 59
f 58 61 85
f 58 85 81
f 59 84 86
f 59 86 87
f 59 87 60
f 60 88 62
f 60 87 88
f 61 89 90
f 61 90 91
f 61 91 92
f 61 92 93
f 61 93 94
f 61 94 85
f 62 95 96
f 62 96 70
f 62 70 64
f 62 64 63
f 62 88 95
f 65 80 97
f 65 97 66
f 66 97 67
f 67 97 68
f 68 98 99
f 68 97 100
f 68 100 98
f 69 70 101
f 69 101 71
f 70 96 102
f 70 102 101
f 71 101 103
f 71 103 72
f 72 104 73
f 72 103 104
f 73 104 105
f 73 105 106
f 73 106 107
f 73 107 74
f 74 107 75
f 75 107 108
f 75 108 76
f 76 109 110
f 76 110 77
f 76 108 109
f 77 110 111
f 77 111 112
f 77 112 78
f 78 112 113
f 78 113 79
f 79 113 80
f 80 113 114
f 80 114 97
f 81 85 115
f 81 115 82
f 82 116 83
f 82 115 117
f 82 117 118
f 82 118 116
f 83 119 86
f 83 86 84
f 83 116 119
f 85 94 120
f 85 120 115
f 86 119 121
f 86 121 122
f 86 122 87
f 87 122 88
f 88 122 123
f 88 123 95
f 89 124 125
f 89 125 90
f 90 125 91
f 91 125 126
f 91 126 127
f 91 127 128
f 91 128 92
f 92 128 93
f 93 128 129
f 93 129 130
f 93 130 131
f 93 131 132
f 93 132 120
f 93 120 94
f 95 123 96
f 96 123 102
f 97 114 100
f 98 100 133
f 98 133 99
f 99 133 134
f 99 134 135
f 99 135 136
f 100 114 133
f 101 137 138
f 101 138 103
f 101 102 137
f 102 123 139
f 102 139 137
f 103 138 104
f 104 138 105
f 105 138 137
f 105 137 140
f 105 140 106
f 106 141 142
f 106 142 143
f 106 143 107
f 106 140 141
f 107 143 108
f 108 144 109
f 108 143 144
f 109 145 110
f 109 144 145
f 110 145 146
f 110 146 147
f 110 147 111
f 111 147 148
f 111 148 149
f 111 149 112
f 112 149 113
f 113 150 114
f 113 149 150
f 114 150 133
f 115 120 151
f 115 151 117
f 116 118 119
f 117 152 118
f 117 151 153
f 117 153 152
f 118 154 119
f 118 152 154
f 119 154 121
f 120 132 155
f 120 155 151
f 121 154 156
f 121 156 157
f 121 157 122
f 122 157 123
f 123 157 139
f 124 158 125
f 125 158 159
f 125 159 126
f 126 159 160
f 126 160 161
f 126 161 127
f 127 161 129
f 127 129 128
f 129 161 162
f 129 162 163
f 129 163 130
f 130 163 164
f 130 164 131
f 131 164 165
f 131 165 166
f 131 166 132
f 132 166 167
f 132 167 155
f 133 150 168
f 133 168 134
f 134 168 169
f 134 169 170
f 134 170 135
f 135 170 136
f 136 170 171
f 137 172 173
f 137 173 140
f 137 139 172
f 139 157 156
f 139 156 172
f 140 173 141
f 141 174 142
f 141 173 174
f 142 174 175
f 142 175 176
f 142 176 143
f 143 176 144
f 144 176 177
f 144 177 145
f 145 178 146
f 145 177 179
f 145 179 178
f 146 180 181
f 146 181 147
f 146 178 180
f 147 181 148
f 148 181 182
f 148 182 183
f 148 183 184
f 148 184 149
f 149 184 150
f 150 183 168
f 150 184 183
f 151 155 167
f 151 167 153
f 152 153 185
f 152 185 186
f 152 186 154
f 153 167 185
f 154 186 187
f 154 187 156
f 156 187 188
f 156 188 172
f 158 189 190
f 158 190 191
f 158 191 159
f 159 191 192
f 159 192 160
f 160 193 194
f 160 194 161
f 160 192 193
f 161 194 195
f 161 195 162
f 162 195 196
f 162 196 163
f 163 196 197
f 163 197 165
f 163 165 164
f 165 198 166
f 165 197 198
f 166 198 199
f 166 199 185
f 166 185 167
f 168 183 169
f 169 183 200
f 169 200 201
f 169 201 202
f 169 202 170
f 170 202 171
f 171 202 203
f 172 188 204
f 172 204 173
f 173 204 205
f 173 205 174
f 174 205 206
f 174 206 207
f 174 207 208
f 174 208 175
f 175 208 209
f 175 209 210
f 175 210 176
f 176 210 177
f 177 210 179
f 178 179 211
f 178 211 212
f 178 212 180
f 179 210 213
f 179 213 211
f 180 212 214
f 180 214 182
f 180 182 181
f 182 214 200
f 182 200 183
f 185 215 186
f 185 199 215
f 186 215 216
f 186 216 187
f 187 216 217
f 187 217 188
f 188 217 204
f 189 218 219
f 189 219 220
f 189 220 190
f 190 220 191
f 191 221 192
f 191 220 219
f 191 219 221
f 192 221 193
f 193 222 223
f 193 223 194
f 193 221 222
f 194 223 195
f 195 223 224
f 195 224 196
f 196 225 197
f 196 224 226
f 196 226 225
f 197 225 198
f 198 227 228
f 198 228 199
f 198 225 227
f 199 228 215
f 200 214 229
f 200 229 201
f 201 230 202
f 201 229 230
f 202 230 231
f 202 231 203
f 203 231 232
f 204 217 205
f 205 217 206
f 206 217 233
f 206 233 207
f 207 233 227
f 207 227 234
f 207 234 235
f 207 235 208
f 208 235 209
f 209 235 236
f 209 236 237
f 209 237 210
f 210 237 213
f 211 213 238
f 211 238 239
f 211 239 212
f 212 239 240
f 212 240 241
f 212 241 214
f 213 237 238
f 214 241 229
f 215 228 216
f 216 228 233
f 216 233 217
f 218 232 242
f 218 242 243
f 218 243 219
f 219 243 244
f 219 244 221
f 221 245 222
f 221 244 245
f 222 245 246
f 222 246 247
f 222 247 248
f 222 248 223
f 223 248 224
f 224 248 249
f 224 249 250
f 224 250 226
f 225 234 227
f 225 226 251
f 225 251 234
f 226 250 251
f 227 233 228
f 229 241 252
f 229 252 230
f 230 252 253
f 230 253 242
f 230 242 231
f 231 242 232
f 234 251 235
f 235 251 250
f 235 250 236
f 236 250 249
f 236 249 238
f 236 238 237
f 238 249 254
f 238 254 239
f 239 254 240
f 240 254 246
f 240 246 255
f 240 255 241
f 241 255 252
f 242 253 243
f 243 253 256
f 243 256 244
f 244 256 245
f 245 256 255
f 245 255 246
f 246 254 247
f 247 254 248
f 248 254 249
f 252 256 253
f 252 255 256
