v -0.017333 0.009217 0.028403
v -0.017333 0.010528 0.028189
v -0.018159 0.009238 0.027824
v -0.019326 0.007620 0.027116
v -0.018159 0.007620 0.027791
v -0.017333 0.007605 0.028052
v -0.017333 0.010865 0.028120
v -0.019070 0.010391 0.026916
v -0.019201 0.009238 0.027036
v -0.020135 0.007620 0.026328
v -0.020819 0.006003 0.025477
v -0.019236 0.006419 0.027020
v -0.017333 0.006816 0.027750
v -0.018281 0.010901 0.027399
v -0.017333 0.012522 0.027577
v -0.017890 0.012476 0.027217
v -0.018700 0.012476 0.026625
v -0.018902 0.011473 0.026770
v -0.020464 0.012849 0.025088
v -0.020612 0.011770 0.025228
v -0.020011 0.009238 0.026229
v -0.020685 0.010858 0.025304
v -0.020840 0.007620 0.025521
v -0.020781 0.009238 0.025420
v -0.022239 0.010424 0.023630
v -0.021627 0.006003 0.024465
v -0.022231 0.005101 0.023627
v -0.020713 0.005015 0.025324
v -0.019777 0.004670 0.025637
v -0.018533 0.005340 0.026740
v -0.018060 0.005930 0.027173
v -0.017333 0.005963 0.027294
v -0.017333 0.013840 0.027102
v -0.017598 0.013705 0.026995
v -0.025495 0.026458 0.017178
v -0.025495 0.025406 0.017400
v -0.022188 0.011507 0.023564
v -0.021648 0.007620 0.024476
v -0.022261 0.009238 0.023660
v -0.022865 0.009238 0.022777
v -0.022688 0.010923 0.022925
v -0.022250 0.006003 0.023655
v -0.023542 0.005948 0.021059
v -0.023274 0.004383 0.021157
v -0.022511 0.004490 0.022799
v -0.021996 0.004022 0.023353
v -0.023618 0.009238 0.021596
v -0.024048 0.009238 0.020787
v -0.023950 0.007620 0.020608
v -0.020918 0.003328 0.023869
v -0.019777 0.003863 0.024992
v -0.018685 0.003597 0.025175
v -0.017364 0.005223 0.026883
v -0.017333 0.003530 0.025244
v -0.017333 0.014534 0.026822
v -0.025495 0.027296 0.016708
v -0.017333 0.014723 0.026740
v -0.017333 0.015757 0.026169
v -0.025495 0.023798 0.017474
v -0.022259 0.007620 0.023666
v -0.023800 0.005370 0.020276
v -0.023868 0.006449 0.020452
v -0.023720 0.004383 0.020024
v -0.023874 0.003410 0.018907
v -0.023415 0.002829 0.019483
v -0.022389 0.003306 0.022274
v -0.024578 0.009238 0.019538
v -0.024382 0.007620 0.019538
v -0.019777 0.003126 0.024182
v -0.021825 0.002224 0.021613
v -0.020747 0.001878 0.022088
v -0.017333 0.001349 0.022675
v -0.017333 0.002010 0.023515
v -0.017333 0.002774 0.024423
v -0.025495 0.027809 0.016346
v -0.017333 0.016937 0.025486
v -0.025495 0.022547 0.017282
v -0.025470 0.008321 0.015690
v -0.025039 0.009238 0.017921
v -0.024879 0.007620 0.017921
v -0.023969 0.004383 0.019214
v -0.023949 0.002829 0.017768
v -0.023826 0.001949 0.017128
v -0.023677 0.002331 0.018207
v -0.024271 0.004383 0.017921
v -0.022326 0.001848 0.020534
v -0.022643 0.002768 0.021108
v -0.021331 0.001655 0.021108
v -0.017333 -0.000528 0.019604
v -0.017333 0.000108 0.020743
v -0.017333 0.000579 0.021517
v -0.025495 0.028335 0.015970
v -0.017333 0.017325 0.025129
v -0.025495 0.021697 0.016876
v -0.025489 0.008253 0.014683
v -0.024277 0.002768 0.014683
v -0.024179 0.002768 0.016302
v -0.024529 0.004383 0.016302
v -0.023896 0.001845 0.016302
v -0.023013 0.001105 0.016302
v -0.023088 0.001469 0.017768
v -0.022591 0.001622 0.019538
v -0.021396 0.001007 0.019538
v -0.017333 -0.001072 0.018185
v -0.025495 0.029173 0.015108
v -0.017333 0.017692 0.024690
v -0.025495 0.020548 0.016129
v -0.025495 0.019695 0.015553
v -0.025495 0.019303 0.014683
v -0.025495 0.019218 0.013558
v -0.025495 0.019193 0.013069
v -0.025495 0.019487 0.012237
v -0.025495 0.019585 0.012056
v -0.025495 0.020080 0.011549
v -0.025495 0.020377 0.011249
v -0.025495 0.021028 0.010629
v -0.025495 0.021156 0.010533
v -0.025495 0.021572 0.010379
v -0.025476 0.008302 0.013585
v -0.024557 0.004383 0.013069
v -0.024190 0.002768 0.013069
v -0.023891 0.001848 0.013069
v -0.023944 0.001765 0.014683
v -0.023013 0.000986 0.014683
v -0.022011 0.000405 0.016302
v -0.021426 0.000527 0.017990
v -0.017333 -0.001335 0.017257
v -0.025495 0.029427 0.014691
v -0.017333 0.019851 0.021997
v -0.025495 0.022202 0.010168
v -0.024977 0.007620 0.011452
v -0.024330 0.004383 0.011452
v -0.025495 0.023049 0.009907
v -0.023988 0.002750 0.011535
v -0.023844 0.001924 0.012128
v -0.023013 0.001080 0.013069
v -0.022097 0.000377 0.013069
v -0.022120 0.000368 0.014683
v -0.017333 -0.001421 0.016302
v -0.025495 0.029705 0.014208
v -0.017333 0.020236 0.021152
v -0.024667 0.009238 0.009833
v -0.024552 0.007620 0.009833
v -0.023899 0.003282 0.010357
v -0.025495 0.023801 0.009825
v -0.024130 0.009238 0.008326
v -0.023742 0.002203 0.011049
v -0.022751 0.001426 0.009833
v -0.023127 0.001374 0.011535
v -0.021950 0.000441 0.011452
v -0.017333 -0.001427 0.012128
v -0.017333 -0.001485 0.013069
v -0.017333 -0.001479 0.014683
v -0.025311 0.029595 0.014120
v -0.025495 0.029751 0.013069
v -0.017333 0.020484 0.020416
v -0.024058 0.007620 0.008508
v -0.023494 0.004517 0.008365
v -0.023753 0.004068 0.009279
v -0.023570 0.002750 0.009825
v -0.025495 0.024663 0.009743
v -0.023770 0.009238 0.007517
v -0.022212 0.001949 0.007393
v -0.022412 0.001741 0.008214
v -0.021398 0.000597 0.009795
v -0.020859 0.000240 0.010308
v -0.017333 -0.001344 0.011436
v -0.017333 -0.001405 0.011878
v -0.020375 0.024801 0.014683
v -0.023677 0.027981 0.013069
v -0.023766 0.027901 0.012199
v -0.025477 0.029549 0.012268
v -0.025495 0.029103 0.011661
v -0.017333 0.020685 0.019538
v -0.023692 0.007620 0.007698
v -0.022237 0.003514 0.005733
v -0.022962 0.002768 0.008214
v -0.020983 0.010858 0.003773
v -0.021020 0.009238 0.003707
v -0.021828 0.009238 0.004624
v -0.022465 0.009238 0.005431
v -0.023221 0.009238 0.006595
v -0.025495 0.025422 0.009847
v -0.018666 0.007620 0.001182
v -0.022282 0.004383 0.005645
v -0.020636 0.001927 0.005741
v -0.021264 0.001771 0.006751
v -0.021396 0.001178 0.008214
v -0.022387 0.002890 0.006751
v -0.021713 0.002435 0.006315
v -0.020346 0.000399 0.009229
v -0.017333 -0.001167 0.010799
v -0.018855 0.023162 0.014359
v -0.018855 0.023162 0.013577
v -0.020405 0.024776 0.013069
v -0.017333 0.019866 0.007149
v -0.017333 0.019774 0.006962
v -0.017333 0.019374 0.006287
v -0.025495 0.028170 0.010722
v -0.017333 0.018652 0.005365
v -0.017333 0.016203 0.002845
v -0.017333 0.021101 0.016343
v -0.021710 0.004383 0.004835
v -0.020902 0.004383 0.003806
v -0.020688 0.003471 0.004075
v -0.019514 0.007620 0.001992
v -0.020323 0.007620 0.002845
v -0.020339 0.006003 0.002796
v -0.021030 0.006003 0.003606
v -0.021837 0.006003 0.004758
v -0.025495 0.026287 0.009973
v -0.017857 0.007620 0.000600
v -0.019530 0.006003 0.002030
v -0.018515 0.009238 0.001317
v -0.017706 0.009238 0.000647
v -0.019777 0.001833 0.005576
v -0.017333 0.000524 0.006932
v -0.017333 -0.000210 0.008291
v -0.017333 -0.000620 0.009257
v -0.017333 -0.000861 0.009833
v -0.019777 0.003233 0.003787
v -0.019777 0.002426 0.004767
v -0.017333 0.021205 0.015042
v -0.017333 0.021227 0.014683
v -0.017333 0.021214 0.014002
v -0.017333 0.021196 0.013069
v -0.017333 0.021107 0.012490
v -0.017333 0.020774 0.010552
v -0.025495 0.027996 0.010571
v -0.017333 0.015377 0.002294
v -0.019326 0.004811 0.002272
v -0.025495 0.026969 0.010195
v -0.017333 0.012821 0.001344
v -0.017333 0.011608 0.000960
v -0.017501 0.010516 0.000809
v -0.017333 0.009238 0.000416
v -0.017333 0.007620 0.000364
v -0.017702 0.006422 0.000749
v -0.018209 0.005930 0.001210
v -0.017333 0.010611 0.000724
v -0.018159 0.003037 0.003482
v -0.018159 0.002233 0.004583
v -0.017333 0.001194 0.005875
v -0.018159 0.004526 0.001995
v -0.018159 0.003716 0.002675
v -0.025495 0.027650 0.010431
v -0.017333 0.014943 0.002104
v -0.017333 0.014035 0.001770
v -0.017333 0.006339 0.000691
v -0.017333 0.006083 0.000836
v -0.017333 0.003328 0.003070
v -0.017333 0.002585 0.003960
v -0.017333 0.001869 0.004912
v -0.017333 0.005627 0.001114
v -0.017333 0.004496 0.001915
v -0.017333 0.003689 0.002659
f 1 2 3
f 1 3 4
f 1 4 5
f 1 5 6
f 1 6 13
f 1 13 32
f 1 32 54
f 1 54 74
f 1 74 73
f 1 73 72
f 1 72 91
f 1 91 90
f 1 90 89
f 1 89 104
f 1 104 127
f 1 127 139
f 1 139 153
f 1 153 152
f 1 152 151
f 1 151 168
f 1 168 167
f 1 167 192
f 1 192 220
f 1 220 219
f 1 219 218
f 1 218 217
f 1 217 243
f 1 243 253
f 1 253 252
f 1 252 251
f 1 251 256
f 1 256 255
f 1 255 254
f 1 254 250
f 1 250 249
f 1 249 237
f 1 237 236
f 1 236 240
f 1 240 234
f 1 234 233
f 1 233 248
f 1 248 247
f 1 247 230
f 1 230 201
f 1 201 200
f 1 200 198
f 1 198 197
f 1 197 196
f 1 196 228
f 1 228 227
f 1 227 226
f 1 226 225
f 1 225 224
f 1 224 223
f 1 223 202
f 1 202 174
f 1 174 156
f 1 156 141
f 1 141 129
f 1 129 106
f 1 106 93
f 1 93 76
f 1 76 58
f 1 58 57
f 1 57 55
f 1 55 33
f 1 33 15
f 1 15 7
f 1 7 2
f 2 7 8
f 2 8 3
f 3 8 9
f 3 9 4
f 4 10 11
f 4 11 12
f 4 12 5
f 4 9 10
f 5 12 6
f 6 12 13
f 7 14 8
f 7 15 16
f 7 16 17
f 7 17 18
f 7 18 14
f 8 14 18
f 8 18 19
f 8 19 20
f 8 20 9
f 9 21 10
f 9 20 22
f 9 22 21
f 10 23 11
f 10 21 22
f 10 22 24
f 10 24 25
f 10 25 23
f 11 23 26
f 11 26 27
f 11 27 28
f 11 28 12
f 12 28 29
f 12 29 30
f 12 30 31
f 12 31 13
f 13 31 32
f 15 33 34
f 15 34 16
f 16 34 35
f 16 35 17
f 17 35 18
f 18 35 19
f 19 35 20
f 20 35 36
f 20 36 37
f 20 37 22
f 22 37 24
f 23 38 26
f 23 25 39
f 23 39 38
f 24 37 25
f 25 40 39
f 25 37 36
f 25 36 41
f 25 41 40
f 26 42 27
f 26 38 42
f 27 43 44
f 27 44 45
f 27 45 46
f 27 46 28
f 27 42 47
f 27 47 48
f 27 48 49
f 27 49 43
f 28 46 50
f 28 50 29
f 29 50 51
f 29 51 30
f 30 51 52
f 30 52 53
f 30 53 31
f 31 53 32
f 32 53 54
f 33 55 35
f 33 35 34
f 35 56 75
f 35 75 92
f 35 92 105
f 35 105 128
f 35 128 140
f 35 140 155
f 35 155 173
f 35 173 199
f 35 199 229
f 35 229 246
f 35 246 232
f 35 232 211
f 35 211 183
f 35 183 161
f 35 161 145
f 35 145 133
f 35 133 130
f 35 130 118
f 35 118 117
f 35 117 116
f 35 116 115
f 35 115 114
f 35 114 113
f 35 113 112
f 35 112 111
f 35 111 110
f 35 110 109
f 35 109 108
f 35 108 107
f 35 107 94
f 35 94 77
f 35 77 59
f 35 59 36
f 35 55 57
f 35 57 58
f 35 58 56
f 36 59 47
f 36 47 41
f 38 60 42
f 38 39 60
f 39 40 60
f 40 47 42
f 40 42 60
f 40 41 47
f 43 61 44
f 43 49 62
f 43 62 61
f 44 61 63
f 44 63 64
f 44 64 65
f 44 65 66
f 44 66 45
f 45 66 46
f 46 66 50
f 47 59 48
f 48 67 49
f 48 59 67
f 49 67 68
f 49 68 62
f 50 69 51
f 50 66 70
f 50 70 71
f 50 71 69
f 51 69 52
f 52 69 72
f 52 72 73
f 52 73 74
f 52 74 54
f 52 54 53
f 56 58 76
f 56 76 75
f 59 77 78
f 59 78 79
f 59 79 67
f 61 62 68
f 61 68 80
f 61 80 81
f 61 81 63
f 63 81 64
f 64 82 83
f 64 83 84
f 64 84 65
f 64 81 80
f 64 80 85
f 64 85 82
f 65 84 86
f 65 86 87
f 65 87 66
f 66 87 86
f 66 86 70
f 67 79 80
f 67 80 68
f 69 71 72
f 70 86 71
f 71 86 88
f 71 88 89
f 71 89 90
f 71 90 91
f 71 91 72
f 75 76 92
f 76 93 92
f 77 94 95
f 77 95 78
f 78 95 96
f 78 96 97
f 78 97 98
f 78 98 85
f 78 85 80
f 78 80 79
f 82 85 97
f 82 97 83
f 83 97 99
f 83 99 100
f 83 100 101
f 83 101 102
f 83 102 84
f 84 102 86
f 85 98 97
f 86 102 103
f 86 103 88
f 88 103 89
f 89 103 104
f 92 93 105
f 93 106 105
f 94 107 95
f 95 107 108
f 95 108 109
f 95 109 110
f 95 110 111
f 95 111 112
f 95 112 113
f 95 113 114
f 95 114 115
f 95 115 116
f 95 116 117
f 95 117 118
f 95 118 119
f 95 119 96
f 96 120 121
f 96 121 122
f 96 122 123
f 96 123 99
f 96 99 97
f 96 119 120
f 99 123 100
f 100 124 125
f 100 125 101
f 100 123 124
f 101 125 102
f 102 125 126
f 102 126 103
f 103 126 104
f 104 126 127
f 105 106 129
f 105 129 128
f 118 130 119
f 119 131 132
f 119 132 120
f 119 130 133
f 119 133 131
f 120 132 134
f 120 134 121
f 121 134 135
f 121 135 122
f 122 135 136
f 122 136 123
f 123 136 124
f 124 136 137
f 124 137 138
f 124 138 125
f 125 138 139
f 125 139 127
f 125 127 126
f 128 129 140
f 129 141 140
f 131 133 142
f 131 142 143
f 131 143 144
f 131 144 132
f 132 144 134
f 133 145 146
f 133 146 142
f 134 147 135
f 134 144 147
f 135 148 149
f 135 149 136
f 135 147 148
f 136 149 150
f 136 150 137
f 137 150 151
f 137 151 152
f 137 152 138
f 138 152 153
f 138 153 139
f 140 154 155
f 140 141 154
f 141 156 154
f 142 146 143
f 143 157 158
f 143 158 159
f 143 159 144
f 143 146 157
f 144 159 160
f 144 160 147
f 145 161 162
f 145 162 146
f 146 162 157
f 147 160 163
f 147 163 164
f 147 164 148
f 148 164 165
f 148 165 150
f 148 150 149
f 150 165 166
f 150 166 167
f 150 167 168
f 150 168 151
f 154 169 155
f 154 156 169
f 155 169 170
f 155 170 171
f 155 171 172
f 155 172 173
f 156 174 169
f 157 175 176
f 157 176 158
f 157 162 175
f 158 176 159
f 159 176 177
f 159 177 160
f 160 177 163
f 161 178 179
f 161 179 180
f 161 180 181
f 161 181 182
f 161 182 162
f 161 183 184
f 161 184 178
f 162 182 185
f 162 185 176
f 162 176 175
f 163 186 187
f 163 187 188
f 163 188 164
f 163 177 189
f 163 189 176
f 163 176 190
f 163 190 186
f 164 188 165
f 165 188 191
f 165 191 166
f 166 192 167
f 166 191 192
f 169 193 194
f 169 194 195
f 169 195 170
f 169 174 193
f 170 195 171
f 171 195 196
f 171 196 172
f 172 196 197
f 172 197 198
f 172 198 173
f 173 198 200
f 173 200 201
f 173 201 199
f 174 202 193
f 176 185 203
f 176 203 204
f 176 204 205
f 176 205 190
f 176 189 177
f 178 206 207
f 178 207 179
f 178 184 206
f 179 207 180
f 180 207 208
f 180 208 209
f 180 209 181
f 181 209 210
f 181 210 182
f 182 210 185
f 183 211 184
f 184 212 213
f 184 213 208
f 184 208 206
f 184 211 214
f 184 214 215
f 184 215 212
f 185 210 209
f 185 209 203
f 186 216 217
f 186 217 218
f 186 218 219
f 186 219 220
f 186 220 191
f 186 191 188
f 186 188 187
f 186 190 205
f 186 205 221
f 186 221 222
f 186 222 216
f 191 220 192
f 193 202 223
f 193 223 224
f 193 224 194
f 194 224 225
f 194 225 226
f 194 226 227
f 194 227 228
f 194 228 195
f 195 228 196
f 199 201 229
f 201 230 229
f 203 209 204
f 204 209 208
f 204 208 213
f 204 213 231
f 204 231 205
f 205 231 221
f 206 208 207
f 211 232 233
f 211 233 234
f 211 234 235
f 211 235 215
f 211 215 214
f 212 215 236
f 212 236 237
f 212 237 238
f 212 238 213
f 213 239 231
f 213 238 239
f 215 235 240
f 215 240 236
f 216 222 241
f 216 241 242
f 216 242 243
f 216 243 217
f 221 231 244
f 221 244 245
f 221 245 241
f 221 241 222
f 229 230 247
f 229 247 246
f 231 239 244
f 232 246 233
f 233 246 248
f 234 240 235
f 237 249 238
f 238 249 250
f 238 250 244
f 238 244 239
f 241 245 251
f 241 251 252
f 241 252 253
f 241 253 242
f 242 253 243
f 244 250 254
f 244 254 255
f 244 255 245
f 245 256 251
f 245 255 256
f 246 247 248
