v 0.002994 -0.022715 0.014897
v 0.002994 -0.022715 0.017203
v 0.002994 -0.021959 0.012053
v 0.008788 -0.031624 0.013073
v 0.008982 -0.032335 0.014690
v 0.009195 -0.032839 0.016311
v 0.002994 -0.021594 0.020152
v 0.008911 -0.032373 0.017914
v 0.008722 -0.031693 0.019538
v 0.002994 -0.020630 0.009650
v 0.010270 -0.032247 0.009590
v 0.010029 -0.033192 0.012203
v 0.010284 -0.034314 0.015501
v 0.009934 -0.033936 0.017914
v 0.002994 -0.019691 0.022586
v 0.008954 -0.031183 0.021147
v 0.010298 -0.032191 0.022957
v 0.009939 -0.033180 0.020491
v 0.002994 -0.019124 0.008044
v 0.010204 -0.030704 0.007905
v 0.011671 -0.032657 0.007623
v 0.011856 -0.034377 0.009597
v 0.011572 -0.034843 0.011235
v 0.011870 -0.036021 0.013884
v 0.011752 -0.036166 0.017110
v 0.011785 -0.035712 0.020105
v 0.002994 -0.017398 0.024413
v 0.010284 -0.030597 0.024588
v 0.011799 -0.034459 0.022754
v 0.011804 -0.032884 0.024813
v 0.002994 -0.017669 0.006795
v 0.011723 -0.030949 0.006042
v 0.012973 -0.032884 0.006160
v 0.013948 -0.034736 0.006909
v 0.013068 -0.035618 0.009286
v 0.013560 -0.036771 0.010921
v 0.013219 -0.037042 0.012538
v 0.026361 -0.049843 0.016254
v 0.027663 -0.051028 0.018542
v 0.026413 -0.049787 0.019113
v 0.028269 -0.051028 0.021076
v 0.013484 -0.036827 0.021790
v 0.002994 -0.015161 0.025688
v 0.011468 -0.031069 0.025941
v 0.012116 -0.031504 0.026434
v 0.012064 -0.027988 0.028472
v 0.013087 -0.035618 0.023310
v 0.013612 -0.034654 0.025388
v 0.002994 -0.015691 0.005481
v 0.012945 -0.030597 0.004525
v 0.014403 -0.033488 0.005167
v 0.033017 -0.051028 0.006431
v 0.030991 -0.051028 0.008533
v 0.029462 -0.049938 0.008897
v 0.028150 -0.049686 0.010261
v 0.027824 -0.050354 0.012410
v 0.027639 -0.050883 0.015494
v 0.029376 -0.051028 0.010800
v 0.029391 -0.051028 0.023696
v 0.027753 -0.050045 0.022475
v 0.028127 -0.049698 0.023974
v 0.002994 -0.013473 0.026402
v 0.013749 -0.031006 0.028475
v 0.014611 -0.033186 0.027847
v 0.013953 -0.027346 0.030192
v 0.014692 -0.029614 0.029914
v 0.027781 -0.048407 0.025431
v 0.014942 -0.035353 0.026145
v 0.002994 -0.013051 0.004207
v 0.013664 -0.028316 0.002744
v 0.014228 -0.031138 0.003690
v 0.015563 -0.033104 0.003932
v 0.035029 -0.050354 0.004343
v 0.039663 -0.050832 0.002194
v 0.042935 -0.051028 0.000834
v 0.031076 -0.051028 0.026148
v 0.002994 -0.010934 0.027187
v 0.015922 -0.031441 0.029989
v 0.032652 -0.051028 0.027801
v 0.034357 -0.050725 0.029514
v 0.017835 -0.030048 0.031684
v 0.016183 -0.027106 0.031609
v 0.002994 -0.010254 0.003425
v 0.016779 -0.026363 0.000259
v 0.016576 -0.028114 0.000870
v 0.014209 -0.027862 0.002198
v 0.014810 -0.029954 0.002662
v 0.017030 -0.032260 0.002408
v 0.037708 -0.049818 0.002565
v 0.032397 -0.042088 0.000734
v 0.040113 -0.045792 -0.000008
v 0.045155 -0.051028 0.000452
v 0.024425 -0.032770 -0.000490
v 0.026304 -0.033066 -0.000783
v 0.002994 -0.008578 0.027454
v 0.016770 -0.024750 0.032366
v 0.035829 -0.049270 0.031370
v 0.038002 -0.051028 0.031595
v 0.021210 -0.029034 0.033405
v 0.019946 -0.027125 0.033340
v 0.017461 -0.026363 0.032437
v 0.040800 -0.051028 0.033055
v 0.043905 -0.050738 0.034611
v 0.002994 -0.000539 0.003297
v 0.018138 -0.024750 -0.000544
v 0.018971 -0.026363 -0.000690
v 0.019075 -0.029601 0.000174
v 0.017688 -0.030187 0.001077
v 0.019818 -0.031302 0.000638
v 0.033628 -0.039310 -0.000447
v 0.043351 -0.048218 0.000106
v 0.047157 -0.051028 0.000756
v 0.044961 -0.044167 -0.000172
v 0.051352 -0.044350 0.000220
v 0.021149 -0.029664 -0.000597
v 0.023956 -0.030401 -0.000933
v 0.025551 -0.031220 -0.000958
v 0.002994 0.001194 0.026416
v 0.017461 -0.022318 0.032723
v 0.019113 -0.024038 0.033298
v 0.040956 -0.046548 0.034907
v 0.023128 -0.027982 0.033940
v 0.020694 -0.024750 0.033637
v 0.048989 -0.051028 0.034554
v 0.046584 -0.050832 0.035232
v 0.002994 0.004262 0.003690
v 0.019913 -0.023131 -0.000783
v 0.021504 -0.025557 -0.001068
v 0.022318 -0.027982 -0.001086
v 0.020197 -0.028083 -0.000733
v 0.043346 -0.045093 -0.000169
v 0.048398 -0.051028 0.002001
v 0.051356 -0.046095 0.000977
v 0.045770 -0.042548 -0.000230
v 0.048203 -0.041741 -0.000112
v 0.050585 -0.042529 0.000163
v 0.051352 -0.040078 0.001134
v 0.024742 -0.027982 -0.001140
v 0.026366 -0.029601 -0.001068
v 0.028780 -0.032839 -0.000886
v 0.002994 0.006977 0.025195
v 0.019889 -0.021506 0.033073
v 0.020694 -0.019899 0.032908
v 0.023128 -0.018280 0.032884
v 0.020699 -0.023081 0.033419
v 0.041140 -0.044665 0.034979
v 0.025551 -0.025557 0.033908
v 0.022318 -0.025557 0.033801
v 0.028780 -0.031220 0.034229
v 0.024742 -0.023131 0.033719
v 0.022318 -0.023131 0.033580
v 0.050608 -0.051028 0.032487
v 0.051352 -0.042548 0.034686
v 0.045770 -0.040935 0.034815
v 0.043910 -0.042863 0.034943
v 0.043346 -0.045093 0.035047
v 0.002994 0.006662 0.004093
v 0.023932 -0.018110 -0.000711
v 0.022853 -0.018696 -0.000719
v 0.021660 -0.021272 -0.000836
v 0.022318 -0.023131 -0.001043
v 0.023932 -0.023131 -0.001154
v 0.023932 -0.024750 -0.001190
v 0.023932 -0.026363 -0.001183
v 0.051356 -0.051028 0.007334
v 0.051352 -0.037753 0.002176
v 0.051352 -0.032184 0.005282
v 0.051352 -0.030477 0.006806
v 0.051352 -0.028914 0.008448
v 0.051356 -0.045635 0.032437
v 0.027970 -0.023937 -0.001225
v 0.030394 -0.024750 -0.001122
v 0.032013 -0.026363 -0.001033
v 0.037528 -0.029771 -0.000644
v 0.031024 -0.021909 -0.000611
v 0.031833 -0.018444 0.000977
v 0.002994 0.009251 0.023964
v 0.023932 -0.016661 0.032555
v 0.025551 -0.016661 0.032516
v 0.027189 -0.015936 0.031848
v 0.023151 -0.020743 0.033337
v 0.026366 -0.018948 0.033176
v 0.023932 -0.024750 0.033808
v 0.027170 -0.026363 0.033972
v 0.027970 -0.023937 0.033804
v 0.025551 -0.021506 0.033583
v 0.051356 -0.051028 0.022604
v 0.051352 -0.044476 0.033940
v 0.051352 -0.037753 0.032844
v 0.050585 -0.039310 0.033940
v 0.050585 -0.040935 0.034518
v 0.048203 -0.040122 0.034675
v 0.002994 0.010089 0.006092
v 0.028917 -0.016390 0.000863
v 0.027232 -0.019156 -0.000776
v 0.025551 -0.019282 -0.000926
v 0.023932 -0.020699 -0.001018
v 0.025551 -0.023937 -0.001233
v 0.026366 -0.021506 -0.001197
v 0.050362 -0.035567 0.002690
v 0.051224 -0.033980 0.003968
v 0.034054 -0.015212 0.004175
v 0.035663 -0.013794 0.006963
v 0.051352 -0.028990 0.025920
v 0.051001 -0.027302 0.010147
v 0.050916 -0.025764 0.013491
v 0.051295 -0.025626 0.016736
v 0.051352 -0.031157 0.028343
v 0.051352 -0.035504 0.031495
v 0.033159 -0.025153 -0.000790
v 0.029045 -0.020775 -0.000865
v 0.030475 -0.017417 0.000902
v 0.032766 -0.016686 0.002319
v 0.002994 0.010782 0.022643
v 0.028780 -0.016535 0.031748
v 0.030162 -0.014670 0.030149
v 0.032269 -0.015659 0.029949
v 0.031961 -0.013511 0.028361
v 0.028780 -0.018280 0.032659
v 0.029410 -0.020050 0.033198
v 0.027970 -0.021506 0.033576
v 0.030451 -0.017448 0.031695
v 0.002994 0.011828 0.007984
v 0.034039 -0.013630 0.005585
v 0.030820 -0.014991 0.002437
v 0.035313 -0.012591 0.008198
v 0.051063 -0.025695 0.019534
v 0.050864 -0.026231 0.022022
v 0.050760 -0.027384 0.024538
v 0.035270 -0.012717 0.024752
v 0.034210 -0.013460 0.026708
v 0.036340 -0.012377 0.010132
v 0.050301 -0.025884 0.011453
v 0.037093 -0.012446 0.011703
v 0.037789 -0.012496 0.014109
v 0.037855 -0.012427 0.017114
v 0.051191 -0.033060 0.030024
v 0.033959 -0.014702 0.028118
v 0.002994 0.012168 0.021072
v 0.002994 0.012502 0.009818
v 0.035270 -0.010984 0.011453
v 0.034863 -0.011394 0.009790
v 0.037282 -0.012207 0.019580
v 0.036667 -0.012074 0.021155
v 0.036203 -0.012503 0.023203
v 0.036397 -0.011457 0.012970
v 0.036591 -0.011262 0.015501
v 0.036222 -0.011085 0.018620
v 0.002994 0.013088 0.019256
v 0.002994 0.013220 0.015333
v 0.033888 -0.009208 0.014690
v 0.034096 -0.009630 0.013073
v 0.034106 -0.009611 0.019534
v 0.034939 -0.010934 0.021672
v 0.034314 -0.009485 0.017114
v 0.002994 0.013334 0.017557
f 1 2 7
f 1 7 15
f 1 15 27
f 1 27 43
f 1 43 62
f 1 62 77
f 1 77 95
f 1 95 118
f 1 118 141
f 1 141 177
f 1 177 214
f 1 214 239
f 1 239 249
f 1 249 256
f 1 256 250
f 1 250 240
f 1 240 223
f 1 223 193
f 1 193 157
f 1 157 126
f 1 126 104
f 1 104 83
f 1 83 69
f 1 69 49
f 1 49 31
f 1 31 19
f 1 19 10
f 1 10 3
f 1 3 4
f 1 4 5
f 1 5 6
f 1 6 2
f 2 6 8
f 2 8 9
f 2 9 7
f 3 10 11
f 3 11 12
f 3 12 4
f 4 12 5
f 5 12 13
f 5 13 6
f 6 13 14
f 6 14 8
f 7 9 16
f 7 16 17
f 7 17 15
f 8 14 9
f 9 14 18
f 9 18 16
f 10 19 20
f 10 20 11
f 11 20 21
f 11 21 22
f 11 22 23
f 11 23 12
f 12 23 24
f 12 24 13
f 13 24 25
f 13 25 14
f 14 25 26
f 14 26 18
f 15 17 28
f 15 28 27
f 16 18 17
f 17 18 29
f 17 29 30
f 17 30 28
f 18 26 29
f 19 31 20
f 20 32 21
f 20 31 32
f 21 33 34
f 21 34 35
f 21 35 22
f 21 32 33
f 22 35 23
f 23 35 36
f 23 36 37
f 23 37 24
f 24 37 38
f 24 38 25
f 25 38 39
f 25 39 40
f 25 40 26
f 26 40 41
f 26 41 42
f 26 42 29
f 27 28 44
f 27 44 45
f 27 45 46
f 27 46 43
f 28 30 44
f 29 42 47
f 29 47 30
f 30 47 48
f 30 48 45
f 30 45 44
f 31 49 32
f 32 50 33
f 32 49 50
f 33 51 34
f 33 50 51
f 34 51 52
f 34 52 53
f 34 53 54
f 34 54 35
f 35 54 55
f 35 55 56
f 35 56 36
f 36 56 37
f 37 56 57
f 37 57 38
f 38 57 39
f 39 41 40
f 39 57 58
f 39 58 53
f 39 53 52
f 39 52 75
f 39 75 92
f 39 92 112
f 39 112 132
f 39 132 165
f 39 165 187
f 39 187 152
f 39 152 124
f 39 124 102
f 39 102 98
f 39 98 79
f 39 79 76
f 39 76 59
f 39 59 41
f 41 59 60
f 41 60 42
f 42 60 61
f 42 61 47
f 43 46 62
f 45 63 46
f 45 48 64
f 45 64 63
f 46 65 62
f 46 63 66
f 46 66 65
f 47 61 67
f 47 67 48
f 48 67 68
f 48 68 64
f 49 69 70
f 49 70 71
f 49 71 50
f 50 71 51
f 51 71 72
f 51 72 52
f 52 73 74
f 52 74 75
f 52 72 73
f 53 58 55
f 53 55 54
f 55 58 56
f 56 58 57
f 59 76 61
f 59 61 60
f 61 76 67
f 62 65 77
f 63 64 78
f 63 78 66
f 64 68 79
f 64 79 80
f 64 80 78
f 65 66 81
f 65 81 82
f 65 82 77
f 66 78 81
f 67 76 68
f 68 76 79
f 69 83 84
f 69 84 85
f 69 85 86
f 69 86 70
f 70 87 71
f 70 86 87
f 71 87 88
f 71 88 72
f 72 88 73
f 73 89 74
f 73 88 89
f 74 89 88
f 74 88 90
f 74 90 75
f 75 91 92
f 75 90 93
f 75 93 94
f 75 94 91
f 77 82 96
f 77 96 95
f 78 80 97
f 78 97 81
f 79 98 80
f 80 98 97
f 81 99 100
f 81 100 101
f 81 101 82
f 81 97 102
f 81 102 103
f 81 103 99
f 82 101 96
f 83 104 105
f 83 105 106
f 83 106 84
f 84 106 107
f 84 107 85
f 85 107 108
f 85 108 87
f 85 87 86
f 87 108 88
f 88 108 109
f 88 109 90
f 90 109 93
f 91 110 111
f 91 111 92
f 91 94 110
f 92 111 113
f 92 113 114
f 92 114 112
f 93 109 107
f 93 107 115
f 93 115 94
f 94 115 116
f 94 116 117
f 94 117 110
f 95 96 119
f 95 119 118
f 96 101 100
f 96 100 120
f 96 120 119
f 97 98 102
f 99 103 121
f 99 121 122
f 99 122 100
f 100 122 123
f 100 123 120
f 102 124 125
f 102 125 103
f 103 125 121
f 104 126 127
f 104 127 105
f 105 127 128
f 105 128 106
f 106 129 130
f 106 130 107
f 106 128 129
f 107 130 115
f 107 109 108
f 110 131 111
f 110 117 131
f 111 131 113
f 112 114 133
f 112 133 132
f 113 134 114
f 113 131 134
f 114 134 135
f 114 135 136
f 114 136 137
f 114 137 133
f 115 130 116
f 116 130 129
f 116 129 117
f 117 129 138
f 117 138 139
f 117 139 140
f 117 140 131
f 118 119 142
f 118 142 143
f 118 143 144
f 118 144 141
f 119 120 142
f 120 145 142
f 120 123 145
f 121 125 146
f 121 146 122
f 122 147 148
f 122 148 123
f 122 146 149
f 122 149 147
f 123 148 150
f 123 150 151
f 123 151 145
f 124 152 153
f 124 153 125
f 125 153 154
f 125 154 155
f 125 155 156
f 125 156 146
f 126 157 158
f 126 158 159
f 126 159 160
f 126 160 127
f 127 160 161
f 127 161 128
f 128 161 162
f 128 162 163
f 128 163 164
f 128 164 129
f 129 164 138
f 131 140 139
f 131 139 134
f 132 133 165
f 133 137 166
f 133 166 167
f 133 167 168
f 133 168 169
f 133 169 170
f 133 170 187
f 133 187 165
f 134 139 171
f 134 171 172
f 134 172 173
f 134 173 135
f 135 173 172
f 135 172 174
f 135 174 136
f 136 174 175
f 136 175 137
f 137 175 176
f 137 176 166
f 138 164 171
f 138 171 139
f 141 144 178
f 141 178 179
f 141 179 180
f 141 180 177
f 142 181 143
f 142 145 181
f 143 181 144
f 144 181 182
f 144 182 178
f 145 151 181
f 146 156 149
f 147 183 148
f 147 149 184
f 147 184 185
f 147 185 150
f 147 150 183
f 148 183 150
f 149 156 155
f 149 155 184
f 150 185 186
f 150 186 151
f 151 186 181
f 152 187 170
f 152 170 188
f 152 188 153
f 153 188 170
f 153 170 189
f 153 189 190
f 153 190 191
f 153 191 192
f 153 192 154
f 154 192 185
f 154 185 184
f 154 184 155
f 157 193 194
f 157 194 195
f 157 195 196
f 157 196 158
f 158 196 197
f 158 197 159
f 159 197 160
f 160 197 161
f 161 197 162
f 162 198 163
f 162 197 199
f 162 199 198
f 163 198 164
f 164 198 171
f 166 176 200
f 166 200 201
f 166 201 167
f 167 201 202
f 167 202 168
f 168 202 203
f 168 203 169
f 169 204 170
f 169 203 205
f 169 205 206
f 169 206 207
f 169 207 204
f 170 204 208
f 170 208 209
f 170 209 189
f 171 198 199
f 171 199 172
f 172 210 174
f 172 199 211
f 172 211 210
f 174 210 175
f 175 210 211
f 175 211 176
f 176 211 212
f 176 212 213
f 176 213 200
f 177 180 215
f 177 215 216
f 177 216 217
f 177 217 218
f 177 218 214
f 178 182 179
f 179 219 180
f 179 182 220
f 179 220 219
f 180 219 215
f 181 186 182
f 182 186 221
f 182 221 220
f 185 221 186
f 185 192 221
f 189 209 217
f 189 217 222
f 189 222 190
f 190 222 219
f 190 219 220
f 190 220 191
f 191 220 192
f 192 220 221
f 193 223 224
f 193 224 202
f 193 202 225
f 193 225 194
f 194 225 212
f 194 212 195
f 195 211 199
f 195 199 196
f 195 212 211
f 196 199 197
f 200 213 201
f 201 213 202
f 202 213 225
f 202 224 203
f 203 224 223
f 203 223 226
f 203 226 205
f 204 207 227
f 204 227 228
f 204 228 229
f 204 229 230
f 204 230 231
f 204 231 208
f 205 226 232
f 205 232 233
f 205 233 206
f 206 233 234
f 206 234 235
f 206 235 207
f 207 235 236
f 207 236 227
f 208 237 209
f 208 231 238
f 208 238 237
f 209 237 217
f 212 225 213
f 214 218 231
f 214 231 239
f 215 219 222
f 215 222 216
f 216 222 217
f 217 238 218
f 217 237 238
f 218 238 231
f 223 240 241
f 223 241 242
f 223 242 226
f 226 242 232
f 227 236 243
f 227 243 228
f 228 243 244
f 228 244 245
f 228 245 229
f 229 245 230
f 230 245 239
f 230 239 231
f 232 242 241
f 232 241 234
f 232 234 233
f 234 241 246
f 234 246 235
f 235 246 247
f 235 247 236
f 236 247 248
f 236 248 243
f 239 245 249
f 240 250 251
f 240 251 252
f 240 252 241
f 241 252 246
f 243 248 244
f 244 248 253
f 244 253 254
f 244 254 245
f 245 254 249
f 246 252 251
f 246 251 247
f 247 251 255
f 247 255 248
f 248 255 253
f 249 254 253
f 249 253 256
f 250 256 251
f 251 256 255
f 253 255 256
