v -0.007668 0.096594 0.112964
v -0.007652 0.096594 0.113296
v -0.007628 0.096821 0.112964
v 0.072733 0.096594 0.112964
v -0.007266 0.096594 0.115957
v -0.007605 0.096821 0.113324
v -0.006762 0.099447 0.112964
v 0.072717 0.096821 0.112964
v 0.072709 0.096821 0.113324
v 0.072709 0.096594 0.113324
v -0.006700 0.096594 0.118582
v -0.007211 0.096821 0.115957
v -0.006298 0.099610 0.115984
v -0.006739 0.099447 0.113324
v -0.006062 0.101245 0.112964
v 0.072670 0.097178 0.112964
v 0.072315 0.099447 0.112964
v 0.072292 0.099447 0.113324
v 0.072457 0.096821 0.115957
v 0.072457 0.096594 0.115957
v -0.006070 0.096594 0.121000
v -0.006062 0.096614 0.121014
v -0.006644 0.096821 0.118582
v -0.006062 0.098729 0.118582
v -0.005787 0.100596 0.116878
v -0.005920 0.100929 0.115125
v -0.006046 0.101213 0.113324
v -0.005983 0.101424 0.112964
v 0.072205 0.099804 0.112964
v 0.071403 0.102081 0.113324
v 0.071953 0.099447 0.115957
v 0.072001 0.096821 0.118582
v 0.072016 0.096594 0.118582
v -0.005732 0.096594 0.122116
v -0.005621 0.097353 0.121755
v -0.005881 0.098226 0.120003
v -0.005582 0.100048 0.118582
v -0.004638 0.102081 0.118582
v -0.003127 0.105848 0.116830
v -0.003811 0.104866 0.115957
v -0.005299 0.101915 0.115984
v -0.005448 0.102528 0.113324
v -0.005464 0.102564 0.112964
v 0.071426 0.102081 0.112964
v 0.070899 0.102260 0.116005
v 0.070639 0.103859 0.113324
v 0.070482 0.103579 0.115160
v 0.070710 0.101485 0.118582
v 0.071465 0.099447 0.118582
v 0.071316 0.096821 0.121208
v 0.071261 0.096594 0.121457
v -0.005204 0.096594 0.123612
v -0.005196 0.096614 0.123626
v -0.003969 0.099614 0.124000
v -0.005181 0.099240 0.121014
v -0.003811 0.102167 0.121194
v -0.003347 0.103648 0.120307
v -0.003591 0.104107 0.118582
v -0.003315 0.106168 0.115077
v -0.002883 0.105422 0.118582
v 0.012928 0.131056 0.121423
v 0.012708 0.131974 0.118582
v -0.004370 0.104711 0.113324
v -0.004409 0.104711 0.112964
v 0.070647 0.103887 0.112964
v 0.070324 0.103254 0.116913
v 0.069931 0.105174 0.113324
v 0.069797 0.104553 0.116005
v 0.070112 0.102800 0.118582
v 0.070490 0.100990 0.120238
v 0.070757 0.099403 0.121153
v 0.070505 0.098493 0.122836
v 0.070608 0.096594 0.123764
v -0.003961 0.096594 0.126383
v 0.025276 0.115223 0.180933
v 0.024466 0.115223 0.179041
v 0.025568 0.116632 0.180517
v -0.003150 0.100604 0.124984
v -0.003504 0.101343 0.123231
v -0.003071 0.103100 0.122060
v -0.002528 0.104598 0.121194
v -0.003457 0.106404 0.113324
v 0.014817 0.132781 0.123841
v 0.014321 0.133309 0.121208
v 0.014188 0.133828 0.118575
v 0.014904 0.135151 0.115957
v 0.013700 0.133621 0.115957
v 0.012653 0.132079 0.115957
v -0.003481 0.106432 0.112964
v -0.003622 0.106172 0.112964
v 0.069931 0.105198 0.112964
v 0.069104 0.104711 0.118582
v 0.069773 0.105466 0.112964
v 0.068530 0.107512 0.112964
v 0.068215 0.108027 0.112964
v 0.068475 0.107540 0.113324
v 0.068373 0.106976 0.115957
v 0.068074 0.106522 0.118582
v 0.069750 0.101947 0.121153
v 0.067869 0.106189 0.120176
v 0.070230 0.100243 0.121991
v 0.069844 0.099403 0.123764
v 0.070183 0.097337 0.124589
v 0.069679 0.096594 0.126238
v 0.069679 0.096602 0.126238
v -0.003890 0.096594 0.126535
v 0.025268 0.113255 0.180974
v 0.027771 0.114740 0.183295
v 0.026937 0.115459 0.182381
v -0.003733 0.096594 0.126847
v -0.003229 0.096594 0.127803
v 0.028377 0.116498 0.182956
v 0.027016 0.116948 0.181113
v 0.016509 0.133849 0.123841
v 0.015069 0.135009 0.117696
v 0.016509 0.135927 0.113324
v 0.014825 0.135281 0.113324
v 0.013668 0.133621 0.113324
v 0.011685 0.130403 0.112964
v 0.067774 0.108681 0.112964
v 0.067688 0.108555 0.114197
v 0.067523 0.108291 0.115957
v 0.067200 0.107832 0.118582
v 0.068325 0.104724 0.121111
v 0.068034 0.103859 0.123203
v 0.068554 0.102240 0.123986
v 0.067507 0.105616 0.121928
v 0.046636 0.134847 0.122316
v 0.065445 0.109078 0.121208
v 0.065169 0.108709 0.122628
v 0.036460 0.119359 0.178210
v 0.036987 0.117959 0.179069
v 0.068074 0.101477 0.125815
v 0.068514 0.099561 0.126605
v 0.069545 0.096594 0.126501
v 0.068034 0.098769 0.128233
v 0.036641 0.117159 0.180947
v 0.068239 0.096594 0.129071
v -0.002678 0.096594 0.128780
v -0.001175 0.096594 0.131343
v -0.000317 0.096594 0.132653
v 0.001021 0.096594 0.134315
v 0.002091 0.096594 0.135597
v 0.003374 0.096594 0.136948
v 0.004688 0.096594 0.138285
v 0.026937 0.112756 0.181778
v 0.027771 0.113490 0.183295
v 0.029408 0.115459 0.183524
v 0.030124 0.116896 0.183309
v 0.029408 0.117435 0.181917
v 0.019130 0.133812 0.126466
v 0.016619 0.134632 0.121069
v 0.015832 0.134847 0.119448
v 0.021758 0.136487 0.118582
v 0.016863 0.136012 0.112964
v 0.016486 0.135902 0.112964
v 0.021758 0.136807 0.115957
v 0.015014 0.135338 0.112964
v 0.014849 0.135261 0.112964
v 0.013574 0.133378 0.112964
v 0.067302 0.109346 0.112964
v 0.066956 0.109752 0.113324
v 0.065327 0.111518 0.115368
v 0.066106 0.110195 0.116130
v 0.046911 0.135147 0.120564
v 0.067672 0.103222 0.124956
v 0.045620 0.135667 0.121353
v 0.044841 0.135363 0.123841
v 0.044298 0.135074 0.125455
v 0.033729 0.119193 0.180448
v 0.035484 0.118905 0.179963
v 0.041740 0.135042 0.127956
v 0.034051 0.116932 0.183219
v 0.035444 0.115223 0.182187
v 0.036578 0.115223 0.180870
v 0.068192 0.096594 0.129147
v 0.006097 0.096594 0.139525
v 0.029644 0.112175 0.181674
v 0.007545 0.096594 0.140738
v 0.008600 0.096594 0.141534
v 0.011008 0.096594 0.143155
v 0.011150 0.096594 0.143238
v 0.029644 0.113291 0.183420
v 0.032273 0.115223 0.183739
v 0.032273 0.117103 0.183399
v 0.032462 0.118450 0.181466
v 0.029644 0.118523 0.179041
v 0.033453 0.119193 0.180448
v 0.021758 0.133524 0.129092
v 0.023088 0.134936 0.125150
v 0.028755 0.137968 0.112964
v 0.028149 0.134985 0.127893
v 0.029652 0.135419 0.126466
v 0.036050 0.137635 0.117606
v 0.024600 0.137392 0.112964
v 0.027024 0.137761 0.112964
v 0.025930 0.137619 0.112964
v 0.065508 0.111713 0.112964
v 0.047249 0.135517 0.115957
v 0.047147 0.135403 0.118582
v 0.045408 0.136385 0.118582
v 0.044101 0.137570 0.114647
v 0.042779 0.135785 0.123841
v 0.042677 0.135233 0.126390
v 0.032273 0.135521 0.126466
v 0.038954 0.137631 0.117668
v 0.037514 0.137384 0.119137
v 0.034130 0.115223 0.183302
v 0.033847 0.113714 0.183177
v 0.036271 0.113856 0.180455
v 0.065162 0.096594 0.133782
v 0.065988 0.096594 0.132597
v 0.066696 0.096594 0.131503
v 0.053223 0.096594 0.143238
v 0.054553 0.096598 0.143238
v 0.032273 0.113458 0.183330
v 0.029652 0.135022 0.127963
v 0.029652 0.138025 0.112964
v 0.037514 0.137668 0.117820
v 0.047053 0.135334 0.112964
v 0.047084 0.135379 0.113324
v 0.045243 0.136856 0.112964
v 0.044164 0.137603 0.112964
v 0.044164 0.137603 0.113324
v 0.045148 0.136897 0.115693
v 0.037514 0.137907 0.115957
v 0.055670 0.096594 0.142539
v 0.057457 0.096594 0.141299
v 0.057606 0.096594 0.141188
v 0.058921 0.096594 0.140142
v 0.060314 0.096594 0.138936
v 0.060440 0.096594 0.138825
v 0.061762 0.096594 0.137572
v 0.062958 0.096594 0.136373
v 0.063060 0.096594 0.136262
v 0.032619 0.138058 0.112964
v 0.034972 0.138025 0.112964
v 0.037601 0.137915 0.113317
v 0.034964 0.138017 0.113338
f 1 2 3
f 1 3 7
f 1 7 15
f 1 15 28
f 1 28 43
f 1 43 64
f 1 64 90
f 1 90 89
f 1 89 119
f 1 119 160
f 1 160 159
f 1 159 158
f 1 158 156
f 1 156 155
f 1 155 195
f 1 195 197
f 1 197 196
f 1 196 191
f 1 191 218
f 1 218 236
f 1 236 237
f 1 237 223
f 1 223 222
f 1 222 220
f 1 220 198
f 1 198 161
f 1 161 120
f 1 120 95
f 1 95 94
f 1 94 93
f 1 93 91
f 1 91 65
f 1 65 44
f 1 44 29
f 1 29 17
f 1 17 16
f 1 16 8
f 1 8 4
f 1 4 10
f 1 10 20
f 1 20 33
f 1 33 51
f 1 51 73
f 1 73 104
f 1 104 135
f 1 135 138
f 1 138 176
f 1 176 213
f 1 213 212
f 1 212 211
f 1 211 235
f 1 235 234
f 1 234 233
f 1 233 232
f 1 232 231
f 1 231 230
f 1 230 229
f 1 229 228
f 1 228 227
f 1 227 214
f 1 214 182
f 1 182 181
f 1 181 180
f 1 180 179
f 1 179 177
f 1 177 145
f 1 145 144
f 1 144 143
f 1 143 142
f 1 142 141
f 1 141 140
f 1 140 139
f 1 139 111
f 1 111 110
f 1 110 106
f 1 106 74
f 1 74 52
f 1 52 34
f 1 34 21
f 1 21 11
f 1 11 5
f 1 5 2
f 2 5 6
f 2 6 3
f 3 6 14
f 3 14 7
f 4 8 9
f 4 9 10
f 5 11 23
f 5 23 12
f 5 12 6
f 6 12 13
f 6 13 14
f 7 14 15
f 8 16 9
f 9 16 17
f 9 17 18
f 9 18 19
f 9 19 20
f 9 20 10
f 11 21 22
f 11 22 23
f 12 23 24
f 12 24 13
f 13 24 25
f 13 25 26
f 13 26 14
f 14 26 27
f 14 27 15
f 15 27 28
f 17 29 18
f 18 29 30
f 18 30 31
f 18 31 19
f 19 31 32
f 19 32 33
f 19 33 20
f 21 34 22
f 22 34 35
f 22 35 36
f 22 36 23
f 23 36 24
f 24 36 37
f 24 37 25
f 25 37 38
f 25 38 39
f 25 39 40
f 25 40 41
f 25 41 26
f 26 41 42
f 26 42 27
f 27 42 28
f 28 42 43
f 29 44 30
f 30 45 31
f 30 44 46
f 30 46 47
f 30 47 45
f 31 45 48
f 31 48 49
f 31 49 32
f 32 49 50
f 32 50 33
f 33 50 51
f 34 52 53
f 34 53 35
f 35 53 54
f 35 54 55
f 35 55 36
f 36 55 37
f 37 55 56
f 37 56 38
f 38 56 57
f 38 57 58
f 38 58 39
f 39 59 40
f 39 58 60
f 39 60 61
f 39 61 62
f 39 62 59
f 40 59 41
f 41 63 42
f 41 59 63
f 42 63 64
f 42 64 43
f 44 65 46
f 45 47 66
f 45 66 48
f 46 65 67
f 46 67 47
f 47 67 68
f 47 68 66
f 48 66 69
f 48 69 70
f 48 70 49
f 49 70 71
f 49 71 72
f 49 72 50
f 50 72 73
f 50 73 51
f 52 74 53
f 53 74 75
f 53 75 76
f 53 76 77
f 53 77 54
f 54 78 79
f 54 79 55
f 54 77 78
f 55 79 56
f 56 79 80
f 56 80 57
f 57 80 81
f 57 81 60
f 57 60 58
f 59 82 63
f 59 62 82
f 60 81 61
f 61 83 84
f 61 84 62
f 61 81 77
f 61 77 83
f 62 84 85
f 62 85 86
f 62 86 87
f 62 87 88
f 62 88 89
f 62 89 82
f 63 82 90
f 63 90 64
f 65 91 67
f 66 68 92
f 66 92 69
f 67 91 93
f 67 93 94
f 67 94 95
f 67 95 96
f 67 96 97
f 67 97 68
f 68 97 98
f 68 98 92
f 69 99 70
f 69 92 100
f 69 100 99
f 70 99 101
f 70 101 71
f 71 101 72
f 72 101 102
f 72 102 103
f 72 103 73
f 73 103 105
f 73 105 104
f 74 106 75
f 75 107 108
f 75 108 109
f 75 109 77
f 75 77 76
f 75 106 110
f 75 110 111
f 75 111 107
f 77 109 112
f 77 112 113
f 77 113 114
f 77 114 83
f 77 81 80
f 77 80 79
f 77 79 78
f 82 89 90
f 83 114 115
f 83 115 84
f 84 115 85
f 85 115 86
f 86 115 116
f 86 116 117
f 86 117 87
f 87 118 88
f 87 117 118
f 88 118 89
f 89 118 119
f 92 98 100
f 95 120 121
f 95 121 96
f 96 121 97
f 97 121 122
f 97 122 98
f 98 122 123
f 98 123 100
f 99 100 124
f 99 124 125
f 99 125 126
f 99 126 101
f 100 127 125
f 100 125 124
f 100 123 128
f 100 128 129
f 100 129 130
f 100 130 131
f 100 131 132
f 100 132 127
f 101 126 102
f 102 126 133
f 102 133 134
f 102 134 103
f 103 134 105
f 104 105 135
f 105 134 136
f 105 136 137
f 105 137 138
f 105 138 135
f 107 111 139
f 107 139 140
f 107 140 141
f 107 141 142
f 107 142 143
f 107 143 144
f 107 144 145
f 107 145 146
f 107 146 147
f 107 147 108
f 108 147 148
f 108 148 149
f 108 149 112
f 108 112 109
f 112 149 150
f 112 150 113
f 113 150 151
f 113 151 114
f 114 151 152
f 114 152 153
f 114 153 115
f 115 153 154
f 115 154 116
f 116 155 156
f 116 156 117
f 116 154 157
f 116 157 155
f 117 156 158
f 117 158 159
f 117 159 118
f 118 160 119
f 118 159 160
f 120 161 121
f 121 161 162
f 121 162 163
f 121 163 122
f 122 163 164
f 122 164 123
f 123 164 165
f 123 165 128
f 125 166 126
f 125 127 132
f 125 132 166
f 126 166 137
f 126 137 133
f 128 130 129
f 128 165 167
f 128 167 168
f 128 168 169
f 128 169 131
f 128 131 130
f 131 170 171
f 131 171 137
f 131 137 132
f 131 169 172
f 131 172 170
f 132 137 166
f 133 137 134
f 134 137 136
f 137 171 173
f 137 173 174
f 137 174 175
f 137 175 176
f 137 176 138
f 145 177 146
f 146 178 147
f 146 177 179
f 146 179 180
f 146 180 181
f 146 181 182
f 146 182 178
f 147 178 183
f 147 183 184
f 147 184 148
f 148 184 149
f 149 184 185
f 149 185 186
f 149 186 150
f 150 187 151
f 150 186 188
f 150 188 187
f 151 189 190
f 151 190 154
f 151 154 152
f 151 187 188
f 151 188 189
f 152 154 153
f 154 191 157
f 154 190 192
f 154 192 193
f 154 193 194
f 154 194 191
f 155 157 195
f 157 191 196
f 157 196 197
f 157 197 195
f 161 198 199
f 161 199 200
f 161 200 162
f 162 200 163
f 163 200 165
f 163 165 164
f 165 200 201
f 165 201 167
f 167 201 168
f 168 201 202
f 168 202 203
f 168 203 204
f 168 204 169
f 169 204 172
f 170 205 188
f 170 188 185
f 170 185 173
f 170 173 171
f 170 172 205
f 172 204 203
f 172 203 206
f 172 206 207
f 172 207 205
f 173 185 184
f 173 184 208
f 173 208 174
f 174 208 209
f 174 209 210
f 174 210 175
f 175 210 211
f 175 211 212
f 175 212 213
f 175 213 176
f 178 182 214
f 178 214 215
f 178 215 216
f 178 216 183
f 183 216 184
f 184 216 209
f 184 209 208
f 185 188 186
f 188 205 217
f 188 217 192
f 188 192 189
f 189 192 190
f 191 194 218
f 192 217 205
f 192 205 193
f 193 205 207
f 193 207 219
f 193 219 194
f 194 219 218
f 198 220 221
f 198 221 199
f 199 221 222
f 199 222 223
f 199 223 224
f 199 224 225
f 199 225 200
f 200 225 201
f 201 225 202
f 202 224 226
f 202 226 206
f 202 206 203
f 202 225 224
f 206 226 219
f 206 219 207
f 209 216 215
f 209 215 227
f 209 227 228
f 209 228 229
f 209 229 230
f 209 230 231
f 209 231 232
f 209 232 233
f 209 233 234
f 209 234 235
f 209 235 210
f 210 235 211
f 214 227 215
f 218 219 226
f 218 226 236
f 220 222 221
f 223 237 238
f 223 238 224
f 224 238 226
f 226 238 237
f 226 237 239
f 226 239 236
f 236 239 237
