v -0.029526 0.127207 0.085700
v -0.029206 0.128308 0.086812
v -0.029265 0.128308 0.084604
v -0.028128 0.128104 0.081515
v 0.011798 -0.105066 0.075301
v 0.039277 -0.102838 0.147281
v -0.027844 0.128360 0.089460
v -0.027607 0.130255 0.089139
v -0.028057 0.130664 0.087043
v 0.039135 -0.100380 0.147781
v -0.028022 0.130690 0.084402
v -0.027512 0.130280 0.081515
v -0.027133 0.129947 0.080121
v -0.027276 0.128360 0.079964
v -0.027133 0.126798 0.080135
v 0.039514 -0.108266 0.144856
v 0.039928 -0.105629 0.147490
v -0.025558 0.128360 0.078845
v -0.022917 0.128360 0.078099
v 0.011798 -0.066657 0.075301
v 0.028439 -0.116076 0.075301
v 0.042475 -0.122222 0.115942
v 0.042641 -0.122119 0.118568
v 0.041030 -0.120506 0.123827
v 0.041196 -0.120353 0.126461
v 0.041349 -0.120199 0.128378
v 0.041551 -0.120020 0.130123
v 0.040888 -0.118150 0.134338
v 0.041219 -0.117689 0.136971
v 0.041432 -0.117485 0.138329
v 0.041113 -0.115231 0.141626
v 0.040532 -0.113695 0.142395
v 0.040485 -0.111032 0.145028
v 0.040639 -0.102992 0.149631
v -0.008100 0.091308 0.112958
v -0.008124 0.094150 0.112958
v -0.026636 0.128360 0.090766
v -0.024990 0.130152 0.091534
v -0.025736 0.130741 0.089878
v -0.025546 0.131714 0.087043
v -0.025546 0.131740 0.084402
v -0.025546 0.131304 0.081777
v -0.025558 0.130331 0.079636
v 0.040722 -0.108190 0.147579
v 0.041018 -0.105629 0.149243
v -0.022917 0.130511 0.079300
v 0.083005 0.137757 0.080262
v 0.084841 0.136246 0.079837
v 0.072890 -0.063507 0.075301
v 0.068863 -0.060972 0.075301
v 0.014072 -0.060972 0.075301
v 0.032052 -0.118022 0.075301
v 0.042368 -0.122273 0.113324
v 0.043778 -0.122836 0.115942
v 0.044038 -0.122760 0.119262
v 0.043031 -0.122068 0.120970
v 0.042771 -0.121607 0.123827
v 0.042771 -0.121223 0.126461
v 0.041882 -0.119840 0.131712
v 0.042569 -0.120660 0.129183
v 0.043197 -0.120481 0.131712
v 0.042794 -0.119533 0.134435
v 0.042771 -0.118663 0.136971
v 0.042925 -0.117818 0.139359
v 0.043896 -0.117561 0.141089
v 0.042143 -0.117024 0.140075
v 0.041634 -0.114694 0.143379
v 0.040982 -0.112952 0.144260
v 0.041030 -0.110264 0.146766
v 0.043008 -0.102761 0.150958
v 0.042380 -0.100380 0.151138
v 0.040449 -0.100380 0.149825
v 0.042771 -0.105629 0.150198
v 0.040402 -0.097742 0.149892
v -0.007591 0.096787 0.112958
v 0.042830 -0.097742 0.151406
v -0.025321 0.128360 0.091810
v -0.022052 0.129973 0.093929
v 0.014949 0.135273 0.112966
v 0.016690 0.135913 0.112966
v 0.024886 0.137552 0.112653
v 0.027042 0.138167 0.110683
v -0.022917 0.131484 0.081777
v 0.022719 0.137629 0.105424
v 0.022896 0.137629 0.103984
v 0.029659 0.138141 0.102806
v 0.082164 0.138090 0.081657
v 0.041314 -0.107268 0.148929
v 0.085587 0.137732 0.080665
v 0.086713 0.136246 0.080188
v 0.086855 0.134428 0.080128
v 0.074312 -0.063507 0.075324
v 0.074312 -0.092493 0.075301
v 0.033497 -0.118637 0.075301
v 0.043553 -0.122939 0.108453
v 0.042297 -0.122324 0.110698
v 0.043683 -0.122888 0.113324
v 0.045400 -0.122990 0.113324
v 0.045566 -0.122708 0.118829
v 0.045199 -0.122555 0.120970
v 0.045400 -0.122222 0.123827
v 0.045400 -0.121838 0.126461
v 0.043683 -0.120276 0.133622
v 0.045400 -0.122913 0.115942
v 0.045400 -0.119277 0.136971
v 0.045400 -0.118253 0.139597
v 0.045400 -0.117561 0.141097
v 0.045400 -0.116588 0.142410
v 0.045400 -0.115283 0.144088
v 0.043387 -0.115206 0.143976
v 0.042522 -0.113695 0.144991
v 0.041669 -0.112005 0.146013
v 0.042617 -0.108599 0.148870
v 0.044216 -0.101046 0.151496
v 0.045400 -0.105629 0.150541
v 0.044465 -0.109598 0.148825
v -0.006738 0.099399 0.112958
v -0.019044 0.129717 0.096278
v -0.023604 0.128360 0.093130
v 0.044109 -0.096027 0.151511
v -0.004511 0.104341 0.112958
v -0.005695 0.101934 0.112958
v -0.010966 0.129461 0.101411
v -0.005802 0.129640 0.104096
v 0.013788 0.133609 0.112966
v 0.029209 0.137988 0.112966
v 0.027042 0.137808 0.112750
v 0.029659 0.138474 0.110683
v 0.034883 0.138449 0.105424
v 0.082212 0.138244 0.084410
v 0.084841 0.138167 0.084410
v 0.086997 0.137732 0.081627
v 0.088098 0.136144 0.081232
v 0.074312 -0.096769 0.075301
v 0.036470 -0.119533 0.075301
v 0.044121 -0.122708 0.093138
v 0.043541 -0.122862 0.102806
v 0.045388 -0.123041 0.105424
v 0.045400 -0.123067 0.108453
v 0.046999 -0.122836 0.113324
v 0.046893 -0.122785 0.115942
v 0.046774 -0.122708 0.117472
v 0.048030 -0.121530 0.123827
v 0.048030 -0.121146 0.126461
v 0.047591 -0.120429 0.131712
v 0.047094 -0.120225 0.133443
v 0.045400 -0.121351 0.129086
v 0.045400 -0.120839 0.131712
v 0.045400 -0.120327 0.133779
v 0.046845 -0.117510 0.140992
v 0.047177 -0.115078 0.143849
v 0.045400 -0.114105 0.145401
v 0.043422 -0.112645 0.146550
v 0.045246 -0.102761 0.151197
v 0.046182 -0.100380 0.151391
v 0.045696 -0.097742 0.151481
v 0.047390 -0.107806 0.149176
v 0.048172 -0.105552 0.149481
v 0.045637 -0.108523 0.149355
v 0.046668 -0.109572 0.148803
v 0.045637 -0.110648 0.148131
v 0.045400 -0.112799 0.146647
v -0.003528 0.106236 0.112958
v 0.047035 0.135325 0.112966
v 0.044690 0.137168 0.112966
v 0.034954 0.138013 0.112966
v 0.032609 0.138039 0.112966
v 0.011715 0.130383 0.112966
v 0.032265 0.138525 0.110683
v 0.088027 0.137655 0.084820
v 0.088833 0.137604 0.083261
v 0.087151 0.137424 0.086439
v 0.089235 0.136246 0.082478
v 0.089235 0.133609 0.082493
v 0.049806 -0.105552 0.147617
v 0.050410 -0.108266 0.144856
v 0.049889 -0.110853 0.144901
v 0.049972 -0.113567 0.142290
v 0.049629 -0.115231 0.141455
v 0.049771 -0.116128 0.139351
v 0.049451 -0.117561 0.137643
v 0.049806 -0.118099 0.134338
v 0.049261 -0.120020 0.130116
v 0.049439 -0.120173 0.128355
v 0.066068 -0.108087 0.075301
v 0.091474 0.134761 0.085574
v 0.091450 0.134787 0.087715
v 0.038460 -0.120045 0.075301
v 0.045223 -0.122503 0.092280
v 0.046620 -0.122683 0.099031
v 0.045602 -0.122862 0.100023
v 0.045388 -0.122964 0.102806
v 0.044370 -0.122836 0.097554
v 0.042167 -0.120609 0.075301
v 0.045388 -0.122043 0.087036
v 0.046928 -0.122785 0.102806
v 0.047047 -0.122836 0.108453
v 0.047035 -0.122836 0.110698
v 0.048349 -0.122222 0.110698
v 0.048314 -0.122171 0.113324
v 0.047805 -0.122171 0.118434
v 0.048207 -0.122119 0.115942
v 0.048030 -0.121812 0.121201
v 0.048243 -0.120634 0.129176
v 0.048906 -0.119815 0.131712
v 0.048030 -0.118534 0.136971
v 0.047840 -0.117741 0.139351
v 0.048586 -0.117024 0.140067
v 0.047887 -0.116025 0.142096
v 0.048930 -0.114463 0.143208
v 0.048065 -0.113490 0.144827
v 0.047212 -0.112517 0.146430
v 0.048030 -0.100380 0.150272
v 0.048030 -0.097742 0.150198
v 0.048030 -0.102992 0.150078
v 0.072227 0.099578 0.112958
v 0.071398 0.101960 0.112958
v 0.070616 0.103803 0.112958
v 0.069918 0.105161 0.112958
v 0.067857 0.108464 0.112958
v 0.065476 0.111665 0.112958
v 0.049143 -0.106397 0.148579
v 0.048172 -0.108523 0.148266
v 0.049415 -0.104630 0.148885
v 0.048965 -0.111698 0.145811
v 0.068603 0.130331 0.104529
v 0.078351 0.132354 0.098912
v 0.088809 0.134940 0.090997
v 0.087459 0.136093 0.089662
v 0.089851 0.135299 0.089430
v 0.049688 -0.108266 0.146818
v 0.049486 -0.109956 0.146378
v 0.049617 -0.112722 0.144058
v 0.049723 -0.120481 0.123827
v 0.063794 -0.110904 0.075301
v 0.089081 0.133609 0.091288
v 0.089153 0.131868 0.091377
v 0.049475 -0.100380 0.148997
v 0.049451 -0.102992 0.148952
v 0.053277 -0.118534 0.075301
v 0.055207 -0.117766 0.075301
v 0.044784 -0.120609 0.075301
v 0.045388 -0.121735 0.084410
v 0.047959 -0.120045 0.075301
v 0.050647 -0.119328 0.075301
v 0.048243 -0.122145 0.102806
v 0.048326 -0.122171 0.105424
v 0.048361 -0.122222 0.108453
v 0.058547 -0.115795 0.075301
v 0.049937 -0.120762 0.118568
v 0.049877 -0.120660 0.121201
v 0.049451 -0.097742 0.148959
v 0.072701 0.096787 0.112958
v 0.086428 0.132636 0.093787
v 0.061295 -0.113618 0.075301
v 0.056522 -0.117024 0.075301
f 1 2 3
f 1 3 4
f 1 4 5
f 1 5 6
f 1 6 2
f 2 7 8
f 2 8 9
f 2 9 3
f 2 6 10
f 2 10 7
f 3 9 11
f 3 11 12
f 3 12 13
f 3 13 4
f 4 13 14
f 4 14 15
f 4 15 5
f 5 16 17
f 5 17 6
f 5 15 14
f 5 14 18
f 5 18 19
f 5 19 20
f 5 20 51
f 5 51 50
f 5 50 49
f 5 49 93
f 5 93 134
f 5 134 185
f 5 185 235
f 5 235 255
f 5 255 249
f 5 249 256
f 5 256 241
f 5 241 240
f 5 240 245
f 5 245 244
f 5 244 242
f 5 242 194
f 5 194 188
f 5 188 135
f 5 135 94
f 5 94 52
f 5 52 21
f 5 21 22
f 5 22 23
f 5 23 24
f 5 24 25
f 5 25 26
f 5 26 27
f 5 27 28
f 5 28 29
f 5 29 30
f 5 30 31
f 5 31 32
f 5 32 33
f 5 33 16
f 6 34 10
f 6 17 34
f 7 10 34
f 7 34 35
f 7 35 36
f 7 36 37
f 7 37 8
f 8 38 39
f 8 39 40
f 8 40 9
f 8 37 38
f 9 40 41
f 9 41 11
f 11 41 42
f 11 42 12
f 12 42 13
f 13 18 14
f 13 42 43
f 13 43 18
f 16 44 17
f 16 33 44
f 17 44 45
f 17 45 34
f 18 43 19
f 19 43 46
f 19 46 47
f 19 47 48
f 19 48 49
f 19 49 50
f 19 50 51
f 19 51 20
f 21 52 53
f 21 53 22
f 22 53 54
f 22 54 55
f 22 55 23
f 23 55 56
f 23 56 57
f 23 57 25
f 23 25 24
f 25 57 26
f 26 57 58
f 26 58 27
f 27 59 30
f 27 30 29
f 27 29 28
f 27 58 60
f 27 60 61
f 27 61 59
f 30 59 62
f 30 62 63
f 30 63 64
f 30 64 65
f 30 65 66
f 30 66 67
f 30 67 31
f 31 67 32
f 32 67 68
f 32 68 33
f 33 68 69
f 33 69 44
f 34 70 71
f 34 71 72
f 34 72 35
f 34 45 73
f 34 73 70
f 35 72 74
f 35 74 36
f 36 75 37
f 36 74 76
f 36 76 75
f 37 75 77
f 37 77 78
f 37 78 38
f 38 78 79
f 38 79 39
f 39 79 80
f 39 80 40
f 40 80 81
f 40 81 82
f 40 82 41
f 41 83 42
f 41 82 84
f 41 84 85
f 41 85 86
f 41 86 87
f 41 87 83
f 42 83 46
f 42 46 43
f 44 88 45
f 44 69 88
f 45 88 73
f 46 83 47
f 47 87 89
f 47 89 48
f 47 83 87
f 48 89 90
f 48 90 91
f 48 91 92
f 48 92 49
f 49 92 93
f 52 94 95
f 52 95 96
f 52 96 53
f 53 96 97
f 53 97 54
f 54 97 98
f 54 98 55
f 55 99 100
f 55 100 101
f 55 101 102
f 55 102 103
f 55 103 61
f 55 61 58
f 55 58 57
f 55 57 56
f 55 98 104
f 55 104 99
f 58 61 60
f 59 61 103
f 59 103 62
f 62 103 63
f 63 103 65
f 63 65 64
f 65 105 106
f 65 106 107
f 65 107 108
f 65 108 109
f 65 109 110
f 65 110 67
f 65 67 66
f 65 103 105
f 67 110 111
f 67 111 112
f 67 112 68
f 68 112 69
f 69 112 113
f 69 113 88
f 70 114 71
f 70 73 115
f 70 115 114
f 71 76 74
f 71 74 72
f 71 114 76
f 73 88 113
f 73 113 116
f 73 116 115
f 75 117 118
f 75 118 78
f 75 78 119
f 75 119 77
f 75 76 117
f 76 114 120
f 76 120 121
f 76 121 122
f 76 122 117
f 77 119 78
f 78 118 79
f 79 118 123
f 79 123 124
f 79 124 125
f 79 125 120
f 79 120 80
f 80 120 126
f 80 126 81
f 81 126 127
f 81 127 82
f 82 127 128
f 82 128 84
f 84 128 85
f 85 128 86
f 86 128 129
f 86 129 87
f 87 129 130
f 87 130 131
f 87 131 132
f 87 132 89
f 89 132 90
f 90 133 91
f 90 132 133
f 91 133 134
f 91 134 93
f 91 93 92
f 94 135 136
f 94 136 137
f 94 137 95
f 95 137 138
f 95 138 139
f 95 139 97
f 95 97 96
f 97 139 98
f 98 139 140
f 98 140 141
f 98 141 104
f 99 104 142
f 99 142 100
f 100 142 101
f 101 142 143
f 101 143 144
f 101 144 102
f 102 144 145
f 102 145 146
f 102 146 147
f 102 147 103
f 103 147 148
f 103 148 149
f 103 149 105
f 104 141 142
f 105 150 106
f 105 149 146
f 105 146 150
f 106 150 107
f 107 150 108
f 108 150 109
f 109 151 152
f 109 152 110
f 109 150 151
f 110 152 153
f 110 153 111
f 111 153 112
f 112 153 113
f 113 153 116
f 114 115 154
f 114 154 155
f 114 155 156
f 114 156 120
f 115 157 158
f 115 158 155
f 115 155 154
f 115 116 159
f 115 159 160
f 115 160 157
f 116 161 160
f 116 160 159
f 116 153 162
f 116 162 161
f 117 122 118
f 118 122 123
f 120 163 121
f 120 156 164
f 120 164 165
f 120 165 166
f 120 166 167
f 120 167 126
f 120 125 168
f 120 168 163
f 121 163 123
f 121 123 122
f 123 163 124
f 124 168 125
f 124 163 168
f 126 167 169
f 126 169 128
f 126 128 127
f 128 169 129
f 129 169 130
f 130 169 131
f 131 170 171
f 131 171 132
f 131 169 166
f 131 166 165
f 131 165 172
f 131 172 170
f 132 171 133
f 133 171 173
f 133 173 174
f 133 174 134
f 134 175 176
f 134 176 177
f 134 177 178
f 134 178 179
f 134 179 180
f 134 180 181
f 134 181 182
f 134 182 183
f 134 183 184
f 134 184 185
f 134 174 186
f 134 186 187
f 134 187 175
f 135 188 136
f 136 189 190
f 136 190 191
f 136 191 192
f 136 192 193
f 136 193 137
f 136 188 194
f 136 194 195
f 136 195 189
f 137 193 138
f 138 192 191
f 138 191 196
f 138 196 197
f 138 197 139
f 138 193 192
f 139 197 198
f 139 198 140
f 140 198 199
f 140 199 200
f 140 200 202
f 140 202 141
f 141 201 142
f 141 202 201
f 142 201 203
f 142 203 143
f 143 203 184
f 143 184 183
f 143 183 144
f 144 204 145
f 144 183 204
f 145 204 183
f 145 183 205
f 145 205 146
f 146 149 148
f 146 148 147
f 146 205 181
f 146 181 206
f 146 206 207
f 146 207 150
f 150 207 208
f 150 208 209
f 150 209 151
f 151 210 211
f 151 211 212
f 151 212 152
f 151 209 210
f 152 162 153
f 152 212 162
f 155 213 214
f 155 214 156
f 155 158 215
f 155 215 213
f 156 214 216
f 156 216 217
f 156 217 218
f 156 218 219
f 156 219 220
f 156 220 221
f 156 221 164
f 157 222 158
f 157 160 223
f 157 223 222
f 158 224 215
f 158 222 224
f 160 161 162
f 160 162 212
f 160 212 225
f 160 225 223
f 164 226 227
f 164 227 165
f 164 221 226
f 165 227 228
f 165 228 229
f 165 229 172
f 166 169 167
f 170 172 230
f 170 230 171
f 171 230 187
f 171 187 186
f 171 186 173
f 172 229 230
f 173 186 174
f 175 224 231
f 175 231 176
f 175 187 224
f 176 231 177
f 177 232 233
f 177 233 178
f 177 231 232
f 178 233 179
f 179 233 210
f 179 210 208
f 179 208 181
f 179 181 180
f 181 208 207
f 181 207 206
f 181 205 183
f 181 183 182
f 184 203 234
f 184 234 235
f 184 235 185
f 187 236 237
f 187 237 238
f 187 238 239
f 187 239 224
f 187 230 228
f 187 228 236
f 189 195 190
f 190 196 191
f 190 195 240
f 190 240 241
f 190 241 196
f 194 242 243
f 194 243 195
f 195 243 244
f 195 244 245
f 195 245 240
f 196 241 246
f 196 246 247
f 196 247 248
f 196 248 197
f 197 248 199
f 197 199 198
f 199 248 249
f 199 249 200
f 200 249 250
f 200 250 202
f 201 202 203
f 202 250 251
f 202 251 203
f 203 251 234
f 208 210 209
f 210 233 225
f 210 225 211
f 211 225 212
f 213 215 224
f 213 224 239
f 213 239 238
f 213 238 252
f 213 252 214
f 214 252 253
f 214 253 216
f 216 253 236
f 216 236 254
f 216 254 217
f 217 254 218
f 218 254 219
f 219 254 227
f 219 227 220
f 220 227 226
f 220 226 221
f 222 223 232
f 222 232 231
f 222 231 224
f 223 225 232
f 225 233 232
f 227 254 228
f 228 230 229
f 228 254 236
f 234 251 235
f 235 251 255
f 236 253 237
f 237 253 252
f 237 252 238
f 241 256 248
f 241 248 247
f 241 247 246
f 242 244 243
f 248 256 249
f 249 255 250
f 250 255 251
