v -0.016376 -0.085608 0.073515
v -0.015971 -0.084787 0.069742
v -0.015832 -0.089860 0.071244
v -0.015705 -0.089860 0.073869
v -0.015751 -0.084407 0.075840
v -0.015347 -0.081968 0.076501
v -0.016226 -0.082189 0.072291
v -0.014144 -0.087238 0.066923
v -0.014052 -0.089860 0.066968
v -0.013797 -0.097225 0.067218
v -0.013681 -0.099663 0.067531
v -0.015590 -0.079334 0.071244
v -0.015104 -0.081968 0.068609
v -0.015416 -0.092495 0.071244
v -0.013635 -0.102433 0.069153
v -0.014572 -0.097739 0.071244
v -0.013959 -0.101171 0.071598
v -0.013797 -0.096698 0.075267
v -0.014641 -0.089860 0.076283
v -0.014167 -0.087360 0.077396
v -0.013288 -0.081968 0.078750
v -0.014329 -0.078990 0.077231
v -0.015566 -0.079334 0.073869
v -0.012409 -0.087238 0.066006
v -0.010698 -0.102984 0.064820
v -0.013173 -0.081576 0.066762
v -0.013288 -0.084603 0.066528
v -0.011149 -0.110888 0.065699
v -0.011010 -0.113376 0.066253
v -0.012201 -0.110888 0.068609
v 0.007527 -0.000906 0.080091
v -0.014341 -0.078341 0.068916
v -0.011010 -0.113351 0.071785
v -0.011126 -0.103854 0.075270
v -0.011762 -0.090914 0.078089
v -0.013254 -0.084603 0.078563
v -0.009784 -0.081968 0.079986
v -0.012409 -0.079346 0.079113
v 0.033002 -0.076711 0.049306
v -0.010154 -0.105607 0.064580
v -0.009357 -0.110888 0.064248
v 0.017576 -0.000906 0.066980
v 0.019842 -0.000906 0.065092
v 0.021901 -0.000906 0.063586
v 0.034124 -0.072422 0.049306
v -0.007899 -0.116501 0.064093
v -0.008836 -0.118045 0.065984
v -0.011114 -0.114908 0.068511
v 0.008093 -0.015881 0.081618
v 0.069058 -0.016065 0.081618
v 0.067798 -0.000906 0.079581
v 0.009655 -0.000906 0.075992
v 0.011343 -0.000906 0.073610
v 0.013066 -0.000906 0.071475
v 0.014824 -0.000906 0.069561
v -0.010247 -0.116047 0.071149
v -0.007934 -0.116489 0.073135
v -0.008709 -0.107310 0.075270
v -0.009784 -0.087225 0.079120
v -0.009784 -0.084603 0.079607
v -0.009946 -0.093843 0.077826
v -0.004534 -0.076711 0.080859
v -0.008177 -0.079064 0.080410
v 0.033268 -0.084505 0.049306
v -0.008189 -0.113498 0.063915
v 0.033869 -0.095105 0.049306
v 0.024907 -0.000906 0.062410
v 0.037581 -0.069959 0.049306
v 0.027324 -0.000906 0.061648
v 0.029891 -0.000906 0.060968
v 0.032516 -0.000906 0.060541
v 0.034748 -0.098830 0.049306
v -0.004534 -0.118768 0.063349
v -0.003309 -0.121733 0.064029
v -0.007067 -0.119258 0.064918
v -0.004546 -0.122665 0.065984
v -0.008165 -0.120104 0.068840
v -0.008917 -0.118559 0.071073
v 0.008383 -0.019042 0.081618
v -0.004534 -0.074089 0.080862
v -0.001909 -0.074089 0.080986
v 0.069197 -0.021518 0.081618
v 0.090105 -0.071454 0.079477
v 0.092718 -0.071454 0.079164
v 0.096141 -0.073672 0.078266
v 0.099830 -0.071589 0.071244
v 0.099738 -0.072888 0.068242
v 0.066260 -0.000906 0.076498
v 0.099009 -0.074076 0.076324
v 0.099969 -0.073170 0.074233
v -0.007148 -0.113498 0.074176
v -0.006789 -0.118927 0.072541
v -0.004338 -0.119748 0.072892
v 0.037489 -0.119834 0.075293
v 0.042184 -0.120643 0.075293
v -0.001909 -0.076711 0.080900
v 0.040657 -0.069359 0.049306
v 0.036356 -0.000906 0.060202
v 0.037581 -0.100999 0.049306
v 0.000739 -0.121390 0.062843
v 0.000739 -0.123706 0.063852
v -0.004569 -0.123192 0.069583
v 0.000739 -0.125312 0.065949
v -0.001505 -0.124834 0.067167
v 0.008914 -0.024361 0.081618
v 0.013286 -0.061038 0.081615
v 0.011204 -0.045965 0.081618
v 0.009446 -0.029593 0.081618
v 0.069255 -0.024005 0.081618
v 0.092718 -0.074076 0.079006
v 0.069301 -0.026775 0.081618
v 0.069371 -0.034520 0.081618
v 0.069394 -0.037289 0.081618
v 0.069405 -0.061038 0.081615
v 0.054395 -0.118082 0.075293
v 0.095355 -0.076711 0.078348
v 0.097702 -0.076711 0.077633
v 0.100790 -0.074076 0.071244
v 0.101484 -0.076711 0.071244
v 0.101414 -0.079334 0.068609
v 0.100501 -0.076711 0.067622
v 0.097980 -0.074076 0.065911
v 0.060709 -0.000906 0.069318
v 0.062479 -0.000906 0.071203
v 0.064849 -0.000906 0.074214
v 0.100593 -0.076711 0.074913
v -0.004534 -0.116145 0.073787
v -0.001886 -0.123792 0.071042
v -0.001886 -0.121635 0.072579
v 0.000739 -0.122481 0.072509
v 0.003364 -0.124025 0.071646
v 0.044797 -0.120655 0.075293
v 0.011782 -0.074983 0.081008
v 0.044740 -0.069260 0.049306
v 0.040195 -0.000906 0.060136
v 0.040206 -0.101244 0.049306
v 0.003468 -0.124858 0.064396
v 0.000600 -0.125532 0.069761
v 0.028804 -0.125373 0.067319
v 0.005989 -0.126096 0.069523
v 0.003364 -0.126010 0.069511
v 0.069324 -0.045965 0.081618
v 0.095355 -0.081968 0.077500
v 0.047943 -0.120079 0.075293
v 0.050649 -0.119344 0.075293
v 0.090093 -0.117273 0.070981
v 0.092718 -0.113498 0.071877
v 0.095239 -0.110717 0.072224
v 0.096951 -0.093254 0.075299
v 0.096361 -0.079370 0.077747
v 0.097980 -0.081968 0.076858
v 0.099853 -0.081968 0.075726
v 0.100674 -0.079334 0.074897
v 0.101761 -0.079334 0.071244
v 0.101426 -0.081968 0.068609
v 0.100270 -0.095105 0.065984
v 0.100258 -0.092495 0.065984
v 0.100258 -0.087238 0.066120
v 0.100258 -0.084603 0.066209
v 0.100235 -0.081968 0.066291
v 0.100177 -0.079334 0.066395
v 0.049851 -0.000906 0.062347
v 0.054950 -0.000906 0.064845
v 0.058489 -0.000906 0.067363
v 0.097460 -0.078267 0.064883
v 0.101079 -0.081968 0.073869
v 0.021774 -0.125201 0.069489
v 0.057379 -0.122726 0.069938
v 0.084832 -0.120888 0.069406
v 0.087804 -0.119650 0.070137
v 0.048162 -0.070118 0.049306
v 0.042993 -0.000906 0.060471
v 0.042658 -0.101195 0.049306
v 0.042184 -0.109295 0.053902
v 0.024433 -0.124956 0.065627
v 0.006370 -0.124772 0.064276
v 0.061068 -0.122824 0.064931
v 0.066422 -0.122787 0.065740
v 0.069058 -0.122922 0.066667
v 0.073187 -0.122738 0.067293
v 0.069058 -0.122922 0.067771
v 0.092811 -0.117113 0.070241
v 0.095760 -0.114797 0.070150
v 0.096511 -0.108364 0.072427
v 0.099379 -0.101048 0.072636
v 0.098315 -0.089223 0.075413
v 0.099541 -0.085632 0.075387
v 0.100755 -0.084603 0.073869
v 0.101703 -0.081968 0.071244
v 0.101391 -0.084603 0.068609
v 0.099853 -0.105607 0.065196
v 0.099402 -0.095105 0.064573
v 0.099067 -0.087238 0.064814
v 0.097968 -0.081968 0.064722
v 0.045399 -0.000906 0.061005
v 0.049990 -0.071797 0.049306
v 0.050915 -0.074076 0.049306
v 0.100478 -0.097739 0.071244
v 0.100744 -0.095105 0.071244
v 0.100987 -0.092495 0.071244
v 0.101414 -0.087238 0.071244
v 0.101576 -0.084603 0.071244
v 0.066422 -0.123008 0.067992
v 0.089978 -0.120091 0.068473
v 0.082207 -0.121856 0.065984
v 0.045098 -0.101060 0.049306
v 0.045399 -0.105913 0.052083
v 0.084832 -0.118780 0.062119
v 0.076945 -0.119711 0.062207
v 0.062964 -0.120104 0.062040
v 0.055910 -0.120238 0.061964
v 0.024433 -0.123633 0.063691
v 0.045399 -0.123155 0.064067
v 0.048024 -0.123094 0.064137
v 0.053285 -0.122947 0.064314
v 0.058547 -0.122799 0.064532
v 0.027024 -0.123584 0.063726
v 0.032308 -0.123461 0.063808
v 0.084832 -0.121194 0.064893
v 0.094395 -0.117751 0.067999
v 0.098581 -0.110631 0.069862
v 0.099795 -0.108254 0.069460
v 0.100131 -0.105607 0.069659
v 0.101079 -0.095105 0.068609
v 0.101183 -0.092495 0.068609
v 0.101276 -0.089860 0.068609
v 0.101333 -0.087238 0.068609
v 0.099206 -0.110484 0.066253
v 0.098847 -0.108303 0.064311
v 0.097980 -0.105607 0.063267
v 0.100940 -0.097739 0.068609
v 0.098662 -0.092139 0.064320
v 0.098708 -0.089676 0.064491
v 0.097540 -0.084603 0.064352
v 0.052291 -0.080498 0.049306
v 0.087873 -0.120741 0.065149
v 0.090290 -0.120140 0.065984
v 0.047792 -0.100852 0.049306
v 0.087480 -0.119184 0.062821
v 0.082207 -0.120189 0.063020
v 0.087480 -0.117885 0.061837
v 0.079582 -0.120912 0.063593
v 0.093146 -0.118082 0.065187
v 0.097089 -0.113768 0.064874
v 0.097668 -0.110888 0.063764
v 0.097980 -0.102984 0.063406
v 0.094939 -0.111305 0.062211
v 0.095170 -0.108303 0.062239
v 0.095366 -0.105607 0.062337
v 0.097980 -0.095105 0.063846
v 0.052545 -0.083684 0.049306
v 0.090336 -0.117444 0.062024
v 0.050256 -0.100092 0.049306
v 0.094511 -0.113989 0.062691
v 0.052372 -0.097543 0.049306
v 0.052857 -0.095105 0.049306
f 1 2 3
f 1 3 4
f 1 4 5
f 1 5 6
f 1 6 7
f 1 7 2
f 2 8 9
f 2 9 10
f 2 10 11
f 2 11 3
f 2 7 12
f 2 12 13
f 2 13 8
f 3 14 4
f 3 11 15
f 3 15 14
f 4 14 16
f 4 16 17
f 4 17 18
f 4 18 19
f 4 19 5
f 5 19 20
f 5 20 6
f 6 20 21
f 6 21 22
f 6 22 23
f 6 23 7
f 7 23 12
f 8 24 25
f 8 25 9
f 8 13 26
f 8 26 27
f 8 27 24
f 9 25 28
f 9 28 10
f 10 28 11
f 11 28 29
f 11 29 30
f 11 30 15
f 12 23 31
f 12 31 32
f 12 32 13
f 13 32 26
f 14 15 16
f 15 30 16
f 16 30 17
f 17 30 33
f 17 33 18
f 18 33 34
f 18 34 20
f 18 20 19
f 20 34 35
f 20 35 36
f 20 36 21
f 21 37 38
f 21 38 22
f 21 36 37
f 22 38 31
f 22 31 23
f 24 27 39
f 24 39 25
f 25 40 41
f 25 41 28
f 25 39 40
f 26 32 42
f 26 42 43
f 26 43 44
f 26 44 45
f 26 45 39
f 26 39 27
f 28 41 46
f 28 46 29
f 29 46 47
f 29 47 48
f 29 48 30
f 30 48 33
f 31 49 50
f 31 50 51
f 31 51 88
f 31 88 125
f 31 125 124
f 31 124 123
f 31 123 164
f 31 164 163
f 31 163 162
f 31 162 195
f 31 195 172
f 31 172 135
f 31 135 98
f 31 98 71
f 31 71 70
f 31 70 69
f 31 69 67
f 31 67 44
f 31 44 43
f 31 43 42
f 31 42 55
f 31 55 54
f 31 54 53
f 31 53 52
f 31 52 32
f 31 38 49
f 32 52 53
f 32 53 54
f 32 54 55
f 32 55 42
f 33 48 56
f 33 56 57
f 33 57 34
f 34 57 58
f 34 58 35
f 35 59 60
f 35 60 36
f 35 58 61
f 35 61 59
f 36 60 37
f 37 62 63
f 37 63 38
f 37 60 62
f 38 63 49
f 39 45 68
f 39 68 97
f 39 97 134
f 39 134 171
f 39 171 196
f 39 196 197
f 39 197 235
f 39 235 251
f 39 251 256
f 39 256 255
f 39 255 253
f 39 253 238
f 39 238 206
f 39 206 173
f 39 173 136
f 39 136 99
f 39 99 72
f 39 72 66
f 39 66 64
f 39 64 41
f 39 41 40
f 41 65 46
f 41 64 66
f 41 66 65
f 44 67 45
f 45 67 69
f 45 69 70
f 45 70 71
f 45 71 68
f 46 65 72
f 46 72 73
f 46 73 74
f 46 74 75
f 46 75 47
f 47 75 76
f 47 76 77
f 47 77 48
f 48 77 78
f 48 78 56
f 49 79 105
f 49 105 108
f 49 108 107
f 49 107 142
f 49 142 113
f 49 113 112
f 49 112 111
f 49 111 109
f 49 109 82
f 49 82 50
f 49 63 80
f 49 80 62
f 49 62 81
f 49 81 79
f 50 82 83
f 50 83 84
f 50 84 85
f 50 85 51
f 51 86 87
f 51 87 88
f 51 85 89
f 51 89 90
f 51 90 86
f 56 78 57
f 57 91 58
f 57 78 92
f 57 92 93
f 57 93 91
f 58 91 61
f 59 61 91
f 59 91 94
f 59 94 60
f 60 94 95
f 60 95 62
f 62 95 96
f 62 96 81
f 62 80 63
f 65 66 72
f 68 71 98
f 68 98 97
f 72 99 100
f 72 100 73
f 73 100 74
f 74 101 76
f 74 76 75
f 74 100 101
f 76 102 77
f 76 101 103
f 76 103 104
f 76 104 102
f 77 102 78
f 78 102 92
f 79 81 105
f 81 106 107
f 81 107 108
f 81 108 105
f 81 96 106
f 82 109 83
f 83 110 84
f 83 109 111
f 83 111 112
f 83 112 113
f 83 113 114
f 83 114 115
f 83 115 110
f 84 110 116
f 84 116 85
f 85 116 117
f 85 117 89
f 86 90 118
f 86 118 87
f 87 118 119
f 87 119 120
f 87 120 121
f 87 121 122
f 87 122 123
f 87 123 124
f 87 124 125
f 87 125 88
f 89 117 126
f 89 126 90
f 90 126 119
f 90 119 118
f 91 93 127
f 91 127 94
f 92 102 128
f 92 128 129
f 92 129 93
f 93 129 127
f 94 127 129
f 94 129 130
f 94 130 95
f 95 130 131
f 95 131 132
f 95 132 96
f 96 133 106
f 96 132 133
f 97 98 135
f 97 135 134
f 99 136 101
f 99 101 100
f 101 137 103
f 101 136 137
f 102 104 138
f 102 138 128
f 103 137 139
f 103 139 140
f 103 140 141
f 103 141 138
f 103 138 104
f 106 114 142
f 106 142 107
f 106 133 114
f 110 143 116
f 110 115 143
f 113 142 114
f 114 133 132
f 114 132 144
f 114 144 145
f 114 145 115
f 115 145 146
f 115 146 147
f 115 147 148
f 115 148 149
f 115 149 143
f 116 143 150
f 116 150 117
f 117 150 151
f 117 151 152
f 117 152 153
f 117 153 126
f 119 154 120
f 119 126 154
f 120 154 155
f 120 155 156
f 120 156 157
f 120 157 158
f 120 158 159
f 120 159 160
f 120 160 161
f 120 161 121
f 121 161 122
f 122 162 163
f 122 163 164
f 122 164 123
f 122 161 165
f 122 165 162
f 126 153 166
f 126 166 154
f 128 138 131
f 128 131 130
f 128 130 129
f 131 138 141
f 131 141 140
f 131 140 132
f 132 140 167
f 132 167 168
f 132 168 169
f 132 169 170
f 132 170 144
f 134 135 171
f 135 172 171
f 136 173 174
f 136 174 137
f 137 175 139
f 137 174 176
f 137 176 175
f 139 167 140
f 139 175 177
f 139 177 178
f 139 178 179
f 139 179 180
f 139 180 181
f 139 181 167
f 143 149 150
f 144 170 145
f 145 170 146
f 146 182 147
f 146 170 182
f 147 182 148
f 148 182 183
f 148 183 184
f 148 184 149
f 149 184 185
f 149 185 186
f 149 186 151
f 149 151 150
f 151 186 187
f 151 187 152
f 152 187 185
f 152 185 188
f 152 188 166
f 152 166 153
f 154 166 189
f 154 189 227
f 154 227 190
f 154 190 155
f 155 190 191
f 155 191 156
f 156 191 157
f 157 191 192
f 157 192 158
f 158 192 159
f 159 192 160
f 160 192 161
f 161 192 193
f 161 193 194
f 161 194 165
f 162 165 196
f 162 196 195
f 165 194 197
f 165 197 196
f 166 188 185
f 166 185 198
f 166 198 199
f 166 199 200
f 166 200 201
f 166 201 202
f 166 202 189
f 167 181 203
f 167 203 168
f 168 203 181
f 168 181 169
f 169 204 170
f 169 181 180
f 169 180 205
f 169 205 204
f 170 204 182
f 171 172 196
f 172 195 196
f 173 206 174
f 174 206 207
f 174 207 208
f 174 208 209
f 174 209 210
f 174 210 211
f 174 211 212
f 174 212 176
f 175 176 213
f 175 213 214
f 175 214 215
f 175 215 216
f 175 216 177
f 176 212 217
f 176 217 218
f 176 218 213
f 177 216 219
f 177 219 205
f 177 205 178
f 178 205 179
f 179 205 180
f 182 204 220
f 182 220 183
f 183 221 184
f 183 220 221
f 184 221 185
f 185 221 222
f 185 222 223
f 185 223 198
f 185 187 186
f 189 202 224
f 189 224 225
f 189 225 226
f 189 226 227
f 190 227 191
f 191 223 222
f 191 222 228
f 191 228 229
f 191 229 230
f 191 230 192
f 191 227 226
f 191 226 225
f 191 225 224
f 191 224 231
f 191 231 223
f 192 230 232
f 192 232 193
f 193 232 233
f 193 233 234
f 193 234 194
f 194 234 197
f 197 234 235
f 198 223 199
f 199 223 200
f 200 223 231
f 200 231 201
f 201 231 202
f 202 231 224
f 204 205 236
f 204 236 237
f 204 237 220
f 205 219 236
f 206 238 207
f 207 238 208
f 208 239 240
f 208 240 209
f 208 238 241
f 208 241 239
f 209 240 242
f 209 242 214
f 209 214 213
f 209 213 218
f 209 218 210
f 210 218 217
f 210 217 212
f 210 212 211
f 214 242 215
f 215 242 216
f 216 242 219
f 219 242 240
f 219 240 239
f 219 239 236
f 220 237 243
f 220 243 244
f 220 244 228
f 220 228 221
f 221 228 222
f 228 244 245
f 228 245 229
f 229 245 230
f 230 246 232
f 230 245 247
f 230 247 248
f 230 248 249
f 230 249 246
f 232 246 250
f 232 250 233
f 233 250 234
f 234 250 235
f 235 250 249
f 235 249 251
f 236 239 252
f 236 252 237
f 237 252 243
f 238 253 252
f 238 252 241
f 239 241 252
f 243 252 254
f 243 254 244
f 244 254 245
f 245 254 247
f 246 249 250
f 247 255 256
f 247 256 248
f 247 254 252
f 247 252 255
f 248 256 251
f 248 251 249
f 252 253 255
