v 0.033610 0.109894 0.143223
v -0.007902 0.095367 0.112966
v 0.029496 0.109623 0.143223
v 0.032306 0.103997 0.146504
v 0.134794 0.091514 0.155447
v 0.138732 0.092425 0.154964
v 0.140312 0.095417 0.151485
v 0.140036 0.096389 0.147481
v 0.143598 0.095700 0.144527
v 0.072714 0.095466 0.112966
v 0.007624 0.011248 0.112962
v -0.007877 0.089951 0.112966
v -0.067599 -0.008339 0.121018
v -0.070233 -0.005716 0.121414
v -0.074096 -0.002491 0.122263
v -0.079338 0.004144 0.124321
v -0.079789 0.008466 0.124941
v -0.088242 0.061033 0.135851
v -0.089522 0.069096 0.139563
v -0.086938 0.073725 0.140510
v -0.082147 0.078194 0.141233
v -0.077080 0.082219 0.144545
v 0.066870 0.039796 0.112962
v -0.076805 0.082503 0.148816
v -0.075149 0.082047 0.152213
v -0.071562 0.080865 0.154413
v -0.067599 0.078514 0.156174
v -0.059723 0.078674 0.156325
v 0.099277 0.088904 0.155748
v 0.132160 0.088904 0.156308
v 0.143974 0.088904 0.155877
v 0.105874 0.088904 0.155894
v 0.116383 0.088904 0.156114
v 0.120321 0.088904 0.156174
v 0.143849 0.093533 0.153126
v 0.143247 0.095601 0.149083
v 0.149091 0.093755 0.145057
v 0.147687 0.092302 0.140618
v 0.152578 0.089631 0.140855
v 0.157519 0.082712 0.139145
v 0.156491 0.077123 0.136024
v 0.154584 0.050913 0.130387
v 0.154584 0.020986 0.125096
v 0.150019 0.011026 0.122659
v 0.140036 0.002187 0.121134
v 0.072689 0.091539 0.112966
v 0.013092 -0.008462 0.112962
v 0.000526 0.040720 0.112966
v -0.002083 0.054372 0.112966
v -0.003161 0.060220 0.112966
v -0.004867 0.070143 0.112966
v -0.005594 0.074427 0.112966
v -0.063686 -0.011970 0.121466
v -0.071713 -0.009939 0.122977
v 0.014948 -0.013977 0.112962
v -0.075450 -0.006923 0.124054
v -0.078585 -0.001469 0.124398
v -0.082523 0.008749 0.127231
v -0.082599 0.012700 0.127266
v -0.090023 0.051221 0.135602
v -0.090324 0.056908 0.136368
v -0.091754 0.061303 0.138482
v -0.092456 0.065206 0.140997
v -0.090625 0.071780 0.146176
v -0.086762 0.076667 0.145935
v -0.081972 0.080262 0.146086
v 0.066042 0.010288 0.112962
v -0.082172 0.078785 0.152062
v -0.076729 0.079253 0.154667
v -0.071512 0.077000 0.156566
v -0.057089 0.077418 0.156794
v -0.026187 0.079893 0.156553
v 0.094085 0.084965 0.156687
v 0.136098 0.087587 0.156364
v 0.140036 0.087587 0.156273
v 0.143974 0.084952 0.155903
v 0.148916 0.083635 0.155279
v 0.150922 0.087402 0.154405
v 0.148590 0.091342 0.153027
v 0.150471 0.092856 0.148734
v 0.154083 0.090554 0.146573
v 0.156315 0.087058 0.141436
v 0.161633 0.078378 0.143541
v 0.159225 0.078182 0.138245
v 0.158372 0.071817 0.135782
v 0.157168 0.043194 0.130387
v 0.157168 0.023546 0.127757
v 0.154584 0.017305 0.124915
v 0.148514 0.005129 0.122560
v 0.144250 0.003270 0.121849
v 0.151625 0.007013 0.123894
v 0.138531 -0.002466 0.123360
v 0.060474 -0.015848 0.113724
v 0.063433 -0.007292 0.112962
v 0.065540 0.006102 0.112962
v 0.071109 0.056219 0.112966
v 0.072112 0.076113 0.112966
v 0.072313 0.081382 0.112966
v -0.061303 -0.015183 0.125268
v -0.068828 -0.012377 0.123507
v -0.076127 -0.008659 0.130008
v -0.071136 -0.012266 0.128812
v -0.079689 -0.004128 0.130159
v -0.081796 0.000303 0.130344
v -0.082373 0.004194 0.127989
v -0.084756 0.014929 0.130336
v -0.084982 0.019274 0.130034
v -0.089973 0.044031 0.135658
v -0.092782 0.055394 0.139442
v -0.093710 0.062621 0.143546
v -0.092807 0.066548 0.146086
v -0.090124 0.070019 0.150749
v -0.085834 0.076495 0.151119
v -0.081119 0.076556 0.154788
v -0.077005 0.073984 0.156545
v -0.071562 0.073306 0.156846
v -0.067599 0.074611 0.156893
v -0.055785 0.075756 0.156949
v 0.072990 0.082343 0.156725
v 0.078358 0.082318 0.156682
v 0.121626 0.086257 0.156497
v 0.151875 0.066769 0.151395
v 0.153957 0.079548 0.153944
v 0.153456 0.083648 0.154133
v 0.154334 0.086257 0.152674
v 0.153079 0.089729 0.151214
v 0.157444 0.087095 0.145759
v 0.161156 0.070500 0.138835
v 0.160078 0.082219 0.146426
v 0.161156 0.078378 0.147481
v 0.162260 0.074427 0.143395
v 0.159400 0.067865 0.136028
v 0.159701 0.063519 0.135722
v 0.156466 0.013747 0.127266
v 0.159952 0.058657 0.135412
v 0.160052 0.053388 0.135184
v 0.157594 0.019939 0.128540
v 0.154058 0.010029 0.125371
v 0.148840 0.001658 0.125578
v 0.144225 -0.000854 0.124536
v 0.151273 0.003369 0.128450
v 0.138732 -0.003587 0.127795
v 0.133389 -0.004239 0.129061
v 0.051920 -0.015873 0.121160
v 0.023125 -0.015873 0.121457
v 0.036294 -0.015848 0.127038
v -0.057089 -0.015011 0.130534
v -0.066270 -0.014506 0.127722
v -0.072290 -0.009237 0.132807
v -0.076554 -0.006086 0.133264
v -0.060977 -0.014433 0.130732
v -0.079012 -0.001223 0.134689
v -0.082674 0.003529 0.132222
v -0.083978 0.008749 0.131726
v -0.088920 0.032410 0.136975
v -0.089747 0.037753 0.136743
v -0.087364 0.028249 0.133035
v -0.093485 0.054729 0.142232
v -0.093936 0.058681 0.143546
v -0.092908 0.061303 0.148678
v -0.090901 0.063938 0.151559
v -0.086838 0.071718 0.153432
v -0.084028 0.074230 0.154379
v -0.080768 0.071817 0.156101
v -0.047909 0.073959 0.156829
v -0.083376 0.069182 0.155468
v -0.085132 0.063987 0.154288
v -0.086010 0.058681 0.153014
v -0.083376 0.051332 0.151309
v -0.041337 0.075756 0.156906
v -0.032032 0.074439 0.156695
v 0.129000 0.008441 0.135757
v 0.150571 0.015335 0.137173
v 0.152653 0.021121 0.138504
v 0.154559 0.040227 0.143567
v 0.154885 0.050236 0.146319
v 0.155713 0.067853 0.151076
v 0.040132 0.058977 0.151365
v 0.156917 0.073257 0.151886
v 0.158623 0.077406 0.151231
v 0.157143 0.084657 0.150667
v 0.161658 0.063926 0.139597
v 0.160780 0.057352 0.136979
v 0.160554 0.066548 0.137246
v 0.162310 0.070697 0.143808
v 0.160981 0.074451 0.148510
v 0.158297 0.021909 0.131739
v 0.157444 0.016332 0.132334
v 0.155061 0.009401 0.131360
v 0.160002 0.045570 0.134956
v 0.158547 0.025861 0.131739
v 0.147912 0.000500 0.130034
v 0.143724 -0.001789 0.129587
v 0.134794 -0.002750 0.131373
v 0.128523 -0.004325 0.130163
v 0.044170 -0.015848 0.126379
v 0.048384 -0.015848 0.123998
v 0.040157 -0.015848 0.127240
v -0.051120 -0.014260 0.130986
v -0.066295 -0.010358 0.133070
v -0.071562 -0.005716 0.134641
v -0.074346 -0.001371 0.135920
v -0.079739 0.008330 0.138443
v -0.082072 0.011383 0.138288
v -0.081896 0.005142 0.135460
v -0.084781 0.013759 0.135826
v -0.092782 0.051024 0.142250
v -0.093108 0.054348 0.145733
v -0.091478 0.056047 0.149522
v -0.089346 0.059395 0.152144
v -0.059723 0.053080 0.151559
v -0.054481 0.053191 0.151528
v -0.087415 0.053929 0.151378
v -0.082549 0.026575 0.143735
v -0.079714 0.016369 0.141001
v -0.078134 0.010066 0.139218
v -0.075500 0.002175 0.136992
v -0.051847 -0.009631 0.133432
v -0.055359 0.016406 0.140992
v -0.012392 0.055862 0.151485
v 0.080966 -0.004424 0.133074
v 0.129527 0.002187 0.133987
v 0.147937 0.008355 0.135261
v 0.150947 0.011679 0.136049
v 0.154409 0.021995 0.138271
v 0.157218 0.053166 0.146245
v 0.157619 0.063729 0.149122
v 0.160253 0.069170 0.148579
v 0.161357 0.058657 0.139597
v 0.161683 0.066548 0.144855
v 0.159751 0.040264 0.138306
v 0.161081 0.054693 0.139597
v 0.159200 0.032422 0.134362
v 0.157043 0.020124 0.135559
v 0.154509 0.012971 0.135059
v 0.151399 0.006988 0.133785
v 0.148815 0.003012 0.132454
v 0.144250 0.001091 0.132812
v 0.139384 -0.001383 0.131937
v 0.128875 -0.001986 0.132273
v -0.087164 0.045718 0.148743
v -0.084906 0.029394 0.143701
v -0.087465 0.040006 0.146288
v -0.084630 0.021995 0.140868
v -0.090048 0.045275 0.146297
v -0.087440 0.029443 0.141100
v -0.089948 0.040338 0.143485
v -0.090174 0.051393 0.149001
v 0.140036 0.001375 0.133453
v 0.145279 0.004809 0.134323
v 0.157168 0.028311 0.138336
v 0.157293 0.045115 0.143679
v 0.160178 0.063507 0.146753
v 0.159977 0.054693 0.143873
v 0.159852 0.046469 0.141031
f 1 2 3
f 1 3 4
f 1 4 5
f 1 5 6
f 1 6 7
f 1 7 8
f 1 8 9
f 1 9 10
f 1 10 2
f 2 11 12
f 2 12 13
f 2 13 14
f 2 14 15
f 2 15 16
f 2 16 17
f 2 17 18
f 2 18 19
f 2 19 20
f 2 20 21
f 2 21 22
f 2 22 3
f 2 10 23
f 2 23 11
f 3 22 24
f 3 24 25
f 3 25 26
f 3 26 27
f 3 27 4
f 4 27 28
f 4 28 29
f 4 29 5
f 5 30 31
f 5 31 6
f 5 29 32
f 5 32 33
f 5 33 34
f 5 34 30
f 6 31 35
f 6 35 7
f 7 35 36
f 7 36 8
f 8 36 9
f 9 36 37
f 9 37 38
f 9 38 10
f 10 38 39
f 10 39 40
f 10 40 41
f 10 41 42
f 10 42 43
f 10 43 44
f 10 44 45
f 10 45 46
f 10 46 23
f 11 47 13
f 11 13 48
f 11 48 49
f 11 49 50
f 11 50 51
f 11 51 52
f 11 52 12
f 11 23 67
f 11 67 95
f 11 95 94
f 11 94 55
f 11 55 47
f 12 52 13
f 13 53 54
f 13 54 14
f 13 52 51
f 13 51 50
f 13 50 49
f 13 49 48
f 13 47 55
f 13 55 53
f 14 54 15
f 15 54 56
f 15 56 57
f 15 57 16
f 16 58 59
f 16 59 17
f 16 57 58
f 17 59 60
f 17 60 61
f 17 61 18
f 18 61 62
f 18 62 19
f 19 62 63
f 19 63 64
f 19 64 20
f 20 64 65
f 20 65 21
f 21 65 66
f 21 66 22
f 22 66 24
f 23 46 67
f 24 66 68
f 24 68 25
f 25 68 69
f 25 69 26
f 26 69 70
f 26 70 27
f 27 70 28
f 28 70 71
f 28 71 72
f 28 72 33
f 28 33 32
f 28 32 29
f 30 34 71
f 30 71 73
f 30 73 74
f 30 74 75
f 30 75 31
f 31 75 76
f 31 76 77
f 31 77 78
f 31 78 79
f 31 79 35
f 33 72 34
f 34 72 71
f 35 79 80
f 35 80 36
f 36 80 37
f 37 80 81
f 37 81 82
f 37 82 39
f 37 39 38
f 39 82 40
f 40 83 84
f 40 84 41
f 40 82 83
f 41 84 85
f 41 85 42
f 42 85 43
f 43 85 86
f 43 86 87
f 43 87 88
f 43 88 44
f 44 89 90
f 44 90 45
f 44 88 91
f 44 91 89
f 45 90 92
f 45 92 93
f 45 93 94
f 45 94 95
f 45 95 67
f 45 67 96
f 45 96 97
f 45 97 98
f 45 98 46
f 46 98 67
f 53 99 100
f 53 100 54
f 53 55 99
f 54 101 56
f 54 100 102
f 54 102 101
f 55 94 93
f 55 93 99
f 56 101 103
f 56 103 57
f 57 103 104
f 57 104 105
f 57 105 58
f 58 105 106
f 58 106 107
f 58 107 108
f 58 108 60
f 58 60 59
f 60 108 109
f 60 109 62
f 60 62 61
f 62 109 63
f 63 109 110
f 63 110 111
f 63 111 64
f 64 111 112
f 64 112 113
f 64 113 65
f 65 113 66
f 66 113 68
f 67 98 97
f 67 97 96
f 68 114 69
f 68 113 114
f 69 114 70
f 70 114 115
f 70 115 116
f 70 116 117
f 70 117 71
f 71 117 118
f 71 118 73
f 73 119 120
f 73 120 121
f 73 121 74
f 73 118 119
f 74 121 76
f 74 76 75
f 76 121 120
f 76 120 122
f 76 122 77
f 77 122 123
f 77 123 124
f 77 124 78
f 78 124 125
f 78 125 126
f 78 126 79
f 79 126 80
f 80 126 81
f 81 126 127
f 81 127 82
f 82 127 83
f 83 128 84
f 83 127 129
f 83 129 130
f 83 130 131
f 83 131 128
f 84 132 85
f 84 128 132
f 85 132 86
f 86 132 133
f 86 133 87
f 87 134 88
f 87 133 135
f 87 135 136
f 87 136 137
f 87 137 134
f 88 138 91
f 88 134 138
f 89 139 140
f 89 140 90
f 89 91 139
f 90 140 92
f 91 138 141
f 91 141 139
f 92 142 93
f 92 140 142
f 93 142 143
f 93 143 144
f 93 144 145
f 93 145 99
f 99 145 146
f 99 146 147
f 99 147 148
f 99 148 100
f 100 148 102
f 101 102 149
f 101 149 150
f 101 150 103
f 102 148 151
f 102 151 149
f 103 150 152
f 103 152 153
f 103 153 104
f 104 153 154
f 104 154 105
f 105 154 106
f 106 154 155
f 106 155 156
f 106 156 157
f 106 157 107
f 107 157 108
f 108 157 109
f 109 158 159
f 109 159 110
f 109 157 156
f 109 156 158
f 110 159 160
f 110 160 111
f 111 160 112
f 112 160 161
f 112 161 162
f 112 162 113
f 113 163 114
f 113 162 163
f 114 163 164
f 114 164 115
f 115 164 116
f 116 165 118
f 116 118 117
f 116 164 166
f 116 166 167
f 116 167 168
f 116 168 169
f 116 169 165
f 118 165 170
f 118 170 119
f 119 170 165
f 119 165 120
f 120 165 171
f 120 171 122
f 122 172 173
f 122 173 174
f 122 174 175
f 122 175 176
f 122 176 177
f 122 177 123
f 122 171 178
f 122 178 172
f 123 177 179
f 123 179 180
f 123 180 124
f 124 180 181
f 124 181 125
f 125 181 126
f 126 181 127
f 127 181 129
f 128 131 182
f 128 182 183
f 128 183 184
f 128 184 132
f 129 181 130
f 130 185 131
f 130 181 180
f 130 180 186
f 130 186 185
f 131 185 182
f 132 184 133
f 133 184 135
f 134 137 187
f 134 187 188
f 134 188 189
f 134 189 141
f 134 141 138
f 135 184 136
f 136 184 183
f 136 183 137
f 137 183 190
f 137 190 191
f 137 191 187
f 139 192 140
f 139 141 192
f 140 192 193
f 140 193 142
f 141 189 192
f 142 193 143
f 143 193 194
f 143 194 195
f 143 195 196
f 143 196 197
f 143 197 144
f 144 197 196
f 144 196 198
f 144 198 145
f 145 198 146
f 146 198 147
f 147 198 199
f 147 199 200
f 147 200 151
f 147 151 148
f 149 201 150
f 149 151 200
f 149 200 201
f 150 201 202
f 150 202 152
f 152 203 204
f 152 204 205
f 152 205 153
f 152 202 203
f 153 205 206
f 153 206 154
f 154 206 207
f 154 207 155
f 155 207 158
f 155 158 156
f 158 207 208
f 158 208 159
f 159 208 160
f 160 208 209
f 160 209 161
f 161 209 210
f 161 210 166
f 161 166 162
f 162 166 163
f 163 166 164
f 165 169 211
f 165 211 212
f 165 212 171
f 166 210 167
f 167 210 168
f 168 210 213
f 168 213 169
f 169 213 214
f 169 214 215
f 169 215 216
f 169 216 217
f 169 217 218
f 169 218 219
f 169 219 211
f 171 212 220
f 171 220 178
f 172 221 222
f 172 222 173
f 172 178 220
f 172 220 212
f 172 212 221
f 173 222 223
f 173 223 224
f 173 224 174
f 174 225 175
f 174 224 225
f 175 225 226
f 175 226 177
f 175 177 176
f 177 226 227
f 177 227 179
f 179 227 228
f 179 228 180
f 180 228 186
f 182 185 229
f 182 229 191
f 182 191 190
f 182 190 183
f 185 186 230
f 185 230 231
f 185 231 232
f 185 232 229
f 186 228 230
f 187 191 229
f 187 229 233
f 187 233 231
f 187 231 188
f 188 231 234
f 188 234 235
f 188 235 189
f 189 235 236
f 189 236 237
f 189 237 192
f 192 237 238
f 192 238 193
f 193 238 239
f 193 239 194
f 194 239 240
f 194 240 198
f 194 198 195
f 195 198 196
f 198 240 221
f 198 221 199
f 199 218 200
f 199 221 218
f 200 218 201
f 201 217 202
f 201 218 217
f 202 217 203
f 203 217 216
f 203 216 215
f 203 215 214
f 203 214 241
f 203 241 242
f 203 242 204
f 204 242 243
f 204 243 244
f 204 244 205
f 205 244 245
f 205 245 246
f 205 246 206
f 206 246 247
f 206 247 208
f 206 208 207
f 208 247 245
f 208 245 209
f 209 248 210
f 209 245 248
f 210 248 213
f 211 219 212
f 212 219 221
f 213 248 241
f 213 241 214
f 218 221 219
f 221 240 249
f 221 249 222
f 222 249 250
f 222 250 223
f 223 250 224
f 224 250 236
f 224 236 235
f 224 235 225
f 225 235 251
f 225 251 252
f 225 252 226
f 226 252 228
f 226 228 227
f 228 253 230
f 228 252 251
f 228 251 253
f 229 232 233
f 230 253 254
f 230 254 255
f 230 255 231
f 231 255 234
f 231 233 232
f 234 255 254
f 234 254 251
f 234 251 235
f 236 250 238
f 236 238 237
f 238 250 249
f 238 249 239
f 239 249 240
f 241 248 243
f 241 243 242
f 243 248 244
f 244 248 245
f 245 247 246
f 251 254 253
