v 0.033359 0.116528 0.081240
v 0.038742 0.115957 0.081240
v 0.140035 0.107555 0.077681
v 0.143264 0.108511 0.075016
v 0.138708 0.109921 0.072555
v 0.137406 0.108010 0.066505
v -0.003969 0.101508 0.054237
v -0.009802 0.101496 0.054237
v 0.028177 0.116120 0.081240
v -0.000589 0.093187 0.081243
v 0.061599 0.059266 0.081245
v 0.044224 0.114407 0.081240
v 0.137406 0.100738 0.080849
v 0.141487 0.103617 0.080159
v 0.137406 0.104934 0.080003
v 0.147245 0.105877 0.076647
v 0.149122 0.106658 0.070672
v 0.143915 0.108977 0.070709
v 0.141537 0.106577 0.065585
v 0.145292 0.100738 0.063031
v 0.014057 0.095297 0.054237
v 0.069059 0.073447 0.054235
v 0.058745 0.073447 0.054235
v 0.000963 0.069998 0.054235
v -0.019190 0.100645 0.054237
v -0.024573 0.100074 0.054237
v -0.072315 0.098210 0.069673
v -0.076621 0.097394 0.072560
v -0.077522 0.095366 0.077332
v 0.023345 0.114990 0.081240
v 0.005970 0.014693 0.081245
v 0.005795 0.018655 0.081245
v 0.005370 0.034993 0.081245
v 0.005320 0.041588 0.081245
v 0.005320 0.045632 0.081245
v 0.005645 0.059266 0.081245
v 0.019715 0.113673 0.081240
v 0.015884 0.111576 0.081240
v 0.011754 0.108558 0.081240
v -0.041346 0.091509 0.081192
v -0.061024 0.088876 0.081169
v 0.063477 0.049151 0.081245
v 0.064378 0.097033 0.081240
v 0.061824 0.100797 0.081240
v 0.052211 0.110049 0.081240
v 0.048681 0.112403 0.081240
v 0.124262 0.099422 0.080965
v 0.068158 0.006116 0.081245
v 0.149248 0.096136 0.079944
v 0.146243 0.100272 0.080082
v 0.152978 0.100459 0.077060
v 0.153504 0.103011 0.072851
v 0.152828 0.102393 0.067312
v 0.147921 0.104770 0.066127
v 0.152327 0.099014 0.064200
v 0.151551 0.094830 0.062643
v 0.068108 0.069485 0.054235
v 0.153203 0.083655 0.061466
v 0.152127 0.062062 0.059353
v 0.150249 0.036123 0.056807
v 0.147921 0.028479 0.055945
v 0.147921 0.024528 0.055655
v 0.142012 0.016651 0.054996
v 0.129545 0.012700 0.054676
v 0.112446 0.012700 0.054512
v 0.003667 0.062890 0.054235
v -0.028403 0.074846 0.054237
v -0.031432 0.085042 0.054237
v -0.031658 0.092605 0.054237
v -0.029680 0.097790 0.054237
v -0.080627 0.093374 0.065247
v -0.076896 0.096322 0.067481
v -0.081903 0.095425 0.071907
v -0.079375 0.089773 0.080518
v -0.085534 0.092488 0.075090
v -0.082429 0.092337 0.078292
v -0.073892 0.090647 0.080828
v 0.006446 0.007457 0.081245
v -0.078098 0.086266 0.080962
v 0.007022 -0.000864 0.081245
v 0.065329 0.037684 0.081245
v 0.067657 0.015346 0.081245
v 0.068058 0.000663 0.080415
v 0.155156 0.084797 0.077710
v 0.151876 0.090868 0.079180
v 0.154380 0.095436 0.078173
v 0.157459 0.095378 0.075333
v 0.157584 0.097895 0.071783
v 0.156333 0.098256 0.067338
v 0.156758 0.093653 0.064747
v 0.154230 0.088515 0.062246
v 0.046678 0.010090 0.054298
v 0.062500 0.066281 0.054235
v 0.155907 0.081674 0.062201
v 0.151175 0.031683 0.056580
v 0.146894 0.018970 0.055850
v 0.151876 0.027826 0.056715
v 0.144866 0.013388 0.057355
v 0.141336 0.011477 0.057204
v 0.136079 0.012829 0.055176
v 0.129420 0.009309 0.056490
v 0.113773 0.010067 0.055242
v 0.109817 0.010067 0.055115
v 0.054589 0.007457 0.054729
v 0.046678 0.007457 0.054589
v 0.027050 0.007457 0.054386
v 0.054589 0.010090 0.054327
v -0.024948 0.071373 0.054237
v -0.037391 0.004811 0.054510
v -0.061024 0.002178 0.054623
v -0.065631 0.003495 0.054703
v -0.070888 0.006128 0.054941
v -0.074168 0.010719 0.055247
v -0.079826 0.024540 0.056657
v -0.084732 0.053754 0.059401
v -0.087987 0.078400 0.061857
v -0.086635 0.082385 0.062275
v -0.084833 0.087139 0.063346
v -0.084557 0.092337 0.066653
v -0.086185 0.092954 0.071246
v -0.086685 0.087466 0.078414
v -0.082254 0.085461 0.080555
v -0.088988 0.089913 0.072872
v -0.091367 0.086266 0.073874
v -0.090115 0.084960 0.076978
v -0.084682 0.081674 0.080037
v -0.087336 0.076419 0.079167
v -0.088938 0.071117 0.077988
v -0.085083 0.052787 0.075296
v -0.080476 0.019459 0.069239
v -0.078599 0.010836 0.067613
v -0.075219 0.004858 0.065950
v -0.067583 0.000069 0.065376
v -0.061875 -0.002507 0.062947
v 0.065605 -0.000864 0.075476
v 0.139208 0.009228 0.062061
v 0.142989 0.011069 0.062685
v 0.145743 0.014448 0.065435
v 0.147720 0.019424 0.067243
v 0.150574 0.025845 0.068242
v 0.151901 0.035004 0.069935
v 0.155281 0.071466 0.075244
v 0.156758 0.081010 0.076217
v 0.156983 0.090216 0.076996
v 0.160238 0.088247 0.072615
v 0.159737 0.092395 0.070500
v 0.159988 0.089447 0.067507
v 0.157810 0.088899 0.064070
v 0.023095 0.007457 0.054359
v 0.017837 0.007457 0.054349
v 0.157009 0.070511 0.062156
v 0.154530 0.050992 0.059409
v 0.152027 0.021930 0.057796
v 0.154805 0.042940 0.059131
v 0.154906 0.038989 0.059031
v 0.154830 0.030448 0.059253
v 0.154054 0.025146 0.059118
v 0.148622 0.014961 0.059832
v 0.135328 0.008482 0.059488
v 0.045376 -0.000864 0.061001
v 0.041420 -0.000864 0.060279
v 0.107188 0.008179 0.056228
v 0.095071 0.007783 0.055982
v 0.021793 0.004823 0.055115
v 0.058520 0.007457 0.054838
v 0.017837 0.004823 0.054983
v -0.038693 0.002178 0.054838
v -0.042673 0.002178 0.054777
v -0.055792 0.002178 0.054634
v -0.058420 -0.001237 0.056310
v -0.063828 -0.000794 0.056226
v -0.068910 0.001199 0.056064
v -0.073817 0.003879 0.056384
v -0.079175 0.010055 0.057222
v -0.079425 0.016045 0.056482
v -0.084908 0.032441 0.059229
v -0.090015 0.069171 0.061852
v -0.089865 0.074310 0.062061
v -0.091116 0.079530 0.063816
v -0.090966 0.084168 0.065810
v -0.088438 0.089668 0.067531
v -0.089890 0.079705 0.078316
v -0.092168 0.085543 0.070043
v -0.092894 0.082560 0.074257
v -0.093620 0.078400 0.074852
v -0.091116 0.075755 0.077665
v -0.090090 0.061934 0.075291
v -0.087411 0.055886 0.075233
v -0.084732 0.040248 0.072581
v -0.082004 0.024586 0.069913
v -0.082329 0.015485 0.066820
v -0.082279 0.012118 0.064369
v -0.079675 0.006990 0.062836
v -0.076571 0.003192 0.061138
v -0.072265 0.001315 0.064425
v -0.066707 -0.001924 0.060731
v 0.049607 -0.000864 0.062225
v 0.054940 -0.000864 0.064845
v 0.058470 -0.000864 0.067367
v 0.061574 -0.000864 0.070260
v 0.149072 0.015509 0.063727
v 0.153904 0.024365 0.065146
v 0.154380 0.028665 0.066643
v 0.154430 0.041740 0.069892
v 0.154580 0.055863 0.072602
v 0.157209 0.064917 0.072626
v 0.158936 0.084972 0.075029
v 0.159913 0.081010 0.072869
v 0.160664 0.084308 0.069927
v 0.159963 0.078400 0.066831
v 0.159362 0.081010 0.065384
v 0.158836 0.084972 0.064927
v 0.158060 0.081010 0.063756
v 0.157084 0.066549 0.062093
v 0.157084 0.045562 0.062288
v 0.156658 0.035051 0.063367
v 0.156057 0.029795 0.063367
v 0.152001 0.019820 0.063613
v 0.058520 0.005487 0.056094
v 0.000713 0.002469 0.055895
v -0.029955 0.002178 0.055023
v -0.072841 0.000861 0.059549
v -0.077097 0.006128 0.057548
v -0.082104 0.011663 0.060337
v -0.084432 0.023223 0.059970
v -0.084657 0.027441 0.059467
v -0.090090 0.060850 0.061939
v -0.093069 0.073785 0.064546
v -0.094396 0.079705 0.069927
v -0.095097 0.073820 0.070231
v -0.093795 0.074438 0.074860
v -0.089965 0.053358 0.072581
v -0.087286 0.045655 0.072534
v -0.093545 0.067667 0.072996
v -0.084582 0.029982 0.069847
v -0.084783 0.024190 0.067436
v -0.084707 0.019144 0.064451
v -0.083681 0.015334 0.062053
v 0.156182 0.035051 0.065992
v 0.157159 0.053346 0.069948
v 0.159762 0.071793 0.069937
v 0.160013 0.075755 0.070633
v 0.157309 0.046879 0.067621
v 0.160388 0.079705 0.068615
v 0.158886 0.062622 0.065992
v -0.084557 0.019750 0.061736
v -0.087486 0.037486 0.061810
v -0.092569 0.062598 0.064726
v -0.093270 0.068506 0.064927
v -0.094446 0.067854 0.068607
v -0.090040 0.047939 0.070046
v -0.092619 0.058438 0.069313
v -0.093470 0.062610 0.068607
v -0.087486 0.032930 0.064284
v -0.092594 0.059219 0.066579
f 1 2 3
f 1 3 4
f 1 4 5
f 1 5 6
f 1 6 7
f 1 7 8
f 1 8 9
f 1 9 10
f 1 10 2
f 2 10 11
f 2 11 12
f 2 12 13
f 2 13 14
f 2 14 15
f 2 15 3
f 3 15 14
f 3 14 16
f 3 16 4
f 4 16 17
f 4 17 18
f 4 18 5
f 5 18 6
f 6 18 19
f 6 19 7
f 7 19 20
f 7 20 21
f 7 21 22
f 7 22 23
f 7 23 8
f 8 23 24
f 8 24 25
f 8 25 9
f 9 25 26
f 9 26 27
f 9 27 28
f 9 28 29
f 9 29 30
f 9 30 10
f 10 31 32
f 10 32 33
f 10 33 34
f 10 34 35
f 10 35 36
f 10 36 11
f 10 30 37
f 10 37 38
f 10 38 39
f 10 39 40
f 10 40 41
f 10 41 31
f 11 42 43
f 11 43 44
f 11 44 45
f 11 45 46
f 11 46 12
f 11 36 35
f 11 35 34
f 11 34 33
f 11 33 32
f 11 32 31
f 11 31 78
f 11 78 80
f 11 80 48
f 11 48 82
f 11 82 81
f 11 81 42
f 12 46 47
f 12 47 13
f 13 47 48
f 13 48 49
f 13 49 50
f 13 50 14
f 14 50 16
f 16 50 51
f 16 51 52
f 16 52 17
f 17 52 53
f 17 53 54
f 17 54 18
f 18 54 19
f 19 54 20
f 20 54 55
f 20 55 56
f 20 56 22
f 20 22 21
f 22 57 93
f 22 93 66
f 22 66 24
f 22 24 23
f 22 56 58
f 22 58 59
f 22 59 60
f 22 60 61
f 22 61 62
f 22 62 63
f 22 63 64
f 22 64 65
f 22 65 57
f 24 66 67
f 24 67 68
f 24 68 69
f 24 69 70
f 24 70 26
f 24 26 25
f 26 70 71
f 26 71 72
f 26 72 27
f 27 72 28
f 28 72 73
f 28 73 29
f 29 74 30
f 29 73 75
f 29 75 76
f 29 76 74
f 30 74 77
f 30 77 41
f 30 41 37
f 31 41 78
f 37 41 38
f 38 41 39
f 39 41 40
f 41 77 79
f 41 79 80
f 41 80 78
f 42 81 43
f 43 81 82
f 43 82 47
f 43 47 44
f 44 47 45
f 45 47 46
f 47 82 48
f 48 83 84
f 48 84 85
f 48 85 49
f 48 80 83
f 49 85 86
f 49 86 50
f 50 86 51
f 51 86 87
f 51 87 52
f 52 87 88
f 52 88 89
f 52 89 53
f 53 55 54
f 53 89 55
f 55 89 90
f 55 90 56
f 56 90 91
f 56 91 58
f 57 92 93
f 57 65 92
f 58 91 94
f 58 94 59
f 59 95 60
f 59 94 95
f 60 95 61
f 61 95 62
f 62 96 63
f 62 95 97
f 62 97 96
f 63 96 98
f 63 98 99
f 63 99 100
f 63 100 64
f 64 100 101
f 64 101 102
f 64 102 103
f 64 103 104
f 64 104 105
f 64 105 106
f 64 106 65
f 65 107 92
f 65 106 107
f 66 108 67
f 66 93 92
f 66 92 108
f 67 108 109
f 67 109 110
f 67 110 68
f 68 110 69
f 69 110 111
f 69 111 112
f 69 112 113
f 69 113 70
f 70 113 114
f 70 114 115
f 70 115 116
f 70 116 117
f 70 117 118
f 70 118 71
f 71 118 119
f 71 119 72
f 72 119 73
f 73 119 120
f 73 120 75
f 74 79 77
f 74 76 121
f 74 121 122
f 74 122 79
f 75 120 123
f 75 123 124
f 75 124 125
f 75 125 121
f 75 121 76
f 79 122 80
f 80 122 126
f 80 126 127
f 80 127 128
f 80 128 129
f 80 129 130
f 80 130 131
f 80 131 132
f 80 132 133
f 80 133 134
f 80 134 135
f 80 135 83
f 83 135 136
f 83 136 137
f 83 137 138
f 83 138 139
f 83 139 140
f 83 140 141
f 83 141 84
f 84 86 85
f 84 141 142
f 84 142 143
f 84 143 144
f 84 144 86
f 86 144 87
f 87 144 145
f 87 145 146
f 87 146 88
f 88 146 89
f 89 146 147
f 89 147 90
f 90 147 148
f 90 148 91
f 91 148 94
f 92 107 149
f 92 149 150
f 92 150 108
f 94 148 151
f 94 151 152
f 94 152 95
f 95 152 97
f 96 97 153
f 96 153 98
f 97 152 154
f 97 154 155
f 97 155 156
f 97 156 157
f 97 157 153
f 98 137 99
f 98 153 158
f 98 158 137
f 99 136 159
f 99 159 101
f 99 101 100
f 99 137 136
f 101 159 160
f 101 160 161
f 101 161 162
f 101 162 102
f 102 162 163
f 102 163 164
f 102 164 165
f 102 165 103
f 103 165 104
f 104 165 166
f 104 166 167
f 104 167 105
f 105 167 168
f 105 168 169
f 105 169 106
f 106 169 149
f 106 149 107
f 108 150 109
f 109 150 110
f 110 150 149
f 110 149 169
f 110 169 170
f 110 170 171
f 110 171 172
f 110 172 111
f 111 172 112
f 112 172 173
f 112 173 113
f 113 173 174
f 113 174 175
f 113 175 114
f 114 176 177
f 114 177 115
f 114 175 176
f 115 177 178
f 115 178 116
f 116 178 179
f 116 179 117
f 117 179 180
f 117 180 118
f 118 180 181
f 118 181 119
f 119 181 120
f 120 181 123
f 121 125 182
f 121 182 122
f 122 182 126
f 123 181 183
f 123 183 124
f 124 183 184
f 124 184 125
f 125 184 185
f 125 185 182
f 126 182 127
f 127 182 186
f 127 186 128
f 128 186 187
f 128 187 188
f 128 188 129
f 129 188 189
f 129 189 190
f 129 190 130
f 130 190 191
f 130 191 131
f 131 191 192
f 131 192 193
f 131 193 132
f 132 193 194
f 132 194 195
f 132 195 133
f 133 195 196
f 133 196 134
f 134 196 170
f 134 170 161
f 134 161 160
f 134 160 197
f 134 197 198
f 134 198 199
f 134 199 200
f 134 200 135
f 135 200 159
f 135 159 136
f 137 158 201
f 137 201 138
f 138 201 139
f 139 201 202
f 139 202 140
f 140 202 203
f 140 203 141
f 141 203 204
f 141 204 205
f 141 205 142
f 142 205 143
f 143 206 207
f 143 207 144
f 143 205 204
f 143 204 206
f 144 207 145
f 145 207 208
f 145 208 209
f 145 209 146
f 146 209 147
f 147 209 210
f 147 210 211
f 147 211 212
f 147 212 148
f 148 212 213
f 148 213 151
f 151 214 155
f 151 155 154
f 151 154 152
f 151 213 214
f 153 157 158
f 155 214 211
f 155 211 215
f 155 215 156
f 156 215 216
f 156 216 217
f 156 217 157
f 157 217 202
f 157 202 218
f 157 218 158
f 158 218 201
f 159 200 199
f 159 199 198
f 159 198 197
f 159 197 160
f 161 219 162
f 161 170 220
f 161 220 219
f 162 219 163
f 163 219 164
f 164 220 221
f 164 221 166
f 164 166 165
f 164 219 220
f 166 221 167
f 167 221 170
f 167 170 168
f 168 170 169
f 170 221 220
f 170 196 171
f 171 196 222
f 171 222 172
f 172 222 173
f 173 222 194
f 173 194 223
f 173 223 174
f 174 223 224
f 174 224 225
f 174 225 226
f 174 226 175
f 175 226 176
f 176 226 227
f 176 227 177
f 177 227 228
f 177 228 178
f 178 228 179
f 179 228 180
f 180 228 229
f 180 229 183
f 180 183 181
f 182 185 186
f 183 229 184
f 184 229 185
f 185 229 230
f 185 230 231
f 185 231 186
f 186 231 187
f 187 232 233
f 187 233 189
f 187 189 188
f 187 231 234
f 187 234 232
f 189 233 190
f 190 235 191
f 190 233 235
f 191 235 236
f 191 236 237
f 191 237 192
f 192 237 238
f 192 238 224
f 192 224 193
f 193 224 194
f 194 222 195
f 194 224 223
f 195 222 196
f 201 218 202
f 202 217 203
f 203 217 239
f 203 239 240
f 203 240 204
f 204 240 206
f 206 240 208
f 206 208 207
f 208 241 242
f 208 242 209
f 208 240 243
f 208 243 241
f 209 244 210
f 209 242 241
f 209 241 244
f 210 244 245
f 210 245 215
f 210 215 211
f 211 213 212
f 211 214 213
f 215 245 216
f 216 241 243
f 216 243 217
f 216 245 244
f 216 244 241
f 217 243 239
f 224 238 246
f 224 246 225
f 225 246 247
f 225 247 226
f 226 247 248
f 226 248 227
f 227 248 249
f 227 249 228
f 228 249 230
f 228 230 229
f 230 250 234
f 230 234 231
f 230 249 250
f 232 234 251
f 232 251 236
f 232 236 235
f 232 235 233
f 234 250 252
f 234 252 251
f 236 251 237
f 237 246 238
f 237 251 252
f 237 252 253
f 237 253 254
f 237 254 246
f 239 243 240
f 246 254 255
f 246 255 248
f 246 248 247
f 248 255 250
f 248 250 249
f 250 253 252
f 250 255 254
f 250 254 253
