v -0.004783 -0.031694 0.038670
v -0.020012 -0.035142 0.038667
v -0.004783 -0.031694 0.009936
v -0.004783 -0.028656 0.038653
v -0.006365 -0.027502 0.042663
v -0.006365 -0.027714 0.042643
v -0.006365 -0.027958 0.042616
v -0.006365 -0.028004 0.042606
v -0.006365 -0.028272 0.042524
v -0.006536 -0.028713 0.042524
v -0.006605 -0.029001 0.042451
v -0.007422 -0.030367 0.042514
v -0.008657 -0.031265 0.042567
v -0.009166 -0.031627 0.042491
v -0.009254 -0.031694 0.042411
v -0.024134 -0.035142 0.038667
v -0.020012 -0.035142 0.009578
v -0.009430 -0.031694 0.042534
v -0.009485 -0.031694 0.042563
v -0.025501 -0.034483 0.042431
v -0.005740 -0.021887 0.009234
v -0.005740 -0.021098 0.009234
v -0.004783 -0.028656 0.010836
v -0.005740 -0.021098 0.038643
v -0.006365 -0.026626 0.042497
v -0.006365 -0.027025 0.042606
v -0.006379 -0.027502 0.042669
v -0.007024 -0.028613 0.042908
v -0.006448 -0.026636 0.042630
v -0.006747 -0.026203 0.042808
v -0.006962 -0.026203 0.042921
v -0.007059 -0.028901 0.042885
v -0.006442 -0.028298 0.042587
v -0.006392 -0.028298 0.042540
v -0.006461 -0.028369 0.042580
v -0.006895 -0.029234 0.042600
v -0.007349 -0.029154 0.042957
v -0.007680 -0.030100 0.042732
v -0.009177 -0.031191 0.042908
v -0.009029 -0.031373 0.042673
v -0.009410 -0.031680 0.042550
v -0.024406 -0.035140 0.038673
v -0.024406 -0.035142 0.038263
v -0.022347 -0.035142 0.009578
v -0.009410 -0.031451 0.042762
v -0.009749 -0.031694 0.042650
v -0.009844 -0.031694 0.042679
v -0.025501 -0.034423 0.042537
v -0.025501 -0.034483 0.010244
v -0.005880 -0.021098 0.009234
v -0.024406 -0.035142 0.009608
v -0.025357 -0.020971 0.015746
v -0.020012 -0.020971 0.016819
v -0.020012 -0.020971 0.038197
v -0.023885 -0.020971 0.038581
v -0.024130 -0.020971 0.038594
v -0.024530 -0.020971 0.038600
v -0.010708 -0.022367 0.042256
v -0.010276 -0.022496 0.042504
v -0.010035 -0.022521 0.042481
v -0.009410 -0.022840 0.042600
v -0.009233 -0.022880 0.042563
v -0.009104 -0.022910 0.042534
v -0.008751 -0.023389 0.042908
v -0.008463 -0.023499 0.042822
v -0.008136 -0.023622 0.042689
v -0.007820 -0.023743 0.042557
v -0.007700 -0.024071 0.042679
v -0.007434 -0.024214 0.042514
v -0.006994 -0.025060 0.042517
v -0.006562 -0.025916 0.042517
v -0.006507 -0.026203 0.042590
v -0.006962 -0.026546 0.042921
v -0.007221 -0.028775 0.042961
v -0.007866 -0.024220 0.042921
v -0.007006 -0.025951 0.042918
v -0.006919 -0.025341 0.042587
v -0.008976 -0.023610 0.043020
v -0.009844 -0.030967 0.043057
v -0.009410 -0.030967 0.043000
v -0.009410 -0.031234 0.042934
v -0.009844 -0.031517 0.042838
v -0.010069 -0.031694 0.042736
v -0.025501 -0.034371 0.042600
v -0.025501 -0.029509 0.013015
v -0.025357 -0.020971 0.038610
v -0.024962 -0.020971 0.038607
v -0.010708 -0.022489 0.042510
v -0.010276 -0.022744 0.042676
v -0.009410 -0.023082 0.042815
v -0.008976 -0.023353 0.042934
v -0.008580 -0.023630 0.042941
v -0.008288 -0.023790 0.042921
v -0.008000 -0.023933 0.042848
v -0.007367 -0.024478 0.042593
v -0.009233 -0.023610 0.043034
v -0.009410 -0.023610 0.043040
v -0.009410 -0.023299 0.042951
v -0.009844 -0.031302 0.042971
v -0.025154 -0.026208 0.042947
v -0.025154 -0.026538 0.042947
v -0.023538 -0.031835 0.042928
v -0.023524 -0.032092 0.042918
v -0.025501 -0.034003 0.042799
v -0.010274 -0.031545 0.042878
v -0.010499 -0.031694 0.042802
v -0.025501 -0.034358 0.042613
v -0.025501 -0.029509 0.038402
v -0.025501 -0.033040 0.042391
v -0.025501 -0.033222 0.042583
v -0.025501 -0.033272 0.042613
v -0.025501 -0.033566 0.042775
v -0.025154 -0.025929 0.042878
v -0.025154 -0.025518 0.042534
v -0.012442 -0.022833 0.042610
v -0.012355 -0.022822 0.042616
v -0.012008 -0.022780 0.042636
v -0.011408 -0.022522 0.042477
v -0.010708 -0.022744 0.042679
v -0.009842 -0.023109 0.042861
v -0.012688 -0.023383 0.042914
v -0.025154 -0.026063 0.042931
v -0.025501 -0.034067 0.042775
v -0.025501 -0.033634 0.042792
v -0.012355 -0.023109 0.042792
f 1 2 17
f 1 17 3
f 1 3 23
f 1 23 4
f 1 4 5
f 1 5 6
f 1 6 7
f 1 7 8
f 1 8 9
f 1 9 10
f 1 10 11
f 1 11 12
f 1 12 13
f 1 13 14
f 1 14 15
f 1 15 2
f 2 16 43
f 2 43 51
f 2 51 44
f 2 44 17
f 2 15 18
f 2 18 19
f 2 19 20
f 2 20 16
f 3 17 21
f 3 21 22
f 3 22 23
f 4 23 22
f 4 22 24
f 4 24 25
f 4 25 26
f 4 26 5
f 5 27 28
f 5 28 6
f 5 26 29
f 5 29 30
f 5 30 31
f 5 31 27
f 6 28 7
f 7 28 32
f 7 32 8
f 8 32 33
f 8 33 34
f 8 34 9
f 9 34 10
f 10 34 35
f 10 35 32
f 10 32 36
f 10 36 11
f 11 36 12
f 12 36 32
f 12 32 37
f 12 37 38
f 12 38 39
f 12 39 13
f 13 39 40
f 13 40 14
f 14 41 15
f 14 40 41
f 15 41 18
f 16 20 42
f 16 42 43
f 17 44 21
f 18 41 19
f 19 41 45
f 19 45 46
f 19 46 20
f 20 46 47
f 20 47 48
f 20 48 84
f 20 84 107
f 20 107 123
f 20 123 104
f 20 104 124
f 20 124 112
f 20 112 111
f 20 111 110
f 20 110 109
f 20 109 108
f 20 108 85
f 20 85 49
f 20 49 51
f 20 51 43
f 20 43 42
f 21 50 22
f 21 44 51
f 21 51 50
f 22 50 52
f 22 52 53
f 22 53 54
f 22 54 24
f 24 54 55
f 24 55 56
f 24 56 57
f 24 57 58
f 24 58 59
f 24 59 60
f 24 60 61
f 24 61 62
f 24 62 63
f 24 63 64
f 24 64 65
f 24 65 66
f 24 66 67
f 24 67 68
f 24 68 69
f 24 69 70
f 24 70 71
f 24 71 72
f 24 72 25
f 25 72 29
f 25 29 26
f 27 31 73
f 27 73 28
f 28 73 74
f 28 74 32
f 29 72 30
f 30 75 76
f 30 76 31
f 30 72 71
f 30 71 77
f 30 77 75
f 31 76 78
f 31 78 74
f 31 74 73
f 32 35 33
f 32 74 37
f 33 35 34
f 37 74 79
f 37 79 80
f 37 80 39
f 37 39 38
f 39 80 81
f 39 81 82
f 39 82 45
f 39 45 41
f 39 41 40
f 45 82 46
f 46 82 47
f 47 82 83
f 47 83 48
f 48 83 84
f 49 85 52
f 49 52 51
f 50 51 52
f 52 85 108
f 52 108 86
f 52 86 87
f 52 87 57
f 52 57 56
f 52 56 55
f 52 55 54
f 52 54 53
f 57 87 58
f 58 88 59
f 58 87 86
f 58 86 88
f 59 88 89
f 59 89 90
f 59 90 60
f 60 90 61
f 61 90 64
f 61 64 62
f 62 64 63
f 64 91 78
f 64 78 92
f 64 92 93
f 64 93 65
f 64 90 91
f 65 93 94
f 65 94 66
f 66 94 67
f 67 94 68
f 68 94 75
f 68 75 69
f 69 75 95
f 69 95 70
f 70 95 77
f 70 77 71
f 74 78 96
f 74 96 97
f 74 97 79
f 75 93 78
f 75 78 76
f 75 77 95
f 75 94 93
f 78 93 92
f 78 91 98
f 78 98 96
f 79 99 81
f 79 81 80
f 79 97 100
f 79 100 101
f 79 101 102
f 79 102 103
f 79 103 104
f 79 104 99
f 81 99 82
f 82 99 105
f 82 105 106
f 82 106 83
f 83 107 84
f 83 106 107
f 86 108 109
f 86 109 110
f 86 110 111
f 86 111 112
f 86 112 113
f 86 113 114
f 86 114 115
f 86 115 116
f 86 116 117
f 86 117 118
f 86 118 88
f 88 118 117
f 88 117 119
f 88 119 89
f 89 119 120
f 89 120 98
f 89 98 90
f 90 98 91
f 96 98 97
f 97 98 121
f 97 121 122
f 97 122 100
f 98 120 121
f 99 104 123
f 99 123 105
f 100 122 124
f 100 124 104
f 100 104 101
f 101 104 102
f 102 104 103
f 105 123 107
f 105 107 106
f 112 124 122
f 112 122 113
f 113 122 121
f 113 121 125
f 113 125 117
f 113 117 116
f 113 116 115
f 113 115 114
f 117 125 119
f 119 125 121
f 119 121 120
