v -0.002998 -0.031692 -0.000343
v -0.009203 -0.004234 -0.000419
v -0.009203 -0.003920 -0.000436
v -0.003557 -0.028190 -0.000393
v -0.002562 -0.031692 -0.000305
v -0.003395 -0.031692 -0.000212
v -0.005077 -0.026203 -0.000081
v -0.005320 -0.026203 0.000020
v -0.005299 -0.026434 0.000037
v -0.005755 -0.026515 0.000439
v -0.008683 -0.010618 0.000671
v -0.008759 -0.010837 0.000890
v -0.008865 -0.010618 0.001558
v -0.009203 -0.021092 0.013559
v -0.009203 -0.003588 -0.000415
v -0.008539 -0.003686 -0.000444
v -0.007240 -0.005420 -0.000482
v -0.005510 -0.016243 -0.000469
v -0.004013 -0.024040 -0.000423
v -0.003969 -0.023604 -0.000410
v -0.002912 -0.028655 -0.000267
v -0.002171 -0.031692 -0.000106
v -0.003668 -0.031692 -0.000047
v -0.004044 -0.031692 0.000401
v -0.005704 -0.026803 0.000506
v -0.005839 -0.026647 0.000667
v -0.003892 -0.031692 0.000198
v -0.006000 -0.026636 0.001123
v -0.006361 -0.028655 0.011832
v -0.009203 -0.021092 0.038622
v -0.006051 -0.026636 0.001558
v -0.004259 -0.031692 0.001114
v -0.009091 -0.003277 -0.000292
v -0.008841 -0.003453 -0.000402
v -0.009203 -0.002960 -0.000047
v -0.008539 -0.003441 -0.000406
v -0.007874 -0.003459 -0.000398
v -0.008106 -0.003686 -0.000436
v -0.007673 -0.004119 -0.000453
v -0.007215 -0.004119 -0.000398
v -0.006945 -0.005420 -0.000444
v -0.005510 -0.015810 -0.000465
v -0.004094 -0.022306 -0.000368
v -0.002912 -0.028366 -0.000241
v -0.002692 -0.028655 -0.000132
v -0.002606 -0.028366 -0.000047
v -0.001936 -0.031692 0.000118
v -0.004168 -0.031692 0.000679
v -0.004782 -0.031692 0.009940
v -0.004782 -0.031692 0.038672
v -0.006361 -0.028563 0.042296
v -0.006361 -0.028271 0.042524
v -0.006361 -0.027980 0.042612
v -0.006361 -0.027608 0.042659
v -0.009203 -0.014146 0.039213
v -0.008539 -0.003225 -0.000322
v -0.008539 -0.002867 -0.000106
v -0.008539 -0.002608 0.000248
v -0.008106 -0.002573 0.000160
v -0.009203 -0.002781 0.000270
v -0.008106 -0.003337 -0.000372
v -0.007707 -0.003288 -0.000322
v -0.007585 -0.003559 -0.000372
v -0.007707 -0.003698 -0.000419
v -0.007329 -0.003773 -0.000372
v -0.006808 -0.004119 -0.000208
v -0.007042 -0.004462 -0.000389
v -0.006851 -0.004583 -0.000305
v -0.006599 -0.006972 -0.000389
v -0.006495 -0.004552 -0.000068
v -0.001791 -0.031692 0.000341
v -0.003777 -0.031692 0.038702
v -0.003281 -0.031692 0.038677
v -0.002827 -0.031692 0.038601
v -0.006134 -0.027804 0.042503
v -0.002566 -0.031692 0.038482
v -0.006120 -0.027501 0.042519
v -0.006132 -0.027210 0.042503
v -0.006361 -0.027022 0.042608
v -0.009203 -0.009271 0.039213
v -0.008106 -0.002827 -0.000123
v -0.008789 -0.002596 0.000447
v -0.008539 -0.002472 0.000688
v -0.007673 -0.002631 0.000084
v -0.008106 -0.002414 0.000688
v -0.007673 -0.002541 0.000299
v -0.009203 -0.002628 0.000776
v -0.007673 -0.002847 -0.000102
v -0.007240 -0.003254 -0.000178
v -0.006956 -0.003254 -0.000026
v -0.006801 -0.003727 -0.000081
v -0.006566 -0.004007 0.000008
v -0.006330 -0.004552 0.000253
v -0.001702 -0.031692 0.000629
v -0.002207 -0.031692 0.038204
v -0.006855 -0.004552 0.038313
v -0.006909 -0.004119 0.038271
v -0.007186 -0.004119 0.038487
v -0.007420 -0.003816 0.038592
v -0.004412 -0.018129 0.038161
v -0.006588 -0.005178 0.038145
v -0.008091 -0.003225 0.038626
v -0.008338 -0.003014 0.038584
v -0.008741 -0.003049 0.038567
v -0.009203 -0.003248 0.038550
v -0.007490 -0.003525 0.038558
v -0.007779 -0.003349 0.038605
v -0.008949 -0.002570 0.000734
v -0.008539 -0.002388 0.001123
v -0.007383 -0.002570 0.000388
v -0.007239 -0.002737 0.000248
v -0.007240 -0.002951 -0.000030
v -0.008106 -0.002334 0.001123
v -0.007673 -0.002432 0.000688
v -0.009203 -0.002567 0.001123
v -0.008972 -0.002504 0.001123
v -0.007018 -0.003029 0.000033
v -0.006637 -0.003574 0.000253
v -0.006552 -0.003790 0.000253
v -0.006432 -0.004119 0.000253
v -0.006367 -0.004119 0.000688
v -0.006270 -0.004552 0.000688
v -0.001659 -0.031692 0.001038
v -0.002021 -0.031692 0.037904
v -0.002256 -0.031156 0.038145
v -0.006605 -0.004889 0.038098
v -0.007261 -0.003675 0.038432
v -0.006638 -0.004552 0.038022
v -0.007002 -0.003577 0.038161
v -0.007936 -0.003060 0.038563
v -0.008540 -0.002579 0.038174
v -0.008837 -0.002590 0.038161
v -0.008083 -0.002815 0.038368
v -0.008222 -0.002593 0.038170
v -0.009091 -0.002810 0.038297
v -0.009184 -0.002654 0.038115
v -0.009203 -0.002538 0.037781
v -0.007651 -0.003225 0.038503
v -0.007252 -0.003294 0.038246
v -0.007404 -0.002994 0.038187
v -0.009203 -0.002533 0.001469
v -0.008539 -0.002354 0.001558
v -0.007316 -0.002530 0.000688
v -0.007100 -0.002660 0.000688
v -0.006965 -0.002960 0.000253
v -0.007673 -0.002354 0.001123
v -0.008106 -0.002302 0.001558
v -0.007673 -0.002319 0.001558
v -0.006794 -0.003254 0.000253
v -0.006591 -0.003470 0.000485
v -0.006555 -0.003548 0.000709
v -0.006500 -0.003686 0.001123
v -0.006570 -0.003421 0.002854
v -0.006490 -0.003686 0.002854
v -0.006571 -0.003433 0.010645
v -0.001644 -0.031692 0.001912
v -0.001646 -0.031692 0.001482
v -0.006515 -0.003686 0.010645
v -0.006605 -0.003981 0.036189
v -0.006486 -0.004552 0.035759
v -0.001662 -0.031692 0.016278
v -0.006561 -0.004552 0.037802
v -0.001887 -0.031692 0.037452
v -0.006583 -0.004312 0.037731
v -0.006691 -0.004148 0.037891
v -0.006844 -0.003686 0.037925
v -0.006970 -0.003381 0.037925
v -0.007108 -0.003161 0.037925
v -0.007673 -0.002905 0.038275
v -0.007942 -0.002616 0.038107
v -0.008540 -0.002472 0.037921
v -0.008979 -0.002527 0.037942
v -0.008157 -0.002524 0.037942
v -0.008973 -0.002411 0.037490
v -0.009203 -0.002478 0.037490
v -0.007324 -0.002922 0.037925
v -0.007740 -0.002631 0.037878
v -0.009203 -0.002521 0.001988
v -0.008539 -0.002325 0.002423
v -0.008539 -0.002336 0.001988
v -0.008106 -0.002261 0.002423
v -0.007270 -0.002492 0.001123
v -0.006899 -0.002876 0.000688
v -0.007054 -0.002628 0.001123
v -0.007248 -0.002472 0.001558
v -0.008106 -0.002244 0.002854
v -0.007673 -0.002279 0.002854
v -0.006665 -0.003288 0.000650
v -0.006669 -0.003228 0.001123
v -0.006581 -0.003444 0.001123
v -0.006572 -0.003427 0.002423
v -0.006668 -0.003205 0.002854
v -0.006851 -0.002821 0.005886
v -0.006853 -0.002821 0.006317
v -0.006851 -0.003254 0.036624
v -0.006674 -0.003686 0.037055
v -0.006609 -0.004024 0.037055
v -0.006424 -0.004987 0.036624
v -0.006416 -0.004987 0.036189
v -0.001831 -0.031692 0.036624
v -0.001827 -0.031692 0.036189
v -0.001853 -0.031692 0.037051
v -0.006528 -0.004552 0.037490
v -0.006579 -0.004275 0.037490
v -0.006714 -0.003686 0.037490
v -0.006918 -0.003225 0.037473
v -0.007044 -0.003060 0.037600
v -0.007669 -0.002550 0.037444
v -0.008106 -0.002420 0.037490
v -0.008540 -0.002365 0.037490
v -0.008540 -0.002334 0.037051
v -0.008973 -0.002391 0.037051
v -0.009203 -0.002452 0.037051
v -0.007457 -0.002602 0.037275
v -0.007521 -0.002642 0.037562
v -0.009203 -0.002515 0.002423
v -0.008539 -0.002319 0.002854
v -0.006885 -0.002844 0.001123
v -0.007033 -0.002613 0.001558
v -0.007673 -0.002267 0.003285
v -0.007240 -0.002458 0.002423
v -0.007198 -0.002492 0.001959
v -0.007019 -0.002599 0.002085
v -0.007025 -0.002605 0.001798
v -0.008106 -0.002238 0.003285
v -0.007673 -0.002250 0.004150
v -0.006984 -0.002561 0.005886
v -0.006999 -0.003006 0.036189
v -0.007002 -0.003011 0.036624
v -0.006859 -0.003254 0.037055
v -0.006986 -0.002564 0.006317
v -0.007018 -0.003029 0.037313
v -0.007673 -0.002495 0.037055
v -0.008163 -0.002365 0.037110
v -0.008106 -0.002276 0.035324
v -0.008106 -0.002267 0.034893
v -0.008540 -0.002299 0.035319
v -0.008540 -0.002293 0.034889
v -0.008540 -0.002285 0.025358
v -0.008973 -0.002406 0.024500
v -0.009203 -0.002512 0.003285
v -0.007365 -0.002524 0.035324
v -0.007673 -0.002368 0.035324
v -0.007673 -0.002460 0.036624
v -0.008106 -0.002230 0.004585
v -0.007240 -0.002406 0.005447
v -0.008106 -0.002224 0.025793
v -0.007673 -0.002250 0.005016
v -0.007240 -0.002403 0.005886
v -0.007332 -0.002492 0.030556
v -0.007352 -0.002510 0.034893
v -0.007117 -0.002752 0.030991
v -0.007136 -0.002786 0.034893
v -0.007010 -0.003020 0.037055
v -0.007673 -0.002345 0.034893
v -0.007673 -0.002308 0.025793
f 1 2 3
f 1 3 4
f 1 4 5
f 1 5 22
f 1 22 47
f 1 47 71
f 1 71 94
f 1 94 123
f 1 123 157
f 1 157 156
f 1 156 161
f 1 161 201
f 1 201 200
f 1 200 202
f 1 202 163
f 1 163 124
f 1 124 95
f 1 95 76
f 1 76 74
f 1 74 73
f 1 73 72
f 1 72 50
f 1 50 49
f 1 49 32
f 1 32 48
f 1 48 24
f 1 24 27
f 1 27 23
f 1 23 6
f 1 6 2
f 2 6 7
f 2 7 8
f 2 8 9
f 2 9 10
f 2 10 11
f 2 11 12
f 2 12 13
f 2 13 14
f 2 14 30
f 2 30 55
f 2 55 80
f 2 80 105
f 2 105 137
f 2 137 175
f 2 175 213
f 2 213 241
f 2 241 216
f 2 216 178
f 2 178 141
f 2 141 115
f 2 115 87
f 2 87 60
f 2 60 35
f 2 35 15
f 2 15 3
f 3 15 16
f 3 16 17
f 3 17 18
f 3 18 4
f 4 18 19
f 4 19 5
f 5 19 20
f 5 20 21
f 5 21 22
f 6 23 9
f 6 9 8
f 6 8 7
f 9 23 10
f 10 24 25
f 10 25 26
f 10 26 12
f 10 12 11
f 10 23 27
f 10 27 24
f 12 26 28
f 12 28 14
f 12 14 13
f 14 29 30
f 14 28 31
f 14 31 32
f 14 32 29
f 15 33 34
f 15 34 16
f 15 35 33
f 16 34 36
f 16 36 37
f 16 37 38
f 16 38 39
f 16 39 17
f 17 39 40
f 17 40 41
f 17 41 42
f 17 42 18
f 18 42 19
f 19 42 20
f 20 42 41
f 20 41 43
f 20 43 21
f 21 44 22
f 21 43 44
f 22 45 46
f 22 46 47
f 22 44 45
f 24 48 26
f 24 26 25
f 26 48 28
f 28 48 32
f 28 32 31
f 29 32 49
f 29 49 50
f 29 50 51
f 29 51 30
f 30 51 52
f 30 52 53
f 30 53 54
f 30 54 55
f 33 56 34
f 33 35 57
f 33 57 56
f 34 56 36
f 35 58 59
f 35 59 57
f 35 60 58
f 36 56 61
f 36 61 37
f 37 61 62
f 37 62 63
f 37 63 64
f 37 64 38
f 38 64 39
f 39 64 40
f 40 64 65
f 40 65 66
f 40 66 67
f 40 67 41
f 41 67 68
f 41 68 69
f 41 69 43
f 43 69 44
f 44 69 68
f 44 68 45
f 45 68 46
f 46 68 70
f 46 70 47
f 47 70 71
f 50 72 51
f 51 72 73
f 51 73 74
f 51 74 52
f 52 75 53
f 52 74 76
f 52 76 75
f 53 75 54
f 54 75 77
f 54 77 78
f 54 78 79
f 54 79 80
f 54 80 55
f 56 57 81
f 56 81 61
f 57 59 81
f 58 60 82
f 58 82 83
f 58 83 59
f 59 84 81
f 59 83 85
f 59 85 86
f 59 86 84
f 60 87 82
f 61 81 62
f 62 65 63
f 62 81 88
f 62 88 89
f 62 89 65
f 63 65 64
f 65 89 66
f 66 89 90
f 66 90 91
f 66 91 92
f 66 92 70
f 66 70 68
f 66 68 67
f 70 92 93
f 70 93 71
f 71 93 94
f 75 76 95
f 75 95 77
f 77 95 78
f 78 96 97
f 78 97 98
f 78 98 99
f 78 99 79
f 78 95 100
f 78 100 101
f 78 101 96
f 79 102 103
f 79 103 104
f 79 104 105
f 79 105 80
f 79 99 106
f 79 106 107
f 79 107 102
f 81 84 88
f 82 87 108
f 82 108 83
f 83 108 87
f 83 87 109
f 83 109 85
f 84 86 110
f 84 110 111
f 84 111 112
f 84 112 88
f 85 109 113
f 85 113 114
f 85 114 86
f 86 114 110
f 87 115 116
f 87 116 109
f 88 112 89
f 89 112 117
f 89 117 90
f 90 117 92
f 90 92 91
f 92 117 118
f 92 118 119
f 92 119 120
f 92 120 93
f 93 120 121
f 93 121 122
f 93 122 94
f 94 122 123
f 95 124 125
f 95 125 100
f 96 101 126
f 96 126 97
f 97 127 99
f 97 99 98
f 97 126 128
f 97 128 129
f 97 129 127
f 99 127 106
f 100 126 101
f 100 125 124
f 100 124 126
f 102 107 130
f 102 130 103
f 103 131 132
f 103 132 104
f 103 130 133
f 103 133 134
f 103 134 131
f 104 132 135
f 104 135 105
f 105 135 136
f 105 136 137
f 106 138 130
f 106 130 107
f 106 127 139
f 106 139 140
f 106 140 138
f 109 116 141
f 109 141 142
f 109 142 113
f 110 114 143
f 110 143 144
f 110 144 111
f 111 145 117
f 111 117 112
f 111 144 145
f 113 146 114
f 113 142 147
f 113 147 148
f 113 148 146
f 114 146 143
f 115 141 116
f 117 145 149
f 117 149 118
f 118 149 150
f 118 150 119
f 119 150 120
f 120 150 121
f 121 150 151
f 121 151 152
f 121 152 153
f 121 153 154
f 121 154 155
f 121 155 122
f 122 156 157
f 122 157 123
f 122 155 158
f 122 158 159
f 122 159 160
f 122 160 161
f 122 161 156
f 124 162 126
f 124 163 162
f 126 162 128
f 127 129 139
f 128 162 164
f 128 164 165
f 128 165 166
f 128 166 129
f 129 166 167
f 129 167 168
f 129 168 140
f 129 140 139
f 130 138 140
f 130 140 169
f 130 169 170
f 130 170 133
f 131 134 171
f 131 171 132
f 132 171 172
f 132 172 136
f 132 136 135
f 133 170 134
f 134 170 173
f 134 173 171
f 136 172 137
f 137 172 174
f 137 174 175
f 140 168 176
f 140 176 177
f 140 177 170
f 140 170 169
f 141 178 179
f 141 179 180
f 141 180 142
f 142 180 186
f 142 186 181
f 142 181 147
f 143 146 182
f 143 182 144
f 144 183 145
f 144 182 184
f 144 184 183
f 145 183 150
f 145 150 149
f 146 148 182
f 147 181 148
f 148 185 182
f 148 181 186
f 148 186 187
f 148 187 185
f 150 183 188
f 150 188 189
f 150 189 190
f 150 190 151
f 151 190 152
f 152 190 191
f 152 191 153
f 153 192 155
f 153 155 154
f 153 191 189
f 153 189 192
f 155 192 193
f 155 193 194
f 155 194 195
f 155 195 196
f 155 196 158
f 158 196 159
f 159 196 160
f 160 196 197
f 160 197 198
f 160 198 199
f 160 199 200
f 160 200 201
f 160 201 161
f 162 163 164
f 163 202 164
f 164 166 165
f 164 202 203
f 164 203 204
f 164 204 196
f 164 196 205
f 164 205 166
f 166 205 167
f 167 205 206
f 167 206 207
f 167 207 168
f 168 207 176
f 170 177 208
f 170 208 209
f 170 209 173
f 171 210 174
f 171 174 172
f 171 173 210
f 173 209 210
f 174 210 211
f 174 211 212
f 174 212 213
f 174 213 175
f 176 207 214
f 176 214 215
f 176 215 177
f 177 215 208
f 178 216 217
f 178 217 179
f 179 217 225
f 179 225 186
f 179 186 180
f 182 185 184
f 183 184 218
f 183 218 188
f 184 185 219
f 184 219 218
f 185 187 220
f 185 220 221
f 185 221 222
f 185 222 223
f 185 223 224
f 185 224 219
f 186 225 226
f 186 226 220
f 186 220 187
f 188 218 189
f 189 218 227
f 189 227 192
f 189 191 190
f 192 227 193
f 193 227 194
f 194 227 195
f 195 228 229
f 195 229 230
f 195 230 196
f 195 227 231
f 195 231 228
f 196 230 205
f 196 204 197
f 197 204 203
f 197 203 198
f 198 200 199
f 198 203 200
f 200 203 202
f 205 230 206
f 206 230 232
f 206 232 207
f 207 232 214
f 208 214 233
f 208 233 209
f 208 215 214
f 209 233 234
f 209 234 210
f 210 234 211
f 211 234 235
f 211 235 236
f 211 236 237
f 211 237 212
f 212 237 238
f 212 238 239
f 212 239 213
f 213 239 240
f 213 240 241
f 214 232 242
f 214 242 243
f 214 243 244
f 214 244 233
f 216 241 217
f 217 241 240
f 217 240 239
f 217 239 245
f 217 245 225
f 218 219 224
f 218 224 223
f 218 223 227
f 220 226 221
f 221 223 222
f 221 226 246
f 221 246 223
f 223 246 227
f 225 245 226
f 226 245 247
f 226 247 248
f 226 248 249
f 226 249 246
f 227 246 249
f 227 249 250
f 227 250 251
f 227 251 231
f 228 231 252
f 228 252 253
f 228 253 229
f 229 254 230
f 229 253 251
f 229 251 254
f 230 254 232
f 231 251 252
f 232 254 251
f 232 251 242
f 233 244 234
f 234 244 243
f 234 243 235
f 235 243 255
f 235 255 236
f 236 247 238
f 236 238 237
f 236 255 247
f 238 247 239
f 239 247 245
f 242 251 255
f 242 255 243
f 247 255 256
f 247 256 248
f 248 256 249
f 249 256 255
f 249 255 250
f 250 255 251
f 251 253 252
