v -0.031934 -0.039362 0.001551
v -0.032367 -0.039336 0.001551
v -0.031934 -0.039359 0.001116
v -0.031501 -0.039284 0.000686
v -0.031892 -0.039322 0.016761
v -0.031933 -0.039327 0.017148
v -0.032367 -0.039342 0.016714
v -0.032800 -0.039178 0.001551
v -0.032367 -0.039313 0.001116
v -0.031934 -0.039345 0.000686
v -0.032800 -0.039215 0.006311
v -0.031501 -0.039230 0.000252
v -0.030202 -0.038925 0.000682
v -0.031501 -0.039233 0.017148
v -0.031501 -0.039101 0.037485
v -0.032367 -0.039204 0.036187
v -0.031933 -0.039178 0.037055
v -0.032800 -0.039109 0.035752
v -0.032800 -0.039184 0.016288
v -0.033056 -0.039017 0.001551
v -0.033038 -0.039000 0.001116
v -0.032800 -0.039147 0.001116
v -0.033125 -0.039060 0.005881
v -0.032367 -0.039264 0.000686
v -0.031934 -0.039279 0.000252
v -0.031501 -0.039081 -0.000093
v -0.030856 -0.038980 0.000043
v -0.030202 -0.038859 0.000252
v -0.030202 -0.038851 0.019316
v -0.030202 -0.038733 0.036617
v -0.030202 -0.038722 0.037055
v -0.031238 -0.039003 0.037784
v -0.031490 -0.039046 0.037924
v -0.031912 -0.039164 0.037507
v -0.032367 -0.039195 0.036621
v -0.032788 -0.039103 0.036195
v -0.032367 -0.039184 0.037055
v -0.033041 -0.038994 0.036187
v -0.033048 -0.039000 0.035752
v -0.033221 -0.038765 0.001551
v -0.033123 -0.039052 0.005447
v -0.033339 -0.038836 0.005447
v -0.033480 -0.038607 0.005013
v -0.033464 -0.038578 0.004152
v -0.033186 -0.038765 0.001116
v -0.033022 -0.038983 0.000882
v -0.032808 -0.039066 0.000720
v -0.033340 -0.038839 0.005881
v -0.033478 -0.038590 0.037485
v -0.032367 -0.039172 0.000252
v -0.032367 -0.039043 -0.000046
v -0.031934 -0.039098 -0.000119
v -0.031934 -0.038874 -0.000336
v -0.031501 -0.038836 -0.000310
v -0.030202 -0.038670 -0.000093
v -0.031144 -0.039023 -0.000021
v -0.030202 -0.038693 0.037485
v -0.030202 -0.038598 0.037937
v -0.031340 -0.038954 0.038073
v -0.031628 -0.039009 0.038188
v -0.031933 -0.039109 0.037924
v -0.032367 -0.039149 0.037485
v -0.032776 -0.039072 0.037055
v -0.033004 -0.038971 0.037485
v -0.032776 -0.039052 0.037485
v -0.033234 -0.038799 0.037485
v -0.033456 -0.038564 0.003803
v -0.033434 -0.038498 0.002849
v -0.033397 -0.038406 0.001551
v -0.033493 -0.038621 0.005881
v -0.033487 -0.038621 0.005447
v -0.033534 -0.038328 0.004587
v -0.033521 -0.038328 0.004152
v -0.033473 -0.038188 0.001551
v -0.033392 -0.038314 0.001078
v -0.033106 -0.038770 0.000720
v -0.033068 -0.038630 0.000341
v -0.032957 -0.038923 0.000601
v -0.032602 -0.038994 0.000018
v -0.032661 -0.039032 0.000252
v -0.033493 -0.038621 0.006311
v -0.033468 -0.038575 0.037762
v -0.033583 -0.038328 0.037485
v -0.033591 -0.038328 0.037055
v -0.032396 -0.038762 -0.000285
v -0.032271 -0.038618 -0.000434
v -0.031934 -0.038656 -0.000442
v -0.031501 -0.038621 -0.000425
v -0.030202 -0.038205 -0.000451
v -0.030202 -0.038420 -0.000314
v -0.030202 -0.038541 0.038124
v -0.030202 -0.038363 0.038316
v -0.031489 -0.038759 0.038375
v -0.031639 -0.038564 0.038580
v -0.031912 -0.038768 0.038426
v -0.031912 -0.039017 0.038201
v -0.032375 -0.039052 0.037941
v -0.032237 -0.038997 0.038171
v -0.032716 -0.039017 0.037809
v -0.032806 -0.038920 0.037958
v -0.033244 -0.038681 0.037916
v -0.033462 -0.038153 0.001197
v -0.033559 -0.038328 0.005881
v -0.033562 -0.038328 0.006311
v -0.033551 -0.038328 0.005447
v -0.038287 -0.010031 0.001551
v -0.033527 -0.037898 0.001551
v -0.033447 -0.038110 0.000908
v -0.033308 -0.038328 0.000686
v -0.033135 -0.038363 0.000218
v -0.033008 -0.038526 0.000052
v -0.032900 -0.038770 0.000218
v -0.032699 -0.038765 -0.000080
v -0.032560 -0.038509 -0.000391
v -0.033392 -0.038478 0.038052
v -0.033481 -0.038188 0.038175
v -0.033515 -0.038331 0.037916
v -0.033664 -0.037892 0.037485
v -0.033684 -0.037892 0.037055
v -0.032396 -0.038351 -0.000463
v -0.031934 -0.038328 -0.000523
v -0.031501 -0.038328 -0.000502
v -0.030202 -0.037898 -0.000536
v -0.030202 -0.038084 0.038567
v -0.031351 -0.038506 0.038563
v -0.031912 -0.038569 0.038588
v -0.030202 -0.033109 0.042600
v -0.032176 -0.038555 0.038580
v -0.032525 -0.038960 0.038099
v -0.032351 -0.038756 0.038354
v -0.032800 -0.038684 0.038265
v -0.033107 -0.038604 0.038188
v -0.033878 -0.035497 0.000550
v -0.038401 -0.010031 0.036621
v -0.038352 -0.010031 0.021045
v -0.038264 -0.010031 0.001121
v -0.033903 -0.035207 0.000388
v -0.033839 -0.035331 0.000248
v -0.033273 -0.037898 0.000252
v -0.033060 -0.038236 -0.000021
v -0.032811 -0.038371 -0.000208
v -0.032870 -0.037898 -0.000289
v -0.032615 -0.038219 -0.000417
v -0.033244 -0.038331 0.038265
v -0.030438 -0.032956 0.042502
v -0.030864 -0.032078 0.042489
v -0.030908 -0.031834 0.042531
v -0.030973 -0.031400 0.042582
v -0.031344 -0.030103 0.042540
v -0.034053 -0.014079 0.042617
v -0.034270 -0.014079 0.042340
v -0.038181 -0.010031 0.038082
v -0.038282 -0.010031 0.037864
v -0.038361 -0.010031 0.037490
v -0.038386 -0.010031 0.037132
v -0.032367 -0.037898 -0.000510
v -0.031934 -0.037898 -0.000561
v -0.031501 -0.037898 -0.000574
v -0.031067 -0.037898 -0.000561
v -0.036695 -0.010031 -0.000510
v -0.036415 -0.010031 -0.000434
v -0.030202 -0.037464 -0.000502
v -0.034962 -0.021010 -0.000578
v -0.036695 -0.011914 -0.000553
v -0.030202 -0.032698 0.042714
v -0.030497 -0.032698 0.042548
v -0.032464 -0.038463 0.038541
v -0.037771 -0.012520 0.000524
v -0.037790 -0.012635 0.000806
v -0.038211 -0.010031 0.000673
v -0.037742 -0.012362 0.000256
v -0.036939 -0.016577 0.000005
v -0.033854 -0.034863 0.000107
v -0.033570 -0.035730 -0.000131
v -0.033509 -0.036163 -0.000063
v -0.033103 -0.037898 -0.000072
v -0.033348 -0.035730 -0.000348
v -0.032914 -0.037464 -0.000340
v -0.033042 -0.036497 -0.000412
v -0.032653 -0.037898 -0.000434
v -0.030642 -0.032236 0.042591
v -0.030634 -0.031834 0.042689
v -0.030634 -0.031400 0.042753
v -0.033891 -0.013430 0.042915
v -0.034050 -0.013617 0.042719
v -0.037959 -0.010031 0.038333
v -0.032800 -0.035730 -0.000510
v -0.033133 -0.035730 -0.000438
v -0.033175 -0.035299 -0.000451
v -0.032800 -0.036163 -0.000493
v -0.035395 -0.021010 -0.000549
v -0.037128 -0.010105 -0.000540
v -0.037280 -0.010031 -0.000515
v -0.036199 -0.010031 -0.000229
v -0.034346 -0.015379 0.000069
v -0.034561 -0.015379 -0.000093
v -0.034922 -0.015379 -0.000310
v -0.035139 -0.015379 -0.000417
v -0.034163 -0.015379 0.000286
v -0.030202 -0.037229 -0.000417
v -0.035829 -0.017975 -0.000553
v -0.030202 -0.032264 0.042757
v -0.038127 -0.010031 0.000256
v -0.037759 -0.011914 0.000107
v -0.034335 -0.031739 0.000005
v -0.037928 -0.010031 -0.000140
v -0.036969 -0.016241 -0.000033
v -0.037482 -0.012781 -0.000123
v -0.037761 -0.010031 -0.000323
v -0.036492 -0.016959 -0.000408
v -0.033390 -0.035299 -0.000374
v -0.033080 -0.036163 -0.000425
v -0.030634 -0.030967 0.042778
v -0.031296 -0.017340 0.042923
v -0.033628 -0.013246 0.042915
v -0.033451 -0.012985 0.042910
v -0.033061 -0.011676 0.042740
v -0.033061 -0.011346 0.042634
v -0.033061 -0.011090 0.042531
v -0.033977 -0.012781 0.042578
v -0.033061 -0.010915 0.042365
v -0.037626 -0.010031 0.038533
v -0.033904 -0.031728 -0.000417
v -0.036169 -0.017975 -0.000468
v -0.037493 -0.010180 -0.000468
v -0.036695 -0.013645 -0.000523
v -0.037570 -0.010031 -0.000442
v -0.036003 -0.010031 -0.000008
v -0.034227 -0.014946 0.000375
v -0.033935 -0.015345 0.000720
v -0.033884 -0.015179 0.000916
v -0.030202 -0.020975 0.013478
v -0.030202 -0.031837 0.042770
v -0.038023 -0.010031 0.000039
v -0.036512 -0.016674 -0.000421
v -0.033439 -0.013212 0.042915
v -0.030537 -0.017975 0.042783
v -0.033061 -0.012172 0.042812
v -0.030537 -0.017539 0.042723
v -0.030537 -0.017254 0.042523
v -0.030537 -0.017071 0.042165
v -0.030537 -0.016982 0.041829
v -0.033061 -0.010849 0.042093
v -0.037128 -0.010031 0.038605
v -0.037365 -0.010031 0.038593
v -0.035854 -0.010031 0.000252
v -0.035750 -0.010031 0.000533
v -0.035710 -0.010031 0.000686
v -0.033061 -0.010031 0.011464
v -0.030537 -0.016381 0.039112
v -0.030202 -0.020975 0.038601
v -0.030202 -0.027938 0.042672
v -0.030202 -0.027501 0.042565
v -0.030202 -0.027289 0.042450
v -0.030202 -0.026712 0.042110
v -0.033061 -0.010031 0.038708
f 1 2 3
f 1 3 4
f 1 4 5
f 1 5 6
f 1 6 7
f 1 7 2
f 2 8 9
f 2 9 10
f 2 10 3
f 2 7 11
f 2 11 8
f 3 10 4
f 4 10 12
f 4 12 13
f 4 13 14
f 4 14 5
f 5 14 15
f 5 15 6
f 6 16 7
f 6 15 17
f 6 17 16
f 7 16 18
f 7 18 19
f 7 19 11
f 8 20 21
f 8 21 22
f 8 22 9
f 8 11 23
f 8 23 20
f 9 24 10
f 9 22 24
f 10 24 25
f 10 25 12
f 11 19 23
f 12 25 26
f 12 26 27
f 12 27 28
f 12 28 13
f 13 28 55
f 13 55 90
f 13 90 89
f 13 89 123
f 13 123 162
f 13 162 200
f 13 200 232
f 13 232 251
f 13 251 255
f 13 255 254
f 13 254 253
f 13 253 252
f 13 252 233
f 13 233 202
f 13 202 165
f 13 165 127
f 13 127 124
f 13 124 92
f 13 92 91
f 13 91 58
f 13 58 57
f 13 57 31
f 13 31 30
f 13 30 29
f 13 29 14
f 14 29 15
f 15 29 30
f 15 30 31
f 15 31 32
f 15 32 33
f 15 33 34
f 15 34 17
f 16 35 36
f 16 36 18
f 16 17 35
f 17 34 37
f 17 37 35
f 18 36 38
f 18 38 39
f 18 39 19
f 19 39 23
f 20 40 21
f 20 23 41
f 20 41 42
f 20 42 43
f 20 43 44
f 20 44 40
f 21 45 46
f 21 46 22
f 21 40 45
f 22 46 47
f 22 47 24
f 23 48 42
f 23 42 41
f 23 39 49
f 23 49 48
f 24 47 50
f 24 50 25
f 25 50 51
f 25 51 52
f 25 52 26
f 26 52 53
f 26 53 54
f 26 54 55
f 26 55 56
f 26 56 27
f 27 56 55
f 27 55 28
f 31 57 32
f 32 58 59
f 32 59 33
f 32 57 58
f 33 59 60
f 33 60 61
f 33 61 34
f 34 61 62
f 34 62 37
f 35 37 36
f 36 37 63
f 36 63 64
f 36 64 38
f 37 62 65
f 37 65 63
f 38 64 66
f 38 66 39
f 39 66 49
f 40 44 67
f 40 67 68
f 40 68 69
f 40 69 45
f 42 48 70
f 42 70 71
f 42 71 43
f 43 72 44
f 43 71 72
f 44 72 73
f 44 73 74
f 44 74 67
f 45 69 75
f 45 75 76
f 45 76 46
f 46 76 77
f 46 77 78
f 46 78 79
f 46 79 80
f 46 80 47
f 47 80 50
f 48 81 70
f 48 49 81
f 49 66 82
f 49 82 83
f 49 83 84
f 49 84 81
f 50 80 79
f 50 79 51
f 51 85 53
f 51 53 52
f 51 79 85
f 53 85 86
f 53 86 87
f 53 87 88
f 53 88 54
f 54 88 89
f 54 89 90
f 54 90 55
f 58 91 59
f 59 91 60
f 60 91 92
f 60 92 93
f 60 93 94
f 60 94 95
f 60 95 96
f 60 96 61
f 61 97 62
f 61 96 98
f 61 98 97
f 62 97 99
f 62 99 65
f 63 65 64
f 64 65 99
f 64 99 100
f 64 100 101
f 64 101 82
f 64 82 66
f 67 74 68
f 68 74 69
f 69 74 102
f 69 102 75
f 70 103 71
f 70 81 104
f 70 104 103
f 71 105 72
f 71 103 105
f 72 105 106
f 72 106 107
f 72 107 73
f 73 107 74
f 74 107 102
f 75 108 109
f 75 109 76
f 75 102 108
f 76 109 77
f 77 110 111
f 77 111 112
f 77 112 78
f 77 109 110
f 78 112 79
f 79 112 111
f 79 111 113
f 79 113 114
f 79 114 85
f 81 84 104
f 82 101 115
f 82 115 116
f 82 116 117
f 82 117 83
f 83 118 119
f 83 119 84
f 83 117 118
f 84 119 104
f 85 114 86
f 86 120 121
f 86 121 87
f 86 114 120
f 87 121 122
f 87 122 88
f 88 122 123
f 88 123 89
f 92 124 125
f 92 125 93
f 93 125 94
f 94 126 95
f 94 125 127
f 94 127 126
f 95 126 128
f 95 128 96
f 96 128 98
f 97 98 129
f 97 129 99
f 98 130 131
f 98 131 129
f 98 128 130
f 99 129 100
f 100 129 132
f 100 132 101
f 101 132 115
f 102 107 133
f 102 133 108
f 103 104 106
f 103 106 105
f 104 134 135
f 104 135 106
f 104 119 134
f 106 136 107
f 106 135 134
f 106 134 155
f 106 155 154
f 106 154 153
f 106 153 152
f 106 152 186
f 106 186 222
f 106 222 245
f 106 245 244
f 106 244 256
f 106 256 249
f 106 249 248
f 106 248 247
f 106 247 246
f 106 246 228
f 106 228 194
f 106 194 161
f 106 161 160
f 106 160 193
f 106 193 227
f 106 227 209
f 106 209 206
f 106 206 234
f 106 234 203
f 106 203 170
f 106 170 136
f 107 136 133
f 108 133 137
f 108 137 138
f 108 138 139
f 108 139 110
f 108 110 109
f 110 140 111
f 110 139 140
f 111 140 141
f 111 141 114
f 111 114 113
f 114 141 142
f 114 142 143
f 114 143 120
f 115 132 144
f 115 144 116
f 116 144 127
f 116 127 145
f 116 145 146
f 116 146 147
f 116 147 148
f 116 148 149
f 116 149 150
f 116 150 151
f 116 151 152
f 116 152 153
f 116 153 117
f 117 153 154
f 117 154 118
f 118 155 119
f 118 154 155
f 119 155 134
f 120 156 121
f 120 143 156
f 121 123 122
f 121 156 157
f 121 157 158
f 121 158 159
f 121 159 123
f 123 160 161
f 123 161 162
f 123 159 163
f 123 163 164
f 123 164 160
f 124 127 125
f 126 127 128
f 127 165 166
f 127 166 145
f 127 144 132
f 127 132 167
f 127 167 128
f 128 167 131
f 128 131 130
f 129 131 132
f 131 167 132
f 133 168 137
f 133 136 169
f 133 169 168
f 136 170 169
f 137 168 171
f 137 171 138
f 138 171 172
f 138 172 173
f 138 173 174
f 138 174 175
f 138 175 139
f 139 175 140
f 140 175 174
f 140 174 176
f 140 176 142
f 140 142 141
f 142 177 178
f 142 178 143
f 142 176 177
f 143 178 177
f 143 177 179
f 143 179 180
f 143 180 156
f 145 166 146
f 146 166 181
f 146 181 147
f 147 181 182
f 147 182 148
f 148 182 183
f 148 183 149
f 149 183 184
f 149 184 185
f 149 185 150
f 150 185 151
f 151 185 152
f 152 185 184
f 152 184 186
f 156 187 157
f 156 180 188
f 156 188 189
f 156 189 190
f 156 190 187
f 157 191 163
f 157 163 158
f 157 187 191
f 158 163 159
f 160 164 192
f 160 192 193
f 161 194 195
f 161 195 196
f 161 196 197
f 161 197 198
f 161 198 162
f 162 198 197
f 162 197 196
f 162 196 195
f 162 195 199
f 162 199 200
f 163 191 201
f 163 201 164
f 164 201 192
f 165 202 183
f 165 183 182
f 165 182 181
f 165 181 166
f 168 169 170
f 168 170 203
f 168 203 171
f 171 203 204
f 171 204 172
f 172 205 173
f 172 204 206
f 172 206 207
f 172 207 174
f 172 174 205
f 173 205 174
f 174 207 208
f 174 208 209
f 174 209 210
f 174 210 177
f 174 177 176
f 177 210 211
f 177 211 179
f 179 211 212
f 179 212 180
f 180 212 188
f 183 202 213
f 183 213 184
f 184 213 214
f 184 214 215
f 184 215 216
f 184 216 217
f 184 217 218
f 184 218 219
f 184 219 220
f 184 220 186
f 186 220 219
f 186 219 221
f 186 221 222
f 187 190 189
f 187 189 191
f 188 212 211
f 188 211 189
f 189 211 223
f 189 223 191
f 191 192 201
f 191 223 224
f 191 224 225
f 191 225 226
f 191 226 192
f 192 226 193
f 193 226 225
f 193 225 227
f 194 228 195
f 195 228 199
f 199 228 229
f 199 229 230
f 199 230 200
f 200 230 231
f 200 231 232
f 202 233 213
f 203 234 204
f 204 234 206
f 206 209 208
f 206 208 207
f 209 227 210
f 210 227 225
f 210 225 235
f 210 235 211
f 211 235 224
f 211 224 223
f 213 233 214
f 214 236 215
f 214 233 237
f 214 237 238
f 214 238 216
f 214 216 236
f 215 236 216
f 216 238 217
f 217 238 239
f 217 239 218
f 218 239 219
f 219 239 240
f 219 240 221
f 221 241 242
f 221 242 243
f 221 243 244
f 221 244 245
f 221 245 222
f 221 240 241
f 224 235 225
f 228 246 229
f 229 246 231
f 229 231 230
f 231 246 247
f 231 247 248
f 231 248 249
f 231 249 232
f 232 249 250
f 232 250 251
f 233 252 237
f 237 252 239
f 237 239 238
f 239 252 253
f 239 253 254
f 239 254 255
f 239 255 251
f 239 251 240
f 240 251 241
f 241 251 242
f 242 250 256
f 242 256 243
f 242 251 250
f 243 256 244
f 249 256 250
