v -0.008384 -0.011075 0.039218
v -0.008387 -0.011052 0.039218
v -0.008624 -0.011047 0.041393
v -0.008583 -0.011480 0.041393
v -0.008582 -0.011912 0.041393
v -0.008387 -0.011466 0.039218
v -0.009205 -0.018221 0.012584
v -0.009205 -0.017527 0.012358
v -0.009205 -0.017108 0.012240
v -0.009205 -0.016830 0.012175
v -0.009205 -0.016240 0.012078
v -0.009205 -0.015984 0.012038
v -0.009205 -0.015808 0.012013
v -0.009205 -0.015375 0.011981
v -0.009205 -0.014946 0.012009
v -0.009205 -0.011212 0.012605
v -0.008456 -0.010671 0.039218
v -0.008705 -0.010675 0.041393
v -0.008735 -0.010752 0.041697
v -0.008716 -0.011074 0.041835
v -0.008668 -0.011480 0.041827
v -0.008652 -0.011912 0.041827
v -0.009205 -0.021093 0.038627
v -0.008480 -0.011912 0.040093
v -0.009205 -0.021093 0.013565
v -0.020012 -0.015265 0.001712
v -0.020012 -0.014944 0.001611
v -0.020012 -0.014494 0.001651
v -0.020012 -0.014360 0.001704
v -0.020012 -0.014270 0.001745
v -0.020012 -0.014135 0.001963
v -0.020012 -0.014043 0.002194
v -0.020012 -0.013967 0.002417
v -0.013231 -0.011212 0.012536
v -0.009205 -0.009268 0.039218
v -0.008753 -0.009970 0.039218
v -0.008657 -0.010162 0.039218
v -0.008461 -0.010647 0.039218
v -0.008779 -0.010457 0.041393
v -0.008938 -0.010181 0.041827
v -0.008809 -0.010610 0.041835
v -0.008776 -0.010947 0.041985
v -0.008755 -0.011236 0.042046
v -0.008744 -0.011480 0.042082
v -0.008733 -0.011912 0.042135
v -0.008740 -0.012183 0.042118
v -0.008840 -0.012335 0.042264
v -0.009055 -0.012345 0.042584
v -0.009129 -0.012681 0.042532
v -0.010068 -0.014712 0.042455
v -0.010358 -0.014846 0.042540
v -0.010822 -0.015210 0.042519
v -0.011673 -0.015660 0.042556
v -0.012007 -0.015742 0.042621
v -0.012873 -0.015808 0.042803
v -0.012873 -0.016132 0.042592
v -0.013307 -0.016177 0.042629
v -0.009497 -0.021093 0.038647
v -0.015418 -0.021095 0.038635
v -0.009258 -0.021093 0.013561
v -0.025866 -0.020969 0.001611
v -0.025563 -0.020969 0.001708
v -0.020012 -0.015480 0.001854
v -0.020012 -0.015376 0.001781
v -0.015418 -0.021095 0.016291
v -0.021968 -0.015376 0.001530
v -0.021534 -0.014944 0.001558
v -0.020133 -0.014275 0.001749
v -0.020260 -0.014169 0.001943
v -0.020236 -0.013975 0.002417
v -0.027271 -0.013112 0.012771
v -0.027271 -0.013110 0.038850
v -0.026479 -0.013110 0.041896
v -0.009205 -0.009356 0.040527
v -0.027271 -0.013110 0.012876
v -0.009205 -0.009386 0.040956
v -0.009166 -0.009486 0.041393
v -0.009179 -0.009509 0.041653
v -0.009047 -0.009748 0.041393
v -0.008875 -0.010181 0.041393
v -0.009158 -0.009895 0.042260
v -0.009188 -0.009957 0.042479
v -0.009053 -0.010181 0.042260
v -0.009116 -0.009738 0.041807
v -0.008949 -0.010614 0.042260
v -0.008818 -0.011912 0.042349
v -0.009034 -0.011912 0.042588
v -0.009205 -0.012345 0.042665
v -0.009205 -0.012564 0.042621
v -0.009205 -0.012721 0.042572
v -0.009493 -0.013213 0.042601
v -0.009885 -0.013171 0.042827
v -0.010238 -0.014544 0.042596
v -0.012007 -0.015374 0.042811
v -0.012440 -0.015374 0.042876
v -0.013307 -0.015808 0.042827
v -0.025866 -0.015736 0.042767
v -0.027271 -0.020969 0.038615
v -0.014261 -0.021093 0.038659
v -0.010798 -0.021093 0.038687
v -0.010708 -0.021093 0.038687
v -0.009931 -0.021093 0.038667
v -0.015562 -0.021095 0.038635
v -0.009380 -0.021093 0.013553
v -0.026298 -0.020969 0.001635
v -0.025866 -0.020572 0.001599
v -0.020012 -0.021095 0.016830
v -0.010275 -0.021093 0.013638
v -0.009842 -0.021093 0.013589
v -0.022401 -0.015376 0.001550
v -0.025866 -0.019706 0.001599
v -0.023266 -0.015809 0.001566
v -0.021968 -0.014944 0.001595
v -0.021534 -0.014632 0.001696
v -0.020421 -0.014304 0.001773
v -0.021968 -0.014679 0.001728
v -0.020667 -0.014186 0.002032
v -0.020667 -0.014039 0.002417
v -0.027271 -0.020969 0.014910
v -0.021101 -0.014131 0.002417
v -0.021713 -0.014305 0.002259
v -0.022401 -0.014494 0.002417
v -0.022697 -0.014692 0.002125
v -0.023544 -0.015123 0.002117
v -0.024352 -0.015590 0.002194
v -0.024829 -0.015978 0.002129
v -0.025213 -0.016466 0.002219
v -0.025686 -0.017264 0.002142
v -0.026071 -0.017780 0.002312
v -0.026137 -0.018068 0.002101
v -0.026539 -0.018981 0.002150
v -0.026947 -0.020355 0.002198
v -0.026949 -0.020572 0.002198
v -0.026956 -0.020572 0.002417
v -0.027271 -0.015736 0.039238
v -0.026768 -0.015736 0.041811
v -0.026744 -0.015736 0.041928
v -0.026650 -0.015736 0.042280
v -0.026637 -0.015736 0.042325
v -0.026337 -0.013110 0.042252
v -0.009205 -0.009423 0.041393
v -0.009205 -0.009480 0.041681
v -0.009205 -0.009555 0.041823
v -0.009205 -0.009948 0.042491
v -0.009205 -0.009976 0.042503
v -0.009160 -0.010181 0.042515
v -0.009205 -0.009810 0.042260
v -0.009121 -0.010614 0.042556
v -0.009205 -0.010614 0.042625
v -0.009205 -0.012109 0.042673
v -0.009410 -0.012345 0.042775
v -0.009375 -0.012807 0.042657
v -0.009885 -0.012817 0.042880
v -0.010057 -0.012998 0.042912
v -0.010277 -0.014077 0.042718
v -0.010709 -0.014510 0.042722
v -0.012873 -0.015374 0.042884
v -0.010064 -0.012998 0.042912
v -0.010064 -0.012986 0.042912
v -0.025433 -0.013646 0.042734
v -0.025866 -0.013110 0.042677
v -0.026306 -0.015736 0.042694
v -0.020012 -0.021095 0.038193
v -0.016633 -0.021095 0.038586
v -0.016341 -0.021095 0.038606
v -0.015906 -0.021095 0.038623
v -0.026333 -0.015736 0.042682
v -0.026552 -0.015736 0.042532
v -0.027271 -0.018816 0.039214
v -0.026298 -0.020572 0.001627
v -0.010708 -0.021093 0.013702
v -0.011177 -0.021093 0.013828
v -0.011545 -0.021093 0.013937
v -0.026568 -0.020969 0.001728
v -0.026589 -0.020572 0.001720
v -0.026942 -0.020969 0.002664
v -0.026932 -0.020969 0.002356
v -0.026805 -0.020969 0.002024
v -0.026587 -0.020969 0.001749
v -0.022834 -0.015376 0.001591
v -0.025866 -0.019272 0.001607
v -0.024132 -0.016242 0.001599
v -0.023699 -0.015809 0.001615
v -0.022834 -0.015071 0.001700
v -0.022375 -0.014932 0.001672
v -0.021556 -0.014397 0.001996
v -0.021425 -0.014266 0.002150
v -0.021101 -0.014230 0.002101
v -0.022213 -0.014718 0.001757
v -0.026949 -0.020792 0.002198
v -0.021968 -0.014510 0.001984
v -0.022375 -0.014647 0.001984
v -0.022501 -0.014780 0.001838
v -0.023401 -0.015206 0.001826
v -0.023261 -0.015052 0.001976
v -0.023947 -0.015572 0.001749
v -0.024109 -0.015523 0.002024
v -0.024695 -0.016116 0.001842
v -0.024919 -0.016255 0.001984
v -0.024821 -0.016407 0.001741
v -0.025758 -0.017574 0.001992
v -0.025960 -0.017944 0.001967
v -0.026023 -0.018275 0.001813
v -0.026204 -0.018414 0.001967
v -0.026108 -0.018563 0.001749
v -0.026380 -0.018839 0.001996
v -0.026426 -0.019272 0.001866
v -0.026581 -0.019272 0.002081
v -0.026792 -0.020183 0.002024
v -0.026566 -0.020139 0.001737
v -0.026805 -0.020572 0.001984
v -0.026147 -0.013110 0.042532
v -0.009205 -0.010181 0.042560
v -0.025433 -0.013110 0.042706
v -0.009828 -0.011213 0.042787
v -0.009432 -0.011213 0.042730
v -0.010057 -0.012986 0.042912
v -0.025433 -0.013211 0.042714
v -0.026298 -0.020139 0.001647
v -0.023699 -0.015504 0.001712
v -0.023261 -0.015361 0.001676
v -0.025866 -0.018839 0.001639
v -0.024566 -0.016676 0.001623
v -0.024562 -0.016474 0.001656
v -0.024557 -0.016255 0.001692
v -0.024109 -0.015824 0.001704
v -0.023113 -0.015132 0.001745
v -0.024407 -0.015979 0.001737
v -0.025659 -0.017739 0.001757
v -0.024838 -0.016473 0.001732
v -0.026531 -0.019874 0.001753
v -0.025873 -0.018414 0.001704
v -0.026149 -0.018839 0.001728
v -0.026626 -0.019720 0.001959
v -0.026208 -0.019272 0.001704
v -0.024886 -0.016676 0.001712
f 1 2 3
f 1 3 4
f 1 4 5
f 1 5 6
f 1 6 7
f 1 7 8
f 1 8 9
f 1 9 10
f 1 10 11
f 1 11 12
f 1 12 13
f 1 13 14
f 1 14 15
f 1 15 16
f 1 16 2
f 2 17 3
f 2 16 17
f 3 18 19
f 3 19 20
f 3 20 21
f 3 21 4
f 3 17 18
f 4 21 22
f 4 22 5
f 5 22 23
f 5 23 24
f 5 24 6
f 6 24 23
f 6 23 25
f 6 25 7
f 7 25 26
f 7 26 8
f 8 26 27
f 8 27 9
f 9 27 10
f 10 27 11
f 11 27 12
f 12 27 13
f 13 27 14
f 14 27 15
f 15 27 28
f 15 28 16
f 16 28 29
f 16 29 30
f 16 30 31
f 16 31 32
f 16 32 33
f 16 33 34
f 16 34 35
f 16 35 36
f 16 36 37
f 16 37 38
f 16 38 17
f 17 38 18
f 18 39 40
f 18 40 19
f 18 38 39
f 19 40 41
f 19 41 42
f 19 42 20
f 20 42 43
f 20 43 21
f 21 43 44
f 21 44 45
f 21 45 22
f 22 45 46
f 22 46 23
f 23 46 47
f 23 47 48
f 23 48 49
f 23 49 50
f 23 50 51
f 23 51 52
f 23 52 53
f 23 53 54
f 23 54 55
f 23 55 56
f 23 56 57
f 23 57 58
f 23 58 59
f 23 59 65
f 23 65 25
f 25 60 61
f 25 61 62
f 25 62 63
f 25 63 64
f 25 64 26
f 25 65 60
f 26 62 27
f 26 64 62
f 27 62 61
f 27 61 66
f 27 66 67
f 27 67 28
f 28 67 29
f 29 67 68
f 29 68 30
f 30 68 31
f 31 68 69
f 31 69 70
f 31 70 32
f 32 70 33
f 33 70 34
f 34 70 71
f 34 71 35
f 35 72 73
f 35 73 74
f 35 74 36
f 35 71 75
f 35 75 72
f 36 74 76
f 36 76 77
f 36 77 37
f 37 77 78
f 37 78 79
f 37 79 38
f 38 79 80
f 38 80 39
f 39 80 40
f 40 81 82
f 40 82 83
f 40 83 41
f 40 80 78
f 40 78 84
f 40 84 81
f 41 83 42
f 42 83 85
f 42 85 43
f 43 85 86
f 43 86 44
f 44 86 45
f 45 86 46
f 46 86 47
f 47 86 48
f 48 87 88
f 48 88 89
f 48 89 49
f 48 86 87
f 49 89 90
f 49 90 91
f 49 91 50
f 50 91 92
f 50 92 93
f 50 93 51
f 51 93 94
f 51 94 52
f 52 94 54
f 52 54 53
f 54 94 55
f 55 94 95
f 55 95 96
f 55 96 57
f 55 57 56
f 57 96 97
f 57 97 98
f 57 98 99
f 57 99 100
f 57 100 101
f 57 101 102
f 57 102 58
f 58 102 59
f 59 102 101
f 59 101 100
f 59 100 103
f 59 103 166
f 59 166 165
f 59 165 164
f 59 164 163
f 59 163 107
f 59 107 65
f 60 65 104
f 60 104 61
f 61 105 106
f 61 106 66
f 61 104 105
f 62 64 63
f 65 107 108
f 65 108 109
f 65 109 104
f 66 110 67
f 66 106 111
f 66 111 112
f 66 112 110
f 67 110 113
f 67 113 114
f 67 114 68
f 68 115 69
f 68 114 116
f 68 116 115
f 69 115 117
f 69 117 70
f 70 117 118
f 70 118 71
f 71 119 98
f 71 98 169
f 71 169 135
f 71 135 72
f 71 72 75
f 71 118 120
f 71 120 121
f 71 121 122
f 71 122 123
f 71 123 124
f 71 124 125
f 71 125 126
f 71 126 127
f 71 127 128
f 71 128 129
f 71 129 130
f 71 130 131
f 71 131 132
f 71 132 133
f 71 133 134
f 71 134 119
f 72 135 136
f 72 136 137
f 72 137 73
f 73 137 138
f 73 138 139
f 73 139 140
f 73 140 76
f 73 76 74
f 76 140 141
f 76 141 77
f 77 141 78
f 78 142 143
f 78 143 82
f 78 82 81
f 78 81 84
f 78 80 79
f 78 141 142
f 82 144 145
f 82 145 146
f 82 146 85
f 82 85 83
f 82 143 147
f 82 147 144
f 85 146 148
f 85 148 86
f 86 148 87
f 87 148 149
f 87 149 150
f 87 150 88
f 88 150 151
f 88 151 89
f 89 151 152
f 89 152 90
f 90 152 91
f 91 152 92
f 92 153 154
f 92 154 155
f 92 155 93
f 92 152 151
f 92 151 153
f 93 155 156
f 93 156 94
f 94 156 154
f 94 154 95
f 95 154 157
f 95 157 96
f 96 157 97
f 97 157 158
f 97 158 159
f 97 159 160
f 97 160 161
f 97 161 162
f 97 162 98
f 98 163 164
f 98 164 165
f 98 165 166
f 98 166 103
f 98 103 99
f 98 162 167
f 98 167 168
f 98 168 139
f 98 139 138
f 98 138 169
f 98 119 107
f 98 107 163
f 99 103 100
f 104 109 105
f 105 170 106
f 105 109 108
f 105 108 171
f 105 171 172
f 105 172 173
f 105 173 107
f 105 107 174
f 105 174 175
f 105 175 170
f 106 170 111
f 107 119 176
f 107 176 177
f 107 177 178
f 107 178 179
f 107 179 174
f 107 173 172
f 107 172 171
f 107 171 108
f 110 112 180
f 110 180 113
f 111 170 181
f 111 181 112
f 112 181 182
f 112 182 183
f 112 183 180
f 113 180 184
f 113 184 185
f 113 185 116
f 113 116 114
f 115 186 187
f 115 187 188
f 115 188 117
f 115 116 186
f 116 185 189
f 116 189 186
f 117 188 118
f 118 188 187
f 118 187 120
f 119 134 190
f 119 190 176
f 120 187 121
f 121 187 191
f 121 191 123
f 121 123 122
f 123 191 192
f 123 192 193
f 123 193 194
f 123 194 195
f 123 195 124
f 124 195 194
f 124 194 196
f 124 196 197
f 124 197 125
f 125 197 196
f 125 196 126
f 126 196 198
f 126 198 199
f 126 199 127
f 127 199 128
f 128 130 129
f 128 199 200
f 128 200 201
f 128 201 130
f 130 201 202
f 130 202 203
f 130 203 204
f 130 204 131
f 131 204 205
f 131 205 206
f 131 206 207
f 131 207 208
f 131 208 132
f 132 208 209
f 132 209 210
f 132 210 211
f 132 211 133
f 133 190 134
f 133 211 190
f 135 169 136
f 136 169 137
f 137 169 138
f 139 168 140
f 140 168 212
f 140 212 141
f 141 212 142
f 142 212 161
f 142 161 143
f 143 161 147
f 144 161 145
f 144 147 161
f 145 213 146
f 145 161 214
f 145 214 213
f 146 213 148
f 148 213 149
f 149 213 215
f 149 215 216
f 149 216 151
f 149 151 150
f 151 216 153
f 153 217 154
f 153 216 215
f 153 215 217
f 154 217 159
f 154 159 158
f 154 158 157
f 154 156 155
f 159 217 215
f 159 215 218
f 159 218 160
f 160 218 161
f 161 167 162
f 161 218 214
f 161 212 167
f 167 212 168
f 170 175 219
f 170 219 181
f 174 179 175
f 175 179 211
f 175 211 210
f 175 210 219
f 176 190 177
f 177 190 178
f 178 190 211
f 178 211 179
f 180 183 220
f 180 220 221
f 180 221 184
f 181 219 222
f 181 222 223
f 181 223 182
f 182 223 224
f 182 224 225
f 182 225 226
f 182 226 183
f 183 226 220
f 184 221 220
f 184 220 227
f 184 227 189
f 184 189 185
f 186 189 191
f 186 191 187
f 189 227 193
f 189 193 192
f 189 192 191
f 193 227 194
f 194 227 196
f 196 227 220
f 196 220 226
f 196 226 228
f 196 228 198
f 198 228 200
f 198 200 199
f 200 229 201
f 200 228 225
f 200 225 230
f 200 230 229
f 201 229 202
f 202 229 203
f 203 229 205
f 203 205 204
f 205 231 207
f 205 207 206
f 205 229 232
f 205 232 222
f 205 222 233
f 205 233 231
f 207 231 208
f 208 231 234
f 208 234 209
f 209 234 231
f 209 231 210
f 210 233 235
f 210 235 219
f 210 231 233
f 213 214 215
f 214 218 215
f 219 235 222
f 222 235 233
f 222 232 223
f 223 232 236
f 223 236 224
f 224 236 230
f 224 230 225
f 225 228 226
f 229 230 232
f 230 236 232
