v -0.001372 -0.032414 0.001551
v -0.001372 -0.032651 0.001551
v -0.001386 -0.032441 0.001220
v -0.001448 -0.032286 0.001093
v -0.001603 -0.031838 0.001118
v -0.001448 -0.032197 0.001551
v -0.001612 -0.031838 0.016283
v -0.001487 -0.032270 0.015854
v -0.001578 -0.032703 0.036191
v -0.001380 -0.032703 0.003286
v -0.001411 -0.032866 0.001551
v -0.001411 -0.032722 0.001093
v -0.001386 -0.032591 0.001220
v -0.001400 -0.032926 0.005798
v -0.001400 -0.032926 0.002854
v -0.001400 -0.032924 0.002527
v -0.001400 -0.032916 0.002238
v -0.001485 -0.032703 0.000685
v -0.001510 -0.032270 0.000685
v -0.001648 -0.031838 0.000685
v -0.001696 -0.031697 0.000685
v -0.001674 -0.031697 0.000957
v -0.001662 -0.031697 0.001118
v -0.001654 -0.031697 0.001398
v -0.001592 -0.031838 0.001551
v -0.001592 -0.031838 0.001984
v -0.001671 -0.031697 0.016283
v -0.001835 -0.031697 0.036624
v -0.001775 -0.031873 0.036191
v -0.001657 -0.032270 0.036191
v -0.001668 -0.032270 0.036624
v -0.001648 -0.032456 0.036811
v -0.001600 -0.032703 0.036624
v -0.001637 -0.033137 0.036624
v -0.001629 -0.033137 0.036191
v -0.001471 -0.033137 0.001551
v -0.001504 -0.033137 0.001118
v -0.001583 -0.033137 0.000685
v -0.001459 -0.033139 0.003286
v -0.001465 -0.033137 0.001984
v -0.001744 -0.033124 0.000248
v -0.001654 -0.032703 0.000257
v -0.001710 -0.032253 0.000214
v -0.001758 -0.031838 0.000329
v -0.001781 -0.031697 0.000367
v -0.001722 -0.031697 0.000562
v -0.008181 -0.031696 0.038898
v -0.001651 -0.031697 0.001831
v -0.001651 -0.031697 0.001984
v -0.001781 -0.031880 0.036624
v -0.001857 -0.031697 0.037053
v -0.001787 -0.031911 0.037057
v -0.001696 -0.032270 0.037057
v -0.001631 -0.032703 0.037057
v -0.001662 -0.033137 0.037057
v -0.001758 -0.033465 0.036624
v -0.001772 -0.033464 0.037057
v -0.001708 -0.033609 0.001534
v -0.001665 -0.033570 0.001984
v -0.001710 -0.033547 0.001118
v -0.001744 -0.033504 0.000685
v -0.001789 -0.033435 0.000393
v -0.001657 -0.033570 0.003286
v -0.001462 -0.033142 0.002854
v -0.001815 -0.032969 0.000011
v -0.001801 -0.032703 -0.000002
v -0.001812 -0.032387 0.000011
v -0.001849 -0.032097 0.000049
v -0.001902 -0.031697 0.000164
v -0.013407 -0.031696 0.038898
v -0.008782 -0.031696 0.041393
v -0.001897 -0.031697 0.037490
v -0.001978 -0.031697 0.000062
v -0.002125 -0.031697 -0.000083
v -0.002495 -0.031697 -0.000295
v -0.002636 -0.031697 -0.000324
v -0.002935 -0.031697 -0.000363
v -0.001806 -0.031966 0.037490
v -0.001739 -0.032270 0.037490
v -0.001685 -0.032456 0.037244
v -0.001677 -0.032703 0.037494
v -0.001702 -0.033137 0.037494
v -0.001798 -0.033447 0.037494
v -0.001823 -0.033803 0.006316
v -0.001902 -0.033663 0.037494
v -0.001911 -0.033680 0.037057
v -0.001823 -0.033799 0.001666
v -0.001854 -0.033764 0.001118
v -0.001820 -0.033805 0.001984
v -0.001888 -0.033720 0.000685
v -0.002176 -0.033863 0.000371
v -0.002032 -0.033587 0.000236
v -0.001888 -0.033258 0.000100
v -0.001815 -0.033809 0.003286
v -0.002038 -0.033124 -0.000104
v -0.002049 -0.032703 -0.000193
v -0.002015 -0.032253 -0.000116
v -0.020008 -0.031697 0.012944
v -0.020008 -0.031697 0.038627
v -0.012950 -0.031696 0.041393
v -0.003073 -0.031697 -0.000329
v -0.003347 -0.031697 -0.000244
v -0.003449 -0.031697 -0.000184
v -0.003674 -0.031697 -0.000049
v -0.008827 -0.031696 0.041576
v -0.001823 -0.032019 0.037723
v -0.002029 -0.031697 0.037901
v -0.002382 -0.032270 -0.000354
v -0.002664 -0.031973 -0.000409
v -0.002819 -0.031973 -0.000409
v -0.030201 -0.037465 -0.000498
v -0.030201 -0.037230 -0.000413
v -0.025720 -0.035488 0.000015
v -0.025784 -0.035031 0.000401
v -0.001789 -0.032456 0.037842
v -0.001781 -0.032737 0.037931
v -0.001829 -0.032903 0.038152
v -0.001829 -0.032952 0.038152
v -0.001787 -0.033112 0.037931
v -0.001815 -0.033409 0.037795
v -0.002120 -0.033912 0.037494
v -0.001936 -0.033561 0.037931
v -0.002156 -0.033877 0.037927
v -0.002049 -0.033989 0.001984
v -0.002012 -0.033944 0.001534
v -0.002066 -0.033961 0.001118
v -0.002105 -0.033925 0.000685
v -0.002506 -0.034139 0.000707
v -0.002495 -0.033914 0.000236
v -0.002357 -0.033741 0.000083
v -0.002179 -0.033452 -0.000040
v -0.002049 -0.033983 0.006316
v -0.002467 -0.033139 -0.000333
v -0.002337 -0.032703 -0.000375
v -0.030201 -0.035142 0.011573
v -0.009852 -0.031964 0.001551
v -0.010123 -0.032026 0.001195
v -0.025866 -0.034797 0.001114
v -0.025652 -0.034652 0.001759
v -0.030201 -0.035142 0.038623
v -0.012279 -0.031696 0.042564
v -0.012391 -0.031696 0.042480
v -0.012538 -0.031696 0.042348
v -0.012612 -0.031696 0.042229
v -0.012843 -0.031696 0.041796
v -0.012877 -0.031696 0.041673
v -0.010286 -0.032424 0.000405
v -0.009852 -0.032167 0.000685
v -0.009852 -0.032058 0.000919
v -0.008901 -0.031696 0.041792
v -0.002213 -0.031697 0.038198
v -0.008923 -0.031696 0.041856
v -0.009149 -0.031696 0.042259
v -0.002602 -0.032270 -0.000430
v -0.002946 -0.032243 -0.000430
v -0.018930 -0.035732 -0.000532
v -0.019365 -0.035732 -0.000524
v -0.030201 -0.037899 -0.000541
v -0.030201 -0.037034 -0.000184
v -0.026072 -0.035091 0.000473
v -0.025903 -0.034942 0.000643
v -0.030201 -0.036837 0.000100
v -0.002264 -0.032920 0.038576
v -0.002264 -0.032934 0.038576
v -0.002269 -0.033223 0.038572
v -0.001851 -0.033241 0.038080
v -0.002506 -0.034145 0.037519
v -0.002453 -0.034131 0.037057
v -0.002134 -0.033570 0.038283
v -0.002224 -0.033827 0.038190
v -0.002481 -0.034063 0.037927
v -0.002385 -0.034191 0.001551
v -0.002410 -0.034177 0.001118
v -0.002670 -0.034230 0.000868
v -0.002921 -0.034195 0.000562
v -0.003965 -0.034230 0.000024
v -0.002650 -0.033807 0.000015
v -0.002495 -0.033585 -0.000095
v -0.002921 -0.033570 -0.000214
v -0.002921 -0.033263 -0.000371
v -0.002602 -0.032998 -0.000422
v -0.002557 -0.032703 -0.000439
v -0.030201 -0.036712 0.000681
v -0.030201 -0.036777 0.000316
v -0.030201 -0.037468 0.038644
v -0.012013 -0.031696 0.042645
v -0.009262 -0.031696 0.042412
v -0.002509 -0.031697 0.038440
v -0.002921 -0.032703 -0.000460
v -0.005080 -0.033877 -0.000439
v -0.029763 -0.038181 -0.000443
v -0.030198 -0.038206 -0.000452
v -0.030201 -0.038422 -0.000312
v -0.002636 -0.031697 0.038529
v -0.009431 -0.031696 0.042535
v -0.002441 -0.033613 0.038517
v -0.009488 -0.031696 0.042564
v -0.002563 -0.033496 0.038627
v -0.002667 -0.034236 0.037392
v -0.002707 -0.033786 0.038576
v -0.002481 -0.033898 0.038283
v -0.002918 -0.034178 0.037893
v -0.002771 -0.034217 0.037676
v -0.002605 -0.034242 0.001551
v -0.002628 -0.034238 0.001118
v -0.030195 -0.038928 0.000681
v -0.030195 -0.038862 0.000248
v -0.005627 -0.034661 0.000439
v -0.005080 -0.034523 0.000257
v -0.004651 -0.034445 0.000257
v -0.004216 -0.034257 -0.000010
v -0.004651 -0.034057 -0.000282
v -0.002921 -0.033850 -0.000023
v -0.004403 -0.033798 -0.000401
v -0.004651 -0.033839 -0.000422
v -0.030201 -0.037874 0.038610
v -0.011144 -0.031696 0.042768
v -0.030201 -0.038091 0.038559
v -0.005080 -0.034094 -0.000312
v -0.029763 -0.038398 -0.000273
v -0.030195 -0.038423 -0.000312
v -0.030201 -0.038669 -0.000095
v -0.009756 -0.031696 0.042654
v -0.018495 -0.036797 0.037935
v -0.018636 -0.036829 0.037800
v -0.020668 -0.037181 0.037057
v -0.020962 -0.037237 0.036628
v -0.030201 -0.038854 0.019741
v -0.018097 -0.036518 0.038381
v -0.002876 -0.033929 0.038402
v -0.009849 -0.031696 0.042683
v -0.009849 -0.031763 0.042624
v -0.010447 -0.032065 0.042492
v -0.010715 -0.032090 0.042535
v -0.018498 -0.036597 0.038360
v -0.030201 -0.038928 0.000681
v -0.030201 -0.038862 0.000248
v -0.030195 -0.038669 -0.000095
v -0.029763 -0.038623 -0.000057
v -0.004651 -0.034302 -0.000066
v -0.010966 -0.031696 0.042789
v -0.030201 -0.038365 0.038313
v -0.010715 -0.031837 0.042734
v -0.011144 -0.031837 0.042713
v -0.030201 -0.038545 0.038126
v -0.030201 -0.038602 0.037948
v -0.030201 -0.038606 0.037935
v -0.029763 -0.038577 0.037791
v -0.029515 -0.038555 0.037723
v -0.030201 -0.038697 0.037490
v -0.030201 -0.038727 0.037057
v -0.030201 -0.038741 0.036620
v -0.010069 -0.031696 0.042734
v -0.010501 -0.031696 0.042806
f 1 2 13
f 1 13 3
f 1 3 4
f 1 4 5
f 1 5 6
f 1 6 7
f 1 7 8
f 1 8 9
f 1 9 10
f 1 10 2
f 2 11 12
f 2 12 13
f 2 10 14
f 2 14 15
f 2 15 16
f 2 16 17
f 2 17 11
f 3 13 18
f 3 18 19
f 3 19 4
f 4 19 20
f 4 20 21
f 4 21 5
f 5 21 22
f 5 22 23
f 5 23 24
f 5 24 25
f 5 25 6
f 6 25 26
f 6 26 7
f 7 26 49
f 7 49 27
f 7 27 28
f 7 28 29
f 7 29 30
f 7 30 8
f 8 30 9
f 9 31 32
f 9 32 33
f 9 33 34
f 9 34 35
f 9 35 14
f 9 14 10
f 9 30 31
f 11 36 12
f 11 17 36
f 12 36 37
f 12 37 38
f 12 38 18
f 12 18 13
f 14 39 15
f 14 35 39
f 15 39 16
f 16 39 40
f 16 40 17
f 17 40 36
f 18 38 41
f 18 41 42
f 18 42 19
f 19 42 43
f 19 43 44
f 19 44 45
f 19 45 46
f 19 46 20
f 20 46 21
f 21 46 47
f 21 47 22
f 22 47 23
f 23 47 24
f 24 47 48
f 24 48 25
f 25 48 49
f 25 49 26
f 27 49 47
f 27 47 28
f 28 50 30
f 28 30 29
f 28 47 51
f 28 51 52
f 28 52 50
f 30 50 31
f 31 50 52
f 31 52 53
f 31 53 32
f 32 53 54
f 32 54 33
f 33 54 55
f 33 55 34
f 34 56 35
f 34 55 57
f 34 57 56
f 35 56 39
f 36 58 37
f 36 40 59
f 36 59 58
f 37 60 61
f 37 61 38
f 37 58 60
f 38 61 62
f 38 62 41
f 39 56 63
f 39 63 64
f 39 64 40
f 40 64 63
f 40 63 59
f 41 62 65
f 41 65 42
f 42 65 66
f 42 66 67
f 42 67 43
f 43 67 68
f 43 68 44
f 44 68 69
f 44 69 45
f 45 69 47
f 45 47 46
f 47 70 100
f 47 100 146
f 47 146 145
f 47 145 144
f 47 144 143
f 47 143 142
f 47 142 141
f 47 141 186
f 47 186 217
f 47 217 241
f 47 241 254
f 47 254 253
f 47 253 231
f 47 231 223
f 47 223 197
f 47 197 195
f 47 195 187
f 47 187 153
f 47 153 152
f 47 152 150
f 47 150 105
f 47 105 71
f 47 71 72
f 47 72 51
f 47 49 48
f 47 69 73
f 47 73 74
f 47 74 75
f 47 75 76
f 47 76 77
f 47 77 70
f 51 72 78
f 51 78 52
f 52 78 53
f 53 78 79
f 53 79 80
f 53 80 54
f 54 80 81
f 54 81 82
f 54 82 55
f 55 82 83
f 55 83 57
f 56 84 63
f 56 57 85
f 56 85 86
f 56 86 84
f 57 83 85
f 58 59 87
f 58 87 88
f 58 88 60
f 59 89 87
f 59 63 89
f 60 88 61
f 61 90 62
f 61 88 90
f 62 91 92
f 62 92 93
f 62 93 65
f 62 90 91
f 63 84 94
f 63 94 89
f 65 93 95
f 65 95 96
f 65 96 66
f 66 96 67
f 67 96 97
f 67 97 74
f 67 74 68
f 68 74 73
f 68 73 69
f 70 98 99
f 70 99 100
f 70 77 101
f 70 101 102
f 70 102 103
f 70 103 104
f 70 104 98
f 71 105 72
f 72 106 78
f 72 105 107
f 72 107 106
f 74 97 108
f 74 108 75
f 75 108 109
f 75 109 76
f 76 109 77
f 77 109 110
f 77 110 111
f 77 111 112
f 77 112 113
f 77 113 114
f 77 114 101
f 78 106 79
f 79 106 81
f 79 81 80
f 81 106 115
f 81 115 116
f 81 116 117
f 81 117 118
f 81 118 119
f 81 119 82
f 82 119 120
f 82 120 83
f 83 120 85
f 84 86 121
f 84 121 94
f 85 120 122
f 85 122 123
f 85 123 121
f 85 121 86
f 87 89 124
f 87 124 125
f 87 125 126
f 87 126 88
f 88 126 127
f 88 127 90
f 89 94 124
f 90 127 91
f 91 127 128
f 91 128 129
f 91 129 130
f 91 130 131
f 91 131 92
f 92 131 93
f 93 131 95
f 94 121 132
f 94 132 124
f 95 131 133
f 95 133 134
f 95 134 96
f 96 134 108
f 96 108 97
f 98 135 140
f 98 140 99
f 98 104 136
f 98 136 137
f 98 137 138
f 98 138 139
f 98 139 135
f 99 140 141
f 99 141 142
f 99 142 143
f 99 143 144
f 99 144 145
f 99 145 146
f 99 146 100
f 101 114 147
f 101 147 148
f 101 148 149
f 101 149 102
f 102 149 137
f 102 137 103
f 103 137 104
f 104 137 136
f 105 150 107
f 106 107 151
f 106 151 117
f 106 117 115
f 107 150 152
f 107 152 153
f 107 153 151
f 108 134 154
f 108 154 109
f 109 154 155
f 109 155 110
f 110 155 156
f 110 156 157
f 110 157 111
f 111 157 156
f 111 156 158
f 111 158 193
f 111 193 222
f 111 222 237
f 111 237 236
f 111 236 228
f 111 228 252
f 111 252 251
f 111 251 250
f 111 250 247
f 111 247 246
f 111 246 245
f 111 245 242
f 111 242 218
f 111 218 216
f 111 216 185
f 111 185 140
f 111 140 135
f 111 135 183
f 111 183 184
f 111 184 162
f 111 162 159
f 111 159 112
f 112 159 114
f 112 114 113
f 114 160 161
f 114 161 149
f 114 149 148
f 114 148 147
f 114 159 162
f 114 162 160
f 115 117 116
f 117 151 163
f 117 163 164
f 117 164 118
f 118 164 165
f 118 165 166
f 118 166 119
f 119 166 120
f 120 166 122
f 121 167 168
f 121 168 132
f 121 123 167
f 122 166 169
f 122 169 170
f 122 170 123
f 123 170 171
f 123 171 167
f 124 172 125
f 124 132 172
f 125 172 126
f 126 172 173
f 126 173 127
f 127 173 128
f 128 173 174
f 128 174 175
f 128 175 129
f 129 176 177
f 129 177 130
f 129 175 176
f 130 177 178
f 130 178 131
f 131 178 133
f 132 168 172
f 133 179 180
f 133 180 181
f 133 181 134
f 133 178 179
f 134 181 182
f 134 182 154
f 135 139 138
f 135 138 183
f 137 149 138
f 138 149 161
f 138 161 184
f 138 184 183
f 140 185 186
f 140 186 141
f 151 153 187
f 151 187 188
f 151 188 163
f 154 182 189
f 154 189 155
f 155 189 156
f 156 189 190
f 156 190 158
f 158 190 191
f 158 191 192
f 158 192 193
f 160 162 161
f 161 162 184
f 163 188 194
f 163 194 195
f 163 195 164
f 164 195 165
f 165 196 169
f 165 169 166
f 165 195 197
f 165 197 198
f 165 198 196
f 167 199 168
f 167 171 199
f 168 199 172
f 169 196 170
f 170 196 200
f 170 200 201
f 170 201 171
f 171 202 203
f 171 203 199
f 171 201 202
f 172 199 204
f 172 204 205
f 172 205 173
f 173 205 174
f 174 206 207
f 174 207 208
f 174 208 209
f 174 209 210
f 174 210 175
f 174 205 206
f 175 210 176
f 176 210 209
f 176 209 207
f 176 207 211
f 176 211 212
f 176 212 213
f 176 213 177
f 177 213 179
f 177 179 178
f 179 212 214
f 179 214 180
f 179 213 212
f 180 214 181
f 181 215 190
f 181 190 189
f 181 189 182
f 181 214 215
f 185 216 186
f 186 216 218
f 186 218 217
f 187 195 188
f 188 195 194
f 190 215 191
f 191 215 219
f 191 219 220
f 191 220 221
f 191 221 192
f 192 221 193
f 193 221 222
f 196 198 200
f 197 223 200
f 197 200 198
f 199 203 224
f 199 224 225
f 199 225 226
f 199 226 227
f 199 227 228
f 199 228 206
f 199 206 204
f 200 229 230
f 200 230 201
f 200 223 231
f 200 231 232
f 200 232 233
f 200 233 234
f 200 234 229
f 201 230 202
f 202 230 235
f 202 235 224
f 202 224 203
f 204 206 205
f 206 236 237
f 206 237 207
f 206 228 236
f 207 237 222
f 207 222 238
f 207 238 239
f 207 239 211
f 207 209 208
f 211 239 240
f 211 240 212
f 212 240 220
f 212 220 219
f 212 219 215
f 212 215 214
f 217 218 241
f 218 242 234
f 218 234 243
f 218 243 244
f 218 244 241
f 220 240 238
f 220 238 221
f 221 238 222
f 224 245 246
f 224 246 247
f 224 247 248
f 224 248 249
f 224 249 250
f 224 250 251
f 224 251 225
f 224 235 245
f 225 251 226
f 226 251 252
f 226 252 227
f 227 252 228
f 229 235 230
f 229 234 235
f 231 253 234
f 231 234 232
f 232 234 233
f 234 253 243
f 234 242 245
f 234 245 235
f 238 240 239
f 241 244 243
f 241 243 254
f 243 253 254
f 247 250 248
f 248 250 249
