v -0.056040 0.007613 0.013777
v -0.056040 0.005214 0.012965
v -0.056040 0.007527 0.015914
v -0.026805 0.000617 0.013719
v -0.019392 -0.001249 0.011757
v -0.024006 -0.000760 0.010208
v -0.013179 -0.004691 0.007523
v -0.013179 -0.006148 0.006276
v -0.026193 -0.003545 0.007580
v -0.056040 0.003354 0.012886
v -0.026193 -0.005981 0.006916
v -0.056040 0.005128 0.016168
v -0.026193 -0.007842 0.018432
v -0.025267 -0.005981 0.018232
v -0.026193 -0.004126 0.017852
v -0.024426 -0.002949 0.017057
v -0.023849 -0.001255 0.015499
v -0.008974 -0.004949 0.013717
v -0.011317 -0.003825 0.012622
v -0.011317 -0.003814 0.010762
v -0.008181 -0.004949 0.009599
v -0.010355 -0.004734 0.008673
v 0.039872 -0.021764 0.004234
v 0.032722 -0.019823 0.004138
v 0.026678 -0.018102 0.004287
v 0.047574 -0.025410 0.002301
v 0.019252 -0.016226 0.004267
v -0.013179 -0.007842 0.005511
v -0.015042 -0.007229 0.005755
v 0.055492 -0.029250 0.000564
v 0.051900 -0.028927 0.000369
v -0.056040 0.001493 0.012869
v -0.026193 -0.007842 0.006877
v -0.054094 0.001450 0.012473
v -0.015042 -0.009703 0.005187
v -0.015042 -0.011563 0.005072
v -0.056040 0.000703 0.016047
v -0.028055 -0.009703 0.017968
v -0.026193 -0.009703 0.018134
v -0.015042 -0.012494 0.018212
v -0.013179 -0.011563 0.018183
v -0.022480 -0.007842 0.018310
v -0.013179 -0.009703 0.018069
v -0.022480 -0.005981 0.017987
v -0.011413 -0.007933 0.017298
v -0.008769 -0.006584 0.015694
v -0.011545 -0.005336 0.015502
v 0.035125 -0.019941 0.011624
v 0.024912 -0.016215 0.011690
v 0.036507 -0.019775 0.010188
v 0.031040 -0.017898 0.010282
v 0.032205 -0.018124 0.008902
v -0.008012 -0.004890 0.010762
v 0.023998 -0.015451 0.008902
v 0.041518 -0.021302 0.007046
v 0.036988 -0.019925 0.006480
v 0.024816 -0.016242 0.006219
v 0.045759 -0.023539 0.004107
v 0.055504 -0.027389 0.002466
v 0.057475 -0.029051 0.001236
v -0.011317 -0.009703 0.005054
v -0.013179 -0.009703 0.005082
v 0.057475 -0.031213 -0.000272
v 0.055613 -0.032008 -0.000685
v 0.059338 -0.031347 -0.000123
v 0.055541 -0.030030 0.000142
v -0.028055 -0.007842 0.007251
v -0.049732 -0.001518 0.011610
v -0.053541 -0.001556 0.013260
v -0.056040 -0.000211 0.013846
v -0.015042 -0.013419 0.005187
v 0.001697 -0.017140 0.003492
v -0.013179 -0.011563 0.004911
v -0.000166 -0.017140 0.003686
v -0.013179 -0.013419 0.004935
v -0.030434 -0.012682 0.015616
v -0.028356 -0.011450 0.017173
v -0.015390 -0.015795 0.017421
v -0.013179 -0.015279 0.017768
v -0.013179 -0.013419 0.018142
v 0.001697 -0.017140 0.017662
v 0.003499 -0.016403 0.017459
v 0.055793 -0.030825 0.013306
v 0.050578 -0.028556 0.013419
v 0.011478 -0.014521 0.015307
v 0.006972 -0.012607 0.015322
v 0.021211 -0.016209 0.013552
v 0.043873 -0.023512 0.011819
v 0.045099 -0.023754 0.011539
v 0.057463 -0.027362 0.009767
v 0.041434 -0.021307 0.009192
v 0.052729 -0.025367 0.009262
v 0.054375 -0.025604 0.007046
v 0.055613 -0.026276 0.005187
v 0.053137 -0.025518 0.004753
v 0.057115 -0.027147 0.003842
v 0.061008 -0.029110 0.002646
v 0.059338 -0.029330 0.001532
v 0.057703 -0.035230 -0.001378
v 0.059986 -0.034240 -0.001125
v 0.061873 -0.030648 0.001381
v 0.063315 -0.034729 0.000063
v -0.028596 -0.010235 0.007641
v -0.030470 -0.013053 0.010521
v -0.029161 -0.014268 0.012963
v -0.003302 -0.018398 0.004183
v -0.013179 -0.015279 0.005219
v -0.017145 -0.014144 0.005855
v 0.057475 -0.037585 -0.001472
v 0.056466 -0.040779 -0.001213
v -0.008781 -0.021877 0.013717
v -0.017024 -0.017823 0.015493
v -0.015042 -0.018355 0.015681
v 0.048956 -0.040413 0.013570
v -0.010632 -0.019995 0.015483
v 0.053750 -0.044409 0.011974
v 0.055613 -0.042624 0.013266
v 0.001697 -0.019307 0.017359
v 0.057475 -0.039445 0.013983
v 0.048175 -0.033864 0.014758
v 0.060155 -0.035353 0.013660
v 0.059097 -0.032552 0.013251
v 0.058424 -0.029900 0.012113
v 0.051900 -0.026954 0.012048
v 0.053161 -0.027201 0.011833
v 0.049761 -0.025609 0.011557
v 0.059157 -0.028782 0.010739
v 0.062426 -0.029750 0.009585
v 0.061921 -0.028486 0.007046
v 0.058989 -0.027309 0.007672
v 0.059001 -0.027771 0.004089
v 0.061897 -0.028766 0.004882
v 0.063591 -0.030702 0.003410
v 0.059338 -0.037585 -0.001572
v 0.061188 -0.037585 -0.001319
v 0.063471 -0.032643 0.001207
v 0.065382 -0.036660 0.001874
v 0.063639 -0.037585 -0.000107
v -0.027094 -0.014338 0.009855
v -0.015246 -0.016580 0.006300
v -0.027683 -0.014580 0.011097
v 0.021054 -0.034251 0.008902
v 0.027904 -0.036961 0.008902
v 0.032229 -0.038564 0.009387
v 0.013785 -0.031073 0.011651
v -0.023705 -0.016355 0.011300
v 0.026990 -0.036579 0.007046
v 0.050037 -0.039445 -0.000512
v 0.053750 -0.041306 -0.000743
v -0.002533 -0.019629 0.004330
v 0.059986 -0.040973 -0.001090
v 0.057475 -0.043823 -0.000168
v 0.055613 -0.043167 -0.000373
v 0.019216 -0.032982 0.011768
v 0.025236 -0.035009 0.011970
v 0.039980 -0.040327 0.011614
v 0.017438 -0.031094 0.013568
v 0.053750 -0.042521 0.013116
v 0.051743 -0.044129 0.011719
v 0.055613 -0.045920 0.010764
v 0.055613 -0.044613 0.012121
v 0.057475 -0.044640 0.012154
v 0.057475 -0.042414 0.013347
v 0.059722 -0.040564 0.013597
v 0.059338 -0.037585 0.013918
v 0.061284 -0.037585 0.013574
v 0.063639 -0.035724 0.012301
v 0.061176 -0.031175 0.011921
v 0.062906 -0.032094 0.011455
v 0.064276 -0.031723 0.009644
v 0.063952 -0.030121 0.007046
v 0.064661 -0.031352 0.005187
v 0.065766 -0.034918 0.003353
v 0.066571 -0.037585 0.005187
v 0.065922 -0.039838 0.004042
v 0.064000 -0.040134 0.000711
v -0.016195 -0.017747 0.007547
v -0.008541 -0.021786 0.007972
v -0.014273 -0.019990 0.009652
v 0.050073 -0.042102 0.000384
v -0.012687 -0.017919 0.006223
v 0.036315 -0.040290 0.007046
v 0.044450 -0.043419 0.007046
v 0.041614 -0.042258 0.008058
v 0.046637 -0.043995 0.008624
v 0.037769 -0.040446 0.009965
v 0.032277 -0.038558 0.006024
v 0.051491 -0.046103 0.005187
v 0.051900 -0.042021 -0.000084
v 0.062774 -0.042511 0.000876
v 0.060840 -0.043796 0.000637
v 0.057475 -0.045807 0.001598
v 0.055613 -0.044866 0.000745
v 0.051900 -0.043667 0.000915
v 0.053774 -0.046130 0.009691
v 0.055613 -0.046893 0.008902
v 0.057475 -0.045920 0.010754
v 0.059614 -0.043747 0.012346
v 0.061717 -0.043280 0.011688
v 0.063291 -0.040408 0.012115
v 0.063051 -0.037585 0.012804
v 0.064757 -0.037585 0.011443
v 0.065610 -0.035735 0.010157
v 0.064180 -0.033982 0.011332
v 0.065802 -0.034047 0.008724
v 0.065562 -0.032783 0.007046
v 0.065874 -0.033735 0.005187
v 0.066415 -0.035724 0.005187
v 0.066715 -0.037585 0.007046
v 0.066091 -0.040322 0.007046
v 0.064000 -0.043253 0.003327
v 0.064276 -0.041881 0.001978
v -0.008505 -0.019904 0.006127
v -0.004780 -0.021764 0.006133
v 0.042900 -0.040698 0.002088
v 0.026510 -0.034923 0.004126
v 0.030355 -0.036730 0.004171
v 0.034188 -0.038537 0.004234
v 0.019252 -0.032982 0.006055
v 0.042059 -0.042505 0.006470
v 0.050794 -0.045791 0.007046
v 0.053750 -0.046850 0.007046
v 0.052392 -0.046092 0.008416
v 0.050037 -0.045119 0.008902
v 0.048259 -0.044226 0.009650
v 0.042551 -0.042242 0.004342
v 0.052777 -0.045968 0.003284
v 0.053750 -0.046909 0.005187
v 0.062522 -0.044441 0.002730
v 0.059241 -0.046097 0.002571
v 0.057475 -0.046845 0.003327
v 0.055324 -0.046463 0.002763
v 0.051900 -0.044592 0.001845
v 0.053702 -0.044425 0.000966
v 0.049857 -0.044167 0.002325
v 0.048175 -0.042855 0.001771
v 0.055613 -0.047264 0.007046
v 0.057475 -0.047189 0.007046
v 0.057475 -0.046807 0.008902
v 0.059494 -0.045947 0.009885
v 0.061128 -0.044678 0.010752
v 0.062918 -0.044269 0.009595
v 0.063988 -0.041683 0.010805
v 0.065129 -0.039343 0.010613
v 0.066115 -0.037854 0.009419
v 0.066559 -0.035724 0.007046
v 0.065742 -0.040241 0.008829
v 0.064348 -0.043414 0.008052
v 0.063639 -0.044307 0.005342
v 0.055613 -0.047324 0.005187
v 0.061116 -0.045936 0.004357
v 0.059338 -0.046877 0.005187
v 0.057475 -0.047286 0.005187
v 0.059338 -0.046807 0.007046
v 0.061116 -0.045947 0.007907
v 0.063051 -0.044925 0.007046
f 1 2 10
f 1 10 32
f 1 32 70
f 1 70 37
f 1 37 12
f 1 12 3
f 1 3 4
f 1 4 5
f 1 5 6
f 1 6 7
f 1 7 8
f 1 8 9
f 1 9 2
f 2 9 11
f 2 11 10
f 3 12 13
f 3 13 14
f 3 14 15
f 3 15 16
f 3 16 17
f 3 17 4
f 4 17 18
f 4 18 19
f 4 19 5
f 5 19 20
f 5 20 21
f 5 21 22
f 5 22 6
f 6 22 7
f 7 22 23
f 7 23 24
f 7 24 25
f 7 25 26
f 7 26 27
f 7 27 8
f 8 28 29
f 8 29 9
f 8 27 30
f 8 30 31
f 8 31 28
f 9 29 11
f 10 11 33
f 10 33 34
f 10 34 32
f 11 29 35
f 11 35 36
f 11 36 33
f 12 37 13
f 13 38 39
f 13 39 40
f 13 40 41
f 13 41 42
f 13 42 14
f 13 37 38
f 14 42 43
f 14 43 44
f 14 44 15
f 15 44 43
f 15 43 45
f 15 45 16
f 16 45 46
f 16 46 47
f 16 47 17
f 17 47 18
f 18 48 49
f 18 49 50
f 18 50 51
f 18 51 19
f 18 47 48
f 19 51 52
f 19 52 53
f 19 53 20
f 20 53 54
f 20 54 55
f 20 55 21
f 21 55 56
f 21 56 57
f 21 57 22
f 22 57 23
f 23 57 58
f 23 58 59
f 23 59 24
f 24 59 26
f 24 26 25
f 26 59 60
f 26 60 30
f 26 30 27
f 28 61 62
f 28 62 29
f 28 31 63
f 28 63 64
f 28 64 61
f 29 62 35
f 30 60 65
f 30 65 66
f 30 66 31
f 31 66 63
f 32 34 67
f 32 67 68
f 32 68 69
f 32 69 70
f 33 67 34
f 33 36 71
f 33 71 67
f 35 62 72
f 35 72 73
f 35 73 36
f 36 73 72
f 36 72 74
f 36 74 75
f 36 75 71
f 37 70 76
f 37 76 77
f 37 77 38
f 38 77 78
f 38 78 79
f 38 79 39
f 39 79 80
f 39 80 40
f 40 80 81
f 40 81 41
f 41 43 42
f 41 81 43
f 43 81 82
f 43 82 45
f 45 82 83
f 45 83 84
f 45 84 85
f 45 85 86
f 45 86 46
f 46 86 87
f 46 87 47
f 47 87 48
f 48 88 89
f 48 89 90
f 48 90 50
f 48 50 49
f 48 87 88
f 50 91 51
f 50 90 92
f 50 92 91
f 51 91 52
f 52 91 93
f 52 93 55
f 52 55 54
f 52 54 53
f 55 93 94
f 55 94 95
f 55 95 56
f 56 95 57
f 57 95 58
f 58 95 96
f 58 96 59
f 59 96 97
f 59 97 98
f 59 98 60
f 60 98 65
f 61 64 62
f 62 64 99
f 62 99 72
f 63 66 65
f 63 65 100
f 63 100 64
f 64 100 99
f 65 98 101
f 65 101 102
f 65 102 100
f 67 71 103
f 67 103 68
f 68 103 69
f 69 103 104
f 69 104 105
f 69 105 70
f 70 105 76
f 71 75 106
f 71 106 107
f 71 107 108
f 71 108 103
f 72 99 109
f 72 109 74
f 74 109 110
f 74 110 75
f 75 110 106
f 76 105 111
f 76 111 112
f 76 112 113
f 76 113 77
f 77 113 78
f 78 114 79
f 78 113 115
f 78 115 116
f 78 116 114
f 79 114 117
f 79 117 118
f 79 118 80
f 80 118 81
f 81 118 119
f 81 119 120
f 81 120 82
f 82 120 121
f 82 121 122
f 82 122 83
f 83 122 123
f 83 123 84
f 84 123 124
f 84 124 85
f 85 124 86
f 86 124 87
f 87 124 125
f 87 125 88
f 88 125 126
f 88 126 89
f 89 126 90
f 90 127 128
f 90 128 129
f 90 129 130
f 90 130 92
f 90 126 127
f 91 92 130
f 91 130 93
f 93 130 129
f 93 129 94
f 94 131 96
f 94 96 95
f 94 129 132
f 94 132 131
f 96 131 97
f 97 131 132
f 97 132 133
f 97 133 101
f 97 101 98
f 99 100 134
f 99 134 109
f 100 135 134
f 100 102 135
f 101 133 136
f 101 136 102
f 102 136 137
f 102 137 138
f 102 138 135
f 103 139 104
f 103 108 140
f 103 140 139
f 104 139 141
f 104 141 105
f 105 142 143
f 105 143 144
f 105 144 145
f 105 145 111
f 105 141 146
f 105 146 147
f 105 147 142
f 106 110 148
f 106 148 107
f 107 140 108
f 107 148 149
f 107 149 150
f 107 150 140
f 109 134 110
f 110 134 151
f 110 151 152
f 110 152 153
f 110 153 149
f 110 149 148
f 111 145 154
f 111 154 155
f 111 155 112
f 112 155 113
f 113 155 156
f 113 156 157
f 113 157 115
f 114 116 158
f 114 158 117
f 115 157 159
f 115 159 116
f 116 159 160
f 116 160 161
f 116 161 158
f 117 158 161
f 117 161 162
f 117 162 163
f 117 163 118
f 118 163 119
f 119 163 164
f 119 164 165
f 119 165 120
f 120 165 121
f 121 165 166
f 121 166 167
f 121 167 122
f 122 167 168
f 122 168 123
f 123 168 127
f 123 127 125
f 123 125 124
f 125 127 126
f 127 168 128
f 128 168 169
f 128 169 170
f 128 170 171
f 128 171 129
f 129 171 132
f 132 171 133
f 133 171 172
f 133 172 173
f 133 173 136
f 134 135 151
f 135 138 151
f 136 173 137
f 137 173 174
f 137 174 175
f 137 175 176
f 137 176 138
f 138 176 151
f 139 140 177
f 139 177 178
f 139 178 179
f 139 179 141
f 140 150 180
f 140 180 181
f 140 181 177
f 141 179 146
f 142 147 182
f 142 182 143
f 143 182 183
f 143 183 184
f 143 184 144
f 144 184 185
f 144 185 186
f 144 186 145
f 145 186 154
f 146 179 147
f 147 179 187
f 147 187 188
f 147 188 182
f 149 189 150
f 149 153 189
f 150 189 180
f 151 176 190
f 151 190 191
f 151 191 152
f 152 192 193
f 152 193 153
f 152 191 192
f 153 193 194
f 153 194 180
f 153 180 189
f 154 186 155
f 155 186 156
f 156 186 195
f 156 195 159
f 156 159 157
f 159 195 160
f 160 195 196
f 160 196 197
f 160 197 162
f 160 162 161
f 162 197 198
f 162 198 163
f 163 198 164
f 164 166 165
f 164 198 199
f 164 199 200
f 164 200 166
f 166 201 167
f 166 200 201
f 167 202 203
f 167 203 204
f 167 204 169
f 167 169 168
f 167 201 202
f 169 204 170
f 170 204 205
f 170 205 206
f 170 206 171
f 171 206 172
f 172 206 207
f 172 207 173
f 173 207 208
f 173 208 174
f 174 209 210
f 174 210 175
f 174 208 246
f 174 246 209
f 175 210 211
f 175 211 212
f 175 212 176
f 176 212 190
f 177 181 213
f 177 213 214
f 177 214 215
f 177 215 216
f 177 216 178
f 178 216 217
f 178 217 218
f 178 218 219
f 178 219 179
f 179 219 187
f 180 194 215
f 180 215 181
f 181 215 213
f 182 220 183
f 182 188 220
f 183 188 221
f 183 221 184
f 183 220 188
f 184 221 185
f 185 221 222
f 185 222 223
f 185 223 224
f 185 224 186
f 186 224 225
f 186 225 195
f 187 219 226
f 187 226 188
f 188 227 228
f 188 228 222
f 188 222 221
f 188 226 227
f 190 229 191
f 190 212 229
f 191 230 192
f 191 229 230
f 192 231 232
f 192 232 193
f 192 230 231
f 193 232 233
f 193 233 234
f 193 234 194
f 194 234 233
f 194 233 235
f 194 235 236
f 194 236 215
f 195 225 224
f 195 224 223
f 195 223 196
f 196 237 238
f 196 238 239
f 196 239 197
f 196 223 222
f 196 222 237
f 197 239 240
f 197 240 241
f 197 241 198
f 198 241 199
f 199 241 242
f 199 242 243
f 199 243 200
f 200 243 244
f 200 244 202
f 200 202 201
f 202 244 245
f 202 245 203
f 203 205 204
f 203 245 246
f 203 246 205
f 205 246 206
f 206 246 207
f 207 246 208
f 209 246 245
f 209 245 247
f 209 247 210
f 210 247 248
f 210 248 249
f 210 249 211
f 211 249 229
f 211 229 212
f 213 215 214
f 215 236 235
f 215 235 216
f 216 235 217
f 217 235 218
f 218 226 219
f 218 235 226
f 222 228 250
f 222 250 237
f 226 235 227
f 227 232 228
f 227 235 233
f 227 233 232
f 228 232 250
f 229 251 230
f 229 249 251
f 230 251 252
f 230 252 231
f 231 253 250
f 231 250 232
f 231 252 253
f 237 253 238
f 237 250 253
f 238 253 254
f 238 254 239
f 239 254 240
f 240 254 255
f 240 255 242
f 240 242 241
f 242 255 256
f 242 256 248
f 242 248 243
f 243 248 247
f 243 247 244
f 244 247 245
f 248 256 249
f 249 256 251
f 251 256 252
f 252 255 254
f 252 254 253
f 252 256 255
