v -0.010937 -0.030359 0.019103
v -0.010215 -0.030359 0.022290
v -0.010185 -0.030139 0.022424
v -0.010165 -0.029759 0.022384
v -0.010926 -0.030249 0.019103
v -0.007001 -0.030359 0.019103
v -0.005293 -0.035969 0.019388
v -0.005321 -0.035968 0.019388
v -0.005857 -0.035894 0.019388
v -0.005942 -0.035880 0.019388
v -0.007434 -0.035319 0.019388
v -0.007821 -0.035150 0.019388
v -0.008116 -0.034998 0.019388
v -0.008537 -0.034744 0.019388
v -0.009232 -0.034213 0.019388
v -0.009380 -0.034073 0.019388
v -0.009634 -0.033818 0.019388
v -0.009950 -0.033418 0.019388
v -0.010298 -0.032603 0.019388
v -0.010456 -0.032201 0.019388
v -0.010128 -0.031621 0.022034
v -0.010194 -0.031296 0.022034
v -0.010158 -0.031143 0.022372
v -0.010270 -0.030786 0.022034
v -0.010180 -0.030786 0.022415
v -0.010184 -0.030359 0.022421
v -0.009769 -0.030181 0.022791
v -0.009559 -0.031436 0.023035
v -0.009797 -0.030359 0.022776
v -0.009861 -0.029522 0.022578
v -0.009663 -0.028843 0.022505
v -0.009554 -0.028395 0.022416
v -0.009465 -0.027963 0.022247
v -0.009923 -0.028843 0.022033
v -0.010106 -0.029316 0.022033
v -0.010772 -0.028842 0.019103
v -0.004587 -0.028124 0.019103
v -0.004588 -0.035937 0.019388
v -0.004645 -0.035946 0.019388
v -0.004677 -0.035948 0.019388
v -0.005293 -0.035500 0.022034
v -0.005942 -0.035418 0.022034
v -0.006589 -0.035258 0.022034
v -0.007074 -0.035071 0.022034
v -0.007398 -0.034914 0.022034
v -0.007884 -0.034637 0.022034
v -0.008222 -0.034362 0.022379
v -0.008593 -0.034134 0.022034
v -0.008971 -0.033809 0.022034
v -0.009295 -0.033460 0.022034
v -0.009526 -0.033087 0.022390
v -0.009736 -0.032731 0.022034
v -0.009984 -0.032082 0.022034
v -0.010153 -0.031757 0.021703
v -0.009598 -0.032731 0.022512
v -0.009701 -0.032088 0.022720
v -0.009544 -0.031873 0.023032
v -0.009398 -0.029991 0.022991
v -0.009537 -0.030786 0.023018
v -0.009514 -0.030421 0.023009
v -0.009497 -0.030359 0.023006
v -0.009209 -0.032088 0.023080
v -0.009180 -0.031436 0.023086
v -0.008107 -0.026899 0.022944
v -0.009044 -0.027546 0.022535
v -0.008930 -0.027142 0.022441
v -0.009538 -0.027812 0.021814
v -0.009638 -0.028185 0.022031
v -0.009336 -0.027576 0.022031
v -0.010491 -0.028168 0.019103
v -0.004587 -0.024754 0.019103
v -0.001202 -0.033975 0.019835
v -0.001252 -0.034043 0.019835
v -0.001280 -0.034082 0.019835
v -0.001600 -0.034479 0.019835
v -0.002820 -0.035164 0.019835
v -0.003021 -0.035001 0.022361
v -0.003996 -0.035304 0.022034
v -0.004645 -0.035462 0.022034
v -0.005293 -0.035371 0.022682
v -0.005942 -0.035239 0.022682
v -0.006533 -0.035085 0.022657
v -0.006977 -0.035031 0.022424
v -0.007884 -0.034459 0.022528
v -0.007538 -0.034337 0.022995
v -0.007884 -0.034221 0.022852
v -0.008461 -0.033970 0.022622
v -0.008905 -0.033749 0.022431
v -0.008875 -0.033086 0.023016
v -0.009311 -0.032731 0.022836
v -0.009444 -0.032306 0.022963
v -0.008701 -0.033516 0.022864
v -0.008987 -0.032731 0.023056
v -0.007781 -0.026899 0.023047
v -0.007660 -0.026511 0.023035
v -0.006589 -0.034028 0.023300
v -0.005293 -0.026251 0.023242
v -0.008522 -0.026916 0.022618
v -0.009000 -0.027057 0.022033
v -0.008298 -0.026503 0.022494
v -0.008701 -0.026732 0.022033
v -0.009785 -0.026940 0.019103
v -0.004645 -0.024747 0.019103
v -0.004915 -0.025271 0.022377
v -0.004482 -0.025298 0.022034
v -0.003996 -0.025415 0.022034
v -0.003348 -0.025646 0.022034
v -0.002876 -0.025852 0.022034
v -0.002552 -0.026015 0.022034
v -0.002572 -0.025884 0.019835
v -0.002281 -0.026044 0.019835
v -0.001858 -0.026294 0.019835
v -0.001630 -0.026465 0.019835
v -0.001202 -0.026947 0.019835
v -0.001202 -0.033504 0.021386
v -0.001210 -0.033515 0.021386
v -0.001603 -0.033865 0.022034
v -0.002213 -0.034482 0.022034
v -0.001889 -0.034190 0.022034
v -0.002297 -0.034414 0.022476
v -0.002737 -0.034653 0.022635
v -0.002886 -0.034461 0.023075
v -0.003348 -0.034861 0.022773
v -0.004645 -0.035096 0.023098
v -0.004645 -0.035307 0.022682
v -0.005293 -0.035140 0.023142
v -0.005942 -0.035056 0.023061
v -0.006279 -0.035006 0.023011
v -0.007884 -0.033897 0.023083
v -0.008269 -0.033760 0.023031
v -0.007107 -0.034444 0.023061
v -0.005293 -0.025752 0.023129
v -0.005941 -0.025837 0.023070
v -0.006294 -0.025919 0.023011
v -0.006726 -0.026018 0.022932
v -0.007297 -0.026075 0.022702
v -0.007878 -0.026365 0.022698
v -0.005942 -0.034028 0.023319
v -0.004645 -0.026251 0.023264
v -0.007289 -0.034083 0.023155
v -0.005942 -0.034676 0.023218
v -0.005293 -0.034676 0.023317
v -0.007553 -0.025929 0.022305
v -0.008457 -0.025686 0.019103
v -0.009149 -0.026282 0.019103
v -0.004728 -0.024743 0.019103
v -0.005293 -0.024714 0.019103
v -0.005048 -0.025271 0.022377
v -0.005276 -0.025405 0.022628
v -0.004677 -0.025411 0.022628
v -0.004587 -0.025433 0.022635
v -0.003996 -0.025580 0.022682
v -0.002944 -0.025889 0.022447
v -0.002213 -0.026438 0.022682
v -0.002009 -0.026382 0.021984
v -0.001723 -0.026569 0.021735
v -0.001202 -0.027254 0.021386
v -0.001202 -0.033295 0.022006
v -0.001252 -0.033350 0.022053
v -0.001669 -0.033785 0.022440
v -0.002453 -0.034169 0.022909
v -0.004645 -0.034676 0.023253
v -0.003348 -0.034536 0.023115
v -0.002359 -0.033737 0.023013
v -0.002682 -0.033983 0.023079
v -0.003348 -0.034027 0.023198
v -0.006533 -0.034667 0.023101
v -0.004645 -0.025754 0.023127
v -0.005941 -0.025580 0.022682
v -0.007122 -0.025859 0.022500
v -0.003348 -0.026899 0.023273
v -0.004587 -0.026251 0.023260
v -0.001404 -0.029491 0.023169
v -0.006589 -0.025562 0.022033
v -0.006589 -0.024809 0.019103
v -0.007177 -0.025041 0.019103
v -0.005945 -0.024725 0.019103
v -0.005941 -0.025382 0.022033
v -0.004587 -0.025759 0.023123
v -0.003996 -0.025821 0.023086
v -0.003600 -0.025895 0.023036
v -0.003370 -0.025809 0.022670
v -0.003168 -0.026003 0.022879
v -0.002717 -0.026122 0.022670
v -0.002338 -0.026541 0.023034
v -0.001609 -0.027056 0.022530
v -0.001764 -0.026623 0.022167
v -0.001202 -0.027383 0.022026
v -0.001202 -0.033239 0.022129
v -0.001202 -0.033098 0.022346
v -0.001538 -0.033378 0.022554
v -0.001202 -0.032692 0.022570
v -0.001352 -0.032771 0.022646
v -0.001202 -0.032544 0.022615
v -0.001202 -0.031893 0.022774
v -0.001202 -0.030550 0.023027
v -0.001202 -0.029491 0.023141
v -0.003996 -0.026251 0.023211
v -0.002700 -0.026899 0.023214
v -0.003370 -0.026232 0.023133
v -0.002700 -0.026445 0.023094
v -0.002227 -0.026899 0.023079
v -0.001664 -0.027735 0.023046
v -0.001783 -0.027303 0.022963
v -0.001202 -0.027680 0.022549
v -0.001202 -0.027386 0.022033
v -0.001202 -0.029243 0.023125
v -0.001202 -0.028843 0.023096
v -0.001202 -0.028640 0.023053
v -0.001202 -0.028194 0.022899
v -0.001202 -0.028177 0.022890
f 1 2 3
f 1 3 4
f 1 4 5
f 1 5 36
f 1 36 70
f 1 70 102
f 1 102 145
f 1 145 144
f 1 144 176
f 1 176 175
f 1 175 177
f 1 177 147
f 1 147 146
f 1 146 103
f 1 103 71
f 1 71 37
f 1 37 6
f 1 6 7
f 1 7 8
f 1 8 9
f 1 9 10
f 1 10 11
f 1 11 12
f 1 12 13
f 1 13 14
f 1 14 15
f 1 15 16
f 1 16 17
f 1 17 18
f 1 18 19
f 1 19 20
f 1 20 21
f 1 21 22
f 1 22 23
f 1 23 24
f 1 24 2
f 2 24 25
f 2 25 26
f 2 26 3
f 3 27 4
f 3 26 28
f 3 28 29
f 3 29 27
f 4 27 30
f 4 30 31
f 4 31 32
f 4 32 33
f 4 33 34
f 4 34 35
f 4 35 36
f 4 36 5
f 6 37 38
f 6 38 39
f 6 39 40
f 6 40 7
f 7 40 41
f 7 41 8
f 8 41 42
f 8 42 9
f 9 42 10
f 10 42 43
f 10 43 11
f 11 43 44
f 11 44 12
f 12 44 45
f 12 45 13
f 13 45 46
f 13 46 14
f 14 46 47
f 14 47 15
f 15 48 49
f 15 49 16
f 15 47 48
f 16 49 17
f 17 49 50
f 17 50 51
f 17 51 18
f 18 51 19
f 19 51 52
f 19 52 20
f 20 52 53
f 20 53 54
f 20 54 21
f 21 54 53
f 21 53 23
f 21 23 22
f 23 25 24
f 23 53 55
f 23 55 56
f 23 56 57
f 23 57 25
f 25 57 28
f 25 28 26
f 27 58 30
f 27 29 28
f 27 28 59
f 27 59 60
f 27 60 61
f 27 61 58
f 28 57 62
f 28 62 63
f 28 63 59
f 30 58 64
f 30 64 65
f 30 65 31
f 31 65 32
f 32 65 66
f 32 66 33
f 33 67 68
f 33 68 34
f 33 66 69
f 33 69 67
f 34 68 70
f 34 70 36
f 34 36 35
f 37 71 114
f 37 114 72
f 37 72 38
f 38 72 73
f 38 73 74
f 38 74 75
f 38 75 76
f 38 76 77
f 38 77 78
f 38 78 79
f 38 79 39
f 39 79 40
f 40 79 41
f 41 79 80
f 41 80 42
f 42 80 81
f 42 81 43
f 43 81 82
f 43 82 83
f 43 83 44
f 44 83 45
f 45 83 47
f 45 47 46
f 47 83 84
f 47 84 85
f 47 85 86
f 47 86 87
f 47 87 88
f 47 88 49
f 47 49 48
f 49 88 50
f 50 88 51
f 51 89 90
f 51 90 91
f 51 91 55
f 51 55 53
f 51 53 52
f 51 88 92
f 51 92 89
f 55 91 56
f 56 91 57
f 57 91 89
f 57 89 93
f 57 93 62
f 58 61 94
f 58 94 95
f 58 95 64
f 59 63 60
f 60 63 94
f 60 94 61
f 62 93 96
f 62 96 63
f 63 96 97
f 63 97 94
f 64 95 98
f 64 98 66
f 64 66 65
f 66 99 69
f 66 98 100
f 66 100 101
f 66 101 99
f 67 70 68
f 67 69 102
f 67 102 70
f 69 99 102
f 71 103 104
f 71 104 105
f 71 105 106
f 71 106 107
f 71 107 108
f 71 108 109
f 71 109 110
f 71 110 111
f 71 111 112
f 71 112 113
f 71 113 114
f 72 115 116
f 72 116 117
f 72 117 73
f 72 114 157
f 72 157 188
f 72 188 206
f 72 206 205
f 72 205 211
f 72 211 210
f 72 210 209
f 72 209 208
f 72 208 207
f 72 207 197
f 72 197 196
f 72 196 195
f 72 195 194
f 72 194 192
f 72 192 190
f 72 190 189
f 72 189 158
f 72 158 115
f 73 117 74
f 74 117 75
f 75 118 77
f 75 77 76
f 75 117 119
f 75 119 118
f 77 118 120
f 77 120 121
f 77 121 122
f 77 122 123
f 77 123 124
f 77 124 125
f 77 125 79
f 77 79 78
f 79 125 80
f 80 125 126
f 80 126 127
f 80 127 81
f 81 127 128
f 81 128 82
f 82 128 83
f 83 128 85
f 83 85 84
f 85 129 130
f 85 130 86
f 85 128 131
f 85 131 129
f 86 130 87
f 87 130 88
f 88 130 92
f 89 91 90
f 89 92 130
f 89 130 93
f 93 130 129
f 93 129 96
f 94 97 95
f 95 100 98
f 95 97 132
f 95 132 133
f 95 133 134
f 95 134 135
f 95 135 136
f 95 136 137
f 95 137 100
f 96 138 139
f 96 139 97
f 96 129 140
f 96 140 141
f 96 141 142
f 96 142 138
f 97 139 132
f 99 101 102
f 100 137 143
f 100 143 144
f 100 144 145
f 100 145 101
f 101 145 102
f 103 146 104
f 104 146 147
f 104 147 148
f 104 148 149
f 104 149 150
f 104 150 151
f 104 151 152
f 104 152 106
f 104 106 105
f 106 152 153
f 106 153 107
f 107 153 108
f 108 153 109
f 109 153 154
f 109 154 155
f 109 155 112
f 109 112 111
f 109 111 110
f 112 155 156
f 112 156 113
f 113 156 114
f 114 156 157
f 115 158 116
f 116 158 117
f 117 158 159
f 117 159 160
f 117 160 119
f 118 119 120
f 119 160 120
f 120 122 121
f 120 160 161
f 120 161 122
f 122 162 163
f 122 163 124
f 122 124 123
f 122 161 164
f 122 164 165
f 122 165 166
f 122 166 162
f 124 126 125
f 124 163 162
f 124 162 142
f 124 142 126
f 126 142 141
f 126 141 127
f 127 141 167
f 127 167 128
f 128 167 131
f 129 131 140
f 131 167 140
f 132 149 133
f 132 139 168
f 132 168 149
f 133 149 169
f 133 169 170
f 133 170 134
f 134 170 135
f 135 170 136
f 136 170 143
f 136 143 137
f 138 142 171
f 138 171 139
f 139 171 172
f 139 172 168
f 140 167 141
f 142 162 166
f 142 166 173
f 142 173 171
f 143 170 174
f 143 174 175
f 143 175 176
f 143 176 144
f 147 177 148
f 148 177 175
f 148 175 178
f 148 178 169
f 148 169 149
f 149 168 150
f 150 168 179
f 150 179 180
f 150 180 151
f 151 180 152
f 152 180 181
f 152 181 182
f 152 182 153
f 153 183 184
f 153 184 154
f 153 182 183
f 154 184 185
f 154 185 186
f 154 186 187
f 154 187 155
f 155 187 156
f 156 187 188
f 156 188 157
f 158 189 159
f 159 189 160
f 160 189 190
f 160 190 191
f 160 191 161
f 161 191 164
f 164 191 192
f 164 192 193
f 164 193 194
f 164 194 195
f 164 195 196
f 164 196 165
f 165 196 197
f 165 197 166
f 166 197 173
f 168 172 198
f 168 198 179
f 169 178 174
f 169 174 170
f 171 173 199
f 171 199 198
f 171 198 172
f 173 197 199
f 174 178 175
f 179 198 180
f 180 198 200
f 180 200 201
f 180 201 181
f 181 183 182
f 181 201 185
f 181 185 183
f 183 185 184
f 185 201 199
f 185 199 202
f 185 202 203
f 185 203 204
f 185 204 205
f 185 205 186
f 186 206 187
f 186 205 206
f 187 206 188
f 190 192 191
f 192 194 193
f 197 207 199
f 198 199 200
f 199 201 200
f 199 207 208
f 199 208 202
f 202 208 203
f 203 208 209
f 203 209 210
f 203 210 204
f 204 210 211
f 204 211 205
