v -0.024741 -0.001623 0.023325
v -0.025388 -0.000972 0.023262
v -0.025388 -0.015879 0.023281
v -0.024741 -0.017176 0.023316
v -0.024542 -0.017157 0.023283
v -0.024710 -0.001623 0.023318
v -0.024710 0.004245 0.023114
v -0.024741 0.004208 0.023116
v -0.026035 0.000318 0.023161
v -0.025891 -0.015879 0.023118
v -0.025388 -0.016524 0.023236
v -0.026430 0.000318 0.023057
v -0.027809 -0.054111 0.019189
v -0.025000 -0.049802 0.020088
v -0.024542 -0.017821 0.023273
v -0.019432 0.006758 0.008454
v -0.024710 0.004677 0.023062
v -0.024741 0.004665 0.023060
v -0.025075 0.004543 0.023013
v -0.025133 0.004208 0.023041
v -0.025804 0.002772 0.023036
v -0.026429 0.000964 0.023050
v -0.028584 -0.052815 0.018745
v -0.028212 -0.053466 0.019057
v -0.027889 -0.053466 0.019210
v -0.030151 0.005060 0.018256
v -0.029720 -0.007467 0.018615
v -0.028599 -0.052170 0.018745
v -0.028132 -0.054111 0.018984
v -0.027701 -0.054483 0.019132
v -0.027331 -0.054111 0.019257
v -0.024716 -0.050100 0.020088
v -0.024715 -0.050100 0.020086
v -0.019629 0.006758 0.001942
v -0.030474 0.006758 0.008454
v -0.024710 0.005060 0.022559
v -0.024710 0.004987 0.022726
v -0.024710 0.004695 0.023048
v -0.024715 -0.054197 0.019059
v -0.024715 -0.054720 0.018747
v -0.024715 -0.054732 0.018733
v -0.024715 -0.055061 0.018350
v -0.024715 -0.055128 0.018028
v -0.024715 -0.055201 0.017493
v -0.024715 -0.055238 0.016870
v -0.024715 -0.055280 0.001966
v -0.024715 -0.055280 0.001942
v -0.024715 -0.055250 0.001294
v -0.024715 -0.055195 0.000646
v -0.024715 -0.055122 0.000265
v -0.026215 0.002266 0.022923
v -0.026291 0.001865 0.022985
v -0.029828 0.005060 0.018660
v -0.026389 0.001426 0.023022
v -0.028914 -0.052851 0.018164
v -0.028517 -0.053466 0.018731
v -0.028440 -0.054111 0.018658
v -0.030285 0.005060 0.017932
v -0.028366 -0.054525 0.018552
v -0.027924 -0.054720 0.018754
v -0.027715 -0.055110 0.018519
v -0.027331 -0.054848 0.018897
v -0.027331 -0.054519 0.019153
v -0.026685 -0.054519 0.019158
v -0.026223 -0.054483 0.019137
v -0.019693 0.006758 0.001294
v -0.024715 -0.054824 -0.000059
v -0.024715 -0.054507 -0.000362
v -0.030330 0.005060 0.017493
v -0.030514 0.006758 0.001294
v -0.028965 -0.052669 0.017967
v -0.026685 -0.054848 0.018874
v -0.026685 -0.055122 0.018550
v -0.026685 -0.055244 0.018139
v -0.026685 -0.055317 0.017490
v -0.025912 -0.055292 0.016847
v -0.027331 -0.055426 0.001945
v -0.026685 -0.055396 0.001945
v -0.026685 -0.055359 0.001294
v -0.027331 -0.055384 0.001294
v -0.026685 -0.055268 0.000646
v -0.025912 -0.055134 0.000239
v -0.026036 -0.055134 0.000235
v -0.028815 -0.053466 0.018139
v -0.028660 -0.054111 0.018139
v -0.028430 -0.054592 0.018139
v -0.028104 -0.054927 0.018139
v -0.027778 -0.055152 0.018139
v -0.027331 -0.055244 0.018139
v -0.027331 -0.055146 0.018573
v -0.020202 0.006758 0.000646
v -0.024715 -0.054136 -0.000449
v -0.024715 -0.054118 -0.000451
v -0.026036 -0.054836 -0.000090
v -0.025387 -0.054513 -0.000364
v -0.025387 -0.054118 -0.000458
v -0.030491 0.006758 0.000646
v -0.029075 -0.048280 0.001294
v -0.028961 -0.052815 0.001510
v -0.028984 -0.052170 0.001945
v -0.028963 -0.052882 0.001956
v -0.028951 -0.053144 0.001750
v -0.028913 -0.053466 0.002591
v -0.028827 -0.054111 0.003239
v -0.028856 -0.053466 0.017490
v -0.027331 -0.055286 0.017490
v -0.027822 -0.055177 0.016844
v -0.027978 -0.055262 0.003239
v -0.027954 -0.055250 0.001945
v -0.027913 -0.055225 0.001294
v -0.027782 -0.055152 0.000646
v -0.027331 -0.055244 0.000646
v -0.026685 -0.055134 0.000239
v -0.028708 -0.054111 0.017490
v -0.028450 -0.054623 0.017490
v -0.028143 -0.054951 0.017490
v -0.027820 -0.055171 0.017490
v -0.020890 0.006758 0.000063
v -0.027331 -0.053466 -0.000501
v -0.027979 -0.037920 -0.000642
v -0.028627 -0.014583 -0.000672
v -0.022147 0.006758 -0.000259
v -0.021920 0.006758 -0.000238
v -0.021446 0.006758 -0.000179
v -0.026685 -0.054805 -0.000085
v -0.026036 -0.054513 -0.000362
v -0.025912 -0.054118 -0.000454
v -0.030486 0.006758 0.000615
v -0.029018 -0.048280 0.000742
v -0.028941 -0.052170 0.001068
v -0.028971 -0.052170 0.001393
v -0.028931 -0.052815 0.001186
v -0.028951 -0.053144 0.001616
v -0.028826 -0.054111 0.002591
v -0.028558 -0.054763 0.003239
v -0.027876 -0.055177 0.014897
v -0.028319 -0.055104 0.003890
v -0.028322 -0.055104 0.003239
v -0.028315 -0.055091 0.002748
v -0.028297 -0.055079 0.002316
v -0.028278 -0.055061 0.001945
v -0.028237 -0.055024 0.001294
v -0.028105 -0.054915 0.000646
v -0.027668 -0.055091 0.000312
v -0.027331 -0.055104 0.000284
v -0.028200 -0.055000 0.014897
v -0.026036 -0.054111 -0.000451
v -0.026685 -0.054111 -0.000433
v -0.027309 -0.054142 -0.000404
v -0.027776 -0.053947 -0.000390
v -0.027874 -0.053466 -0.000426
v -0.027978 -0.051524 -0.000496
v -0.027978 -0.050873 -0.000524
v -0.028544 -0.037920 -0.000496
v -0.029200 -0.014583 -0.000519
v -0.029222 -0.010693 -0.000541
v -0.029274 0.002266 -0.000564
v -0.029275 0.006758 -0.000574
v -0.028627 -0.011344 -0.000667
v -0.027309 -0.054708 -0.000083
v -0.027077 -0.054452 -0.000336
v -0.026685 -0.054483 -0.000353
v -0.030359 0.006758 0.000141
v -0.029602 -0.023439 0.000314
v -0.028917 -0.048280 0.000420
v -0.028859 -0.052170 0.000646
v -0.028827 -0.052815 0.000646
v -0.028761 -0.053466 0.000646
v -0.028889 -0.053399 0.001357
v -0.028794 -0.054111 0.001945
v -0.028512 -0.054732 0.001945
v -0.028495 -0.054818 0.002558
v -0.028477 -0.054702 0.001294
v -0.028402 -0.054586 0.000646
v -0.028332 -0.054483 0.000282
v -0.027920 -0.054720 0.000178
v -0.027508 -0.054379 -0.000301
v -0.028197 -0.053466 -0.000245
v -0.027987 -0.054142 -0.000158
v -0.028256 -0.052815 -0.000299
v -0.028319 -0.051987 -0.000341
v -0.028346 -0.051524 -0.000364
v -0.028365 -0.050873 -0.000379
v -0.029082 -0.023670 -0.000444
v -0.029640 -0.004216 -0.000371
v -0.029782 0.006758 -0.000433
v -0.029748 0.006758 -0.000444
v -0.030340 0.006758 0.000115
v -0.029531 -0.013931 -0.000233
v -0.028898 -0.035978 -0.000270
v -0.029416 -0.023019 -0.000024
v -0.029615 -0.022368 0.000284
v -0.028629 -0.050873 -0.000003
v -0.028977 -0.043739 0.000265
v -0.028602 -0.051524 -0.000003
v -0.028521 -0.052815 0.000028
v -0.028487 -0.053466 0.000080
v -0.028405 -0.054111 0.000190
v -0.028609 -0.054111 0.000646
v -0.028741 -0.054111 0.001294
v -0.030106 0.006758 -0.000184
v -0.030081 0.006758 -0.000209
f 1 2 3
f 1 3 4
f 1 4 5
f 1 5 6
f 1 6 7
f 1 7 8
f 1 8 2
f 2 8 9
f 2 9 3
f 3 10 11
f 3 11 4
f 3 9 12
f 3 12 10
f 4 11 13
f 4 13 14
f 4 14 15
f 4 15 5
f 5 15 16
f 5 16 6
f 6 16 7
f 7 16 17
f 7 17 8
f 8 17 18
f 8 18 19
f 8 19 20
f 8 20 21
f 8 21 9
f 9 22 12
f 9 21 22
f 10 12 23
f 10 23 24
f 10 24 25
f 10 25 13
f 10 13 11
f 12 22 26
f 12 26 27
f 12 27 28
f 12 28 23
f 13 29 30
f 13 30 31
f 13 31 14
f 13 25 24
f 13 24 29
f 14 31 32
f 14 32 15
f 15 32 33
f 15 33 16
f 16 34 66
f 16 66 91
f 16 91 118
f 16 118 124
f 16 124 123
f 16 123 122
f 16 122 158
f 16 158 187
f 16 187 186
f 16 186 202
f 16 202 201
f 16 201 188
f 16 188 163
f 16 163 128
f 16 128 97
f 16 97 70
f 16 70 35
f 16 35 36
f 16 36 37
f 16 37 38
f 16 38 17
f 16 33 39
f 16 39 40
f 16 40 41
f 16 41 42
f 16 42 43
f 16 43 44
f 16 44 45
f 16 45 46
f 16 46 47
f 16 47 48
f 16 48 49
f 16 49 50
f 16 50 34
f 17 38 18
f 18 38 19
f 19 51 52
f 19 52 21
f 19 21 20
f 19 38 37
f 19 37 53
f 19 53 51
f 21 52 54
f 21 54 22
f 22 54 53
f 22 53 26
f 23 55 56
f 23 56 24
f 23 28 55
f 24 56 57
f 24 57 29
f 26 53 35
f 26 35 58
f 26 58 55
f 26 55 27
f 27 55 28
f 29 57 59
f 29 59 30
f 30 59 60
f 30 60 61
f 30 61 62
f 30 62 63
f 30 63 31
f 31 63 64
f 31 64 32
f 32 64 65
f 32 65 39
f 32 39 33
f 34 50 67
f 34 67 68
f 34 68 66
f 35 69 58
f 35 53 36
f 35 70 71
f 35 71 69
f 36 53 37
f 39 65 40
f 40 72 41
f 40 65 72
f 41 72 42
f 42 72 73
f 42 73 74
f 42 74 43
f 43 74 44
f 44 74 75
f 44 75 45
f 45 75 76
f 45 76 77
f 45 77 78
f 45 78 46
f 46 78 47
f 47 78 48
f 48 78 79
f 48 79 49
f 49 79 80
f 49 80 81
f 49 81 50
f 50 81 82
f 50 82 83
f 50 83 94
f 50 94 67
f 51 53 52
f 52 53 54
f 55 58 71
f 55 71 84
f 55 84 57
f 55 57 56
f 57 84 85
f 57 85 59
f 58 69 71
f 59 86 87
f 59 87 61
f 59 61 60
f 59 85 86
f 61 88 89
f 61 89 90
f 61 90 62
f 61 87 88
f 62 90 72
f 62 72 64
f 62 64 63
f 64 72 65
f 66 68 92
f 66 92 93
f 66 93 91
f 67 94 68
f 68 94 95
f 68 95 96
f 68 96 92
f 70 97 98
f 70 98 99
f 70 99 100
f 70 100 71
f 71 100 101
f 71 101 102
f 71 102 103
f 71 103 104
f 71 104 105
f 71 105 84
f 72 90 73
f 73 90 74
f 74 89 75
f 74 90 89
f 75 77 76
f 75 89 106
f 75 106 77
f 77 106 107
f 77 107 108
f 77 108 109
f 77 109 110
f 77 110 80
f 77 80 79
f 77 79 78
f 80 110 111
f 80 111 112
f 80 112 81
f 81 83 82
f 81 112 113
f 81 113 83
f 83 113 94
f 84 105 114
f 84 114 85
f 85 114 86
f 86 115 116
f 86 116 87
f 86 114 115
f 87 116 88
f 88 117 106
f 88 106 89
f 88 116 117
f 91 93 118
f 92 96 93
f 93 96 119
f 93 119 120
f 93 120 121
f 93 121 122
f 93 122 123
f 93 123 124
f 93 124 118
f 94 125 126
f 94 126 95
f 94 113 125
f 95 126 96
f 96 127 119
f 96 126 127
f 97 128 129
f 97 129 98
f 98 129 130
f 98 130 131
f 98 131 99
f 99 131 130
f 99 130 132
f 99 132 133
f 99 133 101
f 99 101 100
f 101 133 102
f 102 133 103
f 103 134 104
f 103 133 134
f 104 114 105
f 104 134 135
f 104 135 114
f 106 117 107
f 107 117 136
f 107 136 108
f 108 136 137
f 108 137 138
f 108 138 109
f 109 138 139
f 109 139 140
f 109 140 110
f 110 140 141
f 110 141 142
f 110 142 111
f 111 142 143
f 111 143 144
f 111 144 112
f 112 144 113
f 113 145 125
f 113 144 145
f 114 135 115
f 115 146 116
f 115 135 137
f 115 137 146
f 116 146 117
f 117 146 137
f 117 137 136
f 119 127 147
f 119 147 148
f 119 148 149
f 119 149 150
f 119 150 151
f 119 151 152
f 119 152 153
f 119 153 120
f 120 153 154
f 120 154 121
f 121 155 156
f 121 156 157
f 121 157 158
f 121 158 159
f 121 159 122
f 121 154 155
f 122 159 158
f 125 145 144
f 125 144 160
f 125 160 161
f 125 161 162
f 125 162 126
f 126 162 127
f 127 148 147
f 127 162 148
f 128 163 164
f 128 164 129
f 129 165 166
f 129 166 130
f 129 164 165
f 130 166 167
f 130 167 132
f 132 167 168
f 132 168 169
f 132 169 133
f 133 169 170
f 133 170 134
f 134 170 171
f 134 171 135
f 135 171 172
f 135 172 139
f 135 139 138
f 135 138 137
f 139 172 140
f 140 172 171
f 140 171 141
f 141 171 173
f 141 173 142
f 142 173 174
f 142 174 143
f 143 174 175
f 143 175 144
f 144 175 176
f 144 176 177
f 144 177 160
f 148 162 149
f 149 162 161
f 149 161 177
f 149 177 150
f 150 178 151
f 150 177 179
f 150 179 178
f 151 178 180
f 151 180 181
f 151 181 182
f 151 182 152
f 152 182 153
f 153 182 183
f 153 183 154
f 154 183 184
f 154 184 155
f 155 184 185
f 155 185 186
f 155 186 156
f 156 186 187
f 156 187 157
f 157 187 158
f 160 177 161
f 163 188 189
f 163 189 190
f 163 190 191
f 163 191 192
f 163 192 164
f 164 192 193
f 164 193 194
f 164 194 165
f 165 194 193
f 165 193 166
f 166 193 195
f 166 195 167
f 167 195 196
f 167 196 197
f 167 197 168
f 168 197 198
f 168 198 199
f 168 199 200
f 168 200 169
f 169 200 170
f 170 200 173
f 170 173 171
f 173 200 174
f 174 200 199
f 174 199 175
f 175 199 198
f 175 198 179
f 175 179 176
f 176 179 177
f 178 179 198
f 178 198 197
f 178 197 180
f 180 196 181
f 180 197 196
f 181 196 182
f 182 195 183
f 182 196 195
f 183 195 193
f 183 193 190
f 183 190 184
f 184 190 189
f 184 189 201
f 184 201 202
f 184 202 185
f 185 202 186
f 188 201 189
f 190 193 191
f 191 193 192
