v -0.030616 0.007452 0.000648
v -0.030332 0.005062 0.016844
v -0.030452 0.006807 0.016195
v -0.030474 0.007452 0.016844
v -0.030552 0.008104 0.000648
v -0.030400 0.008104 0.000026
v -0.030432 0.007452 0.000028
v -0.024703 -0.055242 0.009062
v -0.025846 -0.047624 0.020088
v -0.025904 -0.046972 0.020088
v -0.030326 0.005062 0.017494
v -0.030436 0.007452 0.017492
v -0.030390 0.008104 0.016844
v -0.030410 0.006755 0.017494
v -0.030261 0.008449 0.016844
v -0.030352 0.008596 0.001294
v -0.030355 0.008590 0.000648
v -0.030316 0.008526 0.000140
v -0.030226 0.008104 -0.000301
v -0.030210 0.007452 -0.000293
v -0.015659 -0.054960 0.009062
v -0.013722 -0.054935 0.014251
v -0.016308 -0.055012 0.016841
v -0.024703 -0.055242 0.016841
v -0.029884 0.007452 -0.000511
v -0.029784 0.006755 -0.000428
v -0.029270 0.007452 -0.000712
v -0.026343 -0.023543 0.004034
v -0.022144 -0.023000 0.003852
v -0.025743 -0.048065 0.021382
v -0.024703 -0.055190 0.017490
v -0.030287 0.005062 0.017932
v -0.025688 -0.048141 0.021969
v -0.030268 0.007452 0.018230
v -0.030219 0.008027 0.018086
v -0.030277 0.008244 0.017582
v -0.030316 0.006755 0.018032
v -0.030258 0.008443 0.017255
v -0.029606 0.009075 0.014731
v -0.029761 0.009184 0.003244
v -0.030087 0.008884 0.003244
v -0.030077 0.008915 0.001294
v -0.030064 0.008915 0.000648
v -0.029674 0.009114 0.000225
v -0.029955 0.008762 -0.000038
v -0.029797 0.008564 -0.000445
v -0.029900 0.008104 -0.000530
v -0.013477 -0.054884 0.009062
v -0.013477 -0.054922 0.014899
v -0.013600 -0.054928 0.016841
v -0.016308 -0.054992 0.017490
v -0.021492 -0.055127 0.017490
v -0.022140 -0.055107 0.017920
v -0.029270 0.008104 -0.000743
v 0.001248 0.006647 -0.000502
v 0.000538 0.008104 -0.000618
v -0.024703 -0.055075 0.018185
v -0.024083 -0.055114 0.018003
v -0.030203 0.006755 0.018356
v -0.025684 -0.047624 0.022231
v -0.025523 -0.047624 0.022681
v -0.024703 -0.054730 0.018732
v -0.025475 -0.048269 0.022681
v -0.029893 0.007452 0.018744
v -0.029822 0.008104 0.018670
v -0.029690 0.008506 0.018562
v -0.029816 0.008602 0.018138
v -0.029974 0.008641 0.017480
v -0.029916 0.008743 0.016844
v -0.029590 0.009069 0.015164
v -0.029219 0.009152 0.016195
v -0.029270 0.009324 0.003244
v -0.029761 0.009184 0.002591
v -0.029758 0.009158 0.001294
v -0.029742 0.009152 0.000648
v -0.029270 0.009254 0.000648
v -0.029270 0.009152 0.000154
v -0.029270 0.008967 -0.000166
v -0.029270 0.008641 -0.000509
v -0.004468 -0.048263 0.009708
v -0.004468 -0.048959 0.009942
v -0.004468 -0.049426 0.010117
v 0.001693 0.006647 -0.000405
v -0.004468 -0.049432 0.019141
v -0.004468 -0.049432 0.022972
v -0.013600 -0.054903 0.017490
v -0.021492 -0.055095 0.017887
v -0.013600 -0.054801 0.018190
v -0.021492 -0.055018 0.018209
v -0.024083 -0.055043 0.018330
v -0.001412 0.009286 -0.000426
v -0.001412 0.008743 -0.000589
v -0.000757 0.008743 -0.000589
v 0.001187 0.008104 -0.000575
v 0.000538 0.008743 -0.000575
v -0.025200 -0.048269 0.023126
v -0.025216 -0.047624 0.023130
v -0.025720 -0.031423 0.023017
v -0.020843 -0.051452 0.023185
v -0.021492 -0.051414 0.023166
v -0.022302 -0.051228 0.023040
v -0.023225 -0.050621 0.023069
v -0.024387 -0.049873 0.022981
v -0.025010 -0.049177 0.022929
v -0.025220 -0.048940 0.022700
v -0.025123 -0.048736 0.023062
v -0.025723 -0.030893 0.023017
v -0.024703 -0.001629 0.023317
v -0.024703 0.004237 0.023114
v -0.024703 0.004678 0.023055
v -0.029270 0.008596 0.018644
v -0.029216 0.008915 0.018086
v -0.023996 0.005107 0.023085
v -0.023435 0.005343 0.023111
v -0.029235 0.009056 0.017492
v -0.029354 0.009094 0.016844
v -0.029542 0.009056 0.016195
v -0.028622 0.009248 0.016844
v -0.027973 0.009293 0.016844
v 0.000538 0.010040 0.017494
v 0.000538 0.010047 0.001299
v -0.027973 0.009331 0.000648
v -0.029270 0.009280 0.001294
v -0.027973 0.009203 0.000087
v -0.028622 0.008986 -0.000206
v -0.027973 0.008992 -0.000239
v -0.027324 0.008999 -0.000260
v -0.016308 0.009107 -0.000353
v 0.002016 0.006723 -0.000182
v 0.002239 0.006723 0.000173
v 0.002313 0.006723 0.000648
v 0.002342 0.006647 0.017002
v 0.001674 0.008104 -0.000426
v -0.004559 -0.042441 0.023353
v -0.005947 -0.049432 0.023216
v -0.013600 -0.054603 0.018682
v 0.002342 0.006647 0.017494
v 0.002190 0.006647 0.018315
v 0.002158 0.007772 0.018472
v -0.001412 0.009599 -0.000182
v -0.000108 0.009241 -0.000428
v -0.000757 0.009261 -0.000428
v 0.001187 0.008743 -0.000502
v 0.001609 0.008743 -0.000386
v 0.000538 0.009222 -0.000419
v -0.024771 -0.048940 0.023161
v -0.024732 -0.048269 0.023287
v -0.020197 -0.051414 0.023187
v -0.020197 -0.050864 0.023376
v -0.020843 -0.050864 0.023381
v -0.021492 -0.050864 0.023376
v -0.022140 -0.050864 0.023284
v -0.022728 -0.050845 0.023126
v -0.023441 -0.050244 0.023178
v -0.023958 -0.050033 0.023100
v -0.024581 -0.049439 0.023097
v -0.025381 -0.031423 0.023116
v -0.024083 -0.017824 0.023346
v -0.022140 -0.050218 0.023428
v -0.020843 0.004845 0.023346
v -0.021492 0.004845 0.023322
v -0.021495 0.005496 0.023296
v -0.027747 0.009094 0.018491
v -0.022502 0.005835 0.023014
v -0.021495 0.005963 0.023126
v -0.028622 0.009056 0.018105
v -0.028964 0.009075 0.017833
v -0.022140 0.005496 0.023218
v -0.022140 0.005873 0.023062
v -0.028622 0.009190 0.017492
v -0.027973 0.009267 0.017492
v -0.027324 0.009299 0.017492
v 0.000538 0.009919 0.018138
v 0.001187 0.009964 0.017494
v 0.001187 0.009976 0.016844
v 0.001187 0.009989 0.003244
v -0.027324 0.009222 0.018138
v 0.001187 0.009989 0.002595
v 0.001187 0.009983 0.001945
v 0.001187 0.009970 0.001299
v 0.000538 0.009976 0.000648
v -0.000108 0.009970 0.000648
v -0.027324 0.009216 0.000061
v -0.005940 0.009759 0.000260
v 0.002000 0.007452 -0.000151
v 0.002000 0.008104 -0.000104
v 0.002232 0.007452 0.000173
v 0.002303 0.007452 0.000648
v 0.002358 0.007452 0.017494
v -0.017609 -0.044384 0.023410
v -0.006605 -0.049432 0.023317
v -0.002755 0.004205 0.023206
v -0.003355 0.004857 0.023244
v -0.005298 0.005503 0.023336
v -0.019548 -0.051350 0.023161
v 0.002197 0.008193 0.018320
v 0.001745 0.008743 0.018647
v -0.005298 0.009765 0.000244
v -0.001412 0.009785 0.000142
v -0.000108 0.009817 0.000156
v -0.000108 0.009561 -0.000163
v 0.001361 0.009120 -0.000355
v 0.001761 0.009305 0.000071
v 0.002181 0.008928 0.000272
v 0.001932 0.008743 -0.000066
v 0.000538 0.009542 -0.000142
v 0.001187 0.009478 -0.000090
v -0.024138 -0.049630 0.023178
v -0.022786 -0.050218 0.023365
v -0.019548 -0.050864 0.023357
v -0.005298 0.006110 0.023180
v -0.027324 0.009114 0.018524
v -0.028073 0.009101 0.018285
v -0.005298 0.006429 0.022903
v -0.000108 0.009772 0.018526
v -0.026675 0.009120 0.018547
v 0.000538 0.009759 0.018509
v 0.000906 0.009740 0.018479
v 0.001567 0.009753 0.017897
v 0.001603 0.009785 0.017494
v 0.001609 0.009797 0.016844
v 0.001655 0.009823 0.003244
v 0.001645 0.009804 0.001299
v 0.001580 0.009765 0.000468
v 0.001187 0.009900 0.000648
v 0.001187 0.009778 0.000237
v 0.000538 0.009804 0.000177
v 0.002274 0.008104 0.000648
v 0.002294 0.008104 0.001299
v 0.002348 0.008104 0.017494
v -0.002832 0.005081 0.023083
v -0.003355 0.005279 0.023126
v -0.004646 0.005503 0.023301
v 0.002168 0.009082 0.017835
v 0.002142 0.008743 0.018143
v 0.001616 0.009190 0.018547
v 0.002177 0.009114 0.000648
v 0.002232 0.008743 0.000648
v 0.001935 0.009446 0.000648
v -0.004646 0.006001 0.023140
v 0.001241 0.009727 0.018226
v -0.004213 0.005905 0.023066
v 0.001148 0.009408 0.018618
v 0.001806 0.009363 0.018081
v 0.001977 0.009465 0.003244
v 0.001964 0.009471 0.001945
v 0.001968 0.009452 0.001299
v 0.002255 0.008743 0.001299
v 0.002268 0.008743 0.001945
v 0.002268 0.008743 0.002595
v 0.002236 0.008788 0.017504
v 0.002197 0.009152 0.001945
f 1 2 3
f 1 3 4
f 1 4 5
f 1 5 6
f 1 6 7
f 1 7 8
f 1 8 9
f 1 9 10
f 1 10 2
f 2 11 3
f 2 10 11
f 3 11 4
f 4 12 13
f 4 13 5
f 4 11 14
f 4 14 12
f 5 13 15
f 5 15 16
f 5 16 17
f 5 17 18
f 5 18 6
f 6 18 19
f 6 19 7
f 7 19 20
f 7 20 8
f 8 21 22
f 8 22 23
f 8 23 24
f 8 24 9
f 8 20 25
f 8 25 26
f 8 26 27
f 8 27 28
f 8 28 29
f 8 29 21
f 9 30 10
f 9 24 31
f 9 31 30
f 10 30 11
f 11 32 14
f 11 30 33
f 11 33 32
f 12 34 35
f 12 35 36
f 12 36 13
f 12 14 32
f 12 32 37
f 12 37 34
f 13 36 38
f 13 38 15
f 15 38 39
f 15 39 40
f 15 40 41
f 15 41 16
f 16 41 42
f 16 42 17
f 17 42 43
f 17 43 18
f 18 43 44
f 18 44 45
f 18 45 46
f 18 46 19
f 19 46 47
f 19 47 20
f 20 47 25
f 21 29 48
f 21 48 22
f 22 48 49
f 22 49 50
f 22 50 23
f 23 50 51
f 23 51 24
f 24 51 52
f 24 52 53
f 24 53 31
f 25 27 26
f 25 47 54
f 25 54 27
f 27 55 29
f 27 29 28
f 27 54 56
f 27 56 55
f 29 55 48
f 30 31 57
f 30 57 33
f 31 53 58
f 31 58 57
f 32 59 37
f 32 33 60
f 32 60 61
f 32 61 59
f 33 57 62
f 33 62 63
f 33 63 60
f 34 37 59
f 34 59 64
f 34 64 65
f 34 65 35
f 35 65 66
f 35 66 67
f 35 67 36
f 36 67 38
f 38 67 68
f 38 68 69
f 38 69 39
f 39 69 70
f 39 70 71
f 39 71 72
f 39 72 40
f 40 72 73
f 40 73 42
f 40 42 41
f 42 73 43
f 43 73 74
f 43 74 75
f 43 75 44
f 44 75 76
f 44 76 77
f 44 77 78
f 44 78 46
f 44 46 45
f 46 79 54
f 46 54 47
f 46 78 79
f 48 80 81
f 48 81 82
f 48 82 49
f 48 55 83
f 48 83 80
f 49 82 84
f 49 84 85
f 49 85 50
f 50 85 86
f 50 86 51
f 51 87 52
f 51 86 88
f 51 88 87
f 52 87 53
f 53 87 88
f 53 88 89
f 53 89 90
f 53 90 58
f 54 79 91
f 54 91 92
f 54 92 93
f 54 93 56
f 55 56 94
f 55 94 83
f 56 93 95
f 56 95 94
f 57 58 90
f 57 90 62
f 59 61 96
f 59 96 97
f 59 97 98
f 59 98 64
f 60 63 61
f 61 63 96
f 62 90 99
f 62 99 100
f 62 100 101
f 62 101 102
f 62 102 103
f 62 103 104
f 62 104 105
f 62 105 63
f 63 106 96
f 63 105 106
f 64 98 107
f 64 107 108
f 64 108 109
f 64 109 110
f 64 110 65
f 65 110 66
f 66 111 112
f 66 112 67
f 66 110 113
f 66 113 114
f 66 114 111
f 67 112 115
f 67 115 68
f 68 115 116
f 68 116 117
f 68 117 69
f 69 117 70
f 70 117 71
f 71 117 116
f 71 116 118
f 71 118 72
f 72 118 119
f 72 119 120
f 72 120 121
f 72 121 122
f 72 122 123
f 72 123 75
f 72 75 73
f 73 75 74
f 75 123 76
f 76 123 122
f 76 122 77
f 77 122 124
f 77 124 78
f 78 124 125
f 78 125 79
f 79 125 126
f 79 126 127
f 79 127 128
f 79 128 91
f 80 83 129
f 80 129 81
f 81 129 130
f 81 130 82
f 82 130 131
f 82 131 132
f 82 132 84
f 83 94 133
f 83 133 129
f 84 132 137
f 84 137 85
f 85 134 135
f 85 135 136
f 85 136 88
f 85 88 86
f 85 137 138
f 85 138 139
f 85 139 134
f 88 136 90
f 88 90 89
f 90 136 99
f 91 140 141
f 91 141 142
f 91 142 93
f 91 93 92
f 91 128 140
f 93 142 141
f 93 141 95
f 94 95 143
f 94 143 144
f 94 144 133
f 95 141 145
f 95 145 143
f 96 106 146
f 96 146 147
f 96 147 97
f 97 147 98
f 98 147 107
f 99 136 148
f 99 148 149
f 99 149 150
f 99 150 151
f 99 151 100
f 100 151 152
f 100 152 101
f 101 152 153
f 101 153 102
f 102 154 155
f 102 155 103
f 102 153 154
f 103 155 156
f 103 156 104
f 104 156 106
f 104 106 105
f 106 156 146
f 107 157 108
f 107 147 157
f 108 157 147
f 108 147 158
f 108 158 159
f 108 159 160
f 108 160 161
f 108 161 109
f 109 161 162
f 109 162 113
f 109 113 110
f 111 163 112
f 111 114 164
f 111 164 165
f 111 165 163
f 112 163 166
f 112 166 167
f 112 167 115
f 113 162 114
f 114 162 168
f 114 168 165
f 114 165 169
f 114 169 164
f 115 167 170
f 115 170 116
f 116 170 118
f 118 170 171
f 118 171 119
f 119 171 172
f 119 172 120
f 120 173 174
f 120 174 175
f 120 175 176
f 120 176 121
f 120 172 177
f 120 177 173
f 121 176 178
f 121 178 179
f 121 179 180
f 121 180 225
f 121 225 181
f 121 181 182
f 121 182 122
f 122 183 124
f 122 182 184
f 122 184 183
f 124 183 125
f 125 183 126
f 126 183 127
f 127 183 140
f 127 140 128
f 129 133 185
f 129 185 186
f 129 186 187
f 129 187 130
f 130 187 131
f 131 187 188
f 131 188 189
f 131 189 132
f 132 189 137
f 133 186 185
f 133 144 186
f 134 190 159
f 134 159 191
f 134 191 135
f 134 139 192
f 134 192 193
f 134 193 194
f 134 194 190
f 135 191 136
f 136 195 148
f 136 191 195
f 137 189 138
f 138 189 196
f 138 196 139
f 139 196 197
f 139 197 192
f 140 198 199
f 140 199 200
f 140 200 201
f 140 201 141
f 140 183 198
f 141 201 145
f 143 145 202
f 143 202 144
f 144 202 203
f 144 203 204
f 144 204 205
f 144 205 186
f 145 201 206
f 145 206 207
f 145 207 202
f 146 156 208
f 146 208 147
f 147 208 209
f 147 209 159
f 147 159 158
f 148 195 191
f 148 191 210
f 148 210 149
f 149 210 191
f 149 191 159
f 149 159 150
f 150 159 151
f 151 159 209
f 151 209 152
f 152 209 154
f 152 154 153
f 154 209 208
f 154 208 155
f 155 208 156
f 159 190 194
f 159 194 160
f 160 194 162
f 160 162 161
f 162 194 211
f 162 211 165
f 162 165 168
f 163 212 177
f 163 177 213
f 163 213 166
f 163 165 212
f 164 169 165
f 165 211 214
f 165 214 215
f 165 215 216
f 165 216 212
f 166 213 167
f 167 213 170
f 170 177 171
f 170 213 177
f 171 177 172
f 173 177 212
f 173 212 215
f 173 215 217
f 173 217 218
f 173 218 174
f 174 218 219
f 174 219 220
f 174 220 221
f 174 221 175
f 175 221 222
f 175 222 176
f 176 222 178
f 178 222 179
f 179 222 223
f 179 223 180
f 180 223 224
f 180 224 225
f 181 225 226
f 181 226 227
f 181 227 200
f 181 200 182
f 182 200 198
f 182 198 184
f 183 184 198
f 186 205 204
f 186 204 187
f 187 204 228
f 187 228 188
f 188 228 229
f 188 229 230
f 188 230 189
f 189 230 196
f 192 197 231
f 192 231 193
f 193 231 232
f 193 232 233
f 193 233 194
f 194 233 211
f 196 230 234
f 196 234 235
f 196 235 197
f 197 235 236
f 197 236 231
f 198 200 199
f 200 227 201
f 201 227 206
f 202 207 203
f 203 207 226
f 203 226 224
f 203 224 204
f 204 237 238
f 204 238 228
f 204 224 239
f 204 239 237
f 206 227 226
f 206 226 207
f 211 233 240
f 211 240 214
f 212 216 215
f 214 240 218
f 214 218 217
f 214 217 215
f 218 241 219
f 218 240 242
f 218 242 243
f 218 243 236
f 218 236 241
f 219 241 236
f 219 236 244
f 219 244 234
f 219 234 220
f 220 234 221
f 221 245 222
f 221 234 245
f 222 245 246
f 222 246 223
f 223 246 247
f 223 247 239
f 223 239 224
f 224 226 225
f 228 238 248
f 228 248 229
f 229 248 249
f 229 249 230
f 230 249 250
f 230 250 251
f 230 251 234
f 231 242 240
f 231 240 232
f 231 236 243
f 231 243 242
f 232 240 233
f 234 251 252
f 234 252 245
f 234 244 236
f 234 236 235
f 237 248 238
f 237 239 247
f 237 247 252
f 237 252 248
f 245 252 246
f 246 252 247
f 248 252 249
f 249 252 250
f 250 252 251
