v -0.024709 -0.005748 0.010872
v -0.024709 -0.005748 0.011539
v -0.024709 -0.004311 0.010479
v -0.022161 -0.038507 0.009415
v -0.017839 -0.005748 0.011539
v -0.024709 0.002328 0.011539
v -0.022036 -0.039202 0.009415
v -0.021822 -0.040093 0.009415
v -0.021721 -0.040500 0.009415
v -0.021513 -0.041149 0.009415
v -0.021152 -0.042102 0.009415
v -0.020926 -0.042442 0.009415
v -0.020601 -0.042859 0.009415
v -0.020324 -0.043204 0.009415
v -0.019999 -0.043529 0.009415
v -0.013475 -0.047531 0.009508
v -0.013128 -0.047557 0.009508
v -0.024709 -0.003606 0.010301
v -0.021731 -0.023014 0.003863
v -0.019947 -0.038553 0.002130
v -0.019906 -0.039074 0.002189
v -0.019866 -0.039511 0.002285
v -0.013477 -0.002256 0.011539
v -0.012439 -0.047521 0.009508
v -0.011848 -0.047423 0.009508
v -0.011081 -0.047176 0.009508
v -0.010493 -0.046892 0.009508
v -0.010180 -0.046666 0.009508
v -0.023037 0.005063 0.011539
v -0.022339 0.005063 0.010171
v -0.022066 0.005063 0.009796
v -0.024709 0.000783 0.010599
v -0.019725 -0.040500 0.002591
v -0.019517 -0.041149 0.002591
v -0.019264 -0.041551 0.002197
v -0.018596 -0.042792 0.002231
v -0.017991 -0.043483 0.002159
v -0.018051 -0.043544 0.002591
v -0.017692 -0.043869 0.002591
v -0.017322 -0.044090 0.002204
v -0.017371 -0.044126 0.002591
v -0.016957 -0.044415 0.002591
v -0.015255 -0.046671 0.009415
v -0.014951 -0.046867 0.009415
v -0.015338 -0.045363 0.002907
v -0.014741 -0.045378 0.002233
v -0.013598 -0.045723 0.002591
v -0.013073 -0.045795 0.002591
v -0.012425 -0.045764 0.002591
v -0.024709 -0.002843 0.010136
v -0.024709 -0.002205 0.010053
v -0.024709 -0.001597 0.010017
v -0.021114 -0.006145 0.002638
v -0.020785 -0.006160 0.001968
v -0.019678 -0.038553 0.001805
v -0.019228 -0.040207 0.001615
v -0.019414 -0.040449 0.001907
v -0.019359 -0.041149 0.002090
v -0.009799 -0.046346 0.009508
v -0.009474 -0.046032 0.009508
v -0.007132 -0.043632 0.009508
v -0.006650 -0.043132 0.009508
v -0.006032 -0.042375 0.009508
v -0.005372 -0.041139 0.009508
v -0.004465 -0.039311 0.009508
v -0.004589 -0.023755 0.009903
v -0.004589 -0.023014 0.009903
v -0.013477 0.005063 0.011417
v -0.011777 -0.045651 0.002591
v -0.011131 -0.045414 0.002142
v -0.010778 -0.045368 0.002243
v -0.009407 -0.044755 0.002186
v -0.009020 -0.044611 0.002591
v -0.008567 -0.044291 0.002591
v -0.008228 -0.044049 0.002761
v -0.021558 0.005063 0.009553
v -0.016844 -0.000541 0.002130
v -0.018094 -0.001205 0.002144
v -0.018788 -0.001762 0.002087
v -0.019218 -0.001957 0.002272
v -0.020476 -0.003987 0.002324
v -0.024709 0.000319 0.010375
v -0.020569 -0.004419 0.002219
v -0.018699 -0.042442 0.002106
v -0.017993 -0.042870 0.001576
v -0.018205 -0.043050 0.001979
v -0.017567 -0.043709 0.001964
v -0.017813 -0.043297 0.001728
v -0.016957 -0.044214 0.002070
v -0.016119 -0.044781 0.002156
v -0.016553 -0.044667 0.002591
v -0.017381 -0.043503 0.001576
v -0.016228 -0.044837 0.002591
v -0.015173 -0.045306 0.002474
v -0.014365 -0.045430 0.002155
v -0.015659 -0.044884 0.002031
v -0.014987 -0.045018 0.001932
v -0.013598 -0.045517 0.002005
v -0.013079 -0.045527 0.001889
v -0.012413 -0.045522 0.001889
v -0.011777 -0.045486 0.002011
v -0.024709 -0.000876 0.010035
v -0.020706 -0.005630 0.002010
v -0.020254 -0.006160 0.001613
v -0.020427 -0.006815 0.001655
v -0.019939 -0.023014 0.001576
v -0.024709 -0.000397 0.010127
v -0.019353 -0.038553 0.001554
v -0.019309 -0.039202 0.001576
v -0.018082 -0.042442 0.001552
v -0.018614 -0.041561 0.001600
v -0.018501 -0.041999 0.001654
v -0.007550 -0.043431 0.002847
v -0.007029 -0.042592 0.002591
v -0.006837 -0.042262 0.002591
v -0.006605 -0.041798 0.002591
v -0.006363 -0.041247 0.002591
v -0.006250 -0.040861 0.002238
v -0.006094 -0.040500 0.002591
v -0.005945 -0.039851 0.002591
v -0.005854 -0.039202 0.002591
v -0.005814 -0.038553 0.002591
v -0.004589 -0.023014 0.004116
v -0.004465 -0.038492 0.009354
v -0.005255 -0.006531 0.009542
v -0.007053 -0.002745 0.008039
v -0.008236 -0.001983 0.002588
v -0.008559 -0.001648 0.002588
v -0.008884 -0.001324 0.002588
v -0.009336 -0.001169 0.001941
v -0.010033 -0.000582 0.002136
v -0.011371 0.000020 0.002199
v -0.011775 0.000087 0.002066
v -0.012165 -0.000026 0.001633
v -0.012399 0.000154 0.001886
v -0.013073 0.000288 0.001941
v -0.018251 0.005063 0.010150
v -0.006817 -0.003106 0.008039
v -0.011777 -0.045280 0.001686
v -0.011131 -0.045182 0.001818
v -0.009833 -0.044848 0.002061
v -0.008684 -0.044209 0.002083
v -0.008154 -0.043477 0.001584
v -0.008034 -0.043596 0.001941
v -0.007845 -0.043668 0.002615
v -0.018883 0.005063 0.010030
v -0.013723 0.000299 0.001941
v -0.013723 0.000062 0.001563
v -0.014149 0.000026 0.001590
v -0.015825 0.000020 0.002224
v -0.016247 -0.000330 0.002064
v -0.015671 -0.000361 0.001822
v -0.016311 -0.000850 0.001693
v -0.017605 -0.001071 0.002028
v -0.018253 -0.001623 0.001901
v -0.018409 -0.002122 0.001655
v -0.018907 -0.002256 0.001906
v -0.019341 -0.002390 0.002157
v -0.020024 -0.003570 0.002142
v -0.020235 -0.004208 0.002039
v -0.017599 -0.043091 0.001542
v -0.015659 -0.044544 0.001707
v -0.012413 -0.045084 0.001542
v -0.013079 -0.045054 0.001567
v -0.014365 -0.044770 0.001592
v -0.014801 -0.044734 0.001608
v -0.015235 -0.044657 0.001631
v -0.013295 -0.045285 0.001637
v -0.012744 -0.045373 0.001606
v -0.012191 -0.045332 0.001637
v -0.019989 -0.005748 0.001592
v -0.020106 -0.006815 0.001569
v -0.019648 -0.004219 0.001694
v -0.019240 -0.003873 0.001611
v -0.020021 -0.007458 0.001558
v -0.019547 -0.023014 0.001520
v -0.018251 -0.026248 0.001478
v -0.007602 -0.043364 0.002415
v -0.007388 -0.043127 0.002615
v -0.006876 -0.042190 0.002199
v -0.006250 -0.039372 0.001604
v -0.006195 -0.040500 0.002145
v -0.007564 -0.042772 0.001615
v -0.006042 -0.039202 0.001941
v -0.005983 -0.038553 0.001941
v -0.006195 -0.038512 0.001560
v -0.006201 -0.037910 0.001564
v -0.006888 -0.006320 0.001584
v -0.006787 -0.006124 0.001887
v -0.006615 -0.006160 0.002588
v -0.006696 -0.005511 0.002588
v -0.006870 -0.005032 0.002169
v -0.006888 -0.004718 0.002497
v -0.006902 -0.004512 0.002825
v -0.007023 -0.004265 0.002600
v -0.006587 -0.003590 0.008039
v -0.008686 -0.001767 0.001941
v -0.008030 -0.002308 0.002588
v -0.007540 -0.003204 0.002226
v -0.008103 -0.002426 0.002086
v -0.009013 -0.001442 0.001941
v -0.009470 -0.001278 0.001598
v -0.010503 -0.000489 0.001927
v -0.010303 -0.000742 0.001702
v -0.011775 -0.000108 0.001743
v -0.012597 0.000020 0.001597
v -0.010735 -0.000629 0.001595
v -0.011127 -0.000556 0.001559
v -0.011775 -0.000433 0.001518
v -0.013073 0.000051 0.001565
v -0.007304 -0.003570 0.002588
v -0.007508 -0.003152 0.002588
v -0.007707 -0.002828 0.002588
v -0.010667 -0.044765 0.001589
v -0.010233 -0.044621 0.001644
v -0.006593 -0.038553 0.001493
v -0.007917 -0.043029 0.001584
v -0.007711 -0.043220 0.001941
v -0.011131 -0.044853 0.001554
v -0.011777 -0.044956 0.001526
v -0.013723 -0.000330 0.001473
v -0.015459 -0.000598 0.001595
v -0.017153 -0.001396 0.001638
v -0.017605 -0.001514 0.001704
v -0.017977 -0.001921 0.001607
v -0.018596 -0.002555 0.001608
v -0.019323 -0.004219 0.001597
v -0.018899 -0.010054 0.001519
v -0.018253 -0.010698 0.001509
v -0.011775 -0.000979 0.001438
v -0.011127 -0.000979 0.001436
v -0.009185 -0.017827 0.001461
v -0.007473 -0.042895 0.001941
v -0.006153 -0.039790 0.001927
v -0.006726 -0.022365 0.001520
v -0.007191 -0.006124 0.001536
v -0.008499 -0.002910 0.001528
v -0.008697 -0.002277 0.001541
v -0.008166 -0.003121 0.001591
v -0.006942 -0.005887 0.001637
v -0.006819 -0.005511 0.002046
v -0.007453 -0.003570 0.002104
v -0.008359 -0.002236 0.001898
v -0.008814 -0.001896 0.001587
v -0.008259 -0.002689 0.001654
v -0.009831 -0.001190 0.001555
v -0.009227 -0.001659 0.001557
v -0.010503 -0.000968 0.001510
v -0.013073 -0.000330 0.001489
v -0.010479 -0.001628 0.001438
v -0.009185 -0.002277 0.001472
v -0.018627 -0.002921 0.001600
v -0.017605 -0.001839 0.001592
v -0.009831 -0.001628 0.001469
v -0.007651 -0.004100 0.001658
v -0.007758 -0.003570 0.001780
f 1 2 6
f 1 6 32
f 1 32 82
f 1 82 107
f 1 107 102
f 1 102 52
f 1 52 51
f 1 51 50
f 1 50 18
f 1 18 3
f 1 3 4
f 1 4 2
f 2 5 23
f 2 23 29
f 2 29 6
f 2 4 7
f 2 7 8
f 2 8 9
f 2 9 10
f 2 10 11
f 2 11 12
f 2 12 13
f 2 13 14
f 2 14 15
f 2 15 16
f 2 16 17
f 2 17 5
f 3 18 19
f 3 19 4
f 4 19 20
f 4 20 21
f 4 21 22
f 4 22 7
f 5 17 24
f 5 24 25
f 5 25 26
f 5 26 27
f 5 27 28
f 5 28 23
f 6 29 30
f 6 30 31
f 6 31 32
f 7 22 33
f 7 33 8
f 8 33 9
f 9 33 34
f 9 34 10
f 10 34 35
f 10 35 11
f 11 35 36
f 11 36 12
f 12 36 13
f 13 36 14
f 14 36 37
f 14 37 15
f 15 37 38
f 15 38 39
f 15 39 40
f 15 40 41
f 15 41 42
f 15 42 43
f 15 43 16
f 16 43 44
f 16 44 45
f 16 45 46
f 16 46 47
f 16 47 48
f 16 48 17
f 17 48 49
f 17 49 24
f 18 50 19
f 19 50 51
f 19 51 52
f 19 52 53
f 19 53 54
f 19 54 20
f 20 55 21
f 20 54 55
f 21 55 56
f 21 56 57
f 21 57 22
f 22 57 58
f 22 58 33
f 23 28 59
f 23 59 60
f 23 60 61
f 23 61 62
f 23 62 63
f 23 63 64
f 23 64 65
f 23 65 66
f 23 66 67
f 23 67 68
f 23 68 29
f 24 49 25
f 25 49 69
f 25 69 70
f 25 70 71
f 25 71 26
f 26 71 72
f 26 72 27
f 27 72 73
f 27 73 74
f 27 74 28
f 28 74 75
f 28 75 59
f 29 68 137
f 29 137 146
f 29 146 76
f 29 76 31
f 29 31 30
f 31 76 77
f 31 77 78
f 31 78 79
f 31 79 80
f 31 80 81
f 31 81 32
f 32 81 83
f 32 83 82
f 33 58 34
f 34 58 35
f 35 84 36
f 35 58 85
f 35 85 84
f 36 85 86
f 36 86 37
f 36 84 85
f 37 87 40
f 37 40 39
f 37 39 38
f 37 86 88
f 37 88 87
f 40 89 90
f 40 90 91
f 40 91 42
f 40 42 41
f 40 87 92
f 40 92 89
f 42 91 44
f 42 44 43
f 44 91 93
f 44 93 45
f 45 94 46
f 45 93 90
f 45 90 94
f 46 95 47
f 46 94 90
f 46 90 96
f 46 96 97
f 46 97 95
f 47 95 98
f 47 98 48
f 48 98 99
f 48 99 100
f 48 100 49
f 49 100 101
f 49 101 70
f 49 70 69
f 52 102 54
f 52 54 53
f 54 103 104
f 54 104 105
f 54 105 106
f 54 106 55
f 54 102 107
f 54 107 103
f 55 108 109
f 55 109 56
f 55 106 108
f 56 109 110
f 56 110 85
f 56 85 111
f 56 111 112
f 56 112 58
f 56 58 57
f 58 112 85
f 59 75 113
f 59 113 60
f 60 113 61
f 61 113 62
f 62 113 63
f 63 113 114
f 63 114 115
f 63 115 64
f 64 115 116
f 64 116 65
f 65 116 117
f 65 117 118
f 65 118 119
f 65 119 120
f 65 120 121
f 65 121 122
f 65 122 123
f 65 123 124
f 65 124 67
f 65 67 66
f 67 123 125
f 67 125 68
f 67 124 123
f 68 126 127
f 68 127 128
f 68 128 129
f 68 129 130
f 68 130 131
f 68 131 132
f 68 132 133
f 68 133 134
f 68 134 135
f 68 135 136
f 68 136 137
f 68 125 138
f 68 138 126
f 70 101 139
f 70 139 140
f 70 140 71
f 71 140 141
f 71 141 72
f 72 142 74
f 72 74 73
f 72 141 143
f 72 143 142
f 74 142 144
f 74 144 145
f 74 145 75
f 75 145 113
f 76 146 136
f 76 136 147
f 76 147 148
f 76 148 149
f 76 149 150
f 76 150 151
f 76 151 77
f 77 151 152
f 77 152 153
f 77 153 154
f 77 154 78
f 78 154 155
f 78 155 79
f 79 155 156
f 79 156 157
f 79 157 80
f 80 157 158
f 80 158 159
f 80 159 81
f 81 159 160
f 81 160 83
f 82 83 103
f 82 103 107
f 83 160 103
f 85 161 92
f 85 92 88
f 85 88 86
f 85 112 111
f 85 110 161
f 87 88 92
f 89 92 90
f 90 93 91
f 90 92 162
f 90 162 96
f 92 163 164
f 92 164 165
f 92 165 166
f 92 166 167
f 92 167 162
f 92 161 163
f 95 97 167
f 95 167 168
f 95 168 98
f 96 162 167
f 96 167 97
f 98 168 169
f 98 169 99
f 99 169 100
f 100 169 170
f 100 170 101
f 101 170 139
f 103 160 104
f 104 171 172
f 104 172 105
f 104 160 173
f 104 173 174
f 104 174 171
f 105 172 106
f 106 172 175
f 106 175 176
f 106 176 108
f 108 177 161
f 108 161 110
f 108 110 109
f 108 176 177
f 113 178 179
f 113 179 114
f 113 145 178
f 114 180 115
f 114 179 178
f 114 178 180
f 115 180 116
f 116 180 118
f 116 118 117
f 118 181 182
f 118 182 120
f 118 120 119
f 118 180 183
f 118 183 181
f 120 182 184
f 120 184 121
f 121 184 185
f 121 185 122
f 122 185 123
f 123 185 186
f 123 186 187
f 123 187 188
f 123 188 189
f 123 189 190
f 123 190 125
f 125 190 191
f 125 191 192
f 125 192 193
f 125 193 194
f 125 194 195
f 125 195 196
f 125 196 138
f 126 138 127
f 127 197 128
f 127 138 198
f 127 198 199
f 127 199 200
f 127 200 197
f 128 197 129
f 129 197 201
f 129 201 130
f 130 201 202
f 130 202 131
f 131 203 132
f 131 202 204
f 131 204 203
f 132 203 205
f 132 205 134
f 132 134 133
f 134 206 135
f 134 205 203
f 134 203 207
f 134 207 208
f 134 208 209
f 134 209 206
f 135 206 136
f 136 206 210
f 136 210 148
f 136 148 147
f 136 146 137
f 138 196 211
f 138 211 212
f 138 212 213
f 138 213 198
f 139 170 214
f 139 214 140
f 140 214 141
f 141 214 215
f 141 215 143
f 142 143 144
f 143 216 217
f 143 217 183
f 143 183 218
f 143 218 144
f 143 215 214
f 143 214 219
f 143 219 220
f 143 220 216
f 144 218 178
f 144 178 145
f 148 210 221
f 148 221 149
f 149 221 222
f 149 222 153
f 149 153 152
f 149 152 151
f 149 151 150
f 153 222 223
f 153 223 224
f 153 224 154
f 154 224 155
f 155 224 156
f 156 224 225
f 156 225 226
f 156 226 157
f 157 226 160
f 157 160 159
f 157 159 158
f 160 226 173
f 161 177 220
f 161 220 163
f 163 169 164
f 163 220 169
f 164 169 166
f 164 166 165
f 166 169 168
f 166 168 167
f 169 220 170
f 170 220 219
f 170 219 214
f 171 174 227
f 171 227 172
f 172 227 221
f 172 221 175
f 173 226 174
f 174 226 227
f 175 228 176
f 175 221 228
f 176 228 177
f 177 216 220
f 177 228 229
f 177 229 230
f 177 230 231
f 177 231 232
f 177 232 216
f 178 218 233
f 178 233 180
f 180 233 183
f 181 216 186
f 181 186 184
f 181 184 234
f 181 234 182
f 181 183 216
f 182 234 184
f 183 233 218
f 183 217 216
f 184 186 185
f 186 216 235
f 186 235 188
f 186 188 187
f 188 235 236
f 188 236 237
f 188 237 238
f 188 238 239
f 188 239 240
f 188 240 241
f 188 241 189
f 189 241 190
f 190 241 191
f 191 241 192
f 192 241 240
f 192 240 242
f 192 242 199
f 192 199 195
f 192 195 193
f 193 195 194
f 195 199 211
f 195 211 196
f 197 200 243
f 197 243 244
f 197 244 201
f 198 213 199
f 199 212 211
f 199 242 245
f 199 245 200
f 199 213 212
f 200 245 243
f 201 244 202
f 202 246 207
f 202 207 204
f 202 244 247
f 202 247 246
f 203 204 207
f 206 209 210
f 207 246 248
f 207 248 208
f 208 248 209
f 209 249 210
f 209 248 231
f 209 231 249
f 210 249 221
f 216 232 250
f 216 250 251
f 216 251 235
f 221 249 231
f 221 231 230
f 221 230 228
f 221 227 252
f 221 252 226
f 221 226 253
f 221 253 225
f 221 225 222
f 222 225 223
f 223 225 224
f 225 253 226
f 226 252 227
f 228 230 229
f 231 248 254
f 231 254 250
f 231 250 232
f 235 251 236
f 236 251 237
f 237 251 238
f 238 245 239
f 238 251 254
f 238 254 247
f 238 247 244
f 238 244 245
f 239 245 255
f 239 255 240
f 240 255 242
f 242 255 256
f 242 256 245
f 243 245 244
f 245 256 255
f 246 247 254
f 246 254 248
f 250 254 251
