v 0.038927 0.057673 0.019340
v 0.038872 0.057480 0.015564
v 0.035727 0.057639 0.018611
v 0.035727 0.056915 0.023235
v 0.038872 0.056983 0.023337
v 0.043316 0.056492 0.021315
v 0.042052 0.057198 0.017397
v 0.042981 0.056379 0.014085
v 0.041047 0.055915 0.011173
v 0.038004 0.056390 0.011658
v 0.035727 0.056989 0.013509
v 0.031611 0.056520 0.020313
v 0.037190 0.055932 0.026089
v 0.032240 0.055746 0.024471
v 0.041997 0.055780 0.025065
v 0.044910 0.056079 0.017313
v 0.046660 0.054424 0.023115
v 0.047549 0.054452 0.020309
v 0.046612 0.054622 0.014045
v 0.044910 0.053995 0.010178
v 0.041498 0.053113 0.007000
v 0.038161 0.054362 0.007805
v 0.033191 0.055763 0.011115
v 0.029793 0.054181 0.010491
v 0.021718 0.050916 0.012536
v 0.020296 0.050729 0.015531
v 0.022347 0.052198 0.020313
v 0.027632 0.054458 0.023009
v 0.037758 0.053413 0.029828
v 0.041621 0.053475 0.029136
v 0.033163 0.054034 0.028133
v 0.029888 0.054221 0.025684
v 0.044875 0.053972 0.026544
v 0.048089 0.054158 0.017397
v 0.048649 0.051367 0.026490
v 0.050543 0.051096 0.023731
v 0.052348 0.050283 0.017397
v 0.050755 0.051537 0.014974
v 0.048239 0.051317 0.009770
v 0.045456 0.051876 0.007660
v 0.039016 0.051034 0.004493
v 0.042052 0.048238 0.003152
v 0.035091 0.052351 0.005761
v 0.033382 0.054311 0.008593
v 0.026401 0.052305 0.009777
v 0.009760 0.044379 0.009431
v -0.000770 0.039949 0.013596
v 0.010307 0.046051 0.018363
v 0.003531 0.042373 0.015670
v 0.002492 0.042170 0.018363
v -0.000346 0.040413 0.021297
v 0.023352 0.052181 0.023389
v 0.034955 0.052158 0.030903
v 0.037382 0.050356 0.032703
v 0.040903 0.051593 0.031370
v 0.045409 0.051836 0.029059
v 0.031851 0.051723 0.030192
v 0.019544 0.050204 0.023334
v 0.008105 0.044221 0.023079
v -0.002342 0.036430 0.026282
v 0.050147 0.047797 0.028414
v 0.052649 0.047091 0.025021
v 0.053073 0.048774 0.021351
v 0.054475 0.046384 0.020309
v 0.054529 0.046418 0.017295
v 0.053053 0.048136 0.014500
v 0.050960 0.049136 0.011009
v 0.050188 0.046401 0.007430
v 0.046769 0.049062 0.005969
v 0.044855 0.047577 0.003848
v 0.039091 0.046023 0.001643
v 0.035372 0.049927 0.003746
v 0.042475 0.044497 0.001705
v -0.001111 0.034170 0.003407
v -0.000305 0.036724 0.005448
v 0.015968 0.046147 0.007762
v 0.007852 0.042401 0.007601
v 0.002451 0.040475 0.008862
v -0.001139 0.038740 0.009048
v -0.003963 0.038108 0.012973
v -0.002014 0.039769 0.017394
v -0.004448 0.038288 0.020582
v -0.002493 0.038543 0.022937
v 0.033416 0.049040 0.032926
v 0.035269 0.046791 0.034587
v 0.038941 0.045277 0.035240
v 0.041566 0.048260 0.033545
v 0.046359 0.048407 0.031275
v -0.001152 0.032972 0.030160
v -0.004940 0.036740 0.023276
v -0.007156 0.033791 0.025200
v -0.004537 0.034272 0.027077
v 0.049791 0.044215 0.030571
v 0.052916 0.044407 0.026668
v 0.054249 0.044707 0.023414
v 0.055309 0.042339 0.020309
v 0.055487 0.042339 0.017397
v 0.054598 0.044938 0.014784
v 0.053094 0.045712 0.011792
v 0.050256 0.042339 0.005797
v 0.046605 0.043752 0.003232
v 0.052820 0.043492 0.009533
v 0.038927 0.042396 0.000695
v 0.036083 0.044627 0.001246
v 0.003100 0.028780 -0.000485
v -0.000175 0.031933 0.001548
v 0.042052 0.041362 0.000951
v 0.044944 0.041277 0.001869
v -0.004906 0.031933 0.003811
v -0.003648 0.035571 0.006395
v -0.006868 0.035221 0.009241
v -0.006684 0.036526 0.014482
v -0.004537 0.038345 0.017394
v -0.006848 0.036661 0.020313
v -0.000250 0.028899 0.032521
v 0.036698 0.042339 0.035961
v 0.003100 0.027746 0.033629
v 0.041081 0.040390 0.035724
v 0.043262 0.044769 0.034533
v 0.046496 0.044153 0.033137
v -0.006096 0.031486 0.028279
v -0.003655 0.028667 0.031238
v -0.009022 0.033520 0.022940
v -0.014362 0.026622 0.024646
v 0.050687 0.040390 0.030422
v 0.046879 0.040390 0.033458
v 0.053265 0.040390 0.027106
v 0.054871 0.040390 0.023148
v 0.055411 0.038447 0.020309
v 0.055138 0.036079 0.017186
v 0.054864 0.038266 0.013640
v 0.054482 0.041797 0.012776
v 0.050359 0.038447 0.005699
v 0.048089 0.040390 0.003651
v 0.052765 0.040390 0.008629
v 0.041081 0.038447 0.000685
v 0.006020 0.022876 -0.001247
v 0.004071 0.025311 -0.001189
v 0.001152 0.025797 -0.000835
v -0.000305 0.028933 0.000247
v -0.003149 0.028650 0.001147
v 0.045169 0.038407 0.001996
v -0.014362 0.021108 0.003297
v -0.014157 0.024537 0.005083
v -0.007306 0.033017 0.006752
v -0.009802 0.032808 0.009325
v -0.008824 0.034729 0.013509
v -0.006930 0.036707 0.017394
v -0.009159 0.034887 0.017893
v -0.014328 0.030418 0.016268
v -0.014355 0.029113 0.021096
v -0.001604 0.024972 0.032988
v 0.038544 0.038441 0.035976
v 0.002123 0.024820 0.033884
v 0.041634 0.035622 0.034988
v 0.043973 0.040390 0.034908
v -0.014362 0.022752 0.027310
v -0.014362 0.019989 0.028388
v 0.050625 0.037475 0.030353
v 0.046715 0.037012 0.033327
v 0.053114 0.037017 0.026927
v 0.054693 0.035616 0.022036
v 0.053326 0.031006 0.017397
v 0.052936 0.032565 0.012077
v 0.053278 0.037441 0.009868
v 0.050605 0.034582 0.006996
v 0.048479 0.034656 0.004886
v 0.047979 0.037475 0.003728
v 0.040110 0.035537 0.000976
v 0.008946 0.021899 -0.000981
v 0.006020 0.019955 -0.000923
v 0.002123 0.021170 -0.000992
v -0.000797 0.021899 -0.000646
v -0.001611 0.024797 -0.000343
v -0.014362 0.018006 0.002354
v 0.045313 0.033825 0.003206
v -0.014259 0.027215 0.007627
v -0.013965 0.029718 0.011063
v -0.000284 0.021221 0.033337
v -0.014362 0.017142 0.028902
v 0.004803 0.020441 0.033851
v 0.005931 0.017221 0.033060
v 0.041840 0.030887 0.033093
v 0.044964 0.033096 0.033002
v 0.048943 0.033972 0.030754
v 0.050769 0.032531 0.028046
v 0.052800 0.033085 0.025163
v 0.053046 0.031164 0.021519
v 0.052533 0.030322 0.014526
v 0.050249 0.027356 0.021606
v 0.050242 0.026921 0.017397
v 0.049798 0.030192 0.009179
v 0.048102 0.031108 0.006479
v 0.043057 0.031356 0.003294
v 0.008946 0.019006 -0.000387
v 0.005999 0.017113 -0.000183
v 0.002232 0.017277 -0.000270
v -0.013890 0.011187 0.002426
v -0.014362 0.015085 0.002058
v -0.014362 0.011656 0.028633
v 0.002587 0.016865 0.032853
v 0.003100 0.013577 0.031370
v 0.008946 0.015029 0.031625
v 0.043761 0.028418 0.030557
v 0.008905 0.010916 0.028771
v 0.046851 0.030136 0.030105
v 0.051186 0.030023 0.024868
v 0.047453 0.026904 0.026337
v 0.050222 0.027944 0.013450
v 0.036213 0.019842 0.022259
v 0.043692 0.022797 0.015171
v 0.046680 0.024435 0.014799
v 0.046256 0.026854 0.009263
v 0.046085 0.029017 0.006515
v 0.011524 0.011916 0.004267
v 0.009370 0.015119 0.001235
v 0.006006 0.013153 0.001698
v -0.014362 0.007340 0.003534
v -0.014362 0.007492 0.027343
v 0.006225 0.011848 0.029952
v -0.014362 0.003458 0.024660
v 0.039112 0.022893 0.027113
v 0.043863 0.025622 0.027510
v 0.005049 0.008995 0.027412
v 0.010136 0.009469 0.026585
v 0.045443 0.024656 0.012080
v 0.036438 0.019311 0.017853
v 0.020720 0.013091 0.025141
v 0.013240 0.009125 0.023946
v 0.014676 0.008758 0.019358
v 0.039194 0.020509 0.015459
v 0.019981 0.011040 0.012926
v 0.023851 0.012984 0.013010
v 0.042168 0.022961 0.011960
v 0.011018 0.008888 0.007795
v 0.008631 0.010921 0.004103
v -0.014362 0.004238 0.005163
v -0.014362 -0.000045 0.011676
v -0.013425 0.000543 0.017394
v -0.013097 0.001266 0.020878
v 0.006327 0.007255 0.024781
v 0.010163 0.007729 0.023702
v 0.014792 0.008328 0.015455
v 0.011236 0.007181 0.019515
v 0.014990 0.008803 0.011851
v 0.019626 0.011204 0.011625
v 0.012228 0.007955 0.010699
v 0.008016 0.006724 0.010072
v 0.007141 0.008181 0.006982
v -0.014362 0.001701 0.007689
v 0.007791 0.005656 0.013666
v -0.010239 0.001085 0.015830
v -0.001617 0.003345 0.017736
v 0.006929 0.006018 0.020932
v 0.011804 0.006984 0.015455
v 0.007674 0.005786 0.017375
f 1 2 3
f 1 3 4
f 1 4 5
f 1 5 6
f 1 6 7
f 1 7 2
f 2 7 8
f 2 8 9
f 2 9 10
f 2 10 11
f 2 11 3
f 3 11 12
f 3 12 4
f 4 13 5
f 4 12 14
f 4 14 13
f 5 13 15
f 5 15 6
f 6 16 7
f 6 15 17
f 6 17 18
f 6 18 16
f 7 16 8
f 8 16 19
f 8 19 20
f 8 20 9
f 9 21 22
f 9 22 10
f 9 20 21
f 10 22 23
f 10 23 11
f 11 23 12
f 12 23 24
f 12 24 25
f 12 25 26
f 12 26 27
f 12 27 28
f 12 28 14
f 13 29 30
f 13 30 15
f 13 14 31
f 13 31 29
f 14 28 32
f 14 32 31
f 15 30 33
f 15 33 17
f 16 18 34
f 16 34 19
f 17 35 36
f 17 36 18
f 17 33 35
f 18 36 37
f 18 37 34
f 19 34 38
f 19 38 39
f 19 39 20
f 20 40 21
f 20 39 40
f 21 41 22
f 21 40 42
f 21 42 41
f 22 41 43
f 22 43 44
f 22 44 23
f 23 44 24
f 24 45 46
f 24 46 25
f 24 44 45
f 25 46 47
f 25 47 26
f 26 48 27
f 26 47 49
f 26 49 50
f 26 50 48
f 27 48 50
f 27 50 51
f 27 51 28
f 28 51 52
f 28 52 32
f 29 31 53
f 29 53 54
f 29 54 55
f 29 55 30
f 30 56 33
f 30 55 56
f 31 32 57
f 31 57 53
f 32 52 58
f 32 58 59
f 32 59 60
f 32 60 57
f 33 56 35
f 34 37 38
f 35 61 36
f 35 56 61
f 36 61 62
f 36 62 63
f 36 63 37
f 37 63 64
f 37 64 65
f 37 65 66
f 37 66 38
f 38 66 67
f 38 67 39
f 39 68 69
f 39 69 40
f 39 67 68
f 40 70 42
f 40 69 70
f 41 42 71
f 41 71 72
f 41 72 43
f 42 70 73
f 42 73 71
f 43 72 74
f 43 74 75
f 43 75 76
f 43 76 44
f 44 76 45
f 45 76 77
f 45 77 46
f 46 77 78
f 46 78 79
f 46 79 47
f 47 79 80
f 47 80 81
f 47 81 50
f 47 50 49
f 50 81 82
f 50 82 51
f 51 82 83
f 51 83 59
f 51 59 58
f 51 58 52
f 53 57 84
f 53 84 54
f 54 84 85
f 54 85 86
f 54 86 87
f 54 87 55
f 55 87 88
f 55 88 56
f 56 88 61
f 57 60 89
f 57 89 84
f 59 83 60
f 60 83 90
f 60 90 91
f 60 91 92
f 60 92 89
f 61 93 94
f 61 94 62
f 61 88 93
f 62 94 95
f 62 95 63
f 63 95 64
f 64 95 96
f 64 96 97
f 64 97 65
f 65 97 98
f 65 98 66
f 66 99 67
f 66 98 99
f 67 99 68
f 68 100 101
f 68 101 69
f 68 99 102
f 68 102 100
f 69 101 70
f 70 101 73
f 71 103 104
f 71 104 72
f 71 73 103
f 72 104 105
f 72 105 106
f 72 106 74
f 73 107 103
f 73 101 108
f 73 108 107
f 74 106 109
f 74 109 110
f 74 110 75
f 75 110 79
f 75 79 78
f 75 78 77
f 75 77 76
f 79 110 111
f 79 111 80
f 80 112 113
f 80 113 81
f 80 111 112
f 81 113 82
f 82 90 83
f 82 113 114
f 82 114 90
f 84 89 115
f 84 115 85
f 85 116 86
f 85 115 117
f 85 117 116
f 86 116 118
f 86 118 119
f 86 119 87
f 87 119 88
f 88 119 120
f 88 120 93
f 89 92 121
f 89 121 122
f 89 122 115
f 90 114 123
f 90 123 91
f 91 123 124
f 91 124 121
f 91 121 92
f 93 125 94
f 93 120 126
f 93 126 125
f 94 127 95
f 94 125 127
f 95 127 128
f 95 128 96
f 96 128 129
f 96 129 97
f 97 129 130
f 97 130 131
f 97 131 132
f 97 132 98
f 98 132 102
f 98 102 99
f 100 133 134
f 100 134 101
f 100 102 135
f 100 135 133
f 101 134 108
f 102 132 135
f 103 107 136
f 103 136 137
f 103 137 138
f 103 138 105
f 103 105 104
f 105 138 139
f 105 139 140
f 105 140 106
f 106 140 141
f 106 141 109
f 107 108 136
f 108 142 136
f 108 134 142
f 109 141 143
f 109 143 144
f 109 144 145
f 109 145 110
f 110 145 111
f 111 145 146
f 111 146 147
f 111 147 112
f 112 147 148
f 112 148 113
f 113 148 114
f 114 148 149
f 114 149 150
f 114 150 151
f 114 151 123
f 115 122 152
f 115 152 117
f 116 153 118
f 116 117 154
f 116 154 153
f 117 152 154
f 118 153 155
f 118 155 156
f 118 156 119
f 119 156 120
f 120 156 126
f 121 124 157
f 121 157 122
f 122 157 158
f 122 158 152
f 123 151 124
f 124 151 143
f 124 143 175
f 124 175 199
f 124 199 218
f 124 218 237
f 124 237 250
f 124 250 238
f 124 238 221
f 124 221 219
f 124 219 200
f 124 200 180
f 124 180 158
f 124 158 157
f 125 126 159
f 125 159 127
f 126 156 160
f 126 160 159
f 127 161 128
f 127 159 161
f 128 162 129
f 128 161 162
f 129 162 130
f 130 162 163
f 130 163 164
f 130 164 131
f 131 165 135
f 131 135 132
f 131 164 165
f 133 135 165
f 133 165 166
f 133 166 167
f 133 167 168
f 133 168 134
f 134 168 142
f 136 169 170
f 136 170 137
f 136 142 169
f 137 171 172
f 137 172 138
f 137 170 171
f 138 172 173
f 138 173 139
f 139 173 174
f 139 174 140
f 140 174 141
f 141 174 175
f 141 175 143
f 142 176 169
f 142 168 176
f 143 151 150
f 143 150 177
f 143 177 144
f 144 177 145
f 145 177 146
f 146 177 178
f 146 178 147
f 147 178 150
f 147 150 148
f 148 150 149
f 150 178 177
f 152 179 154
f 152 158 180
f 152 180 179
f 153 154 181
f 153 181 182
f 153 182 155
f 154 179 181
f 155 183 184
f 155 184 160
f 155 160 156
f 155 182 183
f 159 160 185
f 159 185 186
f 159 186 161
f 160 184 185
f 161 186 187
f 161 187 162
f 162 187 188
f 162 188 163
f 163 189 164
f 163 188 190
f 163 190 191
f 163 191 189
f 164 189 192
f 164 192 166
f 164 166 165
f 166 192 193
f 166 193 167
f 167 193 176
f 167 176 168
f 169 176 194
f 169 194 195
f 169 195 170
f 170 195 171
f 171 195 196
f 171 196 197
f 171 197 172
f 172 197 198
f 172 198 199
f 172 199 173
f 173 199 174
f 174 199 175
f 176 193 194
f 179 180 200
f 179 200 201
f 179 201 181
f 181 201 182
f 182 201 202
f 182 202 203
f 182 203 183
f 183 204 184
f 183 203 205
f 183 205 204
f 184 204 206
f 184 206 185
f 185 206 186
f 186 207 187
f 186 206 208
f 186 208 207
f 187 207 188
f 188 207 190
f 189 191 209
f 189 209 192
f 190 208 210
f 190 210 211
f 190 211 212
f 190 212 191
f 190 207 208
f 191 212 209
f 192 209 213
f 192 213 214
f 192 214 193
f 193 214 194
f 194 214 215
f 194 215 216
f 194 216 195
f 195 216 196
f 196 216 217
f 196 217 218
f 196 218 197
f 197 218 198
f 198 218 199
f 200 219 201
f 201 219 202
f 202 220 203
f 202 219 221
f 202 221 220
f 203 220 205
f 204 205 222
f 204 222 223
f 204 223 208
f 204 208 206
f 205 220 221
f 205 221 224
f 205 224 225
f 205 225 222
f 208 223 222
f 208 222 210
f 209 212 226
f 209 226 213
f 210 227 211
f 210 222 228
f 210 228 229
f 210 229 230
f 210 230 227
f 211 227 231
f 211 231 232
f 211 232 233
f 211 233 212
f 212 233 234
f 212 234 226
f 213 226 234
f 213 234 235
f 213 235 215
f 213 215 214
f 215 235 236
f 215 236 216
f 216 236 217
f 217 236 237
f 217 237 218
f 221 238 239
f 221 239 240
f 221 240 241
f 221 241 224
f 222 225 228
f 224 241 225
f 225 241 242
f 225 242 229
f 225 229 228
f 227 230 243
f 227 243 231
f 229 242 244
f 229 244 230
f 230 244 243
f 231 243 232
f 232 243 245
f 232 245 246
f 232 246 233
f 233 246 234
f 234 246 235
f 235 246 247
f 235 247 248
f 235 248 249
f 235 249 236
f 236 249 250
f 236 250 237
f 238 251 252
f 238 252 239
f 238 250 248
f 238 248 251
f 239 252 253
f 239 253 240
f 240 253 254
f 240 254 242
f 240 242 241
f 242 254 244
f 243 244 255
f 243 255 245
f 244 254 256
f 244 256 255
f 245 255 251
f 245 251 247
f 245 247 246
f 247 251 248
f 248 250 249
f 251 255 256
f 251 256 253
f 251 253 252
f 253 256 254
