v -0.014373 0.016045 0.029004
v -0.014373 0.016468 0.028986
v -0.016392 0.016045 0.028532
v -0.016392 0.014096 0.028590
v -0.014391 0.013929 0.028989
v -0.014373 0.013929 0.028991
v -0.014373 0.017982 0.028822
v -0.018342 0.016045 0.027970
v -0.026105 0.002439 0.026339
v -0.026105 0.002410 0.026336
v -0.014373 0.012226 0.028825
v -0.014373 0.018025 0.028814
v -0.019722 0.017435 0.027278
v -0.026105 0.015966 0.025394
v -0.026105 0.014125 0.025581
v -0.026105 0.014096 0.025584
v -0.026105 0.004387 0.026220
v -0.026105 0.000490 0.025956
v -0.014373 0.012152 0.028809
v -0.014373 0.019941 0.028403
v -0.026105 0.016873 0.025161
v -0.014373 0.020012 0.028384
v -0.026105 0.000458 0.025945
v -0.014373 0.010203 0.028360
v -0.014373 0.010282 0.028382
v -0.025451 0.017189 0.025296
v -0.014373 0.023994 0.026671
v -0.014373 0.025580 0.025610
v -0.026105 0.017936 0.024378
v -0.014373 0.021914 0.027708
v -0.026105 -0.000757 0.025365
v -0.014373 0.007100 0.027236
v -0.014373 0.007132 0.027249
v -0.014373 0.008326 0.027724
v -0.014373 0.022032 0.027664
v -0.014373 0.022163 0.027606
v -0.014373 0.023038 0.027210
v -0.014373 0.026447 0.024879
v -0.026105 0.018050 0.024285
v -0.026105 -0.000768 0.025359
v -0.014373 0.006179 0.026695
v -0.025017 -0.000573 0.025238
v -0.014373 0.027229 0.024040
v -0.026105 0.019084 0.023356
v -0.026105 0.018100 0.024243
v -0.026105 -0.001717 0.024602
v -0.014373 0.006133 0.026666
v -0.026105 -0.002844 0.023620
v -0.026105 -0.002862 0.023604
v -0.014373 0.003644 0.024950
v -0.014373 0.003679 0.024982
v -0.014373 0.004618 0.025689
v -0.014373 0.004675 0.025726
v -0.014373 0.028317 0.022562
v -0.026105 0.019973 0.022255
v -0.026105 -0.003779 0.022314
v -0.024920 -0.002578 0.023359
v -0.014373 0.002762 0.024011
v -0.014373 0.028388 0.022459
v -0.025347 0.021025 0.021450
v -0.026105 0.020834 0.020825
v -0.026105 -0.003801 0.022277
v -0.014373 0.001753 0.022736
v -0.014373 0.001792 0.022791
v -0.016882 0.001198 0.023499
v -0.014373 0.002730 0.023976
v -0.014373 0.028897 0.021572
v -0.014373 0.029604 0.020160
v -0.026105 0.021082 0.020321
v -0.026105 -0.004355 0.020894
v -0.014373 0.001194 0.021765
v -0.014373 0.030159 0.018621
v -0.026105 0.021434 0.018370
v -0.014373 0.030230 0.018370
v -0.023719 0.023269 0.018370
v -0.026105 -0.004526 0.020321
v -0.020719 -0.002766 0.018370
v -0.014373 0.000789 0.020381
v -0.026105 0.021221 0.016422
v -0.022548 0.024321 0.016422
v -0.023715 0.023347 0.016422
v -0.014373 0.030415 0.017180
v -0.014373 0.030529 0.016422
v -0.026105 -0.005532 0.014591
v -0.022238 -0.003765 0.016422
v -0.020123 -0.002923 0.016501
v -0.019363 -0.002428 0.017201
v -0.014373 0.000771 0.020321
v -0.026105 0.021139 0.015715
v -0.021539 0.025022 0.014477
v -0.022513 0.024179 0.014477
v -0.014373 0.030482 0.015285
v -0.026105 -0.005564 0.014379
v -0.019232 -0.002528 0.015902
v -0.026105 -0.005792 0.012529
v -0.014373 0.000455 0.018370
v -0.014373 0.000466 0.018444
v -0.026105 0.020830 0.013358
v -0.021389 0.024915 0.013012
v -0.014373 0.030429 0.014477
v -0.026105 0.020407 0.010579
v -0.026105 0.020713 0.012529
v -0.019232 -0.002528 0.014918
v -0.014373 -0.000121 0.012373
v -0.014373 -0.000110 0.012611
v -0.014373 0.000249 0.016422
v -0.014373 0.000256 0.016494
v -0.026105 -0.005774 0.010523
v -0.021211 0.024776 0.011714
v -0.026105 0.020076 0.008961
v -0.014373 0.030045 0.012648
v -0.014373 -0.000004 0.010975
v -0.026105 -0.005287 0.009066
v -0.024722 -0.004679 0.009130
v -0.014373 0.000053 0.010724
v -0.023085 0.022789 0.010061
v -0.014373 0.030006 0.012463
v -0.026105 0.020023 0.008797
v -0.026105 -0.005102 0.008538
v -0.014373 0.000928 0.008649
v -0.014373 0.000906 0.008699
v -0.015658 -0.000409 0.010228
v -0.014373 0.029302 0.010726
v -0.026105 0.019447 0.007475
v -0.026105 -0.005045 0.008443
v -0.025356 -0.004302 0.007831
v -0.014373 0.001024 0.008496
v -0.014373 0.029231 0.010608
v -0.026105 0.019333 0.007232
v -0.026105 -0.003826 0.006730
v -0.022827 -0.002688 0.007377
v -0.015147 0.001308 0.007512
v -0.014373 0.002275 0.006939
v -0.014373 0.028026 0.008684
v -0.026105 0.018508 0.006258
v -0.014373 0.027862 0.008472
v -0.014373 0.027613 0.008171
v -0.026105 -0.003609 0.006480
v -0.024186 -0.002169 0.005999
v -0.014373 0.002467 0.006722
v -0.026105 0.018498 0.006247
v -0.014373 0.026412 0.006788
v -0.014373 0.026035 0.006411
v -0.026105 -0.003314 0.006181
v -0.025197 -0.002443 0.005727
v -0.017611 0.001582 0.005841
v -0.014373 0.002663 0.006532
v -0.026105 0.017538 0.005305
v -0.014373 0.025658 0.006097
v -0.026105 -0.001977 0.005065
v -0.024186 -0.001195 0.005236
v -0.014373 0.004305 0.005099
v -0.018910 0.001223 0.005545
v -0.015153 0.003253 0.005601
v -0.014373 0.004156 0.005223
v -0.026105 0.015981 0.004233
v -0.014373 0.023912 0.004777
v -0.026105 -0.001660 0.004872
v -0.014373 0.005941 0.004043
v -0.026105 0.015821 0.004141
v -0.014373 0.023816 0.004714
v -0.014842 0.022369 0.004028
v -0.026105 0.000437 0.004144
v -0.014373 0.006908 0.003642
v -0.025618 0.015238 0.003677
v -0.026105 0.014409 0.003563
v -0.014373 0.021872 0.003595
v -0.026105 0.000462 0.004136
v -0.014373 0.008248 0.003212
v -0.014373 0.017996 0.002352
v -0.014373 0.021744 0.003529
v -0.014373 0.020819 0.003188
v -0.014373 0.019941 0.002869
v -0.026105 0.014217 0.003526
v -0.014373 0.012152 0.002257
v -0.014373 0.012081 0.002270
v -0.014373 0.010203 0.002655
v -0.026105 0.012152 0.003421
v -0.014373 0.014100 0.002040
v -0.014444 0.012152 0.002259
v -0.014373 0.016045 0.002069
v -0.014444 0.016045 0.002077
v -0.014444 0.014096 0.002048
f 1 2 3
f 1 3 4
f 1 4 5
f 1 5 6
f 1 6 11
f 1 11 19
f 1 19 25
f 1 25 24
f 1 24 34
f 1 34 33
f 1 33 32
f 1 32 41
f 1 41 47
f 1 47 53
f 1 53 52
f 1 52 51
f 1 51 50
f 1 50 58
f 1 58 66
f 1 66 64
f 1 64 63
f 1 63 71
f 1 71 78
f 1 78 88
f 1 88 97
f 1 97 96
f 1 96 107
f 1 107 106
f 1 106 105
f 1 105 104
f 1 104 112
f 1 112 115
f 1 115 121
f 1 121 120
f 1 120 127
f 1 127 133
f 1 133 140
f 1 140 147
f 1 147 155
f 1 155 152
f 1 152 159
f 1 159 164
f 1 164 169
f 1 169 177
f 1 177 176
f 1 176 175
f 1 175 179
f 1 179 181
f 1 181 170
f 1 170 173
f 1 173 172
f 1 172 171
f 1 171 167
f 1 167 161
f 1 161 157
f 1 157 149
f 1 149 143
f 1 143 142
f 1 142 137
f 1 137 136
f 1 136 134
f 1 134 128
f 1 128 123
f 1 123 117
f 1 117 111
f 1 111 100
f 1 100 92
f 1 92 83
f 1 83 82
f 1 82 74
f 1 74 72
f 1 72 68
f 1 68 67
f 1 67 59
f 1 59 54
f 1 54 43
f 1 43 38
f 1 38 28
f 1 28 27
f 1 27 37
f 1 37 36
f 1 36 35
f 1 35 30
f 1 30 22
f 1 22 20
f 1 20 12
f 1 12 7
f 1 7 2
f 2 7 3
f 3 8 9
f 3 9 4
f 3 7 8
f 4 9 5
f 5 9 6
f 6 9 10
f 6 10 11
f 7 12 8
f 8 12 13
f 8 13 14
f 8 14 15
f 8 15 16
f 8 16 17
f 8 17 9
f 9 17 16
f 9 16 15
f 9 15 14
f 9 14 21
f 9 21 29
f 9 29 39
f 9 39 45
f 9 45 44
f 9 44 55
f 9 55 61
f 9 61 69
f 9 69 73
f 9 73 79
f 9 79 89
f 9 89 98
f 9 98 102
f 9 102 101
f 9 101 110
f 9 110 118
f 9 118 124
f 9 124 129
f 9 129 135
f 9 135 141
f 9 141 148
f 9 148 156
f 9 156 160
f 9 160 166
f 9 166 174
f 9 174 178
f 9 178 168
f 9 168 163
f 9 163 158
f 9 158 150
f 9 150 144
f 9 144 138
f 9 138 130
f 9 130 125
f 9 125 119
f 9 119 113
f 9 113 108
f 9 108 95
f 9 95 93
f 9 93 84
f 9 84 76
f 9 76 70
f 9 70 62
f 9 62 56
f 9 56 49
f 9 49 48
f 9 48 46
f 9 46 40
f 9 40 31
f 9 31 23
f 9 23 18
f 9 18 10
f 10 18 11
f 11 18 19
f 12 20 13
f 13 21 14
f 13 20 22
f 13 22 21
f 18 23 24
f 18 24 25
f 18 25 19
f 21 22 26
f 21 26 27
f 21 27 28
f 21 28 29
f 22 30 26
f 23 31 32
f 23 32 33
f 23 33 34
f 23 34 24
f 26 30 35
f 26 35 36
f 26 36 37
f 26 37 27
f 28 38 39
f 28 39 29
f 31 40 32
f 32 40 42
f 32 42 41
f 38 43 44
f 38 44 45
f 38 45 39
f 40 46 42
f 41 42 47
f 42 46 48
f 42 48 49
f 42 49 50
f 42 50 51
f 42 51 52
f 42 52 53
f 42 53 47
f 43 54 55
f 43 55 44
f 49 56 57
f 49 57 50
f 50 57 58
f 54 59 55
f 55 60 61
f 55 59 60
f 56 62 63
f 56 63 57
f 57 63 64
f 57 64 65
f 57 65 66
f 57 66 58
f 59 67 60
f 60 67 61
f 61 67 68
f 61 68 69
f 62 70 71
f 62 71 63
f 64 66 65
f 68 72 69
f 69 72 74
f 69 74 75
f 69 75 73
f 70 76 77
f 70 77 71
f 71 77 78
f 73 75 80
f 73 80 81
f 73 81 79
f 74 82 75
f 75 82 83
f 75 83 80
f 76 84 85
f 76 85 86
f 76 86 77
f 77 86 87
f 77 87 88
f 77 88 78
f 79 81 89
f 80 83 90
f 80 90 81
f 81 90 91
f 81 91 89
f 83 92 90
f 84 93 85
f 85 93 86
f 86 94 87
f 86 93 95
f 86 95 94
f 87 94 96
f 87 96 97
f 87 97 88
f 89 91 98
f 90 99 91
f 90 92 100
f 90 100 99
f 91 99 101
f 91 101 102
f 91 102 98
f 94 95 103
f 94 103 104
f 94 104 105
f 94 105 106
f 94 106 107
f 94 107 96
f 95 108 103
f 99 100 109
f 99 109 110
f 99 110 101
f 100 111 109
f 103 108 104
f 104 108 112
f 108 113 114
f 108 114 115
f 108 115 112
f 109 116 110
f 109 111 117
f 109 117 116
f 110 116 118
f 113 119 114
f 114 119 120
f 114 120 121
f 114 121 122
f 114 122 115
f 115 122 121
f 116 117 123
f 116 123 124
f 116 124 118
f 119 125 126
f 119 126 120
f 120 126 127
f 123 128 129
f 123 129 124
f 125 130 126
f 126 130 131
f 126 131 127
f 127 131 132
f 127 132 133
f 128 134 129
f 129 134 136
f 129 136 137
f 129 137 135
f 130 138 131
f 131 138 139
f 131 139 132
f 132 140 133
f 132 139 140
f 135 137 142
f 135 142 143
f 135 143 141
f 138 144 145
f 138 145 139
f 139 145 146
f 139 146 140
f 140 146 147
f 141 143 148
f 143 149 148
f 144 150 145
f 145 150 151
f 145 151 152
f 145 152 153
f 145 153 146
f 146 153 152
f 146 152 154
f 146 154 147
f 147 154 155
f 148 149 157
f 148 157 156
f 150 158 159
f 150 159 152
f 150 152 151
f 152 155 154
f 156 157 161
f 156 161 162
f 156 162 160
f 158 163 164
f 158 164 159
f 160 165 166
f 160 162 167
f 160 167 165
f 161 167 162
f 163 168 169
f 163 169 164
f 165 170 166
f 165 167 171
f 165 171 172
f 165 172 173
f 165 173 170
f 166 170 174
f 168 175 176
f 168 176 177
f 168 177 169
f 168 178 179
f 168 179 180
f 168 180 175
f 170 181 182
f 170 182 174
f 174 182 178
f 175 180 179
f 178 182 183
f 178 183 179
f 179 183 182
f 179 182 181
