v -0.041723 -0.001486 0.029449
v -0.043641 -0.001486 0.029045
v -0.041723 -0.003456 0.029048
v -0.040079 -0.003285 0.029051
v -0.040284 -0.001486 0.029258
v -0.041723 0.000460 0.029443
v -0.043770 0.000547 0.029306
v -0.044688 0.001598 0.029111
v -0.044970 0.000251 0.028740
v -0.046992 -0.001917 0.026859
v -0.045668 -0.003435 0.027179
v -0.043179 -0.002958 0.028784
v -0.039780 -0.005384 0.028440
v -0.041723 -0.005384 0.028159
v -0.026106 0.000474 0.025949
v -0.026106 0.002426 0.026335
v -0.026106 0.004383 0.026218
v -0.026106 0.014125 0.025580
v -0.026106 0.016423 0.025275
v -0.043660 0.003338 0.029048
v -0.047394 0.000460 0.027015
v -0.045620 0.004355 0.028311
v -0.045451 0.002520 0.028596
v -0.047501 0.002409 0.027075
v -0.048982 -0.001486 0.025559
v -0.048749 -0.002916 0.025380
v -0.047693 -0.003515 0.025886
v -0.047006 -0.005384 0.025472
v -0.044784 -0.004545 0.027215
v -0.043779 -0.005558 0.027143
v -0.039780 -0.007588 0.027284
v -0.037919 -0.007212 0.027200
v -0.042236 -0.006547 0.027272
v -0.026106 -0.001239 0.024981
v -0.026106 0.018003 0.024319
v -0.045637 0.007115 0.027290
v -0.049132 0.000460 0.025664
v -0.046983 0.004355 0.027479
v -0.046817 0.005911 0.027329
v -0.049092 0.002409 0.025673
v -0.050106 0.000460 0.024676
v -0.054873 -0.007149 0.017548
v -0.054873 -0.008639 0.017135
v -0.048425 -0.004215 0.025011
v -0.046113 -0.006550 0.025332
v -0.041723 -0.007668 0.026634
v -0.039780 -0.009130 0.025984
v -0.037832 -0.009662 0.025508
v -0.036424 -0.008841 0.025550
v -0.044359 -0.008134 0.025047
v -0.035883 -0.010665 0.023679
v -0.026106 -0.002861 0.023604
v -0.026106 0.019085 0.023355
v -0.046882 0.009391 0.025356
v -0.050492 0.002409 0.024275
v -0.047958 0.004355 0.026541
v -0.048183 0.008650 0.024942
v -0.048628 0.006826 0.025290
v -0.054873 -0.004963 0.017408
v -0.054873 -0.010661 0.015273
v -0.043058 -0.008489 0.025365
v -0.041723 -0.008795 0.025661
v -0.039780 -0.010477 0.024520
v -0.037832 -0.010999 0.024125
v -0.035883 -0.011643 0.022678
v -0.043669 -0.009293 0.024215
v -0.035359 -0.012349 0.021546
v -0.034554 -0.012523 0.020319
v -0.026106 -0.003790 0.022295
v -0.026106 0.019959 0.022268
v -0.047363 0.011302 0.023026
v -0.048816 0.009666 0.023643
v -0.048921 0.004355 0.025568
v -0.049895 0.004355 0.024520
v -0.050655 0.004933 0.023442
v -0.051587 0.004355 0.022268
v -0.049008 0.008100 0.024263
v -0.054873 -0.003292 0.016333
v -0.052302 0.004355 0.020639
v -0.052294 0.005998 0.019995
v -0.052680 0.006314 0.018363
v -0.054873 -0.011082 0.012886
v -0.041723 -0.013456 0.016422
v -0.041723 -0.013063 0.018369
v -0.042044 -0.012304 0.020711
v -0.041394 -0.011952 0.021786
v -0.043472 -0.010414 0.023023
v -0.041723 -0.010174 0.024161
v -0.039780 -0.012092 0.022109
v -0.037832 -0.012224 0.022346
v -0.035883 -0.013018 0.020319
v -0.035883 -0.013613 0.018369
v -0.034191 -0.012854 0.018369
v -0.026106 -0.004441 0.020606
v -0.026106 0.020958 0.020570
v -0.048484 0.013112 0.019315
v -0.048842 0.011473 0.021726
v -0.050734 0.008236 0.021214
v -0.050982 0.006217 0.022292
v -0.049236 0.010269 0.022331
v -0.054873 -0.002384 0.014844
v -0.052947 0.006301 0.016422
v -0.052328 0.006976 0.019007
v -0.052536 0.007456 0.017707
v -0.054873 -0.010598 0.011131
v -0.041723 -0.013188 0.010580
v -0.041723 -0.013564 0.012529
v -0.041723 -0.013637 0.014473
v -0.039780 -0.013407 0.018369
v -0.039780 -0.013766 0.016422
v -0.039780 -0.012850 0.020319
v -0.037832 -0.013084 0.020319
v -0.037832 -0.013623 0.018369
v -0.036063 -0.013992 0.016237
v -0.033934 -0.013212 0.014473
v -0.033791 -0.012899 0.016351
v -0.033047 -0.012081 0.016950
v -0.035728 -0.014083 0.014473
v -0.026106 -0.005548 0.014482
v -0.032901 -0.012280 0.015060
v -0.026106 0.021435 0.018369
v -0.048833 0.013314 0.018016
v -0.049191 0.011877 0.020319
v -0.050407 0.010972 0.018944
v -0.050190 0.010276 0.020414
v -0.054873 -0.002412 0.012401
v -0.052657 0.007679 0.016422
v -0.050542 0.011281 0.017644
v -0.043120 -0.010431 0.005474
v -0.041698 -0.011695 0.006828
v -0.042013 -0.012332 0.008166
v -0.054873 -0.009182 0.010239
v -0.045373 -0.005109 0.001949
v -0.045468 -0.007219 0.003360
v -0.044193 -0.008458 0.003623
v -0.039780 -0.012861 0.008633
v -0.039780 -0.013477 0.010580
v -0.039780 -0.013842 0.012529
v -0.039780 -0.013936 0.014473
v -0.037651 -0.013996 0.016237
v -0.037398 -0.014124 0.014719
v -0.034357 -0.012624 0.008633
v -0.033560 -0.012475 0.010580
v -0.033329 -0.012614 0.012775
v -0.035883 -0.013693 0.010580
v -0.036398 -0.014097 0.013027
v -0.026106 -0.005788 0.012529
v -0.026106 -0.005774 0.010526
v -0.026106 0.021177 0.016069
v -0.047569 0.014056 0.012529
v -0.047569 0.014150 0.014473
v -0.049070 0.013495 0.016422
v -0.049622 0.012197 0.018480
v -0.054873 -0.003574 0.010828
v -0.052452 0.008298 0.014473
v -0.052392 0.008191 0.012529
v -0.052266 0.007836 0.010816
v -0.050331 0.011925 0.016422
v -0.041723 -0.010250 0.004695
v -0.037832 -0.011215 0.004737
v -0.037832 -0.012276 0.006495
v -0.054873 -0.007208 0.009625
v -0.046724 -0.002728 0.001743
v -0.046367 -0.004027 0.001931
v -0.042959 -0.002812 -0.000267
v -0.041996 -0.003780 -0.000219
v -0.044277 -0.006098 0.001964
v -0.042979 -0.006505 0.001701
v -0.041723 -0.006843 0.001449
v -0.039569 -0.008099 0.001653
v -0.041723 -0.008889 0.003183
v -0.040163 -0.010108 0.003944
v -0.037832 -0.013139 0.008633
v -0.037832 -0.013686 0.010580
v -0.037713 -0.014023 0.012658
v -0.035883 -0.013157 0.008633
v -0.034706 -0.012363 0.007370
v -0.026106 -0.005179 0.008780
v -0.026106 0.020770 0.012946
v -0.047569 0.013767 0.010580
v -0.048718 0.013259 0.010005
v -0.049019 0.013499 0.012529
v -0.049135 0.013575 0.014473
v -0.054873 -0.005329 0.009864
v -0.052339 0.006464 0.009433
v -0.050385 0.012005 0.014473
v -0.050272 0.011821 0.012266
v -0.050348 0.010895 0.010167
v -0.050410 0.009910 0.008849
v -0.051134 0.008351 0.008550
v -0.036505 -0.010431 0.003569
v -0.035883 -0.012255 0.006501
v -0.038347 -0.010334 0.003671
v -0.050216 0.002409 0.004201
v -0.049199 0.000460 0.003093
v -0.047420 -0.001486 0.001970
v -0.044424 0.000717 -0.000231
v -0.043765 -0.001486 -0.000168
v -0.041723 -0.001486 -0.000911
v -0.039780 -0.005283 -0.000066
v -0.041346 -0.004928 0.000108
v -0.039780 -0.003435 -0.000662
v -0.037832 -0.007330 0.001024
v -0.037280 -0.008444 0.001710
v -0.037832 -0.009443 0.002629
v -0.035863 -0.010971 0.004665
v -0.034591 -0.010644 0.005267
v -0.026106 -0.003515 0.006396
v -0.026106 0.020405 0.010580
v -0.026106 0.020049 0.008882
v -0.047386 0.013311 0.008720
v -0.047915 0.012844 0.008130
v -0.048811 0.011543 0.007145
v -0.049061 0.012173 0.008720
v -0.049836 0.011978 0.010721
v -0.051520 0.004355 0.006684
v -0.050407 0.004355 0.004782
v -0.050771 0.007773 0.007226
v -0.050666 0.006133 0.005905
v -0.035202 -0.009944 0.003968
v -0.049242 0.002409 0.003132
v -0.047606 0.002409 0.001791
v -0.047603 0.000460 0.001800
v -0.045274 0.002409 0.000108
v -0.043672 0.002409 -0.000698
v -0.039780 -0.001486 -0.000917
v -0.041723 0.000460 -0.001144
v -0.038175 -0.005081 -0.000021
v -0.038260 -0.003435 -0.000387
v -0.036424 -0.007330 0.001491
v -0.026106 -0.001817 0.004971
v -0.026106 0.019388 0.007358
v -0.046617 0.013130 0.007642
v -0.047135 0.011518 0.005192
v -0.048777 0.010175 0.005794
v -0.048439 0.007745 0.003896
v -0.047268 0.008159 0.002728
v -0.046741 0.006875 0.001680
v -0.049044 0.004355 0.003306
v -0.047000 0.004355 0.001470
v -0.044663 0.004543 -0.000093
v -0.041723 0.002409 -0.001021
v -0.039780 0.000460 -0.000890
v -0.026106 0.012145 0.003423
v -0.038265 -0.001486 -0.000423
v -0.026106 0.000460 0.004138
v -0.026106 0.018511 0.006259
v -0.045620 0.010975 0.003992
v -0.045620 0.010001 0.003000
v -0.047003 0.009736 0.003339
v -0.045620 0.008326 0.001755
v -0.043331 0.005841 0.000003
v -0.026106 0.014313 0.003545
v -0.026106 0.017526 0.005300
v -0.026106 0.015900 0.004186
v -0.043672 0.007992 0.001275
f 1 2 3
f 1 3 4
f 1 4 5
f 1 5 6
f 1 6 7
f 1 7 2
f 2 7 8
f 2 8 9
f 2 9 10
f 2 10 11
f 2 11 12
f 2 12 3
f 3 13 4
f 3 12 14
f 3 14 13
f 4 13 15
f 4 15 16
f 4 16 5
f 5 16 6
f 6 16 17
f 6 17 18
f 6 18 19
f 6 19 20
f 6 20 7
f 7 20 8
f 8 21 9
f 8 20 22
f 8 22 23
f 8 23 24
f 8 24 21
f 9 25 10
f 9 21 25
f 10 26 27
f 10 27 11
f 10 25 26
f 11 27 28
f 11 28 29
f 11 29 12
f 12 29 30
f 12 30 14
f 13 14 31
f 13 31 32
f 13 32 15
f 14 30 33
f 14 33 31
f 15 34 52
f 15 52 69
f 15 69 94
f 15 94 119
f 15 119 147
f 15 147 148
f 15 148 178
f 15 178 208
f 15 208 231
f 15 231 246
f 15 246 244
f 15 244 253
f 15 253 255
f 15 255 254
f 15 254 247
f 15 247 232
f 15 232 210
f 15 210 209
f 15 209 179
f 15 179 149
f 15 149 121
f 15 121 95
f 15 95 70
f 15 70 53
f 15 53 35
f 15 35 19
f 15 19 18
f 15 18 17
f 15 17 16
f 15 32 34
f 19 35 36
f 19 36 20
f 20 36 22
f 21 24 37
f 21 37 25
f 22 38 23
f 22 36 39
f 22 39 38
f 23 38 24
f 24 38 40
f 24 40 37
f 25 37 41
f 25 41 42
f 25 42 43
f 25 43 26
f 26 43 44
f 26 44 27
f 27 44 28
f 28 43 45
f 28 45 29
f 28 44 43
f 29 45 30
f 30 45 33
f 31 33 46
f 31 46 47
f 31 47 48
f 31 48 32
f 32 48 49
f 32 49 34
f 33 45 50
f 33 50 46
f 34 49 51
f 34 51 52
f 35 53 54
f 35 54 36
f 36 54 39
f 37 40 55
f 37 55 41
f 38 56 40
f 38 39 56
f 39 54 57
f 39 57 58
f 39 58 56
f 40 56 55
f 41 55 42
f 42 59 78
f 42 78 101
f 42 101 126
f 42 126 154
f 42 154 184
f 42 184 162
f 42 162 132
f 42 132 105
f 42 105 82
f 42 82 60
f 42 60 43
f 42 55 59
f 43 60 45
f 45 60 50
f 46 50 61
f 46 61 62
f 46 62 47
f 47 62 63
f 47 63 64
f 47 64 48
f 48 64 65
f 48 65 51
f 48 51 49
f 50 66 61
f 50 60 66
f 51 65 67
f 51 67 52
f 52 67 68
f 52 68 69
f 53 70 71
f 53 71 54
f 54 71 72
f 54 72 57
f 55 56 73
f 55 73 74
f 55 74 75
f 55 75 76
f 55 76 59
f 56 58 73
f 57 72 77
f 57 77 58
f 58 75 74
f 58 74 73
f 58 77 75
f 59 76 79
f 59 79 80
f 59 80 81
f 59 81 78
f 60 82 83
f 60 83 84
f 60 84 85
f 60 85 86
f 60 86 87
f 60 87 66
f 61 66 62
f 62 66 88
f 62 88 63
f 63 88 86
f 63 86 89
f 63 89 90
f 63 90 64
f 64 90 67
f 64 67 65
f 66 87 88
f 67 90 91
f 67 91 68
f 68 91 92
f 68 92 93
f 68 93 94
f 68 94 69
f 70 95 96
f 70 96 71
f 71 97 72
f 71 96 97
f 72 98 99
f 72 99 77
f 72 97 100
f 72 100 98
f 75 77 99
f 75 99 76
f 76 99 80
f 76 80 79
f 78 81 102
f 78 102 101
f 80 99 98
f 80 98 103
f 80 103 81
f 81 103 104
f 81 104 102
f 82 105 106
f 82 106 107
f 82 107 108
f 82 108 83
f 83 109 84
f 83 108 110
f 83 110 109
f 84 109 111
f 84 111 85
f 85 89 86
f 85 111 89
f 86 88 87
f 89 111 112
f 89 112 90
f 90 112 91
f 91 112 92
f 92 113 114
f 92 114 93
f 92 112 113
f 93 115 116
f 93 116 117
f 93 117 94
f 93 114 118
f 93 118 115
f 94 117 120
f 94 120 119
f 95 121 122
f 95 122 96
f 96 122 123
f 96 123 97
f 97 123 124
f 97 124 125
f 97 125 100
f 98 100 125
f 98 125 103
f 101 102 127
f 101 127 126
f 102 104 127
f 103 125 124
f 103 124 104
f 104 124 128
f 104 128 127
f 105 129 130
f 105 130 131
f 105 131 106
f 105 132 133
f 105 133 134
f 105 134 135
f 105 135 129
f 106 136 137
f 106 137 107
f 106 131 136
f 107 137 138
f 107 138 139
f 107 139 108
f 108 139 110
f 109 112 111
f 109 110 113
f 109 113 112
f 110 139 140
f 110 140 113
f 113 140 114
f 114 140 141
f 114 141 118
f 115 142 143
f 115 143 144
f 115 144 120
f 115 120 116
f 115 118 145
f 115 145 142
f 116 120 117
f 118 141 146
f 118 146 145
f 119 120 147
f 120 144 148
f 120 148 147
f 121 149 150
f 121 150 151
f 121 151 152
f 121 152 122
f 122 152 153
f 122 153 123
f 123 153 124
f 124 153 128
f 126 127 155
f 126 155 156
f 126 156 157
f 126 157 154
f 127 128 158
f 127 158 155
f 128 153 158
f 129 135 159
f 129 159 130
f 130 160 161
f 130 161 131
f 130 159 160
f 131 161 136
f 132 162 163
f 132 163 164
f 132 164 133
f 133 164 165
f 133 165 166
f 133 166 167
f 133 167 134
f 134 167 135
f 135 167 168
f 135 168 169
f 135 169 170
f 135 170 171
f 135 171 172
f 135 172 159
f 136 173 137
f 136 161 173
f 137 174 138
f 137 173 174
f 138 175 139
f 138 174 175
f 139 175 141
f 139 141 140
f 141 175 146
f 142 145 176
f 142 176 177
f 142 177 178
f 142 178 148
f 142 148 143
f 143 148 144
f 145 146 174
f 145 174 176
f 146 175 174
f 149 179 150
f 150 180 181
f 150 181 182
f 150 182 183
f 150 183 151
f 150 179 180
f 151 183 152
f 152 183 158
f 152 158 153
f 154 157 185
f 154 185 184
f 155 158 186
f 155 186 156
f 156 186 187
f 156 187 157
f 157 187 188
f 157 188 189
f 157 189 190
f 157 190 185
f 158 183 186
f 159 172 160
f 160 191 192
f 160 192 161
f 160 172 193
f 160 193 191
f 161 192 176
f 161 176 173
f 162 184 194
f 162 194 195
f 162 195 196
f 162 196 163
f 163 165 164
f 163 196 197
f 163 197 198
f 163 198 165
f 165 198 199
f 165 199 166
f 166 200 201
f 166 201 167
f 166 199 202
f 166 202 200
f 167 201 168
f 168 201 169
f 169 201 170
f 170 203 204
f 170 204 205
f 170 205 193
f 170 193 172
f 170 172 171
f 170 201 200
f 170 200 203
f 173 176 174
f 176 192 177
f 177 192 206
f 177 206 207
f 177 207 208
f 177 208 178
f 179 209 180
f 180 209 210
f 180 210 181
f 181 210 211
f 181 211 212
f 181 212 213
f 181 213 214
f 181 214 215
f 181 215 187
f 181 187 182
f 182 187 186
f 182 186 183
f 184 185 216
f 184 216 217
f 184 217 194
f 185 190 218
f 185 218 219
f 185 219 216
f 187 215 188
f 188 215 214
f 188 214 189
f 189 214 213
f 189 213 190
f 190 213 218
f 191 220 206
f 191 206 192
f 191 193 205
f 191 205 204
f 191 204 220
f 194 217 221
f 194 221 195
f 195 221 222
f 195 222 223
f 195 223 196
f 196 223 197
f 197 224 225
f 197 225 199
f 197 199 198
f 197 223 224
f 199 226 202
f 199 225 227
f 199 227 226
f 200 202 228
f 200 228 203
f 202 226 229
f 202 229 228
f 203 228 230
f 203 230 204
f 204 230 220
f 206 220 207
f 207 220 208
f 208 220 231
f 210 232 233
f 210 233 211
f 211 233 212
f 212 233 234
f 212 234 213
f 213 234 235
f 213 235 218
f 216 219 217
f 217 219 236
f 217 236 237
f 217 237 238
f 217 238 239
f 217 239 221
f 218 235 219
f 219 235 236
f 220 230 231
f 221 239 238
f 221 238 240
f 221 240 222
f 222 240 224
f 222 224 223
f 224 240 241
f 224 241 225
f 225 242 227
f 225 241 242
f 226 227 243
f 226 243 244
f 226 244 245
f 226 245 229
f 227 242 243
f 228 229 246
f 228 246 230
f 229 245 244
f 229 244 246
f 230 246 231
f 232 247 234
f 232 234 233
f 234 248 249
f 234 249 250
f 234 250 235
f 234 247 248
f 235 250 236
f 236 250 237
f 237 250 238
f 238 241 240
f 238 250 251
f 238 251 241
f 241 251 252
f 241 252 242
f 242 252 253
f 242 253 243
f 243 253 244
f 247 254 249
f 247 249 248
f 249 251 250
f 249 254 251
f 251 254 255
f 251 255 256
f 251 256 252
f 252 255 253
f 252 256 255
