v -0.078903 0.026140 0.020327
v -0.077762 0.026144 0.020323
v -0.077762 0.026227 0.021481
v -0.079537 0.026345 0.021155
v -0.081395 0.027170 0.021071
v -0.081402 0.027516 0.019299
v -0.079537 0.026659 0.019374
v -0.077762 0.026659 0.019160
v -0.076719 0.026258 0.020160
v -0.076682 0.026577 0.022318
v -0.076682 0.029412 0.031677
v -0.081395 0.027644 0.022439
v -0.076682 0.029731 0.032537
v -0.082395 0.027899 0.021071
v -0.082402 0.027894 0.019923
v -0.082326 0.027972 0.022016
v -0.082011 0.028359 0.018713
v -0.080800 0.027826 0.018202
v -0.079577 0.027625 0.018043
v -0.077762 0.027566 0.017988
v -0.076682 0.027616 0.017922
v -0.076682 0.030177 0.033500
v -0.082961 0.028915 0.021071
v -0.090181 0.045260 0.022890
v -0.089916 0.045187 0.021146
v -0.089795 0.045693 0.019262
v -0.089650 0.045958 0.018029
v -0.082685 0.028942 0.019299
v -0.076682 0.031139 0.035328
v -0.076682 0.031749 0.036356
v -0.076682 0.032524 0.037417
v -0.076767 0.033390 0.038389
v -0.087288 0.045219 0.035710
v -0.088005 0.045798 0.035179
v -0.088295 0.045219 0.033756
v -0.089491 0.046322 0.032682
v -0.089707 0.045939 0.031472
v -0.089870 0.045639 0.030151
v -0.082419 0.029571 0.018225
v -0.084147 0.046135 0.007419
v -0.082289 0.046190 0.005642
v -0.078758 0.042440 0.005559
v -0.076682 0.039733 0.005940
v -0.076682 0.038380 0.006959
v -0.076682 0.037491 0.007675
v -0.076682 0.036447 0.008633
v -0.076682 0.035513 0.009522
v -0.089937 0.045156 0.028267
v -0.089601 0.044303 0.027621
v -0.090179 0.045260 0.026518
v -0.090256 0.045260 0.024700
v -0.090790 0.047078 0.022890
v -0.090555 0.047078 0.021071
v -0.089489 0.046641 0.016815
v -0.088585 0.045260 0.015625
v -0.089188 0.045315 0.017434
v -0.090149 0.047078 0.019262
v -0.087997 0.045365 0.013955
v -0.087815 0.046040 0.012750
v -0.076682 0.034215 0.039366
v -0.086014 0.044249 0.036626
v -0.087677 0.046290 0.036389
v -0.089295 0.046987 0.033924
v -0.088408 0.046969 0.035710
v -0.089764 0.047534 0.033412
v -0.089978 0.046987 0.032035
v -0.089539 0.048090 0.034621
v -0.090471 0.047078 0.030151
v -0.090739 0.047078 0.028337
v -0.086299 0.045598 0.010554
v -0.085874 0.046281 0.009345
v -0.085431 0.046965 0.008331
v -0.084442 0.047078 0.007108
v -0.083283 0.046910 0.006094
v -0.082726 0.047397 0.005252
v -0.082384 0.049649 0.003745
v -0.077820 0.043374 0.004284
v -0.076682 0.040758 0.005224
v -0.090859 0.047078 0.026518
v -0.090864 0.047078 0.024700
v -0.094759 0.072692 0.024318
v -0.094664 0.072692 0.022560
v -0.094520 0.072692 0.020639
v -0.094358 0.072692 0.019057
v -0.093855 0.072692 0.015685
v -0.093441 0.072692 0.014345
v -0.089257 0.047179 0.015759
v -0.088551 0.047078 0.013806
v -0.087971 0.047078 0.012420
v -0.087527 0.047078 0.011508
v -0.086614 0.046965 0.010038
v -0.086353 0.045374 0.037305
v -0.076682 0.036179 0.041185
v -0.076776 0.035190 0.040226
v -0.086017 0.046053 0.038436
v -0.087320 0.046969 0.037491
v -0.087626 0.048236 0.038142
v -0.088013 0.047502 0.036928
v -0.090448 0.048897 0.031970
v -0.089914 0.048774 0.033924
v -0.089489 0.049038 0.035347
v -0.088314 0.048865 0.037491
v -0.090781 0.048897 0.030151
v -0.090997 0.048897 0.028337
v -0.086152 0.047493 0.008922
v -0.084754 0.048938 0.006466
v -0.083936 0.048364 0.005815
v -0.082559 0.050701 0.003563
v -0.080701 0.051330 0.001838
v -0.076967 0.043807 0.003484
v -0.084212 0.049567 0.005522
v -0.076682 0.042476 0.004098
v -0.094478 0.072692 0.026639
v -0.092976 0.072692 0.013531
v -0.086322 0.048897 0.008610
v -0.087166 0.048897 0.010173
v -0.076682 0.038092 0.042664
v -0.076711 0.037035 0.041868
v -0.085522 0.046769 0.039645
v -0.078949 0.038521 0.040473
v -0.085938 0.047981 0.040152
v -0.086277 0.047256 0.039119
v -0.087153 0.048865 0.039194
v -0.087911 0.049439 0.038561
v -0.089433 0.050701 0.036073
v -0.088120 0.050701 0.038933
v -0.088893 0.050701 0.037417
v -0.085746 0.048897 0.007698
v -0.083467 0.050701 0.004503
v -0.082648 0.052519 0.003442
v -0.081728 0.052519 0.002531
v -0.080821 0.052519 0.001721
v -0.079577 0.052519 0.001005
v -0.078190 0.052519 0.000377
v -0.076682 0.051658 0.000061
v -0.084290 0.050701 0.005410
v -0.093706 0.072692 0.027788
v -0.088166 0.052519 0.039161
v -0.087711 0.052519 0.040068
v -0.086169 0.054337 0.042250
v -0.092011 0.072692 0.012764
v -0.080726 0.054337 0.001777
v -0.076682 0.039291 0.043496
v -0.080482 0.042544 0.041957
v -0.084311 0.045907 0.040347
v -0.083736 0.046741 0.041561
v -0.084143 0.047953 0.041985
v -0.085355 0.048897 0.041361
v -0.085739 0.050191 0.041761
v -0.086189 0.048897 0.040454
v -0.087532 0.050701 0.039845
v -0.079577 0.054337 0.000912
v -0.078570 0.054337 0.000223
v -0.077663 0.054337 -0.000158
v -0.076831 0.052911 -0.000214
v -0.076682 0.054337 -0.000493
v -0.086033 0.055563 0.042110
v -0.086093 0.067051 0.038477
v -0.085934 0.067962 0.038329
v -0.085030 0.068691 0.038896
v -0.084425 0.070195 0.038668
v -0.082207 0.071435 0.040064
v -0.081673 0.072692 0.039533
v -0.087031 0.052519 0.041054
v -0.086162 0.052519 0.042208
v -0.085320 0.054337 0.043157
v -0.084301 0.056151 0.043929
v -0.076682 0.072460 0.005549
v -0.077413 0.071963 0.005382
v -0.078625 0.071558 0.005670
v -0.079128 0.070346 0.005326
v -0.076726 0.058826 0.000116
v -0.076884 0.057969 -0.000028
v -0.078397 0.056151 0.000349
v -0.076682 0.072692 0.041189
v -0.082526 0.045848 0.042175
v -0.076682 0.041629 0.044869
v -0.076856 0.040389 0.044041
v -0.078645 0.042576 0.043752
v -0.080664 0.045912 0.043929
v -0.081947 0.047078 0.043455
v -0.084448 0.048897 0.042254
v -0.086541 0.050760 0.041115
v -0.083828 0.050382 0.043538
v -0.084936 0.050893 0.042799
v -0.086024 0.051398 0.042059
v -0.077086 0.056151 -0.000284
v -0.076682 0.071038 0.004801
v -0.084152 0.057131 0.043808
v -0.083864 0.068869 0.039947
v -0.082570 0.070223 0.040305
v -0.078732 0.062599 0.045636
v -0.076682 0.064695 0.045994
v -0.080887 0.072437 0.040375
v -0.079751 0.072692 0.040705
v -0.085171 0.052519 0.043115
v -0.084412 0.054337 0.044013
v -0.083212 0.056151 0.044720
v -0.077916 0.070847 0.005024
v -0.077668 0.072692 0.041157
v -0.076682 0.065880 0.045441
v -0.076682 0.042781 0.045469
v -0.078303 0.044932 0.045320
v -0.079045 0.043788 0.044106
v -0.082258 0.048063 0.043738
v -0.081039 0.047078 0.044227
v -0.083218 0.048760 0.043264
v -0.082618 0.049275 0.044022
v -0.084127 0.051594 0.043785
v -0.081770 0.057969 0.045278
v -0.083232 0.057833 0.044269
v -0.080618 0.059099 0.045664
v -0.079006 0.061601 0.045785
v -0.076682 0.063023 0.046515
v -0.084262 0.052519 0.043892
v -0.083212 0.054337 0.044831
v -0.082048 0.056151 0.045478
v -0.078689 0.046144 0.045608
v -0.076682 0.045329 0.046348
v -0.076888 0.043884 0.045813
v -0.079866 0.047078 0.045134
v -0.080248 0.048464 0.045436
v -0.083218 0.050874 0.044180
v -0.080551 0.049662 0.045631
v -0.081644 0.050701 0.045185
v -0.083212 0.052519 0.044603
v -0.080864 0.057969 0.045766
v -0.077762 0.061601 0.046380
v -0.076682 0.061236 0.046850
v -0.081920 0.052519 0.045399
v -0.082094 0.054337 0.045506
v -0.081142 0.056151 0.045864
v -0.077725 0.045429 0.045892
v -0.078960 0.047078 0.045757
v -0.076682 0.047078 0.046697
v -0.077762 0.047078 0.046324
v -0.079616 0.048997 0.045920
v -0.080738 0.050701 0.045724
v -0.079577 0.057969 0.046259
v -0.077762 0.059787 0.046678
v -0.076682 0.059049 0.047022
v -0.081013 0.052519 0.045822
v -0.081186 0.054337 0.045873
v -0.079577 0.056151 0.046385
v -0.076682 0.048897 0.046887
v -0.077762 0.048897 0.046627
v -0.079577 0.050701 0.046185
v -0.077762 0.057969 0.046794
v -0.077762 0.056151 0.046808
v -0.076682 0.057231 0.047027
v -0.079577 0.052519 0.046311
v -0.079577 0.054337 0.046380
v -0.076682 0.050701 0.046943
v -0.077762 0.050701 0.046725
v -0.077762 0.054337 0.046785
f 1 2 3
f 1 3 4
f 1 4 5
f 1 5 6
f 1 6 7
f 1 7 8
f 1 8 2
f 2 8 9
f 2 9 3
f 3 10 11
f 3 11 4
f 3 9 10
f 4 12 5
f 4 11 13
f 4 13 12
f 5 14 15
f 5 15 6
f 5 12 16
f 5 16 14
f 6 17 18
f 6 18 7
f 6 15 17
f 7 18 19
f 7 19 8
f 8 19 20
f 8 20 21
f 8 21 9
f 9 21 10
f 10 21 47
f 10 47 46
f 10 46 45
f 10 45 44
f 10 44 43
f 10 43 78
f 10 78 112
f 10 112 135
f 10 135 156
f 10 156 188
f 10 188 168
f 10 168 175
f 10 175 201
f 10 201 193
f 10 193 214
f 10 214 229
f 10 229 241
f 10 241 250
f 10 250 253
f 10 253 245
f 10 245 235
f 10 235 219
f 10 219 202
f 10 202 177
f 10 177 143
f 10 143 117
f 10 117 93
f 10 93 60
f 10 60 31
f 10 31 30
f 10 30 29
f 10 29 22
f 10 22 13
f 10 13 11
f 12 13 22
f 12 22 16
f 14 16 23
f 14 23 15
f 15 23 24
f 15 24 25
f 15 25 26
f 15 26 27
f 15 27 28
f 15 28 17
f 16 22 29
f 16 29 30
f 16 30 31
f 16 31 32
f 16 32 33
f 16 33 34
f 16 34 35
f 16 35 36
f 16 36 37
f 16 37 38
f 16 38 23
f 17 28 39
f 17 39 40
f 17 40 41
f 17 41 42
f 17 42 43
f 17 43 44
f 17 44 18
f 18 44 45
f 18 45 46
f 18 46 47
f 18 47 19
f 19 47 20
f 20 47 21
f 23 38 48
f 23 48 49
f 23 49 50
f 23 50 51
f 23 51 24
f 24 51 80
f 24 80 52
f 24 52 53
f 24 53 25
f 25 53 26
f 26 53 27
f 27 54 55
f 27 55 56
f 27 56 28
f 27 53 57
f 27 57 54
f 28 56 55
f 28 55 58
f 28 58 59
f 28 59 39
f 31 60 32
f 32 61 33
f 32 60 61
f 33 61 62
f 33 62 34
f 34 63 36
f 34 36 35
f 34 62 64
f 34 64 63
f 36 65 66
f 36 66 37
f 36 63 67
f 36 67 65
f 37 66 68
f 37 68 38
f 38 68 69
f 38 69 48
f 39 59 70
f 39 70 71
f 39 71 40
f 40 71 72
f 40 72 73
f 40 73 74
f 40 74 41
f 41 74 75
f 41 75 76
f 41 76 77
f 41 77 42
f 42 77 78
f 42 78 43
f 48 69 50
f 48 50 49
f 50 79 51
f 50 69 79
f 51 79 80
f 52 81 82
f 52 82 83
f 52 83 84
f 52 84 53
f 52 80 81
f 53 84 85
f 53 85 57
f 54 57 85
f 54 85 86
f 54 86 87
f 54 87 88
f 54 88 59
f 54 59 55
f 55 59 58
f 59 89 90
f 59 90 91
f 59 91 70
f 59 88 89
f 60 92 61
f 60 93 94
f 60 94 92
f 61 92 62
f 62 92 95
f 62 95 96
f 62 96 97
f 62 97 98
f 62 98 64
f 63 64 67
f 64 98 67
f 65 99 68
f 65 68 66
f 65 67 100
f 65 100 99
f 67 101 100
f 67 98 102
f 67 102 101
f 68 99 103
f 68 103 69
f 69 103 104
f 69 104 81
f 69 81 79
f 70 91 71
f 71 91 105
f 71 105 72
f 72 105 106
f 72 106 107
f 72 107 73
f 73 107 74
f 74 107 75
f 75 107 76
f 76 108 109
f 76 109 110
f 76 110 77
f 76 107 111
f 76 111 108
f 77 110 112
f 77 112 78
f 79 81 80
f 81 104 103
f 81 103 113
f 81 113 137
f 81 137 163
f 81 163 195
f 81 195 200
f 81 200 175
f 81 175 141
f 81 141 114
f 81 114 86
f 81 86 85
f 81 85 84
f 81 84 83
f 81 83 82
f 86 114 115
f 86 115 116
f 86 116 90
f 86 90 89
f 86 89 88
f 86 88 87
f 90 116 115
f 90 115 105
f 90 105 91
f 92 94 95
f 93 117 118
f 93 118 119
f 93 119 120
f 93 120 94
f 94 120 95
f 95 119 121
f 95 121 122
f 95 122 96
f 95 120 119
f 96 122 97
f 97 102 98
f 97 122 121
f 97 121 123
f 97 123 124
f 97 124 102
f 99 100 113
f 99 113 103
f 100 101 125
f 100 125 113
f 101 102 126
f 101 126 127
f 101 127 125
f 102 124 126
f 105 115 128
f 105 128 106
f 106 128 111
f 106 111 107
f 108 111 129
f 108 129 130
f 108 130 131
f 108 131 132
f 108 132 109
f 109 132 133
f 109 133 134
f 109 134 135
f 109 135 110
f 110 135 112
f 111 136 129
f 111 128 136
f 113 125 127
f 113 127 138
f 113 138 139
f 113 139 140
f 113 140 137
f 114 128 115
f 114 141 142
f 114 142 132
f 114 132 131
f 114 131 130
f 114 130 136
f 114 136 128
f 117 143 144
f 117 144 118
f 118 145 119
f 118 144 145
f 119 145 121
f 121 145 144
f 121 144 146
f 121 146 147
f 121 147 148
f 121 148 149
f 121 149 150
f 121 150 123
f 123 150 151
f 123 151 124
f 124 151 126
f 126 151 139
f 126 139 127
f 127 139 138
f 129 136 130
f 132 142 152
f 132 152 153
f 132 153 133
f 133 153 134
f 134 153 154
f 134 154 155
f 134 155 135
f 135 155 156
f 137 140 157
f 137 157 158
f 137 158 159
f 137 159 160
f 137 160 161
f 137 161 162
f 137 162 163
f 139 151 164
f 139 164 140
f 140 164 165
f 140 165 166
f 140 166 167
f 140 167 157
f 141 168 169
f 141 169 170
f 141 170 171
f 141 171 172
f 141 172 173
f 141 173 174
f 141 174 152
f 141 152 142
f 141 175 168
f 143 176 144
f 143 177 178
f 143 178 179
f 143 179 176
f 144 176 146
f 146 176 147
f 147 176 179
f 147 179 180
f 147 180 181
f 147 181 182
f 147 182 148
f 148 182 149
f 149 183 150
f 149 182 184
f 149 184 185
f 149 185 186
f 149 186 183
f 150 183 151
f 151 183 186
f 151 186 164
f 152 174 153
f 153 187 154
f 153 174 187
f 154 187 156
f 154 156 155
f 156 187 173
f 156 173 172
f 156 172 188
f 157 167 189
f 157 189 158
f 158 189 159
f 159 189 190
f 159 190 160
f 160 190 161
f 161 190 162
f 162 190 191
f 162 191 192
f 162 192 193
f 162 193 194
f 162 194 163
f 163 194 195
f 164 186 165
f 165 186 196
f 165 196 197
f 165 197 166
f 166 197 167
f 167 197 198
f 167 198 189
f 168 188 169
f 169 188 199
f 169 199 170
f 170 199 171
f 171 199 172
f 172 199 188
f 173 187 174
f 175 200 201
f 177 202 203
f 177 203 180
f 177 180 204
f 177 204 178
f 178 204 180
f 178 180 179
f 180 205 181
f 180 203 206
f 180 206 205
f 181 205 182
f 182 205 207
f 182 207 184
f 184 207 205
f 184 205 208
f 184 208 209
f 184 209 185
f 185 209 186
f 186 209 196
f 189 198 210
f 189 210 211
f 189 211 190
f 190 211 210
f 190 210 212
f 190 212 192
f 190 192 191
f 192 212 213
f 192 213 214
f 192 214 193
f 193 201 194
f 194 201 195
f 195 201 200
f 196 209 215
f 196 215 197
f 197 215 216
f 197 216 198
f 198 216 217
f 198 217 210
f 202 218 203
f 202 219 220
f 202 220 218
f 203 218 206
f 205 206 208
f 206 218 221
f 206 221 208
f 208 221 222
f 208 222 223
f 208 223 209
f 209 223 224
f 209 224 225
f 209 225 226
f 209 226 215
f 210 217 227
f 210 227 212
f 212 227 228
f 212 228 213
f 213 228 214
f 214 228 229
f 215 226 216
f 216 230 231
f 216 231 217
f 216 226 230
f 217 231 232
f 217 232 227
f 218 222 221
f 218 220 233
f 218 233 234
f 218 234 222
f 219 235 236
f 219 236 233
f 219 233 220
f 222 234 224
f 222 224 223
f 224 230 225
f 224 234 237
f 224 237 238
f 224 238 230
f 225 230 226
f 227 232 239
f 227 239 240
f 227 240 228
f 228 240 229
f 229 240 241
f 230 238 242
f 230 242 231
f 231 242 243
f 231 243 232
f 232 243 244
f 232 244 239
f 233 236 234
f 234 236 237
f 235 245 246
f 235 246 236
f 236 246 237
f 237 246 247
f 237 247 238
f 238 247 242
f 239 244 240
f 240 244 248
f 240 248 241
f 241 248 249
f 241 249 250
f 242 247 251
f 242 251 243
f 243 251 252
f 243 252 244
f 244 252 249
f 244 249 248
f 245 253 254
f 245 254 246
f 246 254 251
f 246 251 247
f 249 252 255
f 249 255 253
f 249 253 250
f 251 254 252
f 252 254 255
f 253 255 254
