v -0.024951 0.005928 0.001046
v -0.023262 0.003579 0.002053
v -0.025083 0.003561 0.002048
v -0.026764 0.005928 0.001057
v -0.032040 0.006568 0.001097
v -0.019303 0.006568 0.001215
v -0.023131 0.005928 0.001080
v -0.021449 0.003659 0.002087
v -0.021449 0.001015 0.003446
v -0.023107 0.000968 0.003429
v -0.026896 0.003604 0.002070
v -0.024928 0.000969 0.003429
v -0.028577 0.005928 0.001119
v -0.030382 0.005928 0.001215
v -0.031529 0.004052 0.002189
v -0.034148 0.005461 0.001895
v -0.036069 0.005867 0.002104
v -0.039563 0.006568 0.002744
v -0.019458 0.004335 0.001980
v -0.021318 0.005928 0.001182
v -0.006660 0.006568 0.004833
v -0.012935 0.006248 0.002670
v -0.015647 0.006056 0.002048
v -0.017661 0.005830 0.001731
v -0.017816 0.003470 0.002602
v -0.018622 0.001125 0.003700
v -0.016328 0.000204 0.004668
v -0.026725 0.000977 0.003485
v -0.028709 0.003697 0.002121
v -0.034148 0.000204 0.004946
v -0.030584 0.001152 0.003729
v -0.032358 0.001300 0.003882
v -0.034148 0.003470 0.002908
v -0.028709 0.000974 0.003638
v -0.037781 0.003494 0.003836
v -0.037766 0.005928 0.002512
v -0.039540 0.004420 0.003865
v -0.042112 0.006101 0.003831
v -0.046962 0.006568 0.005568
v -0.002058 0.006568 0.007261
v -0.005064 0.005790 0.005846
v -0.006768 0.004251 0.005546
v -0.008689 0.006231 0.004051
v -0.010650 0.004496 0.003899
v -0.014182 0.005288 0.002631
v -0.015995 0.003470 0.002948
v -0.015995 0.001691 0.003836
v -0.013942 0.000204 0.005195
v -0.035960 0.000204 0.005376
v -0.034148 0.001785 0.003904
v -0.035860 0.002262 0.004023
v -0.037804 0.000743 0.005563
v -0.039594 0.002046 0.005308
v -0.041120 0.002888 0.005319
v -0.043468 0.004739 0.005110
v -0.044800 0.005957 0.004951
v -0.066849 0.000204 0.017099
v -0.048635 0.006568 0.006542
v -0.000942 0.005759 0.008387
v -0.002941 0.005065 0.007318
v 0.001452 0.006568 0.010063
v -0.004103 0.003370 0.007380
v -0.005598 0.001076 0.007737
v -0.008589 0.002468 0.005557
v -0.012362 0.003472 0.003819
v -0.014136 0.002550 0.003819
v -0.012362 0.000994 0.005144
v -0.010696 0.000882 0.005693
v -0.009270 0.000204 0.006627
v -0.039671 0.000204 0.006486
v -0.043468 0.000204 0.007782
v -0.045149 0.000204 0.008387
v -0.048318 0.000204 0.009633
v -0.069677 0.000204 0.024916
v -0.069460 0.000314 0.022092
v -0.068329 0.000562 0.018673
v -0.052300 0.006568 0.009310
v -0.050239 0.006568 0.007680
v -0.001267 0.003701 0.009135
v 0.003257 0.006568 0.012073
v 0.002436 0.004385 0.012203
v 0.000762 0.003667 0.010935
v -0.002608 0.001903 0.009152
v -0.007558 0.000259 0.007255
v -0.004149 0.000279 0.009123
v -0.000183 0.000237 0.012610
v 0.003505 0.000214 0.017524
v 0.005620 0.000204 0.023020
v -0.068453 0.000204 0.026762
v -0.056801 0.006568 0.040794
v -0.058258 0.006568 0.038083
v -0.059520 0.006568 0.034602
v -0.067833 0.001721 0.024713
v -0.066261 0.002796 0.022896
v -0.065556 0.003089 0.020801
v -0.060628 0.006568 0.020382
v -0.055345 0.006568 0.012486
v -0.054066 0.006568 0.010991
v -0.000896 0.001955 0.010522
v 0.005202 0.006015 0.015180
v 0.003017 0.003084 0.013782
v 0.007294 0.006568 0.019262
v 0.001700 0.001683 0.013391
v -0.001508 0.000420 0.011099
v 0.001568 0.000261 0.014625
v 0.003164 0.001262 0.015695
v 0.004776 0.001908 0.017631
v 0.004869 0.000855 0.019307
v 0.005194 0.000237 0.021305
v 0.006612 0.001833 0.022896
v 0.006364 0.000863 0.024713
v 0.006860 0.001079 0.028347
v 0.006844 0.000970 0.030153
v 0.005403 0.000204 0.037324
v -0.055314 0.006568 0.042985
v -0.052106 0.000204 0.041411
v -0.049821 0.003009 0.045793
v -0.051169 0.005037 0.046246
v -0.051967 0.006546 0.046698
v -0.053772 0.006568 0.044921
v -0.061450 0.006568 0.025483
v -0.061186 0.006568 0.022896
v 0.006457 0.005902 0.017682
v 0.004946 0.003371 0.016459
v 0.009401 0.006568 0.028330
v 0.008332 0.005945 0.023094
v 0.007782 0.005928 0.021118
v 0.006674 0.004452 0.019273
v 0.006604 0.002680 0.021243
v 0.007387 0.003470 0.022896
v 0.007727 0.003470 0.024713
v 0.006774 0.001155 0.026524
v 0.008401 0.003722 0.030147
v 0.008425 0.003639 0.031964
v 0.006883 0.001051 0.032049
v 0.006844 0.001114 0.033781
v 0.006372 0.000851 0.035383
v 0.006271 0.001887 0.038360
v 0.004776 0.000858 0.040772
v 0.003459 0.000204 0.042866
v -0.050371 0.000204 0.042957
v -0.048504 0.001827 0.045917
v -0.048697 0.003901 0.047463
v -0.049325 0.006013 0.048521
v -0.047814 0.006397 0.049931
v -0.038044 0.006568 0.055387
v 0.009347 0.006568 0.035892
v 0.009471 0.005928 0.031964
v 0.009347 0.005928 0.030147
v 0.008533 0.004361 0.028256
v 0.008890 0.005813 0.026524
v 0.008533 0.005598 0.024713
v 0.007960 0.003470 0.026524
v 0.009440 0.005928 0.033781
v 0.008401 0.003704 0.033781
v 0.008487 0.004420 0.035513
v 0.007487 0.003470 0.037415
v 0.006759 0.003217 0.039311
v 0.004783 0.002344 0.043138
v 0.002854 0.000701 0.044706
v -0.000493 0.000265 0.048787
v -0.006729 0.000204 0.053270
v -0.048318 0.000204 0.044678
v -0.046869 0.000204 0.045889
v -0.046900 0.002089 0.047468
v -0.046939 0.003853 0.048827
v -0.045420 0.005435 0.051029
v -0.042941 0.006165 0.052942
v -0.039633 0.005861 0.054453
v -0.035960 0.005288 0.055614
v -0.034566 0.006118 0.056457
v -0.032614 0.006568 0.057188
v 0.008169 0.006568 0.039560
v 0.008572 0.005992 0.037772
v 0.007789 0.005288 0.039232
v 0.006697 0.004399 0.041055
v 0.004799 0.003654 0.044434
v 0.003203 0.002812 0.046291
v 0.001808 0.000964 0.046602
v -0.000159 0.001655 0.049631
v -0.001624 0.001745 0.051029
v -0.003127 0.000935 0.051618
v 0.001220 0.001773 0.048136
v -0.005002 0.001143 0.052987
v -0.006776 0.002469 0.054759
v -0.008744 0.001143 0.054799
v -0.011448 0.000218 0.055138
v -0.026555 0.000204 0.055495
v -0.038943 0.000262 0.051261
v -0.045071 0.000386 0.047463
v -0.034295 0.000204 0.053293
v -0.045126 0.002045 0.048821
v -0.044312 0.003529 0.050525
v -0.041918 0.002301 0.051233
v -0.041399 0.004406 0.052823
v -0.039772 0.003218 0.052936
v -0.037680 0.004470 0.054578
v -0.034969 0.003354 0.054986
v -0.032280 0.004421 0.056440
v -0.030514 0.005928 0.057471
v -0.028771 0.005928 0.057833
v -0.026470 0.006139 0.058269
v -0.021775 0.006568 0.058812
v 0.007464 0.006568 0.041304
v 0.006511 0.006161 0.043036
v 0.004535 0.006043 0.046398
v 0.003009 0.005798 0.048380
v 0.000848 0.003394 0.049716
v -0.000981 0.003416 0.051521
v -0.003429 0.002744 0.053038
v -0.004955 0.004257 0.054776
v -0.008674 0.004363 0.056497
v -0.010549 0.001655 0.055716
v -0.014182 0.000883 0.056157
v -0.016956 0.000944 0.056576
v -0.020388 0.001021 0.056655
v -0.023200 0.001202 0.056531
v -0.024928 0.000890 0.056140
v -0.026896 0.001845 0.056389
v -0.028833 0.000204 0.055065
v -0.039602 0.001648 0.051957
v -0.040996 0.000784 0.050565
v -0.037649 0.000706 0.052223
v -0.042980 0.001128 0.049597
v -0.031637 0.000669 0.054550
v -0.033977 0.001972 0.054555
v -0.036177 0.001054 0.053112
v -0.038308 0.002290 0.053038
v -0.030514 0.001655 0.055495
v -0.030514 0.003477 0.056480
v -0.026896 0.003470 0.057199
v -0.025083 0.005015 0.058093
v -0.023472 0.005863 0.058512
v -0.021449 0.004208 0.058133
v -0.019892 0.006568 0.058863
v -0.005172 0.006568 0.055704
v 0.001568 0.005928 0.050117
v 0.000321 0.005928 0.051397
v -0.001422 0.005788 0.052886
v -0.003406 0.005796 0.054414
v -0.006985 0.006034 0.056474
v -0.008720 0.006568 0.057323
v -0.010533 0.005928 0.057657
v -0.010781 0.003242 0.056593
v -0.012331 0.002651 0.056678
v -0.014182 0.003470 0.057414
v -0.015995 0.003470 0.057691
v -0.018087 0.004211 0.058161
v -0.023262 0.003470 0.057697
v -0.025083 0.003470 0.057471
v -0.028577 0.002279 0.056305
v -0.018025 0.005884 0.058671
v -0.014353 0.006278 0.058473
v -0.012354 0.006235 0.058173
v -0.014182 0.005080 0.058059
v -0.016135 0.005895 0.058535
f 1 2 3
f 1 3 4
f 1 4 5
f 1 5 6
f 1 6 7
f 1 7 2
f 2 7 8
f 2 8 9
f 2 9 10
f 2 10 3
f 3 11 4
f 3 10 12
f 3 12 11
f 4 11 13
f 4 13 5
f 5 13 14
f 5 14 15
f 5 15 16
f 5 16 17
f 5 17 18
f 5 18 39
f 5 39 58
f 5 58 78
f 5 78 77
f 5 77 98
f 5 98 97
f 5 97 96
f 5 96 122
f 5 122 121
f 5 121 92
f 5 92 91
f 5 91 90
f 5 90 115
f 5 115 120
f 5 120 146
f 5 146 172
f 5 172 203
f 5 203 235
f 5 235 242
f 5 242 236
f 5 236 204
f 5 204 173
f 5 173 147
f 5 147 125
f 5 125 102
f 5 102 80
f 5 80 61
f 5 61 40
f 5 40 21
f 5 21 6
f 6 19 20
f 6 20 7
f 6 21 22
f 6 22 23
f 6 23 24
f 6 24 19
f 7 20 8
f 8 20 19
f 8 19 25
f 8 25 26
f 8 26 9
f 9 26 27
f 9 27 10
f 10 27 12
f 11 12 28
f 11 28 29
f 11 29 13
f 12 27 30
f 12 30 28
f 13 29 14
f 14 29 15
f 15 31 32
f 15 32 33
f 15 33 16
f 15 29 34
f 15 34 31
f 16 33 17
f 17 33 35
f 17 35 36
f 17 36 18
f 18 36 37
f 18 37 38
f 18 38 39
f 19 24 25
f 21 40 41
f 21 41 42
f 21 42 43
f 21 43 22
f 22 43 44
f 22 44 45
f 22 45 23
f 23 45 46
f 23 46 24
f 24 46 25
f 25 46 47
f 25 47 26
f 26 47 27
f 27 47 48
f 27 48 69
f 27 69 88
f 27 88 114
f 27 114 140
f 27 140 162
f 27 162 188
f 27 188 220
f 27 220 191
f 27 191 164
f 27 164 163
f 27 163 141
f 27 141 116
f 27 116 89
f 27 89 74
f 27 74 57
f 27 57 73
f 27 73 72
f 27 72 71
f 27 71 70
f 27 70 49
f 27 49 30
f 28 30 34
f 28 34 29
f 30 49 50
f 30 50 32
f 30 32 31
f 30 31 34
f 32 50 33
f 33 50 51
f 33 51 35
f 35 52 53
f 35 53 37
f 35 37 36
f 35 51 52
f 37 53 54
f 37 54 38
f 38 55 56
f 38 56 39
f 38 54 55
f 39 56 57
f 39 57 58
f 40 59 60
f 40 60 41
f 40 61 59
f 41 62 42
f 41 60 62
f 42 62 63
f 42 63 64
f 42 64 44
f 42 44 43
f 44 65 45
f 44 64 65
f 45 65 46
f 46 65 66
f 46 66 47
f 47 66 67
f 47 67 48
f 48 67 68
f 48 68 69
f 49 51 50
f 49 70 52
f 49 52 51
f 52 70 53
f 53 70 71
f 53 71 54
f 54 71 72
f 54 72 55
f 55 72 73
f 55 73 56
f 56 73 57
f 57 74 75
f 57 75 76
f 57 76 77
f 57 77 78
f 57 78 58
f 59 79 60
f 59 61 79
f 60 79 62
f 61 80 81
f 61 81 82
f 61 82 79
f 62 79 83
f 62 83 63
f 63 84 64
f 63 83 85
f 63 85 84
f 64 69 68
f 64 68 65
f 64 84 69
f 65 68 67
f 65 67 66
f 69 84 85
f 69 85 86
f 69 86 87
f 69 87 88
f 74 89 90
f 74 90 91
f 74 91 92
f 74 92 93
f 74 93 75
f 75 93 94
f 75 94 95
f 75 95 76
f 76 95 96
f 76 96 97
f 76 97 98
f 76 98 77
f 79 82 99
f 79 99 83
f 80 100 101
f 80 101 81
f 80 102 100
f 81 103 82
f 81 101 103
f 82 103 99
f 83 99 104
f 83 104 85
f 85 104 86
f 86 104 103
f 86 103 105
f 86 105 87
f 87 105 106
f 87 106 107
f 87 107 108
f 87 108 109
f 87 109 88
f 88 109 110
f 88 110 111
f 88 111 112
f 88 112 113
f 88 113 114
f 89 115 90
f 89 116 117
f 89 117 118
f 89 118 119
f 89 119 120
f 89 120 115
f 92 121 93
f 93 121 94
f 94 121 122
f 94 122 95
f 95 122 96
f 99 103 104
f 100 123 124
f 100 124 101
f 100 102 123
f 101 106 103
f 101 124 106
f 102 125 126
f 102 126 127
f 102 127 128
f 102 128 123
f 103 106 105
f 106 124 107
f 107 124 128
f 107 128 129
f 107 129 108
f 108 129 109
f 109 129 110
f 110 130 131
f 110 131 111
f 110 129 130
f 111 131 132
f 111 132 112
f 112 132 133
f 112 133 134
f 112 134 113
f 113 134 135
f 113 135 114
f 114 135 136
f 114 136 137
f 114 137 138
f 114 138 139
f 114 139 140
f 116 141 117
f 117 142 143
f 117 143 118
f 117 141 142
f 118 143 144
f 118 144 119
f 119 144 145
f 119 145 146
f 119 146 120
f 123 128 124
f 125 147 148
f 125 148 149
f 125 149 150
f 125 150 151
f 125 151 152
f 125 152 126
f 126 152 130
f 126 130 127
f 127 130 129
f 127 129 128
f 130 152 131
f 131 152 151
f 131 151 153
f 131 153 132
f 132 153 133
f 133 153 150
f 133 150 149
f 133 149 148
f 133 148 134
f 134 148 154
f 134 154 155
f 134 155 135
f 135 155 136
f 136 155 137
f 137 155 156
f 137 156 157
f 137 157 138
f 138 157 158
f 138 158 139
f 139 158 159
f 139 159 140
f 140 159 160
f 140 160 161
f 140 161 162
f 141 163 142
f 142 163 164
f 142 164 165
f 142 165 143
f 143 165 166
f 143 166 144
f 144 166 145
f 145 166 167
f 145 167 168
f 145 168 146
f 146 168 169
f 146 169 170
f 146 170 171
f 146 171 172
f 147 173 174
f 147 174 156
f 147 156 154
f 147 154 148
f 150 153 151
f 154 156 155
f 156 174 157
f 157 174 175
f 157 175 158
f 158 175 176
f 158 176 159
f 159 177 178
f 159 178 160
f 159 176 177
f 160 179 161
f 160 178 179
f 161 180 181
f 161 181 182
f 161 182 162
f 161 179 183
f 161 183 180
f 162 182 184
f 162 184 185
f 162 185 186
f 162 186 187
f 162 187 188
f 164 189 190
f 164 190 165
f 164 191 189
f 165 190 192
f 165 192 166
f 166 192 193
f 166 193 167
f 167 193 194
f 167 194 195
f 167 195 168
f 168 195 169
f 169 195 196
f 169 196 197
f 169 197 170
f 170 197 198
f 170 198 199
f 170 199 171
f 171 199 172
f 172 199 200
f 172 200 201
f 172 201 202
f 172 202 203
f 173 204 176
f 173 176 175
f 173 175 174
f 176 204 205
f 176 205 177
f 177 205 206
f 177 206 178
f 178 206 207
f 178 207 208
f 178 208 183
f 178 183 179
f 180 183 208
f 180 208 209
f 180 209 181
f 181 209 210
f 181 210 182
f 182 210 184
f 184 210 185
f 185 210 211
f 185 211 212
f 185 212 186
f 186 212 213
f 186 213 187
f 187 213 214
f 187 214 215
f 187 215 188
f 188 216 217
f 188 217 218
f 188 218 219
f 188 219 220
f 188 215 216
f 189 221 194
f 189 194 222
f 189 222 190
f 189 191 223
f 189 223 221
f 190 224 192
f 190 222 224
f 191 220 225
f 191 225 226
f 191 226 227
f 191 227 223
f 192 224 194
f 192 194 193
f 194 224 222
f 194 221 196
f 194 196 195
f 196 221 228
f 196 228 197
f 197 228 198
f 198 228 226
f 198 226 199
f 199 229 230
f 199 230 200
f 199 226 229
f 200 230 201
f 201 230 231
f 201 231 232
f 201 232 202
f 202 232 233
f 202 233 203
f 203 233 234
f 203 234 235
f 204 206 205
f 204 236 206
f 206 237 207
f 206 236 237
f 207 237 208
f 208 238 209
f 208 237 238
f 209 239 240
f 209 240 210
f 209 238 239
f 210 240 211
f 211 240 236
f 211 236 241
f 211 241 212
f 212 242 243
f 212 243 244
f 212 244 213
f 212 241 242
f 213 244 245
f 213 245 214
f 214 246 247
f 214 247 215
f 214 245 246
f 215 247 248
f 215 248 216
f 216 248 234
f 216 234 249
f 216 249 217
f 217 249 250
f 217 250 219
f 217 219 218
f 219 250 231
f 219 231 251
f 219 251 220
f 220 251 229
f 220 229 225
f 221 223 228
f 223 227 228
f 225 229 226
f 226 228 227
f 229 251 230
f 230 251 231
f 231 250 232
f 232 250 249
f 232 249 234
f 232 234 233
f 234 248 252
f 234 252 235
f 235 252 253
f 235 253 242
f 236 242 241
f 236 240 239
f 236 239 238
f 236 238 237
f 242 253 254
f 242 254 243
f 243 254 246
f 243 246 245
f 243 245 244
f 246 255 247
f 246 254 255
f 247 255 248
f 248 255 256
f 248 256 252
f 252 256 253
f 253 256 255
f 253 255 254
