v -0.022282 -0.000090 0.004054
v -0.021450 -0.002206 0.005474
v -0.023264 -0.002227 0.005459
v -0.025078 -0.000094 0.004059
v -0.028074 0.000108 0.004110
v -0.019578 0.000140 0.004115
v -0.023014 -0.004259 0.007052
v -0.019636 -0.002079 0.005571
v -0.021309 -0.004303 0.007175
v -0.025078 -0.004270 0.007047
v -0.025078 -0.002202 0.005484
v -0.026892 -0.002154 0.005520
v -0.028714 -0.002046 0.005591
v -0.054152 -0.006810 0.011161
v -0.031635 0.000204 0.004486
v -0.017065 0.000047 0.004624
v 0.004320 0.000103 0.019338
v -0.011540 0.000013 0.005998
v -0.025078 -0.006797 0.009063
v -0.026892 -0.006810 0.009053
v -0.019636 -0.004093 0.007200
v -0.017814 -0.001842 0.005744
v -0.017814 -0.003882 0.007383
v -0.022482 -0.006742 0.009201
v -0.028714 -0.006798 0.009089
v -0.030528 -0.006810 0.009226
v -0.052180 -0.006810 0.010983
v -0.056923 -0.006810 0.036541
v -0.078749 -0.006792 0.020264
v -0.076585 -0.006473 0.015927
v -0.034947 0.000204 0.005133
v -0.041429 0.000204 0.049815
v 0.006209 0.000158 0.032753
v -0.014327 -0.000368 0.005469
v 0.005851 0.000112 0.024495
v 0.004969 -0.000314 0.021995
v 0.003446 -0.001476 0.020376
v 0.003180 -0.000315 0.017739
v 0.001774 -0.000114 0.015341
v -0.004126 -0.000145 0.009501
v -0.008053 -0.000116 0.007332
v -0.009584 -0.001812 0.008035
v -0.012364 -0.002145 0.007327
v -0.014144 -0.006677 0.011207
v -0.007171 -0.006764 0.044545
v -0.026543 -0.006810 0.049473
v -0.019828 -0.006091 0.009023
v -0.017814 -0.005295 0.008687
v -0.014294 -0.002728 0.007261
v -0.016000 -0.003629 0.007602
v -0.016000 -0.005065 0.008916
v -0.017814 -0.006506 0.009919
v -0.077268 -0.006601 0.025020
v -0.032892 -0.006810 0.047763
v -0.035205 -0.006717 0.046928
v -0.035979 -0.003383 0.049677
v -0.036237 -0.001829 0.050909
v -0.038916 -0.000065 0.051006
v -0.078158 -0.006290 0.022917
v -0.076053 -0.004615 0.022892
v -0.069604 0.000204 0.022092
v -0.073207 -0.002890 0.018370
v -0.077833 -0.006475 0.017444
v -0.074996 -0.004720 0.016588
v -0.071568 -0.002784 0.016441
v -0.045140 0.000204 0.008386
v -0.043459 0.000204 0.007785
v -0.041512 0.000204 0.007113
v -0.039673 0.000204 0.006487
v -0.037343 0.000204 0.005774
v -0.043151 0.000204 0.048700
v -0.035962 0.000121 0.052554
v -0.032184 0.000114 0.054000
v -0.024770 0.000112 0.055700
v -0.023014 0.000112 0.055888
v 0.002889 0.000154 0.043919
v 0.005843 0.000084 0.035167
v 0.004994 -0.001174 0.034352
v 0.004678 -0.001765 0.031964
v 0.004711 -0.001805 0.030147
v 0.006259 0.000105 0.030101
v 0.006059 0.000020 0.026527
v 0.004661 -0.001760 0.026527
v 0.004229 -0.001763 0.023798
v 0.002606 -0.003105 0.022723
v 0.002256 -0.002929 0.021079
v 0.001449 -0.002625 0.018681
v 0.001624 -0.001434 0.016863
v -0.000256 -0.001840 0.014862
v -0.000489 -0.000336 0.012841
v -0.002029 -0.000926 0.011864
v -0.003502 -0.001701 0.011365
v -0.005291 -0.001869 0.010285
v -0.006406 -0.001298 0.009063
v -0.009950 -0.003148 0.009023
v -0.007529 -0.002537 0.009603
v -0.012364 -0.003604 0.008595
v -0.015983 -0.006392 0.010301
v -0.014294 -0.005263 0.009613
v -0.012605 -0.004973 0.009883
v -0.012438 -0.006534 0.011752
v -0.010441 -0.006508 0.012765
v -0.008794 -0.006503 0.013854
v -0.007304 -0.006535 0.015132
v -0.003202 -0.006569 0.021064
v -0.001363 -0.006555 0.030136
v -0.003277 -0.006536 0.039057
v -0.005299 -0.006502 0.043048
v -0.005890 -0.006098 0.044784
v -0.007804 -0.006221 0.046383
v -0.010225 -0.006582 0.047595
v -0.012114 -0.006590 0.048628
v -0.017747 -0.006492 0.050247
v -0.019528 -0.006509 0.050339
v -0.021334 -0.006503 0.050349
v -0.023173 -0.006472 0.050273
v -0.025037 -0.006421 0.050125
v -0.025078 -0.005124 0.051464
v -0.027599 -0.005142 0.051021
v -0.029613 -0.006625 0.048985
v -0.075079 -0.004659 0.025651
v -0.045015 0.000204 0.047350
v -0.047853 0.000204 0.045064
v -0.030528 -0.005420 0.049942
v -0.032351 -0.005112 0.049626
v -0.034223 -0.004726 0.049249
v -0.033957 -0.002688 0.051204
v -0.033982 -0.000365 0.053017
v -0.073224 -0.002874 0.025636
v -0.071218 -0.000913 0.024414
v -0.069671 0.000204 0.024918
v -0.069130 0.000204 0.019256
v -0.069953 -0.000807 0.017933
v -0.067549 0.000204 0.017454
v -0.068572 -0.001119 0.016599
v -0.048310 0.000204 0.009629
v -0.032243 -0.001639 0.052717
v -0.030528 -0.000090 0.054407
v -0.028781 -0.000288 0.054763
v -0.026776 -0.000575 0.054967
v -0.025078 -0.001681 0.054443
v -0.023264 -0.001807 0.054539
v -0.020452 0.000048 0.056051
v -0.016940 0.000073 0.056067
v -0.003285 0.000081 0.051077
v 0.001291 0.000081 0.046429
v 0.000892 -0.001606 0.044825
v 0.002406 -0.001281 0.042610
v 0.004462 0.000052 0.040029
v 0.004903 -0.000617 0.036765
v 0.003721 -0.001737 0.037417
v 0.003679 -0.002576 0.033782
v 0.003355 -0.003132 0.031964
v 0.004711 -0.001806 0.028344
v 0.003380 -0.003157 0.030147
v 0.006167 0.000020 0.028344
v 0.003380 -0.003156 0.028344
v 0.003322 -0.003108 0.026527
v 0.002664 -0.003398 0.024449
v 0.000476 -0.004774 0.022892
v 0.000093 -0.004517 0.020830
v -0.001138 -0.004804 0.019129
v -0.000223 -0.003155 0.016884
v -0.001480 -0.003435 0.015682
v -0.001896 -0.002455 0.013778
v -0.004409 -0.003052 0.012179
v -0.006397 -0.003118 0.010850
v -0.008503 -0.004156 0.010754
v -0.010275 -0.004535 0.010357
v -0.006888 -0.005165 0.013147
v -0.005099 -0.004679 0.013839
v -0.003968 -0.004829 0.015163
v -0.005257 -0.006148 0.016497
v -0.004043 -0.006514 0.019160
v -0.001463 -0.005589 0.021079
v -0.002045 -0.006331 0.022988
v -0.001763 -0.006430 0.024709
v -0.001555 -0.006501 0.026527
v -0.001446 -0.006541 0.028324
v 0.000351 -0.005418 0.028344
v 0.000351 -0.005455 0.030147
v 0.000917 -0.004897 0.032774
v -0.001521 -0.006522 0.031934
v -0.001812 -0.006103 0.036837
v -0.001463 -0.005501 0.039230
v -0.003843 -0.006400 0.040996
v -0.002270 -0.004809 0.043216
v -0.003851 -0.004900 0.045207
v -0.005207 -0.005015 0.046403
v -0.006389 -0.004899 0.047727
v -0.010416 -0.004820 0.050471
v -0.008403 -0.004803 0.049310
v -0.014011 -0.006321 0.049723
v -0.016000 -0.006448 0.050059
v -0.016000 -0.004754 0.052024
v -0.017814 -0.005265 0.051652
v -0.019636 -0.005302 0.051663
v -0.021450 -0.005287 0.051627
v -0.023264 -0.005225 0.051566
v -0.026892 -0.003584 0.052650
v -0.025078 -0.003731 0.052783
v -0.028598 -0.002723 0.053037
v -0.030279 -0.004085 0.051306
v -0.050366 0.000204 0.042951
v -0.051947 0.000204 0.041561
v -0.032351 -0.003696 0.050945
v -0.070137 -0.000618 0.026079
v -0.068456 0.000204 0.026766
v -0.030528 -0.002102 0.052946
v -0.023264 -0.003833 0.052874
v -0.021450 -0.001902 0.054611
v -0.019636 -0.001969 0.054656
v -0.017814 -0.001982 0.054661
v -0.016000 -0.001919 0.054616
v -0.014178 -0.001760 0.054493
v -0.014178 0.000020 0.055675
v -0.009643 -0.000030 0.054387
v -0.005881 -0.000086 0.052599
v -0.004916 -0.001644 0.050705
v -0.002295 -0.001658 0.048552
v -0.000556 -0.000018 0.048572
v -0.000315 -0.001286 0.046984
v -0.000697 -0.003104 0.044565
v 0.000542 -0.003039 0.042600
v 0.002739 -0.001654 0.040930
v 0.003471 -0.001492 0.039230
v 0.002107 -0.002814 0.039230
v 0.002481 -0.003194 0.036119
v 0.002165 -0.003867 0.033782
v 0.001807 -0.004415 0.030147
v 0.001791 -0.004410 0.028344
v 0.000983 -0.004888 0.026384
v 0.000692 -0.004925 0.024709
v -0.002312 -0.004772 0.017133
v -0.003427 -0.003709 0.013951
v 0.000975 -0.004503 0.035599
v 0.000068 -0.005112 0.035599
v 0.000318 -0.004667 0.037417
v 0.000051 -0.004459 0.039479
v -0.001114 -0.004810 0.041180
v -0.002079 -0.002810 0.046821
v -0.003826 -0.003664 0.047299
v -0.006988 -0.003467 0.050151
v -0.005033 -0.003383 0.048812
v -0.011440 -0.004045 0.051754
v -0.007995 -0.002466 0.051770
v -0.014178 -0.004620 0.051887
v -0.016000 -0.003419 0.053353
v -0.017814 -0.003941 0.052976
v -0.014178 -0.003294 0.053236
v -0.019636 -0.003950 0.052986
v -0.021450 -0.003902 0.052941
v -0.011149 -0.002664 0.052976
v -0.012413 -0.000528 0.054952
v -0.006431 -0.002622 0.050767
v 0.000892 -0.003416 0.040808
f 1 2 3
f 1 3 4
f 1 4 5
f 1 5 6
f 1 6 2
f 2 7 3
f 2 6 8
f 2 8 9
f 2 9 7
f 3 10 11
f 3 11 4
f 3 7 10
f 4 11 12
f 4 12 5
f 5 12 13
f 5 13 14
f 5 14 15
f 5 15 6
f 6 16 8
f 6 15 17
f 6 17 18
f 6 18 16
f 7 9 19
f 7 19 20
f 7 20 10
f 8 21 9
f 8 16 22
f 8 22 23
f 8 23 21
f 9 21 24
f 9 24 19
f 10 20 25
f 10 25 11
f 11 25 12
f 12 25 26
f 12 26 27
f 12 27 13
f 13 27 14
f 14 27 26
f 14 26 20
f 14 20 46
f 14 46 54
f 14 54 28
f 14 28 29
f 14 29 30
f 14 30 31
f 14 31 15
f 15 31 70
f 15 70 69
f 15 69 68
f 15 68 67
f 15 67 66
f 15 66 136
f 15 136 134
f 15 134 132
f 15 132 61
f 15 61 131
f 15 131 208
f 15 208 205
f 15 205 204
f 15 204 123
f 15 123 122
f 15 122 71
f 15 71 32
f 15 32 33
f 15 33 17
f 16 34 22
f 16 18 34
f 17 33 35
f 17 35 36
f 17 36 37
f 17 37 38
f 17 38 39
f 17 39 40
f 17 40 18
f 18 40 41
f 18 41 42
f 18 42 43
f 18 43 34
f 19 24 44
f 19 44 45
f 19 45 20
f 20 26 25
f 20 45 46
f 21 47 24
f 21 23 48
f 21 48 47
f 22 34 49
f 22 49 23
f 23 49 50
f 23 50 51
f 23 51 48
f 24 47 52
f 24 52 44
f 28 53 29
f 28 54 55
f 28 55 56
f 28 56 57
f 28 57 58
f 28 58 32
f 28 32 53
f 29 59 60
f 29 60 61
f 29 61 62
f 29 62 63
f 29 63 30
f 29 53 59
f 30 63 64
f 30 64 65
f 30 65 66
f 30 66 67
f 30 67 68
f 30 68 69
f 30 69 70
f 30 70 31
f 32 71 53
f 32 58 72
f 32 72 73
f 32 73 74
f 32 74 75
f 32 75 76
f 32 76 33
f 33 76 77
f 33 77 78
f 33 78 79
f 33 79 80
f 33 80 81
f 33 81 35
f 34 43 49
f 35 81 82
f 35 82 83
f 35 83 84
f 35 84 36
f 36 84 37
f 37 85 86
f 37 86 87
f 37 87 38
f 37 84 85
f 38 87 88
f 38 88 39
f 39 88 89
f 39 89 90
f 39 90 40
f 40 91 92
f 40 92 93
f 40 93 94
f 40 94 41
f 40 90 91
f 41 94 42
f 42 95 43
f 42 94 96
f 42 96 95
f 43 95 97
f 43 97 49
f 44 52 98
f 44 98 99
f 44 99 100
f 44 100 101
f 44 101 102
f 44 102 103
f 44 103 104
f 44 104 105
f 44 105 45
f 45 105 106
f 45 106 107
f 45 107 108
f 45 108 109
f 45 109 110
f 45 110 111
f 45 111 112
f 45 112 46
f 46 113 114
f 46 114 115
f 46 115 116
f 46 116 117
f 46 117 118
f 46 118 119
f 46 119 120
f 46 120 54
f 46 112 113
f 47 48 52
f 48 51 52
f 49 97 50
f 50 97 51
f 51 99 98
f 51 98 52
f 51 97 99
f 53 121 59
f 53 71 122
f 53 122 123
f 53 123 121
f 54 120 124
f 54 124 125
f 54 125 55
f 55 125 126
f 55 126 56
f 56 126 127
f 56 127 57
f 57 127 128
f 57 128 72
f 57 72 58
f 59 121 129
f 59 129 130
f 59 130 60
f 60 130 61
f 61 130 131
f 61 132 62
f 62 132 133
f 62 133 64
f 62 64 63
f 64 133 65
f 65 133 134
f 65 134 135
f 65 135 136
f 65 136 66
f 72 128 73
f 73 128 137
f 73 137 138
f 73 138 74
f 74 138 139
f 74 139 140
f 74 140 141
f 74 141 75
f 75 141 142
f 75 142 143
f 75 143 144
f 75 144 145
f 75 145 76
f 76 145 146
f 76 146 147
f 76 147 148
f 76 148 149
f 76 149 77
f 77 149 150
f 77 150 78
f 78 150 151
f 78 151 152
f 78 152 153
f 78 153 79
f 79 153 80
f 80 154 81
f 80 153 155
f 80 155 154
f 81 156 82
f 81 154 156
f 82 156 83
f 83 154 157
f 83 157 158
f 83 158 84
f 83 156 154
f 84 158 159
f 84 159 85
f 85 159 160
f 85 160 161
f 85 161 86
f 86 161 87
f 87 161 162
f 87 162 163
f 87 163 88
f 88 163 89
f 89 163 164
f 89 164 165
f 89 165 90
f 90 165 91
f 91 165 92
f 92 166 93
f 92 165 166
f 93 166 167
f 93 167 96
f 93 96 94
f 95 96 168
f 95 168 169
f 95 169 100
f 95 100 97
f 96 167 168
f 97 100 99
f 100 169 101
f 101 169 168
f 101 168 102
f 102 168 170
f 102 170 103
f 103 170 104
f 104 170 171
f 104 171 172
f 104 172 173
f 104 173 174
f 104 174 105
f 105 174 175
f 105 175 176
f 105 176 177
f 105 177 178
f 105 178 179
f 105 179 106
f 106 179 180
f 106 180 181
f 106 181 182
f 106 182 183
f 106 183 107
f 107 183 184
f 107 184 185
f 107 185 186
f 107 186 108
f 108 186 187
f 108 187 188
f 108 188 109
f 109 188 189
f 109 189 110
f 110 189 190
f 110 190 111
f 111 191 112
f 111 190 192
f 111 192 191
f 112 191 193
f 112 193 194
f 112 194 113
f 113 194 195
f 113 195 196
f 113 196 114
f 114 196 197
f 114 197 115
f 115 197 198
f 115 198 116
f 116 198 199
f 116 199 117
f 117 199 118
f 118 200 119
f 118 199 201
f 118 201 200
f 119 202 203
f 119 203 124
f 119 124 120
f 119 200 202
f 121 123 204
f 121 204 205
f 121 205 129
f 124 203 125
f 125 206 126
f 125 203 206
f 126 206 127
f 127 206 137
f 127 137 128
f 129 207 131
f 129 131 130
f 129 205 208
f 129 208 207
f 131 207 208
f 132 134 133
f 134 136 135
f 137 206 209
f 137 209 138
f 138 209 139
f 139 209 202
f 139 202 140
f 140 202 141
f 141 201 142
f 141 202 200
f 141 200 201
f 142 201 210
f 142 210 211
f 142 211 143
f 143 211 212
f 143 212 213
f 143 213 144
f 144 213 214
f 144 214 215
f 144 215 216
f 144 216 145
f 145 217 218
f 145 218 219
f 145 219 220
f 145 220 221
f 145 221 146
f 145 216 217
f 146 221 222
f 146 222 147
f 147 222 223
f 147 223 224
f 147 224 148
f 148 225 149
f 148 224 225
f 149 225 226
f 149 226 150
f 150 226 151
f 151 226 227
f 151 227 228
f 151 228 152
f 152 228 229
f 152 229 153
f 153 229 182
f 153 182 230
f 153 230 155
f 154 155 157
f 155 230 157
f 157 230 231
f 157 231 158
f 158 231 232
f 158 232 159
f 159 232 233
f 159 233 160
f 160 233 177
f 160 177 176
f 160 176 175
f 160 175 161
f 161 175 162
f 162 175 174
f 162 174 234
f 162 234 163
f 163 234 164
f 164 234 172
f 164 172 235
f 164 235 165
f 165 235 166
f 166 171 170
f 166 170 167
f 166 235 171
f 167 170 168
f 171 235 172
f 172 234 173
f 173 234 174
f 177 233 178
f 178 233 232
f 178 232 180
f 178 180 179
f 180 232 231
f 180 231 181
f 181 231 230
f 181 230 182
f 182 229 236
f 182 236 237
f 182 237 183
f 183 237 184
f 184 237 238
f 184 238 185
f 185 238 239
f 185 239 240
f 185 240 186
f 186 240 187
f 187 240 224
f 187 224 223
f 187 223 188
f 188 223 241
f 188 241 242
f 188 242 189
f 189 242 190
f 190 243 192
f 190 242 244
f 190 244 243
f 191 245 193
f 191 192 243
f 191 243 246
f 191 246 245
f 193 247 194
f 193 245 247
f 194 247 195
f 195 248 249
f 195 249 196
f 195 247 250
f 195 250 248
f 196 249 197
f 197 249 251
f 197 251 198
f 198 252 199
f 198 251 252
f 199 210 201
f 199 252 210
f 202 209 203
f 203 209 206
f 210 252 211
f 211 252 212
f 212 251 213
f 212 252 251
f 213 249 248
f 213 248 214
f 213 251 249
f 214 248 250
f 214 250 215
f 215 250 253
f 215 253 254
f 215 254 216
f 216 254 217
f 217 254 253
f 217 253 246
f 217 246 218
f 218 246 255
f 218 255 219
f 219 244 220
f 219 255 244
f 220 244 241
f 220 241 222
f 220 222 221
f 222 241 223
f 224 240 256
f 224 256 225
f 225 256 227
f 225 227 226
f 227 256 239
f 227 239 228
f 228 239 238
f 228 238 236
f 228 236 229
f 236 238 237
f 239 256 240
f 241 244 242
f 243 244 255
f 243 255 246
f 245 246 253
f 245 253 250
f 245 250 247
