v -0.084577 0.072692 0.009930
v -0.085028 0.072692 0.009996
v -0.101377 0.083412 0.010549
v -0.101377 0.085225 0.010540
v -0.084577 0.074326 0.010001
v -0.084577 0.072692 0.034073
v -0.086893 0.072692 0.010708
v -0.100511 0.080653 0.011060
v -0.101221 0.081690 0.010911
v -0.102422 0.082361 0.011001
v -0.102732 0.083412 0.010845
v -0.102736 0.085225 0.010840
v -0.102429 0.086289 0.010994
v -0.101377 0.086698 0.010873
v -0.097317 0.090106 0.011006
v -0.095064 0.091604 0.011074
v -0.094976 0.091604 0.011074
v -0.092295 0.090676 0.011426
v -0.092295 0.092493 0.011833
v -0.090479 0.090676 0.011970
v -0.087337 0.088858 0.012693
v -0.084577 0.085829 0.013017
v -0.084577 0.076144 0.033482
v -0.085028 0.076144 0.033416
v -0.097070 0.093594 0.027515
v -0.103194 0.085225 0.026912
v -0.084901 0.072692 0.033969
v -0.092013 0.072692 0.012761
v -0.093334 0.073321 0.012816
v -0.101721 0.081150 0.011559
v -0.097313 0.076659 0.012572
v -0.103000 0.081774 0.012152
v -0.104186 0.082398 0.012743
v -0.103640 0.083412 0.011537
v -0.103645 0.085225 0.011622
v -0.097850 0.090698 0.011351
v -0.098528 0.089680 0.011102
v -0.104123 0.086162 0.012858
v -0.103029 0.086832 0.012182
v -0.102418 0.088096 0.012717
v -0.100655 0.089977 0.012667
v -0.098889 0.091824 0.012655
v -0.097047 0.093578 0.012676
v -0.097690 0.092455 0.012293
v -0.096274 0.091318 0.011143
v -0.095772 0.092323 0.011462
v -0.094268 0.092323 0.011348
v -0.094112 0.094098 0.012279
v -0.092295 0.093794 0.012551
v -0.090631 0.092362 0.012572
v -0.089489 0.091667 0.012820
v -0.087723 0.089795 0.012872
v -0.086020 0.087789 0.012972
v -0.084577 0.086115 0.013210
v -0.084577 0.077637 0.033083
v -0.095926 0.093714 0.027591
v -0.095926 0.094622 0.026865
v -0.097125 0.095357 0.025856
v -0.097704 0.094302 0.026537
v -0.099000 0.093798 0.026007
v -0.102783 0.088858 0.025977
v -0.104475 0.086698 0.025889
v -0.103358 0.087199 0.026324
v -0.105052 0.085094 0.026040
v -0.105943 0.084401 0.025643
v -0.105943 0.084263 0.025643
v -0.103194 0.083412 0.026868
v -0.087761 0.073384 0.032882
v -0.087761 0.073464 0.032882
v -0.086933 0.072692 0.033097
v -0.092810 0.072692 0.013288
v -0.100467 0.078871 0.012953
v -0.093147 0.072692 0.013768
v -0.093650 0.073046 0.013804
v -0.101221 0.080256 0.012093
v -0.102368 0.080607 0.012771
v -0.104329 0.083412 0.012445
v -0.103329 0.081413 0.013804
v -0.104251 0.082321 0.013804
v -0.105604 0.083026 0.022886
v -0.106102 0.083936 0.022886
v -0.105929 0.084290 0.020092
v -0.104673 0.083412 0.013804
v -0.104283 0.085225 0.012532
v -0.104671 0.085225 0.013804
v -0.104247 0.086339 0.013804
v -0.103518 0.087247 0.013804
v -0.102610 0.088300 0.013804
v -0.100865 0.090206 0.013804
v -0.100033 0.091114 0.013804
v -0.099125 0.092076 0.013804
v -0.098219 0.092984 0.013804
v -0.095926 0.093873 0.012419
v -0.097310 0.093830 0.013804
v -0.095913 0.094742 0.013775
v -0.094112 0.095005 0.013326
v -0.091337 0.093446 0.012846
v -0.093096 0.095298 0.014425
v -0.085565 0.088295 0.014184
v -0.084577 0.086947 0.013827
v -0.084577 0.086693 0.013636
v -0.084577 0.077893 0.032995
v -0.094632 0.093626 0.027558
v -0.094828 0.095350 0.025828
v -0.095926 0.095423 0.025955
v -0.095926 0.095750 0.024703
v -0.097332 0.095471 0.024703
v -0.098240 0.094942 0.024703
v -0.099249 0.094032 0.024703
v -0.100157 0.093009 0.024703
v -0.102589 0.090122 0.024703
v -0.103602 0.088838 0.024852
v -0.104074 0.087910 0.025556
v -0.105686 0.085613 0.025071
v -0.105939 0.086167 0.023859
v -0.106049 0.085094 0.024561
v -0.106066 0.084025 0.024703
v -0.104338 0.082259 0.025814
v -0.104970 0.083560 0.025998
v -0.088465 0.072692 0.032372
v -0.105503 0.083115 0.024703
v -0.093444 0.072692 0.014342
v -0.093848 0.072692 0.015621
v -0.093867 0.072692 0.015746
v -0.094358 0.072692 0.019057
v -0.094523 0.072692 0.020640
v -0.102593 0.080399 0.017438
v -0.103750 0.081000 0.022886
v -0.104696 0.081910 0.022886
v -0.106076 0.085366 0.022826
v -0.105929 0.084376 0.020092
v -0.105037 0.085225 0.015621
v -0.105908 0.086065 0.022181
v -0.104445 0.086603 0.015621
v -0.103731 0.087510 0.015621
v -0.102823 0.088527 0.015621
v -0.099314 0.092301 0.015621
v -0.098463 0.093208 0.015621
v -0.097555 0.094082 0.015621
v -0.095300 0.095357 0.014364
v -0.096482 0.094990 0.015621
v -0.094112 0.095382 0.014236
v -0.091231 0.093542 0.013804
v -0.090323 0.092709 0.013804
v -0.089345 0.091801 0.013804
v -0.093109 0.095289 0.015621
v -0.085413 0.088425 0.015621
v -0.094112 0.095566 0.015621
v -0.094335 0.095661 0.021071
v -0.084577 0.087646 0.015526
v -0.084577 0.078522 0.032665
v -0.092295 0.091985 0.027655
v -0.093421 0.093267 0.027302
v -0.092765 0.093712 0.026092
v -0.093720 0.094810 0.024703
v -0.094628 0.095496 0.024703
v -0.094419 0.095618 0.022886
v -0.095926 0.095875 0.022886
v -0.097277 0.095473 0.022886
v -0.098185 0.094858 0.022886
v -0.099198 0.093950 0.022886
v -0.100107 0.093002 0.022886
v -0.100928 0.092094 0.022886
v -0.101837 0.091089 0.022886
v -0.102654 0.090179 0.022886
v -0.103562 0.089162 0.022886
v -0.104348 0.088255 0.022886
v -0.104315 0.088218 0.024346
v -0.105939 0.086167 0.023394
v -0.104595 0.082005 0.024703
v -0.102574 0.080392 0.025901
v -0.094984 0.073462 0.027328
v -0.098469 0.077303 0.027224
v -0.089914 0.072692 0.031360
v -0.089803 0.072692 0.031443
v -0.094556 0.072692 0.021071
v -0.094643 0.072692 0.022224
v -0.094691 0.072692 0.022886
v -0.094744 0.072692 0.023947
v -0.094778 0.072692 0.024703
v -0.099972 0.077519 0.024703
v -0.100939 0.078429 0.024703
v -0.102800 0.080203 0.024703
v -0.103710 0.081097 0.024703
v -0.105979 0.084765 0.021071
v -0.105341 0.085225 0.017438
v -0.105821 0.085672 0.021071
v -0.105014 0.087043 0.021071
v -0.104614 0.086800 0.017438
v -0.105383 0.086879 0.022826
v -0.103895 0.087710 0.017438
v -0.098712 0.093460 0.018055
v -0.096725 0.095146 0.017438
v -0.095574 0.095493 0.015621
v -0.084577 0.087662 0.015621
v -0.093511 0.094944 0.022886
v -0.091638 0.093181 0.024703
v -0.095926 0.095843 0.021071
v -0.084577 0.084973 0.028796
v -0.086494 0.085813 0.029103
v -0.091316 0.091647 0.027475
v -0.088085 0.089507 0.026520
v -0.092548 0.093903 0.024703
v -0.089291 0.089970 0.027605
v -0.087339 0.088318 0.027747
v -0.097093 0.095400 0.021071
v -0.096961 0.095319 0.019560
v -0.096834 0.095216 0.018350
v -0.104015 0.087855 0.018856
v -0.100768 0.078579 0.025955
v -0.093709 0.072692 0.027789
v -0.094462 0.072692 0.026712
v -0.094502 0.072692 0.026575
v -0.098929 0.076804 0.026012
v -0.104643 0.087165 0.019378
v -0.095816 0.095575 0.017438
v -0.084577 0.087542 0.016741
v -0.084577 0.086414 0.026619
v -0.084577 0.086489 0.026092
v -0.084577 0.087467 0.017438
v -0.096107 0.095605 0.019076
v -0.084577 0.085248 0.028472
v -0.085420 0.086587 0.027893
v -0.084577 0.085602 0.027943
f 1 2 3
f 1 3 4
f 1 4 5
f 1 5 22
f 1 22 54
f 1 54 101
f 1 101 100
f 1 100 150
f 1 150 195
f 1 195 217
f 1 217 220
f 1 220 219
f 1 219 218
f 1 218 224
f 1 224 222
f 1 222 199
f 1 199 151
f 1 151 102
f 1 102 55
f 1 55 23
f 1 23 6
f 1 6 27
f 1 27 70
f 1 70 120
f 1 120 175
f 1 175 174
f 1 174 211
f 1 211 212
f 1 212 213
f 1 213 180
f 1 180 179
f 1 179 178
f 1 178 177
f 1 177 176
f 1 176 126
f 1 126 125
f 1 125 124
f 1 124 123
f 1 123 122
f 1 122 73
f 1 73 71
f 1 71 28
f 1 28 7
f 1 7 2
f 2 7 8
f 2 8 9
f 2 9 3
f 3 9 10
f 3 10 11
f 3 11 4
f 4 11 12
f 4 12 13
f 4 13 14
f 4 14 15
f 4 15 16
f 4 16 17
f 4 17 5
f 5 17 18
f 5 18 19
f 5 19 20
f 5 20 21
f 5 21 22
f 6 23 24
f 6 24 25
f 6 25 26
f 6 26 27
f 7 28 29
f 7 29 8
f 8 30 10
f 8 10 9
f 8 29 31
f 8 31 30
f 10 30 32
f 10 32 33
f 10 33 34
f 10 34 11
f 11 34 12
f 12 34 35
f 12 35 13
f 13 36 37
f 13 37 14
f 13 35 38
f 13 38 39
f 13 39 40
f 13 40 41
f 13 41 42
f 13 42 43
f 13 43 44
f 13 44 36
f 14 37 15
f 15 37 45
f 15 45 16
f 16 45 46
f 16 46 47
f 16 47 17
f 17 47 18
f 18 47 19
f 19 48 49
f 19 49 50
f 19 50 51
f 19 51 52
f 19 52 21
f 19 21 20
f 19 47 48
f 21 52 53
f 21 53 22
f 22 53 54
f 23 55 25
f 23 25 24
f 25 55 56
f 25 56 57
f 25 57 58
f 25 58 59
f 25 59 60
f 25 60 61
f 25 61 62
f 25 62 63
f 25 63 26
f 26 63 64
f 26 64 65
f 26 65 66
f 26 66 67
f 26 67 68
f 26 68 69
f 26 69 27
f 27 69 68
f 27 68 70
f 28 71 29
f 29 72 31
f 29 71 73
f 29 73 74
f 29 74 72
f 30 31 75
f 30 75 76
f 30 76 32
f 31 72 75
f 32 76 33
f 33 77 34
f 33 76 78
f 33 78 79
f 33 79 80
f 33 80 81
f 33 81 82
f 33 82 83
f 33 83 77
f 34 77 35
f 35 77 84
f 35 84 38
f 36 46 45
f 36 45 37
f 36 44 43
f 36 43 46
f 38 40 39
f 38 84 85
f 38 85 86
f 38 86 87
f 38 87 40
f 40 87 88
f 40 88 89
f 40 89 90
f 40 90 41
f 41 90 91
f 41 91 42
f 42 91 92
f 42 92 43
f 43 93 46
f 43 92 94
f 43 94 95
f 43 95 93
f 46 93 48
f 46 48 47
f 48 93 96
f 48 96 49
f 49 97 50
f 49 96 98
f 49 98 97
f 50 97 51
f 51 97 99
f 51 99 52
f 52 99 100
f 52 100 53
f 53 100 101
f 53 101 54
f 55 102 56
f 56 102 103
f 56 103 57
f 57 104 105
f 57 105 58
f 57 103 104
f 58 106 107
f 58 107 108
f 58 108 60
f 58 60 59
f 58 105 106
f 60 108 109
f 60 109 110
f 60 110 111
f 60 111 112
f 60 112 113
f 60 113 61
f 61 113 62
f 62 64 63
f 62 113 65
f 62 65 64
f 65 113 114
f 65 114 115
f 65 115 116
f 65 116 117
f 65 117 66
f 66 118 119
f 66 119 120
f 66 120 68
f 66 68 67
f 66 117 121
f 66 121 118
f 68 120 70
f 72 76 75
f 72 74 122
f 72 122 123
f 72 123 124
f 72 124 125
f 72 125 76
f 73 122 74
f 76 125 126
f 76 126 127
f 76 127 78
f 77 83 85
f 77 85 84
f 78 127 128
f 78 128 129
f 78 129 79
f 79 129 80
f 80 129 121
f 80 121 117
f 80 117 81
f 81 117 116
f 81 116 130
f 81 130 131
f 81 131 82
f 82 131 132
f 82 132 83
f 83 132 85
f 85 132 86
f 86 132 133
f 86 133 134
f 86 134 135
f 86 135 87
f 87 135 88
f 88 135 136
f 88 136 89
f 89 136 90
f 90 136 137
f 90 137 138
f 90 138 91
f 91 138 92
f 92 138 139
f 92 139 94
f 93 95 140
f 93 140 96
f 94 139 141
f 94 141 140
f 94 140 95
f 96 140 142
f 96 142 98
f 97 98 143
f 97 143 144
f 97 144 145
f 97 145 99
f 98 146 147
f 98 147 143
f 98 142 148
f 98 148 149
f 98 149 146
f 99 145 150
f 99 150 100
f 102 151 103
f 103 152 153
f 103 153 104
f 103 151 152
f 104 154 155
f 104 155 156
f 104 156 106
f 104 106 105
f 104 153 154
f 106 156 157
f 106 157 158
f 106 158 107
f 107 158 159
f 107 159 108
f 108 159 160
f 108 160 161
f 108 161 109
f 109 161 162
f 109 162 163
f 109 163 164
f 109 164 165
f 109 165 166
f 109 166 110
f 110 166 167
f 110 167 168
f 110 168 111
f 111 168 112
f 112 168 113
f 113 168 115
f 113 115 114
f 115 168 167
f 115 167 169
f 115 169 130
f 115 130 116
f 118 121 170
f 118 170 171
f 118 171 172
f 118 172 173
f 118 173 174
f 118 174 175
f 118 175 119
f 119 175 120
f 121 129 170
f 126 176 128
f 126 128 127
f 128 176 177
f 128 177 178
f 128 178 179
f 128 179 180
f 128 180 181
f 128 181 182
f 128 182 183
f 128 183 129
f 129 183 184
f 129 184 170
f 130 169 133
f 130 133 185
f 130 185 131
f 131 186 132
f 131 185 133
f 131 133 187
f 131 187 186
f 132 186 133
f 133 188 189
f 133 189 134
f 133 186 187
f 133 169 190
f 133 190 188
f 134 189 135
f 135 189 191
f 135 191 136
f 136 191 163
f 136 163 162
f 136 162 137
f 137 162 138
f 138 162 192
f 138 192 139
f 139 193 141
f 139 192 161
f 139 161 160
f 139 160 193
f 140 141 194
f 140 194 148
f 140 148 142
f 141 193 194
f 143 147 195
f 143 195 144
f 144 195 145
f 145 195 150
f 146 149 157
f 146 157 196
f 146 196 197
f 146 197 147
f 147 197 195
f 148 194 198
f 148 198 158
f 148 158 149
f 149 158 157
f 151 199 200
f 151 200 152
f 152 201 153
f 152 200 201
f 153 201 154
f 154 202 197
f 154 197 203
f 154 203 155
f 154 201 204
f 154 204 205
f 154 205 202
f 155 203 196
f 155 196 156
f 156 196 157
f 158 198 159
f 159 198 206
f 159 206 160
f 160 206 207
f 160 207 208
f 160 208 193
f 161 192 162
f 163 191 164
f 164 191 165
f 165 191 166
f 166 191 209
f 166 209 167
f 167 188 190
f 167 190 169
f 167 209 188
f 170 184 171
f 171 184 210
f 171 210 172
f 172 211 174
f 172 174 173
f 172 210 212
f 172 212 211
f 180 213 181
f 181 213 182
f 182 213 183
f 183 213 214
f 183 214 210
f 183 210 184
f 188 209 215
f 188 215 189
f 189 215 209
f 189 209 191
f 193 208 194
f 194 208 207
f 194 207 216
f 194 216 198
f 195 197 217
f 196 203 197
f 197 202 218
f 197 218 219
f 197 219 220
f 197 220 217
f 198 216 221
f 198 221 206
f 199 222 223
f 199 223 205
f 199 205 204
f 199 204 201
f 199 201 200
f 202 205 223
f 202 223 218
f 206 221 216
f 206 216 207
f 210 214 212
f 212 214 213
f 218 223 224
f 222 224 223
