v -0.025027 -0.021865 0.023343
v -0.025226 -0.021865 0.029198
v -0.028632 -0.028818 0.024849
v -0.029695 -0.029988 0.021580
v -0.029869 -0.028277 0.018865
v -0.027851 -0.022418 0.018013
v -0.036871 -0.021922 0.011439
v -0.081538 -0.021865 0.016230
v -0.028856 -0.021865 0.035556
v -0.029587 -0.026579 0.032933
v -0.030176 -0.029569 0.030134
v -0.033441 -0.036216 0.026519
v -0.032369 -0.034855 0.022005
v -0.036572 -0.041782 0.022788
v -0.035093 -0.038271 0.018632
v -0.032261 -0.031801 0.017640
v -0.032070 -0.028118 0.015568
v -0.035068 -0.028875 0.012901
v -0.032452 -0.023570 0.013929
v -0.037344 -0.026909 0.011391
v -0.041430 -0.031051 0.009760
v -0.043731 -0.029009 0.009025
v -0.042028 -0.022495 0.009813
v -0.048474 -0.022348 0.008451
v -0.069578 -0.021973 0.007315
v -0.073922 -0.023156 0.007929
v -0.077626 -0.023576 0.009736
v -0.083457 -0.029021 0.009057
v -0.086339 -0.031604 0.008893
v -0.101289 -0.045663 0.008210
v -0.104661 -0.047749 0.010174
v -0.104029 -0.046566 0.011311
v -0.108282 -0.050484 0.017985
v -0.081995 -0.021865 0.023274
v -0.038648 -0.021897 0.039885
v -0.034670 -0.021986 0.039005
v -0.034155 -0.027348 0.036989
v -0.033540 -0.027902 0.036278
v -0.033266 -0.030135 0.034680
v -0.070965 -0.021890 0.034913
v -0.033150 -0.032119 0.033013
v -0.032901 -0.032787 0.031833
v -0.033515 -0.034810 0.030254
v -0.038839 -0.043462 0.029186
v -0.041854 -0.048366 0.027568
v -0.041123 -0.048773 0.022041
v -0.039628 -0.046114 0.019254
v -0.037743 -0.041267 0.016547
v -0.037527 -0.036451 0.013495
v -0.040492 -0.037501 0.011049
v -0.039163 -0.031509 0.010821
v -0.044362 -0.035784 0.008857
v -0.049470 -0.037132 0.007258
v -0.050284 -0.031267 0.007278
v -0.055741 -0.027196 0.006692
v -0.053266 -0.022838 0.007676
v -0.057842 -0.022647 0.007206
v -0.063872 -0.023754 0.006628
v -0.071663 -0.026903 0.006017
v -0.080359 -0.031121 0.005680
v -0.078781 -0.027329 0.007391
v -0.085890 -0.034409 0.006138
v -0.090732 -0.039028 0.005495
v -0.091438 -0.037355 0.007399
v -0.102485 -0.049034 0.005503
v -0.107609 -0.052692 0.008238
v -0.108730 -0.051706 0.013086
v -0.109877 -0.057336 0.021479
v -0.108058 -0.054009 0.024511
v -0.102410 -0.044918 0.022600
v -0.081139 -0.024187 0.028270
v -0.076505 -0.022514 0.031748
v -0.099495 -0.042024 0.023648
v -0.092252 -0.034734 0.025519
v -0.049570 -0.022826 0.039764
v -0.045500 -0.023303 0.040001
v -0.044612 -0.027876 0.039752
v -0.047336 -0.032418 0.039435
v -0.050774 -0.041846 0.038419
v -0.038009 -0.026165 0.039070
v -0.066106 -0.022418 0.036845
v -0.038266 -0.031674 0.037515
v -0.039396 -0.037387 0.035588
v -0.035733 -0.035173 0.033620
v -0.078531 -0.026706 0.032801
v -0.073930 -0.025981 0.034905
v -0.070483 -0.023786 0.035712
v -0.041389 -0.044651 0.032375
v -0.043814 -0.048761 0.031515
v -0.045268 -0.052386 0.028917
v -0.049113 -0.058042 0.027274
v -0.044994 -0.054231 0.020845
v -0.042992 -0.051012 0.018335
v -0.046406 -0.055198 0.016158
v -0.045085 -0.050351 0.012913
v -0.041713 -0.045478 0.013941
v -0.041447 -0.041916 0.012021
v -0.048532 -0.050733 0.009359
v -0.046522 -0.046165 0.009311
v -0.044628 -0.041044 0.009282
v -0.049744 -0.047959 0.007732
v -0.050533 -0.041954 0.006973
v -0.054213 -0.043086 0.005965
v -0.054993 -0.036502 0.005953
v -0.058656 -0.033086 0.005612
v -0.059603 -0.029238 0.005953
v -0.059603 -0.026509 0.006363
v -0.066247 -0.029333 0.005427
v -0.072493 -0.034626 0.004230
v -0.080674 -0.037329 0.003788
v -0.089727 -0.040930 0.003752
v -0.093373 -0.043633 0.003756
v -0.098224 -0.047189 0.004074
v -0.095076 -0.041789 0.006222
v -0.105225 -0.053194 0.004576
v -0.106945 -0.058862 0.008194
v -0.109370 -0.057997 0.017403
v -0.104752 -0.057253 0.003278
v -0.108041 -0.060052 0.023788
v -0.104976 -0.058729 0.029021
v -0.098216 -0.045103 0.028351
v -0.100475 -0.044664 0.025628
v -0.103996 -0.048258 0.024403
v -0.079702 -0.025440 0.031178
v -0.088639 -0.031973 0.027347
v -0.085350 -0.029123 0.028415
v -0.053689 -0.023074 0.039315
v -0.056871 -0.028105 0.039074
v -0.055965 -0.032527 0.039178
v -0.049836 -0.029689 0.039628
v -0.050633 -0.036165 0.039154
v -0.056189 -0.042183 0.038644
v -0.059545 -0.048544 0.037929
v -0.059304 -0.054079 0.036969
v -0.053764 -0.050230 0.036957
v -0.050517 -0.045586 0.037415
v -0.070342 -0.027444 0.036419
v -0.064296 -0.026553 0.037728
v -0.060010 -0.023067 0.038274
v -0.052884 -0.054308 0.035154
v -0.048557 -0.050472 0.034772
v -0.042701 -0.041502 0.035672
v -0.045077 -0.048074 0.033543
v -0.083947 -0.030357 0.030917
v -0.086912 -0.034594 0.031110
v -0.089370 -0.037730 0.030949
v -0.085101 -0.036833 0.032917
v -0.077418 -0.032075 0.034941
v -0.048590 -0.054575 0.031756
v -0.053008 -0.062196 0.028166
v -0.058357 -0.068792 0.026692
v -0.059661 -0.071871 0.020616
v -0.052369 -0.063633 0.018909
v -0.048648 -0.058926 0.020106
v -0.049761 -0.059371 0.015025
v -0.048631 -0.056019 0.012748
v -0.052219 -0.059804 0.011407
v -0.056414 -0.062380 0.008821
v -0.052900 -0.054588 0.007660
v -0.058689 -0.058315 0.005628
v -0.057003 -0.053767 0.005588
v -0.056547 -0.048652 0.005459
v -0.058025 -0.040593 0.005190
v -0.061870 -0.038659 0.004676
v -0.064827 -0.035141 0.004668
v -0.092285 -0.064651 -0.001027
v -0.098631 -0.059498 -0.000276
v -0.105848 -0.062774 0.020684
v -0.101330 -0.063048 0.003387
v -0.096878 -0.067838 0.004720
v -0.104112 -0.064886 0.025298
v -0.098564 -0.070026 0.029017
v -0.100832 -0.062864 0.031805
v -0.094030 -0.040707 0.029150
v -0.091123 -0.036095 0.028423
v -0.095998 -0.040058 0.026487
v -0.062186 -0.032132 0.038455
v -0.062103 -0.038252 0.038467
v -0.055060 -0.037412 0.039046
v -0.060949 -0.043970 0.038323
v -0.091314 -0.073461 0.033013
v -0.062169 -0.057469 0.036531
v -0.055658 -0.057641 0.034873
v -0.059960 -0.060001 0.035214
v -0.080143 -0.036814 0.034849
v -0.075151 -0.037304 0.036158
v -0.066870 -0.032870 0.037652
v -0.052012 -0.057546 0.032612
v -0.055193 -0.062705 0.030917
v -0.064802 -0.074893 0.027708
v -0.067842 -0.079562 0.025178
v -0.063274 -0.074918 0.024800
v -0.066762 -0.079301 0.022885
v -0.066131 -0.079002 0.021066
v -0.062502 -0.075357 0.017439
v -0.055949 -0.067577 0.016817
v -0.052543 -0.062755 0.014788
v -0.056289 -0.065631 0.011809
v -0.061331 -0.070421 0.009961
v -0.067958 -0.077539 0.008612
v -0.067128 -0.072342 0.005483
v -0.062086 -0.064276 0.005523
v -0.082294 -0.073188 0.000266
v -0.063183 -0.044906 0.004134
v -0.065932 -0.042819 0.003813
v -0.086837 -0.069193 -0.000420
v -0.086762 -0.073843 0.001238
v -0.096023 -0.066470 0.001150
v -0.093274 -0.071082 0.004720
v -0.082784 -0.083811 0.022170
v -0.095018 -0.073741 0.027423
v -0.099113 -0.069880 0.027029
v -0.093166 -0.070077 0.002049
v -0.088822 -0.074797 0.003921
v -0.096945 -0.070224 0.031158
v -0.093357 -0.073900 0.031214
v -0.098681 -0.066585 0.031688
v -0.094179 -0.070204 0.032905
v -0.067767 -0.041044 0.037696
v -0.070201 -0.035599 0.037118
v -0.066181 -0.044683 0.037805
v -0.087875 -0.076655 0.032612
v -0.083996 -0.080166 0.032182
v -0.078922 -0.081248 0.031323
v -0.063706 -0.068073 0.032732
v -0.057776 -0.062844 0.032865
v -0.062003 -0.069085 0.030953
v -0.061331 -0.070192 0.029299
v -0.064894 -0.073436 0.029363
v -0.069420 -0.077501 0.029351
v -0.074262 -0.083487 0.027519
v -0.070616 -0.083792 0.020889
v -0.060101 -0.072202 0.015335
v -0.066015 -0.079117 0.016082
v -0.063183 -0.075154 0.013174
v -0.064279 -0.075389 0.011331
v -0.069046 -0.080847 0.010792
v -0.072859 -0.083614 0.008945
v -0.076829 -0.080548 0.004419
v -0.080508 -0.076528 0.001467
v -0.082011 -0.079505 0.003483
v -0.085375 -0.078169 0.005246
v -0.082070 -0.081782 0.008246
v -0.078581 -0.085580 0.014029
v -0.078756 -0.086464 0.020098
v -0.085790 -0.081566 0.028154
v -0.089860 -0.078334 0.027423
v -0.079561 -0.084746 0.027845
v -0.066355 -0.072641 0.031086
v -0.077327 -0.086470 0.023997
v -0.074902 -0.086852 0.020612
v -0.071322 -0.084225 0.012531
v -0.073191 -0.086140 0.016431
v -0.076588 -0.085325 0.010704
f 1 2 3
f 1 3 4
f 1 4 5
f 1 5 6
f 1 6 7
f 1 7 8
f 1 8 34
f 1 34 9
f 1 9 2
f 2 9 10
f 2 10 11
f 2 11 12
f 2 12 3
f 3 13 4
f 3 12 14
f 3 14 13
f 4 13 15
f 4 15 5
f 5 15 16
f 5 16 6
f 6 16 17
f 6 17 18
f 6 18 19
f 6 19 7
f 7 19 20
f 7 20 21
f 7 21 22
f 7 22 23
f 7 23 24
f 7 24 25
f 7 25 8
f 8 25 26
f 8 26 27
f 8 27 28
f 8 28 29
f 8 29 30
f 8 30 31
f 8 31 32
f 8 32 33
f 8 33 34
f 9 35 36
f 9 36 37
f 9 37 38
f 9 38 39
f 9 39 10
f 9 34 40
f 9 40 35
f 10 39 41
f 10 41 42
f 10 42 11
f 11 42 43
f 11 43 12
f 12 43 44
f 12 44 45
f 12 45 46
f 12 46 14
f 13 14 47
f 13 47 15
f 14 46 47
f 15 48 16
f 15 47 48
f 16 48 49
f 16 49 17
f 17 49 18
f 18 49 50
f 18 50 51
f 18 51 20
f 18 20 19
f 20 51 21
f 21 51 52
f 21 52 22
f 22 52 53
f 22 53 54
f 22 54 23
f 23 54 24
f 24 54 55
f 24 55 56
f 24 56 57
f 24 57 25
f 25 58 59
f 25 59 60
f 25 60 26
f 25 57 58
f 26 60 61
f 26 61 27
f 27 61 62
f 27 62 28
f 28 62 63
f 28 63 64
f 28 64 29
f 29 64 30
f 30 64 65
f 30 65 31
f 31 66 67
f 31 67 32
f 31 65 66
f 32 67 33
f 33 67 68
f 33 68 69
f 33 69 70
f 33 70 34
f 34 71 72
f 34 72 40
f 34 70 73
f 34 73 74
f 34 74 71
f 35 75 76
f 35 76 77
f 35 77 78
f 35 78 79
f 35 79 80
f 35 80 36
f 35 40 81
f 35 81 75
f 36 80 82
f 36 82 37
f 37 82 83
f 37 83 38
f 38 83 39
f 39 83 84
f 39 84 41
f 40 72 85
f 40 85 86
f 40 86 87
f 40 87 81
f 41 84 88
f 41 88 42
f 42 88 44
f 42 44 43
f 44 88 89
f 44 89 90
f 44 90 45
f 45 90 91
f 45 91 92
f 45 92 46
f 46 92 93
f 46 93 47
f 47 93 94
f 47 94 48
f 48 94 95
f 48 95 96
f 48 96 49
f 49 96 97
f 49 97 50
f 50 97 98
f 50 98 99
f 50 99 100
f 50 100 51
f 51 100 52
f 52 100 101
f 52 101 102
f 52 102 53
f 53 102 103
f 53 103 104
f 53 104 54
f 54 104 105
f 54 105 55
f 55 105 106
f 55 106 107
f 55 107 56
f 56 107 57
f 57 107 58
f 58 108 109
f 58 109 59
f 58 107 108
f 59 109 110
f 59 110 60
f 60 110 111
f 60 111 62
f 60 62 61
f 62 111 112
f 62 112 63
f 63 112 113
f 63 113 114
f 63 114 64
f 64 114 65
f 65 114 113
f 65 113 115
f 65 115 66
f 66 116 117
f 66 117 67
f 66 115 118
f 66 118 116
f 67 117 68
f 68 117 119
f 68 119 120
f 68 120 69
f 69 120 121
f 69 121 122
f 69 122 123
f 69 123 70
f 70 123 122
f 70 122 73
f 71 124 72
f 71 74 125
f 71 125 126
f 71 126 124
f 72 124 85
f 73 122 74
f 74 122 125
f 75 127 128
f 75 128 129
f 75 129 130
f 75 130 76
f 75 81 127
f 76 130 77
f 77 130 78
f 78 130 131
f 78 131 79
f 79 131 132
f 79 132 133
f 79 133 134
f 79 134 135
f 79 135 136
f 79 136 80
f 80 136 82
f 81 87 137
f 81 137 138
f 81 138 139
f 81 139 127
f 82 136 140
f 82 140 141
f 82 141 142
f 82 142 83
f 83 142 143
f 83 143 84
f 84 143 88
f 85 124 144
f 85 144 145
f 85 145 146
f 85 146 147
f 85 147 86
f 86 147 148
f 86 148 87
f 87 148 137
f 88 143 89
f 89 143 149
f 89 149 90
f 90 149 150
f 90 150 91
f 91 150 151
f 91 151 152
f 91 152 153
f 91 153 154
f 91 154 92
f 92 94 93
f 92 154 153
f 92 153 94
f 94 153 155
f 94 155 156
f 94 156 95
f 95 156 98
f 95 98 97
f 95 97 96
f 98 156 157
f 98 157 158
f 98 158 159
f 98 159 101
f 98 101 99
f 99 101 100
f 101 159 160
f 101 160 161
f 101 161 102
f 102 161 162
f 102 162 103
f 103 162 163
f 103 163 104
f 104 163 164
f 104 164 105
f 105 164 165
f 105 165 106
f 106 165 108
f 106 108 107
f 108 165 109
f 109 165 166
f 109 166 167
f 109 167 110
f 110 167 111
f 111 167 112
f 112 167 113
f 113 167 115
f 115 167 118
f 116 168 117
f 116 118 169
f 116 169 170
f 116 170 168
f 117 168 119
f 118 167 169
f 119 168 171
f 119 171 172
f 119 172 173
f 119 173 120
f 120 173 147
f 120 147 146
f 120 146 121
f 121 146 174
f 121 174 122
f 122 174 175
f 122 175 176
f 122 176 125
f 124 126 175
f 124 175 144
f 125 176 175
f 125 175 126
f 127 139 177
f 127 177 128
f 128 177 178
f 128 178 129
f 129 179 130
f 129 178 180
f 129 180 179
f 130 179 131
f 131 179 132
f 132 179 180
f 132 180 133
f 133 180 181
f 133 181 182
f 133 182 134
f 134 182 135
f 135 183 140
f 135 140 136
f 135 182 184
f 135 184 183
f 137 148 185
f 137 185 186
f 137 186 138
f 138 186 187
f 138 187 177
f 138 177 139
f 140 183 141
f 141 143 142
f 141 183 188
f 141 188 143
f 143 188 149
f 144 175 174
f 144 174 145
f 145 174 146
f 147 173 185
f 147 185 148
f 149 188 189
f 149 189 150
f 150 189 151
f 151 189 190
f 151 190 191
f 151 191 192
f 151 192 152
f 152 192 193
f 152 193 194
f 152 194 195
f 152 195 153
f 153 196 155
f 153 195 196
f 155 196 197
f 155 197 198
f 155 198 157
f 155 157 156
f 157 198 199
f 157 199 158
f 158 199 200
f 158 200 201
f 158 201 159
f 159 201 202
f 159 202 160
f 160 202 203
f 160 203 161
f 161 203 162
f 162 203 204
f 162 204 163
f 163 204 164
f 164 204 205
f 164 205 165
f 165 205 166
f 166 206 207
f 166 207 208
f 166 208 167
f 166 205 206
f 167 208 169
f 168 170 209
f 168 209 210
f 168 210 211
f 168 211 212
f 168 212 171
f 169 208 213
f 169 213 170
f 170 213 214
f 170 214 209
f 171 212 172
f 172 215 173
f 172 212 211
f 172 211 216
f 172 216 215
f 173 215 217
f 173 217 218
f 173 218 219
f 173 219 220
f 173 220 186
f 173 186 185
f 177 187 219
f 177 219 178
f 178 219 221
f 178 221 180
f 180 221 181
f 181 218 215
f 181 215 216
f 181 216 222
f 181 222 223
f 181 223 182
f 181 221 218
f 182 223 224
f 182 224 184
f 183 184 225
f 183 225 226
f 183 226 188
f 184 224 225
f 186 220 187
f 187 220 219
f 188 226 189
f 189 226 227
f 189 227 228
f 189 228 190
f 190 229 230
f 190 230 231
f 190 231 191
f 190 228 229
f 191 232 193
f 191 193 192
f 191 231 232
f 193 232 194
f 194 232 195
f 195 233 196
f 195 232 234
f 195 234 233
f 196 233 197
f 197 233 235
f 197 235 198
f 198 235 236
f 198 236 199
f 199 236 200
f 200 236 237
f 200 237 238
f 200 238 201
f 201 238 239
f 201 239 240
f 201 240 202
f 202 240 203
f 203 240 207
f 203 207 206
f 203 206 204
f 204 206 205
f 207 213 208
f 207 240 241
f 207 241 213
f 209 214 242
f 209 242 243
f 209 243 210
f 210 243 244
f 210 244 245
f 210 245 246
f 210 246 247
f 210 247 211
f 211 247 216
f 213 241 214
f 214 241 242
f 215 218 217
f 216 247 246
f 216 246 223
f 216 223 222
f 218 221 219
f 223 246 248
f 223 248 224
f 224 248 231
f 224 231 230
f 224 230 249
f 224 249 225
f 225 249 226
f 226 249 227
f 227 249 230
f 227 230 229
f 227 229 228
f 231 248 250
f 231 250 251
f 231 251 232
f 232 252 234
f 232 251 253
f 232 253 252
f 233 234 235
f 234 252 235
f 235 252 237
f 235 237 236
f 237 252 238
f 238 253 254
f 238 254 239
f 238 252 253
f 239 254 241
f 239 241 240
f 241 254 243
f 241 243 242
f 243 254 244
f 244 254 245
f 245 254 251
f 245 251 250
f 245 250 248
f 245 248 246
f 251 254 253
