v -0.076681 0.072692 0.005774
v -0.084575 0.072692 0.009931
v -0.084575 0.074326 0.010001
v -0.084575 0.085829 0.013017
v -0.076681 0.073059 0.005972
v -0.076681 0.072692 0.041192
v -0.084575 0.072692 0.034071
v -0.084575 0.086117 0.013211
v -0.084575 0.086694 0.013637
v -0.084575 0.086948 0.013828
v -0.076681 0.081480 0.014553
v -0.076681 0.073589 0.040925
v -0.077577 0.072692 0.041168
v -0.083013 0.072692 0.037604
v -0.084575 0.076144 0.033482
v -0.084575 0.087647 0.015527
v -0.076681 0.083342 0.017454
v -0.076681 0.082851 0.016335
v -0.076681 0.082725 0.016092
v -0.076681 0.082045 0.015190
v -0.076681 0.074351 0.040641
v -0.077756 0.072692 0.041150
v -0.082547 0.072692 0.038581
v -0.084575 0.077637 0.033083
v -0.084575 0.087664 0.015620
v -0.076837 0.084324 0.020037
v -0.076681 0.084210 0.019892
v -0.076681 0.083958 0.019167
v -0.076681 0.083550 0.018016
v -0.076681 0.075398 0.040238
v -0.077088 0.075355 0.040221
v -0.077721 0.074385 0.040519
v -0.079743 0.072692 0.040713
v -0.081801 0.072692 0.039399
v -0.084575 0.084974 0.028794
v -0.084575 0.078521 0.032663
v -0.084575 0.077892 0.032993
v -0.084575 0.087468 0.017437
v -0.076681 0.084409 0.023046
v -0.076681 0.084425 0.022890
v -0.076681 0.084411 0.021601
v -0.076689 0.084406 0.021074
v -0.076681 0.084401 0.021074
v -0.076681 0.075722 0.040037
v -0.078300 0.075028 0.039992
v -0.079255 0.073818 0.040377
v -0.076681 0.077388 0.038647
v -0.077189 0.077262 0.038550
v -0.080466 0.073403 0.040134
v -0.080775 0.072692 0.040315
v -0.081671 0.072692 0.039535
v -0.084575 0.085249 0.028472
v -0.084575 0.086489 0.026094
v -0.076798 0.084345 0.023944
v -0.076681 0.084242 0.024055
v -0.076681 0.077858 0.038068
v -0.084575 0.085602 0.027942
v -0.084575 0.086414 0.026621
v -0.077242 0.084217 0.025154
v -0.076681 0.083973 0.024891
v -0.076681 0.078877 0.036477
f 1 2 3
f 1 3 4
f 1 4 5
f 1 5 11
f 1 11 20
f 1 20 19
f 1 19 18
f 1 18 17
f 1 17 29
f 1 29 28
f 1 28 27
f 1 27 43
f 1 43 41
f 1 41 40
f 1 40 39
f 1 39 55
f 1 55 60
f 1 60 61
f 1 61 56
f 1 56 47
f 1 47 44
f 1 44 30
f 1 30 21
f 1 21 12
f 1 12 6
f 1 6 13
f 1 13 22
f 1 22 33
f 1 33 50
f 1 50 51
f 1 51 34
f 1 34 23
f 1 23 14
f 1 14 7
f 1 7 2
f 2 7 15
f 2 15 24
f 2 24 37
f 2 37 36
f 2 36 35
f 2 35 52
f 2 52 57
f 2 57 58
f 2 58 53
f 2 53 38
f 2 38 25
f 2 25 16
f 2 16 10
f 2 10 9
f 2 9 8
f 2 8 4
f 2 4 3
f 4 8 5
f 5 8 9
f 5 9 10
f 5 10 11
f 6 12 13
f 7 14 15
f 10 16 17
f 10 17 18
f 10 18 19
f 10 19 20
f 10 20 11
f 12 21 22
f 12 22 13
f 14 23 15
f 15 23 24
f 16 25 26
f 16 26 27
f 16 27 28
f 16 28 29
f 16 29 17
f 21 30 31
f 21 31 32
f 21 32 22
f 22 32 33
f 23 34 35
f 23 35 36
f 23 36 37
f 23 37 24
f 25 38 39
f 25 39 40
f 25 40 41
f 25 41 42
f 25 42 26
f 26 42 27
f 27 42 43
f 30 44 31
f 31 45 46
f 31 46 32
f 31 44 47
f 31 47 48
f 31 48 45
f 32 46 33
f 33 46 49
f 33 49 50
f 34 51 35
f 35 51 49
f 35 49 45
f 35 45 48
f 35 48 47
f 35 47 52
f 38 53 54
f 38 54 39
f 39 54 55
f 41 43 42
f 45 49 46
f 47 56 52
f 49 51 50
f 52 56 57
f 53 58 54
f 54 58 59
f 54 59 55
f 55 59 60
f 56 61 57
f 57 61 58
f 58 61 59
f 59 61 60
