v -0.053306 -0.055410 0.008207
v -0.053171 -0.053020 0.008256
v -0.053211 -0.054470 0.007786
v -0.053166 -0.056055 0.007367
v -0.053256 -0.057190 0.007995
v -0.053176 -0.058540 0.008132
v -0.053066 -0.059570 0.008194
v -0.052657 -0.049950 0.008306
v -0.052942 -0.051260 0.008207
v -0.052817 -0.051900 0.007209
v -0.051045 -0.057150 0.008406
v -0.052952 -0.053495 0.007112
v -0.049947 -0.055095 0.000339
v -0.049902 -0.057240 0.000339
v -0.052987 -0.057965 0.007109
v -0.052837 -0.059255 0.007067
v -0.052782 -0.061225 0.007989
v -0.052447 -0.062765 0.008132
v -0.051619 -0.046840 0.008306
v -0.052028 -0.047990 0.008048
v -0.052697 -0.050675 0.007419
v -0.049512 -0.052275 0.000054
v -0.047506 -0.072535 0.008132
v -0.045724 -0.074374 0.008132
v -0.027799 -0.081714 0.008391
v -0.026596 -0.033561 0.008406
v -0.049677 -0.055415 -0.000199
v -0.049672 -0.058285 0.000033
v -0.052238 -0.062735 0.007244
v -0.051968 -0.064035 0.007602
v -0.051484 -0.065555 0.007887
v -0.050850 -0.067180 0.008044
v -0.048824 -0.041611 0.008161
v -0.050651 -0.044696 0.008157
v -0.051025 -0.045670 0.007787
v -0.051619 -0.047345 0.007373
v -0.035257 -0.031666 0.008282
v -0.044386 -0.036711 0.008230
v -0.046008 -0.038241 0.008207
v -0.052248 -0.049225 0.007343
v -0.049398 -0.051285 0.000310
v -0.048913 -0.052665 -0.000637
v -0.048918 -0.050200 -0.000021
v -0.049083 -0.051260 -0.000187
v -0.050111 -0.068585 0.007959
v -0.048884 -0.070550 0.007811
v -0.047965 -0.071745 0.007417
v -0.046777 -0.073225 0.007693
v -0.045439 -0.074349 0.007126
v -0.044411 -0.075424 0.007671
v -0.043478 -0.076299 0.008132
v -0.035771 -0.080389 0.008132
v -0.029212 -0.081659 0.008132
v -0.026506 -0.081699 0.008199
v -0.025129 -0.081589 0.008151
v -0.022029 -0.081019 0.008199
v -0.019638 -0.080319 0.008295
v -0.008916 -0.073345 0.008346
v -0.013049 -0.035351 0.008066
v -0.020886 -0.031586 0.008047
v -0.026581 -0.030636 0.008110
v -0.030105 -0.030716 0.008148
v -0.002312 -0.056920 0.008228
v -0.049178 -0.055575 -0.000595
v -0.049323 -0.059560 -0.000123
v -0.049078 -0.060845 -0.000152
v -0.048624 -0.062790 -0.000094
v -0.050945 -0.066535 0.007282
v -0.050336 -0.067815 0.007279
v -0.048893 -0.042291 0.007034
v -0.049917 -0.043416 0.007990
v -0.047970 -0.040576 0.007762
v -0.050131 -0.044131 0.007265
v -0.048165 -0.047235 0.000483
v -0.033040 -0.031201 0.007836
v -0.034183 -0.031496 0.007629
v -0.036504 -0.032171 0.007867
v -0.037882 -0.032631 0.008217
v -0.040977 -0.034251 0.007956
v -0.042444 -0.035281 0.007766
v -0.043518 -0.036116 0.007766
v -0.044746 -0.037336 0.007280
v -0.045235 -0.037481 0.008157
v -0.046767 -0.039291 0.007470
v -0.048020 -0.048045 -0.000171
v -0.047286 -0.047745 -0.000485
v -0.039290 -0.038016 -0.000448
v -0.032576 -0.035586 -0.000492
v -0.010484 -0.043556 -0.000630
v -0.011796 -0.069800 -0.000832
v -0.026826 -0.077369 -0.000746
v -0.040618 -0.073035 -0.000638
v -0.043018 -0.071680 -0.000228
v -0.047072 -0.066475 -0.000078
v -0.045200 -0.069225 -0.000231
v -0.043218 -0.076269 0.007183
v -0.042285 -0.077134 0.007881
v -0.039035 -0.079014 0.007934
v -0.037518 -0.079614 0.007539
v -0.036010 -0.080134 0.007285
v -0.034393 -0.080744 0.007868
v -0.031977 -0.081219 0.007590
v -0.029052 -0.081464 0.007149
v -0.026347 -0.081469 0.007142
v -0.024590 -0.081309 0.007150
v -0.023037 -0.081149 0.007662
v -0.021420 -0.080684 0.007261
v -0.020551 -0.080544 0.007745
v -0.019553 -0.080134 0.007283
v -0.018625 -0.079869 0.007699
v -0.017796 -0.079609 0.008199
v -0.016888 -0.079194 0.008199
v -0.014856 -0.078119 0.008247
v -0.010424 -0.074814 0.008117
v -0.009475 -0.073550 0.007161
v -0.008607 -0.072665 0.007272
v -0.008048 -0.072260 0.008007
v -0.006620 -0.070435 0.008062
v -0.005527 -0.068610 0.008103
v -0.004878 -0.067335 0.008103
v -0.003136 -0.062695 0.008199
v -0.008851 -0.039161 0.007877
v -0.010623 -0.037376 0.007797
v -0.011946 -0.036221 0.007856
v -0.014926 -0.037776 0.000565
v -0.014457 -0.034441 0.007962
v -0.018230 -0.032506 0.007947
v -0.003575 -0.048060 0.008072
v -0.006006 -0.042936 0.007921
v -0.019498 -0.032046 0.007873
v -0.022099 -0.034646 0.000060
v -0.022418 -0.031271 0.007845
v -0.024325 -0.030941 0.007779
v -0.025069 -0.034196 -0.000053
v -0.028258 -0.030676 0.007892
v -0.030914 -0.034036 0.000456
v -0.031822 -0.031011 0.007786
v -0.002727 -0.060765 0.007969
v -0.002537 -0.058765 0.007783
v -0.002387 -0.055575 0.007716
v -0.002427 -0.053205 0.008065
v -0.002886 -0.050640 0.008066
v -0.049073 -0.056930 -0.000552
v -0.048769 -0.061805 -0.000217
v -0.047955 -0.063970 -0.000254
v -0.047506 -0.065355 -0.000150
v -0.044486 -0.042121 -0.000181
v -0.045874 -0.043786 -0.000010
v -0.046887 -0.045365 -0.000046
v -0.031932 -0.034251 0.000339
v -0.035167 -0.031891 0.007323
v -0.033709 -0.034586 0.000557
v -0.037423 -0.032681 0.007313
v -0.038741 -0.033166 0.007625
v -0.039240 -0.037206 0.000064
v -0.040657 -0.038151 -0.000015
v -0.047062 -0.046485 -0.000259
v -0.041815 -0.039656 -0.000386
v -0.037183 -0.036626 -0.000297
v -0.034488 -0.035586 -0.000330
v -0.031613 -0.034591 -0.000222
v -0.030015 -0.034951 -0.000484
v -0.023951 -0.034816 -0.000433
v -0.017202 -0.037086 -0.000282
v -0.012755 -0.040706 -0.000413
v -0.011467 -0.041266 -0.000028
v -0.009645 -0.043616 -0.000110
v -0.008197 -0.046080 -0.000115
v -0.008023 -0.047100 -0.000315
v -0.006994 -0.052225 -0.000512
v -0.007214 -0.061485 -0.000677
v -0.007918 -0.063900 -0.000639
v -0.009725 -0.068340 -0.000287
v -0.011587 -0.070810 -0.000391
v -0.014991 -0.073005 -0.000622
v -0.025553 -0.077154 -0.000715
v -0.024739 -0.077814 -0.000083
v -0.026177 -0.078084 -0.000013
v -0.027784 -0.078029 -0.000220
v -0.028897 -0.077734 -0.000441
v -0.032332 -0.077379 -0.000276
v -0.036190 -0.076189 -0.000182
v -0.037952 -0.075414 -0.000141
v -0.039415 -0.074619 -0.000133
v -0.041341 -0.077559 0.007173
v -0.040558 -0.078174 0.007726
v -0.033515 -0.080729 0.007017
v -0.034827 -0.076794 -0.000118
v -0.033315 -0.077409 -0.000026
v -0.031238 -0.077999 0.000395
v -0.022443 -0.077449 0.000068
v -0.017831 -0.079399 0.007196
v -0.018730 -0.076254 0.000257
v -0.016573 -0.078799 0.007210
v -0.015924 -0.078704 0.008199
v -0.015340 -0.078139 0.007205
v -0.014102 -0.077429 0.007284
v -0.013613 -0.077329 0.008103
v -0.012825 -0.076694 0.007820
v -0.011896 -0.075899 0.007475
v -0.013663 -0.073040 -0.000027
v -0.010489 -0.069830 -0.000017
v -0.006650 -0.070030 0.007159
v -0.007294 -0.071230 0.007773
v -0.006051 -0.069375 0.007746
v -0.004708 -0.066560 0.007407
v -0.004204 -0.065760 0.008003
v -0.003560 -0.063880 0.007806
v -0.003246 -0.062250 0.007317
v -0.007628 -0.040631 0.007860
v -0.009790 -0.038186 0.007801
v -0.012715 -0.039861 0.000057
v -0.015760 -0.037636 -0.000102
v -0.018121 -0.035876 0.000588
v -0.015425 -0.033901 0.007822
v -0.016858 -0.033121 0.007891
v -0.003236 -0.049305 0.007948
v -0.006615 -0.050010 0.000011
v -0.007249 -0.047280 0.000527
v -0.004089 -0.046965 0.007707
v -0.005163 -0.044416 0.007947
v -0.008572 -0.045131 0.000011
v -0.006625 -0.042041 0.007815
v -0.020711 -0.035191 -0.000046
v -0.027849 -0.034181 -0.000150
v -0.030335 -0.034416 -0.000203
v -0.002752 -0.059650 0.007301
v -0.005667 -0.055740 0.000070
v -0.005652 -0.054460 0.000205
v -0.002442 -0.054135 0.007716
v -0.002712 -0.052185 0.007642
v -0.032666 -0.034771 -0.000195
v -0.034962 -0.035191 0.000126
v -0.037992 -0.036566 0.000040
v -0.036315 -0.035971 -0.000147
v -0.019284 -0.035951 -0.000197
v -0.006266 -0.051845 -0.000129
v -0.006196 -0.053340 -0.000317
v -0.006356 -0.054775 -0.000493
v -0.006445 -0.059485 -0.000482
v -0.006475 -0.061540 -0.000016
v -0.007479 -0.062950 -0.000553
v -0.007554 -0.064680 -0.000049
v -0.007918 -0.065875 0.000261
v -0.014906 -0.073955 -0.000022
v -0.016224 -0.074729 -0.000094
v -0.017916 -0.075449 -0.000227
v -0.020352 -0.076634 -0.000101
v -0.003980 -0.064620 0.007266
v -0.006700 -0.062860 0.000247
v -0.006066 -0.060340 0.000093
v -0.004693 -0.045735 0.007515
v -0.005747 -0.058285 0.000227
f 1 2 3
f 1 3 4
f 1 4 5
f 1 5 6
f 1 6 7
f 1 7 2
f 2 8 9
f 2 9 10
f 2 10 3
f 2 7 11
f 2 11 8
f 3 10 12
f 3 12 4
f 4 12 13
f 4 13 14
f 4 14 15
f 4 15 5
f 5 15 6
f 6 15 16
f 6 16 7
f 7 16 17
f 7 17 18
f 7 18 11
f 8 19 20
f 8 20 21
f 8 21 9
f 8 11 19
f 9 21 10
f 10 21 22
f 10 22 12
f 11 18 23
f 11 23 24
f 11 24 25
f 11 25 26
f 11 26 19
f 12 22 13
f 13 27 14
f 13 22 27
f 14 28 15
f 14 27 28
f 15 28 16
f 16 28 29
f 16 29 17
f 17 29 18
f 18 29 30
f 18 30 31
f 18 31 32
f 18 32 23
f 19 33 34
f 19 34 35
f 19 35 36
f 19 36 20
f 19 26 37
f 19 37 38
f 19 38 39
f 19 39 33
f 20 36 40
f 20 40 21
f 21 40 41
f 21 41 22
f 22 42 27
f 22 41 43
f 22 43 44
f 22 44 42
f 23 32 45
f 23 45 46
f 23 46 47
f 23 47 48
f 23 48 24
f 24 48 49
f 24 49 50
f 24 50 51
f 24 51 25
f 25 52 53
f 25 53 54
f 25 54 55
f 25 55 56
f 25 56 57
f 25 57 58
f 25 58 26
f 25 51 52
f 26 59 60
f 26 60 61
f 26 61 62
f 26 62 37
f 26 58 63
f 26 63 59
f 27 42 64
f 27 64 28
f 28 65 66
f 28 66 29
f 28 64 65
f 29 66 67
f 29 67 30
f 30 68 31
f 30 67 68
f 31 68 32
f 32 68 69
f 32 69 45
f 33 70 71
f 33 71 34
f 33 39 72
f 33 72 70
f 34 71 73
f 34 73 35
f 35 73 36
f 36 73 74
f 36 74 40
f 37 62 75
f 37 75 76
f 37 76 77
f 37 77 78
f 37 78 38
f 38 78 79
f 38 79 80
f 38 80 81
f 38 81 82
f 38 82 83
f 38 83 39
f 39 83 84
f 39 84 72
f 40 43 41
f 40 74 43
f 42 44 85
f 42 85 86
f 42 86 87
f 42 87 88
f 42 88 89
f 42 89 90
f 42 90 91
f 42 91 92
f 42 92 64
f 43 74 85
f 43 85 44
f 45 69 46
f 46 69 47
f 47 93 49
f 47 49 48
f 47 69 94
f 47 94 95
f 47 95 93
f 49 96 50
f 49 93 96
f 50 96 51
f 51 96 97
f 51 97 98
f 51 98 52
f 52 98 99
f 52 99 100
f 52 100 101
f 52 101 53
f 53 101 102
f 53 102 103
f 53 103 54
f 54 103 104
f 54 104 55
f 55 104 105
f 55 105 106
f 55 106 56
f 56 106 107
f 56 107 108
f 56 108 57
f 57 108 109
f 57 109 110
f 57 110 111
f 57 111 112
f 57 112 113
f 57 113 58
f 58 113 114
f 58 114 115
f 58 115 116
f 58 116 117
f 58 117 118
f 58 118 119
f 58 119 120
f 58 120 121
f 58 121 63
f 59 122 123
f 59 123 124
f 59 124 125
f 59 125 126
f 59 126 127
f 59 127 60
f 59 63 128
f 59 128 129
f 59 129 122
f 60 127 130
f 60 130 131
f 60 131 132
f 60 132 61
f 61 132 133
f 61 133 134
f 61 134 135
f 61 135 62
f 62 135 136
f 62 136 137
f 62 137 75
f 63 121 138
f 63 138 139
f 63 139 140
f 63 140 141
f 63 141 142
f 63 142 128
f 64 92 143
f 64 143 65
f 65 143 66
f 66 144 67
f 66 143 144
f 67 145 146
f 67 146 94
f 67 94 68
f 67 144 145
f 68 94 69
f 70 72 147
f 70 147 148
f 70 148 149
f 70 149 73
f 70 73 71
f 72 84 147
f 73 149 74
f 74 149 85
f 75 137 150
f 75 150 76
f 76 151 77
f 76 150 152
f 76 152 151
f 77 153 78
f 77 151 153
f 78 153 154
f 78 154 79
f 79 154 155
f 79 155 80
f 80 155 156
f 80 156 82
f 80 82 81
f 82 156 147
f 82 147 84
f 82 84 83
f 85 149 86
f 86 149 157
f 86 157 147
f 86 147 158
f 86 158 87
f 87 158 156
f 87 156 155
f 87 155 159
f 87 159 160
f 87 160 88
f 88 160 161
f 88 161 162
f 88 162 89
f 89 162 163
f 89 163 164
f 89 164 165
f 89 165 166
f 89 166 167
f 89 167 168
f 89 168 169
f 89 169 170
f 89 170 171
f 89 171 90
f 90 171 172
f 90 172 173
f 90 173 174
f 90 174 175
f 90 175 176
f 90 176 91
f 91 176 177
f 91 177 178
f 91 178 179
f 91 179 180
f 91 180 181
f 91 181 92
f 92 93 95
f 92 95 145
f 92 145 143
f 92 181 182
f 92 182 183
f 92 183 184
f 92 184 93
f 93 184 96
f 94 146 95
f 95 146 145
f 96 185 97
f 96 184 185
f 97 185 186
f 97 186 98
f 98 186 99
f 99 186 185
f 99 185 183
f 99 183 182
f 99 182 100
f 100 187 101
f 100 182 188
f 100 188 189
f 100 189 187
f 101 187 102
f 102 187 103
f 103 187 190
f 103 190 179
f 103 179 104
f 104 179 178
f 104 178 105
f 105 107 106
f 105 178 177
f 105 177 191
f 105 191 107
f 107 109 108
f 107 191 109
f 109 192 110
f 109 191 193
f 109 193 192
f 110 192 111
f 111 192 112
f 112 192 194
f 112 194 195
f 112 195 113
f 113 195 196
f 113 196 197
f 113 197 198
f 113 198 114
f 114 198 199
f 114 199 200
f 114 200 115
f 115 201 174
f 115 174 116
f 115 200 201
f 116 174 202
f 116 202 203
f 116 203 204
f 116 204 117
f 117 204 118
f 118 204 203
f 118 203 205
f 118 205 119
f 119 205 206
f 119 206 120
f 120 206 207
f 120 207 121
f 121 207 208
f 121 208 209
f 121 209 138
f 122 210 166
f 122 166 211
f 122 211 123
f 122 129 210
f 123 211 212
f 123 212 124
f 124 212 125
f 125 212 213
f 125 213 214
f 125 214 215
f 125 215 126
f 126 215 216
f 126 216 127
f 127 216 214
f 127 214 130
f 128 142 217
f 128 217 218
f 128 218 219
f 128 219 220
f 128 220 221
f 128 221 129
f 129 221 222
f 129 222 223
f 129 223 210
f 130 214 224
f 130 224 131
f 131 163 134
f 131 134 133
f 131 133 132
f 131 224 163
f 134 163 225
f 134 225 135
f 135 225 136
f 136 225 226
f 136 226 161
f 136 161 150
f 136 150 137
f 138 209 227
f 138 227 139
f 139 227 140
f 140 228 229
f 140 229 230
f 140 230 141
f 140 227 228
f 141 230 231
f 141 231 142
f 142 231 217
f 143 145 144
f 147 157 149
f 147 149 148
f 147 156 158
f 150 161 232
f 150 232 152
f 151 152 233
f 151 233 153
f 152 232 233
f 153 233 234
f 153 234 154
f 154 234 155
f 155 234 159
f 159 234 235
f 159 235 160
f 160 235 232
f 160 232 161
f 161 226 162
f 162 226 225
f 162 225 163
f 163 224 236
f 163 236 164
f 164 236 213
f 164 213 165
f 165 213 212
f 165 212 166
f 166 212 211
f 166 210 167
f 167 222 168
f 167 210 223
f 167 223 222
f 168 222 219
f 168 219 218
f 168 218 169
f 169 218 237
f 169 237 238
f 169 238 170
f 170 238 239
f 170 239 171
f 171 240 241
f 171 241 242
f 171 242 172
f 171 239 240
f 172 242 243
f 172 243 173
f 173 243 244
f 173 244 203
f 173 203 202
f 173 202 174
f 174 201 175
f 175 201 245
f 175 245 246
f 175 246 247
f 175 247 176
f 176 247 248
f 176 248 191
f 176 191 177
f 179 190 180
f 180 190 181
f 181 190 189
f 181 189 188
f 181 188 182
f 183 185 184
f 187 189 190
f 191 248 193
f 192 193 194
f 193 248 247
f 193 247 246
f 193 246 196
f 193 196 194
f 194 196 195
f 196 246 197
f 197 246 245
f 197 245 201
f 197 201 200
f 197 200 199
f 197 199 198
f 203 244 206
f 203 206 205
f 206 244 243
f 206 243 249
f 206 249 207
f 207 249 208
f 208 249 209
f 209 249 250
f 209 250 251
f 209 251 227
f 213 236 214
f 214 236 224
f 214 216 215
f 217 231 218
f 218 231 237
f 219 222 252
f 219 252 220
f 220 252 221
f 221 252 222
f 227 251 253
f 227 253 228
f 228 239 238
f 228 238 229
f 228 253 240
f 228 240 239
f 229 238 237
f 229 237 231
f 229 231 230
f 232 235 233
f 233 235 234
f 240 253 251
f 240 251 241
f 241 250 243
f 241 243 242
f 241 251 250
f 243 250 249
