v -0.052422 -0.064802 0.038916
v -0.049985 -0.064802 0.039131
v -0.052500 -0.064802 0.041911
v -0.052332 -0.063505 0.010583
v -0.049668 -0.063505 0.008268
v -0.047704 -0.045519 0.030397
v -0.047704 -0.045469 0.031037
v -0.050062 -0.064802 0.043831
v -0.052513 -0.064802 0.042551
v -0.052345 -0.063505 0.011218
v -0.052461 -0.063085 0.010583
v -0.052384 -0.063295 0.009938
v -0.052366 -0.063295 0.009358
v -0.052338 -0.063262 0.008493
v -0.052730 -0.064060 0.040786
v -0.052856 -0.061098 0.008368
v -0.053305 -0.057234 0.008268
v -0.050997 -0.057156 0.008268
v -0.047704 -0.044077 0.008413
v -0.047704 -0.044657 0.010613
v -0.047704 -0.044702 0.011218
v -0.047704 -0.045344 0.031677
v -0.050243 -0.064802 0.052145
v -0.052650 -0.064430 0.043191
v -0.050454 -0.064802 0.059090
v -0.052879 -0.064582 0.059210
v -0.052662 -0.062243 0.009938
v -0.052599 -0.062445 0.009298
v -0.052820 -0.063702 0.039996
v -0.052971 -0.063085 0.038911
v -0.053382 -0.062827 0.057900
v -0.052624 -0.062193 0.008468
v -0.053158 -0.063725 0.059210
v -0.052700 -0.062005 0.009298
v -0.052879 -0.061165 0.009298
v -0.053011 -0.060528 0.009298
v -0.052979 -0.060463 0.008468
v -0.053064 -0.059888 0.008468
v -0.053139 -0.059248 0.008468
v -0.053207 -0.058609 0.008468
v -0.053270 -0.057971 0.008468
v -0.053368 -0.056961 0.009093
v -0.053344 -0.056689 0.008508
v -0.053329 -0.056064 0.008413
v -0.053322 -0.055409 0.008413
v -0.053020 -0.051575 0.008538
v -0.052909 -0.050938 0.008538
v -0.051699 -0.047004 0.008448
v -0.047754 -0.040103 0.008528
v -0.047740 -0.039946 0.010713
v -0.047716 -0.039593 0.023347
v -0.047704 -0.039308 0.036791
v -0.047704 -0.043277 0.038916
v -0.050335 -0.064802 0.055980
v -0.050258 -0.064802 0.052785
v -0.050374 -0.064802 0.057120
v -0.050045 -0.046799 0.059345
v -0.051982 -0.056192 0.059345
v -0.054229 -0.056002 0.059345
v -0.052893 -0.061165 0.009938
v -0.053489 -0.062445 0.058540
v -0.053637 -0.061805 0.058540
v -0.053256 -0.061808 0.037426
v -0.052916 -0.061165 0.011218
v -0.053344 -0.063007 0.058540
v -0.053352 -0.063015 0.059210
v -0.053499 -0.062445 0.059210
v -0.053117 -0.059888 0.009298
v -0.053763 -0.061168 0.057900
v -0.053871 -0.060526 0.057260
v -0.053192 -0.059248 0.009298
v -0.053254 -0.058609 0.009298
v -0.053310 -0.057971 0.009298
v -0.053387 -0.057266 0.009938
v -0.053409 -0.056689 0.009938
v -0.053364 -0.056082 0.009003
v -0.053337 -0.055409 0.008663
v -0.053318 -0.054772 0.008538
v -0.053300 -0.054192 0.008538
v -0.053257 -0.053550 0.008538
v -0.053140 -0.052465 0.008573
v -0.053213 -0.052852 0.009298
v -0.053681 -0.052852 0.036786
v -0.053732 -0.052215 0.045751
v -0.053671 -0.051580 0.048310
v -0.052703 -0.049923 0.009278
v -0.052675 -0.049956 0.008538
v -0.053360 -0.050653 0.039996
v -0.052122 -0.048131 0.008603
v -0.052055 -0.047831 0.009298
v -0.051787 -0.047101 0.009298
v -0.051311 -0.046037 0.008538
v -0.050870 -0.045054 0.008538
v -0.050612 -0.044542 0.008538
v -0.049968 -0.043340 0.008538
v -0.048245 -0.040705 0.008538
v -0.047766 -0.040051 0.009298
v -0.047771 -0.040018 0.009938
v -0.048180 -0.040483 0.011218
v -0.048182 -0.040148 0.024002
v -0.048330 -0.040286 0.025917
v -0.048424 -0.040168 0.036791
v -0.048011 -0.039653 0.037431
v -0.047704 -0.039268 0.038916
v -0.052495 -0.046799 0.059345
v -0.054214 -0.055329 0.059345
v -0.054007 -0.055684 0.045991
v -0.053627 -0.056052 0.022732
v -0.054228 -0.056691 0.059210
v -0.054205 -0.057329 0.059210
v -0.054169 -0.057969 0.059210
v -0.054129 -0.058594 0.059210
v -0.054045 -0.059303 0.059210
v -0.053758 -0.061168 0.059210
v -0.053646 -0.061805 0.059210
v -0.053351 -0.061418 0.038066
v -0.053212 -0.059248 0.009938
v -0.053865 -0.059248 0.046391
v -0.053767 -0.061168 0.058540
v -0.053881 -0.060526 0.057900
v -0.054005 -0.059573 0.057205
v -0.053275 -0.058609 0.009938
v -0.053328 -0.057971 0.009938
v -0.053365 -0.057959 0.011218
v -0.053392 -0.057391 0.010528
v -0.053410 -0.057329 0.011218
v -0.053425 -0.056689 0.010583
v -0.053400 -0.056052 0.009938
v -0.053417 -0.056052 0.010583
v -0.053280 -0.053490 0.009298
v -0.053396 -0.055409 0.010583
v -0.053377 -0.054605 0.011048
v -0.053715 -0.053490 0.034871
v -0.053780 -0.053490 0.038811
v -0.053702 -0.052852 0.038066
v -0.053993 -0.052930 0.056620
v -0.053823 -0.052215 0.052145
v -0.053881 -0.052215 0.056620
v -0.053725 -0.051580 0.052785
v -0.053667 -0.050858 0.059345
v -0.053551 -0.050301 0.059345
v -0.052443 -0.049021 0.009938
v -0.052428 -0.049021 0.009298
v -0.053174 -0.049661 0.043191
v -0.053029 -0.049021 0.045111
v -0.052229 -0.048381 0.009298
v -0.052065 -0.047804 0.009938
v -0.052021 -0.047624 0.010578
v -0.051810 -0.047101 0.009938
v -0.051484 -0.046369 0.009298
v -0.051249 -0.045822 0.009298
v -0.050838 -0.044924 0.009338
v -0.050738 -0.044679 0.009938
v -0.050239 -0.043817 0.008603
v -0.050006 -0.043235 0.011858
v -0.049554 -0.042580 0.009298
v -0.049547 -0.042637 0.008603
v -0.048798 -0.041483 0.008603
v -0.049051 -0.041798 0.009298
v -0.048147 -0.040525 0.009298
v -0.048306 -0.040625 0.011858
v -0.048665 -0.040690 0.027842
v -0.048855 -0.040745 0.036146
v -0.048431 -0.040778 0.012493
v -0.048874 -0.040720 0.038916
v -0.048181 -0.039831 0.038916
v -0.049321 -0.041365 0.038916
v -0.049620 -0.041825 0.038916
v -0.050115 -0.042617 0.038916
v -0.050597 -0.043447 0.038916
v -0.050918 -0.044022 0.038811
v -0.051286 -0.044764 0.038916
v -0.051866 -0.046039 0.038916
v -0.052214 -0.046881 0.038711
v -0.052567 -0.047024 0.058295
v -0.052744 -0.047489 0.059345
v -0.054179 -0.054689 0.059345
v -0.053850 -0.054132 0.040631
v -0.053607 -0.054772 0.023372
v -0.053623 -0.055409 0.022732
v -0.053705 -0.057329 0.028477
v -0.054178 -0.057329 0.057260
v -0.054187 -0.057329 0.057900
v -0.054000 -0.058134 0.048950
v -0.053931 -0.058609 0.046391
v -0.054019 -0.059501 0.057900
v -0.053871 -0.060526 0.058540
v -0.053305 -0.058609 0.011218
v -0.053291 -0.058609 0.010583
v -0.053557 -0.058609 0.025282
v -0.053842 -0.058609 0.041271
v -0.053371 -0.058041 0.011858
v -0.053450 -0.057971 0.015698
v -0.053850 -0.057969 0.038916
v -0.053458 -0.055409 0.013778
v -0.053409 -0.055409 0.011218
v -0.053561 -0.054132 0.022732
v -0.053596 -0.054772 0.022732
v -0.054136 -0.054132 0.059345
v -0.054080 -0.053495 0.059345
v -0.054003 -0.052865 0.059345
v -0.053903 -0.052215 0.059345
v -0.053802 -0.051580 0.059345
v -0.053388 -0.049616 0.059345
v -0.052246 -0.048381 0.009938
v -0.052484 -0.048381 0.024002
v -0.053203 -0.049021 0.057900
v -0.053018 -0.048381 0.057900
v -0.052822 -0.047779 0.057900
v -0.052697 -0.048154 0.041911
v -0.051826 -0.047101 0.010578
v -0.052513 -0.047741 0.038921
v -0.052372 -0.047101 0.043831
v -0.051926 -0.046709 0.025282
v -0.051473 -0.046207 0.011298
v -0.051503 -0.046324 0.010578
v -0.051022 -0.045182 0.011858
v -0.050851 -0.044777 0.012493
v -0.050682 -0.044472 0.011858
v -0.050668 -0.044509 0.010578
v -0.050338 -0.043922 0.009938
v -0.050363 -0.043902 0.011218
v -0.050378 -0.043902 0.011858
v -0.050015 -0.043225 0.012493
v -0.049687 -0.042687 0.011858
v -0.049134 -0.041985 0.008663
v -0.049350 -0.042185 0.010578
v -0.049338 -0.042193 0.009938
v -0.048947 -0.041583 0.010578
v -0.048844 -0.041408 0.011218
v -0.048894 -0.041018 0.027352
v -0.048837 -0.041100 0.021452
v -0.048744 -0.041243 0.011858
v -0.049118 -0.041343 0.027842
v -0.049431 -0.041815 0.027842
v -0.049635 -0.042143 0.027202
v -0.050023 -0.042812 0.025282
v -0.050304 -0.043352 0.023372
v -0.050600 -0.043902 0.023372
v -0.050791 -0.044255 0.024002
v -0.050957 -0.044569 0.024642
v -0.051250 -0.045182 0.024642
v -0.051498 -0.045704 0.025282
v -0.051558 -0.045889 0.024002
v -0.053220 -0.049021 0.059345
v -0.052826 -0.047764 0.058540
v -0.053002 -0.048299 0.059300
v -0.053890 -0.057969 0.041271
v -0.052580 -0.047741 0.043191
v -0.051049 -0.045182 0.013138
v -0.051037 -0.045182 0.012493
v -0.050776 -0.044602 0.013138
v -0.050299 -0.043365 0.022732
v -0.049895 -0.042625 0.024642
v -0.049065 -0.041405 0.022732
v -0.049608 -0.042185 0.024002
f 1 2 8
f 1 8 23
f 1 23 55
f 1 55 54
f 1 54 56
f 1 56 25
f 1 25 9
f 1 9 3
f 1 3 4
f 1 4 5
f 1 5 2
f 2 6 7
f 2 7 8
f 2 5 6
f 3 9 4
f 4 10 11
f 4 11 12
f 4 12 13
f 4 13 14
f 4 14 5
f 4 9 15
f 4 15 10
f 5 14 16
f 5 16 17
f 5 17 18
f 5 18 19
f 5 19 20
f 5 20 21
f 5 21 6
f 6 21 20
f 6 20 19
f 6 19 52
f 6 52 104
f 6 104 53
f 6 53 22
f 6 22 7
f 7 22 8
f 8 22 23
f 9 24 15
f 9 25 26
f 9 26 24
f 10 15 11
f 11 27 28
f 11 28 12
f 11 15 29
f 11 29 30
f 11 30 31
f 11 31 27
f 12 28 13
f 13 28 14
f 14 32 16
f 14 28 32
f 15 24 26
f 15 26 33
f 15 33 29
f 16 32 34
f 16 34 35
f 16 35 36
f 16 36 37
f 16 37 38
f 16 38 17
f 17 38 39
f 17 39 40
f 17 40 41
f 17 41 42
f 17 42 43
f 17 43 44
f 17 44 45
f 17 45 46
f 17 46 47
f 17 47 48
f 17 48 19
f 17 19 18
f 19 48 49
f 19 49 50
f 19 50 51
f 19 51 52
f 22 53 54
f 22 54 55
f 22 55 23
f 25 56 53
f 25 53 57
f 25 57 58
f 25 58 26
f 26 58 59
f 26 59 33
f 27 60 34
f 27 34 28
f 27 31 61
f 27 61 62
f 27 62 63
f 27 63 64
f 27 64 60
f 28 34 32
f 29 33 30
f 30 33 31
f 31 33 65
f 31 65 66
f 31 66 67
f 31 67 61
f 33 59 66
f 33 66 65
f 34 60 35
f 35 60 36
f 36 68 37
f 36 60 64
f 36 64 69
f 36 69 70
f 36 70 68
f 37 68 38
f 38 68 71
f 38 71 39
f 39 71 40
f 40 71 41
f 41 71 72
f 41 72 73
f 41 73 42
f 42 73 74
f 42 74 75
f 42 75 43
f 43 45 44
f 43 75 76
f 43 76 77
f 43 77 45
f 45 77 78
f 45 78 79
f 45 79 80
f 45 80 46
f 46 80 81
f 46 81 82
f 46 82 83
f 46 83 84
f 46 84 85
f 46 85 47
f 47 86 87
f 47 87 48
f 47 85 88
f 47 88 86
f 48 87 89
f 48 89 90
f 48 90 91
f 48 91 92
f 48 92 93
f 48 93 94
f 48 94 95
f 48 95 96
f 48 96 49
f 49 96 97
f 49 97 50
f 50 97 98
f 50 98 99
f 50 99 100
f 50 100 51
f 51 100 101
f 51 101 102
f 51 102 103
f 51 103 52
f 52 103 104
f 53 104 57
f 53 56 54
f 57 105 176
f 57 176 245
f 57 245 204
f 57 204 141
f 57 141 140
f 57 140 203
f 57 203 202
f 57 202 201
f 57 201 200
f 57 200 199
f 57 199 177
f 57 177 106
f 57 106 59
f 57 59 58
f 57 104 105
f 59 106 107
f 59 107 108
f 59 108 109
f 59 109 110
f 59 110 111
f 59 111 112
f 59 112 113
f 59 113 114
f 59 114 115
f 59 115 67
f 59 67 66
f 61 67 62
f 62 67 115
f 62 115 69
f 62 69 63
f 63 69 116
f 63 116 64
f 64 116 69
f 68 117 71
f 68 70 118
f 68 118 117
f 69 115 119
f 69 119 120
f 69 120 70
f 70 120 121
f 70 121 118
f 71 117 122
f 71 122 72
f 72 122 73
f 73 122 123
f 73 123 74
f 74 123 124
f 74 124 125
f 74 125 126
f 74 126 127
f 74 127 75
f 75 128 76
f 75 127 129
f 75 129 128
f 76 128 77
f 77 128 78
f 78 128 79
f 79 130 80
f 79 128 131
f 79 131 132
f 79 132 130
f 80 130 82
f 80 82 81
f 82 130 133
f 82 133 83
f 83 133 134
f 83 134 135
f 83 135 84
f 84 136 137
f 84 137 85
f 84 135 136
f 85 137 138
f 85 138 139
f 85 139 140
f 85 140 141
f 85 141 88
f 86 142 143
f 86 143 89
f 86 89 87
f 86 88 144
f 86 144 145
f 86 145 142
f 88 141 144
f 89 143 146
f 89 146 90
f 90 146 147
f 90 147 148
f 90 148 149
f 90 149 91
f 91 150 92
f 91 149 150
f 92 150 151
f 92 151 93
f 93 151 152
f 93 152 94
f 94 152 153
f 94 153 154
f 94 154 95
f 95 154 155
f 95 155 156
f 95 156 157
f 95 157 158
f 95 158 96
f 96 158 159
f 96 159 160
f 96 160 97
f 97 160 98
f 98 160 99
f 99 160 161
f 99 161 100
f 100 161 101
f 101 162 163
f 101 163 102
f 101 161 164
f 101 164 162
f 102 163 165
f 102 165 166
f 102 166 103
f 103 166 104
f 104 166 105
f 105 166 165
f 105 165 167
f 105 167 168
f 105 168 169
f 105 169 170
f 105 170 171
f 105 171 172
f 105 172 173
f 105 173 174
f 105 174 175
f 105 175 176
f 106 177 178
f 106 178 179
f 106 179 180
f 106 180 107
f 107 180 108
f 108 180 127
f 108 127 109
f 109 181 182
f 109 182 183
f 109 183 110
f 109 127 181
f 110 183 111
f 111 183 182
f 111 182 184
f 111 184 185
f 111 185 112
f 112 185 121
f 112 121 186
f 112 186 113
f 113 186 120
f 113 120 187
f 113 187 114
f 114 187 120
f 114 120 119
f 114 119 115
f 117 188 189
f 117 189 122
f 117 118 190
f 117 190 188
f 118 121 185
f 118 185 191
f 118 191 190
f 120 186 121
f 122 189 124
f 122 124 123
f 124 192 126
f 124 126 125
f 124 189 188
f 124 188 192
f 126 192 193
f 126 193 194
f 126 194 181
f 126 181 127
f 127 180 129
f 128 129 131
f 129 180 195
f 129 195 196
f 129 196 131
f 130 132 197
f 130 197 133
f 131 196 132
f 132 196 195
f 132 195 180
f 132 180 198
f 132 198 197
f 133 197 134
f 134 178 177
f 134 177 199
f 134 199 136
f 134 136 135
f 134 197 178
f 136 199 200
f 136 200 201
f 136 201 202
f 136 202 138
f 136 138 137
f 138 202 203
f 138 203 139
f 139 203 140
f 141 204 144
f 142 205 143
f 142 145 206
f 142 206 205
f 143 205 146
f 144 204 145
f 145 204 207
f 145 207 208
f 145 208 209
f 145 209 210
f 145 210 206
f 146 205 147
f 147 205 148
f 148 211 149
f 148 205 206
f 148 206 212
f 148 212 213
f 148 213 174
f 148 174 214
f 148 214 211
f 149 211 215
f 149 215 216
f 149 216 150
f 150 216 151
f 151 216 215
f 151 215 217
f 151 217 152
f 152 217 218
f 152 218 153
f 153 218 219
f 153 219 220
f 153 220 221
f 153 221 154
f 154 221 155
f 155 221 222
f 155 222 223
f 155 223 224
f 155 224 225
f 155 225 156
f 156 159 226
f 156 226 157
f 156 225 227
f 156 227 228
f 156 228 159
f 157 226 158
f 158 226 159
f 159 228 229
f 159 229 160
f 160 229 161
f 161 229 230
f 161 230 164
f 162 231 163
f 162 164 231
f 163 231 167
f 163 167 165
f 164 232 231
f 164 230 233
f 164 233 232
f 167 231 234
f 167 234 235
f 167 235 236
f 167 236 168
f 168 236 237
f 168 237 169
f 169 237 170
f 170 237 238
f 170 238 171
f 171 238 239
f 171 239 240
f 171 240 172
f 172 240 241
f 172 241 242
f 172 242 173
f 173 242 243
f 173 243 244
f 173 244 214
f 173 214 174
f 174 213 175
f 175 213 176
f 176 213 209
f 176 209 246
f 176 246 247
f 176 247 245
f 178 197 179
f 179 197 198
f 179 198 180
f 181 194 248
f 181 248 182
f 182 248 184
f 184 248 185
f 185 248 194
f 185 194 193
f 185 193 191
f 188 193 192
f 188 190 193
f 190 191 193
f 204 245 207
f 206 210 212
f 207 245 208
f 208 245 247
f 208 247 246
f 208 246 209
f 209 213 249
f 209 249 210
f 210 249 212
f 211 214 215
f 212 249 213
f 214 244 215
f 215 250 251
f 215 251 217
f 215 244 250
f 217 251 218
f 218 252 219
f 218 251 250
f 218 250 242
f 218 242 241
f 218 241 240
f 218 240 252
f 219 252 239
f 219 239 223
f 219 223 222
f 219 222 220
f 220 222 221
f 223 253 224
f 223 239 253
f 224 253 225
f 225 253 237
f 225 237 254
f 225 254 227
f 227 255 232
f 227 232 230
f 227 230 229
f 227 229 228
f 227 254 256
f 227 256 255
f 230 232 233
f 231 256 234
f 231 232 255
f 231 255 256
f 234 256 235
f 235 256 236
f 236 256 254
f 236 254 237
f 237 253 238
f 238 253 239
f 239 252 240
f 242 250 243
f 243 250 244
