v -0.006113 -0.064163 0.008409
v -0.006309 -0.064163 0.010587
v -0.026582 -0.038445 0.019954
v -0.026582 -0.038279 0.018574
v -0.026582 -0.038087 0.017618
v -0.026582 -0.037785 0.016499
v -0.026582 -0.037517 0.015700
v -0.026582 -0.037109 0.014695
v -0.026582 -0.036694 0.013788
v -0.026582 -0.033682 0.008126
v -0.004907 -0.057154 0.008126
v -0.003447 -0.063932 0.008539
v -0.003421 -0.064163 0.010903
v -0.006358 -0.064163 0.011544
v -0.026582 -0.038491 0.020780
v -0.027894 -0.032520 0.038900
v -0.026381 -0.030588 0.008398
v -0.021410 -0.031422 0.008164
v -0.020417 -0.031697 0.008126
v -0.027894 -0.030063 0.038900
v -0.003088 -0.049749 0.008126
v -0.002285 -0.056803 0.008398
v -0.003082 -0.062627 0.008506
v -0.003056 -0.062762 0.009305
v -0.003391 -0.063940 0.009626
v -0.001099 -0.061143 0.060541
v -0.003088 -0.064163 0.029131
v -0.006271 -0.064163 0.017297
v -0.026582 -0.038510 0.021774
v -0.027894 -0.032501 0.040818
v -0.025519 -0.030640 0.008398
v -0.027786 -0.025606 0.060916
v -0.026813 -0.025609 0.060861
v -0.024772 -0.030716 0.008414
v -0.023840 -0.030863 0.008398
v -0.023037 -0.031022 0.008398
v -0.022231 -0.031195 0.008398
v -0.020712 -0.031422 0.009544
v -0.020666 -0.031542 0.008664
v -0.018820 -0.032169 0.008414
v -0.017535 -0.032701 0.008463
v -0.014007 -0.034618 0.008398
v -0.007851 -0.040261 0.008126
v -0.019778 -0.031788 0.008664
v -0.027894 -0.028874 0.063567
v -0.005316 -0.043948 0.008398
v -0.004913 -0.044760 0.008398
v -0.004373 -0.045930 0.008398
v -0.003975 -0.046877 0.008403
v -0.003537 -0.048036 0.008382
v -0.003222 -0.049070 0.008398
v -0.002953 -0.049893 0.008898
v -0.002784 -0.050821 0.008425
v -0.002579 -0.051893 0.008398
v -0.002273 -0.054448 0.008398
v -0.002247 -0.055731 0.008398
v -0.002407 -0.058894 0.008539
v -0.002556 -0.060204 0.008539
v 0.001938 -0.049477 0.061410
v -0.002772 -0.061366 0.008539
v -0.002731 -0.061423 0.009305
v -0.002895 -0.062272 0.010185
v -0.002912 -0.064163 0.038911
v -0.001441 -0.061143 0.063333
v -0.005614 -0.064163 0.038058
v -0.026582 -0.038483 0.023046
v -0.027894 -0.032324 0.053418
v -0.026080 -0.025651 0.060905
v -0.026597 -0.025670 0.061595
v -0.027675 -0.026459 0.063013
v -0.027567 -0.025757 0.061997
v -0.023297 -0.026040 0.061252
v -0.021860 -0.026315 0.061013
v -0.021063 -0.026459 0.061095
v -0.019570 -0.026855 0.060872
v -0.017862 -0.027342 0.061095
v -0.016878 -0.027685 0.061095
v -0.017856 -0.032463 0.009305
v -0.017409 -0.032656 0.009305
v -0.016361 -0.033233 0.008534
v -0.013262 -0.035120 0.008441
v -0.012050 -0.036004 0.008398
v -0.014959 -0.033996 0.008555
v -0.014725 -0.034030 0.009305
v -0.014068 -0.034445 0.009305
v -0.013175 -0.035045 0.009305
v -0.011414 -0.036494 0.008398
v -0.008511 -0.039415 0.008300
v -0.007924 -0.040027 0.008664
v -0.007302 -0.040868 0.008403
v -0.006715 -0.041642 0.008517
v -0.005833 -0.043008 0.008528
v -0.027894 -0.030271 0.063241
v -0.026337 -0.028232 0.063627
v -0.027567 -0.027568 0.063540
v -0.001630 -0.040517 0.061095
v -0.000214 -0.043057 0.061030
v 0.000177 -0.043903 0.061095
v 0.000551 -0.044862 0.060965
v 0.000957 -0.045941 0.060921
v 0.001348 -0.047092 0.061095
v 0.001632 -0.048138 0.061350
v -0.002366 -0.053108 0.008534
v -0.002501 -0.060204 0.009305
v 0.001658 -0.048930 0.062095
v 0.001465 -0.049632 0.062692
v -0.005579 -0.064163 0.038911
v 0.000782 -0.049168 0.063208
v -0.000278 -0.049323 0.063518
v -0.000599 -0.048372 0.063540
v -0.002699 -0.061143 0.062834
v -0.026582 -0.038396 0.024111
v -0.027894 -0.032078 0.060584
v -0.027894 -0.032177 0.059378
v -0.024415 -0.025885 0.061415
v -0.024599 -0.026176 0.062573
v -0.026655 -0.026051 0.062595
v -0.026813 -0.026904 0.063361
v -0.026813 -0.026587 0.063149
v -0.022365 -0.026319 0.062008
v -0.020742 -0.026572 0.061573
v -0.019489 -0.026915 0.061736
v -0.018624 -0.027142 0.061415
v -0.017520 -0.027549 0.061828
v -0.015721 -0.028217 0.061318
v -0.014229 -0.028897 0.060916
v -0.013178 -0.029436 0.061030
v -0.011168 -0.036558 0.009175
v -0.011752 -0.030286 0.061095
v -0.010900 -0.030840 0.061095
v -0.009150 -0.032067 0.061209
v -0.010637 -0.037124 0.008534
v -0.009197 -0.038608 0.008463
v -0.007433 -0.040536 0.009305
v -0.004773 -0.036241 0.060774
v -0.004040 -0.037087 0.061095
v -0.002799 -0.038732 0.061095
v -0.002214 -0.039604 0.060872
v -0.006101 -0.042412 0.009305
v -0.027894 -0.031150 0.062567
v -0.002197 -0.044699 0.063567
v -0.011472 -0.033671 0.063627
v -0.018820 -0.029833 0.063632
v -0.019459 -0.029195 0.063616
v -0.025537 -0.027912 0.063605
v -0.026813 -0.027274 0.063496
v -0.000938 -0.041755 0.061415
v -0.002247 -0.039680 0.061807
v -0.001356 -0.041136 0.061828
v -0.000173 -0.043473 0.061899
v 0.000972 -0.046175 0.061676
v 0.001124 -0.047039 0.062046
v 0.001243 -0.048217 0.062556
v -0.003409 -0.061143 0.062122
v -0.004040 -0.061143 0.060763
v 0.000291 -0.047945 0.063306
v 0.000364 -0.047092 0.063073
v -0.000331 -0.047571 0.063453
v -0.002515 -0.042620 0.063507
v -0.027894 -0.031742 0.061736
v -0.023297 -0.026304 0.062410
v -0.025537 -0.026183 0.062665
v -0.024851 -0.026851 0.063246
v -0.022015 -0.027013 0.062986
v -0.025858 -0.027044 0.063404
v -0.020119 -0.026953 0.062350
v -0.017862 -0.027723 0.062480
v -0.016472 -0.028048 0.062013
v -0.014574 -0.028867 0.061953
v -0.013105 -0.029538 0.061850
v -0.007559 -0.033286 0.061095
v -0.011119 -0.030773 0.061818
v -0.008280 -0.032720 0.061415
v -0.009863 -0.037876 0.008599
v -0.006303 -0.034498 0.061415
v -0.003520 -0.037747 0.061155
v -0.003926 -0.037306 0.061676
v -0.003158 -0.041982 0.063556
v -0.005076 -0.039423 0.063594
v -0.006356 -0.037826 0.063605
v -0.011472 -0.033029 0.063605
v -0.012269 -0.032709 0.063611
v -0.006995 -0.036868 0.063600
v -0.017862 -0.029833 0.063611
v -0.017222 -0.029833 0.063578
v -0.020417 -0.028553 0.063567
v -0.021378 -0.028553 0.063600
v -0.022015 -0.027712 0.063453
v -0.003388 -0.038162 0.062013
v -0.002816 -0.038981 0.062013
v -0.002083 -0.040653 0.062589
v -0.000938 -0.042314 0.062372
v 0.000382 -0.044903 0.062008
v 0.000417 -0.046130 0.062752
v -0.000001 -0.046428 0.063170
v -0.001096 -0.043903 0.063241
v -0.001473 -0.044220 0.063437
v -0.000894 -0.045877 0.063442
v -0.000074 -0.045171 0.062888
v -0.002959 -0.041250 0.063437
v -0.020882 -0.027451 0.063127
v -0.019778 -0.027617 0.063024
v -0.018592 -0.027632 0.062671
v -0.016840 -0.028361 0.062812
v -0.015619 -0.028851 0.062758
v -0.013651 -0.029580 0.062437
v -0.012369 -0.030108 0.062127
v -0.007048 -0.033894 0.061981
v -0.008683 -0.032675 0.062296
v -0.007658 -0.033384 0.062019
v -0.006145 -0.035132 0.062486
v -0.004869 -0.036679 0.062513
v -0.005076 -0.038785 0.063545
v -0.004116 -0.040544 0.063567
v -0.003499 -0.040265 0.063426
v -0.007956 -0.035909 0.063594
v -0.011417 -0.032335 0.063469
v -0.012748 -0.031508 0.063464
v -0.014664 -0.031108 0.063594
v -0.006788 -0.036139 0.063448
v -0.015622 -0.030471 0.063562
v -0.016302 -0.029727 0.063464
v -0.017573 -0.029070 0.063431
v -0.019497 -0.028342 0.063426
v -0.020417 -0.028036 0.063426
v -0.004162 -0.037611 0.062551
v -0.003295 -0.038755 0.062556
v -0.002889 -0.040076 0.063013
v -0.001625 -0.041457 0.062622
v -0.000407 -0.044148 0.062817
v -0.002311 -0.041880 0.063333
v -0.001303 -0.042888 0.063051
v -0.019118 -0.027949 0.063138
v -0.018180 -0.028293 0.063160
v -0.016586 -0.029025 0.063252
v -0.014474 -0.029429 0.062774
v -0.013000 -0.030278 0.062828
v -0.011899 -0.030837 0.062725
v -0.007112 -0.034460 0.062812
v -0.008204 -0.033441 0.062736
v -0.005293 -0.036422 0.062779
v -0.003362 -0.039525 0.063094
v -0.004177 -0.038887 0.063290
v -0.004653 -0.038113 0.063257
v -0.007722 -0.034837 0.063323
v -0.008642 -0.033852 0.063268
v -0.010348 -0.032648 0.063290
v -0.012950 -0.030893 0.063279
v -0.013800 -0.030674 0.063382
v -0.014652 -0.030433 0.063442
v -0.006995 -0.035188 0.063165
v -0.015412 -0.029780 0.063350
v -0.011589 -0.031625 0.063192
v -0.009276 -0.033014 0.063051
v -0.006160 -0.035890 0.063051
v -0.004974 -0.037238 0.063018
f 1 2 3
f 1 3 4
f 1 4 5
f 1 5 6
f 1 6 7
f 1 7 8
f 1 8 9
f 1 9 10
f 1 10 11
f 1 11 12
f 1 12 13
f 1 13 27
f 1 27 63
f 1 63 107
f 1 107 65
f 1 65 28
f 1 28 14
f 1 14 2
f 2 14 3
f 3 15 16
f 3 16 4
f 3 14 15
f 4 16 5
f 5 16 6
f 6 16 7
f 7 16 8
f 8 16 9
f 9 16 10
f 10 17 18
f 10 18 19
f 10 19 43
f 10 43 21
f 10 21 11
f 10 16 20
f 10 20 17
f 11 21 22
f 11 22 23
f 11 23 12
f 12 23 24
f 12 24 25
f 12 25 13
f 13 26 27
f 13 25 26
f 14 28 29
f 14 29 15
f 15 29 16
f 16 30 67
f 16 67 114
f 16 114 113
f 16 113 160
f 16 160 140
f 16 140 93
f 16 93 45
f 16 45 20
f 16 29 30
f 17 31 18
f 17 20 32
f 17 32 33
f 17 33 31
f 18 31 34
f 18 34 35
f 18 35 36
f 18 36 37
f 18 37 38
f 18 38 39
f 18 39 19
f 19 40 41
f 19 41 42
f 19 42 43
f 19 39 44
f 19 44 40
f 20 45 32
f 21 43 46
f 21 46 47
f 21 47 48
f 21 48 49
f 21 49 50
f 21 50 51
f 21 51 52
f 21 52 53
f 21 53 54
f 21 54 55
f 21 55 56
f 21 56 22
f 22 57 58
f 22 58 23
f 22 56 59
f 22 59 57
f 23 58 60
f 23 60 24
f 24 61 62
f 24 62 26
f 24 26 25
f 24 60 61
f 26 63 27
f 26 62 59
f 26 59 64
f 26 64 63
f 28 65 66
f 28 66 29
f 29 66 67
f 29 67 30
f 31 33 68
f 31 68 34
f 32 69 33
f 32 45 70
f 32 70 71
f 32 71 69
f 33 69 68
f 34 68 72
f 34 72 35
f 35 72 73
f 35 73 74
f 35 74 36
f 36 74 37
f 37 74 38
f 38 44 39
f 38 74 75
f 38 75 76
f 38 76 44
f 40 44 77
f 40 77 78
f 40 78 41
f 41 78 79
f 41 79 80
f 41 80 42
f 42 81 82
f 42 82 43
f 42 80 83
f 42 83 84
f 42 84 85
f 42 85 86
f 42 86 81
f 43 82 87
f 43 87 88
f 43 88 89
f 43 89 90
f 43 90 91
f 43 91 92
f 43 92 46
f 44 76 77
f 45 93 64
f 45 64 94
f 45 94 95
f 45 95 70
f 46 92 96
f 46 96 97
f 46 97 47
f 47 97 48
f 48 97 98
f 48 98 49
f 49 98 99
f 49 99 100
f 49 100 50
f 50 100 101
f 50 101 51
f 51 101 52
f 52 101 102
f 52 102 53
f 53 102 59
f 53 59 54
f 54 103 55
f 54 59 103
f 55 103 59
f 55 59 56
f 57 104 58
f 57 59 104
f 58 104 60
f 59 62 61
f 59 61 104
f 59 102 105
f 59 105 106
f 59 106 64
f 60 104 61
f 63 64 107
f 64 106 108
f 64 108 109
f 64 109 110
f 64 110 94
f 64 93 111
f 64 111 107
f 65 107 66
f 66 107 112
f 66 112 113
f 66 113 114
f 66 114 67
f 68 69 115
f 68 115 72
f 69 71 116
f 69 116 115
f 70 117 71
f 70 95 118
f 70 118 119
f 70 119 117
f 71 117 116
f 72 115 120
f 72 120 121
f 72 121 74
f 72 74 73
f 74 121 122
f 74 122 75
f 75 122 123
f 75 123 76
f 76 123 124
f 76 124 77
f 77 125 126
f 77 126 79
f 77 79 78
f 77 124 125
f 79 126 80
f 80 126 127
f 80 127 84
f 80 84 83
f 81 86 82
f 82 86 128
f 82 128 87
f 84 127 129
f 84 129 85
f 85 129 130
f 85 130 86
f 86 130 131
f 86 131 128
f 87 128 132
f 87 132 88
f 88 132 133
f 88 133 89
f 89 134 90
f 89 133 135
f 89 135 136
f 89 136 134
f 90 134 91
f 91 134 137
f 91 137 138
f 91 138 139
f 91 139 92
f 92 139 96
f 93 140 111
f 94 110 141
f 94 141 142
f 94 142 143
f 94 143 144
f 94 144 145
f 94 145 95
f 95 145 146
f 95 146 118
f 96 147 97
f 96 139 138
f 96 138 137
f 96 137 148
f 96 148 149
f 96 149 147
f 97 147 150
f 97 150 98
f 98 151 99
f 98 150 151
f 99 151 100
f 100 151 101
f 101 151 102
f 102 151 152
f 102 152 105
f 105 152 153
f 105 153 106
f 106 153 108
f 107 111 154
f 107 154 155
f 107 155 113
f 107 113 112
f 108 156 109
f 108 153 157
f 108 157 156
f 109 158 110
f 109 156 158
f 110 158 159
f 110 159 141
f 111 140 154
f 113 155 160
f 115 116 161
f 115 161 120
f 116 117 162
f 116 162 163
f 116 163 164
f 116 164 161
f 117 119 162
f 118 165 163
f 118 163 119
f 118 146 165
f 119 163 162
f 120 161 166
f 120 166 122
f 120 122 121
f 122 166 124
f 122 124 123
f 124 166 167
f 124 167 168
f 124 168 125
f 125 168 169
f 125 169 170
f 125 170 126
f 126 170 127
f 127 170 129
f 128 131 171
f 128 171 132
f 129 170 172
f 129 172 130
f 130 172 131
f 131 172 173
f 131 173 171
f 132 171 174
f 132 174 133
f 133 174 175
f 133 175 135
f 134 136 176
f 134 176 137
f 135 175 136
f 136 175 177
f 136 177 176
f 137 176 177
f 137 177 148
f 140 160 154
f 141 159 178
f 141 178 179
f 141 179 180
f 141 180 142
f 142 181 182
f 142 182 143
f 142 180 183
f 142 183 181
f 143 182 184
f 143 184 144
f 144 184 185
f 144 185 186
f 144 186 187
f 144 187 145
f 145 187 188
f 145 188 146
f 146 188 165
f 147 149 150
f 148 189 190
f 148 190 191
f 148 191 149
f 148 177 189
f 149 191 192
f 149 192 150
f 150 192 193
f 150 193 151
f 151 193 152
f 152 193 194
f 152 194 153
f 153 194 157
f 154 160 155
f 156 157 195
f 156 195 196
f 156 196 197
f 156 197 198
f 156 198 158
f 157 194 199
f 157 199 195
f 158 198 197
f 158 197 159
f 159 197 200
f 159 200 178
f 161 164 166
f 163 165 188
f 163 188 164
f 164 201 202
f 164 202 166
f 164 188 201
f 166 202 203
f 166 203 167
f 167 203 204
f 167 204 205
f 167 205 168
f 168 205 169
f 169 205 206
f 169 206 170
f 170 206 207
f 170 207 172
f 171 173 208
f 171 208 175
f 171 175 174
f 172 207 209
f 172 209 173
f 173 209 210
f 173 210 208
f 175 208 211
f 175 211 177
f 177 211 212
f 177 212 189
f 178 213 214
f 178 214 179
f 178 200 215
f 178 215 213
f 179 183 180
f 179 214 213
f 179 213 183
f 181 183 216
f 181 216 217
f 181 217 218
f 181 218 219
f 181 219 182
f 182 219 184
f 183 213 220
f 183 220 216
f 184 219 185
f 185 219 221
f 185 221 222
f 185 222 223
f 185 223 186
f 186 188 187
f 186 223 224
f 186 224 225
f 186 225 188
f 188 225 201
f 189 212 226
f 189 226 227
f 189 227 190
f 190 227 191
f 191 228 229
f 191 229 192
f 191 227 228
f 192 229 230
f 192 230 193
f 193 230 194
f 194 230 199
f 195 199 196
f 196 231 197
f 196 199 230
f 196 230 232
f 196 232 231
f 197 231 200
f 200 231 215
f 201 233 202
f 201 225 233
f 202 233 203
f 203 233 204
f 204 233 234
f 204 234 235
f 204 235 205
f 205 235 236
f 205 236 206
f 206 236 237
f 206 237 238
f 206 238 207
f 207 238 209
f 208 210 209
f 208 209 239
f 208 239 211
f 209 238 240
f 209 240 239
f 211 239 241
f 211 241 212
f 212 241 226
f 213 215 220
f 215 231 242
f 215 242 243
f 215 243 244
f 215 244 220
f 216 220 217
f 217 220 245
f 217 245 246
f 217 246 247
f 217 247 248
f 217 248 218
f 218 248 249
f 218 249 250
f 218 250 219
f 219 250 221
f 220 244 251
f 220 251 245
f 221 250 222
f 222 250 252
f 222 252 223
f 223 252 235
f 223 235 224
f 224 235 234
f 224 234 225
f 225 234 233
f 226 241 227
f 227 241 242
f 227 242 228
f 228 242 231
f 228 231 232
f 228 232 229
f 229 232 230
f 235 252 248
f 235 248 236
f 236 248 237
f 237 248 253
f 237 253 238
f 238 253 254
f 238 254 240
f 239 255 241
f 239 240 246
f 239 246 251
f 239 251 255
f 240 254 246
f 241 255 256
f 241 256 242
f 242 256 244
f 242 244 243
f 244 256 255
f 244 255 251
f 245 251 246
f 246 254 247
f 247 254 253
f 247 253 248
f 248 252 249
f 249 252 250
