v -0.000597 -0.049637 0.063546
v 0.000681 -0.055417 0.063502
v 0.000681 -0.054777 0.063505
v 0.000043 -0.050297 0.063524
v 0.000043 -0.049649 0.063509
v 0.000701 -0.049643 0.063338
v 0.001265 -0.049637 0.062948
v -0.001096 -0.049637 0.063526
v -0.007664 -0.075275 0.063389
v -0.006350 -0.073957 0.063420
v -0.005712 -0.073317 0.063430
v -0.002518 -0.068206 0.063476
v -0.001238 -0.064999 0.063480
v -0.000597 -0.063730 0.063473
v 0.000681 -0.056057 0.063497
v 0.001187 -0.056057 0.063408
v 0.001374 -0.054777 0.063355
v 0.001089 -0.052218 0.063377
v 0.000681 -0.052218 0.063459
v 0.000597 -0.050297 0.063425
v 0.001410 -0.052218 0.063215
v 0.001803 -0.051578 0.062854
v 0.001648 -0.049841 0.062560
v 0.001921 -0.049637 0.061740
v 0.001727 -0.050938 0.062791
v -0.001096 -0.049637 0.060458
v -0.013496 -0.075011 0.039140
v -0.013496 -0.075031 0.039998
v -0.013496 -0.075626 0.058539
v -0.013496 -0.075671 0.059151
v -0.012452 -0.075275 0.061169
v -0.011951 -0.075275 0.061875
v -0.011406 -0.075275 0.062357
v -0.010894 -0.075275 0.062690
v -0.010218 -0.075275 0.062967
v -0.009564 -0.075275 0.063157
v -0.008871 -0.075275 0.063283
v -0.008373 -0.075272 0.063343
v -0.013496 -0.078581 0.059151
v -0.007022 -0.075275 0.063396
v -0.006350 -0.074595 0.063418
v -0.003159 -0.070121 0.063449
v -0.002518 -0.068843 0.063461
v -0.001880 -0.067563 0.063471
v -0.001238 -0.065639 0.063476
v -0.000597 -0.064364 0.063454
v 0.000043 -0.062452 0.063437
v 0.000681 -0.056695 0.063490
v -0.001238 -0.066177 0.063468
v 0.001373 -0.055417 0.063355
v 0.000873 -0.059250 0.063401
v 0.000858 -0.059891 0.063386
v 0.001094 -0.060554 0.063266
v 0.001381 -0.059250 0.063203
v 0.001503 -0.054142 0.063278
v 0.001961 -0.054142 0.062981
v 0.001914 -0.052856 0.062914
v 0.001866 -0.052218 0.062895
v 0.002265 -0.052218 0.062367
v 0.002302 -0.053451 0.062620
v 0.002275 -0.051538 0.062066
v 0.002325 -0.051082 0.061342
v 0.002019 -0.049637 0.061099
v -0.000445 -0.049637 0.060029
v -0.004727 -0.061151 0.038923
v -0.013403 -0.078014 0.038923
v -0.003672 -0.075275 0.061101
v -0.003835 -0.075275 0.061743
v -0.004626 -0.075275 0.062784
v -0.005095 -0.075275 0.063030
v -0.006358 -0.075275 0.063367
v -0.005706 -0.074575 0.063374
v -0.005712 -0.073957 0.063418
v -0.003159 -0.070759 0.063418
v -0.001656 -0.068206 0.063413
v 0.000228 -0.063089 0.063389
v -0.000727 -0.066285 0.063396
v -0.001029 -0.066925 0.063406
v 0.001919 -0.057973 0.062909
v 0.001954 -0.056057 0.062957
v 0.002022 -0.055459 0.062924
v 0.000470 -0.062452 0.063370
v 0.000854 -0.061811 0.063292
v 0.001355 -0.059891 0.063184
v 0.001866 -0.059250 0.062883
v 0.001900 -0.058613 0.062895
v 0.002127 -0.054777 0.062856
v 0.002309 -0.052856 0.062458
v 0.002572 -0.052856 0.061738
v 0.002491 -0.052218 0.061738
v 0.002377 -0.054142 0.062550
v 0.002710 -0.054142 0.061738
v 0.002449 -0.051578 0.061099
v 0.001943 -0.049637 0.060455
v 0.002277 -0.051105 0.060296
v 0.000045 -0.049637 0.059749
v 0.000654 -0.049637 0.059501
v 0.001310 -0.049637 0.059542
v -0.002160 -0.061350 0.038923
v -0.012736 -0.077558 0.038923
v -0.012109 -0.077113 0.038923
v -0.011596 -0.076728 0.038923
v -0.010894 -0.076142 0.038923
v -0.003541 -0.074997 0.060405
v -0.002200 -0.073028 0.060434
v -0.002292 -0.073187 0.061181
v -0.003454 -0.074821 0.061610
v -0.003395 -0.074396 0.062176
v -0.004133 -0.075232 0.062328
v -0.004125 -0.074626 0.062801
v -0.005301 -0.074674 0.063288
v -0.005848 -0.075218 0.063309
v -0.003798 -0.073317 0.063116
v -0.004500 -0.073898 0.063215
v -0.002582 -0.070849 0.063307
v -0.001053 -0.067574 0.063341
v 0.000240 -0.064364 0.063304
v -0.000497 -0.066925 0.063235
v 0.002365 -0.056057 0.062528
v 0.000789 -0.062452 0.063251
v 0.001327 -0.061151 0.063068
v 0.001830 -0.059891 0.062863
v 0.002186 -0.059250 0.062540
v 0.002649 -0.053502 0.061738
v 0.002905 -0.054057 0.061000
v 0.002433 -0.055459 0.062444
v 0.002470 -0.054777 0.062379
v 0.002744 -0.054777 0.061738
v 0.002929 -0.054777 0.061140
v 0.001742 -0.049637 0.059952
v 0.002968 -0.054777 0.060593
v 0.002556 -0.059891 0.060460
v 0.002481 -0.060531 0.060460
v 0.002311 -0.061486 0.060431
v 0.002122 -0.062452 0.060460
v 0.001980 -0.063089 0.060460
v 0.001658 -0.064265 0.060277
v -0.002592 -0.063092 0.038923
v 0.002881 -0.055417 0.060325
v 0.002844 -0.056695 0.060460
v 0.002794 -0.057332 0.060460
v -0.010210 -0.075533 0.038923
v -0.009728 -0.075059 0.038923
v -0.009304 -0.074634 0.038923
v -0.008597 -0.073903 0.038923
v -0.007656 -0.072841 0.038923
v -0.007134 -0.072223 0.038923
v -0.006711 -0.071665 0.038923
v -0.006012 -0.070688 0.038923
v -0.000882 -0.070804 0.060460
v -0.000856 -0.070844 0.061092
v -0.005532 -0.069940 0.038923
v -0.001512 -0.071796 0.061576
v -0.002168 -0.072793 0.061759
v -0.002889 -0.073886 0.061822
v -0.002126 -0.072473 0.062157
v -0.003193 -0.073909 0.062338
v -0.003567 -0.074158 0.062603
v -0.003349 -0.073524 0.062796
v -0.003789 -0.073952 0.062883
v -0.002565 -0.071362 0.063150
v -0.001746 -0.069481 0.063268
v 0.000731 -0.063089 0.063198
v 0.000681 -0.064364 0.063027
v -0.000136 -0.067563 0.062822
v 0.000312 -0.065962 0.062921
v -0.000718 -0.068843 0.062844
v 0.002314 -0.057973 0.062468
v 0.001278 -0.062452 0.062931
v 0.001777 -0.060531 0.062825
v 0.002149 -0.059891 0.062480
v 0.002327 -0.059891 0.062164
v 0.002352 -0.059250 0.062217
v 0.002294 -0.058613 0.062432
v 0.002752 -0.055417 0.061738
v 0.002722 -0.056057 0.061738
v 0.002838 -0.056695 0.061099
v 0.002926 -0.055536 0.060896
v 0.002486 -0.060531 0.061099
v 0.002794 -0.057332 0.061099
v 0.002391 -0.061174 0.061099
v 0.002278 -0.061789 0.061099
v 0.002145 -0.062452 0.061099
v 0.002003 -0.063089 0.061099
v 0.001825 -0.063730 0.060460
v -0.002789 -0.063783 0.038923
v 0.001481 -0.064999 0.060460
v -0.004810 -0.068699 0.038923
v -0.000241 -0.069569 0.060460
v -0.000484 -0.070121 0.061099
v -0.000590 -0.070121 0.061738
v -0.000934 -0.070764 0.061726
v -0.001577 -0.071691 0.062000
v -0.002816 -0.073240 0.062413
v -0.000843 -0.070302 0.062169
v -0.001614 -0.070827 0.062745
v -0.002042 -0.071396 0.062818
v -0.001359 -0.070121 0.062842
v -0.001013 -0.069421 0.062846
v 0.001211 -0.063089 0.062878
v 0.000709 -0.064942 0.062883
v 0.001128 -0.063730 0.062818
v 0.000320 -0.066818 0.062651
v -0.000349 -0.068291 0.062752
v -0.000992 -0.069934 0.062615
v 0.002098 -0.060531 0.062415
v 0.001716 -0.062364 0.062497
v 0.001861 -0.061854 0.062437
v 0.002064 -0.061151 0.062321
v 0.002288 -0.061191 0.061844
v 0.002336 -0.060616 0.061909
v 0.002499 -0.059250 0.061738
v 0.002549 -0.058613 0.061738
v 0.002599 -0.057973 0.061738
v 0.002444 -0.059891 0.061738
v 0.002251 -0.061673 0.061615
v 0.002064 -0.062452 0.061738
v 0.001916 -0.063089 0.061738
v 0.001629 -0.064271 0.061689
v 0.001842 -0.063730 0.061099
v 0.001700 -0.064273 0.061099
v 0.001510 -0.064999 0.061099
v 0.001287 -0.065639 0.060460
v -0.002972 -0.064364 0.038923
v 0.001323 -0.065639 0.061099
v -0.004558 -0.068200 0.038923
v -0.004150 -0.067342 0.038923
v 0.000095 -0.068843 0.060460
v -0.000233 -0.069589 0.061099
v -0.000352 -0.069640 0.061738
v -0.000274 -0.069028 0.062246
v -0.000594 -0.069481 0.062388
v 0.001042 -0.065027 0.062509
v 0.001634 -0.063089 0.062391
v 0.001170 -0.064443 0.062550
v 0.000433 -0.067444 0.062176
v 0.000962 -0.065639 0.062331
v 0.001635 -0.063789 0.062075
v 0.001416 -0.064999 0.061738
v 0.001136 -0.066203 0.061087
v 0.000976 -0.066670 0.060998
v 0.001039 -0.066350 0.060417
v -0.003303 -0.065319 0.038923
v 0.001216 -0.065639 0.061738
v -0.003730 -0.066387 0.038923
v 0.000372 -0.068073 0.060282
v 0.000601 -0.067563 0.060460
v 0.000643 -0.067563 0.061099
v 0.000370 -0.068229 0.061099
v 0.000101 -0.068843 0.061099
v 0.000423 -0.067872 0.061764
v 0.000781 -0.066925 0.061738
v 0.000994 -0.066248 0.061815
f 1 2 3
f 1 3 4
f 1 4 5
f 1 5 6
f 1 6 7
f 1 7 24
f 1 24 63
f 1 63 94
f 1 94 130
f 1 130 98
f 1 98 97
f 1 97 96
f 1 96 64
f 1 64 26
f 1 26 8
f 1 8 9
f 1 9 10
f 1 10 11
f 1 11 12
f 1 12 13
f 1 13 2
f 2 13 14
f 2 14 15
f 2 15 16
f 2 16 3
f 3 16 17
f 3 17 18
f 3 18 19
f 3 19 4
f 4 19 5
f 5 19 20
f 5 20 6
f 6 20 18
f 6 18 21
f 6 21 22
f 6 22 7
f 7 23 24
f 7 22 25
f 7 25 23
f 8 26 27
f 8 27 28
f 8 28 29
f 8 29 30
f 8 30 31
f 8 31 32
f 8 32 33
f 8 33 34
f 8 34 35
f 8 35 36
f 8 36 37
f 8 37 38
f 8 38 9
f 9 38 39
f 9 39 40
f 9 40 41
f 9 41 10
f 10 41 11
f 11 41 12
f 12 41 42
f 12 42 43
f 12 43 44
f 12 44 45
f 12 45 13
f 13 45 14
f 14 46 47
f 14 47 48
f 14 48 15
f 14 45 49
f 14 49 46
f 15 48 16
f 16 50 17
f 16 48 51
f 16 51 52
f 16 52 53
f 16 53 54
f 16 54 50
f 17 55 18
f 17 50 55
f 18 20 19
f 18 55 21
f 21 55 56
f 21 56 57
f 21 57 58
f 21 58 22
f 22 59 25
f 22 58 60
f 22 60 59
f 23 25 59
f 23 59 61
f 23 61 24
f 24 61 62
f 24 62 63
f 26 64 65
f 26 65 27
f 27 66 39
f 27 39 30
f 27 30 29
f 27 29 28
f 27 65 66
f 30 39 31
f 31 39 32
f 32 39 33
f 33 39 34
f 34 39 35
f 35 39 36
f 36 39 37
f 37 39 38
f 39 66 67
f 39 67 68
f 39 68 69
f 39 69 70
f 39 70 71
f 39 71 40
f 40 71 41
f 41 72 73
f 41 73 42
f 41 71 72
f 42 74 43
f 42 73 74
f 43 74 44
f 44 49 45
f 44 74 75
f 44 75 49
f 46 76 47
f 46 49 77
f 46 77 76
f 47 76 52
f 47 52 51
f 47 51 48
f 49 75 78
f 49 78 77
f 50 54 79
f 50 79 80
f 50 80 81
f 50 81 56
f 50 56 55
f 52 76 82
f 52 82 83
f 52 83 53
f 53 84 54
f 53 83 84
f 54 84 85
f 54 85 86
f 54 86 79
f 56 87 60
f 56 60 57
f 56 81 87
f 57 60 58
f 59 88 89
f 59 89 90
f 59 90 61
f 59 60 88
f 60 87 91
f 60 91 92
f 60 92 88
f 61 90 62
f 62 90 93
f 62 93 63
f 63 93 95
f 63 95 94
f 64 96 65
f 65 96 97
f 65 97 98
f 65 98 99
f 65 99 138
f 65 138 186
f 65 186 224
f 65 224 243
f 65 243 245
f 65 245 227
f 65 227 226
f 65 226 188
f 65 188 152
f 65 152 149
f 65 149 148
f 65 148 147
f 65 147 146
f 65 146 145
f 65 145 144
f 65 144 143
f 65 143 142
f 65 142 103
f 65 103 102
f 65 102 101
f 65 101 100
f 65 100 66
f 66 100 67
f 67 100 101
f 67 101 102
f 67 102 103
f 67 103 104
f 67 104 105
f 67 105 106
f 67 106 107
f 67 107 68
f 68 107 108
f 68 108 109
f 68 109 69
f 69 109 110
f 69 110 70
f 70 111 112
f 70 112 71
f 70 110 113
f 70 113 114
f 70 114 111
f 71 112 72
f 72 115 74
f 72 74 73
f 72 112 111
f 72 111 115
f 74 115 75
f 75 116 78
f 75 115 116
f 76 77 117
f 76 117 82
f 77 78 116
f 77 116 118
f 77 118 117
f 79 86 119
f 79 119 87
f 79 87 81
f 79 81 80
f 82 117 83
f 83 117 120
f 83 120 121
f 83 121 84
f 84 122 85
f 84 121 122
f 85 122 123
f 85 123 86
f 86 123 119
f 87 119 91
f 88 92 124
f 88 124 89
f 89 124 125
f 89 125 90
f 90 125 93
f 91 119 126
f 91 126 127
f 91 127 128
f 91 128 92
f 92 125 124
f 92 128 129
f 92 129 125
f 93 125 95
f 94 95 99
f 94 99 130
f 95 125 131
f 95 131 99
f 98 130 99
f 99 132 133
f 99 133 134
f 99 134 135
f 99 135 136
f 99 136 137
f 99 137 138
f 99 131 139
f 99 139 140
f 99 140 141
f 99 141 132
f 103 142 104
f 104 142 143
f 104 143 144
f 104 144 145
f 104 145 146
f 104 146 147
f 104 147 148
f 104 148 149
f 104 149 105
f 105 150 151
f 105 151 106
f 105 149 152
f 105 152 150
f 106 151 153
f 106 153 154
f 106 154 155
f 106 155 107
f 107 155 108
f 108 155 156
f 108 156 157
f 108 157 158
f 108 158 109
f 109 158 110
f 110 158 159
f 110 159 160
f 110 160 113
f 111 114 115
f 113 160 161
f 113 161 115
f 113 115 114
f 115 161 162
f 115 162 116
f 116 162 118
f 117 163 120
f 117 118 164
f 117 164 163
f 118 165 166
f 118 166 164
f 118 162 167
f 118 167 165
f 119 123 168
f 119 168 126
f 120 163 169
f 120 169 121
f 121 170 122
f 121 169 170
f 122 170 123
f 123 170 171
f 123 171 172
f 123 172 173
f 123 173 174
f 123 174 168
f 125 129 131
f 126 175 127
f 126 168 175
f 127 175 128
f 128 175 129
f 129 175 176
f 129 176 177
f 129 177 178
f 129 178 131
f 131 178 140
f 131 140 139
f 132 179 133
f 132 141 180
f 132 180 179
f 133 179 181
f 133 181 134
f 134 181 182
f 134 182 135
f 135 182 183
f 135 183 184
f 135 184 136
f 136 184 185
f 136 185 137
f 137 186 138
f 137 185 187
f 137 187 186
f 140 180 141
f 140 178 180
f 150 152 188
f 150 188 189
f 150 189 151
f 151 189 190
f 151 190 191
f 151 191 192
f 151 192 153
f 153 192 154
f 154 192 193
f 154 193 156
f 154 156 155
f 156 194 157
f 156 193 195
f 156 195 196
f 156 196 194
f 157 194 158
f 158 194 196
f 158 196 159
f 159 196 197
f 159 197 161
f 159 161 160
f 161 197 198
f 161 198 162
f 162 198 199
f 162 199 167
f 163 200 169
f 163 164 200
f 164 166 201
f 164 201 202
f 164 202 200
f 165 203 166
f 165 167 204
f 165 204 203
f 166 203 201
f 167 199 198
f 167 198 205
f 167 205 204
f 168 174 173
f 168 173 176
f 168 176 175
f 169 200 170
f 170 206 171
f 170 200 207
f 170 207 208
f 170 208 206
f 171 206 172
f 172 206 209
f 172 209 210
f 172 210 211
f 172 211 212
f 172 212 213
f 172 213 214
f 172 214 173
f 173 214 176
f 176 214 177
f 177 214 180
f 177 180 178
f 179 215 210
f 179 210 216
f 179 216 181
f 179 180 215
f 180 214 213
f 180 213 212
f 180 212 215
f 181 216 182
f 182 216 183
f 183 216 217
f 183 217 184
f 184 217 218
f 184 218 219
f 184 219 220
f 184 220 185
f 185 221 222
f 185 222 187
f 185 220 221
f 186 187 223
f 186 223 224
f 187 222 225
f 187 225 223
f 188 226 189
f 189 226 227
f 189 227 228
f 189 228 229
f 189 229 190
f 190 229 230
f 190 230 191
f 191 195 192
f 191 230 195
f 192 195 193
f 195 230 231
f 195 231 232
f 195 232 205
f 195 205 196
f 196 205 198
f 196 198 197
f 200 202 207
f 201 203 233
f 201 233 202
f 202 234 207
f 202 233 235
f 202 235 234
f 203 204 236
f 203 236 237
f 203 237 233
f 204 205 232
f 204 232 231
f 204 231 236
f 206 208 209
f 207 234 208
f 208 234 209
f 209 234 210
f 210 215 211
f 210 234 238
f 210 238 217
f 210 217 216
f 211 215 212
f 217 238 218
f 218 238 219
f 219 221 220
f 219 238 239
f 219 239 222
f 219 222 221
f 222 239 225
f 223 225 240
f 223 240 241
f 223 241 242
f 223 242 224
f 224 242 243
f 225 239 244
f 225 244 240
f 227 245 228
f 228 246 247
f 228 247 248
f 228 248 249
f 228 249 250
f 228 250 229
f 228 245 246
f 229 250 230
f 230 250 251
f 230 251 231
f 231 251 236
f 233 237 238
f 233 238 234
f 233 234 235
f 236 252 253
f 236 253 237
f 236 251 252
f 237 239 238
f 237 253 239
f 239 253 244
f 240 252 248
f 240 248 241
f 240 244 252
f 241 248 247
f 241 247 242
f 242 247 243
f 243 247 246
f 243 246 245
f 244 253 252
f 248 252 251
f 248 251 249
f 249 251 250
