v -0.002990 -0.064423 0.038921
v -0.005579 -0.064164 0.038921
v -0.003390 -0.065550 0.038921
v -0.003190 -0.065012 0.038816
v -0.003149 -0.064371 0.029114
v -0.003554 -0.064248 0.008562
v -0.005615 -0.064164 0.038072
v -0.027939 -0.079573 0.029676
v -0.027939 -0.079596 0.030396
v -0.027939 -0.079625 0.031035
v -0.027939 -0.079992 0.038921
v -0.006113 -0.064164 0.008395
v -0.003686 -0.066290 0.038921
v -0.003710 -0.066290 0.037433
v -0.003466 -0.065679 0.037433
v -0.003554 -0.065477 0.028468
v -0.003363 -0.065001 0.029114
v -0.003468 -0.064350 0.011212
v -0.003493 -0.064325 0.009943
v -0.003830 -0.065012 0.008526
v -0.003517 -0.064302 0.009291
v -0.006265 -0.064164 0.017613
v -0.006277 -0.064164 0.016970
v -0.006363 -0.064164 0.011212
v -0.027939 -0.079405 0.013642
v -0.027698 -0.082386 0.038921
v -0.027939 -0.079377 0.008395
v -0.027883 -0.081724 0.008526
v -0.006306 -0.070036 0.008395
v -0.006311 -0.064164 0.010573
v -0.004091 -0.067221 0.038921
v -0.004135 -0.066565 0.021449
v -0.003857 -0.066290 0.029753
v -0.003954 -0.065650 0.011212
v -0.003622 -0.064762 0.010570
v -0.003740 -0.065012 0.009931
v -0.003776 -0.065012 0.009291
v -0.004096 -0.065704 0.008526
v -0.025966 -0.081956 0.018730
v -0.026818 -0.082347 0.038921
v -0.027698 -0.081799 0.009931
v -0.026818 -0.081797 0.009931
v -0.026179 -0.081794 0.009931
v -0.021050 -0.080784 0.008395
v -0.025028 -0.081610 0.008460
v -0.026818 -0.081731 0.008526
v -0.027698 -0.081779 0.009291
v -0.011157 -0.075556 0.008395
v -0.004314 -0.066240 0.008526
v -0.004760 -0.067245 0.008664
v -0.005979 -0.069538 0.008589
v -0.005967 -0.069611 0.009291
v -0.006709 -0.070680 0.008589
v -0.007122 -0.071261 0.008526
v -0.007645 -0.071912 0.008502
v -0.004558 -0.068208 0.038921
v -0.004729 -0.068272 0.031675
v -0.004834 -0.067723 0.013137
v -0.004765 -0.067548 0.012491
v -0.004480 -0.066929 0.012491
v -0.004230 -0.066342 0.011852
v -0.004169 -0.066167 0.011212
v -0.003969 -0.065650 0.010570
v -0.004145 -0.066034 0.009865
v -0.004201 -0.066114 0.009291
v -0.025539 -0.081890 0.016328
v -0.025539 -0.082247 0.036790
v -0.026076 -0.082304 0.038921
v -0.026818 -0.081783 0.009291
v -0.025539 -0.081756 0.009931
v -0.025539 -0.081770 0.010570
v -0.025539 -0.081877 0.015689
v -0.026179 -0.081778 0.009291
v -0.018009 -0.079728 0.008460
v -0.019267 -0.080215 0.008460
v -0.019782 -0.080399 0.008526
v -0.020525 -0.080645 0.008589
v -0.021062 -0.080811 0.008652
v -0.021829 -0.081000 0.008460
v -0.022484 -0.081162 0.008460
v -0.023065 -0.081300 0.008589
v -0.023619 -0.081403 0.008652
v -0.024259 -0.081510 0.008652
v -0.024899 -0.081644 0.009291
v -0.025539 -0.081735 0.009291
v -0.025602 -0.081694 0.008526
v -0.026179 -0.081729 0.008526
v -0.012016 -0.076223 0.008589
v -0.012761 -0.076782 0.008589
v -0.013648 -0.077427 0.008583
v -0.014099 -0.077702 0.008520
v -0.009183 -0.073694 0.008526
v -0.009664 -0.074172 0.008589
v -0.010321 -0.074798 0.008589
v -0.010292 -0.074825 0.009291
v -0.010815 -0.075296 0.009291
v -0.010964 -0.075447 0.009931
v -0.011818 -0.076181 0.010570
v -0.011838 -0.076164 0.009931
v -0.011860 -0.076147 0.009291
v -0.004565 -0.066929 0.009291
v -0.005366 -0.068456 0.008759
v -0.004821 -0.067441 0.009291
v -0.006001 -0.069742 0.010002
v -0.006700 -0.070733 0.009291
v -0.007261 -0.071529 0.009294
v -0.007845 -0.072233 0.009190
v -0.008626 -0.073063 0.008550
v -0.004826 -0.068729 0.038921
v -0.005205 -0.068431 0.012491
v -0.004851 -0.067687 0.011852
v -0.004543 -0.066929 0.009931
v -0.004526 -0.066929 0.010570
v -0.004494 -0.066929 0.011852
v -0.004245 -0.066310 0.010570
v -0.024899 -0.081811 0.016328
v -0.024899 -0.082190 0.036790
v -0.024899 -0.082198 0.037433
v -0.024899 -0.082216 0.038921
v -0.025539 -0.082254 0.037433
v -0.025539 -0.082266 0.038921
v -0.024899 -0.081665 0.009931
v -0.024899 -0.081683 0.010570
v -0.024899 -0.081799 0.015689
v -0.015308 -0.078405 0.008526
v -0.016581 -0.079093 0.008526
v -0.017260 -0.079416 0.008526
v -0.017860 -0.079714 0.009291
v -0.018630 -0.079989 0.008526
v -0.019143 -0.080231 0.009291
v -0.019782 -0.080445 0.009291
v -0.020845 -0.080779 0.009291
v -0.021702 -0.081016 0.009291
v -0.022596 -0.081221 0.009291
v -0.023175 -0.081342 0.009291
v -0.024259 -0.081555 0.009931
v -0.012922 -0.076946 0.009291
v -0.013523 -0.077381 0.009291
v -0.014029 -0.077734 0.009931
v -0.014690 -0.078105 0.009291
v -0.014734 -0.078078 0.008526
v -0.008688 -0.073218 0.009291
v -0.009310 -0.073889 0.009291
v -0.009620 -0.074215 0.009931
v -0.010280 -0.074839 0.009931
v -0.010500 -0.075795 0.038921
v -0.010907 -0.076132 0.038072
v -0.011804 -0.076189 0.011212
v -0.012536 -0.076767 0.012491
v -0.012546 -0.076755 0.011852
v -0.004807 -0.067468 0.009931
v -0.005222 -0.068425 0.011852
v -0.005542 -0.068887 0.009931
v -0.006577 -0.070587 0.009931
v -0.005530 -0.068912 0.010570
v -0.005329 -0.069599 0.038921
v -0.005647 -0.070127 0.038921
v -0.005947 -0.070575 0.038072
v -0.007376 -0.071718 0.009996
v -0.007935 -0.072387 0.009931
v -0.024259 -0.082058 0.034235
v -0.024259 -0.082125 0.038072
v -0.022596 -0.081836 0.038921
v -0.024156 -0.082116 0.038867
v -0.023619 -0.081458 0.010570
v -0.023619 -0.081473 0.011212
v -0.023202 -0.081893 0.034872
v -0.015308 -0.078460 0.009291
v -0.015965 -0.078772 0.008589
v -0.015894 -0.078781 0.009291
v -0.016581 -0.079136 0.009291
v -0.017172 -0.079418 0.009291
v -0.017125 -0.079437 0.010570
v -0.017860 -0.079753 0.010570
v -0.018593 -0.080030 0.009554
v -0.019143 -0.080253 0.009931
v -0.019782 -0.080465 0.009931
v -0.019782 -0.080483 0.010570
v -0.020830 -0.080791 0.009931
v -0.021702 -0.081030 0.009931
v -0.022977 -0.081317 0.009931
v -0.021746 -0.081305 0.022089
v -0.022342 -0.081724 0.035508
v -0.022979 -0.081863 0.035508
v -0.023104 -0.081358 0.010570
v -0.013845 -0.077632 0.010570
v -0.012893 -0.077602 0.036154
v -0.013838 -0.078276 0.038072
v -0.014644 -0.078130 0.010570
v -0.014661 -0.078121 0.009931
v -0.015308 -0.078494 0.009931
v -0.008062 -0.072563 0.010570
v -0.008675 -0.073232 0.009931
v -0.009137 -0.073742 0.009931
v -0.010055 -0.075380 0.038921
v -0.010949 -0.076188 0.038921
v -0.011613 -0.076721 0.038072
v -0.011789 -0.076840 0.037047
v -0.006052 -0.070746 0.038921
v -0.006621 -0.071484 0.036790
v -0.006897 -0.071875 0.037433
v -0.007286 -0.072401 0.038072
v -0.007483 -0.072508 0.032953
v -0.007918 -0.073041 0.032953
v -0.023297 -0.081958 0.037722
v -0.023558 -0.082013 0.038816
v -0.021702 -0.081637 0.038921
v -0.015865 -0.078795 0.009931
v -0.016581 -0.079157 0.009931
v -0.016581 -0.079175 0.010570
v -0.017108 -0.079446 0.011212
v -0.018593 -0.080055 0.010382
v -0.017770 -0.080349 0.038921
v -0.018168 -0.080042 0.017613
v -0.019143 -0.080299 0.011852
v -0.020415 -0.080679 0.010570
v -0.019782 -0.080527 0.012491
v -0.020007 -0.080568 0.011212
v -0.020422 -0.081037 0.026553
v -0.021062 -0.081096 0.020807
v -0.021702 -0.081572 0.035508
v -0.021702 -0.081597 0.036790
v -0.013313 -0.077955 0.038921
v -0.012861 -0.077625 0.038072
v -0.013799 -0.078267 0.038816
v -0.014632 -0.078777 0.038816
v -0.015496 -0.078617 0.010570
v -0.008524 -0.073084 0.010570
v -0.008490 -0.073751 0.037433
v -0.009203 -0.074527 0.038921
v -0.011652 -0.076773 0.038921
v -0.012847 -0.077634 0.038921
v -0.006717 -0.071670 0.038921
v -0.007139 -0.072228 0.038921
v -0.007884 -0.073084 0.036790
v -0.007886 -0.073079 0.036154
v -0.007767 -0.072970 0.038921
v -0.020845 -0.081414 0.038921
v -0.016302 -0.079377 0.025274
v -0.016332 -0.079363 0.023998
v -0.016781 -0.079908 0.038921
v -0.018630 -0.080117 0.012491
v -0.019782 -0.081082 0.038921
v -0.018505 -0.080649 0.038816
v -0.019143 -0.080313 0.012491
v -0.019450 -0.080682 0.024781
v -0.019782 -0.081032 0.036154
v -0.020422 -0.081168 0.032953
v -0.020869 -0.081390 0.037433
v -0.015308 -0.079159 0.038921
v -0.015848 -0.079446 0.038867
v -0.008626 -0.073930 0.038921
v -0.018735 -0.080711 0.037433
v -0.019143 -0.080873 0.038816
v -0.019143 -0.080834 0.036790
f 1 2 11
f 1 11 26
f 1 26 40
f 1 40 68
f 1 68 121
f 1 121 119
f 1 119 163
f 1 163 207
f 1 207 238
f 1 238 243
f 1 243 213
f 1 213 241
f 1 241 250
f 1 250 223
f 1 223 232
f 1 232 231
f 1 231 196
f 1 196 146
f 1 146 195
f 1 195 230
f 1 230 252
f 1 252 237
f 1 237 234
f 1 234 233
f 1 233 199
f 1 199 157
f 1 157 156
f 1 156 109
f 1 109 56
f 1 56 31
f 1 31 13
f 1 13 3
f 1 3 4
f 1 4 5
f 1 5 6
f 1 6 2
f 2 7 8
f 2 8 9
f 2 9 10
f 2 10 11
f 2 6 12
f 2 12 30
f 2 30 24
f 2 24 23
f 2 23 22
f 2 22 7
f 3 13 14
f 3 14 15
f 3 15 16
f 3 16 4
f 4 16 17
f 4 17 5
f 5 17 18
f 5 18 19
f 5 19 6
f 6 20 12
f 6 19 21
f 6 21 20
f 7 22 8
f 8 22 23
f 8 23 24
f 8 24 25
f 8 25 27
f 8 27 11
f 8 11 10
f 8 10 9
f 11 27 28
f 11 28 26
f 12 20 29
f 12 29 48
f 12 48 44
f 12 44 27
f 12 27 30
f 13 31 14
f 14 31 32
f 14 32 33
f 14 33 16
f 14 16 15
f 16 33 34
f 16 34 35
f 16 35 17
f 17 35 18
f 18 35 19
f 19 36 21
f 19 35 36
f 20 21 37
f 20 37 38
f 20 38 29
f 21 36 37
f 24 30 27
f 24 27 25
f 26 39 40
f 26 28 41
f 26 41 42
f 26 42 43
f 26 43 39
f 27 44 45
f 27 45 28
f 28 45 46
f 28 46 47
f 28 47 41
f 29 38 49
f 29 49 50
f 29 50 51
f 29 51 52
f 29 52 53
f 29 53 54
f 29 54 55
f 29 55 48
f 31 56 57
f 31 57 58
f 31 58 59
f 31 59 60
f 31 60 32
f 32 60 61
f 32 61 62
f 32 62 33
f 33 62 34
f 34 62 63
f 34 63 35
f 35 63 36
f 36 64 65
f 36 65 37
f 36 63 64
f 37 65 38
f 38 65 49
f 39 66 67
f 39 67 40
f 39 43 66
f 40 67 68
f 41 47 69
f 41 69 42
f 42 69 43
f 43 70 71
f 43 71 72
f 43 72 66
f 43 69 73
f 43 73 70
f 44 48 74
f 44 74 75
f 44 75 76
f 44 76 77
f 44 77 78
f 44 78 79
f 44 79 80
f 44 80 45
f 45 80 81
f 45 81 82
f 45 82 83
f 45 83 84
f 45 84 85
f 45 85 86
f 45 86 87
f 45 87 46
f 46 87 69
f 46 69 47
f 48 88 89
f 48 89 90
f 48 90 91
f 48 91 74
f 48 55 92
f 48 92 93
f 48 93 94
f 48 94 95
f 48 95 96
f 48 96 97
f 48 97 98
f 48 98 99
f 48 99 100
f 48 100 88
f 49 65 101
f 49 101 50
f 50 102 51
f 50 101 103
f 50 103 102
f 51 102 52
f 52 104 53
f 52 102 104
f 53 104 105
f 53 105 54
f 54 105 106
f 54 106 55
f 55 106 107
f 55 107 108
f 55 108 92
f 56 109 57
f 57 110 58
f 57 109 110
f 58 110 111
f 58 111 59
f 59 111 112
f 59 112 113
f 59 113 114
f 59 114 60
f 60 114 115
f 60 115 61
f 61 115 62
f 62 115 64
f 62 64 63
f 64 112 101
f 64 101 65
f 64 115 112
f 66 72 124
f 66 124 116
f 66 116 117
f 66 117 67
f 67 117 118
f 67 118 119
f 67 119 120
f 67 120 68
f 68 120 121
f 69 87 73
f 70 122 123
f 70 123 124
f 70 124 71
f 70 73 85
f 70 85 84
f 70 84 122
f 71 124 72
f 73 87 86
f 73 86 85
f 74 91 125
f 74 125 126
f 74 126 127
f 74 127 128
f 74 128 129
f 74 129 75
f 75 129 130
f 75 130 76
f 76 130 131
f 76 131 77
f 77 131 132
f 77 132 78
f 78 132 133
f 78 133 79
f 79 133 80
f 80 133 134
f 80 134 81
f 81 134 135
f 81 135 82
f 82 135 136
f 82 136 122
f 82 122 84
f 82 84 83
f 88 137 89
f 88 100 137
f 89 137 90
f 90 137 138
f 90 138 139
f 90 139 91
f 91 139 140
f 91 140 141
f 91 141 125
f 92 108 142
f 92 142 143
f 92 143 93
f 93 143 95
f 93 95 94
f 95 143 144
f 95 144 145
f 95 145 96
f 96 145 97
f 97 145 146
f 97 146 147
f 97 147 148
f 97 148 98
f 98 137 99
f 98 148 149
f 98 149 150
f 98 150 137
f 99 137 100
f 101 112 151
f 101 151 103
f 102 103 151
f 102 151 152
f 102 152 153
f 102 153 104
f 104 154 105
f 104 153 155
f 104 155 152
f 104 152 110
f 104 110 109
f 104 109 156
f 104 156 157
f 104 157 158
f 104 158 154
f 105 154 106
f 106 154 159
f 106 159 107
f 107 159 160
f 107 160 142
f 107 142 108
f 110 152 111
f 111 152 151
f 111 151 112
f 112 115 113
f 113 115 114
f 116 124 161
f 116 161 117
f 117 161 162
f 117 162 118
f 118 162 119
f 119 121 120
f 119 162 164
f 119 164 163
f 122 136 123
f 123 136 165
f 123 165 124
f 124 165 166
f 124 166 167
f 124 167 161
f 125 141 168
f 125 168 169
f 125 169 126
f 126 169 170
f 126 170 171
f 126 171 172
f 126 172 127
f 127 172 128
f 128 172 173
f 128 173 174
f 128 174 175
f 128 175 129
f 129 175 130
f 130 175 176
f 130 176 131
f 131 176 177
f 131 177 132
f 132 177 178
f 132 178 179
f 132 179 133
f 133 179 180
f 133 180 134
f 134 181 135
f 134 180 182
f 134 182 183
f 134 183 184
f 134 184 181
f 135 181 185
f 135 185 165
f 135 165 136
f 137 150 138
f 138 186 139
f 138 150 149
f 138 149 187
f 138 187 186
f 139 186 188
f 139 188 189
f 139 189 190
f 139 190 140
f 140 168 141
f 140 190 191
f 140 191 168
f 142 160 192
f 142 192 193
f 142 193 194
f 142 194 143
f 143 194 144
f 144 194 195
f 144 195 145
f 145 195 146
f 146 196 147
f 147 196 197
f 147 197 148
f 148 197 198
f 148 198 149
f 149 198 187
f 152 155 153
f 154 158 159
f 157 199 158
f 158 199 200
f 158 200 159
f 159 200 201
f 159 201 202
f 159 202 203
f 159 203 204
f 159 204 192
f 159 192 160
f 161 167 162
f 162 167 205
f 162 205 164
f 163 164 206
f 163 206 205
f 163 205 184
f 163 184 183
f 163 183 207
f 164 205 206
f 165 185 166
f 166 185 167
f 167 185 184
f 167 184 205
f 168 191 170
f 168 170 169
f 170 191 208
f 170 208 171
f 171 208 209
f 171 209 172
f 172 209 173
f 173 209 210
f 173 210 211
f 173 211 174
f 174 212 175
f 174 211 213
f 174 213 214
f 174 214 212
f 175 212 176
f 176 212 215
f 176 215 178
f 176 178 177
f 178 216 179
f 178 215 217
f 178 217 218
f 178 218 216
f 179 216 219
f 179 219 220
f 179 220 180
f 180 220 182
f 181 184 185
f 182 220 221
f 182 221 183
f 183 221 222
f 183 222 207
f 186 187 223
f 186 223 188
f 187 198 224
f 187 224 223
f 188 223 225
f 188 225 226
f 188 226 189
f 189 227 191
f 189 191 190
f 189 226 227
f 191 227 208
f 192 228 193
f 192 204 228
f 193 228 194
f 194 228 204
f 194 204 229
f 194 229 230
f 194 230 195
f 196 231 197
f 197 231 198
f 198 231 232
f 198 232 224
f 199 233 200
f 200 233 201
f 201 233 234
f 201 234 202
f 202 235 236
f 202 236 204
f 202 204 203
f 202 234 237
f 202 237 235
f 204 236 229
f 207 222 238
f 208 227 239
f 208 239 240
f 208 240 210
f 208 210 209
f 210 240 211
f 211 240 241
f 211 241 213
f 212 214 242
f 212 242 215
f 213 243 244
f 213 244 214
f 214 244 242
f 215 242 245
f 215 245 217
f 216 218 219
f 217 245 246
f 217 246 219
f 217 219 218
f 219 246 247
f 219 247 248
f 219 248 238
f 219 238 249
f 219 249 220
f 220 249 221
f 221 249 238
f 221 238 222
f 223 224 232
f 223 250 226
f 223 226 225
f 226 250 227
f 227 250 251
f 227 251 239
f 229 252 230
f 229 236 252
f 235 237 252
f 235 252 236
f 238 248 247
f 238 247 243
f 239 251 241
f 239 241 240
f 241 251 250
f 242 244 253
f 242 253 245
f 243 254 244
f 243 247 254
f 244 254 253
f 245 253 246
f 246 253 255
f 246 255 247
f 247 255 254
f 253 254 255
