v -0.012679 -0.075663 -0.003863
v -0.010215 -0.070165 -0.003104
v 0.000676 -0.075503 -0.003587
v -0.015607 -0.079144 -0.002886
v -0.016903 -0.076600 -0.003622
v -0.023791 -0.076600 -0.003283
v -0.038115 -0.076716 -0.002444
v -0.051744 -0.074317 -0.001363
v -0.014080 -0.067609 -0.002306
v -0.010246 -0.064129 -0.001507
v 0.002403 -0.061609 -0.000725
v 0.001950 -0.069667 -0.002794
v -0.031890 -0.068694 -0.001409
v -0.005064 -0.080289 -0.001932
v 0.007943 -0.068164 -0.001892
v 0.011219 -0.071914 -0.001679
v 0.008091 -0.080129 -0.000955
v -0.015491 -0.081427 -0.000950
v -0.040327 -0.080434 -0.001099
v -0.023306 -0.078746 -0.002731
v -0.031659 -0.077548 -0.002650
v -0.053092 -0.079506 -0.000812
v -0.071334 -0.078211 0.000746
v -0.052850 -0.066556 0.000751
v -0.048289 -0.068160 -0.000070
v -0.038610 -0.068103 -0.000789
v -0.071682 -0.073437 0.001205
v -0.027214 -0.066468 -0.001133
v -0.038083 -0.053008 0.004107
v -0.015965 -0.051947 0.003240
v -0.004243 -0.054583 0.001705
v 0.002308 -0.055327 0.001458
v 0.006542 -0.058261 0.000562
v 0.008101 -0.063538 -0.000760
v 0.001287 -0.081447 -0.000053
v -0.005180 -0.081869 0.000165
v 0.020256 -0.067967 0.001338
v 0.012651 -0.078481 0.000102
v 0.008428 -0.081817 0.002952
v -0.014080 -0.081957 0.000165
v -0.037978 -0.082805 0.002044
v -0.040327 -0.081885 0.000303
v -0.035398 -0.081700 -0.000053
v -0.048763 -0.081784 0.000510
v -0.060949 -0.081531 0.000889
v -0.075852 -0.081808 0.003992
v -0.074557 -0.070129 0.003004
v -0.070934 -0.066058 0.003280
v -0.046067 -0.053860 0.004377
v -0.032817 -0.051959 0.004194
v -0.020621 -0.051577 0.003717
v -0.010457 -0.050428 0.003854
v -0.003769 -0.052437 0.002596
v 0.006458 -0.042952 0.009825
v 0.011819 -0.056886 0.002343
v -0.002831 -0.051999 0.002837
v -0.000441 -0.042952 0.008716
v -0.011268 -0.082504 0.002044
v 0.021604 -0.058639 0.014876
v 0.023426 -0.068188 0.010940
v 0.019550 -0.074534 0.007423
v 0.015843 -0.077946 0.004492
v 0.012483 -0.042952 0.013267
v 0.016222 -0.042952 0.019341
v 0.012672 -0.081137 0.010526
v 0.008407 -0.082110 0.007670
v -0.038452 -0.083135 0.003280
v -0.064699 -0.083770 0.005797
v -0.067279 -0.082886 0.003395
v -0.054651 -0.082383 0.001837
v -0.070312 -0.083870 0.006733
v -0.074062 -0.083999 0.010486
v -0.078159 -0.083267 0.012848
v -0.080139 -0.079646 0.007877
v -0.074736 -0.064719 0.005142
v -0.079002 -0.070603 0.007205
v -0.071166 -0.060600 0.005699
v -0.070039 -0.056352 0.007946
v -0.048763 -0.051095 0.007320
v -0.008456 -0.042952 0.009072
v -0.022527 -0.082946 0.003918
v -0.026919 -0.083022 0.003918
v 0.022520 -0.058908 0.020071
v 0.023679 -0.066922 0.038591
v 0.023531 -0.068453 0.019858
v 0.022088 -0.073975 0.021731
v 0.020382 -0.075197 0.014284
v 0.022678 -0.058799 0.027340
v 0.016622 -0.078207 0.008607
v 0.016875 -0.042952 0.025018
v 0.012830 -0.081330 0.017364
v 0.016738 -0.079172 0.017146
v 0.015442 -0.080333 0.021731
v 0.011219 -0.081676 0.021731
v 0.009355 -0.081776 0.022662
v -0.050627 -0.083324 0.022668
v -0.065636 -0.083890 0.007676
v -0.032406 -0.083167 0.004722
v -0.075947 -0.084011 0.017048
v -0.078644 -0.083380 0.021323
v -0.081772 -0.081913 0.026639
v -0.081319 -0.081616 0.016950
v -0.082614 -0.076833 0.015410
v -0.081298 -0.075109 0.010583
v -0.075147 -0.058502 0.009561
v -0.078401 -0.065379 0.009992
v -0.070818 -0.052739 0.012825
v -0.050627 -0.048760 0.012675
v -0.012637 -0.042952 0.009802
v 0.023594 -0.068538 0.029213
v 0.023331 -0.067111 0.045108
v 0.021951 -0.074369 0.026989
v 0.019624 -0.077283 0.023139
v 0.021646 -0.057240 0.033397
v 0.016106 -0.042952 0.029133
v 0.012356 -0.081290 0.029564
v 0.019518 -0.077584 0.027817
v 0.017212 -0.079027 0.031621
v 0.015190 -0.079739 0.038844
v 0.013715 -0.080635 0.035075
v 0.010671 -0.081194 0.038988
v -0.005654 -0.081551 0.047033
v -0.073514 -0.083340 0.042539
v -0.077875 -0.083360 0.032954
v -0.082204 -0.080964 0.032730
v -0.083499 -0.077520 0.021030
v -0.083362 -0.073722 0.023542
v -0.082404 -0.071914 0.019858
v -0.081077 -0.070893 0.014163
v -0.075758 -0.055673 0.015031
v -0.079518 -0.064852 0.015100
v -0.071661 -0.051022 0.018571
v -0.051891 -0.047429 0.017508
v -0.018461 -0.042952 0.013347
v 0.021435 -0.066773 0.050044
v 0.018339 -0.076652 0.042120
v 0.020319 -0.075225 0.038264
v 0.021593 -0.074389 0.032966
v 0.014263 -0.042952 0.032851
v 0.013104 -0.080575 0.039528
v 0.017717 -0.078276 0.036247
v 0.014147 -0.079614 0.043970
v 0.007469 -0.080936 0.047969
v 0.001834 -0.081262 0.047136
v -0.007992 -0.081427 0.048510
v -0.060012 -0.082685 0.048900
v -0.073061 -0.082564 0.048102
v -0.076790 -0.083235 0.038028
v -0.081098 -0.080840 0.038540
v -0.083531 -0.076407 0.032632
v -0.083920 -0.075913 0.027340
v -0.082646 -0.070230 0.027346
v -0.082119 -0.069221 0.023231
v -0.081087 -0.068441 0.017594
v -0.075357 -0.052783 0.021852
v -0.077748 -0.057746 0.019623
v -0.080034 -0.063867 0.019841
v -0.073799 -0.051107 0.028098
v -0.070312 -0.049853 0.023145
v -0.043423 -0.045143 0.021456
v -0.023096 -0.042952 0.019778
v 0.014758 -0.078127 0.048199
v 0.011366 -0.042952 0.035937
v 0.008417 -0.053824 0.046303
v 0.000602 -0.053402 0.047274
v -0.011036 -0.063883 0.052164
v -0.009393 -0.068007 0.053457
v -0.010099 -0.072147 0.054474
v 0.003098 -0.075133 0.053756
v 0.009376 -0.077805 0.051762
v 0.004162 -0.079457 0.051733
v -0.002716 -0.079843 0.051957
v -0.012216 -0.080940 0.050521
v -0.024402 -0.081435 0.050239
v -0.055325 -0.081949 0.050779
v -0.065573 -0.082291 0.049676
v -0.071271 -0.080679 0.052325
v -0.076284 -0.079562 0.051360
v -0.078981 -0.079043 0.047257
v -0.080971 -0.077070 0.043798
v -0.082362 -0.075828 0.038275
v -0.081888 -0.071399 0.036172
v -0.081866 -0.068047 0.030949
v -0.079444 -0.060439 0.028748
v -0.080866 -0.064711 0.025478
v -0.079402 -0.060873 0.023145
v -0.078170 -0.057240 0.025944
v -0.078117 -0.058004 0.032489
v -0.074336 -0.053406 0.037718
v -0.070660 -0.050022 0.032489
v -0.050627 -0.046027 0.026874
v -0.043139 -0.044709 0.026874
v -0.024044 -0.042952 0.027214
v 0.005131 -0.042952 0.038930
v -0.004590 -0.051071 0.046389
v -0.020652 -0.063610 0.052021
v -0.033997 -0.066837 0.052986
v -0.016903 -0.068361 0.053538
v -0.017429 -0.049990 0.046090
v -0.032817 -0.050709 0.046544
v -0.024023 -0.071383 0.054325
v -0.037515 -0.072850 0.054647
v -0.017840 -0.074727 0.054842
v -0.011278 -0.076600 0.054342
v -0.000546 -0.077741 0.053406
v -0.006591 -0.078135 0.053635
v -0.014080 -0.079088 0.053354
v -0.012216 -0.079936 0.052371
v -0.029089 -0.081318 0.050894
v -0.061181 -0.081129 0.052107
v -0.041980 -0.081157 0.051900
v -0.071766 -0.075724 0.053578
v -0.056494 -0.079642 0.053434
v -0.077190 -0.074405 0.051073
v -0.079929 -0.072464 0.044504
v -0.080023 -0.069036 0.041114
v -0.080181 -0.065885 0.036649
v -0.080308 -0.064080 0.032897
v -0.078370 -0.062139 0.038792
v -0.076716 -0.058188 0.039315
v -0.076832 -0.062730 0.044476
v -0.070418 -0.054740 0.044343
v -0.069828 -0.051400 0.039252
v -0.051165 -0.047868 0.038218
v -0.043202 -0.045348 0.033023
v -0.050627 -0.046328 0.031092
v -0.021242 -0.042952 0.033184
v -0.000546 -0.042952 0.039775
v -0.009393 -0.048611 0.044930
v -0.025687 -0.063389 0.051883
v -0.045951 -0.067605 0.053089
v -0.027340 -0.049821 0.046010
v -0.039042 -0.050383 0.045843
v -0.044645 -0.050753 0.045654
v -0.070144 -0.063944 0.050101
v -0.052049 -0.065254 0.052090
v -0.048679 -0.073686 0.054543
v -0.026129 -0.075591 0.054796
v -0.024402 -0.078412 0.054026
v -0.045477 -0.078895 0.054043
v -0.026013 -0.079972 0.052871
v -0.016903 -0.080012 0.052480
v -0.072071 -0.070045 0.052187
v -0.076063 -0.066468 0.048682
v -0.078307 -0.069120 0.046418
v -0.071208 -0.059221 0.047378
v -0.049058 -0.049037 0.042148
v -0.013659 -0.042952 0.039057
v -0.018346 -0.042952 0.036155
v -0.008529 -0.042952 0.039907
v -0.039747 -0.077488 0.054348
f 1 2 3
f 1 3 4
f 1 4 5
f 1 5 6
f 1 6 7
f 1 7 8
f 1 8 2
f 2 9 10
f 2 10 11
f 2 11 12
f 2 12 3
f 2 8 13
f 2 13 9
f 3 14 4
f 3 12 15
f 3 15 16
f 3 16 17
f 3 17 14
f 4 18 19
f 4 19 20
f 4 20 5
f 4 14 18
f 5 20 21
f 5 21 6
f 6 21 7
f 7 21 22
f 7 22 23
f 7 23 8
f 8 24 25
f 8 25 26
f 8 26 13
f 8 23 27
f 8 27 24
f 9 28 10
f 9 13 28
f 10 28 29
f 10 29 30
f 10 30 31
f 10 31 11
f 11 31 32
f 11 32 33
f 11 33 34
f 11 34 12
f 12 34 15
f 13 26 28
f 14 17 35
f 14 35 36
f 14 36 18
f 15 34 37
f 15 37 16
f 16 37 38
f 16 38 17
f 17 38 39
f 17 39 35
f 18 36 40
f 18 40 41
f 18 41 42
f 18 42 43
f 18 43 19
f 19 43 44
f 19 44 45
f 19 45 22
f 19 22 20
f 20 22 21
f 22 45 23
f 23 46 47
f 23 47 27
f 23 45 46
f 24 27 48
f 24 48 49
f 24 49 28
f 24 28 26
f 24 26 25
f 27 47 48
f 28 49 29
f 29 49 50
f 29 50 30
f 30 51 52
f 30 52 53
f 30 53 31
f 30 50 51
f 31 53 32
f 32 54 55
f 32 55 33
f 32 53 56
f 32 56 57
f 32 57 54
f 33 55 34
f 34 55 37
f 35 39 36
f 36 58 41
f 36 41 40
f 36 39 58
f 37 59 60
f 37 60 61
f 37 61 62
f 37 62 38
f 37 55 63
f 37 63 64
f 37 64 59
f 38 62 39
f 39 62 65
f 39 65 66
f 39 66 58
f 41 67 68
f 41 68 69
f 41 69 70
f 41 70 42
f 41 58 67
f 42 44 43
f 42 70 44
f 44 70 69
f 44 69 45
f 45 69 46
f 46 69 71
f 46 71 72
f 46 72 73
f 46 73 74
f 46 74 47
f 47 75 48
f 47 74 76
f 47 76 75
f 48 77 49
f 48 75 77
f 49 77 78
f 49 78 79
f 49 79 50
f 50 79 80
f 50 80 52
f 50 52 51
f 52 80 57
f 52 57 56
f 52 56 53
f 54 63 55
f 54 57 80
f 54 80 109
f 54 109 134
f 54 134 161
f 54 161 193
f 54 193 227
f 54 227 249
f 54 249 248
f 54 248 250
f 54 250 228
f 54 228 194
f 54 194 163
f 54 163 139
f 54 139 115
f 54 115 90
f 54 90 64
f 54 64 63
f 58 66 81
f 58 81 82
f 58 82 67
f 59 83 60
f 59 64 83
f 60 84 85
f 60 85 86
f 60 86 87
f 60 87 61
f 60 83 88
f 60 88 84
f 61 89 62
f 61 87 89
f 62 89 65
f 64 90 83
f 65 91 66
f 65 89 92
f 65 92 93
f 65 93 91
f 66 91 94
f 66 94 95
f 66 95 96
f 66 96 81
f 67 82 68
f 68 97 71
f 68 71 69
f 68 82 98
f 68 98 97
f 71 97 72
f 72 99 73
f 72 97 99
f 73 99 100
f 73 100 101
f 73 101 102
f 73 102 74
f 74 102 103
f 74 103 104
f 74 104 76
f 75 76 105
f 75 105 77
f 76 104 106
f 76 106 105
f 77 105 78
f 78 105 107
f 78 107 79
f 79 107 108
f 79 108 109
f 79 109 80
f 81 96 99
f 81 99 98
f 81 98 82
f 83 90 88
f 84 110 85
f 84 88 111
f 84 111 112
f 84 112 110
f 85 110 86
f 86 110 112
f 86 112 113
f 86 113 87
f 87 113 89
f 88 90 114
f 88 114 111
f 89 113 92
f 90 115 114
f 91 116 94
f 91 93 116
f 92 113 117
f 92 117 93
f 93 117 118
f 93 118 119
f 93 119 120
f 93 120 116
f 94 116 121
f 94 121 95
f 95 121 122
f 95 122 96
f 96 123 99
f 96 122 123
f 97 98 99
f 99 124 100
f 99 123 124
f 100 124 101
f 101 125 126
f 101 126 102
f 101 124 125
f 102 126 103
f 103 126 127
f 103 127 128
f 103 128 129
f 103 129 104
f 104 129 106
f 105 106 130
f 105 130 107
f 106 129 131
f 106 131 130
f 107 130 132
f 107 132 108
f 108 132 133
f 108 133 109
f 109 133 134
f 111 135 136
f 111 136 137
f 111 137 138
f 111 138 112
f 111 114 115
f 111 115 135
f 112 138 117
f 112 117 113
f 115 139 135
f 116 120 140
f 116 140 121
f 117 141 118
f 117 138 137
f 117 137 141
f 118 141 119
f 119 141 142
f 119 142 140
f 119 140 120
f 121 140 143
f 121 143 144
f 121 144 122
f 122 144 145
f 122 145 146
f 122 146 123
f 123 147 148
f 123 148 124
f 123 146 147
f 124 148 149
f 124 149 125
f 125 149 150
f 125 150 151
f 125 151 126
f 126 151 127
f 127 151 152
f 127 152 153
f 127 153 128
f 128 153 154
f 128 154 129
f 129 154 131
f 130 155 132
f 130 131 156
f 130 156 155
f 131 154 157
f 131 157 156
f 132 155 158
f 132 158 159
f 132 159 133
f 133 159 160
f 133 160 134
f 134 160 161
f 135 162 136
f 135 139 163
f 135 163 164
f 135 164 165
f 135 165 166
f 135 166 167
f 135 167 168
f 135 168 169
f 135 169 170
f 135 170 162
f 136 141 137
f 136 162 142
f 136 142 141
f 140 142 143
f 142 162 143
f 143 171 172
f 143 172 173
f 143 173 145
f 143 145 144
f 143 162 170
f 143 170 171
f 145 173 174
f 145 174 146
f 146 175 176
f 146 176 147
f 146 174 175
f 147 176 177
f 147 177 178
f 147 178 149
f 147 149 148
f 149 179 180
f 149 180 150
f 149 178 179
f 150 180 181
f 150 181 182
f 150 182 183
f 150 183 151
f 151 183 152
f 152 183 184
f 152 184 185
f 152 185 153
f 153 185 186
f 153 186 157
f 153 157 154
f 155 156 187
f 155 187 158
f 156 157 186
f 156 186 187
f 158 187 188
f 158 188 189
f 158 189 190
f 158 190 159
f 159 190 191
f 159 191 160
f 160 191 192
f 160 192 161
f 161 192 193
f 163 194 164
f 164 194 165
f 165 195 166
f 165 194 195
f 166 196 197
f 166 197 198
f 166 198 167
f 166 195 199
f 166 199 200
f 166 200 196
f 167 198 201
f 167 201 168
f 168 201 202
f 168 202 203
f 168 203 169
f 169 203 204
f 169 204 205
f 169 205 170
f 170 205 171
f 171 205 206
f 171 206 172
f 172 206 207
f 172 207 208
f 172 208 209
f 172 209 173
f 173 209 174
f 174 209 175
f 175 210 176
f 175 209 211
f 175 211 210
f 176 210 177
f 177 212 178
f 177 210 213
f 177 213 212
f 178 212 214
f 178 214 179
f 179 214 180
f 180 214 215
f 180 215 181
f 181 215 182
f 182 215 216
f 182 216 217
f 182 217 183
f 183 217 218
f 183 218 184
f 184 186 185
f 184 218 188
f 184 188 187
f 184 187 186
f 188 218 219
f 188 219 220
f 188 220 189
f 189 220 221
f 189 221 222
f 189 222 223
f 189 223 190
f 190 223 224
f 190 224 225
f 190 225 226
f 190 226 191
f 191 226 192
f 192 226 225
f 192 225 227
f 192 227 193
f 194 228 195
f 195 228 229
f 195 229 199
f 196 200 230
f 196 230 197
f 197 231 202
f 197 202 198
f 197 230 231
f 198 202 201
f 199 232 200
f 199 229 232
f 200 233 234
f 200 234 235
f 200 235 236
f 200 236 230
f 200 232 233
f 202 231 237
f 202 237 238
f 202 238 203
f 203 238 204
f 204 238 239
f 204 239 206
f 204 206 205
f 206 239 207
f 207 239 240
f 207 240 241
f 207 241 242
f 207 242 208
f 208 242 211
f 208 211 209
f 210 211 241
f 210 241 240
f 210 240 213
f 211 242 241
f 212 213 240
f 212 240 237
f 212 237 243
f 212 243 214
f 214 243 244
f 214 244 245
f 214 245 215
f 215 245 216
f 216 245 221
f 216 221 219
f 216 219 217
f 217 219 218
f 219 221 220
f 221 244 222
f 221 245 244
f 222 246 234
f 222 234 247
f 222 247 223
f 222 244 246
f 223 247 224
f 224 247 248
f 224 248 225
f 225 248 249
f 225 249 227
f 228 250 229
f 229 250 232
f 230 236 231
f 231 236 243
f 231 243 237
f 232 250 233
f 233 250 234
f 234 250 248
f 234 248 247
f 234 246 235
f 235 246 243
f 235 243 236
f 237 240 251
f 237 251 238
f 238 251 240
f 238 240 239
f 243 246 244
