v -0.009574 0.010942 0.005030
v -0.009393 0.020901 0.005342
v -0.007519 0.019030 0.005331
v -0.007874 0.010351 0.005055
v -0.011449 0.010942 0.005115
v -0.011268 0.013403 0.005079
v -0.009393 0.026524 0.005575
v -0.011268 0.028398 0.005639
v -0.011268 0.030276 0.005714
v -0.009393 0.028398 0.005664
v -0.007519 0.020901 0.005420
v -0.005651 0.019030 0.005462
v -0.005651 0.017152 0.005395
v -0.005651 0.015276 0.005349
v -0.003770 0.013403 0.005494
v -0.006354 0.010351 0.005203
v -0.018960 0.010351 0.006454
v -0.013323 0.010942 0.005306
v -0.013142 0.013403 0.005218
v -0.013142 0.015276 0.005260
v -0.013142 0.030276 0.005802
v -0.013142 0.032149 0.005877
v -0.013015 0.034696 0.006036
v -0.011268 0.032149 0.005838
v -0.009393 0.030276 0.005788
v -0.007519 0.028398 0.005855
v -0.005651 0.020901 0.005590
v -0.003770 0.019030 0.005721
v -0.003770 0.017152 0.005632
v -0.003770 0.015276 0.005547
v -0.001902 0.010942 0.005703
v -0.000369 0.010351 0.006040
v -0.020834 0.010351 0.007113
v -0.039900 0.018790 0.012103
v -0.037517 0.020901 0.011181
v -0.034906 0.020901 0.010412
v -0.018772 0.013403 0.006199
v -0.016898 0.010942 0.005866
v -0.015023 0.010942 0.005533
v -0.015023 0.013403 0.005423
v -0.015023 0.015276 0.005427
v -0.015023 0.032149 0.005994
v -0.014890 0.034696 0.006103
v -0.011007 0.035370 0.006114
v -0.009393 0.032149 0.005926
v -0.007519 0.030276 0.006001
v -0.005651 0.030276 0.006273
v -0.003670 0.030276 0.006702
v -0.001902 0.019030 0.006149
v -0.001902 0.017152 0.006025
v -0.001902 0.015276 0.005916
v -0.001902 0.013403 0.005809
v -0.004593 0.032649 0.006695
v -0.000021 0.013403 0.006252
v 0.001699 0.013403 0.006798
v 0.001251 0.010351 0.006578
v -0.022782 0.010351 0.007935
v -0.050250 0.019106 0.016259
v -0.039391 0.020901 0.011769
v -0.037403 0.035370 0.010784
v -0.034993 0.022777 0.010387
v -0.016898 0.013403 0.005735
v -0.031887 0.035370 0.009356
v -0.016898 0.015276 0.005728
v -0.018772 0.030276 0.006401
v -0.016898 0.032149 0.006185
v -0.016764 0.034696 0.006277
v -0.018290 0.035370 0.006497
v -0.005651 0.035370 0.006734
v -0.007519 0.034696 0.006355
v -0.009393 0.034696 0.006149
v -0.003823 0.035370 0.007174
v -0.000014 0.019030 0.006731
v 0.001037 0.014777 0.006677
v -0.001902 0.035370 0.007811
v -0.000008 0.035370 0.008609
v 0.003735 0.013403 0.007712
v 0.003735 0.010942 0.007627
v 0.005562 0.010942 0.008524
v 0.006975 0.010351 0.009448
v -0.024496 0.010351 0.008821
v -0.050638 0.017360 0.017368
v -0.051970 0.019030 0.017559
v -0.051944 0.035370 0.016121
v -0.050377 0.035370 0.015370
v -0.038856 0.035370 0.011266
v -0.027509 0.035370 0.008300
v -0.025721 0.035370 0.007879
v -0.024121 0.035370 0.007517
v -0.022267 0.035370 0.007131
v -0.018772 0.032149 0.006458
v -0.020192 0.035370 0.006773
v 0.001907 0.035370 0.009672
v 0.005000 0.013403 0.008389
v 0.007316 0.011527 0.009806
v 0.008414 0.010942 0.010738
v 0.010322 0.010351 0.012889
v -0.026197 0.010351 0.009884
v -0.051201 0.016297 0.019313
v -0.051964 0.017537 0.018350
v -0.052847 0.019030 0.018913
v -0.053898 0.035370 0.018066
v 0.003440 0.035370 0.010699
v 0.005000 0.035370 0.012046
v 0.006319 0.035370 0.013580
v 0.011453 0.010351 0.014948
v 0.007550 0.035370 0.015547
v -0.027442 0.010351 0.010795
v -0.052278 0.016486 0.022666
v -0.053510 0.018494 0.020986
v -0.028600 0.010351 0.011830
v -0.029845 0.010351 0.013244
v -0.031137 0.010351 0.015058
v -0.032027 0.010351 0.017031
v -0.032744 0.010351 0.019051
v -0.054876 0.035370 0.020791
v 0.012190 0.010351 0.016748
v 0.008153 0.035370 0.017039
v -0.053785 0.018408 0.024533
v -0.053731 0.018428 0.022666
v -0.032938 0.010351 0.020788
v -0.033139 0.010351 0.022666
v -0.033152 0.010351 0.024533
v -0.052238 0.016486 0.024827
v -0.055110 0.035370 0.022666
v 0.012719 0.010351 0.018566
v 0.008822 0.035370 0.019023
v -0.055090 0.035370 0.024533
v -0.053564 0.018225 0.026468
v -0.032991 0.010351 0.026057
v -0.050913 0.016405 0.027595
v -0.052553 0.017103 0.026496
v -0.032282 0.010351 0.028714
v 0.013194 0.010351 0.020788
v 0.009217 0.035370 0.021039
v -0.053370 0.019168 0.027949
v -0.054769 0.035370 0.026305
v -0.052292 0.017426 0.028286
v -0.051924 0.017747 0.029629
v -0.031599 0.010351 0.030408
v -0.030508 0.010351 0.032237
v -0.029584 0.010351 0.033530
v -0.027837 0.010351 0.035348
v 0.013281 0.010351 0.022666
v 0.009291 0.035370 0.022910
v -0.053945 0.035370 0.028484
v -0.051736 0.019160 0.030706
v -0.026203 0.010351 0.036645
v -0.050324 0.017698 0.030738
v 0.013234 0.010351 0.024182
v 0.009184 0.035370 0.024501
v -0.052941 0.035370 0.029912
v -0.051187 0.035370 0.031457
v -0.039974 0.018756 0.035217
v -0.048764 0.020901 0.032442
v -0.024382 0.010351 0.037761
v -0.022635 0.010351 0.038643
v -0.020647 0.010351 0.039455
v 0.013087 0.010351 0.026057
v 0.012658 0.010351 0.028240
v 0.008602 0.035370 0.026939
v -0.048764 0.035370 0.032311
v -0.037517 0.020901 0.036085
v -0.039391 0.020901 0.035575
v -0.018431 0.010351 0.040170
v 0.012063 0.010351 0.030107
v 0.007959 0.035370 0.028569
v -0.037517 0.035370 0.035553
v -0.035636 0.022777 0.036439
v -0.037517 0.022777 0.036017
v -0.017246 0.013403 0.040535
v -0.016356 0.010351 0.040628
v 0.011119 0.010351 0.032070
v 0.006781 0.035370 0.030670
v -0.025333 0.021866 0.038597
v -0.026264 0.035370 0.037846
v -0.015023 0.013403 0.040883
v -0.017059 0.015276 0.040500
v -0.022508 0.020901 0.039210
v -0.014675 0.010351 0.040883
v 0.010081 0.010503 0.033633
v 0.006359 0.010351 0.037038
v 0.005147 0.035370 0.032704
v -0.020647 0.020901 0.039575
v -0.024382 0.035370 0.038204
v -0.013142 0.010942 0.041053
v -0.013142 0.013403 0.041056
v -0.015023 0.015276 0.040794
v -0.020647 0.034696 0.038845
v -0.022247 0.035370 0.038558
v -0.011268 0.010942 0.041194
v -0.005310 0.010351 0.040936
v -0.009393 0.010942 0.041230
v 0.008709 0.010942 0.035139
v 0.004685 0.010351 0.037963
v 0.007624 0.010942 0.036074
v 0.006633 0.012078 0.036783
v 0.002376 0.035370 0.035100
v -0.013142 0.015276 0.040946
v -0.011268 0.013403 0.041120
v -0.014595 0.020390 0.040528
v -0.018772 0.034696 0.039090
v -0.016898 0.034696 0.039274
v -0.015151 0.034696 0.039430
v -0.013142 0.034696 0.039497
v -0.005966 0.035355 0.038562
v -0.003944 0.035370 0.038069
v 0.002489 0.010351 0.039072
v -0.000021 0.010942 0.039986
v -0.002438 0.012891 0.040365
v -0.006307 0.018501 0.040514
v -0.007519 0.010942 0.041148
v -0.009393 0.013403 0.041085
v -0.011268 0.015276 0.041010
v 0.003366 0.013638 0.038416
v 0.005696 0.013312 0.037180
v 0.003735 0.017152 0.037658
v 0.005221 0.015276 0.037116
v 0.000106 0.035370 0.036457
v -0.013142 0.020737 0.040578
v -0.011415 0.021078 0.040585
v -0.009433 0.021724 0.040503
v -0.011268 0.032149 0.039671
v -0.011268 0.034696 0.039416
v -0.009393 0.034696 0.039231
v -0.007499 0.034696 0.038941
v -0.005651 0.030276 0.039182
v -0.003254 0.029860 0.038696
v -0.001400 0.035370 0.037144
v 0.001860 0.013403 0.039111
v -0.000021 0.013403 0.039752
v -0.001902 0.017152 0.039862
v -0.001902 0.015276 0.040039
v -0.003770 0.019030 0.040046
v -0.007519 0.028398 0.039717
v -0.007519 0.024651 0.040082
v -0.007519 0.022777 0.040255
v -0.008061 0.020478 0.040511
v -0.003770 0.020901 0.039866
v -0.005651 0.022777 0.039993
v 0.002335 0.017152 0.038395
v 0.002262 0.015345 0.038686
v 0.003547 0.015092 0.038115
v 0.001023 0.019327 0.038643
v -0.009393 0.026524 0.040089
v -0.009393 0.028398 0.039905
v -0.009393 0.030276 0.039713
v -0.009393 0.032149 0.039522
v -0.007519 0.030276 0.039508
v -0.007519 0.032149 0.039285
v -0.003770 0.022777 0.039671
v -0.001902 0.020901 0.039437
v -0.000021 0.017152 0.039334
v 0.001398 0.017152 0.038803
v -0.000021 0.015276 0.039547
v -0.001902 0.019030 0.039650
f 1 2 3
f 1 3 4
f 1 4 5
f 1 5 6
f 1 6 2
f 2 7 3
f 2 6 8
f 2 8 9
f 2 9 7
f 3 7 10
f 3 10 11
f 3 11 12
f 3 12 13
f 3 13 4
f 4 13 14
f 4 14 15
f 4 15 16
f 4 16 32
f 4 32 56
f 4 56 80
f 4 80 97
f 4 97 106
f 4 106 117
f 4 117 126
f 4 126 134
f 4 134 144
f 4 144 150
f 4 150 159
f 4 159 160
f 4 160 166
f 4 166 173
f 4 173 182
f 4 182 195
f 4 195 208
f 4 208 192
f 4 192 180
f 4 180 172
f 4 172 165
f 4 165 158
f 4 158 157
f 4 157 156
f 4 156 148
f 4 148 143
f 4 143 142
f 4 142 141
f 4 141 140
f 4 140 133
f 4 133 130
f 4 130 123
f 4 123 122
f 4 122 121
f 4 121 115
f 4 115 114
f 4 114 113
f 4 113 112
f 4 112 111
f 4 111 108
f 4 108 98
f 4 98 81
f 4 81 57
f 4 57 33
f 4 33 17
f 4 17 18
f 4 18 5
f 5 18 19
f 5 19 6
f 6 19 20
f 6 20 21
f 6 21 8
f 7 9 10
f 8 21 9
f 9 21 22
f 9 22 23
f 9 23 24
f 9 24 25
f 9 25 10
f 10 25 26
f 10 26 12
f 10 12 11
f 12 27 28
f 12 28 29
f 12 29 30
f 12 30 13
f 12 26 27
f 13 30 15
f 13 15 14
f 15 30 31
f 15 31 16
f 16 31 32
f 17 33 34
f 17 34 35
f 17 35 36
f 17 36 37
f 17 37 38
f 17 38 39
f 17 39 18
f 18 39 40
f 18 40 19
f 19 40 41
f 19 41 20
f 20 41 42
f 20 42 21
f 21 42 22
f 22 42 43
f 22 43 23
f 23 43 44
f 23 44 24
f 24 44 45
f 24 45 25
f 25 45 26
f 26 45 46
f 26 46 47
f 26 47 28
f 26 28 27
f 28 48 49
f 28 49 50
f 28 50 51
f 28 51 52
f 28 52 29
f 28 47 53
f 28 53 48
f 29 52 30
f 30 52 31
f 31 52 54
f 31 54 32
f 32 54 55
f 32 55 56
f 33 57 58
f 33 58 34
f 34 58 59
f 34 59 35
f 35 59 60
f 35 60 61
f 35 61 36
f 36 61 37
f 37 62 38
f 37 61 60
f 37 60 63
f 37 63 62
f 38 62 39
f 39 62 40
f 40 62 64
f 40 64 41
f 41 64 65
f 41 65 66
f 41 66 42
f 42 66 67
f 42 67 43
f 43 67 68
f 43 68 44
f 44 69 70
f 44 70 71
f 44 71 45
f 44 68 92
f 44 92 90
f 44 90 89
f 44 89 88
f 44 88 87
f 44 87 63
f 44 63 60
f 44 60 86
f 44 86 85
f 44 85 84
f 44 84 102
f 44 102 116
f 44 116 125
f 44 125 128
f 44 128 137
f 44 137 146
f 44 146 152
f 44 152 153
f 44 153 162
f 44 162 168
f 44 168 176
f 44 176 185
f 44 185 190
f 44 190 207
f 44 207 229
f 44 229 219
f 44 219 198
f 44 198 183
f 44 183 174
f 44 174 167
f 44 167 161
f 44 161 151
f 44 151 145
f 44 145 135
f 44 135 127
f 44 127 118
f 44 118 107
f 44 107 105
f 44 105 104
f 44 104 103
f 44 103 93
f 44 93 76
f 44 76 75
f 44 75 72
f 44 72 69
f 45 71 70
f 45 70 46
f 46 70 47
f 47 69 53
f 47 70 69
f 48 53 72
f 48 72 73
f 48 73 49
f 49 73 74
f 49 74 54
f 49 54 50
f 50 54 51
f 51 54 52
f 53 69 72
f 54 74 55
f 55 74 75
f 55 75 76
f 55 76 77
f 55 77 78
f 55 78 56
f 56 78 79
f 56 79 80
f 57 81 82
f 57 82 58
f 58 82 83
f 58 83 84
f 58 84 85
f 58 85 59
f 59 85 86
f 59 86 60
f 62 63 64
f 63 87 64
f 64 88 89
f 64 89 90
f 64 90 65
f 64 87 88
f 65 91 66
f 65 90 92
f 65 92 91
f 66 91 92
f 66 92 68
f 66 68 67
f 72 75 73
f 73 75 74
f 76 93 94
f 76 94 77
f 77 94 79
f 77 79 78
f 79 95 80
f 79 94 95
f 80 95 96
f 80 96 97
f 81 98 82
f 82 99 100
f 82 100 83
f 82 98 99
f 83 100 101
f 83 101 102
f 83 102 84
f 93 103 94
f 94 103 95
f 95 103 104
f 95 104 96
f 96 104 105
f 96 105 97
f 97 105 107
f 97 107 106
f 98 108 99
f 99 109 110
f 99 110 100
f 99 108 111
f 99 111 112
f 99 112 113
f 99 113 114
f 99 114 115
f 99 115 109
f 100 110 101
f 101 110 116
f 101 116 102
f 106 107 117
f 107 118 117
f 109 119 120
f 109 120 110
f 109 115 121
f 109 121 122
f 109 122 123
f 109 123 124
f 109 124 119
f 110 120 116
f 116 120 125
f 117 118 127
f 117 127 126
f 119 128 125
f 119 125 120
f 119 124 129
f 119 129 128
f 123 130 124
f 124 131 132
f 124 132 129
f 124 130 133
f 124 133 131
f 126 127 134
f 127 135 134
f 128 129 136
f 128 136 137
f 129 132 138
f 129 138 139
f 129 139 136
f 131 139 138
f 131 138 132
f 131 133 140
f 131 140 141
f 131 141 142
f 131 142 143
f 131 143 139
f 134 135 144
f 135 145 144
f 136 146 137
f 136 139 147
f 136 147 146
f 139 143 148
f 139 148 149
f 139 149 147
f 144 145 150
f 145 151 150
f 146 147 152
f 147 153 152
f 147 149 154
f 147 154 155
f 147 155 153
f 148 156 149
f 149 156 157
f 149 157 158
f 149 158 154
f 150 151 159
f 151 160 159
f 151 161 160
f 153 155 162
f 154 163 164
f 154 164 155
f 154 158 165
f 154 165 163
f 155 164 162
f 160 161 166
f 161 167 166
f 162 164 168
f 163 169 170
f 163 170 164
f 163 165 171
f 163 171 169
f 164 170 168
f 165 172 171
f 166 167 173
f 167 174 173
f 168 170 169
f 168 169 175
f 168 175 176
f 169 171 175
f 171 172 177
f 171 177 178
f 171 178 179
f 171 179 175
f 172 180 177
f 173 181 182
f 173 174 181
f 174 183 181
f 175 179 176
f 176 179 184
f 176 184 185
f 177 180 186
f 177 186 187
f 177 187 188
f 177 188 178
f 178 189 190
f 178 190 185
f 178 185 184
f 178 184 179
f 178 188 189
f 180 191 186
f 180 192 193
f 180 193 191
f 181 194 182
f 181 183 194
f 182 194 196
f 182 196 197
f 182 197 195
f 183 198 197
f 183 197 194
f 186 191 187
f 187 199 188
f 187 191 200
f 187 200 214
f 187 214 199
f 188 199 201
f 188 201 202
f 188 202 189
f 189 202 190
f 190 202 203
f 190 203 204
f 190 204 205
f 190 205 206
f 190 206 207
f 191 193 200
f 192 208 209
f 192 209 210
f 192 210 211
f 192 211 212
f 192 212 193
f 193 212 213
f 193 213 214
f 193 214 200
f 194 197 196
f 195 215 208
f 195 197 215
f 197 216 215
f 197 198 216
f 198 217 218
f 198 218 216
f 198 219 217
f 199 220 201
f 199 214 220
f 201 204 203
f 201 203 202
f 201 220 204
f 204 220 205
f 205 220 221
f 205 221 222
f 205 222 223
f 205 223 224
f 205 224 206
f 206 225 226
f 206 226 227
f 206 227 228
f 206 228 207
f 206 224 225
f 207 228 229
f 208 215 230
f 208 230 209
f 209 230 231
f 209 231 232
f 209 232 233
f 209 233 210
f 210 234 211
f 210 233 234
f 211 235 236
f 211 236 237
f 211 237 238
f 211 238 212
f 211 234 239
f 211 239 240
f 211 240 235
f 212 238 222
f 212 222 213
f 213 222 214
f 214 221 220
f 214 222 221
f 215 241 242
f 215 242 230
f 215 216 243
f 215 243 241
f 216 218 217
f 216 217 243
f 217 219 243
f 219 229 244
f 219 244 241
f 219 241 243
f 222 238 245
f 222 245 223
f 223 245 246
f 223 246 224
f 224 246 247
f 224 247 248
f 224 248 225
f 225 248 249
f 225 249 250
f 225 250 226
f 226 250 227
f 227 251 228
f 227 250 249
f 227 249 235
f 227 235 251
f 228 251 252
f 228 252 253
f 228 253 244
f 228 244 229
f 230 242 254
f 230 254 253
f 230 253 255
f 230 255 231
f 231 255 232
f 232 256 251
f 232 251 239
f 232 239 234
f 232 234 233
f 232 255 256
f 235 240 251
f 235 249 248
f 235 248 247
f 235 247 246
f 235 246 245
f 235 245 236
f 236 245 237
f 237 245 238
f 239 251 240
f 241 244 254
f 241 254 242
f 244 253 254
f 251 256 252
f 252 256 253
f 253 256 255
