v -0.001880 0.076219 -0.004026
v -0.001880 0.072472 -0.003660
v -0.014585 0.074244 -0.003410
v -0.014585 0.077981 -0.003535
v -0.001880 0.079027 -0.003971
v 0.034433 0.078097 -0.002849
v 0.034463 0.074389 -0.002764
v -0.002176 0.069011 -0.002804
v -0.014585 0.070652 -0.002744
v 0.032669 0.070231 -0.002308
v -0.014585 0.082033 -0.003054
v -0.011261 0.080900 -0.003395
v -0.002820 0.081839 -0.003590
v 0.031856 0.083945 -0.002373
v 0.034439 0.081694 -0.002383
v 0.038389 0.079496 -0.001126
v 0.038437 0.076219 -0.001246
v 0.038220 0.072961 -0.001051
v 0.035607 0.071533 -0.001862
v -0.003759 0.065908 -0.001462
v -0.006806 0.065642 -0.001256
v -0.013327 0.065085 -0.000806
v -0.014585 0.067786 -0.001847
v 0.031115 0.066228 -0.000936
v 0.036721 0.068992 -0.000715
v -0.014585 0.087508 -0.001442
v -0.002465 0.085557 -0.002659
v 0.031073 0.086864 -0.001286
v 0.036721 0.084942 -0.000705
v 0.038461 0.082352 -0.000580
v 0.041484 0.079966 0.001318
v 0.041628 0.076219 0.001168
v 0.041508 0.073411 0.001308
v 0.040569 0.070725 0.001138
v 0.019790 0.052208 0.006587
v -0.009389 0.064882 -0.000846
v -0.014585 0.052208 0.007308
v 0.035920 0.065129 0.000932
v 0.033735 0.063817 0.000993
v 0.024342 0.052208 0.006883
v 0.038329 0.067322 0.000842
v -0.014585 0.093501 0.003492
v -0.005632 0.088684 -0.000956
v 0.027172 0.088641 -0.000590
v 0.031856 0.091700 0.001999
v 0.033861 0.089241 0.000707
v 0.034379 0.091894 0.002811
v 0.036107 0.093254 0.004679
v 0.040207 0.084482 0.001343
v 0.042273 0.083195 0.003061
v 0.043904 0.080014 0.004764
v 0.044199 0.077149 0.005039
v 0.043880 0.074288 0.004644
v 0.042321 0.069853 0.003412
v 0.041279 0.067385 0.003397
v -0.014585 0.052208 0.037365
v 0.036751 0.059194 0.006532
v 0.034391 0.061304 0.003041
v 0.027418 0.052208 0.007789
v -0.014585 0.095258 0.005340
v 0.026521 0.092663 0.002480
v 0.026232 0.090596 0.000852
v 0.032795 0.094372 0.004929
v 0.035728 0.095200 0.007043
v 0.038413 0.095200 0.008951
v 0.038485 0.093201 0.006642
v 0.042375 0.086487 0.004944
v 0.044229 0.083742 0.006712
v 0.045000 0.079966 0.007664
v 0.045090 0.076219 0.007664
v 0.044470 0.072003 0.006687
v 0.043615 0.068222 0.006467
v 0.041285 0.059794 0.011035
v 0.038576 0.059170 0.008400
v -0.014585 0.067176 0.045068
v 0.020602 0.052208 0.036032
v -0.007504 0.066383 0.044542
v 0.030020 0.052208 0.009492
v -0.014585 0.096890 0.007418
v 0.022481 0.094939 0.004889
v 0.026232 0.094682 0.004644
v 0.032296 0.097098 0.008831
v 0.036468 0.096759 0.010093
v 0.040243 0.095515 0.012297
v 0.042465 0.092344 0.010774
v 0.036986 0.098182 0.014245
v 0.044031 0.086666 0.008060
v 0.045223 0.083713 0.009537
v 0.046584 0.083713 0.016103
v 0.045199 0.070594 0.009537
v 0.045434 0.074351 0.009537
v 0.044440 0.066078 0.010248
v 0.043621 0.062597 0.012192
v 0.042531 0.059813 0.014010
v 0.040394 0.057722 0.013664
v 0.039105 0.057679 0.011180
v -0.014585 0.070923 0.046345
v -0.004692 0.067128 0.044782
v -0.001880 0.067786 0.044953
v 0.023276 0.052208 0.035837
v 0.031826 0.052208 0.011746
v -0.014585 0.098531 0.010203
v 0.026232 0.097369 0.008580
v 0.032085 0.098734 0.012287
v 0.034596 0.098313 0.012387
v 0.038521 0.098361 0.017977
v 0.041689 0.095762 0.016193
v 0.044091 0.092087 0.015162
v 0.044163 0.089309 0.010924
v 0.035607 0.099465 0.017977
v 0.045518 0.085407 0.011756
v 0.046511 0.086525 0.017977
v 0.046921 0.083713 0.019384
v 0.046837 0.070594 0.018918
v 0.046469 0.069660 0.016103
v 0.045668 0.068798 0.012412
v 0.045584 0.066397 0.014225
v 0.045000 0.064035 0.015167
v 0.044109 0.061547 0.016008
v 0.042200 0.058318 0.017040
v 0.040219 0.056541 0.017040
v -0.014585 0.074452 0.046961
v -0.005632 0.070802 0.046049
v -0.000008 0.072540 0.046205
v -0.001880 0.070594 0.045859
v 0.034012 0.070052 0.042659
v 0.027509 0.052208 0.034810
v 0.033777 0.052208 0.016349
v -0.014585 0.100259 0.014075
v 0.026232 0.099034 0.012362
v 0.032795 0.099460 0.015167
v 0.026232 0.100060 0.016103
v 0.038582 0.098443 0.021723
v 0.041562 0.096459 0.020556
v 0.035607 0.099576 0.021723
v 0.044314 0.092964 0.019855
v 0.045711 0.089439 0.017977
v 0.045518 0.087605 0.013844
v 0.032795 0.099963 0.017977
v 0.032795 0.100099 0.021723
v 0.046722 0.085591 0.021723
v 0.045753 0.089507 0.021723
v 0.046837 0.082774 0.022654
v 0.046800 0.070594 0.021723
v 0.046578 0.067786 0.021723
v 0.046481 0.067786 0.017977
v 0.045783 0.064950 0.017977
v 0.044416 0.061280 0.018918
v 0.042399 0.058080 0.019855
v 0.040448 0.056367 0.019855
v -0.014585 0.077149 0.047131
v -0.001880 0.074351 0.046545
v -0.000008 0.076219 0.046600
v 0.033735 0.074351 0.043425
v 0.035607 0.076219 0.043320
v 0.038401 0.067941 0.040194
v 0.037058 0.072385 0.042148
v 0.030182 0.052208 0.032982
v 0.039250 0.062510 0.036092
v 0.038491 0.065598 0.038872
v 0.034246 0.052208 0.019905
v -0.014585 0.101319 0.017881
v 0.025913 0.100515 0.019559
v 0.039804 0.097127 0.025675
v 0.036462 0.098797 0.025389
v 0.041809 0.095481 0.025469
v 0.042989 0.094740 0.022654
v 0.032795 0.099625 0.025469
v 0.045193 0.090272 0.024528
v 0.044127 0.092630 0.024242
v 0.026750 0.100559 0.022259
v 0.046608 0.084652 0.024528
v 0.046036 0.087227 0.025444
v 0.045927 0.077996 0.031069
v 0.046379 0.069190 0.025469
v 0.045590 0.066765 0.027788
v 0.045626 0.064950 0.024528
v 0.045945 0.065080 0.021693
v 0.044398 0.061280 0.021723
v 0.041767 0.057867 0.023591
v 0.033975 0.052208 0.025675
v 0.034307 0.052208 0.022715
v -0.014585 0.080068 0.047006
v -0.000008 0.079966 0.046530
v 0.035607 0.079027 0.043290
v 0.038696 0.075285 0.041872
v 0.038479 0.078088 0.041977
v 0.040719 0.065284 0.037139
v 0.041255 0.068609 0.038371
v 0.039948 0.072995 0.040876
v 0.032615 0.052208 0.029601
v 0.041430 0.060467 0.030864
v 0.041682 0.063125 0.033914
v -0.014585 0.101663 0.021613
v 0.037823 0.096899 0.029471
v 0.040948 0.094731 0.029411
v 0.033644 0.098458 0.028950
v 0.043958 0.091879 0.026852
v 0.026232 0.100109 0.025469
v 0.026232 0.099053 0.029216
v 0.045175 0.088399 0.028279
v -0.014585 0.101469 0.025264
v 0.045608 0.085983 0.029421
v 0.046289 0.083243 0.027342
v 0.045434 0.075048 0.033438
v 0.045675 0.081839 0.031650
v 0.045277 0.079966 0.033909
v 0.045253 0.069427 0.031565
v 0.044121 0.065129 0.031239
v 0.044067 0.063067 0.028585
v 0.044302 0.062326 0.025955
v 0.041713 0.059029 0.027322
v -0.014585 0.083776 0.046370
v -0.000008 0.083732 0.045854
v 0.034674 0.081801 0.043024
v 0.034421 0.084720 0.042488
v 0.037534 0.081762 0.041952
v 0.041845 0.076219 0.039689
v 0.041104 0.079027 0.040320
v 0.039816 0.082043 0.040745
v 0.042297 0.067181 0.036468
v 0.042381 0.072540 0.038637
v 0.043694 0.066794 0.033763
v 0.039196 0.094532 0.032436
v 0.035752 0.095108 0.034289
v 0.041544 0.091903 0.032972
v 0.027172 0.097349 0.032722
v 0.032795 0.096531 0.033127
v 0.043832 0.089381 0.031455
v -0.014585 0.100869 0.028214
v -0.014585 0.099930 0.030999
v -0.014585 0.098734 0.033748
v 0.044500 0.086186 0.032922
v 0.044260 0.076219 0.036578
v 0.044103 0.070812 0.035356
v 0.044284 0.083771 0.034880
v 0.043519 0.079554 0.037465
v -0.000947 0.086893 0.044837
v -0.008991 0.089323 0.044216
v -0.014585 0.089483 0.044316
v 0.039509 0.085741 0.039724
v 0.036998 0.087237 0.040365
v 0.033735 0.088132 0.040981
v 0.030875 0.089430 0.040896
v 0.041839 0.081786 0.039143
v 0.038973 0.092489 0.035236
v 0.031856 0.094217 0.036433
v 0.034553 0.093825 0.036268
v 0.041412 0.088897 0.036132
v -0.014585 0.095815 0.038992
v 0.026937 0.094222 0.037074
v 0.041929 0.085107 0.037810
v -0.004692 0.089101 0.044101
v -0.014585 0.092054 0.042689
v 0.038491 0.088723 0.038782
v 0.035294 0.091332 0.038366
f 1 2 3
f 1 3 4
f 1 4 5
f 1 5 6
f 1 6 7
f 1 7 2
f 2 8 9
f 2 9 3
f 2 7 10
f 2 10 8
f 3 9 23
f 3 23 37
f 3 37 56
f 3 56 75
f 3 75 97
f 3 97 122
f 3 122 151
f 3 151 183
f 3 183 213
f 3 213 240
f 3 240 254
f 3 254 250
f 3 250 232
f 3 232 231
f 3 231 230
f 3 230 202
f 3 202 194
f 3 194 162
f 3 162 129
f 3 129 102
f 3 102 79
f 3 79 60
f 3 60 42
f 3 42 26
f 3 26 11
f 3 11 4
f 4 11 12
f 4 12 5
f 5 12 13
f 5 13 14
f 5 14 6
f 6 14 15
f 6 15 16
f 6 16 17
f 6 17 7
f 7 17 18
f 7 18 19
f 7 19 10
f 8 20 21
f 8 21 22
f 8 22 23
f 8 23 9
f 8 10 24
f 8 24 20
f 10 19 25
f 10 25 24
f 11 26 27
f 11 27 13
f 11 13 12
f 13 27 14
f 14 28 29
f 14 29 15
f 14 27 28
f 15 29 30
f 15 30 16
f 16 30 31
f 16 31 32
f 16 32 17
f 17 32 33
f 17 33 18
f 18 33 34
f 18 34 25
f 18 25 19
f 20 35 36
f 20 36 21
f 20 24 35
f 21 36 22
f 22 36 37
f 22 37 23
f 24 25 38
f 24 38 39
f 24 39 40
f 24 40 35
f 25 34 41
f 25 41 38
f 26 42 43
f 26 43 27
f 27 43 44
f 27 44 28
f 28 44 45
f 28 45 46
f 28 46 29
f 29 46 47
f 29 47 48
f 29 48 49
f 29 49 30
f 30 49 31
f 31 50 51
f 31 51 32
f 31 49 50
f 32 51 52
f 32 52 53
f 32 53 33
f 33 53 54
f 33 54 34
f 34 54 55
f 34 55 41
f 35 40 59
f 35 59 78
f 35 78 101
f 35 101 128
f 35 128 161
f 35 161 182
f 35 182 181
f 35 181 191
f 35 191 158
f 35 158 127
f 35 127 100
f 35 100 76
f 35 76 56
f 35 56 37
f 35 37 36
f 38 41 57
f 38 57 58
f 38 58 39
f 39 58 40
f 40 58 59
f 41 55 57
f 42 60 61
f 42 61 43
f 43 62 44
f 43 61 62
f 44 62 45
f 45 62 61
f 45 61 63
f 45 63 47
f 45 47 46
f 47 63 48
f 48 63 64
f 48 64 65
f 48 65 66
f 48 66 49
f 49 66 67
f 49 67 50
f 50 67 68
f 50 68 51
f 51 68 69
f 51 69 52
f 52 69 70
f 52 70 53
f 53 70 71
f 53 71 72
f 53 72 54
f 54 72 55
f 55 72 73
f 55 73 74
f 55 74 57
f 56 76 77
f 56 77 75
f 57 78 59
f 57 59 58
f 57 74 78
f 60 79 80
f 60 80 61
f 61 80 81
f 61 81 63
f 63 81 82
f 63 82 64
f 64 83 65
f 64 82 83
f 65 84 85
f 65 85 66
f 65 83 86
f 65 86 84
f 66 85 67
f 67 85 87
f 67 87 68
f 68 87 88
f 68 88 69
f 69 88 89
f 69 89 70
f 70 90 71
f 70 89 91
f 70 91 90
f 71 90 72
f 72 90 92
f 72 92 93
f 72 93 73
f 73 94 95
f 73 95 96
f 73 96 74
f 73 93 94
f 74 96 78
f 75 77 98
f 75 98 99
f 75 99 97
f 76 100 99
f 76 99 98
f 76 98 77
f 78 96 101
f 79 102 103
f 79 103 80
f 80 103 81
f 81 103 82
f 82 104 105
f 82 105 83
f 82 103 104
f 83 105 86
f 84 86 106
f 84 106 107
f 84 107 85
f 85 107 108
f 85 108 109
f 85 109 87
f 86 105 110
f 86 110 106
f 87 109 111
f 87 111 88
f 88 111 89
f 89 112 113
f 89 113 114
f 89 114 115
f 89 115 91
f 89 111 112
f 90 91 116
f 90 116 92
f 91 115 116
f 92 116 117
f 92 117 118
f 92 118 93
f 93 118 119
f 93 119 94
f 94 120 95
f 94 119 120
f 95 121 101
f 95 101 96
f 95 120 121
f 97 99 123
f 97 123 124
f 97 124 122
f 99 125 123
f 99 100 126
f 99 126 125
f 100 127 126
f 101 121 128
f 102 129 103
f 103 130 104
f 103 129 130
f 104 131 105
f 104 130 132
f 104 132 131
f 105 131 110
f 106 133 134
f 106 134 107
f 106 110 135
f 106 135 133
f 107 134 136
f 107 136 108
f 108 136 137
f 108 137 138
f 108 138 109
f 109 138 111
f 110 131 139
f 110 139 140
f 110 140 135
f 111 138 112
f 112 141 113
f 112 138 137
f 112 137 142
f 112 142 141
f 113 143 144
f 113 144 114
f 113 141 143
f 114 144 145
f 114 145 146
f 114 146 115
f 115 146 117
f 115 117 116
f 117 146 147
f 117 147 118
f 118 147 119
f 119 147 148
f 119 148 120
f 120 148 149
f 120 149 121
f 121 149 150
f 121 150 128
f 122 124 152
f 122 152 151
f 123 125 124
f 124 153 152
f 124 125 126
f 124 126 154
f 124 154 153
f 126 155 154
f 126 127 156
f 126 156 157
f 126 157 155
f 127 158 159
f 127 159 160
f 127 160 156
f 128 150 161
f 129 162 130
f 130 162 132
f 131 132 139
f 132 162 163
f 132 163 139
f 133 164 134
f 133 135 165
f 133 165 164
f 134 166 167
f 134 167 136
f 134 164 166
f 135 140 168
f 135 168 165
f 136 169 142
f 136 142 137
f 136 167 170
f 136 170 169
f 139 163 171
f 139 171 140
f 140 171 168
f 141 172 143
f 141 142 173
f 141 173 172
f 142 169 173
f 143 172 174
f 143 174 144
f 144 174 175
f 144 175 145
f 145 175 176
f 145 176 177
f 145 177 178
f 145 178 146
f 146 178 147
f 147 178 148
f 148 179 149
f 148 178 179
f 149 180 150
f 149 179 180
f 150 180 181
f 150 181 182
f 150 182 161
f 151 152 153
f 151 153 184
f 151 184 183
f 153 154 155
f 153 155 185
f 153 185 184
f 155 157 186
f 155 186 187
f 155 187 185
f 156 160 188
f 156 188 189
f 156 189 190
f 156 190 157
f 157 190 186
f 158 191 192
f 158 192 159
f 159 192 193
f 159 193 188
f 159 188 160
f 162 194 163
f 163 194 171
f 164 165 195
f 164 195 196
f 164 196 166
f 165 168 197
f 165 197 195
f 166 196 198
f 166 198 170
f 166 170 167
f 168 171 199
f 168 199 200
f 168 200 197
f 169 170 198
f 169 198 201
f 169 201 173
f 171 194 202
f 171 202 199
f 172 173 203
f 172 203 204
f 172 204 174
f 173 201 203
f 174 205 175
f 174 204 206
f 174 206 207
f 174 207 205
f 175 205 208
f 175 208 176
f 176 208 209
f 176 209 210
f 176 210 177
f 177 210 211
f 177 211 179
f 177 179 178
f 179 211 180
f 180 211 212
f 180 212 191
f 180 191 181
f 183 184 213
f 184 214 213
f 184 185 215
f 184 215 214
f 185 216 215
f 185 187 217
f 185 217 216
f 186 190 218
f 186 218 219
f 186 219 187
f 187 219 220
f 187 220 217
f 188 193 221
f 188 221 189
f 189 221 222
f 189 222 190
f 190 222 218
f 191 212 192
f 192 212 210
f 192 210 193
f 193 210 209
f 193 209 223
f 193 223 221
f 195 224 196
f 195 197 225
f 195 225 224
f 196 226 198
f 196 224 226
f 197 200 227
f 197 227 228
f 197 228 225
f 198 229 201
f 198 226 229
f 199 202 230
f 199 230 200
f 200 230 231
f 200 231 232
f 200 232 227
f 201 229 233
f 201 233 203
f 203 206 204
f 203 233 206
f 205 207 234
f 205 234 235
f 205 235 208
f 206 233 207
f 207 233 236
f 207 236 237
f 207 237 234
f 208 235 223
f 208 223 209
f 210 212 211
f 213 214 238
f 213 238 239
f 213 239 240
f 214 215 216
f 214 216 238
f 216 217 241
f 216 241 242
f 216 242 243
f 216 243 244
f 216 244 238
f 217 220 241
f 218 222 234
f 218 234 237
f 218 237 219
f 219 237 245
f 219 245 220
f 220 245 241
f 221 223 235
f 221 235 222
f 222 235 234
f 224 225 246
f 224 246 226
f 225 228 247
f 225 247 248
f 225 248 246
f 226 246 249
f 226 249 229
f 227 232 250
f 227 250 251
f 227 251 228
f 228 251 247
f 229 249 233
f 233 249 236
f 236 249 252
f 236 252 245
f 236 245 237
f 238 253 239
f 238 244 253
f 239 254 240
f 239 253 254
f 241 255 242
f 241 245 252
f 241 252 249
f 241 249 255
f 242 256 243
f 242 255 256
f 243 256 244
f 244 256 247
f 244 247 251
f 244 251 254
f 244 254 253
f 246 255 249
f 246 248 256
f 246 256 255
f 247 256 248
f 250 254 251
