v -0.030010 0.049026 0.002485
v -0.030010 0.047713 0.002732
v -0.031881 0.047662 0.002744
v -0.037509 0.047859 0.002874
v -0.031881 0.049026 0.002544
v -0.037509 0.050230 0.002854
v -0.029935 0.050906 0.002744
v -0.029112 0.051906 0.002909
v 0.024342 0.052208 0.006879
v 0.023580 0.049982 0.006706
v 0.022290 0.049130 0.006667
v 0.021543 0.048091 0.006726
v -0.031881 0.046725 0.003565
v 0.022290 0.047340 0.007123
v 0.022478 0.045579 0.008108
v 0.020600 0.044875 0.008579
v -0.033759 0.046786 0.003561
v -0.035630 0.046841 0.003588
v -0.035630 0.047778 0.002835
v -0.037509 0.049026 0.002748
v -0.037509 0.046922 0.003726
v -0.038746 0.047982 0.002921
v -0.038693 0.050109 0.002897
v -0.037509 0.051168 0.003526
v -0.037509 0.052073 0.004460
v -0.035630 0.052121 0.004354
v -0.033759 0.052188 0.004405
v -0.029935 0.052129 0.003875
v 0.020547 0.052208 0.006600
v 0.026122 0.052208 0.007209
v 0.026228 0.049026 0.007397
v 0.024266 0.049130 0.006918
v 0.022795 0.048570 0.006801
v 0.024357 0.047155 0.007503
v -0.033759 0.046038 0.004496
v -0.035630 0.046064 0.004523
v -0.001895 0.044875 0.007260
v -0.003766 0.044875 0.007154
v -0.007508 0.044875 0.006973
v -0.009386 0.044875 0.006899
v -0.031881 0.046055 0.004507
v 0.024357 0.045755 0.008246
v 0.022478 0.044875 0.008717
v -0.038859 0.049026 0.002874
v -0.037509 0.046139 0.004668
v -0.038527 0.046197 0.004810
v -0.039259 0.047204 0.003954
v -0.040594 0.047676 0.004346
v -0.039794 0.049026 0.003200
v -0.040684 0.050473 0.004405
v -0.039394 0.050915 0.003899
v -0.038859 0.051972 0.004637
v -0.037509 0.052208 0.005246
v -0.035630 0.052208 0.004786
v -0.031881 0.052208 0.004366
v -0.030335 0.052208 0.004264
v 0.026816 0.052208 0.007511
v 0.029087 0.049998 0.008568
v 0.028174 0.049126 0.008214
v 0.027601 0.047542 0.008359
v 0.026356 0.047013 0.008088
v 0.025813 0.045997 0.008422
v -0.011264 0.044875 0.006867
v -0.013135 0.044875 0.006895
v -0.015006 0.044875 0.006977
v -0.020226 0.044875 0.007232
v -0.022104 0.044875 0.007354
v -0.029791 0.044875 0.007994
v -0.031210 0.044875 0.008210
v 0.024500 0.044875 0.009129
v -0.042759 0.045036 0.011124
v -0.040798 0.049026 0.004142
v -0.042759 0.052208 0.010739
v 0.028362 0.052208 0.008222
v 0.030014 0.052208 0.009494
v 0.030935 0.049994 0.010456
v 0.029901 0.049241 0.009600
v 0.028845 0.048569 0.008736
v 0.028174 0.047013 0.009035
v 0.027065 0.046293 0.008642
v 0.026348 0.045225 0.009479
v -0.042759 0.044875 0.035171
v 0.026099 0.044875 0.009769
v -0.042759 0.047134 0.010971
v -0.042759 0.049026 0.010876
v -0.042759 0.052208 0.035273
v 0.031651 0.052208 0.011407
v 0.030731 0.048663 0.010763
v 0.032821 0.049861 0.014147
v 0.031282 0.049183 0.011399
v 0.029426 0.047155 0.010048
v 0.029117 0.046130 0.010393
v 0.026590 0.044875 0.010005
v 0.028106 0.045766 0.009977
v -0.038964 0.047735 0.040986
v -0.039500 0.048882 0.041524
v -0.040503 0.049505 0.040814
v -0.042759 0.045653 0.035253
v -0.033759 0.044875 0.036663
v -0.037509 0.047567 0.041253
v -0.042759 0.050903 0.035328
v -0.040503 0.050549 0.040814
v -0.039764 0.051064 0.041426
v -0.038821 0.052165 0.041297
v -0.038376 0.052208 0.041477
v 0.031991 0.052208 0.012086
v 0.030369 0.047137 0.011399
v 0.031116 0.047751 0.012015
v 0.033500 0.052208 0.015149
v 0.033650 0.052208 0.015753
v 0.033341 0.049026 0.017037
v 0.032941 0.049151 0.015298
v 0.032821 0.048026 0.016009
v 0.032625 0.048611 0.014756
v 0.032293 0.049151 0.013425
v 0.030739 0.046501 0.012695
v 0.029434 0.045761 0.011418
v 0.028249 0.044875 0.011277
v -0.038791 0.049507 0.042538
v -0.037509 0.048356 0.042192
v -0.042759 0.049026 0.035359
v -0.042759 0.047528 0.035340
v -0.031775 0.044875 0.036989
v -0.030033 0.044875 0.037189
v -0.022504 0.044875 0.037825
v -0.020633 0.044875 0.037935
v -0.015428 0.044875 0.038175
v -0.014976 0.044875 0.038191
v -0.013309 0.044875 0.038222
v -0.038708 0.050903 0.042494
v -0.038406 0.051847 0.042353
v -0.037840 0.052208 0.041768
v 0.031395 0.047137 0.013307
v 0.033937 0.052208 0.017037
v 0.033681 0.049026 0.018918
v 0.032941 0.047758 0.017037
v 0.032481 0.046819 0.017037
v 0.032232 0.047303 0.015298
v 0.031063 0.046045 0.013943
v 0.029464 0.044875 0.013005
v -0.037509 0.049292 0.042600
v -0.037644 0.051018 0.042553
v -0.030010 0.048595 0.042090
v -0.011664 0.044875 0.038147
v -0.030010 0.051590 0.042274
v -0.030010 0.052208 0.041646
v 0.034005 0.052208 0.017442
v 0.034179 0.052208 0.018918
v 0.034292 0.052208 0.020787
v 0.033756 0.049026 0.020787
v 0.032813 0.046188 0.019849
v 0.033070 0.047114 0.019048
v 0.032662 0.046461 0.018506
v 0.031282 0.045764 0.015164
v 0.030384 0.044875 0.015054
v -0.030010 0.049532 0.042498
v -0.030010 0.050653 0.042498
v -0.011257 0.044875 0.038116
v -0.009786 0.044875 0.037998
v -0.009386 0.044875 0.037959
v -0.028132 0.049719 0.042432
v -0.028132 0.051342 0.042216
v 0.023783 0.052208 0.035780
v 0.022478 0.052208 0.035925
v 0.034307 0.052208 0.022715
v 0.033749 0.049026 0.022657
v 0.033107 0.047519 0.024534
v 0.032572 0.046582 0.024534
v 0.031380 0.044875 0.024353
v 0.031531 0.044875 0.020595
v 0.031568 0.044875 0.019649
v 0.031546 0.044875 0.018981
v 0.031229 0.044875 0.017517
v 0.031418 0.045206 0.017226
v 0.031078 0.044875 0.016982
v -0.028132 0.050405 0.042432
v -0.007907 0.044875 0.037790
v -0.027174 0.050002 0.042357
v 0.024357 0.047517 0.035147
v 0.024357 0.049026 0.035595
v 0.024357 0.052208 0.035713
v 0.034179 0.052208 0.024534
v 0.033658 0.049026 0.024534
v 0.032941 0.047802 0.026057
v 0.032459 0.047167 0.026572
v 0.031448 0.045575 0.026411
v 0.031546 0.045146 0.024541
v 0.031040 0.044875 0.025653
v -0.002295 0.044875 0.037013
v 0.022478 0.046382 0.034735
v 0.024357 0.050903 0.035788
v 0.024357 0.046578 0.034606
v 0.025722 0.047802 0.034994
v 0.026295 0.048993 0.035140
v 0.026228 0.050903 0.035391
v 0.026341 0.052208 0.035261
v 0.033884 0.052208 0.026328
v 0.033213 0.048854 0.026572
v 0.032783 0.048117 0.027310
v 0.031908 0.047155 0.028280
v 0.031154 0.045931 0.028280
v 0.030663 0.044875 0.026752
v 0.021822 0.044875 0.033357
v 0.022478 0.045403 0.033797
v 0.024357 0.045566 0.033671
v 0.026228 0.045789 0.033408
v 0.026295 0.047167 0.034401
v 0.026967 0.048349 0.034770
v 0.027367 0.049596 0.034951
v 0.027487 0.050903 0.035006
v 0.027306 0.052208 0.034994
v 0.033718 0.052208 0.026976
v 0.032994 0.049365 0.027938
v 0.032632 0.048854 0.028448
v 0.031025 0.047906 0.031268
v 0.031244 0.047230 0.030027
v 0.030965 0.046160 0.029312
v 0.029954 0.044878 0.028362
v 0.029343 0.044875 0.029458
v 0.023172 0.044875 0.033109
v 0.024357 0.044875 0.032819
v 0.024757 0.044875 0.032705
v 0.026243 0.044875 0.032250
v 0.027427 0.046028 0.033153
v 0.028068 0.047181 0.033522
v 0.029275 0.047822 0.033157
v 0.028038 0.048993 0.034390
v 0.029562 0.049026 0.033400
v 0.028430 0.050903 0.034496
v 0.028189 0.052208 0.034496
v 0.033092 0.052208 0.028625
v 0.032775 0.050903 0.029175
v 0.031983 0.049026 0.030157
v 0.030497 0.049026 0.032489
v 0.029931 0.047239 0.031963
v 0.030588 0.046657 0.030561
v 0.031229 0.049026 0.031551
v 0.029328 0.045972 0.031405
v 0.029962 0.045684 0.030027
v 0.028672 0.044875 0.030365
v 0.027578 0.044875 0.031523
v 0.027932 0.045375 0.031888
v 0.028672 0.046572 0.032654
v 0.030663 0.050903 0.032681
v 0.029728 0.050903 0.033557
v 0.029283 0.052208 0.033785
v 0.032813 0.052208 0.029234
v 0.032308 0.050903 0.030157
v 0.031395 0.050903 0.031747
v 0.030610 0.052208 0.032654
v 0.030331 0.052208 0.032917
v 0.031282 0.052208 0.031857
v 0.029675 0.052208 0.033498
v 0.032391 0.052208 0.030078
v 0.032164 0.052208 0.030467
f 1 2 3
f 1 3 4
f 1 4 5
f 1 5 6
f 1 6 7
f 1 7 8
f 1 8 9
f 1 9 10
f 1 10 11
f 1 11 12
f 1 12 2
f 2 13 3
f 2 12 14
f 2 14 15
f 2 15 16
f 2 16 13
f 3 13 17
f 3 17 18
f 3 18 19
f 3 19 4
f 4 20 5
f 4 19 18
f 4 18 21
f 4 21 22
f 4 22 20
f 5 20 6
f 6 20 23
f 6 23 8
f 6 8 7
f 8 23 24
f 8 24 25
f 8 25 26
f 8 26 27
f 8 27 28
f 8 28 29
f 8 29 9
f 9 29 56
f 9 56 55
f 9 55 54
f 9 54 53
f 9 53 73
f 9 73 86
f 9 86 105
f 9 105 132
f 9 132 146
f 9 146 164
f 9 164 163
f 9 163 181
f 9 181 196
f 9 196 211
f 9 211 230
f 9 230 246
f 9 246 253
f 9 253 251
f 9 251 250
f 9 250 252
f 9 252 255
f 9 255 254
f 9 254 247
f 9 247 231
f 9 231 212
f 9 212 197
f 9 197 182
f 9 182 165
f 9 165 149
f 9 149 148
f 9 148 147
f 9 147 134
f 9 134 110
f 9 110 109
f 9 109 106
f 9 106 87
f 9 87 75
f 9 75 74
f 9 74 57
f 9 57 30
f 9 30 10
f 10 30 31
f 10 31 32
f 10 32 33
f 10 33 11
f 11 33 12
f 12 33 34
f 12 34 14
f 13 35 36
f 13 36 17
f 13 16 37
f 13 37 38
f 13 38 39
f 13 39 40
f 13 40 41
f 13 41 35
f 14 34 42
f 14 42 15
f 15 42 43
f 15 43 16
f 16 43 70
f 16 70 83
f 16 83 93
f 16 93 118
f 16 118 140
f 16 140 155
f 16 155 175
f 16 175 173
f 16 173 172
f 16 172 171
f 16 171 170
f 16 170 169
f 16 169 188
f 16 188 202
f 16 202 219
f 16 219 240
f 16 240 241
f 16 241 223
f 16 223 222
f 16 222 221
f 16 221 220
f 16 220 203
f 16 203 189
f 16 189 177
f 16 177 160
f 16 160 159
f 16 159 158
f 16 158 144
f 16 144 129
f 16 129 128
f 16 128 127
f 16 127 126
f 16 126 125
f 16 125 124
f 16 124 123
f 16 123 99
f 16 99 82
f 16 82 69
f 16 69 68
f 16 68 67
f 16 67 66
f 16 66 65
f 16 65 64
f 16 64 63
f 16 63 40
f 16 40 39
f 16 39 38
f 16 38 37
f 17 36 18
f 18 36 21
f 20 22 44
f 20 44 23
f 21 36 45
f 21 45 46
f 21 46 22
f 22 46 47
f 22 47 48
f 22 48 49
f 22 49 44
f 23 44 49
f 23 49 50
f 23 50 51
f 23 51 52
f 23 52 24
f 24 52 25
f 25 53 54
f 25 54 26
f 25 52 53
f 26 54 27
f 27 54 55
f 27 55 28
f 28 55 56
f 28 56 29
f 30 57 58
f 30 58 59
f 30 59 31
f 31 59 60
f 31 60 61
f 31 61 34
f 31 34 32
f 32 34 33
f 34 61 62
f 34 62 42
f 35 41 40
f 35 40 63
f 35 63 64
f 35 64 65
f 35 65 66
f 35 66 36
f 36 66 67
f 36 67 68
f 36 68 69
f 36 69 45
f 42 62 70
f 42 70 43
f 45 69 71
f 45 71 46
f 46 71 48
f 46 48 47
f 48 71 72
f 48 72 49
f 49 72 50
f 50 72 73
f 50 73 52
f 50 52 51
f 52 73 53
f 57 74 58
f 58 75 76
f 58 76 77
f 58 77 78
f 58 78 59
f 58 74 75
f 59 78 60
f 60 78 79
f 60 79 80
f 60 80 61
f 61 80 62
f 62 80 81
f 62 81 70
f 69 82 71
f 70 81 83
f 71 84 72
f 71 82 98
f 71 98 122
f 71 122 121
f 71 121 101
f 71 101 86
f 71 86 73
f 71 73 85
f 71 85 84
f 72 84 85
f 72 85 73
f 75 87 76
f 76 88 77
f 76 87 89
f 76 89 90
f 76 90 88
f 77 88 78
f 78 88 91
f 78 91 79
f 79 91 92
f 79 92 80
f 80 93 81
f 80 92 94
f 80 94 93
f 81 93 83
f 82 95 96
f 82 96 97
f 82 97 98
f 82 99 100
f 82 100 95
f 86 101 102
f 86 102 103
f 86 103 104
f 86 104 105
f 87 106 89
f 88 107 91
f 88 90 108
f 88 108 107
f 89 109 110
f 89 110 111
f 89 111 112
f 89 112 113
f 89 113 114
f 89 114 115
f 89 115 90
f 89 106 109
f 90 115 108
f 91 107 92
f 92 107 116
f 92 116 117
f 92 117 118
f 92 118 94
f 93 94 118
f 95 119 96
f 95 100 120
f 95 120 119
f 96 119 97
f 97 102 121
f 97 121 122
f 97 122 98
f 97 119 102
f 99 123 100
f 100 123 124
f 100 124 125
f 100 125 126
f 100 126 127
f 100 127 128
f 100 128 129
f 100 129 120
f 101 121 102
f 102 119 130
f 102 130 103
f 103 130 131
f 103 131 104
f 104 131 105
f 105 131 132
f 107 108 116
f 108 115 114
f 108 114 133
f 108 133 116
f 110 134 111
f 111 134 135
f 111 135 136
f 111 136 113
f 111 113 112
f 113 136 137
f 113 137 138
f 113 138 114
f 114 138 133
f 116 133 139
f 116 139 117
f 117 140 118
f 117 139 140
f 119 120 141
f 119 141 142
f 119 142 130
f 120 129 143
f 120 143 141
f 129 144 143
f 130 142 131
f 131 142 145
f 131 145 146
f 131 146 132
f 133 138 139
f 134 147 135
f 135 147 148
f 135 148 149
f 135 149 150
f 135 150 151
f 135 151 152
f 135 152 136
f 136 152 153
f 136 153 137
f 137 154 138
f 137 153 154
f 138 154 139
f 139 154 155
f 139 155 140
f 141 143 156
f 141 156 157
f 141 157 142
f 142 157 145
f 143 144 158
f 143 158 159
f 143 159 160
f 143 160 161
f 143 161 156
f 145 157 162
f 145 162 163
f 145 163 164
f 145 164 146
f 149 165 150
f 150 165 166
f 150 166 151
f 151 153 152
f 151 166 167
f 151 167 168
f 151 168 169
f 151 169 170
f 151 170 171
f 151 171 172
f 151 172 173
f 151 173 174
f 151 174 153
f 153 174 154
f 154 174 175
f 154 175 155
f 156 161 176
f 156 176 157
f 157 176 162
f 160 177 161
f 161 178 176
f 161 177 179
f 161 179 180
f 161 180 178
f 162 176 181
f 162 181 163
f 165 182 183
f 165 183 166
f 166 183 167
f 167 184 168
f 167 183 184
f 168 185 186
f 168 186 187
f 168 187 169
f 168 184 185
f 169 186 188
f 169 187 186
f 173 175 174
f 176 178 181
f 177 189 190
f 177 190 179
f 178 180 191
f 178 191 181
f 179 190 192
f 179 192 193
f 179 193 180
f 180 193 194
f 180 194 195
f 180 195 191
f 181 191 195
f 181 195 196
f 182 197 183
f 183 198 184
f 183 197 198
f 184 198 199
f 184 199 185
f 185 200 201
f 185 201 186
f 185 199 200
f 186 201 188
f 188 201 202
f 189 203 204
f 189 204 205
f 189 205 190
f 190 205 192
f 192 205 206
f 192 206 207
f 192 207 193
f 193 207 208
f 193 208 194
f 194 208 209
f 194 209 195
f 195 209 210
f 195 210 211
f 195 211 196
f 197 212 213
f 197 213 198
f 198 213 199
f 199 213 214
f 199 214 215
f 199 215 216
f 199 216 200
f 200 216 217
f 200 217 201
f 201 217 202
f 202 217 218
f 202 218 219
f 203 220 205
f 203 205 204
f 205 220 221
f 205 221 222
f 205 222 206
f 206 223 224
f 206 224 207
f 206 222 223
f 207 224 225
f 207 225 208
f 208 225 226
f 208 226 227
f 208 227 209
f 209 227 228
f 209 228 229
f 209 229 210
f 210 229 211
f 211 229 230
f 212 231 232
f 212 232 213
f 213 232 233
f 213 233 214
f 214 233 215
f 215 234 226
f 215 226 235
f 215 235 236
f 215 236 217
f 215 217 216
f 215 233 237
f 215 237 234
f 217 236 238
f 217 238 239
f 217 239 219
f 217 219 218
f 219 239 238
f 219 238 240
f 223 241 224
f 224 241 242
f 224 242 238
f 224 238 243
f 224 243 226
f 224 226 225
f 226 243 235
f 226 234 228
f 226 228 227
f 228 234 244
f 228 244 245
f 228 245 229
f 229 245 246
f 229 246 230
f 231 247 232
f 232 247 248
f 232 248 233
f 233 248 237
f 234 237 249
f 234 249 244
f 235 243 238
f 235 238 236
f 237 248 249
f 238 242 241
f 238 241 240
f 244 250 251
f 244 251 245
f 244 249 252
f 244 252 250
f 245 253 246
f 245 251 253
f 247 254 248
f 248 254 249
f 249 254 255
f 249 255 252
