v -0.042768 0.052208 0.010734
v -0.042768 0.052208 0.035272
v -0.042768 0.049028 0.010877
v -0.055831 0.052208 0.011260
v -0.042768 0.050903 0.035330
v -0.054395 0.052208 0.035486
v -0.042768 0.047134 0.010967
v -0.056269 0.052208 0.011289
v -0.042768 0.045278 0.011095
v -0.042768 0.049028 0.035360
v -0.056269 0.052208 0.035444
v -0.054395 0.045278 0.035314
v -0.042768 0.047528 0.035340
v -0.056269 0.045278 0.011997
v -0.057675 0.052208 0.011405
v -0.054395 0.045278 0.011868
v -0.042768 0.044875 0.011139
v -0.056755 0.052208 0.035393
v -0.056269 0.045278 0.035255
v -0.054973 0.044875 0.035236
v -0.054395 0.044875 0.035248
v -0.042768 0.044875 0.035171
v -0.042768 0.044957 0.035180
v -0.042768 0.045653 0.035253
v -0.056269 0.044875 0.012038
v -0.057786 0.044875 0.012222
v -0.058186 0.052208 0.011471
v -0.058325 0.052208 0.035163
v -0.058144 0.045278 0.035059
v -0.058557 0.044875 0.034986
v -0.056937 0.044875 0.035149
v -0.056269 0.044875 0.035195
v -0.058423 0.044875 0.012358
v -0.059468 0.052208 0.011733
v -0.062010 0.052208 0.034122
v -0.059211 0.045278 0.034892
v -0.059197 0.044875 0.034887
v -0.058795 0.045278 0.012411
v -0.060018 0.044875 0.012832
v -0.060018 0.045278 0.012767
v -0.061893 0.045278 0.013540
v -0.063385 0.052208 0.013399
v -0.063410 0.052208 0.033441
v -0.061893 0.045278 0.033777
v -0.060150 0.045278 0.034567
v -0.062278 0.044875 0.033518
v -0.061901 0.044875 0.013601
v -0.062977 0.044875 0.014126
v -0.063586 0.052208 0.013504
v -0.065499 0.052208 0.031856
v -0.063047 0.045278 0.033121
v -0.063013 0.044875 0.033099
v -0.063608 0.044875 0.014664
v -0.070092 0.052208 0.017128
v -0.067589 0.052208 0.030163
v -0.063985 0.045278 0.032346
v -0.064273 0.044875 0.032004
v -0.064890 0.044875 0.015868
v -0.070572 0.052208 0.017739
v -0.068592 0.052208 0.028285
v -0.066516 0.045278 0.029055
v -0.065846 0.045278 0.030160
v -0.064943 0.044875 0.031369
v -0.065432 0.044875 0.016680
v -0.071307 0.052208 0.018911
v -0.069935 0.052208 0.024527
v -0.066835 0.044875 0.028050
v -0.066589 0.044875 0.028716
v -0.065723 0.044875 0.030155
v -0.066195 0.044875 0.018032
v -0.066407 0.044875 0.018417
v -0.066804 0.044875 0.019289
v -0.067156 0.044875 0.020401
v -0.067234 0.044875 0.020767
v -0.067511 0.044875 0.022267
v -0.067580 0.044875 0.022662
v -0.067561 0.044875 0.024535
v -0.067323 0.044875 0.026008
v -0.067248 0.044875 0.026415
f 1 2 5
f 1 5 10
f 1 10 13
f 1 13 24
f 1 24 23
f 1 23 22
f 1 22 17
f 1 17 9
f 1 9 7
f 1 7 3
f 1 3 4
f 1 4 8
f 1 8 15
f 1 15 27
f 1 27 34
f 1 34 42
f 1 42 49
f 1 49 54
f 1 54 59
f 1 59 65
f 1 65 66
f 1 66 60
f 1 60 55
f 1 55 50
f 1 50 43
f 1 43 35
f 1 35 28
f 1 28 18
f 1 18 11
f 1 11 6
f 1 6 2
f 2 6 5
f 3 7 4
f 4 7 9
f 4 9 8
f 5 6 10
f 6 11 12
f 6 12 13
f 6 13 10
f 8 14 15
f 8 9 16
f 8 16 14
f 9 17 16
f 11 18 19
f 11 19 12
f 12 19 20
f 12 20 21
f 12 21 22
f 12 22 23
f 12 23 24
f 12 24 13
f 14 16 25
f 14 25 15
f 15 25 26
f 15 26 27
f 16 17 25
f 17 22 21
f 17 21 20
f 17 20 32
f 17 32 31
f 17 31 30
f 17 30 37
f 17 37 46
f 17 46 52
f 17 52 57
f 17 57 63
f 17 63 69
f 17 69 68
f 17 68 67
f 17 67 79
f 17 79 78
f 17 78 77
f 17 77 76
f 17 76 75
f 17 75 74
f 17 74 73
f 17 73 72
f 17 72 71
f 17 71 70
f 17 70 64
f 17 64 58
f 17 58 53
f 17 53 48
f 17 48 47
f 17 47 39
f 17 39 33
f 17 33 26
f 17 26 25
f 18 28 29
f 18 29 19
f 19 29 30
f 19 30 31
f 19 31 32
f 19 32 20
f 26 33 34
f 26 34 27
f 28 35 36
f 28 36 37
f 28 37 29
f 29 37 30
f 33 38 34
f 33 39 40
f 33 40 38
f 34 38 40
f 34 40 41
f 34 41 42
f 35 43 44
f 35 44 45
f 35 45 37
f 35 37 36
f 37 45 46
f 39 47 40
f 40 47 41
f 41 47 48
f 41 48 42
f 42 48 49
f 43 50 51
f 43 51 44
f 44 51 46
f 44 46 45
f 46 51 52
f 48 53 54
f 48 54 49
f 50 55 51
f 51 55 56
f 51 56 52
f 52 56 57
f 53 58 54
f 54 58 59
f 55 60 61
f 55 61 62
f 55 62 63
f 55 63 57
f 55 57 56
f 58 64 59
f 59 64 65
f 60 66 67
f 60 67 68
f 60 68 61
f 61 68 69
f 61 69 62
f 62 69 63
f 64 70 65
f 65 70 71
f 65 71 72
f 65 72 73
f 65 73 74
f 65 74 75
f 65 75 76
f 65 76 77
f 65 77 78
f 65 78 79
f 65 79 66
f 66 79 67
