v -0.019787 0.003865 0.006761
v -0.019718 0.003778 0.005576
v -0.019739 0.003602 0.005843
v -0.019773 0.003602 0.006629
v -0.019744 0.002806 0.007594
v -0.019752 0.003169 0.008581
v -0.019754 0.003514 0.008581
v -0.019740 0.004141 0.008576
v -0.019393 0.014839 0.008570
v -0.019563 0.010269 0.007155
v -0.019533 0.010972 0.006805
v -0.019524 0.011148 0.006629
v -0.019553 0.008374 0.005079
v -0.019690 0.003689 0.005152
v -0.019678 0.003441 0.005079
v -0.019717 0.003333 0.005682
v -0.019704 0.002635 0.007064
v -0.019711 0.002630 0.007331
v -0.019674 0.002563 0.008581
v -0.019729 0.002831 0.008581
v -0.019683 0.002988 0.005664
v -0.019327 0.015460 0.008581
v -0.019369 0.015113 0.008579
v -0.019335 0.015448 0.007375
v -0.019380 0.014832 0.007419
v -0.019535 0.008900 0.005079
v -0.019377 0.014735 0.007008
v -0.019324 0.014660 0.005079
v -0.019654 0.003164 0.005079
v -0.019645 0.002901 0.005400
v -0.019627 0.002550 0.006278
v -0.019585 0.002395 0.006454
v -0.019567 0.002312 0.006767
v -0.019574 0.002302 0.007023
v -0.019578 0.002294 0.007419
v -0.019547 0.002253 0.008576
v -0.019187 0.001814 0.008579
v -0.018225 0.001351 0.008581
v -0.019294 0.015712 0.008581
v -0.019310 0.015712 0.007331
v -0.019290 0.015887 0.006892
v -0.019292 0.015800 0.006454
v -0.019305 0.015448 0.005971
v -0.019310 0.014937 0.005079
v -0.019387 0.002330 0.005087
v -0.019531 0.002620 0.005126
v -0.019617 0.002901 0.005152
v -0.019175 0.002044 0.005079
v -0.019587 0.002647 0.005488
v -0.019612 0.002622 0.005839
v -0.019484 0.002402 0.005488
v -0.019398 0.002166 0.005927
v -0.019412 0.002121 0.006366
v -0.019407 0.002074 0.006629
v -0.019508 0.002179 0.007682
v -0.019491 0.002151 0.008296
v -0.019388 0.002011 0.008480
v -0.019312 0.001914 0.008033
v -0.019191 0.001808 0.008318
v -0.019087 0.001716 0.007945
v -0.018945 0.001630 0.008384
v -0.018818 0.001563 0.008579
v -0.018512 0.001425 0.008576
v -0.018314 0.001369 0.008340
v -0.018236 0.001353 0.007682
v -0.018060 0.001325 0.007155
v -0.017885 0.001299 0.007857
v -0.018060 0.001326 0.008384
v -0.017962 0.001315 0.008581
v -0.019252 0.015990 0.008581
v -0.019288 0.015887 0.007155
v -0.019258 0.016062 0.006717
v -0.019281 0.015800 0.006190
v -0.019246 0.016062 0.006366
v -0.019277 0.015712 0.005927
v -0.019254 0.015456 0.005079
v -0.019362 0.002161 0.005708
v -0.018996 0.001858 0.005152
v -0.019077 0.001888 0.005400
v -0.019171 0.001968 0.005488
v -0.019274 0.001990 0.006060
v -0.018150 0.001423 0.005079
v -0.018484 0.001538 0.005152
v -0.019171 0.001850 0.006366
v -0.019346 0.001985 0.006936
v -0.019308 0.001919 0.007506
v -0.019127 0.001750 0.007594
v -0.018954 0.001625 0.007682
v -0.018850 0.001569 0.007945
v -0.018481 0.001413 0.007857
v -0.018392 0.001387 0.007857
v -0.018236 0.001356 0.007331
v -0.017797 0.001292 0.006190
v -0.017797 0.001285 0.006979
v -0.018236 0.001363 0.006979
v -0.017534 0.001248 0.006629
v -0.016920 0.001167 0.006541
v -0.016611 0.001162 0.008480
v -0.016284 0.001144 0.008581
v -0.019173 0.016327 0.008581
v -0.019213 0.016245 0.006848
v -0.019216 0.016110 0.006060
v -0.019176 0.016336 0.006541
v -0.019184 0.015813 0.005079
v -0.018822 0.001725 0.005190
v -0.018967 0.001744 0.005859
v -0.017278 0.001241 0.005079
v -0.017797 0.001336 0.005152
v -0.017885 0.001340 0.005400
v -0.018128 0.001379 0.005664
v -0.018218 0.001423 0.005335
v -0.018411 0.001484 0.005400
v -0.018561 0.001551 0.005400
v -0.018988 0.001717 0.006278
v -0.019175 0.001829 0.006717
v -0.019078 0.001721 0.007331
v -0.018938 0.001661 0.006629
v -0.018815 0.001566 0.007103
v -0.018798 0.001550 0.007419
v -0.018521 0.001432 0.007594
v -0.018312 0.001395 0.006454
v -0.018060 0.001345 0.006190
v -0.017885 0.001326 0.005664
v -0.017621 0.001276 0.005664
v -0.017375 0.001230 0.005927
v -0.017094 0.001189 0.006015
v -0.016831 0.001159 0.006102
v -0.016656 0.001144 0.006805
v -0.016482 0.001133 0.007331
v -0.014024 0.000959 0.006015
v -0.014024 0.000968 0.006278
v -0.013219 0.000972 0.006837
v -0.013487 0.001120 0.008581
v -0.019152 0.016414 0.006805
v -0.019041 0.016662 0.008581
v -0.019115 0.016077 0.005079
v -0.019117 0.016414 0.006190
v -0.019035 0.016325 0.005154
v -0.019034 0.016606 0.006366
v -0.018657 0.001568 0.005752
v -0.018748 0.001592 0.006015
v -0.016904 0.001189 0.005079
v -0.017255 0.001226 0.005346
v -0.018294 0.001417 0.005752
v -0.018411 0.001458 0.005752
v -0.018620 0.001519 0.006190
v -0.018818 0.001601 0.006454
v -0.018508 0.001445 0.006936
v -0.018350 0.001422 0.006007
v -0.017183 0.001205 0.005752
v -0.016920 0.001174 0.005664
v -0.016656 0.001164 0.005079
v -0.013849 0.000944 0.005664
v -0.013585 0.000929 0.005488
v -0.013245 0.000921 0.005488
v -0.013219 0.017373 0.005079
v -0.013219 0.001121 0.008581
v -0.019072 0.016588 0.007155
v -0.019034 0.016650 0.006892
v -0.018857 0.016951 0.008576
v -0.018874 0.016929 0.008296
v -0.018889 0.016903 0.007857
v -0.019020 0.016691 0.007550
v -0.017984 0.017538 0.008581
v -0.018863 0.016616 0.005106
v -0.018252 0.017213 0.005079
v -0.019021 0.016561 0.005971
v -0.019062 0.016448 0.005828
v -0.018937 0.016589 0.005488
v -0.018995 0.016693 0.006629
v -0.018908 0.016791 0.006380
v -0.018909 0.016752 0.006102
v -0.013746 0.000950 0.005079
v -0.013267 0.000921 0.005152
v -0.016573 0.017571 0.005079
v -0.016656 0.017648 0.005752
v -0.016482 0.017676 0.006278
v -0.013219 0.017479 0.006702
v -0.013219 0.017384 0.008581
v -0.018877 0.016888 0.007068
v -0.018914 0.016823 0.006805
v -0.018822 0.016993 0.008033
v -0.018309 0.017402 0.008576
v -0.018682 0.017146 0.008477
v -0.018849 0.016941 0.007419
v -0.017621 0.017622 0.008581
v -0.017709 0.017611 0.007155
v -0.017914 0.017561 0.007331
v -0.018060 0.017509 0.007506
v -0.018838 0.016752 0.005576
v -0.018806 0.016740 0.005306
v -0.018681 0.016864 0.005153
v -0.018281 0.017230 0.005333
v -0.018144 0.017333 0.005554
v -0.017996 0.017356 0.005118
v -0.017454 0.017509 0.005079
v -0.018495 0.017043 0.005188
v -0.018771 0.016970 0.006585
v -0.018698 0.016967 0.005927
v -0.018857 0.016775 0.005839
v -0.016916 0.017570 0.005079
v -0.017116 0.017614 0.005444
v -0.017094 0.017662 0.005839
v -0.016788 0.017675 0.006015
v -0.016656 0.017685 0.006278
v -0.016569 0.017693 0.006541
v -0.016306 0.017683 0.006629
v -0.013219 0.017494 0.006928
v -0.013219 0.017478 0.007945
v -0.016930 0.017640 0.008581
v -0.018756 0.017018 0.006936
v -0.018735 0.017089 0.008121
v -0.018386 0.017364 0.008296
v -0.018557 0.017251 0.008208
v -0.018667 0.017133 0.007419
v -0.017276 0.017648 0.008581
v -0.017358 0.017668 0.006717
v -0.017534 0.017642 0.006629
v -0.017621 0.017627 0.006892
v -0.017850 0.017570 0.006805
v -0.017937 0.017543 0.006805
v -0.017986 0.017534 0.007068
v -0.018281 0.017404 0.007277
v -0.018704 0.016883 0.005400
v -0.018571 0.017011 0.005400
v -0.018568 0.017085 0.005927
v -0.018443 0.017225 0.006278
v -0.018117 0.017422 0.006278
v -0.017844 0.017506 0.005839
v -0.017709 0.017497 0.005400
v -0.017709 0.017465 0.005152
v -0.017509 0.017532 0.005291
v -0.017358 0.017614 0.005664
v -0.017211 0.017547 0.005079
v -0.018561 0.017049 0.005620
v -0.018607 0.017107 0.006370
v -0.017358 0.017645 0.006015
v -0.017094 0.017681 0.006190
v -0.016831 0.017693 0.006454
v -0.016831 0.017693 0.006629
v -0.016394 0.017691 0.006848
v -0.013219 0.017509 0.007279
v -0.013219 0.017507 0.007612
v -0.016218 0.017680 0.007111
v -0.018694 0.017093 0.007155
v -0.018384 0.017363 0.008033
v -0.018553 0.017245 0.007857
v -0.018530 0.017226 0.006979
v -0.017094 0.017685 0.006541
v -0.017446 0.017645 0.006322
v -0.017573 0.017602 0.006015
v -0.017768 0.017581 0.006541
v -0.018139 0.017437 0.006585
v -0.018487 0.017235 0.006717
v -0.017604 0.017566 0.005720
f 1 2 3
f 1 3 4
f 1 4 5
f 1 5 6
f 1 6 7
f 1 7 8
f 1 8 9
f 1 9 10
f 1 10 11
f 1 11 12
f 1 12 13
f 1 13 2
f 2 13 14
f 2 14 3
f 3 14 15
f 3 15 16
f 3 16 4
f 4 16 5
f 5 17 18
f 5 18 19
f 5 19 20
f 5 20 6
f 5 16 21
f 5 21 17
f 6 20 19
f 6 19 38
f 6 38 69
f 6 69 99
f 6 99 133
f 6 133 157
f 6 157 179
f 6 179 210
f 6 210 216
f 6 216 186
f 6 186 164
f 6 164 135
f 6 135 100
f 6 100 70
f 6 70 39
f 6 39 22
f 6 22 7
f 7 22 23
f 7 23 9
f 7 9 8
f 9 23 24
f 9 24 25
f 9 25 12
f 9 12 11
f 9 11 10
f 12 26 13
f 12 25 27
f 12 27 28
f 12 28 26
f 13 26 28
f 13 28 44
f 13 44 76
f 13 76 104
f 13 104 136
f 13 136 166
f 13 166 196
f 13 196 234
f 13 234 201
f 13 201 175
f 13 175 156
f 13 156 173
f 13 173 152
f 13 152 142
f 13 142 107
f 13 107 82
f 13 82 48
f 13 48 29
f 13 29 15
f 13 15 14
f 15 29 16
f 16 29 21
f 17 21 30
f 17 30 31
f 17 31 32
f 17 32 33
f 17 33 34
f 17 34 18
f 18 34 35
f 18 35 19
f 19 35 36
f 19 36 37
f 19 37 38
f 21 29 30
f 22 39 40
f 22 40 23
f 23 40 24
f 24 40 41
f 24 41 42
f 24 42 25
f 25 42 43
f 25 43 27
f 27 43 44
f 27 44 28
f 29 45 46
f 29 46 47
f 29 47 30
f 29 48 45
f 30 47 49
f 30 49 50
f 30 50 31
f 31 50 49
f 31 49 32
f 32 51 52
f 32 52 33
f 32 49 51
f 33 52 53
f 33 53 54
f 33 54 34
f 34 54 55
f 34 55 35
f 35 55 56
f 35 56 36
f 36 56 57
f 36 57 37
f 37 57 58
f 37 58 59
f 37 59 60
f 37 60 61
f 37 61 62
f 37 62 38
f 38 62 63
f 38 63 64
f 38 64 65
f 38 65 66
f 38 66 67
f 38 67 68
f 38 68 69
f 39 70 71
f 39 71 40
f 40 71 41
f 41 71 72
f 41 72 42
f 42 73 43
f 42 72 74
f 42 74 73
f 43 73 75
f 43 75 44
f 44 75 76
f 45 51 46
f 45 48 77
f 45 77 52
f 45 52 51
f 46 51 49
f 46 49 47
f 48 78 79
f 48 79 80
f 48 80 81
f 48 81 77
f 48 82 83
f 48 83 78
f 52 77 81
f 52 81 54
f 52 54 53
f 54 81 84
f 54 84 85
f 54 85 86
f 54 86 55
f 55 57 56
f 55 86 58
f 55 58 57
f 58 87 59
f 58 86 87
f 59 87 60
f 60 88 61
f 60 87 88
f 61 88 89
f 61 89 62
f 62 89 63
f 63 89 90
f 63 90 91
f 63 91 64
f 64 91 65
f 65 91 92
f 65 92 66
f 66 93 94
f 66 94 67
f 66 92 95
f 66 95 93
f 67 69 68
f 67 94 96
f 67 96 97
f 67 97 69
f 69 97 98
f 69 98 99
f 70 100 72
f 70 72 71
f 72 100 101
f 72 101 74
f 73 74 102
f 73 102 75
f 74 101 103
f 74 103 102
f 75 102 76
f 76 102 104
f 78 105 106
f 78 106 79
f 78 83 105
f 79 106 84
f 79 84 81
f 79 81 80
f 82 107 108
f 82 108 109
f 82 109 110
f 82 110 111
f 82 111 112
f 82 112 83
f 83 112 113
f 83 113 105
f 84 106 114
f 84 114 115
f 84 115 85
f 85 115 86
f 86 115 87
f 87 115 116
f 87 116 88
f 88 116 117
f 88 117 118
f 88 118 119
f 88 119 89
f 89 119 120
f 89 120 90
f 90 121 91
f 90 120 121
f 91 121 95
f 91 95 92
f 93 95 122
f 93 122 123
f 93 123 124
f 93 124 125
f 93 125 96
f 93 96 94
f 95 121 122
f 96 125 126
f 96 126 97
f 97 126 127
f 97 127 128
f 97 128 129
f 97 129 98
f 98 129 99
f 99 129 130
f 99 130 131
f 99 131 132
f 99 132 133
f 100 134 101
f 100 135 134
f 101 134 103
f 102 136 104
f 102 103 137
f 102 137 138
f 102 138 136
f 103 134 139
f 103 139 137
f 105 113 140
f 105 140 141
f 105 141 106
f 106 141 114
f 107 142 143
f 107 143 124
f 107 124 109
f 107 109 108
f 109 124 123
f 109 123 110
f 110 121 144
f 110 144 111
f 110 123 122
f 110 122 121
f 111 144 112
f 112 145 146
f 112 146 140
f 112 140 113
f 112 144 145
f 114 117 116
f 114 116 115
f 114 141 147
f 114 147 117
f 117 147 118
f 118 147 146
f 118 146 148
f 118 148 119
f 119 148 120
f 120 148 121
f 121 148 149
f 121 149 144
f 124 143 125
f 125 143 150
f 125 150 126
f 126 151 127
f 126 150 151
f 127 152 153
f 127 153 128
f 127 151 152
f 128 153 129
f 129 153 130
f 130 153 154
f 130 154 155
f 130 155 131
f 131 155 132
f 132 155 156
f 132 156 178
f 132 178 208
f 132 208 242
f 132 242 243
f 132 243 209
f 132 209 179
f 132 179 157
f 132 157 133
f 134 135 158
f 134 158 159
f 134 159 139
f 135 160 161
f 135 161 162
f 135 162 163
f 135 163 158
f 135 164 160
f 136 138 165
f 136 165 166
f 137 167 168
f 137 168 138
f 137 139 167
f 138 168 167
f 138 167 169
f 138 169 165
f 139 159 170
f 139 170 171
f 139 171 172
f 139 172 167
f 140 146 141
f 141 146 147
f 142 151 150
f 142 150 143
f 142 152 151
f 144 149 145
f 145 149 146
f 146 149 148
f 152 173 153
f 153 173 154
f 154 173 174
f 154 174 155
f 155 174 156
f 156 174 173
f 156 175 176
f 156 176 177
f 156 177 178
f 158 163 159
f 159 163 162
f 159 162 180
f 159 180 181
f 159 181 170
f 160 182 161
f 160 164 183
f 160 183 184
f 160 184 182
f 161 182 162
f 162 182 185
f 162 185 180
f 164 186 187
f 164 187 188
f 164 188 189
f 164 189 183
f 165 169 190
f 165 190 191
f 165 191 192
f 165 192 166
f 166 193 194
f 166 194 195
f 166 195 196
f 166 192 197
f 166 197 193
f 167 172 169
f 169 172 190
f 170 181 171
f 171 181 198
f 171 198 199
f 171 199 172
f 172 199 200
f 172 200 190
f 175 201 202
f 175 202 203
f 175 203 176
f 176 203 204
f 176 204 177
f 177 204 205
f 177 205 206
f 177 206 207
f 177 207 208
f 177 208 178
f 179 209 210
f 180 185 211
f 180 211 198
f 180 198 181
f 182 184 212
f 182 212 185
f 183 189 213
f 183 213 214
f 183 214 184
f 184 214 215
f 184 215 212
f 185 212 215
f 185 215 211
f 186 216 217
f 186 217 218
f 186 218 219
f 186 219 187
f 187 219 220
f 187 220 188
f 188 220 221
f 188 221 222
f 188 222 189
f 189 222 223
f 189 223 213
f 190 200 224
f 190 224 191
f 191 224 192
f 192 224 225
f 192 225 197
f 193 197 226
f 193 226 227
f 193 227 228
f 193 228 194
f 194 228 229
f 194 229 195
f 195 229 230
f 195 230 231
f 195 231 196
f 196 231 232
f 196 232 233
f 196 233 234
f 197 225 235
f 197 235 226
f 198 211 236
f 198 236 199
f 199 236 226
f 199 226 225
f 199 225 224
f 199 224 200
f 201 234 202
f 202 234 233
f 202 233 203
f 203 233 237
f 203 237 238
f 203 238 204
f 204 238 239
f 204 239 205
f 205 239 206
f 206 240 241
f 206 241 207
f 206 239 240
f 207 241 242
f 207 242 208
f 209 243 210
f 210 244 216
f 210 243 244
f 211 215 245
f 211 245 236
f 213 223 246
f 213 246 214
f 214 247 215
f 214 246 247
f 215 247 248
f 215 248 245
f 216 244 241
f 216 241 240
f 216 240 249
f 216 249 217
f 217 249 238
f 217 238 250
f 217 250 218
f 218 250 251
f 218 251 252
f 218 252 220
f 218 220 219
f 220 252 221
f 221 229 228
f 221 228 253
f 221 253 223
f 221 223 222
f 221 252 229
f 223 254 248
f 223 248 247
f 223 247 246
f 223 253 254
f 225 226 235
f 226 236 227
f 227 254 253
f 227 253 228
f 227 236 254
f 229 252 251
f 229 251 255
f 229 255 230
f 230 255 231
f 231 255 232
f 232 255 233
f 233 255 251
f 233 251 237
f 236 245 248
f 236 248 254
f 237 251 250
f 237 250 238
f 238 249 239
f 239 249 240
f 241 244 243
f 241 243 242
