v -0.013219 0.000928 0.004887
v -0.013164 0.000939 0.002250
v -0.013032 0.000906 0.003601
v -0.010242 0.000753 0.004883
v -0.006031 0.000550 0.004887
v -0.013219 0.017378 0.004887
v -0.013219 0.010972 -0.000378
v -0.013024 0.001678 0.000051
v -0.012866 0.001008 0.001254
v -0.012640 0.000928 0.001758
v -0.012447 0.000885 0.002399
v -0.012266 0.000865 0.003117
v -0.010644 0.000773 0.003381
v -0.008981 0.000703 0.002541
v -0.008296 0.000678 0.002701
v -0.007662 0.000700 0.002463
v -0.006984 0.000683 0.002896
v -0.005616 0.000620 0.004481
v -0.004685 0.000828 0.004716
v -0.003493 0.002501 0.004887
v -0.012358 0.017461 0.004887
v -0.013219 0.017553 0.003443
v -0.013200 0.015642 -0.000302
v -0.013200 0.014044 -0.000371
v -0.013181 0.011937 -0.000378
v -0.013075 0.005490 -0.000385
v -0.011060 0.001695 -0.000105
v -0.011970 0.001449 0.000103
v -0.012514 0.001164 0.000573
v -0.012994 0.002707 -0.000290
v -0.012355 0.002446 -0.000290
v -0.011780 0.002143 -0.000241
v -0.011591 0.000973 0.000974
v -0.012034 0.000908 0.001518
v -0.011367 0.000835 0.002021
v -0.010644 0.000781 0.002460
v -0.009754 0.000745 0.002284
v -0.008833 0.000738 0.002044
v -0.008177 0.000750 0.002006
v -0.007090 0.000771 0.002280
v -0.005890 0.000823 0.003019
v -0.005254 0.000848 0.003671
v -0.004717 0.000933 0.004150
v -0.004064 0.001257 0.004689
v -0.003746 0.001750 0.004542
v -0.003372 0.003384 0.003206
v -0.003012 0.008168 0.004887
v -0.011048 0.017444 0.004887
v -0.011740 0.017511 0.002898
v -0.013032 0.017523 0.001811
v -0.013101 0.016402 -0.000136
v -0.012108 0.016384 -0.000209
v -0.011324 0.015943 -0.000320
v -0.012355 0.015580 -0.000336
v -0.010336 0.013780 -0.000366
v -0.009042 0.010972 -0.000388
v -0.012442 0.012114 -0.000383
v -0.009700 0.015534 -0.000336
v -0.008755 0.007465 -0.000384
v -0.007530 0.004831 -0.000366
v -0.010962 0.002620 -0.000318
v -0.009206 0.001798 -0.000033
v -0.010348 0.001485 0.000044
v -0.011208 0.001256 0.000213
v -0.010545 0.002178 -0.000261
v -0.010907 0.000986 0.000762
v -0.010403 0.000891 0.001105
v -0.011016 0.000861 0.001444
v -0.009864 0.000813 0.001495
v -0.009217 0.000858 0.001267
v -0.008613 0.000908 0.001222
v -0.007525 0.000846 0.001787
v -0.006559 0.000948 0.002005
v -0.006023 0.001134 0.002047
v -0.005424 0.001216 0.002476
v -0.004895 0.001286 0.002923
v -0.004531 0.001317 0.003355
v -0.004148 0.001509 0.003729
v -0.003482 0.003190 0.002690
v -0.003236 0.005884 0.002050
v -0.003171 0.005884 0.002854
v -0.002849 0.010401 0.004884
v -0.004588 0.017028 0.004887
v -0.005734 0.017243 0.002849
v -0.008133 0.017379 0.002678
v -0.012365 0.017488 0.001440
v -0.012891 0.017464 0.001277
v -0.012933 0.017275 0.000690
v -0.012228 0.017030 0.000193
v -0.011041 0.016812 -0.000022
v -0.010431 0.016174 -0.000266
v -0.009972 0.016587 -0.000101
v -0.009258 0.015951 -0.000269
v -0.006389 0.010358 -0.000369
v -0.007705 0.010446 -0.000381
v -0.007002 0.007465 -0.000377
v -0.008335 0.015495 -0.000287
v -0.007267 0.014921 -0.000276
v -0.005347 0.012360 -0.000327
v -0.007195 0.003559 -0.000288
v -0.008463 0.003180 -0.000324
v -0.005489 0.008211 -0.000358
v -0.005159 0.007069 -0.000337
v -0.005633 0.005879 -0.000327
v -0.007476 0.001891 0.000304
v -0.008253 0.001540 0.000330
v -0.009622 0.001354 0.000224
v -0.008387 0.002274 -0.000112
v -0.007295 0.002497 0.000001
v -0.010249 0.001049 0.000566
v -0.007441 0.003013 -0.000205
v -0.009726 0.000924 0.000952
v -0.009061 0.001099 0.000669
v -0.007990 0.001053 0.001107
v -0.007135 0.001131 0.001309
v -0.006347 0.001366 0.001402
v -0.005653 0.001510 0.001761
v -0.004858 0.001730 0.002211
v -0.004367 0.001700 0.002897
v -0.003828 0.002802 0.002355
v -0.003569 0.003517 0.002135
v -0.003320 0.006345 0.001260
v -0.003132 0.007487 0.001802
v -0.003052 0.007745 0.002579
v -0.002806 0.011142 0.004474
v -0.002756 0.012024 0.004746
v -0.002705 0.013621 0.004728
v -0.002688 0.014435 0.004734
v -0.002871 0.015632 0.004822
v -0.003272 0.016226 0.004568
v -0.003930 0.016762 0.004421
v -0.005162 0.017033 0.002771
v -0.005675 0.017072 0.002261
v -0.008711 0.017208 0.001059
v -0.009693 0.017358 0.001420
v -0.010332 0.017328 0.001001
v -0.011930 0.017323 0.000715
v -0.010713 0.017170 0.000440
v -0.009689 0.017098 0.000449
v -0.008931 0.016950 0.000379
v -0.009189 0.016521 -0.000062
v -0.008373 0.016289 -0.000059
v -0.007732 0.015535 -0.000214
v -0.004984 0.008825 -0.000346
v -0.004891 0.011060 -0.000327
v -0.006739 0.014702 -0.000250
v -0.006235 0.014472 -0.000225
v -0.005424 0.013562 -0.000224
v -0.005116 0.012969 -0.000239
v -0.004484 0.011762 -0.000215
v -0.006125 0.003779 -0.000167
v -0.005476 0.005055 -0.000261
v -0.004789 0.007655 -0.000320
v -0.004852 0.006092 -0.000239
v -0.006363 0.001936 0.000723
v -0.006898 0.001475 0.000933
v -0.006025 0.002682 0.000326
v -0.006058 0.003343 -0.000013
v -0.005856 0.001817 0.001197
v -0.005294 0.002036 0.001428
v -0.004625 0.002474 0.001577
v -0.004298 0.002249 0.002271
v -0.004237 0.002873 0.001638
v -0.003859 0.003517 0.001556
v -0.003648 0.004135 0.001491
v -0.003601 0.005987 0.000691
v -0.003533 0.006576 0.000624
v -0.003458 0.007472 0.000480
v -0.003281 0.007116 0.001100
v -0.003196 0.007835 0.001212
v -0.003108 0.008868 0.001363
v -0.002953 0.011048 0.001841
v -0.002919 0.011787 0.001985
v -0.002817 0.013803 0.003205
v -0.002762 0.014477 0.004029
v -0.002763 0.014998 0.004546
v -0.002975 0.015605 0.004214
v -0.003169 0.015664 0.003581
v -0.003504 0.016146 0.003582
v -0.003879 0.016572 0.003761
v -0.004448 0.016747 0.003177
v -0.005218 0.016790 0.002142
v -0.006430 0.016888 0.001383
v -0.008106 0.016962 0.000676
v -0.007216 0.016744 0.000695
v -0.007467 0.016341 0.000182
v -0.007029 0.015625 -0.000073
v -0.004395 0.009030 -0.000291
v -0.004448 0.008342 -0.000295
v -0.004306 0.010599 -0.000240
v -0.006199 0.015153 -0.000034
v -0.005582 0.014592 -0.000049
v -0.005239 0.014161 -0.000069
v -0.004772 0.013527 -0.000046
v -0.004462 0.012450 -0.000120
v -0.003823 0.011852 0.000087
v -0.005360 0.004489 -0.000133
v -0.005472 0.003902 -0.000015
v -0.004887 0.005405 -0.000166
v -0.003959 0.008024 -0.000121
v -0.004223 0.006638 -0.000090
v -0.005728 0.002341 0.000760
v -0.004800 0.004048 0.000232
v -0.004512 0.003296 0.000927
v -0.004171 0.004052 0.000728
v -0.003923 0.005070 0.000564
v -0.003697 0.005358 0.000775
v -0.003953 0.005837 0.000272
v -0.003926 0.007275 -0.000028
v -0.003423 0.008019 0.000453
v -0.003293 0.008675 0.000592
v -0.003095 0.009669 0.001172
v -0.003053 0.010368 0.001278
v -0.003038 0.011466 0.001308
v -0.002985 0.012245 0.001626
v -0.002905 0.012663 0.002198
v -0.002873 0.013388 0.002609
v -0.002968 0.014071 0.002535
v -0.002878 0.014658 0.003468
v -0.003206 0.014419 0.002163
v -0.003282 0.015450 0.003050
v -0.003673 0.015672 0.002522
v -0.003799 0.016199 0.003117
v -0.004185 0.016324 0.002722
v -0.004181 0.015921 0.002130
v -0.004645 0.015960 0.001623
v -0.005112 0.016241 0.001496
v -0.005604 0.016431 0.001305
v -0.006578 0.016509 0.000680
v -0.006552 0.015971 0.000228
v -0.003875 0.008567 -0.000099
v -0.003702 0.009571 -0.000008
v -0.003727 0.011160 0.000073
v -0.005390 0.015525 0.000555
v -0.004063 0.014028 0.000499
v -0.004344 0.012996 0.000017
v -0.003697 0.012436 0.000323
v -0.004816 0.004787 -0.000003
v -0.004435 0.005754 -0.000051
v -0.003253 0.009822 0.000529
v -0.003149 0.012105 0.001067
v -0.003186 0.011015 0.000763
v -0.003128 0.012634 0.001271
v -0.003079 0.013280 0.001673
v -0.003320 0.014082 0.001650
v -0.003388 0.014938 0.002289
v -0.003613 0.014712 0.001685
v -0.003764 0.015214 0.001927
v -0.004024 0.015006 0.001355
v -0.004281 0.015475 0.001505
v -0.004819 0.015585 0.001050
v -0.006017 0.016268 0.000776
v -0.003427 0.010378 0.000297
v -0.003346 0.011707 0.000580
v -0.003626 0.013766 0.000895
v -0.003427 0.012728 0.000745
f 1 2 3
f 1 3 4
f 1 4 5
f 1 5 20
f 1 20 47
f 1 47 83
f 1 83 48
f 1 48 21
f 1 21 6
f 1 6 22
f 1 22 7
f 1 7 2
f 2 8 9
f 2 9 10
f 2 10 11
f 2 11 3
f 2 7 8
f 3 11 12
f 3 12 13
f 3 13 4
f 4 13 5
f 5 13 14
f 5 14 15
f 5 15 16
f 5 16 17
f 5 17 18
f 5 18 19
f 5 19 20
f 6 21 22
f 7 22 23
f 7 23 24
f 7 24 25
f 7 25 26
f 7 26 8
f 8 27 28
f 8 28 29
f 8 29 9
f 8 26 30
f 8 30 31
f 8 31 32
f 8 32 27
f 9 29 33
f 9 33 34
f 9 34 10
f 10 34 35
f 10 35 11
f 11 35 36
f 11 36 12
f 12 36 13
f 13 36 14
f 14 37 38
f 14 38 15
f 14 36 37
f 15 38 16
f 16 38 39
f 16 39 40
f 16 40 17
f 17 40 41
f 17 41 18
f 18 41 42
f 18 42 19
f 19 42 43
f 19 43 44
f 19 44 20
f 20 45 46
f 20 46 47
f 20 44 45
f 21 48 22
f 22 48 49
f 22 49 50
f 22 50 51
f 22 51 23
f 23 51 52
f 23 52 53
f 23 53 54
f 23 54 24
f 24 55 56
f 24 56 57
f 24 57 25
f 24 54 58
f 24 58 55
f 25 57 26
f 26 59 60
f 26 60 61
f 26 61 30
f 26 57 56
f 26 56 59
f 27 62 63
f 27 63 64
f 27 64 28
f 27 32 65
f 27 65 62
f 28 64 29
f 29 64 66
f 29 66 33
f 30 61 31
f 31 65 32
f 31 61 65
f 33 66 67
f 33 67 68
f 33 68 34
f 34 68 35
f 35 68 37
f 35 37 36
f 37 68 69
f 37 69 38
f 38 69 39
f 39 69 70
f 39 70 71
f 39 71 72
f 39 72 40
f 40 72 73
f 40 73 41
f 41 73 74
f 41 74 75
f 41 75 42
f 42 75 76
f 42 76 43
f 43 76 77
f 43 77 44
f 44 77 78
f 44 78 45
f 45 78 79
f 45 79 46
f 46 79 80
f 46 80 81
f 46 81 47
f 47 81 82
f 47 82 83
f 48 84 85
f 48 85 49
f 48 83 84
f 49 85 50
f 50 85 86
f 50 86 87
f 50 87 88
f 50 88 51
f 51 88 89
f 51 89 90
f 51 90 52
f 52 91 53
f 52 90 92
f 52 92 91
f 53 58 54
f 53 91 93
f 53 93 58
f 55 94 56
f 55 58 94
f 56 94 95
f 56 95 96
f 56 96 59
f 58 97 98
f 58 98 99
f 58 99 94
f 58 93 97
f 59 96 60
f 60 100 101
f 60 101 61
f 60 96 102
f 60 102 103
f 60 103 104
f 60 104 100
f 61 101 65
f 62 105 106
f 62 106 107
f 62 107 63
f 62 65 108
f 62 108 109
f 62 109 105
f 63 107 64
f 64 107 110
f 64 110 66
f 65 101 111
f 65 111 108
f 66 110 112
f 66 112 67
f 67 112 70
f 67 70 69
f 67 69 68
f 70 112 71
f 71 112 113
f 71 113 114
f 71 114 72
f 72 114 115
f 72 115 73
f 73 115 116
f 73 116 74
f 74 116 117
f 74 117 75
f 75 117 118
f 75 118 76
f 76 118 119
f 76 119 77
f 77 119 78
f 78 119 120
f 78 120 79
f 79 120 121
f 79 121 122
f 79 122 80
f 80 122 123
f 80 123 81
f 81 123 124
f 81 124 82
f 82 124 125
f 82 125 126
f 82 126 127
f 82 127 128
f 82 128 129
f 82 129 83
f 83 129 130
f 83 130 131
f 83 131 84
f 84 131 132
f 84 132 133
f 84 133 134
f 84 134 135
f 84 135 85
f 85 135 86
f 86 135 136
f 86 136 137
f 86 137 87
f 87 137 88
f 88 137 89
f 89 137 138
f 89 138 90
f 90 138 139
f 90 139 140
f 90 140 92
f 91 92 93
f 92 140 141
f 92 141 93
f 93 141 142
f 93 142 143
f 93 143 97
f 94 144 102
f 94 102 96
f 94 96 95
f 94 99 145
f 94 145 144
f 97 143 98
f 98 146 99
f 98 143 146
f 99 146 147
f 99 147 148
f 99 148 149
f 99 149 150
f 99 150 145
f 100 151 111
f 100 111 101
f 100 104 152
f 100 152 151
f 102 144 103
f 103 144 153
f 103 153 154
f 103 154 152
f 103 152 104
f 105 155 156
f 105 156 106
f 105 109 157
f 105 157 155
f 106 156 115
f 106 115 114
f 106 114 113
f 106 113 107
f 107 113 110
f 108 111 109
f 109 111 158
f 109 158 157
f 110 113 112
f 111 151 158
f 115 156 116
f 116 156 155
f 116 155 159
f 116 159 117
f 117 159 160
f 117 160 118
f 118 160 161
f 118 161 162
f 118 162 119
f 119 162 120
f 120 162 163
f 120 163 164
f 120 164 121
f 121 164 165
f 121 165 122
f 122 166 167
f 122 167 168
f 122 168 169
f 122 169 170
f 122 170 123
f 122 165 166
f 123 170 171
f 123 171 172
f 123 172 124
f 124 172 125
f 125 172 126
f 126 172 173
f 126 173 127
f 127 173 128
f 128 173 174
f 128 174 175
f 128 175 176
f 128 176 129
f 129 176 177
f 129 177 130
f 130 177 178
f 130 178 179
f 130 179 180
f 130 180 131
f 131 180 181
f 131 181 132
f 132 181 182
f 132 182 133
f 133 182 183
f 133 183 184
f 133 184 134
f 134 136 135
f 134 184 139
f 134 139 136
f 136 139 138
f 136 138 137
f 139 184 140
f 140 184 185
f 140 185 186
f 140 186 141
f 141 186 142
f 142 186 187
f 142 187 143
f 143 187 147
f 143 147 146
f 144 145 188
f 144 188 189
f 144 189 153
f 145 150 190
f 145 190 188
f 147 187 191
f 147 191 192
f 147 192 193
f 147 193 148
f 148 193 194
f 148 194 149
f 149 194 195
f 149 195 150
f 150 195 196
f 150 196 190
f 151 197 198
f 151 198 158
f 151 152 197
f 152 154 199
f 152 199 197
f 153 189 154
f 154 189 200
f 154 200 201
f 154 201 199
f 155 157 202
f 155 202 159
f 157 158 198
f 157 198 203
f 157 203 204
f 157 204 202
f 159 202 160
f 160 202 161
f 161 202 204
f 161 204 163
f 161 163 162
f 163 204 164
f 164 204 205
f 164 205 165
f 165 205 206
f 165 206 207
f 165 207 166
f 166 207 206
f 166 206 208
f 166 208 168
f 166 168 167
f 168 208 209
f 168 209 210
f 168 210 211
f 168 211 169
f 169 211 170
f 170 211 212
f 170 212 171
f 171 212 172
f 172 212 213
f 172 213 173
f 173 214 215
f 173 215 216
f 173 216 174
f 173 213 214
f 174 216 217
f 174 217 218
f 174 218 219
f 174 219 175
f 175 219 176
f 176 219 177
f 177 219 178
f 178 219 218
f 178 218 220
f 178 220 221
f 178 221 222
f 178 222 179
f 179 222 223
f 179 223 180
f 180 223 224
f 180 224 181
f 181 224 182
f 182 224 225
f 182 225 226
f 182 226 227
f 182 227 228
f 182 228 229
f 182 229 183
f 183 229 185
f 183 185 184
f 185 229 186
f 186 229 230
f 186 230 187
f 187 230 191
f 188 190 231
f 188 231 200
f 188 200 189
f 190 232 231
f 190 196 233
f 190 233 232
f 191 230 192
f 192 230 234
f 192 234 235
f 192 235 193
f 193 235 194
f 194 236 195
f 194 235 236
f 195 236 196
f 196 236 237
f 196 237 233
f 197 238 198
f 197 199 238
f 198 238 203
f 199 201 239
f 199 239 238
f 200 231 209
f 200 209 201
f 201 209 239
f 203 238 239
f 203 239 208
f 203 208 206
f 203 206 205
f 203 205 204
f 208 239 209
f 209 231 232
f 209 232 210
f 210 232 240
f 210 240 211
f 211 240 212
f 212 240 213
f 213 240 214
f 214 241 215
f 214 240 242
f 214 242 241
f 215 241 243
f 215 243 244
f 215 244 217
f 215 217 216
f 217 244 218
f 218 244 220
f 220 244 245
f 220 245 246
f 220 246 221
f 221 246 222
f 222 225 224
f 222 224 223
f 222 246 247
f 222 247 248
f 222 248 249
f 222 249 250
f 222 250 225
f 225 250 226
f 226 250 251
f 226 251 227
f 227 251 252
f 227 252 228
f 228 252 229
f 229 252 230
f 230 252 234
f 232 233 253
f 232 253 240
f 233 237 254
f 233 254 253
f 234 252 251
f 234 251 235
f 235 249 247
f 235 247 255
f 235 255 237
f 235 237 236
f 235 251 249
f 237 255 256
f 237 256 254
f 240 253 242
f 241 242 254
f 241 254 256
f 241 256 243
f 242 253 254
f 243 256 244
f 244 256 255
f 244 255 245
f 245 247 246
f 245 255 247
f 247 249 248
f 249 251 250
