v -0.019684 0.003650 0.005079
v -0.019651 0.007639 0.003337
v -0.019648 0.007641 0.002635
v -0.019640 0.006456 0.002197
v -0.019629 0.005994 0.002197
v -0.019611 0.005512 0.002284
v -0.019540 0.004283 0.002518
v -0.019640 0.003146 0.004972
v -0.019443 0.002459 0.005024
v -0.017961 0.001382 0.005047
v -0.017286 0.001244 0.005071
v -0.013264 0.000924 0.005079
v -0.019552 0.008422 0.005079
v -0.019430 0.014220 0.003908
v -0.019635 0.008453 0.002689
v -0.019625 0.007190 0.001890
v -0.019605 0.008321 0.001802
v -0.019585 0.006523 0.001650
v -0.019540 0.005042 0.001964
v -0.019448 0.004552 0.001916
v -0.019452 0.003586 0.002814
v -0.019444 0.003136 0.003403
v -0.019443 0.002736 0.004177
v -0.019261 0.002575 0.003562
v -0.019160 0.002240 0.004090
v -0.019062 0.001956 0.004927
v -0.018696 0.001676 0.004994
v -0.018106 0.001464 0.004483
v -0.017764 0.001408 0.004128
v -0.017328 0.001273 0.004595
v -0.016832 0.001203 0.004346
v -0.016851 0.001186 0.004907
v -0.013760 0.000951 0.005071
v -0.013219 0.000917 0.003644
v -0.013219 0.017374 0.005079
v -0.019535 0.008898 0.005079
v -0.019427 0.014447 0.003425
v -0.019310 0.014928 0.005079
v -0.019558 0.010297 0.001971
v -0.019584 0.007882 0.001433
v -0.019496 0.010687 0.001385
v -0.019510 0.007562 0.001061
v -0.019505 0.006740 0.001194
v -0.019416 0.005848 0.001211
v -0.019228 0.004438 0.001493
v -0.019282 0.003090 0.002860
v -0.019353 0.005016 0.001418
v -0.018957 0.002621 0.002750
v -0.018957 0.002342 0.003161
v -0.018866 0.002089 0.003583
v -0.018813 0.001836 0.004467
v -0.018412 0.001676 0.003976
v -0.017583 0.001496 0.003223
v -0.018227 0.001687 0.003475
v -0.016744 0.001310 0.002898
v -0.016845 0.001281 0.003377
v -0.016286 0.001214 0.002963
v -0.015121 0.001097 0.002525
v -0.013936 0.000986 0.002503
v -0.013327 0.000948 0.002280
v -0.013295 0.000997 0.001578
v -0.013272 0.002880 -0.000302
v -0.013219 0.005446 -0.000380
v -0.013219 0.017521 0.001838
v -0.013355 0.017573 0.003351
v -0.016588 0.017572 0.005079
v -0.019276 0.014522 0.002464
v -0.019248 0.015464 0.005079
v -0.018953 0.016387 0.004911
v -0.019204 0.015000 0.002794
v -0.019471 0.009974 0.001045
v -0.019489 0.008967 0.000968
v -0.019481 0.008386 0.000881
v -0.019346 0.011484 0.000984
v -0.019390 0.010732 0.000890
v -0.019355 0.006978 0.000732
v -0.019323 0.008078 0.000469
v -0.019272 0.006353 0.000730
v -0.018976 0.004963 0.000796
v -0.018959 0.004507 0.001030
v -0.019064 0.003873 0.001704
v -0.019073 0.003291 0.002248
v -0.019033 0.005528 0.000653
v -0.018545 0.002346 0.002453
v -0.018729 0.003234 0.001804
v -0.018331 0.001875 0.003053
v -0.017252 0.001493 0.002744
v -0.016794 0.001430 0.002378
v -0.016335 0.001337 0.002165
v -0.015836 0.001213 0.002228
v -0.014549 0.001058 0.002125
v -0.014024 0.001015 0.002065
v -0.014146 0.001095 0.001500
v -0.013506 0.001105 0.001090
v -0.013364 0.001371 0.000425
v -0.014200 0.002899 -0.000268
v -0.015670 0.003670 -0.000270
v -0.015871 0.004387 -0.000304
v -0.013398 0.002061 -0.000128
v -0.013977 0.002466 -0.000200
v -0.017454 0.006311 -0.000306
v -0.017578 0.008672 -0.000332
v -0.013498 0.006236 -0.000382
v -0.013384 0.010972 -0.000380
v -0.013219 0.011850 -0.000377
v -0.013219 0.015566 -0.000305
v -0.013327 0.016309 -0.000162
v -0.013367 0.017431 0.001252
v -0.015275 0.017490 0.002459
v -0.014024 0.017537 0.002415
v -0.013848 0.017585 0.003030
v -0.017059 0.017560 0.005079
v -0.018966 0.014519 0.001815
v -0.019112 0.013871 0.001552
v -0.019257 0.012636 0.001261
v -0.017635 0.017459 0.005048
v -0.018198 0.017229 0.004972
v -0.018892 0.016265 0.004075
v -0.018561 0.016903 0.004818
v -0.018854 0.016054 0.003451
v -0.018929 0.015513 0.002773
v -0.019315 0.009288 0.000454
v -0.019227 0.012263 0.000975
v -0.019131 0.011209 0.000423
v -0.019279 0.010218 0.000477
v -0.019084 0.007399 0.000230
v -0.019139 0.008735 0.000161
v -0.019049 0.007924 0.000117
v -0.018892 0.006652 0.000173
v -0.018466 0.005448 0.000144
v -0.018588 0.004516 0.000589
v -0.018599 0.003978 0.000983
v -0.018562 0.003490 0.001353
v -0.018697 0.006220 0.000117
v -0.018224 0.002399 0.002005
v -0.018043 0.001894 0.002617
v -0.016604 0.001627 0.001637
v -0.015812 0.001387 0.001505
v -0.015261 0.001222 0.001675
v -0.014593 0.001224 0.001204
v -0.013946 0.001284 0.000750
v -0.014886 0.001500 0.000738
v -0.014296 0.001798 0.000184
v -0.015297 0.003252 -0.000241
v -0.016174 0.003712 -0.000204
v -0.014859 0.002222 0.000027
v -0.015632 0.002916 -0.000101
v -0.017053 0.004247 -0.000110
v -0.017701 0.005162 -0.000101
v -0.017918 0.005861 -0.000151
v -0.017928 0.006851 -0.000250
v -0.018051 0.007681 -0.000268
v -0.018148 0.008298 -0.000270
v -0.017578 0.007903 -0.000321
v -0.018224 0.009316 -0.000275
v -0.017621 0.009220 -0.000333
v -0.017446 0.009918 -0.000340
v -0.014946 0.010533 -0.000369
v -0.013271 0.014044 -0.000370
v -0.014032 0.015230 -0.000318
v -0.014430 0.015514 -0.000249
v -0.013961 0.016366 -0.000054
v -0.013588 0.016826 0.000185
v -0.013458 0.017286 0.000809
v -0.014236 0.017293 0.001093
v -0.015572 0.017333 0.001877
v -0.016090 0.017376 0.002411
v -0.017380 0.017361 0.003898
v -0.018608 0.014759 0.001509
v -0.018841 0.013806 0.001023
v -0.019012 0.013516 0.001125
v -0.018020 0.017242 0.004507
v -0.018293 0.016965 0.004103
v -0.018531 0.016567 0.003632
v -0.018613 0.016168 0.003051
v -0.018362 0.015431 0.001826
v -0.018352 0.016103 0.002526
v -0.019029 0.010006 0.000090
v -0.019020 0.012573 0.000679
v -0.018940 0.011706 0.000305
v -0.018901 0.009479 -0.000028
v -0.018670 0.008670 -0.000135
v -0.018588 0.007706 -0.000125
v -0.018397 0.006667 -0.000114
v -0.018140 0.004751 0.000160
v -0.018037 0.003913 0.000489
v -0.017645 0.002779 0.001032
v -0.017504 0.002289 0.001415
v -0.017126 0.002017 0.001441
v -0.017367 0.001857 0.001959
v -0.016690 0.001987 0.001106
v -0.016049 0.001668 0.001082
v -0.015077 0.001323 0.001188
v -0.015409 0.001506 0.000974
v -0.015836 0.001952 0.000550
v -0.015305 0.002092 0.000208
v -0.016365 0.003285 -0.000050
v -0.015464 0.002317 0.000110
v -0.016991 0.003717 0.000017
v -0.017509 0.004335 0.000017
v -0.018309 0.007223 -0.000186
v -0.018311 0.010073 -0.000249
v -0.017830 0.010285 -0.000319
v -0.017526 0.011104 -0.000328
v -0.016007 0.014323 -0.000276
v -0.015577 0.015646 -0.000012
v -0.014763 0.016124 -0.000010
v -0.016099 0.014994 -0.000113
v -0.014868 0.016527 0.000242
v -0.014372 0.016857 0.000415
v -0.013921 0.017118 0.000613
v -0.014968 0.017253 0.001292
v -0.016208 0.017067 0.001727
v -0.016535 0.017231 0.002326
v -0.017311 0.017281 0.003389
v -0.018452 0.014313 0.000939
v -0.017961 0.015175 0.001086
v -0.018409 0.013586 0.000423
v -0.018793 0.013357 0.000716
v -0.017816 0.017111 0.003514
v -0.018153 0.016826 0.003332
v -0.018020 0.016612 0.002750
v -0.017939 0.016095 0.001974
v -0.018892 0.010691 0.000066
v -0.018786 0.012294 0.000291
v -0.018616 0.011323 -0.000040
v -0.016947 0.003089 0.000294
v -0.017189 0.002586 0.000819
v -0.016346 0.002204 0.000570
v -0.016284 0.002624 0.000226
v -0.018167 0.010943 -0.000240
v -0.017683 0.012021 -0.000257
v -0.017206 0.013178 -0.000227
v -0.016682 0.014144 -0.000193
v -0.015811 0.016165 0.000316
v -0.017146 0.014783 0.000202
v -0.017407 0.014176 0.000043
v -0.015403 0.016490 0.000397
v -0.015048 0.016991 0.000831
v -0.015968 0.016885 0.001248
v -0.016822 0.016948 0.002060
v -0.017047 0.017160 0.002678
v -0.017888 0.014703 0.000638
v -0.018027 0.013966 0.000292
v -0.016936 0.016079 0.001005
v -0.017409 0.015274 0.000699
v -0.018400 0.012917 0.000167
v -0.017118 0.016452 0.001620
v -0.018498 0.012024 0.000000
v -0.018076 0.011680 -0.000208
v -0.018168 0.012537 -0.000054
v -0.017687 0.013563 -0.000024
v -0.016376 0.016216 0.000701
v -0.015890 0.016567 0.000744
v -0.016510 0.016568 0.001241
v -0.017943 0.013176 -0.000010
f 1 2 3
f 1 3 4
f 1 4 5
f 1 5 6
f 1 6 7
f 1 7 8
f 1 8 9
f 1 9 10
f 1 10 11
f 1 11 12
f 1 12 35
f 1 35 66
f 1 66 112
f 1 112 68
f 1 68 38
f 1 38 36
f 1 36 13
f 1 13 2
f 2 13 14
f 2 14 15
f 2 15 3
f 3 16 4
f 3 15 17
f 3 17 16
f 4 16 5
f 5 16 18
f 5 18 19
f 5 19 6
f 6 19 7
f 7 19 20
f 7 20 21
f 7 21 22
f 7 22 8
f 8 22 23
f 8 23 9
f 9 24 25
f 9 25 26
f 9 26 27
f 9 27 10
f 9 23 24
f 10 28 29
f 10 29 30
f 10 30 11
f 10 27 28
f 11 30 31
f 11 31 32
f 11 32 33
f 11 33 12
f 12 33 34
f 12 34 35
f 13 36 14
f 14 37 15
f 14 36 38
f 14 38 37
f 15 37 39
f 15 39 17
f 16 17 40
f 16 40 18
f 17 39 41
f 17 41 40
f 18 40 42
f 18 42 43
f 18 43 19
f 19 43 44
f 19 44 20
f 20 45 46
f 20 46 21
f 20 44 47
f 20 47 45
f 21 46 22
f 22 46 24
f 22 24 23
f 24 48 49
f 24 49 25
f 24 46 48
f 25 50 26
f 25 49 50
f 26 51 27
f 26 50 51
f 27 51 52
f 27 52 28
f 28 53 29
f 28 52 54
f 28 54 53
f 29 53 55
f 29 55 56
f 29 56 30
f 30 56 31
f 31 57 58
f 31 58 32
f 31 56 57
f 32 58 59
f 32 59 34
f 32 34 33
f 34 59 60
f 34 60 61
f 34 61 62
f 34 62 63
f 34 63 105
f 34 105 106
f 34 106 64
f 34 64 35
f 35 64 65
f 35 65 66
f 37 67 41
f 37 41 39
f 37 38 68
f 37 68 69
f 37 69 70
f 37 70 67
f 40 41 71
f 40 71 72
f 40 72 73
f 40 73 42
f 41 67 74
f 41 74 75
f 41 75 71
f 42 76 43
f 42 73 77
f 42 77 76
f 43 76 44
f 44 78 47
f 44 76 78
f 45 47 79
f 45 79 80
f 45 80 81
f 45 81 82
f 45 82 46
f 46 82 48
f 47 78 83
f 47 83 79
f 48 84 49
f 48 82 85
f 48 85 84
f 49 84 86
f 49 86 50
f 50 86 54
f 50 54 52
f 50 52 51
f 53 87 55
f 53 54 87
f 54 86 87
f 55 87 88
f 55 88 89
f 55 89 90
f 55 90 57
f 55 57 56
f 57 90 58
f 58 90 91
f 58 91 59
f 59 91 92
f 59 92 60
f 60 92 61
f 61 92 91
f 61 91 93
f 61 93 94
f 61 94 95
f 61 95 62
f 62 96 97
f 62 97 98
f 62 98 63
f 62 95 99
f 62 99 100
f 62 100 96
f 63 98 101
f 63 101 102
f 63 102 103
f 63 103 104
f 63 104 105
f 64 106 107
f 64 107 108
f 64 108 109
f 64 109 110
f 64 110 111
f 64 111 65
f 65 111 66
f 66 111 112
f 67 113 114
f 67 114 115
f 67 115 74
f 67 70 113
f 68 112 116
f 68 116 117
f 68 117 69
f 69 118 70
f 69 117 119
f 69 119 118
f 70 118 120
f 70 120 121
f 70 121 113
f 71 75 122
f 71 122 72
f 72 122 73
f 73 122 77
f 74 115 123
f 74 123 124
f 74 124 125
f 74 125 75
f 75 125 122
f 76 77 126
f 76 126 78
f 77 122 127
f 77 127 128
f 77 128 126
f 78 126 129
f 78 129 83
f 79 83 130
f 79 130 131
f 79 131 80
f 80 131 132
f 80 132 81
f 81 132 133
f 81 133 85
f 81 85 82
f 83 129 134
f 83 134 130
f 84 85 135
f 84 135 136
f 84 136 86
f 85 133 135
f 86 136 87
f 87 136 137
f 87 137 88
f 88 137 89
f 89 137 138
f 89 138 139
f 89 139 90
f 90 139 93
f 90 93 91
f 93 139 140
f 93 140 94
f 94 140 141
f 94 141 95
f 95 141 142
f 95 142 143
f 95 143 99
f 96 144 97
f 96 100 144
f 97 145 101
f 97 101 98
f 97 144 145
f 99 143 146
f 99 146 100
f 100 146 147
f 100 147 144
f 101 145 148
f 101 148 149
f 101 149 150
f 101 150 151
f 101 151 152
f 101 152 153
f 101 153 154
f 101 154 102
f 102 153 155
f 102 155 156
f 102 156 157
f 102 157 103
f 102 154 153
f 103 157 158
f 103 158 104
f 104 158 159
f 104 159 105
f 105 159 106
f 106 159 160
f 106 160 161
f 106 161 107
f 107 161 162
f 107 162 163
f 107 163 164
f 107 164 108
f 108 164 165
f 108 165 166
f 108 166 109
f 109 112 111
f 109 111 110
f 109 166 167
f 109 167 112
f 112 167 168
f 112 168 116
f 113 121 169
f 113 169 170
f 113 170 114
f 114 170 171
f 114 171 123
f 114 123 115
f 116 168 172
f 116 172 117
f 117 172 173
f 117 173 119
f 118 119 174
f 118 174 120
f 119 173 174
f 120 174 175
f 120 175 121
f 121 176 169
f 121 175 177
f 121 177 176
f 122 125 178
f 122 178 127
f 123 171 179
f 123 179 124
f 124 178 125
f 124 179 180
f 124 180 178
f 126 128 129
f 127 178 181
f 127 181 128
f 128 181 182
f 128 182 183
f 128 183 129
f 129 183 184
f 129 184 134
f 130 149 185
f 130 185 131
f 130 134 184
f 130 184 150
f 130 150 149
f 131 185 186
f 131 186 132
f 132 186 187
f 132 187 133
f 133 187 135
f 135 188 189
f 135 189 136
f 135 187 188
f 136 189 190
f 136 190 137
f 137 190 189
f 137 189 191
f 137 191 192
f 137 192 138
f 138 193 139
f 138 192 194
f 138 194 193
f 139 193 140
f 140 193 141
f 141 193 142
f 142 194 195
f 142 195 143
f 142 193 194
f 143 195 196
f 143 196 146
f 144 147 145
f 145 147 197
f 145 197 148
f 146 198 147
f 146 196 198
f 147 198 197
f 148 197 199
f 148 199 200
f 148 200 149
f 149 200 185
f 150 184 151
f 151 184 201
f 151 201 152
f 152 201 153
f 153 182 155
f 153 201 183
f 153 183 182
f 155 182 202
f 155 202 203
f 155 203 156
f 156 203 157
f 157 203 204
f 157 204 159
f 157 159 158
f 159 204 160
f 160 204 205
f 160 205 161
f 161 206 207
f 161 207 162
f 161 205 208
f 161 208 206
f 162 207 209
f 162 209 163
f 163 210 211
f 163 211 164
f 163 209 210
f 164 211 165
f 165 211 212
f 165 212 166
f 166 212 213
f 166 213 214
f 166 214 167
f 167 214 215
f 167 215 168
f 168 215 172
f 169 216 170
f 169 176 217
f 169 217 216
f 170 218 219
f 170 219 171
f 170 216 218
f 171 219 179
f 172 220 173
f 172 215 220
f 173 221 174
f 173 220 221
f 174 221 175
f 175 221 222
f 175 222 177
f 176 177 223
f 176 223 217
f 177 222 223
f 178 180 224
f 178 224 181
f 179 219 225
f 179 225 180
f 180 225 224
f 181 224 226
f 181 226 202
f 181 202 182
f 183 201 184
f 185 200 199
f 185 199 186
f 186 199 227
f 186 227 228
f 186 228 187
f 187 228 188
f 188 228 229
f 188 229 191
f 188 191 189
f 191 229 192
f 192 229 195
f 192 195 194
f 195 229 196
f 196 229 230
f 196 230 198
f 197 198 230
f 197 230 227
f 197 227 199
f 202 226 231
f 202 231 203
f 203 231 204
f 204 231 232
f 204 232 205
f 205 232 233
f 205 233 234
f 205 234 208
f 206 208 235
f 206 235 207
f 207 235 209
f 208 236 235
f 208 234 237
f 208 237 236
f 209 235 238
f 209 238 210
f 210 239 211
f 210 238 239
f 211 239 212
f 212 239 213
f 213 239 240
f 213 240 241
f 213 241 214
f 214 241 242
f 214 242 215
f 215 242 220
f 216 217 243
f 216 243 244
f 216 244 218
f 217 223 245
f 217 245 246
f 217 246 243
f 218 244 247
f 218 247 225
f 218 225 219
f 220 242 221
f 221 242 222
f 222 248 223
f 222 242 241
f 222 241 248
f 223 248 245
f 224 225 226
f 225 249 226
f 225 247 249
f 226 249 250
f 226 250 231
f 227 230 229
f 227 229 228
f 231 250 232
f 232 250 233
f 233 250 251
f 233 251 252
f 233 252 234
f 234 252 237
f 235 253 254
f 235 254 238
f 235 236 246
f 235 246 253
f 236 237 244
f 236 244 243
f 236 243 246
f 237 252 244
f 238 254 239
f 239 254 240
f 240 254 255
f 240 255 241
f 241 255 248
f 244 252 256
f 244 256 247
f 245 248 255
f 245 255 253
f 245 253 246
f 247 256 251
f 247 251 249
f 249 251 250
f 251 256 252
f 253 255 254
