v -0.013219 0.000918 0.005312
v -0.012968 0.000957 0.007067
v -0.013181 0.000969 0.006865
v -0.013219 0.001121 0.008871
v -0.013219 0.000924 0.004968
v -0.010248 0.000748 0.005225
v -0.010424 0.000741 0.006278
v -0.009030 0.000734 0.008871
v -0.013219 0.017375 0.008871
v -0.006125 0.000555 0.004887
v -0.010248 0.000753 0.004968
v -0.013219 0.017378 0.004887
v -0.009809 0.000724 0.005225
v -0.005917 0.000528 0.005401
v -0.005862 0.000505 0.007375
v -0.005950 0.000510 0.007682
v -0.006125 0.000548 0.008871
v -0.012179 0.017460 0.008871
v -0.013219 0.017490 0.007857
v -0.005859 0.000553 0.004887
v -0.005865 0.000530 0.005124
v -0.013219 0.017493 0.006928
v -0.012531 0.017448 0.004887
v -0.005774 0.000503 0.007682
v -0.005674 0.000523 0.005808
v -0.005862 0.000515 0.008077
v -0.005882 0.000538 0.008871
v -0.011895 0.017470 0.008871
v -0.013219 0.017508 0.007612
v -0.005509 0.000576 0.004968
v -0.004942 0.000706 0.004887
v -0.005674 0.000530 0.005500
v -0.005511 0.000560 0.005225
v -0.013219 0.017510 0.007261
v -0.012179 0.017463 0.004887
v -0.005598 0.000515 0.007506
v -0.005598 0.000516 0.008208
v -0.005598 0.000521 0.008560
v -0.005248 0.000558 0.006015
v -0.005228 0.000545 0.007243
v -0.005790 0.000526 0.008575
v -0.005506 0.000530 0.008840
v -0.005181 0.000550 0.008871
v -0.010161 0.017428 0.008871
v -0.011653 0.017505 0.006585
v -0.005245 0.000623 0.004968
v -0.005161 0.000616 0.005225
v -0.004721 0.000773 0.004887
v -0.004861 0.000699 0.005133
v -0.004984 0.000601 0.005927
v -0.011302 0.017453 0.004887
v -0.011478 0.017495 0.006147
v -0.004984 0.000591 0.006190
v -0.004984 0.000573 0.007375
v -0.004819 0.000593 0.008871
v -0.010161 0.017438 0.007331
v -0.011302 0.017493 0.006761
v -0.004281 0.017124 0.008871
v -0.005511 0.017224 0.006498
v -0.011302 0.017493 0.006322
v -0.004832 0.000678 0.005401
v -0.004788 0.000664 0.005668
v -0.004482 0.000861 0.005011
v -0.004545 0.000776 0.005401
v -0.004659 0.000676 0.005927
v -0.003644 0.001841 0.004887
v -0.003954 0.001295 0.004968
v -0.004180 0.001067 0.005009
v -0.004721 0.000641 0.006190
v -0.010951 0.017440 0.004887
v -0.004721 0.000610 0.007419
v -0.004465 0.000671 0.007901
v -0.004465 0.000679 0.008871
v -0.003926 0.017052 0.008871
v -0.004194 0.017105 0.006366
v -0.004370 0.017139 0.006190
v -0.004633 0.017164 0.006190
v -0.005364 0.017210 0.006224
v -0.004289 0.000941 0.005269
v -0.004230 0.000874 0.006050
v -0.004487 0.000718 0.006190
v -0.003562 0.002114 0.004887
v -0.003569 0.001948 0.005149
v -0.003593 0.001765 0.005436
v -0.003731 0.001608 0.005009
v -0.003707 0.001580 0.005269
v -0.003893 0.001272 0.005441
v -0.004016 0.001077 0.005839
v -0.004154 0.000997 0.005539
v -0.004640 0.000654 0.006454
v -0.004545 0.000654 0.007331
v -0.010687 0.017427 0.004887
v -0.004481 0.000668 0.007594
v -0.004409 0.000689 0.008208
v -0.004194 0.000799 0.008871
v -0.003587 0.016914 0.008803
v -0.003933 0.017027 0.006629
v -0.003208 0.016658 0.008871
v -0.004281 0.017109 0.005971
v -0.003973 0.017014 0.006015
v -0.004370 0.017100 0.005663
v -0.004633 0.017157 0.005883
v -0.004721 0.017152 0.005663
v -0.004153 0.000854 0.006880
v -0.004222 0.000841 0.006454
v -0.004006 0.001022 0.006410
v -0.004393 0.000718 0.006980
v -0.003462 0.002634 0.004928
v -0.003493 0.002374 0.004968
v -0.003507 0.002199 0.005137
v -0.003013 0.008166 0.004887
v -0.003520 0.002023 0.005401
v -0.003466 0.001935 0.006147
v -0.003586 0.001683 0.005795
v -0.003734 0.001435 0.005727
v -0.003888 0.001191 0.006015
v -0.004811 0.017072 0.004887
v -0.004339 0.000729 0.007331
v -0.004194 0.000788 0.008121
v -0.004010 0.000918 0.008664
v -0.003838 0.001077 0.008803
v -0.003608 0.001389 0.008837
v -0.003397 0.001951 0.008871
v -0.003268 0.016716 0.008472
v -0.003465 0.016842 0.008472
v -0.003678 0.016901 0.006629
v -0.003915 0.017009 0.006366
v -0.003039 0.016514 0.008296
v -0.003007 0.016461 0.008871
v -0.004080 0.017019 0.005672
v -0.003664 0.016854 0.006015
v -0.003765 0.016887 0.005795
v -0.003912 0.016901 0.005312
v -0.004633 0.017122 0.005444
v -0.004309 0.017037 0.005272
v -0.004450 0.017014 0.004887
v -0.004137 0.000826 0.007857
v -0.004194 0.000814 0.007155
v -0.003916 0.001042 0.007155
v -0.003950 0.000964 0.008296
v -0.003896 0.001099 0.006737
v -0.003449 0.002461 0.005269
v -0.002852 0.010358 0.004887
v -0.003282 0.002725 0.007331
v -0.003303 0.002725 0.006980
v -0.003317 0.002900 0.006541
v -0.003336 0.002900 0.006278
v -0.003419 0.001908 0.007067
v -0.003510 0.001745 0.006362
v -0.003397 0.002211 0.006420
v -0.003344 0.002199 0.007243
v -0.003570 0.001650 0.006103
v -0.003723 0.001400 0.006059
v -0.003748 0.001307 0.006454
v -0.003611 0.001502 0.006541
v -0.003890 0.001019 0.008560
v -0.003766 0.001156 0.008296
v -0.003730 0.001199 0.008560
v -0.003612 0.001382 0.008296
v -0.003544 0.001515 0.007945
v -0.003479 0.001672 0.008803
v -0.003400 0.001953 0.007386
v -0.003328 0.002306 0.008871
v -0.003191 0.016648 0.008114
v -0.003383 0.016786 0.008208
v -0.003637 0.016861 0.006322
v -0.002847 0.016280 0.008094
v -0.003022 0.016488 0.007945
v -0.002857 0.016288 0.008474
v -0.002503 0.015129 0.008871
v -0.002554 0.015466 0.008837
v -0.002607 0.015722 0.008803
v -0.002839 0.016248 0.008803
v -0.004089 0.016922 0.004971
v -0.003735 0.016841 0.005547
v -0.003415 0.016706 0.006366
v -0.003413 0.016671 0.005989
v -0.003797 0.016829 0.005225
v -0.003673 0.016704 0.004968
v -0.003432 0.016516 0.004956
v -0.002918 0.015800 0.004887
v -0.003736 0.001292 0.006717
v -0.003706 0.001267 0.007594
v -0.003845 0.001079 0.007945
v -0.003334 0.002637 0.006629
v -0.002807 0.011059 0.004887
v -0.002989 0.006939 0.007155
v -0.003222 0.003200 0.007832
v -0.003256 0.002900 0.007594
v -0.003311 0.002461 0.007243
v -0.003483 0.001672 0.007857
v -0.003492 0.001672 0.007243
v -0.003503 0.001672 0.006980
v -0.003279 0.002647 0.008871
v -0.003574 0.001485 0.007441
v -0.003248 0.016664 0.007594
v -0.002678 0.015968 0.008296
v -0.002765 0.016063 0.007243
v -0.002857 0.016273 0.007770
v -0.003002 0.016433 0.007555
v -0.003051 0.016463 0.007243
v -0.002472 0.014756 0.008871
v -0.002635 0.015537 0.006454
v -0.002579 0.015537 0.007945
v -0.002526 0.015279 0.008688
v -0.002601 0.015712 0.008560
v -0.002679 0.015955 0.008673
v -0.003554 0.016678 0.005317
v -0.003207 0.016521 0.006366
v -0.003225 0.016504 0.006081
v -0.003307 0.016486 0.005444
v -0.003414 0.016621 0.005663
v -0.003253 0.016385 0.005225
v -0.003208 0.016271 0.004958
v -0.003054 0.016062 0.004968
v -0.002895 0.015852 0.005157
v -0.002798 0.015712 0.005401
v -0.002808 0.015534 0.004968
v -0.002766 0.015272 0.004887
v -0.002786 0.011404 0.004887
v -0.002519 0.013854 0.008672
v -0.002996 0.006762 0.007331
v -0.003207 0.003295 0.008121
v -0.003242 0.002970 0.008871
v -0.002625 0.015800 0.008077
v -0.002684 0.015932 0.007636
v -0.002720 0.015933 0.006980
v -0.002784 0.016063 0.006980
v -0.002898 0.016256 0.007067
v -0.003010 0.016376 0.006892
v -0.003069 0.016400 0.006541
v -0.002488 0.014352 0.008803
v -0.002615 0.014395 0.006103
v -0.002677 0.014392 0.004887
v -0.002617 0.015361 0.006541
v -0.003217 0.003203 0.008871
v -0.002691 0.015585 0.006014
v -0.002725 0.015850 0.006390
v -0.002637 0.015624 0.006673
v -0.002640 0.015361 0.006190
v -0.002713 0.014918 0.004887
v -0.003062 0.016345 0.006202
v -0.003058 0.016276 0.005839
v -0.003074 0.016161 0.005247
v -0.002846 0.015907 0.005638
v -0.002735 0.015609 0.005675
v -0.002752 0.015537 0.005401
v -0.002747 0.012106 0.004887
v -0.003012 0.006411 0.007682
v -0.003003 0.006588 0.007506
v -0.002684 0.015845 0.006980
v -0.002856 0.016120 0.006547
v -0.002701 0.013506 0.004887
v -0.002685 0.014652 0.004887
v -0.002848 0.016028 0.006125
f 1 2 3
f 1 3 4
f 1 4 9
f 1 9 19
f 1 19 29
f 1 29 34
f 1 34 22
f 1 22 12
f 1 12 5
f 1 5 6
f 1 6 7
f 1 7 2
f 2 7 8
f 2 8 4
f 2 4 3
f 4 8 17
f 4 17 27
f 4 27 43
f 4 43 55
f 4 55 73
f 4 73 95
f 4 95 123
f 4 123 163
f 4 163 194
f 4 194 224
f 4 224 236
f 4 236 202
f 4 202 170
f 4 170 129
f 4 129 98
f 4 98 74
f 4 74 58
f 4 58 44
f 4 44 28
f 4 28 18
f 4 18 9
f 5 10 11
f 5 11 6
f 5 12 10
f 6 13 7
f 6 11 13
f 7 13 14
f 7 14 15
f 7 15 16
f 7 16 17
f 7 17 8
f 9 18 19
f 10 20 21
f 10 21 11
f 10 12 23
f 10 23 35
f 10 35 51
f 10 51 70
f 10 70 92
f 10 92 117
f 10 117 136
f 10 136 181
f 10 181 219
f 10 219 241
f 10 241 254
f 10 254 234
f 10 234 253
f 10 253 248
f 10 248 220
f 10 220 186
f 10 186 143
f 10 143 111
f 10 111 82
f 10 82 66
f 10 66 48
f 10 48 31
f 10 31 20
f 11 21 13
f 12 22 23
f 13 21 14
f 14 21 15
f 15 24 16
f 15 21 25
f 15 25 24
f 16 24 26
f 16 26 17
f 17 26 27
f 18 28 29
f 18 29 19
f 20 30 21
f 20 31 30
f 21 32 25
f 21 30 33
f 21 33 32
f 22 34 23
f 23 34 35
f 24 25 36
f 24 36 37
f 24 37 38
f 24 38 26
f 25 32 39
f 25 39 40
f 25 40 36
f 26 38 41
f 26 41 27
f 27 42 43
f 27 41 38
f 27 38 42
f 28 44 45
f 28 45 29
f 29 45 34
f 30 31 46
f 30 46 47
f 30 47 33
f 31 48 49
f 31 49 46
f 32 33 39
f 33 47 50
f 33 50 39
f 34 45 35
f 35 45 52
f 35 52 51
f 36 40 43
f 36 43 37
f 37 42 38
f 37 43 42
f 39 50 53
f 39 53 54
f 39 54 40
f 40 54 43
f 43 54 55
f 44 56 57
f 44 57 45
f 44 58 59
f 44 59 56
f 45 57 60
f 45 60 52
f 46 49 61
f 46 61 47
f 47 61 62
f 47 62 50
f 48 63 64
f 48 64 65
f 48 65 61
f 48 61 49
f 48 66 67
f 48 67 68
f 48 68 63
f 50 62 69
f 50 69 53
f 51 52 60
f 51 60 70
f 53 69 71
f 53 71 54
f 54 71 55
f 55 71 72
f 55 72 73
f 56 59 57
f 57 59 60
f 58 74 75
f 58 75 76
f 58 76 77
f 58 77 59
f 59 77 78
f 59 78 60
f 60 78 70
f 61 65 62
f 62 65 69
f 63 79 80
f 63 80 64
f 63 68 79
f 64 80 81
f 64 81 65
f 65 81 69
f 66 82 83
f 66 83 84
f 66 84 85
f 66 85 67
f 67 85 86
f 67 86 87
f 67 87 88
f 67 88 68
f 68 88 89
f 68 89 79
f 69 90 91
f 69 91 71
f 69 81 90
f 70 78 92
f 71 91 93
f 71 93 72
f 72 93 94
f 72 94 73
f 73 94 95
f 74 96 97
f 74 97 75
f 74 98 96
f 75 99 76
f 75 97 100
f 75 100 99
f 76 99 101
f 76 101 102
f 76 102 77
f 77 102 78
f 78 102 103
f 78 103 92
f 79 89 80
f 80 104 105
f 80 105 81
f 80 89 88
f 80 88 106
f 80 106 104
f 81 105 107
f 81 107 90
f 82 108 109
f 82 109 110
f 82 110 83
f 82 111 108
f 83 110 112
f 83 112 113
f 83 113 84
f 84 113 114
f 84 114 86
f 84 86 85
f 86 115 87
f 86 114 115
f 87 115 116
f 87 116 88
f 88 116 106
f 90 107 91
f 91 107 93
f 92 103 117
f 93 107 118
f 93 118 94
f 94 118 119
f 94 119 95
f 95 119 120
f 95 120 121
f 95 121 122
f 95 122 123
f 96 98 124
f 96 124 125
f 96 125 126
f 96 126 97
f 97 126 127
f 97 127 100
f 98 128 124
f 98 129 128
f 99 100 130
f 99 130 101
f 100 127 131
f 100 131 132
f 100 132 133
f 100 133 130
f 101 134 102
f 101 130 135
f 101 135 136
f 101 136 134
f 102 134 103
f 103 134 117
f 104 137 138
f 104 138 105
f 104 106 139
f 104 139 140
f 104 140 137
f 105 138 107
f 106 116 141
f 106 141 139
f 107 138 118
f 108 142 109
f 108 111 142
f 109 142 110
f 110 113 112
f 110 142 113
f 111 143 144
f 111 144 145
f 111 145 146
f 111 146 147
f 111 147 142
f 113 148 149
f 113 149 114
f 113 142 150
f 113 150 151
f 113 151 148
f 114 149 152
f 114 152 115
f 115 153 154
f 115 154 116
f 115 152 155
f 115 155 153
f 116 154 141
f 117 134 136
f 118 138 137
f 118 137 119
f 119 137 120
f 120 137 140
f 120 140 156
f 120 156 121
f 121 156 157
f 121 157 158
f 121 158 122
f 122 158 159
f 122 159 160
f 122 160 161
f 122 161 123
f 123 161 162
f 123 162 151
f 123 151 163
f 124 128 164
f 124 164 165
f 124 165 125
f 125 165 126
f 126 165 166
f 126 166 127
f 127 166 131
f 128 167 168
f 128 168 164
f 128 129 169
f 128 169 167
f 129 170 171
f 129 171 172
f 129 172 173
f 129 173 169
f 130 133 174
f 130 174 135
f 131 175 132
f 131 166 176
f 131 176 177
f 131 177 175
f 132 175 133
f 133 175 178
f 133 178 174
f 135 174 136
f 136 174 179
f 136 179 180
f 136 180 181
f 139 141 182
f 139 182 183
f 139 183 184
f 139 184 140
f 140 184 156
f 141 154 182
f 142 147 185
f 142 185 150
f 143 186 187
f 143 187 188
f 143 188 189
f 143 189 144
f 144 189 190
f 144 190 145
f 145 190 185
f 145 185 146
f 146 185 147
f 148 191 192
f 148 192 193
f 148 193 149
f 148 151 162
f 148 162 191
f 149 193 152
f 150 185 190
f 150 190 151
f 151 190 194
f 151 194 163
f 152 193 155
f 153 155 154
f 154 155 182
f 155 193 195
f 155 195 183
f 155 183 182
f 156 184 157
f 157 184 183
f 157 183 158
f 158 183 159
f 159 183 195
f 159 195 160
f 160 195 192
f 160 192 191
f 160 191 161
f 161 191 162
f 164 168 196
f 164 196 165
f 165 196 166
f 166 196 176
f 167 169 173
f 167 173 197
f 167 197 198
f 167 198 199
f 167 199 168
f 168 199 200
f 168 200 201
f 168 201 196
f 170 202 203
f 170 203 204
f 170 204 205
f 170 205 171
f 171 205 204
f 171 204 206
f 171 206 172
f 172 206 197
f 172 197 207
f 172 207 173
f 173 207 197
f 174 178 179
f 175 177 208
f 175 208 179
f 175 179 178
f 176 196 201
f 176 201 177
f 177 201 209
f 177 209 210
f 177 210 211
f 177 211 212
f 177 212 208
f 179 208 180
f 180 208 212
f 180 212 211
f 180 211 213
f 180 213 214
f 180 214 181
f 181 214 215
f 181 215 216
f 181 216 217
f 181 217 218
f 181 218 219
f 186 220 221
f 186 221 187
f 187 221 222
f 187 222 188
f 188 223 189
f 188 222 223
f 189 223 194
f 189 194 190
f 192 195 193
f 194 223 224
f 197 206 225
f 197 225 226
f 197 226 198
f 198 226 227
f 198 227 228
f 198 228 199
f 199 229 200
f 199 228 229
f 200 229 201
f 201 229 230
f 201 230 231
f 201 231 209
f 202 232 233
f 202 233 234
f 202 234 235
f 202 235 203
f 202 236 232
f 203 237 238
f 203 238 239
f 203 239 204
f 203 235 240
f 203 240 241
f 203 241 219
f 203 219 237
f 204 239 225
f 204 225 206
f 209 231 210
f 210 231 242
f 210 242 211
f 211 242 243
f 211 243 213
f 213 243 214
f 214 243 244
f 214 244 215
f 215 245 216
f 215 244 245
f 216 245 217
f 217 246 247
f 217 247 218
f 217 245 238
f 217 238 246
f 218 247 219
f 219 247 237
f 220 248 221
f 221 249 250
f 221 250 222
f 221 248 232
f 221 232 236
f 221 236 223
f 221 223 249
f 222 250 223
f 223 236 224
f 223 250 249
f 225 239 251
f 225 251 226
f 226 251 227
f 227 251 238
f 227 238 228
f 228 238 252
f 228 252 229
f 229 252 242
f 229 242 230
f 230 242 231
f 232 248 253
f 232 253 233
f 233 253 234
f 234 254 235
f 235 254 240
f 237 247 246
f 237 246 238
f 238 245 255
f 238 255 252
f 238 251 239
f 240 254 241
f 242 252 243
f 243 252 255
f 243 255 244
f 244 255 245
