v -0.049514 -0.020933 0.001756
v -0.049505 -0.020933 0.002130
v -0.049511 -0.020933 0.001524
v -0.049337 -0.021268 0.001765
v -0.049278 -0.021223 0.005693
v -0.049251 -0.021206 0.007380
v -0.049245 -0.021192 0.007942
v -0.049407 -0.020933 0.005693
v -0.049499 -0.020933 0.001233
v -0.049327 -0.021264 0.001202
v -0.049122 -0.021547 0.001202
v -0.049125 -0.021551 0.001765
v -0.049098 -0.021488 0.006818
v -0.049091 -0.021485 0.007380
v -0.049085 -0.021475 0.007942
v -0.049217 -0.021161 0.008504
v -0.049309 -0.020933 0.007942
v -0.049340 -0.020933 0.007380
v -0.049082 -0.021440 0.008504
v -0.048751 -0.021830 0.010559
v -0.049471 -0.020933 0.000981
v -0.049288 -0.021230 0.000640
v -0.049101 -0.021509 0.000640
v -0.048601 -0.022157 0.000960
v -0.048797 -0.021933 0.001168
v -0.048607 -0.022164 0.001335
v -0.048607 -0.022164 0.001599
v -0.048574 -0.022126 0.008504
v -0.048800 -0.021840 0.009066
v -0.048791 -0.021833 0.009626
v -0.048770 -0.021833 0.010189
v -0.049189 -0.021109 0.008943
v -0.049266 -0.020933 0.008504
v -0.048975 -0.021316 0.010559
v -0.048632 -0.022013 0.010559
v -0.042005 -0.029567 0.011276
v -0.049419 -0.020933 0.000640
v -0.049376 -0.020933 0.000470
v -0.049229 -0.021147 0.000267
v -0.048736 -0.021751 0.000193
v -0.048819 -0.021851 0.000640
v -0.019948 -0.055302 0.000953
v -0.019958 -0.055313 0.001327
v -0.037241 -0.035466 0.010189
v -0.019964 -0.055316 0.001765
v -0.039024 -0.033374 0.011276
v -0.048558 -0.022109 0.010559
v -0.049205 -0.020933 0.009030
v -0.049003 -0.020933 0.010559
v -0.049052 -0.020933 0.010189
v -0.035387 -0.037184 0.011690
v -0.041790 -0.029564 0.011276
v -0.049269 -0.020933 0.000210
v -0.049021 -0.020933 -0.000071
v -0.048571 -0.021561 -0.000184
v -0.048050 -0.022168 -0.000208
v -0.020607 -0.054303 0.000232
v -0.022206 -0.052503 0.000347
v -0.020448 -0.054661 0.000640
v -0.020166 -0.054982 0.000640
v -0.019912 -0.055261 0.000641
v -0.019385 -0.055861 0.000938
v -0.019418 -0.055889 0.001313
v -0.019709 -0.055599 0.001765
v -0.019964 -0.055320 0.002326
v -0.019961 -0.055316 0.006257
v -0.019951 -0.055306 0.007729
v -0.019933 -0.055282 0.010751
v -0.031220 -0.042149 0.011690
v -0.034168 -0.038645 0.011690
v -0.045537 -0.020933 0.010559
v -0.031006 -0.037184 0.011690
v -0.038481 -0.029564 0.011276
v -0.048911 -0.020933 -0.000176
v -0.048163 -0.021878 -0.000253
v -0.048684 -0.021189 -0.000253
v -0.028095 -0.044348 -0.000462
v -0.020068 -0.054327 -0.000259
v -0.025062 -0.048631 -0.000234
v -0.025601 -0.048038 -0.000222
v -0.019905 -0.054703 -0.000173
v -0.020264 -0.054503 0.000029
v -0.020083 -0.054875 0.000202
v -0.019630 -0.055540 0.000641
v -0.019274 -0.055820 0.000641
v -0.018992 -0.055923 0.000641
v -0.019161 -0.055982 0.001157
v -0.019109 -0.056047 0.001765
v -0.019428 -0.055896 0.001765
v -0.019431 -0.055896 0.006818
v -0.019706 -0.055596 0.006257
v -0.019709 -0.055589 0.006818
v -0.019403 -0.055878 0.010189
v -0.019397 -0.055875 0.010618
v -0.019562 -0.055685 0.010751
v -0.019394 -0.055868 0.010751
v -0.019210 -0.055947 0.010751
v -0.019158 -0.055968 0.010751
v -0.018548 -0.056071 0.010751
v -0.027678 -0.042149 0.011690
v -0.042179 -0.023671 0.010559
v -0.042281 -0.023740 0.002325
v -0.042299 -0.023754 0.001765
v -0.046319 -0.020933 0.001202
v -0.030056 -0.038545 0.011690
v -0.018217 -0.052620 0.010751
v -0.031713 -0.035573 0.011276
v -0.031903 -0.035322 0.011276
v -0.031925 -0.035294 0.011276
v -0.032207 -0.034987 0.011276
v -0.041901 -0.023909 0.010559
v -0.041996 -0.023823 0.010559
v -0.048748 -0.020933 -0.000287
v -0.047759 -0.021878 -0.000388
v -0.048359 -0.021351 -0.000335
v -0.028095 -0.043786 -0.000540
v -0.019109 -0.054461 -0.000450
v -0.021918 -0.051651 -0.000398
v -0.038769 -0.031991 -0.000455
v -0.038206 -0.032553 -0.000470
v -0.038769 -0.031429 -0.000546
v -0.019700 -0.054492 -0.000322
v -0.019532 -0.054858 -0.000257
v -0.019284 -0.055230 -0.000154
v -0.019523 -0.055433 0.000221
v -0.018867 -0.055875 0.000342
v -0.018548 -0.055996 0.000641
v -0.018548 -0.056116 0.001203
v -0.018548 -0.056158 0.001765
v -0.019109 -0.056030 0.006818
v -0.019109 -0.055996 0.010189
v -0.018548 -0.056089 0.009627
v -0.018217 -0.055989 0.010751
v -0.031637 -0.036042 0.002326
v -0.042336 -0.023771 0.001202
v -0.031652 -0.036063 0.001765
v -0.046389 -0.020933 0.000636
v -0.018217 -0.052613 0.009845
v -0.021453 -0.047779 0.010225
v -0.021526 -0.047924 0.002326
v -0.021535 -0.047931 0.001765
v -0.048332 -0.020933 -0.000432
v -0.048142 -0.020933 -0.000477
v -0.046634 -0.023002 -0.000422
v -0.027534 -0.044348 -0.000531
v -0.018548 -0.054461 -0.000463
v -0.038206 -0.031991 -0.000537
v -0.018548 -0.055023 -0.000385
v -0.019103 -0.055037 -0.000311
v -0.047759 -0.021316 -0.000482
v -0.047759 -0.020933 -0.000487
v -0.047578 -0.020933 -0.000474
v -0.018910 -0.055340 -0.000227
v -0.019075 -0.055575 0.000095
v -0.018548 -0.055654 0.000033
v -0.018548 -0.055892 0.000315
v -0.018217 -0.055892 0.000318
v -0.018217 -0.055954 0.000641
v -0.018217 -0.056040 0.001193
v -0.018217 -0.056075 0.001765
v -0.018217 -0.056006 0.009627
v -0.042376 -0.023802 0.000854
v -0.031677 -0.036104 0.001204
v -0.046426 -0.020933 0.000535
v -0.018217 -0.052779 0.001435
v -0.021211 -0.048189 0.007941
v -0.021229 -0.048241 0.004574
v -0.021266 -0.048282 0.001765
v -0.021581 -0.047958 0.001203
v -0.018217 -0.053899 -0.000389
v -0.018217 -0.054461 -0.000438
v -0.038769 -0.030870 -0.000458
v -0.018217 -0.055330 -0.000252
v -0.018548 -0.055371 -0.000250
v -0.018217 -0.055023 -0.000336
v -0.047192 -0.020933 -0.000356
v -0.042964 -0.024943 -0.000209
v -0.018217 -0.055889 0.000313
v -0.018217 -0.055358 -0.000240
v -0.046882 -0.020933 -0.000225
v -0.046653 -0.020933 0.000060
v -0.046533 -0.020933 0.000287
v -0.031717 -0.036153 0.000835
v -0.031848 -0.036342 0.000460
v -0.042382 -0.024350 0.000317
v -0.021624 -0.047989 0.000885
v -0.018217 -0.052792 0.001203
v -0.021339 -0.048282 0.001203
v -0.018217 -0.053510 -0.000267
v -0.047057 -0.020933 -0.000309
v -0.043169 -0.024571 -0.000154
v -0.042746 -0.024730 -0.000031
v -0.046922 -0.020933 -0.000248
v -0.021499 -0.048269 0.000676
v -0.021560 -0.048448 0.000285
v -0.018217 -0.052923 0.000630
v -0.018217 -0.052868 0.000856
v -0.018217 -0.053216 0.000072
f 1 2 8
f 1 8 18
f 1 18 17
f 1 17 33
f 1 33 48
f 1 48 50
f 1 50 49
f 1 49 71
f 1 71 104
f 1 104 137
f 1 137 164
f 1 164 182
f 1 182 181
f 1 181 180
f 1 180 193
f 1 193 190
f 1 190 176
f 1 176 152
f 1 152 151
f 1 151 143
f 1 143 142
f 1 142 113
f 1 113 74
f 1 74 54
f 1 54 53
f 1 53 38
f 1 38 37
f 1 37 21
f 1 21 9
f 1 9 3
f 1 3 4
f 1 4 5
f 1 5 6
f 1 6 7
f 1 7 2
f 2 7 8
f 3 9 10
f 3 10 4
f 4 10 11
f 4 11 12
f 4 12 13
f 4 13 14
f 4 14 5
f 5 14 15
f 5 15 6
f 6 15 7
f 7 16 17
f 7 17 18
f 7 18 8
f 7 15 19
f 7 19 20
f 7 20 16
f 9 21 22
f 9 22 10
f 10 22 23
f 10 23 11
f 11 23 24
f 11 24 25
f 11 25 26
f 11 26 12
f 12 26 27
f 12 27 28
f 12 28 29
f 12 29 13
f 13 29 14
f 14 29 15
f 15 29 30
f 15 30 31
f 15 31 19
f 16 32 33
f 16 33 17
f 16 20 34
f 16 34 32
f 19 31 20
f 20 31 35
f 20 35 36
f 20 36 34
f 21 37 22
f 22 37 38
f 22 38 39
f 22 39 23
f 23 40 41
f 23 41 24
f 23 39 40
f 24 26 25
f 24 41 42
f 24 42 43
f 24 43 26
f 26 44 27
f 26 43 45
f 26 45 44
f 27 44 46
f 27 46 28
f 28 47 29
f 28 46 47
f 29 47 35
f 29 35 30
f 30 35 31
f 32 34 33
f 33 34 48
f 34 36 49
f 34 49 50
f 34 50 48
f 35 47 36
f 36 46 51
f 36 51 52
f 36 52 49
f 36 47 46
f 38 53 39
f 39 53 54
f 39 54 55
f 39 55 40
f 40 55 56
f 40 56 57
f 40 57 41
f 41 57 58
f 41 58 59
f 41 59 42
f 42 59 60
f 42 60 61
f 42 61 62
f 42 62 63
f 42 63 43
f 43 63 64
f 43 64 45
f 44 45 65
f 44 65 66
f 44 66 67
f 44 67 68
f 44 68 46
f 45 64 65
f 46 68 69
f 46 69 70
f 46 70 51
f 49 52 73
f 49 73 71
f 51 70 69
f 51 69 100
f 51 100 105
f 51 105 72
f 51 72 73
f 51 73 52
f 54 74 55
f 55 75 56
f 55 74 76
f 55 76 75
f 56 75 77
f 56 77 78
f 56 78 79
f 56 79 80
f 56 80 81
f 56 81 82
f 56 82 57
f 57 82 83
f 57 83 60
f 57 60 59
f 57 59 58
f 60 83 61
f 61 83 84
f 61 84 62
f 62 84 85
f 62 85 86
f 62 86 87
f 62 87 63
f 63 87 88
f 63 88 89
f 63 89 64
f 64 89 90
f 64 90 91
f 64 91 65
f 65 91 66
f 66 91 90
f 66 90 92
f 66 92 67
f 67 92 68
f 68 92 93
f 68 93 94
f 68 94 95
f 68 95 69
f 69 95 96
f 69 96 97
f 69 97 98
f 69 98 99
f 69 99 100
f 71 101 102
f 71 102 103
f 71 103 104
f 71 73 72
f 71 72 101
f 72 105 106
f 72 106 107
f 72 107 108
f 72 108 109
f 72 109 110
f 72 110 111
f 72 111 112
f 72 112 101
f 74 113 76
f 75 114 77
f 75 76 115
f 75 115 114
f 76 113 115
f 77 116 117
f 77 117 118
f 77 118 78
f 77 114 119
f 77 119 120
f 77 120 121
f 77 121 116
f 78 118 122
f 78 122 123
f 78 123 81
f 78 81 80
f 78 80 79
f 81 123 124
f 81 124 125
f 81 125 83
f 81 83 82
f 83 125 84
f 84 125 85
f 85 126 86
f 85 125 126
f 86 127 128
f 86 128 87
f 86 126 127
f 87 128 88
f 88 128 129
f 88 129 130
f 88 130 90
f 88 90 89
f 90 93 92
f 90 130 93
f 93 130 131
f 93 131 94
f 94 96 95
f 94 131 97
f 94 97 96
f 97 131 98
f 98 131 99
f 99 132 161
f 99 161 133
f 99 133 100
f 99 131 132
f 100 133 106
f 100 106 105
f 101 112 102
f 102 112 111
f 102 111 109
f 102 109 134
f 102 134 103
f 103 135 104
f 103 134 136
f 103 136 135
f 104 135 137
f 106 133 161
f 106 161 160
f 106 160 159
f 106 159 158
f 106 158 157
f 106 157 178
f 106 178 179
f 106 179 173
f 106 173 175
f 106 175 171
f 106 171 170
f 106 170 189
f 106 189 198
f 106 198 196
f 106 196 197
f 106 197 187
f 106 187 165
f 106 165 138
f 106 138 139
f 106 139 108
f 106 108 107
f 108 139 109
f 109 111 110
f 109 139 140
f 109 140 141
f 109 141 134
f 113 142 115
f 114 115 142
f 114 142 143
f 114 143 144
f 114 144 119
f 116 145 146
f 116 146 117
f 116 121 147
f 116 147 145
f 117 146 148
f 117 148 149
f 117 149 122
f 117 122 118
f 119 144 143
f 119 143 120
f 120 143 121
f 121 143 150
f 121 150 151
f 121 151 152
f 121 152 147
f 122 149 123
f 123 149 153
f 123 153 124
f 124 153 154
f 124 154 125
f 125 154 126
f 126 154 153
f 126 153 155
f 126 155 156
f 126 156 127
f 127 156 157
f 127 157 128
f 128 157 158
f 128 158 159
f 128 159 129
f 129 159 160
f 129 160 161
f 129 161 132
f 129 132 130
f 130 132 131
f 134 141 136
f 135 162 137
f 135 136 163
f 135 163 162
f 136 141 163
f 137 162 164
f 138 165 139
f 139 165 166
f 139 166 167
f 139 167 140
f 140 167 168
f 140 168 141
f 141 168 169
f 141 169 163
f 143 151 150
f 145 170 171
f 145 171 146
f 145 147 170
f 146 171 148
f 147 152 172
f 147 172 170
f 148 173 174
f 148 174 153
f 148 153 149
f 148 171 175
f 148 175 173
f 152 176 177
f 152 177 170
f 152 170 172
f 153 174 155
f 155 178 156
f 155 174 179
f 155 179 178
f 156 178 157
f 162 180 181
f 162 181 182
f 162 182 164
f 162 163 183
f 162 183 184
f 162 184 185
f 162 185 180
f 163 169 186
f 163 186 183
f 165 187 168
f 165 168 167
f 165 167 166
f 168 187 188
f 168 188 169
f 169 188 186
f 170 177 189
f 173 179 174
f 176 190 177
f 177 190 191
f 177 191 192
f 177 192 189
f 180 185 193
f 183 186 194
f 183 194 195
f 183 195 184
f 184 195 185
f 185 192 193
f 185 195 189
f 185 189 192
f 186 188 196
f 186 196 194
f 187 197 188
f 188 197 196
f 189 195 198
f 190 193 191
f 191 193 192
f 194 196 198
f 194 198 195
