v -0.010097 -0.029547 0.038538
v -0.010097 -0.029561 0.038538
v -0.010097 -0.026351 0.038502
v -0.012759 -0.025766 0.042210
v -0.012860 -0.025766 0.042327
v -0.013233 -0.026049 0.042473
v -0.013608 -0.026179 0.042546
v -0.014307 -0.026663 0.042505
v -0.014614 -0.026705 0.042538
v -0.015737 -0.027108 0.042319
v -0.016299 -0.027123 0.042347
v -0.010118 -0.029561 0.038538
v -0.010097 -0.029561 0.011138
v -0.010097 -0.025789 0.038494
v -0.010100 -0.025766 0.038494
v -0.013118 -0.025766 0.042509
v -0.013375 -0.025766 0.042582
v -0.014051 -0.025809 0.042720
v -0.014614 -0.026371 0.042712
v -0.015175 -0.026765 0.042574
v -0.015737 -0.026827 0.042574
v -0.022685 -0.029561 0.038498
v -0.016299 -0.026842 0.042582
v -0.016858 -0.026804 0.042594
v -0.017420 -0.026769 0.042586
v -0.011482 -0.029561 0.002888
v -0.010097 -0.025766 0.013494
v -0.010097 -0.025766 0.038469
v -0.014009 -0.025766 0.042712
v -0.014614 -0.025809 0.042784
v -0.015175 -0.026371 0.042760
v -0.022685 -0.029387 0.038502
v -0.022685 -0.029561 0.015137
v -0.017844 -0.026716 0.042550
v -0.018884 -0.026114 0.042509
v -0.019253 -0.025766 0.042566
v -0.019645 -0.025766 0.042331
v -0.016858 -0.026371 0.042748
v -0.017420 -0.026371 0.042732
v -0.011578 -0.029561 0.002330
v -0.011795 -0.025766 0.013364
v -0.011582 -0.029561 0.002317
v -0.011586 -0.029549 0.002330
v -0.012120 -0.028936 0.002184
v -0.012681 -0.028364 0.002196
v -0.013736 -0.027756 0.002018
v -0.014869 -0.027202 0.002030
v -0.015734 -0.026958 0.002330
v -0.016296 -0.026886 0.002330
v -0.016296 -0.026797 0.002888
v -0.021139 -0.025852 0.005697
v -0.021139 -0.025777 0.006260
v -0.014570 -0.025766 0.042768
v -0.017980 -0.025766 0.042748
v -0.017982 -0.025809 0.042756
v -0.022685 -0.029320 0.038502
v -0.022685 -0.027712 0.015275
v -0.022538 -0.029561 0.012514
v -0.018011 -0.026407 0.042627
v -0.018542 -0.025809 0.042683
v -0.018542 -0.025766 0.042683
v -0.019725 -0.025766 0.042206
v -0.022685 -0.027712 0.038494
v -0.012365 -0.025766 0.013340
v -0.011849 -0.029561 0.001767
v -0.011988 -0.029343 0.001767
v -0.012494 -0.028740 0.001884
v -0.013055 -0.028237 0.001921
v -0.013525 -0.028052 0.001848
v -0.014654 -0.027494 0.001872
v -0.015175 -0.027495 0.001714
v -0.015175 -0.027166 0.001981
v -0.015734 -0.027119 0.001905
v -0.016858 -0.026868 0.002330
v -0.021139 -0.025979 0.005191
v -0.016296 -0.027086 0.001876
v -0.021139 -0.025777 0.006701
v -0.021139 -0.026417 0.004592
v -0.021139 -0.028329 0.001981
v -0.021139 -0.028623 0.001791
v -0.021139 -0.029179 0.001585
v -0.021139 -0.029560 0.001658
v -0.014269 -0.029561 0.002111
v -0.019845 -0.025766 0.041651
v -0.020354 -0.025766 0.038911
v -0.012570 -0.025766 0.013344
v -0.011949 -0.029561 0.001589
v -0.012078 -0.029452 0.001480
v -0.012889 -0.028596 0.001714
v -0.013100 -0.028828 0.001459
v -0.014051 -0.028055 0.001674
v -0.015733 -0.027546 0.001601
v -0.016296 -0.027477 0.001597
v -0.017420 -0.026892 0.002330
v -0.016858 -0.027076 0.001864
v -0.017420 -0.027093 0.001880
v -0.017982 -0.027136 0.001945
v -0.018408 -0.027181 0.002002
v -0.018783 -0.027224 0.002075
v -0.020071 -0.027714 0.001977
v -0.021120 -0.028299 0.001994
v -0.020354 -0.025766 0.015295
v -0.020250 -0.025766 0.014943
v -0.016269 -0.025766 0.013571
v -0.015737 -0.025766 0.013514
v -0.012962 -0.025766 0.013360
v -0.020791 -0.028192 0.001909
v -0.020791 -0.028617 0.001666
v -0.020229 -0.028617 0.001593
v -0.016651 -0.027759 0.001480
v -0.016651 -0.027794 0.001480
v -0.012540 -0.029561 0.001431
v -0.012994 -0.029561 0.001463
v -0.013070 -0.029561 0.001475
v -0.013170 -0.029561 0.001512
v -0.014046 -0.029561 0.001941
v -0.012056 -0.029561 0.001467
v -0.012724 -0.028978 0.001512
v -0.012188 -0.029561 0.001455
v -0.016296 -0.027757 0.001480
v -0.015918 -0.027766 0.001484
v -0.016846 -0.027542 0.001569
v -0.017420 -0.027495 0.001629
v -0.019104 -0.027547 0.001848
v -0.019667 -0.027635 0.001905
v -0.020248 -0.028018 0.001828
v -0.019667 -0.028056 0.001650
v -0.019104 -0.028056 0.001597
f 1 2 13
f 1 13 27
f 1 27 28
f 1 28 14
f 1 14 3
f 1 3 4
f 1 4 2
f 2 4 5
f 2 5 6
f 2 6 7
f 2 7 8
f 2 8 9
f 2 9 10
f 2 10 11
f 2 11 12
f 2 12 22
f 2 22 33
f 2 33 58
f 2 58 83
f 2 83 116
f 2 116 115
f 2 115 114
f 2 114 113
f 2 113 112
f 2 112 119
f 2 119 117
f 2 117 87
f 2 87 65
f 2 65 42
f 2 42 40
f 2 40 26
f 2 26 13
f 3 14 4
f 4 14 15
f 4 15 28
f 4 28 27
f 4 27 41
f 4 41 64
f 4 64 86
f 4 86 106
f 4 106 105
f 4 105 104
f 4 104 103
f 4 103 102
f 4 102 85
f 4 85 84
f 4 84 62
f 4 62 37
f 4 37 36
f 4 36 61
f 4 61 54
f 4 54 53
f 4 53 29
f 4 29 17
f 4 17 16
f 4 16 5
f 5 16 6
f 6 16 17
f 6 17 7
f 7 17 18
f 7 18 19
f 7 19 8
f 8 19 9
f 9 19 20
f 9 20 10
f 10 20 21
f 10 21 11
f 11 22 12
f 11 21 23
f 11 23 24
f 11 24 25
f 11 25 22
f 13 26 27
f 14 28 15
f 17 29 18
f 18 29 30
f 18 30 19
f 19 30 31
f 19 31 20
f 20 31 21
f 21 31 23
f 22 32 56
f 22 56 63
f 22 63 57
f 22 57 33
f 22 25 34
f 22 34 35
f 22 35 36
f 22 36 37
f 22 37 32
f 23 31 24
f 24 31 38
f 24 38 39
f 24 39 25
f 25 39 34
f 26 40 27
f 27 40 42
f 27 42 43
f 27 43 44
f 27 44 45
f 27 45 46
f 27 46 47
f 27 47 48
f 27 48 49
f 27 49 50
f 27 50 51
f 27 51 52
f 27 52 41
f 29 53 30
f 30 53 54
f 30 54 55
f 30 55 38
f 30 38 31
f 32 37 56
f 33 57 58
f 34 39 59
f 34 59 36
f 34 36 35
f 36 59 60
f 36 60 61
f 37 62 63
f 37 63 56
f 38 55 39
f 39 60 59
f 39 55 60
f 41 52 64
f 42 65 66
f 42 66 43
f 43 66 44
f 44 66 67
f 44 67 45
f 45 67 68
f 45 68 46
f 46 68 69
f 46 69 47
f 47 69 70
f 47 70 71
f 47 71 72
f 47 72 48
f 48 72 73
f 48 73 49
f 49 74 75
f 49 75 51
f 49 51 50
f 49 73 76
f 49 76 74
f 51 75 57
f 51 57 52
f 52 57 77
f 52 77 64
f 54 61 55
f 55 61 60
f 57 63 77
f 57 75 78
f 57 78 79
f 57 79 58
f 58 79 80
f 58 80 81
f 58 81 82
f 58 82 83
f 62 84 63
f 63 84 85
f 63 85 77
f 64 77 86
f 65 87 88
f 65 88 66
f 66 88 67
f 67 88 68
f 68 88 89
f 68 89 69
f 69 89 90
f 69 90 91
f 69 91 70
f 70 91 71
f 71 91 90
f 71 90 92
f 71 92 73
f 71 73 72
f 73 92 93
f 73 93 76
f 74 94 75
f 74 76 95
f 74 95 94
f 75 94 96
f 75 96 97
f 75 97 98
f 75 98 99
f 75 99 100
f 75 100 101
f 75 101 78
f 76 93 95
f 77 85 102
f 77 102 103
f 77 103 104
f 77 104 105
f 77 105 106
f 77 106 86
f 78 101 79
f 79 101 107
f 79 107 80
f 80 107 108
f 80 108 81
f 81 108 109
f 81 109 110
f 81 110 111
f 81 111 112
f 81 112 82
f 82 112 113
f 82 113 114
f 82 114 115
f 82 115 116
f 82 116 83
f 87 117 88
f 88 117 90
f 88 90 118
f 88 118 89
f 89 118 90
f 90 117 119
f 90 119 112
f 90 112 120
f 90 120 121
f 90 121 92
f 92 121 93
f 93 121 120
f 93 120 122
f 93 122 95
f 94 95 96
f 95 122 96
f 96 122 123
f 96 123 124
f 96 124 97
f 97 124 98
f 98 124 125
f 98 125 99
f 99 125 100
f 100 125 126
f 100 126 107
f 100 107 101
f 107 126 108
f 108 127 109
f 108 126 127
f 109 127 128
f 109 128 110
f 110 128 123
f 110 123 122
f 110 122 120
f 110 120 112
f 110 112 111
f 123 128 127
f 123 127 124
f 124 127 125
f 125 127 126
