v 0.005233 -0.035361 0.007942
v 0.005113 -0.035924 0.001768
v 0.005225 -0.035361 0.001768
v 0.005225 -0.035304 0.007887
v 0.005225 -0.035304 0.007942
v 0.005229 -0.035361 0.010893
v 0.004875 -0.036341 0.001768
v 0.004871 -0.036335 0.001204
v 0.005101 -0.035924 0.001204
v 0.005101 -0.035924 0.007942
v 0.005194 -0.035361 0.001204
v 0.005214 -0.035304 0.001768
v 0.005218 -0.035304 0.010893
v 0.003770 -0.037183 0.037155
v 0.005078 -0.035924 0.010893
v 0.004630 -0.036622 0.001768
v 0.004860 -0.036309 0.007942
v 0.004618 -0.036616 0.001204
v 0.004825 -0.036272 0.000643
v 0.004996 -0.035924 0.000643
v 0.005093 -0.035361 0.000643
v 0.005023 -0.036012 0.010893
v 0.005183 -0.035304 0.001204
v 0.001825 -0.035304 0.010893
v -0.008433 -0.037183 0.042776
v -0.002399 -0.037183 0.042590
v -0.002042 -0.037183 0.042467
v 0.003261 -0.037183 0.038208
v 0.003603 -0.037183 0.037796
v 0.003650 -0.037183 0.037707
v 0.003735 -0.037183 0.037333
v -0.003563 -0.043600 0.037711
v -0.009231 -0.048607 0.037146
v 0.003778 -0.037183 0.036875
v 0.004350 -0.036902 0.001768
v 0.003782 -0.037183 0.036590
v 0.004848 -0.036288 0.010893
v 0.004338 -0.036892 0.001204
v 0.004556 -0.036553 0.000643
v 0.004778 -0.036219 0.000338
v 0.004844 -0.035924 0.000206
v 0.004895 -0.035361 0.000121
v 0.005062 -0.035304 0.000592
v 0.005078 -0.035304 0.000639
v -0.025593 -0.037183 0.013853
v -0.025593 -0.037183 0.039443
v -0.008989 -0.037183 0.042755
v 0.001919 -0.035304 0.002329
v -0.007309 -0.038171 0.042802
v -0.006753 -0.038171 0.042798
v -0.003940 -0.038171 0.042755
v -0.003520 -0.038566 0.042573
v -0.003353 -0.038183 0.042615
v -0.003146 -0.038381 0.042433
v 0.003183 -0.037423 0.038085
v 0.002615 -0.037974 0.038085
v -0.003601 -0.043566 0.038042
v 0.002685 -0.038045 0.037715
v 0.002370 -0.038326 0.037715
v -0.009242 -0.048594 0.037528
v -0.009841 -0.049119 0.037146
v -0.017124 -0.055305 0.025737
v -0.017680 -0.055876 0.001768
v -0.017400 -0.055638 0.001768
v 0.004027 -0.037183 0.001768
v -0.017684 -0.055876 0.001365
v -0.017711 -0.055860 0.000991
v 0.004276 -0.036827 0.000643
v 0.004222 -0.036776 0.000338
v 0.004443 -0.036441 0.000151
v 0.004292 -0.036288 -0.000253
v 0.004688 -0.035924 -0.000074
v 0.004887 -0.035304 0.000134
v 0.004735 -0.035361 -0.000159
v 0.001934 -0.035304 0.001768
v 0.001954 -0.035304 0.001204
v 0.002035 -0.035304 0.000626
v 0.002249 -0.035304 0.000083
v 0.002463 -0.035304 -0.000244
v -0.034400 -0.038356 0.011700
v -0.034420 -0.038356 0.011882
v -0.034501 -0.038356 0.024238
v -0.034268 -0.038356 0.037715
v -0.034120 -0.038356 0.038072
v -0.033677 -0.038356 0.038327
v -0.033252 -0.038356 0.038513
v -0.034357 -0.038356 0.036025
v -0.034350 -0.038356 0.036471
v -0.034334 -0.038356 0.037155
v -0.019100 -0.054892 0.038615
v -0.032988 -0.038356 0.038564
v -0.032902 -0.038511 0.038560
v -0.029522 -0.042986 0.038569
v -0.018540 -0.054959 0.038637
v -0.006753 -0.038732 0.042704
v -0.006188 -0.038732 0.042726
v -0.005628 -0.038732 0.042713
v -0.005628 -0.039188 0.042632
v -0.003987 -0.038747 0.042607
v -0.018073 -0.054859 0.038603
v -0.017696 -0.054741 0.038556
v -0.016451 -0.054274 0.038106
v -0.009686 -0.048696 0.038114
v -0.008709 -0.048011 0.038004
v -0.005975 -0.045127 0.038530
v -0.015988 -0.054194 0.037490
v -0.016583 -0.054731 0.037146
v -0.017194 -0.055252 0.036590
v -0.017447 -0.055518 0.031533
v -0.017684 -0.055876 0.002329
v -0.017980 -0.056018 0.001768
v -0.017929 -0.055971 0.001187
v -0.017120 -0.055319 0.000885
v -0.018089 -0.055937 0.000643
v -0.017805 -0.055801 0.000643
v -0.017396 -0.055483 0.000677
v -0.016980 -0.054880 0.000202
v 0.004066 -0.036662 -0.000036
v -0.017198 -0.055252 0.000512
v -0.016023 -0.054174 0.000388
v -0.016583 -0.054172 -0.000193
v -0.016960 -0.054318 -0.000257
v 0.003926 -0.035924 -0.000469
v 0.004405 -0.035924 -0.000308
v 0.004731 -0.035304 -0.000138
v 0.004455 -0.035361 -0.000350
v 0.004696 -0.035304 -0.000176
v 0.002802 -0.035304 -0.000414
v -0.033996 -0.039021 0.012685
v -0.002061 -0.038930 -0.000231
v -0.014346 -0.049664 -0.000210
v -0.018213 -0.053507 -0.000265
v -0.018213 -0.053897 -0.000389
v -0.018213 -0.054459 -0.000435
v -0.018213 -0.055024 -0.000333
v -0.018213 -0.055329 -0.000248
v -0.018213 -0.055357 -0.000240
v -0.018213 -0.055888 0.000316
v -0.018213 -0.055890 0.000321
v -0.031183 -0.042155 0.010235
v -0.034497 -0.038366 0.024238
v -0.032319 -0.040717 0.037482
v -0.029689 -0.043735 0.037715
v -0.034038 -0.038505 0.038042
v -0.033610 -0.039227 0.037155
v -0.029362 -0.043362 0.038492
v -0.033960 -0.038983 0.028162
v -0.033894 -0.038899 0.036590
v -0.019419 -0.054774 0.038569
v -0.019100 -0.055172 0.038467
v -0.018540 -0.055235 0.038518
v -0.019956 -0.054200 0.038564
v -0.017921 -0.055036 0.038424
v -0.017466 -0.054997 0.038153
v -0.017314 -0.054918 0.038123
v -0.017062 -0.054788 0.038068
v -0.015474 -0.053592 0.037940
v -0.014875 -0.053064 0.038004
v -0.016661 -0.054668 0.037719
v -0.017217 -0.055235 0.037146
v -0.017314 -0.055347 0.036590
v -0.017474 -0.055467 0.036590
v -0.017878 -0.055746 0.036590
v -0.017859 -0.055797 0.030408
v -0.018162 -0.055913 0.036590
v -0.018213 -0.056077 0.001768
v -0.018213 -0.056041 0.001195
v -0.018213 -0.055955 0.000643
v -0.018205 -0.055890 0.000321
v -0.017571 -0.055410 0.000244
v -0.017186 -0.054697 -0.000172
v -0.018182 -0.055357 -0.000236
v -0.017563 -0.054837 -0.000248
v -0.017987 -0.055024 -0.000304
v -0.006185 -0.044351 -0.000507
v -0.005624 -0.043789 -0.000520
v 0.003926 -0.035361 -0.000550
v 0.003926 -0.035304 -0.000550
v 0.004401 -0.035304 -0.000367
v 0.004447 -0.035304 -0.000346
v 0.003366 -0.035304 -0.000575
v -0.029568 -0.044160 0.022553
v -0.033996 -0.039021 0.012800
v -0.029802 -0.043791 0.010235
v -0.028506 -0.045308 0.010235
v -0.020049 -0.055138 0.010231
v -0.014051 -0.049546 -0.000248
v -0.006185 -0.043789 -0.000558
v -0.017980 -0.054459 -0.000418
v -0.034213 -0.038714 0.024238
v -0.028938 -0.044646 0.037477
v -0.032852 -0.040121 0.037155
v -0.028191 -0.045546 0.037155
v -0.019820 -0.055146 0.037715
v -0.028899 -0.044599 0.037851
v -0.019866 -0.055199 0.037151
v -0.029600 -0.043641 0.038119
v -0.031292 -0.041949 0.036590
v -0.033972 -0.038997 0.024238
v -0.019789 -0.054577 0.038424
v -0.019458 -0.055378 0.038072
v -0.019100 -0.055479 0.038187
v -0.018540 -0.055500 0.038233
v -0.017976 -0.055390 0.038110
v -0.017688 -0.055307 0.038004
v -0.016077 -0.054121 0.037864
v -0.017610 -0.055368 0.037715
v -0.017501 -0.055443 0.037151
v -0.018194 -0.055902 0.037027
v -0.018540 -0.055986 0.036590
v -0.018540 -0.056073 0.011326
v -0.018540 -0.056073 0.010761
v -0.019077 -0.055986 0.011326
v -0.019151 -0.055969 0.010761
v -0.019201 -0.055949 0.010761
v -0.019384 -0.055868 0.010761
v -0.018007 -0.055569 0.000095
v -0.017805 -0.055213 -0.000130
v -0.015731 -0.052775 -0.000393
v 0.003868 -0.035304 -0.000554
v -0.019925 -0.055280 0.011326
v -0.020446 -0.054670 0.014698
v -0.020049 -0.055083 0.021996
v -0.019870 -0.055201 0.036590
v -0.019925 -0.055280 0.010761
v -0.019543 -0.055463 0.037715
v -0.019582 -0.055518 0.037151
v -0.019084 -0.055750 0.037702
v -0.018882 -0.055882 0.037507
v -0.018516 -0.055795 0.037702
v -0.017976 -0.055583 0.037715
v -0.017991 -0.055746 0.037189
v -0.018314 -0.055856 0.037401
v -0.018516 -0.055921 0.037189
v -0.018948 -0.055910 0.037151
v -0.018991 -0.055939 0.036590
v -0.019275 -0.055807 0.036590
v -0.019582 -0.055524 0.036590
v -0.019897 -0.055256 0.021996
v -0.019224 -0.055799 0.037151
v -0.018684 -0.055882 0.037507
f 1 2 3
f 1 3 4
f 1 4 5
f 1 5 6
f 1 6 2
f 2 7 8
f 2 8 9
f 2 9 3
f 2 6 10
f 2 10 7
f 3 9 11
f 3 11 23
f 3 23 12
f 3 12 4
f 4 12 23
f 4 23 44
f 4 44 43
f 4 43 73
f 4 73 125
f 4 125 127
f 4 127 180
f 4 180 179
f 4 179 178
f 4 178 220
f 4 220 181
f 4 181 128
f 4 128 79
f 4 79 78
f 4 78 77
f 4 77 76
f 4 76 75
f 4 75 48
f 4 48 24
f 4 24 13
f 4 13 5
f 5 13 6
f 6 13 14
f 6 14 15
f 6 15 10
f 7 16 8
f 7 10 17
f 7 17 16
f 8 16 18
f 8 18 19
f 8 19 9
f 9 19 20
f 9 20 21
f 9 21 11
f 10 15 22
f 10 22 17
f 11 21 23
f 13 24 25
f 13 25 26
f 13 26 27
f 13 27 28
f 13 28 29
f 13 29 30
f 13 30 31
f 13 31 14
f 14 31 32
f 14 32 33
f 14 33 34
f 14 34 15
f 15 34 22
f 16 35 18
f 16 17 36
f 16 36 35
f 17 22 37
f 17 37 36
f 18 35 38
f 18 38 39
f 18 39 19
f 19 39 40
f 19 40 20
f 20 40 41
f 20 41 21
f 21 41 42
f 21 42 43
f 21 43 44
f 21 44 23
f 22 34 37
f 24 45 46
f 24 46 47
f 24 47 25
f 24 48 45
f 25 47 49
f 25 49 50
f 25 50 51
f 25 51 26
f 26 52 27
f 26 51 53
f 26 53 52
f 27 52 54
f 27 54 28
f 28 54 55
f 28 55 29
f 29 55 56
f 29 56 30
f 30 56 57
f 30 57 58
f 30 58 31
f 31 58 59
f 31 59 32
f 32 60 33
f 32 59 57
f 32 57 60
f 33 36 34
f 33 60 61
f 33 61 62
f 33 62 63
f 33 63 64
f 33 64 65
f 33 65 35
f 33 35 36
f 34 36 37
f 35 65 38
f 38 65 66
f 38 66 67
f 38 67 68
f 38 68 39
f 39 68 69
f 39 69 40
f 40 69 70
f 40 70 71
f 40 71 72
f 40 72 41
f 41 72 42
f 42 73 43
f 42 72 74
f 42 74 73
f 45 48 75
f 45 75 76
f 45 76 77
f 45 77 78
f 45 78 79
f 45 79 80
f 45 80 81
f 45 81 82
f 45 82 46
f 46 83 84
f 46 84 85
f 46 85 86
f 46 86 47
f 46 82 87
f 46 87 88
f 46 88 89
f 46 89 83
f 47 90 49
f 47 86 91
f 47 91 92
f 47 92 93
f 47 93 90
f 49 90 94
f 49 94 95
f 49 95 96
f 49 96 50
f 50 96 51
f 51 96 97
f 51 97 98
f 51 98 99
f 51 99 52
f 51 52 53
f 52 99 100
f 52 100 101
f 52 101 102
f 52 102 103
f 52 103 104
f 52 104 105
f 52 105 57
f 52 57 56
f 52 56 54
f 54 56 55
f 57 104 60
f 57 59 58
f 57 105 104
f 60 104 106
f 60 106 107
f 60 107 61
f 61 107 108
f 61 108 109
f 61 109 62
f 62 109 110
f 62 110 63
f 63 110 111
f 63 111 66
f 63 66 64
f 64 66 65
f 66 111 112
f 66 112 67
f 67 113 68
f 67 112 114
f 67 114 115
f 67 115 116
f 67 116 113
f 68 113 69
f 69 117 118
f 69 118 70
f 69 113 116
f 69 116 119
f 69 119 120
f 69 120 117
f 70 118 71
f 71 121 122
f 71 122 123
f 71 123 124
f 71 124 72
f 71 118 117
f 71 117 121
f 72 124 74
f 73 74 125
f 74 124 126
f 74 126 180
f 74 180 127
f 74 127 125
f 79 128 80
f 80 129 81
f 80 128 130
f 80 130 131
f 80 131 132
f 80 132 133
f 80 133 134
f 80 134 135
f 80 135 136
f 80 136 137
f 80 137 138
f 80 138 139
f 80 139 140
f 80 140 129
f 81 129 141
f 81 141 82
f 82 141 87
f 83 142 143
f 83 143 144
f 83 144 84
f 83 89 145
f 83 145 142
f 84 144 146
f 84 146 85
f 85 146 93
f 85 93 86
f 86 93 92
f 86 92 91
f 87 141 147
f 87 147 148
f 87 148 88
f 88 148 145
f 88 145 89
f 90 149 150
f 90 150 151
f 90 151 94
f 90 93 152
f 90 152 149
f 93 146 152
f 94 100 99
f 94 99 98
f 94 98 96
f 94 96 95
f 94 151 100
f 96 98 97
f 100 151 101
f 101 151 153
f 101 153 154
f 101 154 155
f 101 155 156
f 101 156 102
f 102 156 157
f 102 157 158
f 102 158 104
f 102 104 103
f 104 158 157
f 104 157 159
f 104 159 106
f 106 159 160
f 106 160 107
f 107 160 108
f 108 160 161
f 108 161 109
f 109 161 162
f 109 162 163
f 109 163 164
f 109 164 110
f 110 164 165
f 110 165 111
f 111 166 112
f 111 165 166
f 112 167 114
f 112 166 167
f 114 168 169
f 114 169 115
f 114 167 168
f 115 169 170
f 115 170 119
f 115 119 116
f 117 120 170
f 117 170 171
f 117 171 121
f 119 170 120
f 121 171 172
f 121 172 173
f 121 173 122
f 122 173 174
f 122 174 175
f 122 175 123
f 123 175 176
f 123 176 177
f 123 177 124
f 124 177 126
f 126 177 178
f 126 178 179
f 126 179 180
f 128 181 130
f 129 182 183
f 129 183 141
f 129 140 184
f 129 184 185
f 129 185 186
f 129 186 182
f 130 181 131
f 131 181 187
f 131 187 133
f 131 133 132
f 133 187 188
f 133 188 134
f 134 188 176
f 134 176 189
f 134 189 135
f 135 189 174
f 135 174 136
f 136 174 172
f 136 172 137
f 137 172 138
f 138 172 169
f 138 169 139
f 139 169 168
f 139 168 140
f 140 168 184
f 141 183 190
f 141 190 147
f 142 191 143
f 142 145 192
f 142 192 193
f 142 193 191
f 143 194 195
f 143 195 144
f 143 191 196
f 143 196 194
f 144 195 197
f 144 197 146
f 145 148 147
f 145 147 192
f 146 197 152
f 147 193 198
f 147 198 192
f 147 190 199
f 147 199 182
f 147 182 193
f 149 152 200
f 149 200 201
f 149 201 150
f 150 202 151
f 150 201 202
f 151 202 203
f 151 203 204
f 151 204 153
f 152 197 200
f 153 204 205
f 153 205 154
f 154 205 155
f 155 205 156
f 156 205 159
f 156 159 206
f 156 206 157
f 157 206 159
f 159 205 207
f 159 207 160
f 160 162 161
f 160 207 208
f 160 208 162
f 162 208 163
f 163 165 164
f 163 208 209
f 163 209 165
f 165 209 210
f 165 210 166
f 166 210 211
f 166 211 212
f 166 212 213
f 166 213 214
f 166 214 215
f 166 215 216
f 166 216 167
f 167 216 186
f 167 186 185
f 167 185 184
f 167 184 168
f 169 172 217
f 169 217 170
f 170 217 218
f 170 218 171
f 171 218 172
f 172 174 173
f 172 218 217
f 174 189 219
f 174 219 175
f 175 219 189
f 175 189 176
f 176 188 177
f 177 188 181
f 177 181 220
f 177 220 178
f 181 188 187
f 182 221 222
f 182 222 223
f 182 223 224
f 182 224 196
f 182 196 193
f 182 199 183
f 182 186 221
f 183 199 190
f 186 216 225
f 186 225 221
f 191 193 196
f 192 198 193
f 194 226 201
f 194 201 195
f 194 196 226
f 195 201 197
f 196 224 227
f 196 227 226
f 197 201 200
f 201 226 228
f 201 228 202
f 202 228 229
f 202 229 203
f 203 229 230
f 203 230 204
f 204 230 231
f 204 231 205
f 205 231 207
f 207 231 232
f 207 232 208
f 208 232 209
f 209 232 231
f 209 231 233
f 209 233 234
f 209 234 210
f 210 234 229
f 210 229 235
f 210 235 236
f 210 236 211
f 211 236 213
f 211 213 212
f 213 236 214
f 214 236 215
f 215 236 216
f 216 236 237
f 216 237 238
f 216 238 221
f 216 221 225
f 221 239 222
f 221 238 239
f 222 239 223
f 223 239 224
f 224 238 227
f 224 239 238
f 226 227 240
f 226 240 228
f 227 238 237
f 227 237 240
f 228 240 229
f 229 234 241
f 229 241 230
f 229 240 235
f 230 241 233
f 230 233 231
f 233 241 234
f 235 240 236
f 236 240 237
