v -0.026251 -0.003821 0.010775
v -0.026251 -0.003344 0.008553
v -0.023314 -0.007545 0.001517
v -0.023326 -0.007562 0.001889
v -0.023613 -0.007843 0.010775
v -0.020562 -0.010709 0.011518
v -0.026251 -0.000566 0.010775
v -0.025557 -0.002714 0.000090
v -0.025557 -0.002906 0.000642
v -0.026251 -0.000079 0.008553
v -0.025557 -0.001379 -0.000566
v -0.025557 -0.001652 -0.000543
v -0.025557 -0.001996 -0.000452
v -0.025557 -0.002213 -0.000366
v -0.025557 -0.002483 -0.000196
v -0.025557 -0.002644 -0.000035
v -0.023293 -0.007506 0.001205
v -0.012841 -0.019600 0.001205
v -0.012625 -0.019902 0.001638
v -0.023240 -0.008389 0.010775
v -0.015451 -0.014730 0.011518
v -0.020562 -0.010102 0.011518
v -0.002962 -0.031792 0.010889
v -0.025844 -0.000328 0.010775
v -0.026029 -0.000282 0.010335
v -0.026251 -0.000486 0.010533
v -0.026251 -0.000163 0.009189
v -0.025881 0.000061 0.008553
v -0.025557 0.000411 0.004573
v -0.025557 0.000432 0.004012
v -0.025557 0.000478 0.002328
v -0.025557 0.000485 0.001753
v -0.025557 0.000485 0.001506
v -0.025557 0.000481 0.001206
v -0.025557 0.000450 0.000859
v -0.025557 0.000422 0.000642
v -0.025557 0.000362 0.000365
v -0.025557 0.000345 0.000299
v -0.025557 -0.000072 -0.000162
v -0.025557 -0.000163 -0.000258
v -0.025557 -0.000507 -0.000417
v -0.025557 -0.000815 -0.000511
v -0.025557 -0.001092 -0.000566
v -0.017420 -0.010642 -0.000640
v -0.016295 -0.012327 -0.000614
v -0.021912 -0.006711 -0.000399
v -0.022371 -0.006711 -0.000268
v -0.022652 -0.006711 -0.000166
v -0.022914 -0.007268 0.000225
v -0.022812 -0.007580 0.000325
v -0.023200 -0.007293 0.000626
v -0.023366 -0.007125 0.000804
v -0.022917 -0.007650 0.000642
v -0.012757 -0.019492 0.000642
v -0.002457 -0.031561 0.001202
v -0.002487 -0.031610 0.001764
v -0.011836 -0.014730 0.011518
v 0.001823 -0.035299 0.010889
v -0.016042 -0.010102 0.011518
v -0.025283 -0.000230 0.010775
v -0.002207 -0.031862 0.001764
v 0.001956 -0.035299 0.001202
v 0.001934 -0.035299 0.001764
v 0.001922 -0.035299 0.002326
v -0.025653 -0.000223 0.010605
v -0.026140 -0.000237 0.009959
v -0.026251 -0.000345 0.010056
v -0.026251 -0.000230 0.009536
v -0.025844 -0.000009 0.009066
v -0.025844 0.000071 0.008553
v -0.025557 0.000313 0.006004
v -0.025554 0.000313 0.006001
v -0.025326 0.000387 0.004573
v -0.025320 0.000397 0.004012
v -0.025308 0.000425 0.002328
v -0.025237 0.000411 0.001740
v -0.025234 0.000411 0.001210
v -0.025379 0.000394 0.000642
v -0.025496 0.000341 0.000303
v -0.025419 -0.000177 -0.000246
v -0.025252 -0.000486 -0.000354
v -0.025283 -0.001092 -0.000546
v -0.016295 -0.011763 -0.000636
v -0.007870 -0.021310 -0.000633
v -0.008253 -0.020928 -0.000634
v -0.008434 -0.020749 -0.000634
v -0.006185 -0.023559 -0.000629
v -0.006746 -0.022999 -0.000625
v 0.003367 -0.035299 -0.000575
v 0.003309 -0.035299 -0.000561
v 0.002803 -0.035299 -0.000417
v -0.012095 -0.018812 -0.000209
v -0.022248 -0.007023 -0.000218
v -0.002001 -0.031733 0.000333
v -0.012668 -0.019380 0.000336
v -0.002081 -0.031789 0.000641
v -0.002176 -0.031848 0.001202
v -0.012619 -0.013700 0.011518
v 0.005219 -0.035299 0.010889
v 0.005120 -0.034795 0.010889
v 0.004948 -0.034434 0.010889
v 0.004892 -0.034318 0.010889
v 0.004711 -0.034038 0.010889
v -0.023915 -0.000850 0.010775
v -0.024195 -0.000615 0.010775
v -0.024744 -0.000321 0.010775
v -0.025111 -0.000247 0.010775
v -0.024947 -0.000230 0.010605
v -0.025283 -0.000212 0.010673
v 0.002039 -0.035299 0.000622
v -0.026251 -0.000296 0.009854
v -0.025283 0.000061 0.008503
v -0.025557 0.000131 0.007940
v -0.025283 -0.000149 0.010188
v -0.025283 0.000117 0.007940
v -0.025283 0.000170 0.007379
v -0.025206 0.000278 0.005695
v -0.025098 0.000292 0.005137
v -0.025046 0.000296 0.004573
v -0.024997 0.000317 0.001537
v -0.024997 0.000317 0.001401
v -0.025009 0.000306 0.001025
v -0.025098 0.000268 0.000642
v -0.024858 -0.000121 0.000191
v -0.025271 0.000040 0.000059
v -0.025043 -0.000272 -0.000183
v -0.024722 -0.000682 -0.000272
v -0.024722 -0.001092 -0.000406
v -0.023598 -0.002777 -0.000498
v -0.017420 -0.010078 -0.000560
v -0.015734 -0.012327 -0.000628
v -0.005624 -0.024120 -0.000628
v -0.006746 -0.022434 -0.000587
v 0.003367 -0.034234 -0.000559
v 0.002803 -0.033673 -0.000568
v 0.003367 -0.034795 -0.000591
v 0.003869 -0.035299 -0.000558
v 0.002464 -0.035299 -0.000247
v -0.002090 -0.031424 0.000249
v -0.001702 -0.030892 -0.000134
v 0.002440 -0.035299 -0.000210
v 0.002252 -0.035299 0.000080
v 0.004221 -0.033379 0.003449
v 0.004218 -0.033383 0.002889
v 0.004214 -0.033386 0.002475
v -0.024426 -0.000237 0.004012
v -0.023896 -0.000839 0.007379
v -0.023653 -0.001144 0.010775
v 0.004430 -0.033701 0.010889
v 0.004202 -0.033400 0.009628
v 0.004214 -0.033386 0.007755
v 0.005228 -0.035299 0.007884
v 0.005130 -0.034795 0.007381
v 0.004911 -0.034294 0.006256
v 0.004905 -0.034290 0.007381
v 0.004899 -0.034308 0.009628
v 0.004720 -0.034024 0.009628
v 0.004439 -0.033680 0.009628
v -0.024174 -0.000528 0.007379
v -0.024433 -0.000244 0.007379
v -0.024439 -0.000247 0.007683
v -0.024192 -0.000615 0.010751
v -0.024611 -0.000321 0.010188
v -0.024895 -0.000209 0.010188
v -0.024722 -0.000065 0.007379
v -0.024799 0.000082 0.001210
v -0.023933 -0.000871 0.001765
v -0.024491 -0.000314 0.000642
v -0.024775 -0.000016 0.000642
v -0.024356 -0.000703 0.000079
v -0.024433 -0.000801 -0.000208
v 0.000033 -0.029701 -0.000389
v 0.001682 -0.031988 -0.000492
v 0.003928 -0.034795 -0.000531
v 0.003928 -0.035299 -0.000552
v 0.004732 -0.034010 0.007381
v 0.004735 -0.034006 0.002889
v 0.004461 -0.033673 0.002889
v 0.004406 -0.033617 0.002303
v 0.004202 -0.033400 0.001764
v 0.005216 -0.035299 0.001764
v 0.005139 -0.034795 0.002889
v 0.004908 -0.034287 0.002889
v -0.024476 -0.000289 0.001205
v 0.004181 -0.033425 0.001202
v 0.004107 -0.033509 0.000641
v 0.001965 -0.031140 0.000352
v 0.000341 -0.029560 -0.000102
v 0.000240 -0.029487 -0.000162
v 0.000273 -0.029560 -0.000187
v 0.000400 -0.029865 -0.000287
v 0.003940 -0.034231 -0.000367
v 0.004375 -0.034795 -0.000330
v 0.004402 -0.035299 -0.000371
v 0.004282 -0.034416 -0.000267
v 0.004732 -0.034010 0.002326
v 0.004433 -0.033680 0.001764
v 0.005185 -0.035299 0.001202
v 0.005117 -0.034795 0.001764
v 0.005133 -0.034795 0.002326
v 0.004905 -0.034294 0.002326
v 0.004406 -0.033708 0.001202
v 0.004338 -0.033789 0.000641
v 0.004267 -0.033884 0.000267
v 0.004137 -0.034041 -0.000107
v 0.003598 -0.033442 -0.000143
v 0.003762 -0.033817 -0.000283
v 0.001466 -0.031063 -0.000253
v 0.004701 -0.035299 -0.000179
v 0.004449 -0.035299 -0.000349
v 0.004396 -0.034231 0.000079
v 0.004766 -0.034521 0.000369
v 0.004677 -0.034746 0.000053
v 0.004732 -0.035299 -0.000142
v 0.004892 -0.034318 0.001764
v 0.004714 -0.034038 0.001764
v 0.005080 -0.035299 0.000636
v 0.005074 -0.034795 0.001202
v 0.004874 -0.034357 0.001202
v 0.004686 -0.034073 0.001202
v 0.004831 -0.034423 0.000744
v 0.004649 -0.034234 0.000590
v 0.004926 -0.034746 0.000590
v 0.004849 -0.034896 0.000222
v 0.004892 -0.035299 0.000131
v 0.005065 -0.035299 0.000588
f 1 2 3
f 1 3 4
f 1 4 5
f 1 5 6
f 1 6 22
f 1 22 7
f 1 7 26
f 1 26 67
f 1 67 111
f 1 111 68
f 1 68 27
f 1 27 10
f 1 10 2
f 2 8 9
f 2 9 3
f 2 10 43
f 2 43 11
f 2 11 12
f 2 12 13
f 2 13 14
f 2 14 15
f 2 15 16
f 2 16 8
f 3 9 17
f 3 17 18
f 3 18 19
f 3 19 4
f 4 20 5
f 4 19 20
f 5 20 6
f 6 21 57
f 6 57 98
f 6 98 59
f 6 59 22
f 6 20 23
f 6 23 21
f 7 24 25
f 7 25 26
f 7 22 24
f 8 16 17
f 8 17 9
f 10 27 28
f 10 28 29
f 10 29 30
f 10 30 31
f 10 31 32
f 10 32 33
f 10 33 34
f 10 34 35
f 10 35 36
f 10 36 37
f 10 37 38
f 10 38 39
f 10 39 40
f 10 40 41
f 10 41 42
f 10 42 43
f 11 44 12
f 11 43 44
f 12 44 45
f 12 45 46
f 12 46 47
f 12 47 13
f 13 47 48
f 13 48 14
f 14 48 49
f 14 49 15
f 15 49 50
f 15 50 51
f 15 51 16
f 16 51 52
f 16 52 17
f 17 52 51
f 17 51 53
f 17 53 54
f 17 54 18
f 18 54 55
f 18 55 56
f 18 56 19
f 19 56 20
f 20 56 23
f 21 23 58
f 21 58 99
f 21 99 57
f 22 59 60
f 22 60 24
f 23 56 61
f 23 61 62
f 23 62 63
f 23 63 64
f 23 64 58
f 24 60 65
f 24 65 25
f 25 65 66
f 25 66 26
f 26 66 67
f 27 68 66
f 27 66 28
f 28 66 69
f 28 69 70
f 28 70 29
f 29 70 71
f 29 71 72
f 29 72 73
f 29 73 30
f 30 73 31
f 31 73 74
f 31 74 75
f 31 75 32
f 32 75 76
f 32 76 77
f 32 77 33
f 33 77 34
f 34 77 78
f 34 78 35
f 35 78 36
f 36 78 79
f 36 79 37
f 37 79 38
f 38 79 39
f 39 79 80
f 39 80 40
f 40 80 41
f 41 80 81
f 41 81 82
f 41 82 42
f 42 82 43
f 43 82 83
f 43 83 44
f 44 83 84
f 44 84 85
f 44 85 86
f 44 86 87
f 44 87 88
f 44 88 89
f 44 89 45
f 45 89 90
f 45 90 46
f 46 90 91
f 46 91 47
f 47 92 93
f 47 93 48
f 47 91 92
f 48 93 92
f 48 92 94
f 48 94 49
f 49 94 95
f 49 95 50
f 50 95 54
f 50 54 53
f 50 53 51
f 54 95 94
f 54 94 96
f 54 96 55
f 55 96 97
f 55 97 56
f 56 97 61
f 57 99 100
f 57 100 101
f 57 101 102
f 57 102 103
f 57 103 98
f 58 64 63
f 58 63 62
f 58 62 110
f 58 110 142
f 58 142 141
f 58 141 138
f 58 138 91
f 58 91 90
f 58 90 89
f 58 89 137
f 58 137 175
f 58 175 194
f 58 194 210
f 58 210 209
f 58 209 214
f 58 214 225
f 58 225 226
f 58 226 217
f 58 217 198
f 58 198 181
f 58 181 152
f 58 152 99
f 59 98 104
f 59 104 105
f 59 105 106
f 59 106 107
f 59 107 60
f 60 107 108
f 60 108 109
f 60 109 65
f 61 97 62
f 62 97 110
f 65 109 70
f 65 70 69
f 65 69 66
f 66 111 67
f 66 68 111
f 70 112 113
f 70 113 71
f 70 109 114
f 70 114 112
f 71 113 115
f 71 115 116
f 71 116 72
f 72 116 73
f 73 116 117
f 73 117 118
f 73 118 119
f 73 119 74
f 74 119 75
f 75 119 76
f 76 120 77
f 76 119 120
f 77 121 122
f 77 122 78
f 77 120 121
f 78 122 123
f 78 123 79
f 79 123 124
f 79 124 125
f 79 125 80
f 80 126 81
f 80 125 126
f 81 127 128
f 81 128 82
f 81 126 127
f 82 128 129
f 82 129 130
f 82 130 131
f 82 131 83
f 83 131 84
f 84 132 85
f 84 131 130
f 84 130 128
f 84 128 133
f 84 133 134
f 84 134 135
f 84 135 136
f 84 136 132
f 85 132 87
f 85 87 86
f 87 132 136
f 87 136 89
f 87 89 88
f 89 136 137
f 91 138 94
f 91 94 139
f 91 139 140
f 91 140 92
f 92 140 139
f 92 139 94
f 94 138 141
f 94 141 142
f 94 142 96
f 96 142 110
f 96 110 97
f 98 143 144
f 98 144 145
f 98 145 146
f 98 146 147
f 98 147 148
f 98 148 104
f 98 103 149
f 98 149 150
f 98 150 151
f 98 151 143
f 99 152 100
f 100 152 153
f 100 153 154
f 100 154 155
f 100 155 156
f 100 156 101
f 101 156 102
f 102 156 157
f 102 157 103
f 103 157 158
f 103 158 149
f 104 148 159
f 104 159 160
f 104 160 161
f 104 161 162
f 104 162 105
f 105 162 163
f 105 163 106
f 106 163 164
f 106 164 108
f 106 108 107
f 108 164 116
f 108 116 115
f 108 115 112
f 108 112 114
f 108 114 109
f 112 115 113
f 116 118 117
f 116 164 118
f 118 164 163
f 118 163 165
f 118 165 161
f 118 161 119
f 119 161 160
f 119 160 120
f 120 160 146
f 120 146 121
f 121 166 122
f 121 146 167
f 121 167 166
f 122 166 168
f 122 168 169
f 122 169 123
f 123 169 124
f 124 169 168
f 124 168 170
f 124 170 171
f 124 171 126
f 124 126 125
f 126 171 127
f 127 171 128
f 128 171 133
f 128 130 129
f 133 171 172
f 133 172 173
f 133 173 134
f 134 173 174
f 134 174 136
f 134 136 135
f 136 174 175
f 136 175 137
f 143 151 176
f 143 176 177
f 143 177 178
f 143 178 144
f 144 178 145
f 145 178 179
f 145 179 180
f 145 180 167
f 145 167 146
f 146 160 159
f 146 159 147
f 147 159 148
f 149 158 150
f 150 158 151
f 151 158 176
f 152 181 182
f 152 182 153
f 153 182 154
f 154 183 177
f 154 177 176
f 154 176 155
f 154 182 183
f 155 176 156
f 156 176 157
f 157 176 158
f 161 163 162
f 161 165 163
f 166 167 184
f 166 184 168
f 167 168 184
f 167 180 168
f 168 180 185
f 168 185 186
f 168 186 187
f 168 187 170
f 170 187 171
f 171 187 188
f 171 188 189
f 171 189 190
f 171 190 191
f 171 191 172
f 172 191 192
f 172 192 173
f 173 192 174
f 174 193 194
f 174 194 175
f 174 192 195
f 174 195 193
f 177 183 196
f 177 196 178
f 178 196 179
f 179 196 180
f 180 196 197
f 180 197 185
f 181 198 199
f 181 199 200
f 181 200 182
f 182 200 183
f 183 200 201
f 183 201 196
f 185 197 202
f 185 202 203
f 185 203 186
f 186 203 204
f 186 204 187
f 187 204 188
f 188 204 189
f 189 204 205
f 189 205 206
f 189 206 207
f 189 207 190
f 190 207 208
f 190 208 191
f 191 208 207
f 191 207 192
f 192 207 195
f 193 209 210
f 193 210 194
f 193 195 209
f 195 207 206
f 195 206 205
f 195 205 211
f 195 211 212
f 195 212 213
f 195 213 214
f 195 214 209
f 196 201 215
f 196 215 216
f 196 216 197
f 197 216 202
f 198 217 218
f 198 218 199
f 199 218 219
f 199 219 215
f 199 215 201
f 199 201 200
f 202 216 220
f 202 220 203
f 203 220 221
f 203 221 222
f 203 222 204
f 204 222 212
f 204 212 211
f 204 211 205
f 212 223 224
f 212 224 213
f 212 222 221
f 212 221 223
f 213 224 214
f 214 224 225
f 215 219 216
f 216 219 220
f 217 226 224
f 217 224 223
f 217 223 218
f 218 223 221
f 218 221 219
f 219 221 220
f 224 226 225
