v 0.011682 -0.022089 -0.003504
v 0.015952 -0.022318 0.029946
v 0.017015 -0.022326 0.028533
v 0.016429 -0.022330 0.001155
v 0.013440 -0.022208 -0.003450
v 0.013235 -0.024678 -0.003504
v 0.011729 -0.031983 -0.003570
v 0.008603 -0.038818 -0.003594
v -0.031599 -0.060631 -0.003397
v -0.031599 -0.058913 -0.003350
v -0.031594 -0.022089 0.000652
v -0.031594 -0.022089 0.026464
v 0.016143 -0.028125 0.029990
v 0.016838 -0.022762 0.029543
v -0.031599 -0.063972 0.029936
v -0.007645 -0.060199 0.030453
v 0.017091 -0.023422 0.028520
v 0.016429 -0.023857 0.001155
v 0.015514 -0.022330 -0.001841
v 0.013731 -0.026425 -0.003400
v 0.014732 -0.022330 -0.003014
v 0.012749 -0.028561 -0.003534
v 0.011439 -0.034385 -0.003527
v 0.009751 -0.038712 -0.003534
v 0.005781 -0.046258 -0.003420
v 0.002950 -0.049084 -0.003450
v -0.007230 -0.056769 -0.003464
v -0.011496 -0.058478 -0.003484
v -0.031599 -0.063262 -0.001744
v -0.020470 -0.061045 -0.003430
v -0.026676 -0.061477 -0.003394
v -0.029893 -0.061904 -0.003310
v -0.031170 -0.062238 -0.003084
v -0.031599 -0.047984 -0.000857
v -0.031599 -0.047984 0.026744
v 0.013388 -0.038573 0.030053
v 0.015104 -0.033802 0.029840
v 0.015933 -0.031133 0.029736
v 0.016576 -0.028049 0.029256
v -0.031556 -0.064108 0.000882
v -0.031127 -0.064835 0.029177
v -0.029893 -0.064907 0.029470
v -0.024970 -0.064966 0.029840
v -0.021767 -0.064729 0.030060
v -0.031599 -0.063706 -0.000551
v -0.009208 -0.061350 0.030236
v -0.007645 -0.060876 0.030086
v -0.005648 -0.059962 0.029990
v -0.002474 -0.057700 0.030140
v 0.002602 -0.053356 0.030213
v 0.016348 -0.025139 0.001155
v 0.015008 -0.027952 -0.002061
v 0.014880 -0.026662 -0.002650
v 0.014884 -0.025139 -0.002830
v 0.014908 -0.023857 -0.002850
v 0.013731 -0.028988 -0.003200
v 0.012868 -0.031128 -0.003397
v 0.014470 -0.027702 -0.002927
v 0.012006 -0.035413 -0.003237
v 0.011162 -0.037118 -0.003320
v 0.009456 -0.040527 -0.003340
v 0.008631 -0.042692 -0.003154
v 0.007740 -0.043940 -0.003204
v 0.008989 -0.043471 -0.002650
v 0.005500 -0.048276 -0.002700
v 0.001749 -0.050780 -0.003350
v 0.000858 -0.051638 -0.003337
v -0.004256 -0.055064 -0.003440
v -0.005105 -0.055915 -0.003390
v -0.008079 -0.057623 -0.003394
v -0.009775 -0.058478 -0.003394
v -0.012349 -0.059336 -0.003417
v -0.013641 -0.059336 -0.003460
v -0.029893 -0.062665 -0.002957
v -0.028435 -0.063211 -0.002720
v -0.029893 -0.063321 -0.002114
v -0.017415 -0.061045 -0.003310
v -0.021762 -0.061904 -0.003270
v -0.023888 -0.061904 -0.003317
v 0.014150 -0.037507 0.029556
v 0.003560 -0.052814 0.030080
v 0.011105 -0.043356 0.029813
v 0.015814 -0.032486 0.029173
v 0.016209 -0.030693 0.028520
v -0.030317 -0.064163 0.000459
v -0.030317 -0.064323 0.001162
v -0.031170 -0.064239 0.002019
v -0.028825 -0.065123 0.028887
v -0.025184 -0.065296 0.028517
v -0.022196 -0.065080 0.029370
v -0.020837 -0.064949 0.029107
v -0.016667 -0.064103 0.029153
v -0.014918 -0.063393 0.029970
v -0.012354 -0.062627 0.030063
v -0.027319 -0.063858 -0.001404
v -0.010638 -0.062166 0.029846
v -0.006625 -0.060559 0.029720
v -0.009361 -0.061942 0.029373
v -0.008379 -0.061532 0.029373
v -0.004099 -0.059277 0.029493
v 0.000334 -0.055961 0.029970
v 0.015866 -0.028134 0.001132
v 0.014756 -0.030278 -0.001411
v 0.014012 -0.031983 -0.002420
v 0.014169 -0.030925 -0.002564
v 0.013107 -0.032626 -0.003130
v 0.012592 -0.035836 -0.002747
v 0.011887 -0.037118 -0.002927
v 0.011300 -0.038437 -0.002940
v 0.010581 -0.039816 -0.002994
v 0.009718 -0.041517 -0.002960
v 0.010009 -0.042485 -0.002087
v 0.008936 -0.044659 -0.001631
v 0.008207 -0.045704 -0.001671
v 0.006406 -0.047354 -0.002494
v 0.005700 -0.048771 -0.001987
v 0.002979 -0.051262 -0.002454
v 0.001268 -0.052531 -0.002774
v -0.001215 -0.054337 -0.002914
v -0.001244 -0.053356 -0.003320
v -0.002545 -0.054206 -0.003364
v -0.005953 -0.056769 -0.003297
v -0.003384 -0.055064 -0.003297
v -0.006806 -0.057623 -0.003124
v -0.008250 -0.058605 -0.002984
v -0.011072 -0.059336 -0.003274
v -0.014060 -0.060191 -0.003314
v -0.025184 -0.063143 -0.002747
v -0.026890 -0.063279 -0.002594
v -0.015771 -0.061045 -0.003144
v -0.018769 -0.062170 -0.002944
v -0.019937 -0.062369 -0.002930
v -0.021762 -0.062631 -0.002914
v 0.012435 -0.041373 0.028517
v 0.014165 -0.037536 0.028963
v 0.015132 -0.034876 0.028690
v 0.001706 -0.055098 0.029516
v 0.003336 -0.053643 0.029370
v 0.006105 -0.050403 0.029686
v 0.008126 -0.047760 0.029750
v 0.009051 -0.046981 0.028877
v 0.010757 -0.044397 0.028920
v 0.011448 -0.043268 0.028517
v 0.015499 -0.033687 0.028520
v 0.014903 -0.033434 0.005008
v 0.015042 -0.032478 0.001532
v 0.015461 -0.030701 0.001585
v -0.028606 -0.064518 0.001162
v -0.025399 -0.064611 0.001592
v -0.021762 -0.064328 0.001592
v -0.019179 -0.064040 0.004138
v -0.017048 -0.063532 0.001592
v -0.015795 -0.063270 0.002019
v -0.013278 -0.063232 0.029400
v -0.011930 -0.062873 0.029373
v -0.027534 -0.064476 0.000732
v -0.026037 -0.063964 -0.001181
v -0.012106 -0.062166 0.001592
v -0.011072 -0.061785 0.001592
v -0.009995 -0.061384 0.002019
v -0.008017 -0.060500 0.002019
v -0.005576 -0.059201 0.001509
v -0.003494 -0.057991 0.002019
v -0.002121 -0.058046 0.029270
v 0.000353 -0.056253 0.029373
v 0.014050 -0.033184 -0.001544
v 0.013521 -0.034681 -0.001717
v 0.013374 -0.033797 -0.002597
v 0.012368 -0.038268 -0.001391
v 0.011639 -0.039156 -0.002187
v 0.009913 -0.043585 -0.001051
v 0.010681 -0.041521 -0.001867
v 0.007364 -0.046990 -0.001504
v 0.004919 -0.049993 -0.001504
v 0.003975 -0.050873 -0.001717
v 0.006358 -0.048525 -0.001124
v 0.002245 -0.052121 -0.002350
v 0.000438 -0.053762 -0.002264
v -0.002288 -0.055314 -0.002834
v -0.004256 -0.055915 -0.003197
v -0.005071 -0.057171 -0.002810
v -0.006596 -0.058114 -0.002744
v -0.009475 -0.059463 -0.002780
v -0.011072 -0.059967 -0.002874
v -0.012382 -0.060339 -0.002934
v -0.014093 -0.061100 -0.002830
v -0.022401 -0.063270 -0.002307
v -0.024102 -0.063934 -0.001147
v -0.016195 -0.061692 -0.002857
v -0.017406 -0.062001 -0.002854
v -0.018769 -0.062779 -0.002267
v 0.010557 -0.043200 0.002012
v 0.011543 -0.041297 0.002012
v 0.013531 -0.037118 0.002872
v 0.014007 -0.035988 0.002872
v 0.014479 -0.034550 0.002442
v 0.002817 -0.054210 0.028517
v 0.005705 -0.051152 0.028743
v 0.006377 -0.049409 0.001155
v 0.007926 -0.047451 0.002012
v 0.008841 -0.046123 0.001799
v 0.009885 -0.044384 0.001605
v 0.014708 -0.033692 0.001585
v -0.026037 -0.064391 0.000302
v -0.024760 -0.064357 0.000302
v -0.023249 -0.064366 0.000732
v -0.021333 -0.064129 0.000502
v -0.020113 -0.064053 0.001026
v -0.018340 -0.063778 0.001379
v -0.016076 -0.063253 0.000822
v -0.014060 -0.062792 0.001805
v -0.013274 -0.062496 0.001029
v -0.010314 -0.061434 0.000919
v -0.008927 -0.060846 0.000996
v -0.007016 -0.059878 0.000832
v -0.003546 -0.057953 0.000926
v -0.002650 -0.057403 0.001162
v 0.001282 -0.054595 0.001155
v 0.013326 -0.035908 -0.001064
v 0.011705 -0.039956 -0.001264
v 0.014050 -0.035565 0.001365
v 0.013316 -0.037405 0.001265
v 0.010833 -0.042582 0.001042
v 0.008202 -0.046986 0.000919
v 0.007373 -0.048077 0.000839
v 0.004461 -0.051562 0.000876
v 0.003022 -0.052057 -0.001397
v 0.002045 -0.052814 -0.001621
v -0.000343 -0.054675 -0.001904
v -0.001516 -0.055614 -0.001811
v -0.003799 -0.057213 -0.001864
v -0.005619 -0.058008 -0.002214
v -0.007354 -0.058968 -0.002184
v -0.010795 -0.060715 -0.001964
v -0.013436 -0.061781 -0.001657
v -0.020056 -0.063054 -0.002114
v -0.022615 -0.063799 -0.001227
v -0.015833 -0.062458 -0.001584
v -0.018421 -0.063147 -0.001297
v 0.011505 -0.041208 0.000936
v 0.012497 -0.039173 0.001192
v 0.003322 -0.052780 0.001036
v 0.002188 -0.053795 0.000709
v 0.005529 -0.050420 0.001265
v -0.014427 -0.062344 -0.000984
v -0.012125 -0.061566 -0.001191
v -0.009103 -0.060546 -0.000548
v -0.004757 -0.058013 -0.001327
v -0.002474 -0.056388 -0.001684
v -0.000534 -0.055868 0.000722
v 0.002226 -0.052954 -0.001054
v 0.001253 -0.053719 -0.001191
v -0.008365 -0.059755 -0.001751
v -0.009899 -0.060652 -0.001291
f 1 2 3
f 1 3 4
f 1 4 5
f 1 5 6
f 1 6 7
f 1 7 8
f 1 8 9
f 1 9 10
f 1 10 11
f 1 11 12
f 1 12 2
f 2 13 14
f 2 14 3
f 2 12 15
f 2 15 16
f 2 16 13
f 3 14 17
f 3 17 4
f 4 17 18
f 4 18 19
f 4 19 5
f 5 20 6
f 5 19 21
f 5 21 20
f 6 20 22
f 6 22 7
f 7 23 24
f 7 24 8
f 7 22 23
f 8 24 25
f 8 25 26
f 8 26 27
f 8 27 28
f 8 28 9
f 9 29 45
f 9 45 15
f 9 15 35
f 9 35 34
f 9 34 10
f 9 28 30
f 9 30 31
f 9 31 32
f 9 32 33
f 9 33 29
f 10 34 11
f 11 34 35
f 11 35 12
f 12 35 15
f 13 36 37
f 13 37 38
f 13 38 39
f 13 39 14
f 13 16 36
f 14 39 17
f 15 40 41
f 15 41 42
f 15 42 43
f 15 43 44
f 15 44 16
f 15 45 40
f 16 44 46
f 16 46 47
f 16 47 48
f 16 48 49
f 16 49 50
f 16 50 36
f 17 39 51
f 17 51 18
f 18 51 19
f 19 51 52
f 19 52 53
f 19 53 54
f 19 54 55
f 19 55 21
f 20 56 57
f 20 57 22
f 20 21 54
f 20 54 58
f 20 58 56
f 21 55 54
f 22 57 23
f 23 57 59
f 23 59 60
f 23 60 24
f 24 60 61
f 24 61 25
f 25 61 62
f 25 62 63
f 25 63 64
f 25 64 65
f 25 65 66
f 25 66 26
f 26 66 67
f 26 67 68
f 26 68 27
f 27 68 69
f 27 69 70
f 27 70 71
f 27 71 28
f 28 71 72
f 28 72 73
f 28 73 30
f 29 33 74
f 29 74 75
f 29 75 76
f 29 76 45
f 30 77 78
f 30 78 79
f 30 79 31
f 30 73 72
f 30 72 77
f 31 79 32
f 32 75 74
f 32 74 33
f 32 79 75
f 36 80 37
f 36 50 81
f 36 81 82
f 36 82 80
f 37 83 38
f 37 80 83
f 38 83 39
f 39 83 84
f 39 84 51
f 40 85 86
f 40 86 87
f 40 87 41
f 40 45 85
f 41 88 42
f 41 87 88
f 42 88 43
f 43 88 89
f 43 89 90
f 43 90 44
f 44 90 91
f 44 91 92
f 44 92 93
f 44 93 94
f 44 94 46
f 45 76 95
f 45 95 85
f 46 94 96
f 46 96 47
f 47 97 48
f 47 96 98
f 47 98 99
f 47 99 97
f 48 97 100
f 48 100 101
f 48 101 49
f 49 101 50
f 50 101 81
f 51 84 102
f 51 102 52
f 52 103 104
f 52 104 105
f 52 105 53
f 52 102 103
f 53 105 58
f 53 58 54
f 56 106 57
f 56 58 106
f 57 106 59
f 58 105 106
f 59 106 107
f 59 107 108
f 59 108 60
f 60 109 110
f 60 110 61
f 60 108 109
f 61 110 111
f 61 111 62
f 62 111 64
f 62 64 63
f 64 111 110
f 64 110 112
f 64 112 113
f 64 113 114
f 64 114 115
f 64 115 65
f 65 116 117
f 65 117 118
f 65 118 66
f 65 115 116
f 66 118 67
f 67 119 120
f 67 120 121
f 67 121 68
f 67 118 119
f 68 121 69
f 69 122 70
f 69 121 123
f 69 123 122
f 70 122 124
f 70 124 71
f 71 125 126
f 71 126 72
f 71 124 125
f 72 127 77
f 72 126 127
f 75 95 76
f 75 79 128
f 75 128 129
f 75 129 95
f 77 130 131
f 77 131 78
f 77 127 130
f 78 131 132
f 78 132 133
f 78 133 128
f 78 128 79
f 80 134 135
f 80 135 136
f 80 136 83
f 80 82 134
f 81 101 137
f 81 137 138
f 81 138 139
f 81 139 140
f 81 140 82
f 82 140 141
f 82 141 142
f 82 142 143
f 82 143 134
f 83 136 144
f 83 144 145
f 83 145 146
f 83 146 147
f 83 147 84
f 84 147 102
f 85 95 148
f 85 148 86
f 86 148 88
f 86 88 87
f 88 148 89
f 89 149 150
f 89 150 90
f 89 148 149
f 90 150 91
f 91 150 151
f 91 151 92
f 92 151 152
f 92 152 153
f 92 153 154
f 92 154 93
f 93 154 155
f 93 155 94
f 94 155 96
f 95 156 148
f 95 129 157
f 95 157 156
f 96 155 98
f 97 99 100
f 98 155 158
f 98 158 159
f 98 159 160
f 98 160 99
f 99 160 161
f 99 161 162
f 99 162 100
f 100 162 163
f 100 163 164
f 100 164 101
f 101 165 137
f 101 164 165
f 102 147 103
f 103 147 146
f 103 146 166
f 103 166 104
f 104 166 167
f 104 167 168
f 104 168 105
f 105 168 106
f 106 168 107
f 107 169 170
f 107 170 108
f 107 168 167
f 107 167 169
f 108 170 109
f 109 170 110
f 110 170 112
f 112 171 113
f 112 170 172
f 112 172 171
f 113 171 114
f 114 173 116
f 114 116 115
f 114 171 173
f 116 174 175
f 116 175 117
f 116 173 176
f 116 176 174
f 117 175 177
f 117 177 118
f 118 178 179
f 118 179 119
f 118 177 178
f 119 179 123
f 119 123 120
f 120 123 121
f 122 123 180
f 122 180 181
f 122 181 124
f 123 179 180
f 124 181 182
f 124 182 125
f 125 183 126
f 125 182 183
f 126 183 184
f 126 184 185
f 126 185 186
f 126 186 130
f 126 130 127
f 128 133 187
f 128 187 188
f 128 188 129
f 129 188 157
f 130 189 190
f 130 190 131
f 130 186 189
f 131 191 132
f 131 190 191
f 132 191 187
f 132 187 133
f 134 143 192
f 134 192 193
f 134 193 194
f 134 194 135
f 135 194 195
f 135 195 136
f 136 195 196
f 136 196 145
f 136 145 144
f 137 165 197
f 137 197 138
f 138 197 198
f 138 198 139
f 139 141 140
f 139 198 141
f 141 198 199
f 141 199 200
f 141 200 201
f 141 201 142
f 142 201 143
f 143 201 202
f 143 202 192
f 145 196 203
f 145 203 146
f 146 203 166
f 148 156 149
f 149 156 204
f 149 204 205
f 149 205 206
f 149 206 150
f 150 207 208
f 150 208 151
f 150 206 207
f 151 209 152
f 151 208 209
f 152 210 153
f 152 209 210
f 153 210 211
f 153 211 155
f 153 155 154
f 155 211 158
f 156 157 204
f 157 188 204
f 158 211 212
f 158 212 213
f 158 213 159
f 159 213 160
f 160 213 214
f 160 214 161
f 161 215 162
f 161 214 215
f 162 215 216
f 162 216 163
f 163 216 217
f 163 217 164
f 164 217 218
f 164 218 165
f 165 218 197
f 166 219 167
f 166 203 219
f 167 219 169
f 169 220 170
f 169 219 221
f 169 221 222
f 169 222 220
f 170 220 172
f 171 172 220
f 171 220 223
f 171 223 202
f 171 202 224
f 171 224 173
f 173 224 225
f 173 225 176
f 174 226 227
f 174 227 175
f 174 176 226
f 175 227 177
f 176 225 199
f 176 199 226
f 177 227 228
f 177 228 178
f 178 228 229
f 178 229 179
f 179 230 231
f 179 231 181
f 179 181 180
f 179 229 230
f 181 232 182
f 181 231 232
f 182 232 233
f 182 233 183
f 183 234 184
f 183 233 234
f 184 234 186
f 184 186 185
f 186 234 235
f 186 235 189
f 187 191 236
f 187 236 237
f 187 237 188
f 188 237 206
f 188 206 205
f 188 205 204
f 189 191 190
f 189 235 191
f 191 235 238
f 191 238 239
f 191 239 236
f 192 202 223
f 192 223 193
f 193 240 241
f 193 241 194
f 193 223 240
f 194 241 222
f 194 222 195
f 195 222 221
f 195 221 196
f 196 221 203
f 197 242 198
f 197 218 243
f 197 243 242
f 198 242 226
f 198 226 244
f 198 244 199
f 199 225 200
f 199 244 226
f 200 225 224
f 200 224 201
f 201 224 202
f 203 221 219
f 206 237 207
f 207 237 239
f 207 239 208
f 208 239 210
f 208 210 209
f 210 239 245
f 210 245 212
f 210 212 211
f 212 245 246
f 212 246 213
f 213 247 214
f 213 246 247
f 214 247 215
f 215 248 216
f 215 247 248
f 216 248 231
f 216 231 249
f 216 249 250
f 216 250 217
f 217 250 218
f 218 250 243
f 220 240 223
f 220 222 241
f 220 241 240
f 226 242 243
f 226 243 227
f 227 243 251
f 227 251 228
f 228 251 252
f 228 252 229
f 229 252 243
f 229 243 230
f 230 249 231
f 230 243 250
f 230 250 249
f 231 248 253
f 231 253 233
f 231 233 232
f 233 253 234
f 234 253 254
f 234 254 246
f 234 246 235
f 235 246 245
f 235 245 238
f 236 239 237
f 238 245 239
f 243 252 251
f 246 254 247
f 247 253 248
f 247 254 253
