v -0.053853 0.004818 -0.003459
v -0.053853 0.004985 -0.003453
v -0.053000 0.004985 -0.003456
v -0.059541 -0.002884 -0.003444
v -0.059541 -0.002028 -0.003435
v -0.055565 0.003106 -0.003444
v -0.055565 0.003962 -0.003413
v -0.054709 0.004818 -0.003419
v -0.054709 0.004985 -0.003398
v -0.052745 0.004985 -0.003450
v -0.052745 0.004818 -0.003450
v -0.059541 -0.003186 -0.003441
v -0.059541 -0.001172 -0.003401
v -0.056421 0.002251 -0.003435
v -0.055565 0.004818 -0.003287
v -0.057273 0.002251 -0.003379
v -0.055568 0.004985 -0.003225
v -0.052745 0.004985 0.026853
v -0.026547 0.004979 -0.001047
v -0.052138 0.004979 -0.003432
v -0.052302 0.004979 -0.003438
v -0.053000 0.003962 -0.003438
v -0.052138 0.004815 -0.003432
v -0.059541 -0.003742 -0.003426
v -0.058985 -0.003742 -0.003410
v -0.059541 -0.000319 -0.003305
v -0.056421 0.003962 -0.003256
v -0.056430 0.004826 -0.002960
v -0.058985 0.000537 -0.003296
v -0.056359 0.004985 -0.002920
v -0.052742 0.004979 0.028050
v -0.026547 0.004979 0.026807
v -0.058598 0.004985 0.026853
v -0.026547 0.001337 -0.000872
v -0.026547 -0.022078 0.000572
v -0.059541 -0.007162 -0.003284
v -0.059541 -0.006304 -0.003321
v -0.059541 0.000555 -0.003086
v -0.058129 0.002251 -0.003166
v -0.057005 0.004550 -0.002806
v -0.057286 0.003957 -0.002914
v -0.056589 0.004985 -0.002762
v -0.059541 -0.022081 0.026853
v -0.053788 -0.022081 0.026853
v -0.026547 -0.022078 0.026493
v -0.026547 0.001392 0.026770
v -0.059541 0.003806 0.026853
v -0.058636 0.004985 0.025956
v -0.059269 0.004214 0.025956
v -0.059541 0.003877 0.025956
v -0.052745 -0.022081 -0.000665
v -0.055190 -0.022081 -0.001378
v -0.055565 -0.022081 -0.001482
v -0.059541 -0.007997 -0.003179
v -0.056421 -0.022081 -0.001492
v -0.059541 0.001247 -0.002855
v -0.058116 0.003061 -0.002883
v -0.056989 0.004985 -0.002451
v -0.057822 0.003673 -0.002778
v -0.057577 0.004243 -0.002568
v -0.059541 -0.022081 -0.000585
v -0.052745 -0.022081 0.026764
v -0.058669 0.004985 0.025098
v -0.059286 0.004232 0.025098
v -0.059541 0.003914 0.025098
v -0.059541 0.001689 -0.002577
v -0.059382 0.001782 -0.002673
v -0.058607 0.002746 -0.002741
v -0.057215 0.004985 -0.002220
v -0.058391 0.003316 -0.002519
v -0.058110 0.003930 -0.002260
v -0.057826 0.004529 -0.001997
v -0.058759 0.004985 0.008847
v -0.059295 0.004238 0.023390
v -0.059541 0.003991 0.011123
v -0.059324 0.004275 0.010559
v -0.059541 0.002375 -0.001997
v -0.059428 0.002696 -0.001865
v -0.057454 0.004985 -0.001933
v -0.058633 0.003623 -0.001948
v -0.057758 0.004985 -0.001556
v -0.058397 0.004198 -0.001637
v -0.058762 0.004985 0.007993
v -0.058901 0.004810 0.008847
v -0.059541 0.003991 0.007993
v -0.059331 0.004275 0.007993
v -0.059541 0.002860 -0.001476
v -0.059541 0.002908 -0.001421
v -0.059240 0.003310 -0.001421
v -0.058607 0.004442 -0.001063
v -0.057961 0.004985 -0.001260
v -0.058688 0.004985 0.001149
v -0.059541 0.003989 0.007135
v -0.059541 0.003350 -0.000770
v -0.059395 0.003506 -0.000918
v -0.058678 0.004534 -0.000563
v -0.058562 0.004985 0.000294
v -0.058317 0.004985 -0.000461
v -0.058281 0.004985 -0.000563
v -0.058788 0.004693 0.000294
v -0.059218 0.004129 0.000294
v -0.059538 0.003702 0.000294
v -0.059541 0.003827 0.001149
v -0.059541 0.003461 -0.000431
v -0.059541 0.003689 0.000270
v -0.059541 0.003695 0.000294
v -0.059541 0.003708 0.000368
f 1 2 3
f 1 3 4
f 1 4 5
f 1 5 6
f 1 6 7
f 1 7 2
f 2 7 8
f 2 8 9
f 2 9 17
f 2 17 30
f 2 30 42
f 2 42 58
f 2 58 69
f 2 69 79
f 2 79 81
f 2 81 91
f 2 91 99
f 2 99 98
f 2 98 97
f 2 97 92
f 2 92 83
f 2 83 73
f 2 73 63
f 2 63 48
f 2 48 33
f 2 33 18
f 2 18 10
f 2 10 3
f 3 10 11
f 3 11 12
f 3 12 4
f 4 12 24
f 4 24 37
f 4 37 36
f 4 36 54
f 4 54 61
f 4 61 43
f 4 43 47
f 4 47 50
f 4 50 65
f 4 65 75
f 4 75 85
f 4 85 93
f 4 93 103
f 4 103 107
f 4 107 106
f 4 106 105
f 4 105 104
f 4 104 94
f 4 94 88
f 4 88 87
f 4 87 77
f 4 77 66
f 4 66 56
f 4 56 38
f 4 38 26
f 4 26 13
f 4 13 5
f 5 13 14
f 5 14 6
f 6 14 7
f 7 15 9
f 7 9 8
f 7 14 13
f 7 13 16
f 7 16 15
f 9 15 17
f 10 18 32
f 10 32 19
f 10 19 20
f 10 20 21
f 10 21 11
f 11 22 12
f 11 21 23
f 11 23 22
f 12 22 25
f 12 25 24
f 13 26 16
f 15 16 27
f 15 27 28
f 15 28 17
f 16 26 29
f 16 29 27
f 17 28 30
f 18 31 32
f 18 33 31
f 19 32 46
f 19 46 45
f 19 45 35
f 19 35 34
f 19 34 23
f 19 23 20
f 20 23 21
f 22 23 25
f 23 34 35
f 23 35 36
f 23 36 25
f 24 25 37
f 25 36 37
f 26 38 29
f 27 29 39
f 27 39 28
f 28 40 30
f 28 39 41
f 28 41 40
f 29 38 39
f 30 40 42
f 31 43 44
f 31 44 45
f 31 45 46
f 31 46 32
f 31 33 47
f 31 47 43
f 33 48 49
f 33 49 50
f 33 50 47
f 35 45 62
f 35 62 51
f 35 51 52
f 35 52 53
f 35 53 36
f 36 53 55
f 36 55 54
f 38 56 39
f 39 57 41
f 39 56 57
f 40 58 42
f 40 41 59
f 40 59 60
f 40 60 58
f 41 57 59
f 43 61 55
f 43 55 53
f 43 53 52
f 43 52 51
f 43 51 62
f 43 62 44
f 44 62 45
f 48 63 49
f 49 63 64
f 49 64 50
f 50 64 65
f 54 55 61
f 56 66 67
f 56 67 68
f 56 68 57
f 57 68 59
f 58 60 69
f 59 68 70
f 59 70 60
f 60 70 71
f 60 71 72
f 60 72 69
f 63 73 74
f 63 74 64
f 64 74 65
f 65 74 76
f 65 76 75
f 66 77 78
f 66 78 70
f 66 70 68
f 66 68 67
f 69 72 79
f 70 78 80
f 70 80 71
f 71 80 72
f 72 81 79
f 72 80 82
f 72 82 81
f 73 83 84
f 73 84 74
f 74 84 76
f 75 76 86
f 75 86 85
f 76 84 86
f 77 87 78
f 78 87 88
f 78 88 89
f 78 89 90
f 78 90 82
f 78 82 80
f 81 82 90
f 81 90 91
f 83 92 86
f 83 86 84
f 85 86 93
f 86 92 93
f 88 94 95
f 88 95 89
f 89 95 90
f 90 96 97
f 90 97 98
f 90 98 99
f 90 99 91
f 90 95 96
f 92 100 101
f 92 101 102
f 92 102 103
f 92 103 93
f 92 97 100
f 94 104 95
f 95 101 100
f 95 100 97
f 95 97 96
f 95 104 102
f 95 102 101
f 102 104 105
f 102 105 106
f 102 106 107
f 102 107 103
