v -0.026544 0.020186 0.030404
v -0.026544 0.019362 0.030227
v -0.026544 0.020767 0.030056
v -0.031189 0.019791 0.030662
v -0.058037 0.004986 0.030146
v -0.026553 0.004987 0.026809
v -0.026544 0.014908 0.027576
v -0.026544 0.020953 0.029376
v -0.028191 0.020766 0.029972
v -0.053385 0.010375 0.030675
v -0.029903 0.020708 0.029919
v -0.031531 0.020205 0.030237
v -0.032472 0.020133 0.030183
v -0.037605 0.019167 0.030150
v -0.037605 0.018507 0.030531
v -0.058830 0.005250 0.029979
v -0.059478 0.005064 0.029062
v -0.059034 0.004986 0.027807
v -0.057396 0.004986 0.029969
v -0.052070 0.004986 0.027880
v -0.051370 0.004986 0.027576
v -0.026553 0.004987 -0.001049
v -0.026544 0.020574 0.027793
v -0.026550 0.009586 -0.001183
v -0.026550 0.014231 -0.003221
v -0.026550 0.015083 -0.003395
v -0.026550 0.015971 -0.003462
v -0.026550 0.016827 -0.003479
v -0.029049 0.020796 0.029664
v -0.026544 0.020860 0.028523
v -0.026550 0.020170 0.001151
v -0.028194 0.020109 0.001151
v -0.028191 0.020882 0.029376
v -0.041025 0.017651 0.030304
v -0.041863 0.017687 0.030106
v -0.044436 0.016597 0.029999
v -0.050426 0.013174 0.029999
v -0.053782 0.010545 0.030153
v -0.058534 0.006080 0.029758
v -0.030899 0.020689 0.029674
v -0.035035 0.019866 0.029909
v -0.035641 0.019830 0.029604
v -0.038272 0.019036 0.029996
v -0.041296 0.018162 0.029922
v -0.058621 0.006185 0.028961
v -0.058602 0.005098 0.001151
v -0.058505 0.005058 0.000297
v -0.058282 0.004987 -0.000547
v -0.055561 0.004987 -0.003225
v -0.054704 0.004987 -0.003395
v -0.053846 0.004987 -0.003452
v -0.052992 0.004987 -0.003452
v -0.052135 0.004987 -0.003435
v -0.026550 0.017652 -0.003392
v -0.026550 0.018461 -0.003000
v -0.026550 0.019048 -0.002435
v -0.026550 0.019697 -0.001156
v -0.029903 0.016793 -0.003522
v -0.026550 0.020039 0.000297
v -0.028194 0.019964 0.000297
v -0.029032 0.019888 0.000257
v -0.029052 0.020033 0.001151
v -0.031354 0.020689 0.028824
v -0.042734 0.017416 0.030009
v -0.045107 0.016493 0.029638
v -0.050055 0.013720 0.029397
v -0.050984 0.013048 0.029628
v -0.054288 0.010391 0.029594
v -0.035035 0.019999 0.029376
v -0.036747 0.019603 0.029376
v -0.037605 0.019372 0.029376
v -0.041025 0.018312 0.029376
v -0.041805 0.018042 0.029376
v -0.042734 0.017634 0.029376
v -0.055181 0.009578 0.028817
v -0.054826 0.009218 0.001151
v -0.056516 0.007480 0.001151
v -0.056919 0.007044 0.000873
v -0.057728 0.006138 0.000659
v -0.056071 0.007901 0.000588
v -0.057860 0.005153 -0.001173
v -0.057554 0.005017 -0.001768
v -0.056326 0.005219 -0.002803
v -0.055578 0.005694 -0.002970
v -0.054704 0.005677 -0.003315
v -0.053846 0.005677 -0.003435
v -0.052992 0.006532 -0.003452
v -0.051283 0.007388 -0.003462
v -0.052992 0.005677 -0.003456
v -0.029052 0.017652 -0.003409
v -0.029052 0.018464 -0.002984
v -0.029052 0.019009 -0.002431
v -0.028194 0.019175 -0.002217
v -0.028194 0.019734 -0.000670
v -0.028194 0.019548 -0.001417
v -0.037605 0.015083 -0.003496
v -0.033327 0.016793 -0.003496
v -0.029032 0.019717 -0.000516
v -0.031618 0.019636 0.000297
v -0.031060 0.019781 0.000849
v -0.032469 0.019684 0.001151
v -0.033327 0.019581 0.001151
v -0.034187 0.019436 0.001151
v -0.044436 0.016108 0.001151
v -0.045471 0.015600 0.001151
v -0.046151 0.015245 0.001151
v -0.047121 0.014719 0.001151
v -0.047860 0.014309 0.001151
v -0.048708 0.013790 0.001151
v -0.050203 0.012779 0.001151
v -0.052492 0.011186 0.001151
v -0.054291 0.010391 0.028881
v -0.053472 0.010424 0.000662
v -0.035674 0.019850 0.028754
v -0.036808 0.018840 0.002008
v -0.037605 0.018628 0.002008
v -0.038459 0.018353 0.001151
v -0.040174 0.017799 0.001151
v -0.041025 0.017509 0.001151
v -0.042734 0.016843 0.001151
v -0.043736 0.016430 0.001151
v -0.054388 0.009630 0.000866
v -0.055236 0.008779 0.000863
v -0.056081 0.007051 -0.001142
v -0.056919 0.006186 -0.001122
v -0.056416 0.006530 -0.001417
v -0.056745 0.005997 -0.001695
v -0.057048 0.005208 -0.002173
v -0.055046 0.006888 -0.002635
v -0.055307 0.006319 -0.002826
v -0.054739 0.006575 -0.002977
v -0.053846 0.006532 -0.003315
v -0.052135 0.007388 -0.003435
v -0.048717 0.009956 -0.003429
v -0.042734 0.013375 -0.003469
v -0.029903 0.017652 -0.003399
v -0.029903 0.018431 -0.002980
v -0.029903 0.018961 -0.002351
v -0.029052 0.019478 -0.001417
v -0.032469 0.018221 -0.002836
v -0.041025 0.014231 -0.003472
v -0.036750 0.015939 -0.003472
v -0.037605 0.015939 -0.003435
v -0.034187 0.016793 -0.003452
v -0.030760 0.019512 -0.000563
v -0.032469 0.019539 0.000297
v -0.033327 0.019436 0.000297
v -0.034187 0.019286 0.000297
v -0.035696 0.018989 0.000568
v -0.035038 0.019239 0.001151
v -0.043530 0.016372 0.000341
v -0.044436 0.015936 0.000297
v -0.046802 0.014780 0.000448
v -0.045500 0.015402 0.000297
v -0.048414 0.013887 0.000551
v -0.050997 0.012193 0.000863
v -0.053904 0.010070 0.001151
v -0.050042 0.012124 -0.001059
v -0.050855 0.011238 -0.001842
v -0.051799 0.010460 -0.001929
v -0.052386 0.010239 -0.001417
v -0.052715 0.009656 -0.001996
v -0.053279 0.009389 -0.001571
v -0.036396 0.018904 0.001094
v -0.037605 0.018596 0.001151
v -0.039068 0.018135 0.000896
v -0.041696 0.017234 0.000883
v -0.055900 0.006872 -0.001711
v -0.056177 0.006302 -0.002033
v -0.052712 0.008815 -0.002809
v -0.055329 0.007127 -0.002066
v -0.052135 0.008242 -0.003271
v -0.049568 0.009956 -0.003365
v -0.047860 0.010811 -0.003412
v -0.041879 0.014231 -0.003439
v -0.033327 0.017652 -0.003174
v -0.033591 0.018123 -0.002749
v -0.033327 0.018464 -0.002274
v -0.031666 0.018942 -0.001862
v -0.032469 0.018968 -0.001507
v -0.033327 0.018906 -0.001347
v -0.033327 0.019175 -0.000563
v -0.031618 0.019411 -0.000563
v -0.041025 0.015083 -0.003295
v -0.038459 0.015939 -0.003315
v -0.036750 0.016793 -0.003158
v -0.035893 0.016793 -0.003261
v -0.033991 0.018858 -0.001196
v -0.035038 0.018576 -0.001417
v -0.035893 0.018403 -0.001417
v -0.037408 0.018156 -0.001166
v -0.036750 0.018475 -0.000563
v -0.036750 0.018667 0.000297
v -0.040525 0.017196 -0.000865
v -0.041025 0.016821 -0.001417
v -0.042531 0.016264 -0.001219
v -0.043695 0.015444 -0.001912
v -0.045777 0.014564 -0.001464
v -0.047466 0.013820 -0.001032
v -0.048366 0.012999 -0.001634
v -0.049059 0.012888 -0.000814
v -0.048991 0.011993 -0.002562
v -0.049759 0.011194 -0.002813
v -0.052083 0.009551 -0.002639
v -0.037605 0.018440 0.000297
v -0.037979 0.018060 -0.000861
v -0.050426 0.010621 -0.002860
v -0.051225 0.009923 -0.002880
v -0.052118 0.009100 -0.002913
v -0.050426 0.009956 -0.003184
v -0.048717 0.010811 -0.003318
v -0.047002 0.011666 -0.003368
v -0.042734 0.014231 -0.003332
v -0.034162 0.017707 -0.003000
v -0.034429 0.018032 -0.002645
v -0.034162 0.018289 -0.002324
v -0.035038 0.018248 -0.002117
v -0.041879 0.015083 -0.003134
v -0.039313 0.015939 -0.003158
v -0.038459 0.016630 -0.002930
v -0.037560 0.016840 -0.002970
v -0.035038 0.017526 -0.002967
v -0.036828 0.018121 -0.001588
v -0.039362 0.017238 -0.001855
v -0.040084 0.017202 -0.001327
v -0.041767 0.016399 -0.001708
v -0.042673 0.015694 -0.002267
v -0.042914 0.015388 -0.002545
v -0.044500 0.014697 -0.002398
v -0.045010 0.014739 -0.001969
v -0.047628 0.012860 -0.002578
v -0.048140 0.012274 -0.002830
v -0.048711 0.011691 -0.002960
v -0.047860 0.011666 -0.003225
v -0.046151 0.012521 -0.003261
v -0.043582 0.014231 -0.003134
v -0.035893 0.017413 -0.002880
v -0.036999 0.017273 -0.002749
v -0.035038 0.017954 -0.002545
v -0.036015 0.017982 -0.002153
v -0.042673 0.015094 -0.002913
v -0.041025 0.015774 -0.002913
v -0.039591 0.016449 -0.002776
v -0.036702 0.017770 -0.002204
v -0.038459 0.017218 -0.002291
v -0.040435 0.016311 -0.002635
v -0.041025 0.016357 -0.002274
v -0.042112 0.015571 -0.002753
v -0.043820 0.014737 -0.002769
v -0.045519 0.013870 -0.002753
v -0.047067 0.012598 -0.002997
v -0.045294 0.013375 -0.003097
v -0.037688 0.017309 -0.002468
f 1 2 7
f 1 7 23
f 1 23 30
f 1 30 8
f 1 8 3
f 1 3 4
f 1 4 5
f 1 5 2
f 2 5 6
f 2 6 7
f 3 8 9
f 3 9 4
f 4 10 5
f 4 9 11
f 4 11 12
f 4 12 13
f 4 13 14
f 4 14 15
f 4 15 10
f 5 10 16
f 5 16 17
f 5 17 18
f 5 18 21
f 5 21 20
f 5 20 19
f 5 19 6
f 6 19 20
f 6 20 21
f 6 21 22
f 6 22 7
f 7 22 24
f 7 24 25
f 7 25 26
f 7 26 27
f 7 27 28
f 7 28 23
f 8 29 9
f 8 30 31
f 8 31 32
f 8 32 33
f 8 33 29
f 9 29 11
f 10 15 34
f 10 34 35
f 10 35 36
f 10 36 37
f 10 37 38
f 10 38 39
f 10 39 16
f 11 29 40
f 11 40 13
f 11 13 12
f 13 40 41
f 13 41 14
f 14 35 15
f 14 41 42
f 14 42 43
f 14 43 44
f 14 44 35
f 15 35 34
f 16 39 17
f 17 39 45
f 17 45 46
f 17 46 47
f 17 47 48
f 17 48 18
f 18 48 49
f 18 49 50
f 18 50 51
f 18 51 21
f 21 51 52
f 21 52 53
f 21 53 22
f 22 53 25
f 22 25 24
f 23 28 54
f 23 54 55
f 23 55 56
f 23 56 57
f 23 57 30
f 25 53 26
f 26 53 27
f 27 52 58
f 27 58 28
f 27 53 52
f 28 58 54
f 29 33 40
f 30 57 59
f 30 59 31
f 31 59 32
f 32 59 60
f 32 60 61
f 32 61 62
f 32 62 63
f 32 63 33
f 33 63 40
f 35 44 64
f 35 64 36
f 36 64 65
f 36 65 37
f 37 65 66
f 37 66 67
f 37 67 38
f 38 67 68
f 38 68 39
f 39 68 45
f 40 42 41
f 40 63 69
f 40 69 42
f 42 69 70
f 42 70 43
f 43 70 71
f 43 71 44
f 44 65 64
f 44 71 72
f 44 72 73
f 44 73 74
f 44 74 65
f 45 68 75
f 45 75 76
f 45 76 77
f 45 77 78
f 45 78 79
f 45 79 46
f 46 79 47
f 47 79 48
f 48 79 80
f 48 80 81
f 48 81 82
f 48 82 49
f 49 82 83
f 49 83 84
f 49 84 85
f 49 85 50
f 50 85 86
f 50 86 51
f 51 86 87
f 51 87 88
f 51 88 89
f 51 89 58
f 51 58 52
f 54 58 90
f 54 90 55
f 55 90 91
f 55 91 56
f 56 91 92
f 56 92 93
f 56 93 57
f 57 94 60
f 57 60 59
f 57 93 95
f 57 95 94
f 58 88 96
f 58 96 97
f 58 97 90
f 58 89 88
f 60 94 98
f 60 98 61
f 61 98 99
f 61 99 62
f 62 99 100
f 62 100 101
f 62 101 63
f 63 101 102
f 63 102 103
f 63 103 69
f 65 74 104
f 65 104 105
f 65 105 106
f 65 106 107
f 65 107 108
f 65 108 66
f 66 108 109
f 66 109 110
f 66 110 111
f 66 111 67
f 67 112 68
f 67 111 113
f 67 113 112
f 68 112 75
f 69 103 114
f 69 114 70
f 70 114 115
f 70 115 116
f 70 116 71
f 71 116 117
f 71 117 72
f 72 117 118
f 72 118 119
f 72 119 73
f 73 119 120
f 73 120 121
f 73 121 74
f 74 121 104
f 75 112 122
f 75 122 76
f 76 122 123
f 76 123 77
f 77 123 80
f 77 80 78
f 78 80 79
f 80 123 122
f 80 122 113
f 80 113 124
f 80 124 125
f 80 125 81
f 81 125 126
f 81 126 127
f 81 127 82
f 82 127 128
f 82 128 83
f 83 128 129
f 83 129 130
f 83 130 84
f 84 131 85
f 84 130 131
f 85 131 132
f 85 132 87
f 85 87 86
f 87 133 134
f 87 134 135
f 87 135 88
f 87 132 133
f 88 135 96
f 90 136 91
f 90 97 136
f 91 136 137
f 91 137 92
f 92 138 139
f 92 139 95
f 92 95 93
f 92 137 140
f 92 140 138
f 94 95 98
f 95 139 98
f 96 141 97
f 96 135 141
f 97 141 142
f 97 142 143
f 97 143 144
f 97 144 136
f 98 145 99
f 98 139 145
f 99 145 146
f 99 146 101
f 99 101 100
f 101 146 147
f 101 147 102
f 102 147 103
f 103 147 148
f 103 148 149
f 103 149 150
f 103 150 114
f 104 121 151
f 104 151 152
f 104 152 105
f 105 153 106
f 105 152 154
f 105 154 153
f 106 153 107
f 107 153 108
f 108 153 155
f 108 155 109
f 109 155 110
f 110 155 156
f 110 156 111
f 111 156 113
f 112 113 157
f 112 157 122
f 113 122 157
f 113 156 155
f 113 155 158
f 113 158 159
f 113 159 160
f 113 160 161
f 113 161 162
f 113 162 163
f 113 163 124
f 114 150 115
f 115 150 164
f 115 164 165
f 115 165 116
f 116 165 117
f 117 165 166
f 117 166 118
f 118 166 119
f 119 166 167
f 119 167 120
f 120 167 121
f 121 167 151
f 124 163 162
f 124 162 168
f 124 168 126
f 124 126 125
f 126 168 127
f 127 168 169
f 127 169 128
f 128 169 129
f 129 170 130
f 129 169 171
f 129 171 162
f 129 162 170
f 130 170 131
f 131 172 132
f 131 170 172
f 132 172 133
f 133 173 174
f 133 174 134
f 133 172 173
f 134 174 135
f 135 174 175
f 135 175 141
f 136 144 176
f 136 176 137
f 137 176 140
f 138 140 177
f 138 177 178
f 138 178 179
f 138 179 139
f 139 179 180
f 139 180 181
f 139 181 182
f 139 182 183
f 139 183 145
f 140 176 177
f 141 175 142
f 142 175 143
f 143 175 184
f 143 184 185
f 143 185 186
f 143 186 187
f 143 187 144
f 144 187 176
f 145 183 146
f 146 183 147
f 147 183 182
f 147 182 148
f 148 182 188
f 148 188 189
f 148 189 190
f 148 190 191
f 148 191 192
f 148 192 149
f 149 164 150
f 149 192 193
f 149 193 164
f 151 167 194
f 151 194 195
f 151 195 196
f 151 196 152
f 152 196 197
f 152 197 154
f 153 154 198
f 153 198 199
f 153 199 155
f 154 197 198
f 155 199 200
f 155 200 201
f 155 201 158
f 158 201 200
f 158 200 159
f 159 200 202
f 159 202 160
f 160 162 161
f 160 202 203
f 160 203 204
f 160 204 162
f 162 171 168
f 162 204 170
f 164 193 165
f 165 193 205
f 165 205 166
f 166 205 206
f 166 206 194
f 166 194 167
f 168 171 169
f 170 207 208
f 170 208 209
f 170 209 172
f 170 204 207
f 172 209 210
f 172 210 173
f 173 211 212
f 173 212 174
f 173 210 211
f 174 212 175
f 175 212 213
f 175 213 184
f 176 187 186
f 176 186 214
f 176 214 177
f 177 215 216
f 177 216 178
f 177 214 215
f 178 216 217
f 178 217 181
f 178 181 179
f 179 181 180
f 181 217 189
f 181 189 188
f 181 188 182
f 184 218 219
f 184 219 185
f 184 213 218
f 185 219 186
f 186 219 220
f 186 220 221
f 186 221 222
f 186 222 214
f 189 217 190
f 190 217 223
f 190 223 191
f 191 206 205
f 191 205 192
f 191 223 224
f 191 224 225
f 191 225 206
f 192 205 193
f 194 206 225
f 194 225 195
f 195 225 224
f 195 224 226
f 195 226 196
f 196 226 197
f 197 226 227
f 197 227 228
f 197 228 229
f 197 229 230
f 197 230 198
f 198 230 200
f 198 200 199
f 200 230 231
f 200 231 202
f 202 231 232
f 202 232 203
f 203 232 233
f 203 233 207
f 203 207 204
f 207 233 210
f 207 210 208
f 208 210 209
f 210 234 211
f 210 233 234
f 211 234 212
f 212 234 235
f 212 235 213
f 213 235 236
f 213 236 218
f 214 222 237
f 214 237 215
f 215 237 238
f 215 238 239
f 215 239 217
f 215 217 216
f 217 240 223
f 217 239 240
f 218 236 241
f 218 241 242
f 218 242 219
f 219 242 220
f 220 242 243
f 220 243 238
f 220 238 221
f 221 238 237
f 221 237 222
f 223 240 244
f 223 244 224
f 224 244 245
f 224 245 246
f 224 246 247
f 224 247 226
f 226 247 227
f 227 247 248
f 227 248 228
f 228 248 249
f 228 249 229
f 229 249 250
f 229 250 231
f 229 231 230
f 231 250 232
f 232 250 251
f 232 251 233
f 233 251 234
f 234 251 252
f 234 252 235
f 235 252 236
f 236 252 250
f 236 250 241
f 238 243 253
f 238 253 239
f 239 253 244
f 239 244 240
f 241 250 249
f 241 249 248
f 241 248 242
f 242 248 246
f 242 246 243
f 243 246 253
f 244 253 245
f 245 253 246
f 246 248 247
f 250 252 251
