v -0.068523 -0.022327 0.000730
v -0.068498 -0.022081 0.023380
v -0.062827 -0.022089 -0.003321
v -0.067786 -0.022327 -0.002040
v -0.067782 -0.023717 -0.001881
v -0.067814 -0.025813 -0.001219
v -0.068516 -0.023855 0.001159
v -0.068425 -0.023855 0.025303
v -0.068483 -0.022327 0.024664
v -0.068414 -0.022081 0.026873
v -0.060734 -0.022081 -0.001548
v -0.063257 -0.024277 -0.003361
v -0.065823 -0.024277 -0.003145
v -0.067095 -0.022327 -0.002872
v -0.055562 -0.022081 -0.001472
v -0.031614 -0.022081 0.000650
v -0.031610 -0.058484 -0.003328
v -0.031610 -0.059766 -0.003394
v -0.067196 -0.025137 -0.002782
v -0.067493 -0.025137 -0.002273
v -0.068133 -0.025993 0.000305
v -0.067381 -0.027704 -0.001811
v -0.067598 -0.028994 -0.000557
v -0.067974 -0.027775 0.000793
v -0.067966 -0.028151 0.002014
v -0.067995 -0.028326 0.008862
v -0.068100 -0.027708 0.013968
v -0.068252 -0.026418 0.013968
v -0.068302 -0.025993 0.022955
v -0.068393 -0.024711 0.023380
v -0.068404 -0.023425 0.026873
v -0.068349 -0.024711 0.026873
v -0.053943 -0.022081 0.026873
v -0.063701 -0.041811 0.029790
v -0.062400 -0.036680 -0.003377
v -0.064113 -0.031979 -0.003347
v -0.064970 -0.028556 -0.003301
v -0.034614 -0.060192 -0.003427
v -0.066680 -0.025137 -0.002995
v -0.066972 -0.023851 -0.002928
v -0.031610 -0.041360 -0.000015
v -0.031610 -0.043944 -0.000557
v -0.031614 -0.022081 0.026470
v -0.031599 -0.054836 0.027365
v -0.031599 -0.064183 0.027728
v -0.031614 -0.062755 -0.002596
v -0.031827 -0.061478 -0.003318
v -0.067012 -0.027700 -0.002576
v -0.066203 -0.027913 -0.003025
v -0.065823 -0.029842 -0.003065
v -0.065722 -0.031979 -0.002938
v -0.067240 -0.028886 -0.001714
v -0.067077 -0.030794 -0.001186
v -0.067196 -0.032317 0.001033
v -0.067645 -0.029846 0.000730
v -0.067377 -0.031553 0.002014
v -0.067876 -0.029220 0.013545
v -0.068057 -0.027971 0.026873
v -0.068248 -0.026418 0.024877
v -0.068198 -0.026786 0.026873
v -0.064648 -0.041351 0.028519
v -0.063785 -0.043071 0.028852
v -0.062989 -0.043493 0.029810
v -0.056610 -0.051316 0.030551
v -0.057261 -0.045651 -0.003374
v -0.061551 -0.039673 -0.003334
v -0.063257 -0.035828 -0.003341
v -0.064121 -0.033257 -0.003337
v -0.040172 -0.058484 -0.003421
v -0.064970 -0.029842 -0.003294
v -0.034614 -0.061052 -0.003308
v -0.036323 -0.060192 -0.003377
v -0.064970 -0.031553 -0.003264
v -0.037606 -0.062768 0.030378
v -0.031610 -0.063974 0.029939
v -0.031599 -0.060192 0.027950
v -0.031599 -0.055921 0.027538
v -0.031599 -0.061853 0.027977
v -0.032253 -0.064730 0.029051
v -0.031820 -0.064125 0.001542
v -0.032040 -0.063657 -0.000557
v -0.032098 -0.063206 -0.001768
v -0.035040 -0.062359 -0.002320
v -0.032814 -0.062296 -0.002882
v -0.066311 -0.031052 -0.002606
v -0.065129 -0.033265 -0.003078
v -0.065274 -0.034476 -0.002709
v -0.066474 -0.032159 -0.001804
v -0.066257 -0.034129 -0.000993
v -0.066705 -0.033695 0.000305
v -0.067113 -0.032856 0.002014
v -0.066770 -0.034117 0.001585
v -0.067677 -0.030272 0.012697
v -0.067851 -0.029266 0.025516
v -0.067688 -0.030272 0.021242
v -0.067370 -0.031549 0.026873
v -0.063600 -0.041911 0.002014
v -0.066596 -0.034551 0.026873
v -0.066774 -0.034117 0.025090
v -0.066571 -0.034972 0.022742
v -0.066325 -0.035778 0.005004
v -0.066109 -0.036279 0.002014
v -0.065660 -0.037469 0.002014
v -0.064413 -0.040233 0.001585
v -0.063112 -0.044224 0.028675
v -0.059071 -0.049622 0.029889
v -0.063015 -0.043005 0.002014
v -0.057774 -0.051287 0.029896
v -0.053068 -0.055141 0.030202
v -0.050220 -0.057153 0.030172
v -0.039746 -0.061912 0.030395
v -0.055981 -0.048215 -0.003294
v -0.058117 -0.044804 -0.003347
v -0.053419 -0.050790 -0.003331
v -0.061551 -0.040942 -0.003178
v -0.064113 -0.034542 -0.003288
v -0.059408 -0.043318 -0.003311
v -0.041459 -0.058484 -0.003381
v -0.035040 -0.061774 -0.002932
v -0.036323 -0.061206 -0.003061
v -0.037610 -0.060192 -0.003311
v -0.038723 -0.062901 0.030166
v -0.037606 -0.063423 0.030062
v -0.034823 -0.063841 0.030189
v -0.041025 -0.061912 0.030222
v -0.033330 -0.064296 0.030019
v -0.033757 -0.064555 0.029161
v -0.033009 -0.063966 0.002011
v -0.034614 -0.063636 0.001369
v -0.033761 -0.063594 0.000305
v -0.033591 -0.063194 -0.001215
v -0.035962 -0.062463 -0.001791
v -0.037259 -0.061616 -0.002519
v -0.064406 -0.035565 -0.003018
v -0.063647 -0.038730 -0.002642
v -0.064605 -0.037344 -0.002160
v -0.065140 -0.035878 -0.002210
v -0.065350 -0.036555 -0.001285
v -0.066278 -0.035503 0.000897
v -0.067323 -0.031979 0.021242
v -0.067522 -0.031123 0.020387
v -0.066690 -0.034542 0.006295
v -0.066900 -0.033695 0.023810
v -0.067663 -0.030272 0.025090
v -0.067312 -0.031979 0.023380
v -0.063156 -0.042570 0.001003
v -0.065415 -0.037795 0.000893
v -0.064818 -0.039130 0.000820
v -0.063803 -0.041255 0.000827
v -0.062238 -0.044261 0.001519
v -0.061388 -0.045618 0.001159
v -0.059440 -0.049542 0.028695
v -0.057803 -0.051321 0.029374
v -0.056086 -0.053020 0.029374
v -0.054066 -0.054781 0.029816
v -0.051745 -0.056639 0.029607
v -0.046649 -0.059921 0.029517
v -0.044766 -0.060355 0.030132
v -0.043028 -0.061206 0.030142
v -0.059426 -0.046102 -0.002706
v -0.057687 -0.046294 -0.003238
v -0.055609 -0.049972 -0.002938
v -0.048731 -0.055057 -0.003288
v -0.052136 -0.052498 -0.003224
v -0.060127 -0.044086 -0.002962
v -0.061948 -0.042024 -0.002649
v -0.042742 -0.058848 -0.003088
v -0.047878 -0.055917 -0.003194
v -0.040100 -0.060455 -0.002752
v -0.038683 -0.060526 -0.003028
v -0.041343 -0.059507 -0.003041
v -0.040172 -0.062563 0.030066
v -0.039139 -0.063206 0.029031
v -0.036323 -0.063761 0.030029
v -0.041734 -0.062283 0.029487
v -0.041824 -0.061941 0.030042
v -0.036468 -0.063177 0.001050
v -0.037111 -0.062396 -0.001365
v -0.038907 -0.061469 -0.002044
v -0.062867 -0.040496 -0.002526
v -0.063709 -0.039840 -0.001774
v -0.064489 -0.038446 -0.001505
v -0.064486 -0.039126 -0.000557
v -0.062856 -0.041761 -0.001588
v -0.061952 -0.043489 -0.001375
v -0.061146 -0.044629 -0.001658
v -0.060206 -0.047271 0.000897
v -0.058428 -0.049638 0.001209
v -0.056335 -0.051976 0.002014
v -0.059531 -0.048169 0.000817
v -0.055421 -0.053638 0.028519
v -0.053390 -0.055474 0.029374
v -0.052537 -0.055466 0.001159
v -0.049439 -0.058242 0.029374
v -0.044047 -0.061319 0.029374
v -0.048359 -0.058956 0.028981
v -0.047177 -0.058998 0.002011
v -0.058385 -0.047409 -0.002682
v -0.057705 -0.048561 -0.002380
v -0.058652 -0.048123 -0.001648
v -0.060405 -0.045405 -0.002037
v -0.060405 -0.044925 -0.002433
v -0.054980 -0.050853 -0.002835
v -0.050014 -0.055166 -0.002872
v -0.053097 -0.052803 -0.002732
v -0.043866 -0.058618 -0.002952
v -0.047885 -0.057094 -0.002429
v -0.041155 -0.060555 -0.002207
v -0.042973 -0.059833 -0.002163
v -0.044860 -0.058898 -0.002280
v -0.041651 -0.061549 0.002011
v -0.039366 -0.062346 0.002011
v -0.038474 -0.062655 0.002866
v -0.037610 -0.062893 0.002011
v -0.042742 -0.061891 0.029374
v -0.042742 -0.061123 0.001582
v -0.037610 -0.062851 0.001156
v -0.039142 -0.062346 0.000907
v -0.040686 -0.061215 -0.001259
v -0.059314 -0.047238 -0.001638
v -0.060308 -0.046148 -0.001102
v -0.057723 -0.050386 0.000936
v -0.055866 -0.052381 0.001036
v -0.054886 -0.053320 0.000843
v -0.057662 -0.049467 -0.001352
v -0.053437 -0.054644 0.000710
v -0.050997 -0.056439 0.000584
v -0.049808 -0.057366 0.001050
v -0.044459 -0.060355 0.001156
v -0.043783 -0.060701 0.002011
v -0.048970 -0.057938 0.002014
v -0.048178 -0.058368 0.001020
v -0.046989 -0.058998 0.000840
v -0.055063 -0.051705 -0.002040
v -0.055992 -0.051216 -0.001435
v -0.048923 -0.056422 -0.002429
v -0.051525 -0.054640 -0.002303
v -0.052718 -0.053921 -0.001997
v -0.053599 -0.053078 -0.002054
v -0.049866 -0.056251 -0.001635
v -0.050856 -0.055495 -0.001844
v -0.047021 -0.058059 -0.001625
v -0.042316 -0.060522 -0.001422
v -0.044329 -0.059708 -0.001282
v -0.045659 -0.058985 -0.001345
v -0.041784 -0.061440 0.000910
v -0.043552 -0.060697 0.000810
v -0.042999 -0.060551 -0.000557
v -0.054178 -0.052832 -0.001635
v -0.053289 -0.053658 -0.001568
v -0.051984 -0.055667 0.000497
v -0.045417 -0.059816 0.000857
f 1 2 3
f 1 3 4
f 1 4 5
f 1 5 6
f 1 6 7
f 1 7 2
f 2 7 8
f 2 8 9
f 2 9 10
f 2 10 33
f 2 33 43
f 2 43 16
f 2 16 15
f 2 15 11
f 2 11 3
f 3 12 13
f 3 13 14
f 3 14 4
f 3 11 15
f 3 15 16
f 3 16 17
f 3 17 18
f 3 18 12
f 4 14 19
f 4 19 20
f 4 20 5
f 5 20 6
f 6 21 7
f 6 20 22
f 6 22 23
f 6 23 21
f 7 21 24
f 7 24 25
f 7 25 26
f 7 26 27
f 7 27 28
f 7 28 29
f 7 29 30
f 7 30 8
f 8 31 9
f 8 30 32
f 8 32 31
f 9 31 10
f 10 31 34
f 10 34 33
f 12 35 36
f 12 36 37
f 12 37 13
f 12 18 38
f 12 38 35
f 13 37 39
f 13 39 40
f 13 40 14
f 14 40 19
f 16 41 42
f 16 42 17
f 16 43 44
f 16 44 41
f 17 44 18
f 17 42 44
f 18 44 45
f 18 45 46
f 18 46 47
f 18 47 38
f 19 48 20
f 19 40 39
f 19 39 49
f 19 49 50
f 19 50 51
f 19 51 48
f 20 48 22
f 21 23 24
f 22 52 23
f 22 48 52
f 23 52 53
f 23 53 54
f 23 54 55
f 23 55 24
f 24 55 25
f 25 55 56
f 25 56 26
f 26 56 57
f 26 57 27
f 27 57 58
f 27 58 29
f 27 29 28
f 29 58 59
f 29 59 60
f 29 60 30
f 30 60 32
f 31 32 34
f 32 60 34
f 33 34 43
f 34 61 62
f 34 62 63
f 34 63 64
f 34 64 43
f 34 60 58
f 34 58 61
f 35 65 66
f 35 66 67
f 35 67 68
f 35 68 36
f 35 38 69
f 35 69 65
f 36 68 70
f 36 70 37
f 37 70 39
f 38 47 71
f 38 71 72
f 38 72 69
f 39 70 73
f 39 73 50
f 39 50 49
f 41 44 42
f 43 64 74
f 43 74 75
f 43 75 76
f 43 76 77
f 43 77 44
f 44 77 76
f 44 76 78
f 44 78 45
f 45 78 75
f 45 75 79
f 45 79 80
f 45 80 46
f 46 80 81
f 46 81 82
f 46 82 83
f 46 83 84
f 46 84 47
f 47 84 71
f 48 51 85
f 48 85 52
f 50 73 86
f 50 86 51
f 51 86 87
f 51 87 85
f 52 85 88
f 52 88 53
f 53 88 89
f 53 89 90
f 53 90 54
f 54 91 56
f 54 56 55
f 54 90 92
f 54 92 91
f 56 91 93
f 56 93 57
f 57 94 58
f 57 93 95
f 57 95 94
f 58 94 96
f 58 96 61
f 58 60 59
f 61 97 62
f 61 96 98
f 61 98 99
f 61 99 100
f 61 100 101
f 61 101 102
f 61 102 103
f 61 103 104
f 61 104 97
f 62 105 106
f 62 106 63
f 62 97 107
f 62 107 105
f 63 106 64
f 64 106 108
f 64 108 109
f 64 109 110
f 64 110 111
f 64 111 74
f 65 112 113
f 65 113 66
f 65 69 114
f 65 114 112
f 66 115 116
f 66 116 67
f 66 113 117
f 66 117 115
f 67 116 68
f 68 73 70
f 68 116 73
f 69 118 114
f 69 72 118
f 71 84 119
f 71 119 120
f 71 120 121
f 71 121 72
f 72 121 118
f 73 116 86
f 74 122 123
f 74 123 124
f 74 124 75
f 74 111 125
f 74 125 122
f 75 124 126
f 75 126 79
f 75 78 76
f 79 127 80
f 79 126 127
f 80 127 128
f 80 128 129
f 80 129 130
f 80 130 81
f 81 130 131
f 81 131 82
f 82 131 132
f 82 132 83
f 83 132 133
f 83 133 119
f 83 119 84
f 85 87 88
f 86 116 134
f 86 134 87
f 87 134 135
f 87 135 136
f 87 136 137
f 87 137 88
f 88 137 89
f 89 137 138
f 89 138 139
f 89 139 90
f 90 139 92
f 91 140 141
f 91 141 93
f 91 92 142
f 91 142 143
f 91 143 140
f 92 139 102
f 92 102 101
f 92 101 142
f 93 141 95
f 94 95 144
f 94 144 96
f 95 141 144
f 96 144 145
f 96 145 143
f 96 143 99
f 96 99 98
f 97 146 107
f 97 104 146
f 99 143 100
f 100 143 142
f 100 142 101
f 102 139 103
f 103 139 147
f 103 147 104
f 104 147 148
f 104 148 149
f 104 149 146
f 105 107 150
f 105 150 151
f 105 151 152
f 105 152 106
f 106 152 108
f 107 146 150
f 108 152 153
f 108 153 154
f 108 154 155
f 108 155 109
f 109 156 110
f 109 155 156
f 110 156 157
f 110 157 158
f 110 158 111
f 111 158 159
f 111 159 125
f 112 160 161
f 112 161 117
f 112 117 113
f 112 114 162
f 112 162 160
f 114 118 163
f 114 163 164
f 114 164 162
f 115 135 134
f 115 134 116
f 115 117 161
f 115 161 165
f 115 165 166
f 115 166 135
f 118 167 168
f 118 168 163
f 118 121 167
f 119 133 169
f 119 169 170
f 119 170 120
f 120 170 121
f 121 170 171
f 121 171 167
f 122 172 123
f 122 125 172
f 123 173 174
f 123 174 124
f 123 172 175
f 123 175 173
f 124 174 126
f 125 159 176
f 125 176 172
f 126 174 127
f 127 174 173
f 127 173 177
f 127 177 129
f 127 129 128
f 129 177 130
f 130 177 178
f 130 178 131
f 131 178 132
f 132 178 179
f 132 179 133
f 133 179 169
f 135 166 180
f 135 180 181
f 135 181 136
f 136 181 182
f 136 182 138
f 136 138 137
f 138 182 183
f 138 183 147
f 138 147 139
f 140 143 145
f 140 145 141
f 141 145 144
f 146 149 184
f 146 184 185
f 146 185 151
f 146 151 150
f 147 183 148
f 148 183 149
f 149 183 184
f 151 186 187
f 151 187 152
f 151 185 186
f 152 188 189
f 152 189 153
f 152 187 190
f 152 190 188
f 153 189 154
f 154 191 192
f 154 192 155
f 154 189 191
f 155 192 156
f 156 192 193
f 156 193 194
f 156 194 157
f 157 195 176
f 157 176 158
f 157 194 196
f 157 196 197
f 157 197 195
f 158 176 159
f 160 162 198
f 160 198 199
f 160 199 200
f 160 200 201
f 160 201 202
f 160 202 166
f 160 166 165
f 160 165 161
f 162 164 203
f 162 203 198
f 163 168 204
f 163 204 164
f 164 204 205
f 164 205 203
f 166 202 186
f 166 186 184
f 166 184 180
f 167 206 168
f 167 171 206
f 168 206 207
f 168 207 204
f 169 179 208
f 169 208 209
f 169 209 210
f 169 210 206
f 169 206 171
f 169 171 170
f 172 176 175
f 173 175 211
f 173 211 212
f 173 212 213
f 173 213 214
f 173 214 177
f 175 176 195
f 175 195 215
f 175 215 216
f 175 216 211
f 177 214 217
f 177 217 218
f 177 218 178
f 178 218 219
f 178 219 179
f 179 219 208
f 180 184 181
f 181 184 182
f 182 184 183
f 184 186 185
f 186 202 201
f 186 201 220
f 186 220 221
f 186 221 187
f 187 221 190
f 188 222 189
f 188 190 222
f 189 222 223
f 189 223 224
f 189 224 191
f 190 221 220
f 190 220 200
f 190 200 225
f 190 225 222
f 191 224 226
f 191 226 193
f 191 193 192
f 193 227 228
f 193 228 194
f 193 226 227
f 194 228 196
f 195 197 229
f 195 229 230
f 195 230 215
f 196 228 231
f 196 231 197
f 197 231 232
f 197 232 233
f 197 233 229
f 198 203 199
f 199 203 234
f 199 234 235
f 199 235 225
f 199 225 200
f 200 220 201
f 203 205 234
f 204 207 236
f 204 236 237
f 204 237 205
f 205 237 238
f 205 238 239
f 205 239 234
f 206 210 207
f 207 240 241
f 207 241 236
f 207 210 242
f 207 242 240
f 208 243 209
f 208 219 243
f 209 243 244
f 209 244 210
f 210 244 245
f 210 245 242
f 211 216 246
f 211 246 212
f 212 218 217
f 212 217 214
f 212 214 213
f 212 246 218
f 215 230 216
f 216 230 229
f 216 229 247
f 216 247 246
f 218 246 219
f 219 246 248
f 219 248 243
f 222 225 235
f 222 235 223
f 223 235 224
f 224 235 226
f 226 235 249
f 226 249 250
f 226 250 238
f 226 238 241
f 226 241 251
f 226 251 227
f 227 240 242
f 227 242 228
f 227 251 241
f 227 241 240
f 228 242 232
f 228 232 231
f 229 252 247
f 229 233 252
f 232 242 245
f 232 245 233
f 233 245 244
f 233 244 252
f 234 239 249
f 234 249 235
f 236 241 237
f 237 241 238
f 238 250 249
f 238 249 239
f 243 248 244
f 244 248 247
f 244 247 252
f 246 247 248
