v -0.066917 -0.022081 -0.002924
v -0.068634 -0.021892 0.001147
v -0.068451 -0.021892 0.000293
v -0.067789 -0.021892 -0.002100
v -0.067263 -0.020848 -0.002824
v -0.066689 -0.018281 -0.003049
v -0.065832 -0.017426 -0.003280
v -0.063267 -0.021892 -0.003360
v -0.061487 -0.022081 -0.002652
v -0.059545 -0.022081 0.026853
v -0.068475 -0.021986 0.025290
v -0.068620 -0.020848 0.001147
v -0.068440 -0.020848 0.000293
v -0.068499 -0.021892 0.023769
v -0.067946 -0.019991 -0.001714
v -0.067828 -0.020848 -0.002050
v -0.067465 -0.019991 -0.002548
v -0.067244 -0.019136 -0.002806
v -0.065832 -0.014858 -0.003254
v -0.065832 -0.015713 -0.003271
v -0.065832 -0.016568 -0.003286
v -0.066929 -0.017426 -0.002901
v -0.066754 -0.016578 -0.002942
v -0.063267 -0.018281 -0.003399
v -0.059621 -0.003350 -0.003437
v -0.062340 -0.021892 -0.003257
v -0.059545 -0.007995 -0.003179
v -0.059545 -0.022081 -0.000588
v -0.059545 0.003924 0.024243
v -0.059571 0.003775 0.026853
v -0.068417 -0.021864 0.026853
v -0.068458 -0.019991 0.025097
v -0.068432 -0.020820 0.026853
v -0.068424 -0.019965 0.026853
v -0.068463 -0.019136 0.019110
v -0.068498 -0.019136 0.012265
v -0.068579 -0.019991 0.002004
v -0.068571 -0.019991 0.001147
v -0.068518 -0.019136 0.001147
v -0.068329 -0.019136 0.000293
v -0.067841 -0.017768 -0.001281
v -0.067423 -0.017426 -0.002275
v -0.067523 -0.018281 -0.002275
v -0.067606 -0.019136 -0.002275
v -0.067208 -0.018281 -0.002788
v -0.066539 -0.014858 -0.002939
v -0.066146 -0.014003 -0.003058
v -0.065832 -0.013148 -0.003120
v -0.064121 -0.009723 -0.003337
v -0.064976 -0.013148 -0.003334
v -0.064976 -0.014003 -0.003337
v -0.059695 -0.002026 -0.003437
v -0.064121 -0.010581 -0.003360
v -0.063267 -0.008873 -0.003384
v -0.059545 -0.006306 -0.003319
v -0.059695 -0.007161 -0.003328
v -0.059695 -0.001173 -0.003396
v -0.059564 0.001458 -0.002711
v -0.059545 0.003992 0.010269
v -0.059602 0.003916 0.011269
v -0.060249 0.003079 0.011417
v -0.060063 0.003255 0.024243
v -0.059577 0.003860 0.025477
v -0.060169 0.002997 0.026853
v -0.068418 -0.019136 0.025097
v -0.068430 -0.019136 0.024243
v -0.068380 -0.019110 0.026853
v -0.068379 -0.018281 0.023386
v -0.068322 -0.017426 0.023386
v -0.068435 -0.018281 0.012265
v -0.068527 -0.019136 0.002004
v -0.068446 -0.018281 0.001147
v -0.067611 -0.016568 -0.001421
v -0.068335 -0.017426 0.001147
v -0.068014 -0.015897 0.000640
v -0.066974 -0.014414 -0.002165
v -0.067034 -0.015713 -0.002536
v -0.067155 -0.016652 -0.002604
v -0.066456 -0.012666 -0.002408
v -0.065542 -0.010581 -0.002830
v -0.064976 -0.010581 -0.003153
v -0.064121 -0.008873 -0.003263
v -0.063267 -0.007161 -0.003331
v -0.063267 -0.008016 -0.003375
v -0.060701 -0.002883 -0.003417
v -0.059545 0.002630 -0.001723
v -0.060701 -0.002026 -0.003343
v -0.059695 -0.000316 -0.003280
v -0.060004 0.000567 -0.002862
v -0.060821 -0.000724 -0.002918
v -0.061058 -0.000002 -0.002171
v -0.060399 0.001157 -0.002041
v -0.059545 0.003990 0.007992
v -0.060413 0.002862 0.012265
v -0.059844 0.003597 0.007138
v -0.060239 0.003066 0.006281
v -0.060217 0.003033 0.025097
v -0.060593 0.002540 0.023386
v -0.060202 0.003012 0.025954
v -0.061365 0.001295 0.026853
v -0.068306 -0.018242 0.026853
v -0.068231 -0.017426 0.026853
v -0.068238 -0.016568 0.023386
v -0.068249 -0.016568 0.022532
v -0.068366 -0.017426 0.012265
v -0.068277 -0.016568 0.012265
v -0.066760 -0.012291 -0.001421
v -0.068191 -0.016568 0.001147
v -0.068108 -0.015343 0.010560
v -0.068037 -0.014958 0.009703
v -0.067986 -0.015381 0.001275
v -0.067498 -0.013148 0.001147
v -0.067217 -0.011951 0.001026
v -0.066418 -0.011512 -0.001747
v -0.065515 -0.008827 -0.001860
v -0.065251 -0.009738 -0.002797
v -0.064821 -0.008873 -0.002933
v -0.064531 -0.006757 -0.002269
v -0.064255 -0.007750 -0.002996
v -0.062412 -0.005448 -0.003337
v -0.062412 -0.004593 -0.003206
v -0.060378 0.001767 -0.001376
v -0.059545 0.003405 -0.000599
v -0.061698 -0.002414 -0.002969
v -0.063052 -0.004593 -0.002880
v -0.062919 -0.003825 -0.002607
v -0.062061 -0.001694 -0.002195
v -0.062056 -0.000834 -0.001335
v -0.061001 0.000766 -0.001421
v -0.059545 0.003829 0.001147
v -0.061131 0.001826 0.010154
v -0.060836 0.002252 0.011417
v -0.060834 0.002252 0.012265
v -0.061032 0.001923 0.022532
v -0.060392 0.002841 0.005427
v -0.060760 0.002252 0.025097
v -0.060733 0.002252 0.025954
v -0.060580 0.002540 0.024243
v -0.061255 0.001583 0.023386
v -0.061932 0.000440 0.026853
v -0.061226 0.001537 0.025954
v -0.061941 0.000475 0.025954
v -0.068107 -0.016568 0.026853
v -0.067974 -0.015279 0.025554
v -0.068115 -0.015713 0.023386
v -0.068140 -0.015713 0.021678
v -0.068277 -0.016568 0.014831
v -0.068278 -0.016568 0.013976
v -0.068109 -0.015341 0.011417
v -0.066755 -0.011433 -0.000561
v -0.066410 -0.010331 -0.000804
v -0.067951 -0.014529 0.009703
v -0.067891 -0.014271 0.008849
v -0.067337 -0.012291 0.002004
v -0.067391 -0.012291 0.004570
v -0.066272 -0.008414 0.000919
v -0.067123 -0.011405 0.002004
v -0.066884 -0.010581 0.001147
v -0.065350 -0.007702 -0.001317
v -0.063527 -0.005486 -0.002800
v -0.064612 -0.005948 -0.001353
v -0.063729 -0.004524 -0.001895
v -0.062447 -0.003751 -0.002966
v -0.061118 0.000948 -0.000949
v -0.060316 0.002318 -0.000561
v -0.060177 0.002824 0.000329
v -0.059545 0.003701 0.000332
v -0.062797 -0.002743 -0.001970
v -0.062815 -0.002115 -0.001338
v -0.062923 -0.001875 -0.000561
v -0.060179 0.002984 0.001147
v -0.060548 0.002522 0.002004
v -0.060961 0.002025 0.006281
v -0.061618 0.001047 0.007138
v -0.061835 0.000718 0.007992
v -0.061827 0.000708 0.022532
v -0.061827 0.000705 0.023386
v -0.060586 0.002540 0.004570
v -0.060953 0.002022 0.005427
v -0.061394 0.001356 0.024243
v -0.061237 0.001555 0.025097
v -0.061822 0.000703 0.024243
v -0.063156 -0.001679 0.026853
v -0.062428 -0.000316 0.025954
v -0.063008 -0.001309 0.025954
v -0.061812 0.000698 0.025097
v -0.062081 0.000271 0.025097
v -0.067514 -0.013107 0.026853
v -0.067953 -0.014950 0.024243
v -0.068078 -0.015404 0.022532
v -0.068024 -0.015083 0.021678
v -0.068026 -0.015067 0.020818
v -0.067890 -0.014271 0.013119
v -0.067622 -0.013148 0.013976
v -0.067315 -0.011900 0.013976
v -0.067148 -0.011321 0.004570
v -0.065791 -0.007161 0.001147
v -0.065450 -0.006413 0.000860
v -0.066648 -0.009723 0.001147
v -0.066446 -0.008873 0.005427
v -0.065868 -0.007161 0.007992
v -0.065407 -0.005874 0.009246
v -0.064651 -0.004785 0.000462
v -0.063664 -0.003613 -0.001080
v -0.061983 0.000327 0.000863
v -0.060996 0.001624 0.000293
v -0.061360 0.001300 0.001147
v -0.060701 0.002252 0.001147
v -0.063687 -0.002899 0.000293
v -0.062909 -0.001260 0.000794
v -0.061943 0.000481 0.002004
v -0.062091 0.000279 0.003713
v -0.062091 0.000284 0.004570
v -0.062450 -0.000316 0.002858
v -0.062086 0.000284 0.021678
v -0.064041 -0.003358 0.026853
v -0.063588 -0.002380 0.025954
v -0.062265 -0.000017 0.020818
v -0.063595 -0.002370 0.025097
v -0.062765 -0.000875 0.019964
v -0.062893 -0.001074 0.002004
v -0.063550 -0.002255 0.019110
v -0.067255 -0.011997 0.026853
v -0.067963 -0.014896 0.023386
v -0.067303 -0.011918 0.018253
v -0.067825 -0.014003 0.013976
v -0.067143 -0.011339 0.019110
v -0.066727 -0.009723 0.010560
v -0.066963 -0.010581 0.010560
v -0.064404 -0.003981 0.001147
v -0.066449 -0.008873 0.010560
v -0.066206 -0.008171 0.011417
v -0.066313 -0.008718 0.021678
v -0.066163 -0.008399 0.025954
v -0.065714 -0.007161 0.026853
v -0.065608 -0.006849 0.025954
v -0.065318 -0.006094 0.025097
v -0.065037 -0.005448 0.025954
v -0.064531 -0.004208 0.022532
v -0.064534 -0.004198 0.021678
v -0.063897 -0.002927 0.024243
v -0.063792 -0.002699 0.018253
v -0.063888 -0.002944 0.002004
v -0.064413 -0.003973 0.002004
v -0.064111 -0.003738 0.000293
v -0.062424 -0.000316 0.001147
v -0.063881 -0.002960 0.001147
v -0.063385 -0.002026 0.001147
v -0.062448 -0.000316 0.002004
v -0.064437 -0.004098 0.025954
v -0.064597 -0.004522 0.026853
v -0.064282 -0.003738 0.025097
v -0.063406 -0.002026 0.002004
v -0.065992 -0.007975 0.026853
v -0.066588 -0.009723 0.025954
v -0.066630 -0.009723 0.022532
f 1 2 3
f 1 3 4
f 1 4 5
f 1 5 6
f 1 6 7
f 1 7 8
f 1 8 9
f 1 9 28
f 1 28 10
f 1 10 11
f 1 11 2
f 2 12 13
f 2 13 3
f 2 11 14
f 2 14 12
f 3 13 15
f 3 15 4
f 4 16 5
f 4 15 16
f 5 16 17
f 5 17 18
f 5 18 6
f 6 19 20
f 6 20 21
f 6 21 7
f 6 18 22
f 6 22 23
f 6 23 19
f 7 21 24
f 7 24 8
f 8 24 25
f 8 25 26
f 8 26 9
f 9 26 27
f 9 27 28
f 10 29 30
f 10 30 64
f 10 64 100
f 10 100 140
f 10 140 183
f 10 183 216
f 10 216 251
f 10 251 235
f 10 235 254
f 10 254 223
f 10 223 188
f 10 188 143
f 10 143 102
f 10 102 101
f 10 101 67
f 10 67 34
f 10 34 33
f 10 33 31
f 10 31 11
f 10 28 27
f 10 27 55
f 10 55 86
f 10 86 123
f 10 123 167
f 10 167 130
f 10 130 93
f 10 93 59
f 10 59 29
f 11 32 14
f 11 31 33
f 11 33 34
f 11 34 32
f 12 14 32
f 12 32 35
f 12 35 36
f 12 36 37
f 12 37 38
f 12 38 13
f 13 38 39
f 13 39 15
f 15 39 40
f 15 40 41
f 15 41 42
f 15 42 43
f 15 43 44
f 15 44 16
f 16 44 17
f 17 44 18
f 18 44 45
f 18 45 22
f 19 23 46
f 19 46 47
f 19 47 48
f 19 48 49
f 19 49 50
f 19 50 20
f 20 50 21
f 21 50 51
f 21 51 24
f 22 45 46
f 22 46 23
f 24 52 25
f 24 51 53
f 24 53 54
f 24 54 52
f 25 55 56
f 25 56 26
f 25 52 57
f 25 57 58
f 25 58 55
f 26 56 27
f 27 56 55
f 29 59 60
f 29 60 61
f 29 61 62
f 29 62 63
f 29 63 30
f 30 63 64
f 32 34 65
f 32 65 66
f 32 66 35
f 34 67 65
f 35 66 68
f 35 68 69
f 35 69 36
f 36 69 70
f 36 70 71
f 36 71 37
f 37 71 38
f 38 71 39
f 39 71 72
f 39 72 40
f 40 72 41
f 41 73 42
f 41 72 74
f 41 74 75
f 41 75 73
f 42 76 77
f 42 77 78
f 42 78 43
f 42 73 76
f 43 78 45
f 43 45 44
f 45 78 46
f 46 78 77
f 46 77 79
f 46 79 80
f 46 80 48
f 46 48 47
f 48 81 82
f 48 82 49
f 48 80 81
f 49 53 50
f 49 82 83
f 49 83 84
f 49 84 53
f 50 53 51
f 52 54 85
f 52 85 57
f 53 84 54
f 54 84 85
f 55 58 86
f 57 85 87
f 57 87 88
f 57 88 58
f 58 88 89
f 58 89 90
f 58 90 91
f 58 91 92
f 58 92 86
f 59 93 61
f 59 61 60
f 61 94 62
f 61 93 95
f 61 95 96
f 61 96 94
f 62 97 63
f 62 94 98
f 62 98 97
f 63 97 99
f 63 99 64
f 64 99 100
f 65 69 66
f 65 67 69
f 66 69 68
f 67 101 69
f 69 101 102
f 69 102 103
f 69 103 104
f 69 104 105
f 69 105 70
f 70 105 71
f 71 105 72
f 72 105 106
f 72 106 74
f 73 75 107
f 73 107 76
f 74 108 75
f 74 106 109
f 74 109 110
f 74 110 108
f 75 108 111
f 75 111 112
f 75 112 113
f 75 113 107
f 76 79 77
f 76 107 79
f 79 107 114
f 79 114 115
f 79 115 80
f 80 116 117
f 80 117 81
f 80 115 118
f 80 118 116
f 81 117 82
f 82 117 119
f 82 119 83
f 83 120 85
f 83 85 84
f 83 119 121
f 83 121 120
f 85 120 87
f 86 92 122
f 86 122 123
f 87 120 121
f 87 121 124
f 87 124 90
f 87 90 88
f 88 90 89
f 90 125 126
f 90 126 127
f 90 127 91
f 90 124 125
f 91 127 128
f 91 128 129
f 91 129 92
f 92 129 122
f 93 130 95
f 94 96 131
f 94 131 132
f 94 132 133
f 94 133 134
f 94 134 98
f 95 130 96
f 96 135 131
f 96 130 135
f 97 136 137
f 97 137 99
f 97 98 138
f 97 138 136
f 98 134 139
f 98 139 138
f 99 137 100
f 100 137 141
f 100 141 142
f 100 142 140
f 102 143 144
f 102 144 103
f 103 144 145
f 103 145 146
f 103 146 104
f 104 146 147
f 104 147 105
f 105 147 148
f 105 148 106
f 106 149 109
f 106 148 149
f 107 113 150
f 107 150 151
f 107 151 114
f 108 110 111
f 109 149 110
f 110 149 152
f 110 152 153
f 110 153 111
f 111 154 112
f 111 153 155
f 111 155 154
f 112 154 113
f 113 156 150
f 113 154 157
f 113 157 158
f 113 158 156
f 114 151 115
f 115 151 159
f 115 159 118
f 116 118 117
f 117 118 160
f 117 160 125
f 117 125 119
f 118 126 160
f 118 159 161
f 118 161 162
f 118 162 126
f 119 125 121
f 121 125 163
f 121 163 124
f 122 129 164
f 122 164 123
f 123 164 165
f 123 165 166
f 123 166 167
f 124 163 125
f 125 160 126
f 126 162 168
f 126 168 127
f 127 168 169
f 127 169 128
f 128 169 170
f 128 170 164
f 128 164 129
f 130 167 171
f 130 171 172
f 130 172 135
f 131 133 132
f 131 135 173
f 131 173 174
f 131 174 175
f 131 175 176
f 131 176 177
f 131 177 139
f 131 139 134
f 131 134 133
f 135 178 179
f 135 179 173
f 135 172 178
f 136 138 180
f 136 180 181
f 136 181 141
f 136 141 137
f 138 139 180
f 139 177 182
f 139 182 180
f 140 142 184
f 140 184 185
f 140 185 183
f 141 181 180
f 141 180 142
f 142 180 186
f 142 186 182
f 142 182 187
f 142 187 184
f 143 188 144
f 144 188 189
f 144 189 145
f 145 189 190
f 145 190 146
f 146 190 191
f 146 191 192
f 146 192 149
f 146 149 147
f 147 149 148
f 149 192 193
f 149 193 152
f 150 156 151
f 151 156 159
f 152 193 153
f 153 193 194
f 153 194 195
f 153 195 155
f 154 155 157
f 155 195 196
f 155 196 157
f 156 197 198
f 156 198 159
f 156 158 199
f 156 199 196
f 156 196 200
f 156 200 201
f 156 201 202
f 156 202 197
f 157 196 158
f 158 196 199
f 159 198 161
f 161 198 203
f 161 203 204
f 161 204 162
f 162 204 169
f 162 169 168
f 164 170 205
f 164 205 206
f 164 206 165
f 165 206 166
f 166 206 205
f 166 205 207
f 166 207 208
f 166 208 171
f 166 171 167
f 169 204 170
f 170 204 209
f 170 209 210
f 170 210 205
f 171 208 172
f 172 211 178
f 172 208 207
f 172 207 211
f 173 179 211
f 173 211 174
f 174 211 212
f 174 212 175
f 175 212 213
f 175 213 214
f 175 214 215
f 175 215 176
f 176 215 177
f 177 187 182
f 177 215 187
f 178 211 179
f 180 182 186
f 183 185 217
f 183 217 216
f 184 187 215
f 184 215 218
f 184 218 185
f 185 219 217
f 185 218 220
f 185 220 221
f 185 221 222
f 185 222 219
f 188 223 191
f 188 191 224
f 188 224 189
f 189 224 190
f 190 224 191
f 191 225 226
f 191 226 192
f 191 223 225
f 192 226 193
f 193 226 194
f 194 226 225
f 194 225 195
f 195 225 227
f 195 227 228
f 195 228 229
f 195 229 196
f 196 229 228
f 196 228 200
f 197 230 198
f 197 202 230
f 198 230 203
f 200 228 231
f 200 231 201
f 201 231 232
f 201 232 202
f 202 232 233
f 202 233 234
f 202 234 235
f 202 235 236
f 202 236 237
f 202 237 238
f 202 238 239
f 202 239 240
f 202 240 241
f 202 241 242
f 202 242 243
f 202 243 244
f 202 244 230
f 203 245 204
f 203 230 245
f 204 245 209
f 205 210 246
f 205 246 207
f 207 246 211
f 209 245 230
f 209 230 247
f 209 247 248
f 209 248 210
f 210 248 246
f 211 249 212
f 211 246 249
f 212 249 213
f 213 249 214
f 214 249 221
f 214 221 218
f 214 218 215
f 216 217 250
f 216 250 251
f 217 219 241
f 217 241 252
f 217 252 250
f 218 221 220
f 219 222 242
f 219 242 241
f 221 249 246
f 221 246 248
f 221 248 253
f 221 253 242
f 221 242 222
f 223 254 255
f 223 255 256
f 223 256 227
f 223 227 225
f 227 256 228
f 228 256 233
f 228 233 231
f 230 244 243
f 230 243 247
f 231 233 232
f 233 256 234
f 234 255 254
f 234 254 235
f 234 256 255
f 235 251 238
f 235 238 236
f 236 238 237
f 238 251 250
f 238 250 239
f 239 250 252
f 239 252 240
f 240 252 241
f 242 253 243
f 243 253 247
f 247 253 248
