v -0.000176 0.036972 0.014036
v -0.000659 0.036972 0.014111
v -0.000176 0.037051 0.014100
v 0.000281 0.037361 0.014311
v 0.000737 0.037366 0.014322
v 0.000285 0.036972 0.014052
v -0.000176 0.037315 0.014329
v -0.000691 0.036972 0.014120
v 0.000281 0.037589 0.014554
v 0.000737 0.037595 0.014501
v 0.001192 0.037347 0.014330
v 0.001192 0.037016 0.014139
v 0.001192 0.036972 0.014115
v -0.000470 0.037268 0.014371
v -0.000151 0.037552 0.014662
v -0.000865 0.036972 0.014190
v 0.000281 0.037744 0.014782
v 0.000737 0.037789 0.014730
v 0.001192 0.037791 0.014742
v 0.001192 0.037575 0.014513
v 0.001650 0.037291 0.014366
v 0.001650 0.036972 0.014168
v 0.001259 0.036972 0.014120
v -0.000626 0.037363 0.014614
v -0.001095 0.036972 0.014298
v -0.000775 0.037213 0.014451
v 0.000017 0.037711 0.014838
v -0.000287 0.037664 0.014931
v 0.000281 0.037901 0.015086
v 0.000737 0.037986 0.015086
v 0.001192 0.038001 0.015086
v 0.001650 0.037931 0.015086
v 0.001650 0.037750 0.014795
v 0.001650 0.037520 0.014568
v 0.001892 0.037250 0.014397
v 0.002074 0.036972 0.014264
v 0.001704 0.036972 0.014179
v -0.000994 0.037303 0.014756
v -0.001547 0.036972 0.014565
v -0.000151 0.037781 0.015085
v -0.000637 0.037604 0.015085
v -0.000486 0.037736 0.015235
v 0.000322 0.038081 0.015584
v 0.000737 0.038126 0.015460
v -0.000176 0.037935 0.015542
v 0.001192 0.038139 0.015379
v 0.001650 0.038110 0.015434
v 0.002092 0.037810 0.015066
v 0.001931 0.037716 0.014839
v 0.003287 0.037259 0.014843
v 0.002707 0.036972 0.014444
v 0.002454 0.036972 0.014369
v 0.003454 0.037034 0.014723
v 0.003030 0.036972 0.014542
v -0.001641 0.036972 0.014631
v -0.001299 0.037236 0.014878
v -0.002106 0.036972 0.015080
v -0.004744 0.036972 0.018503
v 0.000201 0.038122 0.015998
v 0.000504 0.038159 0.015763
v 0.000737 0.038175 0.015688
v 0.001192 0.038203 0.015607
v -0.000176 0.038006 0.015998
v -0.006253 0.036972 0.021478
v 0.001650 0.038194 0.015662
v 0.001911 0.038168 0.015742
v 0.002080 0.038053 0.015571
v 0.002563 0.037760 0.015211
v 0.002237 0.037666 0.014900
v 0.002836 0.037717 0.015284
v 0.003592 0.037199 0.014921
v 0.003840 0.036972 0.014818
v 0.003659 0.036972 0.014747
v 0.002563 0.037607 0.014982
v 0.003457 0.036972 0.014678
v -0.002318 0.036972 0.015398
v -0.006389 0.036972 0.021753
v -0.006478 0.036972 0.021934
v -0.006572 0.036972 0.022174
v 0.000358 0.038206 0.016456
v 0.000428 0.038180 0.015998
v 0.000737 0.038227 0.015998
v 0.001192 0.038273 0.015998
v 0.001650 0.038268 0.015998
v 0.002080 0.038199 0.016021
v 0.002368 0.038170 0.016189
v 0.002216 0.038120 0.015884
v 0.002563 0.037895 0.015542
v 0.002999 0.037755 0.015566
v 0.003136 0.037659 0.015431
v 0.005516 0.036972 0.015987
v 0.005024 0.036972 0.015540
v 0.004929 0.036972 0.015468
v 0.003816 0.037288 0.015225
v 0.004706 0.036972 0.015313
v 0.004299 0.036972 0.015070
v -0.002318 0.036972 0.018061
v -0.006640 0.036972 0.022363
v 0.000737 0.038302 0.016911
v 0.000737 0.038279 0.016456
v 0.001192 0.038318 0.016456
v 0.001650 0.038322 0.016456
v 0.002107 0.038269 0.016456
v 0.002426 0.038193 0.016456
v 0.007899 0.036972 0.019651
v 0.007663 0.036972 0.019194
v 0.007144 0.036972 0.018280
v 0.006874 0.036972 0.017825
v 0.006558 0.036972 0.017368
v 0.005909 0.036972 0.016453
v 0.005843 0.036972 0.016368
v 0.003280 0.037712 0.015736
v -0.002296 0.036972 0.018118
v -0.005619 0.037171 0.022363
v 0.000737 0.038315 0.017368
v 0.000571 0.036972 0.022363
v 0.001192 0.038398 0.017825
v 0.001192 0.038380 0.017368
v 0.001192 0.038354 0.016911
v 0.001650 0.038460 0.018281
v 0.002107 0.038351 0.017368
v 0.002107 0.038314 0.016911
v 0.002502 0.038222 0.016911
v 0.008334 0.036972 0.020564
v -0.005551 0.037180 0.022363
v 0.001650 0.038470 0.018737
v 0.001192 0.038404 0.018281
v 0.008048 0.036972 0.022363
v 0.002107 0.038417 0.018281
v 0.002107 0.038385 0.017825
v 0.002563 0.038284 0.017825
v 0.008429 0.036972 0.021021
v 0.002563 0.038314 0.018281
v -0.005239 0.037214 0.022363
v 0.002592 0.037842 0.022363
v 0.003049 0.037832 0.022363
v 0.003021 0.038055 0.021021
v 0.003474 0.038038 0.021021
v 0.003188 0.038155 0.020278
v 0.002107 0.038413 0.018737
v -0.003374 0.037366 0.022363
v 0.008246 0.036972 0.021731
v 0.003932 0.038002 0.020564
v 0.008041 0.036973 0.022363
v 0.003277 0.038164 0.019651
v 0.003271 0.038164 0.019194
v 0.008324 0.036972 0.021478
v 0.003932 0.038019 0.020108
v 0.003932 0.038014 0.020232
v 0.003474 0.037791 0.022363
v 0.003504 0.037788 0.022363
v 0.003932 0.037886 0.021478
v 0.003932 0.037952 0.021021
v 0.003474 0.038094 0.020564
v 0.003442 0.038126 0.020118
v 0.003901 0.037723 0.022363
v 0.003505 0.038113 0.019651
f 1 2 3
f 1 3 4
f 1 4 5
f 1 5 6
f 1 6 13
f 1 13 23
f 1 23 22
f 1 22 37
f 1 37 36
f 1 36 52
f 1 52 51
f 1 51 54
f 1 54 75
f 1 75 73
f 1 73 72
f 1 72 96
f 1 96 95
f 1 95 93
f 1 93 92
f 1 92 91
f 1 91 111
f 1 111 110
f 1 110 109
f 1 109 108
f 1 108 107
f 1 107 106
f 1 106 105
f 1 105 124
f 1 124 132
f 1 132 147
f 1 147 142
f 1 142 128
f 1 128 116
f 1 116 113
f 1 113 97
f 1 97 76
f 1 76 57
f 1 57 55
f 1 55 39
f 1 39 25
f 1 25 16
f 1 16 8
f 1 8 2
f 2 7 3
f 2 8 7
f 3 7 4
f 4 7 9
f 4 9 10
f 4 10 5
f 5 10 11
f 5 11 6
f 6 11 12
f 6 12 13
f 7 8 14
f 7 14 15
f 7 15 9
f 8 16 14
f 9 15 17
f 9 17 18
f 9 18 10
f 10 18 19
f 10 19 20
f 10 20 11
f 11 20 21
f 11 21 22
f 11 22 23
f 11 23 12
f 12 23 13
f 14 24 15
f 14 16 25
f 14 25 26
f 14 26 24
f 15 27 17
f 15 24 28
f 15 28 27
f 17 27 29
f 17 29 30
f 17 30 18
f 18 30 31
f 18 31 19
f 19 31 32
f 19 32 33
f 19 33 20
f 20 33 34
f 20 34 21
f 21 34 35
f 21 35 36
f 21 36 37
f 21 37 22
f 24 26 38
f 24 38 28
f 25 39 26
f 26 39 38
f 27 28 40
f 27 40 29
f 28 38 41
f 28 41 42
f 28 42 40
f 29 43 44
f 29 44 30
f 29 40 45
f 29 45 43
f 30 44 46
f 30 46 31
f 31 46 47
f 31 47 32
f 32 47 48
f 32 48 49
f 32 49 33
f 33 49 34
f 34 49 50
f 34 50 35
f 35 51 52
f 35 52 36
f 35 50 53
f 35 53 54
f 35 54 51
f 38 39 55
f 38 55 56
f 38 56 41
f 40 42 45
f 41 56 42
f 42 56 57
f 42 57 58
f 42 58 45
f 43 45 59
f 43 59 60
f 43 60 44
f 44 61 62
f 44 62 46
f 44 60 61
f 45 63 59
f 45 58 64
f 45 64 63
f 46 62 65
f 46 65 47
f 47 65 66
f 47 66 67
f 47 67 68
f 47 68 48
f 48 68 69
f 48 69 49
f 49 69 50
f 50 70 71
f 50 71 72
f 50 72 73
f 50 73 53
f 50 69 74
f 50 74 70
f 53 73 75
f 53 75 54
f 55 57 56
f 57 76 58
f 58 76 64
f 59 63 77
f 59 77 78
f 59 78 79
f 59 79 80
f 59 80 81
f 59 81 60
f 60 81 82
f 60 82 61
f 61 82 83
f 61 83 62
f 62 83 84
f 62 84 65
f 63 64 77
f 64 76 77
f 65 84 66
f 66 84 85
f 66 85 86
f 66 86 87
f 66 87 88
f 66 88 70
f 66 70 67
f 67 70 68
f 68 70 69
f 69 70 74
f 70 89 90
f 70 90 91
f 70 91 92
f 70 92 93
f 70 93 94
f 70 94 71
f 70 88 89
f 71 94 95
f 71 95 96
f 71 96 72
f 76 97 98
f 76 98 79
f 76 79 78
f 76 78 77
f 79 98 80
f 80 99 100
f 80 100 81
f 80 98 99
f 81 100 82
f 82 100 83
f 83 100 101
f 83 101 102
f 83 102 84
f 84 102 103
f 84 103 85
f 85 103 86
f 86 104 105
f 86 105 106
f 86 106 107
f 86 107 108
f 86 108 109
f 86 109 110
f 86 110 111
f 86 111 112
f 86 112 89
f 86 89 88
f 86 88 87
f 86 103 104
f 89 112 90
f 90 112 91
f 91 112 111
f 93 95 94
f 97 113 98
f 98 114 115
f 98 115 99
f 98 113 116
f 98 116 128
f 98 128 144
f 98 144 156
f 98 156 151
f 98 151 150
f 98 150 136
f 98 136 135
f 98 135 141
f 98 141 134
f 98 134 125
f 98 125 114
f 99 115 117
f 99 117 118
f 99 118 100
f 100 118 119
f 100 119 101
f 101 119 102
f 102 119 120
f 102 120 121
f 102 121 122
f 102 122 103
f 103 122 123
f 103 123 104
f 104 123 124
f 104 124 105
f 114 125 126
f 114 126 127
f 114 127 115
f 115 127 117
f 117 127 126
f 117 126 120
f 117 120 118
f 118 120 119
f 120 126 129
f 120 129 130
f 120 130 121
f 121 130 131
f 121 131 122
f 122 131 123
f 123 131 124
f 124 131 133
f 124 133 132
f 125 134 126
f 126 135 136
f 126 136 137
f 126 137 138
f 126 138 139
f 126 139 140
f 126 140 129
f 126 134 141
f 126 141 135
f 128 142 143
f 128 143 144
f 129 140 145
f 129 145 146
f 129 146 133
f 129 133 131
f 129 131 130
f 132 133 146
f 132 146 148
f 132 148 149
f 132 149 143
f 132 143 147
f 136 150 138
f 136 138 137
f 138 150 151
f 138 151 152
f 138 152 153
f 138 153 154
f 138 154 139
f 139 154 155
f 139 155 140
f 140 155 145
f 142 147 143
f 143 153 144
f 143 149 155
f 143 155 154
f 143 154 153
f 144 153 152
f 144 152 156
f 145 155 148
f 145 148 157
f 145 157 146
f 146 157 148
f 148 155 149
f 151 156 152
