v 0.015066 0.034929 0.020563
v 0.014840 0.035067 0.020563
v 0.014465 0.035295 0.021019
v 0.014827 0.035067 0.021019
v 0.015035 0.034929 0.021019
v 0.015019 0.034929 0.020112
v 0.014451 0.035295 0.020563
v 0.014236 0.035434 0.021019
v 0.014226 0.035428 0.021477
v 0.014455 0.035280 0.021477
v 0.014798 0.035052 0.021477
v 0.014976 0.034929 0.021477
v 0.014889 0.034929 0.019654
v 0.014751 0.035008 0.019654
v 0.014815 0.035046 0.020112
v 0.014211 0.035419 0.020332
v 0.014224 0.035426 0.020563
v 0.013980 0.035553 0.020563
v 0.013980 0.035565 0.021019
v 0.013980 0.035549 0.021477
v 0.014213 0.035420 0.021719
v 0.014748 0.035019 0.021933
v 0.014870 0.034929 0.021933
v 0.014837 0.034929 0.019497
v 0.014168 0.035395 0.020027
v 0.014393 0.035289 0.020151
v 0.014699 0.034979 0.019344
v 0.014437 0.035180 0.019654
v 0.014001 0.035502 0.020151
v 0.013523 0.035759 0.020563
v 0.013484 0.035795 0.020999
v 0.013304 0.035879 0.021327
v 0.013484 0.035785 0.021477
v 0.013286 0.035869 0.021630
v 0.013523 0.035734 0.021933
v 0.013523 0.035689 0.022389
v 0.013883 0.035495 0.022389
v 0.014167 0.035391 0.022022
v 0.014394 0.035266 0.021896
v 0.014701 0.034987 0.022238
v 0.014753 0.034929 0.022284
v 0.014764 0.034929 0.019287
v 0.014101 0.035361 0.019654
v 0.013872 0.035481 0.019654
v 0.014641 0.034936 0.019030
v 0.014463 0.035068 0.019193
v 0.013523 0.035713 0.020112
v 0.013291 0.035872 0.020834
v 0.013255 0.035860 0.020563
v 0.013304 0.035879 0.021137
v 0.013102 0.035959 0.021479
v 0.013030 0.035961 0.021933
v 0.013259 0.035858 0.021933
v 0.013213 0.035838 0.022389
v 0.013149 0.035809 0.022847
v 0.013817 0.035458 0.022727
v 0.014111 0.035351 0.022389
v 0.014629 0.034930 0.022552
v 0.014449 0.034929 0.022847
v 0.014602 0.034929 0.018919
v 0.013523 0.035633 0.019654
v 0.013801 0.035442 0.019335
v 0.014517 0.034929 0.018740
v 0.012889 0.035891 0.019802
v 0.013183 0.035836 0.020112
v 0.013026 0.035940 0.020563
v 0.012974 0.035961 0.020587
v 0.013095 0.035955 0.021006
v 0.012921 0.035961 0.022389
v 0.012984 0.035936 0.022389
v 0.012920 0.035907 0.022847
v 0.012867 0.035886 0.023137
v 0.012795 0.035855 0.023440
v 0.013038 0.035762 0.023294
v 0.013556 0.035572 0.022866
v 0.013432 0.035520 0.023305
v 0.013349 0.035459 0.023645
v 0.013274 0.035400 0.023950
v 0.013731 0.034932 0.023968
v 0.010912 0.034929 0.028306
v 0.013543 0.035508 0.019189
v 0.012580 0.035320 0.016932
v 0.012408 0.035427 0.017097
v 0.013067 0.035693 0.019196
v 0.013052 0.035804 0.019649
v 0.014329 0.034929 0.018354
v 0.014199 0.034929 0.018092
v 0.014139 0.034929 0.017976
v 0.014058 0.034929 0.017828
v 0.014014 0.034929 0.017747
v 0.013860 0.034929 0.017468
v 0.013707 0.034934 0.017220
v 0.013534 0.034929 0.016912
v 0.013467 0.034929 0.016803
v 0.013303 0.034964 0.016674
v 0.012751 0.035961 0.019955
v 0.012954 0.035914 0.020112
v 0.012793 0.035859 0.019497
v 0.012471 0.035904 0.019196
v 0.012607 0.035954 0.019649
v 0.012817 0.035961 0.020112
v 0.012784 0.035961 0.022847
v 0.012627 0.035961 0.023228
v 0.012613 0.035955 0.023294
v 0.012465 0.035907 0.023761
v 0.012693 0.035806 0.023761
v 0.013099 0.035570 0.023782
v 0.012955 0.035490 0.024216
v 0.012862 0.035435 0.024478
v 0.013418 0.035086 0.024216
v 0.012565 0.035712 0.024173
v 0.012384 0.035875 0.023990
v 0.010577 0.034969 0.028576
v 0.010626 0.034929 0.028627
v 0.012610 0.035181 0.016456
v 0.012298 0.035392 0.016792
v 0.011989 0.035896 0.018413
v 0.012147 0.035805 0.018269
v 0.012294 0.035843 0.018648
v 0.012699 0.035826 0.019196
v 0.012393 0.035878 0.018951
v 0.013352 0.034929 0.016624
v 0.012150 0.035961 0.018980
v 0.012147 0.035920 0.018775
v 0.012548 0.035961 0.023375
v 0.012314 0.035961 0.023761
v 0.012129 0.035961 0.023979
v 0.011951 0.035961 0.024188
v 0.010329 0.035147 0.028328
v 0.009851 0.035321 0.028306
v 0.010286 0.035007 0.028751
v 0.010106 0.034963 0.029019
v 0.010381 0.034929 0.028849
v 0.013051 0.035014 0.016495
v 0.012888 0.034981 0.016162
v 0.009179 0.034957 0.011213
v 0.008501 0.035149 0.010975
v 0.008501 0.035280 0.011431
v 0.011872 0.035862 0.018107
v 0.008272 0.035417 0.011660
v 0.011860 0.035961 0.018557
v 0.012961 0.034929 0.016090
v 0.011671 0.035961 0.024480
v 0.009517 0.035379 0.028443
v 0.009871 0.035136 0.028784
v 0.009684 0.035430 0.028138
v 0.009871 0.035001 0.029106
v 0.009703 0.034929 0.029399
v 0.009977 0.034929 0.029194
v 0.010147 0.034929 0.029058
v 0.012771 0.034934 0.015856
v 0.009320 0.034929 0.011313
v 0.009214 0.034929 0.011178
v 0.009112 0.034929 0.011056
v 0.008984 0.034929 0.010905
v 0.008744 0.034967 0.010731
v 0.008850 0.035009 0.010975
v 0.008045 0.035286 0.010975
v 0.008475 0.035014 0.010554
v 0.008305 0.034974 0.010255
v 0.007856 0.034975 0.009795
v 0.008045 0.035148 0.010519
v 0.008090 0.035390 0.011411
v 0.007967 0.035443 0.011549
v 0.008090 0.035484 0.011843
v 0.008501 0.035586 0.012803
v 0.011708 0.035961 0.018380
v 0.011508 0.035961 0.024644
v 0.009212 0.035425 0.028574
v 0.009384 0.035465 0.028306
v 0.009384 0.035300 0.028751
v 0.011239 0.035961 0.024901
v 0.008959 0.035722 0.027872
v 0.008959 0.035582 0.028328
v 0.009596 0.034947 0.029438
v 0.009556 0.034929 0.029499
v 0.008791 0.034929 0.010683
v 0.008586 0.034929 0.010450
v 0.007588 0.035114 0.010064
v 0.007588 0.035245 0.010519
v 0.008522 0.034929 0.010378
v 0.008360 0.034929 0.010201
v 0.008090 0.034929 0.009917
v 0.007910 0.034929 0.009741
v 0.007588 0.034929 0.009536
v 0.007588 0.035002 0.009721
v 0.007720 0.035408 0.011246
v 0.007576 0.035457 0.011411
v 0.007588 0.035542 0.011889
v 0.008045 0.035578 0.012347
v 0.008722 0.035961 0.015254
v 0.008987 0.035961 0.015514
v 0.008959 0.035462 0.028661
v 0.008959 0.035366 0.028890
v 0.009432 0.035067 0.029268
v 0.008986 0.035961 0.026978
v 0.008852 0.035907 0.027307
v 0.008692 0.035866 0.027612
v 0.008525 0.035829 0.027881
v 0.008501 0.035701 0.028328
v 0.006086 0.035900 0.029532
v 0.009292 0.034991 0.029536
v 0.009054 0.034929 0.029817
v 0.008959 0.035215 0.029242
v 0.007115 0.035020 0.009586
v 0.007131 0.035155 0.010064
v 0.007416 0.035423 0.011178
v 0.007576 0.035367 0.011006
v 0.007413 0.034929 0.009455
v 0.007251 0.034933 0.009396
v 0.006952 0.034968 0.009363
v 0.007313 0.035423 0.011178
v 0.005870 0.035960 0.014810
v 0.007460 0.035961 0.014844
v 0.007867 0.035961 0.014860
v 0.008211 0.035961 0.014969
v 0.008485 0.035961 0.015104
v 0.008682 0.035405 0.028982
v 0.008523 0.035954 0.027416
v 0.006230 0.035961 0.029257
v 0.005870 0.035961 0.029514
v 0.005870 0.035920 0.029626
v 0.005870 0.035835 0.029826
v 0.005870 0.035689 0.030136
v 0.006119 0.035457 0.030465
v 0.008741 0.034963 0.029931
v 0.008782 0.034929 0.029974
v 0.007131 0.035263 0.010519
v 0.006860 0.034968 0.009363
v 0.007003 0.034929 0.009307
v 0.006799 0.034929 0.009296
v 0.007149 0.035368 0.011006
v 0.006675 0.035207 0.010519
v 0.006675 0.035110 0.010064
v 0.006407 0.034978 0.009763
v 0.006335 0.034929 0.009695
v 0.006287 0.034929 0.009806
v 0.006158 0.034929 0.010170
v 0.006079 0.034929 0.010539
v 0.006037 0.034929 0.010975
v 0.005870 0.034929 0.012877
v 0.005870 0.035481 0.030561
v 0.005870 0.035383 0.030760
v 0.006241 0.035095 0.031102
v 0.006675 0.035033 0.030971
v 0.006407 0.034949 0.031277
v 0.006529 0.034929 0.031242
v 0.006567 0.034935 0.009435
v 0.006695 0.035005 0.009608
v 0.006504 0.034929 0.009483
v 0.006172 0.034929 0.031438
v 0.005870 0.034940 0.031578
v 0.005870 0.035228 0.031050
v 0.006103 0.034995 0.031359
v 0.006370 0.034929 0.031331
v 0.005870 0.035028 0.031418
f 1 2 3
f 1 3 4
f 1 4 5
f 1 5 12
f 1 12 23
f 1 23 41
f 1 41 59
f 1 59 80
f 1 80 114
f 1 114 133
f 1 133 150
f 1 150 149
f 1 149 148
f 1 148 176
f 1 176 203
f 1 203 227
f 1 227 247
f 1 247 255
f 1 255 251
f 1 251 241
f 1 241 240
f 1 240 239
f 1 239 238
f 1 238 237
f 1 237 236
f 1 236 250
f 1 250 231
f 1 231 230
f 1 230 209
f 1 209 185
f 1 185 184
f 1 184 183
f 1 183 182
f 1 182 181
f 1 181 178
f 1 178 177
f 1 177 155
f 1 155 154
f 1 154 153
f 1 153 152
f 1 152 142
f 1 142 122
f 1 122 94
f 1 94 93
f 1 93 91
f 1 91 90
f 1 90 89
f 1 89 88
f 1 88 87
f 1 87 86
f 1 86 63
f 1 63 60
f 1 60 42
f 1 42 24
f 1 24 13
f 1 13 6
f 1 6 2
f 2 6 7
f 2 7 8
f 2 8 3
f 3 8 9
f 3 9 4
f 4 9 10
f 4 10 5
f 5 10 11
f 5 11 12
f 6 13 14
f 6 14 15
f 6 15 16
f 6 16 7
f 7 16 17
f 7 17 8
f 8 17 18
f 8 18 19
f 8 19 9
f 9 20 21
f 9 21 10
f 9 19 20
f 10 21 11
f 11 21 12
f 12 21 22
f 12 22 23
f 13 24 14
f 14 25 26
f 14 26 15
f 14 24 27
f 14 27 28
f 14 28 25
f 15 26 16
f 16 26 25
f 16 25 29
f 16 29 18
f 16 18 17
f 18 29 30
f 18 30 31
f 18 31 19
f 19 31 32
f 19 32 20
f 20 32 33
f 20 33 34
f 20 34 35
f 20 35 21
f 21 35 36
f 21 36 37
f 21 37 38
f 21 38 39
f 21 39 22
f 22 39 40
f 22 40 23
f 23 40 41
f 24 42 27
f 25 28 43
f 25 43 44
f 25 44 29
f 27 42 45
f 27 45 46
f 27 46 44
f 27 44 43
f 27 43 28
f 29 44 47
f 29 47 30
f 30 48 31
f 30 47 49
f 30 49 48
f 31 50 32
f 31 48 50
f 32 51 34
f 32 34 33
f 32 50 51
f 34 52 53
f 34 53 35
f 34 51 52
f 35 53 54
f 35 54 36
f 36 54 55
f 36 55 37
f 37 55 56
f 37 56 57
f 37 57 38
f 38 57 39
f 39 57 40
f 40 57 56
f 40 56 58
f 40 58 41
f 41 58 59
f 42 60 45
f 44 61 47
f 44 46 62
f 44 62 61
f 45 60 46
f 46 60 63
f 46 63 62
f 47 64 65
f 47 65 49
f 47 61 64
f 48 49 66
f 48 66 67
f 48 67 68
f 48 68 50
f 49 65 66
f 50 68 51
f 51 68 67
f 51 67 52
f 52 67 101
f 52 101 96
f 52 96 123
f 52 123 141
f 52 141 167
f 52 167 192
f 52 192 191
f 52 191 217
f 52 217 216
f 52 216 215
f 52 215 214
f 52 214 221
f 52 221 220
f 52 220 196
f 52 196 172
f 52 172 168
f 52 168 143
f 52 143 128
f 52 128 127
f 52 127 126
f 52 126 125
f 52 125 103
f 52 103 102
f 52 102 69
f 52 69 70
f 52 70 54
f 52 54 53
f 54 70 71
f 54 71 55
f 55 71 72
f 55 72 73
f 55 73 74
f 55 74 75
f 55 75 56
f 56 75 74
f 56 74 76
f 56 76 77
f 56 77 58
f 58 77 78
f 58 78 59
f 59 78 79
f 59 79 80
f 61 62 81
f 61 81 82
f 61 82 83
f 61 83 84
f 61 84 85
f 61 85 64
f 62 63 86
f 62 86 87
f 62 87 88
f 62 88 89
f 62 89 90
f 62 90 91
f 62 91 92
f 62 92 93
f 62 93 94
f 62 94 95
f 62 95 82
f 62 82 81
f 64 96 97
f 64 97 65
f 64 85 98
f 64 98 99
f 64 99 100
f 64 100 96
f 65 97 66
f 66 97 101
f 66 101 67
f 69 102 71
f 69 71 70
f 71 102 72
f 72 103 104
f 72 104 73
f 72 102 103
f 73 104 105
f 73 105 106
f 73 106 107
f 73 107 74
f 74 107 76
f 76 107 77
f 77 107 78
f 78 107 108
f 78 108 109
f 78 109 80
f 78 80 110
f 78 110 79
f 79 110 80
f 80 109 111
f 80 111 112
f 80 112 113
f 80 113 114
f 82 95 115
f 82 115 116
f 82 116 83
f 83 116 117
f 83 117 118
f 83 118 119
f 83 119 84
f 84 120 85
f 84 119 120
f 85 120 121
f 85 121 98
f 91 93 92
f 94 122 95
f 95 122 115
f 96 101 97
f 96 100 123
f 98 121 99
f 99 121 117
f 99 117 124
f 99 124 100
f 100 124 123
f 103 125 104
f 104 125 105
f 105 125 126
f 105 126 112
f 105 112 106
f 106 112 111
f 106 111 108
f 106 108 107
f 108 111 109
f 112 126 127
f 112 127 128
f 112 128 129
f 112 129 113
f 113 129 130
f 113 130 131
f 113 131 132
f 113 132 114
f 114 132 133
f 115 122 134
f 115 134 135
f 115 135 136
f 115 136 137
f 115 137 138
f 115 138 116
f 116 139 117
f 116 138 140
f 116 140 139
f 117 139 141
f 117 141 123
f 117 123 124
f 117 121 119
f 117 119 118
f 119 121 120
f 122 142 135
f 122 135 134
f 128 143 130
f 128 130 129
f 130 144 145
f 130 145 131
f 130 143 146
f 130 146 144
f 131 145 132
f 132 147 148
f 132 148 149
f 132 149 150
f 132 150 133
f 132 145 147
f 135 142 151
f 135 151 136
f 136 152 153
f 136 153 154
f 136 154 155
f 136 155 156
f 136 156 157
f 136 157 137
f 136 151 142
f 136 142 152
f 137 158 140
f 137 140 138
f 137 157 159
f 137 159 160
f 137 160 161
f 137 161 162
f 137 162 158
f 139 140 141
f 140 158 163
f 140 163 164
f 140 164 165
f 140 165 166
f 140 166 167
f 140 167 141
f 143 168 146
f 144 169 145
f 144 146 170
f 144 170 169
f 145 169 171
f 145 171 147
f 146 168 172
f 146 172 173
f 146 173 174
f 146 174 170
f 147 175 148
f 147 171 175
f 148 175 176
f 155 177 156
f 156 177 178
f 156 178 159
f 156 159 157
f 158 162 161
f 158 161 179
f 158 179 180
f 158 180 163
f 159 178 181
f 159 181 160
f 160 181 182
f 160 182 183
f 160 183 161
f 161 183 184
f 161 184 185
f 161 185 186
f 161 186 179
f 163 180 187
f 163 187 164
f 164 187 188
f 164 188 189
f 164 189 165
f 165 189 190
f 165 190 166
f 166 190 191
f 166 191 192
f 166 192 167
f 169 170 174
f 169 174 193
f 169 193 194
f 169 194 171
f 171 194 195
f 171 195 175
f 172 196 197
f 172 197 198
f 172 198 173
f 173 198 199
f 173 199 200
f 173 200 174
f 174 200 201
f 174 201 193
f 175 202 203
f 175 203 176
f 175 195 204
f 175 204 202
f 179 186 205
f 179 205 180
f 180 205 206
f 180 206 207
f 180 207 208
f 180 208 187
f 185 209 186
f 186 209 210
f 186 210 211
f 186 211 205
f 187 208 207
f 187 207 188
f 188 207 189
f 189 207 212
f 189 212 213
f 189 213 214
f 189 214 215
f 189 215 216
f 189 216 190
f 190 216 217
f 190 217 191
f 193 218 194
f 193 201 218
f 194 218 204
f 194 204 195
f 196 219 197
f 196 220 219
f 197 219 198
f 198 219 220
f 198 220 199
f 199 220 200
f 200 220 201
f 201 220 221
f 201 221 222
f 201 222 223
f 201 223 218
f 202 223 203
f 202 204 223
f 203 223 224
f 203 224 225
f 203 225 226
f 203 226 227
f 204 218 223
f 205 211 206
f 206 228 212
f 206 212 207
f 206 211 229
f 206 229 228
f 209 230 210
f 210 230 211
f 211 230 231
f 211 231 229
f 212 228 232
f 212 232 213
f 213 221 214
f 213 232 233
f 213 233 234
f 213 234 235
f 213 235 236
f 213 236 237
f 213 237 238
f 213 238 239
f 213 239 240
f 213 240 241
f 213 241 252
f 213 252 256
f 213 256 253
f 213 253 243
f 213 243 242
f 213 242 224
f 213 224 223
f 213 223 222
f 213 222 221
f 224 242 225
f 225 242 243
f 225 243 226
f 226 243 227
f 227 243 244
f 227 244 245
f 227 245 246
f 227 246 247
f 228 229 234
f 228 234 232
f 229 231 248
f 229 248 249
f 229 249 234
f 231 250 248
f 232 234 233
f 234 249 248
f 234 248 235
f 235 248 250
f 235 250 236
f 241 251 252
f 243 253 244
f 244 254 246
f 244 246 245
f 244 253 254
f 246 255 247
f 246 254 251
f 246 251 255
f 251 254 252
f 252 254 256
f 253 256 254
