v -0.001615 0.035961 0.012560
v -0.002419 0.035963 0.012787
v -0.002004 0.036004 0.012723
v -0.000770 0.036972 0.014153
v -0.000176 0.036972 0.014037
v -0.001091 0.035961 0.012571
v -0.003844 0.035961 0.013278
v -0.002453 0.036227 0.013292
v -0.002917 0.036124 0.013259
v -0.001096 0.036972 0.014298
v -0.002917 0.036286 0.013577
v -0.003272 0.036363 0.013878
v 0.000284 0.036972 0.014053
v 0.001227 0.036972 0.014118
v 0.001673 0.036972 0.014175
v 0.002220 0.035961 0.013149
v -0.006572 0.035961 0.014696
v -0.001592 0.036972 0.014599
v -0.003405 0.036433 0.014137
v -0.003830 0.036520 0.014629
v -0.004486 0.036785 0.015792
v 0.002072 0.036972 0.014265
v 0.002452 0.036972 0.014371
v 0.002704 0.036972 0.014445
v 0.003001 0.036972 0.014533
v 0.007864 0.035961 0.014859
v -0.007016 0.035961 0.015085
v -0.005310 0.036759 0.016342
v -0.005005 0.036795 0.016202
v -0.004743 0.036754 0.015882
v -0.002104 0.036972 0.015080
v -0.005174 0.036816 0.016478
v 0.003572 0.036972 0.014719
v 0.008208 0.035961 0.014968
v -0.005631 0.036711 0.016478
v -0.008974 0.035961 0.017359
v -0.008856 0.036120 0.017827
v -0.005463 0.036797 0.016644
v -0.005201 0.036858 0.016913
v -0.004743 0.036890 0.016913
v -0.004743 0.036914 0.017371
v -0.004743 0.036972 0.018504
v 0.003838 0.036972 0.014820
v 0.008481 0.035961 0.015101
v -0.010162 0.035961 0.021482
v -0.009261 0.035961 0.017795
v -0.008628 0.036331 0.018510
v -0.005554 0.036808 0.016913
v -0.008398 0.036678 0.020568
v -0.007794 0.036796 0.020750
v -0.007485 0.036972 0.023812
v 0.004296 0.036972 0.015069
v 0.008718 0.035961 0.015253
v 0.004704 0.036972 0.015313
v -0.009964 0.035961 0.025338
v -0.008002 0.036972 0.025612
v -0.008856 0.036558 0.021024
v -0.008810 0.036229 0.018329
v -0.008398 0.036718 0.021024
v -0.008061 0.036774 0.021024
v -0.007633 0.036972 0.024218
v 0.008984 0.035961 0.015513
v 0.004975 0.036972 0.015506
v 0.005514 0.036972 0.015987
v -0.009907 0.035961 0.025599
v -0.007952 0.036972 0.025969
v -0.007938 0.036972 0.025136
v 0.011708 0.035961 0.018379
v 0.005876 0.036972 0.016411
v 0.011038 0.036338 0.019395
v 0.011696 0.036042 0.018739
v -0.009550 0.035961 0.026131
v -0.007492 0.036972 0.026923
v -0.007733 0.036972 0.026501
v 0.011858 0.035961 0.018557
v 0.006234 0.036972 0.016913
v 0.010781 0.036437 0.019654
v 0.011136 0.036363 0.019654
v 0.011696 0.036132 0.019196
v 0.012154 0.036095 0.019654
v -0.009290 0.035961 0.026390
v -0.007214 0.036972 0.027288
v 0.012154 0.036003 0.019196
v 0.012149 0.035961 0.018980
v 0.006559 0.036972 0.017371
v 0.010781 0.036500 0.020110
v 0.011457 0.036328 0.019912
v 0.011364 0.036305 0.019654
v 0.011696 0.036219 0.019654
v 0.012154 0.036169 0.020110
v 0.012696 0.035996 0.020071
v 0.012591 0.035961 0.019664
v -0.007505 0.035961 0.027738
v -0.006827 0.036920 0.027671
v -0.006975 0.036972 0.027516
v 0.006874 0.036972 0.017827
v 0.010781 0.036531 0.020568
v 0.011241 0.036438 0.020568
v 0.011279 0.036389 0.020081
v 0.007145 0.036972 0.018282
v 0.007623 0.036972 0.019128
v 0.007898 0.036972 0.019654
v 0.008335 0.036972 0.020568
v 0.010325 0.036619 0.020568
v 0.011815 0.036304 0.020568
v 0.011598 0.036316 0.020147
v 0.012154 0.036217 0.020568
v 0.012609 0.036082 0.020568
v 0.012974 0.035961 0.020592
v -0.007250 0.035961 0.027926
v -0.006715 0.035961 0.028267
v -0.005354 0.036735 0.028536
v -0.005258 0.036972 0.028391
v 0.011241 0.036466 0.021024
v 0.011928 0.036332 0.021238
v 0.011587 0.036360 0.020568
v 0.008426 0.036972 0.021024
v 0.009572 0.036776 0.021024
v 0.009870 0.036722 0.021024
v 0.012111 0.036269 0.021061
v 0.012609 0.036124 0.021024
v 0.013078 0.035961 0.021017
v -0.005800 0.035961 0.028714
v -0.005395 0.035961 0.028905
v -0.004812 0.035961 0.029167
v -0.004381 0.035961 0.029333
v -0.003830 0.036194 0.029397
v -0.003527 0.036290 0.029446
v -0.004900 0.036972 0.028527
v 0.011241 0.036473 0.021482
v 0.011696 0.036384 0.021482
v 0.011931 0.036333 0.021482
v 0.012158 0.036272 0.021482
v 0.012609 0.036145 0.021482
v 0.008326 0.036972 0.021482
v 0.009538 0.036774 0.021482
v 0.009870 0.036718 0.021482
v 0.013099 0.035961 0.021482
v -0.002751 0.035961 0.029915
v -0.003222 0.036359 0.029494
v -0.004666 0.036972 0.028598
v 0.011241 0.036467 0.021932
v 0.011733 0.036372 0.021909
v 0.011931 0.036332 0.021743
v 0.012111 0.036277 0.021909
v 0.012609 0.036124 0.021932
v 0.008039 0.036972 0.022389
v 0.010325 0.036610 0.022390
v 0.013030 0.035961 0.021932
v 0.000280 0.035961 0.030435
v -0.002478 0.035962 0.029986
v -0.002460 0.036195 0.029823
v -0.002917 0.036411 0.029537
v -0.004272 0.036972 0.028709
v 0.011241 0.036450 0.022390
v 0.011630 0.036371 0.022390
v 0.011910 0.036327 0.022049
v 0.012154 0.036232 0.022390
v 0.012609 0.036082 0.022390
v 0.010325 0.036577 0.022846
v 0.007791 0.036972 0.022846
v 0.012921 0.035961 0.022390
v 0.001646 0.035961 0.030611
v 0.000280 0.036183 0.030256
v -0.001547 0.036301 0.029906
v -0.002004 0.036259 0.029874
v -0.002004 0.036031 0.030023
v -0.002460 0.036481 0.029595
v -0.003792 0.036972 0.028833
v 0.010781 0.036497 0.022846
v 0.011241 0.036409 0.022846
v 0.011537 0.036348 0.022846
v 0.011858 0.036314 0.022390
v 0.012154 0.036182 0.022846
v 0.012696 0.035995 0.022846
v 0.007586 0.036972 0.023105
v 0.007420 0.036972 0.023304
v 0.010325 0.036514 0.023304
v 0.010781 0.036440 0.023304
v 0.012611 0.035961 0.023262
v 0.001646 0.036038 0.030546
v 0.003016 0.035961 0.030592
v 0.002103 0.036006 0.030622
v -0.000176 0.036404 0.030001
v -0.002004 0.036527 0.029644
v -0.002460 0.036709 0.029399
v -0.002917 0.036930 0.029070
v -0.002460 0.036948 0.029140
v -0.002004 0.036957 0.029190
v -0.001130 0.036972 0.029275
v 0.011314 0.036338 0.023338
v 0.011478 0.036334 0.023099
v 0.011764 0.036289 0.022846
v 0.012154 0.036112 0.023304
v 0.011655 0.036261 0.023273
v 0.007015 0.036972 0.023761
v 0.003306 0.036972 0.027871
v 0.011086 0.036345 0.023612
v 0.012233 0.035990 0.023761
v 0.011951 0.035961 0.024190
v 0.000280 0.036428 0.030030
v 0.003383 0.035961 0.030521
v 0.002103 0.036445 0.030090
v 0.002103 0.036280 0.030318
v 0.002559 0.035994 0.030610
v 0.001646 0.036266 0.030313
v -0.001663 0.036775 0.029457
v -0.002004 0.036755 0.029436
v -0.001358 0.036791 0.029475
v -0.000633 0.036829 0.029514
v -0.000633 0.036972 0.029330
v 0.011238 0.036285 0.023762
v 0.011696 0.036166 0.023761
v 0.002823 0.036972 0.028329
v 0.010933 0.036318 0.023916
v 0.011696 0.036044 0.024218
v 0.011671 0.035961 0.024480
v 0.003929 0.035961 0.030403
v 0.001953 0.036808 0.029508
v 0.001646 0.036692 0.029765
v 0.001646 0.036464 0.030085
v 0.004387 0.035961 0.030293
v -0.000176 0.036910 0.029455
v 0.000280 0.036913 0.029471
v 0.000737 0.036972 0.029376
v 0.011241 0.036184 0.024218
v 0.002313 0.036972 0.028799
v 0.010779 0.036283 0.024206
v 0.011241 0.036045 0.024675
v 0.011507 0.035961 0.024646
v 0.002106 0.036873 0.029257
v 0.001646 0.036972 0.029241
v 0.001646 0.036823 0.029537
v 0.004783 0.035961 0.030152
v 0.004843 0.036138 0.029697
v 0.000737 0.036851 0.029558
v 0.001193 0.036972 0.029326
v 0.005562 0.036338 0.028585
v 0.008520 0.035961 0.027392
v 0.008984 0.035961 0.026978
v 0.002103 0.036972 0.028976
v 0.011241 0.035961 0.024903
v 0.004503 0.036313 0.029415
v 0.004886 0.036290 0.029254
v 0.005669 0.035961 0.029653
v 0.005300 0.035999 0.029791
v 0.005300 0.036203 0.029241
v 0.005300 0.036305 0.028919
v 0.005731 0.036251 0.028755
v 0.005756 0.036093 0.029241
v 0.006225 0.035961 0.029259
v 0.005068 0.036330 0.029010
f 1 2 3
f 1 3 4
f 1 4 5
f 1 5 6
f 1 6 16
f 1 16 26
f 1 26 34
f 1 34 44
f 1 44 53
f 1 53 62
f 1 62 68
f 1 68 75
f 1 75 84
f 1 84 92
f 1 92 109
f 1 109 122
f 1 122 138
f 1 138 149
f 1 149 162
f 1 162 180
f 1 180 200
f 1 200 217
f 1 217 230
f 1 230 242
f 1 242 240
f 1 240 239
f 1 239 251
f 1 251 245
f 1 245 234
f 1 234 222
f 1 222 218
f 1 218 202
f 1 202 182
f 1 182 163
f 1 163 150
f 1 150 139
f 1 139 126
f 1 126 125
f 1 125 124
f 1 124 123
f 1 123 111
f 1 111 110
f 1 110 93
f 1 93 81
f 1 81 72
f 1 72 65
f 1 65 55
f 1 55 45
f 1 45 36
f 1 36 27
f 1 27 17
f 1 17 7
f 1 7 2
f 2 8 3
f 2 7 9
f 2 9 8
f 3 8 4
f 4 10 18
f 4 18 31
f 4 31 42
f 4 42 51
f 4 51 61
f 4 61 67
f 4 67 56
f 4 56 66
f 4 66 74
f 4 74 73
f 4 73 82
f 4 82 95
f 4 95 113
f 4 113 129
f 4 129 141
f 4 141 154
f 4 154 169
f 4 169 190
f 4 190 211
f 4 211 225
f 4 225 237
f 4 237 232
f 4 232 241
f 4 241 227
f 4 227 214
f 4 214 197
f 4 197 196
f 4 196 177
f 4 177 176
f 4 176 161
f 4 161 147
f 4 147 135
f 4 135 117
f 4 117 103
f 4 103 102
f 4 102 101
f 4 101 100
f 4 100 96
f 4 96 85
f 4 85 76
f 4 76 69
f 4 69 64
f 4 64 63
f 4 63 54
f 4 54 52
f 4 52 43
f 4 43 33
f 4 33 25
f 4 25 24
f 4 24 23
f 4 23 22
f 4 22 15
f 4 15 14
f 4 14 13
f 4 13 5
f 4 8 11
f 4 11 12
f 4 12 10
f 5 13 6
f 6 13 14
f 6 14 15
f 6 15 16
f 7 17 12
f 7 12 11
f 7 11 9
f 8 9 11
f 10 12 19
f 10 19 20
f 10 20 21
f 10 21 18
f 12 17 19
f 15 22 16
f 16 22 23
f 16 23 24
f 16 24 25
f 16 25 26
f 17 27 28
f 17 28 29
f 17 29 30
f 17 30 21
f 17 21 20
f 17 20 19
f 18 21 29
f 18 29 32
f 18 32 31
f 21 30 29
f 25 33 34
f 25 34 26
f 27 35 28
f 27 36 37
f 27 37 35
f 28 38 29
f 28 35 38
f 29 38 32
f 31 32 39
f 31 39 40
f 31 40 41
f 31 41 42
f 32 38 39
f 33 43 34
f 34 43 44
f 35 37 38
f 36 45 46
f 36 46 37
f 37 46 47
f 37 47 38
f 38 48 39
f 38 47 49
f 38 49 48
f 39 48 50
f 39 50 51
f 39 51 42
f 39 42 41
f 39 41 40
f 43 52 44
f 44 52 54
f 44 54 53
f 45 55 56
f 45 56 57
f 45 57 46
f 46 57 58
f 46 58 47
f 47 58 57
f 47 57 49
f 48 49 50
f 49 57 59
f 49 59 50
f 50 59 60
f 50 60 61
f 50 61 51
f 53 54 63
f 53 63 64
f 53 64 62
f 55 65 66
f 55 66 56
f 56 59 57
f 56 67 59
f 59 67 60
f 60 67 61
f 62 64 68
f 64 69 70
f 64 70 71
f 64 71 68
f 65 72 73
f 65 73 74
f 65 74 66
f 68 71 75
f 69 76 77
f 69 77 78
f 69 78 70
f 70 78 79
f 70 79 71
f 71 79 80
f 71 80 75
f 72 81 82
f 72 82 73
f 75 80 83
f 75 83 84
f 76 85 77
f 77 86 78
f 77 85 86
f 78 86 87
f 78 87 88
f 78 88 79
f 79 88 89
f 79 89 80
f 80 90 91
f 80 91 92
f 80 92 83
f 80 89 87
f 80 87 90
f 81 93 94
f 81 94 95
f 81 95 82
f 83 92 84
f 85 96 86
f 86 97 98
f 86 98 99
f 86 99 87
f 86 96 100
f 86 100 101
f 86 101 102
f 86 102 103
f 86 103 104
f 86 104 97
f 87 99 105
f 87 105 106
f 87 106 107
f 87 107 90
f 87 89 88
f 90 107 108
f 90 108 91
f 91 109 92
f 91 108 109
f 93 110 94
f 94 110 111
f 94 111 112
f 94 112 113
f 94 113 95
f 97 104 114
f 97 114 98
f 98 114 115
f 98 115 116
f 98 116 99
f 99 116 105
f 103 117 118
f 103 118 104
f 104 118 119
f 104 119 114
f 105 116 115
f 105 115 107
f 105 107 106
f 107 115 120
f 107 120 121
f 107 121 108
f 108 121 109
f 109 121 122
f 111 123 112
f 112 124 125
f 112 125 126
f 112 126 127
f 112 127 128
f 112 128 129
f 112 129 113
f 112 123 124
f 114 130 131
f 114 131 115
f 114 119 130
f 115 132 133
f 115 133 134
f 115 134 121
f 115 121 120
f 115 131 132
f 117 135 136
f 117 136 137
f 117 137 118
f 118 137 130
f 118 130 119
f 121 134 122
f 122 134 138
f 126 139 127
f 127 139 128
f 128 139 140
f 128 140 129
f 129 140 141
f 130 137 142
f 130 142 143
f 130 143 131
f 131 143 144
f 131 144 132
f 132 144 133
f 133 144 134
f 134 144 145
f 134 145 146
f 134 146 138
f 135 147 148
f 135 148 136
f 136 148 137
f 137 148 142
f 138 146 149
f 139 150 151
f 139 151 152
f 139 152 140
f 140 152 153
f 140 153 154
f 140 154 141
f 142 148 155
f 142 155 143
f 143 155 156
f 143 156 157
f 143 157 144
f 144 157 145
f 145 157 158
f 145 158 146
f 146 159 149
f 146 158 159
f 147 160 148
f 147 161 160
f 148 160 155
f 149 159 162
f 150 163 164
f 150 164 165
f 150 165 166
f 150 166 167
f 150 167 151
f 151 167 166
f 151 166 152
f 152 168 153
f 152 166 168
f 153 168 154
f 154 168 169
f 155 160 170
f 155 170 171
f 155 171 156
f 156 171 172
f 156 172 173
f 156 173 157
f 157 173 158
f 158 173 174
f 158 174 159
f 159 175 162
f 159 174 175
f 160 161 176
f 160 176 177
f 160 177 178
f 160 178 179
f 160 179 170
f 162 175 180
f 163 181 164
f 163 182 183
f 163 183 181
f 164 184 165
f 164 181 184
f 165 184 185
f 165 185 166
f 166 185 168
f 168 185 186
f 168 186 169
f 169 187 188
f 169 188 189
f 169 189 190
f 169 186 187
f 170 179 191
f 170 191 171
f 171 191 192
f 171 192 172
f 172 192 193
f 172 193 173
f 173 193 174
f 174 194 175
f 174 193 195
f 174 195 194
f 175 194 180
f 177 196 178
f 178 196 197
f 178 197 179
f 179 198 191
f 179 197 198
f 180 199 200
f 180 194 199
f 181 183 201
f 181 201 184
f 182 202 203
f 182 203 204
f 182 204 205
f 182 205 183
f 183 205 204
f 183 204 206
f 183 206 201
f 184 201 207
f 184 207 208
f 184 208 185
f 185 208 186
f 186 208 188
f 186 188 187
f 188 208 189
f 189 208 207
f 189 207 209
f 189 209 210
f 189 210 190
f 190 210 211
f 191 195 192
f 191 198 212
f 191 212 195
f 192 195 193
f 194 195 213
f 194 213 199
f 195 212 213
f 197 214 215
f 197 215 198
f 198 215 212
f 199 213 216
f 199 216 200
f 200 216 217
f 201 210 209
f 201 209 207
f 201 206 210
f 202 218 203
f 203 219 220
f 203 220 221
f 203 221 204
f 203 218 222
f 203 222 219
f 204 221 206
f 206 221 223
f 206 223 210
f 210 223 211
f 211 223 224
f 211 224 225
f 212 215 226
f 212 226 213
f 213 226 216
f 214 227 215
f 215 228 226
f 215 227 228
f 216 226 229
f 216 229 230
f 216 230 217
f 219 231 232
f 219 232 233
f 219 233 220
f 219 222 234
f 219 234 235
f 219 235 231
f 220 233 225
f 220 225 236
f 220 236 221
f 221 236 224
f 221 224 223
f 224 236 225
f 225 233 237
f 226 228 227
f 226 227 238
f 226 238 239
f 226 239 240
f 226 240 229
f 227 241 238
f 229 242 230
f 229 240 242
f 231 241 232
f 231 235 243
f 231 243 244
f 231 244 241
f 232 237 233
f 234 245 246
f 234 246 235
f 235 246 247
f 235 247 244
f 235 244 243
f 238 248 249
f 238 249 239
f 238 241 248
f 239 249 250
f 239 250 251
f 241 244 252
f 241 252 248
f 244 247 252
f 245 251 250
f 245 250 247
f 245 247 246
f 247 248 252
f 247 250 248
f 248 250 249
