v -0.006639 0.036972 0.022363
v -0.007029 0.036972 0.022981
v -0.006806 0.037704 0.025356
v -0.005420 0.038155 0.025424
v -0.005115 0.038201 0.025250
v -0.004288 0.038391 0.025133
v -0.003168 0.038619 0.024882
v -0.003342 0.038522 0.024709
v -0.002918 0.038586 0.024591
v -0.005619 0.037171 0.022363
v 0.008050 0.036972 0.022363
v -0.007216 0.036972 0.023306
v -0.007429 0.036972 0.023707
v -0.007484 0.036972 0.023814
v -0.007085 0.037623 0.025590
v -0.006857 0.037724 0.025590
v -0.006571 0.037823 0.025590
v -0.005241 0.038213 0.025581
v -0.004744 0.038343 0.025590
v -0.006114 0.037965 0.025590
v -0.006571 0.037875 0.026046
v -0.004288 0.038438 0.025590
v -0.003168 0.038619 0.024942
v -0.002918 0.038623 0.024819
v -0.002003 0.038630 0.024405
v -0.002321 0.038621 0.024431
v -0.002626 0.038610 0.024508
v -0.005552 0.037180 0.022363
v -0.002003 0.038537 0.024176
v 0.008041 0.036972 0.022393
v 0.003902 0.037724 0.022363
v -0.001252 0.038625 0.024520
v -0.007634 0.036972 0.024220
v -0.007513 0.037366 0.025626
v -0.007148 0.037645 0.026046
v -0.006919 0.037759 0.026046
v -0.005446 0.038162 0.025847
v -0.006889 0.037751 0.026424
v -0.004288 0.038345 0.026046
v -0.003831 0.038493 0.025590
v -0.005178 0.038191 0.026017
v -0.004744 0.038274 0.026046
v -0.003374 0.038522 0.025590
v -0.002918 0.038595 0.025202
v -0.002918 0.038623 0.024974
v -0.001991 0.038630 0.024705
v -0.001548 0.038634 0.024387
v -0.001548 0.038558 0.024159
v -0.005239 0.037214 0.022363
v -0.001548 0.038367 0.023763
v -0.001091 0.038414 0.023763
v 0.007794 0.036972 0.022850
v -0.000633 0.038494 0.024677
v 0.001042 0.038176 0.024561
v 0.003504 0.037788 0.022363
v -0.001252 0.038625 0.024408
v -0.001091 0.038504 0.025133
v -0.001097 0.038577 0.024674
v -0.001548 0.038634 0.024596
v -0.001548 0.038603 0.024824
v -0.002003 0.038526 0.025590
v -0.001548 0.038556 0.025133
v -0.001548 0.038483 0.025590
v -0.007942 0.036972 0.025142
v -0.007684 0.037224 0.025499
v -0.007715 0.037247 0.025804
v -0.007396 0.037371 0.026503
v -0.007037 0.037620 0.026547
v -0.007715 0.037247 0.025829
v -0.007513 0.037383 0.026006
v -0.006615 0.037793 0.026547
v -0.006796 0.037700 0.026728
v -0.003831 0.038131 0.027088
v -0.003831 0.038284 0.026503
v -0.003374 0.038341 0.026503
v -0.003831 0.038400 0.026046
v -0.004744 0.038186 0.026374
v -0.003374 0.038442 0.026046
v -0.005314 0.038138 0.026151
v -0.005010 0.038164 0.026296
v -0.002918 0.038468 0.026046
v -0.002918 0.038542 0.025590
v -0.002461 0.038547 0.025590
v -0.002461 0.038596 0.025210
v -0.002461 0.038624 0.024981
v -0.000633 0.038416 0.023763
v -0.001091 0.038233 0.023456
v -0.000633 0.038253 0.023420
v -0.003374 0.037366 0.022363
v 0.002591 0.037842 0.022363
v 0.007587 0.036972 0.023105
v 0.000278 0.038256 0.025133
v 0.000610 0.038182 0.025133
v 0.000519 0.038161 0.025379
v 0.000398 0.038136 0.025684
v 0.000735 0.037995 0.026046
v 0.001191 0.037809 0.026503
v 0.001015 0.037713 0.027247
v -0.000633 0.038429 0.025133
v -0.000178 0.038347 0.025133
v 0.000278 0.038315 0.024677
v 0.000764 0.038215 0.024699
v 0.003476 0.037792 0.022363
v 0.003047 0.037832 0.022363
v -0.001091 0.038422 0.025590
v -0.002134 0.038620 0.024952
v -0.001991 0.038590 0.025116
v -0.002461 0.038474 0.026046
v -0.002003 0.038448 0.026046
v -0.001548 0.038399 0.026046
v -0.008003 0.036972 0.025613
v -0.007323 0.037304 0.026832
v -0.007682 0.037209 0.026132
v -0.007950 0.036972 0.025982
v -0.007624 0.037114 0.026503
v -0.007954 0.036972 0.025959
v -0.005178 0.038086 0.026471
v -0.007051 0.037421 0.026974
v -0.006914 0.037328 0.027292
v -0.006615 0.037637 0.026952
v -0.004288 0.037758 0.027770
v -0.004288 0.037917 0.027416
v -0.003831 0.038002 0.027416
v -0.003374 0.038154 0.027171
v -0.003374 0.038220 0.026943
v -0.004436 0.038146 0.026690
v -0.004744 0.038122 0.026603
v -0.002918 0.038368 0.026503
v 0.007423 0.036972 0.023306
v 0.000258 0.038188 0.025555
v 0.000578 0.037717 0.027719
v 0.000732 0.037743 0.027406
v 0.000735 0.037911 0.026503
v 0.000093 0.038166 0.025860
v 0.000883 0.037683 0.027552
v 0.001177 0.037642 0.027406
v -0.000633 0.038348 0.025590
v -0.000178 0.038270 0.025590
v -0.001091 0.038335 0.026046
v -0.000845 0.038161 0.026747
v -0.002461 0.038365 0.026503
v -0.002003 0.038347 0.026503
v -0.001452 0.038154 0.027168
v -0.001548 0.038309 0.026503
v -0.001091 0.038135 0.027071
v -0.001091 0.038180 0.026843
v -0.001091 0.038246 0.026503
v -0.007219 0.037190 0.027136
v -0.007734 0.036972 0.026503
v -0.007500 0.036972 0.026916
v -0.006975 0.036972 0.027517
v -0.006795 0.036972 0.027657
v -0.006674 0.037172 0.027597
v -0.006542 0.037369 0.027433
v -0.007038 0.037028 0.027425
v -0.004288 0.037650 0.027998
v -0.003831 0.037800 0.027848
v -0.003374 0.038048 0.027416
v -0.003140 0.038158 0.027187
v -0.002959 0.038219 0.027005
v -0.001757 0.038158 0.027189
v 0.007015 0.036972 0.023763
v 0.001648 0.037524 0.027416
v -0.000371 0.038164 0.026307
v -0.000633 0.037993 0.027416
v 0.000255 0.037740 0.027872
v 0.000391 0.037684 0.028023
v 0.000732 0.037645 0.027872
v -0.000633 0.038260 0.026046
v -0.000669 0.038183 0.026477
v -0.001582 0.038098 0.027372
v -0.001091 0.038057 0.027416
v -0.007488 0.036972 0.026933
v -0.007285 0.036972 0.027220
v -0.007147 0.036972 0.027357
v -0.005258 0.036972 0.028391
v -0.006369 0.037254 0.027653
v -0.005234 0.037031 0.028355
v -0.005418 0.037239 0.028095
v -0.005115 0.037298 0.028172
v -0.004744 0.037356 0.028248
v -0.004271 0.037393 0.028359
v -0.003831 0.037689 0.028077
v -0.003374 0.037823 0.027864
v -0.002959 0.038084 0.027375
v -0.002835 0.038160 0.027196
v -0.002550 0.038160 0.027196
v 0.002384 0.037260 0.027704
v 0.003309 0.036972 0.027873
v 0.001191 0.037529 0.027873
v 0.001648 0.037411 0.027873
v 0.002096 0.037297 0.027863
v 0.000086 0.037707 0.028115
v 0.000735 0.037510 0.028330
v 0.001476 0.037259 0.028602
v 0.001191 0.037406 0.028330
v -0.002021 0.038097 0.027372
v -0.001091 0.037878 0.027873
v -0.000633 0.037857 0.027873
v -0.004901 0.036972 0.028528
v -0.004744 0.037129 0.028476
v -0.004411 0.037208 0.028531
v -0.004106 0.037256 0.028567
v -0.003831 0.037493 0.028330
v -0.003374 0.037696 0.028093
v -0.002003 0.037867 0.027873
v -0.000633 0.037040 0.029243
v -0.001091 0.037214 0.028969
v -0.000633 0.037228 0.028988
v -0.000178 0.037237 0.029003
v -0.001548 0.037876 0.027873
v -0.002423 0.038092 0.027375
v 0.002241 0.037220 0.028009
v 0.001938 0.037260 0.028160
v 0.001780 0.037219 0.028464
v 0.002106 0.037038 0.028787
v 0.002825 0.036972 0.028330
v 0.001636 0.037296 0.028319
v -0.000178 0.037721 0.028141
v 0.000255 0.037607 0.028292
v 0.001191 0.037294 0.028673
v 0.001636 0.037166 0.028767
v -0.000633 0.037732 0.028156
v -0.004667 0.036972 0.028599
v -0.004274 0.036972 0.028711
v -0.003796 0.036972 0.028833
v -0.002918 0.036972 0.029027
v -0.002461 0.036972 0.029114
v -0.003831 0.037277 0.028588
v -0.003374 0.037298 0.028619
v -0.001130 0.036972 0.029277
v -0.001091 0.037003 0.029243
v -0.000633 0.036972 0.029331
v -0.000178 0.037378 0.028774
v -0.000633 0.037598 0.028384
v -0.000178 0.036972 0.029373
v -0.000178 0.037068 0.029243
v 0.000278 0.037077 0.029243
v 0.000278 0.037238 0.029003
v 0.002106 0.036972 0.028977
v 0.002315 0.036972 0.028800
v -0.000178 0.037607 0.028369
v 0.000278 0.037368 0.028775
v 0.000735 0.037338 0.028746
v 0.001191 0.037199 0.028901
v 0.001648 0.036972 0.029243
v -0.002003 0.036972 0.029172
v 0.000278 0.036972 0.029391
v 0.000735 0.036972 0.029376
v 0.000735 0.037059 0.029243
v 0.000735 0.037224 0.028974
v 0.001648 0.036972 0.029243
v 0.001191 0.037021 0.029243
v 0.001191 0.036972 0.029326
f 1 2 3
f 1 3 4
f 1 4 5
f 1 5 6
f 1 6 7
f 1 7 8
f 1 8 9
f 1 9 10
f 1 10 28
f 1 28 49
f 1 49 89
f 1 89 90
f 1 90 104
f 1 104 103
f 1 103 55
f 1 55 31
f 1 31 11
f 1 11 30
f 1 30 52
f 1 52 91
f 1 91 129
f 1 129 162
f 1 162 189
f 1 189 217
f 1 217 241
f 1 241 240
f 1 240 252
f 1 252 254
f 1 254 249
f 1 249 248
f 1 248 236
f 1 236 233
f 1 233 231
f 1 231 247
f 1 247 228
f 1 228 227
f 1 227 226
f 1 226 225
f 1 225 224
f 1 224 200
f 1 200 176
f 1 176 152
f 1 152 151
f 1 151 175
f 1 175 174
f 1 174 173
f 1 173 150
f 1 150 149
f 1 149 114
f 1 114 116
f 1 116 111
f 1 111 64
f 1 64 33
f 1 33 14
f 1 14 13
f 1 13 12
f 1 12 2
f 2 12 3
f 3 12 13
f 3 13 14
f 3 14 15
f 3 15 16
f 3 16 17
f 3 17 4
f 4 18 19
f 4 19 6
f 4 6 5
f 4 17 20
f 4 20 21
f 4 21 18
f 6 19 7
f 7 22 23
f 7 23 45
f 7 45 24
f 7 24 25
f 7 25 26
f 7 26 27
f 7 27 9
f 7 9 8
f 7 19 22
f 9 27 10
f 10 27 26
f 10 26 29
f 10 29 28
f 11 31 32
f 11 32 30
f 14 33 15
f 15 33 34
f 15 34 35
f 15 35 36
f 15 36 16
f 16 36 17
f 17 21 20
f 17 36 21
f 18 21 19
f 19 21 37
f 19 37 22
f 21 36 38
f 21 38 37
f 22 39 40
f 22 40 23
f 22 37 41
f 22 41 42
f 22 42 39
f 23 43 44
f 23 44 45
f 23 40 43
f 24 45 46
f 24 46 25
f 25 46 47
f 25 47 48
f 25 48 26
f 26 48 29
f 28 29 50
f 28 50 49
f 29 48 51
f 29 51 50
f 30 32 53
f 30 53 54
f 30 54 52
f 31 55 56
f 31 56 32
f 32 57 58
f 32 58 53
f 32 56 47
f 32 47 59
f 32 59 60
f 32 60 61
f 32 61 62
f 32 62 63
f 32 63 57
f 33 64 65
f 33 65 34
f 34 65 66
f 34 66 35
f 35 67 68
f 35 68 38
f 35 38 36
f 35 66 69
f 35 69 70
f 35 70 67
f 37 38 71
f 37 71 41
f 38 72 71
f 38 68 72
f 39 73 74
f 39 74 75
f 39 75 76
f 39 76 40
f 39 42 77
f 39 77 73
f 40 76 78
f 40 78 43
f 41 71 79
f 41 79 42
f 42 79 71
f 42 71 80
f 42 80 77
f 43 78 81
f 43 81 82
f 43 82 44
f 44 82 83
f 44 83 84
f 44 84 85
f 44 85 45
f 45 85 46
f 46 85 59
f 46 59 47
f 47 56 86
f 47 86 48
f 48 86 51
f 49 50 51
f 49 51 87
f 49 87 88
f 49 88 89
f 51 86 90
f 51 90 88
f 51 88 87
f 52 54 92
f 52 92 93
f 52 93 94
f 52 94 95
f 52 95 96
f 52 96 97
f 52 97 98
f 52 98 91
f 53 99 100
f 53 100 101
f 53 101 54
f 53 58 99
f 54 101 102
f 54 102 92
f 55 103 56
f 56 103 104
f 56 104 86
f 57 63 105
f 57 105 137
f 57 137 99
f 57 99 58
f 59 85 106
f 59 106 107
f 59 107 60
f 60 107 61
f 61 107 106
f 61 106 83
f 61 83 108
f 61 108 109
f 61 109 63
f 61 63 62
f 63 110 105
f 63 109 110
f 64 111 66
f 64 66 65
f 66 111 69
f 67 112 68
f 67 70 113
f 67 113 114
f 67 114 115
f 67 115 112
f 68 112 72
f 69 113 70
f 69 111 116
f 69 116 114
f 69 114 113
f 71 72 117
f 71 117 80
f 72 112 118
f 72 118 119
f 72 119 120
f 72 120 121
f 72 121 122
f 72 122 73
f 72 73 117
f 73 122 123
f 73 123 124
f 73 124 125
f 73 125 75
f 73 75 74
f 73 77 126
f 73 126 127
f 73 127 117
f 75 78 76
f 75 125 128
f 75 128 78
f 77 127 126
f 77 80 127
f 78 128 81
f 80 117 127
f 81 128 108
f 81 108 82
f 82 108 83
f 83 106 84
f 84 106 85
f 86 104 90
f 88 90 89
f 91 98 129
f 92 101 100
f 92 100 130
f 92 130 95
f 92 95 94
f 92 94 93
f 92 102 101
f 95 131 132
f 95 132 133
f 95 133 96
f 95 130 134
f 95 134 131
f 96 133 98
f 96 98 97
f 98 133 132
f 98 132 131
f 98 131 135
f 98 135 136
f 98 136 129
f 99 137 138
f 99 138 100
f 100 138 130
f 105 110 139
f 105 139 140
f 105 140 137
f 108 141 142
f 108 142 109
f 108 128 141
f 109 142 143
f 109 143 144
f 109 144 110
f 110 144 145
f 110 145 146
f 110 146 147
f 110 147 139
f 112 148 119
f 112 119 118
f 112 115 149
f 112 149 150
f 112 150 148
f 114 149 115
f 119 151 152
f 119 152 153
f 119 153 154
f 119 154 120
f 119 148 155
f 119 155 151
f 120 154 156
f 120 156 121
f 121 156 157
f 121 157 123
f 121 123 122
f 123 157 158
f 123 158 124
f 124 158 159
f 124 159 160
f 124 160 128
f 124 128 125
f 128 160 161
f 128 161 141
f 129 136 163
f 129 163 162
f 130 138 134
f 131 134 138
f 131 138 164
f 131 164 165
f 131 165 166
f 131 166 167
f 131 167 168
f 131 168 135
f 135 168 163
f 135 163 136
f 137 140 169
f 137 169 138
f 138 169 170
f 138 170 164
f 139 147 140
f 140 170 169
f 140 147 146
f 140 146 145
f 140 145 165
f 140 165 164
f 140 164 170
f 141 161 143
f 141 143 142
f 143 161 171
f 143 171 172
f 143 172 145
f 143 145 144
f 145 172 165
f 148 150 173
f 148 173 174
f 148 174 175
f 148 175 155
f 151 155 175
f 152 176 153
f 153 177 154
f 153 176 178
f 153 178 179
f 153 179 177
f 154 177 180
f 154 180 181
f 154 181 156
f 156 182 183
f 156 183 157
f 156 181 182
f 157 183 158
f 158 184 185
f 158 185 159
f 158 183 184
f 159 185 186
f 159 186 160
f 160 186 187
f 160 187 161
f 161 187 171
f 162 188 189
f 162 163 188
f 163 168 190
f 163 190 191
f 163 191 192
f 163 192 188
f 165 172 193
f 165 193 167
f 165 167 166
f 167 193 194
f 167 194 195
f 167 195 196
f 167 196 168
f 168 196 190
f 171 187 186
f 171 186 197
f 171 197 198
f 171 198 199
f 171 199 172
f 172 199 193
f 176 200 201
f 176 201 178
f 177 179 180
f 178 201 179
f 179 201 180
f 180 201 202
f 180 202 181
f 181 202 182
f 182 203 204
f 182 204 183
f 182 202 203
f 183 205 206
f 183 206 184
f 183 204 207
f 183 207 208
f 183 208 209
f 183 209 210
f 183 210 205
f 184 206 185
f 185 206 211
f 185 211 212
f 185 212 186
f 186 212 197
f 188 192 189
f 189 192 213
f 189 213 214
f 189 214 215
f 189 215 216
f 189 216 217
f 190 196 218
f 190 218 191
f 191 218 214
f 191 214 192
f 192 214 213
f 193 219 220
f 193 220 194
f 193 199 219
f 194 221 195
f 194 220 221
f 195 222 216
f 195 216 215
f 195 215 196
f 195 221 222
f 196 215 218
f 197 212 211
f 197 211 198
f 198 223 219
f 198 219 199
f 198 211 223
f 200 224 202
f 200 202 201
f 202 224 225
f 202 225 226
f 202 226 203
f 203 226 227
f 203 227 228
f 203 228 229
f 203 229 204
f 204 229 230
f 204 230 231
f 204 231 232
f 204 232 233
f 204 233 207
f 205 210 234
f 205 234 206
f 206 234 235
f 206 235 223
f 206 223 211
f 207 233 236
f 207 236 237
f 207 237 208
f 208 237 209
f 209 237 210
f 210 237 238
f 210 238 239
f 210 239 234
f 214 218 215
f 216 240 241
f 216 241 217
f 216 222 240
f 219 242 243
f 219 243 220
f 219 223 242
f 220 243 244
f 220 244 245
f 220 245 221
f 221 245 246
f 221 246 222
f 222 246 240
f 223 235 234
f 223 234 242
f 228 247 229
f 229 247 230
f 230 247 231
f 231 233 232
f 234 239 243
f 234 243 242
f 236 248 237
f 237 248 238
f 238 248 249
f 238 249 239
f 239 249 250
f 239 250 251
f 239 251 243
f 240 246 252
f 243 251 244
f 244 251 246
f 244 246 245
f 246 251 253
f 246 253 254
f 246 254 252
f 249 254 250
f 250 254 251
f 251 254 253
