v 0.021909 0.016704 0.020228
v 0.021054 0.025455 0.021620
v 0.019991 0.024490 0.026978
v 0.019982 0.022400 0.027595
v 0.018787 0.011387 0.030886
v 0.021605 0.014598 0.020598
v 0.021746 0.018916 0.015212
v 0.021808 0.020350 0.017716
v 0.021415 0.023527 0.019999
v 0.020405 0.028109 0.022038
v 0.021186 0.025536 0.018369
v 0.016224 0.031124 0.028225
v 0.017190 0.025849 0.031661
v 0.018791 0.023964 0.029878
v 0.019514 0.029945 0.022047
v 0.017437 0.013040 0.033295
v 0.017966 0.009928 0.032138
v 0.020957 0.012317 0.021102
v 0.018968 0.007886 0.015131
v 0.019559 0.010526 0.013717
v 0.021102 0.018115 0.012794
v 0.020586 0.026795 0.015915
v 0.020692 0.027658 0.017882
v 0.019933 0.029694 0.019706
v 0.016581 0.033720 0.020778
v 0.015108 0.034767 0.021543
v 0.013715 0.034926 0.023979
v 0.009829 0.034478 0.030089
v 0.011245 0.032488 0.032156
v 0.012541 0.030298 0.033723
v 0.013887 0.027523 0.034601
v 0.014883 0.021820 0.035628
v 0.016956 0.018023 0.033507
v 0.013353 0.016988 0.038613
v 0.011809 0.014013 0.040648
v 0.016696 0.007892 0.031823
v 0.019320 0.008080 0.018751
v 0.012572 0.007377 0.037177
v 0.018032 0.007377 0.011642
v 0.018981 0.010286 0.011020
v 0.020127 0.016675 0.010079
v 0.019969 0.018819 0.010138
v 0.019417 0.027413 0.013632
v 0.019722 0.028618 0.015397
v 0.019766 0.029673 0.017189
v 0.018451 0.031196 0.016617
v 0.015219 0.034268 0.017941
v 0.013917 0.034330 0.015599
v 0.009758 0.034200 0.010147
v 0.006887 0.034230 0.008147
v -0.004082 0.034926 0.010881
v 0.003098 0.034926 0.032269
v 0.005626 0.034449 0.032476
v 0.006053 0.033615 0.033619
v 0.005335 0.031949 0.036172
v 0.008144 0.030045 0.036659
v 0.008113 0.028284 0.038365
v 0.006715 0.025900 0.041116
v 0.007963 0.023732 0.041310
v 0.009595 0.023869 0.039923
v 0.013653 0.020091 0.037483
v 0.009824 0.007584 0.039716
v 0.004549 0.021858 0.044183
v 0.003385 0.014008 0.044723
v 0.007438 0.010610 0.042517
v 0.006997 0.007377 0.041513
v 0.011725 0.007377 0.004113
v 0.017217 0.007557 0.009152
v 0.017777 0.009938 0.008220
v 0.016943 0.013555 0.005666
v 0.018182 0.026501 0.011034
v 0.016043 0.024945 0.007085
v 0.016855 0.028829 0.010840
v 0.017794 0.029371 0.012745
v 0.016255 0.032404 0.014613
v 0.014566 0.032555 0.012587
v 0.009009 0.033238 0.007868
v 0.007187 0.032547 0.006031
v 0.003213 0.030563 0.003046
v 0.000734 0.033373 0.006666
v -0.002962 0.033623 0.007436
v -0.008462 0.034597 0.012524
v -0.010257 0.034926 0.016694
v -0.005339 0.034926 0.029950
v -0.000218 0.033898 0.035285
v 0.004020 0.033507 0.034763
v 0.002666 0.032553 0.036519
v 0.005842 0.027507 0.040337
v 0.004527 0.026642 0.041612
v 0.003575 0.024635 0.043359
v 0.005723 0.023961 0.042742
v 0.002265 0.021421 0.045169
v 0.000571 0.016855 0.045543
v 0.000024 0.012862 0.045029
v 0.004157 0.011276 0.043953
v 0.004748 0.007401 0.042206
v -0.005462 0.007425 0.041706
v -0.019184 0.007377 0.033741
v 0.002322 0.007377 0.000385
v 0.005110 0.008035 0.000745
v 0.009110 0.008267 0.002195
v 0.013618 0.011462 0.003829
v 0.016304 0.009949 0.006369
v 0.015082 0.007911 0.006400
v 0.013675 0.015669 0.003276
v 0.012396 0.018751 0.002735
v 0.016731 0.026332 0.008782
v 0.014773 0.026270 0.006378
v 0.015170 0.028155 0.008138
v 0.010433 0.031938 0.007400
v 0.005793 0.029333 0.002825
v -0.000492 0.031339 0.004100
v 0.001938 0.027785 0.001218
v -0.004117 0.031792 0.005932
v -0.008025 0.030724 0.006698
v -0.006733 0.033100 0.008962
v -0.010177 0.031881 0.009922
v -0.012387 0.031903 0.013087
v -0.011800 0.034799 0.020336
v -0.011245 0.034926 0.026447
v -0.007218 0.034926 0.029270
v -0.001877 0.033246 0.036515
v 0.000761 0.032388 0.037195
v -0.003756 0.032426 0.037442
v -0.004029 0.026437 0.042310
v -0.003284 0.019531 0.045376
v -0.004510 0.022634 0.044345
v -0.001149 0.015922 0.045615
v -0.004849 0.014644 0.044876
v -0.003751 0.011958 0.044228
v -0.000867 0.010521 0.044021
v 0.002746 0.008469 0.043107
v -0.007099 0.009173 0.042269
v -0.009039 0.007967 0.041188
v -0.011328 0.007495 0.040247
v -0.017600 0.007719 0.036366
v -0.019276 0.009051 0.034772
v -0.021627 0.007954 0.030251
v -0.022664 0.007377 0.027158
v -0.004735 0.007377 -0.000025
v -0.001299 0.007962 -0.000133
v 0.005088 0.010346 0.000196
v 0.009754 0.011085 0.001862
v 0.010314 0.013722 0.001790
v 0.010468 0.018306 0.001596
v 0.010424 0.022788 0.002303
v 0.007791 0.023950 0.001483
v 0.004744 0.026361 0.001173
v -0.009952 0.027351 0.004703
v -0.004117 0.025760 0.001429
v 0.000143 0.025150 0.000290
v -0.011399 0.029044 0.007517
v -0.013300 0.025355 0.005167
v -0.014116 0.029036 0.010282
v -0.013375 0.027888 0.007882
v -0.016083 0.027885 0.011155
v -0.015907 0.029009 0.013533
v -0.014433 0.032550 0.022169
v -0.012158 0.034689 0.024600
v -0.016145 0.030608 0.019891
v -0.012956 0.032895 0.027626
v -0.012193 0.029630 0.036046
v -0.008934 0.034926 0.028320
v -0.008219 0.028928 0.039581
v -0.006781 0.026407 0.042012
v -0.004995 0.018336 0.045223
v -0.007566 0.021817 0.044115
v -0.008537 0.023789 0.043197
v -0.009397 0.017149 0.043597
v -0.007941 0.014037 0.043674
v -0.007341 0.011756 0.043174
v -0.010420 0.013544 0.042544
v -0.014089 0.010987 0.040207
v -0.015792 0.007959 0.038244
v -0.019417 0.010993 0.035231
v -0.016749 0.012185 0.038455
v -0.020780 0.012101 0.033106
v -0.022694 0.009750 0.028311
v -0.023149 0.007377 0.018283
v -0.004920 0.009418 -0.000349
v -0.014107 0.007377 0.002758
v -0.008426 0.007633 0.000394
v 0.000267 0.010869 -0.000385
v 0.001983 0.016319 -0.000327
v 0.005577 0.014377 0.000173
v 0.006014 0.017996 0.000281
v 0.003967 0.022918 0.000331
v -0.009948 0.024762 0.003109
v -0.005895 0.020895 0.000371
v -0.000496 0.022154 -0.000313
v -0.012585 0.023209 0.003663
v -0.015060 0.024007 0.005851
v -0.016524 0.025903 0.008656
v -0.018637 0.025835 0.012006
v -0.019276 0.026671 0.016680
v -0.017600 0.028990 0.021710
v -0.015585 0.030964 0.024231
v -0.014306 0.031960 0.026068
v -0.019589 0.026663 0.018986
v -0.013847 0.028756 0.034304
v -0.013199 0.026847 0.038374
v -0.010914 0.027513 0.039748
v -0.009895 0.024975 0.042089
v -0.010645 0.020410 0.043075
v -0.011598 0.023578 0.041877
v -0.012219 0.016340 0.041990
v -0.014226 0.015550 0.040527
v -0.018456 0.012282 0.036596
v -0.019378 0.015068 0.035312
v -0.014500 0.019094 0.040229
v -0.018002 0.015607 0.037014
v -0.020445 0.015310 0.033466
v -0.022218 0.013223 0.029364
v -0.022699 0.019849 0.020823
v -0.022972 0.016235 0.019765
v -0.022889 0.014987 0.017648
v -0.022875 0.007840 0.015185
v -0.021773 0.008040 0.010669
v -0.019598 0.007377 0.007067
v -0.004280 0.018406 -0.000160
v -0.017314 0.007393 0.004878
v -0.016087 0.019671 0.005149
v -0.014341 0.022084 0.004464
v -0.012074 0.007954 0.001763
v -0.008995 0.010073 0.000632
v 0.003134 0.018080 -0.000174
v -0.008638 0.018565 0.001155
v -0.017843 0.021475 0.007269
v -0.018465 0.024778 0.010120
v -0.020105 0.024325 0.013321
v -0.020370 0.024838 0.015388
v -0.019603 0.026415 0.022745
v -0.017741 0.028090 0.025096
v -0.021151 0.024339 0.020287
v -0.015108 0.025849 0.036105
v -0.015726 0.021941 0.038014
v -0.013318 0.023443 0.040504
v -0.012868 0.019361 0.041598
v -0.016665 0.019061 0.037978
v -0.021482 0.015672 0.030269
v -0.017318 0.021658 0.035529
v -0.020119 0.024263 0.025316
v -0.021627 0.022400 0.022394
v -0.021826 0.022856 0.018859
v -0.021887 0.021904 0.016757
v -0.021940 0.015604 0.013416
v -0.022664 0.011899 0.014861
v -0.022553 0.008768 0.013353
v -0.021557 0.012357 0.011236
v -0.020679 0.015610 0.009786
v -0.020547 0.010073 0.008607
v -0.019126 0.018285 0.007873
v -0.020101 0.021623 0.010637
v -0.020657 0.022483 0.012551
v -0.021499 0.020404 0.014123
v -0.021204 0.018409 0.012182
f 1 2 3
f 1 3 4
f 1 4 5
f 1 5 6
f 1 6 7
f 1 7 8
f 1 8 9
f 1 9 2
f 2 10 3
f 2 9 11
f 2 11 10
f 3 12 13
f 3 13 14
f 3 14 4
f 3 10 15
f 3 15 12
f 4 14 5
f 5 16 17
f 5 17 18
f 5 18 6
f 5 14 16
f 6 18 19
f 6 19 20
f 6 20 7
f 7 20 21
f 7 21 22
f 7 22 11
f 7 11 8
f 8 11 9
f 10 11 23
f 10 23 24
f 10 24 15
f 11 22 23
f 12 15 25
f 12 25 26
f 12 26 27
f 12 27 28
f 12 28 29
f 12 29 30
f 12 30 31
f 12 31 13
f 13 31 32
f 13 32 14
f 14 32 33
f 14 33 16
f 15 24 25
f 16 33 34
f 16 34 35
f 16 35 17
f 17 36 37
f 17 37 18
f 17 35 38
f 17 38 36
f 18 37 19
f 19 37 39
f 19 39 40
f 19 40 20
f 20 40 21
f 21 40 41
f 21 41 42
f 21 42 22
f 22 42 43
f 22 43 44
f 22 44 45
f 22 45 23
f 23 45 24
f 24 45 46
f 24 46 25
f 25 46 47
f 25 47 26
f 26 47 48
f 26 48 49
f 26 49 50
f 26 50 51
f 26 51 27
f 27 52 28
f 27 51 83
f 27 83 120
f 27 120 163
f 27 163 121
f 27 121 84
f 27 84 52
f 28 52 53
f 28 53 54
f 28 54 29
f 29 54 55
f 29 55 56
f 29 56 30
f 30 56 57
f 30 57 58
f 30 58 31
f 31 58 59
f 31 59 60
f 31 60 61
f 31 61 32
f 32 61 34
f 32 34 33
f 34 61 60
f 34 60 59
f 34 59 35
f 35 62 38
f 35 59 63
f 35 63 64
f 35 64 65
f 35 65 62
f 36 38 39
f 36 39 37
f 38 62 66
f 38 66 98
f 38 98 139
f 38 139 179
f 38 179 219
f 38 219 181
f 38 181 140
f 38 140 99
f 38 99 67
f 38 67 39
f 39 67 68
f 39 68 40
f 40 68 69
f 40 69 41
f 41 69 70
f 41 70 42
f 42 71 43
f 42 70 72
f 42 72 71
f 43 71 73
f 43 73 74
f 43 74 44
f 44 46 45
f 44 74 46
f 46 74 75
f 46 75 47
f 47 75 48
f 48 75 76
f 48 76 49
f 49 76 77
f 49 77 50
f 50 77 78
f 50 78 79
f 50 79 80
f 50 80 81
f 50 81 51
f 51 81 82
f 51 82 83
f 52 84 85
f 52 85 53
f 53 85 86
f 53 86 54
f 54 86 55
f 55 86 87
f 55 87 88
f 55 88 56
f 56 88 57
f 57 88 58
f 58 88 89
f 58 89 90
f 58 90 91
f 58 91 59
f 59 91 63
f 62 65 66
f 63 91 90
f 63 90 92
f 63 92 64
f 64 92 93
f 64 93 94
f 64 94 95
f 64 95 65
f 65 95 66
f 66 95 96
f 66 96 97
f 66 97 98
f 67 99 100
f 67 100 101
f 67 101 102
f 67 102 103
f 67 103 104
f 67 104 68
f 68 104 103
f 68 103 69
f 69 103 70
f 70 102 105
f 70 105 106
f 70 106 72
f 70 103 102
f 71 72 107
f 71 107 73
f 72 106 108
f 72 108 107
f 73 76 74
f 73 107 109
f 73 109 76
f 74 76 75
f 76 109 110
f 76 110 77
f 77 110 78
f 78 110 111
f 78 111 79
f 79 112 80
f 79 111 113
f 79 113 112
f 80 112 81
f 81 112 114
f 81 114 115
f 81 115 116
f 81 116 82
f 82 116 117
f 82 117 118
f 82 118 83
f 83 118 119
f 83 119 120
f 84 121 85
f 85 122 123
f 85 123 87
f 85 87 86
f 85 121 122
f 87 123 89
f 87 89 88
f 89 123 90
f 90 123 124
f 90 124 125
f 90 125 92
f 92 126 93
f 92 125 127
f 92 127 126
f 93 126 128
f 93 128 94
f 94 129 130
f 94 130 131
f 94 131 132
f 94 132 95
f 94 128 129
f 95 132 96
f 96 132 97
f 97 132 131
f 97 131 130
f 97 130 133
f 97 133 134
f 97 134 135
f 97 135 98
f 98 136 137
f 98 137 138
f 98 138 139
f 98 135 136
f 99 140 141
f 99 141 142
f 99 142 100
f 100 142 101
f 101 142 143
f 101 143 102
f 102 143 105
f 105 143 144
f 105 144 145
f 105 145 106
f 106 145 146
f 106 146 108
f 107 108 109
f 108 110 109
f 108 146 111
f 108 111 110
f 111 146 147
f 111 147 148
f 111 148 113
f 112 149 114
f 112 113 150
f 112 150 149
f 113 148 151
f 113 151 150
f 114 149 115
f 115 152 117
f 115 117 116
f 115 149 153
f 115 153 152
f 117 154 118
f 117 152 155
f 117 155 154
f 118 154 156
f 118 156 157
f 118 157 119
f 119 158 159
f 119 159 120
f 119 157 160
f 119 160 158
f 120 159 161
f 120 161 162
f 120 162 124
f 120 124 163
f 121 163 122
f 122 163 124
f 122 124 123
f 124 164 165
f 124 165 125
f 124 162 164
f 125 165 127
f 126 166 128
f 126 127 167
f 126 167 166
f 127 165 168
f 127 168 167
f 128 166 129
f 129 166 169
f 129 169 170
f 129 170 171
f 129 171 130
f 130 171 133
f 133 171 134
f 134 171 135
f 135 171 170
f 135 170 172
f 135 172 173
f 135 173 174
f 135 174 136
f 136 175 137
f 136 174 176
f 136 176 175
f 137 175 138
f 138 175 177
f 138 177 178
f 138 178 139
f 139 178 179
f 140 180 141
f 140 181 182
f 140 182 180
f 141 180 183
f 141 183 142
f 142 183 184
f 142 184 185
f 142 185 145
f 142 145 144
f 142 144 143
f 145 147 146
f 145 185 186
f 145 186 147
f 147 186 187
f 147 187 148
f 148 187 151
f 149 150 188
f 149 188 153
f 150 151 189
f 150 189 188
f 151 187 190
f 151 190 189
f 152 153 155
f 153 188 191
f 153 191 192
f 153 192 193
f 153 193 155
f 154 155 193
f 154 193 156
f 156 194 157
f 156 193 194
f 157 194 195
f 157 195 160
f 158 160 196
f 158 196 197
f 158 197 159
f 159 197 198
f 159 198 161
f 160 195 199
f 160 199 196
f 161 198 200
f 161 200 162
f 162 200 201
f 162 201 202
f 162 202 164
f 164 202 203
f 164 203 165
f 165 203 168
f 166 167 204
f 166 204 169
f 167 168 205
f 167 205 204
f 168 203 205
f 169 204 206
f 169 206 172
f 169 172 170
f 172 206 173
f 173 207 176
f 173 176 174
f 173 206 207
f 175 176 208
f 175 208 209
f 175 209 177
f 176 207 210
f 176 210 211
f 176 211 208
f 177 209 212
f 177 212 213
f 177 213 178
f 178 213 214
f 178 214 215
f 178 215 179
f 179 215 216
f 179 216 217
f 179 217 218
f 179 218 219
f 180 182 220
f 180 220 190
f 180 190 183
f 181 221 222
f 181 222 223
f 181 223 191
f 181 191 224
f 181 224 182
f 181 219 221
f 182 224 225
f 182 225 220
f 183 190 184
f 184 190 226
f 184 226 185
f 185 226 186
f 186 226 187
f 187 226 190
f 188 189 191
f 189 190 220
f 189 220 225
f 189 225 227
f 189 227 191
f 191 223 192
f 191 227 224
f 192 223 228
f 192 228 193
f 193 229 194
f 193 228 229
f 194 229 230
f 194 230 231
f 194 231 195
f 195 231 199
f 196 232 197
f 196 199 232
f 197 233 198
f 197 232 233
f 198 233 200
f 199 231 234
f 199 234 232
f 200 235 201
f 200 233 235
f 201 236 237
f 201 237 205
f 201 205 202
f 201 235 236
f 202 205 203
f 204 205 238
f 204 238 206
f 205 237 238
f 206 238 207
f 207 238 210
f 208 211 209
f 209 211 239
f 209 239 212
f 210 238 237
f 210 237 239
f 210 239 211
f 212 240 213
f 212 239 241
f 212 241 242
f 212 242 240
f 213 240 214
f 214 240 243
f 214 243 234
f 214 234 244
f 214 244 245
f 214 245 216
f 214 216 215
f 216 245 246
f 216 246 247
f 216 247 217
f 217 247 248
f 217 248 218
f 218 248 249
f 218 249 250
f 218 250 251
f 218 251 219
f 219 251 252
f 219 252 221
f 221 252 222
f 222 252 228
f 222 228 223
f 224 227 225
f 228 252 253
f 228 253 229
f 229 253 254
f 229 254 230
f 230 254 245
f 230 245 231
f 231 245 244
f 231 244 234
f 232 234 242
f 232 242 233
f 233 242 235
f 234 243 242
f 235 242 241
f 235 241 236
f 236 239 237
f 236 241 239
f 240 242 243
f 245 254 255
f 245 255 246
f 246 255 256
f 246 256 249
f 246 249 248
f 246 248 247
f 249 256 250
f 250 256 253
f 250 253 252
f 250 252 251
f 253 256 254
f 254 256 255
