v -0.017438 -0.007069 0.014351
v -0.018218 -0.006968 0.013717
v -0.016166 -0.006871 0.012578
v -0.015481 -0.006858 0.013146
v -0.015251 -0.006845 0.013944
v -0.014795 -0.006789 0.014860
v -0.014795 -0.006770 0.016230
v -0.017647 -0.006941 0.016684
v -0.017999 -0.007045 0.015271
v -0.018163 -0.007052 0.014438
v -0.018904 -0.006832 0.013944
v -0.019110 -0.006656 0.013021
v -0.018332 -0.006847 0.013032
v -0.012357 -0.006247 0.013107
v -0.017989 -0.006745 0.012347
v -0.017989 -0.006533 0.011651
v -0.016393 -0.006317 0.010978
v -0.015442 -0.006523 0.011643
v -0.012740 -0.006431 0.014058
v -0.011598 -0.006274 0.016684
v -0.011598 -0.006251 0.017600
v -0.009380 -0.005700 0.022109
v -0.016619 -0.006770 0.017600
v -0.018218 -0.006967 0.016230
v -0.018332 -0.006817 0.017146
v -0.018904 -0.006810 0.016230
v -0.019018 -0.006830 0.014919
v -0.020558 -0.006277 0.014402
v -0.019817 -0.006415 0.013032
v -0.018661 -0.006598 0.012117
v -0.014645 -0.006184 0.011115
v -0.009369 -0.005440 0.012892
v -0.009369 -0.005755 0.014614
v -0.010228 -0.006001 0.015091
v -0.018670 -0.006251 0.011240
v -0.018047 -0.006157 0.010727
v -0.017305 -0.006203 0.010719
v -0.015373 -0.005752 0.009925
v -0.015473 -0.006181 0.010758
v -0.010891 -0.006153 0.017150
v -0.009369 -0.005873 0.018230
v -0.009948 -0.005639 0.022739
v -0.009369 -0.004880 0.026042
v -0.009369 -0.004312 0.028293
v -0.019080 -0.006652 0.017126
v -0.019043 -0.006495 0.017901
v -0.011817 -0.003806 0.029076
v -0.019555 -0.006592 0.016457
v -0.019596 -0.006606 0.016046
v -0.019966 -0.006517 0.015432
v -0.020588 -0.006168 0.013573
v -0.020836 -0.006194 0.015432
v -0.022080 -0.005497 0.015526
v -0.020115 -0.006133 0.012273
v -0.019527 -0.006134 0.011592
v -0.010685 -0.004053 0.008046
v -0.009369 -0.004292 0.009428
v -0.009470 -0.005868 0.015627
v -0.019911 -0.005690 0.010919
v -0.018224 -0.005692 0.009835
v -0.014531 -0.004879 0.008571
v -0.009369 0.002612 0.038070
v -0.009379 -0.003217 0.031596
v -0.020503 -0.006229 0.017146
v -0.019304 -0.006114 0.018923
v -0.020579 -0.005941 0.018140
v -0.011598 -0.003608 0.029694
v -0.020870 -0.006154 0.016230
v -0.021230 -0.005717 0.013032
v -0.020843 -0.005747 0.012156
v -0.021209 -0.005747 0.017569
v -0.021881 -0.005241 0.017162
v -0.022333 -0.004325 0.017608
v -0.022566 -0.004090 0.016915
v -0.022911 -0.003332 0.016637
v -0.023080 -0.003177 0.014633
v -0.022762 -0.003904 0.013866
v -0.022369 -0.004634 0.013432
v -0.021884 -0.005153 0.012782
v -0.020352 -0.005809 0.011635
v -0.009939 -0.003103 0.006629
v -0.009369 -0.000952 0.004159
v -0.020491 -0.005051 0.010414
v -0.018267 -0.003188 0.007232
v -0.017532 -0.003795 0.007627
v -0.016848 -0.004264 0.008058
v -0.013882 -0.002780 0.006128
v -0.009398 0.002028 0.037628
v -0.009470 -0.000874 0.035025
v -0.009453 -0.001811 0.033839
v -0.009369 0.007373 0.040704
v -0.009401 0.005864 0.039972
v -0.011642 0.003967 0.038172
v -0.011779 -0.002429 0.031980
v -0.010685 -0.003204 0.031068
v -0.019663 -0.005731 0.019494
v -0.012311 -0.003447 0.029639
v -0.020331 -0.005205 0.019925
v -0.011507 -0.003290 0.030465
v -0.021195 -0.005207 0.011635
v -0.020808 -0.004493 0.020516
v -0.021446 -0.004352 0.019714
v -0.023233 -0.002244 0.016982
v -0.021926 -0.002374 0.021577
v -0.022568 -0.000204 0.022586
v -0.023278 -0.002450 0.016250
v -0.023312 -0.002500 0.015318
v -0.023284 -0.002477 0.014406
v -0.023043 -0.003177 0.014171
v -0.022737 -0.003667 0.013158
v -0.022567 -0.003634 0.012347
v -0.022065 -0.003963 0.011392
v -0.011326 0.000086 0.003404
v -0.009369 0.001130 0.002449
v -0.013538 -0.002163 0.005529
v -0.020732 -0.004257 0.009725
v -0.018941 -0.002077 0.007087
v -0.018412 -0.001950 0.006661
v -0.017047 -0.001478 0.005741
v -0.016916 -0.002195 0.006148
v -0.020780 -0.003547 0.009220
v -0.010880 0.001406 0.036536
v -0.010532 -0.000945 0.034634
v -0.017390 0.007373 0.036379
v -0.015052 0.007330 0.038505
v -0.011323 0.007285 0.040168
v -0.009369 0.007349 0.000750
v -0.019370 0.007373 0.006778
v -0.014220 0.006291 0.038555
v -0.013279 0.004899 0.038097
v -0.012321 -0.001913 0.032438
v -0.013491 -0.002493 0.030614
v -0.012969 -0.003007 0.030031
v -0.011420 -0.002980 0.031135
v -0.015390 -0.002291 0.029362
v -0.018329 -0.002729 0.025819
v -0.020731 -0.002720 0.023076
v -0.021673 -0.002107 0.022457
v -0.023002 0.000589 0.021702
v -0.023332 -0.001540 0.017455
v -0.022323 0.000271 0.023749
v -0.022344 0.001713 0.025052
v -0.022773 0.003096 0.025060
v -0.023442 -0.001807 0.016003
v -0.023508 -0.001578 0.015318
v -0.023486 -0.001578 0.014633
v -0.023430 -0.001578 0.013944
v -0.023254 -0.002305 0.013717
v -0.023026 -0.002719 0.013032
v -0.022721 -0.003085 0.012089
v -0.022240 -0.003119 0.010762
v -0.013653 -0.001192 0.004754
v -0.014153 -0.000560 0.004351
v -0.010685 0.001464 0.002422
v -0.009572 0.001755 0.002058
v -0.009470 0.002527 0.001709
v -0.009369 0.003441 0.001404
v -0.019256 0.000309 0.006637
v -0.021216 -0.002661 0.009236
v -0.021216 -0.000825 0.008668
v -0.018227 0.002169 0.005381
v -0.017086 0.000692 0.005017
v -0.016936 -0.000231 0.005205
v -0.014478 0.001785 0.003341
v -0.014833 -0.000230 0.004343
v -0.014409 0.004832 0.037452
v -0.011487 0.001085 0.035941
v -0.012883 -0.000382 0.033694
v -0.012722 -0.001110 0.033107
v -0.017877 0.007373 0.035749
v -0.017275 0.005784 0.035358
v -0.016634 0.005608 0.035988
v -0.014669 0.005679 0.037882
v -0.014798 0.006693 0.038375
v -0.009376 0.006639 0.000719
v -0.011066 0.007121 0.001322
v -0.013754 0.007110 0.002531
v -0.017539 0.007132 0.004981
v -0.017884 0.006179 0.005056
v -0.020039 0.004070 0.006645
v -0.020848 0.005454 0.007972
v -0.019855 0.007373 0.007349
v -0.013698 -0.002072 0.031123
v -0.014534 -0.001334 0.031272
v -0.015272 -0.000665 0.031299
v -0.018019 -0.000690 0.028583
v -0.021181 -0.000265 0.025604
v -0.023217 0.001064 0.020888
v -0.023005 0.003443 0.024215
v -0.023616 -0.000437 0.016684
v -0.021195 0.002315 0.027643
v -0.022365 0.002784 0.025780
v -0.022629 0.004875 0.026434
v -0.022878 0.006059 0.026305
v -0.023623 -0.000665 0.014860
v -0.023700 0.000163 0.016128
v -0.023556 -0.000665 0.014171
v -0.023277 -0.000777 0.012582
v -0.023127 -0.002053 0.012641
v -0.022877 -0.002039 0.011686
v -0.022560 -0.002264 0.010978
v -0.022397 -0.002264 0.010629
v -0.010315 0.002113 0.002011
v -0.010098 0.002941 0.001694
v -0.018753 0.003044 0.005584
v -0.020746 0.001112 0.007760
v -0.022114 -0.000022 0.009549
v -0.016131 0.003443 0.003854
v -0.015616 0.002842 0.003651
v -0.014961 0.002261 0.003420
v -0.014081 0.002387 0.003032
v -0.015093 0.004921 0.036959
v -0.013157 0.002096 0.035843
v -0.019189 0.007373 0.033753
v -0.020985 0.005785 0.030148
v -0.020527 0.002940 0.029044
v -0.020517 0.001136 0.027659
v -0.019161 0.002496 0.030418
v -0.015742 0.004982 0.036407
v -0.010685 0.005043 0.001420
v -0.010439 0.006595 0.001087
v -0.013597 0.004585 0.002551
v -0.014130 0.006413 0.002703
v -0.014538 0.007038 0.002942
v -0.016347 0.005230 0.003886
v -0.019262 0.004014 0.005936
v -0.021474 0.002302 0.008606
v -0.022068 0.002873 0.009545
v -0.021210 0.005727 0.008610
v -0.020930 0.006498 0.008406
v -0.021425 0.007088 0.009526
v -0.021753 0.007121 0.010277
v -0.022857 0.007373 0.015236
v -0.018570 0.000073 0.028817
v -0.022967 0.006640 0.025815
v -0.021509 0.007040 0.029980
v -0.022431 0.007373 0.027902
v -0.022696 0.007373 0.027181
v -0.022877 0.007121 0.026403
v -0.023668 0.000986 0.014931
v -0.023619 0.003215 0.016915
v -0.023644 0.002988 0.016230
v -0.023548 0.000247 0.013944
v -0.023431 0.000474 0.013259
v -0.023309 0.001389 0.012637
v -0.023177 0.002073 0.012132
v -0.023082 -0.001122 0.011890
v -0.022883 -0.000665 0.011279
v -0.016379 0.004271 0.003905
v -0.022930 0.002089 0.011412
v -0.014575 0.003101 0.003095
v -0.023036 0.003215 0.012120
v -0.023221 0.002737 0.012578
v -0.023553 0.002473 0.014175
v -0.023132 0.007373 0.018058
v -0.023636 0.001616 0.014633
f 1 2 3
f 1 3 4
f 1 4 5
f 1 5 6
f 1 6 7
f 1 7 8
f 1 8 9
f 1 9 10
f 1 10 2
f 2 10 11
f 2 11 12
f 2 12 13
f 2 13 3
f 3 14 4
f 3 13 15
f 3 15 16
f 3 16 17
f 3 17 18
f 3 18 14
f 4 14 19
f 4 19 5
f 5 19 6
f 6 20 7
f 6 19 20
f 7 20 21
f 7 21 22
f 7 22 23
f 7 23 8
f 8 24 9
f 8 23 25
f 8 25 24
f 9 24 10
f 10 24 26
f 10 26 27
f 10 27 11
f 11 28 29
f 11 29 12
f 11 27 28
f 12 29 30
f 12 30 13
f 13 30 15
f 14 18 31
f 14 31 32
f 14 32 33
f 14 33 34
f 14 34 19
f 15 30 16
f 16 30 35
f 16 35 36
f 16 36 37
f 16 37 17
f 17 37 38
f 17 38 39
f 17 39 18
f 18 39 31
f 19 34 20
f 20 34 40
f 20 40 21
f 21 40 41
f 21 41 22
f 22 42 23
f 22 41 43
f 22 43 42
f 23 42 43
f 23 43 44
f 23 44 25
f 24 25 45
f 24 45 26
f 25 46 45
f 25 44 47
f 25 47 46
f 26 45 48
f 26 48 49
f 26 49 27
f 27 49 50
f 27 50 28
f 28 51 29
f 28 50 52
f 28 52 53
f 28 53 51
f 29 51 54
f 29 54 30
f 30 54 55
f 30 55 35
f 31 39 56
f 31 56 57
f 31 57 32
f 32 57 82
f 32 82 114
f 32 114 157
f 32 157 127
f 32 127 91
f 32 91 62
f 32 62 44
f 32 44 43
f 32 43 41
f 32 41 33
f 33 41 58
f 33 58 34
f 34 58 40
f 35 59 60
f 35 60 36
f 35 55 59
f 36 60 37
f 37 60 38
f 38 60 61
f 38 61 56
f 38 56 39
f 40 58 41
f 44 62 63
f 44 63 47
f 45 46 64
f 45 64 48
f 46 65 66
f 46 66 64
f 46 47 65
f 47 63 67
f 47 67 65
f 48 64 49
f 49 64 50
f 50 64 68
f 50 68 52
f 51 53 69
f 51 69 70
f 51 70 54
f 52 68 53
f 53 68 71
f 53 71 72
f 53 72 73
f 53 73 74
f 53 74 75
f 53 75 76
f 53 76 77
f 53 77 78
f 53 78 79
f 53 79 69
f 54 70 80
f 54 80 55
f 55 80 59
f 56 61 81
f 56 81 57
f 57 81 82
f 59 83 60
f 59 80 83
f 60 83 84
f 60 84 85
f 60 85 86
f 60 86 61
f 61 86 87
f 61 87 81
f 62 88 89
f 62 89 90
f 62 90 63
f 62 91 92
f 62 92 93
f 62 93 88
f 63 90 94
f 63 94 95
f 63 95 67
f 64 66 71
f 64 71 68
f 65 96 66
f 65 67 97
f 65 97 96
f 66 96 98
f 66 98 71
f 67 95 99
f 67 99 97
f 69 79 70
f 70 100 83
f 70 83 80
f 70 79 100
f 71 98 101
f 71 101 102
f 71 102 72
f 72 102 73
f 73 103 75
f 73 75 74
f 73 102 104
f 73 104 105
f 73 105 103
f 75 106 107
f 75 107 76
f 75 103 106
f 76 107 108
f 76 108 109
f 76 109 77
f 77 109 110
f 77 110 78
f 78 110 111
f 78 111 79
f 79 111 112
f 79 112 100
f 81 87 82
f 82 113 114
f 82 87 115
f 82 115 113
f 83 116 84
f 83 100 116
f 84 117 118
f 84 118 119
f 84 119 120
f 84 120 115
f 84 115 85
f 84 116 121
f 84 121 117
f 85 115 87
f 85 87 86
f 88 93 122
f 88 122 123
f 88 123 89
f 89 123 90
f 90 123 94
f 91 124 125
f 91 125 126
f 91 126 92
f 91 127 128
f 91 128 182
f 91 182 233
f 91 233 255
f 91 255 238
f 91 238 237
f 91 237 214
f 91 214 170
f 91 170 124
f 92 126 93
f 93 126 129
f 93 129 130
f 93 130 122
f 94 123 131
f 94 131 132
f 94 132 133
f 94 133 97
f 94 97 134
f 94 134 95
f 95 134 99
f 96 97 133
f 96 133 132
f 96 132 98
f 97 99 134
f 98 132 135
f 98 135 136
f 98 136 101
f 100 112 116
f 101 136 137
f 101 137 138
f 101 138 102
f 102 138 104
f 103 105 139
f 103 139 140
f 103 140 106
f 104 138 141
f 104 141 105
f 105 141 142
f 105 142 143
f 105 143 139
f 106 144 107
f 106 140 144
f 107 145 146
f 107 146 108
f 107 144 145
f 108 146 147
f 108 147 148
f 108 148 109
f 109 148 149
f 109 149 110
f 110 149 150
f 110 150 111
f 111 150 151
f 111 151 112
f 112 151 116
f 113 115 152
f 113 152 153
f 113 153 154
f 113 154 155
f 113 155 114
f 114 155 156
f 114 156 157
f 115 120 152
f 116 151 121
f 117 158 118
f 117 121 159
f 117 159 160
f 117 160 158
f 118 158 161
f 118 161 162
f 118 162 163
f 118 163 119
f 119 163 164
f 119 164 165
f 119 165 153
f 119 153 120
f 120 153 152
f 121 151 159
f 122 130 166
f 122 166 167
f 122 167 123
f 123 167 168
f 123 168 169
f 123 169 131
f 124 170 171
f 124 171 172
f 124 172 173
f 124 173 174
f 124 174 125
f 125 174 129
f 125 129 126
f 127 157 175
f 127 175 176
f 127 176 177
f 127 177 128
f 128 177 178
f 128 178 179
f 128 179 180
f 128 180 181
f 128 181 182
f 129 174 173
f 129 173 166
f 129 166 130
f 131 169 183
f 131 183 132
f 132 183 135
f 135 183 184
f 135 184 185
f 135 185 186
f 135 186 136
f 136 186 187
f 136 187 137
f 137 187 138
f 138 187 141
f 139 188 140
f 139 143 189
f 139 189 188
f 140 190 144
f 140 188 190
f 141 187 142
f 142 187 191
f 142 191 192
f 142 192 143
f 143 192 193
f 143 193 194
f 143 194 189
f 144 190 145
f 145 195 146
f 145 190 196
f 145 196 195
f 146 195 147
f 147 197 198
f 147 198 199
f 147 199 148
f 147 195 197
f 148 199 149
f 149 199 150
f 150 200 151
f 150 199 200
f 151 201 202
f 151 202 159
f 151 200 201
f 153 165 154
f 154 203 155
f 154 165 203
f 155 203 156
f 156 204 157
f 156 203 204
f 157 204 175
f 158 205 161
f 158 160 206
f 158 206 205
f 159 202 207
f 159 207 160
f 160 207 206
f 161 205 208
f 161 208 209
f 161 209 162
f 162 209 210
f 162 210 163
f 163 210 164
f 164 210 211
f 164 211 203
f 164 203 165
f 166 173 212
f 166 212 168
f 166 168 213
f 166 213 167
f 167 213 168
f 168 185 169
f 168 212 185
f 169 185 184
f 169 184 183
f 170 214 215
f 170 215 216
f 170 216 171
f 171 216 217
f 171 217 218
f 171 218 172
f 172 219 173
f 172 218 219
f 173 219 212
f 175 204 220
f 175 220 221
f 175 221 176
f 176 221 222
f 176 222 223
f 176 223 177
f 177 223 224
f 177 224 178
f 178 224 179
f 179 224 225
f 179 225 226
f 179 226 180
f 180 226 205
f 180 205 206
f 180 206 207
f 180 207 227
f 180 227 181
f 181 227 228
f 181 228 229
f 181 229 230
f 181 230 182
f 182 230 231
f 182 231 232
f 182 232 233
f 185 212 219
f 185 219 234
f 185 234 186
f 186 234 187
f 187 234 217
f 187 217 191
f 188 189 190
f 189 194 235
f 189 235 196
f 189 196 190
f 191 217 216
f 191 216 215
f 191 215 236
f 191 236 192
f 192 236 193
f 193 237 194
f 193 236 237
f 194 237 238
f 194 238 239
f 194 239 235
f 195 196 240
f 195 240 197
f 196 241 242
f 196 242 240
f 196 235 241
f 197 243 198
f 197 240 243
f 198 243 244
f 198 244 245
f 198 245 246
f 198 246 247
f 198 247 199
f 199 247 200
f 200 247 201
f 201 248 202
f 201 247 248
f 202 248 207
f 203 211 204
f 204 211 220
f 205 226 249
f 205 249 208
f 207 228 227
f 207 248 250
f 207 250 228
f 208 249 251
f 208 251 209
f 209 251 210
f 210 251 211
f 211 251 221
f 211 221 220
f 214 237 236
f 214 236 215
f 217 234 218
f 218 234 219
f 221 251 222
f 222 251 223
f 223 251 249
f 223 249 225
f 223 225 224
f 225 249 226
f 228 231 229
f 228 250 232
f 228 232 231
f 229 231 230
f 232 250 252
f 232 252 233
f 233 252 253
f 233 253 254
f 233 254 255
f 235 239 255
f 235 255 241
f 238 255 239
f 240 256 243
f 240 242 256
f 241 255 242
f 242 255 254
f 242 254 256
f 243 256 254
f 243 254 244
f 244 254 245
f 245 254 246
f 246 252 250
f 246 250 248
f 246 248 247
f 246 254 253
f 246 253 252
