v 0.022157 -0.052702 0.053346
v 0.019781 -0.052592 0.053330
v 0.021919 -0.078449 0.053341
v 0.028237 -0.141024 0.053325
v 0.032912 -0.144186 0.053314
v 0.026852 -0.064284 0.053319
v 0.023790 -0.031275 0.053265
v 0.020032 -0.028817 0.053233
v 0.019462 -0.067321 0.053292
v 0.024273 -0.146330 0.053287
v 0.029976 -0.147144 0.053249
v 0.032001 -0.146643 0.053098
v 0.034493 -0.160824 0.048224
v 0.036522 -0.157694 0.047933
v 0.051144 -0.143310 0.041209
v 0.051328 -0.139459 0.041522
v 0.049512 -0.136423 0.042827
v 0.043326 -0.039147 0.042390
v 0.022885 -0.029240 0.053007
v 0.043172 -0.036111 0.042245
v 0.042895 -0.033075 0.041916
v 0.027148 -0.018550 0.047653
v 0.025435 -0.017673 0.048262
v 0.022157 -0.014825 0.048796
v 0.019462 -0.014825 0.049125
v 0.019462 -0.084428 0.052058
v 0.019803 -0.081704 0.053201
v 0.024711 -0.167006 0.049027
v 0.031277 -0.163766 0.048774
v 0.036152 -0.159869 0.047539
v 0.033460 -0.163766 0.047723
v 0.051418 -0.145297 0.039506
v 0.051631 -0.142496 0.039549
v 0.051296 -0.147739 0.038460
v 0.051618 -0.139459 0.039549
v 0.051305 -0.136423 0.041549
v 0.044978 -0.043139 0.041129
v 0.044080 -0.033075 0.039549
v 0.043123 -0.029850 0.039775
v 0.042447 -0.030742 0.041479
v 0.024460 -0.014825 0.047782
v 0.023819 -0.013166 0.047329
v 0.022157 -0.012555 0.047782
v 0.019462 -0.011491 0.047895
v 0.019462 -0.090109 0.049648
v 0.024711 -0.169198 0.047831
v 0.027458 -0.168681 0.047604
v 0.028378 -0.167006 0.048262
v 0.031277 -0.165973 0.047723
v 0.032874 -0.165363 0.047237
v 0.051917 -0.145532 0.036508
v 0.051624 -0.148678 0.036670
v 0.051418 -0.150854 0.035769
v 0.052233 -0.139459 0.024355
v 0.051460 -0.136423 0.039549
v 0.051119 -0.131226 0.041220
v 0.051212 -0.133371 0.041387
v 0.045670 -0.039147 0.024366
v 0.044414 -0.036111 0.039549
v 0.044012 -0.030038 0.036508
v 0.043603 -0.026986 0.036508
v 0.042618 -0.026986 0.038842
v 0.042131 -0.025233 0.038222
v 0.042144 -0.019176 0.029439
v 0.019855 -0.010286 0.045636
v 0.042115 -0.022244 0.035208
v 0.019462 -0.010082 0.042590
v 0.019462 -0.090109 0.044353
v 0.024225 -0.166803 0.018063
v 0.024711 -0.169918 0.045383
v 0.027831 -0.168853 0.045631
v 0.029354 -0.168102 0.045631
v 0.051215 -0.156363 0.026506
v 0.051341 -0.153515 0.032647
v 0.052355 -0.139459 0.021330
v 0.052059 -0.148569 0.033472
v 0.051669 -0.151762 0.033585
v 0.045802 -0.039147 0.021330
v 0.045551 -0.036111 0.021330
v 0.043629 -0.023934 0.030431
v 0.043448 -0.023934 0.033472
v 0.042557 -0.024106 0.036341
v 0.042743 -0.020710 0.030442
v 0.042415 -0.018878 0.027390
v 0.042508 -0.021696 0.033472
v 0.042624 -0.018565 0.024366
v 0.040386 -0.017579 0.024366
v 0.040386 -0.017345 0.021330
v 0.019462 -0.010051 0.039549
v 0.019462 -0.044015 0.015378
v 0.024711 -0.169135 0.018747
v 0.024711 -0.169918 0.021330
v 0.024711 -0.169949 0.023886
v 0.019462 -0.042356 0.014671
v 0.025902 -0.042184 0.000184
v 0.032114 -0.136423 0.000340
v 0.032223 -0.139459 0.000545
v 0.032336 -0.142496 0.000863
v 0.032529 -0.144781 0.001208
v 0.025197 -0.169824 0.042590
v 0.027838 -0.168853 0.042590
v 0.028614 -0.168478 0.021330
v 0.051505 -0.156661 0.021330
v 0.051412 -0.156567 0.024355
v 0.051576 -0.154047 0.030431
v 0.052181 -0.139459 0.018284
v 0.052001 -0.136423 0.018284
v 0.045754 -0.039147 0.018289
v 0.052101 -0.151605 0.030431
v 0.052098 -0.154657 0.021330
v 0.051985 -0.151605 0.012196
v 0.045339 -0.035861 0.018106
v 0.043510 -0.023934 0.012196
v 0.043391 -0.020898 0.018289
v 0.043439 -0.020898 0.021330
v 0.043413 -0.020898 0.024366
v 0.043239 -0.020898 0.027390
v 0.042669 -0.018456 0.021330
v 0.042608 -0.018565 0.018289
v 0.040386 -0.017564 0.018289
v 0.019462 -0.010207 0.020920
v 0.019462 -0.010114 0.022845
v 0.019462 -0.010082 0.027390
v 0.037353 -0.150869 0.003920
v 0.040389 -0.150775 0.003985
v 0.046472 -0.150462 0.004254
v 0.048626 -0.150290 0.004421
v 0.048369 -0.153264 0.007484
v 0.027480 -0.168665 0.019260
v 0.033196 -0.146800 0.001844
v 0.035221 -0.147270 0.001418
v 0.037234 -0.148756 0.002346
v 0.027841 -0.168853 0.024366
v 0.024579 -0.033075 0.003073
v 0.025699 -0.036111 0.000189
v 0.025799 -0.039147 0.000081
v 0.019462 -0.011726 0.018343
v 0.034815 -0.136423 -0.001348
v 0.034558 -0.139209 -0.000992
v 0.027731 -0.039147 -0.001531
v 0.034316 -0.142496 -0.000205
v 0.034252 -0.145689 0.000938
v 0.051209 -0.156347 0.016051
v 0.051399 -0.156551 0.018284
v 0.052024 -0.154657 0.024355
v 0.051644 -0.154861 0.027466
v 0.051772 -0.148569 0.009161
v 0.051550 -0.145532 0.006120
v 0.051077 -0.140696 0.001488
v 0.044334 -0.036111 0.003073
v 0.044054 -0.033075 0.003073
v 0.043877 -0.030038 0.006120
v 0.043323 -0.023934 0.009155
v 0.051956 -0.154657 0.018284
v 0.051550 -0.154109 0.012196
v 0.051576 -0.151683 0.009075
v 0.051463 -0.148709 0.005947
v 0.043207 -0.020898 0.015243
v 0.042399 -0.018863 0.015243
v 0.042128 -0.019176 0.013086
v 0.040386 -0.019583 0.011134
v 0.040389 -0.148709 0.002459
v 0.046472 -0.148569 0.002836
v 0.046472 -0.146878 0.001655
v 0.049589 -0.148709 0.003710
v 0.050658 -0.149805 0.004826
v 0.050394 -0.152763 0.007996
v 0.049431 -0.153921 0.009075
v 0.049663 -0.155581 0.012234
v 0.050774 -0.156034 0.014019
v 0.037234 -0.147316 0.001397
v 0.037353 -0.142496 -0.000593
v 0.037353 -0.145532 0.000545
v 0.025709 -0.033075 0.000550
v 0.040386 -0.020772 0.009155
v 0.040386 -0.022087 0.007236
v 0.037346 -0.022040 0.007155
v 0.037346 -0.023402 0.005635
v 0.034313 -0.023402 0.005667
v 0.031277 -0.023433 0.005699
v 0.031277 -0.024951 0.004136
v 0.028237 -0.023543 0.005759
v 0.028237 -0.025077 0.004249
v 0.026398 -0.025264 0.004432
v 0.026083 -0.030696 0.001057
v 0.036483 -0.138082 -0.001504
v 0.037353 -0.139647 -0.001261
v 0.028491 -0.036753 -0.001412
v 0.031277 -0.039147 -0.001736
v 0.037353 -0.136423 -0.001585
v 0.051360 -0.153561 0.010029
v 0.051289 -0.145532 0.003796
v 0.051248 -0.147770 0.004222
v 0.050890 -0.143419 0.001882
v 0.049731 -0.142433 0.000814
v 0.049811 -0.139193 0.000491
v 0.049457 -0.136423 0.000092
v 0.049367 -0.133371 0.000151
v 0.043255 -0.039147 0.000103
v 0.043146 -0.036111 0.000248
v 0.042943 -0.033075 0.000615
v 0.043101 -0.029741 0.002777
v 0.043494 -0.026986 0.006120
v 0.042518 -0.024106 0.006298
v 0.042447 -0.021664 0.009155
v 0.042692 -0.020710 0.012121
v 0.051322 -0.150713 0.006853
v 0.042090 -0.022228 0.007441
v 0.042412 -0.147097 0.001537
v 0.044437 -0.146988 0.001585
v 0.046472 -0.145360 0.000879
v 0.048865 -0.144843 0.001143
v 0.040389 -0.145532 0.000636
v 0.040389 -0.142496 -0.000566
v 0.028237 -0.033075 -0.000528
v 0.040386 -0.023496 0.005726
v 0.037346 -0.024904 0.004103
v 0.031277 -0.026923 0.002626
v 0.029576 -0.028473 0.001537
v 0.028433 -0.027268 0.002561
v 0.027989 -0.029256 0.001283
v 0.040541 -0.136579 -0.001547
v 0.041661 -0.137691 -0.001472
v 0.040087 -0.138677 -0.001402
v 0.043429 -0.139459 -0.001170
v 0.031277 -0.036440 -0.001412
v 0.034313 -0.037410 -0.001526
v 0.038354 -0.038334 -0.001472
v 0.034313 -0.039147 -0.001639
v 0.045838 -0.135578 -0.001450
v 0.046472 -0.142496 -0.000291
v 0.046472 -0.139459 -0.001057
v 0.040386 -0.036111 -0.001111
v 0.040386 -0.033075 -0.000388
v 0.042505 -0.030555 0.001073
v 0.042579 -0.026986 0.003677
v 0.042128 -0.025233 0.004373
v 0.043429 -0.142496 -0.000442
v 0.031277 -0.030038 0.000696
v 0.031277 -0.033075 -0.000571
v 0.040386 -0.025014 0.004190
v 0.040451 -0.027268 0.002448
v 0.037346 -0.026939 0.002583
v 0.034313 -0.026939 0.002594
v 0.031277 -0.028457 0.001526
v 0.034313 -0.035876 -0.001235
v 0.036834 -0.036956 -0.001380
v 0.039578 -0.039805 -0.001450
v 0.037346 -0.033075 -0.000474
v 0.040451 -0.029741 0.000955
v 0.041507 -0.028520 0.001569
v 0.037346 -0.028473 0.001537
v 0.039481 -0.028489 0.001542
v 0.037346 -0.030038 0.000755
v 0.034313 -0.033075 -0.000528
f 1 2 3
f 1 3 4
f 1 4 5
f 1 5 6
f 1 6 7
f 1 7 8
f 1 8 2
f 2 8 9
f 2 9 10
f 2 10 3
f 3 10 4
f 4 10 5
f 5 10 11
f 5 11 12
f 5 12 13
f 5 13 14
f 5 14 15
f 5 15 16
f 5 16 17
f 5 17 18
f 5 18 6
f 6 18 7
f 7 19 8
f 7 18 20
f 7 20 21
f 7 21 22
f 7 22 23
f 7 23 24
f 7 24 19
f 8 19 24
f 8 24 25
f 8 25 9
f 9 26 27
f 9 27 10
f 9 25 44
f 9 44 67
f 9 67 89
f 9 89 123
f 9 123 122
f 9 122 121
f 9 121 137
f 9 137 94
f 9 94 90
f 9 90 68
f 9 68 45
f 9 45 26
f 10 27 26
f 10 26 28
f 10 28 11
f 11 28 12
f 12 28 29
f 12 29 13
f 13 30 14
f 13 29 31
f 13 31 30
f 14 30 15
f 15 32 33
f 15 33 16
f 15 30 34
f 15 34 32
f 16 35 36
f 16 36 17
f 16 33 35
f 17 36 18
f 18 36 37
f 18 37 20
f 20 37 21
f 21 38 39
f 21 39 40
f 21 40 22
f 21 37 38
f 22 41 23
f 22 40 41
f 23 41 24
f 24 41 42
f 24 42 43
f 24 43 44
f 24 44 25
f 26 45 28
f 28 46 47
f 28 47 48
f 28 48 29
f 28 45 46
f 29 48 49
f 29 49 31
f 30 31 50
f 30 50 34
f 31 49 50
f 32 51 33
f 32 34 52
f 32 52 51
f 33 51 35
f 34 50 53
f 34 53 52
f 35 51 54
f 35 54 55
f 35 55 56
f 35 56 57
f 35 57 36
f 36 57 37
f 37 58 59
f 37 59 38
f 37 57 56
f 37 56 58
f 38 60 61
f 38 61 39
f 38 59 60
f 39 61 62
f 39 62 40
f 40 62 63
f 40 63 42
f 40 42 41
f 42 64 65
f 42 65 43
f 42 63 66
f 42 66 64
f 43 65 44
f 44 65 67
f 45 68 69
f 45 69 70
f 45 70 46
f 46 70 47
f 47 71 72
f 47 72 50
f 47 50 49
f 47 49 48
f 47 70 71
f 50 72 73
f 50 73 74
f 50 74 53
f 51 75 54
f 51 52 76
f 51 76 75
f 52 53 77
f 52 77 76
f 53 74 77
f 54 75 55
f 55 75 56
f 56 75 78
f 56 78 58
f 58 78 79
f 58 79 60
f 58 60 59
f 60 79 80
f 60 80 81
f 60 81 61
f 61 81 82
f 61 82 62
f 62 82 63
f 63 82 66
f 64 83 84
f 64 84 65
f 64 66 85
f 64 85 83
f 65 84 86
f 65 86 87
f 65 87 88
f 65 88 67
f 66 82 85
f 67 88 89
f 68 90 69
f 69 91 92
f 69 92 93
f 69 93 70
f 69 90 94
f 69 94 95
f 69 95 96
f 69 96 97
f 69 97 98
f 69 98 99
f 69 99 91
f 70 93 100
f 70 100 71
f 71 100 101
f 71 101 72
f 72 101 102
f 72 102 103
f 72 103 104
f 72 104 73
f 73 104 105
f 73 105 74
f 74 105 77
f 75 106 107
f 75 107 108
f 75 108 78
f 75 76 109
f 75 109 110
f 75 110 111
f 75 111 106
f 76 77 109
f 77 105 109
f 78 108 79
f 79 108 112
f 79 112 113
f 79 113 114
f 79 114 115
f 79 115 116
f 79 116 80
f 80 116 117
f 80 117 81
f 81 85 82
f 81 117 83
f 81 83 85
f 83 117 84
f 84 117 86
f 86 117 116
f 86 116 118
f 86 118 88
f 86 88 87
f 88 118 119
f 88 119 120
f 88 120 121
f 88 121 122
f 88 122 123
f 88 123 89
f 91 124 125
f 91 125 126
f 91 126 127
f 91 127 128
f 91 128 129
f 91 129 92
f 91 99 130
f 91 130 131
f 91 131 132
f 91 132 124
f 92 129 102
f 92 102 133
f 92 133 93
f 93 133 100
f 94 134 135
f 94 135 136
f 94 136 95
f 94 137 134
f 95 136 96
f 96 138 139
f 96 139 97
f 96 136 140
f 96 140 138
f 97 139 98
f 98 139 99
f 99 139 141
f 99 141 142
f 99 142 130
f 100 133 101
f 101 133 102
f 102 129 143
f 102 143 144
f 102 144 103
f 103 144 110
f 103 110 145
f 103 145 104
f 104 145 146
f 104 146 105
f 105 145 109
f 105 146 145
f 106 111 147
f 106 147 148
f 106 148 149
f 106 149 107
f 107 149 108
f 108 150 151
f 108 151 152
f 108 152 153
f 108 153 113
f 108 113 112
f 108 149 150
f 109 145 110
f 110 144 154
f 110 154 111
f 111 154 155
f 111 155 156
f 111 156 157
f 111 157 147
f 113 153 158
f 113 158 114
f 114 158 119
f 114 119 118
f 114 118 115
f 115 118 116
f 119 159 120
f 119 158 159
f 120 159 160
f 120 160 121
f 121 160 161
f 121 161 137
f 124 132 125
f 125 132 162
f 125 162 163
f 125 163 126
f 126 163 127
f 127 163 164
f 127 164 165
f 127 165 166
f 127 166 128
f 128 166 167
f 128 167 168
f 128 168 129
f 129 168 169
f 129 169 170
f 129 170 143
f 130 142 131
f 131 171 132
f 131 142 172
f 131 172 173
f 131 173 171
f 132 171 162
f 134 174 135
f 134 137 174
f 135 140 136
f 135 174 140
f 137 161 175
f 137 175 176
f 137 176 177
f 137 177 178
f 137 178 179
f 137 179 180
f 137 180 181
f 137 181 182
f 137 182 183
f 137 183 184
f 137 184 185
f 137 185 174
f 138 186 139
f 138 140 186
f 139 186 187
f 139 187 141
f 140 174 188
f 140 188 189
f 140 189 190
f 140 190 186
f 141 187 172
f 141 172 142
f 143 170 191
f 143 191 155
f 143 155 144
f 144 155 154
f 147 157 148
f 148 192 149
f 148 157 192
f 149 192 193
f 149 193 194
f 149 194 195
f 149 195 196
f 149 196 197
f 149 197 198
f 149 198 199
f 149 199 200
f 149 200 150
f 150 200 151
f 151 200 201
f 151 201 202
f 151 202 203
f 151 203 153
f 151 153 152
f 153 203 204
f 153 204 205
f 153 205 206
f 153 206 158
f 155 191 156
f 156 191 207
f 156 207 157
f 157 207 193
f 157 193 192
f 158 206 159
f 159 206 160
f 160 206 205
f 160 205 208
f 160 208 161
f 161 208 175
f 162 171 209
f 162 209 210
f 162 210 164
f 162 164 163
f 164 210 211
f 164 211 212
f 164 212 165
f 165 212 166
f 166 207 191
f 166 191 167
f 166 212 193
f 166 193 207
f 167 191 168
f 168 191 169
f 169 191 170
f 171 173 213
f 171 213 209
f 172 187 214
f 172 214 173
f 173 214 213
f 174 185 215
f 174 215 188
f 175 208 176
f 176 208 216
f 176 216 178
f 176 178 177
f 178 216 217
f 178 217 179
f 179 217 181
f 179 181 180
f 181 217 218
f 181 218 219
f 181 219 183
f 181 183 182
f 183 219 220
f 183 220 184
f 184 220 221
f 184 221 185
f 185 221 215
f 186 190 222
f 186 222 223
f 186 223 224
f 186 224 187
f 187 224 225
f 187 225 214
f 188 226 189
f 188 215 226
f 189 226 227
f 189 227 228
f 189 228 229
f 189 229 230
f 189 230 222
f 189 222 190
f 193 212 194
f 194 212 195
f 195 231 232
f 195 232 196
f 195 212 231
f 196 232 197
f 197 230 233
f 197 233 199
f 197 199 198
f 197 232 230
f 199 233 200
f 200 233 201
f 201 233 234
f 201 234 235
f 201 235 202
f 202 236 203
f 202 235 236
f 203 236 204
f 204 236 237
f 204 237 208
f 204 208 205
f 208 237 216
f 209 213 210
f 210 213 211
f 211 213 231
f 211 231 212
f 213 214 238
f 213 238 231
f 214 225 232
f 214 232 238
f 215 221 219
f 215 219 239
f 215 239 240
f 215 240 226
f 216 237 241
f 216 241 217
f 217 241 242
f 217 242 243
f 217 243 244
f 217 244 218
f 218 244 245
f 218 245 219
f 219 221 220
f 219 245 239
f 222 230 223
f 223 230 232
f 223 232 224
f 224 232 225
f 226 240 246
f 226 246 227
f 227 246 247
f 227 247 228
f 228 247 233
f 228 233 248
f 228 248 229
f 229 248 230
f 230 248 233
f 231 238 232
f 233 247 246
f 233 246 234
f 234 246 249
f 234 249 250
f 234 250 251
f 234 251 235
f 235 251 237
f 235 237 236
f 237 251 241
f 239 245 252
f 239 252 253
f 239 253 254
f 239 254 240
f 240 254 255
f 240 255 246
f 241 251 242
f 242 251 243
f 243 251 253
f 243 253 252
f 243 252 245
f 243 245 244
f 246 255 249
f 249 255 254
f 249 254 250
f 250 253 251
f 250 254 253
