v -0.054412 -0.142320 0.012324
v -0.054412 -0.143221 0.013015
v -0.054412 -0.140190 0.012652
v 0.024221 -0.134615 0.016150
v 0.024221 -0.135509 0.016115
v 0.024221 -0.135967 0.016115
v 0.024221 -0.137334 0.016568
v 0.024221 -0.137714 0.016835
v -0.054412 -0.144798 0.015234
v -0.054412 -0.138938 0.015234
v -0.031406 -0.120076 0.019171
v -0.030267 -0.120076 0.018442
v -0.029535 -0.120076 0.018016
v 0.000852 -0.120076 0.017963
v 0.002299 -0.120076 0.018424
v 0.003146 -0.120076 0.018752
v 0.024221 -0.134257 0.016502
v 0.024221 -0.138268 0.018257
v -0.054412 -0.144806 0.015268
v 0.021827 -0.143695 0.037129
v -0.054412 -0.138130 0.018384
v -0.031560 -0.120076 0.020023
v -0.054412 -0.137494 0.021220
v -0.054412 -0.137011 0.024357
v 0.003654 -0.120076 0.020354
v 0.024221 -0.133116 0.019247
v 0.024221 -0.133444 0.018241
v 0.024221 -0.142738 0.037129
v 0.022266 -0.143619 0.037129
v -0.054412 -0.145239 0.017675
v 0.004478 -0.140380 0.039371
v 0.003654 -0.140503 0.039371
v 0.001053 -0.140688 0.039371
v -0.035616 -0.142991 0.039371
v -0.038656 -0.143181 0.039371
v -0.040396 -0.143282 0.039371
v -0.054412 -0.145645 0.038137
v -0.054412 -0.145645 0.036517
v -0.054412 -0.145274 0.018276
v -0.031767 -0.120076 0.021318
v -0.054412 -0.135744 0.038137
v -0.053358 -0.134773 0.038137
v 0.003931 -0.120076 0.021318
v 0.024221 -0.132763 0.021318
v 0.024221 -0.133141 0.037129
v 0.004478 -0.123326 0.039371
v -0.040396 -0.135544 0.039371
v -0.031945 -0.120076 0.039371
v 0.004224 -0.120076 0.039371
v 0.004324 -0.121043 0.039371
v 0.004339 -0.121228 0.039371
f 1 2 9
f 1 9 19
f 1 19 30
f 1 30 39
f 1 39 38
f 1 38 37
f 1 37 41
f 1 41 24
f 1 24 23
f 1 23 21
f 1 21 10
f 1 10 3
f 1 3 4
f 1 4 5
f 1 5 6
f 1 6 7
f 1 7 8
f 1 8 2
f 2 8 9
f 3 10 11
f 3 11 12
f 3 12 13
f 3 13 14
f 3 14 4
f 4 14 15
f 4 15 16
f 4 16 17
f 4 17 27
f 4 27 26
f 4 26 44
f 4 44 45
f 4 45 28
f 4 28 18
f 4 18 8
f 4 8 7
f 4 7 6
f 4 6 5
f 8 18 9
f 9 18 20
f 9 20 19
f 10 21 11
f 11 22 40
f 11 40 48
f 11 48 49
f 11 49 43
f 11 43 25
f 11 25 16
f 11 16 15
f 11 15 14
f 11 14 13
f 11 13 12
f 11 21 23
f 11 23 24
f 11 24 22
f 16 25 26
f 16 26 27
f 16 27 17
f 18 28 29
f 18 29 20
f 19 20 30
f 20 29 31
f 20 31 32
f 20 32 33
f 20 33 34
f 20 34 35
f 20 35 36
f 20 36 37
f 20 37 38
f 20 38 39
f 20 39 30
f 22 24 40
f 24 41 42
f 24 42 40
f 25 43 26
f 26 43 44
f 28 45 46
f 28 46 31
f 28 31 29
f 31 46 51
f 31 51 50
f 31 50 49
f 31 49 48
f 31 48 47
f 31 47 36
f 31 36 35
f 31 35 34
f 31 34 33
f 31 33 32
f 36 47 41
f 36 41 37
f 40 42 48
f 41 47 48
f 41 48 42
f 43 49 44
f 44 49 45
f 45 49 50
f 45 50 51
f 45 51 46
