v -0.054416 -0.149063 0.053451
v -0.054416 -0.098163 0.053364
v -0.056405 -0.073663 0.053359
v -0.060831 -0.034425 0.053321
v -0.061682 -0.069538 0.053354
v -0.058697 -0.118168 0.053402
v -0.055078 -0.152585 0.053408
v -0.054416 -0.166797 0.049128
v -0.054416 -0.090130 0.052960
v -0.056405 -0.036511 0.053267
v -0.056405 -0.051557 0.053305
v -0.058149 -0.034472 0.053289
v -0.064525 -0.037638 0.053240
v -0.056662 -0.017603 0.049111
v -0.059962 -0.017865 0.048976
v -0.075060 -0.145541 0.042370
v -0.061499 -0.086330 0.053246
v -0.074873 -0.148584 0.042106
v -0.074383 -0.151612 0.041604
v -0.059012 -0.163785 0.047881
v -0.056953 -0.166705 0.048129
v -0.055189 -0.169315 0.047924
v -0.054416 -0.170968 0.045636
v -0.054416 -0.090130 0.044578
v -0.056405 -0.014374 0.018720
v -0.056524 -0.014266 0.047881
v -0.082906 -0.040079 0.041253
v -0.083061 -0.042196 0.041480
v -0.081235 -0.045223 0.042807
v -0.081235 -0.048267 0.042759
v -0.063000 -0.020893 0.048987
v -0.066001 -0.021140 0.047886
v -0.066041 -0.023936 0.048674
v -0.068103 -0.024755 0.047762
v -0.059962 -0.015471 0.047973
v -0.062971 -0.017865 0.048064
v -0.083087 -0.045223 0.041609
v -0.076725 -0.141679 0.041167
v -0.075550 -0.151612 0.039553
v -0.074585 -0.154547 0.039623
v -0.073891 -0.153466 0.041232
v -0.058615 -0.165608 0.047417
v -0.073888 -0.162518 0.032413
v -0.074200 -0.156911 0.038662
v -0.074176 -0.159892 0.035732
v -0.054416 -0.171061 0.036514
v -0.073704 -0.165361 0.025132
v -0.073861 -0.165515 0.021327
v -0.054416 -0.140181 0.012653
v -0.063936 -0.045239 0.000456
v -0.064044 -0.042196 0.000655
v -0.064181 -0.039137 0.001017
v -0.064350 -0.037268 0.001325
v -0.066041 -0.036742 0.001066
v -0.069085 -0.033066 0.003203
v -0.068438 -0.031459 0.004520
v -0.071065 -0.031490 0.004547
v -0.073092 -0.031614 0.004666
v -0.078194 -0.031938 0.004995
v -0.078194 -0.030563 0.006517
v -0.082072 -0.031135 0.007170
v -0.080950 -0.028802 0.009771
v -0.059962 -0.015517 0.018693
v -0.056921 -0.013447 0.021332
v -0.056702 -0.013324 0.046127
v -0.054416 -0.142297 0.012335
v -0.056449 -0.148584 0.003079
v -0.057606 -0.142498 0.000418
v -0.057700 -0.139455 0.000499
v -0.083259 -0.039106 0.039720
v -0.067645 -0.022283 0.047260
v -0.082897 -0.034379 0.038182
v -0.083151 -0.036109 0.038738
v -0.083434 -0.042196 0.039553
v -0.064960 -0.018885 0.047584
v -0.061936 -0.016027 0.047573
v -0.083323 -0.045223 0.039553
v -0.082985 -0.048267 0.041491
v -0.077264 -0.145541 0.021327
v -0.076952 -0.147997 0.024365
v -0.076112 -0.148584 0.039553
v -0.082822 -0.052113 0.041178
v -0.083860 -0.048267 0.024360
v -0.084201 -0.045223 0.021332
v -0.075608 -0.154655 0.036514
v -0.074692 -0.157822 0.036649
v -0.074448 -0.160834 0.033443
v -0.074203 -0.162982 0.030426
v -0.054416 -0.171092 0.033470
v -0.074223 -0.163893 0.027096
v -0.074456 -0.163785 0.024365
v -0.073771 -0.165438 0.018893
v -0.054416 -0.171138 0.021111
v -0.074523 -0.163785 0.021327
v -0.063817 -0.048282 0.000380
v -0.065563 -0.048282 -0.001142
v -0.066155 -0.045022 -0.001147
v -0.066041 -0.042196 -0.000678
v -0.066041 -0.039137 0.000116
v -0.069085 -0.039137 -0.000186
v -0.068654 -0.035877 0.001330
v -0.072095 -0.032803 0.003619
v -0.072115 -0.035120 0.001881
v -0.078194 -0.033452 0.003646
v -0.081235 -0.032479 0.005421
v -0.082026 -0.034225 0.004309
v -0.083014 -0.033313 0.006274
v -0.083104 -0.030749 0.009161
v -0.082524 -0.028663 0.010851
v -0.061916 -0.016058 0.019303
v -0.056947 -0.013416 0.026945
v -0.059962 -0.014637 0.021332
v -0.057466 -0.013571 0.024371
v -0.057595 -0.013540 0.042586
v -0.059962 -0.014575 0.045630
v -0.054416 -0.169624 0.018709
v -0.056075 -0.154655 0.006117
v -0.056659 -0.151612 0.003079
v -0.057498 -0.148584 0.000504
v -0.057519 -0.145541 0.000342
v -0.083708 -0.036109 0.036509
v -0.082932 -0.031351 0.035219
v -0.083212 -0.033251 0.036342
v -0.083110 -0.028123 0.029806
v -0.082495 -0.028586 0.031824
v -0.062181 -0.015857 0.045630
v -0.083399 -0.027721 0.027388
v -0.077177 -0.145541 0.018283
v -0.077025 -0.148229 0.021327
v -0.077398 -0.142498 0.018283
v -0.075375 -0.157698 0.033470
v -0.084005 -0.045223 0.018283
v -0.083912 -0.048267 0.018283
v -0.083874 -0.033066 0.033465
v -0.083962 -0.033066 0.030432
v -0.084023 -0.030023 0.027388
v -0.084067 -0.030023 0.024360
v -0.083999 -0.030023 0.021332
v -0.083918 -0.030023 0.018283
v -0.083822 -0.030023 0.015244
v -0.075013 -0.160742 0.030426
v -0.075121 -0.160742 0.027393
v -0.073547 -0.165268 0.016863
v -0.074252 -0.163507 0.015244
v -0.072366 -0.165005 0.015217
v -0.072112 -0.163893 0.012200
v -0.069080 -0.162843 0.009696
v -0.069080 -0.161900 0.008179
v -0.074859 -0.160742 0.015244
v -0.074719 -0.160742 0.012200
v -0.067870 -0.048282 -0.001617
v -0.067948 -0.045764 -0.001563
v -0.060539 -0.142498 -0.001309
v -0.069085 -0.044003 -0.001460
v -0.069085 -0.042196 -0.001088
v -0.075156 -0.042196 -0.000904
v -0.078194 -0.042196 -0.000791
v -0.072115 -0.039137 -0.000062
v -0.078194 -0.036974 0.001179
v -0.072115 -0.042196 -0.001012
v -0.078194 -0.035445 0.002129
v -0.075156 -0.033267 0.003527
v -0.080247 -0.037237 0.001325
v -0.082769 -0.040743 0.001535
v -0.083402 -0.033066 0.009161
v -0.083346 -0.029822 0.012006
v -0.083081 -0.028123 0.012875
v -0.081235 -0.026501 0.015244
v -0.059962 -0.014606 0.024371
v -0.080961 -0.025852 0.018509
v -0.081448 -0.025821 0.021332
v -0.059962 -0.014544 0.039553
v -0.059962 -0.014544 0.042586
v -0.059959 -0.160139 0.006565
v -0.059959 -0.158764 0.005049
v -0.057647 -0.159815 0.006943
v -0.057796 -0.156849 0.004083
v -0.057046 -0.157791 0.006009
v -0.057434 -0.154470 0.003068
v -0.057813 -0.151612 0.001028
v -0.059959 -0.148584 -0.000667
v -0.060758 -0.144800 -0.001352
v -0.083268 -0.030702 0.033465
v -0.083542 -0.029776 0.030658
v -0.083510 -0.027412 0.024360
v -0.076818 -0.147472 0.016275
v -0.076952 -0.147966 0.018283
v -0.076214 -0.139455 0.003079
v -0.075474 -0.148584 0.003079
v -0.083489 -0.027350 0.021332
v -0.083443 -0.027412 0.018283
v -0.083329 -0.027690 0.015244
v -0.074066 -0.162920 0.012200
v -0.072958 -0.162580 0.010160
v -0.072112 -0.161715 0.008417
v -0.069080 -0.160386 0.006328
v -0.066039 -0.160309 0.006403
v -0.072112 -0.160201 0.006517
v -0.074958 -0.157698 0.009161
v -0.074211 -0.160742 0.009286
v -0.072115 -0.048267 -0.001687
v -0.063000 -0.142498 -0.001541
v -0.072115 -0.045733 -0.001574
v -0.075156 -0.046011 -0.001568
v -0.072115 -0.044204 -0.001439
v -0.078194 -0.039137 0.000218
v -0.075156 -0.039137 0.000067
v -0.078194 -0.045470 -0.001455
v -0.079786 -0.046490 -0.001520
v -0.081250 -0.039400 0.001039
v -0.079769 -0.049981 -0.001514
v -0.074725 -0.145541 0.000240
v -0.066039 -0.158934 0.004887
v -0.063000 -0.157328 0.003646
v -0.059959 -0.157235 0.003743
v -0.059959 -0.155103 0.002226
v -0.059084 -0.153466 0.001352
v -0.059959 -0.151612 0.000375
v -0.063000 -0.151612 0.000218
v -0.063000 -0.148584 -0.000791
v -0.063000 -0.145016 -0.001422
v -0.075121 -0.154655 0.006117
v -0.074558 -0.148584 0.000499
v -0.075112 -0.151612 0.003079
v -0.073993 -0.159722 0.007040
v -0.072112 -0.158842 0.005000
v -0.069080 -0.158996 0.004811
v -0.074386 -0.157760 0.006058
v -0.075156 -0.048267 -0.001660
v -0.065721 -0.144707 -0.001422
v -0.065301 -0.142498 -0.001503
v -0.079002 -0.048267 -0.001574
v -0.072112 -0.142498 -0.001298
v -0.072112 -0.145541 -0.001163
v -0.066039 -0.157405 0.003597
v -0.066039 -0.155304 0.002080
v -0.063000 -0.154501 0.001659
v -0.069080 -0.151612 0.000159
v -0.066039 -0.153790 0.001168
v -0.066039 -0.148584 -0.000786
v -0.069080 -0.145541 -0.001271
v -0.069080 -0.148584 -0.000769
v -0.072112 -0.148584 -0.000661
v -0.074232 -0.151612 0.000909
v -0.074369 -0.154593 0.003063
v -0.074036 -0.156803 0.004061
v -0.072112 -0.157312 0.003672
v -0.069080 -0.157467 0.003559
v -0.069080 -0.142498 -0.001406
v -0.069080 -0.154593 0.001595
v -0.072112 -0.151612 0.000208
v -0.072112 -0.153790 0.001163
v -0.073899 -0.153543 0.001309
v -0.072112 -0.155320 0.002156
f 1 2 3
f 1 3 4
f 1 4 5
f 1 5 6
f 1 6 7
f 1 7 8
f 1 8 23
f 1 23 46
f 1 46 89
f 1 89 93
f 1 93 116
f 1 116 66
f 1 66 49
f 1 49 24
f 1 24 9
f 1 9 2
f 2 9 10
f 2 10 11
f 2 11 3
f 3 11 12
f 3 12 4
f 4 13 5
f 4 12 14
f 4 14 15
f 4 15 13
f 5 13 6
f 6 16 7
f 6 13 17
f 6 17 16
f 7 16 18
f 7 18 19
f 7 19 20
f 7 20 21
f 7 21 8
f 8 21 22
f 8 22 23
f 9 24 25
f 9 25 26
f 9 26 10
f 10 26 14
f 10 14 12
f 10 12 11
f 13 27 28
f 13 28 29
f 13 29 30
f 13 30 17
f 13 15 31
f 13 31 32
f 13 32 33
f 13 33 34
f 13 34 27
f 14 26 15
f 15 26 35
f 15 35 36
f 15 36 31
f 16 17 30
f 16 30 37
f 16 37 38
f 16 38 18
f 18 38 39
f 18 39 19
f 19 39 40
f 19 40 41
f 19 41 20
f 20 42 21
f 20 41 42
f 21 42 22
f 22 43 23
f 22 42 44
f 22 44 45
f 22 45 43
f 23 43 47
f 23 47 48
f 23 48 46
f 24 49 25
f 25 50 51
f 25 51 52
f 25 52 53
f 25 53 54
f 25 54 55
f 25 55 56
f 25 56 57
f 25 57 58
f 25 58 59
f 25 59 60
f 25 60 61
f 25 61 62
f 25 62 63
f 25 63 64
f 25 64 65
f 25 65 26
f 25 49 66
f 25 66 67
f 25 67 68
f 25 68 69
f 25 69 50
f 26 65 35
f 27 70 28
f 27 34 71
f 27 71 72
f 27 72 73
f 27 73 70
f 28 70 74
f 28 74 37
f 28 37 29
f 29 37 30
f 31 36 32
f 32 71 34
f 32 34 33
f 32 36 75
f 32 75 71
f 35 65 76
f 35 76 36
f 36 76 75
f 37 77 78
f 37 78 38
f 37 74 77
f 38 79 80
f 38 80 81
f 38 81 39
f 38 78 82
f 38 82 83
f 38 83 84
f 38 84 79
f 39 81 85
f 39 85 86
f 39 86 40
f 40 86 44
f 40 44 41
f 41 44 42
f 43 87 88
f 43 88 47
f 43 45 87
f 44 86 45
f 45 86 87
f 46 48 89
f 47 90 91
f 47 91 48
f 47 88 90
f 48 92 93
f 48 93 89
f 48 91 94
f 48 94 92
f 50 95 96
f 50 96 51
f 50 69 95
f 51 96 97
f 51 97 98
f 51 98 52
f 52 98 53
f 53 98 99
f 53 99 54
f 54 99 100
f 54 100 101
f 54 101 55
f 55 102 57
f 55 57 56
f 55 101 103
f 55 103 102
f 57 102 104
f 57 104 58
f 58 104 59
f 59 105 61
f 59 61 60
f 59 104 105
f 61 105 106
f 61 106 107
f 61 107 108
f 61 108 109
f 61 109 62
f 62 109 63
f 63 110 64
f 63 109 110
f 64 111 65
f 64 110 112
f 64 112 113
f 64 113 111
f 65 111 114
f 65 114 115
f 65 115 76
f 66 116 117
f 66 117 67
f 67 117 118
f 67 118 119
f 67 119 120
f 67 120 68
f 68 120 96
f 68 96 69
f 69 96 95
f 70 73 121
f 70 121 74
f 71 75 122
f 71 122 72
f 72 122 123
f 72 123 73
f 73 123 121
f 74 121 84
f 74 84 77
f 75 76 124
f 75 124 125
f 75 125 122
f 76 115 126
f 76 126 127
f 76 127 124
f 77 84 82
f 77 82 78
f 79 128 129
f 79 129 80
f 79 84 130
f 79 130 128
f 80 129 131
f 80 131 85
f 80 85 81
f 82 84 83
f 84 132 133
f 84 133 130
f 84 121 134
f 84 134 135
f 84 135 136
f 84 136 137
f 84 137 138
f 84 138 139
f 84 139 140
f 84 140 132
f 85 131 86
f 86 131 87
f 87 131 141
f 87 141 88
f 88 141 90
f 90 141 91
f 91 142 94
f 91 141 142
f 92 143 93
f 92 94 144
f 92 144 143
f 93 143 145
f 93 145 146
f 93 146 147
f 93 147 148
f 93 148 116
f 94 142 129
f 94 129 149
f 94 149 150
f 94 150 144
f 96 151 152
f 96 152 97
f 96 120 153
f 96 153 151
f 97 152 98
f 98 152 154
f 98 154 155
f 98 155 99
f 99 155 100
f 100 156 157
f 100 157 158
f 100 158 159
f 100 159 101
f 100 155 160
f 100 160 156
f 101 159 103
f 102 103 161
f 102 161 162
f 102 162 104
f 103 159 161
f 104 161 163
f 104 163 105
f 104 162 161
f 105 163 106
f 106 163 164
f 106 164 107
f 107 165 108
f 107 164 165
f 108 165 140
f 108 140 166
f 108 166 167
f 108 167 109
f 109 167 110
f 110 168 112
f 110 167 168
f 111 113 114
f 112 169 113
f 112 168 170
f 112 170 171
f 112 171 169
f 113 169 114
f 114 169 172
f 114 172 173
f 114 173 115
f 115 173 171
f 115 171 126
f 116 148 174
f 116 174 175
f 116 175 176
f 116 176 177
f 116 177 178
f 116 178 179
f 116 179 117
f 117 179 118
f 118 179 180
f 118 180 119
f 119 180 181
f 119 181 182
f 119 182 120
f 120 182 153
f 121 123 134
f 122 125 124
f 122 124 183
f 122 183 123
f 123 183 134
f 124 127 184
f 124 184 183
f 126 171 185
f 126 185 127
f 127 136 184
f 127 185 136
f 128 186 187
f 128 187 129
f 128 130 188
f 128 188 189
f 128 189 186
f 129 187 149
f 129 142 131
f 130 133 188
f 131 142 141
f 132 140 165
f 132 165 164
f 132 164 133
f 133 164 188
f 134 183 184
f 134 184 136
f 134 136 135
f 136 185 137
f 137 185 190
f 137 190 191
f 137 191 138
f 138 191 139
f 139 191 140
f 140 191 192
f 140 192 166
f 143 146 145
f 143 144 193
f 143 193 194
f 143 194 146
f 144 150 193
f 146 194 195
f 146 195 147
f 147 195 148
f 148 196 197
f 148 197 174
f 148 195 198
f 148 198 196
f 149 187 150
f 150 187 199
f 150 199 200
f 150 200 193
f 151 201 152
f 151 153 182
f 151 182 202
f 151 202 201
f 152 203 154
f 152 201 203
f 154 203 204
f 154 204 205
f 154 205 155
f 155 205 160
f 156 160 205
f 156 205 157
f 157 163 206
f 157 206 207
f 157 207 158
f 157 205 208
f 157 208 209
f 157 209 163
f 158 207 159
f 159 163 161
f 159 207 206
f 159 206 163
f 163 209 210
f 163 210 164
f 164 210 209
f 164 209 211
f 164 211 212
f 164 212 188
f 166 192 167
f 167 192 168
f 168 192 170
f 169 171 172
f 170 192 171
f 171 192 191
f 171 191 190
f 171 190 185
f 171 173 172
f 174 197 213
f 174 213 175
f 175 213 214
f 175 214 215
f 175 215 177
f 175 177 176
f 177 215 216
f 177 216 217
f 177 217 180
f 177 180 179
f 177 179 178
f 180 217 218
f 180 218 181
f 181 218 219
f 181 219 220
f 181 220 221
f 181 221 182
f 182 221 202
f 186 189 222
f 186 222 187
f 187 222 199
f 188 212 189
f 189 212 223
f 189 223 224
f 189 224 222
f 193 200 225
f 193 225 194
f 194 225 195
f 195 225 198
f 196 198 226
f 196 226 227
f 196 227 213
f 196 213 197
f 198 225 226
f 199 222 228
f 199 228 200
f 200 228 225
f 201 229 204
f 201 204 203
f 201 202 229
f 202 221 230
f 202 230 231
f 202 231 229
f 204 209 208
f 204 208 205
f 204 229 209
f 209 229 232
f 209 232 211
f 211 232 233
f 211 233 234
f 211 234 212
f 212 234 223
f 213 227 214
f 214 235 236
f 214 236 216
f 214 216 215
f 214 227 235
f 216 236 237
f 216 237 217
f 217 237 218
f 218 237 219
f 219 238 220
f 219 237 239
f 219 239 238
f 220 240 221
f 220 238 240
f 221 241 230
f 221 240 242
f 221 242 241
f 222 224 228
f 223 243 244
f 223 244 224
f 223 234 243
f 224 244 245
f 224 245 228
f 225 228 246
f 225 246 226
f 226 246 247
f 226 247 227
f 227 248 235
f 227 247 248
f 228 245 246
f 229 231 232
f 230 241 249
f 230 249 231
f 231 249 232
f 232 249 233
f 233 249 241
f 233 241 234
f 234 241 242
f 234 242 243
f 235 248 236
f 236 250 239
f 236 239 237
f 236 248 250
f 238 251 242
f 238 242 240
f 238 239 252
f 238 252 251
f 239 250 252
f 242 251 243
f 243 251 253
f 243 253 244
f 244 253 245
f 245 253 246
f 246 253 247
f 247 253 254
f 247 254 248
f 248 254 250
f 250 254 252
f 251 252 253
f 252 254 253
