v 0.016062 -0.151116 0.037127
v 0.017932 -0.151500 0.037127
v 0.024221 -0.164775 0.019157
v -0.002242 -0.164366 0.012040
v -0.002180 -0.162705 0.014573
v -0.005221 -0.162604 0.014742
v -0.054412 -0.161662 0.019137
v -0.054412 -0.158874 0.038137
v -0.040396 -0.157804 0.038137
v 0.019248 -0.151838 0.037127
v 0.021950 -0.154662 0.037127
v 0.022296 -0.155032 0.037127
v 0.024221 -0.164531 0.019728
v 0.024221 -0.166839 0.018064
v -0.002242 -0.166709 0.009800
v -0.003296 -0.165188 0.010533
v -0.005221 -0.163937 0.012197
v -0.054412 -0.163934 0.018096
v -0.008261 -0.165211 0.010563
v -0.010023 -0.165289 0.010636
v -0.014341 -0.167209 0.009782
v -0.017374 -0.169878 0.008733
v -0.054412 -0.171067 0.038137
v -0.040396 -0.174856 0.038137
v 0.024221 -0.158350 0.037127
v 0.024221 -0.163553 0.022272
v -0.002180 -0.169878 0.008774
v -0.000125 -0.167632 0.010140
v 0.024221 -0.169205 0.018699
v -0.008261 -0.182038 0.008881
v -0.008261 -0.178997 0.008101
v -0.005221 -0.169878 0.008192
v -0.005221 -0.166842 0.009369
v -0.005221 -0.165136 0.010486
v -0.054412 -0.163986 0.018081
v -0.008261 -0.166842 0.009537
v -0.011147 -0.166624 0.009889
v -0.014341 -0.169878 0.008390
v -0.014341 -0.172916 0.008101
v -0.054412 -0.166208 0.018084
v -0.054412 -0.171086 0.036512
v -0.053188 -0.171974 0.038137
v -0.041704 -0.174941 0.038137
v -0.009154 -0.183803 0.029132
v 0.019102 -0.170752 0.037127
v 0.019718 -0.170693 0.037127
v 0.022142 -0.170459 0.037127
v 0.022750 -0.170339 0.037127
v 0.024221 -0.170043 0.037127
v 0.024221 -0.170059 0.021318
v -0.006706 -0.183585 0.010616
v -0.006229 -0.182038 0.009942
v -0.008261 -0.183819 0.010161
v -0.011301 -0.183862 0.010093
v -0.011301 -0.182038 0.008792
v -0.011301 -0.178997 0.008027
v -0.008261 -0.175955 0.008015
v -0.008261 -0.172916 0.007947
v -0.054412 -0.169507 0.018616
v -0.054412 -0.171112 0.033474
v -0.053265 -0.172039 0.021318
v -0.050825 -0.173332 0.027394
v -0.050825 -0.173309 0.030430
v -0.050825 -0.173244 0.038137
v -0.043121 -0.174934 0.038137
v -0.010555 -0.183803 0.029132
v -0.011463 -0.184125 0.027524
v -0.008184 -0.184070 0.027344
v -0.006583 -0.183673 0.026298
v 0.024221 -0.170069 0.023384
v -0.006583 -0.183673 0.025124
v -0.008022 -0.184102 0.024208
v -0.008261 -0.184060 0.012197
v -0.011301 -0.184174 0.012197
v -0.012925 -0.183644 0.010521
v -0.052965 -0.171827 0.019287
v -0.053935 -0.169985 0.018672
v -0.054412 -0.169770 0.018788
v -0.054412 -0.171174 0.023614
v -0.050825 -0.173352 0.021318
v -0.050825 -0.173348 0.024350
v -0.054412 -0.171187 0.021318
v -0.048570 -0.174242 0.027394
v -0.048547 -0.174232 0.030430
v -0.048447 -0.174187 0.038137
v -0.044745 -0.174915 0.038137
v -0.045776 -0.174778 0.038137
v -0.046923 -0.174619 0.038137
v -0.013102 -0.183761 0.026602
v -0.011301 -0.184313 0.024350
v -0.048570 -0.174232 0.021318
v -0.046784 -0.174570 0.019530
v -0.054412 -0.171096 0.020895
v -0.048570 -0.174242 0.024350
f 1 2 3
f 1 3 4
f 1 4 5
f 1 5 6
f 1 6 7
f 1 7 8
f 1 8 9
f 1 9 2
f 2 9 10
f 2 10 3
f 3 10 11
f 3 11 12
f 3 12 13
f 3 13 26
f 3 26 25
f 3 25 49
f 3 49 70
f 3 70 50
f 3 50 29
f 3 29 14
f 3 14 15
f 3 15 16
f 3 16 4
f 4 16 5
f 5 16 17
f 5 17 6
f 6 17 7
f 7 18 35
f 7 35 40
f 7 40 59
f 7 59 78
f 7 78 93
f 7 93 82
f 7 82 79
f 7 79 60
f 7 60 41
f 7 41 23
f 7 23 8
f 7 17 19
f 7 19 20
f 7 20 21
f 7 21 22
f 7 22 18
f 8 23 42
f 8 42 64
f 8 64 85
f 8 85 88
f 8 88 87
f 8 87 86
f 8 86 65
f 8 65 43
f 8 43 24
f 8 24 9
f 9 24 49
f 9 49 25
f 9 25 12
f 9 12 11
f 9 11 10
f 12 25 26
f 12 26 13
f 14 27 28
f 14 28 15
f 14 29 30
f 14 30 31
f 14 31 27
f 15 27 32
f 15 32 33
f 15 33 16
f 15 28 27
f 16 33 34
f 16 34 17
f 17 34 19
f 18 22 35
f 19 36 20
f 19 34 33
f 19 33 36
f 20 36 37
f 20 37 21
f 21 37 36
f 21 36 38
f 21 38 22
f 22 38 39
f 22 39 40
f 22 40 35
f 23 41 42
f 24 43 44
f 24 44 45
f 24 45 46
f 24 46 47
f 24 47 48
f 24 48 49
f 27 31 32
f 29 50 51
f 29 51 52
f 29 52 30
f 30 53 54
f 30 54 55
f 30 55 31
f 30 52 51
f 30 51 53
f 31 55 56
f 31 56 57
f 31 57 32
f 32 57 58
f 32 58 38
f 32 38 33
f 33 38 36
f 38 58 39
f 39 58 56
f 39 56 40
f 40 56 59
f 41 60 42
f 42 60 61
f 42 61 62
f 42 62 63
f 42 63 64
f 43 65 66
f 43 66 44
f 44 66 67
f 44 67 68
f 44 68 49
f 44 49 48
f 44 48 47
f 44 47 46
f 44 46 45
f 49 68 69
f 49 69 70
f 50 70 71
f 50 71 51
f 51 71 72
f 51 72 73
f 51 73 53
f 53 73 74
f 53 74 54
f 54 74 75
f 54 75 55
f 55 75 76
f 55 76 77
f 55 77 59
f 55 59 56
f 56 58 57
f 59 77 76
f 59 76 78
f 60 79 61
f 61 76 80
f 61 80 81
f 61 81 62
f 61 79 82
f 61 82 76
f 62 81 83
f 62 83 84
f 62 84 63
f 63 84 64
f 64 84 85
f 65 86 66
f 66 86 87
f 66 87 88
f 66 88 67
f 67 89 90
f 67 90 68
f 67 88 89
f 68 90 72
f 68 72 69
f 69 72 71
f 69 71 70
f 72 90 73
f 73 90 74
f 74 90 91
f 74 91 75
f 75 91 92
f 75 92 76
f 76 92 80
f 76 82 93
f 76 93 78
f 80 83 81
f 80 92 91
f 80 91 94
f 80 94 83
f 83 90 84
f 83 94 90
f 84 88 85
f 84 90 88
f 88 90 89
f 90 94 91
