v -0.026495 -0.005674 0.012977
v -0.026495 -0.003513 0.013219
v -0.024394 -0.003557 0.013191
v -0.024342 -0.005674 0.013202
v 0.016063 -0.011754 0.017562
v 0.019456 -0.015272 0.018255
v -0.026495 -0.007437 0.013473
v -0.028159 -0.007370 0.013551
v -0.056395 -0.017922 0.018396
v -0.056395 -0.014631 0.018469
v -0.028121 -0.003897 0.013574
v -0.026495 -0.002488 0.015234
v -0.021009 0.002094 0.025453
v 0.016063 -0.009576 0.018757
v 0.019219 -0.011542 0.018340
v 0.019456 -0.011796 0.018292
v 0.019456 -0.014894 0.018218
v 0.019456 -0.015735 0.018658
v -0.056395 -0.019233 0.021316
v 0.019456 -0.016568 0.019808
v -0.056395 -0.014068 0.018951
v -0.055719 -0.013189 0.019622
v -0.022612 0.002094 0.025453
v -0.022687 0.002936 0.041767
v -0.020519 0.002176 0.027392
v -0.018996 0.001907 0.027392
v 0.016063 -0.008905 0.021316
v 0.018283 -0.009917 0.019233
v 0.019456 -0.011617 0.018385
v -0.056387 -0.019622 0.039544
v -0.056395 -0.019503 0.039544
v 0.019456 -0.016996 0.021316
v 0.019456 -0.017679 0.037233
v -0.056395 -0.013275 0.021316
v -0.024491 0.001792 0.027392
v -0.022969 0.002176 0.027392
v -0.023036 0.002918 0.041767
v -0.021157 0.002841 0.041767
v 0.016063 -0.008885 0.024359
v 0.018706 -0.009740 0.024359
v 0.018662 -0.009751 0.021316
v 0.019456 -0.010243 0.020510
v -0.036415 -0.018043 0.041767
v -0.039467 -0.018149 0.041767
v -0.056395 -0.013202 0.039544
v 0.019456 -0.010040 0.037233
v 0.002186 -0.015234 0.041767
v -0.027334 -0.017467 0.041767
v -0.033712 -0.017891 0.041767
v -0.056395 -0.013258 0.024356
v -0.023362 0.002812 0.041767
v 0.002186 -0.008823 0.041767
v 0.018914 -0.009808 0.037233
v 0.018751 -0.009740 0.037233
v 0.016063 -0.008848 0.037233
v 0.016063 -0.008848 0.036514
v 0.016063 -0.008852 0.033476
v 0.016063 -0.008859 0.030435
v 0.016063 -0.008872 0.027392
v 0.018729 -0.009735 0.027392
v 0.019456 -0.010062 0.025816
v 0.019456 -0.010071 0.024359
v 0.019456 -0.010087 0.022846
v 0.019456 -0.010113 0.021316
v -0.039467 -0.011665 0.041767
v -0.056395 -0.013205 0.038834
v 0.019456 -0.010056 0.027392
v -0.056395 -0.013244 0.027394
v -0.056395 -0.013236 0.029598
v -0.056395 -0.013225 0.032681
f 1 2 3
f 1 3 4
f 1 4 5
f 1 5 6
f 1 6 7
f 1 7 8
f 1 8 9
f 1 9 10
f 1 10 2
f 2 10 11
f 2 11 12
f 2 12 3
f 3 12 13
f 3 13 14
f 3 14 15
f 3 15 5
f 3 5 4
f 5 15 16
f 5 16 17
f 5 17 6
f 6 17 16
f 6 16 29
f 6 29 42
f 6 42 64
f 6 64 63
f 6 63 62
f 6 62 61
f 6 61 67
f 6 67 46
f 6 46 33
f 6 33 32
f 6 32 20
f 6 20 18
f 6 18 9
f 6 9 7
f 7 9 8
f 9 19 31
f 9 31 45
f 9 45 66
f 9 66 70
f 9 70 69
f 9 69 68
f 9 68 50
f 9 50 34
f 9 34 21
f 9 21 10
f 9 18 20
f 9 20 19
f 10 21 11
f 11 21 22
f 11 22 12
f 12 23 13
f 12 22 23
f 13 23 24
f 13 24 25
f 13 25 26
f 13 26 27
f 13 27 28
f 13 28 14
f 14 28 15
f 15 29 16
f 15 28 29
f 19 30 31
f 19 20 32
f 19 32 33
f 19 33 30
f 21 34 22
f 22 34 35
f 22 35 23
f 23 36 37
f 23 37 24
f 23 35 36
f 24 37 51
f 24 51 65
f 24 65 44
f 24 44 43
f 24 43 49
f 24 49 48
f 24 48 47
f 24 47 52
f 24 52 38
f 24 38 25
f 25 38 26
f 26 38 27
f 27 38 39
f 27 39 40
f 27 40 41
f 27 41 28
f 28 41 42
f 28 42 29
f 30 33 43
f 30 43 44
f 30 44 31
f 31 44 65
f 31 65 45
f 33 46 52
f 33 52 47
f 33 47 48
f 33 48 49
f 33 49 43
f 34 50 51
f 34 51 35
f 35 51 37
f 35 37 36
f 38 52 46
f 38 46 53
f 38 53 54
f 38 54 55
f 38 55 56
f 38 56 57
f 38 57 58
f 38 58 59
f 38 59 39
f 39 59 40
f 40 59 58
f 40 58 60
f 40 60 61
f 40 61 62
f 40 62 41
f 41 62 63
f 41 63 64
f 41 64 42
f 45 65 51
f 45 51 66
f 46 67 60
f 46 60 53
f 50 68 51
f 51 68 69
f 51 69 70
f 51 70 66
f 53 60 54
f 54 60 56
f 54 56 55
f 56 60 57
f 57 60 58
f 60 67 61
