v -0.029013 0.030822 0.054762
v -0.028487 0.027787 0.052600
v -0.028428 0.024742 0.052524
v -0.028829 0.027787 0.054762
v -0.028608 0.030822 0.057008
v -0.028705 0.033868 0.057259
v -0.028684 0.042984 0.057802
v -0.028968 0.033868 0.054762
v -0.028425 0.030822 0.052797
v -0.025439 0.004439 0.044243
v -0.028224 0.021696 0.052716
v -0.025841 0.004439 0.045586
v -0.028366 0.027787 0.056669
v -0.028068 0.019981 0.053005
v -0.028068 0.019981 0.053336
v -0.028224 0.021696 0.053825
v -0.028418 0.024751 0.054868
v -0.028027 0.041407 0.059326
v -0.028058 0.042984 0.059357
v -0.028065 0.045290 0.059365
v -0.028449 0.046197 0.058082
v -0.028290 0.049065 0.057407
v -0.028522 0.046029 0.055577
v -0.028650 0.042984 0.055354
v -0.025215 0.004439 0.043810
v -0.028286 0.033868 0.052998
v -0.025865 0.004439 0.046711
v -0.028141 0.025776 0.056408
v -0.025650 0.004439 0.048277
v -0.026501 0.040727 0.059425
v -0.026501 0.042984 0.059635
v -0.026335 0.049065 0.059853
v -0.026501 0.030822 0.057883
v -0.026501 0.039209 0.059210
v -0.026052 0.052110 0.059913
v -0.027989 0.047320 0.059279
v -0.027857 0.049065 0.058929
v -0.028120 0.051371 0.056811
v -0.028120 0.051371 0.056102
v -0.028290 0.049065 0.055850
v -0.028131 0.036075 0.053149
v -0.024260 0.004439 0.043259
v -0.025951 0.058181 0.055106
v -0.022001 0.069130 0.053204
v -0.003307 0.100746 0.043016
v -0.026515 0.024751 0.056616
v -0.026501 0.027787 0.057276
v -0.025253 0.007376 0.050449
v -0.027536 0.023746 0.055954
v -0.025509 0.022780 0.056398
v -0.024668 0.004439 0.048807
v -0.024775 0.040540 0.059456
v -0.024533 0.042984 0.059600
v -0.024267 0.046029 0.059741
v -0.024000 0.049065 0.059853
v -0.024775 0.022780 0.056398
v -0.023734 0.052110 0.059913
v -0.023464 0.058181 0.059832
v -0.025706 0.055136 0.059830
v -0.025349 0.058181 0.059605
v -0.025107 0.060280 0.059423
v -0.027027 0.055136 0.057802
v -0.027646 0.052278 0.057817
v -0.025239 0.063651 0.057091
v -0.025239 0.063651 0.055825
v -0.025529 0.061473 0.055461
v -0.025564 0.061216 0.055420
v -0.023305 0.004439 0.043050
v -0.021724 0.071160 0.053539
v -0.002757 0.101771 0.043016
v -0.003799 0.097967 0.043016
v -0.019113 0.078384 0.053035
v -0.025104 0.013970 0.053303
v -0.023464 0.004439 0.049346
v -0.024471 0.024742 0.056606
v -0.009247 0.085549 0.056599
v -0.021399 0.061216 0.059691
v -0.024713 0.013970 0.053303
v -0.021845 0.007652 0.050291
v -0.021984 0.017291 0.053162
v -0.021129 0.064262 0.059653
v -0.022814 0.064262 0.059653
v -0.022292 0.066696 0.059493
v -0.024917 0.061473 0.059246
v -0.026318 0.058181 0.057802
v -0.024782 0.062310 0.059119
v -0.025522 0.061266 0.057984
v -0.025498 0.061473 0.057908
v -0.022157 0.072383 0.056695
v -0.022157 0.072383 0.055567
v -0.021479 0.004439 0.043303
v -0.003788 0.097908 0.043016
v -0.002294 0.095769 0.043016
v -0.002076 0.095622 0.043016
v 0.000854 0.095109 0.043016
v 0.003497 0.095740 0.043016
v 0.005372 0.097780 0.043016
v 0.006022 0.099465 0.043016
v -0.001737 0.103289 0.043016
v -0.015992 0.084229 0.053094
v -0.019227 0.078552 0.054762
v -0.023464 0.005740 0.049900
v -0.021185 0.004439 0.048345
v -0.003615 0.092872 0.053306
v -0.003615 0.093306 0.053306
v -0.009285 0.087816 0.056522
v -0.021375 0.061473 0.059688
v -0.000478 0.095484 0.050370
v -0.021607 0.009535 0.050567
v -0.021344 0.066696 0.059493
v -0.011302 0.085549 0.056988
v -0.014588 0.082760 0.057200
v -0.016466 0.081923 0.056808
v -0.019656 0.076423 0.057078
v -0.022561 0.070342 0.057324
v -0.025377 0.061473 0.058206
v -0.019126 0.078315 0.056561
v -0.020621 0.004439 0.045588
v 0.006326 0.100746 0.043016
v 0.000857 0.105043 0.043016
v -0.015992 0.084229 0.053974
v -0.013225 0.087639 0.054762
v -0.010530 0.090881 0.054118
v -0.003889 0.099396 0.047515
v -0.005224 0.093562 0.053576
v -0.000478 0.096518 0.050370
v -0.002183 0.096932 0.050802
v -0.007396 0.093552 0.053622
v -0.011302 0.087688 0.056502
v -0.013561 0.085549 0.056671
v -0.012889 0.087146 0.056335
v -0.015771 0.083943 0.056001
v 0.005887 0.102156 0.043016
v 0.002037 0.105102 0.043016
v -0.004681 0.096844 0.050836
v 0.005095 0.103742 0.043016
v 0.004524 0.104413 0.043016
v -0.002183 0.098440 0.049376
v 0.003881 0.104718 0.043016
f 1 2 3
f 1 3 4
f 1 4 5
f 1 5 6
f 1 6 7
f 1 7 8
f 1 8 2
f 2 8 9
f 2 9 10
f 2 10 3
f 3 11 4
f 3 10 12
f 3 12 11
f 4 13 5
f 4 11 14
f 4 14 15
f 4 15 16
f 4 16 17
f 4 17 13
f 5 13 18
f 5 18 6
f 6 18 19
f 6 19 7
f 7 19 20
f 7 20 21
f 7 21 22
f 7 22 23
f 7 23 24
f 7 24 8
f 8 24 9
f 9 25 10
f 9 24 23
f 9 23 26
f 9 26 25
f 10 25 42
f 10 42 68
f 10 68 91
f 10 91 118
f 10 118 103
f 10 103 74
f 10 74 51
f 10 51 29
f 10 29 27
f 10 27 12
f 11 12 14
f 12 27 14
f 13 17 28
f 13 28 18
f 14 27 15
f 15 28 16
f 15 27 29
f 15 29 28
f 16 28 17
f 18 30 31
f 18 31 32
f 18 32 19
f 18 28 33
f 18 33 34
f 18 34 30
f 19 32 20
f 20 32 35
f 20 35 36
f 20 36 21
f 21 36 22
f 22 36 37
f 22 37 38
f 22 38 23
f 23 38 39
f 23 39 40
f 23 40 41
f 23 41 26
f 25 26 41
f 25 41 39
f 25 39 43
f 25 43 44
f 25 44 45
f 25 45 42
f 28 46 47
f 28 47 33
f 28 29 48
f 28 48 49
f 28 49 50
f 28 50 46
f 29 51 48
f 30 34 52
f 30 52 31
f 31 53 54
f 31 54 55
f 31 55 32
f 31 52 53
f 32 55 57
f 32 57 35
f 33 47 50
f 33 50 56
f 33 56 52
f 33 52 34
f 35 57 58
f 35 58 59
f 35 59 36
f 36 59 60
f 36 60 61
f 36 61 37
f 37 61 62
f 37 62 63
f 37 63 38
f 38 63 62
f 38 62 64
f 38 64 65
f 38 65 39
f 39 65 66
f 39 66 67
f 39 67 43
f 39 41 40
f 42 45 68
f 43 67 44
f 44 65 69
f 44 69 45
f 44 67 66
f 44 66 65
f 45 70 99
f 45 99 120
f 45 120 134
f 45 134 139
f 45 139 137
f 45 137 136
f 45 136 133
f 45 133 119
f 45 119 98
f 45 98 97
f 45 97 96
f 45 96 95
f 45 95 94
f 45 94 93
f 45 93 92
f 45 92 71
f 45 71 68
f 45 69 72
f 45 72 70
f 46 50 47
f 48 73 49
f 48 51 74
f 48 74 73
f 49 73 50
f 50 73 78
f 50 78 56
f 52 56 75
f 52 75 76
f 52 76 53
f 53 76 54
f 54 76 55
f 55 77 57
f 55 76 77
f 56 78 79
f 56 79 80
f 56 80 75
f 57 77 81
f 57 81 58
f 58 81 82
f 58 82 59
f 59 82 60
f 60 82 61
f 61 82 83
f 61 83 84
f 61 84 62
f 62 85 64
f 62 84 86
f 62 86 87
f 62 87 85
f 64 85 88
f 64 88 86
f 64 86 89
f 64 89 90
f 64 90 65
f 65 90 72
f 65 72 69
f 68 71 92
f 68 92 93
f 68 93 94
f 68 94 95
f 68 95 96
f 68 96 97
f 68 97 98
f 68 98 91
f 70 72 100
f 70 100 99
f 72 90 101
f 72 101 100
f 73 74 102
f 73 102 78
f 74 103 79
f 74 79 102
f 75 80 76
f 76 104 105
f 76 105 106
f 76 106 81
f 76 81 107
f 76 107 77
f 76 80 104
f 77 107 81
f 78 102 79
f 79 103 98
f 79 98 108
f 79 108 109
f 79 109 80
f 80 109 104
f 81 110 83
f 81 83 82
f 81 106 111
f 81 111 110
f 83 86 84
f 83 110 111
f 83 111 112
f 83 112 113
f 83 113 114
f 83 114 89
f 83 89 115
f 83 115 86
f 85 87 88
f 86 115 89
f 86 88 116
f 86 116 87
f 87 116 88
f 89 114 117
f 89 117 101
f 89 101 90
f 91 98 118
f 98 119 108
f 98 103 118
f 99 100 121
f 99 121 122
f 99 122 123
f 99 123 124
f 99 124 120
f 100 101 121
f 101 117 121
f 104 108 126
f 104 126 105
f 104 109 108
f 105 125 106
f 105 126 127
f 105 127 125
f 106 125 128
f 106 128 129
f 106 129 111
f 108 119 126
f 111 129 112
f 112 129 130
f 112 130 113
f 113 117 114
f 113 130 131
f 113 131 132
f 113 132 117
f 117 132 121
f 119 133 126
f 120 124 128
f 120 128 135
f 120 135 134
f 121 132 122
f 122 132 131
f 122 131 123
f 123 131 128
f 123 128 124
f 125 127 128
f 126 133 136
f 126 136 137
f 126 137 127
f 127 138 135
f 127 135 128
f 127 137 139
f 127 139 134
f 127 134 138
f 128 131 129
f 129 131 130
f 134 135 138
