v 0.014482 0.221372 0.004958
v 0.014482 0.221372 -0.004924
v 0.011189 0.221372 0.008252
v 0.014482 0.221368 0.008252
v 0.017780 0.221328 0.001664
v 0.014482 0.221368 -0.008218
v 0.011189 0.221372 -0.008218
v 0.017780 0.221328 -0.001630
v 0.004597 0.221372 0.008252
v 0.001310 0.220792 0.011546
v 0.014482 0.220758 0.011546
v 0.017780 0.220920 0.008252
v 0.017780 0.221217 0.004958
v 0.020603 0.220657 0.001664
v 0.017780 0.221217 -0.004924
v 0.017780 0.220920 -0.008218
v 0.014482 0.220758 -0.011512
v 0.001310 0.220792 -0.011512
v 0.004597 0.221372 -0.008218
v 0.020603 0.220657 -0.001630
v 0.001310 0.221368 0.008252
v -0.001983 0.220755 0.011546
v -0.001983 0.220111 0.013284
v 0.001310 0.220121 0.013293
v 0.014482 0.220088 0.013256
v 0.016217 0.220067 0.013235
v 0.017499 0.220327 0.011236
v 0.019441 0.220044 0.009932
v 0.019739 0.220253 0.008252
v 0.020266 0.220546 0.004958
v 0.031690 0.216222 0.001664
v 0.020266 0.220546 -0.004924
v 0.017499 0.220327 -0.011202
v 0.019739 0.220253 -0.008218
v 0.019441 0.220044 -0.009898
v 0.016217 0.220067 -0.013201
v 0.014482 0.220088 -0.013222
v 0.001310 0.220121 -0.013259
v -0.001983 0.220111 -0.013250
v -0.001983 0.220755 -0.011512
v 0.001310 0.221368 -0.008218
v 0.031690 0.216222 -0.001630
v -0.001983 0.221314 0.008252
v -0.005276 0.221112 0.008252
v -0.005327 0.220489 0.011819
v -0.004256 0.220074 0.013241
v -0.005327 0.218679 0.013933
v -0.001983 0.218382 0.014157
v 0.001310 0.218382 0.014151
v 0.014482 0.218382 0.014072
v 0.017499 0.218170 0.013602
v 0.019538 0.216930 0.013293
v 0.031690 0.210607 0.010202
v 0.031690 0.210975 0.009908
v 0.031690 0.212255 0.008874
v 0.031690 0.212629 0.008507
v 0.031690 0.213937 0.007224
v 0.031690 0.215208 0.004958
v 0.031690 0.215208 -0.004924
v 0.031690 0.213937 -0.007190
v 0.019538 0.216930 -0.013259
v 0.017499 0.218170 -0.013568
v 0.014482 0.218382 -0.014038
v 0.031690 0.212255 -0.008840
v 0.031690 0.210607 -0.010168
v 0.001310 0.218382 -0.014114
v -0.001983 0.218382 -0.014123
v -0.005327 0.218679 -0.013899
v -0.004256 0.220074 -0.013207
v -0.005327 0.220489 -0.011785
v -0.005276 0.221115 -0.008218
v -0.001983 0.221314 -0.008218
v -0.005276 0.221115 0.001664
v -0.008574 0.220728 0.008252
v -0.010980 0.220182 0.010454
v -0.008574 0.220377 0.011070
v -0.006455 0.219976 0.013102
v -0.011867 0.217873 0.014015
v -0.008574 0.218170 0.014072
v -0.011867 0.215086 0.014976
v -0.008574 0.215086 0.015003
v 0.014482 0.215086 0.014824
v 0.017780 0.215086 0.014406
v -0.005276 0.215086 0.014982
v 0.020036 0.215086 0.013593
v 0.031690 0.208498 0.011097
v 0.020036 0.215086 -0.013559
v 0.017780 0.215086 -0.014372
v 0.031690 0.210139 -0.010368
v 0.031690 0.208498 -0.011063
v 0.014482 0.215086 -0.014790
v -0.005276 0.215086 -0.014948
v -0.008574 0.215086 -0.014969
v -0.011867 0.215086 -0.014942
v -0.008574 0.218170 -0.014038
v -0.011867 0.217873 -0.013981
v -0.006455 0.219976 -0.013068
v -0.008574 0.220377 -0.011036
v -0.010980 0.220182 -0.010420
v -0.008574 0.220728 -0.008218
v -0.011363 0.220259 0.008252
v -0.008574 0.219818 0.012716
v -0.013007 0.219926 0.008252
v -0.015160 0.219387 0.008252
v -0.015160 0.218844 0.011546
v -0.011993 0.219582 0.011552
v -0.018459 0.217085 0.013532
v -0.015160 0.217516 0.013857
v -0.018459 0.215086 0.014555
v -0.015160 0.215086 0.014855
v -0.021751 0.211790 0.015219
v -0.018459 0.211790 0.015252
v 0.017780 0.208498 0.014831
v 0.017780 0.211790 0.014746
v -0.025044 0.208498 0.015443
v -0.026814 0.206732 0.015504
v 0.021073 0.208498 0.014491
v 0.031690 0.205202 0.011770
v 0.031690 0.205936 0.011622
v 0.017780 0.211790 -0.014712
v 0.031690 0.205202 -0.011736
v 0.021073 0.208498 -0.014457
v 0.017780 0.208498 -0.014797
v -0.026814 0.205202 -0.015473
v -0.025044 0.208498 -0.015409
v -0.018459 0.211790 -0.015218
v -0.015160 0.215086 -0.014821
v -0.021751 0.211790 -0.015185
v -0.018459 0.215086 -0.014521
v -0.015160 0.217516 -0.013823
v -0.018459 0.217085 -0.013498
v -0.008574 0.219818 -0.012682
v -0.011363 0.220259 -0.008218
v -0.011993 0.219582 -0.011518
v -0.015160 0.218844 -0.011512
v -0.015160 0.219387 -0.008218
v -0.013007 0.219926 -0.008218
v -0.020308 0.216808 0.013278
v -0.018459 0.218416 0.008252
v -0.018459 0.217924 0.011546
v -0.021545 0.215191 0.013999
v -0.025044 0.211790 0.014937
v -0.026814 0.210028 0.015182
v -0.026814 0.208498 0.015419
v 0.017780 0.201912 0.014831
v 0.021073 0.205202 0.014691
v -0.026814 0.205202 0.015507
v -0.026814 0.203439 0.015510
v 0.024057 0.205202 0.013872
v 0.021073 0.201912 0.014606
v 0.031690 0.202644 0.011543
v 0.021073 0.205202 -0.014657
v 0.031690 0.201912 -0.011442
v 0.021073 0.201912 -0.014572
v 0.024057 0.205202 -0.013838
v 0.017780 0.201912 -0.014797
v -0.026814 0.201912 -0.015476
v -0.026814 0.208498 -0.015385
v -0.025044 0.211790 -0.014903
v -0.021545 0.215191 -0.013965
v -0.020308 0.216808 -0.013244
v -0.018459 0.217924 -0.011512
v -0.018459 0.218416 -0.008218
v -0.020990 0.217075 0.011546
v -0.022639 0.216417 0.011546
v -0.025044 0.215359 0.011546
v -0.026814 0.213977 0.013117
v -0.026814 0.213772 0.013514
v -0.025044 0.214170 0.013817
v -0.021568 0.217307 0.008252
v -0.026814 0.211858 0.014518
v 0.011189 0.186942 0.014837
v 0.017780 0.198616 0.014800
v -0.026814 0.200146 0.015507
v -0.026814 0.198616 0.015501
v 0.031690 0.201912 0.011476
v 0.012695 0.186942 0.014743
v 0.014482 0.188735 0.014630
v 0.014482 0.186942 0.014506
v 0.017780 0.198616 -0.014766
v 0.031690 0.199169 -0.010465
v 0.016807 0.186942 -0.013653
v 0.014482 0.186942 -0.014472
v 0.014482 0.188735 -0.014596
v 0.011189 0.186942 -0.014803
v -0.026814 0.198616 -0.015467
v -0.026814 0.211858 -0.014484
v -0.025044 0.214166 -0.013784
v -0.026814 0.213772 -0.013480
v -0.025044 0.215359 -0.011512
v -0.022639 0.216417 -0.011512
v -0.020990 0.217075 -0.011512
v -0.021568 0.217307 -0.008218
v -0.023218 0.216660 0.008252
v -0.025044 0.215821 0.008252
v -0.026814 0.214678 0.010354
v -0.026814 0.214510 0.011546
v -0.026814 0.212946 0.014006
v -0.011867 0.186942 0.015116
v -0.026814 0.196850 0.015295
v 0.031690 0.199169 0.010499
v 0.015667 0.186942 0.014133
v 0.016807 0.186942 0.013687
v 0.014482 0.192028 -0.014754
v 0.031690 0.197521 -0.009464
v 0.018227 0.186942 -0.011566
v 0.031690 0.197150 -0.009100
v 0.031690 0.195849 -0.007817
v 0.031690 0.195482 -0.007317
v 0.031690 0.194201 -0.005564
v -0.011867 0.186942 -0.015082
v -0.026814 0.195324 -0.014888
v -0.026814 0.214510 -0.011512
v -0.025044 0.215821 -0.008218
v -0.023218 0.216660 -0.008218
v -0.026814 0.214941 0.008252
v -0.026814 0.195324 0.014922
v -0.015160 0.186942 0.014476
v 0.031690 0.197888 0.009723
v 0.017614 0.186942 0.012677
v 0.031690 0.194201 0.005598
v 0.031690 0.195849 0.007851
v 0.031690 0.196220 0.008218
v 0.031690 0.197521 0.009498
v 0.019126 0.186942 -0.008827
v 0.031690 0.194023 -0.005197
v 0.031690 0.193403 -0.003914
v 0.031690 0.193288 -0.003407
v 0.031690 0.192891 -0.001630
v -0.013373 0.186942 -0.014824
v -0.026814 0.193042 -0.013738
v -0.015160 0.186942 -0.014442
v -0.026814 0.214941 -0.008218
v -0.026814 0.193952 0.014291
v -0.026814 0.193042 0.013772
v -0.017101 0.186942 0.013499
v 0.018227 0.186942 0.011600
v 0.031690 0.193403 0.003951
v 0.019996 0.186942 -0.004918
v 0.031690 0.192891 0.001664
v 0.020477 0.186942 -0.001630
v -0.026814 0.192024 -0.011512
v -0.016082 0.186942 -0.013996
v -0.017101 0.186942 -0.013465
v -0.026814 0.192351 0.012462
v -0.017897 0.186942 0.011546
v -0.026814 0.192024 0.011546
v 0.018874 0.186942 0.009759
v 0.019429 0.186942 0.008133
v 0.019996 0.186942 0.004952
v 0.020111 0.186942 0.004257
v 0.020477 0.186942 0.001664
v -0.026814 0.191839 -0.009983
v -0.017502 0.186942 -0.012540
v -0.017897 0.186942 -0.011512
v -0.018396 0.186942 0.008252
v -0.026814 0.191630 0.008252
v -0.026814 0.191630 -0.008218
v -0.018132 0.186942 -0.010007
v -0.018396 0.186942 -0.008218
v -0.026814 0.191620 0.004958
v -0.026814 0.191620 -0.004924
f 1 2 7
f 1 7 19
f 1 19 9
f 1 9 3
f 1 3 4
f 1 4 5
f 1 5 8
f 1 8 2
f 2 6 7
f 2 8 6
f 3 9 10
f 3 10 4
f 4 11 12
f 4 12 13
f 4 13 5
f 4 10 11
f 5 13 14
f 5 14 20
f 5 20 8
f 6 8 15
f 6 15 16
f 6 16 17
f 6 17 18
f 6 18 7
f 7 18 19
f 8 20 15
f 9 19 41
f 9 41 21
f 9 21 10
f 10 21 22
f 10 22 23
f 10 23 24
f 10 24 11
f 11 25 26
f 11 26 27
f 11 27 12
f 11 24 25
f 12 28 29
f 12 29 30
f 12 30 13
f 12 27 28
f 13 30 14
f 14 31 42
f 14 42 20
f 14 30 31
f 15 20 32
f 15 32 16
f 16 33 17
f 16 32 34
f 16 34 35
f 16 35 33
f 17 33 36
f 17 36 37
f 17 37 38
f 17 38 18
f 18 38 39
f 18 39 40
f 18 40 41
f 18 41 19
f 20 42 32
f 21 41 72
f 21 72 43
f 21 43 22
f 22 43 44
f 22 44 45
f 22 45 46
f 22 46 23
f 23 46 47
f 23 47 48
f 23 48 24
f 24 48 49
f 24 49 25
f 25 50 26
f 25 49 50
f 26 28 27
f 26 50 51
f 26 51 52
f 26 52 53
f 26 53 54
f 26 54 55
f 26 55 56
f 26 56 57
f 26 57 28
f 28 57 58
f 28 58 31
f 28 31 29
f 29 31 30
f 31 58 57
f 31 57 56
f 31 56 55
f 31 55 54
f 31 54 53
f 31 53 86
f 31 86 119
f 31 119 118
f 31 118 151
f 31 151 176
f 31 176 201
f 31 201 219
f 31 219 224
f 31 224 223
f 31 223 222
f 31 222 221
f 31 221 238
f 31 238 240
f 31 240 229
f 31 229 228
f 31 228 227
f 31 227 226
f 31 226 210
f 31 210 209
f 31 209 208
f 31 208 207
f 31 207 205
f 31 205 181
f 31 181 153
f 31 153 121
f 31 121 90
f 31 90 89
f 31 89 65
f 31 65 64
f 31 64 60
f 31 60 59
f 31 59 42
f 32 42 34
f 33 35 36
f 34 42 35
f 35 42 59
f 35 59 60
f 35 60 36
f 36 61 62
f 36 62 63
f 36 63 37
f 36 60 64
f 36 64 65
f 36 65 61
f 37 63 66
f 37 66 38
f 38 66 67
f 38 67 39
f 39 67 68
f 39 68 69
f 39 69 40
f 40 69 70
f 40 70 71
f 40 71 72
f 40 72 41
f 43 72 71
f 43 71 73
f 43 73 44
f 44 73 74
f 44 74 75
f 44 75 76
f 44 76 45
f 45 76 77
f 45 77 46
f 46 77 78
f 46 78 79
f 46 79 47
f 47 79 48
f 48 79 80
f 48 80 81
f 48 81 49
f 49 81 50
f 50 82 83
f 50 83 51
f 50 81 84
f 50 84 82
f 51 83 52
f 52 83 85
f 52 85 86
f 52 86 53
f 61 87 88
f 61 88 62
f 61 65 89
f 61 89 90
f 61 90 87
f 62 88 63
f 63 88 91
f 63 91 92
f 63 92 93
f 63 93 66
f 66 93 67
f 67 93 94
f 67 94 95
f 67 95 68
f 68 95 69
f 69 95 96
f 69 96 97
f 69 97 70
f 70 97 98
f 70 98 71
f 71 98 99
f 71 99 100
f 71 100 74
f 71 74 73
f 74 100 133
f 74 133 101
f 74 101 75
f 75 102 76
f 75 101 103
f 75 103 104
f 75 104 105
f 75 105 106
f 75 106 102
f 76 102 77
f 77 102 107
f 77 107 108
f 77 108 78
f 78 108 109
f 78 109 110
f 78 110 79
f 79 110 80
f 80 110 111
f 80 111 112
f 80 112 81
f 81 112 84
f 82 113 114
f 82 114 83
f 82 84 112
f 82 112 115
f 82 115 116
f 82 116 113
f 83 114 117
f 83 117 118
f 83 118 119
f 83 119 86
f 83 86 85
f 87 90 88
f 88 120 91
f 88 90 121
f 88 121 122
f 88 122 120
f 91 120 123
f 91 123 124
f 91 124 125
f 91 125 126
f 91 126 92
f 92 126 93
f 93 126 94
f 94 127 95
f 94 126 128
f 94 128 127
f 95 127 96
f 96 127 129
f 96 129 130
f 96 130 97
f 97 130 131
f 97 131 132
f 97 132 98
f 98 132 99
f 99 133 100
f 99 132 134
f 99 134 135
f 99 135 136
f 99 136 137
f 99 137 133
f 101 133 137
f 101 137 103
f 102 106 138
f 102 138 107
f 103 137 136
f 103 136 104
f 104 136 163
f 104 163 139
f 104 139 140
f 104 140 105
f 105 140 138
f 105 138 106
f 107 138 141
f 107 141 108
f 108 141 109
f 109 141 142
f 109 142 110
f 110 142 111
f 111 142 143
f 111 143 144
f 111 144 115
f 111 115 112
f 113 145 146
f 113 146 114
f 113 116 147
f 113 147 148
f 113 148 145
f 114 146 117
f 115 144 116
f 116 144 143
f 116 143 171
f 116 171 198
f 116 198 168
f 116 168 167
f 116 167 197
f 116 197 196
f 116 196 216
f 116 216 233
f 116 233 213
f 116 213 189
f 116 189 187
f 116 187 158
f 116 158 124
f 116 124 157
f 116 157 186
f 116 186 212
f 116 212 231
f 116 231 242
f 116 242 253
f 116 253 258
f 116 258 262
f 116 262 261
f 116 261 257
f 116 257 247
f 116 247 245
f 116 245 235
f 116 235 234
f 116 234 217
f 116 217 200
f 116 200 175
f 116 175 174
f 116 174 148
f 116 148 147
f 117 146 149
f 117 149 118
f 118 149 150
f 118 150 151
f 120 122 152
f 120 152 123
f 121 153 154
f 121 154 155
f 121 155 122
f 122 155 152
f 123 152 156
f 123 156 157
f 123 157 124
f 124 158 125
f 125 158 128
f 125 128 126
f 127 128 159
f 127 159 129
f 128 158 159
f 129 159 160
f 129 160 130
f 130 160 131
f 131 160 161
f 131 161 132
f 132 161 134
f 134 161 135
f 135 161 162
f 135 162 136
f 136 162 163
f 138 164 165
f 138 165 166
f 138 166 167
f 138 167 168
f 138 168 169
f 138 169 141
f 138 140 164
f 139 163 193
f 139 193 170
f 139 170 164
f 139 164 140
f 141 169 142
f 142 169 171
f 142 171 143
f 145 172 173
f 145 173 146
f 145 148 174
f 145 174 175
f 145 175 172
f 146 150 149
f 146 173 150
f 150 176 151
f 150 173 177
f 150 177 178
f 150 178 179
f 150 179 176
f 152 155 154
f 152 154 180
f 152 180 156
f 153 181 182
f 153 182 183
f 153 183 154
f 154 183 184
f 154 184 180
f 156 180 185
f 156 185 186
f 156 186 157
f 158 187 159
f 159 187 188
f 159 188 160
f 160 188 161
f 161 188 189
f 161 189 190
f 161 190 191
f 161 191 192
f 161 192 162
f 162 192 163
f 163 192 193
f 164 170 194
f 164 194 165
f 165 194 166
f 166 194 195
f 166 195 196
f 166 196 197
f 166 197 167
f 168 198 169
f 169 198 171
f 170 193 215
f 170 215 194
f 172 177 173
f 172 175 199
f 172 199 218
f 172 218 236
f 172 236 246
f 172 246 256
f 172 256 260
f 172 260 259
f 172 259 255
f 172 255 254
f 172 254 244
f 172 244 243
f 172 243 232
f 172 232 230
f 172 230 211
f 172 211 185
f 172 185 183
f 172 183 182
f 172 182 206
f 172 206 225
f 172 225 239
f 172 239 241
f 172 241 252
f 172 252 251
f 172 251 250
f 172 250 249
f 172 249 248
f 172 248 237
f 172 237 220
f 172 220 203
f 172 203 202
f 172 202 179
f 172 179 177
f 175 200 199
f 176 179 202
f 176 202 203
f 176 203 201
f 177 179 178
f 180 184 204
f 180 204 185
f 181 205 182
f 182 205 207
f 182 207 208
f 182 208 209
f 182 209 210
f 182 210 206
f 183 185 184
f 184 185 204
f 185 211 186
f 186 211 212
f 187 189 188
f 189 213 190
f 190 214 215
f 190 215 191
f 190 213 214
f 191 215 192
f 192 215 193
f 194 215 214
f 194 214 195
f 195 214 233
f 195 233 216
f 195 216 196
f 199 200 217
f 199 217 218
f 201 203 219
f 203 220 221
f 203 221 222
f 203 222 223
f 203 223 224
f 203 224 219
f 206 210 226
f 206 226 227
f 206 227 228
f 206 228 229
f 206 229 225
f 211 230 212
f 212 230 232
f 212 232 231
f 213 233 214
f 217 234 218
f 218 234 235
f 218 235 236
f 220 237 238
f 220 238 221
f 225 229 239
f 229 240 252
f 229 252 241
f 229 241 239
f 231 232 243
f 231 243 244
f 231 244 242
f 235 245 236
f 236 245 247
f 236 247 246
f 237 248 240
f 237 240 238
f 240 248 249
f 240 249 250
f 240 250 251
f 240 251 252
f 242 244 254
f 242 254 255
f 242 255 253
f 246 247 257
f 246 257 256
f 253 255 258
f 255 259 258
f 256 257 261
f 256 261 262
f 256 262 260
f 258 259 260
f 258 260 262
