v 0.047433 0.187437 -0.001629
v 0.044137 0.188315 -0.001629
v 0.047433 0.188098 -0.004923
v 0.057313 0.187437 -0.001629
v 0.047433 0.187437 0.001663
v 0.031693 0.192891 -0.001629
v 0.031693 0.193404 -0.003914
v 0.043867 0.189271 -0.005129
v 0.044137 0.188315 0.001663
v 0.057313 0.188098 -0.004923
v 0.044784 0.189787 -0.007666
v 0.047433 0.189489 -0.008215
v 0.060608 0.188352 -0.004923
v 0.060608 0.187722 -0.001629
v 0.057313 0.187437 0.001663
v 0.047433 0.188098 0.004957
v 0.031693 0.192891 0.001663
v 0.031693 0.194024 -0.005196
v 0.043867 0.189271 0.005163
v 0.031693 0.193404 0.003948
v 0.031693 0.193005 0.002171
v 0.057313 0.189489 -0.008215
v 0.060608 0.189603 -0.008046
v 0.047433 0.190384 -0.009860
v 0.031693 0.194202 -0.005563
v 0.031693 0.195482 -0.007316
v 0.031693 0.195851 -0.007818
v 0.044373 0.192760 -0.011398
v 0.045629 0.193585 -0.013236
v 0.062650 0.189938 -0.007441
v 0.062933 0.189492 -0.004923
v 0.063018 0.189194 -0.001629
v 0.060608 0.187722 0.001663
v 0.060608 0.188352 0.004957
v 0.057313 0.188098 0.004957
v 0.047433 0.189489 0.008249
v 0.044784 0.189787 0.007700
v 0.031693 0.194202 0.005597
v 0.057313 0.190384 -0.009860
v 0.060608 0.190511 -0.009692
v 0.047433 0.191892 -0.011513
v 0.031693 0.197520 -0.009467
v 0.031693 0.199169 -0.010463
v 0.045576 0.200011 -0.016541
v 0.047433 0.198237 -0.015972
v 0.047433 0.195321 -0.014444
v 0.047433 0.193538 -0.013276
v 0.061852 0.193759 -0.013084
v 0.062760 0.192750 -0.010890
v 0.063099 0.191802 -0.008410
v 0.063696 0.192029 -0.004923
v 0.063781 0.192029 -0.001629
v 0.063018 0.189194 0.001663
v 0.062933 0.189492 0.004957
v 0.062650 0.189938 0.007475
v 0.060608 0.189603 0.008080
v 0.057313 0.189489 0.008249
v 0.047433 0.190384 0.009894
v 0.031693 0.195851 0.007852
v 0.031693 0.194567 0.006098
v 0.045629 0.193585 0.013270
v 0.044373 0.192760 0.011432
v 0.057313 0.191892 -0.011513
v 0.059656 0.193585 -0.013236
v 0.060696 0.192408 -0.011799
v 0.031693 0.201911 -0.011442
v 0.045215 0.201911 -0.016716
v 0.047433 0.201911 -0.016975
v 0.047433 0.199883 -0.016588
v 0.057313 0.198237 -0.015972
v 0.057313 0.195321 -0.014444
v 0.057313 0.193538 -0.013276
v 0.060696 0.195043 -0.014037
v 0.060834 0.198794 -0.015948
v 0.062088 0.200376 -0.016423
v 0.062716 0.195955 -0.013768
v 0.063140 0.195043 -0.011799
v 0.063778 0.195321 -0.008218
v 0.063784 0.195321 -0.004923
v 0.063781 0.192029 0.001663
v 0.063696 0.192029 0.004957
v 0.063099 0.191802 0.008444
v 0.062760 0.192750 0.010924
v 0.061852 0.193759 0.013118
v 0.060608 0.190511 0.009726
v 0.057313 0.190384 0.009894
v 0.047433 0.191892 0.011547
v 0.031693 0.196220 0.008218
v 0.031693 0.199169 0.010497
v 0.031693 0.197520 0.009501
v 0.047433 0.193538 0.013310
v 0.047433 0.195321 0.014478
v 0.047433 0.198237 0.016006
v 0.045576 0.200011 0.016575
v 0.031693 0.204472 -0.011671
v 0.045014 0.205203 -0.016813
v 0.047433 0.205203 -0.017173
v 0.031693 0.205203 -0.011735
v 0.057313 0.201911 -0.016975
v 0.057313 0.199883 -0.016588
v 0.059889 0.200011 -0.016541
v 0.060834 0.201650 -0.016749
v 0.062427 0.202572 -0.016598
v 0.062983 0.198616 -0.014414
v 0.063747 0.198616 -0.011513
v 0.063784 0.201911 -0.011513
v 0.063784 0.195321 0.004957
v 0.063778 0.195321 0.008252
v 0.063140 0.195043 0.011833
v 0.062716 0.195955 0.013802
v 0.059656 0.193585 0.013270
v 0.060696 0.192408 0.011833
v 0.062088 0.200376 0.016457
v 0.060834 0.198794 0.015982
v 0.060696 0.195043 0.014071
v 0.057313 0.191892 0.011547
v 0.031693 0.199779 0.010715
v 0.057313 0.193538 0.013310
v 0.057313 0.195321 0.014478
v 0.057313 0.198237 0.016006
v 0.047433 0.199883 0.016622
v 0.047433 0.201911 0.017009
v 0.045215 0.201911 0.016750
v 0.031693 0.201911 0.011476
v 0.045309 0.207787 -0.016672
v 0.057313 0.205203 -0.017173
v 0.047433 0.208253 -0.016783
v 0.031693 0.207764 -0.011213
v 0.060608 0.205203 -0.017002
v 0.062481 0.205203 -0.016642
v 0.063244 0.205203 -0.014807
v 0.062967 0.201650 -0.015117
v 0.063784 0.208498 -0.011513
v 0.063784 0.201911 0.011547
v 0.063747 0.198616 0.011547
v 0.062983 0.198616 0.014448
v 0.062427 0.202572 0.016632
v 0.060834 0.201650 0.016783
v 0.059889 0.200011 0.016575
v 0.057313 0.199883 0.016622
v 0.057313 0.201911 0.017009
v 0.047433 0.205203 0.017207
v 0.045014 0.205203 0.016847
v 0.031693 0.205203 0.011769
v 0.043939 0.211934 -0.014377
v 0.044907 0.214183 -0.013700
v 0.047433 0.211793 -0.015558
v 0.047433 0.209903 -0.016393
v 0.031693 0.208498 -0.011062
v 0.031693 0.210141 -0.010369
v 0.057313 0.208253 -0.016783
v 0.060608 0.207915 -0.016699
v 0.062383 0.207332 -0.016561
v 0.062942 0.208458 -0.015003
v 0.063659 0.211793 -0.011513
v 0.063690 0.215085 -0.008218
v 0.063784 0.211793 -0.008218
v 0.063784 0.208498 0.011547
v 0.063244 0.205203 0.014841
v 0.062967 0.201650 0.015151
v 0.062481 0.205203 0.016676
v 0.060608 0.205203 0.017036
v 0.057313 0.205203 0.017207
v 0.047433 0.208253 0.016817
v 0.045309 0.207787 0.016706
v 0.031693 0.205934 0.011621
v 0.031693 0.210610 -0.010167
v 0.031693 0.211890 -0.009133
v 0.031693 0.212256 -0.008837
v 0.044806 0.217391 -0.010641
v 0.047433 0.216204 -0.012677
v 0.047433 0.214555 -0.013969
v 0.057313 0.211793 -0.015558
v 0.057313 0.209903 -0.016393
v 0.060608 0.209561 -0.016258
v 0.060608 0.211793 -0.015312
v 0.062597 0.213989 -0.013549
v 0.062892 0.211793 -0.014111
v 0.062999 0.215088 -0.011540
v 0.062829 0.218346 -0.007952
v 0.063335 0.218380 -0.004923
v 0.063605 0.218380 -0.001629
v 0.063784 0.215085 -0.004923
v 0.062641 0.217227 -0.010459
v 0.063659 0.211793 0.011547
v 0.063784 0.211793 0.008252
v 0.063690 0.215085 0.008252
v 0.062942 0.208458 0.015037
v 0.062383 0.207332 0.016595
v 0.060608 0.207915 0.016733
v 0.057313 0.208253 0.016817
v 0.047433 0.209903 0.016427
v 0.047433 0.211793 0.015592
v 0.044907 0.214183 0.013734
v 0.043939 0.211934 0.014411
v 0.031693 0.210610 0.010201
v 0.031693 0.208967 0.010897
v 0.031693 0.208498 0.011096
v 0.031693 0.213563 -0.007558
v 0.047433 0.217720 -0.011031
v 0.031693 0.213935 -0.007192
v 0.045428 0.220193 -0.006902
v 0.057313 0.216204 -0.012677
v 0.057313 0.214555 -0.013969
v 0.060608 0.214411 -0.013858
v 0.060608 0.216057 -0.012539
v 0.062317 0.220079 -0.006677
v 0.062568 0.220338 -0.004923
v 0.062842 0.220639 -0.001629
v 0.063605 0.218380 0.001663
v 0.063784 0.215085 0.004957
v 0.060608 0.217596 -0.010894
v 0.062999 0.215088 0.011574
v 0.062892 0.211793 0.014145
v 0.063335 0.218380 0.004957
v 0.062829 0.218346 0.007986
v 0.062641 0.217227 0.010493
v 0.060608 0.209561 0.016292
v 0.062597 0.213989 0.013583
v 0.060608 0.211793 0.015346
v 0.057313 0.209903 0.016427
v 0.057313 0.211793 0.015592
v 0.047433 0.214555 0.014003
v 0.047433 0.216204 0.012711
v 0.044806 0.217391 0.010675
v 0.031693 0.212256 0.008871
v 0.031693 0.210975 0.009908
v 0.047433 0.219365 -0.008716
v 0.057313 0.217720 -0.011031
v 0.031693 0.215209 -0.004923
v 0.031693 0.215997 -0.002362
v 0.031693 0.216221 -0.001629
v 0.044831 0.220525 -0.004923
v 0.047433 0.221025 -0.004923
v 0.047433 0.220277 -0.007070
v 0.060608 0.219245 -0.008548
v 0.060608 0.220193 -0.006899
v 0.060608 0.220837 -0.004923
v 0.060608 0.221467 -0.001629
v 0.062842 0.220639 0.001663
v 0.057313 0.219365 -0.008716
v 0.062568 0.220338 0.004957
v 0.062317 0.220079 0.006711
v 0.060608 0.217596 0.010928
v 0.060608 0.216057 0.012573
v 0.060608 0.214411 0.013892
v 0.057313 0.214555 0.014003
v 0.057313 0.216204 0.012711
v 0.047433 0.217720 0.011065
v 0.045428 0.220193 0.006936
v 0.031693 0.213935 0.007226
v 0.044285 0.220854 -0.001629
v 0.031693 0.216221 0.001663
v 0.047433 0.221678 -0.001629
v 0.057313 0.221025 -0.004923
v 0.057313 0.220277 -0.007070
v 0.057313 0.221678 -0.001629
v 0.060608 0.221467 0.001663
v 0.060608 0.220193 0.006933
v 0.060608 0.219245 0.008582
v 0.060608 0.220837 0.004957
v 0.057313 0.219365 0.008750
v 0.057313 0.217720 0.011065
v 0.047433 0.219365 0.008750
v 0.047433 0.220277 0.007104
v 0.047433 0.221025 0.004957
v 0.044831 0.220525 0.004957
v 0.031693 0.215209 0.004957
v 0.031693 0.214220 0.006721
v 0.044285 0.220854 0.001663
v 0.047433 0.221678 0.001663
v 0.057313 0.221678 0.001663
v 0.057313 0.221025 0.004957
v 0.057313 0.220277 0.007104
f 1 2 3
f 1 3 10
f 1 10 4
f 1 4 15
f 1 15 5
f 1 5 9
f 1 9 2
f 2 6 7
f 2 7 8
f 2 8 3
f 2 9 17
f 2 17 6
f 3 8 11
f 3 11 12
f 3 12 22
f 3 22 10
f 4 10 13
f 4 13 14
f 4 14 33
f 4 33 15
f 5 15 35
f 5 35 16
f 5 16 9
f 6 17 21
f 6 21 20
f 6 20 38
f 6 38 60
f 6 60 59
f 6 59 88
f 6 88 90
f 6 90 89
f 6 89 117
f 6 117 124
f 6 124 144
f 6 144 166
f 6 166 198
f 6 198 197
f 6 197 196
f 6 196 227
f 6 227 226
f 6 226 251
f 6 251 269
f 6 269 268
f 6 268 253
f 6 253 232
f 6 232 231
f 6 231 230
f 6 230 201
f 6 201 199
f 6 199 169
f 6 169 168
f 6 168 167
f 6 167 150
f 6 150 149
f 6 149 128
f 6 128 98
f 6 98 95
f 6 95 66
f 6 66 43
f 6 43 42
f 6 42 27
f 6 27 26
f 6 26 25
f 6 25 18
f 6 18 7
f 7 18 11
f 7 11 8
f 9 16 19
f 9 19 20
f 9 20 21
f 9 21 17
f 10 22 23
f 10 23 13
f 11 24 12
f 11 18 25
f 11 25 26
f 11 26 27
f 11 27 28
f 11 28 29
f 11 29 24
f 12 24 39
f 12 39 22
f 13 23 30
f 13 30 31
f 13 31 14
f 14 31 32
f 14 32 53
f 14 53 33
f 15 33 34
f 15 34 35
f 16 35 57
f 16 57 36
f 16 36 37
f 16 37 19
f 19 37 20
f 20 37 38
f 22 39 23
f 23 39 40
f 23 40 30
f 24 29 41
f 24 41 63
f 24 63 39
f 27 42 29
f 27 29 28
f 29 43 44
f 29 44 45
f 29 45 46
f 29 46 47
f 29 47 41
f 29 42 43
f 30 40 48
f 30 48 49
f 30 49 50
f 30 50 31
f 31 50 51
f 31 51 32
f 32 51 52
f 32 52 80
f 32 80 53
f 33 53 54
f 33 54 34
f 34 54 55
f 34 55 56
f 34 56 35
f 35 56 57
f 36 57 86
f 36 86 58
f 36 58 37
f 37 59 60
f 37 60 38
f 37 58 61
f 37 61 62
f 37 62 59
f 39 63 64
f 39 64 40
f 40 64 65
f 40 65 48
f 41 47 72
f 41 72 63
f 43 66 44
f 44 67 68
f 44 68 69
f 44 69 45
f 44 66 67
f 45 69 100
f 45 100 70
f 45 70 71
f 45 71 46
f 46 71 72
f 46 72 47
f 48 65 64
f 48 64 73
f 48 73 74
f 48 74 75
f 48 75 76
f 48 76 49
f 49 76 77
f 49 77 50
f 50 78 51
f 50 77 78
f 51 78 52
f 52 78 79
f 52 79 107
f 52 107 80
f 53 80 81
f 53 81 54
f 54 81 82
f 54 82 55
f 55 82 83
f 55 83 84
f 55 84 85
f 55 85 56
f 56 85 86
f 56 86 57
f 58 86 116
f 58 116 87
f 58 87 61
f 59 62 61
f 59 61 88
f 61 89 90
f 61 90 88
f 61 87 91
f 61 91 92
f 61 92 93
f 61 93 94
f 61 94 89
f 63 72 64
f 64 72 71
f 64 71 73
f 66 95 67
f 67 96 97
f 67 97 68
f 67 95 98
f 67 98 96
f 68 97 126
f 68 126 99
f 68 99 100
f 68 100 69
f 70 74 73
f 70 73 71
f 70 100 101
f 70 101 74
f 74 101 75
f 75 101 102
f 75 102 103
f 75 103 104
f 75 104 76
f 76 104 77
f 77 105 78
f 77 104 105
f 78 105 106
f 78 106 79
f 79 106 133
f 79 133 157
f 79 157 183
f 79 183 211
f 79 211 186
f 79 186 158
f 79 158 134
f 79 134 107
f 80 107 108
f 80 108 81
f 81 108 82
f 82 108 109
f 82 109 83
f 83 109 110
f 83 110 84
f 84 111 112
f 84 112 85
f 84 110 113
f 84 113 114
f 84 114 115
f 84 115 111
f 85 112 111
f 85 111 86
f 86 111 116
f 87 116 118
f 87 118 91
f 89 94 117
f 91 118 119
f 91 119 92
f 92 119 120
f 92 120 93
f 93 120 140
f 93 140 121
f 93 121 94
f 94 121 122
f 94 122 123
f 94 123 124
f 94 124 117
f 96 125 97
f 96 98 125
f 97 125 127
f 97 127 151
f 97 151 126
f 98 128 125
f 99 102 101
f 99 101 100
f 99 126 129
f 99 129 102
f 102 129 103
f 103 129 130
f 103 130 131
f 103 131 132
f 103 132 104
f 104 132 105
f 105 132 131
f 105 131 106
f 106 131 133
f 107 134 108
f 108 134 135
f 108 135 109
f 109 135 136
f 109 136 110
f 110 136 113
f 111 118 116
f 111 115 119
f 111 119 118
f 113 136 137
f 113 137 138
f 113 138 139
f 113 139 114
f 114 139 120
f 114 120 115
f 115 120 119
f 120 139 140
f 121 140 141
f 121 141 122
f 122 141 163
f 122 163 142
f 122 142 123
f 123 142 143
f 123 143 144
f 123 144 124
f 125 145 146
f 125 146 147
f 125 147 148
f 125 148 127
f 125 128 149
f 125 149 150
f 125 150 145
f 126 151 152
f 126 152 129
f 127 148 174
f 127 174 151
f 129 152 153
f 129 153 130
f 130 153 131
f 131 153 154
f 131 154 155
f 131 155 133
f 133 155 156
f 133 156 157
f 134 158 159
f 134 159 135
f 135 159 160
f 135 160 136
f 136 160 137
f 137 161 162
f 137 162 138
f 137 160 159
f 137 159 161
f 138 162 141
f 138 141 139
f 139 141 140
f 141 162 163
f 142 164 165
f 142 165 143
f 142 163 191
f 142 191 164
f 143 165 144
f 144 165 166
f 145 150 167
f 145 167 146
f 146 167 168
f 146 168 169
f 146 169 170
f 146 170 171
f 146 171 172
f 146 172 147
f 147 172 204
f 147 204 173
f 147 173 174
f 147 174 148
f 151 174 152
f 152 174 175
f 152 175 153
f 153 175 176
f 153 176 177
f 153 177 178
f 153 178 154
f 154 178 155
f 155 178 179
f 155 179 156
f 156 180 181
f 156 181 182
f 156 182 183
f 156 183 157
f 156 179 184
f 156 184 180
f 158 185 159
f 158 186 187
f 158 187 185
f 159 188 189
f 159 189 161
f 159 185 188
f 161 189 162
f 162 189 190
f 162 190 163
f 163 190 191
f 164 192 165
f 164 191 221
f 164 221 192
f 165 192 193
f 165 193 194
f 165 194 195
f 165 195 196
f 165 196 197
f 165 197 198
f 165 198 166
f 169 199 170
f 170 200 171
f 170 199 201
f 170 201 202
f 170 202 200
f 171 203 204
f 171 204 172
f 171 200 229
f 171 229 203
f 173 204 205
f 173 205 176
f 173 176 174
f 174 176 175
f 176 205 177
f 177 206 184
f 177 184 179
f 177 179 178
f 177 205 206
f 180 207 208
f 180 208 181
f 180 184 207
f 181 208 209
f 181 209 182
f 182 209 240
f 182 240 210
f 182 210 211
f 182 211 183
f 184 206 212
f 184 212 207
f 185 213 214
f 185 214 188
f 185 187 213
f 186 211 187
f 187 211 210
f 187 210 215
f 187 215 216
f 187 216 217
f 187 217 213
f 188 214 189
f 189 218 190
f 189 214 219
f 189 219 220
f 189 220 218
f 190 218 221
f 190 221 191
f 192 221 222
f 192 222 193
f 193 222 247
f 193 247 223
f 193 223 194
f 194 223 224
f 194 224 225
f 194 225 226
f 194 226 227
f 194 227 196
f 194 196 195
f 200 202 228
f 200 228 241
f 200 241 229
f 201 230 202
f 202 230 231
f 202 231 232
f 202 232 233
f 202 233 234
f 202 234 235
f 202 235 228
f 203 229 212
f 203 212 206
f 203 206 205
f 203 205 204
f 207 212 236
f 207 236 237
f 207 237 238
f 207 238 239
f 207 239 208
f 208 239 209
f 209 239 258
f 209 258 240
f 210 240 215
f 212 229 241
f 212 241 236
f 213 219 214
f 213 217 219
f 215 240 242
f 215 242 216
f 216 242 243
f 216 243 217
f 217 244 245
f 217 245 219
f 217 243 244
f 218 220 221
f 219 245 246
f 219 246 220
f 220 246 222
f 220 222 221
f 222 246 247
f 223 247 248
f 223 248 224
f 224 248 263
f 224 263 249
f 224 249 225
f 225 249 250
f 225 250 251
f 225 251 226
f 228 235 256
f 228 256 241
f 232 252 233
f 232 253 270
f 232 270 252
f 233 252 254
f 233 254 234
f 234 255 256
f 234 256 235
f 234 254 257
f 234 257 255
f 236 241 237
f 237 241 256
f 237 256 255
f 237 255 238
f 238 255 257
f 238 257 239
f 239 257 272
f 239 272 258
f 240 258 242
f 242 258 243
f 243 259 260
f 243 260 244
f 243 258 261
f 243 261 259
f 244 260 262
f 244 262 263
f 244 263 248
f 244 248 245
f 245 248 246
f 246 248 247
f 249 263 262
f 249 262 264
f 249 264 250
f 250 264 265
f 250 265 266
f 250 266 267
f 250 267 253
f 250 253 268
f 250 268 269
f 250 269 251
f 252 270 271
f 252 271 254
f 253 267 270
f 254 271 272
f 254 272 257
f 258 272 261
f 259 261 273
f 259 273 274
f 259 274 262
f 259 262 260
f 261 272 273
f 262 274 265
f 262 265 264
f 265 274 273
f 265 273 266
f 266 271 267
f 266 273 272
f 266 272 271
f 267 271 270
