v -0.018840 -0.076340 -0.008218
v -0.018192 -0.076340 -0.011512
v -0.018169 -0.079626 -0.011512
v -0.018792 -0.079626 -0.008218
v -0.018840 -0.076340 0.008252
v -0.018840 0.032389 -0.008218
v -0.017179 -0.079626 -0.013502
v -0.018192 0.035676 -0.011512
v -0.017054 -0.081561 -0.013389
v -0.017477 -0.081932 -0.011512
v -0.018792 -0.079626 0.008252
v -0.017779 -0.082171 -0.008218
v -0.018169 -0.079626 0.011546
v -0.018192 -0.076340 0.011546
v -0.018840 0.032389 0.008252
v -0.018832 0.038962 -0.008218
v -0.015164 -0.079626 -0.014319
v -0.017179 0.035676 -0.013502
v -0.018188 0.038962 -0.011512
v -0.015164 -0.081906 -0.013739
v -0.015164 -0.082834 -0.011512
v -0.017779 -0.082171 0.008252
v -0.017477 -0.081932 0.011546
v -0.015164 -0.083099 -0.008218
v -0.017179 -0.079626 0.013536
v -0.017054 -0.081561 0.013423
v -0.018192 0.035676 0.011546
v -0.018832 0.038962 0.008252
v -0.018821 0.042276 -0.008218
v -0.011868 -0.079626 -0.014795
v -0.015164 0.035676 -0.014319
v -0.017175 0.038962 -0.013502
v -0.018177 0.042276 -0.011512
v -0.017171 0.042276 -0.013496
v -0.011868 -0.082145 -0.013977
v -0.011868 -0.083046 -0.011512
v -0.015164 -0.083099 0.008252
v -0.015164 -0.082834 0.011546
v 0.014483 -0.083099 -0.008218
v -0.015164 -0.079626 0.014353
v -0.017179 0.035676 0.013536
v -0.015164 -0.081906 0.013773
v -0.018188 0.038962 0.011546
v -0.018821 0.042276 0.008252
v -0.018799 0.045562 -0.008218
v 0.011190 -0.079626 -0.014795
v -0.011868 0.045562 -0.014795
v -0.015164 0.042276 -0.014314
v -0.018155 0.045562 -0.011512
v -0.017146 0.048849 -0.013476
v -0.017160 0.045562 -0.013487
v -0.015164 0.048849 -0.014293
v -0.015164 0.045562 -0.014305
v 0.011190 -0.082145 -0.013977
v 0.011190 -0.083046 -0.011512
v 0.014483 -0.083099 0.008252
v -0.011868 -0.083046 0.011546
v -0.011868 -0.082145 0.014011
v 0.014483 -0.082913 -0.011512
v 0.017348 -0.082171 -0.008218
v -0.011868 -0.079626 0.014829
v -0.015164 0.035676 0.014353
v -0.017175 0.038962 0.013536
v -0.017171 0.042276 0.013530
v -0.018177 0.042276 0.011546
v -0.018799 0.045562 0.008252
v -0.017632 0.183898 -0.004924
v -0.017506 0.183898 -0.008218
v 0.014483 -0.079626 -0.014511
v 0.014483 -0.082012 -0.013835
v 0.011190 0.045562 -0.014795
v -0.011868 0.048849 -0.014792
v -0.011868 0.052162 -0.014786
v -0.017094 0.183898 -0.010321
v -0.018122 0.048849 -0.011512
v -0.017123 0.052162 -0.013455
v -0.015164 0.052162 -0.014270
v -0.011868 0.055423 -0.014769
v 0.017348 -0.082171 0.008252
v 0.014483 -0.082913 0.011546
v 0.011190 -0.083046 0.011546
v 0.011190 -0.082145 0.014011
v 0.016563 -0.081694 -0.013516
v 0.017061 -0.082039 -0.011512
v 0.018674 -0.079626 -0.008218
v 0.011190 -0.079626 0.014829
v -0.011868 0.045562 0.014829
v -0.015164 0.042276 0.014348
v -0.015164 0.045562 0.014339
v -0.015164 0.048849 0.014327
v -0.017160 0.045562 0.013521
v -0.017146 0.048849 0.013510
v -0.018155 0.045562 0.011546
v -0.017506 0.183898 0.008252
v -0.017632 0.183898 0.004958
v -0.017499 0.187212 -0.004924
v -0.017326 0.187212 -0.008218
v -0.016980 0.187212 -0.010138
v 0.016777 -0.079626 -0.013696
v 0.014483 0.038962 -0.014511
v 0.014483 0.042276 -0.014508
v 0.011190 0.048849 -0.014792
v 0.011190 0.052162 -0.014786
v -0.015164 0.183898 -0.011936
v -0.017050 0.058710 -0.013389
v -0.017090 0.055423 -0.013426
v -0.015164 0.055423 -0.014232
v -0.011868 0.058710 -0.014740
v 0.011190 0.055423 -0.014769
v 0.018674 -0.079626 0.008252
v 0.017061 -0.082039 0.011546
v 0.016563 -0.081694 0.013550
v 0.014483 -0.082012 0.013869
v 0.018048 -0.079626 -0.011512
v 0.018784 -0.076340 -0.008218
v 0.014483 -0.079626 0.014545
v 0.011190 0.045562 0.014829
v -0.011868 0.048849 0.014826
v -0.011868 0.052162 0.014820
v -0.011868 0.055423 0.014803
v -0.015164 0.052162 0.014304
v -0.018122 0.048849 0.011546
v -0.017120 0.052162 0.013489
v -0.017094 0.183898 0.010355
v -0.016980 0.187212 0.010172
v -0.017326 0.187212 0.008252
v -0.017499 0.187212 0.004958
v -0.017429 0.187689 -0.004924
v -0.017282 0.187689 -0.007734
v -0.017249 0.187689 -0.008218
v -0.016932 0.187689 -0.010060
v -0.015164 0.187212 -0.011608
v 0.018103 -0.076340 -0.011512
v 0.016777 0.035676 -0.013696
v 0.016770 0.042276 -0.013690
v 0.016777 0.038962 -0.013693
v 0.014483 0.045562 -0.014502
v 0.014483 0.052162 -0.014473
v 0.014483 0.048849 -0.014490
v -0.011802 0.186894 -0.012904
v -0.011802 0.184110 -0.013125
v -0.015164 0.058710 -0.014180
v -0.011868 0.062023 -0.014699
v 0.011190 0.058710 -0.014740
v 0.018784 -0.076340 0.008252
v 0.018048 -0.079626 0.011546
v 0.016777 -0.079626 0.013730
v 0.018784 0.032389 -0.008218
v 0.014483 0.038962 0.014545
v 0.014483 0.042276 0.014542
v 0.011190 0.048849 0.014826
v 0.011190 0.052162 0.014820
v 0.011190 0.055423 0.014803
v -0.011868 0.058710 0.014774
v -0.015164 0.055423 0.014266
v -0.017090 0.055423 0.013460
v -0.015164 0.183898 0.011970
v -0.017050 0.058710 0.013423
v -0.015164 0.187212 0.011642
v -0.016715 0.187689 0.010273
v -0.016932 0.187689 0.010094
v -0.017179 0.187689 0.008725
v -0.017249 0.187689 0.008252
v -0.017429 0.187689 0.004958
v -0.015186 0.187689 -0.011472
v -0.011817 0.187689 -0.012751
v 0.018103 0.035676 -0.011512
v 0.016759 0.045562 -0.013684
v 0.018088 0.042276 -0.011512
v 0.018099 0.038962 -0.011512
v 0.016722 0.052162 -0.013658
v 0.016744 0.048849 -0.013676
v 0.014483 0.055423 -0.014438
v -0.010660 0.185568 -0.013162
v -0.008576 0.187689 -0.012797
v 0.011190 0.062023 -0.014699
v -0.008576 0.185595 -0.013165
v 0.012851 0.185568 -0.013162
v 0.018103 -0.076340 0.011546
v 0.018784 0.032389 0.008252
v 0.016777 0.035676 0.013730
v 0.018777 0.038962 -0.008218
v 0.016777 0.038962 0.013727
v 0.016770 0.042276 0.013724
v 0.014483 0.045562 0.014536
v 0.014483 0.048849 0.014524
v 0.014483 0.052162 0.014504
v 0.011190 0.058710 0.014774
v -0.011868 0.062023 0.014733
v -0.015164 0.058710 0.014214
v -0.011805 0.184110 0.013159
v -0.011805 0.186894 0.012938
v -0.014689 0.187689 0.011729
v -0.015186 0.187689 0.011506
v 0.018066 0.045562 -0.011512
v 0.018766 0.042276 -0.008218
v 0.018033 0.048849 -0.011512
v 0.016689 0.055423 -0.013635
v 0.016722 0.183898 -0.010715
v 0.014483 0.058710 -0.014392
v 0.007894 0.187689 -0.012797
v 0.011190 0.185595 -0.013165
v 0.010741 0.187689 -0.012791
v 0.011190 0.187689 -0.012785
v 0.013510 0.187689 -0.012252
v 0.014287 0.187689 -0.011985
v 0.014162 0.186894 -0.012258
v 0.014162 0.184110 -0.012513
v 0.016645 0.058710 -0.013603
v 0.018103 0.035676 0.011546
v 0.018777 0.038962 0.008252
v 0.018099 0.038962 0.011546
v 0.018088 0.042276 0.011546
v 0.016759 0.045562 0.013718
v 0.016744 0.048849 0.013710
v 0.016722 0.052162 0.013692
v 0.014483 0.055423 0.014472
v 0.011190 0.062023 0.014733
v 0.012851 0.185568 0.013196
v -0.008576 0.185595 0.013199
v -0.010664 0.185568 0.013196
v -0.011095 0.187689 0.012805
v -0.011817 0.187689 0.012785
v 0.018744 0.045562 -0.008218
v 0.017444 0.183898 -0.008218
v 0.018766 0.042276 0.008252
v 0.016604 0.187212 -0.010532
v 0.016552 0.187689 -0.010457
v 0.018066 0.045562 0.011546
v 0.016689 0.055423 0.013669
v 0.018033 0.048849 0.011546
v 0.016722 0.183898 0.010749
v 0.014483 0.058710 0.014426
v 0.011190 0.185595 0.013199
v 0.014162 0.184110 0.012547
v 0.014162 0.186894 0.012292
v 0.014287 0.187689 0.012019
v 0.011190 0.187689 0.012819
v 0.011190 0.187238 0.012904
v 0.016645 0.058710 0.013637
v -0.008576 0.187689 0.012831
v 0.018744 0.045562 0.008252
v 0.017576 0.183898 -0.004924
v 0.017260 0.187212 -0.008218
v 0.017444 0.187212 -0.004924
v 0.017086 0.187689 -0.008578
v 0.017444 0.183898 0.008252
v 0.016604 0.187212 0.010566
v 0.007894 0.187689 0.012831
v 0.014766 0.187689 0.011700
v 0.017576 0.183898 0.004958
v 0.017167 0.187689 -0.008247
v 0.017377 0.187689 -0.004924
v 0.017444 0.187212 0.004958
v 0.017260 0.187212 0.008252
v 0.016552 0.187689 0.010491
v 0.017377 0.187689 0.004958
v 0.017219 0.187689 0.007777
v 0.017167 0.187689 0.008281
f 1 2 3
f 1 3 4
f 1 4 11
f 1 11 5
f 1 5 15
f 1 15 6
f 1 6 8
f 1 8 2
f 2 7 3
f 2 8 18
f 2 18 7
f 3 7 9
f 3 9 10
f 3 10 4
f 4 10 12
f 4 12 22
f 4 22 11
f 5 11 13
f 5 13 14
f 5 14 27
f 5 27 15
f 6 15 28
f 6 28 16
f 6 16 19
f 6 19 8
f 7 17 9
f 7 18 31
f 7 31 17
f 8 19 32
f 8 32 18
f 9 17 20
f 9 20 21
f 9 21 10
f 10 21 12
f 11 22 23
f 11 23 13
f 12 21 24
f 12 24 37
f 12 37 22
f 13 25 14
f 13 23 26
f 13 26 25
f 14 25 41
f 14 41 27
f 15 27 43
f 15 43 28
f 16 28 44
f 16 44 29
f 16 29 33
f 16 33 19
f 17 30 20
f 17 31 47
f 17 47 30
f 18 32 31
f 19 33 34
f 19 34 32
f 20 30 35
f 20 35 21
f 21 35 36
f 21 36 24
f 22 37 38
f 22 38 23
f 23 38 26
f 24 36 55
f 24 55 39
f 24 39 56
f 24 56 37
f 25 26 40
f 25 40 62
f 25 62 41
f 26 38 42
f 26 42 40
f 27 41 63
f 27 63 43
f 28 43 65
f 28 65 44
f 29 44 66
f 29 66 45
f 29 45 49
f 29 49 33
f 30 46 54
f 30 54 35
f 30 47 71
f 30 71 46
f 31 32 48
f 31 48 47
f 32 34 48
f 33 49 50
f 33 50 51
f 33 51 34
f 34 51 52
f 34 52 53
f 34 53 48
f 35 54 55
f 35 55 36
f 37 56 81
f 37 81 57
f 37 57 38
f 38 57 58
f 38 58 42
f 39 55 59
f 39 59 60
f 39 60 79
f 39 79 56
f 40 42 61
f 40 61 87
f 40 87 62
f 41 62 63
f 42 58 61
f 43 63 64
f 43 64 65
f 44 65 93
f 44 93 66
f 45 66 95
f 45 95 67
f 45 67 68
f 45 68 49
f 46 69 70
f 46 70 54
f 46 71 100
f 46 100 69
f 47 48 72
f 47 72 102
f 47 102 71
f 48 53 73
f 48 73 72
f 49 68 74
f 49 74 75
f 49 75 76
f 49 76 50
f 50 76 77
f 50 77 52
f 50 52 51
f 52 77 78
f 52 78 73
f 52 73 53
f 54 70 59
f 54 59 55
f 56 79 80
f 56 80 81
f 57 81 82
f 57 82 58
f 58 82 86
f 58 86 61
f 59 70 83
f 59 83 84
f 59 84 60
f 60 84 85
f 60 85 110
f 60 110 79
f 61 86 117
f 61 117 87
f 62 87 88
f 62 88 63
f 63 88 64
f 64 88 89
f 64 89 90
f 64 90 91
f 64 91 65
f 65 91 92
f 65 92 93
f 66 93 94
f 66 94 95
f 67 95 127
f 67 127 96
f 67 96 68
f 68 96 97
f 68 97 98
f 68 98 74
f 69 99 83
f 69 83 70
f 69 100 134
f 69 134 99
f 71 101 100
f 71 102 101
f 72 73 103
f 72 103 102
f 73 78 109
f 73 109 103
f 74 98 104
f 74 104 105
f 74 105 106
f 74 106 76
f 74 76 75
f 76 106 107
f 76 107 77
f 77 107 108
f 77 108 78
f 78 108 144
f 78 144 109
f 79 110 111
f 79 111 80
f 80 111 112
f 80 112 113
f 80 113 82
f 80 82 81
f 82 113 86
f 83 99 114
f 83 114 84
f 84 114 85
f 85 114 115
f 85 115 145
f 85 145 110
f 86 113 116
f 86 116 149
f 86 149 117
f 87 117 151
f 87 151 118
f 87 118 88
f 88 118 119
f 88 119 89
f 89 119 90
f 90 119 120
f 90 120 121
f 90 121 92
f 90 92 91
f 92 122 93
f 92 121 123
f 92 123 122
f 93 122 124
f 93 124 94
f 94 124 125
f 94 125 126
f 94 126 127
f 94 127 95
f 96 127 164
f 96 164 128
f 96 128 129
f 96 129 97
f 97 129 130
f 97 130 131
f 97 131 98
f 98 131 132
f 98 132 104
f 99 133 114
f 99 134 167
f 99 167 133
f 100 101 134
f 101 135 136
f 101 136 134
f 101 102 103
f 101 103 137
f 101 137 135
f 103 109 138
f 103 138 139
f 103 139 137
f 104 132 140
f 104 140 141
f 104 141 142
f 104 142 105
f 105 142 106
f 106 142 107
f 107 143 108
f 107 142 141
f 107 141 143
f 108 143 176
f 108 176 144
f 109 144 138
f 110 145 146
f 110 146 111
f 111 146 112
f 112 146 147
f 112 147 116
f 112 116 113
f 114 133 115
f 115 133 167
f 115 167 148
f 115 148 180
f 115 180 145
f 116 147 181
f 116 181 149
f 117 149 150
f 117 150 151
f 118 151 152
f 118 152 119
f 119 152 153
f 119 153 120
f 120 153 188
f 120 188 154
f 120 154 121
f 121 154 155
f 121 155 123
f 122 123 124
f 123 155 156
f 123 156 124
f 124 157 125
f 124 156 158
f 124 158 157
f 125 159 160
f 125 160 161
f 125 161 126
f 125 157 159
f 126 161 162
f 126 162 163
f 126 163 164
f 126 164 127
f 128 164 163
f 128 163 162
f 128 162 161
f 128 161 160
f 128 160 194
f 128 194 193
f 128 193 223
f 128 223 222
f 128 222 241
f 128 241 249
f 128 249 238
f 128 238 237
f 128 237 250
f 128 250 256
f 128 256 259
f 128 259 258
f 128 258 257
f 128 257 253
f 128 253 252
f 128 252 246
f 128 246 228
f 128 228 206
f 128 206 205
f 128 205 204
f 128 204 203
f 128 203 201
f 128 201 175
f 128 175 166
f 128 166 165
f 128 165 131
f 128 131 130
f 128 130 129
f 131 165 132
f 132 165 166
f 132 166 140
f 134 136 167
f 135 137 168
f 135 168 169
f 135 169 170
f 135 170 136
f 136 170 167
f 137 139 168
f 138 171 172
f 138 172 139
f 138 144 173
f 138 173 171
f 139 172 168
f 140 174 141
f 140 166 175
f 140 175 174
f 141 174 143
f 143 174 177
f 143 177 202
f 143 202 176
f 144 176 178
f 144 178 173
f 145 179 146
f 145 180 210
f 145 210 179
f 146 179 147
f 147 179 210
f 147 210 181
f 148 167 170
f 148 170 182
f 148 182 211
f 148 211 180
f 149 181 150
f 150 181 183
f 150 183 184
f 150 184 185
f 150 185 152
f 150 152 151
f 152 185 186
f 152 186 153
f 153 186 187
f 153 187 188
f 154 188 218
f 154 218 189
f 154 189 155
f 155 190 156
f 155 189 191
f 155 191 190
f 156 190 158
f 157 191 192
f 157 192 159
f 157 158 190
f 157 190 191
f 159 193 194
f 159 194 160
f 159 192 193
f 168 172 169
f 169 172 195
f 169 195 224
f 169 224 196
f 169 196 182
f 169 182 170
f 171 197 195
f 171 195 172
f 171 173 198
f 171 198 199
f 171 199 197
f 173 200 198
f 173 178 200
f 174 175 177
f 175 201 202
f 175 202 177
f 176 202 178
f 178 202 203
f 178 203 204
f 178 204 205
f 178 205 206
f 178 206 207
f 178 207 208
f 178 208 209
f 178 209 198
f 178 198 200
f 180 211 212
f 180 212 210
f 181 210 183
f 182 196 226
f 182 226 211
f 183 212 184
f 183 210 212
f 184 213 214
f 184 214 185
f 184 212 213
f 185 214 186
f 186 215 187
f 186 214 215
f 187 216 217
f 187 217 188
f 187 215 216
f 188 217 219
f 188 219 218
f 189 218 234
f 189 234 220
f 189 220 221
f 189 221 191
f 191 221 192
f 192 221 222
f 192 222 223
f 192 223 193
f 195 197 225
f 195 225 224
f 196 224 242
f 196 242 226
f 197 199 225
f 198 209 199
f 199 208 227
f 199 227 225
f 199 209 208
f 201 203 202
f 206 228 207
f 207 228 227
f 207 227 208
f 211 226 213
f 211 213 212
f 213 226 242
f 213 242 229
f 213 229 215
f 213 215 214
f 215 229 216
f 216 230 217
f 216 229 231
f 216 231 232
f 216 232 230
f 217 230 233
f 217 233 219
f 218 219 234
f 219 235 236
f 219 236 237
f 219 237 238
f 219 238 239
f 219 239 234
f 219 233 230
f 219 230 240
f 219 240 235
f 220 234 249
f 220 249 241
f 220 241 221
f 221 241 222
f 224 225 243
f 224 243 251
f 224 251 242
f 225 227 244
f 225 244 245
f 225 245 243
f 227 228 246
f 227 246 244
f 229 242 247
f 229 247 231
f 230 232 240
f 231 247 232
f 232 247 248
f 232 248 235
f 232 235 240
f 234 239 249
f 235 248 236
f 236 248 250
f 236 250 237
f 238 249 239
f 242 251 247
f 243 245 254
f 243 254 251
f 244 246 252
f 244 252 253
f 244 253 245
f 245 253 257
f 245 257 254
f 247 251 254
f 247 254 255
f 247 255 248
f 248 255 256
f 248 256 250
f 254 257 255
f 255 257 258
f 255 258 259
f 255 259 256
