v -0.070544 0.162378 0.008252
v -0.070510 0.162378 0.011545
v -0.070215 0.165531 0.011545
v -0.070232 0.165564 0.008252
v -0.070232 0.165564 -0.008218
v -0.070540 0.162378 -0.008218
v -0.069834 0.160421 -0.008218
v -0.069834 0.160421 0.008252
v -0.069817 0.160437 0.011545
v -0.070001 0.162378 0.013982
v -0.069975 0.165012 0.013942
v -0.069705 0.160545 0.013497
v -0.069449 0.167181 0.011545
v -0.069466 0.167213 0.008252
v -0.070215 0.165531 -0.011511
v -0.069466 0.167213 -0.008218
v -0.070510 0.162378 -0.011511
v -0.069817 0.160437 -0.011511
v -0.067873 0.159690 -0.008218
v -0.067873 0.159690 0.008252
v -0.067873 0.159728 0.011545
v -0.067826 0.162432 0.015587
v -0.066696 0.163568 0.016638
v -0.066700 0.165672 0.016671
v -0.066388 0.167630 0.016583
v -0.067210 0.168825 0.014919
v -0.066662 0.171367 0.013874
v -0.067873 0.160248 0.013978
v -0.068477 0.168966 0.011545
v -0.068520 0.168966 0.008252
v -0.069975 0.165012 -0.013908
v -0.069449 0.167181 -0.011511
v -0.068520 0.168966 -0.008218
v -0.070001 0.162378 -0.013948
v -0.069705 0.160545 -0.013463
v -0.067873 0.159728 -0.011511
v -0.065176 0.160020 -0.011511
v -0.065155 0.160004 -0.008218
v -0.065155 0.160004 0.008252
v -0.065176 0.160020 0.011545
v -0.065540 0.160269 0.013936
v -0.065720 0.163568 0.016638
v -0.064607 0.165694 0.016730
v -0.064543 0.168825 0.016750
v -0.063417 0.171529 0.016671
v -0.062724 0.173725 0.016435
v -0.065613 0.169826 0.016072
v -0.066902 0.171789 0.011545
v -0.063760 0.175558 0.014227
v -0.063143 0.177532 0.013526
v -0.065947 0.173438 0.011545
v -0.066927 0.171838 0.008252
v -0.066662 0.171367 -0.013840
v -0.067210 0.168825 -0.014885
v -0.066388 0.167630 -0.016549
v -0.066700 0.165672 -0.016637
v -0.068477 0.168966 -0.011511
v -0.066927 0.171838 -0.008218
v -0.066696 0.163568 -0.016604
v -0.067826 0.162432 -0.015553
v -0.067873 0.160248 -0.013944
v -0.065540 0.160269 -0.013902
v -0.063528 0.161362 -0.011511
v -0.063507 0.161340 -0.008218
v -0.063507 0.161345 0.008252
v -0.063528 0.161362 0.011545
v -0.064530 0.162368 0.015046
v -0.026818 0.192021 0.011545
v -0.026818 0.192346 0.012462
v -0.026818 0.193038 0.013772
v -0.063524 0.164612 0.016154
v -0.026818 0.193947 0.014290
v -0.026818 0.195320 0.014922
v -0.026818 0.196846 0.015295
v -0.062570 0.166808 0.016645
v -0.061397 0.169187 0.016730
v -0.061487 0.172481 0.016727
v -0.060412 0.175558 0.016648
v -0.059779 0.177424 0.016550
v -0.058807 0.179620 0.016118
v -0.060220 0.181340 0.013919
v -0.065977 0.173482 0.008252
v -0.063289 0.177754 0.011545
v -0.064654 0.175558 0.011545
v -0.056444 0.187219 0.013330
v -0.059419 0.183487 0.011545
v -0.060558 0.181837 0.011545
v -0.062206 0.179404 0.011545
v -0.064723 0.175558 0.008252
v -0.065613 0.169826 -0.016038
v -0.066902 0.171789 -0.011511
v -0.065947 0.173438 -0.011511
v -0.063143 0.177532 -0.013492
v -0.063760 0.175558 -0.014193
v -0.062724 0.173725 -0.016401
v -0.063417 0.171529 -0.016637
v -0.064543 0.168825 -0.016716
v -0.064607 0.165694 -0.016696
v -0.065977 0.173482 -0.008218
v -0.065720 0.163568 -0.016604
v -0.064530 0.162368 -0.015012
v -0.026818 0.193038 -0.013738
v -0.026818 0.192021 -0.011511
v -0.026818 0.191832 -0.009984
v -0.026818 0.191626 -0.008218
v -0.026818 0.191621 -0.006689
v -0.026818 0.191616 -0.004923
v -0.026818 0.191616 0.004957
v -0.026818 0.191626 0.008252
v -0.026818 0.198614 0.015502
v -0.054638 0.178949 0.016609
v -0.057711 0.175310 0.016671
v -0.054501 0.182048 0.016576
v -0.057822 0.178657 0.016625
v -0.056611 0.180891 0.016563
v -0.055472 0.183087 0.016304
v -0.051367 0.191929 0.014332
v -0.054561 0.188479 0.014100
v -0.057103 0.185439 0.013985
v -0.063323 0.177814 0.008252
v -0.062257 0.179463 0.008252
v -0.055271 0.189014 0.011545
v -0.056560 0.187370 0.011545
v -0.057989 0.185439 0.011545
v -0.053375 0.190772 0.013579
v -0.052249 0.192730 0.011545
v -0.053623 0.191080 0.011545
v -0.059479 0.183563 0.008252
v -0.058118 0.185439 0.008252
v -0.060609 0.181919 0.008252
v -0.064723 0.175558 -0.008218
v -0.064654 0.175558 -0.011511
v -0.063289 0.177754 -0.011511
v -0.062206 0.179404 -0.011511
v -0.060558 0.181837 -0.011511
v -0.059419 0.183487 -0.011511
v -0.056444 0.187219 -0.013296
v -0.060220 0.181340 -0.013885
v -0.058807 0.179620 -0.016084
v -0.059779 0.177424 -0.016516
v -0.060412 0.175558 -0.016614
v -0.061397 0.169187 -0.016696
v -0.061487 0.172481 -0.016693
v -0.062570 0.166808 -0.016611
v -0.026818 0.195320 -0.014888
v -0.063524 0.164612 -0.016120
v -0.026818 0.200139 0.015508
v -0.052300 0.182146 0.016540
v -0.052343 0.184098 0.016524
v -0.053272 0.184098 0.016524
v -0.044818 0.195320 0.015800
v -0.048110 0.192021 0.015839
v -0.051402 0.188728 0.015787
v -0.048148 0.195326 0.014431
v -0.050250 0.194239 0.013707
v -0.063323 0.177814 -0.008218
v -0.062257 0.179463 -0.008218
v -0.055357 0.189106 0.008252
v -0.053709 0.191188 0.008252
v -0.056628 0.187457 0.008252
v -0.049150 0.196299 0.011545
v -0.050605 0.194650 0.011545
v -0.050708 0.194780 0.008252
v -0.052356 0.192838 0.008252
v -0.059479 0.183563 -0.008218
v -0.058118 0.185439 -0.008218
v -0.060609 0.181919 -0.008218
v -0.057989 0.185439 -0.011511
v -0.057103 0.185439 -0.013951
v -0.056560 0.187370 -0.011511
v -0.055271 0.189014 -0.011511
v -0.053623 0.191080 -0.011511
v -0.052249 0.192730 -0.011511
v -0.053375 0.190772 -0.013545
v -0.055472 0.183087 -0.016270
v -0.054561 0.188479 -0.014066
v -0.051367 0.191929 -0.014298
v -0.056611 0.180891 -0.016529
v -0.057822 0.178657 -0.016591
v -0.057711 0.175310 -0.016637
v -0.054638 0.178949 -0.016575
v -0.026818 0.198614 -0.015468
v -0.054501 0.182048 -0.016542
v -0.026818 0.205201 0.015508
v -0.026818 0.206732 0.015505
v -0.034934 0.201908 0.015767
v -0.038230 0.201908 0.015564
v -0.041522 0.198614 0.015705
v -0.041578 0.201973 0.014378
v -0.044882 0.198674 0.014437
v -0.047074 0.197619 0.013756
v -0.047506 0.198089 0.011545
v -0.055357 0.189106 -0.008218
v -0.053709 0.191188 -0.008218
v -0.056628 0.187457 -0.008218
v -0.047635 0.198241 0.008252
v -0.049278 0.196429 0.008252
v -0.050712 0.194780 0.004957
v -0.052356 0.192838 -0.008218
v -0.050708 0.194780 -0.008218
v -0.050605 0.194650 -0.011511
v -0.049150 0.196299 -0.011511
v -0.050250 0.194239 -0.013673
v -0.048148 0.195326 -0.014397
v -0.051402 0.188728 -0.015753
v -0.048110 0.192021 -0.015805
v -0.044818 0.195320 -0.015766
v -0.053272 0.184098 -0.016490
v -0.052343 0.184098 -0.016490
v -0.052300 0.182146 -0.016506
v -0.026818 0.201908 -0.015474
v -0.026818 0.208495 0.015417
v -0.031638 0.205201 0.015613
v -0.028346 0.208495 0.015397
v -0.034934 0.205201 0.015335
v -0.038200 0.205228 0.014241
v -0.040516 0.204147 0.013703
v -0.043829 0.200918 0.013749
v -0.044309 0.201416 0.011545
v -0.045957 0.199739 0.011545
v -0.046111 0.199885 0.008252
v -0.047635 0.198241 -0.008218
v -0.049278 0.196429 -0.008218
v -0.050712 0.194780 -0.004923
v -0.047506 0.198089 -0.011511
v -0.047074 0.197619 -0.013722
v -0.044882 0.198674 -0.014403
v -0.041578 0.201973 -0.014344
v -0.041522 0.198614 -0.015671
v -0.038230 0.201908 -0.015530
v -0.034934 0.201908 -0.015733
v -0.028346 0.205201 -0.015523
v -0.026818 0.205201 -0.015474
v -0.026818 0.210026 0.015184
v -0.031638 0.208495 0.014909
v -0.034694 0.208408 0.013949
v -0.037087 0.207251 0.013576
v -0.039206 0.206272 0.011545
v -0.041013 0.204623 0.011545
v -0.042661 0.203065 0.011545
v -0.042840 0.203227 0.008252
v -0.044463 0.201583 0.008252
v -0.046111 0.199885 -0.008218
v -0.045957 0.199739 -0.011511
v -0.044309 0.201416 -0.011511
v -0.043829 0.200918 -0.013715
v -0.040516 0.204147 -0.013669
v -0.038200 0.205228 -0.014207
v -0.034934 0.205201 -0.015301
v -0.028346 0.208495 -0.015363
v -0.031638 0.205201 -0.015579
v -0.026818 0.208495 -0.015383
v -0.026818 0.211859 0.014519
v -0.028312 0.211913 0.014165
v -0.031638 0.210783 0.013726
v -0.033432 0.210242 0.013304
v -0.037558 0.207640 0.011545
v -0.037776 0.207830 0.008252
v -0.039424 0.206451 0.008252
v -0.041192 0.204807 0.008252
v -0.042840 0.203227 -0.008218
v -0.044463 0.201583 -0.008218
v -0.042661 0.203065 -0.011511
v -0.041013 0.204623 -0.011511
v -0.039206 0.206272 -0.011511
v -0.037087 0.207251 -0.013542
v -0.034694 0.208408 -0.013915
v -0.031638 0.208495 -0.014875
v -0.026818 0.211859 -0.014485
v -0.026818 0.212946 0.014005
v -0.026818 0.213768 0.013513
v -0.027191 0.213687 0.013448
v -0.029464 0.213141 0.011545
v -0.031638 0.211832 0.011545
v -0.033774 0.210485 0.011545
v -0.035422 0.209290 0.011545
v -0.035688 0.209479 0.008252
v -0.037776 0.207830 -0.008218
v -0.039424 0.206451 -0.008218
v -0.041192 0.204807 -0.008218
v -0.037558 0.207640 -0.011511
v -0.033432 0.210242 -0.013270
v -0.031638 0.210783 -0.013692
v -0.028312 0.211913 -0.014131
v -0.026818 0.213768 -0.013479
v -0.026818 0.213979 0.013117
v -0.027820 0.214028 0.011545
v -0.028201 0.214249 0.008252
v -0.029849 0.213357 0.008252
v -0.031638 0.212243 0.008252
v -0.034040 0.210675 0.008252
v -0.035688 0.209479 -0.008218
v -0.035422 0.209290 -0.011511
v -0.033774 0.210485 -0.011511
v -0.031638 0.211832 -0.011511
v -0.029464 0.213141 -0.011511
v -0.027191 0.213687 -0.013414
v -0.026818 0.214509 -0.011511
v -0.026818 0.214509 0.011545
v -0.026818 0.214677 0.010352
v -0.028201 0.214249 -0.008218
v -0.026818 0.214936 0.008252
v -0.026818 0.214942 0.001661
v -0.029849 0.213357 -0.008218
v -0.031638 0.212243 -0.008218
v -0.034040 0.210675 -0.008218
v -0.027820 0.214028 -0.011511
v -0.026818 0.214936 -0.008218
v -0.026818 0.214942 -0.004923
f 1 2 3
f 1 3 4
f 1 4 5
f 1 5 6
f 1 6 7
f 1 7 8
f 1 8 9
f 1 9 2
f 2 10 11
f 2 11 3
f 2 9 12
f 2 12 10
f 3 11 13
f 3 13 14
f 3 14 4
f 4 14 16
f 4 16 5
f 5 15 6
f 5 16 32
f 5 32 15
f 6 15 17
f 6 17 18
f 6 18 7
f 7 18 19
f 7 19 20
f 7 20 8
f 8 20 9
f 9 20 21
f 9 21 12
f 10 12 22
f 10 22 23
f 10 23 24
f 10 24 11
f 11 24 25
f 11 25 26
f 11 26 27
f 11 27 13
f 12 21 28
f 12 28 22
f 13 27 29
f 13 29 30
f 13 30 14
f 14 30 33
f 14 33 16
f 15 31 17
f 15 32 31
f 16 33 32
f 17 31 34
f 17 34 35
f 17 35 18
f 18 36 19
f 18 35 36
f 19 36 37
f 19 37 38
f 19 38 39
f 19 39 20
f 20 39 40
f 20 40 21
f 21 40 41
f 21 41 28
f 22 28 23
f 23 28 42
f 23 42 43
f 23 43 24
f 24 43 44
f 24 44 25
f 25 44 45
f 25 45 46
f 25 46 47
f 25 47 26
f 26 47 27
f 27 48 29
f 27 47 49
f 27 49 50
f 27 50 51
f 27 51 48
f 28 41 42
f 29 48 52
f 29 52 30
f 30 52 58
f 30 58 33
f 31 32 53
f 31 53 54
f 31 54 55
f 31 55 56
f 31 56 34
f 32 33 57
f 32 57 53
f 33 58 57
f 34 56 59
f 34 59 60
f 34 60 35
f 35 60 61
f 35 61 36
f 36 61 62
f 36 62 37
f 37 62 63
f 37 63 64
f 37 64 38
f 38 64 39
f 39 64 65
f 39 65 66
f 39 66 40
f 40 66 41
f 41 67 42
f 41 66 68
f 41 68 69
f 41 69 70
f 41 70 67
f 42 71 72
f 42 72 73
f 42 73 74
f 42 74 75
f 42 75 43
f 42 67 71
f 43 75 76
f 43 76 44
f 44 76 77
f 44 77 78
f 44 78 45
f 45 78 79
f 45 79 46
f 46 79 80
f 46 80 81
f 46 81 49
f 46 49 47
f 48 51 82
f 48 82 52
f 49 81 50
f 50 83 84
f 50 84 51
f 50 81 85
f 50 85 86
f 50 86 87
f 50 87 88
f 50 88 83
f 51 84 89
f 51 89 82
f 52 82 99
f 52 99 58
f 53 90 54
f 53 57 91
f 53 91 92
f 53 92 93
f 53 93 94
f 53 94 90
f 54 90 55
f 55 90 95
f 55 95 96
f 55 96 97
f 55 97 56
f 56 98 59
f 56 97 98
f 57 58 91
f 58 99 91
f 59 98 100
f 59 100 61
f 59 61 60
f 61 100 62
f 62 100 101
f 62 101 102
f 62 102 103
f 62 103 63
f 63 103 104
f 63 104 105
f 63 105 64
f 64 105 106
f 64 106 107
f 64 107 108
f 64 108 65
f 65 108 109
f 65 109 66
f 66 109 68
f 67 70 71
f 68 109 108
f 68 108 107
f 68 107 106
f 68 106 105
f 68 105 104
f 68 104 103
f 68 103 102
f 68 102 145
f 68 145 182
f 68 182 211
f 68 211 233
f 68 233 252
f 68 252 269
f 68 269 285
f 68 285 298
f 68 298 308
f 68 308 309
f 68 309 303
f 68 303 302
f 68 302 300
f 68 300 299
f 68 299 286
f 68 286 271
f 68 271 270
f 68 270 253
f 68 253 234
f 68 234 212
f 68 212 185
f 68 185 184
f 68 184 147
f 68 147 110
f 68 110 74
f 68 74 73
f 68 73 72
f 68 72 70
f 68 70 69
f 70 72 71
f 74 110 75
f 75 110 76
f 76 111 112
f 76 112 77
f 76 110 111
f 77 112 113
f 77 113 114
f 77 114 78
f 78 114 115
f 78 115 79
f 79 115 116
f 79 116 80
f 80 116 117
f 80 117 118
f 80 118 119
f 80 119 81
f 81 119 85
f 82 89 131
f 82 131 99
f 83 120 84
f 83 88 121
f 83 121 120
f 84 120 89
f 85 122 123
f 85 123 124
f 85 124 86
f 85 119 125
f 85 125 126
f 85 126 127
f 85 127 122
f 86 128 87
f 86 124 129
f 86 129 128
f 87 128 130
f 87 130 88
f 88 130 121
f 89 120 156
f 89 156 131
f 90 94 95
f 91 99 92
f 92 99 131
f 92 131 132
f 92 132 93
f 93 132 133
f 93 133 134
f 93 134 135
f 93 135 136
f 93 136 137
f 93 137 138
f 93 138 94
f 94 138 95
f 95 138 139
f 95 139 140
f 95 140 96
f 96 140 141
f 96 141 97
f 97 142 98
f 97 141 143
f 97 143 142
f 98 142 144
f 98 144 100
f 100 144 145
f 100 145 102
f 100 102 146
f 100 146 101
f 101 146 102
f 110 147 148
f 110 148 111
f 111 148 149
f 111 149 113
f 111 113 112
f 113 149 150
f 113 150 114
f 114 150 115
f 115 150 151
f 115 151 116
f 116 151 152
f 116 152 153
f 116 153 154
f 116 154 117
f 117 154 155
f 117 155 125
f 117 125 118
f 118 125 119
f 120 121 157
f 120 157 156
f 121 130 167
f 121 167 157
f 122 158 123
f 122 127 159
f 122 159 158
f 123 158 160
f 123 160 124
f 124 160 129
f 125 155 161
f 125 161 162
f 125 162 126
f 126 162 163
f 126 163 164
f 126 164 127
f 127 164 159
f 128 165 167
f 128 167 130
f 128 129 166
f 128 166 165
f 129 160 195
f 129 195 166
f 131 156 132
f 132 156 133
f 133 156 157
f 133 157 134
f 134 157 167
f 134 167 135
f 135 167 165
f 135 165 136
f 136 165 166
f 136 166 168
f 136 168 137
f 137 169 138
f 137 168 170
f 137 170 171
f 137 171 172
f 137 172 173
f 137 173 174
f 137 174 169
f 138 169 139
f 139 175 140
f 139 169 176
f 139 176 177
f 139 177 175
f 140 175 178
f 140 178 141
f 141 178 179
f 141 179 143
f 142 143 180
f 142 180 181
f 142 181 182
f 142 182 144
f 143 179 183
f 143 183 180
f 144 182 145
f 147 184 148
f 148 184 185
f 148 185 149
f 149 185 186
f 149 186 150
f 150 186 187
f 150 187 188
f 150 188 151
f 151 188 189
f 151 189 190
f 151 190 152
f 152 190 154
f 152 154 153
f 154 190 191
f 154 191 155
f 155 191 192
f 155 192 161
f 158 193 195
f 158 195 160
f 158 159 194
f 158 194 193
f 159 164 199
f 159 199 194
f 161 192 196
f 161 196 197
f 161 197 162
f 162 197 163
f 163 198 164
f 163 197 198
f 164 198 224
f 164 224 199
f 166 195 168
f 168 195 170
f 169 174 176
f 170 195 193
f 170 193 171
f 171 193 194
f 171 194 172
f 172 194 199
f 172 199 173
f 173 199 200
f 173 200 201
f 173 201 174
f 174 201 202
f 174 202 203
f 174 203 177
f 174 177 176
f 175 177 204
f 175 204 205
f 175 205 206
f 175 206 207
f 175 207 178
f 177 203 204
f 178 207 208
f 178 208 179
f 179 208 183
f 180 183 181
f 181 183 209
f 181 209 210
f 181 210 182
f 182 210 211
f 183 208 209
f 185 212 213
f 185 213 186
f 186 213 187
f 187 213 214
f 187 214 215
f 187 215 216
f 187 216 189
f 187 189 188
f 189 216 217
f 189 217 218
f 189 218 190
f 190 218 191
f 191 218 219
f 191 219 220
f 191 220 192
f 192 220 221
f 192 221 196
f 196 222 223
f 196 223 197
f 196 221 243
f 196 243 222
f 197 223 224
f 197 224 198
f 199 224 200
f 200 223 201
f 200 224 223
f 201 223 202
f 202 223 222
f 202 222 225
f 202 225 203
f 203 225 226
f 203 226 204
f 204 206 205
f 204 226 227
f 204 227 206
f 206 227 207
f 207 227 228
f 207 228 229
f 207 229 208
f 208 229 230
f 208 230 231
f 208 231 209
f 209 231 232
f 209 232 233
f 209 233 210
f 210 233 211
f 212 214 213
f 212 234 214
f 214 234 235
f 214 235 215
f 215 235 236
f 215 236 216
f 216 236 237
f 216 237 217
f 217 237 238
f 217 238 239
f 217 239 240
f 217 240 218
f 218 240 219
f 219 240 241
f 219 241 242
f 219 242 220
f 220 242 221
f 221 242 262
f 221 262 243
f 222 243 225
f 225 243 244
f 225 244 226
f 226 244 245
f 226 245 246
f 226 246 227
f 227 246 228
f 228 247 248
f 228 248 230
f 228 230 229
f 228 246 247
f 230 248 249
f 230 249 250
f 230 250 251
f 230 251 231
f 231 251 232
f 232 251 252
f 232 252 233
f 234 253 235
f 235 253 254
f 235 254 255
f 235 255 236
f 236 255 256
f 236 256 237
f 237 256 257
f 237 257 238
f 238 257 258
f 238 258 259
f 238 259 239
f 239 259 260
f 239 260 240
f 240 260 241
f 241 261 262
f 241 262 242
f 241 260 280
f 241 280 261
f 243 262 244
f 244 262 245
f 245 262 261
f 245 261 263
f 245 263 246
f 246 263 247
f 247 264 265
f 247 265 266
f 247 266 248
f 247 263 264
f 248 266 267
f 248 267 249
f 249 267 268
f 249 268 250
f 250 268 269
f 250 269 252
f 250 252 251
f 253 270 254
f 254 270 271
f 254 271 272
f 254 272 255
f 255 272 256
f 256 272 273
f 256 273 274
f 256 274 275
f 256 275 276
f 256 276 257
f 257 276 277
f 257 277 258
f 258 278 279
f 258 279 259
f 258 277 292
f 258 292 278
f 259 279 280
f 259 280 260
f 261 280 263
f 263 280 264
f 264 280 279
f 264 279 265
f 265 279 278
f 265 278 281
f 265 281 266
f 266 281 282
f 266 282 267
f 267 282 283
f 267 283 268
f 268 283 284
f 268 284 269
f 269 284 285
f 271 286 272
f 272 286 287
f 272 287 273
f 273 287 288
f 273 288 289
f 273 289 274
f 274 289 290
f 274 290 275
f 275 290 291
f 275 291 277
f 275 277 276
f 277 291 306
f 277 306 292
f 278 292 281
f 281 292 293
f 281 293 282
f 282 293 294
f 282 294 295
f 282 295 296
f 282 296 297
f 282 297 283
f 283 297 284
f 284 297 285
f 285 297 298
f 286 299 287
f 287 299 300
f 287 300 288
f 288 301 304
f 288 304 289
f 288 300 302
f 288 302 303
f 288 303 309
f 288 309 301
f 289 304 305
f 289 305 290
f 290 305 306
f 290 306 291
f 292 306 294
f 292 294 293
f 294 306 305
f 294 305 295
f 295 305 304
f 295 304 296
f 296 304 301
f 296 301 307
f 296 307 297
f 297 307 298
f 298 307 308
f 301 309 308
f 301 308 307
