v -0.015346 -0.002493 0.021377
v -0.022299 -0.002634 0.021377
v -0.019471 -0.012438 0.021378
v -0.015346 -0.012438 0.021377
v -0.015346 -0.002493 0.011409
v -0.026440 -0.002493 0.010197
v -0.027679 -0.002558 0.020066
v -0.022831 -0.003451 0.021377
v -0.022397 -0.012624 0.021378
v -0.019597 -0.015166 0.021378
v -0.015346 -0.012438 0.011583
v -0.019471 -0.017809 0.020161
v -0.020772 -0.013364 0.010197
v -0.020772 -0.012699 0.010197
v -0.020557 -0.002493 0.010532
v -0.022672 -0.008018 0.010197
v -0.030672 -0.004075 0.010197
v -0.030204 -0.002622 0.010198
v -0.030179 -0.002627 0.016182
v -0.029216 -0.002609 0.019166
v -0.028513 -0.002654 0.019743
v -0.028491 -0.003441 0.019907
v -0.028460 -0.004309 0.020033
v -0.027802 -0.003411 0.020134
v -0.023153 -0.004074 0.021377
v -0.029878 -0.002627 0.018186
v -0.022012 -0.013204 0.021378
v -0.023421 -0.004745 0.021377
v -0.023629 -0.005399 0.021377
v -0.023796 -0.006058 0.021377
v -0.023938 -0.006718 0.021377
v -0.024001 -0.007379 0.021377
v -0.023981 -0.008073 0.021377
v -0.023884 -0.008705 0.021377
v -0.023736 -0.009430 0.021377
v -0.023609 -0.010024 0.021377
v -0.023461 -0.010547 0.021377
v -0.023107 -0.011343 0.021377
v -0.027140 -0.013331 0.020142
v -0.027140 -0.013994 0.020046
v -0.020017 -0.014907 0.021378
v -0.023830 -0.017809 0.020042
v -0.023174 -0.017809 0.020123
v -0.022513 -0.017809 0.020165
v -0.021850 -0.017809 0.020173
v -0.019471 -0.017809 0.014769
v -0.021416 -0.017809 0.010197
v -0.020945 -0.011977 0.010197
v -0.021305 -0.010633 0.010197
v -0.021569 -0.009976 0.010197
v -0.030959 -0.005400 0.010197
v -0.030802 -0.004622 0.010198
v -0.030666 -0.004071 0.010864
v -0.030480 -0.003411 0.010864
v -0.030485 -0.003411 0.010199
v -0.030159 -0.002639 0.016899
v -0.030426 -0.003411 0.016150
v -0.030417 -0.003411 0.016814
v -0.028899 -0.003342 0.019650
v -0.029577 -0.002654 0.018742
v -0.029480 -0.003244 0.019154
v -0.029015 -0.003975 0.019707
v -0.028924 -0.004546 0.019868
v -0.028460 -0.005396 0.020137
v -0.030125 -0.002694 0.017476
v -0.030153 -0.002987 0.017892
v -0.030122 -0.003388 0.018229
v -0.021574 -0.013717 0.021378
v -0.026476 -0.015316 0.019996
v -0.025816 -0.015977 0.020043
v -0.028460 -0.006057 0.020184
v -0.028460 -0.006718 0.020183
v -0.028460 -0.009361 0.020115
v -0.028460 -0.010024 0.020086
v -0.027802 -0.011346 0.020188
v -0.027802 -0.012007 0.020138
v -0.027801 -0.012553 0.020080
v -0.028028 -0.013273 0.019883
v -0.027537 -0.014432 0.019826
v -0.020645 -0.014450 0.021378
v -0.024493 -0.017301 0.020045
v -0.024687 -0.017800 0.019874
v -0.025731 -0.017809 0.019461
v -0.026454 -0.017809 0.010197
v -0.031124 -0.007381 0.010197
v -0.031052 -0.006057 0.010200
v -0.031027 -0.006057 0.016151
v -0.030922 -0.005396 0.016151
v -0.030775 -0.004738 0.016814
v -0.030602 -0.004071 0.016814
v -0.030358 -0.003411 0.017476
v -0.029595 -0.004071 0.019263
v -0.029856 -0.003477 0.018732
v -0.030029 -0.003988 0.018682
v -0.030082 -0.004618 0.018827
v -0.029216 -0.004594 0.019690
v -0.029195 -0.005396 0.019828
v -0.029249 -0.006057 0.019861
v -0.030534 -0.004071 0.017476
v -0.030754 -0.004850 0.017390
v -0.030760 -0.005384 0.017791
v -0.030496 -0.004735 0.018137
v -0.021187 -0.014028 0.021378
v -0.025154 -0.016640 0.020058
v -0.026653 -0.015971 0.019778
v -0.025825 -0.016633 0.019898
v -0.029095 -0.006718 0.019953
v -0.029260 -0.008700 0.019850
v -0.028460 -0.010684 0.020045
v -0.029214 -0.009361 0.019831
v -0.028460 -0.011346 0.019992
v -0.028343 -0.012553 0.019886
v -0.028440 -0.013369 0.019610
v -0.027858 -0.013899 0.019811
v -0.027775 -0.014654 0.019593
v -0.027144 -0.015986 0.019469
v -0.025167 -0.017321 0.019903
v -0.025325 -0.017680 0.019729
v -0.025717 -0.017217 0.019755
v -0.026485 -0.017286 0.019315
v -0.026267 -0.017794 0.019168
v -0.026996 -0.017809 0.018228
v -0.027212 -0.017809 0.017636
v -0.027438 -0.017737 0.010200
v -0.027765 -0.017303 0.010197
v -0.031121 -0.008042 0.010200
v -0.031081 -0.007381 0.016151
v -0.031081 -0.006718 0.016151
v -0.031101 -0.006718 0.010200
v -0.031089 -0.008706 0.010197
v -0.031058 -0.006718 0.016814
v -0.031002 -0.006057 0.016814
v -0.030905 -0.005396 0.016814
v -0.029679 -0.004735 0.019341
v -0.030198 -0.005486 0.018927
v -0.029748 -0.005396 0.019400
v -0.029994 -0.006099 0.019270
v -0.029427 -0.006718 0.019772
v -0.030922 -0.006057 0.017474
v -0.030754 -0.006057 0.018087
v -0.026134 -0.016627 0.019787
v -0.029611 -0.008039 0.019654
v -0.029784 -0.008700 0.019483
v -0.028655 -0.011872 0.019855
v -0.029307 -0.010024 0.019708
v -0.028843 -0.012435 0.019602
v -0.028212 -0.014844 0.019200
v -0.028917 -0.013331 0.019245
v -0.027585 -0.015844 0.019224
v -0.027802 -0.015279 0.019309
v -0.026937 -0.016847 0.019224
v -0.026697 -0.017641 0.018878
v -0.027441 -0.017267 0.018233
v -0.027568 -0.017433 0.017389
v -0.027543 -0.017547 0.016829
v -0.027425 -0.017731 0.016152
v -0.027739 -0.017301 0.016152
v -0.028178 -0.016713 0.010200
v -0.028717 -0.015859 0.010198
v -0.030136 -0.012932 0.010197
v -0.031067 -0.008039 0.016151
v -0.031061 -0.007381 0.016814
v -0.030999 -0.009369 0.010197
v -0.030942 -0.009361 0.016151
v -0.031027 -0.008700 0.016151
v -0.031016 -0.007381 0.017474
v -0.030987 -0.006718 0.017474
v -0.030320 -0.006006 0.018862
v -0.030304 -0.006718 0.018990
v -0.030184 -0.007381 0.019203
v -0.029784 -0.007381 0.019521
v -0.030791 -0.006718 0.018179
v -0.030181 -0.008039 0.019202
v -0.029725 -0.010024 0.019375
v -0.029180 -0.011346 0.019593
v -0.029671 -0.010684 0.019325
v -0.029131 -0.012037 0.019477
v -0.029514 -0.011877 0.019192
v -0.028664 -0.013941 0.019200
v -0.028761 -0.014616 0.018714
v -0.028323 -0.015279 0.018795
v -0.027842 -0.016040 0.018844
v -0.027396 -0.016462 0.019056
v -0.029518 -0.012538 0.018903
v -0.027643 -0.016640 0.018663
v -0.028082 -0.016375 0.018219
v -0.028120 -0.016630 0.017476
v -0.028042 -0.016829 0.016815
v -0.028053 -0.016845 0.016152
v -0.028161 -0.016688 0.015495
v -0.028604 -0.015998 0.014833
v -0.028703 -0.015832 0.015495
v -0.029032 -0.015316 0.010200
v -0.029419 -0.014591 0.010200
v -0.029710 -0.013994 0.010200
v -0.029946 -0.013331 0.016152
v -0.030151 -0.012777 0.016152
v -0.030406 -0.012007 0.015495
v -0.030437 -0.012007 0.010200
v -0.030771 -0.010654 0.010198
v -0.030887 -0.010030 0.010197
v -0.031046 -0.008039 0.016814
v -0.031004 -0.008039 0.017474
v -0.030803 -0.010174 0.016151
v -0.030797 -0.010133 0.016814
v -0.030924 -0.009361 0.016814
v -0.031004 -0.008700 0.016814
v -0.030812 -0.008039 0.018233
v -0.030814 -0.007381 0.018235
v -0.030485 -0.007381 0.018798
v -0.030277 -0.008700 0.018983
v -0.030093 -0.009517 0.019098
v -0.030480 -0.008039 0.018798
v -0.029594 -0.011346 0.019262
v -0.030113 -0.010684 0.018808
v -0.030060 -0.011309 0.018666
v -0.029464 -0.013375 0.018489
v -0.029438 -0.013920 0.018076
v -0.028887 -0.014983 0.018161
v -0.028212 -0.015800 0.018572
v -0.030128 -0.011919 0.018182
v -0.028853 -0.015423 0.017476
v -0.028525 -0.015977 0.017476
v -0.028880 -0.015468 0.016815
v -0.029001 -0.015316 0.015495
v -0.029404 -0.014559 0.015495
v -0.029671 -0.013994 0.015495
v -0.029926 -0.013331 0.016815
v -0.030142 -0.012750 0.016815
v -0.029665 -0.013994 0.016152
v -0.030400 -0.012007 0.016151
v -0.030576 -0.011346 0.016151
v -0.030615 -0.011346 0.010200
v -0.030711 -0.010684 0.016151
v -0.030842 -0.010247 0.010867
v -0.030945 -0.008700 0.017474
v -0.030694 -0.010684 0.016814
v -0.030643 -0.010684 0.017474
v -0.030777 -0.009955 0.017439
v -0.030808 -0.009391 0.017767
v -0.030774 -0.008700 0.018142
v -0.030167 -0.010024 0.018890
v -0.030581 -0.010024 0.018137
v -0.030467 -0.010684 0.018137
v -0.030270 -0.011402 0.018196
v -0.030026 -0.012465 0.017992
v -0.029852 -0.013331 0.017476
v -0.029436 -0.014304 0.017421
v -0.030487 -0.011346 0.017474
v -0.029390 -0.014525 0.016815
v -0.029399 -0.014549 0.016152
v -0.029640 -0.013994 0.016815
v -0.030102 -0.012627 0.017503
v -0.030374 -0.012007 0.016814
v -0.030555 -0.011346 0.016814
v -0.030298 -0.012007 0.017474
f 1 2 3
f 1 3 4
f 1 4 11
f 1 11 5
f 1 5 15
f 1 15 6
f 1 6 7
f 1 7 2
f 2 8 9
f 2 9 3
f 2 7 8
f 3 10 4
f 3 9 27
f 3 27 68
f 3 68 103
f 3 103 80
f 3 80 41
f 3 41 10
f 4 10 12
f 4 12 46
f 4 46 11
f 5 11 13
f 5 13 14
f 5 14 15
f 6 15 16
f 6 16 50
f 6 50 49
f 6 49 48
f 6 48 14
f 6 14 13
f 6 13 47
f 6 47 84
f 6 84 125
f 6 125 160
f 6 160 201
f 6 201 163
f 6 163 130
f 6 130 85
f 6 85 51
f 6 51 17
f 6 17 18
f 6 18 19
f 6 19 7
f 7 20 21
f 7 21 22
f 7 22 23
f 7 23 24
f 7 24 25
f 7 25 8
f 7 19 26
f 7 26 20
f 8 25 9
f 9 25 28
f 9 28 29
f 9 29 30
f 9 30 31
f 9 31 32
f 9 32 33
f 9 33 34
f 9 34 35
f 9 35 36
f 9 36 37
f 9 37 38
f 9 38 39
f 9 39 40
f 9 40 27
f 10 41 42
f 10 42 43
f 10 43 44
f 10 44 45
f 10 45 12
f 11 46 47
f 11 47 13
f 12 45 44
f 12 44 43
f 12 43 42
f 12 42 83
f 12 83 122
f 12 122 123
f 12 123 84
f 12 84 47
f 12 47 46
f 14 48 15
f 15 48 49
f 15 49 50
f 15 50 16
f 17 51 52
f 17 52 53
f 17 53 54
f 17 54 55
f 17 55 18
f 18 55 19
f 19 56 26
f 19 55 54
f 19 54 57
f 19 57 58
f 19 58 56
f 20 59 21
f 20 26 60
f 20 60 61
f 20 61 59
f 21 59 62
f 21 62 22
f 22 62 63
f 22 63 23
f 23 63 64
f 23 64 24
f 24 64 28
f 24 28 25
f 26 56 65
f 26 65 66
f 26 66 67
f 26 67 60
f 27 40 69
f 27 69 70
f 27 70 68
f 28 64 29
f 29 64 71
f 29 71 30
f 30 71 31
f 31 71 32
f 32 71 72
f 32 72 33
f 33 72 73
f 33 73 34
f 34 73 74
f 34 74 35
f 35 74 75
f 35 75 36
f 36 75 37
f 37 75 76
f 37 76 77
f 37 77 38
f 38 77 39
f 39 77 40
f 40 77 78
f 40 78 79
f 40 79 69
f 41 80 42
f 42 80 81
f 42 81 82
f 42 82 83
f 51 85 86
f 51 86 87
f 51 87 88
f 51 88 52
f 52 89 53
f 52 88 89
f 53 89 90
f 53 90 57
f 53 57 54
f 56 58 91
f 56 91 65
f 57 90 58
f 58 90 91
f 59 61 92
f 59 92 62
f 60 67 93
f 60 93 61
f 61 93 94
f 61 94 95
f 61 95 92
f 62 92 96
f 62 96 63
f 63 96 97
f 63 97 64
f 64 97 98
f 64 98 71
f 65 91 66
f 66 91 99
f 66 99 100
f 66 100 101
f 66 101 102
f 66 102 67
f 67 94 93
f 67 102 94
f 68 70 104
f 68 104 81
f 68 81 103
f 69 79 105
f 69 105 106
f 69 106 70
f 70 106 104
f 71 107 72
f 71 98 107
f 72 107 108
f 72 108 73
f 73 108 74
f 74 109 75
f 74 108 110
f 74 110 109
f 75 109 76
f 76 109 111
f 76 111 77
f 77 111 112
f 77 112 78
f 78 112 113
f 78 113 114
f 78 114 79
f 79 114 115
f 79 115 116
f 79 116 105
f 80 103 81
f 81 104 117
f 81 117 82
f 82 117 118
f 82 118 83
f 83 118 119
f 83 119 120
f 83 120 121
f 83 121 122
f 84 123 124
f 84 124 125
f 85 126 127
f 85 127 128
f 85 128 129
f 85 129 86
f 85 130 126
f 86 129 128
f 86 128 87
f 87 128 131
f 87 131 132
f 87 132 133
f 87 133 88
f 88 133 89
f 89 100 90
f 89 133 100
f 90 100 91
f 91 100 99
f 92 134 96
f 92 95 135
f 92 135 134
f 94 102 95
f 95 102 135
f 96 134 136
f 96 136 97
f 97 136 98
f 98 136 137
f 98 137 138
f 98 138 107
f 100 133 139
f 100 139 101
f 101 140 102
f 101 139 140
f 102 140 135
f 104 106 117
f 105 116 120
f 105 120 141
f 105 141 106
f 106 141 119
f 106 119 117
f 107 138 108
f 108 138 142
f 108 142 143
f 108 143 110
f 109 110 111
f 110 144 111
f 110 143 145
f 110 145 144
f 111 144 112
f 112 144 146
f 112 146 113
f 113 147 115
f 113 115 114
f 113 146 148
f 113 148 147
f 115 149 116
f 115 147 150
f 115 150 149
f 116 151 120
f 116 149 151
f 117 119 118
f 119 141 120
f 120 151 121
f 121 151 152
f 121 152 122
f 122 152 153
f 122 153 123
f 123 153 154
f 123 154 155
f 123 155 156
f 123 156 124
f 124 156 125
f 125 156 157
f 125 157 158
f 125 158 159
f 125 159 160
f 126 130 161
f 126 161 127
f 127 161 162
f 127 162 128
f 128 162 131
f 130 163 164
f 130 164 165
f 130 165 161
f 131 166 167
f 131 167 132
f 131 162 166
f 132 167 139
f 132 139 133
f 134 135 136
f 135 168 137
f 135 137 136
f 135 140 168
f 137 168 169
f 137 169 170
f 137 170 138
f 138 171 142
f 138 170 171
f 139 167 140
f 140 167 172
f 140 172 168
f 142 171 173
f 142 173 143
f 143 174 145
f 143 173 174
f 144 145 175
f 144 175 146
f 145 174 176
f 145 176 175
f 146 175 177
f 146 177 178
f 146 178 148
f 147 148 179
f 147 179 180
f 147 180 181
f 147 181 182
f 147 182 183
f 147 183 149
f 147 149 150
f 148 180 179
f 148 178 184
f 148 184 180
f 149 183 151
f 151 183 152
f 152 183 185
f 152 185 153
f 153 185 186
f 153 186 187
f 153 187 154
f 154 187 155
f 155 187 188
f 155 188 157
f 155 157 156
f 157 188 189
f 157 189 158
f 158 189 190
f 158 190 191
f 158 191 159
f 159 191 192
f 159 192 193
f 159 193 194
f 159 194 160
f 160 194 195
f 160 195 196
f 160 196 197
f 160 197 198
f 160 198 199
f 160 199 200
f 160 200 201
f 161 165 202
f 161 202 162
f 162 202 203
f 162 203 166
f 163 201 164
f 164 201 204
f 164 204 205
f 164 205 206
f 164 206 165
f 165 207 202
f 165 206 207
f 166 203 208
f 166 208 209
f 166 209 167
f 167 209 172
f 168 172 210
f 168 210 169
f 169 210 170
f 170 210 173
f 170 173 171
f 172 209 210
f 173 211 212
f 173 212 174
f 173 210 213
f 173 213 211
f 174 212 176
f 175 176 214
f 175 214 177
f 176 212 215
f 176 215 214
f 177 214 178
f 178 214 215
f 178 215 216
f 178 216 184
f 180 184 217
f 180 217 218
f 180 218 219
f 180 219 220
f 180 220 181
f 181 220 182
f 182 220 185
f 182 185 183
f 184 216 221
f 184 221 217
f 185 220 186
f 186 220 219
f 186 219 222
f 186 222 223
f 186 223 187
f 187 223 188
f 188 223 224
f 188 224 192
f 188 192 189
f 189 192 190
f 190 192 191
f 192 224 225
f 192 225 193
f 193 225 194
f 194 225 226
f 194 226 195
f 195 226 227
f 195 227 196
f 196 228 229
f 196 229 197
f 196 227 230
f 196 230 228
f 197 229 231
f 197 231 198
f 198 232 233
f 198 233 199
f 198 231 232
f 199 233 200
f 200 233 232
f 200 232 234
f 200 234 235
f 200 235 201
f 201 235 204
f 202 207 203
f 203 207 236
f 203 236 208
f 204 235 234
f 204 234 205
f 205 234 237
f 205 237 238
f 205 238 239
f 205 239 206
f 206 236 207
f 206 239 236
f 208 236 240
f 208 240 241
f 208 241 242
f 208 242 213
f 208 213 210
f 208 210 209
f 211 242 212
f 211 213 242
f 212 242 215
f 215 242 243
f 215 243 244
f 215 244 216
f 216 244 245
f 216 245 221
f 217 221 246
f 217 246 218
f 218 246 247
f 218 247 248
f 218 248 219
f 219 248 222
f 221 245 249
f 221 249 246
f 222 224 223
f 222 248 250
f 222 250 224
f 224 250 251
f 224 251 225
f 225 251 226
f 226 251 230
f 226 230 227
f 228 230 252
f 228 252 247
f 228 247 229
f 229 247 253
f 229 253 254
f 229 254 231
f 230 251 250
f 230 250 252
f 231 254 255
f 231 255 232
f 232 255 237
f 232 237 234
f 236 239 240
f 237 255 238
f 238 255 249
f 238 249 244
f 238 244 240
f 238 240 239
f 240 244 243
f 240 243 241
f 241 243 242
f 244 249 245
f 246 256 253
f 246 253 247
f 246 249 256
f 247 252 248
f 248 252 250
f 249 255 254
f 249 254 256
f 253 256 254
