v -0.011361 -0.009929 0.011565
v -0.015346 -0.009929 0.011614
v -0.005360 -0.009927 -0.000273
v -0.000805 -0.009927 0.000029
v -0.000036 -0.009927 0.003542
v -0.011361 -0.009929 0.021377
v -0.015346 0.000763 0.000058
v -0.006704 -0.009927 0.000337
v -0.006146 -0.009927 -0.000112
v -0.015346 -0.009929 0.021377
v -0.004650 -0.009645 -0.000333
v -0.003694 -0.009645 -0.000301
v -0.015346 0.002213 -0.000246
v -0.001341 -0.007043 -0.000137
v -0.000670 -0.007375 -0.000046
v -0.000588 -0.008367 0.000014
v -0.000127 -0.007375 0.000328
v -0.000081 -0.009503 0.000745
v 0.000008 -0.009645 0.001604
v -0.000027 -0.009643 0.016467
v -0.000121 -0.009927 0.017424
v -0.007159 -0.009646 0.021373
v -0.006904 -0.008260 0.021373
v -0.006841 -0.007340 0.021373
v -0.011625 -0.000120 0.021377
v -0.000357 -0.009927 0.018102
v -0.001009 -0.009927 0.018955
v -0.015075 0.000913 0.021377
v -0.015287 0.005940 0.019831
v -0.015316 0.007789 0.017532
v -0.015346 0.004527 -0.000239
v -0.004650 -0.008699 -0.000348
v -0.015346 0.003535 -0.000267
v -0.003988 -0.007043 -0.000322
v -0.000905 -0.005391 -0.000076
v -0.003327 -0.006713 -0.000273
v -0.003988 -0.004398 -0.000280
v -0.000692 -0.006051 -0.000039
v -0.000398 -0.006713 0.000139
v -0.000025 -0.006051 0.000639
v 0.000126 -0.007375 0.000943
v -0.000009 -0.008367 0.000645
v -0.000376 -0.005391 0.000207
v 0.000119 -0.008699 0.001604
v 0.000064 -0.008697 0.016477
v 0.000014 -0.008033 0.017468
v -0.002149 -0.009501 0.019746
v -0.002254 -0.008697 0.019816
v -0.006977 -0.006299 0.021373
v -0.002075 -0.008033 0.019757
v -0.002070 -0.007043 0.019757
v -0.002296 -0.005388 0.019803
v -0.012455 0.000289 0.021377
v -0.007538 -0.004429 0.021373
v -0.008294 -0.003058 0.021373
v -0.008963 -0.002114 0.021373
v -0.009436 -0.001591 0.021373
v -0.009988 -0.001140 0.021373
v -0.007655 0.003511 0.019780
v -0.009236 0.004332 0.019786
v -0.000257 -0.007091 0.018330
v -0.000438 -0.008081 0.018570
v -0.001135 -0.008351 0.019263
v -0.000612 -0.007373 0.018840
v -0.013245 0.000528 0.021377
v -0.014073 0.005844 0.019816
v -0.015287 0.006725 0.019372
v -0.014569 0.006711 0.019342
v -0.014569 0.007699 0.017781
v -0.013576 0.007724 0.017145
v -0.015287 0.007845 0.016843
v -0.015287 0.007859 0.016152
v -0.015287 0.008003 0.001287
v -0.015252 0.007445 0.018517
v -0.015287 0.007722 0.000369
v -0.015287 0.006939 0.000012
v -0.014569 0.006915 -0.000001
v -0.013576 0.004527 -0.000237
v -0.012915 0.003865 -0.000273
v -0.006633 -0.002082 -0.000318
v -0.005642 -0.001094 -0.000284
v -0.004650 -0.002744 -0.000280
v -0.005599 0.002917 -0.000052
v -0.004650 0.002540 0.000026
v -0.003988 0.001878 0.000065
v -0.002896 0.000486 0.000109
v -0.000801 -0.004626 0.000041
v -0.000009 -0.005391 0.000943
v 0.000111 -0.006713 0.001275
v 0.000140 -0.007705 0.001604
v -0.000797 -0.003406 0.000339
v -0.000292 -0.004347 0.000839
v 0.000122 -0.007703 0.016477
v 0.000035 -0.007043 0.017468
v -0.001923 -0.008697 0.019680
v -0.002945 -0.002914 0.019803
v -0.001149 -0.007043 0.019282
v -0.002091 -0.006051 0.019742
v -0.001966 -0.005388 0.019640
v -0.002257 -0.004387 0.019691
v -0.002543 -0.003404 0.019708
v -0.011770 0.005326 0.019808
v -0.003248 -0.002180 0.019808
v -0.004242 -0.000311 0.019812
v -0.005416 0.001789 0.019738
v -0.005945 0.002319 0.019712
v -0.006025 0.003184 0.019261
v -0.007185 0.004136 0.019193
v -0.008250 0.004632 0.019312
v -0.009504 0.005410 0.019253
v -0.010160 0.004868 0.019733
v -0.000095 -0.005720 0.017468
v -0.000339 -0.005720 0.018174
v -0.000856 -0.005690 0.018872
v -0.013088 0.005816 0.019735
v -0.014569 0.007348 0.018606
v -0.012584 0.006391 0.019297
v -0.013433 0.006927 0.018946
v -0.013906 0.007527 0.018202
v -0.012962 0.007471 0.018064
v -0.012286 0.007517 0.017122
v -0.012915 0.007780 0.001273
v -0.014238 0.007982 0.001602
v -0.014569 0.007833 0.016482
v -0.014238 0.007840 0.000658
v -0.012915 0.007403 0.000286
v -0.013906 0.007174 0.000058
v -0.011617 0.006511 0.000020
v -0.009938 0.005847 0.000001
v -0.009606 0.003534 -0.000220
v -0.008943 0.002540 -0.000269
v -0.008613 0.001878 -0.000286
v -0.007294 0.001220 -0.000261
v -0.006633 0.000814 -0.000246
v -0.007294 0.004525 -0.000005
v -0.006303 0.003865 -0.000003
v -0.008613 0.003204 -0.000214
v -0.006633 0.004525 0.000107
v -0.005398 0.004104 0.000524
v -0.004343 0.003195 0.000671
v -0.002862 0.001220 0.000454
v -0.002179 0.000124 0.000435
v -0.001784 -0.001152 0.000235
v -0.000535 -0.003406 0.000943
v -0.000442 -0.003632 0.001604
v -0.000430 -0.003720 0.016148
v -0.000122 -0.005058 0.016477
v 0.000064 -0.006383 0.016477
v -0.000832 -0.002626 0.000715
v -0.002701 -0.002714 0.019665
v -0.001403 -0.005388 0.019308
v -0.001541 -0.004064 0.019229
v -0.001834 -0.003130 0.019236
v -0.011644 0.006072 0.019346
v -0.003486 -0.001161 0.019695
v -0.004009 -0.000097 0.019661
v -0.004900 0.001204 0.019684
v -0.004465 0.001736 0.019221
v -0.005316 0.002419 0.019372
v -0.004723 0.002342 0.019040
v -0.005840 0.003391 0.018983
v -0.007682 0.004957 0.018742
v -0.008639 0.005486 0.018770
v -0.010641 0.006184 0.018968
v -0.009842 0.006114 0.018732
v -0.000321 -0.004738 0.017734
v -0.000360 -0.004122 0.017098
v -0.000651 -0.004064 0.018134
v -0.000958 -0.003436 0.018404
v -0.001064 -0.004064 0.018749
v -0.012584 0.006867 0.018838
v -0.011638 0.006755 0.018681
v -0.011923 0.007181 0.018134
v -0.011311 0.007255 0.017141
v -0.011569 0.007381 0.016180
v -0.011776 0.007499 0.000845
v -0.011532 0.007455 0.001604
v -0.011311 0.007101 0.000348
v -0.010599 0.006509 0.000124
v -0.008613 0.005187 -0.000010
v -0.009275 0.006132 0.000211
v -0.008551 0.005912 0.000286
v -0.006633 0.005017 0.000433
v -0.006025 0.004662 0.000605
v -0.005398 0.004118 0.016480
v -0.004703 0.003483 0.016480
v -0.003512 0.002380 0.001604
v -0.003713 0.002487 0.000684
v -0.003210 0.001803 0.000630
v -0.002681 0.001220 0.000943
v -0.001681 -0.000443 0.001003
v -0.001091 -0.001701 0.001275
v -0.000703 -0.002744 0.001604
v -0.000736 -0.002744 0.016477
v -0.000562 -0.003404 0.017139
v -0.002480 -0.001478 0.019191
v -0.001449 -0.002744 0.018723
v -0.002916 -0.000580 0.019185
v -0.003201 0.000133 0.019036
v -0.003827 0.001792 0.018540
v -0.004247 0.002480 0.018379
v -0.005102 0.002998 0.018768
v -0.005393 0.003576 0.018349
v -0.007004 0.004941 0.018109
v -0.008949 0.006111 0.017996
v -0.010182 0.006674 0.017966
v -0.001005 -0.002586 0.017798
v -0.001355 -0.002082 0.018134
v -0.010297 0.006934 0.016809
v -0.010599 0.007076 0.016148
v -0.009956 0.006892 0.000735
v -0.010599 0.006985 0.000433
v -0.010599 0.007153 0.000943
v -0.010297 0.007062 0.001604
v -0.008595 0.006276 0.000709
v -0.007677 0.005816 0.000943
v -0.006413 0.004940 0.015793
v -0.006239 0.004750 0.016809
v -0.005710 0.004255 0.017413
v -0.004285 0.002909 0.017649
v -0.004206 0.002989 0.016480
v -0.003057 0.001801 0.001604
v -0.003723 0.002463 0.016480
v -0.002921 0.001483 0.016148
v -0.002933 0.001631 0.004248
v -0.002649 0.001220 0.001604
v -0.002293 0.000642 0.001275
v -0.001860 -0.000102 0.004248
v -0.001585 -0.000599 0.003591
v -0.001279 -0.001422 0.016477
v -0.001002 -0.002054 0.016477
v -0.001761 -0.002000 0.018702
v -0.002407 -0.000681 0.018723
v -0.002824 0.000728 0.018147
v -0.003707 0.002312 0.017468
v -0.004834 0.003353 0.017834
v -0.005837 0.004055 0.018134
v -0.006589 0.004887 0.017468
v -0.007779 0.005566 0.017768
v -0.009274 0.006477 0.017139
v -0.001572 -0.001140 0.017511
v -0.001778 -0.001308 0.018243
v -0.009274 0.006541 0.016148
v -0.009959 0.006832 0.016148
v -0.009275 0.006656 0.000943
v -0.008582 0.006195 0.016480
v -0.007952 0.005849 0.016480
v -0.007324 0.005500 0.015816
v -0.007352 0.005484 0.016809
v -0.002996 0.001459 0.017171
v -0.002336 0.000560 0.016477
v -0.001781 -0.000392 0.016148
v -0.001647 -0.000709 0.016809
v -0.002352 0.000021 0.018024
v -0.001960 -0.000106 0.016809
f 1 2 3
f 1 3 4
f 1 4 5
f 1 5 6
f 1 6 10
f 1 10 2
f 2 7 8
f 2 8 9
f 2 9 3
f 2 10 31
f 2 31 33
f 2 33 13
f 2 13 7
f 3 11 12
f 3 12 4
f 3 9 13
f 3 13 11
f 4 12 14
f 4 14 15
f 4 15 16
f 4 16 17
f 4 17 18
f 4 18 19
f 4 19 5
f 5 19 20
f 5 20 21
f 5 21 6
f 6 22 23
f 6 23 24
f 6 24 25
f 6 25 53
f 6 53 65
f 6 65 28
f 6 28 10
f 6 21 26
f 6 26 27
f 6 27 22
f 7 13 9
f 7 9 8
f 10 28 29
f 10 29 30
f 10 30 31
f 11 32 12
f 11 13 33
f 11 33 32
f 12 32 34
f 12 34 14
f 14 35 15
f 14 34 36
f 14 36 37
f 14 37 35
f 15 35 38
f 15 38 39
f 15 39 16
f 16 39 17
f 17 40 41
f 17 41 42
f 17 42 18
f 17 39 43
f 17 43 40
f 18 42 41
f 18 41 44
f 18 44 19
f 19 44 20
f 20 44 45
f 20 45 21
f 21 46 26
f 21 45 46
f 22 27 47
f 22 47 23
f 23 47 48
f 23 48 24
f 24 49 25
f 24 48 50
f 24 50 51
f 24 51 52
f 24 52 49
f 25 49 54
f 25 54 55
f 25 55 56
f 25 56 57
f 25 57 58
f 25 58 59
f 25 59 60
f 25 60 53
f 26 46 61
f 26 61 62
f 26 62 27
f 27 63 47
f 27 62 64
f 27 64 63
f 28 65 66
f 28 66 29
f 29 67 30
f 29 66 68
f 29 68 67
f 30 69 70
f 30 70 71
f 30 71 72
f 30 72 73
f 30 73 31
f 30 67 74
f 30 74 69
f 31 73 75
f 31 75 76
f 31 76 77
f 31 77 78
f 31 78 79
f 31 79 33
f 32 80 34
f 32 33 80
f 33 79 80
f 34 80 81
f 34 81 82
f 34 82 37
f 34 37 36
f 35 37 82
f 35 82 81
f 35 81 83
f 35 83 84
f 35 84 85
f 35 85 86
f 35 86 87
f 35 87 38
f 38 87 43
f 38 43 39
f 40 43 88
f 40 88 41
f 41 88 89
f 41 89 90
f 41 90 44
f 43 87 91
f 43 91 92
f 43 92 88
f 44 90 93
f 44 93 45
f 45 93 46
f 46 94 61
f 46 93 94
f 47 63 95
f 47 95 48
f 48 95 50
f 49 52 96
f 49 96 54
f 50 95 51
f 51 95 97
f 51 97 98
f 51 98 52
f 52 98 99
f 52 99 100
f 52 100 101
f 52 101 96
f 53 60 102
f 53 102 65
f 54 96 103
f 54 103 104
f 54 104 55
f 55 104 105
f 55 105 56
f 56 105 57
f 57 105 59
f 57 59 58
f 59 105 106
f 59 106 107
f 59 107 108
f 59 108 109
f 59 109 110
f 59 110 60
f 60 110 111
f 60 111 102
f 61 94 112
f 61 112 113
f 61 113 114
f 61 114 64
f 61 64 62
f 63 64 97
f 63 97 95
f 64 114 97
f 65 102 66
f 66 102 115
f 66 115 68
f 67 68 116
f 67 116 74
f 68 117 118
f 68 118 116
f 68 115 117
f 69 74 119
f 69 119 120
f 69 120 70
f 70 121 122
f 70 122 123
f 70 123 124
f 70 124 71
f 70 120 121
f 71 124 72
f 72 123 73
f 72 124 123
f 73 123 125
f 73 125 75
f 74 116 119
f 75 126 127
f 75 127 76
f 75 125 126
f 76 127 77
f 77 127 128
f 77 128 78
f 78 128 129
f 78 129 130
f 78 130 79
f 79 131 132
f 79 132 80
f 79 130 131
f 80 132 81
f 81 132 133
f 81 133 134
f 81 134 83
f 83 135 136
f 83 136 84
f 83 134 133
f 83 133 137
f 83 137 135
f 84 138 139
f 84 139 140
f 84 140 85
f 84 136 138
f 85 141 86
f 85 140 141
f 86 141 142
f 86 142 143
f 86 143 87
f 87 143 91
f 88 92 144
f 88 144 145
f 88 145 146
f 88 146 147
f 88 147 148
f 88 148 89
f 89 148 93
f 89 93 90
f 91 143 149
f 91 149 92
f 92 149 144
f 93 148 94
f 94 148 112
f 96 101 150
f 96 150 103
f 97 151 99
f 97 99 98
f 97 114 151
f 99 151 100
f 100 151 152
f 100 152 101
f 101 152 153
f 101 153 150
f 102 111 154
f 102 154 115
f 103 150 155
f 103 155 104
f 104 155 156
f 104 156 157
f 104 157 105
f 105 157 158
f 105 158 159
f 105 159 106
f 106 159 107
f 107 160 161
f 107 161 108
f 107 159 160
f 108 161 162
f 108 162 109
f 109 162 163
f 109 163 110
f 110 164 154
f 110 154 111
f 110 163 165
f 110 165 164
f 112 166 113
f 112 148 147
f 112 147 167
f 112 167 166
f 113 168 169
f 113 169 170
f 113 170 114
f 113 166 168
f 114 170 152
f 114 152 151
f 115 154 117
f 116 118 119
f 117 154 164
f 117 164 171
f 117 171 118
f 118 171 119
f 119 171 120
f 120 171 172
f 120 172 173
f 120 173 121
f 121 173 174
f 121 174 175
f 121 175 122
f 122 176 125
f 122 125 123
f 122 175 177
f 122 177 176
f 125 176 126
f 126 178 179
f 126 179 127
f 126 176 178
f 127 179 128
f 128 179 129
f 129 180 137
f 129 137 130
f 129 179 181
f 129 181 180
f 130 137 131
f 131 133 132
f 131 137 133
f 135 137 180
f 135 180 138
f 135 138 136
f 138 181 182
f 138 182 183
f 138 183 139
f 138 180 181
f 139 183 184
f 139 184 140
f 140 185 186
f 140 186 187
f 140 187 188
f 140 188 141
f 140 184 185
f 141 189 190
f 141 190 142
f 141 188 189
f 142 190 191
f 142 191 149
f 142 149 143
f 144 149 192
f 144 192 193
f 144 193 145
f 145 193 146
f 146 194 195
f 146 195 167
f 146 167 147
f 146 193 194
f 149 191 192
f 150 153 196
f 150 196 155
f 152 170 153
f 153 170 197
f 153 197 196
f 155 196 198
f 155 198 156
f 156 198 158
f 156 158 157
f 158 198 199
f 158 199 200
f 158 200 160
f 158 160 159
f 160 200 201
f 160 201 202
f 160 202 161
f 161 202 203
f 161 203 162
f 162 203 204
f 162 204 163
f 163 204 205
f 163 205 165
f 164 165 172
f 164 172 171
f 165 205 206
f 165 206 173
f 165 173 172
f 166 167 195
f 166 195 207
f 166 207 168
f 168 207 169
f 169 207 208
f 169 208 197
f 169 197 170
f 173 206 174
f 174 209 210
f 174 210 175
f 174 206 209
f 175 210 177
f 176 211 212
f 176 212 178
f 176 177 213
f 176 213 211
f 177 210 214
f 177 214 213
f 178 212 179
f 179 212 181
f 181 212 182
f 182 212 215
f 182 215 183
f 183 215 216
f 183 216 184
f 184 216 217
f 184 217 185
f 185 217 218
f 185 218 219
f 185 219 186
f 186 219 220
f 186 220 221
f 186 221 187
f 187 222 190
f 187 190 188
f 187 221 223
f 187 223 224
f 187 224 225
f 187 225 222
f 188 190 189
f 190 222 226
f 190 226 227
f 190 227 191
f 191 227 228
f 191 228 229
f 191 229 192
f 192 229 230
f 192 230 231
f 192 231 194
f 192 194 193
f 194 231 195
f 195 231 207
f 196 197 232
f 196 232 233
f 196 233 198
f 197 208 232
f 198 233 199
f 199 233 200
f 200 233 234
f 200 234 201
f 201 203 202
f 201 234 235
f 201 235 220
f 201 220 236
f 201 236 203
f 203 236 237
f 203 237 204
f 204 237 219
f 204 219 238
f 204 238 239
f 204 239 205
f 205 239 240
f 205 240 206
f 206 240 209
f 207 241 208
f 207 231 241
f 208 242 232
f 208 241 242
f 209 240 243
f 209 243 244
f 209 244 210
f 210 244 214
f 211 213 245
f 211 245 215
f 211 215 212
f 213 214 245
f 214 244 245
f 215 245 216
f 216 245 246
f 216 246 247
f 216 247 248
f 216 248 217
f 217 248 249
f 217 249 218
f 218 249 238
f 218 238 219
f 219 237 236
f 219 236 220
f 220 235 221
f 221 235 223
f 222 225 226
f 223 235 250
f 223 250 224
f 224 250 251
f 224 251 226
f 224 226 225
f 226 251 227
f 227 251 228
f 228 251 252
f 228 252 229
f 229 252 230
f 230 252 253
f 230 253 241
f 230 241 231
f 232 242 233
f 233 242 254
f 233 254 234
f 234 254 250
f 234 250 235
f 238 249 239
f 239 249 240
f 240 249 246
f 240 246 243
f 241 253 255
f 241 255 254
f 241 254 242
f 243 245 244
f 243 246 245
f 246 249 247
f 247 249 248
f 250 254 255
f 250 255 251
f 251 255 252
f 252 255 253
