v -0.015346 -0.002493 0.021379
v -0.015346 0.005940 0.019832
v -0.015622 0.000923 0.021379
v -0.022025 -0.002276 0.021379
v -0.029795 -0.002493 0.018248
v -0.015346 -0.002493 0.011405
v -0.016558 0.005962 0.019834
v -0.015346 0.006726 0.019373
v -0.015896 0.006319 0.019651
v -0.016519 0.000838 0.021379
v -0.017882 0.005735 0.019881
v -0.018542 0.005437 0.019953
v -0.021543 -0.001692 0.021379
v -0.025154 0.001224 0.020093
v -0.025814 0.000563 0.020065
v -0.027139 -0.002085 0.020137
v -0.027768 -0.002267 0.019993
v -0.029235 -0.002246 0.018964
v -0.028754 -0.000761 0.018751
v -0.029492 -0.001705 0.018193
v -0.029991 -0.002287 0.017196
v -0.030051 -0.002280 0.016183
v -0.030194 -0.002493 0.009304
v -0.028404 -0.002235 0.019700
v -0.026530 -0.002493 0.008892
v -0.023795 -0.002491 -0.000040
v -0.021968 -0.002449 0.000724
v -0.015628 0.000191 0.000527
v -0.015346 0.001885 -0.000233
v -0.017220 0.005941 0.019825
v -0.015622 0.007848 0.016843
v -0.015622 0.007799 0.017503
v -0.015640 0.007515 0.018416
v -0.015896 0.007115 0.019017
v -0.016558 0.006725 0.019369
v -0.015346 0.006949 0.000018
v -0.017882 0.006067 0.019728
v -0.017537 0.000608 0.021379
v -0.019204 0.005403 0.019919
v -0.021063 -0.001230 0.021379
v -0.024492 0.001885 0.020108
v -0.025198 0.002370 0.019777
v -0.026628 0.000491 0.019811
v -0.027412 -0.001421 0.019968
v -0.028063 -0.001607 0.019753
v -0.028675 -0.001457 0.019214
v -0.028031 -0.000327 0.019291
v -0.028279 0.000040 0.018783
v -0.028742 -0.000178 0.018221
v -0.029089 -0.000761 0.018136
v -0.029495 -0.001115 0.017140
v -0.029558 -0.001125 0.016151
v -0.030034 -0.001704 0.002926
v -0.030336 -0.002491 0.002002
v -0.027140 -0.002491 -0.000199
v -0.027985 -0.002493 0.008892
v -0.024835 -0.002491 -0.000203
v -0.015624 0.001113 -0.000150
v -0.025815 -0.002288 -0.000294
v -0.015622 0.002547 -0.000265
v -0.015622 0.003550 -0.000269
v -0.015622 0.004528 -0.000243
v -0.016558 0.007855 0.016151
v -0.016558 0.007841 0.016814
v -0.016558 0.007805 0.017474
v -0.015622 0.007995 0.001287
v -0.015759 0.007870 0.015752
v -0.016645 0.007424 0.018569
v -0.017307 0.007025 0.018974
v -0.017220 0.006512 0.019463
v -0.016557 0.004528 -0.000250
v -0.017218 0.004528 -0.000248
v -0.017880 0.004528 -0.000239
v -0.018872 0.006512 0.000016
v -0.017218 0.007175 0.000098
v -0.015622 0.007717 0.000372
v -0.018542 0.006218 0.019522
v -0.019204 0.006151 0.019463
v -0.020373 0.005294 0.019798
v -0.018633 0.000266 0.021379
v -0.020527 0.004528 0.020065
v -0.020526 -0.000827 0.021379
v -0.023830 0.002547 0.020099
v -0.024517 0.003034 0.019755
v -0.025416 0.003220 0.019191
v -0.026688 0.001909 0.019119
v -0.026257 0.001263 0.019719
v -0.027577 -0.000643 0.019721
v -0.027642 0.001464 0.018234
v -0.028179 0.000820 0.018059
v -0.028508 0.000563 0.017474
v -0.028854 0.000066 0.017164
v -0.029012 -0.000100 0.016151
v -0.029400 -0.000331 0.001945
v -0.030037 -0.001704 0.001934
v -0.029680 -0.001176 0.000843
v -0.029950 -0.002251 0.000612
v -0.029124 -0.002288 0.000077
v -0.028461 -0.000760 0.000062
v -0.026477 -0.001421 -0.000229
v -0.026477 -0.002288 -0.000267
v -0.025815 -0.001421 -0.000286
v -0.025152 -0.001421 -0.000303
v -0.024162 -0.000760 -0.000305
v -0.023170 -0.000099 -0.000303
v -0.016557 0.003866 -0.000275
v -0.017554 0.007920 0.008892
v -0.017220 0.007855 0.014167
v -0.017220 0.007809 0.016151
v -0.017220 0.007790 0.016814
v -0.017220 0.007748 0.017474
v -0.017478 0.007551 0.018087
v -0.016557 0.007822 0.000663
v -0.017218 0.007782 0.000671
v -0.017880 0.007789 0.000941
v -0.016557 0.007982 0.001603
v -0.019204 0.006803 0.018754
v -0.018542 0.006750 0.019013
v -0.017880 0.003866 -0.000282
v -0.018542 0.004528 -0.000222
v -0.018872 0.003866 -0.000267
v -0.021189 0.005851 0.000035
v -0.019864 0.006512 0.000071
v -0.019202 0.004528 -0.000197
v -0.018542 0.007175 0.000211
v -0.017880 0.007400 0.000287
v -0.020169 0.006162 0.019210
v -0.021849 0.003867 0.020101
v -0.021431 0.005649 0.019250
v -0.021654 0.004893 0.019715
v -0.019463 -0.000168 0.021379
v -0.022511 0.003205 0.020167
v -0.023168 0.003205 0.020057
v -0.023807 0.003436 0.019806
v -0.023812 0.003834 0.019569
v -0.024430 0.003851 0.019276
v -0.023944 0.004467 0.018996
v -0.024275 0.004839 0.018278
v -0.025638 0.003680 0.018361
v -0.026263 0.002580 0.018976
v -0.026839 0.002419 0.018340
v -0.027535 0.001973 0.017474
v -0.028103 0.001184 0.017474
v -0.028138 0.001237 0.016814
v -0.028590 0.000585 0.016151
v -0.028835 0.000630 0.001603
v -0.028916 0.000287 0.000831
v -0.029149 -0.000768 0.000359
v -0.029360 -0.001421 0.000306
v -0.028461 -0.000099 0.000158
v -0.027800 0.000563 0.000081
v -0.025815 -0.000760 -0.000252
v -0.025152 -0.000760 -0.000288
v -0.023831 0.000563 -0.000279
v -0.023170 0.000893 -0.000282
v -0.017882 0.007762 0.014167
v -0.017218 0.007923 0.001603
v -0.017880 0.007842 0.002926
v -0.018542 0.007714 0.001603
v -0.018542 0.007720 0.008879
v -0.018188 0.007646 0.016151
v -0.018149 0.007624 0.016814
v -0.018182 0.007540 0.017469
v -0.019865 0.007124 0.017474
v -0.020433 0.006811 0.018038
v -0.019852 0.006812 0.018448
v -0.018646 0.007604 0.000746
v -0.019553 0.007471 0.001238
v -0.017880 0.007828 0.001603
v -0.019864 0.003866 -0.000233
v -0.023170 0.001885 -0.000235
v -0.023831 0.004528 0.000058
v -0.022146 0.006097 0.000336
v -0.020526 0.006512 0.000164
v -0.019864 0.004528 -0.000167
v -0.020526 0.003866 -0.000203
v -0.021189 0.003866 -0.000169
v -0.019864 0.007078 0.000368
v -0.021280 0.006133 0.018739
v -0.022644 0.004327 0.019736
v -0.022511 0.005517 0.018807
v -0.023076 0.004764 0.019221
v -0.023248 0.005523 0.018166
v -0.024559 0.004900 0.017474
v -0.025422 0.004262 0.017431
v -0.025161 0.004205 0.018136
v -0.026144 0.003535 0.017469
v -0.026107 0.003175 0.018418
v -0.026938 0.002714 0.017210
v -0.027572 0.002026 0.016814
v -0.027580 0.002039 0.016151
v -0.028145 0.001247 0.016151
v -0.028292 0.001406 0.001501
v -0.028261 0.001394 0.004369
v -0.027418 0.002475 0.000850
v -0.028357 0.000798 0.000436
v -0.027136 0.002196 0.000311
v -0.026477 0.002547 0.000115
v -0.027140 0.001224 0.000062
v -0.023831 0.001224 -0.000246
v -0.025815 0.002547 0.000033
v -0.025152 0.003205 0.000030
v -0.024269 0.002939 -0.000065
v -0.019141 0.007443 0.015447
v -0.019679 0.007470 0.002227
v -0.019864 0.007410 0.002926
v -0.019246 0.007519 0.008892
v -0.019865 0.007255 0.015489
v -0.019204 0.007408 0.016151
v -0.019865 0.007202 0.016814
v -0.020818 0.006861 0.017119
v -0.021190 0.006487 0.018136
v -0.020636 0.007037 0.000724
v -0.020526 0.007211 0.001603
v -0.022511 0.002547 -0.000216
v -0.023170 0.002547 -0.000178
v -0.024492 0.003866 0.000033
v -0.025152 0.003866 0.000122
v -0.024492 0.004762 0.000311
v -0.023170 0.005702 0.000423
v -0.022096 0.006146 0.017989
v -0.023432 0.005596 0.017516
v -0.023761 0.005477 0.016814
v -0.024884 0.004748 0.016814
v -0.025718 0.004086 0.016814
v -0.027008 0.002732 0.016151
v -0.027463 0.002544 0.001603
v -0.026633 0.003204 0.000608
v -0.026853 0.003256 0.001603
v -0.026365 0.003751 0.001603
v -0.019865 0.007239 0.016151
v -0.020526 0.007203 0.003257
v -0.020818 0.006919 0.016151
v -0.021849 0.006476 0.016814
v -0.021557 0.006754 0.000941
v -0.021600 0.006804 0.001603
v -0.021346 0.006905 0.002263
v -0.025799 0.004013 0.000620
v -0.025096 0.004651 0.000631
v -0.024492 0.005193 0.000941
v -0.022504 0.006178 0.016814
v -0.023168 0.005827 0.016814
v -0.023792 0.005494 0.016151
v -0.024892 0.004763 0.016151
v -0.025121 0.004828 0.001603
v -0.025852 0.004227 0.001603
v -0.026044 0.003764 0.016151
v -0.026856 0.002924 0.015489
v -0.021158 0.006963 0.003586
v -0.021336 0.006901 0.002926
v -0.021849 0.006504 0.016151
v -0.022768 0.006231 0.001317
v -0.022841 0.006182 0.004248
v -0.022527 0.006189 0.016151
v -0.024214 0.005417 0.001603
v -0.023168 0.005855 0.016151
f 1 2 3
f 1 3 10
f 1 10 38
f 1 38 80
f 1 80 131
f 1 131 82
f 1 82 40
f 1 40 13
f 1 13 4
f 1 4 5
f 1 5 23
f 1 23 56
f 1 56 25
f 1 25 6
f 1 6 29
f 1 29 36
f 1 36 8
f 1 8 2
f 2 7 3
f 2 8 9
f 2 9 7
f 3 7 11
f 3 11 12
f 3 12 10
f 4 13 14
f 4 14 15
f 4 15 16
f 4 16 17
f 4 17 5
f 5 18 19
f 5 19 20
f 5 20 21
f 5 21 22
f 5 22 23
f 5 17 24
f 5 24 18
f 6 25 26
f 6 26 27
f 6 27 28
f 6 28 29
f 7 9 30
f 7 30 11
f 8 31 32
f 8 32 33
f 8 33 34
f 8 34 35
f 8 35 9
f 8 36 31
f 9 35 37
f 9 37 30
f 10 12 38
f 11 39 12
f 11 30 37
f 11 37 39
f 12 39 38
f 13 40 41
f 13 41 14
f 14 41 42
f 14 42 15
f 15 42 43
f 15 43 44
f 15 44 16
f 16 44 17
f 17 44 45
f 17 45 24
f 18 24 46
f 18 46 19
f 19 46 47
f 19 47 48
f 19 48 49
f 19 49 50
f 19 50 20
f 20 50 51
f 20 51 21
f 21 51 22
f 22 51 52
f 22 52 53
f 22 53 54
f 22 54 23
f 23 54 55
f 23 55 56
f 24 45 46
f 25 56 57
f 25 57 26
f 26 57 58
f 26 58 28
f 26 28 27
f 28 58 29
f 29 58 59
f 29 59 60
f 29 60 61
f 29 61 62
f 29 62 36
f 31 63 64
f 31 64 65
f 31 65 32
f 31 36 66
f 31 66 67
f 31 67 63
f 32 65 33
f 33 65 68
f 33 68 34
f 34 69 35
f 34 68 69
f 35 70 37
f 35 69 70
f 36 62 71
f 36 71 72
f 36 72 73
f 36 73 74
f 36 74 75
f 36 75 76
f 36 76 66
f 37 70 77
f 37 77 78
f 37 78 79
f 37 79 39
f 38 39 81
f 38 81 80
f 39 79 81
f 40 82 83
f 40 83 41
f 41 83 42
f 42 84 85
f 42 85 86
f 42 86 87
f 42 87 43
f 42 83 84
f 43 87 88
f 43 88 44
f 44 88 45
f 45 88 47
f 45 47 46
f 47 88 87
f 47 87 86
f 47 86 48
f 48 86 89
f 48 89 90
f 48 90 49
f 49 90 91
f 49 91 50
f 50 91 92
f 50 92 51
f 51 92 93
f 51 93 52
f 52 93 94
f 52 94 53
f 53 94 95
f 53 95 54
f 54 95 96
f 54 96 97
f 54 97 98
f 54 98 55
f 55 98 99
f 55 99 100
f 55 100 101
f 55 101 59
f 55 59 57
f 55 57 56
f 57 59 58
f 59 101 102
f 59 102 103
f 59 103 104
f 59 104 60
f 60 104 105
f 60 105 61
f 61 105 106
f 61 106 62
f 62 106 71
f 63 67 107
f 63 107 108
f 63 108 64
f 64 108 109
f 64 109 110
f 64 110 65
f 65 111 112
f 65 112 68
f 65 110 111
f 66 113 114
f 66 114 115
f 66 115 116
f 66 116 107
f 66 107 67
f 66 76 113
f 68 112 117
f 68 117 69
f 69 117 118
f 69 118 77
f 69 77 70
f 71 106 119
f 71 119 72
f 72 119 73
f 73 120 74
f 73 119 121
f 73 121 120
f 74 122 123
f 74 123 75
f 74 120 124
f 74 124 122
f 75 125 126
f 75 126 76
f 75 123 125
f 76 126 114
f 76 114 113
f 77 118 78
f 78 118 127
f 78 127 79
f 79 128 81
f 79 127 129
f 79 129 130
f 79 130 128
f 80 81 128
f 80 128 131
f 82 131 132
f 82 132 83
f 83 132 133
f 83 133 84
f 84 133 134
f 84 134 135
f 84 135 136
f 84 136 85
f 85 136 137
f 85 137 138
f 85 138 139
f 85 139 140
f 85 140 86
f 86 140 141
f 86 141 89
f 89 141 142
f 89 142 90
f 90 142 143
f 90 143 91
f 91 143 144
f 91 144 92
f 92 144 145
f 92 145 93
f 93 145 146
f 93 146 94
f 94 146 147
f 94 147 96
f 94 96 95
f 96 147 148
f 96 148 97
f 97 148 149
f 97 149 98
f 98 149 150
f 98 150 99
f 99 150 151
f 99 151 100
f 100 152 102
f 100 102 101
f 100 151 152
f 102 153 103
f 102 152 153
f 103 153 104
f 104 153 154
f 104 154 155
f 104 155 105
f 105 155 119
f 105 119 106
f 107 156 108
f 107 116 157
f 107 157 158
f 107 158 159
f 107 159 160
f 107 160 156
f 108 156 109
f 109 156 110
f 110 156 161
f 110 161 162
f 110 162 111
f 111 162 163
f 111 163 112
f 112 163 164
f 112 164 165
f 112 165 166
f 112 166 117
f 114 167 115
f 114 126 167
f 115 167 168
f 115 168 159
f 115 159 169
f 115 169 157
f 115 157 116
f 117 127 118
f 117 166 127
f 119 155 121
f 120 121 170
f 120 170 124
f 121 155 154
f 121 154 171
f 121 171 170
f 122 172 173
f 122 173 174
f 122 174 123
f 122 124 175
f 122 175 176
f 122 176 177
f 122 177 172
f 123 174 125
f 124 170 176
f 124 176 175
f 125 174 178
f 125 178 126
f 126 178 167
f 127 166 179
f 127 179 129
f 128 133 132
f 128 132 131
f 128 130 180
f 128 180 133
f 129 179 181
f 129 181 182
f 129 182 180
f 129 180 130
f 133 180 134
f 134 180 135
f 135 180 136
f 136 180 182
f 136 182 137
f 137 182 181
f 137 181 138
f 138 183 184
f 138 184 185
f 138 185 186
f 138 186 139
f 138 181 183
f 139 186 185
f 139 185 187
f 139 187 188
f 139 188 140
f 140 188 141
f 141 188 187
f 141 187 142
f 142 187 189
f 142 189 190
f 142 190 143
f 143 190 144
f 144 190 191
f 144 191 192
f 144 192 145
f 145 192 146
f 146 193 147
f 146 192 194
f 146 194 193
f 147 193 195
f 147 195 196
f 147 196 148
f 148 196 150
f 148 150 149
f 150 196 197
f 150 197 198
f 150 198 151
f 151 199 152
f 151 198 199
f 152 200 153
f 152 199 201
f 152 201 202
f 152 202 203
f 152 203 200
f 153 200 154
f 154 200 171
f 156 204 161
f 156 160 204
f 157 169 158
f 158 169 159
f 159 168 205
f 159 205 160
f 160 205 206
f 160 206 207
f 160 207 208
f 160 208 204
f 161 209 162
f 161 204 209
f 162 209 210
f 162 210 163
f 163 210 164
f 164 210 211
f 164 211 165
f 165 212 166
f 165 211 212
f 166 212 179
f 167 178 213
f 167 213 168
f 168 214 205
f 168 213 214
f 170 171 215
f 170 215 176
f 171 200 216
f 171 216 215
f 172 217 218
f 172 218 219
f 172 219 173
f 172 177 217
f 173 219 220
f 173 220 213
f 173 213 178
f 173 178 174
f 176 215 177
f 177 215 216
f 177 216 217
f 179 212 221
f 179 221 183
f 179 183 181
f 183 221 222
f 183 222 184
f 184 222 223
f 184 223 224
f 184 224 185
f 185 224 225
f 185 225 187
f 187 225 189
f 189 225 226
f 189 226 190
f 190 226 191
f 191 227 194
f 191 194 192
f 191 226 227
f 193 194 227
f 193 227 195
f 195 228 196
f 195 227 229
f 195 229 230
f 195 230 228
f 196 228 197
f 197 228 198
f 198 228 218
f 198 218 217
f 198 217 202
f 198 202 201
f 198 201 199
f 200 203 216
f 202 217 203
f 203 217 216
f 204 208 231
f 204 231 209
f 205 232 206
f 205 214 232
f 206 232 208
f 206 208 207
f 208 232 233
f 208 233 231
f 209 231 210
f 210 231 233
f 210 233 211
f 211 233 234
f 211 234 221
f 211 221 212
f 213 235 214
f 213 220 235
f 214 235 236
f 214 236 237
f 214 237 232
f 218 228 238
f 218 238 219
f 219 238 239
f 219 239 220
f 220 239 240
f 220 240 235
f 221 234 241
f 221 241 222
f 222 241 242
f 222 242 223
f 223 242 243
f 223 243 224
f 224 243 244
f 224 244 225
f 225 244 245
f 225 245 246
f 225 246 230
f 225 230 229
f 225 229 247
f 225 247 248
f 225 248 226
f 226 248 229
f 226 229 227
f 228 230 238
f 229 248 247
f 230 246 238
f 232 237 249
f 232 249 233
f 233 249 250
f 233 250 251
f 233 251 234
f 234 251 241
f 235 240 252
f 235 252 236
f 236 252 253
f 236 253 254
f 236 254 251
f 236 251 250
f 236 250 237
f 237 250 249
f 238 246 239
f 239 246 245
f 239 245 240
f 240 245 255
f 240 255 252
f 241 251 254
f 241 254 256
f 241 256 242
f 242 256 243
f 243 256 255
f 243 255 245
f 243 245 244
f 252 255 253
f 253 255 256
f 253 256 254
