v -0.004309 -0.009932 0.009501
v -0.000096 -0.009977 0.009487
v -0.000047 -0.009980 0.001601
v -0.004696 -0.009932 -0.000325
v -0.006726 -0.009932 0.002965
v -0.019909 -0.014974 0.001951
v -0.015397 -0.015023 0.010193
v -0.000238 -0.010688 0.009501
v -0.000168 -0.010688 0.005566
v -0.000059 -0.010026 0.004906
v -0.000045 -0.009980 0.004202
v -0.000041 -0.009980 0.003540
v -0.000168 -0.010688 0.004906
v -0.000183 -0.010688 0.001601
v -0.000351 -0.011339 0.000942
v -0.000275 -0.010778 0.000754
v -0.000168 -0.009980 0.000697
v -0.005359 -0.009932 -0.000278
v -0.000802 -0.009980 0.000026
v -0.003326 -0.009980 -0.000274
v -0.003988 -0.009980 -0.000323
v -0.014566 -0.017963 -0.000402
v -0.015229 -0.017963 -0.000403
v -0.015891 -0.017963 -0.000400
v -0.018538 -0.018623 -0.000384
v -0.017876 -0.017963 -0.000374
v -0.019909 -0.017939 -0.000335
v -0.006909 -0.009932 0.002276
v -0.019909 -0.014960 0.000872
v -0.019909 -0.018858 0.010194
v -0.015908 -0.015428 0.010193
v -0.007026 -0.009932 0.001601
v -0.018232 -0.019016 0.010194
v -0.015620 -0.023332 0.010193
v -0.000366 -0.011279 0.009501
v -0.000327 -0.011441 0.005566
v -0.000327 -0.011442 0.004906
v -0.000333 -0.011424 0.001601
v -0.000518 -0.012011 0.000942
v -0.000882 -0.012595 0.000430
v -0.000784 -0.012011 0.000340
v -0.000687 -0.011310 0.000281
v -0.000975 -0.010908 -0.000068
v -0.006146 -0.009932 -0.000113
v -0.019909 -0.016804 -0.000117
v -0.019909 -0.015608 0.000339
v -0.003328 -0.015319 -0.000155
v -0.003988 -0.010688 -0.000308
v -0.004651 -0.012673 -0.000306
v -0.005975 -0.014658 -0.000333
v -0.006637 -0.014658 -0.000355
v -0.013905 -0.018622 -0.000399
v -0.014566 -0.018622 -0.000401
v -0.015286 -0.018623 -0.000402
v -0.016552 -0.018623 -0.000402
v -0.017211 -0.018623 -0.000401
v -0.018386 -0.019284 -0.000346
v -0.019909 -0.018599 -0.000335
v -0.006983 -0.009932 0.000851
v -0.006705 -0.009932 0.000335
v -0.019909 -0.022737 0.002215
v -0.019887 -0.022608 0.010194
v -0.018979 -0.022843 0.010194
v -0.015229 -0.023440 0.001602
v -0.014566 -0.023322 0.009501
v -0.013905 -0.023261 0.009501
v -0.013244 -0.023165 0.009501
v -0.012580 -0.023030 0.009501
v -0.012016 -0.022905 0.009501
v -0.011258 -0.022706 0.009501
v -0.010633 -0.022510 0.009501
v -0.009939 -0.022260 0.009501
v -0.009280 -0.021977 0.009501
v -0.008543 -0.021627 0.009501
v -0.007961 -0.021306 0.009501
v -0.007321 -0.020921 0.009501
v -0.006242 -0.020203 0.009501
v -0.005400 -0.019522 0.009501
v -0.004882 -0.019066 0.009501
v -0.004386 -0.018577 0.009501
v -0.003733 -0.017888 0.009501
v -0.003114 -0.017162 0.009501
v -0.002729 -0.016644 0.009501
v -0.002319 -0.016012 0.009501
v -0.001922 -0.015319 0.009501
v -0.001625 -0.014757 0.009501
v -0.001265 -0.013995 0.009501
v -0.001002 -0.013366 0.009501
v -0.000722 -0.012595 0.009501
v -0.000537 -0.011979 0.009501
v -0.016552 -0.023294 0.010193
v -0.016552 -0.023410 0.001601
v -0.015891 -0.023436 0.001601
v -0.000485 -0.012011 0.004906
v -0.000489 -0.012011 0.001601
v -0.000675 -0.012595 0.001564
v -0.000708 -0.012595 0.000942
v -0.000987 -0.013236 0.000743
v -0.001539 -0.014236 0.000429
v -0.001837 -0.013759 0.000005
v -0.001446 -0.012737 0.000016
v -0.002346 -0.014673 -0.000051
v -0.003783 -0.016732 -0.000097
v -0.003988 -0.015981 -0.000158
v -0.003988 -0.012011 -0.000278
v -0.003083 -0.016074 -0.000064
v -0.006637 -0.015319 -0.000335
v -0.010598 -0.017963 -0.000359
v -0.011258 -0.017963 -0.000374
v -0.011919 -0.017963 -0.000386
v -0.012580 -0.018622 -0.000382
v -0.014566 -0.019283 -0.000369
v -0.015891 -0.019283 -0.000369
v -0.016552 -0.019283 -0.000365
v -0.017211 -0.019283 -0.000359
v -0.019909 -0.021269 -0.000030
v -0.019199 -0.019284 -0.000315
v -0.016443 -0.022398 -0.000016
v -0.019909 -0.019235 -0.000278
v -0.019897 -0.021904 0.000121
v -0.019883 -0.022519 0.000686
v -0.019883 -0.022753 0.001600
v -0.019214 -0.022925 0.002263
v -0.019022 -0.022960 0.002926
v -0.018055 -0.023061 0.010193
v -0.017211 -0.023228 0.010193
v -0.014566 -0.023404 0.001602
v -0.014566 -0.023352 0.006891
v -0.015891 -0.023393 0.000942
v -0.015286 -0.023388 0.000942
v -0.014566 -0.023359 0.000942
v -0.013905 -0.023276 0.008877
v -0.013244 -0.023179 0.008877
v -0.012366 -0.022995 0.008877
v -0.011726 -0.022895 0.003587
v -0.011258 -0.022773 0.002263
v -0.011485 -0.022834 0.002927
v -0.010598 -0.022560 0.002927
v -0.010025 -0.022358 0.002927
v -0.009861 -0.022291 0.003587
v -0.009492 -0.022136 0.004248
v -0.008665 -0.021748 0.004905
v -0.008152 -0.021466 0.005566
v -0.007961 -0.021366 0.004905
v -0.007261 -0.020958 0.005566
v -0.006092 -0.020184 0.001602
v -0.005345 -0.019585 0.001602
v -0.007086 -0.020864 0.003587
v -0.004804 -0.019115 0.001602
v -0.004678 -0.018923 0.006230
v -0.004186 -0.018434 0.006230
v -0.003686 -0.017937 0.001602
v -0.003087 -0.017184 0.001602
v -0.002212 -0.015844 0.004905
v -0.001893 -0.015319 0.004905
v -0.001603 -0.014798 0.004905
v -0.001222 -0.013995 0.004905
v -0.000987 -0.013402 0.006891
v -0.000911 -0.013255 0.004905
v -0.000672 -0.012595 0.004906
v -0.000570 -0.012264 0.005566
v -0.016552 -0.023371 0.000942
v -0.017211 -0.023327 0.001601
v -0.000697 -0.012673 0.004248
v -0.000977 -0.013424 0.001602
v -0.001253 -0.013995 0.000942
v -0.001623 -0.014759 0.000942
v -0.002251 -0.015785 0.000729
v -0.003035 -0.016644 0.000282
v -0.004085 -0.017543 -0.000001
v -0.008078 -0.020442 -0.000000
v -0.009280 -0.017963 -0.000310
v -0.009939 -0.017963 -0.000336
v -0.011258 -0.018622 -0.000350
v -0.011919 -0.018622 -0.000369
v -0.013244 -0.019283 -0.000351
v -0.014566 -0.022482 -0.000019
v -0.019199 -0.021930 0.000060
v -0.017211 -0.022592 0.000095
v -0.015752 -0.022449 -0.000013
v -0.019199 -0.022493 0.000380
v -0.018487 -0.022913 0.000657
v -0.019146 -0.022905 0.001330
v -0.018131 -0.023149 0.002263
v -0.013905 -0.023318 0.001602
v -0.013905 -0.023297 0.006891
v -0.013905 -0.023290 0.007551
v -0.015891 -0.023130 0.000363
v -0.016552 -0.023124 0.000366
v -0.014566 -0.023112 0.000355
v -0.013905 -0.023069 0.000392
v -0.013905 -0.023270 0.000942
v -0.013244 -0.023183 0.008214
v -0.011876 -0.022930 0.002263
v -0.011258 -0.022768 0.001602
v -0.010598 -0.022562 0.002263
v -0.009859 -0.022292 0.002263
v -0.009280 -0.022047 0.002263
v -0.008655 -0.021752 0.003587
v -0.008496 -0.021665 0.004248
v -0.007961 -0.021373 0.003587
v -0.007255 -0.020960 0.004905
v -0.005384 -0.019555 0.000942
v -0.006637 -0.020565 0.001602
v -0.007282 -0.020945 0.000942
v -0.007249 -0.020964 0.002927
v -0.007257 -0.020963 0.001602
v -0.004320 -0.018629 0.001602
v -0.004867 -0.019057 0.000738
v -0.004287 -0.018492 0.000733
v -0.003638 -0.017831 0.000719
v -0.003095 -0.017166 0.000854
v -0.001903 -0.015319 0.001602
v -0.001893 -0.015319 0.004248
v -0.001601 -0.014802 0.004248
v -0.001220 -0.013995 0.001602
v -0.001131 -0.013793 0.004248
v -0.017211 -0.023165 0.000681
v -0.001603 -0.014798 0.001602
v -0.001934 -0.015319 0.000942
v -0.005359 -0.019260 0.000432
v -0.007304 -0.020623 0.000344
v -0.008603 -0.021309 0.000326
v -0.009507 -0.021183 0.000018
v -0.011919 -0.019283 -0.000314
v -0.010598 -0.018622 -0.000320
v -0.012580 -0.019283 -0.000333
v -0.013804 -0.022462 0.000002
v -0.013244 -0.023198 0.001602
v -0.011919 -0.022521 0.000336
v -0.011258 -0.022437 0.000396
v -0.013020 -0.022973 0.000535
v -0.013244 -0.023138 0.000942
v -0.012580 -0.023069 0.001602
v -0.012580 -0.023069 0.002263
v -0.011894 -0.022928 0.001602
v -0.011258 -0.022686 0.000942
v -0.010598 -0.022555 0.001602
v -0.009871 -0.022287 0.001602
v -0.009280 -0.022043 0.001602
v -0.008484 -0.021668 0.001602
v -0.007961 -0.021382 0.001602
v -0.005793 -0.019715 0.000516
v -0.007961 -0.021341 0.000942
v -0.007745 -0.021060 0.000469
v -0.009048 -0.021707 0.000477
v -0.009986 -0.021956 0.000371
v -0.010598 -0.021930 0.000183
v -0.011258 -0.021930 0.000064
v -0.010507 -0.022392 0.000746
v -0.012191 -0.022900 0.000879
v -0.009970 -0.022251 0.000942
v -0.009280 -0.021976 0.000942
v -0.008533 -0.021640 0.000942
f 1 2 3
f 1 3 4
f 1 4 18
f 1 18 44
f 1 44 60
f 1 60 59
f 1 59 32
f 1 32 28
f 1 28 5
f 1 5 6
f 1 6 7
f 1 7 2
f 2 8 9
f 2 9 10
f 2 10 11
f 2 11 12
f 2 12 3
f 2 7 8
f 3 12 13
f 3 13 14
f 3 14 15
f 3 15 16
f 3 16 17
f 3 17 4
f 4 17 19
f 4 19 20
f 4 20 21
f 4 21 22
f 4 22 23
f 4 23 24
f 4 24 25
f 4 25 26
f 4 26 27
f 4 27 18
f 5 28 6
f 6 29 46
f 6 46 45
f 6 45 27
f 6 27 58
f 6 58 119
f 6 119 116
f 6 116 61
f 6 61 30
f 6 30 31
f 6 31 7
f 6 28 32
f 6 32 29
f 7 31 30
f 7 30 33
f 7 33 34
f 7 34 8
f 8 35 36
f 8 36 9
f 8 34 35
f 9 13 12
f 9 12 11
f 9 11 10
f 9 36 37
f 9 37 13
f 13 37 38
f 13 38 14
f 14 38 15
f 15 38 39
f 15 39 16
f 16 39 40
f 16 40 41
f 16 41 42
f 16 42 17
f 17 42 43
f 17 43 19
f 18 27 45
f 18 45 46
f 18 46 44
f 19 43 20
f 20 47 48
f 20 48 21
f 20 43 47
f 21 48 49
f 21 49 50
f 21 50 51
f 21 51 22
f 22 52 53
f 22 53 23
f 22 51 52
f 23 53 54
f 23 54 55
f 23 55 56
f 23 56 24
f 24 56 25
f 25 57 58
f 25 58 27
f 25 27 26
f 25 56 57
f 29 32 59
f 29 59 60
f 29 60 44
f 29 44 46
f 30 61 62
f 30 62 63
f 30 63 33
f 33 63 34
f 34 64 65
f 34 65 66
f 34 66 67
f 34 67 68
f 34 68 69
f 34 69 70
f 34 70 71
f 34 71 72
f 34 72 73
f 34 73 74
f 34 74 75
f 34 75 76
f 34 76 77
f 34 77 78
f 34 78 79
f 34 79 80
f 34 80 81
f 34 81 82
f 34 82 83
f 34 83 84
f 34 84 85
f 34 85 86
f 34 86 87
f 34 87 88
f 34 88 89
f 34 89 90
f 34 90 35
f 34 63 91
f 34 91 92
f 34 92 93
f 34 93 64
f 35 90 36
f 36 90 94
f 36 94 37
f 37 94 95
f 37 95 38
f 38 95 39
f 39 95 96
f 39 96 97
f 39 97 40
f 40 97 98
f 40 98 99
f 40 99 100
f 40 100 101
f 40 101 41
f 41 101 43
f 41 43 42
f 43 101 100
f 43 100 102
f 43 102 47
f 47 103 104
f 47 104 50
f 47 50 49
f 47 49 105
f 47 105 48
f 47 102 106
f 47 106 103
f 48 105 49
f 50 104 107
f 50 107 51
f 51 107 108
f 51 108 109
f 51 109 110
f 51 110 52
f 52 110 111
f 52 111 112
f 52 112 53
f 53 112 54
f 54 112 113
f 54 113 55
f 55 113 56
f 56 113 114
f 56 114 115
f 56 115 57
f 57 116 117
f 57 117 58
f 57 115 118
f 57 118 116
f 58 117 119
f 61 116 120
f 61 120 121
f 61 121 122
f 61 122 123
f 61 123 62
f 62 123 63
f 63 124 125
f 63 125 126
f 63 126 91
f 63 123 124
f 64 127 128
f 64 128 65
f 64 93 129
f 64 129 130
f 64 130 131
f 64 131 127
f 65 128 132
f 65 132 66
f 66 132 133
f 66 133 67
f 67 133 68
f 68 134 69
f 68 133 134
f 69 134 135
f 69 135 70
f 70 136 71
f 70 135 137
f 70 137 136
f 71 136 138
f 71 138 139
f 71 139 72
f 72 139 140
f 72 140 141
f 72 141 73
f 73 141 142
f 73 142 74
f 74 142 143
f 74 143 75
f 75 144 145
f 75 145 76
f 75 143 144
f 76 145 77
f 77 146 147
f 77 147 78
f 77 145 148
f 77 148 146
f 78 147 149
f 78 149 79
f 79 149 150
f 79 150 80
f 80 151 81
f 80 150 151
f 81 151 152
f 81 152 82
f 82 153 83
f 82 152 153
f 83 153 154
f 83 154 84
f 84 154 155
f 84 155 85
f 85 155 156
f 85 156 86
f 86 156 157
f 86 157 87
f 87 157 158
f 87 158 88
f 88 158 159
f 88 159 89
f 89 159 160
f 89 160 161
f 89 161 94
f 89 94 90
f 91 126 92
f 92 162 93
f 92 126 163
f 92 163 162
f 93 162 129
f 94 161 160
f 94 160 164
f 94 164 95
f 95 164 96
f 96 164 165
f 96 165 97
f 97 165 166
f 97 166 98
f 98 166 99
f 99 166 167
f 99 167 168
f 99 168 169
f 99 169 106
f 99 106 102
f 99 102 100
f 103 106 170
f 103 170 171
f 103 171 172
f 103 172 104
f 104 172 107
f 106 169 170
f 107 172 173
f 107 173 108
f 108 173 174
f 108 174 175
f 108 175 109
f 109 175 111
f 109 111 110
f 111 175 176
f 111 176 112
f 112 176 177
f 112 177 113
f 113 177 114
f 114 177 118
f 114 118 115
f 116 119 117
f 116 118 178
f 116 178 120
f 118 179 178
f 118 177 180
f 118 180 179
f 120 181 121
f 120 178 179
f 120 179 181
f 121 181 182
f 121 182 183
f 121 183 122
f 122 183 123
f 123 184 124
f 123 183 163
f 123 163 184
f 124 184 125
f 125 184 126
f 126 184 163
f 127 131 185
f 127 185 186
f 127 186 128
f 128 186 187
f 128 187 132
f 129 188 130
f 129 162 189
f 129 189 188
f 130 190 131
f 130 188 190
f 131 190 191
f 131 191 192
f 131 192 185
f 132 187 133
f 133 187 186
f 133 186 193
f 133 193 135
f 133 135 134
f 135 194 137
f 135 193 194
f 136 195 196
f 136 196 138
f 136 137 194
f 136 194 195
f 138 196 139
f 139 197 140
f 139 196 197
f 140 197 141
f 141 198 199
f 141 199 142
f 141 197 198
f 142 199 200
f 142 200 143
f 143 200 144
f 144 200 201
f 144 201 202
f 144 202 145
f 145 202 148
f 146 203 147
f 146 148 204
f 146 204 205
f 146 205 203
f 147 203 149
f 148 202 206
f 148 206 207
f 148 207 204
f 149 208 151
f 149 151 150
f 149 203 209
f 149 209 210
f 149 210 208
f 151 208 152
f 152 211 212
f 152 212 153
f 152 208 211
f 153 212 213
f 153 213 154
f 154 213 214
f 154 214 155
f 155 215 156
f 155 214 215
f 156 215 157
f 157 216 217
f 157 217 158
f 157 215 216
f 158 217 159
f 159 164 160
f 159 217 165
f 159 165 164
f 162 163 183
f 162 183 182
f 162 182 218
f 162 218 189
f 165 217 216
f 165 216 166
f 166 216 219
f 166 219 167
f 167 219 220
f 167 220 168
f 168 220 212
f 168 212 169
f 169 212 211
f 169 211 170
f 170 211 221
f 170 221 222
f 170 222 171
f 171 222 223
f 171 223 224
f 171 224 225
f 171 225 226
f 171 226 172
f 172 226 174
f 172 174 173
f 174 226 225
f 174 225 227
f 174 227 175
f 175 227 176
f 176 227 177
f 177 227 225
f 177 225 228
f 177 228 190
f 177 190 188
f 177 188 189
f 177 189 180
f 179 180 189
f 179 189 181
f 181 189 182
f 182 189 218
f 185 192 229
f 185 229 193
f 185 193 186
f 190 228 191
f 191 228 230
f 191 230 231
f 191 231 232
f 191 232 192
f 192 232 233
f 192 233 234
f 192 234 229
f 193 229 235
f 193 235 194
f 194 236 195
f 194 235 234
f 194 234 236
f 195 236 237
f 195 237 238
f 195 238 196
f 196 238 197
f 197 238 239
f 197 239 240
f 197 240 198
f 198 240 241
f 198 241 199
f 199 241 200
f 200 241 242
f 200 242 201
f 201 242 202
f 202 242 206
f 203 205 243
f 203 243 209
f 204 207 205
f 205 207 242
f 205 242 244
f 205 244 245
f 205 245 243
f 206 242 207
f 208 210 211
f 209 243 221
f 209 221 210
f 210 221 211
f 212 220 213
f 213 220 219
f 213 219 214
f 214 219 215
f 215 219 216
f 221 243 222
f 222 245 223
f 222 243 245
f 223 245 246
f 223 246 247
f 223 247 248
f 223 248 224
f 224 248 249
f 224 249 228
f 224 228 225
f 228 249 230
f 229 234 235
f 230 249 231
f 231 249 248
f 231 248 247
f 231 247 246
f 231 246 250
f 231 250 237
f 231 237 232
f 232 251 233
f 232 237 251
f 233 251 236
f 233 236 234
f 236 251 237
f 237 250 252
f 237 252 238
f 238 252 239
f 239 252 253
f 239 253 240
f 240 253 254
f 240 254 241
f 241 254 244
f 241 244 242
f 244 254 245
f 245 254 246
f 246 253 250
f 246 254 253
f 250 253 252
