v 0.000491 0.069230 0.000244
v 0.078160 0.072586 0.000885
v 0.076494 0.068887 0.000419
v -0.027621 0.068887 0.001631
v -0.027621 0.071223 0.001678
v -0.025967 0.073578 0.001946
v -0.000560 0.071969 0.000885
v 0.078160 0.068887 0.000466
v 0.076494 0.073744 0.001445
v 0.078160 0.073801 0.001654
v 0.081019 0.071605 0.000920
v -0.029479 0.068887 0.002214
v -0.029787 0.071223 0.002226
v -0.027954 0.073502 0.002027
v -0.027621 0.074867 0.003520
v -0.025967 0.074956 0.003520
v -0.001175 0.075948 0.003799
v 0.079814 0.069230 0.000617
v 0.081493 0.069230 0.001130
v 0.082813 0.069310 0.002191
v 0.085839 0.069060 0.029315
v 0.084082 0.068887 0.105047
v 0.076494 0.074998 0.003520
v 0.078160 0.074966 0.003520
v -0.001175 0.077011 0.005140
v 0.079801 0.074367 0.002960
v 0.081378 0.073360 0.002389
v 0.083159 0.071784 0.002412
v -0.044259 0.068887 0.043221
v -0.040209 0.074884 0.017624
v -0.029928 0.073135 0.002715
v -0.001175 0.077701 0.006830
v -0.037542 0.075997 0.016750
v -0.035902 0.076243 0.016750
v 0.083647 0.072629 0.003729
v 0.085736 0.073608 0.029432
v 0.086300 0.069230 0.045786
v 0.086338 0.069230 0.049831
v 0.086249 0.069231 0.076256
v 0.085839 0.069229 0.103287
v 0.079224 0.076571 0.113790
v 0.076506 0.076782 0.115317
v 0.081467 0.068887 0.106131
v 0.073725 0.078786 0.013229
v 0.079673 0.075222 0.005198
v 0.082634 0.073954 0.003974
v -0.044400 0.068887 0.044877
v -0.044272 0.071223 0.043221
v -0.044477 0.072877 0.045693
v -0.044170 0.075229 0.045693
v -0.042516 0.076607 0.044877
v -0.009431 0.078000 0.016750
v 0.002606 0.078676 0.015887
v 0.012054 0.079085 0.016750
v 0.013720 0.079135 0.016750
v 0.019488 0.079292 0.016750
v 0.021950 0.079123 0.015106
v 0.023590 0.079139 0.015106
v 0.035153 0.079227 0.015106
v 0.036819 0.079237 0.015106
v 0.038460 0.079241 0.015106
v -0.040068 0.077018 0.045611
v -0.037542 0.077761 0.054785
v -0.037542 0.077834 0.056451
v -0.029274 0.077923 0.041566
v -0.012738 0.079195 0.038256
v -0.011084 0.079332 0.038256
v 0.085928 0.073488 0.072945
v 0.086056 0.072877 0.048175
v 0.086236 0.071223 0.048175
v 0.086210 0.071223 0.046520
v 0.086159 0.071223 0.043221
v 0.084531 0.074936 0.030749
v 0.084916 0.074688 0.033290
v 0.085159 0.074907 0.074612
v 0.086031 0.072879 0.074612
v 0.085621 0.071930 0.102949
v 0.078737 0.078968 0.113288
v 0.077327 0.078169 0.114932
v 0.040127 0.076182 0.117426
v 0.045088 0.074954 0.116902
v 0.040486 0.073855 0.116867
v 0.038486 0.073557 0.116867
v 0.043434 0.072416 0.115620
v 0.079826 0.068887 0.106411
v 0.071558 0.078725 0.115177
v 0.048395 0.077140 0.116867
v 0.038486 0.076182 0.117520
v 0.040127 0.079237 0.015106
v 0.041780 0.079227 0.015106
v 0.071546 0.078979 0.015106
v 0.073904 0.078876 0.015106
v 0.075660 0.078661 0.016633
v 0.084082 0.075411 0.033290
v -0.044426 0.068887 0.047499
v -0.044503 0.072877 0.048175
v -0.044477 0.074532 0.049831
v -0.043901 0.076182 0.074612
v -0.043465 0.077116 0.074612
v -0.043003 0.077246 0.076256
v -0.037542 0.077894 0.058083
v -0.009431 0.079441 0.038256
v -0.002675 0.079780 0.037288
v 0.002786 0.079954 0.036939
v 0.021950 0.079320 0.016750
v 0.023590 0.079320 0.016750
v 0.015386 0.080128 0.039911
v -0.035902 0.078449 0.077911
v -0.035902 0.078481 0.079566
v 0.085300 0.073878 0.101072
v 0.084249 0.075536 0.059739
v 0.084390 0.075540 0.076256
v 0.084569 0.075021 0.102996
v 0.078788 0.079285 0.110992
v 0.076506 0.079846 0.112647
v 0.074853 0.079243 0.114302
v 0.038486 0.074529 0.117217
v 0.002145 0.072714 0.118499
v 0.041780 0.072376 0.115736
v 0.030205 0.070124 0.113836
v 0.028885 0.068887 0.112193
v 0.038486 0.077508 0.117170
v 0.056663 0.078853 0.115317
v 0.055022 0.078853 0.115351
v -0.025967 0.077491 0.118977
v 0.002145 0.076720 0.118848
v 0.000478 0.074529 0.119151
v 0.002145 0.074529 0.119082
v 0.071546 0.079647 0.041566
v 0.073199 0.079590 0.041566
v 0.068251 0.079650 0.039911
v 0.069892 0.079672 0.041566
v 0.074853 0.079476 0.039911
v 0.076506 0.080066 0.082865
v 0.076506 0.080103 0.084520
v 0.078160 0.079646 0.107682
v 0.078788 0.079328 0.109348
v -0.044426 0.068887 0.050798
v -0.044541 0.068890 0.070124
v -0.044618 0.071223 0.072945
v -0.044465 0.074529 0.068819
v -0.043644 0.076002 0.089486
v -0.043619 0.076625 0.081221
v -0.043465 0.077121 0.077911
v -0.042349 0.077392 0.089486
v -0.041567 0.077592 0.091141
v -0.035902 0.078520 0.082865
v -0.035902 0.078508 0.081221
v -0.037542 0.077926 0.059739
v -0.006124 0.079632 0.038256
v -0.004457 0.079726 0.038256
v 0.000247 0.079891 0.037440
v 0.015861 0.080395 0.058818
v 0.069892 0.079866 0.051474
v 0.069892 0.079842 0.049831
v 0.069892 0.079810 0.048175
v 0.069892 0.079777 0.046520
v 0.068251 0.079692 0.041566
v 0.076506 0.079989 0.109348
v 0.069892 0.079846 0.110992
v -0.034235 0.078547 0.114302
v -0.032582 0.078401 0.115958
v -0.030928 0.078418 0.115958
v -0.030928 0.078117 0.117613
v -0.025967 0.078146 0.117613
v 0.015374 0.078587 0.116401
v 0.017014 0.078580 0.116412
v -0.001163 0.073064 0.118767
v 0.000478 0.072670 0.118534
v -0.002829 0.072219 0.118312
v 0.000478 0.071354 0.117461
v 0.002145 0.070974 0.116913
v 0.026590 0.068887 0.112321
v -0.007777 0.078098 0.117613
v -0.022673 0.078142 0.117613
v -0.024313 0.078146 0.117613
v -0.027621 0.077821 0.118301
v -0.029274 0.077812 0.118301
v -0.032582 0.077764 0.118289
v -0.034235 0.076804 0.119198
v -0.030928 0.076824 0.119326
v -0.012738 0.074529 0.119256
v 0.071546 0.079684 0.043221
v 0.071546 0.079713 0.044877
v 0.074853 0.079839 0.059739
v 0.074853 0.079507 0.041566
v 0.069892 0.079709 0.043221
v 0.074853 0.079866 0.061382
v 0.071546 0.079893 0.056451
v 0.069892 0.079908 0.054785
v 0.074853 0.080100 0.081221
v 0.074853 0.080115 0.082865
v 0.076506 0.080110 0.086175
v 0.076506 0.080026 0.107635
v 0.076506 0.080103 0.099417
v -0.044375 0.068887 0.058083
v -0.044516 0.068890 0.072269
v -0.044426 0.072879 0.077911
v -0.044503 0.072879 0.074612
v -0.044170 0.068890 0.086175
v -0.044080 0.068890 0.089486
v -0.044170 0.071223 0.087842
v -0.044131 0.074529 0.084520
v -0.043862 0.072879 0.091875
v -0.043567 0.075541 0.091444
v -0.043183 0.076828 0.089486
v -0.043477 0.076525 0.087842
v -0.043324 0.076984 0.086175
v -0.043362 0.077022 0.084066
v -0.043439 0.077097 0.079566
v -0.035902 0.077899 0.115958
v -0.035902 0.078107 0.114302
v -0.035902 0.078189 0.112647
v -0.034235 0.078568 0.112647
v -0.034235 0.078578 0.109348
v -0.034235 0.078580 0.107682
v 0.069892 0.079889 0.053141
v -0.026800 0.078663 0.113428
v 0.071546 0.079869 0.054785
v 0.071546 0.079768 0.048175
v -0.034235 0.078371 0.115958
v -0.034235 0.078029 0.117613
v -0.002829 0.073046 0.118755
v -0.004470 0.072621 0.118534
v -0.006136 0.072233 0.118289
v -0.001163 0.071413 0.117485
v 0.000478 0.070393 0.116028
v 0.023603 0.068887 0.112379
v -0.036158 0.077009 0.118032
v -0.036786 0.075279 0.117065
v -0.034568 0.074556 0.118242
v -0.032582 0.075481 0.119326
v -0.014392 0.074529 0.119245
v 0.073199 0.079869 0.058083
v -0.044311 0.068887 0.063049
v -0.044016 0.068890 0.091141
v -0.044054 0.071223 0.091141
v -0.043619 0.068890 0.093146
v -0.012738 0.073239 0.118755
v -0.004470 0.071543 0.117496
v -0.002829 0.071477 0.117496
v -0.030928 0.074742 0.119082
v -0.007777 0.072286 0.118242
v -0.011084 0.072042 0.117706
v -0.009431 0.071676 0.117356
v -0.007777 0.071635 0.117415
v -0.012738 0.071792 0.117182
v -0.001163 0.070438 0.115876
v -0.013840 0.068887 0.108719
v 0.021142 0.068887 0.112332
v -0.016058 0.071605 0.115958
v -0.014392 0.071655 0.116494
v -0.015456 0.068887 0.107180
v -0.012738 0.071305 0.115958
v -0.002829 0.070346 0.115282
f 1 2 3
f 1 3 4
f 1 4 5
f 1 5 6
f 1 6 7
f 1 7 2
f 2 8 3
f 2 7 9
f 2 9 10
f 2 10 11
f 2 11 8
f 3 8 22
f 3 22 43
f 3 43 85
f 3 85 121
f 3 121 173
f 3 173 228
f 3 228 250
f 3 250 249
f 3 249 253
f 3 253 235
f 3 235 196
f 3 196 138
f 3 138 95
f 3 95 47
f 3 47 29
f 3 29 12
f 3 12 4
f 4 12 13
f 4 13 5
f 5 13 14
f 5 14 6
f 6 14 15
f 6 15 16
f 6 16 17
f 6 17 9
f 6 9 7
f 8 11 18
f 8 18 19
f 8 19 20
f 8 20 21
f 8 21 22
f 9 23 24
f 9 24 10
f 9 17 25
f 9 25 23
f 10 24 26
f 10 26 27
f 10 27 11
f 11 19 18
f 11 27 28
f 11 28 19
f 12 29 30
f 12 30 13
f 13 31 14
f 13 30 31
f 14 31 15
f 15 32 25
f 15 25 16
f 15 31 33
f 15 33 34
f 15 34 32
f 16 25 17
f 19 28 20
f 20 28 35
f 20 35 21
f 21 35 36
f 21 36 37
f 21 37 38
f 21 38 39
f 21 39 22
f 22 39 40
f 22 40 41
f 22 41 42
f 22 42 43
f 23 44 24
f 23 25 32
f 23 32 44
f 24 45 26
f 24 44 45
f 26 45 46
f 26 46 27
f 27 46 28
f 28 46 35
f 29 47 48
f 29 48 30
f 30 48 49
f 30 49 50
f 30 50 51
f 30 51 33
f 30 33 31
f 32 34 52
f 32 52 53
f 32 53 54
f 32 54 55
f 32 55 56
f 32 56 57
f 32 57 58
f 32 58 59
f 32 59 60
f 32 60 61
f 32 61 44
f 33 51 62
f 33 62 34
f 34 62 63
f 34 63 64
f 34 64 65
f 34 65 66
f 34 66 67
f 34 67 52
f 35 46 36
f 36 68 69
f 36 69 70
f 36 70 71
f 36 71 72
f 36 72 37
f 36 46 73
f 36 73 74
f 36 74 75
f 36 75 68
f 37 72 71
f 37 71 70
f 37 70 38
f 38 70 39
f 39 70 76
f 39 76 40
f 40 76 77
f 40 77 41
f 41 78 79
f 41 79 42
f 41 77 78
f 42 80 81
f 42 81 82
f 42 82 83
f 42 83 84
f 42 84 85
f 42 85 43
f 42 79 86
f 42 86 87
f 42 87 88
f 42 88 80
f 44 61 89
f 44 89 90
f 44 90 91
f 44 91 92
f 44 92 93
f 44 93 46
f 44 46 45
f 46 93 94
f 46 94 73
f 47 95 96
f 47 96 49
f 47 49 48
f 49 96 97
f 49 97 50
f 50 97 98
f 50 98 99
f 50 99 51
f 51 100 101
f 51 101 64
f 51 64 62
f 51 99 100
f 52 67 102
f 52 102 53
f 53 102 103
f 53 103 54
f 54 104 55
f 54 103 104
f 55 104 56
f 56 104 105
f 56 105 57
f 57 105 58
f 58 105 59
f 59 105 60
f 60 105 61
f 61 105 106
f 61 106 107
f 61 107 89
f 62 64 63
f 64 101 67
f 64 67 66
f 64 66 65
f 67 101 108
f 67 108 109
f 67 109 102
f 68 75 110
f 68 110 76
f 68 76 69
f 69 76 70
f 73 94 74
f 74 94 75
f 75 94 111
f 75 111 112
f 75 112 113
f 75 113 110
f 76 110 77
f 77 110 113
f 77 113 78
f 78 113 114
f 78 114 115
f 78 115 116
f 78 116 79
f 79 116 86
f 80 88 117
f 80 117 81
f 81 117 82
f 82 117 83
f 83 117 118
f 83 118 119
f 83 119 84
f 84 119 120
f 84 120 85
f 85 120 121
f 86 122 87
f 86 116 123
f 86 123 124
f 86 124 125
f 86 125 122
f 87 122 126
f 87 126 88
f 88 126 127
f 88 127 128
f 88 128 117
f 89 107 90
f 90 107 91
f 91 129 130
f 91 130 92
f 91 107 131
f 91 131 132
f 91 132 129
f 92 133 93
f 92 130 133
f 93 133 134
f 93 134 94
f 94 134 135
f 94 135 136
f 94 136 137
f 94 137 111
f 95 138 139
f 95 139 140
f 95 140 96
f 96 140 97
f 97 140 141
f 97 141 98
f 98 142 143
f 98 143 144
f 98 144 99
f 98 141 142
f 99 144 100
f 100 145 146
f 100 146 147
f 100 147 148
f 100 148 149
f 100 149 101
f 100 144 145
f 101 149 109
f 101 109 108
f 102 150 103
f 102 109 148
f 102 148 150
f 103 150 151
f 103 151 152
f 103 152 104
f 104 153 107
f 104 107 105
f 104 152 153
f 105 107 106
f 107 153 154
f 107 154 155
f 107 155 156
f 107 156 157
f 107 157 158
f 107 158 131
f 109 149 148
f 111 137 112
f 112 137 113
f 113 137 114
f 114 137 136
f 114 136 115
f 115 136 159
f 115 159 160
f 115 160 161
f 115 161 162
f 115 162 163
f 115 163 164
f 115 164 165
f 115 165 166
f 115 166 167
f 115 167 116
f 116 167 124
f 116 124 123
f 117 128 118
f 118 128 168
f 118 168 169
f 118 169 170
f 118 170 171
f 118 171 119
f 119 171 172
f 119 172 120
f 120 172 121
f 121 172 173
f 122 125 126
f 124 167 125
f 125 174 175
f 125 175 176
f 125 176 177
f 125 177 178
f 125 178 179
f 125 179 180
f 125 180 181
f 125 181 126
f 125 167 174
f 126 181 127
f 127 182 168
f 127 168 128
f 127 181 182
f 129 183 130
f 129 132 187
f 129 187 183
f 130 183 184
f 130 184 185
f 130 185 186
f 130 186 133
f 131 158 132
f 132 158 187
f 133 186 135
f 133 135 134
f 135 186 185
f 135 185 188
f 135 188 189
f 135 189 190
f 135 190 191
f 135 191 192
f 135 192 193
f 135 193 136
f 136 194 159
f 136 193 195
f 136 195 194
f 138 196 139
f 139 197 140
f 139 196 197
f 140 198 199
f 140 199 141
f 140 197 200
f 140 200 201
f 140 201 202
f 140 202 198
f 141 199 203
f 141 203 142
f 142 203 204
f 142 204 205
f 142 205 206
f 142 206 207
f 142 207 143
f 143 207 208
f 143 208 209
f 143 209 210
f 143 210 144
f 144 210 145
f 145 210 209
f 145 209 208
f 145 208 206
f 145 206 211
f 145 211 212
f 145 212 146
f 146 212 213
f 146 213 161
f 146 161 214
f 146 214 147
f 147 214 215
f 147 215 216
f 147 216 151
f 147 151 148
f 148 151 150
f 151 216 215
f 151 215 152
f 152 215 153
f 153 159 194
f 153 194 195
f 153 195 193
f 153 193 192
f 153 192 190
f 153 190 217
f 153 217 154
f 153 215 214
f 153 214 161
f 153 161 218
f 153 218 159
f 154 217 189
f 154 189 219
f 154 219 155
f 155 219 220
f 155 220 184
f 155 184 183
f 155 183 156
f 156 183 157
f 157 183 187
f 157 187 158
f 159 218 161
f 159 161 160
f 161 213 212
f 161 212 221
f 161 221 162
f 162 164 163
f 162 221 164
f 164 221 222
f 164 222 179
f 164 179 178
f 164 178 165
f 165 178 177
f 165 177 176
f 165 176 166
f 166 176 167
f 167 176 175
f 167 175 174
f 168 182 223
f 168 223 224
f 168 224 170
f 168 170 169
f 170 224 225
f 170 225 171
f 171 225 226
f 171 226 227
f 171 227 172
f 172 227 173
f 173 227 228
f 179 222 180
f 180 229 230
f 180 230 231
f 180 231 232
f 180 232 181
f 180 222 229
f 181 232 182
f 182 232 233
f 182 233 223
f 184 220 185
f 185 220 188
f 188 220 234
f 188 234 189
f 189 234 219
f 189 217 190
f 190 192 191
f 196 235 197
f 197 235 200
f 198 202 203
f 198 203 199
f 200 235 201
f 201 236 237
f 201 237 202
f 201 235 236
f 202 237 203
f 203 237 204
f 204 238 230
f 204 230 205
f 204 237 238
f 205 230 229
f 205 229 206
f 206 229 211
f 206 208 207
f 211 221 212
f 211 229 222
f 211 222 221
f 219 234 220
f 223 233 239
f 223 239 224
f 224 239 225
f 225 240 241
f 225 241 226
f 225 239 242
f 225 242 243
f 225 243 244
f 225 244 245
f 225 245 246
f 225 246 240
f 226 241 227
f 227 241 240
f 227 240 246
f 227 246 245
f 227 245 247
f 227 247 248
f 227 248 249
f 227 249 250
f 227 250 228
f 230 238 231
f 231 238 249
f 231 249 251
f 231 251 252
f 231 252 247
f 231 247 242
f 231 242 232
f 232 242 233
f 233 242 239
f 235 238 236
f 235 253 238
f 236 238 237
f 238 253 249
f 242 247 244
f 242 244 243
f 244 247 245
f 247 254 248
f 247 252 254
f 248 255 249
f 248 254 255
f 249 255 254
f 249 254 251
f 251 254 252
