v -0.040888 -0.000888 0.002366
v -0.039234 -0.000888 0.002440
v -0.042575 -0.000888 0.002387
v -0.044189 0.024916 0.003562
v -0.037582 -0.000888 0.002524
v -0.044144 -0.000888 0.002546
v -0.044850 -0.000888 0.002662
v -0.045732 0.024916 0.003869
v -0.045447 0.026569 0.004059
v -0.044189 0.026569 0.003890
v -0.042603 0.026548 0.004165
v -0.041443 0.025981 0.004292
v -0.033982 0.024916 0.005584
v -0.033982 0.021610 0.005097
v -0.033982 0.000027 0.002768
v -0.033982 -0.000888 0.002757
v -0.044987 -0.000745 0.002704
v -0.045153 -0.000888 0.002810
v -0.046842 0.010040 0.004186
v -0.046560 0.024916 0.004557
v -0.046273 0.026569 0.004769
v -0.045119 0.027463 0.004292
v -0.044189 0.027511 0.004271
v -0.043190 0.027484 0.004313
v -0.033982 0.026132 0.005838
v -0.033982 0.025899 0.005785
v -0.032093 0.034649 0.020151
v -0.033982 -0.000888 0.090096
v -0.045839 -0.000888 0.003392
v -0.046178 -0.000888 0.003710
v -0.046725 -0.000888 0.004261
v -0.047284 0.010040 0.005171
v -0.046892 0.024916 0.005383
v -0.046826 0.026569 0.005605
v -0.046747 0.027525 0.005859
v -0.045212 0.055740 0.027286
v -0.044679 0.055774 0.027254
v -0.044187 0.055801 0.027233
v -0.033982 0.026958 0.006251
v -0.032093 0.055910 0.028747
v -0.031912 0.056655 0.029605
v -0.032093 0.035734 0.020532
v -0.032093 0.034840 0.020193
v -0.032093 0.034649 0.071030
v -0.032093 0.034655 0.080865
v -0.032097 0.034649 0.108231
v -0.033982 0.004159 0.094045
v -0.045091 0.005860 0.095326
v -0.045841 -0.000143 0.089778
v -0.045841 -0.000888 0.089069
v -0.046962 -0.000888 0.005118
v -0.047171 0.003429 0.005171
v -0.047756 0.008387 0.006833
v -0.047246 0.023263 0.006833
v -0.047159 0.024916 0.006833
v -0.047063 0.026569 0.006833
v -0.048514 0.051341 0.028334
v -0.048397 0.050767 0.027413
v -0.048279 0.053759 0.029255
v -0.043758 0.068887 0.042044
v -0.042534 0.068887 0.041557
v -0.041855 0.068887 0.041409
v -0.040886 0.068887 0.041218
v -0.039232 0.068887 0.040953
v -0.031912 0.068887 0.040223
v -0.031912 0.057563 0.030346
v -0.031912 0.056655 0.094161
v -0.032097 0.034737 0.108273
v -0.033982 0.009077 0.097305
v -0.033982 0.008838 0.097178
v -0.033982 0.008155 0.096766
v -0.033982 0.006857 0.095972
v -0.033982 0.005785 0.095252
v -0.033982 0.005355 0.094955
v -0.033982 0.005157 0.094807
v -0.042540 0.007766 0.096744
v -0.042540 0.008592 0.097305
v -0.043865 0.008715 0.097189
v -0.048401 0.010785 0.096998
v -0.047981 0.001127 0.090191
v -0.048279 -0.000690 0.088646
v -0.048128 -0.000888 0.088540
v -0.047197 -0.000888 0.088879
v -0.047089 -0.000888 0.088910
v -0.045841 0.000683 0.090530
v -0.050200 0.000758 0.025031
v -0.050572 0.001769 0.025031
v -0.050707 0.003429 0.025031
v -0.047539 0.003429 0.006833
v -0.047708 0.006728 0.006833
v -0.052236 -0.000888 0.053128
v -0.049414 0.006728 0.016552
v -0.050892 0.006728 0.025031
v -0.049445 0.008182 0.016552
v -0.049481 0.008380 0.016753
v -0.050444 0.024916 0.025031
v -0.048671 0.049715 0.028324
v -0.048793 0.051368 0.029986
v -0.048538 0.053130 0.029869
v -0.048420 0.052659 0.028895
v -0.048409 0.054100 0.030356
v -0.044281 0.068887 0.043219
v -0.044070 0.068887 0.042732
v -0.031912 0.068887 0.094892
v -0.032097 0.038152 0.109332
v -0.032097 0.036411 0.108887
v -0.032097 0.035557 0.108591
v -0.042534 0.040072 0.110517
v -0.033982 0.010040 0.097729
v -0.044183 0.040119 0.110507
v -0.045841 0.040263 0.110454
v -0.046882 0.040420 0.110327
v -0.050074 0.038774 0.108591
v -0.050522 0.019957 0.099126
v -0.050715 0.018263 0.097845
v -0.048641 0.000410 0.089090
v -0.048522 0.002233 0.090594
v -0.048363 -0.000888 0.088381
v -0.050775 0.001769 0.026683
v -0.050946 0.003429 0.026683
v -0.051151 0.006728 0.026683
v -0.049294 -0.000888 0.085184
v -0.051223 0.018304 0.096109
v -0.051455 0.019957 0.096109
v -0.051475 0.021610 0.097761
v -0.051483 0.023263 0.097761
v -0.052243 0.001769 0.053128
v -0.051238 0.006728 0.028334
v -0.050606 0.008380 0.023369
v -0.050687 0.024916 0.026683
v -0.049000 0.051368 0.031637
v -0.048826 0.053021 0.031637
v -0.048508 0.054203 0.031637
v -0.044369 0.068887 0.044182
v -0.032555 0.068887 0.094945
v -0.042534 0.041253 0.110517
v -0.040888 0.041014 0.110380
v -0.032097 0.039805 0.109131
v -0.040888 0.040297 0.110380
v -0.044183 0.041226 0.110507
v -0.045917 0.041499 0.110412
v -0.046906 0.041451 0.110327
v -0.050074 0.039341 0.108591
v -0.050440 0.038193 0.107744
v -0.050586 0.034874 0.106103
v -0.050325 0.036499 0.107204
v -0.050387 0.033187 0.105584
v -0.050651 0.034649 0.105881
v -0.051284 0.019957 0.097761
v -0.049025 -0.000888 0.086984
v -0.048755 -0.000888 0.087704
v -0.050821 0.024916 0.028334
v -0.049179 -0.000888 0.086190
v -0.051328 0.034840 0.104377
v -0.051340 0.036499 0.104377
v -0.051700 0.037449 0.077339
v -0.052232 0.003422 0.053128
v -0.052178 0.006728 0.053128
v -0.051989 0.018298 0.053128
v -0.049372 0.051368 0.034940
v -0.049197 0.051368 0.033299
v -0.048944 0.053021 0.033299
v -0.044420 0.068887 0.044870
v -0.040886 0.068887 0.094130
v -0.046773 0.042366 0.110210
v -0.046514 0.042366 0.110210
v -0.049869 0.040447 0.108442
v -0.050411 0.039860 0.107807
v -0.051149 0.038152 0.106029
v -0.051035 0.036499 0.106029
v -0.051097 0.033187 0.104377
v -0.051302 0.034649 0.104377
v -0.049999 0.048971 0.040551
v -0.050988 0.043111 0.049825
v -0.050667 0.044764 0.046522
v -0.051258 0.038152 0.104377
v -0.051700 0.037490 0.076259
v -0.051163 0.039805 0.104377
v -0.050996 0.041451 0.104377
v -0.049414 0.051368 0.036602
v -0.044570 0.068887 0.070617
v -0.044566 0.068887 0.069643
v -0.044454 0.068887 0.048173
v -0.044442 0.068887 0.046522
v -0.042534 0.068887 0.093875
v -0.043429 0.068887 0.093685
v -0.050265 0.041055 0.107331
v -0.051065 0.039805 0.106029
v -0.049999 0.048971 0.041282
v -0.050745 0.044764 0.048163
v -0.050763 0.044764 0.049825
v -0.050152 0.045857 0.097761
v -0.049961 0.047168 0.094447
v -0.050711 0.043111 0.101074
v -0.050548 0.041547 0.106092
v -0.043750 0.068887 0.092796
v -0.043873 0.068887 0.092118
v -0.044036 0.068887 0.091144
v -0.044542 0.068887 0.072268
v -0.043571 0.068887 0.093325
v -0.050423 0.044764 0.097761
v -0.044094 0.068887 0.089482
v -0.044168 0.068887 0.087153
v -0.044195 0.068887 0.086179
v -0.044239 0.068887 0.084528
f 1 2 5
f 1 5 16
f 1 16 28
f 1 28 50
f 1 50 84
f 1 84 83
f 1 83 82
f 1 82 118
f 1 118 151
f 1 151 150
f 1 150 153
f 1 153 122
f 1 122 91
f 1 91 51
f 1 51 31
f 1 31 30
f 1 30 29
f 1 29 18
f 1 18 7
f 1 7 6
f 1 6 3
f 1 3 4
f 1 4 2
f 2 4 5
f 3 6 4
f 4 6 7
f 4 7 8
f 4 8 9
f 4 9 10
f 4 10 11
f 4 11 12
f 4 12 13
f 4 13 14
f 4 14 15
f 4 15 5
f 5 15 16
f 7 17 8
f 7 18 17
f 8 19 20
f 8 20 9
f 8 17 19
f 9 20 21
f 9 21 22
f 9 22 10
f 10 22 23
f 10 23 24
f 10 24 11
f 11 24 25
f 11 25 26
f 11 26 13
f 11 13 12
f 13 26 27
f 13 27 14
f 14 27 15
f 15 27 16
f 16 27 44
f 16 44 28
f 17 18 19
f 18 29 19
f 19 29 30
f 19 30 31
f 19 31 32
f 19 32 20
f 20 32 33
f 20 33 34
f 20 34 21
f 21 34 35
f 21 35 22
f 22 35 36
f 22 36 37
f 22 37 38
f 22 38 23
f 23 38 24
f 24 39 25
f 24 38 40
f 24 40 39
f 25 39 41
f 25 41 42
f 25 42 43
f 25 43 26
f 26 43 27
f 27 43 41
f 27 41 67
f 27 67 44
f 28 44 45
f 28 45 46
f 28 46 47
f 28 47 48
f 28 48 49
f 28 49 50
f 31 51 52
f 31 52 32
f 32 52 53
f 32 53 33
f 33 53 54
f 33 54 55
f 33 55 56
f 33 56 34
f 34 56 57
f 34 57 58
f 34 58 35
f 35 58 59
f 35 59 36
f 36 59 60
f 36 60 61
f 36 61 62
f 36 62 63
f 36 63 64
f 36 64 37
f 37 64 38
f 38 64 65
f 38 65 40
f 39 40 41
f 40 65 66
f 40 66 41
f 41 43 42
f 41 66 65
f 41 65 104
f 41 104 67
f 44 67 45
f 45 67 46
f 46 68 69
f 46 69 70
f 46 70 71
f 46 71 72
f 46 72 73
f 46 73 74
f 46 74 75
f 46 75 47
f 46 67 68
f 47 75 48
f 48 76 77
f 48 77 78
f 48 78 79
f 48 79 80
f 48 80 81
f 48 81 82
f 48 82 83
f 48 83 84
f 48 84 85
f 48 85 49
f 48 75 74
f 48 74 76
f 49 85 84
f 49 84 50
f 51 86 87
f 51 87 88
f 51 88 89
f 51 89 90
f 51 90 52
f 51 91 86
f 52 90 53
f 53 90 92
f 53 92 93
f 53 93 94
f 53 94 95
f 53 95 96
f 53 96 54
f 54 96 55
f 55 96 56
f 56 96 97
f 56 97 57
f 57 97 98
f 57 98 99
f 57 99 100
f 57 100 58
f 58 100 59
f 59 100 99
f 59 99 101
f 59 101 102
f 59 102 103
f 59 103 60
f 60 103 102
f 60 102 134
f 60 134 163
f 60 163 184
f 60 184 183
f 60 183 182
f 60 182 181
f 60 181 199
f 60 199 205
f 60 205 204
f 60 204 203
f 60 203 202
f 60 202 198
f 60 198 197
f 60 197 196
f 60 196 200
f 60 200 186
f 60 186 185
f 60 185 164
f 60 164 135
f 60 135 104
f 60 104 65
f 60 65 64
f 60 64 63
f 60 63 62
f 60 62 61
f 67 104 105
f 67 105 106
f 67 106 107
f 67 107 68
f 68 107 108
f 68 108 77
f 68 77 109
f 68 109 69
f 69 109 77
f 69 77 70
f 70 77 71
f 71 77 72
f 72 77 73
f 73 77 76
f 73 76 74
f 77 108 110
f 77 110 111
f 77 111 78
f 78 111 112
f 78 112 79
f 79 112 113
f 79 113 114
f 79 114 115
f 79 115 116
f 79 116 117
f 79 117 81
f 79 81 80
f 81 117 116
f 81 116 118
f 81 118 82
f 86 119 87
f 86 91 119
f 87 119 120
f 87 120 88
f 88 120 121
f 88 121 93
f 88 93 89
f 89 92 90
f 89 93 92
f 91 122 123
f 91 123 124
f 91 124 125
f 91 125 126
f 91 126 127
f 91 127 128
f 91 128 121
f 91 121 120
f 91 120 119
f 93 129 95
f 93 95 94
f 93 121 129
f 95 129 96
f 96 129 121
f 96 121 130
f 96 130 98
f 96 98 97
f 98 131 132
f 98 132 99
f 98 130 131
f 99 132 101
f 101 132 133
f 101 133 102
f 102 133 134
f 104 135 136
f 104 136 137
f 104 137 138
f 104 138 105
f 105 138 137
f 105 137 139
f 105 139 108
f 105 108 106
f 106 108 107
f 108 139 137
f 108 137 136
f 108 136 140
f 108 140 110
f 110 140 111
f 111 140 141
f 111 141 142
f 111 142 112
f 112 142 113
f 113 142 143
f 113 143 144
f 113 144 145
f 113 145 146
f 113 146 147
f 113 147 114
f 114 148 149
f 114 149 115
f 114 147 145
f 114 145 148
f 115 149 116
f 116 150 151
f 116 151 118
f 116 149 150
f 121 128 152
f 121 152 130
f 122 153 123
f 123 149 124
f 123 153 149
f 124 149 125
f 125 149 154
f 125 154 155
f 125 155 126
f 126 155 127
f 127 155 156
f 127 156 157
f 127 157 128
f 128 157 158
f 128 158 159
f 128 159 152
f 130 152 160
f 130 160 161
f 130 161 131
f 131 161 132
f 132 161 160
f 132 160 162
f 132 162 133
f 133 162 163
f 133 163 134
f 135 164 165
f 135 165 166
f 135 166 136
f 136 165 140
f 136 166 165
f 140 165 141
f 141 165 142
f 142 165 143
f 143 167 168
f 143 168 144
f 143 165 167
f 144 168 169
f 144 169 170
f 144 170 145
f 145 170 148
f 145 147 146
f 148 170 171
f 148 171 149
f 149 171 172
f 149 172 154
f 149 153 150
f 152 173 160
f 152 159 174
f 152 174 175
f 152 175 173
f 154 172 170
f 154 170 169
f 154 169 155
f 155 169 176
f 155 176 156
f 156 177 157
f 156 176 178
f 156 178 179
f 156 179 177
f 157 177 158
f 158 177 159
f 159 177 174
f 160 173 180
f 160 180 162
f 162 180 181
f 162 181 182
f 162 182 183
f 162 183 184
f 162 184 163
f 164 185 165
f 165 185 186
f 165 186 167
f 167 186 187
f 167 187 168
f 168 187 188
f 168 188 169
f 169 188 176
f 170 172 171
f 173 189 180
f 173 175 174
f 173 174 190
f 173 190 191
f 173 191 189
f 174 177 191
f 174 191 190
f 176 188 178
f 177 179 191
f 178 188 179
f 179 192 193
f 179 193 194
f 179 194 191
f 179 188 195
f 179 195 196
f 179 196 197
f 179 197 198
f 179 198 192
f 180 189 181
f 181 193 199
f 181 189 193
f 186 200 195
f 186 195 187
f 187 195 188
f 189 191 201
f 189 201 193
f 191 194 201
f 192 198 193
f 193 201 194
f 193 198 202
f 193 202 203
f 193 203 204
f 193 204 205
f 193 205 199
f 195 200 196
