v 0.068711 0.019775 0.103230
v 0.066580 0.034650 0.108971
v 0.066580 0.029248 0.109185
v 0.068711 0.010449 0.103230
v 0.068711 0.019775 0.002367
v 0.062509 0.034650 0.109785
v 0.063113 0.032960 0.109785
v 0.064269 0.029248 0.109785
v 0.065967 0.029248 0.109356
v 0.066580 0.034650 0.001350
v 0.066570 0.019775 0.108050
v 0.068711 -0.000888 0.103219
v 0.068711 0.011242 0.002025
v -0.000275 0.034650 0.109785
v -0.006367 0.029248 0.109785
v 0.066580 0.033210 0.001328
v 0.055011 0.023265 0.000804
v 0.055011 0.028222 0.000889
v 0.055945 0.034650 0.001039
v -0.016931 0.019775 0.108050
v -0.033698 -0.000888 0.103219
v 0.068711 -0.000888 0.002475
v 0.068711 0.009586 0.002057
v 0.066570 0.023265 0.001221
v 0.066570 0.023292 0.001221
v 0.066580 0.029902 0.001286
v -0.022450 0.034650 0.109742
v 0.046758 0.013340 0.000536
v 0.053362 0.023265 0.000782
v 0.051704 0.026569 0.000814
v 0.059444 0.003419 0.000975
v 0.053372 0.029874 0.000900
v 0.053372 0.033182 0.000964
v 0.055011 0.033182 0.000986
v 0.055011 0.034650 0.001018
v -0.033969 0.029933 0.105543
v -0.033788 -0.000888 0.102834
v 0.068370 -0.000888 0.002442
v 0.059323 0.002452 0.000986
v -0.022450 0.034650 0.012682
v -0.001190 0.005071 0.000365
v 0.020301 0.026569 0.000632
v 0.022131 0.034650 0.000729
v 0.023789 0.034650 0.000739
v 0.025438 0.034650 0.000750
v 0.043632 0.034650 0.000879
v 0.045099 0.034650 0.000889
v 0.048396 0.031530 0.000868
v 0.050065 0.029874 0.000857
v 0.048396 0.033182 0.000900
v 0.046939 0.034650 0.000911
v 0.053553 0.034650 0.000996
v -0.033979 0.019775 0.101377
v -0.033929 -0.000888 0.101066
v -0.033969 0.029933 0.021197
v 0.056679 -0.000888 0.001543
v 0.027911 -0.000888 0.000911
v 0.026915 -0.000888 0.000889
v -0.021605 0.034650 0.003535
v -0.021032 0.003419 0.000879
v -0.021012 0.011851 0.000889
v -0.016067 0.023265 0.000921
v 0.000479 0.024917 0.000707
v 0.007284 0.034650 0.000814
v 0.021950 0.034650 0.000729
v 0.023608 -0.000888 0.000868
v 0.013697 -0.000888 0.000932
v -0.021032 0.002107 0.000943
v -0.022148 0.002208 0.000954
v -0.033979 0.010032 0.097725
v -0.033979 0.019775 0.005002
v -0.033979 0.009075 0.097296
v -0.033979 0.008832 0.097178
v -0.033979 0.008150 0.096761
v -0.033979 0.006856 0.095957
v -0.033979 0.005941 0.095357
v -0.033979 0.005342 0.094940
v -0.033979 0.005155 0.094801
v -0.033979 0.004153 0.094040
v -0.033979 -0.000888 0.090099
v -0.033969 0.028761 0.011504
v -0.033969 0.028312 0.008483
v -0.033969 0.028594 0.010133
v -0.020862 0.034650 0.002057
v -0.022178 0.003419 0.000943
v -0.021967 0.014429 0.000996
v -0.020962 0.013476 0.000911
v -0.018137 0.025400 0.001018
v -0.016067 0.024917 0.000954
v 0.005444 0.034650 0.000846
v 0.012039 -0.000888 0.000954
v 0.011385 -0.000888 0.000964
v -0.021032 0.001279 0.001114
v -0.030954 -0.000888 0.002303
v -0.032451 -0.000888 0.002496
v -0.033969 0.027776 0.007091
v -0.033969 0.027644 0.006941
v -0.033969 0.026955 0.006266
v -0.033969 0.026131 0.005848
v -0.033969 0.025898 0.005784
v -0.033969 0.024917 0.005581
v -0.033969 0.021609 0.005109
v -0.033979 0.000027 0.002774
v -0.033979 -0.000888 0.002753
v -0.020691 0.034650 0.001971
v -0.019374 0.034650 0.001361
v -0.019374 0.033182 0.001307
v -0.019374 0.029248 0.001179
v -0.018670 0.026002 0.001050
v -0.033979 -0.000627 0.002753
v -0.017685 0.029248 0.001125
v -0.013936 0.029279 0.001050
v -0.017524 0.034650 0.001296
v -0.018379 -0.000888 0.001607
v -0.020037 -0.000888 0.001682
v -0.019183 0.034650 0.001350
v -0.017725 0.033182 0.001253
f 1 2 3
f 1 3 4
f 1 4 12
f 1 12 22
f 1 22 23
f 1 23 13
f 1 13 5
f 1 5 10
f 1 10 2
f 2 6 7
f 2 7 8
f 2 8 9
f 2 9 3
f 2 10 19
f 2 19 35
f 2 35 52
f 2 52 51
f 2 51 47
f 2 47 46
f 2 46 45
f 2 45 44
f 2 44 43
f 2 43 65
f 2 65 64
f 2 64 90
f 2 90 113
f 2 113 116
f 2 116 106
f 2 106 105
f 2 105 84
f 2 84 59
f 2 59 40
f 2 40 27
f 2 27 14
f 2 14 6
f 3 9 11
f 3 11 12
f 3 12 4
f 5 13 10
f 6 14 15
f 6 15 8
f 6 8 7
f 8 15 20
f 8 20 11
f 8 11 9
f 10 16 17
f 10 17 18
f 10 18 19
f 10 13 16
f 11 20 21
f 11 21 12
f 12 21 37
f 12 37 54
f 12 54 80
f 12 80 104
f 12 104 95
f 12 95 94
f 12 94 115
f 12 115 114
f 12 114 92
f 12 92 91
f 12 91 67
f 12 67 66
f 12 66 58
f 12 58 57
f 12 57 56
f 12 56 38
f 12 38 22
f 13 23 24
f 13 24 25
f 13 25 26
f 13 26 16
f 14 27 15
f 15 27 20
f 16 26 17
f 17 28 29
f 17 29 30
f 17 30 18
f 17 26 25
f 17 25 24
f 17 24 31
f 17 31 28
f 18 30 32
f 18 32 33
f 18 33 34
f 18 34 19
f 19 34 35
f 20 27 21
f 21 27 36
f 21 36 37
f 22 38 39
f 22 39 23
f 23 39 24
f 24 39 31
f 27 40 55
f 27 55 36
f 28 41 42
f 28 42 43
f 28 43 44
f 28 44 45
f 28 45 46
f 28 46 47
f 28 47 30
f 28 30 29
f 28 31 39
f 28 39 41
f 30 48 49
f 30 49 32
f 30 47 48
f 32 49 33
f 33 49 50
f 33 50 51
f 33 51 52
f 33 52 34
f 34 52 35
f 36 53 54
f 36 54 37
f 36 55 71
f 36 71 53
f 38 56 39
f 39 56 57
f 39 57 58
f 39 58 41
f 40 59 55
f 41 60 61
f 41 61 62
f 41 62 63
f 41 63 64
f 41 64 65
f 41 65 43
f 41 43 42
f 41 58 66
f 41 66 67
f 41 67 68
f 41 68 69
f 41 69 60
f 47 51 48
f 48 51 50
f 48 50 49
f 53 70 54
f 53 71 103
f 53 103 110
f 53 110 104
f 53 104 80
f 53 80 79
f 53 79 78
f 53 78 77
f 53 77 76
f 53 76 75
f 53 75 74
f 53 74 73
f 53 73 72
f 53 72 70
f 54 70 72
f 54 72 73
f 54 73 74
f 54 74 75
f 54 75 76
f 54 76 77
f 54 77 78
f 54 78 79
f 54 79 80
f 55 59 81
f 55 81 71
f 59 82 83
f 59 83 81
f 59 84 82
f 60 69 85
f 60 85 61
f 61 85 86
f 61 86 87
f 61 87 62
f 62 87 88
f 62 88 89
f 62 89 63
f 63 89 64
f 64 89 90
f 67 91 68
f 68 91 92
f 68 92 93
f 68 93 69
f 69 93 94
f 69 94 95
f 69 95 85
f 71 81 83
f 71 83 82
f 71 82 96
f 71 96 97
f 71 97 98
f 71 98 99
f 71 99 100
f 71 100 101
f 71 101 102
f 71 102 103
f 82 84 96
f 84 105 99
f 84 99 98
f 84 98 97
f 84 97 96
f 85 95 86
f 86 106 107
f 86 107 108
f 86 108 109
f 86 109 87
f 86 95 110
f 86 110 103
f 86 103 106
f 87 109 88
f 88 109 111
f 88 111 89
f 89 111 112
f 89 112 90
f 90 112 113
f 92 114 93
f 93 114 115
f 93 115 94
f 95 104 110
f 99 105 100
f 100 105 106
f 100 106 101
f 101 106 102
f 102 106 103
f 106 116 107
f 107 116 117
f 107 117 108
f 108 117 109
f 109 117 111
f 111 117 113
f 111 113 112
f 113 117 116
