v -0.033701 -0.000866 0.103245
v -0.030992 0.007030 0.132663
v -0.031023 0.008403 0.132663
v -0.031044 0.013617 0.132663
v -0.030981 0.014976 0.132663
v -0.030940 0.015413 0.132663
v -0.030752 0.016648 0.132663
v -0.029970 0.020764 0.132663
v -0.029720 0.021924 0.132663
v -0.029439 0.023072 0.132663
v -0.028897 0.024694 0.132663
v -0.028470 0.025841 0.132663
v -0.026928 0.029845 0.132663
v -0.026250 0.031392 0.132663
v -0.026136 0.031629 0.132663
v -0.025510 0.032901 0.132663
v -0.023374 0.037043 0.132663
v -0.026980 0.011234 0.103245
v 0.068703 -0.000866 0.103245
v -0.013193 -0.044512 0.109532
v -0.028512 -0.060304 0.128330
v -0.028710 -0.060516 0.129194
v -0.028751 -0.060553 0.130454
v -0.030981 0.006756 0.132663
v 0.013244 -0.022208 0.135343
v 0.013244 0.042968 0.135343
v -0.011380 0.053521 0.133505
v -0.022864 0.037953 0.132663
v -0.022530 0.038502 0.132663
v -0.021446 0.040261 0.132663
v -0.025771 0.013155 0.103245
v 0.068703 0.019766 0.103245
v 0.072757 0.011509 0.135339
v 0.072746 0.010024 0.135339
v 0.072288 0.005072 0.135339
v 0.072121 0.003413 0.135339
v 0.072100 0.003288 0.135339
v 0.071861 0.002028 0.135339
v 0.062972 -0.033086 0.109532
v 0.062711 -0.034296 0.109532
v 0.062076 -0.035032 0.109532
v 0.061961 -0.035131 0.109532
v 0.043766 -0.044512 0.109532
v 0.040140 -0.061726 0.119655
v -0.011099 -0.061289 0.119655
v -0.012641 -0.060753 0.119655
v -0.012828 -0.060591 0.119655
v -0.027636 -0.060915 0.129194
v -0.027678 -0.060753 0.130944
v -0.027136 -0.060354 0.131767
v -0.027251 -0.059418 0.131830
v -0.030825 0.005060 0.132663
v 0.015526 -0.022732 0.135343
v -0.030304 0.001779 0.132663
v -0.030012 0.000132 0.132663
v -0.025990 -0.059418 0.131981
v 0.017736 -0.043838 0.135000
v 0.027489 0.041558 0.135343
v 0.041797 0.057089 0.135339
v 0.040140 0.056889 0.135339
v 0.038910 0.056664 0.135339
v 0.038410 0.056527 0.135339
v 0.037108 0.055841 0.135339
v -0.005680 0.057363 0.133505
v -0.007201 0.056502 0.133505
v -0.008764 0.055554 0.133505
v -0.009629 0.054931 0.133505
v -0.010640 0.054145 0.133505
v -0.016767 0.046922 0.132663
v -0.017299 0.046286 0.132663
v -0.018143 0.045176 0.132663
v -0.020852 0.041159 0.132663
v 0.010910 0.064224 0.112407
v -0.024885 0.014365 0.103245
v 0.066557 0.029234 0.108081
v 0.070475 0.024881 0.135339
v 0.070881 0.023396 0.135339
v 0.071684 0.019941 0.135339
v 0.072048 0.018282 0.135339
v 0.072298 0.016635 0.135339
v -0.018018 0.019766 0.103245
v 0.039161 0.056627 0.109064
v 0.027489 -0.022396 0.135343
v 0.071809 0.001766 0.135339
v 0.062763 -0.034321 0.111012
v 0.062472 -0.035431 0.119815
v 0.042745 -0.060516 0.124236
v 0.041703 -0.061002 0.119655
v 0.041787 -0.061289 0.124236
v 0.040494 -0.061838 0.125889
v 0.039682 -0.061951 0.125889
v 0.039504 -0.061913 0.124698
v 0.039046 -0.061913 0.124698
v 0.013692 -0.061963 0.128135
v -0.011099 -0.061564 0.127541
v -0.025990 -0.061102 0.130847
v -0.025990 -0.061040 0.129194
v -0.025990 -0.060429 0.131830
v 0.017006 -0.023057 0.135343
v -0.024333 -0.060479 0.131868
v -0.021019 -0.060541 0.131934
v -0.019373 -0.060541 0.131956
v -0.017726 -0.060528 0.131968
v 0.017902 -0.043838 0.135000
v 0.018663 -0.023107 0.135343
v 0.064316 0.038502 0.135339
v 0.063753 0.039438 0.135339
v 0.063535 0.039762 0.135339
v 0.062774 0.040885 0.135339
v 0.059825 0.045014 0.135339
v 0.058699 0.046373 0.135339
v 0.057730 0.047434 0.135339
v 0.055156 0.050103 0.135339
v 0.054458 0.050777 0.135339
v 0.053364 0.051700 0.135339
v 0.051738 0.052972 0.135339
v 0.051071 0.053484 0.135339
v 0.050498 0.053883 0.135339
v 0.049800 0.054332 0.135339
v 0.048404 0.055080 0.135339
v 0.046538 0.056003 0.135339
v 0.045100 0.056527 0.135339
v 0.043454 0.056889 0.135339
v 0.069891 0.026540 0.135339
v 0.067932 0.031280 0.135339
v 0.067682 0.031879 0.135339
v 0.067140 0.033138 0.135339
v 0.066390 0.034698 0.135339
v 0.066098 0.035259 0.135339
v -0.000594 0.058897 0.133505
v -0.001063 0.058847 0.133505
v 0.016214 0.063737 0.131679
v 0.013703 0.062914 0.132515
v 0.013692 0.061192 0.133256
v -0.003887 0.058037 0.133505
v -0.004502 0.057824 0.133505
v 0.012077 0.065184 0.129188
v 0.011692 0.065284 0.127538
v 0.011785 0.065309 0.126074
v 0.012827 0.065446 0.113296
v 0.012181 0.065072 0.112407
v 0.008659 0.056627 0.109064
v -0.024354 0.014989 0.103245
v 0.062503 0.034635 0.109802
v 0.057553 0.038852 0.109064
v 0.013661 0.065296 0.112407
v 0.015370 0.065034 0.112407
v 0.017298 0.064673 0.112407
v 0.035513 0.060569 0.112407
v 0.035993 0.060432 0.112407
v 0.036920 0.059770 0.112407
v 0.035190 -0.021859 0.135339
v 0.036878 -0.021298 0.135339
v 0.063295 -0.010446 0.135339
v 0.064618 -0.009872 0.135339
v 0.064910 -0.009710 0.135339
v 0.065129 -0.009547 0.135339
v 0.066734 -0.008213 0.135339
v 0.067526 -0.007489 0.135339
v 0.068151 -0.006691 0.135339
v 0.069339 -0.004757 0.135339
v 0.070131 -0.002936 0.135339
v 0.071246 0.000070 0.135339
v 0.063430 -0.032936 0.127538
v 0.063441 -0.032936 0.126074
v 0.063441 -0.032936 0.125886
v 0.062649 -0.034121 0.128647
v 0.062972 -0.034595 0.124227
v 0.062545 -0.035493 0.122577
v 0.062503 -0.035456 0.120925
v 0.042745 -0.060528 0.125889
v 0.062576 -0.035506 0.124227
v 0.041787 -0.061302 0.125889
v 0.039609 -0.061951 0.127020
v 0.040150 -0.061826 0.127557
v 0.013692 -0.061963 0.128550
v 0.038494 -0.061951 0.125876
v 0.012682 -0.061951 0.128289
v 0.012682 -0.061951 0.128496
v -0.021019 -0.061240 0.130847
v -0.019373 -0.061240 0.130847
v 0.013692 -0.061601 0.129379
v 0.040140 -0.061240 0.129194
v 0.040140 -0.060479 0.130140
v 0.015339 -0.059930 0.131510
v 0.015339 -0.059094 0.131827
v 0.016350 -0.058969 0.131846
v 0.018528 -0.044450 0.134837
v 0.041130 -0.060391 0.130083
v 0.036503 0.060743 0.122577
v 0.036243 0.060506 0.129191
v 0.036045 0.060444 0.130039
v 0.019934 0.063887 0.130281
v 0.018663 0.064049 0.130561
v 0.018319 0.063962 0.130828
v 0.017444 0.064111 0.130828
v 0.017308 0.063662 0.131585
v 0.012650 0.063812 0.131745
v 0.012077 0.064274 0.130928
v 0.016871 0.064124 0.130963
v 0.015391 0.064373 0.130828
v 0.013703 0.064535 0.130828
v 0.013703 0.063812 0.131758
v 0.013682 0.065271 0.129188
v 0.012629 0.065446 0.128628
v 0.012525 0.065471 0.127538
v 0.013077 0.065446 0.113296
v 0.012463 0.065134 0.112407
v 0.015370 0.065059 0.112661
v 0.017027 0.064748 0.112661
v 0.035180 0.061105 0.122577
v 0.058324 -0.029643 0.132471
v 0.059345 -0.030678 0.131751
v 0.062607 -0.030728 0.130127
v 0.062930 -0.032936 0.128917
v 0.062753 -0.034645 0.127403
v 0.062930 -0.034595 0.126074
v 0.062951 -0.034595 0.125886
v 0.061648 -0.033036 0.129785
v 0.061680 -0.034645 0.129049
v 0.041484 -0.060728 0.129194
v 0.042599 -0.060092 0.128195
v 0.062253 -0.035219 0.127865
v 0.042672 -0.060366 0.127095
v 0.041932 -0.060928 0.127601
v 0.062524 -0.035493 0.125886
v 0.062513 -0.035481 0.126074
v 0.062472 -0.035431 0.126762
v 0.038483 -0.061826 0.127890
v 0.040744 -0.061339 0.128289
v 0.018663 0.064361 0.129191
v 0.017017 0.064710 0.129191
v 0.015360 0.065009 0.129191
v 0.013130 0.065446 0.128628
v 0.013182 0.065471 0.127538
v 0.015370 0.065097 0.114320
v 0.017027 0.064785 0.114320
v 0.017017 0.064760 0.127538
v 0.062847 -0.034782 0.126074
v 0.041745 -0.060840 0.128289
v 0.015360 0.065072 0.127538
f 1 2 3
f 1 3 4
f 1 4 5
f 1 5 6
f 1 6 7
f 1 7 8
f 1 8 9
f 1 9 10
f 1 10 11
f 1 11 12
f 1 12 13
f 1 13 14
f 1 14 15
f 1 15 16
f 1 16 17
f 1 17 18
f 1 18 31
f 1 31 74
f 1 74 143
f 1 143 81
f 1 81 32
f 1 32 19
f 1 19 43
f 1 43 20
f 1 20 21
f 1 21 22
f 1 22 23
f 1 23 2
f 2 23 24
f 2 24 25
f 2 25 3
f 3 25 4
f 4 25 26
f 4 26 5
f 5 26 6
f 6 26 7
f 7 26 8
f 8 26 27
f 8 27 9
f 9 27 10
f 10 27 11
f 11 27 12
f 12 27 13
f 13 27 14
f 14 27 15
f 15 27 16
f 16 27 17
f 17 27 28
f 17 28 18
f 18 28 29
f 18 29 30
f 18 30 31
f 19 32 33
f 19 33 34
f 19 34 35
f 19 35 36
f 19 36 37
f 19 37 38
f 19 38 39
f 19 39 40
f 19 40 41
f 19 41 42
f 19 42 43
f 20 43 44
f 20 44 45
f 20 45 46
f 20 46 47
f 20 47 21
f 21 47 46
f 21 46 45
f 21 45 48
f 21 48 22
f 22 48 23
f 23 48 49
f 23 49 50
f 23 50 51
f 23 51 24
f 24 52 25
f 24 51 52
f 25 53 99
f 25 99 105
f 25 105 83
f 25 83 58
f 25 58 26
f 25 52 54
f 25 54 55
f 25 55 56
f 25 56 57
f 25 57 53
f 26 58 59
f 26 59 60
f 26 60 61
f 26 61 62
f 26 62 63
f 26 63 64
f 26 64 65
f 26 65 66
f 26 66 67
f 26 67 68
f 26 68 27
f 27 69 70
f 27 70 71
f 27 71 72
f 27 72 30
f 27 30 29
f 27 29 28
f 27 68 73
f 27 73 69
f 30 72 31
f 31 72 71
f 31 71 74
f 32 75 76
f 32 76 77
f 32 77 78
f 32 78 79
f 32 79 80
f 32 80 33
f 32 81 142
f 32 142 82
f 32 82 75
f 33 80 58
f 33 58 83
f 33 83 34
f 34 83 35
f 35 83 36
f 36 83 37
f 37 83 38
f 38 83 84
f 38 84 39
f 39 84 40
f 40 84 85
f 40 85 86
f 40 86 87
f 40 87 88
f 40 88 41
f 41 88 42
f 42 88 43
f 43 88 44
f 44 88 89
f 44 89 90
f 44 90 91
f 44 91 92
f 44 92 93
f 44 93 94
f 44 94 45
f 45 94 95
f 45 95 96
f 45 96 97
f 45 97 48
f 48 97 96
f 48 96 49
f 49 96 50
f 50 98 56
f 50 56 51
f 50 96 98
f 51 56 54
f 51 54 52
f 53 57 99
f 54 56 55
f 56 98 100
f 56 100 101
f 56 101 57
f 57 101 102
f 57 102 103
f 57 103 104
f 57 104 105
f 57 105 99
f 58 106 107
f 58 107 108
f 58 108 109
f 58 109 110
f 58 110 111
f 58 111 112
f 58 112 113
f 58 113 114
f 58 114 115
f 58 115 116
f 58 116 117
f 58 117 118
f 58 118 119
f 58 119 120
f 58 120 121
f 58 121 122
f 58 122 123
f 58 123 59
f 58 80 79
f 58 79 78
f 58 78 77
f 58 77 76
f 58 76 124
f 58 124 125
f 58 125 126
f 58 126 127
f 58 127 128
f 58 128 129
f 58 129 106
f 59 130 131
f 59 131 60
f 59 123 132
f 59 132 133
f 59 133 134
f 59 134 130
f 60 131 61
f 61 131 62
f 62 131 135
f 62 135 136
f 62 136 64
f 62 64 63
f 64 136 137
f 64 137 138
f 64 138 139
f 64 139 140
f 64 140 141
f 64 141 65
f 65 141 66
f 66 141 73
f 66 73 67
f 67 73 68
f 69 73 74
f 69 74 70
f 70 74 71
f 73 141 142
f 73 142 143
f 73 143 74
f 75 144 110
f 75 110 109
f 75 109 108
f 75 108 107
f 75 107 106
f 75 106 129
f 75 129 128
f 75 128 127
f 75 127 126
f 75 126 125
f 75 125 124
f 75 124 76
f 75 82 145
f 75 145 144
f 81 143 142
f 82 142 146
f 82 146 147
f 82 147 148
f 82 148 149
f 82 149 150
f 82 150 151
f 82 151 114
f 82 114 144
f 82 144 145
f 83 105 104
f 83 104 152
f 83 152 153
f 83 153 154
f 83 154 155
f 83 155 156
f 83 156 157
f 83 157 158
f 83 158 159
f 83 159 160
f 83 160 161
f 83 161 162
f 83 162 163
f 83 163 84
f 84 164 165
f 84 165 166
f 84 166 85
f 84 163 167
f 84 167 164
f 85 168 169
f 85 169 170
f 85 170 86
f 85 166 168
f 86 170 87
f 87 171 173
f 87 173 89
f 87 89 88
f 87 170 169
f 87 169 172
f 87 172 171
f 89 173 90
f 90 174 91
f 90 173 175
f 90 175 174
f 91 174 176
f 91 176 94
f 91 94 177
f 91 177 92
f 92 177 93
f 93 177 94
f 94 176 179
f 94 179 178
f 94 178 95
f 95 178 179
f 95 179 180
f 95 180 96
f 96 180 101
f 96 101 100
f 96 100 98
f 101 180 102
f 102 180 181
f 102 181 103
f 103 181 182
f 103 182 183
f 103 183 184
f 103 184 185
f 103 185 186
f 103 186 187
f 103 187 104
f 104 187 188
f 104 188 189
f 104 189 156
f 104 156 155
f 104 155 154
f 104 154 153
f 104 153 152
f 110 144 111
f 111 144 112
f 112 144 113
f 113 144 114
f 114 151 115
f 115 151 116
f 116 151 117
f 117 151 150
f 117 150 118
f 118 150 119
f 119 150 190
f 119 190 120
f 120 190 121
f 121 190 191
f 121 191 122
f 122 191 192
f 122 192 123
f 123 192 193
f 123 193 194
f 123 194 195
f 123 195 196
f 123 196 197
f 123 197 132
f 130 134 131
f 131 134 133
f 131 133 198
f 131 198 199
f 131 199 135
f 132 197 200
f 132 200 201
f 132 201 202
f 132 202 203
f 132 203 133
f 133 203 198
f 135 199 137
f 135 137 136
f 137 204 205
f 137 205 138
f 137 199 202
f 137 202 204
f 138 205 206
f 138 206 139
f 139 206 140
f 140 206 235
f 140 235 207
f 140 207 146
f 140 146 208
f 140 208 141
f 141 208 142
f 142 208 146
f 146 207 209
f 146 209 147
f 147 209 148
f 148 209 210
f 148 210 149
f 149 211 190
f 149 190 150
f 149 210 211
f 156 189 157
f 157 189 158
f 158 189 159
f 159 189 160
f 160 189 212
f 160 212 213
f 160 213 214
f 160 214 161
f 161 214 215
f 161 215 162
f 162 215 163
f 163 215 167
f 164 167 216
f 164 216 217
f 164 217 218
f 164 218 168
f 164 168 165
f 165 168 166
f 167 219 220
f 167 220 189
f 167 189 221
f 167 221 222
f 167 222 223
f 167 223 216
f 167 215 214
f 167 214 219
f 168 218 172
f 168 172 169
f 171 224 225
f 171 225 173
f 171 172 226
f 171 226 227
f 171 227 228
f 171 228 224
f 172 218 226
f 173 225 175
f 174 175 229
f 174 229 176
f 175 225 230
f 175 230 183
f 175 183 229
f 176 229 183
f 176 183 182
f 176 182 181
f 176 181 180
f 176 180 179
f 183 221 189
f 183 189 184
f 183 230 221
f 184 187 185
f 184 189 188
f 184 188 187
f 185 187 186
f 189 220 219
f 189 219 213
f 189 213 212
f 190 211 191
f 191 211 231
f 191 231 192
f 192 231 193
f 193 231 232
f 193 232 194
f 194 232 233
f 194 233 204
f 194 204 196
f 194 196 195
f 196 204 201
f 196 201 200
f 196 200 197
f 198 203 202
f 198 202 199
f 201 204 202
f 204 234 205
f 204 233 234
f 205 234 235
f 205 235 206
f 207 235 236
f 207 236 209
f 209 236 237
f 209 237 210
f 210 237 211
f 211 237 238
f 211 238 232
f 211 232 231
f 213 219 214
f 216 223 228
f 216 228 239
f 216 239 217
f 217 239 218
f 218 239 226
f 221 230 240
f 221 240 222
f 222 240 225
f 222 225 224
f 222 224 228
f 222 228 223
f 225 240 230
f 226 239 227
f 227 239 228
f 232 238 241
f 232 241 234
f 232 234 233
f 234 241 235
f 235 241 236
f 236 241 238
f 236 238 237
