v 0.075176 -0.023043 -0.000964
v 0.075695 -0.015933 -0.000752
v 0.076928 -0.020918 -0.000799
v 0.076185 -0.024700 -0.000917
v 0.048412 -0.049081 -0.000752
v 0.040126 -0.048507 -0.000763
v -0.013192 -0.004024 0.001055
v 0.081471 -0.000888 0.001799
v 0.013712 -0.004862 0.000665
v 0.013712 -0.000888 0.000949
v 0.023610 -0.000888 0.000878
v 0.025265 -0.000888 0.000878
v 0.055015 -0.003539 0.000901
v 0.083111 -0.004862 0.001976
v 0.083111 -0.008171 0.001869
v 0.082817 -0.050147 0.001008
v 0.079802 -0.052810 0.000724
v 0.055618 -0.049231 -0.000610
v 0.078162 -0.055090 0.001137
v 0.051706 -0.054910 0.000854
v 0.050052 -0.054916 0.000854
v 0.013698 -0.054886 0.001114
v -0.001037 -0.054007 0.001126
v -0.017707 -0.054455 0.001645
v -0.017707 -0.052804 0.001433
v -0.039214 -0.047843 0.001574
v -0.017693 -0.004862 0.001137
v -0.042677 -0.001223 0.002377
v -0.018352 -0.000888 0.001622
v 0.011735 -0.000888 0.000972
v 0.084135 -0.000888 0.002967
v 0.084205 -0.006513 0.002507
v 0.083742 -0.014784 0.002035
v 0.082046 -0.052810 0.001126
v 0.084050 -0.046197 0.001633
v 0.083826 -0.047848 0.001562
v 0.084289 -0.049500 0.002235
v 0.080531 -0.054366 0.001114
v 0.077503 -0.057232 0.003357
v 0.076494 -0.055628 0.001397
v 0.082102 -0.055640 0.002885
v 0.050052 -0.056718 0.002023
v -0.024324 -0.057531 0.002908
v -0.026175 -0.057430 0.002956
v -0.040868 -0.047843 0.001834
v -0.040868 -0.046191 0.001810
v -0.044892 -0.019751 0.002200
v -0.042508 -0.003204 0.002271
v -0.044695 -0.003204 0.002483
v -0.044864 -0.001439 0.002637
v -0.046392 -0.000888 0.004148
v 0.085480 -0.000888 0.005199
v 0.085396 -0.004562 0.003853
v 0.084990 -0.016436 0.002944
v 0.084597 -0.032959 0.002188
v 0.084177 -0.051930 0.002932
v 0.083826 -0.054126 0.003794
v 0.084541 -0.036262 0.002117
v 0.084513 -0.044521 0.002047
v 0.085480 -0.045006 0.003818
v 0.081457 -0.056592 0.005187
v 0.083111 -0.058136 0.029993
v 0.055015 -0.061020 0.033311
v 0.055015 -0.060919 0.031658
v 0.055015 -0.060793 0.029993
v 0.055015 -0.060643 0.028340
v 0.026919 -0.058663 0.004184
v 0.083349 -0.055305 0.005187
v 0.020890 -0.058722 0.004184
v -0.024324 -0.058818 0.004042
v -0.028166 -0.058878 0.004691
v -0.045523 -0.048070 0.002908
v -0.045579 -0.018099 0.002389
v -0.046826 -0.006513 0.004066
v -0.046490 -0.003204 0.003995
v -0.046967 -0.004862 0.004644
v -0.052224 -0.001223 0.053135
v -0.049168 -0.000888 0.085864
v 0.090780 -0.000888 0.049829
v 0.088369 -0.011475 0.015105
v 0.088130 -0.011475 0.013464
v 0.087878 -0.011475 0.011799
v 0.088495 -0.021403 0.010146
v 0.085396 -0.031313 0.003215
v 0.088046 -0.022223 0.008493
v 0.087555 -0.028010 0.007265
v 0.087373 -0.042947 0.009343
v 0.084864 -0.051164 0.005187
v 0.085074 -0.051164 0.006852
v 0.087261 -0.052020 0.029155
v 0.087822 -0.031313 0.007879
v 0.087780 -0.032959 0.007903
v 0.087668 -0.041224 0.009461
v 0.084471 -0.057519 0.029993
v 0.083742 -0.057759 0.028340
v 0.083952 -0.058597 0.043796
v 0.055015 -0.061667 0.046535
v 0.055015 -0.061595 0.044894
v -0.022670 -0.059261 0.005187
v 0.012044 -0.059099 0.005187
v -0.025979 -0.059034 0.004620
v -0.042522 -0.060015 0.076229
v -0.043686 -0.058519 0.031894
v -0.044163 -0.058303 0.030005
v -0.046756 -0.053647 0.007655
v -0.047107 -0.048417 0.004030
v -0.046686 -0.019751 0.003381
v -0.046981 -0.021403 0.003818
v -0.048986 -0.049494 0.007053
v -0.052210 -0.003204 0.053135
v -0.047121 -0.029662 0.106006
v -0.048537 -0.000888 0.088036
v -0.046714 -0.014784 0.106986
v -0.046490 -0.009823 0.106006
v 0.090920 -0.000888 0.051494
v 0.089224 -0.023043 0.016758
v 0.089084 -0.023043 0.015105
v 0.088817 -0.023043 0.012366
v 0.088551 -0.023043 0.010146
v 0.088102 -0.028010 0.008493
v 0.087836 -0.029662 0.007879
v 0.088046 -0.041224 0.011799
v 0.087752 -0.042881 0.011799
v 0.088116 -0.042881 0.015105
v 0.087878 -0.044521 0.016782
v 0.088313 -0.044521 0.020890
v 0.088551 -0.044521 0.023393
v 0.088887 -0.043492 0.025353
v 0.086644 -0.054455 0.101047
v 0.085957 -0.056047 0.061329
v 0.085579 -0.056831 0.046535
v 0.088425 -0.031313 0.010146
v 0.088355 -0.032959 0.010146
v 0.088172 -0.036262 0.010146
v 0.087976 -0.039572 0.010146
v 0.085186 -0.057268 0.044882
v 0.084022 -0.058645 0.046535
v 0.057721 -0.061990 0.072935
v 0.055015 -0.061715 0.048188
v 0.053361 -0.061786 0.049841
v -0.023497 -0.060386 0.046523
v 0.033550 -0.061463 0.049841
v -0.043378 -0.060260 0.097116
v -0.044373 -0.058501 0.034952
v -0.035905 -0.061008 0.101047
v -0.040854 -0.060679 0.102700
v -0.045761 -0.057651 0.031658
v -0.045733 -0.057543 0.030005
v -0.048803 -0.051780 0.007962
v -0.048186 -0.047418 0.005600
v -0.052056 -0.004862 0.053135
v -0.046911 -0.031882 0.106797
v -0.046883 -0.029662 0.107128
v -0.046812 -0.023043 0.107104
v -0.045354 -0.007926 0.106573
v -0.030395 -0.000888 0.108297
v -0.046504 -0.012366 0.107069
v -0.044681 -0.019296 0.108828
v -0.045733 -0.009823 0.107588
v 0.091004 -0.000888 0.053170
v 0.090962 -0.003204 0.051494
v 0.089588 -0.023043 0.021740
v 0.089476 -0.023043 0.020064
v 0.089364 -0.023043 0.018423
v 0.089252 -0.024700 0.016758
v 0.088831 -0.024700 0.012248
v 0.088453 -0.029662 0.010146
v 0.088214 -0.039572 0.011799
v 0.088411 -0.039572 0.013464
v 0.088957 -0.041954 0.023027
v 0.089084 -0.041224 0.025035
v 0.089140 -0.028650 0.103550
v 0.086630 -0.052810 0.102688
v 0.086167 -0.054455 0.103302
v 0.085046 -0.056765 0.103338
v 0.085256 -0.056993 0.101047
v 0.085551 -0.056867 0.097730
v 0.085551 -0.056879 0.061329
v 0.084850 -0.057759 0.048176
v 0.088663 -0.031313 0.011799
v 0.088607 -0.032959 0.011799
v 0.088523 -0.034605 0.011799
v 0.088341 -0.037920 0.011799
v 0.083644 -0.058842 0.076229
v 0.083644 -0.058848 0.074588
v 0.057749 -0.062008 0.074588
v -0.020188 -0.061481 0.102700
v 0.057160 -0.062026 0.076229
v -0.043406 -0.060290 0.099394
v -0.043434 -0.060308 0.101047
v -0.044457 -0.058501 0.036617
v -0.035905 -0.060996 0.102700
v -0.040854 -0.060596 0.104365
v -0.035905 -0.060973 0.104365
v -0.045761 -0.057675 0.034952
v -0.045004 -0.058609 0.057610
v -0.045032 -0.058627 0.061353
v -0.045046 -0.058645 0.067976
v -0.045018 -0.058627 0.070314
v -0.043980 -0.059417 0.101047
v -0.044387 -0.057759 0.101047
v -0.044247 -0.057759 0.102700
v -0.043798 -0.058040 0.104932
v -0.042522 -0.057759 0.106160
v -0.046826 -0.024700 0.107116
v -0.014496 -0.056747 0.119655
v -0.042522 -0.019751 0.109902
v -0.043490 -0.007908 0.108403
v -0.029301 -0.001223 0.109572
v 0.068278 -0.000888 0.110812
v -0.044373 -0.009823 0.108568
v 0.090668 -0.001223 0.104849
v 0.090640 -0.003425 0.104825
v 0.090962 -0.004862 0.051494
v 0.089504 -0.024700 0.020064
v 0.088859 -0.030260 0.013570
v 0.088901 -0.028010 0.013440
v 0.088523 -0.037920 0.013464
v 0.089560 -0.024700 0.021740
v 0.089644 -0.024700 0.025035
v 0.088929 -0.022486 0.105227
v 0.086069 -0.052810 0.104046
v 0.084765 -0.054455 0.104719
v 0.083069 -0.055993 0.105026
v 0.041696 -0.060991 0.119643
v 0.040126 -0.061715 0.119643
v 0.083111 -0.057974 0.102688
v 0.083111 -0.058100 0.101047
v -0.009449 -0.061296 0.119655
v 0.058324 -0.061062 0.101047
v 0.056655 -0.061170 0.102688
v -0.043041 -0.059913 0.104164
v -0.045046 -0.058639 0.066335
v -0.011790 -0.061032 0.119655
v -0.013683 -0.059393 0.119655
v -0.014665 -0.054455 0.119655
v -0.042522 -0.009823 0.109111
v -0.014188 -0.049500 0.119655
v -0.013627 -0.044521 0.119655
v 0.082200 -0.001433 0.108698
v 0.014315 -0.044521 0.119655
v 0.045061 -0.044539 0.119643
v 0.089084 -0.001720 0.106667
v 0.086069 -0.029662 0.107293
v 0.085326 -0.049500 0.105050
v 0.085130 -0.051164 0.104955
v 0.083111 -0.049500 0.106160
v 0.083111 -0.051164 0.105924
v 0.046407 -0.053426 0.119643
v 0.013950 -0.060476 0.119655
v 0.012058 -0.061122 0.119655
v 0.006464 -0.061200 0.119655
v -0.003645 -0.061290 0.119655
v 0.045972 -0.048255 0.119643
v 0.046603 -0.051164 0.119643
f 1 2 3
f 1 3 4
f 1 4 5
f 1 5 6
f 1 6 7
f 1 7 2
f 2 8 3
f 2 7 9
f 2 9 10
f 2 10 11
f 2 11 12
f 2 12 13
f 2 13 8
f 3 8 14
f 3 14 15
f 3 15 16
f 3 16 4
f 4 16 17
f 4 17 18
f 4 18 5
f 5 18 19
f 5 19 20
f 5 20 21
f 5 21 22
f 5 22 23
f 5 23 6
f 6 23 24
f 6 24 25
f 6 25 26
f 6 26 27
f 6 27 7
f 7 27 28
f 7 28 29
f 7 29 30
f 7 30 9
f 8 31 14
f 8 13 12
f 8 12 11
f 8 11 10
f 8 10 30
f 8 30 29
f 8 29 51
f 8 51 78
f 8 78 112
f 8 112 156
f 8 156 210
f 8 210 160
f 8 160 115
f 8 115 79
f 8 79 52
f 8 52 31
f 9 30 10
f 14 31 32
f 14 32 15
f 15 32 33
f 15 33 16
f 16 34 17
f 16 33 35
f 16 35 36
f 16 36 37
f 16 37 34
f 17 34 38
f 17 38 19
f 17 19 18
f 19 39 40
f 19 40 20
f 19 38 41
f 19 41 39
f 20 42 21
f 20 40 42
f 21 42 43
f 21 43 22
f 22 43 24
f 22 24 23
f 24 43 44
f 24 44 26
f 24 26 25
f 26 44 45
f 26 45 46
f 26 46 47
f 26 47 48
f 26 48 27
f 27 48 28
f 28 48 49
f 28 49 50
f 28 50 51
f 28 51 29
f 31 52 53
f 31 53 32
f 32 53 54
f 32 54 55
f 32 55 33
f 33 55 35
f 34 37 56
f 34 56 57
f 34 57 41
f 34 41 38
f 35 55 58
f 35 58 59
f 35 59 37
f 35 37 36
f 37 59 60
f 37 60 56
f 39 41 61
f 39 61 62
f 39 62 63
f 39 63 64
f 39 64 65
f 39 65 66
f 39 66 67
f 39 67 42
f 39 42 40
f 41 68 61
f 41 57 68
f 42 67 69
f 42 69 70
f 42 70 43
f 43 70 44
f 44 70 71
f 44 71 72
f 44 72 45
f 45 72 47
f 45 47 46
f 47 49 48
f 47 72 73
f 47 73 49
f 49 73 50
f 50 73 74
f 50 74 75
f 50 75 51
f 51 75 74
f 51 74 76
f 51 76 77
f 51 77 78
f 52 79 80
f 52 80 81
f 52 81 82
f 52 82 83
f 52 83 53
f 53 84 54
f 53 83 85
f 53 85 86
f 53 86 84
f 54 84 55
f 55 59 58
f 55 84 59
f 56 60 87
f 56 87 88
f 56 88 57
f 57 88 89
f 57 89 90
f 57 90 68
f 59 84 60
f 60 84 91
f 60 91 92
f 60 92 93
f 60 93 87
f 61 68 94
f 61 94 95
f 61 95 62
f 62 95 96
f 62 96 97
f 62 97 98
f 62 98 63
f 63 98 99
f 63 99 64
f 64 99 65
f 65 99 100
f 65 100 66
f 66 100 67
f 67 100 69
f 68 90 94
f 69 100 99
f 69 99 70
f 70 99 101
f 70 101 71
f 71 101 102
f 71 102 103
f 71 103 104
f 71 104 105
f 71 105 72
f 72 105 106
f 72 106 73
f 73 106 107
f 73 107 74
f 74 108 109
f 74 109 76
f 74 107 108
f 76 109 77
f 77 109 110
f 77 110 111
f 77 111 78
f 78 111 113
f 78 113 114
f 78 114 112
f 79 115 164
f 79 164 116
f 79 116 117
f 79 117 80
f 80 83 81
f 80 117 118
f 80 118 83
f 81 83 82
f 83 118 119
f 83 119 85
f 84 86 91
f 85 119 120
f 85 120 86
f 86 120 121
f 86 121 91
f 87 93 122
f 87 122 123
f 87 123 88
f 88 123 89
f 89 123 124
f 89 124 125
f 89 125 90
f 90 125 126
f 90 126 127
f 90 127 128
f 90 128 129
f 90 129 130
f 90 130 131
f 90 131 94
f 91 121 120
f 91 120 92
f 92 120 132
f 92 132 133
f 92 133 134
f 92 134 135
f 92 135 93
f 93 135 122
f 94 131 136
f 94 136 137
f 94 137 96
f 94 96 95
f 96 137 138
f 96 138 139
f 96 139 97
f 97 139 140
f 97 140 99
f 97 99 98
f 99 141 101
f 99 140 142
f 99 142 141
f 101 141 102
f 102 143 144
f 102 144 103
f 102 141 145
f 102 145 146
f 102 146 143
f 103 144 104
f 104 144 147
f 104 147 148
f 104 148 105
f 105 148 149
f 105 149 106
f 106 149 109
f 106 109 150
f 106 150 107
f 107 150 108
f 108 150 109
f 109 149 110
f 110 149 151
f 110 151 152
f 110 152 111
f 111 152 153
f 111 153 154
f 111 154 113
f 112 114 155
f 112 155 156
f 113 157 114
f 113 154 158
f 113 158 157
f 114 157 159
f 114 159 155
f 115 160 161
f 115 161 162
f 115 162 163
f 115 163 164
f 116 164 165
f 116 165 117
f 117 166 118
f 117 165 166
f 118 166 119
f 119 166 167
f 119 167 120
f 120 167 132
f 122 135 168
f 122 168 169
f 122 169 170
f 122 170 124
f 122 124 123
f 124 126 125
f 124 170 127
f 124 127 126
f 127 170 128
f 128 170 171
f 128 171 172
f 128 172 129
f 129 173 174
f 129 174 175
f 129 175 176
f 129 176 177
f 129 177 130
f 129 172 173
f 130 177 131
f 131 177 178
f 131 178 179
f 131 179 136
f 132 167 180
f 132 180 181
f 132 181 133
f 133 181 182
f 133 182 183
f 133 183 134
f 134 183 135
f 135 183 168
f 136 179 137
f 137 179 177
f 137 177 184
f 137 184 185
f 137 185 186
f 137 186 138
f 138 186 140
f 138 140 139
f 140 187 142
f 140 186 188
f 140 188 187
f 141 142 187
f 141 187 145
f 143 146 189
f 143 189 190
f 143 190 191
f 143 191 144
f 144 191 147
f 145 187 192
f 145 192 146
f 146 193 190
f 146 190 189
f 146 192 194
f 146 194 193
f 147 195 149
f 147 149 148
f 147 191 196
f 147 196 197
f 147 197 195
f 149 195 198
f 149 198 199
f 149 199 200
f 149 200 201
f 149 201 151
f 151 201 152
f 152 201 202
f 152 202 203
f 152 203 204
f 152 204 153
f 153 205 154
f 153 204 206
f 153 206 207
f 153 207 158
f 153 158 205
f 154 205 158
f 155 159 208
f 155 208 156
f 156 208 209
f 156 209 210
f 157 158 159
f 158 207 211
f 158 211 159
f 159 211 208
f 160 212 213
f 160 213 214
f 160 214 161
f 160 210 212
f 161 214 162
f 162 215 163
f 162 214 215
f 163 215 164
f 164 215 165
f 165 215 216
f 165 216 217
f 165 217 166
f 166 180 167
f 166 217 180
f 168 183 169
f 169 183 218
f 169 218 170
f 170 218 216
f 170 216 215
f 170 215 171
f 171 215 219
f 171 219 220
f 171 220 214
f 171 214 213
f 171 213 172
f 172 213 221
f 172 221 222
f 172 222 173
f 173 222 174
f 174 222 223
f 174 223 175
f 175 223 224
f 175 224 225
f 175 225 226
f 175 226 227
f 175 227 176
f 176 227 228
f 176 228 184
f 176 184 177
f 177 179 178
f 180 217 216
f 180 216 181
f 181 216 218
f 181 218 182
f 182 218 183
f 184 228 188
f 184 188 186
f 184 186 185
f 187 229 194
f 187 194 192
f 187 188 226
f 187 226 229
f 188 228 230
f 188 230 231
f 188 231 226
f 190 193 232
f 190 232 200
f 190 200 199
f 190 199 198
f 190 198 233
f 190 233 197
f 190 197 196
f 190 196 191
f 193 194 229
f 193 229 234
f 193 234 232
f 195 197 233
f 195 233 198
f 200 203 202
f 200 202 201
f 200 232 203
f 203 232 204
f 204 232 234
f 204 234 235
f 204 235 206
f 206 235 234
f 206 234 229
f 206 229 253
f 206 253 252
f 206 252 251
f 206 251 250
f 206 250 241
f 206 241 239
f 206 239 238
f 206 238 236
f 206 236 207
f 207 237 211
f 207 236 238
f 207 238 239
f 207 239 237
f 208 211 237
f 208 237 209
f 209 237 239
f 209 239 210
f 210 240 212
f 210 239 241
f 210 241 242
f 210 242 240
f 212 243 213
f 212 240 243
f 213 243 221
f 214 220 219
f 214 219 215
f 221 243 244
f 221 244 222
f 222 244 245
f 222 245 246
f 222 246 223
f 223 246 244
f 223 244 247
f 223 247 248
f 223 248 249
f 223 249 224
f 224 249 225
f 225 249 250
f 225 250 226
f 226 231 227
f 226 250 251
f 226 251 252
f 226 252 253
f 226 253 229
f 227 231 228
f 228 231 230
f 240 242 254
f 240 254 255
f 240 255 243
f 241 250 255
f 241 255 254
f 241 254 242
f 243 255 244
f 244 246 245
f 244 255 249
f 244 249 247
f 247 249 248
f 249 255 250
