v 0.075416 0.044774 -0.000837
v 0.073213 0.067910 0.000265
v 0.074856 0.067910 0.000276
v 0.076524 0.067910 0.000299
v 0.076524 0.066255 0.000221
v 0.078168 0.067910 0.000388
v 0.076524 0.044626 -0.000782
v 0.075441 0.043581 -0.000837
v 0.000475 0.066255 -0.000047
v 0.000475 0.067910 -0.000002
v 0.076524 0.068886 0.000410
v 0.078168 0.068886 0.000455
v 0.079835 0.068886 0.000644
v 0.076524 0.043608 -0.000782
v 0.077352 0.043974 -0.000615
v 0.077376 0.039169 -0.000637
v 0.076548 0.039760 -0.000748
v 0.076524 0.038171 -0.000715
v 0.075538 0.038151 -0.000715
v -0.017518 0.034651 0.001279
v -0.018394 0.034651 0.001301
v -0.027646 0.049719 0.001212
v -0.001181 0.066255 0.000009
v 0.000475 0.068886 0.000187
v 0.073213 0.068886 0.000399
v -0.027646 0.068882 0.001647
v 0.080992 0.068886 0.000922
v 0.077376 0.038735 -0.000637
v 0.084741 0.049723 0.002003
v 0.077084 0.037629 -0.000537
v 0.075988 0.037248 -0.000648
v 0.075623 0.037248 -0.000648
v 0.007097 0.034651 0.000811
v -0.022448 0.029935 0.011382
v -0.019198 0.034651 0.001335
v -0.019380 0.034651 0.001346
v -0.029302 0.049719 0.001357
v -0.027646 0.053029 0.001246
v -0.027646 0.054684 0.001279
v -0.027646 0.066251 0.001569
v -0.027646 0.067906 0.001613
v -0.018236 0.068886 0.001591
v -0.029302 0.064601 0.001802
v -0.028620 0.068882 0.001880
v 0.081759 0.068886 0.001502
v 0.084620 0.051370 0.002059
v 0.083134 0.034651 0.001791
v 0.084303 0.034651 0.002449
v 0.085107 0.048072 0.003529
v 0.084924 0.034651 0.003529
v 0.081479 0.034651 0.001335
v 0.076524 0.034651 0.000811
v 0.023812 0.034651 0.000711
v 0.020318 0.034651 0.000711
v -0.020878 0.034651 0.002048
v -0.020707 0.034651 0.001958
v 0.087627 0.034651 0.029995
v 0.090256 0.034651 0.059726
v 0.090390 0.034651 0.061385
v -0.022448 0.029935 0.108303
v -0.033977 0.029935 0.021207
v -0.029302 0.048072 0.001624
v -0.029302 0.048709 0.001513
v -0.029302 0.051374 0.001379
v -0.030471 0.048709 0.002203
v -0.030544 0.049719 0.002092
v -0.018236 0.068886 0.093867
v -0.029302 0.068882 0.002059
v -0.029850 0.068882 0.002359
v -0.030227 0.068882 0.002593
v -0.030349 0.068882 0.003139
v -0.030422 0.068882 0.003529
v -0.031311 0.068882 0.008497
v -0.033709 0.068882 0.025150
v -0.033721 0.068882 0.025529
v -0.030373 0.064601 0.002371
v 0.082367 0.068886 0.002025
v 0.085837 0.068886 0.029227
v 0.085922 0.068886 0.029995
v 0.082684 0.068886 0.002359
v 0.087468 0.046418 0.029995
v 0.087407 0.044896 0.028180
v 0.087493 0.043116 0.028347
v -0.030252 0.047123 0.002515
v 0.089793 0.041457 0.064682
v 0.089586 0.043116 0.071299
v 0.088941 0.040752 0.106866
v 0.089367 0.034651 0.105997
v 0.087566 0.044774 0.029995
v -0.022692 0.029935 0.108348
v 0.089136 0.034651 0.107546
v 0.088856 0.034651 0.108381
v 0.088053 0.034651 0.108983
v 0.086446 0.034651 0.109461
v -0.033977 0.029935 0.105541
v -0.033977 0.030434 0.020895
v -0.030422 0.048072 0.002281
v -0.030507 0.051374 0.002103
v -0.031079 0.049719 0.003518
v -0.031104 0.051374 0.003518
v -0.015814 0.068886 0.106008
v -0.033599 0.068882 0.030552
v -0.031907 0.068882 0.094892
v -0.033977 0.034396 0.019970
v -0.033977 0.034552 0.020004
v -0.033977 0.034651 0.020026
v -0.033977 0.034651 0.107846
v 0.086300 0.068886 0.045557
v 0.089623 0.043116 0.064682
v 0.086263 0.068886 0.076245
v 0.085947 0.068886 0.102722
v 0.088345 0.048072 0.105997
v 0.088540 0.046418 0.105997
v 0.088966 0.039806 0.107033
v 0.088174 0.048072 0.107679
v 0.088320 0.046418 0.107679
v 0.089075 0.036501 0.107412
v -0.024347 0.029935 0.108314
v 0.057545 0.034651 0.112959
v 0.088807 0.036501 0.108214
v 0.087651 0.048072 0.108871
v 0.085654 0.048957 0.110186
v 0.085654 0.048522 0.110186
v 0.080724 0.040393 0.111834
v -0.032540 0.029935 0.106008
v -0.031505 0.030800 0.106799
v -0.033977 0.031372 0.020349
v -0.033977 0.031536 0.020282
v -0.033977 0.032897 0.019837
v -0.033977 0.033187 0.019759
v -0.015607 0.068886 0.106744
v -0.032090 0.039802 0.109105
v -0.013854 0.068886 0.108715
v -0.015448 0.068886 0.107167
v -0.025175 0.030701 0.108515
v -0.032090 0.036413 0.108882
v -0.032090 0.038148 0.109328
v 0.086324 0.068886 0.049834
v 0.086324 0.068886 0.050525
v 0.085776 0.068886 0.103870
v 0.087493 0.049201 0.108749
v 0.088746 0.038151 0.108080
v -0.024347 0.030515 0.108604
v -0.030958 0.029935 0.106465
v 0.080724 0.040702 0.111834
v 0.026928 0.068886 0.112313
v 0.024348 0.068886 0.112358
v 0.023629 0.068886 0.112369
v 0.021974 0.068886 0.112380
v 0.012149 0.065108 0.112402
v 0.011078 0.064372 0.112402
v 0.010920 0.064250 0.112402
v 0.010555 0.062946 0.112402
v 0.009849 0.056651 0.112402
v -0.025991 0.038148 0.110509
v -0.024347 0.036573 0.110353
v -0.024347 0.035746 0.110152
v -0.024347 0.034651 0.109840
v -0.024347 0.031536 0.108927
v 0.084717 0.068886 0.104716
v 0.083914 0.068886 0.105173
v 0.083147 0.068886 0.105485
v 0.081467 0.068886 0.106109
v 0.079823 0.068886 0.106398
v 0.029241 0.068886 0.112168
v -0.027208 0.039196 0.110230
v 0.020330 0.068886 0.112246
v -0.025991 0.036878 0.110308
v -0.027013 0.037233 0.110197
v -0.027269 0.038148 0.110264
v 0.028572 0.068886 0.112224
f 1 2 3
f 1 3 4
f 1 4 5
f 1 5 6
f 1 6 7
f 1 7 8
f 1 8 9
f 1 9 10
f 1 10 2
f 2 11 3
f 2 10 11
f 3 11 4
f 4 11 12
f 4 12 6
f 4 6 5
f 6 12 13
f 6 13 7
f 7 14 8
f 7 13 15
f 7 15 16
f 7 16 28
f 7 28 14
f 8 14 17
f 8 17 18
f 8 18 19
f 8 19 9
f 9 20 21
f 9 21 22
f 9 22 23
f 9 23 10
f 9 19 20
f 10 24 25
f 10 25 11
f 10 23 26
f 10 26 24
f 11 25 24
f 11 24 42
f 11 42 67
f 11 67 101
f 11 101 131
f 11 131 134
f 11 134 133
f 11 133 167
f 11 167 149
f 11 149 148
f 11 148 147
f 11 147 146
f 11 146 171
f 11 171 165
f 11 165 164
f 11 164 163
f 11 163 162
f 11 162 161
f 11 161 160
f 11 160 140
f 11 140 111
f 11 111 110
f 11 110 139
f 11 139 138
f 11 138 108
f 11 108 79
f 11 79 78
f 11 78 80
f 11 80 77
f 11 77 45
f 11 45 27
f 11 27 13
f 11 13 12
f 13 27 15
f 14 28 17
f 15 27 29
f 15 29 16
f 16 29 28
f 17 28 18
f 18 28 30
f 18 30 31
f 18 31 19
f 19 31 32
f 19 32 33
f 19 33 20
f 20 33 34
f 20 34 21
f 21 34 35
f 21 35 22
f 22 35 36
f 22 36 37
f 22 37 38
f 22 38 23
f 23 38 39
f 23 39 40
f 23 40 41
f 23 41 26
f 24 26 42
f 26 41 43
f 26 43 44
f 26 44 42
f 27 45 46
f 27 46 29
f 28 29 47
f 28 47 30
f 29 48 47
f 29 46 49
f 29 49 50
f 29 50 48
f 30 47 51
f 30 51 31
f 31 51 52
f 31 52 53
f 31 53 54
f 31 54 32
f 32 54 33
f 33 54 34
f 34 55 56
f 34 56 36
f 34 36 35
f 34 54 53
f 34 53 52
f 34 52 51
f 34 51 47
f 34 47 48
f 34 48 50
f 34 50 57
f 34 57 58
f 34 58 59
f 34 59 60
f 34 60 90
f 34 90 118
f 34 118 144
f 34 144 125
f 34 125 95
f 34 95 61
f 34 61 55
f 36 56 62
f 36 62 63
f 36 63 37
f 37 64 38
f 37 63 65
f 37 65 66
f 37 66 64
f 38 64 39
f 39 64 40
f 40 64 41
f 41 64 43
f 42 44 68
f 42 68 69
f 42 69 70
f 42 70 71
f 42 71 72
f 42 72 73
f 42 73 74
f 42 74 75
f 42 75 67
f 43 68 44
f 43 64 76
f 43 76 68
f 45 77 46
f 46 78 79
f 46 79 49
f 46 77 80
f 46 80 78
f 49 79 81
f 49 81 82
f 49 82 83
f 49 83 57
f 49 57 50
f 55 61 84
f 55 84 62
f 55 62 56
f 57 83 58
f 58 83 59
f 59 85 86
f 59 86 87
f 59 87 88
f 59 88 60
f 59 83 89
f 59 89 81
f 59 81 79
f 59 79 85
f 60 88 91
f 60 91 92
f 60 92 93
f 60 93 94
f 60 94 90
f 61 95 107
f 61 107 106
f 61 106 105
f 61 105 104
f 61 104 130
f 61 130 129
f 61 129 128
f 61 128 127
f 61 127 96
f 61 96 97
f 61 97 84
f 62 84 97
f 62 97 63
f 63 97 65
f 64 66 98
f 64 98 76
f 65 97 99
f 65 99 66
f 66 99 100
f 66 100 76
f 66 76 98
f 67 75 102
f 67 102 103
f 67 103 101
f 68 76 69
f 69 76 70
f 70 76 71
f 71 76 72
f 72 76 100
f 72 100 73
f 73 100 104
f 73 104 74
f 74 104 105
f 74 105 106
f 74 106 75
f 75 107 102
f 75 106 107
f 79 108 109
f 79 109 85
f 81 89 82
f 82 89 83
f 85 109 86
f 86 109 110
f 86 110 111
f 86 111 112
f 86 112 113
f 86 113 87
f 87 114 88
f 87 113 115
f 87 115 116
f 87 116 114
f 88 117 91
f 88 114 117
f 90 94 119
f 90 119 118
f 91 117 120
f 91 120 92
f 92 120 121
f 92 121 93
f 93 121 122
f 93 122 123
f 93 123 124
f 93 124 94
f 94 124 119
f 95 125 126
f 95 126 107
f 96 127 97
f 97 127 99
f 99 127 128
f 99 128 129
f 99 129 130
f 99 130 100
f 100 130 104
f 101 103 131
f 102 107 103
f 103 107 132
f 103 132 133
f 103 133 134
f 103 134 131
f 107 126 135
f 107 135 136
f 107 136 137
f 107 137 132
f 108 138 109
f 109 138 139
f 109 139 110
f 111 140 115
f 111 115 112
f 112 115 113
f 114 116 117
f 115 141 121
f 115 121 116
f 115 140 141
f 116 120 142
f 116 142 117
f 116 121 120
f 117 142 120
f 118 143 135
f 118 135 144
f 118 119 143
f 119 124 145
f 119 145 146
f 119 146 147
f 119 147 148
f 119 148 149
f 119 149 150
f 119 150 151
f 119 151 152
f 119 152 153
f 119 153 154
f 119 154 155
f 119 155 156
f 119 156 157
f 119 157 158
f 119 158 159
f 119 159 143
f 121 141 122
f 122 145 124
f 122 124 123
f 122 141 160
f 122 160 161
f 122 161 162
f 122 162 163
f 122 163 164
f 122 164 165
f 122 165 145
f 125 144 126
f 126 144 135
f 132 137 166
f 132 166 133
f 133 152 151
f 133 151 150
f 133 150 167
f 133 166 155
f 133 155 152
f 135 143 159
f 135 159 168
f 135 168 136
f 136 168 169
f 136 169 137
f 137 169 170
f 137 170 166
f 140 160 141
f 145 165 171
f 145 171 146
f 149 167 150
f 152 155 153
f 153 155 154
f 155 166 170
f 155 170 169
f 155 169 168
f 155 168 156
f 156 168 157
f 157 168 158
f 158 168 159
