v 0.081494 -0.000888 0.001783
v 0.082489 -0.000888 0.002021
v 0.069910 -0.000888 0.002259
v 0.075559 0.009040 0.000949
v 0.076537 0.008985 0.000928
v 0.077819 0.009078 0.000993
v 0.078561 0.010032 0.001101
v 0.081494 0.028222 0.001339
v 0.083147 -0.000888 0.002184
v 0.066584 0.023261 0.001187
v 0.068715 -0.000888 0.002465
v 0.076537 0.034650 0.000798
v 0.079094 0.025557 0.001025
v 0.081494 0.029878 0.001328
v 0.083147 0.033182 0.001761
v 0.084022 -0.000888 0.002660
v 0.066584 0.023289 0.001187
v 0.066584 0.021609 0.001599
v 0.066584 0.019775 0.002758
v 0.066584 0.020370 0.002357
v 0.068715 -0.000888 0.110504
v 0.079094 0.026145 0.001025
v 0.066584 0.024917 0.001198
v 0.066584 0.034650 0.001317
v 0.081494 0.034650 0.001328
v 0.081494 0.033182 0.001317
v 0.081682 0.034650 0.001372
v 0.083147 0.034650 0.001783
v 0.084347 0.033182 0.002422
v 0.085735 0.024917 0.004155
v 0.084769 -0.000888 0.003516
v 0.066584 0.019775 0.110342
v 0.081419 -0.000888 0.108761
v 0.068715 -0.000248 0.110569
v 0.066584 0.023365 0.111425
v 0.066584 0.021595 0.111089
v 0.066584 0.034650 0.108977
v 0.083285 0.034650 0.001859
v 0.084318 0.034650 0.002433
v 0.085082 0.033182 0.003516
v 0.085707 0.026569 0.004187
v 0.089338 0.019953 0.028324
v 0.086119 0.008383 0.006829
v 0.085899 0.008383 0.005476
v 0.085719 0.023261 0.004198
v 0.085229 -0.000888 0.004284
v 0.082147 -0.000888 0.108588
v 0.088109 0.024917 0.109844
v 0.068715 0.008452 0.111251
v 0.068715 0.010032 0.111371
v 0.083147 0.034650 0.109735
v 0.081494 0.034650 0.109692
v 0.084400 0.034650 0.002563
v 0.084928 0.034650 0.003516
v 0.085634 0.030852 0.004328
v 0.087637 0.034650 0.029970
v 0.090276 0.034650 0.059728
v 0.090413 0.033182 0.059728
v 0.090541 0.031676 0.059728
v 0.091025 0.018297 0.051487
v 0.091172 0.006727 0.053133
v 0.090955 -0.000888 0.051487
v 0.089078 0.008863 0.026971
v 0.085661 -0.000888 0.005746
v 0.085521 -0.000888 0.004967
v 0.088671 -0.000888 0.106822
v 0.089466 0.024917 0.109172
v 0.088109 0.026569 0.109725
v 0.086454 0.034650 0.109476
v 0.090386 0.034650 0.061374
v 0.090606 0.031227 0.060269
v 0.091186 0.019953 0.058071
v 0.091162 0.008383 0.053133
v 0.091165 0.021609 0.058071
v 0.091203 0.016648 0.077920
v 0.091184 0.014996 0.077920
v 0.091112 0.010032 0.077920
v 0.091148 0.005075 0.053133
v 0.090897 -0.000888 0.050827
v 0.091015 -0.000888 0.053133
v 0.090803 -0.000888 0.049830
v 0.088887 -0.000888 0.106703
v 0.090076 0.024917 0.107689
v 0.089389 0.026569 0.109086
v 0.089676 -0.000888 0.106227
v 0.090059 -0.000888 0.105924
v 0.090688 -0.000888 0.105371
v 0.088109 0.028222 0.109595
v 0.088109 0.029878 0.109454
v 0.088109 0.031530 0.109302
v 0.087861 0.034650 0.109064
v 0.090497 0.033182 0.061374
v 0.089365 0.034650 0.106043
v 0.090676 0.021021 0.104386
v 0.090796 0.019953 0.102729
v 0.091162 0.021609 0.059728
v 0.091172 0.018297 0.077920
v 0.090748 0.006727 0.104375
v 0.090743 0.005075 0.104375
v 0.090733 0.003419 0.104375
v 0.090702 -0.000888 0.104321
v 0.089767 0.028222 0.107689
v 0.089225 0.029878 0.108891
v 0.089312 0.028222 0.108988
v 0.090683 0.005075 0.105382
v 0.090683 0.006727 0.105371
v 0.090632 0.016648 0.105296
v 0.090615 0.019775 0.105263
v 0.090613 0.019953 0.105263
v 0.090603 0.020843 0.105241
v 0.090760 0.019953 0.104386
v 0.088071 0.034650 0.108999
v 0.091097 0.019953 0.077920
v 0.089148 0.034650 0.107580
v 0.089606 0.029878 0.107689
v 0.089114 0.031530 0.108750
v 0.090745 0.019775 0.104483
v 0.089008 0.032789 0.108620
v 0.088794 0.034650 0.108458
v 0.088875 0.034650 0.108393
f 1 2 9
f 1 9 16
f 1 16 31
f 1 31 46
f 1 46 65
f 1 65 64
f 1 64 81
f 1 81 79
f 1 79 62
f 1 62 80
f 1 80 101
f 1 101 87
f 1 87 86
f 1 86 85
f 1 85 82
f 1 82 66
f 1 66 47
f 1 47 33
f 1 33 21
f 1 21 11
f 1 11 3
f 1 3 4
f 1 4 5
f 1 5 6
f 1 6 7
f 1 7 8
f 1 8 2
f 2 8 9
f 3 10 4
f 3 11 10
f 4 10 12
f 4 12 5
f 5 12 6
f 6 12 13
f 6 13 8
f 6 8 7
f 8 13 14
f 8 14 15
f 8 15 9
f 9 15 16
f 10 17 12
f 10 11 18
f 10 18 20
f 10 20 19
f 10 19 32
f 10 32 36
f 10 36 35
f 10 35 37
f 10 37 24
f 10 24 23
f 10 23 17
f 11 19 20
f 11 20 18
f 11 21 32
f 11 32 19
f 12 22 13
f 12 17 23
f 12 23 24
f 12 24 37
f 12 37 52
f 12 52 51
f 12 51 69
f 12 69 91
f 12 91 112
f 12 112 119
f 12 119 120
f 12 120 114
f 12 114 93
f 12 93 70
f 12 70 57
f 12 57 56
f 12 56 54
f 12 54 53
f 12 53 39
f 12 39 38
f 12 38 28
f 12 28 27
f 12 27 25
f 12 25 26
f 12 26 22
f 13 22 26
f 13 26 14
f 14 26 15
f 15 26 27
f 15 27 28
f 15 28 29
f 15 29 16
f 16 29 30
f 16 30 31
f 21 33 34
f 21 34 35
f 21 35 36
f 21 36 32
f 25 27 26
f 28 38 29
f 29 39 30
f 29 38 39
f 30 40 41
f 30 41 42
f 30 42 43
f 30 43 44
f 30 44 45
f 30 45 46
f 30 46 31
f 30 39 40
f 33 47 48
f 33 48 49
f 33 49 34
f 34 49 35
f 35 49 50
f 35 50 48
f 35 48 51
f 35 51 52
f 35 52 37
f 39 53 40
f 40 54 55
f 40 55 41
f 40 53 54
f 41 55 42
f 42 55 56
f 42 56 57
f 42 57 58
f 42 58 59
f 42 59 60
f 42 60 61
f 42 61 62
f 42 62 63
f 42 63 43
f 43 63 64
f 43 64 44
f 44 64 65
f 44 65 45
f 45 65 46
f 47 66 48
f 48 67 68
f 48 68 69
f 48 69 51
f 48 50 49
f 48 66 67
f 54 56 55
f 57 70 58
f 58 70 59
f 59 70 71
f 59 71 60
f 60 72 73
f 60 73 61
f 60 71 74
f 60 74 72
f 61 73 72
f 61 72 75
f 61 75 76
f 61 76 77
f 61 77 78
f 61 78 62
f 62 79 63
f 62 78 80
f 63 79 81
f 63 81 64
f 66 82 67
f 67 83 84
f 67 84 68
f 67 82 85
f 67 85 86
f 67 86 87
f 67 87 83
f 68 84 88
f 68 88 69
f 69 88 89
f 69 89 90
f 69 90 91
f 70 92 71
f 70 93 94
f 70 94 95
f 70 95 92
f 71 92 74
f 72 74 75
f 74 92 96
f 74 96 75
f 75 97 95
f 75 95 98
f 75 98 99
f 75 99 100
f 75 100 87
f 75 87 101
f 75 101 76
f 75 96 97
f 76 101 77
f 77 101 80
f 77 80 78
f 83 102 103
f 83 103 104
f 83 104 84
f 83 87 105
f 83 105 106
f 83 106 107
f 83 107 108
f 83 108 109
f 83 109 110
f 83 110 111
f 83 111 94
f 83 94 93
f 83 93 102
f 84 104 88
f 87 100 99
f 87 99 98
f 87 98 111
f 87 111 106
f 87 106 105
f 88 104 89
f 89 104 103
f 89 103 90
f 90 112 91
f 90 103 112
f 92 95 113
f 92 113 96
f 93 114 115
f 93 115 102
f 94 111 95
f 95 97 113
f 95 111 98
f 96 113 97
f 102 115 116
f 102 116 103
f 103 116 112
f 106 111 117
f 106 117 107
f 107 117 108
f 108 117 111
f 108 111 109
f 109 111 110
f 112 116 118
f 112 118 119
f 114 120 116
f 114 116 115
f 116 120 118
f 118 120 119
