v -0.020078 -0.090720 0.042013
v -0.020078 -0.091082 0.042013
v -0.020078 -0.090688 0.040689
v -0.046047 -0.073582 0.063300
v -0.022804 -0.090871 0.064606
v -0.022804 -0.090953 0.065377
v -0.022804 -0.091094 0.066030
v -0.022804 -0.091355 0.066741
v -0.022804 -0.091571 0.067159
v -0.022804 -0.091916 0.067518
v -0.022804 -0.092269 0.067847
v -0.022804 -0.092683 0.068100
v -0.022826 -0.093528 0.068447
v -0.020078 -0.093306 0.042001
v -0.020078 -0.090671 0.039872
v -0.046022 -0.073582 0.062477
v -0.048818 -0.073582 0.063418
v -0.031894 -0.090555 0.068194
v -0.031894 -0.091320 0.068430
v -0.024686 -0.093614 0.068535
v -0.022804 -0.093614 0.065147
v -0.020185 -0.093040 0.010902
v -0.020078 -0.093028 0.010167
v -0.020078 -0.090390 0.015855
v -0.046005 -0.073582 0.061789
v -0.031894 -0.092787 0.068606
v -0.031894 -0.091879 0.068524
v -0.048604 -0.073582 0.049777
v -0.048635 -0.074055 0.063418
v -0.025626 -0.093614 0.068559
v -0.026354 -0.093614 0.064718
v -0.027550 -0.093614 0.064847
v -0.021383 -0.092991 0.010196
v -0.020677 -0.093012 0.010196
v -0.020677 -0.092992 0.009490
v -0.020078 -0.093006 0.009490
v -0.045839 -0.073582 0.051901
v -0.020078 -0.090318 0.008514
v -0.027550 -0.093614 0.068582
v -0.026329 -0.093614 0.068571
v -0.047932 -0.075682 0.063418
v -0.047822 -0.075932 0.063418
v -0.047566 -0.076432 0.063418
v -0.046793 -0.077844 0.063418
v -0.046537 -0.078306 0.063418
v -0.046317 -0.078659 0.063418
v -0.045470 -0.079963 0.063418
v -0.045198 -0.080373 0.063418
v -0.044897 -0.080803 0.063418
v -0.044570 -0.081248 0.063418
v -0.043639 -0.082430 0.063312
v -0.043014 -0.083156 0.063312
v -0.042654 -0.083548 0.063312
v -0.042300 -0.083923 0.063312
v -0.041965 -0.084276 0.063312
v -0.041661 -0.084588 0.063312
v -0.041245 -0.084991 0.063312
v -0.040890 -0.085325 0.063312
v -0.040148 -0.085997 0.063312
v -0.039748 -0.086341 0.063312
v -0.039383 -0.086654 0.063312
v -0.031894 -0.092889 0.064141
v -0.048481 -0.073582 0.042019
v -0.047322 -0.075227 0.009843
v -0.047699 -0.075227 0.034078
v -0.024211 -0.092634 0.010196
v -0.023507 -0.092740 0.010196
v -0.022798 -0.092840 0.010196
v -0.022089 -0.092932 0.010196
v -0.021383 -0.092973 0.009490
v -0.020677 -0.092955 0.008784
v -0.020078 -0.092967 0.008784
v -0.045791 -0.073582 0.045266
v -0.020154 -0.092945 0.008514
v -0.044410 -0.075227 0.008514
v -0.045802 -0.073582 0.042019
v -0.045788 -0.073582 0.044119
v -0.045788 -0.073582 0.044830
v -0.047181 -0.076075 0.025437
v -0.047054 -0.076520 0.032101
v -0.046708 -0.077138 0.030690
v -0.046531 -0.077593 0.034936
v -0.045724 -0.078836 0.027866
v -0.045440 -0.079257 0.027154
v -0.045133 -0.079716 0.027866
v -0.044292 -0.080940 0.029278
v -0.043791 -0.081230 0.009490
v -0.043681 -0.081773 0.029984
v -0.044272 -0.081628 0.063312
v -0.043529 -0.081585 0.009490
v -0.042230 -0.083840 0.049071
v -0.042277 -0.083899 0.057547
v -0.041940 -0.084252 0.057547
v -0.041588 -0.084607 0.057547
v -0.040736 -0.085186 0.044119
v -0.040384 -0.085503 0.044119
v -0.039973 -0.085850 0.043407
v -0.039363 -0.085937 0.016555
v -0.039343 -0.085917 0.014437
v -0.038989 -0.086199 0.014437
v -0.038522 -0.086547 0.013731
v -0.038159 -0.086803 0.013031
v -0.038077 -0.086745 0.008649
v -0.037287 -0.087384 0.010484
v -0.036400 -0.087968 0.009490
v -0.036046 -0.088206 0.009490
v -0.035163 -0.088796 0.010525
v -0.033739 -0.089496 0.008514
v -0.032743 -0.090067 0.010196
v -0.032366 -0.090220 0.009684
v -0.031283 -0.090678 0.009490
v -0.030777 -0.090857 0.008784
v -0.030422 -0.090990 0.008784
v -0.029162 -0.091443 0.009490
v -0.028709 -0.091590 0.009490
v -0.028397 -0.091720 0.010196
v -0.027747 -0.091881 0.009490
v -0.027041 -0.092024 0.008649
v -0.026335 -0.092188 0.008649
v -0.025887 -0.092314 0.009490
v -0.024919 -0.092516 0.010196
v -0.024919 -0.092538 0.010902
v -0.047293 -0.075227 0.009102
v -0.047265 -0.075333 0.009490
v -0.047223 -0.075455 0.010196
v -0.024211 -0.092608 0.009490
v -0.024211 -0.092565 0.008514
v -0.022089 -0.092904 0.009490
v -0.021383 -0.092928 0.008784
v -0.020677 -0.092932 0.008514
v -0.047032 -0.075718 0.008514
v -0.047232 -0.075310 0.008649
v -0.046531 -0.076890 0.010902
v -0.047052 -0.075810 0.010196
v -0.046748 -0.076430 0.010196
v -0.046497 -0.077532 0.030690
v -0.046298 -0.077873 0.029984
v -0.045718 -0.078826 0.027154
v -0.045217 -0.079153 0.010902
v -0.044989 -0.079505 0.010902
v -0.044390 -0.080375 0.010196
v -0.044143 -0.080714 0.009490
v -0.043777 -0.081213 0.008784
v -0.043521 -0.081568 0.008784
v -0.043169 -0.081985 0.008784
v -0.043178 -0.081995 0.009490
v -0.042300 -0.083227 0.020802
v -0.041951 -0.083572 0.020096
v -0.041515 -0.083836 0.010902
v -0.041476 -0.084509 0.044824
v -0.041875 -0.084189 0.049071
v -0.040792 -0.084535 0.010196
v -0.040162 -0.085311 0.021507
v -0.040317 -0.085454 0.037760
v -0.038977 -0.086192 0.013731
v -0.040440 -0.084842 0.010196
v -0.040432 -0.084827 0.009490
v -0.040027 -0.085195 0.010196
v -0.039329 -0.085905 0.013731
v -0.038432 -0.086460 0.008784
v -0.038299 -0.086558 0.008514
v -0.037790 -0.086951 0.008514
v -0.037242 -0.087355 0.008784
v -0.036370 -0.087951 0.008784
v -0.036018 -0.088184 0.008784
v -0.035511 -0.088531 0.009490
v -0.035109 -0.088768 0.009490
v -0.034727 -0.088953 0.008784
v -0.034819 -0.088876 0.008514
v -0.032937 -0.089880 0.008514
v -0.032636 -0.090080 0.009467
v -0.031944 -0.090351 0.008784
v -0.031283 -0.090635 0.008649
v -0.030746 -0.090845 0.008514
v -0.030394 -0.090979 0.008514
v -0.029865 -0.091171 0.008649
v -0.029162 -0.091404 0.008649
v -0.028357 -0.091702 0.009490
v -0.028298 -0.091683 0.008784
v -0.027747 -0.091843 0.008784
v -0.027837 -0.091802 0.008514
v -0.025775 -0.092292 0.008514
v -0.025814 -0.092300 0.008784
v -0.024919 -0.092489 0.009490
v -0.046894 -0.076006 0.008514
v -0.046694 -0.076430 0.008784
v -0.024919 -0.092453 0.008649
v -0.023507 -0.092655 0.008514
v -0.022089 -0.092826 0.008514
v -0.021515 -0.092891 0.008514
v -0.046334 -0.077245 0.010902
v -0.046525 -0.076875 0.010196
v -0.045774 -0.078210 0.010902
v -0.045569 -0.078563 0.010902
v -0.045772 -0.078200 0.010472
v -0.045743 -0.078155 0.008784
v -0.045203 -0.079136 0.010196
v -0.044981 -0.079489 0.010196
v -0.044382 -0.080361 0.009490
v -0.044365 -0.080334 0.008784
v -0.044323 -0.080371 0.008514
v -0.043757 -0.081185 0.008514
v -0.043436 -0.081620 0.008514
v -0.043147 -0.081966 0.008514
v -0.042846 -0.082338 0.008784
v -0.042193 -0.083078 0.009490
v -0.042860 -0.082348 0.009490
v -0.042767 -0.082391 0.008514
v -0.041495 -0.083821 0.009490
v -0.041141 -0.084172 0.009490
v -0.040784 -0.084523 0.009490
v -0.040404 -0.084809 0.008784
v -0.040131 -0.085025 0.008514
v -0.039987 -0.085162 0.008784
v -0.040013 -0.085182 0.009490
v -0.038859 -0.086107 0.008784
v -0.039636 -0.085458 0.008784
v -0.037306 -0.087294 0.008514
v -0.036547 -0.087809 0.008514
v -0.035998 -0.088172 0.008514
v -0.035511 -0.088464 0.008514
v -0.035075 -0.088747 0.008784
v -0.032693 -0.089990 0.008514
v -0.028625 -0.091567 0.008514
v -0.028273 -0.091675 0.008514
v -0.046635 -0.076524 0.008514
v -0.046511 -0.076847 0.009490
v -0.046323 -0.077228 0.010196
v -0.046314 -0.077202 0.009490
v -0.046435 -0.076910 0.008514
v -0.045769 -0.078071 0.008514
v -0.045490 -0.078551 0.008649
v -0.045175 -0.079079 0.008784
v -0.045158 -0.079059 0.008514
v -0.042168 -0.083078 0.008784
v -0.042137 -0.083078 0.008514
v -0.041478 -0.083807 0.008784
v -0.041121 -0.084144 0.008649
v -0.040750 -0.084495 0.008649
v -0.041402 -0.083858 0.008514
v -0.041799 -0.083444 0.008514
f 1 2 14
f 1 14 23
f 1 23 36
f 1 36 72
f 1 72 38
f 1 38 24
f 1 24 15
f 1 15 3
f 1 3 4
f 1 4 5
f 1 5 6
f 1 6 7
f 1 7 8
f 1 8 9
f 1 9 10
f 1 10 11
f 1 11 12
f 1 12 13
f 1 13 2
f 2 13 14
f 3 15 4
f 4 16 25
f 4 25 37
f 4 37 73
f 4 73 78
f 4 78 77
f 4 77 76
f 4 76 63
f 4 63 28
f 4 28 17
f 4 17 18
f 4 18 13
f 4 13 12
f 4 12 11
f 4 11 10
f 4 10 9
f 4 9 8
f 4 8 7
f 4 7 6
f 4 6 5
f 4 15 16
f 13 18 19
f 13 19 20
f 13 20 21
f 13 21 14
f 14 21 22
f 14 22 23
f 15 24 25
f 15 25 16
f 17 26 27
f 17 27 19
f 17 19 18
f 17 28 29
f 17 29 26
f 19 27 20
f 20 27 30
f 20 30 40
f 20 40 39
f 20 39 32
f 20 32 31
f 20 31 21
f 21 31 22
f 22 31 32
f 22 32 33
f 22 33 34
f 22 34 23
f 23 35 36
f 23 34 35
f 24 37 25
f 24 38 37
f 26 39 40
f 26 40 30
f 26 30 27
f 26 29 41
f 26 41 42
f 26 42 43
f 26 43 44
f 26 44 45
f 26 45 46
f 26 46 47
f 26 47 48
f 26 48 49
f 26 49 50
f 26 50 51
f 26 51 52
f 26 52 53
f 26 53 54
f 26 54 55
f 26 55 56
f 26 56 57
f 26 57 58
f 26 58 59
f 26 59 60
f 26 60 61
f 26 61 62
f 26 62 39
f 28 63 64
f 28 64 29
f 29 65 41
f 29 64 65
f 32 39 62
f 32 62 66
f 32 66 67
f 32 67 68
f 32 68 69
f 32 69 33
f 33 69 70
f 33 70 34
f 34 70 35
f 35 70 71
f 35 71 36
f 36 71 72
f 37 38 73
f 38 72 74
f 38 74 130
f 38 130 190
f 38 190 189
f 38 189 188
f 38 188 127
f 38 127 182
f 38 182 181
f 38 181 225
f 38 225 224
f 38 224 175
f 38 175 174
f 38 174 223
f 38 223 170
f 38 170 108
f 38 108 169
f 38 169 221
f 38 221 220
f 38 220 219
f 38 219 218
f 38 218 162
f 38 162 161
f 38 161 213
f 38 213 240
f 38 240 241
f 38 241 236
f 38 236 208
f 38 208 204
f 38 204 203
f 38 203 202
f 38 202 201
f 38 201 234
f 38 234 231
f 38 231 230
f 38 230 226
f 38 226 185
f 38 185 131
f 38 131 75
f 38 75 76
f 38 76 77
f 38 77 78
f 38 78 73
f 41 65 42
f 42 65 79
f 42 79 80
f 42 80 43
f 43 80 81
f 43 81 82
f 43 82 44
f 44 82 45
f 45 82 83
f 45 83 46
f 46 83 47
f 47 83 84
f 47 84 48
f 48 84 85
f 48 85 49
f 49 85 86
f 49 86 87
f 49 87 50
f 50 88 89
f 50 89 51
f 50 87 90
f 50 90 88
f 51 91 52
f 51 89 88
f 51 88 90
f 51 90 91
f 52 91 92
f 52 92 53
f 53 92 54
f 54 92 55
f 55 92 93
f 55 93 56
f 56 93 94
f 56 94 57
f 57 94 58
f 58 94 95
f 58 95 59
f 59 95 96
f 59 96 97
f 59 97 60
f 60 97 61
f 61 97 98
f 61 98 62
f 62 98 99
f 62 99 100
f 62 100 101
f 62 101 102
f 62 102 103
f 62 103 104
f 62 104 105
f 62 105 106
f 62 106 107
f 62 107 108
f 62 108 109
f 62 109 110
f 62 110 111
f 62 111 112
f 62 112 113
f 62 113 114
f 62 114 115
f 62 115 116
f 62 116 117
f 62 117 118
f 62 118 119
f 62 119 120
f 62 120 121
f 62 121 122
f 62 122 66
f 63 76 75
f 63 75 123
f 63 123 64
f 64 123 124
f 64 124 125
f 64 125 79
f 64 79 65
f 66 121 126
f 66 126 67
f 66 122 121
f 67 126 127
f 67 127 68
f 68 127 128
f 68 128 69
f 69 128 70
f 70 128 129
f 70 129 71
f 71 129 130
f 71 130 74
f 71 74 72
f 75 131 132
f 75 132 123
f 79 133 80
f 79 125 134
f 79 134 135
f 79 135 133
f 80 133 81
f 81 136 82
f 81 133 136
f 82 136 137
f 82 137 83
f 83 137 138
f 83 138 84
f 84 138 139
f 84 139 140
f 84 140 141
f 84 141 87
f 84 87 85
f 85 87 86
f 87 142 143
f 87 143 144
f 87 144 90
f 87 141 142
f 90 144 145
f 90 145 146
f 90 146 91
f 91 147 148
f 91 148 149
f 91 149 150
f 91 150 151
f 91 151 94
f 91 94 93
f 91 93 92
f 91 146 147
f 94 151 150
f 94 150 95
f 95 150 152
f 95 152 153
f 95 153 154
f 95 154 96
f 96 154 98
f 96 98 97
f 98 154 153
f 98 153 99
f 99 155 100
f 99 153 152
f 99 152 156
f 99 156 157
f 99 157 158
f 99 158 159
f 99 159 155
f 100 155 101
f 101 155 103
f 101 103 102
f 103 160 161
f 103 161 162
f 103 162 104
f 103 155 159
f 103 159 160
f 104 162 163
f 104 163 105
f 105 163 164
f 105 164 106
f 106 164 165
f 106 165 166
f 106 166 107
f 107 166 167
f 107 167 168
f 107 168 108
f 108 168 169
f 108 170 171
f 108 171 109
f 109 171 110
f 110 171 170
f 110 170 172
f 110 172 173
f 110 173 111
f 111 173 112
f 112 173 174
f 112 174 175
f 112 175 113
f 113 175 176
f 113 176 114
f 114 176 177
f 114 177 115
f 115 177 178
f 115 178 116
f 116 178 117
f 117 178 179
f 117 179 180
f 117 180 118
f 118 181 182
f 118 182 119
f 118 180 181
f 119 182 183
f 119 183 120
f 120 183 121
f 121 183 184
f 121 184 126
f 123 132 124
f 124 135 134
f 124 134 125
f 124 132 131
f 124 131 185
f 124 185 186
f 124 186 135
f 126 184 187
f 126 187 127
f 127 188 128
f 127 187 182
f 128 188 189
f 128 189 129
f 129 189 190
f 129 190 130
f 133 191 137
f 133 137 136
f 133 135 192
f 133 192 191
f 135 186 192
f 137 191 138
f 138 191 193
f 138 193 194
f 138 194 139
f 139 194 195
f 139 195 196
f 139 196 197
f 139 197 198
f 139 198 140
f 140 198 199
f 140 199 141
f 141 199 142
f 142 199 143
f 143 199 200
f 143 200 201
f 143 201 202
f 143 202 144
f 144 202 203
f 144 203 204
f 144 204 145
f 145 205 206
f 145 206 207
f 145 207 146
f 145 204 208
f 145 208 205
f 146 207 147
f 147 149 148
f 147 207 206
f 147 206 149
f 149 152 150
f 149 206 209
f 149 209 210
f 149 210 152
f 152 210 211
f 152 211 156
f 156 211 157
f 157 211 212
f 157 212 213
f 157 213 214
f 157 214 215
f 157 215 158
f 158 215 159
f 159 215 160
f 160 215 216
f 160 216 161
f 161 216 217
f 161 217 213
f 162 218 163
f 163 218 164
f 164 218 219
f 164 219 165
f 165 219 220
f 165 220 221
f 165 221 222
f 165 222 166
f 166 222 168
f 166 168 167
f 168 222 169
f 169 222 221
f 170 223 173
f 170 173 172
f 173 223 174
f 175 224 176
f 176 224 177
f 177 224 178
f 178 224 179
f 179 224 225
f 179 225 181
f 179 181 180
f 182 187 183
f 183 187 184
f 185 226 186
f 186 226 227
f 186 227 192
f 191 192 228
f 191 228 195
f 191 195 193
f 192 227 229
f 192 229 228
f 193 195 194
f 195 228 196
f 196 230 231
f 196 231 232
f 196 232 233
f 196 233 197
f 196 228 229
f 196 229 230
f 197 233 198
f 198 233 200
f 198 200 199
f 200 233 201
f 201 233 234
f 205 235 206
f 205 208 235
f 206 235 209
f 208 236 235
f 209 235 237
f 209 237 210
f 210 237 211
f 211 237 238
f 211 238 239
f 211 239 212
f 212 239 213
f 213 217 214
f 213 239 240
f 214 217 215
f 215 217 216
f 226 230 227
f 227 230 229
f 231 234 232
f 232 234 233
f 235 236 241
f 235 241 237
f 237 241 240
f 237 240 238
f 238 240 239
