v -0.044409 -0.075217 0.008528
v -0.028281 -0.039624 0.015854
v -0.028281 -0.039950 0.016803
v -0.019493 -0.034129 0.063713
v -0.044559 -0.075217 0.017979
v -0.047702 -0.075217 0.034084
v -0.047345 -0.075165 0.009757
v -0.047313 -0.075113 0.008659
v -0.047789 -0.073985 0.008558
v -0.049987 -0.063590 0.008053
v -0.047149 -0.063826 0.008024
v -0.028281 -0.036688 0.008024
v -0.045042 -0.075217 0.042004
v -0.044895 -0.075217 0.037759
v -0.044863 -0.075217 0.036696
v -0.019493 -0.031575 0.063511
v -0.019493 -0.034058 0.064918
v -0.047765 -0.075217 0.039071
v -0.055219 -0.062500 0.065684
v -0.047831 -0.074018 0.009496
v -0.048234 -0.072909 0.009074
v -0.048636 -0.071644 0.008528
v -0.050008 -0.062495 0.008024
v -0.048983 -0.070407 0.008528
v -0.049322 -0.069038 0.008528
v -0.049592 -0.067650 0.008528
v -0.049802 -0.066168 0.008528
v -0.049914 -0.065106 0.008528
v -0.055247 -0.061216 0.065684
v -0.041577 -0.041715 0.008024
v -0.030147 -0.034186 0.008041
v -0.028425 -0.033553 0.008457
v -0.019493 -0.028507 0.063606
v -0.046050 -0.073565 0.063416
v -0.048815 -0.073565 0.063416
v -0.047793 -0.075217 0.041992
v -0.019493 -0.033766 0.066373
v -0.047779 -0.075217 0.040508
v -0.055055 -0.062424 0.066954
v -0.050001 -0.061324 0.008190
v -0.049889 -0.059809 0.008053
v -0.049725 -0.058412 0.008053
v -0.049035 -0.054867 0.008047
v -0.048570 -0.053370 0.008035
v -0.046788 -0.049037 0.008024
v -0.055016 -0.060706 0.066907
v -0.054971 -0.059446 0.066800
v -0.055163 -0.059800 0.065684
v -0.036215 -0.037207 0.008053
v -0.033685 -0.035711 0.008053
v -0.044272 -0.044859 0.008113
v -0.042967 -0.043160 0.008421
v -0.042298 -0.042423 0.008409
v -0.043723 -0.036405 0.065452
v -0.040807 -0.040917 0.008065
v -0.031260 -0.034597 0.008053
v -0.031277 -0.029097 0.065328
v -0.028985 -0.028370 0.065595
v -0.027497 -0.027978 0.065470
v -0.025978 -0.027648 0.065684
v -0.022797 -0.027152 0.065328
v -0.020676 -0.027001 0.065328
v -0.019612 -0.027020 0.065714
v -0.019493 -0.027459 0.064253
v -0.019493 -0.032954 0.067613
v -0.019493 -0.031996 0.068266
v -0.051405 -0.062500 0.068587
v -0.052871 -0.062462 0.068569
v -0.054229 -0.062424 0.067952
v -0.054365 -0.061570 0.067904
v -0.054887 -0.061570 0.067227
v -0.054908 -0.057529 0.065577
v -0.049637 -0.057505 0.008415
v -0.049438 -0.056453 0.008415
v -0.054659 -0.056269 0.065328
v -0.053494 -0.051968 0.065625
v -0.053183 -0.050977 0.065328
v -0.048185 -0.052289 0.008053
v -0.047299 -0.050056 0.008053
v -0.046375 -0.048248 0.008071
v -0.052112 -0.048357 0.065126
v -0.050547 -0.045289 0.065328
v -0.054474 -0.058742 0.067661
v -0.054876 -0.058374 0.066657
v -0.054274 -0.057015 0.067566
v -0.039120 -0.039261 0.008415
v -0.038413 -0.038694 0.008421
v -0.037055 -0.037698 0.008439
v -0.037923 -0.032279 0.065328
v -0.035110 -0.036480 0.008350
v -0.034221 -0.035909 0.008783
v -0.036527 -0.031443 0.065280
v -0.032282 -0.035003 0.008065
v -0.045672 -0.046998 0.008190
v -0.045136 -0.046091 0.008421
v -0.049284 -0.043221 0.065328
v -0.047845 -0.041210 0.065215
v -0.043684 -0.044024 0.008415
v -0.046214 -0.039204 0.065328
v -0.044395 -0.037132 0.065328
v -0.045140 -0.037953 0.065803
v -0.043954 -0.036702 0.066378
v -0.042995 -0.035838 0.066248
v -0.040177 -0.033714 0.065898
v -0.039939 -0.040016 0.008415
v -0.032390 -0.029498 0.065684
v -0.031277 -0.029088 0.066034
v -0.030199 -0.028720 0.065963
v -0.027130 -0.027945 0.066289
v -0.024922 -0.027454 0.066034
v -0.023651 -0.027294 0.066094
v -0.021737 -0.027053 0.065684
v -0.020676 -0.027039 0.066034
v -0.019840 -0.027431 0.067251
v -0.019731 -0.028158 0.067999
v -0.019612 -0.030834 0.068539
v -0.051772 -0.060154 0.068652
v -0.052728 -0.059979 0.068587
v -0.053316 -0.059800 0.068438
v -0.053312 -0.061131 0.068444
v -0.054467 -0.059625 0.067708
v -0.053736 -0.058388 0.068177
v -0.054600 -0.056972 0.066741
v -0.054201 -0.054645 0.066289
v -0.053904 -0.053441 0.066034
v -0.053246 -0.051676 0.066741
v -0.052595 -0.049561 0.066034
v -0.047807 -0.051270 0.008196
v -0.052112 -0.048423 0.066177
v -0.051629 -0.047333 0.065737
v -0.050033 -0.044571 0.066741
v -0.049854 -0.044076 0.065660
v -0.053435 -0.055561 0.068070
v -0.053575 -0.054168 0.067607
v -0.054075 -0.055504 0.067316
v -0.037745 -0.032175 0.066034
v -0.036219 -0.031306 0.066230
v -0.033720 -0.030041 0.065809
v -0.049277 -0.043226 0.066034
v -0.048629 -0.042272 0.065684
v -0.047845 -0.041243 0.066212
v -0.047236 -0.040474 0.066325
v -0.047177 -0.040370 0.065328
v -0.046186 -0.039407 0.066919
v -0.044961 -0.037995 0.066877
v -0.043537 -0.036688 0.067156
v -0.041402 -0.035045 0.067352
v -0.040916 -0.034337 0.066444
v -0.038756 -0.032902 0.066509
v -0.029447 -0.028686 0.066836
v -0.031592 -0.029395 0.066853
v -0.028453 -0.028365 0.066741
v -0.025776 -0.028040 0.067198
v -0.022423 -0.027261 0.066515
v -0.024390 -0.027813 0.067198
v -0.023000 -0.028172 0.067886
v -0.021915 -0.028111 0.067928
v -0.020676 -0.028356 0.068106
v -0.019731 -0.029442 0.068498
v -0.021383 -0.030480 0.068587
v -0.026685 -0.031184 0.068622
v -0.049655 -0.049561 0.068670
v -0.051772 -0.057326 0.068652
v -0.052479 -0.057326 0.068587
v -0.052679 -0.056212 0.068504
v -0.053876 -0.053795 0.066741
v -0.052962 -0.050807 0.066568
v -0.053557 -0.052794 0.066847
v -0.052889 -0.051770 0.067542
v -0.052161 -0.049136 0.067138
v -0.050729 -0.045912 0.066901
v -0.048626 -0.042447 0.066741
v -0.049424 -0.043764 0.067020
v -0.052297 -0.053908 0.068444
v -0.053085 -0.053795 0.067987
v -0.037853 -0.032562 0.067097
v -0.034889 -0.030839 0.066966
v -0.048556 -0.042900 0.067435
v -0.046309 -0.040228 0.067643
v -0.044954 -0.038571 0.067560
v -0.042659 -0.036584 0.067845
v -0.042106 -0.035734 0.067506
v -0.040223 -0.034398 0.067572
v -0.030315 -0.029432 0.067619
v -0.028239 -0.028941 0.067726
v -0.032842 -0.030037 0.067144
v -0.026332 -0.028639 0.067869
v -0.024215 -0.028446 0.067993
v -0.022090 -0.029064 0.068391
v -0.021016 -0.029366 0.068492
v -0.024922 -0.030225 0.068575
v -0.028806 -0.031184 0.068599
v -0.032341 -0.032595 0.068622
v -0.039225 -0.036480 0.068658
v -0.046827 -0.043910 0.068658
v -0.047891 -0.045501 0.068658
v -0.050362 -0.050269 0.068622
v -0.051328 -0.052733 0.068611
v -0.051772 -0.055211 0.068628
v -0.051772 -0.054503 0.068611
v -0.052392 -0.051676 0.067987
v -0.052073 -0.050033 0.067732
v -0.051366 -0.048706 0.067880
v -0.051531 -0.047819 0.067174
v -0.050029 -0.045303 0.067489
v -0.051513 -0.051694 0.068480
v -0.052710 -0.052950 0.068053
v -0.038739 -0.033629 0.067821
v -0.036688 -0.032557 0.067934
v -0.033486 -0.030674 0.067673
v -0.049252 -0.044642 0.067880
v -0.048745 -0.043910 0.067904
v -0.047800 -0.042268 0.067726
v -0.046855 -0.041394 0.067946
v -0.045637 -0.039629 0.067809
v -0.040842 -0.035319 0.067981
v -0.044447 -0.039577 0.068421
v -0.043289 -0.038538 0.068474
v -0.041875 -0.036834 0.068296
v -0.032369 -0.030414 0.067898
v -0.031277 -0.030013 0.067892
v -0.029279 -0.029555 0.068017
v -0.026332 -0.029064 0.068136
v -0.025272 -0.028800 0.068094
v -0.024036 -0.029328 0.068409
v -0.027039 -0.030480 0.068569
v -0.029419 -0.030740 0.068533
v -0.032352 -0.031580 0.068486
v -0.037167 -0.034243 0.068527
v -0.040506 -0.036513 0.068551
v -0.043642 -0.040025 0.068646
v -0.045647 -0.041692 0.068581
v -0.047275 -0.043429 0.068539
v -0.049634 -0.047021 0.068427
v -0.050134 -0.048702 0.068522
v -0.050939 -0.050977 0.068569
v -0.051993 -0.050859 0.068047
v -0.051622 -0.049561 0.067958
v -0.050418 -0.046691 0.067839
v -0.050894 -0.047861 0.067940
v -0.050841 -0.050000 0.068486
v -0.039785 -0.034672 0.068035
v -0.037636 -0.033275 0.068017
v -0.035526 -0.032595 0.068290
v -0.034368 -0.031741 0.068159
v -0.049256 -0.045680 0.068237
v -0.048115 -0.044401 0.068438
v -0.047873 -0.043056 0.068070
v -0.046680 -0.042551 0.068510
v -0.039775 -0.035616 0.068474
v -0.031277 -0.030480 0.068177
v -0.028285 -0.030329 0.068492
v -0.036541 -0.033431 0.068403
v -0.038966 -0.035125 0.068492
v -0.038336 -0.034016 0.068183
v -0.037626 -0.034044 0.068397
f 1 2 3
f 1 3 4
f 1 4 5
f 1 5 15
f 1 15 14
f 1 14 13
f 1 13 36
f 1 36 38
f 1 38 18
f 1 18 6
f 1 6 7
f 1 7 8
f 1 8 9
f 1 9 10
f 1 10 11
f 1 11 12
f 1 12 2
f 2 4 3
f 2 12 4
f 4 13 14
f 4 14 15
f 4 15 5
f 4 12 16
f 4 16 33
f 4 33 64
f 4 64 66
f 4 66 65
f 4 65 37
f 4 37 17
f 4 17 13
f 6 18 19
f 6 19 7
f 7 20 8
f 7 19 20
f 8 20 9
f 9 20 21
f 9 21 22
f 9 22 10
f 10 23 11
f 10 22 24
f 10 24 25
f 10 25 26
f 10 26 27
f 10 27 28
f 10 28 19
f 10 19 29
f 10 29 23
f 11 23 45
f 11 45 30
f 11 30 12
f 12 30 31
f 12 31 32
f 12 32 33
f 12 33 16
f 13 17 34
f 13 34 35
f 13 35 36
f 17 37 34
f 18 38 19
f 19 28 27
f 19 27 26
f 19 26 25
f 19 25 24
f 19 24 22
f 19 22 21
f 19 21 20
f 19 38 36
f 19 36 35
f 19 35 39
f 19 39 29
f 23 40 41
f 23 41 42
f 23 42 43
f 23 43 44
f 23 44 45
f 23 29 40
f 29 39 46
f 29 46 47
f 29 47 48
f 29 48 40
f 30 49 50
f 30 50 31
f 30 45 51
f 30 51 52
f 30 52 53
f 30 53 54
f 30 54 55
f 30 55 49
f 31 50 56
f 31 56 57
f 31 57 32
f 32 57 58
f 32 58 59
f 32 59 60
f 32 60 61
f 32 61 62
f 32 62 63
f 32 63 64
f 32 64 33
f 34 37 65
f 34 65 66
f 34 66 67
f 34 67 35
f 35 67 68
f 35 68 69
f 35 69 39
f 39 69 70
f 39 70 71
f 39 71 46
f 40 48 41
f 41 48 72
f 41 72 42
f 42 72 73
f 42 73 74
f 42 74 43
f 43 74 75
f 43 75 76
f 43 76 77
f 43 77 44
f 44 78 79
f 44 79 45
f 44 77 78
f 45 80 51
f 45 79 81
f 45 81 82
f 45 82 80
f 46 71 83
f 46 83 47
f 47 84 48
f 47 83 85
f 47 85 84
f 48 84 72
f 49 55 86
f 49 86 87
f 49 87 88
f 49 88 89
f 49 89 90
f 49 90 50
f 50 90 91
f 50 91 92
f 50 92 93
f 50 93 56
f 51 80 94
f 51 94 95
f 51 95 96
f 51 96 97
f 51 97 98
f 51 98 52
f 52 98 99
f 52 99 100
f 52 100 53
f 53 100 54
f 54 100 101
f 54 101 102
f 54 102 103
f 54 103 104
f 54 104 87
f 54 87 86
f 54 86 105
f 54 105 55
f 55 105 86
f 56 93 106
f 56 106 57
f 57 106 107
f 57 107 108
f 57 108 58
f 58 108 109
f 58 109 59
f 59 109 60
f 60 109 110
f 60 110 61
f 61 110 111
f 61 111 112
f 61 112 62
f 62 112 113
f 62 113 63
f 63 113 114
f 63 114 115
f 63 115 66
f 63 66 64
f 66 116 67
f 66 115 116
f 67 116 117
f 67 117 68
f 68 117 118
f 68 118 119
f 68 119 120
f 68 120 69
f 69 120 70
f 70 83 121
f 70 121 71
f 70 120 119
f 70 119 122
f 70 122 83
f 71 121 83
f 72 75 73
f 72 84 123
f 72 123 124
f 72 124 75
f 73 75 74
f 75 124 125
f 75 125 76
f 76 125 126
f 76 126 127
f 76 127 77
f 77 127 81
f 77 81 128
f 77 128 78
f 78 128 79
f 79 128 81
f 80 82 94
f 81 127 129
f 81 129 130
f 81 130 82
f 82 130 131
f 82 131 132
f 82 132 94
f 83 122 133
f 83 133 85
f 84 85 123
f 85 133 134
f 85 134 135
f 85 135 123
f 87 104 88
f 88 104 89
f 89 104 136
f 89 136 92
f 89 92 90
f 90 92 91
f 92 136 137
f 92 137 138
f 92 138 93
f 93 138 106
f 94 132 95
f 95 132 96
f 96 132 139
f 96 139 140
f 96 140 97
f 97 140 141
f 97 141 142
f 97 142 143
f 97 143 98
f 98 143 99
f 99 143 142
f 99 142 101
f 99 101 100
f 101 142 102
f 102 142 144
f 102 144 145
f 102 145 146
f 102 146 103
f 103 146 147
f 103 147 148
f 103 148 104
f 104 148 149
f 104 149 136
f 106 138 107
f 107 150 108
f 107 138 151
f 107 151 150
f 108 150 152
f 108 152 109
f 109 152 153
f 109 153 110
f 110 154 111
f 110 153 155
f 110 155 154
f 111 154 112
f 112 154 113
f 113 154 114
f 114 154 155
f 114 155 156
f 114 156 157
f 114 157 115
f 115 157 158
f 115 158 159
f 115 159 116
f 116 159 160
f 116 160 117
f 117 160 161
f 117 161 162
f 117 162 163
f 117 163 118
f 118 163 164
f 118 164 119
f 119 164 165
f 119 165 122
f 122 165 133
f 123 166 124
f 123 135 166
f 124 166 125
f 125 166 126
f 126 167 127
f 126 166 168
f 126 168 169
f 126 169 170
f 126 170 167
f 127 167 129
f 129 167 170
f 129 170 171
f 129 171 130
f 130 171 131
f 131 172 139
f 131 139 132
f 131 171 173
f 131 173 172
f 133 165 174
f 133 174 175
f 133 175 134
f 134 169 168
f 134 168 135
f 134 175 169
f 135 168 166
f 136 149 137
f 137 149 176
f 137 176 177
f 137 177 138
f 138 177 151
f 139 172 141
f 139 141 140
f 141 172 142
f 142 172 144
f 144 178 179
f 144 179 180
f 144 180 145
f 144 172 178
f 145 180 146
f 146 180 181
f 146 181 182
f 146 182 147
f 147 182 183
f 147 183 176
f 147 176 149
f 147 149 148
f 150 151 184
f 150 184 185
f 150 185 152
f 151 177 186
f 151 186 184
f 152 185 153
f 153 185 187
f 153 187 155
f 155 187 156
f 156 187 188
f 156 188 157
f 157 188 158
f 158 188 189
f 158 189 190
f 158 190 159
f 159 190 191
f 159 191 160
f 160 191 161
f 161 191 192
f 161 192 193
f 161 193 194
f 161 194 162
f 162 194 195
f 162 195 196
f 162 196 197
f 162 197 198
f 162 198 199
f 162 199 163
f 163 199 164
f 164 199 200
f 164 200 165
f 165 200 198
f 165 198 174
f 169 175 201
f 169 201 202
f 169 202 170
f 170 202 203
f 170 203 204
f 170 204 171
f 171 204 205
f 171 205 173
f 172 173 178
f 173 205 178
f 174 206 207
f 174 207 175
f 174 198 206
f 175 207 201
f 176 183 208
f 176 208 209
f 176 209 177
f 177 209 210
f 177 210 186
f 178 205 211
f 178 211 212
f 178 212 213
f 178 213 179
f 179 213 214
f 179 214 215
f 179 215 180
f 180 215 181
f 181 216 182
f 181 215 217
f 181 217 218
f 181 218 219
f 181 219 216
f 182 216 183
f 183 216 208
f 184 186 220
f 184 220 221
f 184 221 222
f 184 222 185
f 185 222 187
f 186 210 220
f 187 222 223
f 187 223 224
f 187 224 188
f 188 224 225
f 188 225 189
f 189 225 190
f 190 225 191
f 191 225 226
f 191 226 192
f 192 226 227
f 192 227 193
f 193 227 228
f 193 228 229
f 193 229 194
f 194 229 230
f 194 230 231
f 194 231 195
f 195 231 232
f 195 232 233
f 195 233 196
f 196 233 234
f 196 234 235
f 196 235 197
f 197 235 236
f 197 236 198
f 198 200 199
f 198 236 206
f 201 207 206
f 201 206 237
f 201 237 238
f 201 238 202
f 202 238 203
f 203 239 204
f 203 238 240
f 203 240 239
f 204 239 205
f 205 239 211
f 206 241 237
f 206 236 241
f 208 216 242
f 208 242 243
f 208 243 209
f 209 243 244
f 209 244 245
f 209 245 220
f 209 220 210
f 211 239 240
f 211 240 246
f 211 246 247
f 211 247 212
f 212 214 213
f 212 247 248
f 212 248 214
f 214 248 249
f 214 249 217
f 214 217 215
f 216 219 250
f 216 250 242
f 217 249 232
f 217 232 218
f 218 250 219
f 218 232 231
f 218 231 230
f 218 230 250
f 220 245 251
f 220 251 221
f 221 251 222
f 222 251 227
f 222 227 252
f 222 252 223
f 223 252 225
f 223 225 224
f 225 252 226
f 226 252 227
f 227 251 228
f 228 251 245
f 228 245 244
f 228 244 253
f 228 253 229
f 229 253 254
f 229 254 230
f 230 254 250
f 232 249 233
f 233 249 248
f 233 248 247
f 233 247 234
f 234 241 235
f 234 247 246
f 234 246 240
f 234 240 238
f 234 238 241
f 235 241 236
f 237 241 238
f 242 250 255
f 242 255 243
f 243 255 244
f 244 255 256
f 244 256 253
f 250 254 255
f 253 256 254
f 254 256 255
