v -0.055217 -0.062580 0.065542
v -0.055055 -0.062788 0.066958
v -0.052904 -0.062684 0.068573
v -0.051923 -0.062580 0.068646
v -0.055002 -0.062580 0.064336
v -0.055050 -0.064057 0.064433
v -0.055196 -0.064409 0.065334
v -0.055144 -0.064409 0.066040
v -0.054205 -0.062841 0.067984
v -0.054940 -0.066137 0.066661
v -0.054808 -0.064060 0.067299
v -0.053372 -0.063705 0.068463
v -0.052982 -0.066000 0.068511
v -0.051774 -0.069007 0.068644
v -0.050704 -0.062580 0.068424
v -0.031943 -0.092683 0.068614
v -0.031900 -0.091577 0.068480
v -0.050781 -0.062580 0.063424
v -0.054171 -0.062674 0.063620
v -0.054338 -0.067226 0.063812
v -0.054984 -0.065475 0.064448
v -0.054997 -0.066672 0.064920
v -0.055130 -0.065472 0.065688
v -0.054130 -0.064057 0.068046
v -0.054975 -0.066838 0.066002
v -0.054744 -0.067592 0.066747
v -0.054479 -0.067236 0.067405
v -0.054199 -0.067236 0.067757
v -0.054356 -0.065498 0.067724
v -0.053820 -0.067592 0.068018
v -0.052897 -0.067556 0.068500
v -0.052076 -0.069890 0.068577
v -0.051697 -0.071482 0.068582
v -0.051199 -0.072457 0.068599
v -0.051069 -0.071482 0.068636
v -0.044705 -0.083494 0.068618
v -0.037647 -0.089856 0.068620
v -0.049631 -0.062580 0.067824
v -0.031900 -0.090205 0.067994
v -0.032849 -0.093172 0.068528
v -0.031920 -0.093801 0.068437
v -0.031920 -0.095184 0.067648
v -0.031900 -0.094189 0.063361
v -0.053425 -0.069183 0.063492
v -0.053890 -0.065120 0.063508
v -0.048236 -0.062580 0.063693
v -0.034897 -0.086644 0.063317
v -0.041227 -0.081241 0.063318
v -0.044418 -0.081430 0.063318
v -0.053564 -0.070174 0.063553
v -0.054395 -0.068651 0.064096
v -0.054694 -0.068299 0.064627
v -0.054863 -0.067944 0.065334
v -0.054815 -0.067944 0.066040
v -0.054381 -0.069349 0.066977
v -0.054265 -0.068299 0.067504
v -0.053434 -0.069535 0.068040
v -0.053466 -0.068651 0.068130
v -0.052350 -0.071191 0.068406
v -0.051946 -0.072186 0.068453
v -0.051220 -0.074305 0.068466
v -0.050802 -0.075183 0.068482
v -0.050033 -0.076164 0.068559
v -0.050364 -0.074305 0.068610
v -0.048241 -0.078883 0.068603
v -0.045413 -0.082787 0.068616
v -0.042304 -0.087371 0.068462
v -0.039058 -0.089148 0.068614
v -0.047008 -0.081909 0.068537
v -0.049022 -0.062580 0.067152
v -0.031900 -0.089125 0.067023
v -0.034443 -0.093655 0.068031
v -0.033112 -0.094235 0.068036
v -0.036114 -0.091812 0.068470
v -0.033993 -0.094506 0.067534
v -0.032856 -0.095252 0.067164
v -0.032162 -0.095820 0.066407
v -0.031936 -0.095751 0.064245
v -0.032544 -0.094923 0.063555
v -0.033048 -0.094095 0.063353
v -0.034107 -0.093390 0.063337
v -0.032331 -0.090942 0.063318
v -0.031900 -0.088274 0.063571
v -0.053007 -0.071482 0.063494
v -0.052334 -0.073601 0.063484
v -0.048328 -0.062580 0.065054
v -0.031900 -0.088362 0.064959
v -0.034897 -0.087974 0.063317
v -0.037499 -0.084776 0.063317
v -0.041131 -0.085105 0.063317
v -0.043642 -0.082428 0.063318
v -0.045413 -0.084909 0.063371
v -0.052092 -0.074547 0.063502
v -0.052687 -0.073601 0.063660
v -0.053089 -0.072284 0.063672
v -0.053062 -0.073601 0.064013
v -0.053699 -0.072183 0.064312
v -0.054283 -0.069525 0.064243
v -0.054155 -0.071299 0.064935
v -0.054420 -0.070203 0.065750
v -0.054660 -0.069007 0.065688
v -0.053292 -0.071289 0.067830
v -0.054036 -0.071834 0.066040
v -0.053603 -0.073282 0.066163
v -0.052961 -0.074361 0.067072
v -0.052786 -0.073399 0.067756
v -0.052936 -0.072453 0.067890
v -0.052484 -0.072186 0.068214
v -0.051631 -0.073262 0.068441
v -0.052005 -0.074436 0.068067
v -0.050382 -0.076751 0.068419
v -0.049170 -0.078202 0.068522
v -0.041768 -0.088225 0.068377
v -0.038905 -0.090110 0.068483
v -0.045942 -0.083872 0.068398
v -0.044705 -0.085617 0.068294
v -0.047483 -0.082040 0.068355
v -0.048880 -0.079624 0.068407
v -0.047981 -0.081218 0.068380
v -0.048597 -0.062580 0.066330
v -0.031900 -0.088597 0.066113
v -0.036935 -0.091418 0.068456
v -0.037339 -0.092256 0.067973
v -0.035520 -0.093267 0.067948
v -0.035424 -0.093821 0.067556
v -0.034819 -0.094535 0.067055
v -0.032231 -0.095891 0.065130
v -0.034004 -0.095112 0.066322
v -0.033400 -0.095432 0.065688
v -0.033425 -0.095239 0.064301
v -0.033877 -0.094509 0.063651
v -0.036447 -0.092794 0.063423
v -0.038353 -0.091268 0.063349
v -0.036935 -0.091975 0.063344
v -0.039179 -0.086817 0.063317
v -0.037946 -0.087740 0.063317
v -0.035764 -0.089171 0.063318
v -0.034897 -0.089667 0.063318
v -0.033571 -0.090381 0.063318
v -0.051062 -0.077070 0.063501
v -0.042964 -0.083217 0.063318
v -0.040156 -0.085998 0.063317
v -0.044094 -0.087260 0.063475
v -0.045712 -0.085584 0.063472
v -0.046362 -0.084847 0.063475
v -0.047759 -0.082894 0.063463
v -0.048268 -0.082076 0.063469
v -0.052354 -0.075721 0.064038
v -0.052966 -0.074481 0.064335
v -0.053525 -0.073555 0.065042
v -0.053893 -0.072457 0.065335
v -0.053304 -0.074305 0.065688
v -0.052856 -0.075316 0.066361
v -0.052265 -0.076076 0.067197
v -0.051841 -0.075326 0.067957
v -0.052402 -0.073601 0.068012
v -0.051306 -0.076927 0.067846
v -0.050549 -0.078473 0.067862
v -0.044361 -0.086461 0.068105
v -0.042653 -0.088685 0.067833
v -0.040135 -0.089725 0.068298
v -0.038001 -0.090991 0.068381
v -0.045413 -0.084909 0.068278
v -0.048462 -0.081955 0.067921
v -0.047746 -0.082998 0.067926
v -0.049149 -0.080961 0.067857
v -0.038791 -0.091496 0.067914
v -0.036956 -0.093068 0.067507
v -0.036301 -0.093824 0.066974
v -0.035470 -0.094431 0.066351
v -0.034052 -0.095145 0.065008
v -0.035226 -0.094633 0.065512
v -0.035207 -0.094512 0.064514
v -0.036381 -0.093821 0.064317
v -0.037285 -0.093035 0.063894
v -0.037778 -0.092246 0.063491
v -0.039353 -0.091180 0.063462
v -0.041660 -0.089448 0.063471
v -0.051868 -0.076784 0.064002
v -0.048524 -0.082317 0.063613
v -0.050898 -0.078254 0.063744
v -0.045758 -0.085959 0.063572
v -0.047120 -0.083960 0.063487
v -0.051644 -0.077961 0.064460
v -0.052409 -0.076428 0.064628
v -0.052952 -0.075287 0.065215
v -0.052509 -0.076428 0.065335
v -0.052277 -0.076751 0.066194
v -0.051519 -0.077951 0.067017
v -0.050747 -0.079369 0.067111
v -0.049882 -0.079956 0.067723
v -0.046015 -0.085480 0.067725
v -0.043605 -0.088144 0.067564
v -0.042966 -0.089181 0.067063
v -0.040779 -0.090697 0.067363
v -0.039773 -0.090889 0.067892
v -0.048707 -0.082594 0.067249
v -0.047047 -0.084202 0.067716
v -0.039396 -0.091610 0.067464
v -0.038572 -0.092429 0.067102
v -0.037978 -0.093009 0.066723
v -0.036499 -0.093984 0.065688
v -0.037810 -0.093280 0.065600
v -0.038081 -0.092986 0.064538
v -0.038965 -0.092383 0.064411
v -0.039709 -0.091754 0.064240
v -0.041469 -0.090312 0.063978
v -0.042299 -0.089543 0.063857
v -0.040439 -0.090479 0.063535
v -0.050120 -0.080520 0.064157
v -0.050177 -0.079643 0.063759
v -0.046417 -0.085199 0.063596
v -0.047093 -0.084629 0.063792
v -0.047967 -0.083755 0.063992
v -0.045933 -0.086324 0.064098
v -0.044507 -0.087841 0.064121
v -0.052023 -0.077507 0.065194
v -0.050948 -0.079324 0.064463
v -0.051816 -0.077843 0.066039
v -0.050163 -0.080820 0.066379
v -0.049318 -0.081935 0.066948
v -0.045753 -0.086494 0.067107
v -0.044927 -0.087247 0.067232
v -0.044523 -0.088053 0.066279
v -0.043123 -0.089347 0.066129
v -0.039782 -0.091806 0.066715
v -0.048668 -0.083080 0.066698
v -0.047837 -0.084133 0.066843
v -0.039332 -0.092324 0.065688
v -0.040939 -0.091007 0.064421
v -0.043164 -0.089194 0.064320
v -0.049716 -0.081362 0.064328
v -0.046609 -0.085692 0.064292
v -0.048036 -0.084048 0.064628
v -0.048727 -0.082937 0.064346
v -0.045372 -0.087162 0.064490
v -0.051313 -0.078939 0.065688
v -0.049350 -0.082157 0.064628
v -0.049932 -0.081362 0.065335
v -0.050738 -0.079999 0.065688
v -0.049172 -0.082545 0.065688
v -0.046536 -0.085897 0.066678
v -0.045625 -0.087068 0.065688
v -0.042859 -0.089588 0.065286
v -0.042096 -0.090241 0.065688
v -0.041220 -0.090951 0.065688
v -0.040398 -0.091568 0.065740
v -0.048558 -0.083448 0.065688
v -0.047917 -0.084322 0.065685
v -0.047339 -0.084942 0.066450
v -0.041793 -0.090420 0.064628
v -0.047323 -0.085007 0.064733
v -0.046397 -0.086236 0.065688
v -0.047072 -0.085415 0.065482
f 1 2 3
f 1 3 4
f 1 4 15
f 1 15 38
f 1 38 70
f 1 70 120
f 1 120 86
f 1 86 46
f 1 46 18
f 1 18 5
f 1 5 6
f 1 6 7
f 1 7 8
f 1 8 2
f 2 9 3
f 2 8 10
f 2 10 11
f 2 11 9
f 3 9 12
f 3 12 13
f 3 13 14
f 3 14 4
f 4 14 16
f 4 16 17
f 4 17 15
f 5 18 19
f 5 19 20
f 5 20 6
f 6 20 21
f 6 21 7
f 7 21 22
f 7 22 23
f 7 23 8
f 8 23 10
f 9 11 24
f 9 24 12
f 10 25 26
f 10 26 27
f 10 27 11
f 10 23 25
f 11 27 28
f 11 28 29
f 11 29 24
f 12 24 30
f 12 30 31
f 12 31 13
f 13 31 14
f 14 31 32
f 14 32 33
f 14 33 34
f 14 34 35
f 14 35 36
f 14 36 37
f 14 37 16
f 15 17 39
f 15 39 38
f 16 37 40
f 16 40 41
f 16 41 17
f 17 41 42
f 17 42 43
f 17 43 83
f 17 83 87
f 17 87 121
f 17 121 71
f 17 71 39
f 18 44 45
f 18 45 19
f 18 46 47
f 18 47 48
f 18 48 49
f 18 49 44
f 19 45 20
f 20 45 50
f 20 50 51
f 20 51 21
f 21 51 52
f 21 52 22
f 22 52 53
f 22 53 23
f 23 53 25
f 24 29 28
f 24 28 30
f 25 53 54
f 25 54 26
f 26 54 55
f 26 55 27
f 27 55 56
f 27 56 28
f 28 56 57
f 28 57 30
f 30 57 58
f 30 58 31
f 31 58 59
f 31 59 33
f 31 33 32
f 33 59 60
f 33 60 61
f 33 61 62
f 33 62 63
f 33 63 34
f 34 63 64
f 34 64 35
f 35 64 65
f 35 65 66
f 35 66 36
f 36 67 68
f 36 68 37
f 36 66 69
f 36 69 67
f 37 68 40
f 38 39 70
f 39 71 70
f 40 72 73
f 40 73 41
f 40 68 74
f 40 74 72
f 41 73 42
f 42 75 76
f 42 76 77
f 42 77 78
f 42 78 43
f 42 73 75
f 43 78 79
f 43 79 80
f 43 80 81
f 43 81 82
f 43 82 83
f 44 84 50
f 44 50 45
f 44 49 85
f 44 85 84
f 46 83 47
f 46 86 87
f 46 87 83
f 47 83 82
f 47 82 88
f 47 88 136
f 47 136 135
f 47 135 142
f 47 142 90
f 47 90 89
f 47 89 48
f 48 89 49
f 49 89 90
f 49 90 91
f 49 91 92
f 49 92 85
f 50 84 85
f 50 85 93
f 50 93 94
f 50 94 95
f 50 95 96
f 50 96 97
f 50 97 51
f 51 97 98
f 51 98 52
f 52 98 99
f 52 99 53
f 53 99 100
f 53 100 101
f 53 101 54
f 54 101 100
f 54 100 55
f 55 102 56
f 55 100 103
f 55 103 104
f 55 104 105
f 55 105 106
f 55 106 102
f 56 102 57
f 57 102 107
f 57 107 108
f 57 108 59
f 57 59 58
f 59 108 60
f 60 108 109
f 60 109 61
f 61 110 111
f 61 111 62
f 61 109 108
f 61 108 110
f 62 111 63
f 63 111 112
f 63 112 65
f 63 65 64
f 65 112 69
f 65 69 66
f 67 113 114
f 67 114 68
f 67 69 115
f 67 115 116
f 67 116 113
f 68 114 74
f 69 117 115
f 69 112 118
f 69 118 119
f 69 119 117
f 70 71 120
f 71 121 120
f 72 74 122
f 72 122 123
f 72 123 124
f 72 124 125
f 72 125 75
f 72 75 73
f 74 114 122
f 75 126 76
f 75 125 126
f 76 126 77
f 77 127 78
f 77 126 128
f 77 128 129
f 77 129 127
f 78 127 130
f 78 130 131
f 78 131 79
f 79 131 132
f 79 132 80
f 80 132 133
f 80 133 134
f 80 134 81
f 81 134 135
f 81 135 136
f 81 136 137
f 81 137 138
f 81 138 139
f 81 139 82
f 82 139 136
f 82 136 88
f 85 140 93
f 85 92 140
f 86 120 121
f 86 121 87
f 90 141 91
f 90 142 133
f 90 133 141
f 91 141 92
f 92 141 133
f 92 133 143
f 92 143 144
f 92 144 145
f 92 145 146
f 92 146 147
f 92 147 140
f 93 140 148
f 93 148 94
f 94 148 96
f 94 96 95
f 96 148 149
f 96 149 97
f 97 99 98
f 97 149 150
f 97 150 99
f 99 150 151
f 99 151 100
f 100 151 103
f 102 106 107
f 103 151 104
f 104 152 153
f 104 153 105
f 104 151 152
f 105 153 154
f 105 154 106
f 106 154 155
f 106 155 156
f 106 156 107
f 107 156 108
f 108 156 110
f 110 156 155
f 110 155 111
f 111 155 157
f 111 157 158
f 111 158 118
f 111 118 112
f 113 116 159
f 113 159 160
f 113 160 161
f 113 161 114
f 114 161 162
f 114 162 122
f 115 163 116
f 115 117 163
f 116 163 159
f 117 119 164
f 117 164 165
f 117 165 163
f 118 158 166
f 118 166 164
f 118 164 119
f 122 162 123
f 123 162 167
f 123 167 168
f 123 168 124
f 124 168 125
f 125 168 126
f 126 168 169
f 126 169 170
f 126 170 128
f 127 129 171
f 127 171 130
f 128 170 172
f 128 172 129
f 129 172 171
f 130 171 173
f 130 173 174
f 130 174 131
f 131 174 175
f 131 175 176
f 131 176 132
f 132 176 177
f 132 177 133
f 133 177 178
f 133 178 143
f 133 142 134
f 134 142 135
f 136 139 138
f 136 138 137
f 140 179 148
f 140 147 180
f 140 180 181
f 140 181 179
f 143 178 182
f 143 182 144
f 144 182 145
f 145 183 146
f 145 182 183
f 146 180 147
f 146 183 180
f 148 179 184
f 148 184 185
f 148 185 149
f 149 185 150
f 150 185 186
f 150 186 152
f 150 152 151
f 152 186 187
f 152 187 153
f 153 187 188
f 153 188 189
f 153 189 154
f 154 189 157
f 154 157 155
f 157 189 158
f 158 190 191
f 158 191 166
f 158 189 190
f 159 163 192
f 159 192 160
f 160 193 194
f 160 194 195
f 160 195 196
f 160 196 161
f 160 192 193
f 161 196 162
f 162 196 167
f 163 165 192
f 164 197 165
f 164 166 197
f 165 198 192
f 165 197 198
f 166 191 197
f 167 196 199
f 167 199 168
f 168 199 200
f 168 200 169
f 169 200 201
f 169 201 170
f 170 202 172
f 170 201 202
f 171 172 173
f 172 202 173
f 173 202 203
f 173 203 204
f 173 204 174
f 174 204 175
f 175 204 205
f 175 205 206
f 175 206 207
f 175 207 177
f 175 177 176
f 177 207 208
f 177 208 209
f 177 209 178
f 178 208 182
f 178 209 208
f 179 181 210
f 179 210 184
f 180 210 211
f 180 211 181
f 180 183 212
f 180 212 213
f 180 213 214
f 180 214 210
f 181 211 210
f 182 215 213
f 182 213 212
f 182 212 183
f 182 208 216
f 182 216 215
f 184 217 185
f 184 210 218
f 184 218 217
f 185 217 187
f 185 187 186
f 187 217 219
f 187 219 188
f 188 219 189
f 189 219 220
f 189 220 190
f 190 220 221
f 190 221 197
f 190 197 191
f 192 198 222
f 192 222 223
f 192 223 193
f 193 223 194
f 194 223 224
f 194 224 225
f 194 225 226
f 194 226 195
f 195 226 200
f 195 200 199
f 195 199 196
f 197 221 227
f 197 227 228
f 197 228 198
f 198 228 222
f 200 226 201
f 201 226 229
f 201 229 203
f 201 203 202
f 203 229 204
f 204 229 205
f 205 229 230
f 205 230 206
f 206 230 207
f 207 230 231
f 207 231 208
f 208 231 216
f 210 232 218
f 210 214 232
f 213 215 233
f 213 233 214
f 214 233 234
f 214 234 235
f 214 235 232
f 215 216 236
f 215 236 233
f 216 231 236
f 217 218 237
f 217 237 219
f 218 232 238
f 218 238 239
f 218 239 240
f 218 240 237
f 219 237 220
f 220 237 240
f 220 240 241
f 220 241 227
f 220 227 221
f 222 224 223
f 222 228 242
f 222 242 224
f 224 242 243
f 224 243 225
f 225 243 244
f 225 244 245
f 225 245 246
f 225 246 226
f 226 246 247
f 226 247 229
f 227 248 249
f 227 249 250
f 227 250 228
f 227 241 248
f 228 250 242
f 229 247 230
f 230 251 231
f 230 247 251
f 231 251 244
f 231 244 243
f 231 243 236
f 232 235 238
f 233 252 234
f 233 236 252
f 234 249 248
f 234 248 238
f 234 238 235
f 234 252 249
f 236 243 253
f 236 253 252
f 238 248 241
f 238 241 239
f 239 241 240
f 242 250 253
f 242 253 243
f 244 251 245
f 245 251 246
f 246 251 247
f 249 252 254
f 249 254 250
f 250 254 253
f 252 253 254
