v -0.049898 -0.062705 0.007501
v -0.045757 -0.060698 -0.000452
v -0.045828 -0.066973 -0.000145
v -0.049520 -0.066168 0.007089
v -0.049862 -0.064599 0.007814
v -0.049785 -0.066233 0.008399
v -0.049856 -0.060674 0.007599
v -0.045757 -0.065641 -0.000256
v -0.045586 -0.057146 -0.000209
v -0.045420 -0.058596 -0.000523
v -0.044180 -0.070383 -0.000780
v -0.045166 -0.069808 -0.000179
v -0.049396 -0.067316 0.007161
v -0.047588 -0.063829 0.008513
v -0.047671 -0.050972 0.008020
v -0.049697 -0.059117 0.007616
v -0.049585 -0.067583 0.008286
v -0.048551 -0.071833 0.008174
v -0.046932 -0.075864 0.008344
v -0.040128 -0.085004 0.008513
v -0.049366 -0.056957 0.007537
v -0.048823 -0.054571 0.007577
v -0.045143 -0.055388 -0.000164
v -0.044706 -0.055749 -0.000562
v -0.004102 -0.083276 -0.000579
v -0.015023 -0.087728 -0.000568
v -0.025975 -0.087935 -0.000433
v -0.038828 -0.080239 -0.000486
v -0.041126 -0.077374 -0.000491
v -0.043400 -0.073810 -0.000352
v -0.044345 -0.072531 -0.000062
v -0.041876 -0.049569 -0.000577
v -0.005460 -0.041423 -0.000773
v -0.047216 -0.074740 0.007171
v -0.048817 -0.070542 0.007761
v -0.049218 -0.068767 0.007515
v -0.002253 -0.037930 0.008163
v -0.012543 -0.033177 0.008142
v -0.034912 -0.036433 0.008020
v -0.042934 -0.043211 0.008020
v -0.045704 -0.047106 0.007996
v -0.020068 -0.090309 0.008513
v -0.046549 -0.048604 0.007932
v -0.047198 -0.049871 0.007852
v -0.048214 -0.052736 0.007565
v -0.047860 -0.073538 0.007769
v -0.046489 -0.076474 0.007445
v -0.045438 -0.078558 0.008286
v -0.044316 -0.080298 0.008213
v -0.042603 -0.082512 0.008174
v -0.041002 -0.084205 0.008230
v -0.037848 -0.086816 0.007833
v -0.036838 -0.087597 0.008399
v -0.032331 -0.090131 0.008399
v -0.047169 -0.050634 0.007010
v -0.044292 -0.053576 -0.000354
v -0.042579 -0.050628 -0.000540
v 0.005485 -0.068287 -0.000569
v 0.001362 -0.078226 -0.000329
v -0.000481 -0.080571 -0.000300
v -0.001272 -0.081689 -0.000017
v -0.002944 -0.083021 -0.000083
v -0.005124 -0.084199 -0.000437
v -0.006394 -0.084927 -0.000466
v -0.011314 -0.087307 -0.000353
v -0.016790 -0.088544 -0.000426
v -0.027446 -0.087834 -0.000215
v -0.030086 -0.086638 -0.000332
v -0.031669 -0.085715 -0.000398
v -0.022614 -0.088716 -0.000302
v -0.024906 -0.088367 -0.000308
v -0.037458 -0.081689 -0.000446
v -0.039838 -0.079617 -0.000267
v -0.040512 -0.078581 -0.000358
v -0.042195 -0.076699 0.000011
v -0.042987 -0.075184 -0.000112
v -0.040866 -0.078605 -0.000083
v -0.042697 -0.049510 -0.000126
v -0.041167 -0.048154 -0.000477
v -0.037458 -0.043489 -0.000429
v -0.031025 -0.039262 -0.000469
v -0.018556 -0.036841 -0.000506
v -0.011485 -0.038250 -0.000575
v -0.007563 -0.039333 -0.000243
v -0.006258 -0.040269 -0.000402
v -0.002719 -0.042725 -0.000515
v 0.001451 -0.047367 -0.000404
v 0.004593 -0.053991 -0.000603
v 0.005928 -0.046650 0.008143
v 0.003678 -0.043519 0.008025
v 0.001463 -0.041044 0.007818
v -0.000634 -0.039185 0.007786
v -0.004102 -0.036823 0.007643
v -0.006275 -0.035521 0.007935
v -0.010641 -0.033763 0.007830
v -0.012897 -0.033301 0.007351
v -0.014096 -0.032893 0.008034
v -0.026371 -0.033106 0.007778
v -0.031663 -0.034834 0.007794
v -0.033412 -0.035675 0.007698
v -0.034617 -0.036397 0.007532
v -0.035987 -0.037125 0.007808
v -0.038562 -0.039008 0.007667
v -0.039667 -0.039961 0.007639
v -0.040600 -0.040867 0.007610
v -0.041982 -0.042299 0.007659
v -0.043631 -0.044288 0.007493
v -0.044333 -0.045200 0.007575
v -0.045054 -0.046224 0.007688
v -0.045716 -0.047526 0.007262
v -0.021438 -0.092872 0.008286
v -0.017469 -0.092830 0.008142
v -0.003552 -0.088160 0.008125
v 0.005757 -0.078948 0.008122
v 0.009974 -0.068328 0.008125
v 0.010288 -0.058667 0.008163
v -0.046478 -0.049202 0.006992
v -0.044582 -0.079535 0.007094
v -0.043317 -0.081518 0.007783
v -0.041593 -0.083359 0.007243
v -0.040500 -0.084407 0.007069
v -0.038675 -0.085934 0.007043
v -0.036879 -0.087343 0.007254
v -0.035869 -0.088213 0.008286
v -0.034800 -0.088852 0.008286
v -0.031604 -0.090267 0.007338
v -0.030954 -0.090723 0.008343
v -0.027457 -0.091871 0.008286
v -0.025981 -0.092221 0.008286
v -0.033760 -0.089438 0.008174
v -0.043418 -0.051345 -0.000275
v 0.005958 -0.068636 -0.000208
v 0.005184 -0.069714 -0.000497
v 0.006283 -0.060189 -0.000448
v 0.006389 -0.061894 -0.000436
v 0.005798 -0.067056 -0.000489
v 0.000919 -0.079292 -0.000049
v 0.004192 -0.073218 -0.000265
v 0.002656 -0.076433 -0.000215
v 0.002313 -0.083146 0.007288
v 0.001197 -0.084288 0.007374
v -0.001379 -0.086555 0.007681
v -0.003865 -0.088095 0.007157
v -0.007551 -0.085744 -0.000336
v -0.008957 -0.086585 -0.000239
v -0.010233 -0.087372 -0.000020
v -0.012560 -0.087858 -0.000218
v -0.013960 -0.088260 -0.000232
v -0.015354 -0.088438 -0.000319
v -0.015673 -0.088799 -0.000071
v -0.017676 -0.089119 0.000095
v -0.019259 -0.089160 0.000012
v -0.020724 -0.088882 -0.000259
v -0.028828 -0.087461 -0.000141
v -0.024026 -0.088781 -0.000035
v -0.026589 -0.091794 0.007068
v -0.033701 -0.085229 -0.000017
v -0.033429 -0.084957 -0.000312
v -0.034493 -0.084318 -0.000291
v -0.037304 -0.082447 -0.000081
v -0.042172 -0.048314 0.000090
v -0.041161 -0.047000 -0.000087
v -0.040128 -0.045656 -0.000078
v -0.035136 -0.041251 -0.000342
v -0.032165 -0.039256 -0.000131
v -0.029548 -0.038108 -0.000179
v -0.027924 -0.037581 -0.000232
v -0.025969 -0.037273 -0.000369
v -0.023275 -0.036628 -0.000267
v -0.019962 -0.036403 -0.000214
v -0.017138 -0.036190 0.000044
v -0.015726 -0.036841 -0.000388
v -0.013606 -0.037356 -0.000447
v -0.011981 -0.037368 -0.000186
v -0.009920 -0.037901 0.000181
v -0.007829 -0.035059 0.007080
v -0.000782 -0.044472 -0.000417
v 0.000140 -0.040062 0.007094
v 0.002827 -0.048977 -0.000227
v 0.003577 -0.050664 -0.000383
v 0.005149 -0.053754 -0.000080
v 0.005343 -0.054867 -0.000263
v 0.006241 -0.058502 -0.000249
v 0.009715 -0.055571 0.008143
v 0.008356 -0.051552 0.007810
v 0.007340 -0.049456 0.007535
v 0.006608 -0.047994 0.007692
v 0.005887 -0.047005 0.007162
v 0.004717 -0.045052 0.007602
v 0.002597 -0.042305 0.007589
v -0.009483 -0.034219 0.007645
v -0.011769 -0.033627 0.007249
v -0.016075 -0.032697 0.007615
v -0.014610 -0.036735 -0.000213
v -0.017640 -0.032467 0.007748
v -0.019395 -0.032395 0.007686
v -0.023842 -0.032727 0.007631
v -0.024912 -0.032958 0.007334
v -0.027747 -0.033532 0.007551
v -0.029844 -0.034225 0.007516
v -0.036968 -0.037853 0.007558
v -0.024516 -0.092422 0.007912
v -0.023057 -0.092440 0.007009
v -0.021722 -0.092594 0.007047
v -0.020375 -0.092830 0.007819
v -0.018822 -0.092759 0.007592
v -0.016394 -0.092611 0.007675
v -0.014935 -0.092380 0.007530
v -0.013907 -0.092292 0.008021
v -0.006187 -0.089580 0.007743
v -0.002519 -0.087402 0.007742
v -0.000144 -0.085626 0.007965
v -0.009371 -0.090977 0.007916
v 0.004481 -0.080742 0.007722
v 0.005137 -0.079789 0.007685
v 0.006584 -0.077463 0.007982
v 0.008238 -0.073911 0.007771
v 0.009295 -0.070951 0.007818
v 0.009579 -0.069720 0.007707
v 0.009774 -0.068636 0.007351
v 0.010116 -0.067192 0.007810
v 0.010370 -0.065463 0.008125
v 0.010447 -0.062580 0.007679
v 0.010335 -0.060319 0.007541
v 0.010039 -0.057341 0.007774
v -0.035597 -0.083749 -0.000088
v -0.035568 -0.088112 0.007133
v -0.034428 -0.088876 0.007345
v -0.029791 -0.091025 0.007567
v -0.033175 -0.089486 0.007206
v -0.028574 -0.091498 0.007848
v 0.008852 -0.072153 0.007593
v 0.004900 -0.071673 -0.000269
v 0.006300 -0.065345 -0.000318
v 0.006472 -0.066760 0.000087
v 0.010116 -0.066126 0.007243
v 0.004475 -0.080381 0.006926
v 0.003518 -0.081749 0.007278
v 0.003731 -0.074870 -0.000037
v -0.005100 -0.088852 0.007347
v -0.007764 -0.090249 0.007637
v -0.010906 -0.091463 0.007670
v -0.012235 -0.091836 0.007707
v -0.025053 -0.036433 0.000301
v -0.021728 -0.036066 0.000164
v -0.018763 -0.035989 0.000226
v 0.004392 -0.051724 -0.000009
v 0.009023 -0.053932 0.007164
v 0.005911 -0.056436 -0.000133
v 0.009650 -0.056489 0.007077
v 0.008846 -0.052931 0.007672
v -0.021019 -0.032508 0.007519
v -0.022437 -0.032751 0.007109
v 0.006572 -0.076841 0.006944
v 0.007293 -0.075758 0.007348
v 0.010406 -0.064108 0.007793
f 1 2 3
f 1 3 4
f 1 4 5
f 1 5 6
f 1 6 7
f 1 7 2
f 2 8 3
f 2 7 9
f 2 9 10
f 2 10 11
f 2 11 8
f 3 8 11
f 3 11 12
f 3 12 13
f 3 13 4
f 4 13 5
f 5 13 6
f 6 14 15
f 6 15 16
f 6 16 7
f 6 13 17
f 6 17 18
f 6 18 19
f 6 19 20
f 6 20 14
f 7 16 9
f 9 21 22
f 9 22 23
f 9 23 24
f 9 24 10
f 9 16 21
f 10 24 11
f 11 25 26
f 11 26 27
f 11 27 28
f 11 28 29
f 11 29 30
f 11 30 31
f 11 31 12
f 11 24 32
f 11 32 33
f 11 33 25
f 12 31 34
f 12 34 35
f 12 35 36
f 12 36 13
f 13 36 17
f 14 37 38
f 14 38 39
f 14 39 40
f 14 40 41
f 14 41 15
f 14 20 42
f 14 42 37
f 15 41 43
f 15 43 44
f 15 44 45
f 15 45 22
f 15 22 21
f 15 21 16
f 17 36 18
f 18 36 35
f 18 35 46
f 18 46 19
f 19 46 34
f 19 34 47
f 19 47 48
f 19 48 20
f 20 48 49
f 20 49 50
f 20 50 51
f 20 51 52
f 20 52 53
f 20 53 54
f 20 54 42
f 22 45 23
f 23 45 55
f 23 55 56
f 23 56 24
f 24 56 57
f 24 57 32
f 25 33 58
f 25 58 59
f 25 59 60
f 25 60 61
f 25 61 62
f 25 62 63
f 25 63 64
f 25 64 26
f 26 65 66
f 26 66 27
f 26 64 65
f 27 67 68
f 27 68 69
f 27 69 28
f 27 66 70
f 27 70 71
f 27 71 67
f 28 72 73
f 28 73 74
f 28 74 29
f 28 69 72
f 29 75 76
f 29 76 30
f 29 74 77
f 29 77 75
f 30 76 31
f 31 76 34
f 32 57 78
f 32 78 79
f 32 79 80
f 32 80 81
f 32 81 33
f 33 81 82
f 33 82 83
f 33 83 84
f 33 84 85
f 33 85 86
f 33 86 87
f 33 87 88
f 33 88 58
f 34 46 35
f 34 76 47
f 37 89 90
f 37 90 91
f 37 91 92
f 37 92 93
f 37 93 94
f 37 94 38
f 37 42 89
f 38 94 95
f 38 95 96
f 38 96 97
f 38 97 98
f 38 98 39
f 39 98 99
f 39 99 100
f 39 100 101
f 39 101 102
f 39 102 103
f 39 103 40
f 40 103 104
f 40 104 105
f 40 105 106
f 40 106 107
f 40 107 108
f 40 108 41
f 41 109 110
f 41 110 43
f 41 108 109
f 42 54 111
f 42 111 112
f 42 112 113
f 42 113 114
f 42 114 115
f 42 115 116
f 42 116 89
f 43 110 44
f 44 55 45
f 44 110 117
f 44 117 55
f 47 76 118
f 47 118 48
f 48 118 49
f 49 118 119
f 49 119 50
f 50 120 51
f 50 119 120
f 51 120 121
f 51 121 52
f 52 121 122
f 52 122 123
f 52 123 53
f 53 123 124
f 53 124 125
f 53 125 54
f 54 126 127
f 54 127 128
f 54 128 129
f 54 129 111
f 54 125 130
f 54 130 126
f 55 117 78
f 55 78 131
f 55 131 56
f 56 131 57
f 57 131 78
f 58 132 133
f 58 133 59
f 58 88 134
f 58 134 135
f 58 135 136
f 58 136 132
f 59 137 60
f 59 133 138
f 59 138 139
f 59 139 137
f 60 137 61
f 61 140 141
f 61 141 62
f 61 137 140
f 62 141 142
f 62 142 143
f 62 143 63
f 63 143 144
f 63 144 64
f 64 144 65
f 65 144 145
f 65 145 146
f 65 146 147
f 65 147 148
f 65 148 149
f 65 149 66
f 66 149 150
f 66 150 151
f 66 151 152
f 66 152 153
f 66 153 70
f 67 154 68
f 67 71 155
f 67 155 156
f 67 156 154
f 68 154 157
f 68 157 158
f 68 158 69
f 69 158 72
f 70 155 71
f 70 153 155
f 72 159 160
f 72 160 73
f 72 158 159
f 73 77 74
f 73 160 121
f 73 121 120
f 73 120 77
f 75 77 118
f 75 118 76
f 77 120 118
f 78 117 161
f 78 161 162
f 78 162 79
f 79 162 163
f 79 163 80
f 80 164 81
f 80 163 164
f 81 164 165
f 81 165 166
f 81 166 167
f 81 167 168
f 81 168 82
f 82 169 170
f 82 170 171
f 82 171 172
f 82 172 173
f 82 173 83
f 82 168 169
f 83 173 174
f 83 174 84
f 84 174 175
f 84 175 176
f 84 176 93
f 84 93 85
f 85 93 86
f 86 177 87
f 86 93 178
f 86 178 177
f 87 179 180
f 87 180 88
f 87 177 179
f 88 180 181
f 88 181 182
f 88 182 183
f 88 183 134
f 89 116 184
f 89 184 185
f 89 185 186
f 89 186 187
f 89 187 188
f 89 188 189
f 89 189 90
f 90 189 190
f 90 190 91
f 91 190 178
f 91 178 92
f 92 178 93
f 93 176 94
f 94 176 191
f 94 191 95
f 95 191 192
f 95 192 96
f 96 193 97
f 96 192 194
f 96 194 171
f 96 171 193
f 97 193 195
f 97 195 196
f 97 196 98
f 98 196 197
f 98 197 198
f 98 198 199
f 98 199 99
f 99 199 200
f 99 200 166
f 99 166 165
f 99 165 100
f 100 165 101
f 101 165 201
f 101 201 102
f 102 201 103
f 103 201 164
f 103 164 104
f 104 164 163
f 104 163 105
f 105 163 106
f 106 163 107
f 107 163 162
f 107 162 108
f 108 162 161
f 108 161 110
f 108 110 109
f 110 161 117
f 111 129 202
f 111 202 203
f 111 203 204
f 111 204 205
f 111 205 112
f 112 205 206
f 112 206 207
f 112 207 208
f 112 208 209
f 112 209 113
f 113 210 143
f 113 143 211
f 113 211 142
f 113 142 212
f 113 212 114
f 113 209 213
f 113 213 210
f 114 214 215
f 114 215 216
f 114 216 115
f 114 212 214
f 115 216 217
f 115 217 218
f 115 218 219
f 115 219 220
f 115 220 221
f 115 221 222
f 115 222 116
f 116 222 223
f 116 223 224
f 116 224 225
f 116 225 184
f 118 120 119
f 121 160 122
f 122 157 123
f 122 160 226
f 122 226 157
f 123 157 227
f 123 227 228
f 123 228 124
f 124 228 125
f 125 228 130
f 126 229 127
f 126 130 230
f 126 230 154
f 126 154 229
f 127 229 231
f 127 231 128
f 128 231 156
f 128 156 129
f 129 156 202
f 130 228 230
f 132 220 232
f 132 232 233
f 132 233 133
f 132 136 234
f 132 234 235
f 132 235 220
f 133 233 138
f 134 183 224
f 134 224 135
f 135 223 236
f 135 236 235
f 135 235 234
f 135 234 136
f 135 224 223
f 137 139 237
f 137 237 238
f 137 238 140
f 138 239 139
f 138 233 239
f 139 239 237
f 140 238 214
f 140 214 212
f 140 212 141
f 141 212 142
f 142 211 143
f 143 145 144
f 143 210 240
f 143 240 145
f 145 240 146
f 146 148 147
f 146 240 210
f 146 210 241
f 146 241 242
f 146 242 148
f 148 242 150
f 148 150 149
f 150 242 243
f 150 243 208
f 150 208 151
f 151 208 207
f 151 207 206
f 151 206 152
f 152 206 204
f 152 204 155
f 152 155 153
f 154 156 229
f 154 230 157
f 155 204 203
f 155 203 156
f 156 203 202
f 156 231 229
f 157 230 228
f 157 228 227
f 157 226 159
f 157 159 158
f 159 226 160
f 164 201 165
f 166 200 167
f 167 200 199
f 167 199 244
f 167 244 168
f 168 244 169
f 169 244 245
f 169 245 170
f 170 245 246
f 170 246 171
f 171 194 172
f 171 246 195
f 171 195 193
f 172 194 173
f 173 194 174
f 174 194 192
f 174 192 176
f 174 176 175
f 176 192 191
f 177 178 190
f 177 190 179
f 179 190 189
f 179 189 188
f 179 188 247
f 179 247 180
f 180 247 181
f 181 248 249
f 181 249 182
f 181 247 248
f 182 249 183
f 183 249 250
f 183 250 224
f 184 225 250
f 184 250 248
f 184 248 251
f 184 251 185
f 185 251 248
f 185 248 186
f 186 248 247
f 186 247 188
f 186 188 187
f 195 246 196
f 196 252 197
f 196 246 245
f 196 245 252
f 197 252 253
f 197 253 198
f 198 253 245
f 198 245 244
f 198 244 199
f 204 206 205
f 208 243 209
f 209 243 242
f 209 242 213
f 210 213 241
f 213 242 241
f 214 238 237
f 214 237 215
f 215 237 254
f 215 254 216
f 216 254 255
f 216 255 217
f 217 255 232
f 217 232 218
f 218 232 220
f 218 220 219
f 220 235 236
f 220 236 221
f 221 236 222
f 222 236 256
f 222 256 223
f 223 256 236
f 224 250 225
f 232 255 233
f 233 255 239
f 237 239 254
f 239 255 254
f 245 253 252
f 248 250 249
