v 0.001340 -0.037484 0.068548
v 0.001209 -0.036527 0.068465
v 0.000538 -0.035996 0.068471
v 0.000538 -0.036830 0.068548
v 0.000538 -0.037533 0.068560
v 0.001288 -0.038239 0.068548
v 0.001340 -0.039394 0.068459
v 0.001340 -0.034139 0.066829
v 0.001288 -0.035187 0.067997
v 0.000538 -0.035419 0.068347
v -0.001519 -0.034698 0.068489
v -0.000062 -0.035651 0.068483
v -0.000876 -0.034714 0.068406
v -0.002318 -0.034698 0.068536
v -0.003001 -0.034714 0.068554
v -0.004415 -0.034008 0.068560
v -0.001714 -0.034924 0.068525
v -0.019492 -0.030472 0.068578
v 0.001340 -0.040355 0.068228
v -0.019492 -0.031189 0.068513
v -0.000553 -0.032853 0.066746
v -0.001827 -0.032176 0.067185
v -0.001022 -0.032784 0.067292
v 0.001221 -0.034381 0.067369
v 0.001340 -0.040202 0.042023
v 0.001322 -0.033905 0.065288
v 0.001121 -0.033794 0.066065
v 0.000630 -0.034440 0.067849
v -0.000343 -0.033818 0.067884
v -0.000172 -0.034714 0.068270
v -0.001583 -0.034008 0.068335
v -0.002318 -0.034056 0.068459
v -0.003001 -0.033848 0.068489
v -0.002108 -0.034452 0.068501
v -0.003001 -0.034199 0.068530
v -0.007945 -0.031954 0.068536
v -0.007238 -0.032594 0.068554
v -0.012895 -0.031177 0.068566
v -0.015712 -0.030472 0.068566
v -0.019492 -0.029606 0.068536
v -0.029801 -0.033333 0.063516
v -0.029801 -0.036077 0.063356
v -0.019492 -0.031993 0.068270
v 0.001340 -0.041104 0.067938
v -0.001531 -0.032209 0.066740
v -0.003190 -0.031444 0.067209
v -0.002485 -0.032150 0.067618
v -0.001306 -0.032998 0.067766
v -0.002656 -0.031543 0.066734
v -0.000004 -0.033773 0.067653
v 0.001340 -0.043842 0.042023
v -0.004007 -0.039832 0.008231
v -0.004314 -0.036541 0.008231
v -0.000873 -0.032463 0.065330
v -0.000343 -0.032829 0.066035
v -0.001559 -0.033261 0.068003
v -0.000876 -0.034008 0.068151
v -0.002290 -0.033301 0.068240
v -0.003001 -0.033301 0.068370
v -0.006308 -0.032314 0.068501
v -0.005826 -0.031886 0.068359
v -0.013609 -0.030472 0.068548
v -0.012188 -0.031177 0.068560
v -0.007125 -0.031942 0.068501
v -0.009359 -0.031024 0.068495
v -0.010429 -0.030828 0.068513
v -0.014304 -0.029839 0.068495
v -0.017809 -0.029354 0.068483
v -0.019370 -0.029027 0.068406
v -0.019431 -0.028464 0.068163
v -0.019370 -0.027783 0.067707
v -0.019370 -0.027230 0.066954
v -0.019492 -0.026990 0.065448
v -0.029801 -0.033333 0.062431
v -0.029801 -0.036206 0.054014
v -0.028274 -0.040563 0.023790
v -0.028274 -0.040537 0.024502
v -0.028274 -0.040502 0.025124
v -0.028274 -0.040444 0.025829
v -0.028274 -0.040317 0.027151
v -0.004004 -0.047593 0.022214
v 0.001340 -0.043280 0.064672
v 0.001340 -0.043186 0.065330
v 0.001340 -0.042974 0.066035
v 0.001340 -0.042479 0.066817
v 0.001340 -0.041815 0.067464
v -0.019492 -0.032522 0.068003
v -0.001129 -0.032322 0.065946
v -0.002778 -0.031353 0.066035
v -0.003985 -0.030868 0.066829
v -0.004598 -0.030751 0.067203
v -0.003754 -0.031345 0.067446
v -0.005973 -0.030743 0.067872
v -0.004317 -0.031680 0.067973
v -0.003001 -0.032594 0.068104
v -0.003717 -0.030834 0.066035
v -0.004004 -0.047593 0.021502
v -0.004004 -0.047530 0.020797
v -0.004004 -0.047413 0.020092
v -0.004004 -0.047217 0.019303
v -0.004004 -0.046739 0.017851
v -0.004004 -0.046499 0.017318
v -0.004004 -0.045679 0.015889
v -0.004004 -0.045140 0.014970
v -0.004004 -0.044560 0.014081
v 0.001340 -0.043799 0.045538
v -0.028274 -0.036685 0.008024
v -0.018321 -0.035316 0.008024
v -0.020668 -0.032352 0.008047
v -0.005765 -0.035718 0.008231
v -0.001406 -0.032132 0.065241
v -0.003705 -0.032594 0.068252
v -0.005119 -0.031886 0.068252
v -0.007238 -0.031177 0.068335
v -0.007960 -0.031391 0.068459
v -0.008606 -0.031215 0.068477
v -0.009359 -0.030472 0.068370
v -0.010073 -0.030472 0.068418
v -0.013057 -0.029968 0.068471
v -0.013609 -0.029713 0.068442
v -0.017132 -0.029059 0.068382
v -0.018547 -0.029045 0.068406
v -0.017132 -0.028351 0.068062
v -0.018547 -0.028139 0.067985
v -0.017840 -0.028145 0.067973
v -0.018547 -0.027569 0.067487
v -0.017843 -0.027402 0.067209
v -0.018547 -0.027228 0.066936
v -0.019370 -0.027050 0.066035
v -0.018547 -0.026968 0.065330
v -0.019809 -0.032271 0.008237
v -0.023485 -0.032556 0.008047
v -0.024201 -0.032643 0.008047
v -0.024908 -0.032752 0.008047
v -0.025567 -0.032863 0.008024
v -0.026207 -0.032984 0.008024
v -0.027030 -0.033127 0.008776
v -0.027737 -0.033313 0.008776
v -0.028274 -0.033471 0.008776
v -0.028274 -0.033450 0.009482
v -0.029801 -0.033600 0.042023
v -0.029801 -0.033569 0.043416
v -0.029801 -0.033555 0.044092
v -0.029801 -0.033545 0.044827
v -0.029801 -0.036315 0.042728
v -0.028274 -0.040569 0.022913
v -0.029801 -0.036321 0.042023
v 0.001340 -0.043638 0.053303
v 0.001340 -0.043452 0.061086
v 0.001340 -0.043422 0.061981
v -0.002196 -0.031676 0.065330
v -0.003708 -0.030828 0.065330
v -0.006052 -0.030067 0.067167
v -0.004415 -0.030491 0.066035
v -0.005512 -0.030135 0.066681
v -0.005217 -0.030755 0.067541
v -0.007722 -0.030020 0.067878
v -0.006534 -0.030634 0.067944
v -0.005119 -0.031280 0.067961
v -0.004415 -0.030466 0.065330
v -0.028274 -0.040561 0.021591
v -0.028274 -0.040537 0.020969
v -0.028274 -0.040488 0.020086
v -0.028274 -0.040428 0.019386
v -0.028274 -0.040569 0.022208
v -0.028274 -0.040331 0.018675
v -0.028274 -0.040214 0.017970
v -0.028274 -0.040034 0.017128
v -0.028274 -0.039875 0.016595
v -0.028274 -0.039612 0.015848
v -0.028274 -0.033547 0.008065
v -0.027737 -0.033392 0.008047
v -0.019223 -0.032259 0.008195
v -0.018556 -0.032265 0.008219
v -0.017840 -0.032312 0.008231
v -0.017212 -0.032372 0.008231
v -0.016425 -0.032477 0.008231
v -0.015715 -0.032580 0.008231
v -0.014465 -0.032780 0.008231
v -0.013578 -0.032942 0.008231
v -0.012947 -0.033065 0.008231
v -0.012188 -0.033248 0.008231
v -0.010359 -0.033773 0.008231
v -0.009362 -0.034127 0.008231
v -0.008817 -0.034349 0.008231
v -0.006802 -0.035217 0.008231
v -0.006534 -0.031177 0.068222
v -0.008655 -0.030472 0.068293
v -0.012188 -0.029768 0.068376
v -0.010777 -0.029768 0.068264
v -0.011481 -0.029768 0.068329
v -0.015008 -0.029059 0.068281
v -0.015712 -0.029059 0.068323
v -0.015008 -0.028450 0.067967
v -0.015712 -0.028219 0.067884
v -0.016559 -0.028139 0.067896
v -0.015712 -0.027767 0.067416
v -0.014304 -0.027872 0.067292
v -0.015008 -0.027517 0.066740
v -0.015861 -0.027283 0.066284
v -0.017132 -0.027115 0.066035
v -0.017840 -0.027081 0.066035
v -0.017840 -0.026972 0.065330
v -0.027030 -0.033190 0.008047
v -0.007597 -0.029330 0.066746
v -0.008835 -0.028797 0.066557
v -0.010045 -0.028637 0.067055
v -0.008021 -0.029473 0.067315
v -0.008655 -0.029382 0.067505
v -0.005141 -0.030127 0.065330
v -0.005595 -0.029962 0.066035
v -0.006884 -0.029413 0.066011
v -0.007945 -0.028997 0.066035
v -0.009314 -0.029400 0.067813
v -0.008655 -0.029857 0.067979
v -0.007945 -0.030472 0.068175
v -0.007238 -0.030434 0.067997
v -0.017132 -0.027012 0.065330
v -0.015712 -0.027159 0.065330
v -0.014642 -0.027291 0.065282
v -0.015715 -0.032528 0.008776
v -0.013609 -0.027478 0.065330
v -0.012895 -0.027632 0.065330
v -0.012188 -0.027795 0.065330
v -0.011420 -0.027983 0.065330
v -0.010777 -0.028153 0.065330
v -0.010073 -0.028351 0.065330
v -0.008923 -0.028678 0.065472
v -0.005826 -0.029826 0.065330
v -0.010073 -0.029768 0.068175
v -0.010777 -0.029197 0.067967
v -0.012895 -0.029059 0.068121
v -0.012225 -0.028831 0.067920
v -0.015008 -0.027957 0.067541
v -0.011481 -0.028494 0.067398
v -0.012932 -0.027955 0.067031
v -0.014304 -0.027620 0.066740
v -0.015008 -0.027345 0.066159
v -0.015008 -0.027264 0.065810
v -0.016428 -0.027178 0.066035
v -0.008737 -0.028730 0.066035
v -0.009359 -0.028548 0.066035
v -0.011444 -0.027987 0.066035
v -0.011649 -0.028060 0.066568
v -0.010777 -0.028334 0.066740
v -0.012188 -0.027997 0.066746
v -0.010777 -0.028710 0.067458
v -0.010073 -0.029297 0.067908
v -0.014349 -0.027392 0.065982
v -0.013609 -0.027525 0.066035
v -0.012895 -0.027654 0.066035
v -0.012188 -0.027806 0.066035
v -0.011575 -0.028918 0.067890
v -0.013609 -0.027727 0.066740
f 1 2 3
f 1 3 4
f 1 4 5
f 1 5 6
f 1 6 7
f 1 7 19
f 1 19 44
f 1 44 86
f 1 86 85
f 1 85 84
f 1 84 83
f 1 83 82
f 1 82 150
f 1 150 149
f 1 149 148
f 1 148 106
f 1 106 51
f 1 51 25
f 1 25 8
f 1 8 9
f 1 9 2
f 2 10 3
f 2 9 10
f 3 11 12
f 3 12 4
f 3 10 13
f 3 13 11
f 4 14 15
f 4 15 16
f 4 16 5
f 4 12 17
f 4 17 14
f 5 16 18
f 5 18 6
f 6 18 7
f 7 18 20
f 7 20 19
f 8 21 22
f 8 22 23
f 8 23 24
f 8 24 9
f 8 25 26
f 8 26 27
f 8 27 21
f 9 24 28
f 9 28 29
f 9 29 30
f 9 30 10
f 10 30 31
f 10 31 13
f 11 13 32
f 11 32 33
f 11 33 34
f 11 34 17
f 11 17 12
f 13 31 32
f 14 17 35
f 14 35 16
f 14 16 15
f 16 35 36
f 16 36 37
f 16 37 38
f 16 38 18
f 17 34 35
f 18 38 39
f 18 39 40
f 18 40 41
f 18 41 42
f 18 42 20
f 19 20 43
f 19 43 44
f 20 42 43
f 21 45 22
f 21 27 45
f 22 46 47
f 22 47 48
f 22 48 23
f 22 45 49
f 22 49 46
f 23 48 50
f 23 50 24
f 24 50 28
f 25 51 52
f 25 52 53
f 25 53 26
f 26 53 54
f 26 54 55
f 26 55 27
f 27 55 45
f 28 50 48
f 28 48 29
f 29 48 56
f 29 56 57
f 29 57 30
f 30 58 31
f 30 57 58
f 31 59 32
f 31 58 59
f 32 59 33
f 33 60 35
f 33 35 34
f 33 59 61
f 33 61 60
f 35 60 36
f 36 62 63
f 36 63 37
f 36 60 64
f 36 64 65
f 36 65 66
f 36 66 62
f 37 63 38
f 38 63 39
f 39 63 62
f 39 62 40
f 40 62 67
f 40 67 68
f 40 68 69
f 40 69 41
f 41 69 70
f 41 70 71
f 41 71 72
f 41 72 73
f 41 73 74
f 41 74 144
f 41 144 143
f 41 143 142
f 41 142 141
f 41 141 147
f 41 147 145
f 41 145 75
f 41 75 42
f 42 75 76
f 42 76 77
f 42 77 78
f 42 78 79
f 42 79 80
f 42 80 81
f 42 81 82
f 42 82 83
f 42 83 84
f 42 84 85
f 42 85 86
f 42 86 44
f 42 44 87
f 42 87 43
f 43 87 44
f 45 55 88
f 45 88 89
f 45 89 49
f 46 49 90
f 46 90 91
f 46 91 92
f 46 92 47
f 47 93 94
f 47 94 48
f 47 92 93
f 48 94 95
f 48 95 56
f 49 89 96
f 49 96 90
f 51 81 97
f 51 97 98
f 51 98 99
f 51 99 100
f 51 100 101
f 51 101 102
f 51 102 103
f 51 103 104
f 51 104 105
f 51 105 52
f 51 106 81
f 52 107 108
f 52 108 53
f 52 105 107
f 53 108 109
f 53 109 110
f 53 110 111
f 53 111 54
f 54 88 55
f 54 111 88
f 56 95 58
f 56 58 57
f 58 112 59
f 58 95 112
f 59 112 113
f 59 113 61
f 60 61 64
f 61 113 114
f 61 114 115
f 61 115 64
f 62 66 67
f 64 115 116
f 64 116 65
f 65 116 117
f 65 117 118
f 65 118 66
f 66 118 119
f 66 119 67
f 67 119 120
f 67 120 68
f 68 120 121
f 68 121 122
f 68 122 69
f 69 122 70
f 70 122 121
f 70 121 123
f 70 123 124
f 70 124 71
f 71 124 125
f 71 125 126
f 71 126 72
f 72 126 127
f 72 127 128
f 72 128 129
f 72 129 73
f 73 129 130
f 73 130 131
f 73 131 132
f 73 132 133
f 73 133 134
f 73 134 135
f 73 135 136
f 73 136 137
f 73 137 138
f 73 138 139
f 73 139 140
f 73 140 141
f 73 141 142
f 73 142 143
f 73 143 144
f 73 144 74
f 75 145 76
f 76 146 81
f 76 81 77
f 76 145 147
f 76 147 146
f 77 81 78
f 78 81 79
f 79 81 80
f 81 146 165
f 81 165 97
f 81 106 148
f 81 148 149
f 81 149 150
f 81 150 82
f 88 111 89
f 89 111 151
f 89 151 152
f 89 152 96
f 90 153 91
f 90 96 154
f 90 154 155
f 90 155 153
f 91 153 156
f 91 156 92
f 92 156 93
f 93 156 153
f 93 153 157
f 93 157 158
f 93 158 159
f 93 159 94
f 94 159 113
f 94 113 95
f 95 113 112
f 96 152 160
f 96 160 154
f 97 161 162
f 97 162 163
f 97 163 164
f 97 164 98
f 97 165 161
f 98 164 166
f 98 166 167
f 98 167 99
f 99 167 168
f 99 168 100
f 100 168 169
f 100 169 101
f 101 169 170
f 101 170 107
f 101 107 102
f 102 107 103
f 103 107 104
f 104 107 105
f 107 141 171
f 107 171 172
f 107 172 136
f 107 136 135
f 107 135 108
f 107 170 147
f 107 147 141
f 108 135 109
f 109 132 131
f 109 131 173
f 109 173 174
f 109 174 175
f 109 175 176
f 109 176 177
f 109 177 178
f 109 178 179
f 109 179 180
f 109 180 181
f 109 181 182
f 109 182 183
f 109 183 184
f 109 184 185
f 109 185 186
f 109 186 110
f 109 135 132
f 110 186 160
f 110 160 152
f 110 152 151
f 110 151 111
f 113 187 114
f 113 159 187
f 114 187 188
f 114 188 117
f 114 117 115
f 115 117 116
f 117 189 118
f 117 188 190
f 117 190 191
f 117 191 189
f 118 189 119
f 119 189 120
f 120 189 192
f 120 192 193
f 120 193 121
f 121 193 123
f 123 194 195
f 123 195 196
f 123 196 125
f 123 125 124
f 123 193 192
f 123 192 194
f 125 196 126
f 126 197 127
f 126 196 197
f 127 197 198
f 127 198 199
f 127 199 128
f 128 199 200
f 128 200 201
f 128 201 202
f 128 202 129
f 129 202 203
f 129 203 130
f 130 203 173
f 130 173 131
f 132 135 133
f 133 135 134
f 136 172 204
f 136 204 137
f 137 204 138
f 138 204 172
f 138 172 171
f 138 171 139
f 139 171 141
f 139 141 140
f 146 147 165
f 147 170 169
f 147 169 168
f 147 168 167
f 147 167 166
f 147 166 164
f 147 164 163
f 147 163 162
f 147 162 161
f 147 161 165
f 153 155 205
f 153 205 206
f 153 206 207
f 153 207 208
f 153 208 209
f 153 209 157
f 154 160 210
f 154 210 211
f 154 211 155
f 155 211 212
f 155 212 213
f 155 213 205
f 157 214 215
f 157 215 216
f 157 216 217
f 157 217 158
f 157 209 214
f 158 217 216
f 158 216 159
f 159 216 187
f 160 186 210
f 173 203 174
f 174 203 218
f 174 218 175
f 175 218 176
f 176 218 219
f 176 219 220
f 176 220 177
f 177 220 221
f 177 221 178
f 178 221 179
f 179 221 220
f 179 220 180
f 180 220 222
f 180 222 181
f 181 222 223
f 181 223 224
f 181 224 182
f 182 224 225
f 182 225 226
f 182 226 227
f 182 227 183
f 183 227 228
f 183 228 184
f 184 228 229
f 184 229 185
f 185 229 186
f 186 229 210
f 187 216 188
f 188 216 230
f 188 230 190
f 189 191 192
f 190 230 231
f 190 231 232
f 190 232 191
f 191 232 192
f 192 232 194
f 194 232 233
f 194 233 195
f 195 233 234
f 195 234 196
f 196 234 197
f 197 234 198
f 198 234 235
f 198 235 236
f 198 236 237
f 198 237 199
f 199 237 238
f 199 238 200
f 200 238 239
f 200 239 240
f 200 240 201
f 201 240 239
f 201 239 218
f 201 218 203
f 201 203 202
f 205 213 206
f 206 213 241
f 206 241 242
f 206 242 243
f 206 243 244
f 206 244 245
f 206 245 207
f 207 245 246
f 207 246 236
f 207 236 235
f 207 235 247
f 207 247 214
f 207 214 209
f 207 209 208
f 210 229 211
f 211 229 212
f 212 229 213
f 213 229 228
f 213 228 241
f 214 248 215
f 214 247 248
f 215 248 230
f 215 230 216
f 218 239 219
f 219 239 220
f 220 239 249
f 220 249 250
f 220 250 222
f 222 250 251
f 222 251 252
f 222 252 223
f 223 252 224
f 224 252 243
f 224 243 225
f 225 243 226
f 226 243 242
f 226 242 227
f 227 242 228
f 228 242 241
f 230 248 231
f 231 248 253
f 231 253 233
f 231 233 232
f 233 253 234
f 234 253 235
f 235 253 247
f 236 246 254
f 236 254 237
f 237 254 249
f 237 249 238
f 238 249 239
f 243 252 244
f 244 252 251
f 244 251 246
f 244 246 245
f 246 251 254
f 247 253 248
f 249 254 250
f 250 254 251
