v 0.047429 0.217437 -0.001629
v 0.057313 0.217437 -0.001629
v 0.047429 0.217437 0.001663
v 0.044139 0.218315 -0.001629
v 0.047429 0.218098 -0.004923
v 0.060606 0.217722 -0.001629
v 0.057313 0.217437 0.001663
v 0.057313 0.218098 -0.004923
v 0.060606 0.218352 -0.004923
v 0.047429 0.218098 0.004957
v 0.044139 0.218315 0.001663
v 0.030958 0.222891 -0.001629
v 0.030958 0.223404 -0.003917
v 0.043866 0.219271 -0.005129
v 0.044785 0.219787 -0.007666
v 0.047429 0.219489 -0.008215
v 0.062933 0.219492 -0.004923
v 0.063016 0.219194 -0.001629
v 0.060606 0.217722 0.001663
v 0.060606 0.218352 0.004957
v 0.057313 0.218098 0.004957
v 0.057313 0.219489 -0.008215
v 0.060606 0.219603 -0.008046
v 0.062650 0.219938 -0.007441
v 0.047429 0.219489 0.008249
v 0.044785 0.219787 0.007700
v 0.043866 0.219271 0.005163
v 0.030958 0.223404 0.003951
v 0.030958 0.222891 0.001663
v 0.030958 0.224202 -0.005563
v 0.030958 0.225851 -0.007818
v 0.045630 0.223585 -0.013236
v 0.047429 0.220384 -0.009860
v 0.063100 0.221802 -0.008410
v 0.063697 0.222029 -0.004923
v 0.063781 0.222029 -0.001629
v 0.063016 0.219194 0.001663
v 0.062933 0.219492 0.004957
v 0.062650 0.219938 0.007475
v 0.060606 0.219603 0.008080
v 0.057313 0.219489 0.008249
v 0.057313 0.220384 -0.009860
v 0.060606 0.220511 -0.009692
v 0.061853 0.223759 -0.013084
v 0.062759 0.222750 -0.010890
v 0.047429 0.220384 0.009894
v 0.045630 0.223585 0.013270
v 0.030958 0.225851 0.007852
v 0.030958 0.224202 0.005597
v 0.030958 0.227520 -0.009467
v 0.030958 0.229169 -0.010463
v 0.045578 0.230011 -0.016541
v 0.047429 0.228237 -0.015972
v 0.047429 0.225321 -0.014444
v 0.047429 0.223538 -0.013276
v 0.047429 0.221892 -0.011513
v 0.063778 0.225321 -0.008218
v 0.063142 0.225043 -0.011799
v 0.063784 0.225321 -0.004923
v 0.063781 0.222029 0.001663
v 0.063697 0.222029 0.004957
v 0.063100 0.221802 0.008444
v 0.062759 0.222750 0.010924
v 0.061853 0.223759 0.013118
v 0.060606 0.220511 0.009726
v 0.057313 0.220384 0.009894
v 0.057313 0.221892 -0.011513
v 0.059658 0.223585 -0.013236
v 0.060696 0.222408 -0.011799
v 0.060696 0.225043 -0.014037
v 0.060835 0.228794 -0.015948
v 0.062088 0.230376 -0.016423
v 0.062717 0.225955 -0.013768
v 0.047429 0.221892 0.011547
v 0.047429 0.223538 0.013310
v 0.047429 0.225321 0.014478
v 0.047429 0.228237 0.016006
v 0.045578 0.230011 0.016575
v 0.030958 0.229169 0.010497
v 0.030958 0.227520 0.009501
v 0.030958 0.231911 -0.011442
v 0.045212 0.231911 -0.016716
v 0.047429 0.231911 -0.016975
v 0.047429 0.229883 -0.016588
v 0.057313 0.228237 -0.015972
v 0.057313 0.225321 -0.014444
v 0.057313 0.223538 -0.013276
v 0.063749 0.228616 -0.011513
v 0.063784 0.231911 -0.011513
v 0.062984 0.228616 -0.014414
v 0.063784 0.225321 0.004957
v 0.063778 0.225321 0.008252
v 0.063142 0.225043 0.011833
v 0.062717 0.225955 0.013802
v 0.059658 0.223585 0.013270
v 0.060696 0.222408 0.011833
v 0.062088 0.230376 0.016457
v 0.060835 0.228794 0.015982
v 0.060696 0.225043 0.014071
v 0.057313 0.221892 0.011547
v 0.059890 0.230011 -0.016541
v 0.060835 0.231650 -0.016749
v 0.062425 0.232572 -0.016598
v 0.057313 0.223538 0.013310
v 0.057313 0.225321 0.014478
v 0.057313 0.228237 0.016006
v 0.047429 0.229883 0.016622
v 0.047429 0.231911 0.017009
v 0.045212 0.231911 0.016750
v 0.030958 0.231911 0.011476
v 0.030958 0.235203 -0.011735
v 0.045013 0.235203 -0.016813
v 0.047429 0.235203 -0.017173
v 0.057313 0.231911 -0.016975
v 0.057313 0.229883 -0.016588
v 0.062968 0.231650 -0.015117
v 0.063244 0.235203 -0.014807
v 0.063784 0.238498 -0.011513
v 0.063784 0.231911 0.011547
v 0.063749 0.228616 0.011547
v 0.062984 0.228616 0.014448
v 0.062425 0.232572 0.016632
v 0.060835 0.231650 0.016783
v 0.059890 0.230011 0.016575
v 0.060606 0.235203 -0.017002
v 0.062480 0.235203 -0.016642
v 0.057313 0.229883 0.016622
v 0.057313 0.231911 0.017009
v 0.047429 0.235203 0.017207
v 0.045013 0.235203 0.016847
v 0.030958 0.235203 0.011769
v 0.030958 0.238498 -0.011062
v 0.045308 0.237787 -0.016672
v 0.057313 0.235203 -0.017173
v 0.047429 0.238253 -0.016783
v 0.062383 0.237332 -0.016561
v 0.062942 0.238458 -0.015006
v 0.063656 0.241793 -0.011513
v 0.063691 0.245085 -0.008218
v 0.063784 0.241793 -0.008218
v 0.063784 0.238498 0.011547
v 0.063244 0.235203 0.014841
v 0.062968 0.231650 0.015151
v 0.062480 0.235203 0.016676
v 0.060606 0.235203 0.017036
v 0.060606 0.237915 -0.016699
v 0.057313 0.235203 0.017207
v 0.047429 0.238253 0.016817
v 0.045308 0.237787 0.016706
v 0.030958 0.238498 0.011096
v 0.030958 0.240610 -0.010170
v 0.043939 0.241934 -0.014377
v 0.044907 0.244183 -0.013700
v 0.047429 0.241793 -0.015558
v 0.047429 0.239903 -0.016393
v 0.057313 0.238253 -0.016783
v 0.060606 0.239561 -0.016258
v 0.060606 0.241793 -0.015312
v 0.062595 0.243989 -0.013549
v 0.062894 0.241793 -0.014111
v 0.062997 0.245088 -0.011540
v 0.062830 0.248346 -0.007952
v 0.063334 0.248380 -0.004923
v 0.063608 0.248380 -0.001629
v 0.063784 0.245085 -0.004923
v 0.062640 0.247227 -0.010459
v 0.063656 0.241793 0.011547
v 0.063784 0.241793 0.008252
v 0.063691 0.245085 0.008252
v 0.062942 0.238458 0.015037
v 0.062383 0.237332 0.016595
v 0.060606 0.237915 0.016733
v 0.057313 0.239903 -0.016393
v 0.057313 0.238253 0.016817
v 0.047429 0.239903 0.016427
v 0.047429 0.241793 0.015592
v 0.044907 0.244183 0.013734
v 0.043939 0.241934 0.014411
v 0.030958 0.240610 0.010204
v 0.030958 0.242256 -0.008837
v 0.044807 0.247391 -0.010641
v 0.047429 0.246204 -0.012677
v 0.047429 0.244555 -0.013969
v 0.057313 0.241793 -0.015558
v 0.060606 0.244411 -0.013858
v 0.060606 0.246057 -0.012539
v 0.062316 0.250079 -0.006677
v 0.062570 0.250338 -0.004923
v 0.062843 0.250639 -0.001629
v 0.063608 0.248380 0.001663
v 0.063784 0.245085 0.004957
v 0.060606 0.247596 -0.010894
v 0.062997 0.245088 0.011574
v 0.062894 0.241793 0.014145
v 0.063334 0.248380 0.004957
v 0.062830 0.248346 0.007986
v 0.062640 0.247227 0.010493
v 0.060606 0.239561 0.016292
v 0.062595 0.243989 0.013583
v 0.060606 0.241793 0.015346
v 0.057313 0.239903 0.016427
v 0.057313 0.241793 0.015592
v 0.047429 0.244555 0.014003
v 0.047429 0.246204 0.012711
v 0.044807 0.247391 0.010675
v 0.030958 0.242256 0.008871
v 0.030958 0.243935 -0.007192
v 0.047429 0.247720 -0.011031
v 0.045427 0.250193 -0.006902
v 0.057313 0.246204 -0.012677
v 0.057313 0.244555 -0.013969
v 0.060606 0.249245 -0.008548
v 0.060606 0.250193 -0.006899
v 0.060606 0.250837 -0.004923
v 0.060606 0.251467 -0.001629
v 0.062843 0.250639 0.001663
v 0.057313 0.247720 -0.011031
v 0.057313 0.249365 -0.008716
v 0.062570 0.250338 0.004957
v 0.062316 0.250079 0.006711
v 0.060606 0.247596 0.010928
v 0.060606 0.246057 0.012573
v 0.060606 0.244411 0.013892
v 0.057313 0.244555 0.014003
v 0.057313 0.246204 0.012711
v 0.047429 0.247720 0.011065
v 0.045427 0.250193 0.006936
v 0.030958 0.243935 0.007226
v 0.030958 0.245209 -0.004923
v 0.047429 0.249365 -0.008716
v 0.030958 0.246221 -0.001629
v 0.044829 0.250525 -0.004923
v 0.047429 0.251025 -0.004923
v 0.047429 0.250277 -0.007070
v 0.057313 0.250277 -0.007070
v 0.057313 0.251025 -0.004923
v 0.057313 0.251678 -0.001629
v 0.060606 0.251467 0.001663
v 0.060606 0.250193 0.006933
v 0.060606 0.249245 0.008582
v 0.060606 0.250837 0.004957
v 0.057313 0.249365 0.008750
v 0.057313 0.247720 0.011065
v 0.047429 0.249365 0.008750
v 0.047429 0.250277 0.007104
v 0.047429 0.251025 0.004957
v 0.044829 0.250525 0.004957
v 0.030958 0.246221 0.001663
v 0.030958 0.245209 0.004957
v 0.044286 0.250854 -0.001629
v 0.047429 0.251678 -0.001629
v 0.057313 0.251678 0.001663
v 0.057313 0.251025 0.004957
v 0.057313 0.250277 0.007104
v 0.047429 0.251678 0.001663
v 0.044286 0.250854 0.001663
f 1 2 7
f 1 7 3
f 1 3 11
f 1 11 4
f 1 4 5
f 1 5 8
f 1 8 2
f 2 6 19
f 2 19 7
f 2 8 9
f 2 9 6
f 3 7 21
f 3 21 10
f 3 10 11
f 4 11 29
f 4 29 12
f 4 12 13
f 4 13 14
f 4 14 5
f 5 14 15
f 5 15 16
f 5 16 22
f 5 22 8
f 6 9 17
f 6 17 18
f 6 18 37
f 6 37 19
f 7 19 20
f 7 20 21
f 8 22 23
f 8 23 9
f 9 23 24
f 9 24 17
f 10 21 41
f 10 41 25
f 10 25 26
f 10 26 27
f 10 27 11
f 11 27 28
f 11 28 29
f 12 29 28
f 12 28 49
f 12 49 48
f 12 48 80
f 12 80 79
f 12 79 110
f 12 110 131
f 12 131 150
f 12 150 179
f 12 179 206
f 12 206 228
f 12 228 249
f 12 249 248
f 12 248 231
f 12 231 229
f 12 229 207
f 12 207 180
f 12 180 151
f 12 151 132
f 12 132 111
f 12 111 81
f 12 81 51
f 12 51 50
f 12 50 31
f 12 31 30
f 12 30 13
f 13 30 15
f 13 15 14
f 15 30 31
f 15 31 32
f 15 32 33
f 15 33 16
f 16 33 42
f 16 42 22
f 17 24 34
f 17 34 35
f 17 35 18
f 18 35 36
f 18 36 60
f 18 60 37
f 19 37 38
f 19 38 20
f 20 38 39
f 20 39 40
f 20 40 21
f 21 40 41
f 22 42 23
f 23 42 43
f 23 43 24
f 24 43 44
f 24 44 45
f 24 45 34
f 25 41 66
f 25 66 46
f 25 46 26
f 26 46 47
f 26 47 48
f 26 48 49
f 26 49 28
f 26 28 27
f 31 50 32
f 32 51 52
f 32 52 53
f 32 53 54
f 32 54 55
f 32 55 56
f 32 56 33
f 32 50 51
f 33 56 67
f 33 67 42
f 34 57 35
f 34 45 58
f 34 58 57
f 35 57 36
f 36 57 59
f 36 59 91
f 36 91 60
f 37 60 61
f 37 61 38
f 38 61 62
f 38 62 39
f 39 62 63
f 39 63 64
f 39 64 65
f 39 65 40
f 40 65 66
f 40 66 41
f 42 67 68
f 42 68 43
f 43 68 69
f 43 69 44
f 44 69 68
f 44 68 70
f 44 70 71
f 44 71 72
f 44 72 73
f 44 73 45
f 45 73 58
f 46 66 100
f 46 100 74
f 46 74 47
f 47 74 75
f 47 75 76
f 47 76 77
f 47 77 78
f 47 78 79
f 47 79 80
f 47 80 48
f 51 81 52
f 52 82 83
f 52 83 84
f 52 84 53
f 52 81 82
f 53 84 115
f 53 115 85
f 53 85 86
f 53 86 54
f 54 86 87
f 54 87 55
f 55 87 67
f 55 67 56
f 57 58 88
f 57 88 89
f 57 89 59
f 58 73 90
f 58 90 88
f 59 89 118
f 59 118 140
f 59 140 165
f 59 165 191
f 59 191 168
f 59 168 141
f 59 141 119
f 59 119 91
f 60 91 92
f 60 92 61
f 61 92 62
f 62 92 93
f 62 93 63
f 63 93 94
f 63 94 64
f 64 95 96
f 64 96 65
f 64 94 97
f 64 97 98
f 64 98 99
f 64 99 95
f 65 96 95
f 65 95 66
f 66 95 100
f 67 87 68
f 68 87 86
f 68 86 70
f 70 86 85
f 70 85 71
f 71 85 101
f 71 101 72
f 72 101 102
f 72 102 103
f 72 103 90
f 72 90 73
f 74 100 104
f 74 104 75
f 75 104 105
f 75 105 76
f 76 105 106
f 76 106 77
f 77 106 127
f 77 127 107
f 77 107 78
f 78 107 108
f 78 108 109
f 78 109 110
f 78 110 79
f 81 111 82
f 82 112 113
f 82 113 83
f 82 111 112
f 83 113 134
f 83 134 114
f 83 114 115
f 83 115 84
f 85 115 101
f 88 90 116
f 88 116 117
f 88 117 89
f 89 117 118
f 90 103 116
f 91 119 92
f 92 119 120
f 92 120 93
f 93 120 121
f 93 121 94
f 94 121 97
f 95 104 100
f 95 99 105
f 95 105 104
f 97 121 122
f 97 122 123
f 97 123 124
f 97 124 98
f 98 124 106
f 98 106 99
f 99 106 105
f 101 115 114
f 101 114 102
f 102 114 125
f 102 125 103
f 103 125 126
f 103 126 117
f 103 117 116
f 106 124 127
f 107 127 128
f 107 128 108
f 108 128 147
f 108 147 129
f 108 129 109
f 109 129 130
f 109 130 131
f 109 131 110
f 111 132 133
f 111 133 112
f 112 133 113
f 113 133 135
f 113 135 156
f 113 156 134
f 114 134 125
f 117 126 136
f 117 136 137
f 117 137 138
f 117 138 118
f 118 138 139
f 118 139 140
f 119 141 142
f 119 142 120
f 120 142 143
f 120 143 121
f 121 143 122
f 122 144 145
f 122 145 123
f 122 143 142
f 122 142 144
f 123 145 128
f 123 128 124
f 124 128 127
f 125 134 146
f 125 146 136
f 125 136 126
f 128 145 147
f 129 148 149
f 129 149 130
f 129 147 174
f 129 174 148
f 130 149 131
f 131 149 150
f 132 151 133
f 133 152 153
f 133 153 154
f 133 154 155
f 133 155 135
f 133 151 152
f 134 156 146
f 135 155 173
f 135 173 156
f 136 146 157
f 136 157 158
f 136 158 159
f 136 159 160
f 136 160 137
f 137 160 138
f 138 160 161
f 138 161 139
f 139 162 163
f 139 163 164
f 139 164 165
f 139 165 140
f 139 161 166
f 139 166 162
f 141 167 142
f 141 168 169
f 141 169 167
f 142 170 171
f 142 171 144
f 142 167 170
f 144 171 145
f 145 171 172
f 145 172 147
f 146 156 173
f 146 173 157
f 147 172 174
f 148 175 149
f 148 174 201
f 148 201 175
f 149 175 176
f 149 176 177
f 149 177 178
f 149 178 179
f 149 179 150
f 151 153 152
f 151 180 153
f 153 180 181
f 153 181 182
f 153 182 183
f 153 183 154
f 154 183 211
f 154 211 184
f 154 184 173
f 154 173 155
f 157 173 158
f 158 173 184
f 158 184 185
f 158 185 159
f 159 186 166
f 159 166 161
f 159 161 160
f 159 185 186
f 162 187 188
f 162 188 163
f 162 166 187
f 163 188 189
f 163 189 164
f 164 189 216
f 164 216 190
f 164 190 191
f 164 191 165
f 166 186 192
f 166 192 187
f 167 193 194
f 167 194 170
f 167 169 193
f 168 191 169
f 169 191 190
f 169 190 195
f 169 195 196
f 169 196 197
f 169 197 193
f 170 194 171
f 171 198 172
f 171 194 199
f 171 199 200
f 171 200 198
f 172 198 201
f 172 201 174
f 175 201 202
f 175 202 176
f 176 202 224
f 176 224 203
f 176 203 177
f 177 203 204
f 177 204 205
f 177 205 206
f 177 206 179
f 177 179 178
f 180 207 181
f 181 208 182
f 181 207 209
f 181 209 208
f 182 210 211
f 182 211 183
f 182 208 217
f 182 217 210
f 184 211 185
f 185 211 210
f 185 210 186
f 186 210 192
f 187 192 212
f 187 212 213
f 187 213 214
f 187 214 215
f 187 215 188
f 188 215 189
f 189 215 238
f 189 238 216
f 190 216 195
f 192 217 218
f 192 218 212
f 192 210 217
f 193 199 194
f 193 197 199
f 195 216 219
f 195 219 196
f 196 219 220
f 196 220 197
f 197 221 222
f 197 222 199
f 197 220 221
f 198 200 201
f 199 222 223
f 199 223 200
f 200 223 202
f 200 202 201
f 202 223 224
f 203 224 225
f 203 225 204
f 204 225 243
f 204 243 226
f 204 226 205
f 205 226 227
f 205 227 228
f 205 228 206
f 207 229 209
f 208 209 230
f 208 230 218
f 208 218 217
f 209 229 231
f 209 231 232
f 209 232 233
f 209 233 234
f 209 234 230
f 212 218 213
f 213 218 235
f 213 235 236
f 213 236 214
f 214 236 237
f 214 237 215
f 215 237 252
f 215 252 238
f 216 238 219
f 218 230 234
f 218 234 235
f 219 238 220
f 220 239 240
f 220 240 221
f 220 238 241
f 220 241 239
f 221 240 242
f 221 242 243
f 221 243 225
f 221 225 222
f 222 225 223
f 223 225 224
f 226 243 242
f 226 242 244
f 226 244 227
f 227 244 245
f 227 245 246
f 227 246 247
f 227 247 248
f 227 248 249
f 227 249 228
f 231 250 232
f 231 248 256
f 231 256 250
f 232 250 251
f 232 251 233
f 233 236 235
f 233 235 234
f 233 251 237
f 233 237 236
f 237 251 255
f 237 255 252
f 238 252 241
f 239 241 253
f 239 253 254
f 239 254 242
f 239 242 240
f 241 252 253
f 242 254 245
f 242 245 244
f 245 254 253
f 245 253 246
f 246 255 247
f 246 253 252
f 246 252 255
f 247 255 256
f 247 256 248
f 250 256 255
f 250 255 251
