v 0.014482 0.251368 0.008250
v 0.014482 0.250760 0.011546
v 0.017780 0.250921 0.008250
v 0.017780 0.251218 0.004958
v 0.017780 0.251328 0.001663
v 0.014482 0.251368 -0.008216
v 0.001309 0.251368 0.008250
v 0.001309 0.250793 0.011546
v 0.014482 0.250089 0.013258
v 0.016217 0.250067 0.013234
v 0.017503 0.250327 0.011237
v 0.001309 0.250122 0.013295
v 0.019442 0.250042 0.009933
v 0.019736 0.250250 0.008250
v 0.020262 0.250544 0.004958
v 0.020600 0.250657 0.001663
v 0.017780 0.251328 -0.001629
v 0.017780 0.251218 -0.004924
v 0.017780 0.250921 -0.008216
v 0.014482 0.250760 -0.011512
v 0.001309 0.250793 -0.011512
v 0.001309 0.251368 -0.008216
v -0.001983 0.251313 0.008250
v -0.001983 0.250756 0.011546
v -0.001983 0.250111 0.013282
v 0.014482 0.248382 0.014072
v 0.001309 0.248382 0.014151
v 0.017503 0.248169 0.013600
v 0.019536 0.246931 0.013292
v 0.030958 0.240610 0.010202
v 0.030958 0.242255 0.008874
v 0.030958 0.243937 0.007225
v -0.001983 0.248382 0.014157
v 0.030958 0.245209 0.004958
v 0.030958 0.246220 0.001663
v 0.020600 0.250657 -0.001629
v 0.020262 0.250544 -0.004924
v 0.017503 0.250327 -0.011203
v 0.019736 0.250250 -0.008216
v 0.019442 0.250042 -0.009899
v 0.016217 0.250067 -0.013200
v 0.014482 0.250089 -0.013224
v 0.001309 0.250122 -0.013261
v -0.001983 0.250111 -0.013248
v -0.001983 0.250756 -0.011512
v -0.001983 0.251313 -0.008216
v -0.005280 0.251115 0.008250
v -0.005324 0.250489 0.011821
v -0.004255 0.250071 0.013243
v -0.005324 0.248679 0.013933
v 0.014482 0.245088 0.014826
v 0.017780 0.245088 0.014408
v -0.005280 0.245088 0.014983
v -0.008572 0.245088 0.015001
v 0.020035 0.245088 0.013594
v 0.030958 0.238496 0.011095
v -0.008572 0.248169 0.014072
v -0.011869 0.245088 0.014974
v 0.030958 0.246220 -0.001629
v 0.030958 0.245209 -0.004924
v 0.030958 0.243937 -0.007191
v 0.017503 0.248169 -0.013566
v 0.014482 0.248382 -0.014038
v 0.030958 0.242255 -0.008840
v 0.030958 0.240610 -0.010168
v 0.019536 0.246931 -0.013258
v 0.001309 0.248382 -0.014117
v -0.001983 0.248382 -0.014123
v -0.005324 0.248679 -0.013899
v -0.004260 0.250071 -0.013209
v -0.005324 0.250489 -0.011787
v -0.005280 0.251115 -0.008216
v -0.008572 0.250730 0.008250
v -0.010982 0.250181 0.010456
v -0.008572 0.250379 0.011071
v -0.006455 0.249976 0.013101
v -0.011869 0.247876 0.014015
v 0.017780 0.238496 0.014829
v 0.017780 0.241790 0.014747
v -0.018458 0.241790 0.015252
v -0.025048 0.238496 0.015443
v -0.025657 0.237888 0.015464
v 0.021071 0.238496 0.014493
v 0.021166 0.241742 0.013903
v 0.030958 0.235202 0.011770
v -0.015161 0.245088 0.014853
v -0.021750 0.241790 0.015219
v 0.017780 0.245088 -0.014374
v 0.014482 0.245088 -0.014792
v -0.005280 0.245088 -0.014949
v 0.030958 0.238496 -0.011061
v 0.020035 0.245088 -0.013560
v -0.008572 0.245088 -0.014967
v -0.011869 0.245088 -0.014940
v -0.008572 0.248169 -0.014038
v -0.011869 0.247876 -0.013981
v -0.006455 0.249976 -0.013067
v -0.008572 0.250379 -0.011037
v -0.010982 0.250181 -0.010422
v -0.008572 0.250730 -0.008216
v -0.011359 0.250258 0.008250
v -0.008572 0.249818 0.012717
v -0.013011 0.249924 0.008250
v -0.015161 0.249386 0.008250
v -0.015161 0.248843 0.011546
v -0.011997 0.249580 0.011552
v -0.018458 0.247085 0.013534
v -0.015161 0.247517 0.013857
v -0.018458 0.245088 0.014556
v 0.017780 0.235202 0.014832
v 0.021071 0.235202 0.014690
v -0.025657 0.234594 0.015473
v -0.025657 0.238496 0.015434
v 0.024058 0.235202 0.013870
v 0.023593 0.238496 0.013673
v 0.030958 0.231912 0.011476
v 0.023848 0.231912 0.013788
v -0.025048 0.241790 0.014938
v -0.025657 0.241182 0.015022
v 0.017780 0.241790 -0.014713
v 0.021166 0.241742 -0.013869
v 0.021071 0.238496 -0.014459
v 0.017780 0.238496 -0.014798
v -0.025048 0.238496 -0.015409
v -0.018458 0.241790 -0.015218
v 0.030958 0.235202 -0.011736
v -0.015161 0.245088 -0.014819
v -0.021750 0.241790 -0.015185
v -0.018458 0.245088 -0.014522
v -0.015161 0.247517 -0.013823
v -0.018458 0.247085 -0.013500
v -0.008572 0.249818 -0.012683
v -0.011359 0.250258 -0.008216
v -0.011997 0.249580 -0.011518
v -0.015161 0.248843 -0.011512
v -0.015161 0.249386 -0.008216
v -0.013011 0.249924 -0.008216
v -0.020309 0.246806 0.013276
v -0.018458 0.248415 0.008250
v -0.018458 0.247924 0.011546
v -0.021545 0.245190 0.014000
v 0.017780 0.231912 0.014829
v 0.021071 0.231912 0.014608
v 0.017780 0.228618 0.014798
v -0.025657 0.231304 0.015470
v 0.030958 0.229167 0.010499
v 0.014482 0.213940 0.014332
v 0.015629 0.213940 0.013888
v 0.016488 0.213940 0.013512
v -0.025048 0.244168 0.013815
v -0.025657 0.243747 0.013882
v -0.025657 0.241816 0.014792
v 0.021071 0.235202 -0.014656
v 0.023593 0.238496 -0.013639
v 0.024058 0.235202 -0.013836
v 0.017780 0.231912 -0.014798
v -0.025657 0.231912 -0.015439
v -0.025657 0.235202 -0.015436
v -0.025657 0.238496 -0.015400
v 0.030958 0.231912 -0.011442
v 0.023848 0.231912 -0.013754
v -0.025048 0.241790 -0.014904
v -0.021545 0.245190 -0.013966
v -0.020309 0.246810 -0.013242
v -0.018458 0.247924 -0.011512
v -0.018458 0.248415 -0.008216
v -0.020991 0.247077 0.011546
v -0.022637 0.246418 0.011546
v -0.025048 0.245359 0.011546
v -0.025657 0.244883 0.012087
v -0.025657 0.244032 0.013712
v -0.021573 0.247304 0.008250
v 0.011190 0.213940 0.014838
v -0.025657 0.228618 0.015458
v 0.012986 0.213940 0.014599
v 0.030958 0.227522 0.009500
v 0.017120 0.213940 0.012402
v 0.030958 0.224203 0.005597
v 0.030958 0.225848 0.007851
v 0.021071 0.231912 -0.014574
v 0.017780 0.228618 -0.014764
v 0.011190 0.213940 -0.014804
v -0.025657 0.228618 -0.015424
v -0.025657 0.241816 -0.014758
v 0.030958 0.229167 -0.010465
v 0.016488 0.213940 -0.013478
v 0.014482 0.213940 -0.014298
v -0.025048 0.244168 -0.013781
v -0.025657 0.244032 -0.013678
v -0.025048 0.245359 -0.011512
v -0.022637 0.246414 -0.011512
v -0.020991 0.247077 -0.011512
v -0.021567 0.247304 -0.008216
v -0.021573 0.247304 -0.001629
v -0.023219 0.246660 0.008250
v -0.025048 0.245821 0.008250
v -0.025657 0.245428 0.008977
v -0.025657 0.245066 0.011546
v -0.011869 0.213940 0.015107
v -0.025657 0.228010 0.015389
v 0.017519 0.213940 0.011546
v 0.030958 0.223404 0.003951
v -0.011869 0.213940 -0.015073
v -0.025657 0.225324 -0.014701
v 0.030958 0.227522 -0.009466
v 0.017519 0.213940 -0.011512
v 0.030958 0.225848 -0.007817
v 0.030958 0.224203 -0.005563
v -0.025657 0.245066 -0.011512
v -0.025048 0.245821 -0.008216
v -0.023219 0.246660 -0.008216
v -0.025657 0.245516 0.008250
v -0.025657 0.225324 0.014735
v -0.015161 0.213940 0.014335
v 0.018046 0.213940 0.009800
v 0.030958 0.222891 0.001663
v -0.013665 0.213940 -0.014692
v -0.025657 0.223254 -0.013575
v -0.015161 0.213940 -0.014302
v -0.016186 0.213940 -0.013772
v 0.018389 0.213940 -0.008156
v 0.030958 0.223404 -0.003917
v 0.030958 0.222891 -0.001629
v -0.025657 0.245516 -0.008216
v -0.025657 0.224851 0.014517
v -0.016968 0.213940 0.013367
v 0.018389 0.213940 0.008190
v 0.018578 0.213940 0.006117
v 0.018772 0.213940 0.002550
v 0.018805 0.213940 0.001663
v -0.025657 0.222437 -0.011512
v -0.016968 0.213940 -0.013333
v -0.017361 0.213940 -0.012301
v 0.018633 0.213940 -0.004924
v 0.018805 0.213940 -0.001629
v -0.025657 0.223250 0.013609
v -0.025657 0.223012 0.013155
v -0.017622 0.213940 0.011546
v -0.025657 0.222110 -0.008828
v -0.017622 0.213940 -0.011512
v -0.018109 0.213940 -0.008216
v -0.025657 0.222437 0.011546
v -0.018109 0.213940 0.008250
v -0.025657 0.222037 -0.008216
v -0.025657 0.222030 -0.005532
v -0.025657 0.222037 0.008250
v -0.025657 0.222030 0.004958
f 1 2 3
f 1 3 4
f 1 4 5
f 1 5 17
f 1 17 6
f 1 6 22
f 1 22 7
f 1 7 8
f 1 8 2
f 2 9 10
f 2 10 11
f 2 11 3
f 2 8 12
f 2 12 9
f 3 11 13
f 3 13 14
f 3 14 15
f 3 15 4
f 4 15 16
f 4 16 5
f 5 16 36
f 5 36 17
f 6 17 18
f 6 18 19
f 6 19 20
f 6 20 21
f 6 21 22
f 7 22 46
f 7 46 23
f 7 23 24
f 7 24 8
f 8 24 25
f 8 25 12
f 9 26 10
f 9 12 27
f 9 27 26
f 10 26 28
f 10 28 29
f 10 29 30
f 10 30 31
f 10 31 32
f 10 32 13
f 10 13 11
f 12 25 33
f 12 33 27
f 13 32 34
f 13 34 35
f 13 35 14
f 14 35 15
f 15 35 16
f 16 35 59
f 16 59 36
f 17 36 18
f 18 36 37
f 18 37 19
f 19 38 20
f 19 37 39
f 19 39 40
f 19 40 38
f 20 38 41
f 20 41 42
f 20 42 43
f 20 43 21
f 21 43 44
f 21 44 45
f 21 45 22
f 22 45 46
f 23 46 72
f 23 72 47
f 23 47 24
f 24 47 48
f 24 48 49
f 24 49 25
f 25 49 50
f 25 50 33
f 26 51 52
f 26 52 28
f 26 27 53
f 26 53 51
f 27 33 54
f 27 54 53
f 28 52 29
f 29 55 56
f 29 56 30
f 29 52 55
f 30 56 85
f 30 85 116
f 30 116 146
f 30 146 176
f 30 176 179
f 30 179 178
f 30 178 202
f 30 202 216
f 30 216 223
f 30 223 222
f 30 222 208
f 30 208 207
f 30 207 205
f 30 205 185
f 30 185 160
f 30 160 126
f 30 126 91
f 30 91 65
f 30 65 64
f 30 64 61
f 30 61 60
f 30 60 59
f 30 59 35
f 30 35 34
f 30 34 32
f 30 32 31
f 33 50 57
f 33 57 58
f 33 58 54
f 36 59 37
f 37 59 39
f 38 40 41
f 39 59 40
f 40 59 60
f 40 60 61
f 40 61 41
f 41 62 63
f 41 63 42
f 41 61 64
f 41 64 65
f 41 65 66
f 41 66 62
f 42 63 67
f 42 67 43
f 43 67 68
f 43 68 44
f 44 68 69
f 44 69 70
f 44 70 45
f 45 70 71
f 45 71 72
f 45 72 46
f 47 72 100
f 47 100 73
f 47 73 74
f 47 74 75
f 47 75 48
f 48 76 49
f 48 75 76
f 49 76 77
f 49 77 57
f 49 57 50
f 51 78 79
f 51 79 52
f 51 53 80
f 51 80 81
f 51 81 82
f 51 82 78
f 52 79 83
f 52 83 84
f 52 84 56
f 52 56 55
f 53 54 80
f 54 58 80
f 56 84 85
f 57 77 86
f 57 86 58
f 58 86 87
f 58 87 80
f 62 88 63
f 62 66 88
f 63 88 89
f 63 89 90
f 63 90 67
f 65 91 66
f 66 91 92
f 66 92 88
f 67 90 93
f 67 93 68
f 68 93 94
f 68 94 95
f 68 95 69
f 69 95 70
f 70 95 96
f 70 96 97
f 70 97 71
f 71 97 98
f 71 98 72
f 72 98 99
f 72 99 100
f 73 100 133
f 73 133 101
f 73 101 74
f 74 102 75
f 74 101 103
f 74 103 104
f 74 104 105
f 74 105 106
f 74 106 102
f 75 102 76
f 76 102 107
f 76 107 108
f 76 108 77
f 77 108 109
f 77 109 86
f 78 110 111
f 78 111 79
f 78 82 112
f 78 112 110
f 79 111 83
f 80 87 81
f 81 87 113
f 81 113 82
f 82 113 119
f 82 119 152
f 82 152 151
f 82 151 171
f 82 171 170
f 82 170 198
f 82 198 197
f 82 197 212
f 82 212 224
f 82 224 209
f 82 209 189
f 82 189 184
f 82 184 159
f 82 159 158
f 82 158 157
f 82 157 183
f 82 183 204
f 82 204 218
f 82 218 231
f 82 231 239
f 82 239 244
f 82 244 245
f 82 245 247
f 82 247 246
f 82 246 242
f 82 242 237
f 82 237 236
f 82 236 225
f 82 225 213
f 82 213 200
f 82 200 174
f 82 174 145
f 82 145 112
f 83 111 114
f 83 114 85
f 83 85 115
f 83 115 84
f 84 115 85
f 85 114 117
f 85 117 116
f 86 109 118
f 86 118 87
f 87 118 119
f 87 119 113
f 88 120 89
f 88 92 91
f 88 91 121
f 88 121 122
f 88 122 120
f 89 120 123
f 89 123 124
f 89 124 125
f 89 125 90
f 90 125 93
f 91 126 121
f 93 125 94
f 94 127 95
f 94 125 128
f 94 128 127
f 95 127 96
f 96 127 129
f 96 129 130
f 96 130 97
f 97 130 131
f 97 131 132
f 97 132 98
f 98 132 99
f 99 133 100
f 99 132 134
f 99 134 135
f 99 135 136
f 99 136 137
f 99 137 133
f 101 133 137
f 101 137 103
f 102 106 138
f 102 138 107
f 103 137 136
f 103 136 104
f 104 136 166
f 104 166 139
f 104 139 140
f 104 140 105
f 105 140 138
f 105 138 106
f 107 138 141
f 107 141 108
f 108 141 109
f 109 141 118
f 110 142 111
f 110 112 145
f 110 145 142
f 111 143 114
f 111 142 144
f 111 144 143
f 114 143 117
f 116 117 147
f 116 147 148
f 116 148 149
f 116 149 146
f 117 143 147
f 118 150 151
f 118 151 152
f 118 152 119
f 118 141 150
f 120 122 153
f 120 153 123
f 121 126 154
f 121 154 122
f 122 154 126
f 122 126 155
f 122 155 153
f 123 153 156
f 123 156 157
f 123 157 158
f 123 158 124
f 124 158 159
f 124 159 128
f 124 128 125
f 126 160 161
f 126 161 155
f 127 128 162
f 127 162 129
f 128 159 162
f 129 162 163
f 129 163 130
f 130 163 131
f 131 163 164
f 131 164 132
f 132 164 134
f 134 164 135
f 135 164 165
f 135 165 136
f 136 165 166
f 138 167 168
f 138 168 169
f 138 169 170
f 138 170 171
f 138 171 150
f 138 150 141
f 138 140 167
f 139 166 194
f 139 194 172
f 139 172 167
f 139 167 140
f 142 173 144
f 142 145 174
f 142 174 173
f 143 144 173
f 143 173 175
f 143 175 147
f 146 149 176
f 147 175 173
f 147 173 199
f 147 199 214
f 147 214 226
f 147 226 238
f 147 238 243
f 147 243 241
f 147 241 240
f 147 240 233
f 147 233 232
f 147 232 220
f 147 220 219
f 147 219 217
f 147 217 203
f 147 203 182
f 147 182 187
f 147 187 186
f 147 186 206
f 147 206 221
f 147 221 234
f 147 234 235
f 147 235 230
f 147 230 229
f 147 229 228
f 147 228 227
f 147 227 215
f 147 215 201
f 147 201 177
f 147 177 149
f 147 149 148
f 149 177 178
f 149 178 179
f 149 179 176
f 150 171 151
f 153 155 180
f 153 180 181
f 153 181 156
f 155 161 180
f 156 181 182
f 156 182 183
f 156 183 157
f 159 184 162
f 160 185 186
f 160 186 187
f 160 187 161
f 161 187 180
f 162 184 188
f 162 188 163
f 163 188 164
f 164 188 189
f 164 189 190
f 164 190 191
f 164 191 192
f 164 192 165
f 165 192 166
f 166 192 193
f 166 193 194
f 167 172 195
f 167 195 168
f 168 195 169
f 169 195 196
f 169 196 197
f 169 197 198
f 169 198 170
f 172 194 211
f 172 211 195
f 173 174 199
f 174 200 199
f 177 201 202
f 177 202 178
f 180 187 182
f 180 182 181
f 182 203 183
f 183 203 204
f 184 189 188
f 185 205 186
f 186 205 207
f 186 207 208
f 186 208 206
f 189 209 190
f 190 210 211
f 190 211 191
f 190 209 210
f 191 211 192
f 192 211 193
f 193 211 194
f 195 211 210
f 195 210 196
f 196 210 224
f 196 224 212
f 196 212 197
f 199 200 213
f 199 213 214
f 201 215 202
f 202 215 216
f 203 217 204
f 204 217 219
f 204 219 220
f 204 220 218
f 206 208 222
f 206 222 223
f 206 223 221
f 209 224 210
f 213 225 214
f 214 225 226
f 215 227 216
f 216 227 228
f 216 228 229
f 216 229 230
f 216 230 235
f 216 235 223
f 218 220 232
f 218 232 233
f 218 233 231
f 221 223 234
f 223 235 234
f 225 236 226
f 226 236 237
f 226 237 238
f 231 233 240
f 231 240 241
f 231 241 239
f 237 242 238
f 238 242 243
f 239 241 244
f 241 243 247
f 241 247 245
f 241 245 244
f 242 246 243
f 243 246 247
