v -0.070544 0.192379 0.008252
v -0.070509 0.192379 0.011545
v -0.070215 0.195532 0.011545
v -0.070232 0.195565 0.008252
v -0.070232 0.195565 -0.008218
v -0.070540 0.192379 -0.008218
v -0.069833 0.190417 -0.008218
v -0.069833 0.190417 0.008252
v -0.069815 0.190434 0.011545
v -0.070000 0.192379 0.013982
v -0.069973 0.195008 0.013942
v -0.069705 0.190548 0.013497
v -0.069450 0.197183 0.011545
v -0.069468 0.197210 0.008252
v -0.070215 0.195532 -0.011511
v -0.069468 0.197210 -0.008218
v -0.069450 0.197183 -0.011511
v -0.070509 0.192379 -0.011511
v -0.069815 0.190434 -0.011511
v -0.067873 0.189696 -0.008218
v -0.067873 0.189696 0.008252
v -0.067873 0.189729 0.011545
v -0.067825 0.192434 0.015587
v -0.066695 0.193571 0.016638
v -0.066700 0.195675 0.016671
v -0.066388 0.197631 0.016583
v -0.067209 0.198822 0.014919
v -0.066660 0.201369 0.013874
v -0.067873 0.190248 0.013978
v -0.068479 0.198970 0.011545
v -0.068519 0.198970 0.008252
v -0.069973 0.195008 -0.013908
v -0.068519 0.198970 -0.008218
v -0.068479 0.198970 -0.011511
v -0.066660 0.201369 -0.013840
v -0.070000 0.192379 -0.013948
v -0.069705 0.190548 -0.013463
v -0.067873 0.189729 -0.011511
v -0.065175 0.190024 -0.011511
v -0.065158 0.190007 -0.008218
v -0.065158 0.190007 0.008252
v -0.065175 0.190024 0.011545
v -0.065540 0.190270 0.013936
v -0.065720 0.193571 0.016638
v -0.064604 0.195696 0.016730
v -0.064542 0.198822 0.016750
v -0.063418 0.201527 0.016671
v -0.062723 0.203724 0.016435
v -0.065614 0.199822 0.016072
v -0.066902 0.201790 0.011545
v -0.063760 0.205555 0.014227
v -0.063145 0.207533 0.013526
v -0.065948 0.203435 0.011545
v -0.066924 0.201833 0.008252
v -0.067209 0.198822 -0.014885
v -0.066388 0.197631 -0.016549
v -0.066700 0.195675 -0.016637
v -0.066924 0.201833 -0.008218
v -0.066902 0.201790 -0.011511
v -0.065614 0.199822 -0.016038
v -0.065948 0.203435 -0.011511
v -0.063145 0.207533 -0.013492
v -0.063760 0.205555 -0.014193
v -0.066695 0.193571 -0.016604
v -0.067825 0.192434 -0.015553
v -0.067873 0.190248 -0.013944
v -0.065540 0.190270 -0.013902
v -0.063527 0.191363 -0.011511
v -0.025657 0.222032 -0.008218
v -0.063510 0.191341 -0.008218
v -0.063510 0.191341 0.008252
v -0.025657 0.222032 0.008252
v -0.063527 0.191363 0.011545
v -0.064534 0.192368 0.015046
v -0.025657 0.222431 0.011545
v -0.025657 0.223010 0.013156
v -0.025657 0.223245 0.013608
v -0.063523 0.194614 0.016154
v -0.025657 0.224846 0.014516
v -0.025657 0.225316 0.014735
v -0.025657 0.228005 0.015387
v -0.062570 0.196811 0.016645
v -0.061396 0.199188 0.016730
v -0.061489 0.202484 0.016727
v -0.060412 0.205555 0.016648
v -0.059780 0.207424 0.016550
v -0.058804 0.209621 0.016118
v -0.060219 0.211342 0.013919
v -0.065979 0.203484 0.008252
v -0.063286 0.207757 0.011545
v -0.064657 0.205555 0.011545
v -0.056445 0.217217 0.013330
v -0.059419 0.213485 0.011545
v -0.060562 0.211840 0.011545
v -0.062205 0.209402 0.011545
v -0.064723 0.205555 0.008252
v -0.062723 0.203724 -0.016401
v -0.063418 0.201527 -0.016637
v -0.064542 0.198822 -0.016716
v -0.064604 0.195696 -0.016696
v -0.065979 0.203484 -0.008218
v -0.064723 0.205555 -0.008218
v -0.064657 0.205555 -0.011511
v -0.063286 0.207757 -0.011511
v -0.062205 0.209402 -0.011511
v -0.060562 0.211840 -0.011511
v -0.059419 0.213485 -0.011511
v -0.056445 0.217217 -0.013296
v -0.060219 0.211342 -0.013885
v -0.065720 0.193571 -0.016604
v -0.064534 0.192368 -0.015012
v -0.025657 0.223245 -0.013574
v -0.025657 0.222431 -0.011511
v -0.025657 0.222026 -0.005532
v -0.025657 0.222026 0.004957
v -0.025657 0.228611 0.015459
v -0.054639 0.208949 0.016609
v -0.057710 0.205309 0.016671
v -0.054503 0.212053 0.016576
v -0.057820 0.208654 0.016625
v -0.056607 0.210889 0.016563
v -0.055469 0.213086 0.016304
v -0.051370 0.221933 0.014332
v -0.054560 0.218479 0.014100
v -0.057104 0.215441 0.013985
v -0.063325 0.207817 0.008252
v -0.062258 0.209462 0.008252
v -0.055267 0.219015 0.011545
v -0.056559 0.217376 0.011545
v -0.057987 0.215441 0.011545
v -0.053373 0.220775 0.013579
v -0.052249 0.222726 0.011545
v -0.053624 0.221081 0.011545
v -0.059476 0.213561 0.008252
v -0.058114 0.215441 0.008252
v -0.060610 0.211916 0.008252
v -0.058804 0.209621 -0.016084
v -0.059780 0.207424 -0.016516
v -0.060412 0.205555 -0.016614
v -0.061396 0.199188 -0.016696
v -0.061489 0.202484 -0.016693
v -0.062570 0.196811 -0.016611
v -0.063325 0.207817 -0.008218
v -0.062258 0.209462 -0.008218
v -0.060610 0.211916 -0.008218
v -0.059476 0.213561 -0.008218
v -0.058114 0.215441 -0.008218
v -0.057987 0.215441 -0.011511
v -0.057104 0.215441 -0.013951
v -0.056559 0.217376 -0.011511
v -0.055267 0.219015 -0.011511
v -0.053624 0.221081 -0.011511
v -0.052249 0.222726 -0.011511
v -0.053373 0.220775 -0.013545
v -0.025657 0.228611 -0.015425
v -0.025657 0.225316 -0.014701
v -0.063523 0.194614 -0.016120
v -0.025657 0.231300 0.015472
v -0.052301 0.212146 0.016540
v -0.052345 0.214097 0.016524
v -0.053272 0.214097 0.016524
v -0.044819 0.225316 0.015800
v -0.048110 0.222026 0.015839
v -0.051401 0.218731 0.015787
v -0.048145 0.225327 0.014431
v -0.050249 0.224239 0.013707
v -0.055355 0.219108 0.008252
v -0.053707 0.221190 0.008252
v -0.056629 0.217463 0.008252
v -0.049146 0.226294 0.011545
v -0.050605 0.224649 0.011545
v -0.050711 0.224780 0.008252
v -0.052358 0.222840 0.008252
v -0.055469 0.213086 -0.016270
v -0.054560 0.218479 -0.014066
v -0.051370 0.221933 -0.014298
v -0.056607 0.210889 -0.016529
v -0.057820 0.208654 -0.016591
v -0.057710 0.205309 -0.016637
v -0.054639 0.208949 -0.016575
v -0.054503 0.212053 -0.016542
v -0.056629 0.217463 -0.008218
v -0.055355 0.219108 -0.008218
v -0.053707 0.221190 -0.008218
v -0.052358 0.222840 -0.008218
v -0.050711 0.224780 -0.008218
v -0.050605 0.224649 -0.011511
v -0.049146 0.226294 -0.011511
v -0.050249 0.224239 -0.013673
v -0.025657 0.231907 -0.015438
v -0.052301 0.212146 -0.016506
v -0.025657 0.235202 0.015472
v -0.025657 0.237885 0.015466
v -0.034933 0.231907 0.015767
v -0.038228 0.231907 0.015564
v -0.041523 0.228611 0.015705
v -0.041576 0.231972 0.014378
v -0.044885 0.228671 0.014437
v -0.047073 0.227617 0.013756
v -0.047503 0.228092 0.011545
v -0.047635 0.228240 0.008252
v -0.049278 0.226425 0.008252
v -0.048145 0.225327 -0.014397
v -0.051401 0.218731 -0.015753
v -0.048110 0.222026 -0.015805
v -0.044819 0.225316 -0.015766
v -0.053272 0.214097 -0.016490
v -0.052345 0.214097 -0.016490
v -0.049278 0.226425 -0.008218
v -0.047635 0.228240 -0.008218
v -0.047503 0.228092 -0.011511
v -0.047073 0.227617 -0.013722
v -0.025657 0.235202 -0.015438
v -0.025657 0.238497 0.015436
v -0.031637 0.235202 0.015613
v -0.028346 0.238497 0.015397
v -0.034933 0.235202 0.015335
v -0.038202 0.235229 0.014241
v -0.040513 0.234147 0.013703
v -0.043830 0.230918 0.013749
v -0.044309 0.231415 0.011545
v -0.045957 0.229737 0.011545
v -0.046110 0.229885 0.008252
v -0.044885 0.228671 -0.014403
v -0.041576 0.231972 -0.014344
v -0.041523 0.228611 -0.015671
v -0.038228 0.231907 -0.015530
v -0.034933 0.231907 -0.015733
v -0.025657 0.238497 -0.015402
v -0.028346 0.235202 -0.015523
v -0.046110 0.229885 -0.008218
v -0.045957 0.229737 -0.011511
v -0.044309 0.231415 -0.011511
v -0.043830 0.230918 -0.013715
v -0.025657 0.241181 0.015023
v -0.031637 0.238497 0.014909
v -0.034691 0.238410 0.013949
v -0.037086 0.237251 0.013576
v -0.039203 0.236268 0.011545
v -0.041014 0.234623 0.011545
v -0.042661 0.233065 0.011545
v -0.042841 0.233229 0.008252
v -0.044463 0.231584 0.008252
v -0.040513 0.234147 -0.013669
v -0.038202 0.235229 -0.014207
v -0.034933 0.235202 -0.015301
v -0.028346 0.238497 -0.015363
v -0.031637 0.235202 -0.015579
v -0.025657 0.241815 -0.014760
v -0.044463 0.231584 -0.008218
v -0.042841 0.233229 -0.008218
v -0.042661 0.233065 -0.011511
v -0.025657 0.241815 0.014794
v -0.028311 0.241913 0.014165
v -0.031637 0.240782 0.013726
v -0.033434 0.240241 0.013304
v -0.037556 0.237645 0.011545
v -0.039423 0.236453 0.008252
v -0.041194 0.234803 0.008252
v -0.041014 0.234623 -0.011511
v -0.039203 0.236268 -0.011511
v -0.037086 0.237251 -0.013542
v -0.034691 0.238410 -0.013915
v -0.031637 0.238497 -0.014875
v -0.028311 0.241913 -0.014131
v -0.025657 0.244028 -0.013679
v -0.041194 0.234803 -0.008218
v -0.025657 0.243744 0.013880
v -0.025657 0.244028 0.013713
v -0.027191 0.243684 0.013448
v -0.029467 0.243137 0.011545
v -0.031637 0.241831 0.011545
v -0.033773 0.240481 0.011545
v -0.035420 0.239290 0.011545
v -0.035688 0.239481 0.008252
v -0.037775 0.237831 0.008252
v -0.039423 0.236453 -0.008218
v -0.037775 0.237831 -0.008218
v -0.037556 0.237639 -0.011511
v -0.033434 0.240241 -0.013270
v -0.031637 0.240782 -0.013692
v -0.027191 0.243689 -0.013414
v -0.025657 0.245066 -0.011511
v -0.025657 0.244880 0.012088
v -0.025657 0.245066 0.011545
v -0.027819 0.244028 0.011545
v -0.029849 0.243356 0.008252
v -0.031637 0.242241 0.008252
v -0.034041 0.240672 0.008252
v -0.035688 0.239481 -0.008218
v -0.035420 0.239290 -0.011511
v -0.033773 0.240481 -0.011511
v -0.031637 0.241831 -0.011511
v -0.029467 0.243137 -0.011511
v -0.027819 0.244028 -0.011511
v -0.025657 0.245514 -0.008218
v -0.025657 0.245427 0.008976
v -0.028201 0.244246 0.008252
v -0.029849 0.243356 -0.008218
v -0.031637 0.242241 -0.008218
v -0.034041 0.240672 -0.008218
v -0.028201 0.244246 -0.008218
v -0.025657 0.245520 0.001661
v -0.025657 0.245514 0.008252
f 1 2 3
f 1 3 4
f 1 4 5
f 1 5 6
f 1 6 7
f 1 7 8
f 1 8 9
f 1 9 2
f 2 10 11
f 2 11 3
f 2 9 12
f 2 12 10
f 3 11 13
f 3 13 4
f 4 13 14
f 4 14 16
f 4 16 5
f 5 15 6
f 5 16 17
f 5 17 15
f 6 15 18
f 6 18 19
f 6 19 7
f 7 19 20
f 7 20 21
f 7 21 8
f 8 21 9
f 9 21 22
f 9 22 12
f 10 12 23
f 10 23 24
f 10 24 25
f 10 25 11
f 11 25 26
f 11 26 27
f 11 27 28
f 11 28 13
f 12 22 29
f 12 29 23
f 13 28 30
f 13 30 31
f 13 31 14
f 14 31 33
f 14 33 16
f 15 32 18
f 15 17 32
f 16 33 17
f 17 33 34
f 17 34 35
f 17 35 32
f 18 32 36
f 18 36 37
f 18 37 19
f 19 38 20
f 19 37 38
f 20 38 39
f 20 39 40
f 20 40 41
f 20 41 21
f 21 41 42
f 21 42 22
f 22 42 43
f 22 43 29
f 23 29 24
f 24 29 44
f 24 44 45
f 24 45 25
f 25 45 46
f 25 46 26
f 26 46 47
f 26 47 48
f 26 48 49
f 26 49 27
f 27 49 28
f 28 50 30
f 28 49 51
f 28 51 52
f 28 52 53
f 28 53 50
f 29 43 44
f 30 50 54
f 30 54 31
f 31 54 58
f 31 58 33
f 32 35 55
f 32 55 56
f 32 56 57
f 32 57 36
f 33 58 34
f 34 58 59
f 34 59 35
f 35 60 55
f 35 59 61
f 35 61 62
f 35 62 63
f 35 63 60
f 36 57 64
f 36 64 65
f 36 65 37
f 37 65 66
f 37 66 38
f 38 66 67
f 38 67 39
f 39 67 68
f 39 68 69
f 39 69 70
f 39 70 40
f 40 70 71
f 40 71 41
f 41 71 42
f 42 71 72
f 42 72 73
f 42 73 43
f 43 74 44
f 43 73 75
f 43 75 76
f 43 76 77
f 43 77 74
f 44 78 79
f 44 79 80
f 44 80 81
f 44 81 82
f 44 82 45
f 44 74 78
f 45 82 83
f 45 83 46
f 46 83 84
f 46 84 85
f 46 85 47
f 47 85 86
f 47 86 48
f 48 86 87
f 48 87 88
f 48 88 51
f 48 51 49
f 50 53 89
f 50 89 54
f 51 88 52
f 52 90 91
f 52 91 53
f 52 88 92
f 52 92 93
f 52 93 94
f 52 94 95
f 52 95 90
f 53 91 96
f 53 96 89
f 54 89 101
f 54 101 58
f 55 60 56
f 56 60 97
f 56 97 98
f 56 98 99
f 56 99 57
f 57 100 64
f 57 99 100
f 58 101 59
f 59 101 61
f 60 63 97
f 61 101 102
f 61 102 103
f 61 103 62
f 62 103 104
f 62 104 105
f 62 105 106
f 62 106 107
f 62 107 108
f 62 108 109
f 62 109 63
f 63 109 97
f 64 100 110
f 64 110 66
f 64 66 65
f 66 110 67
f 67 110 111
f 67 111 112
f 67 112 113
f 67 113 68
f 68 113 69
f 69 113 112
f 69 112 156
f 69 156 155
f 69 155 190
f 69 190 213
f 69 213 229
f 69 229 249
f 69 249 266
f 69 266 283
f 69 283 296
f 69 296 303
f 69 303 304
f 69 304 297
f 69 297 285
f 69 285 284
f 69 284 269
f 69 269 268
f 69 268 253
f 69 253 235
f 69 235 214
f 69 214 193
f 69 193 192
f 69 192 158
f 69 158 116
f 69 116 81
f 69 81 80
f 69 80 79
f 69 79 77
f 69 77 76
f 69 76 75
f 69 75 72
f 69 72 115
f 69 115 114
f 69 114 70
f 70 114 115
f 70 115 71
f 71 115 72
f 72 75 73
f 74 77 78
f 77 79 78
f 81 116 82
f 82 116 83
f 83 117 118
f 83 118 84
f 83 116 117
f 84 118 119
f 84 119 120
f 84 120 85
f 85 120 121
f 85 121 86
f 86 121 122
f 86 122 87
f 87 122 123
f 87 123 124
f 87 124 125
f 87 125 88
f 88 125 92
f 89 96 102
f 89 102 101
f 90 126 91
f 90 95 127
f 90 127 126
f 91 126 96
f 92 128 129
f 92 129 130
f 92 130 93
f 92 125 131
f 92 131 132
f 92 132 133
f 92 133 128
f 93 134 94
f 93 130 135
f 93 135 134
f 94 134 136
f 94 136 95
f 95 136 127
f 96 126 143
f 96 143 102
f 97 109 137
f 97 137 138
f 97 138 98
f 98 138 139
f 98 139 99
f 99 140 100
f 99 139 141
f 99 141 140
f 100 140 142
f 100 142 110
f 102 143 103
f 103 143 104
f 104 143 144
f 104 144 105
f 105 144 145
f 105 145 106
f 106 145 146
f 106 146 107
f 107 146 147
f 107 147 148
f 107 148 108
f 108 149 109
f 108 148 150
f 108 150 151
f 108 151 152
f 108 152 153
f 108 153 154
f 108 154 149
f 109 149 137
f 110 142 155
f 110 155 156
f 110 156 112
f 110 112 157
f 110 157 111
f 111 157 112
f 116 158 159
f 116 159 117
f 117 159 160
f 117 160 119
f 117 119 118
f 119 160 161
f 119 161 120
f 120 161 121
f 121 161 162
f 121 162 122
f 122 162 163
f 122 163 164
f 122 164 165
f 122 165 123
f 123 165 166
f 123 166 131
f 123 131 124
f 124 131 125
f 126 127 144
f 126 144 143
f 127 136 145
f 127 145 144
f 128 167 129
f 128 133 168
f 128 168 167
f 129 167 169
f 129 169 130
f 130 169 135
f 131 166 170
f 131 170 171
f 131 171 132
f 132 171 172
f 132 172 173
f 132 173 133
f 133 173 168
f 134 146 145
f 134 145 136
f 134 135 147
f 134 147 146
f 135 169 182
f 135 182 147
f 137 174 138
f 137 149 175
f 137 175 176
f 137 176 174
f 138 174 177
f 138 177 139
f 139 177 178
f 139 178 141
f 140 141 179
f 140 179 180
f 140 180 155
f 140 155 142
f 141 178 181
f 141 181 179
f 147 182 148
f 148 182 150
f 149 154 175
f 150 182 183
f 150 183 151
f 151 183 184
f 151 184 152
f 152 184 185
f 152 185 153
f 153 185 186
f 153 186 187
f 153 187 154
f 154 187 188
f 154 188 189
f 154 189 176
f 154 176 175
f 155 180 191
f 155 191 190
f 158 192 159
f 159 192 193
f 159 193 160
f 160 193 194
f 160 194 161
f 161 194 195
f 161 195 196
f 161 196 162
f 162 196 197
f 162 197 198
f 162 198 163
f 163 198 165
f 163 165 164
f 165 198 199
f 165 199 166
f 166 199 200
f 166 200 170
f 167 183 182
f 167 182 169
f 167 168 184
f 167 184 183
f 168 173 185
f 168 185 184
f 170 200 201
f 170 201 202
f 170 202 171
f 171 202 172
f 172 186 185
f 172 185 173
f 172 202 209
f 172 209 186
f 174 176 203
f 174 203 204
f 174 204 205
f 174 205 206
f 174 206 177
f 176 189 203
f 177 206 207
f 177 207 178
f 178 207 181
f 179 181 180
f 180 181 208
f 180 208 191
f 181 207 208
f 186 209 187
f 187 209 188
f 188 209 210
f 188 210 211
f 188 211 189
f 189 211 212
f 189 212 203
f 190 191 213
f 191 208 213
f 193 214 215
f 193 215 194
f 194 215 195
f 195 215 216
f 195 216 217
f 195 217 218
f 195 218 197
f 195 197 196
f 197 218 219
f 197 219 220
f 197 220 198
f 198 220 199
f 199 220 221
f 199 221 222
f 199 222 200
f 200 222 223
f 200 223 201
f 201 210 209
f 201 209 202
f 201 223 231
f 201 231 210
f 203 205 204
f 203 212 224
f 203 224 205
f 205 224 206
f 206 224 225
f 206 225 226
f 206 226 207
f 207 226 227
f 207 227 228
f 207 228 208
f 208 228 229
f 208 229 230
f 208 230 213
f 210 231 211
f 211 231 232
f 211 232 212
f 212 232 233
f 212 233 234
f 212 234 224
f 213 230 229
f 214 216 215
f 214 235 216
f 216 235 236
f 216 236 217
f 217 236 237
f 217 237 218
f 218 237 238
f 218 238 219
f 219 238 239
f 219 239 240
f 219 240 241
f 219 241 220
f 220 241 221
f 221 241 242
f 221 242 243
f 221 243 222
f 222 243 223
f 223 243 250
f 223 250 231
f 224 234 225
f 225 244 245
f 225 245 227
f 225 227 226
f 225 234 244
f 227 245 246
f 227 246 247
f 227 247 248
f 227 248 228
f 228 248 229
f 229 248 247
f 229 247 249
f 231 250 232
f 232 250 233
f 233 250 251
f 233 251 252
f 233 252 234
f 234 252 244
f 235 253 236
f 236 253 254
f 236 254 255
f 236 255 237
f 237 255 256
f 237 256 238
f 238 256 257
f 238 257 239
f 239 257 276
f 239 276 258
f 239 258 240
f 240 258 259
f 240 259 241
f 241 259 242
f 242 251 250
f 242 250 243
f 242 259 267
f 242 267 251
f 244 252 260
f 244 260 261
f 244 261 262
f 244 262 245
f 245 262 263
f 245 263 246
f 246 263 264
f 246 264 247
f 247 264 249
f 249 264 265
f 249 265 266
f 251 267 252
f 252 267 260
f 253 268 254
f 254 268 269
f 254 269 270
f 254 270 255
f 255 270 256
f 256 270 271
f 256 271 272
f 256 272 273
f 256 273 274
f 256 274 257
f 257 274 275
f 257 275 276
f 258 276 278
f 258 278 277
f 258 277 267
f 258 267 259
f 260 267 277
f 260 277 261
f 261 277 278
f 261 278 279
f 261 279 262
f 262 279 280
f 262 280 263
f 263 280 281
f 263 281 264
f 264 281 265
f 265 282 266
f 265 281 282
f 266 282 283
f 269 284 270
f 270 284 285
f 270 285 286
f 270 286 271
f 271 286 298
f 271 298 287
f 271 287 272
f 272 287 288
f 272 288 273
f 273 289 275
f 273 275 274
f 273 288 289
f 275 290 278
f 275 278 276
f 275 289 301
f 275 301 290
f 278 290 279
f 279 290 291
f 279 291 280
f 280 291 292
f 280 292 293
f 280 293 294
f 280 294 282
f 280 282 281
f 282 294 295
f 282 295 283
f 283 295 296
f 285 297 286
f 286 297 298
f 287 299 300
f 287 300 288
f 287 298 302
f 287 302 299
f 288 300 301
f 288 301 289
f 290 301 292
f 290 292 291
f 292 301 300
f 292 300 293
f 293 300 299
f 293 299 294
f 294 299 302
f 294 302 295
f 295 302 296
f 296 302 303
f 297 304 298
f 298 304 303
f 298 303 302
