v 0.050146 0.016165 0.043037
v 0.050132 0.016165 0.041290
v 0.049832 0.018332 0.043037
v 0.050021 0.016751 0.044207
v 0.050021 0.015579 0.044784
v 0.050048 0.013831 0.043622
v 0.049754 0.018488 0.041290
v 0.050014 0.013831 0.040127
v 0.049950 0.014995 0.038373
v 0.050027 0.016165 0.039543
v 0.048891 0.020147 0.040705
v 0.048786 0.020111 0.047131
v 0.049771 0.018385 0.044495
v 0.049532 0.018385 0.047390
v 0.049815 0.016753 0.046546
v 0.049828 0.015581 0.046546
v 0.049889 0.013689 0.045521
v 0.049882 0.012081 0.043622
v 0.049633 0.018249 0.038897
v 0.049120 0.019091 0.037788
v 0.049663 0.011708 0.039489
v 0.049731 0.012792 0.038206
v 0.049734 0.011505 0.041290
v 0.049714 0.013989 0.037066
v 0.049717 0.015744 0.036869
v 0.049734 0.016874 0.037811
v 0.048446 0.020353 0.038958
v 0.048493 0.020579 0.044822
v 0.047150 0.020888 0.052517
v 0.048823 0.019474 0.049091
v 0.049363 0.017923 0.048879
v 0.049613 0.016605 0.048256
v 0.049012 0.013831 0.051226
v 0.049589 0.012565 0.047048
v 0.049663 0.011641 0.045703
v 0.049478 0.010286 0.043622
v 0.049026 0.017923 0.035456
v 0.048429 0.019364 0.035281
v 0.049285 0.009738 0.041290
v 0.049100 0.009738 0.038958
v 0.049269 0.010910 0.037788
v 0.049349 0.013831 0.035129
v 0.048877 0.012081 0.034286
v 0.049029 0.013831 0.033701
v 0.049124 0.015579 0.034286
v 0.048844 0.016751 0.033701
v 0.047103 0.021051 0.038373
v 0.046826 0.019932 0.031855
v 0.046621 0.020547 0.033724
v 0.047019 0.020983 0.037051
v 0.046702 0.021233 0.045369
v 0.045535 0.021487 0.052973
v 0.044361 0.021665 0.056483
v 0.045946 0.020837 0.057068
v 0.047289 0.019445 0.055632
v 0.048672 0.018268 0.051613
v 0.048526 0.017003 0.053072
v 0.049245 0.016753 0.050048
v 0.049019 0.016167 0.051226
v 0.049124 0.012663 0.050048
v 0.048736 0.014997 0.052624
v 0.048614 0.013077 0.052753
v 0.048682 0.011852 0.051773
v 0.049164 0.010910 0.048294
v 0.049245 0.009859 0.045817
v 0.048982 0.009738 0.047716
v 0.048712 0.008227 0.043037
v 0.048398 0.018084 0.033237
v 0.047403 0.018723 0.031004
v 0.048658 0.008369 0.041343
v 0.048526 0.009294 0.036808
v 0.048398 0.009954 0.034962
v 0.048938 0.010910 0.036041
v 0.048553 0.013024 0.032030
v 0.048469 0.010855 0.033868
v 0.048402 0.011592 0.032630
v 0.048739 0.014411 0.032523
v 0.048435 0.016184 0.031984
v 0.047855 0.017923 0.031361
v 0.019171 0.024849 0.004956
v 0.019512 0.024849 0.006802
v 0.044762 0.019659 0.026644
v 0.045390 0.020029 0.029014
v 0.044361 0.020285 0.027852
v 0.044368 0.020846 0.030184
v 0.046172 0.020871 0.034134
v 0.019653 0.024849 0.008579
v 0.041403 0.021993 0.060471
v 0.044941 0.020971 0.058769
v 0.020051 0.024849 0.036147
v 0.020139 0.024849 0.045984
v 0.046037 0.019627 0.058488
v 0.047471 0.018093 0.056338
v 0.048064 0.017337 0.054728
v 0.047855 0.016167 0.055905
v 0.047771 0.013831 0.055905
v 0.048068 0.013247 0.054728
v 0.047090 0.011433 0.056817
v 0.047036 0.010172 0.055761
v 0.048570 0.010409 0.050611
v 0.048580 0.008646 0.047131
v 0.048675 0.008248 0.044381
v 0.048560 0.009218 0.048909
v 0.047521 0.007252 0.045802
v 0.047316 0.007087 0.043637
v 0.048078 0.008073 0.038958
v 0.047248 0.017915 0.029629
v 0.046236 0.018258 0.027776
v 0.047649 0.008689 0.034871
v 0.047710 0.009408 0.033412
v 0.047208 0.009709 0.031118
v 0.047828 0.010910 0.031361
v 0.047913 0.012663 0.030168
v 0.048203 0.014408 0.030655
v 0.047835 0.016186 0.030161
v 0.041679 0.020685 0.024691
v 0.042951 0.019841 0.023993
v 0.018884 0.024064 0.003573
v 0.017215 0.024849 0.003573
v 0.044992 0.018306 0.025557
v 0.043838 0.018939 0.024243
v 0.043558 0.020001 0.025345
v 0.025438 0.023068 0.079758
v 0.043932 0.019597 0.061686
v 0.045123 0.019470 0.060235
v 0.017670 0.024849 0.045984
v 0.022554 0.023222 0.081012
v 0.045133 0.018095 0.061018
v 0.045946 0.017337 0.059871
v 0.047117 0.016753 0.057728
v 0.047171 0.014997 0.057766
v 0.046894 0.012663 0.058048
v 0.046132 0.012076 0.059438
v 0.046088 0.010940 0.058792
v 0.046064 0.009550 0.057554
v 0.046327 0.008306 0.055480
v 0.047224 0.008767 0.053406
v 0.047366 0.007906 0.051006
v 0.046132 0.006799 0.051385
v 0.046256 0.006731 0.049464
v 0.046702 0.006924 0.041867
v 0.046702 0.007142 0.038958
v 0.046702 0.007294 0.037203
v 0.047477 0.007787 0.037203
v 0.047083 0.016751 0.028406
v 0.046233 0.016254 0.026340
v 0.046378 0.007738 0.033701
v 0.046540 0.008714 0.031361
v 0.046891 0.007726 0.035326
v 0.046007 0.008676 0.030001
v 0.046118 0.009725 0.028429
v 0.047258 0.010953 0.029652
v 0.047204 0.012608 0.028398
v 0.047397 0.014648 0.028474
v 0.042705 0.018964 0.022732
v 0.041558 0.018675 0.021303
v 0.040505 0.018294 0.020020
v 0.040279 0.016776 0.019070
v 0.039510 0.015748 0.018075
v 0.039318 0.014406 0.017703
v 0.038181 0.014121 0.016791
v 0.019495 0.018021 0.003505
v 0.016172 0.018239 0.003505
v 0.017215 0.024849 0.039543
v 0.044992 0.016207 0.024213
v 0.043723 0.017454 0.023005
v 0.023978 0.022757 0.080951
v 0.025360 0.021432 0.080176
v 0.042792 0.016167 0.064277
v 0.043275 0.018211 0.063289
v 0.018031 0.023222 0.076340
v 0.018510 0.023222 0.078125
v 0.019626 0.023222 0.079743
v 0.021175 0.023222 0.080708
v 0.020345 0.004784 0.081065
v 0.022584 0.017921 0.081095
v 0.044921 0.016753 0.061724
v 0.046405 0.015581 0.059362
v 0.046017 0.013784 0.060099
v 0.044840 0.012680 0.061511
v 0.044998 0.010396 0.060228
v 0.045042 0.008549 0.058556
v 0.046995 0.007950 0.052312
v 0.044934 0.007362 0.057068
v 0.044071 0.007093 0.058268
v 0.023546 0.003231 0.079568
v 0.018392 0.003231 0.045992
v 0.016172 0.005273 0.003505
v 0.045531 0.007137 0.035456
v 0.045531 0.007366 0.033701
v 0.046368 0.014406 0.026120
v 0.044364 0.007559 0.030161
v 0.046155 0.007946 0.032409
v 0.045130 0.008276 0.028991
v 0.045066 0.009273 0.027016
v 0.044816 0.010295 0.025436
v 0.046138 0.010866 0.027236
v 0.046280 0.012519 0.026401
v 0.042691 0.017746 0.021911
v 0.041551 0.017096 0.020437
v 0.042779 0.016006 0.021235
v 0.042057 0.014992 0.020240
v 0.042651 0.013251 0.020772
v 0.041713 0.012785 0.019997
v 0.040381 0.012466 0.019002
v 0.038984 0.012081 0.017999
v 0.017761 0.005779 0.003505
v 0.018189 0.007400 0.003505
v 0.018743 0.009728 0.003505
v 0.019026 0.011021 0.003505
v 0.019245 0.012711 0.003505
v 0.019488 0.016723 0.003505
v 0.016172 0.018239 0.037605
v 0.015730 0.003231 0.047716
v 0.015687 0.003231 0.057592
v 0.045012 0.013877 0.023818
v 0.043241 0.014406 0.021372
v 0.043632 0.015750 0.022192
v 0.023721 0.013829 0.081080
v 0.024514 0.021432 0.080761
v 0.025246 0.016165 0.080396
v 0.042691 0.013831 0.064178
v 0.043835 0.013831 0.062985
v 0.043919 0.016167 0.063092
v 0.025475 0.013829 0.080222
v 0.016037 0.003231 0.076545
v 0.016746 0.003231 0.078444
v 0.017791 0.003231 0.079781
v 0.018867 0.003231 0.080571
v 0.021654 0.006530 0.081088
v 0.020793 0.003396 0.081027
v 0.044958 0.014997 0.061770
v 0.043167 0.011835 0.063168
v 0.043841 0.010866 0.061952
v 0.044111 0.009677 0.060911
v 0.044249 0.008399 0.059681
v 0.023910 0.004444 0.079895
v 0.022267 0.003561 0.080807
v 0.015784 0.003231 0.046265
v 0.043649 0.008047 0.026856
v 0.043619 0.009366 0.024456
v 0.042762 0.010119 0.022374
v 0.043636 0.011289 0.022807
v 0.043791 0.012851 0.022268
v 0.042442 0.011175 0.021372
v 0.041470 0.010502 0.020772
v 0.039787 0.011296 0.018986
v 0.042044 0.009067 0.022724
v 0.042047 0.008219 0.024334
v 0.042870 0.008155 0.025535
v 0.022878 0.007302 0.081034
v 0.023515 0.008568 0.080974
v 0.024133 0.010001 0.080814
v 0.025131 0.011495 0.080313
v 0.024649 0.008140 0.080267
v 0.023762 0.005935 0.080427
f 1 2 3
f 1 3 4
f 1 4 5
f 1 5 6
f 1 6 2
f 2 7 3
f 2 6 8
f 2 8 9
f 2 9 10
f 2 10 7
f 3 7 11
f 3 11 12
f 3 12 13
f 3 13 4
f 4 13 14
f 4 14 15
f 4 15 5
f 5 15 16
f 5 16 17
f 5 17 6
f 6 17 18
f 6 18 8
f 7 10 19
f 7 19 20
f 7 20 11
f 8 21 22
f 8 22 9
f 8 18 23
f 8 23 21
f 9 22 24
f 9 24 25
f 9 25 10
f 10 25 26
f 10 26 19
f 11 20 27
f 11 27 28
f 11 28 12
f 12 28 29
f 12 29 30
f 12 30 14
f 12 14 13
f 14 30 31
f 14 31 32
f 14 32 15
f 15 32 16
f 16 32 33
f 16 33 17
f 17 33 34
f 17 34 35
f 17 35 18
f 18 36 23
f 18 35 36
f 19 26 37
f 19 37 20
f 20 37 38
f 20 38 27
f 21 23 39
f 21 39 40
f 21 40 41
f 21 41 22
f 22 42 24
f 22 41 43
f 22 43 42
f 23 36 39
f 24 42 25
f 25 42 44
f 25 44 45
f 25 45 46
f 25 46 26
f 26 46 37
f 27 47 28
f 27 38 48
f 27 48 49
f 27 49 50
f 27 50 47
f 28 51 52
f 28 52 29
f 28 47 51
f 29 52 53
f 29 53 54
f 29 54 55
f 29 55 30
f 30 55 56
f 30 56 31
f 31 56 57
f 31 57 58
f 31 58 32
f 32 58 59
f 32 59 33
f 33 60 34
f 33 59 61
f 33 61 62
f 33 62 63
f 33 63 60
f 34 60 64
f 34 64 35
f 35 65 36
f 35 64 66
f 35 66 65
f 36 65 67
f 36 67 39
f 37 46 68
f 37 68 38
f 38 68 69
f 38 69 48
f 39 67 70
f 39 70 40
f 40 71 72
f 40 72 73
f 40 73 41
f 40 70 71
f 41 73 43
f 42 43 74
f 42 74 44
f 43 75 76
f 43 76 74
f 43 73 75
f 44 74 77
f 44 77 45
f 45 77 78
f 45 78 46
f 46 78 79
f 46 79 68
f 47 50 80
f 47 80 81
f 47 81 51
f 48 69 82
f 48 82 83
f 48 83 49
f 49 83 84
f 49 84 85
f 49 85 86
f 49 86 50
f 50 86 80
f 51 81 87
f 51 87 52
f 52 87 53
f 53 88 89
f 53 89 54
f 53 87 90
f 53 90 91
f 53 91 88
f 54 89 92
f 54 92 55
f 55 93 56
f 55 92 93
f 56 93 94
f 56 94 57
f 57 94 95
f 57 95 61
f 57 61 59
f 57 59 58
f 60 63 64
f 61 95 96
f 61 96 62
f 62 96 97
f 62 97 63
f 63 97 98
f 63 98 99
f 63 99 100
f 63 100 64
f 64 100 66
f 65 101 102
f 65 102 67
f 65 66 101
f 66 100 103
f 66 103 101
f 67 102 104
f 67 104 105
f 67 105 106
f 67 106 70
f 68 79 69
f 69 79 107
f 69 107 108
f 69 108 82
f 70 106 71
f 71 106 109
f 71 109 110
f 71 110 72
f 72 110 111
f 72 111 112
f 72 112 75
f 72 75 73
f 74 76 113
f 74 113 114
f 74 114 77
f 75 112 76
f 76 112 113
f 77 114 78
f 78 114 115
f 78 115 79
f 79 115 107
f 80 116 117
f 80 117 118
f 80 118 119
f 80 119 164
f 80 164 126
f 80 126 91
f 80 91 90
f 80 90 87
f 80 87 81
f 80 86 85
f 80 85 116
f 82 108 120
f 82 120 121
f 82 121 117
f 82 117 122
f 82 122 83
f 83 122 84
f 84 122 116
f 84 116 85
f 88 123 89
f 88 91 123
f 89 123 124
f 89 124 125
f 89 125 92
f 91 126 127
f 91 127 123
f 92 125 128
f 92 128 129
f 92 129 93
f 93 95 94
f 93 129 130
f 93 130 95
f 95 130 131
f 95 131 96
f 96 131 132
f 96 132 97
f 97 132 98
f 98 132 133
f 98 133 134
f 98 134 135
f 98 135 99
f 99 136 137
f 99 137 100
f 99 135 136
f 100 137 103
f 101 103 138
f 101 138 102
f 102 138 104
f 103 137 138
f 104 138 139
f 104 139 140
f 104 140 105
f 105 140 141
f 105 141 142
f 105 142 143
f 105 143 144
f 105 144 106
f 106 144 109
f 107 115 145
f 107 145 108
f 108 145 146
f 108 146 120
f 109 147 148
f 109 148 111
f 109 111 110
f 109 144 149
f 109 149 147
f 111 148 150
f 111 150 151
f 111 151 152
f 111 152 112
f 112 152 113
f 113 152 153
f 113 153 154
f 113 154 114
f 114 154 115
f 115 154 145
f 116 122 117
f 117 121 155
f 117 155 118
f 118 155 156
f 118 156 157
f 118 157 158
f 118 158 159
f 118 159 160
f 118 160 161
f 118 161 162
f 118 162 119
f 119 162 163
f 119 163 213
f 119 213 164
f 120 146 165
f 120 165 166
f 120 166 121
f 121 166 155
f 123 127 167
f 123 167 168
f 123 168 169
f 123 169 170
f 123 170 124
f 124 128 125
f 124 170 128
f 126 171 172
f 126 172 173
f 126 173 174
f 126 174 127
f 126 164 171
f 127 174 175
f 127 175 176
f 127 176 167
f 128 177 129
f 128 170 177
f 129 177 178
f 129 178 130
f 130 178 131
f 131 178 179
f 131 179 132
f 132 179 133
f 133 179 180
f 133 180 181
f 133 181 134
f 134 181 182
f 134 182 135
f 135 182 136
f 136 183 138
f 136 138 137
f 136 182 184
f 136 184 183
f 138 183 184
f 138 184 139
f 139 184 185
f 139 185 186
f 139 186 140
f 140 186 141
f 141 186 187
f 141 187 188
f 141 188 189
f 141 189 142
f 142 189 143
f 143 189 190
f 143 190 147
f 143 147 149
f 143 149 144
f 145 154 146
f 146 191 165
f 146 154 191
f 147 190 192
f 147 192 193
f 147 193 148
f 148 193 150
f 150 193 194
f 150 194 195
f 150 195 151
f 151 195 196
f 151 196 197
f 151 197 152
f 152 197 198
f 152 198 153
f 153 198 191
f 153 191 154
f 155 166 199
f 155 199 156
f 156 199 157
f 157 199 200
f 157 200 158
f 158 200 201
f 158 201 202
f 158 202 159
f 159 202 160
f 160 202 203
f 160 203 204
f 160 204 161
f 161 204 205
f 161 205 206
f 161 206 207
f 161 207 208
f 161 208 209
f 161 209 210
f 161 210 211
f 161 211 212
f 161 212 162
f 162 212 211
f 162 211 210
f 162 210 209
f 162 209 208
f 162 208 207
f 162 207 188
f 162 188 163
f 163 188 214
f 163 214 215
f 163 215 213
f 164 213 171
f 165 216 217
f 165 217 218
f 165 218 166
f 165 191 216
f 166 218 201
f 166 201 199
f 167 176 219
f 167 219 220
f 167 220 168
f 168 220 221
f 168 221 169
f 169 222 223
f 169 223 224
f 169 224 170
f 169 221 225
f 169 225 222
f 170 224 177
f 171 226 172
f 171 213 226
f 172 226 227
f 172 227 173
f 173 227 228
f 173 228 229
f 173 229 174
f 174 229 175
f 175 230 176
f 175 229 231
f 175 231 230
f 176 230 219
f 177 224 232
f 177 232 178
f 178 232 179
f 179 232 180
f 180 232 223
f 180 223 233
f 180 233 234
f 180 234 181
f 181 234 235
f 181 235 236
f 181 236 182
f 182 185 184
f 182 236 185
f 185 236 186
f 186 236 235
f 186 235 234
f 186 234 237
f 186 237 238
f 186 238 231
f 186 231 229
f 186 229 228
f 186 228 227
f 186 227 226
f 186 226 215
f 186 215 214
f 186 214 239
f 186 239 187
f 187 239 188
f 188 207 240
f 188 240 192
f 188 192 189
f 188 239 214
f 189 192 190
f 191 198 216
f 192 240 194
f 192 194 193
f 194 240 195
f 195 240 241
f 195 241 196
f 196 241 242
f 196 242 243
f 196 243 197
f 197 243 198
f 198 243 244
f 198 244 216
f 199 201 200
f 201 218 217
f 201 217 202
f 202 217 203
f 203 217 244
f 203 244 245
f 203 245 204
f 204 245 246
f 204 246 247
f 204 247 205
f 205 247 206
f 206 247 207
f 207 247 246
f 207 246 248
f 207 248 249
f 207 249 250
f 207 250 240
f 213 215 226
f 216 244 217
f 219 230 251
f 219 251 252
f 219 252 253
f 219 253 221
f 219 221 220
f 221 253 225
f 222 225 254
f 222 254 255
f 222 255 233
f 222 233 223
f 223 232 224
f 225 253 254
f 230 231 251
f 231 238 251
f 233 255 237
f 233 237 234
f 237 255 256
f 237 256 238
f 238 256 252
f 238 252 251
f 240 250 241
f 241 248 242
f 241 250 248
f 242 248 246
f 242 246 245
f 242 245 243
f 243 245 244
f 248 250 249
f 252 256 255
f 252 255 253
f 253 255 254
