v -0.014736 -0.013602 0.003415
v -0.012655 -0.012475 0.003415
v -0.006632 -0.020437 0.003415
v -0.045656 -0.014342 0.003577
v -0.048284 -0.012092 0.003577
v -0.054600 0.002985 0.003577
v -0.011112 -0.011879 0.003415
v -0.004769 -0.019668 0.003415
v -0.005663 -0.020480 0.005028
v -0.007627 -0.021209 0.004953
v -0.009180 -0.021469 0.003982
v -0.012112 -0.022157 0.003836
v -0.018806 -0.023140 0.004011
v -0.020562 -0.023203 0.004011
v -0.023042 -0.023146 0.004011
v -0.024579 -0.023062 0.004011
v -0.026415 -0.022829 0.004011
v -0.031129 -0.021823 0.004019
v -0.035482 -0.020359 0.004032
v -0.038595 -0.019022 0.004090
v -0.040782 -0.017821 0.004040
v -0.044421 -0.015558 0.004094
v -0.047193 -0.013109 0.003661
v -0.049838 -0.010858 0.004036
v -0.050812 -0.009812 0.004044
v -0.052083 -0.008167 0.003832
v -0.056298 -0.001634 0.003632
v -0.054600 0.005051 0.004244
v -0.003418 -0.010135 0.003415
v -0.003413 -0.017195 0.003415
v -0.003460 -0.019264 0.003932
v -0.003998 -0.019988 0.006241
v -0.006424 -0.021146 0.007374
v -0.009447 -0.021947 0.005620
v -0.010617 -0.022005 0.004448
v -0.014714 -0.023097 0.005615
v -0.014805 -0.022777 0.004203
v -0.016976 -0.022982 0.004011
v -0.017050 -0.023376 0.005615
v -0.019402 -0.023618 0.006253
v -0.021759 -0.023630 0.006211
v -0.024069 -0.023417 0.005615
v -0.026410 -0.023192 0.005907
v -0.028166 -0.022852 0.005615
v -0.029001 -0.022362 0.004111
v -0.033529 -0.021388 0.005382
v -0.030087 -0.022414 0.005411
v -0.037014 -0.019884 0.004690
v -0.034939 -0.021025 0.006166
v -0.039616 -0.018944 0.006307
v -0.041729 -0.017671 0.005474
v -0.042633 -0.016798 0.004265
v -0.045464 -0.015276 0.006253
v -0.047199 -0.013694 0.005295
v -0.043416 -0.016616 0.005620
v -0.050274 -0.010913 0.005911
v -0.053387 -0.007115 0.005453
v -0.053520 -0.006334 0.004015
v -0.055718 -0.002968 0.004019
v -0.056633 -0.001781 0.005057
v -0.056793 -0.001937 0.006787
v -0.057596 -0.001634 0.031331
v -0.057772 -0.001634 0.041555
v -0.054600 0.005051 0.041597
v -0.005610 0.005267 0.025080
v -0.004589 0.005267 0.019069
v -0.003705 0.005267 0.016785
v -0.003418 0.003901 0.014310
v -0.003418 0.001383 0.011634
v -0.003418 -0.000139 0.010300
v -0.003413 -0.017195 0.040576
v -0.003413 -0.020189 0.018486
v -0.003647 -0.020129 0.010296
v -0.004503 -0.020431 0.008691
v -0.006328 -0.021351 0.013805
v -0.007111 -0.021601 0.012638
v -0.008281 -0.021872 0.009129
v -0.008281 -0.021783 0.007374
v -0.010186 -0.022417 0.008541
v -0.011234 -0.022483 0.006232
v -0.012958 -0.022855 0.006203
v -0.014384 -0.023218 0.007262
v -0.017407 -0.023610 0.007312
v -0.020562 -0.023800 0.007958
v -0.018806 -0.023751 0.007958
v -0.022318 -0.023777 0.008541
v -0.023680 -0.023624 0.007449
v -0.025824 -0.023373 0.007370
v -0.026995 -0.023264 0.008541
v -0.028751 -0.022898 0.007370
v -0.031087 -0.022278 0.006462
v -0.036568 -0.020477 0.007370
v -0.032838 -0.021861 0.007958
v -0.035259 -0.021074 0.007958
v -0.039308 -0.019270 0.007958
v -0.041553 -0.017996 0.007370
v -0.043261 -0.016907 0.007370
v -0.044522 -0.016103 0.007958
v -0.045629 -0.015354 0.008541
v -0.046906 -0.014270 0.007370
v -0.048135 -0.013158 0.006787
v -0.050961 -0.010449 0.008541
v -0.052749 -0.008158 0.006787
v -0.049535 -0.011939 0.007662
v -0.054824 -0.005380 0.007370
v -0.054520 -0.005559 0.005620
v -0.054717 -0.004738 0.004248
v -0.055803 -0.003605 0.006149
v -0.055627 -0.004308 0.008541
v -0.056580 -0.002574 0.008541
v -0.056558 -0.002784 0.010300
v -0.057330 -0.002363 0.036012
v -0.057681 -0.001804 0.039821
v -0.057059 -0.002957 0.038938
v -0.056362 -0.004107 0.041818
v -0.030645 -0.020348 0.045990
v -0.003413 -0.017553 0.045981
v -0.003418 -0.001703 0.036495
v -0.003418 0.000158 0.035278
v -0.003418 0.001950 0.033845
v -0.003418 0.003083 0.032869
v -0.003641 0.005267 0.030631
v -0.004413 0.005267 0.029377
v -0.005153 0.005267 0.027384
v -0.003413 -0.020256 0.026459
v -0.005137 -0.021062 0.036016
v -0.008659 -0.022405 0.045452
v -0.009047 -0.022382 0.025492
v -0.008888 -0.022238 0.016148
v -0.008281 -0.021947 0.011467
v -0.011788 -0.022947 0.014977
v -0.012373 -0.022921 0.008250
v -0.013544 -0.023198 0.009712
v -0.015736 -0.023543 0.009433
v -0.018221 -0.023797 0.009712
v -0.017050 -0.023765 0.011467
v -0.020562 -0.023855 0.009712
v -0.021147 -0.023927 0.014977
v -0.022318 -0.023858 0.013805
v -0.023483 -0.023817 0.014977
v -0.025090 -0.023659 0.014751
v -0.025324 -0.023500 0.009129
v -0.026995 -0.023391 0.014393
v -0.029336 -0.023025 0.020241
v -0.032231 -0.022172 0.010884
v -0.031220 -0.022339 0.007958
v -0.036344 -0.020688 0.009712
v -0.038148 -0.019887 0.009421
v -0.034008 -0.021621 0.011467
v -0.034476 -0.021561 0.016148
v -0.035572 -0.021181 0.017902
v -0.040580 -0.018671 0.009712
v -0.042186 -0.017740 0.009712
v -0.043841 -0.016659 0.009979
v -0.045757 -0.015449 0.014972
v -0.046326 -0.014870 0.010300
v -0.047247 -0.014077 0.009129
v -0.048231 -0.013233 0.008541
v -0.050987 -0.010766 0.019657
v -0.051966 -0.009377 0.010884
v -0.052823 -0.008245 0.008541
v -0.049444 -0.012135 0.009129
v -0.054387 -0.006251 0.009888
v -0.055851 -0.004061 0.010300
v -0.055941 -0.004669 0.034845
v -0.055558 -0.005360 0.038350
v -0.054584 -0.006818 0.038938
v -0.053999 -0.007634 0.041818
v -0.030645 -0.022820 0.045990
v -0.014736 -0.021149 0.045990
v -0.003508 -0.020336 0.045981
v -0.003413 -0.020281 0.034653
v -0.004142 -0.020619 0.043035
v -0.005147 -0.021036 0.045981
v -0.006967 -0.021791 0.045981
v -0.011341 -0.023091 0.045831
v -0.011202 -0.022964 0.024333
v -0.013544 -0.023373 0.019653
v -0.014299 -0.023529 0.021266
v -0.017636 -0.023909 0.018482
v -0.019391 -0.024022 0.020824
v -0.016470 -0.023803 0.019653
v -0.021733 -0.023964 0.019653
v -0.019977 -0.024054 0.024333
v -0.023483 -0.023884 0.020824
v -0.024915 -0.023797 0.022579
v -0.025713 -0.023670 0.020824
v -0.027580 -0.023385 0.020824
v -0.028751 -0.023319 0.035141
v -0.030502 -0.022947 0.034849
v -0.031837 -0.022469 0.023146
v -0.033423 -0.021990 0.021120
v -0.036344 -0.020829 0.016148
v -0.038446 -0.019855 0.015560
v -0.035019 -0.021425 0.019657
v -0.036195 -0.021071 0.030748
v -0.040308 -0.019011 0.021412
v -0.042357 -0.017844 0.020828
v -0.044336 -0.016460 0.015560
v -0.046151 -0.015316 0.024321
v -0.046379 -0.014924 0.013805
v -0.048768 -0.013210 0.030164
v -0.047800 -0.014034 0.028997
v -0.049928 -0.012046 0.026659
v -0.051690 -0.010259 0.031331
v -0.052222 -0.009663 0.030164
v -0.053270 -0.007787 0.010884
v -0.054430 -0.006899 0.031915
v -0.055319 -0.005562 0.031331
v -0.053579 -0.008138 0.038350
v -0.052280 -0.009737 0.038938
v -0.052264 -0.009720 0.041818
v -0.047843 -0.014103 0.041818
v -0.046422 -0.015230 0.041818
v -0.044560 -0.016599 0.041818
v -0.042782 -0.017757 0.041818
v -0.040904 -0.018861 0.041818
v -0.035860 -0.021129 0.041255
v -0.033455 -0.022008 0.041539
v -0.032433 -0.022391 0.035570
v -0.030576 -0.022924 0.037112
v -0.028751 -0.023275 0.043914
v -0.027660 -0.023471 0.045761
v -0.021424 -0.024146 0.045990
v -0.015018 -0.023794 0.045990
v -0.013427 -0.023526 0.045981
v -0.013528 -0.023543 0.043618
v -0.013528 -0.023420 0.023458
v -0.017636 -0.023932 0.020824
v -0.019977 -0.024172 0.045990
v -0.018359 -0.024103 0.045990
v -0.016747 -0.023979 0.045990
v -0.022318 -0.024091 0.039525
v -0.022318 -0.024074 0.037187
v -0.021147 -0.024091 0.034849
v -0.024069 -0.023961 0.036312
v -0.026931 -0.023592 0.033678
v -0.026431 -0.023607 0.024859
v -0.037509 -0.020489 0.030748
v -0.035886 -0.021166 0.039525
v -0.040202 -0.019169 0.032503
v -0.041128 -0.018648 0.031331
v -0.038818 -0.019881 0.033674
v -0.042708 -0.017705 0.027822
v -0.044224 -0.016774 0.033674
v -0.044709 -0.016504 0.038938
v -0.045959 -0.015610 0.038938
v -0.047385 -0.014481 0.037771
v -0.048816 -0.013242 0.034845
v -0.050556 -0.011642 0.041539
v -0.049152 -0.013014 0.041255
v -0.053318 -0.008426 0.036012
v -0.053217 -0.008302 0.025484
v -0.045257 -0.016120 0.040692
v -0.022898 -0.024071 0.044206
v -0.022967 -0.024051 0.045681
f 1 2 7
f 1 7 29
f 1 29 30
f 1 30 8
f 1 8 3
f 1 3 4
f 1 4 5
f 1 5 6
f 1 6 2
f 2 6 7
f 3 8 9
f 3 9 10
f 3 10 11
f 3 11 12
f 3 12 13
f 3 13 14
f 3 14 15
f 3 15 16
f 3 16 17
f 3 17 4
f 4 18 19
f 4 19 20
f 4 20 21
f 4 21 22
f 4 22 23
f 4 23 5
f 4 17 18
f 5 23 24
f 5 24 25
f 5 25 26
f 5 26 27
f 5 27 6
f 6 27 28
f 6 28 29
f 6 29 7
f 8 30 31
f 8 31 9
f 9 31 32
f 9 32 33
f 9 33 10
f 10 34 11
f 10 33 34
f 11 34 35
f 11 35 12
f 12 35 36
f 12 36 37
f 12 37 38
f 12 38 13
f 13 38 39
f 13 39 40
f 13 40 14
f 14 40 41
f 14 41 15
f 15 41 42
f 15 42 16
f 16 42 43
f 16 43 17
f 17 43 44
f 17 44 45
f 17 45 18
f 18 46 19
f 18 45 47
f 18 47 46
f 19 48 20
f 19 46 49
f 19 49 48
f 20 48 50
f 20 50 51
f 20 51 21
f 21 51 52
f 21 52 22
f 22 53 54
f 22 54 23
f 22 52 55
f 22 55 53
f 23 54 24
f 24 54 56
f 24 56 25
f 25 56 57
f 25 57 26
f 26 57 58
f 26 58 27
f 27 59 60
f 27 60 28
f 27 58 59
f 28 60 61
f 28 61 62
f 28 62 63
f 28 63 64
f 28 64 65
f 28 65 66
f 28 66 67
f 28 67 68
f 28 68 69
f 28 69 70
f 28 70 29
f 29 70 30
f 30 71 117
f 30 117 172
f 30 172 125
f 30 125 72
f 30 72 31
f 30 70 69
f 30 69 68
f 30 68 71
f 31 72 73
f 31 73 32
f 32 73 74
f 32 74 33
f 33 74 75
f 33 75 76
f 33 76 77
f 33 77 78
f 33 78 34
f 34 79 80
f 34 80 35
f 34 78 79
f 35 80 81
f 35 81 36
f 36 81 82
f 36 82 83
f 36 83 39
f 36 39 37
f 37 39 38
f 39 83 40
f 40 84 41
f 40 83 85
f 40 85 84
f 41 84 86
f 41 86 87
f 41 87 42
f 42 87 43
f 43 87 88
f 43 88 89
f 43 89 90
f 43 90 44
f 44 90 47
f 44 47 45
f 46 47 91
f 46 91 49
f 47 90 91
f 48 49 92
f 48 92 50
f 49 91 93
f 49 93 94
f 49 94 92
f 50 92 95
f 50 95 96
f 50 96 51
f 51 96 55
f 51 55 52
f 53 55 97
f 53 97 98
f 53 98 99
f 53 99 100
f 53 100 54
f 54 100 101
f 54 101 56
f 55 96 97
f 56 102 103
f 56 103 57
f 56 101 104
f 56 104 102
f 57 105 106
f 57 106 107
f 57 107 58
f 57 103 105
f 58 107 59
f 59 108 60
f 59 107 108
f 60 108 61
f 61 108 109
f 61 109 110
f 61 110 111
f 61 111 62
f 62 111 112
f 62 112 113
f 62 113 63
f 63 113 114
f 63 114 115
f 63 115 116
f 63 116 64
f 64 116 117
f 64 117 118
f 64 118 119
f 64 119 120
f 64 120 121
f 64 121 122
f 64 122 123
f 64 123 124
f 64 124 65
f 65 124 123
f 65 123 122
f 65 122 67
f 65 67 66
f 67 122 68
f 68 122 121
f 68 121 71
f 71 121 117
f 72 125 126
f 72 126 75
f 72 75 73
f 73 75 74
f 75 126 127
f 75 127 128
f 75 128 129
f 75 129 76
f 76 129 130
f 76 130 77
f 77 130 79
f 77 79 78
f 79 130 129
f 79 129 131
f 79 131 132
f 79 132 80
f 80 132 81
f 81 132 82
f 82 132 133
f 82 133 134
f 82 134 83
f 83 135 85
f 83 134 136
f 83 136 135
f 84 85 135
f 84 135 137
f 84 137 86
f 86 137 138
f 86 138 139
f 86 139 140
f 86 140 87
f 87 140 141
f 87 141 142
f 87 142 88
f 88 142 89
f 89 143 90
f 89 142 141
f 89 141 143
f 90 144 145
f 90 145 146
f 90 146 91
f 90 143 144
f 91 146 93
f 92 147 148
f 92 148 95
f 92 94 147
f 93 146 145
f 93 145 149
f 93 149 94
f 94 149 150
f 94 150 151
f 94 151 147
f 95 148 152
f 95 152 96
f 96 152 153
f 96 153 97
f 97 154 98
f 97 153 154
f 98 154 99
f 99 155 156
f 99 156 157
f 99 157 100
f 99 154 155
f 100 157 158
f 100 158 101
f 101 158 104
f 102 159 160
f 102 160 161
f 102 161 103
f 102 104 162
f 102 162 159
f 103 161 163
f 103 163 105
f 104 158 162
f 105 163 109
f 105 109 106
f 106 109 108
f 106 108 107
f 109 164 111
f 109 111 110
f 109 163 164
f 111 164 112
f 112 114 113
f 112 164 114
f 114 164 165
f 114 165 166
f 114 166 115
f 115 166 167
f 115 167 168
f 115 168 169
f 115 169 116
f 116 170 117
f 116 169 224
f 116 224 230
f 116 230 231
f 116 231 232
f 116 232 225
f 116 225 170
f 117 170 171
f 117 171 172
f 117 121 120
f 117 120 119
f 117 119 118
f 125 172 126
f 126 173 174
f 126 174 175
f 126 175 127
f 126 172 171
f 126 171 173
f 127 175 176
f 127 176 177
f 127 177 128
f 128 177 129
f 129 177 131
f 131 178 133
f 131 133 132
f 131 177 178
f 133 178 179
f 133 179 134
f 134 179 136
f 135 136 180
f 135 180 181
f 135 181 137
f 136 179 182
f 136 182 180
f 137 181 138
f 138 183 139
f 138 181 184
f 138 184 183
f 139 183 140
f 140 185 186
f 140 186 141
f 140 183 185
f 141 186 187
f 141 187 143
f 143 188 144
f 143 187 188
f 144 188 189
f 144 189 190
f 144 190 191
f 144 191 145
f 145 191 192
f 145 192 149
f 147 151 193
f 147 193 148
f 148 194 152
f 148 193 194
f 149 192 150
f 150 195 151
f 150 192 195
f 151 196 193
f 151 195 196
f 152 197 198
f 152 198 153
f 152 194 197
f 153 198 199
f 153 199 154
f 154 199 155
f 155 200 201
f 155 201 156
f 155 199 200
f 156 201 157
f 157 201 158
f 158 202 162
f 158 201 203
f 158 203 202
f 159 162 204
f 159 204 205
f 159 205 206
f 159 206 160
f 160 206 207
f 160 207 161
f 161 207 163
f 162 202 204
f 163 208 209
f 163 209 164
f 163 207 208
f 164 209 165
f 165 209 166
f 166 209 208
f 166 208 167
f 167 208 210
f 167 210 168
f 168 210 211
f 168 211 212
f 168 212 169
f 169 212 213
f 169 213 214
f 169 214 215
f 169 215 216
f 169 216 217
f 169 217 218
f 169 218 219
f 169 219 220
f 169 220 221
f 169 221 222
f 169 222 223
f 169 223 224
f 170 225 171
f 171 174 173
f 171 225 174
f 174 225 175
f 175 226 176
f 175 225 226
f 176 226 227
f 176 227 177
f 177 227 228
f 177 228 178
f 178 228 179
f 179 228 227
f 179 227 225
f 179 225 182
f 180 229 181
f 180 182 229
f 181 230 184
f 181 229 231
f 181 231 230
f 182 225 232
f 182 232 229
f 183 233 234
f 183 234 185
f 183 184 233
f 184 230 235
f 184 235 233
f 185 236 186
f 185 234 233
f 185 233 236
f 186 236 237
f 186 237 238
f 186 238 187
f 187 238 188
f 188 238 189
f 189 221 190
f 189 238 237
f 189 237 223
f 189 223 222
f 189 222 221
f 190 221 220
f 190 220 191
f 191 220 192
f 192 220 196
f 192 196 195
f 193 196 239
f 193 239 194
f 194 239 197
f 196 220 240
f 196 240 239
f 197 241 242
f 197 242 198
f 197 239 243
f 197 243 241
f 198 242 244
f 198 244 199
f 199 245 200
f 199 244 245
f 200 245 246
f 200 246 247
f 200 247 248
f 200 248 203
f 200 203 201
f 202 203 249
f 202 249 204
f 203 248 249
f 204 250 205
f 204 249 251
f 204 251 250
f 205 250 211
f 205 211 206
f 206 211 252
f 206 252 253
f 206 253 207
f 207 253 208
f 208 253 252
f 208 252 210
f 210 252 211
f 211 250 212
f 212 250 213
f 213 250 251
f 213 251 248
f 213 248 247
f 213 247 214
f 214 247 254
f 214 254 215
f 215 254 246
f 215 246 216
f 216 246 244
f 216 244 217
f 217 244 242
f 217 242 241
f 217 241 243
f 217 243 240
f 217 240 218
f 218 240 219
f 219 240 220
f 223 237 236
f 223 236 255
f 223 255 256
f 223 256 224
f 224 256 255
f 224 255 233
f 224 233 235
f 224 235 230
f 225 227 226
f 229 232 231
f 233 255 236
f 239 240 243
f 244 246 245
f 246 254 247
f 248 251 249
