v -0.059488 0.012461 0.075782
v -0.059444 0.012457 0.071111
v -0.059459 0.012457 0.067216
v -0.059518 0.012457 0.052410
v -0.059547 0.012457 0.046003
v -0.062112 0.012461 0.075771
v -0.059611 0.012461 0.076961
v -0.017094 -0.021587 0.075798
v -0.017094 -0.021484 0.046000
v -0.054911 -0.001632 0.041823
v -0.057767 -0.001632 0.041823
v -0.062083 0.012259 0.046003
v -0.066995 0.012461 0.078039
v -0.066408 0.012461 0.077533
v -0.030658 -0.020250 0.041827
v -0.059907 0.012461 0.077954
v -0.017089 -0.021702 0.076965
v -0.017089 -0.024182 0.075805
v -0.017089 -0.028493 0.077440
v -0.017089 -0.029107 0.078151
v -0.017371 -0.024025 0.046000
v -0.030658 -0.022795 0.041827
v -0.045021 -0.012997 0.041823
v -0.056711 -0.003538 0.041823
v -0.063858 -0.001442 0.078742
v -0.065047 0.001978 0.078788
v -0.060825 0.006219 0.046003
v -0.061136 0.007391 0.046003
v -0.061397 0.008587 0.046003
v -0.061930 0.011203 0.046003
v -0.067479 0.012263 0.078603
v -0.067005 0.012461 0.080191
v -0.060228 0.012461 0.078746
v -0.017089 -0.022247 0.078483
v -0.017089 -0.029380 0.079302
v -0.017908 -0.029536 0.078576
v -0.018811 -0.029594 0.078491
v -0.018505 -0.024107 0.046000
v -0.019980 -0.024169 0.046000
v -0.021430 -0.024144 0.046000
v -0.022318 -0.024099 0.046000
v -0.023487 -0.029582 0.078529
v -0.024961 -0.029483 0.078688
v -0.031181 -0.028291 0.078738
v -0.031891 -0.022478 0.041827
v -0.045673 -0.015811 0.041823
v -0.056262 -0.004309 0.041823
v -0.060430 -0.007403 0.078553
v -0.060830 -0.006644 0.079302
v -0.060376 -0.007317 0.079604
v -0.062763 -0.002742 0.079994
v -0.063858 -0.000972 0.079410
v -0.064430 0.000369 0.079302
v -0.064840 0.001565 0.079322
v -0.065067 0.002452 0.079523
v -0.065816 0.005051 0.079302
v -0.066236 0.006512 0.078815
v -0.067316 0.010959 0.079051
v -0.067355 0.012061 0.079580
v -0.066502 0.009734 0.080233
v -0.066615 0.010897 0.080318
v -0.065022 0.007102 0.081072
v -0.065570 0.012461 0.081045
v -0.060632 0.012461 0.079383
v -0.017089 -0.022791 0.079314
v -0.017089 -0.028666 0.080461
v -0.018500 -0.029462 0.079905
v -0.017957 -0.029512 0.079302
v -0.018811 -0.029627 0.079302
v -0.019980 -0.029685 0.079302
v -0.019980 -0.029602 0.078475
v -0.022318 -0.029594 0.078499
v -0.023580 -0.029561 0.079325
v -0.024735 -0.029446 0.079380
v -0.028168 -0.028819 0.079302
v -0.029336 -0.028588 0.079302
v -0.032838 -0.027849 0.079302
v -0.034984 -0.027218 0.078576
v -0.032843 -0.022214 0.041827
v -0.046230 -0.015403 0.041823
v -0.034037 -0.021822 0.041827
v -0.035334 -0.021323 0.041827
v -0.036355 -0.020902 0.041827
v -0.040637 -0.019021 0.041827
v -0.041219 -0.018695 0.041827
v -0.042299 -0.018059 0.041827
v -0.043266 -0.017461 0.041827
v -0.044277 -0.016814 0.041827
v -0.044957 -0.016327 0.041827
v -0.050980 -0.018926 0.078723
v -0.055784 -0.005089 0.041823
v -0.059163 -0.009577 0.078734
v -0.060060 -0.007964 0.079302
v -0.059242 -0.009235 0.079380
v -0.059330 -0.008666 0.080067
v -0.060499 -0.006644 0.080083
v -0.061732 -0.004309 0.080152
v -0.062028 -0.003059 0.080481
v -0.062946 -0.001970 0.080172
v -0.063908 -0.000378 0.079990
v -0.065081 0.003022 0.079990
v -0.066142 0.006916 0.079781
v -0.066990 0.009734 0.079302
v -0.066241 0.007696 0.079963
v -0.066359 0.008562 0.080090
v -0.065348 0.005051 0.080288
v -0.063977 0.004107 0.081130
v -0.064085 0.005051 0.081149
v -0.065096 0.008562 0.081107
v -0.065195 0.003884 0.080133
v -0.063592 0.001545 0.080937
v -0.062832 0.000369 0.081134
v -0.064420 0.012461 0.081130
v -0.061239 0.012461 0.080060
v -0.017089 -0.023286 0.079890
v -0.017089 -0.025518 0.081103
v -0.017366 -0.026422 0.081234
v -0.017504 -0.027800 0.081041
v -0.018811 -0.028064 0.080987
v -0.018811 -0.028860 0.080434
v -0.019980 -0.029524 0.079971
v -0.020951 -0.029512 0.079963
v -0.024123 -0.029454 0.079897
v -0.029983 -0.028291 0.079909
v -0.034012 -0.027276 0.080075
v -0.034673 -0.027140 0.079932
v -0.034012 -0.027519 0.079302
v -0.034940 -0.027210 0.079302
v -0.036355 -0.026694 0.079302
v -0.037524 -0.026244 0.079302
v -0.040750 -0.024941 0.078475
v -0.046876 -0.014891 0.041823
v -0.043655 -0.023460 0.079302
v -0.045194 -0.022482 0.078630
v -0.048874 -0.020225 0.078414
v -0.050067 -0.012168 0.041823
v -0.049480 -0.012725 0.041823
v -0.048869 -0.013270 0.041823
v -0.048134 -0.013880 0.041823
v -0.044528 -0.022960 0.079302
v -0.045224 -0.022498 0.079627
v -0.049426 -0.019825 0.079302
v -0.050383 -0.019182 0.079202
v -0.050773 -0.018724 0.079523
v -0.054521 -0.015444 0.079762
v -0.056849 -0.013109 0.078730
v -0.054403 -0.007119 0.041823
v -0.055626 -0.014214 0.079677
v -0.055853 -0.013431 0.080083
v -0.058768 -0.007816 0.080867
v -0.059710 -0.006685 0.080724
v -0.059725 -0.007709 0.080218
v -0.060085 -0.005679 0.080910
v -0.062699 -0.000283 0.081076
v -0.063419 0.000369 0.080759
v -0.060327 -0.004899 0.081064
v -0.061254 -0.003369 0.080964
v -0.064060 0.000369 0.080172
v -0.064273 0.001545 0.080349
v -0.063005 0.001545 0.081188
v -0.062083 0.001545 0.081269
v -0.059306 -0.006314 0.081126
v -0.059710 -0.005357 0.081149
v -0.063434 0.012461 0.081002
v -0.061944 0.012461 0.080434
v -0.017089 -0.023996 0.080415
v -0.017089 -0.024871 0.080867
v -0.024656 -0.026521 0.081273
v -0.023487 -0.027573 0.081188
v -0.021144 -0.028134 0.081022
v -0.019980 -0.028860 0.080500
v -0.022318 -0.028171 0.081029
v -0.023487 -0.028154 0.081014
v -0.024572 -0.028951 0.080303
v -0.026999 -0.027989 0.080867
v -0.028168 -0.028476 0.080179
v -0.029336 -0.028361 0.080021
v -0.032838 -0.027437 0.080253
v -0.034106 -0.026475 0.080736
v -0.037830 -0.026005 0.079967
v -0.039862 -0.025312 0.079302
v -0.040735 -0.024932 0.079302
v -0.042994 -0.023715 0.080025
v -0.050625 -0.011587 0.041823
v -0.044528 -0.022684 0.080110
v -0.048666 -0.020114 0.079913
v -0.049993 -0.019058 0.080002
v -0.054788 -0.014825 0.080083
v -0.053870 -0.007816 0.041823
v -0.053362 -0.008459 0.041823
v -0.051177 -0.010972 0.041823
v -0.055167 -0.013752 0.080361
v -0.059024 -0.007090 0.081014
v -0.057668 -0.009173 0.080914
v -0.057984 -0.008406 0.081064
v -0.062083 0.000369 0.081219
v -0.058566 -0.005473 0.081234
v -0.035181 -0.024182 0.081292
v -0.056894 -0.009685 0.081091
v -0.058610 -0.006685 0.081176
v -0.060909 -0.001970 0.081207
v -0.026999 -0.026521 0.081265
v -0.025820 -0.027470 0.081196
v -0.024656 -0.027519 0.081196
v -0.026999 -0.027399 0.081184
v -0.024656 -0.028109 0.080983
v -0.025820 -0.028051 0.080933
v -0.028168 -0.027280 0.081134
v -0.030505 -0.027008 0.081018
v -0.031674 -0.026884 0.080952
v -0.028168 -0.027862 0.080767
v -0.032656 -0.026756 0.080856
v -0.034565 -0.025914 0.081053
v -0.037495 -0.025271 0.080678
v -0.038590 -0.025370 0.080253
v -0.042195 -0.023876 0.080195
v -0.043369 -0.023064 0.080330
v -0.044523 -0.021793 0.080724
v -0.045638 -0.021830 0.080203
v -0.049120 -0.019470 0.080145
v -0.049209 -0.018303 0.080790
v -0.047088 -0.019792 0.080902
v -0.053895 -0.014825 0.080485
v -0.055079 -0.012531 0.080902
v -0.055079 -0.011277 0.081149
v -0.055064 -0.010147 0.081199
v -0.048045 -0.017164 0.081215
v -0.038693 -0.023010 0.081265
v -0.036355 -0.024182 0.081273
v -0.032838 -0.025353 0.081269
v -0.055478 -0.011648 0.081018
v -0.054339 -0.012952 0.081037
v -0.054704 -0.012168 0.081103
v -0.032838 -0.026149 0.081141
v -0.033781 -0.026046 0.081111
v -0.036355 -0.024961 0.081149
v -0.037095 -0.024825 0.081091
v -0.037874 -0.024656 0.081014
v -0.038693 -0.024479 0.080917
v -0.042067 -0.022762 0.080964
v -0.043354 -0.022144 0.080925
v -0.045998 -0.020180 0.081091
v -0.044124 -0.021372 0.081111
v -0.049594 -0.017535 0.080991
v -0.050842 -0.016368 0.081029
v -0.050427 -0.017152 0.080832
v -0.048361 -0.018674 0.080956
v -0.047581 -0.019008 0.081095
v -0.048001 -0.018303 0.081153
v -0.044523 -0.020683 0.081165
v -0.038693 -0.023897 0.081169
v -0.035181 -0.025192 0.081180
v -0.050062 -0.016764 0.081103
v -0.039522 -0.023715 0.081111
v -0.042659 -0.022321 0.081037
v -0.048814 -0.017894 0.081107
f 1 2 3
f 1 3 4
f 1 4 5
f 1 5 6
f 1 6 14
f 1 14 13
f 1 13 32
f 1 32 63
f 1 63 113
f 1 113 164
f 1 164 165
f 1 165 114
f 1 114 64
f 1 64 33
f 1 33 16
f 1 16 7
f 1 7 8
f 1 8 2
f 2 8 9
f 2 9 3
f 3 9 4
f 4 9 5
f 5 10 11
f 5 11 12
f 5 12 13
f 5 13 14
f 5 14 6
f 5 9 15
f 5 15 10
f 7 16 17
f 7 17 8
f 8 17 9
f 9 17 18
f 9 18 19
f 9 19 20
f 9 20 21
f 9 21 22
f 9 22 15
f 10 15 23
f 10 23 46
f 10 46 80
f 10 80 132
f 10 132 139
f 10 139 138
f 10 138 137
f 10 137 136
f 10 136 184
f 10 184 191
f 10 191 190
f 10 190 189
f 10 189 147
f 10 147 91
f 10 91 47
f 10 47 24
f 10 24 11
f 11 24 25
f 11 25 26
f 11 26 27
f 11 27 28
f 11 28 29
f 11 29 30
f 11 30 12
f 12 30 31
f 12 31 13
f 13 31 32
f 15 22 23
f 16 33 17
f 17 34 65
f 17 65 115
f 17 115 166
f 17 166 167
f 17 167 116
f 17 116 66
f 17 66 35
f 17 35 20
f 17 20 19
f 17 19 18
f 17 33 34
f 20 35 21
f 21 35 36
f 21 36 37
f 21 37 38
f 21 38 22
f 22 38 39
f 22 39 40
f 22 40 41
f 22 41 42
f 22 42 43
f 22 43 44
f 22 44 45
f 22 45 46
f 22 46 23
f 24 47 48
f 24 48 25
f 25 48 49
f 25 49 50
f 25 50 51
f 25 51 52
f 25 52 53
f 25 53 26
f 26 53 54
f 26 54 55
f 26 55 56
f 26 56 57
f 26 57 28
f 26 28 27
f 28 57 58
f 28 58 29
f 29 58 30
f 30 58 31
f 31 58 59
f 31 59 32
f 32 59 60
f 32 60 61
f 32 61 62
f 32 62 63
f 33 64 34
f 34 64 65
f 35 66 67
f 35 67 68
f 35 68 36
f 36 68 69
f 36 69 37
f 37 69 70
f 37 70 71
f 37 71 39
f 37 39 38
f 39 71 72
f 39 72 42
f 39 42 40
f 40 42 41
f 42 72 70
f 42 70 73
f 42 73 43
f 43 73 74
f 43 74 75
f 43 75 44
f 44 75 76
f 44 76 77
f 44 77 78
f 44 78 45
f 45 78 79
f 45 79 46
f 46 79 81
f 46 81 82
f 46 82 83
f 46 83 84
f 46 84 85
f 46 85 86
f 46 86 87
f 46 87 88
f 46 88 89
f 46 89 90
f 46 90 80
f 47 91 92
f 47 92 48
f 48 92 49
f 49 92 93
f 49 93 50
f 50 93 94
f 50 94 95
f 50 95 96
f 50 96 51
f 51 96 97
f 51 97 98
f 51 98 99
f 51 99 100
f 51 100 52
f 52 100 53
f 53 100 54
f 54 100 101
f 54 101 55
f 55 101 56
f 56 102 103
f 56 103 57
f 56 101 102
f 57 103 58
f 58 103 59
f 59 103 104
f 59 104 105
f 59 105 60
f 60 105 106
f 60 106 62
f 60 62 61
f 62 107 108
f 62 108 109
f 62 109 63
f 62 106 110
f 62 110 111
f 62 111 112
f 62 112 107
f 63 109 113
f 64 114 65
f 65 114 115
f 66 116 117
f 66 117 118
f 66 118 119
f 66 119 120
f 66 120 121
f 66 121 67
f 67 121 69
f 67 69 68
f 69 121 70
f 70 121 122
f 70 122 123
f 70 123 73
f 70 72 71
f 73 123 74
f 74 123 75
f 75 123 76
f 76 124 77
f 76 123 124
f 77 124 125
f 77 125 126
f 77 126 127
f 77 127 78
f 78 82 81
f 78 81 79
f 78 127 128
f 78 128 129
f 78 129 130
f 78 130 131
f 78 131 82
f 80 90 132
f 82 131 83
f 83 131 84
f 84 131 133
f 84 133 85
f 85 133 134
f 85 134 86
f 86 134 135
f 86 135 87
f 87 135 88
f 88 135 90
f 88 90 89
f 90 136 137
f 90 137 138
f 90 138 139
f 90 139 132
f 90 135 140
f 90 140 141
f 90 141 142
f 90 142 143
f 90 143 144
f 90 144 145
f 90 145 146
f 90 146 136
f 91 146 92
f 91 147 146
f 92 146 94
f 92 94 93
f 94 146 95
f 95 146 148
f 95 148 149
f 95 149 150
f 95 150 151
f 95 151 152
f 95 152 96
f 96 153 97
f 96 152 153
f 97 153 98
f 98 154 155
f 98 155 99
f 98 153 156
f 98 156 157
f 98 157 154
f 99 155 100
f 100 158 101
f 100 155 158
f 101 110 104
f 101 104 102
f 101 158 159
f 101 159 110
f 102 104 103
f 104 110 105
f 105 110 106
f 107 112 160
f 107 160 108
f 108 160 161
f 108 161 109
f 109 161 113
f 110 159 111
f 111 155 154
f 111 154 112
f 111 159 155
f 112 154 156
f 112 156 162
f 112 162 163
f 112 163 160
f 113 161 117
f 113 117 116
f 113 116 164
f 114 165 166
f 114 166 115
f 116 167 164
f 117 168 169
f 117 169 118
f 117 161 168
f 118 170 119
f 118 169 170
f 119 170 171
f 119 171 120
f 120 171 121
f 121 171 172
f 121 172 122
f 122 172 173
f 122 173 123
f 123 173 174
f 123 174 175
f 123 175 176
f 123 176 177
f 123 177 124
f 124 177 178
f 124 178 125
f 125 178 179
f 125 179 180
f 125 180 126
f 126 128 127
f 126 180 128
f 128 180 129
f 129 180 130
f 130 180 181
f 130 181 131
f 131 181 182
f 131 182 133
f 133 182 183
f 133 183 140
f 133 140 134
f 134 140 135
f 136 146 184
f 140 183 141
f 141 183 185
f 141 185 186
f 141 186 142
f 142 186 143
f 143 186 144
f 144 186 187
f 144 187 145
f 145 187 188
f 145 188 148
f 145 148 146
f 146 147 189
f 146 189 190
f 146 190 191
f 146 191 184
f 148 188 149
f 149 188 192
f 149 192 150
f 150 193 151
f 150 192 194
f 150 194 195
f 150 195 193
f 151 193 153
f 151 153 152
f 153 193 156
f 154 157 156
f 155 159 158
f 156 193 162
f 160 196 161
f 160 163 196
f 161 196 197
f 161 197 198
f 161 198 168
f 162 193 195
f 162 195 199
f 162 199 200
f 162 200 163
f 163 200 201
f 163 201 196
f 164 167 165
f 165 167 166
f 168 202 203
f 168 203 204
f 168 204 169
f 168 198 202
f 169 172 170
f 169 204 172
f 170 172 171
f 172 204 203
f 172 203 173
f 173 203 205
f 173 205 206
f 173 206 174
f 174 206 207
f 174 207 175
f 175 207 205
f 175 205 208
f 175 208 209
f 175 209 210
f 175 210 211
f 175 211 176
f 176 211 178
f 176 178 177
f 178 212 179
f 178 211 210
f 178 210 212
f 179 213 214
f 179 214 180
f 179 212 213
f 180 214 215
f 180 215 183
f 180 183 182
f 180 182 181
f 183 216 217
f 183 217 185
f 183 215 216
f 185 218 219
f 185 219 186
f 185 217 218
f 186 220 187
f 186 219 220
f 187 221 188
f 187 220 222
f 187 222 221
f 188 221 223
f 188 223 192
f 192 224 195
f 192 195 194
f 192 223 224
f 195 224 199
f 196 201 197
f 197 200 225
f 197 225 226
f 197 226 227
f 197 227 228
f 197 228 198
f 197 201 200
f 198 228 229
f 198 229 230
f 198 230 202
f 199 224 231
f 199 231 232
f 199 232 233
f 199 233 225
f 199 225 200
f 202 205 203
f 202 230 205
f 205 207 206
f 205 230 234
f 205 234 235
f 205 235 208
f 208 235 209
f 209 235 210
f 210 235 212
f 212 235 213
f 213 235 236
f 213 236 237
f 213 237 238
f 213 238 239
f 213 239 214
f 214 239 215
f 215 239 216
f 216 240 217
f 216 239 240
f 217 240 241
f 217 241 218
f 218 242 222
f 218 222 219
f 218 241 243
f 218 243 242
f 219 222 220
f 221 244 245
f 221 245 246
f 221 246 223
f 221 222 247
f 221 247 244
f 222 242 248
f 222 248 247
f 223 232 224
f 223 246 245
f 223 245 232
f 224 232 231
f 225 233 249
f 225 249 227
f 225 227 226
f 227 249 250
f 227 250 228
f 228 250 251
f 228 251 229
f 229 236 252
f 229 252 230
f 229 251 236
f 230 252 234
f 232 245 253
f 232 253 233
f 233 253 249
f 234 252 235
f 235 252 236
f 236 251 237
f 237 251 254
f 237 254 238
f 238 254 239
f 239 254 240
f 240 254 255
f 240 255 241
f 241 255 243
f 242 243 249
f 242 249 248
f 243 255 254
f 243 254 251
f 243 251 250
f 243 250 249
f 244 247 248
f 244 248 245
f 245 248 256
f 245 256 253
f 248 249 256
f 249 253 256
