v -0.017084 -0.029381 0.079292
v -0.017084 -0.024006 0.045994
v -0.003403 -0.019647 0.005642
v -0.003403 -0.019773 0.006708
v -0.015287 -0.029227 0.079292
v -0.016772 -0.028807 0.080328
v -0.016772 -0.027675 0.081059
v -0.017084 -0.026318 0.081219
v -0.017084 -0.021484 0.045994
v -0.003403 -0.010133 0.003411
v -0.003403 -0.019396 0.004462
v -0.002382 -0.018934 0.004462
v -0.001853 -0.018906 0.005718
v -0.002414 -0.019312 0.006800
v -0.002414 -0.019428 0.007965
v -0.003403 -0.019894 0.007965
v -0.009983 -0.028290 0.078721
v -0.012945 -0.028882 0.079292
v -0.014114 -0.029073 0.079292
v -0.014114 -0.028565 0.080252
v -0.015287 -0.028668 0.080313
v -0.015287 -0.027898 0.080899
v -0.011624 -0.026826 0.081090
v -0.012945 -0.026523 0.081189
v -0.014114 -0.026523 0.081212
v 0.019797 0.000370 0.081120
v 0.020158 0.003223 0.081021
v -0.017084 -0.025195 0.080983
v -0.017084 -0.021587 0.075789
v -0.000224 0.018242 0.025490
v -0.005644 0.005264 0.024401
v -0.004707 0.005264 0.019618
v -0.004435 0.005264 0.018537
v -0.003403 0.000346 0.010677
v -0.003403 -0.000637 0.009945
v 0.002598 0.018242 0.014233
v 0.005231 0.018242 0.010441
v 0.006080 0.018242 0.009466
v 0.007269 0.018242 0.008323
v 0.012384 0.018242 0.003517
v 0.013085 0.005264 0.003411
v 0.005740 -0.013014 0.003411
v 0.001093 -0.016603 0.003433
v -0.002870 -0.018832 0.003456
v -0.000941 -0.017834 0.003510
v -0.001249 -0.018328 0.004462
v -0.000252 -0.017992 0.005635
v 0.000464 -0.017745 0.006891
v -0.001441 -0.018808 0.006800
v -0.001325 -0.018874 0.007965
v 0.001809 -0.023675 0.078721
v -0.000537 -0.024831 0.078759
v -0.002926 -0.025973 0.078774
v -0.006421 -0.027139 0.078622
v -0.006937 -0.027227 0.079726
v -0.011732 -0.028388 0.079825
v -0.012945 -0.028462 0.080153
v -0.012945 -0.027735 0.080732
v -0.014114 -0.027805 0.080838
v -0.010607 -0.026887 0.081006
v -0.007097 -0.025157 0.081143
v -0.001253 -0.022743 0.081120
v 0.011572 -0.013597 0.081097
v 0.018709 -0.003122 0.081097
v 0.020122 -0.000963 0.081090
v 0.021186 0.001540 0.081029
v 0.021286 0.003223 0.081006
v 0.011768 0.018242 0.038568
v 0.010595 0.018242 0.038461
v 0.009270 0.018242 0.038187
v 0.008101 0.018242 0.037776
v 0.018861 0.003223 0.080564
v -0.017084 -0.023997 0.080404
v -0.017084 -0.021703 0.076954
v -0.000172 0.018242 0.026663
v -0.000208 0.018242 0.024333
v -0.000188 0.018242 0.023320
v -0.000084 0.018242 0.022162
v 0.000092 0.018242 0.020829
v 0.000356 0.018242 0.019352
v 0.001004 0.018242 0.017455
v -0.003403 0.003624 0.013990
v -0.003403 0.001363 0.011629
v 0.001417 0.018242 0.016473
v 0.002117 0.018242 0.015086
v 0.016159 0.018242 0.003517
v 0.017540 0.005148 0.003411
v 0.009026 -0.009923 0.003411
v 0.008542 -0.010599 0.003723
v 0.007433 -0.011820 0.004066
v 0.006252 -0.012977 0.004233
v 0.004307 -0.014254 0.003517
v 0.002662 -0.015559 0.003494
v 0.001801 -0.016487 0.004317
v 0.000876 -0.017083 0.004439
v -0.000449 -0.017876 0.004462
v 0.000988 -0.017242 0.005635
v 0.001841 -0.016692 0.005635
v 0.001949 -0.016766 0.006800
v 0.007529 -0.020100 0.078713
v 0.003818 -0.022458 0.079056
v 0.002417 -0.023181 0.079285
v 0.001517 -0.023516 0.079688
v -0.003615 -0.026024 0.079742
v -0.004763 -0.026216 0.080161
v -0.008262 -0.027353 0.080168
v -0.009435 -0.027470 0.080313
v -0.007505 -0.025810 0.081014
v -0.007097 -0.026523 0.080534
v -0.005756 -0.025204 0.080991
v -0.000396 -0.022561 0.081082
v 0.008466 -0.016762 0.081082
v 0.009630 -0.015783 0.081082
v 0.012376 -0.012827 0.081090
v 0.018212 -0.004693 0.081075
v 0.018921 -0.004315 0.080975
v 0.020962 0.000370 0.081029
v 0.022383 0.003223 0.080686
v 0.014125 0.018242 0.038225
v 0.012937 0.018242 0.038484
v 0.006604 0.018242 0.036976
v 0.017780 0.003223 0.079780
v -0.017084 -0.023288 0.079886
v 0.005588 0.018242 0.036351
v -0.017084 -0.022104 0.078188
v 0.000156 0.018242 0.027935
v 0.018172 0.005264 0.005558
v 0.017936 0.005209 0.004523
v 0.016159 0.018242 0.037585
v 0.023800 0.003218 0.079079
v 0.018576 0.005153 0.009138
v 0.018464 0.005153 0.007919
v 0.016943 0.003288 0.003449
v 0.015210 -0.000810 0.003411
v 0.017488 0.003880 0.004462
v 0.009843 -0.009000 0.003411
v 0.009762 -0.009443 0.004248
v 0.008750 -0.010804 0.004797
v 0.007645 -0.012016 0.005239
v 0.005195 -0.014244 0.005581
v 0.004707 -0.014319 0.004462
v 0.003382 -0.015363 0.004462
v 0.005620 -0.014095 0.006800
v 0.008930 -0.019069 0.078454
v 0.009454 -0.018570 0.079292
v 0.004603 -0.021852 0.079323
v -0.001061 -0.024654 0.079970
v 0.002638 -0.022621 0.080100
v 0.000332 -0.023838 0.080145
v -0.002422 -0.025120 0.080206
v -0.003543 -0.025432 0.080320
v -0.004812 -0.025260 0.080785
v -0.006028 -0.026565 0.080229
v -0.001253 -0.023325 0.080975
v 0.000736 -0.022202 0.081006
v 0.002481 -0.021050 0.081029
v 0.009614 -0.016361 0.080998
v 0.011936 -0.013946 0.080968
v 0.016547 -0.007811 0.081006
v 0.015799 -0.008478 0.081059
v 0.018172 -0.005658 0.080953
v 0.018681 -0.006674 0.080374
v 0.019585 -0.005476 0.080237
v 0.021066 -0.000805 0.080808
v 0.021867 -0.000805 0.080229
v 0.023276 0.003223 0.080039
v 0.016879 0.003223 0.078698
v -0.017084 -0.022635 0.079102
v 0.004879 0.018242 0.035833
v 0.004019 0.018242 0.035034
v 0.002650 0.018242 0.033350
v 0.001949 0.018242 0.032238
v 0.001337 0.018242 0.030883
v 0.018144 0.004696 0.006564
v 0.017744 0.003880 0.005635
v 0.022551 0.000370 0.079841
v 0.022583 -0.000502 0.078980
v 0.018068 0.003442 0.009367
v 0.018056 0.003833 0.007973
v 0.015634 -0.000068 0.003685
v 0.016923 0.002258 0.004599
v 0.014730 -0.001709 0.003411
v 0.015514 -0.000796 0.004386
v 0.014882 -0.002036 0.004416
v 0.014470 -0.002926 0.004591
v 0.017340 0.002705 0.005635
v 0.010887 -0.007606 0.003411
v 0.012076 -0.006483 0.004302
v 0.011295 -0.007569 0.004462
v 0.012248 -0.006721 0.005635
v 0.009650 -0.009900 0.005482
v 0.008558 -0.011191 0.005635
v 0.007465 -0.012440 0.006800
v 0.010143 -0.018034 0.078363
v 0.010687 -0.017456 0.079292
v 0.011215 -0.016780 0.079635
v 0.009154 -0.018235 0.080092
v 0.008442 -0.019041 0.079818
v 0.004767 -0.021372 0.079993
v 0.003410 -0.021876 0.080313
v 0.001113 -0.023078 0.080389
v -0.000036 -0.022976 0.080861
v 0.002309 -0.021712 0.080800
v 0.003478 -0.020650 0.080945
v 0.009242 -0.017130 0.080770
v 0.010423 -0.015983 0.080816
v 0.011271 -0.014813 0.080922
v 0.012712 -0.013597 0.080747
v 0.016227 -0.008907 0.080831
v 0.017224 -0.008982 0.080237
v 0.016695 -0.010492 0.079620
v 0.019425 -0.006399 0.079673
v 0.020718 -0.003140 0.080252
v 0.020946 -0.001942 0.080519
v 0.021667 -0.001938 0.079764
v 0.017520 0.002705 0.006800
v 0.021603 -0.002651 0.078759
v 0.016055 -0.000810 0.006800
v 0.016847 0.000976 0.006907
v 0.017652 0.002705 0.007973
v 0.016875 0.001521 0.005635
v 0.013461 -0.004035 0.003449
v 0.012420 -0.005499 0.003411
v 0.015867 -0.000796 0.005734
v 0.015566 -0.001733 0.006640
v 0.014558 -0.003178 0.005635
v 0.013461 -0.004558 0.004325
v 0.012949 -0.005392 0.004507
v 0.013421 -0.004982 0.005284
v 0.012957 -0.005770 0.005772
v 0.012328 -0.006832 0.006800
v 0.010911 -0.008846 0.007973
v 0.011047 -0.008422 0.006632
v 0.009750 -0.010030 0.006800
v 0.008646 -0.011284 0.006800
v 0.013673 -0.014506 0.078386
v 0.013713 -0.014277 0.079635
v 0.011560 -0.015932 0.080199
v 0.010347 -0.017116 0.080161
v 0.008101 -0.018333 0.080534
v 0.004695 -0.020780 0.080450
v 0.012720 -0.014767 0.080176
v 0.013945 -0.012487 0.080572
v 0.013893 -0.013573 0.080122
v 0.014702 -0.012809 0.080016
v 0.016947 -0.010823 0.078729
v 0.020246 -0.005159 0.078995
v 0.014550 -0.003751 0.008407
v 0.014818 -0.003015 0.006800
v 0.013881 -0.004306 0.005635
v 0.013573 -0.005206 0.007973
v 0.013269 -0.005476 0.006800
v 0.012168 -0.007187 0.007683
v 0.009830 -0.010124 0.007973
v 0.014714 -0.013363 0.078447
f 1 2 3
f 1 3 4
f 1 4 5
f 1 5 6
f 1 6 7
f 1 7 8
f 1 8 28
f 1 28 73
f 1 73 123
f 1 123 168
f 1 168 125
f 1 125 74
f 1 74 29
f 1 29 9
f 1 9 2
f 2 9 10
f 2 10 11
f 2 11 3
f 3 11 12
f 3 12 13
f 3 13 14
f 3 14 4
f 4 14 15
f 4 15 16
f 4 16 17
f 4 17 18
f 4 18 19
f 4 19 5
f 5 19 20
f 5 20 21
f 5 21 6
f 6 21 22
f 6 22 7
f 7 23 24
f 7 24 25
f 7 25 8
f 7 22 23
f 8 25 26
f 8 26 27
f 8 27 28
f 9 29 30
f 9 30 31
f 9 31 32
f 9 32 33
f 9 33 34
f 9 34 35
f 9 35 10
f 10 35 36
f 10 36 37
f 10 37 38
f 10 38 39
f 10 39 40
f 10 40 41
f 10 41 87
f 10 87 134
f 10 134 182
f 10 182 223
f 10 223 187
f 10 187 136
f 10 136 88
f 10 88 42
f 10 42 43
f 10 43 44
f 10 44 11
f 11 44 12
f 12 44 45
f 12 45 46
f 12 46 13
f 13 46 47
f 13 47 48
f 13 48 49
f 13 49 50
f 13 50 14
f 14 50 15
f 15 50 51
f 15 51 52
f 15 52 53
f 15 53 16
f 16 53 54
f 16 54 17
f 17 54 55
f 17 55 18
f 18 55 56
f 18 56 57
f 18 57 19
f 19 57 20
f 20 58 59
f 20 59 21
f 20 57 58
f 21 59 22
f 22 59 60
f 22 60 23
f 23 61 24
f 23 60 61
f 24 61 25
f 25 61 62
f 25 62 63
f 25 63 26
f 26 63 64
f 26 64 65
f 26 65 66
f 26 66 67
f 26 67 27
f 27 67 68
f 27 68 69
f 27 69 70
f 27 70 71
f 27 71 72
f 27 72 28
f 28 72 73
f 29 74 75
f 29 75 30
f 30 76 31
f 30 75 126
f 30 126 173
f 30 173 172
f 30 172 171
f 30 171 170
f 30 170 169
f 30 169 124
f 30 124 121
f 30 121 71
f 30 71 70
f 30 70 69
f 30 69 68
f 30 68 120
f 30 120 119
f 30 119 129
f 30 129 86
f 30 86 40
f 30 40 39
f 30 39 38
f 30 38 37
f 30 37 36
f 30 36 85
f 30 85 84
f 30 84 81
f 30 81 80
f 30 80 79
f 30 79 78
f 30 78 77
f 30 77 76
f 31 76 77
f 31 77 78
f 31 78 79
f 31 79 80
f 31 80 32
f 32 80 33
f 33 80 81
f 33 81 82
f 33 82 83
f 33 83 34
f 34 83 84
f 34 84 85
f 34 85 36
f 34 36 35
f 40 86 41
f 41 86 87
f 42 88 89
f 42 89 90
f 42 90 91
f 42 91 92
f 42 92 93
f 42 93 43
f 43 93 94
f 43 94 95
f 43 95 45
f 43 45 44
f 45 95 96
f 45 96 46
f 46 96 47
f 47 97 48
f 47 96 95
f 47 95 97
f 48 97 98
f 48 98 99
f 48 99 100
f 48 100 101
f 48 101 51
f 48 51 50
f 48 50 49
f 51 101 102
f 51 102 103
f 51 103 52
f 52 103 104
f 52 104 53
f 53 104 55
f 53 55 54
f 55 104 105
f 55 105 106
f 55 106 56
f 56 106 57
f 57 106 107
f 57 107 60
f 57 60 58
f 58 60 59
f 60 108 61
f 60 107 106
f 60 106 109
f 60 109 108
f 61 108 110
f 61 110 111
f 61 111 62
f 62 111 112
f 62 112 63
f 63 112 113
f 63 113 114
f 63 114 64
f 64 114 115
f 64 115 65
f 65 115 116
f 65 116 117
f 65 117 66
f 66 117 118
f 66 118 67
f 67 118 119
f 67 119 120
f 67 120 68
f 71 121 72
f 72 122 123
f 72 123 73
f 72 121 124
f 72 124 122
f 74 125 75
f 75 125 126
f 81 84 83
f 81 83 82
f 86 127 128
f 86 128 87
f 86 129 130
f 86 130 131
f 86 131 132
f 86 132 127
f 87 133 134
f 87 128 135
f 87 135 133
f 88 136 137
f 88 137 89
f 89 137 138
f 89 138 90
f 90 138 139
f 90 139 91
f 91 139 140
f 91 140 141
f 91 141 92
f 92 141 93
f 93 141 142
f 93 142 94
f 94 142 140
f 94 140 98
f 94 98 97
f 94 97 95
f 98 140 99
f 99 140 143
f 99 143 144
f 99 144 100
f 100 144 145
f 100 145 146
f 100 146 101
f 101 146 103
f 101 103 102
f 103 147 104
f 103 146 148
f 103 148 149
f 103 149 147
f 104 147 150
f 104 150 105
f 105 150 151
f 105 151 152
f 105 152 109
f 105 109 153
f 105 153 106
f 106 153 109
f 108 109 152
f 108 152 110
f 110 154 111
f 110 152 154
f 111 154 155
f 111 155 156
f 111 156 112
f 112 156 157
f 112 157 113
f 113 157 114
f 114 157 158
f 114 158 159
f 114 159 160
f 114 160 115
f 115 160 159
f 115 159 116
f 116 159 161
f 116 161 162
f 116 162 163
f 116 163 164
f 116 164 117
f 117 164 118
f 118 164 165
f 118 165 166
f 118 166 129
f 118 129 119
f 122 167 168
f 122 168 123
f 122 124 169
f 122 169 170
f 122 170 167
f 125 168 167
f 125 167 171
f 125 171 172
f 125 172 173
f 125 173 126
f 127 174 175
f 127 175 128
f 127 132 174
f 128 175 135
f 129 166 130
f 130 166 176
f 130 176 177
f 130 177 178
f 130 178 131
f 131 178 132
f 132 178 179
f 132 179 174
f 133 180 134
f 133 135 181
f 133 181 180
f 134 180 183
f 134 183 184
f 134 184 185
f 134 185 182
f 135 175 186
f 135 186 181
f 136 187 188
f 136 188 189
f 136 189 137
f 137 189 190
f 137 190 191
f 137 191 138
f 138 191 192
f 138 192 139
f 139 192 193
f 139 193 143
f 139 143 140
f 140 142 141
f 143 193 194
f 143 194 144
f 144 194 145
f 145 194 195
f 145 195 196
f 145 196 197
f 145 197 198
f 145 198 146
f 146 198 199
f 146 199 148
f 147 149 150
f 148 199 200
f 148 200 201
f 148 201 149
f 149 201 202
f 149 202 150
f 150 202 152
f 150 152 151
f 152 202 154
f 154 202 155
f 155 202 203
f 155 203 204
f 155 204 156
f 156 204 157
f 157 204 205
f 157 205 206
f 157 206 207
f 157 207 158
f 158 207 208
f 158 208 209
f 158 209 159
f 159 209 161
f 161 209 162
f 162 209 210
f 162 210 211
f 162 211 212
f 162 212 163
f 163 213 214
f 163 214 164
f 163 212 215
f 163 215 213
f 164 214 165
f 165 215 176
f 165 176 166
f 165 214 213
f 165 213 215
f 167 170 171
f 174 179 216
f 174 216 175
f 175 216 186
f 176 215 177
f 177 215 217
f 177 217 218
f 177 218 219
f 177 219 220
f 177 220 178
f 178 220 179
f 179 220 216
f 180 181 183
f 181 186 221
f 181 221 183
f 182 222 223
f 182 185 222
f 183 221 224
f 183 224 185
f 183 185 184
f 185 224 225
f 185 225 226
f 185 226 227
f 185 227 222
f 186 216 221
f 187 223 188
f 188 223 228
f 188 228 190
f 188 190 189
f 190 228 229
f 190 229 230
f 190 230 231
f 190 231 232
f 190 232 233
f 190 233 191
f 191 233 232
f 191 232 234
f 191 234 192
f 192 234 235
f 192 235 193
f 193 235 194
f 194 236 195
f 194 235 236
f 195 236 237
f 195 237 196
f 196 237 238
f 196 238 239
f 196 239 197
f 197 199 198
f 197 239 205
f 197 205 240
f 197 240 200
f 197 200 199
f 200 240 241
f 200 241 203
f 200 203 202
f 200 202 201
f 203 205 204
f 203 241 205
f 205 241 240
f 205 239 206
f 206 208 207
f 206 239 238
f 206 238 242
f 206 242 208
f 208 243 209
f 208 242 244
f 208 244 243
f 209 243 245
f 209 245 210
f 210 245 211
f 211 245 246
f 211 246 212
f 212 246 247
f 212 247 217
f 212 217 215
f 216 220 219
f 216 219 221
f 217 247 225
f 217 225 218
f 218 225 224
f 218 224 221
f 218 221 219
f 222 227 223
f 223 227 228
f 225 247 246
f 225 246 248
f 225 248 249
f 225 249 250
f 225 250 226
f 226 250 229
f 226 229 227
f 227 229 228
f 229 250 248
f 229 248 251
f 229 251 252
f 229 252 230
f 230 252 231
f 231 253 232
f 231 252 246
f 231 246 253
f 232 254 234
f 232 253 246
f 232 246 254
f 234 254 235
f 235 254 236
f 236 255 237
f 236 254 255
f 237 245 244
f 237 244 242
f 237 242 238
f 237 255 246
f 237 246 245
f 243 244 245
f 246 255 254
f 246 252 251
f 246 251 248
f 248 250 249
