v -0.042008 -0.021549 0.037320
v -0.042008 -0.021530 0.034200
v -0.041230 -0.021546 0.037320
v -0.042008 -0.021542 0.038875
v -0.042789 -0.021457 0.040435
v -0.042789 -0.021457 0.039653
v -0.042789 -0.021404 0.028751
v -0.041230 -0.021523 0.034200
v -0.042008 -0.021461 0.028751
v -0.041230 -0.021388 0.022516
v -0.040454 -0.021385 0.022516
v -0.032670 -0.021304 0.026418
v -0.023046 -0.021205 0.042197
v -0.042008 -0.021526 0.039653
v -0.042789 -0.021446 0.041213
v -0.043647 -0.021143 0.040507
v -0.043570 -0.021113 0.020191
v -0.042789 -0.021224 0.014738
v -0.039675 -0.021373 0.022516
v -0.042008 -0.021388 0.023294
v -0.042008 -0.021377 0.022516
v -0.042008 -0.021243 0.014738
v -0.039675 -0.021243 0.014738
v -0.038117 -0.021270 0.017854
v -0.032670 -0.021235 0.022516
v -0.023046 -0.020665 0.002739
v -0.031894 -0.021285 0.026418
v -0.031111 -0.021274 0.027196
v -0.021703 -0.003133 0.038640
v -0.021703 0.000467 0.042192
v -0.023046 -0.007169 0.042197
v -0.042008 -0.021434 0.042197
v -0.023046 -0.021051 0.029533
v -0.021705 -0.003133 -0.000296
v -0.021703 -0.003133 0.032607
v -0.042737 -0.021415 0.042092
v -0.043977 -0.020818 0.042197
v -0.044000 -0.020822 0.039653
v -0.044154 -0.020776 0.020957
v -0.043731 -0.021002 0.014738
v -0.043069 -0.020986 0.008377
v -0.042008 -0.021082 0.009290
v -0.039675 -0.021059 0.008512
v -0.038895 -0.021051 0.008512
v -0.033444 -0.020780 0.002281
v -0.033444 -0.020722 0.001499
v -0.023082 -0.020538 0.001179
v -0.021703 0.012921 0.042192
v -0.024195 -0.003133 0.042197
v -0.021705 0.017574 -0.000065
v -0.021703 0.017574 0.032607
v -0.023046 -0.019282 -0.000591
v -0.023046 -0.018229 -0.000704
v -0.023046 -0.017452 -0.000708
v -0.023046 -0.015893 -0.000708
v -0.044439 -0.019788 0.042197
v -0.044516 -0.019788 0.039653
v -0.044314 -0.020565 0.020191
v -0.044113 -0.020757 0.015520
v -0.044248 -0.020477 0.010067
v -0.043570 -0.020783 0.006952
v -0.042789 -0.020734 0.003059
v -0.042625 -0.020940 0.006347
v -0.042008 -0.021051 0.008512
v -0.036558 -0.020814 0.002281
v -0.036558 -0.020753 0.001499
v -0.037336 -0.020596 0.000721
v -0.030333 -0.020435 0.000427
v -0.023187 -0.020109 -0.000040
v -0.024382 0.017574 0.042192
v -0.021703 0.017574 0.038354
v -0.044507 -0.003133 0.042197
v -0.023187 -0.015116 -0.000704
v -0.038299 0.017439 -0.000439
v -0.040775 0.017489 -0.000448
v -0.042001 0.017574 -0.000364
v -0.024104 -0.019573 -0.000540
v -0.034223 -0.019317 -0.000645
v -0.034999 -0.019006 -0.000708
v -0.038895 -0.013557 -0.000755
v -0.028779 -0.015116 -0.000734
v -0.024104 -0.015893 -0.000717
v -0.024104 -0.015116 -0.000717
v -0.044537 -0.019006 0.042197
v -0.044623 -0.019006 0.039653
v -0.044739 -0.019416 0.021200
v -0.044705 -0.019638 0.020191
v -0.044662 -0.019868 0.015520
v -0.044655 -0.019872 0.014738
v -0.044687 -0.019631 0.010307
v -0.044352 -0.020098 0.006952
v -0.043799 -0.020374 0.002281
v -0.042789 -0.020680 0.002281
v -0.040454 -0.020764 0.002281
v -0.039675 -0.020783 0.002281
v -0.038117 -0.020749 0.001499
v -0.037336 -0.020753 0.001499
v -0.039675 -0.020554 0.000721
v -0.038117 -0.020458 0.000406
v -0.039675 -0.020734 0.001499
v -0.033444 -0.020175 -0.000132
v -0.044214 0.017574 0.041196
v -0.044227 0.017240 0.042192
v -0.044812 -0.012002 0.042197
v -0.039671 0.016804 -0.000464
v -0.039675 -0.013557 -0.000746
v -0.042008 -0.012002 -0.000696
v -0.041690 0.014265 -0.000456
v -0.042768 0.017574 0.000019
v -0.042789 -0.014338 -0.000683
v -0.043108 -0.013557 -0.000616
v -0.038117 -0.019807 -0.000422
v -0.038117 -0.019006 -0.000679
v -0.040454 -0.019255 -0.000565
v -0.038117 -0.018229 -0.000700
v -0.034999 -0.012780 -0.000742
v -0.034999 -0.013557 -0.000746
v -0.030333 -0.014338 -0.000738
v -0.040454 -0.016674 -0.000700
v -0.044758 -0.015774 0.042197
v -0.044680 -0.017398 0.042092
v -0.044619 -0.018229 0.042092
v -0.044692 -0.018229 0.039653
v -0.044721 -0.018819 0.030950
v -0.044771 -0.019229 0.018632
v -0.044746 -0.019451 0.019414
v -0.044751 -0.019462 0.017854
v -0.044755 -0.019485 0.014738
v -0.044758 -0.019481 0.013961
v -0.044758 -0.019481 0.011623
v -0.044719 -0.019171 0.008512
v -0.044546 -0.019006 0.003059
v -0.044280 -0.019788 0.002281
v -0.044018 -0.020037 0.001419
v -0.042789 -0.020580 0.001499
v -0.043492 -0.020086 0.000452
v -0.040454 -0.020703 0.001499
v -0.040454 -0.020504 0.000721
v -0.038895 -0.020446 0.000423
v -0.037336 -0.020071 -0.000174
v -0.043911 0.017574 0.009281
v -0.043968 0.015942 0.010072
v -0.044915 -0.014338 0.014738
v -0.044236 0.016804 0.041209
v -0.044953 -0.014338 0.030311
v -0.044935 -0.014338 0.035756
v -0.044878 -0.012002 0.037320
v -0.044894 -0.013557 0.039653
v -0.044871 -0.012780 0.040435
v -0.044858 -0.012780 0.041213
v -0.044826 -0.013040 0.042142
v -0.042008 -0.014338 -0.000700
v -0.042008 -0.013557 -0.000704
v -0.043629 -0.017452 -0.000456
v -0.043909 -0.014338 -0.000225
v -0.044150 -0.013557 0.000036
v -0.043251 0.017574 0.000561
v -0.042008 -0.015116 -0.000691
v -0.042789 -0.017452 -0.000645
v -0.041230 -0.019232 -0.000536
v -0.042789 -0.018229 -0.000612
v -0.044787 -0.015012 0.042092
v -0.044821 -0.015116 0.041213
v -0.044794 -0.015893 0.041213
v -0.044746 -0.016494 0.041764
v -0.044808 -0.016674 0.039653
v -0.044739 -0.017884 0.037757
v -0.044864 -0.018229 0.016298
v -0.044785 -0.017777 0.033422
v -0.044803 -0.019006 0.015520
v -0.044862 -0.018229 0.015520
v -0.044785 -0.019006 0.010845
v -0.044746 -0.019102 0.009290
v -0.044692 -0.019006 0.006952
v -0.044580 -0.018229 0.003059
v -0.044432 -0.018229 0.000721
v -0.044496 -0.019006 0.002281
v -0.044184 -0.019313 0.000427
v -0.043108 -0.019056 -0.000439
v -0.043897 0.017574 0.008503
v -0.044880 -0.014338 0.011623
v -0.044892 -0.015116 0.011623
v -0.044924 -0.015116 0.014738
v -0.044930 -0.015116 0.015520
v -0.044937 -0.014338 0.021734
v -0.044930 -0.013557 0.026418
v -0.044937 -0.015893 0.015520
v -0.044926 -0.016674 0.015520
v -0.044937 -0.015116 0.034978
v -0.044935 -0.015116 0.035756
v -0.044908 -0.014338 0.038875
v -0.044880 -0.013557 0.040435
v -0.044855 -0.013557 0.041213
v -0.043595 -0.018229 -0.000439
v -0.044186 -0.018229 0.000027
v -0.043911 -0.015116 -0.000229
v -0.044421 -0.014338 0.000721
v -0.043599 0.016804 0.001503
v -0.043567 0.017574 0.001499
v -0.044869 -0.014338 0.040435
v -0.044851 -0.015116 0.040435
v -0.044826 -0.015893 0.040435
v -0.044851 -0.015893 0.039653
v -0.044862 -0.015893 0.038875
v -0.044905 -0.015893 0.034200
v -0.044899 -0.017452 0.015520
v -0.044814 -0.018229 0.010067
v -0.044803 -0.018229 0.009290
v -0.044751 -0.018784 0.008512
v -0.044730 -0.018325 0.007267
v -0.044771 -0.017452 0.007730
v -0.044751 -0.017027 0.006944
v -0.044801 -0.015893 0.007730
v -0.044758 -0.015116 0.006658
v -0.044660 -0.015116 0.004614
v -0.044582 -0.015116 0.003059
v -0.044539 -0.015116 0.002281
v -0.044494 -0.015893 0.001499
v -0.044432 -0.017452 0.000721
v -0.043836 0.017574 0.005384
v -0.044778 -0.013557 0.007730
v -0.044864 -0.015116 0.010067
v -0.044880 -0.015116 0.010845
v -0.044930 -0.015893 0.014738
v -0.044887 -0.015116 0.038875
v -0.044894 -0.014338 0.039653
v -0.044489 -0.015116 0.001499
v -0.044482 -0.014338 0.001499
v -0.044466 -0.013557 0.001499
v -0.043715 0.016026 0.002285
v -0.043692 0.016804 0.002285
v -0.043663 0.017574 0.002285
v -0.044874 -0.015116 0.039653
v -0.044814 -0.017452 0.009290
v -0.044798 -0.017452 0.008512
v -0.044821 -0.015893 0.008512
v -0.044801 -0.015116 0.007730
v -0.044755 -0.013902 0.006838
v -0.044619 -0.014338 0.003837
v -0.044580 -0.014338 0.003059
v -0.044537 -0.014338 0.002281
v -0.043813 0.017574 0.004619
v -0.044794 -0.014338 0.007730
v -0.044519 -0.013557 0.002281
v -0.043727 0.017574 0.003050
v -0.043777 0.017574 0.003832
v -0.044566 -0.013557 0.003059
f 1 2 3
f 1 3 4
f 1 4 5
f 1 5 6
f 1 6 7
f 1 7 2
f 2 8 3
f 2 7 9
f 2 9 10
f 2 10 11
f 2 11 8
f 3 8 12
f 3 12 13
f 3 13 4
f 4 13 14
f 4 14 15
f 4 15 5
f 5 15 16
f 5 16 6
f 6 16 17
f 6 17 7
f 7 17 18
f 7 18 9
f 8 11 19
f 8 19 12
f 9 18 20
f 9 20 10
f 10 20 21
f 10 21 22
f 10 22 23
f 10 23 11
f 11 23 19
f 12 19 24
f 12 24 25
f 12 25 26
f 12 26 27
f 12 27 28
f 12 28 13
f 13 29 30
f 13 30 48
f 13 48 31
f 13 31 49
f 13 49 72
f 13 72 104
f 13 104 120
f 13 120 84
f 13 84 56
f 13 56 37
f 13 37 32
f 13 32 14
f 13 28 33
f 13 33 34
f 13 34 35
f 13 35 29
f 14 32 15
f 15 32 36
f 15 36 16
f 16 36 37
f 16 37 38
f 16 38 39
f 16 39 40
f 16 40 17
f 17 40 18
f 18 40 41
f 18 41 42
f 18 42 22
f 18 22 21
f 18 21 20
f 19 23 24
f 22 42 23
f 23 42 43
f 23 43 44
f 23 44 26
f 23 26 24
f 24 26 25
f 26 44 45
f 26 45 46
f 26 46 47
f 26 47 34
f 26 34 33
f 26 33 28
f 26 28 27
f 29 35 51
f 29 51 71
f 29 71 48
f 29 48 30
f 31 48 49
f 32 37 36
f 34 50 51
f 34 51 35
f 34 47 52
f 34 52 53
f 34 53 54
f 34 54 55
f 34 55 50
f 37 56 57
f 37 57 38
f 38 57 58
f 38 58 39
f 39 58 59
f 39 59 40
f 40 59 60
f 40 60 61
f 40 61 41
f 41 61 62
f 41 62 63
f 41 63 42
f 42 63 64
f 42 64 43
f 43 64 65
f 43 65 44
f 44 65 45
f 45 65 46
f 46 65 66
f 46 66 67
f 46 67 47
f 47 67 68
f 47 68 69
f 47 69 52
f 48 70 49
f 48 71 70
f 49 70 72
f 50 55 73
f 50 73 74
f 50 74 75
f 50 75 76
f 50 76 109
f 50 109 157
f 50 157 199
f 50 199 232
f 50 232 245
f 50 245 246
f 50 246 242
f 50 242 220
f 50 220 180
f 50 180 141
f 50 141 102
f 50 102 70
f 50 70 71
f 50 71 51
f 52 77 78
f 52 78 79
f 52 79 53
f 52 69 77
f 53 79 80
f 53 80 81
f 53 81 54
f 54 81 82
f 54 82 83
f 54 83 55
f 55 83 73
f 56 84 85
f 56 85 57
f 57 85 86
f 57 86 87
f 57 87 88
f 57 88 58
f 58 88 89
f 58 89 60
f 58 60 59
f 60 89 90
f 60 90 91
f 60 91 92
f 60 92 61
f 61 92 93
f 61 93 62
f 62 93 94
f 62 94 63
f 63 94 95
f 63 95 64
f 64 95 65
f 65 95 100
f 65 100 96
f 65 96 97
f 65 97 66
f 66 97 67
f 67 98 99
f 67 99 68
f 67 97 96
f 67 96 100
f 67 100 98
f 68 99 101
f 68 101 69
f 69 101 77
f 70 102 103
f 70 103 72
f 72 103 104
f 73 83 74
f 74 83 105
f 74 105 75
f 75 105 80
f 75 80 106
f 75 106 107
f 75 107 108
f 75 108 76
f 76 108 110
f 76 110 111
f 76 111 109
f 77 101 112
f 77 112 78
f 78 113 79
f 78 112 114
f 78 114 113
f 79 113 115
f 79 115 80
f 80 105 116
f 80 116 117
f 80 117 118
f 80 118 81
f 80 115 119
f 80 119 106
f 81 118 83
f 81 83 82
f 83 118 105
f 84 120 121
f 84 121 122
f 84 122 85
f 85 122 123
f 85 123 124
f 85 124 86
f 86 125 126
f 86 126 87
f 86 124 125
f 87 126 127
f 87 127 128
f 87 128 88
f 88 128 129
f 88 129 130
f 88 130 89
f 89 130 90
f 90 130 131
f 90 131 132
f 90 132 133
f 90 133 91
f 91 133 134
f 91 134 92
f 92 135 93
f 92 134 136
f 92 136 135
f 93 135 137
f 93 137 100
f 93 100 94
f 94 100 95
f 98 138 139
f 98 139 99
f 98 100 137
f 98 137 135
f 98 135 138
f 99 139 140
f 99 140 101
f 101 140 112
f 102 141 142
f 102 142 143
f 102 143 144
f 102 144 103
f 103 144 145
f 103 145 146
f 103 146 147
f 103 147 148
f 103 148 149
f 103 149 150
f 103 150 104
f 104 150 151
f 104 151 120
f 105 118 116
f 106 119 152
f 106 152 153
f 106 153 107
f 107 153 110
f 107 110 108
f 109 111 154
f 109 154 155
f 109 155 156
f 109 156 157
f 110 158 159
f 110 159 154
f 110 154 111
f 110 153 152
f 110 152 158
f 112 140 139
f 112 139 136
f 112 136 160
f 112 160 114
f 113 114 161
f 113 161 159
f 113 159 115
f 114 160 161
f 115 159 119
f 116 118 117
f 119 159 158
f 119 158 152
f 120 151 162
f 120 162 163
f 120 163 164
f 120 164 165
f 120 165 121
f 121 165 166
f 121 166 122
f 122 166 123
f 123 166 167
f 123 167 124
f 124 168 125
f 124 167 169
f 124 169 168
f 125 168 170
f 125 170 127
f 125 127 126
f 127 170 129
f 127 129 128
f 129 170 130
f 130 170 168
f 130 168 171
f 130 171 172
f 130 172 173
f 130 173 131
f 131 174 132
f 131 173 174
f 132 175 176
f 132 176 177
f 132 177 133
f 132 174 175
f 133 177 178
f 133 178 134
f 134 178 136
f 135 136 138
f 136 139 138
f 136 178 179
f 136 179 160
f 141 180 181
f 141 181 143
f 141 143 142
f 143 181 182
f 143 182 183
f 143 183 184
f 143 184 185
f 143 185 144
f 144 185 186
f 144 186 145
f 145 186 185
f 145 185 187
f 145 187 188
f 145 188 189
f 145 189 190
f 145 190 146
f 146 190 191
f 146 191 148
f 146 148 147
f 148 191 192
f 148 192 149
f 149 192 150
f 150 192 193
f 150 193 151
f 151 193 162
f 154 159 194
f 154 194 195
f 154 195 196
f 154 196 155
f 155 196 195
f 155 195 156
f 156 195 197
f 156 197 157
f 157 197 198
f 157 198 199
f 159 161 194
f 160 179 161
f 161 179 194
f 162 193 163
f 163 193 200
f 163 200 201
f 163 201 202
f 163 202 164
f 164 202 165
f 165 202 166
f 166 202 203
f 166 203 204
f 166 204 205
f 166 205 169
f 166 169 167
f 168 206 171
f 168 169 205
f 168 205 190
f 168 190 206
f 171 206 172
f 172 207 208
f 172 208 209
f 172 209 173
f 172 206 207
f 173 209 174
f 174 209 208
f 174 208 210
f 174 210 175
f 175 210 211
f 175 211 212
f 175 212 213
f 175 213 214
f 175 214 215
f 175 215 216
f 175 216 217
f 175 217 218
f 175 218 176
f 176 219 195
f 176 195 178
f 176 178 177
f 176 218 219
f 178 195 194
f 178 194 179
f 180 220 181
f 181 220 221
f 181 221 222
f 181 222 223
f 181 223 182
f 182 223 224
f 182 224 183
f 183 224 187
f 183 187 184
f 184 187 185
f 187 224 188
f 188 224 207
f 188 207 206
f 188 206 189
f 189 206 190
f 190 205 204
f 190 204 203
f 190 203 225
f 190 225 191
f 191 225 233
f 191 233 226
f 191 226 192
f 192 226 200
f 192 200 193
f 195 219 197
f 197 219 218
f 197 218 227
f 197 227 228
f 197 228 229
f 197 229 230
f 197 230 231
f 197 231 198
f 198 231 232
f 198 232 199
f 200 226 201
f 201 226 233
f 201 233 203
f 201 203 202
f 203 233 225
f 207 224 208
f 208 224 223
f 208 223 234
f 208 234 235
f 208 235 210
f 210 235 211
f 211 213 212
f 211 235 213
f 213 235 236
f 213 236 222
f 213 222 237
f 213 237 214
f 214 237 238
f 214 238 239
f 214 239 215
f 215 239 240
f 215 240 216
f 216 240 241
f 216 241 217
f 217 241 218
f 218 241 227
f 220 242 221
f 221 242 238
f 221 238 243
f 221 243 222
f 222 243 237
f 222 236 235
f 222 235 234
f 222 234 223
f 227 241 228
f 228 241 229
f 229 241 244
f 229 244 245
f 229 245 230
f 230 245 231
f 231 245 232
f 237 243 238
f 238 242 246
f 238 246 247
f 238 247 239
f 239 247 240
f 240 247 241
f 241 247 244
f 244 247 246
f 244 246 245
