v -0.040801 0.017578 -0.000444
v -0.041342 0.019929 -0.000444
v -0.040062 0.019929 -0.000495
v -0.038155 0.017578 -0.000429
v -0.042007 0.017578 -0.000358
v -0.041401 0.023047 -0.000449
v -0.039676 0.047957 -0.000626
v -0.041622 0.025723 -0.000439
v -0.037727 0.050293 -0.000667
v -0.034224 0.050682 -0.000667
v -0.027786 0.051071 -0.000576
v -0.022932 0.017578 -0.000069
v -0.043004 0.017578 0.000291
v -0.043074 0.051071 -0.000003
v -0.041948 0.050488 -0.000434
v -0.041644 0.030049 -0.000444
v -0.040842 0.048734 -0.000550
v -0.040062 0.052237 -0.000550
v -0.038893 0.052237 -0.000601
v -0.035002 0.052237 -0.000642
v -0.037727 0.052626 -0.000616
v -0.031501 0.052626 -0.000631
v -0.027786 0.053404 -0.000586
v -0.028775 0.051848 -0.000596
v -0.022932 0.039072 -0.000089
v -0.022208 0.035584 0.041778
v -0.022208 0.021660 0.042173
v -0.022208 0.021526 0.043541
v -0.022208 0.021488 0.044321
v -0.022932 0.017578 0.038404
v -0.043867 0.051071 0.001030
v -0.043617 0.017578 0.001892
v -0.043076 0.054185 0.000012
v -0.042007 0.052626 -0.000373
v -0.041638 0.051921 -0.000444
v -0.041607 0.049512 -0.000479
v -0.042007 0.054574 -0.000292
v -0.040206 0.053971 -0.000454
v -0.039676 0.053404 -0.000520
v -0.038507 0.053404 -0.000566
v -0.033446 0.053404 -0.000601
v -0.030724 0.053404 -0.000606
v -0.037727 0.054185 -0.000530
v -0.034224 0.054185 -0.000561
v -0.033446 0.054475 -0.000530
v -0.027573 0.054547 -0.000459
v -0.027573 0.055656 0.000225
v -0.027573 0.055934 0.001208
v -0.027573 0.055984 0.002763
v -0.022932 0.039148 0.038485
v -0.022208 0.035054 0.047437
v -0.022208 0.021553 0.047822
v -0.022208 0.021793 0.049230
v -0.024222 0.017578 0.048997
v -0.043984 0.051848 0.001329
v -0.043847 0.054185 0.001091
v -0.043624 0.054963 0.000731
v -0.043724 0.017578 0.003052
v -0.044186 0.050293 0.003062
v -0.044119 0.050682 0.002287
v -0.043048 0.055271 0.000189
v -0.038893 0.055096 -0.000403
v -0.039248 0.054337 -0.000474
v -0.042070 0.055988 0.000265
v -0.041231 0.055740 0.000022
v -0.038118 0.054993 -0.000444
v -0.037338 0.054844 -0.000474
v -0.037338 0.055233 -0.000419
v -0.032673 0.055420 -0.000196
v -0.037431 0.055995 0.000265
v -0.038102 0.056232 0.000660
v -0.036558 0.056224 0.000802
v -0.037338 0.056373 0.001507
v -0.037727 0.056441 0.002672
v -0.037727 0.056468 0.004232
v -0.037338 0.056441 0.005397
v -0.035002 0.056285 0.006953
v -0.027573 0.055934 0.004977
v -0.027573 0.055462 0.019416
v -0.027573 0.055302 0.023833
v -0.027573 0.054463 0.038875
v -0.027573 0.054315 0.041246
v -0.022208 0.034913 0.048572
v -0.027573 0.055904 0.006173
v -0.027573 0.055881 0.006953
v -0.024555 0.017578 0.049742
v -0.022208 0.022903 0.050173
v -0.043973 0.053404 0.001385
v -0.044104 0.053404 0.002287
v -0.044073 0.054185 0.002287
v -0.043941 0.054997 0.002130
v -0.042715 0.056110 0.000767
v -0.043843 0.055481 0.003021
v -0.043124 0.056098 0.001942
v -0.043776 0.017578 0.003832
v -0.044228 0.049512 0.003842
v -0.044195 0.053404 0.003062
v -0.044252 0.053404 0.003842
v -0.040842 0.056213 0.000524
v -0.040062 0.055740 -0.000003
v -0.036558 0.055481 -0.000231
v -0.038507 0.056400 0.001507
v -0.039284 0.056464 0.003062
v -0.038893 0.056483 0.003842
v -0.040842 0.056518 0.006563
v -0.039676 0.056457 0.008518
v -0.038893 0.056403 0.009298
v -0.036558 0.056323 0.008518
v -0.036171 0.056327 0.007738
v -0.029557 0.055443 0.024087
v -0.029316 0.055386 0.024973
v -0.033231 0.055367 0.030759
v -0.040453 0.055287 0.034979
v -0.035693 0.054574 0.041287
v -0.027610 0.039148 0.050477
v -0.025309 0.039148 0.050264
v -0.024149 0.039148 0.049372
v -0.022208 0.034505 0.049565
v -0.032673 0.055637 0.024087
v -0.031890 0.055591 0.024087
v -0.025378 0.017578 0.050380
v -0.022208 0.024301 0.050375
v -0.044167 0.054185 0.003062
v -0.044212 0.054185 0.003842
v -0.044206 0.054963 0.006563
v -0.043022 0.056258 0.003062
v -0.042007 0.056365 0.001507
v -0.043878 0.055675 0.005787
v -0.043824 0.017578 0.005007
v -0.044360 0.049512 0.006953
v -0.044365 0.050293 0.006953
v -0.044386 0.050293 0.007738
v -0.044391 0.053015 0.008908
v -0.044304 0.054185 0.006173
v -0.040842 0.056392 0.001507
v -0.042007 0.056487 0.006173
v -0.042007 0.056445 0.008518
v -0.040842 0.056472 0.008518
v -0.039676 0.056300 0.013184
v -0.037251 0.056121 0.015890
v -0.037338 0.056335 0.009298
v -0.035780 0.055649 0.026412
v -0.036558 0.055607 0.027967
v -0.040842 0.055710 0.027967
v -0.042007 0.055264 0.034979
v -0.041618 0.055145 0.036924
v -0.042007 0.054924 0.038875
v -0.042409 0.054597 0.041266
v -0.042722 0.038877 0.050958
v -0.042476 0.037833 0.050983
v -0.027221 0.034723 0.050517
v -0.026441 0.033941 0.050497
v -0.026441 0.035500 0.050477
v -0.026441 0.038877 0.050431
v -0.022208 0.033457 0.050142
v -0.022208 0.031997 0.050320
v -0.037338 0.056056 0.017860
v -0.036558 0.055954 0.019806
v -0.026441 0.017578 0.050558
v -0.022208 0.028441 0.050360
v -0.026441 0.022659 0.050578
v -0.044323 0.054185 0.006953
v -0.044362 0.054185 0.009298
v -0.044228 0.054963 0.010854
v -0.044145 0.055233 0.008711
v -0.043550 0.056072 0.007738
v -0.043061 0.056331 0.005787
v -0.044147 0.055226 0.010073
v -0.043728 0.055889 0.008518
v -0.043908 0.017578 0.009283
v -0.044382 0.049512 0.007738
v -0.044399 0.050293 0.012409
v -0.044406 0.051071 0.017080
v -0.044380 0.053404 0.013964
v -0.042787 0.056411 0.007738
v -0.040842 0.056316 0.013184
v -0.042787 0.056388 0.008518
v -0.042416 0.056133 0.016751
v -0.042007 0.056255 0.013964
v -0.040043 0.056133 0.018286
v -0.040062 0.055881 0.024087
v -0.040842 0.056091 0.019416
v -0.042007 0.055691 0.027967
v -0.042787 0.055187 0.034979
v -0.042409 0.055351 0.033059
v -0.042913 0.054608 0.040430
v -0.043448 0.054113 0.041246
v -0.043513 0.039148 0.050537
v -0.043215 0.036281 0.050963
v -0.043248 0.035500 0.050973
v -0.043078 0.028109 0.051090
v -0.027999 0.030827 0.050578
v -0.026441 0.025384 0.050568
v -0.025663 0.033164 0.050472
v -0.027999 0.017578 0.050624
v -0.027221 0.022270 0.050608
v -0.044356 0.054185 0.012409
v -0.044323 0.054185 0.016305
v -0.044252 0.054185 0.022531
v -0.044230 0.054185 0.024087
v -0.044104 0.054848 0.020971
v -0.043965 0.055363 0.018347
v -0.043276 0.056197 0.011629
v -0.042831 0.017578 0.051029
v -0.044291 0.017585 0.044711
v -0.044397 0.050293 0.020971
v -0.044369 0.051460 0.027187
v -0.044399 0.051460 0.017860
v -0.044338 0.053404 0.024087
v -0.043026 0.056228 0.012409
v -0.040864 0.056133 0.018311
v -0.042787 0.055744 0.025632
v -0.042787 0.055237 0.034199
v -0.043150 0.055344 0.030501
v -0.043376 0.054741 0.036534
v -0.042787 0.055698 0.026412
v -0.043765 0.054273 0.036534
v -0.043871 0.053548 0.040430
v -0.043908 0.053175 0.041287
v -0.043869 0.039148 0.049772
v -0.043971 0.034978 0.050193
v -0.044000 0.021065 0.050700
v -0.043502 0.022270 0.051059
v -0.042787 0.021488 0.051074
v -0.034220 0.018378 0.050821
v -0.028777 0.019541 0.050659
v -0.027999 0.020711 0.050634
v -0.028790 0.017578 0.050654
v -0.044241 0.053404 0.031863
v -0.044117 0.054448 0.026412
v -0.044149 0.053739 0.032644
v -0.044015 0.054501 0.029847
v -0.043950 0.054558 0.031083
v -0.043828 0.055180 0.024087
v -0.043591 0.055328 0.025632
v -0.043363 0.055508 0.026412
v -0.034230 0.017578 0.050816
v -0.043904 0.017589 0.050745
v -0.044132 0.017589 0.049772
v -0.044136 0.020711 0.049772
v -0.044289 0.051071 0.035369
v -0.044336 0.051848 0.031083
v -0.044319 0.052237 0.031863
v -0.043643 0.054597 0.034979
v -0.043928 0.054517 0.031863
v -0.043858 0.053987 0.037446
v -0.044028 0.052893 0.040430
v -0.044115 0.050720 0.041246
v -0.044078 0.025384 0.050092
v -0.044273 0.051848 0.034979
v -0.044162 0.052626 0.037310
v -0.044210 0.051460 0.038095
v -0.044134 0.052626 0.038095
f 1 2 3
f 1 3 4
f 1 4 12
f 1 12 30
f 1 30 54
f 1 54 86
f 1 86 121
f 1 121 159
f 1 159 195
f 1 195 228
f 1 228 237
f 1 237 204
f 1 204 170
f 1 170 129
f 1 129 95
f 1 95 58
f 1 58 32
f 1 32 13
f 1 13 5
f 1 5 2
f 2 6 7
f 2 7 3
f 2 5 8
f 2 8 6
f 3 7 9
f 3 9 10
f 3 10 11
f 3 11 4
f 4 11 12
f 5 13 14
f 5 14 15
f 5 15 16
f 5 16 8
f 6 8 17
f 6 17 7
f 7 17 18
f 7 18 19
f 7 19 9
f 8 16 17
f 9 20 10
f 9 19 21
f 9 21 20
f 10 20 22
f 10 22 23
f 10 23 24
f 10 24 11
f 11 24 23
f 11 23 12
f 12 23 25
f 12 25 26
f 12 26 27
f 12 27 28
f 12 28 29
f 12 29 30
f 13 31 14
f 13 32 31
f 14 33 15
f 14 31 33
f 15 33 34
f 15 34 35
f 15 35 36
f 15 36 16
f 16 36 17
f 17 36 35
f 17 35 18
f 18 35 37
f 18 37 38
f 18 38 39
f 18 39 19
f 19 39 40
f 19 40 21
f 20 21 41
f 20 41 42
f 20 42 22
f 21 40 43
f 21 43 44
f 21 44 41
f 22 42 23
f 23 42 45
f 23 45 46
f 23 46 25
f 25 46 47
f 25 47 48
f 25 48 49
f 25 49 50
f 25 50 26
f 26 50 51
f 26 51 83
f 26 83 118
f 26 118 155
f 26 155 156
f 26 156 160
f 26 160 122
f 26 122 87
f 26 87 53
f 26 53 52
f 26 52 29
f 26 29 28
f 26 28 27
f 29 52 30
f 30 52 53
f 30 53 54
f 31 55 56
f 31 56 57
f 31 57 33
f 31 32 55
f 32 58 59
f 32 59 60
f 32 60 55
f 33 57 61
f 33 61 37
f 33 37 34
f 34 37 35
f 37 62 63
f 37 63 38
f 37 61 64
f 37 64 65
f 37 65 62
f 38 63 39
f 39 63 40
f 40 63 43
f 41 44 42
f 42 44 45
f 43 63 66
f 43 66 67
f 43 67 44
f 44 67 45
f 45 67 68
f 45 68 46
f 46 68 69
f 46 69 47
f 47 70 71
f 47 71 72
f 47 72 48
f 47 69 70
f 48 72 73
f 48 73 74
f 48 74 49
f 49 74 75
f 49 75 76
f 49 76 77
f 49 77 78
f 49 78 50
f 50 79 80
f 50 80 81
f 50 81 82
f 50 82 83
f 50 83 51
f 50 78 84
f 50 84 85
f 50 85 79
f 53 86 54
f 53 87 86
f 55 88 56
f 55 60 89
f 55 89 88
f 56 88 90
f 56 90 91
f 56 91 57
f 57 92 61
f 57 91 93
f 57 93 94
f 57 94 92
f 58 95 96
f 58 96 59
f 59 97 60
f 59 96 98
f 59 98 97
f 60 97 89
f 61 92 64
f 62 65 68
f 62 68 66
f 62 66 63
f 64 92 99
f 64 99 70
f 64 70 100
f 64 100 65
f 65 100 68
f 66 68 67
f 68 100 101
f 68 101 69
f 69 101 70
f 70 101 100
f 70 99 71
f 71 99 102
f 71 102 72
f 72 102 73
f 73 102 74
f 74 102 103
f 74 103 104
f 74 104 75
f 75 104 105
f 75 105 76
f 76 105 106
f 76 106 107
f 76 107 108
f 76 108 109
f 76 109 77
f 77 109 84
f 77 84 78
f 79 110 80
f 79 85 110
f 80 110 111
f 80 111 81
f 81 111 112
f 81 112 82
f 82 112 113
f 82 113 114
f 82 114 115
f 82 115 116
f 82 116 117
f 82 117 118
f 82 118 83
f 84 109 85
f 85 109 119
f 85 119 120
f 85 120 110
f 86 87 121
f 87 122 121
f 88 89 90
f 89 97 123
f 89 123 90
f 90 123 91
f 91 123 124
f 91 124 125
f 91 125 93
f 92 94 126
f 92 126 127
f 92 127 99
f 93 125 128
f 93 128 94
f 94 128 126
f 95 129 130
f 95 130 96
f 96 130 98
f 97 98 123
f 98 130 131
f 98 131 132
f 98 132 133
f 98 133 134
f 98 134 124
f 98 124 123
f 99 127 135
f 99 135 102
f 102 135 103
f 103 135 136
f 103 136 105
f 103 105 104
f 105 136 137
f 105 137 138
f 105 138 106
f 106 138 176
f 106 176 139
f 106 139 107
f 107 139 140
f 107 140 141
f 107 141 108
f 108 141 140
f 108 140 119
f 108 119 109
f 110 120 112
f 110 112 111
f 112 120 119
f 112 119 142
f 112 142 143
f 112 143 144
f 112 144 113
f 113 144 145
f 113 145 146
f 113 146 114
f 114 147 148
f 114 148 149
f 114 149 115
f 114 146 147
f 115 149 150
f 115 150 151
f 115 151 152
f 115 152 153
f 115 153 154
f 115 154 116
f 116 155 117
f 116 154 156
f 116 156 155
f 117 155 118
f 119 140 157
f 119 157 158
f 119 158 142
f 121 122 159
f 122 160 161
f 122 161 159
f 124 134 125
f 125 134 162
f 125 162 163
f 125 163 164
f 125 164 165
f 125 165 128
f 126 128 166
f 126 166 167
f 126 167 127
f 127 167 136
f 127 136 135
f 128 165 168
f 128 168 169
f 128 169 166
f 129 170 171
f 129 171 130
f 130 171 132
f 130 132 131
f 132 171 172
f 132 172 133
f 133 172 173
f 133 173 174
f 133 174 163
f 133 163 162
f 133 162 134
f 136 167 175
f 136 175 137
f 137 176 138
f 137 175 177
f 137 177 178
f 137 178 179
f 137 179 176
f 139 176 180
f 139 180 157
f 139 157 140
f 142 158 180
f 142 180 143
f 143 180 181
f 143 181 144
f 144 182 183
f 144 183 145
f 144 181 182
f 145 184 146
f 145 183 185
f 145 185 184
f 146 184 147
f 147 184 186
f 147 186 148
f 148 186 187
f 148 187 149
f 149 188 189
f 149 189 190
f 149 190 191
f 149 191 150
f 149 187 188
f 150 191 192
f 150 192 151
f 151 192 152
f 152 192 193
f 152 193 194
f 152 194 153
f 153 194 154
f 154 194 156
f 156 194 160
f 157 180 158
f 159 161 195
f 160 194 193
f 160 193 161
f 161 193 196
f 161 196 195
f 163 174 197
f 163 197 164
f 164 168 165
f 164 197 198
f 164 198 199
f 164 199 200
f 164 200 201
f 164 201 202
f 164 202 168
f 166 169 203
f 166 203 167
f 167 203 175
f 168 202 169
f 169 202 203
f 170 204 205
f 170 205 171
f 171 205 172
f 172 205 173
f 173 205 206
f 173 206 207
f 173 207 208
f 173 208 174
f 174 208 207
f 174 207 209
f 174 209 197
f 175 203 210
f 175 210 177
f 176 179 211
f 176 211 180
f 177 210 178
f 178 212 183
f 178 183 182
f 178 182 211
f 178 211 179
f 178 210 212
f 180 211 182
f 180 182 181
f 183 212 185
f 184 185 213
f 184 213 214
f 184 214 215
f 184 215 186
f 185 212 216
f 185 216 213
f 186 215 187
f 187 215 217
f 187 217 218
f 187 218 219
f 187 219 188
f 188 190 189
f 188 219 220
f 188 220 221
f 188 221 190
f 190 221 222
f 190 222 223
f 190 223 191
f 191 223 224
f 191 224 225
f 191 225 226
f 191 226 196
f 191 196 193
f 191 193 192
f 195 227 228
f 195 196 227
f 196 226 227
f 197 209 198
f 198 209 199
f 199 209 229
f 199 229 200
f 200 230 201
f 200 229 231
f 200 231 230
f 201 230 232
f 201 232 202
f 202 232 233
f 202 233 234
f 202 234 235
f 202 235 236
f 202 236 203
f 203 236 212
f 203 212 210
f 204 237 224
f 204 224 223
f 204 223 238
f 204 238 239
f 204 239 205
f 205 239 240
f 205 240 241
f 205 241 242
f 205 242 207
f 205 207 206
f 207 242 209
f 209 242 243
f 209 243 229
f 212 236 214
f 212 214 216
f 213 216 214
f 214 236 215
f 215 236 244
f 215 244 217
f 217 244 245
f 217 245 246
f 217 246 218
f 218 247 219
f 218 246 233
f 218 233 231
f 218 231 247
f 219 247 248
f 219 248 220
f 220 248 221
f 221 248 249
f 221 249 222
f 222 238 223
f 222 249 240
f 222 240 239
f 222 239 238
f 224 237 225
f 225 237 228
f 225 228 226
f 226 228 227
f 229 243 250
f 229 250 251
f 229 251 247
f 229 247 231
f 230 231 232
f 231 233 232
f 233 246 245
f 233 245 244
f 233 244 235
f 233 235 234
f 235 244 236
f 240 249 248
f 240 248 252
f 240 252 241
f 241 252 250
f 241 250 243
f 241 243 242
f 247 251 253
f 247 253 252
f 247 252 248
f 250 252 251
f 251 252 253
