v 0.007329 -0.003799 0.041216
v 0.007314 -0.003799 0.041995
v 0.007278 -0.005021 0.046664
v 0.007166 -0.011227 0.045111
v 0.007253 -0.006673 0.039776
v 0.007304 -0.003799 0.039776
v 0.007309 -0.003799 0.042198
v 0.007248 -0.005021 0.047443
v 0.007161 -0.011227 0.045887
v 0.007125 -0.012785 0.045111
v 0.007232 -0.007333 0.039776
v 0.007100 -0.013559 0.044331
v -0.012573 -0.003799 0.039776
v -0.004664 -0.005021 0.050250
v -0.003857 -0.005021 0.050249
v -0.003081 -0.005021 0.050248
v -0.002300 -0.005021 0.050244
v -0.001524 -0.005021 0.050238
v -0.000743 -0.005021 0.050229
v 0.000008 -0.005021 0.050219
v 0.000815 -0.005021 0.050206
v 0.001570 -0.005021 0.050186
v 0.002019 -0.005021 0.050171
v 0.003153 -0.005021 0.050117
v 0.004705 -0.005021 0.050038
v 0.005486 -0.005021 0.049956
v 0.006242 -0.005021 0.049696
v 0.006267 -0.005021 0.049686
v 0.006676 -0.005021 0.049444
v 0.006686 -0.005021 0.049435
v 0.006885 -0.005021 0.049014
v 0.006890 -0.005021 0.049001
v 0.007120 -0.005021 0.048245
v 0.007125 -0.005021 0.048221
v -0.012757 -0.003799 0.042198
v 0.006834 -0.019787 0.048221
v 0.006880 -0.019787 0.047443
v 0.006839 -0.019787 0.043553
v 0.007013 -0.012901 0.039776
v 0.007069 -0.014337 0.044331
v -0.015452 -0.008362 0.039776
v -0.044555 -0.005292 0.042197
v -0.012695 -0.003799 0.041216
v -0.006216 -0.005021 0.050250
v -0.043866 -0.005292 0.050959
v -0.043570 -0.009668 0.051106
v -0.007748 -0.020565 0.050684
v -0.006967 -0.020565 0.050668
v -0.006191 -0.020565 0.050651
v 0.003924 -0.020742 0.050207
v -0.005420 -0.020565 0.050623
v 0.004368 -0.020819 0.050184
v 0.005486 -0.010448 0.050025
v 0.005486 -0.006555 0.049991
v 0.005486 -0.005777 0.049981
v 0.006267 -0.005777 0.049707
v 0.006722 -0.010448 0.049479
v 0.006267 -0.006555 0.049722
v 0.006267 -0.010448 0.049786
v 0.006875 -0.010448 0.049001
v 0.006758 -0.016672 0.049001
v -0.012751 -0.003799 0.041995
v -0.044555 -0.005292 0.043552
v -0.044479 -0.005292 0.049780
v -0.044341 -0.005292 0.050262
v -0.044239 -0.005292 0.050558
v -0.043973 -0.005292 0.050959
v -0.010102 -0.005021 0.050202
v -0.009331 -0.005021 0.050221
v -0.008529 -0.005021 0.050238
v -0.007748 -0.005021 0.050244
v 0.006722 -0.019787 0.048830
v 0.006701 -0.020334 0.048715
v 0.006737 -0.020581 0.048187
v 0.006804 -0.020565 0.047443
v 0.006732 -0.020377 0.043553
v 0.006717 -0.020332 0.042773
v 0.006666 -0.020199 0.040687
v 0.006809 -0.019787 0.042773
v 0.006977 -0.013676 0.039776
v -0.015452 -0.021153 0.039776
v -0.044831 -0.012783 0.042197
v -0.044811 -0.012005 0.042197
v -0.044647 -0.007333 0.042197
v -0.043570 -0.010446 0.051113
v -0.006967 -0.021344 0.050614
v -0.006191 -0.021344 0.050602
v -0.043100 -0.020968 0.050955
v 0.003924 -0.021301 0.050207
v 0.004368 -0.021199 0.050184
v 0.005486 -0.018230 0.050018
v 0.006267 -0.011227 0.049780
v 0.006717 -0.011227 0.049476
v 0.006666 -0.016672 0.049406
v -0.044499 -0.005774 0.049780
v -0.044234 -0.006553 0.050558
v -0.043999 -0.009668 0.050996
v 0.006655 -0.017102 0.049395
v 0.006610 -0.019007 0.049260
v 0.006558 -0.019787 0.049220
v 0.006461 -0.020581 0.048985
v 0.006615 -0.020852 0.048422
v 0.006666 -0.020972 0.047903
v 0.006676 -0.020979 0.047443
v 0.006666 -0.020972 0.046974
v 0.006671 -0.019914 0.039776
v 0.006686 -0.019810 0.039776
v 0.006436 -0.020504 0.039776
v 0.006518 -0.020346 0.039776
v 0.006645 -0.020086 0.039946
v -0.015340 -0.021154 0.039776
v -0.042007 -0.021436 0.042197
v -0.042584 -0.021420 0.042197
v -0.042789 -0.021413 0.042197
v -0.043570 -0.021183 0.042197
v -0.043973 -0.020972 0.042197
v -0.044183 -0.020567 0.042197
v -0.044438 -0.019789 0.042197
v -0.044535 -0.019011 0.042197
v -0.044611 -0.018231 0.042197
v -0.044673 -0.017452 0.042197
v -0.044759 -0.015726 0.042197
v -0.044780 -0.015116 0.042197
v -0.044785 -0.014912 0.042197
v -0.044821 -0.013357 0.042197
v -0.044816 -0.012783 0.042774
v -0.044739 -0.011545 0.045521
v -0.044800 -0.012005 0.042774
v -0.043989 -0.010446 0.050984
v -0.043187 -0.020968 0.050955
v -0.006191 -0.021821 0.050294
v -0.017867 -0.021934 0.050381
v 0.003924 -0.021690 0.050156
v 0.004659 -0.021413 0.049985
v 0.005486 -0.020565 0.049849
v 0.005486 -0.019787 0.049939
v 0.005486 -0.019007 0.049995
v 0.006227 -0.018230 0.049688
v 0.006329 -0.017396 0.049633
v 0.006222 -0.019007 0.049658
v -0.044489 -0.006553 0.049780
v -0.044213 -0.009668 0.050558
v -0.044739 -0.012005 0.045519
v 0.006170 -0.019787 0.049612
v 0.006053 -0.020565 0.049543
v 0.005951 -0.021051 0.049464
v 0.006099 -0.021210 0.049001
v 0.006319 -0.021251 0.048187
v 0.006267 -0.021314 0.047443
v 0.006380 -0.020579 0.039776
v 0.006002 -0.021043 0.039776
v -0.013859 -0.021165 0.039776
v -0.042007 -0.021773 0.049780
v -0.042467 -0.021746 0.049360
v 0.004705 -0.021257 0.039776
v -0.016315 -0.022106 0.049779
v -0.042860 -0.021669 0.049780
v -0.043978 -0.020981 0.042774
v -0.044188 -0.020567 0.042774
v -0.043983 -0.020984 0.043552
v -0.044183 -0.020567 0.043552
v -0.044086 -0.020637 0.049821
v -0.044295 -0.019789 0.049780
v -0.044371 -0.019011 0.049001
v -0.044734 -0.012410 0.045504
v -0.044096 -0.019789 0.050362
v -0.042431 -0.021742 0.050182
v -0.042007 -0.021758 0.050210
v -0.044050 -0.020421 0.050313
v -0.043948 -0.020941 0.050108
v -0.043376 -0.021122 0.050558
v 0.003924 -0.021891 0.049766
v 0.004705 -0.021819 0.049595
v 0.005114 -0.021744 0.049406
v -0.044310 -0.019011 0.049780
v 0.005655 -0.021601 0.049001
v 0.005675 -0.021703 0.048221
v 0.005486 -0.021262 0.040437
v 0.005486 -0.021215 0.039776
v -0.042472 -0.021748 0.049780
v 0.004828 -0.021253 0.039776
v 0.003924 -0.021973 0.049001
v -0.043636 -0.021232 0.049821
v -0.043978 -0.020984 0.049588
v 0.004705 -0.021884 0.049001
v 0.005267 -0.021771 0.049001
v 0.005287 -0.021767 0.048221
f 1 2 3
f 1 3 4
f 1 4 5
f 1 5 6
f 1 6 13
f 1 13 43
f 1 43 62
f 1 62 35
f 1 35 7
f 1 7 2
f 2 7 3
f 3 7 8
f 3 8 9
f 3 9 4
f 4 9 10
f 4 10 5
f 5 11 39
f 5 39 80
f 5 80 107
f 5 107 106
f 5 106 109
f 5 109 108
f 5 108 150
f 5 150 151
f 5 151 179
f 5 179 181
f 5 181 155
f 5 155 152
f 5 152 111
f 5 111 81
f 5 81 41
f 5 41 13
f 5 13 6
f 5 10 12
f 5 12 11
f 7 14 15
f 7 15 16
f 7 16 17
f 7 17 18
f 7 18 19
f 7 19 20
f 7 20 21
f 7 21 22
f 7 22 23
f 7 23 24
f 7 24 25
f 7 25 26
f 7 26 27
f 7 27 28
f 7 28 29
f 7 29 30
f 7 30 31
f 7 31 32
f 7 32 33
f 7 33 34
f 7 34 8
f 7 35 44
f 7 44 14
f 8 34 36
f 8 36 37
f 8 37 9
f 9 37 10
f 10 37 12
f 11 12 38
f 11 38 39
f 12 37 40
f 12 40 38
f 13 41 42
f 13 42 43
f 14 44 67
f 14 67 45
f 14 45 15
f 15 45 16
f 16 45 17
f 17 45 18
f 18 45 19
f 19 45 20
f 20 45 21
f 21 45 46
f 21 46 47
f 21 47 48
f 21 48 49
f 21 49 22
f 22 49 23
f 23 50 24
f 23 49 51
f 23 51 50
f 24 50 25
f 25 52 53
f 25 53 54
f 25 54 55
f 25 55 26
f 25 50 52
f 26 55 27
f 27 55 56
f 27 56 28
f 28 56 29
f 29 57 30
f 29 56 58
f 29 58 59
f 29 59 57
f 30 57 31
f 31 57 32
f 32 57 60
f 32 60 33
f 33 60 34
f 34 60 61
f 34 61 36
f 35 62 42
f 35 42 63
f 35 63 64
f 35 64 65
f 35 65 66
f 35 66 67
f 35 67 68
f 35 68 69
f 35 69 70
f 35 70 71
f 35 71 44
f 36 61 72
f 36 72 73
f 36 73 74
f 36 74 75
f 36 75 37
f 37 75 38
f 37 38 40
f 38 75 76
f 38 76 77
f 38 77 78
f 38 78 79
f 38 79 80
f 38 80 39
f 41 81 82
f 41 82 83
f 41 83 84
f 41 84 42
f 42 84 63
f 42 62 43
f 44 71 67
f 45 67 46
f 46 67 85
f 46 85 47
f 47 86 87
f 47 87 48
f 47 85 88
f 47 88 86
f 48 87 49
f 49 87 51
f 50 51 89
f 50 89 90
f 50 90 52
f 51 87 89
f 52 90 53
f 53 90 91
f 53 91 59
f 53 59 54
f 54 59 55
f 55 59 58
f 55 58 56
f 57 59 92
f 57 92 93
f 57 93 60
f 59 91 92
f 60 93 94
f 60 94 61
f 61 94 72
f 63 84 95
f 63 95 64
f 64 95 65
f 65 95 96
f 65 96 66
f 66 96 97
f 66 97 67
f 67 97 85
f 67 71 70
f 67 70 69
f 67 69 68
f 72 94 98
f 72 98 99
f 72 99 100
f 72 100 73
f 73 100 101
f 73 101 102
f 73 102 74
f 74 102 103
f 74 103 75
f 75 103 104
f 75 104 105
f 75 105 76
f 76 105 77
f 77 105 78
f 78 106 107
f 78 107 79
f 78 105 108
f 78 108 109
f 78 109 110
f 78 110 106
f 79 107 80
f 81 111 112
f 81 112 113
f 81 113 114
f 81 114 115
f 81 115 116
f 81 116 117
f 81 117 118
f 81 118 119
f 81 119 120
f 81 120 121
f 81 121 122
f 81 122 123
f 81 123 124
f 81 124 125
f 81 125 82
f 82 125 126
f 82 126 127
f 82 127 128
f 82 128 83
f 83 128 127
f 83 127 95
f 83 95 84
f 85 97 129
f 85 129 130
f 85 130 88
f 86 131 87
f 86 88 132
f 86 132 131
f 87 131 133
f 87 133 89
f 88 130 132
f 89 133 90
f 90 133 134
f 90 134 135
f 90 135 136
f 90 136 137
f 90 137 91
f 91 137 138
f 91 138 92
f 92 138 93
f 93 138 139
f 93 139 94
f 94 139 138
f 94 138 140
f 94 140 98
f 95 141 142
f 95 142 96
f 95 127 143
f 95 143 141
f 96 142 97
f 97 142 129
f 98 140 99
f 99 140 100
f 100 140 144
f 100 144 145
f 100 145 146
f 100 146 101
f 101 146 102
f 102 146 147
f 102 147 148
f 102 148 103
f 103 148 104
f 104 148 149
f 104 149 105
f 105 150 108
f 105 149 151
f 105 151 150
f 106 110 109
f 111 152 112
f 112 153 154
f 112 154 113
f 112 152 155
f 112 155 156
f 112 156 153
f 113 154 114
f 114 154 157
f 114 157 115
f 115 158 116
f 115 157 158
f 116 158 117
f 117 159 118
f 117 158 160
f 117 160 159
f 118 159 161
f 118 161 162
f 118 162 163
f 118 163 119
f 119 163 120
f 120 163 121
f 121 163 164
f 121 164 122
f 122 164 123
f 123 164 165
f 123 165 124
f 124 165 126
f 124 126 125
f 126 165 143
f 126 143 127
f 129 142 166
f 129 166 130
f 130 167 168
f 130 168 132
f 130 166 169
f 130 169 170
f 130 170 171
f 130 171 167
f 131 172 133
f 131 132 172
f 132 168 156
f 132 156 172
f 133 172 173
f 133 173 134
f 134 173 174
f 134 174 146
f 134 146 135
f 135 146 145
f 135 145 144
f 135 144 136
f 136 144 140
f 136 140 137
f 137 140 138
f 141 143 164
f 141 164 175
f 141 175 142
f 142 175 166
f 143 165 164
f 146 176 147
f 146 174 176
f 147 176 148
f 148 176 177
f 148 177 149
f 149 177 151
f 151 177 178
f 151 178 179
f 153 156 168
f 153 168 167
f 153 167 180
f 153 180 154
f 154 180 157
f 155 181 182
f 155 182 156
f 156 182 172
f 157 180 167
f 157 167 171
f 157 171 183
f 157 183 160
f 157 160 158
f 159 160 184
f 159 184 161
f 160 183 184
f 161 184 162
f 162 184 170
f 162 170 169
f 162 169 163
f 163 166 175
f 163 175 164
f 163 169 166
f 170 183 171
f 170 184 183
f 172 182 185
f 172 185 173
f 173 185 186
f 173 186 174
f 174 186 176
f 176 186 177
f 177 186 185
f 177 185 187
f 177 187 178
f 178 187 185
f 178 185 182
f 178 182 179
f 179 182 181
