v 0.008150 0.052655 0.038358
v 0.007958 0.039155 0.038358
v 0.007958 0.039155 0.038334
v 0.007958 0.040175 0.032643
v 0.008143 0.053410 0.031864
v 0.008112 0.053192 0.038358
v -0.017725 0.054302 0.041294
v -0.017725 0.044657 0.041294
v -0.023959 0.039152 0.041294
v -0.023092 0.039152 0.038588
v 0.007909 0.039155 0.028215
v 0.007741 0.039396 0.000724
v 0.008049 0.052630 0.018641
v 0.007933 0.053410 0.017858
v 0.007524 0.053919 0.005398
v 0.007720 0.054139 0.025632
v 0.007762 0.054127 0.031864
v 0.008098 0.053384 0.038358
v -0.017872 0.054303 0.041294
v 0.007727 0.054040 0.038358
v 0.007045 0.054346 0.038358
v -0.027571 0.039152 0.041294
v -0.027571 0.039152 0.038588
v -0.027571 0.039153 -0.000195
v -0.027211 0.039153 -0.000191
v -0.019963 0.039153 -0.000084
v -0.017826 0.039153 -0.000031
v -0.017725 0.039153 -0.000027
v 0.007605 0.039155 0.000154
v 0.007734 0.039155 0.000724
v 0.007605 0.039396 0.000150
v 0.007598 0.040175 0.000166
v 0.007727 0.040175 0.000724
v 0.007570 0.052630 0.001503
v 0.007765 0.052630 0.006181
v 0.007856 0.052630 0.010068
v 0.007703 0.053410 0.006181
v 0.007045 0.054269 0.005398
v 0.007682 0.053410 0.005398
v 0.007454 0.053832 0.002282
v 0.007045 0.054193 0.002282
v 0.007045 0.054516 0.025632
v 0.007745 0.054139 0.031085
v 0.006503 0.054552 0.003065
v 0.007045 0.054501 0.031085
v -0.020207 0.054315 0.041294
v 0.006661 0.054577 0.028383
v -0.027571 0.055983 0.003061
v -0.027571 0.055919 0.005750
v -0.027571 0.055907 0.006177
v -0.027571 0.055883 0.006956
v -0.027571 0.055462 0.019412
v -0.027571 0.055324 0.023299
v -0.027571 0.055311 0.023602
v -0.027571 0.055291 0.024053
v -0.027571 0.054318 0.041294
v -0.027571 0.039264 -0.000199
v 0.006265 0.039155 -0.000154
v 0.007045 0.039155 -0.000129
v 0.007045 0.039396 -0.000133
v 0.007045 0.040175 -0.000117
v 0.006905 0.049517 0.000150
v 0.006839 0.051851 0.000215
v 0.007440 0.045335 0.000330
v 0.007475 0.053155 0.001039
v 0.007486 0.052630 0.001015
v 0.007496 0.053412 0.001556
v 0.007545 0.053410 0.002282
v 0.007440 0.053812 0.001851
v 0.006440 0.054547 0.002282
v 0.007091 0.054045 0.001556
v 0.006689 0.054584 0.027194
v 0.006682 0.054584 0.027973
v 0.006112 0.054612 0.003065
v -0.027571 0.054468 0.038875
v -0.027571 0.055988 0.002638
v -0.027571 0.050649 -0.000568
v -0.027571 0.051071 -0.000580
v -0.021763 0.051071 -0.000547
v -0.016305 0.052630 -0.000535
v -0.013973 0.053410 -0.000527
v 0.004709 0.047183 -0.000248
v 0.005486 0.047183 -0.000236
v 0.006265 0.046406 -0.000174
v 0.006265 0.048737 -0.000145
v 0.006769 0.052630 0.000269
v 0.007157 0.052630 0.000625
v 0.006265 0.049517 -0.000113
v 0.006265 0.051071 -0.000031
v 0.006265 0.051851 0.000014
v 0.006696 0.053082 0.000318
v 0.007038 0.053377 0.000724
v 0.006863 0.053967 0.000929
v 0.007384 0.053674 0.001335
v 0.006199 0.054481 0.001572
v 0.005895 0.054579 0.001880
v 0.006049 0.054603 0.002282
v 0.000814 0.054890 0.001503
v -0.003857 0.055119 0.001503
v -0.004634 0.055152 0.001503
v -0.009690 0.055358 0.001134
v -0.027571 0.055990 0.002282
v -0.027571 0.053410 -0.000592
v -0.021763 0.054186 -0.000523
v -0.020984 0.054186 -0.000519
v -0.013973 0.054031 -0.000482
v -0.011637 0.053878 -0.000465
v -0.011018 0.053850 -0.000457
v -0.009473 0.053095 -0.000449
v 0.003930 0.047957 -0.000264
v 0.004709 0.047957 -0.000248
v 0.005486 0.047957 -0.000232
v 0.005486 0.048737 -0.000215
v 0.005486 0.051071 -0.000133
v 0.006265 0.052630 0.000129
v 0.005486 0.051851 -0.000096
v 0.005486 0.052630 0.000014
v 0.006199 0.053369 0.000285
v 0.005891 0.053802 0.000334
v 0.006412 0.053603 0.000408
v 0.006199 0.054035 0.000691
v 0.004426 0.054590 0.001085
v 0.003930 0.054625 0.001015
v 0.003150 0.054745 0.001503
v 0.002374 0.054796 0.001503
v 0.001594 0.054844 0.001503
v -0.009690 0.055358 0.001113
v 0.003150 0.054663 0.000937
v -0.027571 0.055968 0.001503
v -0.027571 0.054186 -0.000539
v -0.021763 0.054645 -0.000473
v -0.016305 0.054165 -0.000486
v -0.020984 0.054630 -0.000469
v -0.015529 0.054542 -0.000437
v -0.014749 0.054495 -0.000428
v -0.000742 0.053410 -0.000150
v -0.002301 0.053410 -0.000211
v -0.006189 0.053410 -0.000350
v -0.000742 0.051851 -0.000289
v -0.001522 0.051071 -0.000326
v 0.003150 0.050295 -0.000244
v 0.003930 0.048737 -0.000252
v 0.003150 0.051071 -0.000215
v 0.005486 0.053410 0.000187
v 0.004709 0.052630 -0.000035
v -0.000742 0.052630 -0.000236
v 0.002374 0.052630 -0.000137
v 0.003930 0.053410 0.000068
v 0.004709 0.053410 0.000121
v 0.005486 0.053832 0.000314
v 0.003150 0.054392 0.000547
v 0.003930 0.054338 0.000625
v 0.005486 0.054175 0.000724
v -0.004634 0.054989 0.000724
v -0.012413 0.055304 0.000506
v -0.015060 0.055360 0.000330
v -0.012413 0.055406 0.000896
v -0.020204 0.055640 0.000724
v -0.027211 0.055883 0.000724
v 0.001594 0.054717 0.000863
v -0.001522 0.054598 0.000318
v -0.027571 0.055927 0.001076
v -0.027571 0.054666 -0.000473
v -0.026435 0.054666 -0.000473
v -0.027571 0.054844 -0.000408
v -0.027571 0.055057 -0.000318
v -0.026435 0.055057 -0.000309
v -0.025655 0.055050 -0.000305
v -0.020984 0.055017 -0.000215
v -0.020204 0.055465 0.000195
v -0.015529 0.054968 -0.000072
v -0.009305 0.054839 0.000092
v -0.008529 0.054818 0.000113
v -0.002301 0.054630 0.000289
v -0.002301 0.054186 0.000039
v 0.003150 0.054002 0.000219
v -0.007749 0.054186 -0.000219
v 0.003150 0.053410 0.000023
v 0.003930 0.053949 0.000244
v 0.004709 0.053885 0.000277
v -0.015529 0.055370 0.000314
v -0.026435 0.055578 0.000080
v -0.027211 0.055594 0.000076
v -0.027571 0.055729 0.000371
v -0.027571 0.055886 0.000724
v -0.027571 0.055591 0.000068
f 1 2 3
f 1 3 4
f 1 4 5
f 1 5 6
f 1 6 7
f 1 7 8
f 1 8 2
f 2 8 9
f 2 9 10
f 2 10 3
f 3 11 4
f 3 10 11
f 4 11 12
f 4 12 13
f 4 13 5
f 5 13 14
f 5 14 15
f 5 15 16
f 5 16 17
f 5 17 18
f 5 18 6
f 6 18 7
f 7 19 46
f 7 46 56
f 7 56 22
f 7 22 9
f 7 9 8
f 7 18 20
f 7 20 21
f 7 21 19
f 9 22 23
f 9 23 10
f 10 23 24
f 10 24 25
f 10 25 26
f 10 26 27
f 10 27 28
f 10 28 29
f 10 29 30
f 10 30 11
f 11 30 12
f 12 30 29
f 12 29 31
f 12 31 32
f 12 32 33
f 12 33 34
f 12 34 35
f 12 35 36
f 12 36 13
f 13 36 37
f 13 37 14
f 14 37 15
f 15 38 16
f 15 37 39
f 15 39 40
f 15 40 41
f 15 41 38
f 16 42 43
f 16 43 17
f 16 38 44
f 16 44 42
f 17 43 45
f 17 45 20
f 17 20 18
f 19 21 46
f 20 45 21
f 21 45 47
f 21 47 48
f 21 48 49
f 21 49 50
f 21 50 51
f 21 51 52
f 21 52 53
f 21 53 54
f 21 54 55
f 21 55 46
f 22 56 75
f 22 75 55
f 22 55 54
f 22 54 53
f 22 53 52
f 22 52 51
f 22 51 50
f 22 50 49
f 22 49 48
f 22 48 76
f 22 76 102
f 22 102 129
f 22 129 162
f 22 162 185
f 22 185 184
f 22 184 186
f 22 186 166
f 22 166 165
f 22 165 163
f 22 163 130
f 22 130 103
f 22 103 78
f 22 78 77
f 22 77 57
f 22 57 24
f 22 24 23
f 24 57 58
f 24 58 25
f 25 58 26
f 26 58 27
f 27 58 59
f 27 59 28
f 28 59 29
f 29 59 60
f 29 60 31
f 31 60 61
f 31 61 32
f 32 61 62
f 32 62 63
f 32 63 64
f 32 64 65
f 32 65 66
f 32 66 33
f 33 66 34
f 34 67 68
f 34 68 39
f 34 39 35
f 34 66 65
f 34 65 67
f 35 39 37
f 35 37 36
f 38 41 44
f 39 68 69
f 39 69 40
f 40 69 41
f 41 70 44
f 41 69 71
f 41 71 70
f 42 72 73
f 42 73 45
f 42 45 43
f 42 44 72
f 44 74 72
f 44 70 74
f 45 73 47
f 46 55 75
f 46 75 56
f 47 73 48
f 48 73 76
f 57 77 58
f 58 77 78
f 58 78 79
f 58 79 80
f 58 80 81
f 58 81 82
f 58 82 83
f 58 83 60
f 58 60 59
f 60 83 84
f 60 84 85
f 60 85 61
f 61 85 62
f 62 85 63
f 63 86 87
f 63 87 64
f 63 85 88
f 63 88 89
f 63 89 90
f 63 90 86
f 64 87 65
f 65 87 86
f 65 86 91
f 65 91 92
f 65 92 93
f 65 93 94
f 65 94 69
f 65 69 67
f 67 69 68
f 69 94 71
f 70 71 95
f 70 95 96
f 70 96 97
f 70 97 74
f 71 94 93
f 71 93 95
f 72 74 98
f 72 98 73
f 73 98 99
f 73 99 100
f 73 100 101
f 73 101 76
f 74 97 98
f 76 101 102
f 78 103 80
f 78 80 79
f 80 103 81
f 81 103 104
f 81 104 105
f 81 105 106
f 81 106 107
f 81 107 108
f 81 108 109
f 81 109 110
f 81 110 82
f 82 110 83
f 83 110 111
f 83 111 112
f 83 112 84
f 84 112 85
f 85 112 113
f 85 113 114
f 85 114 88
f 86 90 115
f 86 115 91
f 88 116 89
f 88 114 116
f 89 116 90
f 90 116 117
f 90 117 115
f 91 115 118
f 91 118 119
f 91 119 120
f 91 120 93
f 91 93 92
f 93 120 119
f 93 119 121
f 93 121 95
f 95 122 96
f 95 121 122
f 96 122 123
f 96 123 124
f 96 124 97
f 97 124 125
f 97 125 126
f 97 126 98
f 98 127 99
f 98 126 128
f 98 128 127
f 99 127 100
f 100 127 101
f 101 127 102
f 102 127 129
f 103 130 104
f 104 130 131
f 104 131 105
f 105 132 106
f 105 131 133
f 105 133 132
f 106 132 134
f 106 134 107
f 107 134 135
f 107 135 108
f 108 135 136
f 108 136 137
f 108 137 138
f 108 138 139
f 108 139 109
f 109 140 110
f 109 139 141
f 109 141 140
f 110 141 142
f 110 142 111
f 110 140 141
f 111 142 141
f 111 141 112
f 112 141 113
f 113 141 114
f 114 141 143
f 114 143 116
f 115 117 144
f 115 144 119
f 115 119 118
f 116 145 117
f 116 143 139
f 116 139 146
f 116 146 138
f 116 138 147
f 116 147 145
f 117 145 148
f 117 148 149
f 117 149 144
f 119 144 149
f 119 149 150
f 119 150 151
f 119 151 152
f 119 152 153
f 119 153 121
f 121 153 122
f 122 153 123
f 123 153 152
f 123 152 151
f 123 151 128
f 123 128 125
f 123 125 124
f 125 128 126
f 127 128 154
f 127 154 155
f 127 155 156
f 127 156 157
f 127 157 158
f 127 158 159
f 127 159 129
f 128 160 154
f 128 151 161
f 128 161 160
f 129 159 162
f 130 163 164
f 130 164 131
f 131 165 166
f 131 166 167
f 131 167 168
f 131 168 134
f 131 134 133
f 131 164 165
f 132 133 134
f 134 168 169
f 134 169 170
f 134 170 171
f 134 171 172
f 134 172 173
f 134 173 174
f 134 174 135
f 135 174 175
f 135 175 176
f 135 176 177
f 135 177 136
f 136 147 137
f 136 177 178
f 136 178 145
f 136 145 147
f 137 147 138
f 138 146 139
f 139 143 141
f 145 178 148
f 148 178 179
f 148 179 149
f 149 179 180
f 149 180 150
f 150 180 179
f 150 179 151
f 151 179 176
f 151 176 161
f 154 160 156
f 154 156 155
f 156 160 174
f 156 174 173
f 156 173 181
f 156 181 159
f 156 159 158
f 156 158 157
f 159 181 170
f 159 170 182
f 159 182 183
f 159 183 184
f 159 184 185
f 159 185 162
f 160 161 174
f 161 176 174
f 163 165 164
f 166 186 167
f 167 186 168
f 168 186 183
f 168 183 182
f 168 182 169
f 169 182 170
f 170 181 171
f 171 181 172
f 172 181 173
f 174 176 175
f 176 179 178
f 176 178 177
f 183 186 184
