v -0.029282 0.017420 0.048440
v -0.029599 0.019019 0.048234
v -0.031214 0.017944 0.047302
v -0.029404 0.015776 0.048299
v -0.029284 0.009441 0.046731
v -0.029282 0.004883 0.043926
v -0.029282 0.026589 0.046224
v -0.029443 0.023120 0.047521
v -0.030140 0.020588 0.047706
v -0.032742 0.015319 0.045962
v -0.030935 0.015359 0.047285
v -0.032180 0.019632 0.046430
v -0.034285 0.018544 0.044630
v -0.029826 0.013773 0.047719
v -0.029690 0.011498 0.047186
v -0.032264 0.011432 0.045232
v -0.029401 0.007722 0.045833
v -0.029786 0.006634 0.044751
v -0.038240 -0.001576 0.029721
v -0.029282 0.002431 0.041770
v -0.029282 0.028988 0.045141
v -0.030174 0.024350 0.046572
v -0.030953 0.022724 0.046611
v -0.031608 0.021316 0.046529
v -0.034523 0.014270 0.044175
v -0.033016 0.013457 0.045365
v -0.031232 0.013093 0.046602
v -0.035420 0.016447 0.043509
v -0.033221 0.020165 0.045425
v -0.034808 0.019788 0.043831
v -0.033441 0.010525 0.043617
v -0.034073 0.012640 0.044162
v -0.038243 -0.001958 0.026706
v -0.037363 -0.003389 0.028231
v -0.035601 -0.004650 0.029313
v -0.029282 0.000241 0.039781
v -0.035406 0.012711 0.042487
v -0.038882 -0.000017 0.029700
v -0.032601 0.025541 0.044038
v -0.031470 0.024879 0.045369
v -0.029282 0.035283 0.040262
v -0.029322 0.030770 0.044162
v -0.032433 0.022422 0.045507
v -0.035913 0.014928 0.042616
v -0.037016 0.017971 0.041207
v -0.036967 0.015856 0.041190
v -0.036141 0.019530 0.042178
v -0.033886 0.021196 0.044506
v -0.034861 0.022262 0.043028
v -0.036923 -0.003602 0.026358
v -0.040452 0.011658 0.025670
v -0.039228 0.006776 0.022032
v -0.038787 0.006669 0.020383
v -0.036344 0.006785 0.015039
v -0.034994 0.005852 0.013463
v -0.035435 -0.004788 0.026332
v -0.034093 -0.005508 0.028295
v -0.029282 -0.002331 0.036083
v -0.029282 -0.001119 0.038247
v -0.036265 0.012587 0.041091
v -0.037578 0.014253 0.039368
v -0.038611 0.016842 0.038144
v -0.039096 0.017167 0.036714
v -0.039820 0.011965 0.031684
v -0.040698 0.012969 0.028063
v -0.033592 0.026141 0.042659
v -0.034169 0.024648 0.042818
v -0.033384 0.023093 0.044377
v -0.029282 0.036692 0.038789
v -0.031340 0.033178 0.039725
v -0.030776 0.032293 0.041383
v -0.029727 0.032382 0.042538
v -0.033377 0.028011 0.041645
v -0.037938 0.016954 0.039600
v -0.036823 0.020294 0.041027
v -0.038187 0.018953 0.039025
v -0.035479 0.023648 0.041598
v -0.032867 0.002622 0.013755
v -0.029696 0.001618 0.011049
v -0.029488 -0.001514 0.014923
v -0.041017 0.016434 0.025421
v -0.040577 0.014923 0.023755
v -0.039660 0.012262 0.020825
v -0.039254 0.011138 0.019657
v -0.038824 0.009841 0.018703
v -0.037865 0.010961 0.015314
v -0.036927 0.011671 0.012853
v -0.035447 0.007726 0.012673
v -0.033689 0.007482 0.010151
v -0.032709 0.005585 0.010508
v -0.029312 -0.002656 0.016586
v -0.029286 -0.003375 0.018197
v -0.029282 -0.004899 0.022887
v -0.029282 -0.005103 0.025520
v -0.029282 -0.004944 0.028127
v -0.029282 -0.004704 0.029639
v -0.038898 0.018619 0.037332
v -0.039477 0.019219 0.035107
v -0.041079 0.016696 0.027406
v -0.034883 0.026492 0.040726
v -0.035400 0.025057 0.040928
v -0.029282 0.038664 0.035657
v -0.029319 0.037984 0.037062
v -0.032615 0.032747 0.038174
v -0.033000 0.031649 0.038844
v -0.033181 0.030437 0.039828
v -0.034530 0.028255 0.039850
v -0.038115 0.022094 0.038015
v -0.038281 0.020490 0.038338
v -0.036755 0.022351 0.040301
v -0.036344 0.024199 0.039970
v -0.029282 0.002458 0.009679
v -0.041019 0.018215 0.026233
v -0.039986 0.018797 0.021504
v -0.040387 0.016811 0.022707
v -0.038372 0.014173 0.015602
v -0.038723 0.011467 0.017599
v -0.038166 0.012542 0.015370
v -0.037542 0.013524 0.013562
v -0.036584 0.013342 0.011706
v -0.036136 0.011925 0.011371
v -0.035015 0.009224 0.010912
v -0.031571 0.005607 0.009266
v -0.033979 0.009290 0.009464
v -0.031651 0.008970 0.007432
v -0.038992 0.020463 0.036516
v -0.039563 0.021432 0.034124
v -0.039980 0.020814 0.032517
v -0.039973 0.022556 0.031418
v -0.036356 0.027189 0.037818
v -0.029430 0.039877 0.023557
v -0.029770 0.039499 0.030344
v -0.029837 0.039046 0.032629
v -0.030700 0.037647 0.034072
v -0.029282 0.034261 0.012458
v -0.033717 0.033973 0.033729
v -0.035177 0.030970 0.035662
v -0.033933 0.031831 0.036989
v -0.034908 0.029841 0.037693
v -0.037596 0.023613 0.038166
v -0.038507 0.024790 0.035404
v -0.038888 0.022720 0.035838
v -0.037519 0.025985 0.036619
v -0.029296 0.005172 0.007703
v -0.029303 0.025265 0.006230
v -0.040002 0.023799 0.027221
v -0.039801 0.023342 0.023931
v -0.038854 0.019632 0.017947
v -0.038569 0.018166 0.016573
v -0.039288 0.023422 0.021581
v -0.037975 0.015607 0.014442
v -0.036725 0.014994 0.011831
v -0.035848 0.013755 0.010430
v -0.035092 0.010814 0.010263
v -0.029807 0.007842 0.006552
v -0.034455 0.012311 0.008953
v -0.032506 0.011423 0.007269
v -0.029659 0.010330 0.005426
v -0.039460 0.023177 0.033522
v -0.038940 0.025528 0.033016
v -0.039754 0.024293 0.030009
v -0.036371 0.028375 0.036598
v -0.029498 0.039139 0.019743
v -0.030075 0.038975 0.021581
v -0.031703 0.037353 0.022500
v -0.030868 0.038375 0.024047
v -0.032451 0.036736 0.027011
v -0.033434 0.035479 0.028274
v -0.033855 0.034790 0.029670
v -0.034034 0.034359 0.031160
v -0.034590 0.033297 0.032603
v -0.029300 0.027842 0.007630
v -0.029715 0.030645 0.009967
v -0.031167 0.030716 0.011753
v -0.030912 0.034310 0.014515
v -0.029663 0.035501 0.013996
v -0.029587 0.036714 0.015224
v -0.035091 0.032022 0.033913
v -0.036336 0.029530 0.035013
v -0.037626 0.027411 0.034717
v -0.029648 0.015528 0.004559
v -0.029371 0.023377 0.005534
v -0.030600 0.022702 0.006337
v -0.031722 0.023222 0.007634
v -0.030221 0.026412 0.007699
v -0.039124 0.026118 0.029678
v -0.039184 0.026025 0.025370
v -0.038548 0.025687 0.021104
v -0.037836 0.018575 0.014777
v -0.038112 0.022258 0.017140
v -0.037552 0.025825 0.018115
v -0.037164 0.018095 0.013098
v -0.037008 0.016385 0.012449
v -0.034949 0.014617 0.009086
v -0.033896 0.014315 0.007810
v -0.031684 0.013906 0.006071
v -0.030616 0.012178 0.005611
v -0.029690 0.013200 0.004812
v -0.038115 0.027522 0.032681
v -0.029973 0.037642 0.017385
v -0.031299 0.037207 0.019992
v -0.032891 0.035856 0.022002
v -0.033861 0.034857 0.023540
v -0.033571 0.035385 0.025937
v -0.035199 0.033053 0.028123
v -0.035741 0.031769 0.031972
v -0.036859 0.029650 0.033054
v -0.030381 0.028082 0.008863
v -0.033259 0.028215 0.012363
v -0.032293 0.031449 0.013811
v -0.032754 0.032516 0.015473
v -0.031519 0.036007 0.017844
v -0.033374 0.032778 0.016895
v -0.029690 0.018593 0.004675
v -0.029721 0.021254 0.005147
v -0.031446 0.020827 0.006509
v -0.032598 0.021774 0.007978
v -0.033102 0.024053 0.009507
v -0.032070 0.025034 0.008880
v -0.038019 0.028073 0.031173
v -0.037780 0.029073 0.026246
v -0.038338 0.027913 0.025404
v -0.038128 0.027584 0.022294
v -0.037434 0.027296 0.019335
v -0.036942 0.019872 0.013347
v -0.037247 0.023031 0.015469
v -0.037017 0.024728 0.015984
v -0.036748 0.026540 0.016727
v -0.035391 0.021698 0.011418
v -0.034229 0.022027 0.009898
v -0.033565 0.020739 0.008755
v -0.031944 0.019179 0.006543
v -0.036794 0.030241 0.031259
v -0.032851 0.035074 0.019468
v -0.033577 0.034644 0.020782
v -0.034442 0.033702 0.021800
v -0.037005 0.030441 0.025670
v -0.035892 0.032142 0.026289
v -0.035951 0.031836 0.028995
v -0.035395 0.025976 0.013820
v -0.034451 0.028446 0.014240
v -0.034550 0.023333 0.010933
v -0.033786 0.031347 0.015976
v -0.033463 0.033653 0.018304
v -0.035624 0.030001 0.018098
v -0.034309 0.032285 0.018214
v -0.037039 0.029921 0.022797
v -0.036955 0.028899 0.019988
v -0.036359 0.030583 0.021126
v -0.036805 0.022169 0.014082
v -0.035947 0.023573 0.013171
v -0.035649 0.028917 0.016839
v -0.035703 0.027407 0.015417
v -0.034495 0.033040 0.020001
v -0.035448 0.031871 0.020628
v -0.035886 0.030623 0.019545
f 1 2 3
f 1 3 4
f 1 4 5
f 1 5 6
f 1 6 20
f 1 20 36
f 1 36 59
f 1 59 58
f 1 58 96
f 1 96 95
f 1 95 94
f 1 94 93
f 1 93 112
f 1 112 135
f 1 135 102
f 1 102 69
f 1 69 41
f 1 41 21
f 1 21 7
f 1 7 8
f 1 8 2
f 2 9 3
f 2 8 9
f 3 10 11
f 3 11 4
f 3 9 12
f 3 12 13
f 3 13 10
f 4 11 14
f 4 14 15
f 4 15 5
f 5 15 16
f 5 16 17
f 5 17 6
f 6 17 18
f 6 18 19
f 6 19 20
f 7 21 22
f 7 22 8
f 8 22 23
f 8 23 9
f 9 24 12
f 9 23 24
f 10 25 26
f 10 26 27
f 10 27 11
f 10 13 28
f 10 28 25
f 11 27 14
f 12 24 29
f 12 29 13
f 13 29 30
f 13 30 28
f 14 27 15
f 15 27 16
f 16 31 17
f 16 27 26
f 16 26 32
f 16 32 31
f 17 31 18
f 18 31 19
f 19 33 34
f 19 34 35
f 19 35 36
f 19 36 20
f 19 31 32
f 19 32 37
f 19 37 38
f 19 38 33
f 21 39 40
f 21 40 22
f 21 41 42
f 21 42 39
f 22 40 23
f 23 40 43
f 23 43 24
f 24 43 29
f 25 28 44
f 25 44 37
f 25 37 32
f 25 32 26
f 28 45 46
f 28 46 44
f 28 30 47
f 28 47 45
f 29 43 48
f 29 48 30
f 30 48 49
f 30 49 47
f 33 50 34
f 33 38 51
f 33 51 52
f 33 52 53
f 33 53 54
f 33 54 55
f 33 55 50
f 34 50 56
f 34 56 35
f 35 56 57
f 35 57 58
f 35 58 59
f 35 59 36
f 37 60 38
f 37 44 60
f 38 60 61
f 38 61 62
f 38 62 63
f 38 63 64
f 38 64 65
f 38 65 51
f 39 42 66
f 39 66 67
f 39 67 68
f 39 68 40
f 40 68 43
f 41 69 70
f 41 70 71
f 41 71 72
f 41 72 42
f 42 72 73
f 42 73 66
f 43 68 48
f 44 46 60
f 45 74 46
f 45 47 75
f 45 75 76
f 45 76 74
f 46 74 61
f 46 61 60
f 47 49 75
f 48 68 49
f 49 68 67
f 49 67 77
f 49 77 75
f 50 55 78
f 50 78 79
f 50 79 80
f 50 80 56
f 51 65 81
f 51 81 82
f 51 82 52
f 52 82 83
f 52 83 84
f 52 84 85
f 52 85 53
f 53 85 86
f 53 86 54
f 54 86 87
f 54 87 88
f 54 88 55
f 55 88 89
f 55 89 90
f 55 90 78
f 56 80 91
f 56 91 92
f 56 92 93
f 56 93 57
f 57 94 95
f 57 95 96
f 57 96 58
f 57 93 94
f 61 74 62
f 62 74 76
f 62 76 97
f 62 97 63
f 63 97 98
f 63 98 99
f 63 99 65
f 63 65 64
f 65 99 81
f 66 73 100
f 66 100 67
f 67 101 77
f 67 100 101
f 69 102 103
f 69 103 104
f 69 104 70
f 70 104 105
f 70 105 106
f 70 106 71
f 71 106 73
f 71 73 72
f 73 107 100
f 73 106 107
f 75 108 109
f 75 109 76
f 75 77 110
f 75 110 108
f 76 109 97
f 77 101 111
f 77 111 110
f 78 90 112
f 78 112 79
f 79 112 80
f 80 112 91
f 81 99 113
f 81 113 114
f 81 114 115
f 81 115 82
f 82 115 116
f 82 116 83
f 83 117 84
f 83 116 117
f 84 117 85
f 85 117 118
f 85 118 86
f 86 118 87
f 87 118 119
f 87 119 120
f 87 120 121
f 87 121 122
f 87 122 88
f 88 122 89
f 89 123 90
f 89 122 124
f 89 124 125
f 89 125 123
f 90 123 112
f 91 112 92
f 92 112 93
f 97 109 126
f 97 126 98
f 98 126 127
f 98 127 128
f 98 128 99
f 99 128 129
f 99 129 113
f 100 107 130
f 100 130 101
f 101 130 111
f 102 131 132
f 102 132 133
f 102 133 134
f 102 134 103
f 102 135 131
f 103 134 136
f 103 136 137
f 103 137 138
f 103 138 104
f 104 138 105
f 105 138 139
f 105 139 106
f 106 139 107
f 107 139 130
f 108 110 140
f 108 140 141
f 108 141 142
f 108 142 109
f 109 142 126
f 110 111 140
f 111 130 143
f 111 143 140
f 112 123 144
f 112 144 145
f 112 145 135
f 113 129 146
f 113 146 147
f 113 147 114
f 114 148 149
f 114 149 115
f 114 147 150
f 114 150 148
f 115 149 116
f 116 119 118
f 116 118 117
f 116 149 151
f 116 151 119
f 119 151 152
f 119 152 120
f 120 152 153
f 120 153 121
f 121 154 122
f 121 153 154
f 122 154 124
f 123 125 155
f 123 155 144
f 124 154 156
f 124 156 157
f 124 157 125
f 125 157 158
f 125 158 155
f 126 142 127
f 127 142 159
f 127 159 128
f 128 159 129
f 129 159 160
f 129 160 161
f 129 161 146
f 130 139 162
f 130 162 143
f 131 163 164
f 131 164 165
f 131 165 166
f 131 166 167
f 131 167 132
f 131 135 163
f 132 167 168
f 132 168 169
f 132 169 170
f 132 170 133
f 133 170 134
f 134 170 171
f 134 171 136
f 135 145 172
f 135 172 173
f 135 173 174
f 135 174 175
f 135 175 176
f 135 176 177
f 135 177 163
f 136 171 178
f 136 178 137
f 137 179 162
f 137 162 139
f 137 139 138
f 137 178 179
f 140 143 141
f 141 159 142
f 141 143 180
f 141 180 160
f 141 160 159
f 143 162 180
f 144 155 158
f 144 158 181
f 144 181 182
f 144 182 145
f 145 182 183
f 145 183 184
f 145 184 185
f 145 185 172
f 146 161 186
f 146 186 187
f 146 187 147
f 147 187 188
f 147 188 150
f 148 189 149
f 148 150 190
f 148 190 189
f 149 189 151
f 150 188 191
f 150 191 190
f 151 189 192
f 151 192 193
f 151 193 152
f 152 194 153
f 152 193 194
f 153 194 156
f 153 156 154
f 156 194 195
f 156 195 157
f 157 195 196
f 157 196 197
f 157 197 158
f 158 197 198
f 158 198 181
f 160 180 199
f 160 199 186
f 160 186 161
f 162 179 180
f 163 177 200
f 163 200 201
f 163 201 164
f 164 201 165
f 165 167 166
f 165 201 202
f 165 202 203
f 165 203 204
f 165 204 167
f 167 204 168
f 168 204 205
f 168 205 169
f 169 205 170
f 170 205 206
f 170 206 171
f 171 206 207
f 171 207 178
f 172 185 208
f 172 208 173
f 173 208 209
f 173 209 174
f 174 210 175
f 174 209 210
f 175 177 176
f 175 210 211
f 175 211 177
f 177 212 200
f 177 211 213
f 177 213 212
f 178 207 179
f 179 207 180
f 180 207 199
f 181 196 214
f 181 214 182
f 181 198 196
f 182 214 215
f 182 215 183
f 183 215 216
f 183 216 217
f 183 217 184
f 184 218 219
f 184 219 185
f 184 217 218
f 185 219 208
f 186 199 220
f 186 220 221
f 186 221 222
f 186 222 187
f 187 222 223
f 187 223 188
f 188 223 224
f 188 224 191
f 189 225 192
f 189 190 226
f 189 226 225
f 190 191 227
f 190 227 226
f 191 224 228
f 191 228 227
f 192 225 229
f 192 229 193
f 193 229 194
f 194 229 230
f 194 230 231
f 194 231 232
f 194 232 195
f 195 232 214
f 195 214 196
f 196 198 197
f 199 207 233
f 199 233 220
f 200 212 201
f 201 212 234
f 201 234 235
f 201 235 202
f 202 235 236
f 202 236 203
f 203 236 237
f 203 237 238
f 203 238 204
f 204 238 205
f 205 238 239
f 205 239 206
f 206 239 233
f 206 233 207
f 208 219 209
f 209 240 241
f 209 241 210
f 209 219 218
f 209 218 242
f 209 242 240
f 210 241 211
f 211 241 243
f 211 243 213
f 212 213 244
f 212 244 234
f 213 243 245
f 213 245 246
f 213 246 244
f 214 232 215
f 215 232 216
f 216 232 217
f 217 232 231
f 217 231 230
f 217 230 218
f 218 230 242
f 220 233 221
f 221 233 237
f 221 237 222
f 222 237 247
f 222 247 223
f 223 248 224
f 223 247 249
f 223 249 248
f 224 248 228
f 225 226 250
f 225 250 251
f 225 251 229
f 226 227 250
f 227 251 250
f 227 228 251
f 228 248 252
f 228 252 253
f 228 253 240
f 228 240 251
f 229 251 242
f 229 242 230
f 233 239 237
f 234 244 254
f 234 254 235
f 235 254 255
f 235 255 236
f 236 255 249
f 236 249 247
f 236 247 237
f 237 239 238
f 240 253 241
f 240 242 251
f 241 253 252
f 241 252 243
f 243 252 245
f 244 246 256
f 244 256 254
f 245 256 246
f 245 252 248
f 245 248 256
f 248 249 256
f 249 255 256
f 254 256 255
