v -0.027820 -0.069250 0.007800
v -0.028372 -0.069848 0.007800
v -0.027820 -0.069848 0.007874
v -0.027154 -0.069848 0.007914
v -0.027154 -0.069253 0.007800
v -0.028462 -0.070514 0.007800
v -0.027820 -0.070514 0.007921
v -0.026646 -0.069340 0.007800
v -0.025498 -0.071492 0.008103
v -0.025475 -0.071492 0.008103
v -0.025158 -0.069692 0.007800
v -0.028461 -0.071179 0.007800
v -0.027820 -0.071179 0.007929
v -0.025498 -0.071523 0.008103
v -0.025475 -0.071523 0.008103
v -0.024163 -0.070850 0.007800
v -0.024190 -0.070514 0.007800
v -0.024214 -0.070235 0.007800
v -0.024570 -0.069926 0.007800
v -0.025038 -0.069729 0.007800
v -0.028367 -0.071726 0.007800
v -0.028224 -0.072249 0.007800
v -0.027820 -0.071844 0.007888
v -0.027154 -0.071844 0.007962
v -0.027154 -0.072510 0.007878
v -0.027533 -0.072889 0.007800
v -0.026919 -0.072941 0.007800
v -0.025823 -0.072755 0.007800
v -0.025164 -0.072434 0.007800
v -0.025215 -0.071785 0.007982
v -0.024520 -0.071842 0.007800
v -0.024235 -0.071179 0.007800
v -0.026488 -0.072905 0.007800
v -0.027907 -0.072597 0.007800
f 1 2 3
f 1 3 4
f 1 4 5
f 1 5 8
f 1 8 11
f 1 11 20
f 1 20 19
f 1 19 18
f 1 18 17
f 1 17 16
f 1 16 32
f 1 32 31
f 1 31 29
f 1 29 28
f 1 28 33
f 1 33 27
f 1 27 26
f 1 26 34
f 1 34 22
f 1 22 21
f 1 21 12
f 1 12 6
f 1 6 2
f 2 6 7
f 2 7 3
f 3 7 4
f 4 8 5
f 4 7 9
f 4 9 10
f 4 10 11
f 4 11 8
f 6 12 13
f 6 13 7
f 7 13 9
f 9 14 15
f 9 15 10
f 9 13 14
f 10 15 16
f 10 16 17
f 10 17 18
f 10 18 19
f 10 19 20
f 10 20 11
f 12 21 13
f 13 21 22
f 13 22 23
f 13 23 24
f 13 24 14
f 14 24 25
f 14 25 26
f 14 26 27
f 14 27 15
f 15 28 29
f 15 29 30
f 15 30 31
f 15 31 32
f 15 32 16
f 15 27 33
f 15 33 28
f 22 34 23
f 23 34 24
f 24 34 26
f 24 26 25
f 29 31 30
