v -0.004993 -0.094495 0.061523
v -0.004993 -0.091644 0.061523
v -0.004993 -0.091244 0.040593
v -0.004942 -0.093990 0.040593
v -0.003988 -0.094095 0.061523
v 0.010625 -0.086288 0.065428
v 0.010238 -0.086109 0.065823
v 0.009531 -0.086048 0.066132
v 0.008832 -0.086053 0.066247
v 0.007548 -0.086288 0.066224
v 0.006980 -0.086288 0.066132
v 0.006417 -0.086288 0.066029
v 0.005905 -0.086288 0.065886
v 0.011009 -0.067480 0.063836
v 0.010861 -0.067480 0.063000
v 0.010782 -0.067480 0.062336
v -0.004993 -0.091591 0.061001
v 0.004933 -0.086288 0.065479
v 0.012613 -0.067480 0.065800
v 0.012007 -0.067480 0.065405
v 0.011560 -0.067480 0.064930
v 0.011229 -0.067480 0.064431
v -0.004993 -0.091575 0.060337
v 0.010471 -0.067477 0.040593
v -0.000798 -0.087978 0.007805
v -0.000665 -0.091252 0.007805
v -0.000745 -0.091398 0.008538
v -0.000798 -0.091490 0.009735
v -0.003336 -0.093804 0.061523
v 0.011022 -0.086214 0.064958
v 0.011242 -0.085373 0.065451
v 0.010737 -0.085762 0.065634
v 0.011203 -0.086288 0.064323
v 0.011595 -0.083821 0.065892
v 0.010190 -0.085387 0.066086
v 0.010113 -0.084487 0.066241
v 0.009446 -0.085154 0.066269
v 0.009446 -0.084487 0.066304
v 0.008167 -0.086053 0.066264
v 0.008784 -0.085154 0.066287
v 0.014626 -0.067480 0.066264
v 0.013962 -0.067480 0.066212
v 0.013253 -0.067480 0.066063
v 0.010741 -0.067477 0.061580
v 0.010719 -0.067477 0.060709
v 0.010704 -0.067477 0.060045
v 0.008464 -0.075157 0.007805
v 0.012981 -0.067477 0.040593
v 0.000085 -0.090782 0.007805
v -0.000015 -0.090932 0.008441
v -0.000650 -0.091379 0.009111
v -0.002820 -0.093553 0.061523
v 0.011329 -0.086288 0.063000
v -0.001447 -0.092850 0.061523
v 0.012473 -0.084207 0.064512
v 0.011822 -0.084572 0.065370
v 0.012109 -0.083771 0.065519
v 0.011292 -0.086288 0.063664
v 0.011682 -0.085664 0.063750
v 0.012343 -0.082282 0.065937
v 0.011959 -0.082488 0.066075
v 0.010782 -0.084450 0.066081
v 0.012789 -0.082456 0.065537
v 0.011445 -0.082488 0.066224
v 0.011445 -0.081822 0.066275
v 0.010778 -0.082488 0.066298
v 0.012109 -0.079830 0.066304
v 0.012774 -0.077836 0.066304
v 0.014106 -0.073843 0.066275
v 0.014772 -0.070516 0.066241
v 0.015522 -0.067480 0.066126
v 0.013349 -0.067477 0.061580
v 0.011510 -0.075184 0.007805
v 0.013110 -0.067477 0.045959
v 0.017270 -0.067480 0.063149
v 0.017178 -0.067480 0.062484
v 0.002016 -0.089399 0.007805
v 0.001020 -0.090176 0.008023
v 0.000017 -0.090959 0.009111
v 0.002083 -0.089433 0.008441
v 0.002809 -0.088819 0.008441
v 0.003526 -0.088198 0.008441
v 0.004042 -0.087717 0.008441
v 0.004530 -0.087225 0.008441
v 0.005175 -0.086534 0.008441
v 0.005694 -0.086043 0.009111
v 0.005951 -0.085667 0.008441
v 0.006572 -0.084956 0.008441
v 0.007049 -0.084408 0.008441
v 0.007289 -0.084011 0.007805
v 0.007631 -0.083636 0.008441
v 0.008424 -0.082353 0.008441
v 0.011693 -0.085680 0.062908
v 0.012011 -0.085154 0.063000
v 0.011998 -0.085154 0.063664
v 0.013149 -0.082737 0.064930
v 0.013118 -0.083176 0.064328
v 0.012504 -0.083334 0.065388
v 0.012746 -0.081840 0.065800
v 0.013663 -0.079196 0.066000
v 0.012556 -0.081396 0.066052
v 0.012151 -0.081840 0.066115
v 0.013175 -0.082017 0.065399
v 0.012109 -0.081161 0.066224
v 0.012109 -0.080497 0.066281
v 0.012774 -0.078503 0.066298
v 0.014106 -0.074509 0.066269
v 0.014772 -0.072513 0.066218
v 0.015583 -0.070426 0.066046
v 0.016167 -0.067480 0.065823
v 0.013160 -0.067477 0.049028
v 0.011048 -0.076641 0.007805
v 0.011584 -0.075157 0.008441
v 0.011377 -0.075840 0.008441
v 0.011140 -0.076593 0.008441
v 0.017239 -0.067668 0.063664
v 0.017224 -0.068519 0.063664
v 0.017237 -0.068519 0.063000
v 0.017087 -0.067715 0.064546
v 0.002774 -0.088790 0.007805
v 0.003317 -0.088317 0.007805
v 0.003826 -0.087828 0.007805
v 0.004482 -0.087172 0.007805
v 0.005134 -0.086476 0.007805
v 0.006847 -0.084551 0.007805
v 0.007819 -0.083200 0.007805
v 0.008374 -0.082298 0.007863
v 0.008730 -0.081827 0.008441
v 0.012325 -0.084612 0.063000
v 0.013145 -0.083221 0.063664
v 0.013500 -0.082488 0.064328
v 0.013820 -0.081758 0.064546
v 0.014539 -0.079830 0.064844
v 0.013556 -0.082488 0.063664
v 0.014003 -0.079830 0.065537
v 0.014110 -0.079182 0.065674
v 0.014611 -0.077217 0.065846
v 0.014317 -0.076506 0.066115
v 0.013441 -0.078503 0.066178
v 0.012802 -0.080491 0.066109
v 0.012774 -0.079830 0.066212
v 0.014520 -0.079172 0.065285
v 0.013875 -0.080383 0.065428
v 0.012774 -0.079169 0.066258
v 0.013441 -0.077836 0.066229
v 0.013441 -0.077170 0.066264
v 0.014106 -0.075176 0.066252
v 0.014772 -0.073843 0.066166
v 0.015003 -0.073176 0.066138
v 0.015276 -0.072513 0.066081
v 0.015607 -0.072513 0.065892
v 0.016034 -0.069900 0.065817
v 0.016108 -0.069186 0.065800
v 0.016557 -0.069186 0.065468
v 0.016588 -0.067668 0.065491
v 0.010859 -0.077170 0.007805
v 0.010939 -0.077170 0.008441
v 0.017209 -0.069186 0.063000
v 0.017174 -0.069850 0.063000
v 0.017108 -0.070458 0.062794
v 0.016967 -0.071846 0.063000
v 0.016864 -0.072513 0.063000
v 0.016753 -0.073176 0.063000
v 0.016636 -0.073843 0.063000
v 0.016457 -0.074790 0.062960
v 0.015977 -0.076506 0.063000
v 0.015648 -0.077596 0.063000
v 0.015354 -0.078503 0.063000
v 0.017115 -0.068519 0.064408
v 0.017191 -0.069186 0.063664
v 0.017100 -0.069186 0.064328
v 0.017089 -0.069823 0.064197
v 0.016886 -0.068519 0.064993
v 0.009745 -0.079793 0.007805
v 0.009211 -0.080811 0.007868
v 0.009109 -0.081150 0.008441
v 0.013131 -0.083194 0.063000
v 0.013835 -0.081951 0.063664
v 0.014221 -0.081161 0.063664
v 0.014147 -0.081161 0.064328
v 0.014489 -0.080280 0.064517
v 0.015043 -0.078400 0.064867
v 0.013827 -0.081925 0.063000
v 0.014591 -0.078503 0.065479
v 0.015058 -0.074977 0.065972
v 0.014611 -0.075840 0.066075
v 0.015167 -0.077046 0.065388
v 0.015241 -0.076506 0.065468
v 0.015136 -0.075840 0.065720
v 0.014106 -0.075840 0.066224
v 0.015158 -0.074089 0.066023
v 0.015566 -0.073176 0.065846
v 0.016104 -0.071182 0.065657
v 0.016104 -0.070516 0.065720
v 0.016535 -0.069850 0.065439
v 0.016819 -0.069850 0.064993
v 0.016856 -0.069186 0.064993
v 0.010680 -0.077836 0.008441
v 0.010434 -0.078273 0.007840
v 0.010035 -0.079196 0.007805
v 0.015110 -0.079188 0.063000
v 0.017143 -0.069913 0.063727
v 0.017069 -0.071074 0.063406
v 0.016967 -0.071846 0.063664
v 0.016860 -0.072513 0.063664
v 0.016738 -0.073176 0.063664
v 0.016603 -0.073843 0.063664
v 0.016450 -0.074568 0.063664
v 0.016309 -0.075176 0.063664
v 0.016141 -0.075840 0.063664
v 0.015956 -0.076506 0.063664
v 0.015766 -0.077157 0.063664
v 0.015550 -0.077836 0.063664
v 0.016938 -0.071182 0.064328
v 0.017054 -0.070431 0.064128
v 0.009793 -0.079859 0.008441
v 0.009464 -0.080502 0.008441
v 0.014496 -0.080626 0.063000
v 0.014487 -0.080605 0.063664
v 0.014711 -0.079830 0.064328
v 0.014820 -0.079830 0.063664
v 0.015422 -0.077836 0.064328
v 0.015818 -0.076310 0.064746
v 0.015478 -0.075131 0.065571
v 0.015703 -0.073843 0.065622
v 0.015775 -0.075840 0.065015
v 0.015725 -0.075324 0.065273
v 0.015801 -0.074694 0.065365
v 0.015962 -0.073176 0.065514
v 0.016025 -0.072513 0.065559
v 0.016152 -0.071807 0.065542
v 0.016359 -0.072513 0.065204
v 0.016564 -0.071278 0.065176
v 0.016631 -0.070516 0.065199
v 0.016544 -0.072513 0.064872
v 0.010425 -0.078452 0.008441
v 0.014844 -0.079830 0.063000
v 0.010113 -0.079169 0.008441
v 0.015313 -0.078503 0.063664
v 0.015088 -0.079124 0.063664
v 0.016847 -0.071846 0.064328
v 0.016747 -0.072513 0.064328
v 0.016631 -0.073176 0.064328
v 0.016409 -0.074382 0.064220
v 0.016213 -0.075176 0.064328
v 0.016056 -0.075840 0.064328
v 0.015797 -0.076773 0.064260
v 0.015125 -0.078746 0.064231
v 0.016407 -0.073840 0.064632
v 0.016396 -0.073176 0.064941
v 0.015929 -0.075131 0.065027
v 0.016487 -0.071904 0.065159
f 1 2 17
f 1 17 23
f 1 23 3
f 1 3 4
f 1 4 5
f 1 5 6
f 1 6 7
f 1 7 8
f 1 8 9
f 1 9 10
f 1 10 11
f 1 11 12
f 1 12 13
f 1 13 2
f 2 14 15
f 2 15 16
f 2 16 17
f 2 13 18
f 2 18 19
f 2 19 20
f 2 20 21
f 2 21 22
f 2 22 14
f 3 23 24
f 3 24 25
f 3 25 4
f 4 25 26
f 4 26 27
f 4 27 28
f 4 28 5
f 5 28 29
f 5 29 6
f 6 30 31
f 6 31 32
f 6 32 7
f 6 29 33
f 6 33 30
f 7 34 35
f 7 35 8
f 7 32 34
f 8 35 36
f 8 36 37
f 8 37 9
f 9 37 38
f 9 38 39
f 9 39 10
f 10 39 40
f 10 40 41
f 10 41 42
f 10 42 11
f 11 42 12
f 12 42 43
f 12 43 13
f 13 43 19
f 13 19 18
f 14 44 15
f 14 22 44
f 15 44 16
f 16 44 17
f 17 45 46
f 17 46 23
f 17 44 45
f 19 43 44
f 19 44 20
f 20 44 21
f 21 44 22
f 23 46 24
f 24 47 25
f 24 46 45
f 24 45 44
f 24 44 72
f 24 72 111
f 24 111 74
f 24 74 48
f 24 48 47
f 25 47 73
f 25 73 112
f 25 112 156
f 25 156 200
f 25 200 174
f 25 174 126
f 25 126 90
f 25 90 125
f 25 125 124
f 25 124 123
f 25 123 122
f 25 122 121
f 25 121 120
f 25 120 77
f 25 77 49
f 25 49 26
f 26 49 50
f 26 50 27
f 27 51 28
f 27 50 51
f 28 52 29
f 28 51 53
f 28 53 54
f 28 54 52
f 29 52 33
f 30 55 56
f 30 56 31
f 30 33 55
f 31 56 57
f 31 57 34
f 31 34 32
f 33 52 58
f 33 58 59
f 33 59 55
f 34 60 61
f 34 61 62
f 34 62 35
f 34 57 63
f 34 63 60
f 35 62 64
f 35 64 36
f 36 64 65
f 36 65 37
f 37 65 66
f 37 66 38
f 38 40 39
f 38 66 67
f 38 67 68
f 38 68 41
f 38 41 40
f 41 68 69
f 41 69 70
f 41 70 71
f 41 71 72
f 41 72 44
f 41 44 42
f 42 44 43
f 47 48 73
f 48 74 75
f 48 75 76
f 48 76 73
f 49 77 78
f 49 78 50
f 50 78 79
f 50 79 51
f 51 79 53
f 52 54 53
f 52 53 58
f 53 79 78
f 53 78 80
f 53 80 81
f 53 81 82
f 53 82 83
f 53 83 84
f 53 84 85
f 53 85 86
f 53 86 87
f 53 87 88
f 53 88 89
f 53 89 90
f 53 90 91
f 53 91 92
f 53 92 93
f 53 93 94
f 53 94 95
f 53 95 59
f 53 59 58
f 55 96 56
f 55 59 97
f 55 97 96
f 56 98 57
f 56 96 98
f 57 98 63
f 59 95 97
f 60 63 99
f 60 99 100
f 60 100 101
f 60 101 61
f 61 101 102
f 61 102 64
f 61 64 62
f 63 98 103
f 63 103 99
f 64 104 105
f 64 105 65
f 64 102 104
f 65 105 66
f 66 105 67
f 67 105 106
f 67 106 68
f 68 106 107
f 68 107 69
f 69 107 70
f 70 107 108
f 70 108 71
f 71 109 110
f 71 110 72
f 71 108 109
f 72 75 111
f 72 110 75
f 73 76 75
f 73 75 113
f 73 113 114
f 73 114 115
f 73 115 112
f 74 111 75
f 75 116 117
f 75 117 118
f 75 118 113
f 75 110 119
f 75 119 116
f 77 120 80
f 77 80 78
f 80 120 81
f 81 120 82
f 82 120 121
f 82 121 83
f 83 121 122
f 83 122 123
f 83 123 84
f 84 123 124
f 84 124 85
f 85 87 86
f 85 124 87
f 87 124 125
f 87 125 88
f 88 125 89
f 89 125 90
f 90 126 91
f 91 126 92
f 92 126 127
f 92 127 128
f 92 128 94
f 92 94 93
f 94 129 130
f 94 130 95
f 94 128 129
f 95 130 97
f 96 97 131
f 96 131 132
f 96 132 133
f 96 133 103
f 96 103 98
f 97 130 134
f 97 134 131
f 99 103 135
f 99 135 136
f 99 136 100
f 100 136 137
f 100 137 138
f 100 138 139
f 100 139 140
f 100 140 101
f 101 140 102
f 102 140 141
f 102 141 104
f 103 133 142
f 103 142 143
f 103 143 135
f 104 141 105
f 105 141 144
f 105 144 106
f 106 144 145
f 106 145 146
f 106 146 147
f 106 147 107
f 107 147 108
f 108 148 149
f 108 149 150
f 108 150 109
f 108 147 148
f 109 150 151
f 109 151 152
f 109 152 153
f 109 153 110
f 110 153 154
f 110 154 155
f 110 155 119
f 112 115 157
f 112 157 156
f 113 118 158
f 113 158 159
f 113 159 160
f 113 160 161
f 113 161 162
f 113 162 163
f 113 163 164
f 113 164 165
f 113 165 166
f 113 166 167
f 113 167 114
f 114 167 115
f 115 167 168
f 115 168 157
f 116 119 169
f 116 169 117
f 117 170 158
f 117 158 118
f 117 169 171
f 117 171 172
f 117 172 170
f 119 155 173
f 119 173 169
f 126 174 127
f 127 174 175
f 127 175 128
f 128 175 176
f 128 176 177
f 128 177 129
f 129 177 130
f 130 177 134
f 131 134 178
f 131 178 179
f 131 179 180
f 131 180 132
f 132 180 181
f 132 181 133
f 133 181 182
f 133 182 142
f 134 177 183
f 134 183 178
f 135 143 142
f 135 142 184
f 135 184 136
f 136 184 137
f 137 185 186
f 137 186 138
f 137 184 187
f 137 187 188
f 137 188 189
f 137 189 185
f 138 186 190
f 138 190 139
f 139 190 145
f 139 145 141
f 139 141 140
f 141 145 144
f 142 187 184
f 142 182 187
f 145 190 146
f 146 190 147
f 147 190 148
f 148 190 186
f 148 186 191
f 148 191 149
f 149 191 150
f 150 191 151
f 151 192 193
f 151 193 194
f 151 194 152
f 151 191 192
f 152 194 195
f 152 195 154
f 152 154 153
f 154 195 196
f 154 196 197
f 154 197 173
f 154 173 155
f 156 157 198
f 156 198 199
f 156 199 200
f 157 168 201
f 157 201 198
f 158 170 159
f 159 170 202
f 159 202 203
f 159 203 160
f 160 203 161
f 161 203 204
f 161 204 162
f 162 204 205
f 162 205 163
f 163 205 164
f 164 205 206
f 164 206 165
f 165 206 207
f 165 207 208
f 165 208 209
f 165 209 210
f 165 210 211
f 165 211 166
f 166 211 212
f 166 212 167
f 167 212 213
f 167 213 168
f 168 213 201
f 169 173 197
f 169 197 196
f 169 196 171
f 170 172 202
f 171 196 214
f 171 214 172
f 172 215 202
f 172 214 215
f 174 200 216
f 174 216 217
f 174 217 175
f 175 217 176
f 176 217 177
f 177 217 183
f 178 183 218
f 178 218 179
f 179 218 219
f 179 219 180
f 180 220 181
f 180 219 221
f 180 221 220
f 181 220 222
f 181 222 182
f 182 222 223
f 182 223 187
f 183 217 218
f 185 189 224
f 185 224 225
f 185 225 192
f 185 192 191
f 185 191 186
f 187 223 226
f 187 226 227
f 187 227 188
f 188 227 228
f 188 228 224
f 188 224 189
f 192 225 229
f 192 229 230
f 192 230 193
f 193 230 231
f 193 231 195
f 193 195 194
f 195 232 233
f 195 233 234
f 195 234 196
f 195 231 232
f 196 234 233
f 196 233 235
f 196 235 214
f 198 236 199
f 198 201 237
f 198 237 236
f 199 236 200
f 200 236 238
f 200 238 216
f 201 213 239
f 201 239 240
f 201 240 221
f 201 221 237
f 202 215 203
f 203 215 204
f 204 215 214
f 204 214 241
f 204 241 242
f 204 242 205
f 205 242 243
f 205 243 206
f 206 243 244
f 206 244 207
f 207 244 208
f 208 244 245
f 208 245 209
f 209 245 246
f 209 246 210
f 210 246 211
f 211 246 247
f 211 247 212
f 212 247 213
f 213 247 222
f 213 222 248
f 213 248 239
f 214 235 241
f 216 238 218
f 216 218 217
f 218 237 219
f 218 238 237
f 219 237 221
f 220 221 240
f 220 240 248
f 220 248 222
f 222 247 223
f 223 249 250
f 223 250 251
f 223 251 226
f 223 247 246
f 223 246 245
f 223 245 249
f 224 228 225
f 225 228 229
f 226 251 227
f 227 251 228
f 228 251 250
f 228 250 232
f 228 232 229
f 229 232 230
f 230 232 231
f 232 250 252
f 232 252 233
f 233 252 235
f 235 250 249
f 235 249 242
f 235 242 241
f 235 252 250
f 236 237 238
f 239 248 240
f 242 249 243
f 243 245 244
f 243 249 245
