v -0.043459 -0.068001 0.007726
v -0.043404 -0.064936 0.007861
v -0.043289 -0.066188 0.007263
v -0.043240 -0.068842 0.007101
v -0.043262 -0.070155 0.007499
v -0.043267 -0.071176 0.008157
v -0.043037 -0.062195 0.007837
v -0.043251 -0.063529 0.007837
v -0.043092 -0.064194 0.007101
v -0.039604 -0.066518 -0.000133
v -0.039549 -0.070177 -0.000008
v -0.042922 -0.071347 0.006913
v -0.039527 -0.068248 -0.000179
v -0.043015 -0.072665 0.008018
v -0.042439 -0.075165 0.008157
v -0.041156 -0.068457 0.008157
v -0.030231 -0.043505 0.007908
v -0.042483 -0.059865 0.007837
v -0.042724 -0.061101 0.007543
v -0.042872 -0.062793 0.007062
v -0.039072 -0.063057 -0.000212
v -0.038984 -0.068974 -0.000590
v -0.039126 -0.064568 -0.000477
v -0.039285 -0.071561 -0.000035
v -0.042137 -0.075324 0.007112
v -0.042730 -0.073857 0.007656
v -0.042094 -0.076132 0.007825
v -0.040722 -0.079582 0.007855
v -0.040037 -0.080906 0.007873
v -0.039187 -0.082378 0.007932
v -0.038413 -0.083553 0.007955
v -0.034969 -0.084141 0.008157
v 0.012571 -0.068468 0.007893
v 0.005902 -0.049285 0.007884
v 0.005057 -0.048285 0.007884
v 0.003028 -0.046241 0.007884
v 0.000220 -0.044159 0.007884
v -0.008309 -0.040286 0.007856
v -0.012186 -0.039534 0.007811
v -0.015186 -0.039352 0.007766
v -0.022377 -0.040226 0.007690
v -0.027274 -0.041940 0.007677
v -0.028744 -0.042665 0.007712
v -0.031552 -0.044478 0.007476
v -0.033351 -0.045829 0.007555
v -0.036187 -0.048571 0.007716
v -0.039006 -0.052350 0.007427
v -0.041605 -0.057525 0.007572
v -0.041962 -0.058728 0.007363
v -0.042318 -0.060228 0.007096
v -0.038913 -0.061601 -0.000050
v -0.038457 -0.064524 -0.000650
v -0.036154 -0.078181 -0.000555
v -0.038112 -0.075588 -0.000084
v -0.038704 -0.073758 -0.000076
v -0.037805 -0.058992 -0.000244
v -0.041605 -0.076774 0.006991
v -0.041419 -0.077802 0.007611
v -0.040849 -0.078796 0.007126
v -0.040196 -0.080120 0.007120
v -0.038764 -0.082532 0.006907
v -0.038156 -0.083532 0.006929
v -0.037081 -0.085235 0.007630
v -0.034201 -0.088250 0.007798
v -0.026463 -0.093195 0.007798
v -0.024258 -0.094046 0.007790
v -0.018806 -0.095255 0.007790
v -0.012845 -0.095354 0.007790
v 0.001168 -0.090014 0.007790
v 0.009209 -0.080752 0.007779
v 0.011501 -0.075159 0.007782
v 0.012390 -0.070775 0.007762
v 0.012450 -0.069528 0.007539
v 0.012543 -0.067249 0.007626
v 0.012412 -0.064238 0.007801
v 0.011770 -0.060673 0.007772
v 0.007410 -0.051218 0.007800
v 0.006554 -0.050136 0.007647
v 0.010350 -0.056520 0.007763
v 0.004393 -0.047944 0.007012
v 0.003708 -0.047027 0.007467
v 0.002238 -0.045868 0.007239
v 0.001163 -0.044868 0.007691
v -0.000082 -0.044137 0.007293
v -0.000965 -0.043412 0.007689
v -0.003652 -0.041989 0.007752
v -0.006685 -0.040808 0.007684
v -0.007832 -0.040720 0.007049
v -0.009515 -0.040072 0.007677
v -0.010508 -0.043566 0.000135
v -0.013667 -0.043187 0.000038
v -0.013892 -0.039413 0.007670
v -0.015186 -0.039506 0.007283
v -0.017435 -0.039539 0.007366
v -0.016678 -0.039424 0.007706
v -0.018510 -0.039600 0.007589
v -0.019508 -0.039770 0.007468
v -0.020863 -0.040012 0.007446
v -0.023638 -0.040852 0.006933
v -0.024883 -0.041105 0.007299
v -0.025969 -0.041467 0.007462
v -0.024806 -0.044901 0.000128
v -0.027488 -0.046219 0.000108
v -0.029572 -0.047488 -0.000007
v -0.032123 -0.049576 0.000165
v -0.034651 -0.047120 0.007405
v -0.035446 -0.047862 0.007538
v -0.037114 -0.049807 0.007261
v -0.038057 -0.051015 0.007323
v -0.039445 -0.053564 0.006778
v -0.040147 -0.054482 0.007295
v -0.040799 -0.055784 0.007321
v -0.037563 -0.057514 0.000015
v -0.031092 -0.049345 -0.000563
v -0.030000 -0.048472 -0.000680
v -0.028892 -0.048137 -0.000737
v -0.018165 -0.090805 -0.000629
v -0.023556 -0.089492 -0.000556
v -0.034832 -0.081466 -0.000323
v -0.037245 -0.077527 -0.000141
v -0.036867 -0.078664 0.000039
v -0.036933 -0.056168 -0.000012
v -0.035869 -0.080428 0.000042
v -0.034772 -0.082125 0.000163
v -0.033861 -0.083218 0.000055
v -0.036121 -0.086146 0.007228
v -0.035227 -0.087124 0.007251
v -0.034108 -0.088130 0.007121
v -0.033170 -0.089118 0.007675
v -0.030741 -0.090909 0.007723
v -0.027614 -0.092673 0.007774
v -0.026841 -0.092816 0.007057
v -0.025086 -0.093618 0.007333
v -0.022772 -0.094403 0.007524
v -0.021499 -0.094771 0.007698
v -0.020128 -0.094925 0.007362
v -0.018324 -0.095051 0.006870
v -0.016996 -0.095387 0.007350
v -0.015812 -0.095474 0.007508
v -0.014172 -0.095409 0.007597
v -0.011994 -0.095106 0.007327
v -0.010206 -0.094914 0.007643
v -0.009214 -0.094755 0.007773
v -0.002139 -0.092090 0.007765
v -0.001327 -0.091508 0.007418
v 0.000598 -0.090245 0.007248
v 0.002002 -0.089371 0.007703
v 0.007481 -0.083691 0.007736
v 0.008353 -0.082262 0.007740
v 0.007794 -0.082850 0.007030
v 0.009116 -0.080164 0.006758
v 0.009916 -0.079087 0.007349
v 0.010947 -0.076780 0.007656
v 0.011145 -0.075588 0.007000
v 0.011644 -0.074203 0.007299
v 0.012083 -0.072418 0.007595
v 0.012187 -0.070836 0.007101
v 0.008573 -0.066194 -0.000469
v 0.012499 -0.066188 0.007518
v 0.012033 -0.062299 0.007463
v 0.008496 -0.062991 0.000042
v 0.010525 -0.057717 0.006927
v 0.011167 -0.058673 0.007737
v 0.008605 -0.053026 0.007755
v 0.004163 -0.053191 -0.000147
v 0.009829 -0.056047 0.006939
v 0.009790 -0.055333 0.007629
v 0.009313 -0.054366 0.007696
v 0.001465 -0.049944 -0.000100
v -0.000274 -0.048268 0.000230
v -0.001464 -0.047516 0.000061
v -0.001969 -0.042868 0.007585
v -0.004124 -0.042192 0.006733
v -0.005106 -0.041566 0.007164
v -0.007974 -0.044220 0.000119
v -0.015175 -0.043379 -0.000396
v -0.009164 -0.044500 -0.000468
v -0.015175 -0.042940 0.000286
v -0.016250 -0.043148 -0.000032
v -0.019497 -0.043434 0.000129
v -0.020846 -0.043670 0.000169
v -0.021823 -0.044055 -0.000100
v -0.022750 -0.044450 -0.000248
v -0.026194 -0.045939 -0.000353
v -0.034179 -0.051828 0.000112
v -0.035183 -0.053289 -0.000031
v -0.020161 -0.044148 -0.000603
v 0.005989 -0.057877 -0.000622
v -0.000663 -0.085487 -0.000629
v -0.011408 -0.090827 -0.000565
v -0.013848 -0.091327 -0.000396
v -0.017495 -0.091420 -0.000222
v -0.019201 -0.090810 -0.000563
v -0.002857 -0.087196 -0.000611
v -0.022185 -0.090607 -0.000015
v -0.024488 -0.089706 -0.000140
v -0.025530 -0.089250 -0.000140
v -0.026485 -0.088481 -0.000300
v -0.028624 -0.087344 -0.000220
v -0.032534 -0.084405 -0.000164
v -0.032430 -0.089443 0.007008
v -0.029901 -0.086888 0.000065
v -0.031689 -0.090135 0.007393
v -0.029682 -0.091453 0.007408
v -0.028179 -0.092156 0.007033
v -0.026671 -0.088882 0.000031
v -0.024071 -0.090113 0.000182
v -0.020830 -0.090942 -0.000069
v -0.016497 -0.091618 -0.000090
v -0.013848 -0.091580 -0.000061
v -0.009192 -0.094524 0.007101
v -0.009378 -0.090887 0.000011
v -0.008177 -0.094403 0.007457
v -0.006844 -0.094068 0.007659
v -0.003828 -0.092788 0.007397
v -0.002813 -0.092162 0.007039
v -0.004322 -0.088910 0.000003
v -0.001470 -0.087014 -0.000166
v 0.001421 -0.089454 0.006847
v 0.002808 -0.088597 0.007422
v 0.003839 -0.087707 0.007518
v 0.004799 -0.086668 0.007400
v 0.007147 -0.083532 0.006722
v 0.004657 -0.080680 -0.000147
v 0.006505 -0.077544 -0.000006
v 0.010448 -0.077879 0.007386
v 0.006900 -0.076181 -0.000180
v 0.007931 -0.073506 -0.000056
v 0.008474 -0.071517 0.000075
v 0.008562 -0.070177 -0.000066
v 0.007898 -0.072226 -0.000404
v 0.007783 -0.060503 0.000118
v 0.007799 -0.059470 0.000739
v 0.007278 -0.059459 -0.000065
v 0.006231 -0.056921 -0.000181
v 0.000088 -0.049471 -0.000503
v 0.005413 -0.055646 -0.000362
v -0.003768 -0.046697 -0.000493
v -0.005013 -0.045505 0.000031
v -0.006812 -0.044780 -0.000014
v -0.006033 -0.045450 -0.000360
v 0.007311 -0.074561 -0.000333
v 0.002507 -0.083400 -0.000346
v -0.003477 -0.088047 -0.000356
v -0.007859 -0.090316 -0.000070
v -0.023391 -0.090228 -0.000002
v -0.028124 -0.088135 0.000142
v -0.005780 -0.093552 0.007282
v -0.005649 -0.089558 0.000015
v 0.000203 -0.085872 0.000035
v 0.003746 -0.087448 0.006806
v 0.001942 -0.084290 -0.000025
v -0.006806 -0.089959 -0.000030
f 1 2 3
f 1 3 4
f 1 4 5
f 1 5 6
f 1 6 2
f 2 7 8
f 2 8 9
f 2 9 3
f 2 6 7
f 3 9 10
f 3 10 4
f 4 11 12
f 4 12 5
f 4 10 13
f 4 13 11
f 5 12 14
f 5 14 6
f 6 14 15
f 6 15 32
f 6 32 16
f 6 16 17
f 6 17 18
f 6 18 7
f 7 18 19
f 7 19 20
f 7 20 8
f 8 20 9
f 9 20 21
f 9 21 10
f 10 22 13
f 10 21 23
f 10 23 22
f 11 13 22
f 11 22 24
f 11 24 12
f 12 24 25
f 12 25 26
f 12 26 14
f 14 26 15
f 15 26 27
f 15 27 28
f 15 28 29
f 15 29 30
f 15 30 31
f 15 31 32
f 16 33 34
f 16 34 35
f 16 35 36
f 16 36 37
f 16 37 38
f 16 38 17
f 16 32 33
f 17 38 39
f 17 39 40
f 17 40 41
f 17 41 42
f 17 42 43
f 17 43 44
f 17 44 45
f 17 45 46
f 17 46 18
f 18 46 47
f 18 47 48
f 18 48 49
f 18 49 50
f 18 50 19
f 19 50 20
f 20 50 51
f 20 51 21
f 21 51 23
f 22 23 52
f 22 52 53
f 22 53 54
f 22 54 55
f 22 55 24
f 23 51 56
f 23 56 52
f 24 55 25
f 25 57 27
f 25 27 26
f 25 55 57
f 27 57 58
f 27 58 28
f 28 58 59
f 28 59 60
f 28 60 29
f 29 60 61
f 29 61 30
f 30 61 62
f 30 62 31
f 31 63 64
f 31 64 32
f 31 62 63
f 32 64 65
f 32 65 66
f 32 66 67
f 32 67 68
f 32 68 69
f 32 69 33
f 33 69 70
f 33 70 71
f 33 71 72
f 33 72 73
f 33 73 74
f 33 74 75
f 33 75 76
f 33 76 34
f 34 77 78
f 34 78 35
f 34 76 79
f 34 79 77
f 35 78 80
f 35 80 81
f 35 81 36
f 36 81 82
f 36 82 83
f 36 83 37
f 37 83 84
f 37 84 85
f 37 85 86
f 37 86 38
f 38 86 87
f 38 87 88
f 38 88 89
f 38 89 39
f 39 89 90
f 39 90 91
f 39 91 92
f 39 92 40
f 40 92 93
f 40 93 94
f 40 94 95
f 40 95 41
f 41 95 96
f 41 96 97
f 41 97 98
f 41 98 99
f 41 99 100
f 41 100 101
f 41 101 42
f 42 101 102
f 42 102 103
f 42 103 43
f 43 103 104
f 43 104 44
f 44 104 45
f 45 104 105
f 45 105 106
f 45 106 107
f 45 107 46
f 46 107 108
f 46 108 109
f 46 109 47
f 47 109 110
f 47 110 111
f 47 111 48
f 48 111 112
f 48 112 49
f 49 112 113
f 49 113 51
f 49 51 50
f 51 113 56
f 52 56 114
f 52 114 115
f 52 115 116
f 52 116 117
f 52 117 53
f 53 117 118
f 53 118 119
f 53 119 120
f 53 120 54
f 54 120 121
f 54 121 59
f 54 59 57
f 54 57 55
f 56 113 122
f 56 122 114
f 57 59 58
f 59 121 60
f 60 121 61
f 61 121 123
f 61 123 62
f 62 123 124
f 62 124 125
f 62 125 126
f 62 126 63
f 63 126 127
f 63 127 64
f 64 128 129
f 64 129 130
f 64 130 131
f 64 131 65
f 64 127 128
f 65 131 132
f 65 132 133
f 65 133 66
f 66 134 135
f 66 135 67
f 66 133 134
f 67 135 136
f 67 136 137
f 67 137 138
f 67 138 139
f 67 139 68
f 68 139 140
f 68 140 141
f 68 141 142
f 68 142 143
f 68 143 69
f 69 143 144
f 69 144 145
f 69 145 146
f 69 146 147
f 69 147 148
f 69 148 70
f 70 148 149
f 70 149 150
f 70 150 151
f 70 151 152
f 70 152 153
f 70 153 71
f 71 153 154
f 71 154 155
f 71 155 156
f 71 156 72
f 72 156 157
f 72 157 73
f 73 158 74
f 73 157 158
f 74 158 159
f 74 159 75
f 75 159 160
f 75 160 76
f 76 160 161
f 76 161 162
f 76 162 163
f 76 163 79
f 77 79 164
f 77 164 165
f 77 165 78
f 78 165 80
f 79 163 162
f 79 162 166
f 79 166 167
f 79 167 168
f 79 168 164
f 80 165 169
f 80 169 81
f 81 169 82
f 82 84 83
f 82 169 170
f 82 170 84
f 84 170 171
f 84 171 172
f 84 172 85
f 85 172 86
f 86 172 173
f 86 173 174
f 86 174 87
f 87 174 88
f 88 174 175
f 88 175 90
f 88 90 89
f 90 176 91
f 90 175 177
f 90 177 176
f 91 176 178
f 91 178 92
f 92 178 93
f 93 178 94
f 94 97 96
f 94 96 95
f 94 178 179
f 94 179 180
f 94 180 97
f 97 180 98
f 98 180 181
f 98 181 99
f 99 181 182
f 99 182 102
f 99 102 100
f 100 102 101
f 102 182 183
f 102 183 184
f 102 184 103
f 103 184 104
f 104 184 115
f 104 115 105
f 105 185 108
f 105 108 106
f 105 115 114
f 105 114 185
f 106 108 107
f 108 185 109
f 109 185 186
f 109 186 110
f 110 186 122
f 110 122 112
f 110 112 111
f 112 122 113
f 114 122 186
f 114 186 185
f 115 184 116
f 116 184 187
f 116 187 188
f 116 188 189
f 116 189 117
f 117 190 191
f 117 191 192
f 117 192 193
f 117 193 118
f 117 189 194
f 117 194 190
f 118 193 195
f 118 195 196
f 118 196 197
f 118 197 198
f 118 198 199
f 118 199 200
f 118 200 119
f 119 200 125
f 119 125 124
f 119 124 123
f 119 123 121
f 119 121 120
f 125 200 127
f 125 127 126
f 127 200 128
f 128 201 129
f 128 200 202
f 128 202 201
f 129 201 203
f 129 203 130
f 130 203 204
f 130 204 131
f 131 204 205
f 131 205 132
f 132 205 206
f 132 206 207
f 132 207 133
f 133 207 195
f 133 195 134
f 134 136 135
f 134 195 208
f 134 208 136
f 136 208 137
f 137 208 192
f 137 192 209
f 137 209 138
f 138 209 139
f 139 209 210
f 139 210 140
f 140 210 141
f 141 211 142
f 141 210 212
f 141 212 211
f 142 211 143
f 143 211 213
f 143 213 214
f 143 214 144
f 144 214 215
f 144 215 216
f 144 216 145
f 145 216 217
f 145 217 146
f 146 217 218
f 146 218 219
f 146 219 147
f 147 219 220
f 147 220 221
f 147 221 148
f 148 222 223
f 148 223 150
f 148 150 149
f 148 221 222
f 150 223 224
f 150 224 225
f 150 225 151
f 151 225 152
f 152 225 226
f 152 226 153
f 153 226 154
f 154 226 225
f 154 225 227
f 154 227 228
f 154 228 155
f 155 228 229
f 155 229 157
f 155 157 156
f 157 229 230
f 157 230 158
f 158 188 161
f 158 161 159
f 158 230 231
f 158 231 189
f 158 189 188
f 159 161 160
f 161 232 233
f 161 233 162
f 161 188 234
f 161 234 232
f 162 233 235
f 162 235 166
f 164 168 166
f 164 166 165
f 165 236 169
f 165 166 237
f 165 237 236
f 166 235 237
f 166 168 167
f 169 236 171
f 169 171 170
f 171 236 238
f 171 238 239
f 171 239 172
f 172 239 173
f 173 239 175
f 173 175 174
f 175 239 240
f 175 240 241
f 175 241 177
f 176 179 178
f 176 177 187
f 176 187 179
f 177 241 238
f 177 238 187
f 179 187 180
f 180 187 182
f 180 182 181
f 182 187 183
f 183 187 184
f 187 238 188
f 188 238 236
f 188 236 237
f 188 237 235
f 188 235 234
f 189 231 242
f 189 242 243
f 189 243 218
f 189 218 194
f 190 194 244
f 190 244 245
f 190 245 212
f 190 212 210
f 190 210 191
f 191 210 209
f 191 209 192
f 192 208 193
f 193 208 195
f 194 218 244
f 195 207 246
f 195 246 196
f 196 246 207
f 196 207 206
f 196 206 197
f 197 206 198
f 198 206 199
f 199 202 200
f 199 206 247
f 199 247 202
f 201 202 247
f 201 247 204
f 201 204 203
f 204 247 205
f 205 247 206
f 211 212 213
f 212 245 248
f 212 248 213
f 213 248 214
f 214 248 215
f 215 248 249
f 215 249 216
f 216 249 217
f 217 249 244
f 217 244 218
f 218 243 250
f 218 250 219
f 219 250 251
f 219 251 220
f 220 251 221
f 221 251 222
f 222 251 223
f 223 243 224
f 223 251 252
f 223 252 243
f 224 243 242
f 224 242 227
f 224 227 225
f 227 242 228
f 228 242 231
f 228 231 229
f 229 231 230
f 232 234 233
f 233 234 235
f 238 241 239
f 239 241 240
f 243 252 250
f 244 249 253
f 244 253 245
f 245 253 248
f 248 253 249
f 250 252 251
