v -0.026862 -0.098236 0.063668
v -0.027824 -0.097878 0.063668
v -0.027824 -0.097922 0.063001
v -0.026699 -0.098222 0.062578
v -0.026613 -0.098067 0.064712
v -0.027917 -0.097626 0.064547
v -0.028770 -0.097389 0.064033
v -0.028819 -0.097462 0.063035
v -0.038218 -0.083976 0.008621
v -0.034983 -0.084136 0.008170
v -0.026558 -0.097399 0.061688
v -0.026594 -0.096823 0.065922
v -0.027126 -0.097457 0.065323
v -0.029744 -0.096837 0.064541
v -0.031537 -0.096077 0.063400
v -0.030191 -0.096779 0.063126
v -0.038756 -0.083231 0.008712
v -0.039275 -0.082355 0.008307
v -0.032547 -0.095501 0.063337
v -0.033730 -0.094746 0.062801
v -0.035536 -0.093434 0.063235
v -0.036848 -0.092365 0.063001
v -0.038096 -0.091188 0.063337
v -0.040232 -0.088923 0.063668
v -0.040768 -0.088279 0.063337
v -0.041578 -0.087321 0.063263
v -0.042195 -0.086571 0.063337
v -0.042767 -0.085782 0.063337
v -0.040183 -0.080752 0.008170
v -0.041029 -0.068487 0.007914
v -0.037482 -0.054575 0.007914
v -0.037541 -0.049996 0.008182
v -0.026558 -0.091455 0.061911
v -0.026558 -0.094194 0.061300
v -0.026558 -0.094156 0.065962
v -0.026709 -0.095463 0.066161
v -0.028007 -0.095990 0.066036
v -0.029066 -0.096557 0.065391
v -0.031346 -0.095332 0.065460
v -0.032839 -0.094819 0.065038
v -0.032105 -0.095496 0.064632
v -0.030761 -0.096339 0.064433
v -0.043297 -0.084891 0.063337
v -0.033351 -0.094877 0.064056
v -0.034651 -0.094102 0.063337
v -0.035202 -0.093512 0.064330
v -0.036163 -0.092795 0.064085
v -0.036984 -0.092147 0.063914
v -0.038635 -0.090477 0.064473
v -0.040749 -0.088226 0.064456
v -0.041491 -0.087384 0.064182
v -0.042142 -0.086338 0.064524
v -0.042718 -0.085525 0.064341
v -0.043616 -0.084010 0.064416
v -0.040787 -0.079600 0.008376
v -0.041395 -0.078221 0.008341
v -0.041765 -0.077272 0.008307
v -0.042469 -0.075162 0.008307
v -0.043435 -0.064866 0.007959
v -0.044760 -0.082185 0.063354
v -0.039455 -0.052799 0.007936
v -0.038294 -0.050978 0.008313
v -0.042782 -0.049255 0.063400
v -0.042154 -0.048786 0.062299
v -0.037482 -0.049822 0.009779
v -0.034260 -0.048786 0.061557
v -0.026558 -0.091648 0.063360
v -0.026558 -0.092810 0.065226
v -0.034747 -0.048786 0.064045
v -0.035625 -0.048786 0.065117
v -0.036595 -0.048786 0.065716
v -0.038979 -0.048786 0.066139
v -0.028158 -0.095133 0.066173
v -0.037675 -0.048786 0.066002
v -0.029406 -0.094887 0.066110
v -0.030661 -0.094654 0.066036
v -0.032037 -0.094064 0.065973
v -0.032492 -0.094495 0.065545
v -0.033807 -0.093923 0.065323
v -0.034391 -0.094073 0.064421
v -0.044201 -0.083052 0.064096
v -0.036780 -0.092113 0.064598
v -0.037573 -0.091450 0.064490
v -0.038675 -0.089765 0.065346
v -0.039766 -0.089209 0.064621
v -0.039970 -0.088410 0.065357
v -0.040721 -0.087674 0.065209
v -0.041404 -0.086817 0.065157
v -0.042142 -0.085506 0.065346
v -0.042788 -0.084755 0.065083
v -0.044968 -0.081348 0.064518
v -0.044050 -0.082379 0.065243
v -0.045379 -0.080888 0.063337
v -0.045832 -0.079833 0.063001
v -0.046236 -0.078763 0.062904
v -0.042193 -0.076110 0.008410
v -0.046678 -0.077500 0.063001
v -0.042759 -0.074174 0.008438
v -0.043014 -0.072959 0.008307
v -0.043524 -0.068172 0.008182
v -0.043518 -0.066855 0.008182
v -0.043494 -0.065747 0.008187
v -0.048278 -0.066192 0.062995
v -0.048142 -0.064270 0.062909
v -0.043360 -0.063951 0.008182
v -0.043205 -0.062813 0.008182
v -0.043041 -0.061870 0.008182
v -0.042539 -0.059875 0.008182
v -0.041563 -0.057053 0.008187
v -0.040963 -0.055669 0.008182
v -0.040398 -0.054464 0.008313
v -0.044945 -0.053007 0.063001
v -0.043373 -0.050127 0.063577
v -0.038903 -0.051903 0.008182
v -0.042950 -0.049705 0.064416
v -0.042220 -0.048824 0.064598
v -0.041419 -0.048786 0.061774
v -0.037482 -0.049420 0.026285
v -0.037482 -0.049444 0.025076
v -0.037482 -0.049778 0.011012
v -0.037546 -0.048786 0.061426
v -0.034338 -0.048786 0.062670
v -0.026558 -0.092016 0.064313
v -0.041117 -0.048965 0.065762
v -0.039921 -0.049008 0.066116
v -0.041129 -0.051221 0.066161
v -0.045121 -0.073172 0.066201
v -0.037967 -0.088144 0.066184
v -0.031814 -0.093134 0.066161
v -0.031484 -0.093812 0.066110
v -0.033494 -0.092684 0.066036
v -0.035189 -0.091827 0.065922
v -0.035087 -0.092795 0.065425
v -0.036965 -0.091305 0.065408
v -0.038228 -0.089170 0.065928
v -0.038900 -0.088497 0.065922
v -0.041784 -0.085762 0.065488
v -0.039547 -0.087810 0.065910
v -0.043188 -0.083599 0.065431
v -0.045506 -0.080046 0.064558
v -0.043792 -0.081401 0.065802
v -0.044632 -0.080249 0.065602
v -0.045923 -0.077785 0.065300
v -0.046408 -0.078090 0.063959
v -0.046795 -0.077030 0.063879
v -0.047082 -0.076115 0.063360
v -0.047361 -0.075012 0.063332
v -0.043246 -0.071551 0.008307
v -0.047750 -0.073172 0.063332
v -0.043492 -0.069493 0.008284
v -0.048284 -0.067523 0.062995
v -0.048239 -0.066855 0.063953
v -0.048086 -0.064827 0.064307
v -0.047982 -0.062867 0.063332
v -0.047757 -0.061540 0.063332
v -0.047495 -0.060311 0.062909
v -0.042820 -0.060824 0.008313
v -0.042267 -0.058975 0.008313
v -0.047144 -0.058873 0.063332
v -0.046774 -0.057605 0.063332
v -0.041897 -0.057881 0.008444
v -0.046359 -0.056400 0.063332
v -0.045966 -0.055359 0.063332
v -0.045404 -0.053994 0.063001
v -0.044843 -0.052905 0.063993
v -0.044190 -0.051646 0.063782
v -0.043482 -0.050674 0.064530
v -0.042686 -0.050364 0.065351
v -0.041999 -0.049488 0.065454
v -0.042916 -0.052479 0.065985
v -0.041238 -0.050272 0.066070
v -0.043788 -0.055877 0.066144
v -0.043124 -0.055214 0.066161
v -0.045785 -0.068525 0.066184
v -0.045785 -0.072180 0.066161
v -0.045121 -0.075496 0.066133
v -0.044456 -0.076832 0.066161
v -0.043124 -0.080162 0.066161
v -0.042457 -0.081827 0.066161
v -0.041795 -0.082490 0.066179
v -0.039798 -0.085816 0.066179
v -0.039798 -0.086483 0.066127
v -0.035855 -0.090782 0.066053
v -0.036044 -0.091900 0.065505
v -0.040187 -0.086909 0.065933
v -0.040900 -0.085922 0.065939
v -0.042920 -0.082563 0.065950
v -0.046968 -0.075815 0.064553
v -0.043667 -0.080491 0.066059
v -0.045772 -0.076812 0.065688
v -0.046506 -0.075457 0.065431
v -0.047548 -0.073990 0.063993
v -0.043437 -0.070355 0.008598
v -0.047912 -0.072180 0.063332
v -0.048142 -0.070065 0.062824
v -0.048227 -0.068854 0.063332
v -0.048180 -0.067857 0.064227
v -0.047991 -0.066192 0.064786
v -0.047865 -0.062867 0.064330
v -0.047837 -0.065195 0.064992
v -0.047740 -0.063859 0.064992
v -0.047470 -0.060234 0.063782
v -0.046651 -0.057586 0.064290
v -0.046142 -0.056250 0.064450
v -0.045472 -0.054265 0.063971
v -0.045602 -0.055078 0.064632
v -0.044741 -0.053888 0.065186
v -0.044047 -0.052542 0.065214
v -0.043275 -0.051317 0.065340
v -0.044426 -0.055011 0.065819
v -0.044845 -0.057542 0.066076
v -0.041969 -0.051545 0.066065
v -0.046017 -0.062204 0.066099
v -0.046200 -0.063530 0.066099
v -0.046425 -0.065863 0.066076
v -0.046385 -0.068525 0.066076
v -0.046130 -0.071347 0.066087
v -0.045785 -0.073172 0.066116
v -0.046068 -0.074808 0.065888
v -0.041795 -0.083153 0.066156
v -0.040464 -0.085152 0.066161
v -0.041427 -0.084644 0.066013
v -0.047529 -0.073327 0.064627
v -0.046948 -0.073506 0.065465
v -0.047803 -0.072180 0.064330
v -0.048059 -0.071062 0.063332
v -0.047935 -0.071183 0.064330
v -0.048057 -0.070350 0.064085
v -0.048116 -0.068854 0.064341
v -0.048001 -0.067765 0.064729
v -0.047729 -0.068690 0.065152
v -0.047459 -0.067460 0.065534
v -0.047459 -0.066192 0.065528
v -0.047572 -0.061695 0.064581
v -0.047312 -0.063859 0.065534
v -0.046844 -0.059769 0.065226
v -0.046889 -0.058873 0.064632
v -0.045968 -0.057794 0.065517
v -0.045096 -0.056250 0.065716
v -0.045536 -0.058559 0.065962
v -0.046553 -0.061874 0.065848
v -0.046606 -0.064861 0.066036
v -0.046700 -0.069518 0.065962
v -0.046678 -0.070515 0.065945
v -0.047212 -0.072180 0.065363
v -0.047735 -0.070181 0.064992
v -0.047331 -0.071129 0.065403
v -0.047310 -0.070016 0.065517
v -0.047119 -0.068525 0.065734
v -0.046634 -0.060868 0.065648
v -0.046334 -0.058873 0.065505
f 1 2 3
f 1 3 4
f 1 4 5
f 1 5 6
f 1 6 2
f 2 6 7
f 2 7 8
f 2 8 3
f 3 8 9
f 3 9 4
f 4 9 10
f 4 10 11
f 4 11 5
f 5 12 13
f 5 13 6
f 5 11 12
f 6 13 14
f 6 14 7
f 7 15 16
f 7 16 8
f 7 14 15
f 8 16 9
f 9 17 18
f 9 18 10
f 9 16 15
f 9 15 19
f 9 19 20
f 9 20 21
f 9 21 22
f 9 22 23
f 9 23 24
f 9 24 25
f 9 25 26
f 9 26 27
f 9 27 28
f 9 28 17
f 10 18 29
f 10 29 30
f 10 30 31
f 10 31 32
f 10 32 33
f 10 33 34
f 10 34 11
f 11 34 33
f 11 33 67
f 11 67 123
f 11 123 68
f 11 68 35
f 11 35 12
f 12 35 36
f 12 36 37
f 12 37 38
f 12 38 13
f 13 38 14
f 14 38 39
f 14 39 40
f 14 40 41
f 14 41 42
f 14 42 15
f 15 42 19
f 17 28 18
f 18 28 43
f 18 43 29
f 19 42 44
f 19 44 45
f 19 45 20
f 20 45 21
f 21 45 46
f 21 46 47
f 21 47 48
f 21 48 22
f 22 48 23
f 23 48 49
f 23 49 24
f 24 26 25
f 24 49 50
f 24 50 51
f 24 51 26
f 26 51 27
f 27 51 28
f 28 51 52
f 28 52 53
f 28 53 54
f 28 54 43
f 29 55 56
f 29 56 57
f 29 57 58
f 29 58 59
f 29 59 30
f 29 43 60
f 29 60 55
f 30 59 61
f 30 61 31
f 31 61 32
f 32 61 62
f 32 62 63
f 32 63 64
f 32 64 65
f 32 65 66
f 32 66 33
f 33 66 67
f 35 68 69
f 35 69 70
f 35 70 71
f 35 71 36
f 36 72 73
f 36 73 37
f 36 71 74
f 36 74 72
f 37 73 75
f 37 75 76
f 37 76 39
f 37 39 38
f 39 76 77
f 39 77 78
f 39 78 79
f 39 79 40
f 40 79 80
f 40 80 41
f 41 80 44
f 41 44 42
f 43 54 81
f 43 81 60
f 44 80 45
f 45 80 46
f 46 80 79
f 46 79 82
f 46 82 47
f 47 82 48
f 48 82 83
f 48 83 49
f 49 83 82
f 49 82 84
f 49 84 85
f 49 85 50
f 50 85 86
f 50 86 87
f 50 87 88
f 50 88 52
f 50 52 51
f 52 88 89
f 52 89 90
f 52 90 54
f 52 54 53
f 54 91 81
f 54 90 92
f 54 92 91
f 55 60 93
f 55 93 94
f 55 94 56
f 56 94 57
f 57 94 95
f 57 95 96
f 57 96 58
f 58 96 97
f 58 97 98
f 58 98 99
f 58 99 59
f 59 99 100
f 59 100 101
f 59 101 102
f 59 102 103
f 59 103 104
f 59 104 105
f 59 105 106
f 59 106 107
f 59 107 108
f 59 108 61
f 60 81 91
f 60 91 93
f 61 108 109
f 61 109 110
f 61 110 111
f 61 111 112
f 61 112 113
f 61 113 114
f 61 114 62
f 62 114 63
f 63 114 113
f 63 113 115
f 63 115 116
f 63 116 64
f 64 117 118
f 64 118 119
f 64 119 120
f 64 120 65
f 64 116 72
f 64 72 74
f 64 74 71
f 64 71 70
f 64 70 69
f 64 69 122
f 64 122 66
f 64 66 121
f 64 121 117
f 65 120 66
f 66 122 123
f 66 123 67
f 66 120 119
f 66 119 118
f 66 118 121
f 68 123 122
f 68 122 69
f 72 116 124
f 72 124 125
f 72 125 126
f 72 126 73
f 73 126 127
f 73 127 128
f 73 128 129
f 73 129 130
f 73 130 75
f 75 130 76
f 76 130 77
f 77 130 131
f 77 131 132
f 77 132 133
f 77 133 78
f 78 133 79
f 79 133 134
f 79 134 82
f 82 134 84
f 84 86 85
f 84 134 135
f 84 135 136
f 84 136 86
f 86 137 87
f 86 136 138
f 86 138 137
f 87 137 89
f 87 89 88
f 89 137 139
f 89 139 90
f 90 139 92
f 91 92 140
f 91 140 93
f 92 139 141
f 92 141 142
f 92 142 143
f 92 143 140
f 93 140 144
f 93 144 94
f 94 144 95
f 95 144 145
f 95 145 97
f 95 97 96
f 97 145 146
f 97 146 98
f 98 146 147
f 98 147 99
f 99 148 100
f 99 147 149
f 99 149 148
f 100 148 150
f 100 150 151
f 100 151 103
f 100 103 101
f 101 103 102
f 103 151 152
f 103 152 153
f 103 153 104
f 104 106 105
f 104 153 154
f 104 154 106
f 106 154 155
f 106 155 107
f 107 155 156
f 107 156 157
f 107 157 108
f 108 158 109
f 108 157 159
f 108 159 160
f 108 160 158
f 109 158 161
f 109 161 162
f 109 162 163
f 109 163 164
f 109 164 110
f 110 164 112
f 110 112 111
f 112 164 165
f 112 165 166
f 112 166 113
f 113 166 167
f 113 167 115
f 115 167 168
f 115 168 116
f 116 168 169
f 116 169 124
f 117 121 118
f 124 170 171
f 124 171 125
f 124 169 170
f 125 171 126
f 126 171 172
f 126 172 173
f 126 173 127
f 127 174 175
f 127 175 176
f 127 176 177
f 127 177 178
f 127 178 179
f 127 179 180
f 127 180 128
f 127 173 174
f 128 180 181
f 128 181 182
f 128 182 136
f 128 136 135
f 128 135 183
f 128 183 130
f 128 130 129
f 130 183 131
f 131 183 132
f 132 183 135
f 132 135 134
f 132 134 184
f 132 184 133
f 133 184 134
f 136 182 138
f 137 138 185
f 137 185 186
f 137 186 187
f 137 187 139
f 138 182 185
f 139 187 141
f 140 143 188
f 140 188 144
f 141 187 189
f 141 189 142
f 142 190 143
f 142 189 190
f 143 190 191
f 143 191 188
f 144 188 145
f 145 192 146
f 145 188 192
f 146 192 147
f 147 192 149
f 148 193 150
f 148 149 194
f 148 194 193
f 149 192 194
f 150 193 195
f 150 195 151
f 151 195 196
f 151 196 152
f 152 196 197
f 152 197 198
f 152 198 153
f 153 199 154
f 153 198 200
f 153 200 201
f 153 201 199
f 154 199 155
f 155 199 202
f 155 202 156
f 156 202 159
f 156 159 157
f 158 160 162
f 158 162 161
f 159 202 203
f 159 203 160
f 160 203 162
f 162 203 204
f 162 204 205
f 162 205 163
f 163 205 164
f 164 205 165
f 165 205 206
f 165 206 167
f 165 167 166
f 167 206 207
f 167 207 208
f 167 208 209
f 167 209 168
f 168 209 169
f 169 209 170
f 170 209 210
f 170 210 211
f 170 211 172
f 170 172 212
f 170 212 171
f 171 212 172
f 172 211 213
f 172 213 174
f 172 174 173
f 174 213 214
f 174 214 215
f 174 215 216
f 174 216 175
f 175 216 217
f 175 217 218
f 175 218 176
f 176 218 219
f 176 219 189
f 176 189 177
f 177 189 178
f 178 189 179
f 179 220 180
f 179 189 220
f 180 220 181
f 181 220 221
f 181 221 182
f 182 221 220
f 182 220 222
f 182 222 186
f 182 186 185
f 186 222 187
f 187 222 220
f 187 220 189
f 188 191 223
f 188 223 192
f 189 219 190
f 190 219 191
f 191 219 224
f 191 224 223
f 192 225 194
f 192 223 225
f 193 194 226
f 193 226 195
f 194 225 227
f 194 227 226
f 195 226 196
f 196 226 228
f 196 228 229
f 196 229 197
f 197 229 230
f 197 230 198
f 198 230 231
f 198 231 232
f 198 232 233
f 198 233 200
f 199 201 234
f 199 234 202
f 200 233 235
f 200 235 201
f 201 235 236
f 201 236 234
f 202 234 237
f 202 237 203
f 203 237 204
f 204 237 236
f 204 236 238
f 204 238 206
f 204 206 205
f 206 238 207
f 207 238 239
f 207 239 210
f 207 210 208
f 208 210 209
f 210 239 240
f 210 240 211
f 211 240 213
f 213 240 241
f 213 241 242
f 213 242 214
f 214 242 215
f 215 242 216
f 216 242 243
f 216 243 217
f 217 243 244
f 217 244 218
f 218 244 219
f 219 244 224
f 223 224 245
f 223 245 246
f 223 246 227
f 223 227 225
f 224 247 245
f 224 244 247
f 226 227 228
f 227 229 228
f 227 246 229
f 229 246 230
f 230 246 231
f 231 246 247
f 231 247 248
f 231 248 232
f 232 248 249
f 232 249 242
f 232 242 233
f 233 242 235
f 234 236 237
f 235 250 236
f 235 242 241
f 235 241 250
f 236 250 251
f 236 251 238
f 238 251 240
f 238 240 239
f 240 251 250
f 240 250 241
f 242 249 243
f 243 249 244
f 244 249 248
f 244 248 247
f 245 247 246
