v 0.008464 -0.075149 0.007800
v -0.008258 -0.042797 0.008017
v 0.008902 -0.069844 0.007800
v 0.012480 -0.069967 0.007800
v 0.011552 -0.075149 0.008120
v 0.009315 -0.075149 0.040590
v -0.015206 -0.041010 0.061981
v -0.008258 -0.047836 0.023614
v -0.008258 -0.047658 0.022789
v -0.008258 -0.046865 0.020201
v -0.008258 -0.044306 0.011933
v -0.008150 -0.040281 0.008046
v 0.009144 -0.068489 0.007800
v -0.015206 -0.038593 0.061654
v -0.015206 -0.035614 0.061763
v 0.005070 -0.048284 0.008011
v 0.005868 -0.049219 0.008011
v 0.009690 -0.054908 0.008120
v 0.012222 -0.062511 0.008120
v 0.012492 -0.064171 0.008195
v 0.012626 -0.065847 0.008229
v 0.012648 -0.066877 0.008229
v 0.012572 -0.068838 0.008120
v 0.012565 -0.069840 0.008441
v 0.012416 -0.070791 0.007880
v 0.011825 -0.074143 0.008132
v 0.011689 -0.074935 0.009105
v 0.011663 -0.075149 0.010101
v 0.011994 -0.075149 0.040584
v 0.013700 -0.067471 0.066166
v 0.012594 -0.067471 0.065777
v 0.011701 -0.067471 0.065095
v 0.011145 -0.067471 0.064271
v -0.015206 -0.040360 0.064632
v -0.015206 -0.040855 0.063355
v 0.001658 -0.045114 0.008120
v -0.015206 -0.034920 0.062330
v -0.015206 -0.034738 0.063338
v -0.013503 -0.034675 0.063338
v -0.012175 -0.034706 0.063338
v -0.010806 -0.034904 0.063361
v -0.009513 -0.035146 0.063670
v -0.008391 -0.035419 0.063338
v -0.006520 -0.035915 0.063670
v -0.007181 -0.040518 0.008435
v -0.006263 -0.040808 0.008332
v -0.003673 -0.041905 0.008223
v -0.002669 -0.042381 0.008155
v 0.004203 -0.047273 0.008183
v 0.005245 -0.048414 0.008441
v 0.009207 -0.054001 0.008120
v 0.006487 -0.049928 0.008229
v 0.007050 -0.050641 0.008229
v 0.010303 -0.056180 0.008229
v 0.010700 -0.057131 0.008229
v 0.011425 -0.059195 0.008229
v 0.013106 -0.051548 0.063017
v 0.013827 -0.052943 0.063521
v 0.011704 -0.060173 0.008229
v 0.011959 -0.061192 0.008229
v 0.016861 -0.062186 0.063332
v 0.017153 -0.064904 0.062897
v 0.017226 -0.066176 0.063332
v 0.017252 -0.067325 0.063401
v 0.012330 -0.071603 0.008120
v 0.012124 -0.072835 0.008281
v 0.011806 -0.075149 0.021083
v 0.017014 -0.067435 0.064803
v 0.015028 -0.067431 0.066229
v 0.014770 -0.066508 0.066292
v -0.015206 -0.037575 0.066160
v -0.015206 -0.038637 0.066012
v -0.015206 -0.039472 0.065594
v -0.000658 -0.043502 0.008229
v 0.000518 -0.044270 0.008349
v 0.001334 -0.044754 0.009105
v 0.002287 -0.045570 0.008229
v -0.015197 -0.034885 0.064620
v -0.014171 -0.034873 0.064620
v -0.011842 -0.034900 0.064380
v -0.011073 -0.034928 0.064036
v -0.009846 -0.035249 0.064334
v -0.008871 -0.035479 0.064403
v -0.007425 -0.035752 0.064134
v -0.004487 -0.036608 0.063670
v -0.005586 -0.036220 0.063572
v -0.006240 -0.036176 0.064426
v -0.005185 -0.036489 0.064334
v -0.005185 -0.041228 0.008435
v -0.003638 -0.036941 0.063338
v -0.002059 -0.037591 0.063504
v -0.001525 -0.042935 0.008469
v 0.003155 -0.046259 0.008326
v 0.007698 -0.044318 0.063006
v 0.009843 -0.046814 0.063338
v 0.008613 -0.052915 0.008338
v 0.010357 -0.047456 0.063240
v 0.007749 -0.051548 0.008441
v 0.011145 -0.048502 0.063006
v 0.014472 -0.054452 0.063006
v 0.011215 -0.058323 0.009105
v 0.011085 -0.058149 0.008361
v 0.014793 -0.055197 0.063338
v 0.015072 -0.055946 0.063338
v 0.011860 -0.060467 0.009065
v 0.015393 -0.056905 0.063332
v 0.016076 -0.059187 0.063000
v 0.012496 -0.050451 0.063338
v 0.013055 -0.051461 0.063979
v 0.014303 -0.054092 0.064002
v 0.016620 -0.061041 0.063332
v 0.016448 -0.060890 0.064443
v 0.016610 -0.061853 0.064580
v 0.016909 -0.063014 0.063996
v 0.016950 -0.063850 0.064334
v 0.017071 -0.066195 0.064603
v 0.016817 -0.065514 0.065113
v 0.016492 -0.066176 0.065571
v 0.016286 -0.067325 0.065714
v 0.015685 -0.066176 0.066086
v 0.014770 -0.061853 0.066212
v 0.014437 -0.063347 0.066275
v 0.012111 -0.054540 0.066263
v 0.011444 -0.053545 0.066269
v -0.013837 -0.037242 0.066189
v -0.014850 -0.036279 0.066040
v -0.015187 -0.035400 0.065502
v -0.000302 -0.043636 0.009105
v 0.000699 -0.044310 0.009105
v 0.003863 -0.041077 0.063080
v 0.004492 -0.041545 0.062822
v -0.013020 -0.034920 0.064615
v -0.014171 -0.035408 0.065479
v -0.011842 -0.035344 0.065204
v -0.007368 -0.036339 0.065307
v -0.004201 -0.036901 0.064489
v -0.002749 -0.037456 0.064477
v -0.005297 -0.036945 0.065279
v -0.000950 -0.038169 0.063899
v 0.000400 -0.038866 0.063561
v 0.001890 -0.039805 0.063006
v 0.005433 -0.042254 0.063338
v 0.006167 -0.042860 0.063338
v 0.006856 -0.043494 0.063338
v 0.007984 -0.044686 0.063670
v 0.008470 -0.045197 0.063338
v 0.009782 -0.046881 0.064351
v 0.011028 -0.048331 0.063670
v 0.011917 -0.049583 0.063006
v 0.015094 -0.056204 0.064322
v 0.015444 -0.057198 0.064334
v 0.015784 -0.058133 0.063435
v 0.016200 -0.059520 0.063664
v 0.011876 -0.049532 0.063807
v 0.012486 -0.050780 0.064557
v 0.013751 -0.053200 0.064643
v 0.014570 -0.055106 0.064586
v 0.015717 -0.058394 0.064597
v 0.015705 -0.059417 0.065216
v 0.015816 -0.060304 0.065387
v 0.016569 -0.063093 0.065176
v 0.016731 -0.064183 0.065101
v 0.015997 -0.062863 0.065714
v 0.016003 -0.065181 0.065920
v 0.015330 -0.062515 0.066092
v 0.014103 -0.059187 0.066206
v 0.013439 -0.057860 0.066252
v 0.014294 -0.058426 0.066092
v 0.010440 -0.051382 0.066235
v 0.012772 -0.055197 0.066189
v 0.011558 -0.052329 0.066138
v 0.007447 -0.047555 0.066235
v 0.004076 -0.044231 0.066223
v -0.013672 -0.036378 0.066080
v -0.009182 -0.037904 0.066189
v -0.011174 -0.037242 0.066172
v -0.011867 -0.036248 0.066000
v 0.002786 -0.040348 0.063338
v 0.003383 -0.040728 0.063670
v 0.004317 -0.041382 0.063773
v -0.012839 -0.035554 0.065525
v -0.010793 -0.035756 0.065456
v -0.009846 -0.036002 0.065553
v -0.008512 -0.036339 0.065616
v -0.003915 -0.037515 0.065342
v -0.001497 -0.038312 0.065050
v 0.001064 -0.039373 0.064431
v -0.004032 -0.038288 0.065977
v -0.003187 -0.038224 0.065720
v 0.001518 -0.039540 0.063670
v 0.006059 -0.042955 0.064437
v 0.006999 -0.043846 0.064448
v 0.008156 -0.045023 0.064448
v 0.009058 -0.046509 0.065164
v 0.010542 -0.047919 0.064586
v 0.011183 -0.048783 0.064534
v 0.015060 -0.056699 0.064912
v 0.011739 -0.049603 0.064569
v 0.011838 -0.050277 0.065090
v 0.013125 -0.052384 0.065015
v 0.013712 -0.053989 0.065284
v 0.015206 -0.057761 0.065239
v 0.015193 -0.058858 0.065599
v 0.015237 -0.060811 0.065977
v 0.015828 -0.061687 0.065662
v 0.015924 -0.064401 0.065914
v 0.013674 -0.057071 0.066138
v 0.014542 -0.056968 0.065628
v 0.013239 -0.055197 0.066063
v 0.010643 -0.050352 0.066057
v 0.008451 -0.047781 0.066115
v 0.012683 -0.054021 0.066057
v 0.005283 -0.044056 0.066046
v 0.003279 -0.042903 0.066149
v -0.001192 -0.040574 0.066189
v -0.004188 -0.039239 0.066189
v 0.000136 -0.041236 0.066183
v -0.009513 -0.037242 0.066143
v -0.010844 -0.036683 0.066069
v -0.007848 -0.037904 0.066172
v -0.008039 -0.036893 0.065903
v 0.003313 -0.040772 0.064334
v 0.005118 -0.042242 0.064655
v -0.000553 -0.038961 0.065261
v 0.000724 -0.039706 0.065313
v 0.002316 -0.040257 0.064700
v -0.005052 -0.037995 0.065994
v -0.003082 -0.039033 0.066086
v -0.001503 -0.039560 0.066012
v -0.002205 -0.038759 0.065794
v 0.006821 -0.044199 0.065336
v 0.008384 -0.045788 0.065239
v 0.009658 -0.047472 0.065399
v 0.011063 -0.049310 0.065273
v 0.014440 -0.055851 0.065336
v 0.012429 -0.051568 0.065319
v 0.012556 -0.052012 0.065456
v 0.012588 -0.052919 0.065800
v 0.013776 -0.055197 0.065708
v 0.011492 -0.051188 0.065874
v 0.010866 -0.050154 0.065880
v 0.009674 -0.048803 0.065983
v 0.007901 -0.046430 0.065949
v 0.004810 -0.043407 0.065954
v 0.002608 -0.041770 0.065977
v 0.000851 -0.040934 0.066040
v 0.003040 -0.040847 0.064924
v 0.004670 -0.042361 0.065342
v 0.005623 -0.043149 0.065330
v 0.001483 -0.040392 0.065525
v 0.002329 -0.040796 0.065445
v 0.007587 -0.045086 0.065416
v 0.010287 -0.048537 0.065513
v 0.004149 -0.042800 0.065908
v 0.003034 -0.041339 0.065502
f 1 2 3
f 1 3 13
f 1 13 4
f 1 4 5
f 1 5 28
f 1 28 67
f 1 67 29
f 1 29 6
f 1 6 7
f 1 7 8
f 1 8 9
f 1 9 10
f 1 10 11
f 1 11 2
f 2 12 13
f 2 13 3
f 2 11 7
f 2 7 14
f 2 14 15
f 2 15 12
f 4 13 16
f 4 16 17
f 4 17 18
f 4 18 19
f 4 19 20
f 4 20 21
f 4 21 22
f 4 22 23
f 4 23 24
f 4 24 25
f 4 25 5
f 5 25 26
f 5 26 27
f 5 27 28
f 6 29 30
f 6 30 31
f 6 31 32
f 6 32 33
f 6 33 34
f 6 34 35
f 6 35 7
f 7 11 10
f 7 10 9
f 7 9 8
f 7 35 34
f 7 34 73
f 7 73 72
f 7 72 71
f 7 71 38
f 7 38 37
f 7 37 15
f 7 15 14
f 12 36 16
f 12 16 13
f 12 15 37
f 12 37 38
f 12 38 39
f 12 39 40
f 12 40 41
f 12 41 42
f 12 42 43
f 12 43 44
f 12 44 45
f 12 45 46
f 12 46 47
f 12 47 48
f 12 48 36
f 16 36 49
f 16 49 50
f 16 50 17
f 17 51 18
f 17 50 52
f 17 52 53
f 17 53 51
f 18 54 55
f 18 55 56
f 18 56 19
f 18 51 57
f 18 57 58
f 18 58 54
f 19 56 59
f 19 59 60
f 19 60 61
f 19 61 20
f 20 61 62
f 20 62 21
f 21 62 63
f 21 63 22
f 22 24 23
f 22 63 64
f 22 64 24
f 24 64 25
f 25 65 26
f 25 64 65
f 26 65 66
f 26 66 64
f 26 64 27
f 27 64 28
f 28 64 67
f 29 67 64
f 29 64 68
f 29 68 69
f 29 69 30
f 30 69 70
f 30 70 71
f 30 71 72
f 30 72 31
f 31 72 73
f 31 73 32
f 32 73 34
f 32 34 33
f 36 48 74
f 36 74 75
f 36 75 76
f 36 76 77
f 36 77 49
f 38 71 78
f 38 78 39
f 39 78 79
f 39 79 40
f 40 79 80
f 40 80 81
f 40 81 41
f 41 81 42
f 42 81 82
f 42 82 83
f 42 83 84
f 42 84 44
f 42 44 43
f 44 85 86
f 44 86 46
f 44 46 45
f 44 84 87
f 44 87 88
f 44 88 85
f 46 89 47
f 46 86 90
f 46 90 89
f 47 89 91
f 47 91 48
f 48 92 74
f 48 91 92
f 49 77 93
f 49 93 94
f 49 94 50
f 50 94 95
f 50 95 52
f 51 53 96
f 51 96 57
f 52 95 97
f 52 97 53
f 53 98 96
f 53 97 99
f 53 99 98
f 54 58 100
f 54 100 55
f 55 101 102
f 55 102 56
f 55 100 103
f 55 103 104
f 55 104 101
f 56 105 59
f 56 102 101
f 56 101 106
f 56 106 107
f 56 107 105
f 57 108 109
f 57 109 58
f 57 96 108
f 58 109 110
f 58 110 103
f 58 103 100
f 59 105 60
f 60 105 111
f 60 111 61
f 61 111 112
f 61 112 113
f 61 113 114
f 61 114 62
f 62 114 63
f 63 114 115
f 63 115 116
f 63 116 64
f 64 66 65
f 64 116 68
f 68 116 117
f 68 117 118
f 68 118 119
f 68 119 69
f 69 119 120
f 69 120 70
f 70 120 121
f 70 121 122
f 70 122 123
f 70 123 124
f 70 124 125
f 70 125 71
f 71 125 126
f 71 126 127
f 71 127 78
f 74 92 128
f 74 128 75
f 75 128 129
f 75 129 76
f 76 129 130
f 76 130 131
f 76 131 77
f 77 131 93
f 78 127 79
f 79 132 80
f 79 127 133
f 79 133 132
f 80 82 81
f 80 132 134
f 80 134 82
f 82 134 83
f 83 87 84
f 83 134 135
f 83 135 87
f 85 88 136
f 85 136 137
f 85 137 91
f 85 91 90
f 85 90 86
f 87 135 138
f 87 138 136
f 87 136 88
f 89 90 91
f 91 139 140
f 91 140 92
f 91 137 139
f 92 140 141
f 92 141 128
f 93 131 142
f 93 142 143
f 93 143 144
f 93 144 94
f 94 144 145
f 94 145 146
f 94 146 95
f 95 146 147
f 95 147 148
f 95 148 97
f 96 98 149
f 96 149 108
f 97 148 99
f 98 99 149
f 99 148 149
f 101 104 106
f 103 110 150
f 103 150 104
f 104 150 151
f 104 151 106
f 105 107 111
f 106 151 152
f 106 152 107
f 107 152 153
f 107 153 111
f 108 149 154
f 108 154 109
f 109 154 155
f 109 155 156
f 109 156 110
f 110 156 157
f 110 157 150
f 111 153 112
f 112 158 159
f 112 159 113
f 112 153 151
f 112 151 158
f 113 159 160
f 113 160 161
f 113 161 115
f 113 115 114
f 115 161 162
f 115 162 116
f 116 162 117
f 117 162 118
f 118 162 161
f 118 161 163
f 118 163 164
f 118 164 119
f 119 164 120
f 120 165 121
f 120 164 165
f 121 166 167
f 121 167 122
f 121 165 168
f 121 168 166
f 122 167 123
f 123 169 124
f 123 167 170
f 123 170 171
f 123 171 169
f 124 172 173
f 124 173 125
f 124 169 172
f 125 174 126
f 125 173 175
f 125 175 176
f 125 176 174
f 126 174 177
f 126 177 127
f 127 177 133
f 128 141 178
f 128 178 130
f 128 130 129
f 130 178 179
f 130 179 180
f 130 180 131
f 131 180 142
f 132 133 134
f 133 177 181
f 133 181 134
f 134 181 182
f 134 182 183
f 134 183 135
f 135 183 184
f 135 184 138
f 136 138 185
f 136 185 137
f 137 185 186
f 137 186 187
f 137 187 139
f 138 184 188
f 138 188 189
f 138 189 185
f 139 187 140
f 140 187 190
f 140 190 141
f 141 190 178
f 142 180 143
f 143 180 191
f 143 191 144
f 144 191 192
f 144 192 145
f 145 147 146
f 145 192 193
f 145 193 147
f 147 193 194
f 147 194 195
f 147 195 148
f 148 195 196
f 148 196 154
f 148 154 149
f 150 157 197
f 150 197 151
f 151 153 152
f 151 197 158
f 154 196 198
f 154 198 155
f 155 198 199
f 155 199 200
f 155 200 156
f 156 200 201
f 156 201 197
f 156 197 157
f 158 197 159
f 159 202 160
f 159 197 202
f 160 202 203
f 160 203 204
f 160 204 205
f 160 205 161
f 161 205 163
f 163 205 204
f 163 204 206
f 163 206 164
f 164 206 165
f 165 206 204
f 165 204 168
f 166 168 207
f 166 207 167
f 167 207 170
f 168 204 208
f 168 208 209
f 168 209 207
f 169 171 210
f 169 210 211
f 169 211 172
f 170 207 209
f 170 209 171
f 171 209 212
f 171 212 210
f 172 211 213
f 172 213 214
f 172 214 173
f 173 215 216
f 173 216 175
f 173 214 217
f 173 217 215
f 174 176 218
f 174 218 219
f 174 219 177
f 175 216 220
f 175 220 176
f 176 220 218
f 177 219 221
f 177 221 184
f 177 184 183
f 177 183 182
f 177 182 181
f 178 190 179
f 179 190 222
f 179 222 180
f 180 222 223
f 180 223 191
f 184 221 188
f 185 189 186
f 186 189 224
f 186 224 187
f 187 222 190
f 187 224 225
f 187 225 226
f 187 226 222
f 188 227 228
f 188 228 229
f 188 229 230
f 188 230 189
f 188 221 227
f 189 230 224
f 191 223 231
f 191 231 192
f 192 231 193
f 193 231 232
f 193 232 194
f 194 232 233
f 194 233 195
f 195 233 234
f 195 234 198
f 195 198 196
f 197 201 235
f 197 235 202
f 198 234 199
f 199 234 236
f 199 236 200
f 200 236 237
f 200 237 201
f 201 237 238
f 201 238 239
f 201 239 235
f 202 235 208
f 202 208 203
f 203 208 204
f 208 239 209
f 208 235 239
f 209 239 238
f 209 238 212
f 210 212 240
f 210 240 241
f 210 241 242
f 210 242 211
f 211 242 243
f 211 243 213
f 212 238 240
f 213 243 244
f 213 244 245
f 213 245 214
f 214 245 246
f 214 246 217
f 215 217 228
f 215 228 216
f 216 228 220
f 217 246 228
f 218 220 228
f 218 228 227
f 218 227 221
f 218 221 219
f 222 226 247
f 222 247 223
f 223 247 248
f 223 248 249
f 223 249 231
f 224 230 225
f 225 230 250
f 225 250 251
f 225 251 247
f 225 247 226
f 228 246 229
f 229 246 245
f 229 245 230
f 230 245 250
f 231 252 232
f 231 249 244
f 231 244 252
f 232 252 233
f 233 252 243
f 233 243 253
f 233 253 234
f 234 253 237
f 234 237 236
f 237 253 241
f 237 241 240
f 237 240 238
f 241 253 242
f 242 253 243
f 243 252 244
f 244 249 248
f 244 248 254
f 244 254 245
f 245 254 255
f 245 255 251
f 245 251 250
f 247 251 255
f 247 255 248
f 248 255 254
