v 0.001125 -0.068480 0.005439
v 0.000675 -0.068482 0.005439
v 0.000675 -0.068855 0.005439
v -0.002352 -0.079163 0.005439
v -0.002723 -0.079829 0.005377
v -0.002604 -0.079163 0.005341
v 0.000852 -0.068480 0.005348
v -0.018896 -0.068480 0.005439
v -0.002584 -0.079829 0.005439
v -0.002766 -0.080340 0.005439
v -0.002810 -0.080301 0.005414
v -0.003158 -0.080511 0.005333
v -0.003195 -0.079829 0.005235
v 0.000780 -0.068480 0.005336
v -0.003195 -0.079163 0.005190
v -0.024883 -0.068480 0.005439
v -0.002934 -0.080720 0.005439
v -0.003352 -0.081038 0.005379
v -0.003804 -0.081219 0.005311
v -0.003862 -0.080495 0.005179
v 0.000130 -0.068482 0.005234
v 0.000675 -0.068480 0.005321
v -0.003195 -0.078498 0.005171
v -0.003862 -0.079829 0.005139
v -0.024860 -0.068480 0.005435
v -0.025819 -0.073845 0.005078
v -0.026483 -0.074508 0.005122
v -0.027147 -0.075175 0.005204
v -0.027652 -0.075175 0.005357
v -0.027553 -0.074732 0.005398
v -0.028211 -0.076066 0.005439
v -0.003248 -0.081135 0.005439
v -0.003543 -0.081478 0.005439
v -0.003984 -0.081702 0.005375
v -0.004474 -0.081884 0.005323
v -0.004529 -0.081157 0.005181
v -0.004529 -0.080495 0.005132
v -0.000537 -0.068482 0.005174
v -0.001201 -0.068482 0.005130
v -0.001865 -0.068482 0.005096
v -0.002531 -0.068482 0.005074
v -0.002569 -0.068482 0.005073
v -0.003233 -0.068482 0.005060
v -0.013839 -0.068482 0.004879
v -0.020499 -0.068480 0.004965
v -0.006527 -0.079163 0.004929
v -0.007194 -0.078498 0.004850
v -0.006527 -0.078498 0.004900
v -0.024355 -0.068480 0.005362
v -0.021865 -0.068480 0.005055
v -0.025155 -0.073845 0.005001
v -0.025819 -0.074508 0.005032
v -0.026483 -0.075175 0.005093
v -0.027147 -0.075836 0.005165
v -0.027814 -0.076502 0.005264
v -0.028258 -0.076502 0.005387
v -0.028182 -0.076086 0.005420
v -0.028365 -0.076502 0.005439
v -0.003877 -0.081810 0.005439
v -0.004225 -0.082138 0.005439
v -0.004367 -0.081993 0.005371
v -0.004520 -0.081993 0.005342
v -0.005193 -0.082416 0.005345
v -0.005193 -0.081993 0.005243
v -0.005196 -0.081825 0.005203
v -0.005863 -0.081825 0.005143
v -0.005196 -0.081157 0.005137
v -0.007194 -0.079163 0.004886
v -0.007858 -0.077832 0.004825
v -0.008522 -0.077168 0.004817
v -0.009186 -0.076502 0.004819
v -0.009186 -0.077168 0.004812
v -0.021827 -0.075836 0.004791
v -0.020534 -0.068480 0.004965
v -0.007858 -0.078498 0.004829
v -0.021198 -0.068480 0.004992
v -0.024486 -0.073179 0.004979
v -0.025155 -0.074508 0.004985
v -0.024486 -0.073845 0.004954
v -0.023822 -0.075836 0.004867
v -0.023822 -0.076502 0.004860
v -0.025819 -0.075175 0.005031
v -0.026483 -0.075836 0.005087
v -0.027147 -0.077165 0.005145
v -0.027147 -0.076502 0.005151
v -0.027814 -0.077165 0.005230
v -0.028316 -0.077165 0.005363
v -0.028475 -0.077165 0.005439
v -0.004587 -0.082369 0.005439
v -0.004657 -0.082286 0.005397
v -0.004767 -0.082468 0.005439
v -0.006588 -0.083162 0.005354
v -0.006527 -0.082490 0.005181
v -0.006527 -0.081993 0.005126
v -0.006527 -0.081825 0.005109
v -0.007858 -0.079163 0.004865
v -0.008522 -0.077832 0.004811
v -0.022491 -0.076502 0.004797
v -0.022491 -0.075836 0.004802
v -0.023822 -0.073179 0.004938
v -0.021163 -0.068480 0.004990
v -0.008522 -0.079163 0.004856
v -0.008522 -0.078498 0.004820
v -0.023158 -0.075836 0.004830
v -0.023158 -0.076502 0.004819
v -0.023158 -0.077165 0.004827
v -0.023822 -0.077165 0.004870
v -0.027147 -0.077833 0.005140
v -0.027814 -0.077833 0.005221
v -0.028322 -0.077833 0.005361
v -0.028496 -0.077833 0.005439
v -0.005193 -0.082686 0.005439
v -0.006588 -0.083383 0.005439
v -0.006849 -0.083493 0.005436
v -0.007191 -0.083557 0.005406
v -0.007191 -0.083156 0.005272
v -0.007855 -0.083156 0.005221
v -0.007191 -0.082490 0.005146
v -0.022494 -0.077165 0.004816
v -0.022740 -0.076502 0.004805
v -0.008522 -0.079829 0.004911
v -0.023158 -0.078498 0.004907
v -0.023158 -0.077833 0.004852
v -0.023822 -0.077833 0.004891
v -0.027147 -0.078498 0.005153
v -0.027814 -0.078498 0.005224
v -0.028319 -0.078498 0.005360
v -0.028493 -0.078157 0.005439
v -0.006846 -0.083500 0.005439
v -0.007078 -0.083593 0.005439
v -0.007579 -0.083761 0.005439
v -0.007855 -0.083667 0.005357
v -0.008522 -0.083714 0.005340
v -0.008522 -0.083156 0.005203
v -0.024486 -0.081159 0.005182
v -0.025155 -0.081159 0.005204
v -0.023822 -0.078498 0.004933
v -0.026483 -0.080492 0.005220
v -0.027147 -0.079163 0.005186
v -0.027814 -0.079163 0.005254
v -0.028284 -0.079163 0.005370
v -0.028484 -0.078498 0.005439
v -0.007855 -0.083843 0.005439
v -0.008522 -0.083937 0.005439
v -0.023378 -0.082602 0.005439
v -0.023158 -0.082394 0.005353
v -0.024486 -0.081825 0.005252
v -0.023822 -0.081825 0.005240
v -0.025819 -0.081159 0.005254
v -0.026480 -0.081179 0.005341
v -0.027182 -0.080519 0.005328
v -0.027147 -0.079831 0.005229
v -0.027832 -0.079837 0.005344
v -0.028220 -0.079620 0.005399
v -0.028414 -0.079163 0.005439
v -0.028452 -0.078855 0.005439
v -0.024149 -0.082493 0.005439
v -0.024486 -0.082300 0.005370
v -0.023822 -0.082347 0.005359
v -0.024996 -0.082235 0.005396
v -0.025193 -0.081872 0.005331
v -0.025819 -0.081681 0.005371
v -0.026254 -0.081555 0.005410
v -0.026979 -0.080970 0.005379
v -0.027620 -0.080316 0.005389
v -0.028272 -0.079670 0.005439
v -0.028325 -0.079496 0.005439
v -0.027898 -0.080159 0.005439
v -0.028127 -0.079870 0.005439
v -0.024486 -0.082430 0.005439
v -0.024848 -0.082347 0.005439
v -0.025045 -0.082292 0.005439
v -0.025344 -0.082147 0.005439
v -0.026292 -0.081599 0.005439
v -0.026463 -0.081492 0.005439
v -0.026797 -0.081256 0.005439
v -0.027060 -0.081055 0.005439
v -0.027304 -0.080812 0.005439
v -0.027484 -0.080620 0.005439
v -0.027695 -0.080390 0.005439
f 1 2 3
f 1 3 4
f 1 4 5
f 1 5 6
f 1 6 7
f 1 7 14
f 1 14 22
f 1 22 45
f 1 45 74
f 1 74 101
f 1 101 76
f 1 76 50
f 1 50 49
f 1 49 25
f 1 25 16
f 1 16 8
f 1 8 2
f 2 8 16
f 2 16 31
f 2 31 58
f 2 58 88
f 2 88 111
f 2 111 128
f 2 128 142
f 2 142 156
f 2 156 155
f 2 155 167
f 2 167 166
f 2 166 169
f 2 169 168
f 2 168 180
f 2 180 179
f 2 179 178
f 2 178 177
f 2 177 176
f 2 176 175
f 2 175 174
f 2 174 173
f 2 173 172
f 2 172 171
f 2 171 170
f 2 170 157
f 2 157 145
f 2 145 144
f 2 144 143
f 2 143 131
f 2 131 130
f 2 130 129
f 2 129 113
f 2 113 112
f 2 112 91
f 2 91 89
f 2 89 60
f 2 60 59
f 2 59 33
f 2 33 32
f 2 32 17
f 2 17 10
f 2 10 9
f 2 9 4
f 2 4 3
f 4 9 5
f 5 9 10
f 5 10 11
f 5 11 12
f 5 12 13
f 5 13 6
f 6 13 7
f 7 13 15
f 7 15 14
f 10 17 11
f 11 17 12
f 12 17 18
f 12 18 19
f 12 19 20
f 12 20 13
f 13 20 15
f 14 21 22
f 14 15 21
f 15 23 21
f 15 20 24
f 15 24 23
f 16 25 26
f 16 26 27
f 16 27 28
f 16 28 29
f 16 29 30
f 16 30 31
f 17 32 18
f 18 32 33
f 18 33 34
f 18 34 19
f 19 34 35
f 19 35 36
f 19 36 20
f 20 36 37
f 20 37 24
f 21 38 22
f 21 23 24
f 21 24 38
f 22 38 39
f 22 39 40
f 22 40 41
f 22 41 42
f 22 42 43
f 22 43 44
f 22 44 45
f 24 37 46
f 24 46 47
f 24 47 48
f 24 48 38
f 25 49 26
f 26 49 50
f 26 50 51
f 26 51 52
f 26 52 27
f 27 53 54
f 27 54 28
f 27 52 53
f 28 54 55
f 28 55 56
f 28 56 29
f 29 56 57
f 29 57 30
f 30 57 31
f 31 57 58
f 33 59 34
f 34 59 60
f 34 60 61
f 34 61 35
f 35 61 62
f 35 62 63
f 35 63 64
f 35 64 65
f 35 65 36
f 36 65 66
f 36 66 67
f 36 67 37
f 37 67 68
f 37 68 46
f 38 48 47
f 38 47 39
f 39 47 40
f 40 47 69
f 40 69 41
f 41 69 42
f 42 69 70
f 42 70 43
f 43 70 44
f 44 70 71
f 44 71 72
f 44 72 73
f 44 73 74
f 44 74 45
f 46 68 47
f 47 68 75
f 47 75 69
f 50 76 77
f 50 77 51
f 51 78 52
f 51 77 79
f 51 79 78
f 52 78 80
f 52 80 81
f 52 81 82
f 52 82 83
f 52 83 53
f 53 83 84
f 53 84 85
f 53 85 54
f 54 85 86
f 54 86 55
f 55 86 87
f 55 87 56
f 56 87 88
f 56 88 58
f 56 58 57
f 60 89 90
f 60 90 61
f 61 90 62
f 62 90 63
f 63 90 91
f 63 91 92
f 63 92 93
f 63 93 64
f 64 93 65
f 65 93 66
f 66 93 94
f 66 94 95
f 66 95 68
f 66 68 67
f 68 95 96
f 68 96 75
f 69 75 97
f 69 97 70
f 70 97 72
f 70 72 71
f 72 97 73
f 73 98 99
f 73 99 74
f 73 97 98
f 74 99 100
f 74 100 101
f 75 96 102
f 75 102 103
f 75 103 97
f 76 101 100
f 76 100 77
f 77 100 79
f 78 79 80
f 79 100 104
f 79 104 80
f 80 104 105
f 80 105 81
f 81 105 106
f 81 106 107
f 81 107 108
f 81 108 82
f 82 108 83
f 83 108 84
f 84 108 109
f 84 109 85
f 85 109 86
f 86 109 87
f 87 110 111
f 87 111 88
f 87 109 110
f 89 91 90
f 91 112 92
f 92 113 114
f 92 114 115
f 92 115 116
f 92 116 93
f 92 112 113
f 93 116 117
f 93 117 118
f 93 118 94
f 94 118 95
f 95 118 96
f 96 118 102
f 97 103 98
f 98 119 106
f 98 106 120
f 98 120 99
f 98 103 119
f 99 120 105
f 99 105 104
f 99 104 100
f 102 118 121
f 102 121 122
f 102 122 123
f 102 123 103
f 103 123 119
f 105 120 106
f 106 123 124
f 106 124 107
f 106 119 123
f 107 124 125
f 107 125 108
f 108 125 126
f 108 126 109
f 109 126 127
f 109 127 110
f 110 127 111
f 111 127 128
f 113 129 114
f 114 129 115
f 115 129 130
f 115 130 131
f 115 131 132
f 115 132 116
f 116 132 117
f 117 132 133
f 117 133 134
f 117 134 118
f 118 134 121
f 121 134 122
f 122 134 135
f 122 135 136
f 122 136 123
f 123 136 137
f 123 137 124
f 124 137 138
f 124 138 139
f 124 139 125
f 125 139 140
f 125 140 126
f 126 140 141
f 126 141 127
f 127 141 142
f 127 142 128
f 131 143 132
f 132 143 144
f 132 144 133
f 133 144 145
f 133 145 146
f 133 146 134
f 134 146 147
f 134 147 148
f 134 148 135
f 135 148 147
f 135 147 136
f 136 149 138
f 136 138 137
f 136 147 149
f 138 149 150
f 138 150 151
f 138 151 152
f 138 152 139
f 139 152 140
f 140 152 153
f 140 153 154
f 140 154 141
f 141 154 155
f 141 155 156
f 141 156 142
f 145 157 158
f 145 158 159
f 145 159 146
f 146 159 147
f 147 159 158
f 147 158 160
f 147 160 161
f 147 161 149
f 149 161 150
f 150 161 162
f 150 162 163
f 150 163 164
f 150 164 151
f 151 165 153
f 151 153 152
f 151 164 165
f 153 165 154
f 154 166 167
f 154 167 155
f 154 165 168
f 154 168 169
f 154 169 166
f 157 170 158
f 158 170 160
f 160 170 171
f 160 171 172
f 160 172 173
f 160 173 163
f 160 163 162
f 160 162 161
f 163 174 175
f 163 175 164
f 163 173 174
f 164 175 176
f 164 176 177
f 164 177 178
f 164 178 179
f 164 179 165
f 165 179 180
f 165 180 168
