v -0.033535 -0.010466 0.064287
v -0.033535 -0.010458 0.065000
v -0.040367 -0.008505 0.065000
v -0.042867 -0.007780 0.064332
v -0.042867 -0.007774 0.063668
v -0.042867 -0.007624 0.052329
v -0.033535 -0.010256 0.050320
v -0.032763 -0.005074 0.029655
v -0.032763 -0.005066 0.030323
v -0.032763 -0.004839 0.041322
v -0.033535 -0.010332 0.065663
v -0.039976 -0.008584 0.065453
v -0.042867 -0.007752 0.065000
v -0.043537 -0.007517 0.064332
v -0.043537 -0.007509 0.063668
v -0.043463 -0.007380 0.052329
v -0.043451 -0.007375 0.051661
v -0.042867 -0.007607 0.051661
v -0.040204 -0.008332 0.049657
v -0.033535 -0.010239 0.049652
v -0.032809 -0.005088 0.021114
v -0.032763 -0.000926 0.021114
v -0.032763 -0.001638 0.041322
v -0.033535 -0.008885 0.066569
v -0.033535 -0.009555 0.066426
v -0.033535 -0.010056 0.066143
v -0.034371 -0.009919 0.066031
v -0.036698 -0.009268 0.066062
v -0.039664 -0.008510 0.065897
v -0.041757 -0.007845 0.065906
v -0.042867 -0.007588 0.065663
v -0.042020 -0.007925 0.065462
v -0.043537 -0.007473 0.065000
v -0.043940 -0.007276 0.064332
v -0.043811 -0.007172 0.052993
v -0.043781 -0.007148 0.051661
v -0.043763 -0.007137 0.050989
v -0.043718 -0.007107 0.049657
v -0.043430 -0.007358 0.050989
v -0.042867 -0.007569 0.050325
v -0.040868 -0.008135 0.049657
v -0.040204 -0.008297 0.048989
v -0.039595 -0.008475 0.048989
v -0.034585 -0.009903 0.049204
v -0.033535 -0.010154 0.048989
v -0.033499 -0.005101 0.021114
v -0.032763 -0.000926 0.033520
v -0.040476 -0.001350 0.021114
v -0.040704 -0.000954 0.021119
v -0.037467 0.011134 0.037457
v -0.038227 0.017218 0.049123
v -0.038235 0.017278 0.064439
v -0.038227 0.017205 0.065121
v -0.038227 0.017106 0.065695
v -0.033535 -0.007063 0.065592
v -0.033535 -0.007287 0.065923
v -0.033535 -0.007618 0.066193
v -0.033535 -0.008217 0.066471
v -0.042496 -0.006568 0.066677
v -0.034198 -0.008885 0.066542
v -0.038227 0.015771 0.066883
v -0.038227 0.015101 0.066901
v -0.038872 0.014455 0.066914
v -0.039539 0.013790 0.066919
v -0.036200 -0.008885 0.066390
v -0.036200 -0.009342 0.066125
v -0.041311 -0.007919 0.066045
v -0.043288 -0.007257 0.066049
v -0.043627 -0.007235 0.065713
v -0.043900 -0.007241 0.065184
v -0.044250 -0.006940 0.065000
v -0.044272 -0.006951 0.064332
v -0.044523 -0.006538 0.052993
v -0.044193 -0.006841 0.052993
v -0.044172 -0.006803 0.050989
v -0.044160 -0.006789 0.050325
v -0.044137 -0.006776 0.049657
v -0.043386 -0.007325 0.049657
v -0.044087 -0.006751 0.048989
v -0.043630 -0.007082 0.048989
v -0.042867 -0.007539 0.049657
v -0.042867 -0.007429 0.048989
v -0.036177 -0.004617 0.021114
v -0.039203 -0.008554 0.048657
v -0.034357 -0.009919 0.048868
v -0.035536 -0.004751 0.021114
v -0.034168 -0.005022 0.021114
v -0.040009 -0.002111 0.021114
v -0.044637 -0.006053 0.048989
v -0.044865 -0.005550 0.048989
v -0.045230 -0.004644 0.049222
v -0.045885 -0.001928 0.048621
v -0.046537 0.000789 0.048662
v -0.047624 0.005123 0.048998
v -0.047725 0.005785 0.048998
v -0.047897 0.007120 0.049527
v -0.047868 0.007727 0.049702
v -0.047607 0.008362 0.049652
v -0.047245 0.008852 0.049244
v -0.046594 0.009525 0.048814
v -0.045943 0.010195 0.048576
v -0.039219 0.010135 0.037457
v -0.038869 0.010351 0.037457
v -0.038348 0.010671 0.037457
v -0.038015 0.010871 0.037457
v -0.038555 0.016800 0.048653
v -0.038690 0.016901 0.048998
v -0.038298 0.017404 0.049661
v -0.038347 0.017484 0.050903
v -0.038670 0.016936 0.064336
v -0.038636 0.016898 0.065000
v -0.038573 0.016824 0.065847
v -0.038260 0.016772 0.066372
v -0.038227 0.016365 0.066753
v -0.043537 -0.005550 0.066618
v -0.043537 -0.006217 0.066574
v -0.042837 -0.006828 0.066488
v -0.045536 0.003126 0.066762
v -0.046086 0.003126 0.066726
v -0.045931 0.008855 0.066699
v -0.045490 0.009098 0.066726
v -0.045535 0.008455 0.066789
v -0.046202 0.007123 0.066793
v -0.040204 -0.008092 0.066175
v -0.042203 -0.007440 0.066210
v -0.042867 -0.007334 0.066130
v -0.043521 -0.006907 0.066242
v -0.044030 -0.006699 0.066152
v -0.044178 -0.006863 0.065614
v -0.044564 -0.006584 0.065421
v -0.044582 -0.006609 0.065000
v -0.044591 -0.006620 0.064332
v -0.044730 -0.006201 0.052993
v -0.044713 -0.006165 0.050325
v -0.044502 -0.006510 0.050989
v -0.044832 -0.006217 0.063668
v -0.044494 -0.006499 0.050325
v -0.044470 -0.006472 0.049657
v -0.043298 -0.007271 0.048989
v -0.044420 -0.006384 0.048989
v -0.039747 -0.002420 0.021114
v -0.039439 -0.002726 0.021114
v -0.038983 -0.003068 0.021114
v -0.038106 -0.003648 0.021114
v -0.037552 -0.003988 0.021114
v -0.036837 -0.004343 0.021114
v -0.044697 -0.006135 0.049657
v -0.044992 -0.005550 0.049657
v -0.045164 -0.005060 0.049657
v -0.045898 -0.001988 0.048998
v -0.046478 0.000382 0.048998
v -0.047465 0.004453 0.048998
v -0.047660 0.005123 0.049661
v -0.047844 0.005976 0.049800
v -0.047878 0.006458 0.049621
v -0.048017 0.007120 0.050329
v -0.047909 0.007919 0.050329
v -0.047646 0.008455 0.050329
v -0.047297 0.008918 0.049661
v -0.046350 0.009902 0.048998
v -0.047037 0.009249 0.049661
v -0.045260 0.010838 0.048585
v -0.046017 0.010264 0.048998
v -0.043205 0.012792 0.048657
v -0.040738 0.014975 0.048455
v -0.040054 0.015620 0.048500
v -0.039351 0.016228 0.048554
v -0.039023 0.016682 0.048998
v -0.038832 0.017040 0.049661
v -0.038348 0.017473 0.050262
v -0.038835 0.017081 0.050329
v -0.045108 0.010690 0.064336
v -0.045079 0.010668 0.065000
v -0.046371 0.009963 0.049661
v -0.045931 0.009517 0.066085
v -0.046017 0.009599 0.065663
v -0.038577 0.016168 0.066690
v -0.044203 -0.004127 0.066587
v -0.044203 -0.004882 0.066520
v -0.044203 -0.005550 0.066453
v -0.044235 -0.006228 0.066260
v -0.046889 0.006461 0.066744
v -0.046521 0.003555 0.066663
v -0.046700 0.007788 0.066717
v -0.045683 0.009303 0.066529
v -0.046153 0.009068 0.066296
v -0.047232 0.008154 0.066049
v -0.047034 0.007788 0.066529
v -0.046557 0.008143 0.066677
v -0.046202 0.007788 0.066775
v -0.044604 -0.006015 0.066080
v -0.044576 -0.006343 0.065753
v -0.044942 -0.005550 0.065663
v -0.044809 -0.006217 0.065000
v -0.044835 -0.006217 0.064332
v -0.045016 -0.005550 0.050325
v -0.045107 -0.005550 0.064332
v -0.045174 -0.005074 0.050325
v -0.046488 0.000327 0.049661
v -0.047224 0.003391 0.049200
v -0.047927 0.005957 0.064336
v -0.047887 0.006061 0.050997
v -0.047884 0.006075 0.050329
v -0.047936 0.006458 0.050329
v -0.048049 0.007120 0.050997
v -0.047915 0.007924 0.050997
v -0.047947 0.007599 0.063668
v -0.047755 0.007935 0.063668
v -0.047324 0.008939 0.050329
v -0.046705 0.009629 0.049661
v -0.040169 0.015744 0.048998
v -0.039165 0.016759 0.049661
v -0.039812 0.016077 0.048998
v -0.039480 0.016348 0.048998
v -0.047119 0.008699 0.064336
v -0.046757 0.009005 0.065000
v -0.046349 0.009259 0.065663
v -0.046668 0.008926 0.065663
v -0.044681 -0.005550 0.066152
v -0.047052 0.007271 0.066704
v -0.047232 0.006819 0.066690
v -0.047455 0.006474 0.066399
v -0.047432 0.005788 0.066251
v -0.045279 -0.003547 0.066094
v -0.047336 0.007788 0.066197
v -0.046998 0.008567 0.065663
v -0.047294 0.008234 0.065663
v -0.047573 0.007788 0.065663
v -0.047432 0.007150 0.066394
v -0.045161 -0.004420 0.065897
v -0.045173 -0.004806 0.065565
v -0.045083 -0.005550 0.065000
v -0.045191 -0.005153 0.065000
v -0.047923 0.005971 0.065000
v -0.048019 0.006466 0.064336
v -0.047963 0.006458 0.050997
v -0.048026 0.007123 0.063668
v -0.047838 0.007733 0.064336
v -0.048014 0.007123 0.064336
v -0.047953 0.007188 0.065067
v -0.047871 0.007451 0.065332
v -0.047416 0.008365 0.064336
v -0.047021 0.009273 0.050329
v -0.047130 0.008710 0.063668
v -0.047089 0.008660 0.065000
v -0.047881 0.006463 0.065722
v -0.047906 0.006034 0.065471
v -0.047865 0.007098 0.065596
v -0.047377 0.008329 0.065000
v -0.045460 -0.003547 0.065663
v -0.048005 0.006466 0.065000
v -0.047821 0.007634 0.064977
f 1 2 3
f 1 3 4
f 1 4 5
f 1 5 6
f 1 6 7
f 1 7 8
f 1 8 2
f 2 8 9
f 2 9 10
f 2 10 11
f 2 11 12
f 2 12 3
f 3 12 13
f 3 13 4
f 4 13 14
f 4 14 5
f 5 15 6
f 5 14 15
f 6 15 16
f 6 16 17
f 6 17 18
f 6 18 19
f 6 19 7
f 7 19 20
f 7 20 8
f 8 21 22
f 8 22 47
f 8 47 23
f 8 23 10
f 8 10 9
f 8 20 21
f 10 23 24
f 10 24 25
f 10 25 26
f 10 26 11
f 11 26 27
f 11 27 28
f 11 28 29
f 11 29 12
f 12 29 30
f 12 30 31
f 12 31 32
f 12 32 13
f 13 32 31
f 13 31 33
f 13 33 14
f 14 33 34
f 14 34 15
f 15 34 16
f 16 34 35
f 16 35 17
f 17 35 36
f 17 36 37
f 17 37 38
f 17 38 39
f 17 39 40
f 17 40 18
f 18 40 19
f 19 41 42
f 19 42 43
f 19 43 20
f 19 40 41
f 20 43 44
f 20 44 45
f 20 45 21
f 21 46 87
f 21 87 86
f 21 86 83
f 21 83 146
f 21 146 145
f 21 145 144
f 21 144 143
f 21 143 142
f 21 142 141
f 21 141 88
f 21 88 48
f 21 48 22
f 21 45 46
f 22 48 49
f 22 49 50
f 22 50 51
f 22 51 52
f 22 52 47
f 23 47 53
f 23 53 54
f 23 54 55
f 23 55 56
f 23 56 57
f 23 57 58
f 23 58 24
f 24 59 60
f 24 60 25
f 24 58 61
f 24 61 62
f 24 62 63
f 24 63 64
f 24 64 59
f 25 60 59
f 25 59 65
f 25 65 26
f 26 65 66
f 26 66 28
f 26 28 27
f 28 66 67
f 28 67 29
f 29 67 30
f 30 67 68
f 30 68 31
f 31 69 33
f 31 68 69
f 33 69 70
f 33 70 34
f 34 70 71
f 34 71 72
f 34 72 73
f 34 73 74
f 34 74 35
f 35 74 75
f 35 75 76
f 35 76 36
f 36 76 37
f 37 76 77
f 37 77 38
f 38 78 39
f 38 77 79
f 38 79 80
f 38 80 78
f 39 78 40
f 40 78 81
f 40 81 41
f 41 81 42
f 42 82 83
f 42 83 84
f 42 84 43
f 42 81 82
f 43 84 44
f 44 84 85
f 44 85 45
f 45 85 83
f 45 83 86
f 45 86 87
f 45 87 46
f 47 52 53
f 48 88 89
f 48 89 49
f 49 89 90
f 49 90 91
f 49 91 92
f 49 92 93
f 49 93 94
f 49 94 95
f 49 95 96
f 49 96 97
f 49 97 98
f 49 98 99
f 49 99 100
f 49 100 101
f 49 101 102
f 49 102 103
f 49 103 104
f 49 104 105
f 49 105 50
f 50 105 51
f 51 105 106
f 51 106 107
f 51 107 108
f 51 108 52
f 52 109 110
f 52 110 111
f 52 111 53
f 52 108 109
f 53 111 112
f 53 112 54
f 54 112 113
f 54 113 114
f 54 114 56
f 54 56 55
f 56 114 57
f 57 114 58
f 58 114 61
f 59 115 116
f 59 116 117
f 59 117 65
f 59 64 118
f 59 118 119
f 59 119 115
f 61 114 120
f 61 120 121
f 61 121 122
f 61 122 64
f 61 64 63
f 61 63 62
f 64 122 123
f 64 123 118
f 65 117 66
f 66 117 124
f 66 124 67
f 67 124 125
f 67 125 126
f 67 126 68
f 68 126 127
f 68 127 128
f 68 128 69
f 69 129 70
f 69 128 129
f 70 129 130
f 70 130 71
f 71 131 72
f 71 130 131
f 72 131 132
f 72 132 73
f 73 133 134
f 73 134 135
f 73 135 74
f 73 132 136
f 73 136 133
f 74 135 75
f 75 135 137
f 75 137 76
f 76 137 77
f 77 137 138
f 77 138 79
f 78 80 139
f 78 139 81
f 79 140 141
f 79 141 142
f 79 142 143
f 79 143 80
f 79 138 140
f 80 143 144
f 80 144 145
f 80 145 139
f 81 139 82
f 82 139 83
f 83 85 84
f 83 139 146
f 88 141 140
f 88 140 89
f 89 140 147
f 89 147 148
f 89 148 90
f 90 148 91
f 91 148 149
f 91 149 92
f 92 149 150
f 92 150 151
f 92 151 152
f 92 152 93
f 93 152 94
f 94 152 153
f 94 153 154
f 94 154 95
f 95 154 155
f 95 155 96
f 96 155 156
f 96 156 97
f 97 156 157
f 97 157 98
f 98 157 158
f 98 158 159
f 98 159 99
f 99 160 100
f 99 159 161
f 99 161 160
f 100 160 101
f 101 162 102
f 101 160 163
f 101 163 164
f 101 164 162
f 102 162 165
f 102 165 166
f 102 166 167
f 102 167 106
f 102 106 103
f 103 106 104
f 104 106 105
f 106 167 107
f 107 168 108
f 107 167 168
f 108 168 169
f 108 169 170
f 108 170 109
f 109 170 171
f 109 171 110
f 110 172 173
f 110 173 111
f 110 171 174
f 110 174 172
f 111 173 112
f 112 175 113
f 112 173 176
f 112 176 175
f 113 175 177
f 113 177 114
f 114 177 120
f 115 119 116
f 116 178 179
f 116 179 180
f 116 180 181
f 116 181 128
f 116 128 127
f 116 127 117
f 116 119 178
f 117 127 126
f 117 126 125
f 117 125 124
f 118 123 182
f 118 182 119
f 119 182 183
f 119 183 178
f 120 184 122
f 120 122 121
f 120 177 185
f 120 185 186
f 120 186 187
f 120 187 188
f 120 188 189
f 120 189 184
f 122 190 123
f 122 184 190
f 123 190 182
f 128 181 191
f 128 191 192
f 128 192 130
f 128 130 129
f 130 192 193
f 130 193 194
f 130 194 131
f 131 194 195
f 131 195 132
f 132 195 136
f 133 196 134
f 133 136 196
f 134 196 148
f 134 148 147
f 134 147 137
f 134 137 135
f 136 195 197
f 136 197 196
f 137 147 138
f 138 147 140
f 139 145 146
f 148 196 149
f 149 196 198
f 149 198 199
f 149 199 150
f 150 200 151
f 150 199 200
f 151 200 152
f 152 200 153
f 153 199 198
f 153 198 201
f 153 201 202
f 153 202 203
f 153 203 154
f 153 200 199
f 154 203 204
f 154 204 156
f 154 156 155
f 156 204 205
f 156 205 157
f 157 205 206
f 157 206 158
f 158 206 207
f 158 207 208
f 158 208 209
f 158 209 159
f 159 209 161
f 160 161 210
f 160 210 163
f 161 209 210
f 162 164 165
f 163 211 164
f 163 210 174
f 163 174 212
f 163 212 211
f 164 211 213
f 164 213 165
f 165 213 166
f 166 213 167
f 167 213 214
f 167 214 168
f 168 214 169
f 169 212 171
f 169 171 170
f 169 214 213
f 169 213 212
f 171 212 174
f 172 215 173
f 172 174 215
f 173 215 216
f 173 216 176
f 174 210 215
f 175 176 217
f 175 217 218
f 175 218 187
f 175 187 186
f 175 186 185
f 175 185 177
f 176 216 217
f 178 183 179
f 179 183 180
f 180 183 219
f 180 219 181
f 181 219 191
f 182 220 221
f 182 221 183
f 182 190 220
f 183 221 222
f 183 222 223
f 183 223 224
f 183 224 219
f 184 189 220
f 184 220 190
f 187 225 188
f 187 218 226
f 187 226 227
f 187 227 228
f 187 228 225
f 188 220 189
f 188 225 229
f 188 229 220
f 191 224 230
f 191 230 193
f 191 193 192
f 191 219 224
f 193 231 232
f 193 232 194
f 193 230 231
f 194 232 195
f 195 232 197
f 196 197 198
f 197 232 233
f 197 233 234
f 197 234 201
f 197 201 198
f 201 234 235
f 201 235 236
f 201 236 202
f 202 236 203
f 203 236 204
f 204 236 205
f 205 236 235
f 205 235 237
f 205 237 206
f 206 237 207
f 207 238 208
f 207 237 239
f 207 239 240
f 207 240 241
f 207 241 238
f 208 238 242
f 208 242 209
f 209 243 210
f 209 242 244
f 209 244 243
f 210 243 215
f 211 212 213
f 215 243 244
f 215 244 242
f 215 242 245
f 215 245 216
f 216 245 217
f 217 245 218
f 218 245 226
f 220 229 221
f 221 229 222
f 222 229 246
f 222 246 223
f 223 246 224
f 224 246 247
f 224 247 230
f 225 228 241
f 225 241 248
f 225 248 229
f 226 245 227
f 227 245 249
f 227 249 241
f 227 241 228
f 229 248 246
f 230 247 250
f 230 250 231
f 231 250 247
f 231 247 233
f 231 233 232
f 233 247 234
f 234 247 251
f 234 251 235
f 235 239 237
f 235 251 239
f 238 252 249
f 238 249 242
f 238 241 252
f 239 251 240
f 240 251 246
f 240 246 248
f 240 248 241
f 241 249 252
f 242 249 245
f 246 251 247
