v -0.033644 -0.012042 0.010093
v -0.033792 -0.004170 0.010093
v -0.032527 -0.012042 0.010093
v -0.033660 -0.012033 0.011504
v -0.033792 -0.011963 0.015373
v -0.033793 0.015146 0.010133
v -0.032524 -0.002065 0.010093
v -0.033793 0.004197 0.011200
v -0.031527 -0.011972 0.010093
v -0.032194 -0.011984 0.016970
v -0.032861 -0.011984 0.016638
v -0.033527 -0.011966 0.016301
v -0.033792 -0.011908 0.017288
v -0.033793 0.004197 0.021114
v -0.033672 0.018986 0.010451
v -0.032862 0.018950 0.010217
v -0.030806 0.018722 0.010133
v -0.032050 -0.001330 0.010093
v -0.033793 0.018989 0.015636
v -0.030545 -0.011814 0.010093
v -0.031453 -0.011911 0.017292
v -0.032000 -0.011908 0.017906
v -0.033001 -0.011899 0.017906
v -0.033792 -0.011766 0.018304
v -0.033792 -0.011128 0.019367
v -0.033792 -0.010253 0.019952
v -0.033792 -0.009551 0.020219
v -0.033792 -0.005066 0.021121
v -0.033532 -0.004905 0.046981
v -0.033534 0.009149 0.046996
v -0.033793 0.012069 0.021114
v -0.032862 0.018956 0.011635
v -0.032156 0.018907 0.010217
v -0.030109 0.018591 0.010133
v -0.017723 0.003127 0.010093
v -0.026409 0.004197 0.010093
v -0.031432 0.018832 0.010685
v -0.030517 0.018689 0.010963
v -0.033793 0.017990 0.019367
v -0.033694 0.018844 0.017953
v -0.033661 0.018977 0.016638
v -0.032527 0.018938 0.016638
v -0.029526 -0.011586 0.010093
v -0.029526 -0.011586 0.010967
v -0.030193 -0.011699 0.016970
v -0.030193 -0.011620 0.017639
v -0.032415 -0.005033 0.047423
v -0.032607 -0.001260 0.047423
v -0.033532 0.011786 0.046952
v -0.033793 0.016778 0.020076
v -0.031527 0.018865 0.016301
v -0.029442 0.018434 0.010133
v -0.030193 0.018637 0.013638
v -0.017784 0.002195 0.010093
v -0.028351 0.018111 0.010133
v -0.027521 0.017814 0.010133
v -0.026485 0.017346 0.010133
v -0.024810 0.016331 0.010133
v -0.023988 0.015739 0.010133
v -0.022562 0.014691 0.010133
v -0.021832 0.014092 0.010133
v -0.020924 0.012977 0.010133
v -0.020298 0.012023 0.010133
v -0.019672 0.010893 0.010133
v -0.018863 0.009122 0.010133
v -0.018483 0.008031 0.010133
v -0.018166 0.006831 0.010133
v -0.017964 0.005871 0.010133
v -0.017750 0.004054 0.010130
v -0.017762 0.003784 0.012304
v -0.017813 0.003386 0.016970
v -0.017842 0.002492 0.017599
v -0.031240 0.018822 0.017105
v -0.032492 0.011993 0.046996
v -0.032862 0.018868 0.017854
v -0.032043 0.018844 0.017792
v -0.027521 -0.010927 0.010093
v -0.028560 -0.011307 0.010108
v -0.028552 -0.011304 0.010967
v -0.029526 -0.011535 0.016638
v -0.028530 -0.011213 0.016948
v -0.029242 -0.011343 0.017738
v -0.031497 -0.004854 0.047423
v -0.028341 0.003334 0.047423
v -0.029526 0.018479 0.013970
v -0.030193 0.018625 0.016970
v -0.017890 0.001341 0.010148
v -0.018203 -0.000212 0.010093
v -0.028563 0.018190 0.016638
v -0.028126 0.018042 0.010963
v -0.027521 0.017817 0.016638
v -0.025486 0.016784 0.010195
v -0.026803 0.017489 0.016638
v -0.026188 0.017173 0.016638
v -0.025344 0.016702 0.010963
v -0.024176 0.015927 0.012969
v -0.023513 0.015462 0.012633
v -0.022807 0.014830 0.017303
v -0.022311 0.014347 0.017303
v -0.021829 0.013828 0.017303
v -0.021487 0.013490 0.016301
v -0.021198 0.013117 0.016970
v -0.020366 0.011984 0.016301
v -0.020295 0.012023 0.010963
v -0.020166 0.011792 0.011635
v -0.019917 0.011336 0.012633
v -0.019752 0.010996 0.013638
v -0.019491 0.010458 0.014971
v -0.019170 0.009866 0.010155
v -0.019187 0.009793 0.014971
v -0.019011 0.009380 0.014306
v -0.018893 0.009122 0.012969
v -0.018664 0.008456 0.014306
v -0.018591 0.008274 0.013638
v -0.018533 0.008070 0.014306
v -0.018255 0.007123 0.012304
v -0.018093 0.006454 0.011635
v -0.017962 0.005789 0.012304
v -0.017910 0.005521 0.011635
v -0.017869 0.005294 0.010963
v -0.017852 0.005178 0.010177
v -0.017831 0.004959 0.010963
v -0.017849 0.004683 0.013375
v -0.017929 0.004324 0.017642
v -0.017847 0.003413 0.017653
v -0.017886 0.004874 0.014306
v -0.017938 0.005120 0.015304
v -0.017953 0.001794 0.017639
v -0.017888 0.002082 0.016970
v -0.017998 0.002459 0.018304
v -0.030193 0.018564 0.017639
v -0.024783 0.003228 0.047423
v -0.031525 0.011771 0.046996
v -0.026895 -0.010669 0.010093
v -0.027521 -0.010918 0.011303
v -0.028168 -0.011100 0.016301
v -0.028857 -0.011343 0.016301
v -0.027521 -0.010833 0.016638
v -0.026867 -0.010544 0.016970
v -0.027235 -0.010635 0.017683
v -0.028190 -0.011012 0.017639
v -0.029582 -0.004152 0.047423
v -0.028497 0.018087 0.017646
v -0.018061 0.000457 0.011303
v -0.018026 0.000560 0.010148
v -0.018423 -0.001053 0.010093
v -0.018215 -0.000212 0.011635
v -0.027276 0.017592 0.017730
v -0.025945 0.016936 0.017738
v -0.025528 0.016793 0.016638
v -0.024865 0.016358 0.016638
v -0.023554 0.015435 0.016970
v -0.023683 0.015462 0.017873
v -0.022909 0.014742 0.018304
v -0.022403 0.014250 0.018304
v -0.021921 0.013715 0.018304
v -0.021185 0.012962 0.017851
v -0.020458 0.012056 0.017255
v -0.019861 0.011118 0.016970
v -0.019927 0.011330 0.013638
v -0.019842 0.011154 0.014306
v -0.019260 0.009948 0.015636
v -0.019516 0.010458 0.016638
v -0.018947 0.009122 0.016638
v -0.018624 0.008231 0.016301
v -0.018513 0.007812 0.016970
v -0.018327 0.007123 0.016638
v -0.018105 0.006454 0.012633
v -0.017875 0.005190 0.012304
v -0.018206 0.006454 0.017303
v -0.018393 0.006494 0.018359
v -0.018077 0.004324 0.018304
v -0.018052 0.005455 0.017303
v -0.018234 0.000457 0.017639
v -0.018321 -0.000212 0.016638
v -0.018184 0.000457 0.016638
v -0.018154 0.000457 0.015636
v -0.018096 0.001794 0.018304
v -0.024905 0.002207 0.047423
v -0.029079 0.018160 0.018055
v -0.018483 0.007472 0.017745
v -0.025607 0.006454 0.046996
v -0.025863 0.007104 0.046996
v -0.026332 0.008004 0.046996
v -0.027381 0.009428 0.046996
v -0.028181 0.010130 0.046996
v -0.029327 0.010935 0.046996
v -0.030528 0.011461 0.046996
v -0.024997 -0.009615 0.010093
v -0.025920 -0.010167 0.010199
v -0.026188 -0.010216 0.016970
v -0.026928 -0.010672 0.010967
v -0.026002 -0.010028 0.017727
v -0.027610 -0.002840 0.047423
v -0.024772 -0.009271 0.017639
v -0.018284 -0.000212 0.015304
v -0.018708 -0.001898 0.010148
v -0.019033 -0.002724 0.010148
v -0.019401 -0.003487 0.010093
v -0.018396 -0.000877 0.011635
v -0.018547 -0.001305 0.012414
v -0.024739 0.016207 0.017639
v -0.019721 0.010704 0.017734
v -0.019202 0.009760 0.016638
v -0.019170 0.009483 0.017705
v -0.018744 0.008456 0.017303
v -0.018514 -0.000895 0.016970
v -0.018481 -0.000339 0.017920
v -0.025675 -0.000072 0.047423
v -0.018794 -0.001545 0.017639
v -0.018931 0.008456 0.018304
v -0.023454 -0.008566 0.010093
v -0.024292 -0.009168 0.010199
v -0.024272 -0.009159 0.011635
v -0.025657 -0.010009 0.010967
v -0.025370 -0.009782 0.015636
v -0.025555 -0.009864 0.016638
v -0.023653 -0.008445 0.017727
v -0.023015 -0.007892 0.017895
v -0.022173 -0.007220 0.017639
v -0.026939 -0.002162 0.047423
v -0.024193 -0.008864 0.017639
v -0.024723 -0.009311 0.016970
v -0.018605 -0.001241 0.016301
v -0.018955 -0.002211 0.016301
v -0.018962 -0.002493 0.011635
v -0.019208 -0.002833 0.016301
v -0.019354 -0.003323 0.012304
v -0.019979 -0.004541 0.010093
v -0.019870 -0.004185 0.016638
v -0.018731 -0.001545 0.016970
v -0.019766 -0.003827 0.017683
v -0.019183 -0.002554 0.017661
v -0.019112 -0.002062 0.018176
v -0.019095 -0.002514 0.016970
v -0.022585 -0.007831 0.010093
v -0.023491 -0.008579 0.011135
v -0.024105 -0.009049 0.010967
v -0.023947 -0.008816 0.015636
v -0.024591 -0.009293 0.015874
v -0.023778 -0.008615 0.016970
v -0.022842 -0.007895 0.016638
v -0.022126 -0.007266 0.016970
v -0.021671 -0.006756 0.017303
v -0.021228 -0.006169 0.017639
v -0.020606 -0.005373 0.017277
v -0.019546 -0.003547 0.016638
v -0.020556 -0.005504 0.010093
v -0.020263 -0.004878 0.016970
v -0.022016 -0.007284 0.010093
v -0.022417 -0.007658 0.010967
v -0.022986 -0.008053 0.015636
v -0.023586 -0.008506 0.016301
v -0.021432 -0.006649 0.010093
v -0.021185 -0.006227 0.016970
v -0.020951 -0.006054 0.010093
f 1 2 7
f 1 7 18
f 1 18 36
f 1 36 35
f 1 35 54
f 1 54 88
f 1 88 146
f 1 146 199
f 1 199 229
f 1 229 248
f 1 248 256
f 1 256 254
f 1 254 250
f 1 250 236
f 1 236 212
f 1 212 189
f 1 189 134
f 1 134 77
f 1 77 43
f 1 43 20
f 1 20 9
f 1 9 3
f 1 3 4
f 1 4 5
f 1 5 2
f 2 6 7
f 2 5 8
f 2 8 6
f 3 9 10
f 3 10 4
f 4 11 12
f 4 12 5
f 4 10 11
f 5 12 13
f 5 13 14
f 5 14 8
f 6 15 16
f 6 16 17
f 6 17 18
f 6 18 7
f 6 8 14
f 6 14 31
f 6 31 50
f 6 50 39
f 6 39 19
f 6 19 15
f 9 20 21
f 9 21 10
f 10 21 22
f 10 22 23
f 10 23 11
f 11 23 13
f 11 13 12
f 13 23 24
f 13 24 14
f 14 24 25
f 14 25 26
f 14 26 27
f 14 27 28
f 14 28 29
f 14 29 30
f 14 30 31
f 15 19 32
f 15 32 16
f 16 32 33
f 16 33 17
f 17 34 35
f 17 35 36
f 17 36 18
f 17 33 37
f 17 37 38
f 17 38 34
f 19 39 40
f 19 40 41
f 19 41 42
f 19 42 32
f 20 43 44
f 20 44 45
f 20 45 21
f 21 45 46
f 21 46 22
f 22 47 23
f 22 46 47
f 23 47 24
f 24 47 29
f 24 29 25
f 25 29 26
f 26 29 27
f 27 29 28
f 29 47 48
f 29 48 30
f 30 49 31
f 30 48 49
f 31 49 50
f 32 42 33
f 33 42 51
f 33 51 37
f 34 52 35
f 34 38 53
f 34 53 52
f 35 52 55
f 35 55 56
f 35 56 57
f 35 57 58
f 35 58 59
f 35 59 60
f 35 60 61
f 35 61 62
f 35 62 63
f 35 63 64
f 35 64 65
f 35 65 66
f 35 66 67
f 35 67 68
f 35 68 69
f 35 69 70
f 35 70 71
f 35 71 72
f 35 72 54
f 37 51 38
f 38 51 73
f 38 73 53
f 39 50 49
f 39 49 40
f 40 49 74
f 40 74 75
f 40 75 41
f 41 75 76
f 41 76 42
f 42 76 73
f 42 73 51
f 43 77 78
f 43 78 44
f 44 78 79
f 44 79 80
f 44 80 45
f 45 80 81
f 45 81 82
f 45 82 46
f 46 82 83
f 46 83 47
f 47 83 142
f 47 142 194
f 47 194 221
f 47 221 209
f 47 209 179
f 47 179 132
f 47 132 84
f 47 84 48
f 48 84 74
f 48 74 49
f 52 53 85
f 52 85 55
f 53 73 86
f 53 86 85
f 54 87 88
f 54 72 87
f 55 85 89
f 55 89 90
f 55 90 56
f 56 90 91
f 56 91 57
f 57 92 58
f 57 91 93
f 57 93 94
f 57 94 92
f 58 92 95
f 58 95 96
f 58 96 97
f 58 97 59
f 59 97 60
f 60 97 61
f 61 97 98
f 61 98 99
f 61 99 100
f 61 100 101
f 61 101 102
f 61 102 62
f 62 103 104
f 62 104 63
f 62 102 103
f 63 104 64
f 64 104 105
f 64 105 106
f 64 106 107
f 64 107 108
f 64 108 109
f 64 109 65
f 65 109 110
f 65 110 111
f 65 111 112
f 65 112 113
f 65 113 114
f 65 114 66
f 66 114 115
f 66 115 116
f 66 116 67
f 67 116 117
f 67 117 68
f 68 117 118
f 68 118 119
f 68 119 120
f 68 120 121
f 68 121 69
f 69 121 122
f 69 122 70
f 70 122 123
f 70 123 71
f 71 124 125
f 71 125 72
f 71 123 126
f 71 126 127
f 71 127 124
f 72 128 129
f 72 129 87
f 72 125 130
f 72 130 128
f 73 131 86
f 73 76 131
f 74 76 75
f 74 84 132
f 74 132 133
f 74 133 131
f 74 131 76
f 77 134 135
f 77 135 79
f 77 79 78
f 79 135 136
f 79 136 137
f 79 137 80
f 80 137 81
f 81 137 136
f 81 136 138
f 81 138 139
f 81 139 140
f 81 140 141
f 81 141 82
f 82 141 83
f 83 141 142
f 85 86 89
f 86 131 143
f 86 143 89
f 87 144 145
f 87 145 88
f 87 129 144
f 88 145 147
f 88 147 146
f 89 143 91
f 89 91 90
f 91 143 148
f 91 148 93
f 92 94 95
f 93 148 149
f 93 149 94
f 94 150 95
f 94 149 150
f 95 150 96
f 96 150 151
f 96 151 152
f 96 152 97
f 97 152 98
f 98 152 153
f 98 153 154
f 98 154 155
f 98 155 99
f 99 155 100
f 100 102 101
f 100 155 156
f 100 156 157
f 100 157 102
f 102 157 158
f 102 158 103
f 103 105 104
f 103 158 159
f 103 159 105
f 105 159 160
f 105 160 106
f 106 160 161
f 106 161 107
f 107 161 108
f 108 162 109
f 108 161 159
f 108 159 163
f 108 163 162
f 109 162 110
f 110 162 111
f 111 162 164
f 111 164 112
f 112 164 113
f 113 165 115
f 113 115 114
f 113 164 165
f 115 165 166
f 115 166 167
f 115 167 116
f 116 168 117
f 116 167 168
f 117 168 118
f 118 169 119
f 118 168 167
f 118 167 170
f 118 170 127
f 118 127 169
f 119 169 120
f 120 122 121
f 120 169 122
f 122 169 123
f 123 169 126
f 124 171 172
f 124 172 125
f 124 127 173
f 124 173 170
f 124 170 171
f 125 172 132
f 125 132 130
f 126 169 127
f 127 170 173
f 128 174 175
f 128 175 176
f 128 176 177
f 128 177 144
f 128 144 129
f 128 130 178
f 128 178 174
f 130 132 179
f 130 179 178
f 131 133 180
f 131 180 143
f 132 172 171
f 132 171 181
f 132 181 182
f 132 182 183
f 132 183 184
f 132 184 185
f 132 185 186
f 132 186 187
f 132 187 188
f 132 188 133
f 133 188 143
f 133 143 180
f 134 189 190
f 134 190 191
f 134 191 192
f 134 192 135
f 135 192 138
f 135 138 136
f 138 192 139
f 139 192 191
f 139 191 140
f 140 193 142
f 140 142 141
f 140 191 193
f 142 193 195
f 142 195 194
f 143 188 148
f 144 177 196
f 144 196 147
f 144 147 145
f 146 197 198
f 146 198 199
f 146 147 200
f 146 200 201
f 146 201 197
f 147 196 200
f 148 188 187
f 148 187 149
f 149 187 202
f 149 202 150
f 150 202 151
f 151 202 152
f 152 202 153
f 153 187 186
f 153 186 154
f 153 202 187
f 154 186 185
f 154 185 155
f 155 185 156
f 156 185 157
f 157 185 184
f 157 184 203
f 157 203 158
f 158 203 159
f 159 203 163
f 159 161 160
f 162 163 204
f 162 204 164
f 163 203 204
f 164 204 205
f 164 205 206
f 164 206 165
f 165 206 166
f 166 206 181
f 166 181 170
f 166 170 167
f 170 181 171
f 174 207 175
f 174 178 179
f 174 179 208
f 174 208 207
f 175 207 196
f 175 196 177
f 175 177 176
f 179 209 210
f 179 210 208
f 181 205 211
f 181 211 182
f 181 206 205
f 182 211 205
f 182 205 183
f 183 205 203
f 183 203 184
f 189 212 213
f 189 213 214
f 189 214 215
f 189 215 190
f 190 215 216
f 190 216 191
f 191 217 193
f 191 216 217
f 193 217 195
f 194 218 219
f 194 219 220
f 194 220 221
f 194 195 222
f 194 222 218
f 195 217 223
f 195 223 222
f 196 207 200
f 197 201 224
f 197 224 225
f 197 225 226
f 197 226 198
f 198 226 227
f 198 227 228
f 198 228 199
f 199 228 230
f 199 230 229
f 200 207 224
f 200 224 201
f 203 205 204
f 207 208 210
f 207 210 231
f 207 231 224
f 209 221 232
f 209 232 233
f 209 233 234
f 209 234 210
f 210 235 231
f 210 234 233
f 210 233 235
f 212 236 237
f 212 237 238
f 212 238 213
f 213 238 214
f 214 238 239
f 214 239 240
f 214 240 216
f 214 216 215
f 216 240 217
f 217 240 223
f 218 222 241
f 218 241 242
f 218 242 243
f 218 243 219
f 219 243 220
f 220 243 244
f 220 244 245
f 220 245 221
f 221 245 246
f 221 246 232
f 222 223 241
f 223 240 241
f 224 231 225
f 225 227 226
f 225 231 235
f 225 235 227
f 227 235 247
f 227 247 228
f 228 247 230
f 229 230 249
f 229 249 248
f 230 247 232
f 230 232 249
f 232 246 249
f 232 247 235
f 232 235 233
f 236 250 251
f 236 251 243
f 236 243 252
f 236 252 237
f 237 252 239
f 237 239 238
f 239 252 253
f 239 253 240
f 240 253 241
f 241 253 242
f 242 253 252
f 242 252 243
f 243 251 250
f 243 250 254
f 243 254 255
f 243 255 244
f 244 255 245
f 245 255 246
f 246 255 248
f 246 248 249
f 248 255 256
f 254 256 255
