v -0.030860 -0.011140 0.060998
v -0.030192 -0.011108 0.060998
v -0.030860 -0.011135 0.064336
v -0.031527 -0.011059 0.064336
v -0.031529 -0.010907 0.051661
v -0.030860 -0.011028 0.051661
v -0.029524 -0.010855 0.064336
v -0.030192 -0.011107 0.061666
v -0.030192 -0.010988 0.051661
v -0.029524 -0.010829 0.059665
v -0.029524 -0.010838 0.060333
v -0.030160 -0.011069 0.064351
v -0.030860 -0.011094 0.065002
v -0.031527 -0.011033 0.065002
v -0.032193 -0.010856 0.065002
v -0.032193 -0.010873 0.064336
v -0.031527 -0.010899 0.050997
v -0.033534 -0.010465 0.064287
v -0.032193 -0.010685 0.050331
v -0.030859 -0.011009 0.050997
v -0.028921 -0.010497 0.064336
v -0.028952 -0.010487 0.065095
v -0.029524 -0.010798 0.065002
v -0.030192 -0.010944 0.050331
v -0.029692 -0.010761 0.050331
v -0.029142 -0.010590 0.059001
v -0.029242 -0.010516 0.050331
v -0.030192 -0.011015 0.065002
v -0.030860 -0.010920 0.065671
v -0.031527 -0.010861 0.065671
v -0.032730 -0.010607 0.065484
v -0.033354 -0.010505 0.065111
v -0.031527 -0.010869 0.050331
v -0.033534 -0.010336 0.065671
v -0.033534 -0.010249 0.051661
v -0.033533 -0.010257 0.050325
v -0.033533 -0.010242 0.049659
v -0.032463 -0.010579 0.049717
v -0.030859 -0.010975 0.050331
v -0.028354 -0.010049 0.065002
v -0.028411 -0.009991 0.065492
v -0.028876 -0.010220 0.065654
v -0.029573 -0.010634 0.065625
v -0.030192 -0.010822 0.065671
v -0.030859 -0.010923 0.049663
v -0.030192 -0.010889 0.049663
v -0.029720 -0.010723 0.049663
v -0.028592 -0.009946 0.050455
v -0.028486 -0.009920 0.052334
v -0.029297 -0.010478 0.049663
v -0.028725 -0.010001 0.049663
v -0.030860 -0.010674 0.066148
v -0.031527 -0.010634 0.066096
v -0.032129 -0.010591 0.065924
v -0.031527 -0.010825 0.049663
v -0.033532 -0.010057 0.066143
v -0.033534 -0.008886 0.066571
v -0.033534 -0.005519 0.051661
v -0.033533 -0.008243 0.047428
v -0.033533 -0.008886 0.047486
v -0.033533 -0.009502 0.047770
v -0.033533 -0.009912 0.048255
v -0.033533 -0.010154 0.048993
v -0.032252 -0.010570 0.048997
v -0.020554 -0.002526 0.065002
v -0.019799 -0.001661 0.065669
v -0.020360 -0.002011 0.066162
v -0.027890 -0.009195 0.065960
v -0.028591 -0.009822 0.065934
v -0.029037 -0.010002 0.066117
v -0.029385 -0.010447 0.065817
v -0.029994 -0.010590 0.066057
v -0.031527 -0.010749 0.048997
v -0.030859 -0.010805 0.048997
v -0.030638 -0.010617 0.048559
v -0.030039 -0.010624 0.048962
v -0.027195 -0.008548 0.049721
v -0.020404 -0.002005 0.050331
v -0.020211 -0.002193 0.065002
v -0.028833 -0.009912 0.048997
v -0.028084 -0.009308 0.048997
v -0.030192 -0.010222 0.066372
v -0.030860 -0.010222 0.066437
v -0.031527 -0.010222 0.066366
v -0.032861 -0.010141 0.066207
v -0.033532 -0.009553 0.066431
v -0.033534 -0.008220 0.066475
v -0.032861 -0.009552 0.066509
v -0.032193 -0.009552 0.066534
v -0.030192 -0.009552 0.066581
v -0.029184 -0.008567 0.066670
v -0.021524 0.002452 0.066882
v -0.021524 0.003224 0.066867
v -0.022191 0.003331 0.066828
v -0.033534 -0.005142 0.052786
v -0.033533 -0.001243 0.047759
v -0.033533 -0.002290 0.047428
v -0.033532 -0.001417 0.046992
v -0.033529 -0.004907 0.046992
v -0.032861 -0.008886 0.047474
v -0.032193 -0.009552 0.047656
v -0.032193 -0.010022 0.047887
v -0.032728 -0.009960 0.047928
v -0.032080 -0.010481 0.048479
v -0.019449 -0.000886 0.065669
v -0.019747 -0.001385 0.066162
v -0.019783 -0.001688 0.065002
v -0.020158 -0.001584 0.066386
v -0.020673 -0.001786 0.066608
v -0.027652 -0.008749 0.066139
v -0.028830 -0.009582 0.066261
v -0.029524 -0.009552 0.066530
v -0.029573 -0.010222 0.066189
v -0.031527 -0.010509 0.048353
v -0.029323 -0.009987 0.048545
v -0.030859 -0.010178 0.048059
v -0.029686 -0.009601 0.047994
v -0.020431 -0.001981 0.049663
v -0.019924 -0.001485 0.050331
v -0.019758 -0.001334 0.050997
v -0.028363 -0.009342 0.048495
v -0.020479 -0.001937 0.049209
v -0.027691 -0.008720 0.048469
v -0.026006 -0.007079 0.048329
v -0.021861 -0.003083 0.048481
v -0.022762 0.003331 0.066596
v -0.033534 -0.007620 0.066193
v -0.028722 -0.008443 0.066655
v -0.028387 -0.007999 0.066682
v -0.020855 -0.000886 0.066847
v -0.020855 -0.000218 0.066853
v -0.020103 -0.000218 0.066694
v -0.020883 0.003277 0.066627
v -0.020413 0.003331 0.066166
v -0.033534 -0.005116 0.053713
v -0.033533 -0.001015 0.048999
v -0.033533 -0.001106 0.048335
v -0.032608 -0.001336 0.046992
v -0.028337 0.003328 0.047426
v -0.032734 -0.004852 0.046992
v -0.032193 -0.008886 0.047486
v -0.031527 -0.009552 0.047685
v -0.031527 -0.010057 0.047895
v -0.019403 -0.000218 0.065669
v -0.019667 -0.000886 0.066283
v -0.019435 -0.000886 0.065002
v -0.019343 -0.000218 0.065002
v -0.020114 -0.000886 0.066688
v -0.020404 -0.001341 0.066717
v -0.019486 -0.000886 0.050997
v -0.022484 -0.003252 0.066682
v -0.028176 -0.008220 0.066606
v -0.028795 -0.009121 0.047975
v -0.030304 -0.009760 0.047913
v -0.019792 -0.001172 0.049655
v -0.019532 -0.000886 0.050331
v -0.026398 -0.007332 0.048138
v -0.027166 -0.007906 0.047981
v -0.020564 -0.001821 0.048765
v -0.025784 -0.006628 0.047934
v -0.022464 -0.003283 0.047955
v -0.023328 0.003331 0.066152
v -0.033534 -0.007176 0.065757
v -0.027941 -0.007785 0.066660
v -0.022234 -0.002848 0.066717
v -0.019660 -0.000218 0.066283
v -0.019725 0.000450 0.066181
v -0.019853 0.001458 0.066008
v -0.020230 0.003331 0.065669
v -0.033534 -0.006844 0.065005
v -0.033533 -0.001120 0.049863
v -0.028577 0.003328 0.049264
v -0.028551 0.003328 0.048606
v -0.024782 0.003328 0.047426
v -0.022857 -0.001553 0.047521
v -0.024215 0.003331 0.051662
v -0.025526 -0.004883 0.047509
v -0.026854 -0.006218 0.047498
v -0.027521 -0.006883 0.047504
v -0.028857 -0.007553 0.047471
v -0.029524 -0.008220 0.047517
v -0.022857 -0.002219 0.047545
v -0.031527 -0.008886 0.047521
v -0.030859 -0.009552 0.047753
v -0.030192 -0.008886 0.047611
v -0.019511 0.000450 0.065669
v -0.019413 0.000450 0.065002
v -0.019261 -0.000218 0.050997
v -0.019275 0.000450 0.050997
v -0.028344 -0.008705 0.047922
v -0.029524 -0.008886 0.047681
v -0.019857 -0.000846 0.049061
v -0.019421 -0.000218 0.049663
v -0.019312 -0.000218 0.050331
v -0.026909 -0.007522 0.047876
v -0.021773 -0.002409 0.047942
v -0.020422 -0.001378 0.048567
v -0.026220 -0.006863 0.047844
v -0.025547 -0.006192 0.047846
v -0.022885 -0.003523 0.047874
v -0.022221 -0.002848 0.047885
v -0.023588 0.003331 0.065666
v -0.019854 0.002120 0.065338
v -0.020156 0.003331 0.065002
v -0.023726 0.003331 0.065103
v -0.023810 0.003331 0.064365
v -0.024365 0.003331 0.053668
v -0.024344 0.003331 0.053105
v -0.020085 0.003331 0.051662
v -0.021626 0.003328 0.047667
v -0.021521 0.002450 0.047642
v -0.021521 0.001784 0.047642
v -0.022188 -0.000886 0.047597
v -0.022188 -0.001553 0.047617
v -0.026192 -0.006218 0.047611
v -0.026854 -0.006883 0.047622
v -0.028190 -0.007553 0.047541
v -0.028857 -0.008220 0.047597
v -0.022188 -0.002219 0.047704
v -0.022857 -0.002887 0.047669
v -0.019438 0.001115 0.050997
v -0.019576 0.001115 0.064336
v -0.019303 0.000450 0.050331
v -0.019473 0.001115 0.049663
v -0.019449 0.001115 0.050331
v -0.027521 -0.007553 0.047681
v -0.019804 -0.000164 0.048732
v -0.019546 0.000450 0.048997
v -0.019367 0.000450 0.049663
v -0.021129 -0.001310 0.047959
v -0.020309 -0.000886 0.048460
v -0.020075 0.003328 0.050997
v -0.020072 0.003328 0.050331
v -0.020088 0.003328 0.049558
v -0.020159 0.003328 0.048913
v -0.021006 0.003328 0.047833
v -0.020855 0.001784 0.047780
v -0.021521 -0.000218 0.047685
v -0.021521 -0.000886 0.047733
v -0.019558 0.001115 0.048997
v -0.019691 0.001784 0.048997
v -0.019655 0.001784 0.049663
v -0.019769 0.000450 0.048559
v -0.019744 0.001115 0.048512
v -0.020865 -0.000886 0.048020
v -0.020932 -0.000218 0.047876
v -0.020142 -0.000219 0.048411
v -0.020598 -0.000218 0.048041
v -0.019822 0.002219 0.048812
v -0.019786 0.001784 0.048561
v -0.020493 0.003277 0.048185
v -0.020577 0.002600 0.047950
v -0.020264 0.001784 0.048084
v -0.020268 0.001115 0.048064
v -0.020855 0.001115 0.047800
v -0.020350 0.000533 0.048078
f 1 2 3
f 1 3 4
f 1 4 5
f 1 5 6
f 1 6 2
f 2 7 8
f 2 8 3
f 2 6 9
f 2 9 10
f 2 10 11
f 2 11 7
f 3 8 12
f 3 12 13
f 3 13 14
f 3 14 4
f 4 14 15
f 4 15 16
f 4 16 5
f 5 17 6
f 5 16 18
f 5 18 19
f 5 19 17
f 6 17 20
f 6 20 9
f 7 12 8
f 7 11 21
f 7 21 22
f 7 22 23
f 7 23 12
f 9 20 24
f 9 24 25
f 9 25 10
f 10 26 11
f 10 25 27
f 10 27 26
f 11 26 21
f 12 28 13
f 12 23 28
f 13 28 29
f 13 29 30
f 13 30 14
f 14 30 31
f 14 31 15
f 15 31 32
f 15 32 16
f 16 32 18
f 17 19 33
f 17 33 20
f 18 32 34
f 18 34 57
f 18 57 87
f 18 87 127
f 18 127 163
f 18 163 170
f 18 170 135
f 18 135 95
f 18 95 58
f 18 58 35
f 18 35 36
f 18 36 19
f 19 36 37
f 19 37 38
f 19 38 33
f 20 33 39
f 20 39 24
f 21 40 22
f 21 26 40
f 22 41 42
f 22 42 43
f 22 43 23
f 22 40 41
f 23 43 44
f 23 44 28
f 24 39 45
f 24 45 46
f 24 46 47
f 24 47 25
f 25 47 27
f 26 27 40
f 27 48 49
f 27 49 40
f 27 47 50
f 27 50 51
f 27 51 48
f 28 44 29
f 29 44 52
f 29 52 30
f 30 52 53
f 30 53 54
f 30 54 34
f 30 34 31
f 31 34 32
f 33 38 55
f 33 55 39
f 34 54 56
f 34 56 57
f 35 58 97
f 35 97 59
f 35 59 60
f 35 60 61
f 35 61 62
f 35 62 63
f 35 63 37
f 35 37 36
f 37 63 64
f 37 64 38
f 38 64 55
f 39 55 45
f 40 65 66
f 40 66 41
f 40 49 65
f 41 66 67
f 41 67 68
f 41 68 69
f 41 69 42
f 42 69 70
f 42 70 71
f 42 71 43
f 43 71 72
f 43 72 44
f 44 72 52
f 45 55 73
f 45 73 74
f 45 74 46
f 46 74 75
f 46 75 76
f 46 76 47
f 47 76 50
f 48 51 77
f 48 77 78
f 48 78 49
f 49 78 79
f 49 79 65
f 50 76 80
f 50 80 81
f 50 81 51
f 51 81 77
f 52 72 82
f 52 82 83
f 52 83 84
f 52 84 53
f 53 84 85
f 53 85 56
f 53 56 54
f 55 64 73
f 56 85 86
f 56 86 57
f 57 86 88
f 57 88 89
f 57 89 90
f 57 90 91
f 57 91 92
f 57 92 93
f 57 93 94
f 57 94 87
f 58 95 96
f 58 96 97
f 59 97 98
f 59 98 99
f 59 99 60
f 60 99 100
f 60 100 101
f 60 101 61
f 61 101 102
f 61 102 103
f 61 103 62
f 62 104 63
f 62 103 104
f 63 104 64
f 64 104 73
f 65 79 66
f 66 105 106
f 66 106 67
f 66 79 107
f 66 107 105
f 67 106 108
f 67 108 68
f 68 108 109
f 68 109 110
f 68 110 70
f 68 70 69
f 70 72 71
f 70 110 111
f 70 111 112
f 70 112 113
f 70 113 72
f 72 113 82
f 73 104 114
f 73 114 74
f 74 114 75
f 75 115 76
f 75 114 116
f 75 116 117
f 75 117 115
f 76 115 80
f 77 81 118
f 77 118 78
f 78 119 120
f 78 120 79
f 78 118 119
f 79 120 107
f 80 115 121
f 80 121 81
f 81 122 118
f 81 121 123
f 81 123 124
f 81 124 125
f 81 125 122
f 82 112 83
f 82 113 112
f 83 112 90
f 83 90 89
f 83 89 88
f 83 88 84
f 84 88 86
f 84 86 85
f 87 94 126
f 87 126 127
f 90 112 91
f 91 128 129
f 91 129 130
f 91 130 92
f 91 112 128
f 92 130 131
f 92 131 93
f 93 131 132
f 93 132 133
f 93 133 94
f 94 133 134
f 94 134 169
f 94 169 204
f 94 204 209
f 94 209 176
f 94 176 208
f 94 208 207
f 94 207 206
f 94 206 205
f 94 205 202
f 94 202 162
f 94 162 126
f 95 135 136
f 95 136 137
f 95 137 96
f 96 98 97
f 96 137 98
f 98 138 140
f 98 140 99
f 98 137 139
f 98 139 138
f 99 140 100
f 100 141 101
f 100 140 141
f 101 141 142
f 101 142 143
f 101 143 102
f 102 143 114
f 102 114 103
f 103 114 104
f 105 144 145
f 105 145 106
f 105 107 146
f 105 146 147
f 105 147 144
f 106 145 148
f 106 148 149
f 106 149 108
f 107 120 150
f 107 150 146
f 108 149 109
f 109 149 151
f 109 151 111
f 109 111 110
f 111 151 112
f 112 152 128
f 112 151 152
f 114 143 116
f 115 117 153
f 115 153 121
f 116 143 154
f 116 154 117
f 117 154 153
f 118 122 155
f 118 155 119
f 119 156 120
f 119 155 156
f 120 156 150
f 121 157 123
f 121 153 158
f 121 158 157
f 122 125 159
f 122 159 155
f 123 157 124
f 124 157 160
f 124 160 125
f 125 160 161
f 125 161 159
f 126 162 127
f 127 162 163
f 128 164 129
f 128 152 164
f 129 164 130
f 130 164 165
f 130 165 149
f 130 149 148
f 130 148 132
f 130 132 131
f 132 148 145
f 132 145 166
f 132 166 133
f 133 166 134
f 134 167 168
f 134 168 169
f 134 166 167
f 135 170 171
f 135 171 136
f 136 171 172
f 136 172 173
f 136 173 137
f 137 173 139
f 138 139 174
f 138 174 175
f 138 175 140
f 139 173 176
f 139 176 209
f 139 209 174
f 140 177 178
f 140 178 179
f 140 179 180
f 140 180 181
f 140 181 141
f 140 175 182
f 140 182 177
f 141 181 183
f 141 183 142
f 142 184 143
f 142 183 185
f 142 185 184
f 143 184 154
f 144 186 167
f 144 167 166
f 144 166 145
f 144 147 187
f 144 187 186
f 146 150 188
f 146 188 147
f 147 188 189
f 147 189 187
f 149 165 151
f 150 156 188
f 151 165 164
f 151 164 152
f 153 190 158
f 153 154 191
f 153 191 190
f 154 184 191
f 155 159 192
f 155 192 193
f 155 193 156
f 156 193 194
f 156 194 188
f 157 158 160
f 158 190 195
f 158 195 160
f 159 161 196
f 159 196 197
f 159 197 192
f 160 195 198
f 160 198 199
f 160 199 161
f 161 199 200
f 161 200 201
f 161 201 196
f 162 202 163
f 163 202 170
f 167 186 168
f 168 186 169
f 169 186 203
f 169 203 204
f 170 202 171
f 171 202 172
f 172 202 205
f 172 205 206
f 172 206 207
f 172 207 208
f 172 208 173
f 173 208 176
f 174 209 210
f 174 210 211
f 174 211 175
f 175 211 212
f 175 212 213
f 175 213 214
f 175 214 182
f 177 182 215
f 177 215 178
f 178 215 179
f 179 215 216
f 179 216 217
f 179 217 180
f 180 217 181
f 181 217 218
f 181 218 191
f 181 191 185
f 181 185 183
f 182 214 219
f 182 219 220
f 182 220 215
f 184 185 191
f 186 187 203
f 187 189 221
f 187 221 222
f 187 222 204
f 187 204 203
f 188 194 223
f 188 223 189
f 189 223 224
f 189 224 225
f 189 225 221
f 190 191 226
f 190 226 195
f 191 218 226
f 192 197 227
f 192 227 193
f 193 227 228
f 193 228 229
f 193 229 194
f 194 229 223
f 195 226 216
f 195 216 198
f 196 201 219
f 196 219 230
f 196 230 197
f 197 231 227
f 197 230 231
f 198 216 215
f 198 215 199
f 199 215 200
f 200 215 220
f 200 220 201
f 201 220 219
f 204 222 221
f 204 221 232
f 204 232 209
f 209 232 233
f 209 233 234
f 209 234 235
f 209 235 236
f 209 236 210
f 210 236 211
f 211 236 237
f 211 237 212
f 212 237 238
f 212 238 213
f 213 238 214
f 214 238 239
f 214 239 219
f 216 218 217
f 216 226 218
f 219 239 230
f 221 225 233
f 221 233 232
f 223 229 224
f 224 229 240
f 224 240 241
f 224 241 242
f 224 242 225
f 225 242 234
f 225 234 233
f 227 231 243
f 227 243 228
f 228 240 229
f 228 243 244
f 228 244 240
f 230 245 231
f 230 239 246
f 230 246 245
f 231 247 243
f 231 245 248
f 231 248 247
f 234 242 241
f 234 241 249
f 234 249 235
f 235 249 250
f 235 250 251
f 235 251 236
f 236 252 237
f 236 251 252
f 237 252 253
f 237 253 254
f 237 254 255
f 237 255 238
f 238 255 239
f 239 255 246
f 240 244 250
f 240 250 241
f 241 250 249
f 243 247 248
f 243 248 256
f 243 256 254
f 243 254 244
f 244 254 253
f 244 253 250
f 245 246 248
f 246 255 254
f 246 254 256
f 246 256 248
f 250 253 252
f 250 252 251
