v -0.033899 -0.012196 0.002460
v -0.034867 -0.012095 0.001625
v -0.034000 -0.012172 0.001558
v -0.034000 -0.011771 0.000536
v -0.033899 -0.010621 -0.000003
v -0.033799 -0.006752 -0.000295
v -0.033796 -0.012044 0.009518
v -0.033796 -0.012030 0.011364
v -0.033796 -0.011965 0.015363
v -0.035057 -0.011879 0.014963
v -0.035711 -0.011900 0.001301
v -0.035471 -0.011876 0.011629
v -0.036135 -0.011851 0.004234
v -0.036869 -0.011716 0.003960
v -0.037203 -0.011629 0.001958
v -0.034842 -0.011763 0.000557
v -0.034867 -0.010887 0.000073
v -0.034000 -0.009647 -0.000184
v -0.034000 -0.008821 -0.000310
v -0.034000 -0.007820 -0.000375
v -0.044538 0.003228 -0.000276
v -0.043451 0.003228 -0.000064
v -0.033799 -0.005999 -0.000080
v -0.033796 0.001035 0.010935
v -0.033796 -0.004915 0.009518
v -0.033796 -0.011947 0.016297
v -0.035536 -0.011769 0.017296
v -0.035536 -0.011808 0.015630
v -0.036869 -0.011565 0.000957
v -0.036535 -0.011603 0.016629
v -0.037537 -0.011361 0.016297
v -0.037537 -0.011537 0.004295
v -0.038203 -0.011363 0.002292
v -0.038542 -0.011224 0.001604
v -0.036869 -0.011339 0.000494
v -0.035869 -0.011168 0.000271
v -0.037203 -0.010221 0.000020
v -0.036869 -0.010887 0.000201
v -0.034867 -0.008888 -0.000291
v -0.034867 -0.007887 -0.000377
v -0.042534 -0.000887 -0.000369
v -0.044871 0.001784 -0.000320
v -0.045538 0.003228 -0.000263
v -0.048768 0.003231 0.009520
v -0.045081 0.003231 0.009520
v -0.042592 0.003228 0.000645
v -0.033806 -0.005398 0.000466
v -0.033796 0.001035 0.021112
v -0.042264 0.003228 0.001640
v -0.033999 -0.011760 0.018297
v -0.033918 -0.011902 0.017271
v -0.033999 -0.009894 0.020081
v -0.037941 -0.011206 0.017044
v -0.034867 -0.011786 0.017963
v -0.035536 -0.011611 0.018297
v -0.037015 -0.011296 0.018058
v -0.038871 -0.010969 0.000957
v -0.038568 -0.011044 0.016297
v -0.038904 -0.011115 0.002292
v -0.040132 -0.010520 0.001344
v -0.039539 -0.010855 0.001958
v -0.039199 -0.010449 0.000439
v -0.038871 -0.008220 -0.000196
v -0.036869 -0.008888 -0.000213
v -0.035869 -0.008888 -0.000255
v -0.038203 -0.010221 0.000096
v -0.039205 -0.009554 0.000048
v -0.036535 -0.008220 -0.000318
v -0.036869 -0.007553 -0.000354
v -0.038203 -0.006885 -0.000354
v -0.038871 -0.006218 -0.000358
v -0.039539 -0.005552 -0.000358
v -0.043535 -0.000553 -0.000362
v -0.044203 0.000116 -0.000346
v -0.044844 0.000756 -0.000318
v -0.048056 0.002875 0.000029
v -0.048737 0.003172 0.000704
v -0.048810 0.003172 0.001625
v -0.048825 0.003174 0.016629
v -0.048538 0.003174 0.018329
v -0.045483 0.003231 0.020222
v -0.044334 0.003231 0.013520
v -0.044601 0.003231 0.020247
v -0.041543 0.001035 0.021112
v -0.033983 -0.005049 0.021112
v -0.034067 -0.011331 0.019139
v -0.034806 -0.011383 0.018998
v -0.035202 -0.010162 0.019928
v -0.034806 -0.010925 0.019482
v -0.034867 -0.009554 0.020184
v -0.038868 -0.010880 0.017296
v -0.035536 -0.011235 0.019000
v -0.036248 -0.011296 0.018586
v -0.039477 -0.010522 0.017898
v -0.038349 -0.010632 0.018686
v -0.041911 -0.009246 0.000591
v -0.039804 -0.010544 0.016629
v -0.040207 -0.010553 0.002627
v -0.041072 -0.010019 0.001484
v -0.040597 -0.009682 0.000363
v -0.042202 -0.008220 0.000081
v -0.040206 -0.006885 -0.000274
v -0.039205 -0.007219 -0.000295
v -0.037871 -0.007887 -0.000295
v -0.039539 -0.006218 -0.000343
v -0.040206 -0.005552 -0.000348
v -0.042868 -0.003220 -0.000337
v -0.043869 -0.002553 -0.000301
v -0.044537 -0.001219 -0.000289
v -0.046873 -0.001553 0.000029
v -0.047788 -0.000218 0.000262
v -0.048111 0.000449 0.000357
v -0.048632 0.002100 0.000691
v -0.048737 0.002118 0.001625
v -0.048776 0.002450 0.003958
v -0.048760 0.002116 0.016629
v -0.048732 0.002813 0.017631
v -0.048540 0.002145 0.018281
v -0.047970 0.002295 0.019185
v -0.047779 0.003174 0.019391
v -0.046518 0.002813 0.020050
v -0.046446 0.000863 0.019980
v -0.045644 -0.001228 0.020056
v -0.044871 -0.001885 0.020186
v -0.041252 0.000168 0.021112
v -0.035857 -0.004687 0.021112
v -0.036869 -0.009652 0.020001
v -0.035869 -0.010738 0.019454
v -0.037203 -0.008888 0.020203
v -0.038205 -0.010084 0.019477
v -0.040760 -0.009913 0.017845
v -0.039842 -0.009992 0.018703
v -0.042577 -0.009075 0.001625
v -0.043373 -0.008470 0.001293
v -0.042823 -0.008476 0.000405
v -0.041252 -0.009777 0.016962
v -0.040872 -0.010190 0.002627
v -0.041450 -0.009832 0.002292
v -0.041847 -0.008891 0.000309
v -0.042868 -0.007553 0.000044
v -0.041203 -0.006552 -0.000234
v -0.042202 -0.005218 -0.000268
v -0.041203 -0.005218 -0.000327
v -0.042868 -0.004554 -0.000261
v -0.043535 -0.003888 -0.000255
v -0.046203 -0.002887 0.000023
v -0.047002 -0.002464 0.000256
v -0.047647 -0.001142 0.000418
v -0.047644 -0.002219 0.000957
v -0.048304 -0.000218 0.001291
v -0.048476 0.000691 0.001127
v -0.048595 0.001064 0.002214
v -0.048603 0.000789 0.016297
v -0.048576 0.000833 0.017094
v -0.048214 0.000451 0.018299
v -0.047800 -0.000235 0.018766
v -0.048279 -0.000218 0.017631
v -0.047469 0.000283 0.019284
v -0.046734 -0.001553 0.019450
v -0.045468 -0.002489 0.019932
v -0.040616 -0.001117 0.021112
v -0.043535 -0.004223 0.020157
v -0.036840 -0.004353 0.021112
v -0.038671 -0.009131 0.019934
v -0.038008 -0.009481 0.019906
v -0.037101 -0.010354 0.019507
v -0.040203 -0.007551 0.020159
v -0.039098 -0.009730 0.019433
v -0.039802 -0.008679 0.019894
v -0.041591 -0.009203 0.018499
v -0.041534 -0.009542 0.017628
v -0.040309 -0.009143 0.019429
v -0.042111 -0.008489 0.019040
v -0.042659 -0.009025 0.003626
v -0.043288 -0.008571 0.004126
v -0.044006 -0.008004 0.003626
v -0.044423 -0.007609 0.001625
v -0.044276 -0.007428 0.000721
v -0.043629 -0.007769 0.000435
v -0.042250 -0.009152 0.017296
v -0.042280 -0.009271 0.005626
v -0.042451 -0.009167 0.004627
v -0.044203 -0.006218 0.000058
v -0.043171 -0.006511 -0.000041
v -0.042202 -0.006218 -0.000175
v -0.045537 -0.004222 0.000035
v -0.045537 -0.004886 0.000178
v -0.046462 -0.003855 0.000344
v -0.047208 -0.003229 0.000927
v -0.047341 -0.003151 0.001958
v -0.047850 -0.001928 0.001983
v -0.048172 -0.000887 0.001958
v -0.048417 0.000103 0.002292
v -0.048263 -0.000552 0.016629
v -0.048275 -0.000553 0.004295
v -0.047961 -0.001014 0.017929
v -0.047074 -0.002708 0.018558
v -0.047185 -0.001299 0.019122
v -0.047751 -0.001991 0.017298
v -0.046378 -0.002498 0.019414
v -0.044604 -0.004185 0.019869
v -0.043748 -0.004921 0.019986
v -0.045416 -0.004220 0.019435
v -0.039814 -0.002334 0.021112
v -0.042867 -0.004886 0.020176
v -0.037831 -0.003826 0.021112
v -0.041141 -0.007651 0.019986
v -0.038983 -0.003074 0.021112
v -0.042832 -0.008509 0.018390
v -0.043108 -0.006958 0.019490
v -0.044575 -0.006126 0.019006
v -0.043401 -0.007911 0.018485
v -0.042977 -0.008664 0.017277
v -0.044516 -0.007547 0.002627
v -0.043760 -0.008012 0.017269
v -0.044481 -0.007447 0.011629
v -0.045137 -0.006804 0.001625
v -0.045124 -0.006383 0.000664
v -0.044871 -0.005552 0.000109
v -0.045971 -0.005076 0.000532
v -0.046626 -0.004471 0.001472
v -0.046682 -0.004477 0.002793
v -0.047267 -0.003346 0.003293
v -0.047470 -0.002887 0.004959
v -0.047813 -0.002068 0.005292
v -0.047816 -0.001950 0.016297
v -0.046551 -0.003673 0.018644
v -0.047263 -0.003160 0.017267
v -0.046470 -0.004588 0.017639
v -0.045972 -0.003399 0.019368
v -0.045909 -0.004237 0.019015
v -0.043364 -0.005569 0.019940
v -0.044295 -0.005579 0.019519
v -0.045325 -0.004918 0.019158
v -0.044679 -0.005407 0.019383
v -0.044529 -0.007206 0.017565
v -0.043747 -0.006305 0.019496
v -0.045257 -0.005661 0.018653
v -0.044169 -0.007061 0.018546
v -0.045150 -0.006817 0.002627
v -0.045256 -0.006482 0.016880
v -0.045756 -0.005942 0.001958
v -0.046062 -0.005498 0.004959
v -0.046492 -0.004810 0.005626
v -0.046708 -0.004436 0.003960
v -0.047267 -0.003346 0.004295
v -0.047333 -0.003086 0.016297
v -0.045918 -0.005137 0.018215
v -0.046751 -0.004220 0.016964
v -0.046352 -0.004910 0.016964
v -0.045887 -0.005575 0.017298
v -0.045282 -0.006319 0.017631
v -0.045578 -0.006218 0.002959
v -0.045640 -0.005996 0.016297
v -0.045839 -0.005836 0.004295
f 1 2 3
f 1 3 4
f 1 4 5
f 1 5 6
f 1 6 7
f 1 7 8
f 1 8 9
f 1 9 10
f 1 10 2
f 2 11 3
f 2 10 12
f 2 12 13
f 2 13 14
f 2 14 15
f 2 15 11
f 3 11 16
f 3 16 4
f 4 16 17
f 4 17 5
f 5 17 18
f 5 18 19
f 5 19 6
f 6 19 20
f 6 20 21
f 6 21 22
f 6 22 23
f 6 23 24
f 6 24 25
f 6 25 7
f 7 25 24
f 7 24 48
f 7 48 26
f 7 26 9
f 7 9 8
f 9 26 10
f 10 26 27
f 10 27 28
f 10 28 12
f 11 29 16
f 11 15 29
f 12 28 14
f 12 14 13
f 14 28 30
f 14 30 31
f 14 31 32
f 14 32 33
f 14 33 15
f 15 33 34
f 15 34 29
f 16 35 36
f 16 36 17
f 16 29 35
f 17 37 18
f 17 36 38
f 17 38 37
f 18 37 39
f 18 39 19
f 19 39 40
f 19 40 20
f 20 40 41
f 20 41 21
f 21 41 42
f 21 42 43
f 21 43 44
f 21 44 45
f 21 45 22
f 22 45 46
f 22 46 23
f 23 46 47
f 23 47 24
f 24 47 46
f 24 46 49
f 24 49 48
f 26 50 51
f 26 51 27
f 26 48 52
f 26 52 50
f 27 53 30
f 27 30 28
f 27 51 54
f 27 54 55
f 27 55 56
f 27 56 53
f 29 57 35
f 29 34 57
f 30 53 31
f 31 53 58
f 31 58 33
f 31 33 32
f 33 58 59
f 33 59 34
f 34 60 57
f 34 59 61
f 34 61 60
f 35 57 62
f 35 62 38
f 35 38 36
f 37 63 64
f 37 64 65
f 37 65 39
f 37 38 66
f 37 66 67
f 37 67 63
f 38 62 66
f 39 65 68
f 39 68 40
f 40 68 69
f 40 69 70
f 40 70 71
f 40 71 72
f 40 72 41
f 41 73 42
f 41 72 73
f 42 73 74
f 42 74 75
f 42 75 43
f 43 75 76
f 43 76 77
f 43 77 44
f 44 77 78
f 44 78 79
f 44 79 80
f 44 80 81
f 44 81 83
f 44 83 82
f 44 82 45
f 45 82 49
f 45 49 46
f 48 83 84
f 48 84 125
f 48 125 161
f 48 161 204
f 48 204 208
f 48 208 206
f 48 206 163
f 48 163 126
f 48 126 85
f 48 85 52
f 48 49 83
f 49 82 83
f 50 55 54
f 50 54 51
f 50 52 86
f 50 86 87
f 50 87 55
f 52 88 89
f 52 89 86
f 52 85 90
f 52 90 88
f 53 56 91
f 53 91 58
f 55 87 92
f 55 92 93
f 55 93 56
f 56 94 91
f 56 93 95
f 56 95 94
f 57 60 96
f 57 96 62
f 58 91 97
f 58 97 59
f 59 97 61
f 60 61 98
f 60 98 99
f 60 99 96
f 61 97 98
f 62 100 66
f 62 96 100
f 63 67 101
f 63 101 102
f 63 102 103
f 63 103 104
f 63 104 64
f 64 104 68
f 64 68 65
f 66 100 101
f 66 101 67
f 68 104 69
f 69 104 103
f 69 103 70
f 70 105 106
f 70 106 71
f 70 103 105
f 71 106 72
f 72 106 107
f 72 107 73
f 73 107 74
f 74 107 108
f 74 108 75
f 75 108 109
f 75 109 110
f 75 110 76
f 76 110 111
f 76 111 112
f 76 112 113
f 76 113 77
f 77 113 114
f 77 114 78
f 78 114 115
f 78 115 79
f 79 115 116
f 79 116 117
f 79 117 80
f 80 117 118
f 80 118 119
f 80 119 120
f 80 120 81
f 81 121 84
f 81 84 83
f 81 120 121
f 84 121 122
f 84 122 123
f 84 123 124
f 84 124 125
f 85 126 90
f 86 89 87
f 87 89 92
f 88 90 127
f 88 127 128
f 88 128 89
f 89 128 92
f 90 126 129
f 90 129 127
f 91 94 97
f 92 95 93
f 92 128 130
f 92 130 95
f 94 131 97
f 94 95 132
f 94 132 131
f 95 130 132
f 96 99 133
f 96 133 134
f 96 134 135
f 96 135 100
f 97 131 136
f 97 136 98
f 98 137 99
f 98 136 137
f 99 137 138
f 99 138 133
f 100 135 139
f 100 139 101
f 101 139 135
f 101 135 140
f 101 140 102
f 102 141 142
f 102 142 143
f 102 143 105
f 102 105 103
f 102 140 141
f 105 143 106
f 106 143 107
f 107 143 142
f 107 142 144
f 107 144 145
f 107 145 108
f 108 145 146
f 108 146 110
f 108 110 109
f 110 146 147
f 110 147 111
f 111 147 148
f 111 148 112
f 112 148 149
f 112 149 150
f 112 150 151
f 112 151 113
f 113 151 114
f 114 151 152
f 114 152 153
f 114 153 116
f 114 116 115
f 116 153 154
f 116 154 117
f 117 154 118
f 118 155 156
f 118 156 119
f 118 154 157
f 118 157 155
f 119 156 158
f 119 158 122
f 119 122 120
f 120 122 121
f 122 158 159
f 122 159 123
f 123 159 160
f 123 160 124
f 124 161 125
f 124 160 162
f 124 162 161
f 126 163 129
f 127 164 165
f 127 165 166
f 127 166 128
f 127 129 164
f 128 166 130
f 129 163 167
f 129 167 164
f 130 168 132
f 130 166 165
f 130 165 169
f 130 169 168
f 131 132 170
f 131 170 171
f 131 171 136
f 132 168 172
f 132 172 173
f 132 173 170
f 133 138 174
f 133 174 175
f 133 175 134
f 134 175 176
f 134 176 177
f 134 177 178
f 134 178 135
f 135 179 140
f 135 178 179
f 136 171 180
f 136 180 137
f 137 180 138
f 138 180 181
f 138 181 182
f 138 182 174
f 140 179 183
f 140 183 184
f 140 184 185
f 140 185 141
f 141 185 142
f 142 185 144
f 144 185 145
f 145 185 184
f 145 184 183
f 145 183 186
f 145 186 146
f 146 186 147
f 147 187 188
f 147 188 189
f 147 189 149
f 147 149 148
f 147 186 187
f 149 189 190
f 149 190 191
f 149 191 192
f 149 192 150
f 150 192 193
f 150 193 151
f 151 193 152
f 152 193 153
f 153 194 154
f 153 193 195
f 153 195 194
f 154 194 157
f 155 157 196
f 155 196 156
f 156 197 198
f 156 198 158
f 156 196 197
f 157 194 199
f 157 199 196
f 158 198 159
f 159 198 200
f 159 200 160
f 160 201 202
f 160 202 162
f 160 200 203
f 160 203 201
f 161 162 204
f 162 202 205
f 162 205 204
f 163 206 167
f 164 169 165
f 164 167 169
f 167 207 169
f 167 206 208
f 167 208 204
f 167 204 205
f 167 205 207
f 168 169 172
f 169 207 172
f 170 209 171
f 170 173 209
f 171 209 180
f 172 207 173
f 173 207 210
f 173 210 211
f 173 211 212
f 173 212 209
f 174 182 175
f 175 182 213
f 175 213 176
f 176 214 177
f 176 213 215
f 176 215 216
f 176 216 214
f 177 217 178
f 177 214 217
f 178 217 218
f 178 218 179
f 179 187 219
f 179 219 183
f 179 218 220
f 179 220 187
f 180 209 213
f 180 213 181
f 181 213 182
f 183 219 186
f 186 219 187
f 187 220 188
f 188 220 189
f 189 220 221
f 189 221 190
f 190 222 223
f 190 223 224
f 190 224 225
f 190 225 191
f 190 221 222
f 191 225 192
f 192 225 195
f 192 195 193
f 194 195 225
f 194 225 226
f 194 226 199
f 196 199 197
f 197 227 200
f 197 200 198
f 197 199 228
f 197 228 229
f 197 229 227
f 199 226 228
f 200 230 203
f 200 227 231
f 200 231 230
f 201 232 202
f 201 203 233
f 201 233 232
f 202 232 205
f 203 230 231
f 203 231 234
f 203 234 235
f 203 235 233
f 205 232 207
f 207 232 210
f 209 212 236
f 209 236 215
f 209 215 213
f 210 237 211
f 210 232 237
f 211 237 235
f 211 235 234
f 211 234 238
f 211 238 239
f 211 239 212
f 212 239 236
f 214 240 217
f 214 216 241
f 214 241 240
f 215 236 241
f 215 241 216
f 217 221 220
f 217 220 218
f 217 240 242
f 217 242 221
f 221 242 222
f 222 243 244
f 222 244 245
f 222 245 223
f 222 242 243
f 223 245 246
f 223 246 224
f 224 247 226
f 224 226 225
f 224 246 247
f 226 247 228
f 227 229 248
f 227 248 238
f 227 238 231
f 228 247 249
f 228 249 229
f 229 249 250
f 229 250 251
f 229 251 252
f 229 252 248
f 231 238 234
f 232 233 237
f 233 235 237
f 236 239 252
f 236 252 241
f 238 248 252
f 238 252 239
f 240 253 242
f 240 241 254
f 240 254 253
f 241 252 251
f 241 251 254
f 242 253 255
f 242 255 243
f 243 255 254
f 243 254 250
f 243 250 244
f 244 250 249
f 244 249 245
f 245 249 246
f 246 249 247
f 250 254 251
f 253 254 255
