v 0.010190 -0.033736 0.239179
v 0.017799 -0.031885 0.239934
v 0.014245 -0.033280 0.242162
v 0.010199 -0.033180 0.243515
v 0.006148 -0.033267 0.240815
v 0.006148 -0.032654 0.237122
v 0.008846 -0.032248 0.236143
v 0.012691 -0.031979 0.236820
v 0.021761 -0.029347 0.242503
v 0.019318 -0.031035 0.244547
v 0.016929 -0.032392 0.243515
v 0.022663 -0.009745 0.215230
v 0.028700 -0.003249 0.212326
v 0.014245 -0.030128 0.251603
v 0.010199 -0.030891 0.250618
v 0.008846 -0.032285 0.246216
v 0.000776 -0.031198 0.240815
v 0.003451 -0.032417 0.239468
v 0.006148 -0.032573 0.243515
v 0.003272 -0.031229 0.244764
v 0.003451 -0.031641 0.236380
v 0.014245 -0.009883 0.214934
v 0.018282 -0.010108 0.214724
v 0.031849 -0.001161 0.214316
v 0.023743 -0.027196 0.243515
v 0.024382 -0.026546 0.247221
v 0.022363 -0.028590 0.246216
v 0.017348 -0.026008 0.258555
v 0.014736 -0.028753 0.254908
v 0.020832 -0.003818 0.209290
v 0.025025 -0.003036 0.209717
v 0.025963 -0.004831 0.211859
v 0.027477 -0.001279 0.209559
v 0.030080 0.000671 0.210203
v 0.032273 0.001578 0.211852
v 0.006001 -0.031279 0.247655
v 0.011235 -0.028734 0.255395
v 0.008846 -0.029222 0.253949
v 0.006148 -0.029809 0.251603
v -0.002408 -0.028903 0.240815
v 0.000883 -0.031047 0.237746
v 0.002567 -0.029384 0.249317
v -0.000130 -0.028178 0.248009
v -0.001961 -0.028509 0.243515
v 0.004313 -0.004837 0.214796
v 0.007702 -0.007057 0.214592
v 0.012659 -0.009720 0.215111
v -0.001126 -0.029047 0.237372
v 0.015267 -0.003580 0.209270
v 0.034073 0.003791 0.214139
v 0.026231 -0.024276 0.245835
v 0.026490 -0.023351 0.249264
v 0.020992 -0.021906 0.261078
v 0.017853 -0.023576 0.261492
v 0.013151 -0.026202 0.258732
v 0.018282 -0.000729 0.206793
v 0.022328 -0.000435 0.206984
v 0.025190 0.001040 0.207049
v 0.027794 0.003866 0.207095
v 0.031241 0.004754 0.209316
v 0.034122 0.007705 0.212122
v 0.003156 -0.028615 0.251919
v 0.003022 -0.025977 0.255815
v 0.005746 -0.028290 0.254021
v -0.004065 -0.026815 0.239803
v -0.003801 -0.026389 0.244481
v 0.000160 -0.025877 0.253542
v 0.001951 0.004442 0.212306
v 0.005380 0.001997 0.210276
v 0.006229 0.002728 0.209257
v 0.008055 0.000296 0.209343
v 0.010721 -0.002011 0.209441
v 0.014245 -0.000348 0.207036
v 0.035073 0.007874 0.216544
v 0.033836 -0.005606 0.251603
v 0.033166 -0.008295 0.251603
v 0.031956 -0.012234 0.251485
v 0.029272 -0.018874 0.249882
v 0.023507 -0.017498 0.263279
v 0.020099 -0.020199 0.263989
v 0.015482 -0.021437 0.263102
v 0.014245 -0.024207 0.260782
v 0.016929 -0.019086 0.264895
v 0.002705 -0.023319 0.258522
v 0.006148 -0.022307 0.260349
v 0.016897 0.003816 0.204454
v 0.019805 0.003610 0.204612
v 0.022328 0.002478 0.205479
v 0.025025 0.005173 0.205381
v 0.028455 0.007511 0.206563
v 0.031407 0.007874 0.208685
v 0.033943 0.012920 0.212536
v 0.032894 0.010569 0.210210
v -0.000867 -0.021738 0.257852
v -0.001091 -0.023788 0.255204
v -0.006360 -0.022282 0.244843
v -0.006231 -0.022907 0.240973
v 0.000789 0.009225 0.213843
v 0.003165 0.009225 0.210203
v 0.003911 0.004829 0.210256
v 0.006528 0.006436 0.207805
v 0.008828 0.003904 0.207135
v 0.011480 0.001115 0.207115
v 0.014245 0.002478 0.205512
v 0.037525 0.030139 0.252668
v 0.037176 0.019866 0.252944
v 0.036560 0.013276 0.251603
v 0.035837 0.006524 0.251603
v 0.035283 0.002472 0.251603
v 0.034658 -0.001167 0.253128
v 0.028879 -0.000729 0.267813
v 0.026561 -0.009033 0.266794
v 0.023676 -0.013866 0.266945
v 0.020742 -0.016073 0.266623
v 0.010641 -0.022088 0.261617
v 0.003451 -0.016592 0.263870
v 0.003826 -0.012778 0.266019
v 0.016929 -0.016248 0.266367
v 0.003232 -0.020018 0.261400
v -0.000238 -0.018980 0.260888
v 0.006148 -0.020956 0.261433
v 0.014383 0.005311 0.204388
v 0.018282 0.009225 0.203462
v 0.022136 0.005423 0.204421
v 0.023708 0.007724 0.204408
v 0.027722 0.010569 0.206011
v 0.029763 0.011882 0.207477
v 0.033483 0.015971 0.213843
v 0.031165 0.014852 0.209362
v 0.031956 0.016928 0.211419
v -0.002855 -0.019099 0.257018
v -0.000952 -0.014897 0.263082
v -0.007334 -0.019086 0.246216
v -0.007620 -0.017742 0.243515
v 0.001790 0.014889 0.213442
v -0.008097 -0.015047 0.246216
v -0.007852 -0.010996 0.246216
v 0.003942 0.014564 0.210190
v 0.007037 0.013226 0.207385
v 0.007711 0.010569 0.206708
v 0.008850 0.007874 0.206123
v 0.011547 0.005173 0.205407
v 0.036020 0.030139 0.248121
v 0.035645 0.030139 0.266275
v 0.037333 0.025412 0.253561
v 0.031402 0.019504 0.213843
v 0.036350 0.013276 0.254304
v 0.036198 0.010569 0.252957
v 0.035716 0.007874 0.254304
v 0.034582 0.023274 0.266794
v 0.031791 0.013076 0.269133
v 0.029388 0.003835 0.269206
v 0.025021 -0.006807 0.269265
v 0.020975 -0.010014 0.268890
v 0.019626 -0.013697 0.267714
v 0.000754 -0.013697 0.264909
v 0.003451 -0.008295 0.267813
v 0.000919 -0.010646 0.266387
v 0.012829 0.007624 0.204395
v 0.018282 0.013270 0.203738
v 0.023502 0.011851 0.204362
v 0.013075 0.011838 0.204362
v 0.026615 0.016540 0.206747
v 0.029763 0.019779 0.211038
v 0.027437 0.019679 0.208843
v -0.002957 -0.016629 0.258719
v -0.000791 -0.008339 0.265980
v -0.001890 -0.010996 0.263562
v -0.006869 -0.016617 0.249159
v -0.007673 -0.013697 0.248910
v 0.002254 0.016934 0.216544
v 0.004469 0.019054 0.212345
v -0.007280 -0.005606 0.248910
v -0.005293 0.002472 0.251603
v -0.007905 -0.009645 0.248910
v 0.007158 0.019379 0.209546
v 0.008734 0.015971 0.207049
v 0.011547 0.015971 0.205716
v 0.028870 0.022536 0.213843
v 0.022564 0.025444 0.212463
v 0.018282 0.026657 0.213843
v 0.028781 0.030139 0.241163
v 0.010529 0.030139 0.265099
v 0.015830 0.029883 0.270395
v 0.029410 0.029883 0.270493
v 0.034327 0.028745 0.269028
v 0.032402 0.020010 0.269639
v 0.029969 0.009225 0.269738
v 0.027722 0.005173 0.270185
v 0.026088 -0.001567 0.269942
v 0.022323 -0.005606 0.269876
v 0.003978 -0.004481 0.268923
v 0.002361 -0.001036 0.269311
v -0.000756 -0.005606 0.266656
v 0.015835 0.015633 0.204507
v 0.020747 0.015665 0.204500
v 0.022511 0.019810 0.206708
v 0.027495 0.022355 0.211393
v 0.024860 0.022136 0.209283
v -0.003029 -0.013697 0.260099
v -0.006878 -0.006950 0.251603
v -0.003940 0.006392 0.252044
v -0.000608 0.014652 0.252918
v 0.002049 0.020116 0.252891
v 0.005416 0.025944 0.251603
v 0.007756 0.029783 0.252904
v 0.006532 0.021642 0.212490
v -0.006079 -0.000867 0.250973
v -0.000649 -0.002217 0.266518
v 0.001986 0.006198 0.267576
v 0.009042 0.022355 0.210788
v 0.012713 0.021179 0.207917
v 0.010382 0.018547 0.207266
v 0.014245 0.018666 0.205959
v 0.022328 0.023311 0.209231
v 0.018282 0.024556 0.209967
v 0.012744 0.025619 0.213442
v 0.011342 0.030139 0.243555
v 0.014245 0.030139 0.241761
v 0.016754 0.030139 0.240545
v 0.019626 0.030139 0.240276
v 0.008636 0.030139 0.248969
v 0.011056 0.029007 0.268306
v 0.009900 0.024912 0.269383
v 0.011547 0.024062 0.270165
v 0.011547 0.021361 0.270415
v 0.015584 0.025412 0.270526
v 0.019796 0.029795 0.270539
v 0.027722 0.026763 0.270566
v 0.030420 0.025412 0.270493
v 0.030420 0.021361 0.270415
v 0.030420 0.017315 0.270185
v 0.027722 0.009225 0.270454
v 0.023672 0.002472 0.270474
v 0.022323 -0.001567 0.270263
v 0.006148 0.001128 0.270001
v 0.007497 0.005173 0.270329
v 0.003040 0.003904 0.269534
v 0.018282 0.018666 0.205578
v 0.018282 0.021367 0.207128
v 0.004701 0.014277 0.267510
v 0.007265 0.019966 0.268273
v 0.008850 0.024024 0.213843
v 0.004585 0.011388 0.269324
v 0.013061 0.023812 0.210131
v 0.009672 0.030139 0.246183
v 0.009190 0.021361 0.269725
v 0.007827 0.015971 0.269968
v 0.006148 0.010569 0.270053
v 0.008846 0.013276 0.270434
v 0.011547 0.017315 0.270500
v 0.025021 0.010569 0.270585
v 0.027722 0.013276 0.270572
v 0.008846 0.009225 0.270434
v 0.005108 0.007874 0.269948
v 0.011547 0.013276 0.270493
f 1 2 3
f 1 3 4
f 1 4 5
f 1 5 6
f 1 6 7
f 1 7 8
f 1 8 2
f 2 9 10
f 2 10 11
f 2 11 3
f 2 8 12
f 2 12 13
f 2 13 9
f 3 11 14
f 3 14 15
f 3 15 4
f 4 16 5
f 4 15 16
f 5 17 18
f 5 18 6
f 5 16 19
f 5 19 20
f 5 20 17
f 6 21 7
f 6 18 21
f 7 12 8
f 7 21 22
f 7 22 23
f 7 23 12
f 9 13 24
f 9 24 25
f 9 25 26
f 9 26 27
f 9 27 10
f 10 27 28
f 10 28 29
f 10 29 11
f 11 29 14
f 12 23 30
f 12 30 31
f 12 31 32
f 12 32 13
f 13 32 33
f 13 33 34
f 13 34 35
f 13 35 24
f 14 29 15
f 15 36 16
f 15 29 37
f 15 37 38
f 15 38 39
f 15 39 36
f 16 36 19
f 17 40 41
f 17 41 18
f 17 20 42
f 17 42 43
f 17 43 44
f 17 44 40
f 18 41 21
f 19 36 20
f 20 36 42
f 21 45 46
f 21 46 47
f 21 47 22
f 21 41 48
f 21 48 45
f 22 47 49
f 22 49 23
f 23 49 30
f 24 35 50
f 24 50 51
f 24 51 25
f 25 51 26
f 26 52 53
f 26 53 28
f 26 28 27
f 26 51 52
f 28 53 54
f 28 54 55
f 28 55 37
f 28 37 29
f 30 49 56
f 30 56 57
f 30 57 31
f 31 57 58
f 31 58 33
f 31 33 32
f 33 58 59
f 33 59 34
f 34 59 60
f 34 60 35
f 35 61 50
f 35 60 61
f 36 39 62
f 36 62 42
f 37 63 64
f 37 64 38
f 37 55 63
f 38 64 39
f 39 64 62
f 40 65 48
f 40 48 41
f 40 44 66
f 40 66 65
f 42 62 43
f 43 62 67
f 43 67 66
f 43 66 44
f 45 48 65
f 45 65 68
f 45 68 69
f 45 69 70
f 45 70 71
f 45 71 72
f 45 72 46
f 46 72 47
f 47 72 49
f 49 72 73
f 49 73 56
f 50 61 74
f 50 74 75
f 50 75 76
f 50 76 77
f 50 77 78
f 50 78 51
f 51 78 52
f 52 78 79
f 52 79 53
f 53 79 80
f 53 80 54
f 54 81 82
f 54 82 55
f 54 80 83
f 54 83 81
f 55 84 63
f 55 82 85
f 55 85 84
f 56 73 86
f 56 86 87
f 56 87 57
f 57 87 88
f 57 88 58
f 58 88 89
f 58 89 59
f 59 89 90
f 59 90 60
f 60 90 91
f 60 91 61
f 61 92 74
f 61 91 93
f 61 93 92
f 62 64 63
f 62 63 67
f 63 84 94
f 63 94 95
f 63 95 67
f 65 66 96
f 65 96 97
f 65 97 68
f 66 67 95
f 66 95 96
f 68 97 98
f 68 98 99
f 68 99 100
f 68 100 69
f 69 100 70
f 70 101 102
f 70 102 71
f 70 100 101
f 71 102 103
f 71 103 72
f 72 103 73
f 73 103 104
f 73 104 86
f 74 92 105
f 74 105 106
f 74 106 107
f 74 107 108
f 74 108 109
f 74 109 75
f 75 109 110
f 75 110 76
f 76 110 111
f 76 111 77
f 77 111 112
f 77 112 78
f 78 112 79
f 79 112 113
f 79 113 80
f 80 113 114
f 80 114 83
f 81 115 82
f 81 83 116
f 81 116 115
f 82 115 85
f 83 117 116
f 83 114 118
f 83 118 117
f 84 85 119
f 84 119 120
f 84 120 94
f 85 115 121
f 85 121 119
f 86 104 122
f 86 122 123
f 86 123 87
f 87 123 124
f 87 124 88
f 88 124 89
f 89 124 125
f 89 125 90
f 90 125 126
f 90 126 91
f 91 127 93
f 91 126 127
f 92 128 105
f 92 93 129
f 92 129 130
f 92 130 128
f 93 127 129
f 94 131 95
f 94 120 132
f 94 132 131
f 95 131 96
f 96 131 133
f 96 133 97
f 97 133 134
f 97 134 98
f 98 135 99
f 98 134 136
f 98 136 137
f 98 137 135
f 99 138 139
f 99 139 140
f 99 140 101
f 99 101 100
f 99 135 138
f 101 140 141
f 101 141 102
f 102 141 142
f 102 142 103
f 103 142 104
f 104 142 122
f 105 143 182
f 105 182 221
f 105 221 220
f 105 220 219
f 105 219 218
f 105 218 246
f 105 246 222
f 105 222 183
f 105 183 144
f 105 144 145
f 105 145 106
f 105 128 146
f 105 146 143
f 106 145 144
f 106 144 147
f 106 147 148
f 106 148 107
f 107 148 108
f 108 148 149
f 108 149 110
f 108 110 109
f 110 149 150
f 110 150 151
f 110 151 111
f 111 151 152
f 111 152 112
f 112 152 153
f 112 153 113
f 113 153 154
f 113 154 114
f 114 154 155
f 114 155 118
f 115 116 121
f 116 117 156
f 116 156 120
f 116 120 119
f 116 119 121
f 117 118 157
f 117 157 158
f 117 158 156
f 118 155 157
f 120 156 132
f 122 159 123
f 122 142 159
f 123 160 161
f 123 161 125
f 123 125 124
f 123 159 162
f 123 162 160
f 125 161 126
f 126 163 127
f 126 161 163
f 127 163 129
f 128 130 146
f 129 164 130
f 129 163 165
f 129 165 164
f 130 164 146
f 131 132 166
f 131 166 133
f 132 156 158
f 132 158 167
f 132 167 168
f 132 168 166
f 133 166 169
f 133 169 170
f 133 170 136
f 133 136 134
f 135 171 172
f 135 172 138
f 135 137 173
f 135 173 174
f 135 174 171
f 136 170 175
f 136 175 137
f 137 175 173
f 138 176 177
f 138 177 139
f 138 172 176
f 139 177 178
f 139 178 162
f 139 162 140
f 140 162 141
f 141 162 159
f 141 159 142
f 143 146 179
f 143 179 180
f 143 180 181
f 143 181 182
f 144 183 184
f 144 184 185
f 144 185 186
f 144 186 150
f 144 150 149
f 144 149 147
f 146 164 179
f 147 149 148
f 150 186 151
f 151 186 187
f 151 187 188
f 151 188 152
f 152 188 189
f 152 189 190
f 152 190 153
f 153 190 191
f 153 191 154
f 154 192 157
f 154 157 155
f 154 191 192
f 157 192 193
f 157 193 158
f 158 194 167
f 158 193 194
f 160 162 195
f 160 195 196
f 160 196 161
f 161 196 163
f 162 178 195
f 163 196 197
f 163 197 165
f 164 165 198
f 164 198 179
f 165 199 198
f 165 197 199
f 166 168 200
f 166 200 170
f 166 170 169
f 167 194 168
f 168 194 201
f 168 201 175
f 168 175 170
f 168 170 200
f 171 174 202
f 171 202 203
f 171 203 204
f 171 204 205
f 171 205 206
f 171 206 172
f 172 206 207
f 172 207 176
f 173 175 201
f 173 201 208
f 173 208 174
f 174 208 201
f 174 201 209
f 174 209 210
f 174 210 202
f 176 207 211
f 176 211 212
f 176 212 213
f 176 213 177
f 177 213 178
f 178 213 214
f 178 214 195
f 179 198 180
f 180 198 215
f 180 215 216
f 180 216 181
f 181 216 217
f 181 217 218
f 181 218 219
f 181 219 220
f 181 220 221
f 181 221 182
f 183 222 206
f 183 206 204
f 183 204 203
f 183 203 223
f 183 223 184
f 184 224 225
f 184 225 226
f 184 226 227
f 184 227 228
f 184 228 185
f 184 223 224
f 185 228 229
f 185 229 230
f 185 230 186
f 186 230 187
f 187 230 231
f 187 231 232
f 187 232 188
f 188 232 189
f 189 232 233
f 189 233 190
f 190 233 234
f 190 234 235
f 190 235 191
f 191 235 236
f 191 236 192
f 192 236 193
f 193 209 194
f 193 236 237
f 193 237 238
f 193 238 209
f 194 209 201
f 195 214 239
f 195 239 196
f 196 239 197
f 197 239 240
f 197 240 215
f 197 215 199
f 198 199 215
f 202 210 241
f 202 241 203
f 203 241 242
f 203 242 223
f 204 206 205
f 206 222 207
f 207 243 211
f 207 222 243
f 209 238 210
f 210 244 241
f 210 238 244
f 211 245 212
f 211 243 217
f 211 217 245
f 212 240 214
f 212 214 213
f 212 245 240
f 214 240 239
f 215 240 216
f 216 240 245
f 216 245 217
f 217 243 246
f 217 246 218
f 222 246 243
f 223 242 224
f 224 247 225
f 224 242 244
f 224 244 247
f 225 247 248
f 225 248 249
f 225 249 226
f 226 250 251
f 226 251 227
f 226 249 250
f 227 251 252
f 227 252 228
f 228 252 229
f 229 252 253
f 229 253 230
f 230 253 231
f 231 253 233
f 231 233 232
f 233 253 234
f 234 254 237
f 234 237 235
f 234 253 252
f 234 252 254
f 235 237 236
f 237 255 238
f 237 254 250
f 237 250 255
f 238 255 244
f 241 244 242
f 244 255 249
f 244 249 248
f 244 248 247
f 249 255 250
f 250 254 251
f 251 254 256
f 251 256 252
f 252 256 254
