v -0.001857 -0.003984 0.012985
v -0.001787 -0.002914 0.012985
v 0.001737 -0.005610 0.004037
v 0.001687 -0.008306 0.003966
v -0.001762 -0.005610 0.012985
v -0.001539 -0.001023 0.012985
v 0.002041 -0.004182 0.004637
v 0.003267 -0.005558 0.002641
v 0.004048 -0.006423 0.001884
v -0.001352 0.000019 0.012985
v -0.000864 0.001383 0.012985
v 0.000461 0.004807 0.012985
v 0.001295 0.006614 0.012985
v -0.001228 -0.008028 0.012985
v -0.001532 -0.006785 0.012985
v 0.003267 -0.008443 0.002539
v 0.004726 -0.012559 0.001989
v 0.004200 -0.013557 0.003363
v 0.001970 -0.009976 0.004541
v 0.005373 0.013249 0.012985
v 0.006147 -0.006137 0.001834
v 0.016936 -0.021793 0.000271
v 0.016936 -0.024493 0.000199
v 0.004048 -0.007634 0.001884
v 0.005900 -0.002657 0.003521
v 0.006147 -0.004789 0.002203
v -0.000691 -0.009457 0.012985
v 0.001754 -0.010925 0.006238
v 0.002034 -0.012487 0.007231
v 0.014420 -0.024493 0.001147
v 0.014922 -0.026348 0.001526
v 0.005239 -0.014358 0.002440
v 0.004518 -0.015360 0.004239
v 0.002355 -0.011774 0.005433
v 0.018943 0.013249 0.012985
v 0.005723 0.013249 0.012938
v 0.006635 -0.001027 0.004294
v 0.029195 -0.009622 0.002017
v 0.030227 -0.011151 0.001828
v 0.030425 -0.013702 0.001511
v 0.019632 -0.024493 0.000177
v 0.019632 -0.026723 0.001138
v 0.016936 -0.026690 0.001182
v 0.008847 -0.000870 0.004240
v 0.008847 -0.002914 0.003175
v -0.000030 -0.011002 0.012985
v 0.002892 -0.013513 0.006238
v 0.004246 -0.015673 0.006095
v 0.001260 -0.013348 0.012985
v 0.000210 -0.011477 0.012985
v 0.016936 -0.027712 0.003397
v 0.014533 -0.026654 0.003397
v 0.017795 0.013249 0.012879
v 0.030785 0.002474 0.012985
v 0.007066 0.013249 0.012794
v 0.007094 0.013249 0.012792
v 0.031835 -0.012145 0.001982
v 0.031909 -0.013702 0.001911
v 0.030425 -0.016398 0.001482
v 0.022332 -0.024493 0.000601
v 0.022332 -0.026381 0.001476
v 0.019632 -0.027857 0.003397
v 0.008847 0.013249 0.012676
v 0.008872 0.013249 0.012675
v 0.011543 0.013249 0.012555
v 0.011572 0.013249 0.012555
v 0.014240 0.013249 0.012609
v 0.014271 0.013249 0.012610
v 0.004051 -0.015879 0.008792
v 0.002694 -0.015017 0.012985
v 0.019632 -0.027773 0.006095
v 0.016936 -0.027463 0.006095
v 0.014791 -0.026457 0.006095
v 0.005196 -0.017428 0.012985
v 0.003592 -0.015999 0.012985
v 0.032994 -0.000118 0.012985
v 0.032574 -0.013702 0.003397
v 0.033104 -0.000262 0.012985
v 0.034068 -0.002914 0.012985
v 0.031874 -0.016398 0.001948
v 0.031789 -0.017774 0.002032
v 0.030425 -0.018397 0.001767
v 0.023898 -0.026014 0.001867
v 0.022332 -0.027213 0.003397
v 0.022332 -0.027185 0.006095
v 0.022110 -0.026268 0.008720
v 0.021064 -0.025870 0.010182
v 0.019632 -0.026674 0.008792
v 0.017173 -0.026332 0.008768
v 0.015272 -0.026087 0.007853
v 0.006546 -0.018381 0.012985
v 0.005797 -0.017878 0.012985
v 0.032439 -0.016398 0.003397
v 0.034245 -0.005610 0.012985
v 0.032001 -0.018076 0.003397
v 0.024258 -0.026260 0.003397
v 0.024276 -0.026260 0.006095
v 0.023923 -0.026010 0.007774
v 0.022862 -0.025528 0.009572
v 0.019632 -0.025878 0.010194
v 0.023824 -0.023089 0.012985
v 0.022297 -0.023632 0.012985
v 0.019632 -0.024119 0.012985
v 0.018229 -0.025861 0.010169
v 0.015413 -0.023238 0.012985
v 0.014632 -0.022948 0.012985
v 0.011543 -0.021315 0.012985
v 0.009342 -0.020095 0.012985
v 0.008741 -0.019729 0.012985
v 0.032665 -0.016398 0.006095
v 0.033468 -0.011002 0.012985
v 0.032058 -0.018160 0.006095
v 0.030842 -0.019512 0.006095
v 0.025626 -0.025049 0.006095
v 0.026647 -0.023455 0.008225
v 0.026322 -0.023101 0.010023
v 0.026329 -0.021677 0.012985
v 0.025152 -0.022381 0.012985
v 0.016989 -0.023765 0.012985
v 0.032814 -0.014004 0.012985
v 0.029315 -0.020671 0.008180
v 0.031867 -0.017890 0.007658
v 0.029026 -0.020385 0.009978
v 0.029273 -0.019102 0.012985
v 0.027064 -0.021077 0.012985
v 0.032577 -0.014378 0.012985
v 0.031220 -0.016378 0.012985
v 0.029743 -0.018498 0.012985
f 1 2 3
f 1 3 4
f 1 4 5
f 1 5 15
f 1 15 14
f 1 14 27
f 1 27 46
f 1 46 50
f 1 50 49
f 1 49 70
f 1 70 75
f 1 75 74
f 1 74 92
f 1 92 91
f 1 91 109
f 1 109 108
f 1 108 107
f 1 107 106
f 1 106 105
f 1 105 119
f 1 119 103
f 1 103 102
f 1 102 101
f 1 101 118
f 1 118 117
f 1 117 125
f 1 125 124
f 1 124 128
f 1 128 127
f 1 127 126
f 1 126 120
f 1 120 111
f 1 111 94
f 1 94 79
f 1 79 78
f 1 78 76
f 1 76 54
f 1 54 35
f 1 35 20
f 1 20 13
f 1 13 12
f 1 12 11
f 1 11 10
f 1 10 6
f 1 6 2
f 2 6 3
f 3 7 8
f 3 8 9
f 3 9 4
f 3 6 10
f 3 10 11
f 3 11 12
f 3 12 13
f 3 13 7
f 4 14 15
f 4 15 5
f 4 9 16
f 4 16 17
f 4 17 18
f 4 18 19
f 4 19 14
f 7 13 20
f 7 20 8
f 8 20 9
f 9 21 22
f 9 22 23
f 9 23 24
f 9 24 16
f 9 20 25
f 9 25 26
f 9 26 21
f 14 19 28
f 14 28 29
f 14 29 27
f 16 24 17
f 17 23 30
f 17 30 31
f 17 31 32
f 17 32 18
f 17 24 23
f 18 32 33
f 18 33 19
f 19 33 34
f 19 34 28
f 20 35 53
f 20 53 68
f 20 68 67
f 20 67 66
f 20 66 65
f 20 65 64
f 20 64 63
f 20 63 56
f 20 56 55
f 20 55 36
f 20 36 37
f 20 37 26
f 20 26 25
f 21 26 38
f 21 38 39
f 21 39 40
f 21 40 22
f 22 40 41
f 22 41 23
f 23 41 42
f 23 42 43
f 23 43 31
f 23 31 30
f 26 37 44
f 26 44 45
f 26 45 38
f 27 29 46
f 28 34 29
f 29 34 47
f 29 47 48
f 29 48 49
f 29 49 50
f 29 50 46
f 31 43 51
f 31 51 52
f 31 52 33
f 31 33 32
f 33 48 47
f 33 47 34
f 33 52 48
f 35 54 38
f 35 38 44
f 35 44 53
f 36 55 37
f 37 55 56
f 37 56 44
f 38 45 44
f 38 54 57
f 38 57 39
f 39 57 40
f 40 57 58
f 40 58 59
f 40 59 41
f 41 60 42
f 41 59 60
f 42 61 62
f 42 62 43
f 42 60 61
f 43 62 51
f 44 56 63
f 44 63 64
f 44 64 65
f 44 65 66
f 44 66 67
f 44 67 68
f 44 68 53
f 48 69 70
f 48 70 49
f 48 52 69
f 51 62 71
f 51 71 72
f 51 72 52
f 52 72 73
f 52 73 74
f 52 74 75
f 52 75 70
f 52 70 69
f 54 76 57
f 57 77 58
f 57 76 78
f 57 78 79
f 57 79 77
f 58 77 80
f 58 80 59
f 59 80 81
f 59 81 82
f 59 82 60
f 60 83 61
f 60 82 81
f 60 81 83
f 61 83 84
f 61 84 62
f 62 84 85
f 62 85 71
f 71 85 86
f 71 86 87
f 71 87 88
f 71 88 72
f 72 88 89
f 72 89 90
f 72 90 73
f 73 90 91
f 73 91 92
f 73 92 74
f 77 93 80
f 77 79 94
f 77 94 93
f 80 93 81
f 81 93 95
f 81 95 96
f 81 96 83
f 83 96 84
f 84 96 97
f 84 97 85
f 85 97 98
f 85 98 86
f 86 98 99
f 86 99 87
f 87 100 88
f 87 99 101
f 87 101 102
f 87 102 103
f 87 103 100
f 88 100 104
f 88 104 89
f 89 104 105
f 89 105 106
f 89 106 90
f 90 106 107
f 90 107 108
f 90 108 109
f 90 109 91
f 93 110 95
f 93 94 110
f 94 111 110
f 95 112 113
f 95 113 114
f 95 114 96
f 95 110 112
f 96 114 97
f 97 114 115
f 97 115 98
f 98 101 99
f 98 115 116
f 98 116 117
f 98 117 118
f 98 118 101
f 100 103 104
f 103 119 104
f 104 119 105
f 110 111 120
f 110 120 112
f 112 121 113
f 112 120 122
f 112 122 121
f 113 121 114
f 114 121 115
f 115 121 123
f 115 123 124
f 115 124 116
f 116 124 125
f 116 125 117
f 120 126 122
f 121 122 124
f 121 124 123
f 122 126 127
f 122 127 128
f 122 128 124
