v 0.026934 0.060709 0.259706
v 0.026678 0.060607 0.261612
v 0.027727 0.060083 0.265101
v 0.030427 0.059706 0.262404
v 0.033123 0.059171 0.259706
v 0.026734 0.060625 0.257009
v 0.025946 0.060709 0.259706
v 0.026125 0.060607 0.261612
v 0.025030 0.059344 0.265101
v 0.025030 0.058569 0.266909
v 0.027727 0.058928 0.267211
v 0.030427 0.058593 0.267188
v 0.033123 0.058261 0.267006
v 0.035183 0.057974 0.266713
v 0.030427 0.059428 0.265101
v 0.033123 0.059030 0.262404
v 0.030427 0.059628 0.257009
v 0.036921 0.057710 0.265101
v 0.037167 0.057791 0.261004
v 0.037207 0.057812 0.259206
v 0.037207 0.057812 0.258116
v 0.036976 0.057734 0.256315
v 0.026414 0.060499 0.255631
v 0.026122 0.060625 0.257009
v 0.024772 0.059407 0.257009
v 0.024597 0.059446 0.259706
v 0.023551 0.058060 0.265101
v 0.023610 0.057938 0.266551
v 0.023579 0.052483 0.269186
v 0.027727 0.056445 0.268192
v 0.030427 0.056445 0.268141
v 0.033123 0.056445 0.267941
v 0.035980 0.056672 0.267319
v 0.037886 0.055924 0.267016
v 0.038307 0.056364 0.265101
v 0.038354 0.056415 0.262404
v 0.038145 0.056714 0.259945
v 0.038141 0.056678 0.257133
v 0.038018 0.056053 0.254312
v 0.035974 0.057387 0.254171
v 0.035177 0.057989 0.254977
v 0.032434 0.058006 0.252802
v 0.027481 0.059730 0.254565
v 0.026362 0.060499 0.255631
v 0.033249 0.058327 0.254171
v 0.023613 0.057941 0.255135
v 0.023560 0.058057 0.257009
v 0.023542 0.058096 0.259706
v 0.023539 0.058099 0.262404
v 0.020584 0.052947 0.262404
v 0.020627 0.052875 0.265101
v 0.020768 0.052671 0.266825
v 0.020977 0.049715 0.269155
v 0.020618 0.048350 0.269339
v 0.022543 0.050789 0.269286
v 0.022337 0.048350 0.269673
v 0.025030 0.048350 0.269830
v 0.024929 0.051178 0.269413
v 0.023960 0.052483 0.269186
v 0.027727 0.050559 0.269463
v 0.030427 0.050310 0.269401
v 0.032650 0.050038 0.269281
v 0.035823 0.053745 0.268263
v 0.038101 0.053745 0.267307
v 0.039144 0.053745 0.265101
v 0.039242 0.053745 0.262404
v 0.039248 0.053745 0.259706
v 0.039245 0.053745 0.257009
v 0.038738 0.053745 0.254312
v 0.037533 0.055529 0.252736
v 0.034233 0.057638 0.253179
v 0.030427 0.047887 0.246180
v 0.027727 0.048730 0.246180
v 0.030427 0.058147 0.252731
v 0.027727 0.058333 0.252702
v 0.025645 0.058255 0.252762
v 0.023846 0.057552 0.253334
v 0.015280 0.042132 0.249879
v 0.015083 0.042461 0.251615
v 0.013773 0.040259 0.251615
v 0.012931 0.038841 0.251615
v 0.012134 0.037491 0.251615
v 0.010784 0.035193 0.251615
v 0.009013 0.032165 0.251615
v 0.007835 0.030139 0.251615
v 0.020578 0.052938 0.257009
v 0.020575 0.052947 0.259706
v 0.007839 0.030139 0.251679
v 0.019726 0.051046 0.265101
v 0.018155 0.047306 0.266785
v 0.018182 0.044556 0.269238
v 0.019618 0.045532 0.269553
v 0.019637 0.042955 0.269992
v 0.022337 0.045651 0.270035
v 0.022337 0.042955 0.270245
v 0.027727 0.048350 0.269811
v 0.030427 0.048350 0.269713
v 0.033378 0.048611 0.269465
v 0.034449 0.049682 0.269145
v 0.035294 0.047884 0.269343
v 0.037812 0.045651 0.267634
v 0.036924 0.045651 0.268983
v 0.038517 0.045651 0.265101
v 0.037591 0.030139 0.251615
v 0.037699 0.032165 0.251615
v 0.037825 0.034864 0.251615
v 0.037431 0.034864 0.249836
v 0.037459 0.037560 0.249843
v 0.036272 0.040262 0.246180
v 0.035743 0.042955 0.246180
v 0.034787 0.044685 0.246180
v 0.033338 0.046031 0.246180
v 0.031989 0.047144 0.246180
v 0.025030 0.048805 0.246180
v 0.022337 0.048117 0.246180
v 0.020516 0.047303 0.246180
v 0.020498 0.047288 0.246180
v 0.018982 0.045705 0.246180
v 0.018690 0.045307 0.246180
v 0.012491 0.036911 0.248915
v 0.010132 0.033625 0.250107
v 0.008632 0.030139 0.248979
v 0.008211 0.030139 0.254527
v 0.015569 0.041657 0.266510
v 0.015292 0.040050 0.267564
v 0.015544 0.039008 0.269193
v 0.017869 0.042955 0.269441
v 0.015264 0.037560 0.269410
v 0.019637 0.040259 0.270264
v 0.016940 0.037560 0.270021
v 0.016940 0.034864 0.270326
v 0.022337 0.040259 0.270343
v 0.025030 0.040259 0.270333
v 0.027727 0.040259 0.270319
v 0.025030 0.042955 0.270226
v 0.019637 0.037560 0.270376
v 0.027727 0.042955 0.270195
v 0.030427 0.042955 0.270138
v 0.033123 0.045651 0.269837
v 0.035574 0.045651 0.269475
v 0.037600 0.042955 0.267376
v 0.036745 0.042955 0.268723
v 0.036650 0.040259 0.268332
v 0.035300 0.040259 0.269603
v 0.035180 0.037560 0.269615
v 0.035024 0.034864 0.269577
v 0.034830 0.032165 0.269465
v 0.037382 0.040259 0.266985
v 0.037231 0.038536 0.266641
v 0.037431 0.030139 0.254109
v 0.037486 0.030139 0.253382
v 0.037327 0.030139 0.249874
v 0.037379 0.032165 0.249819
v 0.036438 0.030139 0.248488
v 0.035162 0.030139 0.247067
v 0.034784 0.030139 0.246764
v 0.033920 0.030139 0.246180
v 0.010151 0.030959 0.246180
v 0.009674 0.030139 0.246180
v 0.009459 0.030139 0.246723
v 0.010529 0.030139 0.265101
v 0.012589 0.034188 0.267161
v 0.011190 0.030139 0.267834
v 0.013032 0.033242 0.268962
v 0.012660 0.031444 0.269355
v 0.014726 0.034864 0.269675
v 0.012380 0.030139 0.269518
v 0.016940 0.032165 0.270464
v 0.014197 0.030139 0.270166
v 0.014914 0.030139 0.270331
v 0.022337 0.032165 0.270519
v 0.019637 0.034864 0.270457
v 0.030427 0.037560 0.270367
v 0.030427 0.040259 0.270285
v 0.033123 0.042955 0.270021
v 0.033123 0.040259 0.270159
v 0.033123 0.037560 0.270219
v 0.034658 0.030139 0.269322
v 0.034876 0.030139 0.268905
v 0.033123 0.034864 0.270209
v 0.033123 0.032165 0.270118
v 0.033551 0.030139 0.269816
v 0.036146 0.034864 0.267800
v 0.035709 0.032165 0.267800
v 0.035362 0.030139 0.267800
v 0.035494 0.030139 0.267126
v 0.035875 0.030139 0.265101
v 0.011498 0.030139 0.268339
v 0.012672 0.030139 0.269644
v 0.016940 0.030139 0.270519
v 0.019637 0.032165 0.270514
v 0.019637 0.030139 0.270541
v 0.020310 0.030139 0.270541
v 0.027727 0.030139 0.270536
v 0.028403 0.030139 0.270533
v 0.017614 0.030139 0.270531
v 0.030427 0.032165 0.270479
v 0.030427 0.030139 0.270502
v 0.031100 0.030139 0.270412
v 0.033123 0.030139 0.269978
f 1 2 3
f 1 3 4
f 1 4 5
f 1 5 6
f 1 6 24
f 1 24 7
f 1 7 8
f 1 8 2
f 2 8 3
f 3 8 9
f 3 9 10
f 3 10 11
f 3 11 12
f 3 12 13
f 3 13 14
f 3 14 15
f 3 15 4
f 4 15 16
f 4 16 5
f 5 17 6
f 5 16 18
f 5 18 19
f 5 19 20
f 5 20 21
f 5 21 22
f 5 22 17
f 6 17 23
f 6 23 44
f 6 44 24
f 7 25 26
f 7 26 27
f 7 27 9
f 7 9 8
f 7 24 25
f 9 27 28
f 9 28 10
f 10 28 29
f 10 29 11
f 11 30 31
f 11 31 12
f 11 29 30
f 12 31 32
f 12 32 13
f 13 32 33
f 13 33 14
f 14 33 34
f 14 34 18
f 14 18 15
f 15 18 16
f 17 22 23
f 18 34 35
f 18 35 19
f 19 35 36
f 19 36 20
f 20 36 37
f 20 37 21
f 21 37 38
f 21 38 22
f 22 38 39
f 22 39 40
f 22 40 41
f 22 41 23
f 23 42 43
f 23 43 44
f 23 41 45
f 23 45 42
f 24 44 46
f 24 46 25
f 25 46 47
f 25 47 26
f 26 47 48
f 26 48 49
f 26 49 27
f 27 49 50
f 27 50 51
f 27 51 28
f 28 51 52
f 28 52 53
f 28 53 29
f 29 53 54
f 29 54 55
f 29 55 56
f 29 56 57
f 29 57 58
f 29 58 59
f 29 59 30
f 30 59 31
f 31 59 60
f 31 60 61
f 31 61 32
f 32 61 62
f 32 62 63
f 32 63 33
f 33 63 34
f 34 64 65
f 34 65 35
f 34 63 64
f 35 65 66
f 35 66 36
f 36 38 37
f 36 66 67
f 36 67 68
f 36 68 38
f 38 68 39
f 39 68 69
f 39 69 70
f 39 70 40
f 40 70 71
f 40 71 41
f 41 71 45
f 42 72 73
f 42 73 74
f 42 74 43
f 42 45 71
f 42 71 70
f 42 70 72
f 43 75 44
f 43 74 75
f 44 75 76
f 44 76 77
f 44 77 46
f 46 77 78
f 46 78 79
f 46 79 80
f 46 80 81
f 46 81 82
f 46 82 83
f 46 83 84
f 46 84 85
f 46 85 86
f 46 86 47
f 47 86 48
f 48 86 87
f 48 87 49
f 49 87 50
f 50 87 85
f 50 85 51
f 51 85 88
f 51 88 89
f 51 89 52
f 52 89 90
f 52 90 91
f 52 91 53
f 53 91 54
f 54 91 92
f 54 92 93
f 54 93 56
f 54 56 55
f 56 94 57
f 56 93 94
f 57 94 95
f 57 95 96
f 57 96 58
f 58 96 60
f 58 60 59
f 60 96 97
f 60 97 61
f 61 97 98
f 61 98 62
f 62 98 63
f 63 98 99
f 63 99 100
f 63 100 64
f 64 101 65
f 64 100 102
f 64 102 101
f 65 103 66
f 65 101 103
f 66 103 104
f 66 104 67
f 67 104 68
f 68 104 105
f 68 105 106
f 68 106 69
f 69 106 107
f 69 107 108
f 69 108 109
f 69 109 70
f 70 109 110
f 70 110 111
f 70 111 112
f 70 112 113
f 70 113 72
f 72 113 112
f 72 112 111
f 72 111 110
f 72 110 109
f 72 109 157
f 72 157 159
f 72 159 158
f 72 158 119
f 72 119 118
f 72 118 117
f 72 117 116
f 72 116 115
f 72 115 114
f 72 114 73
f 73 75 74
f 73 114 75
f 75 114 76
f 76 114 115
f 76 115 116
f 76 116 77
f 77 116 117
f 77 117 118
f 77 118 119
f 77 119 78
f 78 120 121
f 78 121 79
f 78 119 120
f 79 121 80
f 80 121 81
f 81 121 82
f 82 121 83
f 83 121 84
f 84 121 85
f 85 121 122
f 85 122 160
f 85 160 159
f 85 159 157
f 85 157 156
f 85 156 155
f 85 155 154
f 85 154 152
f 85 152 104
f 85 104 151
f 85 151 150
f 85 150 187
f 85 187 186
f 85 186 185
f 85 185 179
f 85 179 178
f 85 178 182
f 85 182 200
f 85 200 199
f 85 199 198
f 85 198 195
f 85 195 194
f 85 194 193
f 85 193 192
f 85 192 196
f 85 196 190
f 85 190 170
f 85 170 169
f 85 169 189
f 85 189 167
f 85 167 188
f 85 188 163
f 85 163 161
f 85 161 123
f 85 123 88
f 85 87 86
f 88 123 89
f 89 123 90
f 90 123 124
f 90 124 125
f 90 125 126
f 90 126 91
f 91 127 92
f 91 126 128
f 91 128 127
f 92 127 93
f 93 129 94
f 93 127 130
f 93 130 131
f 93 131 129
f 94 129 95
f 95 132 133
f 95 133 134
f 95 134 135
f 95 135 96
f 95 129 136
f 95 136 132
f 96 137 138
f 96 138 139
f 96 139 97
f 96 135 137
f 97 139 98
f 98 139 100
f 98 100 99
f 100 139 140
f 100 140 102
f 101 141 103
f 101 102 142
f 101 142 143
f 101 143 141
f 102 140 144
f 102 144 145
f 102 145 146
f 102 146 147
f 102 147 142
f 103 141 148
f 103 148 149
f 103 149 150
f 103 150 151
f 103 151 104
f 104 152 105
f 105 152 106
f 106 152 153
f 106 153 107
f 107 153 109
f 107 109 108
f 109 153 152
f 109 152 154
f 109 154 155
f 109 155 156
f 109 156 157
f 119 158 120
f 120 158 159
f 120 159 160
f 120 160 121
f 121 160 122
f 123 161 162
f 123 162 124
f 124 162 125
f 125 162 126
f 126 162 163
f 126 163 164
f 126 164 165
f 126 165 128
f 127 128 166
f 127 166 130
f 128 165 167
f 128 167 166
f 129 131 168
f 129 168 136
f 130 166 169
f 130 169 131
f 131 169 170
f 131 170 168
f 132 171 133
f 132 136 172
f 132 172 171
f 133 171 173
f 133 173 134
f 134 173 174
f 134 174 137
f 134 137 135
f 136 168 172
f 137 174 138
f 138 174 175
f 138 175 139
f 139 175 140
f 140 175 176
f 140 176 177
f 140 177 144
f 141 143 178
f 141 178 179
f 141 179 148
f 142 147 143
f 143 147 178
f 144 177 180
f 144 180 145
f 145 180 146
f 146 180 181
f 146 181 182
f 146 182 147
f 147 182 178
f 148 179 183
f 148 183 184
f 148 184 149
f 149 184 185
f 149 185 186
f 149 186 187
f 149 187 150
f 161 163 162
f 163 188 164
f 164 188 165
f 165 188 167
f 166 167 189
f 166 189 169
f 168 170 190
f 168 190 172
f 171 172 191
f 171 191 192
f 171 192 193
f 171 193 194
f 171 194 195
f 171 195 173
f 172 190 196
f 172 196 191
f 173 195 197
f 173 197 177
f 173 177 176
f 173 176 174
f 174 176 175
f 177 197 198
f 177 198 180
f 179 185 184
f 179 184 183
f 180 198 199
f 180 199 181
f 181 200 182
f 181 199 200
f 191 196 192
f 195 198 197
