v 0.019635 0.058324 0.003397
v 0.019635 0.057881 0.001891
v 0.018217 0.057828 0.001984
v 0.017988 0.057966 0.003397
v 0.017960 0.057988 0.005189
v 0.019635 0.058234 0.005686
v 0.022333 0.058222 0.005644
v 0.022277 0.058185 0.003354
v 0.021342 0.057875 0.001902
v 0.019635 0.056735 0.000541
v 0.017649 0.055242 -0.000737
v 0.015853 0.055002 -0.000590
v 0.012591 0.055216 0.001856
v 0.009356 0.055267 0.009397
v 0.011199 0.055833 0.009397
v 0.011754 0.055888 0.009397
v 0.019635 0.057566 0.007035
v 0.022333 0.057454 0.006993
v 0.023945 0.057968 0.005133
v 0.023945 0.057968 0.004224
v 0.023140 0.057664 0.002426
v 0.022277 0.056809 0.000881
v 0.022333 0.055310 -0.000784
v 0.024847 0.055884 0.000579
v 0.019635 0.055387 -0.000821
v 0.016824 0.053959 -0.001060
v 0.014241 0.053173 -0.000968
v 0.012440 0.052626 -0.000792
v 0.010641 0.052018 -0.000430
v 0.011618 0.053706 0.000713
v 0.009464 0.052988 0.001368
v 0.011006 0.054676 0.003397
v 0.008020 0.054536 0.009397
v 0.013666 0.055961 0.009397
v 0.022333 0.056103 0.008212
v 0.024130 0.055603 0.007774
v 0.016575 0.055793 0.009397
v 0.018713 0.055597 0.009397
v 0.020491 0.055246 0.009397
v 0.024937 0.056450 0.006078
v 0.026846 0.055497 0.005224
v 0.027262 0.055771 0.003397
v 0.027088 0.055595 0.001398
v 0.023826 0.055140 -0.000686
v 0.022333 0.053747 -0.001233
v 0.019635 0.053747 -0.001269
v 0.014241 0.051048 -0.001581
v 0.011540 0.051090 -0.001082
v 0.009621 0.050218 -0.000843
v 0.008642 0.051244 0.000430
v 0.006881 0.050467 0.001289
v 0.007688 0.052226 0.003397
v 0.006971 0.053515 0.009397
v 0.022377 0.054030 0.009397
v 0.024605 0.053747 0.008151
v 0.025954 0.053747 0.007051
v 0.022490 0.053949 0.009397
v 0.022560 0.053832 0.009397
v 0.027329 0.053747 0.005701
v 0.028645 0.053777 0.003491
v 0.029233 0.052898 0.001768
v 0.027743 0.053719 0.000684
v 0.025625 0.054538 -0.000401
v 0.024847 0.053683 -0.000929
v 0.026597 0.052741 -0.000763
v 0.025029 0.051565 -0.000970
v 0.019635 0.051048 -0.001449
v 0.016937 0.051048 -0.001654
v 0.014241 0.048351 -0.001792
v 0.011543 0.048351 -0.001407
v 0.009395 0.048351 -0.000879
v 0.008046 0.048351 -0.000452
v 0.006550 0.048351 0.000897
v 0.003058 0.046065 0.009397
v 0.003584 0.048192 0.009397
v 0.004887 0.050786 0.009397
v 0.005473 0.051743 0.009397
v 0.023423 0.051490 0.009397
v 0.023454 0.051048 0.009397
v 0.024641 0.051048 0.008292
v 0.025990 0.051048 0.006914
v 0.027141 0.051048 0.005564
v 0.029233 0.052092 0.002654
v 0.029233 0.052898 0.002654
v 0.029233 0.052092 0.001768
v 0.026597 0.052137 -0.000763
v 0.023582 0.049748 -0.000620
v 0.016937 0.046480 -0.000976
v 0.016937 0.048351 -0.001532
v 0.014241 0.046141 -0.001179
v 0.011543 0.046463 -0.000975
v 0.009703 0.046803 -0.000763
v 0.006851 0.046331 0.001272
v 0.003564 0.042930 0.009397
v 0.003356 0.043832 0.009397
v 0.002981 0.045654 0.009397
v 0.022973 0.047690 0.009397
v 0.021812 0.044801 0.009397
v 0.026802 0.049393 0.003397
v 0.019985 0.041920 0.009397
v 0.017780 0.039423 0.009397
v 0.026728 0.049478 0.001671
v 0.027560 0.051216 0.000820
v 0.025029 0.050214 -0.000235
v 0.017184 0.044976 0.000625
v 0.018391 0.046930 -0.000699
v 0.014241 0.044793 -0.000114
v 0.011543 0.045112 0.000152
v 0.008873 0.045667 0.000651
v 0.006224 0.039291 0.009397
v 0.005401 0.040259 0.009397
v 0.008845 0.037268 0.009397
v 0.008395 0.037602 0.009397
v 0.016785 0.038549 0.009397
v 0.018250 0.044321 0.002092
v 0.016451 0.044006 0.001475
v 0.014241 0.037147 0.009397
v 0.011543 0.036598 0.009397
v 0.014521 0.037279 0.009397
f 1 2 3
f 1 3 4
f 1 4 5
f 1 5 6
f 1 6 7
f 1 7 8
f 1 8 9
f 1 9 2
f 2 10 3
f 2 9 10
f 3 10 11
f 3 11 12
f 3 12 13
f 3 13 14
f 3 14 4
f 4 14 5
f 5 14 15
f 5 15 6
f 6 15 16
f 6 16 17
f 6 17 7
f 7 17 18
f 7 18 19
f 7 19 20
f 7 20 8
f 8 20 21
f 8 21 9
f 9 22 23
f 9 23 10
f 9 21 24
f 9 24 22
f 10 25 11
f 10 23 25
f 11 25 26
f 11 26 12
f 12 26 27
f 12 27 28
f 12 28 29
f 12 29 30
f 12 30 13
f 13 30 31
f 13 31 32
f 13 32 33
f 13 33 14
f 14 33 53
f 14 53 77
f 14 77 76
f 14 76 75
f 14 75 74
f 14 74 96
f 14 96 95
f 14 95 94
f 14 94 111
f 14 111 110
f 14 110 113
f 14 113 112
f 14 112 118
f 14 118 117
f 14 117 119
f 14 119 114
f 14 114 101
f 14 101 100
f 14 100 98
f 14 98 97
f 14 97 79
f 14 79 78
f 14 78 58
f 14 58 57
f 14 57 54
f 14 54 39
f 14 39 38
f 14 38 37
f 14 37 34
f 14 34 16
f 14 16 15
f 16 34 17
f 17 34 18
f 18 35 36
f 18 36 19
f 18 34 37
f 18 37 38
f 18 38 39
f 18 39 35
f 19 36 40
f 19 40 41
f 19 41 42
f 19 42 20
f 20 42 43
f 20 43 21
f 21 43 24
f 22 24 44
f 22 44 23
f 23 44 45
f 23 45 25
f 24 43 44
f 25 46 26
f 25 45 46
f 26 47 27
f 26 46 47
f 27 47 48
f 27 48 28
f 28 48 49
f 28 49 29
f 29 49 50
f 29 50 31
f 29 31 30
f 31 50 51
f 31 51 52
f 31 52 33
f 31 33 32
f 33 52 53
f 35 54 36
f 35 39 54
f 36 55 56
f 36 56 41
f 36 41 40
f 36 54 57
f 36 57 58
f 36 58 55
f 41 59 60
f 41 60 42
f 41 56 59
f 42 60 61
f 42 61 43
f 43 61 62
f 43 62 63
f 43 63 44
f 44 63 64
f 44 64 45
f 45 64 65
f 45 65 66
f 45 66 67
f 45 67 68
f 45 68 46
f 46 68 47
f 47 68 69
f 47 69 70
f 47 70 49
f 47 49 48
f 49 71 72
f 49 72 51
f 49 51 50
f 49 70 71
f 51 72 73
f 51 73 74
f 51 74 75
f 51 75 76
f 51 76 77
f 51 77 52
f 52 77 53
f 55 58 78
f 55 78 56
f 56 78 79
f 56 79 80
f 56 80 59
f 59 80 81
f 59 81 82
f 59 82 83
f 59 83 84
f 59 84 60
f 60 84 61
f 61 84 83
f 61 83 85
f 61 85 86
f 61 86 65
f 61 65 62
f 62 65 63
f 63 65 64
f 65 86 66
f 66 86 87
f 66 87 88
f 66 88 89
f 66 89 69
f 66 69 67
f 67 69 68
f 69 90 91
f 69 91 70
f 69 89 90
f 70 91 92
f 70 92 71
f 71 92 72
f 72 93 73
f 72 92 93
f 73 93 94
f 73 94 95
f 73 95 96
f 73 96 74
f 79 97 80
f 80 97 81
f 81 97 82
f 82 97 98
f 82 98 83
f 83 99 85
f 83 98 100
f 83 100 101
f 83 101 99
f 85 99 102
f 85 102 103
f 85 103 86
f 86 103 102
f 86 102 104
f 86 104 87
f 87 104 105
f 87 105 106
f 87 106 88
f 88 106 105
f 88 105 107
f 88 107 90
f 88 90 89
f 90 107 91
f 91 108 92
f 91 107 108
f 92 108 109
f 92 109 93
f 93 110 111
f 93 111 94
f 93 109 112
f 93 112 113
f 93 113 110
f 99 101 102
f 101 114 102
f 102 114 115
f 102 115 105
f 102 105 104
f 105 115 116
f 105 116 107
f 107 117 118
f 107 118 108
f 107 116 117
f 108 118 112
f 108 112 109
f 114 119 115
f 115 119 117
f 115 117 116
