v -0.019866 -0.078801 0.043223
v -0.019866 -0.079220 0.043223
v -0.016874 -0.076603 0.043202
v -0.025447 -0.064051 0.043193
v -0.031319 -0.062071 0.043176
v -0.019208 -0.079164 0.043193
v -0.017310 -0.078146 0.043180
v -0.016937 -0.077520 0.043193
v -0.024471 -0.076614 0.043202
v -0.024406 -0.077195 0.043193
v -0.022383 -0.079120 0.043172
v -0.020866 -0.079192 0.043202
v -0.023852 -0.085423 0.038418
v -0.022858 -0.085943 0.038054
v -0.016312 -0.076010 0.043193
v -0.013065 -0.057652 0.042876
v -0.013065 -0.049816 0.042756
v -0.014157 -0.049732 0.042761
v -0.016371 -0.073107 0.043159
v -0.030841 -0.059084 0.042996
v -0.031283 -0.059084 0.042808
v -0.031761 -0.059084 0.042576
v -0.031910 -0.059694 0.042568
v -0.032358 -0.060169 0.042204
v -0.031539 -0.062574 0.042649
v -0.014580 -0.083868 0.036427
v -0.022858 -0.086480 0.037553
v -0.021862 -0.086805 0.036911
v -0.021167 -0.088181 0.035275
v -0.014580 -0.084523 0.035798
v -0.016369 -0.077128 0.043159
v -0.014580 -0.083080 0.037155
v -0.014580 -0.082554 0.037626
v -0.014580 -0.082000 0.038110
v -0.016324 -0.076614 0.043180
v -0.027463 -0.079399 0.038311
v -0.025357 -0.084098 0.038174
v -0.024496 -0.085250 0.038311
v -0.023852 -0.085927 0.037990
v -0.015354 -0.075238 0.042217
v -0.014580 -0.080607 0.038782
v -0.014580 -0.081446 0.038448
v -0.013065 -0.058396 0.042499
v -0.014295 -0.046063 0.038645
v -0.014456 -0.049094 0.042384
v -0.013065 -0.049816 0.027803
v -0.014920 -0.049609 0.042572
v -0.021019 -0.046063 0.038577
v -0.032028 -0.059084 0.042221
v -0.032250 -0.059235 0.041896
v -0.033108 -0.059649 0.039027
v -0.033134 -0.060650 0.039027
v -0.033073 -0.061635 0.039027
v -0.032205 -0.061651 0.041664
v -0.031873 -0.062647 0.041664
v -0.022858 -0.086973 0.037052
v -0.021862 -0.087823 0.035905
v -0.021862 -0.087319 0.036406
v -0.014580 -0.086089 0.034183
v -0.014580 -0.085116 0.035198
v -0.021862 -0.088281 0.035404
v -0.021412 -0.090116 0.033228
v -0.019870 -0.090234 0.032346
v -0.027512 -0.079690 0.037618
v -0.027323 -0.080065 0.037905
v -0.032806 -0.062580 0.039027
v -0.025394 -0.084187 0.037669
v -0.025135 -0.084685 0.037669
v -0.024422 -0.086162 0.037288
v -0.023852 -0.086369 0.037489
v -0.013065 -0.058743 0.041664
v -0.014580 -0.087487 0.032595
v -0.014580 -0.087957 0.032034
v -0.014580 -0.088326 0.031584
v -0.014580 -0.088880 0.030899
v -0.014580 -0.089255 0.030415
v -0.014580 -0.089769 0.029713
v -0.014580 -0.090972 0.028030
v -0.014580 -0.091688 0.026929
v -0.014580 -0.092113 0.026257
v -0.014580 -0.092398 0.025786
v -0.014580 -0.092862 0.025011
v -0.014580 -0.093064 0.024656
v -0.014580 -0.093942 0.023028
v -0.014580 -0.094210 0.022523
v -0.014580 -0.094557 0.021834
v -0.014580 -0.094954 0.020969
v -0.014580 -0.095536 0.019646
v -0.018866 -0.046063 0.038645
v -0.014295 -0.046063 0.027478
v -0.018084 -0.043848 0.026617
v -0.018780 -0.043568 0.026617
v -0.019866 -0.043177 0.026617
v -0.020719 -0.042975 0.026617
v -0.021155 -0.042908 0.026617
v -0.019868 -0.046063 0.038628
v -0.013065 -0.050487 0.027863
v -0.014580 -0.095995 0.018536
v -0.014580 -0.068218 0.018348
v -0.014580 -0.063033 0.018348
v -0.016297 -0.048675 0.021084
v -0.016367 -0.048160 0.021200
v -0.032370 -0.059084 0.041305
v -0.032938 -0.059084 0.039027
v -0.030777 -0.072821 0.000667
v -0.030922 -0.072821 0.001661
v -0.030957 -0.072821 0.002650
v -0.030965 -0.072821 0.003549
v -0.030963 -0.072821 0.004547
v -0.031085 -0.072016 0.018348
v -0.030871 -0.072799 0.018348
v -0.022858 -0.087387 0.036556
v -0.022216 -0.090038 0.033087
v -0.021581 -0.091218 0.031404
v -0.020839 -0.091822 0.030599
v -0.020866 -0.091268 0.031477
v -0.020125 -0.091190 0.031349
v -0.022520 -0.089176 0.034312
v -0.019823 -0.090770 0.031683
v -0.027512 -0.079791 0.036676
v -0.027351 -0.080115 0.037241
v -0.024813 -0.085585 0.036676
v -0.024461 -0.086268 0.036676
v -0.023469 -0.088248 0.034672
v -0.023396 -0.088119 0.035250
v -0.023569 -0.087269 0.036462
v -0.013065 -0.059084 0.039639
v -0.019357 -0.093081 0.028197
v -0.018963 -0.093260 0.027657
v -0.018821 -0.093830 0.026703
v -0.018456 -0.094026 0.026129
v -0.015330 -0.093092 0.025234
v -0.017860 -0.094574 0.024711
v -0.018346 -0.095072 0.024223
v -0.017297 -0.095105 0.023268
v -0.016257 -0.095122 0.022305
v -0.017295 -0.096095 0.021294
v -0.017367 -0.097063 0.019222
v -0.017151 -0.097169 0.018721
v -0.017306 -0.046085 0.021123
v -0.018220 -0.045034 0.021007
v -0.019245 -0.044105 0.021097
v -0.019151 -0.044044 0.021710
v -0.019866 -0.043663 0.021710
v -0.020668 -0.043311 0.021710
v -0.020540 -0.043261 0.022707
v -0.021098 -0.043059 0.022707
v -0.021155 -0.043126 0.021710
v -0.013065 -0.056562 0.028467
v -0.016843 -0.097164 0.018352
v -0.018517 -0.098909 0.013209
v -0.018517 -0.099177 0.011672
v -0.018517 -0.100044 0.002748
v -0.018517 -0.099927 0.001579
v -0.018522 -0.099541 0.000706
v -0.018517 -0.099105 0.000140
v -0.018517 -0.097924 -0.000215
v -0.018517 -0.096918 -0.000442
v -0.018517 -0.095916 -0.000506
v -0.013065 -0.057652 0.028719
v -0.013065 -0.058480 0.029036
v -0.013065 -0.059084 0.029336
v -0.018517 -0.091822 0.000136
v -0.018238 -0.064829 0.011120
v -0.017149 -0.046684 0.020939
v -0.021155 -0.043210 0.021320
v -0.030521 -0.072821 0.000020
v -0.030449 -0.073358 0.000106
v -0.030523 -0.073660 0.000774
v -0.030655 -0.073616 0.001750
v -0.030669 -0.073616 0.002748
v -0.030665 -0.073616 0.003746
v -0.030580 -0.073616 0.013728
v -0.030545 -0.073582 0.018348
v -0.022453 -0.090178 0.032419
v -0.021501 -0.092202 0.029477
v -0.021149 -0.092051 0.030150
v -0.020554 -0.093153 0.028334
v -0.020416 -0.092085 0.030201
v -0.030327 -0.074080 0.018348
v -0.030339 -0.074113 0.015719
v -0.025200 -0.084763 0.036676
v -0.023292 -0.088953 0.032680
v -0.023520 -0.088399 0.033674
v -0.023192 -0.088908 0.033674
v -0.019122 -0.094171 0.026377
v -0.017947 -0.095726 0.022626
v -0.017955 -0.095206 0.023645
v -0.018870 -0.094898 0.024900
v -0.018870 -0.095167 0.024399
v -0.018330 -0.096079 0.022241
v -0.017664 -0.095939 0.021949
v -0.017947 -0.096196 0.021654
v -0.017872 -0.097147 0.019436
v -0.017884 -0.097494 0.018536
v -0.017420 -0.097399 0.018352
v -0.017872 -0.096934 0.019932
v -0.017880 -0.045727 0.020845
v -0.018894 -0.044698 0.020823
v -0.027928 -0.072821 -0.000074
v -0.019866 -0.043965 0.020926
v -0.018517 -0.098143 0.016764
v -0.018695 -0.098266 0.015719
v -0.019389 -0.097080 0.019269
v -0.019448 -0.097147 0.018536
v -0.019194 -0.097840 0.015719
v -0.019273 -0.097896 0.014721
v -0.018560 -0.099256 0.010734
v -0.019302 -0.097913 0.013728
v -0.022349 -0.091045 0.029683
v -0.030384 -0.074209 0.001750
v -0.030368 -0.074175 0.001121
v -0.029329 -0.076082 0.000320
v -0.027378 -0.080177 0.000209
v -0.018568 -0.098562 -0.000031
v -0.029482 -0.075417 0.000093
v -0.018868 -0.096565 -0.000403
v -0.018868 -0.095564 -0.000515
v -0.028846 -0.073616 -0.000523
v -0.028749 -0.072821 -0.000468
v -0.019868 -0.092572 -0.000476
v -0.019868 -0.091576 -0.000356
v -0.025850 -0.077609 -0.000241
v -0.025196 -0.077609 0.000123
v -0.025316 -0.077078 0.000226
v -0.021047 -0.043557 0.020943
v -0.029751 -0.072821 -0.000425
v -0.029914 -0.073660 -0.000151
v -0.029663 -0.074611 -0.000057
v -0.028351 -0.078118 0.000247
v -0.030295 -0.074024 0.000453
v -0.022269 -0.090989 0.030685
v -0.021371 -0.093081 0.027225
v -0.020591 -0.094278 0.025700
v -0.020477 -0.094143 0.026377
v -0.019870 -0.094210 0.026467
v -0.019870 -0.093942 0.026968
v -0.019870 -0.093517 0.027692
v -0.018870 -0.095514 0.023701
v -0.018870 -0.096112 0.022343
v -0.018870 -0.095911 0.022840
v -0.018517 -0.097969 0.017376
v -0.019866 -0.044687 0.020459
v -0.019446 -0.096112 0.022356
v -0.020310 -0.095027 0.024073
v -0.020408 -0.095111 0.023405
v -0.019491 -0.097214 0.017719
v -0.020442 -0.095172 0.022703
v -0.020450 -0.095217 0.021705
v -0.021385 -0.093109 0.026694
v -0.027848 -0.077609 -0.000288
v -0.028846 -0.074611 -0.000468
v -0.027848 -0.076614 -0.000502
v -0.025850 -0.078605 -0.000395
v -0.019642 -0.095184 0.024446
v -0.019870 -0.094574 0.025700
f 1 2 3
f 1 3 4
f 1 4 5
f 1 5 2
f 2 6 7
f 2 7 8
f 2 8 3
f 2 5 9
f 2 9 10
f 2 10 11
f 2 11 12
f 2 12 13
f 2 13 14
f 2 14 6
f 3 8 15
f 3 15 4
f 4 16 17
f 4 17 18
f 4 18 5
f 4 15 19
f 4 19 16
f 5 20 21
f 5 21 22
f 5 22 23
f 5 23 24
f 5 24 25
f 5 25 10
f 5 10 9
f 5 18 20
f 6 26 7
f 6 14 27
f 6 27 28
f 6 28 29
f 6 29 30
f 6 30 26
f 7 31 8
f 7 26 32
f 7 32 33
f 7 33 34
f 7 34 31
f 8 31 35
f 8 35 15
f 10 25 36
f 10 36 37
f 10 37 38
f 10 38 11
f 11 38 13
f 11 13 12
f 13 38 39
f 13 39 14
f 14 39 27
f 15 35 16
f 15 16 19
f 16 35 31
f 16 31 40
f 16 40 41
f 16 41 42
f 16 42 43
f 16 43 71
f 16 71 127
f 16 127 162
f 16 162 161
f 16 161 160
f 16 160 149
f 16 149 97
f 16 97 46
f 16 46 17
f 17 44 45
f 17 45 18
f 17 46 90
f 17 90 44
f 18 45 47
f 18 47 20
f 20 47 48
f 20 48 21
f 21 48 22
f 22 49 24
f 22 24 23
f 22 48 49
f 24 49 50
f 24 50 51
f 24 51 52
f 24 52 53
f 24 53 54
f 24 54 25
f 25 54 55
f 25 55 36
f 26 43 32
f 26 30 43
f 27 56 57
f 27 57 58
f 27 58 28
f 27 39 56
f 28 58 29
f 29 59 60
f 29 60 30
f 29 58 57
f 29 57 61
f 29 61 62
f 29 62 63
f 29 63 59
f 30 60 43
f 31 34 42
f 31 42 40
f 32 43 33
f 33 43 34
f 34 43 42
f 36 64 65
f 36 65 37
f 36 55 54
f 36 54 66
f 36 66 64
f 37 65 67
f 37 67 68
f 37 68 69
f 37 69 38
f 38 69 70
f 38 70 39
f 39 70 56
f 40 42 41
f 43 60 59
f 43 59 72
f 43 72 73
f 43 73 74
f 43 74 75
f 43 75 76
f 43 76 77
f 43 77 78
f 43 78 79
f 43 79 80
f 43 80 81
f 43 81 82
f 43 82 83
f 43 83 84
f 43 84 85
f 43 85 86
f 43 86 87
f 43 87 88
f 43 88 71
f 44 89 45
f 44 90 91
f 44 91 92
f 44 92 93
f 44 93 94
f 44 94 95
f 44 95 89
f 45 89 96
f 45 96 48
f 45 48 47
f 46 97 98
f 46 98 99
f 46 99 100
f 46 100 101
f 46 101 102
f 46 102 90
f 48 96 95
f 48 95 103
f 48 103 49
f 49 103 50
f 50 103 51
f 51 103 104
f 51 104 105
f 51 105 106
f 51 106 52
f 52 106 53
f 53 106 107
f 53 107 108
f 53 108 109
f 53 109 110
f 53 110 111
f 53 111 66
f 53 66 54
f 56 70 112
f 56 112 62
f 56 62 61
f 56 61 57
f 59 63 72
f 62 113 114
f 62 114 115
f 62 115 116
f 62 116 117
f 62 117 63
f 62 112 118
f 62 118 113
f 63 117 119
f 63 119 72
f 64 120 121
f 64 121 65
f 64 66 111
f 64 111 120
f 65 121 122
f 65 122 67
f 67 122 123
f 67 123 68
f 68 123 69
f 69 123 124
f 69 124 125
f 69 125 126
f 69 126 70
f 70 126 112
f 71 88 98
f 71 98 127
f 72 119 73
f 73 119 74
f 74 119 117
f 74 117 75
f 75 117 76
f 76 117 77
f 77 117 78
f 78 117 128
f 78 128 129
f 78 129 130
f 78 130 79
f 79 130 131
f 79 131 80
f 80 132 81
f 80 131 132
f 81 132 82
f 82 132 83
f 83 132 133
f 83 133 134
f 83 134 135
f 83 135 84
f 84 135 85
f 85 135 136
f 85 136 86
f 86 136 137
f 86 137 87
f 87 137 138
f 87 138 88
f 88 138 139
f 88 139 98
f 89 95 96
f 90 102 140
f 90 140 141
f 90 141 142
f 90 142 143
f 90 143 91
f 91 143 144
f 91 144 145
f 91 145 92
f 92 145 146
f 92 146 147
f 92 147 93
f 93 147 94
f 94 147 95
f 95 147 148
f 95 148 104
f 95 104 103
f 97 149 98
f 98 139 150
f 98 150 151
f 98 151 152
f 98 152 153
f 98 153 154
f 98 154 155
f 98 155 156
f 98 156 157
f 98 157 158
f 98 158 159
f 98 159 99
f 98 149 160
f 98 160 161
f 98 161 162
f 98 162 127
f 99 159 100
f 100 159 163
f 100 163 164
f 100 164 101
f 101 164 102
f 102 164 165
f 102 165 140
f 104 148 166
f 104 166 105
f 105 167 168
f 105 168 169
f 105 169 106
f 105 166 167
f 106 169 170
f 106 170 107
f 107 170 171
f 107 171 108
f 108 171 109
f 109 111 110
f 109 171 172
f 109 172 111
f 111 172 173
f 111 173 174
f 111 174 120
f 112 126 118
f 113 175 176
f 113 176 114
f 113 118 125
f 113 125 175
f 114 176 177
f 114 177 115
f 115 177 178
f 115 178 179
f 115 179 116
f 116 179 117
f 117 179 128
f 118 126 125
f 120 174 180
f 120 180 181
f 120 181 153
f 120 153 182
f 120 182 121
f 121 182 122
f 122 182 183
f 122 183 123
f 123 183 184
f 123 184 185
f 123 185 124
f 124 185 175
f 124 175 125
f 128 179 186
f 128 186 130
f 128 130 129
f 130 186 131
f 131 186 134
f 131 134 133
f 131 133 132
f 134 187 188
f 134 188 135
f 134 186 189
f 134 189 190
f 134 190 191
f 134 191 187
f 135 188 187
f 135 187 136
f 136 187 192
f 136 192 137
f 137 191 193
f 137 193 138
f 137 192 191
f 138 194 195
f 138 195 196
f 138 196 139
f 138 193 191
f 138 191 197
f 138 197 194
f 139 196 150
f 140 165 198
f 140 198 141
f 141 199 142
f 141 198 200
f 141 200 199
f 142 201 166
f 142 166 145
f 142 145 144
f 142 144 143
f 142 199 201
f 145 166 148
f 145 148 146
f 146 148 147
f 150 196 151
f 151 196 202
f 151 202 203
f 151 203 204
f 151 204 152
f 152 204 205
f 152 205 206
f 152 206 207
f 152 207 208
f 152 208 153
f 153 208 207
f 153 207 209
f 153 209 210
f 153 210 183
f 153 183 182
f 153 181 172
f 153 172 171
f 153 171 211
f 153 211 154
f 154 211 212
f 154 212 213
f 154 213 155
f 155 213 214
f 155 214 156
f 156 215 157
f 156 214 216
f 156 216 215
f 157 215 217
f 157 217 158
f 158 217 218
f 158 218 159
f 159 218 219
f 159 219 220
f 159 220 221
f 159 221 222
f 159 222 163
f 163 222 223
f 163 223 224
f 163 224 225
f 163 225 164
f 164 225 200
f 164 200 198
f 164 198 165
f 166 201 226
f 166 226 167
f 167 227 228
f 167 228 168
f 167 226 227
f 168 228 229
f 168 229 216
f 168 216 214
f 168 214 230
f 168 230 213
f 168 213 231
f 168 231 169
f 169 231 212
f 169 212 170
f 170 212 211
f 170 211 171
f 172 181 173
f 173 181 180
f 173 180 174
f 175 232 176
f 175 185 232
f 176 232 233
f 176 233 234
f 176 234 235
f 176 235 177
f 177 235 178
f 178 235 236
f 178 236 237
f 178 237 179
f 179 237 238
f 179 238 186
f 183 210 184
f 184 210 232
f 184 232 185
f 186 238 237
f 186 237 236
f 186 236 190
f 186 190 189
f 187 191 192
f 190 239 191
f 190 236 239
f 191 240 194
f 191 194 197
f 191 239 241
f 191 241 240
f 194 240 195
f 195 242 202
f 195 202 196
f 195 240 242
f 199 243 201
f 199 200 220
f 199 220 243
f 200 225 224
f 200 224 223
f 200 223 220
f 201 243 220
f 201 220 226
f 202 242 204
f 202 204 203
f 204 244 245
f 204 245 246
f 204 246 205
f 204 242 244
f 205 247 207
f 205 207 206
f 205 246 247
f 207 247 248
f 207 248 209
f 209 248 249
f 209 249 250
f 209 250 210
f 210 250 233
f 210 233 232
f 212 231 213
f 213 230 214
f 215 216 229
f 215 229 217
f 217 229 251
f 217 251 252
f 217 252 253
f 217 253 218
f 218 253 219
f 219 253 252
f 219 252 227
f 219 227 220
f 220 223 254
f 220 254 221
f 220 227 226
f 221 254 222
f 222 254 223
f 227 252 251
f 227 251 228
f 228 251 229
f 233 250 248
f 233 248 246
f 233 246 245
f 233 245 234
f 234 245 235
f 235 245 244
f 235 244 255
f 235 255 256
f 235 256 236
f 236 256 255
f 236 255 239
f 239 255 241
f 240 241 244
f 240 244 242
f 241 255 244
f 246 248 247
f 248 250 249
