v -0.008887 -0.070930 0.009505
v -0.008362 -0.070944 0.009505
v -0.009883 -0.071826 0.002746
v -0.011944 -0.070986 0.009326
v -0.010269 -0.070945 0.009505
v -0.018513 -0.079157 0.011687
v -0.014690 -0.079157 0.011687
v -0.007889 -0.070957 0.009505
v -0.008887 -0.071889 0.002746
v -0.008887 -0.072031 0.002094
v -0.009883 -0.071999 0.002047
v -0.010269 -0.072015 0.002072
v -0.010881 -0.072040 0.002113
v -0.010269 -0.071859 0.002746
v -0.010881 -0.071912 0.002746
v -0.011496 -0.072092 0.002194
v -0.012404 -0.071074 0.009326
v -0.015036 -0.072485 0.009326
v -0.015215 -0.072694 0.009326
v -0.015438 -0.072994 0.009326
v -0.015544 -0.073149 0.009326
v -0.018513 -0.079157 0.011565
v -0.018513 -0.080108 0.011687
v -0.012878 -0.071242 0.009326
v -0.013644 -0.071517 0.009326
v -0.013874 -0.071629 0.009326
v -0.014262 -0.071845 0.009326
v -0.014519 -0.071992 0.009326
v -0.014798 -0.072217 0.009326
v -0.010577 -0.084596 0.011687
v -0.001806 -0.079157 0.010843
v -0.006890 -0.071204 0.009505
v -0.008251 -0.072087 0.002183
v -0.008887 -0.072624 0.001668
v -0.007905 -0.072557 0.001851
v -0.009883 -0.072624 0.001652
v -0.010269 -0.072624 0.001676
v -0.010881 -0.072624 0.001715
v -0.011849 -0.072565 0.001905
v -0.012876 -0.072848 0.001954
v -0.013536 -0.073020 0.002103
v -0.012876 -0.072518 0.002746
v -0.012121 -0.072205 0.002746
v -0.015261 -0.074247 0.002746
v -0.015675 -0.074746 0.002746
v -0.016174 -0.075496 0.002746
v -0.016423 -0.075995 0.002746
v -0.016663 -0.076615 0.002746
v -0.016961 -0.077613 0.002746
v -0.017087 -0.078611 0.002746
v -0.018403 -0.080636 0.011687
v -0.017057 -0.079157 0.002746
v -0.017033 -0.079609 0.002746
v -0.016868 -0.080607 0.002746
v -0.013673 -0.072937 0.002746
v -0.014172 -0.073265 0.002746
v -0.014762 -0.073764 0.002746
v -0.010730 -0.085493 0.011687
v -0.002598 -0.081513 0.010843
v -0.003098 -0.081605 0.002746
v -0.002820 -0.080607 0.002746
v -0.002670 -0.079609 0.002746
v -0.002643 -0.079157 0.002746
v -0.002614 -0.078611 0.002746
v -0.002197 -0.076656 0.007683
v -0.002197 -0.075860 0.008035
v -0.002197 -0.075735 0.008091
v -0.002197 -0.075310 0.008424
v -0.002197 -0.074620 0.008974
v -0.002197 -0.074008 0.009484
v -0.002197 -0.073993 0.009505
v -0.002635 -0.073660 0.009505
v -0.002845 -0.073504 0.009505
v -0.005920 -0.071673 0.009505
v -0.006890 -0.072433 0.002746
v -0.007578 -0.072179 0.002746
v -0.006172 -0.072981 0.002043
v -0.006890 -0.072808 0.001871
v -0.006890 -0.073622 0.001461
v -0.007889 -0.073622 0.001477
v -0.012876 -0.073622 0.001569
v -0.013873 -0.073595 0.001858
v -0.014599 -0.073911 0.002010
v -0.015561 -0.074907 0.002050
v -0.016388 -0.076067 0.002215
v -0.016488 -0.076615 0.002090
v -0.016635 -0.077613 0.001924
v -0.016701 -0.078611 0.001860
v -0.016688 -0.079157 0.001867
v -0.016676 -0.079609 0.001874
v -0.018214 -0.081369 0.011687
v -0.016593 -0.080607 0.001946
v -0.016483 -0.081416 0.002081
v -0.016359 -0.082081 0.002314
v -0.016550 -0.081691 0.002687
v -0.010900 -0.085540 0.011687
v -0.009886 -0.085947 0.011066
v -0.005763 -0.084831 0.010843
v -0.005067 -0.084389 0.010843
v -0.003720 -0.083439 0.010843
v -0.003388 -0.083104 0.010843
v -0.003113 -0.082771 0.010843
v -0.003065 -0.082662 0.010843
v -0.003332 -0.082230 0.002746
v -0.003360 -0.082175 0.002185
v -0.003262 -0.081605 0.002058
v -0.003134 -0.080607 0.001911
v -0.003064 -0.079609 0.001851
v -0.003051 -0.079157 0.001847
v -0.003036 -0.078611 0.001843
v -0.003078 -0.077613 0.001871
v -0.002717 -0.077613 0.002746
v -0.003358 -0.076045 0.002179
v -0.004219 -0.074865 0.002043
v -0.004472 -0.074206 0.002746
v -0.004973 -0.073726 0.002746
v -0.005519 -0.073227 0.002746
v -0.006016 -0.072880 0.002746
v -0.005135 -0.073884 0.002002
v -0.005859 -0.073580 0.001798
v -0.004838 -0.074567 0.001801
v -0.004896 -0.075617 0.001484
v -0.003898 -0.077613 0.001446
v -0.003898 -0.079609 0.001445
v -0.015870 -0.078611 0.001502
v -0.013874 -0.074622 0.001539
v -0.014908 -0.074593 0.001834
v -0.015884 -0.075688 0.001948
v -0.015870 -0.076615 0.001681
v -0.015870 -0.077613 0.001530
v -0.016248 -0.079157 0.001672
v -0.015870 -0.079609 0.001517
v -0.015870 -0.080607 0.001552
v -0.018143 -0.081605 0.011687
v -0.015963 -0.081691 0.001830
v -0.015741 -0.082603 0.001914
v -0.015539 -0.083317 0.002057
v -0.016190 -0.082550 0.002687
v -0.017784 -0.082653 0.011687
v -0.017846 -0.082526 0.011687
v -0.011879 -0.085712 0.011687
v -0.009886 -0.086223 0.010567
v -0.009847 -0.086220 0.010560
v -0.008887 -0.086157 0.010368
v -0.008357 -0.086104 0.010241
v -0.006891 -0.085378 0.010619
v -0.006119 -0.085242 0.010468
v -0.005512 -0.085015 0.009730
v -0.004925 -0.084516 0.009730
v -0.004426 -0.084070 0.009730
v -0.004529 -0.083961 0.003744
v -0.004106 -0.083462 0.003744
v -0.003646 -0.082729 0.002746
v -0.004145 -0.083403 0.002746
v -0.004250 -0.083264 0.002092
v -0.003909 -0.082546 0.001961
v -0.003898 -0.081605 0.001645
v -0.003898 -0.080607 0.001480
v -0.003232 -0.076615 0.002022
v -0.003898 -0.076615 0.001581
v -0.003891 -0.075674 0.001910
v -0.005894 -0.083600 0.001534
v -0.007889 -0.084598 0.001543
v -0.011879 -0.084599 0.001522
v -0.014872 -0.082603 0.001540
v -0.015870 -0.079157 0.001510
v -0.014872 -0.075617 0.001555
v -0.014901 -0.083630 0.001860
v -0.015655 -0.083453 0.002746
v -0.014589 -0.084298 0.002062
v -0.015225 -0.083951 0.002746
v -0.017218 -0.083625 0.011687
v -0.010881 -0.086210 0.010554
v -0.010881 -0.086009 0.011051
v -0.012876 -0.085605 0.011687
v -0.009886 -0.086378 0.009730
v -0.008887 -0.086264 0.009730
v -0.008231 -0.086133 0.009730
v -0.007732 -0.085989 0.009730
v -0.006891 -0.085709 0.009730
v -0.006010 -0.085316 0.009730
v -0.006175 -0.085222 0.003744
v -0.005678 -0.084912 0.003744
v -0.005028 -0.084412 0.003744
v -0.004588 -0.083902 0.002746
v -0.005087 -0.084375 0.002746
v -0.005228 -0.084261 0.002083
v -0.004896 -0.083598 0.001887
v -0.004896 -0.082603 0.001544
v -0.005933 -0.084596 0.001941
v -0.006891 -0.084598 0.001627
v -0.009886 -0.085596 0.001699
v -0.010881 -0.085596 0.001767
v -0.012876 -0.084599 0.001623
v -0.013874 -0.083601 0.001562
v -0.013851 -0.084617 0.001926
v -0.013503 -0.085169 0.002153
v -0.014124 -0.084929 0.002746
v -0.014726 -0.084430 0.002746
v -0.016877 -0.083896 0.011687
v -0.011576 -0.086151 0.010381
v -0.010881 -0.086316 0.009730
v -0.013743 -0.085280 0.011687
v -0.012876 -0.085677 0.010727
v -0.012137 -0.086027 0.009730
v -0.008887 -0.086275 0.008731
v -0.009886 -0.086376 0.008731
v -0.008205 -0.086139 0.008731
v -0.007706 -0.086010 0.008731
v -0.006891 -0.085691 0.008731
v -0.006891 -0.085584 0.003744
v -0.006211 -0.085201 0.002746
v -0.005712 -0.084876 0.002746
v -0.006291 -0.085156 0.002169
v -0.006891 -0.085299 0.002042
v -0.007889 -0.085493 0.001899
v -0.009847 -0.085599 0.001704
v -0.009886 -0.086184 0.002114
v -0.010881 -0.086146 0.002172
v -0.011784 -0.085638 0.001953
v -0.012876 -0.085328 0.002007
v -0.011386 -0.086098 0.002244
v -0.012876 -0.085622 0.002746
v -0.013626 -0.085248 0.002746
v -0.015886 -0.084409 0.011687
v -0.013688 -0.085289 0.003744
v -0.011638 -0.086166 0.009730
v -0.011604 -0.086166 0.003744
v -0.010881 -0.086293 0.003744
v -0.012113 -0.086018 0.004742
v -0.012876 -0.085718 0.009730
v -0.012876 -0.085706 0.004742
v -0.009886 -0.086310 0.003744
v -0.009847 -0.086290 0.002746
v -0.008944 -0.086181 0.002746
v -0.008398 -0.086093 0.003370
v -0.007982 -0.085983 0.003719
v -0.007889 -0.085922 0.002746
v -0.006891 -0.085541 0.002746
v -0.009121 -0.086149 0.002166
v -0.008828 -0.085687 0.001872
v -0.009886 -0.086293 0.002746
v -0.010881 -0.086246 0.002746
v -0.009847 -0.086183 0.002117
v -0.011491 -0.086134 0.002746
v -0.011990 -0.085971 0.002746
v -0.012876 -0.085697 0.003744
v -0.012103 -0.086004 0.003744
v -0.008445 -0.086083 0.002746
f 1 2 3
f 1 3 4
f 1 4 5
f 1 5 6
f 1 6 7
f 1 7 2
f 2 8 3
f 2 7 8
f 3 8 9
f 3 9 10
f 3 10 11
f 3 11 12
f 3 12 13
f 3 13 14
f 3 14 4
f 4 14 15
f 4 15 16
f 4 16 17
f 4 17 5
f 5 17 6
f 6 18 19
f 6 19 20
f 6 20 21
f 6 21 22
f 6 22 23
f 6 23 51
f 6 51 91
f 6 91 134
f 6 134 140
f 6 140 139
f 6 139 172
f 6 172 200
f 6 200 225
f 6 225 203
f 6 203 175
f 6 175 141
f 6 141 96
f 6 96 58
f 6 58 30
f 6 30 7
f 6 17 24
f 6 24 25
f 6 25 26
f 6 26 27
f 6 27 28
f 6 28 29
f 6 29 18
f 7 30 31
f 7 31 32
f 7 32 8
f 8 32 33
f 8 33 9
f 9 33 10
f 10 34 11
f 10 33 35
f 10 35 34
f 11 34 36
f 11 36 37
f 11 37 38
f 11 38 12
f 12 38 13
f 13 15 14
f 13 38 39
f 13 39 16
f 13 16 15
f 16 39 40
f 16 40 41
f 16 41 42
f 16 42 43
f 16 43 17
f 17 43 24
f 18 44 19
f 18 29 44
f 19 44 45
f 19 45 20
f 20 45 21
f 21 45 46
f 21 46 47
f 21 47 22
f 22 48 49
f 22 49 50
f 22 50 23
f 22 47 48
f 23 50 52
f 23 52 53
f 23 53 54
f 23 54 51
f 24 43 25
f 25 43 42
f 25 42 26
f 26 42 55
f 26 55 27
f 27 55 28
f 28 55 56
f 28 56 29
f 29 56 57
f 29 57 44
f 30 58 31
f 31 59 60
f 31 60 61
f 31 61 62
f 31 62 63
f 31 63 64
f 31 64 65
f 31 65 66
f 31 66 67
f 31 67 68
f 31 68 69
f 31 69 70
f 31 70 71
f 31 71 72
f 31 72 73
f 31 73 74
f 31 74 32
f 31 58 59
f 32 74 75
f 32 75 76
f 32 76 33
f 33 76 75
f 33 75 77
f 33 77 78
f 33 78 35
f 34 35 78
f 34 78 79
f 34 79 36
f 36 79 80
f 36 80 81
f 36 81 37
f 37 81 38
f 38 81 39
f 39 81 40
f 40 81 82
f 40 82 41
f 41 82 83
f 41 83 56
f 41 56 55
f 41 55 42
f 44 84 45
f 44 57 83
f 44 83 84
f 45 84 85
f 45 85 46
f 46 85 47
f 47 85 48
f 48 85 49
f 49 85 86
f 49 86 87
f 49 87 50
f 50 87 88
f 50 88 89
f 50 89 90
f 50 90 52
f 51 54 91
f 52 90 53
f 53 90 92
f 53 92 54
f 54 92 93
f 54 93 94
f 54 94 95
f 54 95 91
f 56 83 57
f 58 96 97
f 58 97 98
f 58 98 99
f 58 99 100
f 58 100 101
f 58 101 102
f 58 102 103
f 58 103 59
f 59 103 104
f 59 104 60
f 60 104 105
f 60 105 61
f 61 105 106
f 61 106 107
f 61 107 62
f 62 107 108
f 62 108 63
f 63 108 64
f 64 108 109
f 64 109 110
f 64 110 111
f 64 111 112
f 64 112 67
f 64 67 66
f 64 66 65
f 67 112 68
f 68 112 69
f 69 112 70
f 70 112 113
f 70 113 71
f 71 113 114
f 71 114 115
f 71 115 116
f 71 116 117
f 71 117 72
f 72 117 73
f 73 117 118
f 73 118 74
f 74 118 75
f 75 118 77
f 77 118 117
f 77 117 119
f 77 119 120
f 77 120 78
f 78 120 79
f 79 120 121
f 79 121 122
f 79 122 123
f 79 123 124
f 79 124 125
f 79 125 126
f 79 126 80
f 80 126 81
f 81 126 127
f 81 127 82
f 82 127 83
f 83 127 84
f 84 127 128
f 84 128 85
f 85 128 86
f 86 128 129
f 86 129 87
f 87 129 130
f 87 130 88
f 88 130 125
f 88 125 131
f 88 131 89
f 89 131 132
f 89 132 90
f 90 132 133
f 90 133 92
f 91 95 134
f 92 133 135
f 92 135 136
f 92 136 93
f 93 136 137
f 93 137 94
f 94 137 138
f 94 138 139
f 94 139 140
f 94 140 95
f 95 140 134
f 96 141 97
f 97 142 143
f 97 143 144
f 97 144 145
f 97 145 146
f 97 146 98
f 97 141 142
f 98 146 147
f 98 147 99
f 99 147 100
f 100 147 148
f 100 148 149
f 100 149 150
f 100 150 151
f 100 151 101
f 101 151 152
f 101 152 102
f 102 152 153
f 102 153 104
f 102 104 103
f 104 153 105
f 105 153 154
f 105 154 155
f 105 155 156
f 105 156 157
f 105 157 106
f 106 157 107
f 107 157 158
f 107 158 108
f 108 158 124
f 108 124 109
f 109 124 110
f 110 124 123
f 110 123 111
f 111 159 112
f 111 123 160
f 111 160 159
f 112 159 113
f 113 161 114
f 113 159 161
f 114 121 119
f 114 119 115
f 114 161 121
f 115 119 116
f 116 119 117
f 119 121 120
f 121 161 160
f 121 160 122
f 122 160 123
f 124 158 162
f 124 162 163
f 124 163 164
f 124 164 125
f 125 165 166
f 125 166 131
f 125 130 126
f 125 164 165
f 126 130 167
f 126 167 127
f 127 167 129
f 127 129 128
f 129 167 130
f 131 166 132
f 132 166 165
f 132 165 133
f 133 165 136
f 133 136 135
f 136 165 168
f 136 168 137
f 137 169 138
f 137 168 170
f 137 170 171
f 137 171 169
f 138 169 172
f 138 172 139
f 141 173 174
f 141 174 142
f 141 175 173
f 142 144 143
f 142 174 173
f 142 173 176
f 142 176 144
f 144 177 145
f 144 176 177
f 145 177 178
f 145 178 179
f 145 179 180
f 145 180 147
f 145 147 146
f 147 180 181
f 147 181 148
f 148 181 182
f 148 182 183
f 148 183 184
f 148 184 149
f 149 184 150
f 150 184 151
f 151 185 154
f 151 154 152
f 151 184 186
f 151 186 185
f 152 154 153
f 154 185 155
f 155 185 187
f 155 187 188
f 155 188 156
f 156 188 189
f 156 189 157
f 157 189 158
f 158 189 162
f 159 160 161
f 162 190 191
f 162 191 163
f 162 189 188
f 162 188 190
f 163 191 192
f 163 192 164
f 164 193 194
f 164 194 195
f 164 195 165
f 164 192 193
f 165 195 168
f 168 195 194
f 168 194 196
f 168 196 170
f 169 171 172
f 170 196 197
f 170 197 198
f 170 198 199
f 170 199 171
f 171 199 172
f 172 199 198
f 172 198 200
f 173 175 201
f 173 201 202
f 173 202 176
f 175 203 204
f 175 204 205
f 175 205 201
f 176 206 177
f 176 202 207
f 176 207 206
f 177 206 208
f 177 208 178
f 178 208 209
f 178 209 179
f 179 209 180
f 180 209 210
f 180 210 181
f 181 210 211
f 181 211 182
f 182 212 183
f 182 211 212
f 183 212 213
f 183 213 184
f 184 213 186
f 185 186 187
f 186 213 214
f 186 214 187
f 187 214 190
f 187 190 188
f 190 214 215
f 190 215 191
f 191 215 216
f 191 216 217
f 191 217 192
f 192 217 218
f 192 218 193
f 193 219 220
f 193 220 194
f 193 218 219
f 194 221 196
f 194 220 221
f 196 221 197
f 197 221 222
f 197 222 223
f 197 223 224
f 197 224 198
f 198 224 200
f 200 224 226
f 200 226 225
f 201 205 227
f 201 227 202
f 202 227 228
f 202 228 229
f 202 229 207
f 203 205 204
f 203 225 205
f 205 230 228
f 205 228 227
f 205 225 231
f 205 231 232
f 205 232 230
f 206 207 233
f 206 233 234
f 206 234 235
f 206 235 236
f 206 236 208
f 207 229 233
f 208 236 209
f 209 211 210
f 209 236 237
f 209 237 211
f 211 237 238
f 211 238 239
f 211 239 212
f 212 239 214
f 212 214 213
f 214 239 238
f 214 238 240
f 214 240 215
f 215 240 216
f 216 240 241
f 216 241 217
f 217 241 240
f 217 240 218
f 218 242 243
f 218 243 219
f 218 240 244
f 218 244 242
f 219 243 222
f 219 222 220
f 220 222 221
f 222 245 246
f 222 246 223
f 222 243 245
f 223 247 224
f 223 246 248
f 223 248 247
f 224 247 226
f 225 226 247
f 225 247 232
f 225 232 231
f 228 245 243
f 228 243 229
f 228 230 248
f 228 248 245
f 229 243 242
f 229 242 233
f 230 232 247
f 230 247 248
f 233 242 234
f 234 240 235
f 234 242 240
f 235 240 249
f 235 249 236
f 236 249 238
f 236 238 237
f 238 249 240
f 240 242 244
f 245 248 246
