v -0.026402 -0.032698 0.038114
v -0.026402 -0.032698 0.029687
v -0.026851 -0.032698 0.038541
v -0.026402 -0.032701 0.038537
v -0.017303 -0.036972 0.042179
v -0.009354 -0.040652 0.036677
v -0.034173 -0.032698 0.029687
v -0.009360 -0.040652 0.035677
v -0.009423 -0.040652 0.027230
v -0.021309 -0.043164 0.021186
v -0.021859 -0.043110 0.021118
v -0.022857 -0.043032 0.021036
v -0.023856 -0.043020 0.021029
v -0.034173 -0.032698 0.038638
v -0.022147 -0.035985 0.042689
v -0.021134 -0.035985 0.042621
v -0.020780 -0.035985 0.042515
v -0.015838 -0.040652 0.042762
v -0.015030 -0.040652 0.042482
v -0.010154 -0.040652 0.038320
v -0.009637 -0.040652 0.037685
v -0.009292 -0.040982 0.037360
v -0.008314 -0.043012 0.037396
v -0.009244 -0.040879 0.036677
v -0.029332 -0.046185 0.021226
v -0.029499 -0.046849 0.021051
v -0.029683 -0.047668 0.020897
v -0.030390 -0.048967 0.021129
v -0.030423 -0.049664 0.021082
v -0.034221 -0.049806 0.028579
v -0.036411 -0.040654 0.038959
v -0.024854 -0.043087 0.021098
v -0.025808 -0.043629 0.020899
v -0.026729 -0.043918 0.020998
v -0.026848 -0.043957 0.021014
v -0.027407 -0.044130 0.021166
v -0.027781 -0.044745 0.021038
v -0.028399 -0.045122 0.021169
v -0.028631 -0.045674 0.021047
v -0.008510 -0.042439 0.036677
v -0.006145 -0.047665 0.027230
v -0.021155 -0.044388 0.020514
v -0.021155 -0.043657 0.020846
v -0.021155 -0.043523 0.020934
v -0.021155 -0.043368 0.021056
v -0.021859 -0.043681 0.020742
v -0.022857 -0.043681 0.020678
v -0.023856 -0.043681 0.020662
v -0.024854 -0.043681 0.020718
v -0.034221 -0.041684 0.042736
v -0.015880 -0.040688 0.042773
v -0.033834 -0.041684 0.042762
v -0.033834 -0.049664 0.042959
v -0.015880 -0.040652 0.042769
v -0.015042 -0.040688 0.042486
v -0.006840 -0.047722 0.038368
v -0.007325 -0.046010 0.038231
v -0.008308 -0.043972 0.038242
v -0.009301 -0.042028 0.038242
v -0.008460 -0.043306 0.038059
v -0.006240 -0.047701 0.037623
v -0.006368 -0.047107 0.037256
v -0.028940 -0.046578 0.020864
v -0.029921 -0.048646 0.020835
v -0.028845 -0.047668 0.020547
v -0.029843 -0.049664 0.020636
v -0.030420 -0.049806 0.021089
v -0.033573 -0.059079 0.027031
v -0.033573 -0.059079 0.038884
v -0.034221 -0.049806 0.042897
v -0.034221 -0.049664 0.042955
v -0.026848 -0.044677 0.020687
v -0.006053 -0.047722 0.036677
v -0.006053 -0.047722 0.035677
v -0.006121 -0.047722 0.027230
v -0.021155 -0.044677 0.020461
v -0.025850 -0.044677 0.020549
v -0.023856 -0.057648 0.042853
v -0.022813 -0.059079 0.042709
v -0.030839 -0.059079 0.042997
v -0.025853 -0.056652 0.042911
v -0.006246 -0.047722 0.037656
v -0.006522 -0.047389 0.037922
v -0.022412 -0.059079 0.042473
v -0.022233 -0.059079 0.042364
v -0.007491 -0.045346 0.037993
v -0.006231 -0.047722 0.037621
v -0.027847 -0.045674 0.020744
v -0.028845 -0.048667 0.020490
v -0.029778 -0.051663 0.020782
v -0.029942 -0.050754 0.020791
v -0.030399 -0.050477 0.021120
v -0.028842 -0.051663 0.020426
v -0.028842 -0.052657 0.020426
v -0.029618 -0.052657 0.020883
v -0.029460 -0.053395 0.021040
v -0.028907 -0.053700 0.020766
v -0.028578 -0.054653 0.020990
v -0.028378 -0.055180 0.021173
v -0.027847 -0.055373 0.021005
v -0.026581 -0.056282 0.021049
v -0.025853 -0.056450 0.020903
v -0.024471 -0.057181 0.021171
v -0.023859 -0.057256 0.021096
v -0.022860 -0.057297 0.021047
v -0.022860 -0.057550 0.021710
v -0.020658 -0.059079 0.029028
v -0.032028 -0.059079 0.042225
v -0.031760 -0.059079 0.042579
v -0.031282 -0.059079 0.042813
v -0.020658 -0.059079 0.038767
v -0.020661 -0.057240 0.022524
v -0.020661 -0.057044 0.021856
v -0.020661 -0.056941 0.021649
v -0.020661 -0.056424 0.021007
v -0.020661 -0.055668 0.020715
v -0.020866 -0.055650 0.020676
v -0.024857 -0.055650 0.020503
v -0.026851 -0.054653 0.020430
v -0.027847 -0.053659 0.020406
v -0.023856 -0.058648 0.042816
v -0.027847 -0.054653 0.020576
v -0.026890 -0.055714 0.020786
v -0.025853 -0.055650 0.020479
v -0.024824 -0.056711 0.020886
v -0.023859 -0.056649 0.020731
v -0.022860 -0.056649 0.020715
v -0.022102 -0.057238 0.021105
v -0.021805 -0.057359 0.021653
v -0.021065 -0.057238 0.021949
v -0.021437 -0.057111 0.021284
v -0.020786 -0.057000 0.021653
v -0.020866 -0.056473 0.020976
v -0.021805 -0.056727 0.020903
f 1 2 7
f 1 7 14
f 1 14 3
f 1 3 4
f 1 4 5
f 1 5 6
f 1 6 2
f 2 6 8
f 2 8 9
f 2 9 10
f 2 10 11
f 2 11 12
f 2 12 13
f 2 13 7
f 3 14 15
f 3 15 4
f 4 15 16
f 4 16 17
f 4 17 5
f 5 17 16
f 5 16 18
f 5 18 19
f 5 19 20
f 5 20 21
f 5 21 6
f 6 21 22
f 6 22 23
f 6 23 24
f 6 24 8
f 7 25 26
f 7 26 27
f 7 27 28
f 7 28 29
f 7 29 30
f 7 30 31
f 7 31 14
f 7 13 32
f 7 32 33
f 7 33 34
f 7 34 35
f 7 35 36
f 7 36 37
f 7 37 38
f 7 38 39
f 7 39 25
f 8 24 9
f 9 24 40
f 9 40 41
f 9 41 42
f 9 42 43
f 9 43 44
f 9 44 45
f 9 45 10
f 10 45 11
f 11 45 44
f 11 44 12
f 12 44 43
f 12 43 46
f 12 46 47
f 12 47 48
f 12 48 13
f 13 48 49
f 13 49 32
f 14 31 50
f 14 50 15
f 15 51 16
f 15 50 52
f 15 52 53
f 15 53 51
f 16 51 54
f 16 54 18
f 18 55 19
f 18 54 51
f 18 51 55
f 19 56 57
f 19 57 58
f 19 58 59
f 19 59 20
f 19 55 56
f 20 59 21
f 21 59 60
f 21 60 22
f 22 60 23
f 23 60 61
f 23 61 62
f 23 62 24
f 24 62 40
f 25 39 26
f 26 39 63
f 26 63 27
f 27 64 28
f 27 63 65
f 27 65 64
f 28 64 66
f 28 66 29
f 29 67 68
f 29 68 30
f 29 66 67
f 30 68 31
f 31 68 69
f 31 69 70
f 31 70 71
f 31 71 50
f 32 49 33
f 33 49 72
f 33 72 34
f 34 72 35
f 35 72 37
f 35 37 36
f 37 72 39
f 37 39 38
f 39 72 63
f 40 62 73
f 40 73 74
f 40 74 41
f 41 74 75
f 41 75 42
f 42 76 48
f 42 48 47
f 42 47 46
f 42 46 43
f 42 75 76
f 48 76 77
f 48 77 49
f 49 77 72
f 50 71 52
f 51 78 79
f 51 79 55
f 51 53 80
f 51 80 81
f 51 81 78
f 52 71 53
f 53 71 80
f 55 79 56
f 56 82 83
f 56 83 57
f 56 79 84
f 56 84 85
f 56 85 82
f 57 83 86
f 57 86 60
f 57 60 58
f 58 60 59
f 60 86 61
f 61 87 62
f 61 86 82
f 61 82 87
f 62 87 73
f 63 72 88
f 63 88 65
f 64 65 66
f 65 88 72
f 65 72 77
f 65 77 89
f 65 89 66
f 66 90 91
f 66 91 92
f 66 92 67
f 66 89 93
f 66 93 94
f 66 94 90
f 67 92 68
f 68 92 95
f 68 95 96
f 68 96 97
f 68 97 98
f 68 98 99
f 68 99 100
f 68 100 101
f 68 101 102
f 68 102 103
f 68 103 104
f 68 104 105
f 68 105 106
f 68 106 107
f 68 107 111
f 68 111 85
f 68 85 84
f 68 84 79
f 68 79 80
f 68 80 110
f 68 110 109
f 68 109 108
f 68 108 69
f 69 108 70
f 70 108 71
f 71 108 109
f 71 109 110
f 71 110 80
f 73 87 111
f 73 111 107
f 73 107 74
f 74 107 75
f 75 107 112
f 75 112 113
f 75 113 114
f 75 114 115
f 75 115 116
f 75 116 76
f 76 116 117
f 76 117 118
f 76 118 119
f 76 119 120
f 76 120 93
f 76 93 89
f 76 89 77
f 78 121 79
f 78 81 80
f 78 80 121
f 79 121 80
f 82 86 83
f 82 85 111
f 82 111 87
f 90 95 92
f 90 92 91
f 90 94 95
f 93 120 94
f 94 97 95
f 94 120 122
f 94 122 97
f 95 97 96
f 97 122 98
f 98 122 99
f 99 122 100
f 100 122 123
f 100 123 101
f 101 123 102
f 102 123 124
f 102 124 125
f 102 125 104
f 102 104 103
f 104 125 126
f 104 126 105
f 105 127 128
f 105 128 106
f 105 126 127
f 106 128 129
f 106 129 107
f 107 129 130
f 107 130 112
f 112 130 113
f 113 130 131
f 113 131 132
f 113 132 114
f 114 132 131
f 114 131 115
f 115 131 128
f 115 128 133
f 115 133 116
f 116 133 134
f 116 134 117
f 117 134 127
f 117 127 118
f 118 124 119
f 118 127 124
f 119 124 122
f 119 122 120
f 122 124 123
f 124 127 126
f 124 126 125
f 127 134 128
f 128 134 133
f 128 131 129
f 129 131 130
