v 0.035593 0.018219 0.070940
v 0.028682 0.018003 0.068870
v 0.028099 0.018003 0.043450
v 0.028067 0.018003 0.042314
v 0.023413 0.018250 0.008426
v 0.026988 0.018827 0.008903
v 0.034910 0.019866 0.070346
v 0.033868 0.022667 0.070835
v 0.034432 0.021215 0.070940
v 0.034928 0.019673 0.071874
v 0.035460 0.018244 0.071919
v 0.034437 0.018219 0.073741
v 0.025267 0.018003 0.068419
v 0.032413 0.018219 0.074903
v 0.031431 0.018219 0.075073
v 0.030449 0.018219 0.075080
v 0.024702 0.018003 0.042177
v -0.011294 0.040582 0.008426
v 0.024363 0.023820 0.008426
v 0.024863 0.022968 0.008452
v 0.024716 0.018003 0.043770
v 0.024858 0.018003 0.051299
v 0.025014 0.018003 0.059154
v 0.026208 0.020468 0.008785
v 0.032968 0.024567 0.070842
v 0.032693 0.024843 0.071919
v 0.033468 0.023178 0.071919
v 0.034102 0.021607 0.072056
v 0.034955 0.018702 0.072853
v 0.033845 0.020966 0.073206
v 0.033005 0.022482 0.073499
v 0.033881 0.019253 0.073917
v 0.033537 0.018244 0.074433
v 0.029471 0.018219 0.074949
v 0.028411 0.018219 0.074603
v 0.027543 0.018219 0.074094
v 0.026589 0.018219 0.073199
v 0.025795 0.018219 0.071958
v 0.025446 0.018219 0.070927
v -0.011188 0.041881 0.068890
v -0.011188 0.041815 0.067002
v -0.011188 0.041790 0.066023
v 0.025115 0.018003 0.063072
v 0.032413 0.019253 0.074779
v 0.031431 0.020233 0.074962
v 0.031431 0.019253 0.075027
v 0.030449 0.021215 0.075060
v 0.030449 0.020233 0.075093
v 0.030449 0.019253 0.075093
v 0.009704 0.041824 0.075099
v 0.009557 0.040841 0.075001
v -0.011294 0.044315 0.013029
v -0.011027 0.044000 0.008766
v -0.009779 0.043997 0.008766
v -0.003863 0.043321 0.008713
v 0.008685 0.038770 0.008426
v -0.011294 0.041642 0.042164
v 0.023128 0.025695 0.008426
v 0.023803 0.024846 0.009105
v 0.030003 0.029635 0.070653
v 0.031013 0.027959 0.070587
v 0.032018 0.026294 0.070940
v 0.031963 0.026204 0.071919
v 0.031995 0.025553 0.072827
v 0.032798 0.023718 0.072964
v 0.031587 0.024755 0.073780
v 0.032271 0.022647 0.074067
v 0.032720 0.021215 0.074244
v 0.033083 0.020224 0.074244
v 0.033106 0.019253 0.074479
v 0.009557 0.039841 0.074747
v -0.011188 0.045065 0.068890
v 0.031656 0.021840 0.074642
v 0.030449 0.022195 0.074988
v 0.029471 0.023178 0.075066
v 0.029471 0.022195 0.075099
v 0.027502 0.025164 0.075119
v 0.011815 0.040841 0.075106
v 0.010833 0.041824 0.075093
v 0.009704 0.042801 0.075073
v -0.011027 0.044272 0.011149
v -0.011027 0.044190 0.010085
v -0.011294 0.044505 0.027747
v 0.009704 0.047019 0.070940
v -0.008347 0.043926 0.008766
v -0.009779 0.044181 0.010085
v -0.008797 0.044136 0.010085
v -0.006837 0.043789 0.008766
v -0.005281 0.043599 0.008935
v -0.003496 0.043437 0.010085
v -0.002014 0.042951 0.008766
v -0.001027 0.042713 0.008766
v 0.016267 0.033450 0.008426
v 0.002117 0.041736 0.008766
v 0.005298 0.040523 0.008942
v 0.007221 0.039631 0.008935
v 0.008868 0.038779 0.009105
v 0.009658 0.038284 0.008766
v 0.010791 0.037583 0.008550
v -0.011294 0.044619 0.042164
v 0.021136 0.028462 0.008596
v 0.022151 0.027169 0.008766
v 0.022844 0.026260 0.009105
v 0.028883 0.031365 0.070940
v 0.029939 0.029541 0.071867
v 0.031550 0.027107 0.070940
v 0.030940 0.027845 0.072200
v 0.030123 0.028825 0.072677
v 0.029990 0.028453 0.073271
v 0.030118 0.027857 0.073545
v 0.030687 0.026993 0.073441
v 0.029815 0.026817 0.074276
v 0.030100 0.025868 0.074453
v 0.030563 0.024638 0.074525
v 0.009704 0.043784 0.074890
v 0.009704 0.044909 0.074427
v 0.009782 0.046014 0.073493
v 0.009704 0.046894 0.071919
v -0.011294 0.044559 0.032657
v 0.030820 0.023377 0.074675
v 0.029471 0.025141 0.074851
v 0.029471 0.024161 0.074988
v 0.028484 0.025164 0.075053
v 0.027502 0.026127 0.075099
v 0.028484 0.024161 0.075106
v 0.026524 0.027107 0.075119
v 0.025542 0.028090 0.075119
v 0.017694 0.036912 0.075099
v 0.012783 0.040841 0.075080
v 0.011815 0.041824 0.075053
v 0.010833 0.042801 0.074982
v -0.010022 0.044264 0.011325
v 0.011471 0.046050 0.071756
v 0.011347 0.046249 0.070522
v 0.003462 0.041310 0.009092
v 0.000502 0.042309 0.009027
v -0.004873 0.043676 0.010085
v -0.005855 0.043826 0.010085
v -0.006837 0.043954 0.010085
v -0.007815 0.044054 0.010085
v 0.017410 0.032467 0.008766
v 0.018332 0.031609 0.008766
v 0.019144 0.030768 0.008766
v 0.015363 0.034239 0.008517
v 0.021242 0.039472 0.070581
v 0.008868 0.038921 0.010085
v 0.013371 0.045127 0.070940
v 0.014619 0.044338 0.070581
v 0.013068 0.036279 0.010085
v 0.012581 0.036404 0.008766
v 0.013954 0.035361 0.008596
v 0.016345 0.043235 0.070848
v 0.019998 0.029859 0.008948
v 0.028126 0.032413 0.070724
v 0.028057 0.032189 0.071985
v 0.028980 0.030788 0.072193
v 0.029209 0.030033 0.072840
v 0.027947 0.031672 0.073075
v 0.029159 0.029379 0.073552
v 0.028190 0.029266 0.074289
v 0.028746 0.028007 0.074433
v 0.029531 0.026169 0.074603
v 0.012783 0.041824 0.074955
v 0.011815 0.042801 0.074838
v 0.011296 0.043889 0.074518
v 0.012953 0.043457 0.074244
v 0.011439 0.045076 0.073617
v 0.010516 0.046323 0.072566
v 0.027502 0.028090 0.074897
v 0.028484 0.026127 0.074955
v 0.026524 0.028090 0.075066
v 0.027502 0.027107 0.075021
v 0.025538 0.029070 0.075093
v 0.024555 0.030055 0.075106
v 0.022596 0.032015 0.075106
v 0.019658 0.035935 0.075073
v 0.014748 0.039861 0.075060
v 0.013770 0.040841 0.075021
v 0.012834 0.045278 0.071919
v 0.023385 0.037452 0.070555
v 0.024262 0.036614 0.070581
v 0.025097 0.035748 0.070561
v 0.027107 0.033578 0.070600
v 0.014821 0.034782 0.009118
v 0.020310 0.040281 0.070718
v 0.021159 0.039398 0.072030
v 0.022453 0.038250 0.072056
v 0.013770 0.044749 0.071919
v 0.014633 0.044193 0.072050
v 0.014197 0.035398 0.009915
v 0.017423 0.042474 0.070940
v 0.015629 0.043562 0.071919
v 0.016712 0.042812 0.071919
v 0.025868 0.034768 0.072193
v 0.025850 0.034024 0.073356
v 0.027204 0.032339 0.073375
v 0.028337 0.030427 0.073636
v 0.026208 0.032078 0.074257
v 0.026680 0.030595 0.074577
v 0.027139 0.031285 0.074048
v 0.014748 0.040841 0.074884
v 0.014316 0.041994 0.074577
v 0.015464 0.041986 0.074211
v 0.014500 0.043440 0.073545
v 0.013660 0.044079 0.073336
v 0.012164 0.045312 0.072788
v 0.025538 0.031030 0.074858
v 0.026524 0.029070 0.074962
v 0.025538 0.030055 0.075014
v 0.024555 0.031030 0.075040
v 0.023573 0.032015 0.075060
v 0.022596 0.032987 0.075073
v 0.020641 0.034952 0.075073
v 0.018676 0.036912 0.075060
v 0.021614 0.034952 0.074955
v 0.019658 0.036912 0.074936
v 0.015734 0.039861 0.074942
v 0.023945 0.036819 0.072069
v 0.024932 0.035810 0.072069
v 0.019360 0.041020 0.070940
v 0.020053 0.040276 0.072102
v 0.020691 0.039406 0.072899
v 0.023192 0.037503 0.072220
v 0.015386 0.043235 0.073049
v 0.016808 0.042321 0.072970
v 0.017598 0.042000 0.072455
v 0.018534 0.041409 0.072265
v 0.024087 0.035949 0.073362
v 0.024900 0.035043 0.073401
v 0.026488 0.032927 0.073630
v 0.025574 0.033046 0.074172
v 0.024588 0.034086 0.074237
v 0.024946 0.032904 0.074551
v 0.018676 0.037895 0.074884
v 0.017253 0.040017 0.074564
v 0.016065 0.041219 0.074414
v 0.018323 0.039889 0.074237
v 0.017033 0.041648 0.073610
v 0.016019 0.042463 0.073525
v 0.024555 0.032015 0.074910
v 0.023573 0.032987 0.074942
v 0.022596 0.033970 0.074955
v 0.021614 0.035935 0.074707
v 0.020576 0.037327 0.074557
v 0.019567 0.040037 0.073310
v 0.020416 0.039145 0.073558
v 0.021559 0.038185 0.073473
v 0.022903 0.036873 0.073565
v 0.022761 0.036097 0.074185
v 0.023087 0.035441 0.074361
v 0.023647 0.034458 0.074505
v 0.022550 0.035393 0.074577
v 0.019686 0.038284 0.074485
v 0.020714 0.037955 0.074205
v 0.021747 0.036830 0.074309
f 1 2 3
f 1 3 4
f 1 4 5
f 1 5 6
f 1 6 7
f 1 7 8
f 1 8 9
f 1 9 10
f 1 10 11
f 1 11 12
f 1 12 2
f 2 13 43
f 2 43 23
f 2 23 22
f 2 22 21
f 2 21 17
f 2 17 4
f 2 4 3
f 2 12 14
f 2 14 15
f 2 15 16
f 2 16 13
f 4 17 5
f 5 18 56
f 5 56 93
f 5 93 58
f 5 58 19
f 5 19 20
f 5 20 6
f 5 17 21
f 5 21 22
f 5 22 23
f 5 23 18
f 6 20 24
f 6 24 8
f 6 8 7
f 8 24 25
f 8 25 26
f 8 26 27
f 8 27 28
f 8 28 10
f 8 10 9
f 10 28 29
f 10 29 11
f 11 29 12
f 12 30 31
f 12 31 32
f 12 32 33
f 12 33 14
f 12 29 30
f 13 16 34
f 13 34 35
f 13 35 36
f 13 36 37
f 13 37 38
f 13 38 39
f 13 39 40
f 13 40 41
f 13 41 42
f 13 42 18
f 13 18 43
f 14 44 45
f 14 45 46
f 14 46 15
f 14 33 44
f 15 46 47
f 15 47 48
f 15 48 49
f 15 49 16
f 16 49 50
f 16 50 51
f 16 51 34
f 18 52 53
f 18 53 54
f 18 54 55
f 18 55 56
f 18 23 43
f 18 42 41
f 18 41 57
f 18 57 100
f 18 100 119
f 18 119 83
f 18 83 52
f 19 58 59
f 19 59 60
f 19 60 61
f 19 61 20
f 20 61 62
f 20 62 25
f 20 25 24
f 25 62 63
f 25 63 26
f 26 63 64
f 26 64 65
f 26 65 27
f 27 65 28
f 28 65 30
f 28 30 29
f 30 65 31
f 31 66 67
f 31 67 68
f 31 68 32
f 31 65 64
f 31 64 66
f 32 68 69
f 32 69 33
f 33 69 70
f 33 70 44
f 34 51 71
f 34 71 40
f 34 40 35
f 35 40 36
f 36 40 37
f 37 40 38
f 38 40 39
f 40 72 100
f 40 100 57
f 40 57 41
f 40 71 51
f 40 51 50
f 40 50 72
f 44 73 45
f 44 70 73
f 45 73 74
f 45 74 47
f 45 47 46
f 47 74 75
f 47 75 76
f 47 76 48
f 48 76 77
f 48 77 49
f 49 77 50
f 50 78 79
f 50 79 80
f 50 80 72
f 50 77 78
f 52 81 82
f 52 82 53
f 52 83 72
f 52 72 84
f 52 84 81
f 53 82 54
f 54 85 55
f 54 82 86
f 54 86 87
f 54 87 85
f 55 85 88
f 55 88 89
f 55 89 90
f 55 90 91
f 55 91 92
f 55 92 56
f 56 92 94
f 56 94 95
f 56 95 96
f 56 96 97
f 56 97 98
f 56 98 99
f 56 99 93
f 58 93 101
f 58 101 102
f 58 102 103
f 58 103 104
f 58 104 60
f 58 60 59
f 60 104 105
f 60 105 106
f 60 106 61
f 61 106 62
f 62 106 63
f 63 107 64
f 63 106 107
f 64 107 108
f 64 108 109
f 64 109 110
f 64 110 111
f 64 111 66
f 66 111 110
f 66 110 112
f 66 112 113
f 66 113 67
f 67 113 68
f 68 113 114
f 68 114 73
f 68 73 70
f 68 70 69
f 72 80 115
f 72 115 116
f 72 116 117
f 72 117 118
f 72 118 84
f 72 83 119
f 72 119 100
f 73 120 121
f 73 121 74
f 73 114 120
f 74 121 122
f 74 122 75
f 75 123 124
f 75 124 125
f 75 125 76
f 75 122 123
f 76 125 77
f 77 126 127
f 77 127 78
f 77 125 126
f 78 127 128
f 78 128 129
f 78 129 79
f 79 129 130
f 79 130 80
f 80 130 131
f 80 131 115
f 81 84 132
f 81 132 86
f 81 86 82
f 84 133 134
f 84 134 95
f 84 95 135
f 84 135 94
f 84 94 136
f 84 136 92
f 84 92 91
f 84 91 90
f 84 90 137
f 84 137 138
f 84 138 139
f 84 139 140
f 84 140 87
f 84 87 86
f 84 86 132
f 84 118 133
f 85 87 140
f 85 140 88
f 88 140 139
f 88 139 138
f 88 138 89
f 89 138 137
f 89 137 90
f 92 136 94
f 93 141 142
f 93 142 143
f 93 143 101
f 93 99 144
f 93 144 145
f 93 145 141
f 94 135 95
f 95 134 96
f 96 134 146
f 96 146 97
f 97 146 98
f 98 146 134
f 98 134 147
f 98 147 148
f 98 148 99
f 99 149 150
f 99 150 151
f 99 151 144
f 99 148 152
f 99 152 149
f 101 143 153
f 101 153 154
f 101 154 102
f 102 154 103
f 103 154 104
f 104 154 155
f 104 155 105
f 105 155 156
f 105 156 108
f 105 108 107
f 105 107 106
f 108 157 109
f 108 156 157
f 109 158 159
f 109 159 110
f 109 157 158
f 110 159 112
f 112 160 161
f 112 161 113
f 112 159 160
f 113 161 162
f 113 162 121
f 113 121 114
f 114 121 120
f 115 131 163
f 115 163 164
f 115 164 165
f 115 165 116
f 116 165 166
f 116 166 167
f 116 167 117
f 117 167 168
f 117 168 118
f 118 168 133
f 121 162 169
f 121 169 170
f 121 170 122
f 122 170 123
f 123 171 124
f 123 170 172
f 123 172 171
f 124 173 126
f 124 126 125
f 124 171 173
f 126 173 174
f 126 174 127
f 127 174 175
f 127 175 128
f 128 175 176
f 128 176 177
f 128 177 129
f 129 177 130
f 130 177 178
f 130 178 163
f 130 163 131
f 133 147 134
f 133 168 179
f 133 179 147
f 141 145 142
f 142 145 180
f 142 180 181
f 142 181 182
f 142 182 143
f 143 182 183
f 143 183 153
f 144 151 184
f 144 184 185
f 144 185 145
f 145 185 186
f 145 186 187
f 145 187 180
f 147 179 188
f 147 188 189
f 147 189 152
f 147 152 148
f 149 190 151
f 149 151 150
f 149 152 191
f 149 191 185
f 149 185 190
f 151 190 184
f 152 189 192
f 152 192 193
f 152 193 191
f 153 183 154
f 154 183 194
f 154 194 155
f 155 194 158
f 155 158 156
f 156 158 157
f 158 195 196
f 158 196 197
f 158 197 159
f 158 194 195
f 159 197 160
f 160 198 199
f 160 199 161
f 160 197 200
f 160 200 198
f 161 199 162
f 162 199 169
f 163 178 201
f 163 201 164
f 164 201 202
f 164 202 165
f 165 202 166
f 166 202 203
f 166 203 204
f 166 204 167
f 167 204 205
f 167 205 206
f 167 206 168
f 168 206 179
f 169 199 207
f 169 207 208
f 169 208 170
f 170 208 172
f 171 172 209
f 171 209 210
f 171 210 173
f 172 208 209
f 173 210 211
f 173 211 174
f 174 211 212
f 174 212 213
f 174 213 176
f 174 176 175
f 176 214 177
f 176 213 242
f 176 242 215
f 176 215 216
f 176 216 214
f 177 214 217
f 177 217 178
f 178 217 201
f 179 206 188
f 180 187 181
f 181 187 218
f 181 218 219
f 181 219 182
f 182 219 183
f 183 219 194
f 184 190 185
f 185 191 220
f 185 220 186
f 186 221 222
f 186 222 187
f 186 220 221
f 187 222 223
f 187 223 218
f 188 206 189
f 189 206 224
f 189 224 225
f 189 225 226
f 189 226 192
f 191 193 227
f 191 227 220
f 192 226 193
f 193 226 227
f 194 219 228
f 194 228 229
f 194 229 195
f 195 229 230
f 195 230 196
f 196 230 197
f 197 230 200
f 198 200 230
f 198 230 231
f 198 231 232
f 198 232 233
f 198 233 199
f 199 233 207
f 201 217 234
f 201 234 235
f 201 235 202
f 202 235 236
f 202 236 203
f 203 236 237
f 203 237 238
f 203 238 239
f 203 239 204
f 204 239 224
f 204 224 205
f 205 224 206
f 207 240 208
f 207 233 240
f 208 240 209
f 209 240 241
f 209 241 210
f 210 241 211
f 211 241 242
f 211 242 212
f 212 242 213
f 214 216 217
f 215 242 243
f 215 243 216
f 216 243 244
f 216 244 234
f 216 234 217
f 218 223 228
f 218 228 219
f 220 227 221
f 221 227 222
f 222 227 245
f 222 245 246
f 222 246 247
f 222 247 228
f 222 228 223
f 224 239 225
f 225 239 245
f 225 245 227
f 225 227 226
f 228 247 248
f 228 248 249
f 228 249 229
f 229 249 232
f 229 232 230
f 230 232 231
f 232 249 250
f 232 250 233
f 233 251 252
f 233 252 241
f 233 241 240
f 233 250 251
f 234 244 253
f 234 253 235
f 235 253 237
f 235 237 236
f 237 254 246
f 237 246 238
f 237 253 254
f 238 246 245
f 238 245 239
f 241 252 243
f 241 243 242
f 243 252 244
f 244 252 250
f 244 250 255
f 244 255 253
f 246 248 247
f 246 254 248
f 248 254 249
f 249 254 255
f 249 255 250
f 250 252 251
f 253 255 254
