v -0.057480 -0.015269 0.070382
v -0.057420 -0.015618 0.072059
v -0.057320 -0.015138 0.072920
v -0.056325 -0.015113 0.069063
v -0.056073 -0.016397 0.069167
v -0.056319 -0.017636 0.069870
v -0.056271 -0.018616 0.070941
v -0.056867 -0.017081 0.071923
v -0.056387 -0.017536 0.072880
v -0.056962 -0.016098 0.072902
v -0.056376 -0.015163 0.074163
v -0.054942 -0.015113 0.074993
v -0.056314 -0.016243 0.073791
v -0.050514 -0.015230 0.068737
v -0.054942 -0.017081 0.068880
v -0.055292 -0.018060 0.069135
v -0.047260 -0.015113 0.068857
v -0.054977 -0.019020 0.069194
v -0.055514 -0.018928 0.069587
v -0.055541 -0.020000 0.070595
v -0.055132 -0.020941 0.070941
v -0.056002 -0.019043 0.071923
v -0.056433 -0.018108 0.071923
v -0.055416 -0.019978 0.072341
v -0.055517 -0.018970 0.073287
v -0.055650 -0.017388 0.073984
v -0.054654 -0.019135 0.074174
v -0.055254 -0.016260 0.074651
v -0.053963 -0.015113 0.075261
v -0.053963 -0.017081 0.075085
v -0.053963 -0.016098 0.075193
v -0.050072 -0.016196 0.068737
v -0.053963 -0.019043 0.068874
v -0.043810 -0.020941 0.068735
v -0.047417 -0.020957 0.068735
v -0.053977 -0.020480 0.069091
v -0.029778 -0.033268 0.068863
v -0.047379 -0.015113 0.070494
v -0.054337 -0.021253 0.069599
v -0.054546 -0.021912 0.070598
v -0.055037 -0.020941 0.071923
v -0.053497 -0.023754 0.070631
v -0.053244 -0.024066 0.071923
v -0.054408 -0.021903 0.072334
v -0.054302 -0.020929 0.073577
v -0.054717 -0.020022 0.073686
v -0.053356 -0.021083 0.074415
v -0.053743 -0.020022 0.074537
v -0.054340 -0.018060 0.074737
v -0.052976 -0.017569 0.075263
v -0.052976 -0.015607 0.075321
v -0.051994 -0.015113 0.075218
v -0.052976 -0.020022 0.074908
v -0.052976 -0.019043 0.075090
v -0.049584 -0.017153 0.068737
v -0.048569 -0.019059 0.068737
v -0.052976 -0.021007 0.068877
v -0.049109 -0.018060 0.068737
v -0.039434 -0.026199 0.068735
v -0.046677 -0.022102 0.068735
v -0.051994 -0.022969 0.068907
v -0.051189 -0.025492 0.069187
v -0.053323 -0.022788 0.069520
v -0.029916 -0.033268 0.069992
v -0.030431 -0.036586 0.074913
v -0.030431 -0.042581 0.073842
v -0.030431 -0.043527 0.071922
v -0.030431 -0.043625 0.070931
v -0.030464 -0.042882 0.069467
v -0.030431 -0.041613 0.068867
v -0.030659 -0.036243 0.068749
v -0.047753 -0.015113 0.071994
v -0.052689 -0.024139 0.069669
v -0.051585 -0.026148 0.069878
v -0.052398 -0.025506 0.070773
v -0.053697 -0.023131 0.072322
v -0.052596 -0.025104 0.071923
v -0.052480 -0.024630 0.073118
v -0.052686 -0.023773 0.073600
v -0.053410 -0.022138 0.073841
v -0.052642 -0.023073 0.074057
v -0.051127 -0.024295 0.074609
v -0.052309 -0.022135 0.074661
v -0.051018 -0.021990 0.075177
v -0.051994 -0.019531 0.075249
v -0.050036 -0.022478 0.075278
v -0.043672 -0.029352 0.075358
v -0.030607 -0.038132 0.075287
v -0.051007 -0.015113 0.074990
v -0.051994 -0.021007 0.075070
v -0.051018 -0.022969 0.075009
v -0.049049 -0.026896 0.068875
v -0.043783 -0.025844 0.068735
v -0.046056 -0.022969 0.068735
v -0.049890 -0.026056 0.068901
v -0.048065 -0.028858 0.068921
v -0.049041 -0.028342 0.069135
v -0.050478 -0.027326 0.069523
v -0.030179 -0.033268 0.070941
v -0.030431 -0.033996 0.072917
v -0.030431 -0.034867 0.073869
v -0.030431 -0.035690 0.074506
v -0.049982 -0.015113 0.074514
v -0.030911 -0.040630 0.074976
v -0.030987 -0.041615 0.074489
v -0.031391 -0.042324 0.073669
v -0.030797 -0.043125 0.072786
v -0.031424 -0.043100 0.071922
v -0.032373 -0.042715 0.071432
v -0.031342 -0.043173 0.070596
v -0.032348 -0.042218 0.069550
v -0.032411 -0.041677 0.069169
v -0.031391 -0.041981 0.069099
v -0.033354 -0.040630 0.068947
v -0.034336 -0.039651 0.068875
v -0.040226 -0.035721 0.068866
v -0.032481 -0.035255 0.068749
v -0.031575 -0.035763 0.068749
v -0.048258 -0.015113 0.072926
v -0.030431 -0.033455 0.071991
v -0.049494 -0.028794 0.069693
v -0.051468 -0.026857 0.070941
v -0.051482 -0.026698 0.071923
v -0.051582 -0.026187 0.072771
v -0.050462 -0.027519 0.073068
v -0.050717 -0.026679 0.073597
v -0.051682 -0.025202 0.073679
v -0.050362 -0.026199 0.074248
v -0.050036 -0.025883 0.074586
v -0.050036 -0.024934 0.074900
v -0.050036 -0.023952 0.075122
v -0.049055 -0.024934 0.075190
v -0.049055 -0.023952 0.075281
v -0.048071 -0.025423 0.075269
v -0.046107 -0.027879 0.075269
v -0.045120 -0.028858 0.075284
v -0.040226 -0.033759 0.075252
v -0.035979 -0.036422 0.075315
v -0.032373 -0.038668 0.075289
v -0.030911 -0.039589 0.075245
v -0.046107 -0.030323 0.068870
v -0.047027 -0.029891 0.068888
v -0.045470 -0.023759 0.068735
v -0.044800 -0.024644 0.068735
v -0.036085 -0.032894 0.068748
v -0.037655 -0.031711 0.068748
v -0.041207 -0.034739 0.068857
v -0.046132 -0.031817 0.069190
v -0.048290 -0.029975 0.069436
v -0.049169 -0.015113 0.073895
v -0.032373 -0.039651 0.075081
v -0.033354 -0.039651 0.074902
v -0.034442 -0.040016 0.074425
v -0.033140 -0.040680 0.074416
v -0.032289 -0.042182 0.073286
v -0.033354 -0.041373 0.073689
v -0.033330 -0.042093 0.072339
v -0.034336 -0.041688 0.071922
v -0.035976 -0.040851 0.070941
v -0.033330 -0.042215 0.070566
v -0.035198 -0.041060 0.070086
v -0.034360 -0.041135 0.069481
v -0.033354 -0.041400 0.069263
v -0.034352 -0.040683 0.069167
v -0.035318 -0.039651 0.068971
v -0.036299 -0.038668 0.068888
v -0.042194 -0.034739 0.068902
v -0.046709 -0.032405 0.070615
v -0.048447 -0.030583 0.070793
v -0.049529 -0.029333 0.070941
v -0.050573 -0.027951 0.071922
v -0.049657 -0.028518 0.073176
v -0.048635 -0.029168 0.073743
v -0.049573 -0.027728 0.073934
v -0.048179 -0.028384 0.074559
v -0.049055 -0.025914 0.074989
v -0.048065 -0.026896 0.075067
v -0.047089 -0.027879 0.075124
v -0.046107 -0.028858 0.075156
v -0.045120 -0.029832 0.075162
v -0.043653 -0.030815 0.075229
v -0.043171 -0.031794 0.075161
v -0.042189 -0.032777 0.075144
v -0.041207 -0.033759 0.075114
v -0.039247 -0.034739 0.075212
v -0.038265 -0.035721 0.075168
v -0.035318 -0.037686 0.075183
v -0.033354 -0.038668 0.075212
v -0.043171 -0.033759 0.068894
v -0.043260 -0.035082 0.069494
v -0.044578 -0.033832 0.069478
v -0.047208 -0.031177 0.069460
v -0.034336 -0.038668 0.075070
v -0.036299 -0.037686 0.075016
v -0.035627 -0.038830 0.074692
v -0.037598 -0.038057 0.074436
v -0.036828 -0.039176 0.073925
v -0.035459 -0.040075 0.073837
v -0.034260 -0.041211 0.073286
v -0.035247 -0.041079 0.072332
v -0.036562 -0.040379 0.072192
v -0.036974 -0.040253 0.070941
v -0.036657 -0.040203 0.070076
v -0.037983 -0.039165 0.069740
v -0.035616 -0.040290 0.069351
v -0.036681 -0.039511 0.069272
v -0.037370 -0.038760 0.069139
v -0.038585 -0.037867 0.069108
v -0.039141 -0.036807 0.068899
v -0.040239 -0.036851 0.069144
v -0.047450 -0.031663 0.070782
v -0.045738 -0.033402 0.070616
v -0.044792 -0.034409 0.070941
v -0.048380 -0.030605 0.072048
v -0.047436 -0.031655 0.072070
v -0.049904 -0.028802 0.071922
v -0.047439 -0.031144 0.073167
v -0.046110 -0.032171 0.073620
v -0.046143 -0.031083 0.074364
v -0.047208 -0.029221 0.074671
v -0.046107 -0.029832 0.074908
v -0.045126 -0.030815 0.074920
v -0.044141 -0.031794 0.074915
v -0.043171 -0.032777 0.074898
v -0.042194 -0.033759 0.074854
v -0.040226 -0.034739 0.075065
v -0.037283 -0.036703 0.075112
v -0.043046 -0.036089 0.070801
v -0.040923 -0.037195 0.069747
v -0.038265 -0.036703 0.074883
v -0.039079 -0.037030 0.074427
v -0.040177 -0.037089 0.073789
v -0.038303 -0.038730 0.073399
v -0.038908 -0.038970 0.072021
v -0.038756 -0.039162 0.070947
v -0.039640 -0.038272 0.070042
v -0.042992 -0.036120 0.071844
v -0.046704 -0.032391 0.072245
v -0.045570 -0.033259 0.072938
v -0.044250 -0.034113 0.073451
v -0.045023 -0.033078 0.073776
v -0.045158 -0.032079 0.074371
v -0.044084 -0.032989 0.074436
v -0.043143 -0.034010 0.074344
v -0.040679 -0.035788 0.074478
v -0.039247 -0.035721 0.074976
v -0.041796 -0.037128 0.071079
v -0.041484 -0.036368 0.073546
v -0.040890 -0.037158 0.073093
v -0.040060 -0.038063 0.072386
v -0.041405 -0.037273 0.071997
v -0.039995 -0.038358 0.070941
v -0.042257 -0.036268 0.072764
v -0.043740 -0.035322 0.072197
v -0.043227 -0.035054 0.073412
f 1 2 3
f 1 3 4
f 1 4 5
f 1 5 6
f 1 6 7
f 1 7 2
f 2 8 9
f 2 9 10
f 2 10 3
f 2 7 8
f 3 11 12
f 3 12 4
f 3 10 13
f 3 13 11
f 4 14 15
f 4 15 16
f 4 16 5
f 4 12 29
f 4 29 52
f 4 52 89
f 4 89 103
f 4 103 150
f 4 150 119
f 4 119 72
f 4 72 38
f 4 38 17
f 4 17 14
f 5 16 18
f 5 18 19
f 5 19 6
f 6 19 20
f 6 20 7
f 7 20 21
f 7 21 22
f 7 22 23
f 7 23 8
f 8 23 9
f 9 13 10
f 9 23 22
f 9 22 24
f 9 24 25
f 9 25 13
f 11 13 26
f 11 26 27
f 11 27 28
f 11 28 12
f 12 28 30
f 12 30 31
f 12 31 29
f 13 25 26
f 14 32 33
f 14 33 15
f 14 17 34
f 14 34 35
f 14 35 32
f 15 33 36
f 15 36 16
f 16 36 18
f 17 37 34
f 17 38 37
f 18 36 39
f 18 39 19
f 19 39 20
f 20 39 40
f 20 40 21
f 21 41 22
f 21 40 42
f 21 42 43
f 21 43 41
f 22 41 24
f 24 41 44
f 24 44 25
f 25 44 45
f 25 45 46
f 25 46 26
f 26 46 27
f 27 46 47
f 27 47 48
f 27 48 49
f 27 49 28
f 28 49 30
f 29 31 50
f 29 50 51
f 29 51 52
f 30 50 31
f 30 49 53
f 30 53 54
f 30 54 50
f 32 35 55
f 32 55 33
f 33 56 57
f 33 57 36
f 33 55 58
f 33 58 56
f 34 37 59
f 34 59 93
f 34 93 144
f 34 144 143
f 34 143 94
f 34 94 60
f 34 60 35
f 35 60 57
f 35 57 56
f 35 56 58
f 35 58 55
f 36 57 61
f 36 61 62
f 36 62 63
f 36 63 39
f 37 64 65
f 37 65 66
f 37 66 67
f 37 67 68
f 37 68 69
f 37 69 70
f 37 70 71
f 37 71 59
f 37 38 64
f 38 72 64
f 39 63 73
f 39 73 42
f 39 42 40
f 41 43 44
f 42 73 74
f 42 74 75
f 42 75 43
f 43 76 44
f 43 75 77
f 43 77 76
f 44 76 78
f 44 78 45
f 45 78 79
f 45 79 80
f 45 80 46
f 46 80 47
f 47 80 81
f 47 81 82
f 47 82 83
f 47 83 48
f 48 83 53
f 48 53 49
f 50 54 84
f 50 84 85
f 50 85 86
f 50 86 51
f 51 86 87
f 51 87 88
f 51 88 52
f 52 88 65
f 52 65 89
f 53 90 54
f 53 83 91
f 53 91 90
f 54 90 84
f 57 60 92
f 57 92 61
f 59 71 93
f 60 94 92
f 61 92 95
f 61 95 96
f 61 96 62
f 62 73 63
f 62 96 97
f 62 97 98
f 62 98 73
f 64 99 100
f 64 100 101
f 64 101 102
f 64 102 65
f 64 72 99
f 65 88 66
f 65 102 103
f 65 103 89
f 66 88 104
f 66 104 105
f 66 105 106
f 66 106 107
f 66 107 67
f 67 107 108
f 67 108 68
f 68 108 109
f 68 109 110
f 68 110 69
f 69 110 111
f 69 111 112
f 69 112 113
f 69 113 70
f 70 113 114
f 70 114 115
f 70 115 116
f 70 116 117
f 70 117 118
f 70 118 71
f 71 118 93
f 72 119 120
f 72 120 99
f 73 98 74
f 74 98 121
f 74 121 122
f 74 122 75
f 75 122 77
f 76 77 78
f 77 122 123
f 77 123 124
f 77 124 78
f 78 124 125
f 78 125 126
f 78 126 127
f 78 127 79
f 79 127 81
f 79 81 80
f 81 127 128
f 81 128 82
f 82 129 130
f 82 130 91
f 82 91 83
f 82 128 129
f 84 90 131
f 84 131 132
f 84 132 86
f 84 86 85
f 86 132 133
f 86 133 87
f 87 133 134
f 87 134 135
f 87 135 136
f 87 136 137
f 87 137 138
f 87 138 88
f 88 138 139
f 88 139 140
f 88 140 104
f 90 91 131
f 91 130 131
f 92 141 142
f 92 142 96
f 92 96 95
f 92 94 143
f 92 143 144
f 92 144 141
f 93 118 117
f 93 117 145
f 93 145 146
f 93 146 147
f 93 147 141
f 93 141 144
f 96 142 148
f 96 148 97
f 97 148 149
f 97 149 98
f 98 149 121
f 99 120 100
f 100 120 119
f 100 119 101
f 101 119 150
f 101 150 102
f 102 150 103
f 104 140 151
f 104 151 152
f 104 152 105
f 105 152 153
f 105 153 154
f 105 154 106
f 106 155 107
f 106 154 156
f 106 156 155
f 107 155 157
f 107 157 108
f 108 157 158
f 108 158 109
f 109 158 159
f 109 159 160
f 109 160 110
f 110 160 111
f 111 160 161
f 111 161 162
f 111 162 163
f 111 163 112
f 112 163 164
f 112 164 114
f 112 114 113
f 114 164 165
f 114 165 166
f 114 166 115
f 115 166 116
f 116 167 147
f 116 147 117
f 116 166 167
f 117 147 145
f 121 149 168
f 121 168 169
f 121 169 170
f 121 170 122
f 122 170 171
f 122 171 123
f 123 171 124
f 124 171 125
f 125 171 172
f 125 172 126
f 126 172 173
f 126 173 174
f 126 174 128
f 126 128 127
f 128 174 175
f 128 175 129
f 129 175 130
f 130 175 176
f 130 176 131
f 131 176 177
f 131 177 132
f 132 134 133
f 132 177 178
f 132 178 179
f 132 179 135
f 132 135 134
f 135 179 136
f 136 179 180
f 136 180 181
f 136 181 137
f 137 181 182
f 137 182 183
f 137 183 184
f 137 184 185
f 137 185 138
f 138 185 186
f 138 186 187
f 138 187 188
f 138 188 139
f 139 188 140
f 140 188 151
f 141 147 189
f 141 189 142
f 142 189 148
f 145 147 146
f 147 167 189
f 148 189 167
f 148 167 190
f 148 190 191
f 148 191 192
f 148 192 149
f 149 192 168
f 151 188 193
f 151 193 152
f 152 193 194
f 152 194 195
f 152 195 153
f 153 195 196
f 153 196 197
f 153 197 198
f 153 198 156
f 153 156 154
f 155 156 199
f 155 199 157
f 156 198 199
f 157 199 200
f 157 200 158
f 158 200 201
f 158 201 159
f 159 201 202
f 159 202 203
f 159 203 161
f 159 161 160
f 161 203 162
f 162 203 204
f 162 204 205
f 162 205 163
f 163 205 164
f 164 205 206
f 164 206 165
f 165 206 207
f 165 207 208
f 165 208 167
f 165 167 209
f 165 209 166
f 166 209 167
f 167 208 210
f 167 210 190
f 168 211 169
f 168 192 212
f 168 212 213
f 168 213 211
f 169 214 170
f 169 211 215
f 169 215 214
f 170 216 171
f 170 214 216
f 171 216 172
f 172 216 214
f 172 214 217
f 172 217 173
f 173 175 174
f 173 217 218
f 173 218 219
f 173 219 175
f 175 177 176
f 175 219 220
f 175 220 221
f 175 221 177
f 177 221 178
f 178 221 179
f 179 221 222
f 179 222 180
f 180 222 182
f 180 182 181
f 182 223 224
f 182 224 183
f 182 222 223
f 183 224 184
f 184 224 225
f 184 225 226
f 184 226 186
f 184 186 185
f 186 226 227
f 186 227 187
f 187 194 193
f 187 193 188
f 187 227 194
f 190 228 191
f 190 210 229
f 190 229 228
f 191 212 192
f 191 228 212
f 194 227 230
f 194 230 195
f 195 230 196
f 196 230 231
f 196 231 232
f 196 232 197
f 197 233 198
f 197 232 233
f 198 233 199
f 199 201 200
f 199 233 201
f 201 233 234
f 201 234 202
f 202 234 235
f 202 235 203
f 203 235 236
f 203 236 204
f 204 206 205
f 204 236 229
f 204 229 206
f 206 229 210
f 206 210 207
f 207 210 208
f 211 213 215
f 212 228 213
f 213 228 237
f 213 237 238
f 213 238 215
f 214 215 217
f 215 238 217
f 217 238 239
f 217 239 218
f 218 239 240
f 218 240 241
f 218 241 219
f 219 241 242
f 219 242 222
f 219 222 221
f 219 221 220
f 222 242 243
f 222 243 223
f 223 243 224
f 224 243 225
f 225 243 244
f 225 244 245
f 225 245 230
f 225 230 246
f 225 246 226
f 226 246 227
f 227 246 230
f 228 229 236
f 228 236 247
f 228 247 237
f 230 245 231
f 231 245 232
f 232 245 244
f 232 244 248
f 232 248 233
f 233 249 250
f 233 250 234
f 233 248 249
f 234 250 251
f 234 251 247
f 234 247 252
f 234 252 235
f 235 252 236
f 236 252 247
f 237 253 254
f 237 254 238
f 237 247 251
f 237 251 253
f 238 254 239
f 239 254 255
f 239 255 240
f 240 255 241
f 241 255 244
f 241 244 242
f 242 244 243
f 244 255 248
f 248 255 249
f 249 251 250
f 249 255 253
f 249 253 251
f 253 255 254
