v -0.052842 0.002095 0.007764
v -0.052809 0.004024 0.007776
v -0.049384 0.003039 0.000123
v -0.052801 0.000109 0.007767
v -0.052427 -0.004709 0.008217
v -0.052500 0.008192 0.008066
v -0.052704 0.006002 0.007823
v -0.048896 0.003039 -0.000517
v -0.049140 0.001110 -0.000220
v -0.048977 0.006474 -0.000080
v -0.052614 -0.002178 0.007708
v -0.051703 -0.006760 0.007282
v -0.052053 -0.006663 0.008283
v -0.051101 0.014467 0.008320
v -0.051516 0.012774 0.007967
v -0.051865 0.011138 0.007801
v -0.048586 0.011040 0.000673
v -0.048424 0.009437 -0.000252
v -0.047472 0.011130 -0.000586
v -0.048066 0.003536 -0.000785
v -0.047480 -0.007004 -0.000538
v -0.048538 -0.005246 -0.000203
v -0.049001 -0.000851 -0.000142
v -0.051507 -0.008632 0.007970
v -0.051117 -0.010195 0.008248
v -0.018977 -0.038886 0.008284
v -0.011279 0.040561 0.008419
v -0.038505 0.033716 0.008164
v -0.044095 0.027767 0.008090
v -0.049815 0.017804 0.008049
v -0.050555 0.015745 0.007927
v 0.027216 0.002193 0.008419
v -0.047260 0.014548 0.000150
v -0.047789 0.012579 -0.000020
v -0.045763 0.017739 -0.000261
v -0.044673 0.019725 -0.000344
v -0.043322 0.021499 -0.000498
v -0.041198 0.024136 -0.000614
v 0.006874 -0.029827 -0.000723
v -0.025974 -0.031797 -0.000636
v -0.046105 -0.010187 -0.000672
v -0.034811 0.030534 -0.000724
v 0.016687 0.026098 -0.000986
v -0.047236 -0.009601 -0.000319
v -0.050612 -0.011530 0.007994
v -0.049815 -0.013671 0.007952
v -0.045738 -0.021419 0.008106
v -0.034477 -0.032586 0.008069
v -0.024152 -0.037535 0.008155
v -0.021336 -0.038316 0.008000
v -0.017138 -0.039138 0.008091
v -0.008366 -0.039399 0.007921
v -0.006104 -0.039203 0.008009
v 0.000975 -0.037690 0.008262
v -0.004176 0.043304 0.008419
v -0.020580 0.042849 0.008249
v -0.031963 0.038315 0.007997
v -0.035584 0.035938 0.007919
v -0.034860 0.032528 0.000680
v -0.035844 0.031331 0.000098
v -0.040279 0.032056 0.007979
v -0.042207 0.030062 0.008030
v -0.041711 0.025642 0.000692
v -0.045551 0.025748 0.007945
v -0.046658 0.016949 0.000600
v -0.046577 0.024120 0.007881
v -0.047642 0.022183 0.007756
v -0.048570 0.020368 0.007736
v 0.029730 -0.005279 0.008262
v 0.029632 0.009901 0.008341
v 0.017224 0.032544 0.008419
v -0.045722 0.018984 0.000520
v -0.044729 0.020881 0.000528
v -0.043598 0.022598 0.000307
v -0.042362 0.023721 -0.000327
v -0.042264 0.023249 -0.000481
v -0.039270 0.027742 -0.000308
v -0.037577 0.029166 -0.000432
v -0.039823 0.025886 -0.000578
v 0.013660 -0.025562 -0.000572
v 0.009884 -0.028948 -0.000342
v 0.007256 -0.030560 -0.000403
v 0.005458 -0.030853 -0.000629
v 0.000625 -0.033294 -0.000469
v -0.003411 -0.034531 -0.000452
v -0.015665 -0.034971 -0.000528
v -0.020571 -0.033750 -0.000615
v 0.020617 -0.016088 -0.000741
v 0.015474 -0.023535 -0.000655
v -0.023842 -0.033197 -0.000431
v -0.027203 -0.032269 -0.000145
v -0.032174 -0.029265 -0.000282
v -0.034201 -0.027898 -0.000325
v -0.035852 -0.026067 -0.000475
v -0.042744 -0.017699 -0.000591
v -0.044144 -0.015103 -0.000627
v -0.045291 -0.013500 -0.000493
v -0.032532 0.033399 -0.000308
v -0.028790 0.035124 -0.000477
v -0.015177 0.039625 -0.000433
v -0.007211 0.039430 -0.000440
v 0.014726 0.028060 -0.000900
v 0.015369 0.029004 -0.000354
v 0.018160 0.025089 -0.000737
v 0.020723 0.021597 -0.000540
v 0.022765 0.016111 -0.000744
v 0.026093 0.000606 -0.000645
v -0.046381 -0.012083 -0.000250
v -0.048562 -0.016251 0.007730
v -0.047569 -0.018220 0.007798
v -0.046642 -0.019840 0.007832
v -0.042549 -0.019148 -0.000265
v -0.044192 -0.023356 0.007800
v -0.041206 -0.026946 0.007922
v -0.039319 -0.028834 0.007965
v -0.036145 -0.031357 0.007887
v -0.032980 -0.033327 0.007465
v -0.031483 -0.034271 0.007825
v -0.029237 -0.035492 0.008037
v -0.026975 -0.036469 0.008032
v -0.022069 -0.033897 -0.000395
v -0.020571 -0.034393 -0.000356
v -0.018537 -0.035085 0.000030
v -0.015234 -0.039309 0.007857
v -0.013175 -0.039407 0.007784
v -0.011076 -0.039456 0.007787
v -0.009896 -0.035687 -0.000026
v -0.005754 -0.035329 -0.000074
v -0.002874 -0.038593 0.007904
v -0.000522 -0.038121 0.008160
v 0.002366 -0.037185 0.008017
v 0.004929 -0.036216 0.008152
v 0.020641 -0.024561 0.008027
v 0.002317 0.041506 0.008093
v -0.002492 0.042946 0.008264
v -0.005640 0.043435 0.007944
v -0.007862 0.043654 0.007910
v -0.019115 0.043166 0.008208
v -0.020580 0.042507 0.007314
v -0.022850 0.042157 0.007988
v -0.024908 0.041522 0.008081
v -0.030254 0.035360 0.000382
v -0.033257 0.037485 0.007829
v -0.027016 0.040692 0.008007
v -0.029758 0.039479 0.007959
v 0.027289 -0.013573 0.008071
v 0.029120 -0.007989 0.007984
v 0.030007 -0.003228 0.007977
v 0.030243 -0.000379 0.007907
v 0.029942 0.007899 0.008159
v 0.029112 0.011984 0.008032
v 0.028274 0.014866 0.008033
v 0.027273 0.017690 0.008056
v 0.026402 0.019676 0.008049
v 0.023082 0.025626 0.008058
v 0.019608 0.030054 0.008102
v 0.017671 0.031983 0.007884
v 0.015792 0.033554 0.007630
v 0.014669 0.034579 0.007785
v 0.012936 0.035963 0.007952
v 0.010625 0.037509 0.007880
v 0.011772 -0.027841 -0.000193
v 0.018412 -0.020654 -0.000519
v 0.019640 -0.019759 -0.000147
v 0.008290 -0.030275 -0.000162
v 0.006068 -0.031373 -0.000290
v 0.004286 -0.031911 -0.000436
v 0.002464 -0.032920 -0.000315
v -0.003517 -0.035158 0.000401
v -0.007829 -0.035362 -0.000213
v -0.013704 -0.035695 0.000001
v 0.025475 -0.005287 -0.000593
v 0.021610 -0.015103 -0.000636
v 0.019828 -0.018375 -0.000583
v -0.029676 -0.031268 0.000273
v -0.037651 -0.029998 0.007478
v -0.037626 -0.025293 -0.000055
v -0.038448 -0.024129 -0.000314
v -0.039888 -0.022005 -0.000445
v -0.044494 -0.016063 -0.000224
v -0.027593 0.036313 -0.000133
v -0.021597 0.038364 -0.000208
v -0.017138 0.039495 -0.000334
v -0.015095 0.040260 0.000443
v -0.011450 0.040032 -0.000237
v -0.009302 0.040252 -0.000034
v -0.002972 0.039218 -0.000007
v -0.001222 0.038486 -0.000308
v 0.000983 0.037745 -0.000473
v 0.008599 0.033545 -0.000587
v 0.010511 0.032585 -0.000527
v 0.017395 0.026985 -0.000196
v 0.013107 0.030794 -0.000384
v 0.019624 0.024112 -0.000183
v 0.021870 0.020156 -0.000267
v 0.022960 0.018268 -0.000241
v 0.024140 0.014915 -0.000434
v 0.024547 0.012367 -0.000613
v 0.024946 0.010894 -0.000606
v 0.026719 0.003048 0.000061
v 0.026663 -0.000876 0.000102
v 0.026028 -0.004555 -0.000210
v 0.025702 0.007956 -0.000562
v 0.026248 0.006482 -0.000428
v -0.042476 -0.025342 0.007609
v 0.007004 -0.035199 0.007769
v 0.008737 -0.034312 0.007824
v 0.011561 -0.032627 0.007931
v 0.014360 -0.030592 0.007938
v 0.016296 -0.028915 0.007757
v 0.018615 -0.026710 0.007757
v 0.019348 -0.025603 0.007127
v 0.021610 -0.023202 0.007625
v 0.023156 -0.021118 0.007724
v 0.024335 -0.019401 0.007985
v 0.026386 -0.015543 0.008042
v -0.000457 0.042393 0.008088
v 0.008819 0.038518 0.007844
v 0.004449 0.040635 0.007942
v 0.000950 0.038380 0.000352
v -0.010417 0.043695 0.007753
v -0.015177 0.043565 0.007800
v -0.016869 0.043443 0.007929
v -0.016650 0.039943 0.000261
v -0.019587 0.039227 -0.000004
v -0.023769 0.038429 0.000665
v -0.025348 0.037460 0.000031
v 0.021935 -0.016039 -0.000188
v 0.023937 -0.011269 -0.000389
v 0.028038 -0.011172 0.007614
v 0.024986 -0.008950 -0.000133
v 0.030283 0.001989 0.007825
v 0.030104 0.006051 0.007914
v 0.026565 0.006971 0.000261
v 0.026012 0.009355 -0.000184
v 0.025027 0.013124 -0.000179
v 0.025003 0.022395 0.007829
v 0.024116 0.023990 0.007866
v 0.022130 0.026904 0.007920
v 0.020780 0.028385 0.007475
v 0.006695 0.035312 -0.000388
v 0.005043 0.036443 -0.000252
v 0.021064 -0.017292 -0.000350
v 0.025068 -0.007078 -0.000539
v 0.022749 -0.013687 -0.000471
v 0.024376 -0.009699 -0.000475
v -0.013248 0.043654 0.007719
v 0.002716 0.037257 -0.000298
v 0.030226 0.003975 0.007784
v 0.025108 -0.017935 0.007817
v 0.007020 0.039414 0.007742
f 1 2 3
f 1 3 4
f 1 4 5
f 1 5 6
f 1 6 2
f 2 6 7
f 2 7 3
f 3 8 9
f 3 9 4
f 3 7 10
f 3 10 8
f 4 9 11
f 4 11 5
f 5 11 12
f 5 12 13
f 5 13 14
f 5 14 6
f 6 14 15
f 6 15 16
f 6 16 17
f 6 17 18
f 6 18 10
f 6 10 7
f 8 10 18
f 8 18 19
f 8 19 20
f 8 20 21
f 8 21 22
f 8 22 9
f 9 23 11
f 9 22 23
f 11 23 22
f 11 22 12
f 12 22 24
f 12 24 13
f 13 24 25
f 13 25 26
f 13 26 14
f 14 27 28
f 14 28 29
f 14 29 30
f 14 30 31
f 14 31 15
f 14 26 32
f 14 32 27
f 15 31 33
f 15 33 34
f 15 34 17
f 15 17 16
f 17 34 18
f 18 34 19
f 19 34 35
f 19 35 36
f 19 36 37
f 19 37 38
f 19 38 20
f 20 39 40
f 20 40 41
f 20 41 21
f 20 38 42
f 20 42 43
f 20 43 39
f 21 41 44
f 21 44 22
f 22 44 24
f 24 44 45
f 24 45 25
f 25 45 46
f 25 46 47
f 25 47 26
f 26 48 49
f 26 49 50
f 26 50 51
f 26 51 52
f 26 52 53
f 26 53 54
f 26 54 32
f 26 47 48
f 27 55 56
f 27 56 28
f 27 32 71
f 27 71 55
f 28 56 57
f 28 57 58
f 28 58 59
f 28 59 60
f 28 60 61
f 28 61 62
f 28 62 29
f 29 63 64
f 29 64 30
f 29 62 63
f 30 65 31
f 30 64 66
f 30 66 67
f 30 67 68
f 30 68 65
f 31 65 33
f 32 54 69
f 32 69 70
f 32 70 71
f 33 65 35
f 33 35 34
f 35 65 72
f 35 72 36
f 36 72 73
f 36 73 74
f 36 74 75
f 36 75 37
f 37 75 76
f 37 76 38
f 38 76 75
f 38 75 77
f 38 77 78
f 38 78 79
f 38 79 42
f 39 80 81
f 39 81 82
f 39 82 83
f 39 83 84
f 39 84 85
f 39 85 86
f 39 86 87
f 39 87 40
f 39 43 88
f 39 88 89
f 39 89 80
f 40 90 91
f 40 91 92
f 40 92 93
f 40 93 94
f 40 94 95
f 40 95 96
f 40 96 41
f 40 87 90
f 41 96 97
f 41 97 44
f 42 79 78
f 42 78 98
f 42 98 99
f 42 99 100
f 42 100 43
f 43 100 101
f 43 101 102
f 43 102 103
f 43 103 104
f 43 104 105
f 43 105 106
f 43 106 107
f 43 107 88
f 44 97 108
f 44 108 45
f 45 108 46
f 46 108 109
f 46 109 110
f 46 110 47
f 47 110 111
f 47 111 112
f 47 112 113
f 47 113 114
f 47 114 115
f 47 115 48
f 48 115 116
f 48 116 117
f 48 117 118
f 48 118 119
f 48 119 49
f 49 120 91
f 49 91 121
f 49 121 122
f 49 122 50
f 49 119 120
f 50 122 123
f 50 123 51
f 51 124 125
f 51 125 126
f 51 126 52
f 51 123 124
f 52 126 127
f 52 127 128
f 52 128 53
f 53 129 130
f 53 130 54
f 53 128 129
f 54 130 131
f 54 131 132
f 54 132 133
f 54 133 69
f 55 134 135
f 55 135 136
f 55 136 137
f 55 137 138
f 55 138 56
f 55 71 134
f 56 138 139
f 56 139 140
f 56 140 141
f 56 141 57
f 57 142 143
f 57 143 58
f 57 141 144
f 57 144 145
f 57 145 142
f 58 143 59
f 59 98 60
f 59 143 142
f 59 142 98
f 60 98 78
f 60 78 77
f 60 77 61
f 61 77 62
f 62 77 63
f 63 77 75
f 63 75 74
f 63 74 64
f 64 74 66
f 65 68 72
f 66 74 73
f 66 73 67
f 67 73 72
f 67 72 68
f 69 133 146
f 69 146 147
f 69 147 148
f 69 148 149
f 69 149 150
f 69 150 70
f 70 150 151
f 70 151 152
f 70 152 153
f 70 153 154
f 70 154 71
f 71 154 155
f 71 155 156
f 71 156 157
f 71 157 158
f 71 158 159
f 71 159 160
f 71 160 161
f 71 161 134
f 80 162 81
f 80 89 163
f 80 163 164
f 80 164 162
f 81 162 165
f 81 165 82
f 82 165 166
f 82 166 167
f 82 167 83
f 83 167 84
f 84 167 168
f 84 168 85
f 85 169 128
f 85 128 170
f 85 170 86
f 85 168 169
f 86 170 127
f 86 127 171
f 86 171 123
f 86 123 122
f 86 122 87
f 87 122 121
f 87 121 90
f 88 107 172
f 88 172 173
f 88 173 174
f 88 174 89
f 89 174 163
f 90 121 91
f 91 175 92
f 91 120 119
f 91 119 175
f 92 175 93
f 93 116 176
f 93 176 177
f 93 177 178
f 93 178 94
f 93 175 117
f 93 117 116
f 94 178 179
f 94 179 95
f 95 179 112
f 95 112 180
f 95 180 96
f 96 180 97
f 97 180 108
f 98 142 181
f 98 181 99
f 99 181 182
f 99 182 183
f 99 183 100
f 100 183 184
f 100 184 185
f 100 185 101
f 101 185 186
f 101 186 187
f 101 187 188
f 101 188 189
f 101 189 102
f 102 189 190
f 102 190 191
f 102 191 103
f 103 192 104
f 103 191 193
f 103 193 159
f 103 159 158
f 103 158 157
f 103 157 192
f 104 192 194
f 104 194 105
f 105 194 195
f 105 195 196
f 105 196 197
f 105 197 106
f 106 197 198
f 106 198 199
f 106 199 107
f 107 200 201
f 107 201 202
f 107 202 172
f 107 199 203
f 107 203 204
f 107 204 200
f 108 180 109
f 109 180 110
f 110 180 111
f 111 180 112
f 112 179 178
f 112 178 205
f 112 205 113
f 113 205 114
f 114 205 177
f 114 177 115
f 115 177 176
f 115 176 116
f 117 175 118
f 118 175 119
f 123 171 124
f 124 171 125
f 125 171 126
f 126 171 127
f 127 170 128
f 128 169 129
f 129 169 130
f 130 169 131
f 131 206 132
f 131 169 168
f 131 168 206
f 132 206 207
f 132 207 208
f 132 208 209
f 132 209 133
f 133 209 210
f 133 210 211
f 133 211 212
f 133 212 213
f 133 213 214
f 133 214 215
f 133 215 216
f 133 216 146
f 134 217 135
f 134 161 218
f 134 218 219
f 134 219 220
f 134 220 217
f 135 217 187
f 135 187 136
f 136 187 186
f 136 186 137
f 137 186 221
f 137 221 222
f 137 222 223
f 137 223 138
f 138 223 139
f 139 223 224
f 139 224 225
f 139 225 226
f 139 226 140
f 140 226 141
f 141 226 144
f 142 145 227
f 142 227 181
f 144 226 227
f 144 227 145
f 146 216 228
f 146 228 229
f 146 229 230
f 146 230 147
f 147 230 231
f 147 231 202
f 147 202 148
f 148 202 201
f 148 201 149
f 149 201 232
f 149 232 150
f 150 233 234
f 150 234 235
f 150 235 151
f 150 232 233
f 151 235 236
f 151 236 152
f 152 236 153
f 153 236 196
f 153 196 154
f 154 196 237
f 154 237 238
f 154 238 155
f 155 238 239
f 155 239 156
f 156 239 240
f 156 240 192
f 156 192 157
f 159 193 160
f 160 193 191
f 160 191 241
f 160 241 161
f 161 241 242
f 161 242 218
f 162 210 209
f 162 209 208
f 162 208 165
f 162 164 212
f 162 212 210
f 163 174 243
f 163 243 164
f 164 243 228
f 164 228 214
f 164 214 213
f 164 213 212
f 165 208 207
f 165 207 206
f 165 206 166
f 166 168 167
f 166 206 168
f 172 202 231
f 172 231 244
f 172 244 173
f 173 245 243
f 173 243 174
f 173 244 246
f 173 246 245
f 177 205 178
f 181 227 182
f 182 227 225
f 182 225 183
f 183 225 224
f 183 224 184
f 184 186 185
f 184 224 223
f 184 223 222
f 184 222 247
f 184 247 186
f 186 247 221
f 187 217 220
f 187 220 189
f 187 189 188
f 189 220 248
f 189 248 242
f 189 242 241
f 189 241 190
f 190 241 191
f 192 240 194
f 194 238 195
f 194 240 239
f 194 239 238
f 195 238 196
f 196 238 237
f 196 236 197
f 197 236 198
f 198 236 235
f 198 235 199
f 199 235 203
f 200 249 232
f 200 232 201
f 200 204 234
f 200 234 249
f 203 235 204
f 204 235 234
f 210 212 211
f 214 228 215
f 215 228 250
f 215 250 216
f 216 250 228
f 218 242 251
f 218 251 219
f 219 251 242
f 219 242 220
f 220 242 248
f 221 247 222
f 225 227 226
f 228 245 229
f 228 243 245
f 229 245 246
f 229 246 231
f 229 231 230
f 231 246 244
f 232 249 233
f 233 249 234
