v -0.011366 0.051515 0.070942
v -0.011065 0.051233 0.069877
v -0.012727 0.051183 0.069841
v -0.012727 0.051480 0.070942
v -0.012727 0.051409 0.071923
v -0.011366 0.051434 0.071923
v -0.009785 0.051461 0.071433
v -0.007344 0.051432 0.070943
v -0.006851 0.051150 0.069890
v -0.007833 0.051043 0.069609
v -0.013712 0.050539 0.069240
v -0.013712 0.051158 0.069888
v -0.013712 0.051426 0.070942
v -0.014694 0.051298 0.071923
v -0.013712 0.051294 0.072269
v -0.012727 0.051158 0.072954
v -0.011366 0.051179 0.073023
v -0.009785 0.051186 0.073050
v -0.008318 0.051386 0.071922
v -0.005869 0.051340 0.070943
v -0.005869 0.051112 0.069969
v -0.003906 0.050322 0.069347
v -0.007344 0.050535 0.069260
v -0.012727 0.050558 0.069238
v -0.013712 0.049678 0.068937
v -0.015183 0.050074 0.069103
v -0.016657 0.050375 0.069296
v -0.014694 0.051122 0.069965
v -0.015853 0.051205 0.070584
v -0.014694 0.051361 0.070942
v -0.017019 0.051081 0.071775
v -0.015661 0.051118 0.072381
v -0.014694 0.051190 0.072517
v -0.013712 0.051021 0.073107
v -0.010767 0.050618 0.073818
v -0.012238 0.050590 0.073806
v -0.008318 0.050586 0.073791
v -0.007833 0.051053 0.073129
v -0.008804 0.051170 0.073006
v -0.007833 0.051214 0.072638
v -0.006709 0.051241 0.072196
v -0.005370 0.051154 0.071944
v -0.003906 0.050940 0.071922
v -0.003906 0.051039 0.070943
v -0.004919 0.051182 0.070639
v -0.000964 0.050344 0.070139
v 0.000485 0.049870 0.069928
v 0.001325 0.049264 0.069403
v 0.000021 0.049419 0.069301
v -0.003906 0.049678 0.069083
v -0.004888 0.050044 0.069164
v -0.006851 0.049678 0.068981
v -0.005869 0.050080 0.069132
v -0.011476 0.045059 0.068798
v -0.013177 0.045005 0.068798
v -0.014605 0.044906 0.068798
v -0.015679 0.044811 0.068798
v -0.016661 0.044684 0.068798
v -0.017642 0.044531 0.068798
v -0.018925 0.044308 0.068798
v -0.021034 0.043887 0.068798
v -0.022849 0.043430 0.068798
v -0.025496 0.047717 0.068986
v -0.017146 0.049678 0.069041
v -0.018621 0.049678 0.069134
v -0.022179 0.049232 0.069225
v -0.019088 0.050239 0.069482
v -0.020584 0.050227 0.069822
v -0.019230 0.050815 0.070942
v -0.018621 0.050847 0.071923
v -0.017635 0.050694 0.072901
v -0.016657 0.050817 0.072901
v -0.014694 0.050972 0.073008
v -0.013712 0.050530 0.073783
v -0.018762 0.050393 0.073187
v -0.017146 0.050115 0.073858
v -0.012727 0.049812 0.074456
v -0.011313 0.049849 0.074457
v -0.009785 0.050345 0.074054
v -0.013712 0.049796 0.074442
v -0.008318 0.049795 0.074440
v -0.006851 0.050238 0.073993
v -0.004888 0.050118 0.073886
v -0.002782 0.050200 0.073432
v -0.004888 0.050788 0.072901
v -0.003906 0.050656 0.072901
v -0.000964 0.050274 0.072616
v -0.002924 0.050782 0.071922
v -0.001942 0.050622 0.071922
v -0.002924 0.050873 0.070943
v -0.001942 0.050698 0.070943
v -0.000964 0.050510 0.070943
v 0.000414 0.050201 0.070924
v 0.002527 0.049659 0.070942
v 0.003951 0.049157 0.070545
v 0.002587 0.049257 0.069835
v 0.004316 0.048348 0.069358
v 0.002970 0.048540 0.069261
v 0.001003 0.048695 0.069103
v 0.000021 0.048695 0.069027
v -0.000964 0.048695 0.069012
v 0.007878 0.045752 0.069013
v -0.011199 0.041883 0.068798
v 0.006216 0.041495 0.068898
v 0.009154 0.040067 0.068898
v -0.024957 0.042739 0.068798
v -0.026364 0.042240 0.068798
v -0.026648 0.046734 0.069048
v -0.026559 0.048013 0.069238
v -0.025496 0.048498 0.069255
v -0.023529 0.048695 0.069119
v -0.024206 0.049244 0.069585
v -0.021775 0.050211 0.070392
v -0.020584 0.050592 0.070943
v -0.019602 0.050686 0.071922
v -0.020180 0.050220 0.073058
v -0.015675 0.050200 0.073947
v -0.014694 0.050123 0.074084
v -0.021566 0.049479 0.073720
v -0.018621 0.049773 0.073992
v -0.017635 0.049352 0.074490
v -0.012238 0.048695 0.075014
v -0.009785 0.049576 0.074615
v -0.015675 0.049084 0.074752
v -0.014201 0.048695 0.074977
v -0.006851 0.049093 0.074756
v -0.005869 0.049062 0.074718
v -0.004888 0.049030 0.074671
v -0.005869 0.049921 0.074189
v -0.003906 0.050050 0.073813
v -0.000964 0.049506 0.073745
v 0.001155 0.049014 0.073744
v -0.000964 0.049999 0.073108
v -0.000964 0.050440 0.071922
v 0.002562 0.049218 0.072979
v 0.000024 0.050124 0.072318
v 0.002087 0.049710 0.071922
v 0.003349 0.049333 0.072058
v 0.004933 0.048925 0.070942
v 0.006836 0.048154 0.070544
v 0.005376 0.048405 0.069868
v 0.007587 0.046977 0.069320
v 0.005915 0.047572 0.069263
v 0.005915 0.046734 0.069027
v 0.009030 0.046032 0.069162
v 0.009547 0.044645 0.069116
v 0.009104 0.036632 0.068918
v -0.026655 0.038819 0.069371
v -0.026648 0.048905 0.070533
v -0.026655 0.044893 0.070386
v -0.025567 0.049141 0.070145
v -0.023529 0.049938 0.070943
v -0.020584 0.050517 0.071922
v -0.023529 0.049865 0.071922
v -0.021799 0.050152 0.072361
v -0.022547 0.049801 0.072902
v -0.024046 0.049368 0.073037
v -0.022547 0.049132 0.073860
v -0.018929 0.049235 0.074440
v -0.018621 0.048695 0.074756
v -0.017635 0.048695 0.074830
v -0.016657 0.049055 0.074715
v -0.011752 0.047716 0.075207
v -0.010767 0.047717 0.075213
v -0.010274 0.048695 0.075015
v -0.017146 0.047716 0.075147
v -0.013712 0.047716 0.075188
v -0.008318 0.048695 0.074982
v -0.019110 0.047716 0.075085
v -0.002924 0.047717 0.075040
v -0.003906 0.048995 0.074609
v -0.001453 0.047717 0.074939
v -0.002800 0.049036 0.074478
v -0.000964 0.048996 0.074236
v 0.000021 0.049141 0.073885
v 0.002544 0.048316 0.074019
v 0.003951 0.048099 0.073812
v 0.004841 0.048277 0.073285
v 0.006102 0.048280 0.072344
v 0.004933 0.048823 0.071922
v 0.005915 0.048577 0.070942
v 0.007878 0.047813 0.070942
v 0.009331 0.046985 0.070278
v 0.009551 0.036677 0.071876
v 0.009551 0.041824 0.075101
v 0.009047 0.036632 0.070938
v 0.008792 0.036632 0.069961
v -0.026655 0.038979 0.070933
v -0.026602 0.047522 0.074256
v -0.026559 0.048470 0.073242
v -0.026205 0.049111 0.071877
v -0.024511 0.049677 0.070943
v -0.026655 0.043702 0.075183
v -0.024511 0.049607 0.071922
v -0.025404 0.049128 0.072733
v -0.025496 0.048481 0.073697
v -0.023529 0.048781 0.073979
v -0.020212 0.048795 0.074554
v -0.021566 0.047717 0.074939
v -0.020584 0.047717 0.075009
v -0.019351 0.046734 0.075218
v -0.024511 0.045752 0.075219
v -0.007833 0.046735 0.075199
v -0.000964 0.045755 0.075167
v -0.003906 0.046735 0.075178
v -0.007344 0.047717 0.075179
v -0.022055 0.046734 0.075173
v -0.005380 0.047717 0.075130
v -0.003906 0.047717 0.075082
v -0.023529 0.046734 0.075099
v 0.000021 0.046735 0.075087
v 0.001003 0.046735 0.075026
v 0.000021 0.047717 0.074796
v 0.002527 0.046734 0.074903
v 0.001524 0.047870 0.074551
v 0.002970 0.047489 0.074533
v 0.004770 0.047154 0.074336
v 0.006319 0.047296 0.073744
v 0.009196 0.046425 0.073378
v 0.007750 0.047292 0.073023
v 0.008842 0.047146 0.072327
v 0.007878 0.047677 0.071922
v 0.009551 0.037659 0.073351
v -0.026655 0.039496 0.072418
v 0.009551 0.040847 0.075008
v 0.009232 0.045182 0.074376
v 0.009203 0.043899 0.074914
v 0.009203 0.042808 0.075098
v 0.000510 0.045755 0.075157
v -0.026602 0.046648 0.074781
v -0.025496 0.047486 0.074540
v -0.024397 0.048323 0.074147
v -0.026570 0.045217 0.075181
v -0.026655 0.042720 0.074986
v -0.022547 0.048055 0.074681
v -0.025496 0.046734 0.074925
v -0.024511 0.046734 0.075030
v -0.025496 0.045752 0.075192
v -0.001453 0.046735 0.075139
v 0.002527 0.045753 0.075111
v 0.003951 0.045752 0.075042
v 0.004933 0.045752 0.074948
v 0.005915 0.045752 0.074820
v 0.005915 0.046483 0.074502
v 0.009551 0.038909 0.074347
v -0.026655 0.040481 0.073759
v 0.009551 0.039848 0.074751
v 0.007325 0.045834 0.074514
v 0.007878 0.044772 0.074861
v 0.006896 0.044772 0.074986
v 0.007878 0.043788 0.075072
v 0.004440 0.044772 0.075126
v -0.026655 0.041495 0.074505
v 0.005915 0.044772 0.075068
f 1 2 3
f 1 3 4
f 1 4 5
f 1 5 6
f 1 6 7
f 1 7 8
f 1 8 9
f 1 9 2
f 2 9 10
f 2 10 3
f 3 11 12
f 3 12 4
f 3 10 11
f 4 12 13
f 4 13 5
f 5 13 14
f 5 14 15
f 5 15 16
f 5 16 17
f 5 17 6
f 6 17 18
f 6 18 19
f 6 19 7
f 7 19 8
f 8 19 20
f 8 20 21
f 8 21 9
f 9 21 10
f 10 21 22
f 10 22 23
f 10 23 24
f 10 24 11
f 11 24 25
f 11 25 26
f 11 26 27
f 11 27 12
f 12 27 28
f 12 28 13
f 13 28 29
f 13 29 30
f 13 30 14
f 14 30 31
f 14 31 32
f 14 32 33
f 14 33 15
f 15 33 16
f 16 33 34
f 16 34 17
f 17 35 18
f 17 34 36
f 17 36 35
f 18 35 37
f 18 37 38
f 18 38 39
f 18 39 19
f 19 40 41
f 19 41 20
f 19 39 40
f 20 42 43
f 20 43 44
f 20 44 45
f 20 45 21
f 20 41 42
f 21 45 46
f 21 46 22
f 22 46 47
f 22 47 48
f 22 48 49
f 22 49 50
f 22 50 51
f 22 51 23
f 23 52 25
f 23 25 24
f 23 51 53
f 23 53 52
f 25 54 55
f 25 55 56
f 25 56 57
f 25 57 58
f 25 58 59
f 25 59 60
f 25 60 61
f 25 61 62
f 25 62 63
f 25 63 64
f 25 64 26
f 25 52 54
f 26 64 27
f 27 64 65
f 27 65 66
f 27 66 67
f 27 67 28
f 28 67 68
f 28 68 29
f 29 68 69
f 29 69 30
f 30 69 31
f 31 70 32
f 31 69 70
f 32 70 71
f 32 71 72
f 32 72 33
f 33 72 73
f 33 73 34
f 34 74 36
f 34 73 72
f 34 72 75
f 34 75 76
f 34 76 74
f 35 36 77
f 35 77 78
f 35 78 79
f 35 79 37
f 36 74 80
f 36 80 77
f 37 81 82
f 37 82 83
f 37 83 38
f 37 79 81
f 38 83 84
f 38 84 85
f 38 85 41
f 38 41 40
f 38 40 39
f 41 85 42
f 42 85 86
f 42 86 43
f 43 86 87
f 43 87 88
f 43 88 44
f 44 88 89
f 44 89 90
f 44 90 45
f 45 90 91
f 45 91 46
f 46 91 92
f 46 92 93
f 46 93 94
f 46 94 95
f 46 95 47
f 47 95 96
f 47 96 48
f 48 96 97
f 48 97 98
f 48 98 49
f 49 98 99
f 49 99 50
f 50 52 53
f 50 53 51
f 50 99 100
f 50 100 52
f 52 100 101
f 52 101 102
f 52 102 54
f 54 103 107
f 54 107 106
f 54 106 62
f 54 62 61
f 54 61 60
f 54 60 59
f 54 59 58
f 54 58 57
f 54 57 56
f 54 56 55
f 54 102 104
f 54 104 105
f 54 105 103
f 62 106 63
f 63 106 107
f 63 107 108
f 63 108 109
f 63 109 110
f 63 110 111
f 63 111 64
f 64 111 65
f 65 111 66
f 66 111 110
f 66 110 112
f 66 112 67
f 67 112 68
f 68 113 114
f 68 114 69
f 68 112 113
f 69 114 115
f 69 115 70
f 70 115 71
f 71 115 116
f 71 116 75
f 71 75 72
f 74 76 117
f 74 117 118
f 74 118 80
f 75 116 119
f 75 119 120
f 75 120 76
f 76 120 121
f 76 121 117
f 77 122 123
f 77 123 78
f 77 80 124
f 77 124 125
f 77 125 122
f 78 123 81
f 78 81 79
f 80 118 117
f 80 117 121
f 80 121 124
f 81 126 127
f 81 127 128
f 81 128 129
f 81 129 82
f 81 123 126
f 82 129 83
f 83 129 130
f 83 130 84
f 84 86 85
f 84 130 131
f 84 131 132
f 84 132 133
f 84 133 87
f 84 87 86
f 87 134 89
f 87 89 88
f 87 133 135
f 87 135 136
f 87 136 134
f 89 91 90
f 89 134 91
f 91 134 92
f 92 134 93
f 93 134 137
f 93 137 94
f 94 137 138
f 94 138 139
f 94 139 95
f 95 139 140
f 95 140 141
f 95 141 96
f 96 141 97
f 97 141 142
f 97 142 143
f 97 143 98
f 98 143 99
f 99 143 144
f 99 144 100
f 100 144 101
f 101 144 102
f 102 145 146
f 102 146 105
f 102 105 104
f 102 144 145
f 103 105 147
f 103 147 107
f 105 146 147
f 107 148 108
f 107 147 148
f 108 149 109
f 108 148 150
f 108 150 149
f 109 149 151
f 109 151 110
f 110 151 112
f 112 151 113
f 113 152 114
f 113 151 152
f 114 153 115
f 114 152 154
f 114 154 153
f 115 153 116
f 116 153 155
f 116 155 156
f 116 156 119
f 119 156 157
f 119 157 158
f 119 158 159
f 119 159 120
f 120 159 121
f 121 159 160
f 121 160 161
f 121 161 162
f 121 162 124
f 122 163 164
f 122 164 165
f 122 165 123
f 122 125 166
f 122 166 167
f 122 167 163
f 123 165 168
f 123 168 126
f 124 162 161
f 124 161 125
f 125 161 169
f 125 169 166
f 126 168 127
f 127 168 170
f 127 170 128
f 128 171 129
f 128 170 172
f 128 172 171
f 129 171 173
f 129 173 130
f 130 173 174
f 130 174 131
f 131 174 175
f 131 175 132
f 132 176 177
f 132 177 178
f 132 178 135
f 132 135 133
f 132 175 174
f 132 174 176
f 134 136 137
f 135 178 179
f 135 179 138
f 135 138 136
f 136 138 137
f 138 180 139
f 138 179 180
f 139 180 181
f 139 181 140
f 140 181 182
f 140 182 183
f 140 183 141
f 141 183 142
f 142 183 145
f 142 145 143
f 143 145 144
f 145 183 146
f 146 184 147
f 146 183 185
f 146 185 184
f 147 184 186
f 147 186 187
f 147 187 148
f 148 187 186
f 148 186 184
f 148 184 188
f 148 188 224
f 148 224 246
f 148 246 253
f 148 253 234
f 148 234 193
f 148 193 150
f 149 189 190
f 149 190 191
f 149 191 192
f 149 192 151
f 149 150 193
f 149 193 189
f 151 192 152
f 152 192 194
f 152 194 154
f 153 154 155
f 154 156 155
f 154 194 195
f 154 195 156
f 156 195 157
f 157 195 190
f 157 190 196
f 157 196 158
f 158 196 197
f 158 197 159
f 159 197 198
f 159 198 160
f 160 198 199
f 160 199 161
f 161 199 200
f 161 200 169
f 163 167 201
f 163 201 164
f 164 201 202
f 164 202 203
f 164 203 204
f 164 204 205
f 164 205 206
f 164 206 165
f 165 206 168
f 166 169 207
f 166 207 201
f 166 201 167
f 168 206 208
f 168 208 209
f 168 209 170
f 169 200 210
f 169 210 207
f 170 211 212
f 170 212 172
f 170 209 211
f 171 172 213
f 171 213 173
f 172 212 214
f 172 214 213
f 173 213 215
f 173 215 174
f 174 215 176
f 176 215 216
f 176 216 217
f 176 217 177
f 177 217 218
f 177 218 178
f 178 218 219
f 178 219 220
f 178 220 179
f 179 220 221
f 179 221 222
f 179 222 180
f 180 222 182
f 180 182 181
f 182 222 221
f 182 221 183
f 183 221 219
f 183 219 185
f 184 185 225
f 184 225 247
f 184 247 245
f 184 245 223
f 184 223 224
f 184 224 188
f 185 219 226
f 185 226 227
f 185 227 228
f 185 228 229
f 185 229 204
f 185 204 203
f 185 203 202
f 185 202 193
f 185 193 225
f 189 193 230
f 189 230 231
f 189 231 232
f 189 232 197
f 189 197 196
f 189 196 190
f 190 195 191
f 191 195 194
f 191 194 192
f 193 202 233
f 193 233 230
f 193 234 225
f 197 235 198
f 197 232 235
f 198 235 199
f 199 235 236
f 199 236 237
f 199 237 200
f 200 237 210
f 201 207 202
f 202 238 233
f 202 207 238
f 204 229 205
f 205 229 239
f 205 239 206
f 206 239 208
f 207 210 238
f 208 239 209
f 209 239 211
f 210 237 238
f 211 239 240
f 211 240 241
f 211 241 212
f 212 241 214
f 213 214 215
f 214 216 215
f 214 241 242
f 214 242 243
f 214 243 216
f 216 243 244
f 216 244 217
f 217 244 218
f 218 226 219
f 218 244 226
f 219 221 220
f 223 245 246
f 223 246 224
f 225 234 247
f 226 244 248
f 226 248 249
f 226 249 227
f 227 249 250
f 227 250 251
f 227 251 228
f 228 251 252
f 228 252 229
f 229 252 240
f 229 240 239
f 230 233 236
f 230 236 231
f 231 236 235
f 231 235 232
f 233 238 236
f 234 253 247
f 236 238 237
f 240 252 254
f 240 254 241
f 241 254 250
f 241 250 242
f 242 250 249
f 242 249 243
f 243 249 248
f 243 248 244
f 245 247 253
f 245 253 246
f 250 254 251
f 251 254 252
