v -0.011209 0.045060 0.068792
v -0.011209 0.041876 0.068792
v -0.011209 0.044664 0.044852
v -0.011306 0.044311 0.013038
v -0.027062 0.048858 0.071423
v -0.026759 0.048417 0.073230
v -0.026713 0.047050 0.074513
v -0.027062 0.045703 0.075056
v -0.027062 0.044720 0.075220
v -0.026662 0.043697 0.075174
v -0.048732 0.015702 0.068752
v -0.011209 0.041815 0.066998
v -0.026662 0.042714 0.074978
v -0.026662 0.041766 0.074631
v -0.051967 0.017347 0.074965
v -0.050795 0.017347 0.074428
v -0.049793 0.017347 0.073636
v -0.011209 0.044619 0.042175
v -0.011306 0.044278 0.011316
v -0.011536 0.044184 0.010099
v -0.012744 0.044152 0.010099
v -0.013727 0.044106 0.010099
v -0.015198 0.043986 0.010099
v -0.016677 0.043820 0.010099
v -0.017656 0.043574 0.009110
v -0.018759 0.043311 0.008455
v -0.020597 0.043006 0.009110
v -0.021580 0.042769 0.009110
v -0.023069 0.042324 0.008999
v -0.028840 0.048264 0.070867
v -0.028983 0.048128 0.071894
v -0.027861 0.048258 0.072811
v -0.030154 0.047222 0.073151
v -0.028845 0.047401 0.073596
v -0.027724 0.047125 0.074290
v -0.029428 0.045745 0.074729
v -0.028450 0.045745 0.074886
v -0.028941 0.044765 0.075135
v -0.028941 0.043785 0.075240
v -0.052950 0.017347 0.075187
v -0.030412 0.043785 0.075194
v -0.052068 0.015702 0.068752
v -0.048672 0.015702 0.067332
v -0.011209 0.041779 0.065532
v -0.011209 0.041639 0.042175
v -0.011306 0.040542 0.008390
v -0.011536 0.043992 0.008750
v -0.012744 0.043973 0.008750
v -0.013727 0.043924 0.008750
v -0.015235 0.043804 0.008750
v -0.016677 0.043652 0.008750
v -0.020317 0.042951 0.008390
v -0.021580 0.042626 0.008390
v -0.024521 0.041824 0.008750
v -0.025504 0.041685 0.010099
v -0.030412 0.047670 0.070932
v -0.027099 0.041081 0.010099
v -0.030412 0.047582 0.071914
v -0.031253 0.047134 0.072287
v -0.031547 0.046125 0.073793
v -0.032498 0.046268 0.073007
v -0.030237 0.046274 0.074179
v -0.033729 0.043915 0.074631
v -0.031597 0.044629 0.074794
v -0.030412 0.044765 0.074952
v -0.031395 0.043785 0.075109
v -0.033357 0.041818 0.075240
v -0.036293 0.039857 0.075259
v -0.050974 0.024199 0.075266
v -0.054443 0.017808 0.075194
v -0.056272 0.017500 0.074585
v -0.032870 0.042801 0.075161
v -0.034345 0.041818 0.075194
v -0.051470 0.015702 0.042181
v -0.057614 0.017779 0.073269
v -0.058147 0.017821 0.071476
v -0.048644 0.015702 0.066317
v -0.011209 0.041698 0.057185
v -0.042625 0.025095 0.008397
v -0.040833 0.031655 0.008390
v -0.048438 0.015702 0.052132
v -0.048300 0.015702 0.042181
v -0.032149 0.038397 0.008750
v -0.030288 0.039429 0.008750
v -0.028505 0.040276 0.008750
v -0.026175 0.041224 0.008724
v -0.031280 0.047277 0.070618
v -0.032778 0.046596 0.070932
v -0.027471 0.040786 0.009110
v -0.028459 0.040474 0.009863
v -0.032695 0.046502 0.072065
v -0.032351 0.045391 0.074114
v -0.034267 0.045080 0.073394
v -0.035563 0.044350 0.073466
v -0.034699 0.045469 0.072052
v -0.036298 0.044275 0.072896
v -0.035443 0.043080 0.074578
v -0.034345 0.042801 0.074971
v -0.032378 0.043782 0.074971
v -0.035314 0.040838 0.075233
v -0.038260 0.038880 0.075220
v -0.039243 0.037894 0.075233
v -0.040217 0.036913 0.075240
v -0.046103 0.031525 0.075233
v -0.048065 0.029071 0.075240
v -0.049049 0.028085 0.075220
v -0.051011 0.025144 0.075213
v -0.051994 0.023177 0.075233
v -0.052978 0.021213 0.075226
v -0.053956 0.019253 0.075200
v -0.054940 0.019253 0.074932
v -0.055739 0.019253 0.074552
v -0.056511 0.019091 0.074002
v -0.036849 0.040779 0.075076
v -0.038260 0.039857 0.075076
v -0.039243 0.038880 0.075135
v -0.037281 0.039857 0.075194
v -0.046228 0.025079 0.008763
v -0.056070 0.020733 0.073793
v -0.056290 0.021707 0.072929
v -0.057357 0.019353 0.072693
v -0.056842 0.021213 0.071914
v -0.057531 0.019613 0.070795
v -0.045662 0.025959 0.008750
v -0.043668 0.028611 0.008802
v -0.042666 0.029818 0.008750
v -0.041729 0.030837 0.008750
v -0.041035 0.031850 0.010099
v -0.040024 0.032548 0.008750
v -0.038995 0.033486 0.008757
v -0.037851 0.034485 0.008757
v -0.035039 0.036579 0.008750
v -0.033867 0.037426 0.008953
v -0.032709 0.038296 0.010099
v -0.035337 0.045262 0.070932
v -0.034345 0.045797 0.070932
v -0.029428 0.039932 0.009110
v -0.037056 0.043441 0.073538
v -0.037915 0.043249 0.073073
v -0.036969 0.044197 0.072052
v -0.037129 0.042139 0.074519
v -0.038260 0.040838 0.074762
v -0.036293 0.041818 0.074880
v -0.038251 0.042288 0.073885
v -0.040217 0.037894 0.075168
v -0.042179 0.035933 0.075200
v -0.042671 0.034950 0.075226
v -0.048065 0.030048 0.075161
v -0.049871 0.027264 0.075187
v -0.051011 0.026121 0.075115
v -0.051976 0.024670 0.075082
v -0.052978 0.022200 0.075128
v -0.053956 0.020236 0.075109
v -0.053956 0.021213 0.074978
v -0.053956 0.022200 0.074801
v -0.055224 0.020373 0.074591
v -0.054287 0.023206 0.074382
v -0.039243 0.039857 0.074873
v -0.040217 0.038880 0.074958
v -0.041201 0.037894 0.075004
v -0.056897 0.021213 0.070932
v -0.056474 0.022080 0.070592
v -0.055440 0.024303 0.070932
v -0.054462 0.026140 0.070932
v -0.053419 0.027922 0.070814
v -0.054246 0.024612 0.073806
v -0.055519 0.022904 0.073276
v -0.054328 0.025663 0.072922
v -0.055702 0.023567 0.072084
v -0.056410 0.022197 0.071914
v -0.044587 0.027442 0.008861
v -0.052587 0.029227 0.070932
v -0.051498 0.030792 0.070860
v -0.043788 0.028753 0.010099
v -0.049688 0.033174 0.070932
v -0.041752 0.031113 0.010099
v -0.040291 0.032570 0.010099
v -0.045740 0.037533 0.070932
v -0.039271 0.033512 0.010099
v -0.038462 0.034226 0.010099
v -0.036652 0.035433 0.008868
v -0.035696 0.036345 0.010099
v -0.038384 0.043373 0.070932
v -0.037120 0.044174 0.070795
v -0.036293 0.044694 0.070932
v -0.039951 0.041490 0.073551
v -0.040603 0.041256 0.073243
v -0.038343 0.043343 0.071914
v -0.039427 0.042428 0.072490
v -0.040824 0.041415 0.072588
v -0.039119 0.041104 0.074336
v -0.040199 0.039867 0.074578
v -0.043163 0.035933 0.075056
v -0.044137 0.034950 0.075063
v -0.045125 0.033973 0.075056
v -0.049049 0.029071 0.075115
v -0.046103 0.032989 0.075050
v -0.047082 0.032015 0.075024
v -0.050028 0.028085 0.075037
v -0.051011 0.027108 0.074925
v -0.052978 0.024157 0.074827
v -0.052978 0.023177 0.075004
v -0.052118 0.026481 0.074624
v -0.053414 0.026085 0.073845
v -0.043287 0.037222 0.074598
v -0.044137 0.035933 0.074794
v -0.054926 0.025144 0.071914
v -0.054425 0.026076 0.071914
v -0.053566 0.027536 0.071934
v -0.053635 0.026893 0.072896
v -0.052596 0.028276 0.073289
v -0.051452 0.030818 0.071914
v -0.050547 0.032051 0.071423
v -0.049646 0.033122 0.071914
v -0.046650 0.036488 0.072189
v -0.046457 0.036780 0.070932
v -0.044711 0.038465 0.070631
v -0.042896 0.040094 0.070932
v -0.043682 0.039396 0.070677
v -0.045952 0.037254 0.071914
v -0.044670 0.038423 0.072169
v -0.040985 0.041535 0.070932
v -0.040056 0.042191 0.070795
v -0.039243 0.042785 0.070932
v -0.041201 0.040549 0.073570
v -0.040181 0.040321 0.074343
v -0.042083 0.040036 0.073322
v -0.042579 0.040283 0.071914
v -0.043562 0.039380 0.072268
v -0.041297 0.039565 0.074264
v -0.042382 0.038601 0.074310
v -0.048065 0.031035 0.074971
v -0.049053 0.030185 0.074866
v -0.045125 0.034950 0.074781
v -0.046540 0.033930 0.074598
v -0.050014 0.029526 0.074664
v -0.050933 0.029205 0.074297
v -0.051700 0.029386 0.073577
v -0.044334 0.036868 0.074310
v -0.045304 0.035914 0.074310
v -0.046172 0.034826 0.074395
v -0.051470 0.030405 0.072850
v -0.050561 0.031571 0.073001
v -0.047464 0.035404 0.072628
v -0.045786 0.036839 0.073243
v -0.044628 0.037910 0.073308
v -0.043002 0.039192 0.073439
v -0.047477 0.033031 0.074533
v -0.048746 0.031736 0.074467
v -0.050303 0.030266 0.074212
v -0.050786 0.030574 0.073649
v -0.046411 0.036021 0.073420
v -0.047160 0.034064 0.074218
v -0.048332 0.033749 0.073570
v -0.049724 0.031094 0.074159
v -0.049210 0.032327 0.073799
f 1 2 12
f 1 12 44
f 1 44 78
f 1 78 45
f 1 45 18
f 1 18 3
f 1 3 4
f 1 4 5
f 1 5 6
f 1 6 7
f 1 7 8
f 1 8 9
f 1 9 10
f 1 10 2
f 2 11 12
f 2 10 13
f 2 13 14
f 2 14 15
f 2 15 16
f 2 16 17
f 2 17 11
f 3 18 4
f 4 18 19
f 4 19 5
f 5 19 20
f 5 20 21
f 5 21 22
f 5 22 23
f 5 23 24
f 5 24 25
f 5 25 26
f 5 26 27
f 5 27 28
f 5 28 29
f 5 29 30
f 5 30 31
f 5 31 32
f 5 32 6
f 6 33 34
f 6 34 35
f 6 35 7
f 6 32 33
f 7 35 36
f 7 36 37
f 7 37 8
f 8 37 38
f 8 38 9
f 9 39 40
f 9 40 10
f 9 38 41
f 9 41 39
f 10 40 13
f 11 42 74
f 11 74 82
f 11 82 81
f 11 81 77
f 11 77 43
f 11 43 12
f 11 17 16
f 11 16 15
f 11 15 40
f 11 40 42
f 12 43 44
f 13 40 15
f 13 15 14
f 18 45 46
f 18 46 19
f 19 46 47
f 19 47 20
f 20 47 48
f 20 48 21
f 21 48 22
f 22 48 49
f 22 49 50
f 22 50 23
f 23 50 51
f 23 51 24
f 24 51 25
f 25 51 26
f 26 51 50
f 26 50 49
f 26 49 48
f 26 48 47
f 26 47 46
f 26 46 52
f 26 52 27
f 27 52 28
f 28 52 53
f 28 53 29
f 29 53 54
f 29 54 55
f 29 55 30
f 30 56 31
f 30 55 57
f 30 57 56
f 31 58 32
f 31 56 58
f 32 58 59
f 32 59 33
f 33 60 34
f 33 59 61
f 33 61 60
f 34 60 62
f 34 62 35
f 35 62 36
f 36 62 63
f 36 63 64
f 36 64 65
f 36 65 37
f 37 65 38
f 38 65 66
f 38 66 41
f 39 67 68
f 39 68 69
f 39 69 40
f 39 41 67
f 40 69 70
f 40 70 71
f 40 71 42
f 41 66 72
f 41 72 73
f 41 73 67
f 42 71 75
f 42 75 76
f 42 76 74
f 43 77 46
f 43 46 44
f 44 46 78
f 45 78 46
f 46 79 80
f 46 80 53
f 46 53 52
f 46 77 81
f 46 81 82
f 46 82 79
f 53 80 83
f 53 83 84
f 53 84 85
f 53 85 86
f 53 86 54
f 54 86 55
f 55 86 57
f 56 57 87
f 56 87 88
f 56 88 58
f 57 86 89
f 57 89 90
f 57 90 87
f 58 91 59
f 58 88 91
f 59 91 61
f 60 92 62
f 60 61 93
f 60 93 94
f 60 94 92
f 61 91 95
f 61 95 96
f 61 96 94
f 61 94 93
f 62 92 63
f 63 92 97
f 63 97 98
f 63 98 64
f 64 98 99
f 64 99 65
f 65 99 66
f 66 99 98
f 66 98 72
f 67 100 68
f 67 73 100
f 68 100 101
f 68 101 102
f 68 102 103
f 68 103 104
f 68 104 105
f 68 105 69
f 69 105 106
f 69 106 107
f 69 107 108
f 69 108 109
f 69 109 70
f 70 109 110
f 70 110 111
f 70 111 71
f 71 111 112
f 71 112 113
f 71 113 75
f 72 98 73
f 73 98 114
f 73 114 115
f 73 115 116
f 73 116 117
f 73 117 100
f 74 76 118
f 74 118 79
f 74 79 82
f 75 113 119
f 75 119 120
f 75 120 121
f 75 121 76
f 76 121 122
f 76 122 123
f 76 123 118
f 79 118 80
f 80 118 124
f 80 124 125
f 80 125 126
f 80 126 127
f 80 127 128
f 80 128 129
f 80 129 130
f 80 130 131
f 80 131 132
f 80 132 83
f 83 132 133
f 83 133 134
f 83 134 84
f 84 134 135
f 84 135 136
f 84 136 137
f 84 137 85
f 85 137 89
f 85 89 86
f 87 90 137
f 87 137 88
f 88 137 136
f 88 136 91
f 89 137 90
f 91 136 95
f 92 94 138
f 92 138 97
f 94 96 139
f 94 139 138
f 95 140 96
f 95 136 135
f 95 135 140
f 96 140 139
f 97 141 142
f 97 142 143
f 97 143 98
f 97 138 144
f 97 144 141
f 98 143 115
f 98 115 114
f 100 117 101
f 101 117 145
f 101 145 146
f 101 146 102
f 102 146 103
f 103 146 147
f 103 147 104
f 104 147 146
f 104 146 148
f 104 148 105
f 105 148 106
f 106 148 149
f 106 149 107
f 107 149 150
f 107 150 108
f 108 150 151
f 108 151 152
f 108 152 109
f 109 152 153
f 109 153 110
f 110 153 111
f 111 153 154
f 111 154 155
f 111 155 156
f 111 156 112
f 112 156 113
f 113 156 157
f 113 157 119
f 115 143 158
f 115 158 159
f 115 159 116
f 116 145 117
f 116 159 160
f 116 160 145
f 118 123 161
f 118 161 162
f 118 162 163
f 118 163 164
f 118 164 165
f 118 165 124
f 119 157 166
f 119 166 167
f 119 167 120
f 120 168 169
f 120 169 170
f 120 170 122
f 120 122 121
f 120 167 168
f 122 170 161
f 122 161 123
f 124 171 125
f 124 165 172
f 124 172 173
f 124 173 171
f 125 171 174
f 125 174 126
f 126 174 175
f 126 175 176
f 126 176 127
f 127 176 128
f 128 177 129
f 128 176 178
f 128 178 177
f 129 177 179
f 129 179 130
f 130 179 180
f 130 180 131
f 131 180 181
f 131 181 132
f 132 181 182
f 132 182 133
f 133 182 183
f 133 183 184
f 133 184 134
f 134 184 185
f 134 185 135
f 135 185 140
f 138 139 186
f 138 186 144
f 139 187 186
f 139 140 188
f 139 188 189
f 139 189 190
f 139 190 187
f 140 185 188
f 141 191 192
f 141 192 142
f 141 144 191
f 142 192 158
f 142 158 143
f 144 186 191
f 145 160 193
f 145 193 146
f 146 193 194
f 146 194 195
f 146 195 148
f 148 196 149
f 148 195 197
f 148 197 198
f 148 198 196
f 149 196 150
f 150 199 200
f 150 200 151
f 150 196 199
f 151 200 201
f 151 201 202
f 151 202 152
f 152 202 153
f 153 202 154
f 154 202 155
f 155 202 201
f 155 201 157
f 155 157 156
f 157 201 203
f 157 203 204
f 157 204 166
f 158 192 159
f 159 192 205
f 159 205 206
f 159 206 160
f 160 206 193
f 161 163 162
f 161 170 163
f 163 170 207
f 163 207 164
f 164 207 208
f 164 208 209
f 164 209 165
f 165 209 172
f 166 204 168
f 166 168 167
f 168 210 208
f 168 208 207
f 168 207 169
f 168 204 211
f 168 211 210
f 169 207 170
f 171 173 174
f 172 209 212
f 172 212 173
f 173 212 213
f 173 213 175
f 173 175 174
f 175 213 214
f 175 214 215
f 175 215 216
f 175 216 176
f 176 216 178
f 177 178 217
f 177 217 179
f 178 218 219
f 178 219 217
f 178 216 220
f 178 220 221
f 178 221 218
f 179 217 219
f 179 219 180
f 180 219 218
f 180 218 181
f 181 218 182
f 182 218 222
f 182 222 223
f 182 223 224
f 182 224 183
f 183 224 188
f 183 188 185
f 183 185 184
f 186 187 225
f 186 225 226
f 186 226 191
f 187 227 225
f 187 190 227
f 188 228 190
f 188 190 189
f 188 224 222
f 188 222 228
f 190 228 229
f 190 229 227
f 191 226 192
f 192 226 230
f 192 230 231
f 192 231 205
f 193 206 194
f 194 206 195
f 195 206 197
f 196 198 232
f 196 232 233
f 196 233 199
f 197 206 234
f 197 234 198
f 198 234 235
f 198 235 232
f 199 233 200
f 200 233 236
f 200 236 203
f 200 203 201
f 203 236 237
f 203 237 204
f 204 238 211
f 204 237 238
f 205 231 239
f 205 239 206
f 206 239 240
f 206 240 241
f 206 241 234
f 208 210 209
f 209 210 242
f 209 242 212
f 210 211 242
f 211 238 242
f 212 242 243
f 212 243 214
f 212 214 213
f 214 243 244
f 214 244 215
f 215 244 245
f 215 245 221
f 215 221 220
f 215 220 216
f 218 221 228
f 218 228 222
f 221 229 228
f 221 245 246
f 221 246 229
f 222 224 223
f 225 227 247
f 225 247 231
f 225 231 230
f 225 230 226
f 227 229 246
f 227 246 247
f 231 247 239
f 232 235 248
f 232 248 249
f 232 249 233
f 233 249 236
f 234 241 235
f 235 241 248
f 236 249 237
f 237 249 250
f 237 250 238
f 238 251 243
f 238 243 242
f 238 250 251
f 239 247 246
f 239 246 252
f 239 252 240
f 240 252 253
f 240 253 241
f 241 253 249
f 241 249 248
f 243 251 254
f 243 254 244
f 244 254 252
f 244 252 245
f 245 252 246
f 249 253 255
f 249 255 250
f 250 255 251
f 251 255 256
f 251 256 254
f 252 254 253
f 253 254 256
f 253 256 255
