v -0.037175 -0.027278 0.008390
v -0.041124 -0.027278 0.008796
v -0.041826 -0.026535 0.008744
v -0.050191 -0.012971 0.008390
v -0.050136 0.017258 0.008390
v -0.042289 0.025073 0.008397
v -0.036184 -0.027273 0.008397
v -0.037763 -0.027278 0.042171
v -0.041339 -0.027278 0.011063
v -0.041628 -0.026904 0.010080
v -0.044509 -0.023276 0.008744
v -0.042612 -0.025833 0.010080
v -0.042655 -0.025587 0.008763
v -0.045642 -0.021759 0.008744
v -0.046447 -0.020524 0.008744
v -0.047708 -0.018434 0.008763
v -0.048704 -0.016527 0.008855
v -0.049695 -0.014462 0.008934
v -0.050596 -0.012059 0.008744
v -0.051209 -0.010204 0.008744
v -0.052002 -0.006975 0.008390
v -0.050596 0.016018 0.008390
v -0.050563 0.016730 0.009641
v -0.049634 0.018749 0.008927
v -0.048576 0.020968 0.008750
v -0.046508 0.024678 0.008842
v -0.046442 0.025073 0.010080
v -0.043352 0.025073 0.042171
v -0.039432 -0.026192 0.068725
v -0.041973 -0.027278 0.042171
v -0.041389 -0.027278 0.012046
v -0.057697 -0.015108 0.070926
v -0.043757 -0.024286 0.008901
v -0.043318 -0.024993 0.010080
v -0.058049 -0.014124 0.070926
v -0.050958 -0.011177 0.009098
v -0.051539 -0.009082 0.008744
v -0.058408 -0.012986 0.070638
v -0.052499 -0.004603 0.008436
v -0.052880 0.005503 0.008390
v -0.051804 -0.008236 0.009098
v -0.052045 -0.007252 0.009098
v -0.052337 -0.005869 0.008921
v -0.051122 0.014460 0.008390
v -0.050982 0.015316 0.009098
v -0.051264 0.014885 0.010080
v -0.058548 0.016684 0.070802
v -0.050027 0.018262 0.010080
v -0.049574 0.019313 0.010080
v -0.048998 0.020225 0.009098
v -0.049152 0.020225 0.010080
v -0.048330 0.021875 0.010080
v -0.047800 0.022526 0.008934
v -0.047600 0.023192 0.010080
v -0.047028 0.024150 0.010080
v -0.046510 0.025073 0.011063
v -0.046954 0.025073 0.041837
v -0.052923 0.017335 0.075179
v -0.051971 0.017335 0.074962
v -0.050813 0.017335 0.074432
v -0.050068 0.017335 0.073875
v -0.049362 0.017335 0.073147
v -0.048465 0.017335 0.071333
v -0.043479 -0.026192 0.068725
v -0.050049 -0.015108 0.074550
v -0.051004 -0.015108 0.074975
v -0.051997 -0.015108 0.075205
v -0.053364 -0.015103 0.075290
v -0.057501 -0.015062 0.072453
v -0.057981 -0.014124 0.071909
v -0.058687 -0.012161 0.070926
v -0.058948 -0.011177 0.070926
v -0.052839 -0.002266 0.008744
v -0.052949 -0.001287 0.008744
v -0.053034 -0.000319 0.008744
v -0.059854 -0.007252 0.070926
v -0.060633 -0.002343 0.070933
v -0.052764 -0.003342 0.009098
v -0.051558 0.013051 0.008390
v -0.053092 0.001116 0.008744
v -0.053104 0.002561 0.008744
v -0.053080 0.003540 0.008744
v -0.053017 0.004524 0.008744
v -0.052831 0.006548 0.008744
v -0.052540 0.009038 0.008934
v -0.052265 0.010412 0.008744
v -0.059411 -0.009174 0.070625
v -0.059659 -0.008236 0.070926
v -0.051433 0.013968 0.009248
v -0.046549 0.025073 0.012046
v -0.058967 0.015311 0.070933
v -0.058398 0.016848 0.072021
v -0.046944 0.025073 0.040513
v -0.057754 0.017335 0.073252
v -0.056826 0.017335 0.074294
v -0.055900 0.017335 0.074825
v -0.054512 0.017263 0.075211
v -0.054943 0.014327 0.075277
v -0.053962 -0.013140 0.075323
v -0.054943 -0.015108 0.074982
v -0.056416 -0.014985 0.074189
v -0.053962 -0.014124 0.075296
v -0.054943 -0.014124 0.075113
v -0.057489 -0.014093 0.073305
v -0.058278 -0.012710 0.072479
v -0.058878 -0.011177 0.071909
v -0.059150 -0.010194 0.071909
v -0.059379 -0.009302 0.071909
v -0.060756 -0.001364 0.070933
v -0.060814 -0.000391 0.070933
v -0.059833 -0.007252 0.071909
v -0.060009 -0.006268 0.071909
v -0.060402 -0.003839 0.071221
v -0.060156 -0.005284 0.071909
v -0.060573 -0.002343 0.071909
v -0.052036 0.011457 0.008744
v -0.051867 0.012374 0.009098
v -0.060811 0.000593 0.070933
v -0.060797 0.001572 0.070933
v -0.060761 0.002556 0.070933
v -0.053195 0.004524 0.010080
v -0.052788 0.007465 0.009098
v -0.060078 0.010007 0.070933
v -0.059866 0.011385 0.070933
v -0.059671 0.012369 0.070933
v -0.059428 0.013153 0.070311
v -0.046575 0.025073 0.013029
v -0.059283 0.014055 0.070933
v -0.059141 0.014327 0.071909
v -0.058888 0.015311 0.071909
v -0.046611 0.025073 0.014994
v -0.046594 0.025073 0.014005
v -0.058360 0.016243 0.072774
v -0.058461 0.014757 0.073403
v -0.057723 0.016295 0.073783
v -0.057034 0.015772 0.074523
v -0.056908 0.014327 0.074792
v -0.055925 0.016295 0.074956
v -0.054943 0.016295 0.075211
v -0.054943 0.015311 0.075251
v -0.055925 0.011385 0.075277
v -0.055925 0.010401 0.075296
v -0.056908 0.001572 0.075303
v -0.055927 -0.005284 0.075303
v -0.054943 -0.010194 0.075303
v -0.055925 -0.009215 0.075251
v -0.055925 -0.013140 0.074884
v -0.055925 -0.014124 0.074726
v -0.057308 -0.011367 0.074445
v -0.057750 -0.012161 0.073790
v -0.057593 -0.013140 0.073626
v -0.054943 -0.012161 0.075257
v -0.054943 -0.013140 0.075205
v -0.055925 -0.011177 0.075113
v -0.055925 -0.012161 0.075008
v -0.058449 -0.011126 0.073285
v -0.058880 -0.010194 0.072892
v -0.059529 -0.008395 0.072230
v -0.060681 -0.001364 0.071909
v -0.060770 0.000593 0.071909
v -0.060322 -0.003373 0.072394
v -0.060761 0.001572 0.071909
v -0.060734 0.002556 0.071909
v -0.060696 0.003535 0.071909
v -0.060638 0.004519 0.071909
v -0.060701 0.003535 0.070933
v -0.060638 0.004519 0.070933
v -0.060575 0.005492 0.070933
v -0.060368 0.007475 0.070540
v -0.060291 0.008311 0.071496
v -0.060021 0.010007 0.071909
v -0.059811 0.011385 0.071909
v -0.059613 0.012369 0.071909
v -0.059314 0.013266 0.072283
v -0.059346 0.012369 0.072872
v -0.059399 0.011237 0.073259
v -0.058391 0.013348 0.073927
v -0.057668 0.013348 0.074543
v -0.056908 0.013348 0.074910
v -0.057778 0.012369 0.074609
v -0.055925 0.015311 0.075067
v -0.055925 0.014327 0.075159
v -0.055925 0.013348 0.075205
v -0.056908 0.010401 0.075179
v -0.056908 0.009423 0.075205
v -0.056908 0.007460 0.075251
v -0.056908 0.003535 0.075296
v -0.057887 0.001572 0.075133
v -0.056908 0.000593 0.075296
v -0.056908 -0.004311 0.075231
v -0.056908 -0.005284 0.075205
v -0.056908 -0.006878 0.075120
v -0.055925 -0.010194 0.075192
v -0.056906 -0.009215 0.074956
v -0.057238 -0.010194 0.074667
v -0.057687 -0.009215 0.074563
v -0.058179 -0.009215 0.074196
v -0.058294 -0.010194 0.073822
v -0.059411 -0.006463 0.073390
v -0.060303 -0.002343 0.072826
v -0.060623 -0.000391 0.072322
v -0.060404 0.000593 0.073056
v -0.060406 0.001905 0.073069
v -0.060389 0.003535 0.073030
v -0.060368 0.004519 0.072977
v -0.060558 0.005492 0.071909
v -0.060327 0.005492 0.072879
v -0.060493 0.006481 0.070933
v -0.060464 0.006481 0.071909
v -0.060274 0.007434 0.072387
v -0.059736 0.010104 0.072892
v -0.059497 0.009423 0.073567
v -0.059191 0.010401 0.073724
v -0.058504 0.012369 0.074032
v -0.058265 0.011462 0.074419
v -0.056908 0.011385 0.075113
v -0.058237 0.010007 0.074589
v -0.058251 0.008439 0.074740
v -0.057887 0.007460 0.075002
v -0.057887 0.006481 0.075041
v -0.057887 0.003535 0.075113
v -0.059083 0.003535 0.074497
v -0.058822 -0.000391 0.074654
v -0.057887 0.000593 0.075120
v -0.057887 -0.000391 0.075093
v -0.057887 -0.002343 0.075021
v -0.057887 -0.003327 0.074975
v -0.056906 -0.008236 0.075028
v -0.058176 -0.006678 0.074589
v -0.057798 -0.008236 0.074615
v -0.059112 -0.004311 0.074156
v -0.059505 -0.005284 0.073580
v -0.060344 -0.001364 0.072918
v -0.059702 -0.002343 0.073790
v -0.059743 -0.001364 0.073829
v -0.059806 0.000593 0.073855
v -0.059801 0.003535 0.073855
v -0.059616 0.007460 0.073698
v -0.060274 0.006481 0.072741
v -0.059958 0.008439 0.072892
v -0.059331 0.008439 0.073888
v -0.058921 0.007460 0.074392
v -0.058724 0.006481 0.074615
v -0.059534 0.004519 0.074071
v -0.059575 0.001941 0.074091
v -0.059088 0.000593 0.074504
v -0.059047 -0.001364 0.074471
v -0.059008 -0.002343 0.074445
v -0.058697 -0.003327 0.074569
v -0.059413 -0.003327 0.073973
v -0.059495 0.005492 0.074039
v -0.059447 0.006481 0.073999
f 1 2 3
f 1 3 4
f 1 4 21
f 1 21 40
f 1 40 79
f 1 79 44
f 1 44 22
f 1 22 5
f 1 5 6
f 1 6 7
f 1 7 8
f 1 8 30
f 1 30 31
f 1 31 9
f 1 9 2
f 2 9 10
f 2 10 3
f 3 11 4
f 3 10 12
f 3 12 13
f 3 13 11
f 4 11 14
f 4 14 15
f 4 15 16
f 4 16 17
f 4 17 18
f 4 18 19
f 4 19 20
f 4 20 21
f 5 22 23
f 5 23 24
f 5 24 25
f 5 25 26
f 5 26 6
f 6 26 27
f 6 27 56
f 6 56 90
f 6 90 127
f 6 127 132
f 6 132 131
f 6 131 93
f 6 93 57
f 6 57 28
f 6 28 7
f 7 28 8
f 8 28 29
f 8 29 64
f 8 64 30
f 9 31 32
f 9 32 10
f 10 32 12
f 11 13 33
f 11 33 32
f 11 32 14
f 12 34 13
f 12 32 34
f 13 34 33
f 14 32 15
f 15 32 16
f 16 32 17
f 17 32 18
f 18 32 19
f 19 32 35
f 19 35 36
f 19 36 20
f 20 37 21
f 20 36 38
f 20 38 37
f 21 39 40
f 21 37 41
f 21 41 42
f 21 42 43
f 21 43 39
f 22 44 45
f 22 45 23
f 23 46 47
f 23 47 48
f 23 48 24
f 23 45 46
f 24 48 49
f 24 49 50
f 24 50 25
f 25 50 51
f 25 51 52
f 25 52 53
f 25 53 26
f 26 53 54
f 26 54 55
f 26 55 27
f 27 55 47
f 27 47 56
f 28 57 58
f 28 58 59
f 28 59 60
f 28 60 61
f 28 61 62
f 28 62 63
f 28 63 29
f 29 63 62
f 29 62 61
f 29 61 60
f 29 60 65
f 29 65 66
f 29 66 67
f 29 67 68
f 29 68 64
f 30 64 32
f 30 32 31
f 32 64 69
f 32 69 70
f 32 70 35
f 32 33 34
f 35 71 38
f 35 38 36
f 35 70 71
f 37 38 71
f 37 71 72
f 37 72 41
f 39 73 74
f 39 74 75
f 39 75 40
f 39 43 76
f 39 76 77
f 39 77 78
f 39 78 73
f 40 75 80
f 40 80 81
f 40 81 82
f 40 82 83
f 40 83 84
f 40 84 85
f 40 85 86
f 40 86 79
f 41 72 87
f 41 87 42
f 42 87 43
f 43 87 88
f 43 88 76
f 44 79 89
f 44 89 45
f 45 89 46
f 46 89 47
f 47 90 56
f 47 55 54
f 47 54 52
f 47 52 51
f 47 51 49
f 47 49 48
f 47 89 91
f 47 91 92
f 47 92 90
f 49 51 50
f 52 54 53
f 57 93 94
f 57 94 95
f 57 95 96
f 57 96 58
f 58 96 97
f 58 97 98
f 58 98 99
f 58 99 67
f 58 67 59
f 59 67 66
f 59 66 65
f 59 65 60
f 64 68 100
f 64 100 101
f 64 101 69
f 67 99 68
f 68 99 102
f 68 102 103
f 68 103 100
f 69 101 104
f 69 104 105
f 69 105 70
f 70 106 71
f 70 105 106
f 71 106 107
f 71 107 72
f 72 107 108
f 72 108 88
f 72 88 87
f 73 78 74
f 74 78 109
f 74 109 75
f 75 109 110
f 75 110 80
f 76 88 111
f 76 111 112
f 76 112 113
f 76 113 77
f 77 113 114
f 77 114 115
f 77 115 109
f 77 109 78
f 79 86 116
f 79 116 117
f 79 117 89
f 80 110 81
f 81 110 118
f 81 118 119
f 81 119 82
f 82 119 120
f 82 120 121
f 82 121 83
f 83 121 84
f 84 121 122
f 84 122 85
f 85 122 123
f 85 123 124
f 85 124 86
f 86 124 125
f 86 125 126
f 86 126 116
f 88 108 111
f 89 117 91
f 90 92 127
f 91 128 129
f 91 129 130
f 91 130 92
f 91 117 128
f 92 93 131
f 92 131 132
f 92 132 127
f 92 130 133
f 92 133 94
f 92 94 93
f 94 133 134
f 94 134 135
f 94 135 95
f 95 135 136
f 95 136 96
f 96 136 137
f 96 137 138
f 96 138 97
f 97 139 140
f 97 140 98
f 97 138 139
f 98 140 141
f 98 141 142
f 98 142 99
f 99 142 143
f 99 143 144
f 99 144 145
f 99 145 146
f 99 146 102
f 100 103 147
f 100 147 148
f 100 148 101
f 101 149 150
f 101 150 151
f 101 151 104
f 101 148 149
f 102 152 153
f 102 153 103
f 102 146 152
f 103 154 155
f 103 155 147
f 103 153 154
f 104 151 156
f 104 156 105
f 105 156 157
f 105 157 106
f 106 157 107
f 107 157 158
f 107 158 108
f 108 158 111
f 109 115 159
f 109 159 110
f 110 159 160
f 110 160 118
f 111 158 112
f 112 158 161
f 112 161 114
f 112 114 113
f 114 161 115
f 115 161 159
f 116 126 117
f 117 126 128
f 118 160 162
f 118 162 119
f 119 162 163
f 119 163 120
f 120 163 164
f 120 164 165
f 120 165 166
f 120 166 121
f 121 166 167
f 121 167 168
f 121 168 169
f 121 169 122
f 122 169 123
f 123 169 170
f 123 170 171
f 123 171 172
f 123 172 124
f 124 172 125
f 125 128 126
f 125 172 173
f 125 173 128
f 128 173 129
f 129 173 174
f 129 174 130
f 130 174 133
f 133 174 175
f 133 175 134
f 134 175 176
f 134 176 177
f 134 177 135
f 135 177 136
f 136 177 178
f 136 178 137
f 137 179 138
f 137 178 180
f 137 180 179
f 138 179 181
f 138 181 139
f 139 181 182
f 139 182 183
f 139 183 140
f 140 183 141
f 141 183 184
f 141 184 185
f 141 185 186
f 141 186 142
f 142 187 143
f 142 186 187
f 143 187 188
f 143 188 189
f 143 189 144
f 144 189 190
f 144 190 146
f 144 146 145
f 146 190 191
f 146 191 192
f 146 192 193
f 146 193 153
f 146 153 152
f 147 194 195
f 147 195 149
f 147 149 148
f 147 155 194
f 149 196 197
f 149 197 198
f 149 198 150
f 149 195 196
f 150 198 156
f 150 156 151
f 153 193 154
f 154 194 155
f 154 193 194
f 156 199 157
f 156 198 199
f 157 199 158
f 158 199 161
f 159 161 200
f 159 200 201
f 159 201 160
f 160 201 202
f 160 202 203
f 160 203 162
f 161 199 200
f 162 203 204
f 162 204 163
f 163 204 205
f 163 205 164
f 164 205 165
f 165 206 168
f 165 168 167
f 165 167 166
f 165 205 207
f 165 207 206
f 168 206 208
f 168 208 169
f 169 208 170
f 170 208 209
f 170 209 171
f 171 209 210
f 171 210 211
f 171 211 172
f 172 211 175
f 172 175 173
f 173 175 174
f 175 211 176
f 176 212 213
f 176 213 177
f 176 211 212
f 177 214 178
f 177 213 214
f 178 214 215
f 178 215 180
f 179 180 216
f 179 216 181
f 180 217 218
f 180 218 216
f 180 215 217
f 181 216 182
f 182 184 183
f 182 216 184
f 184 216 219
f 184 219 220
f 184 220 185
f 185 220 221
f 185 221 186
f 186 221 187
f 187 221 188
f 188 190 189
f 188 221 222
f 188 222 223
f 188 223 224
f 188 224 190
f 190 224 225
f 190 225 191
f 191 225 226
f 191 226 227
f 191 227 192
f 192 227 228
f 192 228 193
f 193 228 194
f 194 229 230
f 194 230 196
f 194 196 195
f 194 228 227
f 194 227 229
f 196 230 229
f 196 229 197
f 197 229 231
f 197 231 232
f 197 232 198
f 198 232 199
f 199 232 200
f 200 233 201
f 200 232 234
f 200 234 233
f 201 233 202
f 202 233 234
f 202 234 235
f 202 235 236
f 202 236 203
f 203 236 237
f 203 237 204
f 204 237 205
f 205 237 238
f 205 238 212
f 205 212 207
f 206 209 208
f 206 207 239
f 206 239 210
f 206 210 209
f 207 212 240
f 207 240 239
f 210 239 211
f 211 239 240
f 211 240 212
f 212 238 241
f 212 241 213
f 213 241 215
f 213 215 214
f 215 242 217
f 215 241 242
f 216 218 219
f 217 242 218
f 218 242 243
f 218 243 219
f 219 243 220
f 220 243 221
f 221 243 222
f 222 244 237
f 222 237 245
f 222 245 246
f 222 246 223
f 222 243 244
f 223 227 226
f 223 226 225
f 223 225 224
f 223 246 247
f 223 247 248
f 223 248 249
f 223 249 227
f 227 249 229
f 229 249 231
f 231 249 248
f 231 248 250
f 231 250 232
f 232 250 234
f 234 250 248
f 234 248 235
f 235 248 247
f 235 247 236
f 236 247 246
f 236 246 245
f 236 245 237
f 237 244 251
f 237 251 238
f 238 251 252
f 238 252 241
f 241 252 242
f 242 252 251
f 242 251 244
f 242 244 243
