v 0.002409 -0.040422 0.075240
v 0.002409 -0.039442 0.075083
v -0.030419 -0.038179 0.075273
v -0.026965 -0.040146 0.075358
v 0.001003 -0.041614 0.075260
v 0.002301 -0.041351 0.075247
v 0.002301 -0.042389 0.075063
v 0.002409 -0.044470 0.073818
v 0.002409 -0.038497 0.074755
v -0.030419 -0.036710 0.074952
v -0.030414 -0.039494 0.075279
v -0.029417 -0.039653 0.075319
v -0.043475 -0.026197 0.068744
v -0.025492 -0.041614 0.075273
v -0.020578 -0.042598 0.075273
v -0.019613 -0.042598 0.075286
v -0.011757 -0.043577 0.075273
v -0.010778 -0.043577 0.075273
v -0.004885 -0.042598 0.075273
v -0.002923 -0.042598 0.075266
v -0.001943 -0.042598 0.075240
v 0.001003 -0.042598 0.075122
v -0.000960 -0.043577 0.074985
v 0.000019 -0.043577 0.074880
v 0.001003 -0.043577 0.074762
v 0.002274 -0.043755 0.074486
v 0.000019 -0.045032 0.073903
v 0.001142 -0.045285 0.073182
v 0.002265 -0.045050 0.073064
v 0.002198 -0.045415 0.072015
v 0.002409 -0.044831 0.069498
v 0.002409 -0.037661 0.074290
v -0.030419 -0.035698 0.074499
v -0.030410 -0.040634 0.075057
v -0.029417 -0.040634 0.075181
v -0.028438 -0.040634 0.075253
v -0.039411 -0.026197 0.068416
v -0.043457 -0.026197 0.066974
v -0.030419 -0.043624 0.070927
v -0.030419 -0.043529 0.071917
v -0.030419 -0.043235 0.072887
v -0.030419 -0.042582 0.073837
v -0.030244 -0.041921 0.074499
v -0.026475 -0.041614 0.075220
v -0.023525 -0.042598 0.075181
v -0.021566 -0.042598 0.075253
v -0.015678 -0.043577 0.075260
v -0.011757 -0.044559 0.075083
v -0.009794 -0.044559 0.075070
v -0.008815 -0.044559 0.075063
v -0.009794 -0.043577 0.075260
v -0.005864 -0.043577 0.075201
v -0.002923 -0.043577 0.075135
v -0.001943 -0.043577 0.075070
v -0.003906 -0.044559 0.074827
v -0.002923 -0.044559 0.074729
v -0.000960 -0.044416 0.074591
v 0.000019 -0.044306 0.074526
v -0.003906 -0.045927 0.073818
v -0.004885 -0.046259 0.073654
v -0.002797 -0.046188 0.073162
v -0.001890 -0.046058 0.073070
v -0.000960 -0.045148 0.074001
v 0.000019 -0.045699 0.072900
v 0.001003 -0.045749 0.071917
v 0.002198 -0.045488 0.070940
v 0.000370 -0.037972 0.008770
v 0.000437 -0.034459 0.008429
v 0.002409 -0.043577 0.068895
v 0.002409 -0.036830 0.073549
v -0.029417 -0.041614 0.074840
v -0.028438 -0.041614 0.074998
v -0.027459 -0.041614 0.075116
v -0.039375 -0.026197 0.067144
v 0.002409 -0.035993 0.072290
v 0.002409 -0.035452 0.070520
v 0.002409 -0.035286 0.069039
v -0.042896 -0.026197 0.042241
v -0.028438 -0.044420 0.070940
v -0.028977 -0.044097 0.072048
v -0.041378 -0.027281 0.012054
v -0.041319 -0.027281 0.010927
v -0.041090 -0.027445 0.009996
v -0.039959 -0.028425 0.008751
v -0.038966 -0.029335 0.008751
v -0.037574 -0.030486 0.008816
v -0.036397 -0.031367 0.008751
v -0.035198 -0.032231 0.008751
v -0.034025 -0.033031 0.008928
v -0.032453 -0.034020 0.009105
v -0.031609 -0.034442 0.008770
v -0.030545 -0.035056 0.009105
v -0.029934 -0.035269 0.008410
v -0.029417 -0.035611 0.009105
v -0.028510 -0.036032 0.009105
v -0.027818 -0.036248 0.008442
v -0.029247 -0.044095 0.070632
v -0.028267 -0.044182 0.072677
v -0.028532 -0.043956 0.072965
v -0.029565 -0.043415 0.073208
v -0.028438 -0.043436 0.073778
v -0.027661 -0.043007 0.074454
v -0.025492 -0.042598 0.075030
v -0.024508 -0.042598 0.075122
v -0.020578 -0.043577 0.075102
v -0.019613 -0.043577 0.075155
v -0.017641 -0.043577 0.075220
v -0.016662 -0.043577 0.075240
v -0.014699 -0.044559 0.075063
v -0.013720 -0.044559 0.075070
v -0.014699 -0.045442 0.074637
v -0.009794 -0.045484 0.074644
v -0.006848 -0.044559 0.074998
v -0.006848 -0.045384 0.074611
v -0.005864 -0.044559 0.074952
v -0.004885 -0.044559 0.074899
v -0.003906 -0.045193 0.074473
v -0.002051 -0.044918 0.074408
v -0.004885 -0.045515 0.074342
v -0.005864 -0.046327 0.073719
v -0.007832 -0.046920 0.073123
v -0.004885 -0.046653 0.072900
v -0.003906 -0.046487 0.072900
v -0.001023 -0.045998 0.072743
v -0.000412 -0.046054 0.072008
v -0.001943 -0.046472 0.070940
v 0.001003 -0.045799 0.070940
v -0.000493 -0.038184 0.008442
v -0.001943 -0.038536 0.008423
v -0.011308 -0.036447 0.008397
v -0.037165 -0.027281 0.008390
v -0.036042 -0.027374 0.008397
v -0.038881 -0.026197 0.042169
v -0.039128 -0.026197 0.056892
v -0.039325 -0.026197 0.065237
v 0.002409 -0.038540 0.068809
v -0.026475 -0.042955 0.074709
v -0.027459 -0.044773 0.070940
v -0.027459 -0.044665 0.071917
v -0.040974 -0.027418 0.008751
v -0.025168 -0.037270 0.008397
v -0.026305 -0.036886 0.008757
v -0.026296 -0.044965 0.072264
v -0.025492 -0.045021 0.072841
v -0.027446 -0.044163 0.073313
v -0.026475 -0.044271 0.073621
v -0.025402 -0.044352 0.073909
v -0.025016 -0.043720 0.074558
v -0.023525 -0.043577 0.074847
v -0.022545 -0.043577 0.074952
v -0.021566 -0.043577 0.075037
v -0.018624 -0.044559 0.074886
v -0.017641 -0.044559 0.074945
v -0.015678 -0.044559 0.075037
v -0.018624 -0.045243 0.074519
v -0.014699 -0.045935 0.074290
v -0.013720 -0.045724 0.074480
v -0.012736 -0.045741 0.074493
v -0.011757 -0.045743 0.074499
v -0.016662 -0.044959 0.074794
v -0.010778 -0.045741 0.074493
v -0.008815 -0.045705 0.074473
v -0.007832 -0.045674 0.074460
v -0.005864 -0.045575 0.074395
v -0.006848 -0.046128 0.074001
v -0.007832 -0.046431 0.073791
v -0.008815 -0.046464 0.073824
v -0.009794 -0.047057 0.073051
v -0.008815 -0.047034 0.072979
v -0.006848 -0.047206 0.071917
v -0.006323 -0.046893 0.072769
v -0.005442 -0.047065 0.071871
v -0.005864 -0.047254 0.070940
v -0.004872 -0.047055 0.070645
v -0.002923 -0.038754 0.008423
v -0.000547 -0.046157 0.070789
v -0.020457 -0.038631 0.008397
v -0.027455 -0.032813 0.008390
v -0.025492 -0.045407 0.070940
v -0.026399 -0.045102 0.070612
v -0.025492 -0.045297 0.071917
v -0.024230 -0.037570 0.008397
v -0.024508 -0.037593 0.009111
v -0.022438 -0.045962 0.072710
v -0.024378 -0.045625 0.071910
v -0.024423 -0.045113 0.073280
v -0.023525 -0.045183 0.073562
v -0.022545 -0.045075 0.073942
v -0.023525 -0.044244 0.074499
v -0.022545 -0.044352 0.074572
v -0.021566 -0.044470 0.074624
v -0.019613 -0.044866 0.074637
v -0.020686 -0.045251 0.074165
v -0.019613 -0.045662 0.073975
v -0.018624 -0.045958 0.073831
v -0.017641 -0.045556 0.074355
v -0.016662 -0.046081 0.073962
v -0.015678 -0.046122 0.074008
v -0.013720 -0.046427 0.073824
v -0.012736 -0.046460 0.073844
v -0.011757 -0.046485 0.073844
v -0.010796 -0.046495 0.073844
v -0.009794 -0.046230 0.074080
v -0.010787 -0.047063 0.073064
v -0.009794 -0.047324 0.071917
v -0.008815 -0.047299 0.071917
v -0.006848 -0.047343 0.070940
v -0.007832 -0.039549 0.008770
v -0.006853 -0.039446 0.008770
v -0.005752 -0.039284 0.008770
v -0.004239 -0.039069 0.008947
v -0.017798 -0.039137 0.008495
v -0.008811 -0.039626 0.008770
v -0.009794 -0.039676 0.008770
v -0.011214 -0.039686 0.008764
v -0.021557 -0.038459 0.009111
v -0.022366 -0.038200 0.008764
v -0.019541 -0.038861 0.008757
v -0.021566 -0.046406 0.070940
v -0.022887 -0.046101 0.070809
v -0.024378 -0.045718 0.070940
v -0.023013 -0.046016 0.071858
v -0.023430 -0.037879 0.008757
v -0.018624 -0.046522 0.072900
v -0.021203 -0.046010 0.073116
v -0.021566 -0.046340 0.071917
v -0.019613 -0.046659 0.071917
v -0.019756 -0.046221 0.073169
v -0.017641 -0.046460 0.073280
v -0.013720 -0.047019 0.072926
v -0.012736 -0.047044 0.072998
v -0.011757 -0.047057 0.073044
v -0.012736 -0.047341 0.071917
v -0.007832 -0.047370 0.070940
v -0.013203 -0.039641 0.008757
v -0.014641 -0.039547 0.008757
v -0.015692 -0.039442 0.008757
v -0.016671 -0.039369 0.009111
v -0.018624 -0.046885 0.070940
v -0.019613 -0.046740 0.070940
v -0.020578 -0.046586 0.070940
v -0.008815 -0.047372 0.070940
v -0.012736 -0.047370 0.070940
v -0.013720 -0.047351 0.070940
v -0.018624 -0.046810 0.071917
v -0.016603 -0.046976 0.072356
v -0.015678 -0.046945 0.072736
v -0.014699 -0.046982 0.072834
v -0.013720 -0.047310 0.071917
v -0.014699 -0.047281 0.070940
v -0.016814 -0.047082 0.070645
v -0.017591 -0.047003 0.071353
f 1 2 3
f 1 3 4
f 1 4 5
f 1 5 6
f 1 6 7
f 1 7 8
f 1 8 31
f 1 31 69
f 1 69 136
f 1 136 77
f 1 77 76
f 1 76 75
f 1 75 70
f 1 70 32
f 1 32 9
f 1 9 2
f 2 9 10
f 2 10 3
f 3 11 12
f 3 12 4
f 3 10 13
f 3 13 11
f 4 12 14
f 4 14 15
f 4 15 16
f 4 16 17
f 4 17 18
f 4 18 19
f 4 19 5
f 5 19 20
f 5 20 21
f 5 21 6
f 6 21 22
f 6 22 7
f 7 22 23
f 7 23 24
f 7 24 25
f 7 25 26
f 7 26 8
f 8 26 27
f 8 27 28
f 8 28 29
f 8 29 30
f 8 30 31
f 9 32 33
f 9 33 10
f 10 33 13
f 11 34 35
f 11 35 36
f 11 36 12
f 11 13 34
f 12 36 14
f 13 33 32
f 13 32 37
f 13 37 74
f 13 74 135
f 13 135 134
f 13 134 133
f 13 133 78
f 13 78 38
f 13 38 39
f 13 39 40
f 13 40 41
f 13 41 42
f 13 42 43
f 13 43 34
f 14 36 44
f 14 44 45
f 14 45 46
f 14 46 15
f 15 46 47
f 15 47 16
f 16 47 17
f 17 47 48
f 17 48 18
f 18 48 49
f 18 49 50
f 18 50 51
f 18 51 20
f 18 20 19
f 20 51 52
f 20 52 53
f 20 53 21
f 21 53 22
f 22 53 54
f 22 54 23
f 23 55 56
f 23 56 57
f 23 57 24
f 23 54 55
f 24 57 25
f 25 57 58
f 25 58 26
f 26 58 27
f 27 59 60
f 27 60 61
f 27 61 62
f 27 62 28
f 27 58 63
f 27 63 59
f 28 62 64
f 28 64 29
f 29 64 30
f 30 64 65
f 30 65 66
f 30 66 31
f 31 66 67
f 31 67 68
f 31 68 69
f 32 70 37
f 34 43 71
f 34 71 72
f 34 72 35
f 35 44 36
f 35 72 73
f 35 73 44
f 37 70 75
f 37 75 76
f 37 76 77
f 37 77 68
f 37 68 74
f 38 78 39
f 39 79 80
f 39 80 40
f 39 78 81
f 39 81 82
f 39 82 83
f 39 83 84
f 39 84 85
f 39 85 86
f 39 86 87
f 39 87 88
f 39 88 89
f 39 89 90
f 39 90 91
f 39 91 92
f 39 92 93
f 39 93 94
f 39 94 95
f 39 95 96
f 39 96 97
f 39 97 79
f 40 80 41
f 41 80 98
f 41 98 99
f 41 99 100
f 41 100 42
f 42 100 101
f 42 101 102
f 42 102 43
f 43 102 71
f 44 73 103
f 44 103 104
f 44 104 45
f 45 104 105
f 45 105 106
f 45 106 46
f 46 106 107
f 46 107 108
f 46 108 47
f 47 108 109
f 47 109 110
f 47 110 48
f 48 110 111
f 48 111 112
f 48 112 49
f 49 112 50
f 50 113 53
f 50 53 52
f 50 52 51
f 50 112 114
f 50 114 113
f 53 113 115
f 53 115 116
f 53 116 54
f 54 116 55
f 55 116 114
f 55 114 117
f 55 117 56
f 56 117 57
f 57 117 118
f 57 118 58
f 58 118 63
f 59 63 118
f 59 118 117
f 59 117 119
f 59 119 60
f 60 120 121
f 60 121 122
f 60 122 61
f 60 119 120
f 61 122 123
f 61 123 62
f 62 123 124
f 62 124 64
f 64 124 65
f 65 124 125
f 65 125 126
f 65 126 127
f 65 127 66
f 66 127 128
f 66 128 67
f 67 128 68
f 68 128 129
f 68 129 130
f 68 130 131
f 68 131 132
f 68 132 133
f 68 133 134
f 68 134 135
f 68 135 74
f 68 77 136
f 68 136 69
f 71 137 103
f 71 103 72
f 71 102 137
f 72 103 73
f 78 133 131
f 78 131 82
f 78 82 81
f 79 138 139
f 79 139 80
f 79 97 138
f 80 139 98
f 82 131 140
f 82 140 83
f 83 140 84
f 84 140 93
f 84 93 85
f 85 93 87
f 85 87 86
f 87 93 88
f 88 93 91
f 88 91 89
f 89 91 90
f 91 93 92
f 93 140 131
f 93 131 141
f 93 141 96
f 93 96 95
f 93 95 94
f 96 141 142
f 96 142 97
f 97 142 141
f 97 141 138
f 98 139 143
f 98 143 144
f 98 144 145
f 98 145 99
f 99 145 100
f 100 145 101
f 101 145 146
f 101 146 147
f 101 147 102
f 102 148 137
f 102 147 148
f 103 137 148
f 103 148 149
f 103 149 150
f 103 150 104
f 104 150 151
f 104 151 105
f 105 151 152
f 105 152 153
f 105 153 106
f 106 153 154
f 106 154 107
f 107 154 109
f 107 109 108
f 109 154 111
f 109 111 110
f 111 155 156
f 111 156 157
f 111 157 158
f 111 158 159
f 111 159 112
f 111 154 160
f 111 160 155
f 112 159 161
f 112 161 162
f 112 162 114
f 113 114 115
f 114 162 163
f 114 163 164
f 114 164 117
f 114 116 115
f 117 164 119
f 119 164 120
f 120 165 166
f 120 166 121
f 120 164 165
f 121 166 167
f 121 167 168
f 121 168 169
f 121 169 170
f 121 170 171
f 121 171 122
f 122 171 172
f 122 172 123
f 123 172 124
f 124 172 125
f 125 172 173
f 125 173 126
f 126 173 174
f 126 174 175
f 126 175 176
f 126 176 127
f 127 176 129
f 127 129 128
f 129 175 177
f 129 177 130
f 129 176 175
f 130 177 178
f 130 178 131
f 131 178 141
f 131 133 132
f 138 179 139
f 138 141 180
f 138 180 179
f 139 179 181
f 139 181 143
f 141 178 182
f 141 182 183
f 141 183 180
f 143 184 144
f 143 181 185
f 143 185 184
f 144 184 186
f 144 186 145
f 145 186 146
f 146 186 187
f 146 187 147
f 147 187 188
f 147 188 189
f 147 189 148
f 148 189 149
f 149 189 190
f 149 190 191
f 149 191 150
f 150 191 192
f 150 192 152
f 150 152 151
f 152 160 153
f 152 192 155
f 152 155 160
f 153 160 154
f 155 192 190
f 155 190 189
f 155 189 193
f 155 193 194
f 155 194 195
f 155 195 196
f 155 196 156
f 156 158 157
f 156 196 197
f 156 197 198
f 156 198 199
f 156 199 200
f 156 200 201
f 156 201 158
f 158 201 202
f 158 202 159
f 159 202 203
f 159 203 161
f 161 203 162
f 162 203 163
f 163 203 167
f 163 167 165
f 163 165 164
f 165 167 166
f 167 203 202
f 167 202 168
f 168 204 205
f 168 205 206
f 168 206 169
f 168 202 204
f 169 206 170
f 170 206 207
f 170 207 173
f 170 173 172
f 170 172 171
f 173 207 208
f 173 208 209
f 173 209 210
f 173 210 211
f 173 211 174
f 174 211 175
f 175 212 177
f 175 211 210
f 175 210 209
f 175 209 208
f 175 208 213
f 175 213 214
f 175 214 215
f 175 215 212
f 177 216 217
f 177 217 182
f 177 182 178
f 177 212 218
f 177 218 219
f 177 219 220
f 177 220 216
f 179 221 222
f 179 222 185
f 179 185 181
f 179 180 217
f 179 217 221
f 180 183 223
f 180 223 217
f 182 217 223
f 182 223 183
f 184 224 225
f 184 225 187
f 184 187 186
f 184 185 222
f 184 222 226
f 184 226 227
f 184 227 224
f 187 225 194
f 187 194 188
f 188 194 193
f 188 193 189
f 190 192 191
f 194 225 195
f 195 197 196
f 195 225 228
f 195 228 229
f 195 229 197
f 197 229 199
f 197 199 198
f 199 229 230
f 199 230 231
f 199 231 200
f 200 231 232
f 200 232 201
f 201 232 204
f 201 204 202
f 204 232 233
f 204 233 205
f 205 233 234
f 205 234 206
f 206 234 207
f 207 234 214
f 207 214 213
f 207 213 208
f 212 215 235
f 212 235 236
f 212 236 237
f 212 237 238
f 212 238 239
f 212 239 240
f 212 240 241
f 212 241 218
f 214 234 215
f 215 234 242
f 215 242 243
f 215 243 244
f 215 244 235
f 216 220 217
f 217 220 221
f 218 241 219
f 219 241 226
f 219 226 222
f 219 222 220
f 220 222 221
f 224 227 245
f 224 245 246
f 224 246 247
f 224 247 229
f 224 229 228
f 224 228 225
f 226 241 227
f 227 241 240
f 227 240 245
f 229 247 248
f 229 248 230
f 230 248 249
f 230 249 231
f 231 249 233
f 231 233 232
f 233 249 244
f 233 244 243
f 233 243 242
f 233 242 234
f 235 244 236
f 236 244 250
f 236 250 251
f 236 251 237
f 237 251 238
f 238 251 239
f 239 252 245
f 239 245 240
f 239 251 252
f 244 249 250
f 245 252 246
f 246 249 247
f 246 252 249
f 247 249 248
f 249 252 250
f 250 252 251
