v 0.041559 -0.065705 0.002087
v 0.049114 -0.065923 0.007722
v 0.094618 -0.074004 0.018531
v 0.093392 -0.074004 0.017997
v 0.041559 -0.073130 0.002087
v -0.012757 -0.085135 0.002087
v 0.049114 -0.065955 0.007761
v 0.089289 -0.074004 0.023967
v 0.091506 -0.074004 0.024188
v 0.091900 -0.074004 0.024195
v 0.094063 -0.074004 0.023760
v 0.094287 -0.074004 0.023699
v 0.094468 -0.074004 0.023619
v 0.095289 -0.074004 0.023078
v 0.096099 -0.074004 0.021877
v 0.096078 -0.074004 0.019847
v 0.093019 -0.076072 0.017971
v 0.041154 -0.073522 0.002087
v 0.087765 -0.083748 0.017980
v 0.080125 -0.091745 0.017925
v -0.012757 -0.091051 0.002087
v -0.012757 -0.090255 0.007722
v 0.049114 -0.067092 0.009025
v 0.049114 -0.067600 0.009583
v 0.049114 -0.068056 0.010055
v 0.049114 -0.069501 0.011278
v 0.049114 -0.069906 0.011596
v 0.087222 -0.074004 0.023491
v -0.011617 -0.094905 0.012338
v -0.011617 -0.096209 0.013039
v -0.011617 -0.097898 0.013615
v -0.010189 -0.124002 0.022219
v -0.010189 -0.126610 0.022764
v 0.091506 -0.074408 0.024192
v 0.078452 -0.090068 0.024006
v 0.081063 -0.087461 0.024002
v 0.086284 -0.082238 0.023993
v 0.089108 -0.079836 0.023829
v 0.094053 -0.074274 0.023706
v 0.090792 -0.079110 0.023563
v 0.093147 -0.076213 0.023481
v 0.090131 -0.080851 0.023251
v 0.092529 -0.077954 0.023002
v 0.094884 -0.075057 0.022591
v 0.095491 -0.075802 0.020851
v 0.095491 -0.075802 0.020581
v 0.095950 -0.074408 0.019983
v 0.093925 -0.076804 0.019518
v 0.066932 -0.104591 0.017960
v 0.038468 -0.075481 0.002087
v 0.088224 -0.084711 0.019555
v 0.087691 -0.086253 0.020537
v 0.081862 -0.090807 0.018668
v 0.079198 -0.093486 0.018661
v 0.073987 -0.098631 0.018700
v 0.072250 -0.099472 0.017967
v -0.012757 -0.091366 0.002420
v -0.012352 -0.091064 0.002087
v -0.010189 -0.130985 0.017597
v -0.012757 -0.095470 0.007722
v -0.011617 -0.100641 0.014459
v -0.011617 -0.099196 0.014017
v -0.011617 -0.093980 0.011689
v -0.011617 -0.093055 0.011035
v -0.011617 -0.092406 0.010436
v -0.011617 -0.091751 0.009800
v 0.049104 -0.071081 0.012470
v -0.011617 -0.112961 0.014459
v -0.010189 -0.129103 0.022258
v -0.007696 -0.126610 0.022777
v 0.032575 -0.120116 0.023316
v 0.073230 -0.095290 0.023803
v 0.067209 -0.102099 0.023446
v 0.073230 -0.097256 0.023491
v 0.080881 -0.089933 0.023617
v 0.032884 -0.120116 0.023316
v 0.044511 -0.115151 0.023400
v 0.052205 -0.110912 0.023474
v 0.060240 -0.105805 0.023574
v 0.083524 -0.087293 0.023604
v 0.088234 -0.082238 0.023574
v 0.087659 -0.083613 0.023351
v 0.087691 -0.086253 0.020823
v 0.093094 -0.078680 0.021262
v 0.074637 -0.099305 0.020438
v 0.067188 -0.104771 0.019391
v 0.059334 -0.109955 0.019391
v 0.059004 -0.109724 0.018032
v 0.057554 -0.110180 0.017819
v 0.037627 -0.076066 0.002087
v 0.038095 -0.075744 0.002087
v 0.082512 -0.091526 0.020408
v 0.080881 -0.092503 0.019533
v 0.079912 -0.094141 0.020401
v 0.077290 -0.096742 0.020423
v -0.011116 -0.091070 0.002087
v -0.010189 -0.131325 0.019391
v -0.009145 -0.091070 0.002087
v -0.008495 -0.091051 0.002087
v -0.007696 -0.130946 0.017618
v -0.005085 -0.130907 0.017642
v -0.010189 -0.131306 0.019471
v -0.010189 -0.130875 0.021117
v -0.010189 -0.129225 0.022230
v 0.007970 -0.126610 0.022758
v 0.068051 -0.100538 0.023582
v 0.059430 -0.107373 0.023455
v 0.064225 -0.104527 0.023364
v 0.071845 -0.099151 0.023286
v 0.074594 -0.096652 0.023340
v 0.082554 -0.088970 0.023420
v 0.010580 -0.126610 0.022639
v 0.013191 -0.126610 0.022411
v 0.023635 -0.124002 0.022522
v 0.028867 -0.123790 0.021697
v 0.031478 -0.123367 0.021431
v 0.036699 -0.121048 0.021726
v 0.041911 -0.116943 0.023139
v 0.045992 -0.114946 0.023344
v 0.051256 -0.112364 0.023370
v 0.049732 -0.112595 0.023420
v 0.054943 -0.109955 0.023429
v 0.085112 -0.086304 0.023394
v 0.086103 -0.084628 0.023561
v 0.086860 -0.085354 0.022565
v 0.084291 -0.088045 0.022587
v 0.083407 -0.089792 0.021745
v 0.082512 -0.091526 0.020903
v 0.074637 -0.099305 0.020821
v 0.064097 -0.107039 0.020708
v 0.064097 -0.107039 0.020661
v 0.057554 -0.111085 0.019391
v 0.055977 -0.112074 0.019391
v 0.045907 -0.117515 0.018047
v 0.054155 -0.112498 0.017925
v 0.052333 -0.112987 0.017692
v 0.033417 -0.078718 0.002087
v 0.079912 -0.094141 0.020910
v 0.077290 -0.096742 0.020882
v -0.002474 -0.131190 0.019391
v -0.002474 -0.130856 0.021072
v -0.007195 -0.091000 0.002087
v -0.002474 -0.130869 0.017694
v -0.005085 -0.129225 0.022197
v -0.002474 -0.129225 0.022173
v 0.056329 -0.109685 0.023329
v 0.070118 -0.102356 0.021407
v 0.068957 -0.101438 0.023147
v 0.058066 -0.109113 0.022907
v 0.060261 -0.108381 0.022173
v 0.059355 -0.109987 0.021167
v 0.073230 -0.099896 0.021429
v 0.073230 -0.098553 0.022734
v 0.075489 -0.097564 0.021721
v 0.081638 -0.090711 0.022645
v 0.005359 -0.129025 0.021691
v 0.007970 -0.128833 0.021598
v 0.010580 -0.128627 0.021451
v 0.013191 -0.128402 0.021273
v 0.015802 -0.126610 0.022070
v 0.021024 -0.126154 0.021550
v 0.023635 -0.125827 0.021317
v 0.033545 -0.122981 0.021068
v 0.025766 -0.125544 0.021009
v 0.039310 -0.120483 0.021239
v 0.044511 -0.116455 0.022660
v 0.044511 -0.117990 0.021353
v 0.046898 -0.116063 0.022022
v 0.049732 -0.115389 0.021353
v 0.052141 -0.113436 0.021968
v 0.067113 -0.104713 0.021094
v 0.051278 -0.114997 0.020150
v 0.054666 -0.112832 0.019391
v 0.046908 -0.116115 0.017692
v 0.046077 -0.117611 0.019391
v 0.044511 -0.118350 0.019391
v 0.040536 -0.120033 0.018293
v 0.033407 -0.122923 0.017895
v 0.044511 -0.117823 0.017841
v 0.030668 -0.080337 0.002087
v 0.000137 -0.130965 0.019391
v 0.000137 -0.130702 0.020890
v 0.000137 -0.130792 0.017778
v 0.002748 -0.130657 0.017928
v 0.004293 -0.130554 0.018051
v -0.005085 -0.090858 0.002087
v 0.007970 -0.129038 0.017352
v 0.054496 -0.112775 0.021304
v 0.057341 -0.110392 0.022022
v 0.051278 -0.114997 0.020890
v 0.015802 -0.128158 0.021007
v 0.017390 -0.127991 0.020793
v 0.027514 -0.125287 0.020421
v 0.031478 -0.123977 0.019391
v 0.033822 -0.123084 0.019391
v 0.035133 -0.122583 0.019391
v 0.040770 -0.120161 0.020817
v 0.046077 -0.117611 0.020925
v 0.029986 -0.080716 0.002087
v 0.040770 -0.120161 0.020033
v 0.031478 -0.123309 0.017646
v 0.036699 -0.120894 0.017588
v 0.027673 -0.125339 0.018051
v 0.041911 -0.118408 0.017590
v 0.028910 -0.081262 0.002087
v 0.004293 -0.130554 0.018389
v 0.003345 -0.130471 0.020128
v 0.001597 -0.130541 0.020711
v 0.010580 -0.128846 0.017397
v 0.013191 -0.128557 0.017538
v 0.015802 -0.128274 0.017737
v 0.017805 -0.128068 0.017923
v 0.010580 -0.129559 0.019391
v 0.002748 -0.089908 0.002087
v 0.013191 -0.129038 0.019391
v 0.015802 -0.128512 0.019391
v 0.017837 -0.128081 0.019391
v 0.019138 -0.127722 0.019391
v 0.027673 -0.125339 0.018681
v 0.028675 -0.124966 0.019486
v 0.026245 -0.125531 0.017869
v 0.023635 -0.125904 0.017579
v 0.028675 -0.124092 0.017560
v 0.017379 -0.086202 0.002087
v 0.017678 -0.086092 0.002087
v 0.023155 -0.083973 0.002087
v 0.007970 -0.129944 0.019391
v 0.005359 -0.089445 0.002087
v 0.007138 -0.089060 0.002087
v 0.007799 -0.088899 0.002087
v 0.021024 -0.126308 0.017417
v 0.016591 -0.086458 0.002087
v 0.009099 -0.088572 0.002087
v 0.009600 -0.088437 0.002087
v 0.013191 -0.087435 0.002087
v 0.015813 -0.086690 0.002087
f 1 2 3
f 1 3 4
f 1 4 5
f 1 5 18
f 1 18 50
f 1 50 91
f 1 91 90
f 1 90 137
f 1 137 180
f 1 180 199
f 1 199 205
f 1 205 226
f 1 226 225
f 1 225 224
f 1 224 232
f 1 232 236
f 1 236 235
f 1 235 234
f 1 234 233
f 1 233 230
f 1 230 229
f 1 229 228
f 1 228 214
f 1 214 186
f 1 186 142
f 1 142 99
f 1 99 98
f 1 98 96
f 1 96 58
f 1 58 21
f 1 21 6
f 1 6 2
f 2 6 7
f 2 7 8
f 2 8 9
f 2 9 10
f 2 10 11
f 2 11 12
f 2 12 13
f 2 13 14
f 2 14 15
f 2 15 16
f 2 16 3
f 3 16 17
f 3 17 4
f 4 17 5
f 5 17 19
f 5 19 20
f 5 20 18
f 6 21 57
f 6 57 60
f 6 60 22
f 6 22 23
f 6 23 7
f 7 23 8
f 8 23 24
f 8 24 25
f 8 25 26
f 8 26 27
f 8 27 28
f 8 28 29
f 8 29 30
f 8 30 31
f 8 31 32
f 8 32 33
f 8 33 9
f 9 34 10
f 9 33 34
f 10 34 35
f 10 35 36
f 10 36 37
f 10 37 38
f 10 38 11
f 11 39 12
f 11 38 40
f 11 40 39
f 12 39 40
f 12 40 41
f 12 41 13
f 13 41 14
f 14 41 42
f 14 42 43
f 14 43 44
f 14 44 15
f 15 44 45
f 15 45 46
f 15 46 47
f 15 47 16
f 16 47 17
f 17 47 48
f 17 48 19
f 18 20 49
f 18 49 50
f 19 48 46
f 19 46 51
f 19 51 52
f 19 52 53
f 19 53 20
f 20 53 54
f 20 54 55
f 20 55 56
f 20 56 49
f 21 58 59
f 21 59 57
f 22 60 68
f 22 68 61
f 22 61 62
f 22 62 31
f 22 31 30
f 22 30 29
f 22 29 63
f 22 63 64
f 22 64 65
f 22 65 66
f 22 66 24
f 22 24 23
f 24 66 25
f 25 66 65
f 25 65 64
f 25 64 26
f 26 64 27
f 27 67 28
f 27 64 67
f 28 67 29
f 29 67 63
f 31 62 32
f 32 62 61
f 32 61 33
f 33 61 68
f 33 68 69
f 33 69 70
f 33 70 71
f 33 71 35
f 33 35 34
f 35 72 73
f 35 73 74
f 35 74 75
f 35 75 36
f 35 71 76
f 35 76 77
f 35 77 78
f 35 78 79
f 35 79 72
f 36 75 37
f 37 80 81
f 37 81 38
f 37 75 80
f 38 81 40
f 40 81 82
f 40 82 42
f 40 42 41
f 42 82 83
f 42 83 43
f 43 84 45
f 43 45 44
f 43 83 84
f 45 84 83
f 45 83 52
f 45 52 46
f 46 48 47
f 46 52 51
f 49 56 55
f 49 55 85
f 49 85 86
f 49 86 87
f 49 87 88
f 49 88 89
f 49 89 90
f 49 90 91
f 49 91 50
f 52 83 128
f 52 128 92
f 52 92 53
f 53 93 54
f 53 92 93
f 54 93 94
f 54 94 95
f 54 95 55
f 55 95 85
f 57 59 60
f 58 96 59
f 59 97 68
f 59 68 60
f 59 96 98
f 59 98 99
f 59 99 100
f 59 100 101
f 59 101 97
f 63 67 64
f 68 97 102
f 68 102 103
f 68 103 104
f 68 104 69
f 69 104 105
f 69 105 70
f 70 105 76
f 70 76 71
f 72 106 73
f 72 79 107
f 72 107 106
f 73 108 109
f 73 109 74
f 73 106 107
f 73 107 108
f 74 110 75
f 74 109 110
f 75 110 111
f 75 111 80
f 76 105 112
f 76 112 113
f 76 113 114
f 76 114 115
f 76 115 116
f 76 116 117
f 76 117 118
f 76 118 119
f 76 119 77
f 77 119 120
f 77 120 121
f 77 121 78
f 78 121 120
f 78 120 122
f 78 122 79
f 79 122 107
f 80 111 123
f 80 123 124
f 80 124 81
f 81 124 123
f 81 123 82
f 82 123 125
f 82 125 83
f 83 125 126
f 83 126 127
f 83 127 128
f 85 95 139
f 85 139 129
f 85 129 86
f 86 129 130
f 86 130 131
f 86 131 87
f 87 132 88
f 87 131 132
f 88 132 133
f 88 133 134
f 88 134 135
f 88 135 89
f 89 135 136
f 89 136 137
f 89 137 90
f 92 128 138
f 92 138 94
f 92 94 93
f 94 138 139
f 94 139 95
f 97 101 140
f 97 140 141
f 97 141 102
f 99 142 101
f 99 101 100
f 101 142 143
f 101 143 140
f 102 141 103
f 103 144 104
f 103 141 144
f 104 144 105
f 105 144 145
f 105 145 112
f 107 122 120
f 107 120 146
f 107 146 108
f 108 147 148
f 108 148 109
f 108 146 149
f 108 149 150
f 108 150 151
f 108 151 147
f 109 148 147
f 109 147 152
f 109 152 153
f 109 153 110
f 110 153 154
f 110 154 155
f 110 155 111
f 111 126 123
f 111 155 126
f 112 145 156
f 112 156 157
f 112 157 113
f 113 157 158
f 113 158 159
f 113 159 160
f 113 160 114
f 114 160 161
f 114 161 162
f 114 162 115
f 115 162 116
f 116 163 117
f 116 162 164
f 116 164 163
f 117 165 166
f 117 166 119
f 117 119 118
f 117 163 165
f 119 166 167
f 119 167 168
f 119 168 120
f 120 168 169
f 120 169 170
f 120 170 146
f 123 126 125
f 126 155 127
f 127 155 128
f 128 155 138
f 129 139 154
f 129 154 153
f 129 153 152
f 129 152 147
f 129 147 171
f 129 171 130
f 130 171 151
f 130 151 131
f 131 151 133
f 131 133 132
f 133 151 172
f 133 172 173
f 133 173 134
f 134 174 135
f 134 173 172
f 134 172 175
f 134 175 176
f 134 176 177
f 134 177 178
f 134 178 179
f 134 179 174
f 135 174 136
f 136 174 180
f 136 180 137
f 138 155 139
f 139 155 154
f 140 181 182
f 140 182 141
f 140 143 183
f 140 183 184
f 140 184 185
f 140 185 181
f 141 182 157
f 141 157 156
f 141 156 145
f 141 145 144
f 142 186 143
f 143 187 183
f 143 186 187
f 146 170 188
f 146 188 149
f 147 151 171
f 149 188 189
f 149 189 151
f 149 151 150
f 151 189 188
f 151 188 190
f 151 190 172
f 157 182 158
f 158 182 159
f 159 191 161
f 159 161 160
f 159 182 191
f 161 191 162
f 162 191 192
f 162 192 164
f 163 164 193
f 163 193 194
f 163 194 195
f 163 195 196
f 163 196 197
f 163 197 165
f 164 192 193
f 165 197 167
f 165 167 166
f 167 197 198
f 167 198 169
f 167 169 168
f 169 190 170
f 169 198 190
f 170 190 188
f 172 190 198
f 172 198 175
f 174 179 199
f 174 199 180
f 175 198 197
f 175 197 200
f 175 200 176
f 176 200 177
f 177 200 196
f 177 196 178
f 178 201 202
f 178 202 179
f 178 196 203
f 178 203 201
f 179 204 205
f 179 205 199
f 179 202 204
f 181 185 206
f 181 206 207
f 181 207 182
f 182 207 208
f 182 208 192
f 182 192 191
f 183 187 209
f 183 209 184
f 184 209 185
f 185 209 210
f 185 210 211
f 185 211 212
f 185 212 213
f 185 213 206
f 186 214 209
f 186 209 187
f 192 208 207
f 192 207 213
f 192 213 215
f 192 215 216
f 192 216 217
f 192 217 193
f 193 217 218
f 193 218 219
f 193 219 220
f 193 220 194
f 194 220 219
f 194 219 203
f 194 203 195
f 195 203 196
f 196 200 197
f 201 203 221
f 201 221 222
f 201 222 223
f 201 223 224
f 201 224 225
f 201 225 226
f 201 226 202
f 202 226 205
f 202 205 204
f 203 219 218
f 203 218 212
f 203 212 221
f 206 213 227
f 206 227 207
f 207 227 213
f 209 214 228
f 209 228 229
f 209 229 230
f 209 230 231
f 209 231 210
f 210 231 211
f 211 231 222
f 211 222 212
f 212 222 221
f 212 218 217
f 212 217 216
f 212 216 215
f 212 215 213
f 222 231 232
f 222 232 224
f 222 224 223
f 230 233 231
f 231 233 234
f 231 234 235
f 231 235 236
f 231 236 232
