v -0.007692 0.131102 0.019390
v -0.007692 0.130641 0.018011
v -0.010187 0.130904 0.019082
v -0.010187 0.130935 0.019175
v -0.010187 0.131011 0.021277
v -0.007692 0.131016 0.021380
v -0.005085 0.131081 0.019390
v -0.005085 0.130682 0.017975
v -0.007692 0.129255 0.017327
v -0.010187 0.129478 0.017541
v -0.010187 0.129569 0.017586
v -0.009338 0.130581 0.018068
v -0.011628 0.110857 0.014461
v -0.010187 0.131006 0.021373
v -0.010187 0.129614 0.022678
v -0.007692 0.129589 0.022684
v -0.005085 0.129554 0.022620
v -0.005085 0.130960 0.021313
v 0.002306 0.130737 0.020947
v 0.004300 0.130560 0.018084
v -0.002468 0.130651 0.018003
v -0.005085 0.129255 0.017311
v -0.002468 0.129255 0.017338
v -0.011628 0.093982 0.007721
v -0.011628 0.098717 0.014461
v -0.010187 0.128309 0.023458
v 0.000139 0.128254 0.023467
v 0.002746 0.128193 0.023453
v 0.005363 0.128122 0.023420
v 0.000139 0.129559 0.022370
v 0.000139 0.130798 0.021063
v 0.007469 0.128031 0.023364
v 0.009217 0.127910 0.023300
v 0.008195 0.128896 0.022258
v 0.010587 0.128810 0.021905
v 0.017948 0.128102 0.020971
v 0.007970 0.130181 0.019390
v 0.005251 0.130535 0.019335
v 0.017130 0.127955 0.018081
v 0.015811 0.128127 0.017922
v 0.013194 0.128426 0.017703
v 0.007970 0.129058 0.017486
v 0.005251 0.129513 0.017615
v -0.002478 0.093750 0.007721
v -0.010309 0.093962 0.007721
v -0.011628 0.089905 0.007721
v -0.010187 0.124045 0.022860
v -0.010187 0.125497 0.023276
v -0.010187 0.125542 0.023284
v -0.010187 0.126787 0.023456
v -0.010187 0.126873 0.023458
v -0.011628 0.098343 0.014336
v 0.086260 0.079434 0.024203
v 0.000139 0.126645 0.023571
v 0.002746 0.126645 0.023581
v 0.005363 0.126645 0.023573
v 0.018418 0.125623 0.023476
v 0.020351 0.125487 0.023411
v 0.021138 0.126316 0.022231
v 0.023642 0.126063 0.021728
v 0.026249 0.125699 0.021297
v 0.027987 0.125471 0.020937
v 0.027987 0.125471 0.020227
v 0.017744 0.128067 0.019390
v 0.026249 0.125128 0.018390
v 0.032905 0.122775 0.018053
v 0.026249 0.123822 0.017599
v 0.015811 0.126645 0.017356
v 0.013194 0.126645 0.017093
v 0.010587 0.128714 0.017583
v 0.005363 0.092697 0.007721
v 0.000139 0.093497 0.007721
v 0.029899 0.079828 0.007721
v 0.046798 0.079434 0.014461
v -0.011628 0.089976 0.007827
v 0.086281 0.079662 0.024246
v 0.081067 0.087492 0.024281
v -0.011628 0.097933 0.014197
v 0.083653 0.079434 0.023647
v 0.088898 0.079434 0.024224
v -0.011628 0.095646 0.013300
v -0.011628 0.094346 0.012683
v 0.070619 0.097933 0.024189
v 0.060170 0.105758 0.024040
v 0.052339 0.110979 0.023936
v 0.018418 0.124035 0.023621
v 0.028867 0.121420 0.023636
v 0.026249 0.123200 0.023523
v 0.022089 0.125148 0.023253
v 0.028867 0.122912 0.023406
v 0.030339 0.122765 0.023331
v 0.032077 0.122401 0.023104
v 0.031310 0.123423 0.022140
v 0.034080 0.123094 0.021363
v 0.035573 0.122816 0.020916
v 0.035573 0.122816 0.020417
v 0.033896 0.123048 0.019484
v 0.041094 0.120398 0.020204
v 0.045214 0.117246 0.018364
v 0.043476 0.117616 0.018019
v 0.047115 0.115456 0.017794
v 0.033896 0.121450 0.017682
v 0.018122 0.089455 0.007721
v 0.015801 0.090163 0.007721
v 0.009841 0.091726 0.007721
v 0.007970 0.092207 0.007721
v 0.029899 0.084589 0.007721
v 0.091372 0.079434 0.017860
v 0.064526 0.079434 0.014461
v -0.011628 0.093572 0.012026
v -0.011628 0.092829 0.011376
v -0.011628 0.092171 0.010745
v -0.011628 0.091524 0.010107
v -0.011628 0.091074 0.009450
v 0.086281 0.082272 0.024263
v 0.078521 0.092788 0.023840
v 0.091014 0.079434 0.023672
v 0.088898 0.079662 0.024216
v 0.073144 0.097867 0.023745
v 0.070455 0.100437 0.023670
v 0.068001 0.100548 0.024051
v 0.057563 0.108369 0.023876
v 0.062757 0.105764 0.023728
v 0.054895 0.110994 0.023668
v 0.052339 0.112810 0.023574
v 0.047115 0.115425 0.023513
v 0.039100 0.118794 0.023519
v 0.034080 0.120711 0.023510
v 0.036687 0.118809 0.023639
v 0.036687 0.120327 0.023398
v 0.038098 0.120150 0.023328
v 0.041094 0.120398 0.021219
v 0.046338 0.117803 0.020104
v 0.051583 0.115177 0.020199
v 0.050387 0.114500 0.018460
v 0.048649 0.115031 0.018001
v 0.061980 0.107276 0.017970
v 0.060170 0.107762 0.017753
v 0.028795 0.085221 0.007721
v 0.025575 0.086617 0.007721
v 0.023632 0.087442 0.007721
v 0.064873 0.105111 0.017850
v 0.068001 0.102516 0.017847
v 0.075004 0.096952 0.017970
v 0.075863 0.095353 0.017815
v 0.090391 0.081179 0.017996
v 0.091382 0.079434 0.017863
v 0.077438 0.094503 0.017961
v 0.083704 0.087507 0.023805
v 0.080239 0.091969 0.023561
v 0.077693 0.094453 0.023558
v 0.092394 0.079434 0.022501
v 0.090932 0.079662 0.023641
v 0.088775 0.082110 0.023714
v 0.069474 0.102015 0.023398
v 0.068001 0.102577 0.023560
v 0.072224 0.099496 0.023467
v 0.061857 0.107306 0.023466
v 0.059905 0.108252 0.023557
v 0.053996 0.112486 0.023440
v 0.048741 0.115066 0.023404
v 0.045091 0.117170 0.023052
v 0.039836 0.119649 0.022960
v 0.046338 0.117803 0.021311
v 0.051583 0.115177 0.021229
v 0.056541 0.112436 0.020399
v 0.063718 0.106841 0.018316
v 0.066601 0.104383 0.018152
v 0.069463 0.101944 0.018035
v 0.076742 0.096243 0.018267
v 0.089511 0.082919 0.018766
v 0.090288 0.083683 0.020507
v 0.092497 0.079434 0.018786
v 0.085330 0.086647 0.023523
v 0.082856 0.089263 0.023542
v 0.079441 0.093709 0.022918
v 0.092742 0.079434 0.021906
v 0.090288 0.083683 0.020828
v 0.090339 0.081134 0.023414
v 0.076630 0.096198 0.022947
v 0.077560 0.097033 0.021208
v 0.071222 0.101236 0.022530
v 0.070455 0.102405 0.021796
v 0.066621 0.104398 0.023260
v 0.058872 0.109674 0.023309
v 0.055733 0.111874 0.022791
v 0.054895 0.112901 0.021953
v 0.056541 0.112436 0.021050
v 0.064413 0.107327 0.020057
v 0.071978 0.101904 0.020554
v 0.077560 0.097033 0.020006
v 0.082682 0.091726 0.020211
v 0.092813 0.079434 0.019390
v 0.087773 0.086369 0.020462
v 0.084594 0.088387 0.022822
v 0.082682 0.091726 0.021167
v 0.089573 0.082879 0.022569
v 0.087773 0.086369 0.020963
v 0.071978 0.101904 0.020789
v 0.064413 0.107327 0.021141
v 0.059455 0.110083 0.022000
f 1 2 3
f 1 3 4
f 1 4 5
f 1 5 6
f 1 6 7
f 1 7 8
f 1 8 2
f 2 9 10
f 2 10 11
f 2 11 12
f 2 12 3
f 2 8 9
f 3 11 13
f 3 13 4
f 3 12 11
f 4 13 5
f 5 13 14
f 5 14 6
f 6 14 15
f 6 15 16
f 6 16 17
f 6 17 18
f 6 18 7
f 7 18 19
f 7 19 20
f 7 20 21
f 7 21 8
f 8 22 9
f 8 21 23
f 8 23 22
f 9 22 24
f 9 24 10
f 10 24 13
f 10 13 11
f 13 24 46
f 13 46 75
f 13 75 114
f 13 114 113
f 13 113 112
f 13 112 111
f 13 111 110
f 13 110 82
f 13 82 81
f 13 81 78
f 13 78 52
f 13 52 25
f 13 25 51
f 13 51 26
f 13 26 15
f 13 15 14
f 15 26 27
f 15 27 16
f 16 27 28
f 16 28 29
f 16 29 17
f 17 30 18
f 17 29 30
f 18 30 31
f 18 31 19
f 19 31 30
f 19 30 32
f 19 32 33
f 19 33 34
f 19 34 35
f 19 35 36
f 19 36 37
f 19 37 38
f 19 38 20
f 20 23 21
f 20 38 37
f 20 37 39
f 20 39 40
f 20 40 41
f 20 41 42
f 20 42 43
f 20 43 23
f 22 23 44
f 22 44 45
f 22 45 24
f 23 43 42
f 23 42 44
f 24 45 44
f 24 44 72
f 24 72 71
f 24 71 106
f 24 106 105
f 24 105 104
f 24 104 103
f 24 103 141
f 24 141 140
f 24 140 139
f 24 139 107
f 24 107 73
f 24 73 46
f 25 47 48
f 25 48 49
f 25 49 50
f 25 50 51
f 25 52 53
f 25 53 47
f 26 51 54
f 26 54 55
f 26 55 27
f 27 55 56
f 27 56 28
f 28 56 29
f 29 56 57
f 29 57 32
f 29 32 30
f 32 57 58
f 32 58 33
f 33 35 34
f 33 58 36
f 33 36 35
f 36 58 59
f 36 59 60
f 36 60 61
f 36 61 62
f 36 62 63
f 36 63 64
f 36 64 37
f 37 64 39
f 39 64 63
f 39 63 65
f 39 65 66
f 39 66 40
f 40 66 67
f 40 67 41
f 41 67 68
f 41 68 69
f 41 69 70
f 41 70 42
f 42 70 69
f 42 69 71
f 42 71 72
f 42 72 44
f 46 73 74
f 46 74 75
f 47 53 48
f 48 53 49
f 49 53 76
f 49 76 50
f 50 76 51
f 51 76 77
f 51 77 54
f 52 78 53
f 53 79 74
f 53 74 109
f 53 109 108
f 53 108 147
f 53 147 173
f 53 173 193
f 53 193 177
f 53 177 152
f 53 152 117
f 53 117 80
f 53 80 76
f 53 78 81
f 53 81 82
f 53 82 79
f 54 77 83
f 54 83 55
f 55 83 84
f 55 84 85
f 55 85 86
f 55 86 56
f 56 86 57
f 57 86 87
f 57 87 88
f 57 88 58
f 58 89 59
f 58 88 90
f 58 90 91
f 58 91 89
f 59 89 60
f 60 89 91
f 60 91 61
f 61 91 62
f 62 91 92
f 62 92 93
f 62 93 94
f 62 94 95
f 62 95 96
f 62 96 63
f 63 96 97
f 63 97 66
f 63 66 65
f 66 97 96
f 66 96 98
f 66 98 99
f 66 99 100
f 66 100 101
f 66 101 102
f 66 102 67
f 67 102 68
f 68 102 69
f 69 103 104
f 69 104 105
f 69 105 106
f 69 106 71
f 69 102 103
f 73 107 108
f 73 108 109
f 73 109 74
f 74 79 110
f 74 110 111
f 74 111 112
f 74 112 113
f 74 113 114
f 74 114 75
f 76 80 115
f 76 115 77
f 77 115 116
f 77 116 83
f 79 82 110
f 80 117 118
f 80 118 115
f 83 116 119
f 83 119 120
f 83 120 121
f 83 121 84
f 84 122 85
f 84 121 123
f 84 123 122
f 85 122 124
f 85 124 125
f 85 125 126
f 85 126 127
f 85 127 128
f 85 128 129
f 85 129 87
f 85 87 86
f 87 129 88
f 88 129 128
f 88 128 90
f 90 128 91
f 91 128 130
f 91 130 131
f 91 131 92
f 92 131 94
f 92 94 93
f 94 131 95
f 95 131 132
f 95 132 98
f 95 98 96
f 98 132 164
f 98 164 133
f 98 133 99
f 99 133 134
f 99 134 135
f 99 135 136
f 99 136 100
f 100 136 101
f 101 136 137
f 101 137 138
f 101 138 107
f 101 107 139
f 101 139 102
f 102 139 140
f 102 140 141
f 102 141 103
f 107 138 142
f 107 142 143
f 107 143 144
f 107 144 145
f 107 145 108
f 108 146 147
f 108 145 148
f 108 148 146
f 115 149 116
f 115 118 149
f 116 149 150
f 116 150 151
f 116 151 119
f 117 152 153
f 117 153 154
f 117 154 118
f 118 154 149
f 119 151 120
f 120 155 156
f 120 156 123
f 120 123 121
f 120 151 157
f 120 157 155
f 122 123 124
f 123 156 158
f 123 158 159
f 123 159 160
f 123 160 124
f 124 160 125
f 125 161 126
f 125 160 161
f 126 161 131
f 126 131 127
f 127 131 130
f 127 130 128
f 131 161 162
f 131 162 163
f 131 163 132
f 132 163 162
f 132 162 164
f 133 164 165
f 133 165 134
f 134 165 188
f 134 188 166
f 134 166 167
f 134 167 135
f 135 167 136
f 136 167 137
f 137 167 142
f 137 142 138
f 142 167 168
f 142 168 169
f 142 169 143
f 143 169 144
f 144 170 148
f 144 148 145
f 144 169 170
f 146 171 172
f 146 172 173
f 146 173 147
f 146 148 170
f 146 170 171
f 149 154 174
f 149 174 175
f 149 175 150
f 150 176 151
f 150 175 176
f 151 176 157
f 152 177 178
f 152 178 179
f 152 179 153
f 153 179 154
f 154 179 174
f 155 157 180
f 155 180 181
f 155 181 182
f 155 182 183
f 155 183 184
f 155 184 158
f 155 158 156
f 157 176 180
f 158 184 185
f 158 185 160
f 158 160 159
f 160 185 186
f 160 186 187
f 160 187 165
f 160 165 164
f 160 164 162
f 160 162 161
f 165 187 188
f 166 188 200
f 166 200 189
f 166 189 167
f 167 189 190
f 167 190 191
f 167 191 168
f 168 191 170
f 168 170 169
f 170 191 192
f 170 192 171
f 171 192 172
f 172 178 193
f 172 193 173
f 172 192 194
f 172 194 198
f 172 198 178
f 174 195 175
f 174 179 195
f 175 195 176
f 176 195 196
f 176 196 181
f 176 181 180
f 177 193 178
f 178 197 179
f 178 198 195
f 178 195 197
f 179 197 195
f 181 191 190
f 181 190 199
f 181 199 182
f 181 196 192
f 181 192 191
f 182 199 183
f 183 199 184
f 184 200 185
f 184 199 200
f 185 201 188
f 185 188 187
f 185 187 186
f 185 200 201
f 188 201 200
f 189 200 199
f 189 199 190
f 192 196 198
f 192 198 194
f 195 198 196
