v 0.049118 -0.092029 0.014461
v 0.093384 -0.073990 0.018000
v 0.094621 -0.073990 0.018532
v 0.096072 -0.073990 0.019846
v 0.096086 -0.073990 0.021878
v 0.095295 -0.073990 0.023078
v 0.094477 -0.073990 0.023621
v 0.094278 -0.073990 0.023699
v 0.094064 -0.073990 0.023760
v 0.091905 -0.073990 0.024193
v 0.091506 -0.073990 0.024188
v 0.089292 -0.073990 0.023966
v 0.087215 -0.073990 0.023490
v 0.049118 -0.076286 0.014461
v 0.049118 -0.072265 0.007721
v 0.094890 -0.072865 0.018119
v 0.049400 -0.072053 0.007721
v 0.049764 -0.071749 0.007721
v 0.050074 -0.071472 0.007721
v 0.055885 -0.066031 0.007721
v 0.057012 -0.064823 0.007721
v 0.098129 -0.068041 0.018036
v 0.099119 -0.068862 0.019526
v 0.098376 -0.070992 0.020184
v 0.098376 -0.070992 0.021514
v 0.097991 -0.070402 0.023256
v 0.095564 -0.073298 0.023397
v 0.096141 -0.071776 0.023631
v 0.096959 -0.069397 0.023911
v 0.094113 -0.071776 0.024199
v 0.096719 -0.066556 0.024345
v 0.094113 -0.069166 0.024306
v 0.091506 -0.071776 0.024168
v 0.115004 0.002188 0.024632
v 0.112391 0.002188 0.024052
v 0.049118 -0.075004 0.014117
v 0.110610 0.002188 0.023478
v 0.087291 0.002188 0.015585
v 0.086424 0.002188 0.015273
v 0.085991 0.002188 0.015109
v 0.084561 0.002188 0.014461
v 0.049118 -0.065902 0.007721
v 0.061922 -0.058957 0.007721
v 0.062885 -0.057666 0.007721
v 0.064068 -0.056043 0.007721
v 0.065038 -0.054650 0.007721
v 0.067355 -0.051146 0.007721
v 0.069226 -0.048148 0.007721
v 0.072004 -0.043067 0.007721
v 0.100790 -0.062960 0.018020
v 0.104524 -0.058717 0.019280
v 0.103864 -0.061327 0.019937
v 0.101092 -0.066556 0.020098
v 0.100700 -0.067949 0.020604
v 0.100700 -0.067949 0.020821
v 0.105672 -0.057103 0.023024
v 0.103444 -0.060387 0.023437
v 0.100714 -0.065376 0.023359
v 0.098431 -0.068668 0.023551
v 0.099311 -0.066372 0.023748
v 0.099339 -0.063937 0.024218
v 0.101945 -0.058717 0.024359
v 0.099339 -0.061327 0.024460
v 0.115004 -0.001298 0.024664
v 0.115850 0.002188 0.024447
v 0.049118 -0.074396 0.013905
v 0.095825 0.002188 0.014461
v 0.076680 -0.014348 0.007721
v 0.049118 -0.067073 0.009026
v 0.049118 -0.067589 0.009583
v 0.049118 -0.068041 0.010054
v 0.049118 -0.069489 0.011276
v 0.049118 -0.069886 0.011596
v 0.049118 -0.071066 0.012475
v 0.049118 -0.072274 0.013150
v 0.049118 -0.072606 0.013273
v 0.072774 -0.041554 0.007721
v 0.103403 -0.057823 0.018017
v 0.105947 -0.052446 0.018045
v 0.106491 -0.056107 0.019899
v 0.106085 -0.057869 0.020365
v 0.103403 -0.062914 0.020450
v 0.103403 -0.062914 0.021078
v 0.106085 -0.057869 0.021282
v 0.108251 -0.051745 0.022859
v 0.108616 -0.050011 0.023427
v 0.106092 -0.055360 0.023498
v 0.103912 -0.058717 0.023695
v 0.102014 -0.061290 0.023859
v 0.104710 -0.056181 0.023967
v 0.104558 -0.053507 0.024457
v 0.101945 -0.056107 0.024518
v 0.112391 -0.024797 0.024616
v 0.115004 -0.014357 0.024602
v 0.117569 -0.001298 0.024044
v 0.117549 0.001311 0.024058
v 0.117549 0.002188 0.024058
v 0.104558 -0.050888 0.024558
v 0.116421 0.002188 0.018053
v 0.081081 -0.014348 0.007721
v 0.074541 -0.037616 0.007721
v 0.108492 -0.047005 0.018080
v 0.108925 -0.050888 0.020096
v 0.108588 -0.052483 0.020511
v 0.108588 -0.052483 0.021120
v 0.108918 -0.050878 0.021994
v 0.111373 -0.045151 0.021493
v 0.111036 -0.044266 0.023233
v 0.107295 -0.050878 0.023904
v 0.106525 -0.053507 0.023732
v 0.111325 -0.042523 0.023496
v 0.107171 -0.048278 0.024342
v 0.109778 -0.040457 0.024407
v 0.107171 -0.045668 0.024500
v 0.112391 -0.027407 0.024554
v 0.115004 -0.016967 0.024526
v 0.117342 -0.009128 0.023967
v 0.117466 -0.006518 0.023995
v 0.117562 -0.003908 0.024022
v 0.112391 -0.030017 0.024485
v 0.112391 -0.032627 0.024410
v 0.118876 -0.001298 0.023228
v 0.117989 0.002188 0.023778
v 0.117720 0.002188 0.018672
v 0.116434 0.001311 0.018048
v 0.116441 -0.009128 0.018035
v 0.113773 -0.029261 0.018048
v 0.080902 -0.015649 0.007721
v 0.116448 -0.007487 0.018026
v 0.075889 -0.034241 0.007721
v 0.109276 -0.048038 0.019282
v 0.077457 -0.029989 0.007721
v 0.114241 -0.035237 0.019907
v 0.111717 -0.043067 0.019854
v 0.111373 -0.045151 0.020284
v 0.113952 -0.037367 0.021503
v 0.113656 -0.036445 0.023244
v 0.110018 -0.043261 0.023990
v 0.111641 -0.040457 0.023689
v 0.113876 -0.034711 0.023478
v 0.109785 -0.037838 0.024495
v 0.117074 -0.014357 0.023878
v 0.117212 -0.011748 0.023934
v 0.115004 -0.022187 0.024229
v 0.118869 -0.003908 0.023183
v 0.114096 -0.032627 0.023641
v 0.114695 -0.027407 0.023937
v 0.112632 -0.035449 0.023989
v 0.119371 -0.009128 0.021662
v 0.119371 0.002188 0.021897
v 0.119027 0.002188 0.022770
v 0.118855 0.002188 0.023204
v 0.119371 0.002188 0.019975
v 0.117734 0.001311 0.018675
v 0.117741 -0.009128 0.018703
v 0.117377 -0.011637 0.018607
v 0.116338 -0.010696 0.018078
v 0.078523 -0.026411 0.007721
v 0.078922 -0.024797 0.007721
v 0.080173 -0.019688 0.007721
v 0.080675 -0.016967 0.007721
v 0.119309 -0.011748 0.020023
v 0.117053 -0.022187 0.019670
v 0.116833 -0.024797 0.019916
v 0.114592 -0.032627 0.019572
v 0.113952 -0.037367 0.020299
v 0.116531 -0.027407 0.020310
v 0.116359 -0.028929 0.020602
v 0.116359 -0.028929 0.020887
v 0.114241 -0.035449 0.022224
v 0.116531 -0.027407 0.021363
v 0.116001 -0.027407 0.022669
v 0.116208 -0.025544 0.023133
v 0.112054 -0.038096 0.023859
v 0.116352 -0.023801 0.023347
v 0.116916 -0.016967 0.023790
v 0.118649 -0.009128 0.022967
v 0.118779 -0.006518 0.023068
v 0.115204 -0.024723 0.023944
v 0.116716 -0.019568 0.023647
v 0.119371 -0.009128 0.020007
v 0.119309 -0.011748 0.021481
v 0.119158 -0.013758 0.020287
v 0.119158 -0.013758 0.021156
v 0.116751 -0.024723 0.022158
v 0.118518 -0.011748 0.022785
f 1 2 3
f 1 3 4
f 1 4 5
f 1 5 6
f 1 6 7
f 1 7 8
f 1 8 9
f 1 9 10
f 1 10 11
f 1 11 12
f 1 12 13
f 1 13 14
f 1 14 36
f 1 36 66
f 1 66 76
f 1 76 75
f 1 75 74
f 1 74 73
f 1 73 72
f 1 72 71
f 1 71 70
f 1 70 69
f 1 69 42
f 1 42 15
f 1 15 2
f 2 16 3
f 2 15 17
f 2 17 18
f 2 18 19
f 2 19 20
f 2 20 21
f 2 21 16
f 3 16 22
f 3 22 4
f 4 22 23
f 4 23 24
f 4 24 5
f 5 24 25
f 5 25 26
f 5 26 6
f 6 26 27
f 6 27 7
f 7 27 28
f 7 28 8
f 8 28 29
f 8 29 9
f 9 29 30
f 9 30 10
f 10 30 31
f 10 31 32
f 10 32 11
f 11 32 33
f 11 33 12
f 12 33 34
f 12 34 35
f 12 35 13
f 13 35 14
f 14 35 37
f 14 37 38
f 14 38 39
f 14 39 40
f 14 40 41
f 14 41 36
f 15 42 68
f 15 68 100
f 15 100 128
f 15 128 161
f 15 161 160
f 15 160 159
f 15 159 158
f 15 158 132
f 15 132 130
f 15 130 101
f 15 101 77
f 15 77 49
f 15 49 48
f 15 48 47
f 15 47 46
f 15 46 45
f 15 45 44
f 15 44 43
f 15 43 21
f 15 21 20
f 15 20 19
f 15 19 18
f 15 18 17
f 16 21 43
f 16 43 44
f 16 44 22
f 22 44 45
f 22 45 46
f 22 46 47
f 22 47 48
f 22 48 49
f 22 49 50
f 22 50 51
f 22 51 52
f 22 52 53
f 22 53 23
f 23 53 54
f 23 54 24
f 24 54 55
f 24 55 25
f 25 55 26
f 26 28 27
f 26 55 56
f 26 56 57
f 26 57 58
f 26 58 59
f 26 59 28
f 28 59 29
f 29 59 60
f 29 60 61
f 29 61 30
f 30 61 31
f 31 61 62
f 31 62 63
f 31 63 32
f 32 63 64
f 32 64 34
f 32 34 33
f 34 64 65
f 34 65 97
f 34 97 123
f 34 123 152
f 34 152 151
f 34 151 150
f 34 150 153
f 34 153 124
f 34 124 99
f 34 99 67
f 34 67 41
f 34 41 40
f 34 40 39
f 34 39 38
f 34 38 37
f 34 37 35
f 36 41 66
f 41 67 100
f 41 100 68
f 41 68 42
f 41 42 69
f 41 69 70
f 41 70 71
f 41 71 72
f 41 72 73
f 41 73 74
f 41 74 75
f 41 75 76
f 41 76 66
f 49 77 78
f 49 78 50
f 50 78 51
f 51 78 79
f 51 79 80
f 51 80 81
f 51 81 52
f 52 81 82
f 52 82 53
f 53 82 54
f 54 82 83
f 54 83 55
f 55 83 56
f 56 83 84
f 56 84 85
f 56 85 86
f 56 86 87
f 56 87 57
f 57 87 88
f 57 88 58
f 58 88 59
f 59 88 60
f 60 88 89
f 60 89 61
f 61 89 90
f 61 90 62
f 62 90 91
f 62 91 63
f 63 91 92
f 63 92 64
f 64 93 94
f 64 94 95
f 64 95 96
f 64 96 97
f 64 97 65
f 64 92 98
f 64 98 93
f 67 99 100
f 77 101 79
f 77 79 78
f 79 102 80
f 79 101 102
f 80 102 103
f 80 103 104
f 80 104 81
f 81 84 83
f 81 83 82
f 81 104 105
f 81 105 84
f 84 105 85
f 85 105 106
f 85 106 107
f 85 107 108
f 85 108 86
f 86 109 110
f 86 110 87
f 86 108 111
f 86 111 109
f 87 110 90
f 87 90 88
f 88 90 89
f 90 110 109
f 90 109 91
f 91 109 112
f 91 112 113
f 91 113 114
f 91 114 98
f 91 98 92
f 93 114 115
f 93 115 94
f 93 98 114
f 94 116 117
f 94 117 118
f 94 118 119
f 94 119 95
f 94 115 120
f 94 120 121
f 94 121 116
f 95 122 96
f 95 119 122
f 96 122 97
f 97 122 123
f 99 124 125
f 99 125 100
f 100 126 127
f 100 127 128
f 100 125 129
f 100 129 126
f 101 130 102
f 102 131 103
f 102 130 132
f 102 132 127
f 102 127 133
f 102 133 134
f 102 134 135
f 102 135 131
f 103 131 135
f 103 135 104
f 104 135 107
f 104 107 105
f 105 107 106
f 107 135 166
f 107 166 136
f 107 136 137
f 107 137 108
f 108 137 111
f 109 111 138
f 109 138 112
f 111 139 138
f 111 137 140
f 111 140 139
f 112 138 113
f 113 138 121
f 113 121 114
f 114 121 141
f 114 141 115
f 115 141 120
f 116 142 143
f 116 143 117
f 116 121 144
f 116 144 142
f 117 143 145
f 117 145 118
f 118 145 119
f 119 145 122
f 120 141 121
f 121 146 147
f 121 147 144
f 121 138 148
f 121 148 146
f 122 145 149
f 122 149 150
f 122 150 151
f 122 151 152
f 122 152 123
f 124 153 154
f 124 154 125
f 125 154 129
f 126 129 155
f 126 155 156
f 126 156 157
f 126 157 127
f 127 132 158
f 127 158 159
f 127 159 160
f 127 160 161
f 127 161 128
f 127 157 156
f 127 156 162
f 127 162 163
f 127 163 164
f 127 164 165
f 127 165 133
f 129 154 155
f 133 166 134
f 133 165 164
f 133 164 167
f 133 167 168
f 133 168 166
f 134 166 135
f 136 166 168
f 136 168 169
f 136 169 170
f 136 170 137
f 137 170 169
f 137 169 171
f 137 171 172
f 137 172 173
f 137 173 140
f 138 139 174
f 138 174 148
f 139 140 174
f 140 148 174
f 140 173 175
f 140 175 146
f 140 146 148
f 142 144 176
f 142 176 177
f 142 177 178
f 142 178 145
f 142 145 143
f 144 147 179
f 144 179 176
f 145 178 149
f 146 175 147
f 147 175 180
f 147 180 179
f 149 181 153
f 149 153 150
f 149 178 182
f 149 182 162
f 149 162 181
f 153 181 155
f 153 155 154
f 155 162 156
f 155 181 162
f 162 182 184
f 162 184 183
f 162 183 164
f 162 164 163
f 164 183 167
f 167 183 168
f 168 183 184
f 168 184 169
f 169 184 171
f 171 185 173
f 171 173 172
f 171 184 185
f 173 185 184
f 173 184 182
f 173 182 175
f 175 182 186
f 175 186 180
f 176 186 177
f 176 179 180
f 176 180 186
f 177 186 182
f 177 182 178
