v -0.068914 0.079084 0.014462
v -0.068914 0.079741 0.014650
v -0.068914 0.093532 0.014462
v -0.067742 0.069752 0.007721
v -0.067742 0.070101 0.008132
v -0.067742 0.070824 0.008956
v -0.067742 0.071095 0.009260
v -0.067742 0.072553 0.010675
v -0.067742 0.072824 0.010882
v -0.067742 0.074403 0.012072
v -0.067742 0.075620 0.012920
v -0.067742 0.076855 0.013442
v -0.067742 0.076915 0.013467
v -0.010196 0.098774 0.014462
v -0.010196 0.100575 0.015072
v -0.010196 0.121560 0.022050
v -0.010196 0.124048 0.022859
v -0.010196 0.125494 0.023276
v -0.068914 0.109414 0.023038
v -0.067742 0.075439 0.007721
v -0.068914 0.115752 0.017695
v -0.055677 0.069583 0.001068
v -0.011886 0.082862 0.001068
v -0.011633 0.091526 0.010107
v -0.011633 0.092170 0.010746
v -0.011633 0.092827 0.011377
v -0.011633 0.093574 0.012028
v -0.011633 0.094345 0.012681
v -0.011633 0.095647 0.013300
v -0.010196 0.110884 0.014462
v -0.010196 0.126783 0.023456
v -0.068914 0.111233 0.023540
v -0.068914 0.110371 0.023307
v -0.055677 0.077090 0.001070
v -0.055677 0.075192 0.001068
v -0.068914 0.117041 0.018857
v -0.067747 0.117300 0.018404
v -0.064701 0.118113 0.017791
v -0.062529 0.118608 0.017555
v -0.051970 0.079054 0.001068
v -0.053206 0.078409 0.001068
v -0.054942 0.077500 0.001068
v -0.055672 0.077090 0.001068
v -0.011886 0.089104 0.001068
v -0.010196 0.129476 0.017540
v -0.010196 0.128308 0.023456
v -0.010323 0.126795 0.023458
v -0.067747 0.113583 0.023756
v -0.068914 0.112342 0.023671
v -0.068914 0.117547 0.019761
v -0.062529 0.119909 0.018566
v -0.059454 0.120674 0.017820
v -0.057310 0.121132 0.017560
v -0.048125 0.080934 0.001068
v -0.011967 0.089104 0.001068
v -0.018157 0.129247 0.017298
v -0.018157 0.130706 0.017957
v -0.010196 0.129567 0.017586
v -0.010196 0.128374 0.023420
v -0.010323 0.128314 0.023458
v -0.020766 0.126639 0.023540
v -0.062529 0.116198 0.023736
v -0.067747 0.115493 0.023547
v -0.068914 0.114691 0.023565
v -0.068914 0.113625 0.023680
v -0.068914 0.117728 0.020105
v -0.063943 0.120156 0.020451
v -0.057505 0.122469 0.019179
v -0.055781 0.122650 0.018170
v -0.048079 0.125319 0.018113
v -0.049476 0.123777 0.017600
v -0.040854 0.083910 0.001068
v -0.041642 0.083639 0.001068
v -0.042481 0.083308 0.001068
v -0.044464 0.082512 0.001068
v -0.046493 0.081675 0.001068
v -0.012932 0.089098 0.001068
v -0.020766 0.130712 0.017946
v -0.014547 0.089079 0.001068
v -0.015542 0.089049 0.001068
v -0.011104 0.130513 0.018148
v -0.018157 0.131133 0.019390
v -0.010196 0.130934 0.019172
v -0.010196 0.130904 0.019081
v -0.010196 0.129615 0.022679
v -0.010323 0.129615 0.022679
v -0.012932 0.129573 0.022692
v -0.023376 0.128199 0.023432
v -0.036434 0.125994 0.023580
v -0.039044 0.124030 0.023627
v -0.054695 0.120861 0.023598
v -0.059729 0.118855 0.023578
v -0.068914 0.115246 0.023460
v -0.062529 0.117993 0.023529
v -0.068914 0.117728 0.021066
v -0.063943 0.120156 0.020795
v -0.056769 0.123102 0.019912
v -0.049476 0.125078 0.018637
v -0.040165 0.127892 0.018257
v -0.038434 0.128073 0.017986
v -0.041642 0.126295 0.017637
v -0.038549 0.084639 0.001068
v -0.025985 0.129127 0.017562
v -0.022720 0.130627 0.018019
v -0.018151 0.088869 0.001068
v -0.020760 0.088579 0.001068
v -0.020766 0.131001 0.019390
v -0.027497 0.130591 0.020755
v -0.018157 0.130983 0.021286
v -0.015547 0.131031 0.021384
v -0.010196 0.131013 0.021275
v -0.010196 0.131007 0.021373
v -0.015547 0.129488 0.022690
v -0.025985 0.128127 0.023396
v -0.028606 0.128024 0.023349
v -0.030072 0.127976 0.023320
v -0.039044 0.125807 0.023540
v -0.046861 0.123421 0.023556
v -0.049476 0.123102 0.023480
v -0.057310 0.120439 0.023467
v -0.064161 0.117637 0.023376
v -0.065897 0.117216 0.023138
v -0.068914 0.115679 0.023178
v -0.058729 0.120162 0.023334
v -0.068914 0.117162 0.021706
v -0.067747 0.117993 0.021411
v -0.056769 0.123102 0.021211
v -0.050872 0.125367 0.020533
v -0.040711 0.128049 0.019996
v -0.039205 0.128253 0.019232
v -0.027497 0.130591 0.020356
v -0.025985 0.130440 0.018630
v -0.039205 0.126868 0.017586
v -0.024462 0.130513 0.018279
v -0.023376 0.088200 0.001068
v -0.023939 0.088103 0.001068
v -0.026060 0.087718 0.001068
v -0.028301 0.087296 0.001068
v -0.030733 0.086838 0.001068
v -0.031210 0.086742 0.001068
v -0.032727 0.086392 0.001068
v -0.033813 0.086097 0.001068
v -0.040711 0.128049 0.020880
v -0.039044 0.128235 0.021195
v -0.036434 0.128476 0.021533
v -0.033819 0.128735 0.021766
v -0.031049 0.128796 0.022212
v -0.036434 0.127301 0.022839
v -0.043015 0.125355 0.023314
v -0.041642 0.125518 0.023403
v -0.051131 0.122843 0.023369
v -0.067747 0.116806 0.022714
v -0.060477 0.119764 0.023056
v -0.068914 0.116511 0.022414
v -0.054695 0.122168 0.022947
v -0.054695 0.123439 0.021639
v -0.050872 0.125367 0.020762
v -0.049476 0.125536 0.021080
v -0.046861 0.125861 0.021559
v -0.039044 0.127109 0.022499
v -0.046861 0.124723 0.022865
v -0.049476 0.124403 0.022386
f 1 2 19
f 1 19 33
f 1 33 32
f 1 32 49
f 1 49 65
f 1 65 64
f 1 64 93
f 1 93 123
f 1 123 154
f 1 154 125
f 1 125 95
f 1 95 66
f 1 66 50
f 1 50 36
f 1 36 21
f 1 21 3
f 1 3 20
f 1 20 4
f 1 4 5
f 1 5 6
f 1 6 7
f 1 7 8
f 1 8 9
f 1 9 10
f 1 10 11
f 1 11 12
f 1 12 13
f 1 13 14
f 1 14 15
f 1 15 16
f 1 16 17
f 1 17 18
f 1 18 2
f 2 18 19
f 3 21 20
f 4 22 23
f 4 23 5
f 4 20 35
f 4 35 22
f 5 23 6
f 6 23 7
f 7 23 24
f 7 24 25
f 7 25 8
f 8 25 26
f 8 26 27
f 8 27 28
f 8 28 9
f 9 28 10
f 10 28 11
f 11 28 29
f 11 29 14
f 11 14 12
f 12 14 13
f 14 23 44
f 14 44 30
f 14 30 45
f 14 45 58
f 14 58 84
f 14 84 83
f 14 83 111
f 14 111 112
f 14 112 85
f 14 85 59
f 14 59 46
f 14 46 31
f 14 31 18
f 14 18 17
f 14 17 16
f 14 16 15
f 14 29 28
f 14 28 27
f 14 27 26
f 14 26 25
f 14 25 24
f 14 24 23
f 18 31 32
f 18 32 33
f 18 33 19
f 20 34 35
f 20 21 34
f 21 36 37
f 21 37 38
f 21 38 39
f 21 39 40
f 21 40 41
f 21 41 42
f 21 42 43
f 21 43 34
f 22 35 43
f 22 43 42
f 22 42 41
f 22 41 40
f 22 40 54
f 22 54 76
f 22 76 75
f 22 75 74
f 22 74 73
f 22 73 72
f 22 72 102
f 22 102 142
f 22 142 141
f 22 141 140
f 22 140 139
f 22 139 138
f 22 138 137
f 22 137 136
f 22 136 135
f 22 135 106
f 22 106 105
f 22 105 80
f 22 80 79
f 22 79 77
f 22 77 55
f 22 55 44
f 22 44 23
f 30 44 45
f 31 46 60
f 31 60 47
f 31 47 48
f 31 48 49
f 31 49 32
f 34 43 35
f 36 50 51
f 36 51 37
f 37 51 52
f 37 52 38
f 38 52 53
f 38 53 39
f 39 53 54
f 39 54 40
f 44 55 56
f 44 56 45
f 45 56 57
f 45 57 58
f 46 59 60
f 47 61 48
f 47 60 61
f 48 62 63
f 48 63 64
f 48 64 65
f 48 65 49
f 48 61 62
f 50 66 51
f 51 67 68
f 51 68 69
f 51 69 52
f 51 66 67
f 52 69 53
f 53 69 70
f 53 70 71
f 53 71 72
f 53 72 73
f 53 73 74
f 53 74 75
f 53 75 76
f 53 76 54
f 55 77 56
f 56 78 57
f 56 77 79
f 56 79 80
f 56 80 78
f 57 81 58
f 57 78 82
f 57 82 83
f 57 83 84
f 57 84 81
f 58 81 84
f 59 85 60
f 60 85 86
f 60 86 87
f 60 87 88
f 60 88 89
f 60 89 61
f 61 89 90
f 61 90 62
f 62 90 89
f 62 89 91
f 62 91 92
f 62 92 63
f 63 93 64
f 63 92 94
f 63 94 93
f 66 95 96
f 66 96 67
f 67 96 127
f 67 127 97
f 67 97 68
f 68 97 69
f 69 97 98
f 69 98 70
f 70 98 99
f 70 99 100
f 70 100 71
f 71 100 101
f 71 101 102
f 71 102 72
f 78 103 104
f 78 104 82
f 78 80 105
f 78 105 106
f 78 106 103
f 82 107 108
f 82 108 109
f 82 109 110
f 82 110 111
f 82 111 83
f 82 104 107
f 85 112 110
f 85 110 86
f 86 110 87
f 87 113 88
f 87 110 113
f 88 114 89
f 88 113 114
f 89 114 115
f 89 115 116
f 89 116 117
f 89 117 91
f 91 118 119
f 91 119 120
f 91 120 94
f 91 94 92
f 91 117 118
f 93 94 121
f 93 121 122
f 93 122 123
f 94 120 124
f 94 124 121
f 95 125 126
f 95 126 127
f 95 127 96
f 97 127 157
f 97 157 128
f 97 128 98
f 98 128 99
f 99 129 130
f 99 130 131
f 99 131 132
f 99 132 100
f 99 128 129
f 100 133 101
f 100 132 134
f 100 134 104
f 100 104 103
f 100 103 135
f 100 135 136
f 100 136 137
f 100 137 138
f 100 138 139
f 100 139 140
f 100 140 141
f 100 141 133
f 101 133 142
f 101 142 102
f 103 106 135
f 104 134 132
f 104 132 131
f 104 131 107
f 107 131 108
f 108 131 129
f 108 129 143
f 108 143 144
f 108 144 145
f 108 145 146
f 108 146 147
f 108 147 116
f 108 116 109
f 109 116 110
f 110 112 111
f 110 116 114
f 110 114 113
f 114 116 115
f 116 148 149
f 116 149 150
f 116 150 117
f 116 147 146
f 116 146 148
f 117 150 119
f 117 119 118
f 119 151 120
f 119 150 149
f 119 149 151
f 120 151 124
f 121 124 122
f 122 152 123
f 122 124 153
f 122 153 152
f 123 152 154
f 124 151 155
f 124 155 153
f 125 154 152
f 125 152 126
f 126 153 127
f 126 152 153
f 127 153 155
f 127 155 156
f 127 156 157
f 128 157 143
f 128 143 129
f 129 131 130
f 133 141 142
f 143 157 158
f 143 158 159
f 143 159 144
f 144 159 160
f 144 160 145
f 145 160 148
f 145 148 146
f 148 160 149
f 149 160 159
f 149 159 161
f 149 161 151
f 151 161 155
f 155 161 162
f 155 162 156
f 156 162 158
f 156 158 157
f 158 162 159
f 159 162 161
