v -0.137587 0.033196 0.019243
v -0.137587 0.033196 0.019515
v -0.137334 0.035275 0.019705
v -0.136849 0.033820 0.018137
v -0.137328 0.033196 0.018775
v -0.117611 0.025386 0.014461
v -0.137478 0.033196 0.022009
v -0.137334 0.035275 0.021512
v -0.137116 0.037020 0.020194
v -0.136623 0.035275 0.018401
v -0.101969 0.025386 0.007721
v -0.136227 0.033196 0.017972
v -0.134224 0.041613 0.018145
v -0.134545 0.039877 0.017979
v -0.134887 0.037888 0.017853
v -0.135311 0.035275 0.017798
v -0.105545 0.025386 0.014461
v -0.133021 0.033196 0.024043
v -0.135099 0.033196 0.023798
v -0.135639 0.033196 0.023700
v -0.136787 0.033196 0.023176
v -0.136828 0.033196 0.023115
v -0.136787 0.033250 0.023173
v -0.136466 0.035275 0.022817
v -0.137116 0.037020 0.021047
v -0.134429 0.044713 0.020397
v -0.134702 0.043113 0.019863
v -0.101716 0.026452 0.007721
v -0.097300 0.025386 0.007721
v -0.132057 0.050363 0.020076
v -0.131373 0.048881 0.018338
v -0.128939 0.054477 0.018177
v -0.131756 0.047136 0.018066
v -0.132050 0.045717 0.017945
v -0.097690 0.037734 0.007721
v -0.100657 0.030132 0.007721
v -0.130819 0.033196 0.023565
v -0.132467 0.033196 0.023955
v -0.104307 0.025386 0.014048
v -0.068928 0.111221 0.023540
v -0.133021 0.035275 0.024074
v -0.068928 0.112333 0.023673
v -0.080817 0.105752 0.023894
v -0.133021 0.037888 0.024031
v -0.135160 0.035275 0.023690
v -0.134750 0.037888 0.023553
v -0.134490 0.039795 0.023420
v -0.134224 0.041531 0.023207
v -0.133923 0.043113 0.022776
v -0.134702 0.043113 0.021471
v -0.134429 0.044713 0.020958
v -0.098052 0.025386 0.008760
v -0.067753 0.069745 0.007721
v -0.067753 0.070098 0.008132
v -0.067753 0.071083 0.009258
v -0.067753 0.072548 0.010674
v -0.132057 0.050363 0.021335
v -0.129561 0.055625 0.019918
v -0.129254 0.052732 0.018021
v -0.126881 0.060859 0.020034
v -0.124229 0.065894 0.020097
v -0.123559 0.064755 0.018359
v -0.121399 0.068163 0.018021
v -0.126765 0.057921 0.017956
v -0.127223 0.056167 0.017843
v -0.095160 0.043059 0.007721
v -0.103842 0.025386 0.013848
v -0.067753 0.079644 0.014393
v -0.067753 0.079879 0.014461
v -0.068928 0.110372 0.023310
v -0.130416 0.043113 0.024098
v -0.119970 0.063996 0.024190
v -0.125193 0.056167 0.024164
v -0.068928 0.113626 0.023679
v -0.086047 0.103149 0.023947
v -0.088652 0.100527 0.023973
v -0.112135 0.077032 0.024182
v -0.133219 0.040600 0.023779
v -0.127804 0.050933 0.024110
v -0.130416 0.045717 0.024037
v -0.132624 0.043113 0.023737
v -0.132145 0.045717 0.023557
v -0.131858 0.047425 0.023405
v -0.131482 0.049161 0.023076
v -0.132412 0.048311 0.022122
v -0.098325 0.025386 0.009128
v -0.067753 0.075423 0.007721
v -0.067753 0.072810 0.010880
v -0.099467 0.025386 0.010647
v -0.126519 0.060127 0.023324
v -0.129561 0.055625 0.021417
v -0.124229 0.065894 0.021327
v -0.121891 0.069103 0.019384
v -0.120790 0.069899 0.018511
v -0.121467 0.070821 0.020250
v -0.121775 0.066608 0.017867
v -0.113605 0.081127 0.017972
v -0.092343 0.048121 0.007721
v -0.102434 0.025386 0.013211
v -0.067753 0.076833 0.013444
v -0.067753 0.094353 0.014461
v -0.119970 0.066030 0.024147
v -0.119970 0.066608 0.024134
v -0.125193 0.058771 0.023940
v -0.068928 0.114684 0.023566
v -0.088522 0.103058 0.023619
v -0.091263 0.100572 0.023689
v -0.096493 0.095311 0.023866
v -0.099098 0.092698 0.023945
v -0.101703 0.090095 0.023982
v -0.075574 0.111050 0.023615
v -0.083627 0.105960 0.023719
v -0.086047 0.105128 0.023558
v -0.109770 0.082492 0.023847
v -0.114747 0.074437 0.024140
v -0.129794 0.050933 0.023679
v -0.130532 0.048311 0.023765
v -0.129384 0.052840 0.023495
v -0.070364 0.073388 0.007721
v -0.085254 0.107497 0.017851
v -0.083237 0.108365 0.017767
v -0.072921 0.113680 0.017630
v -0.068928 0.115750 0.017696
v -0.067753 0.074383 0.012070
v -0.099754 0.025386 0.010969
v -0.126813 0.060696 0.022001
v -0.126765 0.058771 0.023478
v -0.125138 0.061148 0.023599
v -0.121911 0.066608 0.023666
v -0.121467 0.068245 0.023434
v -0.120872 0.069980 0.022839
v -0.121932 0.069158 0.021982
v -0.121467 0.070821 0.021098
v -0.116182 0.078523 0.020397
v -0.113858 0.081461 0.019389
v -0.108956 0.086976 0.019945
v -0.106406 0.089561 0.019863
v -0.098537 0.097399 0.019389
v -0.097990 0.096848 0.017972
v -0.077618 0.066744 0.007721
v -0.078315 0.066012 0.007721
v -0.080133 0.064095 0.007721
v -0.082629 0.061437 0.007721
v -0.083463 0.060506 0.007721
v -0.085001 0.058771 0.007721
v -0.087141 0.055995 0.007721
v -0.088153 0.054468 0.007721
v -0.090402 0.051068 0.007721
v -0.102154 0.025386 0.013036
v -0.067753 0.076760 0.013413
v -0.068928 0.117043 0.018859
v -0.068928 0.117540 0.019760
v -0.068928 0.117730 0.020107
v -0.068928 0.117730 0.021067
v -0.068928 0.117152 0.021707
v -0.068928 0.116510 0.022414
v -0.068928 0.115678 0.023179
v -0.068928 0.115244 0.023458
v -0.119997 0.069158 0.023736
v -0.120585 0.066039 0.024069
v -0.122711 0.064059 0.023847
v -0.127278 0.056167 0.023728
v -0.087558 0.104586 0.023394
v -0.093246 0.099722 0.023503
v -0.096493 0.097164 0.023495
v -0.098852 0.095121 0.023516
v -0.101511 0.092499 0.023565
v -0.104109 0.089878 0.023563
v -0.072989 0.112849 0.023516
v -0.074692 0.112460 0.023395
v -0.082882 0.107461 0.023524
v -0.109065 0.084417 0.023621
v -0.112251 0.079744 0.023792
v -0.114726 0.076941 0.023708
v -0.073037 0.071011 0.007721
v -0.089787 0.104306 0.018324
v -0.086088 0.107687 0.019646
v -0.083873 0.109160 0.019389
v -0.082239 0.109712 0.018054
v -0.077132 0.112442 0.017991
v -0.075601 0.112840 0.017816
v -0.070378 0.115452 0.017817
v -0.067753 0.075612 0.012921
v -0.101128 0.025386 0.012273
v -0.116230 0.076010 0.023420
v -0.115587 0.077755 0.022726
v -0.116702 0.076941 0.021914
v -0.116182 0.078523 0.020985
v -0.113837 0.081452 0.021383
v -0.108956 0.086976 0.021558
v -0.095994 0.099921 0.021479
v -0.097115 0.098710 0.019389
v -0.075738 0.068552 0.007721
v -0.072005 0.115027 0.018009
v -0.073748 0.114611 0.018628
v -0.070282 0.116736 0.019383
v -0.069345 0.117640 0.020248
v -0.069345 0.117640 0.020943
v -0.070309 0.116166 0.022059
v -0.071260 0.114602 0.023175
v -0.069516 0.115109 0.023415
v -0.116695 0.074437 0.023632
v -0.084632 0.106963 0.023250
v -0.092131 0.101467 0.023044
v -0.094989 0.099053 0.023220
v -0.097819 0.096640 0.023324
v -0.100520 0.094127 0.023378
v -0.103125 0.091505 0.023376
v -0.105702 0.088874 0.023362
v -0.076421 0.111963 0.023128
v -0.079614 0.109739 0.023342
v -0.110802 0.083531 0.023284
v -0.111458 0.081787 0.023547
v -0.113851 0.078930 0.023505
v -0.093198 0.102235 0.019937
v -0.087353 0.107063 0.020687
v -0.074432 0.114973 0.020368
v -0.113195 0.080666 0.023125
v -0.111342 0.084255 0.021543
v -0.106269 0.089444 0.022001
v -0.101067 0.094687 0.022001
v -0.098407 0.097254 0.022001
v -0.094100 0.100699 0.022260
v -0.093198 0.102235 0.021303
v -0.074432 0.114973 0.020851
v -0.072989 0.115389 0.021366
v -0.077665 0.112731 0.021387
v -0.082601 0.109929 0.021119
v -0.086047 0.107524 0.021308
v -0.087353 0.107063 0.020698
f 1 2 8
f 1 8 3
f 1 3 4
f 1 4 5
f 1 5 6
f 1 6 2
f 2 6 7
f 2 7 8
f 3 8 25
f 3 25 9
f 3 9 10
f 3 10 4
f 4 11 12
f 4 12 5
f 4 10 13
f 4 13 14
f 4 14 15
f 4 15 16
f 4 16 11
f 5 12 6
f 6 11 29
f 6 29 52
f 6 52 86
f 6 86 89
f 6 89 125
f 6 125 184
f 6 184 149
f 6 149 99
f 6 99 67
f 6 67 39
f 6 39 17
f 6 17 18
f 6 18 19
f 6 19 20
f 6 20 21
f 6 21 22
f 6 22 7
f 6 12 11
f 7 22 23
f 7 23 8
f 8 23 24
f 8 24 25
f 9 25 51
f 9 51 26
f 9 26 27
f 9 27 13
f 9 13 10
f 11 16 15
f 11 15 28
f 11 28 36
f 11 36 35
f 11 35 66
f 11 66 98
f 11 98 148
f 11 148 147
f 11 147 146
f 11 146 145
f 11 145 144
f 11 144 143
f 11 143 142
f 11 142 141
f 11 141 140
f 11 140 193
f 11 193 175
f 11 175 119
f 11 119 87
f 11 87 53
f 11 53 29
f 13 27 26
f 13 26 30
f 13 30 31
f 13 31 32
f 13 32 33
f 13 33 14
f 14 33 34
f 14 34 35
f 14 35 15
f 15 35 36
f 15 36 28
f 17 37 38
f 17 38 18
f 17 39 40
f 17 40 37
f 18 41 19
f 18 38 40
f 18 40 42
f 18 42 43
f 18 43 41
f 19 41 44
f 19 44 20
f 20 44 45
f 20 45 23
f 20 23 21
f 21 23 22
f 23 45 46
f 23 46 47
f 23 47 48
f 23 48 24
f 24 48 25
f 25 48 49
f 25 49 50
f 25 50 51
f 26 51 57
f 26 57 30
f 29 53 54
f 29 54 55
f 29 55 56
f 29 56 52
f 30 57 91
f 30 91 58
f 30 58 32
f 30 32 31
f 32 59 34
f 32 34 33
f 32 58 60
f 32 60 61
f 32 61 62
f 32 62 63
f 32 63 64
f 32 64 65
f 32 65 59
f 34 59 65
f 34 65 35
f 35 65 66
f 37 40 38
f 39 67 68
f 39 68 69
f 39 69 70
f 39 70 40
f 40 70 69
f 40 69 42
f 41 71 44
f 41 43 72
f 41 72 73
f 41 73 71
f 42 69 74
f 42 74 43
f 43 75 76
f 43 76 77
f 43 77 72
f 43 74 75
f 44 78 45
f 44 71 79
f 44 79 80
f 44 80 81
f 44 81 78
f 45 78 81
f 45 81 46
f 46 81 47
f 47 81 82
f 47 82 83
f 47 83 48
f 48 83 84
f 48 84 49
f 49 51 50
f 49 84 85
f 49 85 51
f 51 85 57
f 52 56 86
f 53 87 101
f 53 101 69
f 53 69 68
f 53 68 100
f 53 100 150
f 53 150 183
f 53 183 124
f 53 124 88
f 53 88 56
f 53 56 55
f 53 55 54
f 56 88 89
f 56 89 86
f 57 85 84
f 57 84 90
f 57 90 91
f 58 91 60
f 60 92 61
f 60 91 92
f 61 93 94
f 61 94 63
f 61 63 62
f 61 92 133
f 61 133 95
f 61 95 93
f 63 96 64
f 63 94 97
f 63 97 96
f 64 96 66
f 64 66 65
f 66 96 98
f 67 99 68
f 68 99 100
f 69 101 74
f 71 73 79
f 72 102 73
f 72 77 102
f 73 102 103
f 73 103 104
f 73 104 79
f 74 101 105
f 74 105 75
f 75 106 107
f 75 107 108
f 75 108 109
f 75 109 110
f 75 110 76
f 75 105 111
f 75 111 112
f 75 112 113
f 75 113 106
f 76 110 77
f 77 110 114
f 77 114 115
f 77 115 103
f 77 103 102
f 79 104 80
f 80 104 116
f 80 116 117
f 80 117 81
f 81 117 116
f 81 116 82
f 82 116 83
f 83 116 118
f 83 118 90
f 83 90 84
f 87 119 120
f 87 120 121
f 87 121 122
f 87 122 123
f 87 123 101
f 88 124 89
f 89 124 125
f 90 126 91
f 90 118 127
f 90 127 128
f 90 128 129
f 90 129 130
f 90 130 131
f 90 131 132
f 90 132 133
f 90 133 92
f 90 92 126
f 91 126 92
f 93 95 94
f 94 95 97
f 95 133 188
f 95 188 134
f 95 134 135
f 95 135 97
f 96 97 98
f 97 135 136
f 97 136 137
f 97 137 138
f 97 138 139
f 97 139 140
f 97 140 141
f 97 141 142
f 97 142 143
f 97 143 144
f 97 144 145
f 97 145 146
f 97 146 147
f 97 147 148
f 97 148 98
f 99 149 150
f 99 150 100
f 101 123 151
f 101 151 152
f 101 152 153
f 101 153 154
f 101 154 155
f 101 155 156
f 101 156 157
f 101 157 158
f 101 158 105
f 103 159 129
f 103 129 160
f 103 160 104
f 103 115 159
f 104 160 161
f 104 161 128
f 104 128 162
f 104 162 116
f 105 158 111
f 106 113 163
f 106 163 164
f 106 164 165
f 106 165 107
f 107 165 166
f 107 166 108
f 108 166 109
f 109 167 110
f 109 166 167
f 110 167 168
f 110 168 114
f 111 158 169
f 111 169 170
f 111 170 171
f 111 171 112
f 112 171 113
f 113 171 163
f 114 168 172
f 114 172 173
f 114 173 115
f 115 173 174
f 115 174 159
f 116 162 127
f 116 127 118
f 119 175 139
f 119 139 120
f 120 139 176
f 120 176 177
f 120 177 178
f 120 178 179
f 120 179 180
f 120 180 181
f 120 181 121
f 121 181 122
f 122 181 182
f 122 182 123
f 123 182 151
f 124 183 125
f 125 183 184
f 127 162 128
f 128 161 129
f 129 159 130
f 129 161 160
f 130 159 185
f 130 185 131
f 131 185 186
f 131 186 187
f 131 187 133
f 131 133 132
f 133 187 188
f 134 188 135
f 135 188 189
f 135 189 190
f 135 190 136
f 136 190 137
f 137 190 191
f 137 191 138
f 138 191 192
f 138 192 139
f 139 192 176
f 139 175 193
f 139 193 140
f 149 184 183
f 149 183 150
f 151 182 194
f 151 194 195
f 151 195 196
f 151 196 197
f 151 197 152
f 152 197 153
f 153 197 198
f 153 198 154
f 154 198 199
f 154 199 155
f 155 199 156
f 156 199 200
f 156 200 157
f 157 201 158
f 157 200 201
f 158 201 170
f 158 170 169
f 159 174 202
f 159 202 185
f 163 171 203
f 163 203 204
f 163 204 205
f 163 205 206
f 163 206 164
f 164 206 165
f 165 206 166
f 166 206 207
f 166 207 167
f 167 208 168
f 167 207 208
f 168 208 209
f 168 209 172
f 170 201 200
f 170 200 210
f 170 210 211
f 170 211 171
f 171 211 203
f 172 212 213
f 172 213 173
f 172 209 212
f 173 214 174
f 173 213 214
f 174 214 185
f 174 185 202
f 176 215 177
f 176 192 215
f 177 215 216
f 177 216 178
f 178 217 179
f 178 216 217
f 179 217 195
f 179 195 180
f 180 195 194
f 180 194 182
f 180 182 181
f 185 214 212
f 185 212 218
f 185 218 186
f 186 218 189
f 186 189 187
f 187 189 188
f 189 218 212
f 189 212 219
f 189 219 190
f 190 209 220
f 190 220 221
f 190 221 191
f 190 219 212
f 190 212 209
f 191 221 222
f 191 222 207
f 191 207 206
f 191 206 205
f 191 205 223
f 191 223 224
f 191 224 215
f 191 215 192
f 195 217 197
f 195 197 196
f 197 217 225
f 197 225 198
f 198 225 226
f 198 226 199
f 199 226 210
f 199 210 200
f 203 211 210
f 203 210 227
f 203 227 228
f 203 228 229
f 203 229 230
f 203 230 224
f 203 224 223
f 203 223 204
f 204 223 205
f 207 222 221
f 207 221 208
f 208 220 209
f 208 221 220
f 210 226 227
f 212 214 213
f 215 224 230
f 215 230 216
f 216 230 225
f 216 225 217
f 225 228 227
f 225 227 226
f 225 230 228
f 228 230 229
