v -0.142533 -0.006518 0.020479
v -0.142472 0.006540 0.021205
v -0.142411 0.009154 0.020429
v -0.142275 0.006540 0.018847
v -0.142058 0.003911 0.018277
v -0.142472 -0.009147 0.020467
v -0.141198 0.006540 0.022510
v -0.141137 0.009154 0.022399
v -0.139592 0.016054 0.023334
v -0.139463 0.017797 0.023254
v -0.140134 0.022198 0.021583
v -0.142268 0.010839 0.020569
v -0.141130 -0.009147 0.022458
v -0.141123 -0.006518 0.022528
v -0.141286 -0.001303 0.022437
v -0.141916 0.009154 0.018463
v -0.140751 0.003911 0.017663
v -0.140717 0.001326 0.017646
v -0.140385 -0.011761 0.017690
v -0.141184 -0.009147 0.018085
v -0.140615 0.009154 0.017705
v -0.140771 0.006540 0.017687
v -0.139965 -0.019590 0.017781
v -0.142302 -0.011238 0.020549
v -0.139897 0.006540 0.023492
v -0.139768 0.011740 0.023434
v -0.139673 0.014354 0.023382
v -0.139985 0.001326 0.023549
v -0.139951 0.003911 0.023524
v -0.137770 0.022198 0.023728
v -0.137587 0.024798 0.023675
v -0.137384 0.027412 0.023584
v -0.139301 0.019583 0.023138
v -0.139077 0.022198 0.022889
v -0.138894 0.024798 0.022576
v -0.139870 0.024798 0.021271
v -0.139680 0.026584 0.020536
v -0.140276 0.022198 0.019390
v -0.139816 -0.009147 0.023458
v -0.139978 -0.001303 0.023546
v -0.140066 -0.022205 0.021502
v -0.139491 -0.015552 0.023293
v -0.139646 -0.013824 0.023367
v -0.139755 -0.011761 0.023430
v -0.139599 0.024507 0.018436
v -0.139694 0.022198 0.017975
v -0.105588 0.001326 0.007721
v -0.105582 -0.001303 0.007721
v -0.105405 -0.006518 0.007721
v -0.140114 -0.016990 0.017725
v -0.105209 -0.009278 0.007721
v -0.104579 0.013512 0.007721
v -0.104857 0.011246 0.007721
v -0.105060 0.009184 0.007721
v -0.105304 0.006525 0.007721
v -0.105487 0.003838 0.007721
v -0.139734 -0.022205 0.017929
v -0.104647 -0.014376 0.007721
v -0.104274 -0.016990 0.007724
v -0.137668 -0.030048 0.017644
v -0.137417 -0.032648 0.017764
v -0.139612 -0.024601 0.018407
v -0.139660 -0.026577 0.020461
v -0.139836 -0.024819 0.021167
v -0.137993 0.019583 0.023723
v -0.138251 0.001326 0.023820
v -0.138251 0.011740 0.023756
v -0.135642 0.027412 0.023989
v -0.135642 0.030027 0.023906
v -0.135581 0.032816 0.023726
v -0.137031 0.030753 0.023372
v -0.137133 0.033193 0.022593
v -0.137004 0.032903 0.018512
v -0.138251 -0.001303 0.023809
v -0.138840 -0.022205 0.022805
v -0.139050 -0.019590 0.023039
v -0.136930 -0.028726 0.023305
v -0.137085 -0.026983 0.023380
v -0.137275 -0.024819 0.023468
v -0.137539 -0.022205 0.023555
v -0.138244 -0.009147 0.023686
v -0.101984 0.025379 0.007721
v -0.103495 0.019816 0.007721
v -0.104227 0.015778 0.007721
v -0.104945 -0.011747 0.007721
v -0.137173 -0.034594 0.017918
v -0.099796 -0.014390 0.007721
v -0.081700 -0.056062 0.007724
v -0.087912 -0.055859 0.007724
v -0.089281 -0.053884 0.007724
v -0.091205 -0.050877 0.007724
v -0.093143 -0.047681 0.007724
v -0.094274 -0.045604 0.007724
v -0.095812 -0.042598 0.007724
v -0.096855 -0.040419 0.007724
v -0.098285 -0.037238 0.007724
v -0.099111 -0.035248 0.007724
v -0.101008 -0.029743 0.007724
v -0.101760 -0.027419 0.007724
v -0.102465 -0.024819 0.007724
v -0.103312 -0.021493 0.007724
v -0.103759 -0.019590 0.007724
v -0.135337 -0.037863 0.017536
v -0.134999 -0.040477 0.017652
v -0.138129 -0.032648 0.019389
v -0.137004 -0.036802 0.020522
v -0.137262 -0.035248 0.021162
v -0.137648 -0.032648 0.021608
v -0.135642 0.024798 0.023990
v -0.132743 0.033193 0.023998
v -0.115371 0.033193 0.014462
v -0.135622 -0.022205 0.023598
v -0.078210 -0.108308 0.022590
v -0.135188 -0.040477 0.021707
v -0.133346 -0.040477 0.023012
v -0.134497 -0.034536 0.023364
v -0.131936 -0.041218 0.023353
v -0.129084 -0.047347 0.023326
v -0.135622 -0.024819 0.023557
v -0.097302 0.025379 0.007721
v -0.137343 -0.035364 0.019376
v -0.134552 -0.043048 0.017918
v -0.135873 -0.040477 0.019389
v -0.073319 -0.079041 0.014462
v -0.073319 -0.094510 0.014462
v -0.073319 -0.113566 0.017023
v -0.109518 -0.084836 0.016866
v -0.078210 -0.110923 0.016941
v -0.086042 -0.105708 0.016828
v -0.104321 -0.090051 0.016905
v -0.117357 -0.074378 0.017171
v -0.122668 -0.066520 0.017438
v -0.125358 -0.061393 0.017442
v -0.127959 -0.056178 0.017440
v -0.129823 -0.053491 0.017583
v -0.134565 -0.043803 0.021062
v -0.073319 -0.110923 0.022534
v -0.130825 0.033193 0.023565
v -0.103095 0.033193 0.014462
v -0.088651 -0.100479 0.022663
v -0.086042 -0.103094 0.022617
v -0.083434 -0.105708 0.022547
v -0.075595 -0.110923 0.022356
v -0.132343 -0.048277 0.021454
v -0.132824 -0.042932 0.022674
v -0.130209 -0.048248 0.022853
v -0.127797 -0.053491 0.022881
v -0.125182 -0.058720 0.022822
v -0.122573 -0.061335 0.022983
v -0.119958 -0.066549 0.022872
v -0.114741 -0.074378 0.022805
v -0.112133 -0.077007 0.022846
v -0.109518 -0.079593 0.022880
v -0.134355 -0.044442 0.018735
v -0.129389 -0.055351 0.017840
v -0.134951 -0.043048 0.019389
v -0.073319 -0.105708 0.021612
v -0.073319 -0.113537 0.021882
v -0.073895 -0.115179 0.020077
v -0.073996 -0.115193 0.017724
v -0.075568 -0.113639 0.017357
v -0.111456 -0.084836 0.017582
v -0.112309 -0.082352 0.017247
v -0.106788 -0.089876 0.017590
v -0.080731 -0.110952 0.017387
v -0.088637 -0.105723 0.017329
v -0.091354 -0.103210 0.017276
v -0.098658 -0.097415 0.017576
v -0.117241 -0.076731 0.017684
v -0.124579 -0.063935 0.017598
v -0.127201 -0.058720 0.017591
v -0.130649 -0.053491 0.019389
v -0.131943 -0.050107 0.021057
v -0.073319 -0.108308 0.022298
v -0.107174 0.033193 0.015812
v -0.096496 -0.095250 0.022647
v -0.080819 -0.108308 0.022297
v -0.093881 -0.097879 0.022560
v -0.091266 -0.100479 0.022423
v -0.088651 -0.103094 0.022219
v -0.129491 -0.055583 0.021196
v -0.129924 -0.053491 0.021619
v -0.128034 -0.056324 0.021917
v -0.125398 -0.061495 0.021860
v -0.122573 -0.063935 0.022639
v -0.117357 -0.071764 0.022662
v -0.112133 -0.079593 0.022588
v -0.109518 -0.082222 0.022660
v -0.106930 -0.084836 0.022684
v -0.101706 -0.090051 0.022679
v -0.129613 -0.055815 0.019389
v -0.126733 -0.060580 0.017878
v -0.080819 -0.110400 0.021288
v -0.077580 -0.112593 0.021032
v -0.079328 -0.112128 0.020402
v -0.079796 -0.112390 0.018286
v -0.078210 -0.112782 0.017591
v -0.109342 -0.087233 0.017638
v -0.110934 -0.086260 0.018249
v -0.116300 -0.078634 0.017862
v -0.105805 -0.091503 0.017940
v -0.082946 -0.110109 0.017662
v -0.086042 -0.107873 0.017486
v -0.090548 -0.104866 0.017705
v -0.093298 -0.102411 0.017652
v -0.118827 -0.075032 0.017960
v -0.124098 -0.065634 0.017891
v -0.104321 -0.090051 0.022000
v -0.086300 -0.105970 0.021715
v -0.083387 -0.108352 0.021510
v -0.096598 -0.098010 0.021648
v -0.093847 -0.100508 0.021508
v -0.091110 -0.103021 0.021333
v -0.126306 -0.062264 0.019389
v -0.126835 -0.060739 0.021118
v -0.127397 -0.058662 0.021567
v -0.124694 -0.063935 0.021470
v -0.122743 -0.066636 0.021712
v -0.119958 -0.069164 0.022349
v -0.114741 -0.077007 0.022314
v -0.112180 -0.082251 0.021543
v -0.109701 -0.084981 0.021648
v -0.107180 -0.087683 0.021699
v -0.085602 -0.107509 0.021159
v -0.082492 -0.109877 0.020928
v -0.083028 -0.110182 0.019389
v -0.087336 -0.107001 0.020676
v -0.087750 -0.107321 0.018363
v -0.110690 -0.085955 0.020278
v -0.114044 -0.081786 0.019389
v -0.108353 -0.088903 0.018430
v -0.107302 -0.089876 0.019626
v -0.108210 -0.088714 0.020654
v -0.103048 -0.093987 0.018055
v -0.097567 -0.098983 0.019389
v -0.105710 -0.091430 0.020047
v -0.116239 -0.078576 0.020101
v -0.121361 -0.070631 0.020808
v -0.123556 -0.067261 0.019389
v -0.108942 -0.086986 0.021180
v -0.106286 -0.090051 0.021062
v -0.098529 -0.097226 0.021169
v -0.099274 -0.095454 0.021691
v -0.088651 -0.105142 0.021207
v -0.095792 -0.099651 0.021081
v -0.092960 -0.102106 0.020958
v -0.124172 -0.065823 0.021041
v -0.121869 -0.069164 0.021237
v -0.119992 -0.071604 0.021444
v -0.117478 -0.074480 0.021764
v -0.119132 -0.073666 0.021149
v -0.114694 -0.079447 0.021357
v -0.113806 -0.081408 0.020990
v -0.093407 -0.102484 0.019389
v -0.091842 -0.103791 0.019389
f 1 2 3
f 1 3 4
f 1 4 5
f 1 5 6
f 1 6 2
f 2 7 8
f 2 8 9
f 2 9 10
f 2 10 11
f 2 11 12
f 2 12 3
f 2 6 13
f 2 13 14
f 2 14 15
f 2 15 7
f 3 16 4
f 3 12 16
f 4 16 5
f 5 17 18
f 5 18 19
f 5 19 20
f 5 20 6
f 5 16 21
f 5 21 22
f 5 22 17
f 6 20 23
f 6 23 24
f 6 24 13
f 7 25 26
f 7 26 27
f 7 27 8
f 7 15 28
f 7 28 29
f 7 29 25
f 8 27 9
f 9 27 30
f 9 30 31
f 9 31 32
f 9 32 10
f 10 33 11
f 10 32 33
f 11 33 34
f 11 34 35
f 11 35 36
f 11 36 12
f 12 36 37
f 12 37 38
f 12 38 16
f 13 39 40
f 13 40 14
f 13 24 41
f 13 41 42
f 13 42 43
f 13 43 44
f 13 44 39
f 14 40 15
f 15 40 28
f 16 38 45
f 16 45 46
f 16 46 21
f 17 47 18
f 17 22 47
f 18 47 48
f 18 48 49
f 18 49 19
f 19 50 20
f 19 49 51
f 19 51 50
f 20 50 23
f 21 52 53
f 21 53 54
f 21 54 55
f 21 55 22
f 21 46 52
f 22 55 56
f 22 56 47
f 23 57 24
f 23 50 58
f 23 58 59
f 23 59 60
f 23 60 61
f 23 61 57
f 24 57 62
f 24 62 63
f 24 63 64
f 24 64 41
f 25 29 26
f 26 29 65
f 26 65 30
f 26 30 27
f 28 66 67
f 28 67 65
f 28 65 29
f 28 40 66
f 30 65 68
f 30 68 69
f 30 69 31
f 31 69 32
f 32 69 70
f 32 70 71
f 32 71 33
f 33 71 34
f 34 71 35
f 35 71 72
f 35 72 36
f 36 72 37
f 37 72 73
f 37 73 45
f 37 45 38
f 39 44 74
f 39 74 40
f 40 74 66
f 41 64 75
f 41 75 42
f 42 75 76
f 42 76 77
f 42 77 43
f 43 77 78
f 43 78 79
f 43 79 80
f 43 80 44
f 44 80 81
f 44 81 74
f 45 73 46
f 46 73 82
f 46 82 83
f 46 83 84
f 46 84 52
f 47 56 55
f 47 55 54
f 47 54 53
f 47 53 52
f 47 52 84
f 47 84 83
f 47 83 82
f 47 82 120
f 47 120 87
f 47 87 58
f 47 58 85
f 47 85 51
f 47 51 49
f 47 49 48
f 50 51 85
f 50 85 58
f 57 61 86
f 57 86 62
f 58 87 88
f 58 88 89
f 58 89 90
f 58 90 91
f 58 91 92
f 58 92 93
f 58 93 94
f 58 94 95
f 58 95 96
f 58 96 97
f 58 97 98
f 58 98 99
f 58 99 100
f 58 100 101
f 58 101 102
f 58 102 59
f 59 102 60
f 60 103 61
f 60 102 101
f 60 101 103
f 61 103 104
f 61 104 86
f 62 86 105
f 62 105 63
f 63 105 106
f 63 106 107
f 63 107 64
f 64 107 108
f 64 108 77
f 64 77 75
f 65 67 68
f 66 74 109
f 66 109 68
f 66 68 67
f 68 109 110
f 68 110 69
f 69 110 70
f 70 110 72
f 70 72 71
f 72 110 138
f 72 138 175
f 72 175 139
f 72 139 111
f 72 111 73
f 73 111 82
f 74 81 80
f 74 80 112
f 74 112 113
f 74 113 109
f 75 77 76
f 77 108 114
f 77 114 115
f 77 115 116
f 77 116 78
f 78 116 79
f 79 116 80
f 80 116 117
f 80 117 118
f 80 118 119
f 80 119 112
f 82 111 139
f 82 139 120
f 86 121 105
f 86 104 122
f 86 122 123
f 86 123 121
f 87 120 88
f 88 124 125
f 88 125 126
f 88 126 89
f 88 120 124
f 89 127 90
f 89 126 128
f 89 128 129
f 89 129 130
f 89 130 127
f 90 127 91
f 91 127 131
f 91 131 92
f 92 131 93
f 93 131 132
f 93 132 133
f 93 133 94
f 94 133 134
f 94 134 135
f 94 135 95
f 95 135 96
f 96 135 97
f 97 104 98
f 97 135 104
f 98 104 99
f 99 104 103
f 99 103 100
f 100 103 101
f 104 135 122
f 105 121 123
f 105 123 106
f 106 123 136
f 106 136 107
f 107 136 114
f 107 114 108
f 109 113 137
f 109 137 110
f 110 137 138
f 112 119 118
f 112 118 113
f 113 140 141
f 113 141 142
f 113 142 143
f 113 143 137
f 113 118 140
f 114 136 144
f 114 144 145
f 114 145 115
f 115 145 146
f 115 146 147
f 115 147 117
f 115 117 116
f 117 147 118
f 118 147 148
f 118 148 149
f 118 149 150
f 118 150 151
f 118 151 152
f 118 152 153
f 118 153 140
f 120 139 124
f 122 154 123
f 122 135 155
f 122 155 154
f 123 154 156
f 123 156 136
f 124 157 174
f 124 174 137
f 124 137 158
f 124 158 126
f 124 126 125
f 124 139 157
f 126 158 159
f 126 159 160
f 126 160 161
f 126 161 128
f 127 162 163
f 127 163 131
f 127 130 164
f 127 164 162
f 128 161 165
f 128 165 129
f 129 165 166
f 129 166 167
f 129 167 130
f 130 167 168
f 130 168 164
f 131 163 169
f 131 169 132
f 132 169 170
f 132 170 133
f 133 170 171
f 133 171 135
f 133 135 134
f 135 171 155
f 136 156 172
f 136 172 173
f 136 173 144
f 137 143 158
f 137 174 138
f 138 174 175
f 139 175 174
f 139 174 157
f 140 176 141
f 140 153 176
f 141 176 142
f 142 177 143
f 142 176 178
f 142 178 179
f 142 179 180
f 142 180 177
f 143 177 158
f 144 173 181
f 144 181 182
f 144 182 145
f 145 182 146
f 146 182 147
f 147 182 183
f 147 183 148
f 148 183 184
f 148 184 185
f 148 185 150
f 148 150 149
f 150 185 186
f 150 186 151
f 151 186 187
f 151 187 188
f 151 188 152
f 152 188 153
f 153 188 189
f 153 189 190
f 153 190 176
f 154 155 172
f 154 172 156
f 155 191 172
f 155 171 170
f 155 170 192
f 155 192 191
f 158 177 193
f 158 193 194
f 158 194 159
f 159 194 195
f 159 195 196
f 159 196 160
f 160 196 197
f 160 197 161
f 161 197 165
f 162 164 198
f 162 198 199
f 162 199 200
f 162 200 169
f 162 169 163
f 164 168 201
f 164 201 198
f 165 202 203
f 165 203 166
f 165 197 202
f 166 204 205
f 166 205 167
f 166 203 204
f 167 205 168
f 168 205 201
f 169 200 206
f 169 206 170
f 170 206 207
f 170 207 192
f 172 191 181
f 172 181 173
f 176 190 208
f 176 208 178
f 177 180 209
f 177 209 210
f 177 210 193
f 178 208 211
f 178 211 179
f 179 211 180
f 180 211 212
f 180 212 213
f 180 213 209
f 181 191 214
f 181 214 215
f 181 215 216
f 181 216 182
f 182 216 183
f 183 216 184
f 184 217 218
f 184 218 185
f 184 216 217
f 185 218 219
f 185 219 186
f 186 219 220
f 186 220 187
f 187 221 222
f 187 222 223
f 187 223 208
f 187 208 188
f 187 220 221
f 188 208 189
f 189 208 190
f 191 192 214
f 192 207 214
f 193 210 224
f 193 224 225
f 193 225 194
f 194 225 195
f 195 226 196
f 195 225 227
f 195 227 226
f 196 226 228
f 196 228 202
f 196 202 197
f 198 201 199
f 199 229 230
f 199 230 206
f 199 206 200
f 199 201 231
f 199 231 232
f 199 232 233
f 199 233 229
f 201 234 235
f 201 235 236
f 201 236 232
f 201 232 231
f 201 205 204
f 201 204 234
f 202 228 203
f 203 228 204
f 204 228 235
f 204 235 234
f 206 230 237
f 206 237 238
f 206 238 239
f 206 239 207
f 207 239 214
f 208 223 240
f 208 240 241
f 208 241 242
f 208 242 243
f 208 243 211
f 209 244 224
f 209 224 210
f 209 213 244
f 211 245 212
f 211 243 242
f 211 242 245
f 212 245 213
f 213 245 246
f 213 246 227
f 213 227 244
f 214 239 247
f 214 247 215
f 215 247 217
f 215 217 216
f 217 247 218
f 218 247 248
f 218 248 249
f 218 249 219
f 219 249 250
f 219 250 220
f 220 250 251
f 220 251 252
f 220 252 221
f 221 252 253
f 221 253 240
f 221 240 222
f 222 240 223
f 224 244 227
f 224 227 225
f 226 227 228
f 227 246 245
f 227 245 235
f 227 235 254
f 227 254 255
f 227 255 228
f 228 255 254
f 228 254 235
f 229 253 237
f 229 237 230
f 229 233 253
f 232 236 233
f 233 236 242
f 233 242 241
f 233 241 240
f 233 240 253
f 235 245 242
f 235 242 236
f 237 251 238
f 237 253 251
f 238 251 247
f 238 247 239
f 247 251 248
f 248 251 249
f 249 251 250
f 251 253 252
