v 0.029878 0.102717 0.014455
v 0.086249 0.079392 0.024200
v 0.091310 0.078614 0.023560
v 0.092077 0.079126 0.018215
v 0.035355 0.100214 0.014455
v 0.023700 0.078254 -0.001513
v 0.018354 0.081705 -0.000777
v 0.010554 0.084228 -0.000723
v 0.003916 0.085612 -0.000791
v -0.004431 0.086408 -0.000902
v -0.011267 0.087698 -0.000194
v -0.017467 0.087679 -0.000012
v -0.011858 0.092837 0.006080
v -0.057888 0.081705 0.007723
v -0.068952 0.074442 0.007723
v 0.112364 0.028058 0.024558
v 0.109779 0.037862 0.024552
v 0.093019 0.073532 0.024234
v -0.076796 0.067407 0.007723
v -0.082557 0.061415 0.007723
v -0.086019 0.057356 0.007723
v -0.092285 0.048083 0.007723
v -0.095111 0.043001 0.007723
v -0.097653 0.037672 0.007723
v -0.101114 0.028191 0.007723
v -0.103415 0.019790 0.007723
v -0.104335 0.014632 0.007723
v -0.105562 0.000030 0.007723
v -0.103831 -0.018668 0.007723
v -0.101837 -0.026614 0.007723
v -0.098638 -0.036171 0.007723
v 0.097904 0.068488 0.023842
v 0.099350 0.069531 0.021631
v 0.096020 0.074765 0.020369
v 0.095692 0.073475 0.017956
v 0.053802 0.051629 -0.002860
v 0.047909 0.057508 -0.003062
v 0.042388 0.062723 -0.003102
v 0.035005 0.068867 -0.002974
v 0.028782 0.073475 -0.002729
v 0.013556 0.078785 -0.003130
v 0.007619 0.078368 -0.003732
v -0.012647 0.082995 -0.002985
v -0.023360 0.085612 -0.001018
v -0.031927 0.085669 0.000303
v -0.042947 0.082331 0.000445
v -0.050527 0.078690 0.000269
v -0.058173 0.077097 0.002539
v -0.065995 0.071674 0.002360
v -0.073816 0.066440 0.003841
v -0.096272 -0.041462 0.007723
v -0.093643 -0.046639 0.007723
v 0.117184 0.004600 0.023955
v 0.116264 0.016813 0.024066
v 0.114555 0.030030 0.023816
v 0.107150 0.048311 0.024427
v 0.103338 0.057774 0.024140
v -0.076620 0.062420 0.002625
v -0.083237 0.050795 0.000354
v -0.088517 0.046509 0.002446
v -0.078329 0.058039 0.000874
v -0.094125 0.034809 0.002127
v -0.090751 0.039720 0.001133
v -0.098660 0.023488 0.002750
v -0.100369 0.014556 0.002375
v -0.104050 0.008469 0.006302
v -0.104532 -0.009755 0.006993
v -0.101114 0.002002 0.002005
v -0.101311 -0.006133 0.002440
v -0.101005 -0.014629 0.003040
v -0.097543 -0.023636 0.001391
v -0.097872 -0.030634 0.004179
v -0.095002 -0.034901 0.002557
v -0.092175 -0.040286 0.002039
v 0.100731 0.063785 0.023557
v 0.108574 0.050909 0.021807
v 0.105047 0.058039 0.019440
v 0.100928 0.063197 0.017936
v 0.060901 0.039891 -0.002991
v 0.058162 0.038469 -0.003764
v 0.055182 0.044025 -0.003610
v 0.048697 0.049562 -0.004054
v 0.043155 0.055441 -0.004164
v 0.028826 0.069133 -0.003931
v 0.021312 0.072736 -0.003954
v 0.012176 0.073058 -0.004397
v -0.001802 0.076965 -0.004295
v -0.006359 0.079563 -0.004051
v -0.019307 0.081743 -0.003252
v -0.025967 0.081288 -0.003104
v -0.034599 0.081649 -0.001951
v -0.047153 0.073817 -0.003195
v -0.055785 0.073779 -0.001064
v -0.064373 0.066364 -0.001908
v -0.072852 0.062420 -0.000064
v -0.089875 -0.052802 0.007723
v -0.087640 -0.046260 0.000854
v 0.043089 -0.077113 0.007723
v 0.048478 -0.072771 0.007723
v 0.056409 -0.065394 0.007723
v 0.118214 0.002647 0.019164
v 0.118082 0.018292 0.021997
v -0.082820 -0.062455 0.007723
v -0.074955 -0.070552 0.007723
v -0.068996 -0.075710 0.007723
v -0.064636 -0.078972 0.007723
v -0.059860 -0.082082 0.007723
v 0.116724 0.025024 0.020900
v 0.111466 0.044499 0.020713
v -0.084573 0.044480 -0.001311
v -0.073641 0.056162 -0.002377
v -0.091978 0.035188 0.000238
v -0.093578 0.028039 -0.000578
v -0.090664 0.035188 -0.000712
v -0.095155 0.022103 -0.000683
v -0.096820 0.016907 -0.000453
v -0.098354 0.010630 0.000036
v -0.096754 -0.001260 -0.001567
v -0.095747 -0.008409 -0.002033
v -0.097631 -0.016317 -0.000061
v -0.094892 -0.028055 -0.000001
v -0.089305 -0.035868 -0.001584
v -0.093599 -0.028567 -0.000828
v 0.108552 0.047230 0.018036
v 0.065699 0.025782 -0.003309
v 0.062281 0.031680 -0.003542
v 0.062741 0.023469 -0.003906
v 0.037918 0.057394 -0.004329
v 0.026854 0.067824 -0.004250
v -0.007674 -0.076943 -0.004449
v -0.039003 -0.071747 -0.004474
v -0.018781 0.075694 -0.004380
v -0.011595 0.078292 -0.004233
v -0.028574 0.075694 -0.004213
v -0.037163 0.077761 -0.003298
v -0.049125 0.068488 -0.003980
v -0.058261 0.064600 -0.003710
v -0.059816 0.069019 -0.002232
v -0.039989 0.073722 -0.003951
v -0.069062 0.060466 -0.002550
v -0.083346 -0.052764 0.000942
v -0.079644 -0.057979 0.001019
v -0.082996 -0.043491 -0.002783
v -0.075941 -0.054869 -0.002564
v -0.012735 -0.091014 0.002088
v -0.006775 -0.090767 0.001965
v 0.007159 -0.088302 0.001391
v 0.031039 -0.079237 0.001440
v 0.043264 -0.069547 0.000351
v 0.051589 -0.066456 0.003963
v 0.055270 -0.059098 0.001110
v 0.061536 -0.057998 0.006521
v 0.117140 0.018443 0.018937
v 0.118257 0.008924 0.019852
v 0.061558 -0.052594 0.002090
v 0.062741 -0.047056 0.000144
v 0.065523 -0.036987 -0.001482
v 0.068284 -0.031620 -0.001269
v 0.069248 -0.024698 -0.001962
v 0.069905 -0.013643 -0.002724
v 0.071154 -0.008428 -0.002405
v 0.071723 0.004581 -0.002505
v -0.075525 -0.062663 0.001133
v -0.067375 -0.068447 -0.000146
v -0.059006 -0.076544 0.001403
v -0.052367 -0.079180 0.000201
v -0.045269 -0.083333 0.000920
v -0.037732 -0.085040 0.000042
v 0.113700 0.031414 0.018073
v 0.111159 0.039493 0.018024
v -0.085165 0.039322 -0.002482
v -0.075109 0.050131 -0.003329
v -0.090006 0.024796 -0.002957
v -0.091869 0.018462 -0.002914
v -0.092964 0.013684 -0.002823
v -0.094607 0.005359 -0.002570
v -0.090642 -0.004161 -0.003704
v -0.092635 -0.016810 -0.002854
v -0.090817 -0.025817 -0.002707
v 0.066904 0.018292 -0.003428
v 0.067451 0.009910 -0.003417
v 0.065326 -0.014306 -0.003531
v 0.044469 -0.053428 -0.003852
v 0.029484 -0.065204 -0.004076
v 0.014476 -0.071747 -0.004264
v 0.005362 -0.076943 -0.004224
v 0.000170 -0.078251 -0.004224
v -0.012866 -0.078630 -0.004377
v -0.033613 -0.076336 -0.004304
v -0.057428 -0.065053 -0.004116
v -0.080739 -0.036494 -0.004019
v -0.085975 -0.011026 -0.004127
v -0.085975 0.003879 -0.004113
v -0.080761 0.033899 -0.004019
v -0.072940 0.046964 -0.003997
v -0.068996 0.054133 -0.003815
v -0.063826 0.059746 -0.003698
v -0.076839 -0.044572 -0.003971
v -0.077190 -0.049749 -0.003272
v -0.084661 -0.029591 -0.003926
v -0.069018 -0.057069 -0.003667
v -0.063782 -0.062853 -0.003650
v -0.061175 -0.069585 -0.002258
v -0.011968 -0.088093 -0.000731
v -0.023032 -0.088226 -0.000010
v -0.003774 -0.087941 -0.000587
v 0.002120 -0.088643 0.000749
v 0.013972 -0.085078 0.000138
v 0.024160 -0.081380 0.000300
v 0.036078 -0.074003 -0.000223
v 0.049289 -0.062701 -0.000595
v 0.057527 -0.054661 0.000186
v 0.058929 -0.044345 -0.002590
v 0.060988 -0.036778 -0.003082
v 0.067123 -0.019578 -0.003056
v 0.069379 -0.002568 -0.003170
v -0.043450 -0.080223 -0.001931
v -0.033723 -0.081702 -0.002883
v -0.028881 -0.086557 -0.000581
v -0.085208 0.033500 -0.003298
v -0.078833 0.042110 -0.003684
v -0.085975 0.028665 -0.003653
v -0.091211 0.009113 -0.003627
v -0.089897 0.003254 -0.003894
v -0.087290 -0.018175 -0.004002
v -0.085975 -0.024717 -0.003994
v 0.062719 -0.026064 -0.003499
v 0.041183 -0.059345 -0.003732
v 0.036626 -0.061298 -0.003951
v 0.056212 -0.041064 -0.003536
v 0.024905 -0.070438 -0.003974
v 0.019668 -0.073036 -0.004019
v 0.010708 -0.075957 -0.004116
v -0.001802 -0.083314 -0.003070
v -0.008331 -0.081342 -0.003829
v -0.020403 -0.081475 -0.003710
v -0.027326 -0.079996 -0.003801
v -0.040318 -0.076355 -0.003826
v -0.052345 -0.069244 -0.003948
v -0.087947 0.014328 -0.003957
v -0.083346 0.028665 -0.004000
v -0.048358 -0.073321 -0.003553
v -0.014159 -0.083523 -0.003278
v 0.006107 -0.083333 -0.002317
v 0.017083 -0.079806 -0.002476
v 0.026548 -0.076962 -0.001743
v 0.046244 -0.059553 -0.002832
v 0.030645 -0.072240 -0.002627
v 0.053868 -0.049427 -0.003005
v 0.062040 -0.030937 -0.003326
v -0.086961 0.020548 -0.003892
v 0.035092 -0.066380 -0.003454
v 0.049859 -0.054262 -0.002994
f 1 2 3
f 1 3 4
f 1 4 5
f 1 5 6
f 1 6 7
f 1 7 8
f 1 8 9
f 1 9 10
f 1 10 11
f 1 11 12
f 1 12 13
f 1 13 14
f 1 14 15
f 1 15 2
f 2 16 17
f 2 17 18
f 2 18 3
f 2 15 19
f 2 19 20
f 2 20 21
f 2 21 22
f 2 22 23
f 2 23 24
f 2 24 25
f 2 25 26
f 2 26 27
f 2 27 28
f 2 28 29
f 2 29 30
f 2 30 31
f 2 31 16
f 3 18 32
f 3 32 33
f 3 33 34
f 3 34 4
f 4 34 35
f 4 35 36
f 4 36 37
f 4 37 38
f 4 38 39
f 4 39 40
f 4 40 6
f 4 6 5
f 6 40 41
f 6 41 7
f 7 41 8
f 8 41 9
f 9 41 42
f 9 42 43
f 9 43 10
f 10 43 11
f 11 43 12
f 12 43 44
f 12 44 45
f 12 45 13
f 13 45 14
f 14 45 46
f 14 46 47
f 14 47 48
f 14 48 15
f 15 49 50
f 15 50 19
f 15 48 49
f 16 31 51
f 16 51 52
f 16 52 53
f 16 53 54
f 16 54 55
f 16 55 17
f 17 55 56
f 17 56 18
f 18 56 57
f 18 57 32
f 19 58 20
f 19 50 58
f 20 58 21
f 21 59 60
f 21 60 22
f 21 58 61
f 21 61 59
f 22 60 23
f 23 62 24
f 23 60 63
f 23 63 62
f 24 62 25
f 25 64 26
f 25 62 64
f 26 64 65
f 26 65 27
f 27 66 28
f 27 65 66
f 28 67 29
f 28 66 68
f 28 68 69
f 28 69 67
f 29 67 70
f 29 70 71
f 29 71 30
f 30 72 31
f 30 71 72
f 31 72 73
f 31 73 74
f 31 74 51
f 32 57 75
f 32 75 33
f 33 75 57
f 33 57 76
f 33 76 77
f 33 77 34
f 34 77 35
f 35 77 78
f 35 78 79
f 35 79 36
f 36 79 80
f 36 80 81
f 36 81 82
f 36 82 37
f 37 83 38
f 37 82 83
f 38 83 84
f 38 84 39
f 39 84 40
f 40 84 85
f 40 85 41
f 41 85 42
f 42 85 86
f 42 86 87
f 42 87 88
f 42 88 43
f 43 89 44
f 43 88 89
f 44 90 91
f 44 91 45
f 44 89 90
f 45 91 46
f 46 91 47
f 47 92 93
f 47 93 48
f 47 91 92
f 48 93 49
f 49 94 95
f 49 95 58
f 49 58 50
f 49 93 94
f 51 74 52
f 52 96 53
f 52 74 97
f 52 97 96
f 53 98 99
f 53 99 100
f 53 100 101
f 53 101 102
f 53 102 54
f 53 96 103
f 53 103 104
f 53 104 105
f 53 105 106
f 53 106 107
f 53 107 98
f 54 102 55
f 55 102 108
f 55 108 109
f 55 109 76
f 55 76 56
f 56 76 57
f 58 95 61
f 59 110 63
f 59 63 60
f 59 61 111
f 59 111 110
f 61 95 111
f 62 63 112
f 62 112 113
f 62 113 64
f 63 110 114
f 63 114 112
f 64 113 115
f 64 115 116
f 64 116 65
f 65 116 117
f 65 117 68
f 65 68 66
f 67 69 70
f 68 117 118
f 68 118 69
f 69 118 119
f 69 119 120
f 69 120 70
f 70 120 71
f 71 120 121
f 71 121 72
f 72 121 73
f 73 121 74
f 74 122 97
f 74 121 123
f 74 123 122
f 76 109 77
f 77 109 124
f 77 124 78
f 78 124 79
f 79 125 126
f 79 126 80
f 79 124 125
f 80 82 81
f 80 126 127
f 80 127 82
f 82 127 128
f 82 128 83
f 83 128 129
f 83 129 84
f 84 129 85
f 85 129 86
f 86 130 131
f 86 131 132
f 86 132 87
f 86 129 128
f 86 128 130
f 87 132 133
f 87 133 88
f 88 133 89
f 89 133 134
f 89 134 90
f 90 134 135
f 90 135 91
f 91 135 92
f 92 136 137
f 92 137 138
f 92 138 93
f 92 135 139
f 92 139 136
f 93 138 94
f 94 140 95
f 94 138 140
f 95 140 111
f 96 97 141
f 96 141 142
f 96 142 103
f 97 122 143
f 97 143 144
f 97 144 141
f 98 145 146
f 98 146 147
f 98 147 148
f 98 148 149
f 98 149 99
f 98 107 145
f 99 149 150
f 99 150 100
f 100 150 151
f 100 151 152
f 100 152 101
f 101 153 154
f 101 154 102
f 101 152 155
f 101 155 156
f 101 156 157
f 101 157 158
f 101 158 159
f 101 159 160
f 101 160 161
f 101 161 162
f 101 162 153
f 102 154 153
f 102 153 108
f 103 142 163
f 103 163 104
f 104 163 164
f 104 164 105
f 105 164 165
f 105 165 106
f 106 165 107
f 107 165 166
f 107 166 167
f 107 167 168
f 107 168 145
f 108 153 169
f 108 169 109
f 109 169 170
f 109 170 124
f 110 171 114
f 110 111 171
f 111 140 172
f 111 172 171
f 112 114 113
f 113 114 173
f 113 173 115
f 114 171 173
f 115 173 174
f 115 174 116
f 116 174 175
f 116 175 176
f 116 176 117
f 117 176 118
f 118 176 119
f 119 176 177
f 119 177 178
f 119 178 120
f 120 178 123
f 120 123 121
f 122 123 179
f 122 179 143
f 123 178 179
f 124 170 125
f 125 180 127
f 125 127 126
f 125 170 169
f 125 169 180
f 127 180 181
f 127 181 182
f 127 182 183
f 127 183 184
f 127 184 185
f 127 185 128
f 128 185 130
f 130 185 186
f 130 186 187
f 130 187 188
f 130 188 131
f 131 189 190
f 131 190 191
f 131 191 192
f 131 192 193
f 131 193 132
f 131 188 189
f 132 193 194
f 132 194 195
f 132 195 134
f 132 134 133
f 134 195 136
f 134 136 139
f 134 139 135
f 136 195 196
f 136 196 137
f 137 196 197
f 137 197 140
f 137 140 138
f 140 196 172
f 140 197 196
f 141 144 142
f 142 144 163
f 143 191 198
f 143 198 199
f 143 199 144
f 143 179 200
f 143 200 191
f 144 199 201
f 144 201 202
f 144 202 203
f 144 203 164
f 144 164 163
f 145 204 146
f 145 168 205
f 145 205 204
f 146 204 206
f 146 206 207
f 146 207 147
f 147 207 208
f 147 208 209
f 147 209 148
f 148 210 149
f 148 209 210
f 149 210 211
f 149 211 150
f 150 211 151
f 151 211 212
f 151 212 155
f 151 155 152
f 153 162 169
f 155 212 156
f 156 212 213
f 156 213 157
f 157 159 158
f 157 213 214
f 157 214 159
f 159 214 215
f 159 215 160
f 160 215 216
f 160 216 161
f 161 216 162
f 162 216 180
f 162 180 169
f 164 203 165
f 165 203 166
f 166 217 167
f 166 203 217
f 167 217 168
f 168 218 219
f 168 219 205
f 168 217 218
f 171 220 173
f 171 172 221
f 171 221 220
f 172 196 221
f 173 220 222
f 173 222 174
f 174 222 223
f 174 223 175
f 175 223 176
f 176 223 177
f 177 223 224
f 177 224 225
f 177 225 178
f 178 225 226
f 178 226 179
f 179 226 200
f 180 216 181
f 181 216 182
f 182 227 183
f 182 216 215
f 182 215 227
f 183 228 229
f 183 229 184
f 183 227 230
f 183 230 228
f 184 229 231
f 184 231 185
f 185 231 232
f 185 232 186
f 186 233 234
f 186 234 187
f 186 232 233
f 187 234 235
f 187 235 188
f 188 235 236
f 188 236 189
f 189 237 238
f 189 238 239
f 189 239 190
f 189 236 237
f 190 239 202
f 190 202 201
f 190 201 198
f 190 198 191
f 191 200 226
f 191 226 192
f 192 226 225
f 192 225 224
f 192 224 193
f 193 224 240
f 193 240 241
f 193 241 194
f 194 241 222
f 194 222 221
f 194 221 195
f 195 221 196
f 198 201 199
f 202 239 242
f 202 242 203
f 203 242 217
f 204 243 234
f 204 234 206
f 204 205 243
f 205 219 243
f 206 234 244
f 206 244 207
f 207 244 208
f 208 244 245
f 208 245 209
f 209 245 246
f 209 246 210
f 210 247 211
f 210 246 248
f 210 248 247
f 211 249 213
f 211 213 212
f 211 247 249
f 213 249 230
f 213 230 214
f 214 230 250
f 214 250 215
f 215 250 227
f 217 242 238
f 217 238 218
f 218 238 237
f 218 237 236
f 218 236 243
f 218 243 219
f 220 221 222
f 222 241 251
f 222 251 223
f 223 251 240
f 223 240 224
f 227 250 230
f 228 252 229
f 228 230 249
f 228 249 253
f 228 253 247
f 228 247 252
f 229 252 231
f 231 252 248
f 231 248 232
f 232 245 233
f 232 248 245
f 233 245 234
f 234 245 244
f 234 243 235
f 235 243 236
f 238 242 239
f 240 251 241
f 245 248 246
f 247 248 252
f 247 253 249
