v -0.037086 -0.122098 0.026075
v -0.036412 -0.117914 0.032337
v -0.036549 -0.116171 0.026304
v -0.036477 -0.122796 0.021361
v -0.035962 -0.129745 0.026882
v -0.036867 -0.122944 0.031373
v -0.034405 -0.116083 0.037962
v -0.034432 -0.112147 0.034109
v -0.035271 -0.112218 0.029329
v -0.035792 -0.121993 0.036163
v -0.035798 -0.117524 0.020326
v -0.035063 -0.112928 0.022173
v -0.033232 -0.123983 0.013628
v -0.034262 -0.130311 0.018533
v -0.035924 -0.126919 0.034327
v -0.032777 -0.136518 0.023585
v -0.033089 -0.135782 0.032136
v -0.034279 -0.131136 0.035918
v -0.033632 -0.121004 0.041063
v -0.031192 -0.113378 0.042562
v -0.031433 -0.109437 0.038708
v -0.032037 -0.107084 0.033536
v -0.032645 -0.106924 0.027890
v -0.034345 -0.126925 0.038763
v -0.033303 -0.115726 0.014810
v -0.031971 -0.106963 0.021683
v -0.031324 -0.109431 0.016135
v -0.026718 -0.126210 0.006210
v -0.029454 -0.130251 0.010183
v -0.030562 -0.118871 0.009911
v -0.029575 -0.135886 0.014233
v -0.032387 -0.135177 0.018887
v -0.029054 -0.140444 0.019912
v -0.031532 -0.138992 0.027683
v -0.031368 -0.132505 0.041057
v -0.028599 -0.141681 0.032730
v -0.028259 -0.138398 0.039777
v -0.028895 -0.118695 0.047074
v -0.031878 -0.126100 0.043493
v -0.025452 -0.114264 0.049036
v -0.027678 -0.110564 0.045068
v -0.025688 -0.104560 0.041804
v -0.026669 -0.101762 0.035160
v -0.029207 -0.102713 0.029602
v -0.028073 -0.101745 0.024244
v -0.028171 -0.114280 0.008548
v -0.028160 -0.103900 0.017873
v -0.027574 -0.107128 0.012679
v -0.018215 -0.127540 0.001681
v -0.024355 -0.130311 0.005431
v -0.025814 -0.118255 0.005420
v -0.022020 -0.119277 0.002913
v -0.025008 -0.136419 0.009257
v -0.024147 -0.141417 0.013502
v -0.025545 -0.143605 0.019585
v -0.028073 -0.142830 0.026631
v -0.028933 -0.130900 0.045281
v -0.025030 -0.135529 0.046420
v -0.023094 -0.146650 0.027046
v -0.022447 -0.146513 0.032043
v -0.026082 -0.142648 0.036757
v -0.020912 -0.140097 0.045613
v -0.023681 -0.119250 0.051363
v -0.028698 -0.125341 0.047347
v -0.024427 -0.124770 0.050911
v -0.020331 -0.114319 0.052181
v -0.020216 -0.109101 0.049810
v -0.023226 -0.106891 0.046584
v -0.019564 -0.102350 0.044545
v -0.022590 -0.100805 0.039929
v -0.021049 -0.098139 0.036076
v -0.020896 -0.096913 0.031051
v -0.024333 -0.098573 0.027972
v -0.024712 -0.099607 0.021536
v -0.025101 -0.111130 0.007246
v -0.024301 -0.102559 0.014342
v -0.023412 -0.106418 0.009175
v -0.017343 -0.119932 0.000935
v -0.013297 -0.125220 0.000079
v -0.013072 -0.133907 0.002390
v -0.020649 -0.133412 0.004619
v -0.020139 -0.111009 0.004396
v -0.018127 -0.137975 0.006091
v -0.018785 -0.141911 0.009944
v -0.020583 -0.145331 0.016167
v -0.021318 -0.147101 0.022571
v -0.025551 -0.130036 0.048802
v -0.020677 -0.134655 0.049826
v -0.017573 -0.149135 0.027623
v -0.021323 -0.144363 0.039695
v -0.016466 -0.147706 0.036948
v -0.013291 -0.137431 0.050753
v -0.015720 -0.143830 0.044224
v -0.019004 -0.121927 0.053810
v -0.020753 -0.129624 0.051941
v -0.017332 -0.127271 0.053870
v -0.015232 -0.111729 0.052955
v -0.015950 -0.117045 0.054295
v -0.014657 -0.105737 0.049761
v -0.012458 -0.100816 0.045548
v -0.016334 -0.098073 0.040207
v -0.013785 -0.095945 0.036774
v -0.016778 -0.095692 0.033046
v -0.014415 -0.094477 0.027073
v -0.019607 -0.096402 0.024228
v -0.019394 -0.098463 0.016702
v -0.020331 -0.101949 0.011660
v -0.015945 -0.103642 0.007655
v -0.014519 -0.112917 0.001763
v -0.010254 -0.117177 0.000172
v -0.006860 -0.122642 -0.000270
v -0.008231 -0.130108 0.000739
v -0.004163 -0.134698 0.002908
v -0.008785 -0.138701 0.004706
v -0.012957 -0.141455 0.007279
v -0.013127 -0.107095 0.004259
v -0.014964 -0.144875 0.011753
v -0.017414 -0.147772 0.019001
v -0.016691 -0.133330 0.052170
v -0.013012 -0.149751 0.022811
v -0.012836 -0.150114 0.028800
v -0.010786 -0.149619 0.033825
v -0.007990 -0.147898 0.039106
v -0.012239 -0.146090 0.042218
v -0.010413 -0.141813 0.047744
v -0.007014 -0.138096 0.050660
v -0.010791 -0.132219 0.053669
v -0.012392 -0.123758 0.055265
v -0.006274 -0.112180 0.053625
v -0.009947 -0.109090 0.052508
v -0.007759 -0.119464 0.055407
v -0.006323 -0.105220 0.049794
v -0.006290 -0.100431 0.045259
v -0.006438 -0.097347 0.040452
v -0.008352 -0.094829 0.034299
v -0.010216 -0.094093 0.029493
v -0.009327 -0.094318 0.023683
v -0.014700 -0.096281 0.018059
v -0.014075 -0.099233 0.012102
v -0.008680 -0.102542 0.007567
v -0.006071 -0.111531 0.001954
v -0.001559 -0.115935 0.001436
v -0.000402 -0.126106 0.001246
v 0.001742 -0.120097 0.001894
v 0.001753 -0.135270 0.005044
v -0.002979 -0.138739 0.005496
v -0.003713 -0.142450 0.008619
v -0.008620 -0.143115 0.008630
v -0.003165 -0.106413 0.005240
v -0.007354 -0.147129 0.014451
v -0.012491 -0.148008 0.016647
v -0.006471 -0.150257 0.025334
v -0.006350 -0.149531 0.020849
v -0.004821 -0.150021 0.029563
v -0.004377 -0.149014 0.034714
v -0.002189 -0.145375 0.041820
v -0.005862 -0.142384 0.046987
v -0.000862 -0.136084 0.050611
v -0.003521 -0.132945 0.052933
v -0.005435 -0.127892 0.054764
v -0.000177 -0.114610 0.053058
v -0.000182 -0.109519 0.050944
v -0.002699 -0.118645 0.054622
v -0.001668 -0.125341 0.054404
v -0.001191 -0.102482 0.046000
v 0.001216 -0.100030 0.041548
v -0.000402 -0.097023 0.036763
v -0.003187 -0.094719 0.028452
v -0.002491 -0.095384 0.021824
v -0.008839 -0.095428 0.018865
v -0.007995 -0.098056 0.013219
v -0.003401 -0.101146 0.009911
v 0.002066 -0.108931 0.005698
v 0.004538 -0.115358 0.004112
v 0.007773 -0.123703 0.005191
v 0.004439 -0.129663 0.004183
v 0.007411 -0.135232 0.008805
v 0.003052 -0.139773 0.009213
v -0.001882 -0.145205 0.012881
v 0.002274 -0.103296 0.010271
v -0.002205 -0.147838 0.017960
v -0.001356 -0.149229 0.025007
v 0.001506 -0.148234 0.028550
v 0.001621 -0.146601 0.036648
v 0.004922 -0.143473 0.039531
v 0.000963 -0.141582 0.045221
v 0.004818 -0.132631 0.049750
v 0.001457 -0.130058 0.052437
v 0.004763 -0.136733 0.047194
v 0.004615 -0.112378 0.049886
v 0.003348 -0.118997 0.052442
v 0.003634 -0.105638 0.046262
v 0.005174 -0.125990 0.051352
v 0.003886 -0.097963 0.033727
v 0.007762 -0.104071 0.040850
v 0.007367 -0.101399 0.036665
v 0.005218 -0.097886 0.026773
v 0.002553 -0.097199 0.022015
v -0.002847 -0.097160 0.016309
v 0.003337 -0.100008 0.015508
v 0.008996 -0.106424 0.013181
v 0.011276 -0.111416 0.011497
v 0.009549 -0.114363 0.008216
v 0.011079 -0.119448 0.008265
v 0.012400 -0.125814 0.009835
v 0.009505 -0.130003 0.007922
v 0.011808 -0.133462 0.012500
v 0.008447 -0.139943 0.014473
v 0.003343 -0.144446 0.015470
v 0.007400 -0.102174 0.016718
v 0.001106 -0.147756 0.021307
v 0.007378 -0.144941 0.026430
v 0.005794 -0.145381 0.033166
v 0.009703 -0.141576 0.035253
v 0.007658 -0.139954 0.041488
v 0.011945 -0.133308 0.042469
v 0.010185 -0.128684 0.046856
v 0.008979 -0.110036 0.045096
v 0.010125 -0.117078 0.047319
v 0.008935 -0.122103 0.049134
v 0.008880 -0.100519 0.028277
v 0.012598 -0.109184 0.039689
v 0.011156 -0.103098 0.031346
v 0.009401 -0.101795 0.021917
v 0.013935 -0.110283 0.016669
v 0.014401 -0.115863 0.013601
v 0.015487 -0.123494 0.014031
v 0.015240 -0.132884 0.018560
v 0.011836 -0.138113 0.017454
v 0.006808 -0.144391 0.020865
v 0.013080 -0.139229 0.024675
v 0.010712 -0.142087 0.028991
v 0.012899 -0.137706 0.035629
v 0.015026 -0.133005 0.037133
v 0.016655 -0.128338 0.036823
v 0.013442 -0.121784 0.044322
v 0.013272 -0.113994 0.042469
v 0.013782 -0.106358 0.024457
v 0.015761 -0.114308 0.038076
v 0.014456 -0.108134 0.033111
v 0.016956 -0.113038 0.022446
v 0.017313 -0.117793 0.019040
v 0.018141 -0.123417 0.020691
v 0.015712 -0.135232 0.025040
v 0.017658 -0.129432 0.022778
v 0.014621 -0.136705 0.030942
v 0.017554 -0.130542 0.030217
v 0.018749 -0.123714 0.031171
v 0.017055 -0.123005 0.037760
v 0.015756 -0.118337 0.040164
v 0.017274 -0.112576 0.027514
v 0.017203 -0.113741 0.032588
v 0.017686 -0.118403 0.035422
v 0.018925 -0.120437 0.026321
v 0.018733 -0.125825 0.025394
v 0.018557 -0.117799 0.030168
f 1 2 3
f 1 3 4
f 1 4 5
f 1 5 6
f 1 6 2
f 2 7 8
f 2 8 9
f 2 9 3
f 2 6 10
f 2 10 7
f 3 11 4
f 3 9 12
f 3 12 11
f 4 13 14
f 4 14 5
f 4 11 13
f 5 15 6
f 5 14 16
f 5 16 17
f 5 17 18
f 5 18 15
f 6 15 10
f 7 10 19
f 7 19 20
f 7 20 21
f 7 21 8
f 8 21 22
f 8 22 9
f 9 22 23
f 9 23 12
f 10 15 24
f 10 24 19
f 11 12 25
f 11 25 13
f 12 23 26
f 12 26 27
f 12 27 25
f 13 28 29
f 13 29 14
f 13 25 30
f 13 30 28
f 14 29 31
f 14 31 32
f 14 32 16
f 15 18 24
f 16 32 33
f 16 33 34
f 16 34 17
f 17 35 18
f 17 34 36
f 17 36 37
f 17 37 35
f 18 35 24
f 19 38 20
f 19 24 39
f 19 39 38
f 20 40 41
f 20 41 21
f 20 38 40
f 21 41 42
f 21 42 43
f 21 43 22
f 22 43 44
f 22 44 23
f 23 44 45
f 23 45 26
f 24 35 39
f 25 27 46
f 25 46 30
f 26 45 47
f 26 47 27
f 27 47 48
f 27 48 46
f 28 49 50
f 28 50 29
f 28 30 51
f 28 51 52
f 28 52 49
f 29 50 53
f 29 53 31
f 30 46 51
f 31 53 54
f 31 54 33
f 31 33 32
f 33 54 55
f 33 55 56
f 33 56 34
f 34 56 36
f 35 57 39
f 35 37 58
f 35 58 57
f 36 56 59
f 36 59 60
f 36 60 61
f 36 61 37
f 37 61 62
f 37 62 58
f 38 63 40
f 38 39 64
f 38 64 65
f 38 65 63
f 39 57 64
f 40 66 67
f 40 67 68
f 40 68 41
f 40 63 66
f 41 68 42
f 42 68 69
f 42 69 70
f 42 70 43
f 43 70 71
f 43 71 72
f 43 72 73
f 43 73 44
f 44 73 45
f 45 73 74
f 45 74 47
f 46 48 75
f 46 75 51
f 47 74 76
f 47 76 48
f 48 76 77
f 48 77 75
f 49 52 78
f 49 78 79
f 49 79 80
f 49 80 81
f 49 81 50
f 50 81 53
f 51 75 82
f 51 82 52
f 52 82 78
f 53 81 83
f 53 83 84
f 53 84 54
f 54 84 85
f 54 85 55
f 55 85 86
f 55 86 59
f 55 59 56
f 57 58 87
f 57 87 64
f 58 88 87
f 58 62 88
f 59 86 89
f 59 89 60
f 60 90 61
f 60 89 91
f 60 91 90
f 61 90 62
f 62 92 88
f 62 90 93
f 62 93 92
f 63 65 94
f 63 94 66
f 64 87 65
f 65 87 95
f 65 95 96
f 65 96 94
f 66 97 67
f 66 94 98
f 66 98 97
f 67 97 99
f 67 99 68
f 68 99 69
f 69 99 100
f 69 100 101
f 69 101 70
f 70 101 71
f 71 101 102
f 71 102 103
f 71 103 72
f 72 103 104
f 72 104 105
f 72 105 73
f 73 105 74
f 74 105 106
f 74 106 76
f 75 77 82
f 76 107 77
f 76 106 107
f 77 107 108
f 77 108 82
f 78 82 109
f 78 109 110
f 78 110 79
f 79 111 112
f 79 112 80
f 79 110 111
f 80 112 113
f 80 113 114
f 80 114 115
f 80 115 83
f 80 83 81
f 82 108 116
f 82 116 109
f 83 115 84
f 84 115 117
f 84 117 85
f 85 117 118
f 85 118 86
f 86 118 89
f 87 88 95
f 88 119 95
f 88 92 119
f 89 120 121
f 89 121 91
f 89 118 120
f 90 91 93
f 91 121 122
f 91 122 123
f 91 123 124
f 91 124 93
f 92 93 125
f 92 125 126
f 92 126 127
f 92 127 119
f 93 124 125
f 94 96 128
f 94 128 98
f 95 119 96
f 96 119 127
f 96 127 128
f 97 129 130
f 97 130 99
f 97 98 129
f 98 128 131
f 98 131 129
f 99 132 100
f 99 130 132
f 100 133 134
f 100 134 101
f 100 132 133
f 101 134 102
f 102 134 135
f 102 135 136
f 102 136 103
f 103 136 104
f 104 136 137
f 104 137 138
f 104 138 105
f 105 138 106
f 106 139 107
f 106 138 139
f 107 139 108
f 108 139 140
f 108 140 116
f 109 116 141
f 109 141 110
f 110 141 142
f 110 142 111
f 111 143 112
f 111 142 144
f 111 144 143
f 112 143 113
f 113 143 145
f 113 145 146
f 113 146 114
f 114 146 147
f 114 147 148
f 114 148 115
f 115 148 117
f 116 140 149
f 116 149 141
f 117 150 151
f 117 151 118
f 117 148 150
f 118 151 120
f 120 152 121
f 120 151 153
f 120 153 152
f 121 152 154
f 121 154 122
f 122 154 155
f 122 155 123
f 123 155 156
f 123 156 157
f 123 157 124
f 124 157 125
f 125 157 126
f 126 157 158
f 126 158 159
f 126 159 127
f 127 159 160
f 127 160 128
f 128 160 131
f 129 161 162
f 129 162 132
f 129 132 130
f 129 131 163
f 129 163 161
f 131 160 164
f 131 164 163
f 132 165 133
f 132 162 165
f 133 166 134
f 133 165 166
f 134 167 135
f 134 166 167
f 135 168 136
f 135 167 168
f 136 168 137
f 137 168 169
f 137 169 170
f 137 170 138
f 138 170 171
f 138 171 139
f 139 171 140
f 140 171 172
f 140 172 149
f 141 149 173
f 141 173 142
f 142 173 174
f 142 174 144
f 143 144 175
f 143 175 176
f 143 176 145
f 144 174 175
f 145 176 177
f 145 177 178
f 145 178 146
f 146 178 147
f 147 178 179
f 147 179 150
f 147 150 148
f 149 172 180
f 149 180 173
f 150 179 181
f 150 181 153
f 150 153 151
f 152 153 182
f 152 182 154
f 153 181 182
f 154 182 183
f 154 183 155
f 155 183 184
f 155 184 156
f 156 184 185
f 156 185 186
f 156 186 157
f 157 186 158
f 158 187 188
f 158 188 159
f 158 186 189
f 158 189 187
f 159 188 160
f 160 188 164
f 161 190 162
f 161 163 191
f 161 191 190
f 162 190 192
f 162 192 165
f 163 164 191
f 164 188 193
f 164 193 191
f 165 192 166
f 166 194 167
f 166 192 195
f 166 195 196
f 166 196 194
f 167 194 168
f 168 194 197
f 168 197 198
f 168 198 169
f 169 198 199
f 169 199 170
f 170 199 171
f 171 199 172
f 172 199 200
f 172 200 180
f 173 180 201
f 173 201 202
f 173 202 203
f 173 203 174
f 174 203 204
f 174 204 175
f 175 205 206
f 175 206 176
f 175 204 205
f 176 206 177
f 177 206 207
f 177 207 208
f 177 208 178
f 178 208 209
f 178 209 179
f 179 209 181
f 180 210 201
f 180 200 210
f 181 211 182
f 181 209 211
f 182 211 183
f 183 211 212
f 183 212 213
f 183 213 184
f 184 213 185
f 185 214 215
f 185 215 186
f 185 213 214
f 186 215 189
f 187 216 217
f 187 217 193
f 187 193 188
f 187 189 216
f 189 215 216
f 190 218 192
f 190 191 219
f 190 219 218
f 191 220 219
f 191 193 220
f 192 218 195
f 193 217 220
f 194 196 221
f 194 221 197
f 195 218 222
f 195 222 196
f 196 222 223
f 196 223 221
f 197 221 224
f 197 224 198
f 198 224 210
f 198 210 200
f 198 200 199
f 201 210 225
f 201 225 202
f 202 225 226
f 202 226 203
f 203 226 204
f 204 226 227
f 204 227 205
f 205 227 207
f 205 207 206
f 207 227 228
f 207 228 229
f 207 229 208
f 208 229 230
f 208 230 209
f 209 230 211
f 210 224 225
f 211 230 212
f 212 230 231
f 212 231 232
f 212 232 213
f 213 232 214
f 214 232 233
f 214 233 215
f 215 233 216
f 216 234 235
f 216 235 236
f 216 236 217
f 216 233 234
f 217 236 220
f 218 219 237
f 218 237 222
f 219 220 236
f 219 236 237
f 221 223 238
f 221 238 224
f 222 237 239
f 222 239 240
f 222 240 223
f 223 240 238
f 224 238 225
f 225 241 242
f 225 242 226
f 225 238 241
f 226 242 227
f 227 243 228
f 227 242 243
f 228 244 229
f 228 243 245
f 228 245 244
f 229 231 230
f 229 244 231
f 231 244 246
f 231 246 232
f 232 246 233
f 233 246 234
f 234 247 235
f 234 246 247
f 235 247 248
f 235 248 249
f 235 249 236
f 236 250 237
f 236 249 250
f 237 250 239
f 238 251 241
f 238 240 251
f 239 252 240
f 239 250 253
f 239 253 252
f 240 252 251
f 241 251 254
f 241 254 242
f 242 254 243
f 243 255 245
f 243 254 255
f 244 245 247
f 244 247 246
f 245 255 247
f 247 255 248
f 248 255 254
f 248 254 256
f 248 256 253
f 248 253 249
f 249 253 250
f 251 252 256
f 251 256 254
f 252 253 256
