v -0.053842 -0.021482 0.027801
v -0.053842 -0.021449 0.029396
v -0.053842 -0.021433 0.027254
v -0.037304 -0.045172 0.029302
v -0.053842 -0.021117 0.030115
v -0.037170 -0.045172 0.031260
v -0.036759 -0.045172 0.033018
v -0.053842 -0.020185 0.026251
v -0.030155 -0.039348 0.010347
v -0.029230 -0.040864 0.010347
v -0.036902 -0.045172 0.027604
v -0.053842 -0.020656 0.030484
v -0.036727 -0.045172 0.033091
v -0.036262 -0.045172 0.034025
v -0.053842 -0.004440 0.020173
v -0.030419 -0.038732 0.010347
v -0.028161 -0.041989 0.010347
v -0.027097 -0.042606 0.010347
v -0.026981 -0.042648 0.010347
v -0.025067 -0.043098 0.010347
v -0.035449 -0.045172 0.026700
v -0.053842 -0.019890 0.030632
v -0.036218 -0.045027 0.034192
v -0.035162 -0.045027 0.035274
v -0.033343 -0.045027 0.036253
v -0.035118 -0.045172 0.035233
v -0.053842 0.009559 0.020173
v -0.030638 -0.038121 0.010347
v -0.030602 -0.038229 0.010347
v -0.022760 -0.043334 0.010347
v -0.022854 -0.045172 0.022419
v -0.053842 -0.017737 0.030972
v -0.033490 -0.045172 0.036105
v -0.033338 -0.045172 0.036183
v -0.031031 -0.045172 0.036586
v -0.033343 -0.042927 0.036578
v -0.053842 0.009430 0.020913
v -0.052242 0.009377 0.020913
v -0.052242 0.009500 0.020173
v -0.022751 -0.024348 0.011414
v -0.027083 -0.026357 0.011430
v -0.028125 -0.027160 0.011430
v -0.013961 -0.038121 0.010347
v -0.020761 -0.043281 0.010347
v -0.018678 -0.045172 0.021907
v -0.019720 -0.045172 0.021920
v -0.021088 -0.045172 0.022071
v -0.053842 -0.017228 0.031006
v -0.029314 -0.045172 0.036606
v -0.024946 -0.040548 0.036814
v -0.024946 -0.038732 0.036874
v -0.027061 -0.036627 0.036871
v -0.028782 -0.036627 0.036806
v -0.033343 -0.038732 0.036599
v -0.035449 -0.030326 0.036147
v -0.053842 -0.000957 0.031712
v -0.053842 -0.002543 0.031678
v -0.053842 -0.003047 0.031665
v -0.053842 -0.007247 0.031496
v -0.053842 -0.009342 0.031405
v -0.053842 -0.015631 0.031104
v -0.053842 0.008943 0.022221
v -0.050140 0.008761 0.022473
v -0.050140 0.009286 0.020913
v -0.050140 0.009388 0.020173
v -0.021048 -0.024471 0.011414
v -0.013174 -0.034532 0.011414
v -0.013264 -0.036011 0.011414
v -0.008167 -0.045172 0.025989
v -0.014100 -0.038732 0.010347
v -0.020712 -0.024508 0.011414
v -0.018598 -0.025848 0.011414
v -0.017171 -0.026807 0.011414
v -0.016671 -0.027203 0.011414
v -0.015186 -0.028880 0.011414
v -0.014900 -0.029378 0.011414
v -0.014489 -0.030268 0.011414
v -0.013340 -0.032834 0.011414
v -0.013282 -0.033032 0.011414
v -0.013255 -0.033337 0.011414
v -0.018750 -0.042959 0.010347
v -0.018584 -0.045172 0.021928
v -0.029297 -0.045172 0.036606
v -0.018799 -0.045172 0.036399
v -0.016559 -0.045027 0.036344
v -0.022854 -0.040372 0.036762
v -0.022854 -0.038732 0.036819
v -0.019568 -0.035287 0.036687
v -0.027061 -0.034521 0.036838
v -0.028523 -0.034521 0.036752
v -0.033352 -0.028226 0.036222
v -0.033352 -0.026126 0.036064
v -0.053842 0.001148 0.031541
v -0.053842 0.008798 0.022577
v -0.053842 0.008402 0.023374
v -0.053842 0.006687 0.026693
v -0.053842 0.006141 0.027742
v -0.048043 0.008177 0.023372
v -0.012137 0.004657 0.024966
v -0.048043 0.008654 0.022323
v -0.048043 0.009136 0.020173
v -0.008167 -0.045118 0.025999
v -0.018691 -0.042943 0.010347
v -0.016559 -0.041989 0.010347
v -0.014949 -0.040720 0.010347
v -0.008167 -0.045172 0.030691
v -0.044811 0.008568 0.020173
v -0.022751 0.002562 0.020173
v -0.016702 -0.045172 0.036339
v -0.014466 -0.045027 0.035877
v -0.014466 -0.042927 0.036264
v -0.019527 -0.036627 0.036695
v -0.020006 -0.038121 0.036690
v -0.020466 -0.038121 0.036716
v -0.020779 -0.038630 0.036721
v -0.014466 -0.040832 0.036209
v -0.016563 -0.026132 0.036059
v -0.018656 -0.026132 0.036186
v -0.023672 -0.031248 0.036677
v -0.024495 -0.031248 0.036677
v -0.029158 -0.024026 0.036142
v -0.030996 -0.025864 0.036217
v -0.031250 -0.026126 0.036227
v -0.052242 0.001148 0.031496
v -0.053842 0.003130 0.030860
v -0.020761 -0.024032 0.036082
v -0.048437 0.006543 0.026368
v -0.053842 0.005091 0.029219
v -0.052242 0.005021 0.029131
v -0.008167 -0.043693 0.029302
v -0.008167 -0.043907 0.027204
v -0.008167 -0.044143 0.026755
v -0.012137 0.004046 0.025786
v -0.008167 -0.045054 0.030678
v -0.011198 -0.041689 0.034708
v -0.011198 -0.042354 0.034708
v -0.011390 -0.043752 0.034438
v -0.012888 -0.045172 0.034976
v -0.014605 -0.045172 0.035869
v -0.014475 -0.045172 0.035812
v -0.012839 -0.045027 0.035012
v -0.012204 -0.043002 0.035282
v -0.012352 -0.040929 0.035269
v -0.014364 -0.026212 0.035173
v -0.012137 -0.005152 0.031206
v -0.012137 -0.004927 0.031169
v -0.018656 -0.024032 0.035965
v -0.050140 0.001148 0.031416
v -0.052242 0.003007 0.030816
v -0.053842 0.004180 0.030268
v -0.053842 0.004411 0.030016
v -0.012137 0.002953 0.027017
v -0.012137 0.001941 0.028020
v -0.012137 0.001110 0.028658
v -0.012137 -0.000909 0.029835
v -0.012137 -0.001032 0.029899
v -0.012137 -0.002002 0.030351
v -0.012137 -0.002811 0.030645
v -0.012137 -0.002950 0.030681
v -0.013358 -0.026962 0.034646
v -0.050140 0.002836 0.030749
f 1 2 5
f 1 5 12
f 1 12 22
f 1 22 32
f 1 32 48
f 1 48 61
f 1 61 60
f 1 60 59
f 1 59 58
f 1 58 57
f 1 57 56
f 1 56 93
f 1 93 125
f 1 125 150
f 1 150 151
f 1 151 128
f 1 128 97
f 1 97 96
f 1 96 95
f 1 95 94
f 1 94 62
f 1 62 37
f 1 37 27
f 1 27 15
f 1 15 8
f 1 8 3
f 1 3 4
f 1 4 2
f 2 4 6
f 2 6 7
f 2 7 5
f 3 8 9
f 3 9 10
f 3 10 11
f 3 11 4
f 4 11 21
f 4 21 31
f 4 31 47
f 4 47 46
f 4 46 45
f 4 45 82
f 4 82 69
f 4 69 106
f 4 106 138
f 4 138 140
f 4 140 139
f 4 139 109
f 4 109 84
f 4 84 83
f 4 83 49
f 4 49 35
f 4 35 34
f 4 34 33
f 4 33 26
f 4 26 14
f 4 14 13
f 4 13 7
f 4 7 6
f 5 7 13
f 5 13 14
f 5 14 12
f 8 15 16
f 8 16 9
f 9 16 29
f 9 29 28
f 9 28 43
f 9 43 70
f 9 70 105
f 9 105 104
f 9 104 103
f 9 103 81
f 9 81 44
f 9 44 30
f 9 30 20
f 9 20 19
f 9 19 18
f 9 18 17
f 9 17 10
f 10 17 11
f 11 17 18
f 11 18 19
f 11 19 20
f 11 20 21
f 12 14 23
f 12 23 24
f 12 24 25
f 12 25 22
f 14 26 23
f 15 27 28
f 15 28 29
f 15 29 16
f 20 30 21
f 21 30 31
f 22 25 32
f 23 26 24
f 24 26 25
f 25 26 33
f 25 33 34
f 25 34 35
f 25 35 36
f 25 36 32
f 27 37 38
f 27 38 39
f 27 39 40
f 27 40 41
f 27 41 42
f 27 42 28
f 28 42 41
f 28 41 40
f 28 40 43
f 30 44 45
f 30 45 46
f 30 46 47
f 30 47 31
f 32 36 48
f 35 49 50
f 35 50 51
f 35 51 52
f 35 52 36
f 36 52 53
f 36 53 54
f 36 54 55
f 36 55 56
f 36 56 57
f 36 57 58
f 36 58 59
f 36 59 60
f 36 60 61
f 36 61 48
f 37 62 63
f 37 63 38
f 38 64 39
f 38 63 64
f 39 65 40
f 39 64 65
f 40 65 66
f 40 66 43
f 43 67 68
f 43 68 69
f 43 69 70
f 43 66 71
f 43 71 72
f 43 72 73
f 43 73 74
f 43 74 75
f 43 75 76
f 43 76 77
f 43 77 78
f 43 78 79
f 43 79 80
f 43 80 67
f 44 81 69
f 44 69 82
f 44 82 45
f 49 83 50
f 50 83 84
f 50 84 85
f 50 85 86
f 50 86 87
f 50 87 51
f 51 87 88
f 51 88 89
f 51 89 52
f 52 89 53
f 53 89 90
f 53 90 54
f 54 90 91
f 54 91 55
f 55 91 92
f 55 92 56
f 56 92 93
f 62 94 63
f 63 95 96
f 63 96 97
f 63 97 98
f 63 98 99
f 63 99 100
f 63 100 64
f 63 94 95
f 64 100 99
f 64 99 65
f 65 101 71
f 65 71 66
f 65 99 101
f 67 102 69
f 67 69 68
f 67 80 102
f 69 81 103
f 69 103 104
f 69 104 105
f 69 105 70
f 69 102 132
f 69 132 131
f 69 131 130
f 69 130 134
f 69 134 106
f 71 101 107
f 71 107 108
f 71 108 72
f 72 108 73
f 73 108 74
f 74 108 99
f 74 99 75
f 75 99 76
f 76 99 77
f 77 99 78
f 78 99 79
f 79 99 80
f 80 99 102
f 84 109 85
f 85 109 110
f 85 110 111
f 85 111 112
f 85 112 113
f 85 113 114
f 85 114 115
f 85 115 87
f 85 87 86
f 87 115 114
f 87 114 112
f 87 112 88
f 88 112 111
f 88 111 116
f 88 116 117
f 88 117 118
f 88 118 119
f 88 119 89
f 89 119 120
f 89 120 121
f 89 121 122
f 89 122 123
f 89 123 91
f 89 91 90
f 91 123 92
f 92 123 93
f 93 124 125
f 93 123 122
f 93 122 121
f 93 121 126
f 93 126 124
f 97 127 98
f 97 128 129
f 97 129 99
f 97 99 127
f 98 127 99
f 99 130 131
f 99 131 132
f 99 132 102
f 99 108 107
f 99 107 101
f 99 129 133
f 99 133 130
f 106 134 135
f 106 135 136
f 106 136 137
f 106 137 138
f 109 139 110
f 110 139 140
f 110 140 138
f 110 138 141
f 110 141 142
f 110 142 111
f 111 142 116
f 112 114 113
f 116 142 143
f 116 143 144
f 116 144 117
f 117 144 145
f 117 145 146
f 117 146 147
f 117 147 118
f 118 147 126
f 118 126 119
f 119 126 121
f 119 121 120
f 124 148 125
f 124 126 148
f 125 149 150
f 125 148 149
f 126 147 146
f 126 146 148
f 128 151 129
f 129 151 133
f 130 133 152
f 130 152 134
f 133 151 152
f 134 152 153
f 134 153 154
f 134 154 155
f 134 155 156
f 134 156 157
f 134 157 158
f 134 158 159
f 134 159 146
f 134 146 145
f 134 145 135
f 135 143 142
f 135 142 136
f 135 145 160
f 135 160 144
f 135 144 143
f 136 142 137
f 137 142 141
f 137 141 138
f 144 160 145
f 146 159 148
f 148 159 158
f 148 158 157
f 148 157 149
f 149 157 156
f 149 156 161
f 149 161 150
f 150 161 155
f 150 155 154
f 150 154 153
f 150 153 152
f 150 152 151
f 155 161 156
