v -0.054368 0.009770 0.018803
v -0.054368 0.009602 0.016713
v -0.056457 0.009572 0.016713
v -0.056457 0.009643 0.018803
v -0.056457 0.009413 0.020903
v -0.054111 0.009439 0.020903
v -0.052257 0.009617 0.019483
v -0.012135 0.006920 0.018803
v -0.050157 0.009439 0.016713
v -0.052257 0.009551 0.016713
v -0.056918 0.008715 0.013390
v -0.058568 0.009342 0.016713
v -0.058568 0.009419 0.018803
v -0.058568 0.009199 0.020903
v -0.056457 0.008256 0.024353
v -0.058568 0.008562 0.023243
v -0.012135 0.006160 0.022101
v -0.050157 0.009378 0.020163
v -0.012135 0.006721 0.016094
v -0.049525 0.008659 0.014032
v -0.056478 0.007465 0.010414
v -0.058568 0.007302 0.010414
v -0.065199 0.006542 0.011345
v -0.064867 0.007634 0.014613
v -0.060571 0.008786 0.015813
v -0.062564 0.008536 0.016796
v -0.061546 0.008898 0.018803
v -0.061610 0.008552 0.021336
v -0.058568 0.007685 0.025226
v -0.058557 0.006506 0.027398
v -0.056457 0.006557 0.027478
v -0.012135 0.004670 0.024928
v -0.065692 0.006940 0.023290
v -0.064589 0.006058 0.026434
v -0.012135 -0.010431 0.015656
v -0.022774 0.000764 0.010670
v -0.054121 0.003946 0.006246
v -0.056478 0.004885 0.006739
v -0.054121 0.006262 0.008462
v -0.056478 0.006292 0.008432
v -0.059553 0.006246 0.008622
v -0.062767 0.005573 0.008314
v -0.068788 0.004130 0.008696
v -0.070470 0.004084 0.010111
v -0.064867 0.007980 0.016713
v -0.072495 0.004058 0.013079
v -0.068156 0.006695 0.016270
v -0.064867 0.008026 0.018803
v -0.064867 0.007787 0.020903
v -0.065563 0.004308 0.028829
v -0.062767 0.004125 0.029683
v -0.060657 0.004283 0.029826
v -0.058557 0.004410 0.029903
v -0.056457 0.004456 0.029942
v -0.054143 0.003926 0.030283
v -0.054111 0.001146 0.031547
v -0.053854 -0.000955 0.031709
v -0.012135 -0.010109 0.024959
v -0.067835 0.006670 0.021041
v -0.072281 0.004155 0.023254
v -0.071917 0.002834 0.027205
v -0.053875 -0.020080 0.005291
v -0.022774 -0.009217 0.010670
v -0.099772 -0.042331 0.027979
v -0.100082 -0.041505 0.004685
v -0.053875 -0.014725 0.004613
v -0.053875 -0.011961 0.004660
v -0.053875 -0.009859 0.004702
v -0.053875 -0.006330 0.004795
v -0.053875 -0.003051 0.004925
v -0.054057 -0.000032 0.005109
v -0.057528 0.002365 0.005511
v -0.058568 0.004849 0.006766
v -0.061717 0.003972 0.006408
v -0.066356 0.003650 0.007064
v -0.071124 0.001860 0.006967
v -0.073106 0.002171 0.008520
v -0.074188 0.002457 0.010376
v -0.066924 0.007368 0.018803
v -0.071113 0.005379 0.016713
v -0.078987 -0.000241 0.011174
v -0.073191 0.004273 0.016713
v -0.069131 0.006445 0.018803
v -0.068574 0.001876 0.030231
v -0.071413 0.001922 0.029050
v -0.064867 0.001901 0.031002
v -0.060657 0.001146 0.031555
v -0.058557 0.001146 0.031605
v -0.056457 0.001146 0.031605
v -0.053854 -0.003046 0.031665
v -0.058557 -0.000955 0.031739
v -0.053854 -0.007253 0.031494
v -0.053854 -0.009349 0.031401
v -0.053854 -0.016683 0.031037
v -0.053854 -0.020268 0.030556
v -0.071113 0.005216 0.020903
v -0.073074 0.004191 0.020903
v -0.078484 -0.000083 0.024405
v -0.073824 0.002483 0.025647
v -0.076823 -0.000200 0.027646
v -0.074102 0.000392 0.029138
v -0.053875 -0.017729 0.004671
v -0.101796 -0.040061 0.030269
v -0.102996 -0.042122 0.027893
v -0.121584 -0.038113 0.014615
v -0.120652 -0.037414 0.005343
v -0.117310 -0.037374 0.003683
v -0.102621 -0.038725 0.003675
v -0.098411 -0.036624 0.003733
v -0.102611 -0.036624 0.003636
v -0.056478 -0.003051 0.004925
v -0.105760 -0.034528 0.003697
v -0.056478 -0.000256 0.005076
v -0.060678 0.001396 0.005266
v -0.066313 0.000800 0.005412
v -0.069035 0.001911 0.006353
v -0.073234 0.000703 0.006717
v -0.075184 0.000330 0.007466
v -0.076834 0.000366 0.008930
v -0.071113 0.005420 0.018803
v -0.079448 0.000040 0.014613
v -0.076148 0.002442 0.016570
v -0.080766 -0.001847 0.009831
v -0.086980 -0.006116 0.012061
v -0.075313 0.002972 0.018803
v -0.073191 0.004273 0.018803
v -0.072291 -0.000634 0.030784
v -0.062767 0.001146 0.031450
v -0.069045 -0.000955 0.031481
v -0.066945 -0.000955 0.031657
v -0.064867 -0.000955 0.031695
v -0.060657 -0.000955 0.031748
v -0.060657 -0.003046 0.031682
v -0.111021 -0.034528 0.030721
v -0.111996 -0.036996 0.030638
v -0.102621 -0.037522 0.030539
v -0.076759 0.001937 0.020025
v -0.079395 -0.000001 0.020903
v -0.081055 -0.001582 0.023004
v -0.080327 -0.001832 0.025815
v -0.078934 -0.001659 0.027838
v -0.077166 -0.001832 0.029540
v -0.117277 -0.037409 0.030352
v -0.120824 -0.037787 0.028086
v -0.118981 -0.034987 0.008314
v -0.118092 -0.034814 0.005018
v -0.116549 -0.033243 0.004927
v -0.115220 -0.034528 0.003914
v -0.110999 -0.032427 0.003837
v -0.115220 -0.037374 0.003622
v -0.100522 -0.037522 0.003694
v -0.110999 -0.036624 0.003628
v -0.106810 -0.032427 0.003790
v -0.075323 -0.007253 0.004845
v -0.063174 0.000636 0.005219
v -0.069035 -0.000649 0.005255
v -0.072377 -0.001638 0.005379
v -0.075345 -0.000868 0.006499
v -0.081751 -0.004030 0.007267
v -0.079223 -0.002194 0.007507
v -0.082962 -0.003897 0.008936
v -0.081923 -0.001766 0.016713
v -0.079502 0.000086 0.016713
v -0.079512 0.000091 0.018803
v -0.086626 -0.006407 0.009919
v -0.091190 -0.010313 0.009164
v -0.101293 -0.018983 0.008314
v -0.099332 -0.016806 0.011309
v -0.092594 -0.010884 0.012512
v -0.087065 -0.006050 0.014615
v -0.075238 -0.002250 0.030724
v -0.073245 -0.003046 0.031409
v -0.071134 -0.003046 0.031599
v -0.069045 -0.003046 0.031673
v -0.066945 -0.003046 0.031687
v -0.062767 -0.003046 0.031684
v -0.098422 -0.024027 0.031021
v -0.106821 -0.030326 0.030828
v -0.115210 -0.036624 0.030608
v -0.081901 -0.001781 0.018803
v -0.081237 -0.001450 0.020903
v -0.086380 -0.005672 0.021212
v -0.086615 -0.006356 0.024375
v -0.085083 -0.006325 0.027563
v -0.086958 -0.008243 0.028320
v -0.083305 -0.005713 0.028766
v -0.080380 -0.003806 0.029143
v -0.082330 -0.006529 0.030165
v -0.114299 -0.033360 0.030404
v -0.112135 -0.031325 0.030379
v -0.103928 -0.022737 0.028549
v -0.119099 -0.035879 0.027533
v -0.110324 -0.026847 0.016716
v -0.109317 -0.025659 0.010414
v -0.114288 -0.031264 0.005054
v -0.106093 -0.024818 0.004991
v -0.107592 -0.026424 0.004790
v -0.113110 -0.032427 0.004088
v -0.108557 -0.025384 0.007722
v -0.104721 -0.026128 0.004231
v -0.106810 -0.028224 0.004099
v -0.108910 -0.032427 0.003807
v -0.100511 -0.024027 0.004220
v -0.102611 -0.026128 0.004090
v -0.073234 -0.004305 0.005015
v -0.075409 -0.005030 0.005026
v -0.075495 -0.003663 0.005307
v -0.085983 -0.010349 0.005148
v -0.095283 -0.016653 0.005153
v -0.084794 -0.006198 0.007262
v -0.093258 -0.012420 0.008118
v -0.083862 -0.003362 0.017770
v -0.087076 -0.006029 0.016716
v -0.095347 -0.014541 0.007193
v -0.099364 -0.016780 0.014615
v -0.092658 -0.010854 0.014615
v -0.078591 -0.004821 0.030768
v -0.079534 -0.007253 0.031244
v -0.075334 -0.005152 0.031459
v -0.077434 -0.007253 0.031467
v -0.073245 -0.005152 0.031580
v -0.079534 -0.009349 0.031434
v -0.104721 -0.028224 0.030867
v -0.111021 -0.032417 0.030691
v -0.087055 -0.006055 0.018803
v -0.093108 -0.011502 0.020906
v -0.093579 -0.012129 0.023004
v -0.098893 -0.017173 0.025102
v -0.093065 -0.012583 0.026682
v -0.101732 -0.020748 0.028450
v -0.093665 -0.014164 0.028686
v -0.095015 -0.016928 0.030211
v -0.099514 -0.020824 0.030377
v -0.093622 -0.016357 0.030525
v -0.106885 -0.028158 0.030660
v -0.105471 -0.026439 0.030586
v -0.104003 -0.024818 0.030487
v -0.109874 -0.029362 0.030311
v -0.105407 -0.025384 0.030085
v -0.110185 -0.026975 0.020906
v -0.110260 -0.026903 0.018803
v -0.105632 -0.023038 0.024356
v -0.105921 -0.022839 0.018803
v -0.105385 -0.022273 0.016716
v -0.101571 -0.018779 0.015675
v -0.112028 -0.029300 0.005238
v -0.103393 -0.023757 0.004682
v -0.098411 -0.021931 0.004352
v -0.077434 -0.007253 0.004897
v -0.092133 -0.010410 0.016716
v -0.094329 -0.012414 0.018803
v -0.098422 -0.021921 0.030878
v -0.092122 -0.017724 0.031087
v -0.092615 -0.010905 0.018803
v -0.099086 -0.017004 0.023004
v -0.099193 -0.016928 0.020906
f 1 2 3
f 1 3 4
f 1 4 5
f 1 5 6
f 1 6 7
f 1 7 8
f 1 8 9
f 1 9 10
f 1 10 2
f 2 11 3
f 2 10 11
f 3 11 12
f 3 12 13
f 3 13 4
f 4 13 14
f 4 14 5
f 5 15 6
f 5 14 16
f 5 16 15
f 6 17 18
f 6 18 7
f 6 15 17
f 7 18 8
f 8 17 32
f 8 32 58
f 8 58 35
f 8 35 19
f 8 19 9
f 8 18 17
f 9 19 20
f 9 20 10
f 10 20 11
f 11 20 21
f 11 21 22
f 11 22 23
f 11 23 24
f 11 24 25
f 11 25 12
f 12 25 26
f 12 26 27
f 12 27 13
f 13 27 14
f 14 27 28
f 14 28 16
f 15 16 29
f 15 29 30
f 15 30 31
f 15 31 32
f 15 32 17
f 16 28 33
f 16 33 34
f 16 34 29
f 19 35 36
f 19 36 37
f 19 37 38
f 19 38 39
f 19 39 21
f 19 21 20
f 21 40 41
f 21 41 22
f 21 39 40
f 22 41 42
f 22 42 23
f 23 42 43
f 23 43 44
f 23 44 24
f 24 45 26
f 24 26 25
f 24 44 46
f 24 46 47
f 24 47 45
f 26 45 27
f 27 45 48
f 27 48 49
f 27 49 28
f 28 49 33
f 29 34 30
f 30 34 50
f 30 50 51
f 30 51 52
f 30 52 53
f 30 53 31
f 31 53 54
f 31 54 32
f 32 55 56
f 32 56 57
f 32 57 58
f 32 54 55
f 33 49 59
f 33 59 60
f 33 60 61
f 33 61 34
f 34 61 50
f 35 62 63
f 35 63 36
f 35 58 64
f 35 64 65
f 35 65 62
f 36 63 66
f 36 66 67
f 36 67 68
f 36 68 69
f 36 69 70
f 36 70 71
f 36 71 37
f 37 71 72
f 37 72 38
f 38 72 73
f 38 73 40
f 38 40 39
f 40 73 41
f 41 73 42
f 42 74 75
f 42 75 43
f 42 73 74
f 43 75 76
f 43 76 77
f 43 77 44
f 44 77 78
f 44 78 46
f 45 47 79
f 45 79 48
f 46 80 47
f 46 78 81
f 46 81 82
f 46 82 80
f 47 80 83
f 47 83 79
f 48 79 49
f 49 79 59
f 50 84 51
f 50 61 85
f 50 85 84
f 51 84 86
f 51 86 52
f 52 86 53
f 53 86 87
f 53 87 54
f 54 87 55
f 55 87 88
f 55 88 89
f 55 89 56
f 56 89 57
f 57 90 58
f 57 89 91
f 57 91 90
f 58 90 92
f 58 92 93
f 58 93 94
f 58 94 95
f 58 95 64
f 59 79 83
f 59 83 96
f 59 96 60
f 60 96 97
f 60 97 98
f 60 98 99
f 60 99 61
f 61 99 100
f 61 100 101
f 61 101 85
f 62 102 63
f 62 65 102
f 63 102 66
f 64 95 103
f 64 103 104
f 64 104 65
f 65 104 105
f 65 105 106
f 65 106 107
f 65 107 108
f 65 108 102
f 66 102 109
f 66 109 110
f 66 110 67
f 67 110 68
f 68 110 69
f 69 111 70
f 69 110 112
f 69 112 111
f 70 111 113
f 70 113 71
f 71 113 114
f 71 114 72
f 72 114 74
f 72 74 73
f 74 114 115
f 74 115 116
f 74 116 75
f 75 116 76
f 76 117 77
f 76 116 117
f 77 117 118
f 77 118 119
f 77 119 78
f 78 119 81
f 80 82 120
f 80 120 83
f 81 121 122
f 81 122 82
f 81 119 123
f 81 123 124
f 81 124 121
f 82 125 126
f 82 126 120
f 82 122 125
f 83 120 96
f 84 85 127
f 84 127 86
f 85 101 127
f 86 128 87
f 86 127 129
f 86 129 128
f 87 128 130
f 87 130 88
f 88 130 131
f 88 131 132
f 88 132 89
f 89 132 91
f 90 91 132
f 90 132 133
f 90 133 134
f 90 134 135
f 90 135 92
f 92 135 136
f 92 136 93
f 93 136 94
f 94 136 103
f 94 103 95
f 96 120 97
f 97 120 126
f 97 126 125
f 97 125 137
f 97 137 98
f 98 138 139
f 98 139 140
f 98 140 141
f 98 141 100
f 98 100 99
f 98 137 138
f 100 141 101
f 101 141 142
f 101 142 127
f 102 108 109
f 103 136 135
f 103 135 143
f 103 143 104
f 104 143 144
f 104 144 105
f 105 144 145
f 105 145 106
f 106 145 146
f 106 146 107
f 107 146 147
f 107 147 148
f 107 148 149
f 107 149 150
f 107 150 108
f 108 110 151
f 108 151 109
f 108 150 110
f 109 151 110
f 110 150 152
f 110 152 112
f 111 112 153
f 111 153 154
f 111 154 113
f 112 152 153
f 113 154 155
f 113 155 114
f 114 155 115
f 115 156 157
f 115 157 116
f 115 155 156
f 116 157 117
f 117 158 118
f 117 157 158
f 118 158 159
f 118 159 160
f 118 160 119
f 119 160 159
f 119 159 161
f 119 161 123
f 121 162 163
f 121 163 122
f 121 124 162
f 122 163 164
f 122 164 125
f 123 161 165
f 123 165 124
f 124 165 166
f 124 166 167
f 124 167 168
f 124 168 169
f 124 169 170
f 124 170 162
f 125 164 137
f 127 142 171
f 127 171 172
f 127 172 129
f 128 129 130
f 129 172 173
f 129 173 130
f 130 173 174
f 130 174 131
f 131 174 132
f 132 174 175
f 132 175 176
f 132 176 133
f 133 176 134
f 134 177 178
f 134 178 179
f 134 179 135
f 134 176 175
f 134 175 174
f 134 174 177
f 135 179 143
f 137 164 138
f 138 164 180
f 138 180 181
f 138 181 139
f 139 181 182
f 139 182 183
f 139 183 140
f 140 183 184
f 140 184 141
f 141 184 185
f 141 185 186
f 141 186 187
f 141 187 142
f 142 187 188
f 142 188 171
f 143 179 189
f 143 189 144
f 144 189 190
f 144 190 191
f 144 191 192
f 144 192 145
f 145 147 146
f 145 192 193
f 145 193 194
f 145 194 147
f 147 195 196
f 147 196 197
f 147 197 198
f 147 198 148
f 147 194 199
f 147 199 195
f 148 198 200
f 148 200 201
f 148 201 149
f 149 202 150
f 149 201 203
f 149 203 204
f 149 204 202
f 150 202 153
f 150 153 152
f 153 202 154
f 154 205 155
f 154 202 204
f 154 204 205
f 155 205 156
f 156 205 206
f 156 206 157
f 157 206 207
f 157 207 158
f 158 207 208
f 158 208 209
f 158 209 159
f 159 209 210
f 159 210 161
f 161 210 211
f 161 211 166
f 161 166 165
f 162 212 180
f 162 180 164
f 162 164 163
f 162 170 213
f 162 213 212
f 166 211 167
f 167 195 199
f 167 199 168
f 167 211 214
f 167 214 195
f 168 199 194
f 168 194 215
f 168 215 216
f 168 216 169
f 169 216 170
f 170 216 213
f 171 188 217
f 171 217 172
f 172 217 218
f 172 218 219
f 172 219 173
f 173 219 220
f 173 220 221
f 173 221 174
f 174 221 177
f 177 222 223
f 177 223 178
f 177 221 222
f 178 223 224
f 178 224 179
f 179 224 189
f 180 212 225
f 180 225 182
f 180 182 181
f 182 225 226
f 182 226 227
f 182 227 183
f 183 227 228
f 183 228 229
f 183 229 184
f 184 229 185
f 185 229 230
f 185 230 231
f 185 231 186
f 186 188 187
f 186 231 232
f 186 232 188
f 188 232 233
f 188 233 234
f 188 234 217
f 189 224 235
f 189 235 236
f 189 236 190
f 190 236 237
f 190 237 233
f 190 233 238
f 190 238 239
f 190 239 231
f 190 231 230
f 190 230 191
f 191 230 192
f 192 240 241
f 192 241 193
f 192 230 228
f 192 228 242
f 192 242 240
f 193 241 243
f 193 243 194
f 194 243 244
f 194 244 245
f 194 245 215
f 195 214 246
f 195 246 196
f 196 246 214
f 196 214 210
f 196 210 209
f 196 209 197
f 197 209 247
f 197 247 198
f 198 247 200
f 200 247 209
f 200 209 208
f 200 208 206
f 200 206 248
f 200 248 203
f 200 203 201
f 203 248 206
f 203 206 204
f 204 206 249
f 204 249 205
f 205 249 206
f 206 208 207
f 210 214 211
f 212 213 225
f 213 216 250
f 213 250 225
f 215 245 251
f 215 251 250
f 215 250 216
f 217 234 218
f 218 234 237
f 218 237 236
f 218 236 235
f 218 235 252
f 218 252 253
f 218 253 219
f 219 253 220
f 220 253 224
f 220 224 223
f 220 223 222
f 220 222 221
f 224 253 252
f 224 252 235
f 225 250 254
f 225 254 226
f 226 251 255
f 226 255 227
f 226 254 251
f 227 255 228
f 228 255 242
f 228 230 229
f 231 239 233
f 231 233 232
f 233 239 238
f 233 237 234
f 240 242 243
f 240 243 241
f 242 255 243
f 243 255 256
f 243 256 251
f 243 251 245
f 243 245 244
f 250 251 254
f 251 256 255
