v -0.012135 -0.026399 0.029372
v -0.012135 -0.025994 0.031344
v -0.012135 -0.025647 0.027150
v -0.012120 -0.025216 0.006216
v -0.004933 -0.020932 0.028273
v -0.012135 -0.023810 0.031563
v 0.007529 -0.008219 0.030198
v 0.013972 -0.002041 0.030405
v 0.020375 0.004129 0.030504
v 0.053771 0.035782 0.030346
v 0.060574 0.042631 0.030613
v 0.061107 0.045228 0.031829
v 0.058552 0.043632 0.032265
v -0.012135 -0.024034 0.026091
v -0.012120 -0.024265 0.003994
v -0.004674 -0.019021 0.005637
v 0.001267 -0.013480 0.005918
v 0.028573 0.012714 0.007241
v -0.002801 -0.018873 0.028259
v -0.012135 -0.007004 0.031335
v 0.052901 0.042937 0.032532
v 0.050621 0.043135 0.032579
v 0.041035 0.035774 0.032456
v 0.019145 0.017942 0.032006
v 0.004449 0.005362 0.031706
v 0.066390 0.048354 0.024552
v 0.062494 0.044649 0.030467
v 0.057839 0.045989 0.032461
v 0.063121 0.047337 0.030939
v 0.061107 0.047337 0.031810
v -0.012135 -0.009626 0.024549
v -0.012120 -0.022024 0.003896
v 0.036983 0.023136 0.005151
v 0.020414 0.006180 0.005050
v 0.016229 0.001970 0.005030
v 0.007843 -0.006392 0.005028
v 0.039131 0.023095 0.007160
v 0.032790 0.016833 0.007193
v -0.012135 -0.005019 0.031186
v 0.046192 0.042168 0.032470
v 0.054821 0.045228 0.032568
v 0.052721 0.045228 0.032591
v 0.048457 0.043177 0.032529
v 0.066954 0.049413 0.024827
v 0.066429 0.048884 0.026990
v 0.055966 0.039885 0.007140
v 0.066790 0.049967 0.014611
v 0.067103 0.049793 0.018802
v 0.067158 0.049669 0.020906
v 0.064477 0.047337 0.029417
v 0.056914 0.048578 0.032130
v 0.054821 0.047411 0.032459
v 0.065026 0.050224 0.028838
v 0.063239 0.049430 0.030352
v 0.061107 0.049430 0.031153
v 0.059015 0.049430 0.031636
v -0.012120 -0.009320 0.004320
v -0.012135 0.004443 0.025254
v -0.006045 -0.007227 0.004314
v -0.003945 -0.007227 0.004297
v 0.008650 0.003277 0.004542
v 0.038684 0.027958 0.005143
v 0.054806 0.043127 0.005525
v 0.054806 0.041026 0.005848
v 0.059696 0.044947 0.006533
v -0.012135 -0.001685 0.030186
v 0.049116 0.044748 0.032501
v 0.050464 0.046328 0.032445
v 0.048512 0.047337 0.031917
v 0.052721 0.047320 0.032442
v 0.067934 0.051530 0.020906
v 0.067299 0.052366 0.023004
v 0.066554 0.052357 0.025366
v 0.066108 0.051390 0.027080
v 0.061993 0.047056 0.007145
v 0.064462 0.048487 0.009749
v 0.066319 0.051431 0.012111
v 0.067644 0.051530 0.016712
v 0.067902 0.051530 0.018802
v 0.054821 0.049430 0.032001
v 0.063223 0.052051 0.028765
v 0.061389 0.051274 0.030153
v 0.058568 0.052374 0.030212
v 0.054821 0.052118 0.030765
v -0.012120 -0.005118 0.004615
v -0.011179 -0.007227 0.004401
v 0.006550 0.005386 0.004654
v -0.009181 0.006395 0.026128
v -0.006970 0.008414 0.026007
v -0.005411 0.010804 0.024546
v -0.012120 0.006189 0.022176
v -0.012120 0.006867 0.019372
v -0.012120 0.006867 0.016710
v -0.012120 0.006462 0.014611
v -0.012120 0.005676 0.012485
v -0.012120 0.002930 0.008690
v -0.012120 0.001276 0.007261
v -0.012120 -0.001024 0.005882
v -0.012120 -0.002744 0.005118
v -0.012135 0.002971 0.027012
v 0.056898 0.043127 0.005943
v 0.048512 0.041018 0.005575
v 0.054806 0.045228 0.005660
v 0.056898 0.045228 0.005634
v 0.059015 0.047320 0.005915
v -0.012135 0.001549 0.028338
v 0.044319 0.045228 0.031386
v 0.035760 0.040108 0.030414
v 0.052721 0.049430 0.031936
v 0.050621 0.049430 0.031689
v 0.048152 0.050579 0.030422
v 0.067158 0.053507 0.018802
v 0.067134 0.053433 0.020906
v 0.065222 0.054599 0.023004
v 0.064838 0.052953 0.026695
v 0.061123 0.050860 0.007488
v 0.063984 0.051357 0.009134
v 0.066993 0.052283 0.014611
v 0.065622 0.053276 0.012979
v 0.067064 0.053350 0.016712
v 0.061413 0.054566 0.027091
v 0.061107 0.053193 0.028793
v 0.058819 0.054847 0.028035
v 0.056914 0.053714 0.029515
v 0.050621 0.051820 0.030501
v 0.054821 0.054343 0.029060
v 0.052744 0.052920 0.030080
v 0.044303 0.043119 0.006168
v 0.046404 0.043119 0.005893
v 0.044303 0.041018 0.005792
v 0.046404 0.041018 0.005643
v 0.024451 0.033640 0.028209
v 0.015680 0.027668 0.026470
v 0.036960 0.046295 0.026175
v -0.000904 0.014915 0.024189
v 0.003501 0.018909 0.023827
v 0.030470 0.042192 0.023490
v 0.034789 0.046336 0.022136
v 0.039013 0.050530 0.019664
v -0.005011 0.012748 0.015625
v 0.039123 0.050422 0.017330
v 0.034789 0.046336 0.015496
v -0.006986 0.010539 0.013864
v -0.011884 0.004534 0.010353
v 0.030611 0.042118 0.013491
v -0.005199 0.010787 0.011249
v 0.032516 0.042275 0.011230
v 0.037461 0.044401 0.009185
v 0.046357 0.048677 0.007550
v 0.041631 0.043681 0.006901
v 0.048645 0.047320 0.006424
v 0.050613 0.045228 0.005851
v 0.054806 0.047320 0.005870
v 0.056898 0.047320 0.005834
v 0.056898 0.049421 0.006294
v 0.059015 0.049421 0.006421
v 0.043096 0.046444 0.030439
v 0.042093 0.047966 0.028869
v 0.047846 0.052953 0.028608
v 0.045730 0.051754 0.028344
v 0.065449 0.054756 0.016712
v 0.065622 0.054872 0.019735
v 0.061374 0.056716 0.022852
v 0.063701 0.054632 0.025091
v 0.059015 0.051423 0.007362
v 0.059015 0.053325 0.008716
v 0.061742 0.052862 0.009126
v 0.063897 0.053044 0.010746
v 0.062918 0.054731 0.012404
v 0.064971 0.054417 0.014347
v 0.061107 0.055997 0.024827
v 0.056914 0.056840 0.025274
v 0.056914 0.055319 0.027835
v 0.050793 0.054285 0.028507
v 0.054821 0.055856 0.027206
v 0.052721 0.055277 0.027833
v 0.050613 0.047320 0.006151
v 0.048645 0.045228 0.006002
v 0.046576 0.053515 0.027074
v 0.044429 0.053052 0.025431
v 0.040729 0.050439 0.024546
v 0.042979 0.052796 0.023560
v 0.044382 0.054607 0.020903
v 0.041889 0.052812 0.019732
v 0.044280 0.054682 0.018802
v 0.042532 0.053185 0.016710
v 0.043034 0.052771 0.014027
v 0.044053 0.052647 0.012350
v 0.036999 0.046237 0.011522
v 0.045753 0.052953 0.011036
v 0.042900 0.048644 0.009159
v 0.047493 0.051712 0.008879
v 0.050158 0.050397 0.007190
v 0.052713 0.049421 0.006407
v 0.052713 0.047320 0.005983
v 0.054806 0.049421 0.006266
v 0.054806 0.051704 0.007185
v 0.056898 0.051646 0.007221
v 0.048238 0.054508 0.027012
v 0.063216 0.055542 0.014611
v 0.063216 0.056046 0.016712
v 0.062463 0.056609 0.019083
v 0.061146 0.057113 0.020426
v 0.059015 0.057734 0.019614
v 0.056922 0.058031 0.020906
v 0.056922 0.057651 0.023004
v 0.059022 0.056973 0.023900
v 0.056898 0.053507 0.008553
v 0.056898 0.054963 0.010002
v 0.059015 0.054789 0.010207
v 0.060974 0.055285 0.011870
v 0.060755 0.056675 0.014923
v 0.054908 0.056931 0.025257
v 0.051827 0.056725 0.024917
v 0.047901 0.055500 0.024827
v 0.045361 0.054715 0.023234
v 0.046490 0.055964 0.019614
v 0.044413 0.054591 0.016710
v 0.046420 0.055782 0.016710
v 0.045338 0.054657 0.014558
v 0.046600 0.054599 0.012721
v 0.048551 0.053342 0.009746
v 0.048285 0.054814 0.011648
v 0.050613 0.053201 0.008791
v 0.052713 0.051580 0.007252
v 0.052713 0.053441 0.008578
v 0.054806 0.053557 0.008516
v 0.061319 0.056857 0.016712
v 0.059015 0.057577 0.016712
v 0.056922 0.058098 0.018802
v 0.054821 0.057957 0.020906
v 0.054821 0.057734 0.023004
v 0.054806 0.055037 0.009952
v 0.054774 0.056766 0.012508
v 0.056914 0.056675 0.012626
v 0.058999 0.056749 0.013673
v 0.052721 0.057510 0.023004
v 0.049633 0.056782 0.023001
v 0.048332 0.056807 0.019735
v 0.048449 0.056741 0.016710
v 0.049641 0.056716 0.014687
v 0.050613 0.054698 0.010359
v 0.051851 0.056634 0.012797
v 0.052713 0.054955 0.010078
v 0.056922 0.057477 0.014611
v 0.056922 0.057924 0.016712
v 0.054821 0.057990 0.016712
v 0.054821 0.058015 0.018802
v 0.052721 0.057792 0.018802
v 0.052721 0.057701 0.020906
v 0.052721 0.057436 0.014611
v 0.054821 0.057560 0.014611
v 0.050621 0.057477 0.019614
v 0.050621 0.057411 0.016712
v 0.052721 0.057825 0.016712
f 1 2 6
f 1 6 20
f 1 20 39
f 1 39 66
f 1 66 106
f 1 106 100
f 1 100 58
f 1 58 31
f 1 31 14
f 1 14 3
f 1 3 4
f 1 4 5
f 1 5 2
f 2 5 7
f 2 7 8
f 2 8 9
f 2 9 10
f 2 10 11
f 2 11 12
f 2 12 13
f 2 13 6
f 3 14 15
f 3 15 4
f 4 15 16
f 4 16 5
f 5 16 17
f 5 17 18
f 5 18 19
f 5 19 10
f 5 10 8
f 5 8 7
f 6 13 21
f 6 21 22
f 6 22 23
f 6 23 24
f 6 24 25
f 6 25 20
f 8 10 9
f 10 19 18
f 10 18 26
f 10 26 11
f 11 26 27
f 11 27 12
f 12 28 13
f 12 27 29
f 12 29 30
f 12 30 28
f 13 28 21
f 14 31 15
f 15 31 32
f 15 32 33
f 15 33 34
f 15 34 35
f 15 35 36
f 15 36 16
f 16 36 17
f 17 36 37
f 17 37 38
f 17 38 18
f 18 38 26
f 20 25 24
f 20 24 40
f 20 40 39
f 21 28 41
f 21 41 22
f 22 41 42
f 22 42 43
f 22 43 23
f 23 43 40
f 23 40 24
f 26 44 45
f 26 45 27
f 26 38 37
f 26 37 46
f 26 46 47
f 26 47 48
f 26 48 49
f 26 49 44
f 27 45 50
f 27 50 29
f 28 30 51
f 28 51 52
f 28 52 41
f 29 50 53
f 29 53 54
f 29 54 30
f 30 54 55
f 30 55 56
f 30 56 51
f 31 57 32
f 31 58 57
f 32 57 59
f 32 59 60
f 32 60 61
f 32 61 62
f 32 62 63
f 32 63 33
f 33 46 34
f 33 63 64
f 33 64 65
f 33 65 46
f 34 46 35
f 35 46 36
f 36 46 37
f 39 40 67
f 39 67 68
f 39 68 69
f 39 69 66
f 40 43 67
f 41 52 42
f 42 67 43
f 42 52 70
f 42 70 68
f 42 68 67
f 44 49 71
f 44 71 45
f 45 71 72
f 45 72 73
f 45 73 74
f 45 74 53
f 45 53 50
f 46 65 75
f 46 75 76
f 46 76 47
f 47 77 78
f 47 78 79
f 47 79 48
f 47 76 77
f 48 79 49
f 49 79 71
f 51 56 80
f 51 80 52
f 52 80 70
f 53 74 81
f 53 81 54
f 54 81 82
f 54 82 55
f 55 82 56
f 56 82 83
f 56 83 84
f 56 84 80
f 57 58 85
f 57 85 86
f 57 86 87
f 57 87 59
f 58 88 89
f 58 89 90
f 58 90 91
f 58 91 92
f 58 92 93
f 58 93 94
f 58 94 95
f 58 95 96
f 58 96 97
f 58 97 98
f 58 98 99
f 58 99 85
f 58 100 88
f 59 61 60
f 59 87 63
f 59 63 61
f 61 63 62
f 63 101 64
f 63 87 86
f 63 86 102
f 63 102 103
f 63 103 104
f 63 104 101
f 64 101 65
f 65 101 105
f 65 105 75
f 66 69 107
f 66 107 108
f 66 108 106
f 68 70 109
f 68 109 110
f 68 110 69
f 69 110 111
f 69 111 107
f 70 80 109
f 71 79 112
f 71 112 113
f 71 113 72
f 72 113 73
f 73 113 114
f 73 114 115
f 73 115 74
f 74 115 81
f 75 105 116
f 75 116 117
f 75 117 76
f 76 117 77
f 77 118 78
f 77 117 119
f 77 119 118
f 78 118 120
f 78 120 79
f 79 120 112
f 80 84 109
f 81 115 121
f 81 121 122
f 81 122 82
f 82 122 83
f 83 122 123
f 83 123 124
f 83 124 84
f 84 125 109
f 84 124 126
f 84 126 127
f 84 127 125
f 85 99 128
f 85 128 129
f 85 129 130
f 85 130 131
f 85 131 86
f 86 131 102
f 88 132 133
f 88 133 89
f 88 100 132
f 89 133 134
f 89 134 90
f 90 135 91
f 90 134 135
f 91 135 136
f 91 136 137
f 91 137 138
f 91 138 92
f 92 138 139
f 92 139 93
f 93 140 94
f 93 139 141
f 93 141 140
f 94 140 142
f 94 142 143
f 94 143 95
f 95 144 96
f 95 143 145
f 95 145 146
f 95 146 144
f 96 144 147
f 96 147 148
f 96 148 97
f 97 148 98
f 98 148 149
f 98 149 150
f 98 150 99
f 99 150 151
f 99 151 128
f 100 106 132
f 101 104 105
f 102 131 103
f 103 131 152
f 103 152 153
f 103 153 154
f 103 154 104
f 104 154 105
f 105 154 155
f 105 155 156
f 105 156 116
f 106 108 132
f 107 111 157
f 107 157 108
f 108 157 158
f 108 158 132
f 109 125 110
f 110 125 111
f 111 125 159
f 111 159 160
f 111 160 157
f 112 120 161
f 112 161 162
f 112 162 113
f 113 162 114
f 114 162 163
f 114 163 164
f 114 164 115
f 115 164 121
f 116 165 166
f 116 166 167
f 116 167 117
f 116 156 165
f 117 167 168
f 117 168 119
f 118 119 120
f 119 168 169
f 119 169 170
f 119 170 120
f 120 170 161
f 121 164 171
f 121 171 123
f 121 123 122
f 123 171 172
f 123 172 173
f 123 173 124
f 124 173 126
f 125 127 174
f 125 174 159
f 126 174 127
f 126 173 175
f 126 175 176
f 126 176 174
f 128 151 177
f 128 177 178
f 128 178 129
f 129 131 130
f 129 178 152
f 129 152 131
f 132 158 160
f 132 160 134
f 132 134 133
f 134 136 135
f 134 160 179
f 134 179 180
f 134 180 181
f 134 181 136
f 136 181 137
f 137 181 182
f 137 182 138
f 138 182 139
f 139 182 183
f 139 183 184
f 139 184 185
f 139 185 186
f 139 186 141
f 140 141 186
f 140 186 142
f 142 145 143
f 142 186 187
f 142 187 145
f 144 146 147
f 145 187 188
f 145 188 189
f 145 189 146
f 146 189 147
f 147 189 148
f 148 189 190
f 148 190 191
f 148 191 149
f 149 191 192
f 149 192 193
f 149 193 150
f 150 193 151
f 151 194 177
f 151 193 194
f 152 178 195
f 152 195 153
f 153 195 196
f 153 196 154
f 154 196 155
f 155 196 197
f 155 197 198
f 155 198 156
f 156 198 165
f 157 160 158
f 159 174 199
f 159 199 179
f 159 179 160
f 161 200 201
f 161 201 162
f 161 170 200
f 162 201 202
f 162 202 163
f 163 203 204
f 163 204 205
f 163 205 206
f 163 206 207
f 163 207 171
f 163 171 164
f 163 202 203
f 165 198 166
f 166 198 208
f 166 208 209
f 166 209 210
f 166 210 167
f 167 210 211
f 167 211 168
f 168 211 169
f 169 211 212
f 169 212 200
f 169 200 170
f 171 207 172
f 172 207 206
f 172 206 213
f 172 213 175
f 172 175 173
f 174 176 199
f 175 213 176
f 176 213 214
f 176 214 199
f 177 194 195
f 177 195 178
f 179 199 215
f 179 215 180
f 180 215 216
f 180 216 182
f 180 182 181
f 182 216 183
f 183 216 217
f 183 217 185
f 183 185 184
f 185 218 186
f 185 217 219
f 185 219 218
f 186 218 220
f 186 220 187
f 187 220 188
f 188 220 221
f 188 221 190
f 188 190 189
f 190 222 192
f 190 192 191
f 190 221 223
f 190 223 222
f 192 222 224
f 192 224 193
f 193 224 225
f 193 225 194
f 194 196 195
f 194 225 196
f 196 225 197
f 197 225 226
f 197 226 227
f 197 227 208
f 197 208 198
f 199 214 215
f 200 212 201
f 201 212 228
f 201 228 202
f 202 228 203
f 203 228 229
f 203 229 204
f 204 229 230
f 204 230 205
f 205 230 231
f 205 231 232
f 205 232 206
f 206 232 213
f 208 227 233
f 208 233 209
f 209 233 234
f 209 234 235
f 209 235 210
f 210 235 211
f 211 235 236
f 211 236 212
f 212 236 229
f 212 229 228
f 213 232 237
f 213 237 214
f 214 237 238
f 214 238 215
f 215 238 216
f 216 238 217
f 217 238 239
f 217 239 240
f 217 240 219
f 218 219 220
f 219 240 220
f 220 240 241
f 220 241 221
f 221 241 223
f 222 223 242
f 222 242 224
f 223 241 243
f 223 243 242
f 224 242 244
f 224 244 226
f 224 226 225
f 226 244 233
f 226 233 227
f 229 245 246
f 229 246 230
f 229 236 245
f 230 246 247
f 230 247 248
f 230 248 231
f 231 249 250
f 231 250 237
f 231 237 232
f 231 248 249
f 233 244 234
f 234 251 252
f 234 252 245
f 234 245 235
f 234 244 243
f 234 243 251
f 235 245 236
f 237 250 253
f 237 253 238
f 238 253 239
f 239 253 254
f 239 254 240
f 240 254 241
f 241 254 251
f 241 251 243
f 242 243 244
f 245 252 246
f 246 252 247
f 247 252 251
f 247 251 255
f 247 255 248
f 248 255 249
f 249 255 253
f 249 253 250
f 251 254 255
f 253 255 254
