v -0.103000 -0.038125 0.030498
v -0.103000 -0.038125 0.003675
v -0.112828 -0.038125 0.030597
v -0.108934 -0.047141 0.033176
v -0.091722 -0.051337 0.031664
v -0.091722 -0.049740 0.030892
v -0.054520 -0.058488 0.009482
v -0.054520 -0.057778 0.008382
v -0.108934 -0.042941 0.002752
v -0.115229 -0.038125 0.003600
v -0.054520 -0.058074 0.006028
v -0.054520 -0.059188 0.005105
v -0.054520 -0.061842 0.004742
v -0.116652 -0.038125 0.030534
v -0.111030 -0.047141 0.033128
v -0.121524 -0.049237 0.033326
v -0.119428 -0.049237 0.033311
v -0.091923 -0.063928 0.031917
v -0.091722 -0.061838 0.031959
v -0.091722 -0.059737 0.031983
v -0.091722 -0.057642 0.031989
v -0.091722 -0.055542 0.031995
v -0.091722 -0.053442 0.031947
v -0.072385 -0.072395 0.023029
v -0.054520 -0.074152 0.011490
v -0.115229 -0.045037 0.002644
v -0.117318 -0.045037 0.002620
v -0.119428 -0.045037 0.002626
v -0.121524 -0.042941 0.002848
v -0.122087 -0.041738 0.003022
v -0.054520 -0.063933 0.004637
v -0.054520 -0.066028 0.004570
v -0.054520 -0.072315 0.004447
v -0.054520 -0.074420 0.004414
v -0.054520 -0.076515 0.004396
v -0.054520 -0.078526 0.004420
v -0.117318 -0.038125 0.003615
v -0.119380 -0.038125 0.030243
v -0.121524 -0.047541 0.032936
v -0.123024 -0.047780 0.032791
v -0.123176 -0.049237 0.032888
v -0.121524 -0.051337 0.033038
v -0.091923 -0.066024 0.031809
v -0.072385 -0.081632 0.022626
v -0.054999 -0.086118 0.011339
v -0.054520 -0.085592 0.009894
v -0.121524 -0.045163 0.002680
v -0.056464 -0.078615 0.004459
v -0.122961 -0.042941 0.002962
v -0.124009 -0.042941 0.003684
v -0.123391 -0.041109 0.004312
v -0.121170 -0.038125 0.004658
v -0.119442 -0.038125 0.003945
v -0.054520 -0.080631 0.004724
v -0.120809 -0.038125 0.028947
v -0.123051 -0.041456 0.030654
v -0.124779 -0.044435 0.030474
v -0.124842 -0.047141 0.030609
v -0.124474 -0.048753 0.030892
v -0.122871 -0.051337 0.032665
v -0.121524 -0.052704 0.032653
v -0.104735 -0.061833 0.031803
v -0.098433 -0.063928 0.031857
v -0.094227 -0.066024 0.031694
v -0.091923 -0.068119 0.031265
v -0.091722 -0.069510 0.030594
v -0.093297 -0.069214 0.030399
v -0.091722 -0.070652 0.029097
v -0.092166 -0.071206 0.027204
v -0.076529 -0.079729 0.022830
v -0.072385 -0.081871 0.021090
v -0.062849 -0.084746 0.011490
v -0.062953 -0.084342 0.010215
v -0.060656 -0.084173 0.008652
v -0.059309 -0.083816 0.007360
v -0.057907 -0.083920 0.007191
v -0.054520 -0.084699 0.008216
v -0.121524 -0.046493 0.002830
v -0.123981 -0.045690 0.002950
v -0.058553 -0.078615 0.004507
v -0.124405 -0.044477 0.003224
v -0.124842 -0.042941 0.004733
v -0.124696 -0.041860 0.005418
v -0.122725 -0.039643 0.004895
v -0.121691 -0.038125 0.006221
v -0.054520 -0.081881 0.005090
v -0.056852 -0.081556 0.005084
v -0.058553 -0.080556 0.004856
v -0.060656 -0.078615 0.004579
v -0.121205 -0.038125 0.027558
v -0.123391 -0.041052 0.029305
v -0.124634 -0.042983 0.029305
v -0.125231 -0.045163 0.029305
v -0.125196 -0.047141 0.029305
v -0.124599 -0.049025 0.029305
v -0.123461 -0.051337 0.031403
v -0.122697 -0.052544 0.031947
v -0.117318 -0.057031 0.030988
v -0.113133 -0.059207 0.031027
v -0.108934 -0.061344 0.030997
v -0.106880 -0.061950 0.031207
v -0.108934 -0.059733 0.031929
v -0.100529 -0.065479 0.030805
v -0.098378 -0.066108 0.030967
v -0.094081 -0.068157 0.030847
v -0.100529 -0.063928 0.031628
v -0.096330 -0.066024 0.031445
v -0.096330 -0.067471 0.030687
v -0.097663 -0.067189 0.030480
v -0.101980 -0.065155 0.030552
v -0.099058 -0.066860 0.029861
v -0.095379 -0.069219 0.028391
v -0.099606 -0.067137 0.028463
v -0.099849 -0.067274 0.027204
v -0.092992 -0.071168 0.025103
v -0.084850 -0.075496 0.022809
v -0.079541 -0.078319 0.020904
v -0.077167 -0.079522 0.020904
v -0.077202 -0.079545 0.018806
v -0.072947 -0.081632 0.018827
v -0.072385 -0.081829 0.016714
v -0.070400 -0.082139 0.011327
v -0.069220 -0.082266 0.010251
v -0.063786 -0.083858 0.009383
v -0.072385 -0.081758 0.014823
v -0.072385 -0.081660 0.013516
v -0.062668 -0.083779 0.008670
v -0.060656 -0.083680 0.007600
v -0.062766 -0.082397 0.006563
v -0.056464 -0.083957 0.007143
v -0.060656 -0.082637 0.006398
v -0.058594 -0.082999 0.006437
v -0.054520 -0.082914 0.006049
v -0.054520 -0.083981 0.007113
v -0.062766 -0.078615 0.004685
v -0.069047 -0.077929 0.005021
v -0.070407 -0.077676 0.005108
v -0.120809 -0.052549 0.005045
v -0.122218 -0.051999 0.005511
v -0.124870 -0.046460 0.004120
v -0.124932 -0.045248 0.003912
v -0.125356 -0.045163 0.006227
v -0.124946 -0.042739 0.006326
v -0.123475 -0.040874 0.027204
v -0.122774 -0.039521 0.014613
v -0.125425 -0.045037 0.027204
v -0.124717 -0.042781 0.027204
v -0.121740 -0.038299 0.014613
v -0.060656 -0.081382 0.005349
v -0.060656 -0.080339 0.004901
v -0.122746 -0.039558 0.016711
v -0.125307 -0.047141 0.027204
v -0.124377 -0.049392 0.008313
v -0.123676 -0.051337 0.029305
v -0.124800 -0.048485 0.027204
v -0.122906 -0.052803 0.029305
v -0.118512 -0.056688 0.029921
v -0.114521 -0.058854 0.030651
v -0.110357 -0.060973 0.030651
v -0.106207 -0.063083 0.030618
v -0.104735 -0.063421 0.030904
v -0.115701 -0.058370 0.029305
v -0.100016 -0.067382 0.025103
v -0.093054 -0.071197 0.023005
v -0.085989 -0.075007 0.020904
v -0.079541 -0.078357 0.018806
v -0.076661 -0.079790 0.016714
v -0.080825 -0.077685 0.016714
v -0.071226 -0.081491 0.010251
v -0.070025 -0.081735 0.009443
v -0.077445 -0.078601 0.010414
v -0.064848 -0.082994 0.008316
v -0.068929 -0.081721 0.008532
v -0.067353 -0.081960 0.007832
v -0.077563 -0.079193 0.014613
v -0.076459 -0.079696 0.014084
v -0.077251 -0.079137 0.012722
v -0.066319 -0.081895 0.007104
v -0.064848 -0.082115 0.006846
v -0.062766 -0.081143 0.005511
v -0.062766 -0.080090 0.004988
v -0.064369 -0.079856 0.005081
v -0.066368 -0.079475 0.005241
v -0.069047 -0.078977 0.005577
v -0.071816 -0.077304 0.005253
v -0.104735 -0.061833 0.005725
v -0.106762 -0.061899 0.006431
v -0.108934 -0.061199 0.006723
v -0.115084 -0.057651 0.006509
v -0.117860 -0.056745 0.007041
v -0.122711 -0.052549 0.006915
v -0.124731 -0.048349 0.007074
v -0.125002 -0.047193 0.006311
v -0.125092 -0.047141 0.008313
v -0.123551 -0.051337 0.008313
v -0.122781 -0.052629 0.008313
v -0.120705 -0.054692 0.016714
v -0.120740 -0.054710 0.020898
v -0.117318 -0.057440 0.029305
v -0.106838 -0.063524 0.025106
v -0.104506 -0.064845 0.025106
v -0.089056 -0.073405 0.018806
v -0.105047 -0.064558 0.023008
v -0.106838 -0.063562 0.018806
v -0.104527 -0.064859 0.018806
v -0.097073 -0.068998 0.018809
v -0.087939 -0.074011 0.018806
v -0.086016 -0.075016 0.018806
v -0.080839 -0.077690 0.018806
v -0.085003 -0.075345 0.014405
v -0.080721 -0.077629 0.015262
v -0.089050 -0.073400 0.017330
v -0.085982 -0.074988 0.016714
v -0.078694 -0.077661 0.009151
v -0.074405 -0.079710 0.009274
v -0.071164 -0.080706 0.008316
v -0.085836 -0.074387 0.010414
v -0.087106 -0.073471 0.009139
v -0.071698 -0.079790 0.007137
v -0.085843 -0.074636 0.012007
v -0.066992 -0.080866 0.006434
v -0.069047 -0.080344 0.006626
v -0.064987 -0.080621 0.005683
v -0.071136 -0.078474 0.005863
v -0.081568 -0.074485 0.006581
v -0.096330 -0.067579 0.006726
v -0.098433 -0.066127 0.006458
v -0.102924 -0.063905 0.006470
v -0.104735 -0.063327 0.006707
v -0.097732 -0.067245 0.007050
v -0.110170 -0.060879 0.007092
v -0.113133 -0.059052 0.006783
v -0.114299 -0.058746 0.007149
v -0.104888 -0.064478 0.012515
v -0.107914 -0.062909 0.017110
v -0.107935 -0.062914 0.018806
v -0.096011 -0.069571 0.016714
v -0.103979 -0.065141 0.016714
v -0.091729 -0.071629 0.012518
v -0.103180 -0.065451 0.013017
v -0.082213 -0.075223 0.007735
v -0.077632 -0.077591 0.008075
v -0.073058 -0.079935 0.008472
v -0.091493 -0.071497 0.010414
v -0.091243 -0.071361 0.009121
v -0.080804 -0.075566 0.007158
v -0.075946 -0.077751 0.007059
v -0.073058 -0.078620 0.006653
v -0.083740 -0.073799 0.006858
v -0.093512 -0.069327 0.007077
v -0.095365 -0.069209 0.009214
v -0.103264 -0.065216 0.010624
v -0.103437 -0.065380 0.014613
f 1 2 10
f 1 10 37
f 1 37 53
f 1 53 52
f 1 52 85
f 1 85 90
f 1 90 55
f 1 55 38
f 1 38 14
f 1 14 3
f 1 3 4
f 1 4 5
f 1 5 6
f 1 6 7
f 1 7 8
f 1 8 2
f 2 9 10
f 2 8 11
f 2 11 12
f 2 12 13
f 2 13 9
f 3 14 4
f 4 14 15
f 4 15 16
f 4 16 17
f 4 17 18
f 4 18 19
f 4 19 20
f 4 20 21
f 4 21 22
f 4 22 23
f 4 23 5
f 5 23 24
f 5 24 7
f 5 7 6
f 7 25 46
f 7 46 77
f 7 77 134
f 7 134 133
f 7 133 86
f 7 86 54
f 7 54 36
f 7 36 35
f 7 35 34
f 7 34 33
f 7 33 32
f 7 32 31
f 7 31 13
f 7 13 12
f 7 12 11
f 7 11 8
f 7 24 25
f 9 26 27
f 9 27 28
f 9 28 29
f 9 29 30
f 9 30 10
f 9 13 31
f 9 31 32
f 9 32 33
f 9 33 34
f 9 34 35
f 9 35 36
f 9 36 26
f 10 30 37
f 14 38 39
f 14 39 15
f 15 39 16
f 16 39 40
f 16 40 41
f 16 41 42
f 16 42 43
f 16 43 17
f 17 43 18
f 18 43 19
f 19 43 44
f 19 44 24
f 19 24 20
f 20 24 21
f 21 24 22
f 22 24 23
f 24 44 45
f 24 45 25
f 25 45 46
f 26 36 27
f 27 36 28
f 28 47 29
f 28 36 48
f 28 48 47
f 29 47 49
f 29 49 30
f 30 49 50
f 30 50 51
f 30 51 52
f 30 52 53
f 30 53 37
f 36 54 48
f 38 55 56
f 38 56 40
f 38 40 39
f 40 56 57
f 40 57 41
f 41 57 58
f 41 58 59
f 41 59 60
f 41 60 42
f 42 60 61
f 42 61 62
f 42 62 63
f 42 63 64
f 42 64 43
f 43 64 65
f 43 65 44
f 44 65 66
f 44 66 67
f 44 67 68
f 44 68 69
f 44 69 70
f 44 70 71
f 44 71 45
f 45 71 72
f 45 72 73
f 45 73 74
f 45 74 46
f 46 74 75
f 46 75 76
f 46 76 77
f 47 78 79
f 47 79 49
f 47 48 80
f 47 80 78
f 48 54 80
f 49 79 81
f 49 81 50
f 50 81 82
f 50 82 51
f 51 82 83
f 51 83 84
f 51 84 52
f 52 84 85
f 54 86 87
f 54 87 88
f 54 88 89
f 54 89 80
f 55 90 91
f 55 91 56
f 56 91 92
f 56 92 57
f 57 93 58
f 57 92 93
f 58 93 94
f 58 94 59
f 59 95 96
f 59 96 60
f 59 94 95
f 60 97 61
f 60 96 97
f 61 97 98
f 61 98 99
f 61 99 100
f 61 100 101
f 61 101 102
f 61 102 62
f 62 103 104
f 62 104 105
f 62 105 106
f 62 106 64
f 62 64 63
f 62 102 101
f 62 101 103
f 64 106 107
f 64 107 65
f 65 107 105
f 65 105 66
f 66 105 67
f 67 105 108
f 67 108 103
f 67 103 109
f 67 109 68
f 68 109 110
f 68 110 111
f 68 111 112
f 68 112 69
f 69 112 113
f 69 113 114
f 69 114 115
f 69 115 70
f 70 115 116
f 70 116 117
f 70 117 118
f 70 118 71
f 71 118 119
f 71 119 120
f 71 120 121
f 71 121 72
f 72 122 123
f 72 123 124
f 72 124 73
f 72 121 125
f 72 125 126
f 72 126 122
f 73 124 74
f 74 124 127
f 74 127 128
f 74 128 75
f 75 128 129
f 75 129 76
f 76 130 77
f 76 129 131
f 76 131 132
f 76 132 86
f 76 86 133
f 76 133 130
f 77 130 134
f 78 80 89
f 78 89 135
f 78 135 136
f 78 136 137
f 78 137 79
f 79 138 139
f 79 139 140
f 79 140 141
f 79 141 81
f 79 137 138
f 81 141 82
f 82 141 142
f 82 142 143
f 82 143 83
f 83 144 145
f 83 145 85
f 83 85 84
f 83 143 146
f 83 146 147
f 83 147 144
f 85 145 148
f 85 148 90
f 86 132 149
f 86 149 87
f 87 149 150
f 87 150 88
f 88 150 89
f 89 150 135
f 90 148 151
f 90 151 144
f 90 144 91
f 91 144 147
f 91 147 92
f 92 147 146
f 92 146 93
f 93 146 94
f 94 146 152
f 94 152 95
f 95 153 154
f 95 154 96
f 95 152 155
f 95 155 153
f 96 154 156
f 96 156 97
f 97 156 157
f 97 157 98
f 98 158 99
f 98 157 158
f 99 158 159
f 99 159 100
f 100 159 160
f 100 160 110
f 100 110 161
f 100 161 101
f 101 161 103
f 103 161 110
f 103 110 109
f 103 108 105
f 103 105 104
f 105 107 106
f 110 160 111
f 111 160 113
f 111 113 112
f 113 160 159
f 113 159 158
f 113 158 114
f 114 158 162
f 114 162 163
f 114 163 115
f 115 164 165
f 115 165 116
f 115 163 164
f 116 165 117
f 117 166 119
f 117 119 118
f 117 165 166
f 119 167 120
f 119 166 168
f 119 168 167
f 120 167 121
f 121 167 125
f 122 169 170
f 122 170 123
f 122 126 171
f 122 171 169
f 123 170 124
f 124 172 127
f 124 170 173
f 124 173 174
f 124 174 172
f 125 167 175
f 125 175 126
f 126 175 176
f 126 176 177
f 126 177 171
f 127 172 178
f 127 178 128
f 128 178 179
f 128 179 129
f 129 179 180
f 129 180 131
f 130 133 134
f 131 149 132
f 131 180 149
f 135 150 181
f 135 181 136
f 136 181 182
f 136 182 137
f 137 182 183
f 137 183 184
f 137 184 185
f 137 185 138
f 138 185 186
f 138 186 187
f 138 187 188
f 138 188 189
f 138 189 190
f 138 190 139
f 139 190 191
f 139 191 140
f 140 192 193
f 140 193 142
f 140 142 141
f 140 191 192
f 142 152 146
f 142 146 143
f 142 193 194
f 142 194 152
f 144 151 145
f 145 151 148
f 149 180 182
f 149 182 181
f 149 181 150
f 152 194 192
f 152 192 153
f 152 153 155
f 153 195 154
f 153 192 195
f 154 195 156
f 156 196 197
f 156 197 198
f 156 198 157
f 156 195 196
f 157 199 162
f 157 162 158
f 157 198 197
f 157 197 190
f 157 190 199
f 162 199 200
f 162 200 201
f 162 201 163
f 163 202 164
f 163 201 203
f 163 203 204
f 163 204 205
f 163 205 206
f 163 206 202
f 164 202 207
f 164 207 165
f 165 207 208
f 165 208 209
f 165 209 166
f 166 209 168
f 167 168 175
f 168 210 211
f 168 211 175
f 168 209 208
f 168 208 212
f 168 212 213
f 168 213 210
f 169 171 214
f 169 214 215
f 169 215 170
f 170 215 216
f 170 216 173
f 171 177 217
f 171 217 218
f 171 218 214
f 172 174 178
f 173 216 174
f 174 216 219
f 174 219 178
f 175 211 210
f 175 210 177
f 175 177 176
f 177 210 220
f 177 220 217
f 178 221 179
f 178 219 222
f 178 222 221
f 179 221 223
f 179 223 180
f 180 223 183
f 180 183 182
f 183 223 184
f 184 222 224
f 184 224 185
f 184 223 221
f 184 221 222
f 185 224 225
f 185 225 226
f 185 226 227
f 185 227 186
f 186 227 228
f 186 228 187
f 187 228 229
f 187 229 188
f 188 229 230
f 188 230 231
f 188 231 232
f 188 232 189
f 189 232 190
f 190 232 233
f 190 233 234
f 190 234 235
f 190 235 199
f 190 197 196
f 190 196 191
f 191 196 195
f 191 195 192
f 192 194 193
f 199 235 236
f 199 236 204
f 199 204 200
f 200 204 203
f 200 203 201
f 202 212 207
f 202 206 237
f 202 237 212
f 204 236 235
f 204 235 238
f 204 238 205
f 205 238 237
f 205 237 206
f 207 212 208
f 210 213 212
f 210 212 239
f 210 239 220
f 212 237 240
f 212 240 239
f 214 241 242
f 214 242 243
f 214 243 215
f 214 218 230
f 214 230 241
f 215 243 216
f 216 243 219
f 217 220 244
f 217 244 245
f 217 245 218
f 218 245 230
f 219 243 242
f 219 242 246
f 219 246 247
f 219 247 248
f 219 248 222
f 220 239 244
f 222 248 224
f 224 248 225
f 225 248 249
f 225 249 226
f 226 230 229
f 226 229 228
f 226 228 227
f 226 249 246
f 226 246 250
f 226 250 230
f 230 250 241
f 230 245 231
f 231 233 232
f 231 245 233
f 233 245 251
f 233 251 244
f 233 244 252
f 233 252 234
f 234 252 240
f 234 240 253
f 234 253 235
f 235 253 238
f 237 238 253
f 237 253 240
f 239 240 252
f 239 252 244
f 241 246 242
f 241 250 246
f 244 251 245
f 246 249 248
f 246 248 247
