v -0.008020 -0.044292 0.004985
v -0.006050 -0.047141 0.004110
v -0.008148 -0.047141 0.004066
v -0.008167 -0.044605 0.026489
v -0.008167 -0.044392 0.029991
v -0.001762 -0.046064 0.006216
v 0.000860 -0.047905 0.004950
v -0.003272 -0.046803 0.004546
v -0.003952 -0.049245 0.004014
v -0.001854 -0.049245 0.004061
v -0.008148 -0.053440 0.003935
v -0.008167 -0.050065 0.023952
v -0.001854 -0.051336 0.003952
v 0.000253 -0.055538 0.003834
v 0.000253 -0.057642 0.003780
v -0.001854 -0.057642 0.003791
v -0.008167 -0.057667 0.030894
v -0.008148 -0.047166 0.030815
v -0.004707 -0.046007 0.030425
v -0.002039 -0.046308 0.029012
v 0.001633 -0.048005 0.028614
v 0.002268 -0.048262 0.006216
v 0.012629 -0.054830 0.004718
v 0.005083 -0.051029 0.004565
v 0.026836 -0.062651 0.004928
v 0.010752 -0.055538 0.004039
v 0.002351 -0.051336 0.004033
v 0.004449 -0.053440 0.003924
v 0.010752 -0.057642 0.003810
v 0.002351 -0.053440 0.003903
v 0.012850 -0.057642 0.003845
v -0.008148 -0.055538 0.003894
v -0.008167 -0.069589 0.025654
v -0.008148 -0.057642 0.003867
v -0.008148 -0.059739 0.003878
v -0.008148 -0.061837 0.004055
v 0.029642 -0.068136 0.003564
v 0.035945 -0.072332 0.003466
v 0.008654 -0.063935 0.003657
v 0.050613 -0.082814 0.003240
v 0.048515 -0.082814 0.003240
v 0.062234 -0.092088 0.003051
v -0.006050 -0.057642 0.003834
v -0.008148 -0.055557 0.030910
v -0.008167 -0.059752 0.030840
v 0.050613 -0.080710 0.030430
v -0.001845 -0.057654 0.030872
v 0.000262 -0.055557 0.030840
v 0.002360 -0.055557 0.030820
v 0.006556 -0.055557 0.030774
v 0.005387 -0.053115 0.030670
v 0.000041 -0.048550 0.030226
v 0.023937 -0.062682 0.030436
v 0.020294 -0.058625 0.007337
v 0.013549 -0.054699 0.006216
v 0.022695 -0.060516 0.028756
v 0.026698 -0.062789 0.028464
v 0.005534 -0.050290 0.028278
v 0.070764 -0.087967 0.005225
v 0.025446 -0.062238 0.004647
v 0.069503 -0.089113 0.003698
v 0.025446 -0.063935 0.003892
v 0.060081 -0.081756 0.005176
v 0.072420 -0.089401 0.004560
v 0.017045 -0.059739 0.003843
v 0.033847 -0.070240 0.003529
v -0.008167 -0.068299 0.027261
v -0.008148 -0.063935 0.004522
v -0.008148 -0.065807 0.005343
v -0.008148 -0.067642 0.006742
v -0.008148 -0.069082 0.008412
v -0.008148 -0.070917 0.011516
v -0.008148 -0.072163 0.015774
v -0.008148 -0.072238 0.018799
v -0.008158 -0.070735 0.023586
v 0.064985 -0.105563 0.023690
v 0.064590 -0.103378 0.026208
v -0.006050 -0.059739 0.003845
v 0.065307 -0.094505 0.003054
v 0.063256 -0.094354 0.003128
v 0.059014 -0.093315 0.003324
v 0.056916 -0.093315 0.003526
v 0.061112 -0.095413 0.003507
v 0.072936 -0.093021 0.003062
v 0.052711 -0.082814 0.003245
v 0.054818 -0.084912 0.003196
v 0.067405 -0.094874 0.003049
v -0.008167 -0.062839 0.030509
v 0.061093 -0.093290 0.029958
v 0.063200 -0.093290 0.030018
v 0.061093 -0.091199 0.030100
v 0.053714 -0.083910 0.030354
v 0.057836 -0.083904 0.030357
v 0.019162 -0.061843 0.030668
v 0.017064 -0.061843 0.030695
v 0.047797 -0.077429 0.030411
v 0.051717 -0.079621 0.030368
v 0.072163 -0.089934 0.028502
v 0.083490 -0.096227 0.023802
v 0.083738 -0.095920 0.010414
v 0.081143 -0.094323 0.007217
v 0.076699 -0.092539 0.004233
v 0.080159 -0.094617 0.004996
v -0.008167 -0.066646 0.028791
v 0.059014 -0.095413 0.003793
v 0.065307 -0.099608 0.004156
v 0.063522 -0.100291 0.004852
v 0.065307 -0.101712 0.005198
v 0.062933 -0.102263 0.006499
v 0.065307 -0.103522 0.006578
v 0.065307 -0.104949 0.008150
v 0.063062 -0.104812 0.009475
v 0.060523 -0.105093 0.012997
v 0.061112 -0.105770 0.015779
v 0.060854 -0.105319 0.019576
v -0.008148 -0.071574 0.021538
v 0.062897 -0.105582 0.021745
v 0.065501 -0.106953 0.020796
v 0.067185 -0.106984 0.022045
v 0.067396 -0.105075 0.025430
v 0.067396 -0.103628 0.026925
v 0.067405 -0.095926 0.003098
v 0.067405 -0.097510 0.003294
v 0.065307 -0.097510 0.003510
v 0.073570 -0.095018 0.003079
v 0.077904 -0.095413 0.003638
v 0.075806 -0.095413 0.003229
v 0.069503 -0.096602 0.003125
v 0.064571 -0.099871 0.028614
v 0.059004 -0.095400 0.029358
v 0.061112 -0.095400 0.029609
v 0.067396 -0.097517 0.029667
v 0.065307 -0.095400 0.029871
v 0.067396 -0.095400 0.029920
v 0.069577 -0.094480 0.029991
v 0.071601 -0.093290 0.030038
v 0.069494 -0.091199 0.030048
v 0.073699 -0.093290 0.029811
v 0.071601 -0.091199 0.029593
v 0.074389 -0.091568 0.028704
v 0.078604 -0.094718 0.028750
v 0.080168 -0.097517 0.028325
v 0.083076 -0.099376 0.025539
v 0.085450 -0.098869 0.021200
v 0.085192 -0.097341 0.018807
v 0.083370 -0.097103 0.007746
v 0.085680 -0.097924 0.014846
v 0.085486 -0.098638 0.012517
v 0.080002 -0.098494 0.005242
v 0.067396 -0.101718 0.028229
v 0.063219 -0.097510 0.003799
v 0.067405 -0.099608 0.003821
v 0.068298 -0.102213 0.004934
v 0.067516 -0.104417 0.006838
v 0.069503 -0.105457 0.007694
v 0.069503 -0.106984 0.010362
v 0.067056 -0.107141 0.011674
v 0.064939 -0.106922 0.012607
v 0.064479 -0.107166 0.015809
v 0.064240 -0.106947 0.018865
v 0.067396 -0.107849 0.018810
v 0.069503 -0.107698 0.020908
v 0.069577 -0.106897 0.022986
v 0.069411 -0.104542 0.026404
v 0.069568 -0.102019 0.028376
v 0.069503 -0.099608 0.003638
v 0.073708 -0.097510 0.003316
v 0.071610 -0.096509 0.003136
v 0.077904 -0.097510 0.004028
v 0.075806 -0.097510 0.003551
v 0.071610 -0.099608 0.003638
v 0.067396 -0.099608 0.029086
v 0.065307 -0.097517 0.029503
v 0.069503 -0.099608 0.029271
v 0.069577 -0.097517 0.029748
v 0.071620 -0.095413 0.029948
v 0.073718 -0.095413 0.029939
v 0.075816 -0.095413 0.029814
v 0.075880 -0.093190 0.029083
v 0.077904 -0.097517 0.029184
v 0.080600 -0.101030 0.026440
v 0.078364 -0.099658 0.028281
v 0.082744 -0.101574 0.023875
v 0.085643 -0.100228 0.019137
v 0.085836 -0.098700 0.016715
v 0.084621 -0.098913 0.010520
v 0.083177 -0.100097 0.008905
v 0.081346 -0.100159 0.007042
v 0.085229 -0.100472 0.013834
v 0.077996 -0.101011 0.005654
v 0.075806 -0.099608 0.004173
v 0.072558 -0.102564 0.005160
v 0.069503 -0.103866 0.006025
v 0.071610 -0.105425 0.007700
v 0.071730 -0.106978 0.010367
v 0.071620 -0.107755 0.012517
v 0.069513 -0.107736 0.012517
v 0.067415 -0.107899 0.014615
v 0.067396 -0.108018 0.016715
v 0.069568 -0.108124 0.018810
v 0.071620 -0.108155 0.018807
v 0.071620 -0.107723 0.020908
v 0.071620 -0.106922 0.022951
v 0.071675 -0.104611 0.026355
v 0.071620 -0.102044 0.028401
v 0.071620 -0.099608 0.029334
v 0.073708 -0.099608 0.003815
v 0.071620 -0.097517 0.029757
v 0.073718 -0.097517 0.029708
v 0.075816 -0.097517 0.029549
v 0.075816 -0.099608 0.028968
v 0.077003 -0.101581 0.027662
v 0.077748 -0.103465 0.025812
v 0.079717 -0.102877 0.025278
v 0.082965 -0.102989 0.020769
v 0.079671 -0.104680 0.022700
v 0.083977 -0.102507 0.018807
v 0.085045 -0.101487 0.016715
v 0.083112 -0.101543 0.010670
v 0.081024 -0.102244 0.008823
v 0.079726 -0.101825 0.007222
v 0.082836 -0.103566 0.014846
v 0.082671 -0.103115 0.012743
v 0.077766 -0.103484 0.007582
v 0.075806 -0.103453 0.006611
v 0.075806 -0.101687 0.005223
v 0.073580 -0.104486 0.006969
v 0.075806 -0.104912 0.008193
v 0.074831 -0.106609 0.010689
v 0.073718 -0.107517 0.012517
v 0.069513 -0.108143 0.014615
v 0.071730 -0.107999 0.015782
v 0.069577 -0.108262 0.016775
v 0.073718 -0.107949 0.018807
v 0.073718 -0.107504 0.020908
v 0.074831 -0.106571 0.022760
v 0.073451 -0.105162 0.025531
v 0.073718 -0.103697 0.026993
v 0.073718 -0.101912 0.028327
v 0.073718 -0.099608 0.029263
v 0.075816 -0.103403 0.026751
v 0.077739 -0.105031 0.023840
v 0.075816 -0.104862 0.025147
v 0.080619 -0.105056 0.019729
v 0.076708 -0.107003 0.019776
v 0.083554 -0.103133 0.016715
v 0.081769 -0.104586 0.016715
v 0.081484 -0.103140 0.010673
v 0.077757 -0.105062 0.009636
v 0.080564 -0.105244 0.014519
v 0.080057 -0.104893 0.012089
v 0.077904 -0.106170 0.012517
v 0.076340 -0.107035 0.013687
v 0.076773 -0.107197 0.016715
v 0.073828 -0.107742 0.015782
v 0.080011 -0.105738 0.016715
f 1 2 3
f 1 3 4
f 1 4 5
f 1 5 6
f 1 6 7
f 1 7 8
f 1 8 2
f 2 9 3
f 2 8 10
f 2 10 9
f 3 11 12
f 3 12 4
f 3 9 13
f 3 13 14
f 3 14 15
f 3 15 16
f 3 16 11
f 4 12 33
f 4 33 67
f 4 67 104
f 4 104 88
f 4 88 45
f 4 45 17
f 4 17 5
f 5 17 18
f 5 18 19
f 5 19 20
f 5 20 6
f 6 20 21
f 6 21 22
f 6 22 7
f 7 23 24
f 7 24 8
f 7 22 25
f 7 25 23
f 8 24 26
f 8 26 27
f 8 27 10
f 9 10 28
f 9 28 29
f 9 29 30
f 9 30 13
f 10 27 31
f 10 31 28
f 11 32 12
f 11 16 32
f 12 32 34
f 12 34 35
f 12 35 36
f 12 36 33
f 13 30 14
f 14 30 37
f 14 37 38
f 14 38 15
f 15 39 16
f 15 38 40
f 15 40 41
f 15 41 42
f 15 42 39
f 16 39 43
f 16 43 32
f 17 44 18
f 17 45 46
f 17 46 47
f 17 47 44
f 18 44 48
f 18 48 49
f 18 49 50
f 18 50 51
f 18 51 19
f 19 52 21
f 19 21 20
f 19 51 53
f 19 53 52
f 21 54 55
f 21 55 22
f 21 52 53
f 21 53 56
f 21 56 57
f 21 57 58
f 21 58 59
f 21 59 54
f 22 55 25
f 23 25 60
f 23 60 61
f 23 61 62
f 23 62 24
f 24 62 26
f 25 63 64
f 25 64 60
f 25 55 63
f 26 65 27
f 26 62 65
f 27 65 31
f 28 31 37
f 28 37 29
f 29 37 30
f 31 65 66
f 31 66 37
f 32 43 34
f 33 36 68
f 33 68 69
f 33 69 70
f 33 70 71
f 33 71 72
f 33 72 73
f 33 73 74
f 33 74 75
f 33 75 76
f 33 76 77
f 33 77 67
f 34 43 78
f 34 78 35
f 35 78 42
f 35 42 79
f 35 79 80
f 35 80 36
f 36 80 81
f 36 81 82
f 36 82 83
f 36 83 68
f 37 66 38
f 38 66 84
f 38 84 85
f 38 85 86
f 38 86 40
f 39 78 43
f 39 42 78
f 40 86 41
f 41 86 42
f 42 86 84
f 42 84 87
f 42 87 79
f 44 47 48
f 45 88 89
f 45 89 90
f 45 90 91
f 45 91 92
f 45 92 46
f 46 92 93
f 46 93 94
f 46 94 95
f 46 95 49
f 46 49 47
f 47 49 48
f 49 95 50
f 50 95 94
f 50 94 51
f 51 94 96
f 51 96 53
f 53 96 97
f 53 97 98
f 53 98 56
f 54 59 55
f 55 59 63
f 56 98 57
f 57 98 99
f 57 99 59
f 57 59 58
f 59 99 100
f 59 100 101
f 59 101 64
f 59 64 63
f 60 64 61
f 61 64 102
f 61 102 84
f 61 84 62
f 62 84 65
f 64 101 103
f 64 103 102
f 65 84 66
f 67 77 104
f 68 83 105
f 68 105 106
f 68 106 69
f 69 106 107
f 69 107 108
f 69 108 109
f 69 109 70
f 70 109 110
f 70 110 111
f 70 111 71
f 71 111 112
f 71 112 72
f 72 112 113
f 72 113 73
f 73 113 114
f 73 114 74
f 74 114 115
f 74 115 116
f 74 116 75
f 75 116 117
f 75 117 76
f 76 118 119
f 76 119 120
f 76 120 77
f 76 117 118
f 77 120 121
f 77 121 104
f 79 87 122
f 79 122 80
f 80 122 123
f 80 123 81
f 81 123 83
f 81 83 82
f 83 124 105
f 83 123 124
f 84 125 87
f 84 86 85
f 84 102 126
f 84 126 127
f 84 127 125
f 87 125 128
f 87 128 122
f 88 104 129
f 88 129 130
f 88 130 131
f 88 131 89
f 89 131 132
f 89 132 133
f 89 133 90
f 90 133 134
f 90 134 135
f 90 135 91
f 91 135 136
f 91 136 92
f 92 136 93
f 93 97 96
f 93 96 94
f 93 136 137
f 93 137 138
f 93 138 97
f 97 138 139
f 97 139 140
f 97 140 98
f 98 140 99
f 99 141 142
f 99 142 143
f 99 143 144
f 99 144 145
f 99 145 100
f 99 140 141
f 100 146 101
f 100 145 147
f 100 147 148
f 100 148 146
f 101 146 103
f 102 103 126
f 103 146 149
f 103 149 126
f 104 121 150
f 104 150 129
f 105 124 151
f 105 151 106
f 106 108 107
f 106 151 152
f 106 152 153
f 106 153 108
f 108 110 109
f 108 153 110
f 110 153 154
f 110 154 111
f 111 154 155
f 111 155 156
f 111 156 157
f 111 157 158
f 111 158 112
f 112 158 113
f 113 158 114
f 114 158 159
f 114 159 160
f 114 160 115
f 115 160 118
f 115 118 117
f 115 117 116
f 118 161 119
f 118 160 161
f 119 161 162
f 119 162 163
f 119 163 120
f 120 163 164
f 120 164 121
f 121 164 165
f 121 165 150
f 122 128 123
f 123 128 166
f 123 166 152
f 123 152 124
f 124 152 151
f 125 167 168
f 125 168 128
f 125 127 167
f 126 149 169
f 126 169 170
f 126 170 127
f 127 170 167
f 128 168 167
f 128 167 171
f 128 171 166
f 129 150 172
f 129 172 130
f 130 172 173
f 130 173 131
f 131 173 132
f 132 173 174
f 132 174 175
f 132 175 133
f 133 175 134
f 134 175 176
f 134 176 135
f 135 176 136
f 136 176 177
f 136 177 178
f 136 178 137
f 137 178 138
f 138 178 141
f 138 141 179
f 138 179 139
f 139 179 140
f 140 179 141
f 141 178 180
f 141 180 142
f 142 181 143
f 142 180 182
f 142 182 181
f 143 181 183
f 143 183 144
f 144 184 185
f 144 185 145
f 144 183 184
f 145 185 147
f 146 148 186
f 146 186 187
f 146 187 188
f 146 188 149
f 147 185 148
f 148 185 189
f 148 189 186
f 149 190 191
f 149 191 169
f 149 188 190
f 150 165 172
f 152 166 153
f 153 166 171
f 153 171 192
f 153 192 193
f 153 193 154
f 154 193 155
f 155 193 194
f 155 194 195
f 155 195 156
f 156 195 196
f 156 196 197
f 156 197 157
f 157 197 198
f 157 198 158
f 158 198 159
f 159 198 199
f 159 199 160
f 160 199 161
f 161 199 200
f 161 200 162
f 162 200 201
f 162 201 202
f 162 202 163
f 163 202 203
f 163 203 204
f 163 204 164
f 164 204 205
f 164 205 165
f 165 174 172
f 165 205 206
f 165 206 174
f 167 207 171
f 167 170 207
f 169 191 170
f 170 191 207
f 171 207 192
f 172 174 173
f 174 206 175
f 175 206 208
f 175 208 176
f 176 208 177
f 177 208 209
f 177 209 178
f 178 210 180
f 178 209 210
f 180 210 211
f 180 211 182
f 181 182 212
f 181 212 213
f 181 213 214
f 181 214 183
f 182 211 212
f 183 215 184
f 183 214 216
f 183 216 215
f 184 215 217
f 184 217 218
f 184 218 189
f 184 189 185
f 186 189 187
f 187 189 219
f 187 219 220
f 187 220 188
f 188 220 221
f 188 221 190
f 189 218 222
f 189 222 223
f 189 223 219
f 190 221 224
f 190 224 225
f 190 225 226
f 190 226 191
f 191 226 207
f 192 227 193
f 192 207 226
f 192 226 225
f 192 225 227
f 193 227 194
f 194 227 228
f 194 228 229
f 194 229 195
f 195 229 230
f 195 230 196
f 196 231 197
f 196 230 232
f 196 232 231
f 197 231 198
f 198 231 199
f 199 233 200
f 199 231 233
f 200 233 201
f 201 234 202
f 201 233 234
f 202 234 235
f 202 235 203
f 203 235 236
f 203 236 237
f 203 237 204
f 204 237 238
f 204 238 205
f 205 238 239
f 205 239 240
f 205 240 206
f 206 240 209
f 206 209 208
f 209 240 210
f 210 240 211
f 211 240 239
f 211 239 212
f 212 239 241
f 212 241 213
f 213 242 214
f 213 241 243
f 213 243 242
f 214 242 216
f 215 216 244
f 215 244 217
f 216 242 245
f 216 245 244
f 217 246 218
f 217 244 247
f 217 247 246
f 218 246 222
f 219 223 248
f 219 248 220
f 220 248 249
f 220 249 224
f 220 224 221
f 222 247 250
f 222 250 223
f 222 246 247
f 223 250 251
f 223 251 248
f 224 249 228
f 224 228 225
f 225 228 227
f 228 249 229
f 229 249 252
f 229 252 253
f 229 253 230
f 230 253 254
f 230 254 255
f 230 255 232
f 231 232 233
f 232 255 234
f 232 234 233
f 234 254 245
f 234 245 235
f 234 255 254
f 235 245 236
f 236 245 242
f 236 242 243
f 236 243 237
f 237 243 241
f 237 241 238
f 238 241 239
f 244 245 256
f 244 256 247
f 245 254 256
f 247 256 250
f 248 251 249
f 249 251 252
f 250 256 254
f 250 254 253
f 250 253 252
f 250 252 251
