v -0.053842 -0.021096 0.006597
v -0.053842 -0.021096 0.007700
v -0.053842 -0.020695 0.005800
v -0.034842 -0.038125 0.000104
v -0.035071 -0.038125 0.000787
v -0.035471 -0.038125 0.002017
v -0.035961 -0.038125 0.004116
v -0.036169 -0.038125 0.006214
v -0.053842 -0.019836 0.008685
v -0.035912 -0.038125 0.006754
v -0.035238 -0.038125 0.008123
v -0.053842 -0.020548 0.005548
v -0.034185 -0.038125 -0.000959
v -0.053842 -0.017712 0.009294
v -0.029902 -0.038125 0.011425
v -0.022860 -0.025873 0.017330
v -0.053842 -0.019751 0.005092
v -0.034352 -0.037618 -0.001118
v -0.033711 -0.038125 -0.001171
v -0.053842 -0.000033 0.010664
v -0.022750 -0.038125 0.011425
v -0.022750 -0.025873 0.017357
v -0.022787 -0.025873 0.017350
v -0.053842 -0.019497 0.004960
v -0.036630 -0.031772 -0.001197
v -0.034561 -0.036220 -0.001188
v -0.033123 -0.038125 -0.001241
v -0.053842 0.007358 0.010664
v -0.014058 -0.038125 0.011410
v -0.012135 -0.010424 0.015653
v -0.012135 0.006646 0.015653
v -0.022750 0.002581 0.015653
v -0.053842 -0.017734 0.004669
v -0.036630 -0.030334 -0.001199
v -0.035451 -0.030334 -0.001300
v -0.035471 -0.032453 -0.001248
v -0.053842 -0.016051 0.004611
v -0.053842 -0.015633 0.004598
v -0.031980 -0.038125 -0.001301
v -0.012135 0.006437 0.014608
v -0.012135 0.005733 0.012664
v -0.053842 0.007140 0.010089
v -0.013221 -0.038125 0.007795
v -0.013262 -0.036011 0.011410
v -0.012135 -0.017685 0.014114
v -0.036545 -0.029172 -0.001157
v -0.035397 -0.028380 -0.001236
v -0.053842 -0.013545 0.004629
v -0.053842 -0.011947 0.004658
v -0.053842 -0.009850 0.004700
v -0.053842 -0.007753 0.004752
v -0.053842 -0.007245 0.004764
v -0.053842 -0.005656 0.004814
v -0.053842 -0.005144 0.004832
v -0.053842 -0.003047 0.004920
v -0.053842 -0.001453 0.004995
v -0.053842 -0.000945 0.005021
v -0.033352 -0.034532 -0.001312
v -0.033352 -0.028233 -0.001342
v -0.031258 -0.038125 -0.001316
v -0.012135 0.005559 0.012289
v -0.053842 0.006615 0.008994
v -0.052246 0.006557 0.009080
v -0.013038 -0.038125 0.006212
v -0.012135 -0.024034 0.008147
v -0.012135 -0.017872 0.014002
v -0.034671 -0.026848 -0.001212
v -0.053842 0.000088 0.005094
v -0.053842 0.000413 0.005119
v -0.033254 -0.026145 -0.001239
v -0.029159 -0.024034 -0.001289
v -0.024958 -0.024034 -0.001300
v -0.018655 -0.026131 -0.001323
v -0.016561 -0.038125 -0.001225
v -0.012135 0.004990 0.011330
v -0.053842 0.005893 0.007947
v -0.012135 0.004575 0.010645
v -0.013062 -0.038125 0.005636
v -0.012135 -0.024479 0.004148
v -0.012135 -0.025223 0.006212
v -0.012135 -0.025005 0.006803
v -0.030417 -0.022899 -0.001177
v -0.053842 0.001463 0.005273
v -0.029159 -0.022801 -0.001208
v -0.027057 -0.022645 -0.001221
v -0.024958 -0.022538 -0.001226
v -0.022750 -0.024034 -0.001296
v -0.022750 -0.022645 -0.001228
v -0.016561 -0.026131 -0.001294
v -0.016561 -0.028233 -0.001287
v -0.018663 -0.023927 -0.001243
v -0.015381 -0.036629 -0.001173
v -0.015418 -0.038125 -0.001162
v -0.052246 0.004780 0.006838
v -0.053842 0.005640 0.007662
v -0.012135 0.004063 0.009950
v -0.013589 -0.038125 0.001916
v -0.013323 -0.035979 0.000754
v -0.012135 -0.024092 0.003838
v -0.052246 0.001455 0.005273
v -0.024958 -0.021488 -0.000941
v -0.024958 -0.021884 -0.001049
v -0.053842 0.002812 0.005680
v -0.024187 -0.021884 -0.001045
v -0.022750 -0.022583 -0.001225
v -0.016561 -0.024689 -0.001210
v -0.015503 -0.025080 -0.001137
v -0.015430 -0.026131 -0.001177
v -0.015373 -0.028233 -0.001212
v -0.020758 -0.022739 -0.001201
v -0.019365 -0.022903 -0.001166
v -0.015365 -0.034528 -0.001179
v -0.014319 -0.034528 -0.000308
v -0.014221 -0.038125 0.000059
v -0.053842 0.004843 0.006770
v -0.012135 0.002901 0.008685
v -0.012135 0.001771 0.007647
v -0.012135 0.000724 0.006867
v -0.013323 -0.034528 0.000743
v -0.013331 -0.024938 0.000822
v -0.012135 -0.022049 0.003895
v -0.050143 0.001455 0.005291
v -0.053842 0.003249 0.005830
v -0.012135 -0.003305 0.004953
v -0.017965 -0.023157 -0.001087
v -0.012135 -0.005144 0.004614
v -0.015365 -0.032431 -0.001188
v -0.053842 0.004478 0.006543
v -0.012135 -0.000950 0.005930
v -0.052246 0.003249 0.005897
v -0.012135 -0.007245 0.004424
v -0.012135 -0.009342 0.004318
v -0.012135 -0.002254 0.005277
f 1 2 9
f 1 9 14
f 1 14 20
f 1 20 28
f 1 28 42
f 1 42 62
f 1 62 76
f 1 76 95
f 1 95 115
f 1 115 128
f 1 128 123
f 1 123 103
f 1 103 83
f 1 83 69
f 1 69 68
f 1 68 57
f 1 57 56
f 1 56 55
f 1 55 54
f 1 54 53
f 1 53 52
f 1 52 51
f 1 51 50
f 1 50 49
f 1 49 48
f 1 48 38
f 1 38 37
f 1 37 33
f 1 33 24
f 1 24 17
f 1 17 12
f 1 12 3
f 1 3 4
f 1 4 5
f 1 5 6
f 1 6 7
f 1 7 8
f 1 8 2
f 2 8 10
f 2 10 11
f 2 11 9
f 3 12 4
f 4 13 19
f 4 19 27
f 4 27 39
f 4 39 60
f 4 60 74
f 4 74 93
f 4 93 114
f 4 114 97
f 4 97 78
f 4 78 64
f 4 64 43
f 4 43 29
f 4 29 21
f 4 21 15
f 4 15 11
f 4 11 10
f 4 10 8
f 4 8 7
f 4 7 6
f 4 6 5
f 4 12 13
f 9 11 15
f 9 15 16
f 9 16 14
f 12 17 18
f 12 18 13
f 13 18 19
f 14 16 20
f 15 21 22
f 15 22 23
f 15 23 16
f 16 23 20
f 17 24 18
f 18 25 26
f 18 26 19
f 18 24 25
f 19 26 27
f 20 23 28
f 21 29 22
f 22 29 30
f 22 30 31
f 22 31 32
f 22 32 28
f 22 28 23
f 24 33 25
f 25 34 35
f 25 35 36
f 25 36 27
f 25 27 26
f 25 33 37
f 25 37 38
f 25 38 34
f 27 36 35
f 27 35 39
f 28 32 31
f 28 31 40
f 28 40 41
f 28 41 42
f 29 43 44
f 29 44 30
f 30 45 66
f 30 66 65
f 30 65 81
f 30 81 80
f 30 80 79
f 30 79 99
f 30 99 121
f 30 121 132
f 30 132 131
f 30 131 126
f 30 126 124
f 30 124 133
f 30 133 129
f 30 129 118
f 30 118 117
f 30 117 116
f 30 116 96
f 30 96 77
f 30 77 75
f 30 75 61
f 30 61 41
f 30 41 40
f 30 40 31
f 30 44 45
f 34 46 47
f 34 47 35
f 34 38 48
f 34 48 49
f 34 49 50
f 34 50 51
f 34 51 52
f 34 52 53
f 34 53 54
f 34 54 55
f 34 55 56
f 34 56 57
f 34 57 46
f 35 58 39
f 35 47 59
f 35 59 58
f 39 58 60
f 41 61 42
f 42 61 63
f 42 63 62
f 43 64 44
f 44 64 65
f 44 65 66
f 44 66 45
f 46 67 47
f 46 57 68
f 46 68 69
f 46 69 67
f 47 67 59
f 58 59 60
f 59 67 70
f 59 70 71
f 59 71 72
f 59 72 73
f 59 73 60
f 60 73 74
f 61 75 63
f 62 63 76
f 63 75 77
f 63 77 76
f 64 78 79
f 64 79 80
f 64 80 81
f 64 81 65
f 67 82 70
f 67 69 82
f 69 83 82
f 70 82 71
f 71 82 84
f 71 84 85
f 71 85 86
f 71 86 72
f 72 87 73
f 72 86 88
f 72 88 87
f 73 89 90
f 73 90 74
f 73 87 91
f 73 91 89
f 74 92 93
f 74 90 92
f 76 94 95
f 76 77 96
f 76 96 94
f 78 97 98
f 78 98 79
f 79 98 99
f 82 83 84
f 83 100 101
f 83 101 102
f 83 102 86
f 83 86 85
f 83 85 84
f 83 103 100
f 86 102 104
f 86 104 105
f 86 105 88
f 87 88 91
f 88 105 91
f 89 106 107
f 89 107 108
f 89 108 109
f 89 109 90
f 89 91 106
f 90 109 92
f 91 105 110
f 91 110 111
f 91 111 106
f 92 112 113
f 92 113 93
f 92 109 112
f 93 113 98
f 93 98 114
f 94 115 95
f 94 96 116
f 94 116 117
f 94 117 118
f 94 118 115
f 97 114 98
f 98 113 119
f 98 119 99
f 99 119 120
f 99 120 121
f 100 103 122
f 100 122 101
f 101 122 104
f 101 104 102
f 103 123 122
f 104 122 105
f 105 122 124
f 105 124 110
f 106 111 125
f 106 125 107
f 107 120 108
f 107 125 124
f 107 124 126
f 107 126 120
f 108 120 109
f 109 120 113
f 109 113 127
f 109 127 112
f 110 124 111
f 111 124 125
f 112 127 113
f 113 120 119
f 115 118 128
f 118 129 130
f 118 130 128
f 120 126 131
f 120 131 132
f 120 132 121
f 122 123 133
f 122 133 124
f 123 130 133
f 123 128 130
f 129 133 130
