v -0.015216 0.005846 0.049631
v -0.015303 0.005173 0.049631
v -0.022068 0.001188 0.049629
v -0.022068 0.005721 0.049629
v -0.015308 0.006507 0.049631
v -0.015348 0.006507 0.050069
v -0.015434 0.006507 0.050734
v -0.015543 0.006507 0.051398
v -0.015736 0.006342 0.052529
v -0.015736 0.006038 0.052529
v -0.015564 0.004541 0.049631
v -0.015809 0.005827 0.052741
v -0.019036 0.001369 0.065724
v -0.018972 0.001369 0.065382
v -0.018861 0.001369 0.064675
v -0.018074 0.001187 0.049631
v -0.026334 0.001187 0.049629
v -0.015730 0.004285 0.049631
v -0.025093 0.008144 0.049629
v -0.016181 0.007691 0.049631
v -0.015847 0.007421 0.049631
v -0.015670 0.007201 0.049631
v -0.015581 0.007088 0.049631
v -0.015594 0.007080 0.050069
v -0.015628 0.007037 0.050734
v -0.015680 0.006966 0.051398
v -0.015725 0.006896 0.051908
v -0.015737 0.006865 0.052038
v -0.015770 0.006785 0.052353
v -0.015669 0.006539 0.052038
v -0.015942 0.005842 0.053391
v -0.015822 0.006541 0.052741
v -0.017092 0.005476 0.057699
v -0.016998 0.005224 0.057437
v -0.019036 0.001860 0.065759
v -0.018804 0.001369 0.064012
v -0.019258 0.001860 0.066090
v -0.019264 0.001369 0.066015
v -0.018774 0.001187 0.052036
v -0.028841 0.004463 0.049629
v -0.025620 0.001187 0.052034
v -0.025388 0.001369 0.065337
v -0.025451 0.001369 0.064675
v -0.025425 0.008315 0.049629
v -0.017002 0.008214 0.049631
v -0.016909 0.008164 0.049631
v -0.016690 0.008028 0.049631
v -0.016187 0.007682 0.050069
v -0.015854 0.007412 0.050069
v -0.015886 0.007369 0.050734
v -0.015944 0.007298 0.051398
v -0.015895 0.007057 0.052038
v -0.016205 0.007206 0.052678
v -0.016265 0.007025 0.053391
v -0.016358 0.006917 0.053890
v -0.016010 0.006507 0.053391
v -0.016455 0.006780 0.054333
v -0.019074 0.004193 0.064355
v -0.019055 0.003573 0.065067
v -0.019082 0.002834 0.065662
v -0.019060 0.002391 0.065712
v -0.019243 0.002577 0.065962
v -0.019545 0.001369 0.066319
v -0.019613 0.002524 0.066432
v -0.019591 0.001860 0.066435
v -0.022067 0.001187 0.052036
v -0.019631 0.001369 0.066407
v -0.019950 0.001369 0.066509
v -0.020076 0.001369 0.066545
v -0.020567 0.001369 0.066600
v -0.020739 0.001369 0.066614
v -0.022021 0.001369 0.066610
v -0.023395 0.001369 0.066615
v -0.029046 0.004851 0.049629
v -0.023886 0.001369 0.066597
v -0.024058 0.001369 0.066589
v -0.024640 0.001369 0.066445
v -0.024885 0.001369 0.066307
v -0.024973 0.001369 0.066255
v -0.025191 0.001369 0.065924
v -0.025340 0.001369 0.065487
v -0.025375 0.001859 0.065337
v -0.028012 0.005178 0.055385
v -0.028175 0.005178 0.054720
v -0.028397 0.005389 0.053810
v -0.028313 0.005173 0.054041
v -0.028356 0.004947 0.053598
v -0.026051 0.008481 0.049629
v -0.017420 0.008310 0.049631
v -0.017032 0.008195 0.049851
v -0.016276 0.007609 0.051398
v -0.016217 0.007658 0.050734
v -0.016362 0.007545 0.052051
v -0.016417 0.007508 0.052419
v -0.015980 0.007154 0.052038
v -0.015984 0.007139 0.052104
v -0.016538 0.007452 0.052863
v -0.016709 0.007084 0.054088
v -0.017038 0.006874 0.055143
v -0.019635 0.004268 0.065193
v -0.019797 0.004162 0.065634
v -0.019395 0.003867 0.065350
v -0.019191 0.004015 0.064797
v -0.019597 0.003719 0.065872
v -0.019137 0.003188 0.065542
v -0.019481 0.003228 0.066057
v -0.019673 0.003034 0.066390
v -0.020076 0.002524 0.066589
v -0.020076 0.001860 0.066585
v -0.020739 0.002524 0.066657
v -0.021232 0.001369 0.066615
v -0.021404 0.002524 0.066659
v -0.023395 0.002524 0.066614
v -0.029132 0.005233 0.049629
v -0.024058 0.001859 0.066580
v -0.024625 0.001859 0.066440
v -0.024956 0.001859 0.066240
v -0.025184 0.001859 0.065910
v -0.025268 0.003188 0.065337
v -0.025485 0.003188 0.064675
v -0.026437 0.003852 0.061209
v -0.028324 0.005842 0.054185
v -0.028407 0.005842 0.053851
v -0.028515 0.005842 0.053393
v -0.028437 0.005173 0.053381
v -0.026275 0.008497 0.049629
v -0.018086 0.008370 0.049631
v -0.017421 0.007689 0.052728
v -0.016982 0.007537 0.053211
v -0.016759 0.007573 0.052678
v -0.016759 0.007375 0.053418
v -0.019726 0.004852 0.063700
v -0.019084 0.004844 0.063008
v -0.020042 0.004336 0.065385
v -0.020240 0.004230 0.065745
v -0.020010 0.003890 0.066029
v -0.019780 0.003477 0.066312
v -0.020032 0.003228 0.066474
v -0.020739 0.003188 0.066595
v -0.022070 0.003188 0.066640
v -0.022730 0.003188 0.066619
v -0.023395 0.003188 0.066580
v -0.024058 0.002524 0.066559
v -0.029144 0.005408 0.049629
v -0.024537 0.002524 0.066417
v -0.024450 0.003188 0.066370
v -0.024782 0.003188 0.066070
v -0.025100 0.003188 0.065739
v -0.025143 0.002524 0.065822
v -0.025063 0.003532 0.065680
v -0.025145 0.003695 0.065337
v -0.025592 0.003819 0.063972
v -0.025732 0.003573 0.063727
v -0.028397 0.006249 0.053808
v -0.028579 0.006507 0.052728
v -0.028629 0.005842 0.052728
v -0.026714 0.008490 0.049629
v -0.026051 0.007984 0.052728
v -0.017749 0.007503 0.053725
v -0.017485 0.007555 0.053418
v -0.025725 0.007507 0.055062
v -0.017306 0.007487 0.053655
v -0.020076 0.004604 0.064675
v -0.019411 0.005560 0.061193
v -0.021404 0.004638 0.065337
v -0.022036 0.004393 0.066064
v -0.021790 0.004170 0.066325
v -0.020223 0.003618 0.066400
v -0.022025 0.003917 0.066460
v -0.022749 0.003902 0.066459
v -0.023395 0.003756 0.066437
v -0.024058 0.003615 0.066380
v -0.024058 0.003188 0.066487
v -0.029159 0.005844 0.049629
v -0.024395 0.003525 0.066335
v -0.024637 0.003749 0.065915
v -0.024436 0.004215 0.065710
v -0.024922 0.004028 0.065337
v -0.025056 0.004184 0.065005
v -0.025291 0.003920 0.064740
v -0.025759 0.004258 0.063128
v -0.028317 0.006692 0.053560
v -0.028390 0.006862 0.053116
v -0.028444 0.006485 0.053358
v -0.027724 0.006194 0.055752
v -0.028440 0.006929 0.052728
v -0.028681 0.006507 0.052063
v -0.029070 0.006249 0.049862
v -0.029142 0.006039 0.049629
v -0.026915 0.008448 0.049629
v -0.026714 0.007939 0.052728
v -0.026051 0.007850 0.053393
v -0.022070 0.004744 0.065337
v -0.025999 0.007557 0.054728
v -0.026188 0.007475 0.054957
v -0.024069 0.004759 0.064642
v -0.023855 0.004863 0.064397
v -0.022730 0.004715 0.065337
v -0.022021 0.004737 0.065337
v -0.022749 0.004376 0.066057
v -0.022541 0.004210 0.066357
v -0.022232 0.004210 0.066357
v -0.022983 0.004158 0.066317
v -0.023395 0.004090 0.066260
v -0.024058 0.003946 0.066135
v -0.024058 0.004508 0.065337
v -0.024589 0.004309 0.065337
v -0.024058 0.004277 0.065804
v -0.024789 0.004453 0.064740
v -0.024984 0.004823 0.063613
v -0.027072 0.006856 0.055760
v -0.027769 0.006893 0.054496
v -0.027877 0.006988 0.054055
v -0.028075 0.007068 0.053358
v -0.028023 0.007307 0.052784
v -0.028203 0.007352 0.052049
v -0.028504 0.007027 0.052049
v -0.029089 0.006282 0.049629
v -0.027393 0.008288 0.049629
v -0.027312 0.008269 0.050069
v -0.027189 0.008216 0.050607
v -0.027440 0.007677 0.052784
v -0.027263 0.007603 0.053393
v -0.026714 0.007782 0.053393
v -0.027378 0.007858 0.052049
v -0.026499 0.007537 0.054515
v -0.024297 0.004835 0.064293
v -0.023395 0.004626 0.065337
v -0.023395 0.004350 0.065929
v -0.024746 0.004753 0.064048
v -0.026714 0.007160 0.055385
v -0.026940 0.007467 0.054283
v -0.027125 0.007540 0.053838
v -0.027360 0.007336 0.054056
v -0.027597 0.007442 0.053393
v -0.027701 0.007499 0.053041
v -0.027788 0.007554 0.052599
v -0.027868 0.007615 0.052063
v -0.027939 0.007688 0.051398
v -0.028270 0.007402 0.051398
v -0.028539 0.007067 0.051398
v -0.028930 0.006591 0.049629
v -0.027693 0.008159 0.049629
v -0.027644 0.008138 0.050069
v -0.027397 0.008099 0.050791
v -0.026717 0.007600 0.054056
v -0.026717 0.007394 0.054728
v -0.027739 0.008115 0.049629
v -0.028308 0.007431 0.050732
v -0.028581 0.007121 0.050069
v -0.028813 0.006805 0.049629
v -0.028337 0.007459 0.049629
v -0.028332 0.007451 0.050069
v -0.028595 0.007125 0.049629
f 1 2 3
f 1 3 4
f 1 4 5
f 1 5 6
f 1 6 7
f 1 7 8
f 1 8 9
f 1 9 10
f 1 10 2
f 2 11 3
f 2 10 12
f 2 12 13
f 2 13 14
f 2 14 15
f 2 15 11
f 3 16 17
f 3 17 40
f 3 40 74
f 3 74 114
f 3 114 144
f 3 144 174
f 3 174 189
f 3 189 218
f 3 218 242
f 3 242 251
f 3 251 254
f 3 254 252
f 3 252 248
f 3 248 243
f 3 243 219
f 3 219 190
f 3 190 157
f 3 157 126
f 3 126 88
f 3 88 44
f 3 44 19
f 3 19 4
f 3 11 18
f 3 18 16
f 4 19 20
f 4 20 21
f 4 21 22
f 4 22 23
f 4 23 5
f 5 23 24
f 5 24 25
f 5 25 6
f 6 25 26
f 6 26 7
f 7 26 27
f 7 27 28
f 7 28 8
f 8 28 29
f 8 29 30
f 8 30 9
f 9 31 10
f 9 30 29
f 9 29 32
f 9 32 33
f 9 33 34
f 9 34 35
f 9 35 31
f 10 31 13
f 10 13 12
f 11 15 36
f 11 36 18
f 13 31 35
f 13 35 37
f 13 37 38
f 13 38 39
f 13 39 16
f 13 16 14
f 14 16 15
f 15 16 36
f 16 18 36
f 16 39 66
f 16 66 41
f 16 41 17
f 17 41 42
f 17 42 43
f 17 43 40
f 19 44 45
f 19 45 46
f 19 46 47
f 19 47 20
f 20 47 48
f 20 48 49
f 20 49 21
f 21 49 22
f 22 49 24
f 22 24 23
f 24 49 50
f 24 50 25
f 25 50 26
f 26 51 27
f 26 50 51
f 27 51 52
f 27 52 28
f 28 52 53
f 28 53 54
f 28 54 29
f 29 54 55
f 29 55 56
f 29 56 32
f 32 56 33
f 33 56 57
f 33 57 58
f 33 58 59
f 33 59 60
f 33 60 34
f 34 60 61
f 34 61 35
f 35 62 37
f 35 61 62
f 37 63 38
f 37 62 64
f 37 64 65
f 37 65 63
f 38 63 39
f 39 63 67
f 39 67 68
f 39 68 69
f 39 69 70
f 39 70 71
f 39 71 72
f 39 72 73
f 39 73 66
f 40 43 42
f 40 42 74
f 41 66 73
f 41 73 75
f 41 75 76
f 41 76 77
f 41 77 78
f 41 78 79
f 41 79 80
f 41 80 81
f 41 81 42
f 42 81 82
f 42 82 83
f 42 83 84
f 42 84 85
f 42 85 86
f 42 86 87
f 42 87 74
f 44 88 45
f 45 88 89
f 45 89 90
f 45 90 91
f 45 91 92
f 45 92 46
f 46 92 47
f 47 92 48
f 48 92 49
f 49 92 50
f 50 92 91
f 50 91 51
f 51 91 93
f 51 93 94
f 51 94 95
f 51 95 52
f 52 95 96
f 52 96 53
f 53 96 94
f 53 94 54
f 54 94 97
f 54 97 55
f 55 97 98
f 55 98 99
f 55 99 100
f 55 100 58
f 55 58 57
f 55 57 56
f 58 100 101
f 58 101 102
f 58 102 103
f 58 103 59
f 59 103 102
f 59 102 104
f 59 104 105
f 59 105 60
f 60 105 106
f 60 106 107
f 60 107 62
f 60 62 61
f 62 107 64
f 63 65 67
f 64 108 65
f 64 107 108
f 65 68 67
f 65 108 109
f 65 109 68
f 68 109 69
f 69 109 70
f 70 109 71
f 71 110 111
f 71 111 73
f 71 73 72
f 71 109 110
f 73 111 112
f 73 112 113
f 73 113 75
f 74 87 114
f 75 113 76
f 76 113 115
f 76 115 77
f 77 115 116
f 77 116 78
f 78 116 79
f 79 116 117
f 79 117 118
f 79 118 80
f 80 118 81
f 81 118 82
f 82 119 120
f 82 120 121
f 82 121 122
f 82 122 83
f 82 118 119
f 83 122 123
f 83 123 84
f 84 123 124
f 84 124 85
f 85 124 114
f 85 114 125
f 85 125 87
f 85 87 86
f 87 125 114
f 88 126 127
f 88 127 89
f 89 127 128
f 89 128 129
f 89 129 90
f 90 129 130
f 90 130 94
f 90 94 93
f 90 93 91
f 94 96 95
f 94 130 129
f 94 129 97
f 97 129 131
f 97 131 98
f 98 131 99
f 99 132 133
f 99 133 100
f 99 131 129
f 99 129 132
f 100 133 132
f 100 132 101
f 101 132 134
f 101 134 135
f 101 135 136
f 101 136 137
f 101 137 104
f 101 104 102
f 104 137 106
f 104 106 105
f 106 137 107
f 107 137 138
f 107 138 108
f 108 139 110
f 108 110 109
f 108 138 139
f 110 140 112
f 110 112 111
f 110 139 140
f 112 140 113
f 113 140 141
f 113 141 142
f 113 142 143
f 113 143 115
f 114 124 144
f 115 143 116
f 116 145 117
f 116 143 145
f 117 145 146
f 117 146 147
f 117 147 148
f 117 148 118
f 118 149 119
f 118 148 149
f 119 149 148
f 119 148 150
f 119 150 151
f 119 151 152
f 119 152 153
f 119 153 120
f 120 153 121
f 121 153 122
f 122 153 154
f 122 154 123
f 123 154 124
f 124 154 155
f 124 155 156
f 124 156 144
f 126 157 158
f 126 158 127
f 127 159 160
f 127 160 128
f 127 158 161
f 127 161 159
f 128 160 162
f 128 162 129
f 129 162 132
f 132 163 134
f 132 162 164
f 132 164 165
f 132 165 163
f 134 165 135
f 134 163 165
f 135 166 167
f 135 167 168
f 135 168 136
f 135 165 166
f 136 168 137
f 137 168 138
f 138 168 139
f 139 168 169
f 139 169 140
f 140 169 170
f 140 170 141
f 141 170 142
f 142 170 171
f 142 171 172
f 142 172 173
f 142 173 143
f 143 173 145
f 144 156 174
f 145 173 146
f 146 175 147
f 146 173 175
f 147 175 150
f 147 150 148
f 150 175 176
f 150 176 177
f 150 177 178
f 150 178 179
f 150 179 151
f 151 179 180
f 151 180 152
f 152 180 181
f 152 181 154
f 152 154 153
f 154 182 183
f 154 183 184
f 154 184 155
f 154 181 185
f 154 185 182
f 155 186 187
f 155 187 188
f 155 188 189
f 155 189 174
f 155 174 156
f 155 184 183
f 155 183 186
f 157 190 191
f 157 191 158
f 158 191 192
f 158 192 161
f 159 162 160
f 159 161 193
f 159 193 162
f 161 194 195
f 161 195 196
f 161 196 197
f 161 197 198
f 161 198 193
f 161 192 194
f 162 193 199
f 162 199 165
f 162 165 164
f 165 199 166
f 166 200 201
f 166 201 202
f 166 202 167
f 166 199 193
f 166 193 200
f 167 202 168
f 168 202 169
f 169 202 201
f 169 201 170
f 170 201 171
f 171 201 203
f 171 203 172
f 172 203 204
f 172 204 175
f 172 175 173
f 175 204 205
f 175 205 177
f 175 177 176
f 177 206 207
f 177 207 179
f 177 179 178
f 177 205 208
f 177 208 206
f 179 209 210
f 179 210 211
f 179 211 212
f 179 212 185
f 179 185 180
f 179 207 209
f 180 185 181
f 182 185 183
f 183 185 212
f 183 212 213
f 183 213 214
f 183 214 215
f 183 215 216
f 183 216 186
f 186 216 217
f 186 217 187
f 187 217 188
f 188 218 189
f 188 217 218
f 190 219 220
f 190 220 221
f 190 221 191
f 191 222 223
f 191 223 224
f 191 224 194
f 191 194 192
f 191 221 225
f 191 225 222
f 193 198 200
f 194 224 195
f 195 224 226
f 195 226 227
f 195 227 196
f 196 227 206
f 196 206 228
f 196 228 198
f 196 198 197
f 198 228 229
f 198 229 200
f 200 229 201
f 201 229 203
f 203 229 208
f 203 208 204
f 204 208 205
f 206 208 229
f 206 229 228
f 206 227 207
f 207 227 230
f 207 230 210
f 207 210 209
f 210 230 227
f 210 227 231
f 210 231 211
f 211 231 232
f 211 232 233
f 211 233 234
f 211 234 235
f 211 235 212
f 212 235 213
f 213 235 236
f 213 236 214
f 214 236 215
f 215 237 216
f 215 236 237
f 216 237 238
f 216 238 239
f 216 239 240
f 216 240 217
f 217 240 241
f 217 241 218
f 218 241 242
f 219 243 244
f 219 244 220
f 220 244 221
f 221 244 245
f 221 245 225
f 222 225 237
f 222 237 236
f 222 236 223
f 223 236 233
f 223 233 224
f 224 233 246
f 224 246 226
f 225 245 244
f 225 244 237
f 226 247 227
f 226 246 233
f 226 233 232
f 226 232 247
f 227 247 231
f 231 247 232
f 233 236 235
f 233 235 234
f 237 244 238
f 238 244 239
f 239 244 240
f 240 244 243
f 240 243 248
f 240 248 249
f 240 249 241
f 241 249 250
f 241 250 251
f 241 251 242
f 248 252 253
f 248 253 249
f 249 253 250
f 250 253 254
f 250 254 251
f 252 254 253
