v -0.015069 -0.002364 0.048409
v -0.015069 -0.002500 0.048409
v -0.015153 -0.001979 0.048409
v -0.018971 0.001368 0.065382
v -0.019032 0.001368 0.065705
v -0.019040 0.001368 0.065748
v -0.016412 -0.002403 0.054429
v -0.015077 -0.002561 0.048409
v -0.016412 -0.002517 0.054429
v -0.016117 -0.003452 0.052727
v -0.015230 -0.001668 0.048409
v -0.018862 0.001368 0.064674
v -0.019042 0.001311 0.065746
v -0.019264 0.001368 0.066016
v -0.015139 -0.002919 0.048409
v -0.015419 -0.003452 0.049404
v -0.016389 -0.003257 0.053836
v -0.016312 -0.003468 0.053414
v -0.019051 -0.000564 0.065092
v -0.016375 -0.003873 0.053209
v -0.016308 -0.004013 0.052727
v -0.015744 -0.003816 0.050485
v -0.015310 -0.001468 0.048409
v -0.018805 0.001368 0.064012
v -0.015475 -0.001122 0.048409
v -0.017103 0.000974 0.048409
v -0.019145 -0.000135 0.065484
v -0.019742 -0.000469 0.066338
v -0.019455 -0.000135 0.066004
v -0.019545 0.001368 0.066320
v -0.019721 -0.000135 0.066354
v -0.015177 -0.003112 0.048409
v -0.015512 -0.003601 0.049629
v -0.015625 -0.003981 0.049404
v -0.015332 -0.003452 0.048741
v -0.016451 -0.003699 0.053652
v -0.019227 -0.000791 0.065325
v -0.019128 -0.001008 0.064866
v -0.016430 -0.004442 0.052375
v -0.017073 -0.003801 0.055087
v -0.016246 -0.004181 0.052116
v -0.015695 -0.003891 0.050068
v -0.018799 0.001368 0.063838
v -0.022255 0.000975 0.048409
v -0.022329 0.001186 0.049631
v -0.018076 0.001185 0.049629
v -0.018758 0.001368 0.052037
v -0.018782 0.001368 0.063174
v -0.019595 -0.000733 0.065991
v -0.020076 -0.000135 0.066463
v -0.020106 -0.000733 0.066395
v -0.020347 -0.001168 0.066366
v -0.019904 -0.000911 0.066205
v -0.019668 -0.001205 0.065764
v -0.019632 0.001368 0.066409
v -0.019950 0.001368 0.066509
v -0.020076 0.001368 0.066548
v -0.015296 -0.003428 0.048409
v -0.015649 -0.003950 0.049629
v -0.016386 -0.004488 0.051930
v -0.016335 -0.004543 0.051398
v -0.015875 -0.004313 0.049404
v -0.015847 -0.004342 0.048741
v -0.015607 -0.004010 0.048741
v -0.015436 -0.003713 0.048409
v -0.019557 -0.001308 0.065339
v -0.016693 -0.004658 0.052116
v -0.016757 -0.004838 0.051398
v -0.016978 -0.004524 0.053261
v -0.016843 -0.004603 0.052727
v -0.017114 -0.004441 0.053706
v -0.027554 0.000975 0.048409
v -0.026340 0.001186 0.049631
v -0.025637 0.001368 0.052037
v -0.020739 -0.000135 0.066554
v -0.020739 -0.000799 0.066464
v -0.023397 -0.000798 0.066563
v -0.022731 -0.001195 0.066388
v -0.022068 -0.001487 0.066004
v -0.022068 -0.001766 0.065569
v -0.020739 -0.001410 0.066004
v -0.020117 -0.001641 0.065296
v -0.020106 -0.001300 0.065991
v -0.019925 -0.001735 0.064810
v -0.019734 -0.001801 0.064367
v -0.020567 0.001368 0.066602
v -0.016804 -0.004961 0.050765
v -0.016281 -0.004594 0.050733
v -0.016206 -0.004651 0.049404
v -0.016000 -0.004418 0.049629
v -0.016218 -0.004642 0.049629
v -0.016179 -0.004665 0.048741
v -0.016186 -0.004664 0.048409
v -0.015854 -0.004332 0.048409
v -0.015613 -0.004000 0.048409
v -0.017215 -0.005108 0.051006
v -0.017055 -0.005128 0.050563
v -0.017420 -0.004805 0.052727
v -0.020366 -0.001804 0.065046
v -0.017369 -0.004586 0.053447
v -0.029052 -0.001115 0.048409
v -0.025389 0.001368 0.065339
v -0.025451 0.001368 0.064674
v -0.025524 0.001368 0.062827
v -0.025548 0.001368 0.062206
v -0.025552 0.001368 0.062018
v -0.025560 0.001368 0.061564
v -0.020739 0.000529 0.066582
v -0.023397 -0.000135 0.066659
v -0.024060 -0.000135 0.066647
v -0.024060 -0.000798 0.066525
v -0.023397 -0.001193 0.066391
v -0.022357 -0.001481 0.066004
v -0.022731 -0.001740 0.065516
v -0.022357 -0.001799 0.065402
v -0.026715 -0.004676 0.053391
v -0.022068 -0.001849 0.065235
v -0.018084 -0.004672 0.053389
v -0.018084 -0.004341 0.054719
v -0.018084 -0.004172 0.055383
v -0.020739 -0.001709 0.065375
v -0.022731 -0.001472 0.066002
v -0.023397 -0.001428 0.066002
v -0.024060 -0.001381 0.066002
v -0.020739 0.001368 0.066614
v -0.017010 -0.005152 0.050068
v -0.016678 -0.004957 0.050068
v -0.016626 -0.004983 0.049404
v -0.016497 -0.004863 0.049629
v -0.016245 -0.004625 0.050068
v -0.016604 -0.004998 0.048741
v -0.016604 -0.004996 0.048409
v -0.016391 -0.004829 0.048409
v -0.017420 -0.004941 0.052062
v -0.018409 -0.005811 0.048409
v -0.018356 -0.005798 0.048409
v -0.017675 -0.005569 0.048409
v -0.029237 -0.001462 0.048409
v -0.025393 0.001194 0.065339
v -0.025340 0.001368 0.065487
v -0.029390 -0.002117 0.048409
v -0.021404 0.001368 0.066616
v -0.023397 0.001368 0.066614
v -0.023888 0.001368 0.066597
v -0.024060 0.001368 0.066589
v -0.024495 0.001368 0.066482
v -0.024642 0.001368 0.066445
v -0.024646 0.001194 0.066448
v -0.024607 -0.000135 0.066473
v -0.024502 -0.000798 0.066405
v -0.024395 -0.001132 0.066336
v -0.024060 -0.001164 0.066364
v -0.024060 -0.001653 0.065339
v -0.022731 -0.001842 0.065184
v -0.026715 -0.004521 0.053954
v -0.027157 -0.004497 0.053859
v -0.027380 -0.004752 0.052727
v -0.026435 -0.005795 0.048471
v -0.026051 -0.005821 0.048409
v -0.018747 -0.005815 0.048409
v -0.024528 -0.001234 0.066002
v -0.016958 -0.005185 0.049404
v -0.016935 -0.005204 0.048741
v -0.016936 -0.005205 0.048409
v -0.017176 -0.005338 0.048409
v -0.025342 0.000530 0.065339
v -0.025194 0.001194 0.065930
v -0.028406 -0.003454 0.052518
v -0.028325 -0.003454 0.052848
v -0.028400 -0.003841 0.052484
v -0.025192 0.001368 0.065925
v -0.029330 -0.002789 0.048409
v -0.024887 0.001368 0.066309
v -0.024978 0.001194 0.066263
v -0.024939 -0.000135 0.066155
v -0.024854 -0.000807 0.065995
v -0.025013 -0.001033 0.065552
v -0.024470 -0.001828 0.064473
v -0.027378 -0.004568 0.053379
v -0.027760 -0.004489 0.053150
v -0.027835 -0.004551 0.052727
v -0.027380 -0.004891 0.052062
v -0.026445 -0.005800 0.048409
v -0.027378 -0.004896 0.052037
v -0.027569 -0.005081 0.050733
v -0.027697 -0.005109 0.050352
v -0.024765 -0.001354 0.065334
v -0.025277 -0.000135 0.065339
v -0.025123 -0.000135 0.065823
v -0.028186 -0.004084 0.052714
v -0.027732 -0.003812 0.054436
v -0.025095 -0.000591 0.065768
v -0.028918 -0.003453 0.050070
v -0.028618 -0.004117 0.050733
v -0.028442 -0.003929 0.052062
v -0.028378 -0.004451 0.051074
v -0.028256 -0.004261 0.052062
v -0.024974 0.001368 0.066257
v -0.029145 -0.003338 0.048409
v -0.028712 -0.004117 0.050070
v -0.027913 -0.004139 0.053379
v -0.027924 -0.004627 0.052062
v -0.026593 -0.005739 0.048409
v -0.027929 -0.004627 0.052037
v -0.028044 -0.004782 0.050733
v -0.027988 -0.004908 0.050108
v -0.027730 -0.005126 0.049911
v -0.027380 -0.005366 0.048741
v -0.028075 -0.004644 0.051337
v -0.028407 -0.004483 0.050733
v -0.029079 -0.003505 0.048409
v -0.028449 -0.004528 0.050070
v -0.028734 -0.004117 0.049631
v -0.026752 -0.005665 0.048409
v -0.028088 -0.004883 0.049406
v -0.027757 -0.005142 0.049406
v -0.027771 -0.005149 0.048741
v -0.027380 -0.005367 0.048409
v -0.028988 -0.003671 0.048409
v -0.028747 -0.004117 0.048741
v -0.028745 -0.004117 0.049406
v -0.028465 -0.004551 0.049406
v -0.028102 -0.004896 0.048741
v -0.028096 -0.004892 0.048409
v -0.027764 -0.005145 0.048409
v -0.028738 -0.004117 0.048409
v -0.028465 -0.004565 0.048741
v -0.028277 -0.004727 0.048409
v -0.028459 -0.004560 0.048409
f 1 2 8
f 1 8 15
f 1 15 32
f 1 32 58
f 1 58 65
f 1 65 95
f 1 95 94
f 1 94 93
f 1 93 133
f 1 133 132
f 1 132 164
f 1 164 165
f 1 165 137
f 1 137 136
f 1 136 135
f 1 135 160
f 1 160 159
f 1 159 183
f 1 183 203
f 1 203 214
f 1 214 218
f 1 218 225
f 1 225 224
f 1 224 228
f 1 228 229
f 1 229 226
f 1 226 219
f 1 219 211
f 1 211 199
f 1 199 172
f 1 172 141
f 1 141 138
f 1 138 101
f 1 101 72
f 1 72 44
f 1 44 26
f 1 26 25
f 1 25 23
f 1 23 11
f 1 11 3
f 1 3 4
f 1 4 5
f 1 5 6
f 1 6 7
f 1 7 9
f 1 9 2
f 2 9 10
f 2 10 8
f 3 11 4
f 4 12 24
f 4 24 43
f 4 43 48
f 4 48 47
f 4 47 74
f 4 74 107
f 4 107 106
f 4 106 105
f 4 105 104
f 4 104 103
f 4 103 102
f 4 102 140
f 4 140 171
f 4 171 198
f 4 198 173
f 4 173 147
f 4 147 146
f 4 146 145
f 4 145 144
f 4 144 143
f 4 143 142
f 4 142 125
f 4 125 86
f 4 86 57
f 4 57 56
f 4 56 55
f 4 55 30
f 4 30 14
f 4 14 6
f 4 6 5
f 4 11 12
f 6 13 9
f 6 9 7
f 6 14 13
f 8 10 16
f 8 16 15
f 9 17 18
f 9 18 10
f 9 13 19
f 9 19 17
f 10 20 21
f 10 21 22
f 10 22 16
f 10 18 20
f 11 23 12
f 12 23 25
f 12 25 26
f 12 26 24
f 13 27 19
f 13 14 28
f 13 28 29
f 13 29 27
f 14 30 31
f 14 31 28
f 15 16 32
f 16 22 33
f 16 33 34
f 16 34 35
f 16 35 32
f 17 19 18
f 18 19 36
f 18 36 20
f 19 27 37
f 19 37 38
f 19 38 36
f 20 39 21
f 20 36 38
f 20 38 40
f 20 40 39
f 21 39 41
f 21 41 22
f 22 42 33
f 22 41 42
f 24 26 43
f 26 44 45
f 26 45 46
f 26 46 47
f 26 47 48
f 26 48 43
f 27 29 49
f 27 49 37
f 28 31 50
f 28 50 51
f 28 51 52
f 28 52 53
f 28 53 54
f 28 54 49
f 28 49 29
f 30 55 31
f 31 55 56
f 31 56 57
f 31 57 50
f 32 35 58
f 33 59 34
f 33 42 59
f 34 59 39
f 34 39 60
f 34 60 61
f 34 61 62
f 34 62 63
f 34 63 64
f 34 64 65
f 34 65 58
f 34 58 35
f 37 49 54
f 37 54 38
f 38 54 66
f 38 66 40
f 39 67 68
f 39 68 61
f 39 61 60
f 39 59 42
f 39 42 41
f 39 40 69
f 39 69 70
f 39 70 67
f 40 66 71
f 40 71 69
f 44 72 73
f 44 73 45
f 45 73 74
f 45 74 47
f 45 47 46
f 50 57 75
f 50 75 51
f 51 75 76
f 51 76 52
f 52 76 77
f 52 77 78
f 52 78 79
f 52 79 80
f 52 80 81
f 52 81 82
f 52 82 83
f 52 83 54
f 52 54 53
f 54 83 82
f 54 82 84
f 54 84 85
f 54 85 66
f 57 86 75
f 61 68 87
f 61 87 88
f 61 88 62
f 62 89 63
f 62 88 90
f 62 90 91
f 62 91 89
f 63 89 92
f 63 92 93
f 63 93 94
f 63 94 95
f 63 95 64
f 64 95 65
f 66 85 71
f 67 70 68
f 68 96 97
f 68 97 87
f 68 70 96
f 69 98 70
f 69 71 98
f 70 98 96
f 71 85 84
f 71 84 82
f 71 82 99
f 71 99 100
f 71 100 98
f 72 101 102
f 72 102 103
f 72 103 104
f 72 104 105
f 72 105 106
f 72 106 107
f 72 107 74
f 72 74 73
f 75 86 108
f 75 108 109
f 75 109 76
f 76 109 77
f 77 109 110
f 77 110 111
f 77 111 112
f 77 112 78
f 78 112 79
f 79 112 113
f 79 113 80
f 80 114 115
f 80 115 116
f 80 116 117
f 80 117 118
f 80 118 119
f 80 119 120
f 80 120 99
f 80 99 121
f 80 121 81
f 80 113 122
f 80 122 123
f 80 123 124
f 80 124 114
f 81 121 99
f 81 99 82
f 86 125 108
f 87 97 126
f 87 126 127
f 87 127 88
f 88 127 128
f 88 128 129
f 88 129 130
f 88 130 91
f 88 91 90
f 89 91 129
f 89 129 128
f 89 128 92
f 91 130 129
f 92 128 131
f 92 131 132
f 92 132 133
f 92 133 93
f 96 98 134
f 96 134 135
f 96 135 136
f 96 136 97
f 97 136 137
f 97 137 126
f 98 135 134
f 98 100 120
f 98 120 119
f 98 119 118
f 98 118 135
f 99 120 100
f 101 138 102
f 102 139 140
f 102 138 141
f 102 141 139
f 108 125 109
f 109 125 142
f 109 142 143
f 109 143 110
f 110 143 144
f 110 144 145
f 110 145 146
f 110 146 147
f 110 147 148
f 110 148 149
f 110 149 150
f 110 150 111
f 111 150 151
f 111 151 152
f 111 152 112
f 112 152 123
f 112 123 122
f 112 122 113
f 114 153 154
f 114 154 115
f 114 124 153
f 115 154 116
f 116 118 117
f 116 154 155
f 116 155 156
f 116 156 157
f 116 157 158
f 116 158 159
f 116 159 118
f 118 159 160
f 118 160 135
f 123 152 124
f 124 152 151
f 124 151 161
f 124 161 153
f 126 137 162
f 126 162 127
f 127 162 128
f 128 162 163
f 128 163 131
f 131 163 164
f 131 164 132
f 137 165 162
f 139 166 167
f 139 167 140
f 139 141 168
f 139 168 169
f 139 169 170
f 139 170 166
f 140 167 171
f 141 172 170
f 141 170 168
f 147 173 148
f 148 173 174
f 148 174 149
f 149 174 175
f 149 175 150
f 150 175 176
f 150 176 151
f 151 176 177
f 151 177 161
f 153 178 156
f 153 156 155
f 153 155 154
f 153 161 178
f 156 179 157
f 156 178 180
f 156 180 179
f 157 180 181
f 157 181 182
f 157 182 158
f 157 179 180
f 158 183 159
f 158 182 184
f 158 184 185
f 158 185 186
f 158 186 183
f 161 177 187
f 161 187 180
f 161 180 178
f 162 165 163
f 163 165 164
f 166 188 189
f 166 189 167
f 166 170 188
f 167 189 175
f 167 175 174
f 167 174 171
f 168 170 169
f 170 190 191
f 170 191 177
f 170 177 192
f 170 192 188
f 170 172 193
f 170 193 194
f 170 194 195
f 170 195 196
f 170 196 197
f 170 197 190
f 171 174 198
f 172 199 200
f 172 200 193
f 173 198 174
f 175 189 192
f 175 192 176
f 176 192 177
f 177 191 180
f 177 180 187
f 180 190 197
f 180 197 181
f 180 191 201
f 180 201 190
f 181 197 196
f 181 196 202
f 181 202 186
f 181 186 182
f 182 186 185
f 182 185 184
f 183 186 203
f 186 202 204
f 186 204 205
f 186 205 206
f 186 206 207
f 186 207 208
f 186 208 203
f 188 192 189
f 190 201 191
f 193 200 194
f 194 200 196
f 194 196 195
f 196 209 204
f 196 204 202
f 196 200 210
f 196 210 205
f 196 205 209
f 199 211 200
f 200 212 210
f 200 211 213
f 200 213 212
f 203 208 214
f 204 209 205
f 205 210 206
f 206 210 212
f 206 212 215
f 206 215 207
f 207 215 216
f 207 216 208
f 208 217 218
f 208 218 214
f 208 216 217
f 211 219 220
f 211 220 221
f 211 221 213
f 212 213 221
f 212 221 222
f 212 222 215
f 215 222 223
f 215 223 216
f 216 223 217
f 217 223 224
f 217 224 225
f 217 225 218
f 219 226 220
f 220 226 227
f 220 227 221
f 221 227 222
f 222 227 223
f 223 227 228
f 223 228 224
f 226 229 227
f 227 229 228
