v -0.016197 0.002298 0.020819
v -0.013661 0.002083 0.020819
v -0.014719 0.012133 0.019856
v -0.014912 0.013138 0.019606
v -0.015052 0.014788 0.018224
v -0.015063 0.015281 0.012873
v -0.015063 0.015295 0.008964
v -0.016197 0.002298 0.010948
v -0.016197 -0.012742 0.015529
v -0.016170 -0.010812 0.019575
v -0.015935 -0.004480 0.020819
v -0.013592 0.000847 0.020819
v -0.008968 0.001634 0.019766
v -0.010440 0.007729 0.019729
v -0.011333 0.008902 0.019816
v -0.013433 0.010489 0.019951
v -0.012389 0.010431 0.019781
v -0.012496 0.011976 0.019263
v -0.013325 0.012744 0.019234
v -0.014099 0.013576 0.019012
v -0.014912 0.014119 0.018976
v -0.013147 0.013568 0.018300
v -0.013812 0.014157 0.018051
v -0.014594 0.014887 0.017217
v -0.014950 0.015201 0.015695
v -0.014805 0.015251 0.004577
v -0.014872 0.015273 0.001998
v -0.015522 0.007666 0.001593
v -0.016196 -0.005064 0.000909
v -0.016196 -0.006020 0.000235
v -0.016196 -0.007118 -0.000254
v -0.016197 -0.006105 0.008272
v -0.016197 -0.012775 0.010883
v -0.016142 -0.012842 0.001591
v -0.015632 -0.012483 0.015529
v -0.015815 -0.012539 0.016525
v -0.016040 -0.012420 0.017831
v -0.016156 -0.011734 0.018943
v -0.015243 -0.010977 0.019197
v -0.014390 -0.010200 0.019371
v -0.014688 -0.009269 0.019814
v -0.015861 -0.009961 0.019825
v -0.013516 -0.008405 0.019791
v -0.012456 -0.007364 0.019796
v -0.014887 -0.003015 0.020819
v -0.008970 -0.000038 0.019762
v -0.013986 -0.000795 0.020819
v -0.009325 -0.001128 0.019791
v -0.007980 0.002072 0.019228
v -0.009340 0.007740 0.019132
v -0.010783 0.010136 0.019186
v -0.011511 0.011486 0.018966
v -0.011606 0.012480 0.017978
v -0.012358 0.013455 0.017161
v -0.013048 0.014017 0.016527
v -0.014176 0.014758 0.016194
v -0.014073 0.014818 0.004907
v -0.014543 0.015105 0.003086
v -0.013758 0.014598 0.002090
v -0.013196 0.014133 0.001092
v -0.014541 0.014920 0.000817
v -0.014872 0.010910 -0.000358
v -0.016169 -0.008429 -0.000356
v -0.016196 -0.009426 -0.000277
v -0.016197 -0.012781 0.008272
v -0.015644 -0.012327 0.000524
v -0.014229 -0.011806 0.001204
v -0.015004 -0.012291 0.001923
v -0.015197 -0.012365 0.005878
v -0.016190 -0.011759 0.000002
v -0.014459 -0.011979 0.004080
v -0.014490 -0.011834 0.016192
v -0.014590 -0.011828 0.017117
v -0.013841 -0.011134 0.017989
v -0.014843 -0.011442 0.018517
v -0.013397 -0.009749 0.019274
v -0.011992 -0.008537 0.019222
v -0.011180 -0.007669 0.019228
v -0.011660 -0.006670 0.019733
v -0.010188 -0.004356 0.019756
v -0.014283 -0.001687 0.020819
v -0.007682 0.000932 0.019010
v -0.008571 -0.001759 0.019351
v -0.008066 -0.000464 0.019157
v -0.006990 0.000863 0.017883
v -0.006931 0.002078 0.017354
v -0.008425 0.007864 0.017851
v -0.009332 0.008668 0.018675
v -0.009858 0.010373 0.018070
v -0.010598 0.011354 0.018097
v -0.011128 0.012301 0.017111
v -0.011589 0.012827 0.015861
v -0.011882 0.013193 0.004248
v -0.011997 0.013295 0.002919
v -0.013019 0.014075 0.004577
v -0.012173 0.013422 0.001591
v -0.011498 0.012753 0.000927
v -0.012534 0.013353 0.000403
v -0.013682 0.013750 0.000094
v -0.012418 0.012554 -0.000121
v -0.011939 0.010822 -0.000245
v -0.013266 0.010158 -0.000335
v -0.011831 0.006294 -0.000378
v -0.011193 0.002689 -0.000403
v -0.013100 -0.004116 -0.000422
v -0.013432 -0.005111 -0.000410
v -0.013764 -0.006441 -0.000376
v -0.014097 -0.007438 -0.000341
v -0.015228 -0.011222 -0.000048
v -0.014822 -0.011354 0.000081
v -0.013856 -0.011310 0.000408
v -0.012938 -0.011007 0.001279
v -0.012880 -0.011005 0.002256
v -0.013095 -0.011090 0.006648
v -0.013558 -0.011236 0.016525
v -0.012446 -0.010415 0.016990
v -0.011317 -0.009388 0.017660
v -0.012141 -0.009727 0.018450
v -0.011055 -0.008719 0.018423
v -0.010422 -0.007074 0.018945
v -0.010421 -0.005992 0.019413
v -0.009145 -0.004731 0.018987
v -0.009073 -0.003194 0.019386
v -0.008151 -0.002387 0.018802
v -0.008465 -0.003802 0.018681
v -0.006797 0.000863 0.016525
v -0.007722 -0.002902 0.017897
v -0.007045 -0.000734 0.017371
v -0.006809 0.002078 0.015915
v -0.008277 0.008134 0.016527
v -0.009127 0.009305 0.017833
v -0.009755 0.010530 0.017521
v -0.010320 0.011433 0.016857
v -0.010845 0.012070 0.016194
v -0.011605 0.012965 0.002919
v -0.011198 0.012560 0.001923
v -0.010478 0.011786 0.001923
v -0.010855 0.011982 0.000676
v -0.011679 0.011987 -0.000089
v -0.011773 0.009660 -0.000291
v -0.009267 0.008027 -0.000156
v -0.010448 0.005014 -0.000349
v -0.010448 0.003686 -0.000368
v -0.010448 0.000533 -0.000376
v -0.011443 -0.001459 -0.000408
v -0.011443 -0.002789 -0.000397
v -0.011773 -0.003753 -0.000389
v -0.012768 -0.005441 -0.000376
v -0.009227 -0.004783 -0.000139
v -0.009358 -0.005865 -0.000046
v -0.009953 -0.006915 0.000013
v -0.011640 -0.009225 0.000110
v -0.013117 -0.010572 0.000243
v -0.011904 -0.010041 0.000661
v -0.012097 -0.010423 0.001923
v -0.011797 -0.010093 0.012210
v -0.012265 -0.010423 0.013206
v -0.012046 -0.010233 0.014863
v -0.012076 -0.010225 0.015861
v -0.011229 -0.009479 0.016525
v -0.010385 -0.008449 0.016843
v -0.009750 -0.007240 0.017818
v -0.010444 -0.007903 0.018338
v -0.009420 -0.005981 0.018592
v -0.008462 -0.004926 0.017837
v -0.006752 0.000533 0.006238
v -0.006724 0.001196 0.005575
v -0.006907 -0.000464 0.016358
v -0.007363 -0.002398 0.017024
v -0.007909 -0.003951 0.017194
v -0.006724 0.002135 0.003583
v -0.006797 0.003188 0.003583
v -0.006914 0.003535 0.010149
v -0.007292 0.005413 0.010149
v -0.007437 0.006234 0.004579
v -0.007706 0.007054 0.004907
v -0.007877 0.007490 0.003915
v -0.008550 0.008941 0.004577
v -0.008976 0.009462 0.016527
v -0.009700 0.010615 0.016527
v -0.009681 0.010761 0.001898
v -0.009706 0.010470 0.000661
v -0.010718 0.010814 -0.000023
v -0.009914 0.009632 -0.000069
v -0.008325 0.007801 0.000539
v -0.007802 0.005843 0.000212
v -0.007680 0.004917 0.000069
v -0.008620 0.006066 -0.000166
v -0.008125 0.004515 -0.000150
v -0.007908 0.003518 -0.000146
v -0.010116 0.001527 -0.000358
v -0.009451 -0.000131 -0.000295
v -0.010448 -0.001128 -0.000364
v -0.012104 -0.004783 -0.000368
v -0.007925 -0.000795 -0.000123
v -0.008026 -0.002566 -0.000012
v -0.007967 -0.003797 0.000493
v -0.008333 -0.005196 0.000811
v -0.009670 -0.007289 0.000455
v -0.010438 -0.007873 0.000187
v -0.010903 -0.009049 0.000719
v -0.011319 -0.009713 0.001923
v -0.011112 -0.009437 0.012210
v -0.010394 -0.008666 0.001923
v -0.009705 -0.007556 0.016525
v -0.009125 -0.006435 0.017525
v -0.008311 -0.005105 0.016525
v -0.006772 0.000202 0.001923
v -0.006716 0.001196 0.003913
v -0.007303 -0.002406 0.015861
v -0.007124 -0.001803 0.012210
v -0.007032 -0.001618 0.002587
v -0.006887 -0.000795 0.001923
v -0.007706 -0.003698 0.015861
v -0.006811 0.002854 0.001258
v -0.006718 0.001527 0.001591
v -0.006922 0.003851 0.001591
v -0.007186 0.005308 0.002836
v -0.006917 0.003851 0.004909
v -0.007162 0.005184 0.004579
v -0.007526 0.006509 0.003250
v -0.007939 0.007630 0.002770
v -0.008543 0.008891 0.001923
v -0.008828 0.009439 0.002919
v -0.009245 0.009949 0.015529
v -0.009319 0.010233 0.004412
v -0.009095 0.009872 0.001923
v -0.008995 0.009307 0.000651
v -0.007773 0.006793 0.000794
v -0.007200 0.003901 0.000445
v -0.007163 0.002827 0.000247
v -0.007732 0.001995 -0.000110
v -0.007728 0.000866 -0.000116
v -0.007003 0.000202 0.000580
v -0.007021 -0.000900 0.000728
v -0.007436 -0.003119 0.001424
v -0.007913 -0.004483 0.001591
v -0.008424 -0.005623 0.001923
v -0.009016 -0.006477 0.000811
v -0.009688 -0.007691 0.001847
v -0.009094 -0.006815 0.001923
v -0.008989 -0.006405 0.016525
v -0.008106 -0.004780 0.013539
v -0.007817 -0.004050 0.014533
v -0.008436 -0.005485 0.012873
v -0.007595 -0.003450 0.013206
v -0.007244 -0.002525 0.002919
v -0.007103 -0.001770 0.001271
v -0.006876 0.001527 0.000645
v -0.007121 0.004802 0.001285
v -0.007388 0.005843 0.001258
v -0.007550 0.006506 0.001923
v -0.007902 0.007462 0.001651
v -0.007528 -0.003450 0.003250
v -0.007904 -0.004469 0.002587
v -0.008903 -0.006452 0.004909
f 1 2 3
f 1 3 4
f 1 4 5
f 1 5 6
f 1 6 7
f 1 7 8
f 1 8 32
f 1 32 65
f 1 65 33
f 1 33 9
f 1 9 10
f 1 10 11
f 1 11 45
f 1 45 81
f 1 81 47
f 1 47 12
f 1 12 2
f 2 12 13
f 2 13 14
f 2 14 15
f 2 15 16
f 2 16 3
f 3 16 17
f 3 17 4
f 4 17 18
f 4 18 19
f 4 19 20
f 4 20 21
f 4 21 5
f 5 21 22
f 5 22 23
f 5 23 24
f 5 24 25
f 5 25 6
f 6 25 26
f 6 26 7
f 7 26 27
f 7 27 28
f 7 28 8
f 8 28 29
f 8 29 30
f 8 30 31
f 8 31 32
f 9 33 34
f 9 34 35
f 9 35 36
f 9 36 37
f 9 37 38
f 9 38 10
f 10 38 39
f 10 39 40
f 10 40 41
f 10 41 42
f 10 42 11
f 11 42 41
f 11 41 43
f 11 43 44
f 11 44 45
f 12 46 13
f 12 47 48
f 12 48 46
f 13 46 49
f 13 49 14
f 14 50 51
f 14 51 15
f 14 49 50
f 15 51 17
f 15 17 16
f 17 51 18
f 18 51 52
f 18 52 19
f 19 22 20
f 19 52 22
f 20 22 21
f 22 52 53
f 22 53 54
f 22 54 23
f 23 54 24
f 24 54 55
f 24 55 56
f 24 56 25
f 25 56 26
f 26 56 57
f 26 57 58
f 26 58 27
f 27 58 59
f 27 59 60
f 27 60 61
f 27 61 62
f 27 62 28
f 28 62 31
f 28 31 30
f 28 30 29
f 31 63 64
f 31 64 32
f 31 62 63
f 32 64 65
f 33 65 34
f 34 66 67
f 34 67 68
f 34 68 69
f 34 69 35
f 34 65 70
f 34 70 66
f 35 69 71
f 35 71 72
f 35 72 36
f 36 72 73
f 36 73 37
f 37 73 74
f 37 74 75
f 37 75 38
f 38 75 39
f 39 75 76
f 39 76 40
f 40 76 41
f 41 76 43
f 43 77 44
f 43 76 77
f 44 77 78
f 44 78 79
f 44 79 80
f 44 80 45
f 45 80 81
f 46 82 49
f 46 48 83
f 46 83 84
f 46 84 82
f 47 81 80
f 47 80 48
f 48 80 83
f 49 82 85
f 49 85 86
f 49 86 87
f 49 87 50
f 50 87 88
f 50 88 51
f 51 89 52
f 51 88 89
f 52 90 53
f 52 89 90
f 53 90 91
f 53 91 54
f 54 92 93
f 54 93 55
f 54 91 92
f 55 93 94
f 55 94 95
f 55 95 57
f 55 57 56
f 57 95 59
f 57 59 58
f 59 95 96
f 59 96 60
f 60 96 97
f 60 97 98
f 60 98 61
f 61 98 99
f 61 99 62
f 62 99 100
f 62 100 101
f 62 101 102
f 62 102 103
f 62 103 104
f 62 104 105
f 62 105 63
f 63 105 106
f 63 106 107
f 63 107 108
f 63 108 64
f 64 108 109
f 64 109 70
f 64 70 65
f 66 70 110
f 66 110 111
f 66 111 67
f 67 111 112
f 67 112 113
f 67 113 68
f 68 113 71
f 68 71 69
f 70 109 110
f 71 113 114
f 71 114 72
f 72 114 115
f 72 115 73
f 73 115 116
f 73 116 74
f 74 116 117
f 74 117 118
f 74 118 75
f 75 118 76
f 76 118 77
f 77 118 119
f 77 119 78
f 78 120 121
f 78 121 79
f 78 119 120
f 79 121 80
f 80 121 122
f 80 122 123
f 80 123 83
f 82 84 124
f 82 124 85
f 83 123 125
f 83 125 124
f 83 124 84
f 85 126 86
f 85 124 127
f 85 127 128
f 85 128 126
f 86 126 129
f 86 129 130
f 86 130 87
f 87 130 131
f 87 131 88
f 88 131 89
f 89 131 132
f 89 132 90
f 90 133 91
f 90 132 133
f 91 133 134
f 91 134 92
f 92 135 93
f 92 134 135
f 93 135 94
f 94 96 95
f 94 135 96
f 96 135 136
f 96 136 97
f 97 136 137
f 97 137 138
f 97 138 98
f 98 138 139
f 98 139 100
f 98 100 99
f 100 139 101
f 101 140 102
f 101 139 141
f 101 141 140
f 102 140 103
f 103 142 143
f 103 143 104
f 103 140 142
f 104 143 144
f 104 144 145
f 104 145 105
f 105 145 146
f 105 146 147
f 105 147 106
f 106 147 148
f 106 148 107
f 107 148 108
f 108 148 149
f 108 149 150
f 108 150 109
f 109 150 151
f 109 151 152
f 109 152 110
f 110 152 153
f 110 153 111
f 111 153 154
f 111 154 112
f 112 155 113
f 112 154 155
f 113 155 156
f 113 156 157
f 113 157 114
f 114 157 115
f 115 157 158
f 115 158 159
f 115 159 116
f 116 159 160
f 116 160 117
f 117 160 161
f 117 161 162
f 117 162 119
f 117 119 118
f 119 162 163
f 119 163 120
f 120 163 164
f 120 164 122
f 120 122 121
f 122 164 125
f 122 125 123
f 124 125 127
f 125 164 165
f 125 165 127
f 126 166 167
f 126 167 129
f 126 128 168
f 126 168 166
f 127 169 128
f 127 165 170
f 127 170 169
f 128 169 168
f 129 171 172
f 129 172 173
f 129 173 174
f 129 174 130
f 129 167 171
f 130 174 175
f 130 175 176
f 130 176 177
f 130 177 178
f 130 178 179
f 130 179 131
f 131 179 132
f 132 179 180
f 132 180 133
f 133 180 181
f 133 181 137
f 133 137 134
f 134 137 136
f 134 136 135
f 137 181 138
f 138 181 182
f 138 182 139
f 139 182 183
f 139 183 184
f 139 184 141
f 140 141 142
f 141 185 186
f 141 186 187
f 141 187 188
f 141 188 142
f 141 184 185
f 142 188 189
f 142 189 190
f 142 190 143
f 143 190 191
f 143 191 144
f 144 191 192
f 144 192 193
f 144 193 145
f 145 193 146
f 146 193 149
f 146 149 147
f 147 149 194
f 147 194 148
f 148 194 149
f 149 193 192
f 149 192 195
f 149 195 196
f 149 196 150
f 150 196 197
f 150 197 198
f 150 198 199
f 150 199 151
f 151 199 200
f 151 200 152
f 152 200 199
f 152 199 201
f 152 201 154
f 152 154 153
f 154 201 202
f 154 202 155
f 155 202 156
f 156 202 203
f 156 203 160
f 156 160 158
f 156 158 157
f 158 160 159
f 160 203 161
f 161 204 205
f 161 205 206
f 161 206 162
f 161 203 204
f 162 206 164
f 162 164 163
f 164 206 165
f 165 206 207
f 165 207 170
f 166 168 208
f 166 208 209
f 166 209 167
f 167 209 171
f 168 169 210
f 168 210 211
f 168 211 212
f 168 212 213
f 168 213 208
f 169 170 214
f 169 214 210
f 170 207 214
f 171 215 172
f 171 209 216
f 171 216 215
f 172 215 217
f 172 217 218
f 172 218 219
f 172 219 173
f 173 219 220
f 173 220 174
f 174 220 175
f 175 221 176
f 175 220 218
f 175 218 221
f 176 222 177
f 176 221 222
f 177 222 178
f 178 222 223
f 178 223 224
f 178 224 225
f 178 225 179
f 179 225 180
f 180 225 226
f 180 226 181
f 181 226 227
f 181 227 182
f 182 227 228
f 182 228 184
f 182 184 183
f 184 228 185
f 185 229 186
f 185 228 229
f 186 230 187
f 186 229 230
f 187 230 231
f 187 231 190
f 187 190 189
f 187 189 188
f 190 231 232
f 190 232 233
f 190 233 192
f 190 192 191
f 192 233 195
f 195 233 234
f 195 234 196
f 196 234 235
f 196 235 197
f 197 235 236
f 197 236 198
f 198 237 238
f 198 238 239
f 198 239 199
f 198 236 237
f 199 240 201
f 199 239 240
f 201 240 204
f 201 204 202
f 202 204 203
f 204 240 205
f 205 240 241
f 205 241 242
f 205 242 206
f 206 242 207
f 207 243 244
f 207 244 214
f 207 242 245
f 207 245 243
f 208 216 209
f 208 213 235
f 208 235 216
f 210 214 246
f 210 246 247
f 210 247 211
f 211 247 212
f 212 247 248
f 212 248 213
f 213 248 235
f 214 244 246
f 215 216 249
f 215 249 230
f 215 230 250
f 215 250 217
f 216 235 249
f 217 250 218
f 218 220 219
f 218 250 251
f 218 251 252
f 218 252 221
f 221 252 222
f 222 252 253
f 222 253 223
f 223 253 228
f 223 228 227
f 223 227 224
f 224 227 226
f 224 226 225
f 228 253 229
f 229 253 251
f 229 251 250
f 229 250 230
f 230 249 231
f 231 249 234
f 231 234 233
f 231 233 232
f 234 249 235
f 235 248 236
f 236 247 254
f 236 254 237
f 236 248 247
f 237 255 238
f 237 254 255
f 238 245 256
f 238 256 241
f 238 241 239
f 238 255 243
f 238 243 245
f 239 241 240
f 241 256 242
f 242 256 245
f 243 255 244
f 244 255 254
f 244 254 246
f 246 254 247
f 251 253 252
