v -0.032581 -0.003680 -0.000374
v -0.036834 -0.003572 0.000479
v -0.036012 -0.003564 0.000030
v -0.033546 -0.003621 -0.000312
v -0.033025 -0.002785 -0.000377
v -0.033025 -0.001791 -0.000381
v -0.028304 0.011152 -0.000267
v -0.031897 -0.003680 -0.000325
v -0.037093 -0.003680 0.004910
v -0.037148 -0.003621 0.001460
v -0.037235 -0.002122 0.000360
v -0.036910 -0.002785 0.000283
v -0.037390 -0.002785 0.001257
v -0.037614 -0.001791 0.001002
v -0.034020 -0.002454 -0.000316
v -0.036675 -0.002122 0.000070
v -0.034020 -0.001126 -0.000341
v -0.033354 0.000202 -0.000368
v -0.029045 0.011152 -0.000279
v -0.028508 0.011819 -0.000269
v -0.028304 0.012482 -0.000240
v -0.022833 0.008318 0.010387
v -0.022833 -0.003676 0.011219
v -0.028304 0.010471 -0.000165
v -0.031182 -0.003680 -0.000111
v -0.029106 -0.003680 0.020823
v -0.036399 -0.003562 0.018496
v -0.037002 -0.003472 0.016512
v -0.037220 -0.002785 0.016525
v -0.037340 -0.000132 0.000138
v -0.037747 -0.000882 0.000742
v -0.037851 -0.000132 0.000684
v -0.037400 -0.002120 0.016525
v -0.037568 -0.001456 0.016192
v -0.037957 -0.000132 0.001589
v -0.036675 -0.000463 0.000001
v -0.037340 0.000866 0.000076
v -0.034020 0.001863 -0.000327
v -0.034683 -0.000463 -0.000264
v -0.034683 0.001531 -0.000260
v -0.033025 0.004518 -0.000331
v -0.031696 0.007501 -0.000312
v -0.032030 0.008499 -0.000271
v -0.033193 0.011665 -0.000015
v -0.031863 0.012966 0.000012
v -0.029848 0.014279 0.000030
v -0.028511 0.015034 0.000047
v -0.023116 0.017087 0.010387
v -0.022833 0.017087 0.015530
v -0.027630 -0.003680 0.011520
v -0.030321 -0.003680 0.000640
v -0.022833 -0.003676 0.020819
v -0.027630 -0.003680 0.020823
v -0.029967 -0.002379 0.020823
v -0.034331 -0.003564 0.019901
v -0.035542 -0.003564 0.019351
v -0.036356 -0.002785 0.018882
v -0.036898 -0.001634 0.018662
v -0.037034 -0.002407 0.018060
v -0.036943 -0.003304 0.017494
v -0.037297 -0.002120 0.017521
v -0.037935 0.000866 0.000653
v -0.038051 0.000866 0.001589
v -0.037622 -0.001165 0.016859
v -0.037817 -0.000128 0.016859
v -0.037762 0.003188 0.000470
v -0.037340 0.003188 0.000176
v -0.037007 0.002194 0.000034
v -0.033354 0.005183 -0.000308
v -0.034352 0.004187 -0.000258
v -0.032694 0.007501 -0.000273
v -0.034020 0.005516 -0.000246
v -0.035347 0.008499 0.000061
v -0.034683 0.009825 0.000122
v -0.035160 0.010038 0.000466
v -0.033823 0.012031 0.000553
v -0.032693 0.012482 0.000084
v -0.032030 0.013608 0.000450
v -0.031370 0.013836 0.000317
v -0.029338 0.015147 0.000366
v -0.028654 0.015648 0.000587
v -0.028508 0.015961 0.001921
v -0.025191 0.016798 0.010636
v -0.023730 0.017020 0.012209
v -0.023116 0.017091 0.011597
v -0.023116 0.017049 0.016527
v -0.022960 0.016839 0.017913
v -0.022833 0.016355 0.018837
v -0.022833 0.010233 0.020819
v -0.028711 0.007415 0.020823
v -0.030348 -0.001608 0.020823
v -0.034938 -0.001456 0.019957
v -0.034975 -0.002651 0.019827
v -0.035525 -0.001456 0.019781
v -0.035875 -0.002785 0.019329
v -0.036205 -0.002053 0.019248
v -0.036488 -0.000795 0.019300
v -0.036965 -0.000795 0.018808
v -0.037530 -0.000626 0.017934
v -0.037471 -0.001456 0.017521
v -0.037927 0.002194 0.000659
v -0.038045 0.002194 0.001589
v -0.037877 0.000868 0.016525
v -0.037890 0.001865 0.015860
v -0.037698 0.000537 0.017795
v -0.037926 0.003188 0.001257
v -0.037696 0.004189 0.000794
v -0.037203 0.005970 0.000709
v -0.037258 0.004851 0.000358
v -0.036675 0.005516 0.000128
v -0.036675 0.004187 0.000036
v -0.036012 0.006838 0.000059
v -0.036654 0.006852 0.000356
v -0.036192 0.008139 0.000476
v -0.035687 0.009272 0.000599
v -0.035163 0.010367 0.000925
v -0.033308 0.012600 0.000605
v -0.034302 0.011551 0.000844
v -0.033655 0.012456 0.001589
v -0.032614 0.013248 0.000628
v -0.031800 0.014068 0.001527
v -0.030135 0.014991 0.000773
v -0.030640 0.014452 0.000427
v -0.029372 0.015465 0.000925
v -0.026718 0.016455 0.011547
v -0.026718 0.016459 0.010387
v -0.026054 0.016632 0.010387
v -0.029758 0.015369 0.001921
v -0.027476 0.016176 0.016527
v -0.026718 0.016422 0.016527
v -0.025291 0.016780 0.011879
v -0.025204 0.016762 0.016527
v -0.024352 0.016780 0.017577
v -0.025057 0.016485 0.018185
v -0.025711 0.016062 0.018714
v -0.024726 0.015898 0.019102
v -0.023256 0.015942 0.019221
v -0.023256 0.014995 0.019750
v -0.024394 0.014930 0.019748
v -0.025693 0.014464 0.019816
v -0.024726 0.009816 0.020819
v -0.027776 0.008324 0.020821
v -0.032204 0.009540 0.019964
v -0.033354 0.007832 0.020001
v -0.029974 0.005435 0.020823
v -0.030837 0.000509 0.020823
v -0.035733 0.000240 0.019827
v -0.030974 0.001543 0.020823
v -0.035809 -0.000795 0.019717
v -0.036978 0.000868 0.018999
v -0.036949 -0.000128 0.018961
v -0.035915 0.001200 0.019791
v -0.036575 0.001865 0.019372
v -0.037808 0.002859 0.016192
v -0.037842 0.002198 0.016859
v -0.037705 0.001472 0.017757
v -0.037839 0.003853 0.001589
v -0.037640 0.004921 0.001589
v -0.037503 0.005183 0.000925
v -0.037002 0.006832 0.000927
v -0.036612 0.007832 0.000925
v -0.036018 0.009162 0.001589
v -0.035648 0.009780 0.001589
v -0.035093 0.010597 0.001589
v -0.033166 0.012952 0.001589
v -0.034693 0.011152 0.001589
v -0.034275 0.011720 0.001589
v -0.033972 0.012081 0.002917
v -0.033612 0.012411 0.006759
v -0.033330 0.012781 0.002253
v -0.032642 0.013427 0.001921
v -0.031577 0.014235 0.002363
v -0.030710 0.014810 0.001921
v -0.026054 0.016630 0.011547
v -0.030628 0.014763 0.006759
v -0.029787 0.015243 0.006759
v -0.027565 0.016038 0.017523
v -0.031501 0.014206 0.006759
v -0.026054 0.016487 0.017523
v -0.026054 0.016595 0.016527
v -0.025389 0.016636 0.017523
v -0.026818 0.016176 0.017882
v -0.027491 0.015711 0.018436
v -0.027506 0.015111 0.019187
v -0.026360 0.015347 0.019310
v -0.025389 0.015377 0.019449
v -0.026718 0.014475 0.019715
v -0.027630 0.013692 0.019839
v -0.025706 0.009463 0.020819
v -0.026654 0.008985 0.020819
v -0.033217 0.009448 0.019785
v -0.033874 0.007832 0.019895
v -0.034022 0.006508 0.020028
v -0.030382 0.004534 0.020823
v -0.035627 0.002198 0.019877
v -0.030911 0.002489 0.020823
v -0.036774 0.002859 0.019106
v -0.037230 0.003686 0.018399
v -0.035703 0.003650 0.019796
v -0.036466 0.003851 0.019289
v -0.037705 0.003306 0.017139
v -0.037592 0.004205 0.016525
v -0.037699 0.002530 0.017639
v -0.037398 0.005850 0.001589
v -0.037580 0.005183 0.002253
v -0.037086 0.006803 0.001921
v -0.036688 0.007832 0.001921
v -0.036342 0.008554 0.001589
v -0.036025 0.009162 0.002585
v -0.035653 0.009788 0.002585
v -0.035213 0.010426 0.002253
v -0.032910 0.013090 0.006759
v -0.034394 0.011545 0.004246
v -0.034267 0.011720 0.003581
v -0.035718 0.009312 0.016568
v -0.032075 0.013785 0.006367
v -0.035346 0.009514 0.017901
v -0.034927 0.009349 0.018772
v -0.034299 0.009255 0.019366
v -0.027567 0.014355 0.019627
v -0.033792 0.008599 0.019783
v -0.034255 0.007249 0.019885
v -0.034906 0.005976 0.019852
v -0.030572 0.003851 0.020823
v -0.036798 0.003851 0.018940
v -0.036919 0.004510 0.018633
v -0.036986 0.005461 0.018133
v -0.037442 0.004516 0.017521
v -0.035347 0.006508 0.019542
v -0.035884 0.005846 0.019335
v -0.036275 0.005065 0.019187
v -0.037381 0.005181 0.016525
v -0.037404 0.005850 0.002585
v -0.037191 0.006508 0.002917
v -0.037220 0.005846 0.015860
v -0.037115 0.006716 0.003581
v -0.036801 0.007547 0.002917
v -0.036360 0.008125 0.016506
v -0.036335 0.008570 0.003249
v -0.035888 0.009387 0.003581
v -0.035904 0.008747 0.017521
v -0.035648 0.008798 0.018156
v -0.035770 0.008039 0.018627
v -0.034929 0.008562 0.019219
v -0.034683 0.007832 0.019594
v -0.036363 0.005846 0.018891
v -0.036508 0.006596 0.018374
v -0.036305 0.007448 0.018154
v -0.036642 0.007167 0.017521
v -0.037281 0.005181 0.017521
v -0.035377 0.007434 0.019279
v -0.035955 0.006858 0.018957
v -0.037011 0.006517 0.016192
v -0.037045 0.006161 0.017185
v -0.036759 0.007167 0.016525
v -0.036353 0.007854 0.017521
f 1 2 3
f 1 3 4
f 1 4 5
f 1 5 6
f 1 6 7
f 1 7 8
f 1 8 25
f 1 25 51
f 1 51 50
f 1 50 53
f 1 53 26
f 1 26 9
f 1 9 10
f 1 10 2
f 2 11 12
f 2 12 3
f 2 10 13
f 2 13 14
f 2 14 11
f 3 15 4
f 3 12 16
f 3 16 15
f 4 15 5
f 5 15 17
f 5 17 6
f 6 17 18
f 6 18 19
f 6 19 20
f 6 20 7
f 7 21 22
f 7 22 23
f 7 23 24
f 7 24 25
f 7 25 8
f 7 20 21
f 9 13 10
f 9 26 27
f 9 27 28
f 9 28 29
f 9 29 13
f 11 30 12
f 11 14 31
f 11 31 32
f 11 32 30
f 12 30 16
f 13 29 33
f 13 33 34
f 13 34 14
f 14 35 31
f 14 34 35
f 15 16 36
f 15 36 17
f 16 30 37
f 16 37 36
f 17 38 18
f 17 36 39
f 17 39 40
f 17 40 38
f 18 38 41
f 18 41 42
f 18 42 19
f 19 42 43
f 19 43 44
f 19 44 20
f 20 44 21
f 21 44 45
f 21 45 46
f 21 46 47
f 21 47 48
f 21 48 22
f 22 48 49
f 22 49 88
f 22 88 89
f 22 89 52
f 22 52 23
f 23 50 51
f 23 51 24
f 23 52 53
f 23 53 50
f 24 51 25
f 26 53 90
f 26 90 145
f 26 145 194
f 26 194 224
f 26 224 196
f 26 196 148
f 26 148 146
f 26 146 91
f 26 91 54
f 26 54 55
f 26 55 56
f 26 56 27
f 27 57 58
f 27 58 59
f 27 59 60
f 27 60 28
f 27 56 57
f 28 60 29
f 29 60 61
f 29 61 33
f 30 32 62
f 30 62 37
f 31 35 32
f 32 35 63
f 32 63 62
f 33 61 64
f 33 64 34
f 34 64 35
f 35 64 65
f 35 65 63
f 36 37 39
f 37 62 66
f 37 66 67
f 37 67 68
f 37 68 39
f 38 69 41
f 38 40 70
f 38 70 69
f 39 68 40
f 40 68 70
f 41 69 42
f 42 69 71
f 42 71 43
f 43 71 44
f 44 71 72
f 44 72 73
f 44 73 74
f 44 74 75
f 44 75 76
f 44 76 77
f 44 77 45
f 45 77 78
f 45 78 79
f 45 79 46
f 46 79 80
f 46 80 47
f 47 80 81
f 47 81 48
f 48 81 82
f 48 82 83
f 48 83 84
f 48 84 85
f 48 85 49
f 49 85 86
f 49 86 87
f 49 87 88
f 52 89 53
f 53 89 90
f 54 91 55
f 55 91 92
f 55 92 93
f 55 93 56
f 56 93 94
f 56 94 95
f 56 95 57
f 57 95 96
f 57 96 58
f 58 96 97
f 58 97 98
f 58 98 99
f 58 99 59
f 59 99 100
f 59 100 61
f 59 61 60
f 61 100 64
f 62 101 66
f 62 63 102
f 62 102 101
f 63 65 103
f 63 103 104
f 63 104 102
f 64 100 65
f 65 100 99
f 65 99 105
f 65 105 103
f 66 101 106
f 66 106 107
f 66 107 108
f 66 108 109
f 66 109 67
f 67 109 110
f 67 110 111
f 67 111 68
f 68 111 70
f 69 70 72
f 69 72 71
f 70 111 112
f 70 112 72
f 72 112 73
f 73 112 113
f 73 113 114
f 73 114 75
f 73 75 74
f 75 114 115
f 75 115 116
f 75 116 76
f 76 117 77
f 76 116 118
f 76 118 119
f 76 119 117
f 77 117 78
f 78 117 120
f 78 120 121
f 78 121 122
f 78 122 123
f 78 123 79
f 79 123 80
f 80 123 122
f 80 122 81
f 81 122 124
f 81 124 82
f 82 125 126
f 82 126 127
f 82 127 83
f 82 124 128
f 82 128 129
f 82 129 130
f 82 130 125
f 83 127 131
f 83 131 84
f 84 131 132
f 84 132 86
f 84 86 85
f 86 132 133
f 86 133 87
f 87 133 134
f 87 134 88
f 88 134 135
f 88 135 136
f 88 136 137
f 88 137 138
f 88 138 89
f 89 138 139
f 89 139 140
f 89 140 141
f 89 141 90
f 90 141 142
f 90 142 143
f 90 143 144
f 90 144 145
f 91 146 92
f 92 147 94
f 92 94 93
f 92 146 148
f 92 148 147
f 94 149 97
f 94 97 95
f 94 147 149
f 95 97 96
f 97 150 151
f 97 151 98
f 97 149 152
f 97 152 153
f 97 153 150
f 98 151 99
f 99 151 105
f 101 102 106
f 102 104 154
f 102 154 106
f 103 105 155
f 103 155 104
f 104 155 154
f 105 156 155
f 105 151 150
f 105 150 156
f 106 154 157
f 106 157 107
f 107 157 158
f 107 158 159
f 107 159 108
f 108 113 109
f 108 159 160
f 108 160 113
f 109 113 110
f 110 113 112
f 110 112 111
f 113 160 161
f 113 161 114
f 114 161 115
f 115 161 116
f 116 161 162
f 116 162 163
f 116 163 164
f 116 164 118
f 117 119 165
f 117 165 120
f 118 164 166
f 118 166 167
f 118 167 119
f 119 167 168
f 119 168 169
f 119 169 170
f 119 170 165
f 120 165 121
f 121 165 171
f 121 171 172
f 121 172 173
f 121 173 122
f 122 173 124
f 124 173 128
f 125 174 126
f 125 130 174
f 126 174 127
f 127 174 131
f 128 173 175
f 128 175 176
f 128 176 129
f 129 177 130
f 129 176 175
f 129 175 178
f 129 178 177
f 130 177 179
f 130 179 180
f 130 180 174
f 131 180 132
f 131 174 180
f 132 180 181
f 132 181 133
f 133 181 134
f 134 181 179
f 134 179 182
f 134 182 135
f 135 182 183
f 135 183 184
f 135 184 185
f 135 185 136
f 136 185 186
f 136 186 137
f 137 186 139
f 137 139 138
f 139 186 187
f 139 187 140
f 140 188 141
f 140 187 188
f 141 188 189
f 141 189 142
f 142 189 190
f 142 190 188
f 142 188 143
f 143 188 191
f 143 191 144
f 144 191 192
f 144 192 193
f 144 193 145
f 145 193 194
f 147 148 195
f 147 195 152
f 147 152 149
f 148 196 195
f 150 153 197
f 150 197 198
f 150 198 156
f 152 195 199
f 152 199 153
f 153 200 197
f 153 199 200
f 154 155 201
f 154 201 202
f 154 202 157
f 155 156 203
f 155 203 201
f 156 198 203
f 157 202 158
f 158 204 159
f 158 202 205
f 158 205 204
f 159 204 160
f 160 204 206
f 160 206 207
f 160 207 161
f 161 207 208
f 161 208 162
f 162 208 209
f 162 209 210
f 162 210 163
f 163 210 164
f 164 210 211
f 164 211 166
f 165 170 212
f 165 212 171
f 166 211 213
f 166 213 167
f 167 213 214
f 167 214 168
f 168 214 169
f 169 212 170
f 169 214 213
f 169 213 215
f 169 215 212
f 171 212 216
f 171 216 172
f 172 216 178
f 172 178 173
f 173 178 175
f 177 217 183
f 177 183 182
f 177 182 179
f 177 178 212
f 177 212 217
f 178 216 212
f 179 181 180
f 183 218 184
f 183 217 218
f 184 219 220
f 184 220 185
f 184 218 219
f 185 220 187
f 185 187 186
f 187 220 188
f 188 190 189
f 188 220 191
f 191 220 219
f 191 219 221
f 191 221 192
f 192 222 193
f 192 221 222
f 193 222 223
f 193 223 199
f 193 199 195
f 193 195 196
f 193 196 224
f 193 224 194
f 197 225 198
f 197 200 225
f 198 226 227
f 198 227 228
f 198 228 203
f 198 225 226
f 199 223 229
f 199 229 230
f 199 230 200
f 200 230 231
f 200 231 225
f 201 228 202
f 201 203 228
f 202 228 232
f 202 232 205
f 204 205 233
f 204 233 234
f 204 234 206
f 205 232 235
f 205 235 233
f 206 234 236
f 206 236 237
f 206 237 207
f 207 237 238
f 207 238 239
f 207 239 208
f 208 239 209
f 209 239 240
f 209 240 210
f 210 240 215
f 210 215 211
f 211 215 213
f 212 215 217
f 215 238 241
f 215 241 217
f 215 240 239
f 215 239 238
f 217 241 242
f 217 242 218
f 218 242 243
f 218 243 244
f 218 244 219
f 219 245 221
f 219 244 245
f 221 245 222
f 222 245 223
f 223 245 229
f 225 231 246
f 225 246 226
f 226 247 227
f 226 246 247
f 227 247 248
f 227 248 249
f 227 249 250
f 227 250 228
f 228 250 232
f 229 245 251
f 229 251 230
f 230 251 252
f 230 252 246
f 230 246 231
f 232 253 235
f 232 250 254
f 232 254 253
f 233 235 253
f 233 253 234
f 234 253 236
f 236 253 255
f 236 255 237
f 237 255 238
f 238 255 249
f 238 249 256
f 238 256 241
f 241 256 242
f 242 248 243
f 242 256 248
f 243 248 247
f 243 247 252
f 243 252 251
f 243 251 244
f 244 251 245
f 246 252 247
f 248 256 249
f 249 255 254
f 249 254 250
f 253 254 255
