v -0.022084 -0.007265 0.020827
v -0.023044 -0.007107 0.020827
v -0.021395 -0.007213 0.020827
v -0.021841 -0.007181 0.044750
v -0.022605 -0.007162 0.044750
v -0.024737 -0.006719 0.020827
v -0.019201 -0.006571 0.020827
v -0.020863 -0.007119 0.024505
v -0.020079 -0.006737 0.046078
v -0.022288 -0.007121 0.045731
v -0.023393 -0.006923 0.046078
v -0.024055 -0.006800 0.045745
v -0.024722 -0.006690 0.032139
v -0.025442 -0.006477 0.020827
v -0.025445 -0.006460 0.032139
v -0.017788 -0.005898 0.020827
v -0.019021 -0.006384 0.046422
v -0.018752 -0.006167 0.047406
v -0.019957 -0.006577 0.046952
v -0.026358 -0.005776 0.048277
v -0.025109 -0.006423 0.046848
v -0.025041 -0.006535 0.045745
v -0.025624 -0.006404 0.026166
v -0.025836 -0.006317 0.025500
v -0.026999 -0.005814 0.025007
v -0.026078 -0.006172 0.020827
v -0.026049 -0.006191 0.035454
v -0.026049 -0.006129 0.046078
v -0.016399 -0.004960 0.020827
v -0.016361 -0.004859 0.040765
v -0.016447 -0.004869 0.048401
v -0.018145 -0.005943 0.046740
v -0.018164 -0.005910 0.047406
v -0.017366 -0.005418 0.048401
v -0.018568 -0.005809 0.048401
v -0.027570 -0.005255 0.048401
v -0.026540 -0.005861 0.047406
v -0.026049 -0.006062 0.047406
v -0.027901 -0.005274 0.024505
v -0.026733 -0.005799 0.020827
v -0.026299 -0.005993 0.046740
v -0.015703 -0.004203 0.020827
v -0.015807 -0.004396 0.026828
v -0.015812 -0.004389 0.038112
v -0.015986 -0.004528 0.043420
v -0.015735 -0.004165 0.048401
v -0.018011 0.000978 0.049624
v -0.026413 0.000978 0.049624
v -0.028321 -0.004685 0.048401
v -0.028239 -0.004976 0.026166
v -0.028375 -0.004805 0.025168
v -0.028464 -0.004537 0.020827
v -0.027656 -0.005194 0.020827
v -0.014891 -0.003014 0.020827
v -0.015226 -0.003564 0.024173
v -0.015685 -0.004227 0.024173
v -0.015697 -0.004217 0.042757
v -0.015368 -0.003570 0.048401
v -0.015648 0.004410 0.049624
v -0.015245 -0.003537 0.042757
v -0.014943 -0.002989 0.046740
v -0.028910 0.004593 0.049624
v -0.028736 -0.004115 0.048401
v -0.028476 -0.004602 0.041097
v -0.029961 -0.002382 0.020827
v -0.028911 -0.003950 0.020827
v -0.014288 -0.001688 0.020827
v -0.014368 -0.001926 0.032139
v -0.014929 -0.003000 0.042092
v -0.015118 -0.002773 0.048401
v -0.015303 0.005174 0.049624
v -0.014974 -0.002977 0.047513
v -0.014423 -0.001986 0.042425
v -0.014360 -0.001750 0.046078
v -0.029138 0.005321 0.049624
v -0.029110 -0.003422 0.048401
v -0.029820 -0.002311 0.046845
v -0.029851 -0.002329 0.046078
v -0.030343 -0.001612 0.020827
v -0.013993 -0.000797 0.020827
v -0.014202 -0.001461 0.031476
v -0.014211 -0.001459 0.039769
v -0.014425 -0.001597 0.046997
v -0.014199 -0.000797 0.046740
v -0.015258 0.006176 0.049568
v -0.018085 0.008369 0.049624
v -0.014319 0.003849 0.047304
v -0.014236 -0.001459 0.045413
v -0.014034 -0.000797 0.045745
v -0.029385 -0.002113 0.048401
v -0.026546 0.008481 0.049624
v -0.028999 0.006414 0.049568
v -0.030372 0.003469 0.046763
v -0.030601 0.001858 0.046346
v -0.030364 -0.000132 0.046755
v -0.029371 -0.002790 0.048234
v -0.029676 -0.002334 0.047589
v -0.030182 -0.001459 0.046411
v -0.030316 -0.001198 0.045413
v -0.031043 0.001035 0.026676
v -0.030832 0.000501 0.020827
v -0.013624 0.000484 0.020827
v -0.014001 -0.000797 0.039440
v -0.013833 0.000019 0.045644
v -0.013720 0.001455 0.045683
v -0.015953 0.007481 0.049540
v -0.014139 0.003849 0.046740
v -0.014377 0.004770 0.047045
v -0.014530 0.005297 0.046078
v -0.014819 0.005842 0.046411
v -0.017117 0.008214 0.049568
v -0.019536 0.009507 0.046918
v -0.021738 0.010008 0.046078
v -0.013921 -0.000490 0.040102
v -0.013749 0.000265 0.044750
v -0.029721 -0.001891 0.047772
v -0.025387 0.009281 0.047406
v -0.026447 0.008858 0.048251
v -0.027735 0.008109 0.049238
v -0.028467 0.007292 0.049511
v -0.029037 0.006517 0.048733
v -0.029745 0.005283 0.047406
v -0.030138 0.004515 0.046411
v -0.030374 0.003877 0.046078
v -0.030520 0.003185 0.046078
v -0.030652 0.002522 0.045745
v -0.030786 0.001527 0.045413
v -0.030573 0.000670 0.046343
v -0.030542 -0.000132 0.046078
v -0.030362 -0.000786 0.046349
v -0.030667 0.000200 0.045083
v -0.030901 0.001088 0.040767
v -0.031050 0.001515 0.032362
v -0.031060 0.001412 0.027820
v -0.031053 0.001327 0.024838
v -0.031033 0.001248 0.024052
v -0.030973 0.001544 0.020827
v -0.013597 0.001534 0.020827
v -0.013540 0.001197 0.024170
v -0.013588 0.001088 0.040767
v -0.013669 0.000530 0.040102
v -0.013621 0.001088 0.044750
v -0.013648 0.001858 0.044421
v -0.015030 0.006280 0.044421
v -0.015931 0.007486 0.048652
v -0.016781 0.008142 0.048733
v -0.014061 0.003849 0.045745
v -0.014302 0.004739 0.046078
v -0.014320 0.004832 0.031474
v -0.014641 0.005577 0.038109
v -0.014905 0.006064 0.043420
v -0.018750 0.009278 0.046740
v -0.019014 0.009426 0.046078
v -0.020741 0.009997 0.045413
v -0.020409 0.009832 0.046078
v -0.021746 0.010161 0.045387
v -0.023062 0.009896 0.046078
v -0.024991 0.009500 0.046763
v -0.026051 0.009137 0.047406
v -0.026738 0.008839 0.047406
v -0.026979 0.008787 0.044088
v -0.027040 0.008827 0.040249
v -0.027803 0.008250 0.038774
v -0.028131 0.007872 0.039440
v -0.028400 0.007538 0.040102
v -0.029155 0.006350 0.048071
v -0.029674 0.005534 0.046267
v -0.028706 0.007419 0.020827
v -0.029848 0.005266 0.045083
v -0.030180 0.004515 0.045413
v -0.030342 0.004085 0.043420
v -0.030450 0.003818 0.038774
v -0.030861 0.001858 0.043420
v -0.030851 0.001527 0.044088
v -0.030889 0.001197 0.043090
v -0.030914 0.002458 0.020827
v -0.013751 0.002548 0.020827
v -0.013593 0.001858 0.026163
v -0.013605 0.001858 0.036784
v -0.013619 0.001858 0.041760
v -0.013760 0.002567 0.042428
v -0.015120 0.006471 0.040102
v -0.015217 0.006632 0.040767
v -0.015665 0.007317 0.040767
v -0.015790 0.007474 0.032139
v -0.017719 0.008849 0.020827
v -0.017900 0.008920 0.043710
v -0.018150 0.008985 0.046411
v -0.013890 0.003185 0.041430
v -0.014037 0.003849 0.039440
v -0.014017 0.003849 0.031474
v -0.014041 0.003877 0.020827
v -0.014334 0.004818 0.020827
v -0.014787 0.005842 0.024170
v -0.015120 0.006486 0.024170
v -0.018709 0.009352 0.043090
v -0.019085 0.009536 0.042428
v -0.019416 0.009679 0.041430
v -0.020078 0.009813 0.045083
v -0.021281 0.010190 0.044421
v -0.022084 0.010223 0.044440
v -0.024391 0.009719 0.046078
v -0.025385 0.009493 0.046078
v -0.026320 0.009087 0.046740
v -0.026344 0.009123 0.044750
v -0.025898 0.009429 0.032139
v -0.026900 0.008953 0.032139
v -0.027042 0.008880 0.026496
v -0.028061 0.008140 0.026828
v -0.029503 0.005854 0.045413
v -0.028203 0.008015 0.022845
v -0.028040 0.008149 0.020827
v -0.029969 0.005433 0.020827
v -0.029820 0.005364 0.042760
v -0.029844 0.005378 0.039440
v -0.030378 0.004532 0.020827
v -0.030429 0.004035 0.034132
v -0.030570 0.003849 0.020827
v -0.013802 0.002914 0.026163
v -0.013873 0.003185 0.034132
v -0.015553 0.007083 0.026163
v -0.015560 0.007052 0.024170
v -0.015752 0.007187 0.020827
v -0.016440 0.007849 0.020827
v -0.019097 0.009598 0.020827
v -0.018675 0.009373 0.035454
v -0.014993 0.006138 0.020827
v -0.019416 0.009715 0.028818
v -0.020078 0.009886 0.041430
v -0.020078 0.009960 0.029483
v -0.021209 0.010197 0.043113
v -0.021738 0.010266 0.042092
v -0.022070 0.010269 0.042760
v -0.024391 0.009781 0.045083
v -0.025428 0.009507 0.045083
v -0.026051 0.009252 0.045745
v -0.025783 0.009431 0.038774
v -0.025644 0.009519 0.031474
v -0.025373 0.009614 0.026163
v -0.025709 0.009491 0.024170
v -0.025697 0.009466 0.020827
v -0.026651 0.008985 0.020827
v -0.027378 0.008579 0.020827
v -0.021046 0.010187 0.020827
v -0.020330 0.010056 0.025168
v -0.021405 0.010288 0.035454
v -0.021738 0.010293 0.037447
v -0.022057 0.010319 0.020827
v -0.022746 0.010264 0.020827
v -0.024058 0.009918 0.040102
v -0.024058 0.009906 0.041760
v -0.024722 0.009767 0.039107
v -0.024722 0.009813 0.026828
v -0.024722 0.009817 0.020827
v -0.024058 0.009961 0.028153
f 1 2 6
f 1 6 14
f 1 14 26
f 1 26 40
f 1 40 53
f 1 53 52
f 1 52 66
f 1 66 65
f 1 65 79
f 1 79 101
f 1 101 137
f 1 137 176
f 1 176 218
f 1 218 216
f 1 216 213
f 1 213 168
f 1 168 212
f 1 212 243
f 1 243 242
f 1 242 241
f 1 241 254
f 1 254 249
f 1 249 248
f 1 248 244
f 1 244 225
f 1 225 186
f 1 186 224
f 1 224 223
f 1 223 227
f 1 227 193
f 1 193 192
f 1 192 177
f 1 177 138
f 1 138 102
f 1 102 80
f 1 80 67
f 1 67 54
f 1 54 42
f 1 42 29
f 1 29 16
f 1 16 7
f 1 7 3
f 1 3 4
f 1 4 5
f 1 5 2
f 2 5 6
f 3 7 8
f 3 8 4
f 4 9 10
f 4 10 5
f 4 8 9
f 5 10 11
f 5 11 12
f 5 12 13
f 5 13 6
f 6 13 15
f 6 15 14
f 7 16 17
f 7 17 8
f 8 17 9
f 9 17 18
f 9 18 19
f 9 19 10
f 10 19 20
f 10 20 11
f 11 20 21
f 11 21 12
f 12 21 22
f 12 22 13
f 13 22 15
f 14 15 23
f 14 23 24
f 14 24 25
f 14 25 26
f 15 27 24
f 15 24 23
f 15 22 28
f 15 28 27
f 16 29 30
f 16 30 31
f 16 31 32
f 16 32 17
f 17 32 33
f 17 33 18
f 18 33 34
f 18 34 35
f 18 35 19
f 19 35 20
f 20 35 36
f 20 36 37
f 20 37 38
f 20 38 21
f 21 38 22
f 22 38 28
f 24 27 25
f 25 39 40
f 25 40 26
f 25 27 28
f 25 28 41
f 25 41 37
f 25 37 36
f 25 36 39
f 28 38 41
f 29 42 43
f 29 43 44
f 29 44 45
f 29 45 30
f 30 45 31
f 31 46 47
f 31 47 34
f 31 34 32
f 31 45 46
f 32 34 33
f 34 47 35
f 35 47 48
f 35 48 36
f 36 48 49
f 36 49 39
f 37 41 38
f 39 50 51
f 39 51 52
f 39 52 53
f 39 53 40
f 39 49 50
f 42 54 55
f 42 55 56
f 42 56 43
f 43 56 44
f 44 56 57
f 44 57 45
f 45 57 46
f 46 58 59
f 46 59 47
f 46 57 60
f 46 60 61
f 46 61 58
f 47 59 71
f 47 71 86
f 47 86 91
f 47 91 75
f 47 75 62
f 47 62 48
f 48 62 63
f 48 63 49
f 49 63 64
f 49 64 50
f 50 64 51
f 51 65 66
f 51 66 52
f 51 64 65
f 54 67 68
f 54 68 69
f 54 69 60
f 54 60 55
f 55 57 56
f 55 60 57
f 58 70 71
f 58 71 59
f 58 61 72
f 58 72 70
f 60 69 61
f 61 69 73
f 61 73 74
f 61 74 72
f 62 75 76
f 62 76 63
f 63 76 77
f 63 77 78
f 63 78 65
f 63 65 64
f 65 78 79
f 67 80 81
f 67 81 68
f 68 81 82
f 68 82 73
f 68 73 69
f 70 72 83
f 70 83 84
f 70 84 71
f 71 85 86
f 71 84 87
f 71 87 85
f 72 74 83
f 73 82 88
f 73 88 74
f 74 88 89
f 74 89 83
f 75 90 76
f 75 91 92
f 75 92 93
f 75 93 94
f 75 94 95
f 75 95 90
f 76 90 96
f 76 96 97
f 76 97 77
f 77 97 98
f 77 98 78
f 78 98 99
f 78 99 79
f 79 100 101
f 79 99 100
f 80 102 103
f 80 103 81
f 81 103 82
f 82 103 88
f 83 89 84
f 84 89 104
f 84 104 105
f 84 105 87
f 85 106 86
f 85 87 107
f 85 107 108
f 85 108 109
f 85 109 110
f 85 110 106
f 86 106 111
f 86 111 112
f 86 112 113
f 86 113 91
f 87 105 107
f 88 103 89
f 89 103 114
f 89 114 115
f 89 115 104
f 90 95 116
f 90 116 96
f 91 113 117
f 91 117 118
f 91 118 119
f 91 119 120
f 91 120 92
f 92 120 121
f 92 121 122
f 92 122 93
f 93 122 123
f 93 123 124
f 93 124 125
f 93 125 126
f 93 126 94
f 94 126 127
f 94 127 128
f 94 128 95
f 95 128 129
f 95 129 130
f 95 130 116
f 96 116 97
f 97 116 130
f 97 130 98
f 98 130 99
f 99 130 129
f 99 129 131
f 99 131 100
f 100 132 133
f 100 133 134
f 100 134 135
f 100 135 136
f 100 136 101
f 100 131 132
f 101 136 137
f 102 138 139
f 102 139 140
f 102 140 141
f 102 141 114
f 102 114 103
f 104 115 142
f 104 142 105
f 105 142 143
f 105 143 107
f 106 110 144
f 106 144 145
f 106 145 146
f 106 146 111
f 107 143 147
f 107 147 108
f 108 147 148
f 108 148 109
f 109 148 149
f 109 149 150
f 109 150 151
f 109 151 110
f 110 151 144
f 111 146 152
f 111 152 112
f 112 152 153
f 112 153 154
f 112 154 155
f 112 155 113
f 113 155 156
f 113 156 157
f 113 157 117
f 114 141 115
f 115 141 142
f 117 158 159
f 117 159 118
f 117 157 158
f 118 159 160
f 118 160 119
f 119 160 161
f 119 161 162
f 119 162 163
f 119 163 120
f 120 163 164
f 120 164 165
f 120 165 121
f 121 166 167
f 121 167 122
f 121 165 168
f 121 168 166
f 122 167 169
f 122 169 170
f 122 170 123
f 123 170 124
f 124 170 171
f 124 171 172
f 124 172 133
f 124 133 173
f 124 173 125
f 125 173 126
f 126 173 127
f 127 173 174
f 127 174 175
f 127 175 131
f 127 131 129
f 127 129 128
f 131 175 132
f 132 175 133
f 133 175 173
f 133 172 176
f 133 176 134
f 134 176 135
f 135 176 137
f 135 137 136
f 138 177 178
f 138 178 139
f 139 178 179
f 139 179 180
f 139 180 140
f 140 180 142
f 140 142 141
f 142 180 143
f 143 180 181
f 143 181 147
f 144 151 182
f 144 182 183
f 144 183 184
f 144 184 145
f 145 184 185
f 145 185 146
f 146 185 186
f 146 186 187
f 146 187 188
f 146 188 152
f 147 181 189
f 147 189 190
f 147 190 148
f 148 190 191
f 148 191 149
f 149 191 192
f 149 192 193
f 149 193 150
f 150 193 194
f 150 194 195
f 150 195 182
f 150 182 151
f 152 188 196
f 152 196 153
f 153 196 197
f 153 197 198
f 153 198 199
f 153 199 154
f 154 199 200
f 154 200 156
f 154 156 155
f 156 200 201
f 156 201 202
f 156 202 157
f 157 202 158
f 158 202 203
f 158 203 159
f 159 203 204
f 159 204 160
f 160 204 205
f 160 205 161
f 161 205 162
f 162 206 207
f 162 207 208
f 162 208 209
f 162 209 163
f 162 205 206
f 163 209 164
f 164 209 165
f 165 209 168
f 166 168 210
f 166 210 167
f 167 210 169
f 168 209 211
f 168 211 212
f 168 213 210
f 169 214 215
f 169 215 216
f 169 216 170
f 169 210 214
f 170 216 171
f 171 216 217
f 171 217 172
f 172 217 176
f 173 175 174
f 176 217 218
f 177 192 219
f 177 219 178
f 178 219 179
f 179 181 180
f 179 219 181
f 181 219 220
f 181 220 189
f 182 195 183
f 183 195 184
f 184 195 185
f 185 195 221
f 185 221 222
f 185 222 223
f 185 223 224
f 185 224 186
f 186 225 226
f 186 226 187
f 187 196 188
f 187 226 196
f 189 220 191
f 189 191 190
f 191 220 219
f 191 219 192
f 193 227 194
f 194 227 195
f 195 222 221
f 195 227 223
f 195 223 222
f 196 226 197
f 197 226 225
f 197 225 228
f 197 228 198
f 198 229 199
f 198 228 230
f 198 230 229
f 199 231 200
f 199 229 231
f 200 231 232
f 200 232 233
f 200 233 201
f 201 233 234
f 201 234 202
f 202 234 203
f 203 234 235
f 203 235 236
f 203 236 204
f 204 236 205
f 205 236 206
f 206 208 207
f 206 236 237
f 206 237 238
f 206 238 239
f 206 239 240
f 206 240 208
f 208 240 241
f 208 241 242
f 208 242 243
f 208 243 212
f 208 212 209
f 209 212 211
f 210 213 215
f 210 215 214
f 213 216 215
f 216 218 217
f 225 244 245
f 225 245 228
f 228 245 230
f 229 230 231
f 230 245 231
f 231 245 246
f 231 246 232
f 232 246 247
f 232 247 233
f 233 247 248
f 233 248 249
f 233 249 250
f 233 250 251
f 233 251 234
f 234 251 252
f 234 252 235
f 235 252 238
f 235 238 237
f 235 237 236
f 238 253 239
f 238 252 253
f 239 254 240
f 239 253 254
f 240 254 241
f 244 248 246
f 244 246 245
f 246 248 247
f 249 254 253
f 249 253 255
f 249 255 250
f 250 255 253
f 250 253 252
f 250 252 251
