v -0.016098 0.010160 -0.000378
v -0.017753 0.009828 -0.000341
v -0.025384 0.011157 -0.000308
v -0.025054 0.011821 -0.000331
v -0.024061 0.011821 -0.000339
v -0.020081 0.012482 -0.000347
v -0.017753 0.012482 -0.000347
v -0.015189 0.010869 -0.000366
v -0.015189 0.009542 -0.000341
v -0.016098 0.009166 -0.000281
v -0.018086 0.009166 -0.000214
v -0.028298 0.011488 -0.000270
v -0.026049 0.012485 -0.000308
v -0.025054 0.012816 -0.000316
v -0.021073 0.013145 -0.000333
v -0.015432 0.011820 -0.000329
v -0.019415 0.013145 -0.000329
v -0.018086 0.013145 -0.000320
v -0.014947 0.008338 -0.000048
v -0.015206 0.014186 -0.000144
v -0.006820 0.002420 0.010152
v -0.028298 0.010062 0.000012
v -0.028233 0.014998 -0.000019
v -0.028171 0.012485 -0.000243
v -0.035203 0.010297 0.006761
v -0.027375 0.012815 -0.000252
v -0.026049 0.013147 -0.000275
v -0.024724 0.013812 -0.000260
v -0.024061 0.013147 -0.000314
v -0.021734 0.013812 -0.000299
v -0.016760 0.014476 -0.000212
v -0.015988 0.014687 -0.000154
v -0.021734 0.015140 -0.000227
v -0.018086 0.015140 -0.000189
v -0.014947 0.007667 0.000614
v -0.028298 0.008535 0.001070
v -0.028298 0.009090 0.000558
v -0.015206 0.015198 0.000693
v -0.007929 0.007388 0.010161
v -0.007610 0.006520 0.010185
v -0.007376 0.005736 0.010152
v -0.007189 0.004982 0.010152
v -0.006916 0.003539 0.010152
v -0.006809 0.002360 0.013209
v -0.015511 0.002305 0.010152
v -0.028171 0.015691 0.000375
v -0.026698 0.016041 0.000246
v -0.027375 0.015273 -0.000044
v -0.035626 0.009546 0.010389
v -0.035612 0.009546 0.014199
v -0.034988 0.010461 0.016522
v -0.034306 0.011430 0.016190
v -0.034249 0.011614 0.006761
v -0.022831 0.002305 0.011570
v -0.024718 0.016065 -0.000077
v -0.018086 0.015667 -0.000129
v -0.017003 0.015433 -0.000017
v -0.021401 0.016030 -0.000146
v -0.016050 0.015578 0.000616
v -0.016834 0.016116 0.001294
v -0.015265 0.015480 0.001961
v -0.007923 0.007395 0.011433
v -0.014947 0.015320 0.005055
v -0.007607 0.006510 0.011547
v -0.007503 0.006178 0.016194
v -0.007923 0.007395 0.012211
v -0.007232 0.005180 0.015530
v -0.006910 0.003522 0.012877
v -0.006879 0.003190 0.015200
v -0.006817 0.002470 0.014592
v -0.006820 0.002416 0.015640
v -0.006857 0.002388 0.016609
v -0.009026 0.002360 0.019753
v -0.022831 0.002305 0.020824
v -0.033812 0.012191 0.006761
v -0.033276 0.012752 0.006761
v -0.028041 0.016107 0.001307
v -0.027384 0.016193 0.000641
v -0.026049 0.016366 0.000334
v -0.035493 0.009688 0.016547
v -0.035152 0.009935 0.017777
v -0.033606 0.012203 0.017734
v -0.033333 0.012622 0.016856
v -0.033564 0.012536 0.008565
v -0.023395 0.016740 0.000221
v -0.022805 0.016388 -0.000034
v -0.019212 0.016163 -0.000084
v -0.018326 0.016111 0.000078
v -0.017412 0.016189 0.000637
v -0.018086 0.016477 0.000927
v -0.017753 0.016471 0.001923
v -0.016727 0.016147 0.002255
v -0.016098 0.015875 0.001923
v -0.015265 0.015501 0.003252
v -0.015268 0.015498 0.004248
v -0.015401 0.015429 0.016190
v -0.015133 0.015185 0.017171
v -0.008109 0.007543 0.017200
v -0.007940 0.007382 0.016194
v -0.007785 0.006859 0.016928
v -0.007401 0.005458 0.017190
v -0.007175 0.004884 0.016194
v -0.006986 0.003854 0.015862
v -0.006927 0.003190 0.016526
v -0.007065 0.002416 0.017821
v -0.007957 0.002388 0.019166
v -0.007085 0.004152 0.016991
v -0.008532 0.003522 0.019463
v -0.009350 0.004517 0.019772
v -0.013748 0.002530 0.020824
v -0.022831 0.007667 0.020824
v -0.031764 0.009688 0.020004
v -0.033209 0.009653 0.019732
v -0.034864 0.009546 0.018713
v -0.032568 0.013376 0.006761
v -0.031761 0.014009 0.006761
v -0.030628 0.014763 0.006761
v -0.028078 0.016133 0.002253
v -0.027037 0.016480 0.001923
v -0.026681 0.016496 0.000927
v -0.025257 0.016800 0.000734
v -0.033795 0.011642 0.018385
v -0.033034 0.012594 0.018161
v -0.032264 0.013509 0.017379
v -0.032661 0.013329 0.008565
v -0.022755 0.017082 0.000641
v -0.021401 0.016955 0.000369
v -0.019973 0.016943 0.000709
v -0.019121 0.016816 0.001282
v -0.017753 0.016496 0.003252
v -0.019110 0.016863 0.002255
v -0.016405 0.016024 0.003252
v -0.017158 0.016307 0.004248
v -0.016098 0.015767 0.016190
v -0.015832 0.015539 0.017173
v -0.016188 0.015429 0.018087
v -0.015260 0.014897 0.018219
v -0.007838 0.006438 0.017767
v -0.008405 0.007328 0.018286
v -0.007779 0.005791 0.018138
v -0.007257 0.003748 0.017937
v -0.007962 0.003854 0.019000
v -0.008569 0.004517 0.019402
v -0.009649 0.005506 0.019809
v -0.014044 0.003880 0.020824
v -0.022055 0.010321 0.020818
v -0.022789 0.010252 0.020818
v -0.015832 0.007268 0.020824
v -0.031028 0.010493 0.019990
v -0.032407 0.010419 0.019778
v -0.032690 0.011158 0.019467
v -0.033383 0.010517 0.019382
v -0.033996 0.010056 0.019224
v -0.033488 0.011158 0.019037
v -0.031400 0.014165 0.016522
v -0.030788 0.014658 0.007566
v -0.030441 0.014853 0.009561
v -0.029671 0.015302 0.006761
v -0.028997 0.015566 0.016190
v -0.027843 0.016053 0.016190
v -0.026351 0.016554 0.010387
v -0.025711 0.016798 0.004515
v -0.025666 0.016838 0.002255
v -0.025643 0.016825 0.001469
v -0.024724 0.016993 0.001589
v -0.023395 0.017156 0.001257
v -0.033065 0.011779 0.018975
v -0.032261 0.012556 0.018929
v -0.031801 0.013455 0.018304
v -0.030910 0.014322 0.017659
v -0.030297 0.014861 0.016499
v -0.021734 0.017169 0.000927
v -0.020743 0.017036 0.000649
v -0.020081 0.017077 0.001591
v -0.018789 0.016789 0.004248
v -0.018086 0.016594 0.004912
v -0.019102 0.016867 0.003252
v -0.017138 0.016198 0.016190
v -0.016918 0.016016 0.017225
v -0.015866 0.014929 0.018663
v -0.017494 0.016090 0.017765
v -0.018208 0.015884 0.018587
v -0.017102 0.015390 0.018742
v -0.015299 0.014275 0.019041
v -0.008933 0.007393 0.018915
v -0.008487 0.006510 0.018838
v -0.007649 0.004667 0.018398
v -0.008543 0.005702 0.019164
v -0.009226 0.006793 0.019369
v -0.009991 0.006510 0.019788
v -0.010425 0.007229 0.019813
v -0.014337 0.004828 0.020824
v -0.022805 0.014937 0.019770
v -0.021045 0.010188 0.020818
v -0.020081 0.014687 0.019819
v -0.028066 0.013376 0.019857
v -0.014995 0.006142 0.020824
v -0.015189 0.012783 0.019784
v -0.017722 0.008855 0.020818
v -0.019099 0.009603 0.020818
v -0.029099 0.012777 0.019834
v -0.031361 0.011564 0.019722
v -0.032024 0.011820 0.019454
v -0.029000 0.015496 0.017165
v -0.027832 0.015979 0.017192
v -0.022780 0.017073 0.016549
v -0.025319 0.016773 0.010387
v -0.025384 0.016879 0.003582
v -0.024724 0.017003 0.002587
v -0.023395 0.017159 0.003582
v -0.022396 0.017232 0.001591
v -0.030134 0.013370 0.019392
v -0.029578 0.014053 0.019211
v -0.031048 0.013481 0.018871
v -0.030233 0.014246 0.018634
v -0.030032 0.014810 0.017810
v -0.021073 0.017187 0.001591
v -0.020081 0.017083 0.002587
v -0.020743 0.017162 0.002919
v -0.019034 0.016749 0.016522
v -0.018086 0.016487 0.016522
v -0.019525 0.016778 0.017470
v -0.016326 0.014538 0.019276
v -0.020083 0.016768 0.017929
v -0.019415 0.016341 0.018396
v -0.020081 0.016145 0.018879
v -0.019155 0.015555 0.019249
v -0.017423 0.014970 0.019311
v -0.009553 0.007667 0.019332
v -0.021073 0.014931 0.019757
v -0.022066 0.015138 0.019697
v -0.022794 0.015973 0.019195
v -0.027623 0.014361 0.019606
v -0.019003 0.014514 0.019805
v -0.019415 0.015138 0.019568
v -0.020081 0.015407 0.019487
v -0.028707 0.013812 0.019618
v -0.016710 0.013620 0.019801
v -0.028385 0.015479 0.018201
v -0.027674 0.015641 0.018443
v -0.022427 0.016876 0.017852
v -0.021073 0.017064 0.016522
v -0.022425 0.017096 0.015552
v -0.022064 0.017216 0.002919
v -0.021401 0.017196 0.002919
v -0.029384 0.014696 0.018680
v -0.028365 0.014555 0.019323
v -0.028707 0.014998 0.018761
v -0.020081 0.016968 0.016522
v -0.017722 0.014208 0.019759
v -0.021073 0.016861 0.017825
v -0.022066 0.016166 0.019045
v -0.021073 0.016135 0.019018
v -0.018442 0.015227 0.019338
v -0.027700 0.015051 0.019172
f 1 2 3
f 1 3 4
f 1 4 5
f 1 5 6
f 1 6 7
f 1 7 8
f 1 8 9
f 1 9 2
f 2 9 10
f 2 10 11
f 2 11 12
f 2 12 3
f 3 12 4
f 4 12 13
f 4 13 14
f 4 14 5
f 5 14 15
f 5 15 6
f 6 15 7
f 7 16 8
f 7 15 17
f 7 17 18
f 7 18 16
f 8 19 9
f 8 16 20
f 8 20 21
f 8 21 19
f 9 19 10
f 10 19 11
f 11 19 22
f 11 22 12
f 12 23 24
f 12 24 13
f 12 22 25
f 12 25 23
f 13 26 27
f 13 27 14
f 13 24 26
f 14 28 29
f 14 29 15
f 14 27 28
f 15 29 30
f 15 30 17
f 16 18 31
f 16 31 32
f 16 32 20
f 17 30 33
f 17 33 18
f 18 33 34
f 18 34 31
f 19 35 36
f 19 36 37
f 19 37 22
f 19 21 35
f 20 38 39
f 20 39 40
f 20 40 41
f 20 41 42
f 20 42 43
f 20 43 21
f 20 32 38
f 21 43 44
f 21 44 45
f 21 45 35
f 22 37 25
f 23 46 47
f 23 47 48
f 23 48 24
f 23 25 46
f 24 48 26
f 25 49 50
f 25 50 51
f 25 51 52
f 25 52 53
f 25 53 46
f 25 37 36
f 25 36 54
f 25 54 49
f 26 48 27
f 27 48 55
f 27 55 28
f 28 55 33
f 28 33 29
f 29 33 30
f 31 34 56
f 31 56 32
f 32 56 57
f 32 57 38
f 33 55 58
f 33 58 34
f 34 58 56
f 35 45 36
f 36 45 54
f 38 57 59
f 38 59 60
f 38 60 61
f 38 61 39
f 39 62 40
f 39 61 63
f 39 63 62
f 40 64 65
f 40 65 41
f 40 62 66
f 40 66 64
f 41 65 67
f 41 67 42
f 42 67 68
f 42 68 43
f 43 68 44
f 44 68 69
f 44 69 70
f 44 70 71
f 44 71 72
f 44 72 73
f 44 73 45
f 45 73 74
f 45 74 54
f 46 53 75
f 46 75 76
f 46 76 77
f 46 77 78
f 46 78 79
f 46 79 47
f 47 79 55
f 47 55 48
f 49 54 74
f 49 74 50
f 50 80 51
f 50 74 80
f 51 81 82
f 51 82 52
f 51 80 81
f 52 82 83
f 52 83 84
f 52 84 53
f 53 84 75
f 55 79 85
f 55 85 86
f 55 86 58
f 56 58 87
f 56 87 88
f 56 88 57
f 57 88 59
f 58 86 87
f 59 88 89
f 59 89 60
f 60 89 90
f 60 90 91
f 60 91 92
f 60 92 93
f 60 93 61
f 61 94 63
f 61 93 94
f 62 63 66
f 63 94 95
f 63 95 96
f 63 96 97
f 63 97 98
f 63 98 99
f 63 99 66
f 64 66 65
f 65 66 99
f 65 99 100
f 65 100 101
f 65 101 102
f 65 102 67
f 67 102 68
f 68 102 103
f 68 103 69
f 69 71 70
f 69 103 104
f 69 104 71
f 71 104 72
f 72 105 106
f 72 106 73
f 72 104 107
f 72 107 105
f 73 108 109
f 73 109 110
f 73 110 74
f 73 106 108
f 74 111 112
f 74 112 113
f 74 113 114
f 74 114 80
f 74 110 145
f 74 145 192
f 74 192 197
f 74 197 148
f 74 148 111
f 75 84 76
f 76 115 77
f 76 84 115
f 77 115 116
f 77 116 117
f 77 117 118
f 77 118 119
f 77 119 120
f 77 120 78
f 78 120 121
f 78 121 79
f 79 121 85
f 80 114 81
f 81 114 122
f 81 122 82
f 82 122 123
f 82 123 124
f 82 124 83
f 83 124 125
f 83 125 84
f 84 125 115
f 85 121 126
f 85 126 127
f 85 127 86
f 86 127 87
f 87 128 88
f 87 127 128
f 88 128 89
f 89 128 90
f 90 128 129
f 90 129 91
f 91 130 92
f 91 129 131
f 91 131 130
f 92 132 93
f 92 130 133
f 92 133 132
f 93 132 94
f 94 132 95
f 95 132 134
f 95 134 96
f 96 134 135
f 96 135 97
f 97 135 136
f 97 136 137
f 97 137 98
f 98 138 100
f 98 100 99
f 98 137 139
f 98 139 138
f 100 138 101
f 101 138 140
f 101 140 141
f 101 141 107
f 101 107 102
f 102 107 103
f 103 107 104
f 105 107 141
f 105 141 142
f 105 142 106
f 106 142 143
f 106 143 108
f 108 143 109
f 109 144 110
f 109 143 144
f 110 144 145
f 111 146 147
f 111 147 112
f 111 148 146
f 112 149 150
f 112 150 113
f 112 147 149
f 113 150 151
f 113 151 152
f 113 152 153
f 113 153 114
f 114 153 154
f 114 154 122
f 115 125 116
f 116 125 155
f 116 155 156
f 116 156 117
f 117 156 157
f 117 157 158
f 117 158 118
f 118 159 160
f 118 160 119
f 118 158 159
f 119 161 162
f 119 162 163
f 119 163 164
f 119 164 120
f 119 160 161
f 120 164 121
f 121 164 165
f 121 165 166
f 121 166 126
f 122 154 167
f 122 167 123
f 123 167 168
f 123 168 169
f 123 169 124
f 124 169 170
f 124 170 171
f 124 171 155
f 124 155 125
f 126 172 127
f 126 166 172
f 127 172 173
f 127 173 128
f 128 174 129
f 128 173 174
f 129 174 131
f 130 131 175
f 130 175 176
f 130 176 133
f 131 174 177
f 131 177 175
f 132 133 178
f 132 178 134
f 133 176 178
f 134 178 179
f 134 179 135
f 135 179 136
f 136 180 137
f 136 179 181
f 136 181 182
f 136 182 183
f 136 183 180
f 137 184 139
f 137 180 184
f 138 139 140
f 139 184 185
f 139 185 186
f 139 186 140
f 140 187 141
f 140 186 187
f 141 187 142
f 142 187 188
f 142 188 143
f 143 188 189
f 143 189 144
f 144 190 191
f 144 191 192
f 144 192 145
f 144 189 190
f 146 193 147
f 146 148 194
f 146 194 195
f 146 195 193
f 147 193 196
f 147 196 149
f 148 197 191
f 148 191 198
f 148 198 199
f 148 199 200
f 148 200 194
f 149 196 201
f 149 201 202
f 149 202 150
f 150 202 203
f 150 203 151
f 151 167 154
f 151 154 152
f 151 203 167
f 152 154 153
f 155 171 157
f 155 157 156
f 157 171 158
f 158 171 159
f 159 171 204
f 159 204 160
f 160 204 205
f 160 205 206
f 160 206 207
f 160 207 161
f 161 207 162
f 162 207 208
f 162 208 163
f 163 208 209
f 163 209 165
f 163 165 164
f 165 209 166
f 166 209 210
f 166 210 211
f 166 211 172
f 167 203 168
f 168 203 212
f 168 212 213
f 168 213 214
f 168 214 169
f 169 214 215
f 169 215 216
f 169 216 170
f 170 216 171
f 171 216 204
f 172 217 173
f 172 211 217
f 173 217 174
f 174 218 177
f 174 217 219
f 174 219 218
f 175 177 220
f 175 220 176
f 176 220 221
f 176 221 178
f 177 218 220
f 178 221 179
f 179 221 222
f 179 222 181
f 180 183 223
f 180 223 184
f 181 222 224
f 181 224 225
f 181 225 182
f 182 225 226
f 182 226 227
f 182 227 228
f 182 228 183
f 183 228 223
f 184 198 229
f 184 229 185
f 184 223 198
f 185 189 188
f 185 188 186
f 185 229 189
f 186 188 187
f 189 229 190
f 190 229 191
f 191 229 198
f 191 197 192
f 193 195 230
f 193 230 231
f 193 231 232
f 193 232 233
f 193 233 196
f 194 200 234
f 194 234 195
f 195 234 235
f 195 235 236
f 195 236 230
f 196 237 201
f 196 233 237
f 198 223 238
f 198 238 199
f 199 238 200
f 200 238 234
f 201 237 202
f 202 237 203
f 203 237 212
f 204 216 239
f 204 239 205
f 205 240 241
f 205 241 206
f 205 239 240
f 206 241 242
f 206 242 243
f 206 243 211
f 206 211 210
f 206 210 209
f 206 209 207
f 207 209 208
f 211 243 244
f 211 244 245
f 211 245 217
f 212 237 213
f 213 246 215
f 213 215 214
f 213 237 247
f 213 247 248
f 213 248 246
f 215 246 216
f 216 246 239
f 217 245 219
f 218 249 220
f 218 219 249
f 219 245 242
f 219 242 249
f 220 249 222
f 220 222 221
f 222 249 224
f 223 228 250
f 223 250 238
f 224 226 225
f 224 249 242
f 224 242 251
f 224 251 252
f 224 252 253
f 224 253 226
f 226 253 227
f 227 253 236
f 227 236 235
f 227 235 254
f 227 254 228
f 228 254 235
f 228 235 250
f 230 236 231
f 231 236 232
f 232 236 252
f 232 252 241
f 232 241 240
f 232 240 255
f 232 255 233
f 233 255 247
f 233 247 237
f 234 238 250
f 234 250 235
f 236 253 252
f 239 246 248
f 239 248 240
f 240 248 255
f 241 252 251
f 241 251 242
f 242 245 244
f 242 244 243
f 247 255 248
