v 0.004406 -0.064575 0.005546
v -0.000540 -0.064547 0.012146
v -0.004958 -0.064399 0.006552
v -0.014159 -0.063888 0.004111
v 0.003091 -0.064138 0.002166
v 0.011490 -0.062094 0.002944
v 0.012628 -0.063219 0.010603
v 0.010342 -0.064278 0.014131
v -0.001971 -0.064148 0.044700
v -0.013530 -0.064083 0.012253
v -0.002691 -0.064250 0.036062
v -0.009222 -0.063990 0.044928
v -0.022467 -0.062141 0.001831
v -0.021103 -0.063469 0.015445
v -0.024181 -0.063061 0.016773
v -0.003373 -0.057801 0.000074
v 0.011009 -0.050591 0.000463
v 0.013425 -0.049262 0.001308
v 0.014611 -0.053007 0.004447
v 0.013963 -0.059827 0.009731
v 0.013699 -0.060933 0.011489
v 0.012133 -0.062745 0.029959
v 0.012330 -0.062949 0.022045
v 0.008368 -0.062466 0.100339
v 0.006654 -0.062485 0.120056
v 0.006611 -0.063311 0.083183
v 0.004848 -0.062466 0.128520
v -0.003292 -0.063971 0.053727
v -0.011201 -0.063962 0.038879
v -0.016483 -0.063646 0.033929
v -0.013621 -0.062085 0.136112
v -0.024705 -0.061704 0.136112
v -0.027154 -0.048045 0.003427
v -0.025122 -0.044867 0.000007
v -0.022683 -0.052951 -0.000275
v -0.024181 -0.063014 0.027330
v -0.025372 -0.062680 0.028202
v -0.019345 -0.044421 -0.000798
v -0.012411 -0.040193 -0.000852
v -0.003071 -0.037824 -0.000771
v 0.008844 -0.041708 -0.000114
v 0.009285 -0.032063 -0.000329
v 0.013228 -0.021099 0.000154
v 0.017175 0.006080 0.001804
v 0.014746 -0.003519 0.000275
v 0.015058 0.005281 0.000114
v 0.016215 0.003525 0.001013
v 0.015245 -0.049104 0.010550
v 0.017680 0.005281 0.004447
v 0.016642 -0.032212 0.014788
v 0.015163 -0.050387 0.017498
v 0.014472 -0.052793 0.029087
v 0.013828 -0.058684 0.019040
v 0.013367 -0.058758 0.029771
v 0.010054 -0.058981 0.103813
v 0.009271 -0.059827 0.117065
v 0.011898 -0.062475 0.038919
v 0.006985 -0.060069 0.134583
v -0.004473 -0.062289 0.136112
v -0.030895 -0.048380 0.136112
v -0.030578 -0.059325 0.131954
v -0.028834 -0.060970 0.088897
v -0.028085 -0.043325 0.012468
v -0.028085 -0.037164 0.010603
v -0.027495 -0.042117 0.005546
v -0.026366 0.001248 0.004795
v -0.025358 -0.003519 0.001455
v -0.028618 -0.060747 0.075121
v -0.030352 -0.058972 0.110774
v -0.024873 -0.033429 0.000114
v -0.023346 -0.006445 0.000034
v -0.020166 -0.030233 -0.000744
v -0.015383 -0.015403 -0.000838
v -0.011863 -0.028151 -0.000919
v -0.010101 -0.034414 -0.000905
v -0.000429 -0.031004 -0.000825
v 0.003091 -0.021758 -0.000852
v 0.006832 -0.015068 -0.000744
v 0.013468 -0.009289 -0.000034
v 0.017118 0.015000 0.002220
v 0.007489 0.022880 -0.000101
v 0.014822 0.025268 0.002837
v 0.015989 -0.042674 0.018450
v 0.017987 0.004733 0.008846
v 0.017992 -0.002775 0.013769
v 0.017420 -0.022585 0.022206
v 0.017022 -0.029629 0.021146
v 0.016114 -0.039970 0.031246
v 0.015384 -0.046103 0.031407
v 0.015043 -0.047497 0.036129
v 0.015000 -0.045434 0.046162
v 0.013737 -0.053927 0.042728
v 0.013281 -0.051650 0.063264
v 0.009607 -0.058071 0.117065
v 0.009900 -0.046707 0.135133
v 0.010486 -0.036467 0.135750
v 0.010837 -0.024184 0.136112
v -0.030751 -0.041866 0.136112
v -0.030688 -0.027045 0.110023
v -0.030827 -0.037824 0.110023
v -0.030611 -0.058071 0.118822
v -0.030477 -0.059316 0.118822
v -0.028743 -0.043984 0.032615
v -0.029300 -0.040240 0.042728
v -0.029103 -0.037601 0.033044
v -0.028566 -0.039153 0.019993
v -0.028926 -0.033094 0.024580
v -0.028441 -0.029303 0.014815
v -0.028277 -0.023031 0.013903
v -0.028023 -0.014083 0.013246
v -0.027538 -0.005145 0.011207
v -0.026529 0.006860 0.008846
v -0.024930 0.008226 0.001670
v -0.030112 -0.039580 0.068442
v -0.029915 -0.039580 0.061426
v -0.019869 0.013894 0.000275
v -0.019936 0.005160 -0.000208
v -0.017583 -0.001976 -0.000610
v -0.018322 -0.021600 -0.000758
v -0.006581 -0.012327 -0.000865
v 0.002154 0.001378 -0.000691
v 0.018117 0.007650 0.018638
v 0.014529 0.026912 0.013246
v 0.013651 0.025491 0.090694
v 0.001328 0.010010 -0.000530
v -0.001947 0.024338 -0.000047
v 0.007196 0.027470 0.003078
v 0.016465 -0.037712 0.022487
v 0.018165 0.001323 0.022380
v 0.018054 -0.006548 0.021052
v 0.017814 -0.014297 0.024137
v 0.017632 -0.019240 0.029959
v 0.017151 -0.028142 0.030294
v 0.016397 -0.036068 0.037001
v 0.015946 -0.037527 0.047570
v 0.014803 -0.042349 0.061775
v 0.013896 -0.046252 0.069327
v 0.010179 -0.053973 0.118487
v 0.011965 -0.041392 0.113698
v 0.011427 -0.040900 0.121679
v 0.011888 -0.032556 0.123222
v 0.011941 -0.025800 0.125341
v -0.010101 0.029746 0.136112
v 0.012076 -0.017373 0.126307
v 0.012095 -0.010562 0.127621
v 0.012008 -0.001753 0.130009
v 0.011701 0.007427 0.134140
v 0.011634 0.021337 0.135924
v -0.030501 -0.033661 0.136112
v -0.030400 -0.016908 0.110573
v -0.030410 -0.024760 0.078099
v -0.030506 -0.030344 0.081426
v -0.030429 -0.032100 0.075269
v -0.029680 -0.029080 0.043506
v -0.029291 -0.030344 0.032172
v -0.028863 -0.023524 0.022380
v -0.028604 -0.016155 0.021025
v -0.027211 0.001211 0.011810
v -0.028421 -0.009475 0.022541
v -0.025574 0.013114 0.007840
v -0.027970 -0.002199 0.023587
v -0.028052 -0.000220 0.031944
v -0.027773 0.026401 0.123222
v -0.019009 0.026178 0.001885
v -0.030169 -0.030892 0.061869
v 0.017329 0.009564 0.038744
v 0.017925 0.000932 0.032387
v 0.001266 0.028771 0.005627
v 0.012546 0.027600 0.073069
v 0.013511 0.027256 0.057255
v 0.013497 0.027191 0.066054
v 0.012042 0.027451 0.115308
v 0.013257 0.024645 0.102981
v -0.007345 0.029319 0.004004
v 0.018064 -0.003853 0.027826
v 0.017853 -0.010785 0.034479
v 0.017622 -0.017809 0.036343
v 0.017084 -0.026618 0.040824
v 0.016364 -0.031663 0.051970
v 0.015701 -0.035743 0.058543
v 0.015010 -0.038001 0.068455
v 0.014217 -0.039469 0.080540
v 0.011701 -0.047618 0.106388
v 0.015038 -0.030567 0.080326
v 0.012652 -0.036059 0.110023
v 0.012820 -0.030019 0.112893
v 0.013492 -0.023189 0.107998
v 0.013074 -0.018962 0.114973
v -0.023221 0.030350 0.136112
v 0.010049 0.027804 0.128440
v 0.011009 0.028055 0.115308
v 0.012950 -0.008360 0.118822
v 0.012666 0.003079 0.123222
v 0.013920 -0.003844 0.106951
v 0.015797 -0.002199 0.080098
v 0.015706 0.003961 0.078998
v 0.016162 0.006712 0.068120
v -0.027912 0.026308 0.132920
v -0.029516 -0.001753 0.124107
v -0.030165 -0.014083 0.117065
v -0.029622 0.000440 0.110023
v -0.029953 -0.006603 0.107381
v -0.030179 -0.014083 0.094182
v -0.029723 -0.003955 0.118393
v -0.030304 -0.029498 0.068670
v -0.030078 -0.014957 0.079172
v -0.030107 -0.020225 0.066054
v -0.030083 -0.024407 0.059066
v -0.029881 -0.024676 0.050535
v -0.029286 -0.023747 0.031729
v -0.029070 -0.014520 0.032387
v -0.028758 -0.008248 0.033124
v -0.023461 0.025779 0.030844
v -0.026986 0.026968 0.107381
v -0.025055 0.025472 0.058328
v -0.028301 0.000003 0.041414
v -0.028590 0.014991 0.109111
v -0.025089 0.027312 0.073512
v 0.017473 -0.001651 0.046457
v 0.017766 -0.003138 0.039375
v 0.012397 0.027609 0.084940
v 0.012143 0.027526 0.107381
v 0.017660 -0.009679 0.043171
v 0.017550 -0.016165 0.042514
v 0.016921 -0.025884 0.047477
v 0.016561 -0.026599 0.055484
v 0.016052 -0.027045 0.065826
v 0.015485 -0.029824 0.073405
v 0.015523 -0.023180 0.079749
v 0.014635 -0.029275 0.087945
v 0.014020 -0.026181 0.099091
v 0.014813 -0.020662 0.091553
v 0.014866 -0.016713 0.092425
v 0.014112 -0.015068 0.102981
v 0.013281 -0.001753 0.115308
v 0.014712 -0.011444 0.095724
v 0.015663 -0.008852 0.082526
v 0.016373 -0.010014 0.070869
v 0.016239 -0.002366 0.072519
v 0.016561 -0.000443 0.065719
v -0.029113 0.008356 0.110023
v -0.029584 -0.005721 0.079441
v -0.029804 -0.014957 0.061158
v -0.029651 -0.015616 0.051863
v -0.029545 -0.019129 0.042286
v -0.029055 -0.009001 0.041803
v -0.029147 -0.006929 0.051809
v -0.029118 0.000877 0.079226
v 0.016782 -0.007588 0.062969
v 0.017368 -0.010785 0.049770
v 0.017199 -0.018200 0.050119
v 0.016791 -0.017809 0.059455
v 0.016047 -0.020560 0.072627
v 0.015552 -0.017280 0.082365
v 0.016537 -0.016388 0.065719
v -0.029440 -0.007923 0.062526
f 1 2 3
f 1 3 4
f 1 4 5
f 1 5 6
f 1 6 7
f 1 7 8
f 1 8 9
f 1 9 2
f 2 10 3
f 2 9 11
f 2 11 12
f 2 12 10
f 3 10 4
f 4 13 5
f 4 10 14
f 4 14 15
f 4 15 13
f 5 13 16
f 5 16 17
f 5 17 6
f 6 17 18
f 6 18 19
f 6 19 20
f 6 20 7
f 7 20 21
f 7 21 22
f 7 22 23
f 7 23 24
f 7 24 8
f 8 24 25
f 8 25 26
f 8 26 9
f 9 26 27
f 9 27 28
f 9 28 12
f 9 12 11
f 10 29 30
f 10 30 14
f 10 12 29
f 12 28 31
f 12 31 32
f 12 32 29
f 13 33 34
f 13 34 35
f 13 35 16
f 13 15 33
f 14 30 32
f 14 32 36
f 14 36 15
f 15 36 37
f 15 37 33
f 16 35 38
f 16 38 39
f 16 39 40
f 16 40 41
f 16 41 17
f 17 41 42
f 17 42 43
f 17 43 18
f 18 44 19
f 18 43 45
f 18 45 46
f 18 46 47
f 18 47 44
f 19 48 20
f 19 44 49
f 19 49 50
f 19 50 48
f 20 48 51
f 20 51 52
f 20 52 53
f 20 53 21
f 21 53 54
f 21 54 55
f 21 55 56
f 21 56 57
f 21 57 22
f 22 57 24
f 22 24 23
f 24 56 25
f 24 57 56
f 25 56 58
f 25 58 27
f 25 27 26
f 27 58 59
f 27 59 28
f 28 59 31
f 29 32 30
f 31 59 97
f 31 97 143
f 31 143 189
f 31 189 149
f 31 149 98
f 31 98 60
f 31 60 32
f 32 60 61
f 32 61 62
f 32 62 37
f 32 37 36
f 33 63 64
f 33 64 65
f 33 65 66
f 33 66 67
f 33 67 34
f 33 37 68
f 33 68 69
f 33 69 63
f 34 70 71
f 34 71 72
f 34 72 38
f 34 38 35
f 34 67 70
f 37 62 68
f 38 72 73
f 38 73 74
f 38 74 75
f 38 75 39
f 39 75 40
f 40 75 76
f 40 76 41
f 41 76 42
f 42 76 77
f 42 77 78
f 42 78 79
f 42 79 43
f 43 79 46
f 43 46 45
f 44 80 49
f 44 47 46
f 44 46 80
f 46 79 78
f 46 78 81
f 46 81 82
f 46 82 80
f 48 50 83
f 48 83 51
f 49 80 84
f 49 84 50
f 50 85 86
f 50 86 87
f 50 87 83
f 50 84 85
f 51 83 88
f 51 88 89
f 51 89 90
f 51 90 52
f 52 90 91
f 52 91 92
f 52 92 53
f 53 92 54
f 54 92 93
f 54 93 55
f 55 93 94
f 55 94 56
f 56 94 95
f 56 95 58
f 58 95 59
f 59 95 96
f 59 96 97
f 60 98 99
f 60 99 100
f 60 100 101
f 60 101 61
f 61 101 102
f 61 102 62
f 62 102 68
f 63 103 104
f 63 104 105
f 63 105 106
f 63 106 107
f 63 107 64
f 63 69 103
f 64 107 108
f 64 108 109
f 64 109 65
f 65 109 110
f 65 110 111
f 65 111 66
f 66 111 112
f 66 112 113
f 66 113 67
f 67 113 71
f 67 71 70
f 68 102 69
f 69 102 101
f 69 101 114
f 69 114 115
f 69 115 104
f 69 104 103
f 71 113 116
f 71 116 117
f 71 117 72
f 72 118 119
f 72 119 73
f 72 117 118
f 73 120 74
f 73 119 118
f 73 118 120
f 74 120 77
f 74 77 75
f 75 77 76
f 77 120 121
f 77 121 78
f 78 121 81
f 80 122 84
f 80 82 123
f 80 123 124
f 80 124 122
f 81 121 125
f 81 125 126
f 81 126 127
f 81 127 82
f 82 127 123
f 83 87 128
f 83 128 88
f 84 122 129
f 84 129 85
f 85 129 130
f 85 130 86
f 86 130 131
f 86 131 132
f 86 132 133
f 86 133 87
f 87 133 128
f 88 134 135
f 88 135 89
f 88 128 134
f 89 135 91
f 89 91 90
f 91 135 136
f 91 136 137
f 91 137 93
f 91 93 92
f 93 137 94
f 94 138 95
f 94 137 138
f 95 138 139
f 95 139 140
f 95 140 141
f 95 141 96
f 96 141 142
f 96 142 97
f 97 142 144
f 97 144 145
f 97 145 146
f 97 146 147
f 97 147 148
f 97 148 143
f 98 149 150
f 98 150 99
f 99 150 151
f 99 151 100
f 100 151 152
f 100 152 153
f 100 153 101
f 101 153 114
f 104 115 105
f 105 115 154
f 105 154 155
f 105 155 107
f 105 107 106
f 107 156 108
f 107 155 156
f 108 156 109
f 109 156 157
f 109 157 110
f 110 157 111
f 111 158 112
f 111 157 159
f 111 159 158
f 112 160 113
f 112 158 161
f 112 161 162
f 112 162 163
f 112 163 160
f 113 164 116
f 113 160 164
f 114 153 165
f 114 165 115
f 115 165 154
f 116 126 117
f 116 164 126
f 117 126 118
f 118 125 121
f 118 121 120
f 118 126 125
f 122 166 167
f 122 167 129
f 122 124 166
f 123 127 168
f 123 168 169
f 123 169 170
f 123 170 171
f 123 171 124
f 124 171 172
f 124 172 173
f 124 173 166
f 126 164 174
f 126 174 127
f 127 174 168
f 128 133 134
f 129 175 130
f 129 167 175
f 130 175 176
f 130 176 131
f 131 176 132
f 132 176 177
f 132 177 133
f 133 177 178
f 133 178 134
f 134 178 179
f 134 179 135
f 135 179 180
f 135 180 136
f 136 180 181
f 136 181 182
f 136 182 137
f 137 182 138
f 138 182 183
f 138 183 139
f 139 183 182
f 139 182 184
f 139 184 185
f 139 185 140
f 140 185 141
f 141 185 186
f 141 186 187
f 141 187 188
f 141 188 142
f 142 188 144
f 143 148 190
f 143 190 191
f 143 191 168
f 143 168 174
f 143 174 189
f 144 188 192
f 144 192 145
f 145 192 146
f 146 192 193
f 146 193 147
f 147 193 148
f 148 193 194
f 148 194 195
f 148 195 196
f 148 196 197
f 148 197 173
f 148 173 172
f 148 172 190
f 149 189 198
f 149 198 199
f 149 199 200
f 149 200 150
f 150 201 202
f 150 202 203
f 150 203 151
f 150 200 204
f 150 204 201
f 151 205 153
f 151 153 152
f 151 203 206
f 151 206 207
f 151 207 208
f 151 208 205
f 153 205 165
f 154 165 209
f 154 209 210
f 154 210 155
f 155 210 156
f 156 210 211
f 156 211 157
f 157 211 159
f 158 159 161
f 159 211 212
f 159 212 161
f 160 213 164
f 160 163 214
f 160 214 215
f 160 215 213
f 161 212 162
f 162 212 216
f 162 216 163
f 163 217 198
f 163 198 189
f 163 189 214
f 163 216 217
f 164 213 218
f 164 218 189
f 164 189 174
f 165 208 209
f 165 205 208
f 166 173 197
f 166 197 219
f 166 219 167
f 167 219 220
f 167 220 175
f 168 191 169
f 169 191 221
f 169 221 170
f 170 221 171
f 171 221 222
f 171 222 172
f 172 222 191
f 172 191 190
f 175 220 223
f 175 223 176
f 176 224 177
f 176 223 224
f 177 224 178
f 178 224 225
f 178 225 179
f 179 225 226
f 179 226 227
f 179 227 228
f 179 228 180
f 180 228 181
f 181 228 182
f 182 228 184
f 184 228 229
f 184 229 230
f 184 230 185
f 185 230 186
f 186 230 231
f 186 231 187
f 187 231 232
f 187 232 233
f 187 233 234
f 187 234 188
f 188 234 192
f 189 218 214
f 191 222 221
f 192 234 194
f 192 194 235
f 192 235 193
f 193 235 194
f 194 234 236
f 194 236 237
f 194 237 195
f 195 237 238
f 195 238 239
f 195 239 196
f 196 239 240
f 196 240 197
f 197 240 219
f 198 217 241
f 198 241 201
f 198 201 204
f 198 204 199
f 199 204 200
f 201 241 242
f 201 242 206
f 201 206 202
f 202 206 203
f 206 242 243
f 206 243 207
f 207 243 244
f 207 244 208
f 208 244 245
f 208 245 209
f 209 245 210
f 210 245 211
f 211 245 244
f 211 244 246
f 211 246 212
f 212 246 216
f 213 215 218
f 214 218 215
f 216 246 247
f 216 247 248
f 216 248 217
f 217 248 241
f 219 240 249
f 219 249 223
f 219 223 220
f 223 249 250
f 223 250 251
f 223 251 224
f 224 251 225
f 225 251 226
f 226 251 252
f 226 252 253
f 226 253 227
f 227 253 229
f 227 229 228
f 229 254 232
f 229 232 231
f 229 231 230
f 229 253 254
f 232 254 233
f 233 236 234
f 233 254 237
f 233 237 236
f 237 254 238
f 238 254 255
f 238 255 249
f 238 249 239
f 239 249 240
f 241 248 242
f 242 248 256
f 242 256 243
f 243 256 244
f 244 256 246
f 246 256 247
f 247 256 248
f 249 255 250
f 250 255 252
f 250 252 251
f 252 255 253
f 253 255 254
