v -0.067598 0.008035 0.044630
v -0.065847 0.003504 0.034277
v -0.065763 -0.002099 0.041067
v -0.066793 0.003485 0.051663
v -0.066409 0.011776 0.057464
v -0.067542 0.015800 0.046505
v -0.066980 0.012698 0.037467
v -0.065098 0.009661 0.030042
v -0.061559 -0.003829 0.025360
v -0.058376 -0.013559 0.028186
v -0.060847 -0.013991 0.043772
v -0.064078 -0.006931 0.051159
v -0.064452 -0.000708 0.059973
v -0.061128 0.016890 0.070531
v -0.065304 0.020012 0.058499
v -0.066315 0.022268 0.050348
v -0.062636 0.007490 0.067799
v -0.065838 0.022230 0.039220
v -0.063066 0.020594 0.028326
v -0.058966 0.007762 0.017507
v -0.057702 -0.000868 0.017600
v -0.057224 -0.009056 0.021667
v -0.052234 -0.022687 0.030845
v -0.056503 -0.020092 0.042233
v -0.058291 -0.016877 0.054190
v -0.060623 -0.010870 0.059572
v -0.060445 -0.004703 0.066745
v -0.058170 0.010225 0.075587
v -0.052000 0.011899 0.083701
v -0.056878 0.026263 0.073218
v -0.061297 0.025417 0.065877
v -0.063038 0.029102 0.056765
v -0.064021 0.029770 0.046551
v -0.058572 0.001435 0.073311
v -0.059012 0.034338 0.031619
v -0.053488 0.027034 0.014951
v -0.056063 0.018742 0.014793
v -0.053236 0.034978 0.020268
v -0.047065 0.004190 0.008096
v -0.045680 -0.007956 0.011099
v -0.041663 -0.014292 0.012162
v -0.044996 -0.018757 0.018570
v -0.045998 -0.028929 0.034137
v -0.054359 -0.022396 0.050441
v -0.056222 -0.016229 0.062324
v -0.051485 -0.023091 0.058919
v -0.056513 -0.005982 0.072677
v -0.050942 -0.000106 0.083114
v -0.046120 0.012998 0.087833
v -0.047683 0.024355 0.084606
v -0.045914 0.003993 0.087656
v -0.045530 0.035476 0.080558
v -0.056063 0.036783 0.064833
v -0.060098 0.035993 0.054825
v -0.059490 0.038005 0.047783
v -0.056269 0.041248 0.039481
v -0.046850 0.049539 0.032813
v -0.046466 0.045300 0.023877
v -0.042543 0.025953 0.007107
v -0.043817 0.017031 0.005876
v -0.047824 0.036021 0.015343
v -0.035512 0.010094 0.001809
v -0.037937 -0.001620 0.004384
v -0.035109 -0.010861 0.006883
v -0.031739 -0.021315 0.013216
v -0.034182 -0.027303 0.021247
v -0.037581 -0.033620 0.036245
v -0.039070 -0.033451 0.048277
v -0.045820 -0.029277 0.051355
v -0.049444 -0.020920 0.067136
v -0.052149 -0.014377 0.071679
v -0.041775 -0.027585 0.065485
v -0.048760 -0.008990 0.081239
v -0.044294 -0.004308 0.086275
v -0.032815 0.017436 0.092553
v -0.034135 0.007198 0.092441
v -0.035296 0.029206 0.088626
v -0.029669 0.038672 0.084867
v -0.042730 0.043918 0.074719
v -0.052271 0.044078 0.059805
v -0.053301 0.045319 0.050469
v -0.041373 0.054400 0.040134
v -0.040624 0.052463 0.030052
v -0.034463 0.044971 0.015875
v -0.031336 0.050094 0.020865
v -0.035278 0.024392 0.003591
v -0.037366 0.035852 0.009737
v -0.021561 0.001887 -0.000065
v -0.026608 0.014897 -0.000196
v -0.027703 -0.006734 0.003152
v -0.025606 -0.017244 0.008282
v -0.020391 -0.021503 0.011108
v -0.024520 -0.026720 0.016985
v -0.022095 -0.031289 0.023467
v -0.026140 -0.036901 0.038334
v -0.028883 -0.036506 0.049732
v -0.036420 -0.033301 0.057501
v -0.043667 -0.016821 0.079765
v -0.030634 -0.033160 0.063079
v -0.028106 -0.026776 0.077088
v -0.036485 -0.020957 0.080297
v -0.040680 -0.011970 0.084774
v -0.030896 -0.011650 0.088094
v -0.027272 0.000082 0.093094
v -0.024482 0.012002 0.094390
v -0.025812 0.023274 0.092730
v -0.024885 0.031095 0.090034
v -0.021149 0.036811 0.087236
v -0.025278 0.045206 0.080026
v -0.039191 0.049455 0.070289
v -0.040820 0.052388 0.062837
v -0.040193 0.055518 0.052064
v -0.024660 0.058433 0.041030
v -0.029257 0.055650 0.031451
v -0.025887 0.045742 0.014280
v -0.029042 0.036472 0.007368
v -0.021571 0.054334 0.026134
v -0.018921 0.050752 0.019652
v -0.026701 0.026902 0.002266
v -0.016046 0.007988 -0.000681
v -0.010139 -0.002804 0.001548
v -0.017189 -0.006771 0.002182
v -0.019445 0.019447 -0.000112
v -0.015700 -0.013963 0.005979
v -0.010654 -0.021503 0.012144
v -0.014371 -0.026814 0.017395
v -0.010429 -0.034306 0.029110
v -0.016964 -0.035905 0.031852
v -0.016337 -0.036910 0.051094
v -0.012320 -0.036816 0.038138
v -0.021468 -0.036384 0.057408
v -0.016955 -0.034654 0.063107
v -0.018134 -0.029897 0.073982
v -0.013799 -0.020252 0.083356
v -0.022872 -0.014076 0.087973
v -0.017236 -0.000266 0.093523
v -0.016964 0.008787 0.094605
v -0.014090 0.015885 0.094036
v -0.014801 0.026912 0.091685
v -0.014539 0.039866 0.084746
v -0.018368 0.049135 0.076062
v -0.027170 0.051702 0.071651
v -0.026486 0.055979 0.063042
v -0.026823 0.058273 0.054340
v -0.019829 0.059128 0.049489
v -0.014090 0.058555 0.042168
v -0.019473 0.056910 0.033111
v -0.017844 0.045591 0.013524
v -0.019333 0.038747 0.007863
v -0.019661 0.031593 0.003647
v -0.006525 0.052755 0.024866
v -0.002508 0.045995 0.016490
v -0.005214 0.006042 0.001119
v -0.010532 0.015377 0.000019
v 0.000413 -0.006847 0.006342
v -0.002602 -0.015354 0.009933
v -0.011487 0.024599 0.001446
v -0.002695 -0.021136 0.014522
v 0.004018 -0.023674 0.020603
v -0.003210 -0.033761 0.033521
v 0.000488 -0.030330 0.028186
v -0.006244 -0.035303 0.047829
v -0.006927 -0.033677 0.060057
v -0.004923 -0.028685 0.072154
v -0.002658 -0.014151 0.084485
v -0.012910 -0.011970 0.088533
v -0.009577 -0.000699 0.092403
v -0.008809 0.008129 0.093541
v -0.002573 0.011880 0.091545
v -0.005729 0.022766 0.091098
v -0.005186 0.032026 0.087367
v -0.003510 0.044717 0.077079
v -0.006010 0.050978 0.070401
v -0.013856 0.052585 0.070681
v -0.020765 0.054419 0.067910
v -0.018247 0.057446 0.060020
v -0.011253 0.058423 0.050553
v -0.003332 0.057145 0.044378
v -0.005176 0.056139 0.034547
v -0.000504 0.038343 0.010558
v 0.001219 0.031292 0.007042
v 0.000376 0.050931 0.026004
v 0.012866 0.040421 0.027067
v 0.011752 0.033417 0.017899
v 0.010656 0.001323 0.009392
v 0.004196 0.023471 0.005792
v 0.007641 0.011852 0.006081
v 0.011218 -0.009601 0.014569
v 0.009008 -0.018231 0.019307
v 0.006677 -0.026184 0.026787
v 0.002529 -0.032229 0.051411
v 0.004121 -0.031148 0.043212
v 0.001434 -0.031270 0.059376
v 0.004814 -0.023279 0.072313
v 0.011246 -0.016943 0.072928
v 0.004065 -0.009451 0.083599
v -0.001852 -0.002541 0.089568
v -0.001422 0.004745 0.090818
v 0.003269 0.019786 0.087656
v 0.007482 0.009379 0.086136
v 0.003765 0.033107 0.082489
v 0.010881 0.042705 0.068200
v 0.005853 0.050649 0.060533
v -0.009343 0.056045 0.061046
v 0.001883 0.054804 0.051280
v 0.001808 0.053995 0.037187
v 0.014692 0.042658 0.035629
v 0.019457 0.031151 0.027589
v 0.015937 0.026084 0.018104
v 0.017117 0.016326 0.016322
v 0.020843 0.007189 0.021303
v 0.021583 -0.001225 0.025482
v 0.018577 -0.013437 0.030845
v 0.017903 -0.018193 0.039948
v 0.010750 -0.026203 0.041524
v 0.009636 -0.027557 0.049163
v 0.007342 -0.027030 0.060421
v 0.013250 -0.022057 0.060318
v 0.019897 -0.014236 0.058462
v 0.017828 -0.006894 0.073246
v 0.007136 0.000279 0.085436
v 0.019270 0.010827 0.076864
v 0.018652 0.023151 0.074626
v 0.014972 0.032844 0.073395
v 0.018821 0.037911 0.058369
v 0.014916 0.044002 0.053332
v 0.021732 0.030493 0.062790
v 0.009720 0.048966 0.042056
v 0.018830 0.039866 0.046393
v 0.022566 0.031678 0.036581
v 0.024410 0.023725 0.032729
v 0.020965 0.022371 0.024045
v 0.023240 0.015236 0.025911
v 0.024354 0.006258 0.028205
v 0.025403 0.000063 0.034370
v 0.023633 -0.008896 0.040479
v 0.017500 -0.019707 0.047922
v 0.023755 -0.009958 0.049974
v 0.013999 -0.023289 0.053043
v 0.023839 -0.005521 0.060393
v 0.021667 0.004434 0.072900
v 0.022088 0.015800 0.072154
v 0.024813 0.020303 0.063480
v 0.023914 0.031669 0.049835
v 0.025337 0.026244 0.054461
v 0.026011 0.025295 0.043809
v 0.027294 0.017097 0.039155
v 0.025992 0.012481 0.032216
v 0.027977 0.008345 0.041599
v 0.027013 -0.000059 0.044052
v 0.026170 -0.003152 0.052381
v 0.026779 0.004068 0.058406
v 0.026704 0.011786 0.060896
v 0.027022 0.019109 0.055869
v 0.027949 0.016477 0.048594
v 0.028052 0.010545 0.053351
f 1 2 3
f 1 3 4
f 1 4 5
f 1 5 6
f 1 6 7
f 1 7 2
f 2 7 8
f 2 8 9
f 2 9 3
f 3 9 10
f 3 10 11
f 3 11 12
f 3 12 4
f 4 12 13
f 4 13 5
f 5 14 15
f 5 15 16
f 5 16 6
f 5 13 17
f 5 17 14
f 6 18 7
f 6 16 18
f 7 18 19
f 7 19 8
f 8 20 9
f 8 19 20
f 9 20 21
f 9 21 22
f 9 22 10
f 10 22 23
f 10 23 24
f 10 24 11
f 11 24 25
f 11 25 12
f 12 26 13
f 12 25 26
f 13 26 27
f 13 27 17
f 14 17 28
f 14 28 29
f 14 29 30
f 14 30 31
f 14 31 15
f 15 31 32
f 15 32 16
f 16 32 33
f 16 33 18
f 17 27 34
f 17 34 28
f 18 33 35
f 18 35 19
f 19 36 37
f 19 37 20
f 19 35 38
f 19 38 36
f 20 39 21
f 20 37 39
f 21 40 22
f 21 39 40
f 22 40 41
f 22 41 42
f 22 42 23
f 23 42 43
f 23 43 24
f 24 43 44
f 24 44 25
f 25 45 26
f 25 44 46
f 25 46 45
f 26 45 27
f 27 45 47
f 27 47 34
f 28 34 48
f 28 48 29
f 29 49 50
f 29 50 30
f 29 48 51
f 29 51 49
f 30 50 52
f 30 52 53
f 30 53 31
f 31 53 32
f 32 53 54
f 32 54 33
f 33 54 55
f 33 55 35
f 34 47 48
f 35 55 56
f 35 56 57
f 35 57 58
f 35 58 38
f 36 59 60
f 36 60 37
f 36 38 61
f 36 61 59
f 37 60 39
f 38 58 61
f 39 60 62
f 39 62 63
f 39 63 40
f 40 63 64
f 40 64 41
f 41 65 42
f 41 64 65
f 42 65 66
f 42 66 43
f 43 66 67
f 43 67 68
f 43 68 69
f 43 69 44
f 44 69 46
f 45 46 70
f 45 70 71
f 45 71 47
f 46 69 72
f 46 72 70
f 47 73 48
f 47 71 73
f 48 73 74
f 48 74 51
f 49 75 50
f 49 51 76
f 49 76 75
f 50 77 52
f 50 75 77
f 51 74 76
f 52 78 79
f 52 79 53
f 52 77 78
f 53 79 80
f 53 80 54
f 54 80 81
f 54 81 55
f 55 81 56
f 56 81 57
f 57 82 83
f 57 83 58
f 57 81 82
f 58 84 61
f 58 83 85
f 58 85 84
f 59 86 60
f 59 61 87
f 59 87 86
f 60 86 62
f 61 84 87
f 62 88 63
f 62 86 89
f 62 89 88
f 63 90 64
f 63 88 90
f 64 90 91
f 64 91 65
f 65 91 92
f 65 92 93
f 65 93 66
f 66 93 94
f 66 94 67
f 67 95 96
f 67 96 68
f 67 94 95
f 68 96 97
f 68 97 69
f 69 97 72
f 70 98 71
f 70 72 98
f 71 98 73
f 72 97 99
f 72 99 100
f 72 100 101
f 72 101 98
f 73 102 74
f 73 98 102
f 74 102 103
f 74 103 104
f 74 104 76
f 75 76 105
f 75 105 106
f 75 106 77
f 76 104 105
f 77 106 107
f 77 107 78
f 78 107 108
f 78 108 109
f 78 109 79
f 79 109 110
f 79 110 111
f 79 111 80
f 80 111 112
f 80 112 81
f 81 112 82
f 82 112 113
f 82 113 114
f 82 114 83
f 83 114 85
f 84 85 115
f 84 115 116
f 84 116 87
f 85 114 117
f 85 117 118
f 85 118 115
f 86 87 116
f 86 116 119
f 86 119 89
f 88 89 120
f 88 120 121
f 88 121 122
f 88 122 90
f 89 119 123
f 89 123 120
f 90 122 91
f 91 122 124
f 91 124 92
f 92 124 125
f 92 125 126
f 92 126 93
f 93 126 94
f 94 126 127
f 94 127 128
f 94 128 95
f 95 129 96
f 95 128 130
f 95 130 129
f 96 129 131
f 96 131 97
f 97 131 99
f 98 101 102
f 99 131 132
f 99 132 133
f 99 133 100
f 100 133 134
f 100 134 135
f 100 135 101
f 101 135 103
f 101 103 102
f 103 135 104
f 104 136 137
f 104 137 105
f 104 135 136
f 105 138 106
f 105 137 138
f 106 139 107
f 106 138 139
f 107 139 108
f 108 140 109
f 108 139 140
f 109 140 141
f 109 141 142
f 109 142 110
f 110 142 143
f 110 143 111
f 111 143 112
f 112 143 144
f 112 144 113
f 113 145 146
f 113 146 147
f 113 147 114
f 113 144 145
f 114 147 117
f 115 148 149
f 115 149 116
f 115 118 148
f 116 149 150
f 116 150 119
f 117 151 118
f 117 147 151
f 118 151 152
f 118 152 148
f 119 150 123
f 120 153 121
f 120 123 154
f 120 154 153
f 121 155 156
f 121 156 124
f 121 124 122
f 121 153 155
f 123 150 157
f 123 157 154
f 124 156 125
f 125 156 158
f 125 158 126
f 126 158 159
f 126 159 127
f 127 160 130
f 127 130 128
f 127 159 161
f 127 161 160
f 129 130 162
f 129 162 163
f 129 163 132
f 129 132 131
f 130 160 162
f 132 163 164
f 132 164 133
f 133 164 134
f 134 165 166
f 134 166 135
f 134 164 165
f 135 166 136
f 136 166 167
f 136 167 168
f 136 168 137
f 137 168 138
f 138 168 169
f 138 169 170
f 138 170 139
f 139 171 140
f 139 170 171
f 140 172 141
f 140 171 172
f 141 173 174
f 141 174 175
f 141 175 142
f 141 172 173
f 142 175 143
f 143 175 176
f 143 176 144
f 144 176 145
f 145 176 177
f 145 177 146
f 146 177 178
f 146 178 179
f 146 179 147
f 147 179 151
f 148 152 180
f 148 180 149
f 149 180 150
f 150 181 157
f 150 180 181
f 151 182 152
f 151 179 182
f 152 183 184
f 152 184 180
f 152 182 183
f 153 185 155
f 153 154 186
f 153 186 187
f 153 187 185
f 154 157 186
f 155 185 188
f 155 188 156
f 156 189 159
f 156 159 158
f 156 188 189
f 157 181 186
f 159 189 190
f 159 190 161
f 160 191 162
f 160 161 190
f 160 190 192
f 160 192 191
f 162 191 163
f 163 191 193
f 163 193 164
f 164 193 194
f 164 194 165
f 165 194 195
f 165 195 196
f 165 196 197
f 165 197 166
f 166 197 167
f 167 198 168
f 167 197 198
f 168 198 169
f 169 199 170
f 169 198 200
f 169 200 199
f 170 201 171
f 170 199 201
f 171 201 172
f 172 201 202
f 172 202 173
f 173 202 203
f 173 203 204
f 173 204 174
f 174 204 176
f 174 176 175
f 176 204 177
f 177 204 205
f 177 205 178
f 178 205 206
f 178 206 179
f 179 206 182
f 180 184 181
f 181 184 186
f 182 206 207
f 182 207 183
f 183 207 208
f 183 208 184
f 184 208 209
f 184 209 186
f 185 187 210
f 185 210 211
f 185 211 212
f 185 212 188
f 186 209 210
f 186 210 187
f 188 212 213
f 188 213 189
f 189 213 190
f 190 213 214
f 190 214 215
f 190 215 192
f 191 192 216
f 191 216 217
f 191 217 193
f 192 215 216
f 193 217 194
f 194 218 195
f 194 217 218
f 195 219 220
f 195 220 196
f 195 218 219
f 196 220 221
f 196 221 197
f 197 221 198
f 198 221 200
f 199 200 222
f 199 222 223
f 199 223 201
f 200 221 222
f 201 223 224
f 201 224 202
f 202 225 226
f 202 226 203
f 202 224 227
f 202 227 225
f 203 205 204
f 203 226 205
f 205 228 206
f 205 226 228
f 206 228 207
f 207 229 230
f 207 230 208
f 207 228 229
f 208 230 231
f 208 231 232
f 208 232 209
f 209 232 210
f 210 233 211
f 210 232 233
f 211 234 212
f 211 233 234
f 212 234 235
f 212 235 213
f 213 235 236
f 213 236 214
f 214 237 215
f 214 236 238
f 214 238 237
f 215 237 216
f 216 237 239
f 216 239 217
f 217 239 218
f 218 239 219
f 219 239 237
f 219 237 238
f 219 238 240
f 219 240 220
f 220 240 241
f 220 241 221
f 221 241 222
f 222 242 223
f 222 241 242
f 223 227 224
f 223 242 243
f 223 243 227
f 225 229 226
f 225 227 244
f 225 244 229
f 226 229 228
f 227 243 245
f 227 245 244
f 229 244 230
f 230 244 246
f 230 246 231
f 231 246 247
f 231 247 248
f 231 248 233
f 231 233 232
f 233 248 234
f 234 248 235
f 235 248 249
f 235 249 250
f 235 250 236
f 236 250 238
f 238 250 251
f 238 251 240
f 240 251 252
f 240 252 241
f 241 252 253
f 241 253 242
f 242 253 243
f 243 253 254
f 243 254 245
f 244 245 246
f 245 254 246
f 246 255 247
f 246 254 255
f 247 255 249
f 247 249 248
f 249 255 256
f 249 256 250
f 250 256 251
f 251 256 252
f 252 256 253
f 253 256 254
f 254 256 255
