v -0.012892 0.029536 0.228715
v -0.012892 0.027880 0.241356
v -0.011793 0.026750 0.250139
v -0.011590 0.026750 0.250139
v -0.011039 0.029458 0.228715
v -0.013465 0.029487 0.228715
v -0.015397 0.029317 0.228715
v -0.015397 0.027647 0.241356
v -0.012732 0.025698 0.250639
v -0.017913 0.027057 0.241260
v -0.019711 0.024550 0.250420
v -0.017902 0.024910 0.250654
v -0.015397 0.025249 0.250752
v -0.010608 0.025624 0.250639
v -0.007885 0.024995 0.250701
v -0.005873 0.024607 0.250469
v -0.006363 0.026863 0.240649
v -0.007769 0.027149 0.241434
v -0.010390 0.027749 0.241356
v -0.010390 0.029427 0.228715
v -0.017873 0.028780 0.228715
v -0.012892 0.022983 0.251372
v -0.010390 0.022983 0.251379
v -0.017927 0.028766 0.228715
v -0.019265 0.026792 0.240359
v -0.024790 0.022230 0.248873
v -0.024460 0.021990 0.250356
v -0.022916 0.022382 0.250572
v -0.017902 0.022983 0.251252
v -0.015397 0.022983 0.251359
v -0.007885 0.022983 0.251328
v -0.005173 0.023198 0.250833
v -0.002871 0.022372 0.250494
v -0.001544 0.021807 0.250200
v -0.003183 0.024886 0.241356
v -0.005467 0.026192 0.241434
v -0.003176 0.027096 0.228715
v -0.005242 0.028099 0.228715
v -0.007530 0.028886 0.228715
v -0.007686 0.028939 0.228715
v -0.009292 0.029257 0.228715
v -0.015397 0.000434 0.251479
v -0.010390 0.000434 0.251488
v -0.005376 0.010458 0.251446
v -0.005376 0.020479 0.251381
v -0.020552 0.027763 0.228715
v -0.021223 0.027410 0.228715
v -0.022735 0.026538 0.228715
v -0.025120 0.022365 0.246367
v -0.026374 0.021330 0.246367
v -0.026044 0.020807 0.248873
v -0.023184 0.026252 0.228715
v -0.026690 0.019257 0.250146
v -0.025345 0.020246 0.250487
v -0.022916 0.020479 0.251120
v -0.020407 0.020479 0.251270
v -0.022916 0.015465 0.251281
v -0.022916 0.012962 0.251314
v -0.020407 0.012962 0.251357
v -0.020407 0.002941 0.251412
v -0.017902 0.002941 0.251439
v -0.002871 0.020479 0.251114
v -0.001084 0.020479 0.250487
v 0.001080 0.017209 0.250338
v 0.001363 0.020009 0.241356
v 0.003147 0.021076 0.228715
v 0.001972 0.022725 0.228715
v 0.001907 0.022810 0.228715
v 0.000779 0.024095 0.228715
v -0.001932 0.023957 0.241356
v -0.003082 0.027040 0.228715
v -0.002085 0.026422 0.228715
v -0.017902 0.000434 0.251415
v -0.012892 -0.002070 0.250931
v -0.007885 0.000434 0.251450
v -0.005376 0.002941 0.251457
v -0.007885 0.002941 0.251473
v -0.005376 0.007951 0.251452
v -0.002871 0.010458 0.251419
v -0.002871 0.012962 0.251410
v -0.002871 0.015465 0.251397
v -0.002871 0.017972 0.251377
v -0.024917 0.024896 0.228715
v -0.027172 0.020077 0.246367
v -0.026846 0.019554 0.248873
v -0.026168 0.023675 0.228715
v -0.027255 0.022425 0.228715
v -0.028513 0.020638 0.228715
v -0.028154 0.017972 0.246367
v -0.027484 0.017972 0.248873
v -0.028230 0.015465 0.248873
v -0.026925 0.017972 0.250340
v -0.025421 0.017972 0.250880
v -0.022916 0.017972 0.251238
v -0.025421 0.015465 0.251138
v -0.025421 0.012962 0.251214
v -0.022916 0.010458 0.251323
v -0.025421 0.010458 0.251227
v -0.023137 0.002725 0.250853
v -0.020588 0.000246 0.250871
v -0.025421 0.007951 0.251223
v -0.025599 0.005275 0.250784
v -0.000366 0.015465 0.251176
v -0.000232 0.018018 0.250748
v 0.001320 0.015465 0.250547
v 0.003524 0.014766 0.240738
v 0.005376 0.015906 0.228715
v 0.004771 0.017983 0.228715
v 0.003770 0.020034 0.228715
v 0.003516 0.020479 0.228715
v -0.000558 0.025260 0.228715
v -0.000613 0.025306 0.228715
v -0.000678 0.025359 0.228715
v -0.017902 -0.001657 0.250748
v -0.015306 -0.002236 0.250708
v -0.014407 -0.003369 0.250186
v -0.012892 -0.003412 0.250246
v -0.011162 -0.003398 0.250226
v -0.010354 -0.002268 0.250735
v -0.007885 -0.001717 0.250773
v -0.005376 0.000434 0.251134
v -0.002871 0.002941 0.251178
v -0.002871 0.005448 0.251412
v -0.002871 0.007951 0.251423
v -0.000366 0.012962 0.251299
v -0.028644 0.020412 0.228715
v -0.029731 0.018187 0.228715
v -0.029887 0.017859 0.228715
v -0.029333 0.014851 0.245596
v -0.028898 0.015599 0.246407
v -0.028655 0.012962 0.248873
v -0.027295 0.015465 0.250579
v -0.027516 0.012962 0.250634
v -0.027534 0.010458 0.250648
v -0.022448 0.000956 0.250547
v -0.024881 0.003417 0.250494
v -0.019874 -0.001240 0.250501
v -0.027379 0.007951 0.250645
v -0.027081 0.005995 0.250467
v 0.001515 0.012962 0.250668
v 0.003429 0.012093 0.242653
v 0.003618 0.012940 0.241487
v 0.003317 0.013763 0.242410
v 0.005866 0.012962 0.228715
v 0.005489 0.015465 0.228715
v -0.012892 -0.004842 0.241356
v -0.019174 -0.003330 0.242620
v -0.017902 -0.004008 0.241356
v -0.015397 -0.004619 0.241356
v -0.010390 -0.004693 0.241356
v -0.007885 -0.004160 0.241356
v -0.006123 -0.003560 0.241356
v -0.004068 -0.000859 0.250175
v -0.005376 -0.001187 0.250467
v -0.003089 0.000610 0.250487
v -0.001505 0.001560 0.250240
v -0.001059 0.002941 0.250521
v -0.000236 0.005395 0.250766
v -0.000366 0.007951 0.251196
v -0.000366 0.010458 0.251301
v 0.001519 0.010458 0.250670
v -0.030649 0.015359 0.228715
v -0.030685 0.015236 0.228715
v -0.031076 0.012962 0.228715
v -0.029463 0.012962 0.246013
v -0.028731 0.010458 0.248873
v -0.026548 0.004325 0.249424
v -0.023829 -0.000502 0.241356
v -0.022575 -0.001505 0.241356
v -0.020686 -0.002758 0.241356
v -0.019435 -0.003461 0.241356
v -0.028448 0.007951 0.248873
v -0.027306 0.005275 0.248701
v 0.003429 0.011231 0.242653
v 0.003629 0.010419 0.241534
v 0.005884 0.010458 0.228715
v 0.005877 0.011697 0.228715
v -0.012993 -0.006530 0.228715
v -0.012892 -0.006537 0.228715
v -0.010416 -0.006417 0.228715
v -0.015328 -0.006360 0.228715
v -0.018380 -0.005650 0.228715
v -0.017902 -0.005788 0.228715
v -0.017293 -0.005936 0.228715
v -0.015578 -0.006307 0.228715
v -0.007885 -0.005908 0.228715
v -0.005554 -0.005089 0.228715
v -0.005489 -0.005064 0.228715
v -0.003002 -0.003828 0.228715
v -0.004873 -0.002910 0.241356
v -0.002752 -0.001530 0.241262
v -0.001548 -0.000883 0.240366
v 0.000656 0.002008 0.241356
v 0.001428 0.003262 0.241356
v 0.001109 0.006196 0.250353
v 0.001349 0.007951 0.250561
v 0.003342 0.009561 0.242486
v -0.031091 0.012495 0.228715
v -0.031153 0.010458 0.228715
v -0.029467 0.010458 0.246162
v -0.028829 0.002739 0.228715
v -0.027310 0.000554 0.228715
v -0.026425 -0.000527 0.228715
v -0.025352 -0.001558 0.228715
v -0.023724 -0.002910 0.228715
v -0.022397 -0.003804 0.228715
v -0.023590 -0.003009 0.228715
v -0.020193 -0.004926 0.228715
v -0.020095 -0.004969 0.228715
v -0.029336 0.008502 0.245797
v -0.029014 0.007782 0.246526
v 0.003542 0.008488 0.240816
v 0.005663 0.008954 0.228715
v -0.002980 -0.003814 0.228715
v -0.000544 -0.002038 0.228715
v -0.000486 -0.001996 0.228715
v 0.001932 0.000518 0.228715
v 0.001997 0.000592 0.228715
v 0.003582 0.002941 0.228715
v 0.004735 0.005366 0.228715
v 0.002458 0.005448 0.241356
v 0.004785 0.005511 0.228715
v -0.031127 0.010133 0.228715
v -0.029398 0.003852 0.228715
v -0.030848 0.008117 0.228715
v -0.030833 0.008032 0.228715
v -0.030090 0.005465 0.228715
v -0.029992 0.005222 0.228715
v 0.005503 0.007951 0.228715
f 1 2 3
f 1 3 4
f 1 4 5
f 1 5 20
f 1 20 41
f 1 41 40
f 1 40 39
f 1 39 38
f 1 38 37
f 1 37 71
f 1 71 72
f 1 72 113
f 1 113 112
f 1 112 111
f 1 111 69
f 1 69 68
f 1 68 67
f 1 67 66
f 1 66 110
f 1 110 109
f 1 109 108
f 1 108 107
f 1 107 145
f 1 145 144
f 1 144 177
f 1 177 176
f 1 176 213
f 1 213 229
f 1 229 222
f 1 222 220
f 1 220 219
f 1 219 218
f 1 218 217
f 1 217 216
f 1 216 215
f 1 215 214
f 1 214 189
f 1 189 188
f 1 188 187
f 1 187 186
f 1 186 180
f 1 180 179
f 1 179 178
f 1 178 181
f 1 181 185
f 1 185 184
f 1 184 183
f 1 183 182
f 1 182 209
f 1 209 208
f 1 208 206
f 1 206 207
f 1 207 205
f 1 205 204
f 1 204 203
f 1 203 202
f 1 202 201
f 1 201 224
f 1 224 228
f 1 228 227
f 1 227 226
f 1 226 225
f 1 225 223
f 1 223 199
f 1 199 198
f 1 198 164
f 1 164 163
f 1 163 162
f 1 162 128
f 1 128 127
f 1 127 126
f 1 126 88
f 1 88 87
f 1 87 86
f 1 86 83
f 1 83 52
f 1 52 48
f 1 48 47
f 1 47 46
f 1 46 24
f 1 24 21
f 1 21 7
f 1 7 6
f 1 6 2
f 2 6 7
f 2 7 8
f 2 8 3
f 3 9 4
f 3 8 10
f 3 10 11
f 3 11 12
f 3 12 13
f 3 13 9
f 4 9 14
f 4 14 15
f 4 15 16
f 4 16 17
f 4 17 18
f 4 18 19
f 4 19 20
f 4 20 5
f 7 21 8
f 8 21 10
f 9 22 23
f 9 23 14
f 9 13 22
f 10 24 25
f 10 25 11
f 10 21 24
f 11 25 26
f 11 26 27
f 11 27 28
f 11 28 12
f 12 28 29
f 12 29 13
f 13 29 30
f 13 30 22
f 14 23 31
f 14 31 15
f 15 31 32
f 15 32 16
f 16 32 33
f 16 33 34
f 16 34 35
f 16 35 36
f 16 36 17
f 17 36 35
f 17 35 37
f 17 37 38
f 17 38 39
f 17 39 40
f 17 40 18
f 18 40 19
f 19 41 20
f 19 40 41
f 22 30 42
f 22 42 23
f 23 42 43
f 23 43 44
f 23 44 45
f 23 45 31
f 24 46 25
f 25 46 47
f 25 47 48
f 25 48 26
f 26 49 50
f 26 50 51
f 26 51 27
f 26 48 52
f 26 52 49
f 27 51 53
f 27 53 54
f 27 54 55
f 27 55 28
f 28 55 29
f 29 55 56
f 29 56 30
f 30 56 57
f 30 57 58
f 30 58 59
f 30 59 60
f 30 60 61
f 30 61 42
f 31 45 62
f 31 62 32
f 32 62 33
f 33 62 63
f 33 63 34
f 34 63 64
f 34 64 65
f 34 65 66
f 34 66 67
f 34 67 68
f 34 68 69
f 34 69 70
f 34 70 35
f 35 71 37
f 35 70 72
f 35 72 71
f 42 61 60
f 42 60 73
f 42 73 74
f 42 74 43
f 43 75 76
f 43 76 77
f 43 77 78
f 43 78 44
f 43 74 75
f 44 78 79
f 44 79 80
f 44 80 81
f 44 81 45
f 45 81 82
f 45 82 62
f 49 83 50
f 49 52 83
f 50 84 85
f 50 85 51
f 50 83 86
f 50 86 87
f 50 87 88
f 50 88 84
f 51 85 53
f 53 85 89
f 53 89 90
f 53 90 91
f 53 91 92
f 53 92 54
f 54 93 55
f 54 92 93
f 55 94 56
f 55 93 95
f 55 95 94
f 56 94 57
f 57 94 96
f 57 96 58
f 58 97 60
f 58 60 59
f 58 96 98
f 58 98 97
f 60 99 100
f 60 100 73
f 60 97 98
f 60 98 101
f 60 101 102
f 60 102 99
f 62 82 103
f 62 103 104
f 62 104 63
f 63 104 64
f 64 104 105
f 64 105 106
f 64 106 107
f 64 107 108
f 64 108 109
f 64 109 65
f 65 109 110
f 65 110 66
f 69 111 70
f 70 111 112
f 70 112 113
f 70 113 72
f 73 114 74
f 73 100 114
f 74 114 115
f 74 115 116
f 74 116 117
f 74 117 118
f 74 118 119
f 74 119 75
f 75 119 120
f 75 120 121
f 75 121 122
f 75 122 76
f 76 122 123
f 76 123 124
f 76 124 78
f 76 78 77
f 78 124 79
f 79 124 125
f 79 125 80
f 80 125 81
f 81 125 82
f 82 125 103
f 84 88 126
f 84 126 127
f 84 127 128
f 84 128 89
f 84 89 85
f 89 128 129
f 89 129 130
f 89 130 90
f 90 130 91
f 91 130 129
f 91 129 131
f 91 131 132
f 91 132 92
f 92 132 93
f 93 132 95
f 94 95 96
f 95 132 133
f 95 133 96
f 96 133 134
f 96 134 98
f 98 134 101
f 99 135 100
f 99 102 136
f 99 136 135
f 100 135 137
f 100 137 114
f 101 134 138
f 101 138 139
f 101 139 102
f 102 139 136
f 103 125 140
f 103 140 105
f 103 105 104
f 105 140 141
f 105 141 142
f 105 142 143
f 105 143 106
f 106 143 142
f 106 142 144
f 106 144 145
f 106 145 107
f 114 116 115
f 114 137 116
f 116 146 117
f 116 137 147
f 116 147 148
f 116 148 149
f 116 149 146
f 117 146 118
f 118 150 151
f 118 151 152
f 118 152 153
f 118 153 154
f 118 154 120
f 118 120 119
f 118 146 150
f 120 154 121
f 121 154 155
f 121 155 122
f 122 155 156
f 122 156 157
f 122 157 158
f 122 158 159
f 122 159 123
f 123 159 160
f 123 160 124
f 124 160 125
f 125 160 161
f 125 161 140
f 128 162 129
f 129 162 163
f 129 163 164
f 129 164 165
f 129 165 131
f 131 166 133
f 131 133 132
f 131 165 166
f 133 166 134
f 134 166 138
f 135 136 167
f 135 167 168
f 135 168 137
f 136 139 167
f 137 168 169
f 137 169 170
f 137 170 171
f 137 171 147
f 138 166 172
f 138 172 139
f 139 172 173
f 139 173 167
f 140 161 141
f 141 174 175
f 141 175 176
f 141 176 177
f 141 177 144
f 141 144 142
f 141 161 174
f 146 178 179
f 146 179 180
f 146 180 150
f 146 149 181
f 146 181 178
f 147 171 148
f 148 171 182
f 148 182 183
f 148 183 149
f 149 183 184
f 149 184 185
f 149 185 181
f 150 180 186
f 150 186 151
f 151 186 152
f 152 187 188
f 152 188 189
f 152 189 190
f 152 190 153
f 152 186 187
f 153 190 191
f 153 191 192
f 153 192 156
f 153 156 155
f 153 155 154
f 156 192 193
f 156 193 194
f 156 194 195
f 156 195 157
f 157 195 158
f 158 195 196
f 158 196 159
f 159 196 161
f 159 161 160
f 161 197 175
f 161 175 174
f 161 196 197
f 164 198 165
f 165 198 199
f 165 199 200
f 165 200 166
f 166 200 172
f 167 173 201
f 167 201 202
f 167 202 203
f 167 203 168
f 168 203 204
f 168 204 205
f 168 205 169
f 169 206 170
f 169 205 207
f 169 207 206
f 170 206 171
f 171 206 208
f 171 208 209
f 171 209 182
f 172 200 210
f 172 210 211
f 172 211 173
f 173 211 201
f 175 197 212
f 175 212 176
f 176 212 213
f 189 214 190
f 190 214 191
f 191 214 192
f 192 215 216
f 192 216 217
f 192 217 218
f 192 218 193
f 192 214 215
f 193 218 219
f 193 219 194
f 194 219 220
f 194 220 221
f 194 221 195
f 195 221 220
f 195 220 222
f 195 222 212
f 195 212 196
f 196 212 197
f 199 223 200
f 200 223 210
f 201 211 224
f 210 223 225
f 210 225 226
f 210 226 227
f 210 227 211
f 211 227 228
f 211 228 224
f 212 222 229
f 212 229 213
