v -0.050276 0.008619 0.169968
v -0.050206 0.014214 0.169968
v -0.049791 0.003952 0.169968
v -0.048977 0.011708 0.211281
v -0.049861 0.017964 0.169968
v -0.048867 -0.000381 0.169968
v -0.048382 0.006702 0.211281
v -0.047200 0.006752 0.214680
v -0.047654 0.011708 0.214576
v -0.047325 0.015819 0.214461
v -0.048327 0.016714 0.211281
v -0.049047 0.022336 0.169968
v -0.047036 -0.005309 0.169968
v -0.046590 0.002213 0.212443
v -0.044828 0.001591 0.215220
v -0.029573 0.004319 0.228709
v -0.030982 0.009191 0.228709
v -0.030865 0.014008 0.228709
v -0.045822 0.019847 0.214754
v -0.046292 0.021914 0.211281
v -0.047826 0.026514 0.169968
v -0.043169 -0.010515 0.169968
v -0.043341 -0.003109 0.211281
v -0.042433 -0.002065 0.215634
v -0.026098 -0.000770 0.228709
v -0.029190 0.019269 0.228709
v -0.043412 0.024625 0.214772
v -0.043584 0.025975 0.211281
v -0.046034 0.030298 0.169968
v -0.037596 -0.013376 0.170434
v -0.036492 -0.008715 0.213961
v -0.040304 -0.005331 0.214777
v -0.027922 -0.013970 0.169968
v -0.032140 -0.014159 0.170279
v -0.037839 -0.004915 0.217463
v -0.034731 -0.008554 0.216847
v -0.023022 -0.003381 0.228709
v -0.025808 0.023970 0.228709
v -0.037393 0.028742 0.217325
v -0.040484 0.028631 0.214323
v -0.041846 0.034859 0.169968
v -0.032931 -0.014493 0.173711
v -0.026567 -0.012993 0.214369
v -0.031428 -0.011081 0.215122
v -0.016173 -0.013359 0.169968
v -0.018834 -0.016154 0.177437
v -0.023977 -0.015915 0.177437
v -0.029174 -0.015148 0.174959
v -0.028336 -0.011743 0.217135
v -0.024885 -0.011337 0.219538
v -0.018928 -0.005387 0.228709
v -0.021918 0.026986 0.228709
v -0.033275 0.031959 0.217715
v -0.034395 0.032970 0.214467
v -0.036618 0.037126 0.170589
v -0.031679 0.037620 0.170279
v -0.026693 0.037314 0.169968
v -0.021652 -0.014076 0.213788
v -0.021057 -0.013187 0.218549
v -0.009755 -0.012987 0.169968
v -0.012885 -0.016276 0.179139
v -0.010373 -0.016698 0.181226
v -0.014138 -0.016737 0.182480
v -0.021816 -0.015876 0.185366
v -0.019147 -0.016348 0.182480
v -0.016439 -0.013576 0.219440
v -0.014130 -0.006442 0.228709
v -0.024298 0.035048 0.219038
v -0.017887 0.028770 0.228709
v -0.029424 0.034998 0.215232
v -0.032931 0.037920 0.173711
v -0.029174 0.038520 0.174959
v -0.024399 0.039226 0.177023
v -0.022904 0.039114 0.175672
v -0.012267 0.036253 0.169968
v -0.017895 -0.015509 0.198764
v -0.017895 -0.014443 0.215042
v -0.005379 -0.012648 0.169968
v -0.000378 -0.012193 0.169968
v 0.003074 -0.011843 0.169968
v 0.007144 -0.011409 0.169968
v -0.004753 -0.016476 0.182704
v -0.000378 -0.016548 0.186235
v -0.004135 -0.016732 0.186235
v -0.009136 -0.016837 0.184981
v -0.012885 -0.016326 0.191249
v -0.015766 -0.015943 0.194762
v -0.016893 -0.016132 0.189955
v -0.014138 -0.014482 0.216290
v -0.012885 -0.013732 0.219509
v -0.010404 -0.006415 0.228709
v -0.020587 0.036592 0.218095
v -0.014279 0.029409 0.228709
v -0.021793 0.037142 0.214369
v -0.021362 0.039376 0.182359
v -0.016643 0.039676 0.184354
v -0.016838 0.039703 0.179800
v -0.010999 0.039676 0.180617
v -0.006632 0.035798 0.169968
v -0.013566 -0.015843 0.198045
v 0.010823 -0.010959 0.169968
v 0.003450 -0.015998 0.186315
v -0.009136 -0.014215 0.216290
v -0.012885 -0.015254 0.206267
v -0.009144 -0.013565 0.219659
v -0.003720 -0.010954 0.222126
v -0.006702 -0.005487 0.228709
v -0.017269 0.036964 0.218308
v -0.011625 0.036898 0.219256
v -0.008808 0.029125 0.228709
v -0.006632 0.035237 0.221177
v -0.014138 0.037614 0.216290
v -0.016549 0.039364 0.189524
v -0.012885 0.039920 0.183733
v -0.009136 0.039892 0.184981
v -0.004009 0.039637 0.184757
v 0.012772 0.033314 0.169968
v 0.009086 0.033881 0.169968
v 0.005383 0.034392 0.169968
v 0.002127 0.034814 0.169968
v -0.001317 0.035237 0.169968
v 0.015911 -0.010048 0.169968
v 0.008397 -0.014948 0.187799
v -0.003994 -0.013076 0.218302
v 0.000053 -0.011470 0.219820
v 0.005454 -0.008120 0.221545
v -0.001763 -0.002915 0.228709
v -0.003328 0.036120 0.217543
v -0.008894 0.037192 0.216842
v -0.005317 0.028120 0.228709
v -0.001544 0.034225 0.221079
v -0.006452 0.039281 0.192634
v -0.007884 0.039537 0.189995
v -0.010373 0.039392 0.192226
v -0.010373 0.039648 0.188742
v -0.013293 0.039359 0.192266
v -0.012885 0.039603 0.188742
v 0.000037 0.039353 0.186183
v 0.016498 0.032503 0.169968
v 0.005892 0.038381 0.186235
v 0.013218 -0.013632 0.189748
v 0.020177 -0.008420 0.169968
v -0.000378 -0.012537 0.216290
v 0.005814 -0.010065 0.216859
v 0.010463 -0.006809 0.218181
v 0.008874 -0.005759 0.221804
v 0.001955 0.000558 0.228709
v 0.001047 0.035025 0.216738
v 0.013297 0.036353 0.189702
v 0.008397 0.037903 0.188742
v 0.003379 0.038770 0.188742
v -0.001614 0.026025 0.228709
v 0.002628 0.031675 0.222465
v 0.006135 0.032203 0.219228
v 0.020357 0.030870 0.169968
v 0.018838 -0.011009 0.190789
v 0.023652 -0.005387 0.169968
v 0.023049 -0.007954 0.189995
v 0.010870 -0.008309 0.213742
v 0.013250 -0.008231 0.209746
v 0.018447 -0.008348 0.200052
v 0.015778 -0.005692 0.211017
v 0.014948 -0.004226 0.215433
v 0.012498 -0.003115 0.221142
v 0.013923 0.000891 0.222827
v 0.004162 0.004191 0.228709
v 0.018259 0.034175 0.190806
v 0.001352 0.023431 0.228709
v 0.011442 0.026631 0.221873
v 0.008318 0.029403 0.221528
v 0.011817 0.028514 0.218865
v 0.008945 0.031420 0.216888
v 0.023041 0.030753 0.189995
v 0.023268 0.028492 0.169968
v 0.022752 -0.007031 0.194273
v 0.026376 -0.001048 0.169968
v 0.025820 -0.004392 0.189995
v 0.018306 -0.005709 0.206055
v 0.018259 -0.003103 0.210954
v 0.018705 -0.000642 0.213673
v 0.016067 0.000591 0.220251
v 0.016193 0.004663 0.222752
v 0.005728 0.009458 0.228709
v 0.021413 0.030903 0.194497
v 0.003395 0.020664 0.228709
v 0.013813 0.024142 0.221746
v 0.016161 0.023997 0.218607
v 0.015966 0.026781 0.214421
v 0.013414 0.029236 0.214363
v 0.016044 0.029348 0.209039
v 0.023495 0.026797 0.198304
v 0.026219 0.026425 0.190852
v 0.025718 0.025114 0.169968
v 0.026579 -0.002420 0.192519
v 0.023863 -0.004137 0.197119
v 0.020897 -0.005787 0.200667
v 0.027722 0.002941 0.169968
v 0.027980 0.001397 0.193089
v 0.020936 -0.003331 0.205037
v 0.018283 0.001052 0.216698
v 0.021116 -0.000553 0.208539
v 0.018940 0.006586 0.219981
v 0.017296 0.007958 0.222528
v 0.005861 0.012958 0.228709
v 0.021038 0.029348 0.198999
v 0.018463 0.029270 0.204376
v 0.005094 0.016830 0.228709
v 0.016138 0.020081 0.221924
v 0.018384 0.019164 0.219337
v 0.018283 0.022331 0.216330
v 0.018619 0.023964 0.213547
v 0.018549 0.026875 0.209050
v 0.020999 0.026814 0.203921
v 0.020826 0.024042 0.208562
v 0.023566 0.024447 0.201581
v 0.026595 0.023570 0.194980
v 0.028395 0.021681 0.191093
v 0.027010 0.022031 0.169968
v 0.026172 -0.000698 0.196194
v 0.023339 -0.001920 0.201587
v 0.028434 0.007186 0.169968
v 0.029413 0.007330 0.192502
v 0.027973 0.004141 0.195670
v 0.025953 0.001752 0.199339
v 0.020983 0.001913 0.211724
v 0.021546 0.007325 0.214772
v 0.020701 0.011708 0.217796
v 0.018267 0.011708 0.221850
v 0.017500 0.015464 0.222183
v 0.020404 0.015464 0.217566
v 0.021437 0.016680 0.214386
v 0.020725 0.020981 0.212431
v 0.025851 0.021519 0.199206
v 0.027863 0.019786 0.195239
v 0.029397 0.016092 0.192502
v 0.028215 0.017092 0.169968
v 0.024122 0.002508 0.204847
v 0.028661 0.011703 0.169968
v 0.029687 0.011708 0.192502
v 0.028145 0.007958 0.197620
v 0.027292 0.005452 0.198764
v 0.023926 0.004941 0.207446
v 0.023589 0.007308 0.209867
v 0.022415 0.011708 0.213788
v 0.024990 0.015464 0.206267
v 0.022924 0.016780 0.210689
v 0.023378 0.019792 0.207141
v 0.027143 0.017964 0.198764
v 0.028074 0.015464 0.197556
v 0.028294 0.011708 0.197775
v 0.027151 0.011708 0.201259
v 0.025562 0.007958 0.205094
v 0.026439 0.006680 0.201897
v 0.023926 0.011708 0.210028
v 0.025734 0.011708 0.205250
v 0.026180 0.016003 0.202737
f 1 2 5
f 1 5 12
f 1 12 21
f 1 21 29
f 1 29 41
f 1 41 57
f 1 57 75
f 1 75 99
f 1 99 121
f 1 121 120
f 1 120 119
f 1 119 118
f 1 118 117
f 1 117 139
f 1 139 155
f 1 155 174
f 1 174 193
f 1 193 218
f 1 218 236
f 1 236 238
f 1 238 221
f 1 221 197
f 1 197 176
f 1 176 157
f 1 157 142
f 1 142 122
f 1 122 101
f 1 101 81
f 1 81 80
f 1 80 79
f 1 79 78
f 1 78 60
f 1 60 45
f 1 45 33
f 1 33 22
f 1 22 13
f 1 13 6
f 1 6 3
f 1 3 4
f 1 4 2
f 2 4 5
f 3 6 7
f 3 7 4
f 4 7 8
f 4 8 9
f 4 9 10
f 4 10 11
f 4 11 5
f 5 11 12
f 6 13 7
f 7 13 14
f 7 14 8
f 8 14 15
f 8 15 16
f 8 16 17
f 8 17 9
f 9 17 18
f 9 18 10
f 10 19 11
f 10 18 19
f 11 19 20
f 11 20 21
f 11 21 12
f 13 22 23
f 13 23 14
f 14 23 24
f 14 24 15
f 15 24 16
f 16 25 37
f 16 37 51
f 16 51 67
f 16 67 91
f 16 91 107
f 16 107 127
f 16 127 147
f 16 147 166
f 16 166 183
f 16 183 204
f 16 204 207
f 16 207 185
f 16 185 168
f 16 168 152
f 16 152 130
f 16 130 110
f 16 110 93
f 16 93 69
f 16 69 52
f 16 52 38
f 16 38 26
f 16 26 18
f 16 18 17
f 16 24 25
f 18 26 19
f 19 27 20
f 19 26 27
f 20 27 28
f 20 28 29
f 20 29 21
f 22 30 31
f 22 31 32
f 22 32 23
f 22 33 34
f 22 34 30
f 23 32 24
f 24 32 35
f 24 35 25
f 25 35 36
f 25 36 37
f 26 38 39
f 26 39 27
f 27 39 40
f 27 40 28
f 28 40 41
f 28 41 29
f 30 34 42
f 30 42 43
f 30 43 44
f 30 44 31
f 31 44 36
f 31 36 32
f 32 36 35
f 33 45 46
f 33 46 34
f 34 46 47
f 34 47 48
f 34 48 42
f 36 44 49
f 36 49 50
f 36 50 37
f 37 50 51
f 38 52 53
f 38 53 39
f 39 53 40
f 40 53 54
f 40 54 41
f 41 54 55
f 41 55 56
f 41 56 57
f 42 48 58
f 42 58 43
f 43 58 59
f 43 59 49
f 43 49 44
f 45 60 46
f 46 60 61
f 46 61 62
f 46 62 63
f 46 63 47
f 47 64 48
f 47 63 65
f 47 65 64
f 48 64 58
f 49 59 50
f 50 59 51
f 51 59 66
f 51 66 67
f 52 68 53
f 52 69 68
f 53 68 70
f 53 70 54
f 54 70 55
f 55 70 71
f 55 71 72
f 55 72 56
f 56 72 73
f 56 73 74
f 56 74 57
f 57 74 75
f 58 64 76
f 58 76 77
f 58 77 59
f 59 77 66
f 60 78 61
f 61 78 79
f 61 79 62
f 62 79 80
f 62 80 81
f 62 81 82
f 62 82 83
f 62 83 84
f 62 84 85
f 62 85 63
f 63 86 87
f 63 87 88
f 63 88 65
f 63 85 86
f 64 65 76
f 65 88 76
f 66 77 89
f 66 89 90
f 66 90 67
f 67 90 91
f 68 69 92
f 68 92 70
f 69 93 92
f 70 92 94
f 70 94 71
f 71 94 72
f 72 94 73
f 73 94 95
f 73 95 96
f 73 96 97
f 73 97 74
f 74 97 98
f 74 98 99
f 74 99 75
f 76 88 87
f 76 87 77
f 77 87 100
f 77 100 89
f 81 101 82
f 82 101 102
f 82 102 83
f 83 103 89
f 83 89 84
f 83 102 103
f 84 89 104
f 84 104 85
f 85 104 100
f 85 100 86
f 86 100 87
f 89 100 104
f 89 103 105
f 89 105 90
f 90 105 91
f 91 105 106
f 91 106 107
f 92 93 108
f 92 108 94
f 93 109 108
f 93 110 111
f 93 111 109
f 94 108 112
f 94 112 113
f 94 113 95
f 95 113 96
f 96 113 114
f 96 114 97
f 97 114 98
f 98 114 115
f 98 115 116
f 98 116 117
f 98 117 118
f 98 118 119
f 98 119 120
f 98 120 121
f 98 121 99
f 101 122 102
f 102 122 123
f 102 123 124
f 102 124 103
f 103 124 105
f 105 124 125
f 105 125 106
f 106 125 126
f 106 126 107
f 107 126 127
f 108 109 112
f 109 111 128
f 109 128 129
f 109 129 112
f 110 130 131
f 110 131 111
f 111 131 128
f 112 129 132
f 112 132 133
f 112 133 134
f 112 134 135
f 112 135 136
f 112 136 113
f 113 136 137
f 113 137 114
f 114 137 135
f 114 135 115
f 115 135 133
f 115 133 138
f 115 138 116
f 116 138 117
f 117 138 140
f 117 140 139
f 122 141 123
f 122 142 141
f 123 141 124
f 124 143 125
f 124 141 143
f 125 144 126
f 125 143 144
f 126 144 145
f 126 145 146
f 126 146 127
f 127 146 147
f 128 131 148
f 128 148 149
f 128 149 150
f 128 150 129
f 129 150 151
f 129 151 138
f 129 138 132
f 130 152 153
f 130 153 131
f 131 153 154
f 131 154 148
f 132 138 133
f 133 135 134
f 135 137 136
f 138 151 140
f 139 140 150
f 139 150 149
f 139 149 155
f 140 151 150
f 141 142 156
f 141 156 144
f 141 144 143
f 142 157 158
f 142 158 156
f 144 159 145
f 144 156 159
f 145 159 160
f 145 160 161
f 145 161 162
f 145 162 163
f 145 163 164
f 145 164 146
f 146 164 165
f 146 165 147
f 147 165 166
f 148 154 167
f 148 167 149
f 149 167 155
f 152 168 169
f 152 169 170
f 152 170 153
f 153 170 154
f 154 170 171
f 154 171 172
f 154 172 167
f 155 173 174
f 155 167 173
f 156 161 160
f 156 160 159
f 156 158 175
f 156 175 161
f 157 176 177
f 157 177 158
f 158 177 175
f 161 178 162
f 161 175 178
f 162 178 163
f 163 178 179
f 163 179 180
f 163 180 181
f 163 181 164
f 164 181 165
f 165 181 182
f 165 182 166
f 166 182 183
f 167 172 184
f 167 184 173
f 168 185 186
f 168 186 169
f 169 171 170
f 169 186 187
f 169 187 171
f 171 187 188
f 171 188 189
f 171 189 172
f 172 189 190
f 172 190 184
f 173 191 192
f 173 192 193
f 173 193 174
f 173 184 191
f 175 177 194
f 175 194 195
f 175 195 196
f 175 196 178
f 176 197 198
f 176 198 177
f 177 198 194
f 178 196 179
f 179 196 199
f 179 199 180
f 180 200 181
f 180 199 201
f 180 201 200
f 181 200 202
f 181 202 182
f 182 203 183
f 182 202 203
f 183 203 204
f 184 205 191
f 184 190 206
f 184 206 205
f 185 207 208
f 185 208 186
f 186 208 187
f 187 208 209
f 187 209 210
f 187 210 211
f 187 211 212
f 187 212 188
f 188 212 206
f 188 206 190
f 188 190 189
f 191 205 213
f 191 213 214
f 191 214 215
f 191 215 216
f 191 216 192
f 192 216 217
f 192 217 193
f 193 217 218
f 194 219 195
f 194 198 219
f 195 220 199
f 195 199 196
f 195 219 220
f 197 221 222
f 197 222 198
f 198 222 223
f 198 223 224
f 198 224 219
f 199 220 201
f 200 201 225
f 200 225 202
f 201 220 219
f 201 219 225
f 202 225 226
f 202 226 227
f 202 227 228
f 202 228 203
f 203 228 229
f 203 229 204
f 204 229 207
f 205 206 212
f 205 212 213
f 207 229 208
f 208 229 209
f 209 229 230
f 209 230 231
f 209 231 232
f 209 232 210
f 210 232 214
f 210 214 211
f 211 214 213
f 211 213 212
f 214 232 215
f 215 232 233
f 215 233 216
f 216 233 234
f 216 234 217
f 217 235 236
f 217 236 218
f 217 234 235
f 219 224 237
f 219 237 225
f 221 238 239
f 221 239 222
f 222 239 240
f 222 240 223
f 223 240 241
f 223 241 224
f 224 241 242
f 224 242 237
f 225 237 242
f 225 242 226
f 226 242 243
f 226 243 244
f 226 244 227
f 227 230 228
f 227 244 230
f 228 230 229
f 230 244 245
f 230 245 246
f 230 246 231
f 231 246 247
f 231 247 232
f 232 247 233
f 233 248 234
f 233 247 248
f 234 249 235
f 234 248 249
f 235 239 238
f 235 238 236
f 235 249 250
f 235 250 239
f 239 250 240
f 240 251 252
f 240 252 253
f 240 253 241
f 240 250 251
f 241 253 242
f 242 253 252
f 242 252 243
f 243 252 254
f 243 254 244
f 244 254 245
f 245 255 251
f 245 251 249
f 245 249 256
f 245 256 248
f 245 248 246
f 245 254 255
f 246 248 247
f 248 256 249
f 249 251 250
f 251 255 252
f 252 255 254
