v 0.033531 -0.010374 0.000113
v 0.032710 -0.006249 -0.000493
v 0.033556 -0.007656 -0.000301
v 0.033926 -0.007656 0.000517
v 0.034210 -0.010374 0.001920
v -0.017545 -0.010374 0.003013
v -0.014936 0.040754 -0.000218
v 0.007491 0.032984 -0.000612
v 0.010283 0.031587 -0.000591
v 0.031063 0.004961 -0.000405
v 0.032710 -0.003444 -0.000436
v 0.033105 -0.004846 -0.000389
v 0.033546 -0.006249 -0.000306
v 0.033470 -0.003444 -0.000239
v 0.033865 -0.006249 0.000517
v 0.034200 -0.009059 0.001920
v 0.033521 -0.009059 0.048170
v 0.033460 -0.010374 0.048673
v -0.017545 0.040739 0.000092
v -0.017545 -0.010374 0.052293
v -0.003555 0.039326 -0.000182
v -0.006529 0.039556 -0.000317
v -0.005126 0.039029 -0.000369
v -0.000920 0.037703 -0.000472
v -0.014936 0.041133 0.000517
v -0.013745 0.040867 0.000098
v -0.009332 0.040923 0.000817
v 0.006088 0.034387 -0.000545
v 0.009016 0.033127 -0.000488
v 0.010785 0.032605 -0.000348
v 0.020813 0.023899 -0.000198
v 0.022470 0.021416 -0.000296
v 0.028251 0.011968 -0.000353
v 0.030856 0.006368 -0.000348
v 0.032138 0.002161 -0.000265
v 0.032284 0.000753 -0.000327
v 0.032477 -0.000644 -0.000353
v 0.033430 -0.002175 0.000015
v 0.033663 -0.003444 0.000517
v 0.034134 -0.007656 0.001920
v 0.033501 -0.007656 0.046767
v 0.033450 -0.008547 0.049248
v 0.033247 -0.009013 0.052293
v 0.032898 -0.010374 0.052287
v -0.017545 0.041430 0.001920
v -0.014936 0.040718 0.052293
v -0.017069 0.040764 0.052287
v -0.017545 0.041035 0.048072
v 0.007375 0.034387 -0.000415
v -0.002324 0.038420 -0.000405
v -0.007573 0.040749 0.001123
v -0.002805 0.039357 0.000823
v 0.000813 0.037872 0.000072
v -0.012134 0.041041 0.000600
v -0.016339 0.041440 0.001920
v -0.014936 0.041440 0.001920
v -0.013537 0.041419 0.001920
v -0.010735 0.040989 0.000709
v -0.012134 0.041343 0.001920
v -0.010735 0.041235 0.001920
v 0.008641 0.033921 -0.000332
v 0.009797 0.033644 0.000201
v 0.013845 0.030921 0.000300
v 0.018309 0.026949 0.000098
v 0.019024 0.025946 -0.000047
v 0.020448 0.024830 0.000517
v 0.022383 0.022711 0.000859
v 0.023407 0.020807 0.000077
v 0.022095 0.022353 -0.000084
v 0.023757 0.019876 -0.000249
v 0.026680 0.015264 -0.000301
v 0.027876 0.013549 -0.000218
v 0.030602 0.007940 0.000041
v 0.032056 0.003415 0.000010
v 0.032234 0.004039 0.001672
v 0.033485 -0.001366 0.001423
v 0.033754 -0.003444 0.001920
v 0.033891 -0.004846 0.001920
v 0.034017 -0.006249 0.001920
v 0.033176 -0.004846 0.046767
v 0.033399 -0.006981 0.048119
v 0.033161 -0.007656 0.052293
v -0.017545 0.041773 0.006131
v -0.016339 0.041875 0.006131
v -0.014936 0.041916 0.006131
v -0.013583 0.040626 0.052293
v -0.010274 0.040769 0.047901
v -0.013537 0.040948 0.048170
v -0.014936 0.041005 0.048170
v -0.016339 0.041025 0.048170
v -0.014936 0.041066 0.046767
v -0.017545 0.041066 0.046767
v 0.004167 0.036577 0.000160
v -0.012134 0.041767 0.006131
v -0.010735 0.041491 0.006131
v -0.007563 0.040795 0.006131
v -0.000920 0.038835 0.001920
v 0.000483 0.038384 0.001920
v -0.013537 0.041895 0.006131
v 0.007365 0.035021 0.000341
v 0.007603 0.035144 0.001920
v 0.008880 0.034402 0.001920
v 0.011545 0.032641 0.000517
v 0.013085 0.031592 0.001920
v 0.014261 0.030701 0.001920
v 0.015447 0.029703 0.001351
v 0.018821 0.026791 0.001920
v 0.019840 0.025772 0.001920
v 0.024942 0.018908 0.000341
v 0.020843 0.024631 0.001920
v 0.022135 0.023106 0.001920
v 0.023539 0.021345 0.001470
v 0.026498 0.016738 0.000569
v 0.027972 0.014394 0.000791
v 0.029259 0.011369 0.000331
v 0.030628 0.008881 0.001418
v 0.032720 0.002161 0.001920
v 0.031013 0.007771 0.001920
v 0.031215 0.004961 0.046767
v 0.031600 0.003558 0.046767
v 0.032254 0.000753 0.048170
v 0.032553 -0.000644 0.048170
v 0.032796 -0.002041 0.046767
v 0.032989 -0.003444 0.046767
v 0.032771 -0.002041 0.048170
v 0.032953 -0.003444 0.048170
v 0.032720 -0.003362 0.052293
v 0.032898 -0.004846 0.052293
v -0.017545 0.041757 0.007332
v -0.010644 0.040263 0.052293
v -0.007928 0.040365 0.046767
v -0.012134 0.041747 0.007524
v -0.012134 0.040948 0.046767
v -0.009291 0.040089 0.052293
v -0.007882 0.039812 0.052293
v -0.006529 0.039976 0.048170
v -0.013537 0.041030 0.046767
v 0.001806 0.037862 0.001920
v 0.003286 0.037202 0.001920
v 0.004400 0.036690 0.001920
v 0.006088 0.035886 0.001920
v -0.010735 0.041486 0.007524
v -0.009332 0.041174 0.008927
v -0.005126 0.039725 0.046767
v -0.003692 0.039311 0.046767
v -0.002324 0.038850 0.046767
v -0.000920 0.038348 0.046767
v 0.000362 0.037847 0.046767
v 0.004223 0.036193 0.046767
v 0.006265 0.035190 0.046767
v 0.007491 0.034494 0.046767
v 0.009229 0.033486 0.046767
v 0.010167 0.033609 0.001920
v 0.010283 0.032861 0.046767
v 0.011910 0.032436 0.001920
v 0.011241 0.032211 0.047275
v 0.013501 0.030686 0.038357
v 0.014742 0.029688 0.038357
v 0.016186 0.028326 0.046767
v 0.017666 0.027814 0.001920
v 0.018005 0.026688 0.044934
v 0.019460 0.025342 0.039760
v 0.020813 0.023899 0.039486
v 0.022140 0.022399 0.038357
v 0.024258 0.020377 0.001920
v 0.025130 0.019159 0.001920
v 0.026315 0.017450 0.001920
v 0.027096 0.016165 0.001920
v 0.027841 0.014849 0.001920
v 0.028611 0.013375 0.001920
v 0.029265 0.012101 0.001920
v 0.029974 0.010565 0.001920
v 0.029645 0.009168 0.048170
v 0.030805 0.006179 0.046767
v 0.032168 0.001214 0.046767
v 0.031170 0.004961 0.048170
v 0.031560 0.003558 0.048170
v 0.031874 0.002304 0.048170
v 0.032026 0.001516 0.049035
v 0.031996 0.000717 0.052293
v 0.032264 -0.000583 0.052293
v 0.032513 -0.002041 0.052293
v -0.006529 0.040053 0.046767
v -0.006453 0.039454 0.052293
v -0.005126 0.039648 0.048170
v 0.003838 0.036434 0.042562
v -0.003813 0.039270 0.048170
v -0.000287 0.038041 0.048693
v 0.004198 0.036158 0.048170
v 0.006204 0.035159 0.048170
v 0.007491 0.034412 0.048170
v 0.009153 0.033440 0.048170
v 0.012690 0.031121 0.046767
v 0.013065 0.030870 0.045369
v 0.008824 0.033204 0.052293
v 0.011768 0.031244 0.052293
v 0.012959 0.030404 0.052293
v 0.014352 0.029324 0.052293
v 0.014909 0.029268 0.048170
v 0.013430 0.030614 0.043965
v 0.014631 0.029596 0.046767
v 0.014651 0.029611 0.045369
v 0.016151 0.028285 0.048170
v 0.017585 0.026965 0.048170
v 0.017625 0.027001 0.046767
v 0.019698 0.024897 0.046767
v 0.021015 0.023448 0.046767
v 0.021993 0.022225 0.046767
v 0.023523 0.020290 0.046767
v 0.024415 0.018975 0.046767
v 0.025023 0.018304 0.038357
v 0.026523 0.015663 0.046767
v 0.026746 0.015208 0.048170
v 0.027765 0.013304 0.048170
v 0.028454 0.011968 0.048170
v 0.029153 0.010442 0.048170
v 0.029133 0.010263 0.049517
v 0.029280 0.009362 0.052293
v 0.029878 0.007771 0.052293
v 0.030648 0.006476 0.048170
v 0.030405 0.006261 0.052293
v 0.030780 0.005048 0.052293
v 0.031616 0.002161 0.052293
v 0.031448 0.003558 0.049574
v -0.002253 0.038323 0.052293
v -0.000844 0.037918 0.052293
v 0.000483 0.037447 0.052293
v 0.002029 0.036797 0.052293
v 0.003225 0.036245 0.052293
v 0.004806 0.035451 0.052293
v 0.006017 0.034827 0.052293
v 0.007562 0.033992 0.052293
v 0.015877 0.028040 0.052293
v 0.016951 0.027042 0.052293
v 0.019414 0.024615 0.052293
v 0.018634 0.025921 0.048170
v 0.019657 0.024866 0.048170
v 0.020980 0.023402 0.048170
v 0.022242 0.021831 0.048170
v 0.023488 0.020234 0.048170
v 0.024643 0.018555 0.048170
v 0.024973 0.017537 0.052293
v 0.026098 0.015735 0.052293
v 0.026660 0.015167 0.049574
v 0.027349 0.013452 0.052293
v 0.028347 0.011968 0.049574
v 0.028727 0.010663 0.052293
v 0.020732 0.023157 0.052293
v 0.022034 0.021575 0.052293
v 0.022986 0.020377 0.052293
v 0.023802 0.019267 0.052293
v 0.028064 0.012050 0.052293
f 1 2 3
f 1 3 4
f 1 4 5
f 1 5 18
f 1 18 44
f 1 44 20
f 1 20 6
f 1 6 2
f 2 7 8
f 2 8 9
f 2 9 10
f 2 10 11
f 2 11 12
f 2 12 13
f 2 13 3
f 2 6 7
f 3 13 4
f 4 13 14
f 4 14 15
f 4 15 16
f 4 16 5
f 5 16 17
f 5 17 18
f 6 19 7
f 6 20 48
f 6 48 92
f 6 92 129
f 6 129 83
f 6 83 45
f 6 45 19
f 7 21 22
f 7 22 23
f 7 23 24
f 7 24 8
f 7 19 25
f 7 25 26
f 7 26 27
f 7 27 21
f 8 24 28
f 8 28 9
f 9 28 29
f 9 29 30
f 9 30 31
f 9 31 32
f 9 32 33
f 9 33 10
f 10 33 34
f 10 34 35
f 10 35 36
f 10 36 37
f 10 37 11
f 11 37 14
f 11 14 12
f 12 14 13
f 14 37 36
f 14 36 35
f 14 35 38
f 14 38 39
f 14 39 15
f 15 39 40
f 15 40 16
f 16 40 41
f 16 41 17
f 17 41 42
f 17 42 43
f 17 43 18
f 18 43 44
f 19 45 25
f 20 44 43
f 20 43 82
f 20 82 128
f 20 128 127
f 20 127 182
f 20 182 181
f 20 181 180
f 20 180 223
f 20 223 222
f 20 222 221
f 20 221 219
f 20 219 218
f 20 218 247
f 20 247 252
f 20 252 245
f 20 245 243
f 20 243 242
f 20 242 251
f 20 251 250
f 20 250 249
f 20 249 248
f 20 248 235
f 20 235 234
f 20 234 233
f 20 233 198
f 20 198 197
f 20 197 196
f 20 196 195
f 20 195 232
f 20 232 231
f 20 231 230
f 20 230 229
f 20 229 228
f 20 228 227
f 20 227 226
f 20 226 225
f 20 225 184
f 20 184 135
f 20 135 134
f 20 134 130
f 20 130 86
f 20 86 46
f 20 46 47
f 20 47 48
f 21 49 50
f 21 50 22
f 21 27 51
f 21 51 52
f 21 52 53
f 21 53 49
f 22 50 23
f 23 50 24
f 24 50 49
f 24 49 28
f 25 54 26
f 25 45 55
f 25 55 56
f 25 56 57
f 25 57 54
f 26 54 58
f 26 58 27
f 27 58 59
f 27 59 60
f 27 60 51
f 28 49 29
f 29 49 30
f 30 49 61
f 30 61 62
f 30 62 63
f 30 63 64
f 30 64 65
f 30 65 31
f 31 65 64
f 31 64 66
f 31 66 67
f 31 67 68
f 31 68 69
f 31 69 70
f 31 70 32
f 32 70 71
f 32 71 33
f 33 71 72
f 33 72 34
f 34 72 73
f 34 73 74
f 34 74 35
f 35 74 38
f 38 74 75
f 38 75 76
f 38 76 39
f 39 76 77
f 39 77 78
f 39 78 79
f 39 79 40
f 40 79 41
f 41 80 81
f 41 81 42
f 41 79 78
f 41 78 77
f 41 77 80
f 42 82 43
f 42 81 82
f 45 83 84
f 45 84 85
f 45 85 55
f 46 86 87
f 46 87 88
f 46 88 89
f 46 89 47
f 47 89 90
f 47 90 48
f 48 91 92
f 48 90 91
f 49 53 93
f 49 93 61
f 51 60 94
f 51 94 95
f 51 95 96
f 51 96 97
f 51 97 52
f 52 97 98
f 52 98 53
f 53 98 93
f 54 57 58
f 55 85 56
f 56 85 99
f 56 99 57
f 57 99 59
f 57 59 58
f 59 99 60
f 60 99 94
f 61 93 100
f 61 100 62
f 62 100 101
f 62 101 102
f 62 102 103
f 62 103 63
f 63 103 104
f 63 104 105
f 63 105 106
f 63 106 64
f 64 106 107
f 64 107 108
f 64 108 66
f 66 108 67
f 67 109 68
f 67 108 110
f 67 110 111
f 67 111 112
f 67 112 109
f 68 109 70
f 68 70 69
f 70 109 72
f 70 72 71
f 72 109 113
f 72 113 114
f 72 114 115
f 72 115 73
f 73 115 116
f 73 116 74
f 74 116 75
f 75 117 76
f 75 116 118
f 75 118 119
f 75 119 120
f 75 120 117
f 76 117 121
f 76 121 122
f 76 122 123
f 76 123 124
f 76 124 80
f 76 80 77
f 80 124 125
f 80 125 126
f 80 126 81
f 81 126 127
f 81 127 128
f 81 128 82
f 83 129 84
f 84 129 92
f 84 92 85
f 85 92 91
f 85 91 99
f 86 130 87
f 87 131 132
f 87 132 99
f 87 99 133
f 87 133 88
f 87 130 134
f 87 134 135
f 87 135 136
f 87 136 131
f 88 133 137
f 88 137 89
f 89 137 91
f 89 91 90
f 91 137 99
f 93 98 138
f 93 138 139
f 93 139 140
f 93 140 141
f 93 141 101
f 93 101 100
f 94 99 132
f 94 132 142
f 94 142 95
f 95 142 143
f 95 143 96
f 96 143 144
f 96 144 145
f 96 145 97
f 97 145 98
f 98 145 146
f 98 146 147
f 98 147 148
f 98 148 138
f 99 137 133
f 101 141 149
f 101 149 150
f 101 150 151
f 101 151 152
f 101 152 102
f 102 153 103
f 102 152 154
f 102 154 153
f 103 153 155
f 103 155 104
f 104 155 156
f 104 156 157
f 104 157 105
f 105 157 158
f 105 158 159
f 105 159 160
f 105 160 106
f 106 160 107
f 107 160 159
f 107 159 161
f 107 161 108
f 108 161 162
f 108 162 163
f 108 163 110
f 109 112 113
f 110 163 164
f 110 164 111
f 111 164 112
f 112 164 165
f 112 165 166
f 112 166 167
f 112 167 113
f 113 167 114
f 114 167 168
f 114 168 169
f 114 169 170
f 114 170 171
f 114 171 172
f 114 172 115
f 115 172 116
f 116 172 173
f 116 173 174
f 116 174 118
f 117 120 175
f 117 175 121
f 118 174 119
f 119 174 176
f 119 176 177
f 119 177 120
f 120 177 178
f 120 178 121
f 120 121 175
f 121 178 179
f 121 179 180
f 121 180 122
f 122 180 181
f 122 181 182
f 122 182 127
f 122 127 125
f 122 125 123
f 123 125 124
f 125 127 126
f 131 136 183
f 131 183 143
f 131 143 142
f 131 142 132
f 135 184 185
f 135 185 136
f 136 185 144
f 136 144 183
f 138 148 186
f 138 186 139
f 139 186 140
f 140 186 141
f 141 186 149
f 143 183 144
f 144 185 187
f 144 187 145
f 145 187 146
f 146 187 188
f 146 188 147
f 147 188 148
f 148 188 189
f 148 189 149
f 148 149 186
f 149 189 150
f 150 189 190
f 150 190 151
f 151 190 152
f 152 190 191
f 152 191 192
f 152 192 154
f 153 154 156
f 153 156 155
f 154 192 156
f 156 193 194
f 156 194 157
f 156 192 195
f 156 195 196
f 156 196 197
f 156 197 198
f 156 198 199
f 156 199 193
f 157 200 201
f 157 201 202
f 157 202 158
f 157 194 200
f 158 202 159
f 159 201 203
f 159 203 204
f 159 204 205
f 159 205 161
f 159 202 201
f 161 205 206
f 161 206 162
f 162 206 163
f 163 206 207
f 163 207 164
f 164 207 208
f 164 208 209
f 164 209 165
f 165 209 166
f 166 209 167
f 167 209 210
f 167 210 211
f 167 211 212
f 167 212 168
f 168 212 169
f 169 212 213
f 169 213 214
f 169 214 170
f 170 214 215
f 170 215 171
f 171 215 172
f 172 215 216
f 172 216 173
f 173 216 217
f 173 217 218
f 173 218 219
f 173 219 220
f 173 220 174
f 174 220 176
f 176 220 221
f 176 221 222
f 176 222 223
f 176 223 224
f 176 224 177
f 177 224 223
f 177 223 180
f 177 180 179
f 177 179 178
f 184 225 185
f 185 225 226
f 185 226 187
f 187 226 188
f 188 226 227
f 188 227 228
f 188 228 189
f 189 228 229
f 189 229 190
f 190 229 230
f 190 230 231
f 190 231 232
f 190 232 191
f 191 232 192
f 192 232 195
f 193 201 194
f 193 199 201
f 194 201 200
f 198 233 203
f 198 203 199
f 199 203 201
f 203 233 204
f 204 233 234
f 204 234 235
f 204 235 236
f 204 236 205
f 205 236 206
f 206 236 237
f 206 237 207
f 207 237 238
f 207 238 239
f 207 239 208
f 208 239 209
f 209 239 240
f 209 240 241
f 209 241 210
f 210 241 212
f 210 212 211
f 212 241 213
f 213 241 242
f 213 242 243
f 213 243 244
f 213 244 214
f 214 244 245
f 214 245 246
f 214 246 215
f 215 246 216
f 216 246 217
f 217 246 247
f 217 247 218
f 219 221 220
f 235 248 238
f 235 238 237
f 235 237 236
f 238 248 249
f 238 249 239
f 239 249 250
f 239 250 240
f 240 250 251
f 240 251 241
f 241 251 242
f 243 245 244
f 245 252 246
f 246 252 247
