v -0.067812 -0.011854 0.081825
v -0.067762 -0.011506 0.100032
v -0.067653 -0.005714 0.098446
v -0.067742 -0.007319 0.057120
v -0.067772 -0.010449 0.065008
v -0.067365 -0.016061 0.065008
v -0.067355 -0.015562 0.124911
v -0.067574 -0.012403 0.128915
v -0.067365 -0.004608 0.128771
v -0.067186 -0.002066 0.091624
v -0.067027 -0.001359 0.065008
v -0.067226 -0.003821 0.053773
v -0.067325 -0.013320 0.053388
v -0.067146 -0.017346 0.100032
v -0.066044 -0.021553 0.054257
v -0.065955 -0.022689 0.061087
v -0.067107 -0.017456 0.118255
v -0.066789 -0.018772 0.128507
v -0.064435 -0.027334 0.129481
v -0.065965 0.003356 0.129474
v -0.066809 0.000047 0.100032
v -0.066392 0.002000 0.080427
v -0.065677 0.004034 0.055700
v -0.063969 0.008918 0.054521
v -0.057802 0.019971 0.054325
v -0.050503 0.027945 0.053894
v -0.045736 0.031793 0.053645
v -0.059808 -0.036075 0.052678
v -0.066104 -0.022350 0.117900
v -0.064525 -0.027443 0.059402
v -0.063264 -0.029766 0.054378
v -0.064902 -0.026417 0.099239
v -0.062588 -0.032018 0.100032
v -0.061893 -0.033145 0.126663
v -0.058894 -0.038208 0.129481
v -0.042399 0.034165 0.129481
v -0.059311 0.018367 0.129300
v -0.064406 0.008330 0.129126
v -0.064813 0.007313 0.115452
v -0.065389 0.005648 0.100032
v -0.064515 0.007911 0.074814
v -0.063413 0.010662 0.061502
v -0.061903 0.013532 0.055262
v -0.058884 0.018815 0.061759
v -0.055418 0.023211 0.059190
v -0.051516 0.027417 0.064131
v -0.046759 0.031394 0.060074
v -0.041724 0.034394 0.055481
v -0.032836 0.038391 0.054438
v -0.025616 0.040195 0.054106
v -0.011167 0.040424 0.053380
v -0.022657 -0.059787 0.052308
v -0.050910 -0.046949 0.053320
v -0.056938 -0.040600 0.054378
v -0.059093 -0.037879 0.059432
v -0.062310 -0.032357 0.060490
v 0.031594 0.002229 0.052308
v -0.064406 -0.027752 0.064652
v -0.060741 -0.035377 0.074814
v -0.061834 -0.033444 0.114047
v -0.059897 -0.036803 0.100032
v -0.059172 -0.037889 0.109846
v -0.057961 -0.039583 0.100032
v -0.054405 -0.044139 0.129474
v -0.050721 -0.047826 0.129474
v -0.038953 -0.055591 0.129474
v -0.022677 -0.060166 0.129481
v -0.010482 0.040574 0.129481
v -0.034882 0.037663 0.129217
v -0.038447 0.036348 0.100032
v -0.042161 0.034424 0.073764
v -0.042826 0.034045 0.081825
v -0.046282 0.031783 0.100032
v -0.046084 0.031803 0.125613
v -0.050205 0.028563 0.127630
v -0.055835 0.022832 0.127985
v -0.059381 0.018347 0.099677
v -0.061794 0.014230 0.117303
v -0.062290 0.013223 0.127766
v -0.062707 0.012476 0.099677
v -0.061903 0.014071 0.085504
v -0.061883 0.014021 0.074814
v -0.056004 0.022722 0.074466
v -0.054693 0.024357 0.081122
v -0.049311 0.029500 0.076219
v -0.053929 0.025174 0.100032
v -0.037593 0.036707 0.063164
v -0.034703 0.037952 0.074821
v -0.032459 0.038710 0.100032
v -0.026848 0.040165 0.100032
v -0.023610 0.040723 0.063655
v -0.019847 0.041082 0.059749
v -0.020145 0.040843 0.054567
v -0.013203 0.041072 0.058873
v -0.003699 0.039298 0.063602
v -0.002170 0.038501 0.054408
v 0.004801 0.035630 0.054174
v 0.011137 0.031872 0.053940
v 0.028446 0.011280 0.052852
v -0.017066 -0.060086 0.052308
v -0.021843 -0.060256 0.057505
v -0.028784 -0.058950 0.055186
v -0.034624 -0.056887 0.053116
v -0.042161 -0.053578 0.054982
v -0.045239 -0.051933 0.063602
v -0.050890 -0.047448 0.062023
v -0.053859 -0.044467 0.056410
v -0.054892 -0.043381 0.063602
v -0.060533 -0.035746 0.081825
v 0.030661 0.006416 0.057233
v 0.031952 0.002558 0.065008
v 0.032627 -0.001488 0.055828
v 0.033322 -0.008914 0.053894
v 0.033034 -0.016090 0.053743
v 0.031167 -0.024214 0.052308
v -0.054922 -0.043421 0.081825
v -0.046520 -0.051185 0.128069
v -0.040771 -0.054554 0.063602
v -0.036163 -0.056737 0.063957
v -0.033680 -0.057734 0.129474
v -0.027990 -0.059349 0.128771
v -0.022945 -0.060196 0.064305
v -0.021247 -0.060405 0.081825
v -0.019489 -0.060326 0.125258
v -0.014722 -0.060266 0.128242
v -0.008516 -0.059598 0.128771
v 0.000760 -0.057076 0.129481
v -0.005606 0.039697 0.129481
v -0.010323 0.040733 0.091926
v -0.012538 0.040923 0.100032
v -0.013551 0.040923 0.116850
v -0.016709 0.040973 0.127192
v -0.026629 0.040006 0.128945
v -0.037732 0.036667 0.078667
v -0.024107 0.040703 0.081387
v -0.020552 0.041062 0.073416
v -0.019142 0.041142 0.091624
v -0.017046 0.041202 0.081825
v -0.005139 0.039737 0.081825
v -0.014951 0.041022 0.112649
v -0.013551 0.040953 0.111244
v -0.003898 0.039388 0.100032
v -0.000929 0.038441 0.073416
v 0.006599 0.034992 0.064305
v 0.008496 0.033876 0.058699
v 0.001415 0.037624 0.081825
v 0.011882 0.031683 0.061978
v 0.015089 0.028892 0.054144
v 0.021336 0.022563 0.053751
v 0.025189 0.017489 0.054038
v 0.027245 0.014220 0.057823
v 0.028019 0.012865 0.063519
v -0.003868 -0.058352 0.053214
v -0.010810 -0.059977 0.055080
v -0.018436 -0.060565 0.063602
v 0.005963 -0.054465 0.052489
v -0.029668 -0.059000 0.063602
v 0.030840 0.006306 0.065008
v 0.031257 0.004951 0.063602
v 0.031644 0.004044 0.081953
v 0.031793 0.003465 0.129474
v 0.033134 -0.003153 0.128968
v 0.033004 -0.002764 0.065703
v 0.033600 -0.008366 0.075872
v 0.033551 -0.009761 0.065008
v 0.032995 -0.017456 0.059402
v 0.031555 -0.023706 0.057098
v 0.030581 -0.027045 0.062552
v 0.028198 -0.032108 0.054378
v 0.025080 -0.037610 0.054159
v 0.017910 -0.046062 0.053071
v -0.016351 -0.060625 0.081825
v -0.014454 -0.060435 0.098982
v -0.008992 -0.059867 0.100032
v -0.007940 -0.059737 0.091624
v -0.002736 -0.058462 0.100032
v 0.000680 -0.057246 0.108441
v 0.004096 -0.055860 0.098982
v 0.007900 -0.053976 0.109846
v 0.008784 -0.053239 0.129209
v 0.015586 -0.048425 0.129300
v 0.031128 -0.025400 0.129481
v -0.000243 0.038122 0.129481
v -0.017394 0.041142 0.099330
v 0.002438 0.037195 0.098635
v 0.007939 0.034474 0.100032
v 0.009906 0.033278 0.109491
v 0.012309 0.031663 0.099677
v 0.013888 0.030487 0.108645
v 0.016569 0.028264 0.099677
v 0.019350 0.025224 0.063602
v 0.021912 0.022274 0.059394
v 0.026986 0.015317 0.100032
v 0.022379 0.022025 0.081825
v 0.028049 0.013104 0.081825
v 0.030174 0.008519 0.100032
v -0.002518 -0.058442 0.074293
v -0.006718 -0.059498 0.064305
v 0.005308 -0.055242 0.058503
v -0.009966 -0.060086 0.081825
v 0.012498 -0.050697 0.054748
v 0.029529 0.010154 0.128953
v 0.026808 0.015636 0.129474
v 0.033531 -0.010778 0.129481
v 0.033481 -0.006691 0.124563
v 0.033511 -0.006751 0.100198
v 0.033640 -0.009073 0.081825
v 0.033282 -0.015193 0.096882
v 0.032399 -0.020965 0.100032
v 0.031892 -0.022699 0.062900
v 0.033104 -0.016758 0.124563
v 0.031485 -0.024463 0.092326
v 0.030472 -0.027473 0.098627
v 0.028973 -0.031071 0.082527
v 0.027284 -0.034381 0.064305
v 0.025586 -0.037321 0.081825
v 0.022895 -0.040979 0.064305
v 0.021902 -0.041916 0.054665
v 0.019499 -0.044896 0.059402
v 0.016291 -0.048096 0.063738
v -0.002865 -0.058571 0.081825
v 0.000760 -0.057256 0.093029
v 0.001802 -0.056877 0.080601
v 0.004672 -0.055631 0.081825
v 0.006430 -0.054774 0.093724
v 0.003937 -0.055990 0.076219
v 0.008714 -0.053528 0.100032
v 0.009796 -0.052720 0.123860
v 0.015189 -0.049003 0.107852
v 0.018108 -0.046311 0.121058
v 0.021793 -0.042185 0.128643
v 0.026718 -0.035188 0.128507
v 0.029489 -0.029696 0.127721
v 0.032657 -0.019270 0.129300
v 0.023680 0.020480 0.129474
v 0.020124 0.024696 0.129474
v 0.016251 0.028454 0.127283
v 0.003917 0.036497 0.127396
v 0.008108 0.034324 0.123233
v 0.014593 0.029919 0.122810
v 0.017890 0.027108 0.108788
v 0.020085 0.024905 0.100032
v 0.023401 0.020789 0.108441
v 0.022160 0.022423 0.118255
v 0.004801 -0.055531 0.063557
v 0.010720 -0.052232 0.062552
v 0.006072 -0.054953 0.081825
v 0.027215 -0.034510 0.100206
v 0.027781 -0.033523 0.074814
v 0.023372 -0.040461 0.100146
v 0.019747 -0.044786 0.099330
v 0.018863 -0.045644 0.073416
v 0.012001 -0.051415 0.100032
v 0.017095 -0.047408 0.081825
v 0.016132 -0.048195 0.101173
v 0.018138 0.026819 0.121058
f 1 2 3
f 1 3 4
f 1 4 5
f 1 5 6
f 1 6 7
f 1 7 2
f 2 7 8
f 2 8 3
f 3 8 9
f 3 9 10
f 3 10 4
f 4 10 11
f 4 11 12
f 4 12 13
f 4 13 5
f 5 13 6
f 6 14 7
f 6 13 15
f 6 15 16
f 6 16 14
f 7 14 17
f 7 17 18
f 7 18 8
f 8 18 19
f 8 19 20
f 8 20 9
f 9 20 21
f 9 21 10
f 10 21 11
f 11 21 22
f 11 22 23
f 11 23 12
f 12 23 24
f 12 24 25
f 12 25 26
f 12 26 27
f 12 27 13
f 13 28 15
f 13 27 28
f 14 16 29
f 14 29 17
f 15 30 16
f 15 28 31
f 15 31 30
f 16 30 32
f 16 32 29
f 17 29 18
f 18 29 19
f 19 29 32
f 19 32 33
f 19 33 34
f 19 34 35
f 19 35 67
f 19 67 127
f 19 127 182
f 19 182 204
f 19 204 183
f 19 183 128
f 19 128 68
f 19 68 36
f 19 36 20
f 20 36 37
f 20 37 38
f 20 38 39
f 20 39 40
f 20 40 22
f 20 22 21
f 22 40 23
f 23 40 41
f 23 41 24
f 24 41 42
f 24 42 43
f 24 43 25
f 25 43 44
f 25 44 45
f 25 45 26
f 26 46 47
f 26 47 27
f 26 45 46
f 27 47 48
f 27 48 49
f 27 49 50
f 27 50 51
f 27 51 28
f 28 52 53
f 28 53 54
f 28 54 55
f 28 55 56
f 28 56 31
f 28 51 57
f 28 57 52
f 30 31 56
f 30 56 58
f 30 58 32
f 32 58 33
f 33 56 59
f 33 59 60
f 33 60 34
f 33 58 56
f 34 60 35
f 35 60 61
f 35 61 62
f 35 62 63
f 35 63 64
f 35 64 65
f 35 65 66
f 35 66 67
f 36 68 69
f 36 69 70
f 36 70 71
f 36 71 72
f 36 72 73
f 36 73 74
f 36 74 75
f 36 75 37
f 37 76 77
f 37 77 78
f 37 78 79
f 37 79 38
f 37 75 76
f 38 79 80
f 38 80 39
f 39 80 42
f 39 42 41
f 39 41 40
f 42 80 81
f 42 81 82
f 42 82 43
f 43 82 44
f 44 82 77
f 44 77 83
f 44 83 45
f 45 83 84
f 45 84 46
f 46 85 47
f 46 84 86
f 46 86 85
f 47 73 72
f 47 72 71
f 47 71 48
f 47 85 73
f 48 71 87
f 48 87 49
f 49 88 89
f 49 89 90
f 49 90 50
f 49 87 88
f 50 90 91
f 50 91 92
f 50 92 93
f 50 93 51
f 51 93 94
f 51 94 95
f 51 95 96
f 51 96 97
f 51 97 98
f 51 98 99
f 51 99 57
f 52 100 101
f 52 101 102
f 52 102 103
f 52 103 53
f 52 57 115
f 52 115 100
f 53 103 104
f 53 104 105
f 53 105 106
f 53 106 107
f 53 107 54
f 54 107 108
f 54 108 55
f 55 108 63
f 55 63 62
f 55 62 61
f 55 61 109
f 55 109 59
f 55 59 56
f 57 99 110
f 57 110 111
f 57 111 112
f 57 112 113
f 57 113 114
f 57 114 115
f 59 109 60
f 60 109 61
f 63 108 116
f 63 116 64
f 64 116 107
f 64 107 65
f 65 106 117
f 65 117 66
f 65 107 106
f 66 117 118
f 66 118 119
f 66 119 120
f 66 120 67
f 67 120 121
f 67 121 122
f 67 122 123
f 67 123 124
f 67 124 125
f 67 125 126
f 67 126 127
f 68 128 129
f 68 129 130
f 68 130 131
f 68 131 132
f 68 132 133
f 68 133 69
f 69 133 89
f 69 89 88
f 69 88 70
f 70 134 71
f 70 88 134
f 71 134 87
f 73 85 75
f 73 75 74
f 75 85 86
f 75 86 76
f 76 86 84
f 76 84 83
f 76 83 77
f 77 82 81
f 77 81 78
f 78 81 80
f 78 80 79
f 87 134 88
f 89 133 90
f 90 133 135
f 90 135 91
f 91 135 136
f 91 136 92
f 92 137 138
f 92 138 94
f 92 94 93
f 92 136 137
f 94 129 139
f 94 139 95
f 94 138 140
f 94 140 141
f 94 141 130
f 94 130 129
f 95 139 142
f 95 142 143
f 95 143 96
f 96 143 97
f 97 144 145
f 97 145 98
f 97 143 146
f 97 146 144
f 98 145 147
f 98 147 148
f 98 148 149
f 98 149 99
f 99 149 150
f 99 150 151
f 99 151 152
f 99 152 110
f 100 153 154
f 100 154 155
f 100 155 101
f 100 115 156
f 100 156 153
f 101 155 122
f 101 122 157
f 101 157 102
f 102 157 103
f 103 157 119
f 103 119 104
f 104 118 105
f 104 119 118
f 105 118 117
f 105 117 106
f 107 116 108
f 110 158 159
f 110 159 111
f 110 152 158
f 111 159 160
f 111 160 161
f 111 161 162
f 111 162 163
f 111 163 112
f 112 163 113
f 113 163 164
f 113 164 165
f 113 165 114
f 114 165 166
f 114 166 167
f 114 167 115
f 115 167 168
f 115 168 169
f 115 169 170
f 115 170 171
f 115 171 156
f 119 157 120
f 120 157 121
f 121 157 122
f 122 155 123
f 123 155 172
f 123 172 124
f 124 172 125
f 125 172 173
f 125 173 174
f 125 174 126
f 126 174 175
f 126 175 176
f 126 176 127
f 127 176 177
f 127 177 178
f 127 178 179
f 127 179 180
f 127 180 181
f 127 181 182
f 128 183 142
f 128 142 139
f 128 139 129
f 130 141 131
f 131 141 140
f 131 140 132
f 132 140 184
f 132 184 137
f 132 137 133
f 133 137 135
f 135 137 136
f 137 184 138
f 138 184 140
f 142 183 143
f 143 183 146
f 144 146 185
f 144 185 186
f 144 186 145
f 145 187 188
f 145 188 147
f 145 186 187
f 146 183 185
f 147 188 189
f 147 189 190
f 147 190 148
f 148 190 191
f 148 191 149
f 149 191 192
f 149 192 150
f 150 193 151
f 150 192 194
f 150 194 193
f 151 193 195
f 151 195 152
f 152 195 196
f 152 196 158
f 153 197 198
f 153 198 154
f 153 156 199
f 153 199 197
f 154 200 172
f 154 172 155
f 154 198 200
f 156 171 201
f 156 201 199
f 158 160 159
f 158 196 160
f 160 196 161
f 161 196 202
f 161 202 203
f 161 203 204
f 161 204 162
f 162 205 206
f 162 206 163
f 162 204 205
f 163 206 164
f 164 206 207
f 164 207 165
f 165 207 208
f 165 208 166
f 166 209 210
f 166 210 167
f 166 208 211
f 166 211 209
f 167 210 168
f 168 210 212
f 168 212 213
f 168 213 214
f 168 214 215
f 168 215 169
f 169 215 170
f 170 215 216
f 170 216 217
f 170 217 218
f 170 218 171
f 171 219 220
f 171 220 201
f 171 218 219
f 172 200 173
f 173 200 174
f 174 200 175
f 175 200 198
f 175 198 221
f 175 221 176
f 176 221 177
f 177 221 222
f 177 222 223
f 177 223 178
f 178 224 225
f 178 225 179
f 178 223 226
f 178 226 224
f 179 225 227
f 179 227 228
f 179 228 180
f 180 228 181
f 181 228 229
f 181 229 230
f 181 230 231
f 181 231 182
f 182 231 232
f 182 232 233
f 182 233 213
f 182 213 212
f 182 212 209
f 182 209 234
f 182 234 204
f 183 235 236
f 183 236 237
f 183 237 238
f 183 238 185
f 183 204 235
f 185 238 186
f 186 238 239
f 186 239 187
f 187 239 240
f 187 240 188
f 188 240 189
f 189 240 190
f 190 241 191
f 190 240 241
f 191 242 192
f 191 241 242
f 192 242 194
f 193 203 202
f 193 202 195
f 193 194 243
f 193 243 235
f 193 235 203
f 194 242 244
f 194 244 243
f 195 202 196
f 197 223 221
f 197 221 198
f 197 199 245
f 197 245 223
f 199 201 246
f 199 246 247
f 199 247 245
f 201 220 246
f 203 235 204
f 204 234 211
f 204 211 208
f 204 208 207
f 204 207 205
f 205 207 206
f 209 212 210
f 209 211 234
f 213 233 214
f 214 233 248
f 214 248 249
f 214 249 215
f 215 249 248
f 215 248 216
f 216 250 217
f 216 248 232
f 216 232 250
f 217 250 251
f 217 251 219
f 217 219 218
f 219 251 252
f 219 252 220
f 220 229 253
f 220 253 246
f 220 252 254
f 220 254 229
f 221 223 222
f 223 245 226
f 224 226 225
f 225 226 247
f 225 247 227
f 226 245 247
f 227 246 253
f 227 253 228
f 227 247 246
f 228 253 229
f 229 254 255
f 229 255 230
f 230 255 254
f 230 254 251
f 230 251 231
f 231 250 232
f 231 251 250
f 232 248 233
f 235 243 244
f 235 244 236
f 236 244 242
f 236 242 256
f 236 256 237
f 237 241 240
f 237 240 239
f 237 239 238
f 237 256 241
f 241 256 242
f 251 254 252
