v -0.067134 -0.009541 0.139875
v -0.067611 -0.010937 0.129489
v -0.068849 -0.010096 0.137617
v -0.067793 -0.011599 0.139701
v -0.067631 -0.013906 0.139791
v -0.065399 -0.012571 0.140360
v 0.033456 -0.009775 0.139642
v 0.034654 -0.010005 0.133684
v -0.067479 -0.014099 0.129489
v -0.068544 -0.010937 0.133684
v 0.033588 -0.010942 0.129489
v -0.068778 -0.012220 0.137361
v -0.068473 -0.015372 0.137886
v -0.067864 -0.016070 0.139168
v -0.066495 -0.022456 0.139506
v -0.065642 -0.019579 0.140304
v -0.065399 -0.016773 0.140380
v 0.032300 -0.018876 0.140128
v 0.033223 -0.014675 0.139925
v 0.033974 -0.012571 0.139242
v 0.034775 -0.010005 0.137624
v 0.034806 -0.012154 0.137219
v 0.034704 -0.013274 0.135082
v 0.033436 -0.013850 0.129489
v -0.067235 -0.016070 0.129489
v -0.067712 -0.019533 0.133425
v -0.068108 -0.016773 0.133684
v -0.068483 -0.015372 0.135784
v -0.068098 -0.018351 0.135784
v -0.067611 -0.020939 0.136485
v -0.067032 -0.023083 0.137886
v -0.067570 -0.019131 0.138661
v -0.066180 -0.025446 0.138333
v -0.065074 -0.027233 0.139346
v -0.062801 -0.029489 0.140259
v -0.061198 -0.031496 0.140352
v -0.047176 -0.048302 0.140429
v 0.022935 -0.039226 0.140239
v 0.030991 -0.024488 0.140141
v 0.031549 -0.022349 0.140099
v 0.033548 -0.019599 0.138713
v 0.033213 -0.016946 0.139647
v 0.033893 -0.014675 0.139225
v 0.034430 -0.015372 0.137886
v 0.034126 -0.018173 0.137186
v 0.034370 -0.015545 0.134646
v 0.033172 -0.016085 0.129489
v -0.066921 -0.018168 0.129489
v -0.066535 -0.020282 0.129489
v -0.066018 -0.022517 0.129489
v -0.066008 -0.026897 0.134822
v -0.067174 -0.022701 0.134937
v -0.065825 -0.027091 0.137186
v -0.064881 -0.028990 0.138417
v -0.063410 -0.031995 0.138755
v -0.061777 -0.034042 0.139395
v -0.059118 -0.037836 0.140007
v -0.057018 -0.039883 0.140205
v -0.055587 -0.039894 0.140371
v -0.051377 -0.045501 0.140382
v -0.045776 -0.049707 0.140413
v -0.033154 -0.056715 0.140389
v 0.021798 -0.042287 0.140032
v 0.024487 -0.037632 0.140190
v 0.029580 -0.028690 0.140131
v -0.005140 -0.058115 0.140258
v 0.000511 -0.056822 0.140149
v 0.011135 -0.051245 0.140024
v 0.032624 -0.023903 0.138178
v 0.030778 -0.029504 0.138130
v 0.033609 -0.020964 0.136814
v 0.033091 -0.022298 0.134111
v 0.032533 -0.020292 0.129489
v 0.032878 -0.018189 0.129489
v -0.065460 -0.024488 0.129489
v -0.064973 -0.029082 0.133313
v -0.064039 -0.031654 0.134034
v -0.064973 -0.029581 0.135434
v -0.064070 -0.031496 0.136485
v -0.063014 -0.033655 0.136485
v -0.061422 -0.036568 0.136485
v -0.060549 -0.037337 0.138481
v -0.057515 -0.040759 0.139508
v -0.055557 -0.042389 0.140019
v -0.048181 -0.048938 0.140208
v -0.044893 -0.051541 0.140157
v -0.039708 -0.054092 0.140292
v -0.035650 -0.056068 0.140283
v -0.037842 -0.055671 0.140140
v -0.033154 -0.057637 0.140121
v -0.020542 -0.060280 0.140037
v 0.021981 -0.043713 0.138289
v 0.024335 -0.039878 0.139289
v 0.026496 -0.036553 0.139500
v 0.017486 -0.046764 0.139784
v 0.020033 -0.045399 0.138886
v 0.027988 -0.033767 0.139631
v 0.028677 -0.030701 0.140073
v -0.009300 -0.060234 0.139801
v -0.002888 -0.058314 0.140091
v 0.001009 -0.057356 0.139959
v 0.004489 -0.055696 0.139958
v 0.008639 -0.053328 0.139835
v 0.015619 -0.049371 0.139013
v 0.032026 -0.026490 0.137147
v 0.029672 -0.031995 0.138124
v 0.030402 -0.030900 0.135784
v 0.031305 -0.028690 0.135784
v 0.032868 -0.023785 0.136134
v 0.031955 -0.026714 0.135005
v 0.032249 -0.025084 0.133486
v 0.032066 -0.022237 0.129489
v -0.064810 -0.026464 0.129489
v -0.063725 -0.029224 0.129489
v -0.061117 -0.034572 0.129489
v -0.060782 -0.037592 0.134857
v -0.059889 -0.038962 0.136134
v -0.059047 -0.039827 0.138095
v -0.057860 -0.041523 0.137886
v -0.053609 -0.045704 0.138921
v -0.049550 -0.048964 0.139571
v -0.050920 -0.047329 0.139742
v -0.043209 -0.053053 0.140040
v -0.036837 -0.057463 0.138350
v -0.031186 -0.059455 0.138139
v -0.028771 -0.058925 0.139963
v -0.023901 -0.060331 0.139486
v -0.020897 -0.061069 0.138587
v -0.014262 -0.060865 0.139289
v 0.018480 -0.047421 0.138078
v 0.021210 -0.044828 0.136485
v 0.023817 -0.041696 0.137464
v 0.026334 -0.037989 0.138146
v -0.007220 -0.060361 0.138791
v -0.002096 -0.059205 0.138435
v 0.002642 -0.057560 0.138139
v 0.005300 -0.056455 0.137787
v 0.010556 -0.053445 0.138434
v 0.013123 -0.051836 0.137886
v 0.016634 -0.049045 0.138047
v 0.029053 -0.033507 0.136485
v 0.029682 -0.032015 0.133684
v 0.030930 -0.029280 0.133485
v 0.031133 -0.025410 0.129489
v -0.059372 -0.037469 0.129489
v -0.059260 -0.039410 0.133684
v -0.056906 -0.042409 0.133963
v -0.056592 -0.043066 0.137358
v -0.054999 -0.044900 0.137186
v -0.050920 -0.048903 0.137272
v -0.049084 -0.050476 0.137570
v -0.047552 -0.051260 0.138607
v -0.042336 -0.054795 0.138128
v -0.039566 -0.056231 0.138130
v -0.044477 -0.053420 0.138508
v -0.038116 -0.057148 0.135784
v -0.033915 -0.058625 0.137886
v -0.029836 -0.060106 0.135835
v -0.027513 -0.060244 0.138387
v -0.024053 -0.061094 0.137186
v -0.018351 -0.061568 0.137427
v -0.012851 -0.061395 0.137186
v 0.019282 -0.046809 0.136485
v 0.016918 -0.048989 0.135784
v 0.020916 -0.044946 0.132848
v 0.022235 -0.043464 0.132907
v 0.025147 -0.040092 0.136485
v 0.019586 -0.046402 0.132788
v 0.026303 -0.038376 0.135784
v 0.027531 -0.036298 0.136134
v -0.007251 -0.060651 0.136835
v -0.004481 -0.060040 0.137161
v -0.010051 -0.061079 0.137186
v -0.002340 -0.059506 0.136485
v -0.000128 -0.058706 0.137262
v 0.002135 -0.057932 0.135784
v 0.004671 -0.056868 0.135082
v 0.007796 -0.055340 0.135872
v 0.012403 -0.052417 0.135733
v 0.015396 -0.050222 0.136714
v 0.027551 -0.035901 0.133684
v 0.027825 -0.035061 0.132938
v 0.027592 -0.033726 0.129489
v 0.028921 -0.031048 0.129489
v -0.055902 -0.042287 0.129489
v -0.054167 -0.044436 0.129489
v -0.054126 -0.045608 0.133702
v -0.053091 -0.046865 0.135784
v -0.051935 -0.047731 0.133530
v -0.050250 -0.049223 0.133684
v -0.048657 -0.050461 0.133684
v -0.045218 -0.053160 0.135832
v -0.042935 -0.054586 0.135784
v -0.040916 -0.055717 0.135784
v -0.036249 -0.057922 0.134281
v -0.040327 -0.055808 0.133277
v -0.031764 -0.059485 0.135784
v -0.030252 -0.059969 0.133759
v -0.028132 -0.060331 0.133468
v -0.024053 -0.061028 0.135082
v -0.021952 -0.061308 0.135784
v -0.017042 -0.061451 0.134384
v -0.015317 -0.061512 0.136687
v -0.012851 -0.061283 0.135082
v 0.015122 -0.050359 0.134262
v 0.016451 -0.049152 0.133412
v 0.020794 -0.043387 0.129489
v 0.022387 -0.041554 0.129489
v 0.023625 -0.039939 0.129489
v 0.026516 -0.037658 0.133422
v 0.014736 -0.049208 0.129489
v 0.016421 -0.047747 0.129489
v 0.018389 -0.045934 0.129489
v -0.006845 -0.060463 0.134583
v -0.010578 -0.060916 0.134034
v 0.000045 -0.058793 0.134640
v 0.005280 -0.056445 0.133471
v 0.003038 -0.057463 0.133268
v 0.007949 -0.055065 0.133684
v 0.025339 -0.037403 0.129489
v -0.052259 -0.046392 0.129489
v -0.050839 -0.047762 0.129489
v -0.049145 -0.049213 0.129489
v -0.047399 -0.050568 0.129489
v -0.045746 -0.051790 0.129489
v -0.046537 -0.051846 0.132900
v -0.044589 -0.053348 0.133684
v -0.042773 -0.054484 0.133493
v -0.033986 -0.058747 0.134001
v -0.037913 -0.056109 0.129489
v -0.035954 -0.056893 0.129489
v -0.044000 -0.052951 0.129489
v -0.041575 -0.054250 0.129489
v -0.029654 -0.058986 0.129489
v -0.027553 -0.059500 0.129489
v -0.031764 -0.058416 0.129489
v -0.025433 -0.059867 0.129489
v -0.022653 -0.060998 0.133684
v -0.019842 -0.061319 0.134384
v -0.022683 -0.060173 0.129489
v -0.015662 -0.060300 0.129489
v -0.014262 -0.061222 0.133684
v 0.012443 -0.050914 0.129489
v -0.010041 -0.059857 0.129489
v -0.007240 -0.059399 0.129489
v -0.004826 -0.058889 0.129489
v -0.012780 -0.060168 0.129489
v -0.002340 -0.058207 0.129489
v 0.007035 -0.054291 0.129489
v 0.002642 -0.056394 0.129489
v -0.000341 -0.057545 0.129489
v 0.009602 -0.052798 0.129489
v -0.033682 -0.057754 0.129489
f 1 2 3
f 1 3 4
f 1 4 5
f 1 5 6
f 1 6 7
f 1 7 8
f 1 8 2
f 2 9 10
f 2 10 3
f 2 8 11
f 2 11 24
f 2 24 47
f 2 47 74
f 2 74 73
f 2 73 112
f 2 112 144
f 2 144 184
f 2 184 183
f 2 183 220
f 2 220 209
f 2 209 208
f 2 208 207
f 2 207 213
f 2 213 212
f 2 212 211
f 2 211 243
f 2 243 252
f 2 252 249
f 2 249 250
f 2 250 251
f 2 251 248
f 2 248 246
f 2 246 245
f 2 245 244
f 2 244 247
f 2 247 241
f 2 241 240
f 2 240 237
f 2 237 235
f 2 235 234
f 2 234 236
f 2 236 253
f 2 253 231
f 2 231 230
f 2 230 233
f 2 233 232
f 2 232 225
f 2 225 224
f 2 224 223
f 2 223 222
f 2 222 221
f 2 221 186
f 2 186 185
f 2 185 145
f 2 145 115
f 2 115 114
f 2 114 113
f 2 113 75
f 2 75 50
f 2 50 49
f 2 49 48
f 2 48 25
f 2 25 9
f 3 10 12
f 3 12 13
f 3 13 14
f 3 14 4
f 4 14 5
f 5 14 15
f 5 15 16
f 5 16 17
f 5 17 6
f 6 17 18
f 6 18 19
f 6 19 7
f 7 19 20
f 7 20 21
f 7 21 8
f 8 21 22
f 8 22 23
f 8 23 24
f 8 24 11
f 9 25 26
f 9 26 27
f 9 27 10
f 10 27 28
f 10 28 12
f 12 28 13
f 13 29 30
f 13 30 31
f 13 31 32
f 13 32 14
f 13 28 29
f 14 32 15
f 15 31 33
f 15 33 34
f 15 34 35
f 15 35 16
f 15 32 31
f 16 35 36
f 16 36 17
f 17 36 37
f 17 37 38
f 17 38 18
f 18 38 39
f 18 39 40
f 18 40 41
f 18 41 42
f 18 42 19
f 19 42 43
f 19 43 20
f 20 43 21
f 21 43 44
f 21 44 22
f 22 44 45
f 22 45 23
f 23 45 46
f 23 46 24
f 24 46 47
f 25 48 26
f 26 29 27
f 26 48 49
f 26 49 50
f 26 50 51
f 26 51 52
f 26 52 29
f 27 29 28
f 29 52 30
f 30 52 31
f 31 52 51
f 31 51 53
f 31 53 33
f 33 53 54
f 33 54 34
f 34 54 55
f 34 55 56
f 34 56 35
f 35 56 57
f 35 57 58
f 35 58 36
f 36 58 59
f 36 59 37
f 37 59 60
f 37 60 61
f 37 61 62
f 37 62 38
f 38 63 64
f 38 64 65
f 38 65 39
f 38 62 66
f 38 66 67
f 38 67 68
f 38 68 63
f 39 69 41
f 39 41 40
f 39 65 70
f 39 70 69
f 41 71 45
f 41 45 44
f 41 44 43
f 41 43 42
f 41 69 71
f 45 71 46
f 46 71 72
f 46 72 73
f 46 73 74
f 46 74 47
f 50 75 51
f 51 75 76
f 51 76 77
f 51 77 78
f 51 78 53
f 53 78 79
f 53 79 54
f 54 79 55
f 55 79 80
f 55 80 81
f 55 81 82
f 55 82 56
f 56 82 57
f 57 83 84
f 57 84 58
f 57 82 83
f 58 84 60
f 58 60 59
f 60 85 61
f 60 84 85
f 61 86 87
f 61 87 62
f 61 85 86
f 62 87 88
f 62 88 89
f 62 89 90
f 62 90 91
f 62 91 66
f 63 92 93
f 63 93 94
f 63 94 64
f 63 68 95
f 63 95 96
f 63 96 92
f 64 94 97
f 64 97 98
f 64 98 65
f 65 98 97
f 65 97 70
f 66 99 100
f 66 100 67
f 66 91 99
f 67 100 101
f 67 101 102
f 67 102 68
f 68 102 103
f 68 103 104
f 68 104 95
f 69 70 105
f 69 105 71
f 70 97 106
f 70 106 107
f 70 107 108
f 70 108 105
f 71 105 109
f 71 109 72
f 72 109 110
f 72 110 111
f 72 111 112
f 72 112 73
f 75 113 76
f 76 113 114
f 76 114 77
f 77 114 115
f 77 115 116
f 77 116 81
f 77 81 80
f 77 80 79
f 77 79 78
f 81 116 117
f 81 117 118
f 81 118 82
f 82 118 83
f 83 118 119
f 83 119 120
f 83 120 84
f 84 120 121
f 84 121 122
f 84 122 85
f 85 122 121
f 85 121 123
f 85 123 86
f 86 123 87
f 87 123 89
f 87 89 88
f 89 124 90
f 89 123 124
f 90 125 126
f 90 126 91
f 90 124 125
f 91 126 127
f 91 127 128
f 91 128 129
f 91 129 99
f 92 96 130
f 92 130 131
f 92 131 132
f 92 132 133
f 92 133 93
f 93 133 94
f 94 133 97
f 95 104 96
f 96 104 130
f 97 133 106
f 99 129 134
f 99 134 100
f 100 134 101
f 101 134 135
f 101 135 136
f 101 136 102
f 102 136 137
f 102 137 138
f 102 138 103
f 103 138 104
f 104 139 140
f 104 140 130
f 104 138 139
f 105 108 110
f 105 110 109
f 106 141 107
f 106 133 141
f 107 141 142
f 107 142 143
f 107 143 108
f 108 143 110
f 110 143 111
f 111 143 144
f 111 144 112
f 115 145 116
f 116 145 146
f 116 146 117
f 117 119 118
f 117 146 147
f 117 147 148
f 117 148 119
f 119 148 149
f 119 149 120
f 120 149 150
f 120 150 151
f 120 151 121
f 121 151 152
f 121 152 123
f 123 153 154
f 123 154 124
f 123 152 155
f 123 155 153
f 124 154 156
f 124 156 157
f 124 157 125
f 125 157 158
f 125 158 159
f 125 159 126
f 126 159 127
f 127 159 128
f 128 159 160
f 128 160 161
f 128 161 129
f 129 161 162
f 129 162 134
f 130 163 131
f 130 140 164
f 130 164 163
f 131 165 166
f 131 166 167
f 131 167 132
f 131 163 168
f 131 168 165
f 132 167 133
f 133 167 169
f 133 169 170
f 133 170 141
f 134 171 172
f 134 172 135
f 134 162 173
f 134 173 171
f 135 174 175
f 135 175 136
f 135 172 174
f 136 176 137
f 136 175 176
f 137 176 177
f 137 177 178
f 137 178 138
f 138 178 179
f 138 179 139
f 139 180 140
f 139 179 180
f 140 180 164
f 141 170 142
f 142 170 181
f 142 181 182
f 142 182 183
f 142 183 184
f 142 184 143
f 143 184 144
f 145 185 146
f 146 185 186
f 146 186 147
f 147 186 187
f 147 187 149
f 147 149 148
f 149 187 188
f 149 188 150
f 150 188 189
f 150 189 190
f 150 190 151
f 151 191 192
f 151 192 155
f 151 155 152
f 151 190 191
f 153 155 192
f 153 192 193
f 153 193 194
f 153 194 154
f 154 194 156
f 156 195 157
f 156 194 196
f 156 196 195
f 157 197 158
f 157 195 197
f 158 198 199
f 158 199 160
f 158 160 159
f 158 197 198
f 160 200 201
f 160 201 161
f 160 199 200
f 161 202 203
f 161 203 162
f 161 201 202
f 162 203 204
f 162 204 173
f 163 164 168
f 164 180 205
f 164 205 206
f 164 206 168
f 165 168 207
f 165 207 166
f 166 169 167
f 166 207 208
f 166 208 209
f 166 209 210
f 166 210 169
f 168 206 211
f 168 211 212
f 168 212 213
f 168 213 207
f 169 210 170
f 170 210 181
f 171 214 172
f 171 173 214
f 172 214 174
f 173 204 215
f 173 215 214
f 174 216 175
f 174 214 216
f 175 216 176
f 176 216 177
f 177 217 178
f 177 216 218
f 177 218 217
f 178 219 179
f 178 217 219
f 179 219 205
f 179 205 180
f 181 210 182
f 182 210 183
f 183 210 220
f 186 221 187
f 187 221 189
f 187 189 188
f 189 221 222
f 189 222 190
f 190 222 223
f 190 223 191
f 191 223 224
f 191 224 225
f 191 225 226
f 191 226 227
f 191 227 192
f 192 227 228
f 192 228 193
f 193 228 194
f 194 228 196
f 195 229 197
f 195 196 230
f 195 230 231
f 195 231 229
f 196 228 232
f 196 232 233
f 196 233 230
f 197 229 198
f 198 234 235
f 198 235 199
f 198 229 236
f 198 236 234
f 199 235 237
f 199 237 238
f 199 238 200
f 200 238 201
f 201 238 239
f 201 239 202
f 202 239 240
f 202 240 241
f 202 241 242
f 202 242 204
f 202 204 203
f 204 242 215
f 205 243 206
f 205 219 243
f 206 243 211
f 209 220 210
f 214 215 244
f 214 244 245
f 214 245 246
f 214 246 216
f 215 242 247
f 215 247 244
f 216 246 248
f 216 248 218
f 217 218 249
f 217 249 219
f 218 250 249
f 218 248 251
f 218 251 250
f 219 249 252
f 219 252 243
f 225 232 227
f 225 227 226
f 227 232 228
f 229 253 236
f 229 231 253
f 237 240 238
f 238 240 239
f 241 247 242
