v -0.066904 -0.010181 -0.000442
v -0.067885 -0.010181 -0.000292
v -0.067810 -0.009057 -0.000390
v -0.065435 0.004887 -0.000364
v -0.058393 0.017571 -0.000416
v -0.026168 0.038595 -0.000587
v -0.017606 0.040380 -0.000276
v -0.017550 -0.010181 0.003006
v -0.068760 -0.010110 0.001070
v -0.068509 -0.009057 0.000438
v -0.067774 -0.010181 0.046770
v -0.067764 -0.007654 -0.000374
v -0.065003 0.006362 -0.000354
v -0.059917 0.016284 -0.000390
v -0.066170 0.003967 -0.000230
v -0.054147 0.024533 -0.000354
v -0.027566 0.038595 -0.000545
v -0.026168 0.039719 -0.000452
v -0.024764 0.039826 -0.000478
v -0.035977 0.036835 -0.000395
v -0.020559 0.040731 -0.000209
v -0.017656 0.041138 0.000490
v -0.017550 0.041773 0.006122
v -0.017550 -0.010181 0.052293
v -0.068941 -0.008615 0.001241
v -0.068524 -0.007689 0.000625
v -0.067699 -0.010181 0.048172
v -0.067749 -0.009057 0.048172
v -0.067820 -0.009057 0.046770
v -0.067679 -0.006255 -0.000312
v -0.064811 0.007435 -0.000271
v -0.063403 0.010960 -0.000250
v -0.063725 0.009164 -0.000343
v -0.059550 0.017571 -0.000333
v -0.064620 0.008366 -0.000131
v -0.067543 -0.004480 -0.000209
v -0.067779 -0.002049 0.000702
v -0.067588 -0.000224 0.001106
v -0.066240 0.004887 0.000599
v -0.064877 0.008936 0.000801
v -0.055545 0.023084 -0.000312
v -0.053649 0.025438 -0.000261
v -0.052738 0.025932 -0.000333
v -0.031771 0.038249 -0.000395
v -0.027566 0.039602 -0.000385
v -0.023270 0.040705 0.000034
v -0.051300 0.027335 -0.000307
v -0.038784 0.035523 -0.000349
v -0.040534 0.035157 -0.000219
v -0.037541 0.036540 -0.000214
v -0.033562 0.037990 -0.000255
v -0.021962 0.041021 0.000516
v -0.020559 0.041092 0.000516
v -0.019160 0.041122 0.000516
v -0.017656 0.041423 0.001919
v -0.019160 0.041631 0.006122
v -0.019160 0.041621 0.007524
v -0.017656 0.041748 0.007431
v -0.019160 0.041026 0.048172
v -0.017656 0.041067 0.046770
v -0.017606 0.041041 0.048069
v -0.019160 0.041367 0.001919
v -0.020559 0.041270 0.001919
v -0.021962 0.041153 0.001919
v -0.017636 0.040792 0.052287
v -0.019160 0.040807 0.052293
v -0.067427 -0.010181 0.052293
v -0.068167 -0.003448 0.001919
v -0.067840 -0.007654 0.046770
v -0.067739 -0.006255 0.046770
v -0.067573 -0.005070 0.046770
v -0.067342 -0.003448 0.046770
v -0.066909 -0.000646 0.048172
v -0.067457 -0.009078 0.052293
v -0.067488 -0.007532 0.052293
v -0.067769 -0.007654 0.048172
v -0.060666 0.015893 -0.000281
v -0.063483 0.011880 0.000625
v -0.060465 0.016834 -0.000162
v -0.058951 0.019214 -0.000162
v -0.067930 -0.002049 0.001919
v -0.066637 0.000758 0.048172
v -0.067080 0.002156 0.001919
v -0.066733 0.003560 0.001919
v -0.066124 0.005732 0.001385
v -0.065400 0.007766 0.001919
v -0.064781 0.009373 0.001919
v -0.063322 0.012719 0.001287
v -0.057905 0.020790 -0.000064
v -0.055173 0.024172 0.000133
v -0.053589 0.026084 0.000516
v -0.052391 0.026979 0.000128
v -0.050771 0.028174 -0.000219
v -0.029372 0.039388 -0.000250
v -0.027566 0.040227 0.000516
v -0.024764 0.040685 0.000469
v -0.046777 0.031089 -0.000261
v -0.045112 0.032309 -0.000188
v -0.046043 0.032019 0.000086
v -0.044076 0.033896 0.000847
v -0.041199 0.035249 0.000516
v -0.038447 0.036662 0.000806
v -0.035549 0.038020 0.000961
v -0.034684 0.037949 0.000262
v -0.033175 0.038615 0.000516
v -0.026072 0.040614 0.000920
v -0.020559 0.041478 0.006122
v -0.020559 0.041448 0.008927
v -0.023542 0.040655 0.046770
v -0.022812 0.040716 0.047598
v -0.020559 0.040909 0.048172
v -0.020433 0.040736 0.052293
v -0.067669 -0.006255 0.048172
v -0.067312 -0.004892 0.052293
v -0.067130 -0.003448 0.052293
v -0.066914 -0.002049 0.052293
v -0.066829 -0.000646 0.049575
v -0.067452 -0.006276 0.052293
v -0.061934 0.015537 0.001256
v -0.059137 0.019727 0.001251
v -0.066557 0.000758 0.049575
v -0.066079 0.002039 0.052293
v -0.066250 0.001943 0.049575
v -0.066180 0.002426 0.048172
v -0.066094 0.002823 0.046770
v -0.065486 0.004959 0.046770
v -0.065083 0.006362 0.046770
v -0.064656 0.007649 0.046770
v -0.064263 0.010568 0.001919
v -0.064002 0.009164 0.048172
v -0.063202 0.011041 0.048172
v -0.062769 0.011972 0.048172
v -0.057271 0.021990 0.000516
v -0.055998 0.023516 0.000516
v -0.054630 0.025016 0.000516
v -0.053739 0.026247 0.001919
v -0.051642 0.028332 0.001919
v -0.050550 0.029380 0.001919
v -0.051430 0.028149 0.000516
v -0.050309 0.029171 0.000516
v -0.049453 0.029614 0.000164
v -0.047713 0.030722 -0.000085
v -0.030298 0.039546 0.000495
v -0.028969 0.039917 0.000516
v -0.047160 0.031551 0.000464
v -0.048151 0.031094 0.000847
v -0.046606 0.032385 0.001282
v -0.044438 0.033708 0.001919
v -0.042984 0.034521 0.001919
v -0.041752 0.035177 0.001919
v -0.040182 0.035986 0.001919
v -0.038955 0.036566 0.001919
v -0.031460 0.039414 0.000951
v -0.037783 0.036734 0.038358
v -0.035977 0.037486 0.038358
v -0.034578 0.038386 0.001919
v -0.033175 0.038890 0.001919
v -0.030373 0.039719 0.001919
v -0.026168 0.040304 0.039756
v -0.024764 0.040553 0.039756
v -0.024764 0.040522 0.042567
v -0.024764 0.040472 0.046770
v -0.023366 0.040380 0.052293
v -0.021821 0.040578 0.052293
v -0.066643 -0.000646 0.052293
v -0.060314 0.017983 0.001919
v -0.061974 0.013518 0.048172
v -0.061280 0.014774 0.048172
v -0.060465 0.016127 0.048172
v -0.058715 0.019081 0.038358
v -0.057744 0.020439 0.038358
v -0.057371 0.022041 0.001919
v -0.056380 0.023297 0.001919
v -0.066371 0.000666 0.052293
v -0.065687 0.003524 0.052293
v -0.065853 0.003560 0.048172
v -0.065038 0.006362 0.048172
v -0.064635 0.007593 0.048172
v -0.063569 0.009576 0.052293
v -0.062533 0.011972 0.052293
v -0.061889 0.013340 0.052293
v -0.055088 0.024803 0.001919
v -0.054896 0.023887 0.042924
v -0.053498 0.025291 0.046340
v -0.052105 0.026700 0.047173
v -0.050319 0.028358 0.046770
v -0.048800 0.029665 0.045367
v -0.047220 0.030905 0.046770
v -0.045520 0.032111 0.046770
v -0.044378 0.032884 0.046770
v -0.042864 0.034069 0.038358
v -0.044408 0.033687 0.006122
v -0.041324 0.034954 0.038358
v -0.031867 0.039322 0.001919
v -0.038784 0.036088 0.046770
v -0.037617 0.036586 0.046770
v -0.033175 0.038310 0.048172
v -0.031771 0.038834 0.046770
v -0.035036 0.037817 0.038358
v -0.033175 0.038447 0.039756
v -0.031771 0.038925 0.039756
v -0.030413 0.039307 0.039756
v -0.030569 0.039190 0.046770
v -0.026168 0.040166 0.046770
v -0.029845 0.039180 0.052293
v -0.026168 0.039897 0.052293
v -0.024719 0.040161 0.052293
v -0.059298 0.017866 0.048172
v -0.060858 0.015130 0.052293
v -0.059208 0.017744 0.052293
v -0.058538 0.018975 0.048172
v -0.057598 0.020251 0.048172
v -0.056194 0.022357 0.039756
v -0.065229 0.004959 0.052293
v -0.064731 0.006474 0.052293
v -0.064288 0.007766 0.052293
v -0.054876 0.023862 0.044223
v -0.054831 0.023801 0.046770
v -0.053468 0.025260 0.047722
v -0.051586 0.026827 0.052293
v -0.050610 0.028022 0.048172
v -0.048774 0.029644 0.046770
v -0.047175 0.030865 0.048172
v -0.045484 0.032080 0.048374
v -0.044378 0.032843 0.048172
v -0.043040 0.033718 0.048172
v -0.043070 0.033738 0.046770
v -0.041586 0.034608 0.046770
v -0.040454 0.035238 0.046770
v -0.040052 0.035406 0.048172
v -0.038346 0.036230 0.048172
v -0.034744 0.037685 0.048172
v -0.034433 0.037624 0.052293
v -0.033276 0.038061 0.052293
v -0.031771 0.038809 0.048172
v -0.031771 0.038590 0.052293
v -0.058372 0.018975 0.052293
v -0.057482 0.020149 0.052293
v -0.054791 0.023760 0.048172
v -0.054087 0.024543 0.048172
v -0.052557 0.025820 0.052293
v -0.050092 0.028134 0.052293
v -0.048498 0.029456 0.052293
v -0.046611 0.030992 0.052293
v -0.045726 0.031602 0.052293
v -0.041586 0.034562 0.048172
v -0.044539 0.032375 0.052293
v -0.042909 0.033387 0.052293
v -0.041727 0.034120 0.052293
v -0.040132 0.035035 0.052293
v -0.038784 0.035701 0.052293
v -0.037250 0.036428 0.052293
v -0.035932 0.037003 0.052293
v -0.056536 0.021258 0.052293
f 1 2 3
f 1 3 4
f 1 4 5
f 1 5 6
f 1 6 7
f 1 7 8
f 1 8 24
f 1 24 67
f 1 67 27
f 1 27 11
f 1 11 2
f 2 9 10
f 2 10 3
f 2 11 9
f 3 12 4
f 3 10 12
f 4 13 14
f 4 14 5
f 4 12 15
f 4 15 13
f 5 14 16
f 5 16 6
f 6 17 18
f 6 18 19
f 6 19 7
f 6 16 20
f 6 20 17
f 7 19 21
f 7 21 22
f 7 22 23
f 7 23 8
f 8 23 24
f 9 25 10
f 9 11 25
f 10 25 26
f 10 26 12
f 11 27 28
f 11 28 29
f 11 29 25
f 12 30 15
f 12 26 30
f 13 15 31
f 13 31 32
f 13 32 33
f 13 33 14
f 14 33 32
f 14 32 34
f 14 34 16
f 15 35 31
f 15 30 36
f 15 36 37
f 15 37 38
f 15 38 39
f 15 39 40
f 15 40 35
f 16 34 41
f 16 41 42
f 16 42 43
f 16 43 20
f 17 20 44
f 17 44 18
f 18 44 45
f 18 45 46
f 18 46 21
f 18 21 19
f 20 43 47
f 20 47 48
f 20 48 49
f 20 49 50
f 20 50 51
f 20 51 44
f 21 46 52
f 21 52 53
f 21 53 54
f 21 54 22
f 22 54 55
f 22 55 23
f 23 56 57
f 23 57 58
f 23 58 59
f 23 59 60
f 23 60 61
f 23 61 24
f 23 55 62
f 23 62 63
f 23 63 64
f 23 64 56
f 24 61 65
f 24 65 66
f 24 66 112
f 24 112 164
f 24 164 163
f 24 163 207
f 24 207 206
f 24 206 205
f 24 205 236
f 24 236 234
f 24 234 233
f 24 233 253
f 24 253 252
f 24 252 251
f 24 251 250
f 24 250 249
f 24 249 248
f 24 248 247
f 24 247 245
f 24 245 244
f 24 244 243
f 24 243 242
f 24 242 220
f 24 220 241
f 24 241 254
f 24 254 238
f 24 238 237
f 24 237 210
f 24 210 209
f 24 209 181
f 24 181 180
f 24 180 179
f 24 179 216
f 24 216 215
f 24 215 214
f 24 214 175
f 24 175 122
f 24 122 174
f 24 174 165
f 24 165 116
f 24 116 115
f 24 115 114
f 24 114 118
f 24 118 75
f 24 75 74
f 24 74 67
f 25 68 38
f 25 38 37
f 25 37 26
f 25 29 69
f 25 69 70
f 25 70 71
f 25 71 72
f 25 72 73
f 25 73 68
f 26 37 36
f 26 36 30
f 27 67 28
f 28 67 74
f 28 74 75
f 28 75 76
f 28 76 69
f 28 69 29
f 31 35 32
f 32 77 34
f 32 35 78
f 32 78 79
f 32 79 77
f 34 77 79
f 34 79 80
f 34 80 41
f 35 40 78
f 38 68 81
f 38 81 82
f 38 82 83
f 38 83 84
f 38 84 85
f 38 85 39
f 39 85 40
f 40 85 86
f 40 86 87
f 40 87 88
f 40 88 78
f 41 80 89
f 41 89 42
f 42 47 43
f 42 89 90
f 42 90 91
f 42 91 92
f 42 92 93
f 42 93 47
f 44 51 94
f 44 94 45
f 45 94 46
f 46 94 95
f 46 95 96
f 46 96 52
f 47 93 97
f 47 97 48
f 48 97 49
f 49 98 99
f 49 99 100
f 49 100 101
f 49 101 50
f 49 97 98
f 50 101 102
f 50 102 103
f 50 103 104
f 50 104 51
f 51 104 105
f 51 105 94
f 52 106 64
f 52 64 63
f 52 63 62
f 52 62 53
f 52 96 106
f 53 62 55
f 53 55 54
f 56 107 57
f 56 64 107
f 57 107 108
f 57 108 109
f 57 109 110
f 57 110 111
f 57 111 59
f 57 59 58
f 59 111 112
f 59 112 66
f 59 66 61
f 59 61 60
f 61 66 65
f 64 106 107
f 68 73 81
f 69 76 113
f 69 113 70
f 70 113 114
f 70 114 115
f 70 115 73
f 70 73 71
f 71 73 72
f 73 82 81
f 73 115 116
f 73 116 117
f 73 117 121
f 73 121 82
f 75 118 76
f 76 118 113
f 78 88 119
f 78 119 79
f 79 119 80
f 80 119 120
f 80 120 89
f 82 121 122
f 82 122 123
f 82 123 124
f 82 124 84
f 82 84 83
f 84 124 125
f 84 125 85
f 85 125 126
f 85 126 127
f 85 127 128
f 85 128 86
f 86 128 87
f 87 129 88
f 87 128 130
f 87 130 131
f 87 131 129
f 88 129 131
f 88 131 132
f 88 132 119
f 89 120 133
f 89 133 134
f 89 134 90
f 90 134 135
f 90 135 91
f 91 135 136
f 91 136 137
f 91 137 138
f 91 138 139
f 91 139 92
f 92 139 140
f 92 140 93
f 93 140 141
f 93 141 142
f 93 142 97
f 94 105 143
f 94 143 144
f 94 144 95
f 95 144 106
f 95 106 96
f 97 142 98
f 98 142 99
f 99 142 145
f 99 145 100
f 100 146 147
f 100 147 148
f 100 148 149
f 100 149 150
f 100 150 151
f 100 151 102
f 100 102 101
f 100 145 146
f 102 151 152
f 102 152 103
f 103 153 105
f 103 105 104
f 103 152 154
f 103 154 155
f 103 155 156
f 103 156 157
f 103 157 153
f 105 153 143
f 106 144 153
f 106 153 158
f 106 158 159
f 106 159 160
f 106 160 107
f 107 160 109
f 107 109 108
f 109 160 161
f 109 161 162
f 109 162 163
f 109 163 110
f 110 163 164
f 110 164 112
f 110 112 111
f 113 118 114
f 116 165 121
f 116 121 117
f 119 166 120
f 119 132 167
f 119 167 168
f 119 168 169
f 119 169 166
f 120 166 170
f 120 170 171
f 120 171 172
f 120 172 173
f 120 173 133
f 121 165 174
f 121 174 122
f 122 175 123
f 123 175 124
f 124 175 176
f 124 176 127
f 124 127 126
f 124 126 125
f 127 176 177
f 127 177 178
f 127 178 128
f 128 178 130
f 130 178 179
f 130 179 131
f 131 179 180
f 131 180 132
f 132 180 181
f 132 181 167
f 133 173 134
f 134 173 182
f 134 182 135
f 135 182 136
f 136 182 183
f 136 183 184
f 136 184 185
f 136 185 137
f 137 185 138
f 138 147 146
f 138 146 140
f 138 140 139
f 138 185 186
f 138 186 187
f 138 187 188
f 138 188 147
f 140 146 141
f 141 146 145
f 141 145 142
f 143 153 144
f 147 188 189
f 147 189 190
f 147 190 191
f 147 191 192
f 147 192 148
f 148 192 149
f 149 192 193
f 149 193 150
f 150 193 151
f 151 193 154
f 151 154 152
f 153 157 194
f 153 194 158
f 154 193 195
f 154 195 196
f 154 196 155
f 155 196 197
f 155 197 198
f 155 198 199
f 155 199 157
f 155 157 156
f 157 199 200
f 157 200 201
f 157 201 194
f 158 194 202
f 158 202 159
f 159 202 203
f 159 203 204
f 159 204 162
f 159 162 161
f 159 161 160
f 162 204 205
f 162 205 206
f 162 206 207
f 162 207 163
f 166 169 208
f 166 208 170
f 167 181 168
f 168 181 209
f 168 209 169
f 169 209 210
f 169 210 208
f 170 208 211
f 170 211 171
f 171 173 172
f 171 211 212
f 171 212 183
f 171 183 213
f 171 213 173
f 173 213 183
f 173 183 182
f 175 214 177
f 175 177 176
f 177 214 178
f 178 214 215
f 178 215 216
f 178 216 179
f 183 212 217
f 183 217 184
f 184 217 218
f 184 218 219
f 184 219 185
f 185 219 220
f 185 220 221
f 185 221 186
f 186 221 222
f 186 222 187
f 187 222 188
f 188 222 223
f 188 223 224
f 188 224 189
f 189 224 225
f 189 225 190
f 190 225 226
f 190 226 227
f 190 227 191
f 191 193 192
f 191 227 228
f 191 228 193
f 193 228 229
f 193 229 195
f 194 201 203
f 194 203 202
f 195 229 230
f 195 230 231
f 195 231 196
f 196 231 232
f 196 232 197
f 197 232 233
f 197 233 234
f 197 234 235
f 197 235 198
f 198 203 201
f 198 201 200
f 198 200 199
f 198 235 203
f 203 235 205
f 203 205 204
f 205 235 236
f 208 210 237
f 208 237 211
f 211 237 212
f 212 237 238
f 212 238 218
f 212 218 217
f 218 238 239
f 218 239 219
f 219 239 240
f 219 240 241
f 219 241 220
f 220 242 221
f 221 242 243
f 221 243 223
f 221 223 222
f 223 243 244
f 223 244 224
f 224 244 245
f 224 245 225
f 225 245 226
f 226 246 228
f 226 228 227
f 226 245 247
f 226 247 248
f 226 248 249
f 226 249 246
f 228 246 229
f 229 246 230
f 230 246 250
f 230 250 251
f 230 251 231
f 231 251 252
f 231 252 253
f 231 253 233
f 231 233 232
f 234 236 235
f 238 254 239
f 239 254 241
f 239 241 240
f 246 249 250
