v 0.056846 -0.066096 0.024910
v 0.059906 -0.066206 0.025335
v 0.060063 -0.066224 0.023311
v 0.062073 -0.066417 0.021806
v 0.054561 -0.066261 0.025020
v 0.050736 -0.068716 0.028535
v 0.053148 -0.068945 0.028235
v 0.059906 -0.068001 0.026048
v 0.062044 -0.067205 0.025135
v 0.079903 -0.069467 0.018900
v 0.064898 -0.066426 0.021955
v 0.059141 -0.066866 0.022228
v 0.082100 -0.069485 0.015738
v 0.079315 -0.069467 0.015703
v 0.095743 -0.072563 0.009646
v 0.102667 -0.075156 0.006217
v 0.100744 -0.075449 0.006494
v 0.053639 -0.067772 0.023799
v 0.050736 -0.068661 0.024349
v 0.048823 -0.069266 0.024754
v 0.046813 -0.069247 0.028210
v 0.050736 -0.071061 0.029068
v 0.037613 -0.075256 0.031193
v 0.038516 -0.077171 0.032019
v 0.054168 -0.071061 0.028103
v 0.066026 -0.071061 0.024308
v 0.069066 -0.071061 0.023298
v 0.071498 -0.069009 0.022235
v 0.089456 -0.073195 0.015998
v 0.104766 -0.075311 0.009915
v 0.095458 -0.072426 0.012918
v 0.098204 -0.072563 0.009704
v 0.060063 -0.067928 0.021395
v 0.057130 -0.068414 0.022083
v 0.105717 -0.075009 0.005857
v 0.111827 -0.077501 0.002771
v 0.107953 -0.078298 0.003390
v 0.056110 -0.070328 0.021609
v 0.067183 -0.069348 0.018731
v 0.026158 -0.086056 0.026965
v 0.026158 -0.083354 0.029407
v 0.042399 -0.072069 0.027466
v 0.050736 -0.071061 0.023273
v 0.027423 -0.081549 0.031099
v 0.042046 -0.076163 0.031289
v 0.026158 -0.083326 0.032296
v 0.029346 -0.083281 0.033206
v 0.035456 -0.080221 0.032680
v 0.038516 -0.080221 0.032064
v 0.040987 -0.080221 0.031348
v 0.050736 -0.074111 0.028902
v 0.050216 -0.083281 0.028311
v 0.119585 -0.125161 0.003622
v 0.119791 -0.122981 0.003709
v 0.120526 -0.116880 0.003899
v 0.071802 -0.071061 0.022329
v 0.121556 -0.113812 0.003709
v 0.122439 -0.111366 0.003515
v 0.122527 -0.109332 0.003563
v 0.082287 -0.074111 0.018651
v 0.087387 -0.074111 0.016800
v 0.098155 -0.075522 0.012756
v 0.113612 -0.078444 0.006708
v 0.119791 -0.079433 0.003660
v 0.109630 -0.075440 0.006182
v 0.114887 -0.077610 0.002387
v 0.111827 -0.080221 0.001661
v 0.117937 -0.080734 0.000114
v 0.115397 -0.080652 0.000623
v 0.108777 -0.080221 0.002581
v 0.054600 -0.071794 0.021637
v 0.026158 -0.089391 0.025681
v 0.026158 -0.125106 0.028836
v 0.026197 -0.120004 0.032040
v 0.026227 -0.086331 0.033421
v 0.032406 -0.083281 0.033210
v 0.046048 -0.139387 0.024913
v 0.035456 -0.083281 0.032573
v 0.026227 -0.116880 0.032383
v 0.029051 -0.119931 0.031421
v 0.035456 -0.129100 0.028840
v 0.117515 -0.129100 0.003878
v 0.119340 -0.127195 0.003491
v 0.122605 -0.116880 0.002484
v 0.125587 -0.109296 0.000512
v 0.126352 -0.092441 0.001401
v 0.124155 -0.098551 0.002840
v 0.123792 -0.095262 0.003048
v 0.122625 -0.098551 0.003601
v 0.122605 -0.096123 0.003595
v 0.122448 -0.086331 0.003525
v 0.121478 -0.083281 0.003605
v 0.123312 -0.083281 0.001626
v 0.121850 -0.081302 0.000367
v 0.117937 -0.078701 0.001965
v 0.114377 -0.082997 0.000439
v 0.112621 -0.084013 0.000720
v 0.108777 -0.083281 0.001951
v 0.117937 -0.083281 -0.000491
v 0.120997 -0.083281 -0.000806
v 0.090447 -0.150489 0.002418
v 0.038516 -0.132150 0.020810
v 0.026158 -0.110642 0.025591
v 0.112072 -0.086331 0.000571
v 0.112494 -0.089391 0.000218
v 0.097547 -0.147430 0.000349
v 0.096400 -0.150489 0.000464
v 0.093497 -0.150489 0.001377
v 0.027345 -0.128431 0.028051
v 0.026266 -0.123054 0.031417
v 0.026158 -0.123247 0.026899
v 0.026805 -0.126031 0.026937
v 0.027786 -0.124895 0.031137
v 0.028581 -0.122981 0.031272
v 0.032406 -0.129100 0.029674
v 0.035720 -0.132343 0.028442
v 0.038516 -0.135210 0.027387
v 0.041566 -0.138260 0.026179
v 0.044871 -0.141613 0.024847
v 0.047676 -0.141320 0.024187
v 0.056846 -0.144370 0.021066
v 0.059906 -0.144370 0.020139
v 0.055149 -0.142126 0.021838
v 0.032406 -0.126031 0.029957
v 0.116956 -0.132150 0.003740
v 0.119555 -0.129100 0.002494
v 0.116564 -0.134092 0.003633
v 0.116103 -0.136126 0.003390
v 0.122762 -0.120370 0.000768
v 0.124175 -0.110505 -0.000298
v 0.124047 -0.101610 -0.001322
v 0.126352 -0.092441 -0.000609
v 0.126018 -0.101610 0.000529
v 0.120085 -0.129100 -0.000135
v 0.123155 -0.116880 -0.000170
v 0.126175 -0.089391 0.000405
v 0.125862 -0.087119 0.000464
v 0.124047 -0.089391 0.002754
v 0.124047 -0.092441 0.002916
v 0.126156 -0.098551 0.000495
v 0.126273 -0.095500 0.000453
v 0.123312 -0.083281 -0.000121
v 0.114887 -0.086331 -0.000170
v 0.120997 -0.086331 -0.001419
v 0.117937 -0.086331 -0.000851
v 0.124047 -0.089391 -0.001668
v 0.088073 -0.150489 0.003259
v 0.093497 -0.153539 0.001391
v 0.038516 -0.135210 0.020876
v 0.035564 -0.132150 0.021938
v 0.026158 -0.113683 0.025705
v 0.032406 -0.129100 0.023291
v 0.114887 -0.089391 -0.000439
v 0.099597 -0.147430 -0.000225
v 0.099597 -0.150489 -0.000388
v 0.099597 -0.153539 -0.000408
v 0.096400 -0.153539 0.000464
v 0.030679 -0.134019 0.025636
v 0.030660 -0.133973 0.028196
v 0.026158 -0.119766 0.026366
v 0.030454 -0.132150 0.024623
v 0.035613 -0.135210 0.028072
v 0.038516 -0.138260 0.026878
v 0.041566 -0.141201 0.025494
v 0.052531 -0.145982 0.021952
v 0.054620 -0.144370 0.021716
v 0.066026 -0.147430 0.017873
v 0.113837 -0.147430 0.001180
v 0.116613 -0.140514 0.000574
v 0.119751 -0.131390 0.000685
v 0.113641 -0.140504 0.003667
v 0.112955 -0.143445 0.003390
v 0.123449 -0.113812 -0.000350
v 0.120997 -0.119931 -0.000765
v 0.120997 -0.116880 -0.001069
v 0.117937 -0.129100 -0.001059
v 0.111827 -0.144370 -0.001723
v 0.124047 -0.098551 -0.001540
v 0.124047 -0.095500 -0.001737
v 0.124047 -0.092441 -0.001875
v 0.124263 -0.086194 -0.000654
v 0.113651 -0.148318 0.000211
v 0.114436 -0.144370 -0.000550
v 0.111827 -0.147430 -0.001377
v 0.114887 -0.138260 -0.001221
v 0.120997 -0.089391 -0.001688
v 0.117937 -0.089391 -0.001118
v 0.090447 -0.153539 0.002477
v 0.096625 -0.156599 0.000543
v 0.093497 -0.156599 0.001643
v 0.036760 -0.137381 0.021779
v 0.035740 -0.135210 0.022038
v 0.088269 -0.153539 0.003311
v 0.026158 -0.116752 0.026010
v 0.030150 -0.129100 0.024495
v 0.032406 -0.132150 0.023491
v 0.102667 -0.147430 -0.000931
v 0.102667 -0.150489 -0.001069
v 0.102667 -0.153539 -0.001124
v 0.099597 -0.156599 -0.000291
v 0.033298 -0.137454 0.024339
v 0.031866 -0.135631 0.026467
v 0.036329 -0.140275 0.024768
v 0.033720 -0.137060 0.027252
v 0.037133 -0.139424 0.022014
v 0.038516 -0.140816 0.025730
v 0.049892 -0.145955 0.021730
v 0.067654 -0.152037 0.015804
v 0.060700 -0.148996 0.018873
v 0.069900 -0.151735 0.015690
v 0.062005 -0.147430 0.019025
v 0.072067 -0.150617 0.015420
v 0.079060 -0.152568 0.012918
v 0.111915 -0.150333 0.001633
v 0.110954 -0.152926 0.000484
v 0.110111 -0.148565 0.003505
v 0.109561 -0.150489 0.003290
v 0.108777 -0.150489 -0.001924
v 0.120997 -0.092441 -0.001775
v 0.111915 -0.150333 -0.000585
v 0.105717 -0.150489 -0.001640
v 0.098665 -0.158458 0.000277
v 0.091202 -0.158541 0.003179
v 0.089152 -0.156379 0.003394
v 0.046165 -0.142813 0.018838
v 0.105717 -0.153539 -0.001640
v 0.102667 -0.156599 -0.000803
v 0.042370 -0.143243 0.022149
v 0.049235 -0.145881 0.019018
v 0.058042 -0.149014 0.018412
v 0.086602 -0.158275 0.006591
v 0.090447 -0.158715 0.007324
v 0.094330 -0.158358 0.006805
v 0.086553 -0.155564 0.009912
v 0.093497 -0.156599 0.007532
v 0.107041 -0.154602 0.003477
v 0.104579 -0.158312 0.002830
v 0.108169 -0.155939 0.000612
v 0.109022 -0.153787 -0.000875
v 0.108777 -0.147430 -0.001868
v 0.099597 -0.159677 0.002034
v 0.096645 -0.159246 0.001875
v 0.093497 -0.159063 0.002695
v 0.102667 -0.158687 0.000028
v 0.090290 -0.158852 0.004927
v 0.067428 -0.152074 0.012655
v 0.082071 -0.155509 0.006300
v 0.105844 -0.156819 -0.000509
v 0.093497 -0.159457 0.005089
v 0.096341 -0.159182 0.005224
v 0.099597 -0.159200 0.004421
v 0.102667 -0.158623 0.003920
v 0.104893 -0.156599 0.003792
v 0.102667 -0.159191 0.002034
v 0.104903 -0.158431 0.000201
f 1 2 3
f 1 3 4
f 1 4 5
f 1 5 2
f 2 5 6
f 2 6 7
f 2 7 8
f 2 8 9
f 2 9 10
f 2 10 11
f 2 11 3
f 3 11 4
f 4 12 5
f 4 11 13
f 4 13 14
f 4 14 15
f 4 15 16
f 4 16 17
f 4 17 12
f 5 18 19
f 5 19 20
f 5 20 21
f 5 21 6
f 5 12 18
f 6 22 7
f 6 21 23
f 6 23 24
f 6 24 22
f 7 22 25
f 7 25 8
f 8 25 26
f 8 26 27
f 8 27 28
f 8 28 9
f 9 28 10
f 10 13 11
f 10 28 29
f 10 29 30
f 10 30 31
f 10 31 32
f 10 32 13
f 12 33 34
f 12 34 19
f 12 19 18
f 12 17 33
f 13 32 14
f 14 32 15
f 15 32 35
f 15 35 16
f 16 35 36
f 16 36 17
f 17 36 37
f 17 37 38
f 17 38 39
f 17 39 33
f 19 34 20
f 20 40 41
f 20 41 42
f 20 42 21
f 20 34 38
f 20 38 43
f 20 43 40
f 21 42 44
f 21 44 23
f 22 24 45
f 22 45 25
f 23 44 46
f 23 46 47
f 23 47 24
f 24 47 48
f 24 48 49
f 24 49 45
f 25 45 49
f 25 49 50
f 25 50 51
f 25 51 52
f 25 52 53
f 25 53 54
f 25 54 55
f 25 55 26
f 26 55 27
f 27 56 28
f 27 55 57
f 27 57 58
f 27 58 59
f 27 59 60
f 27 60 56
f 28 56 29
f 29 56 61
f 29 61 62
f 29 62 30
f 30 62 63
f 30 63 64
f 30 64 65
f 30 65 31
f 31 65 32
f 32 65 35
f 33 38 34
f 33 39 38
f 35 65 66
f 35 66 36
f 36 67 37
f 36 66 68
f 36 68 69
f 36 69 67
f 37 67 70
f 37 70 71
f 37 71 38
f 38 71 43
f 40 72 103
f 40 103 151
f 40 151 194
f 40 194 160
f 40 160 111
f 40 111 73
f 40 73 46
f 40 46 41
f 40 43 72
f 41 46 44
f 41 44 42
f 43 71 72
f 46 73 74
f 46 74 75
f 46 75 47
f 47 75 76
f 47 76 48
f 48 76 49
f 49 77 50
f 49 76 78
f 49 78 79
f 49 79 80
f 49 80 81
f 49 81 77
f 50 77 52
f 50 52 51
f 52 77 53
f 53 82 83
f 53 83 84
f 53 84 58
f 53 58 57
f 53 57 55
f 53 55 54
f 53 77 82
f 56 60 61
f 58 84 85
f 58 85 86
f 58 86 59
f 59 86 87
f 59 87 88
f 59 88 89
f 59 89 61
f 59 61 60
f 61 89 62
f 62 89 90
f 62 90 91
f 62 91 63
f 63 91 92
f 63 92 64
f 64 92 93
f 64 93 94
f 64 94 95
f 64 95 65
f 65 95 66
f 66 95 68
f 67 69 96
f 67 96 97
f 67 97 98
f 67 98 70
f 68 99 69
f 68 95 94
f 68 94 100
f 68 100 99
f 69 99 96
f 70 98 72
f 70 72 71
f 72 101 102
f 72 102 103
f 72 98 104
f 72 104 105
f 72 105 106
f 72 106 107
f 72 107 108
f 72 108 101
f 73 109 110
f 73 110 74
f 73 111 112
f 73 112 109
f 74 79 75
f 74 110 113
f 74 113 114
f 74 114 79
f 75 79 76
f 76 79 78
f 77 81 115
f 77 115 116
f 77 116 117
f 77 117 118
f 77 118 119
f 77 119 120
f 77 120 121
f 77 121 122
f 77 122 123
f 77 123 82
f 79 114 80
f 80 114 124
f 80 124 81
f 81 124 115
f 82 125 83
f 82 123 122
f 82 122 125
f 83 126 84
f 83 125 127
f 83 127 128
f 83 128 126
f 84 129 85
f 84 126 129
f 85 130 131
f 85 131 132
f 85 132 133
f 85 133 86
f 85 129 134
f 85 134 135
f 85 135 130
f 86 132 136
f 86 136 137
f 86 137 91
f 86 91 138
f 86 138 139
f 86 139 87
f 86 133 140
f 86 140 141
f 86 141 132
f 87 139 88
f 88 139 89
f 89 139 90
f 90 139 91
f 91 139 138
f 91 137 92
f 92 137 93
f 93 137 142
f 93 142 94
f 94 142 100
f 96 99 97
f 97 99 143
f 97 143 104
f 97 104 98
f 99 100 144
f 99 144 145
f 99 145 143
f 100 142 146
f 100 146 144
f 101 147 102
f 101 108 148
f 101 148 147
f 102 149 150
f 102 150 103
f 102 147 149
f 103 150 152
f 103 152 151
f 104 143 153
f 104 153 105
f 105 154 106
f 105 153 154
f 106 154 107
f 107 154 155
f 107 155 156
f 107 156 157
f 107 157 108
f 108 157 148
f 109 158 159
f 109 159 110
f 109 112 158
f 110 159 113
f 111 160 161
f 111 161 112
f 112 161 158
f 113 159 162
f 113 162 115
f 113 115 114
f 114 115 124
f 115 162 117
f 115 117 116
f 117 162 118
f 118 162 119
f 119 162 163
f 119 163 164
f 119 164 165
f 119 165 120
f 120 165 166
f 120 166 121
f 121 166 167
f 121 167 122
f 122 167 125
f 125 167 127
f 126 128 168
f 126 168 169
f 126 169 170
f 126 170 129
f 127 171 172
f 127 172 128
f 127 167 171
f 128 172 168
f 129 170 134
f 130 135 173
f 130 173 131
f 131 173 135
f 131 135 174
f 131 174 175
f 131 175 176
f 131 176 177
f 131 177 178
f 131 178 132
f 132 179 180
f 132 180 146
f 132 146 181
f 132 181 137
f 132 137 136
f 132 141 140
f 132 140 133
f 132 178 179
f 134 170 169
f 134 169 182
f 134 182 183
f 134 183 184
f 134 184 185
f 134 185 176
f 134 176 174
f 134 174 135
f 137 181 142
f 142 181 146
f 143 145 153
f 144 186 145
f 144 146 186
f 145 186 187
f 145 187 153
f 146 180 186
f 147 148 188
f 147 188 149
f 148 157 189
f 148 189 190
f 148 190 188
f 149 191 192
f 149 192 150
f 149 188 193
f 149 193 191
f 150 192 152
f 151 152 195
f 151 195 194
f 152 196 195
f 152 192 196
f 153 187 197
f 153 197 154
f 154 197 155
f 155 197 198
f 155 198 199
f 155 199 156
f 156 200 157
f 156 199 200
f 157 200 189
f 158 161 201
f 158 201 202
f 158 202 159
f 159 202 203
f 159 203 204
f 159 204 162
f 160 194 161
f 161 195 196
f 161 196 191
f 161 191 205
f 161 205 201
f 161 194 195
f 162 204 163
f 163 204 206
f 163 206 164
f 164 206 165
f 165 207 208
f 165 208 209
f 165 209 210
f 165 210 211
f 165 211 166
f 165 206 207
f 166 211 167
f 167 211 212
f 167 212 213
f 167 213 171
f 168 172 214
f 168 214 215
f 168 215 182
f 168 182 169
f 171 216 172
f 171 213 216
f 172 216 217
f 172 217 214
f 174 176 175
f 176 185 177
f 177 184 218
f 177 218 180
f 177 180 179
f 177 179 178
f 177 185 184
f 180 219 186
f 180 218 219
f 182 215 220
f 182 220 183
f 183 220 184
f 184 220 218
f 186 219 221
f 186 221 197
f 186 197 187
f 188 190 193
f 189 200 222
f 189 222 190
f 190 223 224
f 190 224 191
f 190 191 193
f 190 222 223
f 191 224 225
f 191 225 205
f 191 196 192
f 197 221 198
f 198 221 199
f 199 221 226
f 199 226 200
f 200 226 227
f 200 227 222
f 201 203 202
f 201 205 203
f 203 205 228
f 203 228 206
f 203 206 204
f 205 225 229
f 205 229 228
f 206 228 207
f 207 230 208
f 207 228 229
f 207 229 230
f 208 231 232
f 208 232 210
f 208 210 209
f 208 230 231
f 210 232 233
f 210 233 234
f 210 234 213
f 210 213 212
f 210 212 211
f 213 234 235
f 213 235 236
f 213 236 216
f 214 217 236
f 214 236 215
f 215 236 237
f 215 237 238
f 215 238 239
f 215 239 220
f 216 236 217
f 218 239 226
f 218 226 221
f 218 221 240
f 218 240 219
f 218 220 239
f 219 240 221
f 222 241 242
f 222 242 243
f 222 243 223
f 222 227 244
f 222 244 241
f 223 243 245
f 223 245 231
f 223 231 246
f 223 246 247
f 223 247 224
f 224 247 225
f 225 247 229
f 226 239 248
f 226 248 227
f 227 248 244
f 229 247 246
f 229 246 230
f 230 246 231
f 231 245 249
f 231 249 232
f 232 249 250
f 232 250 251
f 232 251 233
f 233 251 252
f 233 252 253
f 233 253 235
f 233 235 234
f 235 253 236
f 236 253 237
f 237 253 252
f 237 252 254
f 237 254 255
f 237 255 238
f 238 255 239
f 239 255 248
f 241 244 255
f 241 255 254
f 241 254 251
f 241 251 249
f 241 249 243
f 241 243 242
f 243 249 245
f 244 248 255
f 249 251 250
f 251 254 252
