v -0.095888 -0.051963 0.011194
v -0.095888 -0.052295 0.008141
v -0.095888 -0.052682 0.014249
v -0.063412 -0.060224 0.010075
v -0.063050 -0.060128 0.008141
v -0.063214 -0.060190 0.006191
v -0.095888 -0.052302 0.008119
v -0.095888 -0.053778 0.016381
v -0.066820 -0.060344 0.012749
v -0.064785 -0.060611 0.012113
v -0.062361 -0.061211 0.011136
v -0.057679 -0.063369 0.009772
v -0.061520 -0.060663 0.008141
v -0.062242 -0.061122 0.005138
v -0.065369 -0.060728 0.004260
v -0.095888 -0.053487 0.005511
v -0.095888 -0.055244 0.017908
v -0.064445 -0.063643 0.015626
v -0.065634 -0.061957 0.014188
v -0.062317 -0.062759 0.013458
v -0.060641 -0.063310 0.012836
v -0.057679 -0.064177 0.011416
v -0.057679 -0.063201 0.008247
v -0.059964 -0.062612 0.005086
v -0.060607 -0.063211 0.003372
v -0.062317 -0.062728 0.002889
v -0.065369 -0.062255 0.002433
v -0.095888 -0.054627 0.003965
v -0.095888 -0.054614 0.003983
v -0.095888 -0.056772 0.019184
v -0.093992 -0.057148 0.018942
v -0.065425 -0.064776 0.016453
v -0.063282 -0.065681 0.016199
v -0.057679 -0.065516 0.013225
v -0.085382 -0.060440 0.018793
v -0.057679 -0.063653 0.007088
v -0.057679 -0.064485 0.005010
v -0.062238 -0.064934 0.001310
v -0.057679 -0.065924 0.003211
v -0.057679 -0.066503 0.002739
v -0.063207 -0.065944 0.000214
v -0.065369 -0.064078 0.000906
v -0.095888 -0.056141 0.002662
v -0.095888 -0.058834 0.020170
v -0.087421 -0.060043 0.019027
v -0.065369 -0.067999 0.017699
v -0.077588 -0.063845 0.018681
v -0.068424 -0.064944 0.017185
v -0.063035 -0.067999 0.016561
v -0.057679 -0.066674 0.013263
v -0.079144 -0.063434 0.018827
v -0.057679 -0.067883 0.002076
v -0.057679 -0.069575 0.001371
v -0.062668 -0.067999 -0.000163
v -0.065369 -0.067999 -0.000860
v -0.065369 -0.065605 0.000057
v -0.073010 -0.063416 0.000504
v -0.095888 -0.056165 0.002649
v -0.095888 -0.061889 0.021112
v -0.092862 -0.061889 0.020680
v -0.089807 -0.061889 0.020173
v -0.086542 -0.061632 0.019508
v -0.071480 -0.064944 0.017836
v -0.073144 -0.066599 0.018809
v -0.068660 -0.068260 0.018400
v -0.069834 -0.069452 0.018847
v -0.067916 -0.071051 0.018722
v -0.065369 -0.071051 0.018005
v -0.075183 -0.066006 0.018982
v -0.074311 -0.064968 0.018438
v -0.057679 -0.067780 0.013274
v -0.057679 -0.071017 0.000989
v -0.057679 -0.072562 0.000764
v -0.065369 -0.071051 -0.001455
v -0.071480 -0.067999 -0.001026
v -0.074536 -0.064944 -0.000188
v -0.074536 -0.063321 0.000450
v -0.095888 -0.059032 0.001090
v -0.095888 -0.064944 0.021401
v -0.092862 -0.064944 0.021121
v -0.089807 -0.064944 0.020799
v -0.086755 -0.064944 0.020462
v -0.083699 -0.064944 0.020013
v -0.077588 -0.067999 0.019643
v -0.080643 -0.067999 0.020002
v -0.068394 -0.073963 0.018670
v -0.083699 -0.067999 0.020328
v -0.071480 -0.071051 0.019099
v -0.069393 -0.072850 0.018872
v -0.057679 -0.085317 0.013153
v -0.057679 -0.074107 0.000614
v -0.065369 -0.074107 -0.001451
v -0.068424 -0.074107 -0.001547
v -0.068424 -0.071051 -0.001511
v -0.074536 -0.067999 -0.001053
v -0.095888 -0.061327 0.000598
v -0.095888 -0.067999 0.021071
v -0.092862 -0.067999 0.020952
v -0.089807 -0.067999 0.020799
v -0.086755 -0.067999 0.020604
v -0.071480 -0.073370 0.018969
v -0.071480 -0.074898 0.018717
v -0.068424 -0.077162 0.018045
v -0.074536 -0.071051 0.019404
v -0.077588 -0.071051 0.019654
v -0.057679 -0.086537 0.011075
v -0.068424 -0.080217 0.016871
v -0.066711 -0.081950 0.015923
v -0.068424 -0.081985 0.015950
v -0.070197 -0.084879 0.012825
v -0.057679 -0.074836 0.000623
v -0.065369 -0.077162 -0.000835
v -0.068424 -0.077162 -0.001087
v -0.057679 -0.077152 0.000726
v -0.057679 -0.078621 0.000962
v -0.071480 -0.074107 -0.001358
v -0.074536 -0.071051 -0.001347
v -0.071480 -0.071051 -0.001455
v -0.095888 -0.061889 0.000562
v -0.095888 -0.071051 0.020114
v -0.092862 -0.071051 0.020155
v -0.089807 -0.071051 0.020173
v -0.086755 -0.071051 0.020130
v -0.083699 -0.071051 0.020009
v -0.080643 -0.071051 0.019863
v -0.074536 -0.073802 0.019085
v -0.074536 -0.075329 0.018769
v -0.071480 -0.077162 0.018068
v -0.057679 -0.086804 0.009485
v -0.068424 -0.086115 0.008141
v -0.074536 -0.077162 0.018061
v -0.080643 -0.075309 0.018713
v -0.089807 -0.073391 0.019270
v -0.095888 -0.073048 0.019151
v -0.070403 -0.081861 0.015862
v -0.071319 -0.085160 0.011030
v -0.095888 -0.074576 0.017769
v -0.095888 -0.076001 0.016242
v -0.095888 -0.077152 0.014247
v -0.066715 -0.081895 0.000398
v -0.057679 -0.080217 0.001308
v -0.067328 -0.081895 0.000398
v -0.068379 -0.080340 -0.000056
v -0.071480 -0.077162 -0.000714
v -0.074536 -0.074107 -0.001116
v -0.095888 -0.067999 0.000690
v -0.095888 -0.067441 0.000670
v -0.095888 -0.064944 0.000605
v -0.077588 -0.075364 0.018755
v -0.057679 -0.086955 0.008245
v -0.071480 -0.085598 0.008141
v -0.071480 -0.085211 0.005783
v -0.068495 -0.085417 0.004835
v -0.073200 -0.084869 0.009902
v -0.091688 -0.078772 0.012890
v -0.095888 -0.078066 0.011194
v -0.066708 -0.084886 0.003444
v -0.057679 -0.081919 0.002058
v -0.057679 -0.083286 0.002728
v -0.057679 -0.084321 0.003413
v -0.057679 -0.084680 0.003680
v -0.067527 -0.084886 0.003444
v -0.069565 -0.084738 0.003649
v -0.071480 -0.082882 0.002501
v -0.095888 -0.075651 0.003550
v -0.094949 -0.075799 0.003399
v -0.095888 -0.074411 0.002627
v -0.095888 -0.074357 0.002588
v -0.095888 -0.074319 0.002564
v -0.082592 -0.075799 0.000416
v -0.080643 -0.076145 0.000248
v -0.077588 -0.076751 0.000010
v -0.074783 -0.077443 -0.000150
v -0.077588 -0.074107 -0.000738
v -0.095888 -0.070801 0.000949
v -0.057679 -0.086448 0.006787
v -0.073219 -0.084882 0.006434
v -0.095888 -0.077967 0.008141
v -0.091669 -0.078779 0.006448
v -0.095888 -0.076593 0.004891
v -0.057679 -0.085153 0.004338
v -0.057679 -0.085670 0.005080
v -0.095888 -0.071062 0.001016
f 1 2 7
f 1 7 16
f 1 16 29
f 1 29 28
f 1 28 43
f 1 43 58
f 1 58 78
f 1 78 96
f 1 96 119
f 1 119 148
f 1 148 147
f 1 147 146
f 1 146 175
f 1 175 183
f 1 183 169
f 1 169 168
f 1 168 167
f 1 167 165
f 1 165 180
f 1 180 178
f 1 178 156
f 1 156 139
f 1 139 138
f 1 138 137
f 1 137 134
f 1 134 120
f 1 120 97
f 1 97 79
f 1 79 59
f 1 59 44
f 1 44 30
f 1 30 17
f 1 17 8
f 1 8 3
f 1 3 4
f 1 4 5
f 1 5 6
f 1 6 2
f 2 6 7
f 3 8 9
f 3 9 10
f 3 10 4
f 4 10 11
f 4 11 12
f 4 12 13
f 4 13 5
f 5 13 6
f 6 13 14
f 6 14 15
f 6 15 16
f 6 16 7
f 8 17 18
f 8 18 19
f 8 19 9
f 9 19 10
f 10 19 20
f 10 20 11
f 11 20 21
f 11 21 22
f 11 22 12
f 12 22 34
f 12 34 50
f 12 50 71
f 12 71 90
f 12 90 106
f 12 106 129
f 12 129 150
f 12 150 176
f 12 176 182
f 12 182 181
f 12 181 161
f 12 161 160
f 12 160 159
f 12 159 158
f 12 158 141
f 12 141 115
f 12 115 114
f 12 114 111
f 12 111 91
f 12 91 73
f 12 73 72
f 12 72 53
f 12 53 52
f 12 52 40
f 12 40 39
f 12 39 37
f 12 37 36
f 12 36 23
f 12 23 13
f 13 23 24
f 13 24 14
f 14 24 25
f 14 25 26
f 14 26 15
f 15 26 27
f 15 27 28
f 15 28 29
f 15 29 16
f 17 30 31
f 17 31 18
f 18 32 33
f 18 33 34
f 18 34 20
f 18 20 19
f 18 31 30
f 18 30 35
f 18 35 32
f 20 34 21
f 21 34 22
f 23 36 24
f 24 36 37
f 24 37 25
f 25 38 26
f 25 37 39
f 25 39 40
f 25 40 38
f 26 38 41
f 26 41 42
f 26 42 27
f 27 42 43
f 27 43 28
f 30 44 45
f 30 45 35
f 32 46 33
f 32 35 47
f 32 47 48
f 32 48 46
f 33 49 34
f 33 46 49
f 34 49 50
f 35 45 51
f 35 51 47
f 38 40 41
f 40 52 41
f 41 52 53
f 41 53 54
f 41 54 55
f 41 55 56
f 41 56 42
f 42 56 57
f 42 57 43
f 43 57 58
f 44 59 60
f 44 60 61
f 44 61 62
f 44 62 51
f 44 51 45
f 46 48 63
f 46 63 64
f 46 64 65
f 46 65 66
f 46 66 67
f 46 67 68
f 46 68 49
f 47 51 69
f 47 69 64
f 47 64 70
f 47 70 63
f 47 63 48
f 49 71 50
f 49 68 71
f 51 62 61
f 51 61 69
f 53 72 54
f 54 72 73
f 54 73 74
f 54 74 55
f 55 74 75
f 55 75 76
f 55 76 56
f 56 76 77
f 56 77 57
f 57 77 78
f 57 78 58
f 59 79 80
f 59 80 81
f 59 81 82
f 59 82 60
f 60 82 83
f 60 83 69
f 60 69 61
f 63 70 64
f 64 66 65
f 64 69 83
f 64 83 82
f 64 82 66
f 66 82 84
f 66 84 85
f 66 85 67
f 67 86 68
f 67 85 87
f 67 87 88
f 67 88 89
f 67 89 86
f 68 86 90
f 68 90 71
f 73 91 74
f 74 92 93
f 74 93 94
f 74 94 75
f 74 91 92
f 75 95 78
f 75 78 76
f 75 94 95
f 76 78 77
f 78 95 96
f 79 97 98
f 79 98 99
f 79 99 100
f 79 100 87
f 79 87 80
f 80 87 81
f 81 87 85
f 81 85 82
f 82 85 84
f 86 89 101
f 86 101 102
f 86 102 103
f 86 103 90
f 87 100 104
f 87 104 88
f 88 104 89
f 89 104 100
f 89 100 105
f 89 105 101
f 90 103 107
f 90 107 108
f 90 108 109
f 90 109 110
f 90 110 106
f 91 111 92
f 92 112 113
f 92 113 93
f 92 111 114
f 92 114 115
f 92 115 112
f 93 113 116
f 93 116 117
f 93 117 118
f 93 118 94
f 94 118 95
f 95 118 117
f 95 117 96
f 96 117 119
f 97 120 121
f 97 121 122
f 97 122 123
f 97 123 98
f 98 123 124
f 98 124 125
f 98 125 99
f 99 125 100
f 100 125 105
f 101 126 102
f 101 105 125
f 101 125 126
f 102 126 127
f 102 127 103
f 103 127 128
f 103 128 107
f 106 110 130
f 106 130 129
f 107 128 131
f 107 131 132
f 107 132 133
f 107 133 134
f 107 134 109
f 107 109 108
f 109 135 110
f 109 134 135
f 110 136 130
f 110 135 137
f 110 137 138
f 110 138 139
f 110 139 136
f 112 140 113
f 112 115 141
f 112 141 140
f 113 140 142
f 113 142 143
f 113 143 144
f 113 144 145
f 113 145 116
f 116 145 117
f 117 145 146
f 117 146 147
f 117 147 148
f 117 148 119
f 120 134 133
f 120 133 132
f 120 132 149
f 120 149 121
f 121 149 122
f 122 149 127
f 122 127 123
f 123 127 126
f 123 126 124
f 124 126 125
f 127 149 128
f 128 149 131
f 129 130 150
f 130 136 151
f 130 151 152
f 130 152 153
f 130 153 150
f 131 149 132
f 134 137 135
f 136 154 151
f 136 139 155
f 136 155 156
f 136 156 154
f 139 156 155
f 140 157 162
f 140 162 142
f 140 141 158
f 140 158 159
f 140 159 160
f 140 160 161
f 140 161 157
f 142 162 163
f 142 163 164
f 142 164 165
f 142 165 166
f 142 166 167
f 142 167 168
f 142 168 169
f 142 169 170
f 142 170 143
f 143 170 171
f 143 171 172
f 143 172 173
f 143 173 144
f 144 173 172
f 144 172 171
f 144 171 174
f 144 174 145
f 145 174 175
f 145 175 146
f 150 153 176
f 151 177 152
f 151 154 156
f 151 156 178
f 151 178 177
f 152 163 153
f 152 177 179
f 152 179 180
f 152 180 163
f 153 163 162
f 153 162 176
f 157 161 181
f 157 181 182
f 157 182 162
f 162 182 176
f 163 180 165
f 163 165 164
f 165 167 166
f 169 183 170
f 170 183 174
f 170 174 171
f 174 183 175
f 177 178 179
f 178 180 179
