v -0.021417 -0.087759 0.211316
v -0.037424 -0.089901 0.210805
v -0.036357 -0.091492 0.210490
v -0.010753 -0.089901 0.210938
v -0.006484 -0.089901 0.210915
v -0.018216 -0.087759 0.211269
v -0.020350 0.023192 0.210899
v -0.022484 -0.000297 0.210994
v -0.041692 0.005060 0.210915
v -0.041692 -0.012017 0.210962
v -0.043826 -0.053605 0.210821
v -0.041692 -0.090745 0.210592
v -0.002216 -0.091606 0.210537
v -0.043826 -0.094089 0.208980
v 0.004180 -0.092060 0.210341
v -0.002216 -0.089901 0.210813
v -0.016081 0.018923 0.210805
v -0.018216 0.021065 0.210852
v -0.041692 0.010400 0.210883
v -0.016081 0.025334 0.210773
v -0.019283 0.058952 0.210616
v -0.043826 0.027461 0.210655
v -0.045379 -0.055748 0.210459
v -0.044609 -0.066429 0.210608
v -0.044914 -0.007764 0.210577
v -0.044734 -0.090908 0.210183
v 0.011650 -0.093927 0.207832
v -0.047243 -0.092872 0.207777
v -0.044741 -0.095209 0.205810
v -0.011820 -0.095453 0.205496
v -0.000456 -0.095388 0.205393
v 0.008982 -0.092093 0.210120
v 0.005247 -0.089901 0.210553
v 0.000985 -0.089901 0.210710
v 0.011158 -0.016611 0.210144
v 0.008448 0.024263 0.210010
v 0.000985 0.059472 0.210042
v -0.004648 0.057345 0.210231
v -0.004787 0.060316 0.210199
v -0.015548 0.060153 0.210451
v -0.043639 0.062264 0.210042
v -0.043681 0.059472 0.210136
v -0.044894 0.049878 0.210183
v -0.046321 -0.087759 0.209570
v 0.013784 -0.094187 0.204851
v 0.014227 -0.092661 0.208186
v 0.007381 -0.095242 0.205008
v 0.010292 -0.095144 0.204465
v -0.047811 -0.089901 0.204851
v -0.047603 -0.092953 0.204851
v -0.047402 -0.093878 0.201649
v -0.046460 -0.094950 0.202719
v -0.046155 0.063741 0.207957
v -0.046979 0.060446 0.206180
v -0.045004 -0.095388 0.201649
v -0.041692 -0.095550 0.202719
v -0.018216 -0.095761 0.202719
v -0.008619 -0.095810 0.202719
v -0.002216 -0.095794 0.202184
v 0.002579 -0.095550 0.203710
v 0.011664 -0.091151 0.210010
v 0.013784 0.018923 0.209633
v 0.013784 0.032801 0.209586
v 0.011650 0.022120 0.209885
v 0.009515 0.029604 0.209932
v 0.010583 0.060543 0.209578
v 0.002046 0.061598 0.209853
v 0.008448 0.063741 0.209066
v -0.041692 0.067702 0.207737
v -0.045143 0.066241 0.207706
v -0.045517 0.034928 0.209468
v 0.013181 -0.094998 0.196977
v 0.015156 -0.093554 0.195247
v 0.015911 -0.090956 0.204851
v 0.015648 -0.088830 0.207320
v 0.013784 -0.089901 0.209295
v 0.005247 -0.095534 0.202719
v 0.009515 -0.096962 0.134438
v 0.011650 -0.096687 0.138701
v -0.047991 -0.089901 0.198448
v -0.047880 -0.092028 0.200587
v -0.047610 0.050398 0.201649
v -0.047742 0.044538 0.200587
v -0.047915 0.035999 0.195247
v -0.047929 -0.092028 0.197378
v -0.046273 -0.094771 0.181372
v -0.047804 -0.092482 0.193107
v -0.047284 -0.092612 0.138701
v -0.047236 -0.092596 0.134438
v -0.044970 -0.095258 0.165782
v -0.046896 0.065251 0.201303
v -0.047139 0.064585 0.197378
v -0.044201 -0.095502 0.186713
v -0.043826 -0.095566 0.189906
v -0.040625 -0.095648 0.196316
v -0.026753 -0.095891 0.198448
v -0.020350 -0.095891 0.200587
v -0.016081 -0.095924 0.200587
v -0.011286 -0.095956 0.199518
v -0.004884 -0.095924 0.199518
v 0.000985 -0.095761 0.200587
v 0.013784 -0.010962 0.209586
v 0.015593 0.031730 0.208744
v 0.015613 0.034928 0.208736
v 0.015731 0.048807 0.208665
v 0.013784 0.046664 0.209460
v 0.011650 0.031730 0.209806
v 0.013784 0.058417 0.209326
v 0.014726 0.061598 0.208870
v 0.011650 0.063741 0.208949
v 0.011650 0.065104 0.208288
v -0.007551 0.067848 0.205763
v -0.024618 0.068659 0.204851
v -0.027820 0.068724 0.204851
v -0.034222 0.068741 0.204851
v -0.038491 0.068302 0.205912
v -0.045205 0.067134 0.203781
v 0.000985 0.066419 0.207470
v 0.014615 -0.095047 0.160040
v 0.013632 -0.095664 0.153638
v 0.014692 -0.095047 0.156847
v 0.015260 -0.093683 0.185643
v 0.015766 -0.092028 0.185643
v 0.017068 -0.086103 0.203568
v 0.017262 -0.083489 0.204331
v 0.019133 0.053076 0.204953
v 0.017796 0.054147 0.206801
v 0.015502 0.018923 0.208736
v 0.002046 -0.097060 0.130969
v 0.010583 -0.096914 0.130969
v 0.013514 -0.095891 0.141902
v -0.049065 -0.033347 0.134438
v -0.048074 -0.089901 0.193107
v -0.047707 0.050933 0.193107
v -0.047811 0.044538 0.197378
v -0.047367 0.064114 0.186713
v -0.048913 0.004394 0.130969
v -0.049093 -0.024792 0.130969
v -0.048060 -0.089901 0.183503
v -0.047852 -0.092028 0.183503
v -0.046598 -0.093164 0.131638
v -0.047839 -0.089901 0.149375
v -0.047610 -0.089901 0.130969
v -0.028083 -0.095729 0.130969
v -0.043826 -0.094950 0.142972
v -0.042759 -0.094852 0.131638
v -0.039558 -0.095128 0.130969
v -0.045801 0.066695 0.196316
v -0.046370 0.066273 0.171776
v -0.047215 0.065202 0.170722
v -0.003283 -0.096865 0.130969
v -0.041692 -0.095631 0.192038
v -0.018216 -0.095989 0.198448
v 0.016736 0.058417 0.207769
v 0.016833 0.062394 0.206683
v 0.014151 0.065007 0.207611
v 0.003522 0.067166 0.205684
v 0.006155 0.067004 0.204733
v 0.011650 0.066614 0.136569
v 0.000057 0.066955 0.131921
v -0.007094 0.067117 0.130969
v -0.013947 0.067231 0.130969
v -0.016885 0.067280 0.130969
v -0.039960 0.067653 0.130969
v -0.042960 0.067507 0.130969
v -0.044901 0.067263 0.135500
v -0.045323 0.067182 0.156847
v -0.045358 0.067150 0.162172
v 0.013957 -0.095047 0.130969
v 0.014969 -0.094317 0.152041
v 0.015218 -0.093992 0.158979
v 0.015579 -0.092888 0.177101
v 0.015835 -0.092028 0.172838
v 0.017671 -0.083489 0.201649
v 0.018046 -0.080292 0.201649
v 0.020505 0.031730 0.200587
v 0.019944 0.044538 0.202719
v 0.019702 0.050398 0.203545
v 0.019168 0.055657 0.203938
v -0.049107 -0.035733 0.130969
v -0.049065 -0.042940 0.130969
v -0.049037 -0.045732 0.130969
v -0.048996 -0.049336 0.130969
v -0.048961 -0.052144 0.130969
v -0.048906 -0.055342 0.130969
v -0.048857 -0.057874 0.130969
v -0.048732 -0.062809 0.130969
v -0.047742 0.050933 0.185643
v -0.047859 0.045609 0.187774
v -0.047901 0.042395 0.189906
v -0.048788 0.014199 0.130969
v -0.048843 0.010400 0.130969
v -0.048878 0.007592 0.130969
v -0.047319 0.064488 0.177101
v -0.048254 0.033873 0.130969
v -0.048642 0.021455 0.130969
v -0.047901 -0.089901 0.155777
v -0.048649 -0.065617 0.130969
v -0.048559 -0.068555 0.130969
v -0.048400 -0.073685 0.130969
v -0.048247 -0.077094 0.130969
v -0.047936 -0.083489 0.130969
v -0.047845 -0.085632 0.132298
v -0.046425 0.066224 0.162172
v -0.046882 0.063384 0.130969
v -0.047534 0.050933 0.130969
v -0.046758 0.065283 0.134524
v 0.018316 0.059472 0.201649
v 0.017027 0.062718 0.197260
v 0.015454 0.065299 0.155777
v 0.014179 0.066127 0.137631
v 0.012516 0.066484 0.131307
v 0.016064 0.061598 0.130969
v -0.045850 0.066387 0.131968
v 0.014512 -0.092028 0.130969
v 0.015717 -0.092482 0.167513
v 0.018600 -0.076558 0.199518
v 0.019411 -0.051479 0.198448
v 0.020755 0.016796 0.198448
v 0.021046 0.030659 0.198102
v 0.020554 0.034928 0.200587
v 0.020526 0.046664 0.200587
v 0.019896 0.053076 0.201649
v 0.020374 0.049878 0.200587
v 0.019320 0.056209 0.200587
v -0.048712 0.018257 0.130969
v -0.047783 0.045609 0.130969
v -0.047929 0.042395 0.130969
v -0.048046 0.039603 0.130969
v 0.015787 0.064439 0.131307
v 0.016285 0.063741 0.155777
v 0.015392 0.065413 0.142972
v 0.015419 0.065364 0.149375
v 0.021482 0.038580 0.190976
v 0.021524 0.034928 0.187774
v 0.021323 -0.007764 0.188860
v 0.020679 -0.030133 0.187774
v 0.019806 -0.056819 0.189906
v 0.019729 -0.059481 0.190976
v 0.019584 -0.063215 0.192038
v 0.019355 -0.066429 0.192038
v 0.019223 -0.069351 0.195058
v 0.019411 -0.066429 0.194177
v 0.019743 -0.057874 0.194177
v 0.019861 -0.051479 0.195247
v 0.021281 0.027461 0.196466
v 0.021531 0.038126 0.195121
v 0.021392 0.040691 0.194885
v 0.020644 0.047735 0.198448
v 0.021683 0.032801 0.190976
v 0.021614 0.025870 0.193107
v 0.020020 -0.049336 0.194177
v 0.020803 -0.028006 0.189906
v 0.020124 -0.049336 0.190976
v 0.021614 0.033873 0.194177
f 1 2 3
f 1 3 4
f 1 4 5
f 1 5 6
f 1 6 7
f 1 7 8
f 1 8 9
f 1 9 10
f 1 10 11
f 1 11 2
f 2 12 3
f 2 11 12
f 3 13 4
f 3 12 14
f 3 14 15
f 3 15 13
f 4 13 5
f 5 13 15
f 5 15 16
f 5 16 6
f 6 16 17
f 6 17 18
f 6 18 7
f 7 19 9
f 7 9 8
f 7 18 20
f 7 20 21
f 7 21 19
f 9 19 22
f 9 22 10
f 10 22 11
f 11 23 24
f 11 24 12
f 11 22 25
f 11 25 23
f 12 26 14
f 12 24 26
f 14 27 15
f 14 26 28
f 14 28 29
f 14 29 30
f 14 30 31
f 14 31 27
f 15 27 32
f 15 32 33
f 15 33 34
f 15 34 16
f 16 34 35
f 16 35 17
f 17 35 20
f 17 20 18
f 19 21 22
f 20 35 36
f 20 36 37
f 20 37 38
f 20 38 21
f 21 38 39
f 21 39 40
f 21 40 41
f 21 41 42
f 21 42 22
f 22 43 25
f 22 42 43
f 23 44 26
f 23 26 24
f 23 25 43
f 23 43 44
f 26 44 28
f 27 45 46
f 27 46 32
f 27 31 47
f 27 47 48
f 27 48 45
f 28 49 50
f 28 50 51
f 28 51 52
f 28 52 29
f 28 44 53
f 28 53 54
f 28 54 49
f 29 55 56
f 29 56 57
f 29 57 30
f 29 52 55
f 30 57 58
f 30 58 31
f 31 58 59
f 31 59 60
f 31 60 47
f 32 46 61
f 32 61 33
f 33 61 35
f 33 35 34
f 35 62 63
f 35 63 64
f 35 64 65
f 35 65 36
f 35 61 62
f 36 65 37
f 37 66 67
f 37 67 39
f 37 39 38
f 37 65 66
f 39 67 40
f 40 67 41
f 41 53 43
f 41 43 42
f 41 67 68
f 41 68 69
f 41 69 70
f 41 70 53
f 43 71 44
f 43 53 71
f 44 71 53
f 45 48 72
f 45 72 73
f 45 73 74
f 45 74 46
f 46 74 75
f 46 75 76
f 46 76 61
f 47 60 77
f 47 77 48
f 48 77 78
f 48 78 79
f 48 79 72
f 49 80 81
f 49 81 50
f 49 54 82
f 49 82 83
f 49 83 84
f 49 84 80
f 50 81 85
f 50 85 51
f 51 86 52
f 51 85 87
f 51 87 88
f 51 88 89
f 51 89 86
f 52 86 90
f 52 90 55
f 53 70 91
f 53 91 54
f 54 91 92
f 54 92 82
f 55 90 93
f 55 93 94
f 55 94 56
f 56 94 95
f 56 95 96
f 56 96 97
f 56 97 57
f 57 97 98
f 57 98 58
f 58 98 99
f 58 99 100
f 58 100 59
f 59 100 101
f 59 101 77
f 59 77 60
f 61 76 102
f 61 102 62
f 62 102 103
f 62 103 104
f 62 104 105
f 62 105 63
f 63 105 106
f 63 106 107
f 63 107 64
f 64 107 65
f 65 107 66
f 66 107 106
f 66 106 108
f 66 108 109
f 66 109 110
f 66 110 67
f 67 110 68
f 68 111 69
f 68 110 111
f 69 112 113
f 69 113 114
f 69 114 115
f 69 115 116
f 69 116 117
f 69 117 70
f 69 111 118
f 69 118 112
f 70 117 91
f 72 119 73
f 72 79 120
f 72 120 119
f 73 119 121
f 73 121 122
f 73 122 74
f 74 123 124
f 74 124 75
f 74 122 123
f 75 124 125
f 75 125 126
f 75 126 127
f 75 127 76
f 76 127 128
f 76 128 103
f 76 103 102
f 77 101 78
f 78 129 130
f 78 130 79
f 78 101 100
f 78 100 129
f 79 130 131
f 79 131 120
f 80 132 133
f 80 133 81
f 80 84 132
f 81 133 85
f 82 134 135
f 82 135 83
f 82 92 136
f 82 136 134
f 83 135 84
f 84 135 137
f 84 137 138
f 84 138 132
f 85 133 139
f 85 139 140
f 85 140 87
f 86 89 141
f 86 141 90
f 87 140 88
f 88 140 142
f 88 142 89
f 89 142 143
f 89 143 141
f 90 144 94
f 90 94 93
f 90 141 145
f 90 145 146
f 90 146 147
f 90 147 144
f 91 117 148
f 91 148 149
f 91 149 150
f 91 150 92
f 92 150 136
f 94 144 151
f 94 151 129
f 94 129 152
f 94 152 95
f 95 152 129
f 95 129 96
f 96 129 153
f 96 153 97
f 97 153 98
f 98 153 99
f 99 153 129
f 99 129 100
f 103 128 127
f 103 127 104
f 104 127 105
f 105 127 154
f 105 154 109
f 105 109 108
f 105 108 106
f 109 154 155
f 109 155 156
f 109 156 110
f 110 156 111
f 111 156 157
f 111 157 118
f 112 118 157
f 112 157 158
f 112 158 159
f 112 159 113
f 113 159 160
f 113 160 161
f 113 161 114
f 114 161 162
f 114 162 163
f 114 163 164
f 114 164 115
f 115 164 165
f 115 165 116
f 116 165 166
f 116 166 167
f 116 167 117
f 117 167 168
f 117 168 148
f 119 120 131
f 119 131 121
f 121 169 170
f 121 170 171
f 121 171 122
f 121 131 169
f 122 172 123
f 122 171 172
f 123 172 173
f 123 173 124
f 124 174 125
f 124 173 174
f 125 174 175
f 125 175 176
f 125 176 177
f 125 177 178
f 125 178 126
f 126 178 179
f 126 179 155
f 126 155 154
f 126 154 127
f 129 151 144
f 129 144 147
f 129 147 143
f 129 143 202
f 129 202 201
f 129 201 200
f 129 200 199
f 129 199 198
f 129 198 187
f 129 187 186
f 129 186 185
f 129 185 184
f 129 184 183
f 129 183 182
f 129 182 181
f 129 181 180
f 129 180 138
f 129 138 137
f 129 137 193
f 129 193 192
f 129 192 191
f 129 191 226
f 129 226 196
f 129 196 195
f 129 195 229
f 129 229 228
f 129 228 227
f 129 227 206
f 129 206 205
f 129 205 165
f 129 165 164
f 129 164 163
f 129 163 162
f 129 162 161
f 129 161 213
f 129 213 215
f 129 215 169
f 129 169 130
f 130 169 131
f 132 138 180
f 132 180 133
f 133 180 181
f 133 181 182
f 133 182 183
f 133 183 184
f 133 184 185
f 133 185 186
f 133 186 187
f 133 187 139
f 134 188 189
f 134 189 135
f 134 136 188
f 135 190 191
f 135 191 192
f 135 192 193
f 135 193 137
f 135 189 190
f 136 150 194
f 136 194 195
f 136 195 196
f 136 196 188
f 139 197 140
f 139 187 198
f 139 198 199
f 139 199 200
f 139 200 197
f 140 197 142
f 141 147 146
f 141 146 145
f 141 143 147
f 142 197 201
f 142 201 202
f 142 202 203
f 142 203 143
f 143 203 202
f 148 168 149
f 149 168 167
f 149 167 204
f 149 204 150
f 150 205 206
f 150 206 194
f 150 204 207
f 150 207 205
f 155 179 208
f 155 208 209
f 155 209 156
f 156 209 210
f 156 210 211
f 156 211 158
f 156 158 157
f 158 211 159
f 159 211 212
f 159 212 160
f 160 212 161
f 161 212 213
f 165 214 166
f 165 205 214
f 166 214 167
f 167 214 204
f 169 215 170
f 170 215 216
f 170 216 171
f 171 216 172
f 172 216 173
f 173 216 174
f 174 217 175
f 174 216 217
f 175 217 218
f 175 218 219
f 175 219 176
f 176 219 220
f 176 220 221
f 176 221 177
f 177 221 222
f 177 222 178
f 178 223 179
f 178 222 224
f 178 224 223
f 179 225 208
f 179 223 225
f 188 196 189
f 189 196 226
f 189 226 191
f 189 191 190
f 194 206 227
f 194 227 228
f 194 228 229
f 194 229 195
f 197 200 201
f 204 214 207
f 205 207 214
f 208 225 230
f 208 230 231
f 208 231 209
f 209 231 232
f 209 232 233
f 209 233 210
f 210 233 211
f 211 233 232
f 211 232 230
f 211 230 212
f 212 230 213
f 213 230 234
f 213 234 235
f 213 235 236
f 213 236 215
f 215 236 237
f 215 237 238
f 215 238 239
f 215 239 240
f 215 240 241
f 215 241 242
f 215 242 217
f 215 217 216
f 217 242 243
f 217 243 244
f 217 244 245
f 217 245 218
f 218 245 246
f 218 246 219
f 219 246 220
f 220 246 247
f 220 247 222
f 220 222 221
f 222 247 224
f 223 224 230
f 223 230 225
f 224 247 248
f 224 248 249
f 224 249 230
f 230 249 248
f 230 248 234
f 230 232 231
f 234 248 247
f 234 247 250
f 234 250 235
f 235 250 236
f 236 250 251
f 236 251 252
f 236 252 253
f 236 253 237
f 237 253 254
f 237 254 238
f 238 254 239
f 239 254 240
f 240 254 244
f 240 244 243
f 240 243 241
f 241 243 242
f 244 254 252
f 244 252 245
f 245 252 246
f 246 251 255
f 246 255 247
f 246 252 251
f 247 255 250
f 250 255 251
f 252 254 253
