v -0.041032 0.067595 0.130961
v -0.016079 0.067272 0.130961
v -0.039562 0.067725 0.125862
v -0.039562 0.067805 0.115201
v -0.043827 0.067466 0.123730
v -0.046159 0.064978 0.130961
v -0.006688 0.067094 0.130961
v -0.032089 0.067951 0.001039
v -0.043827 0.067434 0.031977
v -0.045167 0.067159 0.087455
v -0.046289 0.065139 0.112539
v -0.046731 0.063749 0.085323
v -0.047600 0.049610 0.130961
v -0.001669 0.066997 0.125439
v -0.000272 0.066933 0.130961
v -0.038295 0.067644 0.000761
v 0.013790 0.066383 0.089588
v -0.008570 0.066949 -0.001106
v -0.026753 0.067644 -0.000033
v -0.033154 0.067159 -0.001265
v -0.044935 0.066997 0.024521
v -0.045094 0.067111 0.059736
v -0.045131 0.067143 0.071444
v -0.045920 0.065882 0.072516
v -0.045319 0.064961 0.001980
v -0.046926 0.058950 0.002748
v -0.047723 0.053342 0.006906
v -0.048194 0.049335 0.011171
v -0.048049 0.039607 0.130961
v -0.048519 0.044277 0.013038
v -0.049272 0.030751 0.030441
v 0.014355 0.064735 0.129889
v 0.015499 0.065511 0.117333
v 0.009518 -0.096976 0.130961
v -0.040627 0.062683 -0.002192
v 0.015615 0.065575 0.089588
v 0.015745 0.065527 0.061868
v 0.014949 0.065543 0.003715
v -0.021416 0.066820 -0.001464
v 0.010503 0.065543 0.000563
v 0.002045 0.065462 -0.001371
v -0.008831 0.060598 -0.003742
v -0.033154 0.065882 -0.001954
v -0.043096 0.056671 -0.001795
v -0.048027 -0.006691 0.008509
v -0.048476 0.017452 0.009847
v -0.048005 0.045602 0.007449
v -0.042046 -0.089639 -0.002536
v -0.045369 -0.086747 0.001529
v -0.046456 -0.076016 0.004244
v -0.048773 0.038669 0.013846
v -0.048251 0.033870 0.130961
v -0.049229 0.031042 0.021528
v -0.048534 0.025855 0.129067
v -0.049685 0.017856 0.026653
v 0.016289 0.063749 0.117333
v 0.013790 -0.094616 0.130167
v 0.015557 0.065527 0.106659
v 0.016600 0.063749 0.095998
v 0.016846 0.064460 0.053339
v -0.047889 -0.084565 0.130961
v -0.042459 -0.094875 0.130749
v -0.028881 -0.095683 0.130551
v 0.002313 -0.097089 0.129372
v 0.010315 -0.097137 0.124803
v -0.022654 0.062440 -0.003159
v -0.031018 0.061616 -0.002828
v -0.033422 0.009857 -0.003768
v -0.041691 0.050935 -0.002324
v 0.018707 0.060081 0.008085
v 0.019619 0.053310 0.003039
v 0.015354 0.058368 0.000483
v -0.026753 0.065139 -0.002271
v 0.006542 0.062360 -0.001331
v -0.005420 0.055217 -0.003900
v -0.021416 0.010390 -0.004298
v -0.026753 0.009323 -0.004165
v -0.041691 0.044552 -0.002417
v -0.041691 0.037070 -0.002523
v -0.041691 0.028521 -0.002576
v -0.041097 -0.052552 -0.003079
v -0.048440 -0.006691 0.010641
v -0.048802 0.008257 0.012164
v -0.049193 0.018922 0.015714
v -0.049135 0.024416 0.015528
v -0.040590 -0.059485 -0.003252
v -0.033183 -0.088686 -0.003715
v -0.040293 -0.094277 -0.001093
v -0.045934 -0.088104 0.010443
v -0.046340 -0.081899 0.006377
v -0.047230 -0.071217 0.009780
v -0.047549 -0.061085 0.009582
v -0.048671 0.020086 0.130961
v -0.049787 0.012507 0.027713
v -0.049808 0.008257 0.038387
v -0.049685 0.006124 0.057604
v 0.020814 -0.022657 0.068252
v 0.021821 -0.012024 0.057604
v 0.022074 -0.006158 0.054399
v 0.023414 -0.001730 0.035460
v 0.023711 0.009582 0.024521
v 0.023544 0.017856 0.021740
v 0.023544 0.024400 0.015277
v 0.022639 0.039203 0.008509
v 0.021198 0.049464 0.007449
v 0.015108 -0.095408 0.090660
v 0.015796 -0.093744 0.103070
v 0.023435 -0.044214 0.030494
v 0.022603 -0.036538 0.044797
v 0.021683 -0.028006 0.057604
v -0.048353 -0.074885 0.130961
v -0.048722 -0.066418 0.087455
v -0.048136 -0.069617 0.051207
v -0.047042 -0.091029 0.097401
v -0.047230 -0.091869 0.123730
v -0.047115 -0.091417 0.130749
v -0.036079 -0.095327 0.124803
v -0.046955 -0.092936 0.123730
v -0.044848 -0.094196 0.123200
v -0.027817 -0.094972 -0.000033
v -0.018208 -0.095150 0.003172
v 0.015123 -0.095376 0.061868
v 0.015115 -0.095392 0.068252
v 0.015130 -0.095408 0.081059
v -0.003921 -0.095247 0.001967
v 0.015086 -0.095360 0.055472
v -0.033154 -0.006691 -0.003848
v -0.035290 -0.002409 -0.003662
v -0.037173 0.003974 -0.003384
v 0.021582 0.044778 0.005542
v 0.022501 0.039203 0.006377
v 0.019750 -0.084824 0.001688
v 0.017020 -0.054993 -0.001106
v 0.016810 0.024255 0.000192
v 0.016737 0.034937 0.000364
v 0.015919 -0.015191 -0.000801
v -0.003820 0.022655 -0.004033
v -0.005420 0.012507 -0.004298
v -0.012893 0.010390 -0.004311
v -0.019280 -0.035472 -0.004338
v -0.024616 -0.062151 -0.004192
v -0.028881 -0.055736 -0.004086
v -0.029953 -0.031739 -0.004046
v -0.038845 -0.013090 -0.003278
v -0.040199 -0.028006 -0.003185
v -0.049229 -0.002958 0.016402
v -0.048505 -0.025857 0.012773
v -0.049294 0.008257 0.017038
v -0.049584 0.006124 0.022388
v -0.035290 -0.013090 -0.003689
v -0.026753 -0.086698 -0.004073
v -0.016217 -0.086440 -0.004218
v -0.002451 -0.091239 -0.003225
v -0.026217 -0.094035 -0.001967
v -0.046021 -0.089898 0.021316
v -0.046658 -0.082965 0.014641
v -0.046970 -0.077843 0.012164
v -0.048056 -0.063218 0.017038
v -0.048403 -0.046412 0.014376
v -0.048831 0.011650 0.130551
v -0.048910 0.005251 0.130551
v -0.049091 -0.024386 0.130961
v -0.049692 -0.005625 0.025580
v -0.049794 0.006124 0.029845
v -0.049852 -0.007758 0.037857
v -0.049873 -0.009891 0.052267
v -0.049837 -0.008824 0.058663
v -0.049721 -0.014141 0.082661
v -0.049685 -0.008549 0.078913
v -0.049613 -0.007758 0.085323
v 0.021654 -0.020653 0.058928
v 0.022233 -0.013090 0.052267
v 0.022089 -0.018665 0.053869
v 0.022545 -0.008824 0.047989
v 0.024073 -0.004558 0.021051
v 0.023993 0.000258 0.022388
v 0.022755 -0.017066 0.044797
v 0.022842 -0.024790 0.043195
v 0.022878 -0.031480 0.042122
v 0.023551 -0.022657 0.030918
v 0.024029 0.006382 0.017581
v 0.023892 0.013056 0.015714
v 0.023674 0.019068 0.011648
v 0.023204 0.026388 0.008337
v 0.017331 -0.093566 0.026653
v 0.017042 -0.093194 0.065047
v 0.016730 -0.092031 0.088528
v 0.023197 -0.056802 0.013846
v 0.023457 -0.048803 0.014667
v 0.023631 -0.040934 0.018389
v 0.023790 -0.032272 0.020256
v 0.023964 -0.018391 0.021859
v 0.024029 -0.013090 0.021316
v 0.022762 -0.065092 0.013303
v 0.022226 -0.025194 0.051459
v -0.048700 -0.063880 0.130961
v -0.049164 -0.054653 0.106606
v -0.049453 -0.049870 0.072516
v -0.048715 -0.061085 0.053339
v -0.047781 -0.069617 0.023448
v -0.018208 -0.095020 -0.000033
v 0.006318 -0.094325 -0.001278
v 0.021676 -0.076938 0.007171
v 0.020735 -0.084032 0.005317
v 0.018960 -0.090205 0.004562
v 0.012357 -0.092920 -0.001172
v 0.023609 0.012507 0.009979
v -0.004884 -0.086165 -0.004086
v -0.003284 -0.060018 -0.004099
v -0.048939 -0.041338 0.019183
v -0.049439 -0.013074 0.020256
v -0.047614 -0.070684 0.017038
v -0.048505 -0.058952 0.029315
v -0.048954 -0.051082 0.033182
v -0.048490 -0.053619 0.019183
v -0.049634 -0.015724 0.091720
v -0.049577 -0.019473 0.098130
v -0.049403 -0.024790 0.113612
v -0.049280 -0.031205 0.124803
v -0.049099 -0.035730 0.130961
v -0.049663 -0.015191 0.026653
v -0.049700 -0.026939 0.034123
v -0.049902 -0.026939 0.051207
v -0.049888 -0.028539 0.058398
v -0.049837 -0.026406 0.076781
v -0.049794 -0.017324 0.076781
v -0.049779 -0.022657 0.084250
v 0.024065 0.000775 0.014906
v 0.023964 0.000775 0.012773
v 0.022987 -0.056802 0.010641
v 0.023479 -0.041338 0.012005
v 0.022335 -0.069617 0.009317
v 0.023877 -0.025857 0.017038
v 0.024029 -0.004558 0.014111
v -0.048961 -0.056819 0.122671
v -0.049062 -0.043406 0.130961
v -0.048918 -0.054702 0.130696
v -0.049091 -0.053619 0.117333
v -0.049490 -0.046137 0.089588
v -0.049533 -0.046137 0.081588
v -0.049316 -0.044004 0.038387
v -0.049758 -0.034405 0.052267
v 0.023580 -0.019473 0.011171
v -0.049178 -0.043519 0.031447
v -0.049200 -0.038671 0.026335
v -0.049359 -0.025323 0.021898
v -0.049504 -0.033339 0.107189
v -0.049214 -0.039285 0.126644
v -0.049461 -0.035472 0.033050
v -0.049714 -0.032805 0.043724
v -0.049591 -0.042420 0.085853
v -0.049591 -0.039738 0.090660
v 0.023942 -0.013624 0.013846
v -0.049403 -0.040012 0.110659
f 1 2 3
f 1 3 4
f 1 4 5
f 1 5 6
f 1 6 13
f 1 13 29
f 1 29 52
f 1 52 93
f 1 93 162
f 1 162 220
f 1 220 236
f 1 236 196
f 1 196 111
f 1 111 61
f 1 61 34
f 1 34 15
f 1 15 7
f 1 7 2
f 2 7 4
f 2 4 3
f 4 8 9
f 4 9 5
f 4 7 8
f 5 9 10
f 5 10 6
f 6 10 11
f 6 11 12
f 6 12 13
f 7 14 8
f 7 15 14
f 8 16 9
f 8 14 17
f 8 17 18
f 8 18 19
f 8 19 20
f 8 20 16
f 9 16 21
f 9 21 22
f 9 22 23
f 9 23 10
f 10 23 24
f 10 24 11
f 11 24 12
f 12 25 26
f 12 26 27
f 12 27 28
f 12 28 13
f 12 24 25
f 13 28 30
f 13 30 31
f 13 31 29
f 14 15 17
f 15 32 33
f 15 33 17
f 15 34 32
f 16 20 35
f 16 35 25
f 16 25 21
f 17 33 36
f 17 36 37
f 17 37 38
f 17 38 18
f 18 39 20
f 18 20 19
f 18 38 40
f 18 40 41
f 18 41 42
f 18 42 39
f 20 39 43
f 20 43 35
f 21 24 22
f 21 25 24
f 22 24 23
f 25 35 44
f 25 44 26
f 26 45 46
f 26 46 47
f 26 47 27
f 26 44 48
f 26 48 49
f 26 49 50
f 26 50 45
f 27 47 51
f 27 51 30
f 27 30 28
f 29 31 52
f 30 51 53
f 30 53 31
f 31 54 52
f 31 53 55
f 31 55 54
f 32 56 33
f 32 34 57
f 32 57 56
f 33 58 36
f 33 56 59
f 33 59 60
f 33 60 58
f 34 61 62
f 34 62 63
f 34 63 64
f 34 64 65
f 34 65 57
f 35 43 66
f 35 66 67
f 35 67 68
f 35 68 69
f 35 69 44
f 36 58 60
f 36 60 37
f 37 60 38
f 38 60 70
f 38 70 71
f 38 71 72
f 38 72 40
f 39 42 73
f 39 73 43
f 40 72 74
f 40 74 41
f 41 74 42
f 42 66 73
f 42 74 75
f 42 75 76
f 42 76 77
f 42 77 66
f 43 73 66
f 44 69 78
f 44 78 79
f 44 79 80
f 44 80 81
f 44 81 48
f 45 82 46
f 45 50 82
f 46 82 83
f 46 83 84
f 46 84 47
f 47 84 85
f 47 85 51
f 48 81 86
f 48 86 87
f 48 87 88
f 48 88 49
f 49 88 89
f 49 89 90
f 49 90 50
f 50 90 91
f 50 91 92
f 50 92 82
f 51 85 53
f 52 54 93
f 53 85 55
f 54 55 93
f 55 85 94
f 55 94 95
f 55 95 96
f 55 96 93
f 56 57 97
f 56 97 98
f 56 98 99
f 56 99 100
f 56 100 101
f 56 101 102
f 56 102 103
f 56 103 104
f 56 104 105
f 56 105 59
f 57 65 106
f 57 106 107
f 57 107 108
f 57 108 109
f 57 109 110
f 57 110 97
f 59 105 70
f 59 70 60
f 61 111 112
f 61 112 113
f 61 113 114
f 61 114 115
f 61 115 116
f 61 116 62
f 62 117 63
f 62 116 118
f 62 118 119
f 62 119 88
f 62 88 117
f 63 117 64
f 64 117 120
f 64 120 121
f 64 121 65
f 65 122 123
f 65 123 124
f 65 124 106
f 65 121 125
f 65 125 126
f 65 126 122
f 66 77 67
f 67 77 68
f 68 77 127
f 68 127 128
f 68 128 129
f 68 129 79
f 68 79 78
f 68 78 69
f 70 105 71
f 71 105 130
f 71 130 131
f 71 131 132
f 71 132 133
f 71 133 134
f 71 134 135
f 71 135 72
f 72 135 136
f 72 136 74
f 74 136 75
f 75 137 138
f 75 138 139
f 75 139 76
f 75 136 137
f 76 139 140
f 76 140 77
f 77 140 141
f 77 141 142
f 77 142 143
f 77 143 127
f 79 129 144
f 79 144 145
f 79 145 80
f 80 145 86
f 80 86 81
f 82 146 83
f 82 92 147
f 82 147 146
f 83 146 84
f 84 146 148
f 84 148 149
f 84 149 94
f 84 94 85
f 86 145 128
f 86 128 150
f 86 150 143
f 86 143 142
f 86 142 87
f 87 151 152
f 87 152 153
f 87 153 154
f 87 154 88
f 87 142 151
f 88 154 120
f 88 120 117
f 88 119 118
f 88 118 155
f 88 155 89
f 89 156 90
f 89 155 156
f 90 156 157
f 90 157 91
f 91 158 92
f 91 157 158
f 92 158 159
f 92 159 147
f 93 96 160
f 93 160 161
f 93 161 162
f 94 149 163
f 94 163 164
f 94 164 165
f 94 165 166
f 94 166 95
f 95 166 167
f 95 167 168
f 95 168 96
f 96 168 169
f 96 169 170
f 96 170 160
f 97 110 171
f 97 171 98
f 98 172 99
f 98 171 173
f 98 173 172
f 99 172 174
f 99 174 100
f 100 175 176
f 100 176 101
f 100 174 177
f 100 177 178
f 100 178 179
f 100 179 180
f 100 180 175
f 101 181 182
f 101 182 102
f 101 176 181
f 102 182 103
f 103 182 183
f 103 183 104
f 104 131 105
f 104 183 184
f 104 184 131
f 105 131 130
f 106 124 185
f 106 185 186
f 106 186 107
f 107 186 187
f 107 187 108
f 108 188 189
f 108 189 190
f 108 190 191
f 108 191 192
f 108 192 193
f 108 193 180
f 108 180 179
f 108 179 109
f 108 187 194
f 108 194 188
f 109 179 195
f 109 195 110
f 110 195 171
f 111 196 197
f 111 197 198
f 111 198 112
f 112 199 113
f 112 198 199
f 113 199 200
f 113 200 156
f 113 156 114
f 114 155 118
f 114 118 115
f 114 156 155
f 115 118 116
f 120 201 125
f 120 125 121
f 120 154 201
f 122 124 123
f 122 126 185
f 122 185 124
f 125 201 202
f 125 202 126
f 126 202 185
f 127 150 128
f 127 143 150
f 128 145 144
f 128 144 129
f 131 184 132
f 132 203 204
f 132 204 205
f 132 205 206
f 132 206 133
f 132 184 207
f 132 207 203
f 133 136 134
f 133 206 208
f 133 208 209
f 133 209 138
f 133 138 137
f 133 137 136
f 134 136 135
f 138 209 208
f 138 208 152
f 138 152 140
f 138 140 139
f 140 152 141
f 141 152 151
f 141 151 142
f 146 147 159
f 146 159 210
f 146 210 211
f 146 211 148
f 148 211 149
f 149 211 163
f 152 208 153
f 153 208 206
f 153 206 202
f 153 202 154
f 154 202 201
f 156 200 212
f 156 212 157
f 157 212 158
f 158 213 214
f 158 214 215
f 158 215 210
f 158 210 159
f 158 212 200
f 158 200 213
f 160 170 161
f 161 170 216
f 161 216 217
f 161 217 218
f 161 218 219
f 161 219 162
f 162 219 220
f 163 211 221
f 163 221 165
f 163 165 164
f 165 221 222
f 165 222 223
f 165 223 166
f 166 223 224
f 166 224 225
f 166 225 226
f 166 226 167
f 167 226 168
f 168 170 169
f 168 226 227
f 168 227 216
f 168 216 170
f 171 195 173
f 172 173 178
f 172 178 177
f 172 177 174
f 173 195 178
f 175 228 181
f 175 181 176
f 175 180 193
f 175 193 228
f 178 195 179
f 181 228 182
f 182 228 183
f 183 228 229
f 183 229 207
f 183 207 184
f 185 202 206
f 185 206 205
f 185 205 186
f 186 205 204
f 186 204 187
f 187 204 203
f 187 203 194
f 188 230 231
f 188 231 189
f 188 194 232
f 188 232 230
f 189 231 233
f 189 233 190
f 190 233 191
f 191 233 192
f 192 233 193
f 193 234 228
f 193 233 234
f 194 203 232
f 196 235 197
f 196 236 237
f 196 237 235
f 197 238 239
f 197 239 240
f 197 240 198
f 197 235 238
f 198 241 214
f 198 214 199
f 198 240 224
f 198 224 242
f 198 242 241
f 199 213 200
f 199 214 213
f 203 230 232
f 203 207 230
f 207 229 243
f 207 243 230
f 210 215 214
f 210 214 244
f 210 244 245
f 210 245 222
f 210 222 246
f 210 246 211
f 211 246 221
f 214 241 244
f 216 227 217
f 217 227 218
f 218 227 219
f 219 227 247
f 219 247 248
f 219 248 220
f 220 248 236
f 221 246 222
f 222 245 249
f 222 249 250
f 222 250 223
f 223 250 242
f 223 242 224
f 224 240 251
f 224 251 225
f 225 251 252
f 225 252 247
f 225 247 227
f 225 227 226
f 228 234 229
f 229 234 253
f 229 253 231
f 229 231 243
f 230 243 231
f 231 253 233
f 233 253 234
f 235 237 238
f 236 248 237
f 237 248 254
f 237 254 238
f 238 254 239
f 239 254 251
f 239 251 240
f 241 249 244
f 241 242 250
f 241 250 249
f 244 249 245
f 247 252 254
f 247 254 248
f 251 254 252
