v 0.012288 -0.002102 0.079172
v 0.012532 -0.002651 0.079595
v 0.013155 -0.002952 0.079183
v 0.012639 -0.002174 0.078122
v 0.011947 -0.002117 0.076441
v -0.034616 -0.002102 0.071730
v -0.034616 -0.002102 0.076633
v 0.010593 -0.002336 0.080029
v 0.011606 -0.002336 0.079879
v 0.012882 -0.003587 0.079881
v 0.013155 -0.005650 0.080078
v 0.014441 -0.021562 0.077166
v 0.013155 -0.002814 0.077565
v 0.012551 -0.002332 0.077042
v 0.013077 -0.003320 0.076581
v 0.009804 -0.004399 0.071730
v 0.009297 -0.003859 0.071730
v 0.008761 -0.003363 0.071730
v 0.008235 -0.002914 0.071730
v 0.007397 -0.002260 0.071730
v -0.072196 -0.004203 0.071730
v -0.077915 -0.004151 0.077129
v -0.077973 -0.004151 0.079476
v -0.077116 -0.004193 0.080312
v 0.012882 -0.004590 0.080073
v -0.077808 -0.004996 0.080486
v 0.014441 -0.044640 0.080070
v 0.015270 -0.045862 0.079004
v -0.081267 -0.010729 0.080580
v -0.080244 -0.045437 0.080661
v 0.015425 -0.045953 0.077883
v 0.014441 -0.021557 0.076431
v 0.013155 -0.004943 0.075167
v 0.014441 -0.021557 0.071732
v 0.011177 -0.006036 0.071730
v -0.073092 -0.004738 0.071730
v -0.073891 -0.005258 0.071730
v -0.074875 -0.005946 0.071730
v -0.075401 -0.006366 0.071730
v -0.075908 -0.006862 0.071730
v -0.076892 -0.007913 0.071730
v -0.077408 -0.008500 0.071730
v -0.079844 -0.006003 0.077608
v -0.078889 -0.004914 0.077598
v -0.078353 -0.004251 0.077885
v -0.078314 -0.004265 0.078906
v -0.078811 -0.005015 0.079557
v -0.078149 -0.004661 0.079904
v -0.078490 -0.005339 0.080238
v -0.078831 -0.006017 0.080492
v -0.079191 -0.006700 0.080507
v 0.012610 -0.047476 0.080017
v 0.013652 -0.046454 0.079973
v 0.014539 -0.045776 0.079803
v 0.014432 -0.046454 0.079623
v 0.014276 -0.047094 0.079187
v 0.014919 -0.046640 0.077883
v -0.081257 -0.009794 0.080543
v -0.082290 -0.012773 0.080582
v -0.082299 -0.013809 0.080591
v -0.081267 -0.043394 0.080654
v -0.080974 -0.045437 0.080563
v -0.080263 -0.046440 0.080580
v -0.078188 -0.049500 0.080522
v 0.015172 -0.045848 0.076872
v 0.014393 -0.041064 0.071732
v 0.014324 -0.047165 0.077106
v 0.013029 -0.008829 0.071731
v 0.012239 -0.007478 0.071730
v 0.011645 -0.006652 0.071730
v -0.077837 -0.009011 0.071730
v -0.080838 -0.007254 0.077688
v -0.079454 -0.005449 0.077885
v -0.079435 -0.005440 0.078906
v -0.078928 -0.004891 0.078906
v -0.079834 -0.006036 0.079561
v -0.079513 -0.006394 0.080241
v -0.079795 -0.007077 0.080470
v -0.080896 -0.008949 0.080513
v 0.011606 -0.048497 0.079977
v 0.012580 -0.048435 0.079655
v 0.013594 -0.047409 0.079638
v 0.014422 -0.047270 0.077883
v 0.012181 -0.049080 0.079484
v 0.013282 -0.048130 0.079192
v 0.013867 -0.047676 0.078904
v -0.081841 -0.010457 0.080472
v -0.082835 -0.012515 0.080462
v -0.082270 -0.011846 0.080525
v -0.082991 -0.013809 0.080543
v -0.082095 -0.042114 0.080613
v -0.080828 -0.046349 0.080299
v -0.079825 -0.047743 0.080489
v -0.081841 -0.043676 0.080486
v -0.078802 -0.049151 0.080489
v -0.079172 -0.048412 0.080519
v -0.077827 -0.050154 0.080488
v 0.014695 -0.046473 0.076817
v 0.014042 -0.044783 0.074424
v 0.014042 -0.041670 0.071732
v 0.014100 -0.046893 0.076427
v 0.013964 -0.047781 0.077883
v 0.013360 -0.048206 0.077087
v 0.013574 -0.042372 0.071732
v 0.010953 -0.046177 0.071732
v 0.010223 -0.047080 0.071732
v 0.000625 -0.021552 0.071730
v -0.078344 -0.009698 0.071730
v -0.080779 -0.007130 0.079169
v -0.080409 -0.006600 0.078906
v -0.078870 -0.010471 0.071730
v -0.081871 -0.009011 0.077607
v -0.081627 -0.008442 0.077885
v -0.079902 -0.005950 0.078906
v -0.080906 -0.007669 0.079649
v -0.080156 -0.006772 0.079836
v -0.080458 -0.007669 0.080159
v -0.080633 -0.008271 0.080390
v 0.010573 -0.049519 0.079908
v 0.011528 -0.049457 0.079630
v 0.007183 -0.050875 0.079872
v 0.008391 -0.050708 0.079860
v 0.010573 -0.050254 0.079591
v 0.011207 -0.050116 0.079187
v 0.012317 -0.049204 0.078904
v 0.012834 -0.048717 0.078904
v 0.013467 -0.048316 0.077883
v -0.081578 -0.009507 0.080207
v -0.081968 -0.009794 0.079890
v -0.082942 -0.011846 0.079889
v -0.083254 -0.012773 0.079926
v -0.083585 -0.013804 0.079860
v -0.082670 -0.042162 0.079911
v -0.080633 -0.047299 0.079770
v -0.081812 -0.044487 0.080115
v -0.081686 -0.045284 0.079775
v -0.079893 -0.048412 0.079838
v -0.078509 -0.049829 0.080256
v -0.082280 -0.043394 0.079926
v -0.077262 -0.050756 0.080373
v 0.013087 -0.047939 0.076408
v 0.012951 -0.048827 0.077883
v 0.012317 -0.049175 0.077129
v 0.012717 -0.048564 0.076767
v 0.009541 -0.050875 0.076816
v 0.008040 -0.050030 0.074312
v 0.006091 -0.049066 0.071732
v -0.034616 -0.050856 0.071731
v 0.011606 -0.049524 0.076840
v 0.011187 -0.050102 0.077229
v 0.010700 -0.050092 0.076714
v -0.034616 -0.027319 0.071730
v -0.081130 -0.007669 0.078906
v -0.081754 -0.008719 0.078906
v -0.081841 -0.009097 0.079526
v -0.079649 -0.011913 0.071730
v -0.082767 -0.010787 0.077749
v -0.082290 -0.009712 0.077885
v -0.080088 -0.012811 0.071730
v -0.082280 -0.009712 0.078906
v 0.009443 -0.050727 0.079675
v -0.077954 -0.050842 0.079725
v -0.034616 -0.050875 0.076564
v 0.010184 -0.050875 0.078878
v 0.011548 -0.049977 0.077883
v 0.011752 -0.049715 0.078904
v -0.082855 -0.011121 0.079524
v -0.083819 -0.013732 0.079090
v -0.083011 -0.041861 0.078649
v -0.082777 -0.042845 0.078805
v -0.081325 -0.046454 0.078906
v -0.080750 -0.047476 0.078906
v -0.079747 -0.049027 0.079172
v -0.082251 -0.044416 0.078906
v -0.081793 -0.045490 0.078906
v -0.078792 -0.050121 0.079575
v -0.079143 -0.049428 0.079847
v 0.012434 -0.049276 0.077883
v 0.010281 -0.050875 0.077947
v 0.008751 -0.050875 0.076173
v 0.007455 -0.050670 0.074890
v 0.006549 -0.050875 0.074563
v 0.005478 -0.049347 0.071732
v 0.004464 -0.049777 0.071732
v 0.003617 -0.050087 0.071732
v 0.002418 -0.050431 0.071732
v 0.001395 -0.050608 0.071732
v -0.000300 -0.050875 0.071732
v -0.076083 -0.050842 0.074877
v -0.073121 -0.050784 0.071731
v -0.081257 -0.027319 0.071730
v -0.083858 -0.014510 0.077296
v -0.083166 -0.011751 0.077885
v -0.083186 -0.011751 0.078906
v -0.082777 -0.010763 0.078906
v -0.080507 -0.013823 0.071730
v -0.077964 -0.050842 0.077075
v -0.078334 -0.050775 0.078906
v -0.078285 -0.050808 0.077788
v -0.077506 -0.050842 0.076515
v -0.076609 -0.050842 0.075428
v -0.083556 -0.012773 0.078906
v -0.083771 -0.013694 0.077885
v -0.083985 -0.015838 0.077271
v -0.084073 -0.016859 0.077240
v -0.084112 -0.017881 0.077229
v -0.084102 -0.018898 0.077235
v -0.083819 -0.026823 0.077381
v -0.083050 -0.038290 0.077020
v -0.082981 -0.039307 0.077020
v -0.082855 -0.042186 0.077739
v -0.082592 -0.043303 0.077966
v -0.081267 -0.046454 0.077885
v -0.080731 -0.047438 0.077885
v -0.080117 -0.048497 0.078906
v -0.079620 -0.049166 0.077925
v -0.079367 -0.049548 0.078906
v -0.078860 -0.050197 0.078906
v -0.082163 -0.044416 0.077885
v -0.081763 -0.045385 0.077885
v 0.005760 -0.050875 0.074190
v -0.074105 -0.050030 0.071731
v -0.078636 -0.044268 0.071731
v -0.079026 -0.043408 0.071731
v -0.079406 -0.042372 0.071731
v -0.079805 -0.041088 0.071731
v -0.079990 -0.040329 0.071731
v -0.080175 -0.039341 0.071731
v -0.080282 -0.038324 0.071731
v -0.080867 -0.032189 0.071731
v -0.081228 -0.028117 0.071731
v -0.081452 -0.023013 0.071730
v -0.074943 -0.049295 0.071731
v -0.075469 -0.048827 0.071731
v -0.075937 -0.048316 0.071731
v -0.076629 -0.047433 0.071731
v -0.077311 -0.046478 0.071731
v -0.077827 -0.045671 0.071731
v -0.083507 -0.012773 0.077885
v -0.080799 -0.014687 0.071730
v -0.081091 -0.015838 0.071730
v -0.081296 -0.016859 0.071730
v -0.081442 -0.017910 0.071730
v -0.077856 -0.049214 0.075141
v -0.077584 -0.049896 0.075513
v -0.076902 -0.050259 0.075085
v -0.078821 -0.050154 0.077582
v -0.079941 -0.048306 0.077146
v -0.081530 -0.018898 0.071730
v -0.081559 -0.019939 0.071730
v -0.084024 -0.019924 0.077117
v -0.083839 -0.026045 0.077327
v -0.082864 -0.040329 0.077020
v -0.081861 -0.044702 0.077271
v -0.080809 -0.047080 0.077292
v -0.078772 -0.048082 0.075245
f 1 2 3
f 1 3 4
f 1 4 5
f 1 5 6
f 1 6 7
f 1 7 8
f 1 8 9
f 1 9 2
f 2 9 10
f 2 10 3
f 3 11 12
f 3 12 13
f 3 13 4
f 3 10 11
f 4 14 5
f 4 13 14
f 5 14 15
f 5 15 16
f 5 16 17
f 5 17 18
f 5 18 19
f 5 19 20
f 5 20 6
f 6 21 22
f 6 22 23
f 6 23 7
f 6 20 19
f 6 19 18
f 6 18 17
f 6 17 16
f 6 16 35
f 6 35 70
f 6 70 69
f 6 69 107
f 6 107 152
f 6 152 191
f 6 191 232
f 6 232 250
f 6 250 249
f 6 249 243
f 6 243 242
f 6 242 241
f 6 241 240
f 6 240 196
f 6 196 159
f 6 159 156
f 6 156 111
f 6 111 108
f 6 108 71
f 6 71 42
f 6 42 41
f 6 41 40
f 6 40 39
f 6 39 38
f 6 38 37
f 6 37 36
f 6 36 21
f 7 23 24
f 7 24 8
f 8 25 9
f 8 24 26
f 8 26 25
f 9 25 10
f 10 25 11
f 11 27 28
f 11 28 12
f 11 25 29
f 11 29 30
f 11 30 27
f 12 28 31
f 12 31 32
f 12 32 13
f 13 33 15
f 13 15 14
f 13 32 34
f 13 34 33
f 15 33 35
f 15 35 16
f 21 36 22
f 22 36 37
f 22 37 38
f 22 38 39
f 22 39 40
f 22 40 41
f 22 41 42
f 22 42 43
f 22 43 44
f 22 44 45
f 22 45 23
f 23 45 46
f 23 46 47
f 23 47 48
f 23 48 24
f 24 48 26
f 25 26 29
f 26 48 49
f 26 49 50
f 26 50 51
f 26 51 29
f 27 52 53
f 27 53 54
f 27 54 28
f 27 30 52
f 28 54 55
f 28 55 56
f 28 56 57
f 28 57 31
f 29 58 59
f 29 59 60
f 29 60 30
f 29 51 58
f 30 60 61
f 30 61 62
f 30 62 63
f 30 63 64
f 30 64 52
f 31 65 66
f 31 66 34
f 31 34 32
f 31 57 67
f 31 67 65
f 33 34 68
f 33 68 69
f 33 69 70
f 33 70 35
f 34 66 68
f 42 71 43
f 43 72 73
f 43 73 44
f 43 71 72
f 44 73 45
f 45 73 74
f 45 74 75
f 45 75 46
f 46 75 76
f 46 76 47
f 47 76 48
f 48 76 49
f 49 76 77
f 49 77 50
f 50 77 78
f 50 78 79
f 50 79 58
f 50 58 51
f 52 80 81
f 52 81 82
f 52 82 53
f 52 64 80
f 53 82 55
f 53 55 54
f 55 82 56
f 56 83 57
f 56 82 84
f 56 84 85
f 56 85 86
f 56 86 83
f 57 83 67
f 58 87 88
f 58 88 89
f 58 89 59
f 58 79 87
f 59 90 60
f 59 89 90
f 60 90 91
f 60 91 61
f 61 91 62
f 62 92 93
f 62 93 63
f 62 91 94
f 62 94 92
f 63 93 95
f 63 95 96
f 63 96 64
f 64 97 80
f 64 96 95
f 64 95 97
f 65 67 98
f 65 98 99
f 65 99 100
f 65 100 66
f 66 100 69
f 66 69 68
f 67 101 98
f 67 83 102
f 67 102 103
f 67 103 101
f 69 100 104
f 69 104 105
f 69 105 106
f 69 106 107
f 71 108 72
f 72 109 110
f 72 110 73
f 72 108 111
f 72 111 112
f 72 112 113
f 72 113 109
f 73 110 114
f 73 114 74
f 74 114 76
f 74 76 75
f 76 114 109
f 76 109 115
f 76 115 116
f 76 116 77
f 77 116 78
f 78 116 117
f 78 117 118
f 78 118 79
f 79 118 87
f 80 119 120
f 80 120 81
f 80 97 121
f 80 121 122
f 80 122 119
f 81 120 84
f 81 84 82
f 83 86 102
f 84 120 123
f 84 123 124
f 84 124 125
f 84 125 126
f 84 126 85
f 85 126 86
f 86 126 127
f 86 127 102
f 87 118 128
f 87 128 129
f 87 129 88
f 88 130 131
f 88 131 132
f 88 132 90
f 88 90 89
f 88 129 130
f 90 132 91
f 91 132 133
f 91 133 94
f 92 134 93
f 92 94 135
f 92 135 136
f 92 136 134
f 93 134 137
f 93 137 138
f 93 138 95
f 94 133 139
f 94 139 135
f 95 138 97
f 97 140 121
f 97 138 140
f 98 101 99
f 99 104 100
f 99 101 105
f 99 105 104
f 101 103 141
f 101 141 106
f 101 106 105
f 102 127 103
f 103 127 142
f 103 142 143
f 103 143 144
f 103 144 106
f 103 106 141
f 106 145 146
f 106 146 147
f 106 147 148
f 106 148 107
f 106 144 143
f 106 143 149
f 106 149 150
f 106 150 151
f 106 151 145
f 107 148 152
f 109 113 153
f 109 153 154
f 109 154 155
f 109 155 115
f 109 114 110
f 111 156 112
f 112 157 158
f 112 158 113
f 112 156 159
f 112 159 157
f 113 158 160
f 113 160 154
f 113 154 153
f 115 117 116
f 115 155 128
f 115 128 117
f 117 128 118
f 119 122 161
f 119 161 123
f 119 123 120
f 121 140 162
f 121 162 163
f 121 163 188
f 121 188 221
f 121 221 182
f 121 182 180
f 121 180 145
f 121 145 179
f 121 179 164
f 121 164 161
f 121 161 122
f 123 161 164
f 123 164 124
f 124 165 166
f 124 166 125
f 124 164 165
f 125 142 126
f 125 166 142
f 126 142 127
f 128 155 129
f 129 155 167
f 129 167 130
f 130 167 131
f 131 168 132
f 131 167 168
f 132 168 133
f 133 168 169
f 133 169 170
f 133 170 139
f 134 136 171
f 134 171 172
f 134 172 173
f 134 173 137
f 135 139 136
f 136 139 174
f 136 174 175
f 136 175 171
f 137 173 176
f 137 176 177
f 137 177 138
f 138 177 176
f 138 176 162
f 138 162 140
f 139 170 174
f 142 166 178
f 142 178 143
f 143 178 150
f 143 150 149
f 145 151 150
f 145 150 179
f 145 180 146
f 146 180 181
f 146 181 182
f 146 182 183
f 146 183 147
f 147 183 148
f 148 183 184
f 148 184 185
f 148 185 186
f 148 186 187
f 148 187 188
f 148 188 163
f 148 163 189
f 148 189 190
f 148 190 191
f 148 191 152
f 150 178 165
f 150 165 179
f 154 160 155
f 155 160 167
f 157 192 193
f 157 193 194
f 157 194 195
f 157 195 158
f 157 159 196
f 157 196 192
f 158 195 160
f 160 195 167
f 162 197 163
f 162 176 198
f 162 198 199
f 162 199 197
f 163 197 200
f 163 200 201
f 163 201 189
f 164 179 165
f 165 178 166
f 167 195 194
f 167 194 202
f 167 202 168
f 168 203 192
f 168 192 204
f 168 204 205
f 168 205 206
f 168 206 207
f 168 207 208
f 168 208 169
f 168 202 203
f 169 209 210
f 169 210 211
f 169 211 170
f 169 208 209
f 170 212 174
f 170 211 212
f 171 175 213
f 171 213 214
f 171 214 172
f 172 214 215
f 172 215 173
f 173 216 217
f 173 217 218
f 173 218 176
f 173 215 216
f 174 219 220
f 174 220 175
f 174 212 219
f 175 220 213
f 176 218 198
f 180 182 181
f 182 221 186
f 182 186 185
f 182 185 184
f 182 184 183
f 186 221 187
f 187 221 188
f 189 201 222
f 189 222 190
f 190 222 191
f 191 223 224
f 191 224 225
f 191 225 226
f 191 226 227
f 191 227 228
f 191 228 229
f 191 229 230
f 191 230 231
f 191 231 232
f 191 222 233
f 191 233 234
f 191 234 235
f 191 235 236
f 191 236 237
f 191 237 238
f 191 238 223
f 192 203 239
f 192 239 193
f 192 196 240
f 192 240 241
f 192 241 242
f 192 242 243
f 192 243 204
f 193 239 202
f 193 202 194
f 197 244 245
f 197 245 246
f 197 246 200
f 197 199 247
f 197 247 248
f 197 248 244
f 198 218 199
f 199 218 247
f 200 246 201
f 201 246 234
f 201 234 233
f 201 233 222
f 202 239 203
f 204 243 205
f 205 243 249
f 205 249 206
f 206 249 250
f 206 250 207
f 207 250 251
f 207 251 252
f 207 252 208
f 208 252 209
f 209 252 231
f 209 231 210
f 210 231 230
f 210 230 229
f 210 229 228
f 210 228 253
f 210 253 211
f 211 253 227
f 211 227 226
f 211 226 254
f 211 254 212
f 212 254 219
f 213 220 255
f 213 255 214
f 214 255 216
f 214 216 215
f 216 247 218
f 216 218 217
f 216 255 248
f 216 248 247
f 219 254 220
f 220 254 255
f 223 255 224
f 223 238 255
f 224 255 254
f 224 254 225
f 225 254 226
f 227 253 228
f 231 252 251
f 231 251 232
f 232 251 250
f 234 246 245
f 234 245 235
f 235 245 244
f 235 244 236
f 236 244 256
f 236 256 237
f 237 256 238
f 238 256 255
f 244 248 256
f 248 255 256
