v -0.026396 -0.035127 0.076182
v -0.025739 -0.034263 0.077475
v -0.026394 -0.034263 0.076182
v -0.026388 -0.036147 0.076182
v -0.025722 -0.035231 0.077459
v -0.025159 -0.034263 0.077742
v -0.022408 -0.034263 0.076182
v -0.026382 -0.036259 0.076182
v -0.025128 -0.035231 0.077722
v -0.025686 -0.036040 0.077424
v -0.025128 -0.034263 0.077756
v -0.017878 -0.041739 0.076182
v -0.023334 -0.034263 0.077599
v -0.017878 -0.042766 0.077478
v -0.026316 -0.037164 0.076182
v -0.025223 -0.036329 0.077602
v -0.025042 -0.037272 0.077602
v -0.024107 -0.038292 0.077827
v -0.025627 -0.036721 0.077365
v -0.024908 -0.038292 0.077556
v -0.024107 -0.037272 0.077850
v -0.024161 -0.034263 0.077873
v -0.017878 -0.045779 0.076182
v -0.024107 -0.034263 0.077880
v -0.017878 -0.043391 0.077767
v -0.026178 -0.038102 0.076182
v -0.024107 -0.039314 0.077718
v -0.023086 -0.040333 0.077842
v -0.025907 -0.039238 0.076182
v -0.025552 -0.037272 0.077263
v -0.024745 -0.039314 0.077460
v -0.017878 -0.045779 0.077093
v -0.021739 -0.045779 0.076182
v -0.019004 -0.043396 0.077878
v -0.017878 -0.044416 0.077872
v -0.024084 -0.040251 0.077538
v -0.023118 -0.041370 0.077616
v -0.022107 -0.042420 0.077630
v -0.021045 -0.042375 0.077847
v -0.025002 -0.041119 0.076182
v -0.024637 -0.039857 0.077391
v -0.017878 -0.045717 0.077149
v -0.017982 -0.045194 0.077574
v -0.018791 -0.045055 0.077485
v -0.020024 -0.044223 0.077566
v -0.020687 -0.044011 0.077449
v -0.021795 -0.043082 0.077489
v -0.022799 -0.042109 0.077499
v -0.023728 -0.041041 0.077467
v -0.023479 -0.041722 0.077252
v -0.024903 -0.041278 0.076182
v -0.020024 -0.043396 0.077846
v -0.017982 -0.044416 0.077869
v -0.017878 -0.045208 0.077579
v -0.021034 -0.043412 0.077600
v -0.019080 -0.044506 0.077669
f 1 2 3
f 1 3 7
f 1 7 12
f 1 12 23
f 1 23 33
f 1 33 51
f 1 51 40
f 1 40 29
f 1 29 26
f 1 26 15
f 1 15 8
f 1 8 4
f 1 4 2
f 2 5 6
f 2 6 11
f 2 11 22
f 2 22 24
f 2 24 13
f 2 13 7
f 2 7 3
f 2 4 5
f 4 8 5
f 5 9 6
f 5 8 10
f 5 10 9
f 6 9 11
f 7 13 14
f 7 14 12
f 8 15 10
f 9 10 16
f 9 16 17
f 9 17 18
f 9 18 11
f 10 15 19
f 10 19 20
f 10 20 17
f 10 17 16
f 11 18 21
f 11 21 22
f 12 14 25
f 12 25 35
f 12 35 54
f 12 54 42
f 12 42 32
f 12 32 23
f 13 24 25
f 13 25 14
f 15 26 19
f 17 20 18
f 18 20 27
f 18 27 28
f 18 28 21
f 19 26 29
f 19 29 30
f 19 30 31
f 19 31 20
f 20 31 27
f 21 24 22
f 21 28 24
f 23 32 33
f 24 28 34
f 24 34 35
f 24 35 25
f 27 31 36
f 27 36 28
f 28 36 37
f 28 37 38
f 28 38 39
f 28 39 34
f 29 40 41
f 29 41 31
f 29 31 30
f 31 41 36
f 32 42 33
f 33 42 43
f 33 43 44
f 33 44 45
f 33 45 46
f 33 46 47
f 33 47 48
f 33 48 49
f 33 49 50
f 33 50 51
f 34 39 52
f 34 52 53
f 34 53 35
f 35 53 54
f 36 49 37
f 36 41 49
f 37 48 38
f 37 49 48
f 38 48 47
f 38 47 55
f 38 55 52
f 38 52 39
f 40 51 41
f 41 51 50
f 41 50 49
f 42 54 43
f 43 54 53
f 43 53 56
f 43 56 44
f 44 56 45
f 45 52 55
f 45 55 46
f 45 56 52
f 46 55 47
f 52 56 53
