v -0.072114 -0.004146 0.071729
v -0.077932 -0.004146 0.077132
v -0.077843 -0.003956 0.077221
v -0.076767 -0.003001 0.077285
v -0.074854 -0.001939 0.077232
v -0.071055 -0.003555 0.071729
v -0.034614 -0.004146 0.071729
v -0.078261 -0.004146 0.077886
v -0.077950 -0.003854 0.077886
v -0.077380 -0.003344 0.077886
v -0.076864 -0.002921 0.077886
v -0.076081 -0.002377 0.077931
v -0.075539 -0.002115 0.077621
v -0.073439 -0.001102 0.077635
v -0.072763 -0.000957 0.077265
v -0.070263 -0.003162 0.071729
v -0.034614 -0.004146 0.076460
v -0.034614 -0.000243 0.071729
v 0.007208 -0.002102 0.071730
v 0.011915 -0.002102 0.076408
v 0.011995 -0.002102 0.076489
v 0.012404 -0.002102 0.077043
v 0.012537 -0.002102 0.077465
v 0.012626 -0.002102 0.077885
v -0.078199 -0.004146 0.078907
v -0.077932 -0.003879 0.078907
v -0.077354 -0.003368 0.078907
v -0.076847 -0.002928 0.078907
v -0.075690 -0.002030 0.078569
v -0.075690 -0.002030 0.078302
v -0.075174 -0.001857 0.077931
v -0.073653 -0.001010 0.078317
v -0.074044 -0.001301 0.077939
v -0.073101 -0.000868 0.077939
v -0.072078 -0.000465 0.077886
v -0.070486 -0.000028 0.077442
v -0.069765 -0.003013 0.071729
v -0.076393 -0.004146 0.080452
v 0.012537 -0.002102 0.078360
v 0.012422 -0.002102 0.078906
v 0.012173 -0.002102 0.079441
v 0.011612 -0.002102 0.079760
v 0.010625 -0.002102 0.079991
v -0.054703 -0.001247 0.071729
v -0.018974 0.000566 0.071730
v -0.006759 0.001143 0.071730
v -0.003699 0.001258 0.071730
v -0.003663 0.001257 0.071730
v -0.002676 0.001221 0.071730
v -0.001653 0.001125 0.071730
v -0.000291 0.000992 0.071730
v 0.000394 0.000878 0.071730
v 0.001408 0.000637 0.071730
v 0.001443 0.000627 0.071730
v 0.002431 0.000331 0.071730
v 0.003134 0.000080 0.071730
v 0.003676 -0.000164 0.071730
v 0.004495 -0.000547 0.071730
v 0.005251 -0.000902 0.071730
v 0.005767 -0.001151 0.071730
v 0.006506 -0.001616 0.071730
v 0.006523 -0.001628 0.071730
v 0.007084 -0.002006 0.071730
v 0.010296 -0.000849 0.076196
v 0.010972 -0.001137 0.076492
v 0.011345 -0.001818 0.076138
v 0.012288 -0.001890 0.077140
v 0.012351 -0.001810 0.077885
v -0.078057 -0.004146 0.079302
v -0.077807 -0.003989 0.079573
v -0.076749 -0.003011 0.079497
v -0.075619 -0.002077 0.079249
v -0.076081 -0.002360 0.078909
v -0.075227 -0.001810 0.078909
v -0.074160 -0.001255 0.078907
v -0.073653 -0.001012 0.078907
v -0.073101 -0.000784 0.078907
v -0.072078 -0.000390 0.078907
v -0.070735 0.000050 0.078124
v -0.071073 -0.000127 0.077824
v -0.070103 0.000148 0.077824
v -0.069018 0.000392 0.077886
v -0.067994 0.000601 0.077886
v -0.069801 0.000054 0.077273
v -0.067968 -0.002484 0.071729
v -0.067994 -0.002491 0.071729
v -0.068991 -0.002782 0.071729
v -0.076455 -0.004146 0.080457
v 0.011265 -0.000886 0.078681
v 0.012244 -0.001925 0.078906
v 0.012128 -0.002044 0.079425
v 0.010393 -0.000730 0.079666
v 0.011612 -0.001814 0.079612
v 0.010678 -0.001457 0.079881
v 0.009575 -0.001540 0.080121
v -0.076651 -0.004146 0.080462
v -0.054730 -0.001248 0.071729
v -0.064934 0.000940 0.077666
v -0.033289 -0.000151 0.071730
v -0.001653 0.003651 0.076863
v -0.000629 0.003602 0.076863
v 0.001408 0.003317 0.076929
v 0.002431 0.003209 0.077056
v 0.003445 0.003109 0.077246
v 0.003970 0.003054 0.077366
v 0.004379 0.002689 0.076961
v 0.005402 0.002247 0.076864
v 0.006221 0.002131 0.077206
v 0.006541 0.001766 0.076864
v 0.007511 0.001300 0.076842
v 0.007840 0.000912 0.076487
v 0.008276 0.001138 0.077167
v 0.008587 0.000733 0.076842
v 0.009815 -0.000169 0.076585
v 0.010562 -0.000541 0.076879
v 0.011239 -0.000913 0.077173
v 0.011835 -0.001299 0.077885
v -0.077888 -0.004146 0.079650
v -0.077327 -0.004146 0.080155
v -0.075654 -0.003070 0.080439
v -0.076064 -0.002845 0.079873
v -0.074934 -0.001862 0.079666
v -0.073626 -0.001027 0.079423
v -0.070663 0.000027 0.079490
v -0.071286 -0.000108 0.078907
v -0.070770 0.000062 0.078907
v -0.070041 0.000251 0.078907
v -0.066473 0.001012 0.078384
v -0.066882 0.000848 0.077979
v -0.069018 0.000144 0.077152
v -0.066971 -0.002259 0.071729
v 0.011319 -0.000834 0.077885
v 0.010198 0.000075 0.078642
v 0.010029 -0.000051 0.079323
v 0.009353 0.000204 0.079622
v 0.009646 -0.000442 0.079862
v 0.008552 -0.000520 0.080130
v -0.003699 0.002541 0.080317
v -0.004713 0.002541 0.080328
v -0.038396 0.000845 0.080493
v -0.073101 -0.002259 0.080483
v -0.076802 -0.004146 0.080461
v -0.055753 -0.001323 0.071729
v -0.065957 0.000919 0.077754
v -0.002676 0.003981 0.077885
v -0.001653 0.004003 0.077885
v -0.000629 0.003966 0.077885
v 0.000394 0.003841 0.077885
v 0.001408 0.003626 0.077885
v 0.003445 0.003184 0.077885
v 0.004006 0.003062 0.077885
v 0.004513 0.002919 0.077885
v 0.005491 0.002600 0.077885
v 0.006897 0.001977 0.077623
v 0.007449 0.001766 0.077932
v 0.008418 0.001229 0.077885
v 0.008934 0.000935 0.077885
v 0.010153 0.000040 0.077266
v -0.076980 -0.004146 0.080384
v -0.076740 -0.004050 0.080459
v -0.073724 -0.002004 0.080465
v -0.074017 -0.001593 0.079885
v -0.071589 -0.001025 0.080442
v -0.073101 -0.000932 0.079575
v -0.070041 0.000101 0.079620
v -0.067994 0.000656 0.078907
v -0.069018 0.000460 0.078907
v -0.071989 -0.000797 0.079948
v -0.066473 0.001012 0.078409
v -0.065957 0.001037 0.078265
v -0.067994 0.000255 0.077040
v -0.066945 -0.002255 0.071729
v 0.010723 -0.000324 0.077885
v 0.010215 0.000092 0.077885
v 0.009575 0.000526 0.077885
v 0.008863 0.000886 0.078906
v 0.009646 0.000350 0.078951
v 0.008187 0.001091 0.079524
v 0.008534 0.000526 0.079778
v 0.007529 0.000500 0.080087
v 0.004468 0.001520 0.080156
v -0.002676 0.002541 0.080293
v -0.001653 0.003444 0.079895
v -0.002676 0.003456 0.079905
v -0.005736 0.002541 0.080323
v -0.038396 0.001122 0.080493
v -0.073101 -0.001939 0.080483
v -0.063884 -0.001930 0.071729
v -0.064792 -0.002011 0.071729
v -0.065930 -0.002128 0.071729
v -0.065957 -0.002131 0.071729
v -0.002676 0.003939 0.078906
v -0.065957 0.001037 0.078553
v -0.001653 0.003928 0.078906
v -0.000629 0.003859 0.078906
v 0.000394 0.003753 0.078906
v 0.001408 0.003571 0.078906
v 0.003997 0.003062 0.078469
v 0.007057 0.002048 0.078463
v 0.007057 0.002048 0.078305
v 0.006541 0.002195 0.077932
v -0.071055 -0.000987 0.080459
v -0.065468 -0.000008 0.080439
v -0.067994 0.000310 0.079839
v -0.069018 0.000212 0.079765
v -0.065957 0.000949 0.079063
v -0.066882 0.000874 0.078812
v 0.008356 0.001195 0.078906
v 0.007449 0.001721 0.078845
v 0.006835 0.001948 0.079144
v 0.006159 0.002096 0.079518
v 0.007529 0.001264 0.079694
v 0.006506 0.001573 0.079818
v 0.005491 0.001520 0.080092
v 0.000394 0.002541 0.080156
v -0.000629 0.002541 0.080218
v -0.001653 0.002541 0.080261
v -0.000629 0.003402 0.079851
v -0.003699 0.003421 0.079903
v -0.046563 0.001037 0.080459
v -0.045548 0.001045 0.080464
v -0.070041 -0.000941 0.080469
v -0.010843 0.003222 0.079696
v -0.063413 0.001012 0.079420
v -0.058804 0.001133 0.079635
v 0.000394 0.003345 0.079785
v 0.001408 0.003261 0.079702
v 0.002431 0.003161 0.079578
v 0.003098 0.003090 0.079477
v 0.002431 0.003351 0.078906
v 0.003445 0.003135 0.078848
v 0.003783 0.003008 0.079150
v 0.004388 0.002885 0.078848
v 0.005491 0.002533 0.078906
v 0.006506 0.002175 0.078845
v -0.047239 0.001017 0.080444
v -0.065868 0.000350 0.080014
v -0.066971 0.000383 0.079874
v 0.005491 0.002226 0.079666
v 0.004468 0.002399 0.079816
v 0.002431 0.002541 0.079984
v 0.001408 0.002541 0.080087
f 1 2 3
f 1 3 4
f 1 4 5
f 1 5 6
f 1 6 16
f 1 16 37
f 1 37 87
f 1 87 86
f 1 86 85
f 1 85 131
f 1 131 172
f 1 172 191
f 1 191 190
f 1 190 189
f 1 189 188
f 1 188 143
f 1 143 97
f 1 97 44
f 1 44 18
f 1 18 7
f 1 7 17
f 1 17 38
f 1 38 88
f 1 88 96
f 1 96 142
f 1 142 159
f 1 159 119
f 1 119 118
f 1 118 69
f 1 69 25
f 1 25 8
f 1 8 2
f 2 8 3
f 3 8 9
f 3 9 10
f 3 10 4
f 4 10 11
f 4 11 12
f 4 12 13
f 4 13 5
f 5 13 14
f 5 14 15
f 5 15 16
f 5 16 6
f 7 18 19
f 7 19 20
f 7 20 21
f 7 21 22
f 7 22 23
f 7 23 24
f 7 24 17
f 8 25 26
f 8 26 9
f 9 26 10
f 10 27 28
f 10 28 11
f 10 26 27
f 11 28 29
f 11 29 30
f 11 30 12
f 12 30 13
f 13 31 32
f 13 32 33
f 13 33 14
f 13 30 31
f 14 32 34
f 14 34 35
f 14 35 15
f 14 33 32
f 15 35 36
f 15 36 16
f 16 36 37
f 17 24 39
f 17 39 40
f 17 40 41
f 17 41 42
f 17 42 43
f 17 43 38
f 18 44 45
f 18 45 46
f 18 46 47
f 18 47 48
f 18 48 49
f 18 49 50
f 18 50 51
f 18 51 52
f 18 52 53
f 18 53 54
f 18 54 55
f 18 55 56
f 18 56 57
f 18 57 58
f 18 58 59
f 18 59 60
f 18 60 61
f 18 61 62
f 18 62 63
f 18 63 19
f 19 63 64
f 19 64 65
f 19 65 66
f 19 66 20
f 20 66 65
f 20 65 21
f 21 67 22
f 21 65 67
f 22 67 23
f 23 67 24
f 24 67 68
f 24 68 39
f 25 69 70
f 25 70 26
f 26 70 71
f 26 71 27
f 27 71 28
f 28 71 72
f 28 72 73
f 28 73 29
f 29 73 72
f 29 72 74
f 29 74 75
f 29 75 30
f 30 75 32
f 30 32 31
f 32 76 77
f 32 77 78
f 32 78 79
f 32 79 35
f 32 35 34
f 32 75 76
f 35 80 36
f 35 79 80
f 36 81 82
f 36 82 83
f 36 83 84
f 36 84 85
f 36 85 86
f 36 86 87
f 36 87 37
f 36 80 79
f 36 79 81
f 38 43 88
f 39 68 40
f 40 68 89
f 40 89 90
f 40 90 91
f 40 91 41
f 41 91 92
f 41 92 93
f 41 93 42
f 42 93 92
f 42 92 94
f 42 94 43
f 43 94 95
f 43 95 96
f 43 96 88
f 44 97 98
f 44 98 99
f 44 99 45
f 45 100 46
f 45 99 98
f 45 98 100
f 46 100 47
f 47 100 48
f 48 100 49
f 49 100 101
f 49 101 50
f 50 101 51
f 51 101 102
f 51 102 52
f 52 102 103
f 52 103 104
f 52 104 105
f 52 105 53
f 53 105 54
f 54 105 55
f 55 105 106
f 55 106 56
f 56 106 107
f 56 107 108
f 56 108 57
f 57 108 109
f 57 109 110
f 57 110 58
f 58 110 59
f 59 110 60
f 60 110 111
f 60 111 112
f 60 112 113
f 60 113 114
f 60 114 61
f 61 114 62
f 62 114 63
f 63 114 64
f 64 114 65
f 65 114 115
f 65 115 116
f 65 116 67
f 67 117 68
f 67 116 117
f 68 117 89
f 69 118 70
f 70 118 119
f 70 119 71
f 71 119 120
f 71 120 121
f 71 121 122
f 71 122 72
f 72 122 123
f 72 123 74
f 74 123 75
f 75 123 76
f 76 123 77
f 77 123 78
f 78 123 124
f 78 124 125
f 78 125 79
f 79 125 126
f 79 126 127
f 79 127 128
f 79 128 81
f 81 128 82
f 82 128 129
f 82 129 83
f 83 129 84
f 84 130 131
f 84 131 85
f 84 129 130
f 89 91 90
f 89 117 132
f 89 132 133
f 89 133 134
f 89 134 91
f 91 134 92
f 92 134 135
f 92 135 136
f 92 136 94
f 94 136 137
f 94 137 95
f 95 137 138
f 95 138 139
f 95 139 140
f 95 140 96
f 96 140 141
f 96 141 142
f 97 143 144
f 97 144 98
f 98 144 145
f 98 145 100
f 100 145 146
f 100 146 147
f 100 147 101
f 101 147 148
f 101 148 102
f 102 148 103
f 103 148 104
f 104 148 105
f 105 148 149
f 105 149 150
f 105 150 151
f 105 151 152
f 105 152 153
f 105 153 108
f 105 108 106
f 106 108 107
f 108 153 154
f 108 154 112
f 108 112 110
f 108 110 109
f 110 112 111
f 112 154 155
f 112 155 156
f 112 156 157
f 112 157 158
f 112 158 114
f 112 114 113
f 114 158 115
f 115 158 116
f 116 158 132
f 116 132 117
f 119 159 120
f 120 122 121
f 120 159 160
f 120 160 161
f 120 161 122
f 122 161 162
f 122 162 123
f 123 163 164
f 123 164 124
f 123 162 163
f 124 165 166
f 124 166 167
f 124 167 127
f 124 127 126
f 124 126 125
f 124 164 168
f 124 168 163
f 124 163 165
f 127 167 169
f 127 169 128
f 128 169 193
f 128 193 170
f 128 170 144
f 128 144 129
f 129 144 130
f 130 171 131
f 130 144 171
f 131 144 172
f 131 171 144
f 132 158 173
f 132 173 133
f 133 173 174
f 133 174 175
f 133 175 157
f 133 157 176
f 133 176 177
f 133 177 134
f 134 177 178
f 134 178 135
f 135 178 179
f 135 179 136
f 136 179 180
f 136 180 137
f 137 180 181
f 137 181 182
f 137 182 138
f 138 182 183
f 138 183 184
f 138 184 139
f 139 184 185
f 139 185 186
f 139 186 140
f 140 186 187
f 140 187 141
f 141 187 142
f 142 160 159
f 142 187 161
f 142 161 160
f 143 188 144
f 144 188 189
f 144 189 190
f 144 190 191
f 144 191 172
f 144 170 145
f 145 192 146
f 145 170 193
f 145 193 192
f 146 192 194
f 146 194 147
f 147 194 195
f 147 195 196
f 147 196 148
f 148 196 197
f 148 197 198
f 148 198 149
f 149 198 150
f 150 198 151
f 151 198 152
f 152 198 153
f 153 199 200
f 153 200 201
f 153 201 154
f 153 198 199
f 154 201 200
f 154 200 155
f 155 200 156
f 156 200 157
f 157 200 199
f 157 199 176
f 157 175 158
f 158 175 174
f 158 174 173
f 161 187 163
f 161 163 162
f 163 168 164
f 163 187 202
f 163 202 203
f 163 203 204
f 163 204 205
f 163 205 165
f 165 205 206
f 165 206 207
f 165 207 166
f 166 207 169
f 166 169 167
f 169 206 193
f 169 207 206
f 176 199 208
f 176 208 178
f 176 178 177
f 178 208 209
f 178 209 210
f 178 210 211
f 178 211 212
f 178 212 179
f 179 212 180
f 180 212 213
f 180 213 214
f 180 214 181
f 181 215 216
f 181 216 217
f 181 217 182
f 181 214 215
f 182 217 183
f 183 217 216
f 183 216 218
f 183 218 194
f 183 194 184
f 184 194 192
f 184 192 219
f 184 219 220
f 184 220 185
f 185 220 221
f 185 221 186
f 186 221 203
f 186 203 222
f 186 222 187
f 187 222 202
f 192 223 219
f 192 193 224
f 192 224 225
f 192 225 223
f 193 206 224
f 194 218 195
f 195 218 226
f 195 226 196
f 196 226 227
f 196 227 228
f 196 228 229
f 196 229 197
f 197 229 230
f 197 230 198
f 198 231 232
f 198 232 233
f 198 233 234
f 198 234 199
f 198 230 231
f 199 209 208
f 199 234 235
f 199 235 210
f 199 210 209
f 202 222 203
f 203 221 220
f 203 220 236
f 203 236 225
f 203 225 237
f 203 237 238
f 203 238 204
f 204 238 224
f 204 224 206
f 204 206 205
f 210 235 211
f 211 235 234
f 211 234 232
f 211 232 229
f 211 229 239
f 211 239 212
f 212 239 213
f 213 239 240
f 213 240 214
f 214 240 241
f 214 241 242
f 214 242 215
f 215 242 218
f 215 218 216
f 218 242 226
f 219 223 225
f 219 225 220
f 220 225 236
f 224 238 237
f 224 237 225
f 226 242 241
f 226 241 240
f 226 240 227
f 227 240 228
f 228 240 229
f 229 240 239
f 229 232 230
f 230 232 231
f 232 234 233
