v -0.007404 -0.037729 0.076182
v -0.007404 -0.038885 0.077301
v -0.007404 -0.045781 0.076182
v -0.017877 -0.041740 0.076182
v -0.017877 -0.042766 0.077478
v -0.007404 -0.039110 0.077479
v -0.007404 -0.045781 0.077959
v -0.017877 -0.045781 0.076182
v -0.017877 -0.043390 0.077767
v -0.007404 -0.039217 0.077543
v -0.007404 -0.045656 0.078028
v -0.009816 -0.045438 0.078024
v -0.012878 -0.045438 0.077863
v -0.012878 -0.045781 0.077667
v -0.017877 -0.045781 0.077093
v -0.017877 -0.044417 0.077872
v -0.007404 -0.040985 0.078155
v -0.007404 -0.039882 0.077841
v -0.007404 -0.045438 0.078148
v -0.013898 -0.045438 0.077803
v -0.013459 -0.045781 0.077635
v -0.017877 -0.045718 0.077149
v -0.017364 -0.045781 0.077218
v -0.017877 -0.045208 0.077579
v -0.016961 -0.045319 0.077625
v -0.014919 -0.045438 0.077732
v -0.011858 -0.044417 0.078154
v -0.007404 -0.042004 0.078253
v -0.007404 -0.044417 0.078302
v -0.008795 -0.044417 0.078262
v -0.009816 -0.044417 0.078233
v -0.010836 -0.044417 0.078194
v -0.013898 -0.045781 0.077609
v -0.016961 -0.045781 0.077306
v -0.016101 -0.045781 0.077422
v -0.015665 -0.045781 0.077475
v -0.015889 -0.045511 0.077610
v -0.014919 -0.045781 0.077538
v -0.007774 -0.043396 0.078285
v -0.007774 -0.042376 0.078252
v -0.007404 -0.042376 0.078265
v -0.007404 -0.043396 0.078293
v -0.007404 -0.043025 0.078286
f 1 2 6
f 1 6 10
f 1 10 18
f 1 18 17
f 1 17 28
f 1 28 41
f 1 41 43
f 1 43 42
f 1 42 29
f 1 29 19
f 1 19 11
f 1 11 7
f 1 7 3
f 1 3 8
f 1 8 4
f 1 4 5
f 1 5 2
f 2 5 6
f 3 7 14
f 3 14 21
f 3 21 33
f 3 33 38
f 3 38 36
f 3 36 35
f 3 35 34
f 3 34 23
f 3 23 15
f 3 15 8
f 4 8 15
f 4 15 22
f 4 22 24
f 4 24 16
f 4 16 9
f 4 9 5
f 5 9 10
f 5 10 6
f 7 11 12
f 7 12 13
f 7 13 14
f 9 16 17
f 9 17 18
f 9 18 10
f 11 19 12
f 12 19 16
f 12 16 13
f 13 16 20
f 13 20 21
f 13 21 14
f 15 23 22
f 16 24 25
f 16 25 26
f 16 26 20
f 16 19 27
f 16 27 28
f 16 28 17
f 19 29 30
f 19 30 31
f 19 31 32
f 19 32 27
f 20 26 33
f 20 33 21
f 22 23 24
f 23 34 24
f 24 34 35
f 24 35 25
f 25 35 36
f 25 36 37
f 25 37 26
f 26 38 33
f 26 37 38
f 27 32 39
f 27 39 40
f 27 40 28
f 28 40 41
f 29 42 39
f 29 39 30
f 30 39 31
f 31 39 32
f 36 38 37
f 39 42 43
f 39 43 40
f 40 43 41
