v -0.043510 -0.050529 -0.003670
v -0.022064 -0.001550 -0.003478
v 0.004971 -0.003083 -0.003537
v 0.012900 -0.019288 -0.003500
v -0.028200 -0.049513 -0.003619
v -0.017482 -0.049513 -0.003478
v -0.043510 -0.051430 -0.003471
v -0.048984 -0.051990 -0.003375
v -0.059568 -0.052710 -0.003191
v -0.048601 -0.050529 -0.003633
v -0.078196 -0.036241 -0.003523
v -0.037375 -0.002572 -0.003434
v -0.048601 -0.002786 -0.003375
v -0.017223 -0.000913 -0.003434
v -0.007780 -0.000528 -0.003434
v -0.001289 0.000059 -0.003235
v 0.005470 -0.002533 -0.003405
v 0.009362 -0.006258 -0.003434
v 0.013091 -0.015465 -0.003464
v 0.015248 -0.026864 -0.000903
v 0.014788 -0.035884 -0.000784
v 0.012670 -0.039009 -0.001678
v -0.006255 -0.048782 -0.003183
v -0.012372 -0.048491 -0.003449
v -0.014433 -0.050694 -0.002150
v -0.033684 -0.050979 -0.003382
v -0.062454 -0.053479 -0.002246
v -0.066787 -0.052562 -0.002290
v -0.075895 -0.046349 -0.002947
v -0.077908 -0.040690 -0.003316
v -0.079308 -0.036499 -0.003205
v -0.079049 -0.026424 -0.003309
v -0.055513 -0.004017 -0.003286
v -0.048860 -0.002286 -0.003139
v -0.021048 -0.000836 -0.003375
v -0.007271 0.000400 -0.003168
v -0.007271 0.001136 -0.002445
v -0.004347 0.001416 -0.001951
v 0.002392 0.000037 -0.002113
v 0.006055 -0.001484 -0.001582
v 0.008202 -0.003720 -0.002556
v 0.010541 -0.005357 -0.000807
v 0.012813 -0.009054 -0.000903
v 0.010934 -0.008637 -0.003294
v 0.013484 -0.011801 -0.001559
v 0.014462 -0.014910 -0.000962
v 0.014779 -0.017948 -0.000696
v 0.015661 -0.030627 -0.000201
v 0.015766 -0.034686 0.002227
v 0.014597 -0.038466 0.000426
v 0.010963 -0.042954 -0.000851
v 0.006400 -0.046382 -0.001486
v 0.003437 -0.047475 -0.001973
v -0.003638 -0.050221 -0.001235
v -0.063039 -0.054122 0.002205
v -0.067343 -0.053429 0.002987
v -0.071063 -0.051655 -0.001434
v -0.074428 -0.048941 -0.001877
v -0.077295 -0.046206 -0.000253
v -0.078330 -0.043591 -0.001914
v -0.080353 -0.037773 -0.000201
v -0.080765 -0.033598 -0.001153
v -0.081024 -0.024930 -0.001559
v -0.077161 -0.011971 -0.001707
v -0.074725 -0.008021 -0.001205
v -0.068168 -0.003561 -0.001065
v -0.060077 -0.002687 -0.002098
v -0.062387 -0.001929 0.000057
v -0.017482 -0.000193 -0.003146
v -0.001999 0.001675 0.000035
v 0.003140 0.000428 0.001341
v 0.006793 -0.001523 0.004138
v 0.008461 -0.002923 0.000441
v 0.008883 -0.003176 0.005031
v 0.011241 -0.006016 0.004522
v 0.012833 -0.008697 0.005408
v 0.013408 -0.009999 0.008987
v 0.014136 -0.012339 0.005297
v 0.015038 -0.016267 0.025830
v 0.015383 -0.020436 0.024818
v 0.015977 -0.031901 0.004013
v 0.015737 -0.035730 0.008995
v 0.015306 -0.037405 0.005304
v 0.016150 -0.032670 0.033992
v 0.014395 -0.039784 0.004013
v 0.013475 -0.040861 0.001260
v 0.010781 -0.044772 0.002898
v 0.008710 -0.046442 0.001289
v 0.002824 -0.048897 -0.000696
v -0.000158 -0.050188 0.001917
v -0.047585 -0.053644 0.071729
v -0.052685 -0.053902 0.071729
v -0.060585 -0.054210 0.071729
v -0.062377 -0.054248 0.060510
v -0.064439 -0.054133 0.071729
v -0.006255 -0.051315 0.071227
v -0.067487 -0.053611 0.071729
v -0.070383 -0.052325 0.001836
v -0.075310 -0.048919 0.004138
v -0.077419 -0.046118 0.004773
v -0.078014 -0.045211 0.008471
v -0.079030 -0.043173 0.005378
v -0.079644 -0.041102 0.000367
v -0.080353 -0.038795 0.009497
v -0.080574 -0.036653 0.003946
v -0.080065 -0.039998 0.005415
v -0.081734 -0.021161 0.003083
v -0.081225 -0.019805 -0.000135
v -0.080305 -0.014531 0.000574
v -0.077918 -0.010010 0.000079
v -0.071380 -0.004698 -0.000681
v -0.065484 -0.002121 0.002094
v -0.071543 -0.003852 0.001865
v -0.068264 -0.002588 0.003445
v -0.003197 0.001861 0.004389
v -0.000388 0.001548 0.004522
v 0.002862 0.000598 0.005031
v 0.004626 -0.000188 0.011541
v 0.005479 -0.000644 0.007460
v 0.006064 -0.000990 0.016641
v 0.007282 -0.001847 0.011541
v 0.008911 -0.003215 0.026855
v 0.007790 -0.002231 0.014604
v 0.011366 -0.006181 0.068695
v 0.011548 -0.006406 0.065876
v 0.012104 -0.007181 0.052355
v 0.013187 -0.009114 0.061536
v 0.013762 -0.010449 0.065367
v 0.014299 -0.012443 0.018685
v 0.014539 -0.013295 0.025830
v 0.015018 -0.015844 0.033992
v 0.015469 -0.020931 0.071729
v 0.015814 -0.025501 0.071729
v 0.015709 -0.025023 0.024818
v 0.016006 -0.030116 0.020730
v 0.016054 -0.030627 0.024818
v 0.015881 -0.035219 0.023793
v 0.015479 -0.037955 0.070718
v 0.016121 -0.033181 0.044177
v 0.016083 -0.033780 0.038952
v 0.015958 -0.029336 0.071729
v 0.014002 -0.041080 0.028907
v 0.013274 -0.042058 0.012567
v 0.012785 -0.042597 0.004980
v 0.011116 -0.044690 0.007460
v 0.009151 -0.046557 0.012567
v 0.006064 -0.048365 0.005164
v 0.005815 -0.048348 0.001976
v 0.003629 -0.049386 0.004655
v 0.001903 -0.050518 0.071470
v -0.001193 -0.050957 0.071721
v -0.039417 -0.053166 0.071729
v -0.076835 -0.047068 0.071729
v -0.073355 -0.050589 0.071478
v -0.070172 -0.052556 0.070718
v -0.070900 -0.052193 0.061020
v -0.071274 -0.051919 0.013578
v -0.072070 -0.051529 0.064599
v -0.075377 -0.049051 0.058916
v -0.077161 -0.046892 0.064075
v -0.077582 -0.046294 0.061020
v -0.078790 -0.044058 0.054392
v -0.079193 -0.043118 0.067795
v -0.080056 -0.040322 0.027881
v -0.080046 -0.040322 0.023785
v -0.080411 -0.038795 0.038303
v -0.080717 -0.036367 0.034494
v -0.080995 -0.032923 0.037542
v -0.081676 -0.022996 0.023283
v -0.081772 -0.021464 0.039579
v -0.081791 -0.020282 0.040103
v -0.081762 -0.019079 0.034863
v -0.081647 -0.017536 0.007969
v -0.081590 -0.017629 0.002736
v -0.079950 -0.012394 0.003570
v -0.076978 -0.008010 0.001968
v -0.074399 -0.005632 0.002153
v -0.066308 -0.002220 0.071721
v -0.054727 -0.001253 0.071721
v -0.073748 -0.004967 0.008478
v -0.071811 -0.003868 0.006183
v -0.070526 -0.003330 0.071721
v -0.019006 0.000554 0.071729
v -0.006773 0.001131 0.071729
v -0.003187 0.001230 0.071729
v -0.002679 0.001263 0.068695
v -0.032447 -0.000116 0.071721
v 0.001788 0.000455 0.071729
v 0.005441 -0.000935 0.061027
v 0.006045 -0.001396 0.071478
v 0.007866 -0.002489 0.063588
v 0.008077 -0.002500 0.029918
v 0.008595 -0.003050 0.056444
v 0.009400 -0.003885 0.068437
v 0.011826 -0.006917 0.071729
v 0.009467 -0.004072 0.071478
v 0.013187 -0.009252 0.070216
v 0.014558 -0.013273 0.071729
v 0.014750 -0.014311 0.066651
v 0.014999 -0.016333 0.071729
v 0.015910 -0.035433 0.064223
v 0.015987 -0.033994 0.071721
v 0.010589 -0.046623 0.071721
v 0.013619 -0.042377 0.070334
v -0.031613 -0.052699 0.071729
v 0.013417 -0.042267 0.039085
v 0.013197 -0.042965 0.060525
v 0.012717 -0.042965 0.016641
v 0.011893 -0.043970 0.013585
v 0.010119 -0.045975 0.019711
v 0.009055 -0.046969 0.028324
v 0.006055 -0.049029 0.058747
v 0.005230 -0.049447 0.070784
v -0.078829 -0.043833 0.071729
v -0.077256 -0.046678 0.068179
v -0.079720 -0.041366 0.070467
v -0.080056 -0.040218 0.063832
v -0.080295 -0.038795 0.068179
v -0.080535 -0.037718 0.044783
v -0.080679 -0.036691 0.040605
v -0.081034 -0.032159 0.044185
v -0.081772 -0.021458 0.044709
v -0.081542 -0.021469 0.068688
v -0.081676 -0.018393 0.044192
v -0.081379 -0.017371 0.068053
v -0.080804 -0.014410 0.062053
v -0.080765 -0.014317 0.005799
v -0.079634 -0.011581 0.061285
v -0.079366 -0.011147 0.010390
v -0.078244 -0.009439 0.004839
v -0.076259 -0.007054 0.004397
v -0.073767 -0.005011 0.032974
v -0.075473 -0.006291 0.014604
v -0.075473 -0.006285 0.029918
v -0.074956 -0.005890 0.047248
v -0.073211 -0.004747 0.058481
v -0.073297 -0.004879 0.071721
v -0.081187 -0.028341 0.071729
v 0.006083 -0.049051 0.064607
v 0.011807 -0.044777 0.048783
v 0.012324 -0.044168 0.055425
v 0.012631 -0.043860 0.064607
v -0.080228 -0.038812 0.071729
v -0.080861 -0.032187 0.071729
v -0.081503 -0.021480 0.071721
v -0.081340 -0.017387 0.071721
v -0.080267 -0.013300 0.071721
v -0.079107 -0.010839 0.070334
v -0.078148 -0.009246 0.063138
v -0.076557 -0.007291 0.024818
v -0.074419 -0.005582 0.067670
v -0.076489 -0.007274 0.060392
v -0.076442 -0.007461 0.071345
v -0.076883 -0.007719 0.066134
f 1 2 3
f 1 3 4
f 1 4 5
f 1 5 6
f 1 6 7
f 1 7 8
f 1 8 9
f 1 9 10
f 1 10 11
f 1 11 2
f 2 11 12
f 2 12 13
f 2 13 14
f 2 14 15
f 2 15 3
f 3 15 16
f 3 16 17
f 3 17 18
f 3 18 19
f 3 19 4
f 4 19 20
f 4 20 21
f 4 21 22
f 4 22 23
f 4 23 24
f 4 24 5
f 5 24 6
f 6 24 23
f 6 23 25
f 6 25 26
f 6 26 7
f 7 26 8
f 8 26 25
f 8 25 27
f 8 27 9
f 9 27 28
f 9 28 29
f 9 29 30
f 9 30 10
f 10 30 11
f 11 30 31
f 11 31 32
f 11 32 33
f 11 33 13
f 11 13 12
f 13 33 34
f 13 34 35
f 13 35 14
f 14 35 15
f 15 35 36
f 15 36 16
f 16 36 37
f 16 37 38
f 16 38 39
f 16 39 17
f 17 39 40
f 17 40 41
f 17 41 18
f 18 41 42
f 18 42 43
f 18 43 44
f 18 44 19
f 19 44 45
f 19 45 46
f 19 46 20
f 20 46 47
f 20 47 48
f 20 48 21
f 21 48 49
f 21 49 50
f 21 50 22
f 22 51 52
f 22 52 53
f 22 53 23
f 22 50 51
f 23 53 54
f 23 54 25
f 25 54 27
f 27 55 56
f 27 56 28
f 27 54 55
f 28 56 57
f 28 57 29
f 29 57 58
f 29 58 59
f 29 59 60
f 29 60 30
f 30 60 31
f 31 60 61
f 31 61 62
f 31 62 63
f 31 63 32
f 32 64 33
f 32 63 64
f 33 65 66
f 33 66 67
f 33 67 34
f 33 64 65
f 34 67 68
f 34 68 37
f 34 37 69
f 34 69 35
f 35 69 36
f 36 69 37
f 37 68 38
f 38 70 39
f 38 68 70
f 39 70 71
f 39 71 40
f 40 72 73
f 40 73 41
f 40 71 72
f 41 73 42
f 42 73 74
f 42 74 75
f 42 75 43
f 43 76 77
f 43 77 78
f 43 78 46
f 43 46 45
f 43 45 44
f 43 75 76
f 46 79 47
f 46 78 79
f 47 79 80
f 47 80 81
f 47 81 48
f 48 81 49
f 49 82 83
f 49 83 50
f 49 81 84
f 49 84 82
f 50 83 85
f 50 85 86
f 50 86 51
f 51 86 87
f 51 87 88
f 51 88 52
f 52 88 89
f 52 89 53
f 53 89 54
f 54 89 90
f 54 90 55
f 55 91 92
f 55 92 93
f 55 93 94
f 55 94 95
f 55 95 56
f 55 90 96
f 55 96 91
f 56 95 97
f 56 97 98
f 56 98 57
f 57 98 99
f 57 99 58
f 58 99 59
f 59 100 101
f 59 101 102
f 59 102 103
f 59 103 60
f 59 99 100
f 60 103 61
f 61 104 105
f 61 105 62
f 61 103 106
f 61 106 104
f 62 105 107
f 62 107 63
f 63 107 108
f 63 108 64
f 64 108 109
f 64 109 110
f 64 110 65
f 65 111 66
f 65 110 111
f 66 112 68
f 66 68 67
f 66 111 113
f 66 113 114
f 66 114 112
f 68 112 115
f 68 115 70
f 70 116 71
f 70 115 116
f 71 116 117
f 71 117 118
f 71 118 119
f 71 119 72
f 72 119 120
f 72 120 121
f 72 121 74
f 72 74 73
f 74 122 75
f 74 121 123
f 74 123 122
f 75 124 125
f 75 125 126
f 75 126 76
f 75 122 124
f 76 127 77
f 76 126 127
f 77 128 129
f 77 129 78
f 77 127 128
f 78 129 130
f 78 130 79
f 79 131 80
f 79 130 131
f 80 131 132
f 80 132 133
f 80 133 134
f 80 134 81
f 81 135 136
f 81 136 84
f 81 134 135
f 82 84 137
f 82 137 138
f 82 138 83
f 83 138 85
f 84 139 140
f 84 140 137
f 84 136 133
f 84 133 141
f 84 141 139
f 85 138 142
f 85 142 143
f 85 143 144
f 85 144 86
f 86 144 87
f 87 144 145
f 87 145 88
f 88 146 147
f 88 147 148
f 88 148 89
f 88 145 146
f 89 148 90
f 90 148 149
f 90 149 150
f 90 150 151
f 90 151 96
f 91 152 205
f 91 205 141
f 91 141 133
f 91 133 132
f 91 132 200
f 91 200 198
f 91 198 195
f 91 195 188
f 91 188 185
f 91 185 184
f 91 184 183
f 91 183 238
f 91 238 244
f 91 244 243
f 91 243 214
f 91 214 153
f 91 153 97
f 91 97 95
f 91 95 93
f 91 93 92
f 91 96 151
f 91 151 152
f 93 95 94
f 97 153 154
f 97 154 155
f 97 155 98
f 98 155 156
f 98 156 157
f 98 157 99
f 99 157 158
f 99 158 159
f 99 159 160
f 99 160 100
f 100 160 161
f 100 161 101
f 101 161 162
f 101 162 102
f 102 163 164
f 102 164 165
f 102 165 106
f 102 106 103
f 102 162 163
f 104 166 167
f 104 167 105
f 104 106 165
f 104 165 164
f 104 164 166
f 105 167 168
f 105 168 107
f 107 169 170
f 107 170 171
f 107 171 172
f 107 172 173
f 107 173 174
f 107 174 108
f 107 168 169
f 108 174 109
f 109 174 175
f 109 175 110
f 110 175 176
f 110 176 111
f 111 176 177
f 111 177 113
f 112 114 178
f 112 178 179
f 112 179 115
f 113 180 181
f 113 181 114
f 113 177 180
f 114 181 182
f 114 182 178
f 115 183 184
f 115 184 185
f 115 185 186
f 115 186 116
f 115 179 187
f 115 187 183
f 116 186 188
f 116 188 117
f 117 188 189
f 117 189 118
f 118 189 120
f 118 120 119
f 120 189 190
f 120 190 191
f 120 191 121
f 121 191 192
f 121 192 123
f 122 123 192
f 122 192 193
f 122 193 194
f 122 194 124
f 124 195 125
f 124 194 196
f 124 196 195
f 125 195 126
f 126 195 127
f 127 195 197
f 127 197 128
f 128 197 198
f 128 198 129
f 129 198 130
f 130 198 199
f 130 199 131
f 131 200 132
f 131 199 200
f 133 136 134
f 134 136 135
f 137 201 138
f 137 140 201
f 138 201 202
f 138 202 203
f 138 203 204
f 138 204 142
f 139 202 201
f 139 201 140
f 139 141 202
f 141 205 203
f 141 203 202
f 142 204 206
f 142 206 143
f 143 206 207
f 143 207 208
f 143 208 144
f 144 208 209
f 144 209 145
f 145 209 203
f 145 203 210
f 145 210 146
f 146 210 211
f 146 211 147
f 147 211 212
f 147 212 149
f 147 149 148
f 149 212 213
f 149 213 150
f 150 213 203
f 150 203 151
f 151 203 205
f 151 205 152
f 153 214 215
f 153 215 160
f 153 160 159
f 153 159 154
f 154 159 158
f 154 158 155
f 155 158 156
f 156 158 157
f 160 215 161
f 161 215 214
f 161 214 162
f 162 214 163
f 163 214 216
f 163 216 164
f 164 216 217
f 164 217 166
f 166 217 218
f 166 218 219
f 166 219 220
f 166 220 167
f 167 220 168
f 168 220 221
f 168 221 222
f 168 222 169
f 169 222 170
f 170 222 171
f 171 222 223
f 171 223 224
f 171 224 172
f 172 224 173
f 173 224 225
f 173 225 226
f 173 226 227
f 173 227 174
f 174 227 175
f 175 228 229
f 175 229 230
f 175 230 176
f 175 227 228
f 176 230 231
f 176 231 177
f 177 231 180
f 178 182 183
f 178 183 179
f 179 183 187
f 180 232 181
f 180 231 233
f 180 233 234
f 180 234 235
f 180 235 232
f 181 232 236
f 181 236 182
f 182 236 237
f 182 237 238
f 182 238 183
f 185 188 186
f 188 190 189
f 188 195 190
f 190 196 194
f 190 194 191
f 190 195 196
f 191 194 193
f 191 193 192
f 195 198 197
f 198 200 199
f 203 213 239
f 203 239 212
f 203 212 211
f 203 211 210
f 203 209 240
f 203 240 241
f 203 241 242
f 203 242 204
f 204 242 207
f 204 207 206
f 207 242 241
f 207 241 208
f 208 241 240
f 208 240 209
f 212 239 213
f 214 243 216
f 216 243 218
f 216 218 217
f 218 244 220
f 218 220 219
f 218 243 244
f 220 244 238
f 220 238 221
f 221 238 222
f 222 238 223
f 223 238 245
f 223 245 246
f 223 246 224
f 224 246 225
f 225 246 226
f 226 247 228
f 226 228 227
f 226 246 247
f 228 248 249
f 228 249 229
f 228 247 248
f 229 249 230
f 230 249 250
f 230 250 231
f 231 250 233
f 232 235 251
f 232 251 236
f 233 250 234
f 234 250 252
f 234 252 235
f 235 252 251
f 236 251 237
f 237 251 253
f 237 253 247
f 237 247 238
f 238 247 246
f 238 246 245
f 247 253 248
f 248 253 254
f 248 254 249
f 249 254 250
f 250 254 252
f 251 252 254
f 251 254 253
