v -0.084333 -0.017878 0.077886
v -0.084161 -0.018523 0.077382
v -0.084318 -0.018897 0.077886
v -0.084273 -0.020939 0.078907
v -0.084309 -0.017878 0.078907
v -0.084292 -0.016857 0.078907
v -0.084294 -0.016857 0.077886
v -0.084128 -0.016857 0.077382
v -0.084165 -0.017878 0.077382
v -0.084155 -0.018897 0.077382
v -0.083534 -0.027323 0.077023
v -0.084134 -0.019569 0.077382
v -0.084277 -0.019918 0.077886
v -0.084253 -0.021961 0.078907
v -0.084050 -0.021961 0.079850
v -0.084047 -0.020939 0.079897
v -0.084039 -0.019918 0.079922
v -0.084042 -0.017878 0.079878
v -0.084034 -0.016857 0.079840
v -0.083995 -0.015835 0.079775
v -0.083934 -0.014817 0.079662
v -0.084198 -0.015835 0.078907
v -0.084178 -0.015835 0.077886
v -0.083854 -0.014191 0.077382
v -0.083925 -0.014817 0.077382
v -0.084036 -0.015835 0.077382
v -0.083059 -0.038291 0.077023
v -0.083098 -0.038291 0.077065
v -0.083842 -0.026694 0.077382
v -0.084120 -0.019918 0.077382
v -0.083564 -0.013814 0.077382
v -0.078517 -0.027323 0.077023
v -0.083456 -0.038291 0.077887
v -0.084034 -0.022979 0.079824
v -0.083519 -0.038291 0.078907
v -0.083827 -0.029632 0.079419
v -0.083818 -0.019918 0.080432
v -0.083794 -0.018897 0.080417
v -0.083755 -0.017878 0.080388
v -0.083712 -0.016857 0.080350
v -0.083664 -0.015835 0.080285
v -0.083596 -0.014817 0.080172
v -0.083876 -0.014062 0.079533
v -0.084047 -0.014817 0.078907
v -0.084016 -0.014817 0.077886
v -0.083878 -0.014081 0.077886
v -0.083811 -0.013814 0.077886
v -0.083054 -0.038379 0.077023
v -0.082991 -0.039310 0.077023
v -0.083059 -0.039310 0.077098
v -0.079852 -0.013814 0.077382
v -0.076398 -0.041863 0.077023
v -0.083376 -0.039310 0.077887
v -0.083791 -0.020939 0.080407
v -0.083995 -0.024001 0.079790
v -0.083260 -0.038291 0.079927
v -0.083439 -0.039310 0.078907
v -0.083187 -0.039310 0.079927
v -0.082903 -0.038291 0.080531
v -0.082923 -0.037270 0.080546
v -0.082963 -0.035227 0.080570
v -0.082980 -0.034209 0.080579
v -0.083018 -0.031145 0.080608
v -0.083210 -0.022979 0.080639
v -0.083229 -0.021961 0.080634
v -0.083280 -0.020939 0.080614
v -0.083154 -0.015835 0.080581
v -0.083086 -0.014817 0.080572
v -0.083001 -0.013814 0.080547
v -0.083012 -0.013814 0.080538
v -0.083562 -0.013814 0.079912
v -0.083627 -0.013814 0.079818
v -0.083839 -0.013814 0.079276
v -0.083862 -0.013814 0.078907
v -0.083896 -0.013976 0.078907
v -0.082976 -0.039478 0.077023
v -0.082993 -0.040331 0.077150
v -0.081168 -0.013814 0.079877
v -0.080790 -0.041863 0.080416
v -0.082577 -0.041863 0.077023
v -0.081197 -0.013814 0.079912
v -0.081706 -0.013814 0.080484
v -0.083252 -0.040331 0.077887
v -0.082804 -0.040831 0.080436
v -0.082834 -0.040150 0.080467
v -0.082871 -0.039310 0.080503
v -0.083315 -0.040331 0.078907
v -0.083022 -0.040428 0.080028
v -0.082295 -0.039310 0.080695
v -0.082295 -0.038291 0.080707
v -0.082295 -0.031145 0.080704
v -0.082312 -0.013814 0.080592
v -0.082883 -0.040331 0.077023
v -0.082831 -0.040647 0.077023
v -0.082709 -0.041353 0.077023
v -0.082899 -0.041353 0.077251
v -0.081274 -0.041863 0.080623
v -0.082844 -0.041863 0.077321
v -0.081715 -0.013814 0.080486
v -0.082880 -0.041863 0.077442
v -0.083085 -0.041353 0.077887
v -0.082215 -0.041353 0.080634
v -0.082956 -0.041353 0.079800
v -0.082893 -0.041863 0.079655
v -0.082820 -0.041863 0.079815
v -0.082725 -0.041353 0.080310
v -0.082138 -0.041863 0.080621
v -0.082396 -0.040428 0.080614
v -0.083143 -0.041353 0.078907
v -0.081380 -0.041353 0.080634
v -0.082294 -0.013814 0.080592
v -0.082980 -0.041863 0.077928
v -0.083009 -0.041863 0.078424
v -0.083026 -0.041863 0.078875
v -0.082665 -0.041863 0.080127
f 1 2 3
f 1 3 4
f 1 4 5
f 1 5 6
f 1 6 7
f 1 7 8
f 1 8 9
f 1 9 2
f 2 10 3
f 2 9 11
f 2 11 10
f 3 10 12
f 3 12 13
f 3 13 14
f 3 14 4
f 4 14 15
f 4 15 5
f 5 15 16
f 5 16 17
f 5 17 18
f 5 18 6
f 6 18 19
f 6 19 20
f 6 20 21
f 6 21 22
f 6 22 7
f 7 22 23
f 7 23 24
f 7 24 25
f 7 25 26
f 7 26 8
f 8 26 11
f 8 11 9
f 10 11 12
f 11 27 28
f 11 28 29
f 11 29 30
f 11 30 12
f 11 26 25
f 11 25 24
f 11 24 31
f 11 31 51
f 11 51 32
f 11 32 52
f 11 52 80
f 11 80 95
f 11 95 94
f 11 94 93
f 11 93 76
f 11 76 49
f 11 49 48
f 11 48 27
f 12 30 13
f 13 30 29
f 13 29 33
f 13 33 14
f 14 34 15
f 14 33 35
f 14 35 36
f 14 36 34
f 15 37 16
f 15 34 37
f 16 37 17
f 17 37 18
f 18 37 19
f 19 37 38
f 19 38 39
f 19 39 40
f 19 40 20
f 20 41 21
f 20 40 41
f 21 41 42
f 21 42 43
f 21 43 22
f 22 43 44
f 22 44 23
f 23 44 45
f 23 45 24
f 24 45 46
f 24 46 47
f 24 47 31
f 27 48 28
f 28 48 49
f 28 49 50
f 28 50 33
f 28 33 29
f 31 47 74
f 31 74 73
f 31 73 72
f 31 72 71
f 31 71 70
f 31 70 69
f 31 69 92
f 31 92 111
f 31 111 99
f 31 99 82
f 31 82 81
f 31 81 78
f 31 78 51
f 32 51 52
f 33 50 53
f 33 53 35
f 34 54 37
f 34 36 55
f 34 55 56
f 34 56 54
f 35 53 57
f 35 57 58
f 35 58 56
f 35 56 36
f 36 56 55
f 37 54 59
f 37 59 60
f 37 60 61
f 37 61 62
f 37 62 63
f 37 63 64
f 37 64 65
f 37 65 66
f 37 66 67
f 37 67 38
f 38 67 68
f 38 68 39
f 39 68 40
f 40 68 69
f 40 69 41
f 41 69 70
f 41 70 42
f 42 70 71
f 42 71 72
f 42 72 43
f 43 72 73
f 43 73 74
f 43 74 75
f 43 75 44
f 44 75 45
f 45 75 46
f 46 75 74
f 46 74 47
f 49 76 50
f 50 76 77
f 50 77 53
f 51 78 52
f 52 79 97
f 52 97 107
f 52 107 115
f 52 115 105
f 52 105 104
f 52 104 114
f 52 114 113
f 52 113 112
f 52 112 100
f 52 100 98
f 52 98 80
f 52 78 81
f 52 81 82
f 52 82 79
f 53 77 83
f 53 83 87
f 53 87 57
f 54 56 59
f 56 58 84
f 56 84 85
f 56 85 86
f 56 86 59
f 57 87 58
f 58 87 88
f 58 88 84
f 59 86 89
f 59 89 60
f 60 89 61
f 61 89 62
f 62 89 63
f 63 89 90
f 63 90 64
f 64 90 91
f 64 91 65
f 65 92 67
f 65 67 66
f 65 91 92
f 67 92 68
f 68 92 69
f 76 93 77
f 77 94 95
f 77 95 96
f 77 96 83
f 77 93 94
f 79 82 97
f 80 98 95
f 82 99 97
f 83 96 98
f 83 98 100
f 83 100 101
f 83 101 87
f 84 102 85
f 84 88 103
f 84 103 104
f 84 104 105
f 84 105 106
f 84 106 107
f 84 107 102
f 85 102 86
f 86 102 108
f 86 108 89
f 87 101 109
f 87 109 103
f 87 103 88
f 89 108 102
f 89 102 107
f 89 107 97
f 89 97 110
f 89 110 90
f 90 110 91
f 91 110 97
f 91 97 111
f 91 111 92
f 95 98 96
f 97 99 111
f 100 112 101
f 101 112 113
f 101 113 109
f 103 109 104
f 104 109 114
f 105 115 106
f 106 115 107
f 109 113 114
