v -0.002452 0.017123 0.052298
v -0.002448 0.016001 0.052117
v -0.000476 0.017129 0.051631
v -0.002083 0.018240 0.052256
v -0.002075 0.019892 0.052231
v -0.002475 0.023337 0.051823
v -0.002475 -0.002908 0.038268
v -0.002333 0.004006 0.045650
v -0.002307 0.011908 0.050872
v -0.002080 0.014282 0.051631
v -0.001175 0.015477 0.051600
v 0.001829 0.017716 0.050676
v 0.000828 0.019285 0.051172
v 0.000434 0.014994 0.050903
v 0.001716 0.016116 0.050500
v -0.000113 0.020957 0.051471
v -0.001913 0.021737 0.051978
v -0.001121 0.023892 0.051306
v -0.002263 0.025477 0.051120
v -0.002198 0.028225 0.049906
v -0.002475 0.032578 0.047106
v -0.002475 0.000894 0.006175
v -0.002467 -0.002794 0.010736
v -0.002421 -0.005734 0.032220
v -0.002339 -0.004695 0.034906
v -0.002294 -0.003417 0.037282
v -0.000637 -0.002321 0.037545
v -0.000543 -0.001438 0.038842
v -0.002251 -0.001293 0.040428
v -0.002329 0.002339 0.044276
v 0.001942 0.005014 0.044782
v -0.000373 0.005705 0.046239
v -0.002031 0.007175 0.047866
v -0.002175 0.010401 0.050035
v -0.000811 0.011710 0.050237
v 0.000196 0.012562 0.050237
v -0.001965 0.013103 0.051260
v -0.000577 0.013445 0.050877
v 0.001942 0.019586 0.050619
v 0.001789 0.011757 0.049126
v 0.001942 0.009741 0.047933
v 0.001156 0.012401 0.049731
v 0.001942 0.021035 0.050485
v 0.001733 0.023025 0.050247
v 0.000145 0.023664 0.050846
v -0.000564 0.024838 0.050800
v -0.000967 0.027778 0.049782
v -0.001224 0.029150 0.049100
v -0.002231 0.031020 0.048150
v -0.000945 0.032386 0.046771
v -0.002328 0.033815 0.046104
v -0.002475 0.037680 0.042767
v -0.002386 -0.001043 0.008210
v -0.002475 0.001985 0.005540
v 0.001942 0.008235 0.002126
v 0.001942 0.006936 0.002993
v 0.001942 0.005731 0.003933
v -0.001284 -0.002316 0.011408
v -0.001946 -0.003199 0.012110
v -0.001941 -0.003765 0.013386
v -0.002201 -0.004534 0.014915
v -0.002378 -0.005490 0.017643
v -0.002392 -0.005989 0.019750
v 0.001942 0.002853 0.007358
v -0.002300 -0.006332 0.022968
v -0.002208 -0.006415 0.027318
v -0.002098 -0.005947 0.030649
v -0.001180 -0.005262 0.031403
v -0.000565 -0.004560 0.032566
v -0.001233 -0.004612 0.033666
v -0.002118 -0.005210 0.033351
v 0.000036 -0.002659 0.036006
v 0.001942 0.001061 0.039818
v 0.001942 0.002526 0.042235
v -0.001317 0.000510 0.041993
v -0.002018 0.000941 0.042798
v 0.001942 0.004188 0.044033
v 0.001934 0.006443 0.045924
v -0.000882 0.009653 0.049131
v 0.001338 0.010474 0.048646
v 0.001942 0.030360 0.046931
v 0.001747 0.028386 0.048186
v 0.001536 0.024448 0.049999
v 0.000276 0.025519 0.050232
v 0.000603 0.026994 0.049472
v -0.000324 0.028454 0.049168
v 0.000718 0.029254 0.048217
v -0.000332 0.031451 0.047199
v 0.001444 0.033425 0.045071
v -0.000471 0.034958 0.044596
v -0.002225 0.036521 0.043795
v -0.000604 0.036771 0.043067
v 0.000155 0.037410 0.042034
v -0.001591 0.038849 0.041063
v -0.002452 0.038568 0.041724
v -0.002475 0.039763 0.040190
v 0.001942 0.004505 0.005215
v 0.001942 0.003601 0.006310
v -0.002125 0.015222 0.000504
v -0.001874 0.012999 0.000943
v -0.001271 0.011539 0.001196
v -0.000837 0.010396 0.001506
v 0.000415 0.010843 0.001067
v 0.001351 0.009721 0.001408
v -0.002475 0.028490 -0.000106
v 0.001780 0.010874 0.000891
v 0.001942 0.015877 -0.000199
v -0.000364 -0.001755 0.011893
v -0.000679 -0.003693 0.015576
v -0.000939 -0.005173 0.019905
v 0.001942 0.002074 0.008841
v -0.002067 -0.006363 0.024895
v -0.002137 -0.006436 0.026078
v -0.000353 -0.005189 0.023237
v -0.001000 -0.005817 0.025577
v -0.000936 -0.005724 0.027390
v -0.001813 -0.006004 0.029363
v -0.000229 -0.004898 0.030489
v 0.000600 -0.004020 0.031197
v -0.000344 -0.003797 0.034177
v 0.000490 -0.003028 0.034229
v 0.001942 -0.000695 0.036336
v 0.001942 0.031456 0.046234
v 0.001459 0.025861 0.049519
v 0.001779 0.034173 0.044343
v 0.001740 0.035093 0.043568
v 0.000638 0.036511 0.042737
v 0.000407 0.038459 0.040686
v 0.001894 0.036532 0.042029
v -0.000353 0.039446 0.039797
v -0.001360 0.040246 0.039126
v -0.002475 0.041810 0.037127
v -0.000955 0.015425 0.000158
v -0.000300 0.012666 0.000586
v 0.001404 0.011991 0.000535
v -0.002475 0.032651 0.000421
v -0.002463 0.031337 0.000137
v -0.002125 0.029815 -0.000070
v -0.001241 0.028568 -0.000204
v 0.000760 0.025991 -0.000421
v 0.001270 0.022931 -0.000462
v 0.000617 0.019004 -0.000328
v 0.000059 0.017399 -0.000189
v 0.001422 0.013170 0.000250
v 0.000668 0.015601 -0.000106
v 0.001597 0.017518 -0.000344
v 0.001942 0.020277 -0.000473
v 0.001942 0.001206 0.010659
v 0.000328 -0.002747 0.015582
v -0.000156 -0.004145 0.018288
v 0.000465 -0.003355 0.017596
v 0.000423 -0.004046 0.020081
v 0.000504 -0.004399 0.022803
v 0.000306 -0.004903 0.025432
v -0.000152 -0.005282 0.026724
v 0.000293 -0.004919 0.027777
v 0.000427 -0.004664 0.029079
v 0.001942 -0.002924 0.028816
v 0.001942 -0.002285 0.031631
v 0.001942 -0.001781 0.033408
v 0.001942 -0.001189 0.035076
v 0.001942 0.038277 0.039937
v 0.001339 0.039264 0.039146
v -0.000371 0.040584 0.038232
v -0.000935 0.041779 0.036595
v -0.002222 0.043207 0.034653
v -0.002447 0.046293 0.026062
v -0.002475 0.046636 0.023418
v -0.000238 0.014422 0.000194
v -0.002452 0.039166 0.003918
v -0.002452 0.034859 0.001196
v -0.001827 0.033716 0.000788
v -0.000080 0.031524 0.000281
v -0.001312 0.030786 0.000044
v 0.000228 0.029222 -0.000173
v 0.001821 0.026370 -0.000462
v 0.001821 0.028267 -0.000276
v 0.001942 0.033836 0.001470
v 0.001942 -0.000160 0.013882
v 0.001942 -0.001355 0.016863
v 0.001632 -0.002498 0.019461
v 0.001639 -0.003069 0.022736
v 0.001942 -0.003017 0.025086
v 0.001942 -0.003038 0.027648
v 0.001942 0.041742 0.034838
v 0.001724 0.040849 0.036528
v 0.001278 0.040303 0.037721
v -0.000105 0.042257 0.035340
v -0.000349 0.042880 0.034250
v -0.001832 0.043867 0.032984
v -0.002013 0.044761 0.030799
v -0.002127 0.046013 0.027090
v -0.000373 0.045992 0.024802
v -0.002070 0.046392 0.024941
v -0.001400 0.046470 0.022478
v -0.001804 0.046574 0.019177
v -0.001972 0.046387 0.017421
v -0.002061 0.046049 0.015659
v -0.002291 0.044251 0.010623
v -0.002400 0.042470 0.007606
v -0.002430 0.040101 0.004713
v -0.001813 0.039254 0.004088
v -0.001813 0.038963 0.003846
v -0.002144 0.037742 0.002931
v -0.001907 0.035753 0.001666
v -0.000519 0.033888 0.001010
v 0.001396 0.031498 0.000473
v 0.001495 0.029545 -0.000065
v 0.001861 0.032651 0.000953
v -0.000229 0.035633 0.001867
v 0.001443 0.034849 0.001852
v 0.001772 0.036610 0.003050
v 0.001914 0.037732 0.004037
v 0.001937 0.038605 0.004843
v 0.001942 0.045348 0.020246
v 0.001942 0.042314 0.033697
v 0.000967 0.043228 0.032509
v -0.000550 0.043753 0.032462
v -0.000603 0.044600 0.030272
v -0.000129 0.045171 0.028201
v 0.000345 0.045353 0.026858
v 0.001327 0.045368 0.025029
v 0.000581 0.045862 0.023433
v 0.000077 0.046111 0.021940
v 0.000063 0.046096 0.020582
v -0.000050 0.046028 0.019073
v -0.000681 0.045935 0.016656
v -0.000745 0.045306 0.014084
v -0.002052 0.045685 0.014285
v -0.002009 0.045290 0.013092
v -0.000898 0.044485 0.011800
v 0.000473 0.043737 0.011026
v -0.000955 0.043202 0.009285
v -0.001537 0.041722 0.006790
v -0.000464 0.040849 0.006051
v 0.000310 0.039363 0.004812
v -0.001018 0.038121 0.003334
v -0.000919 0.036890 0.002487
v 0.000948 0.037758 0.003665
v 0.001804 0.040293 0.006496
v 0.001788 0.041914 0.008582
v 0.001869 0.043389 0.011346
v 0.001432 0.044948 0.015644
v 0.001289 0.045483 0.018206
v 0.001942 0.045389 0.021543
v 0.001935 0.044012 0.029627
v 0.001479 0.043732 0.030851
v 0.001674 0.044641 0.027715
v 0.001880 0.044911 0.026207
v 0.001861 0.045363 0.023227
v 0.000616 0.045535 0.016925
v 0.000235 0.045171 0.014740
v 0.001505 0.044220 0.013118
v 0.000336 0.044392 0.012420
v 0.000607 0.042859 0.009481
v -0.000500 0.041670 0.007152
f 1 2 3
f 1 3 4
f 1 4 5
f 1 5 6
f 1 6 7
f 1 7 2
f 2 8 9
f 2 9 10
f 2 10 11
f 2 11 3
f 2 7 8
f 3 12 13
f 3 13 4
f 3 11 14
f 3 14 15
f 3 15 12
f 4 13 5
f 5 13 16
f 5 16 17
f 5 17 6
f 6 17 18
f 6 18 19
f 6 19 20
f 6 20 21
f 6 21 52
f 6 52 96
f 6 96 132
f 6 132 168
f 6 168 136
f 6 136 105
f 6 105 54
f 6 54 22
f 6 22 7
f 7 22 23
f 7 23 24
f 7 24 25
f 7 25 26
f 7 26 27
f 7 27 28
f 7 28 29
f 7 29 30
f 7 30 8
f 8 31 32
f 8 32 33
f 8 33 34
f 8 34 9
f 8 30 31
f 9 34 35
f 9 35 36
f 9 36 37
f 9 37 10
f 10 38 14
f 10 14 11
f 10 37 38
f 12 39 13
f 12 15 40
f 12 40 41
f 12 41 39
f 13 39 16
f 14 38 36
f 14 36 42
f 14 42 15
f 15 42 40
f 16 39 43
f 16 43 44
f 16 44 45
f 16 45 18
f 16 18 17
f 18 45 46
f 18 46 19
f 19 47 20
f 19 46 47
f 20 47 48
f 20 48 49
f 20 49 21
f 21 49 50
f 21 50 51
f 21 51 52
f 22 53 23
f 22 54 55
f 22 55 56
f 22 56 57
f 22 57 53
f 23 58 59
f 23 59 60
f 23 60 61
f 23 61 62
f 23 62 63
f 23 63 24
f 23 53 64
f 23 64 58
f 24 63 65
f 24 65 66
f 24 66 67
f 24 67 68
f 24 68 69
f 24 69 70
f 24 70 71
f 24 71 25
f 25 71 70
f 25 70 72
f 25 72 27
f 25 27 26
f 27 72 73
f 27 73 74
f 27 74 28
f 28 74 29
f 29 74 75
f 29 75 76
f 29 76 30
f 30 76 77
f 30 77 31
f 31 77 74
f 31 74 73
f 31 73 122
f 31 122 161
f 31 161 160
f 31 160 159
f 31 159 158
f 31 158 184
f 31 184 183
f 31 183 180
f 31 180 179
f 31 179 148
f 31 148 111
f 31 111 64
f 31 64 98
f 31 98 97
f 31 97 57
f 31 57 56
f 31 56 55
f 31 55 107
f 31 107 147
f 31 147 178
f 31 178 215
f 31 215 245
f 31 245 216
f 31 216 185
f 31 185 162
f 31 162 123
f 31 123 81
f 31 81 43
f 31 43 39
f 31 39 41
f 31 41 78
f 31 78 32
f 32 78 33
f 33 78 79
f 33 79 34
f 34 79 35
f 35 79 80
f 35 80 40
f 35 40 36
f 36 40 42
f 36 38 37
f 40 80 41
f 41 80 79
f 41 79 78
f 43 81 82
f 43 82 44
f 44 83 45
f 44 82 83
f 45 83 84
f 45 84 46
f 46 84 47
f 47 84 85
f 47 85 86
f 47 86 48
f 48 86 87
f 48 87 88
f 48 88 50
f 48 50 49
f 50 89 90
f 50 90 51
f 50 88 89
f 51 90 91
f 51 91 52
f 52 91 92
f 52 92 93
f 52 93 94
f 52 94 95
f 52 95 96
f 53 57 97
f 53 97 98
f 53 98 64
f 54 99 100
f 54 100 101
f 54 101 102
f 54 102 103
f 54 103 104
f 54 104 55
f 54 105 99
f 55 104 106
f 55 106 107
f 58 108 59
f 58 64 108
f 59 108 109
f 59 109 60
f 60 109 61
f 61 109 62
f 62 109 110
f 62 110 63
f 63 110 65
f 64 111 108
f 65 112 113
f 65 113 66
f 65 110 114
f 65 114 115
f 65 115 112
f 66 113 116
f 66 116 117
f 66 117 67
f 67 117 118
f 67 118 68
f 68 118 69
f 69 118 119
f 69 119 120
f 69 120 70
f 70 120 72
f 72 121 122
f 72 122 73
f 72 120 121
f 74 77 75
f 75 77 76
f 81 123 87
f 81 87 82
f 82 87 86
f 82 86 85
f 82 85 124
f 82 124 83
f 83 124 84
f 84 124 85
f 87 123 88
f 88 123 89
f 89 123 125
f 89 125 90
f 90 125 126
f 90 126 92
f 90 92 91
f 92 126 127
f 92 127 93
f 93 128 94
f 93 127 129
f 93 129 128
f 94 128 130
f 94 130 131
f 94 131 96
f 94 96 95
f 96 131 132
f 99 133 134
f 99 134 100
f 99 105 133
f 100 134 101
f 101 103 102
f 101 134 103
f 103 134 135
f 103 135 106
f 103 106 104
f 105 136 137
f 105 137 138
f 105 138 139
f 105 139 140
f 105 140 141
f 105 141 142
f 105 142 143
f 105 143 133
f 106 135 144
f 106 144 107
f 107 145 146
f 107 146 147
f 107 144 145
f 108 111 148
f 108 148 149
f 108 149 109
f 109 150 110
f 109 149 151
f 109 151 150
f 110 150 152
f 110 152 153
f 110 153 114
f 112 115 113
f 113 115 116
f 114 153 154
f 114 154 115
f 115 154 155
f 115 155 116
f 116 155 156
f 116 156 118
f 116 118 117
f 118 156 157
f 118 157 119
f 119 157 158
f 119 158 159
f 119 159 160
f 119 160 161
f 119 161 121
f 119 121 120
f 121 161 122
f 123 162 129
f 123 129 125
f 125 129 126
f 126 129 127
f 128 129 162
f 128 162 163
f 128 163 130
f 130 164 131
f 130 163 164
f 131 164 132
f 132 164 165
f 132 165 166
f 132 166 167
f 132 167 168
f 133 145 169
f 133 169 134
f 133 143 145
f 134 169 144
f 134 144 135
f 136 170 171
f 136 171 172
f 136 172 173
f 136 173 174
f 136 174 137
f 136 168 170
f 137 174 138
f 138 174 175
f 138 175 139
f 139 175 176
f 139 176 140
f 140 176 141
f 141 147 142
f 141 176 147
f 142 147 146
f 142 146 143
f 143 146 145
f 144 169 145
f 147 176 177
f 147 177 178
f 148 179 149
f 149 179 180
f 149 180 151
f 150 151 152
f 151 180 181
f 151 181 152
f 152 181 182
f 152 182 153
f 153 182 183
f 153 183 154
f 154 156 155
f 154 183 184
f 154 184 156
f 156 184 157
f 157 184 158
f 162 185 186
f 162 186 163
f 163 186 187
f 163 187 164
f 164 187 188
f 164 188 165
f 165 188 166
f 166 188 189
f 166 189 190
f 166 190 191
f 166 191 167
f 167 191 192
f 167 192 193
f 167 193 194
f 167 194 168
f 168 194 195
f 168 195 196
f 168 196 197
f 168 197 198
f 168 198 199
f 168 199 200
f 168 200 170
f 170 201 202
f 170 202 203
f 170 203 204
f 170 204 171
f 170 200 201
f 171 204 205
f 171 205 206
f 171 206 172
f 172 206 173
f 173 206 207
f 173 207 208
f 173 208 174
f 174 208 175
f 175 208 177
f 175 177 176
f 177 208 209
f 177 209 178
f 178 209 206
f 178 206 210
f 178 210 211
f 178 211 212
f 178 212 213
f 178 213 214
f 178 214 215
f 180 183 181
f 181 183 182
f 185 216 188
f 185 188 186
f 186 188 187
f 188 216 189
f 189 216 217
f 189 217 218
f 189 218 190
f 190 218 191
f 191 219 192
f 191 218 219
f 192 219 220
f 192 220 221
f 192 221 193
f 193 221 222
f 193 222 223
f 193 223 195
f 193 195 194
f 195 223 224
f 195 224 196
f 196 224 225
f 196 225 226
f 196 226 227
f 196 227 197
f 197 227 198
f 198 227 228
f 198 228 229
f 198 229 199
f 199 230 231
f 199 231 232
f 199 232 233
f 199 233 200
f 199 229 230
f 200 233 234
f 200 234 201
f 201 234 235
f 201 235 236
f 201 236 202
f 202 236 237
f 202 237 203
f 203 237 204
f 204 237 238
f 204 238 205
f 205 238 210
f 205 210 206
f 206 209 207
f 207 209 208
f 210 238 212
f 210 212 211
f 212 238 237
f 212 237 239
f 212 239 213
f 213 239 236
f 213 236 214
f 214 236 240
f 214 240 241
f 214 241 242
f 214 242 215
f 215 242 243
f 215 243 244
f 215 244 225
f 215 225 245
f 216 246 247
f 216 247 217
f 216 245 246
f 217 247 218
f 218 247 219
f 219 247 220
f 220 247 246
f 220 246 248
f 220 248 221
f 221 248 249
f 221 249 222
f 222 249 250
f 222 250 223
f 223 250 245
f 223 245 224
f 224 245 225
f 225 244 226
f 226 244 227
f 227 244 251
f 227 251 252
f 227 252 228
f 228 230 229
f 228 252 253
f 228 253 254
f 228 254 230
f 230 254 231
f 231 254 232
f 232 254 242
f 232 242 255
f 232 255 233
f 233 255 256
f 233 256 234
f 234 256 235
f 235 240 236
f 235 256 241
f 235 241 240
f 236 239 237
f 241 256 255
f 241 255 242
f 242 254 253
f 242 253 243
f 243 252 251
f 243 251 244
f 243 253 252
f 245 250 249
f 245 249 246
f 246 249 248
