v -0.005872 0.019710 0.052965
v -0.006134 0.023790 0.052357
v -0.006134 0.022874 0.052619
v -0.006134 0.021710 0.052839
v -0.006134 0.020568 0.052944
v -0.007391 0.021139 0.052949
v -0.006134 0.018696 0.052996
v -0.006134 0.017820 0.052996
v -0.005872 0.017673 0.002793
v -0.005872 0.023877 0.001976
v -0.012393 0.024156 0.051682
v -0.009488 0.023889 0.052295
v -0.007382 0.023591 0.052488
v -0.009383 0.024156 0.002557
v -0.007391 0.022282 0.052792
v -0.009078 0.021182 0.052881
v -0.007665 0.017874 0.053012
v -0.008913 0.017836 0.052939
v -0.022514 0.017841 0.046660
v -0.009060 0.017673 0.003379
v -0.022661 0.017841 0.000017
v -0.018615 0.017841 -0.000486
v -0.017470 0.017841 -0.000417
v -0.016286 0.017841 -0.000276
v -0.014665 0.017841 0.000090
v -0.007291 0.019529 0.001363
v -0.006041 0.020568 0.001792
v -0.006746 0.021568 0.001337
v -0.007807 0.021998 0.001085
v -0.016852 0.024045 -0.000145
v -0.015156 0.024156 0.000253
v -0.013501 0.024156 0.051399
v -0.012055 0.022441 0.052164
v -0.010754 0.022748 0.052399
v -0.010687 0.023934 0.052111
v -0.009880 0.022880 0.052530
v -0.009000 0.022566 0.052677
v -0.009825 0.021997 0.052713
v -0.010329 0.021278 0.052729
v -0.009825 0.020283 0.052860
v -0.009967 0.018242 0.052829
v -0.010760 0.017880 0.052703
v -0.011883 0.017861 0.052452
v -0.024379 0.017918 0.045068
v -0.027335 0.017841 0.042303
v -0.020275 0.017918 0.048419
v -0.020182 0.018853 0.048550
v -0.020790 0.019567 0.048116
v -0.021492 0.020383 0.047550
v -0.026759 0.017841 0.001876
v -0.025403 0.017841 0.001064
v -0.032990 0.017841 0.033668
v -0.033484 0.017841 0.032600
v -0.034289 0.017841 0.030798
v -0.036052 0.017841 0.025373
v -0.036525 0.017841 0.021932
v -0.036250 0.017841 0.017005
v -0.023927 0.017861 0.000447
v -0.023186 0.020139 0.000132
v -0.022270 0.019138 -0.000109
v -0.021104 0.017880 -0.000302
v -0.019796 0.017899 -0.000465
v -0.019263 0.018709 -0.000486
v -0.018118 0.018567 -0.000465
v -0.007261 0.020602 0.001164
v -0.018404 0.022282 -0.000344
v -0.018118 0.024156 -0.000229
v -0.015213 0.024059 0.050786
v -0.014191 0.022144 0.051572
v -0.013254 0.022854 0.051760
v -0.017641 0.024156 0.049519
v -0.012399 0.021243 0.052253
v -0.011233 0.021177 0.052562
v -0.013411 0.021663 0.051912
v -0.010681 0.019996 0.052745
v -0.011775 0.019988 0.052520
v -0.012971 0.019425 0.052185
v -0.012998 0.018385 0.052137
v -0.015165 0.018233 0.051331
v -0.016274 0.018162 0.050828
v -0.025620 0.018567 0.044005
v -0.026476 0.018042 0.043204
v -0.027175 0.019282 0.042575
v -0.028196 0.018252 0.041408
v -0.029082 0.017861 0.040276
v -0.019407 0.018261 0.049037
v -0.017557 0.019452 0.050242
v -0.018431 0.019996 0.049671
v -0.020579 0.021309 0.048168
v -0.020549 0.022282 0.048053
v -0.025081 0.022282 0.044204
v -0.023719 0.020855 0.045571
v -0.026795 0.020283 0.042900
v -0.027898 0.019996 0.002541
v -0.025949 0.018996 0.001337
v -0.034813 0.017899 0.011920
v -0.029700 0.017918 0.004007
v -0.028311 0.019138 0.002855
v -0.024906 0.021351 0.000860
v -0.024683 0.018204 0.000724
v -0.031580 0.018047 0.036422
v -0.031767 0.019332 0.036108
v -0.033602 0.019305 0.032521
v -0.034144 0.019004 0.031317
v -0.034828 0.018252 0.029463
v -0.035398 0.018233 0.027845
v -0.035639 0.017880 0.026991
v -0.036525 0.018853 0.023771
v -0.036416 0.017907 0.023917
v -0.036654 0.018853 0.022802
v -0.036570 0.017918 0.020477
v -0.036534 0.017918 0.019372
v -0.036401 0.017880 0.018052
v -0.036455 0.019037 0.017701
v -0.036341 0.019425 0.016926
v -0.036097 0.018404 0.016015
v -0.023734 0.021151 0.000337
v -0.020980 0.021174 -0.000292
v -0.021546 0.019996 -0.000239
v -0.020408 0.020283 -0.000391
v -0.019832 0.021278 -0.000407
v -0.019404 0.022282 -0.000370
v -0.019121 0.023537 -0.000281
v -0.020462 0.023924 -0.000145
v -0.021833 0.024156 0.000206
v -0.016373 0.024071 0.050221
v -0.016466 0.021637 0.050635
v -0.014616 0.021316 0.051520
v -0.020242 0.024156 0.047833
v -0.018841 0.024045 0.048823
v -0.019009 0.022861 0.048964
v -0.017238 0.021174 0.050299
v -0.012685 0.020283 0.052258
v -0.015903 0.020319 0.051027
v -0.016560 0.019425 0.050739
v -0.028377 0.019374 0.041193
v -0.030128 0.019430 0.038805
v -0.030306 0.018126 0.038527
v -0.018075 0.021147 0.049818
v -0.019226 0.021425 0.049064
v -0.019760 0.022127 0.048613
v -0.020380 0.023268 0.047985
v -0.021122 0.023757 0.047299
v -0.022270 0.023934 0.046304
v -0.024394 0.024156 0.044424
v -0.026018 0.023919 0.043057
v -0.026729 0.024139 0.042277
v -0.027708 0.021710 0.041675
v -0.028968 0.019138 0.003369
v -0.029010 0.021853 0.003615
v -0.027992 0.021524 0.002782
v -0.027365 0.021086 0.002290
v -0.026434 0.021174 0.001714
v -0.026503 0.019996 0.001672
v -0.025644 0.020283 0.001206
v -0.035328 0.019436 0.013187
v -0.034967 0.019710 0.012224
v -0.034572 0.019353 0.011271
v -0.033973 0.019138 0.009941
v -0.033563 0.018220 0.009197
v -0.032294 0.018242 0.006945
v -0.030691 0.018237 0.004934
v -0.030197 0.018853 0.004437
v -0.024867 0.022233 0.000939
v -0.023821 0.022282 0.000483
v -0.030631 0.019996 0.037983
v -0.031164 0.019996 0.037093
v -0.032421 0.021139 0.034689
v -0.033545 0.020797 0.032484
v -0.034304 0.021139 0.030730
v -0.034452 0.019996 0.030505
v -0.035118 0.019996 0.028677
v -0.035729 0.018853 0.026839
v -0.036199 0.019854 0.025085
v -0.036244 0.021997 0.023943
v -0.036470 0.021771 0.022634
v -0.036609 0.021334 0.021692
v -0.036636 0.019996 0.019445
v -0.036621 0.018853 0.019513
v -0.036485 0.019996 0.017822
v -0.036344 0.021234 0.017083
v -0.036121 0.019425 0.015942
v -0.020408 0.022139 -0.000308
v -0.022899 0.024156 0.000562
v -0.019612 0.023426 0.048467
v -0.029004 0.020569 0.040266
v -0.029594 0.020855 0.039433
v -0.028986 0.024156 0.039386
v -0.028184 0.023934 0.040617
v -0.029531 0.021835 0.039344
v -0.027024 0.024156 0.002714
v -0.030022 0.021667 0.004510
v -0.030164 0.023842 0.005332
v -0.028175 0.024156 0.003630
v -0.026355 0.023832 0.002175
v -0.035298 0.020449 0.013140
v -0.034626 0.020693 0.011480
v -0.034171 0.019996 0.010401
v -0.033590 0.019411 0.009145
v -0.031845 0.019860 0.006395
v -0.031547 0.018445 0.005898
v -0.030863 0.019282 0.005128
v -0.023746 0.024156 0.000871
v -0.024734 0.024156 0.001347
v -0.030833 0.020942 0.037527
v -0.031788 0.022511 0.035516
v -0.032683 0.021835 0.034045
v -0.032972 0.024089 0.032495
v -0.034063 0.023880 0.030123
v -0.034693 0.022838 0.029065
v -0.034660 0.021866 0.029536
v -0.035241 0.020923 0.028154
v -0.035548 0.020139 0.027358
v -0.035672 0.021241 0.026703
v -0.036012 0.021425 0.025378
v -0.035955 0.022281 0.025226
v -0.035832 0.023241 0.025179
v -0.036018 0.024156 0.023090
v -0.036169 0.024045 0.022168
v -0.036247 0.024003 0.020655
v -0.036482 0.022568 0.020225
v -0.036588 0.021602 0.020765
v -0.036573 0.021135 0.019372
v -0.036410 0.021725 0.017906
v -0.036335 0.022002 0.017644
v -0.035949 0.023207 0.016450
v -0.036037 0.021800 0.015905
v -0.030055 0.024156 0.037763
v -0.030715 0.023299 0.037119
v -0.029736 0.022854 0.038732
v -0.031294 0.019961 0.005667
v -0.031119 0.024045 0.006448
v -0.033421 0.024156 0.010202
v -0.035199 0.022914 0.013638
v -0.034985 0.021494 0.012507
v -0.034229 0.022291 0.010977
v -0.032460 0.022565 0.007972
v -0.031336 0.022854 0.036213
v -0.031779 0.024156 0.034914
v -0.032324 0.024156 0.033841
v -0.035744 0.024156 0.024561
v -0.034663 0.023837 0.028546
v -0.035588 0.023140 0.026227
v -0.035557 0.022139 0.026787
v -0.035548 0.023934 0.025666
v -0.035630 0.024156 0.015937
v -0.035907 0.023930 0.017036
v -0.036127 0.023712 0.018513
v -0.036308 0.023056 0.018832
v -0.036437 0.022191 0.018806
v -0.035347 0.024153 0.014884
v -0.032921 0.023934 0.009255
v -0.034024 0.024004 0.011271
v -0.034702 0.023853 0.012789
v -0.034732 0.022433 0.012171
v -0.034289 0.023140 0.011433
f 1 2 3
f 1 3 4
f 1 4 5
f 1 5 6
f 1 6 7
f 1 7 8
f 1 8 9
f 1 9 10
f 1 10 2
f 2 11 12
f 2 12 13
f 2 13 3
f 2 10 14
f 2 14 11
f 3 13 15
f 3 15 4
f 4 15 6
f 4 6 5
f 6 15 16
f 6 16 17
f 6 17 7
f 7 17 8
f 8 17 18
f 8 18 19
f 8 19 20
f 8 20 9
f 9 20 21
f 9 21 22
f 9 22 23
f 9 23 24
f 9 24 25
f 9 25 26
f 9 26 27
f 9 27 10
f 10 27 28
f 10 28 29
f 10 29 30
f 10 30 31
f 10 31 14
f 11 32 33
f 11 33 34
f 11 34 35
f 11 35 12
f 11 14 31
f 11 31 67
f 11 67 125
f 11 125 184
f 11 184 203
f 11 203 204
f 11 204 191
f 11 191 194
f 11 194 233
f 11 233 246
f 11 246 218
f 11 218 241
f 11 241 240
f 11 240 239
f 11 239 228
f 11 228 188
f 11 188 145
f 11 145 129
f 11 129 71
f 11 71 32
f 12 35 36
f 12 36 37
f 12 37 13
f 13 37 15
f 15 37 16
f 16 37 38
f 16 38 39
f 16 39 40
f 16 40 17
f 17 40 18
f 18 40 41
f 18 41 42
f 18 42 43
f 18 43 19
f 19 44 45
f 19 45 20
f 19 43 46
f 19 46 47
f 19 47 48
f 19 48 49
f 19 49 44
f 20 50 51
f 20 51 21
f 20 45 52
f 20 52 53
f 20 53 54
f 20 54 55
f 20 55 56
f 20 56 57
f 20 57 50
f 21 58 59
f 21 59 60
f 21 60 61
f 21 61 22
f 21 51 58
f 22 61 62
f 22 62 63
f 22 63 64
f 22 64 23
f 23 64 30
f 23 30 24
f 24 30 29
f 24 29 65
f 24 65 26
f 24 26 25
f 26 65 27
f 27 65 28
f 28 65 29
f 30 64 66
f 30 66 67
f 30 67 31
f 32 68 69
f 32 69 70
f 32 70 33
f 32 71 68
f 33 72 73
f 33 73 34
f 33 70 74
f 33 74 72
f 34 73 38
f 34 38 36
f 34 36 35
f 36 38 37
f 38 73 39
f 39 75 40
f 39 73 75
f 40 75 41
f 41 75 42
f 42 75 76
f 42 76 43
f 43 76 77
f 43 77 78
f 43 78 79
f 43 79 80
f 43 80 46
f 44 49 81
f 44 81 82
f 44 82 45
f 45 82 83
f 45 83 84
f 45 84 85
f 45 85 52
f 46 80 86
f 46 86 47
f 47 86 87
f 47 87 88
f 47 88 48
f 48 88 89
f 48 89 49
f 49 89 90
f 49 90 91
f 49 91 92
f 49 92 93
f 49 93 81
f 50 94 95
f 50 95 51
f 50 57 96
f 50 96 97
f 50 97 98
f 50 98 94
f 51 95 99
f 51 99 100
f 51 100 58
f 52 85 101
f 52 101 102
f 52 102 103
f 52 103 104
f 52 104 53
f 53 104 54
f 54 104 105
f 54 105 106
f 54 106 107
f 54 107 55
f 55 108 109
f 55 109 56
f 55 107 108
f 56 109 110
f 56 110 111
f 56 111 112
f 56 112 113
f 56 113 57
f 57 113 114
f 57 114 115
f 57 115 116
f 57 116 96
f 58 100 59
f 59 100 117
f 59 117 118
f 59 118 119
f 59 119 60
f 60 119 61
f 61 119 120
f 61 120 62
f 62 120 63
f 63 120 121
f 63 121 122
f 63 122 64
f 64 122 66
f 66 122 67
f 67 122 123
f 67 123 124
f 67 124 125
f 68 126 127
f 68 127 69
f 68 71 126
f 69 128 74
f 69 74 70
f 69 127 128
f 71 129 130
f 71 130 131
f 71 131 132
f 71 132 127
f 71 127 126
f 72 133 76
f 72 76 73
f 72 74 133
f 73 76 75
f 74 128 133
f 76 133 77
f 77 133 128
f 77 128 134
f 77 134 79
f 77 79 78
f 79 134 135
f 79 135 80
f 80 135 87
f 80 87 86
f 81 93 83
f 81 83 82
f 83 93 136
f 83 136 84
f 84 136 85
f 85 136 137
f 85 137 138
f 85 138 101
f 87 135 134
f 87 134 132
f 87 132 139
f 87 139 88
f 88 140 89
f 88 139 140
f 89 140 141
f 89 141 90
f 90 142 143
f 90 143 144
f 90 144 91
f 90 141 142
f 91 144 145
f 91 145 146
f 91 146 93
f 91 93 92
f 93 146 147
f 93 147 148
f 93 148 136
f 94 98 149
f 94 149 150
f 94 150 151
f 94 151 152
f 94 152 153
f 94 153 154
f 94 154 95
f 95 154 155
f 95 155 99
f 96 116 156
f 96 156 157
f 96 157 158
f 96 158 159
f 96 159 160
f 96 160 161
f 96 161 97
f 97 162 163
f 97 163 149
f 97 149 98
f 97 161 162
f 99 155 154
f 99 154 153
f 99 153 164
f 99 164 165
f 99 165 117
f 99 117 100
f 101 138 166
f 101 166 102
f 102 166 167
f 102 167 168
f 102 168 103
f 103 168 169
f 103 169 170
f 103 170 104
f 104 170 171
f 104 171 105
f 105 172 106
f 105 171 172
f 106 172 173
f 106 173 107
f 107 173 108
f 108 174 175
f 108 175 176
f 108 176 110
f 108 110 109
f 108 173 174
f 110 176 177
f 110 177 178
f 110 178 179
f 110 179 111
f 111 179 112
f 112 179 113
f 113 179 114
f 114 179 180
f 114 180 115
f 115 180 181
f 115 181 182
f 115 182 116
f 116 182 156
f 117 165 125
f 117 125 124
f 117 124 118
f 118 124 183
f 118 183 121
f 118 121 120
f 118 120 119
f 121 183 122
f 122 183 123
f 123 183 124
f 125 165 184
f 127 132 134
f 127 134 128
f 129 142 130
f 129 145 144
f 129 144 143
f 129 143 142
f 130 142 185
f 130 185 131
f 131 185 141
f 131 141 140
f 131 140 139
f 131 139 132
f 136 148 186
f 136 186 137
f 137 186 187
f 137 187 166
f 137 166 138
f 141 185 142
f 145 188 147
f 145 147 146
f 147 188 189
f 147 189 148
f 148 189 190
f 148 190 186
f 149 163 150
f 150 191 151
f 150 163 192
f 150 192 193
f 150 193 194
f 150 194 191
f 151 191 195
f 151 195 152
f 152 195 153
f 153 195 164
f 156 182 196
f 156 196 157
f 157 196 197
f 157 197 158
f 158 197 198
f 158 198 159
f 159 198 199
f 159 199 160
f 160 199 161
f 161 199 200
f 161 200 201
f 161 201 162
f 162 201 202
f 162 202 163
f 163 202 192
f 164 203 165
f 164 195 204
f 164 204 203
f 165 203 184
f 166 205 167
f 166 187 205
f 167 205 168
f 168 205 206
f 168 206 207
f 168 207 169
f 169 207 170
f 170 207 208
f 170 208 209
f 170 209 210
f 170 210 211
f 170 211 212
f 170 212 172
f 170 172 171
f 172 212 213
f 172 213 173
f 173 213 174
f 174 213 214
f 174 214 215
f 174 215 175
f 175 215 216
f 175 216 217
f 175 217 218
f 175 218 176
f 176 219 177
f 176 218 219
f 177 220 221
f 177 221 222
f 177 222 178
f 177 219 220
f 178 222 223
f 178 223 224
f 178 224 180
f 178 180 179
f 180 224 181
f 181 224 225
f 181 225 226
f 181 226 227
f 181 227 182
f 182 227 196
f 186 190 187
f 187 190 205
f 188 228 229
f 188 229 230
f 188 230 189
f 189 230 190
f 190 230 229
f 190 229 205
f 191 204 195
f 192 202 231
f 192 231 232
f 192 232 193
f 193 232 194
f 194 232 233
f 196 227 234
f 196 234 235
f 196 235 197
f 197 236 198
f 197 235 236
f 198 236 199
f 199 236 237
f 199 237 200
f 200 237 232
f 200 232 231
f 200 231 201
f 201 231 202
f 205 229 238
f 205 238 206
f 206 238 239
f 206 239 207
f 207 239 240
f 207 240 208
f 208 240 241
f 208 241 209
f 209 242 210
f 209 241 242
f 210 242 243
f 210 243 244
f 210 244 211
f 211 244 212
f 212 244 214
f 212 214 213
f 214 244 215
f 215 244 216
f 216 244 243
f 216 243 217
f 217 241 218
f 217 243 245
f 217 245 241
f 218 220 219
f 218 246 220
f 220 246 247
f 220 247 248
f 220 248 249
f 220 249 221
f 221 249 250
f 221 250 223
f 221 223 222
f 223 250 224
f 224 250 249
f 224 249 225
f 225 247 226
f 225 249 247
f 226 246 251
f 226 251 227
f 226 247 246
f 227 251 234
f 228 239 229
f 229 239 238
f 232 237 252
f 232 252 233
f 233 252 237
f 233 237 236
f 233 236 253
f 233 253 251
f 233 251 246
f 234 254 255
f 234 255 235
f 234 251 254
f 235 255 236
f 236 255 256
f 236 256 253
f 241 245 242
f 242 245 243
f 247 249 248
f 251 253 254
f 253 256 254
f 254 256 255
