v -0.009058 0.038918 0.003435
v -0.009058 0.026331 0.001253
v -0.009058 0.036442 0.001868
v -0.011239 0.036654 0.002098
v -0.010967 0.039723 0.004209
v -0.009093 0.040964 0.005259
v -0.009198 0.046822 0.025247
v -0.009106 0.035669 0.045379
v -0.009380 0.024156 0.002554
v -0.015152 0.024156 0.000249
v -0.009058 0.028248 0.000531
v -0.009383 0.026422 0.051429
v -0.013398 0.034728 0.001386
v -0.009058 0.030626 0.000300
v -0.009251 0.033988 0.000854
v -0.013491 0.036598 0.002421
v -0.014738 0.038248 0.003978
v -0.012921 0.040014 0.005008
v -0.011068 0.041115 0.005679
v -0.009275 0.042673 0.007267
v -0.009467 0.045863 0.013783
v -0.010163 0.046989 0.022860
v -0.012112 0.046122 0.027168
v -0.009641 0.046131 0.028603
v -0.009311 0.044852 0.032578
v -0.009572 0.046911 0.019167
v -0.009488 0.040534 0.040277
v -0.009670 0.037229 0.043965
v -0.011265 0.034299 0.046235
v -0.009206 0.033530 0.047085
v -0.009710 0.024328 0.052131
v -0.019128 0.024156 0.048612
v -0.016977 0.024156 -0.000156
v -0.009354 0.031009 0.048909
v -0.010358 0.029406 0.049790
v -0.013195 0.027303 0.050348
v -0.012312 0.025115 0.051439
v -0.015371 0.033764 0.001376
v -0.011674 0.033856 0.000930
v -0.013514 0.032703 0.000731
v -0.017364 0.031292 0.000859
v -0.019147 0.024435 -0.000202
v -0.010822 0.031487 0.000357
v -0.019091 0.033335 0.002170
v -0.017396 0.036035 0.003205
v -0.017188 0.039158 0.005720
v -0.013412 0.041726 0.007134
v -0.010712 0.043480 0.008799
v -0.009942 0.044783 0.011176
v -0.012159 0.045657 0.014423
v -0.009710 0.046567 0.016759
v -0.012839 0.046535 0.022988
v -0.011682 0.046822 0.021359
v -0.014878 0.045894 0.024423
v -0.015753 0.045329 0.026692
v -0.014337 0.045148 0.029089
v -0.010756 0.045159 0.031231
v -0.014060 0.043509 0.033700
v -0.010551 0.043726 0.034652
v -0.009752 0.042588 0.037034
v -0.011756 0.046652 0.019295
v -0.011197 0.041426 0.038556
v -0.012396 0.040009 0.040241
v -0.010812 0.038907 0.042024
v -0.012222 0.036607 0.044078
v -0.014622 0.036160 0.043740
v -0.014456 0.032799 0.046419
v -0.012874 0.032086 0.047444
v -0.017396 0.024766 0.049487
v -0.018756 0.026391 0.047992
v -0.020489 0.025341 0.047228
v -0.022145 0.024634 0.046255
v -0.022224 0.024223 0.046296
v -0.026445 0.024156 0.042587
v -0.035619 0.024227 0.016063
v -0.030511 0.024317 0.005853
v -0.024378 0.024429 0.001222
v -0.021731 0.024460 0.000223
v -0.034042 0.024156 0.030011
v -0.013704 0.029428 0.048985
v -0.016391 0.027088 0.049134
v -0.015184 0.025247 0.050415
v -0.014841 0.030090 0.000295
v -0.019524 0.028304 0.000439
v -0.021130 0.031161 0.001945
v -0.020900 0.026512 0.000316
v -0.017707 0.027287 0.000024
v -0.022016 0.033760 0.003799
v -0.020415 0.035718 0.004183
v -0.020921 0.038011 0.006668
v -0.017852 0.040291 0.007349
v -0.016215 0.042130 0.008952
v -0.013108 0.044059 0.010709
v -0.014567 0.045264 0.015007
v -0.012676 0.046138 0.016985
v -0.015413 0.044526 0.013481
v -0.014770 0.046048 0.022153
v -0.015795 0.045545 0.018542
v -0.016942 0.045273 0.023844
v -0.018427 0.044455 0.025826
v -0.018667 0.043773 0.028280
v -0.017006 0.043742 0.030790
v -0.014756 0.044265 0.031482
v -0.016895 0.042841 0.033018
v -0.015091 0.042083 0.035790
v -0.012945 0.041853 0.037188
v -0.015529 0.039073 0.040052
v -0.013720 0.038192 0.041993
v -0.014524 0.040883 0.038023
v -0.017707 0.034363 0.043822
v -0.017359 0.036864 0.041655
v -0.016919 0.030242 0.047065
v -0.020051 0.028023 0.046388
v -0.022859 0.026192 0.045113
v -0.024834 0.024710 0.043935
v -0.026416 0.026965 0.041547
v -0.028333 0.024549 0.040216
v -0.032051 0.024388 0.034304
v -0.032945 0.024156 0.032532
v -0.035993 0.024894 0.020417
v -0.034936 0.026523 0.015975
v -0.034559 0.024742 0.013091
v -0.033264 0.024525 0.010079
v -0.035819 0.024867 0.023244
v -0.031258 0.026679 0.007861
v -0.029449 0.027638 0.006079
v -0.028734 0.025403 0.004475
v -0.026234 0.025037 0.002411
v -0.023745 0.026337 0.001381
v -0.033652 0.026015 0.030155
v -0.034659 0.024717 0.027973
v -0.035408 0.024867 0.025360
v -0.022445 0.028011 0.001340
v -0.023461 0.030723 0.002913
v -0.023872 0.034323 0.005326
v -0.024014 0.035993 0.006924
v -0.023874 0.037821 0.009045
v -0.020468 0.040861 0.010233
v -0.018190 0.042291 0.010745
v -0.015719 0.045297 0.016626
v -0.017496 0.043871 0.013972
v -0.016813 0.045382 0.021795
v -0.018390 0.044499 0.018265
v -0.018524 0.044638 0.020627
v -0.020117 0.043956 0.022691
v -0.020927 0.042859 0.027424
v -0.022408 0.042548 0.025042
v -0.020898 0.042061 0.030052
v -0.019265 0.041451 0.033531
v -0.016942 0.041301 0.035805
v -0.018965 0.037343 0.040077
v -0.018838 0.038715 0.038346
v -0.020576 0.032330 0.043607
v -0.020125 0.034875 0.041952
v -0.020460 0.030412 0.044805
v -0.022577 0.030904 0.043064
v -0.023838 0.028622 0.043274
v -0.025143 0.029960 0.041384
v -0.027840 0.028599 0.039099
v -0.029153 0.028248 0.037347
v -0.029654 0.024806 0.038177
v -0.030699 0.026311 0.035954
v -0.031822 0.027032 0.033413
v -0.034435 0.029145 0.023142
v -0.035049 0.027663 0.020232
v -0.034213 0.029310 0.018542
v -0.033934 0.029241 0.016585
v -0.033269 0.029229 0.014270
v -0.034005 0.027359 0.014049
v -0.032544 0.026445 0.009854
v -0.034361 0.028624 0.024945
v -0.030290 0.028854 0.007810
v -0.026076 0.031438 0.005018
v -0.027141 0.028230 0.004183
v -0.028093 0.031956 0.007436
v -0.025069 0.027576 0.002488
v -0.033035 0.028948 0.029176
v -0.034208 0.027513 0.027020
v -0.031590 0.029442 0.032076
v -0.025670 0.029750 0.003784
v -0.026815 0.034207 0.007989
v -0.025744 0.037419 0.010791
v -0.022793 0.040204 0.011621
v -0.019859 0.041936 0.011688
v -0.020571 0.043324 0.017133
v -0.019827 0.043212 0.015243
v -0.021720 0.043049 0.019008
v -0.023155 0.042450 0.020581
v -0.022654 0.042711 0.022440
v -0.023511 0.041493 0.026630
v -0.024291 0.041692 0.022845
v -0.025633 0.040653 0.023654
v -0.023178 0.040818 0.029412
v -0.022234 0.040563 0.031676
v -0.021225 0.039258 0.035457
v -0.019215 0.039719 0.036502
v -0.020681 0.036893 0.039294
v -0.022258 0.032785 0.042075
v -0.023173 0.034576 0.039606
v -0.025174 0.031791 0.040062
v -0.027875 0.030930 0.037439
v -0.030717 0.029361 0.033986
v -0.033045 0.031485 0.025068
v -0.033496 0.031134 0.022117
v -0.033206 0.031418 0.018608
v -0.032645 0.030899 0.014838
v -0.032231 0.032698 0.017261
v -0.031511 0.031563 0.012630
v -0.031537 0.029940 0.010868
v -0.033436 0.029808 0.026712
v -0.029894 0.031447 0.009352
v -0.028563 0.033968 0.010043
v -0.031748 0.031561 0.029366
v -0.030406 0.031330 0.032660
v -0.027495 0.035809 0.010863
v -0.028162 0.036232 0.012641
v -0.027123 0.037955 0.013921
v -0.024009 0.040119 0.013071
v -0.022074 0.041464 0.013419
v -0.022688 0.042155 0.016708
v -0.024821 0.041111 0.018060
v -0.025095 0.041200 0.020161
v -0.026052 0.039225 0.027814
v -0.027226 0.039162 0.024832
v -0.026398 0.040239 0.021446
v -0.025689 0.037825 0.031830
v -0.023611 0.038469 0.033833
v -0.024550 0.036156 0.036374
v -0.022348 0.036869 0.037793
v -0.026754 0.033469 0.036676
v -0.029064 0.031717 0.034781
v -0.032225 0.032055 0.027122
v -0.031814 0.033438 0.025391
v -0.032093 0.033655 0.022415
v -0.031724 0.034129 0.020581
v -0.031474 0.032884 0.014674
v -0.030488 0.035557 0.018486
v -0.030292 0.035320 0.016483
v -0.029762 0.034227 0.012538
v -0.030440 0.032629 0.030857
v -0.030079 0.034772 0.028265
v -0.028797 0.034225 0.032014
v -0.029744 0.035367 0.014715
v -0.028560 0.037443 0.016503
v -0.026664 0.039768 0.018219
v -0.025675 0.039678 0.015110
v -0.027909 0.037410 0.027988
v -0.028120 0.038581 0.022804
v -0.029048 0.037311 0.024730
v -0.027967 0.038713 0.020325
v -0.028270 0.035642 0.030898
v -0.027062 0.035208 0.033833
v -0.030406 0.035383 0.025811
v -0.031239 0.034692 0.023941
v -0.029989 0.036442 0.022584
v -0.030511 0.035765 0.020483
f 1 2 11
f 1 11 14
f 1 14 3
f 1 3 4
f 1 4 5
f 1 5 6
f 1 6 7
f 1 7 8
f 1 8 2
f 2 9 10
f 2 10 11
f 2 8 12
f 2 12 9
f 3 13 4
f 3 14 15
f 3 15 13
f 4 13 16
f 4 16 5
f 5 17 18
f 5 18 19
f 5 19 6
f 5 16 17
f 6 19 20
f 6 20 21
f 6 21 7
f 7 22 23
f 7 23 24
f 7 24 25
f 7 25 8
f 7 21 26
f 7 26 22
f 8 27 28
f 8 28 29
f 8 29 30
f 8 30 12
f 8 25 27
f 9 12 31
f 9 31 32
f 9 32 74
f 9 74 119
f 9 119 79
f 9 79 33
f 9 33 10
f 10 33 11
f 11 33 14
f 12 30 34
f 12 34 35
f 12 35 36
f 12 36 37
f 12 37 31
f 13 38 16
f 13 15 39
f 13 39 40
f 13 40 41
f 13 41 38
f 14 33 42
f 14 42 43
f 14 43 15
f 15 43 40
f 15 40 39
f 16 38 44
f 16 44 45
f 16 45 17
f 17 46 18
f 17 45 46
f 18 46 47
f 18 47 19
f 19 47 20
f 20 47 48
f 20 48 49
f 20 49 21
f 21 49 50
f 21 50 51
f 21 51 26
f 22 52 23
f 22 26 53
f 22 53 52
f 23 52 54
f 23 54 55
f 23 55 56
f 23 56 57
f 23 57 24
f 24 57 25
f 25 57 58
f 25 58 59
f 25 59 60
f 25 60 27
f 26 51 61
f 26 61 53
f 27 60 62
f 27 62 63
f 27 63 64
f 27 64 28
f 28 65 29
f 28 64 65
f 29 65 66
f 29 66 67
f 29 67 68
f 29 68 34
f 29 34 30
f 31 37 69
f 31 69 32
f 32 69 70
f 32 70 71
f 32 71 72
f 32 72 73
f 32 73 74
f 33 75 76
f 33 76 77
f 33 77 78
f 33 78 42
f 33 79 75
f 34 68 35
f 35 68 80
f 35 80 36
f 36 80 81
f 36 81 82
f 36 82 37
f 37 82 69
f 38 41 44
f 40 43 83
f 40 83 41
f 41 83 84
f 41 84 85
f 41 85 44
f 42 78 86
f 42 86 87
f 42 87 43
f 43 87 83
f 44 85 88
f 44 88 89
f 44 89 45
f 45 89 46
f 46 89 90
f 46 90 91
f 46 91 47
f 47 91 92
f 47 92 93
f 47 93 48
f 48 93 49
f 49 93 50
f 50 94 95
f 50 95 51
f 50 93 96
f 50 96 94
f 51 95 61
f 52 53 97
f 52 97 54
f 53 61 98
f 53 98 97
f 54 97 99
f 54 99 55
f 55 99 100
f 55 100 101
f 55 101 102
f 55 102 56
f 56 102 103
f 56 103 57
f 57 103 58
f 58 103 104
f 58 104 105
f 58 105 106
f 58 106 59
f 59 106 60
f 60 106 62
f 61 95 98
f 62 106 63
f 63 107 108
f 63 108 64
f 63 106 109
f 63 109 107
f 64 108 65
f 65 108 66
f 66 110 67
f 66 108 111
f 66 111 110
f 67 110 112
f 67 112 80
f 67 80 68
f 69 82 81
f 69 81 70
f 70 81 113
f 70 113 71
f 71 113 114
f 71 114 72
f 72 114 115
f 72 115 73
f 73 115 74
f 74 115 116
f 74 116 117
f 74 117 118
f 74 118 119
f 75 120 121
f 75 121 122
f 75 122 123
f 75 123 76
f 75 79 124
f 75 124 120
f 76 123 125
f 76 125 126
f 76 126 127
f 76 127 128
f 76 128 77
f 77 128 129
f 77 129 86
f 77 86 78
f 79 119 130
f 79 130 131
f 79 131 132
f 79 132 124
f 80 112 81
f 81 112 113
f 83 87 84
f 84 87 86
f 84 86 133
f 84 133 85
f 85 133 134
f 85 134 88
f 86 129 133
f 88 135 89
f 88 134 135
f 89 135 136
f 89 136 90
f 90 136 137
f 90 137 138
f 90 138 91
f 91 138 92
f 92 138 139
f 92 139 93
f 93 139 96
f 94 96 140
f 94 140 95
f 95 140 98
f 96 139 141
f 96 141 140
f 97 98 142
f 97 142 99
f 98 140 143
f 98 143 144
f 98 144 142
f 99 145 100
f 99 142 145
f 100 146 101
f 100 145 147
f 100 147 146
f 101 148 102
f 101 146 148
f 102 148 149
f 102 149 104
f 102 104 103
f 104 149 150
f 104 150 105
f 105 150 109
f 105 109 106
f 107 151 111
f 107 111 108
f 107 109 150
f 107 150 152
f 107 152 151
f 110 153 112
f 110 111 154
f 110 154 153
f 111 151 154
f 112 153 155
f 112 155 113
f 113 155 156
f 113 156 157
f 113 157 114
f 114 157 115
f 115 157 116
f 116 157 158
f 116 158 159
f 116 159 117
f 117 159 160
f 117 160 161
f 117 161 118
f 118 161 162
f 118 162 163
f 118 163 130
f 118 130 119
f 120 124 164
f 120 164 165
f 120 165 121
f 121 165 166
f 121 166 167
f 121 167 168
f 121 168 169
f 121 169 122
f 122 169 170
f 122 170 123
f 123 170 125
f 124 132 171
f 124 171 164
f 125 170 172
f 125 172 126
f 126 173 174
f 126 174 127
f 126 172 175
f 126 175 173
f 127 174 128
f 128 174 176
f 128 176 129
f 129 176 133
f 130 177 178
f 130 178 131
f 130 163 179
f 130 179 177
f 131 178 132
f 132 178 171
f 133 176 134
f 134 176 180
f 134 180 173
f 134 173 135
f 135 173 181
f 135 181 136
f 136 181 137
f 137 181 182
f 137 182 183
f 137 183 138
f 138 183 184
f 138 184 139
f 139 184 141
f 140 185 143
f 140 141 186
f 140 186 185
f 141 184 186
f 142 144 145
f 143 187 144
f 143 185 187
f 144 187 188
f 144 188 145
f 145 188 189
f 145 189 147
f 146 147 190
f 146 190 148
f 147 189 191
f 147 191 192
f 147 192 190
f 148 190 193
f 148 193 194
f 148 194 149
f 149 195 196
f 149 196 150
f 149 194 195
f 150 196 152
f 151 152 197
f 151 197 154
f 152 196 195
f 152 195 197
f 153 154 198
f 153 198 156
f 153 156 155
f 154 197 199
f 154 199 198
f 156 198 158
f 156 158 157
f 158 198 200
f 158 200 201
f 158 201 159
f 159 201 160
f 160 201 202
f 160 202 162
f 160 162 161
f 162 202 163
f 163 202 179
f 164 171 203
f 164 203 204
f 164 204 165
f 165 204 166
f 166 204 205
f 166 205 167
f 167 206 168
f 167 205 207
f 167 207 206
f 168 206 208
f 168 208 209
f 168 209 169
f 169 209 170
f 170 209 172
f 171 178 210
f 171 210 203
f 172 209 211
f 172 211 175
f 173 180 174
f 173 175 181
f 174 180 176
f 175 211 212
f 175 212 181
f 177 179 213
f 177 213 210
f 177 210 178
f 179 202 214
f 179 214 213
f 181 212 215
f 181 215 182
f 182 215 216
f 182 216 217
f 182 217 218
f 182 218 183
f 183 218 219
f 183 219 184
f 184 219 186
f 185 186 220
f 185 220 187
f 186 219 220
f 187 220 188
f 188 220 221
f 188 221 222
f 188 222 191
f 188 191 189
f 190 223 193
f 190 192 224
f 190 224 223
f 191 222 225
f 191 225 192
f 192 225 224
f 193 226 194
f 193 223 226
f 194 226 227
f 194 227 195
f 195 227 228
f 195 228 229
f 195 229 197
f 197 229 199
f 198 199 200
f 199 229 228
f 199 228 230
f 199 230 200
f 200 230 201
f 201 230 231
f 201 231 202
f 202 231 214
f 203 210 232
f 203 232 233
f 203 233 234
f 203 234 204
f 204 234 205
f 205 234 235
f 205 235 207
f 206 236 208
f 206 207 236
f 207 235 237
f 207 237 238
f 207 238 236
f 208 239 211
f 208 211 209
f 208 236 239
f 210 213 232
f 211 239 212
f 212 239 216
f 212 216 215
f 213 214 240
f 213 240 241
f 213 241 232
f 214 242 240
f 214 231 242
f 216 239 243
f 216 243 217
f 217 243 244
f 217 244 245
f 217 245 246
f 217 246 218
f 218 246 220
f 218 220 219
f 220 246 221
f 221 246 245
f 221 245 222
f 222 245 225
f 223 224 247
f 223 247 226
f 224 225 248
f 224 248 249
f 224 249 247
f 225 245 250
f 225 250 248
f 226 247 251
f 226 251 252
f 226 252 228
f 226 228 227
f 228 252 230
f 230 252 242
f 230 242 231
f 232 241 253
f 232 253 233
f 233 253 254
f 233 254 234
f 234 255 256
f 234 256 235
f 234 254 255
f 235 256 237
f 236 238 243
f 236 243 239
f 237 256 250
f 237 250 244
f 237 244 238
f 238 244 243
f 240 242 241
f 241 247 253
f 241 242 251
f 241 251 247
f 242 252 251
f 244 250 245
f 247 249 253
f 248 250 255
f 248 255 249
f 249 255 254
f 249 254 253
f 250 256 255
