v -0.005872 0.023880 0.001968
v -0.008888 0.023880 0.002541
v -0.009056 0.025986 0.001416
v -0.009056 0.026829 0.000996
v -0.005872 0.025849 0.001022
v -0.005872 0.024056 0.052250
v -0.007532 0.023880 0.052414
v -0.008961 0.024106 0.052266
v -0.009056 0.027146 0.051161
v -0.009056 0.027816 0.000638
v -0.005872 0.026601 0.000777
v -0.005872 0.029434 0.049990
v -0.006130 0.026435 0.051437
v -0.006644 0.024083 0.052301
v -0.006961 0.026002 0.051647
v -0.007818 0.026255 0.051580
v -0.008866 0.026002 0.051637
v -0.008866 0.026620 0.051401
v -0.007532 0.028290 0.050680
v -0.008104 0.028290 0.050660
v -0.009056 0.027882 0.050813
v -0.009056 0.028614 0.000439
v -0.005872 0.027442 0.000577
v -0.006130 0.032604 0.047853
v -0.006130 0.030601 0.049289
v -0.006130 0.030093 0.049632
v -0.006130 0.028956 0.050292
v -0.006233 0.028128 0.050732
v -0.005872 0.035966 0.045061
v -0.006046 0.033042 0.047489
v -0.006961 0.026638 0.051407
v -0.007795 0.029088 0.050276
v -0.006907 0.029088 0.050266
v -0.008961 0.029259 0.050092
v -0.009056 0.031515 0.048584
v -0.009056 0.029339 0.000342
v -0.005872 0.028862 0.000301
v -0.005872 0.028233 0.000408
v -0.006961 0.032714 0.047827
v -0.007246 0.033372 0.047326
v -0.007246 0.030045 0.049688
v -0.005872 0.037746 0.043399
v -0.006130 0.037254 0.043936
v -0.006143 0.036650 0.044498
v -0.006467 0.036064 0.045040
v -0.008104 0.029881 0.049770
v -0.008961 0.030066 0.049596
v -0.008800 0.030886 0.049064
v -0.008676 0.031545 0.048604
v -0.008866 0.033400 0.047224
v -0.008866 0.033860 0.046876
v -0.009031 0.036041 0.045071
v -0.009056 0.039446 0.041670
v -0.009056 0.030004 0.000291
v -0.007246 0.030004 0.000209
v -0.005872 0.029462 0.000234
v -0.008104 0.033350 0.047316
v -0.008104 0.031567 0.048625
v -0.008104 0.030804 0.049167
v -0.007532 0.033876 0.046932
v -0.008104 0.034015 0.046809
v -0.005872 0.038295 0.042811
v -0.006961 0.037666 0.043603
v -0.006961 0.037245 0.044038
v -0.006961 0.036789 0.044447
v -0.007532 0.034792 0.046170
v -0.008866 0.035396 0.045628
v -0.008866 0.036786 0.044447
v -0.008866 0.037240 0.044038
v -0.008866 0.038904 0.042274
v -0.008104 0.038922 0.042289
v -0.008104 0.039332 0.041824
v -0.007818 0.039854 0.041215
v -0.009056 0.040638 0.040197
v -0.008866 0.037668 0.043608
v -0.008866 0.038095 0.043158
v -0.009056 0.030578 0.000255
v -0.007532 0.030578 0.000188
v -0.005872 0.030319 0.000173
v -0.008104 0.034790 0.046170
v -0.006961 0.038218 0.043005
v -0.005872 0.038819 0.042222
v -0.006961 0.038890 0.042258
v -0.007532 0.038113 0.043168
v -0.007532 0.037687 0.043629
v -0.007532 0.037101 0.044201
v -0.008104 0.036805 0.044462
v -0.008104 0.037261 0.044053
v -0.008104 0.037828 0.043486
v -0.007181 0.039323 0.041793
v -0.005872 0.040137 0.040699
v -0.005872 0.040545 0.040203
v -0.007532 0.041103 0.039594
v -0.007246 0.041787 0.038607
v -0.008104 0.042021 0.038213
v -0.008771 0.042420 0.037528
v -0.008866 0.042860 0.036766
v -0.008866 0.044781 0.032829
v -0.009056 0.046415 0.027649
v -0.008961 0.031889 0.000362
v -0.008866 0.031150 0.000265
v -0.009056 0.034131 0.000853
v -0.008104 0.031150 0.000234
v -0.005872 0.031150 0.000183
v -0.006151 0.041183 0.039359
v -0.006961 0.041201 0.039430
v -0.005872 0.042416 0.037385
v -0.006389 0.041857 0.038418
v -0.007246 0.042167 0.037993
v -0.006961 0.043254 0.036015
v -0.006961 0.044032 0.034552
v -0.007532 0.044098 0.034388
v -0.006961 0.044312 0.033938
v -0.007055 0.045148 0.031908
v -0.008805 0.045098 0.032041
v -0.008849 0.045771 0.030144
v -0.008866 0.046108 0.029055
v -0.008866 0.046304 0.028242
v -0.007069 0.046899 0.025578
v -0.009056 0.046737 0.025859
v -0.006130 0.032294 0.000311
v -0.005872 0.031750 0.000229
v -0.008866 0.032769 0.000500
v -0.008104 0.034580 0.000940
v -0.008104 0.034008 0.000756
v -0.008866 0.033439 0.000644
v -0.009056 0.034931 0.001129
v -0.005872 0.044695 0.032757
v -0.006130 0.044013 0.034516
v -0.006137 0.042826 0.036720
v -0.006389 0.042489 0.037370
v -0.008245 0.045743 0.030267
v -0.005872 0.045508 0.030533
v -0.008104 0.046014 0.029362
v -0.008104 0.046245 0.028533
v -0.006961 0.046705 0.026503
v -0.006418 0.046864 0.025644
v -0.006389 0.046965 0.024800
v -0.007532 0.047104 0.023655
v -0.008104 0.047035 0.024228
v -0.008861 0.046915 0.024862
v -0.009056 0.046965 0.024228
v -0.008104 0.033024 0.000516
v -0.006961 0.032832 0.000439
v -0.005872 0.033122 0.000475
v -0.007246 0.034008 0.000725
v -0.008307 0.035079 0.001145
v -0.007246 0.034826 0.001007
v -0.007532 0.033261 0.000546
v -0.009056 0.036652 0.001973
v -0.008770 0.035991 0.001605
v -0.005872 0.045784 0.029628
v -0.007532 0.046338 0.028063
v -0.006961 0.046561 0.027076
v -0.006389 0.046657 0.026503
v -0.005872 0.046591 0.026503
v -0.005872 0.046723 0.025941
v -0.005895 0.046892 0.025138
v -0.005872 0.046960 0.024284
v -0.005872 0.047042 0.023138
v -0.007532 0.047161 0.022796
v -0.008104 0.047145 0.022796
v -0.008104 0.047086 0.023655
v -0.009056 0.047092 0.022515
v -0.005872 0.034065 0.000720
v -0.008104 0.035886 0.001523
v -0.007532 0.035720 0.001421
v -0.006130 0.034838 0.000991
v -0.008861 0.038728 0.003236
v -0.008866 0.038031 0.002756
v -0.008815 0.037322 0.002331
v -0.008104 0.037311 0.002275
v -0.009056 0.040736 0.005011
v -0.005872 0.046217 0.028012
v -0.006802 0.046356 0.027797
v -0.005872 0.046452 0.027076
v -0.005872 0.047088 0.022269
v -0.008104 0.047149 0.021942
v -0.006130 0.047106 0.019937
v -0.008866 0.047124 0.021942
v -0.008866 0.046981 0.019344
v -0.008860 0.046830 0.017958
v -0.008866 0.046709 0.017053
v -0.009056 0.045962 0.013929
v -0.005872 0.036002 0.001564
v -0.007532 0.037333 0.002270
v -0.006961 0.037106 0.002137
v -0.006389 0.035720 0.001411
v -0.008866 0.039578 0.003927
v -0.008104 0.039063 0.003431
v -0.008104 0.038580 0.003073
v -0.008104 0.038083 0.002735
v -0.009056 0.041392 0.005701
v -0.007246 0.041716 0.005926
v -0.008104 0.040139 0.004371
v -0.008866 0.040235 0.004509
v -0.005872 0.045848 0.013192
v -0.006130 0.046901 0.017657
v -0.006961 0.047086 0.019656
v -0.008104 0.046999 0.019083
v -0.008104 0.046935 0.018511
v -0.008104 0.046855 0.017810
v -0.008104 0.046798 0.017360
v -0.008104 0.046705 0.016787
v -0.008866 0.046552 0.016220
v -0.008961 0.046204 0.014737
v -0.007532 0.046101 0.013929
v -0.009056 0.045638 0.012906
v -0.006264 0.037071 0.002142
v -0.005872 0.038003 0.002796
v -0.007246 0.038081 0.002735
v -0.008104 0.039690 0.003957
v -0.007532 0.039081 0.003415
v -0.008771 0.042211 0.006591
v -0.008676 0.041805 0.006120
v -0.009056 0.043268 0.008089
v -0.008771 0.042780 0.007286
v -0.007246 0.042263 0.006534
v -0.006130 0.042233 0.006565
v -0.005872 0.041149 0.005379
v -0.007532 0.039546 0.003814
v -0.005872 0.040709 0.004954
v -0.006961 0.045925 0.013356
v -0.006130 0.046124 0.013944
v -0.006130 0.046274 0.014496
v -0.006130 0.046420 0.015074
v -0.006130 0.046539 0.015647
v -0.005872 0.043213 0.007920
v -0.006130 0.044686 0.010472
v -0.006130 0.044971 0.011091
v -0.006961 0.046903 0.017764
v -0.006961 0.046349 0.014808
v -0.007849 0.046304 0.014778
v -0.008866 0.046425 0.015611
v -0.006961 0.046126 0.013929
v -0.007532 0.045843 0.013172
v -0.008104 0.045752 0.013024
v -0.008771 0.045283 0.012006
v -0.008866 0.044569 0.010472
v -0.006961 0.038580 0.003088
v -0.006961 0.039052 0.003441
v -0.005872 0.038678 0.003303
v -0.005872 0.040237 0.004545
v -0.008104 0.042361 0.006703
v -0.008104 0.044038 0.009301
v -0.007246 0.043886 0.008958
v -0.006961 0.043528 0.008370
v -0.006961 0.042769 0.007215
v -0.006130 0.042774 0.007250
v -0.005872 0.041712 0.006003
v -0.006389 0.043430 0.008227
v -0.006961 0.044841 0.010815
v -0.007532 0.044934 0.011070
v -0.008104 0.044358 0.009930
v -0.005872 0.039683 0.004095
f 1 2 3
f 1 3 4
f 1 4 5
f 1 5 11
f 1 11 23
f 1 23 38
f 1 38 37
f 1 37 56
f 1 56 79
f 1 79 104
f 1 104 122
f 1 122 145
f 1 145 165
f 1 165 185
f 1 185 210
f 1 210 242
f 1 242 255
f 1 255 243
f 1 243 222
f 1 222 220
f 1 220 250
f 1 250 228
f 1 228 197
f 1 197 177
f 1 177 160
f 1 160 159
f 1 159 157
f 1 157 156
f 1 156 176
f 1 176 174
f 1 174 152
f 1 152 133
f 1 133 128
f 1 128 107
f 1 107 92
f 1 92 91
f 1 91 82
f 1 82 62
f 1 62 42
f 1 42 29
f 1 29 12
f 1 12 6
f 1 6 7
f 1 7 2
f 2 7 8
f 2 8 3
f 3 8 9
f 3 9 21
f 3 21 35
f 3 35 53
f 3 53 74
f 3 74 99
f 3 99 120
f 3 120 142
f 3 142 164
f 3 164 184
f 3 184 208
f 3 208 216
f 3 216 193
f 3 193 173
f 3 173 150
f 3 150 127
f 3 127 102
f 3 102 77
f 3 77 54
f 3 54 36
f 3 36 22
f 3 22 10
f 3 10 4
f 4 10 5
f 5 10 11
f 6 12 13
f 6 13 14
f 6 14 7
f 7 14 15
f 7 15 16
f 7 16 17
f 7 17 8
f 8 17 9
f 9 17 18
f 9 18 19
f 9 19 20
f 9 20 21
f 10 22 11
f 11 22 23
f 12 24 25
f 12 25 26
f 12 26 27
f 12 27 28
f 12 28 13
f 12 29 30
f 12 30 24
f 13 28 31
f 13 31 15
f 13 15 14
f 15 31 16
f 16 19 18
f 16 18 17
f 16 31 19
f 19 32 20
f 19 31 28
f 19 28 33
f 19 33 32
f 20 32 21
f 21 32 34
f 21 34 35
f 22 36 37
f 22 37 38
f 22 38 23
f 24 39 25
f 24 30 40
f 24 40 39
f 25 39 41
f 25 41 26
f 26 41 33
f 26 33 27
f 27 33 28
f 29 42 43
f 29 43 44
f 29 44 45
f 29 45 30
f 30 45 40
f 32 41 46
f 32 46 34
f 32 33 41
f 34 46 47
f 34 47 35
f 35 47 48
f 35 48 49
f 35 49 50
f 35 50 51
f 35 51 52
f 35 52 53
f 36 54 55
f 36 55 37
f 37 55 56
f 39 40 57
f 39 57 58
f 39 58 59
f 39 59 41
f 40 60 61
f 40 61 57
f 40 45 60
f 41 59 46
f 42 62 63
f 42 63 43
f 43 63 64
f 43 64 44
f 44 65 45
f 44 64 65
f 45 65 66
f 45 66 60
f 46 59 47
f 47 59 48
f 48 59 58
f 48 58 49
f 49 58 57
f 49 57 50
f 50 57 51
f 51 57 61
f 51 61 67
f 51 67 52
f 52 67 68
f 52 68 69
f 52 69 53
f 53 70 71
f 53 71 72
f 53 72 73
f 53 73 74
f 53 69 75
f 53 75 76
f 53 76 70
f 54 77 55
f 55 78 79
f 55 79 56
f 55 77 78
f 60 66 80
f 60 80 61
f 61 80 67
f 62 81 63
f 62 82 83
f 62 83 81
f 63 81 84
f 63 84 85
f 63 85 64
f 64 86 65
f 64 85 86
f 65 86 66
f 66 87 80
f 66 86 87
f 67 80 87
f 67 87 68
f 68 88 69
f 68 87 88
f 69 88 89
f 69 89 75
f 70 76 89
f 70 89 71
f 71 89 84
f 71 84 90
f 71 90 72
f 72 90 73
f 73 91 92
f 73 92 93
f 73 93 74
f 73 90 91
f 74 93 94
f 74 94 95
f 74 95 96
f 74 96 97
f 74 97 98
f 74 98 99
f 75 89 76
f 77 100 101
f 77 101 78
f 77 102 100
f 78 101 103
f 78 103 104
f 78 104 79
f 81 83 84
f 82 91 90
f 82 90 83
f 83 90 84
f 84 89 85
f 85 89 88
f 85 88 86
f 86 88 87
f 92 105 106
f 92 106 93
f 92 107 105
f 93 106 94
f 94 108 109
f 94 109 95
f 94 106 108
f 95 109 96
f 96 109 97
f 97 109 110
f 97 110 111
f 97 111 112
f 97 112 98
f 98 112 113
f 98 113 114
f 98 114 115
f 98 115 116
f 98 116 99
f 99 116 117
f 99 117 118
f 99 118 119
f 99 119 120
f 100 121 122
f 100 122 103
f 100 103 101
f 100 102 123
f 100 123 121
f 102 124 125
f 102 125 126
f 102 126 123
f 102 127 124
f 103 122 104
f 105 108 106
f 105 107 108
f 107 128 129
f 107 129 130
f 107 130 131
f 107 131 108
f 108 131 109
f 109 131 110
f 110 131 130
f 110 130 129
f 110 129 111
f 111 129 113
f 111 113 112
f 113 129 114
f 114 132 115
f 114 129 128
f 114 128 133
f 114 133 132
f 115 132 116
f 116 132 117
f 117 134 135
f 117 135 118
f 117 132 134
f 118 135 136
f 118 136 119
f 119 137 138
f 119 138 139
f 119 139 140
f 119 140 141
f 119 141 120
f 119 136 137
f 120 141 142
f 121 123 143
f 121 143 144
f 121 144 145
f 121 145 122
f 123 126 143
f 124 146 125
f 124 127 147
f 124 147 148
f 124 148 146
f 125 146 149
f 125 149 126
f 126 149 143
f 127 150 151
f 127 151 147
f 132 133 134
f 133 152 134
f 134 152 153
f 134 153 135
f 135 153 154
f 135 154 136
f 136 154 155
f 136 155 137
f 137 156 157
f 137 157 158
f 137 158 138
f 137 155 156
f 138 158 159
f 138 159 160
f 138 160 161
f 138 161 139
f 139 161 162
f 139 162 163
f 139 163 140
f 140 163 142
f 140 142 141
f 142 163 164
f 143 149 144
f 144 149 145
f 145 149 146
f 145 146 165
f 146 148 165
f 147 151 166
f 147 166 167
f 147 167 148
f 148 167 168
f 148 168 165
f 150 169 170
f 150 170 171
f 150 171 172
f 150 172 151
f 150 173 169
f 151 172 166
f 152 174 175
f 152 175 153
f 153 175 154
f 154 175 174
f 154 174 155
f 155 174 176
f 155 176 156
f 157 159 158
f 160 177 161
f 161 178 162
f 161 177 179
f 161 179 178
f 162 178 180
f 162 180 164
f 162 164 163
f 164 180 181
f 164 181 182
f 164 182 183
f 164 183 184
f 165 168 185
f 166 172 186
f 166 186 167
f 167 186 187
f 167 187 188
f 167 188 168
f 168 188 185
f 169 189 190
f 169 190 191
f 169 191 170
f 169 173 189
f 170 191 192
f 170 192 172
f 170 172 171
f 172 192 186
f 173 193 194
f 173 194 195
f 173 195 196
f 173 196 189
f 177 197 198
f 177 198 179
f 178 179 199
f 178 199 180
f 179 198 199
f 180 199 181
f 181 199 200
f 181 200 182
f 182 201 202
f 182 202 203
f 182 203 183
f 182 200 201
f 183 203 204
f 183 204 205
f 183 205 206
f 183 206 184
f 184 206 207
f 184 207 208
f 185 188 187
f 185 187 209
f 185 209 210
f 186 192 211
f 186 211 187
f 187 211 209
f 189 212 190
f 189 196 212
f 190 213 191
f 190 212 213
f 191 211 192
f 191 213 211
f 193 214 215
f 193 215 194
f 193 216 217
f 193 217 214
f 194 215 218
f 194 218 219
f 194 219 220
f 194 220 195
f 195 221 212
f 195 212 196
f 195 220 222
f 195 222 221
f 197 223 224
f 197 224 225
f 197 225 226
f 197 226 227
f 197 227 198
f 197 228 229
f 197 229 230
f 197 230 223
f 198 204 231
f 198 231 199
f 198 227 204
f 199 231 200
f 200 231 201
f 201 231 202
f 202 231 203
f 203 231 204
f 204 227 232
f 204 232 233
f 204 233 205
f 205 233 234
f 205 234 206
f 206 234 233
f 206 233 207
f 207 235 236
f 207 236 237
f 207 237 208
f 207 233 235
f 208 238 239
f 208 239 216
f 208 237 238
f 209 211 240
f 209 240 210
f 210 240 241
f 210 241 242
f 211 213 240
f 212 221 213
f 213 221 243
f 213 243 241
f 213 241 240
f 214 244 215
f 214 217 244
f 215 244 218
f 216 245 246
f 216 246 217
f 216 239 245
f 217 246 247
f 217 247 248
f 217 248 218
f 217 218 244
f 218 248 249
f 218 249 219
f 219 250 220
f 219 249 250
f 221 222 243
f 223 230 236
f 223 236 235
f 223 235 224
f 224 235 225
f 225 235 232
f 225 232 226
f 226 232 227
f 228 250 249
f 228 249 251
f 228 251 229
f 229 246 252
f 229 252 230
f 229 251 246
f 230 252 236
f 232 235 233
f 236 252 253
f 236 253 238
f 236 238 237
f 238 253 239
f 239 254 245
f 239 253 254
f 241 243 255
f 241 255 242
f 245 254 252
f 245 252 246
f 246 251 247
f 247 251 248
f 248 251 249
f 252 254 253
