v -0.005801 -0.007781 0.026244
v -0.004101 -0.007238 0.026793
v -0.005801 -0.007741 0.027368
v -0.005801 -0.007779 0.025084
v -0.005244 -0.007619 0.025372
v -0.005047 -0.007552 0.024802
v -0.003281 -0.006949 0.025654
v -0.003282 -0.006946 0.026793
v -0.004101 -0.007183 0.027933
v -0.004672 -0.007325 0.028220
v -0.005801 -0.007644 0.028246
v -0.005801 -0.007644 0.022528
v -0.004745 -0.007430 0.024227
v -0.004101 -0.007220 0.024515
v -0.002476 -0.006600 0.026198
v -0.003196 -0.006849 0.024366
v -0.002476 -0.006553 0.024761
v -0.002476 -0.006580 0.025372
v -0.002476 -0.006583 0.027024
v -0.003242 -0.006882 0.027656
v -0.003452 -0.006911 0.028220
v -0.003681 -0.006939 0.028790
v -0.003843 -0.006921 0.029401
v -0.004672 -0.007176 0.029365
v -0.005733 -0.007507 0.028965
v -0.005801 -0.006996 0.031315
v -0.005698 -0.006966 0.018263
v -0.005629 -0.007522 0.021712
v -0.005209 -0.007462 0.022513
v -0.005801 -0.006737 0.017077
v -0.003708 -0.006784 0.020793
v -0.002718 -0.006530 0.022964
v -0.002693 -0.006224 0.020219
v -0.002476 -0.005877 0.018920
v -0.002476 -0.006533 0.027651
v -0.002677 -0.006289 0.030427
v -0.003529 -0.006568 0.030792
v -0.004424 -0.006994 0.030032
v -0.004704 -0.006832 0.031279
v -0.004672 -0.006573 0.032224
v -0.005801 -0.006737 0.032224
v -0.004981 -0.006842 0.018612
v -0.004366 -0.006867 0.019793
v -0.005801 -0.006530 0.016220
v -0.004895 -0.006234 0.016174
v -0.003529 -0.006632 0.020219
v -0.002738 -0.006159 0.019628
v -0.003300 -0.006341 0.019136
v -0.002957 -0.006034 0.018504
v -0.002668 -0.005738 0.017960
v -0.002476 -0.005459 0.017319
v -0.002476 -0.005444 0.033255
v -0.002485 -0.005872 0.031870
v -0.002726 -0.006189 0.031048
v -0.003266 -0.006291 0.031618
v -0.004101 -0.006642 0.031361
v -0.003971 -0.006308 0.032486
v -0.004814 -0.006351 0.032953
v -0.005783 -0.006276 0.033671
v -0.005801 -0.006565 0.032793
v -0.003873 -0.006436 0.018417
v -0.004101 -0.006662 0.019079
v -0.005534 -0.006301 0.015656
v -0.005801 -0.006209 0.015096
v -0.004672 -0.006017 0.015645
v -0.003081 -0.005748 0.017180
v -0.003373 -0.005172 0.014660
v -0.002476 -0.004719 0.014942
v -0.002476 -0.001148 0.040775
v -0.002500 -0.002965 0.038214
v -0.002515 -0.004627 0.035257
v -0.002524 -0.005090 0.034277
v -0.003001 -0.005773 0.033019
v -0.002957 -0.006014 0.032224
v -0.002517 -0.005671 0.032619
v -0.003529 -0.006062 0.032793
v -0.003852 -0.005882 0.033471
v -0.005713 -0.005845 0.034739
v -0.005801 -0.005402 0.035668
v -0.003906 -0.005753 0.015748
v -0.004672 -0.005439 0.013931
v -0.004022 -0.005339 0.014275
v -0.004204 -0.005703 0.015173
v -0.005801 -0.004883 0.011657
v -0.005787 -0.005317 0.012709
v -0.005372 -0.005536 0.013577
v -0.003492 -0.004036 0.011724
v -0.003031 -0.004006 0.012248
v -0.002745 -0.004699 0.014398
v -0.002476 -0.004240 0.013664
v -0.002536 0.000720 0.042838
v -0.003127 -0.000069 0.042284
v -0.003054 -0.001198 0.041016
v -0.002742 -0.001697 0.040210
v -0.002476 0.001216 0.043290
v -0.002845 -0.002808 0.038701
v -0.002538 -0.003473 0.037408
v -0.002886 -0.002334 0.039409
v -0.003190 -0.004664 0.035760
v -0.003173 -0.005063 0.034898
v -0.004504 -0.004554 0.036725
v -0.005474 -0.005182 0.035965
v -0.005801 -0.004512 0.037346
v -0.004661 -0.004497 0.011642
v -0.004025 -0.004176 0.011462
v -0.005801 -0.004609 0.011047
v -0.005201 -0.004549 0.011324
v -0.003512 -0.003608 0.010918
v -0.002942 -0.003540 0.011406
v -0.002476 -0.003600 0.012140
v -0.002608 -0.003922 0.012674
v -0.003313 0.000541 0.042961
v -0.004279 -0.001113 0.041601
v -0.003436 -0.000548 0.041899
v -0.003529 -0.000989 0.041457
v -0.005065 -0.001786 0.041144
v -0.003805 -0.002309 0.039948
v -0.003529 -0.002853 0.039050
v -0.002476 0.006282 0.047370
v -0.002500 0.004101 0.045784
v -0.002569 0.002243 0.044291
v -0.004015 -0.003637 0.038126
v -0.004544 -0.004076 0.037618
v -0.005244 -0.004121 0.037808
v -0.005801 -0.004061 0.038101
v -0.004619 -0.004088 0.010816
v -0.005801 -0.003605 0.009440
v -0.005722 -0.003979 0.009984
v -0.005538 -0.004235 0.010497
v -0.004111 -0.003640 0.010487
v -0.003126 -0.001221 0.007844
v -0.002513 -0.001089 0.008162
v -0.002502 -0.002439 0.010148
v -0.002476 -0.003007 0.011057
v -0.004553 0.003416 0.045892
v -0.005080 0.000529 0.043398
v -0.005041 -0.001295 0.041647
v -0.005617 -0.002304 0.040657
v -0.004182 -0.002912 0.039302
v -0.005801 -0.001729 0.041375
v -0.002476 0.007248 0.048058
v -0.003529 0.006673 0.048089
v -0.003313 0.004361 0.046272
v -0.004155 0.004042 0.046287
v -0.005753 -0.002775 0.040025
v -0.005103 -0.003959 0.010307
v -0.005801 -0.002691 0.008239
v -0.005523 -0.002985 0.008752
v -0.005361 -0.003523 0.009548
v -0.004652 -0.002885 0.009060
v -0.002913 -0.000767 0.007469
v -0.004520 -0.002352 0.008444
v -0.003600 -0.000984 0.007259
v -0.002527 0.000546 0.006381
v -0.002476 0.001981 0.005539
v -0.005523 0.003506 0.046164
v -0.005523 0.003008 0.045743
v -0.004644 0.004550 0.046816
v -0.005801 -0.001151 0.041945
v -0.002476 0.009306 0.049475
v -0.003578 0.007213 0.048489
v -0.004101 0.007602 0.048966
v -0.004101 0.006914 0.048474
v -0.005723 -0.002242 0.007710
v -0.005276 -0.002471 0.008203
v -0.005801 -0.001846 0.007238
v -0.004019 -0.000805 0.006863
v -0.003118 0.001034 0.005565
v -0.002562 0.001171 0.005873
v -0.003179 0.002955 0.004431
v -0.002476 0.012316 0.001392
v -0.005801 0.007164 0.049064
v -0.005801 0.005063 0.047427
v -0.004905 0.007562 0.049187
v -0.002476 0.009812 0.049798
v -0.004507 0.008409 0.049664
v -0.005801 -0.001427 0.006812
v -0.005801 -0.000702 0.006104
v -0.005801 -0.000127 0.005555
v -0.004237 0.001059 0.005011
v -0.003856 0.000695 0.005503
v -0.003535 0.001413 0.005067
v -0.003456 0.002200 0.004626
v -0.003817 0.003112 0.003917
v -0.004030 0.003935 0.003383
v -0.003451 0.003778 0.003866
v -0.004619 0.004530 0.002819
v -0.002476 0.013016 0.001156
v -0.005244 0.008208 0.049700
v -0.005801 0.007926 0.049582
v -0.002476 0.011083 0.050537
v -0.002718 0.010537 0.050311
v -0.003516 0.010821 0.050747
v -0.004101 0.010592 0.050789
v -0.004672 0.009755 0.050470
v -0.005801 0.000332 0.005134
v -0.005801 0.000857 0.004682
v -0.005801 0.001565 0.004128
v -0.004149 0.001747 0.004518
v -0.004643 0.003394 0.003337
v -0.005255 0.003997 0.002793
v -0.005801 0.004263 0.002480
v -0.005733 0.005036 0.002198
v -0.005801 0.006249 0.001792
v -0.002476 0.014339 0.000792
v -0.005801 0.009628 0.050624
v -0.002537 0.011621 0.050824
v -0.002476 0.012224 0.051071
v -0.003257 0.012840 0.051543
v -0.004939 0.011654 0.051456
v -0.005801 0.010752 0.051240
v -0.005801 0.002604 0.003399
v -0.004928 0.002248 0.003912
v -0.005211 0.003033 0.003327
v -0.005801 0.003670 0.002768
v -0.005801 0.007423 0.001515
v -0.002476 0.015413 0.000576
v -0.002476 0.014559 0.051825
v -0.002717 0.013288 0.051569
v -0.004672 0.012274 0.051646
v -0.003527 0.013704 0.051913
v -0.004101 0.013283 0.051902
v -0.005725 0.012643 0.052000
v -0.005801 0.013325 0.052236
v -0.005801 0.003125 0.003070
v -0.005801 0.008544 0.001371
v -0.002476 0.016275 0.000530
v -0.002733 0.013981 0.051774
v -0.002476 0.016849 0.052277
v -0.002717 0.016253 0.052256
v -0.002717 0.015568 0.052113
v -0.004101 0.014559 0.052277
v -0.004958 0.013988 0.052298
v -0.005244 0.013178 0.052097
v -0.005780 0.014225 0.052503
v -0.005801 0.015132 0.052713
v -0.005801 0.009404 0.001341
v -0.002502 0.017673 0.000540
v -0.003529 0.015418 0.052313
v -0.002753 0.017514 0.052431
v -0.003362 0.016834 0.052539
v -0.004443 0.015578 0.052570
v -0.005135 0.014885 0.052575
v -0.005523 0.015994 0.052801
v -0.005801 0.017546 0.052965
v -0.005801 0.010091 0.001387
v -0.003059 0.017673 0.000797
v -0.004899 0.017673 0.001967
v -0.004261 0.017608 0.052775
v -0.003893 0.016208 0.052559
v -0.003529 0.017546 0.052652
v -0.004101 0.016846 0.052688
v -0.005118 0.017608 0.052883
v -0.005776 0.017546 0.002675
v -0.004340 0.017673 0.001546
v -0.003633 0.017673 0.001094
f 1 2 3
f 1 3 11
f 1 11 26
f 1 26 41
f 1 41 60
f 1 60 79
f 1 79 103
f 1 103 125
f 1 125 140
f 1 140 159
f 1 159 173
f 1 173 172
f 1 172 190
f 1 190 206
f 1 206 211
f 1 211 224
f 1 224 236
f 1 236 245
f 1 245 246
f 1 246 237
f 1 237 226
f 1 226 216
f 1 216 204
f 1 204 202
f 1 202 215
f 1 215 225
f 1 225 212
f 1 212 197
f 1 197 196
f 1 196 179
f 1 179 178
f 1 178 177
f 1 177 166
f 1 166 147
f 1 147 127
f 1 127 106
f 1 106 84
f 1 84 64
f 1 64 44
f 1 44 30
f 1 30 12
f 1 12 4
f 1 4 5
f 1 5 2
f 2 5 6
f 2 6 7
f 2 7 8
f 2 8 9
f 2 9 3
f 3 9 10
f 3 10 11
f 4 6 5
f 4 12 6
f 6 12 13
f 6 13 14
f 6 14 7
f 7 15 8
f 7 14 16
f 7 16 17
f 7 17 18
f 7 18 15
f 8 15 19
f 8 19 20
f 8 20 9
f 9 20 21
f 9 21 22
f 9 22 23
f 9 23 10
f 10 23 24
f 10 24 11
f 11 24 25
f 11 25 26
f 12 27 28
f 12 28 29
f 12 29 13
f 12 30 27
f 13 29 14
f 14 29 31
f 14 31 16
f 15 18 17
f 15 17 34
f 15 34 51
f 15 51 68
f 15 68 90
f 15 90 110
f 15 110 134
f 15 134 155
f 15 155 171
f 15 171 188
f 15 188 205
f 15 205 217
f 15 217 227
f 15 227 229
f 15 229 218
f 15 218 208
f 15 208 191
f 15 191 175
f 15 175 160
f 15 160 141
f 15 141 119
f 15 119 95
f 15 95 69
f 15 69 52
f 15 52 35
f 15 35 19
f 16 31 32
f 16 32 17
f 17 32 33
f 17 33 34
f 19 35 20
f 20 35 21
f 21 35 36
f 21 36 22
f 22 36 23
f 23 36 37
f 23 37 38
f 23 38 24
f 24 38 25
f 25 38 39
f 25 39 26
f 26 39 40
f 26 40 41
f 27 42 28
f 27 30 42
f 28 42 43
f 28 43 31
f 28 31 29
f 30 44 45
f 30 45 42
f 31 33 32
f 31 43 46
f 31 46 33
f 33 46 47
f 33 47 34
f 34 47 48
f 34 48 49
f 34 49 50
f 34 50 51
f 35 52 53
f 35 53 36
f 36 53 54
f 36 54 37
f 37 54 55
f 37 55 56
f 37 56 38
f 38 56 39
f 39 56 57
f 39 57 40
f 40 57 58
f 40 58 59
f 40 59 60
f 40 60 41
f 42 45 61
f 42 61 62
f 42 62 43
f 43 62 46
f 44 63 45
f 44 64 63
f 45 63 65
f 45 65 61
f 46 62 48
f 46 48 47
f 48 62 61
f 48 61 49
f 49 61 66
f 49 66 50
f 50 66 51
f 51 66 67
f 51 67 68
f 52 69 70
f 52 70 71
f 52 71 72
f 52 72 73
f 52 73 74
f 52 74 75
f 52 75 53
f 53 75 74
f 53 74 54
f 54 74 55
f 55 74 57
f 55 57 56
f 57 74 76
f 57 76 77
f 57 77 58
f 58 77 78
f 58 78 59
f 59 78 79
f 59 79 60
f 61 65 80
f 61 80 66
f 63 64 65
f 64 81 82
f 64 82 83
f 64 83 65
f 64 84 85
f 64 85 86
f 64 86 81
f 65 83 80
f 66 80 67
f 67 82 87
f 67 87 88
f 67 88 89
f 67 89 68
f 67 80 82
f 68 89 90
f 69 91 92
f 69 92 93
f 69 93 94
f 69 94 70
f 69 95 91
f 70 96 97
f 70 97 71
f 70 94 98
f 70 98 96
f 71 97 99
f 71 99 100
f 71 100 72
f 72 76 73
f 72 100 76
f 73 76 74
f 76 100 77
f 77 100 78
f 78 100 99
f 78 99 101
f 78 101 102
f 78 102 79
f 79 102 103
f 80 83 82
f 81 86 104
f 81 104 82
f 82 104 105
f 82 105 87
f 84 106 107
f 84 107 85
f 85 107 86
f 86 107 104
f 87 105 108
f 87 108 109
f 87 109 88
f 88 109 110
f 88 110 111
f 88 111 89
f 89 111 90
f 90 111 110
f 91 95 112
f 91 112 92
f 92 113 114
f 92 114 93
f 92 112 113
f 93 114 115
f 93 115 116
f 93 116 117
f 93 117 94
f 94 117 118
f 94 118 98
f 95 119 120
f 95 120 121
f 95 121 112
f 96 118 122
f 96 122 97
f 96 98 118
f 97 122 99
f 99 122 101
f 101 103 102
f 101 122 123
f 101 123 103
f 103 123 124
f 103 124 125
f 104 107 105
f 105 107 126
f 105 126 108
f 106 127 128
f 106 128 129
f 106 129 107
f 107 129 126
f 108 126 130
f 108 130 131
f 108 131 132
f 108 132 133
f 108 133 134
f 108 134 109
f 109 134 110
f 112 121 135
f 112 135 136
f 112 136 137
f 112 137 113
f 113 115 114
f 113 137 116
f 113 116 115
f 116 138 139
f 116 139 117
f 116 137 140
f 116 140 138
f 117 139 118
f 118 139 122
f 119 141 142
f 119 142 120
f 120 142 143
f 120 143 121
f 121 143 144
f 121 144 135
f 122 139 125
f 122 125 124
f 122 124 123
f 125 139 145
f 125 145 140
f 126 129 146
f 126 146 130
f 127 147 148
f 127 148 149
f 127 149 128
f 128 149 146
f 128 146 129
f 130 146 150
f 130 150 131
f 131 151 132
f 131 150 152
f 131 152 153
f 131 153 151
f 132 151 154
f 132 154 155
f 132 155 134
f 132 134 133
f 135 156 157
f 135 157 136
f 135 144 158
f 135 158 156
f 136 157 159
f 136 159 137
f 137 159 140
f 138 140 145
f 138 145 139
f 141 160 161
f 141 161 142
f 142 161 162
f 142 162 163
f 142 163 143
f 143 163 144
f 144 163 158
f 146 149 150
f 147 164 165
f 147 165 148
f 147 166 164
f 148 165 150
f 148 150 149
f 150 165 152
f 151 153 154
f 152 165 153
f 153 167 168
f 153 168 154
f 153 165 164
f 153 164 167
f 154 168 169
f 154 169 155
f 155 169 170
f 155 170 171
f 156 158 172
f 156 172 173
f 156 173 157
f 157 173 159
f 158 163 174
f 158 174 172
f 160 175 176
f 160 176 162
f 160 162 161
f 162 174 163
f 162 176 174
f 164 166 167
f 166 177 167
f 167 177 178
f 167 178 179
f 167 179 180
f 167 180 181
f 167 181 168
f 168 181 180
f 168 180 182
f 168 182 183
f 168 183 169
f 169 183 170
f 170 184 185
f 170 185 186
f 170 186 171
f 170 183 184
f 171 186 185
f 171 185 187
f 171 187 188
f 172 174 189
f 172 189 190
f 174 176 189
f 175 191 192
f 175 192 176
f 176 192 193
f 176 193 194
f 176 194 195
f 176 195 189
f 179 196 180
f 180 196 197
f 180 197 198
f 180 198 199
f 180 199 182
f 182 199 183
f 183 199 184
f 184 199 200
f 184 200 185
f 185 200 187
f 187 200 201
f 187 201 202
f 187 202 203
f 187 203 204
f 187 204 188
f 188 204 205
f 189 195 206
f 189 206 190
f 191 207 193
f 191 193 192
f 191 208 207
f 193 207 208
f 193 208 209
f 193 209 210
f 193 210 194
f 194 210 211
f 194 211 195
f 195 211 206
f 197 212 198
f 198 212 213
f 198 213 199
f 199 213 214
f 199 214 200
f 200 214 215
f 200 215 201
f 201 215 202
f 202 204 203
f 204 216 205
f 205 216 217
f 208 218 219
f 208 219 209
f 209 220 210
f 209 219 221
f 209 221 222
f 209 222 220
f 210 220 223
f 210 223 211
f 211 223 224
f 212 225 213
f 213 225 214
f 214 225 215
f 216 226 217
f 217 226 227
f 218 228 219
f 218 229 230
f 218 230 231
f 218 231 228
f 219 228 221
f 220 222 223
f 221 228 232
f 221 232 233
f 221 233 222
f 222 233 234
f 222 234 223
f 223 234 224
f 224 234 233
f 224 233 235
f 224 235 236
f 226 237 227
f 227 237 238
f 227 238 229
f 228 231 239
f 228 239 232
f 229 240 241
f 229 241 230
f 229 238 240
f 230 241 239
f 230 239 231
f 232 239 242
f 232 242 243
f 232 243 233
f 233 243 235
f 235 243 236
f 236 243 244
f 236 244 245
f 237 246 238
f 238 246 247
f 238 247 256
f 238 256 255
f 238 255 248
f 238 248 249
f 238 249 240
f 239 241 250
f 239 250 242
f 240 249 251
f 240 251 241
f 241 251 252
f 241 252 250
f 242 250 252
f 242 252 244
f 242 244 243
f 244 249 245
f 244 252 249
f 245 249 253
f 245 253 248
f 245 248 254
f 245 254 246
f 246 254 248
f 246 248 255
f 246 255 256
f 246 256 247
f 248 253 249
f 249 252 251
