v -0.002726 0.017673 0.000641
v -0.005787 0.017673 0.002714
v -0.003633 0.017673 0.001098
v -0.005872 0.027958 0.000464
v -0.005872 0.029191 0.000261
v -0.005872 0.030334 0.000178
v -0.002716 0.028215 -0.000087
v -0.002557 0.029145 -0.000097
v -0.002476 0.030089 -0.000040
v -0.002476 0.020227 0.052342
v -0.002745 0.017863 0.052446
v -0.003815 0.017837 0.052722
v -0.005872 0.020317 0.002023
v -0.004899 0.017673 0.001966
v -0.005244 0.017837 0.052914
v -0.005844 0.017837 0.052982
v -0.004303 0.017673 0.001519
v -0.005872 0.032327 0.000308
v -0.005844 0.031443 0.000204
v -0.005244 0.031152 0.000137
v -0.004672 0.030294 0.000064
v -0.004386 0.031152 0.000095
v -0.003815 0.031722 0.000147
v -0.002476 0.030933 0.000059
v -0.002476 0.020852 0.052275
v -0.003429 0.020584 0.052576
v -0.002722 0.019395 0.052457
v -0.002711 0.018508 0.052457
v -0.003529 0.018569 0.052675
v -0.004101 0.018854 0.052795
v -0.004672 0.018569 0.052878
v -0.005872 0.018825 0.052987
v -0.004958 0.019427 0.052909
v -0.004386 0.032295 0.000246
v -0.004672 0.031722 0.000168
v -0.005872 0.034005 0.000703
v -0.005851 0.033113 0.000469
v -0.003529 0.032295 0.000251
v -0.002596 0.032053 0.000266
v -0.002476 0.032911 0.000479
v -0.002732 0.022683 0.052067
v -0.002716 0.022001 0.052187
v -0.002476 0.023628 0.051745
v -0.003714 0.021301 0.052556
v -0.004101 0.020570 0.052743
v -0.003529 0.019427 0.052659
v -0.005844 0.019712 0.052966
v -0.005872 0.020556 0.052930
v -0.004958 0.020282 0.052883
v -0.005244 0.033389 0.000505
v -0.004386 0.033124 0.000438
v -0.005858 0.034852 0.000999
v -0.004958 0.034005 0.000692
v -0.005872 0.035753 0.001430
v -0.003404 0.033268 0.000516
v -0.002476 0.033740 0.000734
v -0.003280 0.023251 0.052051
v -0.003529 0.022286 0.052342
v -0.002476 0.030973 0.048263
v -0.002565 0.028851 0.049677
v -0.002586 0.025036 0.051355
v -0.004065 0.021465 0.052602
v -0.004672 0.020858 0.052805
v -0.005851 0.021693 0.052821
v -0.005844 0.023708 0.052368
v -0.005844 0.024483 0.052103
v -0.005844 0.026548 0.051371
v -0.005851 0.029176 0.050139
v -0.005868 0.032701 0.047723
v -0.005872 0.042255 0.037632
v -0.005872 0.042802 0.036712
v -0.005244 0.034823 0.000994
v -0.003815 0.034005 0.000739
v -0.005872 0.036404 0.001784
v -0.004672 0.036340 0.001758
v -0.004958 0.035718 0.001430
v -0.002476 0.034624 0.001082
v -0.005244 0.023714 0.052275
v -0.005751 0.022799 0.052602
v -0.003243 0.024287 0.051735
v -0.004235 0.024086 0.051984
v -0.005244 0.022001 0.052696
v -0.004672 0.030752 0.049022
v -0.004204 0.030371 0.049147
v -0.002476 0.032545 0.047141
v -0.003079 0.032597 0.047297
v -0.004101 0.029338 0.049776
v -0.003317 0.028940 0.049817
v -0.002724 0.028028 0.050155
v -0.002716 0.026018 0.051028
v -0.003529 0.024860 0.051610
v -0.003801 0.026000 0.051262
v -0.005170 0.024448 0.052031
v -0.004914 0.026369 0.051319
v -0.005244 0.027149 0.051059
v -0.005844 0.028117 0.050711
v -0.005244 0.028290 0.050529
v -0.004948 0.029706 0.049718
v -0.005844 0.030147 0.049583
v -0.004958 0.032407 0.047822
v -0.005844 0.035966 0.045063
v -0.005844 0.038825 0.042210
v -0.005511 0.030708 0.049168
v -0.005244 0.031494 0.048570
v -0.005844 0.040547 0.040204
v -0.005810 0.041097 0.039425
v -0.004672 0.042998 0.036146
v -0.004754 0.043464 0.035299
v -0.005844 0.044000 0.034494
v -0.005858 0.045508 0.030534
v -0.005872 0.046217 0.028009
v -0.004418 0.034806 0.001025
v -0.005872 0.037224 0.002267
v -0.004798 0.037089 0.002179
v -0.002476 0.035799 0.001638
v -0.004100 0.035957 0.001597
v -0.003529 0.036908 0.002179
v -0.004639 0.031443 0.048523
v -0.002476 0.033389 0.046486
v -0.003326 0.033234 0.046876
v -0.004638 0.028840 0.050139
v -0.003529 0.028402 0.050155
v -0.004568 0.027383 0.050851
v -0.003508 0.026841 0.050862
v -0.004101 0.026815 0.051002
v -0.005244 0.027725 0.050810
v -0.004672 0.036476 0.044434
v -0.005518 0.036458 0.044590
v -0.005591 0.037224 0.043893
v -0.005798 0.038244 0.042859
v -0.004672 0.039018 0.041820
v -0.005816 0.040161 0.040672
v -0.005170 0.040501 0.040131
v -0.003688 0.041218 0.038661
v -0.004007 0.043052 0.035845
v -0.003853 0.043568 0.034712
v -0.004946 0.043916 0.034431
v -0.004672 0.044777 0.032223
v -0.005844 0.044694 0.032753
v -0.005244 0.045468 0.030503
v -0.005720 0.045782 0.029604
v -0.005872 0.046657 0.026221
v -0.003529 0.046099 0.027645
v -0.004101 0.046571 0.025941
v -0.005872 0.038002 0.002792
v -0.004101 0.037198 0.002303
v -0.004386 0.037970 0.002807
v -0.002476 0.036490 0.002044
v -0.003376 0.037746 0.002761
v -0.002476 0.034106 0.045915
v -0.002957 0.033801 0.046305
v -0.003249 0.036004 0.044517
v -0.002476 0.036251 0.044112
v -0.002756 0.037222 0.043306
v -0.004101 0.037164 0.043675
v -0.004672 0.036939 0.044013
v -0.005583 0.037728 0.043384
v -0.004672 0.037518 0.043452
v -0.004437 0.039456 0.041259
v -0.003529 0.037823 0.042917
v -0.003529 0.039407 0.041051
v -0.002731 0.039482 0.040672
v -0.002712 0.039963 0.040012
v -0.003064 0.041227 0.038328
v -0.003234 0.041728 0.037658
v -0.002476 0.043021 0.035148
v -0.002476 0.043349 0.034514
v -0.003781 0.044601 0.032280
v -0.004386 0.044958 0.031651
v -0.003271 0.045799 0.028575
v -0.005872 0.046882 0.025156
v -0.002716 0.046070 0.027385
v -0.002520 0.046297 0.026149
v -0.004101 0.046735 0.025083
v -0.005872 0.038664 0.003291
v -0.005146 0.039309 0.003774
v -0.004672 0.038658 0.003296
v -0.004101 0.038480 0.003202
v -0.002476 0.037679 0.002864
v -0.002476 0.039220 0.003950
v -0.002476 0.038975 0.041228
v -0.002558 0.037653 0.042833
v -0.004101 0.037604 0.043254
v -0.002785 0.038270 0.042220
v -0.003163 0.039013 0.041425
v -0.002476 0.041820 0.037112
v -0.002476 0.043686 0.033714
v -0.002476 0.044100 0.032722
v -0.002476 0.044702 0.031225
v -0.002476 0.044956 0.030550
v -0.005872 0.046960 0.024283
v -0.004958 0.047072 0.022225
v -0.002476 0.046407 0.025416
v -0.003529 0.046689 0.024798
v -0.003529 0.046787 0.023940
v -0.005872 0.042217 0.006585
v -0.005790 0.039571 0.003992
v -0.005544 0.040248 0.004553
v -0.002476 0.039848 0.004455
v -0.005858 0.047089 0.022251
v -0.005858 0.046182 0.014192
v -0.004101 0.046986 0.021934
v -0.004672 0.047009 0.020220
v -0.005544 0.047072 0.019934
v -0.002476 0.046735 0.021929
v -0.002716 0.046606 0.024226
v -0.002837 0.046721 0.023306
v -0.003257 0.046868 0.021882
v -0.003815 0.041757 0.006315
v -0.005544 0.040916 0.005172
v -0.005858 0.045929 0.013387
v -0.005851 0.044645 0.010399
v -0.005858 0.042785 0.007292
v -0.004386 0.042255 0.006840
v -0.002716 0.040484 0.005047
v -0.002476 0.041800 0.006699
v -0.005671 0.046879 0.017616
v -0.005844 0.046479 0.015361
v -0.005244 0.046525 0.015647
v -0.004725 0.046251 0.014764
v -0.004958 0.046033 0.013932
v -0.002716 0.046767 0.019388
v -0.003880 0.046899 0.019570
v -0.004672 0.046980 0.019648
v -0.004916 0.046850 0.017892
v -0.002476 0.046476 0.017362
v -0.002716 0.046747 0.022532
v -0.003362 0.042894 0.007889
v -0.002721 0.042379 0.007370
v -0.004993 0.045782 0.013169
v -0.005844 0.044950 0.011069
v -0.005244 0.044616 0.010435
v -0.005844 0.043334 0.008113
v -0.004958 0.044889 0.011069
v -0.005244 0.042923 0.007557
v -0.002476 0.042787 0.008066
v -0.004386 0.046741 0.017362
v -0.003815 0.046600 0.016790
v -0.003529 0.046473 0.016219
v -0.003281 0.046300 0.015663
v -0.002727 0.045601 0.013522
v -0.004101 0.045739 0.013330
v -0.004101 0.046781 0.017933
v -0.002572 0.046231 0.015938
v -0.002716 0.046421 0.016728
v -0.002476 0.044501 0.011064
v -0.002478 0.045785 0.014317
v -0.004188 0.043427 0.008523
v -0.002717 0.044184 0.010279
v -0.003529 0.045555 0.013039
v -0.004101 0.044794 0.011069
v -0.004101 0.044627 0.010711
v -0.003529 0.044155 0.009973
v -0.002716 0.046056 0.015122
v -0.002749 0.045295 0.012701
v -0.003477 0.044550 0.010737
f 1 2 14
f 1 14 17
f 1 17 3
f 1 3 4
f 1 4 5
f 1 5 6
f 1 6 7
f 1 7 8
f 1 8 9
f 1 9 10
f 1 10 11
f 1 11 12
f 1 12 2
f 2 13 14
f 2 12 15
f 2 15 16
f 2 16 13
f 3 17 4
f 4 17 13
f 4 13 32
f 4 32 48
f 4 48 71
f 4 71 111
f 4 111 142
f 4 142 171
f 4 171 191
f 4 191 196
f 4 196 175
f 4 175 145
f 4 145 113
f 4 113 74
f 4 74 54
f 4 54 36
f 4 36 18
f 4 18 6
f 4 6 5
f 6 18 19
f 6 19 20
f 6 20 21
f 6 21 7
f 7 21 8
f 8 21 22
f 8 22 9
f 9 22 23
f 9 23 24
f 9 24 40
f 9 40 56
f 9 56 77
f 9 77 115
f 9 115 148
f 9 148 179
f 9 179 180
f 9 180 199
f 9 199 216
f 9 216 236
f 9 236 246
f 9 246 226
f 9 226 205
f 9 205 193
f 9 193 190
f 9 190 189
f 9 189 188
f 9 188 187
f 9 187 167
f 9 167 166
f 9 166 186
f 9 186 181
f 9 181 153
f 9 153 150
f 9 150 119
f 9 119 85
f 9 85 59
f 9 59 43
f 9 43 25
f 9 25 10
f 10 25 26
f 10 26 27
f 10 27 28
f 10 28 11
f 11 28 29
f 11 29 12
f 12 29 30
f 12 30 31
f 12 31 15
f 13 17 14
f 13 16 32
f 15 31 16
f 16 31 33
f 16 33 32
f 18 34 35
f 18 35 19
f 18 36 37
f 18 37 34
f 19 35 20
f 20 22 21
f 20 35 22
f 22 35 23
f 23 35 34
f 23 34 38
f 23 38 24
f 24 38 39
f 24 39 40
f 25 41 42
f 25 42 26
f 25 43 41
f 26 42 44
f 26 44 45
f 26 45 46
f 26 46 27
f 27 46 29
f 27 29 28
f 29 46 30
f 30 46 45
f 30 45 33
f 30 33 31
f 32 33 47
f 32 47 48
f 33 45 49
f 33 49 47
f 34 37 50
f 34 50 51
f 34 51 38
f 36 52 53
f 36 53 50
f 36 50 37
f 36 54 52
f 38 51 55
f 38 55 40
f 38 40 39
f 40 55 56
f 41 57 58
f 41 58 42
f 41 43 57
f 42 58 44
f 43 59 60
f 43 60 61
f 43 61 57
f 44 62 45
f 44 58 62
f 45 63 49
f 45 62 63
f 47 49 48
f 48 64 65
f 48 65 66
f 48 66 67
f 48 67 68
f 48 68 69
f 48 69 70
f 48 70 71
f 48 49 64
f 49 63 64
f 50 53 51
f 51 53 55
f 52 72 53
f 52 54 72
f 53 72 73
f 53 73 55
f 54 74 75
f 54 75 76
f 54 76 72
f 55 73 56
f 56 73 77
f 57 78 79
f 57 79 58
f 57 61 80
f 57 80 81
f 57 81 78
f 58 79 82
f 58 82 62
f 59 83 84
f 59 84 60
f 59 85 86
f 59 86 83
f 60 84 87
f 60 87 88
f 60 88 89
f 60 89 90
f 60 90 61
f 61 91 80
f 61 90 92
f 61 92 91
f 62 82 63
f 63 82 64
f 64 79 65
f 64 82 79
f 65 79 78
f 65 78 93
f 65 93 66
f 66 93 94
f 66 94 67
f 67 94 95
f 67 95 96
f 67 96 68
f 68 96 97
f 68 97 98
f 68 98 99
f 68 99 69
f 69 100 101
f 69 101 102
f 69 102 70
f 69 99 103
f 69 103 104
f 69 104 100
f 70 105 106
f 70 106 107
f 70 107 71
f 70 102 105
f 71 107 108
f 71 108 109
f 71 109 110
f 71 110 111
f 72 76 112
f 72 112 73
f 73 112 77
f 74 113 114
f 74 114 75
f 75 115 116
f 75 116 76
f 75 114 117
f 75 117 115
f 76 116 112
f 77 112 115
f 78 81 93
f 80 91 81
f 81 91 93
f 83 104 103
f 83 103 99
f 83 99 98
f 83 98 87
f 83 87 84
f 83 86 118
f 83 118 104
f 85 119 86
f 86 119 120
f 86 120 118
f 87 98 121
f 87 121 122
f 87 122 88
f 88 122 89
f 89 122 123
f 89 123 124
f 89 124 90
f 90 124 125
f 90 125 92
f 91 92 93
f 92 125 94
f 92 94 93
f 94 125 123
f 94 123 95
f 95 123 126
f 95 126 96
f 96 126 97
f 97 122 121
f 97 121 98
f 97 126 122
f 100 120 101
f 100 104 118
f 100 118 120
f 101 127 128
f 101 128 129
f 101 129 130
f 101 130 102
f 101 120 127
f 102 131 132
f 102 132 105
f 102 130 131
f 105 133 106
f 105 132 133
f 106 133 134
f 106 134 107
f 107 135 108
f 107 134 135
f 108 136 137
f 108 137 109
f 108 135 136
f 109 137 138
f 109 138 139
f 109 139 110
f 110 140 141
f 110 141 111
f 110 139 140
f 111 141 143
f 111 143 144
f 111 144 142
f 112 116 115
f 113 145 114
f 114 146 117
f 114 145 147
f 114 147 146
f 115 117 148
f 117 146 149
f 117 149 148
f 119 150 120
f 120 150 151
f 120 151 152
f 120 152 127
f 122 126 123
f 123 125 124
f 127 152 153
f 127 153 154
f 127 154 155
f 127 155 156
f 127 156 128
f 128 156 129
f 129 157 130
f 129 156 158
f 129 158 157
f 130 157 131
f 131 159 132
f 131 157 158
f 131 158 160
f 131 160 159
f 132 159 133
f 133 159 161
f 133 161 134
f 134 161 162
f 134 162 163
f 134 163 164
f 134 164 165
f 134 165 135
f 135 166 167
f 135 167 136
f 135 165 166
f 136 167 168
f 136 168 137
f 137 168 138
f 138 168 169
f 138 169 140
f 138 140 139
f 140 170 143
f 140 143 141
f 140 169 170
f 142 144 171
f 143 170 172
f 143 172 144
f 144 173 174
f 144 174 171
f 144 172 173
f 145 175 176
f 145 176 177
f 145 177 147
f 146 147 149
f 147 177 178
f 147 178 149
f 148 149 179
f 149 178 180
f 149 180 179
f 150 153 151
f 151 153 152
f 153 181 182
f 153 182 154
f 154 182 160
f 154 160 155
f 155 160 183
f 155 183 156
f 156 183 158
f 158 183 160
f 159 160 184
f 159 184 185
f 159 185 161
f 160 182 184
f 161 185 162
f 162 185 181
f 162 181 163
f 163 186 164
f 163 181 186
f 164 186 165
f 165 186 166
f 167 187 168
f 168 188 189
f 168 189 190
f 168 190 169
f 168 187 188
f 169 190 170
f 170 190 172
f 171 174 192
f 171 192 191
f 172 190 173
f 173 193 194
f 173 194 174
f 173 190 193
f 174 194 195
f 174 195 192
f 175 196 197
f 175 197 176
f 176 178 177
f 176 197 198
f 176 198 199
f 176 199 178
f 178 199 180
f 181 185 184
f 181 184 182
f 191 192 200
f 191 200 201
f 191 201 196
f 192 202 203
f 192 203 204
f 192 204 200
f 192 195 202
f 193 205 206
f 193 206 194
f 194 206 195
f 195 206 207
f 195 207 208
f 195 208 202
f 196 209 210
f 196 210 197
f 196 201 211
f 196 211 212
f 196 212 213
f 196 213 214
f 196 214 209
f 197 210 198
f 198 210 199
f 199 210 215
f 199 215 216
f 200 204 217
f 200 217 218
f 200 218 201
f 201 218 219
f 201 219 220
f 201 220 221
f 201 221 211
f 202 208 222
f 202 222 203
f 203 222 223
f 203 223 224
f 203 224 204
f 204 224 225
f 204 225 217
f 205 226 222
f 205 222 208
f 205 208 227
f 205 227 207
f 205 207 206
f 207 227 208
f 209 214 228
f 209 228 229
f 209 229 216
f 209 216 215
f 209 215 210
f 211 221 230
f 211 230 231
f 211 231 212
f 212 232 233
f 212 233 213
f 212 231 234
f 212 234 232
f 213 233 235
f 213 235 214
f 214 235 228
f 216 229 236
f 217 225 237
f 217 237 219
f 217 219 218
f 219 237 238
f 219 238 239
f 219 239 220
f 220 239 240
f 220 240 241
f 220 241 242
f 220 242 221
f 221 242 230
f 222 243 223
f 222 226 238
f 222 238 243
f 223 243 224
f 224 243 225
f 225 243 237
f 226 244 245
f 226 245 239
f 226 239 238
f 226 246 247
f 226 247 244
f 228 248 249
f 228 249 236
f 228 236 229
f 228 235 248
f 230 242 250
f 230 250 251
f 230 251 234
f 230 234 231
f 232 252 253
f 232 253 248
f 232 248 233
f 232 234 252
f 233 248 235
f 234 251 252
f 236 249 246
f 237 243 238
f 239 245 244
f 239 244 240
f 240 254 241
f 240 244 254
f 241 255 250
f 241 250 242
f 241 254 247
f 241 247 255
f 244 247 254
f 246 249 256
f 246 256 255
f 246 255 247
f 248 253 249
f 249 253 256
f 250 255 251
f 251 256 252
f 251 255 256
f 252 256 253
