v -0.005801 0.017545 0.002704
v -0.005909 0.004504 0.002348
v -0.006355 0.006635 0.001510
v -0.007925 0.009689 0.000677
v -0.010174 0.012531 0.000321
v -0.013808 0.017838 0.000373
v -0.011489 0.017838 0.001609
v -0.009492 0.017838 0.002877
v -0.006737 0.017591 0.052995
v -0.005822 0.005060 0.047429
v -0.005804 -0.006822 0.031913
v -0.008779 0.004297 0.001725
v -0.005955 -0.005307 0.012606
v -0.006174 -0.000737 0.006003
v -0.006556 0.002024 0.003594
v -0.010547 0.007155 0.000473
v -0.012171 0.010794 -0.000103
v -0.015185 0.014274 -0.000370
v -0.016496 0.017218 -0.000333
v -0.019703 0.017734 -0.000449
v -0.032094 0.017838 0.006715
v -0.036527 0.017838 0.021969
v -0.024361 0.017629 0.045057
v -0.015609 0.017236 0.050989
v -0.012397 0.016420 0.052126
v -0.009161 0.016305 0.052759
v -0.006601 0.015310 0.052759
v -0.006893 0.010135 0.051010
v -0.007113 0.007954 0.049712
v -0.008670 0.005509 0.047963
v -0.005994 0.003216 0.045973
v -0.006758 -0.006261 0.034065
v -0.007257 -0.007496 0.030352
v -0.006424 -0.007751 0.028226
v -0.006153 -0.007863 0.025592
v -0.006099 -0.006455 0.015659
v -0.006830 -0.002890 0.040155
v -0.006917 -0.004717 0.037338
v -0.010668 0.002261 0.002531
v -0.011970 0.005081 0.001002
v -0.008379 -0.006582 0.014543
v -0.008613 -0.005485 0.011601
v -0.006451 -0.003490 0.009029
v -0.008586 -0.001775 0.006128
v -0.009434 0.000008 0.004311
v -0.014647 0.008645 -0.000040
v -0.014683 0.011414 -0.000360
v -0.017615 0.014524 -0.000501
v -0.019970 0.013457 -0.000292
v -0.022590 0.017532 0.000023
v -0.033544 0.017838 0.009249
v -0.030232 0.017588 0.004547
v -0.031396 0.015662 0.006280
v -0.033237 0.015351 0.009396
v -0.036031 0.015432 0.022482
v -0.036028 0.017377 0.025189
v -0.035484 0.017514 0.027362
v -0.028704 0.017481 0.040710
v -0.036046 0.016981 0.016649
v -0.036377 0.016828 0.019995
v -0.022716 0.017073 0.046418
v -0.026761 0.017264 0.042852
v -0.015793 0.014761 0.050382
v -0.013537 0.013743 0.051131
v -0.019681 0.015884 0.048424
v -0.010968 0.014006 0.052047
v -0.007606 0.012901 0.052147
v -0.009877 0.009755 0.050665
v -0.010613 0.007885 0.049387
v -0.012223 0.006257 0.047827
v -0.012129 -0.000066 0.042983
v -0.009988 -0.002051 0.041370
v -0.007558 -0.001206 0.042135
v -0.010054 -0.006108 0.035029
v -0.009389 -0.007213 0.031960
v -0.008830 -0.007991 0.028457
v -0.009377 -0.008226 0.026106
v -0.009416 -0.008167 0.022917
v -0.008487 -0.007909 0.020304
v -0.006547 -0.007677 0.021492
v -0.006646 -0.007131 0.017916
v -0.009958 -0.004373 0.038218
v -0.014737 0.002927 0.002243
v -0.013708 0.000664 0.003720
v -0.015654 0.006257 0.000651
v -0.010671 -0.006054 0.012444
v -0.010000 -0.007496 0.017256
v -0.009970 -0.003515 0.007914
v -0.012526 -0.002365 0.006547
v -0.017507 0.009594 -0.000124
v -0.017116 0.011949 -0.000417
v -0.020042 0.009969 0.000106
v -0.023032 0.014493 0.000274
v -0.025345 0.016361 0.001148
v -0.027405 0.017167 0.002311
v -0.034765 0.016728 0.012281
v -0.029396 0.015292 0.004102
v -0.030858 0.012064 0.006935
v -0.032058 0.010679 0.009799
v -0.033977 0.014003 0.011485
v -0.034515 0.011482 0.024697
v -0.034891 0.013947 0.026839
v -0.035673 0.014049 0.018795
v -0.035420 0.013144 0.021833
v -0.034551 0.017208 0.029918
v -0.031002 0.017170 0.037275
v -0.033658 0.013360 0.030138
v -0.029901 0.015925 0.038788
v -0.028437 0.013756 0.040134
v -0.026789 0.014384 0.042271
v -0.035198 0.014174 0.015538
v -0.021543 0.014269 0.046800
v -0.017399 0.013144 0.049015
v -0.015726 0.011692 0.049377
v -0.011576 0.011771 0.051162
v -0.019233 0.012085 0.047575
v -0.012195 0.009633 0.049968
v -0.014184 0.005652 0.046727
v -0.015465 0.000559 0.042506
v -0.011913 -0.002561 0.040417
v -0.012962 -0.005648 0.035191
v -0.012683 -0.007215 0.031185
v -0.012704 -0.008065 0.025608
v -0.011167 -0.008065 0.020476
v -0.014367 -0.003105 0.038841
v -0.018157 0.004797 0.001745
v -0.016942 0.001562 0.003625
v -0.018521 -0.000270 0.005908
v -0.018403 0.007369 0.000562
v -0.012611 -0.006853 0.014947
v -0.013218 -0.005802 0.012218
v -0.012108 -0.004044 0.008778
v -0.013008 -0.007534 0.017973
v -0.018512 -0.002781 0.009035
v -0.022388 0.011707 0.000457
v -0.022232 0.008500 0.001405
v -0.024969 0.013075 0.001342
v -0.026921 0.013087 0.002667
v -0.028981 0.012447 0.004636
v -0.028431 0.009531 0.005359
v -0.030004 0.009209 0.007364
v -0.031474 0.007660 0.011711
v -0.033026 0.009367 0.013962
v -0.029709 0.006910 0.008988
v -0.034278 0.011406 0.015570
v -0.032921 0.008051 0.025676
v -0.032744 0.009439 0.028891
v -0.033700 0.011508 0.028242
v -0.034112 0.009793 0.021906
v -0.034933 0.011914 0.018502
v -0.033228 0.016593 0.032829
v -0.032010 0.016040 0.035270
v -0.031114 0.009656 0.033432
v -0.031880 0.012595 0.033892
v -0.030536 0.013677 0.037024
v -0.029092 0.011317 0.038202
v -0.027008 0.010661 0.040506
v -0.025222 0.012539 0.043192
v -0.020894 0.010648 0.045795
v -0.017835 0.008262 0.046518
v -0.015778 0.007910 0.047423
v -0.014171 0.009204 0.048921
v -0.018352 0.002042 0.042208
v -0.017462 -0.000905 0.039967
v -0.016367 -0.005286 0.034070
v -0.014662 -0.006317 0.032814
v -0.015910 -0.003811 0.037055
v -0.017263 -0.006353 0.030007
v -0.017134 -0.006996 0.027043
v -0.015062 -0.007674 0.025414
v -0.015612 -0.007618 0.022472
v -0.013552 -0.007853 0.021031
v -0.021612 0.002963 0.004348
v -0.023354 0.005022 0.003861
v -0.023612 0.007244 0.002693
v -0.020530 -0.000790 0.007511
v -0.014746 -0.006771 0.015512
v -0.016999 -0.005990 0.014716
v -0.016951 -0.004559 0.011114
v -0.017203 -0.006677 0.017387
v -0.016557 -0.007225 0.019827
v -0.019266 -0.005169 0.014208
v -0.022325 -0.002888 0.012705
v -0.025634 0.010207 0.002704
v -0.026025 0.007530 0.004123
v -0.027883 0.005264 0.007862
v -0.029447 0.004795 0.011019
v -0.030199 0.004399 0.013507
v -0.031865 0.006145 0.015874
v -0.033141 0.008548 0.016078
v -0.031577 0.005476 0.025990
v -0.031183 0.006691 0.029991
v -0.032780 0.007017 0.022356
v -0.033529 0.008599 0.018795
v -0.029871 0.007627 0.034243
v -0.030359 0.010709 0.035840
v -0.027387 0.007574 0.038244
v -0.024966 0.007451 0.040925
v -0.024428 0.009127 0.042360
v -0.021862 0.007938 0.043685
v -0.020042 0.003922 0.042574
v -0.021071 0.002182 0.040595
v -0.021002 0.000529 0.039118
v -0.020466 -0.001245 0.037500
v -0.019513 -0.003194 0.035395
v -0.021218 -0.003421 0.032866
v -0.019739 -0.005396 0.029750
v -0.018881 -0.006587 0.025357
v -0.020175 -0.006177 0.023278
v -0.024280 0.003654 0.005385
v -0.023946 0.001723 0.007170
v -0.023594 -0.000346 0.009584
v -0.019552 -0.006172 0.018885
v -0.021627 -0.004079 0.014653
v -0.021248 -0.005013 0.017177
v -0.023784 -0.003120 0.015853
v -0.024716 -0.001433 0.013182
v -0.026094 0.003665 0.007170
v -0.026461 0.002065 0.009684
v -0.028133 0.002708 0.011585
v -0.028771 0.001896 0.014674
v -0.029309 0.001631 0.017638
v -0.030362 0.002703 0.019864
v -0.032317 0.006226 0.018827
v -0.031026 0.003978 0.023440
v -0.030428 0.003453 0.025655
v -0.029664 0.003292 0.028509
v -0.029730 0.004767 0.031096
v -0.031544 0.004591 0.020738
v -0.028374 0.004035 0.033311
v -0.028070 0.005941 0.035955
v -0.025231 0.003912 0.038050
v -0.022163 0.005581 0.042103
v -0.023537 0.004647 0.040365
v -0.023131 0.001677 0.038390
v -0.023306 -0.000461 0.035474
v -0.025213 -0.000737 0.031981
v -0.022524 -0.004036 0.029117
v -0.021928 -0.005123 0.025713
v -0.023847 -0.004153 0.023252
v -0.021468 -0.005478 0.020167
v -0.025940 0.000570 0.011375
v -0.023730 -0.003796 0.018204
v -0.026124 -0.001706 0.017460
v -0.026701 -0.000316 0.014512
v -0.028461 0.000197 0.020869
v -0.029249 0.001302 0.023974
v -0.028536 0.001177 0.027059
v -0.026548 -0.000512 0.029258
v -0.027149 0.001810 0.032526
v -0.025868 0.001960 0.035160
v -0.024400 -0.003038 0.027917
v -0.025525 -0.002474 0.025964
v -0.026966 -0.001444 0.024069
v -0.026211 -0.002184 0.021031
v -0.024283 -0.003760 0.020665
f 1 2 3
f 1 3 4
f 1 4 5
f 1 5 6
f 1 6 7
f 1 7 8
f 1 8 9
f 1 9 10
f 1 10 11
f 1 11 2
f 2 12 3
f 2 11 13
f 2 13 14
f 2 14 15
f 2 15 12
f 3 12 16
f 3 16 4
f 4 16 17
f 4 17 5
f 5 17 18
f 5 18 19
f 5 19 6
f 6 19 20
f 6 20 21
f 6 21 51
f 6 51 22
f 6 22 8
f 6 8 7
f 8 22 9
f 9 22 23
f 9 23 24
f 9 24 25
f 9 25 26
f 9 26 27
f 9 27 10
f 10 27 28
f 10 28 29
f 10 29 30
f 10 30 31
f 10 31 11
f 11 32 33
f 11 33 34
f 11 34 35
f 11 35 36
f 11 36 13
f 11 31 37
f 11 37 38
f 11 38 32
f 12 15 39
f 12 39 40
f 12 40 16
f 13 36 41
f 13 41 42
f 13 42 43
f 13 43 14
f 14 44 45
f 14 45 15
f 14 43 44
f 15 45 39
f 16 40 46
f 16 46 17
f 17 46 47
f 17 47 18
f 18 47 48
f 18 48 19
f 19 48 20
f 20 48 49
f 20 49 50
f 20 50 21
f 21 50 52
f 21 52 53
f 21 53 54
f 21 54 51
f 22 55 56
f 22 56 57
f 22 57 58
f 22 58 23
f 22 51 59
f 22 59 60
f 22 60 55
f 23 61 24
f 23 58 62
f 23 62 61
f 24 63 64
f 24 64 25
f 24 61 65
f 24 65 63
f 25 64 66
f 25 66 26
f 26 67 27
f 26 66 67
f 27 67 28
f 28 68 29
f 28 67 68
f 29 68 69
f 29 69 30
f 30 69 70
f 30 70 71
f 30 71 72
f 30 72 73
f 30 73 31
f 31 73 37
f 32 74 75
f 32 75 33
f 32 38 74
f 33 75 76
f 33 76 34
f 34 76 77
f 34 77 35
f 35 77 78
f 35 78 79
f 35 79 80
f 35 80 36
f 36 80 81
f 36 81 41
f 37 73 72
f 37 72 82
f 37 82 38
f 38 82 74
f 39 83 40
f 39 45 84
f 39 84 83
f 40 85 46
f 40 83 85
f 41 86 42
f 41 81 87
f 41 87 86
f 42 86 88
f 42 88 43
f 43 88 44
f 44 88 89
f 44 89 45
f 45 89 84
f 46 90 91
f 46 91 47
f 46 85 90
f 47 91 48
f 48 91 49
f 49 91 90
f 49 90 92
f 49 92 93
f 49 93 50
f 50 94 95
f 50 95 52
f 50 93 94
f 51 54 96
f 51 96 59
f 52 97 53
f 52 95 97
f 53 98 54
f 53 97 98
f 54 99 100
f 54 100 96
f 54 98 99
f 55 101 102
f 55 102 56
f 55 60 103
f 55 103 104
f 55 104 101
f 56 102 57
f 57 105 106
f 57 106 58
f 57 102 107
f 57 107 105
f 58 106 108
f 58 108 109
f 58 109 110
f 58 110 62
f 59 103 60
f 59 96 111
f 59 111 103
f 61 62 110
f 61 110 112
f 61 112 65
f 63 65 113
f 63 113 114
f 63 114 64
f 64 115 66
f 64 114 115
f 65 112 116
f 65 116 113
f 66 115 67
f 67 115 68
f 68 117 69
f 68 115 117
f 69 117 70
f 70 118 119
f 70 119 71
f 70 117 118
f 71 119 120
f 71 120 72
f 72 120 82
f 74 121 122
f 74 122 75
f 74 82 121
f 75 122 76
f 76 123 77
f 76 122 123
f 77 123 124
f 77 124 78
f 78 124 79
f 79 124 87
f 79 87 81
f 79 81 80
f 82 120 125
f 82 125 121
f 83 126 85
f 83 84 127
f 83 127 126
f 84 89 128
f 84 128 127
f 85 126 129
f 85 129 90
f 86 87 130
f 86 130 131
f 86 131 132
f 86 132 88
f 87 124 133
f 87 133 130
f 88 132 89
f 89 132 134
f 89 134 128
f 90 129 92
f 92 135 93
f 92 129 136
f 92 136 135
f 93 135 137
f 93 137 94
f 94 137 95
f 95 137 138
f 95 138 97
f 96 100 111
f 97 139 98
f 97 138 139
f 98 139 140
f 98 140 141
f 98 141 99
f 99 142 143
f 99 143 100
f 99 141 144
f 99 144 142
f 100 143 145
f 100 145 111
f 101 146 147
f 101 147 148
f 101 148 102
f 101 104 149
f 101 149 146
f 102 148 107
f 103 111 150
f 103 150 104
f 104 150 149
f 105 107 151
f 105 151 106
f 106 151 152
f 106 152 108
f 107 153 154
f 107 154 151
f 107 148 147
f 107 147 153
f 108 152 155
f 108 155 109
f 109 155 156
f 109 156 157
f 109 157 110
f 110 158 112
f 110 157 158
f 111 145 150
f 112 159 116
f 112 158 159
f 113 116 114
f 114 117 115
f 114 116 160
f 114 160 161
f 114 161 162
f 114 162 117
f 116 159 160
f 117 162 118
f 118 162 161
f 118 161 163
f 118 163 119
f 119 163 164
f 119 164 125
f 119 125 120
f 121 165 166
f 121 166 122
f 121 125 167
f 121 167 165
f 122 166 168
f 122 168 169
f 122 169 170
f 122 170 123
f 123 170 171
f 123 171 172
f 123 172 124
f 124 172 133
f 125 164 167
f 126 136 129
f 126 127 173
f 126 173 174
f 126 174 175
f 126 175 136
f 127 128 173
f 128 176 173
f 128 134 176
f 130 177 131
f 130 133 177
f 131 177 178
f 131 178 179
f 131 179 132
f 132 179 134
f 133 180 177
f 133 172 181
f 133 181 180
f 134 179 182
f 134 182 183
f 134 183 176
f 135 136 137
f 136 175 184
f 136 184 137
f 137 184 138
f 138 184 139
f 139 184 185
f 139 185 140
f 140 185 186
f 140 186 141
f 141 186 144
f 142 144 187
f 142 187 188
f 142 188 189
f 142 189 143
f 143 189 190
f 143 190 145
f 144 186 187
f 145 190 150
f 146 191 192
f 146 192 147
f 146 149 193
f 146 193 191
f 147 192 153
f 149 150 194
f 149 194 193
f 150 190 194
f 151 154 152
f 152 154 155
f 153 195 196
f 153 196 154
f 153 192 195
f 154 196 155
f 155 196 156
f 156 197 157
f 156 196 197
f 157 198 199
f 157 199 158
f 157 197 198
f 158 199 159
f 159 200 160
f 159 199 200
f 160 200 201
f 160 201 161
f 161 201 163
f 163 201 202
f 163 202 203
f 163 203 164
f 164 203 204
f 164 204 167
f 165 167 205
f 165 205 206
f 165 206 207
f 165 207 168
f 165 168 166
f 167 204 205
f 168 207 169
f 169 208 170
f 169 207 208
f 170 208 171
f 171 208 209
f 171 209 181
f 171 181 172
f 173 176 210
f 173 210 174
f 174 210 185
f 174 185 175
f 175 185 184
f 176 211 210
f 176 183 212
f 176 212 211
f 177 180 178
f 178 180 182
f 178 182 179
f 180 181 213
f 180 213 182
f 181 209 213
f 182 214 183
f 182 213 215
f 182 215 214
f 183 214 216
f 183 216 217
f 183 217 212
f 185 210 218
f 185 218 186
f 186 218 219
f 186 219 187
f 187 219 220
f 187 220 188
f 188 220 221
f 188 221 222
f 188 222 189
f 189 222 223
f 189 223 224
f 189 224 190
f 190 224 194
f 191 193 225
f 191 225 226
f 191 226 227
f 191 227 192
f 192 228 195
f 192 227 228
f 193 194 229
f 193 229 225
f 194 224 229
f 195 228 230
f 195 230 231
f 195 231 196
f 196 231 197
f 197 232 198
f 197 231 232
f 198 233 199
f 198 232 234
f 198 234 233
f 199 233 200
f 200 233 201
f 201 233 202
f 202 233 234
f 202 234 235
f 202 235 203
f 203 235 204
f 204 235 236
f 204 236 205
f 205 236 206
f 206 236 237
f 206 237 238
f 206 238 207
f 207 238 239
f 207 239 208
f 208 239 209
f 209 240 241
f 209 241 213
f 209 239 240
f 210 211 218
f 211 212 219
f 211 219 218
f 212 217 242
f 212 242 219
f 213 241 215
f 214 215 216
f 215 241 243
f 215 243 216
f 216 243 244
f 216 244 245
f 216 245 217
f 217 245 242
f 219 242 220
f 220 242 245
f 220 245 221
f 221 245 222
f 222 244 246
f 222 246 223
f 222 245 244
f 223 246 247
f 223 247 225
f 223 225 229
f 223 229 224
f 225 247 226
f 226 248 227
f 226 247 248
f 227 248 249
f 227 249 250
f 227 250 228
f 228 250 230
f 230 251 231
f 230 250 251
f 231 251 232
f 232 235 234
f 232 251 235
f 235 251 236
f 236 251 237
f 237 250 249
f 237 249 252
f 237 252 238
f 237 251 250
f 238 252 239
f 239 252 240
f 240 252 253
f 240 253 254
f 240 254 255
f 240 255 256
f 240 256 241
f 241 256 243
f 243 256 244
f 244 256 255
f 244 255 246
f 246 255 254
f 246 254 247
f 247 254 248
f 248 254 249
f 249 254 253
f 249 253 252
