v -0.025381 -0.045846 0.031251
v -0.023010 -0.051774 0.022481
v -0.024934 -0.049162 0.036961
v -0.025283 -0.042227 0.036523
v -0.024606 -0.041575 0.025339
v -0.023791 -0.044951 0.021195
v -0.021426 -0.047886 0.016830
v -0.019344 -0.053433 0.015609
v -0.017347 -0.062210 0.020190
v -0.021137 -0.060243 0.030168
v -0.023128 -0.049235 0.044550
v -0.023391 -0.043595 0.045437
v -0.020789 -0.060190 0.037639
v -0.023752 -0.037844 0.041744
v -0.023673 -0.033212 0.034500
v -0.023864 -0.035239 0.027969
v -0.023069 -0.037897 0.021645
v -0.020782 -0.039509 0.016308
v -0.018621 -0.045464 0.012432
v -0.015514 -0.053920 0.010970
v -0.010219 -0.066040 0.014702
v -0.012301 -0.068797 0.021854
v -0.017156 -0.065270 0.024973
v -0.016039 -0.067540 0.029926
v -0.019134 -0.059059 0.045176
v -0.020421 -0.050518 0.049391
v -0.020480 -0.040384 0.050344
v -0.019528 -0.045780 0.052041
v -0.014147 -0.069251 0.035962
v -0.017182 -0.064171 0.042142
v -0.020539 -0.033488 0.046644
v -0.021072 -0.029508 0.040491
v -0.018516 -0.023691 0.032282
v -0.020546 -0.027231 0.027949
v -0.020599 -0.031824 0.020282
v -0.015724 -0.031876 0.012595
v -0.015520 -0.037884 0.009606
v -0.014522 -0.047116 0.008053
v -0.009844 -0.054380 0.006128
v -0.008149 -0.060598 0.008379
v -0.004970 -0.069981 0.015407
v -0.003078 -0.073686 0.020053
v -0.008833 -0.072791 0.027212
v -0.009358 -0.072923 0.032778
v -0.016939 -0.051840 0.053861
v -0.013569 -0.062408 0.050664
v -0.015862 -0.037344 0.055271
v -0.015520 -0.029179 0.051708
v -0.013635 -0.047109 0.058279
v -0.012669 -0.067494 0.045000
v -0.009299 -0.072600 0.038135
v -0.016098 -0.025665 0.046899
v -0.017051 -0.022723 0.038925
v -0.012833 -0.018124 0.036974
v -0.012925 -0.018025 0.030964
v -0.016079 -0.021960 0.025306
v -0.018818 -0.026461 0.022872
v -0.015146 -0.026092 0.016203
v -0.009660 -0.028139 0.009234
v -0.011066 -0.033923 0.007303
v -0.012492 -0.042668 0.006232
v -0.010298 -0.048438 0.004908
v -0.003774 -0.057881 0.004458
v -0.003202 -0.050926 0.001919
v 0.000266 -0.062757 0.005841
v 0.004142 -0.067415 0.008679
v 0.001731 -0.073166 0.016314
v 0.003078 -0.076279 0.023303
v -0.000095 -0.076535 0.027427
v -0.004424 -0.074712 0.025189
v -0.003170 -0.075969 0.034696
v -0.010107 -0.053748 0.059264
v -0.008346 -0.068429 0.049444
v -0.006087 -0.064309 0.055858
v -0.007512 -0.039496 0.062246
v -0.008675 -0.032501 0.059447
v -0.011519 -0.028678 0.055310
v -0.010685 -0.021973 0.049842
v -0.006481 -0.047221 0.062958
v -0.005114 -0.074232 0.040967
v -0.011198 -0.018894 0.043753
v -0.008222 -0.014821 0.032739
v -0.006178 -0.014347 0.039088
v -0.006967 -0.014821 0.026109
v -0.012229 -0.020236 0.020523
v -0.008589 -0.021756 0.014096
v -0.005357 -0.023737 0.009684
v -0.001757 -0.027336 0.005489
v -0.000818 -0.036068 0.001573
v -0.005817 -0.041220 0.002526
v 0.002822 -0.055374 0.001665
v -0.001370 -0.043694 0.000719
v 0.003623 -0.046293 -0.000084
v 0.008616 -0.061046 0.003740
v 0.009785 -0.066922 0.007844
v 0.012676 -0.070416 0.012047
v 0.008951 -0.075969 0.020791
v 0.011053 -0.077706 0.028673
v 0.004996 -0.077831 0.033261
v 0.000903 -0.075114 0.043904
v 0.006974 -0.077397 0.038331
v -0.002250 -0.055347 0.062651
v -0.001028 -0.068580 0.054272
v -0.002670 -0.072034 0.048204
v 0.001495 -0.065546 0.058246
v -0.000759 -0.041825 0.065209
v -0.003807 -0.032376 0.062005
v -0.002224 -0.027514 0.060211
v -0.006757 -0.025000 0.056282
v -0.002197 -0.017486 0.050546
v -0.004208 -0.014972 0.044184
v 0.000982 -0.046714 0.065587
v 0.003728 -0.010853 0.033985
v 0.006448 -0.011340 0.039473
v 0.004306 -0.011208 0.027420
v -0.004681 -0.016861 0.017913
v 0.001363 -0.021125 0.009345
v 0.004668 -0.026481 0.004360
v 0.001449 -0.030902 0.002767
v 0.006277 -0.036476 0.000353
v 0.009477 -0.052288 0.000444
v 0.012374 -0.047379 -0.000123
v 0.011474 -0.040779 -0.000247
v 0.016296 -0.056170 0.002552
v 0.016132 -0.062533 0.005652
v 0.019246 -0.066455 0.009972
v 0.016979 -0.071955 0.015870
v 0.016125 -0.076318 0.025339
v 0.013747 -0.077062 0.037509
v 0.016624 -0.077055 0.032491
v 0.010364 -0.075634 0.044478
v 0.005049 -0.071153 0.052772
v 0.005837 -0.062052 0.061529
v 0.003196 -0.052136 0.065111
v 0.008938 -0.065928 0.058781
v 0.005305 -0.037292 0.065757
v 0.001790 -0.032824 0.063865
v 0.005154 -0.024474 0.060041
v 0.000549 -0.020947 0.056223
v 0.003866 -0.017295 0.052902
v 0.008202 -0.012617 0.044230
v 0.010561 -0.048754 0.066096
v 0.010508 -0.043345 0.066416
v 0.010147 -0.010623 0.033235
v 0.013445 -0.012143 0.041319
v 0.011520 -0.011972 0.023329
v 0.006290 -0.013538 0.019074
v 0.006895 -0.022309 0.007263
v 0.011973 -0.015933 0.015035
v 0.011868 -0.026073 0.004536
v 0.008412 -0.031034 0.001795
v 0.013852 -0.033804 0.001345
v 0.017879 -0.047945 0.000869
v 0.018523 -0.039970 0.001084
v 0.024100 -0.056979 0.006200
v 0.023220 -0.051413 0.003694
v 0.025927 -0.062960 0.011081
v 0.026367 -0.066520 0.015068
v 0.022359 -0.070350 0.016725
v 0.023214 -0.074212 0.027923
v 0.022018 -0.075015 0.035212
v 0.020244 -0.074179 0.042507
v 0.015843 -0.073482 0.047519
v 0.011132 -0.072008 0.051617
v 0.014384 -0.058322 0.063134
v 0.015048 -0.062882 0.060452
v 0.016460 -0.067145 0.056608
v 0.014483 -0.034581 0.064524
v 0.009352 -0.027540 0.062357
v 0.008905 -0.019565 0.056067
v 0.014371 -0.015360 0.049274
v 0.017439 -0.052103 0.064315
v 0.023030 -0.046201 0.063036
v 0.016966 -0.011669 0.035310
v 0.016848 -0.011787 0.029411
v 0.018102 -0.014117 0.044491
v 0.020487 -0.014031 0.023146
v 0.016348 -0.019887 0.011133
v 0.020336 -0.016571 0.017991
v 0.020021 -0.030573 0.004360
v 0.023969 -0.045208 0.003159
v 0.025414 -0.036397 0.004940
v 0.030203 -0.048932 0.007864
v 0.028804 -0.057940 0.010050
v 0.033633 -0.058506 0.016145
v 0.027602 -0.068915 0.020660
v 0.032023 -0.063816 0.019368
v 0.028272 -0.071449 0.033058
v 0.025427 -0.072396 0.039688
v 0.026676 -0.069277 0.045554
v 0.020395 -0.070396 0.050161
v 0.021026 -0.056091 0.061672
v 0.024698 -0.063000 0.055571
v 0.024665 -0.067257 0.051271
v 0.026137 -0.039332 0.060941
v 0.024462 -0.027001 0.057020
v 0.013799 -0.023967 0.059382
v 0.018713 -0.017729 0.051075
v 0.025395 -0.053610 0.060321
v 0.028082 -0.046912 0.060021
v 0.021998 -0.013604 0.036980
v 0.024587 -0.014689 0.030872
v 0.023102 -0.017019 0.046546
v 0.027970 -0.018203 0.024523
v 0.024192 -0.021276 0.014030
v 0.028995 -0.022519 0.017456
v 0.029987 -0.034719 0.008784
v 0.029034 -0.026520 0.013091
v 0.033304 -0.040095 0.010859
v 0.036037 -0.049998 0.014572
v 0.032844 -0.054709 0.012203
v 0.036747 -0.044352 0.014911
v 0.037364 -0.053998 0.019140
v 0.032910 -0.067336 0.032856
v 0.037029 -0.061421 0.030220
v 0.031622 -0.067731 0.039068
v 0.032595 -0.063382 0.045835
v 0.029757 -0.062901 0.050670
v 0.028311 -0.058440 0.055982
v 0.034428 -0.041253 0.054201
v 0.030808 -0.034344 0.055917
v 0.029527 -0.026435 0.052406
v 0.024107 -0.022237 0.053059
v 0.029901 -0.053610 0.057228
v 0.033258 -0.047122 0.055336
v 0.029264 -0.017986 0.037952
v 0.032023 -0.020177 0.031101
v 0.029730 -0.021980 0.046514
v 0.033948 -0.024013 0.024582
v 0.034782 -0.029389 0.018259
v 0.038698 -0.034620 0.022259
v 0.038442 -0.047879 0.018761
v 0.041135 -0.040397 0.027199
v 0.039920 -0.055157 0.029443
v 0.041523 -0.048228 0.028784
v 0.036635 -0.062230 0.035655
v 0.039072 -0.057315 0.035988
v 0.037627 -0.055821 0.044550
v 0.034349 -0.054459 0.051545
v 0.037437 -0.045306 0.049737
v 0.034796 -0.035824 0.052126
v 0.033350 -0.028757 0.049267
v 0.034605 -0.023441 0.036947
v 0.038153 -0.028481 0.032210
v 0.035866 -0.028402 0.044041
v 0.037141 -0.028238 0.026135
v 0.040255 -0.034916 0.028093
v 0.041720 -0.045129 0.035988
v 0.040623 -0.035081 0.033913
v 0.041437 -0.050294 0.033815
v 0.039913 -0.053380 0.040086
v 0.039644 -0.048873 0.044334
v 0.040649 -0.042865 0.042200
v 0.038100 -0.035555 0.045946
v 0.038185 -0.029705 0.039107
v 0.040399 -0.036107 0.039453
f 1 2 3
f 1 3 4
f 1 4 5
f 1 5 6
f 1 6 2
f 2 6 7
f 2 7 8
f 2 8 9
f 2 9 10
f 2 10 3
f 3 11 12
f 3 12 4
f 3 10 13
f 3 13 11
f 4 12 14
f 4 14 15
f 4 15 16
f 4 16 5
f 5 16 17
f 5 17 6
f 6 17 18
f 6 18 7
f 7 19 8
f 7 18 19
f 8 20 9
f 8 19 20
f 9 20 21
f 9 21 22
f 9 22 23
f 9 23 10
f 10 23 24
f 10 24 13
f 11 13 25
f 11 25 26
f 11 26 12
f 12 27 14
f 12 26 28
f 12 28 27
f 13 24 29
f 13 29 30
f 13 30 25
f 14 27 31
f 14 31 32
f 14 32 15
f 15 32 33
f 15 33 34
f 15 34 16
f 16 34 35
f 16 35 17
f 17 35 18
f 18 35 36
f 18 36 37
f 18 37 19
f 19 38 20
f 19 37 38
f 20 38 39
f 20 39 40
f 20 40 21
f 21 41 22
f 21 40 41
f 22 24 23
f 22 41 42
f 22 42 43
f 22 43 24
f 24 43 44
f 24 44 29
f 25 45 26
f 25 30 46
f 25 46 45
f 26 45 28
f 27 47 48
f 27 48 31
f 27 28 47
f 28 45 49
f 28 49 47
f 29 50 30
f 29 44 51
f 29 51 50
f 30 50 46
f 31 48 52
f 31 52 32
f 32 52 53
f 32 53 33
f 33 53 54
f 33 54 55
f 33 55 56
f 33 56 34
f 34 56 57
f 34 57 35
f 35 57 58
f 35 58 36
f 36 58 59
f 36 59 60
f 36 60 37
f 37 61 38
f 37 60 61
f 38 62 39
f 38 61 62
f 39 63 40
f 39 62 64
f 39 64 63
f 40 63 65
f 40 65 41
f 41 65 66
f 41 66 67
f 41 67 42
f 42 67 68
f 42 68 69
f 42 69 70
f 42 70 43
f 43 70 71
f 43 71 44
f 44 71 51
f 45 46 72
f 45 72 49
f 46 50 73
f 46 73 74
f 46 74 72
f 47 49 75
f 47 75 76
f 47 76 77
f 47 77 48
f 48 77 78
f 48 78 52
f 49 79 75
f 49 72 79
f 50 51 80
f 50 80 73
f 51 71 80
f 52 78 81
f 52 81 53
f 53 81 54
f 54 82 55
f 54 81 83
f 54 83 82
f 55 82 84
f 55 84 85
f 55 85 56
f 56 85 57
f 57 85 58
f 58 85 86
f 58 86 59
f 59 86 87
f 59 87 88
f 59 88 60
f 60 89 90
f 60 90 61
f 60 88 89
f 61 90 62
f 62 90 64
f 63 64 91
f 63 91 65
f 64 90 92
f 64 92 93
f 64 93 91
f 65 91 94
f 65 94 66
f 66 95 96
f 66 96 67
f 66 94 95
f 67 96 97
f 67 97 68
f 68 97 98
f 68 98 99
f 68 99 69
f 69 99 71
f 69 71 70
f 71 100 80
f 71 99 101
f 71 101 100
f 72 102 79
f 72 74 102
f 73 103 74
f 73 80 104
f 73 104 103
f 74 103 105
f 74 105 102
f 75 106 107
f 75 107 76
f 75 79 106
f 76 107 108
f 76 108 109
f 76 109 77
f 77 109 78
f 78 109 110
f 78 110 111
f 78 111 81
f 79 102 112
f 79 112 106
f 80 100 104
f 81 111 83
f 82 83 113
f 82 113 84
f 83 114 113
f 83 111 114
f 84 113 115
f 84 115 116
f 84 116 85
f 85 116 86
f 86 116 87
f 87 116 117
f 87 117 88
f 88 117 118
f 88 118 119
f 88 119 89
f 89 120 92
f 89 92 90
f 89 119 120
f 91 93 121
f 91 121 94
f 92 120 93
f 93 122 121
f 93 120 123
f 93 123 122
f 94 121 124
f 94 124 125
f 94 125 95
f 95 125 126
f 95 126 96
f 96 127 97
f 96 126 127
f 97 128 98
f 97 127 128
f 98 129 99
f 98 128 130
f 98 130 129
f 99 129 101
f 100 101 131
f 100 131 132
f 100 132 104
f 101 129 131
f 102 105 133
f 102 133 134
f 102 134 112
f 103 104 132
f 103 132 105
f 105 132 135
f 105 135 133
f 106 136 137
f 106 137 107
f 106 112 136
f 107 137 108
f 108 138 139
f 108 139 109
f 108 137 138
f 109 139 110
f 110 140 111
f 110 139 140
f 111 140 141
f 111 141 114
f 112 134 142
f 112 142 143
f 112 143 136
f 113 144 115
f 113 114 144
f 114 145 144
f 114 141 145
f 115 144 146
f 115 146 147
f 115 147 116
f 116 147 117
f 117 148 118
f 117 147 149
f 117 149 148
f 118 150 151
f 118 151 119
f 118 148 150
f 119 151 120
f 120 151 152
f 120 152 123
f 121 122 153
f 121 153 124
f 122 123 153
f 123 152 154
f 123 154 153
f 124 155 125
f 124 153 156
f 124 156 155
f 125 157 126
f 125 155 157
f 126 157 158
f 126 158 159
f 126 159 127
f 127 159 128
f 128 159 160
f 128 160 130
f 129 130 161
f 129 161 162
f 129 162 131
f 130 160 161
f 131 162 163
f 131 163 164
f 131 164 132
f 132 164 135
f 133 165 134
f 133 135 166
f 133 166 165
f 134 165 142
f 135 167 166
f 135 164 167
f 136 143 168
f 136 168 169
f 136 169 137
f 137 169 138
f 138 170 139
f 138 169 170
f 139 170 140
f 140 171 141
f 140 170 171
f 141 171 145
f 142 165 172
f 142 172 143
f 143 172 173
f 143 173 168
f 144 145 174
f 144 174 175
f 144 175 146
f 145 171 176
f 145 176 174
f 146 175 177
f 146 177 149
f 146 149 147
f 148 149 178
f 148 178 150
f 149 177 179
f 149 179 178
f 150 178 180
f 150 180 152
f 150 152 151
f 152 180 154
f 153 154 181
f 153 181 156
f 154 182 181
f 154 180 182
f 155 156 183
f 155 183 184
f 155 184 157
f 156 181 183
f 157 184 185
f 157 185 158
f 158 186 159
f 158 185 187
f 158 187 186
f 159 186 160
f 160 186 188
f 160 188 161
f 161 188 189
f 161 189 162
f 162 189 190
f 162 190 191
f 162 191 163
f 163 191 167
f 163 167 164
f 165 192 172
f 165 166 192
f 166 167 193
f 166 193 192
f 167 194 193
f 167 191 194
f 168 173 195
f 168 195 196
f 168 196 197
f 168 197 169
f 169 197 170
f 170 198 171
f 170 197 198
f 171 198 176
f 172 192 199
f 172 199 173
f 173 199 200
f 173 200 195
f 174 176 201
f 174 201 202
f 174 202 175
f 175 202 177
f 176 198 203
f 176 203 201
f 177 202 204
f 177 204 179
f 178 205 180
f 178 179 205
f 179 204 206
f 179 206 205
f 180 207 182
f 180 205 208
f 180 208 207
f 181 182 209
f 181 209 183
f 182 207 209
f 183 210 211
f 183 211 184
f 183 209 212
f 183 212 210
f 184 211 185
f 185 211 213
f 185 213 187
f 186 187 214
f 186 214 188
f 187 213 215
f 187 215 214
f 188 214 216
f 188 216 189
f 189 216 190
f 190 216 217
f 190 217 218
f 190 218 194
f 190 194 191
f 192 193 219
f 192 219 199
f 193 218 219
f 193 194 218
f 195 220 221
f 195 221 196
f 195 200 220
f 196 222 223
f 196 223 197
f 196 221 222
f 197 223 198
f 198 223 203
f 199 219 224
f 199 224 200
f 200 225 220
f 200 224 225
f 201 203 226
f 201 226 202
f 202 226 227
f 202 227 204
f 203 223 228
f 203 228 226
f 204 227 229
f 204 229 206
f 205 206 208
f 206 229 230
f 206 230 208
f 207 208 230
f 207 230 209
f 209 230 231
f 209 231 212
f 210 212 232
f 210 232 213
f 210 213 211
f 212 231 233
f 212 233 232
f 213 234 215
f 213 232 235
f 213 235 234
f 214 215 236
f 214 236 216
f 215 234 237
f 215 237 236
f 216 236 217
f 217 236 238
f 217 238 239
f 217 239 218
f 218 239 219
f 219 239 224
f 220 225 240
f 220 240 241
f 220 241 221
f 221 241 222
f 222 228 223
f 222 241 242
f 222 242 228
f 224 239 225
f 225 239 240
f 226 228 243
f 226 243 227
f 227 243 244
f 227 244 229
f 228 242 245
f 228 245 243
f 229 244 246
f 229 246 230
f 230 246 231
f 231 246 247
f 231 247 233
f 232 233 235
f 233 248 235
f 233 247 249
f 233 249 248
f 234 235 250
f 234 250 237
f 235 248 250
f 236 237 238
f 237 250 251
f 237 251 238
f 238 251 252
f 238 252 239
f 239 252 240
f 240 253 254
f 240 254 241
f 240 252 253
f 241 254 242
f 242 254 245
f 243 245 255
f 243 255 244
f 244 255 249
f 244 249 247
f 244 247 246
f 245 254 255
f 248 249 256
f 248 256 253
f 248 253 252
f 248 252 251
f 248 251 250
f 249 255 256
f 253 256 254
f 254 256 255
