v -0.009346 -0.053363 0.036657
v -0.008891 -0.053363 0.056637
v -0.012035 -0.053363 0.036865
v -0.012310 -0.052178 0.007711
v -0.009443 -0.052015 0.007946
v -0.004372 -0.053115 0.059205
v -0.011619 -0.053363 0.056637
v -0.005197 -0.053115 0.060346
v -0.006098 -0.053108 0.060779
v -0.007185 -0.053115 0.060851
v -0.011713 -0.053363 0.053683
v -0.014061 -0.049433 0.018631
v -0.012538 -0.052178 0.017079
v -0.012442 -0.052178 0.011249
v -0.014053 -0.049410 0.018016
v -0.014108 -0.048941 0.016094
v -0.014060 -0.048509 0.014161
v -0.014619 -0.043806 0.007998
v -0.013576 -0.046686 0.007711
v -0.008984 -0.050005 0.007711
v -0.009197 -0.051083 0.007909
v -0.004061 -0.052469 0.057991
v -0.004205 -0.053005 0.058038
v -0.004146 -0.052561 0.058934
v -0.004093 -0.051943 0.059398
v -0.004770 -0.053108 0.059924
v -0.015601 -0.030174 0.056652
v -0.015600 -0.030919 0.056402
v -0.014421 -0.048164 0.019866
v -0.011665 -0.053363 0.055423
v -0.013363 -0.031946 0.059768
v -0.013926 -0.031946 0.059137
v -0.004749 -0.052089 0.060221
v -0.004629 -0.051236 0.060315
v -0.005315 -0.050817 0.060747
v -0.005528 -0.050008 0.060836
v -0.005748 -0.048780 0.060888
v -0.006363 -0.050008 0.060883
v -0.010052 -0.031946 0.060924
v -0.010668 -0.031946 0.060878
v -0.011311 -0.031946 0.060763
v -0.011892 -0.031946 0.060586
v -0.012679 -0.031946 0.060242
v -0.011687 -0.053363 0.054777
v -0.014294 -0.048777 0.018631
v -0.014203 -0.049017 0.019251
v -0.014273 -0.048777 0.018016
v -0.014200 -0.048777 0.016787
v -0.014311 -0.048164 0.016172
v -0.014160 -0.048399 0.014937
v -0.014663 -0.043236 0.007998
v -0.014434 -0.047549 0.016172
v -0.014462 -0.047549 0.016787
v -0.014519 -0.047549 0.019251
v -0.014954 -0.034775 0.007993
v -0.014741 -0.029145 0.008040
v -0.014224 -0.029786 0.007993
v -0.012171 -0.032513 0.007998
v -0.008908 -0.040693 0.008045
v -0.008503 -0.043538 0.007998
v -0.008458 -0.044337 0.007998
v -0.008457 -0.045340 0.007998
v -0.008475 -0.046203 0.007998
v -0.008631 -0.048164 0.007946
v -0.008705 -0.048777 0.007946
v -0.008822 -0.049392 0.007946
v -0.008914 -0.050005 0.008175
v -0.003913 -0.051854 0.057991
v -0.003906 -0.051854 0.058606
v -0.003875 -0.051236 0.059221
v -0.003759 -0.050623 0.059221
v -0.004200 -0.051236 0.059872
v -0.015601 -0.027278 0.056652
v -0.015601 -0.030976 0.055506
v -0.014569 -0.046931 0.019866
v -0.014519 -0.047549 0.019866
v -0.014496 -0.047549 0.020475
v -0.014440 -0.048164 0.019251
v -0.004559 -0.050623 0.060362
v -0.005001 -0.050008 0.060695
v -0.004127 -0.050536 0.059961
v -0.004964 -0.047549 0.060799
v -0.005503 -0.049392 0.060846
v -0.005748 -0.043244 0.060893
v -0.006977 -0.038329 0.060919
v -0.008211 -0.035252 0.060935
v -0.005134 -0.043244 0.060841
v -0.009437 -0.032061 0.060924
v -0.008824 -0.032061 0.060888
v -0.014428 -0.048164 0.018631
v -0.014378 -0.048164 0.017402
v -0.014352 -0.048164 0.016787
v -0.014566 -0.046931 0.019251
v -0.015601 -0.031466 0.036657
v -0.014954 -0.037775 0.011765
v -0.014954 -0.037479 0.011160
v -0.014954 -0.037101 0.010634
v -0.015601 -0.027695 0.036657
v -0.014954 -0.028869 0.008680
v -0.006397 -0.032005 0.058226
v -0.013158 -0.031157 0.008107
v -0.011601 -0.033432 0.008086
v -0.011308 -0.033968 0.008086
v -0.010965 -0.034637 0.008086
v -0.010423 -0.035834 0.008066
v -0.009481 -0.038296 0.008086
v -0.009310 -0.038944 0.008086
v -0.009036 -0.040076 0.008071
v -0.003393 -0.040783 0.057991
v -0.008773 -0.041393 0.008086
v -0.008674 -0.042011 0.008086
v -0.008594 -0.042629 0.008086
v -0.003125 -0.042631 0.057991
v -0.003088 -0.043244 0.057991
v -0.003074 -0.043859 0.057991
v -0.003078 -0.044472 0.057991
v -0.008517 -0.046783 0.007998
v -0.003098 -0.045090 0.057991
v -0.003134 -0.045703 0.057991
v -0.008505 -0.047383 0.008425
v -0.003315 -0.048164 0.057991
v -0.003383 -0.048780 0.057991
v -0.003469 -0.049392 0.057991
v -0.003623 -0.050342 0.057991
v -0.003785 -0.051236 0.057991
v -0.003775 -0.051236 0.058606
v -0.003606 -0.049653 0.059169
v -0.003571 -0.048744 0.059466
v -0.003617 -0.050337 0.058585
v -0.003472 -0.049392 0.058606
v -0.008143 -0.032043 0.060752
v -0.007418 -0.032073 0.060362
v -0.006743 -0.032102 0.059669
v -0.015601 -0.030999 0.054912
v -0.015601 -0.031239 0.048145
v -0.004324 -0.049957 0.060258
v -0.003994 -0.046934 0.060320
v -0.004519 -0.049392 0.060456
v -0.004688 -0.048090 0.060685
v -0.003584 -0.046934 0.059882
v -0.004492 -0.046934 0.060627
v -0.004492 -0.044472 0.060653
v -0.004961 -0.042631 0.060810
v -0.005748 -0.041403 0.060888
v -0.006131 -0.038329 0.060851
v -0.007592 -0.035868 0.060914
v -0.008824 -0.032791 0.060919
v -0.008208 -0.033409 0.060893
v -0.007704 -0.033409 0.060815
v -0.014954 -0.028831 0.009764
v -0.005749 -0.033409 0.057991
v -0.006020 -0.032717 0.058606
v -0.010677 -0.035252 0.008086
v -0.005462 -0.034068 0.057991
v -0.010147 -0.036478 0.008086
v -0.009845 -0.037257 0.008092
v -0.004580 -0.036483 0.057991
v -0.004372 -0.037098 0.057991
v -0.004195 -0.037655 0.057991
v -0.003891 -0.038684 0.057991
v -0.003592 -0.039736 0.058372
v -0.003394 -0.040783 0.058606
v -0.003287 -0.041403 0.057991
v -0.003197 -0.042016 0.057991
v -0.003114 -0.042631 0.058606
v -0.003057 -0.043244 0.058606
v -0.003039 -0.043859 0.058606
v -0.003054 -0.044472 0.058606
v -0.003103 -0.045448 0.058606
v -0.003207 -0.046934 0.058606
v -0.003265 -0.047549 0.057991
v -0.003256 -0.047549 0.058606
v -0.003317 -0.048164 0.058606
v -0.003387 -0.048780 0.058606
v -0.003425 -0.048164 0.059221
v -0.003349 -0.047549 0.059221
v -0.003282 -0.046934 0.059221
v -0.007182 -0.033792 0.060695
v -0.006880 -0.033074 0.060330
v -0.006626 -0.032740 0.059950
v -0.006048 -0.033360 0.059549
v -0.006080 -0.032875 0.059163
v -0.003967 -0.046318 0.060330
v -0.004487 -0.047549 0.060601
v -0.003557 -0.046318 0.059919
v -0.003234 -0.046318 0.059221
v -0.003965 -0.045703 0.060341
v -0.003960 -0.045090 0.060346
v -0.003951 -0.044472 0.060341
v -0.004482 -0.043859 0.060643
v -0.005044 -0.041689 0.060805
v -0.004479 -0.043244 0.060622
v -0.006977 -0.035868 0.060857
v -0.007592 -0.034903 0.060888
v -0.006160 -0.037714 0.060831
v -0.007191 -0.034410 0.060794
v -0.005701 -0.033409 0.058606
v -0.005245 -0.034634 0.057991
v -0.005205 -0.034634 0.058606
v -0.004812 -0.035824 0.057991
v -0.004882 -0.035508 0.058606
v -0.004544 -0.036483 0.058606
v -0.004352 -0.037098 0.058606
v -0.003870 -0.038727 0.058606
v -0.003563 -0.040150 0.058872
v -0.003296 -0.041403 0.058606
v -0.003200 -0.042016 0.058606
v -0.003276 -0.042631 0.059221
v -0.003204 -0.043244 0.059221
v -0.003173 -0.043859 0.059221
v -0.003170 -0.044472 0.059221
v -0.003184 -0.045090 0.059221
v -0.003205 -0.045703 0.059221
v -0.005995 -0.037009 0.060726
v -0.006290 -0.035868 0.060664
v -0.006364 -0.034634 0.060435
v -0.005876 -0.035252 0.060289
v -0.006168 -0.034101 0.060133
v -0.005378 -0.035043 0.059622
v -0.005498 -0.034466 0.059403
v -0.005428 -0.034139 0.058799
v -0.003443 -0.045499 0.059773
v -0.003542 -0.044472 0.059935
v -0.003955 -0.043859 0.060330
v -0.003550 -0.043859 0.059929
v -0.004496 -0.042016 0.060565
v -0.004580 -0.041449 0.060560
v -0.005649 -0.037714 0.060664
v -0.003976 -0.043244 0.060315
v -0.006478 -0.036483 0.060810
v -0.004832 -0.035924 0.059174
v -0.004177 -0.037903 0.059049
v -0.003945 -0.038944 0.059221
v -0.003809 -0.039557 0.059221
v -0.003469 -0.042016 0.059408
v -0.003604 -0.042631 0.059851
v -0.003569 -0.043244 0.059908
v -0.005565 -0.036386 0.060346
v -0.005261 -0.037098 0.060304
v -0.005526 -0.035467 0.060039
v -0.004766 -0.036478 0.059486
v -0.004016 -0.042631 0.060289
v -0.004615 -0.039557 0.060310
v -0.004909 -0.038944 0.060403
v -0.004073 -0.042016 0.060258
v -0.004131 -0.041403 0.060221
v -0.004363 -0.040617 0.060284
v -0.005134 -0.038329 0.060445
v -0.004471 -0.037098 0.059221
v -0.004302 -0.038334 0.059632
v -0.004256 -0.038944 0.059799
v -0.004192 -0.039557 0.059888
v -0.004759 -0.038418 0.060205
v -0.004881 -0.037596 0.060086
v -0.004824 -0.037098 0.059846
f 1 2 7
f 1 7 30
f 1 30 44
f 1 44 11
f 1 11 3
f 1 3 4
f 1 4 5
f 1 5 6
f 1 6 2
f 2 6 8
f 2 8 9
f 2 9 10
f 2 10 7
f 3 11 12
f 3 12 13
f 3 13 14
f 3 14 4
f 4 14 15
f 4 15 16
f 4 16 17
f 4 17 18
f 4 18 19
f 4 19 20
f 4 20 5
f 5 20 21
f 5 21 22
f 5 22 23
f 5 23 6
f 6 24 25
f 6 25 26
f 6 26 8
f 6 23 24
f 7 27 28
f 7 28 29
f 7 29 30
f 7 10 31
f 7 31 32
f 7 32 27
f 8 26 33
f 8 33 34
f 8 34 35
f 8 35 9
f 9 35 36
f 9 36 10
f 10 36 37
f 10 37 38
f 10 38 39
f 10 39 40
f 10 40 41
f 10 41 42
f 10 42 43
f 10 43 31
f 11 44 12
f 12 45 15
f 12 15 14
f 12 14 13
f 12 44 46
f 12 46 45
f 15 45 47
f 15 47 16
f 16 47 48
f 16 48 49
f 16 49 50
f 16 50 17
f 17 50 18
f 18 51 19
f 18 50 49
f 18 49 52
f 18 52 53
f 18 53 54
f 18 54 51
f 19 51 55
f 19 55 56
f 19 56 57
f 19 57 20
f 20 57 58
f 20 58 59
f 20 59 60
f 20 60 61
f 20 61 62
f 20 62 63
f 20 63 64
f 20 64 65
f 20 65 66
f 20 66 67
f 20 67 21
f 21 67 68
f 21 68 22
f 22 68 69
f 22 69 23
f 23 69 24
f 24 70 25
f 24 69 70
f 25 70 71
f 25 71 72
f 25 72 26
f 26 72 33
f 27 73 98
f 27 98 94
f 27 94 135
f 27 135 134
f 27 134 74
f 27 74 28
f 27 32 73
f 28 74 75
f 28 75 76
f 28 76 77
f 28 77 29
f 29 76 78
f 29 78 45
f 29 45 30
f 29 77 76
f 30 45 46
f 30 46 44
f 31 43 73
f 31 73 32
f 33 72 34
f 34 79 80
f 34 80 35
f 34 72 81
f 34 81 79
f 35 82 36
f 35 80 82
f 36 83 37
f 36 82 83
f 37 84 85
f 37 85 86
f 37 86 38
f 37 83 82
f 37 82 87
f 37 87 84
f 38 86 39
f 39 73 40
f 39 86 88
f 39 88 89
f 39 89 73
f 40 73 41
f 41 73 42
f 42 73 43
f 45 78 90
f 45 90 47
f 47 90 91
f 47 91 92
f 47 92 48
f 48 92 49
f 49 92 52
f 51 54 93
f 51 93 94
f 51 94 95
f 51 95 96
f 51 96 97
f 51 97 55
f 52 92 53
f 53 92 91
f 53 91 90
f 53 90 54
f 54 90 78
f 54 78 76
f 54 76 75
f 54 75 93
f 55 97 94
f 55 94 98
f 55 98 99
f 55 99 56
f 56 99 100
f 56 100 57
f 57 101 58
f 57 100 101
f 58 102 103
f 58 103 104
f 58 104 105
f 58 105 59
f 58 101 100
f 58 100 102
f 59 105 106
f 59 106 107
f 59 107 108
f 59 108 109
f 59 109 110
f 59 110 111
f 59 111 60
f 60 111 112
f 60 112 113
f 60 113 114
f 60 114 61
f 61 114 115
f 61 115 62
f 62 115 116
f 62 116 63
f 63 117 64
f 63 116 118
f 63 118 119
f 63 119 120
f 63 120 117
f 64 117 120
f 64 120 121
f 64 121 122
f 64 122 65
f 65 122 123
f 65 123 124
f 65 124 125
f 65 125 66
f 66 125 67
f 67 125 68
f 68 125 126
f 68 126 69
f 69 126 70
f 70 126 71
f 71 127 128
f 71 128 81
f 71 81 72
f 71 126 129
f 71 129 130
f 71 130 127
f 73 100 98
f 73 89 131
f 73 131 132
f 73 132 133
f 73 133 100
f 74 134 75
f 75 134 135
f 75 135 94
f 75 94 93
f 79 81 136
f 79 136 137
f 79 137 138
f 79 138 80
f 80 138 139
f 80 139 82
f 81 128 140
f 81 140 136
f 82 139 141
f 82 141 142
f 82 142 143
f 82 143 87
f 84 87 144
f 84 144 85
f 85 144 145
f 85 145 146
f 85 146 86
f 86 146 147
f 86 147 88
f 87 143 144
f 88 147 89
f 89 147 148
f 89 148 149
f 89 149 131
f 94 97 96
f 94 96 95
f 98 100 150
f 98 150 99
f 99 150 100
f 100 151 104
f 100 104 103
f 100 103 102
f 100 133 152
f 100 152 151
f 104 153 105
f 104 151 153
f 105 153 151
f 105 151 154
f 105 154 155
f 105 155 156
f 105 156 106
f 106 156 157
f 106 157 158
f 106 158 159
f 106 159 160
f 106 160 107
f 107 160 161
f 107 161 108
f 108 161 109
f 109 161 162
f 109 162 163
f 109 163 110
f 110 163 111
f 111 163 164
f 111 164 112
f 112 164 113
f 113 164 165
f 113 165 166
f 113 166 114
f 114 166 167
f 114 167 115
f 115 167 116
f 116 167 168
f 116 168 118
f 118 168 169
f 118 169 119
f 119 169 170
f 119 170 171
f 119 171 120
f 120 171 121
f 121 171 172
f 121 172 173
f 121 173 122
f 122 173 174
f 122 174 130
f 122 130 123
f 123 130 129
f 123 129 124
f 124 129 126
f 124 126 125
f 127 175 128
f 127 130 174
f 127 174 175
f 128 175 176
f 128 176 177
f 128 177 140
f 131 149 178
f 131 178 132
f 132 178 179
f 132 179 180
f 132 180 133
f 133 180 181
f 133 181 182
f 133 182 152
f 136 140 137
f 137 183 184
f 137 184 138
f 137 140 185
f 137 185 183
f 138 184 139
f 139 184 141
f 140 177 186
f 140 186 185
f 141 184 183
f 141 183 187
f 141 187 188
f 141 188 142
f 142 188 189
f 142 189 190
f 142 190 143
f 143 191 144
f 143 190 192
f 143 192 191
f 144 191 145
f 145 193 194
f 145 194 146
f 145 191 195
f 145 195 193
f 146 148 147
f 146 194 148
f 148 194 193
f 148 193 149
f 149 196 178
f 149 193 196
f 151 152 197
f 151 197 154
f 152 182 197
f 154 198 156
f 154 156 155
f 154 197 199
f 154 199 198
f 156 198 200
f 156 200 157
f 157 200 201
f 157 201 202
f 157 202 158
f 158 202 159
f 159 202 203
f 159 203 204
f 159 204 160
f 160 204 161
f 161 204 205
f 161 205 162
f 162 206 163
f 162 205 206
f 163 206 207
f 163 207 164
f 164 207 165
f 165 207 208
f 165 208 209
f 165 209 166
f 166 209 210
f 166 210 167
f 167 210 211
f 167 211 212
f 167 212 168
f 168 212 213
f 168 213 186
f 168 186 169
f 169 186 170
f 170 186 177
f 170 177 172
f 170 172 171
f 172 177 173
f 173 177 176
f 173 176 174
f 174 176 175
f 178 214 215
f 178 215 216
f 178 216 179
f 178 196 214
f 179 216 217
f 179 217 218
f 179 218 180
f 180 218 181
f 181 218 219
f 181 219 220
f 181 220 182
f 182 220 221
f 182 221 197
f 183 185 187
f 185 186 222
f 185 222 223
f 185 223 188
f 185 188 187
f 186 213 222
f 188 223 189
f 189 224 190
f 189 223 225
f 189 225 224
f 190 224 192
f 191 192 226
f 191 226 227
f 191 227 228
f 191 228 214
f 191 214 195
f 192 224 229
f 192 229 226
f 193 195 230
f 193 230 196
f 195 214 230
f 196 230 214
f 197 221 199
f 198 199 201
f 198 201 200
f 199 221 231
f 199 231 201
f 201 231 202
f 202 231 232
f 202 232 203
f 203 232 204
f 204 232 233
f 204 233 205
f 205 233 234
f 205 234 208
f 205 208 207
f 205 207 206
f 208 234 235
f 208 235 236
f 208 236 209
f 209 236 237
f 209 237 210
f 210 237 225
f 210 225 223
f 210 223 222
f 210 222 211
f 211 222 212
f 212 222 213
f 214 228 238
f 214 238 215
f 215 238 217
f 215 217 216
f 217 239 240
f 217 240 218
f 217 238 239
f 218 240 219
f 219 240 241
f 219 241 231
f 219 231 220
f 220 231 221
f 224 225 229
f 225 237 229
f 226 229 242
f 226 242 227
f 227 243 244
f 227 244 228
f 227 242 245
f 227 245 246
f 227 246 247
f 227 247 243
f 228 244 248
f 228 248 239
f 228 239 238
f 229 237 242
f 231 241 249
f 231 249 232
f 232 249 233
f 233 249 250
f 233 250 234
f 234 250 251
f 234 251 252
f 234 252 236
f 234 236 235
f 236 252 246
f 236 246 245
f 236 245 237
f 237 245 242
f 239 253 254
f 239 254 240
f 239 248 253
f 240 254 255
f 240 255 241
f 241 255 250
f 241 250 249
f 243 247 246
f 243 246 252
f 243 252 253
f 243 253 244
f 244 253 248
f 250 255 251
f 251 255 254
f 251 254 253
f 251 253 252
