v -0.047741 -0.063466 0.036659
v -0.045985 -0.061760 0.036659
v -0.046496 -0.061760 0.052454
v -0.046500 -0.061760 0.052576
v -0.046519 -0.061760 0.053069
v -0.046610 -0.061760 0.054913
v -0.046646 -0.061760 0.055533
v -0.046709 -0.061760 0.056147
v -0.046767 -0.061760 0.056626
v -0.050202 -0.061760 0.056626
v -0.047741 -0.063204 0.018011
v -0.053591 -0.045349 0.036659
v -0.053871 -0.045349 0.054913
v -0.053888 -0.045349 0.055533
v -0.047741 -0.063044 0.010555
v -0.047741 -0.063030 0.010015
v -0.047741 -0.062998 0.009279
v -0.047741 -0.062973 0.008786
v -0.047741 -0.062972 0.008763
v -0.047741 -0.062964 0.008687
v -0.047741 -0.060004 0.008687
v -0.047741 -0.059793 0.010015
v -0.047741 -0.059775 0.010184
v -0.047741 -0.059736 0.010649
v -0.053373 -0.046691 0.009992
v -0.053213 -0.046691 0.015304
v -0.053900 -0.045349 0.055786
v -0.053942 -0.045349 0.056626
v -0.050443 -0.061496 0.056626
v -0.050196 -0.060616 0.009401
v -0.049889 -0.060941 0.009401
v -0.049287 -0.061572 0.009401
v -0.048992 -0.061879 0.009401
v -0.048685 -0.062179 0.009401
v -0.048361 -0.062493 0.010015
v -0.047798 -0.063156 0.018011
v -0.056096 -0.045349 0.036659
v -0.053403 -0.046691 0.009513
v -0.053461 -0.046691 0.008687
v -0.048053 -0.062768 0.010015
v -0.048040 -0.062755 0.009401
v -0.048020 -0.062737 0.008786
v -0.048015 -0.062736 0.008687
v -0.056380 -0.045349 0.056626
v -0.050750 -0.061155 0.056626
v -0.050471 -0.060307 0.009401
v -0.050459 -0.060297 0.008786
v -0.050184 -0.060604 0.008786
v -0.049280 -0.061563 0.008786
v -0.050812 -0.061086 0.056626
v -0.051024 -0.060848 0.056626
v -0.048978 -0.061872 0.008786
v -0.048670 -0.062159 0.008786
v -0.048347 -0.062486 0.009401
v -0.055632 -0.046691 0.008687
v -0.055636 -0.046691 0.008786
v -0.056111 -0.045349 0.037077
v -0.048328 -0.062468 0.008786
v -0.048276 -0.062505 0.008687
v -0.056121 -0.045349 0.037692
v -0.056123 -0.045707 0.037692
v -0.056374 -0.045707 0.056626
v -0.050778 -0.059896 0.009401
v -0.050767 -0.059871 0.008786
v -0.050456 -0.060293 0.008687
v -0.050224 -0.060552 0.008687
v -0.050180 -0.060600 0.008687
v -0.049276 -0.061560 0.008687
v -0.051258 -0.060529 0.056626
v -0.049020 -0.061820 0.008687
v -0.048973 -0.061866 0.008687
v -0.048666 -0.062156 0.008687
v -0.055620 -0.046938 0.008687
v -0.055624 -0.046938 0.008786
v -0.055645 -0.046938 0.009401
v -0.055655 -0.046691 0.009401
v -0.055671 -0.046691 0.010015
v -0.055685 -0.046691 0.010630
v -0.055868 -0.046691 0.020728
v -0.056100 -0.046323 0.037077
v -0.056371 -0.045845 0.056626
v -0.050998 -0.059600 0.010015
v -0.050990 -0.059587 0.009401
v -0.051334 -0.060424 0.056626
v -0.052292 -0.059073 0.056626
v -0.050974 -0.059564 0.008786
v -0.050824 -0.059777 0.008687
v -0.050769 -0.059857 0.008687
v -0.050716 -0.059933 0.008687
v -0.055614 -0.047032 0.008687
v -0.055622 -0.047554 0.010015
v -0.055664 -0.046938 0.010015
v -0.055678 -0.046938 0.010630
v -0.055638 -0.047554 0.010630
v -0.055649 -0.047554 0.011245
v -0.055986 -0.047554 0.035233
v -0.056218 -0.048169 0.056626
v -0.056048 -0.046938 0.035843
v -0.056057 -0.046938 0.036462
v -0.056071 -0.046743 0.036659
v -0.056341 -0.046463 0.056626
v -0.056348 -0.046323 0.056626
v -0.051560 -0.058906 0.014323
v -0.051553 -0.058895 0.013704
v -0.051223 -0.059238 0.009401
v -0.052586 -0.058624 0.056626
v -0.051486 -0.058792 0.008786
v -0.051179 -0.059247 0.008687
v -0.050971 -0.059559 0.008687
v -0.055575 -0.047554 0.008687
v -0.055601 -0.047554 0.009401
v -0.055565 -0.047648 0.008687
v -0.055508 -0.048169 0.008786
v -0.055525 -0.048169 0.009401
v -0.055568 -0.048169 0.011245
v -0.055577 -0.048169 0.011860
v -0.056146 -0.048785 0.056626
v -0.056267 -0.047554 0.056626
v -0.056309 -0.046938 0.056626
v -0.051748 -0.058588 0.013704
v -0.051698 -0.058507 0.009401
v -0.051502 -0.058814 0.009401
v -0.052793 -0.058294 0.056626
v -0.051686 -0.058484 0.008786
v -0.051683 -0.058480 0.008687
v -0.051514 -0.058741 0.008687
v -0.051482 -0.058789 0.008687
v -0.055504 -0.048169 0.008687
v -0.055492 -0.048263 0.008687
v -0.055492 -0.048783 0.011860
v -0.055417 -0.048783 0.008687
v -0.055503 -0.048783 0.012474
v -0.056056 -0.049398 0.056626
v -0.052234 -0.057771 0.012474
v -0.052228 -0.057758 0.011860
v -0.052206 -0.057726 0.010015
v -0.052416 -0.057393 0.010015
v -0.052198 -0.057710 0.009401
v -0.052192 -0.057703 0.009058
v -0.052224 -0.057631 0.008687
v -0.052146 -0.057755 0.008687
v -0.052979 -0.057987 0.056626
v -0.052430 -0.057393 0.010630
v -0.055323 -0.049405 0.008687
v -0.055398 -0.049398 0.011860
v -0.055409 -0.049398 0.012474
v -0.055955 -0.050023 0.056626
v -0.052716 -0.056918 0.010630
v -0.052708 -0.056900 0.010015
v -0.052395 -0.057393 0.009401
v -0.052346 -0.057432 0.008687
v -0.053217 -0.057574 0.056626
v -0.055271 -0.049735 0.008687
v -0.055273 -0.049741 0.008786
v -0.055245 -0.050182 0.010630
v -0.055891 -0.050370 0.056626
v -0.055248 -0.050216 0.011245
v -0.052877 -0.056609 0.010630
v -0.053288 -0.057450 0.056626
v -0.053448 -0.057143 0.056626
v -0.052867 -0.056593 0.010015
v -0.052696 -0.056880 0.009401
v -0.052637 -0.056935 0.008687
v -0.055228 -0.049964 0.008687
v -0.055227 -0.050092 0.009401
v -0.055237 -0.050138 0.010015
v -0.055118 -0.050629 0.009401
v -0.055135 -0.050629 0.010015
v -0.055147 -0.050629 0.010630
v -0.055828 -0.050672 0.056626
v -0.055703 -0.051245 0.056626
v -0.053092 -0.056162 0.010630
v -0.053077 -0.056162 0.010015
v -0.053953 -0.056173 0.056626
v -0.054076 -0.055933 0.056626
v -0.053306 -0.055619 0.008786
v -0.053034 -0.056162 0.008687
v -0.052856 -0.056572 0.009401
v -0.052684 -0.056854 0.008687
v -0.055091 -0.050629 0.008687
v -0.055095 -0.050629 0.008786
v -0.055068 -0.050725 0.008687
v -0.054940 -0.051245 0.008687
v -0.054943 -0.051245 0.008786
v -0.054960 -0.051245 0.009401
v -0.054971 -0.051245 0.010015
v -0.055010 -0.051245 0.012474
v -0.055556 -0.051859 0.056626
v -0.053484 -0.055371 0.011245
v -0.053329 -0.055665 0.010630
v -0.053456 -0.055310 0.008786
v -0.054221 -0.055628 0.056626
v -0.053454 -0.055309 0.008687
v -0.053327 -0.055568 0.008687
v -0.053261 -0.055702 0.008687
v -0.052843 -0.056547 0.008687
v -0.054738 -0.051944 0.008687
v -0.054766 -0.051859 0.008786
v -0.054672 -0.052238 0.009401
v -0.055518 -0.051990 0.056626
v -0.053689 -0.054934 0.011245
v -0.053627 -0.054934 0.008687
v -0.053659 -0.054934 0.010015
v -0.054256 -0.055546 0.056626
v -0.053933 -0.054376 0.011245
v -0.054661 -0.052201 0.008687
v -0.054663 -0.052208 0.008786
v -0.054582 -0.052545 0.009401
v -0.055361 -0.052518 0.056626
v -0.053926 -0.054360 0.010630
v -0.053896 -0.054319 0.008786
v -0.053852 -0.054413 0.008687
v -0.054471 -0.055037 0.056626
v -0.054058 -0.054069 0.011245
v -0.054053 -0.054053 0.010630
v -0.054532 -0.054890 0.056621
v -0.054590 -0.052430 0.008687
v -0.054567 -0.052515 0.008786
v -0.054403 -0.053090 0.009401
v -0.054413 -0.053090 0.010015
v -0.054979 -0.053702 0.056626
v -0.054035 -0.054008 0.009152
v -0.054006 -0.054048 0.008687
v -0.053892 -0.054319 0.008687
v -0.054530 -0.054894 0.056626
v -0.054192 -0.053705 0.010630
v -0.054180 -0.053705 0.010015
v -0.054141 -0.053764 0.009373
v -0.054749 -0.054337 0.056626
v -0.054366 -0.053090 0.008687
v -0.054373 -0.053090 0.008786
v -0.054337 -0.053177 0.008687
v -0.054151 -0.053689 0.008786
v -0.054148 -0.053682 0.008687
f 1 2 3
f 1 3 4
f 1 4 5
f 1 5 6
f 1 6 7
f 1 7 8
f 1 8 9
f 1 9 10
f 1 10 11
f 1 11 2
f 2 12 13
f 2 13 14
f 2 14 3
f 2 11 15
f 2 15 16
f 2 16 17
f 2 17 18
f 2 18 19
f 2 19 20
f 2 20 21
f 2 21 22
f 2 22 23
f 2 23 24
f 2 24 25
f 2 25 26
f 2 26 12
f 3 14 4
f 4 14 5
f 5 14 27
f 5 27 6
f 6 27 28
f 6 28 7
f 7 28 8
f 8 28 9
f 9 28 44
f 9 44 62
f 9 62 81
f 9 81 102
f 9 102 101
f 9 101 119
f 9 119 118
f 9 118 97
f 9 97 117
f 9 117 133
f 9 133 147
f 9 147 156
f 9 156 170
f 9 170 171
f 9 171 188
f 9 188 200
f 9 200 209
f 9 209 221
f 9 221 229
f 9 229 225
f 9 225 213
f 9 213 204
f 9 204 192
f 9 192 175
f 9 175 174
f 9 174 160
f 9 160 159
f 9 159 152
f 9 152 142
f 9 142 123
f 9 123 106
f 9 106 85
f 9 85 84
f 9 84 69
f 9 69 51
f 9 51 50
f 9 50 45
f 9 45 29
f 9 29 10
f 10 29 30
f 10 30 31
f 10 31 32
f 10 32 33
f 10 33 34
f 10 34 35
f 10 35 36
f 10 36 11
f 11 36 15
f 12 37 57
f 12 57 60
f 12 60 44
f 12 44 28
f 12 28 27
f 12 27 14
f 12 14 13
f 12 26 25
f 12 25 38
f 12 38 39
f 12 39 55
f 12 55 37
f 15 40 16
f 15 36 40
f 16 40 41
f 16 41 17
f 17 41 18
f 18 42 43
f 18 43 19
f 18 41 42
f 19 43 20
f 20 43 59
f 20 59 72
f 20 72 71
f 20 71 70
f 20 70 68
f 20 68 67
f 20 67 66
f 20 66 65
f 20 65 89
f 20 89 88
f 20 88 87
f 20 87 109
f 20 109 108
f 20 108 127
f 20 127 126
f 20 126 125
f 20 125 141
f 20 141 140
f 20 140 151
f 20 151 163
f 20 163 179
f 20 179 196
f 20 196 177
f 20 177 195
f 20 195 194
f 20 194 193
f 20 193 202
f 20 202 212
f 20 212 224
f 20 224 223
f 20 223 234
f 20 234 232
f 20 232 230
f 20 230 217
f 20 217 206
f 20 206 197
f 20 197 183
f 20 183 182
f 20 182 180
f 20 180 164
f 20 164 153
f 20 153 144
f 20 144 131
f 20 131 129
f 20 129 128
f 20 128 112
f 20 112 110
f 20 110 90
f 20 90 73
f 20 73 55
f 20 55 39
f 20 39 21
f 21 39 38
f 21 38 22
f 22 38 25
f 22 25 23
f 23 25 24
f 29 45 30
f 30 46 47
f 30 47 48
f 30 48 49
f 30 49 31
f 30 45 50
f 30 50 51
f 30 51 46
f 31 49 32
f 32 49 33
f 33 49 52
f 33 52 34
f 34 52 53
f 34 53 54
f 34 54 35
f 35 54 40
f 35 40 36
f 37 55 56
f 37 56 57
f 40 54 41
f 41 54 58
f 41 58 42
f 42 58 43
f 43 58 59
f 44 60 61
f 44 61 62
f 46 63 47
f 46 51 63
f 47 63 64
f 47 64 65
f 47 65 48
f 48 65 66
f 48 66 67
f 48 67 68
f 48 68 49
f 49 68 52
f 51 69 63
f 52 68 70
f 52 70 71
f 52 71 72
f 52 72 53
f 53 58 54
f 53 72 58
f 55 73 74
f 55 74 56
f 56 74 75
f 56 75 92
f 56 92 76
f 56 76 57
f 57 76 77
f 57 77 78
f 57 78 79
f 57 79 60
f 58 72 59
f 60 79 61
f 61 80 81
f 61 81 62
f 61 79 80
f 63 82 83
f 63 83 64
f 63 69 84
f 63 84 85
f 63 85 82
f 64 83 86
f 64 86 87
f 64 87 88
f 64 88 89
f 64 89 65
f 73 90 74
f 74 90 75
f 75 91 92
f 75 90 91
f 76 92 77
f 77 92 93
f 77 93 78
f 78 93 79
f 79 93 94
f 79 94 95
f 79 95 96
f 79 96 97
f 79 97 98
f 79 98 99
f 79 99 100
f 79 100 80
f 80 100 101
f 80 101 102
f 80 102 81
f 82 103 104
f 82 104 105
f 82 105 83
f 82 85 103
f 83 105 86
f 85 106 103
f 86 105 107
f 86 107 108
f 86 108 109
f 86 109 87
f 90 110 111
f 90 111 91
f 91 94 92
f 91 111 112
f 91 112 113
f 91 113 114
f 91 114 94
f 92 94 93
f 94 114 115
f 94 115 95
f 95 115 116
f 95 116 117
f 95 117 97
f 95 97 96
f 97 118 99
f 97 99 98
f 99 118 119
f 99 119 101
f 99 101 100
f 103 120 104
f 103 106 120
f 104 120 121
f 104 121 122
f 104 122 105
f 105 122 107
f 106 123 120
f 107 122 124
f 107 124 125
f 107 125 126
f 107 126 127
f 107 127 108
f 110 112 111
f 112 128 113
f 113 128 129
f 113 129 114
f 114 130 115
f 114 129 131
f 114 131 130
f 115 130 132
f 115 132 116
f 116 132 117
f 117 132 133
f 120 134 135
f 120 135 136
f 120 136 121
f 120 123 134
f 121 136 137
f 121 137 138
f 121 138 139
f 121 139 140
f 121 140 141
f 121 141 124
f 121 124 122
f 123 142 143
f 123 143 134
f 124 141 125
f 130 131 144
f 130 144 145
f 130 145 146
f 130 146 132
f 132 146 133
f 133 146 147
f 134 143 135
f 135 143 136
f 136 143 137
f 137 143 148
f 137 148 149
f 137 149 150
f 137 150 139
f 137 139 138
f 139 150 140
f 140 150 151
f 142 152 148
f 142 148 143
f 144 153 154
f 144 154 145
f 145 155 146
f 145 154 155
f 146 155 147
f 147 155 157
f 147 157 156
f 148 158 149
f 148 152 159
f 148 159 160
f 148 160 158
f 149 158 161
f 149 161 162
f 149 162 151
f 149 151 150
f 151 162 163
f 153 164 165
f 153 165 154
f 154 165 166
f 154 166 155
f 155 166 167
f 155 167 168
f 155 168 169
f 155 169 157
f 156 157 170
f 157 169 171
f 157 171 170
f 158 172 173
f 158 173 161
f 158 160 174
f 158 174 175
f 158 175 172
f 161 173 176
f 161 176 177
f 161 177 178
f 161 178 162
f 162 178 179
f 162 179 163
f 164 180 181
f 164 181 167
f 164 167 165
f 165 167 166
f 167 181 182
f 167 182 183
f 167 183 184
f 167 184 185
f 167 185 168
f 168 185 169
f 169 185 186
f 169 186 187
f 169 187 188
f 169 188 171
f 172 189 190
f 172 190 191
f 172 191 173
f 172 175 189
f 173 191 176
f 175 192 189
f 176 191 193
f 176 193 194
f 176 194 195
f 176 195 177
f 177 196 178
f 178 196 179
f 180 182 181
f 183 197 198
f 183 198 184
f 184 198 185
f 185 198 199
f 185 199 186
f 186 199 200
f 186 200 188
f 186 188 187
f 189 201 191
f 189 191 190
f 189 192 201
f 191 202 193
f 191 201 203
f 191 203 202
f 192 204 205
f 192 205 201
f 197 206 207
f 197 207 198
f 198 207 208
f 198 208 199
f 199 208 200
f 200 208 209
f 201 205 210
f 201 210 203
f 202 211 212
f 202 203 210
f 202 210 211
f 204 213 205
f 205 214 215
f 205 215 210
f 205 213 216
f 205 216 214
f 206 217 207
f 207 217 208
f 208 217 218
f 208 218 219
f 208 219 220
f 208 220 221
f 208 221 209
f 210 215 222
f 210 222 211
f 211 222 223
f 211 223 224
f 211 224 212
f 213 225 216
f 214 226 215
f 214 216 226
f 215 226 227
f 215 227 228
f 215 228 222
f 216 225 229
f 216 229 226
f 217 230 231
f 217 231 218
f 218 231 219
f 219 231 232
f 219 232 233
f 219 233 228
f 219 228 227
f 219 227 226
f 219 226 229
f 219 229 221
f 219 221 220
f 222 228 223
f 223 228 233
f 223 233 234
f 230 232 231
f 232 234 233
