v -0.055534 -0.046687 0.007661
v -0.055603 -0.045703 0.007661
v -0.053119 -0.046687 0.007661
v -0.055612 -0.046687 0.008173
v -0.055630 -0.045088 0.007661
v -0.055666 -0.045703 0.008173
v -0.041084 -0.030969 0.007661
v -0.053204 -0.046687 0.025396
v -0.055653 -0.046687 0.009407
v -0.058575 -0.034338 0.058455
v -0.055621 -0.044470 0.007661
v -0.055686 -0.045088 0.008173
v -0.040771 -0.030332 0.007661
v -0.040530 -0.030200 0.013099
v -0.053220 -0.046687 0.026008
v -0.055682 -0.046687 0.010636
v -0.058391 -0.033894 0.058607
v -0.058503 -0.034211 0.057990
v -0.055259 -0.040890 0.007666
v -0.055398 -0.041394 0.008173
v -0.055487 -0.042009 0.008173
v -0.055565 -0.042621 0.008173
v -0.055628 -0.043239 0.008173
v -0.055659 -0.043852 0.008173
v -0.055675 -0.044470 0.008173
v -0.055867 -0.046687 0.020737
v -0.056631 -0.045345 0.057943
v -0.056392 -0.045345 0.060667
v -0.058393 -0.034295 0.059376
v -0.055597 -0.043798 0.007661
v -0.040664 -0.029717 0.007661
v -0.040530 -0.030089 0.012314
v -0.040081 -0.025532 0.036658
v -0.040081 -0.025223 0.055020
v -0.040081 -0.025204 0.055522
v -0.040081 -0.025177 0.056066
v -0.040530 -0.030151 0.013716
v -0.053514 -0.046687 0.035220
v -0.053492 -0.046687 0.034614
v -0.058168 -0.033398 0.058607
v -0.058260 -0.033878 0.059224
v -0.058222 -0.033588 0.057990
v -0.053678 -0.035862 0.008173
v -0.053981 -0.036694 0.007708
v -0.054636 -0.038507 0.007692
v -0.055080 -0.040160 0.007661
v -0.055130 -0.040160 0.008173
v -0.055335 -0.041358 0.007661
v -0.055492 -0.042621 0.007661
v -0.055559 -0.043239 0.007661
v -0.056072 -0.046687 0.036642
v -0.055740 -0.045345 0.060348
v -0.043626 -0.024109 0.060777
v -0.043626 -0.023421 0.060960
v -0.043626 -0.022819 0.061038
v -0.056631 -0.039700 0.060965
v -0.058014 -0.034311 0.060050
v -0.053635 -0.046687 0.036658
v -0.057165 -0.031755 0.059611
v -0.040530 -0.027178 0.007661
v -0.040530 -0.029617 0.011342
v -0.040530 -0.029885 0.011781
v -0.040081 -0.022800 0.036658
v -0.040081 -0.025112 0.056793
v -0.053988 -0.045345 0.057378
v -0.053943 -0.045345 0.056688
v -0.057875 -0.032802 0.058607
v -0.057781 -0.032674 0.057990
v -0.058043 -0.033398 0.059224
v -0.057471 -0.032176 0.059224
v -0.053407 -0.035265 0.008173
v -0.053465 -0.035512 0.007672
v -0.051597 -0.032195 0.007661
v -0.055203 -0.045345 0.059977
v -0.043626 -0.024689 0.060531
v -0.043691 -0.021589 0.061028
v -0.043758 -0.022269 0.061059
v -0.044505 -0.022949 0.061070
v -0.040081 -0.022440 0.056793
v -0.056207 -0.036493 0.061033
v -0.056229 -0.035902 0.061038
v -0.056897 -0.034176 0.060792
v -0.057714 -0.033726 0.060134
v -0.054059 -0.045345 0.057917
v -0.054252 -0.045345 0.058607
v -0.054515 -0.045345 0.059130
v -0.054785 -0.045345 0.059511
v -0.056626 -0.030948 0.059700
v -0.056452 -0.030398 0.059308
v -0.056810 -0.030948 0.059224
v -0.057134 -0.031509 0.059224
v -0.057064 -0.032333 0.060092
v -0.055802 -0.030259 0.060186
v -0.041430 -0.023681 0.007661
v -0.040530 -0.023291 0.007797
v -0.043678 -0.019000 0.058497
v -0.040530 -0.023250 0.008482
v -0.040530 -0.023199 0.009915
v -0.043626 -0.025110 0.060301
v -0.057553 -0.032176 0.058607
v -0.057522 -0.032176 0.057990
v -0.053095 -0.034634 0.008173
v -0.052828 -0.034244 0.007672
v -0.052149 -0.033054 0.007682
v -0.051616 -0.032108 0.008173
v -0.050918 -0.031213 0.007682
v -0.050295 -0.030392 0.007661
v -0.043758 -0.021041 0.060934
v -0.044505 -0.021721 0.060996
v -0.045119 -0.022334 0.061033
v -0.044505 -0.022334 0.061054
v -0.048197 -0.024798 0.061075
v -0.043758 -0.019157 0.059271
v -0.043758 -0.019523 0.059951
v -0.043758 -0.019941 0.060369
v -0.054958 -0.032788 0.061038
v -0.055572 -0.033398 0.061022
v -0.056207 -0.035265 0.061028
v -0.056197 -0.034496 0.061002
v -0.056188 -0.034013 0.060975
v -0.056117 -0.032788 0.060855
v -0.056117 -0.032086 0.060709
v -0.056718 -0.032176 0.060327
v -0.055970 -0.029885 0.059679
v -0.055934 -0.029584 0.059281
v -0.055677 -0.029151 0.059193
v -0.056144 -0.029717 0.058607
v -0.056512 -0.030300 0.058607
v -0.056888 -0.030948 0.058607
v -0.057169 -0.031449 0.058607
v -0.056367 -0.031511 0.060322
v -0.056077 -0.030948 0.060301
v -0.055338 -0.029552 0.060196
v -0.055138 -0.028975 0.059992
v -0.041987 -0.023925 0.007661
v -0.042181 -0.023952 0.008173
v -0.044862 -0.019542 0.058340
v -0.044565 -0.019415 0.058664
v -0.057149 -0.031487 0.057990
v -0.052788 -0.034046 0.008173
v -0.056848 -0.030948 0.057990
v -0.056582 -0.030495 0.057990
v -0.055909 -0.029365 0.058183
v -0.055157 -0.028329 0.057990
v -0.049748 -0.029739 0.007661
v -0.054727 -0.027774 0.057990
v -0.054062 -0.026915 0.058110
v -0.053501 -0.026234 0.057990
v -0.043825 -0.020545 0.060766
v -0.044390 -0.020922 0.060819
v -0.046432 -0.022155 0.060855
v -0.045735 -0.022334 0.060991
v -0.047583 -0.023567 0.061007
v -0.048197 -0.024180 0.061028
v -0.047583 -0.024180 0.061059
v -0.048810 -0.024798 0.061043
v -0.053727 -0.030330 0.061028
v -0.044612 -0.019518 0.059140
v -0.044323 -0.019507 0.059616
v -0.044677 -0.020125 0.060196
v -0.044495 -0.020526 0.060562
v -0.054958 -0.032176 0.061017
v -0.055572 -0.032788 0.060996
v -0.055572 -0.032176 0.060923
v -0.055136 -0.030772 0.060808
v -0.054747 -0.028053 0.059663
v -0.055230 -0.028538 0.059313
v -0.055806 -0.029213 0.058696
v -0.054341 -0.029067 0.060630
v -0.054942 -0.029151 0.060280
v -0.054558 -0.028435 0.060170
v -0.054002 -0.027606 0.060118
v -0.042867 -0.024370 0.007661
v -0.042661 -0.024183 0.008173
v -0.046064 -0.020171 0.058356
v -0.046035 -0.020187 0.058868
v -0.055290 -0.028451 0.058607
v -0.054747 -0.027749 0.058607
v -0.049281 -0.029232 0.007661
v -0.053121 -0.025803 0.057990
v -0.053948 -0.026747 0.058607
v -0.053380 -0.026066 0.058607
v -0.045119 -0.020984 0.060662
v -0.045119 -0.021293 0.060813
v -0.046913 -0.022339 0.060834
v -0.046964 -0.022949 0.060975
v -0.048810 -0.024180 0.060955
v -0.049422 -0.024798 0.060975
v -0.049422 -0.025413 0.061038
v -0.050036 -0.025413 0.060970
v -0.053727 -0.029717 0.060981
v -0.045119 -0.019792 0.059224
v -0.045575 -0.020101 0.059417
v -0.045259 -0.020266 0.060024
v -0.045829 -0.020740 0.060191
v -0.045079 -0.020477 0.060322
v -0.054958 -0.031560 0.060970
v -0.054341 -0.030330 0.060944
v -0.054830 -0.030330 0.060819
v -0.054174 -0.027400 0.059705
v -0.053441 -0.026308 0.059281
v -0.054089 -0.027012 0.059151
v -0.054707 -0.027798 0.059224
v -0.053928 -0.028663 0.060704
v -0.054164 -0.028015 0.060233
v -0.053592 -0.027365 0.060259
v -0.052239 -0.025671 0.060181
v -0.045181 -0.025679 0.007661
v -0.044348 -0.025158 0.007672
v -0.043099 -0.024413 0.008173
v -0.048209 -0.021410 0.057995
v -0.048394 -0.021478 0.058607
v -0.047981 -0.021445 0.059313
v -0.048805 -0.028741 0.007661
v -0.051730 -0.024313 0.057995
v -0.051320 -0.023827 0.058607
v -0.053009 -0.025806 0.059198
v -0.046350 -0.021627 0.060636
v -0.047071 -0.022136 0.060704
v -0.047511 -0.022732 0.060834
v -0.048280 -0.023375 0.060860
v -0.050012 -0.024540 0.060787
v -0.052460 -0.027297 0.060819
v -0.052496 -0.027871 0.060923
v -0.053009 -0.028384 0.060913
v -0.053952 -0.029159 0.060829
v -0.054341 -0.029736 0.060839
v -0.049144 -0.022635 0.060155
v -0.047583 -0.021871 0.060285
v -0.053485 -0.028332 0.060782
v -0.053588 -0.026763 0.059731
v -0.051041 -0.023792 0.059407
v -0.052643 -0.027121 0.060688
v -0.052465 -0.026074 0.060264
v -0.050652 -0.024193 0.060338
v -0.050445 -0.023760 0.060223
v -0.053009 -0.026223 0.059846
v -0.046026 -0.026278 0.007661
v -0.049067 -0.021968 0.058565
v -0.049900 -0.022705 0.059187
v -0.049658 -0.022678 0.059674
v -0.048218 -0.028161 0.007661
v -0.048410 -0.028264 0.008173
v -0.051285 -0.023863 0.057995
v -0.050825 -0.023369 0.058607
v -0.050612 -0.023304 0.059224
v -0.049853 -0.023142 0.060223
v -0.048010 -0.022760 0.060698
v -0.049392 -0.023603 0.060620
v -0.050094 -0.023603 0.060332
v -0.050277 -0.023220 0.059757
v -0.046772 -0.026858 0.007661
v -0.047270 -0.027283 0.007661
v -0.047775 -0.027671 0.008173
f 1 2 5
f 1 5 11
f 1 11 30
f 1 30 50
f 1 50 49
f 1 49 48
f 1 48 46
f 1 46 73
f 1 73 107
f 1 107 145
f 1 145 179
f 1 179 214
f 1 214 242
f 1 242 253
f 1 253 252
f 1 252 238
f 1 238 208
f 1 208 173
f 1 173 135
f 1 135 94
f 1 94 60
f 1 60 31
f 1 31 13
f 1 13 7
f 1 7 3
f 1 3 8
f 1 8 15
f 1 15 39
f 1 39 38
f 1 38 58
f 1 58 51
f 1 51 26
f 1 26 16
f 1 16 9
f 1 9 4
f 1 4 2
f 2 4 6
f 2 6 5
f 3 7 8
f 4 9 10
f 4 10 6
f 5 6 12
f 5 12 11
f 6 10 12
f 7 13 14
f 7 14 8
f 8 14 15
f 9 16 10
f 10 17 18
f 10 18 19
f 10 19 20
f 10 20 21
f 10 21 22
f 10 22 23
f 10 23 24
f 10 24 25
f 10 25 12
f 10 16 26
f 10 26 27
f 10 27 28
f 10 28 29
f 10 29 17
f 11 12 25
f 11 25 24
f 11 24 30
f 13 31 32
f 13 32 14
f 14 32 33
f 14 33 34
f 14 34 35
f 14 35 36
f 14 36 37
f 14 37 38
f 14 38 39
f 14 39 15
f 17 40 18
f 17 29 41
f 17 41 40
f 18 40 42
f 18 42 43
f 18 43 44
f 18 44 45
f 18 45 46
f 18 46 47
f 18 47 19
f 19 46 48
f 19 48 20
f 19 47 46
f 20 48 21
f 21 48 22
f 22 48 49
f 22 49 50
f 22 50 23
f 23 50 30
f 23 30 24
f 26 51 27
f 27 51 28
f 28 52 53
f 28 53 54
f 28 54 55
f 28 55 56
f 28 56 57
f 28 57 29
f 28 51 58
f 28 58 52
f 29 57 59
f 29 59 41
f 31 60 61
f 31 61 62
f 31 62 32
f 32 62 33
f 33 63 79
f 33 79 64
f 33 64 36
f 33 36 35
f 33 35 34
f 33 62 61
f 33 61 60
f 33 60 63
f 36 64 37
f 37 64 65
f 37 65 66
f 37 66 38
f 38 66 65
f 38 65 58
f 40 67 68
f 40 68 42
f 40 41 69
f 40 69 70
f 40 70 67
f 41 59 69
f 42 68 71
f 42 71 72
f 42 72 43
f 43 72 44
f 44 72 45
f 45 72 46
f 46 72 73
f 52 74 53
f 52 58 74
f 53 74 75
f 53 75 64
f 53 64 54
f 54 64 55
f 55 76 77
f 55 77 78
f 55 78 56
f 55 64 79
f 55 79 76
f 56 78 80
f 56 80 81
f 56 81 82
f 56 82 57
f 57 83 59
f 57 82 83
f 58 65 84
f 58 84 85
f 58 85 86
f 58 86 87
f 58 87 74
f 59 88 89
f 59 89 90
f 59 90 91
f 59 91 70
f 59 70 69
f 59 83 92
f 59 92 93
f 59 93 88
f 60 94 95
f 60 95 63
f 63 96 79
f 63 95 97
f 63 97 98
f 63 98 96
f 64 86 85
f 64 85 84
f 64 84 65
f 64 75 99
f 64 99 74
f 64 74 87
f 64 87 86
f 67 100 68
f 67 70 91
f 67 91 100
f 68 100 101
f 68 101 102
f 68 102 71
f 71 102 72
f 72 103 73
f 72 102 103
f 73 103 104
f 73 104 105
f 73 105 106
f 73 106 107
f 74 99 75
f 76 108 109
f 76 109 110
f 76 110 111
f 76 111 77
f 76 79 108
f 77 111 78
f 78 111 112
f 78 112 81
f 78 81 80
f 79 96 113
f 79 113 114
f 79 114 115
f 79 115 108
f 81 116 117
f 81 117 118
f 81 118 82
f 81 112 116
f 82 118 119
f 82 119 120
f 82 120 121
f 82 121 122
f 82 122 83
f 83 123 92
f 83 122 123
f 88 124 89
f 88 93 124
f 89 125 126
f 89 126 127
f 89 127 128
f 89 128 90
f 89 124 125
f 90 128 129
f 90 129 91
f 91 129 130
f 91 130 100
f 92 123 131
f 92 131 132
f 92 132 93
f 93 132 133
f 93 133 134
f 93 134 124
f 94 135 136
f 94 136 96
f 94 96 95
f 95 96 97
f 96 98 97
f 96 136 137
f 96 137 138
f 96 138 113
f 100 130 101
f 101 130 139
f 101 139 140
f 101 140 102
f 102 140 103
f 103 140 104
f 104 140 141
f 104 141 142
f 104 142 143
f 104 143 105
f 105 143 144
f 105 144 106
f 106 144 107
f 107 144 146
f 107 146 147
f 107 147 148
f 107 148 145
f 108 149 150
f 108 150 151
f 108 151 152
f 108 152 109
f 108 115 149
f 109 152 110
f 110 152 153
f 110 153 154
f 110 154 155
f 110 155 111
f 111 155 112
f 112 155 154
f 112 154 156
f 112 156 157
f 112 157 116
f 113 138 158
f 113 158 159
f 113 159 114
f 114 159 160
f 114 160 115
f 115 160 161
f 115 161 149
f 116 157 117
f 117 162 163
f 117 163 119
f 117 119 118
f 117 157 162
f 119 163 120
f 120 163 121
f 121 164 165
f 121 165 122
f 121 163 164
f 122 165 132
f 122 132 131
f 122 131 123
f 124 134 166
f 124 166 167
f 124 167 125
f 125 167 126
f 126 168 127
f 126 167 168
f 127 168 143
f 127 143 128
f 128 143 142
f 128 142 141
f 128 141 129
f 129 141 130
f 130 141 139
f 132 165 169
f 132 169 133
f 133 169 170
f 133 170 171
f 133 171 134
f 134 171 172
f 134 172 166
f 135 173 174
f 135 174 136
f 136 174 137
f 137 175 176
f 137 176 138
f 137 174 175
f 138 176 158
f 139 141 140
f 143 168 177
f 143 177 144
f 144 177 178
f 144 178 146
f 145 148 180
f 145 180 179
f 146 178 147
f 147 178 181
f 147 181 148
f 148 181 182
f 148 182 180
f 149 161 183
f 149 183 150
f 150 184 151
f 150 183 184
f 151 184 185
f 151 185 186
f 151 186 152
f 152 186 153
f 153 186 187
f 153 187 154
f 154 187 188
f 154 188 156
f 156 189 157
f 156 188 190
f 156 190 189
f 157 189 191
f 157 191 163
f 157 163 162
f 158 176 192
f 158 192 159
f 159 192 193
f 159 193 194
f 159 194 160
f 160 194 195
f 160 195 196
f 160 196 161
f 161 196 183
f 163 191 197
f 163 197 164
f 164 198 199
f 164 199 165
f 164 197 198
f 165 199 169
f 166 172 200
f 166 200 201
f 166 201 202
f 166 202 203
f 166 203 167
f 167 203 177
f 167 177 168
f 169 199 204
f 169 204 170
f 170 205 171
f 170 204 205
f 171 205 172
f 172 205 206
f 172 206 207
f 172 207 200
f 173 208 209
f 173 209 210
f 173 210 174
f 174 210 175
f 175 211 212
f 175 212 176
f 175 210 209
f 175 209 211
f 176 212 213
f 176 213 193
f 176 193 192
f 177 203 178
f 178 203 181
f 179 180 215
f 179 215 214
f 180 182 216
f 180 216 215
f 181 203 202
f 181 202 182
f 182 202 201
f 182 201 217
f 182 217 216
f 183 218 219
f 183 219 184
f 183 196 218
f 184 219 185
f 185 219 220
f 185 220 186
f 186 220 221
f 186 221 187
f 187 221 222
f 187 222 188
f 188 222 190
f 189 190 191
f 190 222 223
f 190 223 224
f 190 224 191
f 191 224 225
f 191 225 226
f 191 226 227
f 191 227 198
f 191 198 197
f 193 213 194
f 194 228 195
f 194 213 228
f 195 228 229
f 195 229 196
f 196 229 218
f 198 227 199
f 199 227 230
f 199 230 204
f 200 231 201
f 200 207 231
f 201 231 232
f 201 232 217
f 204 230 233
f 204 233 206
f 204 206 205
f 206 234 207
f 206 233 234
f 207 234 235
f 207 235 236
f 207 236 237
f 207 237 231
f 208 238 211
f 208 211 209
f 211 239 212
f 211 238 239
f 212 240 241
f 212 241 213
f 212 239 240
f 213 241 228
f 214 215 243
f 214 243 242
f 215 216 244
f 215 244 243
f 216 245 244
f 216 217 232
f 216 232 246
f 216 246 245
f 218 229 219
f 219 229 247
f 219 247 248
f 219 248 220
f 220 248 221
f 221 248 249
f 221 249 222
f 222 233 223
f 222 249 250
f 222 250 235
f 222 235 233
f 223 225 224
f 223 233 230
f 223 230 225
f 225 230 226
f 226 230 227
f 228 247 229
f 228 241 247
f 231 251 232
f 231 237 251
f 232 251 246
f 233 235 234
f 235 250 247
f 235 247 236
f 236 247 251
f 236 251 237
f 238 252 239
f 239 245 240
f 239 252 245
f 240 245 246
f 240 246 241
f 241 246 251
f 241 251 247
f 242 243 254
f 242 254 253
f 243 244 254
f 244 245 253
f 244 253 254
f 245 252 253
f 247 250 249
f 247 249 248
