v -0.055614 -0.046805 0.008425
v -0.053449 -0.046685 0.008687
v -0.050909 -0.031234 0.007585
v -0.053955 -0.036713 0.007584
v -0.055508 -0.042886 0.007631
v -0.055596 -0.044145 0.007603
v -0.055605 -0.045394 0.007603
v -0.055527 -0.047856 0.008425
v -0.054324 -0.053168 0.008687
v -0.030974 -0.021664 0.007987
v -0.033085 -0.021724 0.007877
v -0.028555 -0.066176 0.008687
v -0.041629 -0.023792 0.007513
v -0.047886 -0.027906 0.007474
v -0.049757 -0.029831 0.007360
v -0.050320 -0.030549 0.007307
v -0.050919 -0.031604 0.006850
v -0.051587 -0.032303 0.007378
v -0.052803 -0.034283 0.007466
v -0.053481 -0.035870 0.007214
v -0.053974 -0.037398 0.006892
v -0.054642 -0.038901 0.007338
v -0.055117 -0.040577 0.007422
v -0.055310 -0.043538 0.006693
v -0.055379 -0.044788 0.006753
v -0.055315 -0.047999 0.007254
v -0.055393 -0.048781 0.008164
v -0.055241 -0.049818 0.008414
v -0.054992 -0.050961 0.008425
v -0.054610 -0.052257 0.008324
v -0.054149 -0.053335 0.007454
v -0.053965 -0.054094 0.008425
v -0.053467 -0.055246 0.008687
v -0.015578 -0.028332 0.007857
v -0.028140 -0.022015 0.007883
v -0.028984 -0.021914 0.007494
v -0.030048 -0.021816 0.007383
v -0.031864 -0.021668 0.007767
v -0.032795 -0.021914 0.006980
v -0.035583 -0.022127 0.007024
v -0.036730 -0.022233 0.007407
v -0.038735 -0.022700 0.007594
v -0.051614 -0.058569 0.008687
v -0.034311 -0.068796 0.008489
v -0.030053 -0.068879 0.008425
v -0.028680 -0.068666 0.008292
v -0.018560 -0.064543 0.007588
v -0.011712 -0.057231 0.007710
v -0.008675 -0.042326 0.007767
v -0.011652 -0.033418 0.007858
v -0.014528 -0.029443 0.007856
v -0.039988 -0.023158 0.007444
v -0.041071 -0.023890 0.006652
v -0.042670 -0.024436 0.007125
v -0.044831 -0.025537 0.007379
v -0.045965 -0.026282 0.007431
v -0.047006 -0.027249 0.007100
v -0.048366 -0.028614 0.006880
v -0.049071 -0.029110 0.007352
v -0.044859 -0.029980 -0.000181
v -0.045495 -0.030831 -0.000341
v -0.047375 -0.033052 -0.000333
v -0.049048 -0.035153 -0.000178
v -0.052988 -0.035042 0.006849
v -0.052177 -0.033297 0.007317
v -0.050366 -0.037647 -0.000148
v -0.050776 -0.038605 0.000001
v -0.054790 -0.039938 0.006857
v -0.051808 -0.043418 -0.000121
v -0.052006 -0.044788 0.000022
v -0.051485 -0.041660 -0.000309
v -0.052029 -0.046315 0.000170
v -0.051605 -0.048300 -0.000138
v -0.051499 -0.049716 0.000061
v -0.055131 -0.049374 0.007286
v -0.055038 -0.050313 0.007547
v -0.054587 -0.051581 0.007094
v -0.054149 -0.052627 0.006779
v -0.053384 -0.054705 0.006835
v -0.053485 -0.055079 0.007774
v -0.052743 -0.056708 0.008425
v -0.017090 -0.032113 -0.000154
v -0.017970 -0.031382 -0.000386
v -0.018919 -0.030285 -0.000160
v -0.017643 -0.026972 0.006811
v -0.016947 -0.027226 0.007517
v -0.020099 -0.025005 0.007560
v -0.025237 -0.022747 0.007630
v -0.024643 -0.023172 0.006756
v -0.029016 -0.025842 -0.000486
v -0.031255 -0.025195 0.000196
v -0.031435 -0.021951 0.006749
v -0.032209 -0.025352 -0.000066
v -0.037670 -0.022529 0.007098
v -0.035011 -0.025842 -0.000350
v -0.036684 -0.025829 0.000102
v -0.038951 -0.022946 0.006933
v -0.052237 -0.057574 0.008425
v -0.050854 -0.059679 0.008407
v -0.050297 -0.060434 0.008425
v -0.048882 -0.061919 0.008556
v -0.041011 -0.067042 0.008425
v -0.039933 -0.067486 0.008424
v -0.036827 -0.068388 0.008425
v -0.035596 -0.068615 0.008425
v -0.033666 -0.068777 0.007452
v -0.032643 -0.068939 0.008360
v -0.031288 -0.068907 0.007987
v -0.030458 -0.068735 0.007184
v -0.029472 -0.068643 0.007345
v -0.026412 -0.068101 0.007604
v -0.024528 -0.067532 0.007541
v -0.022578 -0.066783 0.007628
v -0.019661 -0.065242 0.007479
v -0.018841 -0.064571 0.007085
v -0.017288 -0.063553 0.007449
v -0.013440 -0.059702 0.007401
v -0.012473 -0.058300 0.007231
v -0.010933 -0.055334 0.007139
v -0.010758 -0.055325 0.007628
v -0.009224 -0.051016 0.007628
v -0.015201 -0.061651 0.007341
v -0.008537 -0.043603 0.007704
v -0.008814 -0.042941 0.006933
v -0.009003 -0.041789 0.006850
v -0.008878 -0.041095 0.007767
v -0.009353 -0.038943 0.007767
v -0.010827 -0.035042 0.007802
v -0.011551 -0.034181 0.006801
v -0.012214 -0.032691 0.007379
v -0.012878 -0.031636 0.007685
v -0.043661 -0.025060 0.006841
v -0.039656 -0.027018 -0.000183
v -0.043702 -0.029100 -0.000174
v -0.042412 -0.028906 -0.000531
v -0.044495 -0.030947 -0.000675
v -0.047928 -0.034237 -0.000440
v -0.049601 -0.036680 -0.000331
v -0.050034 -0.038328 -0.000463
v -0.050647 -0.041095 -0.000683
v -0.051628 -0.047240 -0.000205
v -0.051181 -0.049698 -0.000337
v -0.050928 -0.050970 -0.000270
v -0.054702 -0.050480 0.006762
v -0.049647 -0.054038 -0.000288
v -0.052877 -0.055848 0.006928
v -0.052518 -0.056843 0.007386
v -0.015887 -0.033695 -0.000146
v -0.019127 -0.030734 -0.000712
v -0.015744 -0.035371 -0.000702
v -0.021680 -0.028522 -0.000235
v -0.022592 -0.027527 0.000410
v -0.020569 -0.025065 0.006710
v -0.019260 -0.025616 0.007358
v -0.021417 -0.024389 0.007348
v -0.022703 -0.023751 0.007393
v -0.023846 -0.023223 0.007549
v -0.026334 -0.026648 -0.000519
v -0.029744 -0.026638 -0.000855
v -0.030205 -0.025708 -0.000522
v -0.031357 -0.025801 -0.000613
v -0.036873 -0.026537 -0.000481
v -0.038642 -0.026564 -0.000027
v -0.050716 -0.059573 0.007147
v -0.050223 -0.060350 0.007467
v -0.048725 -0.061854 0.007169
v -0.047873 -0.062622 0.006886
v -0.047923 -0.062752 0.008271
v -0.046956 -0.063557 0.008425
v -0.043919 -0.065612 0.008425
v -0.042997 -0.066093 0.008425
v -0.041117 -0.066926 0.007393
v -0.038283 -0.068014 0.008214
v -0.036647 -0.068277 0.007372
v -0.032500 -0.068796 0.007283
v -0.034652 -0.065024 0.000007
v -0.033205 -0.065121 -0.000187
v -0.030666 -0.065158 -0.000223
v -0.027689 -0.068287 0.007287
v -0.026620 -0.064478 -0.000138
v -0.025670 -0.067713 0.007100
v -0.023592 -0.067014 0.007105
v -0.021670 -0.066311 0.007364
v -0.020578 -0.065741 0.007408
v -0.021306 -0.062081 -0.000115
v -0.020237 -0.061368 -0.000105
v -0.014505 -0.060841 0.007246
v -0.014108 -0.060091 0.006708
v -0.015813 -0.056944 -0.000223
v -0.015270 -0.056195 -0.000131
v -0.013708 -0.052807 -0.000219
v -0.010187 -0.053978 0.007505
v -0.009574 -0.052201 0.007479
v -0.009611 -0.051507 0.006821
v -0.009062 -0.049438 0.007097
v -0.008823 -0.048319 0.007281
v -0.017426 -0.058689 -0.000414
v -0.008629 -0.045875 0.007288
v -0.008574 -0.044630 0.007411
v -0.012122 -0.044172 -0.000276
v -0.012233 -0.042733 -0.000089
v -0.009694 -0.038841 0.006780
v -0.009155 -0.039994 0.007519
v -0.009726 -0.037837 0.007556
v -0.010344 -0.036171 0.007682
v -0.010887 -0.035468 0.006918
v -0.014007 -0.037000 -0.000173
v -0.014680 -0.035445 0.000048
v -0.015247 -0.034723 -0.000151
v -0.040532 -0.027578 -0.000305
v -0.041421 -0.028235 -0.000462
v -0.018053 -0.058004 -0.000976
v -0.049416 -0.052775 -0.000685
v -0.050647 -0.048781 -0.000605
v -0.050647 -0.049698 -0.000569
v -0.050297 -0.052007 -0.000440
v -0.048997 -0.055019 -0.000377
v -0.047596 -0.057597 -0.000153
v -0.023763 -0.027582 -0.000404
v -0.012869 -0.043339 -0.000744
v -0.014850 -0.036255 -0.000482
v -0.013657 -0.039485 -0.000534
v -0.045168 -0.059707 -0.000411
v -0.042329 -0.061998 -0.000319
v -0.044241 -0.065107 0.006846
v -0.045886 -0.064293 0.007797
v -0.044827 -0.065057 0.008176
v -0.042523 -0.066246 0.007389
v -0.038845 -0.067583 0.006949
v -0.043274 -0.065737 0.007104
v -0.039329 -0.063715 -0.000233
v -0.035882 -0.064672 -0.000184
v -0.036237 -0.063997 -0.000727
v -0.031891 -0.065020 -0.000278
v -0.028961 -0.064635 -0.000449
v -0.025744 -0.064020 -0.000287
v -0.024809 -0.063849 -0.000126
v -0.023869 -0.063599 0.000137
v -0.023970 -0.063377 -0.000254
v -0.020795 -0.060785 -0.000757
v -0.019459 -0.060327 -0.000516
v -0.016975 -0.057694 -0.000704
v -0.013339 -0.051248 -0.000407
v -0.012735 -0.050003 -0.000246
v -0.012279 -0.048161 0.000021
v -0.012781 -0.040609 -0.000181
v -0.012777 -0.045320 -0.000755
v -0.012873 -0.039387 0.000253
v -0.013431 -0.038267 -0.000147
v -0.010297 -0.036801 0.006945
v -0.013136 -0.050003 -0.000510
v -0.046956 -0.057083 -0.000669
v -0.040380 -0.063020 -0.000359
v -0.038347 -0.063997 -0.000293
v -0.037444 -0.064210 -0.000338
v -0.022979 -0.062312 -0.000534
f 1 2 3
f 1 3 4
f 1 4 5
f 1 5 6
f 1 6 7
f 1 7 8
f 1 8 9
f 1 9 2
f 2 10 11
f 2 11 3
f 2 9 33
f 2 33 43
f 2 43 12
f 2 12 10
f 3 11 13
f 3 13 14
f 3 14 15
f 3 15 16
f 3 16 17
f 3 17 18
f 3 18 19
f 3 19 4
f 4 19 20
f 4 20 21
f 4 21 22
f 4 22 23
f 4 23 5
f 5 23 24
f 5 24 6
f 6 24 25
f 6 25 7
f 7 25 26
f 7 26 8
f 8 26 27
f 8 27 28
f 8 28 9
f 9 28 29
f 9 29 30
f 9 30 31
f 9 31 32
f 9 32 33
f 10 34 35
f 10 35 36
f 10 36 37
f 10 37 38
f 10 38 11
f 10 12 34
f 11 38 39
f 11 39 40
f 11 40 41
f 11 41 42
f 11 42 13
f 12 43 44
f 12 44 45
f 12 45 46
f 12 46 47
f 12 47 48
f 12 48 49
f 12 49 50
f 12 50 51
f 12 51 34
f 13 42 52
f 13 52 53
f 13 53 54
f 13 54 55
f 13 55 56
f 13 56 14
f 14 56 57
f 14 57 58
f 14 58 59
f 14 59 15
f 15 59 58
f 15 58 60
f 15 60 61
f 15 61 17
f 15 17 16
f 17 62 63
f 17 63 64
f 17 64 65
f 17 65 18
f 17 61 62
f 18 65 19
f 19 65 64
f 19 64 20
f 20 64 21
f 21 64 66
f 21 66 67
f 21 67 68
f 21 68 22
f 22 68 23
f 23 68 24
f 24 69 70
f 24 70 25
f 24 68 71
f 24 71 69
f 25 70 72
f 25 72 26
f 26 73 74
f 26 74 75
f 26 75 27
f 26 72 73
f 27 75 76
f 27 76 28
f 28 76 29
f 29 76 30
f 30 76 31
f 31 76 77
f 31 77 78
f 31 78 79
f 31 79 80
f 31 80 32
f 32 80 33
f 33 80 81
f 33 81 43
f 34 51 82
f 34 82 83
f 34 83 84
f 34 84 85
f 34 85 86
f 34 86 87
f 34 87 35
f 35 88 36
f 35 87 88
f 36 88 89
f 36 89 90
f 36 90 37
f 37 90 91
f 37 91 92
f 37 92 38
f 38 92 39
f 39 92 93
f 39 93 40
f 40 94 41
f 40 93 95
f 40 95 96
f 40 96 94
f 41 94 42
f 42 94 97
f 42 97 52
f 43 81 98
f 43 98 99
f 43 99 100
f 43 100 101
f 43 101 44
f 44 102 103
f 44 103 104
f 44 104 105
f 44 105 106
f 44 106 107
f 44 107 45
f 44 101 102
f 45 107 108
f 45 108 109
f 45 109 110
f 45 110 46
f 46 110 111
f 46 111 112
f 46 112 113
f 46 113 47
f 47 113 114
f 47 114 115
f 47 115 116
f 47 116 48
f 48 117 118
f 48 118 119
f 48 119 120
f 48 120 121
f 48 121 49
f 48 116 122
f 48 122 117
f 49 123 124
f 49 124 125
f 49 125 126
f 49 126 50
f 49 121 123
f 50 126 127
f 50 127 128
f 50 128 129
f 50 129 130
f 50 130 131
f 50 131 51
f 51 131 130
f 51 130 82
f 52 97 53
f 53 132 54
f 53 97 133
f 53 133 132
f 54 132 55
f 55 132 134
f 55 134 56
f 56 134 57
f 57 134 60
f 57 60 58
f 60 134 135
f 60 135 61
f 61 135 136
f 61 136 62
f 62 137 63
f 62 136 137
f 63 137 138
f 63 138 66
f 63 66 64
f 66 138 139
f 66 139 140
f 66 140 71
f 66 71 67
f 67 71 68
f 69 71 141
f 69 141 70
f 70 141 72
f 71 140 141
f 72 141 73
f 73 141 142
f 73 142 74
f 74 142 143
f 74 143 78
f 74 78 77
f 74 77 144
f 74 144 75
f 75 144 76
f 76 144 77
f 78 143 79
f 79 145 146
f 79 146 80
f 79 143 145
f 80 146 147
f 80 147 81
f 81 147 98
f 82 130 148
f 82 148 83
f 83 149 84
f 83 148 150
f 83 150 149
f 84 149 151
f 84 151 152
f 84 152 153
f 84 153 85
f 85 153 154
f 85 154 86
f 86 154 87
f 87 154 153
f 87 153 155
f 87 155 156
f 87 156 157
f 87 157 88
f 88 157 89
f 89 157 156
f 89 156 153
f 89 153 152
f 89 152 158
f 89 158 90
f 90 158 159
f 90 159 160
f 90 160 91
f 91 160 93
f 91 93 92
f 93 160 161
f 93 161 95
f 94 96 97
f 95 162 133
f 95 133 96
f 95 161 162
f 96 133 163
f 96 163 97
f 97 163 133
f 98 164 99
f 98 147 164
f 99 165 100
f 99 164 165
f 100 165 166
f 100 166 101
f 101 166 167
f 101 167 168
f 101 168 169
f 101 169 170
f 101 170 171
f 101 171 102
f 102 171 172
f 102 172 103
f 103 172 173
f 103 173 104
f 104 173 174
f 104 174 105
f 105 174 106
f 106 175 107
f 106 174 176
f 106 176 177
f 106 177 175
f 107 175 108
f 108 175 109
f 109 175 178
f 109 178 110
f 110 179 111
f 110 178 180
f 110 180 179
f 111 179 181
f 111 181 112
f 112 181 182
f 112 182 113
f 113 182 183
f 113 183 184
f 113 184 114
f 114 184 115
f 115 185 186
f 115 186 116
f 115 184 185
f 116 186 122
f 117 122 187
f 117 187 188
f 117 188 118
f 118 188 189
f 118 189 190
f 118 190 119
f 119 190 191
f 119 191 192
f 119 192 120
f 120 192 121
f 121 192 193
f 121 193 194
f 121 194 195
f 121 195 196
f 121 196 123
f 122 186 197
f 122 197 188
f 122 188 187
f 123 198 199
f 123 199 124
f 123 196 198
f 124 199 200
f 124 200 125
f 125 200 201
f 125 201 202
f 125 202 203
f 125 203 126
f 126 203 127
f 127 203 202
f 127 202 204
f 127 204 205
f 127 205 128
f 128 205 206
f 128 206 129
f 129 206 207
f 129 207 208
f 129 208 209
f 129 209 148
f 129 148 130
f 132 133 134
f 133 162 210
f 133 210 134
f 134 210 211
f 134 211 135
f 135 211 162
f 135 162 159
f 135 159 136
f 136 159 140
f 136 140 137
f 137 140 139
f 137 139 138
f 140 159 212
f 140 212 213
f 140 213 214
f 140 214 141
f 141 214 142
f 142 215 216
f 142 216 143
f 142 214 215
f 143 216 145
f 145 217 218
f 145 218 146
f 145 216 217
f 146 218 164
f 146 164 147
f 148 209 150
f 149 159 158
f 149 158 219
f 149 219 151
f 149 150 220
f 149 220 159
f 150 209 221
f 150 221 222
f 150 222 220
f 151 219 152
f 152 219 158
f 153 156 155
f 159 162 161
f 159 161 160
f 159 220 212
f 162 211 210
f 164 218 167
f 164 167 166
f 164 166 165
f 167 169 168
f 167 218 223
f 167 223 224
f 167 224 225
f 167 225 226
f 167 226 169
f 169 226 227
f 169 227 170
f 170 228 171
f 170 227 228
f 171 228 172
f 172 229 173
f 172 228 230
f 172 230 231
f 172 231 229
f 173 229 174
f 174 229 232
f 174 232 176
f 175 177 178
f 176 232 177
f 177 232 233
f 177 233 234
f 177 234 178
f 178 234 233
f 178 233 235
f 178 235 180
f 179 180 181
f 180 235 236
f 180 236 237
f 180 237 182
f 180 182 181
f 182 237 238
f 182 238 183
f 183 238 185
f 183 185 184
f 185 238 239
f 185 239 240
f 185 240 241
f 185 241 186
f 186 241 197
f 188 197 189
f 189 197 242
f 189 242 190
f 190 242 191
f 191 243 244
f 191 244 194
f 191 194 192
f 191 242 243
f 192 194 193
f 194 244 195
f 195 244 245
f 195 245 196
f 196 245 198
f 197 241 242
f 198 245 200
f 198 200 199
f 200 220 246
f 200 246 201
f 200 245 244
f 200 244 247
f 200 247 220
f 201 246 202
f 202 246 248
f 202 248 249
f 202 249 250
f 202 250 204
f 204 250 205
f 205 250 206
f 206 250 249
f 206 249 207
f 207 249 221
f 207 221 209
f 207 209 208
f 212 251 242
f 212 242 241
f 212 241 240
f 212 240 233
f 212 233 213
f 212 220 247
f 212 247 251
f 213 216 215
f 213 215 214
f 213 233 252
f 213 252 217
f 213 217 216
f 217 252 218
f 218 252 223
f 220 222 246
f 221 249 222
f 222 249 246
f 223 252 233
f 223 233 224
f 224 233 253
f 224 253 231
f 224 231 225
f 225 227 226
f 225 231 230
f 225 230 228
f 225 228 227
f 229 231 254
f 229 254 255
f 229 255 232
f 231 253 233
f 231 233 254
f 232 255 233
f 233 255 254
f 233 240 235
f 235 240 256
f 235 256 236
f 236 256 239
f 236 239 237
f 237 239 238
f 239 256 240
f 242 251 243
f 243 251 244
f 244 251 247
f 246 249 248
