v -0.016063 -0.063380 0.036650
v -0.016186 -0.063380 0.029086
v -0.049956 -0.058007 0.056677
v -0.050111 -0.058007 0.057650
v -0.050454 -0.058007 0.058665
v -0.050810 -0.058007 0.059222
v -0.023299 -0.065580 0.056526
v -0.023793 -0.066206 0.058733
v -0.023793 -0.066745 0.059456
v -0.023793 -0.067695 0.060191
v -0.023793 -0.068565 0.060576
v -0.023793 -0.069524 0.060763
v -0.023793 -0.070703 0.060774
v -0.023793 -0.071652 0.060529
v -0.023810 -0.072253 0.060227
v -0.023793 -0.072693 0.059696
v -0.023814 -0.072955 0.058983
v -0.016684 -0.063380 0.010715
v -0.016733 -0.063380 0.009716
v -0.016925 -0.063380 0.007946
v -0.047731 -0.059764 0.010392
v -0.052962 -0.058007 0.056619
v -0.051251 -0.058007 0.059680
v -0.051847 -0.058007 0.060138
v -0.052492 -0.058007 0.060446
v -0.053439 -0.058007 0.060742
v -0.054644 -0.058007 0.060888
v -0.025435 -0.070924 0.060805
v -0.026354 -0.071851 0.060758
v -0.024577 -0.071244 0.060748
v -0.025435 -0.072157 0.060534
v -0.024585 -0.072432 0.060258
v -0.026472 -0.073110 0.060060
v -0.025227 -0.073131 0.059623
v -0.024442 -0.073061 0.059295
v -0.024822 -0.073296 0.058608
v -0.024046 -0.073088 0.058056
v -0.016847 -0.063415 0.008794
v -0.017476 -0.063828 0.007946
v -0.023507 -0.067181 0.007717
v -0.020955 -0.063380 0.007717
v -0.047731 -0.060007 0.008700
v -0.057735 -0.058129 0.057661
v -0.057045 -0.058007 0.056786
v -0.056069 -0.058353 0.060649
v -0.054571 -0.059857 0.060841
v -0.053721 -0.060166 0.060898
v -0.057417 -0.058007 0.059873
v -0.051263 -0.062935 0.060893
v -0.039576 -0.070311 0.060857
v -0.030355 -0.071539 0.060815
v -0.027897 -0.071748 0.060789
v -0.027591 -0.072238 0.060706
v -0.027285 -0.072771 0.060456
v -0.031331 -0.072648 0.060685
v -0.027285 -0.073168 0.060217
v -0.028265 -0.073747 0.059618
v -0.027444 -0.073677 0.059467
v -0.026055 -0.073477 0.059217
v -0.025435 -0.073328 0.059217
v -0.026055 -0.073587 0.058608
v -0.025435 -0.073440 0.058296
v -0.024822 -0.073290 0.057988
v -0.025435 -0.067939 0.008175
v -0.024589 -0.067648 0.008060
v -0.023593 -0.067302 0.008175
v -0.022523 -0.066817 0.007930
v -0.021535 -0.066392 0.008060
v -0.020285 -0.065732 0.008039
v -0.019195 -0.065143 0.008794
v -0.018677 -0.064790 0.008794
v -0.018423 -0.064524 0.007998
v -0.019277 -0.065092 0.007946
v -0.027738 -0.068423 0.007717
v -0.026578 -0.068219 0.007951
v -0.021698 -0.063609 0.007717
v -0.028559 -0.066019 0.007717
v -0.047531 -0.063133 0.008700
v -0.057780 -0.058140 0.058972
v -0.056620 -0.060377 0.057994
v -0.057025 -0.059670 0.058374
v -0.054166 -0.061446 0.060680
v -0.054522 -0.060497 0.060768
v -0.056878 -0.058279 0.060253
v -0.056433 -0.059350 0.060196
v -0.053721 -0.061089 0.060841
v -0.051978 -0.063192 0.060836
v -0.057155 -0.059042 0.059430
v -0.056612 -0.059892 0.059550
v -0.045726 -0.067845 0.060846
v -0.049103 -0.066196 0.060784
v -0.040193 -0.070547 0.060820
v -0.038343 -0.070924 0.060841
v -0.035280 -0.071539 0.060826
v -0.032266 -0.072499 0.060716
v -0.030355 -0.072771 0.060617
v -0.028669 -0.073006 0.060409
v -0.027897 -0.072986 0.060378
v -0.033741 -0.073035 0.060446
v -0.031127 -0.073539 0.060154
v -0.029743 -0.073591 0.060040
v -0.028514 -0.073536 0.059956
v -0.029126 -0.073691 0.059852
v -0.030049 -0.073864 0.059738
v -0.030049 -0.074124 0.059217
v -0.028820 -0.073959 0.059217
v -0.026705 -0.073682 0.058847
v -0.027285 -0.073813 0.058608
v -0.026815 -0.073722 0.058108
v -0.026055 -0.073555 0.057988
v -0.027591 -0.068469 0.008175
v -0.028506 -0.068607 0.007946
v -0.034047 -0.068847 0.008700
v -0.035027 -0.068724 0.008700
v -0.036219 -0.068530 0.008700
v -0.037114 -0.068341 0.008700
v -0.037926 -0.068149 0.008700
v -0.038959 -0.067845 0.008700
v -0.039809 -0.067550 0.008700
v -0.041005 -0.067061 0.008700
v -0.043018 -0.066102 0.008700
v -0.043880 -0.065656 0.008700
v -0.044754 -0.065147 0.008700
v -0.045754 -0.064490 0.008700
v -0.046457 -0.063980 0.008700
v -0.048882 -0.068828 0.058301
v -0.050409 -0.067520 0.057879
v -0.050989 -0.066955 0.057567
v -0.052610 -0.065524 0.057994
v -0.053113 -0.065092 0.058301
v -0.053574 -0.064636 0.058301
v -0.054036 -0.064172 0.058301
v -0.054636 -0.063551 0.058608
v -0.055420 -0.062352 0.058020
v -0.055759 -0.061797 0.057994
v -0.056616 -0.060371 0.058608
v -0.055261 -0.062627 0.058587
v -0.053529 -0.062280 0.060680
v -0.054334 -0.062293 0.060295
v -0.055730 -0.060428 0.060191
v -0.055289 -0.062051 0.059566
v -0.052615 -0.062597 0.060815
v -0.051973 -0.063964 0.060701
v -0.050642 -0.065233 0.060716
v -0.054664 -0.063264 0.059253
v -0.045628 -0.068730 0.060737
v -0.042034 -0.070126 0.060789
v -0.050115 -0.065790 0.060695
v -0.048654 -0.067003 0.060664
v -0.038343 -0.071387 0.060800
v -0.036509 -0.071814 0.060779
v -0.037493 -0.072043 0.060669
v -0.035431 -0.072986 0.060362
v -0.033434 -0.073629 0.060071
v -0.032511 -0.073712 0.060014
v -0.032822 -0.074274 0.059144
v -0.031450 -0.074324 0.058853
v -0.029743 -0.074186 0.058608
v -0.028207 -0.073948 0.058296
v -0.029126 -0.074074 0.057988
v -0.029482 -0.068834 0.008700
v -0.030670 -0.068962 0.008700
v -0.031944 -0.068992 0.008700
v -0.033144 -0.068933 0.008700
v -0.034051 -0.074223 0.057994
v -0.035893 -0.073980 0.057994
v -0.037334 -0.073738 0.057916
v -0.039792 -0.073176 0.057994
v -0.041422 -0.072683 0.057994
v -0.042042 -0.072462 0.057994
v -0.042651 -0.072214 0.057994
v -0.044840 -0.071248 0.058191
v -0.047314 -0.069874 0.057994
v -0.048143 -0.069354 0.058301
v -0.048801 -0.068765 0.059217
v -0.050271 -0.067595 0.059155
v -0.050569 -0.067427 0.058608
v -0.052006 -0.066156 0.058608
v -0.052504 -0.065708 0.058608
v -0.052970 -0.065099 0.059399
v -0.053488 -0.064554 0.059389
v -0.053566 -0.063415 0.060232
v -0.052488 -0.064165 0.060446
v -0.052488 -0.063553 0.060659
v -0.055040 -0.061360 0.060237
v -0.054162 -0.062992 0.060024
v -0.054113 -0.063729 0.059514
v -0.051618 -0.064679 0.060591
v -0.051263 -0.065395 0.060461
v -0.048184 -0.067847 0.060461
v -0.046342 -0.069074 0.060435
v -0.044211 -0.069617 0.060690
v -0.041050 -0.070823 0.060711
v -0.050095 -0.066830 0.060269
v -0.040193 -0.071539 0.060571
v -0.038343 -0.072397 0.060394
v -0.037730 -0.072696 0.060305
v -0.036509 -0.072771 0.060394
v -0.036934 -0.073134 0.060081
v -0.035893 -0.073317 0.060050
v -0.036460 -0.073589 0.059618
v -0.035893 -0.073866 0.059217
v -0.033394 -0.074322 0.058780
v -0.032205 -0.074338 0.058884
v -0.031838 -0.074356 0.058077
v -0.030825 -0.074317 0.058395
v -0.033100 -0.074332 0.058202
v -0.035586 -0.074037 0.058608
v -0.036509 -0.073895 0.058301
v -0.038343 -0.073531 0.058301
v -0.038963 -0.073389 0.058301
v -0.040858 -0.072866 0.058275
v -0.042651 -0.072206 0.058608
v -0.043390 -0.071907 0.058238
v -0.045252 -0.071038 0.058613
v -0.045979 -0.070654 0.058535
v -0.047159 -0.069990 0.058608
v -0.047874 -0.069385 0.059222
v -0.048188 -0.068772 0.059852
v -0.049360 -0.068234 0.059430
v -0.051034 -0.066998 0.058832
v -0.052125 -0.065963 0.059311
v -0.051998 -0.065542 0.059998
v -0.052468 -0.065127 0.059946
v -0.052811 -0.064487 0.060154
v -0.049503 -0.067474 0.060180
v -0.048805 -0.068034 0.060133
v -0.047192 -0.069063 0.060164
v -0.045211 -0.069892 0.060341
v -0.043884 -0.070527 0.060352
v -0.043267 -0.070308 0.060576
v -0.041099 -0.071744 0.060295
v -0.040193 -0.072054 0.060300
v -0.039327 -0.072272 0.060321
v -0.038036 -0.073101 0.059883
v -0.039041 -0.073086 0.059561
v -0.038343 -0.073413 0.059217
v -0.037240 -0.073701 0.058946
v -0.039805 -0.073117 0.058884
v -0.041675 -0.072522 0.058905
v -0.043014 -0.071899 0.059306
v -0.043884 -0.071555 0.059217
v -0.044562 -0.071320 0.058926
v -0.045775 -0.070638 0.059217
v -0.046436 -0.070194 0.059363
v -0.049875 -0.067669 0.059691
v -0.045277 -0.070580 0.059758
v -0.045803 -0.070110 0.059956
v -0.044546 -0.070531 0.060170
v -0.043186 -0.071196 0.060112
v -0.041989 -0.071819 0.059967
v -0.040805 -0.072264 0.059951
v -0.040193 -0.072502 0.059899
v -0.040936 -0.072622 0.059415
v -0.043884 -0.071190 0.059805
f 1 2 3
f 1 3 4
f 1 4 5
f 1 5 6
f 1 6 7
f 1 7 8
f 1 8 9
f 1 9 10
f 1 10 11
f 1 11 12
f 1 12 13
f 1 13 14
f 1 14 15
f 1 15 16
f 1 16 17
f 1 17 2
f 2 18 3
f 2 17 18
f 3 18 19
f 3 19 20
f 3 20 21
f 3 21 22
f 3 22 44
f 3 44 48
f 3 48 27
f 3 27 26
f 3 26 25
f 3 25 24
f 3 24 23
f 3 23 6
f 3 6 5
f 3 5 4
f 6 23 7
f 7 23 8
f 8 23 24
f 8 24 25
f 8 25 9
f 9 25 26
f 9 26 10
f 10 26 11
f 11 26 27
f 11 27 12
f 12 27 28
f 12 28 13
f 13 29 30
f 13 30 14
f 13 28 29
f 14 30 29
f 14 29 31
f 14 31 15
f 15 32 33
f 15 33 16
f 15 31 32
f 16 33 34
f 16 34 35
f 16 35 17
f 17 36 37
f 17 37 38
f 17 38 19
f 17 19 18
f 17 35 36
f 19 38 20
f 20 39 40
f 20 40 41
f 20 41 42
f 20 42 21
f 20 38 39
f 21 43 44
f 21 44 22
f 21 42 43
f 27 45 46
f 27 46 47
f 27 47 28
f 27 48 45
f 28 47 49
f 28 49 50
f 28 50 51
f 28 51 52
f 28 52 29
f 29 53 54
f 29 54 31
f 29 52 55
f 29 55 53
f 31 54 32
f 32 56 33
f 32 54 56
f 33 56 57
f 33 57 58
f 33 58 34
f 34 58 59
f 34 59 60
f 34 60 35
f 35 60 36
f 36 60 59
f 36 59 61
f 36 61 62
f 36 62 63
f 36 63 37
f 37 63 64
f 37 64 65
f 37 65 66
f 37 66 67
f 37 67 68
f 37 68 69
f 37 69 70
f 37 70 71
f 37 71 39
f 37 39 38
f 39 71 72
f 39 72 73
f 39 73 40
f 40 74 77
f 40 77 76
f 40 76 41
f 40 73 69
f 40 69 67
f 40 67 66
f 40 66 65
f 40 65 75
f 40 75 74
f 41 76 42
f 42 76 77
f 42 77 78
f 42 78 43
f 43 79 48
f 43 48 44
f 43 78 80
f 43 80 81
f 43 81 79
f 45 82 83
f 45 83 46
f 45 48 84
f 45 84 85
f 45 85 82
f 46 86 47
f 46 83 86
f 47 86 87
f 47 87 49
f 48 88 89
f 48 89 85
f 48 85 84
f 48 79 88
f 49 90 50
f 49 87 91
f 49 91 90
f 50 90 92
f 50 92 93
f 50 93 94
f 50 94 51
f 51 94 52
f 52 94 95
f 52 95 55
f 53 55 96
f 53 96 54
f 54 96 97
f 54 97 98
f 54 98 56
f 55 99 96
f 55 95 99
f 56 100 101
f 56 101 102
f 56 102 57
f 56 98 97
f 56 97 100
f 57 103 104
f 57 104 105
f 57 105 106
f 57 106 58
f 57 102 103
f 58 106 107
f 58 107 59
f 59 107 61
f 61 108 109
f 61 109 110
f 61 110 62
f 61 107 108
f 62 110 63
f 63 110 111
f 63 111 75
f 63 75 64
f 64 75 65
f 67 69 68
f 69 73 70
f 70 73 72
f 70 72 71
f 74 75 111
f 74 111 112
f 74 112 113
f 74 113 114
f 74 114 115
f 74 115 116
f 74 116 117
f 74 117 118
f 74 118 119
f 74 119 120
f 74 120 121
f 74 121 122
f 74 122 123
f 74 123 124
f 74 124 125
f 74 125 78
f 74 78 77
f 78 125 126
f 78 126 127
f 78 127 128
f 78 128 129
f 78 129 130
f 78 130 131
f 78 131 132
f 78 132 133
f 78 133 134
f 78 134 135
f 78 135 80
f 79 81 136
f 79 136 88
f 80 135 137
f 80 137 136
f 80 136 81
f 82 138 83
f 82 85 139
f 82 139 138
f 83 138 86
f 85 140 139
f 85 89 141
f 85 141 140
f 86 138 142
f 86 142 87
f 87 142 143
f 87 143 144
f 87 144 91
f 88 136 89
f 89 136 137
f 89 137 145
f 89 145 141
f 90 91 146
f 90 146 147
f 90 147 92
f 91 144 148
f 91 148 149
f 91 149 146
f 92 150 93
f 92 147 150
f 93 150 94
f 94 150 151
f 94 151 95
f 95 151 152
f 95 152 99
f 96 99 100
f 96 100 97
f 99 152 153
f 99 153 154
f 99 154 100
f 100 154 155
f 100 155 101
f 101 155 104
f 101 104 103
f 101 103 102
f 104 155 156
f 104 156 105
f 105 156 157
f 105 157 158
f 105 158 106
f 106 158 108
f 106 108 107
f 108 158 159
f 108 159 109
f 109 159 160
f 109 160 112
f 109 112 111
f 109 111 110
f 112 160 161
f 112 161 162
f 112 162 163
f 112 163 164
f 112 164 113
f 113 164 165
f 113 165 114
f 114 165 166
f 114 166 167
f 114 167 115
f 115 167 116
f 116 167 168
f 116 168 117
f 117 168 118
f 118 168 169
f 118 169 119
f 119 169 170
f 119 170 171
f 119 171 120
f 120 171 172
f 120 172 121
f 121 172 122
f 122 172 173
f 122 173 123
f 123 173 124
f 124 173 174
f 124 174 126
f 124 126 125
f 126 174 175
f 126 175 176
f 126 176 177
f 126 177 127
f 127 177 178
f 127 178 179
f 127 179 128
f 128 179 129
f 129 179 130
f 130 179 131
f 131 179 132
f 132 179 133
f 133 137 134
f 133 179 180
f 133 180 181
f 133 181 145
f 133 145 137
f 134 137 135
f 138 139 182
f 138 182 183
f 138 183 184
f 138 184 143
f 138 143 142
f 139 140 185
f 139 185 186
f 139 186 182
f 140 141 186
f 140 186 185
f 141 145 187
f 141 187 186
f 143 184 188
f 143 188 144
f 144 188 189
f 144 189 148
f 145 181 187
f 146 149 190
f 146 190 191
f 146 191 192
f 146 192 147
f 147 192 193
f 147 193 150
f 148 189 194
f 148 194 149
f 149 194 190
f 150 193 195
f 150 195 152
f 150 152 151
f 152 195 196
f 152 196 197
f 152 197 198
f 152 198 153
f 153 198 199
f 153 199 154
f 154 199 200
f 154 200 201
f 154 201 156
f 154 156 155
f 156 201 202
f 156 202 203
f 156 203 204
f 156 204 157
f 157 204 205
f 157 205 206
f 157 206 158
f 158 206 160
f 158 160 159
f 160 206 161
f 161 206 162
f 162 206 205
f 162 205 163
f 163 205 207
f 163 207 164
f 164 207 165
f 165 207 203
f 165 203 208
f 165 208 166
f 166 208 209
f 166 209 167
f 167 209 210
f 167 210 211
f 167 211 168
f 168 211 212
f 168 212 169
f 169 212 170
f 170 212 213
f 170 213 171
f 171 213 214
f 171 214 172
f 172 214 215
f 172 215 216
f 172 216 173
f 173 216 217
f 173 217 174
f 174 217 175
f 175 217 218
f 175 218 219
f 175 219 220
f 175 220 176
f 176 221 177
f 176 220 222
f 176 222 221
f 177 221 178
f 178 221 222
f 178 222 179
f 179 222 180
f 180 222 223
f 180 223 224
f 180 224 181
f 181 224 187
f 182 186 225
f 182 225 183
f 183 189 188
f 183 188 184
f 183 225 189
f 186 187 225
f 187 224 225
f 189 225 223
f 189 223 194
f 190 194 226
f 190 226 227
f 190 227 228
f 190 228 191
f 191 228 229
f 191 229 192
f 192 229 230
f 192 230 231
f 192 231 193
f 193 231 195
f 194 223 226
f 195 231 230
f 195 230 232
f 195 232 233
f 195 233 234
f 195 234 196
f 196 234 197
f 197 234 235
f 197 235 199
f 197 199 198
f 199 235 201
f 199 201 200
f 201 235 236
f 201 236 237
f 201 237 202
f 202 237 238
f 202 238 208
f 202 208 203
f 203 207 205
f 203 205 204
f 208 238 209
f 209 238 210
f 210 238 211
f 211 238 237
f 211 237 239
f 211 239 212
f 212 239 240
f 212 240 213
f 213 240 241
f 213 241 242
f 213 242 243
f 213 243 215
f 213 215 214
f 215 243 244
f 215 244 216
f 216 244 217
f 217 244 218
f 218 244 245
f 218 245 219
f 219 246 220
f 219 245 247
f 219 247 248
f 219 248 228
f 219 228 227
f 219 227 226
f 219 226 246
f 220 246 222
f 222 246 223
f 223 225 224
f 223 246 226
f 228 248 249
f 228 249 229
f 229 249 230
f 230 249 250
f 230 250 232
f 232 250 251
f 232 251 252
f 232 252 233
f 233 252 253
f 233 253 234
f 234 253 235
f 235 253 236
f 236 254 237
f 236 253 254
f 237 254 239
f 239 254 240
f 240 254 241
f 241 254 251
f 241 251 255
f 241 255 242
f 242 244 243
f 242 255 247
f 242 247 244
f 244 247 245
f 247 255 249
f 247 249 248
f 249 255 250
f 250 255 251
f 251 254 252
f 252 254 253
