v -0.060731 -0.042633 0.058611
v -0.060722 -0.042019 0.058611
v -0.060730 -0.045431 0.058118
v -0.060708 -0.045091 0.059224
v -0.060699 -0.044477 0.059224
v -0.060637 -0.042019 0.057996
v -0.060661 -0.042633 0.057996
v -0.060670 -0.043247 0.059224
v -0.060654 -0.042633 0.059224
v -0.060630 -0.042019 0.059224
v -0.060693 -0.041403 0.058611
v -0.060613 -0.044477 0.057381
v -0.060664 -0.047544 0.057996
v -0.060677 -0.047544 0.058611
v -0.060334 -0.044477 0.060010
v -0.060686 -0.045707 0.059224
v -0.060555 -0.043247 0.057381
v -0.060597 -0.041403 0.057996
v -0.060572 -0.041403 0.059224
v -0.060274 -0.042454 0.059961
v -0.060604 -0.040786 0.058611
v -0.060529 -0.040786 0.057996
v -0.060463 -0.045586 0.057137
v -0.060532 -0.046932 0.057381
v -0.060418 -0.042633 0.057173
v -0.060639 -0.048165 0.057996
v -0.060599 -0.047544 0.059224
v -0.060630 -0.046932 0.059224
v -0.060646 -0.048165 0.058611
v -0.059878 -0.043865 0.060424
v -0.060102 -0.043057 0.060187
v -0.060187 -0.047048 0.060091
v -0.060177 -0.045464 0.060142
v -0.060381 -0.042019 0.057184
v -0.060198 -0.041403 0.059862
v -0.060343 -0.040786 0.059413
v -0.060254 -0.039441 0.058869
v -0.059836 -0.042019 0.060367
v -0.059716 -0.040786 0.060292
v -0.060463 -0.040173 0.058611
v -0.060204 -0.039320 0.058072
v -0.060308 -0.041069 0.057283
v -0.060326 -0.040068 0.057784
v -0.060314 -0.046318 0.056926
v -0.060294 -0.046932 0.056940
v -0.060385 -0.047544 0.057170
v -0.060354 -0.048165 0.057183
v -0.060109 -0.043865 0.056821
v -0.060117 -0.044477 0.056803
v -0.060579 -0.048776 0.057996
v -0.060542 -0.048165 0.059224
v -0.060197 -0.048776 0.059888
v -0.060576 -0.048776 0.058611
v -0.059878 -0.046318 0.060399
v -0.059399 -0.046318 0.060691
v -0.059281 -0.043865 0.060766
v -0.059279 -0.043247 0.060764
v -0.059264 -0.042633 0.060758
v -0.060034 -0.048165 0.060135
v -0.059734 -0.039556 0.056947
v -0.059878 -0.041403 0.056849
v -0.059622 -0.039941 0.060204
v -0.059537 -0.039130 0.060099
v -0.059544 -0.038326 0.059810
v -0.059597 -0.037789 0.059451
v -0.059702 -0.037504 0.058815
v -0.059987 -0.038326 0.058611
v -0.059557 -0.041403 0.060491
v -0.059289 -0.040786 0.060600
v -0.059001 -0.038942 0.060528
v -0.059140 -0.038326 0.060317
v -0.059936 -0.038326 0.057996
v -0.059908 -0.038942 0.057380
v -0.059672 -0.038400 0.057184
v -0.060116 -0.045091 0.056801
v -0.059878 -0.047544 0.056737
v -0.059878 -0.048165 0.056754
v -0.059987 -0.048994 0.056904
v -0.059770 -0.050622 0.056900
v -0.059708 -0.051236 0.056930
v -0.060199 -0.050006 0.057335
v -0.059878 -0.042019 0.056800
v -0.059264 -0.039556 0.056744
v -0.060492 -0.049392 0.057996
v -0.060496 -0.049392 0.058611
v -0.060469 -0.048776 0.059224
v -0.060150 -0.049392 0.059812
v -0.059917 -0.050622 0.059839
v -0.059688 -0.050006 0.060238
v -0.059741 -0.049392 0.060271
v -0.059619 -0.047544 0.060514
v -0.059386 -0.046932 0.060683
v -0.059067 -0.047544 0.060808
v -0.058649 -0.043247 0.060953
v -0.058649 -0.042633 0.060955
v -0.058937 -0.042019 0.060837
v -0.058649 -0.040786 0.060877
v -0.058807 -0.039742 0.060762
v -0.059080 -0.037096 0.056960
v -0.059471 -0.038942 0.056880
v -0.058997 -0.036561 0.059924
v -0.058902 -0.035945 0.059724
v -0.058952 -0.035565 0.059226
v -0.059396 -0.036482 0.058611
v -0.059384 -0.036482 0.057996
v -0.059679 -0.037451 0.057906
v -0.058102 -0.037214 0.060806
v -0.058709 -0.037041 0.060389
v -0.059026 -0.036461 0.057114
v -0.059263 -0.049392 0.056641
v -0.059263 -0.051236 0.056696
v -0.059263 -0.051850 0.056750
v -0.059181 -0.053083 0.056874
v -0.059053 -0.053896 0.056971
v -0.059739 -0.051989 0.057224
v -0.060396 -0.050006 0.057996
v -0.060100 -0.050845 0.057490
v -0.059172 -0.037710 0.056910
v -0.058035 -0.035866 0.056743
v -0.060407 -0.050006 0.058611
v -0.060389 -0.049392 0.059224
v -0.060214 -0.050405 0.059333
v -0.059537 -0.052469 0.059811
v -0.059624 -0.051565 0.059979
v -0.059120 -0.052469 0.060280
v -0.059197 -0.051850 0.060329
v -0.059448 -0.050622 0.060329
v -0.059095 -0.049916 0.060641
v -0.059354 -0.048165 0.060638
v -0.058848 -0.048165 0.060845
v -0.058602 -0.050006 0.060839
v -0.058034 -0.050006 0.060933
v -0.058035 -0.042633 0.061026
v -0.058035 -0.040786 0.060997
v -0.058035 -0.039904 0.060975
v -0.058035 -0.038942 0.060935
v -0.058035 -0.038326 0.060903
v -0.058574 -0.035866 0.056914
v -0.058476 -0.035866 0.060270
v -0.058409 -0.035271 0.060096
v -0.058435 -0.034414 0.059362
v -0.059099 -0.035641 0.058611
v -0.058630 -0.034488 0.058265
v -0.059011 -0.035537 0.057896
v -0.057420 -0.036482 0.060941
v -0.057849 -0.036482 0.060812
v -0.058372 -0.036482 0.060507
v -0.058220 -0.034492 0.057148
v -0.058649 -0.053083 0.056636
v -0.056375 -0.045563 0.056627
v -0.058649 -0.053697 0.056694
v -0.058561 -0.054934 0.056884
v -0.058339 -0.056159 0.057088
v -0.059039 -0.054463 0.057219
v -0.059629 -0.053189 0.057640
v -0.060049 -0.051850 0.057996
v -0.059915 -0.052469 0.057996
v -0.058226 -0.035150 0.056895
v -0.057420 -0.034488 0.056762
v -0.053944 -0.045348 0.056627
v -0.060053 -0.051850 0.058611
v -0.060204 -0.050968 0.058845
v -0.059950 -0.051850 0.059224
v -0.059806 -0.052469 0.059224
v -0.059538 -0.053066 0.059498
v -0.059085 -0.054167 0.059747
v -0.059043 -0.053083 0.060219
v -0.058187 -0.052948 0.060739
v -0.058034 -0.051850 0.060871
v -0.058034 -0.051236 0.060895
v -0.058034 -0.050622 0.060915
v -0.057420 -0.052469 0.060921
v -0.057420 -0.051850 0.060934
v -0.056232 -0.035908 0.061040
v -0.056804 -0.036482 0.061031
v -0.056804 -0.054315 0.060920
v -0.056189 -0.055547 0.060919
v -0.056189 -0.054934 0.060925
v -0.054346 -0.058005 0.060886
v -0.057420 -0.037710 0.060991
v -0.057420 -0.037096 0.060973
v -0.058079 -0.035229 0.060380
v -0.058005 -0.034488 0.060158
v -0.057292 -0.034402 0.060663
v -0.056564 -0.034340 0.057008
v -0.056804 -0.035866 0.061015
v -0.056804 -0.035250 0.060969
v -0.057458 -0.035389 0.060789
v -0.057997 -0.035859 0.060605
v -0.056327 -0.046664 0.056627
v -0.056268 -0.047551 0.056627
v -0.056219 -0.048167 0.056627
v -0.056146 -0.048781 0.056627
v -0.056056 -0.049397 0.056627
v -0.055906 -0.050268 0.056627
v -0.055704 -0.051241 0.056627
v -0.055538 -0.051920 0.056627
v -0.055361 -0.052513 0.056627
v -0.054981 -0.053701 0.056627
v -0.054751 -0.054336 0.056627
v -0.054503 -0.054964 0.056627
v -0.054160 -0.055761 0.056627
v -0.053358 -0.057317 0.056627
v -0.052972 -0.058005 0.056627
v -0.056804 -0.057394 0.056647
v -0.057672 -0.056775 0.056788
v -0.057645 -0.057419 0.056967
v -0.058313 -0.056692 0.057453
v -0.059430 -0.054167 0.057995
v -0.059013 -0.055267 0.057896
v -0.059921 -0.052469 0.058611
v -0.049965 -0.058005 0.056686
v -0.059673 -0.053326 0.058734
v -0.059305 -0.054167 0.059220
v -0.058994 -0.054899 0.059461
v -0.058299 -0.056259 0.059813
v -0.058249 -0.055557 0.060169
v -0.058034 -0.054934 0.060479
v -0.057489 -0.055547 0.060662
v -0.056804 -0.055547 0.060865
v -0.056804 -0.054934 0.060897
v -0.056232 -0.035292 0.061032
v -0.053438 -0.058005 0.060743
v -0.056189 -0.056164 0.060899
v -0.055574 -0.057394 0.060893
v -0.055071 -0.058005 0.060886
v -0.056503 -0.034488 0.060944
v -0.055182 -0.058005 0.057229
v -0.057057 -0.058003 0.056794
v -0.057804 -0.057989 0.057694
v -0.058685 -0.056164 0.057995
v -0.059172 -0.054934 0.058611
v -0.059444 -0.054132 0.058611
v -0.050123 -0.058005 0.057668
v -0.058933 -0.055471 0.058862
v -0.058616 -0.056164 0.059224
v -0.058355 -0.056819 0.059224
v -0.057792 -0.057896 0.059384
v -0.057642 -0.057197 0.060061
v -0.057644 -0.056581 0.060295
v -0.056899 -0.056775 0.060688
v -0.056283 -0.057046 0.060812
v -0.052500 -0.058005 0.060453
v -0.051854 -0.058005 0.060145
v -0.051255 -0.058005 0.059687
v -0.050814 -0.058005 0.059227
v -0.050460 -0.058005 0.058670
v -0.055873 -0.057973 0.060787
v -0.057227 -0.057968 0.060079
v -0.057919 -0.058003 0.058611
v -0.058300 -0.057137 0.058259
v -0.058710 -0.056164 0.058611
v -0.057290 -0.057394 0.060286
f 1 2 3
f 1 3 4
f 1 4 5
f 1 5 2
f 2 6 7
f 2 7 3
f 2 5 8
f 2 8 9
f 2 9 10
f 2 10 11
f 2 11 6
f 3 12 13
f 3 13 14
f 3 14 4
f 3 7 12
f 4 15 5
f 4 14 16
f 4 16 15
f 5 15 8
f 6 17 12
f 6 12 7
f 6 11 18
f 6 18 17
f 8 15 9
f 9 15 10
f 10 19 11
f 10 15 20
f 10 20 19
f 11 19 21
f 11 21 22
f 11 22 18
f 12 23 24
f 12 24 13
f 12 17 25
f 12 25 23
f 13 24 26
f 13 26 14
f 14 27 28
f 14 28 16
f 14 26 29
f 14 29 27
f 15 30 31
f 15 31 20
f 15 16 32
f 15 32 33
f 15 33 30
f 16 28 32
f 17 18 34
f 17 34 25
f 18 22 34
f 19 20 35
f 19 35 36
f 19 36 37
f 19 37 21
f 20 31 38
f 20 38 39
f 20 39 35
f 21 37 40
f 21 40 41
f 21 41 22
f 22 42 34
f 22 41 43
f 22 43 42
f 23 44 45
f 23 45 24
f 23 25 44
f 24 45 46
f 24 46 47
f 24 47 26
f 25 34 48
f 25 48 49
f 25 49 44
f 26 47 50
f 26 50 29
f 27 32 28
f 27 29 51
f 27 51 52
f 27 52 32
f 29 50 53
f 29 53 51
f 30 33 54
f 30 54 55
f 30 55 56
f 30 56 57
f 30 57 58
f 30 58 38
f 30 38 31
f 32 54 33
f 32 52 59
f 32 59 54
f 34 42 60
f 34 60 61
f 34 61 48
f 35 39 62
f 35 62 63
f 35 63 64
f 35 64 36
f 36 64 65
f 36 65 37
f 37 65 66
f 37 66 67
f 37 67 40
f 38 58 68
f 38 68 39
f 39 68 69
f 39 69 70
f 39 70 71
f 39 71 62
f 40 67 41
f 41 67 72
f 41 72 43
f 42 43 73
f 42 73 74
f 42 74 60
f 43 72 73
f 44 49 75
f 44 75 76
f 44 76 77
f 44 77 45
f 45 77 78
f 45 78 79
f 45 79 47
f 45 47 46
f 47 79 80
f 47 80 81
f 47 81 50
f 48 61 82
f 48 82 49
f 49 76 75
f 49 82 83
f 49 83 76
f 50 81 84
f 50 84 85
f 50 85 53
f 51 53 86
f 51 86 52
f 52 86 87
f 52 87 88
f 52 88 89
f 52 89 90
f 52 90 59
f 53 85 121
f 53 121 86
f 54 59 91
f 54 91 92
f 54 92 55
f 55 92 93
f 55 93 56
f 56 94 95
f 56 95 57
f 56 93 94
f 57 95 58
f 58 95 96
f 58 96 97
f 58 97 98
f 58 98 69
f 58 69 68
f 59 90 91
f 60 74 99
f 60 99 100
f 60 100 61
f 61 100 83
f 61 83 82
f 62 71 63
f 63 71 101
f 63 101 64
f 64 101 65
f 65 101 102
f 65 102 103
f 65 103 66
f 66 103 104
f 66 104 67
f 67 104 105
f 67 105 106
f 67 106 72
f 69 98 70
f 70 98 107
f 70 107 108
f 70 108 71
f 71 108 101
f 72 106 73
f 73 106 74
f 74 106 109
f 74 109 99
f 76 83 110
f 76 110 77
f 77 110 111
f 77 111 79
f 77 79 78
f 79 111 112
f 79 112 80
f 80 112 113
f 80 113 114
f 80 114 115
f 80 115 81
f 81 116 84
f 81 115 117
f 81 117 116
f 83 100 118
f 83 118 119
f 83 119 110
f 84 116 120
f 84 120 85
f 85 120 121
f 86 121 122
f 86 122 87
f 87 122 88
f 88 123 124
f 88 124 89
f 88 122 123
f 89 124 125
f 89 125 126
f 89 126 127
f 89 127 90
f 90 127 128
f 90 128 129
f 90 129 91
f 91 129 92
f 92 129 93
f 93 130 94
f 93 129 128
f 93 128 131
f 93 131 130
f 94 130 132
f 94 132 133
f 94 133 95
f 95 133 134
f 95 134 135
f 95 135 136
f 95 136 97
f 95 97 96
f 97 136 137
f 97 137 98
f 98 137 107
f 99 118 100
f 99 109 138
f 99 138 118
f 101 139 140
f 101 140 102
f 101 108 139
f 102 140 141
f 102 141 103
f 103 141 142
f 103 142 104
f 104 142 105
f 105 142 143
f 105 143 144
f 105 144 109
f 105 109 106
f 107 137 145
f 107 145 146
f 107 146 147
f 107 147 108
f 108 147 139
f 109 144 148
f 109 148 138
f 110 149 111
f 110 119 150
f 110 150 149
f 111 149 112
f 112 149 151
f 112 151 113
f 113 151 152
f 113 152 114
f 114 152 153
f 114 153 154
f 114 154 115
f 115 155 117
f 115 154 155
f 116 117 156
f 116 156 120
f 117 155 157
f 117 157 156
f 118 138 119
f 119 138 158
f 119 158 159
f 119 159 160
f 119 160 150
f 120 156 161
f 120 161 162
f 120 162 122
f 120 122 121
f 122 162 163
f 122 163 123
f 123 164 165
f 123 165 166
f 123 166 167
f 123 167 124
f 123 163 164
f 124 167 125
f 125 167 168
f 125 168 126
f 126 168 128
f 126 128 127
f 128 168 131
f 130 131 132
f 131 168 169
f 131 169 170
f 131 170 171
f 131 171 132
f 132 171 172
f 132 172 173
f 132 173 133
f 133 174 175
f 133 175 134
f 133 173 176
f 133 176 177
f 133 177 178
f 133 178 179
f 133 179 174
f 134 175 135
f 135 175 180
f 135 180 181
f 135 181 136
f 136 181 145
f 136 145 137
f 138 148 158
f 139 147 182
f 139 182 183
f 139 183 140
f 140 183 141
f 141 184 185
f 141 185 148
f 141 148 143
f 141 143 142
f 141 183 184
f 143 148 144
f 145 186 187
f 145 187 146
f 145 181 186
f 146 187 188
f 146 188 189
f 146 189 147
f 147 189 182
f 148 185 159
f 148 159 158
f 149 150 190
f 149 190 191
f 149 191 192
f 149 192 193
f 149 193 194
f 149 194 195
f 149 195 196
f 149 196 197
f 149 197 198
f 149 198 199
f 149 199 200
f 149 200 201
f 149 201 202
f 149 202 203
f 149 203 204
f 149 204 205
f 149 205 151
f 150 160 204
f 150 204 203
f 150 203 202
f 150 202 201
f 150 201 200
f 150 200 199
f 150 199 198
f 150 198 197
f 150 197 196
f 150 196 195
f 150 195 194
f 150 194 193
f 150 193 192
f 150 192 191
f 150 191 190
f 151 205 206
f 151 206 152
f 152 206 153
f 153 206 207
f 153 207 208
f 153 208 154
f 154 209 155
f 154 208 210
f 154 210 209
f 155 209 157
f 156 157 211
f 156 211 161
f 157 209 211
f 159 185 160
f 160 185 212
f 160 212 204
f 161 211 162
f 162 211 163
f 163 211 164
f 164 211 213
f 164 213 214
f 164 214 165
f 165 214 215
f 165 215 166
f 166 215 216
f 166 216 217
f 166 217 167
f 167 217 218
f 167 218 168
f 168 218 219
f 168 219 220
f 168 220 169
f 169 220 221
f 169 221 172
f 169 172 170
f 170 172 171
f 172 221 176
f 172 176 173
f 174 222 175
f 174 179 223
f 174 223 222
f 175 222 186
f 175 186 180
f 176 221 224
f 176 224 177
f 177 224 225
f 177 225 226
f 177 226 179
f 177 179 178
f 179 226 228
f 179 228 204
f 179 204 212
f 179 212 234
f 179 234 247
f 179 247 246
f 179 246 245
f 179 245 244
f 179 244 243
f 179 243 223
f 180 186 181
f 182 184 183
f 182 189 184
f 184 189 188
f 184 188 227
f 184 227 185
f 185 227 222
f 185 222 212
f 186 222 227
f 186 227 187
f 187 227 188
f 204 228 229
f 204 229 205
f 205 229 206
f 206 229 207
f 207 229 230
f 207 230 208
f 208 230 231
f 208 231 210
f 209 210 231
f 209 231 232
f 209 232 233
f 209 233 211
f 211 233 213
f 212 222 234
f 213 233 214
f 214 233 232
f 214 232 235
f 214 235 236
f 214 236 215
f 215 236 216
f 216 237 238
f 216 238 239
f 216 239 217
f 216 236 237
f 217 239 240
f 217 240 218
f 218 240 219
f 219 240 241
f 219 241 220
f 220 224 221
f 220 241 242
f 220 242 225
f 220 225 224
f 222 223 243
f 222 243 244
f 222 244 245
f 222 245 246
f 222 246 247
f 222 247 234
f 225 242 248
f 225 248 226
f 226 248 249
f 226 249 250
f 226 250 228
f 228 250 229
f 229 250 230
f 230 250 251
f 230 251 231
f 231 252 232
f 231 251 252
f 232 252 235
f 235 252 236
f 236 252 237
f 237 250 238
f 237 252 250
f 238 249 239
f 238 250 249
f 239 249 253
f 239 253 240
f 240 253 241
f 241 253 248
f 241 248 242
f 248 253 249
f 250 252 251
