v 0.022088 -0.004731 0.233975
v 0.022088 -0.021906 0.233163
v 0.024472 -0.019307 0.233474
v 0.024472 -0.002341 0.233957
v 0.031748 0.007344 0.233900
v 0.034166 0.012187 0.233869
v 0.022091 0.070345 0.233332
v 0.022088 0.067880 0.232941
v 0.022088 -0.022004 0.233123
v 0.022150 -0.021882 0.233163
v 0.026726 -0.019234 0.232879
v 0.029280 -0.016929 0.233003
v 0.031816 -0.014526 0.233092
v 0.034262 -0.012124 0.233074
v 0.039008 -0.004768 0.233265
v 0.029323 0.002502 0.233900
v 0.043856 0.002502 0.233110
v 0.048701 0.014614 0.232937
v 0.036593 0.019456 0.233793
v 0.039008 0.031581 0.233638
v 0.039008 0.033138 0.233616
v 0.039005 0.034020 0.233602
v 0.036590 0.048535 0.233380
v 0.040935 0.070332 0.232466
v 0.038936 0.072662 0.232466
v 0.026816 0.084810 0.232453
v 0.024249 0.087177 0.232440
v 0.022091 0.088770 0.232391
v 0.022091 0.089972 0.231037
v 0.022091 0.090094 0.230815
v 0.022091 0.091149 0.228361
v 0.022091 0.091173 0.226204
v 0.022088 0.067880 0.201082
v 0.022088 -0.023010 0.231929
v 0.024472 -0.021073 0.232799
v 0.028445 -0.018363 0.232582
v 0.031049 -0.016120 0.232710
v 0.033520 -0.013766 0.232710
v 0.035826 -0.011363 0.232679
v 0.036618 -0.009586 0.232963
v 0.041609 -0.002488 0.232981
v 0.045926 0.004929 0.232879
v 0.048186 0.009772 0.232786
v 0.050511 0.017041 0.232750
v 0.050765 0.019456 0.232817
v 0.051125 0.026738 0.232892
v 0.039008 0.029153 0.233642
v 0.050477 0.048535 0.232617
v 0.048118 0.055793 0.232595
v 0.039005 0.038863 0.233487
v 0.043797 0.065306 0.232493
v 0.042946 0.067513 0.232435
v 0.042639 0.069119 0.232284
v 0.040764 0.070774 0.232435
v 0.038076 0.074513 0.232391
v 0.035919 0.076977 0.232391
v 0.033535 0.079416 0.232391
v 0.031108 0.081660 0.232391
v 0.028523 0.083965 0.232391
v 0.025956 0.086269 0.232378
v 0.023293 0.088537 0.232293
v 0.040764 0.099301 0.222499
v 0.040764 0.101459 0.221185
v 0.040764 0.101741 0.220830
v 0.039005 0.101140 0.220679
v 0.037800 0.100637 0.220169
v 0.022091 0.091063 0.224864
v 0.022091 0.086968 0.199666
v 0.022088 0.033138 0.201073
v 0.022088 -0.023194 0.231073
v 0.025797 -0.020607 0.232400
v 0.029842 -0.017554 0.231073
v 0.031288 -0.016341 0.231073
v 0.032499 -0.015237 0.231073
v 0.034982 -0.012835 0.231073
v 0.033768 -0.014024 0.231073
v 0.036071 -0.011621 0.231073
v 0.037282 -0.010199 0.231073
v 0.038067 -0.008752 0.232542
v 0.038930 -0.007024 0.232799
v 0.040802 -0.004768 0.232706
v 0.042996 -0.001764 0.232595
v 0.043825 0.000295 0.232759
v 0.045380 0.002502 0.232559
v 0.047798 0.007847 0.232559
v 0.049986 0.013155 0.232364
v 0.050188 0.014614 0.232542
v 0.052364 0.022963 0.232311
v 0.052466 0.024311 0.232413
v 0.052628 0.026738 0.232551
v 0.052708 0.029153 0.232595
v 0.052718 0.033138 0.232582
v 0.052718 0.034020 0.232577
v 0.052674 0.036435 0.232551
v 0.050250 0.050950 0.232533
v 0.052559 0.038863 0.232471
v 0.052426 0.041266 0.232360
v 0.047798 0.057779 0.232493
v 0.045113 0.064374 0.232311
v 0.040764 0.098712 0.222770
v 0.037530 0.076131 0.232164
v 0.040367 0.071779 0.232360
v 0.035153 0.078595 0.232218
v 0.032728 0.081022 0.232204
v 0.048760 0.072882 0.225876
v 0.040764 0.102047 0.218731
v 0.040764 0.099093 0.204748
v 0.040764 0.067880 0.188638
v 0.022091 0.067880 0.199666
v 0.022088 -0.020080 0.201073
v 0.022088 -0.022985 0.228654
v 0.022706 -0.022605 0.228654
v 0.022867 -0.022691 0.231073
v 0.024472 -0.021600 0.231073
v 0.025860 -0.020656 0.231073
v 0.027070 -0.019724 0.231073
v 0.028631 -0.018511 0.231073
v 0.028538 -0.018449 0.228654
v 0.029755 -0.017444 0.228654
v 0.031164 -0.016243 0.228654
v 0.032378 -0.015139 0.228654
v 0.033647 -0.013926 0.228654
v 0.034858 -0.012724 0.228654
v 0.036003 -0.011498 0.228654
v 0.037214 -0.010150 0.228654
v 0.038238 -0.008936 0.228654
v 0.038266 -0.008985 0.231073
v 0.040299 -0.006092 0.232378
v 0.045091 0.001251 0.232311
v 0.047432 0.006229 0.232062
v 0.049738 0.011500 0.231073
v 0.050138 0.012714 0.231073
v 0.050716 0.014614 0.231073
v 0.051374 0.017041 0.231073
v 0.052162 0.021344 0.231823
v 0.049089 0.009772 0.231073
v 0.052413 0.020388 0.230207
v 0.052522 0.022043 0.231037
v 0.052873 0.024311 0.231073
v 0.053192 0.026738 0.231073
v 0.053391 0.029153 0.231073
v 0.053478 0.031581 0.231073
v 0.053500 0.034020 0.231073
v 0.053422 0.036435 0.231073
v 0.050020 0.052495 0.232373
v 0.052348 0.042516 0.232293
v 0.053242 0.038863 0.231073
v 0.047450 0.059397 0.232262
v 0.048760 0.072882 0.224065
v 0.051135 0.050950 0.231073
v 0.052426 0.047665 0.230092
v 0.053099 0.043693 0.228650
v 0.050076 0.046010 0.201082
v 0.049930 0.046782 0.201082
v 0.049871 0.047076 0.201082
v 0.050340 0.044453 0.201082
v 0.050467 0.043693 0.201082
v 0.050790 0.041266 0.201082
v 0.051013 0.038863 0.201082
v 0.051141 0.036435 0.201082
v 0.051169 0.034940 0.201082
v 0.051184 0.034020 0.201082
v 0.051156 0.033138 0.201073
v 0.051113 0.031581 0.201073
v 0.050945 0.029153 0.201073
v 0.050802 0.027658 0.201073
v 0.050712 0.026738 0.201073
v 0.050520 0.025243 0.201073
v 0.050393 0.024311 0.201073
v 0.050061 0.022386 0.201073
v 0.049971 0.021920 0.201073
v 0.049815 0.021173 0.201073
v 0.049443 0.019456 0.201073
v 0.048819 0.017041 0.201073
v 0.048096 0.014614 0.201073
v 0.047605 0.013094 0.201073
v 0.047441 0.012628 0.201073
v 0.047168 0.011880 0.201073
v 0.046659 0.010593 0.201073
v 0.046333 0.009772 0.201073
v 0.045780 0.008472 0.201073
v 0.045448 0.007700 0.201073
v 0.044905 0.006486 0.201073
v 0.044129 0.004929 0.201073
v 0.043083 0.002931 0.201073
v 0.042400 0.001717 0.201073
v 0.041798 0.000712 0.201073
v 0.041419 0.000087 0.201073
v 0.040811 -0.000906 0.201073
v 0.040445 -0.001482 0.201073
v 0.039641 -0.002696 0.201073
v 0.038427 -0.004412 0.201073
v 0.038086 -0.004878 0.201073
v 0.037530 -0.005626 0.201073
v 0.035953 -0.007624 0.201073
v 0.035357 -0.008372 0.201073
v 0.033461 -0.010419 0.201073
v 0.033017 -0.010898 0.201073
v 0.032561 -0.011363 0.201073
v 0.030602 -0.013337 0.201073
v 0.029323 -0.014490 0.201073
v 0.028032 -0.015617 0.201073
v 0.027287 -0.016243 0.201073
v 0.025313 -0.017824 0.201073
v 0.024103 -0.018707 0.201073
v 0.025807 -0.020607 0.229204
v 0.039448 -0.007404 0.228654
v 0.039473 -0.007440 0.231073
v 0.040401 -0.006227 0.231073
v 0.041475 -0.004768 0.231073
v 0.042506 -0.003346 0.231073
v 0.045160 0.001129 0.231073
v 0.045846 0.002502 0.231073
v 0.047584 0.005934 0.230443
v 0.043226 -0.002132 0.231073
v 0.048000 0.007160 0.231184
v 0.050194 0.012591 0.228654
v 0.049778 0.011390 0.228654
v 0.050843 0.014614 0.228654
v 0.051973 0.019530 0.231037
v 0.049160 0.009772 0.228654
v 0.051516 0.017041 0.228654
v 0.052413 0.020388 0.229200
v 0.053034 0.024311 0.228654
v 0.053360 0.026738 0.228654
v 0.053593 0.029153 0.228654
v 0.053748 0.031581 0.228654
v 0.053683 0.033138 0.229524
v 0.053798 0.034020 0.228650
v 0.053742 0.036435 0.228650
v 0.053615 0.038863 0.228650
v 0.052137 0.044147 0.232080
v 0.052686 0.043472 0.231188
v 0.052572 0.046108 0.230487
v 0.053006 0.041266 0.231073
v 0.053410 0.041266 0.228650
v 0.052901 0.043693 0.226222
v 0.052680 0.043693 0.223808
v 0.052981 0.041266 0.223808
v 0.052395 0.042835 0.219734
v 0.053410 0.038863 0.226222
v 0.053531 0.036435 0.226222
v 0.053574 0.034020 0.226222
v 0.051159 0.033138 0.201082
v 0.052581 0.021700 0.228494
v 0.048161 0.007344 0.228654
v 0.047565 0.005983 0.228654
v 0.046988 0.004782 0.228654
v 0.045693 0.002269 0.228428
v 0.045172 0.001116 0.229085
v 0.043210 -0.002046 0.228654
v 0.042453 -0.003260 0.228654
v 0.041398 -0.004768 0.228654
v 0.040376 -0.006190 0.228654
v 0.053211 0.041266 0.226222
f 1 2 3
f 1 3 4
f 1 4 5
f 1 5 6
f 1 6 7
f 1 7 8
f 1 8 33
f 1 33 69
f 1 69 110
f 1 110 111
f 1 111 70
f 1 70 34
f 1 34 9
f 1 9 2
f 2 9 10
f 2 10 3
f 3 10 11
f 3 11 12
f 3 12 13
f 3 13 14
f 3 14 15
f 3 15 16
f 3 16 4
f 4 16 5
f 5 16 15
f 5 15 6
f 6 15 17
f 6 17 18
f 6 18 19
f 6 19 7
f 7 19 20
f 7 20 21
f 7 21 22
f 7 22 23
f 7 23 24
f 7 24 25
f 7 25 26
f 7 26 27
f 7 27 28
f 7 28 8
f 8 28 29
f 8 29 30
f 8 30 31
f 8 31 32
f 8 32 33
f 9 34 35
f 9 35 10
f 10 35 11
f 11 36 37
f 11 37 12
f 11 35 36
f 12 37 13
f 13 38 14
f 13 37 38
f 14 38 39
f 14 39 40
f 14 40 15
f 15 41 17
f 15 40 41
f 17 41 42
f 17 42 43
f 17 43 18
f 18 43 44
f 18 44 45
f 18 45 46
f 18 46 19
f 19 46 47
f 19 47 20
f 20 47 46
f 20 46 21
f 21 46 48
f 21 48 22
f 22 48 49
f 22 49 50
f 22 50 23
f 23 49 51
f 23 51 24
f 23 50 49
f 24 51 52
f 24 52 53
f 24 53 54
f 24 54 55
f 24 55 25
f 25 55 56
f 25 56 57
f 25 57 26
f 26 57 58
f 26 58 59
f 26 59 27
f 27 59 60
f 27 60 61
f 27 61 28
f 28 61 62
f 28 62 63
f 28 63 29
f 29 63 64
f 29 64 30
f 30 64 65
f 30 65 31
f 31 65 66
f 31 66 32
f 32 67 33
f 32 66 67
f 33 67 68
f 33 68 69
f 34 70 71
f 34 71 35
f 35 71 36
f 36 72 73
f 36 73 37
f 36 71 72
f 37 74 38
f 37 73 74
f 38 75 39
f 38 74 76
f 38 76 75
f 39 75 77
f 39 77 78
f 39 78 79
f 39 79 80
f 39 80 40
f 40 80 41
f 41 80 81
f 41 81 82
f 41 82 83
f 41 83 42
f 42 83 84
f 42 84 85
f 42 85 43
f 43 85 86
f 43 86 87
f 43 87 44
f 44 88 89
f 44 89 90
f 44 90 45
f 44 87 88
f 45 90 91
f 45 91 46
f 46 91 92
f 46 92 93
f 46 93 94
f 46 94 48
f 48 95 49
f 48 94 96
f 48 96 97
f 48 97 95
f 49 95 98
f 49 98 51
f 51 98 52
f 52 98 99
f 52 99 53
f 53 99 100
f 53 100 101
f 53 101 102
f 53 102 54
f 54 102 55
f 55 101 56
f 55 102 101
f 56 101 103
f 56 103 57
f 57 103 104
f 57 104 58
f 58 104 59
f 59 104 60
f 60 104 100
f 60 100 61
f 61 100 62
f 62 100 105
f 62 105 63
f 63 105 64
f 64 106 65
f 64 105 106
f 65 106 66
f 66 106 107
f 66 107 68
f 66 68 67
f 68 107 108
f 68 108 109
f 68 109 110
f 68 110 69
f 70 111 112
f 70 112 113
f 70 113 71
f 71 113 114
f 71 114 115
f 71 115 116
f 71 116 117
f 71 117 72
f 72 117 118
f 72 118 119
f 72 119 73
f 73 120 121
f 73 121 74
f 73 119 120
f 74 121 122
f 74 122 76
f 75 76 122
f 75 122 123
f 75 123 124
f 75 124 125
f 75 125 77
f 77 125 78
f 78 125 126
f 78 126 127
f 78 127 128
f 78 128 79
f 79 128 81
f 79 81 80
f 81 128 82
f 82 129 84
f 82 84 83
f 82 128 129
f 84 129 85
f 85 130 86
f 85 129 130
f 86 131 132
f 86 132 133
f 86 133 134
f 86 134 135
f 86 135 88
f 86 88 87
f 86 130 136
f 86 136 131
f 88 135 137
f 88 137 138
f 88 138 139
f 88 139 140
f 88 140 89
f 89 140 90
f 90 140 141
f 90 141 91
f 91 141 142
f 91 142 143
f 91 143 92
f 92 143 93
f 93 143 94
f 94 143 144
f 94 144 96
f 95 145 98
f 95 97 146
f 95 146 145
f 96 144 147
f 96 147 97
f 97 147 146
f 98 148 99
f 98 145 148
f 99 148 100
f 100 104 103
f 100 103 101
f 100 148 105
f 105 149 106
f 105 148 145
f 105 145 150
f 105 150 151
f 105 151 152
f 105 152 149
f 106 149 107
f 107 149 153
f 107 153 154
f 107 154 155
f 107 155 108
f 108 155 154
f 108 154 153
f 108 153 156
f 108 156 157
f 108 157 158
f 108 158 159
f 108 159 160
f 108 160 161
f 108 161 162
f 108 162 163
f 108 163 164
f 108 164 165
f 108 165 166
f 108 166 167
f 108 167 168
f 108 168 169
f 108 169 170
f 108 170 171
f 108 171 172
f 108 172 173
f 108 173 174
f 108 174 175
f 108 175 176
f 108 176 177
f 108 177 178
f 108 178 179
f 108 179 180
f 108 180 181
f 108 181 182
f 108 182 183
f 108 183 184
f 108 184 185
f 108 185 186
f 108 186 187
f 108 187 188
f 108 188 189
f 108 189 190
f 108 190 191
f 108 191 192
f 108 192 193
f 108 193 194
f 108 194 195
f 108 195 196
f 108 196 197
f 108 197 198
f 108 198 199
f 108 199 200
f 108 200 201
f 108 201 202
f 108 202 203
f 108 203 204
f 108 204 205
f 108 205 110
f 108 110 109
f 110 205 206
f 110 206 112
f 110 112 111
f 112 206 113
f 113 206 114
f 114 206 115
f 115 206 116
f 116 206 117
f 117 206 118
f 118 204 203
f 118 203 119
f 118 206 204
f 119 203 202
f 119 202 120
f 120 202 201
f 120 201 200
f 120 200 121
f 121 200 122
f 122 200 123
f 123 199 198
f 123 198 124
f 123 200 199
f 124 198 197
f 124 197 196
f 124 196 125
f 125 196 126
f 126 196 195
f 126 195 207
f 126 207 127
f 127 207 208
f 127 208 128
f 128 208 209
f 128 209 210
f 128 210 211
f 128 211 129
f 129 212 213
f 129 213 214
f 129 214 130
f 129 211 215
f 129 215 212
f 130 214 216
f 130 216 136
f 131 217 132
f 131 136 218
f 131 218 217
f 132 217 219
f 132 219 133
f 133 219 137
f 133 137 134
f 134 137 220
f 134 220 135
f 135 220 137
f 136 216 214
f 136 214 221
f 136 221 218
f 137 219 222
f 137 222 223
f 137 223 224
f 137 224 225
f 137 225 139
f 137 139 138
f 139 225 140
f 140 225 226
f 140 226 141
f 141 226 227
f 141 227 142
f 142 228 143
f 142 227 228
f 143 228 229
f 143 229 230
f 143 230 144
f 144 230 231
f 144 231 147
f 145 146 232
f 145 232 150
f 146 233 234
f 146 234 232
f 146 147 235
f 146 235 233
f 147 231 236
f 147 236 235
f 149 152 237
f 149 237 238
f 149 238 157
f 149 157 156
f 149 156 153
f 150 232 234
f 150 234 151
f 151 234 236
f 151 236 152
f 152 236 255
f 152 255 237
f 157 238 158
f 158 239 159
f 158 238 240
f 158 240 239
f 159 239 241
f 159 241 160
f 160 241 242
f 160 242 161
f 161 242 243
f 161 243 162
f 162 243 227
f 162 227 244
f 162 244 164
f 162 164 163
f 164 244 227
f 164 227 226
f 164 226 165
f 165 226 166
f 166 226 225
f 166 225 167
f 167 225 168
f 168 225 224
f 168 224 169
f 169 224 245
f 169 245 170
f 170 245 223
f 170 223 171
f 171 223 172
f 172 223 173
f 173 223 222
f 173 222 174
f 174 222 219
f 174 219 175
f 175 219 217
f 175 217 176
f 176 217 218
f 176 218 177
f 177 218 178
f 178 218 221
f 178 221 179
f 179 221 180
f 180 221 246
f 180 246 181
f 181 246 182
f 182 246 247
f 182 247 183
f 183 247 248
f 183 248 184
f 184 248 249
f 184 249 250
f 184 250 185
f 185 250 186
f 186 250 187
f 187 250 251
f 187 251 188
f 188 251 189
f 189 251 252
f 189 252 190
f 190 252 191
f 191 252 253
f 191 253 192
f 192 253 254
f 192 254 193
f 193 254 194
f 194 254 207
f 194 207 195
f 204 206 205
f 207 254 209
f 207 209 208
f 209 254 210
f 210 254 211
f 211 254 253
f 211 253 252
f 211 252 251
f 211 251 250
f 211 250 215
f 212 250 214
f 212 214 213
f 212 215 250
f 214 247 246
f 214 246 221
f 214 250 248
f 214 248 247
f 223 245 224
f 227 243 229
f 227 229 228
f 229 243 242
f 229 242 230
f 230 242 241
f 230 241 231
f 231 241 255
f 231 255 236
f 233 235 234
f 234 235 236
f 237 255 238
f 238 255 239
f 238 239 240
f 239 255 241
f 248 250 249
