v 0.040777 0.072894 0.221544
v 0.046879 0.072898 0.227148
v 0.040777 0.072902 0.230871
v 0.040775 0.072898 0.210992
v 0.041089 0.072898 0.206256
v 0.049487 0.073692 0.225035
v 0.050582 0.077632 0.225373
v 0.055011 0.084225 0.222730
v 0.054839 0.086948 0.222094
v 0.051260 0.089260 0.222653
v 0.045269 0.096429 0.222296
v 0.041188 0.098192 0.222817
v 0.040769 0.094248 0.224158
v 0.040769 0.091015 0.225007
v 0.040769 0.086995 0.225913
v 0.040769 0.086671 0.209536
v 0.040769 0.086671 0.206825
v 0.043665 0.098587 0.132336
v 0.044517 0.095500 0.132336
v 0.047957 0.091501 0.132336
v 0.049781 0.089560 0.132336
v 0.051832 0.087754 0.132336
v 0.054793 0.086924 0.132336
v 0.066917 0.093971 0.206459
v 0.057577 0.084181 0.220570
v 0.054963 0.081762 0.222750
v 0.066928 0.096077 0.133243
v 0.058406 0.086995 0.220174
v 0.056711 0.089880 0.220338
v 0.053560 0.089746 0.221708
v 0.051136 0.092169 0.221737
v 0.048749 0.097943 0.220464
v 0.046480 0.100235 0.220387
v 0.043527 0.098627 0.222045
v 0.043236 0.102820 0.219943
v 0.040961 0.101923 0.219827
v 0.040769 0.098089 0.204327
v 0.044525 0.101069 0.139001
v 0.044610 0.100947 0.136570
v 0.052208 0.110483 0.136570
v 0.053487 0.110373 0.133484
v 0.060632 0.105124 0.132336
v 0.062422 0.103274 0.132336
v 0.066510 0.098627 0.132625
v 0.069667 0.098374 0.185008
v 0.069556 0.098342 0.189156
v 0.069429 0.098484 0.192290
v 0.068235 0.097006 0.201984
v 0.066052 0.094583 0.209266
v 0.064691 0.092758 0.212314
v 0.061865 0.089430 0.216316
v 0.060086 0.087323 0.218342
v 0.068343 0.099429 0.153536
v 0.069135 0.098899 0.162844
v 0.060109 0.090556 0.218130
v 0.058462 0.092971 0.217966
v 0.055339 0.092184 0.220039
v 0.052918 0.093916 0.220396
v 0.052873 0.098777 0.218043
v 0.048890 0.102626 0.218014
v 0.045671 0.105211 0.217541
v 0.047108 0.108238 0.212535
v 0.042132 0.103634 0.217126
v 0.053557 0.110780 0.136570
v 0.049705 0.110535 0.206845
v 0.052581 0.112495 0.197132
v 0.053951 0.113270 0.189869
v 0.054861 0.112878 0.163210
v 0.057800 0.107962 0.133243
v 0.055235 0.110637 0.136570
v 0.060346 0.106195 0.136570
v 0.062029 0.104294 0.135480
v 0.064459 0.101871 0.136570
v 0.064131 0.101579 0.133243
v 0.065183 0.101488 0.139001
v 0.066578 0.100243 0.141422
v 0.067158 0.099903 0.144200
v 0.068117 0.099429 0.151115
v 0.069307 0.099259 0.170483
v 0.069375 0.099717 0.175334
v 0.069194 0.100362 0.180176
v 0.069002 0.099093 0.195145
v 0.067409 0.098907 0.201984
v 0.066835 0.097283 0.205620
v 0.064793 0.096421 0.209854
v 0.063166 0.095975 0.212130
v 0.061707 0.092046 0.216210
v 0.066812 0.101777 0.153536
v 0.066926 0.101911 0.155957
v 0.068527 0.099429 0.155957
v 0.066691 0.101634 0.151115
v 0.069050 0.099947 0.168062
v 0.060850 0.094599 0.215323
v 0.058352 0.097540 0.215178
v 0.051153 0.101235 0.217589
v 0.050632 0.104930 0.215381
v 0.049071 0.107685 0.213924
v 0.051495 0.110238 0.208436
v 0.055280 0.112570 0.158715
v 0.053560 0.111969 0.201984
v 0.053965 0.112704 0.198617
v 0.053826 0.113234 0.192290
v 0.054935 0.113246 0.187429
v 0.054974 0.113230 0.185008
v 0.056641 0.112562 0.168062
v 0.055871 0.113198 0.182587
v 0.056445 0.109720 0.136570
v 0.058457 0.107958 0.136570
v 0.055481 0.110792 0.138991
v 0.056689 0.109922 0.138991
v 0.058683 0.108163 0.138991
v 0.058920 0.108377 0.141730
v 0.061158 0.105812 0.138991
v 0.064006 0.103065 0.140313
v 0.065367 0.101709 0.141422
v 0.066527 0.101334 0.147604
v 0.068626 0.101105 0.177755
v 0.068068 0.101852 0.180176
v 0.068620 0.101116 0.182578
v 0.068586 0.101113 0.185008
v 0.067016 0.102014 0.194711
v 0.066728 0.101678 0.197132
v 0.067121 0.100421 0.199370
v 0.067228 0.102251 0.192290
v 0.066405 0.100113 0.201984
v 0.064425 0.099401 0.206806
v 0.062196 0.099310 0.209941
v 0.060804 0.098476 0.212265
v 0.060589 0.096765 0.213924
v 0.064388 0.104235 0.151115
v 0.064518 0.104357 0.153536
v 0.064694 0.104424 0.155957
v 0.066798 0.102310 0.158474
v 0.066911 0.102401 0.160905
v 0.064374 0.103788 0.147624
v 0.067061 0.102492 0.164503
v 0.067958 0.101852 0.172913
v 0.057368 0.099607 0.214378
v 0.053905 0.103100 0.214407
v 0.052607 0.106689 0.212256
v 0.051026 0.108562 0.211590
v 0.053736 0.110610 0.205572
v 0.056358 0.112440 0.163210
v 0.055981 0.112100 0.155957
v 0.055981 0.111906 0.153536
v 0.056222 0.110539 0.201627
v 0.056479 0.111538 0.198183
v 0.056256 0.112878 0.192290
v 0.054870 0.112934 0.194711
v 0.058929 0.110784 0.165641
v 0.058841 0.110709 0.163210
v 0.058751 0.110629 0.160789
v 0.056875 0.112641 0.172913
v 0.056714 0.112811 0.188914
v 0.057079 0.112704 0.182587
v 0.057065 0.112704 0.180186
v 0.055699 0.110926 0.141422
v 0.057633 0.110709 0.151115
v 0.057322 0.109894 0.142502
v 0.057880 0.109875 0.145936
v 0.059865 0.108151 0.146264
v 0.060185 0.107527 0.143949
v 0.061777 0.105717 0.142222
v 0.064148 0.103500 0.143881
v 0.068020 0.101852 0.175334
v 0.066298 0.103887 0.181507
v 0.066258 0.103855 0.185008
v 0.066292 0.103879 0.177765
v 0.067299 0.102512 0.188799
v 0.064699 0.104543 0.194711
v 0.064394 0.104227 0.197132
v 0.064558 0.103168 0.199852
v 0.065180 0.104658 0.191017
v 0.064335 0.101765 0.203218
v 0.062425 0.103440 0.203874
v 0.062422 0.101053 0.207549
v 0.059529 0.101769 0.210327
v 0.057102 0.101777 0.212796
v 0.057512 0.103385 0.210809
v 0.062615 0.106092 0.151115
v 0.062748 0.106227 0.153536
v 0.063585 0.105835 0.158378
v 0.063687 0.105942 0.160789
v 0.064377 0.105409 0.163210
v 0.062462 0.105930 0.148685
v 0.062304 0.105764 0.146264
v 0.064451 0.105484 0.165805
v 0.067078 0.102678 0.167936
v 0.067155 0.102713 0.170328
v 0.055928 0.105436 0.210259
v 0.053218 0.108061 0.210105
v 0.057580 0.108278 0.203835
v 0.054420 0.109041 0.207288
v 0.058646 0.110539 0.158378
v 0.055981 0.111467 0.148685
v 0.058971 0.108472 0.200566
v 0.058326 0.110270 0.197132
v 0.058652 0.110566 0.194711
v 0.058901 0.110792 0.191914
v 0.058403 0.111503 0.172913
v 0.059198 0.110720 0.169431
v 0.061517 0.108657 0.170492
v 0.062091 0.107974 0.167155
v 0.061288 0.108341 0.160789
v 0.057721 0.112151 0.177765
v 0.058841 0.111080 0.189001
v 0.057741 0.112139 0.185008
v 0.058403 0.111602 0.182587
v 0.058403 0.111606 0.180186
v 0.055981 0.111246 0.146264
v 0.058844 0.109661 0.151115
v 0.058080 0.110048 0.148685
v 0.058530 0.110436 0.155957
v 0.058389 0.110313 0.153536
v 0.060799 0.107875 0.151115
v 0.060637 0.107725 0.148685
v 0.061076 0.106982 0.146264
v 0.066292 0.103820 0.174331
v 0.064643 0.105677 0.180186
v 0.064043 0.106278 0.182587
v 0.064015 0.106250 0.185008
v 0.064552 0.105586 0.188181
v 0.064626 0.105658 0.175334
v 0.060830 0.107902 0.197132
v 0.061345 0.108116 0.194219
v 0.059993 0.105891 0.203932
v 0.062804 0.107223 0.190274
v 0.058493 0.105567 0.206883
v 0.060937 0.108009 0.153536
v 0.061059 0.108128 0.155957
v 0.062866 0.106345 0.155957
v 0.062575 0.107258 0.163210
v 0.063967 0.106191 0.170492
v 0.056839 0.107598 0.206150
v 0.061178 0.108238 0.158378
v 0.060604 0.109408 0.189946
v 0.058403 0.111570 0.175334
v 0.060298 0.109855 0.172913
v 0.062207 0.108088 0.172913
v 0.060898 0.109270 0.187429
v 0.059713 0.110428 0.185008
v 0.060349 0.109898 0.180186
v 0.060349 0.109898 0.177765
v 0.064009 0.106239 0.172913
v 0.062250 0.108128 0.180186
v 0.064049 0.106278 0.177765
v 0.062244 0.108128 0.177765
v 0.062236 0.108116 0.182587
v 0.062210 0.108092 0.185008
v 0.062779 0.107432 0.187699
v 0.062227 0.108108 0.175334
v 0.060332 0.109879 0.175334
v 0.060335 0.109886 0.182587
f 1 2 3
f 1 3 4
f 1 4 5
f 1 5 2
f 2 6 7
f 2 7 3
f 2 5 6
f 3 7 8
f 3 8 9
f 3 9 10
f 3 10 11
f 3 11 12
f 3 12 13
f 3 13 14
f 3 14 15
f 3 15 4
f 4 15 16
f 4 16 17
f 4 17 18
f 4 18 5
f 5 18 19
f 5 19 20
f 5 20 21
f 5 21 22
f 5 22 23
f 5 23 6
f 6 24 25
f 6 25 26
f 6 26 7
f 6 23 27
f 6 27 24
f 7 26 8
f 8 26 28
f 8 28 29
f 8 29 9
f 9 30 10
f 9 29 30
f 10 30 31
f 10 31 11
f 11 31 32
f 11 32 33
f 11 33 34
f 11 34 12
f 12 35 36
f 12 36 13
f 12 34 35
f 13 36 37
f 13 37 17
f 13 17 16
f 13 16 15
f 13 15 14
f 17 37 18
f 18 37 36
f 18 36 38
f 18 38 39
f 18 39 40
f 18 40 41
f 18 41 42
f 18 42 43
f 18 43 23
f 18 23 22
f 18 22 21
f 18 21 20
f 18 20 19
f 23 43 44
f 23 44 27
f 24 45 46
f 24 46 47
f 24 47 48
f 24 48 49
f 24 49 50
f 24 50 51
f 24 51 52
f 24 52 25
f 24 27 45
f 25 52 28
f 25 28 26
f 27 44 53
f 27 53 54
f 27 54 45
f 28 52 51
f 28 51 55
f 28 55 29
f 29 55 56
f 29 56 57
f 29 57 30
f 30 57 58
f 30 58 31
f 31 58 32
f 32 58 59
f 32 59 60
f 32 60 33
f 33 60 35
f 33 35 34
f 35 60 61
f 35 61 36
f 36 61 62
f 36 62 63
f 36 63 38
f 38 40 39
f 38 63 40
f 40 64 41
f 40 63 65
f 40 65 66
f 40 66 67
f 40 67 68
f 40 68 64
f 41 69 42
f 41 64 70
f 41 70 69
f 42 69 71
f 42 71 72
f 42 72 43
f 43 72 73
f 43 73 74
f 43 74 44
f 44 74 73
f 44 73 75
f 44 75 76
f 44 76 77
f 44 77 78
f 44 78 53
f 45 47 46
f 45 54 79
f 45 79 80
f 45 80 81
f 45 81 47
f 47 82 48
f 47 81 82
f 48 83 84
f 48 84 49
f 48 82 83
f 49 85 50
f 49 84 85
f 50 85 86
f 50 86 87
f 50 87 51
f 51 87 55
f 53 88 89
f 53 89 90
f 53 90 54
f 53 78 91
f 53 91 88
f 54 90 92
f 54 92 80
f 54 80 79
f 55 87 56
f 56 59 57
f 56 87 93
f 56 93 94
f 56 94 59
f 57 59 58
f 59 94 95
f 59 95 60
f 60 95 96
f 60 96 61
f 61 96 97
f 61 97 62
f 62 97 98
f 62 98 65
f 62 65 63
f 64 68 99
f 64 99 70
f 65 98 100
f 65 100 101
f 65 101 66
f 66 101 102
f 66 102 67
f 67 102 103
f 67 103 104
f 67 104 68
f 68 105 99
f 68 104 106
f 68 106 105
f 69 70 107
f 69 107 108
f 69 108 71
f 70 109 110
f 70 110 107
f 70 99 109
f 71 108 111
f 71 111 112
f 71 112 113
f 71 113 72
f 72 113 114
f 72 114 73
f 73 114 75
f 75 114 115
f 75 115 76
f 76 115 116
f 76 116 77
f 77 116 91
f 77 91 78
f 80 92 81
f 81 92 117
f 81 117 118
f 81 118 119
f 81 119 120
f 81 120 82
f 82 121 122
f 82 122 123
f 82 123 83
f 82 120 124
f 82 124 121
f 83 123 125
f 83 125 84
f 84 125 126
f 84 126 85
f 85 127 86
f 85 126 127
f 86 127 128
f 86 128 129
f 86 129 93
f 86 93 87
f 88 91 130
f 88 130 131
f 88 131 132
f 88 132 89
f 89 132 133
f 89 133 134
f 89 134 92
f 89 92 90
f 91 116 135
f 91 135 130
f 92 134 136
f 92 136 137
f 92 137 117
f 93 129 94
f 94 129 138
f 94 138 139
f 94 139 95
f 95 139 96
f 96 139 140
f 96 140 97
f 97 140 141
f 97 141 98
f 98 141 142
f 98 142 100
f 99 105 143
f 99 143 144
f 99 144 145
f 99 145 109
f 100 142 146
f 100 146 147
f 100 147 101
f 101 147 148
f 101 148 149
f 101 149 102
f 102 148 103
f 102 149 148
f 103 106 104
f 103 148 106
f 105 150 151
f 105 151 152
f 105 152 143
f 105 106 153
f 105 153 150
f 106 148 154
f 106 154 155
f 106 155 156
f 106 156 153
f 107 110 108
f 108 110 111
f 109 157 158
f 109 158 159
f 109 159 110
f 109 145 157
f 110 159 112
f 110 112 111
f 112 159 160
f 112 160 161
f 112 161 162
f 112 162 113
f 113 162 163
f 113 163 114
f 114 163 164
f 114 164 115
f 115 164 116
f 116 164 135
f 117 137 165
f 117 165 118
f 118 166 167
f 118 167 120
f 118 120 119
f 118 165 168
f 118 168 166
f 120 167 169
f 120 169 124
f 121 170 171
f 121 171 122
f 121 124 170
f 122 171 172
f 122 172 123
f 123 172 125
f 124 169 173
f 124 173 170
f 125 174 126
f 125 172 174
f 126 174 175
f 126 175 176
f 126 176 127
f 127 177 128
f 127 176 177
f 128 178 129
f 128 177 179
f 128 179 178
f 129 178 138
f 130 180 181
f 130 181 131
f 130 135 180
f 131 181 132
f 132 182 183
f 132 183 184
f 132 184 134
f 132 134 133
f 132 181 182
f 134 184 136
f 135 185 180
f 135 164 186
f 135 186 185
f 136 184 187
f 136 187 188
f 136 188 137
f 137 188 189
f 137 189 165
f 138 178 139
f 139 178 140
f 140 178 179
f 140 179 190
f 140 190 191
f 140 191 141
f 141 191 142
f 142 192 146
f 142 191 193
f 142 193 192
f 143 152 194
f 143 194 158
f 143 158 144
f 144 158 145
f 145 158 195
f 145 195 157
f 146 196 147
f 146 192 196
f 147 196 197
f 147 197 198
f 147 198 148
f 148 199 154
f 148 198 199
f 150 153 200
f 150 200 201
f 150 201 202
f 150 202 203
f 150 203 204
f 150 204 151
f 151 204 152
f 152 204 194
f 153 156 205
f 153 205 200
f 154 199 206
f 154 206 207
f 154 207 155
f 155 207 208
f 155 208 209
f 155 209 156
f 156 209 205
f 157 195 210
f 157 210 158
f 158 211 212
f 158 212 160
f 158 160 159
f 158 210 195
f 158 194 213
f 158 213 214
f 158 214 211
f 160 212 161
f 161 212 211
f 161 211 215
f 161 215 216
f 161 216 217
f 161 217 162
f 162 217 163
f 163 217 186
f 163 186 164
f 165 189 218
f 165 218 168
f 166 168 219
f 166 219 220
f 166 220 167
f 167 220 221
f 167 221 222
f 167 222 169
f 168 218 223
f 168 223 219
f 169 222 173
f 170 224 171
f 170 173 225
f 170 225 224
f 171 224 172
f 172 224 196
f 172 196 226
f 172 226 175
f 172 175 174
f 173 227 225
f 173 222 227
f 175 226 228
f 175 228 176
f 176 228 177
f 177 228 190
f 177 190 179
f 180 215 229
f 180 229 181
f 180 185 216
f 180 216 215
f 181 229 230
f 181 230 231
f 181 231 182
f 182 231 183
f 183 231 204
f 183 204 232
f 183 232 184
f 184 232 187
f 185 186 217
f 185 217 216
f 187 203 233
f 187 233 218
f 187 218 189
f 187 189 188
f 187 232 203
f 190 228 193
f 190 193 191
f 192 193 234
f 192 234 228
f 192 228 226
f 192 226 196
f 193 228 234
f 194 204 235
f 194 235 213
f 196 224 197
f 197 224 198
f 198 224 225
f 198 225 199
f 199 225 236
f 199 236 206
f 200 205 237
f 200 237 201
f 201 237 238
f 201 238 202
f 202 238 239
f 202 239 203
f 203 232 204
f 203 239 233
f 204 231 235
f 205 209 237
f 206 236 240
f 206 240 241
f 206 241 207
f 207 241 208
f 208 241 242
f 208 242 209
f 209 242 243
f 209 243 237
f 211 214 213
f 211 213 229
f 211 229 215
f 213 235 230
f 213 230 229
f 218 233 244
f 218 244 223
f 219 245 220
f 219 223 246
f 219 246 247
f 219 247 245
f 220 248 249
f 220 249 221
f 220 245 248
f 221 249 250
f 221 250 222
f 222 250 227
f 223 244 239
f 223 239 251
f 223 251 247
f 223 247 246
f 225 227 236
f 227 250 236
f 230 235 231
f 233 239 244
f 236 250 240
f 237 252 238
f 237 243 252
f 238 252 239
f 239 252 251
f 240 249 241
f 240 250 249
f 241 249 248
f 241 248 253
f 241 253 242
f 242 245 243
f 242 253 248
f 242 248 245
f 243 245 247
f 243 247 251
f 243 251 252
