v -0.080591 0.043013 0.231074
v -0.080441 0.043689 0.228653
v -0.080532 0.043013 0.228689
v -0.079891 0.043013 0.232349
v -0.079277 0.046117 0.232900
v -0.079047 0.048539 0.232768
v -0.078770 0.050966 0.232532
v -0.080099 0.046117 0.231074
v -0.077590 0.043689 0.192704
v -0.077680 0.043013 0.192704
v -0.080057 0.046117 0.228653
v -0.077526 0.044098 0.192704
v -0.079576 0.043013 0.232920
v -0.079459 0.043689 0.232944
v -0.077328 0.050966 0.233036
v -0.076826 0.055810 0.232840
v -0.078594 0.052365 0.232353
v -0.079645 0.048539 0.231074
v -0.045855 0.043013 0.192704
v -0.079597 0.048539 0.228653
v -0.077178 0.046117 0.192704
v -0.065206 0.043013 0.233519
v -0.077328 0.048539 0.233084
v -0.074904 0.058238 0.232964
v -0.070055 0.067931 0.232972
v -0.072527 0.065403 0.232744
v -0.074119 0.063082 0.232628
v -0.076409 0.058238 0.232556
v -0.077670 0.055810 0.231074
v -0.078289 0.053830 0.231074
v -0.078668 0.052616 0.231074
v -0.079090 0.050966 0.231074
v -0.076153 0.059541 0.232329
v -0.045855 0.043013 0.220538
v -0.026038 0.045737 0.192704
v -0.076676 0.048539 0.192704
v -0.077098 0.046520 0.192704
v -0.079042 0.050966 0.228653
v -0.065206 0.043689 0.233523
v -0.063076 0.043013 0.232960
v -0.026038 0.082440 0.232740
v -0.026038 0.082860 0.232808
v -0.026038 0.084890 0.232960
v -0.065206 0.046117 0.233511
v -0.062793 0.053388 0.233463
v -0.057944 0.063082 0.233352
v -0.062793 0.077613 0.232896
v -0.067711 0.072803 0.232832
v -0.069996 0.070163 0.232708
v -0.071668 0.067931 0.232576
v -0.073798 0.064525 0.232401
v -0.077654 0.055810 0.228653
v -0.076842 0.058238 0.231074
v -0.078294 0.053735 0.228653
v -0.078642 0.052521 0.228653
v -0.076249 0.059765 0.231074
v -0.073948 0.064827 0.231074
v -0.074749 0.063082 0.231074
v -0.061527 0.043013 0.232329
v -0.026038 0.045737 0.216502
v -0.026038 0.096681 0.192704
v -0.076602 0.048846 0.192704
v -0.076255 0.050256 0.192704
v -0.062622 0.043013 0.232820
v -0.026038 0.081282 0.232421
v -0.038555 0.080041 0.233092
v -0.053095 0.067931 0.233304
v -0.055514 0.065504 0.233340
v -0.026038 0.098605 0.232548
v -0.033706 0.096541 0.232652
v -0.057944 0.082463 0.232884
v -0.064608 0.077613 0.232592
v -0.065425 0.075404 0.232820
v -0.062606 0.079828 0.232556
v -0.066958 0.074738 0.232636
v -0.071321 0.069223 0.232341
v -0.069147 0.072014 0.232544
v -0.073323 0.066041 0.231074
v -0.075358 0.053388 0.192704
v -0.076826 0.058238 0.228653
v -0.074557 0.055810 0.192704
v -0.076255 0.059765 0.228653
v -0.075924 0.051464 0.192704
v -0.075731 0.060979 0.228653
v -0.074791 0.063082 0.228653
v -0.073355 0.066063 0.228653
v -0.073964 0.064849 0.228653
v -0.026038 0.081115 0.232365
v -0.026439 0.096619 0.192704
v -0.026038 0.100155 0.228649
v -0.045855 0.075163 0.233172
v -0.026038 0.098818 0.232277
v -0.026439 0.098583 0.232544
v -0.028858 0.098404 0.232437
v -0.036131 0.096234 0.232580
v -0.040979 0.094047 0.232640
v -0.045855 0.091792 0.232664
v -0.055643 0.085030 0.232776
v -0.057944 0.084180 0.232576
v -0.060139 0.082272 0.232548
v -0.061671 0.081338 0.232365
v -0.064048 0.078883 0.232329
v -0.066381 0.076360 0.232141
v -0.069441 0.072428 0.231074
v -0.070653 0.070633 0.231074
v -0.071438 0.069419 0.231074
v -0.072276 0.067931 0.231074
v -0.072324 0.067931 0.228653
v -0.073905 0.057550 0.192704
v -0.073408 0.058764 0.192704
v -0.072581 0.060660 0.192704
v -0.073275 0.059071 0.192704
v -0.070124 0.065504 0.192704
v -0.070888 0.064111 0.192704
v -0.071038 0.063837 0.192704
v -0.071652 0.062629 0.192704
v -0.072421 0.061001 0.192704
v -0.028858 0.096138 0.192704
v -0.028858 0.099612 0.228653
v -0.026439 0.100082 0.228653
v -0.028858 0.099192 0.231078
v -0.026439 0.099606 0.231078
v -0.026038 0.099679 0.231054
v -0.030353 0.098275 0.232341
v -0.037802 0.095976 0.232429
v -0.042971 0.093705 0.232532
v -0.047670 0.091306 0.232536
v -0.050671 0.089186 0.232620
v -0.053058 0.087340 0.232696
v -0.054916 0.086557 0.232564
v -0.059178 0.083693 0.232313
v -0.061864 0.081534 0.231074
v -0.063081 0.080276 0.231074
v -0.060582 0.082748 0.231074
v -0.064213 0.079067 0.231074
v -0.065596 0.077457 0.231230
v -0.066531 0.076539 0.230519
v -0.068581 0.073636 0.231074
v -0.068635 0.073687 0.228653
v -0.069484 0.072473 0.228653
v -0.070701 0.070655 0.228653
v -0.071449 0.069441 0.228653
v -0.069147 0.067204 0.192704
v -0.029109 0.096088 0.192704
v -0.031282 0.099025 0.228653
v -0.033210 0.098426 0.230431
v -0.030251 0.095842 0.192704
v -0.031207 0.098644 0.231178
v -0.031965 0.098007 0.232049
v -0.039420 0.095557 0.232009
v -0.044584 0.093342 0.232265
v -0.036131 0.097196 0.231078
v -0.038587 0.096323 0.231154
v -0.049288 0.090797 0.232077
v -0.052225 0.088750 0.232449
v -0.056529 0.085936 0.231909
v -0.056881 0.086227 0.230287
v -0.059370 0.083872 0.231074
v -0.061912 0.081579 0.228653
v -0.060651 0.082793 0.228653
v -0.063118 0.080320 0.228653
v -0.059439 0.083939 0.228653
v -0.064251 0.079107 0.228653
v -0.066531 0.076539 0.229160
v -0.065324 0.072769 0.192704
v -0.066328 0.071438 0.192704
v -0.067171 0.070224 0.192704
v -0.068378 0.068412 0.192704
v -0.068512 0.068205 0.192704
v -0.033274 0.098449 0.228653
v -0.031463 0.095506 0.192704
v -0.034486 0.098085 0.228653
v -0.036131 0.097548 0.228653
v -0.040221 0.095987 0.230391
v -0.043628 0.094136 0.231302
v -0.045144 0.093655 0.230651
v -0.045855 0.093034 0.231266
v -0.048391 0.091681 0.231194
v -0.049806 0.091160 0.230463
v -0.050639 0.090321 0.231194
v -0.052674 0.089068 0.231074
v -0.053880 0.088207 0.231074
v -0.055643 0.086893 0.231090
v -0.052818 0.089175 0.228653
v -0.054025 0.088325 0.228653
v -0.056881 0.086227 0.229132
v -0.058361 0.080505 0.192704
v -0.059615 0.079291 0.192704
v -0.060630 0.078251 0.192704
v -0.060828 0.078044 0.192704
v -0.061970 0.076830 0.192704
v -0.057143 0.081618 0.192704
v -0.062980 0.075678 0.192704
v -0.063183 0.075443 0.192704
v -0.064202 0.074235 0.192704
v -0.033706 0.094841 0.192704
v -0.038555 0.096675 0.228653
v -0.034112 0.094707 0.192704
v -0.036131 0.094030 0.192704
v -0.040253 0.096004 0.228653
v -0.041465 0.095484 0.228653
v -0.043403 0.094611 0.228653
v -0.045246 0.093705 0.228653
v -0.045855 0.093387 0.228653
v -0.046458 0.093057 0.228653
v -0.048252 0.092061 0.228653
v -0.049806 0.091160 0.228653
v -0.051018 0.090388 0.228653
v -0.051707 0.085975 0.192704
v -0.051931 0.085807 0.192704
v -0.053095 0.084929 0.192704
v -0.054505 0.083844 0.192704
v -0.055717 0.082832 0.192704
v -0.055958 0.082630 0.192704
v -0.036392 0.093935 0.192704
v -0.037626 0.093482 0.192704
v -0.038635 0.093084 0.192704
v -0.038838 0.093001 0.192704
v -0.040979 0.092094 0.192704
v -0.042789 0.091250 0.192704
v -0.044002 0.090640 0.192704
v -0.045855 0.089639 0.192704
v -0.047414 0.088750 0.192704
v -0.048626 0.088006 0.192704
v -0.050495 0.086792 0.192704
f 1 2 3
f 1 3 10
f 1 10 19
f 1 19 34
f 1 34 59
f 1 59 64
f 1 64 40
f 1 40 22
f 1 22 13
f 1 13 4
f 1 4 5
f 1 5 6
f 1 6 7
f 1 7 8
f 1 8 2
f 2 9 10
f 2 10 3
f 2 8 11
f 2 11 12
f 2 12 9
f 4 13 5
f 5 13 14
f 5 14 15
f 5 15 16
f 5 16 6
f 6 16 7
f 7 16 17
f 7 17 8
f 8 18 11
f 8 17 18
f 9 12 21
f 9 21 37
f 9 37 36
f 9 36 62
f 9 62 63
f 9 63 83
f 9 83 79
f 9 79 81
f 9 81 109
f 9 109 110
f 9 110 112
f 9 112 111
f 9 111 117
f 9 117 116
f 9 116 115
f 9 115 114
f 9 114 113
f 9 113 143
f 9 143 169
f 9 169 168
f 9 168 167
f 9 167 166
f 9 166 165
f 9 165 195
f 9 195 194
f 9 194 193
f 9 193 191
f 9 191 190
f 9 190 189
f 9 189 188
f 9 188 187
f 9 187 192
f 9 192 214
f 9 214 213
f 9 213 212
f 9 212 211
f 9 211 210
f 9 210 209
f 9 209 225
f 9 225 224
f 9 224 223
f 9 223 222
f 9 222 221
f 9 221 220
f 9 220 219
f 9 219 218
f 9 218 217
f 9 217 216
f 9 216 215
f 9 215 199
f 9 199 198
f 9 198 196
f 9 196 171
f 9 171 147
f 9 147 144
f 9 144 118
f 9 118 89
f 9 89 61
f 9 61 35
f 9 35 19
f 9 19 10
f 11 18 20
f 11 20 21
f 11 21 12
f 13 22 14
f 14 22 23
f 14 23 15
f 15 24 16
f 15 23 25
f 15 25 24
f 16 24 25
f 16 25 26
f 16 26 27
f 16 27 28
f 16 28 17
f 17 29 30
f 17 30 31
f 17 31 32
f 17 32 18
f 17 28 33
f 17 33 29
f 18 32 38
f 18 38 20
f 19 35 60
f 19 60 34
f 20 36 37
f 20 37 21
f 20 38 36
f 22 39 23
f 22 40 41
f 22 41 42
f 22 42 43
f 22 43 39
f 23 39 44
f 23 44 45
f 23 45 25
f 25 46 47
f 25 47 48
f 25 48 49
f 25 49 26
f 25 45 46
f 26 49 50
f 26 50 27
f 27 50 51
f 27 51 33
f 27 33 28
f 29 52 30
f 29 33 53
f 29 53 80
f 29 80 52
f 30 52 31
f 31 52 54
f 31 54 55
f 31 55 38
f 31 38 32
f 33 56 53
f 33 51 57
f 33 57 58
f 33 58 56
f 34 60 59
f 35 61 90
f 35 90 123
f 35 123 92
f 35 92 69
f 35 69 43
f 35 43 42
f 35 42 41
f 35 41 65
f 35 65 88
f 35 88 60
f 36 38 62
f 38 63 62
f 38 55 63
f 39 45 44
f 39 43 45
f 40 64 65
f 40 65 41
f 43 66 67
f 43 67 68
f 43 68 45
f 43 69 70
f 43 70 66
f 45 68 46
f 46 68 71
f 46 71 47
f 47 72 73
f 47 73 48
f 47 71 74
f 47 74 72
f 48 73 72
f 48 72 75
f 48 75 49
f 49 76 50
f 49 75 77
f 49 77 76
f 50 76 51
f 51 76 78
f 51 78 57
f 52 79 54
f 52 80 81
f 52 81 79
f 53 56 82
f 53 82 80
f 54 79 83
f 54 83 55
f 55 83 63
f 56 84 82
f 56 58 85
f 56 85 84
f 57 78 86
f 57 86 87
f 57 87 85
f 57 85 58
f 59 60 88
f 59 88 64
f 61 89 90
f 64 88 65
f 66 70 71
f 66 71 91
f 66 91 67
f 67 91 71
f 67 71 68
f 69 92 93
f 69 93 70
f 70 93 94
f 70 94 95
f 70 95 96
f 70 96 97
f 70 97 71
f 71 98 99
f 71 99 100
f 71 100 74
f 71 97 98
f 72 74 101
f 72 101 102
f 72 102 75
f 74 100 101
f 75 102 103
f 75 103 77
f 76 77 103
f 76 103 104
f 76 104 105
f 76 105 106
f 76 106 107
f 76 107 78
f 78 107 108
f 78 108 86
f 80 82 81
f 81 82 109
f 82 84 110
f 82 110 109
f 84 111 112
f 84 112 110
f 84 85 111
f 85 87 111
f 86 113 114
f 86 114 115
f 86 115 116
f 86 116 87
f 86 108 113
f 87 116 117
f 87 117 111
f 89 118 119
f 89 119 120
f 89 120 90
f 90 120 121
f 90 121 122
f 90 122 123
f 92 123 94
f 92 94 93
f 94 124 95
f 94 123 124
f 95 124 125
f 95 125 126
f 95 126 96
f 96 126 97
f 97 126 127
f 97 127 128
f 97 128 129
f 97 129 98
f 98 129 130
f 98 130 99
f 99 131 101
f 99 101 100
f 99 130 131
f 101 132 133
f 101 133 102
f 101 131 134
f 101 134 132
f 102 133 135
f 102 135 103
f 103 136 137
f 103 137 138
f 103 138 104
f 103 135 136
f 104 138 139
f 104 139 140
f 104 140 105
f 105 141 106
f 105 140 141
f 106 142 108
f 106 108 107
f 106 141 142
f 108 142 143
f 108 143 113
f 118 144 119
f 119 145 146
f 119 146 121
f 119 121 120
f 119 144 147
f 119 147 145
f 121 146 148
f 121 148 124
f 121 124 122
f 122 124 123
f 124 148 149
f 124 149 125
f 125 150 151
f 125 151 126
f 125 149 152
f 125 152 153
f 125 153 150
f 126 151 127
f 127 154 155
f 127 155 128
f 127 151 154
f 128 155 129
f 129 155 130
f 130 155 131
f 131 155 156
f 131 156 157
f 131 157 158
f 131 158 134
f 132 159 133
f 132 134 160
f 132 160 159
f 133 159 161
f 133 161 135
f 134 158 157
f 134 157 162
f 134 162 160
f 135 163 137
f 135 137 136
f 135 161 163
f 137 163 164
f 137 164 139
f 137 139 138
f 139 165 166
f 139 166 140
f 139 164 165
f 140 166 167
f 140 167 141
f 141 167 168
f 141 168 169
f 141 169 143
f 141 143 142
f 145 170 146
f 145 147 171
f 145 171 170
f 146 170 172
f 146 172 173
f 146 173 174
f 146 174 153
f 146 153 152
f 146 152 149
f 146 149 148
f 150 153 151
f 151 153 174
f 151 174 175
f 151 175 176
f 151 176 177
f 151 177 178
f 151 178 154
f 154 178 179
f 154 179 180
f 154 180 155
f 155 180 181
f 155 181 156
f 156 181 182
f 156 182 183
f 156 183 157
f 157 183 182
f 157 182 181
f 157 181 179
f 157 179 184
f 157 184 185
f 157 185 186
f 157 186 162
f 159 187 188
f 159 188 189
f 159 189 161
f 159 160 187
f 160 162 187
f 161 189 190
f 161 190 191
f 161 191 163
f 162 192 187
f 162 186 192
f 163 191 193
f 163 193 164
f 164 193 194
f 164 194 195
f 164 195 165
f 170 171 196
f 170 196 172
f 172 196 173
f 173 197 174
f 173 196 198
f 173 198 199
f 173 199 197
f 174 197 200
f 174 200 201
f 174 201 202
f 174 202 176
f 174 176 175
f 176 202 203
f 176 203 204
f 176 204 179
f 176 179 178
f 176 178 177
f 179 204 205
f 179 205 206
f 179 206 207
f 179 207 208
f 179 208 184
f 179 181 180
f 184 208 209
f 184 209 185
f 185 209 210
f 185 210 186
f 186 210 211
f 186 211 212
f 186 212 213
f 186 213 214
f 186 214 192
f 197 199 215
f 197 215 216
f 197 216 217
f 197 217 200
f 200 217 218
f 200 218 219
f 200 219 201
f 201 219 202
f 202 219 220
f 202 220 203
f 203 220 221
f 203 221 204
f 204 221 222
f 204 222 205
f 205 222 206
f 206 222 223
f 206 223 207
f 207 223 224
f 207 224 208
f 208 224 225
f 208 225 209
