v 0.050923 0.031325 0.200971
v 0.022073 0.067869 0.201071
v 0.026164 -0.017001 0.200070
v 0.046290 0.010562 0.198629
v 0.049913 0.024226 0.188841
v 0.049951 0.027589 0.175771
v 0.049535 0.043731 0.184138
v 0.048777 0.049984 0.199670
v 0.038790 0.071195 0.199990
v 0.026568 0.083551 0.198929
v -0.074958 0.053459 0.191884
v -0.062029 -0.009279 0.192684
v -0.023305 -0.029731 0.190202
v 0.005533 -0.027563 0.188321
v 0.020747 -0.020339 0.185939
v 0.020179 -0.020140 0.168025
v 0.023803 -0.017250 0.161821
v 0.029283 -0.012032 0.149031
v 0.034043 -0.009428 0.194586
v 0.043828 0.006328 0.170868
v 0.047691 0.015084 0.181196
v 0.045368 0.022868 0.098112
v 0.045393 0.030354 0.088785
v 0.042792 0.035373 0.042189
v 0.048663 0.046695 0.172569
v 0.037325 0.067869 0.074974
v 0.025318 0.083899 0.182617
v 0.015419 0.089978 0.183317
v 0.005520 0.094337 0.190142
v -0.008128 0.097102 0.191023
v -0.049478 0.087088 0.188801
v -0.076612 0.019879 0.190683
v -0.067673 0.068941 0.186920
v -0.073379 0.056909 0.176172
v -0.076688 0.045549 0.177913
v -0.078064 0.035099 0.186700
v -0.070589 0.003974 0.184478
v -0.067811 0.000324 0.166624
v -0.064314 -0.003064 0.143247
v -0.056852 -0.003749 0.031421
v -0.053746 -0.007871 0.040848
v -0.053948 -0.010512 0.083281
v -0.051789 -0.015631 0.136521
v -0.050956 -0.018247 0.172509
v -0.042572 -0.023490 0.186319
v -0.028103 -0.028522 0.173550
v -0.019138 -0.029232 0.155896
v -0.016108 -0.030079 0.174090
v -0.006878 -0.030142 0.185839
v -0.000818 -0.028784 0.172769
v 0.000533 -0.027738 0.155196
v 0.006594 -0.026019 0.156096
v 0.011480 -0.024898 0.172129
v 0.013727 -0.023055 0.154695
v 0.019093 -0.020215 0.156437
v 0.020886 -0.018160 0.139584
v 0.023007 -0.013065 0.078417
v 0.034775 -0.006302 0.152614
v 0.035646 -0.006389 0.168906
v 0.025722 -0.010848 0.078978
v 0.030772 -0.007697 0.106699
v 0.040381 0.001022 0.158338
v 0.042843 0.005755 0.155916
v 0.042641 0.007324 0.137722
v 0.045027 0.011073 0.152894
v 0.044686 0.012804 0.134700
v 0.045052 0.015819 0.123051
v 0.042515 0.016753 0.072072
v 0.040570 0.016118 0.042169
v 0.039623 0.021685 0.009925
v 0.039749 0.044055 0.011626
v 0.028500 0.059101 0.002299
v 0.017528 0.071606 0.002559
v 0.022073 0.080636 0.073433
v -0.008292 0.089729 0.054759
v -0.000351 0.095259 0.177373
v -0.014605 0.097052 0.180595
v -0.022724 0.097015 0.189182
v -0.033847 0.094499 0.187700
v -0.039542 0.091846 0.174611
v -0.044479 0.088458 0.158318
v -0.049377 0.086154 0.168406
v -0.055589 0.080723 0.157117
v -0.059276 0.079104 0.184458
v -0.077117 0.024201 0.179214
v -0.076145 0.021722 0.165303
v -0.074162 0.013066 0.173029
v -0.064996 0.071556 0.172309
v -0.064125 0.071743 0.158318
v -0.066688 0.065951 0.137062
v -0.069188 0.064158 0.160139
v -0.071789 0.058167 0.155756
v -0.071044 0.057544 0.137842
v -0.073847 0.050482 0.144027
v -0.072054 0.041900 0.079178
v -0.076422 0.040879 0.159379
v -0.076107 0.037541 0.145068
v -0.076309 0.030665 0.148931
v -0.070892 0.006925 0.155896
v -0.068708 0.003924 0.143787
v -0.066574 -0.000211 0.148631
v -0.063847 -0.000946 0.109841
v -0.059504 -0.001420 0.045132
v -0.062029 0.003824 0.028519
v -0.051372 -0.007660 0.011906
v -0.051789 -0.008706 0.027758
v -0.051511 -0.010524 0.049335
v -0.051840 -0.013227 0.097051
v -0.049478 -0.015706 0.108220
v -0.049605 -0.018234 0.153494
v -0.046739 -0.020352 0.158318
v -0.045514 -0.021087 0.158318
v -0.039504 -0.024574 0.168226
v -0.031095 -0.026754 0.150432
v -0.030173 -0.025409 0.115125
v -0.027156 -0.025645 0.104017
v -0.022976 -0.027999 0.138483
v -0.019138 -0.028348 0.136521
v -0.013999 -0.029046 0.147130
v -0.008292 -0.028909 0.149852
v -0.005199 -0.027763 0.132658
v -0.004328 -0.026692 0.112883
v 0.000205 -0.026592 0.129216
v 0.002629 -0.026555 0.141365
v 0.006821 -0.025122 0.138923
v 0.011429 -0.022706 0.127595
v 0.012831 -0.020775 0.103456
v 0.014270 -0.020925 0.119548
v 0.015242 -0.020152 0.114685
v 0.017174 -0.020177 0.134840
v 0.019447 -0.017998 0.120169
v 0.012982 -0.017836 0.051757
v 0.011871 -0.015806 0.012006
v 0.022654 -0.010786 0.043530
v 0.033436 -0.002466 0.079558
v 0.037792 -0.000461 0.129456
v 0.027881 -0.003188 0.012367
v 0.030886 -0.003985 0.059002
v 0.038196 0.004297 0.084902
v 0.040204 0.008557 0.082080
v 0.042439 0.012742 0.092328
v 0.041176 0.015432 0.055680
v 0.035330 0.006191 0.024276
v 0.040646 0.011559 0.068590
v 0.033891 0.007772 0.008464
v 0.032679 0.023989 -0.001104
v 0.038916 0.034514 0.004801
v 0.030987 0.040655 -0.001844
v 0.002174 0.073175 -0.003265
v -0.001714 0.084012 0.006482
v -0.019050 0.086266 0.007703
v -0.022875 0.089542 0.058402
v -0.028456 0.095408 0.176052
v -0.034946 0.082542 0.008304
v -0.049377 0.083625 0.131117
v -0.047446 0.079241 0.052958
v -0.059743 0.077037 0.160760
v -0.051347 0.080835 0.112283
v -0.051271 0.077323 0.063966
v -0.055993 0.076912 0.113124
v -0.061764 0.074222 0.153494
v -0.072458 0.025521 0.082961
v -0.073203 0.016778 0.131237
v -0.073973 0.014785 0.156997
v -0.068443 0.018085 0.035745
v -0.071359 0.013153 0.117127
v -0.071309 0.009703 0.141365
v -0.057029 0.069489 0.037186
v -0.061928 0.064830 0.057241
v -0.063683 0.063784 0.071132
v -0.066789 0.058852 0.077576
v -0.069554 0.061168 0.140765
v -0.068885 0.059549 0.117127
v -0.068771 0.056846 0.095350
v -0.068859 0.054654 0.081640
v -0.069579 0.049784 0.065727
v -0.068670 0.049186 0.046893
v -0.068733 0.040430 0.017411
v -0.070274 0.036706 0.036885
v -0.066322 0.008134 0.063005
v -0.066410 0.006128 0.082020
v -0.068556 0.005630 0.125073
v -0.063708 0.004235 0.051757
v -0.066309 0.003139 0.108780
v -0.066271 0.001532 0.124392
v -0.064024 0.001221 0.088565
v -0.066498 0.011982 0.036785
v -0.065943 0.018671 0.007923
v -0.060324 0.006153 0.006502
v -0.041524 -0.015332 0.014608
v -0.051019 0.003600 -0.001484
v -0.041878 -0.006302 -0.000623
v -0.031032 -0.017749 0.004200
v -0.045653 -0.014236 0.038367
v -0.047155 -0.014161 0.052958
v -0.044567 -0.018097 0.092027
v -0.045299 -0.020227 0.139404
v -0.043734 -0.019953 0.117507
v -0.041019 -0.022407 0.136521
v -0.041297 -0.023129 0.154195
v -0.039668 -0.022918 0.133579
v -0.035148 -0.023067 0.099833
v -0.028835 -0.022482 0.046893
v -0.028835 -0.024263 0.083281
v -0.024795 -0.025035 0.082000
v -0.019138 -0.027750 0.124092
v -0.014908 -0.026505 0.092948
v -0.011184 -0.027812 0.121770
v -0.009492 -0.026816 0.102596
v -0.009492 -0.025894 0.083281
v -0.005565 -0.023005 0.033923
v -0.003381 -0.025384 0.089145
v -0.001222 -0.023104 0.053198
v 0.004359 -0.023129 0.083281
v 0.005053 -0.021772 0.061444
v 0.006808 -0.020750 0.054159
v 0.011063 -0.018085 0.038807
v 0.017174 -0.019193 0.117127
v 0.004573 -0.020800 0.039628
v -0.002371 -0.020165 0.007863
v 0.021353 -0.006489 0.003320
v 0.032805 -0.000934 0.051737
v 0.033020 0.001171 0.034784
v 0.035798 0.002728 0.062085
v 0.021656 0.007399 -0.003285
v -0.011752 0.075841 -0.003365
v -0.030729 0.076003 -0.001524
v -0.048519 0.073848 0.008444
v -0.049883 0.081583 0.107399
v -0.070917 0.015395 0.095350
v -0.068758 0.016118 0.051757
v -0.068809 0.013489 0.068029
v -0.068948 0.009753 0.097972
v -0.057862 0.062626 0.005461
v -0.062054 0.063236 0.043571
v -0.066675 0.055252 0.050236
v -0.067180 0.050718 0.031181
v -0.065135 0.048277 0.006302
v -0.061334 0.035373 -0.001024
v -0.056221 0.020738 -0.003405
v -0.027408 -0.021971 0.033483
v -0.040072 -0.018197 0.050416
v -0.039214 -0.020302 0.078397
v -0.030615 -0.008444 -0.003345
v -0.012320 -0.012991 -0.002164
v -0.014277 -0.022307 0.012086
v -0.017345 -0.024101 0.050656
v -0.015780 -0.025297 0.070671
v 0.007376 -0.009827 -0.001104
v -0.042812 0.065341 -0.003305
v -0.053481 0.054791 -0.002385
f 1 2 3
f 1 3 4
f 1 4 5
f 1 5 6
f 1 6 7
f 1 7 8
f 1 8 9
f 1 9 2
f 2 9 10
f 2 10 11
f 2 11 12
f 2 12 3
f 3 12 13
f 3 13 14
f 3 14 15
f 3 15 16
f 3 16 17
f 3 17 18
f 3 18 19
f 3 19 4
f 4 19 20
f 4 20 21
f 4 21 5
f 5 21 22
f 5 22 6
f 6 22 23
f 6 23 24
f 6 24 7
f 7 24 25
f 7 25 8
f 8 25 26
f 8 26 9
f 9 26 10
f 10 26 27
f 10 27 28
f 10 28 29
f 10 29 30
f 10 30 31
f 10 31 11
f 11 32 12
f 11 31 33
f 11 33 34
f 11 34 35
f 11 35 36
f 11 36 32
f 12 32 37
f 12 37 38
f 12 38 39
f 12 39 40
f 12 40 41
f 12 41 42
f 12 42 43
f 12 43 44
f 12 44 45
f 12 45 13
f 13 45 46
f 13 46 47
f 13 47 48
f 13 48 49
f 13 49 14
f 14 49 50
f 14 50 51
f 14 51 52
f 14 52 53
f 14 53 15
f 15 53 16
f 16 53 54
f 16 54 55
f 16 55 56
f 16 56 17
f 17 56 57
f 17 57 18
f 18 58 59
f 18 59 19
f 18 57 60
f 18 60 61
f 18 61 58
f 19 59 62
f 19 62 20
f 20 62 63
f 20 63 64
f 20 64 65
f 20 65 21
f 21 65 66
f 21 66 67
f 21 67 22
f 22 68 69
f 22 69 70
f 22 70 23
f 22 67 68
f 23 70 24
f 24 70 71
f 24 71 25
f 25 71 26
f 26 71 72
f 26 72 73
f 26 73 74
f 26 74 27
f 27 74 28
f 28 74 29
f 29 74 75
f 29 75 76
f 29 76 30
f 30 76 75
f 30 75 77
f 30 77 78
f 30 78 31
f 31 79 80
f 31 80 81
f 31 81 82
f 31 82 83
f 31 83 84
f 31 84 33
f 31 78 79
f 32 36 85
f 32 85 86
f 32 86 87
f 32 87 37
f 33 84 88
f 33 88 89
f 33 89 90
f 33 90 91
f 33 91 34
f 34 91 92
f 34 92 93
f 34 93 94
f 34 94 35
f 35 94 95
f 35 95 96
f 35 96 36
f 36 96 97
f 36 97 98
f 36 98 85
f 37 87 99
f 37 99 38
f 38 99 100
f 38 100 101
f 38 101 39
f 39 101 102
f 39 102 103
f 39 103 40
f 40 103 104
f 40 104 105
f 40 105 106
f 40 106 41
f 41 106 107
f 41 107 42
f 42 107 108
f 42 108 43
f 43 109 110
f 43 110 44
f 43 108 109
f 44 111 112
f 44 112 45
f 44 110 111
f 45 112 113
f 45 113 46
f 46 113 114
f 46 114 115
f 46 115 116
f 46 116 117
f 46 117 47
f 47 117 118
f 47 118 119
f 47 119 48
f 48 119 49
f 49 119 120
f 49 120 50
f 50 120 121
f 50 121 51
f 51 121 122
f 51 122 123
f 51 123 124
f 51 124 52
f 52 124 125
f 52 125 53
f 53 125 126
f 53 126 54
f 54 126 127
f 54 127 128
f 54 128 129
f 54 129 130
f 54 130 55
f 55 130 131
f 55 131 56
f 56 131 57
f 57 132 133
f 57 133 134
f 57 134 60
f 57 131 132
f 58 61 135
f 58 135 59
f 59 135 136
f 59 136 62
f 60 134 137
f 60 137 138
f 60 138 61
f 61 138 135
f 62 136 139
f 62 139 63
f 63 139 64
f 64 139 140
f 64 140 65
f 65 140 141
f 65 141 66
f 66 141 67
f 67 141 68
f 68 142 69
f 68 141 142
f 69 143 70
f 69 142 144
f 69 144 143
f 70 145 146
f 70 146 147
f 70 147 71
f 70 143 145
f 71 147 72
f 72 147 148
f 72 148 149
f 72 149 73
f 73 149 150
f 73 150 74
f 74 150 75
f 75 150 151
f 75 151 152
f 75 152 77
f 77 152 78
f 78 152 153
f 78 153 79
f 79 153 152
f 79 152 154
f 79 154 80
f 80 154 81
f 81 155 82
f 81 154 156
f 81 156 155
f 82 155 83
f 83 157 84
f 83 155 158
f 83 158 159
f 83 159 160
f 83 160 157
f 84 157 161
f 84 161 89
f 84 89 88
f 85 98 162
f 85 162 86
f 86 163 164
f 86 164 87
f 86 162 165
f 86 165 163
f 87 164 166
f 87 166 167
f 87 167 99
f 89 161 168
f 89 168 169
f 89 169 170
f 89 170 90
f 90 170 91
f 91 170 171
f 91 171 172
f 91 172 92
f 92 172 93
f 93 172 173
f 93 173 174
f 93 174 175
f 93 175 94
f 94 175 176
f 94 176 177
f 94 177 95
f 95 177 178
f 95 178 179
f 95 179 97
f 95 97 96
f 97 179 98
f 98 179 162
f 99 167 180
f 99 180 181
f 99 181 182
f 99 182 100
f 100 182 181
f 100 181 183
f 100 183 184
f 100 184 185
f 100 185 101
f 101 185 186
f 101 186 102
f 102 186 103
f 103 186 104
f 104 186 183
f 104 183 180
f 104 180 187
f 104 187 188
f 104 188 189
f 104 189 105
f 105 190 106
f 105 189 191
f 105 191 192
f 105 192 193
f 105 193 190
f 106 190 194
f 106 194 195
f 106 195 107
f 107 195 108
f 108 195 109
f 109 195 110
f 110 195 196
f 110 196 111
f 111 196 197
f 111 197 112
f 112 197 198
f 112 198 199
f 112 199 200
f 112 200 113
f 113 200 201
f 113 201 202
f 113 202 114
f 114 202 115
f 115 202 203
f 115 203 204
f 115 204 116
f 116 204 203
f 116 203 205
f 116 205 117
f 117 206 118
f 117 205 206
f 118 206 207
f 118 207 119
f 119 208 120
f 119 207 208
f 120 208 209
f 120 209 121
f 121 209 210
f 121 210 211
f 121 211 122
f 122 211 212
f 122 212 123
f 123 212 213
f 123 213 214
f 123 214 124
f 124 214 125
f 125 214 215
f 125 215 216
f 125 216 126
f 126 216 217
f 126 217 127
f 127 217 132
f 127 132 128
f 128 132 129
f 129 218 130
f 129 132 218
f 130 218 131
f 131 218 132
f 132 217 133
f 133 137 134
f 133 217 219
f 133 219 220
f 133 220 221
f 133 221 137
f 135 138 222
f 135 222 136
f 136 222 139
f 137 143 223
f 137 223 222
f 137 222 138
f 137 221 145
f 137 145 143
f 139 222 224
f 139 224 143
f 139 143 140
f 140 143 144
f 140 144 141
f 141 144 142
f 143 224 223
f 145 221 146
f 146 225 148
f 146 148 147
f 146 221 225
f 148 225 149
f 149 225 226
f 149 226 150
f 150 226 151
f 151 226 227
f 151 227 154
f 151 154 152
f 154 227 228
f 154 228 156
f 155 156 229
f 155 229 158
f 156 159 229
f 156 228 159
f 157 160 168
f 157 168 161
f 158 229 159
f 159 228 168
f 159 168 160
f 162 179 165
f 163 165 230
f 163 230 164
f 164 230 166
f 165 179 188
f 165 188 187
f 165 187 231
f 165 231 230
f 166 230 232
f 166 232 167
f 167 232 187
f 167 187 233
f 167 233 180
f 168 228 234
f 168 234 235
f 168 235 169
f 169 235 170
f 170 235 171
f 171 174 173
f 171 173 172
f 171 235 236
f 171 236 174
f 174 236 175
f 175 236 237
f 175 237 177
f 175 177 176
f 177 237 178
f 178 237 238
f 178 238 188
f 178 188 179
f 180 183 181
f 180 233 187
f 183 186 185
f 183 185 184
f 187 232 231
f 188 238 239
f 188 239 240
f 188 240 189
f 189 240 191
f 190 241 203
f 190 203 242
f 190 242 243
f 190 243 196
f 190 196 194
f 190 193 241
f 191 240 244
f 191 244 192
f 192 244 193
f 193 244 245
f 193 245 220
f 193 220 246
f 193 246 241
f 194 196 195
f 196 243 198
f 196 198 197
f 198 243 199
f 199 243 201
f 199 201 200
f 201 243 202
f 202 243 203
f 203 241 205
f 203 243 242
f 205 241 246
f 205 246 247
f 205 247 248
f 205 248 206
f 206 248 207
f 207 248 246
f 207 246 210
f 207 210 208
f 208 210 209
f 210 246 211
f 211 246 220
f 211 220 219
f 211 219 213
f 211 213 212
f 213 219 214
f 214 219 215
f 215 219 216
f 216 219 217
f 220 245 249
f 220 249 221
f 221 249 225
f 222 223 224
f 225 249 245
f 225 245 244
f 225 244 240
f 225 240 226
f 226 240 250
f 226 250 227
f 227 250 228
f 228 250 234
f 230 231 232
f 234 238 237
f 234 237 235
f 234 250 251
f 234 251 238
f 235 237 236
f 238 251 239
f 239 251 240
f 240 251 250
f 246 248 247
