v -0.026038 0.045739 0.192714
v 0.022084 0.045739 0.192714
v -0.026038 0.045739 0.216512
v -0.026038 0.066810 0.192714
v -0.026033 0.066816 0.192709
v 0.022084 0.045739 0.223920
v 0.022088 0.066816 0.192709
v -0.023348 0.045739 0.231156
v -0.026033 0.081119 0.232365
v -0.026033 0.081287 0.232421
v -0.026033 0.082443 0.232743
v -0.026038 0.066810 0.222001
v -0.026033 0.100149 0.228649
v -0.026033 0.096686 0.192709
v 0.000046 0.045739 0.239101
v 0.022088 0.066816 0.232477
v 0.022088 0.067928 0.232957
v 0.022084 0.066327 0.232416
v 0.022088 0.086688 0.192709
v -0.022924 0.045739 0.233252
v -0.022868 0.045739 0.233499
v -0.022703 0.045739 0.234157
v -0.026033 0.082861 0.232808
v -0.022185 0.045739 0.235698
v -0.022161 0.045739 0.235754
v -0.026033 0.084891 0.232957
v -0.026033 0.098608 0.232551
v -0.026033 0.098825 0.232281
v -0.026033 0.099677 0.231053
v -0.023221 0.100709 0.230035
v -0.023221 0.100709 0.229410
v -0.024003 0.097023 0.192709
v -0.000835 0.045739 0.239628
v 0.022088 0.070355 0.233331
v 0.021956 0.086769 0.192709
v 0.022088 0.091079 0.224863
v -0.021219 0.045739 0.237485
v -0.021030 0.045739 0.237766
v -0.019843 0.045739 0.238807
v -0.019608 0.045739 0.239012
v -0.024003 0.098711 0.232579
v -0.019155 0.100155 0.231776
v -0.018585 0.045739 0.239684
v -0.018397 0.045739 0.239787
v -0.018336 0.046119 0.239764
v -0.016734 0.046119 0.240132
v -0.015745 0.052855 0.239647
v -0.015302 0.054472 0.239539
v -0.013686 0.055069 0.239600
v -0.011882 0.060655 0.238989
v -0.011882 0.063081 0.238615
v -0.021582 0.100030 0.231492
v -0.021582 0.100795 0.230278
v -0.019155 0.101007 0.228653
v -0.021582 0.097327 0.192709
v -0.021982 0.097278 0.192709
v -0.000792 0.046119 0.239637
v -0.001009 0.045739 0.239679
v 0.022088 0.088783 0.232393
v 0.005068 0.060655 0.237976
v 0.002646 0.055813 0.238783
v 0.000597 0.050966 0.239357
v -0.000590 0.048539 0.239689
v 0.019945 0.088007 0.192709
v 0.022088 0.091177 0.226198
v 0.018734 0.088707 0.192709
v 0.018466 0.088859 0.192709
v 0.017194 0.089548 0.192709
v 0.015225 0.090574 0.192709
v 0.014009 0.091166 0.192709
v 0.012346 0.091921 0.192709
v 0.011969 0.092078 0.192709
v 0.012610 0.095400 0.228653
v -0.019155 0.098944 0.232561
v -0.016729 0.100182 0.231874
v -0.016729 0.100980 0.230665
v -0.019155 0.100909 0.230563
v -0.017045 0.045739 0.240100
v -0.016734 0.045739 0.240160
v -0.014308 0.048539 0.240184
v -0.014308 0.050966 0.240002
v -0.014421 0.053550 0.239717
v -0.011882 0.056519 0.239507
v -0.011882 0.058229 0.239311
v -0.009460 0.060655 0.238975
v -0.009460 0.063081 0.238615
v -0.011882 0.098999 0.232561
v -0.016729 0.098966 0.232565
v -0.016729 0.101143 0.228653
v -0.019155 0.097533 0.192709
v -0.019556 0.097501 0.192709
v -0.002173 0.045739 0.239955
v 0.022088 0.089977 0.231048
v 0.020275 0.090477 0.231851
v 0.018659 0.091085 0.232379
v 0.022041 0.088794 0.232397
v 0.002646 0.060655 0.238358
v 0.002646 0.058229 0.238634
v 0.000088 0.053338 0.239395
v -0.000613 0.050966 0.239642
v -0.002192 0.048539 0.239936
v -0.002192 0.046119 0.239974
v 0.022088 0.091177 0.226226
v 0.011456 0.095926 0.230157
v 0.009788 0.092984 0.192709
v 0.011395 0.095905 0.228653
v -0.011882 0.100209 0.231898
v -0.014303 0.100177 0.231898
v -0.014303 0.101002 0.230684
v -0.014303 0.101186 0.228653
v -0.014685 0.045739 0.240324
v -0.011882 0.048539 0.240207
v -0.011882 0.050966 0.240030
v -0.014308 0.045739 0.240347
v -0.011882 0.045739 0.240389
v -0.011882 0.053387 0.239810
v -0.011882 0.055308 0.239628
v -0.009460 0.056464 0.239502
v -0.009460 0.055259 0.239628
v -0.009460 0.058229 0.239292
v -0.007034 0.060655 0.238914
v -0.007034 0.063081 0.238559
v -0.007034 0.058229 0.239245
v -0.004608 0.098635 0.232537
v -0.007034 0.098782 0.232565
v -0.009456 0.098917 0.232561
v -0.016729 0.097647 0.192709
v -0.002573 0.045739 0.240030
v 0.022088 0.090032 0.230969
v 0.021151 0.091128 0.230231
v 0.019526 0.091513 0.231058
v 0.016426 0.093592 0.230311
v 0.014678 0.093929 0.231100
v 0.013807 0.093478 0.232369
v 0.017194 0.091351 0.232472
v 0.000225 0.060655 0.238578
v 0.000225 0.058229 0.238891
v 0.000225 0.055813 0.239171
v -0.000807 0.052497 0.239586
v -0.004618 0.046119 0.240272
v -0.004618 0.045739 0.240286
v -0.002192 0.050966 0.239801
v 0.022088 0.091155 0.228373
v 0.008742 0.095807 0.232299
v 0.009925 0.096507 0.228653
v 0.007499 0.097403 0.228653
v 0.004437 0.098407 0.230278
v 0.009699 0.096154 0.231006
v 0.009049 0.093278 0.192709
v -0.009456 0.100893 0.230525
v -0.011882 0.100969 0.230684
v -0.002187 0.098467 0.232458
v -0.009456 0.100128 0.231739
v -0.011882 0.101127 0.228653
v -0.014303 0.097674 0.192709
v -0.009460 0.048539 0.240202
v -0.009460 0.046119 0.240370
v -0.009460 0.050966 0.240020
v -0.009460 0.053387 0.239806
v -0.009837 0.045739 0.240394
v -0.007034 0.056269 0.239474
v -0.007034 0.053387 0.239764
v -0.007034 0.055053 0.239600
v -0.004618 0.060655 0.238825
v -0.004618 0.058229 0.239166
v -0.004618 0.063081 0.238466
v -0.004505 0.055694 0.239460
v 0.005077 0.096252 0.232514
v 0.022088 0.090102 0.230824
v 0.012346 0.093706 0.232463
v 0.000225 0.063081 0.238204
v -0.002192 0.063081 0.238354
v -0.002192 0.060655 0.238723
v -0.002192 0.058229 0.239054
v -0.002192 0.055813 0.239339
v -0.002192 0.054174 0.239516
v -0.002192 0.052963 0.239633
v -0.004618 0.048539 0.240104
v -0.007034 0.046119 0.240352
v -0.004995 0.045739 0.240310
v -0.004618 0.050966 0.239913
v 0.001351 0.098163 0.232267
v 0.007499 0.095959 0.232388
v 0.008464 0.093495 0.192709
v 0.005647 0.098011 0.228653
v 0.007682 0.093782 0.192709
v 0.005077 0.094667 0.192709
v 0.002651 0.098651 0.230763
v 0.004437 0.098407 0.228653
v 0.002651 0.098901 0.228653
v 0.000230 0.099487 0.228653
v -0.005527 0.100692 0.229984
v -0.007034 0.100785 0.230227
v -0.000265 0.098331 0.232379
v -0.007034 0.099997 0.231440
v -0.009456 0.100969 0.228653
v -0.009456 0.097479 0.192709
v -0.011882 0.097615 0.192709
v -0.007034 0.048539 0.240174
v -0.009460 0.045739 0.240394
v -0.007034 0.050966 0.239978
v -0.005240 0.054809 0.239581
v -0.004505 0.053582 0.239675
v -0.003624 0.054521 0.239549
v -0.007034 0.045739 0.240370
v 0.000418 0.098868 0.231305
v 0.002614 0.095373 0.192709
v 0.002383 0.095438 0.192709
v 0.001210 0.095742 0.192709
v -0.002187 0.099997 0.228653
v 0.000037 0.096019 0.192709
v -0.000392 0.096111 0.192709
v -0.005527 0.100692 0.229554
v -0.007190 0.100768 0.228709
v -0.007034 0.097245 0.192709
v -0.002187 0.096486 0.192709
v -0.004608 0.096904 0.192709
f 1 2 6
f 1 6 15
f 1 15 33
f 1 33 58
f 1 58 92
f 1 92 128
f 1 128 141
f 1 141 180
f 1 180 205
f 1 205 200
f 1 200 160
f 1 160 115
f 1 115 114
f 1 114 111
f 1 111 79
f 1 79 78
f 1 78 44
f 1 44 43
f 1 43 40
f 1 40 39
f 1 39 38
f 1 38 37
f 1 37 25
f 1 25 24
f 1 24 22
f 1 22 21
f 1 21 20
f 1 20 8
f 1 8 3
f 1 3 12
f 1 12 4
f 1 4 14
f 1 14 5
f 1 5 7
f 1 7 2
f 2 7 16
f 2 16 6
f 3 8 9
f 3 9 10
f 3 10 11
f 3 11 12
f 4 12 13
f 4 13 14
f 5 14 32
f 5 32 56
f 5 56 55
f 5 55 91
f 5 91 90
f 5 90 127
f 5 127 155
f 5 155 198
f 5 198 197
f 5 197 215
f 5 215 217
f 5 217 216
f 5 216 212
f 5 212 211
f 5 211 209
f 5 209 208
f 5 208 207
f 5 207 187
f 5 187 186
f 5 186 184
f 5 184 149
f 5 149 105
f 5 105 72
f 5 72 71
f 5 71 70
f 5 70 69
f 5 69 68
f 5 68 67
f 5 67 66
f 5 66 64
f 5 64 35
f 5 35 19
f 5 19 7
f 6 16 17
f 6 17 18
f 6 18 15
f 7 19 36
f 7 36 65
f 7 65 103
f 7 103 143
f 7 143 169
f 7 169 129
f 7 129 93
f 7 93 59
f 7 59 34
f 7 34 17
f 7 17 16
f 8 20 9
f 9 20 21
f 9 21 10
f 10 21 22
f 10 22 11
f 11 23 12
f 11 22 24
f 11 24 25
f 11 25 23
f 12 23 26
f 12 26 27
f 12 27 28
f 12 28 29
f 12 29 13
f 13 29 30
f 13 30 31
f 13 31 14
f 14 31 32
f 15 18 17
f 15 17 33
f 17 34 33
f 19 35 36
f 23 25 37
f 23 37 26
f 26 37 38
f 26 38 39
f 26 39 40
f 26 40 27
f 27 41 42
f 27 42 28
f 27 40 43
f 27 43 44
f 27 44 45
f 27 45 46
f 27 46 47
f 27 47 48
f 27 48 49
f 27 49 50
f 27 50 51
f 27 51 41
f 28 42 52
f 28 52 29
f 29 52 53
f 29 53 30
f 30 53 54
f 30 54 31
f 31 54 55
f 31 55 56
f 31 56 32
f 33 57 58
f 33 34 57
f 34 59 60
f 34 60 61
f 34 61 62
f 34 62 63
f 34 63 57
f 35 64 36
f 36 64 66
f 36 66 67
f 36 67 68
f 36 68 69
f 36 69 70
f 36 70 71
f 36 71 72
f 36 72 73
f 36 73 65
f 41 74 75
f 41 75 42
f 41 51 74
f 42 75 76
f 42 76 77
f 42 77 53
f 42 53 52
f 44 78 45
f 45 78 46
f 46 78 79
f 46 79 80
f 46 80 81
f 46 81 47
f 47 81 48
f 48 81 82
f 48 82 49
f 49 82 81
f 49 81 83
f 49 83 84
f 49 84 50
f 50 84 85
f 50 85 86
f 50 86 51
f 51 86 87
f 51 87 88
f 51 88 74
f 53 77 89
f 53 89 54
f 54 89 90
f 54 90 91
f 54 91 55
f 57 63 58
f 58 63 92
f 59 93 94
f 59 94 95
f 59 95 96
f 59 96 97
f 59 97 98
f 59 98 60
f 60 98 61
f 61 98 99
f 61 99 100
f 61 100 63
f 61 63 62
f 63 100 101
f 63 101 102
f 63 102 92
f 65 73 104
f 65 104 103
f 72 105 73
f 73 106 104
f 73 105 106
f 74 88 107
f 74 107 108
f 74 108 75
f 75 107 109
f 75 109 76
f 75 108 107
f 76 109 110
f 76 110 89
f 76 89 77
f 79 111 80
f 80 112 113
f 80 113 81
f 80 111 114
f 80 114 115
f 80 115 112
f 81 113 116
f 81 116 117
f 81 117 83
f 83 118 84
f 83 117 119
f 83 119 118
f 84 118 120
f 84 120 85
f 85 121 122
f 85 122 86
f 85 120 123
f 85 123 121
f 86 122 124
f 86 124 125
f 86 125 126
f 86 126 87
f 87 126 107
f 87 107 88
f 89 110 127
f 89 127 90
f 92 102 128
f 93 129 130
f 93 130 131
f 93 131 95
f 93 95 94
f 95 131 132
f 95 132 133
f 95 133 134
f 95 134 135
f 95 135 97
f 95 97 96
f 97 136 137
f 97 137 138
f 97 138 98
f 97 135 136
f 98 138 99
f 99 139 100
f 99 138 139
f 100 139 101
f 101 140 141
f 101 141 128
f 101 128 102
f 101 139 142
f 101 142 140
f 103 104 143
f 104 144 133
f 104 133 132
f 104 132 143
f 104 106 145
f 104 145 146
f 104 146 147
f 104 147 148
f 104 148 144
f 105 149 145
f 105 145 106
f 107 150 151
f 107 151 109
f 107 126 125
f 107 125 124
f 107 124 152
f 107 152 153
f 107 153 150
f 109 151 110
f 110 151 154
f 110 154 198
f 110 198 155
f 110 155 127
f 112 156 113
f 112 115 157
f 112 157 156
f 113 158 159
f 113 159 116
f 113 156 158
f 115 160 157
f 116 159 119
f 116 119 117
f 118 119 161
f 118 161 123
f 118 123 120
f 119 159 162
f 119 162 163
f 119 163 161
f 121 164 122
f 121 123 165
f 121 165 164
f 122 164 166
f 122 166 124
f 123 161 167
f 123 167 165
f 124 168 152
f 124 166 168
f 129 169 130
f 130 143 132
f 130 132 131
f 130 169 143
f 133 144 134
f 134 144 170
f 134 170 135
f 135 170 171
f 135 171 136
f 136 171 172
f 136 172 173
f 136 173 174
f 136 174 137
f 137 174 175
f 137 175 138
f 138 175 176
f 138 176 139
f 139 176 177
f 139 177 142
f 140 142 178
f 140 178 179
f 140 179 180
f 140 180 141
f 142 177 181
f 142 181 178
f 144 148 147
f 144 147 182
f 144 182 183
f 144 183 170
f 145 149 184
f 145 184 146
f 146 185 147
f 146 184 186
f 146 186 187
f 146 187 185
f 147 188 182
f 147 185 189
f 147 189 190
f 147 190 191
f 147 191 192
f 147 192 188
f 150 154 151
f 150 153 193
f 150 193 154
f 152 168 194
f 152 194 153
f 153 195 193
f 153 194 195
f 154 193 192
f 154 192 196
f 154 196 197
f 154 197 198
f 156 199 158
f 156 157 179
f 156 179 199
f 157 160 200
f 157 200 179
f 158 201 162
f 158 162 159
f 158 199 201
f 161 163 202
f 161 202 167
f 162 203 202
f 162 202 163
f 162 201 181
f 162 181 203
f 164 173 166
f 164 165 173
f 165 167 174
f 165 174 173
f 166 173 172
f 166 172 168
f 167 175 174
f 167 202 204
f 167 204 175
f 168 170 183
f 168 183 194
f 168 172 171
f 168 171 170
f 175 204 176
f 176 204 177
f 177 204 203
f 177 203 181
f 178 181 199
f 178 199 179
f 179 200 205
f 179 205 180
f 181 201 199
f 182 188 206
f 182 206 192
f 182 192 193
f 182 193 195
f 182 195 194
f 182 194 183
f 185 187 189
f 187 207 189
f 188 192 206
f 189 207 208
f 189 208 190
f 190 208 209
f 190 209 191
f 191 210 192
f 191 209 211
f 191 211 212
f 191 212 210
f 192 210 213
f 192 213 196
f 196 213 214
f 196 214 197
f 197 214 213
f 197 213 215
f 202 203 204
f 210 212 216
f 210 216 213
f 213 216 217
f 213 217 215
