v 0.005518 0.045733 0.221204
v 0.004946 0.045733 0.226235
v -0.006337 0.011499 0.221204
v -0.024152 0.045733 0.221204
v 0.004885 0.045733 0.226774
v -0.007199 0.011489 0.228658
v -0.006367 0.011489 0.221321
v -0.016413 0.011489 0.221204
v -0.039454 0.014009 0.221204
v -0.023677 0.045733 0.228281
v 0.004664 0.045733 0.228658
v -0.007499 0.011489 0.231113
v -0.039454 0.011489 0.221204
v -0.039454 0.013168 0.221638
v -0.036949 0.011489 0.233393
v -0.036875 0.011489 0.233680
v -0.022704 0.045733 0.234165
v -0.022871 0.045733 0.233505
v -0.022924 0.045733 0.233263
v -0.023351 0.045733 0.231159
v -0.023413 0.045733 0.230649
v -0.023650 0.045733 0.228658
v 0.004598 0.045733 0.229137
v -0.007613 0.011489 0.231790
v 0.004312 0.045733 0.231190
v -0.037055 0.011489 0.232922
v -0.039454 0.011495 0.222352
v -0.039454 0.012182 0.222104
v -0.039454 0.011646 0.222300
v -0.036249 0.011489 0.235158
v -0.022162 0.045733 0.235758
v -0.022185 0.045733 0.235702
v -0.022242 0.045733 0.235548
v -0.007943 0.011489 0.233709
v 0.004281 0.045733 0.231361
v -0.035805 0.011489 0.235951
v -0.022796 0.042475 0.237142
v -0.021220 0.045733 0.237492
v -0.008049 0.011489 0.234180
v 0.004026 0.045733 0.232776
v 0.003876 0.045733 0.233505
v -0.034964 0.011489 0.237157
v -0.021031 0.045733 0.237775
v -0.008203 0.011489 0.234837
v 0.003766 0.045733 0.233897
v -0.034647 0.011489 0.237409
v -0.019614 0.045733 0.239020
v -0.019847 0.045733 0.238816
v -0.008652 0.011489 0.236003
v 0.003053 0.045733 0.235912
v -0.034185 0.011489 0.237707
v -0.027819 0.021156 0.239662
v -0.027498 0.022772 0.239493
v -0.027243 0.024297 0.239295
v -0.025024 0.029861 0.239439
v -0.018588 0.045733 0.239697
v -0.022810 0.035245 0.239574
v -0.008366 0.013765 0.236892
v -0.008881 0.011489 0.236380
v 0.002886 0.045733 0.236220
v -0.033775 0.011489 0.237931
v -0.029593 0.017026 0.239362
v -0.026032 0.024297 0.239936
v -0.025609 0.026720 0.239784
v -0.025319 0.028249 0.239632
v -0.028083 0.019450 0.239762
v -0.018399 0.045733 0.239791
v -0.009907 0.011489 0.237911
v 0.001675 0.044282 0.237401
v 0.001953 0.045733 0.237654
v -0.031922 0.011489 0.238885
v -0.031046 0.014415 0.238960
v -0.029831 0.015099 0.239497
v -0.024007 0.026720 0.240305
v -0.023466 0.031567 0.239909
v -0.030086 0.013483 0.239572
v -0.026428 0.019450 0.240167
v -0.024007 0.024297 0.240463
v -0.021581 0.033991 0.240228
v -0.019160 0.038838 0.240344
v -0.017047 0.045733 0.240105
v -0.008454 0.021166 0.239433
v -0.010959 0.013996 0.239431
v -0.011500 0.011489 0.239162
v -0.003568 0.035667 0.239458
v 0.001741 0.045733 0.237831
v -0.031125 0.011489 0.239156
v -0.030086 0.013262 0.239572
v -0.021581 0.031567 0.240488
v -0.026428 0.017026 0.240143
v -0.024007 0.021873 0.240482
v -0.021581 0.026720 0.240667
v -0.021581 0.029144 0.240628
v -0.019160 0.036414 0.240536
v -0.016739 0.043685 0.240357
v -0.016739 0.045733 0.240172
v -0.008159 0.022782 0.239628
v -0.010616 0.015612 0.239605
v -0.011875 0.011489 0.239374
v -0.001485 0.041262 0.239241
v -0.001182 0.043095 0.239466
v -0.003312 0.037283 0.239624
v -0.005729 0.030032 0.239634
v 0.000055 0.045733 0.239108
v -0.029708 0.011489 0.239487
v -0.029571 0.011643 0.239522
v -0.028797 0.012343 0.239647
v -0.026428 0.014603 0.240022
v -0.024007 0.019450 0.240421
v -0.021581 0.021873 0.240609
v -0.021581 0.024297 0.240659
v -0.019160 0.026720 0.240763
v -0.019160 0.029144 0.240767
v -0.019160 0.031567 0.240725
v -0.019160 0.033991 0.240648
v -0.016739 0.041262 0.240507
v -0.014692 0.045733 0.240334
v -0.007908 0.024297 0.239774
v -0.010369 0.017026 0.239743
v -0.012658 0.011489 0.239747
v -0.000935 0.044711 0.239589
v -0.003083 0.038838 0.239747
v -0.005082 0.033991 0.239949
v -0.005491 0.031567 0.239770
v -0.000830 0.045733 0.239634
v -0.029505 0.011489 0.239514
v -0.028352 0.011489 0.239616
v -0.027155 0.011489 0.239718
v -0.026428 0.012179 0.239834
v -0.024007 0.012179 0.239964
v -0.024007 0.014603 0.240149
v -0.024007 0.017026 0.240295
v -0.021581 0.017026 0.240405
v -0.021581 0.019450 0.240523
v -0.019160 0.019450 0.240621
v -0.019160 0.021873 0.240698
v -0.019160 0.024297 0.240736
v -0.016739 0.024297 0.240811
v -0.016739 0.026720 0.240827
v -0.016739 0.029144 0.240798
v -0.011892 0.038838 0.240684
v -0.014313 0.038838 0.240642
v -0.016739 0.038838 0.240598
v -0.014313 0.041262 0.240576
v -0.014313 0.043685 0.240459
v -0.014313 0.045733 0.240349
v -0.009964 0.019450 0.239936
v -0.007521 0.026720 0.239955
v -0.011892 0.017026 0.240222
v -0.014313 0.012179 0.240105
v -0.014265 0.011489 0.240020
v -0.002696 0.041262 0.239880
v -0.004475 0.036451 0.239999
v -0.007041 0.031567 0.240370
v -0.001001 0.045733 0.239685
v -0.026428 0.011489 0.239766
v -0.024865 0.011489 0.239851
v -0.024042 0.011489 0.239895
v -0.021581 0.011489 0.240005
v -0.021581 0.012179 0.240072
v -0.021581 0.014603 0.240255
v -0.019160 0.017026 0.240503
v -0.016739 0.019450 0.240671
v -0.016739 0.021873 0.240761
v -0.014313 0.024297 0.240842
v -0.014313 0.026720 0.240857
v -0.011892 0.031567 0.240807
v -0.009467 0.036414 0.240757
v -0.011892 0.041262 0.240613
v -0.009467 0.038838 0.240709
v -0.011892 0.043685 0.240499
v -0.011892 0.045733 0.240390
v -0.009467 0.024297 0.240369
v -0.011892 0.019450 0.240476
v -0.014313 0.014603 0.240349
v -0.015005 0.011489 0.240061
v -0.004620 0.038838 0.240284
v -0.007041 0.033991 0.240569
v -0.009467 0.026720 0.240586
v -0.002177 0.045733 0.239959
v -0.004620 0.041262 0.240392
v -0.019160 0.011489 0.240086
v -0.019160 0.012179 0.240151
v -0.019160 0.014603 0.240345
v -0.016739 0.017026 0.240544
v -0.014313 0.019450 0.240659
v -0.014313 0.021873 0.240769
v -0.011892 0.024297 0.240796
v -0.011892 0.026720 0.240846
v -0.011892 0.029144 0.240842
v -0.009467 0.033991 0.240794
v -0.007041 0.038838 0.240676
v -0.009467 0.041262 0.240628
v -0.007041 0.041262 0.240607
v -0.009467 0.043685 0.240513
v -0.009467 0.045733 0.240397
v -0.011892 0.021873 0.240667
v -0.014313 0.017026 0.240532
v -0.016739 0.014603 0.240380
v -0.016739 0.012179 0.240184
v -0.016739 0.011489 0.240117
v -0.007041 0.036414 0.240667
v -0.009467 0.029144 0.240725
v -0.002573 0.045733 0.240041
v -0.004620 0.043685 0.240382
v -0.017421 0.011489 0.240109
v -0.009467 0.031567 0.240798
v -0.007041 0.043685 0.240496
v -0.004620 0.045733 0.240295
v -0.004998 0.045733 0.240313
v -0.007420 0.045733 0.240378
v -0.007041 0.045733 0.240374
f 1 2 3
f 1 3 8
f 1 8 13
f 1 13 9
f 1 9 4
f 1 4 10
f 1 10 22
f 1 22 21
f 1 21 20
f 1 20 19
f 1 19 18
f 1 18 17
f 1 17 33
f 1 33 32
f 1 32 31
f 1 31 38
f 1 38 43
f 1 43 48
f 1 48 47
f 1 47 56
f 1 56 67
f 1 67 81
f 1 81 96
f 1 96 117
f 1 117 146
f 1 146 172
f 1 172 196
f 1 196 211
f 1 211 212
f 1 212 210
f 1 210 209
f 1 209 204
f 1 204 180
f 1 180 155
f 1 155 125
f 1 125 104
f 1 104 86
f 1 86 70
f 1 70 60
f 1 60 50
f 1 50 45
f 1 45 41
f 1 41 40
f 1 40 35
f 1 35 25
f 1 25 23
f 1 23 11
f 1 11 5
f 1 5 2
f 2 5 3
f 3 5 6
f 3 6 7
f 3 7 8
f 4 9 10
f 5 11 6
f 6 12 24
f 6 24 34
f 6 34 39
f 6 39 44
f 6 44 49
f 6 49 59
f 6 59 68
f 6 68 84
f 6 84 99
f 6 99 120
f 6 120 151
f 6 151 176
f 6 176 201
f 6 201 206
f 6 206 182
f 6 182 159
f 6 159 158
f 6 158 157
f 6 157 156
f 6 156 128
f 6 128 127
f 6 127 126
f 6 126 105
f 6 105 87
f 6 87 71
f 6 71 61
f 6 61 51
f 6 51 46
f 6 46 42
f 6 42 36
f 6 36 30
f 6 30 16
f 6 16 15
f 6 15 26
f 6 26 13
f 6 13 8
f 6 8 7
f 6 11 12
f 9 13 27
f 9 27 29
f 9 29 28
f 9 28 14
f 9 14 15
f 9 15 16
f 9 16 17
f 9 17 18
f 9 18 19
f 9 19 20
f 9 20 21
f 9 21 22
f 9 22 10
f 11 23 12
f 12 23 25
f 12 25 24
f 13 26 27
f 14 28 15
f 15 28 29
f 15 29 27
f 15 27 26
f 16 30 31
f 16 31 32
f 16 32 33
f 16 33 17
f 24 25 34
f 25 35 34
f 30 36 37
f 30 37 31
f 31 37 38
f 34 35 40
f 34 40 41
f 34 41 39
f 36 42 37
f 37 43 38
f 37 42 43
f 39 41 44
f 41 45 44
f 42 46 47
f 42 47 48
f 42 48 43
f 44 45 50
f 44 50 49
f 46 51 52
f 46 52 53
f 46 53 54
f 46 54 55
f 46 55 47
f 47 55 57
f 47 57 56
f 49 58 59
f 49 50 60
f 49 60 58
f 51 61 62
f 51 62 52
f 52 63 64
f 52 64 65
f 52 65 53
f 52 62 66
f 52 66 63
f 53 65 55
f 53 55 54
f 55 65 57
f 56 57 67
f 57 65 64
f 57 64 67
f 58 68 59
f 58 60 69
f 58 69 68
f 60 70 69
f 61 71 72
f 61 72 62
f 62 72 73
f 62 73 66
f 63 74 75
f 63 75 64
f 63 66 74
f 64 75 67
f 66 73 76
f 66 76 77
f 66 77 78
f 66 78 74
f 67 75 79
f 67 79 80
f 67 80 81
f 68 82 83
f 68 83 84
f 68 69 70
f 68 70 85
f 68 85 82
f 70 86 85
f 71 87 88
f 71 88 76
f 71 76 73
f 71 73 72
f 74 78 89
f 74 89 79
f 74 79 75
f 76 88 77
f 77 90 91
f 77 91 78
f 77 88 90
f 78 91 92
f 78 92 93
f 78 93 89
f 79 89 80
f 80 94 95
f 80 95 96
f 80 96 81
f 80 89 94
f 82 97 98
f 82 98 83
f 82 85 97
f 83 98 99
f 83 99 84
f 85 86 100
f 85 100 101
f 85 101 102
f 85 102 103
f 85 103 97
f 86 104 101
f 86 101 100
f 87 105 88
f 88 105 106
f 88 106 107
f 88 107 108
f 88 108 90
f 89 93 94
f 90 108 109
f 90 109 91
f 91 109 110
f 91 110 111
f 91 111 92
f 92 111 112
f 92 112 113
f 92 113 93
f 93 113 114
f 93 114 115
f 93 115 94
f 94 115 116
f 94 116 95
f 95 116 117
f 95 117 96
f 97 118 119
f 97 119 98
f 97 103 118
f 98 119 120
f 98 120 99
f 101 121 122
f 101 122 102
f 101 104 121
f 102 122 123
f 102 123 124
f 102 124 103
f 103 124 118
f 104 125 121
f 105 126 106
f 106 126 127
f 106 127 107
f 107 127 128
f 107 128 129
f 107 129 108
f 108 129 130
f 108 130 131
f 108 131 132
f 108 132 109
f 109 132 133
f 109 133 134
f 109 134 110
f 110 135 136
f 110 136 111
f 110 134 135
f 111 136 137
f 111 137 112
f 112 137 138
f 112 138 139
f 112 139 113
f 113 139 140
f 113 140 114
f 114 140 141
f 114 141 142
f 114 142 143
f 114 143 115
f 115 143 116
f 116 143 144
f 116 144 145
f 116 145 146
f 116 146 117
f 118 147 119
f 118 124 123
f 118 123 148
f 118 148 147
f 119 147 120
f 120 147 149
f 120 149 150
f 120 150 151
f 121 125 152
f 121 152 122
f 122 152 123
f 123 152 153
f 123 153 154
f 123 154 148
f 125 155 152
f 128 156 129
f 129 156 157
f 129 157 130
f 130 157 158
f 130 158 159
f 130 159 160
f 130 160 131
f 131 160 161
f 131 161 133
f 131 133 132
f 133 161 162
f 133 162 135
f 133 135 134
f 135 163 164
f 135 164 136
f 135 162 163
f 136 164 138
f 136 138 137
f 138 164 165
f 138 165 166
f 138 166 139
f 139 166 140
f 140 166 167
f 140 167 168
f 140 168 141
f 141 169 144
f 141 144 142
f 141 168 170
f 141 170 169
f 142 144 143
f 144 169 171
f 144 171 145
f 145 171 172
f 145 172 146
f 147 148 173
f 147 173 149
f 148 154 173
f 149 174 150
f 149 173 174
f 150 175 176
f 150 176 151
f 150 174 175
f 152 155 177
f 152 177 153
f 153 177 154
f 154 178 179
f 154 179 173
f 154 177 178
f 155 180 181
f 155 181 177
f 159 182 160
f 160 182 183
f 160 183 184
f 160 184 161
f 161 184 162
f 162 184 185
f 162 185 163
f 163 185 198
f 163 198 186
f 163 186 187
f 163 187 164
f 164 187 165
f 165 187 188
f 165 188 189
f 165 189 166
f 166 189 190
f 166 190 191
f 166 191 167
f 167 191 168
f 168 191 192
f 168 192 170
f 169 170 193
f 169 193 171
f 170 192 194
f 170 194 193
f 171 193 195
f 171 195 172
f 172 195 196
f 173 179 174
f 174 179 197
f 174 197 175
f 175 197 198
f 175 198 199
f 175 199 200
f 175 200 201
f 175 201 176
f 177 181 178
f 178 181 202
f 178 202 203
f 178 203 179
f 179 203 197
f 180 204 181
f 181 205 192
f 181 192 202
f 181 204 205
f 182 206 200
f 182 200 183
f 183 200 199
f 183 199 184
f 184 199 185
f 185 199 198
f 186 198 188
f 186 188 187
f 188 197 203
f 188 203 207
f 188 207 189
f 188 198 197
f 189 207 191
f 189 191 190
f 191 207 192
f 192 205 194
f 192 207 202
f 193 194 208
f 193 208 195
f 194 205 209
f 194 209 210
f 194 210 208
f 195 208 196
f 196 208 211
f 200 206 201
f 202 207 203
f 204 209 205
f 208 212 211
f 208 210 212
