v -0.036295 0.053587 0.003805
v -0.036295 0.054797 0.004024
v -0.035189 0.054676 0.004213
v -0.035085 0.053587 0.004055
v -0.036295 0.051162 0.003827
v -0.037497 0.051162 0.003856
v -0.037504 0.053587 0.003865
v -0.037467 0.054860 0.004124
v -0.037039 0.055431 0.004308
v -0.036295 0.055436 0.004300
v -0.035661 0.055419 0.004316
v -0.034481 0.054192 0.004336
v -0.034467 0.053587 0.004328
v -0.034463 0.052764 0.004325
v -0.034502 0.051162 0.004345
v -0.035107 0.051162 0.004109
v -0.037504 0.051162 0.003857
v -0.038713 0.053587 0.004054
v -0.038713 0.054524 0.004187
v -0.038713 0.055129 0.004563
v -0.037846 0.055304 0.004443
v -0.039548 0.055518 0.005339
v -0.038713 0.055585 0.005169
v -0.037467 0.055597 0.004884
v -0.036295 0.055676 0.004941
v -0.035189 0.055560 0.004982
v -0.034186 0.055500 0.005414
v -0.033380 0.055288 0.005636
v -0.033158 0.054481 0.005425
v -0.033862 0.053587 0.004780
v -0.033876 0.051162 0.004851
v -0.037596 0.051162 0.003879
v -0.038824 0.051162 0.004166
v -0.039474 0.053587 0.004268
v -0.039443 0.054329 0.004283
v -0.039899 0.054787 0.004934
v -0.040354 0.055246 0.005758
v -0.040701 0.055482 0.006564
v -0.039940 0.055614 0.006157
v -0.038713 0.055821 0.006151
v -0.037504 0.055844 0.006151
v -0.036295 0.055855 0.006151
v -0.035085 0.055803 0.006151
v -0.033821 0.055617 0.006084
v -0.033049 0.055525 0.006442
v -0.032700 0.054773 0.006180
v -0.033122 0.053587 0.005385
v -0.032040 0.054258 0.006724
v -0.033170 0.051162 0.005445
v -0.038870 0.051162 0.004179
v -0.039336 0.051162 0.004327
v -0.039699 0.051162 0.004540
v -0.039832 0.051162 0.004620
v -0.040079 0.053587 0.004637
v -0.040692 0.054439 0.005335
v -0.041507 0.055116 0.007052
v -0.041781 0.055443 0.007858
v -0.041116 0.055566 0.007417
v -0.039923 0.055787 0.007360
v -0.039923 0.055843 0.008570
v -0.039923 0.055864 0.009779
v -0.036295 0.055942 0.012199
v -0.033876 0.055882 0.008570
v -0.033876 0.055819 0.007360
v -0.032863 0.055601 0.007360
v -0.032258 0.055087 0.007360
v -0.032517 0.053587 0.006115
v -0.032016 0.051162 0.006711
v -0.031944 0.054482 0.007360
v -0.031853 0.053587 0.007360
v -0.040776 0.051162 0.005285
v -0.040781 0.053587 0.005241
v -0.041786 0.054310 0.006684
v -0.041903 0.054747 0.007417
v -0.042286 0.053587 0.008570
v -0.041977 0.054896 0.008614
v -0.041781 0.055443 0.008240
v -0.041234 0.055625 0.008614
v -0.039923 0.055741 0.010989
v -0.037504 0.055888 0.012199
v -0.041015 0.055657 0.009779
v -0.036295 0.055684 0.013263
v -0.035085 0.055780 0.012199
v -0.033876 0.055859 0.009779
v -0.037504 0.055652 0.013228
v -0.032767 0.055642 0.008570
v -0.032162 0.055294 0.008570
v -0.031844 0.054690 0.008570
v -0.031835 0.051162 0.007360
v -0.031658 0.053587 0.008570
v -0.041419 0.051162 0.006114
v -0.041386 0.053587 0.006019
v -0.041823 0.053587 0.006623
v -0.042093 0.053587 0.007360
v -0.042241 0.052378 0.008570
v -0.042192 0.052378 0.009779
v -0.042210 0.053587 0.009779
v -0.041955 0.054655 0.009779
v -0.041703 0.055365 0.009045
v -0.039890 0.055531 0.012126
v -0.038713 0.055752 0.012199
v -0.040773 0.055545 0.010989
v -0.041620 0.055260 0.009779
v -0.036295 0.055139 0.013869
v -0.035085 0.055552 0.013037
v -0.037504 0.055160 0.013833
v -0.034441 0.055426 0.012843
v -0.034152 0.055515 0.012199
v -0.033275 0.055399 0.011588
v -0.033757 0.055636 0.011107
v -0.032877 0.055611 0.009779
v -0.038713 0.055553 0.013032
v -0.032273 0.055102 0.009779
v -0.031925 0.054498 0.009779
v -0.031770 0.053587 0.009779
v -0.031651 0.051162 0.008570
v -0.031690 0.051162 0.009779
v -0.041458 0.051162 0.006189
v -0.041803 0.052614 0.006651
v -0.041948 0.051162 0.007159
v -0.042171 0.051162 0.008563
v -0.042171 0.051162 0.008570
v -0.042125 0.051162 0.009779
v -0.041923 0.052378 0.010787
v -0.041931 0.053587 0.010834
v -0.041857 0.054443 0.010677
v -0.039464 0.055469 0.012882
v -0.040574 0.055431 0.011675
v -0.041417 0.054826 0.011044
v -0.036295 0.054534 0.014133
v -0.035564 0.054342 0.014061
v -0.035131 0.054766 0.013629
v -0.037504 0.054555 0.014164
v -0.038268 0.054371 0.014101
v -0.034226 0.054797 0.013026
v -0.032991 0.054593 0.011903
v -0.032640 0.054828 0.011028
v -0.033096 0.055502 0.010782
v -0.032034 0.054257 0.010467
v -0.031692 0.051162 0.009787
v -0.031987 0.053587 0.010578
v -0.031918 0.051162 0.010656
v -0.041885 0.051162 0.010659
v -0.041883 0.051162 0.010666
v -0.041630 0.052378 0.011392
v -0.041662 0.053587 0.011440
v -0.040553 0.054249 0.012825
v -0.040779 0.054710 0.012126
v -0.040271 0.055056 0.012481
v -0.039890 0.054710 0.013016
v -0.036295 0.053587 0.014199
v -0.037504 0.053587 0.014271
v -0.036198 0.051162 0.014175
v -0.035581 0.053587 0.014056
v -0.035165 0.051162 0.013851
v -0.033175 0.051162 0.012889
v -0.033269 0.052993 0.012805
v -0.033816 0.053473 0.013086
v -0.033374 0.053799 0.012709
v -0.038342 0.053587 0.014127
v -0.039923 0.053587 0.013263
v -0.038947 0.053587 0.013814
v -0.032920 0.053473 0.012262
v -0.032229 0.053587 0.011182
v -0.032215 0.051162 0.011259
v -0.032213 0.052378 0.011215
v -0.041091 0.051162 0.012199
v -0.040668 0.051162 0.012948
v -0.041112 0.053587 0.012199
v -0.040584 0.053587 0.012857
v -0.037504 0.051162 0.014193
v -0.038341 0.051162 0.014086
v -0.037512 0.051162 0.014193
v -0.032729 0.051162 0.012206
v -0.032793 0.052378 0.012199
v -0.038952 0.051162 0.013869
v -0.039933 0.051162 0.013406
f 1 2 3
f 1 3 4
f 1 4 5
f 1 5 6
f 1 6 7
f 1 7 2
f 2 7 8
f 2 8 9
f 2 9 10
f 2 10 11
f 2 11 3
f 3 11 12
f 3 12 4
f 4 12 13
f 4 13 14
f 4 14 15
f 4 15 16
f 4 16 5
f 5 16 15
f 5 15 31
f 5 31 49
f 5 49 68
f 5 68 89
f 5 89 116
f 5 116 117
f 5 117 140
f 5 140 142
f 5 142 165
f 5 165 174
f 5 174 156
f 5 156 155
f 5 155 153
f 5 153 171
f 5 171 173
f 5 173 172
f 5 172 176
f 5 176 177
f 5 177 168
f 5 168 167
f 5 167 144
f 5 144 143
f 5 143 123
f 5 123 122
f 5 122 121
f 5 121 120
f 5 120 118
f 5 118 91
f 5 91 71
f 5 71 53
f 5 53 52
f 5 52 51
f 5 51 50
f 5 50 33
f 5 33 32
f 5 32 17
f 5 17 6
f 6 17 18
f 6 18 7
f 7 18 19
f 7 19 8
f 8 19 9
f 9 19 20
f 9 20 21
f 9 21 22
f 9 22 23
f 9 23 24
f 9 24 25
f 9 25 10
f 10 25 11
f 11 25 26
f 11 26 27
f 11 27 28
f 11 28 12
f 12 28 29
f 12 29 30
f 12 30 13
f 13 30 14
f 14 30 15
f 15 30 31
f 17 32 18
f 18 32 33
f 18 33 34
f 18 34 35
f 18 35 19
f 19 35 20
f 20 35 22
f 20 22 21
f 22 35 36
f 22 36 37
f 22 37 38
f 22 38 39
f 22 39 40
f 22 40 23
f 23 40 24
f 24 40 25
f 25 40 41
f 25 41 42
f 25 42 43
f 25 43 26
f 26 43 44
f 26 44 27
f 27 44 45
f 27 45 28
f 28 45 46
f 28 46 29
f 29 47 30
f 29 46 48
f 29 48 47
f 30 47 31
f 31 47 49
f 33 50 34
f 34 51 52
f 34 52 53
f 34 53 54
f 34 54 35
f 34 50 51
f 35 54 55
f 35 55 36
f 36 55 37
f 37 55 56
f 37 56 57
f 37 57 38
f 38 57 58
f 38 58 39
f 39 59 40
f 39 58 59
f 40 59 60
f 40 60 41
f 41 60 61
f 41 61 62
f 41 62 42
f 42 62 63
f 42 63 64
f 42 64 43
f 43 64 44
f 44 64 45
f 45 65 66
f 45 66 48
f 45 48 46
f 45 64 65
f 47 48 67
f 47 67 68
f 47 68 49
f 48 68 67
f 48 66 69
f 48 69 70
f 48 70 68
f 53 71 54
f 54 71 72
f 54 72 55
f 55 72 73
f 55 73 56
f 56 73 57
f 57 73 74
f 57 74 75
f 57 75 76
f 57 76 77
f 57 77 78
f 57 78 58
f 58 78 59
f 59 78 60
f 60 78 61
f 61 79 80
f 61 80 62
f 61 78 81
f 61 81 79
f 62 82 83
f 62 83 84
f 62 84 63
f 62 80 85
f 62 85 82
f 63 84 86
f 63 86 65
f 63 65 64
f 65 86 87
f 65 87 66
f 66 87 88
f 66 88 69
f 68 70 89
f 69 88 90
f 69 90 70
f 70 90 89
f 71 91 92
f 71 92 72
f 72 92 73
f 73 93 94
f 73 94 74
f 73 92 93
f 74 94 75
f 75 95 96
f 75 96 97
f 75 97 76
f 75 94 95
f 76 97 98
f 76 98 77
f 77 99 81
f 77 81 78
f 77 98 99
f 79 100 101
f 79 101 80
f 79 81 102
f 79 102 100
f 80 101 85
f 81 99 103
f 81 103 102
f 82 104 105
f 82 105 83
f 82 85 106
f 82 106 104
f 83 105 107
f 83 107 108
f 83 108 109
f 83 109 110
f 83 110 84
f 84 110 111
f 84 111 86
f 85 101 112
f 85 112 106
f 86 111 87
f 87 111 113
f 87 113 114
f 87 114 88
f 88 114 115
f 88 115 90
f 89 90 116
f 90 115 117
f 90 117 116
f 91 118 119
f 91 119 93
f 91 93 92
f 93 119 120
f 93 120 94
f 94 120 95
f 95 120 121
f 95 121 122
f 95 122 123
f 95 123 96
f 96 123 124
f 96 124 125
f 96 125 97
f 97 125 126
f 97 126 98
f 98 126 103
f 98 103 99
f 100 127 101
f 100 102 128
f 100 128 127
f 101 127 112
f 102 103 128
f 103 126 129
f 103 129 128
f 104 130 131
f 104 131 132
f 104 132 105
f 104 106 133
f 104 133 130
f 105 132 107
f 106 134 133
f 106 112 127
f 106 127 134
f 107 135 136
f 107 136 109
f 107 109 108
f 107 132 135
f 109 136 137
f 109 137 113
f 109 113 138
f 109 138 110
f 110 138 111
f 111 138 113
f 113 139 114
f 113 137 139
f 114 139 115
f 115 140 117
f 115 139 141
f 115 141 142
f 115 142 140
f 118 120 119
f 123 143 124
f 124 143 144
f 124 144 145
f 124 145 146
f 124 146 125
f 125 146 126
f 126 146 147
f 126 147 148
f 126 148 129
f 127 128 149
f 127 149 147
f 127 147 150
f 127 150 134
f 128 129 148
f 128 148 149
f 130 151 131
f 130 133 152
f 130 152 151
f 131 135 132
f 131 151 153
f 131 153 154
f 131 154 155
f 131 155 156
f 131 156 157
f 131 157 158
f 131 158 159
f 131 159 135
f 133 134 152
f 134 160 152
f 134 150 147
f 134 147 161
f 134 161 162
f 134 162 160
f 135 159 136
f 136 159 163
f 136 163 164
f 136 164 139
f 136 139 137
f 139 164 141
f 141 164 142
f 142 164 166
f 142 166 165
f 144 167 145
f 145 167 168
f 145 168 146
f 146 168 169
f 146 169 147
f 147 169 170
f 147 170 161
f 147 149 148
f 151 152 153
f 152 171 153
f 152 160 172
f 152 172 173
f 152 173 171
f 153 155 154
f 156 174 175
f 156 175 163
f 156 163 157
f 157 159 158
f 157 163 159
f 160 176 172
f 160 162 177
f 160 177 176
f 161 177 162
f 161 170 177
f 163 175 164
f 164 175 174
f 164 174 166
f 165 166 174
f 168 170 169
f 168 177 170
