v -0.036951 -0.050374 0.008924
v -0.036951 -0.050374 -0.000413
v -0.044353 -0.050374 0.008924
v -0.036951 -0.060378 0.008924
v -0.037502 -0.050374 -0.000268
v -0.036951 -0.051250 -0.000465
v -0.044363 -0.050374 0.008569
v -0.044454 -0.051303 0.008924
v -0.039195 -0.064547 0.008924
v -0.036951 -0.064556 0.004685
v -0.037577 -0.050374 -0.000247
v -0.036951 -0.051430 -0.000474
v -0.044252 -0.050374 0.007310
v -0.044397 -0.051657 0.007359
v -0.044502 -0.051657 0.008569
v -0.044485 -0.051657 0.008924
v -0.039636 -0.064902 0.008924
v -0.036951 -0.065831 0.002495
v -0.036951 -0.065529 0.003079
v -0.038715 -0.050374 0.000090
v -0.036951 -0.052137 -0.000490
v -0.037387 -0.051729 -0.000356
v -0.043976 -0.050374 0.006221
v -0.044180 -0.050801 0.006675
v -0.044220 -0.051657 0.006548
v -0.044448 -0.052865 0.007359
v -0.044548 -0.052865 0.008569
v -0.044518 -0.052513 0.008924
v -0.040410 -0.065469 0.008924
v -0.041113 -0.065771 0.008924
v -0.042343 -0.066097 0.008924
v -0.036951 -0.065991 0.001312
v -0.040704 -0.065606 0.008924
v -0.038776 -0.050374 0.000116
v -0.037753 -0.058912 -0.000395
v -0.038715 -0.058912 -0.000023
v -0.036951 -0.058912 -0.000611
v -0.037148 -0.058912 -0.000574
v -0.043516 -0.050374 0.005018
v -0.044037 -0.051657 0.005943
v -0.044246 -0.052865 0.006458
v -0.044260 -0.060123 0.006425
v -0.044461 -0.057705 0.007359
v -0.044597 -0.057705 0.008569
v -0.044589 -0.056495 0.008569
v -0.044527 -0.052865 0.008924
v -0.044575 -0.056495 0.008924
v -0.043113 -0.065942 0.008924
v -0.042343 -0.066105 0.008569
v -0.036951 -0.065735 0.000420
v -0.038715 -0.066005 0.002522
v -0.037505 -0.065977 0.001312
v -0.039638 -0.050374 0.000494
v -0.037169 -0.060123 -0.000581
v -0.037773 -0.060123 -0.000400
v -0.039730 -0.058912 0.000475
v -0.037803 -0.062542 -0.000408
v -0.038715 -0.062542 -0.000045
v -0.036951 -0.059193 -0.000616
v -0.036951 -0.060123 -0.000625
v -0.043486 -0.050374 0.004940
v -0.043651 -0.051657 0.004940
v -0.044063 -0.052865 0.005853
v -0.044069 -0.060123 0.005820
v -0.044259 -0.063752 0.006433
v -0.044462 -0.060123 0.007359
v -0.044462 -0.058912 0.007359
v -0.044450 -0.063752 0.007359
v -0.044592 -0.058912 0.008569
v -0.044585 -0.057705 0.008924
v -0.043423 -0.065879 0.008924
v -0.043432 -0.065885 0.008569
v -0.042343 -0.066077 0.007359
v -0.036951 -0.065041 -0.000199
v -0.037505 -0.065709 0.000486
v -0.042343 -0.066011 0.006150
v -0.041133 -0.065942 0.003732
v -0.039924 -0.065934 0.002522
v -0.038740 -0.065794 0.001245
v -0.039674 -0.050374 0.000519
v -0.040335 -0.058912 0.000830
v -0.036951 -0.060423 -0.000628
v -0.037181 -0.061333 -0.000587
v -0.039735 -0.060123 0.000472
v -0.040340 -0.060123 0.000827
v -0.037198 -0.062542 -0.000590
v -0.037763 -0.063752 -0.000399
v -0.038715 -0.063752 -0.000027
v -0.039716 -0.063752 0.000475
v -0.039725 -0.062542 0.000465
v -0.039732 -0.061333 0.000469
v -0.043097 -0.050374 0.004013
v -0.043167 -0.051657 0.003976
v -0.043687 -0.052865 0.004940
v -0.042803 -0.050374 0.003409
v -0.043711 -0.058912 0.004940
v -0.043714 -0.060123 0.004940
v -0.043708 -0.062542 0.004940
v -0.044063 -0.063752 0.005829
v -0.044227 -0.064516 0.006542
v -0.044305 -0.064693 0.007359
v -0.044554 -0.063752 0.008569
v -0.044573 -0.061333 0.008569
v -0.044580 -0.058912 0.008924
v -0.044565 -0.061333 0.008924
v -0.044027 -0.065380 0.008924
v -0.044036 -0.065395 0.008569
v -0.043374 -0.065848 0.007359
v -0.037468 -0.064899 -0.000149
v -0.036951 -0.064545 -0.000507
v -0.038354 -0.065632 0.000617
v -0.043239 -0.065772 0.006150
v -0.042415 -0.065811 0.004881
v -0.042028 -0.065705 0.003732
v -0.041054 -0.065712 0.002595
v -0.039924 -0.065698 0.001636
v -0.040290 -0.050374 0.000949
v -0.041115 -0.058912 0.001435
v -0.041698 -0.050374 0.001956
v -0.041207 -0.050374 0.001594
v -0.036951 -0.061333 -0.000634
v -0.036951 -0.061647 -0.000636
v -0.036951 -0.062542 -0.000640
v -0.041109 -0.060123 0.001431
v -0.040337 -0.061333 0.000830
v -0.041117 -0.062542 0.001445
v -0.041109 -0.061333 0.001435
v -0.037158 -0.063752 -0.000575
v -0.037040 -0.064453 -0.000540
v -0.039582 -0.064670 0.000559
v -0.040320 -0.063752 0.000848
v -0.043177 -0.052865 0.003945
v -0.043194 -0.058912 0.003913
v -0.043197 -0.060123 0.003908
v -0.042126 -0.050374 0.002458
v -0.042807 -0.052865 0.003340
v -0.043195 -0.061333 0.003909
v -0.043192 -0.063752 0.003923
v -0.043703 -0.063752 0.004940
v -0.043111 -0.064681 0.004060
v -0.043333 -0.065035 0.004881
v -0.043867 -0.064936 0.006143
v -0.043979 -0.065296 0.007359
v -0.044356 -0.064790 0.008569
v -0.044349 -0.064776 0.008924
v -0.044542 -0.063752 0.008924
v -0.044548 -0.063398 0.008924
v -0.038740 -0.065029 0.000369
v -0.036951 -0.064473 -0.000549
v -0.040598 -0.065608 0.001856
v -0.039160 -0.065477 0.000797
v -0.043089 -0.065672 0.005245
v -0.041803 -0.065612 0.003047
v -0.041720 -0.058912 0.001935
v -0.041722 -0.062542 0.001933
v -0.042115 -0.050374 0.002444
v -0.036951 -0.063752 -0.000614
v -0.041096 -0.063752 0.001453
v -0.039961 -0.065029 0.001023
v -0.040847 -0.064961 0.001639
v -0.042831 -0.058912 0.003307
v -0.042831 -0.060123 0.003304
v -0.042829 -0.061333 0.003305
v -0.042821 -0.063752 0.003319
v -0.042025 -0.064961 0.002800
v -0.042645 -0.065035 0.003687
v -0.042867 -0.065487 0.004438
v -0.041451 -0.064961 0.002195
v -0.042226 -0.058912 0.002540
v -0.041700 -0.063752 0.001953
v -0.042216 -0.063752 0.002558
v -0.042219 -0.062542 0.002538
f 1 2 5
f 1 5 11
f 1 11 20
f 1 20 34
f 1 34 53
f 1 53 80
f 1 80 117
f 1 117 120
f 1 120 119
f 1 119 156
f 1 156 135
f 1 135 95
f 1 95 92
f 1 92 61
f 1 61 39
f 1 39 23
f 1 23 13
f 1 13 7
f 1 7 3
f 1 3 8
f 1 8 16
f 1 16 28
f 1 28 46
f 1 46 47
f 1 47 70
f 1 70 104
f 1 104 105
f 1 105 147
f 1 147 146
f 1 146 145
f 1 145 106
f 1 106 71
f 1 71 48
f 1 48 31
f 1 31 30
f 1 30 33
f 1 33 29
f 1 29 17
f 1 17 9
f 1 9 4
f 1 4 10
f 1 10 19
f 1 19 18
f 1 18 32
f 1 32 50
f 1 50 74
f 1 74 110
f 1 110 149
f 1 149 157
f 1 157 123
f 1 123 122
f 1 122 121
f 1 121 82
f 1 82 60
f 1 60 59
f 1 59 37
f 1 37 21
f 1 21 12
f 1 12 6
f 1 6 2
f 2 6 5
f 3 7 8
f 4 9 10
f 5 6 11
f 6 12 11
f 7 13 14
f 7 14 15
f 7 15 8
f 8 15 16
f 9 17 18
f 9 18 19
f 9 19 10
f 11 12 20
f 12 21 22
f 12 22 20
f 13 23 24
f 13 24 14
f 14 25 26
f 14 26 15
f 14 24 25
f 15 26 27
f 15 27 28
f 15 28 16
f 17 29 18
f 18 30 31
f 18 31 32
f 18 29 33
f 18 33 30
f 20 22 35
f 20 35 36
f 20 36 34
f 21 37 38
f 21 38 22
f 22 38 35
f 23 39 40
f 23 40 24
f 24 40 25
f 25 40 41
f 25 41 26
f 26 41 42
f 26 42 43
f 26 43 44
f 26 44 45
f 26 45 27
f 27 46 28
f 27 45 47
f 27 47 46
f 31 48 49
f 31 49 32
f 32 49 51
f 32 51 52
f 32 52 50
f 34 36 53
f 35 38 54
f 35 54 55
f 35 55 36
f 36 56 53
f 36 55 57
f 36 57 58
f 36 58 56
f 37 59 38
f 38 59 60
f 38 60 54
f 39 61 62
f 39 62 40
f 40 62 63
f 40 63 41
f 41 63 42
f 42 64 65
f 42 65 66
f 42 66 67
f 42 67 43
f 42 63 64
f 43 67 44
f 44 67 66
f 44 66 68
f 44 68 69
f 44 69 104
f 44 104 70
f 44 70 45
f 45 70 47
f 48 71 72
f 48 72 49
f 49 72 73
f 49 73 51
f 50 52 75
f 50 75 74
f 51 73 76
f 51 76 77
f 51 77 78
f 51 78 52
f 52 78 79
f 52 79 75
f 53 56 81
f 53 81 80
f 54 60 82
f 54 82 83
f 54 83 55
f 55 83 57
f 56 58 84
f 56 84 85
f 56 85 81
f 57 83 86
f 57 86 87
f 57 87 88
f 57 88 58
f 58 88 89
f 58 89 90
f 58 90 91
f 58 91 84
f 61 92 62
f 62 93 94
f 62 94 63
f 62 92 95
f 62 95 93
f 63 94 96
f 63 96 64
f 64 96 97
f 64 97 98
f 64 98 99
f 64 99 65
f 65 99 100
f 65 100 68
f 65 68 66
f 68 100 101
f 68 101 102
f 68 102 103
f 68 103 69
f 69 103 105
f 69 105 104
f 71 106 107
f 71 107 72
f 72 108 73
f 72 107 108
f 73 108 76
f 74 109 110
f 74 75 111
f 74 111 109
f 75 79 111
f 76 108 112
f 76 112 113
f 76 113 77
f 77 113 114
f 77 114 115
f 77 115 78
f 78 115 116
f 78 116 79
f 79 116 111
f 80 81 117
f 81 118 119
f 81 119 120
f 81 120 117
f 81 85 118
f 82 121 83
f 83 121 122
f 83 122 123
f 83 123 86
f 84 91 85
f 85 124 118
f 85 91 90
f 85 90 125
f 85 125 126
f 85 126 127
f 85 127 124
f 86 123 128
f 86 128 87
f 87 128 129
f 87 129 88
f 88 129 130
f 88 130 89
f 89 130 131
f 89 131 90
f 90 131 125
f 93 132 94
f 93 95 132
f 94 132 133
f 94 133 134
f 94 134 96
f 95 135 136
f 95 136 132
f 96 134 97
f 97 134 137
f 97 137 98
f 98 137 138
f 98 138 139
f 98 139 99
f 99 139 100
f 100 140 141
f 100 141 142
f 100 142 143
f 100 143 101
f 100 139 140
f 101 143 107
f 101 107 144
f 101 144 102
f 102 144 145
f 102 145 146
f 102 146 147
f 102 147 105
f 102 105 103
f 106 145 107
f 107 145 144
f 107 143 108
f 108 143 112
f 109 148 129
f 109 129 110
f 109 111 148
f 110 129 149
f 111 116 150
f 111 150 151
f 111 151 148
f 112 152 113
f 112 143 152
f 113 152 114
f 114 152 153
f 114 153 115
f 115 153 150
f 115 150 116
f 118 154 119
f 118 124 155
f 118 155 154
f 119 154 156
f 123 157 128
f 124 127 126
f 124 126 155
f 125 131 126
f 126 131 158
f 126 158 155
f 128 157 129
f 129 157 149
f 129 148 130
f 130 148 151
f 130 151 159
f 130 159 160
f 130 160 158
f 130 158 131
f 132 136 161
f 132 161 133
f 133 161 134
f 134 161 162
f 134 162 163
f 134 163 137
f 135 156 136
f 136 156 161
f 137 163 138
f 138 164 140
f 138 140 139
f 138 163 164
f 140 165 166
f 140 166 167
f 140 167 141
f 140 164 165
f 141 167 152
f 141 152 142
f 142 152 143
f 150 153 168
f 150 168 160
f 150 160 159
f 150 159 151
f 152 167 153
f 153 167 166
f 153 166 165
f 153 165 168
f 154 169 156
f 154 155 169
f 155 158 170
f 155 170 171
f 155 171 172
f 155 172 169
f 156 169 161
f 158 160 170
f 160 168 170
f 161 169 162
f 162 169 172
f 162 172 163
f 163 172 164
f 164 172 171
f 164 171 165
f 165 171 170
f 165 170 168
