v -0.044585 -0.057706 0.008924
v -0.044556 -0.057706 0.009780
v -0.044575 -0.056496 0.008924
v -0.044579 -0.058913 0.008924
v -0.044544 -0.061331 0.009780
v -0.044373 -0.058913 0.010990
v -0.044368 -0.057706 0.010990
v -0.044357 -0.056496 0.010990
v -0.044543 -0.056496 0.009780
v -0.044380 -0.061331 0.010990
v -0.044526 -0.052867 0.008924
v -0.044565 -0.061331 0.008924
v -0.044548 -0.063396 0.008924
v -0.044532 -0.062540 0.009780
v -0.044372 -0.062540 0.010990
v -0.044211 -0.060122 0.011775
v -0.044197 -0.055287 0.011726
v -0.044190 -0.054077 0.011711
v -0.044181 -0.052867 0.011681
v -0.044312 -0.052867 0.010990
v -0.044475 -0.052867 0.009780
v -0.044211 -0.061331 0.011773
v -0.044206 -0.063750 0.011739
v -0.044209 -0.062540 0.011758
v -0.044518 -0.052513 0.008924
v -0.044542 -0.063750 0.008924
v -0.044514 -0.063750 0.009780
v -0.044358 -0.063750 0.010990
v -0.044019 -0.061331 0.012377
v -0.044019 -0.060122 0.012378
v -0.044007 -0.054077 0.012315
v -0.044003 -0.052867 0.012287
v -0.044170 -0.052090 0.011643
v -0.044263 -0.051674 0.011066
v -0.044446 -0.051658 0.009780
v -0.043986 -0.063750 0.012344
v -0.044008 -0.062540 0.012363
v -0.044187 -0.064421 0.011680
v -0.044485 -0.051658 0.008924
v -0.044349 -0.064773 0.008924
v -0.044332 -0.064740 0.009780
v -0.044253 -0.064573 0.010990
v -0.043565 -0.061331 0.013410
v -0.043568 -0.060122 0.013410
v -0.043549 -0.062540 0.013410
v -0.043552 -0.054077 0.013410
v -0.043538 -0.052867 0.013410
v -0.043448 -0.051658 0.013410
v -0.043982 -0.051674 0.012107
v -0.044138 -0.051284 0.011519
v -0.044220 -0.050377 0.010748
v -0.044227 -0.050377 0.010713
v -0.044329 -0.050377 0.009826
v -0.044333 -0.050377 0.009780
v -0.043506 -0.063750 0.013410
v -0.043892 -0.065178 0.010990
v -0.042995 -0.065606 0.012906
v -0.043186 -0.064926 0.013349
v -0.043018 -0.064499 0.014118
v -0.044454 -0.051304 0.008924
v -0.044027 -0.065378 0.008924
v -0.044004 -0.065344 0.009780
v -0.043097 -0.061331 0.014251
v -0.043100 -0.060122 0.014254
v -0.043094 -0.062540 0.014244
v -0.043098 -0.054077 0.014242
v -0.043086 -0.052867 0.014228
v -0.043047 -0.051658 0.014170
v -0.042994 -0.050713 0.014086
v -0.043235 -0.050377 0.013520
v -0.043817 -0.050377 0.012200
v -0.044084 -0.050377 0.011380
v -0.044102 -0.050377 0.011316
v -0.036942 -0.050374 0.018520
v -0.044353 -0.050377 0.008924
v -0.043071 -0.063750 0.014205
v -0.043113 -0.065688 0.012200
v -0.042355 -0.065768 0.013349
v -0.041960 -0.065698 0.014365
v -0.041689 -0.065521 0.015171
v -0.042766 -0.065306 0.013712
v -0.041934 -0.064715 0.015459
v -0.042663 -0.063750 0.014811
v -0.043422 -0.065877 0.008924
v -0.043400 -0.065861 0.009780
v -0.043287 -0.065791 0.010990
v -0.042693 -0.061331 0.014855
v -0.042696 -0.060122 0.014858
v -0.042688 -0.062540 0.014849
v -0.042673 -0.054077 0.014847
v -0.042672 -0.052867 0.014833
v -0.042639 -0.051658 0.014774
v -0.042635 -0.050377 0.014542
v -0.042970 -0.050377 0.014048
v -0.036942 -0.050374 0.008924
v -0.041954 -0.050377 0.015483
v -0.041924 -0.050377 0.015518
v -0.041408 -0.050377 0.016087
v -0.041373 -0.050377 0.016126
v -0.040803 -0.050377 0.016673
v -0.040761 -0.050377 0.016708
v -0.039965 -0.050377 0.017304
v -0.039396 -0.050377 0.017689
v -0.038715 -0.050377 0.017981
v -0.037506 -0.050377 0.018395
v -0.036295 -0.050374 0.018664
v -0.042342 -0.065926 0.012200
v -0.041225 -0.065835 0.014708
v -0.040883 -0.065706 0.015598
v -0.040495 -0.065540 0.016406
v -0.041225 -0.065127 0.015933
v -0.040761 -0.064733 0.016615
v -0.041491 -0.063750 0.016196
v -0.042059 -0.063750 0.015590
v -0.043112 -0.065942 0.008924
v -0.042342 -0.066080 0.009780
v -0.042342 -0.066020 0.010990
v -0.042088 -0.061331 0.015617
v -0.042092 -0.060122 0.015620
v -0.042082 -0.062540 0.015607
v -0.042067 -0.052867 0.015584
v -0.042034 -0.051658 0.015558
v -0.033001 -0.050374 0.008924
v -0.041452 -0.051658 0.016163
v -0.040848 -0.051658 0.016689
v -0.040865 -0.052867 0.016696
v -0.040066 -0.058913 0.017341
v -0.040076 -0.060122 0.017348
v -0.039472 -0.060122 0.017730
v -0.038715 -0.060122 0.018092
v -0.038715 -0.058913 0.018082
v -0.037506 -0.058913 0.018540
v -0.036942 -0.058913 0.018679
v -0.036567 -0.060121 0.018792
v -0.036501 -0.058913 0.018787
v -0.035086 -0.050374 0.018778
v -0.035963 -0.060121 0.018898
v -0.035896 -0.058913 0.018883
v -0.035724 -0.056840 0.018857
v -0.041132 -0.066014 0.013410
v -0.040024 -0.065817 0.015932
v -0.039923 -0.066005 0.014617
v -0.038715 -0.065992 0.015827
v -0.039688 -0.065677 0.016630
v -0.038169 -0.065586 0.017667
v -0.038975 -0.065250 0.017437
v -0.039379 -0.064444 0.017677
v -0.040886 -0.063750 0.016722
v -0.041504 -0.062540 0.016213
v -0.042342 -0.066097 0.008924
v -0.041513 -0.061331 0.016221
v -0.041515 -0.060122 0.016225
v -0.041470 -0.052867 0.016188
v -0.041488 -0.055287 0.016202
v -0.033001 -0.060004 0.008924
v -0.033001 -0.050374 0.018579
v -0.040884 -0.055287 0.016710
v -0.040910 -0.060122 0.016745
v -0.040908 -0.061331 0.016742
v -0.040071 -0.061331 0.017346
v -0.039465 -0.061331 0.017727
v -0.038715 -0.061331 0.018090
v -0.037506 -0.062540 0.018552
v -0.037506 -0.061331 0.018552
v -0.037506 -0.060122 0.018548
v -0.036594 -0.061332 0.018795
v -0.035990 -0.061332 0.018905
v -0.035013 -0.050374 0.018775
v -0.035086 -0.060121 0.018982
v -0.033876 -0.058913 0.018949
v -0.035086 -0.061332 0.018996
v -0.037506 -0.065891 0.017037
v -0.038630 -0.065738 0.017035
v -0.036295 -0.065972 0.017037
v -0.036942 -0.065929 0.017037
v -0.037506 -0.065646 0.017755
v -0.036942 -0.065306 0.018087
v -0.036202 -0.064855 0.018525
v -0.036942 -0.064915 0.018322
v -0.037506 -0.064960 0.018169
v -0.038630 -0.064892 0.017806
v -0.037506 -0.063750 0.018508
v -0.038715 -0.063750 0.018046
v -0.039432 -0.063750 0.017707
v -0.040038 -0.063750 0.017327
v -0.040064 -0.062540 0.017341
v -0.040899 -0.062540 0.016737
v -0.033001 -0.065880 0.017037
v -0.035086 -0.065960 0.017037
v -0.041112 -0.065769 0.008924
v -0.033001 -0.065745 0.015874
v -0.033001 -0.065394 0.015373
v -0.039635 -0.064901 0.008924
v -0.033805 -0.050374 0.018716
v -0.033212 -0.057994 0.018863
v -0.033001 -0.057831 0.018811
v -0.039458 -0.062540 0.017722
v -0.038715 -0.062540 0.018083
v -0.036598 -0.062542 0.018798
v -0.035993 -0.062542 0.018904
v -0.033876 -0.050374 0.018727
v -0.033876 -0.050448 0.018729
v -0.033876 -0.061332 0.018990
v -0.033876 -0.060121 0.018971
v -0.033150 -0.058913 0.018875
v -0.035086 -0.062542 0.018989
v -0.033876 -0.062542 0.018985
v -0.036942 -0.065817 0.017431
v -0.036942 -0.065686 0.017817
v -0.035086 -0.065741 0.017942
v -0.036295 -0.065728 0.017888
v -0.035086 -0.065080 0.018548
v -0.035086 -0.064475 0.018896
v -0.035737 -0.064381 0.018859
v -0.036475 -0.063751 0.018775
v -0.033001 -0.065677 0.017839
v -0.033876 -0.065708 0.017908
v -0.040702 -0.065604 0.008924
v -0.040410 -0.065467 0.008924
v -0.033001 -0.065612 0.015673
v -0.033001 -0.058913 0.018845
v -0.035870 -0.063751 0.018881
v -0.035086 -0.063751 0.018959
v -0.033007 -0.062542 0.018900
v -0.033020 -0.061332 0.018900
v -0.033082 -0.060121 0.018888
v -0.033876 -0.063751 0.018970
v -0.033037 -0.063751 0.018892
v -0.033876 -0.065109 0.018514
v -0.033876 -0.064504 0.018908
v -0.033001 -0.064937 0.018485
v -0.033001 -0.059938 0.018868
v -0.033001 -0.062542 0.018898
v -0.033001 -0.062528 0.018898
v -0.033001 -0.061332 0.018896
v -0.033001 -0.063751 0.018885
v -0.033001 -0.060121 0.018872
v -0.033124 -0.064419 0.018877
v -0.033001 -0.064301 0.018859
v -0.033001 -0.064553 0.018760
f 1 2 3
f 1 3 11
f 1 11 25
f 1 25 39
f 1 39 60
f 1 60 75
f 1 75 95
f 1 95 123
f 1 123 155
f 1 155 193
f 1 193 219
f 1 219 218
f 1 218 190
f 1 190 150
f 1 150 115
f 1 115 84
f 1 84 61
f 1 61 40
f 1 40 26
f 1 26 13
f 1 13 12
f 1 12 4
f 1 4 5
f 1 5 2
f 2 6 7
f 2 7 8
f 2 8 9
f 2 9 3
f 2 5 10
f 2 10 6
f 3 9 11
f 4 12 5
f 5 12 13
f 5 13 14
f 5 14 15
f 5 15 10
f 6 10 16
f 6 16 7
f 7 16 17
f 7 17 18
f 7 18 8
f 8 18 19
f 8 19 20
f 8 20 9
f 9 20 21
f 9 21 11
f 10 22 16
f 10 15 23
f 10 23 24
f 10 24 22
f 11 21 25
f 13 26 27
f 13 27 14
f 14 27 28
f 14 28 15
f 15 28 23
f 16 22 29
f 16 29 30
f 16 30 31
f 16 31 17
f 17 31 18
f 18 31 32
f 18 32 19
f 19 32 33
f 19 33 20
f 20 33 34
f 20 34 35
f 20 35 21
f 21 35 25
f 22 24 29
f 23 36 37
f 23 37 29
f 23 29 24
f 23 28 38
f 23 38 36
f 25 35 39
f 26 40 41
f 26 41 27
f 27 41 42
f 27 42 38
f 27 38 28
f 29 43 44
f 29 44 30
f 29 37 45
f 29 45 43
f 30 44 46
f 30 46 31
f 31 46 47
f 31 47 32
f 32 47 48
f 32 48 49
f 32 49 33
f 33 49 50
f 33 50 34
f 34 50 51
f 34 51 52
f 34 52 35
f 35 52 53
f 35 53 54
f 35 54 39
f 36 55 45
f 36 45 37
f 36 38 55
f 38 42 56
f 38 56 57
f 38 57 58
f 38 58 59
f 38 59 55
f 39 54 60
f 40 61 41
f 41 61 62
f 41 62 42
f 42 62 56
f 43 63 64
f 43 64 44
f 43 45 65
f 43 65 63
f 44 64 66
f 44 66 46
f 45 55 65
f 46 66 47
f 47 67 68
f 47 68 48
f 47 66 67
f 48 68 69
f 48 69 70
f 48 70 71
f 48 71 49
f 49 71 50
f 50 71 72
f 50 72 73
f 50 73 51
f 51 73 74
f 51 74 52
f 52 74 53
f 53 74 54
f 54 74 75
f 54 75 60
f 55 76 65
f 55 59 76
f 56 62 77
f 56 77 57
f 57 77 78
f 57 78 79
f 57 79 80
f 57 80 81
f 57 81 58
f 58 81 59
f 59 82 83
f 59 83 76
f 59 81 80
f 59 80 82
f 61 84 85
f 61 85 62
f 62 85 86
f 62 86 77
f 63 87 88
f 63 88 64
f 63 65 87
f 64 88 66
f 65 76 89
f 65 89 87
f 66 90 91
f 66 91 67
f 66 88 90
f 67 91 92
f 67 92 68
f 68 92 69
f 69 92 93
f 69 93 94
f 69 94 70
f 70 94 74
f 70 74 71
f 71 74 72
f 72 74 73
f 74 95 75
f 74 94 93
f 74 93 96
f 74 96 97
f 74 97 98
f 74 98 99
f 74 99 100
f 74 100 101
f 74 101 102
f 74 102 103
f 74 103 104
f 74 104 105
f 74 105 106
f 74 106 136
f 74 136 168
f 74 168 201
f 74 201 194
f 74 194 156
f 74 156 123
f 74 123 95
f 76 83 89
f 77 86 107
f 77 107 78
f 78 107 108
f 78 108 79
f 79 109 80
f 79 108 109
f 80 109 110
f 80 110 111
f 80 111 82
f 82 112 113
f 82 113 114
f 82 114 83
f 82 111 112
f 83 114 89
f 84 115 85
f 85 115 116
f 85 116 117
f 85 117 107
f 85 107 86
f 87 118 119
f 87 119 88
f 87 89 118
f 88 119 90
f 89 114 120
f 89 120 118
f 90 121 91
f 90 119 121
f 91 121 122
f 91 122 92
f 92 122 96
f 92 96 93
f 96 122 97
f 97 122 98
f 98 122 99
f 99 122 124
f 99 124 100
f 100 124 125
f 100 125 101
f 101 125 102
f 102 125 126
f 102 126 127
f 102 127 103
f 103 127 128
f 103 128 129
f 103 129 130
f 103 130 131
f 103 131 104
f 104 131 132
f 104 132 105
f 105 132 133
f 105 133 134
f 105 134 135
f 105 135 106
f 106 135 137
f 106 137 138
f 106 138 139
f 106 139 136
f 107 117 140
f 107 140 108
f 108 141 109
f 108 140 142
f 108 142 143
f 108 143 141
f 109 144 110
f 109 141 144
f 110 144 145
f 110 145 146
f 110 146 147
f 110 147 112
f 110 112 111
f 112 147 148
f 112 148 113
f 113 148 149
f 113 149 120
f 113 120 114
f 115 150 116
f 116 150 143
f 116 143 142
f 116 142 140
f 116 140 117
f 118 151 119
f 118 120 151
f 119 151 152
f 119 152 121
f 120 149 151
f 121 153 124
f 121 124 122
f 121 152 154
f 121 154 153
f 123 156 196
f 123 196 221
f 123 221 232
f 123 232 237
f 123 237 235
f 123 235 234
f 123 234 233
f 123 233 236
f 123 236 239
f 123 239 240
f 123 240 231
f 123 231 216
f 123 216 188
f 123 188 191
f 123 191 220
f 123 220 192
f 123 192 155
f 124 153 125
f 125 153 126
f 126 153 157
f 126 157 127
f 127 157 128
f 128 157 158
f 128 158 159
f 128 159 160
f 128 160 129
f 129 160 161
f 129 161 162
f 129 162 130
f 130 162 163
f 130 163 164
f 130 164 165
f 130 165 132
f 130 132 131
f 132 165 166
f 132 166 134
f 132 134 133
f 134 137 135
f 134 166 167
f 134 167 137
f 136 139 169
f 136 169 170
f 136 170 168
f 137 169 138
f 137 167 171
f 137 171 169
f 138 169 139
f 141 143 172
f 141 172 173
f 141 173 144
f 143 150 174
f 143 174 175
f 143 175 172
f 144 173 145
f 145 173 172
f 145 172 176
f 145 176 177
f 145 177 178
f 145 178 179
f 145 179 180
f 145 180 181
f 145 181 147
f 145 147 146
f 147 181 182
f 147 182 183
f 147 183 184
f 147 184 185
f 147 185 148
f 148 185 186
f 148 186 187
f 148 187 149
f 149 187 151
f 150 188 189
f 150 189 174
f 150 190 191
f 150 191 188
f 151 159 152
f 151 187 159
f 152 159 158
f 152 158 154
f 153 154 157
f 154 158 157
f 155 192 193
f 156 194 195
f 156 195 196
f 159 187 186
f 159 186 160
f 160 186 197
f 160 197 161
f 161 197 198
f 161 198 162
f 162 198 163
f 163 198 183
f 163 183 182
f 163 182 199
f 163 199 164
f 164 166 165
f 164 199 166
f 166 199 167
f 167 199 200
f 167 200 171
f 168 170 202
f 168 202 201
f 169 171 203
f 169 203 204
f 169 204 170
f 170 204 205
f 170 205 195
f 170 195 202
f 171 200 206
f 171 206 207
f 171 207 203
f 172 175 208
f 172 208 209
f 172 209 176
f 174 189 210
f 174 210 211
f 174 211 208
f 174 208 175
f 176 209 212
f 176 212 177
f 177 212 178
f 178 213 214
f 178 214 179
f 178 212 213
f 179 214 180
f 180 214 182
f 180 182 181
f 182 214 215
f 182 215 199
f 183 198 184
f 184 198 197
f 184 197 186
f 184 186 185
f 188 216 217
f 188 217 189
f 189 217 210
f 190 218 191
f 191 218 219
f 191 219 220
f 192 220 219
f 192 219 193
f 194 201 195
f 195 205 221
f 195 221 196
f 195 201 202
f 199 215 200
f 200 215 222
f 200 222 223
f 200 223 206
f 203 207 224
f 203 224 225
f 203 225 226
f 203 226 204
f 204 226 205
f 205 226 221
f 206 223 227
f 206 227 207
f 207 227 228
f 207 228 224
f 208 211 209
f 209 211 212
f 210 217 229
f 210 229 212
f 210 212 211
f 212 229 230
f 212 230 213
f 213 230 223
f 213 223 214
f 214 223 222
f 214 222 215
f 216 231 229
f 216 229 217
f 221 226 232
f 223 230 227
f 224 233 234
f 224 234 235
f 224 235 225
f 224 228 236
f 224 236 233
f 225 235 226
f 226 237 232
f 226 235 237
f 227 230 238
f 227 238 228
f 228 238 239
f 228 239 236
f 229 231 240
f 229 240 238
f 229 238 230
f 238 240 239
