v -0.031683 -0.050374 0.008923
v -0.031683 -0.050374 -0.000172
v -0.036951 -0.050374 0.008923
v -0.031683 -0.059687 0.008923
v -0.032515 -0.050374 -0.000410
v -0.031683 -0.058515 -0.000409
v -0.032028 -0.058050 -0.000513
v -0.036951 -0.050374 -0.000413
v -0.036951 -0.060379 0.008923
v -0.032413 -0.060162 0.008923
v -0.031683 -0.060458 0.008920
v -0.032551 -0.050374 -0.000418
v -0.031683 -0.058913 -0.000420
v -0.031993 -0.058913 -0.000525
v -0.032666 -0.058913 -0.000660
v -0.033120 -0.050374 -0.000532
v -0.036777 -0.050374 -0.000458
v -0.036866 -0.051373 -0.000497
v -0.036951 -0.051249 -0.000466
v -0.036951 -0.064557 0.004685
v -0.031683 -0.065055 0.003476
v -0.031683 -0.059502 -0.000433
v -0.031962 -0.060123 -0.000533
v -0.032666 -0.061332 -0.000702
v -0.032666 -0.060123 -0.000685
v -0.031683 -0.060659 -0.000453
v -0.033876 -0.060123 -0.000854
v -0.033876 -0.058913 -0.000827
v -0.033167 -0.050374 -0.000539
v -0.036139 -0.050374 -0.000586
v -0.036905 -0.052180 -0.000504
v -0.036951 -0.052137 -0.000490
v -0.036951 -0.051431 -0.000474
v -0.036294 -0.058913 -0.000737
v -0.036951 -0.065528 0.003078
v -0.031683 -0.065756 0.002505
v -0.031683 -0.065514 0.002872
v -0.031683 -0.065296 0.003177
v -0.031938 -0.061332 -0.000540
v -0.031915 -0.062543 -0.000547
v -0.032666 -0.062543 -0.000709
v -0.033876 -0.061332 -0.000873
v -0.031683 -0.062543 -0.000475
v -0.035085 -0.060123 -0.000877
v -0.035085 -0.058913 -0.000854
v -0.035085 -0.050374 -0.000683
v -0.033876 -0.050374 -0.000630
v -0.035156 -0.050374 -0.000678
v -0.036951 -0.058913 -0.000611
v -0.036951 -0.059193 -0.000616
v -0.036294 -0.060123 -0.000756
v -0.036951 -0.065830 0.002495
v -0.036294 -0.066007 0.001312
v -0.031683 -0.065787 0.002297
v -0.031966 -0.063752 -0.000531
v -0.032666 -0.063752 -0.000683
v -0.033876 -0.062543 -0.000876
v -0.033876 -0.063752 -0.000853
v -0.035085 -0.061332 -0.000892
v -0.035085 -0.062543 -0.000897
v -0.031683 -0.063049 -0.000461
v -0.036294 -0.061332 -0.000769
v -0.036951 -0.060123 -0.000626
v -0.036951 -0.065990 0.001312
v -0.035085 -0.065773 0.000284
v -0.032666 -0.065922 0.001312
v -0.036294 -0.065769 0.000341
v -0.031683 -0.065854 0.001312
v -0.031683 -0.063752 -0.000442
v -0.032040 -0.064371 -0.000508
v -0.032666 -0.064529 -0.000579
v -0.035085 -0.063752 -0.000866
v -0.033876 -0.064725 -0.000666
v -0.036294 -0.062543 -0.000774
v -0.036951 -0.061332 -0.000634
v -0.036951 -0.060423 -0.000629
v -0.036951 -0.062543 -0.000640
v -0.036951 -0.065736 0.000420
v -0.035085 -0.065355 -0.000321
v -0.033876 -0.065329 -0.000277
v -0.033876 -0.065744 0.000328
v -0.032666 -0.065710 0.000437
v -0.036294 -0.065221 -0.000263
v -0.031683 -0.065814 0.001148
v -0.031683 -0.064729 -0.000155
v -0.031683 -0.064815 -0.000096
v -0.031683 -0.064879 -0.000052
v -0.032666 -0.065133 -0.000168
v -0.036294 -0.063752 -0.000740
v -0.035085 -0.064751 -0.000669
v -0.036294 -0.064616 -0.000605
v -0.036951 -0.063752 -0.000614
v -0.036951 -0.065040 -0.000200
v -0.031683 -0.065542 0.000452
v -0.031683 -0.065651 0.000565
v -0.036951 -0.064544 -0.000507
v -0.036951 -0.064472 -0.000548
f 1 2 5
f 1 5 12
f 1 12 16
f 1 16 29
f 1 29 47
f 1 47 46
f 1 46 48
f 1 48 30
f 1 30 17
f 1 17 8
f 1 8 3
f 1 3 9
f 1 9 10
f 1 10 4
f 1 4 11
f 1 11 21
f 1 21 38
f 1 38 37
f 1 37 36
f 1 36 54
f 1 54 68
f 1 68 84
f 1 84 95
f 1 95 94
f 1 94 87
f 1 87 86
f 1 86 85
f 1 85 69
f 1 69 61
f 1 61 43
f 1 43 26
f 1 26 22
f 1 22 13
f 1 13 6
f 1 6 2
f 2 6 7
f 2 7 5
f 3 8 19
f 3 19 33
f 3 33 32
f 3 32 49
f 3 49 50
f 3 50 63
f 3 63 76
f 3 76 75
f 3 75 77
f 3 77 92
f 3 92 97
f 3 97 96
f 3 96 93
f 3 93 78
f 3 78 64
f 3 64 52
f 3 52 35
f 3 35 20
f 3 20 9
f 4 10 11
f 5 7 12
f 6 13 14
f 6 14 7
f 7 14 15
f 7 15 16
f 7 16 12
f 8 17 18
f 8 18 19
f 9 20 11
f 9 11 10
f 11 20 21
f 13 22 14
f 14 23 24
f 14 24 25
f 14 25 15
f 14 22 26
f 14 26 23
f 15 25 27
f 15 27 28
f 15 28 29
f 15 29 16
f 17 30 18
f 18 31 32
f 18 32 33
f 18 33 19
f 18 30 34
f 18 34 31
f 20 35 36
f 20 36 37
f 20 37 38
f 20 38 21
f 23 26 39
f 23 39 24
f 24 39 40
f 24 40 41
f 24 41 42
f 24 42 25
f 25 42 27
f 26 43 39
f 27 42 44
f 27 44 45
f 27 45 46
f 27 46 28
f 28 46 47
f 28 47 29
f 30 48 45
f 30 45 34
f 31 34 49
f 31 49 32
f 34 50 49
f 34 45 44
f 34 44 51
f 34 51 50
f 35 52 36
f 36 52 53
f 36 53 54
f 39 43 40
f 40 43 55
f 40 55 56
f 40 56 41
f 41 57 42
f 41 56 58
f 41 58 57
f 42 59 44
f 42 57 60
f 42 60 59
f 43 61 55
f 44 59 51
f 45 48 46
f 50 51 62
f 50 62 63
f 51 59 62
f 52 64 53
f 53 65 66
f 53 66 54
f 53 64 67
f 53 67 65
f 54 66 68
f 55 69 70
f 55 70 56
f 55 61 69
f 56 70 71
f 56 71 58
f 57 58 60
f 58 72 60
f 58 71 73
f 58 73 72
f 59 60 74
f 59 74 62
f 60 72 74
f 62 75 76
f 62 76 63
f 62 74 77
f 62 77 75
f 64 78 67
f 65 79 80
f 65 80 81
f 65 81 66
f 65 67 79
f 66 81 82
f 66 82 68
f 67 78 83
f 67 83 79
f 68 82 84
f 69 85 70
f 70 85 86
f 70 86 87
f 70 87 88
f 70 88 71
f 71 88 80
f 71 80 73
f 72 89 74
f 72 73 90
f 72 90 91
f 72 91 89
f 73 80 79
f 73 79 90
f 74 89 92
f 74 92 77
f 78 93 83
f 79 83 90
f 80 88 94
f 80 94 95
f 80 95 82
f 80 82 81
f 82 95 84
f 83 93 96
f 83 96 91
f 83 91 90
f 87 94 88
f 89 91 97
f 89 97 92
f 91 96 97
