v -0.033000 -0.062528 0.018898
v -0.033000 -0.062542 0.018898
v -0.032402 -0.062542 0.018787
v -0.033000 -0.061332 0.018896
v -0.033000 -0.063683 0.018887
v -0.032431 -0.063752 0.018784
v -0.031456 -0.062542 0.018523
v -0.032414 -0.061332 0.018781
v -0.033000 -0.060122 0.018872
v -0.033000 -0.063752 0.018886
v -0.031456 -0.063752 0.018511
v -0.033000 -0.064301 0.018860
v -0.030246 -0.062542 0.018036
v -0.031456 -0.061332 0.018508
v -0.031456 -0.060122 0.018483
v -0.031456 -0.058912 0.018454
v -0.032477 -0.060122 0.018769
v -0.033000 -0.058912 0.018845
v -0.030246 -0.063752 0.018004
v -0.030246 -0.064632 0.017804
v -0.029632 -0.064369 0.017647
v -0.033000 -0.064554 0.018761
v -0.030246 -0.061332 0.018017
v -0.029554 -0.062542 0.017694
v -0.029586 -0.060122 0.017676
v -0.030246 -0.060122 0.017995
v -0.032545 -0.058912 0.018754
v -0.030547 -0.050374 0.017801
v -0.031456 -0.050374 0.018173
v -0.032593 -0.050374 0.018504
v -0.033000 -0.057830 0.018812
v -0.029590 -0.063752 0.017673
v -0.031424 -0.065054 0.018026
v -0.031001 -0.065518 0.017572
v -0.030246 -0.065238 0.017374
v -0.029147 -0.064887 0.016966
v -0.028248 -0.064599 0.016577
v -0.028129 -0.063752 0.016674
v -0.028985 -0.063752 0.017279
v -0.033000 -0.064939 0.018486
v -0.032698 -0.064879 0.018477
v -0.028949 -0.062542 0.017301
v -0.029605 -0.059161 0.017664
v -0.028965 -0.061332 0.017288
v -0.030128 -0.058820 0.017899
v -0.032665 -0.050374 0.018523
v -0.029942 -0.050374 0.017471
v -0.033000 -0.050374 0.018580
v -0.031807 -0.065612 0.017714
v -0.030246 -0.065708 0.016769
v -0.029468 -0.065629 0.016547
v -0.028663 -0.065405 0.016222
v -0.027824 -0.065027 0.015825
v -0.027033 -0.064649 0.015430
v -0.027525 -0.063752 0.016157
v -0.028110 -0.062542 0.016696
v -0.033000 -0.065678 0.017840
v -0.032665 -0.065666 0.017813
v -0.028981 -0.060122 0.017268
v -0.029136 -0.058820 0.017322
v -0.028924 -0.050427 0.016789
v -0.028133 -0.061332 0.016684
v -0.028931 -0.050374 0.016791
v -0.033000 -0.050374 0.008925
v -0.031424 -0.065751 0.017116
v -0.030246 -0.065867 0.015827
v -0.029054 -0.065713 0.015822
v -0.028205 -0.065638 0.015415
v -0.027399 -0.065456 0.015031
v -0.026668 -0.064939 0.014552
v -0.025978 -0.064421 0.014075
v -0.026319 -0.063752 0.014740
v -0.026924 -0.063752 0.015553
v -0.027506 -0.062542 0.016164
v -0.033000 -0.065881 0.017037
v -0.032665 -0.065867 0.017037
v -0.028157 -0.060122 0.016663
v -0.028181 -0.058912 0.016640
v -0.028414 -0.050819 0.016447
v -0.028863 -0.050374 0.016741
v -0.025132 -0.050374 0.008925
v -0.033000 -0.060005 0.008925
v -0.026618 -0.065752 0.008925
v -0.026618 -0.065755 0.009780
v -0.027827 -0.065789 0.013409
v -0.027812 -0.065710 0.014623
v -0.027110 -0.065629 0.014224
v -0.026336 -0.065253 0.013409
v -0.025815 -0.064649 0.013409
v -0.024825 -0.064052 0.011469
v -0.025000 -0.063691 0.012090
v -0.025566 -0.063752 0.013409
v -0.025941 -0.063752 0.014136
v -0.025935 -0.062542 0.014142
v -0.026322 -0.062542 0.014747
v -0.026927 -0.062542 0.015560
v -0.026994 -0.058912 0.015487
v -0.027576 -0.058912 0.016091
v -0.033000 -0.065746 0.015874
v -0.027198 -0.051657 0.015250
v -0.027219 -0.051036 0.015227
v -0.027849 -0.050374 0.015810
v -0.028030 -0.050374 0.015996
v -0.025142 -0.050374 0.009780
v -0.025125 -0.050447 0.008925
v -0.029776 -0.064309 0.008925
v -0.029753 -0.064495 0.009022
v -0.032116 -0.064422 0.012726
v -0.033000 -0.065333 0.015299
v -0.025795 -0.065687 0.008925
v -0.027433 -0.065631 0.008925
v -0.026618 -0.065748 0.010990
v -0.026941 -0.065678 0.013409
v -0.025978 -0.065588 0.011719
v -0.026154 -0.065488 0.012526
v -0.025626 -0.065036 0.012153
v -0.024758 -0.064442 0.010664
v -0.024728 -0.063691 0.011036
v -0.024796 -0.063246 0.011614
v -0.024986 -0.062601 0.012090
v -0.025545 -0.062542 0.013409
v -0.025972 -0.060122 0.014082
v -0.025991 -0.058912 0.014049
v -0.026389 -0.058912 0.014655
v -0.033000 -0.065612 0.015673
v -0.029581 -0.064553 0.008925
v -0.028038 -0.065354 0.008925
v -0.027609 -0.065559 0.008925
v -0.026763 -0.051657 0.014617
v -0.026183 -0.051657 0.013703
v -0.026853 -0.050374 0.014522
v -0.026943 -0.050374 0.014659
v -0.025262 -0.050374 0.010990
v -0.025137 -0.050447 0.009780
v -0.025049 -0.051657 0.008925
v -0.033000 -0.065394 0.015373
v -0.025191 -0.065113 0.008925
v -0.025202 -0.065124 0.009780
v -0.025806 -0.065681 0.009780
v -0.026581 -0.065690 0.012153
v -0.025898 -0.065634 0.010990
v -0.025208 -0.064891 0.011036
v -0.024721 -0.064520 0.009780
v -0.024595 -0.063752 0.009780
v -0.024566 -0.062542 0.009780
v -0.024716 -0.062601 0.011057
v -0.024796 -0.063043 0.011614
v -0.025178 -0.058912 0.012200
v -0.025675 -0.058912 0.013409
v -0.025631 -0.060122 0.013409
v -0.026007 -0.058226 0.014024
v -0.025868 -0.051657 0.013099
v -0.025905 -0.050374 0.013003
v -0.026278 -0.050374 0.013609
v -0.025062 -0.051657 0.009780
v -0.025576 -0.050374 0.012200
v -0.024890 -0.058912 0.011138
v -0.024776 -0.058912 0.010533
v -0.024794 -0.058129 0.010434
v -0.024791 -0.056913 0.009382
v -0.024791 -0.056913 0.008930
v -0.024791 -0.056906 0.008925
v -0.025051 -0.064937 0.008925
v -0.024729 -0.064509 0.008925
v -0.024606 -0.063752 0.008925
v -0.024578 -0.062895 0.008925
v -0.024569 -0.062542 0.008925
v -0.024593 -0.061686 0.008925
v -0.024607 -0.061332 0.008925
v -0.024613 -0.061332 0.009780
v -0.025515 -0.051657 0.012200
v -0.024815 -0.057323 0.010188
v -0.024711 -0.058912 0.009780
v -0.024641 -0.060476 0.008925
v -0.024706 -0.058912 0.008925
f 1 2 3
f 1 3 4
f 1 4 9
f 1 9 18
f 1 18 31
f 1 31 48
f 1 48 64
f 1 64 82
f 1 82 109
f 1 109 136
f 1 136 125
f 1 125 99
f 1 99 75
f 1 75 57
f 1 57 40
f 1 40 22
f 1 22 12
f 1 12 10
f 1 10 5
f 1 5 2
f 2 5 6
f 2 6 3
f 3 7 8
f 3 8 4
f 3 6 7
f 4 8 9
f 5 10 6
f 6 11 7
f 6 10 12
f 6 12 11
f 7 11 13
f 7 13 14
f 7 14 8
f 8 14 15
f 8 15 16
f 8 16 17
f 8 17 9
f 9 17 18
f 11 19 13
f 11 12 20
f 11 20 21
f 11 21 19
f 12 22 20
f 13 23 14
f 13 19 24
f 13 24 25
f 13 25 23
f 14 23 26
f 14 26 15
f 15 26 16
f 16 27 17
f 16 26 28
f 16 28 29
f 16 29 30
f 16 30 27
f 17 27 18
f 18 27 31
f 19 32 24
f 19 21 32
f 20 22 33
f 20 33 34
f 20 34 35
f 20 35 21
f 21 35 36
f 21 36 37
f 21 37 38
f 21 38 39
f 21 39 32
f 22 40 41
f 22 41 33
f 23 25 26
f 24 32 42
f 24 42 25
f 25 43 26
f 25 42 44
f 25 44 43
f 26 43 45
f 26 45 28
f 27 30 46
f 27 46 31
f 28 47 63
f 28 63 80
f 28 80 103
f 28 103 102
f 28 102 132
f 28 132 131
f 28 131 154
f 28 154 153
f 28 153 156
f 28 156 133
f 28 133 104
f 28 104 81
f 28 81 64
f 28 64 48
f 28 48 46
f 28 46 30
f 28 30 29
f 28 45 43
f 28 43 47
f 31 46 48
f 32 39 42
f 33 41 49
f 33 49 34
f 34 49 50
f 34 50 51
f 34 51 35
f 35 51 52
f 35 52 36
f 36 52 37
f 37 52 53
f 37 53 54
f 37 54 55
f 37 55 38
f 38 55 56
f 38 56 42
f 38 42 39
f 40 57 58
f 40 58 49
f 40 49 41
f 42 56 44
f 43 44 59
f 43 59 60
f 43 60 61
f 43 61 47
f 44 56 62
f 44 62 59
f 47 61 63
f 49 58 65
f 49 65 50
f 50 65 66
f 50 66 67
f 50 67 51
f 51 68 69
f 51 69 52
f 51 67 68
f 52 69 53
f 53 69 54
f 54 69 70
f 54 70 71
f 54 71 72
f 54 72 73
f 54 73 55
f 55 73 74
f 55 74 56
f 56 74 62
f 57 75 76
f 57 76 58
f 58 76 65
f 59 77 78
f 59 78 60
f 59 62 77
f 60 78 79
f 60 79 61
f 61 79 63
f 62 74 77
f 63 79 80
f 64 81 105
f 64 105 135
f 64 135 162
f 64 162 175
f 64 175 174
f 64 174 169
f 64 169 168
f 64 168 167
f 64 167 166
f 64 166 165
f 64 165 164
f 64 164 163
f 64 163 137
f 64 137 110
f 64 110 83
f 64 83 111
f 64 111 128
f 64 128 127
f 64 127 126
f 64 126 106
f 64 106 82
f 65 76 66
f 66 76 75
f 66 75 83
f 66 83 84
f 66 84 85
f 66 85 86
f 66 86 67
f 67 86 68
f 68 87 69
f 68 86 87
f 69 87 70
f 70 88 89
f 70 89 71
f 70 87 88
f 71 89 90
f 71 90 91
f 71 91 92
f 71 92 93
f 71 93 72
f 72 93 94
f 72 94 95
f 72 95 96
f 72 96 73
f 73 96 74
f 74 96 97
f 74 97 98
f 74 98 78
f 74 78 77
f 75 99 83
f 78 98 79
f 79 100 101
f 79 101 102
f 79 102 103
f 79 103 80
f 79 98 100
f 81 104 105
f 82 106 107
f 82 107 108
f 82 108 109
f 83 110 84
f 83 99 111
f 84 110 112
f 84 112 85
f 85 112 113
f 85 113 86
f 86 113 87
f 87 114 115
f 87 115 88
f 87 113 114
f 88 115 89
f 89 115 116
f 89 116 117
f 89 117 90
f 90 117 118
f 90 118 119
f 90 119 91
f 91 119 120
f 91 120 121
f 91 121 92
f 92 121 93
f 93 121 94
f 94 121 122
f 94 122 95
f 95 122 123
f 95 123 124
f 95 124 97
f 95 97 96
f 97 124 100
f 97 100 98
f 99 125 107
f 99 107 126
f 99 126 127
f 99 127 128
f 99 128 111
f 100 129 101
f 100 124 129
f 101 129 130
f 101 130 131
f 101 131 132
f 101 132 102
f 104 133 134
f 104 134 105
f 105 134 135
f 106 126 107
f 107 125 136
f 107 136 108
f 108 136 109
f 110 137 138
f 110 138 139
f 110 139 112
f 112 139 140
f 112 140 113
f 113 140 141
f 113 141 114
f 114 141 138
f 114 138 142
f 114 142 116
f 114 116 115
f 116 142 117
f 117 142 138
f 117 138 143
f 117 143 144
f 117 144 118
f 118 144 145
f 118 145 146
f 118 146 119
f 119 147 120
f 119 146 147
f 120 147 148
f 120 148 149
f 120 149 150
f 120 150 121
f 121 150 123
f 121 123 122
f 123 150 149
f 123 149 151
f 123 151 124
f 124 151 129
f 129 151 130
f 130 152 153
f 130 153 154
f 130 154 131
f 130 151 152
f 133 155 134
f 133 156 147
f 133 147 157
f 133 157 158
f 133 158 159
f 133 159 155
f 134 155 135
f 135 155 160
f 135 160 161
f 135 161 162
f 137 163 138
f 138 163 143
f 138 141 139
f 139 141 140
f 143 163 164
f 143 164 144
f 144 165 166
f 144 166 145
f 144 164 165
f 145 166 167
f 145 167 168
f 145 168 169
f 145 169 170
f 145 170 159
f 145 159 158
f 145 158 146
f 146 158 147
f 147 158 157
f 147 156 171
f 147 171 148
f 148 171 152
f 148 152 149
f 149 152 151
f 152 171 156
f 152 156 153
f 155 159 172
f 155 172 173
f 155 173 160
f 159 170 173
f 159 173 172
f 160 173 174
f 160 174 175
f 160 175 161
f 161 175 162
f 169 174 170
f 170 174 173
