v 0.020531 0.101154 0.100357
v 0.020531 0.101154 0.100115
v 0.020470 0.101154 0.100723
v 0.021385 0.099296 0.100918
v 0.022447 0.097366 0.100128
v 0.020509 0.101154 0.099540
v 0.022447 0.097366 0.099679
v 0.020548 0.100640 0.101116
v 0.020186 0.101154 0.101054
v 0.021497 0.098783 0.101061
v 0.022511 0.096519 0.101077
v 0.022373 0.097196 0.100808
v 0.022606 0.096812 0.100443
v 0.023003 0.095726 0.100406
v 0.020388 0.101154 0.099113
v 0.022192 0.097728 0.099360
v 0.021351 0.099233 0.099021
v 0.023461 0.094372 0.099673
v 0.022995 0.095726 0.099389
v 0.022602 0.096799 0.099360
v 0.022369 0.097174 0.099002
v 0.019888 0.101154 0.101262
v 0.020872 0.098783 0.101458
v 0.021730 0.097763 0.101270
v 0.022636 0.095726 0.101230
v 0.023504 0.093689 0.101055
v 0.023426 0.094224 0.100933
v 0.023456 0.094347 0.100406
v 0.020345 0.101154 0.098973
v 0.020514 0.099586 0.097085
v 0.023392 0.094114 0.098996
v 0.023297 0.094709 0.099357
v 0.023935 0.092675 0.100406
v 0.023871 0.092675 0.099389
v 0.022516 0.094951 0.097085
v 0.022304 0.095531 0.097085
v 0.022110 0.096019 0.097085
v 0.021808 0.096746 0.097085
v 0.021726 0.096935 0.097085
v 0.022412 0.095250 0.097085
v 0.018792 0.101154 0.101333
v 0.019858 0.099800 0.101488
v 0.020872 0.097763 0.101599
v 0.021890 0.095726 0.101643
v 0.021976 0.096812 0.101363
v 0.022908 0.093689 0.101470
v 0.023646 0.092675 0.101209
v 0.024466 0.090244 0.100970
v 0.020315 0.099960 0.097085
v 0.020242 0.100093 0.097085
v 0.019823 0.100817 0.097085
v 0.019620 0.101154 0.097085
v 0.014701 0.100077 0.097084
v 0.023487 0.093434 0.098762
v 0.022878 0.093689 0.097085
v 0.024190 0.091658 0.100406
v 0.024457 0.090254 0.099823
v 0.024086 0.091658 0.099389
v 0.023094 0.092675 0.097085
v 0.018145 0.101154 0.101066
v -0.017824 0.096790 0.097084
v -0.006075 0.097243 0.098874
v -0.006614 0.096598 0.098980
v -0.007373 0.096390 0.098925
v -0.006614 0.095729 0.099042
v 0.023400 0.087143 0.101948
v -0.015787 0.084530 0.098330
v 0.023478 0.087143 0.101948
v 0.022908 0.092675 0.101588
v 0.023927 0.089621 0.101482
v 0.023780 0.091658 0.101302
v 0.024518 0.089621 0.101051
v 0.024962 0.086567 0.100406
v 0.024721 0.088604 0.100406
v 0.024600 0.089621 0.100406
v 0.024371 0.090817 0.100406
v 0.014296 0.100288 0.097084
v 0.013757 0.100511 0.097084
v 0.013614 0.100568 0.097084
v 0.012954 0.100814 0.097084
v 0.012091 0.100933 0.097084
v 0.011707 0.100952 0.097084
v 0.011103 0.100962 0.097084
v 0.016950 0.101154 0.097085
v 0.014706 0.086627 0.097084
v 0.023353 0.091378 0.097085
v 0.023491 0.090641 0.097085
v 0.024108 0.086831 0.097085
v 0.024267 0.085814 0.097085
v 0.024298 0.085547 0.097085
v 0.024311 0.085339 0.097085
v 0.025087 0.085547 0.099389
v 0.024518 0.089621 0.099605
v 0.024427 0.089045 0.098904
v 0.017838 0.101154 0.100406
v 0.007573 0.100867 0.097084
v 0.006611 0.100801 0.097084
v 0.003586 0.100329 0.097084
v -0.017889 0.096746 0.097084
v -0.017824 0.096746 0.097101
v -0.011714 0.094709 0.098383
v -0.008655 0.095729 0.098781
v -0.015787 0.086564 0.098268
v -0.015787 0.085547 0.098315
v -0.007537 0.095729 0.098933
v -0.017824 0.095729 0.097268
v 0.023400 0.087017 0.101948
v -0.016806 0.085547 0.098169
v -0.015783 0.083510 0.098321
v 0.023478 0.087017 0.101948
v 0.023866 0.086633 0.101735
v 0.023866 0.087524 0.101722
v 0.024647 0.087584 0.101223
v 0.023996 0.090606 0.101316
v 0.024591 0.088604 0.101139
v 0.025061 0.085547 0.100406
v 0.010689 0.100952 0.097084
v 0.014706 0.085336 0.097084
v 0.025105 0.085339 0.099389
v 0.012751 0.079722 0.097085
v -0.008655 0.068989 0.097085
v -0.018355 0.095729 0.097084
v -0.012732 0.093689 0.098303
v -0.010696 0.094709 0.098542
v -0.016292 0.092137 0.097860
v -0.016806 0.086564 0.098124
v -0.018005 0.088601 0.097802
v 0.023927 0.085339 0.101611
v -0.014765 0.080456 0.098319
v -0.014765 0.079436 0.098245
v -0.013746 0.078419 0.098247
v -0.001164 0.074833 0.098890
v -0.016806 0.084530 0.098143
v -0.017621 0.087584 0.097923
v -0.017634 0.086564 0.097959
v -0.017552 0.085547 0.097975
v -0.015783 0.082493 0.098288
v 0.024544 0.085339 0.101334
v 0.024699 0.085339 0.101256
v 0.024690 0.086567 0.101250
v 0.025061 0.085339 0.100406
v -0.013509 0.084184 0.097084
v -0.000038 0.074864 0.098876
v -0.000720 0.074833 0.098890
v -0.008655 0.069250 0.097153
v -0.008866 0.069065 0.097085
v -0.018070 0.084184 0.097084
v -0.018959 0.089618 0.097084
v -0.018777 0.089618 0.097243
v -0.018130 0.087584 0.097806
v -0.017379 0.089281 0.097869
v -0.017496 0.088601 0.097890
v -0.014765 0.078419 0.098133
v -0.015783 0.081473 0.098210
v -0.014286 0.075812 0.097878
v -0.013746 0.077402 0.098127
v -0.012728 0.074348 0.097770
v -0.017440 0.084530 0.097942
v -0.016655 0.082493 0.098038
v -0.018143 0.086564 0.097759
v -0.013841 0.074250 0.097345
v -0.013569 0.073504 0.097109
v -0.013591 0.073485 0.097085
v -0.015442 0.076375 0.097085
v -0.018208 0.084514 0.097084
v -0.014463 0.074524 0.097085
v -0.014976 0.075453 0.097085
v -0.018976 0.088601 0.097084
v -0.018773 0.088601 0.097292
v -0.015421 0.078419 0.097959
v -0.015326 0.077754 0.097900
v -0.016473 0.081473 0.097984
v -0.015123 0.077078 0.097790
v -0.017401 0.084184 0.097921
v -0.017354 0.083784 0.097896
v -0.018713 0.087584 0.097296
v -0.018626 0.086564 0.097250
v -0.018057 0.085547 0.097606
v -0.017276 0.083104 0.097834
v -0.015710 0.077052 0.097085
v -0.018510 0.085525 0.097084
v -0.017526 0.082376 0.097085
v -0.017768 0.083097 0.097085
v -0.018894 0.087584 0.097084
v -0.015585 0.077408 0.097411
v -0.018756 0.086564 0.097084
v -0.018713 0.086340 0.097084
v -0.018506 0.085547 0.097096
f 1 2 6
f 1 6 15
f 1 15 29
f 1 29 52
f 1 52 84
f 1 84 95
f 1 95 60
f 1 60 41
f 1 41 22
f 1 22 9
f 1 9 3
f 1 3 4
f 1 4 5
f 1 5 7
f 1 7 2
f 2 7 6
f 3 8 4
f 3 9 8
f 4 8 10
f 4 10 11
f 4 11 12
f 4 12 5
f 5 12 13
f 5 13 14
f 5 14 7
f 6 7 16
f 6 16 17
f 6 17 15
f 7 14 18
f 7 18 19
f 7 19 20
f 7 20 21
f 7 21 16
f 8 9 22
f 8 22 23
f 8 23 24
f 8 24 10
f 10 24 11
f 11 25 26
f 11 26 27
f 11 27 12
f 11 24 25
f 12 27 13
f 13 27 14
f 14 27 28
f 14 28 18
f 15 17 29
f 16 21 17
f 17 21 30
f 17 30 29
f 18 31 32
f 18 32 19
f 18 28 33
f 18 33 34
f 18 34 31
f 19 32 31
f 19 31 35
f 19 35 21
f 19 21 20
f 21 36 37
f 21 37 38
f 21 38 39
f 21 39 30
f 21 35 40
f 21 40 36
f 22 41 42
f 22 42 23
f 23 43 44
f 23 44 45
f 23 45 24
f 23 42 43
f 24 45 25
f 25 46 47
f 25 47 26
f 25 45 44
f 25 44 46
f 26 47 48
f 26 48 27
f 27 48 33
f 27 33 28
f 29 30 49
f 29 49 50
f 29 50 51
f 29 51 52
f 30 39 53
f 30 53 49
f 31 34 54
f 31 54 55
f 31 55 35
f 33 48 56
f 33 56 34
f 34 56 57
f 34 57 58
f 34 58 59
f 34 59 55
f 34 55 54
f 35 55 53
f 35 53 40
f 36 53 37
f 36 40 53
f 37 53 38
f 38 53 39
f 41 60 61
f 41 61 62
f 41 62 63
f 41 63 64
f 41 64 65
f 41 65 42
f 42 66 43
f 42 65 67
f 42 67 66
f 43 66 68
f 43 68 44
f 44 68 69
f 44 69 46
f 46 69 70
f 46 70 71
f 46 71 47
f 47 71 48
f 48 72 73
f 48 73 74
f 48 74 75
f 48 75 76
f 48 76 56
f 48 71 72
f 49 53 50
f 50 53 51
f 51 53 52
f 52 53 77
f 52 77 78
f 52 78 79
f 52 79 80
f 52 80 81
f 52 81 82
f 52 82 83
f 52 83 84
f 53 85 118
f 53 118 142
f 53 142 147
f 53 147 165
f 53 165 181
f 53 181 187
f 53 187 186
f 53 186 184
f 53 184 168
f 53 168 148
f 53 148 122
f 53 122 99
f 53 99 61
f 53 61 98
f 53 98 97
f 53 97 96
f 53 96 117
f 53 117 83
f 53 83 82
f 53 82 81
f 53 81 80
f 53 80 79
f 53 79 78
f 53 78 77
f 53 55 59
f 53 59 86
f 53 86 87
f 53 87 88
f 53 88 89
f 53 89 90
f 53 90 91
f 53 91 85
f 56 76 57
f 57 76 75
f 57 75 92
f 57 92 93
f 57 93 58
f 58 93 94
f 58 94 86
f 58 86 59
f 60 95 96
f 60 96 97
f 60 97 98
f 60 98 61
f 61 99 100
f 61 100 62
f 62 100 64
f 62 64 63
f 64 101 102
f 64 102 103
f 64 103 104
f 64 104 105
f 64 105 65
f 64 100 106
f 64 106 101
f 65 105 104
f 65 104 67
f 66 107 110
f 66 110 68
f 66 67 107
f 67 104 108
f 67 108 109
f 67 109 107
f 68 110 111
f 68 111 112
f 68 112 70
f 68 70 69
f 70 112 113
f 70 113 114
f 70 114 71
f 71 114 72
f 72 115 116
f 72 116 73
f 72 114 115
f 73 116 92
f 73 92 74
f 74 92 75
f 83 117 84
f 84 117 96
f 84 96 95
f 85 91 118
f 86 94 87
f 87 94 88
f 88 94 89
f 89 94 92
f 89 92 90
f 90 92 119
f 90 119 91
f 91 120 118
f 91 119 121
f 91 121 120
f 92 116 119
f 92 94 93
f 99 106 100
f 99 122 106
f 101 123 124
f 101 124 102
f 101 106 125
f 101 125 123
f 102 124 126
f 102 126 103
f 103 126 104
f 104 126 108
f 106 122 127
f 106 127 125
f 107 128 110
f 107 109 129
f 107 129 130
f 107 130 131
f 107 131 132
f 107 132 128
f 108 133 109
f 108 126 134
f 108 134 135
f 108 135 136
f 108 136 133
f 109 133 137
f 109 137 129
f 110 128 138
f 110 138 139
f 110 139 111
f 111 139 140
f 111 140 112
f 112 140 113
f 113 140 116
f 113 116 115
f 113 115 114
f 116 140 139
f 116 139 141
f 116 141 119
f 118 120 121
f 118 121 142
f 119 141 121
f 121 141 139
f 121 139 138
f 121 138 128
f 121 128 143
f 121 143 144
f 121 144 132
f 121 132 145
f 121 145 146
f 121 146 147
f 121 147 142
f 122 148 149
f 122 149 150
f 122 150 127
f 123 125 126
f 123 126 124
f 125 127 151
f 125 151 126
f 126 151 152
f 126 152 127
f 126 127 134
f 127 135 134
f 127 152 151
f 127 150 135
f 128 132 144
f 128 144 143
f 129 137 130
f 130 153 131
f 130 137 154
f 130 154 153
f 131 153 155
f 131 155 156
f 131 156 132
f 132 156 155
f 132 155 157
f 132 157 145
f 133 136 158
f 133 158 159
f 133 159 137
f 135 150 136
f 136 150 160
f 136 160 158
f 137 159 154
f 145 157 146
f 146 157 155
f 146 155 161
f 146 161 162
f 146 162 163
f 146 163 147
f 147 164 165
f 147 163 166
f 147 166 167
f 147 167 164
f 148 168 169
f 148 169 149
f 149 169 150
f 150 169 160
f 153 154 170
f 153 170 171
f 153 171 155
f 154 159 172
f 154 172 170
f 155 166 161
f 155 171 173
f 155 173 166
f 158 174 159
f 158 160 174
f 159 174 175
f 159 175 172
f 160 169 176
f 160 176 177
f 160 177 178
f 160 178 179
f 160 179 175
f 160 175 174
f 161 166 163
f 161 163 162
f 164 167 173
f 164 173 171
f 164 171 180
f 164 180 165
f 165 180 182
f 165 182 183
f 165 183 179
f 165 179 181
f 166 173 167
f 168 184 176
f 168 176 169
f 170 172 171
f 171 172 179
f 171 179 185
f 171 185 180
f 172 175 179
f 176 184 177
f 177 184 186
f 177 186 187
f 177 187 179
f 177 179 178
f 179 187 188
f 179 188 181
f 179 183 182
f 179 182 180
f 179 180 185
f 181 188 187
