v -0.004447 0.050278 0.095997
v 0.003062 0.052769 0.096950
v -0.009590 0.050324 0.096664
v -0.011699 0.051068 0.004699
v -0.005120 0.051248 0.006653
v 0.001434 0.052775 0.006606
v 0.008350 0.055366 0.097084
v -0.015194 0.051194 0.097084
v 0.007697 0.055213 0.008741
v 0.012444 0.057299 0.023058
v -0.015688 0.051666 0.002955
v -0.012965 0.051998 0.000629
v -0.008858 0.051427 0.002659
v -0.004019 0.052078 0.001363
v -0.000432 0.053386 0.000696
v 0.006009 0.055745 0.001296
v 0.013505 0.059192 0.097084
v 0.013532 0.057883 0.026308
v 0.013334 0.108892 0.097084
v -0.022340 0.115096 0.097017
v -0.037531 0.102176 0.096893
v -0.040300 0.096829 0.096865
v -0.034076 0.061550 0.096884
v -0.023923 0.054091 0.096912
v -0.018938 0.052118 0.096931
v -0.019314 0.052237 0.007492
v 0.012444 0.058222 0.007302
v 0.010842 0.056728 0.012964
v 0.011831 0.057153 0.016262
v -0.021747 0.053964 0.001458
v -0.017686 0.053320 0.000048
v 0.009207 0.058515 0.000410
v 0.012912 0.060647 0.001535
v 0.017870 0.064300 0.096979
v 0.022571 0.094531 0.097084
v 0.014916 0.059019 0.029749
v 0.016696 0.060793 0.037976
v 0.017481 0.062434 0.067801
v 0.017296 0.062640 0.079469
v 0.016835 0.062640 0.090974
v 0.013314 0.058495 0.011829
v 0.015305 0.059544 0.024021
v 0.009569 0.111841 0.096683
v 0.004539 0.114717 0.096702
v -0.008146 0.118019 0.096607
v -0.017356 0.116823 0.096817
v 0.016756 0.105258 0.096893
v 0.015154 0.107298 0.077982
v 0.012200 0.110048 0.075942
v -0.023402 0.114717 0.089706
v -0.026646 0.112818 0.096807
v -0.030516 0.110074 0.096798
v -0.034069 0.106640 0.096893
v -0.021233 0.115813 0.075951
v -0.035025 0.105770 0.022515
v -0.036014 0.104401 0.006310
v -0.039238 0.099061 0.005157
v -0.041954 0.091495 0.096559
v -0.042739 0.083132 0.096531
v -0.041618 0.073792 0.096693
v -0.040966 0.094816 0.005109
v -0.039482 0.068525 0.096350
v -0.036515 0.064300 0.096397
v -0.035493 0.062234 0.083768
v -0.033621 0.060667 0.090745
v -0.031538 0.058966 0.094891
v -0.028736 0.056860 0.096693
v -0.030377 0.056621 0.043380
v -0.026995 0.054722 0.027633
v -0.025887 0.054263 0.022181
v -0.023554 0.053639 0.008960
v 0.015384 0.060474 0.009789
v 0.017527 0.063377 0.006205
v -0.025386 0.055897 0.001144
v -0.028327 0.056143 0.007616
v -0.040273 0.090791 0.000076
v -0.038190 0.095733 -0.000143
v 0.015266 0.102342 -0.000296
v -0.028841 0.058216 0.001096
v -0.037247 0.067296 0.001172
v -0.041005 0.085895 0.000315
v 0.020092 0.095447 0.000105
v 0.015371 0.064161 0.000620
v 0.018865 0.066858 0.002459
v 0.023652 0.075998 0.096826
v 0.018536 0.064599 0.087275
v 0.019584 0.066326 0.091736
v 0.020639 0.068326 0.096512
v 0.022788 0.072603 0.096502
v 0.021292 0.098071 0.093776
v 0.019597 0.101153 0.096493
v 0.024291 0.085277 0.096702
v 0.023626 0.090193 0.096483
v 0.023659 0.089296 0.004566
v 0.022531 0.093654 0.005891
v 0.016505 0.060600 0.032647
v 0.018391 0.063025 0.035240
v 0.019254 0.065297 0.079516
v 0.019914 0.065463 0.049090
v 0.016400 0.061484 0.010809
v 0.017112 0.061849 0.019941
v 0.010301 0.111629 0.023010
v 0.007170 0.113588 0.074922
v 0.005033 0.114691 0.091231
v 0.000432 0.116591 0.082566
v -0.002759 0.117288 0.096035
v -0.007137 0.118138 0.058374
v -0.011699 0.117972 0.063722
v -0.012411 0.117846 0.096397
v -0.005614 0.117932 0.067792
v -0.016295 0.117202 0.092499
v -0.017514 0.117022 0.074922
v 0.017375 0.104481 0.091231
v 0.016901 0.104574 0.005948
v 0.014402 0.107397 0.006444
v 0.013400 0.108633 0.023010
v -0.024523 0.114219 0.026061
v -0.024628 0.114113 0.074922
v -0.027898 0.112080 0.088162
v -0.028597 0.111562 0.093261
v -0.028175 0.111941 0.075942
v -0.030173 0.110413 0.023277
v -0.032223 0.108586 0.006444
v -0.034043 0.106846 0.027586
v -0.018378 0.116617 0.022200
v -0.021147 0.115694 0.028100
v -0.033845 0.106368 0.002364
v -0.036021 0.102688 0.001354
v -0.038625 0.097221 0.000324
v -0.042574 0.088021 0.095959
v -0.042231 0.089861 0.005243
v -0.042891 0.082508 0.086379
v -0.042785 0.081039 0.091222
v -0.042462 0.078515 0.095892
v -0.041704 0.073733 0.090716
v -0.040735 0.070790 0.093261
v -0.040511 0.070272 0.093261
v -0.037801 0.064765 0.072196
v -0.037069 0.063908 0.079259
v -0.037326 0.064805 0.089449
v -0.035691 0.061557 0.058641
v -0.034386 0.059916 0.050901
v -0.031986 0.058647 0.079001
v -0.032335 0.057957 0.041064
v -0.030463 0.056701 0.033133
v -0.029672 0.056376 0.022496
v -0.027839 0.055392 0.017930
v -0.026112 0.054675 0.011829
v 0.020698 0.068419 0.006615
v 0.017336 0.062586 0.010809
v -0.031267 0.058222 0.006663
v -0.030245 0.057213 0.011696
v -0.030555 0.107743 -0.000000
v -0.021576 0.113263 0.000048
v 0.008930 0.110141 0.000343
v 0.015833 0.102907 -0.000143
v -0.034280 0.063178 0.001325
v -0.041737 0.081053 0.000934
v -0.034392 0.061112 0.007092
v -0.036944 0.064353 0.008236
v -0.039317 0.068684 0.007435
v -0.039232 0.070591 0.001878
v 0.018200 0.100456 0.000600
v 0.020375 0.098576 0.004223
v 0.021977 0.091986 0.001382
v 0.021786 0.075725 0.000763
v 0.020342 0.071275 0.001306
v 0.023059 0.074968 0.004728
v 0.024437 0.081325 0.096426
v 0.023388 0.074437 0.079001
v 0.023995 0.077399 0.079001
v 0.020112 0.066506 0.074931
v 0.021147 0.068551 0.080021
v 0.021549 0.068943 0.060671
v 0.022630 0.071733 0.057878
v 0.018898 0.101625 0.007435
v 0.024463 0.082461 0.069813
v 0.024364 0.084527 0.070852
v 0.024153 0.087078 0.085112
v 0.023837 0.089190 0.092880
v 0.023949 0.088094 0.012325
v 0.023744 0.085942 0.002516
v 0.024285 0.080734 0.009265
v 0.019690 0.065091 0.041569
v 0.021094 0.067900 0.044181
v 0.020395 0.066645 0.062721
v 0.006431 0.113734 0.024021
v 0.010347 0.110885 0.005729
v 0.005060 0.114306 0.006529
v 0.004915 0.114485 0.010790
v 0.001519 0.116199 0.058622
v 0.000405 0.116564 0.053532
v -0.001032 0.116989 0.057602
v -0.003630 0.117607 0.054552
v -0.003570 0.117394 0.023001
v -0.003570 0.117281 0.010790
v -0.008159 0.117926 0.027080
v -0.009616 0.117899 0.021981
v -0.013433 0.117839 0.074922
v -0.013255 0.117627 0.011219
v -0.014706 0.117607 0.064742
v -0.016809 0.116996 0.026061
v 0.016841 0.103770 0.002516
v 0.012128 0.108155 0.001039
v -0.024318 0.114159 0.011820
v -0.027318 0.112419 0.012830
v -0.029962 0.110267 0.003594
v -0.014765 0.117428 0.022009
v -0.016427 0.116836 0.006663
v -0.018345 0.116464 0.011820
v -0.020903 0.115534 0.007797
v -0.042772 0.085045 0.005805
v -0.042805 0.080070 0.083834
v -0.042607 0.077911 0.079001
v -0.042119 0.075334 0.082376
v -0.041519 0.073015 0.060929
v -0.040610 0.070152 0.058136
v -0.039990 0.068698 0.065533
v -0.038678 0.065881 0.055743
v -0.037946 0.064679 0.060071
v -0.037214 0.063457 0.053465
v -0.035665 0.061424 0.041093
v -0.033555 0.059179 0.036756
v -0.033839 0.059378 0.047517
v -0.030799 0.057027 0.027080
v 0.023415 0.075294 0.011829
v 0.022478 0.071620 0.027080
v -0.025920 0.111170 0.000334
v -0.024411 0.113721 0.003012
v -0.018220 0.115807 0.002211
v -0.014284 0.116351 0.001706
v -0.009926 0.116989 0.001935
v -0.005034 0.116511 0.001544
v 0.005192 0.112824 0.000867
v -0.040577 0.074284 0.001983
v -0.042310 0.078622 0.004899
v -0.038651 0.066785 0.019941
v -0.038625 0.067137 0.011124
v -0.037076 0.063330 0.045925
v -0.039871 0.069554 0.015375
v -0.040794 0.072145 0.006987
v 0.023837 0.079399 0.003451
v 0.023487 0.074829 0.063855
v 0.021437 0.068664 0.051378
v 0.002080 0.114339 0.001563
v -0.000696 0.116405 0.006263
v 0.001915 0.115867 0.028100
v -0.007058 0.117580 0.007816
v -0.008410 0.117806 0.014346
v -0.012319 0.117527 0.006415
v -0.026567 0.112751 0.006796
v -0.041895 0.075832 0.007397
v -0.040741 0.071766 0.012334
v -0.040280 0.070272 0.023001
v -0.038203 0.065084 0.050491
f 1 2 3
f 1 3 4
f 1 4 5
f 1 5 6
f 1 6 2
f 2 7 8
f 2 8 3
f 2 6 9
f 2 9 10
f 2 10 7
f 3 8 11
f 3 11 4
f 4 11 12
f 4 12 13
f 4 13 5
f 5 13 14
f 5 14 6
f 6 14 15
f 6 15 16
f 6 16 9
f 7 17 35
f 7 35 19
f 7 19 8
f 7 10 18
f 7 18 17
f 8 19 20
f 8 20 21
f 8 21 22
f 8 22 23
f 8 23 24
f 8 24 25
f 8 25 26
f 8 26 11
f 9 16 27
f 9 27 28
f 9 28 29
f 9 29 10
f 10 29 18
f 11 30 31
f 11 31 12
f 11 26 30
f 12 31 15
f 12 15 14
f 12 14 13
f 15 31 32
f 15 32 16
f 16 32 33
f 16 33 27
f 17 34 35
f 17 18 36
f 17 36 37
f 17 37 38
f 17 38 39
f 17 39 40
f 17 40 34
f 18 29 41
f 18 41 42
f 18 42 36
f 19 43 44
f 19 44 45
f 19 45 46
f 19 46 20
f 19 35 47
f 19 47 48
f 19 48 49
f 19 49 43
f 20 50 51
f 20 51 52
f 20 52 53
f 20 53 21
f 20 46 54
f 20 54 50
f 21 53 55
f 21 55 56
f 21 56 57
f 21 57 22
f 22 58 59
f 22 59 60
f 22 60 23
f 22 57 61
f 22 61 58
f 23 60 62
f 23 62 63
f 23 63 64
f 23 64 65
f 23 65 66
f 23 66 67
f 23 67 24
f 24 67 68
f 24 68 69
f 24 69 25
f 25 69 70
f 25 70 26
f 26 70 71
f 26 71 30
f 27 72 41
f 27 41 29
f 27 29 28
f 27 33 73
f 27 73 72
f 30 74 31
f 30 71 75
f 30 75 74
f 31 76 77
f 31 77 78
f 31 78 32
f 31 74 79
f 31 79 80
f 31 80 81
f 31 81 76
f 32 78 82
f 32 82 83
f 32 83 33
f 33 83 84
f 33 84 73
f 34 85 35
f 34 40 86
f 34 86 87
f 34 87 88
f 34 88 89
f 34 89 85
f 35 90 91
f 35 91 47
f 35 85 92
f 35 92 93
f 35 93 94
f 35 94 95
f 35 95 90
f 36 96 37
f 36 42 96
f 37 96 97
f 37 97 38
f 38 98 86
f 38 86 39
f 38 97 99
f 38 99 98
f 39 86 40
f 41 72 42
f 42 72 100
f 42 100 101
f 42 101 96
f 43 49 102
f 43 102 103
f 43 103 104
f 43 104 44
f 44 104 105
f 44 105 106
f 44 106 45
f 45 107 108
f 45 108 109
f 45 109 46
f 45 106 110
f 45 110 107
f 46 109 111
f 46 111 112
f 46 112 54
f 47 91 113
f 47 113 48
f 48 113 114
f 48 114 115
f 48 115 116
f 48 116 102
f 48 102 49
f 50 54 117
f 50 117 118
f 50 118 51
f 51 118 119
f 51 119 120
f 51 120 52
f 52 120 121
f 52 121 122
f 52 122 123
f 52 123 124
f 52 124 53
f 53 124 55
f 54 112 125
f 54 125 126
f 54 126 117
f 55 123 56
f 55 124 123
f 56 127 128
f 56 128 57
f 56 123 127
f 57 128 129
f 57 129 61
f 58 130 59
f 58 61 131
f 58 131 130
f 59 130 132
f 59 132 133
f 59 133 134
f 59 134 60
f 60 134 135
f 60 135 136
f 60 136 62
f 61 129 76
f 61 76 131
f 62 136 137
f 62 137 138
f 62 138 139
f 62 139 140
f 62 140 63
f 63 140 64
f 64 140 139
f 64 139 141
f 64 141 142
f 64 142 65
f 65 142 143
f 65 143 66
f 66 143 67
f 67 143 68
f 68 144 145
f 68 145 69
f 68 143 144
f 69 145 146
f 69 146 147
f 69 147 70
f 70 147 148
f 70 148 71
f 71 148 75
f 72 73 100
f 73 84 149
f 73 149 150
f 73 150 100
f 74 75 151
f 74 151 79
f 75 148 147
f 75 147 146
f 75 146 152
f 75 152 151
f 76 129 77
f 76 81 131
f 77 153 78
f 77 129 153
f 78 153 154
f 78 154 155
f 78 155 156
f 78 156 82
f 79 157 80
f 79 151 157
f 80 158 81
f 80 157 159
f 80 159 160
f 80 160 161
f 80 161 162
f 80 162 158
f 81 158 131
f 82 156 163
f 82 163 164
f 82 164 165
f 82 165 166
f 82 166 83
f 83 166 167
f 83 167 84
f 84 168 149
f 84 167 168
f 85 169 92
f 85 89 170
f 85 170 171
f 85 171 169
f 86 98 87
f 87 98 172
f 87 172 88
f 88 172 173
f 88 173 89
f 89 173 174
f 89 174 175
f 89 175 170
f 90 95 164
f 90 164 176
f 90 176 91
f 91 176 113
f 92 169 177
f 92 177 178
f 92 178 179
f 92 179 180
f 92 180 93
f 93 180 181
f 93 181 94
f 94 182 165
f 94 165 95
f 94 181 183
f 94 183 182
f 95 165 164
f 96 101 97
f 97 184 99
f 97 101 150
f 97 150 149
f 97 149 184
f 98 99 172
f 99 184 185
f 99 185 174
f 99 174 186
f 99 186 172
f 100 150 101
f 102 187 103
f 102 116 115
f 102 115 188
f 102 188 189
f 102 189 190
f 102 190 187
f 103 187 190
f 103 190 104
f 104 191 105
f 104 190 191
f 105 191 192
f 105 192 193
f 105 193 194
f 105 194 106
f 106 194 110
f 107 110 194
f 107 194 195
f 107 195 196
f 107 196 197
f 107 197 198
f 107 198 108
f 108 199 109
f 108 198 200
f 108 200 199
f 109 199 111
f 111 199 112
f 112 199 201
f 112 201 202
f 112 202 125
f 113 176 114
f 114 176 164
f 114 164 203
f 114 203 115
f 115 203 204
f 115 204 188
f 117 205 206
f 117 206 121
f 117 121 118
f 117 126 205
f 118 121 119
f 119 121 120
f 121 206 122
f 122 206 207
f 122 207 123
f 123 207 127
f 125 202 208
f 125 208 200
f 125 200 209
f 125 209 210
f 125 210 211
f 125 211 126
f 126 211 205
f 127 207 153
f 127 153 128
f 128 153 129
f 130 131 212
f 130 212 132
f 131 158 212
f 132 213 133
f 132 212 213
f 133 213 134
f 134 213 214
f 134 214 215
f 134 215 135
f 135 215 216
f 135 216 217
f 135 217 136
f 136 217 218
f 136 218 137
f 137 218 219
f 137 219 220
f 137 220 138
f 138 220 221
f 138 221 139
f 139 221 141
f 141 221 222
f 141 222 142
f 142 222 223
f 142 223 224
f 142 224 144
f 142 144 143
f 144 223 225
f 144 225 145
f 144 224 223
f 145 225 146
f 146 225 152
f 149 168 226
f 149 226 227
f 149 227 185
f 149 185 184
f 151 152 225
f 151 225 223
f 151 223 159
f 151 159 157
f 153 207 228
f 153 228 154
f 154 228 229
f 154 229 230
f 154 230 231
f 154 231 232
f 154 232 233
f 154 233 234
f 154 234 155
f 155 234 188
f 155 188 204
f 155 204 156
f 156 204 203
f 156 203 163
f 158 162 235
f 158 235 236
f 158 236 212
f 159 223 222
f 159 222 160
f 160 237 238
f 160 238 161
f 160 222 239
f 160 239 237
f 161 238 237
f 161 237 240
f 161 240 241
f 161 241 162
f 162 241 235
f 163 203 164
f 165 182 166
f 166 182 242
f 166 242 168
f 166 168 167
f 168 242 226
f 169 171 183
f 169 183 177
f 170 175 243
f 170 243 171
f 171 243 226
f 171 226 183
f 172 186 173
f 173 186 174
f 174 185 244
f 174 244 175
f 175 244 227
f 175 227 226
f 175 226 243
f 177 183 181
f 177 181 178
f 178 181 179
f 179 181 180
f 182 183 242
f 183 226 242
f 185 227 244
f 188 234 189
f 189 234 245
f 189 245 246
f 189 246 190
f 190 246 247
f 190 247 191
f 191 247 192
f 192 247 246
f 192 246 196
f 192 196 195
f 192 195 193
f 193 195 194
f 196 248 249
f 196 249 197
f 196 246 248
f 197 249 198
f 198 249 200
f 199 200 201
f 200 208 201
f 200 249 250
f 200 250 209
f 201 208 202
f 205 211 229
f 205 229 251
f 205 251 206
f 206 251 207
f 207 229 228
f 207 251 229
f 209 211 210
f 209 250 230
f 209 230 211
f 211 230 229
f 212 236 213
f 213 236 214
f 214 236 252
f 214 252 215
f 215 252 216
f 216 252 253
f 216 253 217
f 217 219 218
f 217 253 254
f 217 254 219
f 219 254 240
f 219 240 237
f 219 237 255
f 219 255 220
f 220 255 221
f 221 255 239
f 221 239 222
f 230 250 231
f 231 250 232
f 232 250 248
f 232 248 233
f 233 246 245
f 233 245 234
f 233 248 246
f 235 241 236
f 236 241 252
f 237 239 255
f 240 254 253
f 240 253 241
f 241 253 252
f 248 250 249
