v -0.009674 0.118371 0.100406
v -0.009674 0.117974 0.097084
v -0.009937 0.118359 0.100406
v -0.009937 0.118304 0.100668
v -0.009674 0.118145 0.101425
v -0.008657 0.118370 0.100406
v -0.008657 0.117967 0.097084
v -0.009937 0.117960 0.097084
v -0.009937 0.118135 0.101425
v -0.008657 0.118129 0.101425
v -0.009937 0.118041 0.101580
v -0.009674 0.117758 0.102038
v -0.007637 0.118329 0.100406
v -0.007637 0.117940 0.097084
v -0.009937 0.114218 0.097084
v -0.007637 0.117728 0.102008
v -0.007637 0.118081 0.101425
v -0.008657 0.117748 0.102024
v -0.009937 0.117753 0.102035
v -0.009937 0.117593 0.102073
v -0.009937 0.117119 0.102180
v -0.009674 0.117119 0.102183
v -0.006620 0.118012 0.101425
v -0.006620 0.118255 0.100406
v -0.005599 0.117785 0.097084
v 0.016955 0.101158 0.097084
v 0.017841 0.101158 0.100406
v 0.018149 0.101158 0.101066
v -0.009937 0.115980 0.101425
v -0.006620 0.117685 0.101975
v -0.002548 0.116771 0.102019
v -0.009937 0.116934 0.102155
v 0.016290 0.105407 0.101934
v 0.005599 0.113719 0.101989
v 0.000510 0.115815 0.102022
v 0.016293 0.105407 0.101934
v 0.016293 0.105413 0.101934
v 0.007636 0.112707 0.101978
v -0.005966 0.117647 0.101947
v -0.005617 0.117857 0.101506
v -0.004582 0.117815 0.101303
v -0.003565 0.117733 0.101154
v -0.005599 0.118134 0.100406
v -0.005176 0.117733 0.097084
v 0.019622 0.101158 0.097084
v 0.018796 0.101158 0.101333
v -0.009937 0.116405 0.102078
v -0.009937 0.116294 0.101911
v 0.001527 0.115684 0.101985
v -0.001710 0.116685 0.101980
v 0.018841 0.101844 0.101479
v 0.006300 0.113625 0.101975
v 0.003565 0.114730 0.101991
v 0.019891 0.101158 0.101263
v 0.018891 0.102895 0.101314
v 0.018563 0.103881 0.101172
v 0.017815 0.104848 0.101246
v 0.016723 0.105835 0.101491
v 0.015822 0.106964 0.101442
v 0.014808 0.107997 0.101404
v 0.008185 0.112560 0.101945
v -0.001029 0.116592 0.101931
v -0.002530 0.117332 0.101385
v -0.002852 0.117674 0.101020
v -0.002682 0.117689 0.100406
v -0.002760 0.117665 0.099758
v -0.004904 0.117682 0.097084
v 0.019208 0.101852 0.097084
v 0.020320 0.101254 0.099022
v 0.020347 0.101158 0.098973
v 0.004224 0.114631 0.101966
v 0.002124 0.115620 0.101954
v 0.006980 0.113419 0.101882
v 0.020192 0.101158 0.101054
v 0.020359 0.101325 0.100888
v 0.019697 0.101844 0.101186
v 0.019479 0.102579 0.101056
v 0.018384 0.104477 0.100987
v 0.017469 0.105579 0.101118
v 0.016472 0.106641 0.101184
v 0.015506 0.107685 0.101190
v 0.013429 0.109650 0.101131
v 0.013761 0.108996 0.101362
v 0.012711 0.109989 0.101294
v 0.012359 0.110612 0.101062
v 0.010691 0.111716 0.101133
v 0.009376 0.112666 0.101102
v -0.000510 0.116496 0.101862
v -0.000510 0.116875 0.101353
v -0.002175 0.117601 0.100406
v 0.000510 0.116725 0.101142
v 0.001101 0.116636 0.100970
v -0.000510 0.117185 0.100406
v -0.001528 0.117450 0.100406
v 0.001235 0.116683 0.099650
v -0.000558 0.116715 0.097084
v -0.004743 0.117647 0.097084
v 0.019127 0.101985 0.097084
v 0.020422 0.101419 0.099700
v 0.020395 0.101158 0.099112
v 0.018617 0.102749 0.097084
v 0.019181 0.103126 0.099388
v 0.019524 0.102616 0.099388
v 0.005599 0.114745 0.101161
v 0.004722 0.114981 0.101345
v 0.003565 0.115691 0.101093
v 0.002497 0.115844 0.101464
v 0.004489 0.115044 0.101394
v 0.007463 0.113748 0.101203
v 0.006574 0.114026 0.101424
v 0.020473 0.101158 0.100723
v 0.020535 0.101158 0.100357
v 0.020422 0.101419 0.100208
v 0.018402 0.104496 0.100405
v 0.018032 0.105006 0.100405
v 0.017525 0.105655 0.100405
v 0.019241 0.103217 0.100405
v 0.016129 0.107263 0.100405
v 0.015622 0.107798 0.100405
v 0.015115 0.108307 0.100405
v 0.014494 0.108675 0.101139
v 0.014605 0.108779 0.100405
v 0.014035 0.109288 0.100405
v 0.011228 0.111534 0.100940
v 0.013525 0.109733 0.100405
v 0.012937 0.110242 0.100405
v 0.012430 0.110669 0.100405
v 0.008144 0.113552 0.100892
v 0.001241 0.116685 0.100406
v 0.000510 0.116902 0.100406
v 0.004075 0.115593 0.100917
v 0.001751 0.116518 0.100406
v 0.000247 0.116479 0.097084
v -0.000510 0.116703 0.097084
v 0.002544 0.116226 0.100406
v 0.004128 0.115616 0.099809
v 0.020535 0.101158 0.100114
v 0.020511 0.101158 0.099541
v 0.018372 0.104445 0.099773
v 0.017382 0.104493 0.097084
v 0.018629 0.103916 0.099416
v 0.006166 0.114602 0.100965
v 0.016517 0.106681 0.099388
v 0.016037 0.107190 0.099388
v 0.015025 0.108206 0.099388
v 0.014515 0.108713 0.099388
v 0.013993 0.109224 0.099388
v 0.013486 0.109701 0.099388
v 0.011759 0.111177 0.100405
v 0.011249 0.111552 0.100405
v 0.010691 0.111943 0.100405
v 0.010011 0.112417 0.100405
v 0.011240 0.111546 0.099793
v 0.008188 0.113581 0.100213
v 0.007735 0.113819 0.100493
v 0.006730 0.114375 0.100405
v 0.009504 0.112747 0.100405
v 0.004624 0.115387 0.100406
v 0.004113 0.115611 0.100406
v 0.003565 0.115829 0.100406
v 0.005599 0.114932 0.100405
v 0.004722 0.115343 0.100405
v 0.002792 0.115490 0.097084
v 0.006199 0.114616 0.099650
v 0.006061 0.114555 0.098972
v 0.003565 0.115177 0.097084
v 0.017099 0.104867 0.097084
v 0.017024 0.106038 0.099388
v 0.006219 0.114627 0.100405
v 0.016401 0.106545 0.098754
v 0.014044 0.108245 0.097084
v 0.013376 0.109606 0.098707
v 0.012842 0.110210 0.099388
v 0.008188 0.113581 0.099792
v 0.011634 0.111138 0.099428
v 0.011097 0.111441 0.099115
v 0.010733 0.111800 0.099428
v 0.009915 0.112359 0.099388
v 0.006571 0.114359 0.099342
v 0.007666 0.113775 0.099427
v 0.008024 0.113485 0.099114
v 0.006449 0.113748 0.097084
v 0.005599 0.114193 0.097084
v 0.004456 0.114769 0.097084
v 0.016997 0.105000 0.097084
v 0.016487 0.105623 0.097084
v 0.016147 0.105999 0.097084
v 0.016022 0.106134 0.097084
v 0.014172 0.108112 0.097084
v 0.013534 0.108750 0.097084
v 0.012836 0.109382 0.097084
v 0.011696 0.110292 0.097084
v 0.011320 0.110590 0.097084
v 0.010279 0.111382 0.097084
v 0.009405 0.112688 0.099388
v 0.008579 0.113227 0.099427
v 0.010139 0.111485 0.097084
v 0.010005 0.111578 0.097084
v 0.009629 0.111827 0.097084
v 0.008836 0.112336 0.097084
v 0.008328 0.112646 0.097084
v 0.007636 0.113055 0.097084
v 0.006956 0.113455 0.097084
f 1 2 3
f 1 3 4
f 1 4 5
f 1 5 6
f 1 6 2
f 2 6 7
f 2 7 14
f 2 14 25
f 2 25 44
f 2 44 67
f 2 67 97
f 2 97 96
f 2 96 134
f 2 134 133
f 2 133 163
f 2 163 166
f 2 166 184
f 2 184 183
f 2 183 182
f 2 182 203
f 2 203 202
f 2 202 201
f 2 201 200
f 2 200 199
f 2 199 198
f 2 198 197
f 2 197 194
f 2 194 193
f 2 193 192
f 2 192 191
f 2 191 190
f 2 190 171
f 2 171 189
f 2 189 188
f 2 188 187
f 2 187 186
f 2 186 185
f 2 185 167
f 2 167 140
f 2 140 101
f 2 101 98
f 2 98 68
f 2 68 45
f 2 45 26
f 2 26 15
f 2 15 8
f 2 8 3
f 3 8 15
f 3 15 29
f 3 29 48
f 3 48 47
f 3 47 32
f 3 32 21
f 3 21 20
f 3 20 19
f 3 19 11
f 3 11 9
f 3 9 4
f 4 9 5
f 5 10 6
f 5 9 11
f 5 11 12
f 5 12 10
f 6 10 13
f 6 13 14
f 6 14 7
f 10 16 17
f 10 17 13
f 10 12 18
f 10 18 16
f 11 19 12
f 12 19 20
f 12 20 21
f 12 21 22
f 12 22 18
f 13 17 23
f 13 23 24
f 13 24 14
f 14 24 25
f 15 26 27
f 15 27 28
f 15 28 29
f 16 30 17
f 16 18 22
f 16 22 31
f 16 31 30
f 17 30 23
f 21 32 33
f 21 33 22
f 22 34 35
f 22 35 31
f 22 33 36
f 22 36 37
f 22 37 38
f 22 38 34
f 23 30 39
f 23 39 40
f 23 40 41
f 23 41 24
f 24 41 42
f 24 42 43
f 24 43 25
f 25 43 44
f 26 45 70
f 26 70 100
f 26 100 138
f 26 138 137
f 26 137 112
f 26 112 111
f 26 111 74
f 26 74 54
f 26 54 46
f 26 46 28
f 26 28 27
f 28 46 47
f 28 47 48
f 28 48 29
f 30 31 39
f 31 35 49
f 31 49 50
f 31 50 39
f 32 47 33
f 33 51 36
f 33 47 51
f 34 52 35
f 34 38 52
f 35 52 53
f 35 53 49
f 36 51 37
f 37 51 54
f 37 54 55
f 37 55 56
f 37 56 57
f 37 57 58
f 37 58 59
f 37 59 60
f 37 60 61
f 37 61 38
f 38 61 52
f 39 50 62
f 39 62 42
f 39 42 41
f 39 41 40
f 42 63 64
f 42 64 43
f 42 62 63
f 43 64 65
f 43 65 66
f 43 66 44
f 44 66 67
f 45 68 69
f 45 69 70
f 46 54 51
f 46 51 47
f 49 53 71
f 49 71 72
f 49 72 50
f 50 72 62
f 52 71 53
f 52 61 73
f 52 73 71
f 54 74 75
f 54 75 76
f 54 76 55
f 55 76 56
f 56 76 77
f 56 77 78
f 56 78 57
f 57 78 79
f 57 79 58
f 58 80 59
f 58 79 80
f 59 81 60
f 59 80 81
f 60 82 83
f 60 83 61
f 60 81 82
f 61 83 84
f 61 84 85
f 61 85 86
f 61 86 87
f 61 87 73
f 62 88 89
f 62 89 64
f 62 64 63
f 62 72 88
f 64 90 65
f 64 89 91
f 64 91 92
f 64 92 93
f 64 93 94
f 64 94 90
f 65 90 66
f 66 90 94
f 66 94 95
f 66 95 96
f 66 96 97
f 66 97 67
f 68 98 69
f 69 99 100
f 69 100 70
f 69 98 101
f 69 101 102
f 69 102 103
f 69 103 99
f 71 104 105
f 71 105 72
f 71 73 104
f 72 106 107
f 72 107 91
f 72 91 88
f 72 105 108
f 72 108 106
f 73 87 109
f 73 109 110
f 73 110 104
f 74 111 75
f 75 77 76
f 75 111 112
f 75 112 113
f 75 113 78
f 75 78 77
f 78 114 115
f 78 115 116
f 78 116 79
f 78 113 117
f 78 117 114
f 79 116 118
f 79 118 80
f 80 118 81
f 81 118 119
f 81 119 120
f 81 120 121
f 81 121 82
f 82 85 84
f 82 84 83
f 82 121 122
f 82 122 123
f 82 123 85
f 85 124 86
f 85 123 125
f 85 125 126
f 85 126 127
f 85 127 124
f 86 124 87
f 87 128 109
f 87 124 128
f 88 91 89
f 91 107 92
f 92 129 130
f 92 130 93
f 92 107 106
f 92 106 131
f 92 131 132
f 92 132 129
f 93 130 95
f 93 95 94
f 95 133 134
f 95 134 96
f 95 130 129
f 95 129 132
f 95 132 135
f 95 135 136
f 95 136 133
f 99 113 112
f 99 112 137
f 99 137 138
f 99 138 100
f 99 103 102
f 99 102 139
f 99 139 114
f 99 114 113
f 101 140 102
f 102 140 141
f 102 141 139
f 104 110 109
f 104 109 142
f 104 142 131
f 104 131 106
f 104 106 105
f 105 106 108
f 109 128 142
f 113 114 117
f 114 139 115
f 115 139 116
f 116 139 143
f 116 143 118
f 118 144 119
f 118 143 144
f 119 144 145
f 119 145 120
f 120 145 146
f 120 146 147
f 120 147 148
f 120 148 122
f 120 122 121
f 122 148 123
f 123 148 125
f 124 127 149
f 124 149 150
f 124 150 151
f 124 151 152
f 124 152 128
f 125 148 126
f 126 148 127
f 127 153 149
f 127 148 153
f 128 154 155
f 128 155 156
f 128 156 142
f 128 152 157
f 128 157 154
f 131 158 159
f 131 159 160
f 131 160 135
f 131 135 132
f 131 142 161
f 131 161 162
f 131 162 158
f 133 136 163
f 135 160 136
f 136 160 159
f 136 159 158
f 136 158 162
f 136 162 161
f 136 161 164
f 136 164 165
f 136 165 166
f 136 166 163
f 139 140 167
f 139 167 168
f 139 168 143
f 139 141 140
f 142 169 161
f 142 156 169
f 143 170 144
f 143 168 170
f 144 170 171
f 144 171 172
f 144 172 145
f 145 172 146
f 146 172 147
f 147 172 148
f 148 172 173
f 148 173 153
f 149 153 150
f 150 153 151
f 151 153 152
f 152 174 157
f 152 153 174
f 153 173 172
f 153 172 175
f 153 175 176
f 153 176 177
f 153 177 178
f 153 178 174
f 154 174 156
f 154 156 155
f 154 157 174
f 156 174 164
f 156 164 169
f 161 169 164
f 164 174 179
f 164 179 165
f 165 179 174
f 165 174 180
f 165 180 181
f 165 181 182
f 165 182 183
f 165 183 184
f 165 184 166
f 167 185 168
f 168 185 170
f 170 185 186
f 170 186 187
f 170 187 188
f 170 188 189
f 170 189 171
f 171 190 172
f 172 191 192
f 172 192 193
f 172 193 194
f 172 194 176
f 172 176 175
f 172 190 191
f 174 181 180
f 174 178 195
f 174 195 196
f 174 196 181
f 176 194 197
f 176 197 177
f 177 197 178
f 178 197 198
f 178 198 199
f 178 199 195
f 181 196 195
f 181 195 200
f 181 200 201
f 181 201 202
f 181 202 203
f 181 203 182
f 195 199 200
