v -0.030564 0.084178 0.097084
v -0.005504 0.060086 0.097084
v -0.042710 0.084178 0.097084
v -0.042617 0.084178 0.101992
v -0.009943 0.051494 0.101981
v -0.009943 0.050921 0.102006
v -0.009943 0.050719 0.101997
v -0.009943 0.050379 0.101961
v -0.009943 0.050062 0.101446
v -0.009943 0.049978 0.101161
v -0.009943 0.049773 0.100405
v -0.009943 0.050389 0.097084
v -0.042737 0.083504 0.097084
v -0.043359 0.083504 0.099389
v -0.043310 0.084178 0.099389
v -0.042882 0.084178 0.101992
v -0.041249 0.076374 0.102201
v -0.025965 0.054963 0.102120
v -0.019872 0.052232 0.102045
v -0.037168 0.066192 0.102280
v -0.015798 0.051315 0.102004
v -0.010383 0.050386 0.101955
v -0.010715 0.050143 0.101510
v -0.011721 0.050153 0.101321
v -0.010703 0.049820 0.100405
v -0.014781 0.050298 0.099629
v -0.010342 0.050426 0.097084
v -0.042722 0.082497 0.097084
v -0.043389 0.082483 0.099389
v -0.043474 0.084178 0.100060
v -0.043020 0.084178 0.101798
v -0.043292 0.083504 0.101424
v -0.042882 0.081466 0.102008
v -0.042129 0.077394 0.102163
v -0.040232 0.072302 0.102242
v -0.031064 0.059069 0.102145
v -0.029006 0.057014 0.102110
v -0.026796 0.055280 0.102067
v -0.025626 0.054397 0.102017
v -0.020636 0.052353 0.101995
v -0.018247 0.051487 0.101908
v -0.017565 0.051400 0.101960
v -0.016816 0.051346 0.101992
v -0.040933 0.072302 0.102090
v -0.038946 0.068226 0.102094
v -0.037150 0.065256 0.102106
v -0.036166 0.064165 0.102133
v -0.035178 0.063097 0.102145
v -0.034112 0.062123 0.102154
v -0.014781 0.050329 0.101060
v -0.013760 0.050265 0.101140
v -0.015455 0.050379 0.100982
v -0.014781 0.050214 0.100405
v -0.015545 0.050345 0.099769
v -0.013760 0.050928 0.097084
v -0.042714 0.082217 0.097084
v -0.043515 0.081466 0.100405
v -0.043579 0.082483 0.100405
v -0.043560 0.083504 0.100405
v -0.042681 0.081466 0.097084
v -0.042628 0.080446 0.097084
v -0.043322 0.081466 0.099389
v -0.043542 0.084178 0.100405
v -0.043281 0.084178 0.101424
v -0.043288 0.082483 0.101424
v -0.043374 0.084178 0.101077
v -0.042845 0.080685 0.101986
v -0.043255 0.081466 0.101424
v -0.042021 0.076374 0.102124
v -0.041108 0.073322 0.102156
v -0.031064 0.058345 0.102044
v -0.029774 0.057344 0.102044
v -0.028660 0.056425 0.101999
v -0.027475 0.055522 0.101910
v -0.026304 0.054603 0.101616
v -0.025965 0.054310 0.101335
v -0.024512 0.053437 0.100985
v -0.022425 0.052444 0.100934
v -0.021907 0.052322 0.101155
v -0.020934 0.052114 0.101503
v -0.021314 0.052508 0.101897
v -0.018851 0.051585 0.101776
v -0.019570 0.051373 0.101070
v -0.018851 0.051288 0.101267
v -0.040806 0.071642 0.101997
v -0.041820 0.074612 0.101990
v -0.038775 0.067590 0.101999
v -0.036792 0.064505 0.102024
v -0.035827 0.063407 0.102049
v -0.037705 0.065643 0.101952
v -0.034809 0.062123 0.102015
v -0.032003 0.059163 0.102023
v -0.015608 0.050335 0.100405
v -0.014781 0.051086 0.097084
v -0.016119 0.050460 0.100405
v -0.018851 0.051150 0.100405
v -0.019484 0.051393 0.099809
v -0.018851 0.052070 0.097084
v -0.018101 0.051871 0.097084
v -0.017132 0.051615 0.097084
v -0.016357 0.051416 0.097084
v -0.015817 0.051295 0.097084
v -0.043404 0.080446 0.100405
v -0.042532 0.079429 0.097084
v -0.043195 0.080446 0.099389
v -0.042502 0.079162 0.097084
v -0.043079 0.080385 0.101512
v -0.042677 0.078411 0.101795
v -0.042845 0.077579 0.101137
v -0.041902 0.075357 0.102053
v -0.031612 0.058523 0.101963
v -0.029387 0.056630 0.101423
v -0.028876 0.056270 0.101423
v -0.027676 0.055381 0.101231
v -0.026491 0.054481 0.100887
v -0.024512 0.053437 0.100709
v -0.022425 0.052444 0.100772
v -0.021992 0.052258 0.100422
v -0.020889 0.051790 0.100405
v -0.019890 0.051689 0.101416
v -0.019611 0.051359 0.100405
v -0.020110 0.051511 0.100405
v -0.041715 0.073935 0.101853
v -0.041264 0.072302 0.101424
v -0.040877 0.071295 0.101350
v -0.039636 0.068903 0.101721
v -0.039789 0.069584 0.101988
v -0.042662 0.077300 0.101455
v -0.042468 0.076374 0.101424
v -0.038872 0.067233 0.101355
v -0.034627 0.061615 0.101934
v -0.037810 0.065481 0.101423
v -0.037463 0.064973 0.101423
v -0.036956 0.064296 0.101423
v -0.038719 0.066667 0.100969
v -0.034112 0.061376 0.102014
v -0.021713 0.052302 0.099635
v -0.020889 0.052706 0.097084
v -0.020196 0.052464 0.097084
v -0.019756 0.052333 0.097084
v -0.042151 0.076377 0.097084
v -0.042781 0.076865 0.099886
v -0.042863 0.077300 0.100416
v -0.042774 0.076899 0.100762
v -0.042901 0.078411 0.101285
v -0.042222 0.075357 0.101424
v -0.032737 0.059436 0.101423
v -0.032234 0.058927 0.101423
v -0.031727 0.058425 0.101423
v -0.030658 0.057459 0.101121
v -0.026890 0.054774 0.100461
v -0.026431 0.054508 0.100158
v -0.029513 0.056533 0.100405
v -0.029006 0.056179 0.100405
v -0.028254 0.055670 0.100405
v -0.024016 0.053235 0.100384
v -0.022391 0.052461 0.100095
v -0.022827 0.052649 0.100422
v -0.041935 0.074299 0.101478
v -0.041831 0.073622 0.101173
v -0.041615 0.073299 0.101478
v -0.040750 0.070746 0.100962
v -0.040851 0.071180 0.101268
v -0.039744 0.068678 0.101042
v -0.035719 0.062541 0.101103
v -0.034727 0.061504 0.101423
v -0.033770 0.060423 0.101233
v -0.037523 0.064895 0.100406
v -0.037869 0.065404 0.100406
v -0.039516 0.068122 0.100406
v -0.039021 0.067206 0.100406
v -0.038715 0.066674 0.100406
v -0.038380 0.066165 0.100406
v -0.022585 0.053387 0.097084
v -0.021907 0.053100 0.097084
v -0.041984 0.075357 0.097084
v -0.042781 0.076865 0.100084
v -0.041823 0.074542 0.097084
v -0.041704 0.074030 0.097084
v -0.041663 0.073868 0.097084
v -0.042412 0.075357 0.100405
v -0.042681 0.076468 0.100416
v -0.033386 0.059806 0.100406
v -0.031809 0.058351 0.100406
v -0.032879 0.059304 0.100406
v -0.032323 0.058796 0.100406
v -0.031202 0.057839 0.100406
v -0.030691 0.057432 0.100406
v -0.027642 0.055408 0.099641
v -0.027042 0.055778 0.097084
v -0.026532 0.055468 0.097084
v -0.025965 0.055138 0.097084
v -0.025339 0.054785 0.097084
v -0.025119 0.054663 0.097084
v -0.024124 0.054138 0.097084
v -0.024404 0.053491 0.100030
v -0.029346 0.056647 0.099389
v -0.030132 0.057004 0.100360
v -0.030639 0.057479 0.099766
v -0.023319 0.053737 0.097084
v -0.042125 0.074339 0.100405
v -0.041864 0.073534 0.100405
v -0.041678 0.073026 0.100405
v -0.040750 0.070746 0.100634
v -0.040061 0.069244 0.100406
v -0.039766 0.068634 0.100406
v -0.041391 0.072302 0.100405
v -0.035722 0.062528 0.100406
v -0.035320 0.062016 0.100406
v -0.034813 0.061393 0.100406
v -0.034373 0.060887 0.100406
v -0.033866 0.060315 0.100406
v -0.037012 0.064215 0.100406
v -0.038704 0.066697 0.099891
v -0.038592 0.067118 0.097084
v -0.038354 0.066778 0.097084
v -0.037634 0.065754 0.097084
v -0.039822 0.069018 0.097084
v -0.039692 0.068779 0.097084
v -0.041507 0.073322 0.097084
v -0.032797 0.059392 0.099590
v -0.033792 0.060396 0.099595
v -0.031731 0.058425 0.099655
v -0.029021 0.057058 0.097084
v -0.028369 0.056617 0.097084
v -0.027855 0.056287 0.097084
v -0.029614 0.057472 0.097084
v -0.031258 0.058816 0.097084
v -0.030751 0.058395 0.097084
v -0.029912 0.057711 0.097084
v -0.041425 0.073056 0.097084
v -0.041190 0.072302 0.097084
v -0.040881 0.071386 0.097084
v -0.040698 0.070877 0.097084
v -0.040560 0.070345 0.100339
v -0.040418 0.070261 0.097084
v -0.035674 0.062582 0.099831
v -0.034742 0.061463 0.099726
v -0.039520 0.068496 0.097084
v -0.038846 0.067492 0.097084
v -0.036710 0.064606 0.097084
v -0.032875 0.060315 0.097084
v -0.032353 0.059806 0.097084
v -0.031843 0.059325 0.097084
v -0.033609 0.061056 0.097084
v -0.035353 0.062972 0.097084
v -0.034839 0.062390 0.097084
v -0.034381 0.061878 0.097084
v -0.033874 0.061335 0.097084
f 1 2 12
f 1 12 27
f 1 27 55
f 1 55 94
f 1 94 102
f 1 102 101
f 1 101 100
f 1 100 99
f 1 99 98
f 1 98 140
f 1 140 139
f 1 139 138
f 1 138 175
f 1 175 174
f 1 174 200
f 1 200 195
f 1 195 194
f 1 194 193
f 1 193 192
f 1 192 191
f 1 191 190
f 1 190 226
f 1 226 225
f 1 225 224
f 1 224 227
f 1 227 230
f 1 230 229
f 1 229 228
f 1 228 244
f 1 244 243
f 1 243 242
f 1 242 245
f 1 245 249
f 1 249 248
f 1 248 247
f 1 247 246
f 1 246 241
f 1 241 217
f 1 217 216
f 1 216 215
f 1 215 240
f 1 240 239
f 1 239 219
f 1 219 218
f 1 218 236
f 1 236 234
f 1 234 233
f 1 233 232
f 1 232 231
f 1 231 220
f 1 220 180
f 1 180 179
f 1 179 178
f 1 178 176
f 1 176 141
f 1 141 106
f 1 106 104
f 1 104 61
f 1 61 60
f 1 60 56
f 1 56 28
f 1 28 13
f 1 13 3
f 1 3 15
f 1 15 30
f 1 30 63
f 1 63 66
f 1 66 64
f 1 64 31
f 1 31 16
f 1 16 4
f 1 4 2
f 2 5 6
f 2 6 7
f 2 7 8
f 2 8 9
f 2 9 10
f 2 10 11
f 2 11 12
f 2 4 5
f 3 13 14
f 3 14 15
f 4 16 17
f 4 17 6
f 4 6 5
f 6 18 19
f 6 19 7
f 6 17 20
f 6 20 18
f 7 19 21
f 7 21 8
f 8 21 22
f 8 22 9
f 9 22 23
f 9 23 24
f 9 24 10
f 10 24 25
f 10 25 11
f 11 25 12
f 12 25 26
f 12 26 27
f 13 28 29
f 13 29 14
f 14 29 30
f 14 30 15
f 16 31 32
f 16 32 33
f 16 33 34
f 16 34 17
f 17 35 20
f 17 34 35
f 18 36 37
f 18 37 38
f 18 38 39
f 18 39 19
f 18 20 36
f 19 40 41
f 19 41 42
f 19 42 43
f 19 43 21
f 19 39 40
f 20 35 44
f 20 44 45
f 20 45 46
f 20 46 47
f 20 47 48
f 20 48 49
f 20 49 36
f 21 43 22
f 22 43 42
f 22 42 50
f 22 50 23
f 23 50 51
f 23 51 24
f 24 51 25
f 25 51 50
f 25 50 52
f 25 52 53
f 25 53 54
f 25 54 26
f 26 54 27
f 27 54 55
f 28 56 29
f 29 57 58
f 29 58 59
f 29 59 30
f 29 56 60
f 29 60 61
f 29 61 62
f 29 62 57
f 30 59 63
f 31 64 32
f 32 65 33
f 32 64 66
f 32 66 58
f 32 58 65
f 33 67 34
f 33 65 68
f 33 68 67
f 34 67 69
f 34 69 70
f 34 70 35
f 35 70 44
f 36 49 48
f 36 48 71
f 36 71 37
f 37 72 38
f 37 71 72
f 38 72 73
f 38 73 39
f 39 73 74
f 39 74 75
f 39 75 76
f 39 76 77
f 39 77 78
f 39 78 79
f 39 79 80
f 39 80 81
f 39 81 40
f 40 81 82
f 40 82 41
f 41 52 42
f 41 82 83
f 41 83 84
f 41 84 52
f 42 52 50
f 44 85 45
f 44 70 86
f 44 86 85
f 45 85 87
f 45 87 46
f 46 88 89
f 46 89 47
f 46 87 90
f 46 90 88
f 47 89 48
f 48 89 91
f 48 91 92
f 48 92 71
f 52 93 53
f 52 84 83
f 52 83 93
f 53 93 54
f 54 94 55
f 54 93 95
f 54 95 96
f 54 96 97
f 54 97 98
f 54 98 99
f 54 99 100
f 54 100 101
f 54 101 102
f 54 102 94
f 57 62 103
f 57 103 68
f 57 68 58
f 58 68 65
f 58 66 59
f 59 66 63
f 61 104 62
f 62 105 103
f 62 104 106
f 62 106 105
f 67 68 107
f 67 107 108
f 67 108 69
f 68 103 109
f 68 109 107
f 69 108 110
f 69 110 70
f 70 110 86
f 71 92 111
f 71 111 72
f 72 111 73
f 73 111 74
f 74 111 112
f 74 112 113
f 74 113 75
f 75 113 114
f 75 114 115
f 75 115 76
f 76 115 77
f 77 115 116
f 77 116 117
f 77 117 78
f 78 117 118
f 78 118 119
f 78 119 83
f 78 83 79
f 79 83 80
f 80 83 120
f 80 120 81
f 81 120 82
f 82 120 83
f 83 121 96
f 83 96 95
f 83 95 93
f 83 119 122
f 83 122 121
f 85 86 123
f 85 123 124
f 85 124 125
f 85 125 126
f 85 126 127
f 85 127 87
f 86 110 108
f 86 108 128
f 86 128 129
f 86 129 123
f 87 127 126
f 87 126 130
f 87 130 90
f 88 90 131
f 88 131 89
f 89 131 91
f 90 132 133
f 90 133 134
f 90 134 131
f 90 130 135
f 90 135 132
f 91 131 136
f 91 136 92
f 92 136 131
f 92 131 111
f 96 121 97
f 97 121 122
f 97 122 119
f 97 119 137
f 97 137 138
f 97 138 139
f 97 139 140
f 97 140 98
f 103 105 141
f 103 141 142
f 103 142 143
f 103 143 144
f 103 144 109
f 105 106 141
f 107 109 145
f 107 145 108
f 108 145 109
f 108 109 128
f 109 144 146
f 109 146 129
f 109 129 128
f 111 147 148
f 111 148 149
f 111 149 150
f 111 150 112
f 111 131 147
f 112 150 113
f 113 150 114
f 114 150 115
f 115 151 152
f 115 152 116
f 115 150 153
f 115 153 154
f 115 154 155
f 115 155 151
f 116 152 156
f 116 156 157
f 116 157 158
f 116 158 117
f 117 158 157
f 117 157 118
f 118 157 119
f 119 157 137
f 123 129 146
f 123 146 159
f 123 159 160
f 123 160 161
f 123 161 124
f 124 161 160
f 124 160 162
f 124 162 163
f 124 163 125
f 125 163 126
f 126 163 162
f 126 162 164
f 126 164 135
f 126 135 130
f 131 134 165
f 131 165 166
f 131 166 167
f 131 167 147
f 132 135 133
f 133 168 165
f 133 165 134
f 133 135 168
f 135 169 168
f 135 164 170
f 135 170 171
f 135 171 172
f 135 172 173
f 135 173 169
f 137 157 174
f 137 174 175
f 137 175 138
f 141 176 142
f 142 177 143
f 142 176 178
f 142 178 179
f 142 179 180
f 142 180 181
f 142 181 177
f 143 177 144
f 144 177 182
f 144 182 181
f 144 181 160
f 144 160 146
f 146 160 159
f 147 167 148
f 148 167 183
f 148 183 185
f 148 185 149
f 149 184 150
f 149 185 186
f 149 186 184
f 150 184 187
f 150 187 188
f 150 188 153
f 151 155 152
f 152 155 189
f 152 189 190
f 152 190 191
f 152 191 192
f 152 192 193
f 152 193 194
f 152 194 195
f 152 195 196
f 152 196 156
f 153 197 154
f 153 188 198
f 153 198 199
f 153 199 197
f 154 197 189
f 154 189 155
f 156 196 157
f 157 196 195
f 157 195 200
f 157 200 174
f 160 181 201
f 160 201 202
f 160 202 203
f 160 203 162
f 162 204 205
f 162 205 206
f 162 206 164
f 162 203 207
f 162 207 204
f 164 206 170
f 165 208 209
f 165 209 210
f 165 210 211
f 165 211 212
f 165 212 166
f 165 168 213
f 165 213 208
f 166 212 167
f 167 212 183
f 168 169 214
f 168 214 215
f 168 215 216
f 168 216 217
f 168 217 213
f 169 173 214
f 170 206 218
f 170 218 171
f 171 218 219
f 171 219 214
f 171 214 172
f 172 214 173
f 177 181 182
f 180 220 201
f 180 201 181
f 183 221 185
f 183 212 222
f 183 222 221
f 184 223 199
f 184 199 187
f 184 186 223
f 185 221 186
f 186 221 223
f 187 199 188
f 188 199 198
f 189 197 224
f 189 224 225
f 189 225 226
f 189 226 190
f 197 227 224
f 197 199 227
f 199 223 228
f 199 228 229
f 199 229 230
f 199 230 227
f 201 220 231
f 201 231 232
f 201 232 202
f 202 232 233
f 202 233 234
f 202 234 203
f 203 234 207
f 204 234 235
f 204 235 205
f 204 207 234
f 205 218 206
f 205 235 236
f 205 236 218
f 208 237 209
f 208 213 237
f 209 237 210
f 210 237 238
f 210 238 222
f 210 222 211
f 211 222 212
f 213 217 237
f 214 219 239
f 214 239 240
f 214 240 215
f 217 241 237
f 221 242 243
f 221 243 244
f 221 244 223
f 221 222 245
f 221 245 242
f 222 238 246
f 222 246 247
f 222 247 248
f 222 248 249
f 222 249 245
f 223 244 228
f 234 236 235
f 237 241 238
f 238 241 246
