v -0.035236 0.097671 0.097084
v -0.035141 0.098018 0.097084
v -0.034617 0.084182 0.097084
v -0.034122 0.084182 0.097194
v -0.034122 0.084529 0.097195
v -0.034122 0.085548 0.097195
v -0.033103 0.087584 0.097262
v -0.032085 0.092675 0.097254
v -0.035141 0.097766 0.097086
v -0.026993 0.100823 0.097169
v -0.025975 0.101842 0.097155
v -0.024957 0.102859 0.097134
v -0.023939 0.103878 0.097110
v -0.023405 0.104411 0.097084
v -0.030563 0.084182 0.097084
v -0.033103 0.084182 0.097223
v -0.021543 0.105256 0.097084
f 1 2 14
f 1 14 17
f 1 17 15
f 1 15 3
f 1 3 4
f 1 4 5
f 1 5 6
f 1 6 7
f 1 7 8
f 1 8 9
f 1 9 2
f 2 9 8
f 2 8 10
f 2 10 11
f 2 11 12
f 2 12 13
f 2 13 14
f 3 15 16
f 3 16 4
f 4 16 7
f 4 7 5
f 5 7 6
f 7 16 17
f 7 17 8
f 8 17 11
f 8 11 10
f 11 17 12
f 12 17 13
f 13 17 14
f 15 17 16
