v -0.043543 0.084185 0.100405
v -0.043474 0.084185 0.100059
v -0.043372 0.084185 0.101078
v -0.043277 0.084529 0.101424
v -0.043511 0.085550 0.100405
v -0.043310 0.084185 0.099389
v -0.043284 0.084185 0.101424
v -0.042872 0.085550 0.101984
v -0.043251 0.085550 0.101424
v -0.043208 0.086567 0.101424
v -0.043458 0.086567 0.100405
v -0.042583 0.087560 0.097084
v -0.042701 0.084519 0.097084
v -0.042711 0.084185 0.097084
v -0.043024 0.084185 0.101797
v -0.042886 0.084529 0.101990
v -0.042849 0.086567 0.101978
v -0.041284 0.093669 0.102066
v -0.042816 0.087406 0.101962
v -0.043057 0.087684 0.101525
v -0.043040 0.088604 0.101373
v -0.043386 0.087587 0.100405
v -0.042958 0.089624 0.099474
v -0.042484 0.088323 0.097084
v -0.039257 0.084185 0.097084
v -0.042886 0.084185 0.101991
v -0.041797 0.093311 0.101967
v -0.041840 0.092675 0.101995
v -0.041251 0.092675 0.102064
v -0.040474 0.093696 0.102075
v -0.022919 0.114062 0.102171
v -0.024959 0.113042 0.102153
v -0.040080 0.096753 0.102057
v -0.040971 0.094716 0.102052
v -0.042964 0.089624 0.101252
v -0.043277 0.088604 0.100405
v -0.042869 0.090641 0.099649
v -0.042330 0.089357 0.097084
v -0.041576 0.084185 0.101199
v -0.026804 0.107950 0.097084
v -0.009940 0.114216 0.097084
v -0.009940 0.115979 0.101424
v -0.042619 0.084185 0.101991
v -0.039863 0.097770 0.102013
v -0.040721 0.096215 0.101923
v -0.041645 0.093990 0.101810
v -0.041859 0.094488 0.101131
v -0.041961 0.093669 0.101452
v -0.042816 0.091314 0.100987
v -0.042879 0.090641 0.101103
v -0.009940 0.117117 0.102180
v -0.023923 0.114089 0.102118
v -0.010700 0.117117 0.102173
v -0.020883 0.115079 0.102149
v -0.024959 0.113744 0.102059
v -0.032639 0.108496 0.101956
v -0.034037 0.106850 0.101979
v -0.037136 0.102782 0.101989
v -0.037804 0.101835 0.101979
v -0.043142 0.089624 0.100405
v -0.042807 0.091297 0.099818
v -0.042129 0.090641 0.097084
v -0.042113 0.084185 0.101708
v -0.009940 0.116294 0.101910
v -0.009940 0.116404 0.102078
v -0.026949 0.108502 0.097084
v -0.009940 0.117960 0.097084
v -0.009940 0.116933 0.102155
v -0.039748 0.098359 0.101953
v -0.037702 0.102387 0.101944
v -0.040813 0.097439 0.101054
v -0.041731 0.095154 0.100405
v -0.041905 0.094639 0.100405
v -0.042215 0.093696 0.100405
v -0.042511 0.092675 0.100405
v -0.042715 0.091889 0.100405
v -0.042830 0.091381 0.100405
v -0.042968 0.090641 0.100405
v -0.009940 0.117672 0.102053
v -0.021811 0.115089 0.102095
v -0.022919 0.114765 0.102076
v -0.010700 0.117739 0.102028
v -0.011719 0.117692 0.101986
v -0.019867 0.115772 0.102031
v -0.023574 0.114638 0.101997
v -0.025521 0.113584 0.101961
v -0.030478 0.110379 0.101908
v -0.029797 0.110600 0.101970
v -0.034346 0.107161 0.101424
v -0.034666 0.106462 0.101952
v -0.030758 0.110653 0.101229
v -0.031827 0.109703 0.101252
v -0.032817 0.108683 0.101424
v -0.032958 0.108546 0.101424
v -0.034850 0.105910 0.101976
v -0.036767 0.103534 0.101971
v -0.041859 0.094499 0.099620
v -0.042320 0.092675 0.099389
v -0.041451 0.093696 0.097084
v -0.041672 0.092833 0.097084
v -0.041797 0.092321 0.097084
v -0.041948 0.091662 0.097084
v -0.027600 0.108542 0.097084
v -0.032462 0.108325 0.097084
v -0.010759 0.117923 0.097084
v -0.010700 0.118331 0.100406
v -0.009940 0.118361 0.100406
v -0.039553 0.099038 0.101783
v -0.039955 0.098730 0.101436
v -0.036501 0.104210 0.101831
v -0.037448 0.103063 0.101662
v -0.037859 0.102782 0.101364
v -0.038780 0.101484 0.101091
v -0.039810 0.099470 0.101103
v -0.040257 0.098791 0.100405
v -0.040629 0.098025 0.100405
v -0.040846 0.097516 0.100405
v -0.041139 0.096753 0.100405
v -0.041520 0.095733 0.100405
v -0.009940 0.118087 0.101501
v -0.021413 0.115598 0.101941
v -0.020883 0.115661 0.101982
v -0.010700 0.118110 0.101424
v -0.011719 0.118030 0.101424
v -0.012433 0.117652 0.101952
v -0.024252 0.114450 0.101733
v -0.022512 0.115631 0.101009
v -0.023923 0.114788 0.101406
v -0.025913 0.113731 0.101370
v -0.026551 0.113594 0.100994
v -0.027768 0.112707 0.101198
v -0.029623 0.111580 0.101045
v -0.034524 0.107331 0.100406
v -0.034843 0.106649 0.101424
v -0.035843 0.105635 0.101230
v -0.036777 0.104535 0.101152
v -0.030820 0.110710 0.100406
v -0.031330 0.110292 0.100406
v -0.031916 0.109783 0.100406
v -0.032422 0.109318 0.100406
v -0.041132 0.094716 0.097084
v -0.040803 0.097419 0.099706
v -0.041349 0.095733 0.099389
v -0.040665 0.096024 0.097084
v -0.033488 0.107318 0.097084
v -0.034379 0.107184 0.099389
v -0.033873 0.107679 0.099389
v -0.031412 0.109332 0.097084
v -0.030968 0.109723 0.097084
v -0.030741 0.109914 0.097084
v -0.030278 0.110289 0.097084
v -0.029771 0.110673 0.097084
v -0.028702 0.111456 0.097084
v -0.028008 0.111938 0.097084
v -0.027317 0.112410 0.097084
v -0.026880 0.112707 0.097084
v -0.025594 0.113504 0.097084
v -0.023285 0.114661 0.097084
v -0.021620 0.115471 0.097084
v -0.021137 0.115648 0.097084
v -0.018568 0.116501 0.097084
v -0.018045 0.116652 0.097084
v -0.016545 0.116999 0.097084
v -0.015791 0.117167 0.097084
v -0.013558 0.117642 0.097084
v -0.013101 0.117712 0.097084
v -0.012644 0.117776 0.097084
v -0.011719 0.117866 0.097084
v -0.011499 0.117883 0.097084
v -0.011719 0.118271 0.100406
v -0.037113 0.103812 0.101407
v -0.037711 0.103401 0.100984
v -0.038544 0.102069 0.100406
v -0.038827 0.101564 0.100406
v -0.039215 0.100825 0.100406
v -0.039846 0.099600 0.100406
v -0.039810 0.099486 0.099601
v -0.017831 0.116896 0.101358
v -0.018847 0.116769 0.101220
v -0.019535 0.116668 0.101052
v -0.021811 0.115715 0.101379
v -0.012736 0.118160 0.100406
v -0.014775 0.117742 0.101179
v -0.012759 0.117856 0.101510
v -0.024567 0.114628 0.101054
v -0.021900 0.115899 0.100406
v -0.022561 0.115658 0.100406
v -0.023071 0.115427 0.100406
v -0.023939 0.115022 0.100406
v -0.025159 0.114413 0.100406
v -0.025975 0.113965 0.100406
v -0.026587 0.113614 0.100406
v -0.027903 0.112791 0.100406
v -0.028416 0.112466 0.100406
v -0.029024 0.112052 0.100406
v -0.029656 0.111610 0.100406
v -0.030169 0.111222 0.100406
v -0.034850 0.106669 0.099389
v -0.034985 0.106819 0.100406
v -0.035498 0.106241 0.100406
v -0.036425 0.105097 0.100406
v -0.029613 0.111577 0.099715
v -0.030699 0.110623 0.099583
v -0.039609 0.098493 0.097084
v -0.039807 0.098065 0.097084
v -0.040366 0.096753 0.097084
v -0.033866 0.106940 0.097084
v -0.034498 0.106271 0.097084
v -0.028284 0.112390 0.099388
v -0.026548 0.113594 0.099779
v -0.024604 0.114644 0.099687
v -0.022515 0.115631 0.099759
v -0.019505 0.116658 0.099657
v -0.017831 0.117096 0.099388
v -0.016811 0.117344 0.099388
v -0.015571 0.117685 0.099685
v -0.013755 0.118023 0.100406
v -0.036820 0.104591 0.100406
v -0.037333 0.103912 0.100406
v -0.037711 0.103401 0.100406
v -0.038063 0.102855 0.100406
v -0.038787 0.101477 0.099688
v -0.037692 0.103377 0.099863
v -0.015525 0.117682 0.101039
v -0.017831 0.117214 0.100406
v -0.018847 0.116929 0.100406
v -0.019601 0.116692 0.100406
v -0.020110 0.116521 0.100406
v -0.020883 0.116253 0.100406
v -0.024656 0.114674 0.100406
v -0.036767 0.104508 0.099642
v -0.038669 0.100259 0.097084
v -0.034929 0.105762 0.097084
v -0.015683 0.117709 0.100406
v -0.014775 0.117879 0.100406
v -0.016811 0.117458 0.100406
v -0.016189 0.117602 0.100406
v -0.037593 0.103217 0.099186
v -0.037886 0.101651 0.097084
v -0.038014 0.101430 0.097084
v -0.038359 0.100825 0.097084
v -0.036363 0.103983 0.097084
v -0.035853 0.104638 0.097084
v -0.036688 0.103534 0.097084
v -0.036843 0.103320 0.097084
v -0.037248 0.102678 0.097084
f 1 2 6
f 1 6 14
f 1 14 25
f 1 25 39
f 1 39 63
f 1 63 43
f 1 43 26
f 1 26 15
f 1 15 7
f 1 7 3
f 1 3 4
f 1 4 5
f 1 5 2
f 2 5 6
f 3 7 4
f 4 7 8
f 4 8 9
f 4 9 5
f 5 9 10
f 5 10 11
f 5 11 12
f 5 12 6
f 6 12 13
f 6 13 14
f 7 15 16
f 7 16 8
f 8 17 9
f 8 16 18
f 8 18 17
f 9 17 10
f 10 17 19
f 10 19 20
f 10 20 21
f 10 21 22
f 10 22 11
f 11 22 12
f 12 22 23
f 12 23 24
f 12 24 38
f 12 38 62
f 12 62 102
f 12 102 101
f 12 101 100
f 12 100 99
f 12 99 141
f 12 141 144
f 12 144 206
f 12 206 205
f 12 205 204
f 12 204 232
f 12 232 241
f 12 241 240
f 12 240 239
f 12 239 246
f 12 246 245
f 12 245 244
f 12 244 242
f 12 242 243
f 12 243 233
f 12 233 208
f 12 208 207
f 12 207 145
f 12 145 104
f 12 104 103
f 12 103 66
f 12 66 40
f 12 40 25
f 12 25 14
f 12 14 13
f 15 26 16
f 16 26 18
f 17 18 19
f 18 27 28
f 18 28 19
f 18 26 29
f 18 29 30
f 18 30 31
f 18 31 32
f 18 32 33
f 18 33 34
f 18 34 27
f 19 35 21
f 19 21 20
f 19 28 27
f 19 27 35
f 21 35 22
f 22 35 36
f 22 36 23
f 23 36 37
f 23 37 24
f 24 37 38
f 25 40 41
f 25 41 42
f 25 42 39
f 26 43 30
f 26 30 29
f 27 34 44
f 27 44 45
f 27 45 46
f 27 46 47
f 27 47 48
f 27 48 49
f 27 49 50
f 27 50 35
f 30 43 51
f 30 51 31
f 31 52 32
f 31 51 53
f 31 53 54
f 31 54 52
f 32 52 55
f 32 55 56
f 32 56 57
f 32 57 58
f 32 58 33
f 33 58 59
f 33 59 44
f 33 44 34
f 35 50 36
f 36 50 49
f 36 49 60
f 36 60 37
f 37 61 62
f 37 62 38
f 37 60 61
f 39 42 64
f 39 64 65
f 39 65 63
f 40 66 67
f 40 67 41
f 41 67 107
f 41 107 120
f 41 120 79
f 41 79 51
f 41 51 68
f 41 68 65
f 41 65 64
f 41 64 42
f 43 63 65
f 43 65 68
f 43 68 51
f 44 69 45
f 44 59 70
f 44 70 69
f 45 69 71
f 45 71 46
f 46 71 47
f 47 72 73
f 47 73 74
f 47 74 49
f 47 49 48
f 47 71 72
f 49 75 76
f 49 76 77
f 49 77 78
f 49 78 60
f 49 74 75
f 51 79 53
f 52 54 80
f 52 80 81
f 52 81 55
f 53 79 82
f 53 82 54
f 54 82 83
f 54 83 84
f 54 84 80
f 55 81 85
f 55 85 86
f 55 86 87
f 55 87 88
f 55 88 56
f 56 89 90
f 56 90 57
f 56 88 87
f 56 87 91
f 56 91 92
f 56 92 93
f 56 93 94
f 56 94 89
f 57 90 95
f 57 95 58
f 58 95 96
f 58 96 70
f 58 70 59
f 60 78 61
f 61 77 76
f 61 76 75
f 61 75 97
f 61 97 98
f 61 98 99
f 61 99 100
f 61 100 101
f 61 101 102
f 61 102 62
f 61 78 77
f 66 103 67
f 67 103 104
f 67 104 105
f 67 105 106
f 67 106 107
f 69 108 109
f 69 109 71
f 69 70 108
f 70 96 90
f 70 90 110
f 70 110 111
f 70 111 112
f 70 112 113
f 70 113 108
f 71 109 114
f 71 114 115
f 71 115 116
f 71 116 117
f 71 117 118
f 71 118 119
f 71 119 72
f 72 119 97
f 72 97 73
f 73 97 74
f 74 97 75
f 79 120 82
f 80 121 81
f 80 84 122
f 80 122 121
f 81 121 85
f 82 120 123
f 82 123 83
f 83 123 124
f 83 124 125
f 83 125 84
f 84 125 122
f 85 126 86
f 85 121 127
f 85 127 128
f 85 128 126
f 86 126 129
f 86 129 130
f 86 130 131
f 86 131 87
f 87 131 132
f 87 132 91
f 89 94 133
f 89 133 134
f 89 134 90
f 90 134 135
f 90 135 136
f 90 136 110
f 90 96 95
f 91 137 138
f 91 138 139
f 91 139 92
f 91 132 137
f 92 139 140
f 92 140 133
f 92 133 94
f 92 94 93
f 97 141 99
f 97 99 98
f 97 119 142
f 97 142 143
f 97 143 144
f 97 144 141
f 104 145 146
f 104 146 147
f 104 147 148
f 104 148 149
f 104 149 150
f 104 150 151
f 104 151 152
f 104 152 153
f 104 153 154
f 104 154 155
f 104 155 156
f 104 156 157
f 104 157 158
f 104 158 159
f 104 159 160
f 104 160 161
f 104 161 162
f 104 162 163
f 104 163 164
f 104 164 165
f 104 165 166
f 104 166 167
f 104 167 168
f 104 168 169
f 104 169 105
f 105 169 106
f 106 169 170
f 106 170 123
f 106 123 107
f 107 123 120
f 108 113 114
f 108 114 109
f 110 136 171
f 110 171 111
f 111 171 172
f 111 172 112
f 112 172 113
f 113 173 174
f 113 174 175
f 113 175 176
f 113 176 114
f 113 172 173
f 114 176 115
f 115 176 177
f 115 177 116
f 116 177 142
f 116 142 117
f 117 142 118
f 118 142 119
f 121 122 125
f 121 125 178
f 121 178 179
f 121 179 180
f 121 180 181
f 121 181 127
f 123 170 124
f 124 170 182
f 124 182 183
f 124 183 184
f 124 184 125
f 125 184 183
f 125 183 178
f 126 128 185
f 126 185 130
f 126 130 129
f 127 181 180
f 127 180 186
f 127 186 187
f 127 187 188
f 127 188 189
f 127 189 185
f 127 185 128
f 130 185 190
f 130 190 191
f 130 191 192
f 130 192 193
f 130 193 194
f 130 194 132
f 130 132 131
f 132 194 195
f 132 195 196
f 132 196 197
f 132 197 137
f 133 147 146
f 133 146 198
f 133 198 199
f 133 199 135
f 133 135 134
f 133 140 147
f 135 199 200
f 135 200 136
f 136 200 201
f 136 201 172
f 136 172 171
f 137 197 202
f 137 202 138
f 138 202 203
f 138 203 139
f 139 149 148
f 139 148 140
f 139 203 149
f 140 148 147
f 142 204 205
f 142 205 206
f 142 206 144
f 142 144 143
f 142 177 204
f 145 207 146
f 146 207 208
f 146 208 198
f 149 203 202
f 149 202 150
f 150 202 151
f 151 202 152
f 152 202 153
f 153 202 154
f 154 202 155
f 155 202 156
f 156 202 209
f 156 209 210
f 156 210 157
f 157 210 211
f 157 211 158
f 158 211 159
f 159 212 160
f 159 211 212
f 160 212 213
f 160 213 161
f 161 213 214
f 161 214 162
f 162 214 215
f 162 215 216
f 162 216 163
f 163 216 164
f 164 216 165
f 165 216 166
f 166 216 167
f 167 217 182
f 167 182 170
f 167 170 168
f 167 216 217
f 168 170 169
f 172 201 218
f 172 218 219
f 172 219 220
f 172 220 221
f 172 221 173
f 173 222 174
f 173 221 223
f 173 223 222
f 174 222 175
f 175 177 176
f 175 222 177
f 177 222 204
f 178 183 224
f 178 224 179
f 179 224 180
f 180 224 225
f 180 225 226
f 180 226 227
f 180 227 228
f 180 228 229
f 180 229 186
f 182 217 224
f 182 224 183
f 185 230 190
f 185 189 230
f 186 212 187
f 186 229 212
f 187 212 188
f 188 212 189
f 189 212 211
f 189 211 230
f 190 230 211
f 190 211 210
f 190 210 191
f 191 210 192
f 192 210 193
f 193 210 194
f 194 202 195
f 194 210 202
f 195 202 196
f 196 202 197
f 198 208 231
f 198 231 200
f 198 200 199
f 200 231 201
f 201 231 223
f 201 223 218
f 202 210 209
f 204 222 232
f 208 233 231
f 212 229 228
f 212 228 213
f 213 228 227
f 213 227 226
f 213 226 214
f 214 226 225
f 214 225 216
f 214 216 215
f 216 234 235
f 216 235 217
f 216 225 236
f 216 236 237
f 216 237 234
f 217 235 224
f 218 223 219
f 219 223 220
f 220 223 221
f 222 223 238
f 222 238 239
f 222 239 240
f 222 240 241
f 222 241 232
f 223 231 242
f 223 242 238
f 224 235 234
f 224 234 237
f 224 237 236
f 224 236 225
f 231 233 243
f 231 243 242
f 238 242 244
f 238 244 245
f 238 245 246
f 238 246 239
