v 0.011018 0.060125 0.097084
v 0.011018 0.059354 0.100373
v 0.011018 0.057044 0.097084
v 0.001741 0.055855 0.097084
v 0.001528 0.055853 0.097084
v 0.000508 0.055750 0.097084
v 0.010717 0.060083 0.097084
v 0.011018 0.059294 0.100522
v 0.010189 0.059995 0.097084
v -0.009938 0.053645 0.097084
v 0.011018 0.056359 0.098605
v 0.009623 0.056081 0.097084
v 0.001741 0.052295 0.097084
v 0.011018 0.059035 0.100941
v -0.009938 0.051819 0.101447
v -0.009938 0.051721 0.101607
v -0.009938 0.050382 0.097084
v 0.009375 0.055361 0.098370
v 0.011018 0.056189 0.099387
v 0.010692 0.055961 0.099387
v 0.008197 0.054454 0.098816
v 0.008669 0.055447 0.097084
v -0.004282 0.050347 0.097084
v 0.008308 0.055242 0.097084
v 0.007436 0.054787 0.097084
v 0.006265 0.054207 0.097084
v 0.004402 0.053300 0.097084
v 0.004193 0.053205 0.097084
v 0.003563 0.052942 0.097084
v 0.002176 0.052399 0.097084
v 0.011018 0.058860 0.101137
v -0.009938 0.051488 0.101982
v -0.009938 0.049765 0.100405
v -0.009737 0.050357 0.097084
v 0.011018 0.056214 0.099783
v 0.010031 0.055599 0.100406
v 0.010081 0.055561 0.099387
v 0.009572 0.055249 0.099387
v 0.008718 0.054741 0.099387
v 0.008210 0.054446 0.099387
v 0.005551 0.053253 0.100406
v 0.004581 0.052853 0.099387
v 0.003840 0.052531 0.099387
v -0.004620 0.050266 0.097084
v 0.001099 0.051399 0.099799
v -0.002811 0.050334 0.099655
v 0.003331 0.052327 0.099387
v 0.002544 0.052025 0.099387
v 0.011018 0.058517 0.101268
v -0.009938 0.050916 0.102008
v -0.009675 0.050916 0.102024
v -0.009675 0.051499 0.101991
v -0.009938 0.049972 0.101162
v -0.009677 0.050350 0.097084
v -0.008658 0.050275 0.097084
v -0.009675 0.049750 0.100405
v -0.009675 0.050027 0.101424
v 0.011018 0.056280 0.100284
v 0.009354 0.055379 0.101033
v 0.009523 0.055285 0.100406
v 0.010758 0.056139 0.100438
v 0.008179 0.054462 0.099998
v 0.006060 0.053486 0.100406
v 0.005364 0.053342 0.101083
v 0.001093 0.051397 0.100957
v 0.002544 0.051951 0.100406
v 0.001645 0.051572 0.100405
v -0.004583 0.049975 0.100405
v -0.005603 0.049825 0.100405
v -0.005603 0.050169 0.097084
v 0.001136 0.051384 0.100405
v 0.000508 0.051205 0.100405
v -0.002760 0.050320 0.100405
v -0.003566 0.050147 0.100405
v 0.009672 0.057026 0.101504
v 0.011018 0.057230 0.101246
v -0.009938 0.050713 0.101998
v -0.009675 0.050366 0.101965
v -0.008600 0.050838 0.101998
v -0.003566 0.051358 0.101956
v -0.003566 0.051488 0.101956
v -0.008658 0.051511 0.101999
v -0.009938 0.050055 0.101446
v -0.008658 0.049879 0.099388
v -0.008658 0.049710 0.100405
v -0.007638 0.049701 0.100405
v -0.006620 0.050090 0.101372
v -0.008902 0.050379 0.101953
v -0.009938 0.050370 0.101961
v 0.011018 0.056440 0.100683
v 0.011018 0.056528 0.100855
v 0.010462 0.056281 0.101106
v 0.009687 0.055967 0.101255
v 0.006618 0.054169 0.101207
v 0.008039 0.054548 0.100677
v 0.008573 0.054757 0.100365
v 0.005662 0.053889 0.101307
v 0.004581 0.053199 0.101194
v 0.001471 0.051901 0.101210
v 0.000508 0.051319 0.101075
v -0.002907 0.050363 0.100995
v -0.003566 0.050310 0.101095
v -0.004583 0.050230 0.101221
v -0.005603 0.050143 0.101321
v -0.006620 0.049735 0.100405
v 0.008655 0.056007 0.101468
v 0.010758 0.056963 0.101244
v -0.002928 0.051462 0.101945
v -0.002928 0.051397 0.101945
v 0.011018 0.057076 0.101178
v -0.008223 0.050447 0.101925
v 0.000508 0.051935 0.101463
v -0.000511 0.051192 0.101235
v -0.001529 0.051062 0.101345
v -0.003566 0.050849 0.101604
f 1 2 8
f 1 8 14
f 1 14 31
f 1 31 49
f 1 49 76
f 1 76 110
f 1 110 91
f 1 91 90
f 1 90 58
f 1 58 35
f 1 35 19
f 1 19 11
f 1 11 3
f 1 3 13
f 1 13 4
f 1 4 5
f 1 5 6
f 1 6 7
f 1 7 2
f 2 7 9
f 2 9 10
f 2 10 8
f 3 11 12
f 3 12 13
f 4 13 23
f 4 23 44
f 4 44 70
f 4 70 55
f 4 55 54
f 4 54 34
f 4 34 17
f 4 17 10
f 4 10 6
f 4 6 5
f 6 10 9
f 6 9 7
f 8 10 15
f 8 15 16
f 8 16 14
f 10 17 33
f 10 33 53
f 10 53 83
f 10 83 89
f 10 89 77
f 10 77 50
f 10 50 32
f 10 32 16
f 10 16 15
f 11 18 12
f 11 19 20
f 11 20 21
f 11 21 18
f 12 18 22
f 12 22 13
f 13 22 24
f 13 24 25
f 13 25 26
f 13 26 27
f 13 27 28
f 13 28 29
f 13 29 30
f 13 30 23
f 14 16 32
f 14 32 31
f 17 34 33
f 18 21 22
f 19 35 20
f 20 35 36
f 20 36 37
f 20 37 21
f 21 25 24
f 21 24 22
f 21 37 38
f 21 38 39
f 21 39 40
f 21 40 41
f 21 41 42
f 21 42 43
f 21 43 29
f 21 29 28
f 21 28 27
f 21 27 26
f 21 26 25
f 23 30 45
f 23 45 46
f 23 46 44
f 29 43 47
f 29 47 30
f 30 47 48
f 30 48 45
f 31 32 49
f 32 50 51
f 32 51 52
f 32 52 49
f 33 34 54
f 33 54 55
f 33 55 56
f 33 56 57
f 33 57 53
f 35 58 36
f 36 59 60
f 36 60 37
f 36 58 61
f 36 61 59
f 37 60 38
f 38 60 39
f 39 60 62
f 39 62 40
f 40 62 63
f 40 63 41
f 41 63 64
f 41 64 65
f 41 65 66
f 41 66 43
f 41 43 42
f 43 66 67
f 43 67 45
f 43 45 47
f 44 46 68
f 44 68 69
f 44 69 70
f 45 67 71
f 45 71 72
f 45 72 46
f 45 48 47
f 46 72 73
f 46 73 74
f 46 74 68
f 49 75 76
f 49 52 75
f 50 77 51
f 51 78 79
f 51 79 80
f 51 80 81
f 51 81 82
f 51 82 52
f 51 77 78
f 52 82 75
f 53 57 83
f 55 70 84
f 55 84 56
f 56 85 57
f 56 84 85
f 57 85 86
f 57 86 87
f 57 87 88
f 57 88 78
f 57 78 89
f 57 89 83
f 58 90 61
f 59 61 90
f 59 90 91
f 59 91 92
f 59 92 93
f 59 93 94
f 59 94 64
f 59 64 95
f 59 95 60
f 60 95 96
f 60 96 62
f 62 95 63
f 62 96 95
f 63 95 64
f 64 94 97
f 64 97 98
f 64 98 99
f 64 99 65
f 65 99 100
f 65 100 101
f 65 101 73
f 65 73 72
f 65 72 71
f 65 71 67
f 65 67 66
f 68 74 101
f 68 101 69
f 69 101 102
f 69 102 103
f 69 103 104
f 69 104 105
f 69 105 70
f 70 105 86
f 70 86 85
f 70 85 84
f 73 101 74
f 75 106 93
f 75 93 107
f 75 107 76
f 75 82 81
f 75 81 108
f 75 108 109
f 75 109 106
f 76 107 92
f 76 92 110
f 77 89 78
f 78 88 79
f 79 88 80
f 80 109 108
f 80 108 81
f 80 88 109
f 86 105 87
f 87 105 104
f 87 104 88
f 88 104 111
f 88 111 109
f 91 110 92
f 92 107 93
f 93 106 97
f 93 97 94
f 97 106 109
f 97 109 112
f 97 112 98
f 98 112 99
f 99 112 100
f 100 112 109
f 100 109 113
f 100 113 101
f 101 113 102
f 102 113 114
f 102 114 115
f 102 115 103
f 103 115 104
f 104 115 111
f 109 111 115
f 109 115 114
f 109 114 113
