v -0.017434 0.000820 -0.000499
v -0.018956 0.000820 -0.000494
v -0.020644 0.000820 0.018410
v 0.004642 0.000816 0.018412
v 0.004642 0.000816 -0.000183
v -0.009058 0.000816 -0.000505
v -0.009635 0.000816 -0.000509
v -0.010579 0.000816 -0.000514
v -0.011156 0.000816 -0.000516
v -0.012048 0.000816 -0.000514
v -0.035499 -0.017634 -0.000608
v -0.021819 0.000820 -0.000466
v -0.048863 0.000820 0.018409
v 0.004642 -0.019420 0.018412
v -0.035027 -0.021335 0.018412
v 0.004642 -0.002843 -0.000277
v -0.008208 0.000725 -0.000488
v -0.008874 -0.000894 -0.000516
v -0.008114 -0.000126 -0.000505
v -0.015730 -0.028282 -0.000713
v -0.036264 -0.018394 -0.000595
v -0.036264 -0.017634 -0.000595
v -0.040833 -0.008498 -0.000395
v -0.027888 -0.033610 -0.000711
v -0.028659 -0.033610 -0.000705
v -0.028659 -0.034370 -0.000707
v -0.024851 0.000820 -0.000426
v -0.048900 0.000820 0.017615
v -0.044048 -0.009258 0.017615
v -0.043634 -0.009969 0.018409
v -0.041672 -0.013944 0.018410
v -0.035588 -0.025994 0.018412
v -0.035887 -0.025234 0.018412
v -0.036112 -0.024474 0.018412
v -0.036112 -0.023680 0.018412
v 0.004642 -0.021548 0.016759
v 0.002188 -0.022962 0.018412
v 0.004642 -0.003934 -0.000275
v 0.002539 -0.019910 -0.000514
v 0.001778 -0.019910 -0.000559
v -0.014969 -0.028282 -0.000705
v -0.026372 -0.033610 -0.000707
v -0.027133 -0.033610 -0.000711
v -0.037020 -0.017634 -0.000559
v -0.040833 -0.009258 -0.000402
v -0.042349 -0.005458 -0.000316
v -0.028659 -0.035130 -0.000670
v -0.029414 -0.033610 -0.000664
v -0.037020 -0.018394 -0.000533
v -0.027888 -0.034370 -0.000705
v -0.042349 -0.004698 -0.000301
v -0.042837 -0.003740 -0.000269
v -0.044630 0.000820 -0.000097
v -0.048921 0.000820 0.016853
v -0.042905 -0.011462 0.018409
v -0.044798 -0.007738 0.016853
v -0.045008 -0.007339 0.016093
v -0.031019 -0.035886 0.016095
v -0.030993 -0.035886 0.016855
v -0.035252 -0.026758 0.018412
v -0.042490 -0.012302 0.018409
v -0.031355 -0.034826 0.018113
v -0.030647 -0.036114 0.018339
v -0.034492 -0.028324 0.018412
v -0.034943 -0.027412 0.018412
v 0.004642 -0.021882 0.016233
v 0.001658 -0.023536 0.018412
v 0.004642 -0.019146 -0.000005
v 0.003588 -0.020602 -0.000294
v 0.002539 -0.020674 -0.000484
v 0.001778 -0.020674 -0.000550
v 0.001018 -0.020674 -0.000565
v -0.015730 -0.029042 -0.000687
v -0.025612 -0.033610 -0.000700
v -0.043414 -0.004762 -0.000269
v -0.028659 -0.035886 -0.000522
v -0.029414 -0.035130 -0.000537
v -0.029414 -0.034370 -0.000625
v -0.027133 -0.034370 -0.000696
v -0.027888 -0.035130 -0.000651
v -0.037670 -0.018394 -0.000367
v -0.039747 -0.014130 -0.000299
v -0.043240 -0.006222 -0.000219
v -0.045443 0.000725 -0.000080
v -0.046251 0.000820 -0.000015
v -0.048942 0.000820 0.003159
v -0.045192 -0.006959 0.015331
v -0.037329 -0.023159 0.002395
v -0.037056 -0.023722 0.002395
v -0.037056 -0.023722 0.003159
v -0.031093 -0.035886 0.005441
v -0.030615 -0.036753 0.006201
v -0.030573 -0.036700 0.016095
v -0.030558 -0.036669 0.016855
v -0.030516 -0.036608 0.017617
v -0.030909 -0.035886 0.017617
v -0.031208 -0.035293 0.017617
v -0.030327 -0.036616 0.018412
v 0.004642 -0.022228 0.015331
v 0.002219 -0.023376 0.017731
v 0.000934 -0.024030 0.018412
v 0.004642 -0.019902 0.000030
v 0.004642 -0.020959 0.000270
v 0.003074 -0.021191 -0.000308
v 0.001889 -0.021662 -0.000378
v 0.001018 -0.021430 -0.000518
v -0.014969 -0.029042 -0.000655
v -0.026372 -0.034370 -0.000666
v -0.046162 -0.000126 0.000017
v -0.027133 -0.035130 -0.000593
v -0.027788 -0.036103 -0.000393
v -0.028769 -0.036559 -0.000187
v -0.029509 -0.035951 -0.000275
v -0.030096 -0.035236 -0.000196
v -0.030427 -0.034374 -0.000269
v -0.037455 -0.019351 -0.000294
v -0.038158 -0.017999 -0.000264
v -0.043875 -0.006222 0.000002
v -0.042244 -0.008604 -0.000230
v -0.043802 -0.005389 -0.000147
v -0.047012 0.000771 0.000171
v -0.047772 0.000820 0.000506
v -0.045506 -0.006222 0.002399
v -0.048889 0.000820 0.002399
v -0.036978 -0.023722 0.001637
v -0.030993 -0.035886 0.001637
v -0.031171 -0.035666 0.002395
v -0.031082 -0.035886 0.003159
v -0.031088 -0.035886 0.003919
v -0.030736 -0.036540 0.003919
v -0.030610 -0.036753 0.005441
v -0.030096 -0.037387 0.007723
v -0.030075 -0.037315 0.016095
v -0.030054 -0.037319 0.016855
v -0.030012 -0.037270 0.017617
v -0.029918 -0.037175 0.018412
v 0.004642 -0.022319 0.014569
v 0.002376 -0.023475 0.016855
v 0.001049 -0.024106 0.017617
v 0.000257 -0.024410 0.018412
v 0.004642 -0.021765 0.000899
v 0.003819 -0.021909 0.000407
v 0.004071 -0.021453 0.000240
v 0.003315 -0.021438 -0.000123
v 0.002623 -0.021571 -0.000288
v -0.008764 -0.026986 -0.000380
v -0.017251 -0.030566 -0.000563
v -0.025612 -0.034370 -0.000604
v -0.026372 -0.035130 -0.000501
v -0.027888 -0.036738 -0.000001
v -0.024384 -0.034788 -0.000290
v -0.026965 -0.036160 -0.000204
v -0.029414 -0.036658 0.000107
v -0.028659 -0.037186 0.000330
v -0.029991 -0.036479 0.000326
v -0.030159 -0.035856 0.000120
v -0.030752 -0.035130 0.000302
v -0.039128 -0.017634 0.000317
v -0.044284 -0.007058 0.000472
v -0.043739 -0.007738 0.000315
v -0.043938 -0.007020 0.000231
v -0.048381 0.000771 0.001079
v -0.048737 0.000820 0.001728
v -0.044463 -0.006222 0.000336
v -0.048113 -0.000612 0.001865
v -0.036721 -0.023931 0.001127
v -0.030621 -0.036388 0.001094
v -0.045081 -0.006723 0.001425
v -0.030558 -0.036669 0.001637
v -0.030589 -0.036715 0.002395
v -0.030600 -0.036730 0.003159
v -0.029551 -0.037832 0.007723
v -0.030086 -0.037315 0.002395
v -0.029441 -0.037790 0.016855
v -0.029577 -0.037650 0.017617
v -0.029498 -0.037547 0.018412
v 0.004642 -0.022342 0.013809
v 0.001778 -0.023798 0.016855
v -0.000362 -0.024733 0.018412
v -0.001264 -0.025185 0.018412
v -0.025570 -0.037247 0.018412
v 0.004642 -0.022145 0.001575
v 0.003263 -0.022574 0.000935
v 0.002859 -0.022540 0.000536
v 0.003305 -0.022057 0.000268
v -0.000335 -0.023239 -0.000222
v -0.017251 -0.031144 -0.000370
v -0.016454 -0.030612 -0.000421
v -0.024856 -0.034370 -0.000513
v -0.027211 -0.036616 0.000130
v -0.027673 -0.037099 0.000422
v -0.008874 -0.027640 -0.000069
v -0.026372 -0.036418 0.000317
v -0.008874 -0.028054 0.000311
v -0.010170 -0.028753 0.000384
v -0.029399 -0.037137 0.000541
v -0.027888 -0.037456 0.000873
v -0.028659 -0.037547 0.000873
v -0.029949 -0.037178 0.001051
v -0.030222 -0.036692 0.000820
v -0.030500 -0.036160 0.000586
v -0.030621 -0.035658 0.000423
v -0.032126 -0.032576 0.000437
v -0.036632 -0.023311 0.000508
v -0.038945 -0.018428 0.000495
v -0.048139 0.000079 0.001157
v -0.048019 -0.000430 0.001358
v -0.030054 -0.037273 0.001637
v -0.029257 -0.037897 0.003919
v -0.028659 -0.038003 0.016855
v -0.029194 -0.037866 0.017617
v -0.029624 -0.037699 0.003159
v -0.029246 -0.037893 0.003159
v -0.028874 -0.037900 0.018412
v 0.004642 -0.022354 0.013049
v 0.004642 -0.022369 0.006201
v 0.004642 -0.022369 0.006966
v 0.004642 -0.022365 0.011527
v -0.026393 -0.037623 0.018412
v -0.027133 -0.037532 0.002395
v -0.010453 -0.029578 0.002399
v -0.002318 -0.025660 0.002399
v 0.004642 -0.022319 0.002923
v 0.004642 -0.022338 0.003921
v 0.004642 -0.022285 0.002297
v 0.003651 -0.022654 0.001614
v -0.002974 -0.025709 0.001082
v -0.003530 -0.025629 0.000493
v -0.000708 -0.024182 0.000394
v -0.001264 -0.024307 0.000270
v 0.000257 -0.023087 -0.000116
v -0.027064 -0.037061 0.000777
v -0.004306 -0.025812 0.000285
v -0.029262 -0.037756 0.001721
v -0.028030 -0.037767 0.001697
v -0.028659 -0.037805 0.001534
v -0.026671 -0.037076 0.001165
v -0.027133 -0.037437 0.001637
v -0.029399 -0.037783 0.002395
v -0.028659 -0.037988 0.003919
v -0.028659 -0.037988 0.017617
v -0.027872 -0.037984 0.018412
v -0.028659 -0.037923 0.002395
v -0.028659 -0.037973 0.003159
v -0.027002 -0.037824 0.018412
v -0.027767 -0.037828 0.003159
v -0.027851 -0.037805 0.002395
v -0.005439 -0.027138 0.002000
v -0.002486 -0.025660 0.001708
v -0.010637 -0.029490 0.001410
f 1 2 12
f 1 12 27
f 1 27 53
f 1 53 85
f 1 85 122
f 1 122 163
f 1 163 124
f 1 124 86
f 1 86 54
f 1 54 28
f 1 28 13
f 1 13 3
f 1 3 4
f 1 4 5
f 1 5 6
f 1 6 7
f 1 7 8
f 1 8 9
f 1 9 10
f 1 10 11
f 1 11 2
f 2 11 12
f 3 13 4
f 4 14 36
f 4 36 66
f 4 66 99
f 4 99 137
f 4 137 177
f 4 177 215
f 4 215 218
f 4 218 217
f 4 217 216
f 4 216 224
f 4 224 223
f 4 223 225
f 4 225 182
f 4 182 141
f 4 141 103
f 4 103 102
f 4 102 68
f 4 68 38
f 4 38 16
f 4 16 5
f 4 13 15
f 4 15 35
f 4 35 34
f 4 34 33
f 4 33 32
f 4 32 60
f 4 60 65
f 4 65 64
f 4 64 98
f 4 98 136
f 4 136 176
f 4 176 214
f 4 214 242
f 4 242 245
f 4 245 219
f 4 219 181
f 4 181 180
f 4 180 179
f 4 179 140
f 4 140 101
f 4 101 67
f 4 67 37
f 4 37 14
f 5 16 17
f 5 17 6
f 6 18 7
f 6 17 19
f 6 19 18
f 7 18 8
f 8 20 9
f 8 18 20
f 9 20 11
f 9 11 10
f 11 21 22
f 11 22 23
f 11 23 12
f 11 20 24
f 11 24 25
f 11 25 26
f 11 26 21
f 12 23 27
f 13 28 29
f 13 29 30
f 13 30 31
f 13 31 32
f 13 32 33
f 13 33 34
f 13 34 35
f 13 35 15
f 14 37 36
f 16 38 39
f 16 39 40
f 16 40 19
f 16 19 17
f 18 19 40
f 18 40 20
f 20 40 41
f 20 41 74
f 20 74 42
f 20 42 43
f 20 43 24
f 21 44 45
f 21 45 22
f 21 26 44
f 22 45 23
f 23 45 46
f 23 46 27
f 24 43 26
f 24 26 25
f 26 47 48
f 26 48 49
f 26 49 44
f 26 43 50
f 26 50 47
f 27 46 51
f 27 51 52
f 27 52 53
f 28 54 29
f 29 55 30
f 29 54 56
f 29 56 57
f 29 57 58
f 29 58 59
f 29 59 55
f 30 55 31
f 31 60 32
f 31 55 61
f 31 61 62
f 31 62 63
f 31 63 64
f 31 64 65
f 31 65 60
f 36 37 67
f 36 67 66
f 38 68 69
f 38 69 39
f 39 70 71
f 39 71 40
f 39 69 70
f 40 71 72
f 40 72 41
f 41 73 74
f 41 72 71
f 41 71 73
f 42 74 50
f 42 50 43
f 44 49 75
f 44 75 45
f 45 75 46
f 46 52 51
f 46 75 52
f 47 76 77
f 47 77 78
f 47 78 48
f 47 50 79
f 47 79 80
f 47 80 76
f 48 78 49
f 49 81 82
f 49 82 83
f 49 83 75
f 49 78 77
f 49 77 81
f 50 74 79
f 52 75 84
f 52 84 53
f 53 84 85
f 54 86 87
f 54 87 57
f 54 57 56
f 55 59 61
f 57 87 88
f 57 88 89
f 57 89 90
f 57 90 91
f 57 91 58
f 58 91 92
f 58 92 93
f 58 93 59
f 59 93 94
f 59 94 95
f 59 95 96
f 59 96 97
f 59 97 61
f 61 97 62
f 62 97 96
f 62 96 63
f 63 96 95
f 63 95 98
f 63 98 64
f 66 67 100
f 66 100 99
f 67 101 100
f 68 102 69
f 69 102 103
f 69 103 104
f 69 104 70
f 70 105 106
f 70 106 71
f 70 104 105
f 71 106 107
f 71 107 73
f 73 107 108
f 73 108 74
f 74 108 79
f 75 83 109
f 75 109 85
f 75 85 84
f 76 80 110
f 76 110 111
f 76 111 112
f 76 112 113
f 76 113 77
f 77 113 114
f 77 114 115
f 77 115 116
f 77 116 81
f 79 108 80
f 80 108 110
f 81 116 117
f 81 117 82
f 82 117 118
f 82 118 119
f 82 119 83
f 83 120 109
f 83 119 120
f 85 109 121
f 85 121 122
f 86 123 88
f 86 88 87
f 86 124 123
f 88 125 89
f 88 123 125
f 89 125 126
f 89 126 127
f 89 127 128
f 89 128 129
f 89 129 91
f 89 91 90
f 91 129 130
f 91 130 92
f 92 131 132
f 92 132 93
f 92 130 131
f 93 132 133
f 93 133 134
f 93 134 94
f 94 134 135
f 94 135 95
f 95 135 136
f 95 136 98
f 99 100 138
f 99 138 137
f 100 101 138
f 101 139 138
f 101 140 139
f 103 141 142
f 103 142 143
f 103 143 144
f 103 144 104
f 104 144 145
f 104 145 105
f 105 145 146
f 105 146 147
f 105 147 107
f 105 107 106
f 107 147 148
f 107 148 108
f 108 148 110
f 109 120 121
f 110 148 149
f 110 149 111
f 111 150 112
f 111 149 151
f 111 151 152
f 111 152 150
f 112 153 113
f 112 150 154
f 112 154 153
f 113 153 155
f 113 155 156
f 113 156 114
f 114 156 157
f 114 157 115
f 115 157 158
f 115 158 117
f 115 117 116
f 117 158 159
f 117 159 160
f 117 160 161
f 117 161 118
f 118 161 122
f 118 122 121
f 118 121 120
f 118 120 119
f 122 162 163
f 122 161 164
f 122 164 159
f 122 159 162
f 123 124 125
f 124 163 165
f 124 165 125
f 125 166 167
f 125 167 126
f 125 165 168
f 125 168 166
f 126 167 169
f 126 169 170
f 126 170 127
f 127 170 128
f 128 170 130
f 128 130 129
f 130 170 171
f 130 171 131
f 131 171 132
f 132 172 133
f 132 171 173
f 132 173 172
f 133 172 174
f 133 174 134
f 134 174 175
f 134 175 135
f 135 175 176
f 135 176 136
f 137 138 178
f 137 178 177
f 138 139 178
f 139 140 179
f 139 179 180
f 139 180 181
f 139 181 178
f 141 182 183
f 141 183 142
f 142 183 184
f 142 184 185
f 142 185 144
f 142 144 143
f 144 185 145
f 145 186 146
f 145 185 186
f 146 187 188
f 146 188 147
f 146 186 187
f 147 188 189
f 147 189 148
f 148 189 149
f 149 189 187
f 149 187 151
f 150 152 190
f 150 190 191
f 150 191 154
f 151 192 152
f 151 187 186
f 151 186 192
f 152 193 190
f 152 192 194
f 152 194 195
f 152 195 193
f 153 154 196
f 153 196 155
f 154 191 197
f 154 197 198
f 154 198 196
f 155 196 199
f 155 199 200
f 155 200 201
f 155 201 156
f 156 201 202
f 156 202 157
f 157 203 158
f 157 202 203
f 158 203 204
f 158 204 205
f 158 205 159
f 159 206 162
f 159 164 160
f 159 205 206
f 160 164 161
f 162 206 163
f 163 206 207
f 163 207 165
f 165 207 168
f 166 168 205
f 166 205 204
f 166 204 201
f 166 201 167
f 167 201 200
f 167 200 199
f 167 199 169
f 168 207 206
f 168 206 205
f 169 199 208
f 169 208 170
f 170 208 173
f 170 173 171
f 172 209 210
f 172 210 211
f 172 211 174
f 172 173 212
f 172 212 213
f 172 213 209
f 173 208 212
f 174 211 175
f 175 211 214
f 175 214 176
f 177 178 215
f 178 216 217
f 178 217 218
f 178 218 215
f 178 181 216
f 181 219 220
f 181 220 221
f 181 221 222
f 181 222 223
f 181 223 224
f 181 224 216
f 182 225 226
f 182 226 183
f 183 226 227
f 183 227 184
f 184 227 228
f 184 228 229
f 184 229 185
f 185 229 230
f 185 230 192
f 185 192 231
f 185 231 186
f 186 231 192
f 187 189 188
f 190 193 191
f 191 193 232
f 191 232 197
f 192 230 229
f 192 229 233
f 192 233 194
f 193 195 232
f 194 233 229
f 194 229 195
f 195 229 228
f 195 228 227
f 195 227 232
f 196 234 199
f 196 198 234
f 197 235 236
f 197 236 198
f 197 232 237
f 197 237 238
f 197 238 235
f 198 236 234
f 199 234 208
f 201 204 203
f 201 203 202
f 208 234 239
f 208 239 212
f 209 213 240
f 209 240 210
f 210 241 211
f 210 240 242
f 210 242 241
f 211 241 214
f 212 239 213
f 213 239 234
f 213 234 243
f 213 243 244
f 213 244 240
f 214 241 242
f 219 245 246
f 219 246 220
f 220 246 247
f 220 247 238
f 220 238 248
f 220 248 221
f 221 248 222
f 222 248 225
f 222 225 223
f 225 248 249
f 225 249 226
f 226 249 227
f 227 249 250
f 227 250 237
f 227 237 232
f 234 236 243
f 235 238 247
f 235 247 243
f 235 243 236
f 237 250 238
f 238 250 249
f 238 249 248
f 240 244 246
f 240 246 242
f 242 246 245
f 243 247 244
f 244 247 246
