v 0.003718 0.002360 0.018412
v 0.011887 0.002360 0.018412
v 0.003718 0.002360 0.019962
v 0.003718 0.018749 0.018412
v 0.011940 0.002360 0.019126
v 0.012288 0.005222 0.018412
v 0.011878 0.002360 0.019962
v 0.003718 0.019067 0.019962
v 0.004775 0.018878 0.019962
v 0.005562 0.018312 0.018412
v 0.012345 0.005966 0.018412
v 0.012094 0.005966 0.019962
v 0.005591 0.018616 0.019962
v 0.005630 0.018291 0.018412
v 0.012194 0.006756 0.018412
v 0.012104 0.006727 0.019962
v 0.012107 0.006215 0.019962
v 0.006315 0.018070 0.019962
v 0.006302 0.017942 0.018412
v 0.012191 0.006768 0.018412
v 0.011925 0.007417 0.019962
v 0.011954 0.007307 0.019962
v 0.006354 0.018027 0.019962
v 0.006917 0.017363 0.018412
v 0.006876 0.017406 0.018412
v 0.006606 0.017676 0.018412
v 0.006344 0.017910 0.018412
v 0.012073 0.007122 0.018412
v 0.011628 0.008202 0.019962
v 0.006878 0.017383 0.019962
v 0.006959 0.017305 0.018412
v 0.011932 0.007471 0.018412
v 0.011591 0.008249 0.018412
v 0.011396 0.008728 0.019962
v 0.007505 0.016322 0.019962
v 0.007333 0.016740 0.018412
v 0.011353 0.008743 0.018412
v 0.011373 0.008778 0.019962
v 0.007521 0.016292 0.019962
v 0.007556 0.016359 0.018412
v 0.011168 0.009124 0.018412
v 0.010866 0.009742 0.018412
v 0.010120 0.011263 0.018412
v 0.009848 0.011819 0.018412
v 0.009373 0.012786 0.018412
v 0.009093 0.013353 0.018412
v 0.011183 0.009157 0.019962
v 0.007748 0.015860 0.019962
v 0.007815 0.015860 0.018412
v 0.008902 0.013734 0.018412
v 0.008610 0.014308 0.018412
v 0.009862 0.011752 0.019962
v 0.008100 0.015178 0.019962
v 0.007831 0.015829 0.018412
v 0.008338 0.014842 0.018412
v 0.009644 0.012178 0.019962
f 1 2 5
f 1 5 7
f 1 7 3
f 1 3 8
f 1 8 4
f 1 4 10
f 1 10 14
f 1 14 19
f 1 19 27
f 1 27 26
f 1 26 25
f 1 25 24
f 1 24 31
f 1 31 36
f 1 36 40
f 1 40 49
f 1 49 54
f 1 54 55
f 1 55 51
f 1 51 50
f 1 50 46
f 1 46 45
f 1 45 44
f 1 44 43
f 1 43 42
f 1 42 41
f 1 41 37
f 1 37 33
f 1 33 32
f 1 32 28
f 1 28 20
f 1 20 15
f 1 15 11
f 1 11 6
f 1 6 2
f 2 6 5
f 3 7 12
f 3 12 17
f 3 17 16
f 3 16 22
f 3 22 21
f 3 21 29
f 3 29 34
f 3 34 38
f 3 38 47
f 3 47 52
f 3 52 56
f 3 56 53
f 3 53 48
f 3 48 39
f 3 39 35
f 3 35 30
f 3 30 23
f 3 23 18
f 3 18 13
f 3 13 9
f 3 9 8
f 4 8 9
f 4 9 10
f 5 6 7
f 6 11 7
f 7 11 12
f 9 13 14
f 9 14 10
f 11 15 16
f 11 16 17
f 11 17 12
f 13 18 19
f 13 19 14
f 15 20 21
f 15 21 22
f 15 22 16
f 18 23 24
f 18 24 25
f 18 25 26
f 18 26 27
f 18 27 19
f 20 28 21
f 21 28 29
f 23 30 24
f 24 30 31
f 28 32 29
f 29 32 33
f 29 33 34
f 30 35 36
f 30 36 31
f 33 37 34
f 34 37 38
f 35 39 40
f 35 40 36
f 37 41 38
f 38 41 42
f 38 42 43
f 38 43 44
f 38 44 45
f 38 45 46
f 38 46 47
f 39 48 40
f 40 48 49
f 46 50 47
f 47 50 51
f 47 51 52
f 48 53 54
f 48 54 49
f 51 55 52
f 52 55 56
f 53 56 54
f 54 56 55
