v -0.004319 0.037262 0.016853
v -0.004319 0.037201 0.009242
v -0.005078 0.037108 0.016853
v -0.005350 0.036973 0.018410
v -0.004332 0.037172 0.018410
v -0.004319 0.037219 0.017617
v -0.003559 0.037087 0.016853
v -0.003559 0.037119 0.016093
v -0.003559 0.037190 0.008485
v -0.004319 0.037133 0.004683
v -0.005038 0.036923 0.003921
v -0.005323 0.036848 0.005120
v -0.022289 0.028979 0.003157
v -0.039670 0.020799 0.003157
v -0.039283 0.020981 0.003921
v -0.052471 0.014657 0.005445
v -0.052437 0.014643 0.006965
v -0.025613 0.027252 0.017617
v -0.025634 0.027192 0.018410
v -0.045775 0.017407 0.018412
v -0.013043 0.017407 0.018412
v 0.009093 0.013334 0.018410
v -0.002209 0.035863 0.018401
v -0.003287 0.036801 0.018369
v -0.003233 0.036855 0.017617
v -0.002853 0.036726 0.016853
v -0.002826 0.036744 0.016093
v -0.002480 0.036734 0.007727
v -0.003233 0.037033 0.003921
v -0.003559 0.037097 0.003157
v -0.004319 0.037112 0.003921
v -0.005024 0.036776 0.002074
v -0.005519 0.036698 0.003157
v -0.004319 0.037076 0.003157
v -0.004319 0.037019 0.002395
v -0.006564 0.036195 0.002395
v -0.022567 0.028822 0.002395
v -0.039826 0.020642 0.002395
v -0.044283 0.018541 0.002709
v -0.052267 0.014725 0.003161
v -0.052491 0.014657 0.003921
v -0.053007 0.014307 0.006203
v -0.052525 0.014079 0.018321
v -0.051949 0.014464 0.017611
v -0.046447 0.017093 0.018326
v -0.051765 0.014486 0.018403
v -0.053882 0.012060 0.018412
v 0.009459 0.012588 0.018410
v -0.028001 0.000820 0.018412
v 0.011196 0.009192 0.017611
v 0.008666 0.014339 0.017611
v -0.001809 0.035424 0.017617
v -0.001741 0.035078 0.018394
v -0.002283 0.036166 0.017617
v -0.002236 0.036220 0.016093
v -0.002738 0.036808 0.003157
v -0.002161 0.036352 0.007727
v -0.001741 0.035870 0.004683
v -0.002121 0.036316 0.003921
v -0.002121 0.036313 0.003157
v -0.002772 0.036787 0.002395
v -0.003559 0.037055 0.002395
v -0.006116 0.036263 0.001523
v -0.005838 0.036523 0.002395
v -0.004278 0.036759 0.001289
v -0.022907 0.028490 0.001659
v -0.039052 0.020860 0.001891
v -0.045741 0.017750 0.002158
v -0.052152 0.014561 0.002004
v -0.053258 0.013990 0.002791
v -0.053217 0.014165 0.003921
v -0.053224 0.014175 0.004683
v -0.053217 0.014168 0.005445
v -0.053414 0.013990 0.006203
v -0.052898 0.013844 0.017611
v -0.053265 0.013344 0.018371
v -0.053590 0.013048 0.017611
v -0.053807 0.012820 0.016853
v -0.053977 0.012060 0.017611
v -0.053875 0.011297 0.018412
v 0.011461 0.008500 0.018407
v 0.014656 0.000820 0.018377
v -0.052044 0.007095 0.018412
v -0.049031 0.001123 0.018410
v -0.048889 0.000824 0.017611
v -0.048923 0.000824 0.003941
v -0.028001 0.000820 -0.000082
v 0.012037 0.007466 0.017611
v 0.012139 0.007294 0.016851
v 0.010633 0.010373 0.016851
v 0.007180 0.017407 0.016853
v -0.002026 0.035945 0.015332
v -0.002073 0.035920 0.016853
v -0.001693 0.035342 0.015975
v -0.001741 0.035856 0.005441
v -0.002141 0.036288 0.002395
v -0.001551 0.035489 0.004683
v -0.001646 0.035688 0.003921
v -0.001646 0.035681 0.003157
v -0.001659 0.035653 0.002395
v -0.002589 0.036156 0.001016
v -0.003165 0.036791 0.001534
v -0.005465 0.036188 0.000783
v -0.025722 0.026946 0.001177
v -0.003559 0.036566 0.000835
v -0.004319 0.036191 0.000301
v -0.040599 0.020115 0.001881
v -0.052512 0.013951 0.001181
v -0.053339 0.013491 0.001722
v -0.053753 0.013576 0.003921
v -0.053746 0.013576 0.004683
v -0.053550 0.013366 0.015327
v -0.053699 0.013084 0.016091
v -0.053896 0.012820 0.015327
v -0.054052 0.012060 0.016853
v -0.053957 0.011297 0.017611
v -0.053746 0.010537 0.017611
v -0.053570 0.010252 0.018412
v 0.012037 0.007220 0.018349
v 0.014975 0.000820 0.017611
v -0.053773 0.010537 0.016853
v -0.051786 0.006528 0.016851
v -0.050531 0.004048 0.018410
v -0.049581 0.002165 0.018410
v -0.049059 0.001113 0.016851
v -0.048923 0.000824 0.003162
v -0.025980 0.000820 -0.000349
v -0.048875 0.000824 0.002400
v -0.046243 0.000824 -0.000013
v 0.015097 0.000820 0.016851
v 0.015131 0.000820 0.016091
v 0.012879 0.005746 0.016091
v 0.012892 0.005761 0.015327
v 0.012248 0.007095 0.015327
v 0.011393 0.008857 0.015327
v 0.010938 0.009774 0.016091
v 0.007194 0.017407 0.016093
v -0.001680 0.035385 0.001468
v 0.012288 0.007095 0.003162
v 0.013041 0.005497 0.002400
v -0.002650 0.035303 0.000144
v -0.003430 0.035952 0.000152
v -0.001795 0.034961 0.000846
v -0.005838 0.035103 -0.000166
v -0.008355 0.034597 0.000396
v -0.022187 0.028415 0.000863
v -0.025091 0.026831 0.000570
v -0.004319 0.035221 -0.000332
v -0.005099 0.035378 -0.000155
v -0.053210 0.012734 0.001119
v -0.027940 0.025387 0.000488
v -0.032784 0.023057 0.000525
v -0.051440 0.013776 0.000520
v -0.052098 0.013416 0.000591
v -0.052498 0.012674 0.000486
v -0.053563 0.012060 0.001416
v -0.053896 0.012820 0.002400
v -0.054147 0.012310 0.003753
v -0.054085 0.012060 0.016091
v -0.054024 0.011297 0.016853
v -0.054031 0.011297 0.016091
v -0.053773 0.010537 0.016091
v -0.052729 0.008440 0.003161
v -0.024928 0.000820 -0.000420
v -0.045490 0.000824 -0.000071
v -0.048563 0.000906 0.001312
v -0.051962 0.007080 0.002158
v -0.050381 0.003981 0.001919
v -0.047851 0.001216 0.000447
v -0.046956 0.001113 0.000120
v -0.050727 0.009014 0.000234
v -0.050727 0.009774 0.000167
v -0.050727 0.010537 0.000133
v 0.015158 0.000820 0.014567
v 0.013197 0.005204 0.003162
v 0.012824 0.005993 0.003162
v 0.013489 0.004266 0.001810
v 0.012885 0.005279 0.001399
v 0.007560 0.016084 0.001142
v 0.015056 0.000820 0.003162
v 0.015016 0.000820 0.002400
v -0.003247 0.035000 -0.000349
v -0.001653 0.034126 0.000503
v -0.002392 0.033784 -0.000280
v 0.006692 0.016936 0.000531
v -0.006707 0.034543 -0.000287
v -0.021482 0.028447 0.000465
v -0.026129 0.026200 0.000437
v -0.004319 0.034126 -0.000586
v -0.005078 0.034126 -0.000567
v -0.005838 0.034422 -0.000427
v -0.053027 0.012060 0.000815
v -0.029209 0.024695 0.000432
v -0.033795 0.022419 0.000426
v -0.017364 0.029032 -0.000403
v -0.050727 0.013576 0.000310
v -0.051487 0.012820 0.000251
v -0.051487 0.012060 0.000182
v -0.052356 0.011657 0.000409
v -0.053502 0.010904 0.001569
v -0.053916 0.011297 0.002400
v -0.053990 0.012060 0.002400
v -0.053007 0.010608 0.001052
v -0.053990 0.011297 0.003161
v -0.054085 0.011536 0.004683
v -0.053753 0.010537 0.004683
v -0.052579 0.008340 0.002174
v -0.053475 0.009970 0.003921
v -0.053590 0.010255 0.003161
v -0.023497 0.000820 -0.000442
v -0.044629 0.000824 -0.000093
v -0.016496 0.028037 -0.000664
v -0.050727 0.011297 0.000122
v -0.049968 0.010537 0.000094
v -0.048889 0.001634 0.001173
v -0.051786 0.007291 0.001422
v -0.051155 0.006246 0.001205
v -0.052749 0.009774 0.001136
v -0.052451 0.010837 0.000587
v -0.051487 0.010537 0.000271
v -0.051487 0.011297 0.000204
v 0.015083 0.000820 0.004212
v 0.014805 0.000820 0.001530
v 0.014385 0.000820 0.000794
v 0.012146 0.006553 0.001129
v -0.002785 0.033366 -0.000453
v -0.003559 0.034126 -0.000534
v 0.007438 0.015388 0.000538
v 0.011990 0.005853 0.000557
v 0.013808 0.000820 0.000221
v 0.012716 0.000849 -0.000263
v -0.016496 0.028797 -0.000580
v -0.003559 0.033366 -0.000580
v -0.004319 0.033366 -0.000607
v -0.005078 0.033366 -0.000612
v -0.005838 0.033366 -0.000597
v -0.015736 0.028797 -0.000623
v -0.049968 0.013576 0.000221
v -0.050727 0.012820 0.000170
v -0.050727 0.012060 0.000124
v -0.053529 0.010316 0.002300
v -0.022554 0.000820 -0.000455
v -0.017249 0.028037 -0.000623
v -0.015736 0.028037 -0.000668
v -0.018015 0.000820 -0.000496
v -0.018768 0.000820 -0.000491
v 0.011664 0.000820 -0.000326
v -0.010112 0.000820 -0.000511
v -0.011917 0.000820 -0.000513
f 1 2 3
f 1 3 4
f 1 4 5
f 1 5 6
f 1 6 7
f 1 7 8
f 1 8 9
f 1 9 2
f 2 10 3
f 2 9 10
f 3 10 11
f 3 11 12
f 3 12 13
f 3 13 14
f 3 14 15
f 3 15 4
f 4 15 16
f 4 16 17
f 4 17 18
f 4 18 19
f 4 19 20
f 4 20 5
f 5 20 21
f 5 21 22
f 5 22 23
f 5 23 24
f 5 24 7
f 5 7 6
f 7 24 25
f 7 25 26
f 7 26 8
f 8 26 27
f 8 27 28
f 8 28 9
f 9 28 29
f 9 29 30
f 9 30 10
f 10 30 31
f 10 31 11
f 11 32 33
f 11 33 12
f 11 31 34
f 11 34 35
f 11 35 32
f 12 33 36
f 12 36 13
f 13 37 14
f 13 36 37
f 14 38 39
f 14 39 40
f 14 40 41
f 14 41 15
f 14 37 38
f 15 41 16
f 16 41 42
f 16 42 17
f 17 42 43
f 17 43 44
f 17 44 18
f 18 44 45
f 18 45 19
f 19 45 20
f 20 45 46
f 20 46 47
f 20 47 80
f 20 80 118
f 20 118 83
f 20 83 49
f 20 49 21
f 21 48 22
f 21 49 48
f 22 48 50
f 22 50 51
f 22 51 52
f 22 52 53
f 22 53 23
f 23 53 52
f 23 52 54
f 23 54 24
f 24 26 25
f 24 54 26
f 26 54 55
f 26 55 27
f 27 55 28
f 28 56 29
f 28 55 57
f 28 57 58
f 28 58 59
f 28 59 60
f 28 60 56
f 29 56 61
f 29 61 62
f 29 62 30
f 30 62 34
f 30 34 31
f 32 63 64
f 32 64 33
f 32 35 65
f 32 65 63
f 33 64 36
f 34 62 35
f 35 62 65
f 36 64 63
f 36 63 37
f 37 66 38
f 37 63 66
f 38 66 67
f 38 67 68
f 38 68 39
f 39 68 40
f 40 69 70
f 40 70 71
f 40 71 41
f 40 68 69
f 41 71 72
f 41 72 42
f 42 72 73
f 42 73 74
f 42 74 75
f 42 75 43
f 43 75 76
f 43 76 46
f 43 46 44
f 44 46 45
f 46 76 47
f 47 76 77
f 47 77 78
f 47 78 79
f 47 79 80
f 48 81 50
f 48 49 81
f 49 82 81
f 49 83 84
f 49 84 85
f 49 85 86
f 49 86 126
f 49 126 87
f 49 87 127
f 49 127 164
f 49 164 210
f 49 210 242
f 49 242 246
f 49 246 245
f 49 245 249
f 49 249 248
f 49 248 247
f 49 247 230
f 49 230 224
f 49 224 223
f 49 223 181
f 49 181 180
f 49 180 222
f 49 222 174
f 49 174 131
f 49 131 130
f 49 130 120
f 49 120 82
f 50 81 88
f 50 88 89
f 50 89 90
f 50 90 91
f 50 91 51
f 51 91 52
f 52 92 93
f 52 93 54
f 52 91 94
f 52 94 92
f 54 93 55
f 55 93 92
f 55 92 95
f 55 95 57
f 56 60 96
f 56 96 61
f 57 95 58
f 58 60 59
f 58 95 97
f 58 97 98
f 58 98 99
f 58 99 60
f 60 99 100
f 60 100 96
f 61 96 101
f 61 101 102
f 61 102 62
f 62 102 65
f 63 65 103
f 63 103 104
f 63 104 66
f 65 102 105
f 65 105 106
f 65 106 103
f 66 104 67
f 67 107 68
f 67 104 107
f 68 107 69
f 69 108 70
f 69 107 108
f 70 108 109
f 70 109 110
f 70 110 71
f 71 110 72
f 72 110 74
f 72 74 73
f 74 110 111
f 74 111 112
f 74 112 75
f 75 112 76
f 76 112 77
f 77 112 113
f 77 113 78
f 78 114 115
f 78 115 79
f 78 113 114
f 79 116 80
f 79 115 116
f 80 116 117
f 80 117 118
f 81 82 119
f 81 119 88
f 82 120 119
f 83 118 117
f 83 117 121
f 83 121 122
f 83 122 123
f 83 123 124
f 83 124 84
f 84 124 125
f 84 125 85
f 85 125 86
f 86 125 122
f 86 122 126
f 87 126 128
f 87 128 129
f 87 129 127
f 88 119 130
f 88 130 131
f 88 131 132
f 88 132 89
f 89 132 133
f 89 133 134
f 89 134 135
f 89 135 136
f 89 136 90
f 90 137 91
f 90 136 137
f 91 137 95
f 91 95 94
f 92 94 95
f 95 137 97
f 96 100 138
f 96 138 101
f 97 137 136
f 97 136 135
f 97 135 98
f 98 135 139
f 98 139 99
f 99 139 140
f 99 140 100
f 100 140 138
f 101 141 142
f 101 142 105
f 101 105 102
f 101 138 143
f 101 143 141
f 103 144 145
f 103 145 146
f 103 146 104
f 103 106 144
f 104 146 147
f 104 147 108
f 104 108 107
f 105 142 106
f 106 142 148
f 106 148 149
f 106 149 144
f 108 150 109
f 108 147 151
f 108 151 152
f 108 152 153
f 108 153 154
f 108 154 155
f 108 155 150
f 109 150 156
f 109 156 157
f 109 157 110
f 110 157 158
f 110 158 114
f 110 114 111
f 111 114 112
f 112 114 113
f 114 158 159
f 114 159 115
f 115 159 160
f 115 160 116
f 116 160 117
f 117 160 121
f 119 120 130
f 121 160 161
f 121 161 162
f 121 162 122
f 122 125 123
f 122 162 163
f 122 163 126
f 123 125 124
f 126 163 128
f 127 129 165
f 127 165 164
f 128 166 129
f 128 163 167
f 128 167 168
f 128 168 166
f 129 166 169
f 129 169 170
f 129 170 171
f 129 171 172
f 129 172 173
f 129 173 165
f 131 174 133
f 131 133 132
f 133 174 175
f 133 175 176
f 133 176 134
f 134 176 135
f 135 176 139
f 138 140 177
f 138 177 178
f 138 178 179
f 138 179 143
f 139 176 140
f 140 176 175
f 140 175 180
f 140 180 181
f 140 181 177
f 141 182 142
f 141 143 183
f 141 183 184
f 141 184 182
f 142 182 148
f 143 179 185
f 143 185 183
f 144 149 186
f 144 186 145
f 145 186 187
f 145 187 147
f 145 147 146
f 147 187 188
f 147 188 151
f 148 189 190
f 148 190 191
f 148 191 186
f 148 186 149
f 148 182 189
f 150 155 192
f 150 192 156
f 151 193 152
f 151 188 193
f 152 193 194
f 152 194 153
f 153 194 195
f 153 195 196
f 153 196 197
f 153 197 154
f 154 197 155
f 155 197 198
f 155 198 199
f 155 199 192
f 156 200 201
f 156 201 202
f 156 202 157
f 156 192 203
f 156 203 200
f 157 202 158
f 158 202 204
f 158 204 205
f 158 205 161
f 158 161 159
f 159 161 160
f 161 205 206
f 161 206 162
f 162 206 163
f 163 207 167
f 163 206 208
f 163 208 209
f 163 209 207
f 164 165 211
f 164 211 212
f 164 212 210
f 165 173 213
f 165 213 214
f 165 214 211
f 166 168 215
f 166 215 169
f 167 207 168
f 168 207 216
f 168 216 215
f 169 215 217
f 169 217 218
f 169 218 219
f 169 219 199
f 169 199 170
f 170 199 171
f 171 220 221
f 171 221 172
f 171 199 220
f 172 221 173
f 173 221 198
f 173 198 213
f 174 222 175
f 175 222 180
f 177 181 223
f 177 223 178
f 178 223 224
f 178 224 225
f 178 225 179
f 179 225 185
f 182 184 226
f 182 226 227
f 182 227 189
f 183 185 184
f 184 185 228
f 184 228 229
f 184 229 230
f 184 230 231
f 184 231 226
f 185 225 228
f 186 191 232
f 186 232 195
f 186 195 194
f 186 194 193
f 186 193 188
f 186 188 187
f 189 227 233
f 189 233 234
f 189 234 235
f 189 235 236
f 189 236 190
f 190 236 212
f 190 212 237
f 190 237 232
f 190 232 191
f 192 199 219
f 192 219 203
f 195 232 196
f 196 238 197
f 196 232 238
f 197 238 239
f 197 239 198
f 198 221 199
f 198 239 240
f 198 240 213
f 199 221 220
f 200 241 201
f 200 203 218
f 200 218 216
f 200 216 207
f 200 207 241
f 201 204 202
f 201 241 204
f 203 219 218
f 204 241 209
f 204 209 206
f 204 206 205
f 206 209 208
f 207 209 241
f 210 212 242
f 211 214 212
f 212 243 237
f 212 236 235
f 212 235 244
f 212 244 245
f 212 245 246
f 212 246 242
f 212 214 240
f 212 240 239
f 212 239 243
f 213 240 214
f 215 216 217
f 216 218 217
f 224 230 229
f 224 229 225
f 225 229 228
f 226 231 227
f 227 231 233
f 230 247 231
f 231 247 233
f 232 237 243
f 232 243 239
f 232 239 238
f 233 247 234
f 234 248 244
f 234 244 235
f 234 247 248
f 244 248 249
f 244 249 245
