v 0.011881 0.002360 0.019962
v 0.003721 0.002360 0.019962
v 0.013961 0.001832 0.019962
v 0.011943 0.002360 0.019125
v 0.003721 0.002360 0.018411
v 0.003721 -0.020083 0.019962
v 0.014807 0.001421 0.019962
v 0.015067 0.000820 0.003098
v 0.015023 0.000820 0.002384
v 0.011889 0.002360 0.018411
v 0.004645 0.000820 -0.000188
v 0.004645 -0.002594 -0.000273
v 0.003721 -0.019749 0.018572
v 0.003721 -0.019919 0.019157
v 0.004645 -0.022149 0.001572
v 0.004645 -0.022289 0.002298
v 0.004645 -0.022323 0.002921
v 0.004645 -0.022352 0.004679
v 0.004645 -0.022374 0.006204
v 0.004645 -0.022376 0.006966
v 0.004645 -0.022367 0.011526
v 0.004645 -0.022357 0.013049
v 0.004645 -0.022347 0.013809
v 0.004645 -0.022321 0.014571
v 0.004645 -0.022231 0.015332
v 0.004645 -0.021989 0.016062
v 0.007888 -0.020204 0.019962
v 0.015315 0.000886 0.019962
v 0.015088 0.000820 0.003921
v 0.021280 -0.010371 0.019962
v 0.018076 -0.005211 0.002396
v 0.014818 0.000820 0.001528
v 0.017459 -0.004168 0.001811
v 0.015159 0.000367 0.001839
v 0.014393 0.000820 0.000791
v 0.013047 0.000774 -0.000226
v 0.011682 0.000728 -0.000337
v 0.010920 0.000636 -0.000329
v 0.008638 -0.000889 -0.000331
v 0.007116 -0.001650 -0.000319
v 0.004738 -0.003177 -0.000285
v 0.004738 -0.003887 -0.000277
v 0.004645 -0.018388 -0.000019
v 0.004645 -0.019151 -0.000003
v 0.004645 -0.019909 0.000029
v 0.004645 -0.020715 0.000170
v 0.004645 -0.021207 0.000369
v 0.004645 -0.021756 0.000890
v 0.005593 -0.021752 0.001399
v 0.006196 -0.021735 0.001799
v 0.006338 -0.021805 0.002396
v 0.005593 -0.022062 0.003157
v 0.006377 -0.021819 0.003157
v 0.006557 -0.021752 0.003921
v 0.006545 -0.021749 0.004679
v 0.006529 -0.021739 0.006204
v 0.006518 -0.021735 0.006966
v 0.006373 -0.021679 0.013809
v 0.006044 -0.021781 0.014616
v 0.007656 -0.020977 0.017411
v 0.007116 -0.021069 0.017617
v 0.008638 -0.020069 0.019962
v 0.015886 -0.000047 0.019962
v 0.016397 -0.000972 0.019962
v 0.016744 -0.001628 0.019962
v 0.021732 -0.011541 0.019962
v 0.021677 -0.012301 0.004679
v 0.020866 -0.010776 0.002396
v 0.018221 -0.005681 0.001819
v 0.015072 0.000196 0.001332
v 0.017365 -0.004352 0.001300
v 0.015194 -0.000311 0.001115
v 0.016728 -0.003340 0.001119
v 0.014382 0.000336 0.000449
v 0.013903 0.000714 0.000230
v 0.013181 -0.000202 -0.000297
v 0.012443 0.000728 -0.000315
v 0.013885 -0.000202 -0.000049
v 0.018528 -0.010015 0.000005
v 0.018528 -0.010776 -0.000092
v 0.012443 -0.000127 -0.000347
v 0.011682 -0.000127 -0.000355
v 0.010920 -0.000127 -0.000349
v 0.010159 -0.000127 -0.000337
v 0.009400 -0.000889 -0.000343
v 0.007877 -0.001650 -0.000331
v 0.005593 -0.003170 -0.000297
v 0.006354 -0.003170 -0.000303
v 0.016244 -0.013819 -0.000158
v 0.017004 -0.013819 -0.000134
v 0.014722 -0.015345 -0.000053
v 0.015481 -0.015345 0.000027
v 0.014722 -0.016105 0.000178
v 0.015421 -0.016115 0.000339
v 0.006879 -0.020347 0.000459
v 0.007387 -0.020241 0.000528
v 0.006354 -0.021246 0.001053
v 0.006893 -0.021127 0.001167
v 0.007267 -0.021129 0.001483
v 0.007627 -0.021120 0.001857
v 0.007116 -0.021480 0.002396
v 0.007116 -0.021519 0.003157
v 0.007116 -0.021512 0.003921
v 0.007116 -0.021463 0.007723
v 0.007116 -0.021451 0.008487
v 0.007116 -0.021376 0.013049
v 0.007116 -0.021359 0.013809
v 0.007116 -0.021333 0.014571
v 0.007116 -0.021304 0.015332
v 0.007877 -0.020689 0.018377
v 0.008638 -0.020536 0.017615
v 0.008938 -0.020323 0.018300
v 0.009398 -0.019788 0.019962
v 0.021748 -0.012301 0.019962
v 0.021795 -0.013059 0.004679
v 0.021776 -0.013059 0.003921
v 0.021648 -0.012301 0.003921
v 0.021206 -0.011502 0.002396
v 0.020509 -0.010250 0.001831
v 0.019642 -0.008935 0.001318
v 0.019762 -0.009441 0.001139
v 0.014494 -0.000127 0.000361
v 0.020520 -0.010967 0.001145
v 0.018851 -0.008701 0.000550
v 0.019018 -0.009408 0.000409
v 0.018423 -0.008500 0.000297
v 0.017765 -0.010015 -0.000170
v 0.017765 -0.010776 -0.000188
v 0.018528 -0.011541 -0.000142
v 0.018598 -0.009194 0.000224
v 0.019885 -0.011541 0.000339
v 0.019288 -0.011541 0.000049
v 0.019288 -0.012301 -0.000047
v 0.012443 -0.000889 -0.000341
v 0.017765 -0.011541 -0.000188
v 0.017765 -0.012301 -0.000182
v 0.008638 -0.001650 -0.000337
v 0.007116 -0.002410 -0.000319
v 0.007877 -0.002410 -0.000323
v 0.017765 -0.013059 -0.000170
v 0.018528 -0.013059 -0.000136
v 0.017765 -0.013819 -0.000072
v 0.016244 -0.014582 -0.000064
v 0.017004 -0.014582 0.000017
v 0.016244 -0.015345 0.000170
v 0.018469 -0.014582 0.000343
v 0.016454 -0.015795 0.000441
v 0.015127 -0.016500 0.000482
v 0.008940 -0.019492 0.000516
v 0.007877 -0.020117 0.000628
v 0.007877 -0.020509 0.001009
v 0.008429 -0.020374 0.001147
v 0.010478 -0.019497 0.001318
v 0.009414 -0.020144 0.001606
v 0.010701 -0.019611 0.001825
v 0.017332 -0.016461 0.002223
v 0.009671 -0.020241 0.002396
v 0.007794 -0.021200 0.003157
v 0.007792 -0.021197 0.003921
v 0.007914 -0.021071 0.008487
v 0.012420 -0.018759 0.017615
v 0.011682 -0.019110 0.017615
v 0.010662 -0.019589 0.017615
v 0.009089 -0.020328 0.017615
v 0.012528 -0.018647 0.018393
v 0.012095 -0.018785 0.018801
v 0.010062 -0.019500 0.019962
v 0.021594 -0.013059 0.016092
v 0.021284 -0.013279 0.019962
v 0.021208 -0.013873 0.017615
v 0.021360 -0.013749 0.016092
v 0.021516 -0.013819 0.003921
v 0.021498 -0.013819 0.003157
v 0.021594 -0.012301 0.003157
v 0.021707 -0.013059 0.003157
v 0.021141 -0.011659 0.001741
v 0.021514 -0.012301 0.002396
v 0.020525 -0.010601 0.001461
v 0.021236 -0.012173 0.001489
v 0.020654 -0.011541 0.001017
v 0.019596 -0.010231 0.000560
v 0.019761 -0.010952 0.000425
v 0.019163 -0.010015 0.000323
v 0.018528 -0.012301 -0.000158
v 0.020263 -0.011541 0.000638
v 0.020191 -0.012301 0.000401
v 0.020196 -0.013059 0.000405
v 0.019288 -0.013059 -0.000025
v 0.018528 -0.013819 0.000015
v 0.017765 -0.014582 0.000176
v 0.017970 -0.015030 0.000445
v 0.019095 -0.014333 0.000389
v 0.016068 -0.016592 0.001125
v 0.009970 -0.019623 0.001147
v 0.015051 -0.017224 0.001300
v 0.016826 -0.016587 0.001807
v 0.020253 -0.015035 0.002328
v 0.018973 -0.015676 0.002344
v 0.019364 -0.015580 0.003157
v 0.019375 -0.015592 0.003921
v 0.019380 -0.015592 0.004679
v 0.020509 -0.015027 0.007723
v 0.020502 -0.015023 0.008487
v 0.013216 -0.018318 0.018393
v 0.019288 -0.015468 0.016854
v 0.019288 -0.015451 0.017615
v 0.013634 -0.018040 0.018835
v 0.016723 -0.016536 0.018870
v 0.010922 -0.019081 0.019962
v 0.020879 -0.013734 0.019962
v 0.020649 -0.014461 0.018377
v 0.020713 -0.014512 0.017615
v 0.021135 -0.014132 0.016092
v 0.021233 -0.013911 0.016854
v 0.021261 -0.013965 0.015332
v 0.021259 -0.014279 0.003157
v 0.021602 -0.013059 0.002396
v 0.021250 -0.014132 0.002427
v 0.021231 -0.012672 0.001214
v 0.019982 -0.013754 0.000532
v 0.019325 -0.013868 0.000246
v 0.020847 -0.013052 0.000960
v 0.018685 -0.014841 0.000645
v 0.019601 -0.014149 0.000542
v 0.019587 -0.014921 0.001308
v 0.016574 -0.016461 0.001300
v 0.019998 -0.014931 0.001704
v 0.020449 -0.014979 0.002940
v 0.020049 -0.015224 0.003157
v 0.020608 -0.014386 0.001638
v 0.020049 -0.015255 0.003921
v 0.020481 -0.015008 0.003921
v 0.020435 -0.014969 0.013556
v 0.020889 -0.014609 0.007723
v 0.019288 -0.015369 0.018377
v 0.020145 -0.015006 0.017615
v 0.019771 -0.015015 0.018874
v 0.012940 -0.018074 0.019962
v 0.020219 -0.014296 0.019962
v 0.020067 -0.014962 0.018385
v 0.020734 -0.014529 0.016854
v 0.020774 -0.014548 0.015332
v 0.020840 -0.014662 0.003157
v 0.021355 -0.013052 0.001608
v 0.021141 -0.013751 0.001727
v 0.021127 -0.013299 0.001338
v 0.020514 -0.014018 0.001169
v 0.020049 -0.014371 0.001093
v 0.019290 -0.014831 0.019962
v 0.017678 -0.015681 0.019962
f 1 2 6
f 1 6 27
f 1 27 62
f 1 62 113
f 1 113 167
f 1 167 209
f 1 209 238
f 1 238 250
f 1 250 249
f 1 249 239
f 1 239 210
f 1 210 169
f 1 169 114
f 1 114 66
f 1 66 30
f 1 30 65
f 1 65 64
f 1 64 63
f 1 63 28
f 1 28 7
f 1 7 3
f 1 3 4
f 1 4 10
f 1 10 5
f 1 5 2
f 2 5 13
f 2 13 14
f 2 14 6
f 3 7 8
f 3 8 9
f 3 9 10
f 3 10 4
f 5 10 11
f 5 11 12
f 5 12 13
f 6 14 15
f 6 15 16
f 6 16 17
f 6 17 18
f 6 18 19
f 6 19 20
f 6 20 21
f 6 21 22
f 6 22 23
f 6 23 24
f 6 24 25
f 6 25 26
f 6 26 27
f 7 28 29
f 7 29 8
f 8 29 30
f 8 30 31
f 8 31 9
f 9 32 10
f 9 31 33
f 9 33 34
f 9 34 32
f 10 32 35
f 10 35 36
f 10 36 11
f 11 36 37
f 11 37 38
f 11 38 39
f 11 39 40
f 11 40 12
f 12 40 41
f 12 41 42
f 12 42 43
f 12 43 13
f 13 43 44
f 13 44 45
f 13 45 46
f 13 46 47
f 13 47 48
f 13 48 15
f 13 15 14
f 15 48 49
f 15 49 50
f 15 50 16
f 16 50 51
f 16 51 17
f 17 51 52
f 17 52 18
f 18 52 19
f 19 52 53
f 19 53 20
f 20 53 21
f 21 53 22
f 22 53 54
f 22 54 55
f 22 55 56
f 22 56 57
f 22 57 23
f 23 57 58
f 23 58 59
f 23 59 24
f 24 59 60
f 24 60 25
f 25 60 61
f 25 61 62
f 25 62 27
f 25 27 26
f 28 63 29
f 29 63 64
f 29 64 65
f 29 65 30
f 30 66 67
f 30 67 68
f 30 68 31
f 31 69 33
f 31 68 69
f 32 34 70
f 32 70 35
f 33 69 71
f 33 71 70
f 33 70 34
f 35 70 72
f 35 72 73
f 35 73 74
f 35 74 75
f 35 75 36
f 36 76 77
f 36 77 37
f 36 75 78
f 36 78 79
f 36 79 80
f 36 80 76
f 37 77 81
f 37 81 82
f 37 82 83
f 37 83 38
f 38 83 84
f 38 84 39
f 39 85 86
f 39 86 40
f 39 84 83
f 39 83 85
f 40 86 41
f 41 87 42
f 41 86 87
f 42 87 43
f 43 87 88
f 43 88 89
f 43 89 44
f 44 89 45
f 45 89 90
f 45 90 91
f 45 91 46
f 46 91 92
f 46 92 93
f 46 93 47
f 47 93 94
f 47 94 95
f 47 95 96
f 47 96 97
f 47 97 48
f 48 97 98
f 48 98 49
f 49 98 50
f 50 98 99
f 50 99 100
f 50 100 101
f 50 101 51
f 51 53 52
f 51 101 102
f 51 102 53
f 53 102 54
f 54 102 103
f 54 103 55
f 55 103 56
f 56 103 57
f 57 103 104
f 57 104 105
f 57 105 106
f 57 106 58
f 58 106 107
f 58 107 108
f 58 108 109
f 58 109 59
f 59 109 60
f 60 110 61
f 60 109 111
f 60 111 112
f 60 112 110
f 61 110 62
f 62 112 113
f 62 110 112
f 66 114 115
f 66 115 67
f 67 115 116
f 67 116 117
f 67 117 68
f 68 117 118
f 68 118 119
f 68 119 69
f 69 119 71
f 70 71 72
f 71 119 120
f 71 120 121
f 71 121 73
f 71 73 72
f 73 121 74
f 74 122 75
f 74 121 123
f 74 123 124
f 74 124 125
f 74 125 122
f 75 122 126
f 75 126 78
f 76 127 128
f 76 128 81
f 76 81 77
f 76 80 129
f 76 129 127
f 78 126 130
f 78 130 79
f 79 130 131
f 79 131 132
f 79 132 80
f 80 132 133
f 80 133 129
f 81 134 82
f 81 128 135
f 81 135 134
f 82 134 136
f 82 136 137
f 82 137 85
f 82 85 83
f 85 137 86
f 86 137 138
f 86 138 87
f 87 138 88
f 88 138 139
f 88 139 89
f 89 139 137
f 89 137 136
f 89 136 140
f 89 140 90
f 90 140 141
f 90 141 142
f 90 142 143
f 90 143 91
f 91 143 92
f 92 143 144
f 92 144 93
f 93 144 145
f 93 145 94
f 94 145 146
f 94 146 147
f 94 147 148
f 94 148 149
f 94 149 95
f 95 149 96
f 96 150 98
f 96 98 97
f 96 149 150
f 98 150 151
f 98 151 152
f 98 152 153
f 98 153 99
f 99 154 100
f 99 153 154
f 100 154 155
f 100 155 156
f 100 156 157
f 100 157 101
f 101 157 158
f 101 158 102
f 102 158 159
f 102 159 103
f 103 159 104
f 104 159 160
f 104 160 105
f 105 160 106
f 106 160 161
f 106 161 162
f 106 162 107
f 107 162 163
f 107 163 164
f 107 164 111
f 107 111 108
f 108 111 109
f 111 164 112
f 112 164 165
f 112 165 166
f 112 166 167
f 112 167 113
f 114 168 115
f 114 169 170
f 114 170 171
f 114 171 168
f 115 168 171
f 115 171 172
f 115 172 173
f 115 173 116
f 116 174 117
f 116 173 175
f 116 175 174
f 117 174 118
f 118 176 119
f 118 174 177
f 118 177 176
f 119 176 178
f 119 178 120
f 120 178 123
f 120 123 121
f 122 125 126
f 123 178 179
f 123 179 180
f 123 180 181
f 123 181 124
f 124 181 125
f 125 181 182
f 125 182 126
f 126 182 183
f 126 183 130
f 127 129 128
f 128 129 184
f 128 184 135
f 129 133 184
f 130 183 131
f 131 183 182
f 131 182 185
f 131 185 186
f 131 186 133
f 131 133 132
f 133 186 187
f 133 187 188
f 133 188 141
f 133 141 184
f 134 135 136
f 135 184 136
f 136 184 140
f 137 139 138
f 140 184 141
f 141 188 189
f 141 189 142
f 142 189 144
f 142 144 143
f 144 189 145
f 145 189 190
f 145 190 146
f 146 191 147
f 146 190 189
f 146 189 192
f 146 192 191
f 147 193 148
f 147 191 193
f 148 193 194
f 148 194 152
f 148 152 151
f 148 151 150
f 148 150 149
f 152 194 153
f 153 155 154
f 153 194 195
f 153 195 196
f 153 196 155
f 155 196 156
f 156 196 197
f 156 197 198
f 156 198 157
f 157 198 199
f 157 199 158
f 158 199 200
f 158 200 201
f 158 201 159
f 159 201 202
f 159 202 203
f 159 203 160
f 160 203 161
f 161 204 165
f 161 165 162
f 161 203 205
f 161 205 206
f 161 206 204
f 162 165 163
f 163 165 164
f 165 204 166
f 166 204 207
f 166 207 167
f 167 207 208
f 167 208 209
f 169 210 211
f 169 211 170
f 170 211 212
f 170 212 213
f 170 213 214
f 170 214 171
f 171 214 213
f 171 213 215
f 171 215 172
f 172 215 216
f 172 216 173
f 173 217 175
f 173 216 218
f 173 218 217
f 174 175 177
f 175 217 177
f 176 177 179
f 176 179 178
f 177 219 179
f 177 217 219
f 179 219 180
f 180 185 181
f 180 219 185
f 181 185 182
f 185 219 186
f 186 219 187
f 187 220 221
f 187 221 188
f 187 219 222
f 187 222 220
f 188 221 189
f 189 221 192
f 191 192 223
f 191 223 193
f 192 221 224
f 192 224 225
f 192 225 223
f 193 195 194
f 193 223 225
f 193 225 226
f 193 226 195
f 195 226 196
f 196 226 227
f 196 227 197
f 197 228 229
f 197 229 199
f 197 199 198
f 197 227 230
f 197 230 218
f 197 218 216
f 197 216 228
f 199 229 231
f 199 231 200
f 200 231 201
f 201 231 202
f 202 231 232
f 202 232 216
f 202 216 203
f 203 233 205
f 203 216 234
f 203 234 213
f 203 213 233
f 204 206 235
f 204 235 208
f 204 208 207
f 205 233 206
f 206 233 236
f 206 236 235
f 208 235 237
f 208 237 209
f 209 237 238
f 210 239 240
f 210 240 211
f 211 240 236
f 211 236 212
f 212 236 233
f 212 233 241
f 212 241 213
f 213 216 215
f 213 241 242
f 213 242 233
f 213 234 216
f 216 232 243
f 216 243 228
f 217 218 244
f 217 244 219
f 218 230 245
f 218 245 244
f 219 244 246
f 219 246 222
f 220 222 246
f 220 246 247
f 220 247 224
f 220 224 221
f 224 248 225
f 224 247 248
f 225 227 226
f 225 248 227
f 227 248 230
f 228 232 229
f 228 243 232
f 229 232 231
f 230 248 247
f 230 247 245
f 233 242 241
f 235 236 240
f 235 240 237
f 237 240 239
f 237 239 249
f 237 249 250
f 237 250 238
f 244 245 246
f 245 247 246
