v -0.054154 0.011286 0.019962
v -0.054052 0.010530 0.019962
v -0.054137 0.011531 0.019962
v -0.053893 0.012042 0.018412
v -0.053882 0.011286 0.018412
v -0.054040 0.010478 0.019962
v -0.054023 0.011960 0.019962
v -0.053610 0.012879 0.018412
v -0.053695 0.010523 0.018412
v -0.053819 0.009819 0.019962
v -0.053582 0.012642 0.019962
v -0.053395 0.013183 0.018758
v -0.053570 0.012953 0.018412
v -0.053480 0.009974 0.018412
v -0.053780 0.009760 0.019901
v -0.053485 0.009107 0.019962
v -0.053247 0.012990 0.019962
v -0.053174 0.013472 0.018412
v -0.052630 0.013946 0.018741
v -0.042711 -0.011855 0.018412
v -0.053077 0.008292 0.019962
v -0.042144 -0.012996 0.018412
v -0.030736 -0.035892 0.018412
v -0.052834 0.013338 0.019962
v -0.052924 0.013716 0.018412
v -0.052233 0.013739 0.019962
v -0.052126 0.014102 0.019140
v -0.051134 0.014717 0.018791
v -0.051548 0.014591 0.018412
v -0.052324 0.014176 0.018444
v -0.052381 0.014146 0.018412
v -0.052296 0.006759 0.019962
v -0.030554 -0.036241 0.018412
v -0.030112 -0.036641 0.019962
v -0.030441 -0.036004 0.019962
v -0.051503 0.014139 0.019962
v -0.051961 0.014005 0.019658
v -0.051429 0.014480 0.019083
v -0.006468 0.036917 0.019962
v -0.046829 0.016888 0.018412
v -0.051967 0.014368 0.018412
v -0.006462 0.036917 0.019901
v -0.006360 0.036857 0.019383
v -0.030328 -0.036604 0.018412
v -0.029852 -0.037085 0.019962
v -0.044620 0.017621 0.019962
v -0.005828 0.037191 0.019962
v -0.025620 0.027180 0.018412
v -0.005828 0.037183 0.019901
v -0.005102 0.037080 0.018412
v -0.005601 0.036865 0.018412
v -0.029914 -0.037167 0.018412
v -0.029512 -0.037463 0.019962
v -0.005069 0.037413 0.019962
v -0.005069 0.037406 0.019901
v -0.005069 0.037087 0.018412
v -0.029501 -0.037530 0.018412
v -0.029127 -0.037849 0.019962
v -0.004309 0.037376 0.019962
v -0.004309 0.037369 0.019901
v -0.004309 0.037169 0.018412
v -0.004343 0.037169 0.018412
v -0.029121 -0.037826 0.018412
v -0.029127 -0.037849 0.019901
v -0.028662 -0.038093 0.019962
v -0.003607 0.037094 0.019962
v -0.003499 0.036924 0.018412
v -0.029098 -0.037834 0.018412
v -0.028662 -0.038093 0.019901
v -0.027903 -0.038286 0.019962
v -0.003545 0.037065 0.019962
v -0.003188 0.036776 0.018412
v -0.028662 -0.037938 0.018412
v -0.027903 -0.038286 0.019901
v -0.027138 -0.038286 0.019962
v -0.003165 0.036842 0.019962
v -0.003131 0.036820 0.019962
v -0.002888 0.036546 0.018412
v -0.027903 -0.037967 0.018412
v -0.027903 -0.038138 0.019140
v -0.027138 -0.038278 0.019901
v -0.026379 -0.038130 0.019962
v -0.002361 0.036109 0.018412
v -0.002780 0.036405 0.019962
v -0.027138 -0.038101 0.019140
v -0.027184 -0.037849 0.018412
v -0.026379 -0.038123 0.019901
v -0.025796 -0.037886 0.019901
v -0.025790 -0.037886 0.019962
v -0.002338 0.036079 0.018412
v -0.002434 0.035976 0.019962
v -0.026821 -0.037767 0.018412
v -0.026391 -0.037923 0.019132
v -0.025892 -0.037841 0.019380
v -0.000378 -0.024741 0.018412
v -0.005907 -0.027712 0.019962
v -0.002061 0.035650 0.018412
v -0.002225 0.035598 0.019962
v -0.001738 0.035072 0.018412
v -0.026391 -0.037604 0.018412
v -0.026147 -0.037730 0.018873
v -0.025632 -0.037597 0.019132
v -0.001262 -0.025185 0.018412
v 0.000256 -0.024415 0.018412
v -0.004315 -0.026889 0.019962
v -0.001862 0.034886 0.019962
v 0.001735 0.028040 0.018412
v 0.002335 0.026580 0.019962
v 0.002828 0.025587 0.019962
v -0.025615 -0.037248 0.018412
v 0.000744 -0.024155 0.018412
v -0.000248 -0.024748 0.019962
v -0.000667 -0.024970 0.019962
v 0.002500 0.026476 0.018412
v 0.003026 0.025165 0.019962
v 0.001225 -0.023948 0.019962
v 0.000800 -0.024185 0.019962
v 0.000307 -0.024452 0.019962
v 0.001151 -0.023896 0.018412
v 0.002205 -0.023362 0.019962
v 0.002794 0.025846 0.018412
v 0.002975 0.025454 0.018412
v 0.003117 0.024957 0.019962
v 0.001656 -0.023533 0.018412
v 0.002777 -0.022859 0.019962
v 0.003174 0.024994 0.018412
v 0.003440 0.024172 0.019962
v 0.002052 -0.023148 0.018412
v 0.003004 -0.022599 0.019962
v 0.003502 0.024179 0.018412
v 0.003582 0.023527 0.019962
v 0.003678 0.023468 0.018412
v 0.002330 -0.022784 0.018412
v 0.002681 -0.022155 0.018412
v 0.003213 -0.022155 0.019962
v 0.003587 0.023483 0.019962
v 0.003706 0.022705 0.018412
v 0.003718 -0.019687 0.018412
v 0.003718 -0.019702 0.018450
v 0.003718 -0.019791 0.018689
v 0.003718 -0.019909 0.019157
v 0.003718 -0.020080 0.019962
v 0.003718 0.019059 0.019962
v 0.003718 0.018740 0.018412
f 1 2 6
f 1 6 10
f 1 10 16
f 1 16 21
f 1 21 32
f 1 32 35
f 1 35 34
f 1 34 45
f 1 45 53
f 1 53 58
f 1 58 65
f 1 65 70
f 1 70 75
f 1 75 82
f 1 82 89
f 1 89 96
f 1 96 105
f 1 105 113
f 1 113 112
f 1 112 118
f 1 118 117
f 1 117 116
f 1 116 120
f 1 120 125
f 1 125 129
f 1 129 135
f 1 135 142
f 1 142 143
f 1 143 136
f 1 136 131
f 1 131 127
f 1 127 123
f 1 123 115
f 1 115 109
f 1 109 108
f 1 108 106
f 1 106 98
f 1 98 91
f 1 91 84
f 1 84 77
f 1 77 76
f 1 76 71
f 1 71 66
f 1 66 59
f 1 59 54
f 1 54 47
f 1 47 39
f 1 39 46
f 1 46 36
f 1 36 26
f 1 26 24
f 1 24 17
f 1 17 11
f 1 11 7
f 1 7 3
f 1 3 4
f 1 4 5
f 1 5 2
f 2 5 6
f 3 7 4
f 4 7 8
f 4 8 13
f 4 13 18
f 4 18 25
f 4 25 31
f 4 31 41
f 4 41 29
f 4 29 40
f 4 40 48
f 4 48 51
f 4 51 50
f 4 50 56
f 4 56 62
f 4 62 61
f 4 61 67
f 4 67 72
f 4 72 78
f 4 78 83
f 4 83 90
f 4 90 97
f 4 97 99
f 4 99 107
f 4 107 114
f 4 114 121
f 4 121 122
f 4 122 126
f 4 126 130
f 4 130 132
f 4 132 137
f 4 137 144
f 4 144 138
f 4 138 134
f 4 134 133
f 4 133 128
f 4 128 124
f 4 124 119
f 4 119 111
f 4 111 104
f 4 104 95
f 4 95 103
f 4 103 110
f 4 110 100
f 4 100 92
f 4 92 86
f 4 86 79
f 4 79 73
f 4 73 68
f 4 68 63
f 4 63 57
f 4 57 52
f 4 52 44
f 4 44 33
f 4 33 23
f 4 23 22
f 4 22 20
f 4 20 14
f 4 14 9
f 4 9 5
f 5 9 6
f 6 9 10
f 7 11 12
f 7 12 13
f 7 13 8
f 9 14 10
f 10 15 16
f 10 14 15
f 11 17 12
f 12 18 13
f 12 17 19
f 12 19 18
f 14 20 16
f 14 16 15
f 16 20 22
f 16 22 23
f 16 23 21
f 17 24 19
f 18 19 25
f 19 26 27
f 19 27 28
f 19 28 29
f 19 29 30
f 19 30 31
f 19 31 25
f 19 24 26
f 21 23 32
f 23 33 34
f 23 34 35
f 23 35 32
f 26 36 37
f 26 37 27
f 27 37 36
f 27 36 38
f 27 38 28
f 28 38 39
f 28 39 29
f 29 41 30
f 29 39 42
f 29 42 43
f 29 43 40
f 30 41 31
f 33 44 45
f 33 45 34
f 36 46 38
f 38 46 39
f 39 47 42
f 40 43 48
f 42 47 49
f 42 49 43
f 43 49 50
f 43 50 51
f 43 51 48
f 44 52 45
f 45 52 53
f 47 54 55
f 47 55 49
f 49 55 50
f 50 55 56
f 52 57 58
f 52 58 53
f 54 59 60
f 54 60 55
f 55 60 61
f 55 61 62
f 55 62 56
f 57 63 64
f 57 64 58
f 58 64 69
f 58 69 65
f 59 66 67
f 59 67 60
f 60 67 61
f 63 68 69
f 63 69 64
f 65 69 74
f 65 74 70
f 66 71 72
f 66 72 67
f 68 73 74
f 68 74 69
f 70 74 75
f 71 76 72
f 72 76 77
f 72 77 78
f 73 79 80
f 73 80 74
f 74 80 81
f 74 81 75
f 75 81 87
f 75 87 82
f 77 83 78
f 77 84 83
f 79 85 80
f 79 86 85
f 80 85 81
f 81 85 87
f 82 87 88
f 82 88 89
f 83 84 91
f 83 91 90
f 85 86 92
f 85 92 93
f 85 93 87
f 87 93 94
f 87 94 88
f 88 94 95
f 88 95 96
f 88 96 89
f 90 91 97
f 91 98 99
f 91 99 97
f 92 100 101
f 92 101 93
f 93 101 94
f 94 101 102
f 94 102 103
f 94 103 95
f 95 104 96
f 96 104 105
f 98 106 99
f 99 106 108
f 99 108 109
f 99 109 107
f 100 110 101
f 101 110 103
f 101 103 102
f 104 111 112
f 104 112 113
f 104 113 105
f 107 109 114
f 109 115 114
f 111 116 117
f 111 117 118
f 111 118 112
f 111 119 120
f 111 120 116
f 114 115 121
f 115 122 121
f 115 123 122
f 119 124 120
f 120 124 125
f 122 123 126
f 123 127 126
f 124 128 125
f 125 128 129
f 126 127 130
f 127 131 132
f 127 132 130
f 128 133 129
f 129 133 134
f 129 134 135
f 131 136 132
f 132 136 137
f 134 138 135
f 135 138 139
f 135 139 140
f 135 140 141
f 135 141 142
f 136 143 137
f 137 143 144
f 138 144 143
f 138 143 142
f 138 142 141
f 138 141 140
f 138 140 139
