v -0.004706 0.037555 0.023927
v -0.004713 0.037555 0.024468
v -0.004272 0.037481 0.025731
v -0.004242 0.037473 0.024468
v -0.004310 0.037451 0.021424
v -0.004310 0.037429 0.020662
v -0.005072 0.037451 0.020662
v -0.005072 0.037473 0.021424
v -0.005199 0.037510 0.024468
v -0.005162 0.037518 0.025229
v -0.004811 0.037548 0.025731
v -0.003472 0.037123 0.025731
v -0.003554 0.037175 0.024468
v -0.003554 0.037161 0.022945
v -0.003554 0.037138 0.021424
v -0.003554 0.037123 0.020662
v -0.004310 0.037376 0.019962
v -0.005102 0.037391 0.019962
v -0.005835 0.037235 0.020662
v -0.005154 0.037518 0.025731
v -0.005835 0.037250 0.021424
v -0.005835 0.037295 0.024468
v -0.005835 0.037309 0.025731
v -0.003083 0.036863 0.025731
v -0.003083 0.036863 0.025229
v -0.003098 0.036855 0.022945
v -0.003098 0.036848 0.022185
v -0.003113 0.036833 0.020662
v -0.003151 0.036833 0.019962
v -0.003577 0.037071 0.019962
v -0.005865 0.037175 0.019962
v -0.006470 0.036908 0.019962
v -0.006500 0.036930 0.020662
v -0.006515 0.036937 0.021424
v -0.006313 0.037079 0.025731
v -0.002784 0.036483 0.025731
v -0.002396 0.036037 0.022185
v -0.003091 0.036855 0.023706
v -0.002396 0.036029 0.021615
v -0.002739 0.036401 0.020662
v -0.002754 0.036372 0.019962
v -0.006889 0.036699 0.019962
v -0.024729 0.027776 0.021424
v -0.006912 0.036751 0.022185
v -0.006695 0.036893 0.025731
v -0.002425 0.035992 0.025731
v 0.021927 -0.011231 0.022945
v 0.021658 -0.010777 0.021424
v -0.002239 0.035620 0.019962
v -0.002440 0.035970 0.019962
v -0.024684 0.027753 0.020662
v -0.051511 0.014141 0.019962
v -0.024729 0.027783 0.022185
v -0.024094 0.028103 0.022185
v -0.025611 0.027284 0.020662
v -0.025611 0.027336 0.022185
v -0.023234 0.028557 0.025229
v -0.023234 0.028557 0.025731
v 0.021650 -0.010777 0.025731
v 0.021919 -0.011260 0.022185
v 0.021919 -0.011275 0.023706
v 0.022054 -0.011610 0.022945
v 0.021620 -0.010777 0.020662
v -0.001857 0.034876 0.019962
v -0.052252 0.013724 0.019962
v -0.052827 0.013307 0.024468
v -0.052805 0.013300 0.025229
v -0.035615 0.022186 0.025731
v -0.029380 0.025409 0.025731
v -0.026628 0.026823 0.025731
v -0.024871 0.027724 0.025731
v -0.029649 0.025290 0.024468
v -0.028662 0.025796 0.023706
v -0.029268 0.025483 0.022945
v -0.027137 0.026570 0.023706
v -0.025125 0.027597 0.025229
v 0.021867 -0.011536 0.025731
v 0.021912 -0.011335 0.021424
v 0.022024 -0.011655 0.023706
v 0.022054 -0.012176 0.022945
v 0.021994 -0.011714 0.021424
v 0.022024 -0.011640 0.022185
v 0.021463 -0.010777 0.019962
v 0.021321 -0.010449 0.019962
v 0.021217 -0.010203 0.020007
v 0.021890 -0.011551 0.020652
v 0.021732 -0.011536 0.019962
v -0.052835 0.013345 0.019962
v -0.053209 0.013047 0.023706
v -0.053209 0.013039 0.024468
v -0.052259 0.013560 0.025731
v -0.053186 0.013025 0.025229
v -0.053164 0.013017 0.025731
v -0.052850 0.013240 0.025731
v 0.021837 -0.012161 0.025731
v 0.022024 -0.012094 0.023706
v 0.021635 -0.012801 0.025731
v 0.021897 -0.012555 0.022945
v 0.021912 -0.012555 0.022185
v 0.021919 -0.012518 0.021424
v 0.022024 -0.012176 0.022185
v 0.021994 -0.012139 0.021424
v 0.021972 -0.011923 0.020899
v 0.021747 -0.012295 0.019962
v -0.053231 0.013010 0.019962
v -0.053209 0.013047 0.021424
v -0.053657 0.012667 0.021424
v -0.053635 0.012667 0.023706
v -0.053620 0.012660 0.024468
v -0.053590 0.012638 0.025731
v 0.021531 -0.013054 0.025731
v 0.021568 -0.013054 0.022945
v 0.021575 -0.013054 0.022185
v 0.021575 -0.013054 0.021424
v 0.021531 -0.013054 0.020662
v 0.021381 -0.013128 0.019962
v 0.021897 -0.012295 0.020652
v -0.053582 0.012645 0.019962
v -0.053642 0.012660 0.020662
v -0.054039 0.012243 0.021424
v -0.054016 0.012213 0.023706
v -0.054001 0.012191 0.024468
v -0.053971 0.012154 0.025731
v 0.021284 -0.013411 0.025731
v 0.021239 -0.013493 0.025229
v 0.021239 -0.013493 0.023706
v 0.021239 -0.013486 0.022185
v 0.021232 -0.013478 0.021424
v 0.021209 -0.013456 0.020662
v 0.021194 -0.013441 0.020250
v 0.021187 -0.013426 0.019962
v -0.054024 0.011968 0.019962
v -0.054024 0.012213 0.020662
v -0.054248 0.011864 0.021424
v -0.054255 0.011856 0.022185
v -0.054255 0.011849 0.022945
v -0.054233 0.011811 0.024468
v -0.054218 0.011774 0.025731
v 0.021089 -0.013612 0.025731
v 0.020813 -0.013865 0.024468
v 0.020432 -0.014200 0.023414
v 0.020738 -0.013932 0.023684
v 0.020432 -0.014200 0.022556
v 0.020402 -0.014185 0.019962
v 0.020880 -0.013731 0.019962
v -0.054054 0.010569 0.019962
v -0.054158 0.011410 0.020005
v -0.054203 0.011759 0.020157
v -0.054233 0.011834 0.020662
v -0.054315 0.011290 0.021424
v -0.054330 0.011290 0.022945
v -0.054263 0.011290 0.025731
v 0.020738 -0.013895 0.025731
v 0.020409 -0.014193 0.024468
v -0.005715 -0.027760 0.025731
v 0.017867 -0.015584 0.019962
v 0.019295 -0.014825 0.019962
v 0.020020 -0.014416 0.019962
v -0.054143 0.010241 0.020443
v -0.054188 0.010747 0.020206
v -0.053822 0.009817 0.019962
v -0.054285 0.011290 0.020662
v -0.054240 0.010524 0.021424
v -0.054248 0.010524 0.022945
v -0.054240 0.010524 0.023706
v -0.054211 0.010524 0.025731
v 0.020379 -0.014170 0.025731
v 0.020394 -0.014178 0.025229
v -0.006590 -0.028214 0.025731
v -0.007211 -0.028534 0.025731
v -0.007218 -0.028534 0.025229
v -0.007607 -0.028728 0.024468
v -0.007622 -0.028720 0.022945
v -0.007629 -0.028713 0.022185
v -0.006590 -0.028140 0.020662
v -0.025716 -0.037934 0.020662
v -0.025783 -0.037904 0.019962
v -0.054166 0.010122 0.020951
v -0.054203 0.010509 0.020683
v -0.053388 0.008641 0.020366
v -0.054009 0.009832 0.020683
v -0.053545 0.009229 0.019962
v -0.054173 0.010115 0.021424
v -0.054173 0.010107 0.023706
v -0.054173 0.010115 0.024468
v -0.054166 0.010115 0.025731
v -0.054173 0.010107 0.022185
v -0.025611 -0.037927 0.025731
v -0.025694 -0.037942 0.021424
v -0.008115 -0.028973 0.022945
v -0.026374 -0.038224 0.021424
v -0.026374 -0.038195 0.020662
v -0.026374 -0.038143 0.019962
v -0.053575 0.008939 0.020637
v -0.053657 0.009006 0.021424
v -0.054009 0.009735 0.021424
v -0.053082 0.008299 0.019962
v -0.030434 -0.036022 0.019962
v -0.054016 0.009728 0.022945
v -0.054024 0.009728 0.024468
v -0.054039 0.009795 0.025731
v -0.026374 -0.038239 0.025731
v -0.026374 -0.038239 0.022185
v -0.027137 -0.038381 0.022185
v -0.027137 -0.038358 0.021424
v -0.027137 -0.038329 0.020662
v -0.027107 -0.038284 0.019962
v -0.053418 0.008589 0.020873
v -0.030150 -0.036647 0.021424
v -0.053433 0.008552 0.022185
v -0.053440 0.008552 0.022945
v -0.053672 0.009006 0.022945
v -0.053687 0.009006 0.024468
v -0.030127 -0.036602 0.019962
v -0.030127 -0.036647 0.020662
v -0.053904 0.009482 0.025731
v -0.027264 -0.038440 0.025731
v -0.027892 -0.038463 0.025731
v -0.027892 -0.038388 0.022945
v -0.027892 -0.038366 0.022185
v -0.027869 -0.038291 0.019962
v -0.029866 -0.037116 0.020662
v -0.029881 -0.037123 0.021424
v -0.029888 -0.037138 0.022185
v -0.029888 -0.037145 0.022945
v -0.030150 -0.036647 0.022945
v -0.053680 0.009006 0.025731
v -0.029858 -0.037078 0.019962
v -0.028153 -0.038396 0.025731
v -0.028662 -0.038195 0.022945
v -0.027892 -0.038314 0.020662
v -0.028662 -0.038105 0.019962
v -0.029507 -0.037473 0.019962
v -0.029514 -0.037495 0.020662
v -0.029529 -0.037510 0.021424
v -0.029544 -0.037525 0.022945
v -0.029559 -0.037525 0.024468
v -0.029619 -0.037450 0.025731
v -0.029881 -0.037138 0.024468
v -0.030038 -0.036818 0.025731
v -0.028752 -0.038202 0.025731
v -0.028662 -0.038247 0.025229
v -0.029185 -0.037934 0.024468
v -0.029111 -0.037867 0.019962
v -0.029125 -0.037875 0.020662
v -0.029185 -0.037942 0.025229
v -0.029185 -0.037942 0.025731
v -0.029873 -0.037130 0.025731
v -0.029873 -0.037138 0.025229
f 1 2 3
f 1 3 4
f 1 4 5
f 1 5 6
f 1 6 7
f 1 7 8
f 1 8 9
f 1 9 10
f 1 10 2
f 2 10 11
f 2 11 3
f 3 11 20
f 3 20 23
f 3 23 35
f 3 35 45
f 3 45 58
f 3 58 71
f 3 71 70
f 3 70 69
f 3 69 68
f 3 68 91
f 3 91 94
f 3 94 93
f 3 93 110
f 3 110 123
f 3 123 138
f 3 138 152
f 3 152 166
f 3 166 186
f 3 186 201
f 3 201 216
f 3 216 227
f 3 227 240
f 3 240 248
f 3 248 238
f 3 238 247
f 3 247 241
f 3 241 229
f 3 229 218
f 3 218 217
f 3 217 202
f 3 202 188
f 3 188 170
f 3 170 169
f 3 169 155
f 3 155 167
f 3 167 153
f 3 153 139
f 3 139 124
f 3 124 111
f 3 111 97
f 3 97 95
f 3 95 77
f 3 77 59
f 3 59 46
f 3 46 36
f 3 36 24
f 3 24 12
f 3 12 13
f 3 13 4
f 4 13 14
f 4 14 15
f 4 15 5
f 5 15 16
f 5 16 6
f 6 17 7
f 6 16 17
f 7 17 18
f 7 18 31
f 7 31 19
f 7 19 8
f 8 19 9
f 9 20 10
f 9 19 21
f 9 21 22
f 9 22 23
f 9 23 20
f 10 20 11
f 12 24 25
f 12 25 13
f 13 25 26
f 13 26 14
f 14 26 27
f 14 27 15
f 15 27 28
f 15 28 16
f 16 28 29
f 16 29 30
f 16 30 17
f 17 30 29
f 17 29 41
f 17 41 50
f 17 50 49
f 17 49 64
f 17 64 84
f 17 84 83
f 17 83 87
f 17 87 104
f 17 104 116
f 17 116 131
f 17 131 145
f 17 145 144
f 17 144 158
f 17 158 157
f 17 157 156
f 17 156 177
f 17 177 193
f 17 193 207
f 17 207 221
f 17 221 232
f 17 232 244
f 17 244 233
f 17 233 228
f 17 228 214
f 17 214 198
f 17 198 197
f 17 197 182
f 17 182 161
f 17 161 146
f 17 146 132
f 17 132 118
f 17 118 105
f 17 105 88
f 17 88 65
f 17 65 52
f 17 52 42
f 17 42 32
f 17 32 31
f 17 31 18
f 19 31 32
f 19 32 33
f 19 33 21
f 21 33 34
f 21 34 22
f 22 34 23
f 23 34 35
f 24 36 37
f 24 37 25
f 25 38 26
f 25 37 38
f 26 38 27
f 27 38 37
f 27 37 39
f 27 39 28
f 28 39 40
f 28 40 29
f 29 40 41
f 32 42 33
f 33 42 43
f 33 43 34
f 34 44 45
f 34 45 35
f 34 43 44
f 36 46 37
f 37 46 47
f 37 47 39
f 39 47 48
f 39 48 49
f 39 49 50
f 39 50 41
f 39 41 40
f 42 51 43
f 42 52 51
f 43 53 54
f 43 54 44
f 43 51 55
f 43 55 52
f 43 52 56
f 43 56 53
f 44 54 45
f 45 54 53
f 45 53 57
f 45 57 58
f 46 59 47
f 47 60 48
f 47 59 61
f 47 61 62
f 47 62 60
f 48 60 63
f 48 63 49
f 49 63 64
f 51 52 55
f 52 65 66
f 52 66 67
f 52 67 68
f 52 68 69
f 52 69 70
f 52 70 71
f 52 71 72
f 52 72 73
f 52 73 74
f 52 74 56
f 53 56 57
f 56 74 73
f 56 73 75
f 56 75 57
f 57 75 73
f 57 73 76
f 57 76 58
f 58 76 71
f 59 77 61
f 60 62 78
f 60 78 63
f 61 79 62
f 61 77 79
f 62 80 102
f 62 102 81
f 62 81 82
f 62 82 78
f 62 79 96
f 62 96 80
f 63 83 84
f 63 84 85
f 63 85 64
f 63 78 86
f 63 86 87
f 63 87 83
f 64 85 84
f 65 88 66
f 66 88 89
f 66 89 90
f 66 90 67
f 67 91 68
f 67 90 92
f 67 92 93
f 67 93 94
f 67 94 91
f 71 76 72
f 72 76 73
f 77 95 96
f 77 96 79
f 78 82 81
f 78 81 86
f 80 96 97
f 80 97 111
f 80 111 98
f 80 98 99
f 80 99 100
f 80 100 101
f 80 101 102
f 81 102 103
f 81 103 86
f 86 103 87
f 87 103 104
f 88 105 106
f 88 106 89
f 89 106 107
f 89 107 108
f 89 108 90
f 90 108 109
f 90 109 110
f 90 110 92
f 92 110 93
f 95 97 96
f 98 111 99
f 99 111 112
f 99 112 113
f 99 113 114
f 99 114 100
f 100 114 115
f 100 115 116
f 100 116 117
f 100 117 102
f 100 102 101
f 102 117 103
f 103 117 104
f 104 117 116
f 105 118 119
f 105 119 107
f 105 107 106
f 107 119 120
f 107 120 108
f 108 120 121
f 108 121 109
f 109 121 110
f 110 121 122
f 110 122 123
f 111 124 125
f 111 125 112
f 112 125 113
f 113 125 126
f 113 126 114
f 114 126 127
f 114 127 128
f 114 128 129
f 114 129 115
f 115 129 130
f 115 130 131
f 115 131 116
f 118 132 133
f 118 133 119
f 119 133 120
f 120 133 149
f 120 149 134
f 120 134 135
f 120 135 136
f 120 136 121
f 121 136 137
f 121 137 138
f 121 138 122
f 122 138 123
f 124 139 125
f 125 139 140
f 125 140 141
f 125 141 142
f 125 142 126
f 126 142 143
f 126 143 127
f 127 143 144
f 127 144 128
f 128 144 145
f 128 145 129
f 129 145 130
f 130 145 131
f 132 146 147
f 132 147 148
f 132 148 133
f 133 148 149
f 134 149 150
f 134 150 151
f 134 151 135
f 135 151 136
f 136 151 138
f 136 138 137
f 138 151 152
f 139 153 154
f 139 154 141
f 139 141 140
f 141 154 155
f 141 155 156
f 141 156 157
f 141 157 143
f 141 143 142
f 143 157 158
f 143 158 144
f 146 159 160
f 146 160 147
f 146 161 159
f 147 160 148
f 148 162 149
f 148 160 162
f 149 162 150
f 150 162 163
f 150 163 151
f 151 163 164
f 151 164 165
f 151 165 166
f 151 166 152
f 153 167 168
f 153 168 154
f 154 168 155
f 155 169 156
f 155 168 167
f 156 169 170
f 156 170 171
f 156 171 172
f 156 172 173
f 156 173 174
f 156 174 175
f 156 175 176
f 156 176 177
f 159 178 179
f 159 179 160
f 159 161 180
f 159 180 181
f 159 181 178
f 160 179 162
f 161 182 180
f 162 179 163
f 163 179 178
f 163 178 183
f 163 183 164
f 164 184 185
f 164 185 186
f 164 186 165
f 164 183 187
f 164 187 184
f 165 186 166
f 170 172 171
f 170 188 189
f 170 189 172
f 172 189 190
f 172 190 173
f 173 190 174
f 174 190 189
f 174 189 176
f 174 176 175
f 176 189 191
f 176 191 192
f 176 192 193
f 176 193 177
f 178 181 194
f 178 194 195
f 178 195 196
f 178 196 183
f 180 194 181
f 180 182 197
f 180 197 198
f 180 198 194
f 183 196 199
f 183 199 200
f 183 200 187
f 184 187 200
f 184 200 185
f 185 200 186
f 186 200 201
f 188 202 203
f 188 203 189
f 189 203 191
f 191 203 204
f 191 204 205
f 191 205 206
f 191 206 192
f 192 206 207
f 192 207 193
f 194 198 208
f 194 208 195
f 195 208 198
f 195 198 209
f 195 209 210
f 195 210 211
f 195 211 212
f 195 212 196
f 196 212 213
f 196 213 199
f 198 214 215
f 198 215 209
f 199 213 200
f 200 213 216
f 200 216 201
f 202 217 203
f 203 217 204
f 204 217 218
f 204 218 219
f 204 219 205
f 205 219 220
f 205 220 221
f 205 221 206
f 206 221 207
f 209 215 222
f 209 222 223
f 209 223 224
f 209 224 225
f 209 225 226
f 209 226 213
f 209 213 211
f 209 211 210
f 211 213 212
f 213 227 216
f 213 226 227
f 214 228 222
f 214 222 215
f 218 229 230
f 218 230 219
f 219 230 220
f 220 231 221
f 220 230 232
f 220 232 231
f 221 231 232
f 222 228 233
f 222 233 234
f 222 234 235
f 222 235 223
f 223 235 224
f 224 235 236
f 224 236 237
f 224 237 225
f 225 237 238
f 225 238 239
f 225 239 226
f 226 239 240
f 226 240 227
f 229 241 242
f 229 242 230
f 230 242 243
f 230 243 244
f 230 244 232
f 233 244 234
f 234 244 235
f 235 244 245
f 235 245 243
f 235 243 236
f 236 243 237
f 237 243 246
f 237 246 247
f 237 247 238
f 238 248 249
f 238 249 239
f 239 249 248
f 239 248 240
f 241 247 246
f 241 246 243
f 241 243 242
f 243 245 244
