v -0.010435 0.036365 0.024839
v -0.010601 0.036365 0.027781
v -0.010526 0.036365 0.022780
v -0.012312 0.052483 0.016581
v -0.011282 0.036365 0.031365
v -0.012715 0.054911 0.016458
v -0.013126 0.054534 0.019976
v -0.010867 0.036365 0.019833
v -0.012383 0.051320 0.014176
v -0.012624 0.054155 0.014575
v -0.012005 0.036365 0.033700
v -0.013429 0.056817 0.018117
v -0.013267 0.056893 0.014675
v -0.014226 0.057614 0.020232
v -0.014330 0.056190 0.022153
v -0.011506 0.036365 0.016838
v -0.013213 0.052220 0.010620
v -0.012790 0.053151 0.012564
v -0.013562 0.055898 0.010953
v -0.012844 0.036365 0.035796
v -0.014148 0.059288 0.015806
v -0.014476 0.059345 0.018093
v -0.014006 0.058442 0.012550
v -0.015726 0.060370 0.020313
v -0.015310 0.057981 0.022661
v -0.013803 0.036365 0.037773
v -0.012640 0.036365 0.013701
v -0.013325 0.047896 0.010378
v -0.014019 0.052151 0.008557
v -0.014110 0.054296 0.008657
v -0.014451 0.057931 0.009978
v -0.015177 0.061092 0.015787
v -0.015227 0.060906 0.012788
v -0.015692 0.061251 0.018093
v -0.017806 0.062750 0.020527
v -0.018060 0.061477 0.023298
v -0.016631 0.058827 0.024097
v -0.015302 0.036365 0.040160
v -0.014168 0.036468 0.010639
v -0.014098 0.049219 0.008500
v -0.015510 0.036365 0.008662
v -0.015053 0.052901 0.006589
v -0.015817 0.056648 0.006370
v -0.015834 0.059527 0.008481
v -0.015784 0.060759 0.010535
v -0.016839 0.062863 0.015645
v -0.017300 0.062892 0.018597
v -0.016955 0.062719 0.012422
v -0.019363 0.064444 0.018383
v -0.019667 0.063133 0.022856
v -0.018936 0.060107 0.025742
v -0.016880 0.036365 0.042057
v -0.015829 0.042354 0.006998
v -0.015730 0.049589 0.005724
v -0.017038 0.036365 0.006879
v -0.016710 0.051775 0.004355
v -0.016942 0.054911 0.004402
v -0.017354 0.059574 0.006028
v -0.018089 0.057510 0.003927
v -0.017819 0.062355 0.009403
v -0.018932 0.064416 0.014827
v -0.019135 0.064152 0.011885
v -0.021402 0.065457 0.019096
v -0.021706 0.064717 0.021806
v -0.021402 0.062917 0.024691
v -0.020921 0.060812 0.026697
v -0.018338 0.036365 0.043388
v -0.016876 0.044114 0.005401
v -0.017761 0.046698 0.003984
v -0.017723 0.049137 0.003618
v -0.019118 0.036365 0.004982
v -0.018873 0.043201 0.003718
v -0.019118 0.052904 0.002301
v -0.019991 0.055613 0.001992
v -0.019035 0.061559 0.006332
v -0.020206 0.060054 0.003713
v -0.020190 0.057887 0.002382
v -0.026917 0.067363 0.009161
v -0.027216 0.068320 0.011704
v -0.024895 0.066429 0.020014
v -0.024675 0.065234 0.023061
v -0.023786 0.063908 0.024796
v -0.022806 0.061148 0.027520
v -0.022341 0.059483 0.028670
v -0.020518 0.036365 0.044885
v -0.019376 0.047171 0.002553
v -0.019820 0.050417 0.001873
v -0.021324 0.036365 0.003542
v -0.020215 0.039441 0.003490
v -0.022104 0.054001 0.000690
v -0.022611 0.056980 0.000999
v -0.023005 0.060750 0.002834
v -0.024264 0.059577 0.001469
v -0.026336 0.061041 0.002021
v -0.029521 0.067423 0.008994
v -0.029210 0.068398 0.011894
v -0.030094 0.066084 0.022138
v -0.027183 0.065861 0.022733
v -0.026340 0.063729 0.026132
v -0.025535 0.061719 0.028047
v -0.024339 0.060154 0.029017
v -0.023184 0.036365 0.046297
v -0.021241 0.045365 0.001688
v -0.021261 0.048134 0.001241
v -0.022262 0.050404 0.000561
v -0.023147 0.036365 0.002639
v -0.021328 0.041586 0.002372
v -0.024285 0.052151 -0.000152
v -0.024285 0.054155 -0.000047
v -0.025298 0.057219 0.000238
v -0.027250 0.059219 0.000590
v -0.029442 0.059997 0.000965
v -0.031311 0.061791 0.002449
v -0.033574 0.061951 0.003152
v -0.035227 0.063067 0.005344
v -0.037341 0.062518 0.006142
v -0.038848 0.062716 0.008414
v -0.039230 0.063371 0.011343
v -0.039284 0.063710 0.013553
v -0.038217 0.064475 0.015578
v -0.035676 0.065510 0.018911
v -0.033234 0.065968 0.020584
v -0.031942 0.065385 0.023103
v -0.029471 0.064365 0.025476
v -0.028554 0.062782 0.027463
v -0.028429 0.061070 0.029031
v -0.026245 0.060170 0.029540
v -0.026286 0.036365 0.047381
v -0.022947 0.044223 0.001108
v -0.023292 0.047899 0.000395
v -0.024285 0.050144 -0.000104
v -0.025526 0.036365 0.001821
v -0.027054 0.052151 -0.000618
v -0.027162 0.054384 -0.000513
v -0.027295 0.057168 -0.000104
v -0.029305 0.057168 -0.000157
v -0.032183 0.060276 0.001445
v -0.032117 0.056905 0.000119
v -0.036548 0.059843 0.002686
v -0.036593 0.061690 0.004317
v -0.039799 0.060891 0.006637
v -0.040725 0.061615 0.009546
v -0.041103 0.062214 0.012298
v -0.041161 0.062531 0.014575
v -0.040040 0.063324 0.016329
v -0.038009 0.064528 0.017708
v -0.037918 0.064246 0.020104
v -0.034766 0.065184 0.021620
v -0.034359 0.064190 0.024045
v -0.032885 0.063801 0.025376
v -0.031938 0.062311 0.027458
v -0.030696 0.060558 0.029283
v -0.032042 0.036365 0.047799
v -0.029305 0.036365 0.047880
v -0.024945 0.045785 0.000214
v -0.025289 0.048134 -0.000180
v -0.027104 0.049304 -0.000532
v -0.028525 0.036365 0.001251
v -0.026315 0.043273 0.000357
v -0.029305 0.052901 -0.000684
v -0.030738 0.054462 -0.000513
v -0.034521 0.059006 0.001422
v -0.033317 0.054155 -0.000104
v -0.034255 0.056852 0.000623
v -0.038815 0.057109 0.002967
v -0.038653 0.059586 0.003941
v -0.036186 0.056654 0.001265
v -0.040800 0.058900 0.005933
v -0.041892 0.058987 0.007735
v -0.042386 0.059953 0.010207
v -0.042918 0.060041 0.012892
v -0.042694 0.060753 0.015089
v -0.042000 0.061342 0.017675
v -0.040721 0.062139 0.019557
v -0.038529 0.062703 0.022875
v -0.036423 0.064193 0.022395
v -0.036710 0.062678 0.024658
v -0.034579 0.061769 0.027021
v -0.033491 0.060521 0.028613
v -0.034421 0.036365 0.047438
v -0.027171 0.045873 -0.000195
v -0.029554 0.046124 -0.000309
v -0.030281 0.050160 -0.000575
v -0.033263 0.036365 0.001270
v -0.031286 0.036418 0.001132
v -0.029056 0.043361 0.000053
v -0.031303 0.052151 -0.000551
v -0.033317 0.052151 -0.000180
v -0.035260 0.053129 0.000447
v -0.039442 0.055180 0.002967
v -0.041029 0.054672 0.004288
v -0.040796 0.057147 0.004844
v -0.037225 0.054296 0.001388
v -0.042719 0.054650 0.006294
v -0.043782 0.056541 0.009389
v -0.043599 0.058043 0.010815
v -0.044488 0.057137 0.013339
v -0.044425 0.057554 0.015954
v -0.043599 0.059163 0.017085
v -0.042930 0.059313 0.019529
v -0.041095 0.060060 0.022756
v -0.039513 0.060474 0.024606
v -0.037150 0.060643 0.026583
v -0.041116 0.036365 0.044999
v -0.037333 0.036365 0.046672
v -0.030763 0.048197 -0.000408
v -0.031311 0.045120 -0.000104
v -0.037578 0.036377 0.002159
v -0.035323 0.036440 0.001588
v -0.034571 0.039344 0.001065
v -0.031789 0.042160 0.000324
v -0.040638 0.036365 0.003295
v -0.033317 0.048134 -0.000057
v -0.033317 0.050144 -0.000147
v -0.035493 0.049250 0.000519
v -0.037312 0.052151 0.001308
v -0.039928 0.052138 0.002900
v -0.042482 0.048426 0.004597
v -0.043155 0.050834 0.005790
v -0.040485 0.048081 0.002971
v -0.044334 0.052374 0.008025
v -0.045144 0.053396 0.010440
v -0.045077 0.054961 0.012051
v -0.045277 0.055381 0.014490
v -0.044234 0.057404 0.018697
v -0.052860 0.036365 0.022614
v -0.052835 0.036365 0.024591
v -0.051307 0.036365 0.032069
v -0.042428 0.058790 0.021744
v -0.050177 0.036365 0.034669
v -0.048915 0.036365 0.036837
v -0.047382 0.036365 0.039171
v -0.045551 0.036365 0.041358
v -0.043533 0.036365 0.043297
v -0.033317 0.046124 0.000091
v -0.033437 0.044120 0.000305
v -0.037000 0.044114 0.001279
v -0.036494 0.039372 0.001531
v -0.035327 0.042859 0.000851
v -0.043516 0.036365 0.004887
v -0.039384 0.045497 0.002306
v -0.037333 0.046124 0.001308
v -0.035327 0.045120 0.000656
v -0.038225 0.048887 0.001693
v -0.042519 0.045622 0.004388
v -0.045709 0.036365 0.006660
v -0.043852 0.047181 0.005966
v -0.048026 0.036365 0.009280
v -0.049612 0.036365 0.011609
v -0.041124 0.045622 0.003314
v -0.050651 0.036365 0.013563
v -0.051514 0.036365 0.015635
v -0.052116 0.036365 0.017622
v -0.052665 0.036365 0.020384
v -0.052606 0.036365 0.026578
v -0.052096 0.036365 0.029274
f 1 2 5
f 1 5 11
f 1 11 20
f 1 20 26
f 1 26 38
f 1 38 52
f 1 52 67
f 1 67 85
f 1 85 102
f 1 102 128
f 1 128 154
f 1 154 153
f 1 153 180
f 1 180 205
f 1 205 204
f 1 204 234
f 1 234 233
f 1 233 232
f 1 232 231
f 1 231 230
f 1 230 228
f 1 228 256
f 1 256 255
f 1 255 227
f 1 227 226
f 1 226 254
f 1 254 253
f 1 253 252
f 1 252 251
f 1 251 249
f 1 249 248
f 1 248 246
f 1 246 240
f 1 240 212
f 1 212 184
f 1 184 158
f 1 158 132
f 1 132 106
f 1 106 88
f 1 88 71
f 1 71 55
f 1 55 41
f 1 41 27
f 1 27 16
f 1 16 8
f 1 8 3
f 1 3 4
f 1 4 2
f 2 4 6
f 2 6 7
f 2 7 5
f 3 8 9
f 3 9 4
f 4 9 10
f 4 10 6
f 5 7 11
f 6 12 7
f 6 10 13
f 6 13 12
f 7 12 14
f 7 14 15
f 7 15 11
f 8 16 9
f 9 17 18
f 9 18 10
f 9 16 17
f 10 18 19
f 10 19 13
f 11 15 20
f 12 13 21
f 12 21 22
f 12 22 14
f 13 19 23
f 13 23 21
f 14 22 24
f 14 24 25
f 14 25 15
f 15 25 26
f 15 26 20
f 16 27 28
f 16 28 17
f 17 19 18
f 17 28 29
f 17 29 30
f 17 30 19
f 19 30 31
f 19 31 23
f 21 32 22
f 21 23 33
f 21 33 32
f 22 32 34
f 22 34 24
f 23 31 33
f 24 35 36
f 24 36 37
f 24 37 25
f 24 34 35
f 25 37 26
f 26 37 38
f 27 39 40
f 27 40 28
f 27 41 39
f 28 40 29
f 29 40 42
f 29 42 30
f 30 42 43
f 30 43 31
f 31 43 44
f 31 44 45
f 31 45 33
f 32 33 46
f 32 46 47
f 32 47 34
f 33 45 48
f 33 48 46
f 34 47 35
f 35 47 49
f 35 49 50
f 35 50 36
f 36 50 51
f 36 51 37
f 37 51 52
f 37 52 38
f 39 41 53
f 39 53 54
f 39 54 40
f 40 54 42
f 41 55 53
f 42 54 56
f 42 56 57
f 42 57 43
f 43 58 44
f 43 57 59
f 43 59 58
f 44 60 45
f 44 58 60
f 45 60 48
f 46 49 47
f 46 48 61
f 46 61 49
f 48 60 62
f 48 62 61
f 49 61 63
f 49 63 50
f 50 64 65
f 50 65 51
f 50 63 64
f 51 65 66
f 51 66 67
f 51 67 52
f 53 55 68
f 53 68 54
f 54 68 69
f 54 69 70
f 54 70 56
f 55 71 72
f 55 72 69
f 55 69 68
f 56 70 73
f 56 73 57
f 57 73 74
f 57 74 59
f 58 75 60
f 58 59 76
f 58 76 75
f 59 74 77
f 59 77 76
f 60 75 78
f 60 78 62
f 61 62 79
f 61 79 63
f 62 78 79
f 63 79 80
f 63 80 64
f 64 81 82
f 64 82 65
f 64 80 81
f 65 82 83
f 65 83 66
f 66 83 84
f 66 84 85
f 66 85 67
f 69 72 86
f 69 86 70
f 70 86 87
f 70 87 73
f 71 88 89
f 71 89 72
f 72 89 86
f 73 87 90
f 73 90 74
f 74 90 91
f 74 91 77
f 75 76 92
f 75 92 78
f 76 77 93
f 76 93 92
f 77 91 93
f 78 92 94
f 78 94 95
f 78 95 79
f 79 96 80
f 79 95 96
f 80 96 97
f 80 97 98
f 80 98 81
f 81 98 99
f 81 99 82
f 82 99 83
f 83 100 101
f 83 101 84
f 83 99 100
f 84 101 102
f 84 102 85
f 86 89 103
f 86 103 104
f 86 104 87
f 87 104 105
f 87 105 90
f 88 106 107
f 88 107 89
f 89 107 103
f 90 105 108
f 90 108 109
f 90 109 91
f 91 109 110
f 91 110 93
f 92 93 94
f 93 110 111
f 93 111 94
f 94 111 112
f 94 112 113
f 94 113 95
f 95 113 114
f 95 114 115
f 95 115 116
f 95 116 117
f 95 117 118
f 95 118 96
f 96 118 119
f 96 119 120
f 96 120 121
f 96 121 122
f 96 122 97
f 97 123 124
f 97 124 98
f 97 122 123
f 98 124 99
f 99 124 125
f 99 125 100
f 100 125 126
f 100 126 127
f 100 127 101
f 101 127 128
f 101 128 102
f 103 129 104
f 103 107 129
f 104 129 130
f 104 130 105
f 105 130 131
f 105 131 108
f 106 132 129
f 106 129 107
f 108 131 133
f 108 133 109
f 109 133 134
f 109 134 110
f 110 134 135
f 110 135 111
f 111 135 136
f 111 136 112
f 112 137 113
f 112 136 138
f 112 138 137
f 113 137 114
f 114 137 139
f 114 139 140
f 114 140 115
f 115 140 116
f 116 141 117
f 116 140 141
f 117 142 118
f 117 141 142
f 118 143 119
f 118 142 143
f 119 144 145
f 119 145 120
f 119 143 144
f 120 145 146
f 120 146 121
f 121 146 147
f 121 147 148
f 121 148 122
f 122 148 123
f 123 149 150
f 123 150 124
f 123 148 149
f 124 150 151
f 124 151 125
f 125 152 126
f 125 151 152
f 126 152 153
f 126 153 154
f 126 154 127
f 127 154 128
f 129 132 155
f 129 155 130
f 130 155 156
f 130 156 131
f 131 156 157
f 131 157 133
f 132 158 159
f 132 159 155
f 133 160 134
f 133 157 160
f 134 160 161
f 134 161 136
f 134 136 135
f 136 161 138
f 137 138 162
f 137 162 139
f 138 161 163
f 138 163 164
f 138 164 162
f 139 165 166
f 139 166 140
f 139 162 167
f 139 167 165
f 140 166 141
f 141 166 168
f 141 168 169
f 141 169 142
f 142 169 170
f 142 170 143
f 143 171 172
f 143 172 144
f 143 170 171
f 144 172 173
f 144 173 145
f 145 173 174
f 145 174 147
f 145 147 146
f 147 174 175
f 147 175 176
f 147 176 148
f 148 176 149
f 149 176 177
f 149 177 150
f 150 177 178
f 150 178 151
f 151 178 179
f 151 179 152
f 152 179 180
f 152 180 153
f 155 159 181
f 155 181 156
f 156 181 157
f 157 181 182
f 157 182 183
f 157 183 160
f 158 184 185
f 158 185 186
f 158 186 181
f 158 181 159
f 160 183 187
f 160 187 161
f 161 187 163
f 162 164 167
f 163 187 188
f 163 188 189
f 163 189 167
f 163 167 164
f 165 190 191
f 165 191 192
f 165 192 166
f 165 167 193
f 165 193 190
f 166 192 168
f 167 189 193
f 168 194 169
f 168 192 194
f 169 195 196
f 169 196 170
f 169 194 195
f 170 196 171
f 171 197 172
f 171 196 197
f 172 197 198
f 172 198 199
f 172 199 173
f 173 199 200
f 173 200 174
f 174 200 201
f 174 201 175
f 175 201 202
f 175 202 177
f 175 177 176
f 177 202 203
f 177 203 178
f 178 203 204
f 178 204 179
f 179 204 205
f 179 205 180
f 181 186 182
f 182 206 183
f 182 186 207
f 182 207 206
f 183 206 187
f 184 208 209
f 184 209 210
f 184 210 211
f 184 211 185
f 184 212 208
f 185 211 186
f 186 211 207
f 187 206 213
f 187 213 214
f 187 214 188
f 188 214 215
f 188 215 189
f 189 215 216
f 189 216 193
f 190 217 191
f 190 193 217
f 191 218 219
f 191 219 194
f 191 194 192
f 191 217 218
f 193 216 220
f 193 220 217
f 194 219 221
f 194 221 195
f 195 221 222
f 195 222 223
f 195 223 196
f 196 223 197
f 197 224 198
f 197 223 224
f 198 225 199
f 198 224 226
f 198 226 227
f 198 227 225
f 199 225 200
f 200 225 228
f 200 228 229
f 200 229 201
f 201 229 230
f 201 230 231
f 201 231 232
f 201 232 202
f 202 232 233
f 202 233 234
f 202 234 203
f 203 234 204
f 206 207 235
f 206 235 213
f 207 211 236
f 207 236 235
f 208 237 238
f 208 238 209
f 208 212 237
f 209 238 210
f 210 238 239
f 210 239 236
f 210 236 211
f 212 240 241
f 212 241 242
f 212 242 237
f 213 235 243
f 213 243 215
f 213 215 214
f 215 242 244
f 215 244 216
f 215 243 237
f 215 237 242
f 216 244 220
f 217 220 218
f 218 220 245
f 218 245 246
f 218 246 247
f 218 247 219
f 219 247 248
f 219 248 249
f 219 249 221
f 220 250 245
f 220 244 241
f 220 241 250
f 221 249 251
f 221 251 222
f 222 251 252
f 222 252 253
f 222 253 223
f 223 253 254
f 223 254 224
f 224 254 226
f 225 227 255
f 225 255 256
f 225 256 228
f 228 230 229
f 235 236 239
f 235 239 243
f 237 243 239
f 237 239 238
f 240 246 245
f 240 245 250
f 240 250 241
f 241 244 242
f 246 248 247
