v -0.066787 0.005652 0.027895
v -0.066138 0.006971 0.036866
v -0.065366 0.013805 0.035837
v -0.065575 0.014334 0.030462
v -0.065949 0.010897 0.024677
v -0.064973 0.005745 0.018912
v -0.065490 -0.001718 0.023492
v -0.066204 -0.000646 0.031654
v -0.063808 0.013550 0.042742
v -0.065864 0.001967 0.037335
v -0.063481 0.004633 0.046058
v -0.061347 0.020397 0.041407
v -0.061936 0.022373 0.035166
v -0.062656 0.021502 0.029296
v -0.064679 0.015734 0.024788
v -0.063834 0.011520 0.017720
v -0.061772 0.002262 0.012332
v -0.063939 -0.000371 0.017413
v -0.064070 -0.007057 0.026716
v -0.062296 -0.007499 0.019250
v -0.063887 -0.006374 0.036410
v -0.062106 0.009892 0.048488
v -0.060784 0.015647 0.048019
v -0.063186 -0.001678 0.043733
v -0.060437 -0.001966 0.049472
v -0.059082 0.001853 0.053075
v -0.054715 0.025000 0.047628
v -0.057294 0.026875 0.039680
v -0.052594 0.036362 0.025798
v -0.062283 0.020457 0.023062
v -0.051796 0.036362 0.016931
v -0.061550 0.017195 0.016912
v -0.060181 0.012083 0.011505
v -0.058617 0.003869 0.008104
v -0.056627 -0.002515 0.007485
v -0.059874 -0.006012 0.013022
v -0.059553 -0.013690 0.022241
v -0.062387 -0.010769 0.031426
v -0.057144 -0.013877 0.017029
v -0.060397 -0.012410 0.039101
v -0.060672 -0.006803 0.045531
v -0.057648 0.013490 0.053648
v -0.057543 0.006777 0.055518
v -0.055475 0.020511 0.051387
v -0.058257 -0.011278 0.046430
v -0.056659 -0.006166 0.052723
v -0.053308 0.001163 0.058990
v -0.052404 -0.005001 0.057967
v -0.050696 0.027539 0.049029
v -0.052444 0.030098 0.042899
v -0.050421 0.036362 0.033908
v -0.048876 0.036362 0.010560
v -0.056915 0.012244 0.007778
v -0.053556 0.002061 0.004228
v -0.052542 0.008747 0.003837
v -0.052182 -0.003795 0.004560
v -0.052948 -0.009154 0.007693
v -0.056646 -0.009985 0.011837
v -0.055029 -0.019847 0.024964
v -0.056188 -0.019853 0.030983
v -0.059677 -0.015298 0.031778
v -0.053275 -0.014809 0.012918
v -0.050238 -0.020496 0.017804
v -0.056902 -0.018225 0.037850
v -0.056018 -0.016544 0.044371
v -0.051848 0.008566 0.060228
v -0.052326 0.017288 0.056651
v -0.048745 0.023887 0.054599
v -0.055363 -0.012477 0.050254
v -0.052345 -0.010293 0.055309
v -0.048575 -0.000170 0.061928
v -0.047652 -0.007747 0.060065
v -0.044562 0.029823 0.051049
v -0.043384 0.034010 0.046456
v -0.046375 0.036362 0.040377
v -0.044791 0.036362 0.005941
v -0.047684 0.003220 0.001368
v -0.047115 -0.002817 0.001974
v -0.040235 0.036362 0.003153
v -0.046578 0.009664 0.001198
v -0.046716 -0.007741 0.003563
v -0.048123 -0.012913 0.007179
v -0.049138 -0.024148 0.023941
v -0.051540 -0.024201 0.030749
v -0.053642 -0.022319 0.037263
v -0.046683 -0.018694 0.012299
v -0.043619 -0.025039 0.019772
v -0.052496 -0.021421 0.043198
v -0.053020 -0.017234 0.048703
v -0.047717 0.013014 0.061596
v -0.043076 0.005464 0.064547
v -0.046467 0.020725 0.058469
v -0.041662 0.024430 0.057667
v -0.050277 -0.014949 0.053817
v -0.045884 -0.013824 0.057713
v -0.041806 0.000433 0.064553
v -0.040614 -0.012095 0.060879
v -0.037662 -0.006689 0.063752
v -0.038003 0.028008 0.055739
v -0.035705 0.032757 0.051303
v -0.036281 0.036362 0.046983
v -0.041092 0.001860 -0.000118
v -0.042055 0.006817 0.000013
v -0.040137 -0.005945 0.001205
v -0.034186 0.036362 0.001485
v -0.042677 -0.011459 0.004143
v -0.043226 -0.015566 0.007329
v -0.039816 -0.028415 0.023921
v -0.043442 -0.030083 0.035635
v -0.046126 -0.027189 0.043830
v -0.039515 -0.018949 0.009446
v -0.039358 -0.022975 0.014378
v -0.037616 -0.026231 0.018716
v -0.043384 -0.024583 0.050638
v -0.041655 0.012083 0.064221
v -0.043338 0.017007 0.062019
v -0.034337 0.004077 0.065934
v -0.035751 0.009390 0.065648
v -0.038664 0.019024 0.062267
v -0.034952 0.022976 0.060404
v -0.037224 -0.024677 0.053446
v -0.034507 -0.002053 0.065309
v -0.031554 -0.009268 0.063120
v -0.032477 -0.015391 0.059967
v -0.032844 0.027572 0.057003
v -0.031757 0.035437 0.048866
v -0.026226 0.035551 0.048195
v -0.015464 0.036167 0.040430
v -0.012263 0.036362 0.034280
v -0.033839 0.006000 -0.000619
v -0.031437 0.000339 -0.000443
v -0.034016 -0.008035 0.001439
v -0.025676 0.036362 0.001882
v -0.026939 0.006234 -0.000339
v -0.035855 -0.014815 0.005322
v -0.032013 -0.028167 0.021224
v -0.036916 -0.031852 0.031850
v -0.042002 -0.030291 0.040905
v -0.038605 -0.029212 0.046762
v -0.031135 -0.019552 0.009446
v -0.030167 -0.024436 0.015387
v -0.037047 0.014843 0.064325
v -0.028569 0.003776 0.065635
v -0.029381 0.010864 0.065439
v -0.028772 -0.002997 0.064996
v -0.032045 0.018086 0.063342
v -0.027961 0.023110 0.060312
v -0.032589 -0.023223 0.054899
v -0.031044 -0.027236 0.050873
v -0.026180 -0.008839 0.062579
v -0.024766 -0.016591 0.057928
v -0.028255 0.030419 0.054117
v -0.020674 0.029522 0.052781
v -0.020910 0.034553 0.047218
v -0.015005 0.030915 0.047244
v -0.010070 0.029475 0.042658
v -0.010606 0.036362 0.026814
v -0.006469 0.025803 0.040599
v -0.026278 0.000640 -0.000131
v -0.025715 -0.006401 0.001355
v -0.027967 -0.012491 0.004065
v -0.019077 0.036362 0.005166
v -0.013709 0.007112 0.004215
v -0.019346 0.004312 0.001459
v -0.026219 -0.027651 0.021674
v -0.030730 -0.032080 0.032658
v -0.029276 -0.032006 0.039055
v -0.030101 -0.030633 0.044716
v -0.021781 -0.015572 0.008123
v -0.023601 -0.019820 0.011531
v -0.024065 0.007621 0.064886
v -0.022030 -0.001879 0.063752
v -0.020570 0.011366 0.063368
v -0.025866 0.016022 0.063531
v -0.019791 0.018340 0.060729
v -0.021944 0.023666 0.058397
v -0.026304 -0.025621 0.051107
v -0.020714 -0.010802 0.060065
v -0.017552 -0.004545 0.061400
v -0.016518 -0.012162 0.057400
v -0.016328 0.024765 0.054703
v -0.012027 0.022956 0.052873
v -0.008204 0.023432 0.047921
v -0.004309 0.023445 0.035915
v -0.010763 0.036362 0.020612
v -0.004937 0.017664 0.047889
v -0.003111 0.018715 0.041576
v -0.021944 -0.003198 0.001342
v -0.021670 -0.010273 0.004241
v -0.014927 0.036362 0.009550
v -0.008885 0.005598 0.008163
v -0.010135 0.000058 0.007277
v -0.016007 -0.000834 0.003296
v -0.019575 -0.022325 0.017081
v -0.020413 -0.026345 0.024189
v -0.024478 -0.030211 0.031895
v -0.023090 -0.029735 0.038586
v -0.022154 -0.028201 0.043648
v -0.015411 -0.016999 0.013459
v -0.017251 -0.013288 0.008482
v -0.019280 0.004050 0.063439
v -0.014966 0.001659 0.061381
v -0.014822 0.012116 0.060410
v -0.013244 0.018260 0.057114
v -0.012734 -0.018714 0.048019
v -0.014698 -0.015840 0.053211
v -0.014325 -0.007714 0.058397
v -0.010986 -0.003326 0.057596
v -0.008688 -0.009630 0.051987
v -0.008171 0.016766 0.053166
v -0.002463 0.019111 0.033426
v -0.012092 0.036362 0.015198
v -0.001075 0.014227 0.030117
v -0.002109 0.012760 0.022918
v -0.003765 0.012398 0.048847
v -0.001415 0.011433 0.043205
v -0.000748 0.012411 0.038293
v -0.015542 -0.007131 0.005720
v -0.004184 0.009169 0.015687
v -0.005592 0.002563 0.012436
v -0.008800 -0.006206 0.011192
v -0.012917 -0.018500 0.018671
v -0.013395 -0.021535 0.024260
v -0.015568 -0.024395 0.028716
v -0.014848 -0.024576 0.033635
v -0.013316 -0.023015 0.038658
v -0.012230 -0.010126 0.009967
v -0.009572 -0.011847 0.015055
v -0.007647 0.000727 0.055609
v -0.009061 0.008251 0.056951
v -0.008564 -0.017569 0.041055
v -0.007608 -0.014125 0.045628
v -0.005592 -0.003580 0.051485
v -0.004891 -0.008518 0.046781
v -0.004878 0.008579 0.051934
v 0.000090 0.007923 0.035902
v -0.000158 0.008432 0.029068
v -0.001225 0.004238 0.022410
v -0.001121 0.006100 0.043941
v -0.003333 -0.001329 0.018091
v -0.005684 -0.004625 0.014840
v -0.008682 -0.015572 0.022749
v -0.009644 -0.018862 0.028312
v -0.009965 -0.020068 0.035140
v -0.005389 -0.008792 0.019902
v -0.003955 0.001518 0.050501
v -0.006508 -0.015425 0.031739
v -0.003464 -0.009610 0.039583
v -0.001644 -0.001745 0.043641
v -0.001121 -0.004491 0.037706
v -0.000001 0.000674 0.031746
v 0.000005 0.002798 0.038566
v -0.001127 -0.001959 0.025863
v -0.003209 -0.007707 0.025472
v -0.005756 -0.012470 0.025713
v -0.002842 -0.008819 0.031368
f 1 2 3
f 1 3 4
f 1 4 5
f 1 5 6
f 1 6 7
f 1 7 8
f 1 8 2
f 2 9 3
f 2 8 10
f 2 10 11
f 2 11 9
f 3 9 12
f 3 12 13
f 3 13 4
f 4 13 14
f 4 14 15
f 4 15 5
f 5 15 16
f 5 16 6
f 6 17 18
f 6 18 7
f 6 16 17
f 7 19 8
f 7 18 20
f 7 20 19
f 8 19 21
f 8 21 10
f 9 11 22
f 9 22 23
f 9 23 12
f 10 21 24
f 10 24 11
f 11 24 25
f 11 25 26
f 11 26 22
f 12 23 27
f 12 27 28
f 12 28 13
f 13 28 29
f 13 29 14
f 14 30 15
f 14 29 31
f 14 31 30
f 15 30 32
f 15 32 16
f 16 33 17
f 16 32 33
f 17 33 34
f 17 34 35
f 17 35 36
f 17 36 18
f 18 36 20
f 19 20 37
f 19 37 38
f 19 38 21
f 20 36 39
f 20 39 37
f 21 38 40
f 21 40 41
f 21 41 24
f 22 42 23
f 22 26 43
f 22 43 42
f 23 44 27
f 23 42 44
f 24 41 25
f 25 41 45
f 25 45 46
f 25 46 26
f 26 47 43
f 26 46 48
f 26 48 47
f 27 44 49
f 27 49 50
f 27 50 28
f 28 50 51
f 28 51 29
f 29 51 75
f 29 75 101
f 29 101 129
f 29 129 157
f 29 157 185
f 29 185 212
f 29 212 190
f 29 190 162
f 29 162 133
f 29 133 105
f 29 105 79
f 29 79 76
f 29 76 52
f 29 52 31
f 30 31 32
f 31 52 32
f 32 52 33
f 33 53 34
f 33 52 53
f 34 54 35
f 34 53 55
f 34 55 54
f 35 56 57
f 35 57 58
f 35 58 36
f 35 54 56
f 36 58 39
f 37 39 59
f 37 59 60
f 37 60 61
f 37 61 38
f 38 61 40
f 39 62 63
f 39 63 59
f 39 58 62
f 40 45 41
f 40 61 64
f 40 64 65
f 40 65 45
f 42 43 66
f 42 66 67
f 42 67 44
f 43 47 66
f 44 68 49
f 44 67 68
f 45 65 69
f 45 69 46
f 46 69 70
f 46 70 48
f 47 48 71
f 47 71 66
f 48 70 72
f 48 72 71
f 49 73 74
f 49 74 75
f 49 75 50
f 49 68 73
f 50 75 51
f 52 76 53
f 53 76 55
f 54 55 77
f 54 77 78
f 54 78 56
f 55 76 79
f 55 79 80
f 55 80 77
f 56 78 81
f 56 81 57
f 57 81 82
f 57 82 62
f 57 62 58
f 59 63 83
f 59 83 84
f 59 84 60
f 60 64 61
f 60 84 85
f 60 85 64
f 62 86 63
f 62 82 86
f 63 86 87
f 63 87 83
f 64 85 88
f 64 88 65
f 65 88 89
f 65 89 69
f 66 90 67
f 66 71 91
f 66 91 90
f 67 92 68
f 67 90 92
f 68 92 93
f 68 93 73
f 69 89 94
f 69 94 70
f 70 94 95
f 70 95 72
f 71 72 96
f 71 96 91
f 72 95 97
f 72 97 98
f 72 98 96
f 73 93 99
f 73 99 100
f 73 100 101
f 73 101 74
f 74 101 75
f 77 102 78
f 77 80 103
f 77 103 102
f 78 104 81
f 78 102 104
f 79 105 80
f 80 105 103
f 81 106 82
f 81 104 106
f 82 106 107
f 82 107 86
f 83 87 108
f 83 108 109
f 83 109 84
f 84 109 85
f 85 109 110
f 85 110 88
f 86 111 112
f 86 112 87
f 86 107 111
f 87 112 113
f 87 113 108
f 88 110 89
f 89 110 114
f 89 114 94
f 90 91 115
f 90 115 116
f 90 116 92
f 91 96 117
f 91 117 118
f 91 118 115
f 92 116 93
f 93 116 119
f 93 119 120
f 93 120 99
f 94 114 95
f 95 114 121
f 95 121 97
f 96 98 122
f 96 122 117
f 97 123 98
f 97 121 124
f 97 124 123
f 98 123 122
f 99 125 100
f 99 120 125
f 100 125 126
f 100 126 101
f 101 126 127
f 101 127 128
f 101 128 129
f 102 103 130
f 102 130 131
f 102 131 104
f 103 105 130
f 104 132 106
f 104 131 132
f 105 133 134
f 105 134 130
f 106 132 135
f 106 135 107
f 107 135 111
f 108 136 137
f 108 137 109
f 108 113 136
f 109 137 138
f 109 138 110
f 110 138 139
f 110 139 114
f 111 135 140
f 111 140 112
f 112 141 113
f 112 140 141
f 113 141 136
f 114 139 121
f 115 118 142
f 115 142 116
f 116 142 119
f 117 143 144
f 117 144 118
f 117 122 145
f 117 145 143
f 118 144 142
f 119 142 146
f 119 146 120
f 120 147 125
f 120 146 147
f 121 148 124
f 121 139 149
f 121 149 148
f 122 123 145
f 123 150 145
f 123 124 150
f 124 148 151
f 124 151 150
f 125 152 126
f 125 147 152
f 126 152 127
f 127 152 153
f 127 153 154
f 127 154 128
f 128 154 155
f 128 155 156
f 128 156 129
f 129 156 158
f 129 158 157
f 130 134 131
f 131 134 159
f 131 159 160
f 131 160 132
f 132 161 135
f 132 160 161
f 133 162 163
f 133 163 164
f 133 164 134
f 134 164 159
f 135 161 140
f 136 165 166
f 136 166 137
f 136 141 165
f 137 166 167
f 137 167 138
f 138 167 168
f 138 168 139
f 139 168 149
f 140 161 169
f 140 169 170
f 140 170 141
f 141 170 165
f 142 144 146
f 143 171 144
f 143 145 172
f 143 172 171
f 144 171 173
f 144 173 174
f 144 174 146
f 145 150 172
f 146 174 147
f 147 174 175
f 147 175 176
f 147 176 152
f 148 149 177
f 148 177 151
f 149 168 177
f 150 151 178
f 150 178 179
f 150 179 172
f 151 177 180
f 151 180 178
f 152 176 153
f 153 155 154
f 153 176 181
f 153 181 155
f 155 181 182
f 155 182 183
f 155 183 156
f 156 183 158
f 157 184 185
f 157 158 184
f 158 183 186
f 158 186 187
f 158 187 184
f 159 164 188
f 159 188 160
f 160 188 189
f 160 189 161
f 161 189 169
f 162 190 191
f 162 191 163
f 163 191 192
f 163 192 193
f 163 193 164
f 164 193 188
f 165 170 194
f 165 194 195
f 165 195 196
f 165 196 166
f 166 196 167
f 167 196 197
f 167 197 198
f 167 198 168
f 168 198 177
f 169 199 170
f 169 189 200
f 169 200 199
f 170 199 194
f 171 172 201
f 171 201 173
f 172 179 202
f 172 202 201
f 173 201 203
f 173 203 175
f 173 175 174
f 175 203 204
f 175 204 181
f 175 181 176
f 177 198 205
f 177 205 206
f 177 206 180
f 178 180 207
f 178 207 179
f 179 208 202
f 179 207 208
f 180 209 207
f 180 206 209
f 181 204 182
f 182 204 210
f 182 210 183
f 183 210 186
f 184 187 211
f 184 211 185
f 185 211 213
f 185 213 214
f 185 214 212
f 186 210 215
f 186 215 216
f 186 216 187
f 187 216 217
f 187 217 211
f 188 193 218
f 188 218 189
f 189 218 200
f 190 212 219
f 190 219 191
f 191 220 192
f 191 219 220
f 192 220 221
f 192 221 218
f 192 218 193
f 194 199 222
f 194 222 195
f 195 222 223
f 195 223 224
f 195 224 196
f 196 224 225
f 196 225 197
f 197 225 226
f 197 226 198
f 198 226 205
f 199 200 227
f 199 227 228
f 199 228 222
f 200 218 227
f 201 202 203
f 202 229 230
f 202 230 203
f 202 208 229
f 203 230 204
f 204 230 210
f 205 231 232
f 205 232 209
f 205 209 206
f 205 226 231
f 207 209 208
f 208 209 233
f 208 233 229
f 209 234 233
f 209 232 234
f 210 230 235
f 210 235 215
f 211 217 213
f 212 214 219
f 213 217 236
f 213 236 237
f 213 237 214
f 214 237 238
f 214 238 219
f 215 235 239
f 215 239 216
f 216 236 217
f 216 239 236
f 218 221 227
f 219 238 220
f 220 238 240
f 220 240 241
f 220 241 221
f 221 241 228
f 221 228 227
f 222 228 242
f 222 242 223
f 223 242 243
f 223 243 224
f 224 243 225
f 225 243 244
f 225 244 226
f 226 244 231
f 228 241 245
f 228 245 242
f 229 246 235
f 229 235 230
f 229 233 246
f 231 244 247
f 231 247 248
f 231 248 232
f 232 248 234
f 233 249 246
f 233 234 249
f 234 248 250
f 234 250 249
f 235 246 239
f 236 251 237
f 236 239 252
f 236 252 251
f 237 251 238
f 238 251 253
f 238 253 240
f 239 246 249
f 239 249 252
f 240 253 254
f 240 254 245
f 240 245 241
f 242 245 255
f 242 255 243
f 243 255 247
f 243 247 244
f 245 254 255
f 247 255 256
f 247 256 248
f 248 256 250
f 249 250 252
f 250 256 253
f 250 253 251
f 250 251 252
f 253 256 254
f 254 256 255
