v -0.015829 0.012627 0.007954
v -0.021044 0.016163 0.007954
v -0.015177 0.015296 0.007954
v -0.013203 0.012627 0.013075
v -0.019808 0.012627 0.009704
v -0.019752 0.012762 0.008275
v -0.020548 0.014762 0.008037
v -0.021407 0.017284 0.007954
v -0.027175 0.014377 0.070010
v -0.015361 0.016195 0.007954
v -0.017460 0.040663 0.008018
v -0.012764 0.012627 0.014060
v -0.019830 0.012627 0.010559
v -0.020086 0.013528 0.008314
v -0.021624 0.018006 0.007954
v -0.027138 0.014392 0.070885
v -0.027432 0.015285 0.070010
v -0.027676 0.016238 0.069701
v -0.020182 0.012627 0.039300
v -0.020187 0.012627 0.040188
v -0.020191 0.012627 0.041526
v -0.019725 0.027899 0.007954
v -0.020700 0.040602 0.008018
v -0.020697 0.042142 0.041526
v -0.017631 0.042142 0.041526
v -0.017412 0.040663 0.012174
v -0.012315 0.012627 0.016562
v -0.012380 0.012627 0.015681
v -0.012522 0.012627 0.014838
v -0.021856 0.018879 0.007954
v -0.027387 0.015285 0.070885
v -0.021191 0.013898 0.067674
v -0.024568 0.014377 0.073529
v -0.026615 0.014505 0.072223
v -0.027776 0.016903 0.071174
v -0.027913 0.017035 0.070010
v -0.017059 0.012627 0.041526
v -0.022971 0.027722 0.007954
v -0.020947 0.039825 0.008018
v -0.027399 0.040698 0.070010
v -0.027045 0.041755 0.070171
v -0.026899 0.041816 0.069186
v -0.021186 0.042142 0.067520
v -0.017647 0.042142 0.043708
v -0.017021 0.038944 0.027944
v -0.017657 0.042142 0.044589
v -0.017689 0.042142 0.047214
v -0.017806 0.042142 0.055109
v -0.012328 0.012627 0.017444
v -0.022081 0.019714 0.008314
v -0.022384 0.021228 0.008147
v -0.022554 0.022297 0.007954
v -0.028124 0.017914 0.070010
v -0.027631 0.016177 0.070885
v -0.017990 0.013898 0.067674
v -0.022818 0.014377 0.073600
v -0.023695 0.014392 0.073632
v -0.024568 0.015285 0.073587
v -0.025443 0.017914 0.073561
v -0.025443 0.017035 0.073504
v -0.025752 0.016163 0.073311
v -0.025747 0.015314 0.073214
v -0.025605 0.014496 0.073156
v -0.026500 0.016163 0.072854
v -0.027746 0.018792 0.072333
v -0.027754 0.018055 0.072030
v -0.028033 0.018792 0.071760
v -0.028068 0.017914 0.070885
v -0.012448 0.012627 0.018390
v -0.022796 0.024221 0.007954
v -0.022953 0.025798 0.008314
v -0.022996 0.026677 0.008314
v -0.023055 0.027543 0.008674
v -0.022966 0.028540 0.008018
v -0.022920 0.029415 0.008018
v -0.022577 0.032810 0.008018
v -0.022464 0.033709 0.008018
v -0.022360 0.034431 0.008018
v -0.022188 0.035419 0.008018
v -0.021979 0.036318 0.008018
v -0.021587 0.037716 0.008018
v -0.021301 0.038805 0.008340
v -0.027656 0.039678 0.069714
v -0.027855 0.038947 0.070010
v -0.027826 0.038947 0.070885
v -0.027352 0.040698 0.070885
v -0.027016 0.041694 0.070949
v -0.026742 0.041694 0.071799
v -0.025378 0.041816 0.073092
v -0.018043 0.042142 0.067443
v -0.022693 0.041813 0.073587
v -0.018015 0.042142 0.066497
v -0.028534 0.019997 0.069489
v -0.022698 0.023259 0.007954
v -0.028837 0.021418 0.070010
v -0.028307 0.018792 0.070010
v -0.018355 0.041813 0.070003
v -0.018375 0.014377 0.070010
v -0.018646 0.014377 0.071026
v -0.019035 0.014377 0.071741
v -0.019561 0.014377 0.072339
v -0.020258 0.014377 0.072815
v -0.021024 0.014377 0.073220
v -0.021939 0.014377 0.073491
v -0.025445 0.028092 0.073684
v -0.024568 0.017035 0.073632
v -0.024568 0.016163 0.073619
v -0.025443 0.018792 0.073600
v -0.026320 0.021418 0.073529
v -0.026320 0.020543 0.073484
v -0.026320 0.019668 0.073426
v -0.026320 0.018792 0.073356
v -0.026661 0.018035 0.073118
v -0.026619 0.017035 0.072976
v -0.027370 0.019668 0.072873
v -0.027820 0.019668 0.072435
v -0.028509 0.022773 0.072191
v -0.028182 0.019668 0.071760
v -0.028531 0.020647 0.071194
v -0.028250 0.018792 0.070885
v -0.022898 0.024969 0.008314
v -0.029179 0.024047 0.070010
v -0.029254 0.024926 0.070010
v -0.029303 0.025801 0.070010
v -0.029349 0.026677 0.070010
v -0.029376 0.027552 0.070010
v -0.029264 0.028427 0.069135
v -0.029227 0.029306 0.069135
v -0.022896 0.030181 0.008340
v -0.022811 0.031056 0.008340
v -0.022714 0.031935 0.008340
v -0.028975 0.031935 0.069135
v -0.028865 0.032810 0.069135
v -0.028748 0.033689 0.069135
v -0.028584 0.034864 0.069135
v -0.022364 0.034919 0.008784
v -0.028245 0.037193 0.070010
v -0.028062 0.038068 0.070010
v -0.028035 0.038068 0.070885
v -0.027571 0.039683 0.071213
v -0.027613 0.038947 0.071734
v -0.026863 0.040726 0.072146
v -0.026215 0.041694 0.072506
v -0.025762 0.040741 0.073105
v -0.024449 0.041755 0.073446
v -0.021817 0.041813 0.073478
v -0.020765 0.041813 0.073163
v -0.019772 0.041813 0.072493
v -0.018962 0.041813 0.071567
v -0.018593 0.041813 0.070859
v -0.023703 0.041637 0.073574
v -0.023806 0.040585 0.073594
v -0.028665 0.020543 0.070010
v -0.028982 0.023172 0.069135
v -0.028478 0.019861 0.070724
v -0.028738 0.021418 0.070885
v -0.029089 0.024047 0.070885
v -0.026323 0.028427 0.073639
v -0.025443 0.021418 0.073639
v -0.025446 0.034567 0.073613
v -0.026323 0.029306 0.073632
v -0.025443 0.019668 0.073619
v -0.026320 0.027552 0.073632
v -0.027197 0.024926 0.073362
v -0.027197 0.024047 0.073330
v -0.027090 0.021418 0.073246
v -0.026933 0.019668 0.073175
v -0.027253 0.020543 0.073092
v -0.027527 0.021418 0.073008
v -0.027885 0.020543 0.072526
v -0.028788 0.024926 0.072062
v -0.028832 0.024047 0.071760
v -0.028636 0.022297 0.071657
v -0.027952 0.024926 0.072970
v -0.028210 0.026677 0.072834
v -0.029179 0.024926 0.070885
v -0.029279 0.026677 0.070885
v -0.029309 0.028092 0.070885
v -0.029353 0.028427 0.070010
v -0.029152 0.030184 0.069135
v -0.029299 0.029306 0.070010
v -0.029226 0.030184 0.070010
v -0.029060 0.031935 0.070010
v -0.028949 0.032810 0.070010
v -0.028696 0.034535 0.070010
v -0.028533 0.035558 0.070010
v -0.028401 0.036318 0.070010
v -0.028381 0.036318 0.070885
v -0.028217 0.037193 0.070885
v -0.027978 0.037193 0.071760
v -0.027461 0.037973 0.072294
v -0.026949 0.039822 0.072371
v -0.026652 0.037257 0.073111
v -0.026196 0.038068 0.073227
v -0.025446 0.039822 0.073343
v -0.026791 0.038947 0.072699
v -0.026634 0.038068 0.073002
v -0.024568 0.040698 0.073497
v -0.024568 0.039822 0.073549
v -0.025446 0.035442 0.073600
v -0.027203 0.027928 0.073388
v -0.026323 0.031059 0.073587
v -0.027197 0.030184 0.073368
v -0.027771 0.026677 0.073163
v -0.027688 0.024047 0.073111
v -0.028828 0.025801 0.072075
v -0.029029 0.026677 0.071760
v -0.027978 0.025801 0.072995
v -0.028212 0.027552 0.072847
v -0.028444 0.028427 0.072629
v -0.028850 0.027763 0.072127
v -0.029060 0.028427 0.071760
v -0.029247 0.029306 0.070885
v -0.029144 0.031059 0.070010
v -0.029186 0.030184 0.070885
v -0.029109 0.031059 0.070885
v -0.029027 0.031935 0.070885
v -0.028920 0.032810 0.070885
v -0.028800 0.033689 0.070885
v -0.028678 0.034567 0.070885
v -0.028584 0.034567 0.071515
v -0.028154 0.036318 0.071760
v -0.028394 0.034567 0.071953
v -0.027876 0.035442 0.072448
v -0.027541 0.036318 0.072583
v -0.026851 0.036318 0.073130
v -0.026323 0.036318 0.073349
v -0.026323 0.035442 0.073420
v -0.025446 0.038947 0.073407
v -0.025446 0.038068 0.073471
v -0.025446 0.037193 0.073529
v -0.025446 0.036318 0.073568
v -0.026323 0.034567 0.073471
v -0.026323 0.031935 0.073561
v -0.027278 0.031958 0.073246
v -0.027444 0.031059 0.073227
v -0.027945 0.030184 0.072970
v -0.028427 0.029306 0.072616
v -0.028653 0.030184 0.072358
v -0.029015 0.029306 0.071760
v -0.028959 0.030184 0.071760
v -0.028892 0.031059 0.071760
v -0.028818 0.031935 0.071760
v -0.028645 0.033689 0.071670
v -0.028583 0.031935 0.072281
v -0.027769 0.033689 0.072783
v -0.027447 0.034503 0.072950
v -0.027158 0.035442 0.073034
v -0.027577 0.032810 0.073047
v -0.027005 0.034567 0.073208
v -0.027724 0.032042 0.073008
v -0.028129 0.031059 0.072764
f 1 2 8
f 1 8 15
f 1 15 30
f 1 30 52
f 1 52 94
f 1 94 70
f 1 70 38
f 1 38 22
f 1 22 10
f 1 10 3
f 1 3 4
f 1 4 12
f 1 12 29
f 1 29 28
f 1 28 27
f 1 27 49
f 1 49 69
f 1 69 37
f 1 37 21
f 1 21 20
f 1 20 19
f 1 19 13
f 1 13 5
f 1 5 6
f 1 6 7
f 1 7 2
f 2 7 9
f 2 9 8
f 3 10 11
f 3 11 12
f 3 12 4
f 5 13 9
f 5 9 6
f 6 14 7
f 6 9 14
f 7 14 9
f 8 9 15
f 9 16 17
f 9 17 18
f 9 18 15
f 9 13 19
f 9 19 20
f 9 20 21
f 9 21 16
f 10 22 11
f 11 22 23
f 11 23 24
f 11 24 25
f 11 25 26
f 11 26 27
f 11 27 28
f 11 28 29
f 11 29 12
f 15 18 30
f 16 31 17
f 16 21 32
f 16 32 33
f 16 33 34
f 16 34 35
f 16 35 31
f 17 36 18
f 17 31 36
f 18 36 30
f 21 37 55
f 21 55 32
f 22 38 23
f 23 38 39
f 23 39 40
f 23 40 41
f 23 41 42
f 23 42 24
f 24 42 43
f 24 43 90
f 24 90 92
f 24 92 48
f 24 48 47
f 24 47 46
f 24 46 44
f 24 44 25
f 25 44 27
f 25 27 45
f 25 45 26
f 26 45 27
f 27 44 46
f 27 46 47
f 27 47 48
f 27 48 49
f 30 50 51
f 30 51 52
f 30 36 53
f 30 53 50
f 31 35 54
f 31 54 36
f 32 55 56
f 32 56 33
f 33 56 57
f 33 57 58
f 33 58 59
f 33 59 60
f 33 60 61
f 33 61 62
f 33 62 63
f 33 63 34
f 34 63 64
f 34 64 65
f 34 65 66
f 34 66 35
f 35 66 67
f 35 67 68
f 35 68 54
f 36 54 68
f 36 68 53
f 37 69 55
f 38 70 71
f 38 71 72
f 38 72 73
f 38 73 74
f 38 74 75
f 38 75 76
f 38 76 77
f 38 77 78
f 38 78 79
f 38 79 80
f 38 80 81
f 38 81 39
f 39 81 82
f 39 82 40
f 40 83 84
f 40 84 85
f 40 85 86
f 40 86 41
f 40 82 81
f 40 81 83
f 41 86 87
f 41 87 88
f 41 88 89
f 41 89 42
f 42 89 43
f 43 89 91
f 43 91 90
f 48 92 49
f 49 92 90
f 49 90 55
f 49 55 69
f 50 53 93
f 50 93 51
f 51 93 52
f 52 93 95
f 52 95 94
f 53 68 96
f 53 96 93
f 55 90 97
f 55 97 98
f 55 98 99
f 55 99 100
f 55 100 101
f 55 101 102
f 55 102 103
f 55 103 104
f 55 104 56
f 56 91 57
f 56 104 91
f 57 105 106
f 57 106 107
f 57 107 58
f 57 91 105
f 58 107 108
f 58 108 59
f 59 109 110
f 59 110 60
f 59 108 109
f 60 110 111
f 60 111 112
f 60 112 61
f 61 112 113
f 61 113 62
f 62 113 114
f 62 114 63
f 63 114 64
f 64 114 65
f 65 114 115
f 65 115 116
f 65 116 117
f 65 117 67
f 65 67 66
f 67 118 119
f 67 119 120
f 67 120 68
f 67 117 118
f 68 120 96
f 70 121 71
f 70 94 122
f 70 122 121
f 71 121 123
f 71 123 124
f 71 124 125
f 71 125 72
f 72 125 126
f 72 126 73
f 73 126 74
f 74 126 127
f 74 127 128
f 74 128 75
f 75 129 130
f 75 130 76
f 75 128 129
f 76 130 131
f 76 131 132
f 76 132 133
f 76 133 77
f 77 133 134
f 77 134 135
f 77 135 78
f 78 135 136
f 78 136 79
f 79 136 137
f 79 137 138
f 79 138 80
f 80 138 83
f 80 83 81
f 83 138 84
f 84 138 139
f 84 139 85
f 85 139 140
f 85 140 86
f 86 140 87
f 87 140 88
f 88 140 141
f 88 141 142
f 88 142 143
f 88 143 89
f 89 143 144
f 89 144 145
f 89 145 91
f 90 91 146
f 90 146 147
f 90 147 148
f 90 148 149
f 90 149 150
f 90 150 97
f 91 145 151
f 91 151 152
f 91 152 105
f 91 104 146
f 93 96 153
f 93 153 95
f 94 95 154
f 94 154 122
f 95 153 155
f 95 155 156
f 95 156 157
f 95 157 122
f 95 122 154
f 96 120 153
f 97 150 99
f 97 99 98
f 99 149 100
f 99 150 149
f 100 149 148
f 100 148 101
f 101 148 102
f 102 148 147
f 102 147 103
f 103 147 146
f 103 146 104
f 105 158 159
f 105 159 106
f 105 152 160
f 105 160 161
f 105 161 158
f 106 162 107
f 106 159 162
f 107 162 108
f 108 162 109
f 109 162 163
f 109 163 164
f 109 164 165
f 109 165 166
f 109 166 110
f 110 166 111
f 111 166 167
f 111 167 112
f 112 167 113
f 113 167 168
f 113 168 115
f 113 115 114
f 115 168 169
f 115 169 170
f 115 170 116
f 116 170 117
f 117 171 172
f 117 172 173
f 117 173 118
f 117 170 169
f 117 169 174
f 117 174 175
f 117 175 171
f 118 173 119
f 119 173 156
f 119 156 120
f 120 156 155
f 120 155 153
f 121 122 123
f 122 157 176
f 122 176 123
f 123 176 177
f 123 177 124
f 124 177 125
f 125 177 126
f 126 177 178
f 126 178 179
f 126 179 127
f 127 179 128
f 128 180 129
f 128 179 181
f 128 181 182
f 128 182 180
f 129 180 130
f 130 180 132
f 130 132 131
f 132 180 183
f 132 183 133
f 133 183 184
f 133 184 134
f 134 184 135
f 135 184 185
f 135 185 186
f 135 186 187
f 135 187 137
f 135 137 136
f 137 187 188
f 137 188 189
f 137 189 139
f 137 139 138
f 139 189 190
f 139 190 141
f 139 141 140
f 141 190 191
f 141 191 192
f 141 192 142
f 142 192 143
f 143 192 144
f 144 193 194
f 144 194 195
f 144 195 145
f 144 192 196
f 144 196 197
f 144 197 193
f 145 195 198
f 145 198 151
f 151 198 199
f 151 199 200
f 151 200 152
f 152 200 160
f 156 173 157
f 157 173 172
f 157 172 176
f 158 163 159
f 158 161 201
f 158 201 163
f 159 163 162
f 160 200 161
f 161 200 202
f 161 202 203
f 161 203 201
f 163 201 164
f 164 201 204
f 164 204 205
f 164 205 165
f 165 205 166
f 166 205 169
f 166 169 168
f 166 168 167
f 169 205 174
f 171 175 206
f 171 206 207
f 171 207 172
f 172 207 176
f 174 205 208
f 174 208 175
f 175 208 209
f 175 209 210
f 175 210 211
f 175 211 206
f 176 207 177
f 177 207 178
f 178 207 212
f 178 212 213
f 178 213 179
f 179 213 181
f 180 182 214
f 180 214 183
f 181 213 215
f 181 215 182
f 182 215 216
f 182 216 217
f 182 217 214
f 183 214 217
f 183 217 218
f 183 218 184
f 184 218 219
f 184 219 220
f 184 220 185
f 185 220 186
f 186 220 188
f 186 188 187
f 188 220 221
f 188 221 189
f 189 221 190
f 190 221 222
f 190 222 223
f 190 223 191
f 191 224 225
f 191 225 192
f 191 223 224
f 192 225 196
f 193 226 194
f 193 197 226
f 194 227 195
f 194 226 227
f 195 227 228
f 195 228 229
f 195 229 198
f 196 225 197
f 197 225 226
f 198 230 231
f 198 231 199
f 198 229 230
f 199 231 232
f 199 232 200
f 200 232 233
f 200 233 234
f 200 234 202
f 201 203 204
f 202 234 203
f 203 235 236
f 203 236 204
f 203 234 233
f 203 233 235
f 204 236 237
f 204 237 209
f 204 209 208
f 204 208 205
f 206 211 207
f 207 211 212
f 209 237 238
f 209 238 210
f 210 238 239
f 210 239 211
f 211 239 212
f 212 239 240
f 212 240 213
f 213 240 241
f 213 241 215
f 215 241 242
f 215 242 243
f 215 243 216
f 216 243 217
f 217 243 221
f 217 221 218
f 218 221 219
f 219 221 220
f 221 243 244
f 221 244 223
f 221 223 222
f 223 244 245
f 223 245 224
f 224 245 246
f 224 246 247
f 224 247 225
f 225 247 248
f 225 248 226
f 226 248 249
f 226 249 250
f 226 250 228
f 226 228 227
f 228 250 233
f 228 233 231
f 228 231 230
f 228 230 229
f 231 233 232
f 233 250 235
f 235 250 236
f 236 250 249
f 236 249 251
f 236 251 237
f 237 251 252
f 237 252 238
f 238 252 239
f 239 252 245
f 239 245 240
f 240 245 241
f 241 245 242
f 242 245 243
f 243 245 244
f 245 252 251
f 245 251 246
f 246 251 249
f 246 249 247
f 247 249 248
