v 0.003051 0.059765 0.016168
v 0.000893 0.063960 0.067472
v 0.000893 0.060898 0.067472
v 0.001207 0.057046 0.018307
v 0.002100 0.058316 0.016554
v 0.002082 0.058344 0.015680
v 0.002408 0.059765 0.008000
v -0.000446 0.069183 0.070895
v -0.000152 0.068772 0.072115
v -0.000152 0.067717 0.073021
v -0.000152 0.066939 0.073329
v -0.000152 0.064306 0.073374
v -0.018295 0.041822 0.069489
v -0.000443 0.055142 0.021203
v 0.000232 0.055812 0.019302
v -0.000152 0.063000 0.072969
v -0.000152 0.061719 0.072141
v -0.000152 0.060987 0.071177
v -0.018780 0.041822 0.071235
v 0.000605 0.056253 0.018307
v 0.001363 0.057239 0.017433
v 0.001348 0.057267 0.016554
v 0.001307 0.057320 0.015680
v 0.000479 0.056136 0.017132
v 0.000288 0.056164 0.015680
v -0.017453 0.040669 0.008000
v -0.006682 0.058727 0.008000
v -0.005329 0.059611 0.008334
v -0.000645 0.069149 0.069874
v -0.001785 0.068717 0.070009
v -0.001785 0.068680 0.070882
v -0.002507 0.068340 0.071165
v -0.001843 0.068337 0.071884
v -0.001024 0.068560 0.072012
v -0.001720 0.067904 0.072468
v -0.001456 0.067290 0.073001
v -0.002909 0.066380 0.073155
v -0.001785 0.066121 0.073361
v -0.000528 0.066090 0.073457
v -0.000528 0.065214 0.073489
v -0.003705 0.065953 0.073181
v -0.022753 0.042140 0.073605
v -0.021816 0.041822 0.073483
v -0.020815 0.041822 0.073187
v -0.018234 0.040669 0.041515
v -0.018210 0.041822 0.068256
v -0.001098 0.054487 0.021062
v -0.000405 0.055101 0.020066
v -0.000393 0.055089 0.019187
v -0.019808 0.041822 0.072532
v -0.000543 0.055014 0.017960
v -0.000496 0.055193 0.016791
v -0.020580 0.040949 0.008000
v -0.001321 0.054277 0.018037
v -0.002246 0.053440 0.019187
v -0.017403 0.040669 0.012168
v -0.020771 0.040669 0.009124
v -0.008065 0.057741 0.008334
v -0.011833 0.063031 0.069829
v -0.010602 0.063969 0.070009
v -0.009522 0.064708 0.069880
v -0.008797 0.065180 0.070009
v -0.008876 0.057071 0.008000
v -0.002557 0.068362 0.069681
v -0.007889 0.065733 0.070009
v -0.007041 0.066216 0.070009
v -0.006289 0.066629 0.070009
v -0.004929 0.067332 0.070009
v -0.003705 0.067913 0.070009
v -0.003538 0.067949 0.070882
v -0.004348 0.067514 0.071190
v -0.003770 0.067343 0.072077
v -0.002660 0.067611 0.072366
v -0.004894 0.066277 0.072603
v -0.006800 0.064714 0.073027
v -0.003538 0.065244 0.073393
v -0.004413 0.064368 0.073470
v -0.001785 0.065244 0.073489
v -0.003538 0.064368 0.073502
v -0.017555 0.052106 0.073598
v -0.004642 0.065470 0.073194
v -0.021933 0.045094 0.073605
v -0.022811 0.043341 0.073598
v -0.023631 0.042140 0.073566
v -0.024444 0.041822 0.073438
v -0.021255 0.040669 0.041515
v -0.017406 0.040669 0.028819
v -0.002020 0.053649 0.020933
v -0.001077 0.054459 0.020066
v -0.001080 0.054456 0.019187
v -0.020236 0.041811 0.008000
v -0.026946 0.042060 0.070009
v -0.026479 0.043341 0.070009
v -0.026015 0.044544 0.069867
v -0.002243 0.053434 0.020066
v -0.017400 0.040669 0.017427
v -0.020856 0.040669 0.010414
v -0.010326 0.055913 0.008000
v -0.013051 0.062082 0.070009
v -0.011753 0.063106 0.070689
v -0.010576 0.063949 0.070882
v -0.009510 0.064694 0.071004
v -0.008797 0.065149 0.070882
v -0.007041 0.066149 0.070882
v -0.005646 0.066902 0.070882
v -0.007742 0.065708 0.071177
v -0.005587 0.066489 0.072077
v -0.006166 0.065900 0.072391
v -0.007716 0.064418 0.072866
v -0.008512 0.063748 0.072976
v -0.007555 0.063670 0.073252
v -0.005291 0.064368 0.073393
v -0.006166 0.063494 0.073464
v -0.005291 0.063494 0.073496
v -0.013172 0.057359 0.073547
v -0.015800 0.054738 0.073573
v -0.016677 0.053856 0.073579
v -0.018428 0.051226 0.073598
v -0.021933 0.045970 0.073579
v -0.022811 0.045094 0.073509
v -0.023689 0.043341 0.073483
v -0.023689 0.044217 0.073387
v -0.024708 0.042950 0.073226
v -0.025375 0.041822 0.073091
v -0.020944 0.040669 0.014800
v -0.026382 0.041822 0.072263
v -0.017397 0.040669 0.027946
v -0.019899 0.042760 0.008501
v -0.018877 0.044904 0.008334
v -0.018014 0.046445 0.008013
v -0.015424 0.050503 0.008000
v -0.026858 0.042004 0.071210
v -0.026564 0.043011 0.070882
v -0.025965 0.044575 0.070940
v -0.025410 0.045970 0.070009
v -0.020888 0.040669 0.011288
v -0.011375 0.054997 0.008000
v -0.014966 0.060466 0.070009
v -0.014023 0.061283 0.070009
v -0.014011 0.061272 0.070882
v -0.012799 0.062232 0.071133
v -0.010253 0.064036 0.071518
v -0.008741 0.064951 0.071698
v -0.007111 0.065557 0.072224
v -0.008165 0.064918 0.072295
v -0.009087 0.064211 0.072385
v -0.009821 0.062852 0.072976
v -0.009249 0.062729 0.073194
v -0.009672 0.061738 0.073380
v -0.007916 0.062618 0.073432
v -0.008797 0.061738 0.073464
v -0.014047 0.057359 0.073521
v -0.007041 0.062618 0.073483
v -0.015800 0.055606 0.073528
v -0.016675 0.054738 0.073521
v -0.017555 0.052979 0.073573
v -0.018428 0.052106 0.073560
v -0.019303 0.050350 0.073579
v -0.019303 0.051226 0.073541
v -0.021933 0.046847 0.073521
v -0.022811 0.045970 0.073419
v -0.023766 0.045484 0.073175
v -0.024338 0.044217 0.073168
v -0.025096 0.044055 0.072751
v -0.020920 0.040669 0.013047
v -0.025997 0.043472 0.072064
v -0.020906 0.040669 0.012129
v -0.019253 0.044217 0.008661
v -0.025075 0.046556 0.069315
v -0.024171 0.048463 0.069662
v -0.024746 0.047397 0.070009
v -0.023181 0.050233 0.069700
v -0.017068 0.048265 0.009368
v -0.016084 0.049602 0.008334
v -0.014563 0.051623 0.008064
v -0.012840 0.053521 0.008000
v -0.021490 0.052976 0.070009
v -0.020715 0.054090 0.070009
v -0.019520 0.055731 0.070009
v -0.025204 0.046319 0.071023
v -0.016818 0.058799 0.070009
v -0.015896 0.059636 0.070009
v -0.015180 0.060267 0.070882
v -0.013700 0.061381 0.071473
v -0.010828 0.063198 0.072186
v -0.010018 0.063865 0.072102
v -0.008993 0.064644 0.071942
v -0.011665 0.062425 0.072353
v -0.011480 0.061758 0.072911
v -0.012173 0.060901 0.073078
v -0.011351 0.061205 0.073207
v -0.014047 0.058235 0.073412
v -0.010547 0.060865 0.073419
v -0.012297 0.059988 0.073329
v -0.011422 0.059988 0.073451
v -0.015800 0.056482 0.073425
v -0.017555 0.053856 0.073515
v -0.018428 0.052979 0.073489
v -0.019303 0.052106 0.073438
v -0.020180 0.050350 0.073476
v -0.021933 0.047723 0.073412
v -0.021989 0.048630 0.073245
v -0.023366 0.047006 0.073008
v -0.021722 0.049473 0.073175
v -0.023965 0.047391 0.072404
v -0.024858 0.045886 0.072199
v -0.023634 0.049473 0.070009
v -0.024532 0.047723 0.070882
v -0.023980 0.048764 0.070882
v -0.022491 0.051422 0.070009
v -0.013621 0.052778 0.008334
v -0.018891 0.056516 0.070009
v -0.022177 0.051857 0.070882
v -0.021613 0.052708 0.070882
v -0.020621 0.054112 0.070882
v -0.018862 0.056477 0.070882
v -0.024009 0.048173 0.071788
v -0.017661 0.057917 0.070009
v -0.016578 0.058994 0.070882
v -0.015894 0.059631 0.070882
v -0.015949 0.059257 0.071762
v -0.014613 0.060385 0.071935
v -0.015183 0.059701 0.072186
v -0.012270 0.061738 0.072500
v -0.013659 0.060267 0.072751
v -0.014079 0.059380 0.073085
v -0.016076 0.057420 0.073091
v -0.016675 0.055606 0.073406
v -0.016948 0.056527 0.073085
v -0.019338 0.052990 0.073252
v -0.020180 0.051226 0.073367
v -0.022160 0.049473 0.072943
v -0.020166 0.052052 0.073194
v -0.020976 0.051349 0.073008
v -0.023079 0.049127 0.072378
v -0.023410 0.049565 0.071351
v -0.018055 0.057437 0.070882
v -0.021563 0.052440 0.071678
v -0.019705 0.055293 0.071088
v -0.018877 0.056058 0.071800
v -0.018055 0.056999 0.071890
v -0.022080 0.051098 0.072211
v -0.017253 0.058165 0.071242
v -0.015726 0.059028 0.072346
v -0.014945 0.058805 0.072963
v -0.017388 0.057200 0.072410
v -0.017799 0.055776 0.072976
v -0.018818 0.053959 0.073162
v -0.018216 0.056318 0.072398
v -0.021684 0.050523 0.072854
v -0.020451 0.052306 0.072969
v -0.021311 0.051941 0.072462
v -0.020415 0.053484 0.072333
v -0.018997 0.055371 0.072340
f 1 2 3
f 1 3 4
f 1 4 5
f 1 5 6
f 1 6 7
f 1 7 8
f 1 8 9
f 1 9 2
f 2 9 10
f 2 10 11
f 2 11 12
f 2 12 3
f 3 13 14
f 3 14 15
f 3 15 4
f 3 12 16
f 3 16 17
f 3 17 18
f 3 18 19
f 3 19 13
f 4 15 20
f 4 20 21
f 4 21 5
f 5 21 22
f 5 22 6
f 6 22 23
f 6 23 7
f 7 23 24
f 7 24 25
f 7 25 26
f 7 26 53
f 7 53 91
f 7 91 131
f 7 131 176
f 7 176 137
f 7 137 98
f 7 98 63
f 7 63 27
f 7 27 28
f 7 28 29
f 7 29 8
f 8 29 30
f 8 30 31
f 8 31 32
f 8 32 33
f 8 33 34
f 8 34 9
f 9 34 35
f 9 35 10
f 10 35 36
f 10 36 37
f 10 37 11
f 11 38 39
f 11 39 40
f 11 40 12
f 11 37 41
f 11 41 38
f 12 40 42
f 12 42 43
f 12 43 44
f 12 44 16
f 13 45 46
f 13 46 47
f 13 47 14
f 13 19 45
f 14 47 48
f 14 48 15
f 15 48 49
f 15 49 20
f 16 50 17
f 16 44 50
f 17 50 19
f 17 19 18
f 19 50 45
f 20 24 21
f 20 49 24
f 21 24 22
f 22 24 23
f 24 49 51
f 24 51 52
f 24 52 25
f 25 52 26
f 26 52 54
f 26 54 55
f 26 55 56
f 26 56 96
f 26 96 127
f 26 127 87
f 26 87 45
f 26 45 86
f 26 86 125
f 26 125 165
f 26 165 167
f 26 167 136
f 26 136 97
f 26 97 57
f 26 57 53
f 27 58 59
f 27 59 60
f 27 60 61
f 27 61 62
f 27 62 28
f 27 63 58
f 28 64 30
f 28 30 29
f 28 62 65
f 28 65 66
f 28 66 67
f 28 67 68
f 28 68 69
f 28 69 64
f 30 64 69
f 30 69 70
f 30 70 31
f 31 70 32
f 32 70 71
f 32 71 33
f 33 72 73
f 33 73 35
f 33 35 34
f 33 71 72
f 35 74 36
f 35 73 74
f 36 74 37
f 37 74 75
f 37 75 41
f 38 41 76
f 38 76 39
f 39 76 77
f 39 77 78
f 39 78 40
f 40 78 79
f 40 79 80
f 40 80 42
f 41 81 76
f 41 75 81
f 42 80 82
f 42 82 83
f 42 83 84
f 42 84 85
f 42 85 43
f 43 85 86
f 43 86 45
f 43 45 44
f 44 45 50
f 45 87 46
f 46 87 88
f 46 88 47
f 47 88 89
f 47 89 48
f 48 89 49
f 49 89 90
f 49 90 54
f 49 54 51
f 51 54 52
f 53 57 92
f 53 92 93
f 53 93 94
f 53 94 91
f 54 90 55
f 55 90 95
f 55 95 56
f 56 95 96
f 57 97 92
f 58 63 59
f 59 63 98
f 59 98 99
f 59 99 100
f 59 100 60
f 60 100 101
f 60 101 102
f 60 102 61
f 61 102 62
f 62 102 103
f 62 103 65
f 65 103 104
f 65 104 66
f 66 104 67
f 67 104 105
f 67 105 68
f 68 105 70
f 68 70 69
f 70 105 71
f 71 105 106
f 71 106 107
f 71 107 72
f 72 107 73
f 73 107 108
f 73 108 74
f 74 108 75
f 75 108 109
f 75 109 110
f 75 110 111
f 75 111 81
f 76 112 77
f 76 81 112
f 77 113 114
f 77 114 79
f 77 79 78
f 77 112 113
f 79 114 115
f 79 115 116
f 79 116 80
f 80 116 117
f 80 117 118
f 80 118 82
f 81 111 112
f 82 118 119
f 82 119 83
f 83 119 84
f 84 119 120
f 84 120 121
f 84 121 85
f 85 121 122
f 85 122 123
f 85 123 124
f 85 124 86
f 86 124 126
f 86 126 125
f 87 127 95
f 87 95 88
f 88 95 89
f 89 95 90
f 91 128 129
f 91 129 130
f 91 130 131
f 91 94 128
f 92 132 133
f 92 133 93
f 92 97 132
f 93 133 134
f 93 134 94
f 94 134 135
f 94 135 128
f 95 127 96
f 97 136 132
f 98 137 138
f 98 138 139
f 98 139 99
f 99 139 140
f 99 140 100
f 100 140 141
f 100 141 101
f 101 141 142
f 101 142 102
f 102 142 143
f 102 143 106
f 102 106 103
f 103 106 104
f 104 106 105
f 106 143 107
f 107 144 108
f 107 143 144
f 108 144 145
f 108 145 109
f 109 145 146
f 109 146 110
f 110 146 147
f 110 147 148
f 110 148 111
f 111 148 149
f 111 149 150
f 111 150 112
f 112 150 113
f 113 151 152
f 113 152 153
f 113 153 114
f 113 150 151
f 114 153 152
f 114 152 115
f 115 152 116
f 116 152 117
f 117 152 154
f 117 154 155
f 117 155 156
f 117 156 118
f 118 156 157
f 118 157 158
f 118 158 119
f 119 158 159
f 119 159 160
f 119 160 120
f 120 160 161
f 120 161 121
f 121 161 122
f 122 161 162
f 122 162 163
f 122 163 123
f 123 163 124
f 124 163 164
f 124 164 126
f 125 126 165
f 126 164 166
f 126 166 132
f 126 132 136
f 126 136 167
f 126 167 165
f 128 168 129
f 128 135 169
f 128 169 168
f 129 170 130
f 129 168 171
f 129 171 170
f 130 170 172
f 130 172 173
f 130 173 174
f 130 174 131
f 131 175 176
f 131 174 177
f 131 177 178
f 131 178 179
f 131 179 175
f 132 166 134
f 132 134 133
f 134 166 180
f 134 180 135
f 135 171 169
f 135 180 171
f 137 176 181
f 137 181 182
f 137 182 138
f 138 182 183
f 138 183 139
f 139 183 140
f 140 183 184
f 140 184 141
f 141 184 142
f 142 184 185
f 142 185 186
f 142 186 143
f 143 186 187
f 143 187 145
f 143 145 144
f 145 187 186
f 145 186 146
f 146 186 188
f 146 188 147
f 147 189 190
f 147 190 191
f 147 191 148
f 147 188 189
f 148 191 149
f 149 192 193
f 149 193 150
f 149 191 194
f 149 194 192
f 150 193 151
f 151 193 195
f 151 195 152
f 152 195 192
f 152 192 196
f 152 196 154
f 154 196 155
f 155 197 156
f 155 196 197
f 156 197 157
f 157 159 158
f 157 197 159
f 159 197 198
f 159 198 199
f 159 199 200
f 159 200 160
f 160 200 231
f 160 231 201
f 160 201 161
f 161 201 202
f 161 202 162
f 162 203 163
f 162 202 204
f 162 204 203
f 163 203 164
f 164 203 205
f 164 205 206
f 164 206 166
f 166 206 180
f 168 169 171
f 170 171 207
f 170 207 172
f 171 180 208
f 171 208 209
f 171 209 207
f 172 207 210
f 172 210 173
f 173 210 174
f 174 210 177
f 175 211 176
f 175 179 212
f 175 212 211
f 176 211 181
f 177 210 213
f 177 213 214
f 177 214 178
f 178 214 215
f 178 215 179
f 179 215 216
f 179 216 212
f 180 206 217
f 180 217 208
f 181 218 219
f 181 219 220
f 181 220 182
f 181 211 218
f 182 220 183
f 183 220 184
f 184 220 221
f 184 221 222
f 184 222 185
f 185 222 188
f 185 188 186
f 188 222 223
f 188 223 224
f 188 224 189
f 189 224 225
f 189 225 226
f 189 226 190
f 190 226 191
f 191 226 194
f 192 195 193
f 192 194 226
f 192 226 227
f 192 227 196
f 196 228 197
f 196 227 229
f 196 229 228
f 197 228 198
f 198 228 230
f 198 230 199
f 199 230 231
f 199 231 200
f 201 231 202
f 202 231 204
f 203 232 205
f 203 204 232
f 204 231 233
f 204 233 234
f 204 234 232
f 205 235 217
f 205 217 206
f 205 232 235
f 207 209 213
f 207 213 210
f 208 217 236
f 208 236 209
f 209 236 213
f 211 212 218
f 212 216 237
f 212 237 218
f 213 236 238
f 213 238 214
f 214 238 215
f 215 238 239
f 215 239 216
f 216 239 240
f 216 240 241
f 216 241 237
f 217 235 242
f 217 242 238
f 217 238 236
f 218 237 219
f 219 237 243
f 219 243 221
f 219 221 220
f 221 241 244
f 221 244 223
f 221 223 222
f 221 243 241
f 223 244 225
f 223 225 224
f 225 245 226
f 225 244 245
f 226 245 227
f 227 245 244
f 227 244 246
f 227 246 229
f 228 229 230
f 229 247 248
f 229 248 230
f 229 246 249
f 229 249 247
f 230 233 231
f 230 248 233
f 232 234 250
f 232 250 235
f 233 248 251
f 233 251 234
f 234 251 250
f 235 250 252
f 235 252 242
f 237 241 243
f 238 242 253
f 238 253 240
f 238 240 239
f 240 253 254
f 240 254 249
f 240 249 241
f 241 249 246
f 241 246 244
f 242 252 253
f 247 251 248
f 247 249 251
f 249 254 253
f 249 253 251
f 250 251 252
f 251 253 252
