v 0.050321 0.014467 0.067361
v 0.054680 0.014467 0.067586
v 0.047143 0.014467 0.067374
v 0.047014 0.014740 0.041533
v 0.050026 0.014740 0.041533
v 0.055627 0.014467 0.068233
v 0.047172 0.014467 0.068695
v 0.025471 0.060415 0.008001
v 0.048786 0.027716 0.008001
v 0.051772 0.028230 0.008392
v 0.056000 0.014467 0.069137
v 0.027869 0.060956 0.067329
v 0.047297 0.014467 0.070040
v 0.032922 0.060346 0.008520
v 0.035240 0.058847 0.008014
v 0.051467 0.032326 0.008001
v 0.027869 0.064050 0.067329
v 0.029432 0.069125 0.070745
v 0.029535 0.069157 0.069752
v 0.051705 0.029199 0.008001
v 0.058131 0.025372 0.069137
v 0.057855 0.022743 0.069573
v 0.057403 0.020082 0.068688
v 0.056639 0.016747 0.069137
v 0.058266 0.027920 0.069842
v 0.058257 0.026796 0.069778
v 0.056513 0.016196 0.070015
v 0.056096 0.014884 0.070451
v 0.055313 0.014633 0.072181
v 0.051303 0.014467 0.073412
v 0.029432 0.061705 0.072155
v 0.029432 0.063038 0.072924
v 0.029432 0.064361 0.073328
v 0.047852 0.014467 0.071438
v 0.034276 0.059500 0.008328
v 0.031712 0.068194 0.069137
v 0.032122 0.068119 0.070015
v 0.034058 0.067123 0.069342
v 0.035503 0.066395 0.069573
v 0.036812 0.065656 0.069573
v 0.038405 0.064709 0.069707
v 0.037012 0.057626 0.008328
v 0.037878 0.056984 0.008328
v 0.038889 0.056116 0.008097
v 0.043429 0.051518 0.008065
v 0.039618 0.063900 0.069573
v 0.051611 0.030629 0.008001
v 0.049679 0.040152 0.008167
v 0.051310 0.033643 0.008071
v 0.057454 0.035752 0.069034
v 0.058102 0.030629 0.069137
v 0.029676 0.067573 0.072873
v 0.031163 0.068413 0.071040
v 0.029795 0.068440 0.072104
v 0.058163 0.025805 0.070015
v 0.057996 0.024060 0.070015
v 0.057659 0.022304 0.070893
v 0.057367 0.019943 0.070072
v 0.057040 0.018359 0.069573
v 0.057823 0.032374 0.070893
v 0.058112 0.028102 0.070893
v 0.058061 0.026244 0.070893
v 0.056841 0.017920 0.070893
v 0.056481 0.016892 0.071393
v 0.056427 0.018016 0.071963
v 0.055624 0.016587 0.072469
v 0.054632 0.015730 0.073001
v 0.053820 0.014884 0.073213
v 0.052591 0.014884 0.073437
v 0.029612 0.065678 0.073380
v 0.049888 0.014467 0.073098
v 0.048838 0.014467 0.072482
v 0.032742 0.067717 0.071027
v 0.033634 0.067359 0.070495
v 0.036183 0.065897 0.071008
v 0.038109 0.064794 0.070854
v 0.040546 0.063263 0.069752
v 0.039506 0.063852 0.071027
v 0.043133 0.061111 0.069137
v 0.040713 0.054467 0.008328
v 0.043868 0.060479 0.069137
v 0.039676 0.055452 0.008334
v 0.042417 0.052722 0.008347
v 0.048321 0.056165 0.070015
v 0.049733 0.054114 0.069137
v 0.044366 0.050292 0.008328
v 0.045037 0.049334 0.008340
v 0.046103 0.047658 0.008328
v 0.046745 0.046603 0.008283
v 0.048681 0.042743 0.008340
v 0.049226 0.041432 0.008328
v 0.055537 0.042979 0.069573
v 0.056022 0.041582 0.069573
v 0.050250 0.038600 0.008648
v 0.050530 0.037460 0.008340
v 0.050899 0.035886 0.008328
v 0.057101 0.037636 0.069573
v 0.057354 0.035907 0.070656
v 0.057704 0.034130 0.069573
v 0.057923 0.032374 0.069573
v 0.030668 0.067728 0.072469
v 0.030922 0.066641 0.073110
v 0.031763 0.066432 0.073027
v 0.032318 0.067284 0.072181
v 0.057817 0.023621 0.070893
v 0.057383 0.022304 0.071764
v 0.057444 0.021062 0.070976
v 0.057120 0.019237 0.070893
v 0.057666 0.033685 0.070893
v 0.057396 0.034671 0.071367
v 0.057415 0.033247 0.071835
v 0.057643 0.031062 0.071764
v 0.057669 0.027122 0.072040
v 0.056613 0.021025 0.072514
v 0.055724 0.019825 0.073001
v 0.054725 0.018359 0.073258
v 0.053451 0.016169 0.073412
v 0.053451 0.017481 0.073450
v 0.053451 0.018798 0.073476
v 0.041188 0.058231 0.073380
v 0.035490 0.062610 0.073373
v 0.035053 0.063483 0.073328
v 0.031095 0.065683 0.073296
v 0.054330 0.023621 0.073463
v 0.048189 0.050345 0.073392
v 0.034103 0.066411 0.072181
v 0.034883 0.066582 0.071156
v 0.037214 0.064826 0.071931
v 0.040639 0.063108 0.070745
v 0.041782 0.062305 0.070015
v 0.041897 0.062043 0.071002
v 0.038540 0.063804 0.072213
v 0.039650 0.063135 0.072053
v 0.041121 0.062005 0.072136
v 0.042350 0.061261 0.071822
v 0.044774 0.059639 0.069137
v 0.041506 0.053734 0.008655
v 0.044456 0.059981 0.070451
v 0.045425 0.058986 0.070893
v 0.047782 0.056496 0.070893
v 0.048562 0.055538 0.071002
v 0.049762 0.054119 0.070156
v 0.050446 0.053081 0.070015
v 0.051149 0.051914 0.069720
v 0.052385 0.049756 0.069137
v 0.053024 0.048622 0.069137
v 0.047846 0.044815 0.009533
v 0.047881 0.044478 0.008507
v 0.054164 0.046298 0.069137
v 0.054905 0.044623 0.069573
v 0.055316 0.043332 0.070893
v 0.056205 0.040704 0.070893
v 0.056395 0.040340 0.069573
v 0.056786 0.038953 0.069573
v 0.056995 0.037636 0.070893
v 0.035997 0.063563 0.073219
v 0.034398 0.065024 0.073027
v 0.057470 0.025372 0.072117
v 0.057178 0.023369 0.072264
v 0.056841 0.022304 0.072495
v 0.056536 0.038075 0.071809
v 0.056574 0.036908 0.072104
v 0.056574 0.035008 0.072502
v 0.057098 0.031475 0.072450
v 0.056703 0.027122 0.072886
v 0.056276 0.022304 0.072937
v 0.055531 0.021089 0.073181
v 0.055534 0.022743 0.073277
v 0.054330 0.019670 0.073431
v 0.043807 0.056480 0.073354
v 0.042925 0.057353 0.073347
v 0.037686 0.061732 0.073322
v 0.054330 0.033685 0.073431
v 0.055207 0.024499 0.073405
v 0.049066 0.049028 0.073392
v 0.049942 0.048589 0.073341
v 0.045557 0.054339 0.073360
v 0.036806 0.063750 0.072995
v 0.035901 0.065496 0.072117
v 0.043490 0.060528 0.071495
v 0.038912 0.062332 0.072982
v 0.040382 0.061400 0.072912
v 0.041182 0.060849 0.072886
v 0.043255 0.060329 0.072079
v 0.042816 0.060303 0.072418
v 0.046873 0.056914 0.071771
v 0.050510 0.052331 0.071559
v 0.050234 0.053193 0.070893
v 0.047589 0.055859 0.071989
v 0.049692 0.053300 0.071758
v 0.051242 0.051636 0.070816
v 0.052241 0.050094 0.070015
v 0.052770 0.049173 0.070015
v 0.053708 0.047299 0.070015
v 0.054343 0.045961 0.070015
v 0.054786 0.044681 0.070983
v 0.055714 0.041726 0.071374
v 0.056501 0.039173 0.071290
v 0.038623 0.061802 0.073206
v 0.038369 0.062342 0.073130
v 0.056427 0.025805 0.073040
v 0.055473 0.040538 0.072296
v 0.055846 0.038953 0.072405
v 0.055576 0.037636 0.072867
v 0.056565 0.033247 0.072726
v 0.056398 0.030190 0.073027
v 0.056106 0.024280 0.073136
v 0.055987 0.025805 0.073213
v 0.044732 0.056518 0.073219
v 0.041573 0.059269 0.073245
v 0.055396 0.030629 0.073328
v 0.054330 0.034981 0.073412
v 0.053451 0.039392 0.073380
v 0.051878 0.044649 0.073335
v 0.050257 0.049376 0.073187
v 0.049368 0.050800 0.073174
v 0.047891 0.053231 0.073130
v 0.041034 0.060276 0.073155
v 0.042244 0.059725 0.072982
v 0.043721 0.059446 0.072444
v 0.044928 0.058541 0.072207
v 0.047159 0.055891 0.072393
v 0.052231 0.049869 0.070918
v 0.050228 0.051769 0.072380
v 0.051181 0.050827 0.071976
v 0.047936 0.055003 0.072354
v 0.053197 0.048038 0.071008
v 0.053981 0.046127 0.071393
v 0.054700 0.043841 0.071854
v 0.054822 0.042690 0.072258
v 0.054732 0.041582 0.072668
v 0.054375 0.040479 0.073104
v 0.055499 0.036078 0.073104
v 0.056241 0.031501 0.073053
v 0.044167 0.057396 0.073149
v 0.046180 0.055790 0.072982
v 0.055566 0.033910 0.073206
v 0.054330 0.036325 0.073373
v 0.054330 0.038514 0.073283
v 0.053451 0.041143 0.073290
v 0.053011 0.043306 0.073200
v 0.050950 0.048097 0.073162
v 0.052867 0.045083 0.073008
v 0.052430 0.046073 0.072989
v 0.052167 0.047529 0.072694
v 0.051554 0.049467 0.072437
v 0.043544 0.058413 0.073033
v 0.045772 0.056807 0.072707
v 0.052192 0.048707 0.072245
v 0.053059 0.046946 0.072245
v 0.054112 0.044210 0.072418
v 0.055056 0.037197 0.073181
v 0.053297 0.045961 0.072444
f 1 2 6
f 1 6 11
f 1 11 30
f 1 30 71
f 1 71 72
f 1 72 34
f 1 34 13
f 1 13 7
f 1 7 3
f 1 3 4
f 1 4 5
f 1 5 2
f 2 5 6
f 3 7 8
f 3 8 4
f 4 8 9
f 4 9 5
f 5 9 10
f 5 10 11
f 5 11 6
f 7 12 8
f 7 13 12
f 8 14 15
f 8 15 16
f 8 16 47
f 8 47 20
f 8 20 9
f 8 12 17
f 8 17 18
f 8 18 19
f 8 19 14
f 9 20 10
f 10 21 22
f 10 22 23
f 10 23 24
f 10 24 11
f 10 20 25
f 10 25 26
f 10 26 21
f 11 24 27
f 11 27 28
f 11 28 29
f 11 29 30
f 12 13 31
f 12 31 32
f 12 32 33
f 12 33 17
f 13 34 31
f 14 35 15
f 14 19 36
f 14 36 37
f 14 37 38
f 14 38 39
f 14 39 40
f 14 40 41
f 14 41 35
f 15 42 43
f 15 43 44
f 15 44 45
f 15 45 16
f 15 35 41
f 15 41 46
f 15 46 42
f 16 45 48
f 16 48 49
f 16 49 50
f 16 50 51
f 16 51 47
f 17 33 52
f 17 52 18
f 18 53 37
f 18 37 19
f 18 52 54
f 18 54 53
f 19 37 36
f 20 47 51
f 20 51 25
f 21 26 55
f 21 55 56
f 21 56 22
f 22 56 57
f 22 57 58
f 22 58 23
f 23 58 59
f 23 59 24
f 24 59 27
f 25 60 61
f 25 61 26
f 25 51 60
f 26 61 62
f 26 62 55
f 27 58 63
f 27 63 28
f 27 59 58
f 28 63 64
f 28 64 29
f 29 65 66
f 29 66 67
f 29 67 68
f 29 68 30
f 29 64 65
f 30 68 69
f 30 69 70
f 30 70 33
f 30 33 71
f 31 34 32
f 32 34 72
f 32 72 33
f 33 72 71
f 33 70 52
f 37 53 73
f 37 73 74
f 37 74 39
f 37 39 38
f 39 74 75
f 39 75 40
f 40 75 76
f 40 76 41
f 41 77 46
f 41 76 78
f 41 78 77
f 42 46 77
f 42 77 43
f 43 77 79
f 43 79 44
f 44 80 45
f 44 79 81
f 44 81 82
f 44 82 80
f 45 80 83
f 45 83 84
f 45 84 85
f 45 85 86
f 45 86 87
f 45 87 88
f 45 88 89
f 45 89 48
f 48 89 90
f 48 90 91
f 48 91 92
f 48 92 93
f 48 93 94
f 48 94 95
f 48 95 49
f 49 95 96
f 49 96 50
f 50 97 98
f 50 98 99
f 50 99 51
f 50 96 97
f 51 99 100
f 51 100 60
f 52 101 54
f 52 70 102
f 52 102 103
f 52 103 101
f 53 54 104
f 53 104 73
f 54 101 104
f 55 62 105
f 55 105 56
f 56 105 57
f 57 105 106
f 57 106 107
f 57 107 58
f 58 107 108
f 58 108 63
f 60 100 109
f 60 109 110
f 60 110 111
f 60 111 112
f 60 112 61
f 61 112 113
f 61 113 62
f 62 113 106
f 62 106 105
f 63 108 64
f 64 108 107
f 64 107 106
f 64 106 65
f 65 106 114
f 65 114 66
f 66 114 115
f 66 115 67
f 67 115 116
f 67 116 68
f 68 116 117
f 68 117 69
f 69 117 118
f 69 118 119
f 69 119 70
f 70 120 121
f 70 121 122
f 70 122 123
f 70 123 102
f 70 119 124
f 70 124 125
f 70 125 120
f 73 104 126
f 73 126 127
f 73 127 74
f 74 127 75
f 75 127 128
f 75 128 76
f 76 128 78
f 77 78 129
f 77 129 130
f 77 130 79
f 78 131 129
f 78 128 132
f 78 132 133
f 78 133 134
f 78 134 135
f 78 135 131
f 79 130 81
f 80 82 136
f 80 136 137
f 80 137 83
f 81 136 82
f 81 130 138
f 81 138 136
f 83 137 84
f 84 138 139
f 84 139 140
f 84 140 141
f 84 141 142
f 84 142 85
f 84 137 136
f 84 136 138
f 85 89 88
f 85 88 87
f 85 87 86
f 85 142 143
f 85 143 144
f 85 144 89
f 89 144 145
f 89 145 146
f 89 146 147
f 89 147 148
f 89 148 90
f 90 148 147
f 90 147 149
f 90 149 91
f 91 149 150
f 91 150 92
f 92 150 151
f 92 151 93
f 93 151 152
f 93 152 153
f 93 153 94
f 94 153 154
f 94 154 95
f 95 154 97
f 95 97 96
f 97 154 155
f 97 155 98
f 98 155 110
f 98 110 109
f 98 109 99
f 99 109 100
f 101 126 104
f 101 103 126
f 102 123 156
f 102 156 157
f 102 157 103
f 103 157 126
f 106 113 158
f 106 158 159
f 106 159 160
f 106 160 114
f 110 155 161
f 110 161 111
f 111 161 162
f 111 162 163
f 111 163 164
f 111 164 112
f 112 164 113
f 113 159 158
f 113 164 165
f 113 165 159
f 114 160 166
f 114 166 115
f 115 167 116
f 115 166 167
f 116 168 169
f 116 169 117
f 116 167 168
f 117 169 118
f 118 169 119
f 119 169 124
f 120 125 170
f 120 170 171
f 120 171 172
f 120 172 121
f 121 172 122
f 122 172 156
f 122 156 123
f 124 173 125
f 124 169 174
f 124 174 173
f 125 175 176
f 125 176 177
f 125 177 170
f 125 173 175
f 126 157 178
f 126 178 179
f 126 179 127
f 127 179 128
f 128 179 132
f 129 131 130
f 130 131 138
f 131 135 180
f 131 180 138
f 132 134 133
f 132 179 178
f 132 178 181
f 132 181 182
f 132 182 183
f 132 183 134
f 134 184 135
f 134 183 185
f 134 185 184
f 135 184 180
f 138 180 139
f 139 180 186
f 139 186 140
f 140 186 141
f 141 187 188
f 141 188 142
f 141 186 189
f 141 189 190
f 141 190 187
f 142 188 191
f 142 191 143
f 143 191 192
f 143 192 144
f 144 192 145
f 145 192 193
f 145 193 146
f 146 149 147
f 146 193 194
f 146 194 149
f 149 194 195
f 149 195 150
f 150 195 196
f 150 196 151
f 151 196 197
f 151 197 152
f 152 197 198
f 152 198 155
f 152 155 154
f 152 154 153
f 155 198 161
f 156 199 200
f 156 200 178
f 156 178 157
f 156 172 199
f 159 165 160
f 160 165 201
f 160 201 166
f 161 202 203
f 161 203 162
f 161 198 197
f 161 197 202
f 162 203 163
f 163 203 204
f 163 204 205
f 163 205 164
f 164 205 206
f 164 206 165
f 165 206 201
f 166 201 207
f 166 207 167
f 167 207 168
f 168 174 169
f 168 207 208
f 168 208 174
f 170 177 209
f 170 209 171
f 171 209 210
f 171 210 172
f 172 210 199
f 173 174 211
f 173 211 212
f 173 212 213
f 173 213 175
f 174 208 211
f 175 213 214
f 175 214 176
f 176 214 215
f 176 215 216
f 176 216 217
f 176 217 177
f 177 217 209
f 178 200 181
f 180 184 186
f 181 200 218
f 181 218 182
f 182 218 183
f 183 218 219
f 183 219 185
f 184 185 220
f 184 220 221
f 184 221 186
f 185 219 220
f 186 221 222
f 186 222 189
f 187 223 191
f 187 191 188
f 187 190 224
f 187 224 225
f 187 225 223
f 189 222 226
f 189 226 190
f 190 226 224
f 191 193 192
f 191 223 193
f 193 223 227
f 193 227 194
f 194 227 195
f 195 227 196
f 196 227 228
f 196 228 229
f 196 229 197
f 197 229 230
f 197 230 202
f 199 218 200
f 199 210 218
f 201 206 208
f 201 208 207
f 202 230 231
f 202 231 203
f 203 231 204
f 204 231 232
f 204 232 233
f 204 233 205
f 205 233 234
f 205 234 206
f 206 234 211
f 206 211 208
f 209 235 218
f 209 218 210
f 209 217 236
f 209 236 235
f 211 234 237
f 211 237 212
f 212 237 238
f 212 238 213
f 213 238 239
f 213 239 240
f 213 240 214
f 214 240 241
f 214 241 242
f 214 242 215
f 215 242 243
f 215 243 244
f 215 244 245
f 215 245 246
f 215 246 224
f 215 224 216
f 216 224 217
f 217 224 226
f 217 226 236
f 218 235 247
f 218 247 219
f 219 247 220
f 220 248 222
f 220 222 221
f 220 247 248
f 222 248 236
f 222 236 226
f 223 225 227
f 224 246 225
f 225 246 249
f 225 249 227
f 227 249 228
f 228 249 250
f 228 250 229
f 229 250 251
f 229 251 230
f 230 251 231
f 231 251 243
f 231 243 232
f 232 243 241
f 232 241 240
f 232 240 239
f 232 239 252
f 232 252 233
f 233 252 237
f 233 237 234
f 235 236 247
f 236 248 247
f 237 252 239
f 237 239 238
f 241 243 242
f 243 251 253
f 243 253 244
f 244 253 245
f 245 253 246
f 246 253 249
f 249 253 250
f 250 253 251
