v 0.022566 -0.015247 0.069903
v 0.024065 -0.014948 0.069954
v 0.024530 -0.014709 0.070884
v 0.022440 -0.015037 0.071256
v 0.022348 -0.014889 0.068524
v 0.025845 -0.007573 0.008356
v 0.025410 -0.014625 0.070006
v 0.025410 -0.014498 0.070884
v 0.025410 -0.014259 0.071628
v 0.023535 -0.014759 0.071429
v 0.023653 -0.014225 0.072359
v 0.022566 -0.014065 0.072680
v 0.022348 -0.010680 0.073469
v 0.022348 -0.013914 0.067748
v 0.025696 -0.004571 0.008023
v 0.027532 -0.006959 0.008183
v 0.029740 -0.013186 0.069133
v 0.026936 -0.014149 0.069313
v 0.026283 -0.014372 0.070006
v 0.026659 -0.014103 0.071051
v 0.029098 -0.013195 0.071487
v 0.028059 -0.013208 0.072192
v 0.024681 -0.014154 0.072115
v 0.026283 -0.013439 0.072487
v 0.025278 -0.012913 0.073129
v 0.023653 -0.012766 0.073315
v 0.022566 -0.012425 0.073437
v 0.023653 -0.011891 0.073501
v 0.024530 -0.011013 0.073539
v 0.052180 0.014456 0.073437
v 0.050848 0.014456 0.073372
v 0.022348 -0.009322 0.073148
v 0.022348 -0.009629 0.067530
v 0.048825 0.027701 0.008023
v 0.042448 0.003364 0.008087
v 0.033481 -0.004142 0.008183
v 0.022348 -0.006568 0.067665
v 0.030808 -0.005576 0.008343
v 0.029361 -0.006274 0.008497
v 0.031925 -0.012409 0.069787
v 0.030673 -0.012922 0.070006
v 0.028916 -0.013552 0.070006
v 0.028036 -0.013838 0.070006
v 0.028036 -0.013712 0.070884
v 0.029915 -0.012594 0.072013
v 0.030673 -0.012774 0.070884
v 0.031516 -0.012316 0.071243
v 0.030607 -0.011908 0.072494
v 0.028916 -0.012358 0.072705
v 0.027924 -0.012051 0.073142
v 0.026283 -0.011891 0.073353
v 0.025410 -0.011891 0.073411
v 0.024530 -0.011891 0.073462
v 0.027160 -0.011013 0.073481
v 0.025845 -0.011013 0.073520
v 0.031108 -0.009263 0.073507
v 0.035053 -0.006627 0.073507
v 0.044682 0.001249 0.073488
v 0.051695 0.012639 0.073462
v 0.051695 0.011765 0.073449
v 0.053844 0.014456 0.073142
v 0.052440 0.027701 0.041531
v 0.049616 0.027701 0.041531
v 0.049893 0.014456 0.073097
v 0.022348 -0.008258 0.072552
v 0.051771 0.027600 0.008305
v 0.051527 0.023160 0.008343
v 0.050881 0.019653 0.008343
v 0.046017 0.008094 0.008183
v 0.048838 0.027701 0.023684
v 0.051890 0.027701 0.009536
v 0.045071 0.006614 0.008343
v 0.044300 0.005571 0.008343
v 0.043344 0.004360 0.008459
v 0.047780 -0.000534 0.069133
v 0.047161 -0.001266 0.069133
v 0.046056 -0.002586 0.069339
v 0.041611 0.002363 0.008343
v 0.040952 0.001648 0.008343
v 0.040213 0.000912 0.008343
v 0.039096 -0.000147 0.008343
v 0.032419 -0.004802 0.008658
v 0.036918 -0.001892 0.008343
v 0.035745 -0.002712 0.008343
v 0.034506 -0.003608 0.008831
v 0.035692 -0.010563 0.069698
v 0.022348 -0.006631 0.069133
v 0.031358 -0.005454 0.009536
v 0.033583 -0.011652 0.069852
v 0.033827 -0.011404 0.070993
v 0.029724 -0.013216 0.070390
v 0.032950 -0.011378 0.071859
v 0.033441 -0.010491 0.072603
v 0.031678 -0.011341 0.072571
v 0.030165 -0.011105 0.073186
v 0.028916 -0.011648 0.073167
v 0.028916 -0.011013 0.073372
v 0.028036 -0.011013 0.073437
v 0.029335 -0.010155 0.073494
v 0.030673 -0.010134 0.073417
v 0.032423 -0.009263 0.073424
v 0.034321 -0.007994 0.073443
v 0.038994 -0.004878 0.073443
v 0.039861 -0.004003 0.073462
v 0.042049 -0.002254 0.073462
v 0.045556 0.001249 0.073437
v 0.045556 0.002127 0.073475
v 0.049945 0.008258 0.073456
v 0.049065 0.007383 0.073469
v 0.049945 0.009133 0.073469
v 0.050819 0.009133 0.073411
v 0.051695 0.010890 0.073392
v 0.052572 0.011386 0.073231
v 0.053333 0.012471 0.073077
v 0.055030 0.014426 0.072423
v 0.051985 0.027701 0.013923
v 0.055716 0.014283 0.071365
v 0.056016 0.014426 0.070006
v 0.049131 0.027701 0.030719
v 0.022348 -0.006766 0.070172
v 0.022348 -0.007039 0.071115
v 0.047853 0.014456 0.071442
v 0.048821 0.014456 0.072475
v 0.022348 -0.007510 0.071853
v 0.051774 0.026200 0.008343
v 0.051708 0.024913 0.008343
v 0.051636 0.024034 0.008343
v 0.051906 0.026667 0.009536
v 0.051359 0.021919 0.008504
v 0.050664 0.018778 0.008343
v 0.051125 0.020532 0.008658
v 0.055871 0.014035 0.069133
v 0.050387 0.017811 0.008343
v 0.049975 0.016499 0.008343
v 0.049527 0.015208 0.008343
v 0.049194 0.014334 0.008343
v 0.047938 0.011445 0.008504
v 0.047022 0.009696 0.008504
v 0.051362 0.004415 0.069076
v 0.045621 0.007388 0.008658
v 0.051929 0.027701 0.010774
v 0.049490 0.001703 0.068793
v 0.048400 0.000227 0.069133
v 0.048581 0.000429 0.070006
v 0.047968 -0.000316 0.070006
v 0.045170 -0.003616 0.069602
v 0.037989 -0.001127 0.008504
v 0.042138 -0.006253 0.069569
v 0.041321 -0.006850 0.069133
v 0.039713 -0.008078 0.069916
v 0.038569 -0.008826 0.070012
v 0.037613 -0.009419 0.070012
v 0.036763 -0.009940 0.070012
v 0.034769 -0.011071 0.070012
v 0.035491 -0.010575 0.070891
v 0.036506 -0.009785 0.071474
v 0.034413 -0.010727 0.071801
v 0.035847 -0.009776 0.072096
v 0.034917 -0.009688 0.072667
v 0.031938 -0.010277 0.073199
v 0.033563 -0.009394 0.073238
v 0.035939 -0.007506 0.073379
v 0.038562 -0.005757 0.073379
v 0.042929 -0.002254 0.073353
v 0.043806 -0.001371 0.073360
v 0.049065 0.006071 0.073417
v 0.045556 0.000374 0.073308
v 0.046511 0.001177 0.073244
v 0.048475 0.003759 0.073231
v 0.049945 0.007383 0.073411
v 0.049945 0.006505 0.073315
v 0.051827 0.009746 0.073231
v 0.053195 0.011395 0.072943
v 0.054084 0.011765 0.072391
v 0.054823 0.013283 0.072257
v 0.054856 0.011971 0.071468
v 0.054721 0.011239 0.070974
v 0.055673 0.013426 0.070006
v 0.051880 0.025792 0.009536
v 0.055390 0.012639 0.069133
v 0.049029 0.013522 0.009536
v 0.048775 0.013228 0.008504
v 0.053907 0.009095 0.069133
v 0.053504 0.008258 0.069133
v 0.053033 0.007341 0.069133
v 0.052120 0.005659 0.069569
v 0.051382 0.004453 0.070198
v 0.050420 0.002939 0.069569
v 0.049388 0.001492 0.069800
v 0.049612 0.001976 0.070884
v 0.048578 0.000694 0.071057
v 0.047839 -0.000173 0.071153
v 0.047072 -0.001152 0.070884
v 0.044821 -0.003688 0.070756
v 0.044237 -0.004432 0.069929
v 0.043315 -0.005269 0.070006
v 0.040935 -0.007211 0.070006
v 0.042059 -0.006186 0.070884
v 0.036875 -0.009743 0.070884
v 0.037996 -0.008738 0.071622
v 0.038905 -0.007876 0.072083
v 0.037043 -0.008919 0.072289
v 0.035738 -0.008713 0.072988
v 0.036526 -0.008048 0.073129
v 0.040118 -0.005504 0.073154
v 0.041179 -0.003999 0.073308
v 0.042019 -0.003536 0.073251
v 0.044010 -0.002246 0.073071
v 0.046109 0.000143 0.073116
v 0.049398 0.005041 0.073212
v 0.047091 0.001009 0.072994
v 0.049375 0.004137 0.073000
v 0.050960 0.007905 0.073219
v 0.052222 0.008481 0.072712
v 0.053063 0.009662 0.072487
v 0.053755 0.010882 0.072340
v 0.052954 0.008527 0.072109
v 0.054028 0.009889 0.071256
v 0.053109 0.007791 0.071032
v 0.053742 0.008699 0.070006
v 0.054902 0.011365 0.070006
v 0.054730 0.010962 0.069133
v 0.054332 0.010016 0.069569
v 0.053165 0.007531 0.070006
v 0.052598 0.006505 0.069569
v 0.051853 0.005373 0.070878
v 0.050413 0.003179 0.071173
v 0.046884 -0.000946 0.071814
v 0.046126 -0.001951 0.071570
v 0.042804 -0.005403 0.071211
v 0.044564 -0.003335 0.072038
v 0.043519 -0.004583 0.071590
v 0.041601 -0.006177 0.071769
v 0.039666 -0.007178 0.072289
v 0.037966 -0.008225 0.072366
v 0.038440 -0.006984 0.073026
v 0.039472 -0.006337 0.072956
v 0.040876 -0.005660 0.072738
v 0.042237 -0.004209 0.072936
v 0.042929 -0.003351 0.073045
v 0.043344 -0.004419 0.072167
v 0.045964 -0.001779 0.072160
v 0.044913 -0.001371 0.073045
v 0.048624 0.002758 0.072847
v 0.047312 0.000071 0.072301
v 0.048459 0.001598 0.072353
v 0.050192 0.003969 0.072269
v 0.052140 0.006942 0.072199
v 0.050608 0.005849 0.072859
v 0.052315 0.006278 0.071115
v 0.051211 0.005062 0.071904
v 0.049635 0.002901 0.072115
v 0.040497 -0.006484 0.072372
v 0.042421 -0.004895 0.072391
f 1 2 3
f 1 3 4
f 1 4 5
f 1 5 6
f 1 6 2
f 2 7 3
f 2 6 7
f 3 8 9
f 3 9 10
f 3 10 4
f 3 7 8
f 4 10 11
f 4 11 12
f 4 12 13
f 4 13 5
f 5 14 15
f 5 15 6
f 5 13 32
f 5 32 65
f 5 65 124
f 5 124 121
f 5 121 120
f 5 120 87
f 5 87 37
f 5 37 33
f 5 33 14
f 6 15 16
f 6 16 17
f 6 17 18
f 6 18 7
f 7 18 19
f 7 19 8
f 8 19 20
f 8 20 9
f 9 20 21
f 9 21 22
f 9 22 23
f 9 23 10
f 10 23 11
f 11 24 25
f 11 25 12
f 11 23 24
f 12 25 26
f 12 26 27
f 12 27 13
f 13 27 28
f 13 28 29
f 13 29 30
f 13 30 31
f 13 31 32
f 14 33 15
f 15 34 35
f 15 35 36
f 15 36 16
f 15 33 37
f 15 37 34
f 16 36 38
f 16 38 39
f 16 39 40
f 16 40 17
f 17 40 41
f 17 41 42
f 17 42 18
f 18 42 43
f 18 43 19
f 19 43 44
f 19 44 20
f 20 44 21
f 21 45 22
f 21 44 46
f 21 46 47
f 21 47 45
f 22 45 48
f 22 48 49
f 22 49 24
f 22 24 23
f 24 49 25
f 25 50 51
f 25 51 26
f 25 49 50
f 26 51 52
f 26 52 53
f 26 53 27
f 27 53 28
f 28 54 55
f 28 55 29
f 28 53 54
f 29 55 56
f 29 56 57
f 29 57 58
f 29 58 59
f 29 59 30
f 30 59 60
f 30 60 61
f 30 61 62
f 30 62 63
f 30 63 31
f 31 64 32
f 31 63 64
f 32 64 65
f 34 66 67
f 34 67 68
f 34 68 69
f 34 69 35
f 34 37 70
f 34 70 119
f 34 119 63
f 34 63 62
f 34 62 116
f 34 116 141
f 34 141 71
f 34 71 66
f 35 69 72
f 35 72 73
f 35 73 74
f 35 74 75
f 35 75 76
f 35 76 77
f 35 77 78
f 35 78 79
f 35 79 80
f 35 80 81
f 35 81 36
f 36 82 38
f 36 81 83
f 36 83 84
f 36 84 85
f 36 85 86
f 36 86 82
f 37 87 70
f 38 82 88
f 38 88 89
f 38 89 39
f 39 89 40
f 40 89 90
f 40 90 41
f 41 90 46
f 41 46 91
f 41 91 42
f 42 91 44
f 42 44 43
f 44 91 46
f 45 47 92
f 45 92 48
f 46 90 47
f 47 90 92
f 48 93 94
f 48 94 49
f 48 92 93
f 49 94 95
f 49 95 96
f 49 96 50
f 50 96 97
f 50 97 51
f 51 97 98
f 51 98 52
f 52 98 53
f 53 98 54
f 54 99 55
f 54 98 99
f 55 99 56
f 56 99 100
f 56 100 101
f 56 101 102
f 56 102 103
f 56 103 57
f 57 103 104
f 57 104 105
f 57 105 58
f 58 105 106
f 58 106 107
f 58 107 108
f 58 108 109
f 58 109 110
f 58 110 59
f 59 110 108
f 59 108 60
f 60 108 111
f 60 111 112
f 60 112 113
f 60 113 61
f 61 113 114
f 61 114 115
f 61 115 62
f 62 115 117
f 62 117 118
f 62 118 116
f 63 119 87
f 63 87 120
f 63 120 121
f 63 121 122
f 63 122 123
f 63 123 64
f 64 123 65
f 65 123 124
f 66 125 126
f 66 126 127
f 66 127 67
f 66 71 128
f 66 128 125
f 67 129 68
f 67 127 118
f 67 118 129
f 68 130 69
f 68 129 131
f 68 131 132
f 68 132 130
f 69 130 133
f 69 133 134
f 69 134 135
f 69 135 136
f 69 136 137
f 69 137 138
f 69 138 139
f 69 139 140
f 69 140 72
f 70 87 119
f 71 141 118
f 71 118 128
f 72 140 139
f 72 139 142
f 72 142 73
f 73 142 143
f 73 143 74
f 74 143 75
f 75 143 144
f 75 144 145
f 75 145 77
f 75 77 76
f 77 145 146
f 77 146 78
f 78 146 79
f 79 146 80
f 80 146 81
f 81 147 83
f 81 146 148
f 81 148 147
f 82 86 88
f 83 147 149
f 83 149 150
f 83 150 84
f 84 150 85
f 85 150 151
f 85 151 152
f 85 152 86
f 86 152 153
f 86 153 154
f 86 154 88
f 88 154 89
f 89 154 90
f 90 154 155
f 90 155 156
f 90 156 157
f 90 157 92
f 92 157 93
f 93 157 158
f 93 158 159
f 93 159 160
f 93 160 95
f 93 95 94
f 95 160 100
f 95 100 97
f 95 97 96
f 97 100 98
f 98 100 99
f 100 160 161
f 100 161 101
f 101 161 162
f 101 162 102
f 102 162 103
f 103 162 163
f 103 163 105
f 103 105 104
f 105 163 164
f 105 164 165
f 105 165 106
f 106 166 108
f 106 108 107
f 106 165 167
f 106 167 168
f 106 168 169
f 106 169 166
f 108 166 170
f 108 170 111
f 108 110 109
f 111 170 171
f 111 171 172
f 111 172 112
f 112 172 113
f 113 172 173
f 113 173 114
f 114 173 115
f 115 173 174
f 115 174 175
f 115 175 117
f 116 118 141
f 117 175 176
f 117 176 177
f 117 177 178
f 117 178 118
f 118 178 132
f 118 132 129
f 118 127 126
f 118 126 179
f 118 179 128
f 121 124 122
f 122 124 123
f 125 128 179
f 125 179 126
f 129 132 131
f 130 132 133
f 132 178 180
f 132 180 134
f 132 134 133
f 134 180 135
f 135 181 136
f 135 180 181
f 136 181 182
f 136 182 137
f 137 182 183
f 137 183 184
f 137 184 185
f 137 185 138
f 138 185 139
f 139 185 186
f 139 186 187
f 139 187 188
f 139 188 142
f 142 188 189
f 142 189 143
f 143 189 144
f 144 189 190
f 144 190 191
f 144 191 145
f 145 191 192
f 145 192 193
f 145 193 146
f 146 193 194
f 146 194 195
f 146 195 196
f 146 196 148
f 147 148 149
f 148 196 197
f 148 197 149
f 149 197 150
f 150 197 198
f 150 198 199
f 150 199 151
f 151 199 152
f 152 199 153
f 153 199 155
f 153 155 154
f 155 199 156
f 156 200 201
f 156 201 202
f 156 202 158
f 156 158 157
f 156 199 200
f 158 202 159
f 159 203 161
f 159 161 160
f 159 202 204
f 159 204 203
f 161 203 204
f 161 204 162
f 162 204 163
f 163 204 205
f 163 205 206
f 163 206 164
f 164 206 207
f 164 207 165
f 165 207 208
f 165 208 209
f 165 209 167
f 166 169 171
f 166 171 170
f 167 209 168
f 168 209 169
f 169 210 171
f 169 209 211
f 169 211 212
f 169 212 210
f 171 210 213
f 171 213 172
f 172 213 173
f 173 214 215
f 173 215 174
f 173 213 214
f 174 216 217
f 174 217 175
f 174 215 216
f 175 217 176
f 176 217 218
f 176 218 177
f 177 218 219
f 177 219 220
f 177 220 221
f 177 221 178
f 178 221 180
f 180 222 181
f 180 221 222
f 181 183 182
f 181 222 183
f 183 222 223
f 183 223 220
f 183 220 184
f 184 220 224
f 184 224 185
f 185 224 225
f 185 225 186
f 186 225 224
f 186 224 187
f 187 226 227
f 187 227 188
f 187 224 226
f 188 227 190
f 188 190 189
f 190 227 191
f 191 227 228
f 191 228 192
f 192 228 229
f 192 229 193
f 193 229 194
f 194 230 198
f 194 198 196
f 194 196 195
f 194 229 231
f 194 231 232
f 194 232 230
f 196 198 197
f 198 230 233
f 198 233 200
f 198 200 199
f 200 233 201
f 201 234 202
f 201 233 234
f 202 234 235
f 202 235 236
f 202 236 204
f 204 236 205
f 205 207 206
f 205 236 237
f 205 237 238
f 205 238 239
f 205 239 240
f 205 240 207
f 207 240 208
f 208 240 241
f 208 241 242
f 208 242 243
f 208 243 209
f 209 243 211
f 210 212 213
f 211 244 212
f 211 243 242
f 211 242 245
f 211 245 246
f 211 246 244
f 212 244 246
f 212 246 247
f 212 247 248
f 212 248 249
f 212 249 213
f 213 249 214
f 214 249 248
f 214 248 215
f 215 248 217
f 215 217 216
f 217 248 218
f 218 248 219
f 219 248 250
f 219 250 224
f 219 224 220
f 220 223 221
f 221 223 222
f 224 250 226
f 226 250 227
f 227 250 251
f 227 251 252
f 227 252 228
f 228 252 246
f 228 246 245
f 228 245 242
f 228 242 229
f 229 242 231
f 230 232 233
f 231 242 241
f 231 241 232
f 232 241 233
f 233 241 253
f 233 253 234
f 234 253 236
f 234 236 235
f 236 253 238
f 236 238 237
f 238 253 254
f 238 254 239
f 239 254 241
f 239 241 240
f 241 254 253
f 246 252 247
f 247 252 251
f 247 251 248
f 248 251 250
