v 0.028132 -0.007933 0.067533
v 0.028132 -0.007916 0.066504
v 0.028132 -0.004711 0.067379
v 0.022341 -0.010686 0.073470
v 0.022228 -0.012484 0.073437
v 0.022001 -0.013633 0.073103
v 0.022114 -0.014434 0.072441
v 0.022060 -0.015066 0.071379
v 0.022114 -0.015299 0.069514
v 0.028132 -0.007491 0.045468
v 0.028132 -0.004311 0.041737
v -0.018200 0.014375 0.067971
v -0.018314 0.014375 0.069585
v -0.018633 0.014375 0.071026
v -0.019288 0.014375 0.072048
v -0.020646 0.014375 0.073026
v 0.022341 -0.008266 0.072556
v 0.022341 -0.009328 0.073148
v -0.022362 0.014375 0.073547
v -0.021923 0.010890 0.073650
v 0.014436 -0.012771 0.073527
v 0.017071 -0.012771 0.073508
v 0.020572 -0.012771 0.073450
v 0.021010 -0.013528 0.073238
v 0.019360 -0.014099 0.073090
v 0.021010 -0.013968 0.073013
v 0.019490 -0.014766 0.072518
v 0.020962 -0.014976 0.072061
v 0.019695 -0.015437 0.071328
v 0.021010 -0.015461 0.070453
v 0.018683 -0.015888 0.069469
v 0.020420 -0.008897 0.008352
v 0.021730 -0.008660 0.008340
v 0.023229 -0.008322 0.008340
v 0.025150 -0.007793 0.008320
v 0.025680 -0.007778 0.009973
v 0.028132 -0.007410 0.041525
v 0.028132 -0.007437 0.042824
v -0.012362 0.012619 0.015710
v -0.012313 0.012619 0.017003
v 0.025680 -0.004574 0.008018
v -0.017632 0.013891 0.041532
v -0.021377 0.014375 0.067681
v -0.026583 0.014334 0.072183
v -0.024115 0.013948 0.073560
v -0.027151 0.014375 0.070453
v -0.021923 0.009574 0.073598
v -0.018422 0.003878 0.073579
v -0.016669 0.002125 0.073585
v -0.014039 -0.001370 0.073566
v -0.011847 -0.003126 0.073566
v 0.000853 -0.010141 0.073566
v 0.010491 -0.011894 0.073547
v -0.023677 0.012206 0.073547
v -0.022800 0.010450 0.073560
v 0.011367 -0.012771 0.073521
v 0.016633 -0.013645 0.073360
v 0.017942 -0.013908 0.073225
v 0.016633 -0.014913 0.072646
v 0.017942 -0.014865 0.072601
v 0.015750 -0.014237 0.073180
v 0.017942 -0.015469 0.071765
v 0.017969 -0.015879 0.070440
v 0.016633 -0.016041 0.069579
v 0.017515 -0.015948 0.069077
v 0.017249 -0.009214 0.008018
v 0.018851 -0.009109 0.008500
v -0.012638 0.012619 0.014424
v 0.014879 -0.006426 0.007947
v -0.015814 0.012619 0.007947
v -0.013184 0.012619 0.013067
v -0.020722 0.013891 0.041532
v -0.025960 0.014375 0.068003
v -0.025830 0.011847 0.071997
v -0.025127 0.010486 0.072254
v -0.025641 0.013735 0.072929
v -0.026810 0.013580 0.071186
v -0.024678 0.012189 0.073219
v -0.026886 0.014375 0.068852
v -0.019380 0.011967 0.008378
v -0.026815 0.013325 0.070016
v -0.026523 0.012643 0.070891
v -0.021923 0.008257 0.073508
v -0.019732 0.005406 0.073553
v -0.018422 0.003001 0.073508
v -0.017546 0.002125 0.073534
v -0.010971 -0.003996 0.073553
v -0.013379 -0.002689 0.073482
v -0.009656 -0.004879 0.073547
v -0.007026 -0.006635 0.073521
v -0.006155 -0.007506 0.073482
v -0.000440 -0.010141 0.073502
v 0.001291 -0.011018 0.073470
v 0.004576 -0.011458 0.073534
v -0.023677 0.010890 0.073399
v 0.009619 -0.012771 0.073495
v 0.010929 -0.013986 0.073212
v 0.013559 -0.015284 0.072479
v 0.013121 -0.014488 0.073052
v 0.013559 -0.015972 0.071096
v 0.013559 -0.016187 0.070016
v 0.015312 -0.009337 0.008159
v 0.001410 -0.007012 0.008095
v -0.010246 -0.000119 0.007947
v 0.010940 -0.009295 0.008301
v 0.009695 -0.009124 0.008301
v -0.016171 0.006495 0.007947
v -0.017161 0.007946 0.008012
v -0.018022 0.009409 0.008127
v -0.025884 0.011085 0.071148
v -0.023379 0.007112 0.072344
v -0.023866 0.008634 0.072627
v -0.024250 0.010020 0.072865
v -0.024055 0.007731 0.071868
v -0.022930 0.008793 0.073290
v -0.018796 0.010797 0.008307
v -0.025154 0.009251 0.070016
v -0.025646 0.010337 0.070016
v -0.026225 0.011767 0.070016
v -0.019293 0.003878 0.073476
v -0.021047 0.006507 0.073470
v -0.017102 0.000605 0.073367
v -0.010532 -0.004879 0.073482
v -0.008779 -0.005750 0.073515
v -0.014104 -0.003422 0.073097
v -0.012605 -0.004328 0.073225
v -0.007903 -0.006635 0.073463
v -0.005300 -0.009292 0.073090
v -0.002231 -0.010171 0.073315
v -0.000489 -0.011179 0.073245
v 0.000853 -0.011784 0.073225
v 0.003045 -0.012050 0.073354
v 0.007428 -0.012771 0.073444
v 0.009192 -0.013953 0.073167
v 0.011806 -0.014979 0.072691
v 0.010491 -0.015215 0.072441
v 0.012065 -0.015903 0.071257
v 0.010491 -0.015990 0.070383
v 0.009462 -0.015921 0.069604
v 0.010491 -0.015963 0.069212
v 0.012238 -0.009429 0.008655
v 0.013553 -0.009405 0.008301
v -0.000359 -0.006387 0.008487
v -0.001880 -0.005669 0.008301
v -0.004418 -0.004320 0.008301
v -0.009212 -0.000978 0.007979
v 0.006362 -0.008475 0.008301
v 0.005220 -0.008224 0.008301
v 0.003986 -0.007910 0.008352
v 0.001778 -0.014144 0.069688
v -0.000429 -0.013375 0.069881
v -0.011707 0.001164 0.008307
v -0.012692 0.002151 0.008307
v -0.014445 0.004192 0.008018
v -0.015392 -0.004472 0.069656
v 0.008521 -0.008918 0.008327
v 0.007428 -0.015619 0.070016
v -0.020630 0.001667 0.069874
v -0.021388 0.002705 0.070016
v -0.022594 0.004491 0.069868
v -0.023244 0.005634 0.069662
v -0.023985 0.006881 0.070016
v -0.025289 0.009684 0.071039
v -0.022448 0.005397 0.072286
v -0.022264 0.006908 0.073097
v -0.024147 0.007321 0.070891
v -0.023260 0.005927 0.071270
v -0.021366 0.005724 0.073225
v -0.020462 0.004626 0.073283
v -0.018541 0.001858 0.073257
v -0.017930 0.000440 0.073045
v -0.016707 -0.000978 0.073026
v -0.009656 -0.005750 0.073431
v -0.015008 -0.002884 0.072910
v -0.013844 -0.004634 0.072376
v -0.012670 -0.005271 0.072627
v -0.010603 -0.006345 0.072962
v -0.011469 -0.005271 0.073174
v -0.009180 -0.006623 0.073264
v -0.006588 -0.009034 0.072794
v -0.002838 -0.010569 0.073071
v -0.007859 -0.007745 0.073135
v 0.004630 -0.012992 0.073206
v 0.001556 -0.012484 0.072974
v 0.006107 -0.013085 0.073296
v 0.005891 -0.014141 0.072608
v 0.009181 -0.014955 0.072453
v 0.006989 -0.014865 0.072023
v 0.010058 -0.015559 0.071765
v 0.009251 -0.015805 0.070768
v -0.002491 -0.012451 0.069141
v -0.003287 -0.012197 0.070016
v -0.006052 -0.010752 0.069141
v -0.004975 -0.011380 0.069881
v -0.007356 -0.010025 0.069141
v -0.009039 -0.009046 0.069714
v -0.005511 -0.003649 0.008423
v -0.007037 -0.002617 0.008307
v -0.008292 -0.001777 0.008661
v -0.013238 -0.006243 0.070016
v 0.007255 -0.008729 0.008783
v 0.006107 -0.015368 0.070016
v 0.003045 -0.014557 0.070016
v 0.000853 -0.013800 0.070453
v -0.001777 -0.012798 0.070453
v -0.013449 0.002953 0.008307
v -0.018390 -0.001112 0.069579
v -0.014147 -0.005408 0.070453
v -0.015056 -0.004565 0.070762
v -0.017703 -0.001759 0.070891
v 0.006989 -0.015356 0.070891
v -0.018644 -0.000661 0.070891
v -0.020543 0.001772 0.071058
v -0.021566 0.003336 0.071495
v -0.022340 0.004458 0.071328
v -0.021615 0.004123 0.072318
v -0.020462 0.003653 0.072974
v -0.021426 0.003537 0.072080
v -0.019883 0.002849 0.072974
v -0.020121 0.001918 0.072261
v -0.017243 -0.001627 0.072183
v -0.016296 -0.002483 0.072318
v -0.014764 -0.004161 0.071997
v -0.012535 -0.006043 0.071933
v -0.011350 -0.006785 0.072170
v -0.008471 -0.008469 0.072325
v -0.005213 -0.010434 0.072203
v -0.003465 -0.011317 0.072196
v -0.001701 -0.011428 0.072814
v 0.003791 -0.013525 0.072711
v -0.000370 -0.012382 0.072505
v 0.002606 -0.013208 0.072698
v 0.004235 -0.014294 0.072010
v 0.005647 -0.014820 0.071572
v -0.002675 -0.012337 0.070891
v -0.003844 -0.011748 0.071019
v -0.006685 -0.010485 0.070016
v -0.005651 -0.010847 0.071026
v -0.007973 -0.009740 0.070016
v -0.012058 -0.007060 0.069720
v -0.009288 -0.008744 0.070942
v -0.011820 -0.007048 0.070833
v -0.013049 -0.006106 0.071000
v 0.003483 -0.014557 0.070891
v 0.004890 -0.015006 0.070338
v 0.002141 -0.014141 0.071013
v -0.000229 -0.013217 0.071315
v -0.019732 0.000811 0.071302
v -0.009916 -0.008083 0.071592
v -0.007188 -0.009860 0.071322
v -0.001339 -0.012526 0.071817
v 0.001351 -0.013292 0.072215
v 0.003007 -0.014016 0.071913
f 1 2 10
f 1 10 38
f 1 38 37
f 1 37 11
f 1 11 3
f 1 3 4
f 1 4 5
f 1 5 6
f 1 6 7
f 1 7 8
f 1 8 9
f 1 9 2
f 2 9 10
f 3 11 12
f 3 12 13
f 3 13 14
f 3 14 15
f 3 15 16
f 3 16 17
f 3 17 18
f 3 18 4
f 4 18 19
f 4 19 20
f 4 20 21
f 4 21 22
f 4 22 5
f 5 22 23
f 5 23 24
f 5 24 6
f 6 24 25
f 6 25 26
f 6 26 7
f 7 26 27
f 7 27 28
f 7 28 8
f 8 29 30
f 8 30 9
f 8 28 29
f 9 31 32
f 9 32 33
f 9 33 34
f 9 34 35
f 9 35 36
f 9 36 37
f 9 37 38
f 9 38 10
f 9 30 31
f 11 39 40
f 11 40 12
f 11 37 41
f 11 41 39
f 12 40 39
f 12 39 42
f 12 42 43
f 12 43 73
f 12 73 79
f 12 79 46
f 12 46 19
f 12 19 16
f 12 16 15
f 12 15 14
f 12 14 13
f 16 19 18
f 16 18 17
f 19 44 45
f 19 45 20
f 19 46 44
f 20 47 48
f 20 48 49
f 20 49 50
f 20 50 51
f 20 51 52
f 20 52 53
f 20 53 21
f 20 45 54
f 20 54 55
f 20 55 47
f 21 56 57
f 21 57 22
f 21 53 56
f 22 57 23
f 23 57 24
f 24 58 25
f 24 57 58
f 25 59 60
f 25 60 27
f 25 27 26
f 25 58 61
f 25 61 59
f 27 60 28
f 28 60 62
f 28 62 29
f 29 63 30
f 29 62 63
f 30 63 31
f 31 63 64
f 31 64 65
f 31 65 66
f 31 66 67
f 31 67 32
f 32 66 33
f 32 67 66
f 33 66 34
f 34 66 35
f 35 66 41
f 35 41 36
f 36 41 37
f 39 41 68
f 39 68 42
f 41 66 69
f 41 69 70
f 41 70 71
f 41 71 68
f 42 68 71
f 42 71 70
f 42 70 72
f 42 72 43
f 43 72 73
f 44 74 75
f 44 75 76
f 44 76 45
f 44 46 77
f 44 77 74
f 45 76 78
f 45 78 54
f 46 79 80
f 46 80 81
f 46 81 82
f 46 82 77
f 47 55 83
f 47 83 84
f 47 84 48
f 48 50 49
f 48 84 85
f 48 85 86
f 48 86 50
f 50 87 51
f 50 86 88
f 50 88 87
f 51 87 52
f 52 87 89
f 52 89 90
f 52 90 91
f 52 91 92
f 52 92 93
f 52 93 94
f 52 94 56
f 52 56 53
f 54 78 95
f 54 95 55
f 55 95 83
f 56 96 97
f 56 97 57
f 56 94 96
f 57 97 61
f 57 61 58
f 59 98 60
f 59 61 98
f 60 98 62
f 61 97 99
f 61 99 98
f 62 98 100
f 62 100 63
f 63 101 64
f 63 100 101
f 64 102 65
f 64 101 102
f 65 102 66
f 66 103 104
f 66 104 69
f 66 102 105
f 66 105 106
f 66 106 103
f 69 104 107
f 69 107 70
f 70 107 108
f 70 108 109
f 70 109 80
f 70 80 72
f 72 79 73
f 72 80 79
f 74 77 110
f 74 110 75
f 75 111 112
f 75 112 113
f 75 113 76
f 75 110 114
f 75 114 111
f 76 113 78
f 77 82 110
f 78 115 95
f 78 113 115
f 80 109 116
f 80 116 117
f 80 117 118
f 80 118 119
f 80 119 81
f 81 119 82
f 82 119 110
f 83 120 84
f 83 95 115
f 83 115 121
f 83 121 120
f 84 120 85
f 85 120 122
f 85 122 86
f 86 122 88
f 87 88 123
f 87 123 124
f 87 124 89
f 88 122 125
f 88 125 126
f 88 126 123
f 89 124 90
f 90 124 91
f 91 124 127
f 91 127 128
f 91 128 129
f 91 129 92
f 92 129 93
f 93 129 130
f 93 130 131
f 93 131 132
f 93 132 133
f 93 133 94
f 94 133 96
f 96 133 97
f 97 134 99
f 97 133 134
f 98 99 135
f 98 135 136
f 98 136 137
f 98 137 100
f 99 134 135
f 100 137 101
f 101 137 138
f 101 138 139
f 101 139 140
f 101 140 141
f 101 141 142
f 101 142 102
f 102 142 105
f 103 143 144
f 103 144 145
f 103 145 146
f 103 146 104
f 103 106 147
f 103 147 148
f 103 148 149
f 103 149 150
f 103 150 151
f 103 151 143
f 104 152 153
f 104 153 154
f 104 154 107
f 104 146 155
f 104 155 152
f 105 142 141
f 105 141 140
f 105 140 139
f 105 139 106
f 106 156 147
f 106 139 157
f 106 157 156
f 107 154 158
f 107 158 159
f 107 159 160
f 107 160 108
f 108 160 161
f 108 161 109
f 109 161 162
f 109 162 116
f 110 119 118
f 110 118 163
f 110 163 114
f 111 114 164
f 111 164 165
f 111 165 112
f 112 165 113
f 113 165 115
f 114 163 166
f 114 166 167
f 114 167 164
f 115 165 168
f 115 168 121
f 116 162 117
f 117 162 166
f 117 166 163
f 117 163 118
f 120 121 169
f 120 169 170
f 120 170 122
f 121 168 169
f 122 170 171
f 122 171 172
f 122 172 125
f 123 126 173
f 123 173 127
f 123 127 124
f 125 172 174
f 125 174 175
f 125 175 176
f 125 176 177
f 125 177 126
f 126 178 179
f 126 179 173
f 126 177 178
f 127 173 179
f 127 179 128
f 128 180 181
f 128 181 129
f 128 179 182
f 128 182 180
f 129 181 130
f 130 181 131
f 131 183 132
f 131 181 184
f 131 184 183
f 132 185 133
f 132 183 185
f 133 185 134
f 134 185 183
f 134 183 186
f 134 186 136
f 134 136 135
f 136 187 188
f 136 188 189
f 136 189 137
f 136 186 187
f 137 190 138
f 137 189 190
f 138 190 139
f 139 190 157
f 143 191 192
f 143 192 144
f 143 151 191
f 144 193 145
f 144 192 194
f 144 194 193
f 145 193 195
f 145 195 196
f 145 196 197
f 145 197 198
f 145 198 146
f 146 198 199
f 146 199 200
f 146 200 155
f 147 156 201
f 147 201 148
f 148 201 202
f 148 202 149
f 149 202 203
f 149 203 150
f 150 203 204
f 150 204 151
f 151 204 205
f 151 205 192
f 151 192 191
f 152 155 153
f 153 206 154
f 153 155 206
f 154 206 207
f 154 207 158
f 155 200 208
f 155 208 209
f 155 209 210
f 155 210 207
f 155 207 206
f 156 157 201
f 157 202 201
f 157 190 211
f 157 211 202
f 158 212 213
f 158 213 159
f 158 207 212
f 159 213 214
f 159 214 215
f 159 215 160
f 160 215 167
f 160 167 166
f 160 166 162
f 160 162 161
f 164 216 217
f 164 217 165
f 164 167 218
f 164 218 216
f 165 217 168
f 167 215 218
f 168 217 169
f 169 217 170
f 170 217 219
f 170 219 171
f 171 219 220
f 171 220 221
f 171 221 172
f 172 221 222
f 172 222 174
f 174 222 175
f 175 222 223
f 175 223 224
f 175 224 225
f 175 225 176
f 176 225 177
f 177 225 226
f 177 226 180
f 177 180 182
f 177 182 179
f 177 179 178
f 180 226 227
f 180 227 228
f 180 228 181
f 181 228 229
f 181 229 184
f 183 184 230
f 183 230 186
f 184 229 231
f 184 231 232
f 184 232 230
f 186 230 233
f 186 233 188
f 186 188 187
f 188 233 234
f 188 234 189
f 189 234 211
f 189 211 190
f 192 205 235
f 192 235 236
f 192 236 194
f 193 194 237
f 193 237 195
f 194 236 238
f 194 238 237
f 195 237 239
f 195 239 196
f 196 239 240
f 196 240 197
f 197 240 198
f 198 240 199
f 199 240 200
f 200 239 241
f 200 241 242
f 200 242 243
f 200 243 208
f 200 240 239
f 202 211 244
f 202 244 245
f 202 245 203
f 203 245 244
f 203 244 246
f 203 246 204
f 204 246 247
f 204 247 205
f 205 247 235
f 207 210 212
f 208 243 209
f 209 243 223
f 209 223 222
f 209 222 221
f 209 221 210
f 210 221 248
f 210 248 212
f 211 234 244
f 212 248 213
f 213 248 214
f 214 248 220
f 214 220 218
f 214 218 215
f 216 218 220
f 216 220 217
f 217 220 219
f 220 248 221
f 223 243 224
f 224 243 225
f 225 243 249
f 225 249 226
f 226 249 250
f 226 250 227
f 227 250 238
f 227 238 228
f 228 238 236
f 228 236 251
f 228 251 231
f 228 231 229
f 230 232 233
f 231 251 252
f 231 252 232
f 232 252 233
f 233 252 253
f 233 253 244
f 233 244 234
f 235 247 251
f 235 251 236
f 237 238 239
f 238 250 241
f 238 241 239
f 241 250 249
f 241 249 242
f 242 249 243
f 244 253 246
f 246 253 247
f 247 253 252
f 247 252 251
