v 0.034124 0.060422 0.041527
v 0.029422 0.061303 0.071752
v 0.029422 0.060712 0.070746
v 0.029422 0.060520 0.070008
v 0.029422 0.060438 0.069136
v 0.029422 0.060353 0.068162
v 0.029422 0.060308 0.067341
v 0.003063 0.059770 0.015784
v 0.033278 0.060422 0.013918
v 0.029414 0.069202 0.069476
v 0.029426 0.068788 0.071804
v 0.029426 0.067905 0.072727
v 0.029422 0.064375 0.073336
v 0.029422 0.063423 0.073086
v 0.029422 0.062670 0.072765
v 0.029422 0.061948 0.072361
v -0.000141 0.061137 0.071457
v -0.000141 0.061725 0.072143
v -0.000141 0.060823 0.070810
v -0.000141 0.060607 0.069938
v -0.000141 0.060521 0.069136
v -0.000141 0.060460 0.068258
v -0.006242 0.059770 0.041527
v -0.000520 0.059770 0.041527
v 0.001443 0.059770 0.030005
v 0.003063 0.059770 0.016553
v -0.000141 0.060435 0.067476
v 0.033100 0.060422 0.010552
v 0.033167 0.060422 0.011616
v 0.033231 0.060422 0.012796
v 0.002415 0.059770 0.008000
v 0.026885 0.070058 0.069765
v 0.028027 0.069700 0.070015
v 0.029153 0.069287 0.070130
v 0.029339 0.069138 0.071002
v 0.032970 0.060426 0.009321
v 0.031030 0.061316 0.008058
v 0.029433 0.062069 0.008102
v 0.028031 0.062715 0.008654
v 0.027375 0.062978 0.008654
v 0.026838 0.063109 0.008006
v 0.026276 0.063367 0.008654
v 0.028074 0.069223 0.071913
v 0.029165 0.068476 0.072349
v 0.028667 0.069265 0.071477
v 0.027956 0.068788 0.072458
v 0.028027 0.068082 0.072964
v 0.029161 0.067120 0.073189
v 0.029165 0.066130 0.073381
v 0.029161 0.065296 0.073413
v -0.000110 0.065191 0.073483
v -0.000141 0.064315 0.073381
v -0.000141 0.063299 0.073105
v -0.000141 0.062700 0.072829
v -0.000110 0.066944 0.073330
v -0.000110 0.067741 0.073015
v -0.000078 0.068565 0.072438
v -0.000145 0.069293 0.070887
v -0.000110 0.069356 0.070085
v -0.005392 0.059770 0.012167
v -0.004997 0.059770 0.008000
v 0.014881 0.062397 0.008000
v 0.032658 0.060447 0.008173
v 0.025395 0.070507 0.070015
v 0.026273 0.070259 0.070015
v 0.025399 0.063561 0.008006
v 0.024088 0.063956 0.008038
v 0.028027 0.069630 0.070887
v 0.014885 0.064542 0.008000
v 0.013016 0.065243 0.008000
v 0.027264 0.069418 0.072002
v 0.026122 0.069985 0.071560
v 0.026751 0.070029 0.070951
v 0.027039 0.068517 0.072874
v 0.026273 0.069403 0.072387
v 0.025395 0.068917 0.072926
v 0.024546 0.069036 0.073003
v 0.024518 0.068603 0.073208
v 0.027150 0.067804 0.073201
v 0.027150 0.067005 0.073381
v 0.028027 0.066130 0.073432
v 0.027150 0.066130 0.073439
v 0.001736 0.066128 0.073503
v 0.000878 0.066145 0.073496
v -0.000062 0.066123 0.073471
v 0.000858 0.067006 0.073413
v 0.003490 0.068565 0.073189
v 0.000858 0.067950 0.073099
v 0.001487 0.068267 0.073054
v 0.000894 0.068803 0.072502
v 0.001475 0.069263 0.072272
v 0.000625 0.069125 0.072079
v -0.000058 0.069120 0.071598
v 0.000858 0.069619 0.070887
v 0.000858 0.069691 0.070015
v 0.001684 0.063077 0.008654
v 0.000858 0.062762 0.008654
v -0.000497 0.062137 0.008025
v -0.002219 0.061336 0.008013
v -0.003741 0.060529 0.008064
v -0.004187 0.060354 0.008705
v -0.005151 0.059770 0.008654
v -0.005250 0.059770 0.009500
v -0.005309 0.059770 0.010353
v -0.005361 0.059771 0.011347
v 0.000858 0.062666 0.008000
v 0.022772 0.064330 0.008333
v 0.023293 0.070968 0.069483
v 0.024546 0.070713 0.070015
v 0.024546 0.070627 0.070874
v 0.019931 0.064854 0.008006
v 0.016517 0.065185 0.008006
v 0.012143 0.065210 0.008000
v 0.012250 0.065297 0.008654
v 0.016628 0.072151 0.070015
v 0.014000 0.065290 0.008327
v 0.014881 0.065285 0.008327
v 0.024494 0.070141 0.072124
v 0.022657 0.070871 0.071566
v 0.023637 0.070547 0.071765
v 0.025395 0.069537 0.072483
v 0.023637 0.070185 0.072323
v 0.024558 0.069709 0.072515
v 0.022764 0.069688 0.072855
v 0.023222 0.069201 0.073086
v 0.021010 0.069419 0.073195
v 0.022764 0.068757 0.073272
v 0.024546 0.067880 0.073374
v 0.025395 0.067880 0.073323
v 0.026355 0.067967 0.073227
v 0.026273 0.067005 0.073419
v 0.021010 0.067882 0.073439
v 0.020132 0.067882 0.073445
v 0.014000 0.067880 0.073477
v 0.011380 0.067880 0.073490
v 0.006999 0.067880 0.073483
v 0.006121 0.067880 0.073477
v 0.005240 0.067880 0.073464
v 0.001736 0.067006 0.073451
v 0.004367 0.067880 0.073426
v 0.005240 0.068756 0.073278
v 0.004391 0.069060 0.073092
v 0.003490 0.069001 0.072977
v 0.002617 0.069440 0.072432
v 0.003605 0.070121 0.071887
v 0.005240 0.070219 0.072336
v 0.002735 0.070010 0.071611
v 0.002210 0.070052 0.070823
v 0.002617 0.070246 0.070015
v 0.001992 0.070059 0.069758
v 0.002609 0.063387 0.008654
v 0.001921 0.063063 0.008000
v 0.021895 0.064521 0.008333
v 0.017505 0.072078 0.070015
v 0.020132 0.071596 0.070015
v 0.021010 0.071424 0.070015
v 0.023752 0.070884 0.070015
v 0.020674 0.064745 0.008218
v 0.023262 0.070918 0.070919
v 0.017509 0.065137 0.008333
v 0.015758 0.065261 0.008333
v 0.016636 0.065253 0.008654
v 0.011377 0.065163 0.008000
v 0.011377 0.065248 0.008654
v 0.010507 0.071970 0.070015
v 0.010507 0.071836 0.070938
v 0.013131 0.071821 0.071316
v 0.015691 0.071943 0.070976
v 0.016596 0.071962 0.070951
v 0.021887 0.070923 0.071739
v 0.018603 0.071850 0.070521
v 0.017505 0.071863 0.070983
v 0.022764 0.070283 0.072413
v 0.021010 0.069857 0.072964
v 0.021887 0.070366 0.072470
v 0.021887 0.069557 0.073035
v 0.020132 0.069495 0.073221
v 0.021010 0.068757 0.073368
v 0.020132 0.069933 0.073009
v 0.019255 0.070003 0.073047
v 0.020132 0.068757 0.073407
v 0.023637 0.067882 0.073407
v 0.019255 0.068757 0.073419
v 0.012254 0.068757 0.073471
v 0.011380 0.068757 0.073471
v 0.008757 0.068757 0.073432
v 0.007876 0.068757 0.073400
v 0.006121 0.068756 0.073330
v 0.008951 0.069884 0.073156
v 0.005240 0.069682 0.072785
v 0.003490 0.069566 0.072528
v 0.005240 0.070565 0.071765
v 0.007990 0.071021 0.071925
v 0.006560 0.070902 0.071656
v 0.004438 0.069884 0.072458
v 0.006426 0.070341 0.072445
v 0.005620 0.070913 0.070951
v 0.004367 0.070624 0.070887
v 0.003490 0.070404 0.070887
v 0.003490 0.070487 0.070015
v 0.005533 0.070975 0.069489
v 0.004948 0.064024 0.008000
v 0.004122 0.063783 0.008000
v 0.003486 0.063660 0.008654
v 0.003265 0.063509 0.008000
v 0.010499 0.065080 0.008000
v 0.010499 0.065154 0.008654
v 0.009282 0.071842 0.070124
v 0.009626 0.071782 0.070797
v 0.010507 0.071444 0.071765
v 0.011380 0.071672 0.071502
v 0.012254 0.071703 0.071534
v 0.013131 0.071592 0.071765
v 0.015901 0.071735 0.071515
v 0.016730 0.071702 0.071483
v 0.021010 0.070986 0.071848
v 0.020132 0.070915 0.072143
v 0.017505 0.071462 0.071765
v 0.021010 0.070427 0.072515
v 0.018382 0.071022 0.072284
v 0.017505 0.071076 0.072342
v 0.016628 0.071123 0.072400
v 0.018580 0.070048 0.073073
v 0.017505 0.070098 0.073099
v 0.019255 0.069564 0.073227
v 0.017505 0.070536 0.072791
v 0.015743 0.069634 0.073278
v 0.014403 0.069634 0.073298
v 0.013131 0.069634 0.073304
v 0.012254 0.069634 0.073304
v 0.010507 0.069889 0.073208
v 0.009626 0.069875 0.073189
v 0.011380 0.070587 0.072842
v 0.010507 0.070585 0.072804
v 0.007876 0.070466 0.072567
v 0.008824 0.070748 0.072445
v 0.010507 0.071079 0.072355
v 0.005059 0.070891 0.070015
v 0.004367 0.070719 0.070015
v 0.008405 0.064814 0.008109
v 0.006114 0.064372 0.008654
v 0.006114 0.064293 0.008000
v 0.009622 0.064970 0.008000
v 0.011380 0.071131 0.072400
v 0.012254 0.071158 0.072419
v 0.013131 0.071159 0.072419
v 0.015743 0.071152 0.072426
v 0.014873 0.071590 0.071765
v 0.016628 0.070570 0.072842
v 0.016628 0.070133 0.073112
v 0.014000 0.070169 0.073131
v 0.013131 0.070389 0.072996
v 0.012254 0.070595 0.072862
v 0.009626 0.070791 0.072515
v 0.014000 0.070609 0.072862
v 0.015743 0.070370 0.072990
f 1 2 3
f 1 3 4
f 1 4 5
f 1 5 6
f 1 6 7
f 1 7 8
f 1 8 9
f 1 9 10
f 1 10 11
f 1 11 12
f 1 12 13
f 1 13 14
f 1 14 15
f 1 15 16
f 1 16 2
f 2 17 3
f 2 16 18
f 2 18 17
f 3 17 19
f 3 19 4
f 4 20 21
f 4 21 5
f 4 19 20
f 5 21 6
f 6 21 22
f 6 22 7
f 7 23 24
f 7 24 25
f 7 25 26
f 7 26 8
f 7 22 27
f 7 27 23
f 8 28 29
f 8 29 30
f 8 30 9
f 8 26 25
f 8 25 24
f 8 24 23
f 8 23 60
f 8 60 104
f 8 104 103
f 8 103 102
f 8 102 61
f 8 61 31
f 8 31 28
f 9 30 10
f 10 32 33
f 10 33 34
f 10 34 35
f 10 35 11
f 10 30 29
f 10 29 28
f 10 28 36
f 10 36 37
f 10 37 38
f 10 38 39
f 10 39 40
f 10 40 41
f 10 41 42
f 10 42 32
f 11 43 44
f 11 44 12
f 11 35 45
f 11 45 43
f 12 44 46
f 12 46 47
f 12 47 48
f 12 48 49
f 12 49 13
f 13 49 50
f 13 50 51
f 13 51 52
f 13 52 14
f 14 52 53
f 14 53 15
f 15 53 54
f 15 54 16
f 16 54 18
f 17 23 19
f 17 18 23
f 18 54 23
f 19 23 20
f 20 23 21
f 21 23 22
f 22 23 27
f 23 52 51
f 23 51 55
f 23 55 56
f 23 56 57
f 23 57 58
f 23 58 59
f 23 59 60
f 23 54 53
f 23 53 52
f 28 31 36
f 31 61 106
f 31 106 152
f 31 152 205
f 31 205 203
f 31 203 202
f 31 202 242
f 31 242 243
f 31 243 206
f 31 206 163
f 31 163 113
f 31 113 70
f 31 70 69
f 31 69 62
f 31 62 41
f 31 41 37
f 31 37 63
f 31 63 36
f 32 64 65
f 32 65 33
f 32 42 66
f 32 66 67
f 32 67 64
f 33 65 68
f 33 68 34
f 34 68 35
f 35 68 45
f 36 63 37
f 37 41 38
f 38 41 39
f 39 41 40
f 41 62 69
f 41 69 70
f 41 70 66
f 41 66 42
f 43 71 44
f 43 45 72
f 43 72 71
f 44 71 46
f 45 68 73
f 45 73 72
f 46 74 47
f 46 71 75
f 46 75 74
f 47 74 76
f 47 76 77
f 47 77 78
f 47 78 79
f 47 79 48
f 48 79 80
f 48 80 49
f 49 80 81
f 49 81 50
f 50 81 82
f 50 82 83
f 50 83 51
f 51 83 84
f 51 84 85
f 51 85 55
f 55 85 86
f 55 86 87
f 55 87 88
f 55 88 56
f 56 88 89
f 56 89 57
f 57 89 90
f 57 90 91
f 57 91 92
f 57 92 93
f 57 93 58
f 58 93 94
f 58 94 95
f 58 95 59
f 59 95 96
f 59 96 97
f 59 97 98
f 59 98 99
f 59 99 100
f 59 100 101
f 59 101 102
f 59 102 103
f 59 103 104
f 59 104 105
f 59 105 60
f 60 105 104
f 61 102 101
f 61 101 100
f 61 100 99
f 61 99 106
f 64 67 107
f 64 107 108
f 64 108 109
f 64 109 110
f 64 110 73
f 64 73 65
f 65 73 68
f 66 70 111
f 66 111 67
f 67 111 107
f 70 112 111
f 70 113 114
f 70 114 115
f 70 115 116
f 70 116 117
f 70 117 112
f 71 118 75
f 71 72 118
f 72 73 110
f 72 110 119
f 72 119 120
f 72 120 118
f 74 75 121
f 74 121 76
f 75 118 122
f 75 122 121
f 76 121 77
f 77 121 123
f 77 123 124
f 77 124 125
f 77 125 78
f 78 126 127
f 78 127 128
f 78 128 129
f 78 129 130
f 78 130 79
f 78 125 126
f 79 130 129
f 79 129 80
f 80 128 131
f 80 131 81
f 80 129 128
f 81 132 133
f 81 133 82
f 81 131 132
f 82 133 134
f 82 134 135
f 82 135 83
f 83 135 136
f 83 136 84
f 84 136 137
f 84 137 138
f 84 138 139
f 84 139 85
f 85 139 86
f 86 139 138
f 86 138 140
f 86 140 141
f 86 141 87
f 87 142 89
f 87 89 88
f 87 141 142
f 89 142 143
f 89 143 90
f 90 143 144
f 90 144 91
f 91 145 92
f 91 144 146
f 91 146 145
f 92 145 147
f 92 147 93
f 93 147 94
f 94 148 95
f 94 147 148
f 95 149 150
f 95 150 96
f 95 148 149
f 96 151 152
f 96 152 106
f 96 106 97
f 96 150 151
f 97 106 98
f 98 106 99
f 107 111 153
f 107 153 108
f 108 154 155
f 108 155 156
f 108 156 157
f 108 157 109
f 108 153 158
f 108 158 154
f 109 157 159
f 109 159 110
f 110 159 119
f 111 158 153
f 111 112 160
f 111 160 154
f 111 154 158
f 112 117 161
f 112 161 162
f 112 162 160
f 113 163 164
f 113 164 114
f 114 164 165
f 114 165 115
f 115 165 166
f 115 166 167
f 115 167 168
f 115 168 169
f 115 169 154
f 115 154 162
f 115 162 161
f 115 161 117
f 115 117 116
f 118 120 170
f 118 170 122
f 119 170 120
f 119 159 171
f 119 171 172
f 119 172 170
f 121 122 123
f 122 173 123
f 122 170 173
f 123 173 124
f 124 174 125
f 124 173 175
f 124 175 174
f 125 176 126
f 125 174 176
f 126 177 178
f 126 178 127
f 126 176 174
f 126 174 179
f 126 179 180
f 126 180 177
f 127 178 128
f 128 178 181
f 128 181 182
f 128 182 131
f 131 182 183
f 131 183 132
f 132 184 133
f 132 183 184
f 133 184 134
f 134 184 135
f 135 184 185
f 135 185 136
f 136 185 137
f 137 185 138
f 138 185 186
f 138 186 187
f 138 187 188
f 138 188 140
f 140 188 141
f 141 189 142
f 141 188 189
f 142 189 190
f 142 190 143
f 143 190 191
f 143 191 144
f 144 191 146
f 145 146 192
f 145 192 147
f 146 193 194
f 146 194 192
f 146 191 195
f 146 195 190
f 146 190 196
f 146 196 193
f 147 192 197
f 147 197 198
f 147 198 199
f 147 199 148
f 148 199 149
f 149 200 150
f 149 199 200
f 150 200 201
f 150 201 202
f 150 202 203
f 150 203 204
f 150 204 151
f 151 204 203
f 151 203 205
f 151 205 152
f 154 160 162
f 154 169 172
f 154 172 171
f 154 171 155
f 155 171 159
f 155 159 156
f 156 159 157
f 163 206 164
f 164 206 207
f 164 207 165
f 165 208 209
f 165 209 166
f 165 207 208
f 166 209 210
f 166 210 211
f 166 211 212
f 166 212 167
f 167 212 213
f 167 213 214
f 167 214 169
f 167 169 168
f 169 214 215
f 169 215 172
f 170 172 216
f 170 216 217
f 170 217 173
f 172 215 218
f 172 218 216
f 173 217 175
f 174 175 179
f 175 219 180
f 175 180 179
f 175 217 220
f 175 220 221
f 175 221 222
f 175 222 219
f 177 180 223
f 177 223 224
f 177 224 225
f 177 225 181
f 177 181 178
f 180 219 222
f 180 222 226
f 180 226 223
f 181 183 182
f 181 225 227
f 181 227 183
f 183 227 228
f 183 228 184
f 184 228 229
f 184 229 230
f 184 230 185
f 185 230 186
f 186 230 231
f 186 231 232
f 186 232 187
f 187 232 188
f 188 232 189
f 189 232 233
f 189 233 234
f 189 234 235
f 189 235 190
f 190 235 196
f 190 195 191
f 192 194 197
f 193 196 236
f 193 236 237
f 193 237 210
f 193 210 209
f 193 209 194
f 194 209 197
f 196 235 236
f 197 209 208
f 197 208 238
f 197 238 198
f 198 238 239
f 198 239 199
f 199 239 200
f 200 239 201
f 201 239 238
f 201 238 208
f 201 208 240
f 201 240 241
f 201 241 202
f 202 241 242
f 206 243 207
f 207 243 208
f 208 243 240
f 210 237 244
f 210 244 211
f 211 244 212
f 212 244 245
f 212 245 213
f 213 245 246
f 213 246 247
f 213 247 248
f 213 248 214
f 214 248 247
f 214 247 222
f 214 222 215
f 215 222 218
f 216 218 217
f 217 218 220
f 218 222 221
f 218 221 220
f 222 247 249
f 222 249 226
f 223 226 249
f 223 249 224
f 224 249 250
f 224 250 225
f 225 250 227
f 227 250 228
f 228 250 251
f 228 251 229
f 229 251 230
f 230 251 231
f 231 251 252
f 231 252 253
f 231 253 233
f 231 233 232
f 233 253 245
f 233 245 234
f 234 245 244
f 234 244 237
f 234 237 254
f 234 254 235
f 235 254 236
f 236 254 237
f 240 243 242
f 240 242 241
f 245 253 255
f 245 255 246
f 246 255 247
f 247 255 249
f 249 255 256
f 249 256 250
f 250 256 251
f 251 256 255
f 251 255 252
f 252 255 253
