v -0.036286 -0.023015 0.154448
v -0.036210 -0.024774 0.154448
v -0.036113 -0.022547 0.164240
v -0.036045 -0.020631 0.164240
v -0.036197 -0.021064 0.154448
v -0.036016 -0.026495 0.154448
v -0.035999 -0.024451 0.164240
v -0.035897 -0.022547 0.166149
v -0.035809 -0.020631 0.166149
v -0.035796 -0.018718 0.164240
v -0.035919 -0.018837 0.154448
v -0.035729 -0.026363 0.164240
v -0.035594 -0.028428 0.154448
v -0.035509 -0.026363 0.166149
v -0.035771 -0.024451 0.166149
v -0.035083 -0.022547 0.167752
v -0.035033 -0.020631 0.167702
v -0.035007 -0.024451 0.167725
v -0.034881 -0.018718 0.167593
v -0.035530 -0.018718 0.166149
v -0.035349 -0.016806 0.164240
v -0.035501 -0.016806 0.154448
v -0.035303 -0.028280 0.164240
v -0.035045 -0.030196 0.154448
v -0.034868 -0.026363 0.167607
v -0.034838 -0.028552 0.166718
v -0.024299 -0.022547 0.187187
v -0.024139 -0.020631 0.187187
v -0.034826 -0.016551 0.166698
v -0.034438 -0.014949 0.166149
v -0.034577 -0.014613 0.164240
v -0.034931 -0.015004 0.154448
v -0.034573 -0.030494 0.164240
v -0.034455 -0.030192 0.166149
v -0.034336 -0.031875 0.154448
v -0.024067 -0.024451 0.187187
v -0.032607 -0.033638 0.166701
v -0.022700 -0.022547 0.188706
v -0.022662 -0.020631 0.188645
v -0.022645 -0.024451 0.188628
v -0.022653 -0.018744 0.188269
v -0.022438 -0.016742 0.187296
v -0.033568 -0.012981 0.166149
v -0.033822 -0.012981 0.164240
v -0.033978 -0.012922 0.154448
v -0.033868 -0.032104 0.164240
v -0.033611 -0.032104 0.166149
v -0.032881 -0.034497 0.154448
v -0.022641 -0.028003 0.186950
v -0.022586 -0.026227 0.188222
v -0.032666 -0.034208 0.164240
v -0.030915 -0.036303 0.166149
v -0.030986 -0.035474 0.167471
v -0.020118 -0.026363 0.189056
v -0.020118 -0.018718 0.189015
v -0.020907 -0.016521 0.188432
v -0.021459 -0.027850 0.188391
v -0.019873 -0.014099 0.186984
v -0.029147 -0.007772 0.167437
v -0.030851 -0.009246 0.166820
v -0.032467 -0.011171 0.166420
v -0.032653 -0.010886 0.164240
v -0.032936 -0.011146 0.154448
v -0.031754 -0.036103 0.154448
v -0.020468 -0.029062 0.188283
v -0.029248 -0.037361 0.167535
v -0.031396 -0.035882 0.164240
v -0.030434 -0.037646 0.154448
v -0.028940 -0.038415 0.165850
v -0.018202 -0.028280 0.189086
v -0.018202 -0.016806 0.189001
v -0.016291 -0.014286 0.188591
v -0.018118 -0.014299 0.188239
v -0.016291 -0.012862 0.187187
v -0.020038 -0.002345 0.166905
v -0.023945 -0.003526 0.166149
v -0.025641 -0.004516 0.166400
v -0.027670 -0.006097 0.166796
v -0.029573 -0.007338 0.165857
v -0.031045 -0.008664 0.164487
v -0.031552 -0.009238 0.154448
v -0.027248 -0.039133 0.167461
v -0.019202 -0.030812 0.187326
v -0.018067 -0.030217 0.188510
v -0.028480 -0.039494 0.154448
v -0.026050 -0.040811 0.164240
v -0.025750 -0.040637 0.166410
v -0.016553 -0.030706 0.188486
v -0.014388 -0.030744 0.188547
v -0.012477 -0.028280 0.189066
v -0.008646 -0.024451 0.189029
v -0.010561 -0.016806 0.188964
v -0.014388 -0.014244 0.188645
v -0.014388 -0.012705 0.187187
v -0.016291 -0.001776 0.166823
v -0.018202 -0.001967 0.166766
v -0.018202 -0.001363 0.164240
v -0.020118 -0.001793 0.164240
v -0.021746 -0.002536 0.165942
v -0.023945 -0.003242 0.164240
v -0.025966 -0.004317 0.164240
v -0.028252 -0.005910 0.164481
v -0.029695 -0.007211 0.164240
v -0.030666 -0.008167 0.162324
v -0.029746 -0.007185 0.154448
v -0.016291 -0.031866 0.187187
v -0.023945 -0.041678 0.166149
v -0.020244 -0.042787 0.167024
v -0.026358 -0.041054 0.154448
v -0.024092 -0.042312 0.154448
v -0.023945 -0.041921 0.164240
v -0.014388 -0.031985 0.187187
v -0.012464 -0.031314 0.187811
v -0.010249 -0.030213 0.188011
v -0.010561 -0.028280 0.188988
v -0.008646 -0.026363 0.188971
v -0.006216 -0.022547 0.188466
v -0.008646 -0.020631 0.188988
v -0.008646 -0.018718 0.188951
v -0.009144 -0.015493 0.188364
v -0.010663 -0.014872 0.188496
v -0.012198 -0.014346 0.188520
v -0.012477 -0.012956 0.187187
v -0.012477 -0.001835 0.166813
v -0.014388 -0.002060 0.167535
v -0.014388 -0.001389 0.166149
v -0.016291 -0.001142 0.164240
v -0.018202 -0.001227 0.154448
v -0.020227 -0.001635 0.154448
v -0.022092 -0.002443 0.164240
v -0.023907 -0.003059 0.154448
v -0.025729 -0.004053 0.154448
v -0.028742 -0.006271 0.162911
v -0.027695 -0.005430 0.154448
v -0.016291 -0.043051 0.167641
v -0.021810 -0.042601 0.166088
v -0.020118 -0.043204 0.164240
v -0.018202 -0.043574 0.164240
v -0.016291 -0.043659 0.166149
v -0.018202 -0.043183 0.166837
v -0.022535 -0.042945 0.154448
v -0.022147 -0.042656 0.164240
v -0.014388 -0.043072 0.167651
v -0.012477 -0.042991 0.167573
v -0.010279 -0.042991 0.166712
v -0.005329 -0.040935 0.167359
v -0.009591 -0.031157 0.186252
v -0.008810 -0.030073 0.187031
v -0.008085 -0.028182 0.188215
v -0.007110 -0.026363 0.188486
v -0.005983 -0.024251 0.188242
v -0.005068 -0.022547 0.187187
v -0.005642 -0.020524 0.187781
v -0.007064 -0.018718 0.188500
v -0.007929 -0.016551 0.188218
v -0.007996 -0.015191 0.186984
v -0.009865 -0.013827 0.187008
v -0.007823 -0.002553 0.166047
v -0.010283 -0.002098 0.166695
v -0.012477 -0.001266 0.164240
v -0.014388 -0.001113 0.164240
v -0.014190 -0.000968 0.154448
v -0.016291 -0.001006 0.154448
v -0.022033 -0.002260 0.154448
v -0.014388 -0.043718 0.166149
v -0.020249 -0.043718 0.154448
v -0.018346 -0.044109 0.154448
v -0.016291 -0.043816 0.164240
v -0.014388 -0.043892 0.164240
v -0.012477 -0.043565 0.166149
v -0.007861 -0.042507 0.165942
v -0.010561 -0.043455 0.164240
v -0.003570 -0.040442 0.166006
v -0.001224 -0.038585 0.166410
v -0.007507 -0.029419 0.186540
v -0.005794 -0.026788 0.186618
v 0.005763 -0.026168 0.166864
v 0.006020 -0.024451 0.166708
v 0.006117 -0.022547 0.166745
v 0.006050 -0.020631 0.166718
v 0.005771 -0.018884 0.166874
v -0.005751 -0.018174 0.186818
v -0.006764 -0.016849 0.187184
v 0.000223 -0.007925 0.166688
v -0.001169 -0.006463 0.166410
v -0.004899 -0.004189 0.166895
v -0.004823 -0.003543 0.164240
v -0.007005 -0.002570 0.164240
v -0.008646 -0.002026 0.164240
v -0.010561 -0.001572 0.164240
v -0.003351 -0.004623 0.165830
v -0.010418 -0.001380 0.154448
v -0.012300 -0.001096 0.154448
v -0.012477 -0.043765 0.164240
v -0.016291 -0.044326 0.154448
v -0.014388 -0.044381 0.154448
v -0.008646 -0.042953 0.164240
v -0.006734 -0.042792 0.154448
v -0.004836 -0.041895 0.154448
v -0.010561 -0.043969 0.154448
v -0.008680 -0.043514 0.154448
v -0.002798 -0.040149 0.164240
v -0.000980 -0.038784 0.164240
v 0.000489 -0.037420 0.164240
v 0.000215 -0.037140 0.166698
v 0.001636 -0.035653 0.166400
v 0.003906 -0.031412 0.167257
v 0.005628 -0.028012 0.165915
v 0.006210 -0.026363 0.164240
v 0.006484 -0.024451 0.164240
v 0.006581 -0.022547 0.164240
v 0.006472 -0.020631 0.164240
v 0.006210 -0.018718 0.164240
v 0.005640 -0.017018 0.165925
v 0.004856 -0.014894 0.166149
v 0.003877 -0.013181 0.166783
v 0.003071 -0.011222 0.166040
v 0.001653 -0.009408 0.166396
v 0.000531 -0.007606 0.164240
v -0.000912 -0.006233 0.164240
v -0.004393 -0.003594 0.154448
v -0.006557 -0.002549 0.154448
v -0.003131 -0.004533 0.164240
v -0.008507 -0.001852 0.154448
v -0.012477 -0.044254 0.154448
v -0.002912 -0.040718 0.154448
v -0.001275 -0.039520 0.154448
v 0.000725 -0.037624 0.154448
v 0.001826 -0.035903 0.164240
v 0.003430 -0.033273 0.165844
v 0.004797 -0.030192 0.166149
v 0.005083 -0.030192 0.164240
v 0.005729 -0.028382 0.164240
v 0.006488 -0.026380 0.154448
v 0.006037 -0.028280 0.154448
v 0.006729 -0.024451 0.154448
v 0.006818 -0.022373 0.154448
v 0.006704 -0.020478 0.154448
v 0.006442 -0.018497 0.154448
v 0.005750 -0.016611 0.164240
v 0.005185 -0.014894 0.164240
v 0.004362 -0.012981 0.164240
v 0.001873 -0.009131 0.164240
v 0.003527 -0.011456 0.164511
v 0.001923 -0.008893 0.154448
v 0.000674 -0.007491 0.154448
v -0.000676 -0.006204 0.154448
v -0.002621 -0.004682 0.154448
v 0.002269 -0.035831 0.154448
v 0.003455 -0.034068 0.154448
v 0.004598 -0.032087 0.154448
v 0.005379 -0.030315 0.154448
v 0.005889 -0.016390 0.154448
v 0.005375 -0.014809 0.154448
v 0.004518 -0.012837 0.154448
v 0.003662 -0.011311 0.154448
f 1 2 3
f 1 3 4
f 1 4 5
f 1 5 11
f 1 11 22
f 1 22 32
f 1 32 45
f 1 45 63
f 1 63 81
f 1 81 105
f 1 105 134
f 1 134 132
f 1 132 131
f 1 131 164
f 1 164 129
f 1 129 128
f 1 128 163
f 1 163 162
f 1 162 193
f 1 193 192
f 1 192 224
f 1 224 222
f 1 222 221
f 1 221 248
f 1 248 247
f 1 247 246
f 1 246 245
f 1 245 256
f 1 256 255
f 1 255 254
f 1 254 253
f 1 253 239
f 1 239 238
f 1 238 237
f 1 237 236
f 1 236 234
f 1 234 235
f 1 235 252
f 1 252 251
f 1 251 250
f 1 250 249
f 1 249 228
f 1 228 227
f 1 227 226
f 1 226 199
f 1 199 198
f 1 198 201
f 1 201 200
f 1 200 225
f 1 225 196
f 1 196 195
f 1 195 167
f 1 167 166
f 1 166 141
f 1 141 110
f 1 110 109
f 1 109 85
f 1 85 68
f 1 68 64
f 1 64 48
f 1 48 35
f 1 35 24
f 1 24 13
f 1 13 6
f 1 6 2
f 2 6 7
f 2 7 3
f 3 7 8
f 3 8 4
f 4 8 9
f 4 9 10
f 4 10 11
f 4 11 5
f 6 12 7
f 6 13 12
f 7 12 14
f 7 14 15
f 7 15 8
f 8 16 17
f 8 17 9
f 8 15 18
f 8 18 16
f 9 17 19
f 9 19 20
f 9 20 10
f 10 20 21
f 10 21 22
f 10 22 11
f 12 13 23
f 12 23 14
f 13 24 23
f 14 25 15
f 14 23 26
f 14 26 25
f 15 25 18
f 16 27 17
f 16 18 27
f 17 28 19
f 17 27 28
f 18 25 27
f 19 28 29
f 19 29 20
f 20 29 21
f 21 29 30
f 21 30 31
f 21 31 32
f 21 32 22
f 23 24 33
f 23 33 34
f 23 34 26
f 24 35 33
f 25 36 27
f 25 26 36
f 26 34 37
f 26 37 36
f 27 38 39
f 27 39 28
f 27 36 40
f 27 40 38
f 28 39 41
f 28 41 42
f 28 42 29
f 29 42 43
f 29 43 30
f 30 43 31
f 31 43 44
f 31 44 45
f 31 45 32
f 33 35 46
f 33 46 34
f 34 46 47
f 34 47 37
f 35 48 46
f 36 37 49
f 36 49 50
f 36 50 40
f 37 47 51
f 37 51 52
f 37 52 53
f 37 53 49
f 38 40 54
f 38 54 55
f 38 55 39
f 39 55 56
f 39 56 41
f 40 50 57
f 40 57 54
f 41 56 42
f 42 56 58
f 42 58 59
f 42 59 60
f 42 60 61
f 42 61 43
f 43 61 62
f 43 62 44
f 44 62 45
f 45 62 63
f 46 48 51
f 46 51 47
f 48 64 51
f 49 65 57
f 49 57 50
f 49 53 66
f 49 66 65
f 51 64 67
f 51 67 52
f 52 66 53
f 52 67 68
f 52 68 69
f 52 69 66
f 54 57 70
f 54 70 55
f 55 71 56
f 55 70 71
f 56 72 73
f 56 73 58
f 56 71 72
f 57 65 70
f 58 73 74
f 58 74 75
f 58 75 76
f 58 76 77
f 58 77 78
f 58 78 59
f 59 78 79
f 59 79 60
f 60 79 80
f 60 80 61
f 61 80 62
f 62 80 63
f 63 80 81
f 64 68 67
f 65 66 82
f 65 82 83
f 65 83 84
f 65 84 70
f 66 69 82
f 68 85 69
f 69 85 86
f 69 86 87
f 69 87 82
f 70 84 88
f 70 88 89
f 70 89 90
f 70 90 91
f 70 91 71
f 71 92 93
f 71 93 72
f 71 91 92
f 72 93 94
f 72 94 74
f 72 74 73
f 74 94 95
f 74 95 96
f 74 96 75
f 75 96 97
f 75 97 98
f 75 98 99
f 75 99 76
f 76 99 100
f 76 100 101
f 76 101 77
f 77 101 102
f 77 102 78
f 78 102 79
f 79 102 103
f 79 103 80
f 80 103 104
f 80 104 81
f 81 104 105
f 82 87 83
f 83 106 84
f 83 87 107
f 83 107 108
f 83 108 106
f 84 106 88
f 85 109 86
f 86 109 110
f 86 110 111
f 86 111 107
f 86 107 87
f 88 106 112
f 88 112 89
f 89 112 113
f 89 113 114
f 89 114 115
f 89 115 90
f 90 115 116
f 90 116 91
f 91 116 117
f 91 117 118
f 91 118 92
f 92 118 119
f 92 119 120
f 92 120 121
f 92 121 122
f 92 122 93
f 93 122 94
f 94 122 123
f 94 123 124
f 94 124 125
f 94 125 95
f 95 126 96
f 95 125 126
f 96 126 127
f 96 127 97
f 97 127 163
f 97 163 128
f 97 128 129
f 97 129 98
f 98 129 130
f 98 130 99
f 99 130 100
f 100 131 101
f 100 130 131
f 101 132 102
f 101 131 132
f 102 133 103
f 102 132 134
f 102 134 133
f 103 133 105
f 103 105 104
f 105 133 134
f 106 108 135
f 106 135 112
f 107 111 136
f 107 136 108
f 108 136 137
f 108 137 138
f 108 138 139
f 108 139 140
f 108 140 135
f 110 141 142
f 110 142 111
f 111 142 136
f 112 135 143
f 112 143 144
f 112 144 113
f 113 144 145
f 113 145 146
f 113 146 147
f 113 147 114
f 114 147 148
f 114 148 149
f 114 149 115
f 115 149 150
f 115 150 116
f 116 150 117
f 117 150 151
f 117 151 152
f 117 152 153
f 117 153 154
f 117 154 119
f 117 119 118
f 119 154 120
f 120 155 156
f 120 156 157
f 120 157 121
f 120 154 155
f 121 157 123
f 121 123 122
f 123 157 158
f 123 158 159
f 123 159 124
f 124 126 125
f 124 159 126
f 126 159 160
f 126 160 161
f 126 161 127
f 127 161 162
f 127 162 163
f 129 164 130
f 130 164 131
f 135 140 139
f 135 139 165
f 135 165 143
f 136 142 137
f 137 166 167
f 137 167 138
f 137 142 166
f 138 167 168
f 138 168 139
f 139 168 169
f 139 169 165
f 141 166 142
f 143 165 144
f 144 165 170
f 144 170 145
f 145 171 146
f 145 170 172
f 145 172 171
f 146 171 173
f 146 173 174
f 146 174 148
f 146 148 147
f 148 175 149
f 148 174 175
f 149 175 176
f 149 176 150
f 150 176 151
f 151 176 177
f 151 177 152
f 152 177 178
f 152 178 179
f 152 179 180
f 152 180 181
f 152 181 153
f 153 181 182
f 153 182 154
f 154 182 183
f 154 183 155
f 155 183 156
f 156 183 184
f 156 184 185
f 156 185 157
f 157 185 186
f 157 186 158
f 158 187 188
f 158 188 189
f 158 189 190
f 158 190 159
f 158 186 191
f 158 191 187
f 159 190 160
f 160 190 192
f 160 192 193
f 160 193 161
f 161 193 162
f 165 169 194
f 165 194 170
f 167 195 168
f 168 195 169
f 169 195 196
f 169 196 225
f 169 225 194
f 170 194 172
f 171 172 197
f 171 197 198
f 171 198 199
f 171 199 173
f 172 194 200
f 172 200 201
f 172 201 197
f 173 202 203
f 173 203 174
f 173 199 202
f 174 203 204
f 174 204 205
f 174 205 175
f 175 205 206
f 175 206 176
f 176 206 207
f 176 207 177
f 177 207 208
f 177 208 209
f 177 209 210
f 177 210 178
f 178 210 179
f 179 211 180
f 179 210 211
f 180 211 212
f 180 212 213
f 180 213 181
f 181 213 214
f 181 214 215
f 181 215 182
f 182 215 216
f 182 216 183
f 183 216 217
f 183 217 218
f 183 218 184
f 184 218 219
f 184 219 185
f 185 220 191
f 185 191 186
f 185 219 220
f 187 221 222
f 187 222 188
f 187 191 223
f 187 223 221
f 188 222 224
f 188 224 189
f 189 224 192
f 189 192 190
f 191 220 223
f 194 225 200
f 197 201 198
f 199 226 202
f 202 226 227
f 202 227 203
f 203 227 204
f 204 227 228
f 204 228 229
f 204 229 206
f 204 206 205
f 206 229 230
f 206 230 207
f 207 231 208
f 207 230 231
f 208 231 232
f 208 232 233
f 208 233 209
f 209 234 210
f 209 233 235
f 209 235 234
f 210 234 236
f 210 236 211
f 211 237 212
f 211 236 237
f 212 237 238
f 212 238 239
f 212 239 213
f 213 239 240
f 213 240 214
f 214 240 241
f 214 241 215
f 215 241 242
f 215 242 216
f 216 242 217
f 217 243 218
f 217 242 244
f 217 244 243
f 218 243 219
f 219 243 245
f 219 245 246
f 219 246 247
f 219 247 220
f 220 247 248
f 220 248 223
f 221 223 248
f 228 249 229
f 229 249 250
f 229 250 230
f 230 250 251
f 230 251 232
f 230 232 231
f 232 251 252
f 232 252 233
f 233 252 235
f 239 253 240
f 240 253 254
f 240 254 241
f 241 254 242
f 242 254 255
f 242 255 244
f 243 244 256
f 243 256 245
f 244 255 256
