v 0.066478 0.246746 -0.001903
v 0.066295 0.245330 -0.008141
v 0.064701 0.246366 -0.005336
v 0.063574 0.247003 -0.001964
v 0.066376 0.246686 0.001411
v 0.070189 0.244617 0.001505
v 0.070230 0.244606 -0.001809
v 0.070458 0.243998 -0.005013
v 0.068887 0.244290 -0.008080
v 0.065554 0.243111 -0.011979
v 0.023376 0.248490 -0.011421
v 0.021300 0.248933 -0.009497
v 0.021185 0.249004 -0.006173
v 0.022103 0.248917 0.000492
v 0.023110 0.248789 0.007649
v 0.066181 0.245963 0.004683
v 0.070219 0.244088 0.004857
v 0.063723 0.246781 0.002419
v 0.071133 0.241717 0.001548
v 0.071117 0.241723 -0.001768
v 0.070754 0.241355 -0.008429
v 0.070353 0.239842 -0.011598
v 0.067679 0.240707 -0.013827
v 0.064699 0.240821 -0.014442
v 0.020705 0.247654 -0.012260
v 0.015891 0.248251 -0.011959
v 0.017394 0.248950 -0.009576
v 0.017344 0.249021 -0.006251
v 0.012246 0.248966 -0.006354
v 0.012383 0.248678 0.006956
v 0.015004 0.248175 0.011233
v 0.023742 0.248090 0.010643
v 0.068107 0.244257 0.007251
v 0.069545 0.241346 0.009235
v 0.070803 0.234604 0.011403
v 0.071249 0.235537 0.008738
v 0.071317 0.235510 0.004932
v 0.071325 0.234477 0.001611
v 0.071271 0.235553 -0.001859
v 0.071165 0.238120 -0.005068
v 0.071077 0.238155 -0.008396
v 0.070757 0.234100 -0.012765
v 0.069565 0.238114 -0.014211
v 0.067170 0.235587 -0.016915
v 0.063114 0.237438 -0.016705
v 0.023605 0.246351 -0.012979
v 0.016202 0.245720 -0.013695
v 0.009763 0.247599 -0.012375
v -0.000826 0.247479 -0.010957
v 0.005767 0.248402 -0.009808
v 0.011263 0.248791 -0.009700
v 0.003727 0.248324 -0.006522
v 0.002404 0.248279 0.006756
v 0.005442 0.248491 0.006816
v 0.009714 0.248617 0.006902
v 0.005861 0.247716 0.011193
v 0.008668 0.246338 0.012695
v 0.015659 0.245937 0.013017
v 0.022939 0.246201 0.012715
v 0.064649 0.242868 0.010058
v 0.067053 0.240024 0.012013
v 0.070009 0.236066 0.012360
v 0.069905 0.232590 0.013674
v 0.070744 0.231125 0.011613
v 0.071207 0.230940 0.008297
v 0.071253 0.229629 0.004979
v 0.071316 0.230897 0.001640
v 0.071337 0.230889 -0.001676
v 0.071285 0.230909 -0.005007
v 0.071222 0.235243 -0.005043
v 0.071132 0.230970 -0.008337
v 0.070960 0.231039 -0.011671
v 0.070864 0.226403 -0.012266
v 0.070269 0.231249 -0.014962
v 0.069581 0.232669 -0.016057
v 0.065106 0.233374 -0.017934
v 0.068172 0.232085 -0.017316
v 0.062009 0.234609 -0.017720
v 0.055413 0.236070 -0.017234
v 0.011688 0.243805 -0.014360
v 0.008847 0.243909 -0.014234
v 0.001373 0.244483 -0.013713
v 0.006353 0.247343 -0.012356
v -0.005151 0.246158 -0.012257
v -0.004808 0.247152 -0.010013
v 0.002341 0.246991 -0.012351
v -0.001640 0.247778 -0.006627
v -0.001851 0.247822 0.006674
v -0.005704 0.246207 0.012003
v 0.001280 0.245807 0.012639
v 0.003921 0.243466 0.013460
v 0.019208 0.245848 0.013003
v 0.011323 0.244082 0.013475
v 0.014411 0.242851 0.013748
v 0.061343 0.234875 0.015025
v 0.066516 0.237414 0.013727
v 0.064150 0.239945 0.012532
v 0.068629 0.235471 0.013779
v 0.068955 0.228260 0.014181
v 0.070640 0.226959 0.011147
v 0.067522 0.232410 0.014856
v 0.071081 0.227442 0.008323
v 0.071082 0.223827 0.005022
v 0.071113 0.223815 0.001693
v 0.071258 0.228152 -0.001655
v 0.071236 0.228009 -0.004984
v 0.071093 0.227772 -0.008312
v 0.070976 0.223870 -0.008283
v 0.070864 0.220330 -0.008256
v 0.070298 0.223431 -0.013690
v 0.070119 0.227796 -0.014991
v 0.068080 0.229176 -0.017396
v 0.063881 0.230284 -0.018251
v 0.060787 0.231518 -0.018197
v 0.057692 0.232753 -0.018026
v 0.004073 0.241352 -0.014739
v 0.004563 0.242951 -0.014354
v -0.002945 0.242621 -0.014083
v -0.006043 0.243857 -0.013374
v -0.001775 0.245931 -0.012670
v -0.010360 0.242000 -0.013724
v -0.019032 0.241394 -0.012653
v -0.012878 0.244627 -0.011299
v -0.008733 0.245676 -0.011497
v -0.014012 0.245510 -0.005712
v -0.008618 0.246643 -0.006760
v -0.004829 0.247297 -0.006688
v -0.005110 0.247378 0.006611
v -0.009162 0.245862 0.011247
v -0.013409 0.244905 0.010931
v -0.015235 0.240361 0.013339
v -0.010908 0.242219 0.013221
v -0.006577 0.244070 0.012857
v 0.007007 0.242235 0.013743
v -0.003503 0.242844 0.013344
v -0.000419 0.241613 0.013697
v 0.010085 0.241007 0.013949
v 0.057012 0.233024 0.015413
v 0.064433 0.233643 0.015195
v 0.066282 0.229326 0.015287
v 0.067734 0.225163 0.013978
v 0.069277 0.220963 0.010987
v 0.069774 0.224349 0.011885
v 0.070388 0.220520 0.008365
v 0.070885 0.223906 0.008347
v 0.070851 0.220335 0.005046
v 0.070937 0.220301 0.001718
v 0.070968 0.220289 -0.001597
v 0.070971 0.220288 -0.004927
v 0.070378 0.216955 -0.004912
v 0.069709 0.217222 -0.008254
v 0.069577 0.220351 -0.012580
v 0.065673 0.224606 -0.017046
v 0.062641 0.227195 -0.017910
v 0.059551 0.228427 -0.018053
v 0.056460 0.229660 -0.018080
v -0.022204 0.230342 -0.015815
v -0.020556 0.234293 -0.015212
v 0.000659 0.239896 -0.014919
v 0.000082 0.241358 -0.014586
v -0.011426 0.238547 -0.014667
v -0.014679 0.240139 -0.014024
v -0.018998 0.238283 -0.014228
v -0.023313 0.236421 -0.014266
v -0.025808 0.237416 -0.012903
v -0.022886 0.239692 -0.011887
v -0.019487 0.242427 -0.010273
v -0.016169 0.243572 -0.011263
v -0.016439 0.244329 -0.006900
v -0.014626 0.245507 -0.001900
v -0.008884 0.246734 0.006539
v -0.013704 0.245636 0.006450
v -0.016570 0.243844 0.010792
v -0.012152 0.239131 0.013752
v -0.022618 0.239474 0.011963
v -0.019556 0.238506 0.013200
v -0.020801 0.235419 0.013767
v -0.016476 0.237277 0.013789
v -0.007823 0.240988 0.013571
v 0.002678 0.240378 0.013914
v 0.060101 0.231792 0.015569
v -0.001657 0.238528 0.014028
v 0.063194 0.230558 0.015542
v 0.061966 0.227464 0.015268
v 0.065056 0.226231 0.014906
v 0.066692 0.222472 0.013090
v 0.068407 0.217666 0.008335
v 0.066177 0.218277 0.010132
v 0.069659 0.217242 0.005047
v 0.070178 0.217035 0.001729
v 0.070411 0.216942 -0.001581
v 0.068120 0.214272 -0.001606
v 0.067563 0.215396 -0.008283
v 0.068503 0.217946 -0.011380
v 0.066288 0.218678 -0.013145
v 0.064282 0.222454 -0.016155
v 0.019132 0.213852 -0.013925
v 0.061611 0.224655 -0.017199
v 0.009822 0.217566 -0.014479
v -0.019047 0.229082 -0.015840
v -0.031566 0.234077 -0.008411
v -0.029693 0.233653 -0.013593
v -0.025316 0.232733 -0.015276
v -0.029355 0.235942 -0.010422
v -0.026853 0.237833 -0.010386
v -0.023756 0.240126 -0.007015
v -0.019623 0.242629 -0.006951
v -0.018778 0.243179 -0.003609
v -0.018838 0.243198 -0.000294
v -0.019873 0.242682 0.006349
v -0.016705 0.244395 0.006399
v -0.023978 0.239779 0.010060
v -0.013389 0.236046 0.014039
v -0.009064 0.237899 0.013949
v -0.028949 0.236135 0.009544
v -0.030980 0.234122 0.010000
v -0.024951 0.237074 0.012376
v -0.028290 0.233803 0.012709
v -0.025149 0.232545 0.013788
v -0.022063 0.231314 0.014112
v -0.017715 0.234188 0.014066
v -0.018341 0.228801 0.014144
v 0.058869 0.228699 0.015456
v 0.008183 0.218220 0.013153
v 0.016484 0.214908 0.012638
v 0.020410 0.213342 0.012360
v 0.063984 0.222360 0.013390
v 0.067231 0.215737 0.006109
v 0.023850 0.211970 0.010647
v 0.067379 0.214370 0.001611
v 0.065902 0.213185 -0.000610
v 0.066080 0.213728 -0.005284
v 0.064674 0.214841 -0.008233
v 0.066293 0.216364 -0.010430
v 0.063493 0.218226 -0.013095
v 0.023766 0.212004 -0.012326
v -0.030902 0.234546 0.006190
v -0.029415 0.235935 -0.007096
v -0.026957 0.237874 -0.007062
v -0.023995 0.240074 0.006286
v -0.019816 0.242681 0.003020
v -0.026799 0.237811 0.009574
v -0.027932 0.237072 0.006230
v -0.004188 0.223155 0.013750
v -0.000440 0.221660 0.013605
v 0.002655 0.220425 0.013461
v 0.005750 0.219190 0.013296
v 0.065208 0.213908 0.002623
v 0.025251 0.211411 0.008269
v 0.025989 0.211117 0.002786
v 0.026177 0.211042 -0.001485
v 0.026040 0.211096 -0.006534
v 0.025746 0.211214 -0.009694
f 1 2 3
f 1 3 4
f 1 4 5
f 1 5 6
f 1 6 7
f 1 7 8
f 1 8 9
f 1 9 2
f 2 10 11
f 2 11 3
f 2 9 10
f 3 11 4
f 4 11 12
f 4 12 13
f 4 13 14
f 4 14 15
f 4 15 5
f 5 16 17
f 5 17 6
f 5 15 18
f 5 18 16
f 6 17 19
f 6 19 7
f 7 19 8
f 8 19 20
f 8 20 21
f 8 21 9
f 9 21 22
f 9 22 23
f 9 23 10
f 10 23 24
f 10 24 11
f 11 25 26
f 11 26 27
f 11 27 12
f 11 24 25
f 12 27 28
f 12 28 13
f 13 28 14
f 14 28 15
f 15 28 29
f 15 29 30
f 15 30 31
f 15 31 32
f 15 32 18
f 16 33 17
f 16 18 32
f 16 32 33
f 17 33 34
f 17 34 35
f 17 35 36
f 17 36 19
f 19 36 37
f 19 37 20
f 20 37 38
f 20 38 39
f 20 39 40
f 20 40 41
f 20 41 21
f 21 41 42
f 21 42 22
f 22 43 23
f 22 42 43
f 23 43 44
f 23 44 24
f 24 44 45
f 24 45 46
f 24 46 25
f 25 46 47
f 25 47 26
f 26 47 48
f 26 48 49
f 26 49 50
f 26 50 51
f 26 51 27
f 27 51 29
f 27 29 28
f 29 51 50
f 29 50 52
f 29 52 53
f 29 53 54
f 29 54 55
f 29 55 30
f 30 55 31
f 31 55 54
f 31 54 56
f 31 56 57
f 31 57 58
f 31 58 59
f 31 59 32
f 32 59 60
f 32 60 33
f 33 61 34
f 33 60 61
f 34 61 62
f 34 62 35
f 35 62 63
f 35 63 64
f 35 64 36
f 36 64 65
f 36 65 66
f 36 66 37
f 37 66 67
f 37 67 68
f 37 68 38
f 38 68 39
f 39 68 69
f 39 69 70
f 39 70 40
f 40 70 41
f 41 70 69
f 41 69 71
f 41 71 72
f 41 72 42
f 42 72 73
f 42 73 74
f 42 74 43
f 43 74 75
f 43 75 44
f 44 76 45
f 44 75 77
f 44 77 76
f 45 76 78
f 45 78 79
f 45 79 47
f 45 47 46
f 47 80 81
f 47 81 82
f 47 82 48
f 47 79 80
f 48 82 83
f 48 83 49
f 49 84 85
f 49 85 50
f 49 83 86
f 49 86 84
f 50 85 87
f 50 87 52
f 52 87 53
f 53 56 54
f 53 87 88
f 53 88 56
f 56 88 89
f 56 89 57
f 57 89 90
f 57 90 91
f 57 91 58
f 58 92 59
f 58 91 93
f 58 93 94
f 58 94 92
f 59 92 95
f 59 95 96
f 59 96 97
f 59 97 60
f 60 97 61
f 61 96 98
f 61 98 62
f 61 97 96
f 62 98 63
f 63 99 100
f 63 100 64
f 63 98 101
f 63 101 99
f 64 100 102
f 64 102 65
f 65 102 103
f 65 103 66
f 66 103 104
f 66 104 67
f 67 104 68
f 68 104 105
f 68 105 106
f 68 106 69
f 69 106 107
f 69 107 71
f 71 107 72
f 72 107 73
f 73 108 109
f 73 109 110
f 73 110 111
f 73 111 74
f 73 107 108
f 74 111 75
f 75 111 112
f 75 112 77
f 76 77 112
f 76 112 113
f 76 113 114
f 76 114 115
f 76 115 78
f 78 115 79
f 79 115 116
f 79 116 80
f 80 116 117
f 80 117 81
f 81 117 82
f 82 86 83
f 82 117 118
f 82 118 119
f 82 119 84
f 82 84 120
f 82 120 86
f 84 86 120
f 84 119 121
f 84 121 122
f 84 122 123
f 84 123 124
f 84 124 85
f 85 124 123
f 85 123 125
f 85 125 126
f 85 126 127
f 85 127 87
f 87 127 128
f 87 128 88
f 88 128 89
f 89 128 129
f 89 129 130
f 89 130 131
f 89 131 132
f 89 132 133
f 89 133 90
f 90 133 91
f 91 134 93
f 91 133 135
f 91 135 136
f 91 136 134
f 92 94 95
f 93 134 94
f 94 134 137
f 94 137 138
f 94 138 95
f 95 138 139
f 95 139 96
f 96 139 101
f 96 101 98
f 99 101 140
f 99 140 141
f 99 141 142
f 99 142 143
f 99 143 100
f 100 143 144
f 100 144 145
f 100 145 102
f 101 139 140
f 102 145 103
f 103 145 146
f 103 146 147
f 103 147 104
f 104 147 148
f 104 148 149
f 104 149 105
f 105 149 106
f 106 149 109
f 106 109 108
f 106 108 107
f 109 149 150
f 109 150 151
f 109 151 152
f 109 152 110
f 110 152 153
f 110 153 112
f 110 112 111
f 112 153 113
f 113 153 154
f 113 154 155
f 113 155 156
f 113 156 114
f 114 156 157
f 114 157 115
f 115 157 158
f 115 158 159
f 115 159 116
f 116 159 160
f 116 160 117
f 117 160 118
f 118 160 161
f 118 161 162
f 118 162 121
f 118 121 119
f 121 162 122
f 122 162 163
f 122 163 164
f 122 164 165
f 122 165 166
f 122 166 167
f 122 167 168
f 122 168 123
f 123 168 125
f 125 168 169
f 125 169 170
f 125 170 126
f 126 170 171
f 126 171 127
f 127 171 128
f 128 171 129
f 129 171 172
f 129 172 130
f 130 172 173
f 130 173 131
f 131 174 132
f 131 173 175
f 131 175 176
f 131 176 177
f 131 177 178
f 131 178 174
f 132 174 179
f 132 179 136
f 132 136 135
f 132 135 133
f 134 136 180
f 134 180 137
f 136 179 174
f 136 174 180
f 137 180 138
f 138 181 139
f 138 180 182
f 138 182 181
f 139 183 140
f 139 181 183
f 140 183 184
f 140 184 185
f 140 185 141
f 141 186 142
f 141 185 186
f 142 187 144
f 142 144 143
f 142 186 188
f 142 188 187
f 144 187 189
f 144 189 190
f 144 190 146
f 144 146 145
f 146 190 191
f 146 191 147
f 147 191 148
f 148 191 149
f 149 191 150
f 150 191 192
f 150 192 193
f 150 193 151
f 151 193 194
f 151 194 152
f 152 194 195
f 152 195 153
f 153 196 197
f 153 197 198
f 153 198 154
f 153 195 196
f 154 198 197
f 154 197 199
f 154 199 200
f 154 200 155
f 155 200 156
f 156 200 157
f 157 200 199
f 157 199 197
f 157 197 236
f 157 236 253
f 157 253 252
f 157 252 251
f 157 251 250
f 157 250 249
f 157 249 229
f 157 229 226
f 157 226 225
f 157 225 224
f 157 224 247
f 157 247 246
f 157 246 245
f 157 245 244
f 157 244 222
f 157 222 201
f 157 201 202
f 157 202 203
f 157 203 158
f 158 163 162
f 158 162 161
f 158 161 160
f 158 160 159
f 158 203 163
f 163 203 164
f 164 203 202
f 164 202 165
f 165 202 204
f 165 204 205
f 165 205 166
f 166 205 167
f 167 205 206
f 167 206 207
f 167 207 169
f 167 169 168
f 169 207 170
f 170 172 171
f 170 207 208
f 170 208 209
f 170 209 210
f 170 210 211
f 170 211 172
f 172 211 173
f 173 211 210
f 173 210 212
f 173 212 175
f 174 178 213
f 174 213 214
f 174 214 180
f 175 212 215
f 175 215 216
f 175 216 217
f 175 217 176
f 176 217 218
f 176 218 219
f 176 219 177
f 177 219 220
f 177 220 221
f 177 221 178
f 178 221 213
f 180 214 182
f 181 182 213
f 181 213 221
f 181 221 220
f 181 220 222
f 181 222 223
f 181 223 183
f 182 214 213
f 183 223 184
f 184 223 224
f 184 224 225
f 184 225 226
f 184 226 185
f 185 227 186
f 185 226 227
f 186 227 188
f 187 188 228
f 187 228 189
f 188 227 226
f 188 226 229
f 188 229 228
f 189 228 230
f 189 230 192
f 189 192 190
f 190 192 191
f 192 230 231
f 192 231 232
f 192 232 193
f 193 232 233
f 193 233 234
f 193 234 194
f 194 234 195
f 195 234 235
f 195 235 196
f 196 236 197
f 196 235 236
f 201 237 238
f 201 238 204
f 201 204 202
f 201 222 216
f 201 216 237
f 204 238 239
f 204 239 205
f 205 239 206
f 206 239 240
f 206 240 210
f 206 210 241
f 206 241 207
f 207 241 208
f 208 241 209
f 209 241 210
f 210 240 212
f 212 240 242
f 212 242 215
f 215 243 237
f 215 237 216
f 215 242 243
f 216 218 217
f 216 222 218
f 218 222 219
f 219 222 220
f 222 244 223
f 223 244 245
f 223 245 246
f 223 246 247
f 223 247 224
f 228 229 248
f 228 248 230
f 229 249 248
f 230 248 231
f 231 248 249
f 231 249 250
f 231 250 251
f 231 251 252
f 231 252 253
f 231 253 232
f 232 253 236
f 232 236 233
f 233 236 234
f 234 236 235
f 237 243 238
f 238 243 239
f 239 243 240
f 240 243 242
