v -0.012024 0.226273 0.013844
v -0.012162 0.226328 0.013853
v -0.038192 0.213626 0.014598
v -0.038165 0.213615 0.014596
v -0.012300 0.225576 0.013737
v -0.011432 0.226037 -0.015230
v -0.015256 0.227563 0.014007
v -0.036476 0.216589 0.014612
v -0.039985 0.214341 0.014656
v -0.036650 0.213011 0.013822
v -0.013663 0.222083 0.012470
v -0.013177 0.223332 0.013007
v -0.012545 0.224954 0.013639
v -0.011789 0.225147 -0.015146
v -0.039334 0.214082 -0.017469
v -0.039312 0.214138 -0.017473
v -0.029449 0.220953 -0.016738
v -0.025133 0.222811 -0.016388
v -0.015973 0.227849 -0.015639
v -0.018352 0.228798 0.014148
v -0.035619 0.218863 0.014589
v -0.040046 0.214366 0.014658
v -0.024525 0.226151 0.014305
v -0.034665 0.212219 0.012198
v -0.034634 0.212207 0.012161
v -0.014091 0.220864 0.009982
v -0.012090 0.224404 -0.014957
v -0.036111 0.212796 -0.016282
v -0.042424 0.215314 -0.017527
v -0.038081 0.217230 -0.017353
v -0.033763 0.219092 -0.017085
v -0.023902 0.225902 -0.016308
v -0.019059 0.229080 -0.015841
v -0.021444 0.230031 0.014194
v -0.037104 0.219455 0.014554
v -0.028851 0.224294 0.014414
v -0.042949 0.215524 0.014533
v -0.033863 0.211899 0.009706
v -0.033856 0.211897 0.009643
v -0.033690 0.211830 0.006418
v -0.033686 0.211828 0.006321
v -0.014061 0.220742 0.006648
v -0.012334 0.223804 -0.014771
v -0.034029 0.213137 -0.015623
v -0.034445 0.212131 -0.013663
v -0.043678 0.215815 -0.017078
v -0.042402 0.215371 -0.017520
v -0.036853 0.220325 -0.017086
v -0.032534 0.222184 -0.016909
v -0.022676 0.228995 -0.016006
v -0.022219 0.230340 -0.015818
v -0.022763 0.230558 0.014141
v -0.027615 0.227383 0.014279
v -0.039536 0.219340 0.014448
v -0.044285 0.216057 0.014334
v -0.034013 0.211959 -0.010087
v -0.013858 0.220464 -0.006657
v -0.013890 0.220459 -0.005376
v -0.013941 0.220452 -0.003329
v -0.012577 0.223221 -0.014356
v -0.013228 0.221655 -0.013214
v -0.013529 0.221016 -0.011258
v -0.013725 0.220601 -0.009984
v -0.034033 0.211967 -0.010242
v -0.045612 0.216586 -0.016377
v -0.041178 0.218465 -0.017086
v -0.035630 0.223419 -0.016623
v -0.031310 0.225275 -0.016506
v -0.026994 0.227135 -0.016282
v -0.025916 0.230594 -0.015712
v -0.025073 0.231479 -0.015573
v -0.024531 0.231263 0.014027
v -0.026377 0.230471 0.014005
v -0.025848 0.231788 0.013851
v -0.030695 0.228612 0.013839
v -0.036253 0.223667 0.014015
v -0.029450 0.231697 0.013279
v -0.035007 0.226750 0.013323
v -0.031668 0.232582 0.011939
v -0.037055 0.227567 0.011877
v -0.043919 0.219558 0.012117
v -0.045541 0.216558 0.012933
v -0.013793 0.220531 -0.008291
v -0.047011 0.217144 -0.013959
v -0.042066 0.221724 -0.015850
v -0.043487 0.219386 -0.016168
v -0.040134 0.221940 -0.016296
v -0.035273 0.228417 -0.015388
v -0.034550 0.226789 -0.015936
v -0.032749 0.228745 -0.015648
v -0.030246 0.228735 -0.015858
v -0.028501 0.230638 -0.015561
v -0.026550 0.232068 -0.015366
v -0.027607 0.232490 0.013433
v -0.028967 0.233032 0.012853
v -0.030242 0.233541 0.012083
v -0.030866 0.233790 0.011688
v -0.035908 0.229292 0.011379
v -0.042637 0.221626 0.011519
v -0.046877 0.217091 0.009336
v -0.047165 0.217206 -0.010637
v -0.046652 0.217862 -0.010632
v -0.044940 0.219966 -0.010614
v -0.042671 0.222646 -0.010589
v -0.040941 0.224321 -0.013236
v -0.040886 0.223641 -0.015448
v -0.035436 0.229852 -0.013184
v -0.030720 0.233731 -0.013070
v -0.029496 0.233243 -0.013963
v -0.028615 0.232892 -0.014582
v -0.029028 0.231836 -0.015094
v -0.030979 0.230424 -0.015387
v -0.026947 0.232226 -0.015288
v -0.031167 0.233910 0.010796
v -0.031367 0.233990 0.009514
v -0.032493 0.232911 0.009500
v -0.035870 0.229669 0.009458
v -0.037644 0.227802 0.009437
v -0.040020 0.225170 0.009410
v -0.041434 0.223532 0.009394
v -0.044598 0.219829 0.009360
v -0.046839 0.217141 0.009336
v -0.046881 0.217092 0.009229
v -0.046954 0.217121 0.006008
v -0.044693 0.219867 0.006032
v -0.040985 0.224565 -0.010571
v -0.042503 0.222445 0.006056
v -0.041352 0.223778 0.006068
v -0.039800 0.225882 -0.010557
v -0.037925 0.227914 -0.010536
v -0.035493 0.230433 -0.010507
v -0.034216 0.231713 -0.010491
v -0.032774 0.233023 -0.010472
v -0.031564 0.234068 -0.010456
v -0.031440 0.234019 0.007977
v -0.034547 0.231199 0.006146
v -0.035794 0.229907 0.006131
v -0.037715 0.227830 0.006109
v -0.040088 0.225197 0.006082
v -0.034284 0.231614 -0.007163
v -0.032768 0.233021 -0.007143
v -0.031577 0.234073 -0.008936
v -0.031475 0.234033 0.006186
v -0.032656 0.232976 0.006170
v -0.031573 0.234072 -0.007128
f 1 2 3
f 1 3 4
f 1 4 5
f 1 5 13
f 1 13 12
f 1 12 11
f 1 11 26
f 1 26 42
f 1 42 59
f 1 59 58
f 1 58 57
f 1 57 83
f 1 83 63
f 1 63 62
f 1 62 61
f 1 61 60
f 1 60 43
f 1 43 27
f 1 27 14
f 1 14 6
f 1 6 19
f 1 19 33
f 1 33 51
f 1 51 71
f 1 71 93
f 1 93 113
f 1 113 110
f 1 110 109
f 1 109 108
f 1 108 134
f 1 134 142
f 1 142 145
f 1 145 143
f 1 143 135
f 1 135 115
f 1 115 114
f 1 114 97
f 1 97 96
f 1 96 95
f 1 95 94
f 1 94 74
f 1 74 72
f 1 72 52
f 1 52 34
f 1 34 20
f 1 20 7
f 1 7 2
f 2 7 8
f 2 8 3
f 3 8 9
f 3 9 22
f 3 22 37
f 3 37 55
f 3 55 82
f 3 82 100
f 3 100 123
f 3 123 124
f 3 124 101
f 3 101 84
f 3 84 65
f 3 65 46
f 3 46 29
f 3 29 15
f 3 15 28
f 3 28 45
f 3 45 64
f 3 64 56
f 3 56 41
f 3 41 40
f 3 40 39
f 3 39 38
f 3 38 25
f 3 25 24
f 3 24 10
f 3 10 4
f 4 10 11
f 4 11 12
f 4 12 13
f 4 13 5
f 6 14 15
f 6 15 16
f 6 16 17
f 6 17 18
f 6 18 19
f 7 20 8
f 8 21 22
f 8 22 9
f 8 20 23
f 8 23 21
f 10 24 11
f 11 24 25
f 11 25 26
f 14 27 15
f 15 29 16
f 15 27 28
f 16 29 30
f 16 30 31
f 16 31 17
f 17 31 32
f 17 32 18
f 18 32 19
f 19 32 33
f 20 34 23
f 21 35 22
f 21 23 36
f 21 36 35
f 22 35 37
f 23 34 36
f 25 38 26
f 26 38 39
f 26 39 40
f 26 40 41
f 26 41 42
f 27 43 28
f 28 43 44
f 28 44 45
f 29 46 47
f 29 47 48
f 29 48 30
f 30 48 49
f 30 49 31
f 31 49 32
f 32 49 50
f 32 50 33
f 33 50 51
f 34 52 53
f 34 53 36
f 35 36 53
f 35 53 54
f 35 54 37
f 37 54 55
f 41 56 57
f 41 57 58
f 41 58 59
f 41 59 42
f 43 60 44
f 44 60 61
f 44 61 45
f 45 61 62
f 45 62 63
f 45 63 64
f 46 65 66
f 46 66 47
f 47 66 48
f 48 66 67
f 48 67 68
f 48 68 49
f 49 68 69
f 49 69 50
f 50 69 51
f 51 70 71
f 51 69 70
f 52 72 53
f 53 72 73
f 53 73 54
f 54 73 74
f 54 74 75
f 54 75 76
f 54 76 55
f 55 76 77
f 55 77 78
f 55 78 79
f 55 79 80
f 55 80 81
f 55 81 82
f 56 64 63
f 56 63 83
f 56 83 57
f 65 84 85
f 65 85 86
f 65 86 66
f 66 86 85
f 66 85 87
f 66 87 88
f 66 88 89
f 66 89 67
f 67 89 90
f 67 90 91
f 67 91 68
f 68 91 70
f 68 70 69
f 70 91 92
f 70 92 71
f 71 92 93
f 72 74 73
f 74 94 75
f 75 94 77
f 75 77 76
f 77 95 78
f 77 94 95
f 78 95 96
f 78 96 79
f 79 97 80
f 79 96 97
f 80 97 98
f 80 98 99
f 80 99 81
f 81 99 100
f 81 100 82
f 84 101 102
f 84 102 103
f 84 103 104
f 84 104 105
f 84 105 106
f 84 106 85
f 85 106 88
f 85 88 87
f 88 106 107
f 88 107 108
f 88 108 109
f 88 109 110
f 88 110 111
f 88 111 112
f 88 112 90
f 88 90 89
f 90 112 92
f 90 92 91
f 92 112 113
f 92 113 93
f 97 114 98
f 98 114 115
f 98 115 116
f 98 116 117
f 98 117 118
f 98 118 119
f 98 119 99
f 99 119 120
f 99 120 121
f 99 121 122
f 99 122 100
f 100 122 123
f 101 124 102
f 102 124 103
f 103 124 125
f 103 125 104
f 104 126 105
f 104 125 127
f 104 127 128
f 104 128 126
f 105 107 106
f 105 126 129
f 105 129 130
f 105 130 131
f 105 131 107
f 107 131 132
f 107 132 133
f 107 133 134
f 107 134 108
f 110 113 111
f 111 113 112
f 115 135 136
f 115 136 116
f 116 136 117
f 117 136 137
f 117 137 118
f 118 137 138
f 118 138 119
f 119 138 139
f 119 139 128
f 119 128 120
f 120 128 127
f 120 127 121
f 121 127 125
f 121 125 122
f 122 125 124
f 122 124 123
f 126 128 139
f 126 139 129
f 129 139 138
f 129 138 130
f 130 138 137
f 130 137 131
f 131 140 132
f 131 137 136
f 131 136 140
f 132 140 141
f 132 141 133
f 133 141 142
f 133 142 134
f 135 143 144
f 135 144 136
f 136 144 140
f 140 144 141
f 141 145 142
f 141 144 143
f 141 143 145
