v -0.013942 0.220449 -0.003329
v -0.014062 0.220740 0.006648
v -0.013892 0.220455 -0.005378
v -0.008619 0.155627 0.000630
v -0.014092 0.220860 0.009984
v -0.013859 0.220462 -0.006656
v -0.008356 0.155522 -0.002577
v -0.008114 0.155426 0.003659
v -0.013726 0.220599 -0.009983
v -0.013664 0.222081 0.012469
v -0.007782 0.155293 -0.004574
v -0.013529 0.221016 -0.011258
v -0.013228 0.221656 -0.013213
v -0.008083 0.155413 0.003757
v -0.013178 0.223331 0.013006
v -0.007430 0.156442 0.005756
v -0.006039 0.154598 0.007177
v -0.005761 0.154487 0.007460
v -0.004271 0.155371 0.009043
v -0.007685 0.155912 -0.004955
v -0.007224 0.155071 -0.005588
v -0.012577 0.223220 -0.014355
v -0.005333 0.154316 -0.008064
v -0.006827 0.154912 -0.006200
v -0.006258 0.154686 0.006833
v -0.012547 0.224951 0.013638
v -0.003203 0.153467 0.009483
v -0.003264 0.153491 0.009444
v -0.012335 0.223802 -0.014771
v -0.005165 0.154250 -0.008217
v -0.012025 0.226270 0.013846
v -0.000170 0.152257 0.010527
v -0.012091 0.224403 -0.014956
v -0.000658 0.152451 -0.010622
v -0.000772 0.152497 -0.010576
v -0.002842 0.153323 -0.009636
v -0.003112 0.153430 -0.009484
v -0.004206 0.223150 0.013752
v -0.011434 0.226034 -0.015232
v 0.002912 0.151027 0.011025
v 0.002954 0.173929 0.012371
v 0.002413 0.176064 0.012437
v 0.005037 0.174827 0.012496
v 0.006459 0.177970 0.012647
v -0.011791 0.225144 -0.015146
v 0.000670 0.151922 -0.010984
v -0.001110 0.221915 0.013634
v -0.003620 0.222917 -0.015024
v 0.006991 0.177758 -0.013520
v 0.005753 0.174670 -0.013252
v 0.006469 0.149608 -0.011778
v 0.006208 0.149713 -0.011765
v 0.006003 0.149794 0.011146
v 0.003318 0.173784 0.012380
v 0.007457 0.174967 0.012495
v 0.008596 0.177117 0.012543
v 0.001985 0.220681 0.013495
v 0.000211 0.221388 0.013577
v 0.003370 0.150845 -0.011472
v 0.003075 0.150962 -0.011425
v 0.000891 0.151834 -0.011033
v -0.000529 0.221684 -0.014932
v 0.010076 0.176527 -0.013432
v 0.009302 0.148478 -0.011777
v 0.009093 0.148561 0.010969
v 0.010147 0.176499 0.012346
v 0.021128 0.213044 0.012296
v 0.019839 0.213558 0.012419
v 0.019568 0.213667 0.012441
v 0.017293 0.214574 0.012590
v 0.015682 0.215217 0.012691
v 0.008172 0.218212 0.013157
v 0.006397 0.218920 0.013261
v 0.005076 0.219448 0.013335
v 0.003307 0.220153 0.013431
v 0.002561 0.220451 -0.014822
v 0.014393 0.178386 -0.012989
v 0.012381 0.147250 -0.011399
v 0.009556 0.148377 -0.011762
v 0.009019 0.217875 -0.014518
v 0.010603 0.217243 -0.014441
v 0.017992 0.214295 -0.014025
v 0.019565 0.213667 -0.013894
v 0.020990 0.213099 -0.013767
v 0.012198 0.147323 0.010401
v 0.023853 0.211957 0.010648
v 0.014466 0.146418 0.009754
v 0.016024 0.145797 0.009159
v 0.012640 0.147146 -0.011348
v 0.023109 0.212254 -0.012680
v 0.016576 0.145577 -0.010153
v 0.016447 0.145628 -0.010216
v 0.015047 0.146186 -0.010739
v 0.014884 0.146252 -0.010782
v 0.024641 0.209275 0.009533
v 0.024682 0.211626 0.009418
v 0.018647 0.144750 0.007472
v 0.018820 0.144681 0.007322
v 0.020293 0.145240 0.006111
v 0.024426 0.211728 -0.011974
v 0.019070 0.144608 -0.008429
v 0.019055 0.144587 -0.008434
v 0.025208 0.211417 0.008605
v 0.025190 0.211424 0.008644
v 0.020850 0.143872 0.005027
v 0.020956 0.143829 0.004832
v 0.025612 0.211255 -0.010380
v 0.020505 0.144009 -0.007238
v 0.019095 0.144572 -0.008405
v 0.025570 0.211272 0.007522
v 0.022221 0.143324 0.001357
v 0.025683 0.211227 -0.010022
v 0.025614 0.211247 -0.010371
v 0.021302 0.143718 -0.005628
v 0.021299 0.143692 -0.005624
v 0.025864 0.211155 0.004209
v 0.022323 0.143284 -0.001964
v 0.026215 0.211015 -0.002435
v 0.024470 0.182620 0.001084
v 0.025989 0.211105 0.002791
v 0.025836 0.211166 -0.009196
v 0.022271 0.143305 -0.002185
v 0.021309 0.143688 -0.005596
v 0.025996 0.211102 -0.007306
v 0.026101 0.211060 -0.005767
v 0.026141 0.211044 -0.000531
f 1 2 5
f 1 5 10
f 1 10 15
f 1 15 26
f 1 26 31
f 1 31 39
f 1 39 45
f 1 45 33
f 1 33 29
f 1 29 22
f 1 22 13
f 1 13 12
f 1 12 9
f 1 9 6
f 1 6 3
f 1 3 4
f 1 4 2
f 2 4 5
f 3 6 4
f 4 7 11
f 4 11 21
f 4 21 24
f 4 24 23
f 4 23 30
f 4 30 37
f 4 37 36
f 4 36 35
f 4 35 34
f 4 34 46
f 4 46 61
f 4 61 60
f 4 60 59
f 4 59 52
f 4 52 51
f 4 51 64
f 4 64 79
f 4 79 78
f 4 78 89
f 4 89 94
f 4 94 93
f 4 93 92
f 4 92 91
f 4 91 102
f 4 102 109
f 4 109 108
f 4 108 115
f 4 115 123
f 4 123 122
f 4 122 117
f 4 117 111
f 4 111 106
f 4 106 105
f 4 105 98
f 4 98 97
f 4 97 88
f 4 88 87
f 4 87 85
f 4 85 65
f 4 65 53
f 4 53 40
f 4 40 32
f 4 32 27
f 4 27 28
f 4 28 18
f 4 18 17
f 4 17 25
f 4 25 14
f 4 14 8
f 4 8 5
f 4 6 9
f 4 9 7
f 5 8 10
f 7 9 12
f 7 12 13
f 7 13 11
f 8 14 10
f 10 14 16
f 10 16 17
f 10 17 18
f 10 18 19
f 10 19 15
f 11 20 21
f 11 13 20
f 13 22 23
f 13 23 24
f 13 24 21
f 13 21 20
f 14 25 16
f 15 19 27
f 15 27 26
f 16 25 17
f 18 28 19
f 19 28 27
f 22 29 23
f 23 29 30
f 26 27 32
f 26 32 31
f 29 33 34
f 29 34 35
f 29 35 36
f 29 36 37
f 29 37 30
f 31 38 47
f 31 47 58
f 31 58 57
f 31 57 75
f 31 75 74
f 31 74 73
f 31 73 72
f 31 72 71
f 31 71 70
f 31 70 69
f 31 69 68
f 31 68 67
f 31 67 86
f 31 86 96
f 31 96 104
f 31 104 103
f 31 103 110
f 31 110 116
f 31 116 120
f 31 120 126
f 31 126 118
f 31 118 125
f 31 125 124
f 31 124 121
f 31 121 112
f 31 112 107
f 31 107 100
f 31 100 90
f 31 90 84
f 31 84 83
f 31 83 82
f 31 82 81
f 31 81 80
f 31 80 76
f 31 76 62
f 31 62 48
f 31 48 39
f 31 32 40
f 31 40 41
f 31 41 42
f 31 42 43
f 31 43 44
f 31 44 38
f 33 45 34
f 34 45 46
f 38 44 47
f 39 48 49
f 39 49 50
f 39 50 51
f 39 51 52
f 39 52 45
f 40 53 41
f 41 54 43
f 41 43 42
f 41 53 54
f 43 55 44
f 43 54 53
f 43 53 55
f 44 55 56
f 44 56 57
f 44 57 58
f 44 58 47
f 45 52 59
f 45 59 60
f 45 60 61
f 45 61 46
f 48 62 63
f 48 63 49
f 49 63 64
f 49 64 51
f 49 51 50
f 53 65 55
f 55 65 56
f 56 65 66
f 56 66 67
f 56 67 68
f 56 68 69
f 56 69 70
f 56 70 71
f 56 71 72
f 56 72 73
f 56 73 74
f 56 74 75
f 56 75 57
f 62 76 63
f 63 77 78
f 63 78 79
f 63 79 64
f 63 76 80
f 63 80 81
f 63 81 82
f 63 82 83
f 63 83 84
f 63 84 77
f 65 85 66
f 66 85 67
f 67 85 87
f 67 87 88
f 67 88 86
f 77 89 78
f 77 84 89
f 84 90 91
f 84 91 92
f 84 92 93
f 84 93 94
f 84 94 89
f 86 95 96
f 86 88 97
f 86 97 98
f 86 98 99
f 86 99 95
f 90 100 91
f 91 101 102
f 91 100 101
f 95 103 104
f 95 104 96
f 95 99 105
f 95 105 106
f 95 106 103
f 98 105 99
f 100 107 108
f 100 108 101
f 101 108 109
f 101 109 102
f 103 106 111
f 103 111 110
f 107 112 113
f 107 113 114
f 107 114 108
f 108 114 115
f 110 111 116
f 111 117 118
f 111 118 119
f 111 119 120
f 111 120 116
f 112 121 117
f 112 117 113
f 113 117 122
f 113 122 123
f 113 123 114
f 114 123 115
f 117 121 124
f 117 124 125
f 117 125 118
f 118 126 119
f 119 126 120
