v 0.002545 0.003163 0.012197
v 0.002545 0.003131 0.017631
v 0.002786 0.003131 0.008640
v 0.002545 0.003113 0.007751
v 0.001417 0.003109 0.012197
v 0.001417 0.003105 0.017529
v 0.002545 0.003027 0.018418
v 0.002636 0.002452 0.019543
v 0.001417 0.002996 0.018418
v 0.002786 0.001993 0.005164
v 0.002545 0.003028 0.006862
v 0.002786 0.001447 0.020136
v 0.001417 0.002989 0.006862
v 0.000527 0.002925 0.006862
v 0.000527 0.002957 0.007751
v 0.000527 0.003030 0.013081
v -0.000361 0.002885 0.017529
v -0.000361 0.002814 0.018418
v 0.000527 0.002921 0.018418
v 0.001445 0.002545 0.019390
v 0.001904 0.002318 0.019754
v 0.002559 0.001925 0.019962
v -0.000361 0.002518 0.019201
v 0.000527 0.002565 0.019244
v 0.002786 0.001186 0.004820
v 0.001417 0.001870 0.005055
v 0.002305 0.002409 0.005434
v 0.002545 0.002665 0.005870
v 0.001417 0.002717 0.005974
v 0.001417 0.000982 0.020309
v 0.002545 0.000982 0.020306
v 0.002786 0.000092 0.020376
v 0.000527 0.002679 0.005974
v -0.000361 0.002615 0.005974
v -0.000361 0.002853 0.006862
v -0.000361 0.002916 0.013081
v -0.001251 0.002776 0.016638
v -0.001251 0.002763 0.017529
v -0.001251 0.002670 0.018418
v -0.001251 0.002325 0.019371
v 0.001307 0.002128 0.019844
v -0.001251 0.001753 0.019949
v -0.001251 0.000982 0.020255
v 0.002786 0.000235 0.004675
v 0.001417 0.000982 0.004731
v 0.001417 0.002407 0.005434
v -0.000327 0.000908 0.004708
v 0.000527 0.001870 0.005063
v 0.000527 0.002391 0.005445
v 0.000527 0.000092 0.020395
v -0.003029 0.000092 0.020389
v 0.002786 -0.004353 0.020578
v -0.000593 0.002335 0.005504
v -0.001174 0.002464 0.005958
v -0.002379 0.002352 0.006333
v -0.001251 0.002697 0.006862
v -0.001251 0.002712 0.007751
v -0.001251 0.002753 0.012197
v -0.002139 0.002525 0.007751
v -0.003043 0.002316 0.007751
v -0.002139 0.002558 0.017529
v -0.002855 0.002289 0.018301
v -0.002346 0.002368 0.018597
v -0.002047 0.002257 0.019160
v -0.003029 0.001918 0.019307
v -0.003029 0.001544 0.019858
v -0.002139 0.001664 0.019925
v -0.002139 0.000982 0.020232
v 0.002786 -0.003057 0.004492
v 0.002305 -0.002575 0.004502
v -0.000327 0.000131 0.004614
v 0.000264 0.000736 0.004668
v -0.002401 0.000715 0.004700
v -0.001251 0.000982 0.004764
v -0.000361 0.001870 0.005122
v 0.002786 -0.006298 0.020664
v -0.003919 -0.000797 0.020439
v -0.003919 0.000092 0.020365
v -0.004807 -0.000797 0.020429
v -0.001174 0.001916 0.005258
v -0.002139 0.001721 0.005234
v -0.003029 0.001623 0.005297
v -0.002139 0.002165 0.005826
v -0.002962 0.002079 0.006050
v -0.003919 0.001979 0.006862
v -0.002938 0.002291 0.006862
v -0.003919 0.002033 0.007751
v -0.003919 0.002047 0.013081
v -0.003264 0.002255 0.012197
v -0.003015 0.002310 0.017529
v -0.003919 0.001979 0.018418
v -0.004762 0.001408 0.019209
v -0.003817 0.001487 0.019647
v -0.005526 0.000656 0.019858
v -0.004807 0.000803 0.019961
v -0.003903 0.001034 0.019999
v -0.003029 0.000982 0.020159
v 0.002786 -0.006830 0.004364
v 0.002545 -0.006128 0.004340
v 0.001417 -0.006128 0.004331
v -0.005697 -0.002575 0.004561
v -0.008860 -0.002100 0.004628
v -0.004807 0.000092 0.004771
v -0.002943 0.000894 0.004834
v 0.002786 -0.007118 0.020653
v -0.005697 -0.001687 0.020472
v -0.023063 -0.014606 0.020646
v -0.004807 0.000092 0.020287
v -0.005697 -0.000797 0.020402
v -0.006585 -0.001687 0.020459
v -0.004807 0.000867 0.005205
v -0.003720 0.001519 0.005400
v -0.003977 0.001685 0.005907
v -0.004726 0.001424 0.006035
v -0.005022 0.001492 0.006740
v -0.005349 0.001478 0.007751
v -0.004807 0.001703 0.007751
v -0.003919 0.002026 0.017529
v -0.004807 0.001694 0.017529
v -0.005266 0.001433 0.018485
v -0.006413 0.000686 0.019144
v -0.005772 0.000871 0.019385
v -0.006114 0.000521 0.019735
v -0.007312 -0.000211 0.019876
v -0.006585 -0.000036 0.019976
v 0.002786 -0.007537 0.004507
v -0.011335 -0.013739 0.004607
v -0.011915 -0.012353 0.004542
v -0.002139 -0.007016 0.004358
v -0.006585 -0.003465 0.004542
v -0.011918 -0.005190 0.004604
v -0.012557 -0.005449 0.004611
v -0.022397 -0.012996 0.004659
v -0.022555 -0.012405 0.004842
v -0.009452 -0.002365 0.004707
v -0.009244 -0.001697 0.005034
v -0.008302 -0.000797 0.005250
v -0.007478 -0.000797 0.004954
v -0.005697 0.000092 0.004940
v 0.002786 -0.007912 0.020007
v -0.022356 -0.014620 0.020643
v -0.021750 -0.015128 0.020570
v -0.011030 -0.013241 0.020395
v -0.011030 -0.014131 0.020101
v -0.010585 -0.014575 0.019753
v -0.022638 -0.015128 0.020594
v -0.008365 -0.002575 0.020435
v -0.007478 -0.001687 0.020395
v -0.022582 -0.013241 0.020456
v -0.023404 -0.014194 0.020518
v -0.023531 -0.015128 0.020578
v -0.006585 -0.000797 0.020322
v -0.006529 0.000111 0.005231
v -0.005946 0.000618 0.005432
v -0.004315 0.001406 0.005570
v -0.005697 0.000982 0.005974
v -0.006604 0.000548 0.005974
v -0.006565 0.000763 0.006862
v -0.005459 0.001338 0.007038
v -0.007478 0.000294 0.006862
v -0.007392 0.000360 0.007701
v -0.007074 0.000563 0.012197
v -0.007301 0.000432 0.017529
v -0.005321 0.001462 0.017529
v -0.007032 0.000532 0.018435
v -0.008055 -0.000261 0.019140
v -0.007906 -0.000362 0.019732
v -0.008365 -0.000997 0.019905
v -0.007555 -0.000714 0.020058
v 0.002786 -0.007899 0.004913
v -0.011039 -0.014045 0.005022
v -0.019845 -0.015128 0.004748
v -0.020752 -0.015128 0.004684
v -0.020337 -0.014609 0.004638
v -0.011940 -0.013273 0.004583
v -0.017174 -0.013323 0.004583
v -0.017246 -0.012353 0.004563
v -0.006585 -0.006128 0.004467
v -0.022582 -0.015128 0.004758
v -0.023473 -0.015128 0.004866
v -0.023473 -0.014131 0.004910
v -0.023473 -0.013241 0.004951
v -0.023406 -0.012405 0.005297
v -0.022582 -0.011712 0.005319
v -0.009037 -0.001094 0.005362
v -0.009983 -0.001887 0.005298
v -0.007718 -0.000267 0.005432
v 0.002786 -0.008148 0.019307
v -0.019914 -0.015128 0.020439
v -0.019024 -0.015128 0.020347
v 0.002786 -0.009410 0.013083
v 0.002786 -0.009298 0.014109
v -0.018067 -0.015128 0.020056
v -0.017312 -0.015128 0.019606
v -0.016773 -0.015128 0.018566
v -0.010762 -0.014611 0.019140
v -0.011030 -0.014452 0.005973
v -0.009253 -0.002575 0.020312
v -0.023473 -0.013241 0.020224
v -0.024167 -0.014131 0.020068
v -0.024446 -0.015128 0.020101
v -0.008365 -0.001687 0.020221
v -0.007478 0.000113 0.005974
v -0.008343 -0.000365 0.005974
v -0.008490 -0.000277 0.006862
v -0.008528 -0.000265 0.008640
v -0.008216 -0.000145 0.017529
v -0.008177 -0.000177 0.018418
v -0.009692 -0.001244 0.018841
v -0.023937 -0.012774 0.019532
v -0.023473 -0.012636 0.019893
v -0.009836 -0.002023 0.019844
v -0.009192 -0.001712 0.019946
v -0.010135 -0.002564 0.020008
v 0.002786 -0.009328 0.012259
v -0.010301 -0.013941 0.005274
v -0.018136 -0.015128 0.005234
v -0.018955 -0.015128 0.004969
v -0.024415 -0.015128 0.005173
v -0.024081 -0.013241 0.005364
v -0.023998 -0.012693 0.005717
v -0.023116 -0.011842 0.005727
v -0.009626 -0.001295 0.005672
v -0.010574 -0.002138 0.005541
v -0.016262 -0.015128 0.016669
v -0.016179 -0.015128 0.015749
v -0.016195 -0.015128 0.014860
v -0.016419 -0.015128 0.011318
v -0.016707 -0.015128 0.007752
v -0.016784 -0.015128 0.006862
v -0.017169 -0.015128 0.005883
v -0.024026 -0.013241 0.019887
v -0.024731 -0.015128 0.019516
v -0.009300 -0.000976 0.005971
v -0.009748 -0.001201 0.006267
v -0.009253 -0.000793 0.006862
v -0.009784 -0.001176 0.006862
v -0.009739 -0.001210 0.018250
v -0.023019 -0.011912 0.018776
v -0.023390 -0.012217 0.018456
v -0.023968 -0.012736 0.018418
v -0.024197 -0.013241 0.019307
v -0.024850 -0.015128 0.005973
v -0.024308 -0.013241 0.005973
v -0.023691 -0.012132 0.006862
v -0.023605 -0.012202 0.005973
v -0.024081 -0.012577 0.006862
v -0.023246 -0.011733 0.006862
v -0.025425 -0.015128 0.014045
v -0.023041 -0.011896 0.018184
v -0.023666 -0.012123 0.007752
v -0.024095 -0.012569 0.007752
v -0.025447 -0.015128 0.013083
v -0.025430 -0.015128 0.011444
v -0.024385 -0.013241 0.006862
v -0.025455 -0.015128 0.012197
f 1 2 3
f 1 3 4
f 1 4 5
f 1 5 6
f 1 6 2
f 2 7 8
f 2 8 3
f 2 6 9
f 2 9 7
f 3 10 11
f 3 11 4
f 3 8 12
f 3 12 32
f 3 32 52
f 3 52 76
f 3 76 105
f 3 105 140
f 3 140 188
f 3 188 192
f 3 192 191
f 3 191 215
f 3 215 170
f 3 170 126
f 3 126 98
f 3 98 69
f 3 69 44
f 3 44 25
f 3 25 10
f 4 11 13
f 4 13 14
f 4 14 15
f 4 15 5
f 5 15 16
f 5 16 6
f 6 16 17
f 6 17 18
f 6 18 19
f 6 19 9
f 7 20 8
f 7 9 20
f 8 20 21
f 8 21 22
f 8 22 12
f 9 19 23
f 9 23 24
f 9 24 20
f 10 25 26
f 10 26 27
f 10 27 28
f 10 28 11
f 11 28 29
f 11 29 13
f 12 22 30
f 12 30 31
f 12 31 32
f 13 29 33
f 13 33 14
f 14 33 34
f 14 34 35
f 14 35 15
f 15 35 16
f 16 35 36
f 16 36 17
f 17 36 37
f 17 37 38
f 17 38 18
f 18 23 19
f 18 38 39
f 18 39 40
f 18 40 23
f 20 24 23
f 20 23 40
f 20 40 21
f 21 41 22
f 21 40 42
f 21 42 41
f 22 41 42
f 22 42 43
f 22 43 30
f 25 44 45
f 25 45 26
f 26 46 27
f 26 45 47
f 26 47 48
f 26 48 46
f 27 46 28
f 28 46 29
f 29 46 49
f 29 49 33
f 30 50 31
f 30 43 51
f 30 51 50
f 31 50 32
f 32 50 52
f 33 49 34
f 34 53 54
f 34 54 55
f 34 55 56
f 34 56 35
f 34 49 53
f 35 56 57
f 35 57 36
f 36 57 58
f 36 58 37
f 37 58 59
f 37 59 60
f 37 60 61
f 37 61 38
f 38 61 39
f 39 61 62
f 39 62 63
f 39 63 64
f 39 64 40
f 40 64 65
f 40 65 66
f 40 66 67
f 40 67 42
f 42 67 68
f 42 68 43
f 43 68 51
f 44 69 70
f 44 70 71
f 44 71 72
f 44 72 45
f 45 72 47
f 46 48 49
f 47 72 73
f 47 73 74
f 47 74 48
f 48 74 73
f 48 73 75
f 48 75 49
f 49 75 53
f 50 76 52
f 50 51 77
f 50 77 76
f 51 68 78
f 51 78 79
f 51 79 77
f 53 75 80
f 53 80 81
f 53 81 82
f 53 82 83
f 53 83 54
f 54 83 84
f 54 84 55
f 55 84 85
f 55 85 86
f 55 86 56
f 56 86 60
f 56 60 59
f 56 59 57
f 57 59 58
f 60 85 87
f 60 87 88
f 60 88 89
f 60 89 61
f 60 86 85
f 61 90 91
f 61 91 62
f 61 89 90
f 62 91 63
f 63 91 64
f 64 91 65
f 65 91 92
f 65 92 93
f 65 93 66
f 66 93 94
f 66 94 95
f 66 95 96
f 66 96 97
f 66 97 67
f 67 97 68
f 68 97 78
f 69 98 99
f 69 99 70
f 70 99 100
f 70 100 71
f 71 73 72
f 71 100 101
f 71 101 102
f 71 102 73
f 73 103 104
f 73 104 75
f 73 102 103
f 75 104 81
f 75 81 80
f 76 77 106
f 76 106 107
f 76 107 105
f 77 79 106
f 78 108 109
f 78 109 79
f 78 97 108
f 79 109 110
f 79 110 106
f 81 104 82
f 82 104 111
f 82 111 112
f 82 112 83
f 83 112 84
f 84 112 113
f 84 113 85
f 85 113 114
f 85 114 115
f 85 115 116
f 85 116 117
f 85 117 87
f 87 117 88
f 88 118 90
f 88 90 89
f 88 117 119
f 88 119 118
f 90 118 91
f 91 118 119
f 91 119 120
f 91 120 92
f 92 120 121
f 92 121 122
f 92 122 123
f 92 123 93
f 93 123 94
f 94 123 124
f 94 124 125
f 94 125 95
f 95 125 108
f 95 108 96
f 96 108 97
f 98 100 99
f 98 126 127
f 98 127 128
f 98 128 100
f 100 128 129
f 100 129 130
f 100 130 101
f 101 130 102
f 102 131 132
f 102 132 133
f 102 133 134
f 102 134 135
f 102 135 136
f 102 136 137
f 102 137 138
f 102 138 139
f 102 139 103
f 102 130 131
f 103 139 104
f 104 139 111
f 105 107 141
f 105 141 142
f 105 142 143
f 105 143 144
f 105 144 145
f 105 145 140
f 106 110 107
f 107 146 141
f 107 110 147
f 107 147 148
f 107 148 149
f 107 149 150
f 107 150 151
f 107 151 146
f 108 125 152
f 108 152 109
f 109 152 148
f 109 148 110
f 110 148 147
f 111 139 153
f 111 153 154
f 111 154 112
f 112 154 155
f 112 155 113
f 113 155 114
f 114 155 156
f 114 156 115
f 115 156 157
f 115 157 158
f 115 158 159
f 115 159 116
f 116 159 158
f 116 158 160
f 116 160 161
f 116 161 162
f 116 162 163
f 116 163 164
f 116 164 119
f 116 119 117
f 119 164 120
f 120 164 165
f 120 165 121
f 121 123 122
f 121 165 166
f 121 166 167
f 121 167 123
f 123 167 124
f 124 167 168
f 124 168 169
f 124 169 125
f 125 169 152
f 126 170 171
f 126 171 127
f 127 171 172
f 127 172 173
f 127 173 174
f 127 174 175
f 127 175 128
f 128 175 174
f 128 174 176
f 128 176 129
f 129 176 177
f 129 177 178
f 129 178 130
f 130 178 131
f 131 178 132
f 132 178 133
f 133 178 177
f 133 177 174
f 133 174 179
f 133 179 180
f 133 180 181
f 133 181 182
f 133 182 134
f 134 182 183
f 134 183 184
f 134 184 136
f 134 136 135
f 136 185 137
f 136 184 186
f 136 186 185
f 137 187 153
f 137 153 138
f 137 185 187
f 138 153 139
f 140 145 188
f 141 146 142
f 142 189 143
f 142 146 151
f 142 151 201
f 142 201 233
f 142 233 249
f 142 249 253
f 142 253 256
f 142 256 254
f 142 254 243
f 142 243 219
f 142 219 180
f 142 180 179
f 142 179 173
f 142 173 172
f 142 172 218
f 142 218 217
f 142 217 231
f 142 231 230
f 142 230 229
f 142 229 228
f 142 228 227
f 142 227 226
f 142 226 225
f 142 225 195
f 142 195 194
f 142 194 193
f 142 193 190
f 142 190 189
f 143 189 144
f 144 189 190
f 144 190 145
f 145 191 192
f 145 192 188
f 145 190 193
f 145 193 194
f 145 194 195
f 145 195 196
f 145 196 197
f 145 197 191
f 148 152 198
f 148 198 149
f 149 199 150
f 149 198 199
f 150 199 200
f 150 200 201
f 150 201 151
f 152 169 202
f 152 202 198
f 153 187 154
f 154 187 203
f 154 203 157
f 154 157 156
f 154 156 155
f 157 203 158
f 158 203 160
f 160 203 204
f 160 204 205
f 160 205 161
f 161 205 206
f 161 206 162
f 162 206 163
f 163 207 208
f 163 208 165
f 163 165 164
f 163 206 207
f 165 208 166
f 166 208 209
f 166 209 167
f 167 209 210
f 167 210 211
f 167 211 212
f 167 212 168
f 168 212 211
f 168 211 199
f 168 199 213
f 168 213 169
f 169 213 214
f 169 214 202
f 170 215 197
f 170 197 216
f 170 216 171
f 171 197 217
f 171 217 218
f 171 218 172
f 171 216 197
f 173 179 174
f 174 177 176
f 180 219 181
f 181 219 182
f 182 219 220
f 182 220 183
f 183 220 221
f 183 221 222
f 183 222 184
f 184 222 223
f 184 223 224
f 184 224 186
f 185 186 224
f 185 224 223
f 185 223 204
f 185 204 187
f 187 204 203
f 191 197 215
f 195 225 196
f 196 225 226
f 196 226 227
f 196 227 228
f 196 228 229
f 196 229 230
f 196 230 197
f 197 230 231
f 197 231 217
f 198 202 199
f 199 202 214
f 199 214 213
f 199 211 232
f 199 232 200
f 200 232 201
f 201 232 233
f 204 223 234
f 204 234 205
f 205 234 235
f 205 235 236
f 205 236 206
f 206 236 237
f 206 237 238
f 206 238 207
f 207 238 208
f 208 238 209
f 209 238 239
f 209 239 210
f 210 239 240
f 210 240 241
f 210 241 242
f 210 242 232
f 210 232 211
f 219 243 220
f 220 243 244
f 220 244 221
f 221 245 246
f 221 246 222
f 221 244 247
f 221 247 245
f 222 246 248
f 222 248 235
f 222 235 223
f 223 235 234
f 232 242 233
f 233 242 249
f 235 237 236
f 235 248 237
f 237 248 238
f 238 248 250
f 238 250 239
f 239 250 240
f 240 251 241
f 240 250 251
f 241 251 252
f 241 252 253
f 241 253 249
f 241 249 242
f 243 254 244
f 244 255 247
f 244 254 255
f 245 251 248
f 245 248 246
f 245 247 252
f 245 252 251
f 247 255 254
f 247 254 256
f 247 256 252
f 248 251 250
f 252 256 253
