v 0.017700 -0.004159 0.015740
v 0.017706 -0.004156 0.003970
v 0.025441 -0.004729 0.019685
v 0.018013 -0.004159 0.021120
v 0.017700 -0.000628 0.020258
v 0.017700 0.003250 0.016169
v 0.023662 -0.004156 0.003836
v 0.025742 -0.004326 0.004789
v 0.017706 -0.000265 0.004753
v 0.042322 0.022314 0.004250
v 0.042322 0.021424 0.004131
v 0.043213 0.021424 0.004058
v 0.043213 0.020534 0.003987
v 0.044101 0.020534 0.003933
v 0.026225 -0.004009 0.019633
v 0.026927 -0.003191 0.019953
v 0.025020 -0.004159 0.020777
v 0.023929 -0.004159 0.021135
v 0.022803 -0.004159 0.021157
v 0.044101 0.020095 0.020501
v 0.044101 0.021431 0.020430
v 0.043213 0.021431 0.020380
v 0.042322 0.022321 0.020226
v 0.040891 0.022900 0.019801
v 0.017700 0.000259 0.019860
v 0.017706 0.003689 0.014514
v 0.017706 0.003800 0.013305
v 0.017706 0.003820 0.012412
v 0.017706 0.003823 0.011308
v 0.017706 0.003649 0.009867
v 0.017706 0.003250 0.008566
v 0.017706 0.002589 0.007383
v 0.017706 0.001885 0.006491
v 0.017706 0.000995 0.005559
v 0.017700 0.002677 0.017393
v 0.032105 0.019215 0.015318
v 0.022297 0.008585 0.015358
v 0.025027 0.012057 0.013853
v 0.024533 -0.004156 0.004021
v 0.044101 0.019650 0.004011
v 0.026319 -0.002978 0.004314
v 0.031873 0.003021 0.004560
v 0.028628 -0.001315 0.005423
v 0.039390 0.024703 0.006269
v 0.040594 0.024464 0.005457
v 0.040206 0.023597 0.005213
v 0.041179 0.022569 0.004558
v 0.043213 0.022314 0.004168
v 0.041913 0.023888 0.004809
v 0.042792 0.023581 0.004541
v 0.044989 0.022314 0.004100
v 0.044545 0.021424 0.004012
v 0.044989 0.020534 0.004106
v 0.045881 0.022314 0.004148
v 0.028687 -0.001384 0.018639
v 0.028060 -0.002048 0.019451
v 0.034717 0.005927 0.019592
v 0.035834 0.007462 0.019902
v 0.029336 0.000635 0.020611
v 0.044101 0.018766 0.020369
v 0.044992 0.020537 0.020438
v 0.044992 0.021431 0.020401
v 0.044992 0.022321 0.020248
v 0.043657 0.022321 0.020291
v 0.043657 0.023211 0.020102
v 0.041910 0.023610 0.019790
v 0.041433 0.025001 0.018866
v 0.039948 0.023823 0.018954
v 0.017700 0.001352 0.019026
v 0.039536 0.024373 0.018327
v 0.023276 0.010260 0.012196
v 0.020393 0.006932 0.012196
v 0.023528 0.010463 0.011308
v 0.028517 0.015690 0.010167
v 0.033111 0.020429 0.009260
v 0.037682 0.024857 0.008309
v 0.038573 0.024995 0.007341
v 0.017700 0.002157 0.018136
v 0.037604 0.024818 0.015843
v 0.032879 0.020239 0.014860
v 0.036941 0.024592 0.014860
v 0.030267 0.017500 0.014594
v 0.026803 0.013841 0.014311
v 0.029216 0.016783 0.012637
v 0.023916 0.010977 0.012196
v 0.033160 0.020825 0.013970
v 0.029457 -0.000356 0.005501
v 0.046158 0.021290 0.004458
v 0.039664 0.025427 0.006871
v 0.040627 0.025741 0.006556
v 0.041437 0.025728 0.006123
v 0.041864 0.025109 0.005486
v 0.044101 0.023820 0.004507
v 0.044989 0.023329 0.004312
v 0.043213 0.024635 0.004935
v 0.045812 0.023685 0.004423
v 0.047013 0.022530 0.004529
v 0.046906 0.023764 0.004563
v 0.034802 0.005845 0.018895
v 0.035955 0.007308 0.019309
v 0.037532 0.009318 0.019558
v 0.044957 0.018822 0.019973
v 0.045335 0.019653 0.020104
v 0.045881 0.021431 0.020272
v 0.045881 0.022321 0.020190
v 0.045881 0.023211 0.020023
v 0.044992 0.023211 0.020067
v 0.044992 0.024170 0.019775
v 0.043657 0.024147 0.019768
v 0.042713 0.025237 0.018954
v 0.041433 0.025724 0.018254
v 0.040578 0.024726 0.018690
v 0.038557 0.024474 0.017440
v 0.040519 0.025675 0.017773
v 0.029265 0.016728 0.011306
v 0.034841 0.022687 0.010777
v 0.037163 0.024857 0.009531
v 0.037803 0.025502 0.009531
v 0.038841 0.025577 0.007836
v 0.039194 0.025541 0.016779
v 0.038289 0.025459 0.015806
v 0.037842 0.025463 0.014860
v 0.037662 0.025587 0.013610
v 0.036879 0.024877 0.013387
v 0.034769 0.022756 0.012086
v 0.049377 0.024736 0.006667
v 0.050938 0.026114 0.010418
v 0.050811 0.025512 0.014699
v 0.050024 0.024366 0.016642
v 0.048290 0.023807 0.005340
v 0.040630 0.026386 0.007405
v 0.041437 0.026333 0.006840
v 0.042302 0.026068 0.006237
v 0.044104 0.025289 0.005201
v 0.044992 0.024618 0.004782
v 0.047660 0.024988 0.005108
v 0.048496 0.025250 0.005462
v 0.047219 0.020976 0.018882
v 0.046302 0.020318 0.019711
v 0.046912 0.021836 0.019929
v 0.047089 0.023332 0.019819
v 0.045881 0.024091 0.019745
v 0.046050 0.025312 0.019070
v 0.044992 0.024988 0.019331
v 0.044101 0.025243 0.019105
v 0.044992 0.025754 0.018756
v 0.042413 0.026160 0.018078
v 0.041433 0.026330 0.017559
v 0.040656 0.026376 0.016971
v 0.035641 0.023672 0.011805
v 0.036549 0.024543 0.010891
v 0.037535 0.025505 0.010698
v 0.038639 0.026408 0.010418
v 0.038978 0.026327 0.009265
v 0.039589 0.026235 0.008149
v 0.039775 0.026372 0.016098
v 0.038841 0.026255 0.014994
v 0.037404 0.025463 0.012196
v 0.038717 0.026346 0.013971
v 0.038645 0.026395 0.013081
v 0.049182 0.025711 0.006160
v 0.049877 0.025875 0.007313
v 0.051010 0.027070 0.010418
v 0.051056 0.027089 0.011308
v 0.050974 0.026045 0.011752
v 0.051043 0.027079 0.012637
v 0.050824 0.026215 0.015586
v 0.049795 0.024199 0.017651
v 0.040640 0.027263 0.009206
v 0.041479 0.027174 0.008232
v 0.042733 0.027240 0.007661
v 0.044042 0.027322 0.007393
v 0.044104 0.026245 0.006050
v 0.044992 0.025826 0.005594
v 0.047660 0.025767 0.005643
v 0.048705 0.026405 0.006505
v 0.049070 0.023558 0.018658
v 0.048666 0.024599 0.018958
v 0.047660 0.024101 0.019490
v 0.047660 0.025152 0.018960
v 0.048068 0.026271 0.018054
v 0.046769 0.026431 0.018085
v 0.045436 0.026477 0.018125
v 0.044715 0.027289 0.017011
v 0.042322 0.027194 0.016618
v 0.041450 0.027171 0.016177
v 0.038606 0.026438 0.011308
v 0.039775 0.027158 0.011308
v 0.040167 0.027325 0.010355
v 0.040617 0.027184 0.015245
v 0.039657 0.026808 0.014860
v 0.038844 0.026585 0.012196
v 0.050073 0.026579 0.007907
v 0.050683 0.027047 0.009484
v 0.050328 0.027734 0.010418
v 0.050164 0.027992 0.012196
v 0.050870 0.027034 0.014389
v 0.050328 0.027668 0.013971
v 0.049675 0.026425 0.017213
v 0.050008 0.025109 0.017769
v 0.041437 0.027708 0.009531
v 0.042325 0.027636 0.008639
v 0.044992 0.027106 0.006988
v 0.043690 0.028127 0.009231
v 0.044992 0.027629 0.007753
v 0.044992 0.026490 0.006238
v 0.046769 0.026461 0.006269
v 0.047660 0.026641 0.006578
v 0.048548 0.027230 0.007712
v 0.049750 0.027308 0.008548
v 0.049439 0.025872 0.017946
v 0.048548 0.027073 0.016820
v 0.046867 0.027142 0.017174
v 0.045881 0.027312 0.017003
v 0.044966 0.028202 0.015246
v 0.044032 0.028028 0.015526
v 0.043187 0.027610 0.016159
v 0.042282 0.027619 0.015791
v 0.041437 0.027616 0.014860
v 0.041437 0.027858 0.010418
v 0.049439 0.027806 0.009531
v 0.049439 0.028022 0.010404
v 0.049919 0.028042 0.011228
v 0.048548 0.028408 0.012196
v 0.049900 0.028022 0.013102
v 0.049580 0.027207 0.016143
v 0.049283 0.027920 0.014490
v 0.042361 0.028091 0.010060
v 0.045881 0.027410 0.007498
v 0.043213 0.028323 0.010418
v 0.044104 0.028464 0.010418
v 0.045436 0.028555 0.010418
v 0.045436 0.028202 0.009124
v 0.047242 0.027253 0.007449
v 0.046778 0.028146 0.009156
v 0.048548 0.027675 0.008639
v 0.046318 0.028172 0.015246
v 0.045436 0.028578 0.013971
v 0.044104 0.028487 0.013971
v 0.042870 0.028081 0.014811
v 0.043213 0.028297 0.013971
v 0.042841 0.028320 0.011308
v 0.047660 0.028127 0.009455
v 0.048653 0.028071 0.009901
v 0.047660 0.028349 0.010418
v 0.048548 0.028369 0.013081
v 0.046769 0.028500 0.010418
v 0.046769 0.028588 0.011308
v 0.047660 0.028552 0.012637
v 0.047660 0.028274 0.014309
v 0.044104 0.028588 0.011308
v 0.045436 0.028667 0.011308
v 0.046769 0.028510 0.013971
v 0.045436 0.028706 0.012637
v 0.044104 0.028588 0.012637
v 0.046769 0.028637 0.012637
f 1 2 3
f 1 3 4
f 1 4 5
f 1 5 25
f 1 25 69
f 1 69 78
f 1 78 35
f 1 35 6
f 1 6 2
f 2 7 8
f 2 8 3
f 2 6 9
f 2 9 10
f 2 10 11
f 2 11 12
f 2 12 13
f 2 13 14
f 2 14 7
f 3 8 15
f 3 15 16
f 3 16 17
f 3 17 18
f 3 18 19
f 3 19 4
f 4 19 20
f 4 20 21
f 4 21 22
f 4 22 23
f 4 23 24
f 4 24 5
f 5 24 25
f 6 26 27
f 6 27 28
f 6 28 29
f 6 29 30
f 6 30 31
f 6 31 32
f 6 32 33
f 6 33 34
f 6 34 9
f 6 35 36
f 6 36 37
f 6 37 38
f 6 38 26
f 7 39 8
f 7 14 40
f 7 40 39
f 8 39 41
f 8 41 42
f 8 42 43
f 8 43 15
f 9 34 44
f 9 44 45
f 9 45 46
f 9 46 47
f 9 47 10
f 10 48 11
f 10 47 49
f 10 49 50
f 10 50 48
f 11 48 12
f 12 48 51
f 12 51 52
f 12 52 14
f 12 14 13
f 14 53 40
f 14 52 54
f 14 54 53
f 15 43 55
f 15 55 56
f 15 56 16
f 16 56 57
f 16 57 58
f 16 58 59
f 16 59 17
f 17 59 18
f 18 59 60
f 18 60 61
f 18 61 20
f 18 20 19
f 20 61 62
f 20 62 21
f 21 62 63
f 21 63 64
f 21 64 23
f 21 23 22
f 23 64 65
f 23 65 66
f 23 66 24
f 24 66 67
f 24 67 68
f 24 68 25
f 25 68 70
f 25 70 69
f 26 38 71
f 26 71 27
f 27 71 72
f 27 72 28
f 28 72 29
f 29 72 71
f 29 71 73
f 29 73 30
f 30 73 74
f 30 74 31
f 31 74 75
f 31 75 32
f 32 75 76
f 32 76 33
f 33 76 77
f 33 77 34
f 34 77 44
f 35 78 79
f 35 79 36
f 36 80 37
f 36 79 81
f 36 81 80
f 37 80 82
f 37 82 83
f 37 83 38
f 38 84 85
f 38 85 71
f 38 83 86
f 38 86 84
f 39 40 41
f 40 53 42
f 40 42 41
f 42 87 43
f 42 53 88
f 42 88 87
f 43 87 55
f 44 77 89
f 44 89 90
f 44 90 91
f 44 91 45
f 45 49 46
f 45 91 92
f 45 92 49
f 46 49 47
f 48 50 93
f 48 93 94
f 48 94 51
f 49 92 95
f 49 95 50
f 50 95 93
f 51 54 52
f 51 94 96
f 51 96 54
f 53 54 97
f 53 97 88
f 54 96 98
f 54 98 97
f 55 87 99
f 55 99 56
f 56 99 100
f 56 100 57
f 57 100 101
f 57 101 58
f 58 101 102
f 58 102 59
f 59 102 60
f 60 102 103
f 60 103 61
f 61 103 104
f 61 104 62
f 62 104 105
f 62 105 63
f 63 105 106
f 63 106 107
f 63 107 64
f 64 107 65
f 65 107 108
f 65 108 109
f 65 109 66
f 66 109 110
f 66 110 67
f 67 110 111
f 67 111 112
f 67 112 68
f 68 112 70
f 69 70 113
f 69 113 78
f 70 112 114
f 70 114 113
f 71 85 73
f 73 85 115
f 73 115 74
f 74 115 116
f 74 116 75
f 75 116 117
f 75 117 76
f 76 117 118
f 76 118 119
f 76 119 77
f 77 119 89
f 78 113 79
f 79 113 120
f 79 120 121
f 79 121 122
f 79 122 81
f 80 81 86
f 80 86 82
f 81 122 123
f 81 123 124
f 81 124 86
f 82 86 83
f 84 115 85
f 84 86 124
f 84 124 125
f 84 125 115
f 87 88 126
f 87 126 127
f 87 127 128
f 87 128 129
f 87 129 99
f 88 97 130
f 88 130 126
f 89 119 131
f 89 131 90
f 90 131 132
f 90 132 91
f 91 132 133
f 91 133 92
f 92 133 134
f 92 134 95
f 93 95 135
f 93 135 96
f 93 96 94
f 95 134 135
f 96 135 136
f 96 136 98
f 97 98 137
f 97 137 130
f 98 136 137
f 99 129 138
f 99 138 100
f 100 138 101
f 101 138 139
f 101 139 102
f 102 139 103
f 103 139 140
f 103 140 104
f 104 140 141
f 104 141 105
f 105 141 106
f 106 141 142
f 106 142 108
f 106 108 107
f 108 142 143
f 108 143 144
f 108 144 109
f 109 144 145
f 109 145 110
f 110 145 146
f 110 146 147
f 110 147 111
f 111 114 112
f 111 147 148
f 111 148 114
f 113 114 120
f 114 148 149
f 114 149 120
f 115 125 150
f 115 150 116
f 116 150 151
f 116 151 117
f 117 151 152
f 117 152 118
f 118 152 153
f 118 153 154
f 118 154 119
f 119 154 155
f 119 155 131
f 120 149 156
f 120 156 121
f 121 156 157
f 121 157 122
f 122 157 123
f 123 158 124
f 123 157 159
f 123 159 160
f 123 160 158
f 124 150 125
f 124 158 150
f 126 130 161
f 126 161 162
f 126 162 127
f 127 162 163
f 127 163 164
f 127 164 165
f 127 165 128
f 128 165 166
f 128 166 167
f 128 167 168
f 128 168 129
f 129 168 138
f 130 137 161
f 131 155 169
f 131 169 170
f 131 170 132
f 132 170 171
f 132 171 133
f 133 171 172
f 133 172 173
f 133 173 134
f 134 173 174
f 134 174 136
f 134 136 135
f 136 174 175
f 136 175 137
f 137 175 176
f 137 176 161
f 138 168 177
f 138 177 139
f 139 177 140
f 140 177 178
f 140 178 141
f 141 178 179
f 141 179 142
f 142 179 180
f 142 180 143
f 143 180 181
f 143 181 182
f 143 182 183
f 143 183 146
f 143 146 144
f 144 146 145
f 146 183 147
f 147 183 184
f 147 184 185
f 147 185 148
f 148 185 186
f 148 186 149
f 149 186 156
f 150 158 151
f 151 158 152
f 152 158 187
f 152 187 153
f 153 187 188
f 153 188 189
f 153 189 154
f 154 189 169
f 154 169 155
f 156 186 190
f 156 190 191
f 156 191 157
f 157 191 159
f 158 160 187
f 159 191 160
f 160 191 192
f 160 192 187
f 161 176 193
f 161 193 162
f 162 193 194
f 162 194 163
f 163 194 195
f 163 195 164
f 164 166 165
f 164 195 196
f 164 196 166
f 166 197 167
f 166 196 198
f 166 198 197
f 167 197 199
f 167 199 200
f 167 200 168
f 168 200 177
f 169 189 201
f 169 201 170
f 170 201 202
f 170 202 171
f 171 202 172
f 172 203 173
f 172 202 204
f 172 204 205
f 172 205 203
f 173 206 174
f 173 203 206
f 174 206 207
f 174 207 175
f 175 207 208
f 175 208 176
f 176 208 209
f 176 209 210
f 176 210 193
f 177 200 178
f 178 200 211
f 178 211 180
f 178 180 179
f 180 211 181
f 181 199 212
f 181 212 213
f 181 213 182
f 181 211 199
f 182 213 183
f 183 213 214
f 183 214 184
f 184 214 215
f 184 215 216
f 184 216 217
f 184 217 185
f 185 217 218
f 185 218 186
f 186 218 190
f 187 192 188
f 188 219 220
f 188 220 189
f 188 192 191
f 188 191 219
f 189 220 201
f 190 218 219
f 190 219 191
f 193 210 194
f 194 210 195
f 195 210 221
f 195 221 222
f 195 222 223
f 195 223 196
f 196 223 224
f 196 224 225
f 196 225 198
f 197 198 226
f 197 226 199
f 198 225 227
f 198 227 226
f 199 226 212
f 199 211 200
f 201 220 228
f 201 228 202
f 202 228 204
f 203 205 229
f 203 229 208
f 203 208 207
f 203 207 206
f 204 228 230
f 204 230 231
f 204 231 232
f 204 232 233
f 204 233 205
f 205 234 229
f 205 233 235
f 205 235 234
f 208 229 234
f 208 234 209
f 209 234 235
f 209 235 236
f 209 236 210
f 210 236 221
f 212 226 237
f 212 237 213
f 213 237 214
f 214 237 215
f 215 237 238
f 215 238 239
f 215 239 216
f 216 239 240
f 216 240 218
f 216 218 217
f 218 240 219
f 219 240 241
f 219 241 242
f 219 242 220
f 220 242 228
f 221 236 243
f 221 243 244
f 221 244 222
f 222 244 245
f 222 245 223
f 223 245 224
f 224 246 225
f 224 245 247
f 224 247 248
f 224 248 249
f 224 249 246
f 225 246 227
f 226 227 237
f 227 246 250
f 227 250 237
f 228 242 230
f 230 242 251
f 230 251 231
f 231 251 232
f 232 251 252
f 232 252 247
f 232 247 233
f 233 247 235
f 235 247 243
f 235 243 236
f 237 250 253
f 237 253 238
f 238 254 239
f 238 253 256
f 238 256 254
f 239 254 255
f 239 255 241
f 239 241 240
f 241 255 242
f 242 255 251
f 243 247 244
f 244 247 245
f 246 249 253
f 246 253 250
f 247 252 248
f 248 252 256
f 248 256 249
f 249 256 253
f 251 255 254
f 251 254 252
f 252 254 256
