v 0.018313 -0.016287 0.025911
v 0.018816 -0.016289 0.025984
v 0.021502 -0.016289 0.025619
v 0.021874 -0.016289 0.025547
v 0.022362 -0.016289 0.025377
v 0.022644 -0.016289 0.025253
v 0.022919 -0.016289 0.024953
v 0.023032 -0.016289 0.024766
v 0.023235 -0.016289 0.024315
v 0.024750 -0.016289 0.015757
v 0.018313 -0.016287 0.017535
v 0.017125 -0.016287 0.026009
v 0.018790 -0.016372 0.025979
v 0.020097 -0.017694 0.025750
v 0.017125 -0.016535 0.026009
v 0.023652 -0.020361 0.024951
v 0.024582 -0.020393 0.024472
v 0.025025 -0.020711 0.024227
v 0.025889 -0.020785 0.023330
v 0.025962 -0.020702 0.022862
v 0.024516 -0.016289 0.009461
v 0.018311 -0.016287 0.008149
v 0.026499 -0.021101 0.020196
v 0.026499 -0.021099 0.020117
v 0.026499 -0.021141 0.019269
v 0.016750 -0.016287 0.026009
v 0.018319 -0.018582 0.025764
v 0.016750 -0.016535 0.026009
v 0.017429 -0.018580 0.025785
v 0.022762 -0.020363 0.025030
v 0.022762 -0.021250 0.024759
v 0.026501 -0.030125 0.020245
v 0.024542 -0.021024 0.024374
v 0.025025 -0.020860 0.024227
v 0.025889 -0.020877 0.023330
v 0.026499 -0.022156 0.021114
v 0.026499 -0.021390 0.020944
v 0.026499 -0.021342 0.020878
v 0.026499 -0.021227 0.019100
v 0.026499 -0.021502 0.018700
v 0.026501 -0.025169 0.014354
v 0.026501 -0.029888 0.009546
v 0.018311 -0.025691 0.008149
v 0.010583 -0.016287 0.008149
v 0.026501 -0.024805 0.020865
v 0.026501 -0.024805 0.017598
v 0.026501 -0.024819 0.015532
v 0.026501 -0.024889 0.014897
v 0.026501 -0.024959 0.014686
v 0.014389 -0.016287 0.025792
v 0.013873 -0.016803 0.025746
v 0.017429 -0.019471 0.025619
v 0.013873 -0.017692 0.025743
v 0.016539 -0.018580 0.025746
v 0.012985 -0.021725 0.025103
v 0.018319 -0.022138 0.024820
v 0.019209 -0.022138 0.024741
v 0.018313 -0.022959 0.024467
v 0.026501 -0.030821 0.019893
v 0.026501 -0.029966 0.020304
v 0.016539 -0.023026 0.024580
v 0.026501 -0.029290 0.020544
v 0.026501 -0.028620 0.020678
v 0.026501 -0.028361 0.020715
v 0.026501 -0.027471 0.020797
v 0.026501 -0.026582 0.020841
v 0.026501 -0.025692 0.020865
v 0.026501 -0.034239 0.009546
v 0.011874 -0.025691 0.008149
v 0.010623 -0.016803 0.008149
v 0.005936 -0.025691 0.017750
v 0.005932 -0.025062 0.017862
v 0.005932 -0.024848 0.017901
v 0.005932 -0.024814 0.017916
v 0.005932 -0.024118 0.018373
v 0.005932 -0.024007 0.018474
v 0.009566 -0.016287 0.013086
v 0.012985 -0.016287 0.025648
v 0.012985 -0.016803 0.025650
v 0.013676 -0.021734 0.025108
v 0.015653 -0.022136 0.024972
v 0.010629 -0.020032 0.025126
v 0.011244 -0.020341 0.025148
v 0.011566 -0.020869 0.025112
v 0.012182 -0.021196 0.025124
v 0.012534 -0.021694 0.025087
v 0.015653 -0.023026 0.024572
v 0.018313 -0.022143 0.024818
v 0.026501 -0.031263 0.019612
v 0.026501 -0.034260 0.009628
v 0.018313 -0.031058 0.009546
v 0.011858 -0.025585 0.008149
v 0.005932 -0.025691 0.017766
v 0.005932 -0.023592 0.019308
v 0.009446 -0.016287 0.013976
v 0.012089 -0.016287 0.025454
v 0.010559 -0.019471 0.025131
v 0.010114 -0.019471 0.025024
v 0.010327 -0.020341 0.024900
v 0.010972 -0.020623 0.025014
v 0.005932 -0.025691 0.020696
v 0.013873 -0.022859 0.024437
v 0.014842 -0.023078 0.024449
v 0.015192 -0.023475 0.024201
v 0.015653 -0.023502 0.024227
v 0.026501 -0.032107 0.019030
v 0.026501 -0.031901 0.019175
v 0.026501 -0.034330 0.009896
v 0.018313 -0.031272 0.012198
v 0.026501 -0.034460 0.010419
v 0.026501 -0.034488 0.010578
v 0.026501 -0.034598 0.011298
v 0.005932 -0.023592 0.019502
v 0.009383 -0.016287 0.014864
v 0.011483 -0.016287 0.025176
v 0.009365 -0.019509 0.024514
v 0.008972 -0.019962 0.024215
v 0.009413 -0.020298 0.024419
v 0.018313 -0.029622 0.019682
v 0.005932 -0.025629 0.020698
v 0.018313 -0.031245 0.013083
v 0.026501 -0.034587 0.014217
v 0.026501 -0.034546 0.014868
v 0.026501 -0.034503 0.015114
v 0.026501 -0.034366 0.015754
v 0.026501 -0.034334 0.015866
v 0.026501 -0.034109 0.016562
v 0.026501 -0.033987 0.016841
v 0.026501 -0.033531 0.017485
v 0.026501 -0.033401 0.017649
v 0.026501 -0.032886 0.018248
v 0.026501 -0.032641 0.018514
v 0.026501 -0.034623 0.011656
v 0.026501 -0.034643 0.012198
v 0.026501 -0.034596 0.013976
v 0.008932 -0.018972 0.023479
v 0.009611 -0.016287 0.020198
v 0.009385 -0.016287 0.015754
v 0.005932 -0.023957 0.020199
v 0.011097 -0.016287 0.024641
v 0.009025 -0.019238 0.024072
v 0.009617 -0.018815 0.024463
v 0.008972 -0.019831 0.024215
v 0.005932 -0.024797 0.020680
v 0.009756 -0.016287 0.020879
v 0.009683 -0.016287 0.020547
v 0.005932 -0.024427 0.020612
f 1 2 3
f 1 3 4
f 1 4 5
f 1 5 6
f 1 6 7
f 1 7 8
f 1 8 9
f 1 9 10
f 1 10 11
f 1 11 22
f 1 22 44
f 1 44 77
f 1 77 95
f 1 95 114
f 1 114 138
f 1 138 137
f 1 137 146
f 1 146 145
f 1 145 140
f 1 140 115
f 1 115 96
f 1 96 78
f 1 78 50
f 1 50 26
f 1 26 12
f 1 12 2
f 2 13 14
f 2 14 3
f 2 12 15
f 2 15 13
f 3 14 16
f 3 16 4
f 4 16 5
f 5 16 6
f 6 16 17
f 6 17 18
f 6 18 19
f 6 19 7
f 7 19 8
f 8 19 9
f 9 19 20
f 9 20 10
f 10 21 22
f 10 22 11
f 10 20 23
f 10 23 24
f 10 24 25
f 10 25 21
f 12 26 28
f 12 28 15
f 13 27 14
f 13 15 27
f 14 27 16
f 15 28 29
f 15 29 27
f 16 27 30
f 16 30 31
f 16 31 32
f 16 32 33
f 16 33 34
f 16 34 17
f 17 34 18
f 18 34 35
f 18 35 19
f 19 35 36
f 19 36 37
f 19 37 20
f 20 37 38
f 20 38 23
f 21 25 39
f 21 39 40
f 21 40 41
f 21 41 42
f 21 42 22
f 22 43 69
f 22 69 92
f 22 92 70
f 22 70 44
f 22 42 68
f 22 68 43
f 23 38 45
f 23 45 24
f 24 45 46
f 24 46 47
f 24 47 25
f 25 47 48
f 25 48 49
f 25 49 39
f 26 50 51
f 26 51 28
f 27 29 52
f 27 52 30
f 28 51 53
f 28 53 29
f 29 53 54
f 29 54 55
f 29 55 52
f 30 52 56
f 30 56 31
f 31 56 57
f 31 57 58
f 31 58 32
f 32 59 89
f 32 89 107
f 32 107 106
f 32 106 132
f 32 132 131
f 32 131 130
f 32 130 129
f 32 129 128
f 32 128 127
f 32 127 126
f 32 126 125
f 32 125 124
f 32 124 123
f 32 123 122
f 32 122 135
f 32 135 134
f 32 134 133
f 32 133 112
f 32 112 111
f 32 111 110
f 32 110 108
f 32 108 90
f 32 90 68
f 32 68 42
f 32 42 41
f 32 41 49
f 32 49 48
f 32 48 47
f 32 47 46
f 32 46 45
f 32 45 67
f 32 67 66
f 32 66 65
f 32 65 64
f 32 64 63
f 32 63 62
f 32 62 60
f 32 60 33
f 32 58 61
f 32 61 59
f 33 60 34
f 34 60 62
f 34 62 35
f 35 62 63
f 35 63 64
f 35 64 65
f 35 65 36
f 36 65 66
f 36 66 67
f 36 67 45
f 36 45 37
f 37 45 38
f 39 49 41
f 39 41 40
f 43 68 69
f 44 70 71
f 44 71 72
f 44 72 73
f 44 73 74
f 44 74 75
f 44 75 76
f 44 76 77
f 50 78 51
f 51 78 79
f 51 79 53
f 52 55 80
f 52 80 81
f 52 81 56
f 53 79 82
f 53 82 83
f 53 83 84
f 53 84 85
f 53 85 86
f 53 86 54
f 54 86 55
f 55 86 87
f 55 87 81
f 55 81 80
f 56 88 57
f 56 81 61
f 56 61 88
f 57 88 58
f 58 88 61
f 59 61 87
f 59 87 89
f 61 81 87
f 68 90 91
f 68 91 69
f 69 71 92
f 69 91 71
f 70 92 71
f 71 93 72
f 71 91 93
f 72 93 101
f 72 101 120
f 72 120 144
f 72 144 147
f 72 147 139
f 72 139 113
f 72 113 94
f 72 94 76
f 72 76 75
f 72 75 74
f 72 74 73
f 76 94 77
f 77 94 95
f 78 96 79
f 79 96 97
f 79 97 82
f 82 97 98
f 82 98 99
f 82 99 100
f 82 100 84
f 82 84 83
f 84 86 85
f 84 100 86
f 86 100 101
f 86 101 102
f 86 102 103
f 86 103 87
f 87 103 104
f 87 104 105
f 87 105 106
f 87 106 107
f 87 107 89
f 90 108 91
f 91 109 93
f 91 108 110
f 91 110 111
f 91 111 112
f 91 112 109
f 93 109 101
f 94 113 114
f 94 114 95
f 96 115 98
f 96 98 97
f 98 115 116
f 98 116 117
f 98 117 118
f 98 118 99
f 99 118 101
f 99 101 100
f 101 119 104
f 101 104 103
f 101 103 102
f 101 118 117
f 101 117 120
f 101 109 121
f 101 121 122
f 101 122 123
f 101 123 124
f 101 124 125
f 101 125 126
f 101 126 127
f 101 127 128
f 101 128 129
f 101 129 130
f 101 130 131
f 101 131 119
f 104 119 106
f 104 106 105
f 106 119 132
f 109 112 133
f 109 133 134
f 109 134 135
f 109 135 121
f 113 136 137
f 113 137 138
f 113 138 114
f 113 139 136
f 115 140 141
f 115 141 142
f 115 142 116
f 116 141 143
f 116 143 117
f 116 142 141
f 117 143 120
f 119 131 132
f 120 143 144
f 121 135 122
f 136 139 141
f 136 141 140
f 136 140 145
f 136 145 146
f 136 146 137
f 139 147 141
f 141 147 143
f 143 147 144
