v 0.024588 -0.016290 0.008637
v 0.023705 -0.016290 0.000637
v 0.024520 -0.016290 0.009460
v 0.057968 -0.042968 0.008352
v 0.057946 -0.042983 0.007748
v 0.056471 -0.041866 0.006858
v 0.023425 -0.016290 -0.000042
v 0.055404 -0.041121 0.006135
v 0.018313 -0.016290 0.009460
v 0.020285 -0.024806 0.009543
v 0.058909 -0.043806 0.009459
v 0.058898 -0.043781 0.008637
v 0.057888 -0.043027 0.007299
v 0.056916 -0.042245 0.006858
v 0.058856 -0.043822 0.007987
v 0.023055 -0.016290 -0.000294
v 0.055203 -0.041275 0.005543
v 0.056313 -0.041944 0.006217
v 0.018319 -0.024806 0.009543
v 0.010584 -0.016290 0.008146
v 0.026507 -0.029893 0.009543
v 0.059316 -0.044170 0.009459
v 0.059786 -0.044657 0.009459
v 0.058073 -0.043473 0.007126
v 0.057127 -0.042864 0.006313
v 0.059717 -0.044739 0.008961
v 0.058988 -0.044362 0.007856
v 0.058681 -0.044362 0.007411
v 0.022764 -0.016290 -0.000478
v 0.055372 -0.041866 0.005444
v 0.018319 -0.031064 0.009543
v 0.010177 -0.016290 0.005597
v 0.005932 -0.023839 0.005986
v 0.005932 -0.024200 0.006546
v 0.005932 -0.024373 0.006650
v 0.005932 -0.024586 0.006778
v 0.005932 -0.025632 0.007151
v 0.005932 -0.025691 0.007164
v 0.026507 -0.034238 0.009543
v 0.059939 -0.045254 0.009459
v 0.059934 -0.045191 0.009459
v 0.057703 -0.043473 0.006682
v 0.057254 -0.043473 0.006228
v 0.059739 -0.045254 0.008953
v 0.059400 -0.045254 0.008509
v 0.058956 -0.045254 0.007990
v 0.058237 -0.044362 0.007038
v 0.024002 -0.020190 -0.000684
v 0.022252 -0.016290 -0.000598
v 0.054854 -0.041621 0.005313
v 0.055901 -0.042588 0.005625
v 0.055456 -0.042588 0.005437
v 0.047601 -0.047175 0.009459
v 0.048579 -0.047709 0.009459
v 0.049477 -0.048064 0.009459
v 0.010098 -0.016290 0.005071
v 0.005932 -0.023829 0.005920
v 0.010035 -0.016290 0.004586
v 0.009992 -0.016290 0.004193
v 0.005932 -0.025691 0.004265
v 0.050006 -0.048199 0.009459
v 0.050323 -0.048274 0.009459
v 0.051211 -0.048362 0.009459
v 0.052105 -0.048362 0.009459
v 0.052433 -0.048340 0.009459
v 0.052993 -0.048293 0.009459
v 0.053157 -0.048277 0.009459
v 0.053860 -0.048168 0.009459
v 0.053955 -0.048152 0.009459
v 0.054711 -0.048001 0.009459
v 0.054774 -0.047985 0.009459
v 0.055742 -0.047740 0.009459
v 0.056366 -0.047536 0.009459
v 0.056683 -0.047417 0.009459
v 0.057021 -0.047273 0.009459
v 0.057386 -0.047116 0.009459
v 0.058396 -0.046663 0.009459
v 0.058671 -0.046538 0.009459
v 0.058977 -0.046375 0.009459
v 0.059178 -0.046262 0.009459
v 0.059813 -0.045847 0.009459
v 0.059707 -0.045737 0.009030
v 0.057217 -0.044151 0.006265
v 0.056551 -0.043473 0.005870
v 0.058808 -0.045721 0.008166
v 0.058105 -0.044962 0.007181
v 0.024102 -0.020780 -0.000696
v 0.023404 -0.019851 -0.000712
v 0.021876 -0.016290 -0.000666
v 0.053881 -0.041696 0.005060
v 0.055372 -0.043137 0.005490
v 0.054774 -0.042588 0.005280
v 0.049202 -0.047376 0.008364
v 0.049477 -0.047653 0.008651
v 0.049800 -0.047511 0.008150
v 0.050323 -0.048243 0.009382
v 0.005932 -0.023801 0.005135
v 0.009966 -0.016290 0.003612
v 0.009929 -0.016290 0.002645
v 0.009908 -0.016290 0.001691
v 0.005932 -0.024806 0.004351
v 0.008887 -0.019678 0.000071
v 0.008887 -0.020363 0.000072
v 0.008956 -0.020856 0.000155
v 0.009501 -0.021189 0.000026
v 0.010320 -0.021248 -0.000348
v 0.010320 -0.021911 0.000034
v 0.011161 -0.022206 -0.000124
v 0.011425 -0.022693 0.000105
v 0.049832 -0.045718 0.006397
v 0.049091 -0.046560 0.007336
v 0.051211 -0.048287 0.009276
v 0.052105 -0.048277 0.009274
v 0.052993 -0.048233 0.009339
v 0.053590 -0.047508 0.008145
v 0.052993 -0.047860 0.008637
v 0.054774 -0.047640 0.008797
v 0.055509 -0.047568 0.008941
v 0.055747 -0.047731 0.009440
v 0.056101 -0.047474 0.009086
v 0.056551 -0.047389 0.009278
v 0.057989 -0.046635 0.009004
v 0.058581 -0.046497 0.009276
v 0.059152 -0.045860 0.008696
v 0.056836 -0.044742 0.006460
v 0.056540 -0.044415 0.006175
v 0.055668 -0.043448 0.005637
v 0.058301 -0.046287 0.008678
v 0.056990 -0.046585 0.008196
v 0.058332 -0.045831 0.008046
v 0.057032 -0.045715 0.007286
v 0.057624 -0.045552 0.007431
v 0.057375 -0.045257 0.007069
v 0.024102 -0.020806 -0.000696
v 0.023684 -0.020435 -0.000708
v 0.021876 -0.016802 -0.000676
v 0.015654 -0.021248 -0.000779
v 0.012096 -0.017694 -0.000808
v 0.012096 -0.016290 -0.000786
v 0.053881 -0.042588 0.005159
v 0.054774 -0.043304 0.005437
v 0.049684 -0.046638 0.007251
v 0.050323 -0.046692 0.007193
v 0.050323 -0.047138 0.007682
v 0.050323 -0.047530 0.008126
v 0.050323 -0.047850 0.008637
v 0.005932 -0.023801 0.005124
v 0.009908 -0.016290 0.001526
v 0.005932 -0.024165 0.004531
v 0.009009 -0.019088 0.000273
v 0.009786 -0.017000 0.000088
v 0.010378 -0.016290 -0.000247
v 0.010838 -0.016290 -0.000676
v 0.010077 -0.018582 -0.000616
v 0.009945 -0.019471 -0.000684
v 0.009432 -0.020363 -0.000306
v 0.010246 -0.020444 -0.000644
v 0.010775 -0.020799 -0.000696
v 0.011124 -0.021245 -0.000604
v 0.011890 -0.021540 -0.000655
v 0.012154 -0.022062 -0.000454
v 0.012096 -0.022825 0.000019
v 0.013328 -0.023503 0.000160
v 0.050323 -0.045254 0.006046
v 0.050323 -0.045759 0.006366
v 0.050323 -0.046208 0.006748
v 0.013878 -0.023026 -0.000276
v 0.051211 -0.047901 0.008637
v 0.052105 -0.047913 0.008637
v 0.053881 -0.046654 0.007240
v 0.054394 -0.046601 0.007289
v 0.054981 -0.046532 0.007358
v 0.055663 -0.046827 0.007895
v 0.054774 -0.047373 0.008353
v 0.052993 -0.047546 0.008096
v 0.052993 -0.047163 0.007652
v 0.055747 -0.047310 0.008641
v 0.056397 -0.046707 0.008037
v 0.056635 -0.046946 0.008551
v 0.057439 -0.046761 0.008804
v 0.056551 -0.045828 0.007191
v 0.056540 -0.045197 0.006707
v 0.055663 -0.045426 0.006597
v 0.054341 -0.045703 0.006410
v 0.056239 -0.044864 0.006379
v 0.054695 -0.045269 0.006253
v 0.055663 -0.044362 0.005978
v 0.054256 -0.043881 0.005538
v 0.056635 -0.046334 0.007744
v 0.019212 -0.021832 -0.000731
v 0.019212 -0.021248 -0.000743
v 0.052993 -0.042588 0.005110
v 0.052993 -0.043473 0.005283
v 0.015654 -0.021992 -0.000741
v 0.014766 -0.021920 -0.000737
v 0.011124 -0.020444 -0.000771
v 0.011208 -0.019471 -0.000815
v 0.011208 -0.018582 -0.000808
v 0.011208 -0.017694 -0.000792
v 0.011663 -0.016290 -0.000775
v 0.053929 -0.043542 0.005381
v 0.053664 -0.044020 0.005489
v 0.051211 -0.046252 0.006705
v 0.051211 -0.046733 0.007150
v 0.051211 -0.047178 0.007671
v 0.052105 -0.047185 0.007644
v 0.052105 -0.047552 0.008088
v 0.009918 -0.016290 0.000836
v 0.009929 -0.016290 0.000636
v 0.005932 -0.023851 0.005037
v 0.010806 -0.016457 -0.000688
v 0.011256 -0.016290 -0.000759
v 0.010743 -0.017050 -0.000711
v 0.010516 -0.018582 -0.000752
v 0.010389 -0.019471 -0.000763
v 0.010494 -0.020206 -0.000745
v 0.011367 -0.020950 -0.000735
v 0.012482 -0.021713 -0.000707
v 0.013016 -0.023066 -0.000053
v 0.050323 -0.044465 0.005649
v 0.051211 -0.044585 0.005615
v 0.051211 -0.045254 0.005975
v 0.051211 -0.045809 0.006329
v 0.013878 -0.022278 -0.000622
v 0.014766 -0.023026 -0.000379
v 0.052993 -0.046720 0.007180
v 0.053881 -0.046186 0.006794
v 0.055663 -0.046441 0.007449
v 0.052105 -0.046742 0.007150
v 0.055663 -0.045995 0.007041
v 0.053881 -0.045743 0.006378
v 0.052993 -0.045254 0.005980
v 0.053881 -0.045254 0.006094
v 0.053929 -0.044337 0.005661
v 0.018313 -0.022285 -0.000656
v 0.016542 -0.022350 -0.000679
v 0.052993 -0.044104 0.005460
v 0.052105 -0.044155 0.005442
v 0.015654 -0.022435 -0.000674
v 0.012990 -0.021760 -0.000717
v 0.012154 -0.021245 -0.000736
v 0.052993 -0.044553 0.005623
v 0.052105 -0.045819 0.006310
v 0.052105 -0.046262 0.006705
v 0.014766 -0.022366 -0.000656
v 0.051211 -0.044139 0.005445
v 0.052105 -0.044600 0.005603
v 0.052105 -0.045254 0.005944
v 0.052993 -0.046243 0.006736
v 0.052993 -0.045794 0.006326
f 1 2 7
f 1 7 16
f 1 16 29
f 1 29 49
f 1 49 89
f 1 89 139
f 1 139 200
f 1 200 212
f 1 212 153
f 1 153 152
f 1 152 209
f 1 209 208
f 1 208 148
f 1 148 100
f 1 100 99
f 1 99 98
f 1 98 59
f 1 59 58
f 1 58 56
f 1 56 32
f 1 32 20
f 1 20 9
f 1 9 3
f 1 3 4
f 1 4 5
f 1 5 6
f 1 6 2
f 2 6 8
f 2 8 7
f 3 9 19
f 3 19 10
f 3 10 11
f 3 11 4
f 4 11 12
f 4 12 5
f 5 13 14
f 5 14 6
f 5 12 15
f 5 15 13
f 6 14 8
f 7 8 17
f 7 17 16
f 8 14 18
f 8 18 17
f 9 20 19
f 10 19 31
f 10 31 39
f 10 39 21
f 10 21 11
f 11 22 12
f 11 21 22
f 12 22 23
f 12 23 15
f 13 15 24
f 13 24 25
f 13 25 18
f 13 18 14
f 15 23 26
f 15 26 27
f 15 27 28
f 15 28 24
f 16 17 29
f 17 18 25
f 17 25 30
f 17 30 29
f 19 20 31
f 20 32 33
f 20 33 34
f 20 34 35
f 20 35 36
f 20 36 37
f 20 37 38
f 20 38 31
f 21 39 40
f 21 40 41
f 21 41 23
f 21 23 22
f 23 41 26
f 24 42 25
f 24 28 42
f 25 42 43
f 25 43 30
f 26 41 40
f 26 40 44
f 26 44 27
f 27 44 28
f 28 44 45
f 28 45 46
f 28 46 47
f 28 47 43
f 28 43 42
f 29 48 49
f 29 30 50
f 29 50 48
f 30 43 51
f 30 51 52
f 30 52 50
f 31 38 53
f 31 53 54
f 31 54 55
f 31 55 39
f 32 56 33
f 33 57 97
f 33 97 147
f 33 147 210
f 33 210 149
f 33 149 101
f 33 101 60
f 33 60 38
f 33 38 37
f 33 37 36
f 33 36 35
f 33 35 34
f 33 56 58
f 33 58 59
f 33 59 57
f 38 54 53
f 38 60 54
f 39 55 61
f 39 61 62
f 39 62 63
f 39 63 64
f 39 64 65
f 39 65 66
f 39 66 67
f 39 67 68
f 39 68 69
f 39 69 70
f 39 70 71
f 39 71 72
f 39 72 73
f 39 73 74
f 39 74 75
f 39 75 76
f 39 76 77
f 39 77 78
f 39 78 79
f 39 79 80
f 39 80 81
f 39 81 40
f 40 81 82
f 40 82 44
f 43 83 84
f 43 84 51
f 43 47 83
f 44 82 45
f 45 82 46
f 46 85 86
f 46 86 47
f 46 82 85
f 47 86 83
f 48 87 88
f 48 88 89
f 48 89 49
f 48 50 90
f 48 90 87
f 50 52 90
f 51 84 52
f 52 91 92
f 52 92 90
f 52 84 91
f 54 93 94
f 54 94 55
f 54 60 93
f 55 94 95
f 55 95 96
f 55 96 61
f 57 59 98
f 57 98 99
f 57 99 100
f 57 100 97
f 60 101 102
f 60 102 103
f 60 103 104
f 60 104 105
f 60 105 106
f 60 106 107
f 60 107 108
f 60 108 109
f 60 109 110
f 60 110 111
f 60 111 95
f 60 95 93
f 61 96 62
f 62 96 63
f 63 112 64
f 63 96 112
f 64 112 113
f 64 113 65
f 65 113 66
f 66 113 114
f 66 114 67
f 67 115 68
f 67 114 116
f 67 116 115
f 68 115 69
f 69 117 70
f 69 115 117
f 70 117 118
f 70 118 71
f 71 118 119
f 71 119 72
f 72 119 73
f 73 119 120
f 73 120 121
f 73 121 74
f 74 121 75
f 75 121 76
f 76 121 122
f 76 122 123
f 76 123 77
f 77 123 78
f 78 123 79
f 79 123 82
f 79 82 80
f 80 82 81
f 82 123 124
f 82 124 85
f 83 125 126
f 83 126 84
f 83 86 125
f 84 126 127
f 84 127 91
f 85 124 128
f 85 128 129
f 85 129 130
f 85 130 131
f 85 131 132
f 85 132 86
f 86 132 133
f 86 133 125
f 87 134 135
f 87 135 88
f 87 90 134
f 88 136 89
f 88 135 137
f 88 137 138
f 88 138 139
f 88 139 136
f 89 136 139
f 90 92 140
f 90 140 134
f 91 141 92
f 91 127 141
f 92 141 140
f 93 95 94
f 95 111 142
f 95 142 143
f 95 143 144
f 95 144 145
f 95 145 146
f 95 146 96
f 96 146 112
f 97 100 148
f 97 148 147
f 101 149 102
f 102 149 150
f 102 150 151
f 102 151 152
f 102 152 153
f 102 153 154
f 102 154 155
f 102 155 103
f 103 155 156
f 103 156 104
f 104 156 105
f 105 156 106
f 106 157 158
f 106 158 159
f 106 159 108
f 106 108 107
f 106 156 157
f 108 159 160
f 108 160 161
f 108 161 109
f 109 161 162
f 109 162 163
f 109 163 110
f 110 164 165
f 110 165 166
f 110 166 142
f 110 142 111
f 110 163 167
f 110 167 164
f 112 146 168
f 112 168 169
f 112 169 113
f 113 169 116
f 113 116 114
f 115 170 171
f 115 171 172
f 115 172 173
f 115 173 174
f 115 174 118
f 115 118 117
f 115 116 175
f 115 175 176
f 115 176 170
f 116 169 175
f 118 177 120
f 118 120 119
f 118 174 177
f 120 178 179
f 120 179 180
f 120 180 121
f 120 177 178
f 121 180 122
f 122 180 129
f 122 129 128
f 122 128 123
f 123 128 124
f 125 133 131
f 125 131 181
f 125 181 182
f 125 182 183
f 125 183 184
f 125 184 185
f 125 185 126
f 126 185 184
f 126 184 186
f 126 186 187
f 126 187 127
f 127 187 188
f 127 188 141
f 129 180 179
f 129 179 178
f 129 178 189
f 129 189 130
f 130 189 131
f 131 189 181
f 131 133 132
f 134 190 191
f 134 191 135
f 134 140 192
f 134 192 193
f 134 193 190
f 135 191 137
f 137 194 195
f 137 195 196
f 137 196 197
f 137 197 138
f 137 191 190
f 137 190 194
f 138 197 198
f 138 198 139
f 139 198 199
f 139 199 200
f 140 141 201
f 140 201 193
f 140 193 192
f 141 188 202
f 141 202 201
f 142 166 143
f 143 166 203
f 143 203 204
f 143 204 144
f 144 204 145
f 145 204 205
f 145 205 206
f 145 206 207
f 145 207 168
f 145 168 146
f 147 148 208
f 147 208 209
f 147 209 210
f 149 210 209
f 149 209 151
f 149 151 150
f 151 209 152
f 153 211 154
f 153 212 211
f 154 211 155
f 155 211 213
f 155 213 214
f 155 214 215
f 155 215 216
f 155 216 157
f 155 157 156
f 157 216 158
f 158 216 217
f 158 217 218
f 158 218 160
f 158 160 159
f 160 218 161
f 161 218 167
f 161 167 219
f 161 219 162
f 162 219 163
f 163 219 167
f 164 220 221
f 164 221 222
f 164 222 165
f 164 167 220
f 165 222 223
f 165 223 203
f 165 203 166
f 167 218 224
f 167 224 225
f 167 225 220
f 168 207 169
f 169 207 175
f 170 176 226
f 170 226 227
f 170 227 184
f 170 184 171
f 171 184 172
f 172 184 228
f 172 228 173
f 173 228 178
f 173 178 177
f 173 177 174
f 175 207 206
f 175 206 176
f 176 206 229
f 176 229 226
f 178 228 189
f 181 228 230
f 181 230 183
f 181 183 182
f 181 189 228
f 183 230 184
f 184 227 231
f 184 231 232
f 184 232 233
f 184 233 186
f 184 230 228
f 186 233 187
f 187 233 234
f 187 234 188
f 188 234 202
f 190 235 236
f 190 236 194
f 190 193 235
f 193 201 202
f 193 202 237
f 193 237 238
f 193 238 239
f 193 239 236
f 193 236 235
f 194 239 195
f 194 236 239
f 195 239 240
f 195 240 196
f 196 216 197
f 196 240 241
f 196 241 218
f 196 218 217
f 196 217 216
f 197 216 215
f 197 215 198
f 198 215 199
f 199 212 200
f 199 215 214
f 199 214 212
f 202 242 237
f 202 234 242
f 203 223 243
f 203 243 244
f 203 244 229
f 203 229 204
f 204 229 206
f 204 206 205
f 211 212 213
f 212 214 213
f 218 240 245
f 218 245 224
f 218 241 240
f 220 225 221
f 221 225 224
f 221 224 245
f 221 245 246
f 221 246 247
f 221 247 248
f 221 248 222
f 222 248 223
f 223 248 243
f 226 249 231
f 226 231 227
f 226 229 249
f 229 244 249
f 231 249 250
f 231 250 232
f 232 250 248
f 232 248 247
f 232 247 242
f 232 242 233
f 233 242 234
f 237 242 247
f 237 247 238
f 238 247 246
f 238 246 239
f 239 245 240
f 239 246 245
f 243 248 250
f 243 250 244
f 244 250 249
