v -0.127836 0.018384 0.003212
v -0.127908 0.003214 0.012344
v -0.127908 0.002850 0.012344
v -0.127908 0.002850 0.012149
v -0.127843 0.018384 0.002635
v -0.128663 0.018384 0.004846
v -0.128734 0.004372 0.013542
v -0.130225 0.001449 0.016102
v -0.128669 0.001668 0.013542
v -0.129607 -0.001651 0.013788
v -0.128676 0.018384 0.001011
v -0.127882 0.018384 0.002558
v -0.130615 -0.003933 0.011420
v -0.130205 -0.001662 0.010506
v -0.129236 0.018384 0.005708
v -0.130720 0.006825 0.015636
v -0.130075 0.007781 0.013959
v -0.129027 0.005122 0.013636
v -0.130446 0.005122 0.015865
v -0.130362 0.004553 0.015944
v -0.132607 0.001449 0.017187
v -0.132607 -0.001651 0.017112
v -0.130544 -0.001651 0.015871
v -0.130876 -0.003522 0.015542
v -0.130596 -0.003991 0.013788
v -0.131383 -0.002703 0.009358
v -0.130960 0.015236 -0.000242
v -0.130069 0.018384 -0.000565
v -0.131631 -0.005544 0.013788
v -0.133356 -0.007089 0.011315
v -0.132366 -0.004999 0.010335
v -0.130062 0.018384 0.006534
v -0.131325 0.008894 0.015110
v -0.133388 0.009898 0.015653
v -0.132451 0.007781 0.016002
v -0.132575 0.005122 0.016646
v -0.132132 0.005122 0.016496
v -0.132607 0.004553 0.016782
v -0.149900 0.018384 0.018872
v -0.151111 0.018384 0.019007
v -0.169829 -0.016617 0.020537
v -0.135712 -0.004759 0.017392
v -0.132620 -0.004639 0.016190
v -0.133661 -0.006749 0.015728
v -0.151775 -0.016617 -0.000766
v -0.137365 0.003101 -0.000095
v -0.134078 0.009062 -0.000232
v -0.130531 0.016963 -0.000484
v -0.133674 0.010758 -0.000482
v -0.132568 0.014064 -0.000683
v -0.132607 0.016963 -0.001081
v -0.132607 0.018384 -0.001102
v -0.133186 -0.007229 0.013788
v -0.136564 -0.009788 0.011561
v -0.150161 -0.016617 0.001291
v -0.150317 -0.016617 0.001050
v -0.148722 0.018384 0.018442
v -0.149158 0.018384 0.018695
v -0.152849 0.018384 0.018973
v -0.169829 -0.010960 0.020359
v -0.169829 -0.014061 0.020511
v -0.172934 -0.010960 0.019948
v -0.172687 -0.016617 0.019499
v -0.167018 -0.016617 0.019446
v -0.137170 -0.009449 0.015392
v -0.135965 -0.007812 0.016062
v -0.138810 -0.007856 0.016772
v -0.135119 -0.008781 0.013788
v -0.152191 -0.016617 -0.000871
v -0.136707 0.005170 -0.000520
v -0.135686 0.007880 -0.000683
v -0.135705 0.010758 -0.001100
v -0.138810 0.007657 -0.001248
v -0.135705 0.013862 -0.001186
v -0.185346 0.004553 -0.001201
v -0.185339 0.005122 -0.001160
v -0.185339 0.007657 -0.000970
v -0.182241 0.009740 -0.000506
v -0.185339 0.009449 -0.000347
v -0.135367 0.018384 -0.000666
v -0.136668 -0.009727 0.013788
v -0.150213 -0.016617 0.004508
v -0.153838 0.018384 0.018785
v -0.172934 -0.007856 0.019786
v -0.174730 -0.007856 0.018735
v -0.190305 -0.005489 0.009298
v -0.190325 -0.007856 0.009332
v -0.174132 -0.016617 0.016857
v -0.190130 -0.009621 0.009234
v -0.187357 -0.012937 0.009443
v -0.185554 -0.015133 0.007747
v -0.184656 -0.015897 0.006819
v -0.151775 -0.016617 0.006908
v -0.138810 -0.010542 0.013788
v -0.154326 -0.016617 -0.001269
v -0.138562 0.004300 -0.000818
v -0.136812 0.005122 -0.000538
v -0.154326 -0.014061 -0.001316
v -0.188444 0.001449 -0.001226
v -0.188444 0.004553 -0.001107
v -0.188158 0.007369 -0.000452
v -0.186927 0.009226 -0.000189
v -0.182352 0.011453 0.001507
v -0.136831 0.018384 0.000220
v -0.181395 0.012450 0.002628
v -0.154821 0.018384 0.018128
v -0.187266 0.009466 0.006290
v -0.190299 0.006462 0.006295
v -0.171873 -0.002696 0.018725
v -0.172921 -0.004978 0.019024
v -0.174535 -0.006160 0.018500
v -0.191548 -0.001651 0.008034
v -0.193631 -0.001651 0.006680
v -0.193586 -0.004759 0.006695
v -0.182280 -0.016089 0.007747
v -0.179137 -0.016346 0.007584
v -0.174203 -0.016617 0.016376
v -0.193299 -0.006835 0.006365
v -0.190650 -0.010779 0.007411
v -0.189420 -0.011690 0.008329
v -0.188405 -0.013434 0.007411
v -0.190123 -0.012649 0.006260
v -0.184656 -0.015897 0.005422
v -0.182235 -0.016110 0.005056
v -0.154769 -0.016617 -0.001175
v -0.185346 -0.013400 0.002286
v -0.190071 -0.006410 -0.000206
v -0.190553 -0.004759 -0.000369
v -0.191151 -0.001651 -0.000630
v -0.191073 0.001449 -0.000724
v -0.190442 0.004553 -0.000456
v -0.190299 0.005122 -0.000364
v -0.189017 0.005122 -0.000779
v -0.190025 0.006146 -0.000195
v -0.185339 0.010641 0.001379
v -0.189023 0.008243 0.001379
v -0.187468 0.009692 0.001379
v -0.154209 0.018384 0.010973
v -0.185339 0.011046 0.004483
v -0.181395 0.012450 0.003510
v -0.156331 0.018384 0.014378
v -0.155634 0.018384 0.012712
v -0.155257 0.018384 0.017619
v -0.187728 0.009870 0.004483
v -0.189277 0.008483 0.004483
v -0.190722 0.006931 0.004483
v -0.191972 0.005122 0.004618
v -0.192382 0.004519 0.004662
v -0.193006 0.002775 0.005818
v -0.190924 0.004553 0.006705
v -0.191802 0.001624 0.007088
v -0.193358 0.000713 0.006344
v -0.194328 -0.001651 0.004483
v -0.194178 -0.004759 0.004483
v -0.156572 -0.016617 -0.000677
v -0.173331 -0.016617 0.010091
v -0.174203 -0.016617 0.016305
v -0.193462 -0.007195 0.004483
v -0.192772 -0.008747 0.004483
v -0.190123 -0.012649 0.005565
v -0.185554 -0.015048 0.004425
v -0.182235 -0.015075 0.003503
v -0.188607 -0.013461 0.004511
v -0.187689 -0.012985 0.002506
v -0.188607 -0.011152 0.001779
v -0.190787 -0.010248 0.002282
v -0.191470 -0.007719 0.001381
v -0.192108 -0.004759 0.000476
v -0.192707 -0.001651 0.000102
v -0.192622 0.001449 0.000376
v -0.193345 0.003457 0.002476
v -0.190527 0.006691 0.001379
v -0.156233 0.018384 0.016126
v -0.156331 0.018384 0.015144
v -0.193345 0.003457 0.003747
v -0.193651 0.001624 0.004662
v -0.193787 -0.001651 0.001657
v -0.193592 0.001449 0.001929
v -0.193690 -0.004759 0.002029
v -0.193384 -0.006955 0.002549
v -0.191047 -0.011152 0.004511
v -0.189752 -0.012317 0.003497
f 1 2 3
f 1 3 4
f 1 4 5
f 1 5 12
f 1 12 11
f 1 11 28
f 1 28 52
f 1 52 80
f 1 80 104
f 1 104 138
f 1 138 142
f 1 142 141
f 1 141 174
f 1 174 173
f 1 173 143
f 1 143 106
f 1 106 83
f 1 83 59
f 1 59 40
f 1 40 39
f 1 39 58
f 1 58 57
f 1 57 32
f 1 32 15
f 1 15 6
f 1 6 7
f 1 7 2
f 2 7 8
f 2 8 3
f 3 8 9
f 3 9 10
f 3 10 4
f 4 11 12
f 4 12 5
f 4 10 13
f 4 13 14
f 4 14 11
f 6 15 16
f 6 16 17
f 6 17 18
f 6 18 7
f 7 18 16
f 7 16 19
f 7 19 20
f 7 20 8
f 8 20 21
f 8 21 22
f 8 22 23
f 8 23 9
f 9 23 10
f 10 23 24
f 10 24 25
f 10 25 13
f 11 14 26
f 11 26 27
f 11 27 28
f 13 25 29
f 13 29 30
f 13 30 31
f 13 31 26
f 13 26 14
f 15 32 33
f 15 33 16
f 16 33 34
f 16 34 35
f 16 35 36
f 16 36 37
f 16 37 20
f 16 20 19
f 16 18 17
f 20 37 38
f 20 38 21
f 21 38 39
f 21 39 40
f 21 40 41
f 21 41 42
f 21 42 22
f 22 43 24
f 22 24 23
f 22 42 43
f 24 29 25
f 24 43 44
f 24 44 29
f 26 31 45
f 26 45 46
f 26 46 47
f 26 47 27
f 27 48 28
f 27 47 49
f 27 49 48
f 28 48 50
f 28 50 51
f 28 51 52
f 29 44 53
f 29 53 30
f 30 53 54
f 30 54 55
f 30 55 56
f 30 56 45
f 30 45 31
f 32 57 34
f 32 34 33
f 34 57 58
f 34 58 35
f 35 58 36
f 36 38 37
f 36 58 38
f 38 58 39
f 40 59 60
f 40 60 61
f 40 61 41
f 41 61 62
f 41 62 63
f 41 63 88
f 41 88 117
f 41 117 157
f 41 157 156
f 41 156 155
f 41 155 125
f 41 125 95
f 41 95 69
f 41 69 45
f 41 45 56
f 41 56 55
f 41 55 82
f 41 82 93
f 41 93 64
f 41 64 65
f 41 65 66
f 41 66 67
f 41 67 42
f 42 67 66
f 42 66 44
f 42 44 43
f 44 66 65
f 44 65 68
f 44 68 53
f 45 69 70
f 45 70 46
f 46 70 47
f 47 70 49
f 48 49 71
f 48 71 50
f 49 70 71
f 50 71 72
f 50 72 51
f 51 72 73
f 51 73 52
f 52 73 74
f 52 74 75
f 52 75 76
f 52 76 77
f 52 77 78
f 52 78 79
f 52 79 80
f 53 68 54
f 54 68 81
f 54 81 82
f 54 82 55
f 59 83 84
f 59 84 60
f 60 84 62
f 60 62 61
f 62 84 85
f 62 85 86
f 62 86 87
f 62 87 63
f 63 87 89
f 63 89 90
f 63 90 91
f 63 91 92
f 63 92 88
f 64 93 94
f 64 94 65
f 65 94 81
f 65 81 68
f 69 95 72
f 69 72 96
f 69 96 97
f 69 97 70
f 70 97 71
f 71 97 96
f 71 96 72
f 72 95 73
f 73 95 98
f 73 98 99
f 73 99 75
f 73 75 74
f 75 99 100
f 75 100 76
f 76 100 77
f 77 100 101
f 77 101 102
f 77 102 79
f 77 79 78
f 79 103 80
f 79 102 103
f 80 103 105
f 80 105 104
f 81 94 82
f 82 94 93
f 83 106 107
f 83 107 108
f 83 108 109
f 83 109 110
f 83 110 84
f 84 110 111
f 84 111 112
f 84 112 86
f 84 86 85
f 86 112 113
f 86 113 87
f 87 113 114
f 87 114 89
f 88 92 115
f 88 115 116
f 88 116 117
f 89 114 118
f 89 118 119
f 89 119 120
f 89 120 90
f 90 121 91
f 90 120 122
f 90 122 121
f 91 121 122
f 91 122 92
f 92 123 124
f 92 124 115
f 92 122 160
f 92 160 123
f 95 125 126
f 95 126 127
f 95 127 128
f 95 128 99
f 95 99 98
f 99 128 129
f 99 129 130
f 99 130 100
f 100 130 131
f 100 131 132
f 100 132 133
f 100 133 101
f 101 133 134
f 101 134 102
f 102 135 105
f 102 105 103
f 102 134 136
f 102 136 137
f 102 137 135
f 104 105 138
f 105 135 139
f 105 139 140
f 105 140 174
f 105 174 141
f 105 141 142
f 105 142 138
f 106 143 139
f 106 139 107
f 107 139 144
f 107 144 145
f 107 145 108
f 108 145 146
f 108 146 147
f 108 147 148
f 108 148 149
f 108 149 150
f 108 150 109
f 109 150 110
f 110 150 151
f 110 151 111
f 111 151 112
f 112 151 152
f 112 152 113
f 113 153 114
f 113 152 153
f 114 153 154
f 114 154 118
f 115 124 116
f 116 124 155
f 116 155 156
f 116 156 157
f 116 157 117
f 118 154 158
f 118 158 159
f 118 159 122
f 118 122 119
f 119 122 120
f 122 159 160
f 123 161 162
f 123 162 124
f 123 160 163
f 123 163 161
f 124 162 125
f 124 125 155
f 125 162 126
f 126 162 161
f 126 161 164
f 126 164 165
f 126 165 127
f 127 165 166
f 127 166 167
f 127 167 168
f 127 168 128
f 128 168 169
f 128 169 129
f 129 169 130
f 130 169 170
f 130 170 131
f 131 170 132
f 132 134 133
f 132 170 134
f 134 170 171
f 134 171 172
f 134 172 136
f 135 137 139
f 136 172 145
f 136 145 137
f 137 144 139
f 137 145 144
f 139 143 173
f 139 173 140
f 140 173 174
f 145 172 146
f 146 172 171
f 146 171 175
f 146 175 147
f 147 175 148
f 148 175 149
f 149 175 176
f 149 176 152
f 149 152 150
f 150 152 151
f 152 176 153
f 153 177 154
f 153 176 175
f 153 175 171
f 153 171 178
f 153 178 177
f 154 177 179
f 154 179 180
f 154 180 158
f 158 180 159
f 159 180 181
f 159 181 160
f 160 182 163
f 160 181 182
f 161 163 164
f 163 182 164
f 164 182 166
f 164 166 165
f 166 182 180
f 166 180 167
f 167 180 168
f 168 180 179
f 168 179 169
f 169 179 177
f 169 177 170
f 170 177 178
f 170 178 171
f 180 182 181
