v -0.018249 -0.013262 0.004689
v -0.018481 -0.013262 0.001296
v -0.018927 -0.013262 0.006108
v -0.019390 -0.018868 0.012157
v -0.018481 -0.020052 0.010955
v -0.016924 -0.023381 0.007590
v -0.016770 -0.026480 0.007590
v -0.017926 -0.029585 0.004483
v -0.019066 -0.013262 0.000194
v -0.019051 -0.013262 0.006336
v -0.022087 -0.015283 0.012620
v -0.030886 -0.013262 0.022521
v -0.019112 -0.020938 0.012461
v -0.017833 -0.023381 0.010690
v -0.018342 -0.026256 0.010804
v -0.018727 -0.029585 0.009771
v -0.017633 -0.029585 0.007590
v -0.018804 -0.032092 0.004483
v -0.019189 -0.031494 0.002766
v -0.019020 -0.029585 0.002652
v -0.019683 -0.013262 -0.000393
v -0.021470 -0.013262 0.009800
v -0.032582 -0.013262 0.023602
v -0.033306 -0.014073 0.023899
v -0.031010 -0.014073 0.022432
v -0.019282 -0.025066 0.012281
v -0.019112 -0.023381 0.012439
v -0.019205 -0.031366 0.009280
v -0.018820 -0.031996 0.007590
v -0.019698 -0.033644 0.004483
v -0.021809 -0.034908 0.002369
v -0.020823 -0.032582 0.002057
v -0.021594 -0.017172 -0.000641
v -0.020746 -0.014019 -0.000678
v -0.020792 -0.013262 -0.000755
v -0.033306 -0.013262 0.023983
v -0.036419 -0.017172 0.023775
v -0.033306 -0.017172 0.023252
v -0.033198 -0.020122 0.022316
v -0.034138 -0.022634 0.021981
v -0.022888 -0.034135 0.009077
v -0.021501 -0.035036 0.007003
v -0.021255 -0.035346 0.004483
v -0.023196 -0.036893 0.004483
v -0.025092 -0.037575 0.002625
v -0.024029 -0.035879 0.001876
v -0.023998 -0.032678 0.000727
v -0.023767 -0.020527 -0.000629
v -0.023998 -0.017172 -0.001020
v -0.024075 -0.013262 -0.000728
v -0.154313 -0.016622 -0.001266
v -0.035602 -0.013262 0.023864
v -0.169816 -0.016622 0.020532
v -0.169816 -0.017177 0.020537
v -0.166719 -0.032694 0.020556
v -0.163621 -0.048185 0.020551
v -0.036419 -0.020276 0.023064
v -0.163621 -0.051295 0.020314
v -0.033306 -0.025872 0.019265
v -0.073929 -0.048297 0.016000
v -0.075162 -0.049753 0.015348
v -0.024938 -0.037634 0.006473
v -0.024753 -0.037735 0.004483
v -0.027111 -0.037981 0.002188
v -0.027111 -0.038712 0.004483
v -0.033922 -0.040739 0.002496
v -0.027111 -0.035778 0.000784
v -0.030208 -0.035778 0.000256
v -0.034770 -0.037357 -0.000175
v -0.061231 -0.045086 -0.001082
v -0.062571 -0.045086 -0.001154
v -0.064344 -0.045086 -0.001243
v -0.095366 -0.023381 -0.001253
v -0.024907 -0.013262 -0.000346
v -0.154760 -0.016622 -0.001171
v -0.156563 -0.016622 -0.000673
v -0.145005 -0.060593 -0.001330
v -0.151200 -0.063697 -0.001174
v -0.154313 -0.063697 -0.000812
v -0.156517 -0.063697 -0.000364
v -0.036481 -0.013262 0.023530
v -0.172683 -0.016622 0.019498
v -0.169816 -0.020282 0.020470
v -0.166719 -0.035794 0.020539
v -0.166719 -0.038898 0.020437
v -0.166719 -0.041987 0.020306
v -0.076611 -0.048479 0.016124
v -0.160508 -0.056251 0.018656
v -0.166719 -0.045086 0.020056
v -0.166210 -0.051295 0.019342
v -0.165655 -0.053706 0.018894
v -0.163791 -0.054608 0.019238
v -0.162866 -0.056304 0.018705
v -0.071880 -0.049812 0.012491
v -0.043662 -0.043678 0.006215
v -0.034046 -0.040685 0.006346
v -0.157410 -0.059435 0.015767
v -0.151200 -0.066295 0.006911
v -0.151200 -0.067757 0.004483
v -0.030208 -0.039778 0.004483
v -0.056823 -0.046494 -0.000076
v -0.047900 -0.043176 -0.000012
v -0.041181 -0.040226 -0.000153
v -0.043308 -0.043806 0.002496
v -0.043246 -0.040728 -0.000304
v -0.064344 -0.047737 -0.000772
v -0.148102 -0.063697 -0.001231
v -0.025909 -0.013262 0.000454
v -0.173315 -0.016622 0.010093
v -0.160508 -0.060593 0.001108
v -0.162881 -0.057493 0.002409
v -0.151200 -0.065762 -0.000554
v -0.154313 -0.065575 -0.000398
v -0.156039 -0.065356 -0.000247
v -0.158058 -0.063697 0.000370
v -0.038068 -0.013262 0.022430
v -0.174116 -0.016622 0.016857
v -0.172328 -0.020282 0.019365
v -0.172575 -0.017177 0.019511
v -0.169816 -0.023386 0.020356
v -0.038407 -0.013262 0.022137
v -0.169816 -0.026485 0.020138
v -0.160508 -0.057808 0.017390
v -0.168845 -0.041987 0.019094
v -0.168583 -0.045086 0.018837
v -0.166950 -0.048201 0.019469
v -0.169400 -0.035794 0.019454
v -0.169107 -0.038898 0.019288
v -0.168383 -0.047172 0.018599
v -0.168137 -0.049247 0.017685
v -0.166041 -0.054608 0.017028
v -0.164931 -0.055776 0.018155
v -0.162311 -0.059195 0.015556
v -0.160508 -0.059435 0.015839
v -0.062263 -0.049892 0.003422
v -0.043138 -0.043843 0.004483
v -0.033553 -0.040851 0.004483
v -0.031996 -0.040360 0.004483
v -0.154313 -0.066359 0.007169
v -0.154313 -0.067698 0.004483
v -0.151200 -0.067218 0.001383
v -0.148102 -0.066887 0.001383
v -0.062263 -0.049892 0.002590
v -0.058888 -0.046878 -0.000349
v -0.049965 -0.043640 -0.000242
v -0.064344 -0.049289 0.000449
v -0.052755 -0.046868 0.002511
v -0.055020 -0.047225 0.001911
v -0.061231 -0.047236 -0.000564
v -0.062571 -0.047449 -0.000656
v -0.148102 -0.065676 -0.000502
v -0.036388 -0.013262 0.010769
v -0.162712 -0.060593 0.002359
v -0.164438 -0.057493 0.003841
v -0.165486 -0.057493 0.005392
v -0.165286 -0.059350 0.005774
v -0.171496 -0.031910 0.015113
v -0.174208 -0.016622 0.016302
v -0.038838 -0.013262 0.017905
v -0.038761 -0.013262 0.017377
v -0.154313 -0.066919 0.001383
v -0.157210 -0.065991 0.001440
v -0.159383 -0.065575 0.002511
v -0.162342 -0.062545 0.002644
v -0.174208 -0.016622 0.016379
v -0.171373 -0.031185 0.018450
v -0.171789 -0.026485 0.018933
v -0.172066 -0.023386 0.019179
v -0.038823 -0.013262 0.020650
v -0.169046 -0.045086 0.016889
v -0.168491 -0.048201 0.016745
v -0.168306 -0.049876 0.015616
v -0.167705 -0.051060 0.016745
v -0.165393 -0.056261 0.016086
v -0.165286 -0.059350 0.006951
v -0.165147 -0.058998 0.009017
v -0.162835 -0.062982 0.007585
v -0.162496 -0.062588 0.009040
v -0.162388 -0.062476 0.009424
v -0.159676 -0.065676 0.006723
v -0.157410 -0.066108 0.007171
v -0.157410 -0.066946 0.004483
v -0.146238 -0.065447 -0.000331
v -0.064344 -0.050164 0.002000
v -0.062571 -0.049935 0.002506
v -0.164253 -0.060470 0.004637
v -0.162804 -0.063046 0.004483
v -0.168306 -0.049876 0.015271
v -0.038916 -0.013262 0.019991
v -0.159799 -0.065815 0.004483
v -0.161356 -0.064599 0.004483
v -0.171481 -0.031750 0.016889
v -0.164530 -0.060470 0.007823
f 1 2 9
f 1 9 21
f 1 21 35
f 1 35 50
f 1 50 74
f 1 74 108
f 1 108 152
f 1 152 160
f 1 160 159
f 1 159 189
f 1 189 169
f 1 169 121
f 1 121 116
f 1 116 81
f 1 81 52
f 1 52 36
f 1 36 23
f 1 23 12
f 1 12 22
f 1 22 10
f 1 10 3
f 1 3 4
f 1 4 5
f 1 5 6
f 1 6 2
f 2 6 7
f 2 7 8
f 2 8 9
f 3 10 4
f 4 11 12
f 4 12 13
f 4 13 5
f 4 10 11
f 5 13 14
f 5 14 6
f 6 14 7
f 7 14 15
f 7 15 16
f 7 16 17
f 7 17 8
f 8 17 18
f 8 18 19
f 8 19 20
f 8 20 9
f 9 20 19
f 9 19 21
f 10 22 11
f 11 22 12
f 12 23 24
f 12 24 25
f 12 25 26
f 12 26 27
f 12 27 13
f 13 27 14
f 14 27 15
f 15 27 26
f 15 26 16
f 16 26 28
f 16 28 17
f 17 28 29
f 17 29 18
f 18 29 30
f 18 30 19
f 19 30 31
f 19 31 32
f 19 32 21
f 21 32 33
f 21 33 34
f 21 34 35
f 23 36 24
f 24 36 37
f 24 37 38
f 24 38 25
f 25 38 26
f 26 38 39
f 26 39 40
f 26 40 28
f 28 40 41
f 28 41 42
f 28 42 29
f 29 42 43
f 29 43 30
f 30 43 31
f 31 44 45
f 31 45 46
f 31 46 47
f 31 47 32
f 31 43 44
f 32 47 33
f 33 47 48
f 33 48 49
f 33 49 35
f 33 35 34
f 35 49 51
f 35 51 50
f 36 52 53
f 36 53 54
f 36 54 55
f 36 55 56
f 36 56 37
f 37 57 38
f 37 56 58
f 37 58 57
f 38 57 40
f 38 40 39
f 40 59 41
f 40 57 60
f 40 60 61
f 40 61 59
f 41 62 42
f 41 59 61
f 41 61 62
f 42 62 44
f 42 44 43
f 44 62 63
f 44 63 45
f 45 64 46
f 45 63 65
f 45 65 66
f 45 66 64
f 46 64 67
f 46 67 47
f 47 67 68
f 47 68 69
f 47 69 48
f 48 69 49
f 49 69 70
f 49 70 71
f 49 71 72
f 49 72 73
f 49 73 51
f 50 51 75
f 50 75 76
f 50 76 74
f 51 77 78
f 51 78 79
f 51 79 80
f 51 80 75
f 51 73 77
f 52 81 82
f 52 82 53
f 53 82 54
f 54 82 83
f 54 83 84
f 54 84 55
f 55 84 56
f 56 84 85
f 56 85 86
f 56 86 58
f 57 87 60
f 57 58 88
f 57 88 87
f 58 86 89
f 58 89 90
f 58 90 91
f 58 91 92
f 58 92 93
f 58 93 88
f 60 87 61
f 61 94 95
f 61 95 96
f 61 96 62
f 61 87 88
f 61 88 97
f 61 97 98
f 61 98 99
f 61 99 94
f 62 96 100
f 62 100 65
f 62 65 63
f 64 66 101
f 64 101 102
f 64 102 103
f 64 103 67
f 65 100 66
f 66 100 104
f 66 104 101
f 67 103 69
f 67 69 68
f 69 103 105
f 69 105 70
f 70 105 106
f 70 106 71
f 71 106 72
f 72 106 107
f 72 107 77
f 72 77 73
f 74 76 109
f 74 109 108
f 75 80 76
f 76 80 110
f 76 110 111
f 76 111 109
f 77 107 78
f 78 112 113
f 78 113 114
f 78 114 79
f 78 107 112
f 79 114 80
f 80 114 115
f 80 115 110
f 81 116 82
f 82 117 118
f 82 118 119
f 82 119 120
f 82 120 83
f 82 116 121
f 82 121 117
f 83 120 85
f 83 85 84
f 85 120 86
f 86 120 122
f 86 122 89
f 88 93 123
f 88 123 97
f 89 124 125
f 89 125 126
f 89 126 90
f 89 122 118
f 89 118 127
f 89 127 128
f 89 128 124
f 90 126 129
f 90 129 91
f 91 129 130
f 91 130 131
f 91 131 132
f 91 132 92
f 92 132 93
f 93 132 133
f 93 133 134
f 93 134 123
f 94 135 95
f 94 99 135
f 95 135 136
f 95 136 96
f 96 137 138
f 96 138 100
f 96 136 137
f 97 123 134
f 97 134 139
f 97 139 98
f 98 139 99
f 99 139 140
f 99 140 141
f 99 141 142
f 99 142 143
f 99 143 135
f 100 138 104
f 101 144 145
f 101 145 102
f 101 104 146
f 101 146 144
f 102 145 103
f 103 145 105
f 104 147 148
f 104 148 146
f 104 138 147
f 105 145 149
f 105 149 150
f 105 150 106
f 106 150 149
f 106 149 146
f 106 146 151
f 106 151 107
f 107 151 112
f 108 109 152
f 109 111 153
f 109 153 154
f 109 154 155
f 109 155 156
f 109 156 157
f 109 157 158
f 109 158 159
f 109 159 160
f 109 160 152
f 110 115 153
f 110 153 111
f 112 141 161
f 112 161 113
f 112 151 141
f 113 161 114
f 114 161 162
f 114 162 163
f 114 163 164
f 114 164 115
f 115 164 153
f 117 165 166
f 117 166 167
f 117 167 168
f 117 168 118
f 117 121 169
f 117 169 165
f 118 168 128
f 118 128 127
f 118 122 119
f 119 122 120
f 124 128 168
f 124 168 125
f 125 129 126
f 125 168 167
f 125 167 166
f 125 166 129
f 129 166 170
f 129 170 171
f 129 171 130
f 130 171 172
f 130 172 173
f 130 173 131
f 131 174 132
f 131 173 175
f 131 175 176
f 131 176 174
f 132 177 178
f 132 178 179
f 132 179 133
f 132 174 177
f 133 179 180
f 133 180 181
f 133 181 134
f 134 181 139
f 135 143 137
f 135 137 136
f 137 143 138
f 138 143 147
f 139 181 140
f 140 181 182
f 140 182 161
f 140 161 141
f 141 151 142
f 142 151 183
f 142 183 146
f 142 146 184
f 142 184 185
f 142 185 143
f 143 185 146
f 143 146 147
f 144 149 145
f 144 146 149
f 146 148 147
f 146 185 184
f 146 183 151
f 153 164 186
f 153 186 156
f 153 156 155
f 153 155 154
f 156 186 187
f 156 187 175
f 156 175 172
f 156 172 188
f 156 188 157
f 157 188 172
f 157 172 165
f 157 165 158
f 158 165 189
f 158 189 159
f 161 182 162
f 162 182 163
f 163 182 190
f 163 190 191
f 163 191 164
f 164 187 186
f 164 191 187
f 165 172 192
f 165 192 166
f 165 169 189
f 166 192 170
f 170 192 172
f 170 172 171
f 172 175 173
f 174 176 193
f 174 193 177
f 175 187 193
f 175 193 176
f 177 193 187
f 177 187 191
f 177 191 180
f 177 180 178
f 178 180 179
f 180 191 190
f 180 190 182
f 180 182 181
