v 0.024402 -0.067685 0.023105
v 0.024402 -0.068181 0.024359
v 0.024402 -0.067710 0.020057
v 0.020678 -0.068278 0.021275
v 0.020678 -0.068278 0.021833
v 0.022546 -0.068001 0.022531
v 0.024115 -0.068375 0.024642
v 0.024402 -0.068336 0.024680
v 0.024402 -0.068317 0.018668
v -0.008490 -0.074257 0.002559
v -0.008490 -0.073586 0.004484
v -0.011831 -0.074186 0.004780
v 0.011063 -0.071290 0.022054
v -0.013136 -0.074580 0.006034
v 0.001568 -0.074296 0.022262
v 0.003951 -0.073973 0.023216
v 0.002933 -0.074786 0.024332
v 0.014548 -0.071400 0.024720
v 0.024402 -0.069813 0.025426
v 0.016344 -0.071148 0.024933
v 0.019445 -0.070697 0.025232
v 0.022546 -0.070200 0.025389
v 0.024402 -0.076366 0.001300
v -0.010969 -0.074283 0.002588
v 0.024402 -0.077405 -0.000398
v -0.013052 -0.074612 0.003942
v -0.013136 -0.074580 0.006009
v -0.089147 -0.106894 0.010686
v -0.007137 -0.077546 0.021817
v -0.002276 -0.076076 0.023097
v 0.000658 -0.075070 0.023216
v 0.005004 -0.074444 0.024782
v -0.003988 -0.077585 0.024731
v 0.007028 -0.074134 0.025022
v 0.024402 -0.070781 0.025629
v 0.016344 -0.073032 0.025728
v 0.019445 -0.073032 0.025984
v 0.010141 -0.073683 0.025284
v -0.011831 -0.075844 0.001621
v -0.014681 -0.076534 0.001820
v -0.017016 -0.077159 0.002384
v -0.091542 -0.108164 0.008177
v -0.008490 -0.076134 0.001308
v 0.024402 -0.079146 -0.001035
v -0.014681 -0.078940 0.000270
v -0.091565 -0.108119 0.010686
v -0.091003 -0.108467 0.012492
v -0.005161 -0.077192 0.022949
v -0.002276 -0.077237 0.024984
v -0.002276 -0.079236 0.025618
v -0.089147 -0.108022 0.012945
v -0.089147 -0.110260 0.014123
v 0.000838 -0.076689 0.025292
v 0.024402 -0.073032 0.025842
v 0.022546 -0.073032 0.025982
v 0.007028 -0.076134 0.025801
v 0.010141 -0.076134 0.026003
v -0.090344 -0.108783 0.006109
v -0.092452 -0.109235 0.007319
v -0.094523 -0.110854 0.007586
v -0.093110 -0.109454 0.010686
v 0.024402 -0.082410 -0.000865
v 0.022546 -0.082339 -0.001102
v 0.019433 -0.082339 -0.001280
v 0.016344 -0.082339 -0.001247
v -0.016441 -0.080668 -0.000218
v -0.014681 -0.080488 -0.000229
v -0.092248 -0.110796 0.005494
v -0.093948 -0.111615 0.012371
v -0.092116 -0.110454 0.012897
v 0.000838 -0.079236 0.025952
v -0.086034 -0.110260 0.014625
v -0.089147 -0.113369 0.014121
v -0.092248 -0.113369 0.013565
v 0.024402 -0.073986 0.025542
v 0.013243 -0.076134 0.025925
v 0.003939 -0.079236 0.025850
v -0.094152 -0.111409 0.005745
v -0.094355 -0.111009 0.010686
v -0.096990 -0.114724 0.005880
v -0.096080 -0.113066 0.007586
v 0.024402 -0.083790 -0.000269
v -0.040473 -0.124534 -0.000415
v -0.042604 -0.124947 -0.000687
v -0.042604 -0.122664 -0.001336
v -0.045705 -0.122664 -0.001439
v -0.064325 -0.125766 -0.001536
v -0.042604 -0.100960 -0.001334
v -0.039491 -0.097864 -0.001094
v -0.026140 -0.086654 -0.000309
v -0.094427 -0.117368 0.002661
v -0.096990 -0.114698 0.009347
v -0.094284 -0.113369 0.012608
v -0.002276 -0.082178 0.025284
v -0.036413 -0.119555 0.016692
v 0.000838 -0.081816 0.025308
v -0.092248 -0.116459 0.013113
v -0.039491 -0.119555 0.016455
v -0.094379 -0.116459 0.012622
v -0.094080 -0.118536 0.012387
v 0.024402 -0.075121 0.025071
v -0.095421 -0.116388 0.003740
v -0.095242 -0.113569 0.005257
v -0.097289 -0.116459 0.005360
v -0.097576 -0.116459 0.007586
v -0.097038 -0.114614 0.007586
v 0.024402 -0.083984 -0.000059
v 0.024271 -0.083938 -0.000218
v -0.038425 -0.123792 0.000235
v -0.039467 -0.125115 0.001313
v -0.042616 -0.126540 0.001437
v -0.045705 -0.126882 0.000440
v -0.048004 -0.127127 0.000033
v -0.050076 -0.127353 -0.000215
v -0.045705 -0.125334 -0.000862
v -0.051884 -0.125766 -0.001132
v -0.055009 -0.125766 -0.001320
v -0.058098 -0.125766 -0.001425
v -0.061212 -0.125766 -0.001495
v -0.079831 -0.128869 -0.001514
v -0.082944 -0.128869 -0.001493
v -0.089147 -0.126095 -0.000522
v -0.042436 -0.097883 -0.000684
v -0.090907 -0.126656 -0.000280
v -0.094834 -0.119561 0.002394
v -0.096379 -0.119561 0.003376
v -0.097169 -0.116459 0.009613
v -0.095924 -0.116459 0.011166
v -0.092404 -0.126031 0.009848
v -0.039491 -0.121516 0.015679
v -0.036413 -0.121445 0.015646
v -0.033492 -0.119594 0.016142
v -0.092248 -0.122664 0.011080
v -0.095218 -0.119568 0.011358
v -0.097289 -0.119561 0.009692
v -0.097145 -0.121832 0.009449
v -0.095541 -0.122780 0.010217
v -0.094655 -0.125173 0.009729
v 0.024402 -0.075741 0.024176
v -0.034653 -0.121206 0.015458
v -0.030905 -0.118587 0.015830
v -0.025290 -0.115091 0.015555
v -0.097517 -0.119561 0.004928
v -0.097924 -0.119561 0.007586
v 0.024402 -0.084706 0.001359
v -0.037503 -0.124566 0.002303
v -0.043646 -0.127501 0.002510
v -0.045705 -0.127778 0.001990
v -0.048938 -0.127920 0.001192
v -0.059164 -0.130494 0.002764
v -0.068935 -0.130423 -0.000175
v -0.051884 -0.127488 -0.000339
v -0.055009 -0.127708 -0.000528
v -0.058098 -0.127933 -0.000673
v -0.073629 -0.128869 -0.001288
v -0.076718 -0.128869 -0.001433
v -0.079831 -0.131132 -0.000722
v -0.082944 -0.131197 -0.000757
v -0.086034 -0.130926 -0.000565
v -0.086034 -0.128869 -0.001191
v -0.090907 -0.127624 -0.000280
v -0.094930 -0.122664 0.002087
v -0.096487 -0.122664 0.003653
v -0.093565 -0.127243 0.009061
v -0.091494 -0.127579 0.009282
v -0.086034 -0.131410 0.006885
v -0.082944 -0.131461 0.006772
v -0.036413 -0.122264 0.013784
v -0.082944 -0.133009 0.004653
v -0.079855 -0.132919 0.004273
v -0.070527 -0.131500 0.004484
v -0.059164 -0.130494 0.003101
v -0.097361 -0.122780 0.007608
v -0.096726 -0.123896 0.008657
v 0.024402 -0.076353 0.023057
v -0.034222 -0.121438 0.013784
v -0.032666 -0.120587 0.013784
v -0.028834 -0.117884 0.014627
v -0.043646 -0.127501 0.003419
v 0.024402 -0.084899 0.004562
v -0.016165 -0.108764 0.015412
v -0.097265 -0.122664 0.005206
v -0.097014 -0.124508 0.005656
v -0.037491 -0.124547 0.004486
v -0.039491 -0.125515 0.004486
v -0.080897 -0.133577 0.002818
v -0.070527 -0.131468 0.001381
v -0.067713 -0.130978 0.001224
v -0.073629 -0.131894 0.001381
v -0.076718 -0.132300 0.001381
v -0.079855 -0.132816 0.001621
v -0.070527 -0.130539 -0.000285
v -0.073629 -0.130739 -0.000468
v -0.076718 -0.130932 -0.000611
v -0.082944 -0.132738 0.001270
v -0.087937 -0.130616 -0.000323
v -0.085782 -0.132590 0.001672
v -0.089051 -0.128746 -0.000544
v -0.090021 -0.129694 0.000262
v -0.092092 -0.128720 0.001402
v -0.094092 -0.127746 0.002543
v -0.094583 -0.125766 0.002128
v -0.096080 -0.125631 0.004567
v -0.094451 -0.128043 0.006996
v -0.091230 -0.130720 0.006424
v -0.089147 -0.131100 0.006780
v -0.085782 -0.132984 0.004206
v -0.045705 -0.127778 0.003953
v -0.084573 -0.133538 0.002985
v -0.082944 -0.133571 0.003098
v -0.080897 -0.133577 0.003101
v -0.097014 -0.124508 0.006589
v 0.024402 -0.084300 0.005982
v -0.029995 -0.118865 0.013668
v -0.094511 -0.128191 0.004484
v -0.082944 -0.133571 0.002820
v -0.084573 -0.133538 0.002899
v -0.089051 -0.131313 0.001327
v -0.091206 -0.130829 0.002330
v -0.093038 -0.129739 0.004484
v -0.091482 -0.130952 0.004484
v -0.089147 -0.132074 0.004484
f 1 2 8
f 1 8 19
f 1 19 35
f 1 35 54
f 1 54 75
f 1 75 101
f 1 101 139
f 1 139 175
f 1 175 213
f 1 213 180
f 1 180 145
f 1 145 107
f 1 107 82
f 1 82 62
f 1 62 44
f 1 44 25
f 1 25 23
f 1 23 9
f 1 9 3
f 1 3 4
f 1 4 5
f 1 5 6
f 1 6 7
f 1 7 2
f 2 7 8
f 3 9 10
f 3 10 11
f 3 11 4
f 4 11 12
f 4 12 5
f 5 13 7
f 5 7 6
f 5 12 14
f 5 14 13
f 7 13 15
f 7 15 16
f 7 16 17
f 7 17 18
f 7 18 8
f 8 18 20
f 8 20 21
f 8 21 22
f 8 22 19
f 9 23 10
f 10 24 11
f 10 23 25
f 10 25 24
f 11 24 12
f 12 24 26
f 12 26 27
f 12 27 14
f 13 14 15
f 14 27 28
f 14 28 29
f 14 29 30
f 14 30 15
f 15 30 31
f 15 31 17
f 15 17 16
f 17 32 18
f 17 31 30
f 17 30 33
f 17 33 32
f 18 32 34
f 18 34 20
f 19 22 36
f 19 36 37
f 19 37 35
f 20 34 21
f 21 34 38
f 21 38 36
f 21 36 22
f 24 39 40
f 24 40 41
f 24 41 42
f 24 42 26
f 24 25 43
f 24 43 39
f 25 44 45
f 25 45 43
f 26 42 28
f 26 28 27
f 28 42 46
f 28 46 47
f 28 47 48
f 28 48 29
f 29 48 30
f 30 48 33
f 32 33 49
f 32 49 34
f 33 50 49
f 33 48 47
f 33 47 51
f 33 51 52
f 33 52 50
f 34 49 53
f 34 53 38
f 35 37 55
f 35 55 54
f 36 38 56
f 36 56 37
f 37 56 57
f 37 57 55
f 38 53 56
f 39 43 45
f 39 45 40
f 40 45 58
f 40 58 41
f 41 58 42
f 42 58 59
f 42 59 60
f 42 60 61
f 42 61 46
f 44 62 63
f 44 63 64
f 44 64 65
f 44 65 66
f 44 66 67
f 44 67 45
f 45 67 66
f 45 66 68
f 45 68 58
f 46 61 47
f 47 61 69
f 47 69 70
f 47 70 52
f 47 52 51
f 49 50 53
f 50 71 53
f 50 52 72
f 50 72 73
f 50 73 71
f 52 70 74
f 52 74 73
f 52 73 72
f 53 71 56
f 54 55 76
f 54 76 77
f 54 77 75
f 55 57 71
f 55 71 76
f 56 71 57
f 58 68 78
f 58 78 59
f 59 78 60
f 60 79 61
f 60 78 80
f 60 80 81
f 60 81 79
f 61 79 69
f 62 82 83
f 62 83 84
f 62 84 85
f 62 85 63
f 63 85 64
f 64 85 86
f 64 86 87
f 64 87 88
f 64 88 65
f 65 88 66
f 66 88 89
f 66 89 90
f 66 90 91
f 66 91 68
f 68 91 78
f 69 79 92
f 69 92 93
f 69 93 74
f 69 74 70
f 71 73 94
f 71 94 95
f 71 95 96
f 71 96 77
f 71 77 76
f 73 74 97
f 73 97 98
f 73 98 95
f 73 95 94
f 74 93 99
f 74 99 100
f 74 100 97
f 75 77 95
f 75 95 101
f 77 96 95
f 78 91 102
f 78 102 103
f 78 103 80
f 79 81 92
f 80 103 102
f 80 102 104
f 80 104 105
f 80 105 106
f 80 106 81
f 81 106 92
f 82 107 108
f 82 108 83
f 83 109 110
f 83 110 111
f 83 111 112
f 83 112 84
f 83 108 109
f 84 112 113
f 84 113 114
f 84 114 115
f 84 115 85
f 85 115 116
f 85 116 117
f 85 117 118
f 85 118 86
f 86 118 119
f 86 119 87
f 87 119 120
f 87 120 88
f 88 120 121
f 88 121 122
f 88 122 89
f 89 122 123
f 89 123 90
f 90 123 91
f 91 122 124
f 91 124 125
f 91 125 126
f 91 126 102
f 91 123 122
f 92 106 105
f 92 105 127
f 92 127 93
f 93 127 128
f 93 128 99
f 95 98 129
f 95 129 130
f 95 130 131
f 95 131 132
f 95 132 101
f 97 100 98
f 98 100 133
f 98 133 129
f 99 134 100
f 99 128 135
f 99 135 136
f 99 136 134
f 100 134 137
f 100 137 138
f 100 138 129
f 100 129 133
f 101 132 140
f 101 140 141
f 101 141 142
f 101 142 139
f 102 126 104
f 104 143 144
f 104 144 105
f 104 126 143
f 105 144 127
f 107 145 146
f 107 146 109
f 107 109 108
f 109 146 110
f 110 146 147
f 110 147 111
f 111 147 112
f 112 147 148
f 112 148 113
f 113 148 149
f 113 149 114
f 114 149 150
f 114 150 151
f 114 151 152
f 114 152 115
f 115 152 153
f 115 153 154
f 115 154 116
f 116 154 155
f 116 155 117
f 117 155 156
f 117 156 118
f 118 156 120
f 118 120 119
f 120 156 157
f 120 157 158
f 120 158 121
f 121 158 159
f 121 159 160
f 121 160 122
f 122 160 124
f 124 160 161
f 124 161 162
f 124 162 125
f 125 162 126
f 126 162 163
f 126 163 143
f 127 144 135
f 127 135 128
f 129 138 164
f 129 164 165
f 129 165 130
f 130 165 166
f 130 166 167
f 130 167 131
f 131 168 140
f 131 140 132
f 131 167 169
f 131 169 170
f 131 170 171
f 131 171 172
f 131 172 168
f 134 136 137
f 135 144 136
f 136 144 173
f 136 173 174
f 136 174 138
f 136 138 137
f 138 174 164
f 139 142 175
f 140 176 177
f 140 177 178
f 140 178 141
f 140 168 179
f 140 179 176
f 141 178 142
f 142 178 180
f 142 180 181
f 142 181 175
f 143 163 182
f 143 182 144
f 144 182 183
f 144 183 173
f 145 180 146
f 146 180 184
f 146 184 185
f 146 185 179
f 146 179 147
f 147 179 172
f 147 172 150
f 147 150 148
f 148 150 149
f 150 172 211
f 150 211 186
f 150 186 187
f 150 187 188
f 150 188 151
f 151 188 187
f 151 187 189
f 151 189 190
f 151 190 191
f 151 191 192
f 151 192 152
f 152 192 153
f 153 192 193
f 153 193 154
f 154 193 194
f 154 194 155
f 155 194 157
f 155 157 156
f 157 194 191
f 157 191 195
f 157 195 158
f 158 195 159
f 159 196 160
f 159 195 197
f 159 197 196
f 160 196 198
f 160 198 161
f 161 199 200
f 161 200 201
f 161 201 202
f 161 202 162
f 161 198 196
f 161 196 199
f 162 202 163
f 163 203 183
f 163 183 182
f 163 202 203
f 164 174 204
f 164 204 205
f 164 205 206
f 164 206 165
f 165 206 166
f 166 207 169
f 166 169 167
f 166 206 207
f 168 172 208
f 168 208 179
f 169 207 209
f 169 209 210
f 169 210 211
f 169 211 170
f 170 211 172
f 170 172 171
f 172 179 208
f 173 183 212
f 173 212 174
f 174 212 204
f 175 181 213
f 176 185 184
f 176 184 177
f 176 179 185
f 177 214 178
f 177 184 180
f 177 180 214
f 178 214 180
f 180 213 181
f 183 203 215
f 183 215 212
f 186 191 190
f 186 190 189
f 186 189 187
f 186 211 210
f 186 210 216
f 186 216 195
f 186 195 191
f 191 194 193
f 191 193 192
f 195 216 217
f 195 217 197
f 196 218 219
f 196 219 199
f 196 197 218
f 197 217 218
f 199 219 200
f 200 219 201
f 201 215 203
f 201 203 202
f 201 219 215
f 204 215 220
f 204 220 205
f 204 212 215
f 205 221 222
f 205 222 206
f 205 220 221
f 206 222 207
f 207 222 209
f 209 217 216
f 209 216 210
f 209 222 217
f 215 219 220
f 217 222 219
f 217 219 218
f 219 222 221
f 219 221 220
