v -0.005622 0.174133 0.004701
v -0.005622 0.174114 0.004768
v -0.005622 0.174114 0.002107
v -0.047289 0.173679 0.009070
v -0.047289 0.173679 0.009149
v -0.046421 0.173679 0.009149
v -0.005622 0.173732 0.006076
v -0.005622 0.173064 0.000678
v -0.051916 0.170860 0.002665
v -0.051916 0.172026 0.004482
v -0.048517 0.173392 0.007853
v -0.051916 0.172410 0.007586
v -0.053679 0.170732 0.009308
v -0.051916 0.171241 0.009829
v -0.048490 0.172073 0.010555
v -0.047627 0.170772 0.012376
v -0.045708 0.171100 0.012618
v -0.045515 0.172854 0.010385
v -0.005622 0.169425 0.011283
v -0.042610 0.171097 0.012686
v -0.005622 0.172970 0.000555
v -0.051916 0.169015 0.001686
v -0.055014 0.165915 0.000455
v -0.054799 0.169012 0.002130
v -0.053626 0.170644 0.002851
v -0.005622 0.171419 -0.000613
v -0.008474 0.171160 -0.000548
v -0.054129 0.171050 0.004482
v -0.054172 0.171116 0.007586
v -0.044261 0.152029 0.021601
v -0.057190 0.168209 0.006844
v -0.057791 0.165915 0.007346
v -0.054199 0.169015 0.009575
v -0.042610 0.152239 0.021764
v -0.039506 0.152545 0.022006
v -0.036402 0.152817 0.022171
v -0.020884 0.155808 0.022101
v -0.005622 0.158678 0.021960
v -0.055014 0.164161 -0.000155
v -0.057099 0.162282 -0.000432
v -0.057046 0.167974 0.002451
v -0.055684 0.169959 0.004482
v -0.005622 0.169015 -0.000878
v -0.008474 0.169015 -0.000920
v -0.011578 0.169015 -0.000857
v -0.014682 0.169015 -0.000755
v -0.023987 0.168175 -0.000585
v -0.057394 0.168406 0.004482
v -0.044298 0.150404 0.021622
v -0.042610 0.150404 0.022094
v -0.039506 0.150404 0.022613
v -0.048002 0.152832 0.018979
v -0.048147 0.150404 0.019163
v -0.045847 0.150404 0.020715
v -0.059077 0.165699 0.004650
v -0.059645 0.164230 0.005797
v -0.059833 0.162163 0.006234
v -0.051085 0.153508 0.016264
v -0.056022 0.165915 0.008896
v -0.023987 0.153508 0.022699
v -0.008474 0.156609 0.022525
v -0.005622 0.158531 0.022015
v -0.057501 0.159706 -0.000601
v -0.059050 0.159706 0.000406
v -0.058128 0.163117 0.000632
v -0.058096 0.165699 0.001930
v -0.030200 0.165915 -0.000774
v -0.027102 0.165915 -0.000869
v -0.055014 0.159706 -0.000743
v -0.059747 0.164523 0.002772
v -0.005622 0.167074 -0.000439
v -0.051835 0.142198 -0.000783
v -0.055014 0.150404 -0.000937
v -0.055014 0.153508 -0.000957
v -0.023987 0.165911 -0.000899
v -0.026475 0.165915 -0.000876
v -0.044245 0.148766 0.021592
v -0.042610 0.148331 0.021878
v -0.039506 0.147884 0.022155
v -0.036402 0.150404 0.022783
v -0.047697 0.148397 0.018865
v -0.049702 0.150404 0.017530
v -0.059747 0.164523 0.003728
v -0.059994 0.163042 0.004650
v -0.060374 0.159706 0.004482
v -0.059903 0.159706 0.006309
v -0.059785 0.156609 0.006162
v -0.020884 0.153508 0.022785
v -0.005622 0.156609 0.022641
v -0.055014 0.156609 -0.000883
v -0.057533 0.156609 -0.000636
v -0.059077 0.157634 0.000457
v -0.060144 0.159706 0.001958
v -0.059951 0.162810 0.002384
v -0.039506 0.162810 -0.000829
v -0.005622 0.159616 0.007507
v -0.030602 0.142198 0.007974
v -0.031503 0.142198 0.007467
v -0.033299 0.142198 0.006532
v -0.050163 0.142198 -0.000297
v -0.050645 0.142198 -0.000460
v -0.053170 0.142198 -0.000783
v -0.055014 0.147303 -0.000864
v -0.057330 0.153508 -0.000606
v -0.042819 0.146599 0.019938
v -0.045451 0.147931 0.019938
v -0.039506 0.146337 0.020601
v -0.036402 0.147937 0.022160
v -0.033299 0.150404 0.022811
v -0.056863 0.142198 0.006325
v -0.059672 0.155036 0.006041
v -0.060171 0.157634 0.002840
v -0.060246 0.157631 0.004484
v -0.060096 0.157634 0.002009
v -0.060176 0.156609 0.004484
v -0.017785 0.153508 0.022765
v -0.005622 0.156334 0.022613
v -0.014682 0.153508 0.022683
v -0.059088 0.156609 0.000483
v -0.059436 0.157634 0.000969
v -0.005622 0.153133 0.014612
v -0.006630 0.151920 0.015301
v -0.005622 0.151642 0.016634
v -0.005622 0.151595 0.016790
v -0.029836 0.142198 0.009764
v -0.054901 0.142198 -0.000664
v -0.057099 0.150404 -0.000518
v -0.041924 0.145562 0.018865
v -0.035341 0.142198 0.015917
v -0.033299 0.148165 0.022094
v -0.030200 0.150404 0.022699
v -0.057587 0.142198 0.004484
v -0.055014 0.142198 0.007183
v -0.059828 0.153802 0.004345
v -0.059731 0.151635 0.003219
v -0.060069 0.156609 0.002032
v -0.059865 0.153508 0.002463
v -0.059731 0.151635 0.002779
v -0.005622 0.153770 0.022220
v -0.011578 0.153508 0.022518
v -0.058884 0.153508 0.000911
v -0.056858 0.147303 -0.000385
v -0.056692 0.144996 -0.000269
v -0.056477 0.142926 -0.000106
v -0.005622 0.151516 0.019261
v -0.029509 0.142198 0.010690
v -0.055764 0.142198 -0.000334
v -0.033990 0.142198 0.015687
v -0.027102 0.148675 0.021711
v -0.030200 0.148409 0.021936
v -0.014682 0.151407 0.021992
v -0.017785 0.151154 0.022118
v -0.057453 0.142198 0.002691
v -0.057255 0.142198 0.001476
v -0.011578 0.151660 0.021811
v -0.009348 0.151842 0.021652
v -0.005622 0.153586 0.022122
v -0.056381 0.142198 -0.000011
v -0.005622 0.151532 0.019528
v -0.030667 0.142198 0.013584
v -0.032441 0.142198 0.015136
v -0.007273 0.152048 0.021429
v -0.025392 0.148828 0.021571
v -0.026475 0.148728 0.021659
v -0.005622 0.152235 0.021071
f 1 2 7
f 1 7 19
f 1 19 38
f 1 38 62
f 1 62 89
f 1 89 117
f 1 117 139
f 1 139 157
f 1 157 165
f 1 165 159
f 1 159 145
f 1 145 124
f 1 124 123
f 1 123 121
f 1 121 96
f 1 96 71
f 1 71 43
f 1 43 26
f 1 26 21
f 1 21 8
f 1 8 3
f 1 3 4
f 1 4 5
f 1 5 6
f 1 6 2
f 2 6 7
f 3 8 9
f 3 9 10
f 3 10 11
f 3 11 4
f 4 11 5
f 5 11 12
f 5 12 13
f 5 13 14
f 5 14 15
f 5 15 16
f 5 16 17
f 5 17 18
f 5 18 6
f 6 18 7
f 7 18 20
f 7 20 19
f 8 21 9
f 9 22 23
f 9 23 24
f 9 24 25
f 9 25 10
f 9 21 26
f 9 26 27
f 9 27 22
f 10 25 28
f 10 28 12
f 10 12 11
f 12 28 29
f 12 29 13
f 13 30 16
f 13 16 14
f 13 29 31
f 13 31 32
f 13 32 33
f 13 33 30
f 14 16 15
f 16 30 17
f 17 30 34
f 17 34 35
f 17 35 36
f 17 36 37
f 17 37 38
f 17 38 20
f 17 20 18
f 19 20 38
f 22 27 23
f 23 39 40
f 23 40 41
f 23 41 24
f 23 27 39
f 24 41 25
f 25 41 42
f 25 42 28
f 26 43 44
f 26 44 45
f 26 45 46
f 26 46 47
f 26 47 27
f 27 47 39
f 28 42 29
f 29 42 48
f 29 48 31
f 30 49 50
f 30 50 51
f 30 51 34
f 30 33 52
f 30 52 53
f 30 53 54
f 30 54 49
f 31 48 55
f 31 55 56
f 31 56 32
f 32 56 57
f 32 57 58
f 32 58 59
f 32 59 33
f 33 59 58
f 33 58 52
f 34 51 35
f 35 51 36
f 36 51 60
f 36 60 37
f 37 60 61
f 37 61 62
f 37 62 38
f 39 47 40
f 40 63 64
f 40 64 65
f 40 65 66
f 40 66 41
f 40 47 67
f 40 67 68
f 40 68 69
f 40 69 63
f 41 48 42
f 41 66 70
f 41 70 48
f 43 71 72
f 43 72 44
f 44 72 73
f 44 73 74
f 44 74 75
f 44 75 76
f 44 76 68
f 44 68 45
f 45 68 67
f 45 67 46
f 46 67 47
f 48 70 55
f 49 77 50
f 49 54 77
f 50 77 78
f 50 78 51
f 51 79 80
f 51 80 60
f 51 78 79
f 52 58 53
f 53 81 77
f 53 77 54
f 53 58 82
f 53 82 81
f 55 70 83
f 55 83 56
f 56 83 84
f 56 84 57
f 57 84 85
f 57 85 86
f 57 86 58
f 58 86 87
f 58 87 82
f 60 88 89
f 60 89 61
f 60 80 88
f 61 89 62
f 63 69 90
f 63 90 74
f 63 74 91
f 63 91 64
f 64 92 93
f 64 93 94
f 64 94 65
f 64 91 92
f 65 94 70
f 65 70 66
f 68 76 90
f 68 90 95
f 68 95 69
f 69 95 90
f 70 94 84
f 70 84 83
f 71 96 97
f 71 97 98
f 71 98 99
f 71 99 100
f 71 100 101
f 71 101 72
f 72 101 100
f 72 100 99
f 72 99 98
f 72 98 97
f 72 97 125
f 72 125 146
f 72 146 160
f 72 160 161
f 72 161 148
f 72 148 129
f 72 129 133
f 72 133 110
f 72 110 132
f 72 132 153
f 72 153 154
f 72 154 158
f 72 158 147
f 72 147 126
f 72 126 102
f 72 102 73
f 73 102 103
f 73 103 104
f 73 104 91
f 73 91 74
f 74 90 75
f 75 90 76
f 77 105 78
f 77 81 106
f 77 106 105
f 78 105 107
f 78 107 79
f 79 107 108
f 79 108 109
f 79 109 80
f 80 109 88
f 81 82 110
f 81 110 106
f 82 87 111
f 82 111 110
f 84 94 85
f 85 112 113
f 85 113 87
f 85 87 86
f 85 94 93
f 85 93 114
f 85 114 112
f 87 113 115
f 87 115 111
f 88 116 89
f 88 109 116
f 89 116 118
f 89 118 117
f 91 104 119
f 91 119 92
f 92 119 120
f 92 120 93
f 93 120 114
f 96 121 97
f 97 121 122
f 97 122 123
f 97 123 124
f 97 124 125
f 102 126 103
f 103 126 104
f 104 126 127
f 104 127 119
f 105 128 107
f 105 106 110
f 105 110 128
f 107 128 129
f 107 129 108
f 108 129 130
f 108 130 131
f 108 131 109
f 109 131 118
f 109 118 116
f 110 111 132
f 110 133 128
f 111 115 134
f 111 134 135
f 111 135 132
f 112 114 136
f 112 136 113
f 113 136 115
f 114 120 119
f 114 119 136
f 115 137 138
f 115 138 135
f 115 135 134
f 115 136 137
f 117 118 140
f 117 140 139
f 118 131 140
f 119 141 136
f 119 127 142
f 119 142 143
f 119 143 144
f 119 144 141
f 121 123 122
f 124 145 146
f 124 146 125
f 126 147 143
f 126 143 142
f 126 142 127
f 128 133 129
f 129 148 149
f 129 149 150
f 129 150 130
f 130 150 151
f 130 151 152
f 130 152 131
f 131 152 139
f 131 139 140
f 132 135 138
f 132 138 153
f 136 141 137
f 137 141 144
f 137 144 138
f 138 144 154
f 138 154 153
f 139 152 151
f 139 151 155
f 139 155 156
f 139 156 157
f 143 147 144
f 144 158 154
f 144 147 158
f 145 159 146
f 146 159 160
f 148 161 162
f 148 162 156
f 148 156 163
f 148 163 164
f 148 164 149
f 149 164 156
f 149 156 150
f 150 156 155
f 150 155 151
f 156 162 157
f 156 164 163
f 157 162 165
f 159 165 161
f 159 161 160
f 161 165 162
