# https://github.com/mikedh/trimesh
v -0.01202400 0.22627300 0.01384400
v -0.01216200 0.22632800 0.01385300
v -0.01230000 0.22557600 0.01373700
v -0.01143200 0.22603700 -0.01523000
v -0.01525600 0.22756300 0.01400700
v -0.01366300 0.22208300 0.01247000
v -0.01317700 0.22333200 0.01300700
v -0.01254500 0.22495400 0.01363900
v -0.01178900 0.22514700 -0.01514600
v -0.01597300 0.22784900 -0.01563900
v -0.01835200 0.22879800 0.01414800
v -0.01409100 0.22086400 0.00998200
v -0.01209000 0.22440400 -0.01495700
v -0.04242400 0.21531400 -0.01752700
v -0.02390200 0.22590200 -0.01630800
v -0.01905900 0.22908000 -0.01584100
v -0.02144400 0.23003100 0.01419400
v -0.03710400 0.21945500 0.01455400
v -0.02885100 0.22429400 0.01441400
v -0.01406100 0.22074200 0.00664800
v -0.01233400 0.22380400 -0.01477100
v -0.04240200 0.21537100 -0.01752000
v -0.03685300 0.22032500 -0.01708600
v -0.03253400 0.22218400 -0.01690900
v -0.02267600 0.22899500 -0.01600600
v -0.02221900 0.23034000 -0.01581800
v -0.02276300 0.23055800 0.01414100
v -0.02761500 0.22738300 0.01427900
v -0.03953600 0.21934000 0.01444800
v -0.01385800 0.22046400 -0.00665700
v -0.01389000 0.22045900 -0.00537600
v -0.01394100 0.22045200 -0.00332900
v -0.01257700 0.22322100 -0.01435600
v -0.01322800 0.22165500 -0.01321400
v -0.01352900 0.22101600 -0.01125800
v -0.01372500 0.22060100 -0.00998400
v -0.04117800 0.21846500 -0.01708600
v -0.03563000 0.22341900 -0.01662300
v -0.03131000 0.22527500 -0.01650600
v -0.02699400 0.22713500 -0.01628200
v -0.02591600 0.23059400 -0.01571200
v -0.02507300 0.23147900 -0.01557300
v -0.02453100 0.23126300 0.01402700
v -0.02637700 0.23047100 0.01400500
v -0.02584800 0.23178800 0.01385100
v -0.03069500 0.22861200 0.01383900
v -0.03625300 0.22366700 0.01401500
v -0.02945000 0.23169700 0.01327900
v -0.03500700 0.22675000 0.01332300
v -0.03166800 0.23258200 0.01193900
v -0.03705500 0.22756700 0.01187700
v -0.01379300 0.22053100 -0.00829100
v -0.04206600 0.22172400 -0.01585000
v -0.04013400 0.22194000 -0.01629600
v -0.03527300 0.22841700 -0.01538800
v -0.03455000 0.22678900 -0.01593600
v -0.03274900 0.22874500 -0.01564800
v -0.03024600 0.22873500 -0.01585800
v -0.02850100 0.23063800 -0.01556100
v -0.02655000 0.23206800 -0.01536600
v -0.02760700 0.23249000 0.01343300
v -0.02896700 0.23303200 0.01285300
v -0.03024200 0.23354100 0.01208300
v -0.03086600 0.23379000 0.01168800
v -0.03590800 0.22929200 0.01137900
v -0.04263700 0.22162600 0.01151900
v -0.04665200 0.21786200 -0.01063200
v -0.04494000 0.21996600 -0.01061400
v -0.04267100 0.22264600 -0.01058900
v -0.04094100 0.22432100 -0.01323600
v -0.04088600 0.22364100 -0.01544800
v -0.03543600 0.22985200 -0.01318400
v -0.03072000 0.23373100 -0.01307000
v -0.02949600 0.23324300 -0.01396300
v -0.02861500 0.23289200 -0.01458200
v -0.02902800 0.23183600 -0.01509400
v -0.03097900 0.23042400 -0.01538700
v -0.02694700 0.23222600 -0.01528800
v -0.03116700 0.23391000 0.01079600
v -0.03136700 0.23399000 0.00951400
v -0.03249300 0.23291100 0.00950000
v -0.03587000 0.22966900 0.00945800
v -0.03764400 0.22780200 0.00943700
v -0.04002000 0.22517000 0.00941000
v -0.04143400 0.22353200 0.00939400
v -0.04459800 0.21982900 0.00936000
v -0.04683900 0.21714100 0.00933600
v -0.04695400 0.21712100 0.00600800
v -0.04469300 0.21986700 0.00603200
v -0.04098500 0.22456500 -0.01057100
v -0.04250300 0.22244500 0.00605600
v -0.04135200 0.22377800 0.00606800
v -0.03980000 0.22588200 -0.01055700
v -0.03792500 0.22791400 -0.01053600
v -0.03549300 0.23043300 -0.01050700
v -0.03421600 0.23171300 -0.01049100
v -0.03277400 0.23302300 -0.01047200
v -0.03156400 0.23406800 -0.01045600
v -0.03144000 0.23401900 0.00797700
v -0.03454700 0.23119900 0.00614600
v -0.03579400 0.22990700 0.00613100
v -0.03771500 0.22783000 0.00610900
v -0.04008800 0.22519700 0.00608200
v -0.03428400 0.23161400 -0.00716300
v -0.03276800 0.23302100 -0.00714300
v -0.03157700 0.23407300 -0.00893600
v -0.03147500 0.23403300 0.00618600
v -0.03265600 0.23297600 0.00617000
v -0.03157300 0.23407200 -0.00712800
v -0.06303400 0.18917700 0.00590700
v -0.06154700 0.18858300 0.00594200
v -0.06275400 0.18924700 0.00924100
v -0.06313800 0.19140500 0.00921600
v -0.06340300 0.19151000 0.00588100
v -0.06268200 0.19087900 -0.01097700
v -0.06225800 0.18914200 -0.01000800
v -0.05969100 0.18874400 0.00597900
v -0.06010400 0.18892300 0.00929800
v -0.06190100 0.18890600 0.00926100
v -0.06180400 0.18896100 -0.00999700
v -0.06249500 0.18931800 0.01105900
v -0.06267100 0.19109400 0.01231100
v -0.06227100 0.19464100 0.01253500
v -0.06249200 0.19472900 0.00920200
v -0.06252900 0.19474400 0.00587200
v -0.06256900 0.19475900 -0.01076500
v -0.06253200 0.19474500 -0.01409300
v -0.06261800 0.19129400 -0.01406600
v -0.06206000 0.19157300 -0.01738600
v -0.05961200 0.19020600 -0.01732500
v -0.05776100 0.18977800 0.00933800
v -0.05779700 0.19005000 0.01266300
v -0.06034200 0.18924600 -0.01091600
v -0.06000300 0.18942100 -0.01399800
v -0.05727900 0.19002900 -0.01394800
v -0.06083500 0.18954700 0.01236100
v -0.06229600 0.18923800 0.01106400
v -0.06006900 0.19096400 0.01490600
v -0.06211500 0.19198200 0.01472500
v -0.06051400 0.19752200 0.01254700
v -0.06080000 0.19763600 0.00921300
v -0.06137000 0.19428100 0.01490100
v -0.05985400 0.19725800 0.01470100
v -0.05868100 0.19949100 0.01445900
v -0.06085900 0.19765900 0.00588200
v -0.06083700 0.19765000 -0.01075300
v -0.06078900 0.19763100 -0.01408100
v -0.06186700 0.19447900 -0.01740600
v -0.06122500 0.19193200 -0.01933100
v -0.05916800 0.19120600 -0.01923100
v -0.05746800 0.19089400 -0.01898100
v -0.05733400 0.19049100 -0.01728100
v -0.05797700 0.19060000 0.01465500
v -0.05912000 0.19338400 0.01558700
v -0.05851200 0.20049400 0.01271600
v -0.05736500 0.20250500 0.01171500
v -0.05897800 0.20049100 0.00922600
v -0.05906000 0.20052400 0.00589600
v -0.05788500 0.19647300 0.01547700
v -0.05161300 0.20829900 0.01446900
v -0.05076300 0.20983000 0.01432600
v -0.05750600 0.20141000 0.01394000
v -0.05902600 0.20051000 -0.01073900
v -0.05899100 0.20049600 -0.01406700
v -0.05561400 0.20527000 -0.01605400
v -0.06007800 0.19734800 -0.01739300
v -0.05906600 0.19694400 -0.01927500
v -0.06059000 0.19397000 -0.01945100
v -0.05840500 0.19309800 -0.01956100
v -0.05665000 0.19239800 -0.01910300
v -0.05676200 0.19244300 0.01495700
v -0.05232400 0.20142200 0.01529900
v -0.04940800 0.21348300 0.01145600
v -0.05313500 0.20890600 0.00927700
v -0.05512300 0.20611700 0.00925900
v -0.05626900 0.20448600 0.00924900
v -0.05723200 0.20308400 0.00924100
v -0.05697300 0.20359600 0.00598200
v -0.05715200 0.20334800 -0.01072400
v -0.05109000 0.20450800 0.01516800
v -0.04517100 0.21510900 0.01442800
v -0.05714300 0.20334400 -0.01405300
v -0.05560200 0.20562100 -0.01404000
v -0.05324100 0.20894800 -0.01401900
v -0.05125800 0.21173900 -0.01400100
v -0.04767400 0.21599900 -0.01575200
v -0.04868300 0.21429400 -0.01610700
v -0.05807300 0.19870300 -0.01909400
v -0.05670400 0.20316900 -0.01656900
v -0.05717400 0.19618900 -0.01948200
v -0.04825500 0.21538100 0.00932400
v -0.04931000 0.21400900 0.00931300
v -0.05109200 0.21167300 0.00929600
v -0.05115900 0.21170000 0.00596600
v -0.05318500 0.20892600 0.00594700
v -0.05534300 0.20590200 0.00599700
v -0.05618800 0.20468800 0.00714600
v -0.05612300 0.20481400 0.00492500
v -0.05327600 0.20896200 -0.01069100
v -0.05568700 0.20549800 -0.01071200
v -0.05130800 0.21175900 -0.01067400
v -0.04918300 0.21449300 -0.01398200
v -0.04924800 0.21451900 -0.01065400
v -0.04767400 0.21640300 -0.01396600
v -0.04815800 0.21562400 0.00599500
v -0.04922500 0.21425700 0.00598400
v -0.04772400 0.21649700 -0.01063900
v -0.04716900 0.21720400 -0.01063400
f 5 1 4
f 106 109 98
f 4 1 8
f 27 109 80
f 80 64 27
f 117 135 131
f 120 116 130
f 115 110 114
f 116 110 115
f 10 5 4
f 27 5 10
f 75 60 78
f 75 98 109
f 75 42 60
f 75 109 27
f 27 10 75
f 75 10 16
f 16 42 75
f 55 72 73
f 72 98 73
f 98 75 73
f 163 164 146
f 163 146 158
f 50 181 49
f 181 48 49
f 27 64 61
f 131 32 20
f 20 12 131
f 32 12 20
f 131 12 132
f 132 12 153
f 132 117 131
f 153 12 6
f 6 12 32
f 1 5 2
f 2 154 1
f 5 154 2
f 1 154 171
f 153 8 171
f 171 154 153
f 11 5 27
f 11 154 5
f 160 159 181
f 161 160 181
f 50 64 51
f 51 181 50
f 51 161 181
f 133 117 120
f 114 110 113
f 120 117 111
f 111 116 120
f 111 110 116
f 137 121 112
f 112 113 110
f 129 130 116
f 127 148 129
f 31 32 131
f 166 148 165
f 168 148 167
f 148 166 167
f 167 166 188
f 54 53 55
f 54 188 53
f 16 10 15
f 74 75 55
f 55 73 74
f 74 73 75
f 71 70 72
f 71 72 55
f 55 53 71
f 187 188 165
f 53 188 187
f 165 164 182
f 182 164 163
f 126 146 127
f 126 127 114
f 127 146 147
f 147 146 164
f 147 164 165
f 165 148 147
f 147 148 127
f 140 156 157
f 48 61 62
f 62 49 48
f 117 132 118
f 118 111 117
f 7 8 153
f 153 6 7
f 7 6 32
f 7 9 4
f 4 8 7
f 3 8 1
f 1 171 3
f 3 171 8
f 17 11 27
f 154 11 17
f 107 80 109
f 64 80 79
f 65 79 80
f 65 51 64
f 64 79 65
f 135 117 134
f 117 133 134
f 120 130 134
f 134 133 120
f 153 154 138
f 154 139 138
f 138 121 137
f 138 139 121
f 121 139 122
f 122 112 121
f 113 112 122
f 154 159 142
f 142 139 154
f 123 124 114
f 114 113 123
f 139 142 123
f 113 122 123
f 123 122 139
f 144 140 123
f 110 111 119
f 119 112 110
f 137 112 119
f 119 118 137
f 111 118 119
f 130 150 151
f 151 150 169
f 116 115 128
f 128 129 116
f 127 129 128
f 114 127 128
f 128 115 114
f 149 150 130
f 130 129 149
f 149 168 169
f 169 150 149
f 149 148 168
f 149 129 148
f 36 52 135
f 165 188 189
f 189 166 165
f 188 166 189
f 76 75 78
f 78 77 76
f 55 75 76
f 76 77 55
f 70 71 186
f 186 71 53
f 53 187 186
f 186 187 165
f 90 70 69
f 69 92 90
f 88 68 67
f 145 158 146
f 146 126 145
f 191 173 87
f 87 88 191
f 176 156 175
f 173 193 174
f 174 156 173
f 174 175 156
f 173 156 162
f 144 161 162
f 162 161 173
f 155 140 144
f 155 156 140
f 144 162 155
f 155 162 156
f 158 157 177
f 177 156 176
f 177 157 156
f 50 49 63
f 49 62 63
f 63 64 50
f 63 61 64
f 63 62 61
f 27 61 43
f 61 45 43
f 43 45 44
f 46 45 61
f 46 61 48
f 137 118 136
f 136 118 132
f 136 132 153
f 153 138 136
f 136 138 137
f 172 159 154
f 154 17 172
f 181 159 180
f 159 172 180
f 106 98 97
f 97 98 72
f 72 96 97
f 89 68 88
f 89 88 87
f 89 69 68
f 80 100 81
f 81 65 80
f 143 142 159
f 159 160 143
f 144 123 143
f 143 123 142
f 143 161 144
f 160 161 143
f 140 157 141
f 141 123 140
f 124 123 141
f 141 145 124
f 141 157 158
f 158 145 141
f 152 134 130
f 130 151 152
f 135 134 152
f 152 36 135
f 152 151 34
f 4 9 170
f 9 151 170
f 170 169 4
f 170 151 169
f 52 36 30
f 30 36 31
f 135 52 30
f 131 135 30
f 30 31 131
f 188 54 37
f 37 54 55
f 16 15 25
f 24 25 15
f 60 42 59
f 78 60 59
f 59 77 78
f 55 77 57
f 77 59 57
f 70 186 204
f 204 69 70
f 68 69 204
f 204 67 68
f 124 145 125
f 125 145 126
f 114 124 125
f 125 126 114
f 192 193 173
f 173 191 192
f 28 43 44
f 27 43 28
f 28 17 27
f 18 180 28
f 47 48 181
f 47 46 48
f 29 47 181
f 46 47 29
f 44 45 29
f 45 46 29
f 181 180 29
f 29 180 18
f 29 28 44
f 18 28 29
f 80 107 99
f 107 108 99
f 99 100 80
f 99 108 100
f 100 108 104
f 105 97 96
f 96 104 105
f 105 104 108
f 105 107 109
f 105 108 107
f 105 109 106
f 106 97 105
f 92 69 91
f 69 89 91
f 91 84 92
f 82 81 100
f 65 81 82
f 65 84 66
f 87 173 66
f 173 161 66
f 51 65 66
f 161 51 66
f 35 152 34
f 36 152 35
f 31 36 35
f 32 31 35
f 35 34 9
f 35 7 32
f 9 7 35
f 9 34 13
f 34 21 13
f 13 151 9
f 13 21 151
f 34 151 33
f 33 21 34
f 151 21 33
f 56 37 55
f 38 37 56
f 55 57 56
f 56 57 38
f 169 168 190
f 168 167 190
f 190 24 15
f 190 167 188
f 190 15 10
f 4 169 190
f 190 10 4
f 14 190 188
f 38 57 58
f 58 57 59
f 58 39 38
f 165 182 183
f 183 184 165
f 183 200 199
f 183 201 184
f 199 201 183
f 176 175 197
f 197 174 195
f 175 174 197
f 185 201 203
f 184 201 185
f 165 184 185
f 185 186 165
f 206 192 191
f 206 207 203
f 193 192 206
f 67 204 202
f 203 207 202
f 202 185 203
f 202 204 186
f 186 185 202
f 19 180 172
f 19 28 180
f 19 172 17
f 17 28 19
f 95 104 96
f 70 94 95
f 95 94 100
f 100 104 95
f 72 70 95
f 95 96 72
f 86 91 89
f 86 89 87
f 87 66 86
f 100 94 101
f 94 102 101
f 101 82 100
f 93 102 94
f 93 70 90
f 93 94 70
f 92 84 103
f 84 102 103
f 90 92 103
f 103 93 90
f 102 93 103
f 188 37 22
f 22 14 188
f 24 190 23
f 190 14 23
f 14 22 23
f 38 39 23
f 23 39 24
f 23 37 38
f 23 22 37
f 26 42 16
f 16 25 26
f 25 24 40
f 24 39 40
f 40 26 25
f 163 158 179
f 179 182 163
f 179 183 182
f 200 183 179
f 199 200 178
f 178 179 158
f 200 179 178
f 158 177 178
f 178 177 176
f 176 197 178
f 195 201 196
f 196 197 195
f 196 178 197
f 205 191 88
f 205 206 191
f 88 67 205
f 207 206 205
f 193 206 194
f 194 174 193
f 195 174 194
f 194 201 195
f 203 201 194
f 194 206 203
f 67 202 208
f 208 202 207
f 208 205 67
f 207 205 208
f 84 91 85
f 91 86 85
f 85 66 84
f 85 86 66
f 82 101 83
f 83 101 102
f 83 102 84
f 83 84 65
f 65 82 83
f 42 26 41
f 26 40 41
f 41 40 39
f 39 58 41
f 41 59 42
f 41 58 59
f 198 201 199
f 199 178 198
f 198 196 201
f 178 196 198

