v -0.008408 0.154862 0.001935
v -0.006070 0.154587 0.007075
v -0.007878 0.155308 -0.003905
v -0.010766 0.057215 -0.002483
v -0.010953 0.052360 -0.001905
v -0.011041 0.055682 0.001392
v -0.010482 0.057619 0.004594
v -0.009813 0.060639 0.006487
v -0.003766 0.153222 0.009107
v -0.000163 0.152230 0.010528
v -0.008615 0.055464 0.008602
v -0.007949 0.047451 0.009855
v -0.007096 0.060095 0.010259
v -0.004105 0.153803 -0.008847
v -0.008125 0.054823 -0.008605
v -0.009575 0.051973 -0.006550
v -0.010535 0.049704 -0.004243
v -0.012296 -0.076027 -0.004217
v -0.012745 -0.075848 -0.000901
v -0.011104 0.050823 0.001430
v -0.012616 -0.075899 0.002428
v -0.011599 -0.078818 0.006575
v -0.010415 0.050783 0.005179
v -0.010255 -0.077193 0.009146
v -0.006389 0.055751 0.010947
v -0.003411 0.056512 0.012863
v -0.002262 0.061617 0.013156
v 0.002913 0.151003 0.011024
v -0.001868 0.055896 0.013464
v 0.000380 0.055000 0.014071
v 0.001005 0.047590 0.014468
v 0.002238 0.050689 0.014594
v -0.007835 0.039353 0.010143
v -0.007292 0.050899 0.010420
v 0.000043 0.152148 -0.010802
v -0.002402 0.048949 -0.013065
v -0.004040 0.060354 -0.011849
v -0.005442 0.057392 -0.011094
v -0.005915 0.053941 -0.010908
v -0.006771 0.057969 -0.010121
v -0.006793 0.049690 -0.010323
v -0.009366 -0.078558 -0.009992
v -0.009560 0.042576 -0.006937
v -0.011543 -0.079873 -0.005656
v -0.012095 -0.081343 0.000921
v -0.008928 -0.080142 0.010323
v -0.009292 -0.083306 0.006389
v -0.005277 -0.078170 0.013850
v -0.005739 0.039526 0.011792
v -0.003415 0.042215 0.013183
v -0.002409 0.045359 0.013560
v 0.006008 0.149769 0.011143
v 0.003466 0.053769 0.014630
v 0.004702 0.056867 0.014611
v 0.005318 0.049461 0.014923
v 0.006547 0.052539 0.014861
v -0.000227 0.044488 0.014248
v 0.001621 0.040182 0.014710
v 0.002847 0.043262 0.014851
v 0.004082 0.046362 0.014919
v -0.007036 0.043635 0.010763
v 0.003228 0.150877 -0.011447
v 0.002190 0.057869 -0.014159
v -0.000027 0.058753 -0.013609
v -0.001355 0.052757 -0.013324
v -0.000848 0.048328 -0.013631
v -0.002027 0.043116 -0.013337
v -0.004483 -0.075552 -0.013970
v -0.003146 0.045652 -0.012738
v -0.004656 0.049848 -0.011802
v -0.006904 -0.077943 -0.012655
v -0.004689 -0.081597 -0.012953
v -0.008889 -0.082928 -0.007985
v -0.009468 -0.083518 -0.004098
v -0.008367 -0.084309 0.002583
v -0.002351 -0.082178 0.013754
v -0.006693 -0.083569 0.009275
v 0.001089 -0.077775 0.016035
v -0.001991 -0.076546 0.015243
v -0.001762 0.041344 0.013827
v 0.007786 0.055637 0.014712
v 0.009109 0.148532 0.010963
v 0.005928 0.042033 0.015083
v 0.007165 0.045132 0.015047
v 0.008404 0.048230 0.014927
v 0.000390 0.037081 0.014479
v 0.004168 -0.079003 0.016432
v 0.003465 0.035855 0.015012
v 0.004700 0.038954 0.015073
v 0.006344 0.149635 -0.011768
v 0.005298 0.056629 -0.014672
v 0.004060 0.053531 -0.014611
v 0.003421 0.060947 -0.014275
v 0.002830 0.050453 -0.014484
v 0.001589 0.047356 -0.014287
v 0.000348 0.044259 -0.014024
v 0.000989 -0.078744 -0.015807
v -0.002233 -0.079713 -0.014740
v -0.000069 -0.082455 -0.014035
v -0.000963 -0.084493 -0.010571
v -0.005334 -0.084298 -0.008327
v -0.006872 -0.084484 -0.000711
v -0.005530 -0.084550 0.002643
v -0.005633 -0.084485 0.005967
v 0.002497 -0.083455 0.014120
v 0.006769 -0.081520 0.015811
v -0.001426 -0.084473 0.009382
v 0.009636 0.051307 0.014739
v 0.012206 0.147296 0.010400
v 0.010877 0.054403 0.014474
v 0.012113 0.057480 0.014111
v 0.005403 -0.075903 0.016494
v 0.008500 -0.077139 0.016495
v 0.009026 0.040797 0.014994
v 0.010266 0.043895 0.014845
v 0.009440 0.148399 -0.011770
v 0.009615 0.058476 -0.014781
v 0.008388 0.055396 -0.014881
v 0.006526 0.059708 -0.014676
v 0.005925 0.049218 -0.014927
v 0.004687 0.046120 -0.014859
v 0.003448 0.043022 -0.014713
v 0.006072 -0.076170 -0.016409
v 0.004423 -0.080279 -0.015994
v 0.003183 -0.084503 -0.011868
v 0.010002 -0.082598 -0.015091
v -0.001120 -0.084689 -0.007246
v -0.005362 -0.084617 -0.004006
v 0.009214 -0.084725 0.009601
v 0.002112 -0.084569 0.009455
v 0.005491 -0.084508 0.010891
v 0.012781 -0.084575 0.010995
v 0.009902 -0.082934 0.014969
v 0.013064 -0.081824 0.015041
v 0.011595 -0.078373 0.016072
v 0.011507 0.046992 0.014602
v 0.015257 0.146079 0.009455
v 0.014470 0.058559 0.013566
v 0.015618 0.054791 0.013367
v 0.012110 0.039567 0.014603
v 0.012518 0.147171 -0.011371
v 0.012697 0.057246 -0.014595
v 0.010848 0.061577 -0.014623
v 0.011473 0.054166 -0.014813
v 0.010240 0.051066 -0.014942
v 0.009013 0.047986 -0.015030
v 0.007778 0.044887 -0.015088
v 0.007153 0.052297 -0.014927
v 0.006542 0.041788 -0.015072
v 0.009172 -0.077407 -0.016540
v 0.012256 -0.078637 -0.016409
v 0.015255 -0.081266 -0.015549
v 0.013532 -0.084475 -0.011726
v 0.016834 -0.084760 -0.010207
v 0.018273 -0.082704 -0.013469
v 0.021327 -0.084908 -0.003461
v 0.021284 -0.084915 -0.000135
v 0.012726 -0.084835 0.003016
v 0.012658 -0.084808 0.006342
v 0.021205 -0.084883 0.003189
v 0.021474 -0.083582 0.008988
v 0.019641 -0.082663 0.011987
v 0.016810 -0.077894 0.014563
v 0.012830 -0.075297 0.015745
v 0.014697 0.038535 0.014032
v 0.019667 0.056580 0.011351
v 0.020061 0.066119 0.010675
v 0.019558 0.144059 0.006572
v 0.022224 0.143300 0.001357
v 0.014806 0.051100 0.013676
v 0.015689 0.044596 0.013605
v 0.018322 0.037089 0.012642
v 0.019573 0.040182 0.011936
v 0.015750 0.145882 -0.010470
v 0.017403 0.056919 -0.013511
v 0.014562 0.052934 -0.014422
v 0.013927 0.060348 -0.014297
v 0.013331 0.049833 -0.014678
v 0.012106 0.046752 -0.014856
v 0.010873 0.043653 -0.014989
v 0.013480 -0.075556 -0.016215
v 0.017784 -0.077438 -0.015288
v 0.021982 -0.078948 -0.012672
v 0.021009 -0.084360 -0.007982
v 0.024112 -0.079282 -0.009795
v 0.024412 -0.083486 -0.003410
v 0.024594 -0.083559 -0.000078
v 0.023850 -0.083262 0.006557
v 0.024440 -0.083497 0.003244
v 0.024322 -0.078638 0.009265
v 0.021530 -0.078768 0.012208
v 0.020201 0.049111 0.011331
v 0.022021 0.052260 0.009867
v 0.023855 0.053946 0.007670
v 0.023937 0.063351 0.006772
v 0.021675 0.138518 0.003564
v 0.022294 0.143272 -0.002074
v 0.025201 0.066510 0.003388
v 0.025686 0.062818 0.002081
v 0.025693 0.067816 -0.000751
v 0.020840 0.036084 0.011220
v 0.019958 0.144204 -0.007446
v 0.022050 0.065607 -0.010232
v 0.020079 0.043572 -0.012577
v 0.017380 0.049462 -0.013694
v 0.015172 0.045529 -0.014404
v 0.017013 0.041203 -0.013956
v 0.020493 0.038430 -0.012381
v 0.023288 -0.075643 -0.011090
v 0.023431 0.043268 -0.009737
v 0.025360 -0.080296 -0.006743
v 0.024142 0.028709 -0.008953
v 0.025582 0.040110 -0.006413
v 0.026086 -0.080585 -0.003399
v 0.026354 -0.080692 -0.000066
v 0.026135 -0.080605 0.003255
v 0.025405 -0.080313 0.006564
v 0.022984 -0.075333 0.010820
v 0.025703 -0.075455 0.006155
v 0.025685 0.040560 0.004852
v 0.024554 0.038570 0.007391
v 0.021704 0.042502 0.010488
v 0.024395 0.057253 0.006481
v 0.025962 0.061135 -0.001225
v 0.025749 0.058262 -0.003946
v 0.025019 0.065526 -0.005534
v 0.024978 0.046408 0.006104
v 0.026058 0.049451 0.002667
v 0.026361 0.049542 -0.001123
v 0.026178 0.055461 -0.001175
v 0.025159 0.057628 -0.006171
v 0.024205 0.054745 -0.008119
v 0.022952 0.060575 -0.009673
v 0.022399 0.056969 -0.010359
v 0.022062 0.051773 -0.010778
v 0.024767 0.046774 -0.007570
v 0.024020 0.037398 -0.009016
v 0.026091 -0.076572 -0.004664
v 0.025931 0.049949 -0.004333
v 0.026114 0.043019 -0.004334
v 0.026153 0.037557 -0.004357
v 0.026061 0.032593 -0.004835
v 0.026570 -0.077186 -0.000090
v 0.026340 -0.077095 0.003230
v 0.026108 0.024849 0.003672
v 0.025907 0.032724 0.004402
v 0.026388 0.030302 0.002359
v 0.026288 0.042903 0.002366
v 0.026538 0.042475 -0.001062
v 0.026134 0.025496 -0.004583
v 0.026501 0.025068 -0.002851
v 0.026466 -0.064606 -0.001871
v 0.026631 0.031755 -0.000973
v 0.026535 0.025218 0.001457
v 0.026355 0.037477 0.002301
f 1 2 3
f 1 3 4
f 1 4 5
f 1 5 6
f 1 6 7
f 1 7 8
f 1 8 2
f 2 9 10
f 2 10 28
f 2 28 52
f 2 52 82
f 2 82 109
f 2 109 137
f 2 137 169
f 2 169 197
f 2 197 202
f 2 202 174
f 2 174 141
f 2 141 116
f 2 116 90
f 2 90 62
f 2 62 35
f 2 35 14
f 2 14 3
f 2 8 11
f 2 11 12
f 2 12 13
f 2 13 9
f 3 14 15
f 3 15 16
f 3 16 17
f 3 17 4
f 4 17 5
f 5 17 18
f 5 18 19
f 5 19 6
f 6 19 20
f 6 20 7
f 7 20 21
f 7 21 22
f 7 22 23
f 7 23 8
f 8 23 22
f 8 22 24
f 8 24 11
f 9 13 25
f 9 25 26
f 9 26 27
f 9 27 10
f 10 27 29
f 10 29 30
f 10 30 31
f 10 31 32
f 10 32 28
f 11 24 12
f 12 24 33
f 12 33 34
f 12 34 13
f 13 34 25
f 14 35 36
f 14 36 37
f 14 37 38
f 14 38 39
f 14 39 40
f 14 40 15
f 15 40 41
f 15 41 42
f 15 42 43
f 15 43 16
f 16 43 17
f 17 43 18
f 18 42 44
f 18 44 19
f 18 43 42
f 19 44 45
f 19 45 21
f 19 21 20
f 21 45 22
f 22 46 24
f 22 45 47
f 22 47 46
f 24 46 48
f 24 48 33
f 25 34 49
f 25 49 26
f 26 49 50
f 26 50 51
f 26 51 27
f 27 51 29
f 28 32 53
f 28 53 54
f 28 54 55
f 28 55 56
f 28 56 52
f 29 31 30
f 29 51 57
f 29 57 31
f 31 57 58
f 31 58 59
f 31 59 32
f 32 59 60
f 32 60 53
f 33 61 34
f 33 48 61
f 34 61 49
f 35 62 63
f 35 63 64
f 35 64 65
f 35 65 36
f 36 66 67
f 36 67 68
f 36 68 69
f 36 69 70
f 36 70 37
f 36 65 66
f 37 70 38
f 38 70 39
f 39 70 71
f 39 71 41
f 39 41 40
f 41 71 42
f 42 71 72
f 42 72 73
f 42 73 44
f 44 73 74
f 44 74 45
f 45 74 75
f 45 75 47
f 46 76 48
f 46 47 77
f 46 77 76
f 47 75 77
f 48 78 79
f 48 79 50
f 48 50 49
f 48 49 61
f 48 76 78
f 50 79 51
f 51 79 80
f 51 80 57
f 52 81 82
f 52 56 81
f 53 60 55
f 53 55 54
f 55 60 83
f 55 83 84
f 55 84 56
f 56 84 85
f 56 85 81
f 57 80 79
f 57 79 78
f 57 78 86
f 57 86 58
f 58 86 78
f 58 78 59
f 59 78 87
f 59 87 88
f 59 88 60
f 60 88 89
f 60 89 83
f 62 90 91
f 62 91 92
f 62 92 93
f 62 93 63
f 63 93 92
f 63 92 94
f 63 94 95
f 63 95 64
f 64 95 66
f 64 66 65
f 66 95 96
f 66 96 97
f 66 97 67
f 67 97 68
f 68 97 98
f 68 98 71
f 68 71 69
f 69 71 70
f 71 98 72
f 72 98 99
f 72 99 100
f 72 100 101
f 72 101 73
f 73 101 74
f 74 101 102
f 74 102 75
f 75 102 103
f 75 103 104
f 75 104 77
f 76 77 105
f 76 105 106
f 76 106 87
f 76 87 78
f 77 104 107
f 77 107 105
f 81 85 108
f 81 108 82
f 82 108 110
f 82 110 111
f 82 111 109
f 83 89 112
f 83 112 84
f 84 112 113
f 84 113 114
f 84 114 85
f 85 114 115
f 85 115 108
f 87 106 113
f 87 113 112
f 87 112 89
f 87 89 88
f 90 116 117
f 90 117 118
f 90 118 119
f 90 119 91
f 91 119 120
f 91 120 92
f 92 120 121
f 92 121 94
f 94 121 122
f 94 122 95
f 95 122 97
f 95 97 96
f 97 122 121
f 97 121 123
f 97 123 124
f 97 124 98
f 98 124 99
f 99 125 100
f 99 124 126
f 99 126 125
f 100 127 128
f 100 128 101
f 100 125 127
f 101 128 102
f 102 128 103
f 103 128 129
f 103 129 104
f 104 129 130
f 104 130 107
f 105 107 131
f 105 131 132
f 105 132 133
f 105 133 106
f 106 133 134
f 106 134 135
f 106 135 113
f 107 130 131
f 108 115 136
f 108 136 110
f 109 111 138
f 109 138 139
f 109 139 137
f 110 136 111
f 111 136 138
f 113 135 115
f 113 115 114
f 115 135 140
f 115 140 136
f 116 141 142
f 116 142 143
f 116 143 117
f 117 143 144
f 117 144 145
f 117 145 118
f 118 145 146
f 118 146 147
f 118 147 148
f 118 148 119
f 119 148 120
f 120 147 149
f 120 149 121
f 120 148 147
f 121 149 123
f 123 149 147
f 123 147 150
f 123 150 124
f 124 150 151
f 124 151 152
f 124 152 126
f 125 126 153
f 125 153 154
f 125 154 127
f 126 152 155
f 126 155 153
f 127 154 156
f 127 156 157
f 127 157 158
f 127 158 128
f 128 158 159
f 128 159 129
f 129 131 130
f 129 159 160
f 129 160 132
f 129 132 131
f 132 160 161
f 132 161 162
f 132 162 133
f 133 162 134
f 134 162 163
f 134 163 135
f 135 163 164
f 135 164 165
f 135 165 140
f 136 140 165
f 136 165 138
f 137 139 166
f 137 166 167
f 137 167 168
f 137 168 169
f 138 165 170
f 138 170 139
f 139 170 165
f 139 165 171
f 139 171 172
f 139 172 173
f 139 173 166
f 141 174 175
f 141 175 176
f 141 176 177
f 141 177 142
f 142 177 176
f 142 176 178
f 142 178 144
f 142 144 143
f 144 178 179
f 144 179 151
f 144 151 180
f 144 180 145
f 145 180 151
f 145 151 150
f 145 150 146
f 146 150 147
f 151 181 182
f 151 182 152
f 151 179 178
f 151 178 181
f 152 182 183
f 152 183 155
f 153 155 154
f 154 155 184
f 154 184 156
f 155 183 185
f 155 185 184
f 156 184 186
f 156 186 187
f 156 187 157
f 157 160 159
f 157 159 158
f 157 187 160
f 160 188 161
f 160 187 189
f 160 189 188
f 161 188 162
f 162 188 190
f 162 190 191
f 162 191 163
f 163 191 172
f 163 172 171
f 163 171 165
f 163 165 164
f 166 173 192
f 166 192 167
f 167 192 193
f 167 193 168
f 168 193 194
f 168 194 195
f 168 195 196
f 168 196 169
f 169 196 198
f 169 198 199
f 169 199 200
f 169 200 197
f 172 191 173
f 173 191 201
f 173 201 192
f 174 202 203
f 174 203 204
f 174 204 175
f 175 204 205
f 175 205 176
f 176 205 206
f 176 206 181
f 176 181 178
f 181 206 182
f 182 206 207
f 182 207 205
f 182 205 204
f 182 204 208
f 182 208 183
f 183 209 185
f 183 208 210
f 183 210 209
f 184 185 211
f 184 211 186
f 185 209 212
f 185 212 213
f 185 213 211
f 186 211 214
f 186 214 215
f 186 215 187
f 187 215 189
f 188 189 216
f 188 216 217
f 188 217 190
f 189 215 216
f 190 218 191
f 190 217 219
f 190 219 220
f 190 220 221
f 190 221 218
f 191 218 222
f 191 222 201
f 192 201 222
f 192 222 193
f 193 222 221
f 193 221 194
f 194 223 195
f 194 221 223
f 195 223 196
f 196 223 198
f 197 200 224
f 197 224 225
f 197 225 226
f 197 226 202
f 198 223 227
f 198 227 220
f 198 220 228
f 198 228 199
f 199 228 229
f 199 229 230
f 199 230 200
f 200 230 224
f 202 226 231
f 202 231 232
f 202 232 233
f 202 233 203
f 203 233 234
f 203 234 204
f 204 234 235
f 204 235 208
f 205 207 206
f 208 235 210
f 209 210 212
f 210 235 234
f 210 234 233
f 210 233 232
f 210 232 236
f 210 236 237
f 210 237 212
f 211 238 214
f 211 213 238
f 212 237 213
f 213 236 231
f 213 231 239
f 213 239 240
f 213 240 241
f 213 241 242
f 213 242 238
f 213 237 236
f 214 238 243
f 214 243 215
f 215 243 216
f 216 243 244
f 216 244 217
f 217 244 219
f 218 221 222
f 219 245 246
f 219 246 220
f 219 244 247
f 219 247 245
f 220 248 228
f 220 227 221
f 220 246 248
f 221 227 223
f 224 230 225
f 225 230 229
f 225 229 239
f 225 239 231
f 225 231 226
f 228 248 229
f 229 249 240
f 229 240 239
f 229 248 249
f 231 236 232
f 238 250 251
f 238 251 252
f 238 252 243
f 238 242 250
f 240 249 251
f 240 251 241
f 241 251 250
f 241 250 242
f 243 252 251
f 243 251 253
f 243 253 254
f 243 254 244
f 244 254 247
f 245 247 246
f 246 247 255
f 246 255 248
f 247 254 255
f 248 255 249
f 249 253 251
f 249 255 254
f 249 254 253
