v -0.027299 -0.000332 -0.000412
v -0.027299 0.000017 -0.000397
v -0.023805 0.005256 -0.000382
v -0.023107 0.005605 -0.000389
v -0.022755 0.005605 -0.000392
v -0.016471 0.002461 -0.000397
v -0.005993 -0.003476 -0.000336
v -0.018915 -0.004011 -0.000359
v -0.027299 -0.004011 -0.000351
v -0.029393 -0.004011 -0.000349
v -0.028346 -0.001730 -0.000387
v -0.027648 -0.000332 -0.000387
v -0.024154 0.004906 -0.000369
v -0.022755 0.007352 -0.000326
v -0.022406 0.007352 -0.000354
v -0.022755 0.005954 -0.000384
v -0.020660 0.006653 -0.000364
v -0.020311 0.005954 -0.000374
v -0.015776 0.003159 -0.000387
v -0.016471 0.002809 -0.000394
v -0.005993 -0.003127 -0.000333
v -0.005644 -0.003476 -0.000323
v -0.005573 -0.003964 -0.000315
v -0.005993 -0.003918 -0.000326
v -0.004056 -0.004011 -0.000221
v -0.030739 -0.004011 0.000014
v -0.030407 -0.003983 -0.000211
v -0.029742 -0.003918 -0.000341
v -0.028346 -0.001379 -0.000372
v -0.029393 -0.003127 -0.000351
v -0.028695 -0.001730 -0.000346
v -0.027997 -0.000682 -0.000359
v -0.027648 0.000017 -0.000338
v -0.024154 0.005256 -0.000333
v -0.022890 0.007676 -0.000244
v -0.022406 0.007700 -0.000321
v -0.021358 0.007352 -0.000338
v -0.021009 0.007002 -0.000354
v -0.015776 0.003509 -0.000369
v -0.005993 -0.002777 -0.000308
v -0.005644 -0.003127 -0.000310
v -0.005297 -0.003476 -0.000298
v -0.005202 -0.003918 -0.000298
v -0.005266 -0.002931 -0.000236
v -0.003715 -0.004011 -0.000160
v -0.030942 -0.004011 0.000330
v -0.030646 -0.003733 0.000082
v -0.029385 -0.001757 0.000016
v -0.029509 -0.002348 -0.000196
v -0.030260 -0.003663 -0.000229
v -0.030114 -0.003904 -0.000290
v -0.029742 -0.003476 -0.000326
v -0.028698 -0.001389 -0.000292
v -0.029393 -0.002777 -0.000321
v -0.030021 -0.003476 -0.000267
v -0.027637 0.000338 -0.000277
v -0.027825 0.000203 -0.000236
v -0.023104 0.007710 -0.000073
v -0.023011 0.007968 0.000024
v -0.022707 0.007988 -0.000165
v -0.022406 0.008038 -0.000221
v -0.022057 0.008038 -0.000221
v -0.022057 0.007700 -0.000315
v -0.021724 0.007825 -0.000270
v -0.020964 0.007449 -0.000275
v -0.020660 0.007002 -0.000328
v -0.015424 0.003509 -0.000338
v -0.005601 -0.002653 -0.000239
v -0.003276 -0.004011 -0.000030
v -0.031054 -0.004011 0.000646
v -0.029920 -0.002247 0.000457
v -0.029244 -0.001169 0.000414
v -0.029610 -0.001970 0.000126
v -0.029298 -0.001988 -0.000183
v -0.023326 0.007595 0.000065
v -0.029579 -0.002580 -0.000239
v -0.028968 -0.001730 -0.000272
v -0.028588 -0.001099 -0.000267
v -0.023315 0.007840 0.000320
v -0.022901 0.008264 0.000312
v -0.022538 0.008309 0.000016
v -0.022057 0.008332 -0.000004
v -0.021677 0.008040 -0.000137
v -0.021404 0.007751 -0.000247
v -0.021069 0.007934 0.000042
v -0.008856 -0.000079 0.000037
v -0.008771 -0.000498 -0.000234
v -0.005598 -0.002313 -0.000004
v -0.005297 -0.002497 0.000016
v -0.002952 -0.004008 0.000151
v -0.002685 -0.004010 0.000493
v -0.002583 -0.004011 0.000866
v -0.031108 -0.004011 0.000929
v -0.029486 -0.001481 0.000641
v -0.023580 0.007593 0.000580
v -0.023267 0.008043 0.000641
v -0.022684 0.008542 0.000672
v -0.023011 0.008296 0.000641
v -0.022403 0.008568 0.000468
v -0.022068 0.008507 0.000312
v -0.021654 0.008316 0.000213
v -0.021384 0.008050 -0.000004
v -0.020815 0.007884 0.000238
v -0.005900 -0.001828 0.000595
v -0.002555 -0.004011 0.001340
v -0.031142 -0.004011 0.001251
v -0.029562 -0.001566 0.000991
v -0.023549 0.007741 0.000991
v -0.023301 0.008083 0.000991
v -0.023053 0.008334 0.000991
v -0.022735 0.008557 0.000991
v -0.022406 0.008649 0.000991
v -0.022043 0.008577 0.000641
v -0.021708 0.008446 0.000641
v -0.021328 0.008243 0.000641
v -0.021009 0.008054 0.000641
v -0.020691 0.007855 0.000641
v -0.005793 -0.001888 0.000991
v -0.020773 0.007918 0.000991
v -0.002397 -0.004011 0.024041
v -0.004042 -0.002932 0.024041
v -0.031159 -0.004011 0.001689
v -0.023560 0.007753 0.001340
v -0.023318 0.008104 0.001340
v -0.023076 0.008350 0.001340
v -0.022831 0.008524 0.001340
v -0.022845 0.008533 0.001689
v -0.022682 0.008618 0.002039
v -0.022406 0.008674 0.003087
v -0.022057 0.008641 0.004136
v -0.021992 0.008592 0.000991
v -0.021708 0.008475 0.000991
v -0.021308 0.008255 0.000991
v -0.021009 0.008070 0.000991
v -0.021358 0.008352 0.008326
v -0.018828 0.006770 0.024390
v -0.018386 0.006478 0.024566
v -0.005548 -0.001953 0.024390
v -0.002488 -0.003965 0.024390
v -0.002623 -0.003994 0.024806
v -0.003006 -0.004011 0.025084
v -0.031125 -0.004011 0.006064
v -0.023569 0.007771 0.003786
v -0.023394 0.008042 0.003786
v -0.023391 0.008034 0.002039
v -0.023566 0.007758 0.001689
v -0.023326 0.008114 0.001689
v -0.023267 0.008208 0.002039
v -0.023087 0.008359 0.001689
v -0.022876 0.008547 0.002738
v -0.022783 0.008582 0.002388
v -0.022701 0.008624 0.003087
v -0.022406 0.008712 0.017055
v -0.022057 0.008734 0.022993
v -0.022057 0.008643 0.004485
v -0.021767 0.008543 0.004485
v -0.021389 0.008312 0.001689
v -0.021389 0.008309 0.001340
v -0.021218 0.008205 0.001340
v -0.021663 0.008522 0.007977
v -0.021651 0.008597 0.024041
v -0.021651 0.008596 0.024390
v -0.021358 0.008398 0.024740
v -0.006181 -0.001565 0.024648
v -0.003017 -0.003647 0.024574
v -0.005888 -0.001854 0.024913
v -0.006108 -0.001973 0.025204
v -0.003515 -0.004011 0.025276
v -0.005948 -0.002322 0.025334
v -0.031102 -0.004011 0.007972
v -0.030976 -0.003806 0.007627
v -0.023273 0.008044 0.018452
v -0.023332 0.008133 0.003437
v -0.023101 0.008376 0.003437
v -0.023183 0.008291 0.002388
v -0.022882 0.008553 0.003786
v -0.022777 0.008578 0.018103
v -0.022406 0.008704 0.022993
v -0.022057 0.008724 0.024041
v -0.021750 0.008641 0.023342
v -0.022057 0.008717 0.024390
v -0.021764 0.008584 0.024844
v -0.021246 0.008230 0.025023
v -0.018008 0.006148 0.024949
v -0.021108 0.007932 0.025311
v -0.003906 -0.004011 0.025344
v -0.006342 -0.002428 0.025439
v -0.005993 -0.002777 0.025454
v -0.021375 0.008049 0.025344
v -0.021358 0.007700 0.025474
v -0.030866 -0.004011 0.024776
v -0.023270 0.008042 0.018802
v -0.023017 0.008325 0.021944
v -0.023042 0.008351 0.018452
v -0.023042 0.008355 0.018103
v -0.023098 0.008377 0.003786
v -0.022820 0.008495 0.022294
v -0.022648 0.008616 0.022643
v -0.022521 0.008655 0.023692
v -0.022406 0.008683 0.024390
v -0.022057 0.008678 0.024740
v -0.022057 0.008549 0.025069
v -0.004244 -0.004011 0.025380
v -0.021708 0.007700 0.025518
v -0.006342 -0.002777 0.025474
v -0.005993 -0.003127 0.025467
v -0.021654 0.008154 0.025357
v -0.022057 0.008050 0.025459
v -0.030449 -0.004011 0.025500
v -0.030717 -0.004001 0.025250
v -0.030618 -0.003645 0.024926
v -0.023124 0.008050 0.024740
v -0.023143 0.008050 0.024390
v -0.023188 0.008070 0.022294
v -0.023011 0.008320 0.022294
v -0.022980 0.008282 0.024390
v -0.022707 0.008528 0.024390
v -0.022392 0.008553 0.025031
v -0.022645 0.008532 0.024796
v -0.022057 0.008315 0.025329
v -0.022518 0.008289 0.025314
v -0.004593 -0.004011 0.025400
v -0.022057 0.007700 0.025538
v -0.006342 -0.003127 0.025474
v -0.021708 0.007352 0.025541
v -0.022406 0.007352 0.025554
v -0.023805 0.004906 0.025589
v -0.024154 0.004557 0.025594
v -0.027648 -0.000682 0.025635
v -0.027997 -0.002079 0.025640
v -0.005644 -0.004011 0.025441
v -0.005297 -0.004011 0.025431
v -0.004943 -0.004011 0.025418
v -0.022406 0.008050 0.025459
v -0.022406 0.007700 0.025541
v -0.029751 -0.004011 0.025645
v -0.030168 -0.004009 0.025625
v -0.027955 -0.000362 0.025597
v -0.028239 -0.000224 0.025347
v -0.023245 0.007616 0.025186
v -0.022960 0.008258 0.024844
v -0.022752 0.008331 0.025074
v -0.022752 0.008047 0.025357
v -0.012628 -0.004011 0.025520
v -0.009484 -0.004011 0.025492
v -0.005993 -0.004011 0.025449
v -0.023805 0.005256 0.025584
v -0.023805 0.005605 0.025569
v -0.016815 -0.004011 0.025551
v -0.022755 0.007700 0.025480
v -0.022755 0.007352 0.025531
v -0.023005 0.007813 0.025321
v -0.022944 0.008104 0.025128
f 1 2 3
f 1 3 4
f 1 4 5
f 1 5 6
f 1 6 7
f 1 7 8
f 1 8 9
f 1 9 10
f 1 10 11
f 1 11 12
f 1 12 2
f 2 12 3
f 3 12 13
f 3 13 14
f 3 14 15
f 3 15 4
f 4 15 16
f 4 16 5
f 5 16 15
f 5 15 17
f 5 17 18
f 5 18 19
f 5 19 20
f 5 20 6
f 6 20 19
f 6 19 7
f 7 19 21
f 7 21 22
f 7 22 23
f 7 23 24
f 7 24 8
f 8 24 23
f 8 23 25
f 8 25 45
f 8 45 69
f 8 69 92
f 8 92 105
f 8 105 120
f 8 120 141
f 8 141 168
f 8 168 186
f 8 186 203
f 8 203 222
f 8 222 233
f 8 233 232
f 8 232 231
f 8 231 246
f 8 246 245
f 8 245 244
f 8 244 249
f 8 249 236
f 8 236 209
f 8 209 191
f 8 191 170
f 8 170 142
f 8 142 122
f 8 122 106
f 8 106 93
f 8 93 70
f 8 70 46
f 8 46 26
f 8 26 10
f 8 10 9
f 10 26 27
f 10 27 28
f 10 28 11
f 11 29 12
f 11 28 30
f 11 30 29
f 12 29 31
f 12 31 32
f 12 32 33
f 12 33 34
f 12 34 13
f 13 34 14
f 14 35 36
f 14 36 15
f 14 34 35
f 15 36 63
f 15 63 37
f 15 37 38
f 15 38 17
f 17 38 39
f 17 39 19
f 17 19 18
f 19 39 21
f 21 39 40
f 21 40 41
f 21 41 22
f 22 41 42
f 22 42 25
f 22 25 43
f 22 43 23
f 23 43 25
f 25 42 41
f 25 41 44
f 25 44 45
f 26 46 47
f 26 47 48
f 26 48 49
f 26 49 50
f 26 50 27
f 27 50 51
f 27 51 28
f 28 51 52
f 28 52 30
f 29 30 52
f 29 52 31
f 31 53 33
f 31 33 32
f 31 52 54
f 31 54 55
f 31 55 53
f 33 53 56
f 33 56 35
f 33 35 34
f 35 56 57
f 35 57 58
f 35 58 59
f 35 59 60
f 35 60 61
f 35 61 36
f 36 61 62
f 36 62 63
f 37 63 64
f 37 64 65
f 37 65 66
f 37 66 38
f 38 66 39
f 39 67 40
f 39 66 67
f 40 67 68
f 40 68 44
f 40 44 41
f 44 68 45
f 45 68 69
f 46 70 71
f 46 71 72
f 46 72 73
f 46 73 47
f 47 73 48
f 48 57 74
f 48 74 49
f 48 73 75
f 48 75 58
f 48 58 57
f 49 76 50
f 49 74 57
f 49 57 76
f 50 76 77
f 50 77 53
f 50 53 55
f 50 55 51
f 51 55 52
f 52 55 54
f 53 77 78
f 53 78 56
f 56 78 57
f 57 78 76
f 58 75 59
f 59 75 79
f 59 79 80
f 59 80 81
f 59 81 60
f 60 81 61
f 61 82 62
f 61 81 82
f 62 82 83
f 62 83 84
f 62 84 64
f 62 64 63
f 64 84 65
f 65 84 85
f 65 85 86
f 65 86 87
f 65 87 67
f 65 67 66
f 67 87 68
f 68 88 89
f 68 89 69
f 68 87 88
f 69 90 91
f 69 91 92
f 69 89 90
f 70 93 94
f 70 94 72
f 70 72 71
f 72 95 79
f 72 79 73
f 72 94 95
f 73 79 75
f 76 78 77
f 79 96 80
f 79 95 96
f 80 97 81
f 80 96 98
f 80 98 97
f 81 97 99
f 81 99 100
f 81 100 82
f 82 100 101
f 82 101 102
f 82 102 83
f 83 102 84
f 84 102 85
f 85 103 86
f 85 102 101
f 85 101 103
f 86 104 91
f 86 91 90
f 86 90 89
f 86 89 88
f 86 88 87
f 86 103 104
f 91 104 92
f 92 104 105
f 93 106 94
f 94 106 107
f 94 107 108
f 94 108 95
f 95 108 96
f 96 108 109
f 96 109 110
f 96 110 98
f 97 98 110
f 97 110 111
f 97 111 112
f 97 112 99
f 99 112 113
f 99 113 100
f 100 113 114
f 100 114 101
f 101 114 103
f 103 114 115
f 103 115 116
f 103 116 117
f 103 117 104
f 104 118 105
f 104 117 119
f 104 119 118
f 105 118 121
f 105 121 120
f 106 122 107
f 107 122 123
f 107 123 108
f 108 123 124
f 108 124 109
f 109 124 125
f 109 125 110
f 110 125 126
f 110 126 111
f 111 126 127
f 111 127 128
f 111 128 112
f 112 129 130
f 112 130 131
f 112 131 113
f 112 128 129
f 113 131 114
f 114 132 115
f 114 131 132
f 115 133 116
f 115 132 133
f 116 134 117
f 116 133 134
f 117 134 119
f 118 119 135
f 118 135 136
f 118 136 121
f 119 134 135
f 120 121 136
f 120 136 137
f 120 137 138
f 120 138 139
f 120 139 140
f 120 140 141
f 122 142 143
f 122 143 144
f 122 144 145
f 122 145 146
f 122 146 123
f 123 145 147
f 123 147 124
f 123 146 145
f 124 147 148
f 124 148 125
f 125 148 149
f 125 149 127
f 125 127 126
f 127 150 151
f 127 151 128
f 127 149 150
f 128 151 152
f 128 152 129
f 129 152 153
f 129 153 154
f 129 154 155
f 129 155 130
f 130 155 156
f 130 156 131
f 131 156 132
f 132 157 158
f 132 158 133
f 132 156 157
f 133 159 134
f 133 158 159
f 134 159 135
f 135 159 157
f 135 157 160
f 135 160 161
f 135 161 136
f 136 161 162
f 136 162 163
f 136 163 137
f 137 164 139
f 137 139 138
f 137 163 164
f 139 165 140
f 139 164 165
f 140 165 166
f 140 166 167
f 140 167 141
f 141 167 169
f 141 169 168
f 142 170 171
f 142 171 172
f 142 172 143
f 143 172 144
f 144 172 173
f 144 173 145
f 145 173 148
f 145 148 147
f 148 173 174
f 148 174 175
f 148 175 149
f 149 175 174
f 149 174 150
f 150 176 152
f 150 152 151
f 150 174 176
f 152 176 177
f 152 177 178
f 152 178 153
f 153 178 154
f 154 179 180
f 154 180 155
f 154 178 179
f 155 180 156
f 156 180 160
f 156 160 157
f 157 159 158
f 160 180 161
f 161 180 162
f 162 180 179
f 162 179 181
f 162 181 182
f 162 182 163
f 163 182 183
f 163 183 184
f 163 184 164
f 164 184 166
f 164 166 165
f 166 184 185
f 166 185 167
f 167 185 169
f 168 169 187
f 168 187 188
f 168 188 186
f 169 185 189
f 169 189 190
f 169 190 187
f 170 191 192
f 170 192 171
f 171 192 172
f 172 192 193
f 172 193 194
f 172 194 173
f 173 194 195
f 173 195 196
f 173 196 174
f 174 196 176
f 176 196 177
f 177 197 198
f 177 198 178
f 177 196 195
f 177 195 194
f 177 194 197
f 178 198 199
f 178 199 200
f 178 200 179
f 179 200 181
f 181 200 201
f 181 201 182
f 182 201 202
f 182 202 183
f 183 202 189
f 183 189 185
f 183 185 184
f 186 188 203
f 187 190 204
f 187 204 188
f 188 204 223
f 188 223 205
f 188 205 206
f 188 206 203
f 189 207 190
f 189 202 207
f 190 207 208
f 190 208 204
f 191 209 210
f 191 210 211
f 191 211 212
f 191 212 213
f 191 213 214
f 191 214 192
f 192 214 193
f 193 214 215
f 193 215 197
f 193 197 194
f 197 215 216
f 197 216 217
f 197 217 198
f 198 217 199
f 199 217 200
f 200 218 201
f 200 217 219
f 200 219 218
f 201 218 202
f 202 220 207
f 202 218 221
f 202 221 220
f 203 206 222
f 204 208 223
f 205 224 206
f 205 223 225
f 205 225 226
f 205 226 227
f 205 227 228
f 205 228 229
f 205 229 230
f 205 230 224
f 206 224 246
f 206 246 231
f 206 231 232
f 206 232 233
f 206 233 222
f 207 220 208
f 208 220 234
f 208 234 235
f 208 235 223
f 209 236 237
f 209 237 238
f 209 238 239
f 209 239 210
f 210 239 211
f 211 239 240
f 211 240 241
f 211 241 212
f 212 241 216
f 212 216 213
f 213 216 214
f 214 216 215
f 216 241 217
f 217 241 219
f 218 219 242
f 218 242 221
f 219 241 242
f 220 221 234
f 221 242 243
f 221 243 234
f 223 235 226
f 223 226 225
f 224 230 244
f 224 244 245
f 224 245 246
f 226 235 247
f 226 247 228
f 226 228 227
f 228 247 229
f 229 238 237
f 229 237 236
f 229 236 230
f 229 247 248
f 229 248 238
f 230 236 249
f 230 249 244
f 234 243 250
f 234 250 235
f 235 250 251
f 235 251 248
f 235 248 247
f 238 248 251
f 238 251 250
f 238 250 252
f 238 252 239
f 239 252 240
f 240 252 253
f 240 253 241
f 241 253 242
f 242 253 243
f 243 253 252
f 243 252 250
