v -0.020656 -0.005225 -0.000363
v -0.019073 -0.004011 -0.000358
v -0.018385 -0.004011 -0.000358
v -0.008790 -0.006796 -0.000330
v -0.009227 -0.015526 -0.000304
v -0.028345 -0.016348 -0.000330
v -0.031490 -0.007321 -0.000348
v -0.029742 -0.004525 -0.000355
v -0.027643 -0.004011 -0.000350
v -0.005992 -0.004011 -0.000322
v -0.003462 -0.006098 -0.000304
v -0.008749 -0.015517 -0.000246
v -0.009223 -0.016125 -0.000240
v -0.009836 -0.016348 -0.000271
v -0.002877 -0.006373 -0.000246
v -0.028923 -0.016348 -0.000325
v -0.032884 -0.009940 -0.000327
v -0.033407 -0.010201 -0.000315
v -0.033235 -0.009591 -0.000315
v -0.031490 -0.006796 -0.000340
v -0.030265 -0.005050 -0.000353
v -0.029566 -0.004011 -0.000345
v -0.005510 -0.004011 -0.000309
v -0.003201 -0.005574 -0.000292
v -0.002767 -0.005795 -0.000258
v -0.008367 -0.015593 0.000043
v -0.008910 -0.016348 0.000018
v -0.002230 -0.006273 0.000038
v -0.002636 -0.007059 0.000087
v -0.002151 -0.005225 -0.000143
v -0.002034 -0.005634 -0.000018
v -0.029625 -0.016348 -0.000256
v -0.032657 -0.014446 -0.000223
v -0.033369 -0.013920 -0.000223
v -0.034154 -0.013136 -0.000240
v -0.032623 -0.013737 -0.000299
v -0.034457 -0.012034 -0.000284
v -0.034629 -0.011510 -0.000266
v -0.033380 -0.009067 -0.000281
v -0.032884 -0.008892 -0.000317
v -0.032884 -0.008369 -0.000294
v -0.030788 -0.005225 -0.000322
v -0.030258 -0.004011 -0.000256
v -0.004935 -0.004011 -0.000279
v -0.002729 -0.005053 -0.000235
v -0.008611 -0.016086 0.000169
v -0.008601 -0.016348 0.000644
v -0.002000 -0.006052 0.000161
v -0.002368 -0.006662 0.000110
v -0.002303 -0.006836 0.000532
v -0.002106 -0.004767 0.000013
v -0.001731 -0.004789 0.000299
v -0.001346 -0.005024 0.000665
v -0.003104 -0.004709 -0.000230
v -0.001528 -0.005552 0.000501
v -0.030251 -0.016348 -0.000021
v -0.032154 -0.014971 -0.000130
v -0.032251 -0.014750 -0.000210
v -0.033070 -0.014272 -0.000171
v -0.034333 -0.013720 -0.000003
v -0.034629 -0.013257 -0.000097
v -0.034980 -0.012907 -0.000115
v -0.035207 -0.012454 -0.000166
v -0.035004 -0.011859 -0.000233
v -0.033122 -0.008258 -0.000251
v -0.032822 -0.007642 -0.000207
v -0.030737 -0.004011 0.000015
v -0.002884 -0.004011 0.000212
v -0.004223 -0.004013 -0.000233
v -0.008294 -0.015906 0.000718
v -0.008563 -0.016339 0.001143
v -0.008521 -0.016348 0.003426
v -0.001528 -0.005773 0.001166
v -0.003431 -0.004100 -0.000118
v -0.002874 -0.004180 0.000026
v -0.002320 -0.004381 0.000210
v -0.001477 -0.004748 0.000992
v -0.001965 -0.004386 0.000716
v -0.001311 -0.004991 0.022645
v -0.001163 -0.005399 0.024128
v -0.001294 -0.005296 0.000992
v -0.030626 -0.016348 0.000235
v -0.031304 -0.015871 0.000128
v -0.032285 -0.015222 0.000077
v -0.032657 -0.014725 -0.000082
v -0.035259 -0.013283 0.000138
v -0.035507 -0.012929 0.000066
v -0.035754 -0.012383 0.000141
v -0.035427 -0.011532 0.000082
v -0.034932 -0.011304 -0.000166
v -0.033724 -0.009162 -0.000215
v -0.033528 -0.008517 -0.000097
v -0.033252 -0.007830 0.000015
v -0.033091 -0.007449 0.000084
v -0.031363 -0.004768 0.000130
v -0.030998 -0.004019 0.000486
v -0.031119 -0.004011 0.001048
v -0.002640 -0.004011 0.000621
v -0.008759 -0.016348 0.025453
v -0.007554 -0.015543 0.024609
v -0.008067 -0.016300 0.024535
v -0.001263 -0.006061 0.024338
v -0.001621 -0.004596 0.023517
v -0.001442 -0.004814 0.023868
v -0.001951 -0.004334 0.001342
v -0.001335 -0.005002 0.024346
v -0.001380 -0.005494 0.024888
v -0.030964 -0.016348 0.000992
v -0.030943 -0.016296 0.000516
v -0.031514 -0.015822 0.000263
v -0.035486 -0.013394 0.000468
v -0.035854 -0.012971 0.000458
v -0.036126 -0.012366 0.000841
v -0.035864 -0.011783 0.000486
v -0.035200 -0.011057 0.000077
v -0.034361 -0.009564 0.000054
v -0.034123 -0.009042 0.000112
v -0.033779 -0.008509 0.000097
v -0.033073 -0.007126 0.000440
v -0.031662 -0.005052 0.000355
v -0.031332 -0.004395 0.000706
v -0.031962 -0.005299 0.000897
v -0.031920 -0.005188 0.001342
v -0.031153 -0.004011 0.001554
v -0.002561 -0.004011 0.001199
v -0.008342 -0.016169 0.025299
v -0.005785 -0.012296 0.025282
v -0.005630 -0.011860 0.025343
v -0.005992 -0.012209 0.025402
v -0.004247 -0.009067 0.025476
v -0.008614 -0.015526 0.025550
v -0.009285 -0.016348 0.025555
v -0.007902 -0.015983 0.024847
v -0.001415 -0.006028 0.024778
v -0.001855 -0.004399 0.024041
v -0.002337 -0.004062 0.024215
v -0.001659 -0.004696 0.024612
v -0.001896 -0.005107 0.025197
v -0.002003 -0.005771 0.025302
v -0.030957 -0.016348 0.007282
v -0.035686 -0.013423 0.000992
v -0.031631 -0.015904 0.000665
v -0.036009 -0.013045 0.000992
v -0.036195 -0.012727 0.001322
v -0.036205 -0.012057 0.001524
v -0.036002 -0.011706 0.000992
v -0.034829 -0.009903 0.000432
v -0.034512 -0.009344 0.000501
v -0.034216 -0.008728 0.000992
v -0.033404 -0.007501 0.000895
v -0.034109 -0.008540 0.001501
v -0.032037 -0.005361 0.001866
v -0.031122 -0.004011 0.006244
v -0.035235 -0.010364 0.024791
v -0.002612 -0.004011 0.024816
v -0.005503 -0.011978 0.025215
v -0.005441 -0.011744 0.025287
v -0.003307 -0.008299 0.025305
v -0.003896 -0.008718 0.025430
v -0.003548 -0.008019 0.025440
v -0.004071 -0.008456 0.025509
v -0.004598 -0.008892 0.025547
v -0.013973 -0.016348 0.025586
v -0.034980 -0.011684 0.025757
v -0.002819 -0.007525 0.025297
v -0.002007 -0.004347 0.024525
v -0.002168 -0.004458 0.024964
v -0.002258 -0.004764 0.025230
v -0.002485 -0.004857 0.025328
v -0.002499 -0.006098 0.025399
v -0.003201 -0.007321 0.025437
v -0.002674 -0.005486 0.025430
v -0.030922 -0.016348 0.024392
v -0.035861 -0.013313 0.001516
v -0.036088 -0.013088 0.006668
v -0.036233 -0.012677 0.001779
v -0.036233 -0.012049 0.002040
v -0.035909 -0.011385 0.001521
v -0.034443 -0.009084 0.000992
v -0.035926 -0.011350 0.002214
v -0.035782 -0.011098 0.002741
v -0.034398 -0.008982 0.003787
v -0.035892 -0.011278 0.006931
v -0.031101 -0.004011 0.007834
v -0.036037 -0.011510 0.006931
v -0.036126 -0.011671 0.008588
v -0.035889 -0.011429 0.024392
v -0.035603 -0.011005 0.024924
v -0.034804 -0.009943 0.025261
v -0.031649 -0.005244 0.025195
v -0.031339 -0.004737 0.025051
v -0.031628 -0.005102 0.024739
v -0.004770 -0.004011 0.025409
v -0.003514 -0.004016 0.025274
v -0.002994 -0.004058 0.025110
v -0.003025 -0.005050 0.025435
v -0.003810 -0.004701 0.025437
v -0.009485 -0.004011 0.025494
v -0.012982 -0.004011 0.025524
v -0.030788 -0.005574 0.025693
v -0.028496 -0.016348 0.025619
v -0.031136 -0.005574 0.025678
v -0.031494 -0.005570 0.025606
v -0.035365 -0.011276 0.025517
v -0.035496 -0.011859 0.025519
v -0.035190 -0.012389 0.025622
v -0.034815 -0.012999 0.025601
v -0.003001 -0.004468 0.025328
v -0.029979 -0.016348 0.025328
v -0.030768 -0.016287 0.024970
v -0.032678 -0.015205 0.024722
v -0.035231 -0.013627 0.024226
v -0.035978 -0.013189 0.011823
v -0.035981 -0.013203 0.007282
v -0.036150 -0.012994 0.011823
v -0.036202 -0.012924 0.010774
v -0.036308 -0.012701 0.007282
v -0.036302 -0.012558 0.003787
v -0.036267 -0.012080 0.003439
v -0.036281 -0.012017 0.007282
v -0.030819 -0.004011 0.024977
v -0.036240 -0.011955 0.011122
v -0.036057 -0.011859 0.024215
v -0.035882 -0.011636 0.024811
v -0.035231 -0.010698 0.025343
v -0.031380 -0.004960 0.025333
v -0.004075 -0.004093 0.025381
v -0.005297 -0.004011 0.025432
v -0.005820 -0.004011 0.025445
v -0.016822 -0.004011 0.025553
v -0.030441 -0.005225 0.025683
v -0.029887 -0.004052 0.025642
v -0.029215 -0.016348 0.025519
v -0.030929 -0.005174 0.025662
v -0.030355 -0.004011 0.025558
v -0.031236 -0.005140 0.025565
v -0.035596 -0.012383 0.025363
v -0.035875 -0.012380 0.024903
v -0.035162 -0.013308 0.025261
v -0.032110 -0.015237 0.025315
v -0.032468 -0.014768 0.025455
v -0.030843 -0.015824 0.025391
v -0.032430 -0.015174 0.025159
v -0.035104 -0.013600 0.024870
v -0.035503 -0.013347 0.024612
v -0.035820 -0.013148 0.024067
v -0.035816 -0.013190 0.023607
v -0.036219 -0.012765 0.015310
v -0.036291 -0.012695 0.011122
v -0.036322 -0.012209 0.010774
v -0.036233 -0.011968 0.012170
v -0.036071 -0.012383 0.024392
v -0.036154 -0.012383 0.023868
v -0.035493 -0.013015 0.025151
v -0.035854 -0.012912 0.024563
v -0.032915 -0.014778 0.025269
f 1 2 3
f 1 3 4
f 1 4 5
f 1 5 6
f 1 6 7
f 1 7 8
f 1 8 2
f 2 8 9
f 2 9 22
f 2 22 43
f 2 43 67
f 2 67 97
f 2 97 124
f 2 124 153
f 2 153 184
f 2 184 221
f 2 221 235
f 2 235 230
f 2 230 199
f 2 199 198
f 2 198 229
f 2 229 228
f 2 228 193
f 2 193 155
f 2 155 125
f 2 125 98
f 2 98 68
f 2 68 44
f 2 44 23
f 2 23 10
f 2 10 3
f 3 10 4
f 4 10 11
f 4 11 5
f 5 12 13
f 5 13 14
f 5 14 6
f 5 11 15
f 5 15 12
f 6 14 27
f 6 27 47
f 6 47 72
f 6 72 99
f 6 99 132
f 6 132 163
f 6 163 201
f 6 201 233
f 6 233 209
f 6 209 173
f 6 173 140
f 6 140 108
f 6 108 82
f 6 82 56
f 6 56 32
f 6 32 16
f 6 16 17
f 6 17 7
f 7 17 18
f 7 18 19
f 7 19 20
f 7 20 21
f 7 21 8
f 8 21 22
f 8 22 9
f 10 23 24
f 10 24 11
f 11 24 25
f 11 25 15
f 12 26 27
f 12 27 13
f 12 15 28
f 12 28 29
f 12 29 26
f 13 27 14
f 15 25 30
f 15 30 31
f 15 31 28
f 16 32 33
f 16 33 34
f 16 34 35
f 16 35 36
f 16 36 17
f 17 37 18
f 17 36 37
f 18 37 38
f 18 38 19
f 19 38 39
f 19 39 40
f 19 40 20
f 20 40 41
f 20 41 42
f 20 42 21
f 21 42 22
f 22 42 43
f 23 44 45
f 23 45 24
f 24 45 25
f 25 45 30
f 26 46 27
f 26 29 46
f 27 46 47
f 28 31 48
f 28 48 49
f 28 49 29
f 29 49 50
f 29 50 46
f 30 51 52
f 30 52 53
f 30 53 31
f 30 45 54
f 30 54 51
f 31 53 55
f 31 55 48
f 32 56 57
f 32 57 58
f 32 58 33
f 33 58 59
f 33 59 34
f 34 59 60
f 34 60 61
f 34 61 62
f 34 62 35
f 35 37 36
f 35 62 63
f 35 63 64
f 35 64 37
f 37 64 38
f 38 64 39
f 39 65 41
f 39 41 40
f 39 64 65
f 41 65 42
f 42 65 43
f 43 65 66
f 43 66 67
f 44 68 69
f 44 69 54
f 44 54 45
f 46 50 47
f 47 50 70
f 47 70 71
f 47 71 72
f 48 55 49
f 49 55 50
f 50 55 73
f 50 73 70
f 51 54 74
f 51 74 75
f 51 75 76
f 51 76 52
f 52 77 53
f 52 76 78
f 52 78 77
f 53 79 80
f 53 80 81
f 53 81 55
f 53 77 79
f 54 69 74
f 55 81 73
f 56 82 83
f 56 83 84
f 56 84 57
f 57 84 85
f 57 85 59
f 57 59 58
f 59 85 60
f 60 85 84
f 60 84 86
f 60 86 87
f 60 87 61
f 61 87 62
f 62 87 63
f 63 87 88
f 63 88 64
f 64 88 89
f 64 89 90
f 64 90 91
f 64 91 65
f 65 91 66
f 66 91 92
f 66 92 93
f 66 93 67
f 67 93 94
f 67 94 95
f 67 95 96
f 67 96 97
f 68 98 78
f 68 78 76
f 68 76 75
f 68 75 74
f 68 74 69
f 70 73 71
f 71 73 72
f 72 73 100
f 72 100 101
f 72 101 99
f 73 81 102
f 73 102 100
f 77 103 104
f 77 104 79
f 77 78 105
f 77 105 103
f 78 98 105
f 79 104 106
f 79 106 80
f 80 102 81
f 80 106 107
f 80 107 102
f 82 108 109
f 82 109 110
f 82 110 83
f 83 110 84
f 84 110 111
f 84 111 86
f 86 111 87
f 87 111 112
f 87 112 88
f 88 112 113
f 88 113 114
f 88 114 89
f 89 115 90
f 89 114 115
f 90 115 91
f 91 116 92
f 91 115 116
f 92 116 117
f 92 117 118
f 92 118 93
f 93 118 94
f 94 118 119
f 94 119 95
f 95 119 120
f 95 120 96
f 96 120 121
f 96 121 97
f 97 121 122
f 97 122 123
f 97 123 124
f 98 125 105
f 99 101 126
f 99 126 127
f 99 127 128
f 99 128 129
f 99 129 130
f 99 130 131
f 99 131 132
f 100 133 101
f 100 102 133
f 101 133 126
f 102 107 134
f 102 134 133
f 103 135 104
f 103 105 135
f 104 135 106
f 105 136 135
f 105 125 136
f 106 135 137
f 106 137 107
f 107 137 138
f 107 138 139
f 107 139 134
f 108 140 141
f 108 141 142
f 108 142 109
f 109 142 111
f 109 111 110
f 111 141 112
f 111 142 141
f 112 141 143
f 112 143 144
f 112 144 113
f 113 144 145
f 113 145 146
f 113 146 114
f 114 147 115
f 114 146 147
f 115 147 117
f 115 117 116
f 117 147 148
f 117 148 118
f 118 148 119
f 119 148 149
f 119 149 150
f 119 150 122
f 119 122 121
f 119 121 120
f 122 150 149
f 122 149 123
f 123 149 151
f 123 151 152
f 123 152 124
f 124 152 154
f 124 154 153
f 125 155 136
f 126 133 156
f 126 156 127
f 127 156 157
f 127 157 128
f 128 157 158
f 128 158 129
f 129 158 159
f 129 159 130
f 130 159 160
f 130 160 161
f 130 161 131
f 131 161 162
f 131 162 132
f 132 162 164
f 132 164 163
f 133 134 156
f 134 139 165
f 134 165 156
f 135 136 166
f 135 166 137
f 136 155 166
f 137 166 167
f 137 167 138
f 138 167 168
f 138 168 169
f 138 169 139
f 139 170 171
f 139 171 165
f 139 169 172
f 139 172 170
f 140 173 141
f 141 174 143
f 141 173 174
f 143 175 176
f 143 176 144
f 143 174 175
f 144 176 145
f 145 176 177
f 145 177 178
f 145 178 146
f 146 178 148
f 146 148 147
f 148 179 149
f 148 178 179
f 149 179 180
f 149 180 181
f 149 181 151
f 151 181 152
f 152 181 182
f 152 182 183
f 152 183 154
f 153 154 184
f 154 183 185
f 154 185 186
f 154 186 187
f 154 187 188
f 154 188 189
f 154 189 190
f 154 190 191
f 154 191 192
f 154 192 184
f 155 193 194
f 155 194 195
f 155 195 167
f 155 167 166
f 156 165 158
f 156 158 157
f 158 165 159
f 159 165 160
f 160 171 161
f 160 165 171
f 161 171 170
f 161 170 172
f 161 172 162
f 162 172 196
f 162 196 197
f 162 197 198
f 162 198 199
f 162 199 200
f 162 200 164
f 163 164 201
f 164 202 203
f 164 203 204
f 164 204 205
f 164 205 206
f 164 206 207
f 164 207 201
f 164 200 202
f 167 195 168
f 168 195 194
f 168 194 208
f 168 208 169
f 169 208 196
f 169 196 172
f 173 209 210
f 173 210 211
f 173 211 212
f 173 212 174
f 174 212 213
f 174 213 214
f 174 214 175
f 175 214 213
f 175 213 215
f 175 215 216
f 175 216 217
f 175 217 176
f 176 217 218
f 176 218 177
f 177 218 219
f 177 219 180
f 177 180 178
f 178 180 179
f 180 219 220
f 180 220 186
f 180 186 185
f 180 185 181
f 181 185 183
f 181 183 182
f 184 192 221
f 186 220 222
f 186 222 187
f 187 222 223
f 187 223 224
f 187 224 188
f 188 204 225
f 188 225 189
f 188 224 204
f 189 226 190
f 189 225 226
f 190 226 191
f 191 226 221
f 191 221 192
f 193 197 227
f 193 227 194
f 193 228 197
f 194 227 208
f 196 208 227
f 196 227 197
f 197 228 229
f 197 229 198
f 199 230 231
f 199 231 200
f 200 231 232
f 200 232 202
f 201 207 233
f 202 232 234
f 202 234 203
f 203 234 235
f 203 235 236
f 203 236 226
f 203 226 225
f 203 225 204
f 204 224 205
f 205 237 206
f 205 224 238
f 205 238 237
f 206 239 207
f 206 237 239
f 207 240 241
f 207 241 233
f 207 239 240
f 209 233 242
f 209 242 240
f 209 240 210
f 210 240 243
f 210 243 211
f 211 243 244
f 211 244 212
f 212 244 245
f 212 245 246
f 212 246 247
f 212 247 213
f 213 247 215
f 215 248 216
f 215 247 248
f 216 248 249
f 216 249 217
f 217 249 250
f 217 250 218
f 218 250 219
f 219 250 220
f 220 250 222
f 221 226 235
f 222 250 251
f 222 251 223
f 223 252 224
f 223 251 250
f 223 250 253
f 223 253 252
f 224 252 238
f 226 236 235
f 230 235 232
f 230 232 231
f 232 235 234
f 233 241 242
f 237 238 254
f 237 254 239
f 238 252 255
f 238 255 254
f 239 254 245
f 239 245 244
f 239 244 243
f 239 243 256
f 239 256 240
f 240 256 243
f 240 242 241
f 245 254 255
f 245 255 246
f 246 255 253
f 246 253 247
f 247 253 248
f 248 253 249
f 249 253 250
f 252 253 255
