v -0.035508 0.011528 0.035926
v -0.035508 0.024483 0.035637
v -0.035782 0.017048 0.035839
v -0.035782 0.015661 0.035864
v -0.049847 0.021181 0.034826
v -0.049847 0.019803 0.034837
v -0.041801 0.011528 0.035464
v -0.037433 0.003269 0.035763
v -0.035782 0.003269 0.035882
v -0.035782 0.000513 0.035861
v -0.035508 -0.006804 0.035706
v -0.035508 0.025592 0.035605
v -0.053977 0.026701 0.034455
v -0.056734 0.023937 0.034300
v -0.065011 0.030834 0.033626
v -0.051224 0.018425 0.034740
v -0.047087 0.014283 0.035064
v -0.037433 0.001891 0.035745
v -0.036053 0.001891 0.035853
v -0.047087 0.012906 0.035053
v -0.035782 -0.000873 0.035839
v -0.035782 -0.002251 0.035810
v -0.037433 -0.000873 0.035691
v -0.038809 -0.006384 0.035374
v -0.037433 -0.010526 0.035378
v -0.035902 -0.012005 0.035486
v -0.035508 -0.018802 0.035187
v -0.035508 0.026894 0.035547
v -0.049847 0.030834 0.034545
v -0.065011 0.032212 0.033605
v -0.058222 0.022576 0.034181
v -0.066391 0.032212 0.033442
v -0.065011 0.029457 0.033551
v -0.059139 0.021416 0.034084
v -0.048467 0.014283 0.034949
v -0.037433 0.000513 0.035724
v -0.048467 0.011528 0.034906
v -0.052600 0.012906 0.034531
v -0.038809 -0.010526 0.035219
v -0.037433 -0.011904 0.035320
v -0.035782 -0.020179 0.035079
v -0.035782 -0.022935 0.034884
v -0.035782 -0.024313 0.034765
v -0.035518 -0.028514 0.034214
v -0.035508 -0.029623 0.033670
v -0.035508 0.033598 0.035198
v -0.047087 0.032212 0.034635
v -0.048467 0.030834 0.034625
v -0.053977 0.037732 0.033911
v -0.049847 0.040496 0.033983
v -0.048467 0.041874 0.033976
v -0.040858 0.046654 0.034116
v -0.063634 0.033598 0.033569
v -0.065011 0.033598 0.033435
v -0.067537 0.032212 0.033014
v -0.067475 0.033246 0.032960
v -0.066522 0.030717 0.033169
v -0.065011 0.028079 0.033327
v -0.053253 0.006789 0.034109
v -0.055971 0.013040 0.034102
v -0.057312 0.017073 0.034142
v -0.053977 0.012906 0.034372
v -0.040190 -0.010526 0.035025
v -0.038809 -0.011904 0.035140
v -0.041570 -0.010526 0.034819
v -0.042950 -0.009148 0.034689
v -0.035677 -0.027077 0.034412
v -0.037234 -0.024313 0.034351
v -0.065723 0.027348 0.032758
v -0.052065 0.000925 0.032895
v -0.043677 -0.015424 0.032790
v -0.039710 -0.022666 0.033014
v -0.036911 -0.028068 0.032981
v -0.035508 -0.030782 0.032826
v -0.035508 0.047931 0.034351
v -0.047087 0.041874 0.034059
v -0.035524 0.049124 0.034246
v -0.035508 0.050359 0.033720
v -0.065011 0.034699 0.033014
v -0.066196 0.034052 0.032988
v -0.068486 0.032632 0.031871
v -0.067184 0.030633 0.032805
v -0.066186 0.029457 0.033060
v -0.066656 0.034380 0.032138
v -0.067745 0.033607 0.032019
v -0.068636 0.031817 0.030862
v -0.051938 -0.000226 0.031453
v -0.038088 -0.026312 0.032487
v -0.040871 -0.020851 0.032704
v -0.035508 -0.031387 0.031875
v -0.035508 0.051300 0.031846
v -0.035553 0.051082 0.032916
v -0.038389 0.049603 0.032938
v -0.053560 0.041328 0.032895
v -0.061563 0.037043 0.032736
v -0.064519 0.035598 0.032271
v -0.068633 0.033120 0.030671
v -0.067373 0.034094 0.031010
v -0.061902 0.037236 0.031814
v -0.065031 0.035674 0.030671
v -0.068757 0.032666 0.029291
v -0.068838 0.032212 0.027907
v -0.068652 0.031204 0.029291
v -0.040046 -0.024313 0.026534
v -0.035596 -0.032656 0.026534
v -0.035508 -0.033512 0.022152
v -0.038118 -0.027757 0.027190
v -0.035508 0.051368 0.029291
v -0.035713 0.051242 0.030671
v -0.057455 0.039816 0.031287
v -0.046411 0.045327 0.032751
v -0.054480 0.041067 0.032397
v -0.067139 0.032968 0.003091
v -0.067771 0.033758 0.029291
v -0.066512 0.034691 0.030714
v -0.041570 0.047394 0.004471
v -0.042542 0.046864 0.004471
v -0.059494 0.037589 0.004471
v -0.065145 0.034363 0.001707
v -0.068708 0.031070 0.027907
v -0.067364 0.032212 0.003091
v -0.067824 0.029457 0.011362
v -0.068049 0.029457 0.015502
v -0.068470 0.030129 0.023366
v -0.068473 0.030129 0.025521
v -0.040183 -0.024313 0.025154
v -0.039664 -0.025304 0.025154
v -0.036774 -0.030580 0.026040
v -0.035596 -0.032866 0.025352
v -0.035987 -0.032588 0.022393
v -0.035527 -0.033647 0.021016
v -0.035508 -0.034025 0.018256
v -0.035508 0.050217 0.003091
v -0.035645 0.050376 0.005498
v -0.037775 0.049292 0.004471
v -0.040206 0.048091 0.004471
v -0.066809 0.033153 0.001937
v -0.067116 0.032212 0.001581
v -0.041570 0.047251 0.003091
v -0.064538 0.034245 0.000067
v -0.066013 0.033237 -0.000073
v -0.045005 0.045310 0.002446
v -0.054682 0.039807 0.001004
v -0.067305 0.031112 0.003091
v -0.067713 0.029457 0.009985
v -0.067419 0.028154 0.011362
v -0.067452 0.028112 0.012745
v -0.067471 0.028087 0.014122
v -0.067527 0.028079 0.019636
v -0.067507 0.028079 0.021016
v -0.066956 0.026944 0.019636
v -0.066943 0.026970 0.021016
v -0.036800 -0.032017 0.010958
v -0.054529 0.002866 0.021016
v -0.042274 -0.020893 0.020519
v -0.040819 -0.023506 0.022393
v -0.036787 -0.031295 0.021016
v -0.037247 -0.029833 0.025154
v -0.036095 -0.032588 0.021016
v -0.035508 -0.034117 0.017139
v -0.035645 0.050292 0.004165
v -0.035508 0.049855 0.001833
v -0.036747 0.049460 0.002392
v -0.040392 0.047839 0.003091
v -0.066558 0.032212 0.000330
v -0.066992 0.031086 0.001804
v -0.042366 0.046764 0.002727
v -0.049240 0.042605 0.000957
v -0.043726 0.045361 0.000968
v -0.065011 0.033355 -0.000560
v -0.065432 0.032002 -0.000610
v -0.067246 0.028398 0.008958
v -0.067194 0.027852 0.009985
v -0.036728 -0.027732 0.003826
v -0.035508 -0.034462 0.011120
v -0.035508 -0.034311 0.014122
v -0.036751 -0.031925 0.014511
v -0.036708 -0.031841 0.016879
v -0.035625 0.049133 0.000864
v -0.039524 0.048091 0.002370
v -0.035508 0.037732 0.000449
v -0.066114 0.030868 0.000312
v -0.065856 0.029877 0.000763
v -0.064470 0.027113 0.000777
v -0.062251 0.033598 -0.000787
v -0.063634 0.032212 -0.000892
v -0.060698 0.035422 -0.000517
v -0.063634 0.030834 -0.000881
v -0.065031 0.030868 -0.000600
v -0.036878 -0.026086 0.002201
v -0.035518 -0.029236 0.003112
v -0.035508 -0.030354 0.004673
v -0.035782 0.047385 0.000384
v -0.054330 0.038480 -0.000376
v -0.059494 0.035976 -0.000506
v -0.035508 -0.026069 0.001047
v -0.035782 -0.023347 0.000925
v -0.050835 0.021181 -0.000391
v -0.051224 0.023937 -0.000430
v -0.051224 0.025323 -0.000437
v -0.047782 -0.004326 0.001011
v -0.058829 0.016317 0.000982
v -0.059494 0.034976 -0.000708
v -0.060874 0.033598 -0.000798
v -0.062251 0.032212 -0.000870
v -0.062251 0.030834 -0.000866
v -0.062251 0.029457 -0.000852
v -0.060874 0.026701 -0.000805
v -0.056734 0.018425 -0.000603
v -0.060874 0.025323 -0.000733
v -0.057883 0.018425 -0.000481
v -0.063634 0.029457 -0.000733
v -0.057579 0.017451 -0.000416
v -0.058920 0.019585 -0.000405
v -0.042320 -0.014088 0.000975
v -0.045178 -0.008770 0.000896
v -0.035945 -0.026917 0.001757
v -0.035527 -0.028278 0.002146
v -0.052600 0.025323 -0.000513
v -0.052600 0.028079 -0.000513
v -0.053977 0.028079 -0.000582
v -0.055357 0.028079 -0.000643
v -0.056734 0.029457 -0.000690
v -0.056734 0.034976 -0.000632
v -0.058117 0.034976 -0.000686
v -0.056098 0.014855 -0.000376
v -0.054679 0.012796 -0.000373
v -0.053286 0.011881 -0.000387
v -0.053977 0.014283 -0.000474
v -0.053977 0.015661 -0.000495
v -0.052600 0.019803 -0.000481
v -0.052600 0.021181 -0.000495
v -0.050809 0.020055 -0.000380
v -0.058117 0.029457 -0.000744
v -0.056734 0.026701 -0.000701
v -0.059494 0.033598 -0.000755
v -0.056734 0.025323 -0.000697
v -0.059494 0.025323 -0.000765
v -0.056734 0.019803 -0.000647
v -0.053977 0.023937 -0.000582
v -0.055357 0.026701 -0.000647
v -0.055357 0.018425 -0.000582
v -0.053977 0.019803 -0.000546
v -0.053977 0.022559 -0.000571
v -0.055357 0.025323 -0.000647
v -0.055357 0.023937 -0.000643
f 1 2 3
f 1 3 4
f 1 4 5
f 1 5 6
f 1 6 7
f 1 7 8
f 1 8 9
f 1 9 10
f 1 10 11
f 1 11 27
f 1 27 45
f 1 45 74
f 1 74 90
f 1 90 106
f 1 106 132
f 1 132 160
f 1 160 176
f 1 176 175
f 1 175 192
f 1 192 196
f 1 196 181
f 1 181 162
f 1 162 133
f 1 133 108
f 1 108 91
f 1 91 78
f 1 78 75
f 1 75 46
f 1 46 28
f 1 28 12
f 1 12 2
f 2 12 3
f 3 12 13
f 3 13 4
f 4 13 5
f 5 14 6
f 5 13 15
f 5 15 14
f 6 14 16
f 6 16 17
f 6 17 7
f 7 17 8
f 8 18 10
f 8 10 19
f 8 19 9
f 8 17 20
f 8 20 18
f 9 19 10
f 10 21 11
f 10 18 21
f 11 21 22
f 11 22 23
f 11 23 24
f 11 24 25
f 11 25 26
f 11 26 27
f 12 28 29
f 12 29 30
f 12 30 13
f 13 30 15
f 14 31 16
f 14 15 31
f 15 30 32
f 15 32 33
f 15 33 34
f 15 34 31
f 16 31 17
f 17 35 20
f 17 31 35
f 18 20 36
f 18 36 21
f 20 35 37
f 20 37 36
f 21 36 22
f 22 36 23
f 23 36 37
f 23 37 38
f 23 38 24
f 24 38 25
f 25 38 62
f 25 62 39
f 25 39 40
f 25 40 26
f 26 40 27
f 27 40 41
f 27 41 42
f 27 42 43
f 27 43 44
f 27 44 45
f 28 46 47
f 28 47 48
f 28 48 29
f 29 48 47
f 29 47 30
f 30 47 49
f 30 49 50
f 30 50 51
f 30 51 52
f 30 52 53
f 30 53 54
f 30 54 32
f 31 34 35
f 32 55 33
f 32 54 56
f 32 56 55
f 33 55 57
f 33 57 58
f 33 58 59
f 33 59 60
f 33 60 61
f 33 61 34
f 34 61 38
f 34 38 37
f 34 37 35
f 38 61 62
f 39 63 64
f 39 64 41
f 39 41 40
f 39 62 61
f 39 61 63
f 41 64 63
f 41 63 65
f 41 65 42
f 42 65 66
f 42 66 59
f 42 59 43
f 43 67 44
f 43 59 67
f 44 67 68
f 44 68 59
f 44 59 69
f 44 69 70
f 44 70 45
f 45 70 71
f 45 71 72
f 45 72 73
f 45 73 74
f 46 75 47
f 47 75 76
f 47 76 50
f 47 50 49
f 50 76 51
f 51 76 52
f 52 76 75
f 52 75 77
f 52 77 78
f 52 78 79
f 52 79 80
f 52 80 54
f 52 54 53
f 54 80 56
f 55 56 81
f 55 81 82
f 55 82 83
f 55 83 58
f 55 58 57
f 56 80 84
f 56 84 85
f 56 85 81
f 58 83 59
f 59 68 67
f 59 66 60
f 59 83 69
f 60 66 65
f 60 65 63
f 60 63 61
f 69 83 82
f 69 82 86
f 69 86 87
f 69 87 71
f 69 71 70
f 71 87 88
f 71 88 89
f 71 89 73
f 71 73 72
f 73 88 74
f 73 89 88
f 74 88 90
f 75 78 77
f 78 91 92
f 78 92 93
f 78 93 94
f 78 94 95
f 78 95 79
f 79 95 80
f 80 95 96
f 80 96 84
f 81 85 97
f 81 97 86
f 81 86 82
f 84 98 85
f 84 96 99
f 84 99 100
f 84 100 98
f 85 98 97
f 86 97 101
f 86 101 102
f 86 102 103
f 86 103 87
f 87 104 88
f 87 103 104
f 88 104 90
f 90 105 106
f 90 104 107
f 90 107 105
f 91 93 92
f 91 108 109
f 91 109 110
f 91 110 93
f 93 110 111
f 93 111 94
f 94 111 95
f 95 111 112
f 95 112 99
f 95 99 96
f 97 113 101
f 97 98 114
f 97 114 113
f 98 100 115
f 98 115 114
f 99 112 111
f 99 111 110
f 99 110 100
f 100 110 116
f 100 116 117
f 100 117 118
f 100 118 119
f 100 119 115
f 101 113 102
f 102 120 103
f 102 113 121
f 102 121 122
f 102 122 123
f 102 123 124
f 102 124 120
f 103 120 125
f 103 125 104
f 104 125 126
f 104 126 127
f 104 127 128
f 104 128 107
f 105 129 106
f 105 107 128
f 105 128 129
f 106 129 130
f 106 130 131
f 106 131 132
f 108 133 134
f 108 134 135
f 108 135 136
f 108 136 116
f 108 116 110
f 108 110 109
f 113 114 119
f 113 119 137
f 113 137 138
f 113 138 121
f 114 115 119
f 116 136 139
f 116 139 119
f 116 119 117
f 117 119 118
f 119 140 141
f 119 141 137
f 119 139 142
f 119 142 143
f 119 143 140
f 120 124 125
f 121 138 144
f 121 144 122
f 122 145 146
f 122 146 123
f 122 144 145
f 123 146 147
f 123 147 148
f 123 148 124
f 124 148 149
f 124 149 125
f 125 149 150
f 125 150 151
f 125 151 152
f 125 152 153
f 125 153 154
f 125 154 155
f 125 155 156
f 125 156 126
f 126 156 127
f 127 157 158
f 127 158 128
f 127 156 157
f 128 158 130
f 128 130 129
f 130 159 131
f 130 158 159
f 131 159 132
f 132 159 157
f 132 157 156
f 132 156 155
f 132 155 160
f 133 161 134
f 133 162 163
f 133 163 164
f 133 164 161
f 134 161 135
f 135 161 164
f 135 164 136
f 136 164 139
f 137 141 138
f 138 165 166
f 138 166 144
f 138 141 165
f 139 164 167
f 139 167 142
f 140 143 168
f 140 168 169
f 140 169 170
f 140 170 141
f 141 170 171
f 141 171 165
f 142 167 168
f 142 168 143
f 144 166 153
f 144 153 172
f 144 172 145
f 145 172 173
f 145 173 146
f 146 173 153
f 146 153 147
f 147 153 148
f 148 153 151
f 148 151 149
f 149 151 150
f 151 153 152
f 153 174 175
f 153 175 176
f 153 176 177
f 153 177 154
f 153 173 172
f 153 166 174
f 154 177 155
f 155 177 178
f 155 178 160
f 157 159 158
f 160 178 177
f 160 177 176
f 162 179 169
f 162 169 168
f 162 168 180
f 162 180 163
f 162 181 179
f 163 180 164
f 164 180 167
f 165 171 182
f 165 182 166
f 166 182 183
f 166 183 184
f 166 184 174
f 167 180 168
f 169 179 170
f 170 185 186
f 170 186 171
f 170 179 187
f 170 187 185
f 171 186 188
f 171 188 189
f 171 189 182
f 174 190 191
f 174 191 192
f 174 192 175
f 174 184 190
f 179 181 193
f 179 193 194
f 179 194 195
f 179 195 187
f 181 196 197
f 181 197 198
f 181 198 199
f 181 199 200
f 181 200 193
f 182 189 201
f 182 201 184
f 182 184 183
f 184 201 202
f 184 202 190
f 185 187 195
f 185 195 194
f 185 194 203
f 185 203 186
f 186 203 204
f 186 204 205
f 186 205 206
f 186 206 188
f 188 206 207
f 188 207 208
f 188 208 209
f 188 209 210
f 188 210 211
f 188 211 212
f 188 212 189
f 189 212 213
f 189 213 214
f 189 214 215
f 189 215 216
f 189 216 201
f 190 202 201
f 190 201 215
f 190 215 217
f 190 217 218
f 190 218 191
f 191 218 196
f 191 196 192
f 193 200 219
f 193 219 220
f 193 220 221
f 193 221 222
f 193 222 223
f 193 223 224
f 193 224 225
f 193 225 203
f 193 203 194
f 196 218 217
f 196 217 215
f 196 215 214
f 196 214 213
f 196 213 226
f 196 226 227
f 196 227 228
f 196 228 197
f 197 228 229
f 197 229 230
f 197 230 231
f 197 231 232
f 197 232 233
f 197 233 198
f 198 233 232
f 198 232 199
f 199 232 200
f 200 232 219
f 201 216 215
f 203 225 204
f 204 225 205
f 205 234 235
f 205 235 237
f 205 237 206
f 205 225 236
f 205 236 234
f 206 237 238
f 206 238 208
f 206 208 207
f 208 238 239
f 208 239 209
f 209 229 228
f 209 228 227
f 209 227 210
f 209 239 229
f 210 227 211
f 211 227 226
f 211 226 213
f 211 213 212
f 219 232 240
f 219 240 221
f 219 221 220
f 221 240 245
f 221 245 241
f 221 241 222
f 222 234 223
f 222 241 235
f 222 235 234
f 223 234 236
f 223 236 224
f 224 236 225
f 229 239 230
f 230 239 242
f 230 242 243
f 230 243 231
f 231 243 232
f 232 244 240
f 232 243 244
f 235 241 245
f 235 245 246
f 235 246 237
f 237 246 239
f 237 239 238
f 239 246 242
f 240 244 246
f 240 246 245
f 242 246 243
f 243 246 244
